        .include "MPlayDef.s"

        .equ    _stWard_grp, voicegroup000
        .equ    _stWard_pri, 0
        .equ    _stWard_rev, 0
        .equ    _stWard_key, 0

        .section .rodata
        .global _stWard
        .align  2

@****************** Track 0 (Midi-Chn.0) ******************@

_stWard_0:
        .byte   KEYSH , _stWard_key+0
@ 000   ----------------------------------------
        .byte   TEMPO , 120/2
        .byte           VOICE , 35
        .byte           VOL   , 50
        .byte           N12   , Gn1 , v110
        .byte   W18
        .byte                   Gn1
        .byte   W18
        .byte                   As1
        .byte   W18
        .byte                   Gn1
        .byte   W18
        .byte                   Dn2
        .byte   W12
        .byte                   Dn1
        .byte   W12
@ 001   ----------------------------------------
_stWard_0_1:
        .byte   W12
        .byte           N12   , Fn1 , v110
        .byte   W12
        .byte                   Gn1
        .byte   W12
        .byte           N06   , Fn1
        .byte   W06
        .byte                   Gn1
        .byte   W06
        .byte                   As1
        .byte   W06
        .byte                   As1
        .byte   W06
        .byte           N12   , Gn1
        .byte   W12
        .byte                   Dn2
        .byte   W12
        .byte                   Dn1
        .byte   W12
        .byte   PEND
@ 002   ----------------------------------------
_stWard_0_2:
        .byte           N12   , Gn1 , v110
        .byte   W18
        .byte                   Gn1
        .byte   W18
        .byte                   As1
        .byte   W18
        .byte                   Gn1
        .byte   W18
        .byte                   Dn2
        .byte   W12
        .byte                   Dn1
        .byte   W12
        .byte   PEND
@ 003   ----------------------------------------
_stWard_0_3:
        .byte   W12
        .byte           N12   , Fn1 , v110
        .byte   W12
        .byte                   Gn1
        .byte   W12
        .byte           N06   , Fn1
        .byte   W06
        .byte                   Dn1
        .byte   W06
        .byte                   As1
        .byte   W06
        .byte                   As1
        .byte   W06
        .byte           N12   , Gn1
        .byte   W12
        .byte                   Dn2
        .byte   W12
        .byte                   Dn1
        .byte   W12
        .byte   PEND
@ 004   ----------------------------------------
        .byte   PATT
         .word  _stWard_0_2
@ 005   ----------------------------------------
        .byte   PATT
         .word  _stWard_0_1
@ 006   ----------------------------------------
        .byte   PATT
         .word  _stWard_0_2
@ 007   ----------------------------------------
        .byte   W12
        .byte           N12   , Fn1 , v110
        .byte   W12
        .byte                   Gn1
        .byte   W12
        .byte           N06   , Fn1
        .byte   W06
        .byte                   Dn1
        .byte   W06
        .byte           N12   , As1
        .byte   W18
        .byte                   As1
        .byte   W18
        .byte                   An1
        .byte   W06
_stWard_0_LOOP:
        .byte   W06
@ 008   ----------------------------------------
        .byte           BENDR , 127
        .byte           N12   , Gn1 , v110
        .byte   W18
        .byte                   Gn1
        .byte   W18
        .byte                   As1
        .byte   W18
        .byte                   Gn1
        .byte   W18
        .byte                   Dn2
        .byte   W12
        .byte                   Dn1
        .byte   W12
@ 009   ----------------------------------------
        .byte   PATT
         .word  _stWard_0_1
@ 010   ----------------------------------------
        .byte   PATT
         .word  _stWard_0_2
@ 011   ----------------------------------------
        .byte   PATT
         .word  _stWard_0_3
@ 012   ----------------------------------------
        .byte   PATT
         .word  _stWard_0_2
@ 013   ----------------------------------------
        .byte   PATT
         .word  _stWard_0_1
@ 014   ----------------------------------------
        .byte   PATT
         .word  _stWard_0_2
@ 015   ----------------------------------------
_stWard_0_15:
        .byte   W12
        .byte           N12   , Fn1 , v110
        .byte   W12
        .byte                   Gn1
        .byte   W12
        .byte           N06   , Fn1
        .byte   W06
        .byte                   Dn1
        .byte   W06
        .byte           N12   , As1
        .byte   W18
        .byte                   As1
        .byte   W18
        .byte                   An1
        .byte   W12
        .byte   PEND
@ 016   ----------------------------------------
        .byte   PATT
         .word  _stWard_0_2
@ 017   ----------------------------------------
        .byte   PATT
         .word  _stWard_0_1
@ 018   ----------------------------------------
        .byte   PATT
         .word  _stWard_0_2
@ 019   ----------------------------------------
        .byte   PATT
         .word  _stWard_0_3
@ 020   ----------------------------------------
        .byte   PATT
         .word  _stWard_0_2
@ 021   ----------------------------------------
        .byte   PATT
         .word  _stWard_0_1
@ 022   ----------------------------------------
        .byte   PATT
         .word  _stWard_0_2
@ 023   ----------------------------------------
        .byte   PATT
         .word  _stWard_0_15
@ 024   ----------------------------------------
        .byte   PATT
         .word  _stWard_0_2
@ 025   ----------------------------------------
        .byte   W72
        .byte           N12   , Dn2 , v110
        .byte   W12
        .byte                   Dn1
        .byte   W12
@ 026   ----------------------------------------
        .byte   PATT
         .word  _stWard_0_2
@ 027   ----------------------------------------
        .byte   W48
        .byte           N06   , As1 , v110
        .byte   W06
        .byte                   As1
        .byte   W06
        .byte           N12   , Gn1
        .byte   W12
        .byte                   Dn2
        .byte   W12
        .byte                   Dn1
        .byte   W12
@ 028   ----------------------------------------
        .byte   PATT
         .word  _stWard_0_2
@ 029   ----------------------------------------
        .byte   W36
        .byte           N06   , Fn1 , v110
        .byte   W06
        .byte                   Gn1
        .byte   W06
        .byte                   As1
        .byte   W06
        .byte                   As1
        .byte   W06
        .byte           N12   , Gn1
        .byte   W12
        .byte                   Dn2
        .byte   W12
        .byte                   Dn1
        .byte   W12
@ 030   ----------------------------------------
        .byte   PATT
         .word  _stWard_0_2
@ 031   ----------------------------------------
        .byte   PATT
         .word  _stWard_0_15
@ 032   ----------------------------------------
_stWard_0_32:
        .byte           N12   , Gn1 , v110
        .byte   W18
        .byte                   Gn1
        .byte   W18
        .byte                   As1
        .byte   W18
        .byte                   Gn1
        .byte   W18
        .byte                   Dn2
        .byte   W12
        .byte                   Cs2
        .byte   W12
        .byte   PEND
@ 033   ----------------------------------------
_stWard_0_33:
        .byte           N12   , Gn1 , v110
        .byte   W18
        .byte                   Gn1
        .byte   W18
        .byte                   As1
        .byte   W18
        .byte                   Gn1
        .byte   W18
        .byte                   Fn2
        .byte   W12
        .byte                   En2
        .byte   W12
        .byte   PEND
@ 034   ----------------------------------------
        .byte   PATT
         .word  _stWard_0_32
@ 035   ----------------------------------------
        .byte   PATT
         .word  _stWard_0_33
@ 036   ----------------------------------------
        .byte   PATT
         .word  _stWard_0_32
@ 037   ----------------------------------------
        .byte   PATT
         .word  _stWard_0_33
@ 038   ----------------------------------------
        .byte   PATT
         .word  _stWard_0_32
@ 039   ----------------------------------------
        .byte   PATT
         .word  _stWard_0_33
@ 040   ----------------------------------------
_stWard_0_40:
        .byte           N12   , Ds1 , v110
        .byte   W18
        .byte                   Ds1
        .byte   W18
        .byte                   Gn1
        .byte   W18
        .byte                   Ds1
        .byte   W18
        .byte                   As1
        .byte   W12
        .byte                   An1
        .byte   W12
        .byte   PEND
@ 041   ----------------------------------------
_stWard_0_41:
        .byte           N12   , Ds1 , v110
        .byte   W18
        .byte                   Ds1
        .byte   W18
        .byte                   Gn1
        .byte   W18
        .byte                   Ds1
        .byte   W18
        .byte                   Cs2
        .byte   W12
        .byte                   Cn2
        .byte   W12
        .byte   PEND
@ 042   ----------------------------------------
        .byte   PATT
         .word  _stWard_0_40
@ 043   ----------------------------------------
        .byte   PATT
         .word  _stWard_0_41
@ 044   ----------------------------------------
        .byte   PATT
         .word  _stWard_0_32
@ 045   ----------------------------------------
        .byte   PATT
         .word  _stWard_0_33
@ 046   ----------------------------------------
        .byte   PATT
         .word  _stWard_0_32
@ 047   ----------------------------------------
        .byte   PATT
         .word  _stWard_0_33
@ 048   ----------------------------------------
        .byte   PATT
         .word  _stWard_0_2
@ 049   ----------------------------------------
        .byte   PATT
         .word  _stWard_0_1
@ 050   ----------------------------------------
        .byte   PATT
         .word  _stWard_0_2
@ 051   ----------------------------------------
        .byte   PATT
         .word  _stWard_0_3
@ 052   ----------------------------------------
        .byte   PATT
         .word  _stWard_0_2
@ 053   ----------------------------------------
        .byte   PATT
         .word  _stWard_0_1
@ 054   ----------------------------------------
        .byte   PATT
         .word  _stWard_0_2
@ 055   ----------------------------------------
        .byte   W12
        .byte           N12   , Fn1 , v110
        .byte   W12
        .byte                   Gn1
        .byte   W12
        .byte           N06   , Fn1
        .byte   W06
        .byte                   Dn1
        .byte   W06
        .byte           N12   , As1
        .byte   W18
        .byte                   As1
        .byte   W18
        .byte           N11   , An1
        .byte   W06
        .byte           BENDR , 2
        .byte   GOTO
         .word  _stWard_0_LOOP
        .byte   W06
@ 056   ----------------------------------------
        .byte   FINE

@****************** Track 1 (Midi-Chn.1) ******************@

_stWard_1:
        .byte   KEYSH , _stWard_key+0
@ 000   ----------------------------------------
        .byte           VOICE , 92
        .byte           VOL   , 50
        .byte   W96
@ 001   ----------------------------------------
        .byte   W96
@ 002   ----------------------------------------
        .byte   W96
@ 003   ----------------------------------------
        .byte   W96
@ 004   ----------------------------------------
        .byte   W96
@ 005   ----------------------------------------
        .byte   W96
@ 006   ----------------------------------------
        .byte   W96
@ 007   ----------------------------------------
        .byte   W90
_stWard_1_LOOP:
        .byte   W06
@ 008   ----------------------------------------
_stWard_1_8:
        .byte   W12
        .byte           N16   , Dn3 , v100
        .byte           N16   , Fn3
        .byte   W18
        .byte                   Dn3 , v082
        .byte           N16   , Fn3
        .byte   W18
        .byte                   Dn3 , v065
        .byte           N16   , Fn3
        .byte   W18
        .byte                   Dn3 , v047
        .byte           N16   , Fn3
        .byte   W18
        .byte                   Dn3 , v030
        .byte           N16   , Fn3
        .byte   W12
        .byte   PEND
@ 009   ----------------------------------------
        .byte   W96
@ 010   ----------------------------------------
_stWard_1_10:
        .byte   W12
        .byte           N16   , Cs3 , v100
        .byte           N16   , En3
        .byte   W18
        .byte                   Cs3 , v082
        .byte           N16   , En3
        .byte   W18
        .byte                   Cs3 , v065
        .byte           N16   , En3
        .byte   W18
        .byte                   Cs3 , v047
        .byte           N16   , En3
        .byte   W18
        .byte                   Cs3 , v030
        .byte           N16   , En3
        .byte   W12
        .byte   PEND
@ 011   ----------------------------------------
        .byte   W96
@ 012   ----------------------------------------
_stWard_1_12:
        .byte   W12
        .byte           N16   , Cn3 , v100
        .byte           N16   , Ds3
        .byte   W18
        .byte                   Cn3 , v082
        .byte           N16   , Ds3
        .byte   W18
        .byte                   Cn3 , v065
        .byte           N16   , Ds3
        .byte   W18
        .byte                   Cn3 , v047
        .byte           N16   , Ds3
        .byte   W18
        .byte                   Cn3 , v030
        .byte           N16   , Ds3
        .byte   W12
        .byte   PEND
@ 013   ----------------------------------------
        .byte   W96
@ 014   ----------------------------------------
_stWard_1_14:
        .byte   W12
        .byte           N16   , As2 , v100
        .byte           N16   , Dn3
        .byte   W18
        .byte                   As2 , v082
        .byte           N16   , Dn3
        .byte   W18
        .byte                   As2 , v065
        .byte           N16   , Dn3
        .byte   W18
        .byte                   As2 , v047
        .byte           N16   , Dn3
        .byte   W18
        .byte                   As2 , v030
        .byte           N16   , Dn3
        .byte   W12
        .byte   PEND
@ 015   ----------------------------------------
        .byte   W96
@ 016   ----------------------------------------
        .byte   PATT
         .word  _stWard_1_8
@ 017   ----------------------------------------
        .byte   W96
@ 018   ----------------------------------------
        .byte   PATT
         .word  _stWard_1_10
@ 019   ----------------------------------------
        .byte   W96
@ 020   ----------------------------------------
        .byte   PATT
         .word  _stWard_1_12
@ 021   ----------------------------------------
        .byte   W96
@ 022   ----------------------------------------
        .byte   PATT
         .word  _stWard_1_14
@ 023   ----------------------------------------
        .byte   W96
@ 024   ----------------------------------------
        .byte   W96
@ 025   ----------------------------------------
        .byte   W96
@ 026   ----------------------------------------
        .byte   W96
@ 027   ----------------------------------------
        .byte   W96
@ 028   ----------------------------------------
        .byte   W96
@ 029   ----------------------------------------
        .byte   W96
@ 030   ----------------------------------------
        .byte   W96
@ 031   ----------------------------------------
        .byte   W96
@ 032   ----------------------------------------
_stWard_1_32:
        .byte   W72
        .byte           N12   , As2 , v106
        .byte           N12   , Dn3
        .byte   W12
        .byte                   An2
        .byte           N12   , Cs3
        .byte   W12
        .byte   PEND
@ 033   ----------------------------------------
_stWard_1_33:
        .byte   W72
        .byte           N12   , Dn3 , v106
        .byte           N12   , Fn3
        .byte   W12
        .byte                   Cs3
        .byte           N12   , En3
        .byte   W12
        .byte   PEND
@ 034   ----------------------------------------
        .byte   PATT
         .word  _stWard_1_32
@ 035   ----------------------------------------
        .byte   PATT
         .word  _stWard_1_33
@ 036   ----------------------------------------
        .byte   PATT
         .word  _stWard_1_32
@ 037   ----------------------------------------
        .byte   PATT
         .word  _stWard_1_33
@ 038   ----------------------------------------
        .byte   PATT
         .word  _stWard_1_32
@ 039   ----------------------------------------
        .byte   PATT
         .word  _stWard_1_33
@ 040   ----------------------------------------
_stWard_1_40:
        .byte   W72
        .byte           N12   , Fs2 , v106
        .byte           N12   , As2
        .byte   W12
        .byte                   Fn2
        .byte           N12   , An2
        .byte   W12
        .byte   PEND
@ 041   ----------------------------------------
_stWard_1_41:
        .byte   W72
        .byte           N12   , As2 , v106
        .byte           N12   , Cs3
        .byte   W12
        .byte                   An2
        .byte           N12   , Cn3
        .byte   W12
        .byte   PEND
@ 042   ----------------------------------------
        .byte   PATT
         .word  _stWard_1_40
@ 043   ----------------------------------------
        .byte   PATT
         .word  _stWard_1_41
@ 044   ----------------------------------------
        .byte   PATT
         .word  _stWard_1_32
@ 045   ----------------------------------------
        .byte   PATT
         .word  _stWard_1_33
@ 046   ----------------------------------------
        .byte   PATT
         .word  _stWard_1_32
@ 047   ----------------------------------------
        .byte   PATT
         .word  _stWard_1_33
@ 048   ----------------------------------------
        .byte   W96
@ 049   ----------------------------------------
        .byte   W96
@ 050   ----------------------------------------
        .byte   W96
@ 051   ----------------------------------------
        .byte   W96
@ 052   ----------------------------------------
        .byte   W96
@ 053   ----------------------------------------
        .byte   W96
@ 054   ----------------------------------------
        .byte   W96
@ 055   ----------------------------------------
        .byte   W90
        .byte   GOTO
         .word  _stWard_1_LOOP
        .byte   W06
@ 056   ----------------------------------------
        .byte   FINE

@****************** Track 2 (Midi-Chn.2) ******************@

_stWard_2:
        .byte   KEYSH , _stWard_key+0
@ 000   ----------------------------------------
        .byte           VOICE , 92
        .byte           VOL   , 50
        .byte           TIE   , Dn2 , v080
        .byte           TIE   , Fn2
        .byte   W96
@ 001   ----------------------------------------
_stWard_2_1:
        .byte   W11
        .byte           EOT   , Dn2
        .byte                   Fn2
        .byte   W84
        .byte   W01
        .byte   PEND
@ 002   ----------------------------------------
_stWard_2_2:
        .byte           TIE   , Cs2 , v090
        .byte           TIE   , En2
        .byte   W96
        .byte   PEND
@ 003   ----------------------------------------
_stWard_2_3:
        .byte   W11
        .byte           EOT   , Cs2
        .byte                   En2
        .byte   W84
        .byte   W01
        .byte   PEND
@ 004   ----------------------------------------
_stWard_2_4:
        .byte           TIE   , Cn2 , v100
        .byte           TIE   , Ds2
        .byte   W96
        .byte   PEND
@ 005   ----------------------------------------
_stWard_2_5:
        .byte   W11
        .byte           EOT   , Cn2
        .byte                   Ds2
        .byte   W84
        .byte   W01
        .byte   PEND
@ 006   ----------------------------------------
_stWard_2_6:
        .byte           TIE   , As1 , v110
        .byte           TIE   , Dn2
        .byte   W96
        .byte   PEND
@ 007   ----------------------------------------
        .byte   W11
        .byte           EOT   , As1
        .byte                   Dn2
        .byte   W78
        .byte   W01
_stWard_2_LOOP:
        .byte   W06
@ 008   ----------------------------------------
        .byte           TIE   , Dn3 , v080
        .byte           TIE   , Fn3
        .byte   W96
@ 009   ----------------------------------------
        .byte   W96
@ 010   ----------------------------------------
_stWard_2_10:
        .byte           EOT   , Dn3
        .byte                   Fn3
        .byte           TIE   , Cs3 , v080
        .byte           TIE   , En3
        .byte   W96
        .byte   PEND
@ 011   ----------------------------------------
        .byte   W96
@ 012   ----------------------------------------
_stWard_2_12:
        .byte           EOT   , Cs3
        .byte                   En3
        .byte           TIE   , Cn3 , v080
        .byte           TIE   , Ds3
        .byte   W96
        .byte   PEND
@ 013   ----------------------------------------
        .byte   W96
@ 014   ----------------------------------------
_stWard_2_14:
        .byte           EOT   , Cn3
        .byte                   Ds3
        .byte           TIE   , As2 , v080
        .byte           TIE   , Dn3
        .byte   W96
        .byte   PEND
@ 015   ----------------------------------------
        .byte   W96
@ 016   ----------------------------------------
        .byte           EOT   , As2
        .byte                   Dn3
        .byte           TIE
        .byte           TIE   , Fn3
        .byte   W96
@ 017   ----------------------------------------
        .byte   W96
@ 018   ----------------------------------------
        .byte   PATT
         .word  _stWard_2_10
@ 019   ----------------------------------------
        .byte   W96
@ 020   ----------------------------------------
        .byte   PATT
         .word  _stWard_2_12
@ 021   ----------------------------------------
        .byte   W96
@ 022   ----------------------------------------
        .byte   PATT
         .word  _stWard_2_14
@ 023   ----------------------------------------
        .byte   W96
@ 024   ----------------------------------------
        .byte           EOT   , As2
        .byte                   Dn3
        .byte           TIE   , Dn2 , v080
        .byte           TIE   , Fn2
        .byte   W96
@ 025   ----------------------------------------
        .byte   PATT
         .word  _stWard_2_1
@ 026   ----------------------------------------
        .byte   PATT
         .word  _stWard_2_2
@ 027   ----------------------------------------
        .byte   PATT
         .word  _stWard_2_3
@ 028   ----------------------------------------
        .byte   PATT
         .word  _stWard_2_4
@ 029   ----------------------------------------
        .byte   PATT
         .word  _stWard_2_5
@ 030   ----------------------------------------
        .byte   PATT
         .word  _stWard_2_6
@ 031   ----------------------------------------
        .byte   W11
        .byte           EOT   , As1
        .byte                   Dn2
        .byte   W84
        .byte   W01
@ 032   ----------------------------------------
        .byte   W96
@ 033   ----------------------------------------
        .byte   W96
@ 034   ----------------------------------------
        .byte   W96
@ 035   ----------------------------------------
        .byte   W96
@ 036   ----------------------------------------
        .byte   W96
@ 037   ----------------------------------------
        .byte   W96
@ 038   ----------------------------------------
        .byte   W96
@ 039   ----------------------------------------
        .byte   W96
@ 040   ----------------------------------------
        .byte   W96
@ 041   ----------------------------------------
        .byte   W96
@ 042   ----------------------------------------
        .byte   W96
@ 043   ----------------------------------------
        .byte   W96
@ 044   ----------------------------------------
        .byte   W96
@ 045   ----------------------------------------
        .byte   W96
@ 046   ----------------------------------------
        .byte   W96
@ 047   ----------------------------------------
        .byte   W96
@ 048   ----------------------------------------
        .byte           TIE   , Dn2 , v080
        .byte           TIE   , Fn2
        .byte   W96
@ 049   ----------------------------------------
        .byte   PATT
         .word  _stWard_2_1
@ 050   ----------------------------------------
        .byte   PATT
         .word  _stWard_2_2
@ 051   ----------------------------------------
        .byte   PATT
         .word  _stWard_2_3
@ 052   ----------------------------------------
        .byte   PATT
         .word  _stWard_2_4
@ 053   ----------------------------------------
        .byte   PATT
         .word  _stWard_2_5
@ 054   ----------------------------------------
        .byte   PATT
         .word  _stWard_2_6
@ 055   ----------------------------------------
        .byte   W11
        .byte           EOT   , As1
        .byte                   Dn2
        .byte   W78
        .byte   W01
        .byte   GOTO
         .word  _stWard_2_LOOP
        .byte   W06
@ 056   ----------------------------------------
        .byte   FINE

@****************** Track 3 (Midi-Chn.4) ******************@

_stWard_3:
        .byte   KEYSH , _stWard_key+0
@ 000   ----------------------------------------
        .byte           VOICE , 68
        .byte           VOL   , 50
        .byte   W96
@ 001   ----------------------------------------
        .byte   W96
@ 002   ----------------------------------------
        .byte   W96
@ 003   ----------------------------------------
        .byte   W96
@ 004   ----------------------------------------
        .byte   W96
@ 005   ----------------------------------------
        .byte   W96
@ 006   ----------------------------------------
        .byte   W96
@ 007   ----------------------------------------
        .byte   W90
_stWard_3_LOOP:
        .byte   W06
@ 008   ----------------------------------------
        .byte           TIE   , As3 , v100
        .byte   W96
@ 009   ----------------------------------------
        .byte   W48
        .byte           EOT
        .byte           N44   , Gn3 , v100 , gtp2
        .byte   W48
@ 010   ----------------------------------------
        .byte           N68   , An3 , v100 , gtp1
        .byte   W72
        .byte           TIE   , En3
        .byte   W24
@ 011   ----------------------------------------
        .byte   W96
@ 012   ----------------------------------------
        .byte           EOT
        .byte   W48
        .byte           N92   , Gs3
        .byte   W48
@ 013   ----------------------------------------
_stWard_3_13:
        .byte   W48
        .byte           N44   , Fs3 , v100 , gtp2
        .byte   W48
        .byte   PEND
@ 014   ----------------------------------------
        .byte           N68   , Gn3 , v100 , gtp1
        .byte   W72
        .byte           TIE   , Dn3
        .byte   W24
@ 015   ----------------------------------------
        .byte   W96
@ 016   ----------------------------------------
        .byte           EOT
        .byte   W48
        .byte           N92   , As3
        .byte   W48
@ 017   ----------------------------------------
        .byte   W48
        .byte           N44   , Gn3 , v100 , gtp2
        .byte   W48
@ 018   ----------------------------------------
        .byte           N68   , An3 , v100 , gtp1
        .byte   W72
        .byte                   Cs4
        .byte   W24
@ 019   ----------------------------------------
        .byte   W48
        .byte           N44   , An3 , v100 , gtp2
        .byte   W48
@ 020   ----------------------------------------
        .byte           N68   , Gs3 , v100 , gtp1
        .byte   W72
        .byte                   Cn4
        .byte   W24
@ 021   ----------------------------------------
        .byte   PATT
         .word  _stWard_3_13
@ 022   ----------------------------------------
        .byte           TIE   , Gn3 , v100
        .byte   W96
@ 023   ----------------------------------------
        .byte   W96
@ 024   ----------------------------------------
        .byte           EOT
        .byte   W96
@ 025   ----------------------------------------
        .byte   W96
@ 026   ----------------------------------------
        .byte   W96
@ 027   ----------------------------------------
        .byte   W96
@ 028   ----------------------------------------
        .byte   W96
@ 029   ----------------------------------------
        .byte   W96
@ 030   ----------------------------------------
        .byte   W96
@ 031   ----------------------------------------
        .byte   W96
@ 032   ----------------------------------------
        .byte   W96
@ 033   ----------------------------------------
        .byte   W96
@ 034   ----------------------------------------
        .byte   W96
@ 035   ----------------------------------------
        .byte   W96
@ 036   ----------------------------------------
        .byte   W96
@ 037   ----------------------------------------
        .byte   W96
@ 038   ----------------------------------------
        .byte   W96
@ 039   ----------------------------------------
        .byte   W96
@ 040   ----------------------------------------
        .byte   W96
@ 041   ----------------------------------------
        .byte   W96
@ 042   ----------------------------------------
        .byte   W96
@ 043   ----------------------------------------
        .byte   W96
@ 044   ----------------------------------------
        .byte   W96
@ 045   ----------------------------------------
        .byte   W96
@ 046   ----------------------------------------
        .byte   W96
@ 047   ----------------------------------------
        .byte   W96
@ 048   ----------------------------------------
        .byte   W96
@ 049   ----------------------------------------
        .byte   W96
@ 050   ----------------------------------------
        .byte   W96
@ 051   ----------------------------------------
        .byte   W96
@ 052   ----------------------------------------
        .byte   W96
@ 053   ----------------------------------------
        .byte   W96
@ 054   ----------------------------------------
        .byte   W96
@ 055   ----------------------------------------
        .byte   W90
        .byte   GOTO
         .word  _stWard_3_LOOP
        .byte   W06
@ 056   ----------------------------------------
        .byte   FINE

@****************** Track 4 (Midi-Chn.5) ******************@

_stWard_4:
        .byte   KEYSH , _stWard_key+0
@ 000   ----------------------------------------
        .byte           VOICE , 115
        .byte           VOL   , 50
        .byte   W96
@ 001   ----------------------------------------
        .byte   W96
@ 002   ----------------------------------------
        .byte   W96
@ 003   ----------------------------------------
        .byte   W96
@ 004   ----------------------------------------
        .byte   W96
@ 005   ----------------------------------------
        .byte   W96
@ 006   ----------------------------------------
        .byte   W96
@ 007   ----------------------------------------
        .byte   W90
_stWard_4_LOOP:
        .byte   W06
@ 008   ----------------------------------------
        .byte   W96
@ 009   ----------------------------------------
        .byte   W96
@ 010   ----------------------------------------
        .byte   W96
@ 011   ----------------------------------------
        .byte   W96
@ 012   ----------------------------------------
        .byte   W96
@ 013   ----------------------------------------
        .byte   W96
@ 014   ----------------------------------------
        .byte   W96
@ 015   ----------------------------------------
        .byte   W96
@ 016   ----------------------------------------
        .byte   W96
@ 017   ----------------------------------------
        .byte   W96
@ 018   ----------------------------------------
        .byte   W96
@ 019   ----------------------------------------
        .byte   W96
@ 020   ----------------------------------------
        .byte   W96
@ 021   ----------------------------------------
        .byte   W96
@ 022   ----------------------------------------
        .byte   W96
@ 023   ----------------------------------------
        .byte   W96
@ 024   ----------------------------------------
        .byte           TIE   , Cn1 , v090
        .byte   W48
        .byte   W01
        .byte           BEND  , c_v-3
        .byte   W24
        .byte   W01
        .byte                   c_v-6
        .byte   W22
@ 025   ----------------------------------------
        .byte   W03
        .byte                   c_v-9
        .byte   W24
        .byte   W01
        .byte                   c_v-12
        .byte   W24
        .byte   W01
        .byte                   c_v-15
        .byte   W24
        .byte   W01
        .byte                   c_v-17
        .byte   W18
@ 026   ----------------------------------------
        .byte   W07
        .byte                   c_v-20
        .byte   W24
        .byte   W01
        .byte                   c_v-23
        .byte   W24
        .byte   W01
        .byte                   c_v-26
        .byte   W24
        .byte   W01
        .byte                   c_v-29
        .byte   W14
@ 027   ----------------------------------------
        .byte   W12
        .byte                   c_v-32
        .byte   W24
        .byte   W01
        .byte                   c_v-35
        .byte   W24
        .byte   W01
        .byte                   c_v-38
        .byte   W24
        .byte   W01
        .byte                   c_v-41
        .byte   W09
@ 028   ----------------------------------------
        .byte   W16
        .byte                   c_v-44
        .byte   W24
        .byte   W01
        .byte                   c_v-46
        .byte   W24
        .byte   W01
        .byte                   c_v-49
        .byte   W24
        .byte   W01
        .byte                   c_v-52
        .byte   W05
@ 029   ----------------------------------------
        .byte   W20
        .byte                   c_v-55
        .byte   W24
        .byte   W01
        .byte                   c_v-58
        .byte   W24
        .byte   W01
        .byte                   c_v-61
        .byte   W24
        .byte   W01
        .byte                   c_v-64
        .byte   W01
@ 030   ----------------------------------------
        .byte           EOT
        .byte   W96
@ 031   ----------------------------------------
        .byte   W72
        .byte           N05   , Fn1 , v109
        .byte   W06
        .byte                   Gn1
        .byte   W06
        .byte                   As1
        .byte           N05   , Fn3 , v093
        .byte   W06
        .byte                   An1 , v109
        .byte           N05   , Gn3 , v093
        .byte   W06
@ 032   ----------------------------------------
        .byte                   Gn1 , v109
        .byte           N05   , As3 , v093
        .byte   W06
        .byte                   Gn1 , v109
        .byte           N05   , An3 , v093
        .byte   W06
        .byte           N11   , Gn2 , v109
        .byte           N05   , Gn3 , v093
        .byte   W06
        .byte                   Gn3
        .byte   W06
        .byte                   Gn1 , v109
        .byte           N11   , Gn4 , v093
        .byte   W06
        .byte                   Fn2 , v109
        .byte   W06
        .byte           N05   , Gn3 , v093
        .byte   W06
        .byte                   Gn1 , v109
        .byte           N11   , Fn4 , v093
        .byte   W06
        .byte                   Dn2 , v109
        .byte   W06
        .byte           N05   , Gn3 , v093
        .byte   W06
        .byte                   Gn1 , v109
        .byte           N11   , Dn4 , v093
        .byte   W06
        .byte                   Cn2 , v109
        .byte   W06
        .byte           N05   , Gn3 , v093
        .byte   W06
        .byte                   Gn1 , v109
        .byte           N11   , Cn4 , v093
        .byte   W06
        .byte           N05   , As1 , v109
        .byte   W06
        .byte                   Cn2
        .byte           N05   , Gn3 , v093
        .byte   W06
@ 033   ----------------------------------------
        .byte                   Dn2 , v109
        .byte           N05   , As3 , v093
        .byte   W06
        .byte                   Gn1 , v109
        .byte           N05   , Cn4 , v093
        .byte   W06
        .byte                   Gn1 , v109
        .byte           N05   , Dn4 , v093
        .byte   W06
        .byte                   Cn2 , v109
        .byte           N05   , Gn3 , v093
        .byte   W06
        .byte                   Gn1 , v109
        .byte           N05   , Gn3 , v093
        .byte   W06
        .byte                   Gn1 , v109
        .byte           N05   , Cn4 , v093
        .byte   W06
        .byte                   As1 , v109
        .byte           N05   , Gn3 , v093
        .byte   W06
        .byte                   Gn1 , v109
        .byte           N05   , Gn3 , v093
        .byte   W06
        .byte                   Gn1 , v109
        .byte           N05   , As3 , v093
        .byte   W06
        .byte                   An1 , v109
        .byte           N05   , Gn3 , v093
        .byte   W06
        .byte                   Gn1 , v109
        .byte           N05   , Gn3 , v093
        .byte   W06
        .byte                   An1 , v109
        .byte           N05   , An3 , v093
        .byte   W06
        .byte                   As1 , v109
        .byte           N05   , Gn3 , v093
        .byte   W06
        .byte                   Cn2 , v109
        .byte           N05   , An3 , v093
        .byte   W06
        .byte                   An1 , v109
        .byte           N05   , As3 , v093
        .byte   W06
        .byte                   Fn1 , v109
        .byte           N05   , Cn4 , v093
        .byte   W06
@ 034   ----------------------------------------
        .byte                   Gn1 , v109
        .byte           N05   , An3 , v093
        .byte   W06
        .byte                   An1 , v109
        .byte           N05   , Fn3 , v093
        .byte   W06
        .byte                   As1 , v109
        .byte           N05   , Gn3 , v093
        .byte   W06
        .byte           N11   , Cn2 , v109
        .byte           N05   , An3 , v093
        .byte   W06
        .byte                   As3
        .byte   W06
        .byte                   As1 , v109
        .byte           N11   , Cn4 , v093
        .byte   W06
        .byte           N05   , Cn2 , v109
        .byte   W06
        .byte           N11   , Dn2
        .byte           N05   , As3 , v093
        .byte   W06
        .byte                   Cn4
        .byte   W06
        .byte                   Cn2 , v109
        .byte           N11   , Dn4 , v093
        .byte   W06
        .byte           N05   , As1 , v109
        .byte   W06
        .byte           N11   , Cn2
        .byte           N05   , Cn4 , v093
        .byte   W06
        .byte                   As3
        .byte   W06
        .byte                   As1 , v109
        .byte           N11   , Cn4 , v093
        .byte   W06
        .byte           N05   , An1 , v109
        .byte   W06
        .byte                   Cn2
        .byte           N05   , As3 , v093
        .byte   W06
@ 035   ----------------------------------------
        .byte           N11   , Dn2 , v109
        .byte           N05   , An3 , v093
        .byte   W06
        .byte                   Cn4
        .byte   W06
        .byte                   As1 , v109
        .byte           N11   , Dn4 , v093
        .byte   W06
        .byte                   Fn2 , v109
        .byte   W06
        .byte           N05   , As3 , v093
        .byte   W06
        .byte                   Dn2 , v109
        .byte           N11   , Fn4 , v093
        .byte   W06
        .byte           N05   , Gn2 , v109
        .byte   W06
        .byte                   Fn2
        .byte           N05   , Dn4 , v093
        .byte   W06
        .byte                   Dn2 , v109
        .byte           N05   , Gn4 , v093
        .byte   W06
        .byte           N11   , As2 , v109
        .byte           N05   , Fn4 , v093
        .byte   W06
        .byte                   Dn4
        .byte   W06
        .byte           N11   , An2 , v109
        .byte           N11   , As4 , v093
        .byte   W12
        .byte                   Dn2 , v109
        .byte           N11   , An4 , v093
        .byte   W12
        .byte           N05   , Fn2 , v109
        .byte           N11   , Dn4 , v093
        .byte   W06
@ 036   ----------------------------------------
        .byte           N05   , Gn2 , v109
        .byte   W06
        .byte                   Gn1
        .byte           N05   , Fn4 , v093
        .byte   W06
        .byte                   Gn1 , v109
        .byte           N05   , Gn4 , v093
        .byte   W06
        .byte                   Fn2 , v109
        .byte           N05   , Gn3 , v093
        .byte   W06
        .byte                   Gn1 , v109
        .byte           N05   , Gn3 , v093
        .byte   W06
        .byte                   Gn1 , v109
        .byte           N05   , Fn4 , v093
        .byte   W06
        .byte                   Gn2 , v109
        .byte           N05   , Gn3 , v093
        .byte   W06
        .byte                   Gn1 , v109
        .byte           N05   , Gn3 , v093
        .byte   W06
        .byte                   Gn2 , v089
        .byte           N05   , Gn4 , v093
        .byte   W06
        .byte                   Fn2 , v109
        .byte           N05   , Gn3 , v093
        .byte   W06
        .byte                   Gn1 , v109
        .byte           N05   , Gn4 , v093
        .byte   W06
        .byte                   Fn2 , v109
        .byte           N05   , Fn4 , v093
        .byte   W06
        .byte                   Gn2 , v109
        .byte           N05   , Gn3 , v093
        .byte   W06
        .byte                   Gn1 , v109
        .byte           N05   , Fn4 , v093
        .byte   W06
        .byte                   As2 , v109
        .byte           N05   , Gn4 , v093
        .byte   W06
        .byte                   Gn1 , v109
        .byte           N05   , Gn3 , v093
        .byte   W06
@ 037   ----------------------------------------
        .byte                   Gn2 , v109
        .byte           N05   , As4 , v093
        .byte   W06
        .byte                   Gn1 , v109
        .byte           N05   , Gn3 , v093
        .byte   W06
        .byte                   Gn1 , v109
        .byte           N05   , Gn4 , v093
        .byte   W06
        .byte                   Fn2 , v109
        .byte           N05   , Gn3 , v093
        .byte   W06
        .byte                   Gn1 , v109
        .byte           N05   , Gn3 , v093
        .byte   W06
        .byte                   Fn2 , v089
        .byte           N05   , Fn4 , v093
        .byte   W06
        .byte                   Gn2 , v109
        .byte           N05   , Gn3 , v093
        .byte   W06
        .byte                   Gn1 , v109
        .byte           N05   , Fn4 , v093
        .byte   W06
        .byte                   Gn1 , v109
        .byte           N05   , Gn4 , v093
        .byte   W06
        .byte                   Fn2 , v109
        .byte           N05   , Gn3 , v093
        .byte   W06
        .byte                   Gn1 , v109
        .byte           N05   , Gn3 , v093
        .byte   W06
        .byte                   Fn2 , v109
        .byte           N05   , Fn4 , v093
        .byte   W06
        .byte                   Gn2 , v109
        .byte           N05   , Gn3 , v093
        .byte   W06
        .byte                   Gn1 , v109
        .byte           N05   , Fn4 , v093
        .byte   W06
        .byte                   Cn3 , v127
        .byte           N05   , Gn4 , v093
        .byte   W06
        .byte                   Gn1 , v109
        .byte           N05   , Gn3 , v093
        .byte   W06
@ 038   ----------------------------------------
        .byte                   Gn2 , v109
        .byte           N05   , Cn5 , v093
        .byte   W06
        .byte                   Gn1 , v109
        .byte           N05   , Gn3 , v093
        .byte   W06
        .byte                   Gn2 , v089
        .byte           N05   , Gn4 , v093
        .byte   W06
        .byte                   Fn2 , v109
        .byte           N05   , Gn3 , v093
        .byte   W06
        .byte                   Gn1 , v109
        .byte           N05   , Gn4 , v093
        .byte   W06
        .byte                   Fn2 , v109
        .byte           N05   , Fn4 , v093
        .byte   W06
        .byte                   Gn2 , v109
        .byte           N05   , Gn3 , v093
        .byte   W06
        .byte                   Gn1 , v109
        .byte           N05   , Fn4 , v093
        .byte   W06
        .byte                   Gn1 , v109
        .byte           N05   , Gn4 , v093
        .byte   W06
        .byte                   Fn2 , v109
        .byte           N05   , Gn3 , v093
        .byte   W06
        .byte                   Gn1 , v109
        .byte           N05   , Gn3 , v093
        .byte   W06
        .byte                   Fn2 , v109
        .byte           N05   , Fn4 , v093
        .byte   W06
        .byte                   Gn2 , v109
        .byte           N05   , Gn3 , v093
        .byte   W06
        .byte                   Gn1 , v109
        .byte           N05   , Fn4 , v093
        .byte   W06
        .byte                   As2 , v109
        .byte           N05   , Gn4 , v093
        .byte   W06
        .byte                   Gn1 , v109
        .byte           N05   , Gn3 , v093
        .byte   W06
@ 039   ----------------------------------------
        .byte                   Gn2 , v109
        .byte           N05   , As4 , v093
        .byte   W06
        .byte                   Fn2 , v109
        .byte           N05   , Gn3 , v093
        .byte   W06
        .byte                   Dn2 , v109
        .byte           N05   , Gn4 , v093
        .byte   W06
        .byte                   Fn2 , v109
        .byte           N05   , Fn4 , v093
        .byte   W06
        .byte                   Dn2 , v109
        .byte           N05   , Dn4 , v093
        .byte   W06
        .byte                   Cn2 , v109
        .byte           N05   , Fn4 , v093
        .byte   W06
        .byte                   Dn2 , v109
        .byte           N05   , Dn4 , v093
        .byte   W06
        .byte           N11   , Gn1 , v109
        .byte           N05   , Cn4 , v093
        .byte   W06
        .byte                   Dn4
        .byte   W06
        .byte                   Gn1 , v109
        .byte           N11   , Gn3 , v093
        .byte   W06
        .byte           N05   , An1 , v109
        .byte   W06
        .byte                   As1
        .byte           N05   , Gn3 , v093
        .byte   W06
        .byte                   Cn2 , v109
        .byte           N05   , An3 , v093
        .byte   W06
        .byte           N11   , Fn2 , v109
        .byte           N05   , As3 , v093
        .byte   W06
        .byte                   Cn4
        .byte   W06
        .byte                   Dn2 , v109
        .byte           N11   , Fn4 , v093
        .byte   W06
@ 040   ----------------------------------------
        .byte           N05   , Ds1 , v109
        .byte   W06
        .byte                   Ds1
        .byte           N05   , Dn4 , v093
        .byte   W06
        .byte                   Gn1 , v109
        .byte           N05   , Ds3 , v093
        .byte   W06
        .byte                   Ds1 , v109
        .byte           N05   , Ds3 , v093
        .byte   W06
        .byte                   As1 , v109
        .byte           N05   , Gn3 , v093
        .byte   W06
        .byte                   Ds1 , v109
        .byte           N05   , Ds3 , v093
        .byte   W06
        .byte                   Ds1 , v109
        .byte           N05   , As3 , v093
        .byte   W06
        .byte           N11   , Ds2 , v109
        .byte           N05   , Ds3 , v093
        .byte   W06
        .byte                   Ds3
        .byte   W06
        .byte                   Ds2 , v109
        .byte           N11   , Ds4 , v093
        .byte   W06
        .byte           N05   , As1 , v109
        .byte   W06
        .byte           N11   , Gn1
        .byte           N05   , Ds4 , v093
        .byte   W06
        .byte                   As3
        .byte   W06
        .byte                   As1 , v109
        .byte           N11   , Gn3 , v093
        .byte   W06
        .byte           N05   , Gn1 , v109
        .byte   W06
        .byte                   Ds1
        .byte           N05   , As3 , v093
        .byte   W06
@ 041   ----------------------------------------
        .byte                   Gn1 , v109
        .byte           N05   , Gn3 , v093
        .byte   W06
        .byte                   Ds1 , v109
        .byte           N05   , Ds3 , v093
        .byte   W06
        .byte                   As1 , v109
        .byte           N05   , Gn3 , v093
        .byte   W06
        .byte                   Ds1 , v109
        .byte           N05   , Ds3 , v093
        .byte   W06
        .byte                   Ds2 , v109
        .byte           N05   , As3 , v093
        .byte   W06
        .byte                   As1 , v109
        .byte           N05   , Ds3 , v093
        .byte   W06
        .byte                   Gn1 , v109
        .byte           N05   , Ds4 , v093
        .byte   W06
        .byte           N11   , As1 , v109
        .byte           N05   , As3 , v093
        .byte   W06
        .byte                   Gn3
        .byte   W06
        .byte                   Gn1 , v109
        .byte           N11   , As3 , v093
        .byte   W06
        .byte           N05   , Gn1 , v109
        .byte   W06
        .byte                   As1
        .byte           N05   , Gn3 , v093
        .byte   W06
        .byte                   Ds2 , v109
        .byte           N05   , Gn3 , v093
        .byte   W06
        .byte                   As1 , v109
        .byte           N05   , As3 , v093
        .byte   W06
        .byte                   Gn1 , v109
        .byte           N05   , Ds4 , v093
        .byte   W06
        .byte                   Ds1 , v109
        .byte           N05   , As3 , v093
        .byte   W06
@ 042   ----------------------------------------
        .byte                   Gn1 , v109
        .byte           N05   , Gn3 , v093
        .byte   W06
        .byte                   As1 , v109
        .byte           N05   , Ds3 , v093
        .byte   W06
        .byte                   Gn1 , v109
        .byte           N05   , Gn3 , v093
        .byte   W06
        .byte                   Ds1 , v109
        .byte           N05   , As3 , v093
        .byte   W06
        .byte                   Gn1 , v109
        .byte           N05   , Gn3 , v093
        .byte   W06
        .byte                   Ds1 , v109
        .byte           N05   , Ds3 , v093
        .byte   W06
        .byte                   Gn1 , v109
        .byte           N05   , Gn3 , v093
        .byte   W06
        .byte           N11   , As1 , v109
        .byte           N05   , Ds3 , v093
        .byte   W06
        .byte                   Gn3
        .byte   W06
        .byte                   Ds1 , v109
        .byte           N11   , As3 , v093
        .byte   W06
        .byte           N05   , Gn1 , v109
        .byte   W06
        .byte                   As1
        .byte           N05   , Ds3 , v093
        .byte   W06
        .byte                   Ds2 , v109
        .byte           N05   , Gn3 , v093
        .byte   W06
        .byte                   As1 , v109
        .byte           N05   , As3 , v093
        .byte   W06
        .byte                   Gn1 , v109
        .byte           N05   , Ds4 , v093
        .byte   W06
        .byte                   Ds1 , v109
        .byte           N05   , As3 , v093
        .byte   W06
@ 043   ----------------------------------------
        .byte                   Ds2 , v109
        .byte           N05   , Gn3 , v093
        .byte   W06
        .byte                   As1 , v109
        .byte           N05   , Ds3 , v093
        .byte   W06
        .byte                   Gn1 , v109
        .byte           N05   , Ds4 , v093
        .byte   W06
        .byte                   Dn2 , v109
        .byte           N05   , As3 , v093
        .byte   W06
        .byte                   Gn1 , v109
        .byte           N05   , Gn3 , v093
        .byte   W06
        .byte                   As1 , v109
        .byte           N05   , Dn4 , v093
        .byte   W06
        .byte                   Ds2 , v109
        .byte           N05   , Gn3 , v093
        .byte   W06
        .byte                   Gn1 , v109
        .byte           N05   , As3 , v093
        .byte   W06
        .byte                   Gn1 , v109
        .byte           N05   , Ds4 , v093
        .byte   W06
        .byte                   Dn2 , v109
        .byte           N05   , Gn3 , v093
        .byte   W06
        .byte                   Gn1 , v109
        .byte           N05   , Gn3 , v093
        .byte   W06
        .byte                   Gn1 , v109
        .byte           N05   , Dn4 , v093
        .byte   W06
        .byte                   Ds2 , v109
        .byte           N05   , Gn3 , v093
        .byte   W06
        .byte                   Gn1 , v109
        .byte           N05   , Gn3 , v093
        .byte   W06
        .byte                   Fn2 , v109
        .byte           N05   , Ds4 , v093
        .byte   W06
        .byte                   Gn1 , v109
        .byte           N05   , Gn3 , v093
        .byte   W06
@ 044   ----------------------------------------
        .byte                   Gn2 , v109
        .byte           N05   , Fn4 , v093
        .byte   W06
        .byte                   Gn1 , v109
        .byte           N05   , Gn3 , v093
        .byte   W06
        .byte                   Gn1 , v109
        .byte           N05   , Gn4 , v093
        .byte   W06
        .byte                   Fn2 , v109
        .byte           N05   , Gn3 , v093
        .byte   W06
        .byte                   Gn1 , v109
        .byte           N05   , Gn3 , v093
        .byte   W06
        .byte                   Gn1 , v109
        .byte           N05   , Fn4 , v093
        .byte   W06
        .byte                   Dn2 , v109
        .byte           N05   , Gn3 , v093
        .byte   W06
        .byte                   Gn1 , v109
        .byte           N05   , Gn3 , v093
        .byte   W06
        .byte                   Gn1 , v109
        .byte           N05   , Dn4 , v093
        .byte   W06
        .byte                   Cn2 , v109
        .byte           N05   , Gn3 , v093
        .byte   W06
        .byte                   Gn1 , v109
        .byte           N05   , Gn3 , v093
        .byte   W06
        .byte                   Gn1 , v109
        .byte           N05   , Cn4 , v093
        .byte   W06
        .byte                   As1 , v109
        .byte           N05   , Gn3 , v093
        .byte   W06
        .byte                   Gn1 , v109
        .byte           N05   , Gn3 , v093
        .byte   W06
        .byte                   Cn2 , v109
        .byte           N05   , As3 , v093
        .byte   W06
        .byte                   Gn1 , v109
        .byte           N05   , Gn3 , v093
        .byte   W06
@ 045   ----------------------------------------
        .byte                   Dn2 , v109
        .byte           N05   , Cn4 , v093
        .byte   W06
        .byte                   Gn1 , v109
        .byte           N05   , Gn3 , v093
        .byte   W06
        .byte                   Dn2 , v109
        .byte           N05   , Dn4 , v093
        .byte   W06
        .byte                   Fn2 , v109
        .byte           N05   , Gn3 , v093
        .byte   W06
        .byte                   Gn1 , v109
        .byte           N05   , Dn4 , v093
        .byte   W06
        .byte                   Fn2 , v109
        .byte           N05   , Fn4 , v093
        .byte   W06
        .byte                   Gn2 , v109
        .byte           N05   , Gn3 , v093
        .byte   W06
        .byte                   Gn1 , v109
        .byte           N05   , Fn4 , v093
        .byte   W06
        .byte                   Gn1 , v109
        .byte           N05   , Gn4 , v093
        .byte   W06
        .byte           N11   , Fn1 , v109
        .byte           N05   , Gn3 , v093
        .byte   W06
        .byte                   Gn3
        .byte   W06
        .byte                   Fn1 , v109
        .byte           N11   , Fn3 , v093
        .byte   W06
        .byte           N05   , Gn1 , v109
        .byte   W06
        .byte                   An1
        .byte           N05   , Fn3 , v093
        .byte   W06
        .byte                   As1 , v109
        .byte           N05   , Gn3 , v093
        .byte   W06
        .byte                   An1 , v109
        .byte           N05   , An3 , v093
        .byte   W06
@ 046   ----------------------------------------
        .byte                   Gn1 , v109
        .byte           N05   , As3 , v093
        .byte   W06
        .byte                   Gn1 , v109
        .byte           N05   , An3 , v093
        .byte   W06
        .byte                   Gn2 , v109
        .byte           N05   , Gn3 , v093
        .byte   W06
        .byte                   Gn1 , v109
        .byte           N05   , Gn3 , v093
        .byte   W06
        .byte           N11   , Gn2 , v109
        .byte           N05   , Gn4 , v093
        .byte   W06
        .byte                   Gn3
        .byte   W06
        .byte                   Dn2 , v109
        .byte           N11   , Gn4 , v093
        .byte   W06
        .byte                   Gn1 , v109
        .byte   W06
        .byte           N05   , Dn4 , v093
        .byte   W06
        .byte                   Gn1 , v109
        .byte           N11   , Gn3 , v093
        .byte   W06
        .byte           N05   , Gn2 , v109
        .byte   W06
        .byte                   Gn1
        .byte           N05   , Gn3 , v093
        .byte   W06
        .byte                   Gn2 , v109
        .byte           N05   , Gn4 , v093
        .byte   W06
        .byte                   Dn2 , v109
        .byte           N05   , Gn3 , v093
        .byte   W06
        .byte                   As1 , v109
        .byte           N05   , Gn4 , v093
        .byte   W06
        .byte                   Dn2 , v109
        .byte           N05   , Dn4 , v093
        .byte   W06
@ 047   ----------------------------------------
        .byte                   Gn2 , v109
        .byte           N05   , As3 , v093
        .byte   W06
        .byte                   Fn2 , v109
        .byte           N05   , Dn4 , v093
        .byte   W06
        .byte                   Gn2 , v109
        .byte           N05   , Gn4 , v093
        .byte   W06
        .byte           N11   , Gn1 , v109
        .byte           N05   , Fn4 , v093
        .byte   W06
        .byte                   Gn4
        .byte   W06
        .byte                   Fn2 , v109
        .byte           N11   , Gn3 , v093
        .byte   W06
        .byte           N05   , Gn2 , v109
        .byte   W06
        .byte                   Fn2
        .byte           N05   , Fn4 , v093
        .byte   W06
        .byte                   Gn2 , v109
        .byte           N05   , Gn4 , v093
        .byte   W06
        .byte           N11   , Gn1 , v109
        .byte           N05   , Fn4 , v093
        .byte   W06
        .byte                   Gn4
        .byte   W06
        .byte                   Fn2 , v109
        .byte           N11   , Gn3 , v093
        .byte   W06
        .byte           N05   , Gn2 , v109
        .byte   W06
        .byte                   Fn2
        .byte           N05   , Fn4 , v093
        .byte   W06
        .byte           N12   , Gn1 , v109
        .byte           N05   , Gn4 , v093
        .byte   W06
        .byte                   Fn4
        .byte   W06
@ 048   ----------------------------------------
        .byte           N12   , Gn3
        .byte   W96
@ 049   ----------------------------------------
        .byte   W96
@ 050   ----------------------------------------
        .byte   W96
@ 051   ----------------------------------------
        .byte   W96
@ 052   ----------------------------------------
        .byte   W96
@ 053   ----------------------------------------
        .byte   W96
@ 054   ----------------------------------------
        .byte   W96
@ 055   ----------------------------------------
        .byte   W90
        .byte           BEND  , c_v+0
        .byte   GOTO
         .word  _stWard_4_LOOP
        .byte   W06
@ 056   ----------------------------------------
        .byte   FINE

@****************** Track 5 (Midi-Chn.6) ******************@

_stWard_5:
        .byte   KEYSH , _stWard_key+0
@ 000   ----------------------------------------
        .byte           VOICE , 121
        .byte           VOL   , 50
        .byte           N17   , Cn1 , v120
        .byte   W18
        .byte                   Cn1
        .byte   W18
        .byte           N11
        .byte   W12
        .byte           N56   , Cn1 , v120 , gtp1
        .byte   W24
        .byte           N11   , Dn1
        .byte   W12
        .byte           N80   , Cs1 , v064
        .byte   W12
@ 001   ----------------------------------------
_stWard_5_1:
        .byte   W12
        .byte           N23   , Cn1 , v120
        .byte   W24
        .byte           N11
        .byte   W12
        .byte           N17
        .byte   W18
        .byte                   Cn1
        .byte   W06
        .byte           N11   , Dn1
        .byte   W12
        .byte                   Cn1
        .byte           N80   , Cs1 , v064
        .byte   W12
        .byte   PEND
@ 002   ----------------------------------------
_stWard_5_2:
        .byte           N17   , Cn1 , v120
        .byte   W18
        .byte                   Cn1
        .byte   W18
        .byte           N11
        .byte   W12
        .byte           N56   , Cn1 , v120 , gtp1
        .byte   W24
        .byte           N11   , Dn1
        .byte   W12
        .byte           N72   , Cs1 , v064 , gtp2
        .byte   W12
        .byte   PEND
@ 003   ----------------------------------------
_stWard_5_3:
        .byte   W12
        .byte           N23   , Cn1 , v120
        .byte   W24
        .byte           N11
        .byte   W12
        .byte           N17
        .byte   W18
        .byte                   Cn1
        .byte           N02   , Dn1 , v064
        .byte   W03
        .byte                   Dn1 , v078
        .byte   W03
        .byte           N05   , Dn1 , v092
        .byte   W06
        .byte                   Dn1 , v120
        .byte   W06
        .byte           N11   , Cn1
        .byte           N05   , Cs1 , v036
        .byte   W06
        .byte           N28   , Cs1 , v064
        .byte   W06
        .byte   PEND
@ 004   ----------------------------------------
_stWard_5_4:
        .byte           N17   , Cn1 , v120
        .byte   W12
        .byte           N23   , Fs1 , v090
        .byte   W06
        .byte           N17   , Cn1 , v120
        .byte   W06
        .byte           N11   , Dn1
        .byte   W12
        .byte                   Cn1
        .byte           N32   , Cs1 , v064 , gtp2
        .byte           N23   , Fs1 , v090
        .byte   W12
        .byte           N56   , Cn1 , v120 , gtp1
        .byte   W12
        .byte           N68   , Fs1 , v090 , gtp1
        .byte   W12
        .byte           N11   , Dn1 , v120
        .byte   W12
        .byte           N32   , Cs1 , v064 , gtp2
        .byte   W12
        .byte   PEND
@ 005   ----------------------------------------
_stWard_5_5:
        .byte   W12
        .byte           N23   , Cn1 , v120
        .byte   W12
        .byte           N11   , Dn1
        .byte   W12
        .byte                   Cn1
        .byte           N32   , Cs1 , v064 , gtp2
        .byte           N23   , Fs1 , v090
        .byte   W12
        .byte           N17   , Cn1 , v120
        .byte   W12
        .byte           N23   , Fs1 , v090
        .byte   W06
        .byte           N17   , Cn1 , v120
        .byte   W06
        .byte           N11   , Dn1
        .byte   W12
        .byte                   Cn1
        .byte           N32   , Cs1 , v064 , gtp2
        .byte           N23   , Fs1 , v090
        .byte   W12
        .byte   PEND
@ 006   ----------------------------------------
_stWard_5_6:
        .byte           N17   , Cn1 , v120
        .byte   W12
        .byte           N23   , Fs1 , v090
        .byte   W06
        .byte           N17   , Cn1 , v120
        .byte   W06
        .byte           N11   , Dn1
        .byte   W12
        .byte                   Cn1
        .byte           N32   , Cs1 , v064 , gtp2
        .byte           N23   , Fs1 , v090
        .byte   W12
        .byte           N80   , Cn1 , v120
        .byte   W12
        .byte           N44   , Fs1 , v090 , gtp2
        .byte   W12
        .byte           N11   , Dn1 , v120
        .byte   W12
        .byte           N56   , Cs1 , v064 , gtp1
        .byte   W12
        .byte   PEND
@ 007   ----------------------------------------
        .byte   W12
        .byte           N03   , Fs1 , v066
        .byte   W04
        .byte                   Fs1 , v078
        .byte   W04
        .byte                   Fs1 , v090
        .byte   W04
        .byte           N05
        .byte   W06
        .byte           N17
        .byte   W06
        .byte           N05   , Cn1 , v120
        .byte   W06
        .byte           N17
        .byte   W06
        .byte           N11   , Dn1
        .byte           N05   , Fs1 , v090
        .byte   W06
        .byte                   Fs1 , v054
        .byte   W06
        .byte           N17   , Cn1 , v120
        .byte           N05   , Cs1 , v064
        .byte           N11   , Fs1 , v078
        .byte   W06
        .byte                   Dn1 , v120
        .byte   W06
        .byte           N05   , Fs1 , v090
        .byte   W06
        .byte           N17   , Cn1 , v120
        .byte           N05   , Cs1 , v064
        .byte           N05   , Fs1 , v054
        .byte   W06
        .byte                   Dn1 , v120
        .byte           N11   , Fs1 , v078
        .byte   W06
_stWard_5_LOOP:
        .byte           N05   , Dn1 , v120
        .byte   W06
@ 008   ----------------------------------------
_stWard_5_8:
        .byte           N17   , Cn1 , v120
        .byte           N05   , Cs1 , v064
        .byte           N05   , Fs1 , v090
        .byte   W06
        .byte           N17   , Cs1 , v064
        .byte           N05   , Fs1 , v054
        .byte   W06
        .byte           N11   , Fs1 , v078
        .byte   W06
        .byte           N17   , Cn1 , v120
        .byte   W06
        .byte           N11   , Dn1
        .byte           N05   , Fs1 , v090
        .byte   W06
        .byte                   Fs1 , v054
        .byte   W06
        .byte           N11   , Cn1 , v120
        .byte           N32   , Cs1 , v064 , gtp2
        .byte           N11   , Fs1 , v078
        .byte   W12
        .byte           N44   , Cn1 , v120 , gtp2
        .byte           N05   , Fs1 , v090
        .byte   W06
        .byte                   Fs1 , v054
        .byte   W06
        .byte           N11   , Fs1 , v078
        .byte   W12
        .byte                   Dn1 , v120
        .byte           N05   , Fs1 , v090
        .byte   W06
        .byte                   Fs1 , v054
        .byte   W06
        .byte           N32   , Cs1 , v064 , gtp2
        .byte           N11   , Fs1 , v078
        .byte   W12
        .byte   PEND
@ 009   ----------------------------------------
_stWard_5_9:
        .byte           N17   , Cn1 , v120
        .byte           N05   , Fs1 , v090
        .byte   W06
        .byte                   Fs1 , v054
        .byte   W06
        .byte           N11   , Fs1 , v078
        .byte   W06
        .byte           N17   , Cn1 , v120
        .byte   W06
        .byte           N11   , Dn1
        .byte           N05   , Fs1 , v090
        .byte   W06
        .byte                   Fs1 , v054
        .byte   W06
        .byte           N11   , Cn1 , v120
        .byte           N32   , Cs1 , v064 , gtp2
        .byte           N11   , Fs1 , v078
        .byte   W12
        .byte                   Cn1 , v120
        .byte           N05   , Fs1 , v090
        .byte   W06
        .byte                   Fs1 , v054
        .byte   W06
        .byte           N23   , Cn1 , v120
        .byte           N11   , Fs1 , v078
        .byte   W12
        .byte                   Dn1 , v120
        .byte           N05   , Fs1 , v090
        .byte   W06
        .byte                   Fs1 , v054
        .byte   W06
        .byte           N11   , Cn1 , v120
        .byte           N32   , Cs1 , v064 , gtp2
        .byte           N11   , Fs1 , v078
        .byte   W12
        .byte   PEND
@ 010   ----------------------------------------
_stWard_5_10:
        .byte           N17   , Cn1 , v120
        .byte           N05   , Fs1 , v090
        .byte   W06
        .byte                   Fs1 , v054
        .byte   W06
        .byte           N11   , Fs1 , v078
        .byte   W06
        .byte           N17   , Cn1 , v120
        .byte   W06
        .byte           N11   , Dn1
        .byte           N05   , Fs1 , v090
        .byte   W06
        .byte                   Fs1 , v054
        .byte   W06
        .byte           N11   , Cn1 , v120
        .byte           N32   , Cs1 , v064 , gtp2
        .byte           N11   , Fs1 , v078
        .byte   W12
        .byte           N44   , Cn1 , v120 , gtp2
        .byte           N05   , Fs1 , v090
        .byte   W06
        .byte                   Fs1 , v054
        .byte   W06
        .byte           N11   , Fs1 , v078
        .byte   W12
        .byte                   Dn1 , v120
        .byte           N05   , Fs1 , v090
        .byte   W06
        .byte                   Fs1 , v054
        .byte   W06
        .byte           N32   , Cs1 , v064 , gtp2
        .byte           N11   , Fs1 , v078
        .byte   W12
        .byte   PEND
@ 011   ----------------------------------------
        .byte           N17   , Cn1 , v120
        .byte           N05   , Fs1 , v090
        .byte   W06
        .byte                   Fs1 , v054
        .byte   W06
        .byte           N11   , Fs1 , v078
        .byte   W06
        .byte           N17   , Cn1 , v120
        .byte   W06
        .byte           N11   , Dn1
        .byte           N05   , Fs1 , v090
        .byte   W06
        .byte                   Fs1 , v054
        .byte   W06
        .byte           N11   , Cn1 , v120
        .byte           N32   , Cs1 , v064 , gtp2
        .byte           N11   , Fs1 , v078
        .byte   W12
        .byte                   Cn1 , v120
        .byte           N05   , Fs1 , v090
        .byte   W06
        .byte                   Fs1 , v054
        .byte   W06
        .byte           N32   , Cn1 , v120 , gtp2
        .byte           N11   , Fs1 , v078
        .byte   W12
        .byte                   Dn1 , v120
        .byte           N05   , Fs1 , v090
        .byte   W06
        .byte                   Fs1 , v054
        .byte   W06
        .byte                   Dn1 , v120
        .byte           N11   , Fs1 , v078
        .byte   W06
        .byte           N05   , Dn1 , v120
        .byte   W06
@ 012   ----------------------------------------
        .byte   PATT
         .word  _stWard_5_8
@ 013   ----------------------------------------
        .byte   PATT
         .word  _stWard_5_9
@ 014   ----------------------------------------
        .byte   PATT
         .word  _stWard_5_10
@ 015   ----------------------------------------
        .byte           N17   , Cn1 , v120
        .byte           N05   , Fs1 , v090
        .byte   W06
        .byte                   Fs1 , v054
        .byte   W06
        .byte           N11   , Fs1 , v078
        .byte   W06
        .byte           N17   , Cn1 , v120
        .byte   W06
        .byte           N11   , Dn1
        .byte           N05   , Fs1 , v090
        .byte   W06
        .byte                   Fs1 , v054
        .byte   W06
        .byte                   Cn1 , v120
        .byte           N11   , Cs1 , v064
        .byte           N11   , Fs1 , v078
        .byte   W06
        .byte           N32   , Cn1 , v120 , gtp2
        .byte   W06
        .byte           N11   , Dn1
        .byte           N05   , Fs1 , v090
        .byte   W06
        .byte                   Fs1 , v054
        .byte   W06
        .byte                   Cs1 , v064
        .byte           N11   , Fs1 , v078
        .byte   W06
        .byte                   Dn1 , v120
        .byte   W06
        .byte           N05   , Fs1 , v090
        .byte   W06
        .byte           N17   , Cn1 , v120
        .byte           N05   , Cs1 , v064
        .byte           N05   , Fs1 , v054
        .byte   W06
        .byte                   Dn1 , v120
        .byte           N11   , Fs1 , v078
        .byte   W06
        .byte           N05   , Dn1 , v120
        .byte   W06
@ 016   ----------------------------------------
        .byte           N17   , Cn1
        .byte           N05   , Cs1 , v064
        .byte           N05   , Fs1 , v090
        .byte   W06
        .byte           N11   , Dn1 , v120
        .byte           N05   , Fs1 , v054
        .byte   W06
        .byte           N11   , Fs1 , v078
        .byte   W06
        .byte           N17   , Cn1 , v120
        .byte           N05   , Cs1 , v064
        .byte   W06
        .byte           N11   , Dn1 , v092
        .byte           N05   , Fs1 , v090
        .byte   W06
        .byte                   Fs1 , v054
        .byte   W06
        .byte           N11   , Cn1 , v120
        .byte           N32   , Cs1 , v036 , gtp2
        .byte           N11   , Fs1 , v078
        .byte   W12
        .byte           N44   , Cn1 , v120 , gtp2
        .byte           N05   , Fs1 , v090
        .byte   W06
        .byte                   Fs1 , v054
        .byte   W06
        .byte           N11   , Fs1 , v078
        .byte   W12
        .byte                   Dn1 , v120
        .byte           N05   , Fs1 , v090
        .byte   W06
        .byte                   Fs1 , v054
        .byte   W06
        .byte           N32   , Cs1 , v064 , gtp2
        .byte           N11   , Fs1 , v078
        .byte   W12
@ 017   ----------------------------------------
        .byte   PATT
         .word  _stWard_5_9
@ 018   ----------------------------------------
        .byte   PATT
         .word  _stWard_5_10
@ 019   ----------------------------------------
        .byte           N17   , Cn1 , v120
        .byte           N05   , Fs1 , v090
        .byte   W06
        .byte                   Fs1 , v054
        .byte   W06
        .byte           N11   , Fs1 , v078
        .byte   W06
        .byte           N17   , Cn1 , v120
        .byte   W06
        .byte           N11   , Dn1
        .byte           N05   , Fs1 , v090
        .byte   W06
        .byte                   Fs1 , v054
        .byte   W06
        .byte           N11   , Cn1 , v120
        .byte           N32   , Cs1 , v064 , gtp2
        .byte           N11   , Fs1 , v078
        .byte   W12
        .byte                   Cn1 , v120
        .byte           N05   , Fs1 , v090
        .byte   W06
        .byte                   Fs1 , v054
        .byte   W06
        .byte           N32   , Cn1 , v120 , gtp2
        .byte           N11   , Fs1 , v078
        .byte   W12
        .byte                   Dn1 , v120
        .byte           N05   , Fs1 , v090
        .byte   W06
        .byte                   Fs1 , v054
        .byte   W06
        .byte                   Dn1 , v120
        .byte           N11   , Fs1 , v078
        .byte   W06
        .byte                   Dn1 , v120
        .byte   W06
@ 020   ----------------------------------------
        .byte           N17   , Cn1
        .byte           N05   , Fs1 , v090
        .byte   W06
        .byte           N17   , Cs1 , v064
        .byte           N05   , Fs1 , v054
        .byte   W06
        .byte           N11   , Fs1 , v078
        .byte   W06
        .byte           N17   , Cn1 , v120
        .byte   W06
        .byte           N11   , Dn1
        .byte           N05   , Fs1 , v090
        .byte   W06
        .byte                   Fs1 , v054
        .byte   W06
        .byte           N11   , Cn1 , v120
        .byte           N32   , Cs1 , v064 , gtp2
        .byte           N11   , Fs1 , v078
        .byte   W12
        .byte           N44   , Cn1 , v120 , gtp2
        .byte           N05   , Fs1 , v090
        .byte   W06
        .byte                   Fs1 , v054
        .byte   W06
        .byte           N11   , Fs1 , v078
        .byte   W12
        .byte                   Dn1 , v120
        .byte           N05   , Fs1 , v090
        .byte   W06
        .byte                   Fs1 , v054
        .byte   W06
        .byte           N32   , Cs1 , v064 , gtp2
        .byte           N11   , Fs1 , v078
        .byte   W12
@ 021   ----------------------------------------
        .byte   PATT
         .word  _stWard_5_9
@ 022   ----------------------------------------
        .byte   PATT
         .word  _stWard_5_10
@ 023   ----------------------------------------
        .byte           N17   , Cn1 , v120
        .byte           N05   , Fs1 , v090
        .byte   W06
        .byte                   Fs1 , v054
        .byte   W06
        .byte           N11   , Fs1 , v078
        .byte   W06
        .byte           N17   , Cn1 , v120
        .byte   W06
        .byte           N11   , Dn1
        .byte           N05   , Fs1 , v090
        .byte   W06
        .byte                   Fs1 , v054
        .byte   W06
        .byte           N23   , Cn1 , v120
        .byte           N11   , Cs1 , v064
        .byte           N11   , Fs1 , v078
        .byte   W12
        .byte                   Dn1 , v120
        .byte           N05   , Fs1 , v090
        .byte   W06
        .byte                   Fs1 , v054
        .byte   W06
        .byte           N23   , Cn1 , v120
        .byte           N05   , Cs1 , v064
        .byte           N14   , Fs1 , v078
        .byte   W06
        .byte           N05   , Dn1 , v092
        .byte   W06
        .byte           N02   , Dn1 , v106
        .byte   W03
        .byte                   Dn1 , v120
        .byte           N02   , Fs1 , v090
        .byte   W03
        .byte           N05   , Dn1 , v120
        .byte           N05   , Fs1 , v054
        .byte   W06
        .byte           N11   , Cn1 , v120
        .byte           N05   , Cs1 , v064
        .byte           N05   , Fs1 , v078
        .byte   W06
        .byte                   Dn1 , v100
        .byte   W06
@ 024   ----------------------------------------
_stWard_5_24:
        .byte           N23   , As3 , v106
        .byte   W24
        .byte                   As3
        .byte   W24
        .byte                   As3
        .byte   W24
        .byte                   As3
        .byte   W24
        .byte   PEND
@ 025   ----------------------------------------
        .byte   PATT
         .word  _stWard_5_24
@ 026   ----------------------------------------
        .byte   PATT
         .word  _stWard_5_24
@ 027   ----------------------------------------
        .byte   PATT
         .word  _stWard_5_24
@ 028   ----------------------------------------
        .byte           N17   , Cn1 , v120
        .byte           N23   , As3 , v106
        .byte   W18
        .byte           N60   , Cn1 , v120 , gtp3
        .byte   W06
        .byte           N23   , As3 , v106
        .byte   W24
        .byte                   As3
        .byte   W24
        .byte                   As3
        .byte   W12
        .byte           N11   , Cn1 , v120
        .byte   W12
@ 029   ----------------------------------------
        .byte           N17
        .byte           N23   , As3 , v106
        .byte   W18
        .byte           N17   , Cn1 , v120
        .byte   W06
        .byte           N23   , As3 , v106
        .byte   W12
        .byte           N56   , Cn1 , v120 , gtp1
        .byte   W12
        .byte           N23   , As3 , v106
        .byte   W24
        .byte           N11   , Dn1 , v120
        .byte           N23   , As3 , v106
        .byte   W12
        .byte           N32   , Cs1 , v064 , gtp2
        .byte   W12
@ 030   ----------------------------------------
        .byte           N17   , Cn1 , v120
        .byte           N23   , As3 , v106
        .byte   W18
        .byte           N17   , Cn1 , v120
        .byte   W06
        .byte           N11   , Dn1
        .byte           N23   , As3 , v106
        .byte   W12
        .byte           N11   , Cn1 , v120
        .byte           N32   , Cs1 , v064 , gtp2
        .byte   W12
        .byte           N44   , Cn1 , v120 , gtp2
        .byte           N23   , As3 , v106
        .byte   W24
        .byte           N11   , Dn1 , v120
        .byte           N23   , As3 , v106
        .byte   W12
        .byte                   Cs1 , v064
        .byte   W12
@ 031   ----------------------------------------
        .byte           N17   , Cn1 , v120
        .byte           N23   , As3 , v106
        .byte   W12
        .byte           N01   , Dn1
        .byte   W01
        .byte           N10   , Dn1 , v120
        .byte   W05
        .byte           N17   , Cn1
        .byte   W06
        .byte           N01   , Dn1 , v106
        .byte           N23   , As3
        .byte   W01
        .byte           N10   , Dn1 , v120
        .byte   W11
        .byte           N11   , Cn1
        .byte           N05   , Dn1 , v092
        .byte   W06
        .byte                   Dn1 , v106
        .byte   W06
        .byte           N17   , Cn1 , v120
        .byte           N11   , Dn1
        .byte           N23   , As3 , v106
        .byte   W12
        .byte           N05   , Cs1 , v064
        .byte   W06
        .byte           N17   , Cn1 , v120
        .byte           N11   , Dn1
        .byte   W06
        .byte           N23   , As3 , v106
        .byte   W06
        .byte           N05   , Cs1 , v064
        .byte   W06
        .byte           N11   , Cn1 , v120
        .byte           N11   , Dn1
        .byte   W12
@ 032   ----------------------------------------
_stWard_5_32:
        .byte           N17   , Cn1 , v120
        .byte           N23   , Cs1 , v064
        .byte           N05   , Fs1 , v090
        .byte   W06
        .byte                   Fs1 , v054
        .byte   W06
        .byte           N11   , Fs1 , v078
        .byte   W06
        .byte           N17   , Cn1 , v120
        .byte   W06
        .byte           N11   , Dn1
        .byte           N11   , An1
        .byte           N05   , Fs1 , v090
        .byte   W06
        .byte                   Fs1 , v054
        .byte   W06
        .byte           N11   , Cn1 , v120
        .byte           N32   , Cs1 , v064 , gtp2
        .byte           N11   , Fs1 , v078
        .byte   W12
        .byte                   Cn1 , v120
        .byte           N05   , Fs1 , v090
        .byte   W06
        .byte                   Fs1 , v054
        .byte   W06
        .byte           N32   , Cn1 , v120 , gtp2
        .byte           N11   , Fs1 , v078
        .byte   W12
        .byte                   Dn1 , v120
        .byte           N11   , An1
        .byte           N05   , Fs1 , v090
        .byte   W06
        .byte                   Fs1 , v054
        .byte   W06
        .byte           N32   , Cs1 , v064 , gtp2
        .byte           N11   , Fn1 , v120
        .byte           N11   , Fs1 , v078
        .byte   W12
        .byte   PEND
@ 033   ----------------------------------------
_stWard_5_33:
        .byte           N05   , Cn1 , v120
        .byte           N05   , Fs1 , v090
        .byte   W06
        .byte           N11   , Cn1 , v120
        .byte           N05   , Fs1 , v054
        .byte   W06
        .byte           N11   , Fs1 , v078
        .byte   W06
        .byte           N17   , Cn1 , v120
        .byte   W06
        .byte           N11   , Dn1
        .byte           N11   , An1
        .byte           N05   , Fs1 , v090
        .byte   W06
        .byte                   Fs1 , v054
        .byte   W06
        .byte           N11   , Cn1 , v120
        .byte           N32   , Cs1 , v064 , gtp2
        .byte           N11   , Fs1 , v078
        .byte   W12
        .byte                   Cn1 , v120
        .byte           N05   , Fs1 , v090
        .byte   W06
        .byte                   Fs1 , v054
        .byte   W06
        .byte           N23   , Cn1 , v120
        .byte           N11   , Fs1 , v078
        .byte   W12
        .byte                   Dn1 , v120
        .byte           N11   , An1
        .byte           N05   , Fs1 , v090
        .byte   W06
        .byte                   Fs1 , v054
        .byte   W06
        .byte           N11   , Cn1 , v120
        .byte           N11   , Cs1 , v064
        .byte           N11   , Fn1 , v120
        .byte           N11   , Fs1 , v078
        .byte   W12
        .byte   PEND
@ 034   ----------------------------------------
        .byte   PATT
         .word  _stWard_5_32
@ 035   ----------------------------------------
        .byte           N05   , Cn1 , v120
        .byte           N05   , Fs1 , v090
        .byte   W06
        .byte           N11   , Cn1 , v120
        .byte           N05   , Fs1 , v054
        .byte   W06
        .byte           N11   , Fs1 , v078
        .byte   W06
        .byte           N17   , Cn1 , v120
        .byte   W06
        .byte           N11   , Dn1
        .byte           N11   , An1
        .byte           N05   , Fs1 , v090
        .byte   W06
        .byte                   Fs1 , v054
        .byte   W06
        .byte           N11   , Cn1 , v120
        .byte           N32   , Cs1 , v064 , gtp2
        .byte           N11   , Fs1 , v078
        .byte   W12
        .byte                   Cn1 , v120
        .byte           N05   , Fs1 , v090
        .byte   W06
        .byte                   Fs1 , v054
        .byte   W06
        .byte           N17   , Cn1 , v120
        .byte           N11   , Fs1 , v078
        .byte   W12
        .byte                   Dn1 , v120
        .byte           N11   , An1
        .byte           N05   , Fs1 , v090
        .byte   W06
        .byte           N17   , Cn1 , v120
        .byte           N05   , Fs1 , v054
        .byte   W06
        .byte           N11   , Dn1 , v120
        .byte           N11   , Fn1
        .byte           N11   , Fs1 , v078
        .byte   W12
@ 036   ----------------------------------------
        .byte   PATT
         .word  _stWard_5_32
@ 037   ----------------------------------------
        .byte           N05   , Cn1 , v120
        .byte           N05   , Fs1 , v090
        .byte   W06
        .byte           N11   , Cn1 , v120
        .byte           N05   , Fs1 , v054
        .byte   W06
        .byte           N11   , Fs1 , v078
        .byte   W06
        .byte           N17   , Cn1 , v120
        .byte   W06
        .byte           N11   , Dn1
        .byte           N11   , An1
        .byte           N05   , Fs1 , v090
        .byte   W06
        .byte                   Fs1 , v054
        .byte   W06
        .byte           N11   , Cn1 , v120
        .byte           N32   , Cs1 , v064 , gtp2
        .byte           N11   , Fs1 , v078
        .byte   W12
        .byte                   Cn1 , v120
        .byte           N05   , Fs1 , v090
        .byte   W06
        .byte                   Fs1 , v054
        .byte   W06
        .byte           N23   , Cn1 , v120
        .byte           N11   , Fs1 , v078
        .byte   W12
        .byte                   Dn1 , v120
        .byte           N05   , Fs1 , v090
        .byte   W06
        .byte           N11   , An1 , v120
        .byte           N05   , Fs1 , v054
        .byte   W06
        .byte           N11   , Cn1 , v120
        .byte           N32   , Cs1 , v064 , gtp2
        .byte           N11   , Fn1 , v120
        .byte           N11   , Fs1 , v078
        .byte   W12
@ 038   ----------------------------------------
_stWard_5_38:
        .byte           N17   , Cn1 , v120
        .byte           N05   , Fs1 , v090
        .byte   W06
        .byte                   Fs1 , v054
        .byte   W06
        .byte           N11   , Fs1 , v078
        .byte   W06
        .byte           N17   , Cn1 , v120
        .byte   W06
        .byte           N11   , Dn1
        .byte           N11   , An1
        .byte           N05   , Fs1 , v090
        .byte   W06
        .byte                   Fs1 , v054
        .byte   W06
        .byte           N11   , Cn1 , v120
        .byte           N32   , Cs1 , v064 , gtp2
        .byte           N11   , Fs1 , v078
        .byte   W12
        .byte                   Cn1 , v120
        .byte           N05   , Fs1 , v090
        .byte   W06
        .byte                   Fs1 , v054
        .byte   W06
        .byte           N32   , Cn1 , v120 , gtp2
        .byte           N11   , Fs1 , v078
        .byte   W12
        .byte                   Dn1 , v120
        .byte           N11   , An1
        .byte           N05   , Fs1 , v090
        .byte   W06
        .byte                   Fs1 , v054
        .byte   W06
        .byte           N32   , Cs1 , v064 , gtp2
        .byte           N11   , Fn1 , v120
        .byte           N11   , Fs1 , v078
        .byte   W12
        .byte   PEND
@ 039   ----------------------------------------
        .byte           N05   , Cn1 , v120
        .byte           N05   , Fs1 , v090
        .byte   W06
        .byte           N11   , Cn1 , v120
        .byte           N05   , Fs1 , v054
        .byte   W06
        .byte           N11   , Fs1 , v078
        .byte   W06
        .byte           N17   , Cn1 , v120
        .byte   W06
        .byte           N11   , Dn1
        .byte           N11   , An1
        .byte           N05   , Fs1 , v090
        .byte   W06
        .byte                   Fs1 , v054
        .byte   W06
        .byte           N11   , Cn1 , v120
        .byte           N32   , Cs1 , v064 , gtp2
        .byte           N11   , Fs1 , v078
        .byte   W12
        .byte                   Cn1 , v120
        .byte           N05   , Fs1 , v090
        .byte   W06
        .byte                   Fs1 , v054
        .byte   W06
        .byte           N17   , Cn1 , v120
        .byte           N11   , Fs1 , v078
        .byte   W12
        .byte                   Dn1 , v120
        .byte           N11   , An1
        .byte           N05   , Fs1 , v090
        .byte   W06
        .byte           N17   , Cn1 , v120
        .byte           N05   , Fs1 , v054
        .byte   W06
        .byte                   Dn1 , v120
        .byte           N11   , Fn1
        .byte           N11   , Fs1 , v078
        .byte   W06
        .byte           N05   , Dn1 , v120
        .byte   W06
@ 040   ----------------------------------------
        .byte   PATT
         .word  _stWard_5_32
@ 041   ----------------------------------------
        .byte           N05   , Cn1 , v120
        .byte           N05   , Fs1 , v090
        .byte   W06
        .byte           N11   , Cn1 , v120
        .byte           N05   , Fs1 , v054
        .byte   W06
        .byte           N11   , Fs1 , v078
        .byte   W06
        .byte           N17   , Cn1 , v120
        .byte   W06
        .byte           N11   , Dn1
        .byte           N11   , An1
        .byte           N05   , Fs1 , v090
        .byte   W06
        .byte                   Fs1 , v054
        .byte   W06
        .byte           N11   , Cn1 , v120
        .byte           N32   , Cs1 , v064 , gtp2
        .byte           N11   , Fs1 , v078
        .byte   W12
        .byte                   Cn1 , v120
        .byte           N05   , Fs1 , v090
        .byte   W06
        .byte                   Fs1 , v054
        .byte   W06
        .byte           N23   , Cn1 , v120
        .byte           N11   , Fs1 , v078
        .byte   W12
        .byte                   Dn1 , v120
        .byte           N11   , An1
        .byte           N05   , Fs1 , v090
        .byte   W06
        .byte                   Fs1 , v054
        .byte   W06
        .byte           N11   , Cn1 , v120
        .byte           N32   , Cs1 , v064 , gtp2
        .byte           N11   , Fn1 , v120
        .byte           N11   , Fs1 , v078
        .byte   W12
@ 042   ----------------------------------------
        .byte   PATT
         .word  _stWard_5_38
@ 043   ----------------------------------------
        .byte           N05   , Cn1 , v120
        .byte           N05   , Fs1 , v090
        .byte   W06
        .byte           N11   , Cn1 , v120
        .byte           N05   , Fs1 , v054
        .byte   W06
        .byte           N11   , Fs1 , v078
        .byte   W06
        .byte           N17   , Cn1 , v120
        .byte   W06
        .byte           N11   , Dn1
        .byte           N11   , An1
        .byte           N05   , Fs1 , v090
        .byte   W06
        .byte                   Fs1 , v054
        .byte   W06
        .byte           N11   , Cn1 , v120
        .byte           N28   , Cs1 , v064
        .byte           N11   , Fs1 , v078
        .byte   W12
        .byte                   Cn1 , v120
        .byte           N05   , Fs1 , v090
        .byte   W06
        .byte                   Fs1 , v054
        .byte   W06
        .byte           N17   , Cn1 , v120
        .byte           N11   , Fs1 , v078
        .byte   W06
        .byte                   Dn1 , v120
        .byte   W06
        .byte                   An1
        .byte           N05   , Fs1 , v090
        .byte   W06
        .byte           N17   , Cn1 , v120
        .byte           N05   , Cs1 , v064
        .byte           N05   , Fs1 , v054
        .byte   W06
        .byte           N11   , Dn1 , v120
        .byte           N11   , Fn1
        .byte           N11   , Fs1 , v078
        .byte   W12
@ 044   ----------------------------------------
        .byte   PATT
         .word  _stWard_5_32
@ 045   ----------------------------------------
        .byte   PATT
         .word  _stWard_5_33
@ 046   ----------------------------------------
        .byte           N05   , Cn1 , v120
        .byte           N11   , Cs1 , v064
        .byte           N05   , Fs1 , v090
        .byte   W06
        .byte           N11   , Cn1 , v120
        .byte           N05   , Fs1 , v054
        .byte   W06
        .byte           N11   , Dn1 , v120
        .byte           N11   , Fs1 , v078
        .byte   W06
        .byte           N17   , Cn1 , v120
        .byte   W06
        .byte           N11   , Dn1
        .byte           N11   , An1
        .byte           N05   , Fs1 , v090
        .byte   W06
        .byte                   Fs1 , v054
        .byte   W06
        .byte                   Cn1 , v120
        .byte           N23   , Cs1 , v064
        .byte           N11   , Fs1 , v078
        .byte   W06
        .byte                   Cn1 , v120
        .byte   W06
        .byte           N05   , Fs1 , v090
        .byte   W06
        .byte           N11   , Cn1 , v120
        .byte           N05   , Fs1 , v054
        .byte   W06
        .byte           N11   , Dn1 , v120
        .byte           N11   , Fs1 , v078
        .byte   W06
        .byte           N28   , Cn1 , v120
        .byte   W06
        .byte           N11   , Dn1
        .byte           N11   , An1
        .byte           N05   , Fs1 , v090
        .byte   W06
        .byte                   Fs1 , v054
        .byte   W06
        .byte           N11   , Cs1 , v064
        .byte           N11   , Fn1 , v120
        .byte           N11   , Fs1 , v078
        .byte   W12
@ 047   ----------------------------------------
        .byte           N05   , Cn1 , v120
        .byte           N11   , Dn1
        .byte           N05   , Fs1 , v090
        .byte   W06
        .byte           N11   , Cn1 , v120
        .byte           N05   , Fs1 , v054
        .byte   W06
        .byte                   Cs1 , v064
        .byte           N11   , Fs1 , v078
        .byte   W06
        .byte           N17   , Cn1 , v120
        .byte           N11   , Dn1 , v092
        .byte   W06
        .byte                   An1 , v120
        .byte           N05   , Fs1 , v090
        .byte   W06
        .byte                   Cs1 , v036
        .byte           N05   , Fs1 , v054
        .byte   W06
        .byte           N11   , Cn1 , v120
        .byte           N11   , Dn1
        .byte           N11   , Fs1 , v078
        .byte   W12
        .byte                   Cn1 , v120
        .byte           N05   , Cs1 , v064
        .byte           N05   , Fs1 , v090
        .byte   W06
        .byte           N11   , Dn1 , v092
        .byte           N05   , Fs1 , v054
        .byte   W06
        .byte           N11   , Cn1 , v120
        .byte           N11   , Fs1 , v078
        .byte   W06
        .byte           N05   , Cs1 , v036
        .byte   W06
        .byte           N02   , Dn1 , v106
        .byte           N05   , Fs1 , v090
        .byte   W03
        .byte           N02   , Dn1 , v078
        .byte   W03
        .byte           N05   , Dn1 , v092
        .byte           N05   , Fn1
        .byte           N05   , Fs1 , v054
        .byte   W06
        .byte                   Dn1 , v106
        .byte           N05   , Fn1
        .byte           N05   , Fs1 , v078
        .byte   W06
        .byte                   Dn1 , v106
        .byte           N05   , Fn1
        .byte   W06
@ 048   ----------------------------------------
        .byte           N17   , Cn1 , v120
        .byte   W18
        .byte                   Cn1
        .byte   W18
        .byte           N11
        .byte   W12
        .byte           N56   , Cn1 , v120 , gtp1
        .byte   W24
        .byte           N11   , Dn1
        .byte   W12
        .byte           N80   , Cs1 , v064
        .byte   W12
@ 049   ----------------------------------------
        .byte   PATT
         .word  _stWard_5_1
@ 050   ----------------------------------------
        .byte   PATT
         .word  _stWard_5_2
@ 051   ----------------------------------------
        .byte   PATT
         .word  _stWard_5_3
@ 052   ----------------------------------------
        .byte   PATT
         .word  _stWard_5_4
@ 053   ----------------------------------------
        .byte   PATT
         .word  _stWard_5_5
@ 054   ----------------------------------------
        .byte   PATT
         .word  _stWard_5_6
@ 055   ----------------------------------------
        .byte   W12
        .byte           N03   , Fs1 , v066
        .byte   W04
        .byte                   Fs1 , v078
        .byte   W04
        .byte                   Fs1 , v090
        .byte   W04
        .byte           N05
        .byte   W06
        .byte           N17
        .byte   W06
        .byte           N05   , Cn1 , v120
        .byte   W06
        .byte           N17
        .byte   W06
        .byte           N11   , Dn1
        .byte           N05   , Fs1 , v090
        .byte   W06
        .byte                   Fs1 , v054
        .byte   W06
        .byte           N17   , Cn1 , v120
        .byte           N05   , Cs1 , v064
        .byte           N11   , Fs1 , v078
        .byte   W06
        .byte                   Dn1 , v120
        .byte   W06
        .byte           N05   , Fs1 , v090
        .byte   W06
        .byte           N17   , Cn1 , v120
        .byte           N05   , Cs1 , v064
        .byte           N05   , Fs1 , v054
        .byte   W06
        .byte                   Dn1 , v120
        .byte           N11   , Fs1 , v078
        .byte   W06
        .byte           N05   , Dn1 , v120
        .byte   GOTO
         .word  _stWard_5_LOOP
        .byte   W06
@ 056   ----------------------------------------
        .byte   FINE


@********************** End of Song ***********************@

        .align  2
_stWard:
        .byte   6                       @ Num Tracks
        .byte   0                       @ Unknown
        .byte   _stWard_pri             @ Priority
        .byte   _stWard_rev             @ Reverb

        .word   _stWard_grp            

        .word   _stWard_0
        .word   _stWard_1
        .word   _stWard_2
        .word   _stWard_3
        .word   _stWard_4
        .word   _stWard_5

        .end
