//Event file generated from Sappy .s format.
	#include "MPlayDef.event"

	#define	BGM_REMAIN_NIGHT00_grp  voicegroup000
	#define	BGM_REMAIN_NIGHT00_pri  0
	#define	BGM_REMAIN_NIGHT00_rev  0
	#define	BGM_REMAIN_NIGHT00_mvl  127
	#define	BGM_REMAIN_NIGHT00_key  0
	#define	BGM_REMAIN_NIGHT00_tbs  1
	#define	BGM_REMAIN_NIGHT00_exg  0
	#define	BGM_REMAIN_NIGHT00_cmp  1

	// .rodata
	//	BGM_REMAIN_NIGHT00
	ALIGN 4

//**************** Track 1 (Midi-Chn.1) ****************//

BGM_REMAIN_NIGHT00_1:
	BYTE	KEYSH   BGM_REMAIN_NIGHT00_key+0
// 000   ----------------------------------------
	BYTE	TEMPO   132*BGM_REMAIN_NIGHT00_tbs/2
	BYTE		VOICE   122
	BYTE		VOL     35*BGM_REMAIN_NIGHT00_mvl/mxv
	BYTE		PAN     c_v+56
	BYTE	W18
BGM_REMAIN_NIGHT00_1_B1:
	BYTE	W05
	BYTE		N11     Cn1   v112
	BYTE	W24
	BYTE		N11   
	BYTE	W24
	BYTE		N11   
	BYTE	W24
	BYTE		N11   
	BYTE	W01
// 001   ----------------------------------------
BGM_REMAIN_NIGHT00_1_001:
	BYTE	W23
	BYTE		N11     Cn1   v112
	BYTE	W24
	BYTE		N11   
	BYTE	W24
	BYTE		N11   
	BYTE	W24
	BYTE		N11   
	BYTE	W01
	BYTE	PEND
// 002   ----------------------------------------
	BYTE	PATT
	 POIN2	BGM_REMAIN_NIGHT00_1_001
// 003   ----------------------------------------
	BYTE	PATT
	 POIN2	BGM_REMAIN_NIGHT00_1_001
// 004   ----------------------------------------
	BYTE	PATT
	 POIN2	BGM_REMAIN_NIGHT00_1_001
// 005   ----------------------------------------
	BYTE	PATT
	 POIN2	BGM_REMAIN_NIGHT00_1_001
// 006   ----------------------------------------
	BYTE	PATT
	 POIN2	BGM_REMAIN_NIGHT00_1_001
// 007   ----------------------------------------
	BYTE	PATT
	 POIN2	BGM_REMAIN_NIGHT00_1_001
// 008   ----------------------------------------
	BYTE	PATT
	 POIN2	BGM_REMAIN_NIGHT00_1_001
// 009   ----------------------------------------
	BYTE	PATT
	 POIN2	BGM_REMAIN_NIGHT00_1_001
// 010   ----------------------------------------
	BYTE	PATT
	 POIN2	BGM_REMAIN_NIGHT00_1_001
// 011   ----------------------------------------
	BYTE	PATT
	 POIN2	BGM_REMAIN_NIGHT00_1_001
// 012   ----------------------------------------
	BYTE	PATT
	 POIN2	BGM_REMAIN_NIGHT00_1_001
// 013   ----------------------------------------
	BYTE	PATT
	 POIN2	BGM_REMAIN_NIGHT00_1_001
// 014   ----------------------------------------
	BYTE	PATT
	 POIN2	BGM_REMAIN_NIGHT00_1_001
// 015   ----------------------------------------
	BYTE	PATT
	 POIN2	BGM_REMAIN_NIGHT00_1_001
// 016   ----------------------------------------
	BYTE	PATT
	 POIN2	BGM_REMAIN_NIGHT00_1_001
// 017   ----------------------------------------
	BYTE	PATT
	 POIN2	BGM_REMAIN_NIGHT00_1_001
// 018   ----------------------------------------
	BYTE	PATT
	 POIN2	BGM_REMAIN_NIGHT00_1_001
// 019   ----------------------------------------
	BYTE	PATT
	 POIN2	BGM_REMAIN_NIGHT00_1_001
// 020   ----------------------------------------
	BYTE	PATT
	 POIN2	BGM_REMAIN_NIGHT00_1_001
// 021   ----------------------------------------
	BYTE	PATT
	 POIN2	BGM_REMAIN_NIGHT00_1_001
// 022   ----------------------------------------
	BYTE	PATT
	 POIN2	BGM_REMAIN_NIGHT00_1_001
// 023   ----------------------------------------
	BYTE	PATT
	 POIN2	BGM_REMAIN_NIGHT00_1_001
// 024   ----------------------------------------
	BYTE	W96
// 025   ----------------------------------------
	BYTE	W96
// 026   ----------------------------------------
	BYTE	PATT
	 POIN2	BGM_REMAIN_NIGHT00_1_001
// 027   ----------------------------------------
	BYTE	PATT
	 POIN2	BGM_REMAIN_NIGHT00_1_001
// 028   ----------------------------------------
	BYTE	PATT
	 POIN2	BGM_REMAIN_NIGHT00_1_001
// 029   ----------------------------------------
	BYTE	PATT
	 POIN2	BGM_REMAIN_NIGHT00_1_001
// 030   ----------------------------------------
	BYTE	W18
	BYTE	GoTo
	 POIN2	BGM_REMAIN_NIGHT00_1_B1
BGM_REMAIN_NIGHT00_1_B2:
	BYTE	W08
	BYTE	FINE

//**************** Track 2 (Midi-Chn.3) ****************//

BGM_REMAIN_NIGHT00_2:
	BYTE	KEYSH   BGM_REMAIN_NIGHT00_key+0
// 000   ----------------------------------------
	BYTE		VOICE   122
	BYTE		VOL     27*BGM_REMAIN_NIGHT00_mvl/mxv
	BYTE		PAN     c_v+0
	BYTE	W18
BGM_REMAIN_NIGHT00_2_B1:
	BYTE	W52
	BYTE	W01
	BYTE		N44     Cn3   v127
	BYTE	W24
	BYTE	W01
// 001   ----------------------------------------
BGM_REMAIN_NIGHT00_2_001:
	BYTE	W68
	BYTE	W03
	BYTE		N44     Cn3   v127
	BYTE	W24
	BYTE	W01
	BYTE	PEND
// 002   ----------------------------------------
	BYTE	PATT
	 POIN2	BGM_REMAIN_NIGHT00_2_001
// 003   ----------------------------------------
	BYTE	PATT
	 POIN2	BGM_REMAIN_NIGHT00_2_001
// 004   ----------------------------------------
	BYTE	PATT
	 POIN2	BGM_REMAIN_NIGHT00_2_001
// 005   ----------------------------------------
	BYTE	PATT
	 POIN2	BGM_REMAIN_NIGHT00_2_001
// 006   ----------------------------------------
	BYTE	PATT
	 POIN2	BGM_REMAIN_NIGHT00_2_001
// 007   ----------------------------------------
	BYTE	PATT
	 POIN2	BGM_REMAIN_NIGHT00_2_001
// 008   ----------------------------------------
	BYTE	PATT
	 POIN2	BGM_REMAIN_NIGHT00_2_001
// 009   ----------------------------------------
	BYTE	PATT
	 POIN2	BGM_REMAIN_NIGHT00_2_001
// 010   ----------------------------------------
	BYTE	PATT
	 POIN2	BGM_REMAIN_NIGHT00_2_001
// 011   ----------------------------------------
	BYTE	PATT
	 POIN2	BGM_REMAIN_NIGHT00_2_001
// 012   ----------------------------------------
	BYTE	PATT
	 POIN2	BGM_REMAIN_NIGHT00_2_001
// 013   ----------------------------------------
	BYTE	PATT
	 POIN2	BGM_REMAIN_NIGHT00_2_001
// 014   ----------------------------------------
	BYTE	PATT
	 POIN2	BGM_REMAIN_NIGHT00_2_001
// 015   ----------------------------------------
	BYTE	PATT
	 POIN2	BGM_REMAIN_NIGHT00_2_001
// 016   ----------------------------------------
	BYTE	PATT
	 POIN2	BGM_REMAIN_NIGHT00_2_001
// 017   ----------------------------------------
	BYTE	PATT
	 POIN2	BGM_REMAIN_NIGHT00_2_001
// 018   ----------------------------------------
	BYTE	PATT
	 POIN2	BGM_REMAIN_NIGHT00_2_001
// 019   ----------------------------------------
	BYTE	PATT
	 POIN2	BGM_REMAIN_NIGHT00_2_001
// 020   ----------------------------------------
	BYTE	PATT
	 POIN2	BGM_REMAIN_NIGHT00_2_001
// 021   ----------------------------------------
	BYTE	PATT
	 POIN2	BGM_REMAIN_NIGHT00_2_001
// 022   ----------------------------------------
	BYTE	PATT
	 POIN2	BGM_REMAIN_NIGHT00_2_001
// 023   ----------------------------------------
	BYTE	PATT
	 POIN2	BGM_REMAIN_NIGHT00_2_001
// 024   ----------------------------------------
	BYTE	W30
	BYTE	W01
	BYTE		N07     Cn3   v116
	BYTE	W08
	BYTE		N15   
	BYTE	W16
	BYTE		N07     Cn3   v104
	BYTE	W08
	BYTE		N23     Cn3   v116
	BYTE	W24
	BYTE		        Cn3   v127
	BYTE	W09
// 025   ----------------------------------------
	BYTE	W15
	BYTE		N30     Cn3   v124
	BYTE	W32
	BYTE		N36     Cn3   v127
	BYTE	W40
	BYTE		N30     Dn2 
	BYTE		N30     Cn3 
	BYTE	W09
// 026   ----------------------------------------
	BYTE	PATT
	 POIN2	BGM_REMAIN_NIGHT00_2_001
// 027   ----------------------------------------
	BYTE	PATT
	 POIN2	BGM_REMAIN_NIGHT00_2_001
// 028   ----------------------------------------
	BYTE	PATT
	 POIN2	BGM_REMAIN_NIGHT00_2_001
// 029   ----------------------------------------
	BYTE	PATT
	 POIN2	BGM_REMAIN_NIGHT00_2_001
// 030   ----------------------------------------
	BYTE	W18
	BYTE	GoTo
	 POIN2	BGM_REMAIN_NIGHT00_2_B1
BGM_REMAIN_NIGHT00_2_B2:
	BYTE	W08
	BYTE	FINE

//**************** Track 3 (Midi-Chn.4) ****************//

BGM_REMAIN_NIGHT00_3:
	BYTE	KEYSH   BGM_REMAIN_NIGHT00_key+0
// 000   ----------------------------------------
	BYTE		VOICE   33
	BYTE		VOL     41*BGM_REMAIN_NIGHT00_mvl/mxv
	BYTE		PAN     c_v+0
	BYTE	W18
BGM_REMAIN_NIGHT00_3_B1:
	BYTE	W05
	BYTE		N11     An1   v120
	BYTE	W16
	BYTE		N07     An1   v108
	BYTE	W08
	BYTE		N11     Cn2   v120
	BYTE	W16
	BYTE		N07     Cn2   v108
	BYTE	W08
	BYTE		N11     En2   v116
	BYTE	W16
	BYTE		N07   
	BYTE	W08
	BYTE		N09     Cn2   v124
	BYTE	W01
// 001   ----------------------------------------
BGM_REMAIN_NIGHT00_3_001:
	BYTE	W15
	BYTE		N07     Cn2   v104
	BYTE	W08
	BYTE		N13     En1   v116
	BYTE	W16
	BYTE		N07     En1   v104
	BYTE	W08
	BYTE		N11     Gs1   v127
	BYTE	W16
	BYTE		N07     Gs1   v124
	BYTE	W08
	BYTE		N12     Bn1   v112
	BYTE	W16
	BYTE		N07   
	BYTE	W08
	BYTE		N12     Gs1   v120
	BYTE	W01
	BYTE	PEND
// 002   ----------------------------------------
BGM_REMAIN_NIGHT00_3_002:
	BYTE	W15
	BYTE		N07     Gs1   v120
	BYTE	W08
	BYTE		N11     An1 
	BYTE	W16
	BYTE		N07     An1   v108
	BYTE	W08
	BYTE		N11     Cn2   v120
	BYTE	W16
	BYTE		N07     Cn2   v108
	BYTE	W08
	BYTE		N11     En2   v116
	BYTE	W16
	BYTE		N07   
	BYTE	W08
	BYTE		N09     Cn2   v124
	BYTE	W01
	BYTE	PEND
// 003   ----------------------------------------
	BYTE	PATT
	 POIN2	BGM_REMAIN_NIGHT00_3_001
// 004   ----------------------------------------
	BYTE	PATT
	 POIN2	BGM_REMAIN_NIGHT00_3_002
// 005   ----------------------------------------
BGM_REMAIN_NIGHT00_3_005:
	BYTE	W15
	BYTE		N07     Cn2   v104
	BYTE	W08
	BYTE		N13     Gn1   v116
	BYTE	W16
	BYTE		N07     Gn1   v104
	BYTE	W08
	BYTE		N11     Bn1   v127
	BYTE	W16
	BYTE		N07     Bn1   v124
	BYTE	W08
	BYTE		N12     Dn2   v112
	BYTE	W16
	BYTE		N07   
	BYTE	W08
	BYTE		N12     Bn1   v120
	BYTE	W01
	BYTE	PEND
// 006   ----------------------------------------
BGM_REMAIN_NIGHT00_3_006:
	BYTE	W15
	BYTE		N07     Bn1   v120
	BYTE	W08
	BYTE		N11     Gn1 
	BYTE	W16
	BYTE		N07     Gn1   v108
	BYTE	W08
	BYTE		N11     Bn1   v120
	BYTE	W16
	BYTE		N07     Bn1   v108
	BYTE	W08
	BYTE		N11     Dn2   v116
	BYTE	W16
	BYTE		N07   
	BYTE	W08
	BYTE		N09     Bn1   v124
	BYTE	W01
	BYTE	PEND
// 007   ----------------------------------------
BGM_REMAIN_NIGHT00_3_007:
	BYTE	W15
	BYTE		N07     Bn1   v104
	BYTE	W08
	BYTE		N13     Fs1   v116
	BYTE	W16
	BYTE		N07     Fs1   v104
	BYTE	W08
	BYTE		N11     An1   v127
	BYTE	W16
	BYTE		N07     An1   v124
	BYTE	W08
	BYTE		N12     Dn2   v112
	BYTE	W16
	BYTE		N07   
	BYTE	W08
	BYTE		N12     An1   v120
	BYTE	W01
	BYTE	PEND
// 008   ----------------------------------------
BGM_REMAIN_NIGHT00_3_008:
	BYTE	W15
	BYTE		N07     An1   v120
	BYTE	W08
	BYTE		N11     Bn1 
	BYTE	W16
	BYTE		N07     Bn1   v108
	BYTE	W08
	BYTE		N11     Ds2   v120
	BYTE	W16
	BYTE		N07     Ds2   v108
	BYTE	W08
	BYTE		N11     Fs2   v116
	BYTE	W16
	BYTE		N07   
	BYTE	W08
	BYTE		N09     Ds2   v124
	BYTE	W01
	BYTE	PEND
// 009   ----------------------------------------
BGM_REMAIN_NIGHT00_3_009:
	BYTE	W15
	BYTE		N07     Ds2   v104
	BYTE	W08
	BYTE		N13     En1   v116
	BYTE	W16
	BYTE		N07     En1   v104
	BYTE	W08
	BYTE		N11     Gs1   v127
	BYTE	W16
	BYTE		N07     Gs1   v124
	BYTE	W08
	BYTE		N12     Bn1   v112
	BYTE	W16
	BYTE		N07   
	BYTE	W08
	BYTE		N12     Gs1   v120
	BYTE	W01
	BYTE	PEND
// 010   ----------------------------------------
BGM_REMAIN_NIGHT00_3_010:
	BYTE	W15
	BYTE		N07     Gs1   v120
	BYTE	W08
	BYTE		N11     Fn1 
	BYTE	W16
	BYTE		N07     Fn1   v108
	BYTE	W08
	BYTE		N11     An1   v120
	BYTE	W16
	BYTE		N07     An1   v108
	BYTE	W08
	BYTE		N11     Cn2   v116
	BYTE	W16
	BYTE		N07   
	BYTE	W08
	BYTE		N09     An1   v124
	BYTE	W01
	BYTE	PEND
// 011   ----------------------------------------
BGM_REMAIN_NIGHT00_3_011:
	BYTE	W15
	BYTE		N07     An1   v104
	BYTE	W08
	BYTE		N13     En1   v116
	BYTE	W16
	BYTE		N07     En1   v104
	BYTE	W08
	BYTE		N11     Gs1   v127
	BYTE	W16
	BYTE		N07     Gs1   v124
	BYTE	W08
	BYTE		N12     Bn1   v112
	BYTE	W16
	BYTE		N07   
	BYTE	W08
	BYTE		N12     Gs1   v120
	BYTE	W01
	BYTE	PEND
// 012   ----------------------------------------
	BYTE	PATT
	 POIN2	BGM_REMAIN_NIGHT00_3_002
// 013   ----------------------------------------
	BYTE	PATT
	 POIN2	BGM_REMAIN_NIGHT00_3_005
// 014   ----------------------------------------
	BYTE	PATT
	 POIN2	BGM_REMAIN_NIGHT00_3_006
// 015   ----------------------------------------
	BYTE	PATT
	 POIN2	BGM_REMAIN_NIGHT00_3_007
// 016   ----------------------------------------
	BYTE	PATT
	 POIN2	BGM_REMAIN_NIGHT00_3_008
// 017   ----------------------------------------
	BYTE	PATT
	 POIN2	BGM_REMAIN_NIGHT00_3_009
// 018   ----------------------------------------
	BYTE	PATT
	 POIN2	BGM_REMAIN_NIGHT00_3_010
// 019   ----------------------------------------
	BYTE	PATT
	 POIN2	BGM_REMAIN_NIGHT00_3_011
// 020   ----------------------------------------
	BYTE	PATT
	 POIN2	BGM_REMAIN_NIGHT00_3_002
// 021   ----------------------------------------
	BYTE	PATT
	 POIN2	BGM_REMAIN_NIGHT00_3_001
// 022   ----------------------------------------
	BYTE	PATT
	 POIN2	BGM_REMAIN_NIGHT00_3_002
// 023   ----------------------------------------
	BYTE	PATT
	 POIN2	BGM_REMAIN_NIGHT00_3_001
// 024   ----------------------------------------
	BYTE	W15
	BYTE		N07     Gs1   v120
	BYTE	W08
	BYTE		N08     Gn2   v127
	BYTE	W08
	BYTE		N10     Gs2   v116
	BYTE	W08
	BYTE		N06     An2 
	BYTE	W08
	BYTE		N09     Dn2   v127
	BYTE	W08
	BYTE		N11     Ds2   v104
	BYTE	W08
	BYTE		N07     En2   v116
	BYTE	W24
	BYTE		        Cn2   v127
	BYTE	W09
// 025   ----------------------------------------
	BYTE	W15
	BYTE		N30     Gn1   v124
	BYTE	W32
	BYTE		N15     Gs1   v127
	BYTE	W40
	BYTE		N18     An1 
	BYTE	W09
// 026   ----------------------------------------
	BYTE	W07
	BYTE		N03     Gn1   v048
	BYTE	W02
	BYTE		N02     Fn1   v092
	BYTE	W01
	BYTE		        En1   v096
	BYTE	W02
	BYTE		        Dn1 
	BYTE	W01
	BYTE		        Cn1 
	BYTE	W02
	BYTE		N01     Bn0   v076
	BYTE	W80
	BYTE	W01
// 027   ----------------------------------------
	BYTE	W96
// 028   ----------------------------------------
	BYTE	W96
// 029   ----------------------------------------
	BYTE	W96
// 030   ----------------------------------------
	BYTE	W18
	BYTE	GoTo
	 POIN2	BGM_REMAIN_NIGHT00_3_B1
BGM_REMAIN_NIGHT00_3_B2:
	BYTE	W08
	BYTE	FINE

//**************** Track 4 (Midi-Chn.5) ****************//

BGM_REMAIN_NIGHT00_4:
	BYTE	KEYSH   BGM_REMAIN_NIGHT00_key+0
// 000   ----------------------------------------
	BYTE		VOICE   44
	BYTE		VOL     36*BGM_REMAIN_NIGHT00_mvl/mxv
	BYTE		PAN     c_v-52
	BYTE	W18
BGM_REMAIN_NIGHT00_4_B1:
	BYTE	W05
	BYTE		N11     An1   v088
	BYTE	W16
	BYTE		N07     An1   v076
	BYTE	W08
	BYTE		N11     Cn2   v088
	BYTE	W16
	BYTE		N07     Cn2   v076
	BYTE	W08
	BYTE		N11     En2   v084
	BYTE	W16
	BYTE		N07   
	BYTE	W08
	BYTE		N09     Cn2   v092
	BYTE	W01
// 001   ----------------------------------------
	BYTE	W15
	BYTE		N07     Cn2   v072
	BYTE	W08
	BYTE		N13     En1   v084
	BYTE	W16
	BYTE		N07     En1   v072
	BYTE	W08
	BYTE		N11     Gs1   v096
	BYTE	W16
	BYTE		N07     Gs1   v092
	BYTE	W08
	BYTE		N12     Bn1   v080
	BYTE	W16
	BYTE		N07     Bn1   v076
	BYTE	W08
	BYTE		N12     Gs1   v088
	BYTE	W01
// 002   ----------------------------------------
	BYTE	W15
	BYTE		N07   
	BYTE	W08
	BYTE		N11     An1   v096
	BYTE	W16
	BYTE		N07     An1   v080
	BYTE	W08
	BYTE		N11     Cn2   v096
	BYTE	W16
	BYTE		N07     Cn2   v080
	BYTE	W08
	BYTE		N11     En2   v088
	BYTE	W16
	BYTE		N07   
	BYTE	W08
	BYTE		N09     Cn2   v100
	BYTE	W01
// 003   ----------------------------------------
	BYTE	W15
	BYTE		N07     Cn2   v076
	BYTE	W08
	BYTE		N13     En1   v088
	BYTE	W16
	BYTE		N07     En1   v080
	BYTE	W08
	BYTE		N11     Gs1   v100
	BYTE	W16
	BYTE		N07   
	BYTE	W08
	BYTE		N12     Bn1   v084
	BYTE	W16
	BYTE		N07   
	BYTE	W08
	BYTE		N12     Gs1   v096
	BYTE	W01
// 004   ----------------------------------------
	BYTE	W15
	BYTE		N07   
	BYTE	W80
	BYTE	W01
// 005   ----------------------------------------
	BYTE	W96
// 006   ----------------------------------------
	BYTE	W96
// 007   ----------------------------------------
	BYTE	W96
// 008   ----------------------------------------
	BYTE	W96
// 009   ----------------------------------------
	BYTE	W96
// 010   ----------------------------------------
	BYTE	W96
// 011   ----------------------------------------
	BYTE	W96
// 012   ----------------------------------------
	BYTE	W96
// 013   ----------------------------------------
	BYTE	W96
// 014   ----------------------------------------
	BYTE	W96
// 015   ----------------------------------------
	BYTE	W96
// 016   ----------------------------------------
	BYTE	W96
// 017   ----------------------------------------
	BYTE	W96
// 018   ----------------------------------------
	BYTE	W96
// 019   ----------------------------------------
	BYTE	W96
// 020   ----------------------------------------
	BYTE	W44
	BYTE	W03
	BYTE		N02     An2   v124
	BYTE	W08
	BYTE		        An2   v120
	BYTE	W08
	BYTE		        An2   v108
	BYTE	W08
	BYTE		N04     An2   v127
	BYTE	W16
	BYTE		N24   
	BYTE	W07
	BYTE		MOD     3
	BYTE	W02
// 021   ----------------------------------------
	BYTE		        80
	BYTE	W10
	BYTE		        76
	BYTE	W02
	BYTE		        0
	BYTE	W32
	BYTE	W03
	BYTE		N05     Gs2   v124
	BYTE	W16
	BYTE		N03     Gs2   v127
	BYTE	W32
	BYTE		N03   
	BYTE	W01
// 022   ----------------------------------------
	BYTE	W15
	BYTE		N03   
	BYTE	W32
	BYTE		N02     An2 
	BYTE	W08
	BYTE		        An2   v124
	BYTE	W08
	BYTE		N02   
	BYTE	W08
	BYTE		N03     An2   v127
	BYTE	W16
	BYTE		N24   
	BYTE	W06
	BYTE		MOD     4
	BYTE	W03
// 023   ----------------------------------------
	BYTE	W10
	BYTE		        76
	BYTE	W02
	BYTE		        0
	BYTE	W32
	BYTE	W03
	BYTE		N24     Gs2 
	BYTE	W08
	BYTE		BEND    c_v+14
	BYTE	W01
	BYTE		        c_v+38
	BYTE	W01
	BYTE		        c_v+46
	BYTE	W01
	BYTE		        c_v+47
	BYTE	W01
	BYTE		        c_v+38
	BYTE	W01
	BYTE		        c_v+0
	BYTE	W24
	BYTE	W03
	BYTE		N04   
	BYTE	W09
// 024   ----------------------------------------
	BYTE	W15
	BYTE		N02   
	BYTE	W08
	BYTE		N08     Gn3 
	BYTE	W08
	BYTE		N10     Gs3   v116
	BYTE	W08
	BYTE		N06     An3 
	BYTE	W08
	BYTE		N09     Dn3   v127
	BYTE	W08
	BYTE		N11     Ds3   v104
	BYTE	W08
	BYTE		N07     En3   v116
	BYTE	W24
	BYTE		        Cn3   v127
	BYTE	W09
// 025   ----------------------------------------
	BYTE	W15
	BYTE		N30     Gn2   v124
	BYTE	W32
	BYTE		N15     Gs2   v127
	BYTE	W40
	BYTE		N18     An2 
	BYTE	W09
// 026   ----------------------------------------
	BYTE	W07
	BYTE		N03     Gn2   v048
	BYTE	W02
	BYTE		N02     Fn2   v092
	BYTE	W01
	BYTE		        En2   v096
	BYTE	W02
	BYTE		        Dn2 
	BYTE	W01
	BYTE		        Cn2 
	BYTE	W02
	BYTE		N01     Bn1   v076
	BYTE	W32
	BYTE		N09     Gn2   v120
	BYTE	W08
	BYTE		N08     Gs2   v108
	BYTE	W08
	BYTE		        An2 
	BYTE	W24
	BYTE		N10     Cn3   v124
	BYTE	W09
// 027   ----------------------------------------
	BYTE	W15
	BYTE		N24   
	BYTE	W01
	BYTE		BEND    c_v+1
	BYTE	W01
	BYTE		        c_v+40
	BYTE	W01
	BYTE		        c_v+63
	BYTE	W24
	BYTE	W03
	BYTE		        c_v+56
	BYTE	W01
	BYTE		        c_v+3
	BYTE	W01
	BYTE		        c_v+0
	BYTE		N07     Cn3   v116
	BYTE	W24
	BYTE		N16     An2   v112
	BYTE	W16
	BYTE		N07     Gn2   v108
	BYTE	W09
// 028   ----------------------------------------
	BYTE	W15
	BYTE		N30     Gn2   v112
	BYTE	W32
	BYTE		N08     Gs2   v120
	BYTE	W24
	BYTE		N14     An2   v112
	BYTE	W16
	BYTE		N07     Gn2   v116
	BYTE	W09
// 029   ----------------------------------------
	BYTE	W15
	BYTE		N30     Dn2 
	BYTE	W32
	BYTE		N12     En2   v108
	BYTE	W48
	BYTE	W01
// 030   ----------------------------------------
	BYTE	W18
	BYTE	GoTo
	 POIN2	BGM_REMAIN_NIGHT00_4_B1
BGM_REMAIN_NIGHT00_4_B2:
	BYTE	W08
	BYTE	FINE

//**************** Track 5 (Midi-Chn.6) ****************//

BGM_REMAIN_NIGHT00_5:
	BYTE	KEYSH   BGM_REMAIN_NIGHT00_key+0
// 000   ----------------------------------------
	BYTE		VOICE   44
	BYTE		PAN     c_v-32
	BYTE		VOL     29*BGM_REMAIN_NIGHT00_mvl/mxv
	BYTE		N01     Gn0   v100
	BYTE		N03     An0   v104
	BYTE		N02     As0   v096
	BYTE		N04     Bn0   v104
	BYTE	W01
	BYTE		N06     Cn1   v092
	BYTE		N02     Cs1   v088
	BYTE	W03
	BYTE		N05     Dn1   v084
	BYTE	W01
	BYTE		        En1   v096
	BYTE	W01
	BYTE		N01     Ds1   v056
	BYTE	W01
	BYTE		N05     Fn1   v088
	BYTE	W01
	BYTE		N02     Fs1   v056
	BYTE	W01
	BYTE		N05     Gn1   v088
	BYTE	W01
	BYTE		N02     Gs1   v072
	BYTE		N05     An1   v096
	BYTE	W02
	BYTE		N03     As1   v076
	BYTE		N05     Bn1   v096
	BYTE	W02
	BYTE		        Cn2   v100
	BYTE		N03     Cs2   v084
	BYTE	W01
	BYTE		N05     Dn2   v100
	BYTE	W01
	BYTE		N03     Ds2   v080
	BYTE	W01
	BYTE		N06     En2   v096
	BYTE	W01
BGM_REMAIN_NIGHT00_5_B1:
	BYTE	W01
	BYTE		N06     Fn2   v100
	BYTE		N04     Fs2   v080
	BYTE	W02
	BYTE		N05     Gn2   v092
	BYTE	W01
	BYTE		N03     Gs2   v068
	BYTE	W01
	BYTE		        An2   v084
	BYTE		N92     Cn3   v100
	BYTE		N92     En3   v104
	BYTE		N92     An3   v096
	BYTE	W02
	BYTE		N02     As2   v076
	BYTE		N01     Bn2   v084
	BYTE	W68
	BYTE	W03
// 001   ----------------------------------------
BGM_REMAIN_NIGHT00_5_001:
	BYTE	W23
	BYTE		N92     Bn2   v100
	BYTE		N92     Dn3   v096
	BYTE		N92     Gs3   v104
	BYTE	W72
	BYTE	W01
	BYTE	PEND
// 002   ----------------------------------------
BGM_REMAIN_NIGHT00_5_002:
	BYTE	W23
	BYTE		N92     Cn3   v100
	BYTE		N92     En3   v108
	BYTE		N92     An3   v100
	BYTE	W72
	BYTE	W01
	BYTE	PEND
// 003   ----------------------------------------
BGM_REMAIN_NIGHT00_5_003:
	BYTE	W23
	BYTE		N92     Bn2   v096
	BYTE		N92     Dn3   v092
	BYTE		N92     Gs3 
	BYTE	W72
	BYTE	W01
	BYTE	PEND
// 004   ----------------------------------------
BGM_REMAIN_NIGHT00_5_004:
	BYTE	W23
	BYTE		N92     An2   v080
	BYTE		N92     Cn3 
	BYTE		N92     En3 
	BYTE	W72
	BYTE	W01
	BYTE	PEND
// 005   ----------------------------------------
BGM_REMAIN_NIGHT00_5_005:
	BYTE	W23
	BYTE		TIE     Gn2   v060
	BYTE		TIE     Bn2   v072
	BYTE		TIE     Dn3   v084
	BYTE	W72
	BYTE	W01
	BYTE	PEND
// 006   ----------------------------------------
	BYTE	W96
// 007   ----------------------------------------
	BYTE	W22
	BYTE		EOT     Gn2 
	BYTE		        Bn2 
	BYTE	W01
	BYTE		TIE     Fs2   v076
	BYTE		N92     An2   v060
	BYTE	W72
	BYTE	W01
// 008   ----------------------------------------
	BYTE	W22
	BYTE		EOT     Dn3 
	BYTE	W01
	BYTE		TIE     Bn2   v072
	BYTE		N92     Ds3   v064
	BYTE	W72
	BYTE	W01
// 009   ----------------------------------------
	BYTE	W22
	BYTE		EOT     Fs2 
	BYTE	W01
	BYTE		N92     Gs2   v080
	BYTE		N92     En3   v072
	BYTE	W72
	BYTE	W01
// 010   ----------------------------------------
	BYTE	W22
	BYTE		EOT     Bn2 
	BYTE	W01
	BYTE		N92     An2   v080
	BYTE		N92     Cn3   v072
	BYTE		N92     Ds3   v092
	BYTE	W72
	BYTE	W01
// 011   ----------------------------------------
BGM_REMAIN_NIGHT00_5_011:
	BYTE	W23
	BYTE		N92     Gs2   v096
	BYTE		N92     Bn2   v072
	BYTE		N92     Dn3   v080
	BYTE	W72
	BYTE	W01
	BYTE	PEND
// 012   ----------------------------------------
	BYTE	PATT
	 POIN2	BGM_REMAIN_NIGHT00_5_004
// 013   ----------------------------------------
	BYTE	PATT
	 POIN2	BGM_REMAIN_NIGHT00_5_005
// 014   ----------------------------------------
	BYTE	W96
// 015   ----------------------------------------
	BYTE	W22
	BYTE		EOT     Gn2 
	BYTE		        Bn2 
	BYTE	W01
	BYTE		TIE     Fs2   v076
	BYTE		N92     An2   v060
	BYTE	W72
	BYTE	W01
// 016   ----------------------------------------
	BYTE	W22
	BYTE		EOT     Dn3 
	BYTE	W01
	BYTE		TIE     Bn2   v072
	BYTE		N92     Ds3   v064
	BYTE	W72
	BYTE	W01
// 017   ----------------------------------------
	BYTE	W22
	BYTE		EOT     Fs2 
	BYTE	W01
	BYTE		N92     Gs2   v080
	BYTE		N92     En3   v072
	BYTE	W72
	BYTE	W01
// 018   ----------------------------------------
	BYTE	W22
	BYTE		EOT     Bn2 
	BYTE	W01
	BYTE		N92     An2   v080
	BYTE		N92     Cn3   v072
	BYTE		N92     Ds3   v092
	BYTE	W72
	BYTE	W01
// 019   ----------------------------------------
	BYTE	PATT
	 POIN2	BGM_REMAIN_NIGHT00_5_011
// 020   ----------------------------------------
	BYTE	W23
	BYTE		N92     Cn3   v100
	BYTE		N92     En3   v104
	BYTE		N92     An3   v096
	BYTE	W72
	BYTE	W01
// 021   ----------------------------------------
	BYTE	PATT
	 POIN2	BGM_REMAIN_NIGHT00_5_001
// 022   ----------------------------------------
	BYTE	PATT
	 POIN2	BGM_REMAIN_NIGHT00_5_002
// 023   ----------------------------------------
	BYTE	PATT
	 POIN2	BGM_REMAIN_NIGHT00_5_003
// 024   ----------------------------------------
	BYTE	W23
	BYTE		N08     As2   v108
	BYTE		N08     Dn3   v116
	BYTE	W08
	BYTE		N10     Bn2   v096
	BYTE		N10     Ds3   v104
	BYTE	W08
	BYTE		N06     Cn3   v100
	BYTE		N06     En3   v104
	BYTE	W08
	BYTE		N09     Fn2   v108
	BYTE		N09     An2   v116
	BYTE	W08
	BYTE		N11     Fs2   v084
	BYTE		N11     As2   v092
	BYTE	W08
	BYTE		N07     Gn2   v096
	BYTE		N07     Bn2   v104
	BYTE	W24
	BYTE		        Ds2   v108
	BYTE		N07     Gn2   v116
	BYTE	W09
// 025   ----------------------------------------
	BYTE	W15
	BYTE		N30     As1   v108
	BYTE		N30     Dn2   v112
	BYTE	W32
	BYTE		N15     Bn1   v108
	BYTE		N15     Ds2   v116
	BYTE	W40
	BYTE		N18     An2 
	BYTE		N18     An3   v108
	BYTE	W09
// 026   ----------------------------------------
	BYTE	W96
// 027   ----------------------------------------
	BYTE	W96
// 028   ----------------------------------------
	BYTE	W96
// 029   ----------------------------------------
	BYTE	W96
// 030   ----------------------------------------
	BYTE		N01     Gn0   v100
	BYTE		N03     An0   v104
	BYTE		N02     As0   v096
	BYTE		N04     Bn0   v104
	BYTE	W01
	BYTE		N06     Cn1   v092
	BYTE		N02     Cs1   v088
	BYTE	W03
	BYTE		N05     Dn1   v084
	BYTE	W01
	BYTE		        En1   v096
	BYTE	W01
	BYTE		N01     Ds1   v056
	BYTE	W01
	BYTE		N05     Fn1   v088
	BYTE	W01
	BYTE		N02     Fs1   v056
	BYTE	W01
	BYTE		N05     Gn1   v088
	BYTE	W01
	BYTE		N02     Gs1   v072
	BYTE		N05     An1   v096
	BYTE	W02
	BYTE		N03     As1   v076
	BYTE		N05     Bn1   v096
	BYTE	W02
	BYTE		        Cn2   v100
	BYTE		N03     Cs2   v084
	BYTE	W01
	BYTE		N05     Dn2   v100
	BYTE	W01
	BYTE		N03     Ds2   v080
	BYTE	W01
	BYTE		N06     En2   v096
	BYTE	W01
	BYTE	GoTo
	 POIN2	BGM_REMAIN_NIGHT00_5_B1
BGM_REMAIN_NIGHT00_5_B2:
	BYTE	W01
	BYTE		N06     Fn2   v100
	BYTE		N04     Fs2   v080
	BYTE	W02
	BYTE		N05     Gn2   v092
	BYTE	W01
	BYTE		N03     Gs2   v068
	BYTE	W01
	BYTE		        An2   v084
	BYTE	W03
	BYTE	FINE

//**************** Track 6 (Midi-Chn.7) ****************//

BGM_REMAIN_NIGHT00_6:
	BYTE	KEYSH   BGM_REMAIN_NIGHT00_key+0
// 000   ----------------------------------------
	BYTE		VOICE   44
	BYTE		PAN     c_v+31
	BYTE		VOL     31*BGM_REMAIN_NIGHT00_mvl/mxv
	BYTE	W18
BGM_REMAIN_NIGHT00_6_B1:
	BYTE	W78
// 001   ----------------------------------------
	BYTE	W96
// 002   ----------------------------------------
	BYTE	W96
// 003   ----------------------------------------
	BYTE	W96
// 004   ----------------------------------------
	BYTE	W16
	BYTE		N10     Gs3   v112
	BYTE		N10     Ds4   v124
	BYTE	W08
	BYTE		N15     An3   v100
	BYTE		N15     En4   v116
	BYTE	W15
	BYTE		N07     Cn4   v112
	BYTE		N07     An4   v124
	BYTE	W24
	BYTE	W02
	BYTE		N09     Gs3   v096
	BYTE		N09     Ds4   v112
	BYTE	W07
	BYTE		N15     An3   v092
	BYTE		N15     En4   v108
	BYTE	W15
	BYTE		N08     Cn4   v096
	BYTE		N08     An4   v112
	BYTE	W09
// 005   ----------------------------------------
BGM_REMAIN_NIGHT00_6_005:
	BYTE	W23
	BYTE		N16     Dn4   v120
	BYTE	W16
	BYTE		N09     En4   v112
	BYTE	W08
	BYTE		N15     Dn4   v120
	BYTE	W16
	BYTE		N10     Cn4   v104
	BYTE	W08
	BYTE		N17     Bn3   v120
	BYTE	W16
	BYTE		N10     Cn4 
	BYTE	W08
	BYTE		N15     Dn4   v112
	BYTE	W01
	BYTE	PEND
// 006   ----------------------------------------
BGM_REMAIN_NIGHT00_6_006:
	BYTE	W15
	BYTE		N05     Gn3   v112
	BYTE	W08
	BYTE		N04     As3   v108
	BYTE		N04     Cs4 
	BYTE	W02
	BYTE		N12     Bn3   v120
	BYTE		N12     Dn4 
	BYTE	W14
	BYTE		N06     Dn4   v112
	BYTE		N06     Gn4 
	BYTE	W30
	BYTE	W01
	BYTE		N05     As3   v116
	BYTE		N05     Cs4 
	BYTE	W03
	BYTE		N12     Bn3   v108
	BYTE		N12     Dn4 
	BYTE	W14
	BYTE		N06     Dn4   v112
	BYTE		N06     Gn4 
	BYTE	W09
	BYTE	PEND
// 007   ----------------------------------------
BGM_REMAIN_NIGHT00_6_007:
	BYTE	W23
	BYTE		N15     Cn4   v120
	BYTE	W16
	BYTE		N10     Dn4   v112
	BYTE	W08
	BYTE		N15     Cn4   v120
	BYTE	W16
	BYTE		N09     Bn3   v092
	BYTE	W08
	BYTE		N36     An3   v120
	BYTE	W24
	BYTE	W01
	BYTE	PEND
// 008   ----------------------------------------
BGM_REMAIN_NIGHT00_6_008:
	BYTE	W23
	BYTE		N04     Fn3   v108
	BYTE		N04     Gs3   v120
	BYTE	W02
	BYTE		N13     Fs3   v104
	BYTE		N13     An3   v112
	BYTE	W14
	BYTE		N05     Bn3 
	BYTE		N05     Ds4   v120
	BYTE	W30
	BYTE	W01
	BYTE		N04     Fn3   v100
	BYTE		N04     Gs3   v112
	BYTE	W02
	BYTE		N15     Fs3   v108
	BYTE		N15     An3   v120
	BYTE	W14
	BYTE		N06     Bn3   v100
	BYTE		N06     Ds4   v112
	BYTE	W10
	BYTE	PEND
// 009   ----------------------------------------
BGM_REMAIN_NIGHT00_6_009:
	BYTE	W23
	BYTE		N16     Gs3   v124
	BYTE	W16
	BYTE		N10     An3   v120
	BYTE	W08
	BYTE		N15     Gs3   v127
	BYTE	W16
	BYTE		N07     Fs3   v120
	BYTE	W08
	BYTE		N40     En3 
	BYTE	W24
	BYTE	W01
	BYTE	PEND
// 010   ----------------------------------------
BGM_REMAIN_NIGHT00_6_010:
	BYTE	W23
	BYTE		N24     Cn3   v108
	BYTE		N23     Fn3   v120
	BYTE	W24
	BYTE		        Fn3   v112
	BYTE		N23     An3   v120
	BYTE	W24
	BYTE		        An3   v112
	BYTE		N23     Cn4   v120
	BYTE	W24
	BYTE		        Cn4   v108
	BYTE		N23     Ds4   v120
	BYTE	W01
	BYTE	PEND
// 011   ----------------------------------------
BGM_REMAIN_NIGHT00_6_011:
	BYTE	W23
	BYTE		N54     Gs3   v116
	BYTE		N54     En4   v127
	BYTE	W52
	BYTE	W01
	BYTE		N07     Fn4   v116
	BYTE	W06
	BYTE		        En4   v120
	BYTE	W06
	BYTE		N05     Fn4   v116
	BYTE	W05
	BYTE		N07     En4   v112
	BYTE	W03
	BYTE	PEND
// 012   ----------------------------------------
	BYTE	W03
	BYTE		N05     Fn4   v120
	BYTE	W05
	BYTE		N06     En4   v116
	BYTE	W08
	BYTE		N10     Gs3   v112
	BYTE		N10     Ds4   v124
	BYTE	W08
	BYTE		N15     An3   v100
	BYTE		N15     En4   v116
	BYTE	W15
	BYTE		N07     Cn4   v112
	BYTE		N07     An4   v124
	BYTE	W24
	BYTE	W02
	BYTE		N09     Gs3   v096
	BYTE		N09     Ds4   v112
	BYTE	W07
	BYTE		N15     An3   v092
	BYTE		N15     En4   v108
	BYTE	W15
	BYTE		N08     Cn4   v096
	BYTE		N08     An4   v112
	BYTE	W09
// 013   ----------------------------------------
	BYTE	PATT
	 POIN2	BGM_REMAIN_NIGHT00_6_005
// 014   ----------------------------------------
	BYTE	PATT
	 POIN2	BGM_REMAIN_NIGHT00_6_006
// 015   ----------------------------------------
	BYTE	PATT
	 POIN2	BGM_REMAIN_NIGHT00_6_007
// 016   ----------------------------------------
	BYTE	PATT
	 POIN2	BGM_REMAIN_NIGHT00_6_008
// 017   ----------------------------------------
	BYTE	PATT
	 POIN2	BGM_REMAIN_NIGHT00_6_009
// 018   ----------------------------------------
	BYTE	PATT
	 POIN2	BGM_REMAIN_NIGHT00_6_010
// 019   ----------------------------------------
	BYTE	PATT
	 POIN2	BGM_REMAIN_NIGHT00_6_011
// 020   ----------------------------------------
	BYTE	W03
	BYTE		N05     Fn4   v120
	BYTE	W05
	BYTE		N06     En4   v116
	BYTE	W88
// 021   ----------------------------------------
	BYTE	W96
// 022   ----------------------------------------
	BYTE	W96
// 023   ----------------------------------------
	BYTE	W96
// 024   ----------------------------------------
	BYTE	W23
	BYTE		N08     Gn3   v127
	BYTE	W08
	BYTE		N10     Gs3   v116
	BYTE	W08
	BYTE		N06     An3 
	BYTE	W08
	BYTE		N09     Dn3   v127
	BYTE	W08
	BYTE		N11     Ds3   v104
	BYTE	W08
	BYTE		N07     En3   v116
	BYTE	W24
	BYTE		        Cn3   v127
	BYTE	W09
// 025   ----------------------------------------
	BYTE	W15
	BYTE		N30     Gn2   v124
	BYTE	W32
	BYTE		N15     Gs2   v127
	BYTE	W40
	BYTE		N18     An4 
	BYTE	W09
// 026   ----------------------------------------
	BYTE	W96
// 027   ----------------------------------------
	BYTE	W96
// 028   ----------------------------------------
	BYTE	W96
// 029   ----------------------------------------
	BYTE	W96
// 030   ----------------------------------------
	BYTE	W18
	BYTE	GoTo
	 POIN2	BGM_REMAIN_NIGHT00_6_B1
BGM_REMAIN_NIGHT00_6_B2:
	BYTE	W08
	BYTE	FINE

//**************** Track 7 (Midi-Chn.8) ****************//

BGM_REMAIN_NIGHT00_7:
	BYTE	KEYSH   BGM_REMAIN_NIGHT00_key+0
// 000   ----------------------------------------
	BYTE		VOICE   96
	BYTE		VOL     27*BGM_REMAIN_NIGHT00_mvl/mxv
	BYTE		PAN     c_v-39
	BYTE	W18
BGM_REMAIN_NIGHT00_7_B1:
	BYTE	W78
// 001   ----------------------------------------
	BYTE	W96
// 002   ----------------------------------------
	BYTE	W96
// 003   ----------------------------------------
	BYTE	W96
// 004   ----------------------------------------
	BYTE	W96
// 005   ----------------------------------------
	BYTE	W96
// 006   ----------------------------------------
	BYTE	W96
// 007   ----------------------------------------
	BYTE	W96
// 008   ----------------------------------------
	BYTE	W96
// 009   ----------------------------------------
	BYTE	W96
// 010   ----------------------------------------
	BYTE	W96
// 011   ----------------------------------------
	BYTE	W96
// 012   ----------------------------------------
	BYTE	W04
	BYTE		N88     En3   v084
	BYTE	W92
// 013   ----------------------------------------
	BYTE	W08
	BYTE		TIE     Dn3   v080
	BYTE	W88
// 014   ----------------------------------------
	BYTE	W96
// 015   ----------------------------------------
	BYTE	W04
	BYTE		EOT   
	BYTE	W13
	BYTE		N80     Cn3   v084
	BYTE	W78
	BYTE	W01
// 016   ----------------------------------------
	BYTE	W14
	BYTE		TIE     Bn2   v092
	BYTE	W80
	BYTE	W02
// 017   ----------------------------------------
	BYTE	W96
// 018   ----------------------------------------
	BYTE	W09
	BYTE		EOT   
	BYTE	W12
	BYTE		N80     An2   v084
	BYTE	W72
	BYTE	W03
// 019   ----------------------------------------
	BYTE	W20
	BYTE		N52     Gs2   v112
	BYTE	W76
// 020   ----------------------------------------
	BYTE	W96
// 021   ----------------------------------------
	BYTE	W96
// 022   ----------------------------------------
	BYTE	W96
// 023   ----------------------------------------
	BYTE	W96
// 024   ----------------------------------------
	BYTE	W96
// 025   ----------------------------------------
	BYTE	W96
// 026   ----------------------------------------
	BYTE	W96
// 027   ----------------------------------------
	BYTE	W96
// 028   ----------------------------------------
	BYTE	W96
// 029   ----------------------------------------
	BYTE	W96
// 030   ----------------------------------------
	BYTE	W18
	BYTE	GoTo
	 POIN2	BGM_REMAIN_NIGHT00_7_B1
BGM_REMAIN_NIGHT00_7_B2:
	BYTE	W08
	BYTE	FINE

//**************** Track 8 (Midi-Chn.9) ****************//

BGM_REMAIN_NIGHT00_8:
	BYTE	KEYSH   BGM_REMAIN_NIGHT00_key+0
// 000   ----------------------------------------
	BYTE		VOICE   122
	BYTE		VOL     31*BGM_REMAIN_NIGHT00_mvl/mxv
	BYTE		PAN     c_v+0
	BYTE	W18
BGM_REMAIN_NIGHT00_8_B1:
	BYTE	W44
	BYTE	W01
	BYTE		N04     Cn0   v127
	BYTE	W32
	BYTE	W01
// 001   ----------------------------------------
BGM_REMAIN_NIGHT00_8_001:
	BYTE	W60
	BYTE	W03
	BYTE		N04     Cn0   v127
	BYTE	W32
	BYTE	W01
	BYTE	PEND
// 002   ----------------------------------------
	BYTE	PATT
	 POIN2	BGM_REMAIN_NIGHT00_8_001
// 003   ----------------------------------------
	BYTE	PATT
	 POIN2	BGM_REMAIN_NIGHT00_8_001
// 004   ----------------------------------------
	BYTE	PATT
	 POIN2	BGM_REMAIN_NIGHT00_8_001
// 005   ----------------------------------------
	BYTE	PATT
	 POIN2	BGM_REMAIN_NIGHT00_8_001
// 006   ----------------------------------------
	BYTE	PATT
	 POIN2	BGM_REMAIN_NIGHT00_8_001
// 007   ----------------------------------------
	BYTE	PATT
	 POIN2	BGM_REMAIN_NIGHT00_8_001
// 008   ----------------------------------------
	BYTE	PATT
	 POIN2	BGM_REMAIN_NIGHT00_8_001
// 009   ----------------------------------------
	BYTE	PATT
	 POIN2	BGM_REMAIN_NIGHT00_8_001
// 010   ----------------------------------------
	BYTE	PATT
	 POIN2	BGM_REMAIN_NIGHT00_8_001
// 011   ----------------------------------------
	BYTE	PATT
	 POIN2	BGM_REMAIN_NIGHT00_8_001
// 012   ----------------------------------------
	BYTE	PATT
	 POIN2	BGM_REMAIN_NIGHT00_8_001
// 013   ----------------------------------------
	BYTE	PATT
	 POIN2	BGM_REMAIN_NIGHT00_8_001
// 014   ----------------------------------------
	BYTE	PATT
	 POIN2	BGM_REMAIN_NIGHT00_8_001
// 015   ----------------------------------------
	BYTE	PATT
	 POIN2	BGM_REMAIN_NIGHT00_8_001
// 016   ----------------------------------------
	BYTE	PATT
	 POIN2	BGM_REMAIN_NIGHT00_8_001
// 017   ----------------------------------------
	BYTE	PATT
	 POIN2	BGM_REMAIN_NIGHT00_8_001
// 018   ----------------------------------------
	BYTE	PATT
	 POIN2	BGM_REMAIN_NIGHT00_8_001
// 019   ----------------------------------------
	BYTE	PATT
	 POIN2	BGM_REMAIN_NIGHT00_8_001
// 020   ----------------------------------------
	BYTE	PATT
	 POIN2	BGM_REMAIN_NIGHT00_8_001
// 021   ----------------------------------------
	BYTE	PATT
	 POIN2	BGM_REMAIN_NIGHT00_8_001
// 022   ----------------------------------------
	BYTE	PATT
	 POIN2	BGM_REMAIN_NIGHT00_8_001
// 023   ----------------------------------------
	BYTE	PATT
	 POIN2	BGM_REMAIN_NIGHT00_8_001
// 024   ----------------------------------------
	BYTE	W96
// 025   ----------------------------------------
	BYTE	W96
// 026   ----------------------------------------
	BYTE	PATT
	 POIN2	BGM_REMAIN_NIGHT00_8_001
// 027   ----------------------------------------
	BYTE	PATT
	 POIN2	BGM_REMAIN_NIGHT00_8_001
// 028   ----------------------------------------
	BYTE	PATT
	 POIN2	BGM_REMAIN_NIGHT00_8_001
// 029   ----------------------------------------
	BYTE	PATT
	 POIN2	BGM_REMAIN_NIGHT00_8_001
// 030   ----------------------------------------
	BYTE	W18
	BYTE	GoTo
	 POIN2	BGM_REMAIN_NIGHT00_8_B1
BGM_REMAIN_NIGHT00_8_B2:
	BYTE	W08
	BYTE	FINE

//******************************************************//
	ALIGN 4

BGM_REMAIN_NIGHT00:
	BYTE	8	// NumTrks
	BYTE	0	// NumBlks
	BYTE	BGM_REMAIN_NIGHT00_pri	// Priority
	BYTE	BGM_REMAIN_NIGHT00_rev	// Reverb.

	POIN2	BGM_REMAIN_NIGHT00_grp

	POIN2	BGM_REMAIN_NIGHT00_1
	POIN2	BGM_REMAIN_NIGHT00_2
	POIN2	BGM_REMAIN_NIGHT00_3
	POIN2	BGM_REMAIN_NIGHT00_4
	POIN2	BGM_REMAIN_NIGHT00_5
	POIN2	BGM_REMAIN_NIGHT00_6
	POIN2	BGM_REMAIN_NIGHT00_7
	POIN2	BGM_REMAIN_NIGHT00_8

	
