//Event file generated from Sappy .s format.
	#include "MPlayDef.event"

	#define	CapAm_grp  voicegroup000
	#define	CapAm_pri  0
	#define	CapAm_rev  0
	#define	CapAm_mvl  127
	#define	CapAm_key  0
	#define	CapAm_tbs  1
	#define	CapAm_exg  0
	#define	CapAm_cmp  1

	// .rodata
	//	CapAm
	ALIGN 4


//**************** Track 1 (Midi-Chn.0) ****************//

CapAm_001:
// 000   ----------------------------------------
 BYTE   KEYSH   CapAm_key+0
 BYTE   TEMPO   200*CapAm_tbs/2
 BYTE   VOICE   61
 BYTE   VOL   40*CapAm_mvl/mxv
 BYTE   N12  Ds4  v127
 BYTE   N12  Gn4
 BYTE   W12
 BYTE   Ds4
 BYTE   N12  Gn4
 BYTE   W24
 BYTE   Dn4
 BYTE   N12  Fn4
 BYTE   W12
 BYTE   Dn4
 BYTE   N12  Fn4
 BYTE   W24
 BYTE   Ds4
 BYTE   N12  Gn4
 BYTE   W12
 BYTE   Ds4
 BYTE   N12  Gn4
 BYTE   W12
// 001   ----------------------------------------
 BYTE   W12
 BYTE   Dn4
 BYTE   N12  Fn4
 BYTE   W12
 BYTE   Dn4
 BYTE   N12  Fn4
 BYTE   W24
 BYTE   N24  Ds4
 BYTE   N24  Gn4
 BYTE   W24
 BYTE   Dn4
 BYTE   N24  Fn4
 BYTE   W24
// 002   ----------------------------------------
 BYTE   N12  Dn4
 BYTE   N12  Fn4
 BYTE   W12
 BYTE   Cn4
 BYTE   N12  Ds4
 BYTE   W24
 BYTE   N60  Cn4
 BYTE   N60  Ds4
 BYTE   W60
// 003   ----------------------------------------
 BYTE   N96  Dn4
 BYTE   N96  Fn4
 BYTE   W96
// 004   ----------------------------------------
 BYTE   TIE  Cn3  v112
 BYTE   W96
// 005   ----------------------------------------
 BYTE   W36
 BYTE   EOT
 BYTE   W12
 BYTE   N12
 BYTE   W12
 BYTE   N12
 BYTE   W24
 BYTE   TIE  Gs2
 BYTE   W12
// 006   ----------------------------------------
 BYTE   W96
// 007   ----------------------------------------
 BYTE   W36
 BYTE   EOT
 BYTE   W12
 BYTE   N12
 BYTE   W12
 BYTE   N12
 BYTE   W24
 BYTE   TIE  Fn2
 BYTE   W12
// 008   ----------------------------------------
 BYTE   W96
// 009   ----------------------------------------
 BYTE   EOT
Label_0_014DDC6A:
 BYTE   N48  As2  v112
 BYTE   W48
 BYTE   N36
 BYTE   W36
 BYTE   TIE  Cn3
 BYTE   W12
 BYTE   PEND 
// 010   ----------------------------------------
 BYTE   W96
// 011   ----------------------------------------
 BYTE   W12
 BYTE   EOT
 BYTE   N36  Ds3
 BYTE   W36
 BYTE   N24  Dn3
 BYTE   W24
 BYTE   As2
 BYTE   W24
// 012   ----------------------------------------
 BYTE   W96
// 013   ----------------------------------------
 BYTE   W96
// 014   ----------------------------------------
 BYTE   W96
// 015   ----------------------------------------
 BYTE   W96
// 016   ----------------------------------------
 BYTE   W96
// 017   ----------------------------------------
 BYTE   W96
// 018   ----------------------------------------
 BYTE   W96
// 019   ----------------------------------------
 BYTE   W96
// 020   ----------------------------------------
 BYTE   W96
// 021   ----------------------------------------
 BYTE   W96
// 022   ----------------------------------------
 BYTE   W96
// 023   ----------------------------------------
 BYTE   W96
// 024   ----------------------------------------
 BYTE   W96
// 025   ----------------------------------------
 BYTE   W96
// 026   ----------------------------------------
 BYTE   W96
// 027   ----------------------------------------
 BYTE   W96
// 028   ----------------------------------------
Label_0_014DDC8F:
 BYTE   N96  Fn2  v112
 BYTE   N96  Cn3
 BYTE   N96  Ds3
 BYTE   W96
 BYTE   PEND 
// 029   ----------------------------------------
Label_0_014DDC98:
 BYTE   N24  Gs2  v112
 BYTE   N24  Cn3
 BYTE   N24  Ds3
 BYTE   W24
 BYTE   N06  Gs2
 BYTE   N06  Cn3
 BYTE   N06  Ds3
 BYTE   W12
 BYTE   N36  As2
 BYTE   N36  Dn3
 BYTE   W36
 BYTE   N06  As2
 BYTE   N06  Dn3
 BYTE   W12
 BYTE   TIE  Gn2
 BYTE   TIE  Cn3
 BYTE   TIE  Gn3  v080
 BYTE   W12
 BYTE   PEND 
// 030   ----------------------------------------
 BYTE   W96
// 031   ----------------------------------------
 BYTE   W96
// 032   ----------------------------------------
 BYTE   EOT
 BYTE   Gn2  v060
 BYTE   Gn3
// 033   ----------------------------------------
 BYTE   PATT
  POIN2 Label_0_014DDC8F
// 034   ----------------------------------------
Label_0_014DDCC5:
 BYTE   N24  Gs2  v112
 BYTE   N24  Cn3
 BYTE   N24  Ds3
 BYTE   W24
 BYTE   N06  Gs2
 BYTE   N06  Cn3
 BYTE   N06  Ds3
 BYTE   W12
 BYTE   N36  As2
 BYTE   N36  Dn3
 BYTE   N36  Fn3
 BYTE   W36
 BYTE   N06  As2
 BYTE   N06  Fn3
 BYTE   N06  Gs3
 BYTE   W12
 BYTE   TIE  Gn2
 BYTE   TIE  Dn3
 BYTE   TIE  Gn3
 BYTE   W12
 BYTE   PEND 
// 035   ----------------------------------------
 BYTE   W96
// 036   ----------------------------------------
 BYTE   W12
 BYTE   EOT
 BYTE   N12  Gn3  v127
 BYTE   N12  As3
 BYTE   W12
 BYTE   Gn3
 BYTE   N12  As3
 BYTE   W24
 BYTE   Gn3
 BYTE   N12  As3
 BYTE   W12
 BYTE   Gn3
 BYTE   N12  As3
 BYTE   W24
 BYTE   EOT
 BYTE   Gn2  v062
 BYTE   TIE  Gn2  v112
 BYTE   TIE  Cn3
 BYTE   TIE  Gn3
 BYTE   W12
// 037   ----------------------------------------
 BYTE   W96
// 038   ----------------------------------------
 BYTE   W48
 BYTE   EOT
 BYTE   Gn2  v060
 BYTE   Gn3
 BYTE   N12  Gn2
 BYTE   N12  Cn3
 BYTE   N12  Gn3
 BYTE   W12
 BYTE   Gn2
 BYTE   N12  Cn3
 BYTE   N12  Gn3
 BYTE   W24
 BYTE   TIE  Gn2
 BYTE   TIE  Cn3
 BYTE   TIE  Gn3
 BYTE   W12
// 039   ----------------------------------------
 BYTE   W96
// 040   ----------------------------------------
 BYTE   W48
 BYTE   EOT
 BYTE   Gn2  v060
 BYTE   Gn3
 BYTE   N12  Gn2
 BYTE   N12  Cn3
 BYTE   N12  Gn3
 BYTE   W12
 BYTE   Gn2
 BYTE   N12  Cn3
 BYTE   N12  Gn3
 BYTE   W24
 BYTE   TIE  Fn2
 BYTE   TIE  As2
 BYTE   TIE  Fn3
 BYTE   W12
// 041   ----------------------------------------
 BYTE   W96
// 042   ----------------------------------------
 BYTE   EOT
 BYTE   Fn2  v058
 BYTE   Fn3
Label_0_014DDD43:
 BYTE   N48  Ds2  v112
 BYTE   N48  Cn3
 BYTE   N48  Ds3
 BYTE   W48
 BYTE   N36  Dn2
 BYTE   N36  As2
 BYTE   N36  Dn3
 BYTE   W36
 BYTE   TIE  Gn2
 BYTE   TIE  Cn3
 BYTE   TIE  Ds3
 BYTE   W12
 BYTE   PEND 
// 043   ----------------------------------------
 BYTE   W96
// 044   ----------------------------------------
 BYTE   W12
 BYTE   EOT
 BYTE   Gn2  v060
 BYTE   Ds3
 BYTE   N36  Gn2
 BYTE   N36  Ds3
 BYTE   N36  Gn3
 BYTE   W36
 BYTE   N12  Fn2
 BYTE   N12  Dn3
 BYTE   N12  Fn3
 BYTE   W12
 BYTE   Dn2
 BYTE   N12  As2
 BYTE   N12  Dn3
 BYTE   W24
 BYTE   TIE  Gn2
 BYTE   TIE  Cn3
 BYTE   TIE  Gn3
 BYTE   W12
// 045   ----------------------------------------
 BYTE   W96
// 046   ----------------------------------------
 BYTE   W48
 BYTE   EOT
 BYTE   Gn2  v060
 BYTE   Gn3
 BYTE   N12  Gn2
 BYTE   N12  Cn3
 BYTE   N12  Gn3
 BYTE   W12
 BYTE   Gn2
 BYTE   N12  Cn3
 BYTE   N12  Gn3
 BYTE   W24
 BYTE   TIE  Gn2
 BYTE   TIE  Cn3
 BYTE   TIE  Gn3
 BYTE   W12
// 047   ----------------------------------------
 BYTE   W96
// 048   ----------------------------------------
 BYTE   W48
 BYTE   EOT
 BYTE   Gn2  v060
 BYTE   Gn3
 BYTE   N12  Gn2
 BYTE   N12  Cn3
 BYTE   N12  Gn3
 BYTE   W12
 BYTE   Gn2
 BYTE   N12  Cn3
 BYTE   N12  Gn3
 BYTE   W24
 BYTE   TIE  Fn2
 BYTE   TIE  As2
 BYTE   TIE  Fn3
 BYTE   W12
// 049   ----------------------------------------
 BYTE   W96
// 050   ----------------------------------------
 BYTE   EOT
 BYTE   Fn2  v058
 BYTE   Fn3
Label_0_014DDDB4:
 BYTE   N48  Ds2  v112
 BYTE   N48  Cn3
 BYTE   N48  Ds3
 BYTE   W48
 BYTE   N36  Dn2
 BYTE   N36  As2
 BYTE   N36  Dn3
 BYTE   W36
 BYTE   TIE  Cn2
 BYTE   TIE  Gn2
 BYTE   TIE  Cn3
 BYTE   TIE  Ds3
 BYTE   W12
 BYTE   PEND 
// 051   ----------------------------------------
 BYTE   W96
// 052   ----------------------------------------
Label_0_014DDDCE:
 BYTE   W12
 BYTE   EOT
 BYTE   Cn2  v055
 BYTE   Cn3  v063
 BYTE   N36  Gn2  v112
 BYTE   N36  Ds3
 BYTE   N36  Gn3
 BYTE   W36
 BYTE   N12  Fn2
 BYTE   N12  Dn3
 BYTE   N12  Fn3
 BYTE   W12
 BYTE   Gn2
 BYTE   N12  Ds3
 BYTE   N12  Gn3
 BYTE   W36
// 053   ----------------------------------------
 BYTE   TIE  Cn3
 BYTE   W96
// 054   ----------------------------------------
 BYTE   W36
 BYTE   EOT
 BYTE   W12
 BYTE   N12
 BYTE   W12
 BYTE   N12
 BYTE   W24
 BYTE   TIE  Gs2
 BYTE   W12
// 055   ----------------------------------------
 BYTE   W96
// 056   ----------------------------------------
 BYTE   W36
 BYTE   EOT
 BYTE   W12
 BYTE   N12
 BYTE   W12
 BYTE   N12
 BYTE   W24
 BYTE   TIE  Fn2
 BYTE   W12
// 057   ----------------------------------------
 BYTE   W96
// 058   ----------------------------------------
 BYTE   EOT
// 059   ----------------------------------------
 BYTE   PATT
  POIN2 Label_0_014DDC6A
// 060   ----------------------------------------
 BYTE   W96
// 061   ----------------------------------------
 BYTE   W12
 BYTE   EOT
 BYTE   Cn3
 BYTE   N36  Ds3  v112
 BYTE   W36
 BYTE   N24  Dn3
 BYTE   W24
 BYTE   As2
 BYTE   W24
// 062   ----------------------------------------
 BYTE   W96
// 063   ----------------------------------------
 BYTE   W96
// 064   ----------------------------------------
 BYTE   W96
// 065   ----------------------------------------
 BYTE   W96
// 066   ----------------------------------------
 BYTE   W96
// 067   ----------------------------------------
 BYTE   W96
// 068   ----------------------------------------
 BYTE   W96
// 069   ----------------------------------------
 BYTE   W96
// 070   ----------------------------------------
 BYTE   W96
// 071   ----------------------------------------
 BYTE   W96
// 072   ----------------------------------------
 BYTE   W96
// 073   ----------------------------------------
 BYTE   W96
// 074   ----------------------------------------
 BYTE   W96
// 075   ----------------------------------------
 BYTE   W96
// 076   ----------------------------------------
 BYTE   W96
// 077   ----------------------------------------
 BYTE   W96
// 078   ----------------------------------------
 BYTE   PATT
  POIN2 Label_0_014DDC8F
// 079   ----------------------------------------
 BYTE   PATT
  POIN2 Label_0_014DDC98
// 080   ----------------------------------------
 BYTE   W96
// 081   ----------------------------------------
 BYTE   W96
// 082   ----------------------------------------
 BYTE   EOT
 BYTE   Gn2  v060
 BYTE   Gn3
// 083   ----------------------------------------
 BYTE   PATT
  POIN2 Label_0_014DDC8F
// 084   ----------------------------------------
 BYTE   PATT
  POIN2 Label_0_014DDCC5
// 085   ----------------------------------------
 BYTE   W96
// 086   ----------------------------------------
 BYTE   W12
 BYTE   EOT
 BYTE   Gn3
 BYTE   N12  Gn3  v127
 BYTE   N12  As3
 BYTE   W12
 BYTE   Gn3
 BYTE   N12  As3
 BYTE   W24
 BYTE   Gn3
 BYTE   N12  As3
 BYTE   W12
 BYTE   Gn3
 BYTE   N12  As3
 BYTE   W24
 BYTE   EOT
 BYTE   Gn2  v062
 BYTE   TIE  Gn2  v112
 BYTE   TIE  Cn3
 BYTE   TIE  Gn3
 BYTE   W12
// 087   ----------------------------------------
 BYTE   W96
// 088   ----------------------------------------
 BYTE   W48
 BYTE   EOT
 BYTE   Gn2  v060
 BYTE   Gn3
 BYTE   N12  Gn2
 BYTE   N12  Cn3
 BYTE   N12  Gn3
 BYTE   W12
 BYTE   Gn2
 BYTE   N12  Cn3
 BYTE   N12  Gn3
 BYTE   W24
 BYTE   TIE  Gn2
 BYTE   TIE  Cn3
 BYTE   TIE  Gn3
 BYTE   W12
// 089   ----------------------------------------
 BYTE   W96
// 090   ----------------------------------------
 BYTE   W48
 BYTE   EOT
 BYTE   Gn2  v060
 BYTE   Gn3
 BYTE   N12  Gn2
 BYTE   N12  Cn3
 BYTE   N12  Gn3
 BYTE   W12
 BYTE   Gn2
 BYTE   N12  Cn3
 BYTE   N12  Gn3
 BYTE   W24
 BYTE   TIE  Fn2
 BYTE   TIE  As2
 BYTE   TIE  Fn3
 BYTE   W12
// 091   ----------------------------------------
 BYTE   W96
// 092   ----------------------------------------
 BYTE   EOT
 BYTE   Fn2  v058
 BYTE   Fn3
// 093   ----------------------------------------
 BYTE   PATT
  POIN2 Label_0_014DDD43
// 094   ----------------------------------------
 BYTE   W96
// 095   ----------------------------------------
 BYTE   W12
 BYTE   EOT
 BYTE   Gn2  v060
 BYTE   Ds3
 BYTE   N36  Gn2  v112
 BYTE   N36  Ds3
 BYTE   N36  Gn3
 BYTE   W36
 BYTE   N12  Fn2
 BYTE   N12  Dn3
 BYTE   N12  Fn3
 BYTE   W12
 BYTE   Dn2
 BYTE   N12  As2
 BYTE   N12  Dn3
 BYTE   W24
 BYTE   TIE  Gn2
 BYTE   TIE  Cn3
 BYTE   TIE  Gn3
 BYTE   W12
// 096   ----------------------------------------
 BYTE   W96
// 097   ----------------------------------------
 BYTE   W48
 BYTE   EOT
 BYTE   Gn2  v060
 BYTE   Gn3
 BYTE   N12  Gn2
 BYTE   N12  Cn3
 BYTE   N12  Gn3
 BYTE   W12
 BYTE   Gn2
 BYTE   N12  Cn3
 BYTE   N12  Gn3
 BYTE   W24
 BYTE   TIE  Gn2
 BYTE   TIE  Cn3
 BYTE   TIE  Gn3
 BYTE   W12
// 098   ----------------------------------------
 BYTE   W96
// 099   ----------------------------------------
 BYTE   W48
 BYTE   EOT
 BYTE   Gn2  v060
 BYTE   Gn3
 BYTE   N12  Gn2
 BYTE   N12  Cn3
 BYTE   N12  Gn3
 BYTE   W12
 BYTE   Gn2
 BYTE   N12  Cn3
 BYTE   N12  Gn3
 BYTE   W24
 BYTE   TIE  Fn2
 BYTE   TIE  As2
 BYTE   TIE  Fn3
 BYTE   W12
// 100   ----------------------------------------
 BYTE   W96
// 101   ----------------------------------------
 BYTE   EOT
 BYTE   Fn2  v058
 BYTE   Fn3
// 102   ----------------------------------------
 BYTE   PATT
  POIN2 Label_0_014DDDB4
// 103   ----------------------------------------
 BYTE   W96
// 104   ----------------------------------------
 BYTE   W12
 BYTE   EOT
 BYTE   Cn2  v055
 BYTE   Cn3  v063
 BYTE   N36  Gn2  v112
 BYTE   N36  Ds3
 BYTE   N36  Gn3
 BYTE   W36
 BYTE   N12  Fn2
 BYTE   N12  Dn3
 BYTE   N12  Fn3
 BYTE   W12
 BYTE   Gn2
 BYTE   N12  Ds3
 BYTE   N12  Gn3
 BYTE   W36
// 105   ----------------------------------------
 BYTE   TIE  Cn3
 BYTE   W96
// 106   ----------------------------------------
 BYTE   W36
 BYTE   EOT
 BYTE   W12
 BYTE   N12
 BYTE   W12
 BYTE   N12
 BYTE   W24
 BYTE   TIE  Gs2
 BYTE   W12
// 107   ----------------------------------------
 BYTE   W96
// 108   ----------------------------------------
 BYTE   W36
 BYTE   EOT
 BYTE   W12
 BYTE   N12
 BYTE   W12
 BYTE   N12
 BYTE   W24
 BYTE   TIE  Fn2
 BYTE   W12
// 109   ----------------------------------------
 BYTE   W96
// 110   ----------------------------------------
 BYTE   EOT
// 111   ----------------------------------------
 BYTE   PATT
  POIN2 Label_0_014DDC6A
// 112   ----------------------------------------
 BYTE   W96
// 113   ----------------------------------------
 BYTE   W12
 BYTE   EOT
 BYTE   Cn3
 BYTE   N36  Ds3  v112
 BYTE   W36
 BYTE   N24  Dn3
 BYTE   W24
 BYTE   As2
 BYTE   W24
// 114   ----------------------------------------
 BYTE   W96
// 115   ----------------------------------------
 BYTE   W96
// 116   ----------------------------------------
 BYTE   W96
// 117   ----------------------------------------
 BYTE   W96
// 118   ----------------------------------------
 BYTE   W96
// 119   ----------------------------------------
 BYTE   W96
// 120   ----------------------------------------
 BYTE   W96
// 121   ----------------------------------------
 BYTE   W96
// 122   ----------------------------------------
 BYTE   W96
// 123   ----------------------------------------
 BYTE   W96
// 124   ----------------------------------------
 BYTE   W96
// 125   ----------------------------------------
 BYTE   W96
// 126   ----------------------------------------
 BYTE   W96
// 127   ----------------------------------------
 BYTE   W96
// 128   ----------------------------------------
 BYTE   W96
// 129   ----------------------------------------
 BYTE   W96
// 130   ----------------------------------------
 BYTE   PATT
  POIN2 Label_0_014DDC8F
// 131   ----------------------------------------
 BYTE   PATT
  POIN2 Label_0_014DDC98
// 132   ----------------------------------------
 BYTE   W96
// 133   ----------------------------------------
 BYTE   W96
// 134   ----------------------------------------
 BYTE   EOT
 BYTE   Gn2  v060
 BYTE   Gn3
// 135   ----------------------------------------
 BYTE   PATT
  POIN2 Label_0_014DDC8F
// 136   ----------------------------------------
 BYTE   PATT
  POIN2 Label_0_014DDCC5
// 137   ----------------------------------------
 BYTE   W96
// 138   ----------------------------------------
 BYTE   W12
 BYTE   EOT
 BYTE   Gn3
 BYTE   N12  Gn3  v127
 BYTE   N12  As3
 BYTE   W12
 BYTE   Gn3
 BYTE   N12  As3
 BYTE   W24
 BYTE   Gn3
 BYTE   N12  As3
 BYTE   W12
 BYTE   Gn3
 BYTE   N12  As3
 BYTE   W24
 BYTE   EOT
 BYTE   Gn2  v062
 BYTE   TIE  Gn2  v112
 BYTE   TIE  Cn3
 BYTE   TIE  Gn3
 BYTE   W12
// 139   ----------------------------------------
 BYTE   W96
// 140   ----------------------------------------
 BYTE   W48
 BYTE   EOT
 BYTE   Gn2  v060
 BYTE   Gn3
 BYTE   N12  Gn2
 BYTE   N12  Cn3
 BYTE   N12  Gn3
 BYTE   W12
 BYTE   Gn2
 BYTE   N12  Cn3
 BYTE   N12  Gn3
 BYTE   W24
 BYTE   TIE  Gn2
 BYTE   TIE  Cn3
 BYTE   TIE  Gn3
 BYTE   W12
// 141   ----------------------------------------
 BYTE   W96
// 142   ----------------------------------------
 BYTE   W48
 BYTE   EOT
 BYTE   Gn2  v060
 BYTE   Gn3
 BYTE   N12  Gn2
 BYTE   N12  Cn3
 BYTE   N12  Gn3
 BYTE   W12
 BYTE   Gn2
 BYTE   N12  Cn3
 BYTE   N12  Gn3
 BYTE   W24
 BYTE   TIE  Fn2
 BYTE   TIE  As2
 BYTE   TIE  Fn3
 BYTE   W12
// 143   ----------------------------------------
 BYTE   W96
// 144   ----------------------------------------
 BYTE   EOT
 BYTE   Fn2  v058
 BYTE   Fn3
// 145   ----------------------------------------
 BYTE   PATT
  POIN2 Label_0_014DDD43
// 146   ----------------------------------------
 BYTE   W96
// 147   ----------------------------------------
 BYTE   W12
 BYTE   EOT
 BYTE   Gn2  v060
 BYTE   Ds3
 BYTE   N36  Gn2  v112
 BYTE   N36  Ds3
 BYTE   N36  Gn3
 BYTE   W36
 BYTE   N12  Fn2
 BYTE   N12  Dn3
 BYTE   N12  Fn3
 BYTE   W12
 BYTE   Dn2
 BYTE   N12  As2
 BYTE   N12  Dn3
 BYTE   W24
 BYTE   TIE  Gn2
 BYTE   TIE  Cn3
 BYTE   TIE  Gn3
 BYTE   W12
// 148   ----------------------------------------
 BYTE   W96
// 149   ----------------------------------------
 BYTE   W48
 BYTE   EOT
 BYTE   Gn2  v060
 BYTE   Gn3
 BYTE   N12  Gn2
 BYTE   N12  Cn3
 BYTE   N12  Gn3
 BYTE   W12
 BYTE   Gn2
 BYTE   N12  Cn3
 BYTE   N12  Gn3
 BYTE   W24
 BYTE   TIE  Gn2
 BYTE   TIE  Cn3
 BYTE   TIE  Gn3
 BYTE   W12
// 150   ----------------------------------------
 BYTE   W96
// 151   ----------------------------------------
 BYTE   W48
 BYTE   EOT
 BYTE   Gn2  v060
 BYTE   Gn3
 BYTE   N12  Gn2
 BYTE   N12  Cn3
 BYTE   N12  Gn3
 BYTE   W12
 BYTE   Gn2
 BYTE   N12  Cn3
 BYTE   N12  Gn3
 BYTE   W24
 BYTE   TIE  Fn2
 BYTE   TIE  As2
 BYTE   TIE  Fn3
 BYTE   W12
// 152   ----------------------------------------
 BYTE   W96
// 153   ----------------------------------------
 BYTE   EOT
 BYTE   Fn2  v058
 BYTE   Fn3
// 154   ----------------------------------------
 BYTE   PATT
  POIN2 Label_0_014DDDB4
// 155   ----------------------------------------
 BYTE   W96
// 156   ----------------------------------------
 BYTE   GoTo
  POIN2 Label_0_014DDDCE
// 157   ----------------------------------------
 BYTE   W12
 BYTE   EOT
 BYTE   Cn2  v055
 BYTE   Cn3  v063
 BYTE   N36  Gn2  v112
 BYTE   N36  Ds3
 BYTE   N36  Gn3
 BYTE   W36
 BYTE   N12  Fn2
 BYTE   N12  Dn3
 BYTE   N12  Fn3
 BYTE   W12
 BYTE   Gn2
 BYTE   N12  Ds3
 BYTE   N12  Gn3
 BYTE   W36
 BYTE   FINE

//**************** Track 2 (Midi-Chn.1) ****************//

CapAm_002:
// 000   ----------------------------------------
 BYTE   KEYSH   CapAm_key+0
 BYTE   VOICE   30
 BYTE   VOL   48*CapAm_mvl/mxv
 BYTE   N12  Cn2  v127
 BYTE   N12  Ds2
 BYTE   W12
 BYTE   Cn2
 BYTE   N12  Ds2
 BYTE   W24
 BYTE   As1
 BYTE   N12  Dn2
 BYTE   W12
 BYTE   As1
 BYTE   N12  Dn2
 BYTE   W24
 BYTE   Cn2
 BYTE   N12  Ds2
 BYTE   W12
 BYTE   Cn2
 BYTE   N12  Ds2
 BYTE   W12
// 001   ----------------------------------------
 BYTE   W12
 BYTE   As1
 BYTE   N12  Dn2
 BYTE   W12
 BYTE   As1
 BYTE   N12  Dn2
 BYTE   W24
 BYTE   N24  Cn2
 BYTE   N24  Ds2
 BYTE   W24
 BYTE   As1
 BYTE   N24  Dn2
 BYTE   W24
// 002   ----------------------------------------
 BYTE   N96  Gs1
 BYTE   N96  Cn2
 BYTE   W96
// 003   ----------------------------------------
 BYTE   As1
 BYTE   N96  Dn2
 BYTE   W96
// 004   ----------------------------------------
Label_1_014DE08F:
 BYTE   BEND   c_v-32
 BYTE   N48  Fn3  v127
 BYTE   W03
 BYTE   BEND   c_v-16
 BYTE   W03
 BYTE   BEND   c_v+0
 BYTE   W42
 BYTE   N48  Ds3
 BYTE   W42
 BYTE   BEND   c_v+0
 BYTE   W03
 BYTE   BEND   c_v-16
 BYTE   W03
 BYTE   PEND 
// 005   ----------------------------------------
Label_1_014DE0A3:
 BYTE   BEND   c_v-32
 BYTE   N36  Dn3  v127
 BYTE   W03
 BYTE   BEND   c_v-16
 BYTE   W03
 BYTE   BEND   c_v-9
 BYTE   W03
 BYTE   BEND   c_v+0
 BYTE   W24
 BYTE   W03
 BYTE   BEND   c_v+32
 BYTE   N48
 BYTE   W36
 BYTE   BEND   c_v+32
 BYTE   W03
 BYTE   BEND   c_v+0
 BYTE   W03
 BYTE   BEND   c_v-32
 BYTE   W03
 BYTE   BEND   c_v-64
 BYTE   W03
 BYTE   BEND   c_v-32
 BYTE   N60  Fn3
 BYTE   W03
 BYTE   BEND   c_v-16
 BYTE   W03
 BYTE   BEND   c_v+0
 BYTE   W06
 BYTE   PEND 
// 006   ----------------------------------------
Label_1_014DE0C7:
 BYTE   W48
 BYTE   N48  Ds3  v127
 BYTE   W42
 BYTE   BEND   c_v+0
 BYTE   W03
 BYTE   BEND   c_v-16
 BYTE   W03
 BYTE   PEND 
// 007   ----------------------------------------
 BYTE   PATT
  POIN2 Label_1_014DE0A3
// 008   ----------------------------------------
 BYTE   PATT
  POIN2 Label_1_014DE0C7
// 009   ----------------------------------------
Label_1_014DE0DC:
 BYTE   BEND   c_v-32
 BYTE   N48  Dn3  v127
 BYTE   W03
 BYTE   BEND   c_v-16
 BYTE   W03
 BYTE   BEND   c_v-9
 BYTE   W03
 BYTE   BEND   c_v+0
 BYTE   W36
 BYTE   W03
 BYTE   BEND   c_v+32
 BYTE   N36
 BYTE   W24
 BYTE   BEND   c_v+32
 BYTE   W03
 BYTE   BEND   c_v+0
 BYTE   W03
 BYTE   BEND   c_v+0
 BYTE   W03
 BYTE   BEND   c_v-64
 BYTE   W03
 BYTE   TIE  En3
 BYTE   W12
 BYTE   PEND 
// 010   ----------------------------------------
 BYTE   W96
// 011   ----------------------------------------
 BYTE   W96
// 012   ----------------------------------------
 BYTE   EOT
Label_1_014DE0FD:
 BYTE   BEND   c_v+0
 BYTE   TIE  Cn1  v127
 BYTE   TIE  Gn1
 BYTE   TIE  Cn2
 BYTE   W96
 BYTE   PEND 
// 013   ----------------------------------------
Label_1_014DE108:
 BYTE   W72
 BYTE   BEND   c_v-16
 BYTE   W03
 BYTE   BEND   c_v-32
 BYTE   W03
 BYTE   BEND   c_v-48
 BYTE   W03
 BYTE   BEND   c_v-64
 BYTE   W03
 BYTE   PEND 
 BYTE   EOT
 BYTE   Cn1  v043
 BYTE   Cn2
 BYTE   BEND   c_v+0
 BYTE   TIE  Gs0  v127
 BYTE   TIE  Ds1
 BYTE   TIE  Gs1
 BYTE   W12
// 014   ----------------------------------------
 BYTE   W96
// 015   ----------------------------------------
 BYTE   W84
 BYTE   EOT
 BYTE   Gs0  v039
 BYTE   Gs1
 BYTE   BEND   c_v+0
 BYTE   TIE  As0
 BYTE   TIE  Fn1
 BYTE   TIE  As1
 BYTE   W12
// 016   ----------------------------------------
 BYTE   W96
// 017   ----------------------------------------
Label_1_014DE131:
 BYTE   W60
 BYTE   BEND   c_v-16
 BYTE   W03
 BYTE   BEND   c_v-32
 BYTE   W03
 BYTE   BEND   c_v-48
 BYTE   W03
 BYTE   BEND   c_v-64
 BYTE   W03
 BYTE   BEND   c_v+0
 BYTE   W12
 BYTE   PEND 
 BYTE   EOT
 BYTE   As0  v041
 BYTE   As1
 BYTE   TIE  Gn0  v127
 BYTE   TIE  Dn1
 BYTE   TIE  Gn1
 BYTE   W12
// 018   ----------------------------------------
 BYTE   W96
// 019   ----------------------------------------
 BYTE   W84
 BYTE   EOT
 BYTE   Gn0  v038
 BYTE   Gn1
 BYTE   TIE  Cn1
 BYTE   TIE  Gn1
 BYTE   TIE  Cn2
 BYTE   W12
// 020   ----------------------------------------
 BYTE   W96
// 021   ----------------------------------------
 BYTE   PATT
  POIN2 Label_1_014DE108
// 022   ----------------------------------------
 BYTE   EOT
 BYTE   Cn1  v043
 BYTE   Cn2
 BYTE   BEND   c_v+0
 BYTE   TIE  Gs0  v127
 BYTE   TIE  Ds1
 BYTE   TIE  Gs1
 BYTE   W12
 BYTE   W96
// 023   ----------------------------------------
 BYTE   W84
 BYTE   EOT
 BYTE   Gs0  v039
 BYTE   Gs1
 BYTE   TIE  As0
 BYTE   TIE  Fn1
 BYTE   TIE  As1
 BYTE   W12
// 024   ----------------------------------------
 BYTE   W96
// 025   ----------------------------------------
 BYTE   PATT
  POIN2 Label_1_014DE108
// 026   ----------------------------------------
 BYTE   EOT
 BYTE   As0  v041
 BYTE   As1
 BYTE   BEND   c_v+0
 BYTE   TIE  Cn1  v127
 BYTE   TIE  Gn1
 BYTE   TIE  Cn2
 BYTE   W12
Label_1_014DE18C:
 BYTE   W90
// 027   ----------------------------------------
 BYTE   BEND   c_v+16
 BYTE   W03
 BYTE   BEND   c_v+32
 BYTE   W03
 BYTE   PEND 
 BYTE   En7
 BYTE   W03
 BYTE   Gn8
 BYTE   W03
 BYTE   EOT
 BYTE   Cn1  v043
 BYTE   Cn2
 BYTE   BEND   c_v+0
 BYTE   W06
 BYTE   N84  As0  v127
 BYTE   N84  Fn1
 BYTE   N84  As1
 BYTE   W72
 BYTE   N06  Fn3
 BYTE   W06
// 028   ----------------------------------------
 BYTE   Gn3
 BYTE   W06
Label_1_014DE1AB:
 BYTE   BEND   c_v-32
 BYTE   N96  Fn1  v127
 BYTE   N96  Fn2  v096
 BYTE   N36  Gs3  v127
 BYTE   W03
 BYTE   BEND   c_v-16
 BYTE   W03
 BYTE   BEND   c_v+0
 BYTE   W30
 BYTE   N36  Gn3
 BYTE   W36
 BYTE   N24  Fn3
 BYTE   W15
 BYTE   BEND   c_v+0
 BYTE   W03
// 029   ----------------------------------------
 BYTE   BEND   c_v-16
 BYTE   W03
 BYTE   BEND   c_v-32
 BYTE   W03
 BYTE   PEND 
Label_1_014DE1CA:
 BYTE   BEND   c_v-16
 BYTE   N36  Gs1  v127
 BYTE   N36  Gs2  v096
 BYTE   N36  Gn3  v127
 BYTE   W03
 BYTE   BEND   c_v+0
 BYTE   W32
 BYTE   W01
 BYTE   N36  As1
 BYTE   N36  As2  v096
 BYTE   N36  Fn3  v127
 BYTE   W36
 BYTE   N12  As1
 BYTE   N12  As2  v096
 BYTE   N12  Dn3  v127
 BYTE   W12
 BYTE   TIE  Cn2
 BYTE   TIE  Cn3  v096
 BYTE   TIE  Ds3  v127
 BYTE   W12
 BYTE   PEND 
// 030   ----------------------------------------
 BYTE   W96
// 031   ----------------------------------------
Label_1_014DE1F7:
 BYTE   W84
 BYTE   BEND   c_v-16
 BYTE   W03
 BYTE   BEND   c_v-32
 BYTE   W03
 BYTE   BEND   c_v-48
 BYTE   W03
 BYTE   BEND   c_v-57
 BYTE   W03
 BYTE   PEND 
// 032   ----------------------------------------
 BYTE   EOT
 BYTE   Cn2  v060
 BYTE   Ds3
Label_1_014DE206:
 BYTE   BEND   c_v-32
 BYTE   N96  Fn1  v127
 BYTE   N96  Fn2  v096
 BYTE   N36  Gs3  v127
 BYTE   N36  Cn4  v112
 BYTE   W03
 BYTE   BEND   c_v-16
 BYTE   W03
 BYTE   BEND   c_v+0
 BYTE   W30
 BYTE   N36  Gn3  v127
 BYTE   N36  As3  v112
 BYTE   W36
 BYTE   N24  Gs3  v127
 BYTE   N24  Cn4  v112
 BYTE   W15
 BYTE   BEND   c_v+0
 BYTE   W03
 BYTE   BEND   c_v-16
 BYTE   W03
 BYTE   BEND   c_v-32
 BYTE   W03
 BYTE   PEND 
// 033   ----------------------------------------
Label_1_014DE230:
 BYTE   BEND   c_v-16
 BYTE   N36  Gs1  v127
 BYTE   N36  Gs2  v096
 BYTE   N36  As3  v127
 BYTE   N36  Ds4  v112
 BYTE   W03
 BYTE   BEND   c_v+0
 BYTE   W32
 BYTE   W01
 BYTE   N36  As1  v127
 BYTE   N36  As2  v096
 BYTE   N36  Cn4  v127
 BYTE   N36  Fn4  v112
 BYTE   W36
 BYTE   N12  As1  v127
 BYTE   N12  As2  v096
 BYTE   N12  Ds4  v127
 BYTE   N12  Gn4  v112
 BYTE   W12
 BYTE   BEND   c_v+0
 BYTE   TIE  Gn1  v127
 BYTE   TIE  Gn2  v096
 BYTE   TIE  Dn4  v127
 BYTE   TIE  Fn4  v112
 BYTE   W12
 BYTE   PEND 
// 034   ----------------------------------------
 BYTE   W96
// 035   ----------------------------------------
Label_1_014DE26E:
 BYTE   W72
 BYTE   BEND   c_v-16
 BYTE   W03
 BYTE   BEND   c_v-32
 BYTE   W03
 BYTE   BEND   c_v-48
 BYTE   W03
 BYTE   BEND   c_v-57
 BYTE   W03
 BYTE   PEND 
 BYTE   EOT
 BYTE   Gn1  v055
 BYTE   Dn4  v077
 BYTE   BEND   c_v+0
 BYTE   TIE  Cn1  v112
 BYTE   TIE  Gn1
 BYTE   TIE  Cn2
 BYTE   W12
// 036   ----------------------------------------
 BYTE   W96
// 037   ----------------------------------------
 BYTE   W48
 BYTE   EOT
 BYTE   Cn1  v043
 BYTE   Cn2
 BYTE   N12  Cn1
 BYTE   N12  Gn1
 BYTE   N12  Cn2
 BYTE   W12
 BYTE   Cn1
 BYTE   N12  Gn1
 BYTE   N12  Cn2
 BYTE   W24
 BYTE   TIE  Gs0
 BYTE   TIE  Ds1
 BYTE   TIE  Gs1
 BYTE   W12
// 038   ----------------------------------------
 BYTE   W96
// 039   ----------------------------------------
 BYTE   W48
 BYTE   EOT
 BYTE   Gs0  v039
 BYTE   Gs1
 BYTE   N12  Gs0
 BYTE   N12  Ds1
 BYTE   N12  Gs1
 BYTE   W12
 BYTE   Gs0
 BYTE   N12  Ds1
 BYTE   N12  Gs1
 BYTE   W24
 BYTE   TIE  As0
 BYTE   TIE  Fn1
 BYTE   TIE  As1
 BYTE   W12
// 040   ----------------------------------------
 BYTE   W96
// 041   ----------------------------------------
 BYTE   W48
 BYTE   EOT
 BYTE   As0  v041
 BYTE   As1
 BYTE   N12  As0
 BYTE   N12  Fn1
 BYTE   N12  As1
 BYTE   W12
 BYTE   As0
 BYTE   N12  Fn1
 BYTE   N12  As1
 BYTE   W24
 BYTE   BEND   c_v+0
 BYTE   TIE  Cn1
 BYTE   TIE  Gn1
 BYTE   TIE  Cn2
 BYTE   W12
// 042   ----------------------------------------
 BYTE   W96
// 043   ----------------------------------------
 BYTE   EOT
 BYTE   Cn1  v043
 BYTE   Cn2
Label_1_014DE2DD:
 BYTE   BEND   c_v+0
 BYTE   N24  As0  v096
 BYTE   N24  Fn1
 BYTE   N24  As1
 BYTE   W03
 BYTE   BEND   c_v-8
 BYTE   W03
 BYTE   BEND   c_v-16
 BYTE   W03
 BYTE   BEND   c_v-24
 BYTE   W03
 BYTE   BEND   c_v-32
 BYTE   W03
 BYTE   BEND   c_v-41
 BYTE   W03
 BYTE   BEND   c_v-48
 BYTE   W03
 BYTE   BEND   c_v-57
 BYTE   W03
 BYTE   BEND   c_v-63
 BYTE   W24
 BYTE   BEND   c_v+0
 BYTE   W36
 BYTE   BEND   c_v+0
 BYTE   TIE  Cn1  v112
 BYTE   TIE  Gn1
 BYTE   TIE  Cn2
 BYTE   W12
 BYTE   PEND 
// 044   ----------------------------------------
 BYTE   W96
// 045   ----------------------------------------
 BYTE   W48
 BYTE   EOT
 BYTE   Cn1  v043
 BYTE   Cn2
 BYTE   N12  Cn1
 BYTE   N12  Gn1
 BYTE   N12  Cn2
 BYTE   W12
 BYTE   Cn1
 BYTE   N12  Gn1
 BYTE   N12  Cn2
 BYTE   W24
 BYTE   TIE  Gs0
 BYTE   TIE  Ds1
 BYTE   TIE  Gs1
 BYTE   W12
// 046   ----------------------------------------
 BYTE   W96
// 047   ----------------------------------------
 BYTE   W48
 BYTE   EOT
 BYTE   Gs0  v039
 BYTE   Gs1
 BYTE   N12  Gs0
 BYTE   N12  Ds1
 BYTE   N12  Gs1
 BYTE   W12
 BYTE   Gs0
 BYTE   N12  Ds1
 BYTE   N12  Gs1
 BYTE   W24
 BYTE   TIE  As0
 BYTE   TIE  Fn1
 BYTE   TIE  As1
 BYTE   W12
// 048   ----------------------------------------
 BYTE   W96
// 049   ----------------------------------------
 BYTE   W48
 BYTE   EOT
 BYTE   As0  v041
 BYTE   As1
 BYTE   N12  As0
 BYTE   N12  Fn1
 BYTE   N12  As1
 BYTE   W12
 BYTE   As0
 BYTE   N12  Fn1
 BYTE   N12  As1
 BYTE   W24
 BYTE   BEND   c_v+0
 BYTE   TIE  Cn1
 BYTE   TIE  Gn1
 BYTE   TIE  Cn2
 BYTE   W12
// 050   ----------------------------------------
 BYTE   PATT
  POIN2 Label_1_014DE18C
// 051   ----------------------------------------
Label_1_014DE359:
 BYTE   BEND   c_v+48
 BYTE   W03
 BYTE   BEND   c_v+63
 BYTE   W03
 BYTE   EOT
 BYTE   Cn1  v043
 BYTE   Cn2
 BYTE   BEND   c_v+0
 BYTE   W06
 BYTE   N84  As0  v127
 BYTE   N84  Fn1
 BYTE   N84  As1
 BYTE   W66
 BYTE   N06  Cn3
 BYTE   W06
 BYTE   Dn3
 BYTE   W06
 BYTE   Ds3
 BYTE   W06
// 052   ----------------------------------------
 BYTE   PATT
  POIN2 Label_1_014DE08F
// 053   ----------------------------------------
 BYTE   PATT
  POIN2 Label_1_014DE0A3
// 054   ----------------------------------------
 BYTE   PATT
  POIN2 Label_1_014DE0C7
// 055   ----------------------------------------
 BYTE   PATT
  POIN2 Label_1_014DE0A3
// 056   ----------------------------------------
 BYTE   PATT
  POIN2 Label_1_014DE0C7
// 057   ----------------------------------------
 BYTE   PATT
  POIN2 Label_1_014DE0DC
// 058   ----------------------------------------
 BYTE   W96
// 059   ----------------------------------------
 BYTE   W96
// 060   ----------------------------------------
 BYTE   EOT
 BYTE   En3
// 061   ----------------------------------------
 BYTE   PATT
  POIN2 Label_1_014DE0FD
// 062   ----------------------------------------
 BYTE   PATT
  POIN2 Label_1_014DE108
// 063   ----------------------------------------
 BYTE   EOT
 BYTE   Cn1  v043
 BYTE   Cn2
 BYTE   BEND   c_v+0
 BYTE   TIE  Gs0  v127
 BYTE   TIE  Ds1
 BYTE   TIE  Gs1
 BYTE   W12
 BYTE   W96
// 064   ----------------------------------------
 BYTE   W84
 BYTE   EOT
 BYTE   Gs0  v039
 BYTE   Gs1
 BYTE   BEND   c_v+0
 BYTE   TIE  As0
 BYTE   TIE  Fn1
 BYTE   TIE  As1
 BYTE   W12
// 065   ----------------------------------------
 BYTE   W96
// 066   ----------------------------------------
 BYTE   PATT
  POIN2 Label_1_014DE131
// 067   ----------------------------------------
 BYTE   EOT
 BYTE   As0  v041
 BYTE   As1
 BYTE   TIE  Gn0  v127
 BYTE   TIE  Dn1
 BYTE   TIE  Gn1
 BYTE   W12
 BYTE   W96
// 068   ----------------------------------------
 BYTE   W84
 BYTE   EOT
 BYTE   Gn0  v038
 BYTE   Gn1
 BYTE   TIE  Cn1
 BYTE   TIE  Gn1
 BYTE   TIE  Cn2
 BYTE   W12
// 069   ----------------------------------------
 BYTE   W96
// 070   ----------------------------------------
 BYTE   PATT
  POIN2 Label_1_014DE108
// 071   ----------------------------------------
 BYTE   EOT
 BYTE   Cn1  v043
 BYTE   Cn2
 BYTE   BEND   c_v+0
 BYTE   TIE  Gs0  v127
 BYTE   TIE  Ds1
 BYTE   TIE  Gs1
 BYTE   W12
 BYTE   W96
// 072   ----------------------------------------
 BYTE   W84
 BYTE   EOT
 BYTE   Gs0  v039
 BYTE   Gs1
 BYTE   TIE  As0
 BYTE   TIE  Fn1
 BYTE   TIE  As1
 BYTE   W12
// 073   ----------------------------------------
 BYTE   W96
// 074   ----------------------------------------
 BYTE   PATT
  POIN2 Label_1_014DE108
// 075   ----------------------------------------
 BYTE   EOT
 BYTE   As0  v041
 BYTE   As1
 BYTE   BEND   c_v+0
 BYTE   TIE  Cn1  v127
 BYTE   TIE  Gn1
 BYTE   TIE  Cn2
 BYTE   W12
// 076   ----------------------------------------
 BYTE   PATT
  POIN2 Label_1_014DE18C
// 077   ----------------------------------------
 BYTE   BEND   c_v+48
 BYTE   W03
 BYTE   BEND   c_v+63
 BYTE   W03
 BYTE   EOT
 BYTE   Cn1  v043
 BYTE   Cn2
 BYTE   BEND   c_v+0
 BYTE   W06
 BYTE   N84  As0  v127
 BYTE   N84  Fn1
 BYTE   N84  As1
 BYTE   W72
 BYTE   N06  Fn3
 BYTE   W06
 BYTE   Gn3
 BYTE   W06
// 078   ----------------------------------------
 BYTE   PATT
  POIN2 Label_1_014DE1AB
// 079   ----------------------------------------
 BYTE   PATT
  POIN2 Label_1_014DE1CA
// 080   ----------------------------------------
 BYTE   W96
// 081   ----------------------------------------
 BYTE   PATT
  POIN2 Label_1_014DE1F7
// 082   ----------------------------------------
 BYTE   EOT
 BYTE   Cn2  v060
 BYTE   Ds3
// 083   ----------------------------------------
 BYTE   PATT
  POIN2 Label_1_014DE206
// 084   ----------------------------------------
 BYTE   PATT
  POIN2 Label_1_014DE230
// 085   ----------------------------------------
 BYTE   W96
// 086   ----------------------------------------
 BYTE   PATT
  POIN2 Label_1_014DE26E
// 087   ----------------------------------------
 BYTE   EOT
 BYTE   Gn1  v055
 BYTE   Dn4  v077
 BYTE   BEND   c_v+0
 BYTE   TIE  Cn1  v112
 BYTE   TIE  Gn1
 BYTE   TIE  Cn2
 BYTE   W12
 BYTE   W96
// 088   ----------------------------------------
 BYTE   W48
 BYTE   EOT
 BYTE   Cn1  v043
 BYTE   Cn2
 BYTE   N12  Cn1
 BYTE   N12  Gn1
 BYTE   N12  Cn2
 BYTE   W12
 BYTE   Cn1
 BYTE   N12  Gn1
 BYTE   N12  Cn2
 BYTE   W24
 BYTE   TIE  Gs0
 BYTE   TIE  Ds1
 BYTE   TIE  Gs1
 BYTE   W12
// 089   ----------------------------------------
 BYTE   W96
// 090   ----------------------------------------
 BYTE   W48
 BYTE   EOT
 BYTE   Gs0  v039
 BYTE   Gs1
 BYTE   N12  Gs0
 BYTE   N12  Ds1
 BYTE   N12  Gs1
 BYTE   W12
 BYTE   Gs0
 BYTE   N12  Ds1
 BYTE   N12  Gs1
 BYTE   W24
 BYTE   TIE  As0
 BYTE   TIE  Fn1
 BYTE   TIE  As1
 BYTE   W12
// 091   ----------------------------------------
 BYTE   W96
// 092   ----------------------------------------
 BYTE   W48
 BYTE   EOT
 BYTE   As0  v041
 BYTE   As1
 BYTE   N12  As0
 BYTE   N12  Fn1
 BYTE   N12  As1
 BYTE   W12
 BYTE   As0
 BYTE   N12  Fn1
 BYTE   N12  As1
 BYTE   W24
 BYTE   BEND   c_v+0
 BYTE   TIE  Cn1
 BYTE   TIE  Gn1
 BYTE   TIE  Cn2
 BYTE   W12
// 093   ----------------------------------------
 BYTE   W96
// 094   ----------------------------------------
 BYTE   EOT
 BYTE   Cn1  v043
 BYTE   Cn2
// 095   ----------------------------------------
 BYTE   PATT
  POIN2 Label_1_014DE2DD
// 096   ----------------------------------------
 BYTE   W96
// 097   ----------------------------------------
 BYTE   W48
 BYTE   EOT
 BYTE   Cn1  v043
 BYTE   Cn2
 BYTE   N12  Cn1  v112
 BYTE   N12  Gn1
 BYTE   N12  Cn2
 BYTE   W12
 BYTE   Cn1
 BYTE   N12  Gn1
 BYTE   N12  Cn2
 BYTE   W24
 BYTE   TIE  Gs0
 BYTE   TIE  Ds1
 BYTE   TIE  Gs1
 BYTE   W12
// 098   ----------------------------------------
 BYTE   W96
// 099   ----------------------------------------
 BYTE   W48
 BYTE   EOT
 BYTE   Gs0  v039
 BYTE   Gs1
 BYTE   N12  Gs0
 BYTE   N12  Ds1
 BYTE   N12  Gs1
 BYTE   W12
 BYTE   Gs0
 BYTE   N12  Ds1
 BYTE   N12  Gs1
 BYTE   W24
 BYTE   TIE  As0
 BYTE   TIE  Fn1
 BYTE   TIE  As1
 BYTE   W12
// 100   ----------------------------------------
 BYTE   W96
// 101   ----------------------------------------
 BYTE   W48
 BYTE   EOT
 BYTE   As0  v041
 BYTE   As1
 BYTE   N12  As0
 BYTE   N12  Fn1
 BYTE   N12  As1
 BYTE   W12
 BYTE   As0
 BYTE   N12  Fn1
 BYTE   N12  As1
 BYTE   W24
 BYTE   BEND   c_v+0
 BYTE   TIE  Cn1
 BYTE   TIE  Gn1
 BYTE   TIE  Cn2
 BYTE   W12
// 102   ----------------------------------------
 BYTE   PATT
  POIN2 Label_1_014DE18C
// 103   ----------------------------------------
 BYTE   BEND   c_v+48
 BYTE   W03
 BYTE   BEND   c_v+63
 BYTE   W03
 BYTE   EOT
 BYTE   Cn1  v043
 BYTE   Cn2
 BYTE   BEND   c_v+0
 BYTE   W06
 BYTE   N84  As0  v127
 BYTE   N84  Fn1
 BYTE   N84  As1
 BYTE   W66
 BYTE   N06  Cn3
 BYTE   W06
 BYTE   Dn3
 BYTE   W06
 BYTE   Ds3
 BYTE   W06
// 104   ----------------------------------------
 BYTE   PATT
  POIN2 Label_1_014DE08F
// 105   ----------------------------------------
 BYTE   PATT
  POIN2 Label_1_014DE0A3
// 106   ----------------------------------------
 BYTE   PATT
  POIN2 Label_1_014DE0C7
// 107   ----------------------------------------
 BYTE   PATT
  POIN2 Label_1_014DE0A3
// 108   ----------------------------------------
 BYTE   PATT
  POIN2 Label_1_014DE0C7
// 109   ----------------------------------------
 BYTE   PATT
  POIN2 Label_1_014DE0DC
// 110   ----------------------------------------
 BYTE   W96
// 111   ----------------------------------------
 BYTE   W96
// 112   ----------------------------------------
 BYTE   EOT
 BYTE   En3
// 113   ----------------------------------------
 BYTE   PATT
  POIN2 Label_1_014DE0FD
// 114   ----------------------------------------
 BYTE   PATT
  POIN2 Label_1_014DE108
// 115   ----------------------------------------
 BYTE   EOT
 BYTE   Cn1  v043
 BYTE   Cn2
 BYTE   BEND   c_v+0
 BYTE   TIE  Gs0  v127
 BYTE   TIE  Ds1
 BYTE   TIE  Gs1
 BYTE   W12
 BYTE   W96
// 116   ----------------------------------------
 BYTE   W84
 BYTE   EOT
 BYTE   Gs0  v039
 BYTE   Gs1
 BYTE   BEND   c_v+0
 BYTE   TIE  As0
 BYTE   TIE  Fn1
 BYTE   TIE  As1
 BYTE   W12
// 117   ----------------------------------------
 BYTE   W96
// 118   ----------------------------------------
 BYTE   PATT
  POIN2 Label_1_014DE131
// 119   ----------------------------------------
 BYTE   EOT
 BYTE   As0  v041
 BYTE   As1
 BYTE   TIE  Gn0  v127
 BYTE   TIE  Dn1
 BYTE   TIE  Gn1
 BYTE   W12
 BYTE   W96
// 120   ----------------------------------------
 BYTE   W84
 BYTE   EOT
 BYTE   Gn0  v038
 BYTE   Gn1
 BYTE   TIE  Cn1
 BYTE   TIE  Gn1
 BYTE   TIE  Cn2
 BYTE   W12
// 121   ----------------------------------------
 BYTE   W96
// 122   ----------------------------------------
 BYTE   PATT
  POIN2 Label_1_014DE108
// 123   ----------------------------------------
 BYTE   EOT
 BYTE   Cn1  v043
 BYTE   Cn2
 BYTE   BEND   c_v+0
 BYTE   TIE  Gs0  v127
 BYTE   TIE  Ds1
 BYTE   TIE  Gs1
 BYTE   W12
 BYTE   W96
// 124   ----------------------------------------
 BYTE   W84
 BYTE   EOT
 BYTE   Gs0  v039
 BYTE   Gs1
 BYTE   TIE  As0
 BYTE   TIE  Fn1
 BYTE   TIE  As1
 BYTE   W12
// 125   ----------------------------------------
 BYTE   W96
// 126   ----------------------------------------
 BYTE   PATT
  POIN2 Label_1_014DE108
// 127   ----------------------------------------
 BYTE   EOT
 BYTE   As0  v041
 BYTE   As1
 BYTE   BEND   c_v+0
 BYTE   TIE  Cn1  v127
 BYTE   TIE  Gn1
 BYTE   TIE  Cn2
 BYTE   W12
// 128   ----------------------------------------
 BYTE   PATT
  POIN2 Label_1_014DE18C
// 129   ----------------------------------------
 BYTE   BEND   c_v+48
 BYTE   W03
 BYTE   BEND   c_v+63
 BYTE   W03
 BYTE   EOT
 BYTE   Cn1  v043
 BYTE   Cn2
 BYTE   BEND   c_v+0
 BYTE   W06
 BYTE   N84  As0  v127
 BYTE   N84  Fn1
 BYTE   N84  As1
 BYTE   W72
 BYTE   N06  Fn3
 BYTE   W06
 BYTE   Gn3
 BYTE   W06
// 130   ----------------------------------------
 BYTE   PATT
  POIN2 Label_1_014DE1AB
// 131   ----------------------------------------
 BYTE   PATT
  POIN2 Label_1_014DE1CA
// 132   ----------------------------------------
 BYTE   W96
// 133   ----------------------------------------
 BYTE   PATT
  POIN2 Label_1_014DE1F7
// 134   ----------------------------------------
 BYTE   EOT
 BYTE   Cn2  v060
 BYTE   Ds3
// 135   ----------------------------------------
 BYTE   PATT
  POIN2 Label_1_014DE206
// 136   ----------------------------------------
 BYTE   PATT
  POIN2 Label_1_014DE230
// 137   ----------------------------------------
 BYTE   W96
// 138   ----------------------------------------
 BYTE   PATT
  POIN2 Label_1_014DE26E
// 139   ----------------------------------------
 BYTE   EOT
 BYTE   Gn1  v055
 BYTE   Dn4  v077
 BYTE   BEND   c_v+0
 BYTE   TIE  Cn1  v112
 BYTE   TIE  Gn1
 BYTE   TIE  Cn2
 BYTE   W12
 BYTE   W96
// 140   ----------------------------------------
 BYTE   W48
 BYTE   EOT
 BYTE   Cn1  v043
 BYTE   Cn2
 BYTE   N12  Cn1
 BYTE   N12  Gn1
 BYTE   N12  Cn2
 BYTE   W12
 BYTE   Cn1
 BYTE   N12  Gn1
 BYTE   N12  Cn2
 BYTE   W24
 BYTE   TIE  Gs0
 BYTE   TIE  Ds1
 BYTE   TIE  Gs1
 BYTE   W12
// 141   ----------------------------------------
 BYTE   W96
// 142   ----------------------------------------
 BYTE   W48
 BYTE   EOT
 BYTE   Gs0  v039
 BYTE   Gs1
 BYTE   N12  Gs0
 BYTE   N12  Ds1
 BYTE   N12  Gs1
 BYTE   W12
 BYTE   Gs0
 BYTE   N12  Ds1
 BYTE   N12  Gs1
 BYTE   W24
 BYTE   TIE  As0
 BYTE   TIE  Fn1
 BYTE   TIE  As1
 BYTE   W12
// 143   ----------------------------------------
 BYTE   W96
// 144   ----------------------------------------
 BYTE   W48
 BYTE   EOT
 BYTE   As0  v041
 BYTE   As1
 BYTE   N12  As0
 BYTE   N12  Fn1
 BYTE   N12  As1
 BYTE   W12
 BYTE   As0
 BYTE   N12  Fn1
 BYTE   N12  As1
 BYTE   W24
 BYTE   BEND   c_v+0
 BYTE   TIE  Cn1
 BYTE   TIE  Gn1
 BYTE   TIE  Cn2
 BYTE   W12
// 145   ----------------------------------------
 BYTE   W96
// 146   ----------------------------------------
 BYTE   EOT
 BYTE   Cn1  v043
 BYTE   Cn2
// 147   ----------------------------------------
 BYTE   PATT
  POIN2 Label_1_014DE2DD
// 148   ----------------------------------------
 BYTE   W96
// 149   ----------------------------------------
 BYTE   W48
 BYTE   EOT
 BYTE   Cn1  v043
 BYTE   Cn2
 BYTE   N12  Cn1  v112
 BYTE   N12  Gn1
 BYTE   N12  Cn2
 BYTE   W12
 BYTE   Cn1
 BYTE   N12  Gn1
 BYTE   N12  Cn2
 BYTE   W24
 BYTE   TIE  Gs0
 BYTE   TIE  Ds1
 BYTE   TIE  Gs1
 BYTE   W12
// 150   ----------------------------------------
 BYTE   W96
// 151   ----------------------------------------
 BYTE   W48
 BYTE   EOT
 BYTE   Gs0  v039
 BYTE   Gs1
 BYTE   N12  Gs0
 BYTE   N12  Ds1
 BYTE   N12  Gs1
 BYTE   W12
 BYTE   Gs0
 BYTE   N12  Ds1
 BYTE   N12  Gs1
 BYTE   W24
 BYTE   TIE  As0
 BYTE   TIE  Fn1
 BYTE   TIE  As1
 BYTE   W12
// 152   ----------------------------------------
 BYTE   W96
// 153   ----------------------------------------
 BYTE   W48
 BYTE   EOT
 BYTE   As0  v041
 BYTE   As1
 BYTE   N12  As0
 BYTE   N12  Fn1
 BYTE   N12  As1
 BYTE   W12
 BYTE   As0
 BYTE   N12  Fn1
 BYTE   N12  As1
 BYTE   W24
 BYTE   BEND   c_v+0
 BYTE   TIE  Cn1
 BYTE   TIE  Gn1
 BYTE   TIE  Cn2
 BYTE   W12
// 154   ----------------------------------------
 BYTE   PATT
  POIN2 Label_1_014DE18C
// 155   ----------------------------------------
 BYTE   GoTo
  POIN2 Label_1_014DE359
// 156   ----------------------------------------
 BYTE   BEND   c_v+48
 BYTE   W03
 BYTE   BEND   c_v+63
 BYTE   W03
 BYTE   EOT
 BYTE   Cn1  v043
 BYTE   Cn2
 BYTE   BEND   c_v+0
 BYTE   W06
 BYTE   N84  As0  v127
 BYTE   N84  Fn1
 BYTE   N84  As1
 BYTE   W84
 BYTE   FINE

//**************** Track 3 (Midi-Chn.2) ****************//

CapAm_003:
// 000   ----------------------------------------
 BYTE   KEYSH   CapAm_key+0
 BYTE   VOICE   33
 BYTE   VOL   40*CapAm_mvl/mxv
 BYTE   N24  Cn1  v127
 BYTE   W36
 BYTE   As0
 BYTE   W36
 BYTE   Cn1
 BYTE   W24
// 001   ----------------------------------------
 BYTE   W12
 BYTE   As0
 BYTE   W36
 BYTE   Cn1
 BYTE   W24
 BYTE   As0
 BYTE   W24
// 002   ----------------------------------------
 BYTE   N12  Gs0
 BYTE   W12
 BYTE   N12
 BYTE   W12
 BYTE   N12
 BYTE   W12
 BYTE   N12
 BYTE   W12
 BYTE   N12
 BYTE   W12
 BYTE   N12
 BYTE   W12
 BYTE   N12
 BYTE   W12
 BYTE   N12
 BYTE   W12
// 003   ----------------------------------------
 BYTE   As0
 BYTE   W12
 BYTE   N12
 BYTE   W12
 BYTE   N12
 BYTE   W12
 BYTE   N12
 BYTE   W12
 BYTE   N12
 BYTE   W12
 BYTE   N12
 BYTE   W12
 BYTE   N12
 BYTE   W12
 BYTE   N12
 BYTE   W12
// 004   ----------------------------------------
Label_2_014DE71E:
 BYTE   N24  Cn1  v127
 BYTE   W24
 BYTE   N12
 BYTE   W12
 BYTE   N12
 BYTE   W12
 BYTE   N12
 BYTE   W12
 BYTE   N12
 BYTE   W12
 BYTE   N12
 BYTE   W12
 BYTE   N12
 BYTE   W12
 BYTE   PEND 
// 005   ----------------------------------------
Label_2_014DE72F:
 BYTE   N12  Cn1  v127
 BYTE   W12
 BYTE   N12
 BYTE   W12
 BYTE   N12
 BYTE   W12
 BYTE   N12
 BYTE   W12
 BYTE   N12
 BYTE   W12
 BYTE   N12
 BYTE   W12
 BYTE   N12
 BYTE   W12
 BYTE   N24  Gs0
 BYTE   W12
 BYTE   PEND 
// 006   ----------------------------------------
Label_2_014DE743:
 BYTE   W12
 BYTE   N12  Gs0  v127
 BYTE   W12
 BYTE   N12
 BYTE   W12
 BYTE   N12
 BYTE   W12
 BYTE   N12
 BYTE   W12
 BYTE   N12
 BYTE   W12
 BYTE   N12
 BYTE   W12
 BYTE   N12
 BYTE   W12
 BYTE   PEND 
// 007   ----------------------------------------
Label_2_014DE755:
 BYTE   N12  Gs0  v127
 BYTE   W12
 BYTE   N12
 BYTE   W12
 BYTE   N12
 BYTE   W12
 BYTE   N12
 BYTE   W12
 BYTE   N12
 BYTE   W12
 BYTE   N12
 BYTE   W12
 BYTE   N12
 BYTE   W12
 BYTE   N24  Fn0
 BYTE   W12
 BYTE   PEND 
// 008   ----------------------------------------
Label_2_014DE769:
 BYTE   W12
 BYTE   N12  Fn0  v127
 BYTE   W12
 BYTE   N12
 BYTE   W12
 BYTE   N12
 BYTE   W12
 BYTE   N12
 BYTE   W12
 BYTE   N12
 BYTE   W12
 BYTE   N12
 BYTE   W12
 BYTE   N24  Gn0
 BYTE   W12
 BYTE   PEND 
// 009   ----------------------------------------
Label_2_014DE77C:
 BYTE   W12
 BYTE   N12  Gn0  v127
 BYTE   W12
 BYTE   N12
 BYTE   W12
 BYTE   N12
 BYTE   W12
 BYTE   N12
 BYTE   W12
 BYTE   As0
 BYTE   W12
 BYTE   Dn1
 BYTE   W12
 BYTE   N24  Cn1
 BYTE   W12
 BYTE   PEND 
// 010   ----------------------------------------
Label_2_014DE78F:
 BYTE   W12
 BYTE   N12  Cn1  v127
 BYTE   W12
 BYTE   N12
 BYTE   W12
 BYTE   N12
 BYTE   W12
 BYTE   N12
 BYTE   W12
 BYTE   N12
 BYTE   W12
 BYTE   N12
 BYTE   W12
 BYTE   N12
 BYTE   W12
 BYTE   PEND 
// 011   ----------------------------------------
Label_2_014DE7A1:
 BYTE   N12  Cn1  v127
 BYTE   W12
 BYTE   Ds1
 BYTE   W12
 BYTE   N12
 BYTE   W12
 BYTE   N12
 BYTE   W12
 BYTE   Dn1
 BYTE   W12
 BYTE   N12
 BYTE   W12
 BYTE   N24  As0
 BYTE   W24
 BYTE   PEND 
// 012   ----------------------------------------
Label_2_014DE7B3:
 BYTE   N12  Cn1  v127
 BYTE   W12
 BYTE   N12
 BYTE   W12
 BYTE   N12
 BYTE   W12
 BYTE   N12
 BYTE   W12
 BYTE   N12
 BYTE   W12
 BYTE   N12
 BYTE   W12
 BYTE   N12
 BYTE   W12
 BYTE   N12
 BYTE   W12
 BYTE   PEND 
// 013   ----------------------------------------
Label_2_014DE7C6:
 BYTE   N12  Cn1  v127
 BYTE   W12
 BYTE   As0
 BYTE   W12
 BYTE   Cn1
 BYTE   W12
 BYTE   Dn1
 BYTE   W12
 BYTE   Ds1
 BYTE   W12
 BYTE   Dn1
 BYTE   W12
 BYTE   As0
 BYTE   W12
 BYTE   N24  Gs0
 BYTE   W12
 BYTE   PEND 
// 014   ----------------------------------------
 BYTE   PATT
  POIN2 Label_2_014DE743
// 015   ----------------------------------------
Label_2_014DE7DF:
 BYTE   N12  Gs0  v127
 BYTE   W12
 BYTE   Fn0
 BYTE   W12
 BYTE   Gs0
 BYTE   W12
 BYTE   Gn0
 BYTE   W12
 BYTE   Gs0
 BYTE   W12
 BYTE   Gn0
 BYTE   W12
 BYTE   Gs0
 BYTE   W12
 BYTE   N24  As0
 BYTE   W12
 BYTE   PEND 
// 016   ----------------------------------------
Label_2_014DE7F3:
 BYTE   W12
 BYTE   N12  As0  v127
 BYTE   W12
 BYTE   N12
 BYTE   W12
 BYTE   N12
 BYTE   W12
 BYTE   N12
 BYTE   W12
 BYTE   N12
 BYTE   W12
 BYTE   N12
 BYTE   W12
 BYTE   N12
 BYTE   W12
 BYTE   PEND 
// 017   ----------------------------------------
Label_2_014DE805:
 BYTE   N12  As0  v127
 BYTE   W12
 BYTE   N12
 BYTE   W12
 BYTE   N12
 BYTE   W12
 BYTE   N12
 BYTE   W12
 BYTE   N12
 BYTE   W12
 BYTE   Cn1
 BYTE   W12
 BYTE   Dn1
 BYTE   W12
 BYTE   N24  Gn0
 BYTE   W12
 BYTE   PEND 
// 018   ----------------------------------------
Label_2_014DE819:
 BYTE   W12
 BYTE   N12  Gn0  v127
 BYTE   W12
 BYTE   N12
 BYTE   W12
 BYTE   N12
 BYTE   W12
 BYTE   N12
 BYTE   W12
 BYTE   N12
 BYTE   W12
 BYTE   N12
 BYTE   W12
 BYTE   N12
 BYTE   W12
 BYTE   PEND 
// 019   ----------------------------------------
Label_2_014DE82B:
 BYTE   N12  Gn0  v127
 BYTE   W12
 BYTE   Gn1
 BYTE   W12
 BYTE   N12
 BYTE   W12
 BYTE   Fn1
 BYTE   W12
 BYTE   Ds1
 BYTE   W12
 BYTE   Dn1
 BYTE   W12
 BYTE   As0
 BYTE   W12
 BYTE   N24  Cn1
 BYTE   W12
 BYTE   PEND 
// 020   ----------------------------------------
 BYTE   PATT
  POIN2 Label_2_014DE78F
// 021   ----------------------------------------
 BYTE   PATT
  POIN2 Label_2_014DE7C6
// 022   ----------------------------------------
 BYTE   PATT
  POIN2 Label_2_014DE743
// 023   ----------------------------------------
 BYTE   PATT
  POIN2 Label_2_014DE7DF
// 024   ----------------------------------------
Label_2_014DE853:
 BYTE   W12
 BYTE   N12  As0  v127
 BYTE   W12
 BYTE   N12
 BYTE   W12
 BYTE   N12
 BYTE   W12
 BYTE   N12
 BYTE   W12
 BYTE   N12
 BYTE   W12
 BYTE   Dn1
 BYTE   W12
 BYTE   As0
 BYTE   W12
 BYTE   PEND 
// 025   ----------------------------------------
Label_2_014DE865:
 BYTE   N12  As0  v127
 BYTE   W12
 BYTE   N12
 BYTE   W12
 BYTE   Fn1
 BYTE   W12
 BYTE   As0
 BYTE   W12
 BYTE   Dn1
 BYTE   W12
 BYTE   As0
 BYTE   W12
 BYTE   Fn1
 BYTE   W12
 BYTE   N24  Cn1
 BYTE   W12
 BYTE   PEND 
// 026   ----------------------------------------
 BYTE   PATT
  POIN2 Label_2_014DE78F
// 027   ----------------------------------------
Label_2_014DE87E:
 BYTE   N12  Cn1  v127
 BYTE   W12
 BYTE   N24  Ds1
 BYTE   W24
 BYTE   N36  Fn1
 BYTE   W60
 BYTE   PEND 
// 028   ----------------------------------------
Label_2_014DE889:
 BYTE   BEND   c_v+0
 BYTE   N12  Fn0  v127
 BYTE   W12
 BYTE   N12
 BYTE   W12
 BYTE   N12
 BYTE   W12
 BYTE   N12
 BYTE   W12
 BYTE   N12
 BYTE   W12
 BYTE   Fn1
 BYTE   W12
 BYTE   Cn1
 BYTE   W12
 BYTE   Fn0
 BYTE   W12
 BYTE   PEND 
// 029   ----------------------------------------
Label_2_014DE89E:
 BYTE   N24  Gs0  v127
 BYTE   W24
 BYTE   N12
 BYTE   W12
 BYTE   N24  As0
 BYTE   W24
 BYTE   N12  As1
 BYTE   W12
 BYTE   As0
 BYTE   W12
 BYTE   N24  Cn1
 BYTE   W12
 BYTE   PEND 
// 030   ----------------------------------------
 BYTE   PATT
  POIN2 Label_2_014DE78F
// 031   ----------------------------------------
Label_2_014DE8B5:
 BYTE   N12  Cn1  v127
 BYTE   W12
 BYTE   As0
 BYTE   W12
 BYTE   Cn1
 BYTE   W12
 BYTE   BEND   c_v-16
 BYTE   N24  Ds1
 BYTE   W03
 BYTE   BEND   c_v-12
 BYTE   W03
 BYTE   BEND   c_v-9
 BYTE   W03
 BYTE   BEND   c_v-5
 BYTE   W03
 BYTE   BEND   c_v+0
 BYTE   W12
 BYTE   N12  Dn1
 BYTE   W12
 BYTE   N24  As0
 BYTE   W24
 BYTE   PEND 
// 032   ----------------------------------------
 BYTE   PATT
  POIN2 Label_2_014DE889
// 033   ----------------------------------------
Label_2_014DE8D7:
 BYTE   N24  Gs0  v127
 BYTE   W24
 BYTE   N12
 BYTE   W12
 BYTE   N24  As0
 BYTE   W24
 BYTE   N12  As1
 BYTE   W12
 BYTE   As0
 BYTE   W12
 BYTE   N24  Gn0
 BYTE   W12
 BYTE   PEND 
// 034   ----------------------------------------
Label_2_014DE8E9:
 BYTE   W12
 BYTE   N12  Gn0  v127
 BYTE   W12
 BYTE   N12
 BYTE   W12
 BYTE   N12
 BYTE   W12
 BYTE   N12
 BYTE   W12
 BYTE   Gn1
 BYTE   W12
 BYTE   Dn1
 BYTE   W12
 BYTE   Gn0
 BYTE   W12
 BYTE   PEND 
// 035   ----------------------------------------
Label_2_014DE8FB:
 BYTE   N12  As0  v127
 BYTE   W12
 BYTE   Gn0
 BYTE   W12
 BYTE   As0
 BYTE   W12
 BYTE   Dn1
 BYTE   W12
 BYTE   Ds1
 BYTE   W12
 BYTE   Dn1
 BYTE   W24
 BYTE   N24  Cn1
 BYTE   W12
 BYTE   PEND 
// 036   ----------------------------------------
 BYTE   PATT
  POIN2 Label_2_014DE78F
// 037   ----------------------------------------
Label_2_014DE912:
 BYTE   N12  Cn1  v127
 BYTE   W12
 BYTE   As0
 BYTE   W12
 BYTE   Cn1
 BYTE   W12
 BYTE   BEND   c_v-16
 BYTE   N24  Ds1
 BYTE   W03
 BYTE   BEND   c_v-12
 BYTE   W03
 BYTE   BEND   c_v-9
 BYTE   W03
 BYTE   BEND   c_v-5
 BYTE   W03
 BYTE   BEND   c_v+0
 BYTE   W12
 BYTE   N12  Dn1
 BYTE   W12
 BYTE   As0
 BYTE   W12
 BYTE   N24  Gs0
 BYTE   W12
 BYTE   PEND 
// 038   ----------------------------------------
 BYTE   PATT
  POIN2 Label_2_014DE743
// 039   ----------------------------------------
Label_2_014DE936:
 BYTE   N12  Gs0  v127
 BYTE   W12
 BYTE   Fn0
 BYTE   W12
 BYTE   Gn0
 BYTE   W12
 BYTE   BEND   c_v-16
 BYTE   N24  Gs0
 BYTE   W03
 BYTE   BEND   c_v-12
 BYTE   W03
 BYTE   BEND   c_v-9
 BYTE   W03
 BYTE   BEND   c_v-5
 BYTE   W03
 BYTE   BEND   c_v+0
 BYTE   W12
 BYTE   N12  Gn0
 BYTE   W12
 BYTE   Gs0
 BYTE   W12
 BYTE   N24  As0
 BYTE   W12
 BYTE   PEND 
// 040   ----------------------------------------
 BYTE   PATT
  POIN2 Label_2_014DE7F3
// 041   ----------------------------------------
Label_2_014DE95A:
 BYTE   N12  As0  v127
 BYTE   W12
 BYTE   N12
 BYTE   W12
 BYTE   N12
 BYTE   W12
 BYTE   N12
 BYTE   W12
 BYTE   N12
 BYTE   W12
 BYTE   Cn1
 BYTE   W12
 BYTE   Dn1
 BYTE   W12
 BYTE   N24  Cn1
 BYTE   W12
 BYTE   PEND 
// 042   ----------------------------------------
 BYTE   PATT
  POIN2 Label_2_014DE78F
// 043   ----------------------------------------
Label_2_014DE973:
 BYTE   N12  Cn1  v127
 BYTE   W12
 BYTE   Gn1
 BYTE   W12
 BYTE   Fn1
 BYTE   W12
 BYTE   Ds1
 BYTE   W12
 BYTE   Dn1
 BYTE   W12
 BYTE   As0
 BYTE   W12
 BYTE   Gn0
 BYTE   W12
 BYTE   N24  Cn1
 BYTE   W12
 BYTE   PEND 
// 044   ----------------------------------------
 BYTE   PATT
  POIN2 Label_2_014DE78F
// 045   ----------------------------------------
 BYTE   PATT
  POIN2 Label_2_014DE912
// 046   ----------------------------------------
 BYTE   PATT
  POIN2 Label_2_014DE743
// 047   ----------------------------------------
 BYTE   PATT
  POIN2 Label_2_014DE936
// 048   ----------------------------------------
 BYTE   PATT
  POIN2 Label_2_014DE7F3
// 049   ----------------------------------------
 BYTE   PATT
  POIN2 Label_2_014DE95A
// 050   ----------------------------------------
 BYTE   PATT
  POIN2 Label_2_014DE78F
// 051   ----------------------------------------
Label_2_014DE9AA:
 BYTE   N12  Cn1  v127
 BYTE   W12
 BYTE   N84  As0
 BYTE   W84
 BYTE   PEND 
// 052   ----------------------------------------
 BYTE   PATT
  POIN2 Label_2_014DE71E
// 053   ----------------------------------------
 BYTE   PATT
  POIN2 Label_2_014DE72F
// 054   ----------------------------------------
 BYTE   PATT
  POIN2 Label_2_014DE743
// 055   ----------------------------------------
 BYTE   PATT
  POIN2 Label_2_014DE755
// 056   ----------------------------------------
 BYTE   PATT
  POIN2 Label_2_014DE769
// 057   ----------------------------------------
 BYTE   PATT
  POIN2 Label_2_014DE77C
// 058   ----------------------------------------
 BYTE   PATT
  POIN2 Label_2_014DE78F
// 059   ----------------------------------------
 BYTE   PATT
  POIN2 Label_2_014DE7A1
// 060   ----------------------------------------
 BYTE   PATT
  POIN2 Label_2_014DE7B3
// 061   ----------------------------------------
 BYTE   PATT
  POIN2 Label_2_014DE7C6
// 062   ----------------------------------------
 BYTE   PATT
  POIN2 Label_2_014DE743
// 063   ----------------------------------------
 BYTE   PATT
  POIN2 Label_2_014DE7DF
// 064   ----------------------------------------
 BYTE   PATT
  POIN2 Label_2_014DE7F3
// 065   ----------------------------------------
 BYTE   PATT
  POIN2 Label_2_014DE805
// 066   ----------------------------------------
 BYTE   PATT
  POIN2 Label_2_014DE819
// 067   ----------------------------------------
 BYTE   PATT
  POIN2 Label_2_014DE82B
// 068   ----------------------------------------
 BYTE   PATT
  POIN2 Label_2_014DE78F
// 069   ----------------------------------------
 BYTE   PATT
  POIN2 Label_2_014DE7C6
// 070   ----------------------------------------
 BYTE   PATT
  POIN2 Label_2_014DE743
// 071   ----------------------------------------
 BYTE   PATT
  POIN2 Label_2_014DE7DF
// 072   ----------------------------------------
 BYTE   PATT
  POIN2 Label_2_014DE853
// 073   ----------------------------------------
 BYTE   PATT
  POIN2 Label_2_014DE865
// 074   ----------------------------------------
 BYTE   PATT
  POIN2 Label_2_014DE78F
// 075   ----------------------------------------
 BYTE   PATT
  POIN2 Label_2_014DE87E
// 076   ----------------------------------------
 BYTE   PATT
  POIN2 Label_2_014DE889
// 077   ----------------------------------------
 BYTE   PATT
  POIN2 Label_2_014DE89E
// 078   ----------------------------------------
 BYTE   PATT
  POIN2 Label_2_014DE78F
// 079   ----------------------------------------
 BYTE   PATT
  POIN2 Label_2_014DE8B5
// 080   ----------------------------------------
 BYTE   PATT
  POIN2 Label_2_014DE889
// 081   ----------------------------------------
 BYTE   PATT
  POIN2 Label_2_014DE8D7
// 082   ----------------------------------------
 BYTE   PATT
  POIN2 Label_2_014DE8E9
// 083   ----------------------------------------
 BYTE   PATT
  POIN2 Label_2_014DE8FB
// 084   ----------------------------------------
 BYTE   PATT
  POIN2 Label_2_014DE78F
// 085   ----------------------------------------
 BYTE   PATT
  POIN2 Label_2_014DE912
// 086   ----------------------------------------
 BYTE   PATT
  POIN2 Label_2_014DE743
// 087   ----------------------------------------
 BYTE   PATT
  POIN2 Label_2_014DE936
// 088   ----------------------------------------
 BYTE   PATT
  POIN2 Label_2_014DE7F3
// 089   ----------------------------------------
 BYTE   PATT
  POIN2 Label_2_014DE95A
// 090   ----------------------------------------
 BYTE   PATT
  POIN2 Label_2_014DE78F
// 091   ----------------------------------------
 BYTE   PATT
  POIN2 Label_2_014DE973
// 092   ----------------------------------------
 BYTE   PATT
  POIN2 Label_2_014DE78F
// 093   ----------------------------------------
 BYTE   PATT
  POIN2 Label_2_014DE912
// 094   ----------------------------------------
 BYTE   PATT
  POIN2 Label_2_014DE743
// 095   ----------------------------------------
 BYTE   PATT
  POIN2 Label_2_014DE936
// 096   ----------------------------------------
 BYTE   PATT
  POIN2 Label_2_014DE7F3
// 097   ----------------------------------------
 BYTE   PATT
  POIN2 Label_2_014DE95A
// 098   ----------------------------------------
 BYTE   PATT
  POIN2 Label_2_014DE78F
// 099   ----------------------------------------
 BYTE   PATT
  POIN2 Label_2_014DE9AA
// 100   ----------------------------------------
 BYTE   PATT
  POIN2 Label_2_014DE71E
// 101   ----------------------------------------
 BYTE   PATT
  POIN2 Label_2_014DE72F
// 102   ----------------------------------------
 BYTE   PATT
  POIN2 Label_2_014DE743
// 103   ----------------------------------------
 BYTE   PATT
  POIN2 Label_2_014DE755
// 104   ----------------------------------------
 BYTE   PATT
  POIN2 Label_2_014DE769
// 105   ----------------------------------------
 BYTE   PATT
  POIN2 Label_2_014DE77C
// 106   ----------------------------------------
 BYTE   PATT
  POIN2 Label_2_014DE78F
// 107   ----------------------------------------
 BYTE   PATT
  POIN2 Label_2_014DE7A1
// 108   ----------------------------------------
 BYTE   PATT
  POIN2 Label_2_014DE7B3
// 109   ----------------------------------------
 BYTE   PATT
  POIN2 Label_2_014DE7C6
// 110   ----------------------------------------
 BYTE   PATT
  POIN2 Label_2_014DE743
// 111   ----------------------------------------
 BYTE   PATT
  POIN2 Label_2_014DE7DF
// 112   ----------------------------------------
 BYTE   PATT
  POIN2 Label_2_014DE7F3
// 113   ----------------------------------------
 BYTE   PATT
  POIN2 Label_2_014DE805
// 114   ----------------------------------------
 BYTE   PATT
  POIN2 Label_2_014DE819
// 115   ----------------------------------------
 BYTE   PATT
  POIN2 Label_2_014DE82B
// 116   ----------------------------------------
 BYTE   PATT
  POIN2 Label_2_014DE78F
// 117   ----------------------------------------
 BYTE   PATT
  POIN2 Label_2_014DE7C6
// 118   ----------------------------------------
 BYTE   PATT
  POIN2 Label_2_014DE743
// 119   ----------------------------------------
 BYTE   PATT
  POIN2 Label_2_014DE7DF
// 120   ----------------------------------------
 BYTE   PATT
  POIN2 Label_2_014DE853
// 121   ----------------------------------------
 BYTE   PATT
  POIN2 Label_2_014DE865
// 122   ----------------------------------------
 BYTE   PATT
  POIN2 Label_2_014DE78F
// 123   ----------------------------------------
 BYTE   PATT
  POIN2 Label_2_014DE87E
// 124   ----------------------------------------
 BYTE   PATT
  POIN2 Label_2_014DE889
// 125   ----------------------------------------
 BYTE   PATT
  POIN2 Label_2_014DE89E
// 126   ----------------------------------------
 BYTE   PATT
  POIN2 Label_2_014DE78F
// 127   ----------------------------------------
 BYTE   PATT
  POIN2 Label_2_014DE8B5
// 128   ----------------------------------------
 BYTE   PATT
  POIN2 Label_2_014DE889
// 129   ----------------------------------------
 BYTE   PATT
  POIN2 Label_2_014DE8D7
// 130   ----------------------------------------
 BYTE   PATT
  POIN2 Label_2_014DE8E9
// 131   ----------------------------------------
 BYTE   PATT
  POIN2 Label_2_014DE8FB
// 132   ----------------------------------------
 BYTE   PATT
  POIN2 Label_2_014DE78F
// 133   ----------------------------------------
 BYTE   PATT
  POIN2 Label_2_014DE912
// 134   ----------------------------------------
 BYTE   PATT
  POIN2 Label_2_014DE743
// 135   ----------------------------------------
 BYTE   PATT
  POIN2 Label_2_014DE936
// 136   ----------------------------------------
 BYTE   PATT
  POIN2 Label_2_014DE7F3
// 137   ----------------------------------------
 BYTE   PATT
  POIN2 Label_2_014DE95A
// 138   ----------------------------------------
 BYTE   PATT
  POIN2 Label_2_014DE78F
// 139   ----------------------------------------
 BYTE   PATT
  POIN2 Label_2_014DE973
// 140   ----------------------------------------
 BYTE   PATT
  POIN2 Label_2_014DE78F
// 141   ----------------------------------------
 BYTE   PATT
  POIN2 Label_2_014DE912
// 142   ----------------------------------------
 BYTE   PATT
  POIN2 Label_2_014DE743
// 143   ----------------------------------------
 BYTE   PATT
  POIN2 Label_2_014DE936
// 144   ----------------------------------------
 BYTE   PATT
  POIN2 Label_2_014DE7F3
// 145   ----------------------------------------
 BYTE   PATT
  POIN2 Label_2_014DE95A
// 146   ----------------------------------------
 BYTE   PATT
  POIN2 Label_2_014DE78F
// 147   ----------------------------------------
 BYTE   GoTo
  POIN2 Label_2_014DE9AA
// 148   ----------------------------------------
 BYTE   PATT
  POIN2 Label_2_014DE9AA
 BYTE   FINE

//**************** Track 4 (Midi-Chn.3) ****************//

CapAm_004:
// 000   ----------------------------------------
 BYTE   KEYSH   CapAm_key+0
 BYTE   VOICE   116
 BYTE   VOL   32*CapAm_mvl/mxv
 BYTE   W96
// 001   ----------------------------------------
 BYTE   W96
// 002   ----------------------------------------
 BYTE   W96
// 003   ----------------------------------------
 BYTE   W96
// 004   ----------------------------------------
 BYTE   N96  Cn3  v127
 BYTE   N96  Cn4
 BYTE   W96
// 005   ----------------------------------------
Label_3_014DCE38:
 BYTE   W84
 BYTE   N96  Cn3  v127
 BYTE   N96  Bn3
 BYTE   W12
 BYTE   PEND 
// 006   ----------------------------------------
 BYTE   W96
// 007   ----------------------------------------
 BYTE   PATT
  POIN2 Label_3_014DCE38
// 008   ----------------------------------------
 BYTE   W96
// 009   ----------------------------------------
Label_3_014DCE47:
 BYTE   N84  Ds3  v127
 BYTE   N84  Ds4
 BYTE   W84
 BYTE   N96  Cn3
 BYTE   N96  Cn4
 BYTE   W12
 BYTE   PEND 
// 010   ----------------------------------------
 BYTE   W96
// 011   ----------------------------------------
 BYTE   W96
// 012   ----------------------------------------
 BYTE   Cn3
 BYTE   N96  Cn4
 BYTE   W96
// 013   ----------------------------------------
Label_3_014DCE59:
 BYTE   W84
 BYTE   N96  Cn3  v127
 BYTE   N96  Cn4
 BYTE   W12
 BYTE   PEND 
// 014   ----------------------------------------
 BYTE   W96
// 015   ----------------------------------------
Label_3_014DCE62:
 BYTE   W84
 BYTE   N96  Dn3  v127
 BYTE   N96  Dn4
 BYTE   W12
 BYTE   PEND 
// 016   ----------------------------------------
 BYTE   W96
// 017   ----------------------------------------
Label_3_014DCE6B:
 BYTE   W84
 BYTE   N84  Dn3  v127
 BYTE   N84  Dn4
 BYTE   W12
 BYTE   PEND 
// 018   ----------------------------------------
 BYTE   W96
// 019   ----------------------------------------
Label_3_014DCE74:
 BYTE   W12
 BYTE   N12  Fn3  v127
 BYTE   N12  Fn4
 BYTE   W36
 BYTE   Ds3
 BYTE   N12  Ds4
 BYTE   W12
 BYTE   Dn3
 BYTE   N12  Dn4
 BYTE   W24
 BYTE   N96  Cn3
 BYTE   N96  Cn4
 BYTE   W12
 BYTE   PEND 
// 020   ----------------------------------------
 BYTE   W96
// 021   ----------------------------------------
 BYTE   PATT
  POIN2 Label_3_014DCE59
// 022   ----------------------------------------
 BYTE   W96
// 023   ----------------------------------------
Label_3_014DCE90:
 BYTE   W84
 BYTE   N96  As2  v127
 BYTE   N96  As3
 BYTE   W12
 BYTE   PEND 
// 024   ----------------------------------------
 BYTE   W96
// 025   ----------------------------------------
 BYTE   PATT
  POIN2 Label_3_014DCE59
// 026   ----------------------------------------
 BYTE   W96
// 027   ----------------------------------------
Label_3_014DCE9F:
 BYTE   W12
 BYTE   N24  Ds3  v127
 BYTE   N24  Ds4
 BYTE   W36
 BYTE   Fn3
 BYTE   N24  Fn4
 BYTE   W48
 BYTE   PEND 
// 028   ----------------------------------------
 BYTE   N96  Cn3
 BYTE   N96  Cn4
 BYTE   W96
// 029   ----------------------------------------
Label_3_014DCEB0:
 BYTE   W84
 BYTE   N96  Ds3  v127
 BYTE   N96  Ds4
 BYTE   W12
 BYTE   PEND 
// 030   ----------------------------------------
 BYTE   W96
// 031   ----------------------------------------
 BYTE   W96
// 032   ----------------------------------------
 BYTE   W96
// 033   ----------------------------------------
 BYTE   W96
// 034   ----------------------------------------
 BYTE   W96
// 035   ----------------------------------------
 BYTE   W96
// 036   ----------------------------------------
 BYTE   W96
// 037   ----------------------------------------
 BYTE   W96
// 038   ----------------------------------------
 BYTE   W96
// 039   ----------------------------------------
 BYTE   W96
// 040   ----------------------------------------
 BYTE   W96
// 041   ----------------------------------------
 BYTE   W96
// 042   ----------------------------------------
 BYTE   W96
// 043   ----------------------------------------
 BYTE   W96
// 044   ----------------------------------------
 BYTE   W96
// 045   ----------------------------------------
 BYTE   W96
// 046   ----------------------------------------
 BYTE   W96
// 047   ----------------------------------------
 BYTE   W96
// 048   ----------------------------------------
 BYTE   W96
// 049   ----------------------------------------
 BYTE   W96
// 050   ----------------------------------------
 BYTE   W96
// 051   ----------------------------------------
Label_3_014DCECD:
 BYTE   W96
// 052   ----------------------------------------
 BYTE   N96  Cn3  v127
 BYTE   N96  Cn4
 BYTE   W96
// 053   ----------------------------------------
 BYTE   PATT
  POIN2 Label_3_014DCE38
// 054   ----------------------------------------
 BYTE   W96
// 055   ----------------------------------------
 BYTE   PATT
  POIN2 Label_3_014DCE38
// 056   ----------------------------------------
 BYTE   W96
// 057   ----------------------------------------
 BYTE   PATT
  POIN2 Label_3_014DCE47
// 058   ----------------------------------------
 BYTE   W96
// 059   ----------------------------------------
 BYTE   W96
// 060   ----------------------------------------
 BYTE   N96  Cn3  v127
 BYTE   N96  Cn4
 BYTE   W96
// 061   ----------------------------------------
 BYTE   PATT
  POIN2 Label_3_014DCE59
// 062   ----------------------------------------
 BYTE   W96
// 063   ----------------------------------------
 BYTE   PATT
  POIN2 Label_3_014DCE62
// 064   ----------------------------------------
 BYTE   W96
// 065   ----------------------------------------
 BYTE   PATT
  POIN2 Label_3_014DCE6B
// 066   ----------------------------------------
 BYTE   W96
// 067   ----------------------------------------
 BYTE   PATT
  POIN2 Label_3_014DCE74
// 068   ----------------------------------------
 BYTE   W96
// 069   ----------------------------------------
 BYTE   PATT
  POIN2 Label_3_014DCE59
// 070   ----------------------------------------
 BYTE   W96
// 071   ----------------------------------------
 BYTE   PATT
  POIN2 Label_3_014DCE90
// 072   ----------------------------------------
 BYTE   W96
// 073   ----------------------------------------
 BYTE   PATT
  POIN2 Label_3_014DCE59
// 074   ----------------------------------------
 BYTE   W96
// 075   ----------------------------------------
 BYTE   PATT
  POIN2 Label_3_014DCE9F
// 076   ----------------------------------------
 BYTE   N96  Cn3  v127
 BYTE   N96  Cn4
 BYTE   W96
// 077   ----------------------------------------
 BYTE   PATT
  POIN2 Label_3_014DCEB0
// 078   ----------------------------------------
 BYTE   W96
// 079   ----------------------------------------
 BYTE   W96
// 080   ----------------------------------------
 BYTE   W96
// 081   ----------------------------------------
 BYTE   W96
// 082   ----------------------------------------
 BYTE   W96
// 083   ----------------------------------------
 BYTE   W96
// 084   ----------------------------------------
 BYTE   W96
// 085   ----------------------------------------
 BYTE   W96
// 086   ----------------------------------------
 BYTE   W96
// 087   ----------------------------------------
 BYTE   W96
// 088   ----------------------------------------
 BYTE   W96
// 089   ----------------------------------------
 BYTE   W96
// 090   ----------------------------------------
 BYTE   W96
// 091   ----------------------------------------
 BYTE   W96
// 092   ----------------------------------------
 BYTE   W96
// 093   ----------------------------------------
 BYTE   W96
// 094   ----------------------------------------
 BYTE   W96
// 095   ----------------------------------------
 BYTE   W96
// 096   ----------------------------------------
 BYTE   W96
// 097   ----------------------------------------
 BYTE   W96
// 098   ----------------------------------------
 BYTE   W96
// 099   ----------------------------------------
 BYTE   W96
// 100   ----------------------------------------
 BYTE   N96  Cn3  v127
 BYTE   N96  Cn4
 BYTE   W96
// 101   ----------------------------------------
 BYTE   PATT
  POIN2 Label_3_014DCE38
// 102   ----------------------------------------
 BYTE   W96
// 103   ----------------------------------------
 BYTE   PATT
  POIN2 Label_3_014DCE38
// 104   ----------------------------------------
 BYTE   W96
// 105   ----------------------------------------
 BYTE   PATT
  POIN2 Label_3_014DCE47
// 106   ----------------------------------------
 BYTE   W96
// 107   ----------------------------------------
 BYTE   W96
// 108   ----------------------------------------
 BYTE   N96  Cn3  v127
 BYTE   N96  Cn4
 BYTE   W96
// 109   ----------------------------------------
 BYTE   PATT
  POIN2 Label_3_014DCE59
// 110   ----------------------------------------
 BYTE   W96
// 111   ----------------------------------------
 BYTE   PATT
  POIN2 Label_3_014DCE62
// 112   ----------------------------------------
 BYTE   W96
// 113   ----------------------------------------
 BYTE   PATT
  POIN2 Label_3_014DCE6B
// 114   ----------------------------------------
 BYTE   W96
// 115   ----------------------------------------
 BYTE   PATT
  POIN2 Label_3_014DCE74
// 116   ----------------------------------------
 BYTE   W96
// 117   ----------------------------------------
 BYTE   PATT
  POIN2 Label_3_014DCE59
// 118   ----------------------------------------
 BYTE   W96
// 119   ----------------------------------------
 BYTE   PATT
  POIN2 Label_3_014DCE90
// 120   ----------------------------------------
 BYTE   W96
// 121   ----------------------------------------
 BYTE   PATT
  POIN2 Label_3_014DCE59
// 122   ----------------------------------------
 BYTE   W96
// 123   ----------------------------------------
 BYTE   PATT
  POIN2 Label_3_014DCE9F
// 124   ----------------------------------------
 BYTE   N96  Cn3  v127
 BYTE   N96  Cn4
 BYTE   W96
// 125   ----------------------------------------
 BYTE   PATT
  POIN2 Label_3_014DCEB0
// 126   ----------------------------------------
 BYTE   W96
// 127   ----------------------------------------
 BYTE   W96
// 128   ----------------------------------------
 BYTE   W96
// 129   ----------------------------------------
 BYTE   W96
// 130   ----------------------------------------
 BYTE   W96
// 131   ----------------------------------------
 BYTE   W96
// 132   ----------------------------------------
 BYTE   W96
// 133   ----------------------------------------
 BYTE   W96
// 134   ----------------------------------------
 BYTE   W96
// 135   ----------------------------------------
 BYTE   W96
// 136   ----------------------------------------
 BYTE   W96
// 137   ----------------------------------------
 BYTE   W96
// 138   ----------------------------------------
 BYTE   W96
// 139   ----------------------------------------
 BYTE   W96
// 140   ----------------------------------------
 BYTE   W96
// 141   ----------------------------------------
 BYTE   W96
// 142   ----------------------------------------
 BYTE   W96
// 143   ----------------------------------------
 BYTE   W96
// 144   ----------------------------------------
 BYTE   W96
// 145   ----------------------------------------
 BYTE   W96
// 146   ----------------------------------------
 BYTE   W96
// 147   ----------------------------------------
 BYTE   GoTo
  POIN2 Label_3_014DCECD
// 148   ----------------------------------------
 BYTE   W96
 BYTE   FINE

//**************** Track 5 (Midi-Chn.4) ****************//

CapAm_005:
// 000   ----------------------------------------
 BYTE   KEYSH   CapAm_key+0
 BYTE   VOICE   62
 BYTE   VOL   40*CapAm_mvl/mxv
 BYTE   N12  Ds3  v112
 BYTE   N12  Gn3
 BYTE   W12
 BYTE   Ds3
 BYTE   N12  Gn3
 BYTE   W24
 BYTE   Dn3
 BYTE   N12  Fn3
 BYTE   W12
 BYTE   Dn3
 BYTE   N12  Fn3
 BYTE   W24
 BYTE   Ds3
 BYTE   N12  Gn3
 BYTE   W12
 BYTE   Ds3
 BYTE   N12  Gn3
 BYTE   W12
// 001   ----------------------------------------
 BYTE   W12
 BYTE   Dn3
 BYTE   N12  Fn3
 BYTE   W12
 BYTE   Dn3
 BYTE   N12  Fn3
 BYTE   W24
 BYTE   N24  Ds3
 BYTE   N24  Gn3
 BYTE   W24
 BYTE   Dn3
 BYTE   N24  Fn3
 BYTE   W24
// 002   ----------------------------------------
 BYTE   N12  Dn3
 BYTE   N12  Fn3
 BYTE   W12
 BYTE   Cn3
 BYTE   N12  Ds3
 BYTE   W24
 BYTE   N60  Cn3
 BYTE   N60  Ds3
 BYTE   W60
// 003   ----------------------------------------
 BYTE   N96  Dn3
 BYTE   N96  Fn3
 BYTE   W96
// 004   ----------------------------------------
Label_4_014DEBDD:
 BYTE   TIE  Ds3  v112
 BYTE   TIE  Gn3
 BYTE   W96
 BYTE   PEND 
// 005   ----------------------------------------
 BYTE   W36
 BYTE   EOT
 BYTE   Ds3  v067
 BYTE   W12
 BYTE   N12  Ds3
 BYTE   N12  Gn3
 BYTE   W12
 BYTE   Ds3
 BYTE   N12  Gn3
 BYTE   W24
 BYTE   TIE  Ds3
 BYTE   TIE  Gn3
 BYTE   W12
// 006   ----------------------------------------
 BYTE   W96
// 007   ----------------------------------------
 BYTE   W36
 BYTE   EOT
 BYTE   Ds3  v067
 BYTE   W12
 BYTE   N12  Ds3
 BYTE   N12  Gn3
 BYTE   W12
 BYTE   Ds3
 BYTE   N12  Gn3
 BYTE   W24
 BYTE   TIE  Dn3
 BYTE   TIE  Fn3
 BYTE   W12
// 008   ----------------------------------------
 BYTE   W96
// 009   ----------------------------------------
 BYTE   EOT
 BYTE   Dn3  v065
Label_4_014DEC0F:
 BYTE   N48  Cn3  v112
 BYTE   N48  Ds3
 BYTE   W48
 BYTE   N36  As2
 BYTE   N36  Dn3
 BYTE   W36
 BYTE   TIE  Cn3
 BYTE   TIE  Ds3
 BYTE   W12
 BYTE   PEND 
// 010   ----------------------------------------
 BYTE   W96
// 011   ----------------------------------------
 BYTE   W12
 BYTE   EOT
 BYTE   Cn3  v063
 BYTE   N36
 BYTE   N36  Gn3
 BYTE   W36
 BYTE   N24  Dn3
 BYTE   N24  Fn3
 BYTE   W24
 BYTE   As2
 BYTE   N24  Dn3
 BYTE   W24
// 012   ----------------------------------------
 BYTE   W96
// 013   ----------------------------------------
 BYTE   W96
// 014   ----------------------------------------
 BYTE   W96
// 015   ----------------------------------------
 BYTE   W96
// 016   ----------------------------------------
 BYTE   W96
// 017   ----------------------------------------
 BYTE   W96
// 018   ----------------------------------------
 BYTE   W96
// 019   ----------------------------------------
 BYTE   W96
// 020   ----------------------------------------
 BYTE   W96
// 021   ----------------------------------------
 BYTE   W96
// 022   ----------------------------------------
 BYTE   W96
// 023   ----------------------------------------
 BYTE   W96
// 024   ----------------------------------------
 BYTE   W96
// 025   ----------------------------------------
 BYTE   W96
// 026   ----------------------------------------
 BYTE   W96
// 027   ----------------------------------------
 BYTE   W96
// 028   ----------------------------------------
Label_4_014DEC42:
 BYTE   N96  Fn2  v096
 BYTE   N96  Cn3
 BYTE   N96  Ds3
 BYTE   W96
 BYTE   PEND 
// 029   ----------------------------------------
Label_4_014DEC4B:
 BYTE   N24  Gs2  v096
 BYTE   N24  Cn3
 BYTE   N24  Ds3
 BYTE   W24
 BYTE   N06  Gs2
 BYTE   N06  Cn3
 BYTE   N06  Ds3
 BYTE   W12
 BYTE   N36  As2
 BYTE   N36  Dn3
 BYTE   W36
 BYTE   N06  As2
 BYTE   N06  Dn3
 BYTE   W12
 BYTE   TIE  Gn2
 BYTE   TIE  Cn3
 BYTE   TIE  Gn3
 BYTE   W12
 BYTE   PEND 
// 030   ----------------------------------------
 BYTE   W96
// 031   ----------------------------------------
 BYTE   W96
// 032   ----------------------------------------
 BYTE   EOT
 BYTE   Gn2  v060
 BYTE   Gn3
// 033   ----------------------------------------
 BYTE   PATT
  POIN2 Label_4_014DEC42
// 034   ----------------------------------------
Label_4_014DEC77:
 BYTE   N24  Gs2  v096
 BYTE   N24  Cn3
 BYTE   N24  Ds3
 BYTE   W24
 BYTE   N06  Gs2
 BYTE   N06  Cn3
 BYTE   N06  Ds3
 BYTE   W12
 BYTE   N36  As2
 BYTE   N36  Dn3
 BYTE   N36  Fn3
 BYTE   W36
 BYTE   N06  As2
 BYTE   N06  Fn3
 BYTE   N06  Gs3
 BYTE   W12
 BYTE   TIE  Gn2
 BYTE   TIE  Dn3
 BYTE   TIE  Gn3
 BYTE   W12
 BYTE   PEND 
// 035   ----------------------------------------
 BYTE   W96
// 036   ----------------------------------------
 BYTE   W12
 BYTE   EOT
 BYTE   N12
 BYTE   N12  As3
 BYTE   W12
 BYTE   Gn3
 BYTE   N12  As3
 BYTE   W24
 BYTE   Gn3
 BYTE   N12  As3
 BYTE   W12
 BYTE   Gn3
 BYTE   N12  As3
 BYTE   W24
 BYTE   EOT
 BYTE   Gn2  v062
 BYTE   TIE  Gn2
 BYTE   TIE  Cn3
 BYTE   TIE  Gn3
 BYTE   W12
// 037   ----------------------------------------
 BYTE   W96
// 038   ----------------------------------------
 BYTE   W48
 BYTE   EOT
 BYTE   Gn2  v060
 BYTE   Gn3
 BYTE   N12  Gn2
 BYTE   N12  Cn3
 BYTE   N12  Gn3
 BYTE   W12
 BYTE   Gn2
 BYTE   N12  Cn3
 BYTE   N12  Gn3
 BYTE   W24
 BYTE   TIE  Gn2
 BYTE   TIE  Cn3
 BYTE   TIE  Gn3
 BYTE   W12
// 039   ----------------------------------------
 BYTE   W96
// 040   ----------------------------------------
 BYTE   W48
 BYTE   EOT
 BYTE   Gn2  v060
 BYTE   Gn3
 BYTE   N12  Gn2
 BYTE   N12  Cn3
 BYTE   N12  Gn3
 BYTE   W12
 BYTE   Gn2
 BYTE   N12  Cn3
 BYTE   N12  Gn3
 BYTE   W24
 BYTE   TIE  Fn2
 BYTE   TIE  As2
 BYTE   TIE  Fn3
 BYTE   W12
// 041   ----------------------------------------
 BYTE   W96
// 042   ----------------------------------------
 BYTE   EOT
 BYTE   Fn2  v058
 BYTE   Fn3
Label_4_014DECF2:
 BYTE   N48  Ds2  v096
 BYTE   N48  Cn3
 BYTE   N48  Ds3
 BYTE   W48
 BYTE   N36  Dn2
 BYTE   N36  As2
 BYTE   N36  Dn3
 BYTE   W36
 BYTE   TIE  Gn2
 BYTE   TIE  Cn3
 BYTE   TIE  Ds3
 BYTE   W12
 BYTE   PEND 
// 043   ----------------------------------------
 BYTE   W96
// 044   ----------------------------------------
 BYTE   W12
 BYTE   EOT
 BYTE   Gn2  v060
 BYTE   Ds3
 BYTE   N36  Gn2
 BYTE   N36  Ds3
 BYTE   N36  Gn3
 BYTE   W36
 BYTE   N12  Fn2
 BYTE   N12  Dn3
 BYTE   N12  Fn3
 BYTE   W12
 BYTE   Dn2
 BYTE   N12  As2
 BYTE   N12  Dn3
 BYTE   W24
 BYTE   TIE  Gn2
 BYTE   TIE  Cn3
 BYTE   TIE  Gn3
 BYTE   W12
// 045   ----------------------------------------
 BYTE   W96
// 046   ----------------------------------------
 BYTE   W48
 BYTE   EOT
 BYTE   Gn2  v060
 BYTE   Gn3
 BYTE   N12  Gn2
 BYTE   N12  Cn3
 BYTE   N12  Gn3
 BYTE   W12
 BYTE   Gn2
 BYTE   N12  Cn3
 BYTE   N12  Gn3
 BYTE   W24
 BYTE   TIE  Gn2
 BYTE   TIE  Cn3
 BYTE   TIE  Gn3
 BYTE   W12
// 047   ----------------------------------------
 BYTE   W96
// 048   ----------------------------------------
 BYTE   W48
 BYTE   EOT
 BYTE   Gn2  v060
 BYTE   Gn3
 BYTE   N12  Gn2
 BYTE   N12  Cn3
 BYTE   N12  Gn3
 BYTE   W12
 BYTE   Gn2
 BYTE   N12  Cn3
 BYTE   N12  Gn3
 BYTE   W24
 BYTE   TIE  Fn2
 BYTE   TIE  As2
 BYTE   TIE  Fn3
 BYTE   W12
// 049   ----------------------------------------
 BYTE   W96
// 050   ----------------------------------------
 BYTE   EOT
 BYTE   Fn2  v058
 BYTE   Fn3
Label_4_014DED63:
 BYTE   N48  Ds2  v096
 BYTE   N48  Cn3
 BYTE   N48  Ds3
 BYTE   W48
 BYTE   N36  Dn2
 BYTE   N36  As2
 BYTE   N36  Dn3
 BYTE   W36
 BYTE   TIE  Cn2
 BYTE   TIE  Gn2
 BYTE   TIE  Cn3
 BYTE   TIE  Ds3
 BYTE   W12
 BYTE   PEND 
// 051   ----------------------------------------
 BYTE   W96
// 052   ----------------------------------------
Label_4_014DED7D:
 BYTE   W12
 BYTE   EOT
 BYTE   Cn2  v055
 BYTE   Cn3  v063
 BYTE   N36  Gn2  v096
 BYTE   N36  Ds3
 BYTE   N36  Gn3
 BYTE   W36
 BYTE   N12  Fn2
 BYTE   N12  Dn3
 BYTE   N12  Fn3
 BYTE   W12
 BYTE   Gn2
 BYTE   N12  Ds3
 BYTE   N12  Gn3
 BYTE   W36
// 053   ----------------------------------------
 BYTE   PATT
  POIN2 Label_4_014DEBDD
// 054   ----------------------------------------
 BYTE   W36
 BYTE   EOT
 BYTE   Ds3  v067
 BYTE   W12
 BYTE   N12  Ds3  v112
 BYTE   N12  Gn3
 BYTE   W12
 BYTE   Ds3
 BYTE   N12  Gn3
 BYTE   W24
 BYTE   TIE  Ds3
 BYTE   TIE  Gn3
 BYTE   W12
// 055   ----------------------------------------
 BYTE   W96
// 056   ----------------------------------------
 BYTE   W36
 BYTE   EOT
 BYTE   Ds3  v067
 BYTE   W12
 BYTE   N12  Ds3
 BYTE   N12  Gn3
 BYTE   W12
 BYTE   Ds3
 BYTE   N12  Gn3
 BYTE   W24
 BYTE   TIE  Dn3
 BYTE   TIE  Fn3
 BYTE   W12
// 057   ----------------------------------------
 BYTE   W96
// 058   ----------------------------------------
 BYTE   EOT
 BYTE   Dn3  v065
// 059   ----------------------------------------
 BYTE   PATT
  POIN2 Label_4_014DEC0F
// 060   ----------------------------------------
 BYTE   W96
// 061   ----------------------------------------
 BYTE   W12
 BYTE   EOT
 BYTE   Cn3  v063
 BYTE   N36  Ds3  v112
 BYTE   N36  Gn3
 BYTE   W36
 BYTE   N24  Dn3
 BYTE   N24  Fn3
 BYTE   W24
 BYTE   As2
 BYTE   N24  Dn3
 BYTE   W24
// 062   ----------------------------------------
 BYTE   W96
// 063   ----------------------------------------
 BYTE   W96
// 064   ----------------------------------------
 BYTE   W96
// 065   ----------------------------------------
 BYTE   W96
// 066   ----------------------------------------
 BYTE   W96
// 067   ----------------------------------------
 BYTE   W96
// 068   ----------------------------------------
 BYTE   W96
// 069   ----------------------------------------
 BYTE   W96
// 070   ----------------------------------------
 BYTE   W96
// 071   ----------------------------------------
 BYTE   W96
// 072   ----------------------------------------
 BYTE   W96
// 073   ----------------------------------------
 BYTE   W96
// 074   ----------------------------------------
 BYTE   W96
// 075   ----------------------------------------
 BYTE   W96
// 076   ----------------------------------------
 BYTE   W96
// 077   ----------------------------------------
 BYTE   W96
// 078   ----------------------------------------
 BYTE   PATT
  POIN2 Label_4_014DEC42
// 079   ----------------------------------------
 BYTE   PATT
  POIN2 Label_4_014DEC4B
// 080   ----------------------------------------
 BYTE   W96
// 081   ----------------------------------------
 BYTE   W96
// 082   ----------------------------------------
 BYTE   EOT
 BYTE   Gn2  v060
 BYTE   Gn3
// 083   ----------------------------------------
 BYTE   PATT
  POIN2 Label_4_014DEC42
// 084   ----------------------------------------
 BYTE   PATT
  POIN2 Label_4_014DEC77
// 085   ----------------------------------------
 BYTE   W96
// 086   ----------------------------------------
 BYTE   W12
 BYTE   EOT
 BYTE   Gn3
 BYTE   N12  Gn3  v096
 BYTE   N12  As3
 BYTE   W12
 BYTE   Gn3
 BYTE   N12  As3
 BYTE   W24
 BYTE   Gn3
 BYTE   N12  As3
 BYTE   W12
 BYTE   Gn3
 BYTE   N12  As3
 BYTE   W24
 BYTE   EOT
 BYTE   Gn2  v062
 BYTE   TIE  Gn2
 BYTE   TIE  Cn3
 BYTE   TIE  Gn3
 BYTE   W12
// 087   ----------------------------------------
 BYTE   W96
// 088   ----------------------------------------
 BYTE   W48
 BYTE   EOT
 BYTE   Gn2  v060
 BYTE   Gn3
 BYTE   N12  Gn2
 BYTE   N12  Cn3
 BYTE   N12  Gn3
 BYTE   W12
 BYTE   Gn2
 BYTE   N12  Cn3
 BYTE   N12  Gn3
 BYTE   W24
 BYTE   TIE  Gn2
 BYTE   TIE  Cn3
 BYTE   TIE  Gn3
 BYTE   W12
// 089   ----------------------------------------
 BYTE   W96
// 090   ----------------------------------------
 BYTE   W48
 BYTE   EOT
 BYTE   Gn2  v060
 BYTE   Gn3
 BYTE   N12  Gn2
 BYTE   N12  Cn3
 BYTE   N12  Gn3
 BYTE   W12
 BYTE   Gn2
 BYTE   N12  Cn3
 BYTE   N12  Gn3
 BYTE   W24
 BYTE   TIE  Fn2
 BYTE   TIE  As2
 BYTE   TIE  Fn3
 BYTE   W12
// 091   ----------------------------------------
 BYTE   W96
// 092   ----------------------------------------
 BYTE   EOT
 BYTE   Fn2  v058
 BYTE   Fn3
// 093   ----------------------------------------
 BYTE   PATT
  POIN2 Label_4_014DECF2
// 094   ----------------------------------------
 BYTE   W96
// 095   ----------------------------------------
 BYTE   W12
 BYTE   EOT
 BYTE   Gn2  v060
 BYTE   Ds3
 BYTE   N36  Gn2  v096
 BYTE   N36  Ds3
 BYTE   N36  Gn3
 BYTE   W36
 BYTE   N12  Fn2
 BYTE   N12  Dn3
 BYTE   N12  Fn3
 BYTE   W12
 BYTE   Dn2
 BYTE   N12  As2
 BYTE   N12  Dn3
 BYTE   W24
 BYTE   TIE  Gn2
 BYTE   TIE  Cn3
 BYTE   TIE  Gn3
 BYTE   W12
// 096   ----------------------------------------
 BYTE   W96
// 097   ----------------------------------------
 BYTE   W48
 BYTE   EOT
 BYTE   Gn2  v060
 BYTE   Gn3
 BYTE   N12  Gn2
 BYTE   N12  Cn3
 BYTE   N12  Gn3
 BYTE   W12
 BYTE   Gn2
 BYTE   N12  Cn3
 BYTE   N12  Gn3
 BYTE   W24
 BYTE   TIE  Gn2
 BYTE   TIE  Cn3
 BYTE   TIE  Gn3
 BYTE   W12
// 098   ----------------------------------------
 BYTE   W96
// 099   ----------------------------------------
 BYTE   W48
 BYTE   EOT
 BYTE   Gn2  v060
 BYTE   Gn3
 BYTE   N12  Gn2
 BYTE   N12  Cn3
 BYTE   N12  Gn3
 BYTE   W12
 BYTE   Gn2
 BYTE   N12  Cn3
 BYTE   N12  Gn3
 BYTE   W24
 BYTE   TIE  Fn2
 BYTE   TIE  As2
 BYTE   TIE  Fn3
 BYTE   W12
// 100   ----------------------------------------
 BYTE   W96
// 101   ----------------------------------------
 BYTE   EOT
 BYTE   Fn2  v058
 BYTE   Fn3
// 102   ----------------------------------------
 BYTE   PATT
  POIN2 Label_4_014DED63
// 103   ----------------------------------------
 BYTE   W96
// 104   ----------------------------------------
 BYTE   W12
 BYTE   EOT
 BYTE   Cn2  v055
 BYTE   Cn3  v063
 BYTE   N36  Gn2  v096
 BYTE   N36  Ds3
 BYTE   N36  Gn3
 BYTE   W36
 BYTE   N12  Fn2
 BYTE   N12  Dn3
 BYTE   N12  Fn3
 BYTE   W12
 BYTE   Gn2
 BYTE   N12  Ds3
 BYTE   N12  Gn3
 BYTE   W36
// 105   ----------------------------------------
 BYTE   PATT
  POIN2 Label_4_014DEBDD
// 106   ----------------------------------------
 BYTE   W36
 BYTE   EOT
 BYTE   Ds3  v067
 BYTE   W12
 BYTE   N12  Ds3  v112
 BYTE   N12  Gn3
 BYTE   W12
 BYTE   Ds3
 BYTE   N12  Gn3
 BYTE   W24
 BYTE   TIE  Ds3
 BYTE   TIE  Gn3
 BYTE   W12
// 107   ----------------------------------------
 BYTE   W96
// 108   ----------------------------------------
 BYTE   W36
 BYTE   EOT
 BYTE   Ds3  v067
 BYTE   W12
 BYTE   N12  Ds3
 BYTE   N12  Gn3
 BYTE   W12
 BYTE   Ds3
 BYTE   N12  Gn3
 BYTE   W24
 BYTE   TIE  Dn3
 BYTE   TIE  Fn3
 BYTE   W12
// 109   ----------------------------------------
 BYTE   W96
// 110   ----------------------------------------
 BYTE   EOT
 BYTE   Dn3  v065
// 111   ----------------------------------------
 BYTE   PATT
  POIN2 Label_4_014DEC0F
// 112   ----------------------------------------
 BYTE   W96
// 113   ----------------------------------------
 BYTE   W12
 BYTE   EOT
 BYTE   Cn3  v063
 BYTE   N36  Ds3  v112
 BYTE   N36  Gn3
 BYTE   W36
 BYTE   N24  Dn3
 BYTE   N24  Fn3
 BYTE   W24
 BYTE   As2
 BYTE   N24  Dn3
 BYTE   W24
// 114   ----------------------------------------
 BYTE   W96
// 115   ----------------------------------------
 BYTE   W96
// 116   ----------------------------------------
 BYTE   W96
// 117   ----------------------------------------
 BYTE   W96
// 118   ----------------------------------------
 BYTE   W96
// 119   ----------------------------------------
 BYTE   W96
// 120   ----------------------------------------
 BYTE   W96
// 121   ----------------------------------------
 BYTE   W96
// 122   ----------------------------------------
 BYTE   W96
// 123   ----------------------------------------
 BYTE   W96
// 124   ----------------------------------------
 BYTE   W96
// 125   ----------------------------------------
 BYTE   W96
// 126   ----------------------------------------
 BYTE   W96
// 127   ----------------------------------------
 BYTE   W96
// 128   ----------------------------------------
 BYTE   W96
// 129   ----------------------------------------
 BYTE   W96
// 130   ----------------------------------------
 BYTE   PATT
  POIN2 Label_4_014DEC42
// 131   ----------------------------------------
 BYTE   PATT
  POIN2 Label_4_014DEC4B
// 132   ----------------------------------------
 BYTE   W96
// 133   ----------------------------------------
 BYTE   W96
// 134   ----------------------------------------
 BYTE   EOT
 BYTE   Gn2  v060
 BYTE   Gn3
// 135   ----------------------------------------
 BYTE   PATT
  POIN2 Label_4_014DEC42
// 136   ----------------------------------------
 BYTE   PATT
  POIN2 Label_4_014DEC77
// 137   ----------------------------------------
 BYTE   W96
// 138   ----------------------------------------
 BYTE   W12
 BYTE   EOT
 BYTE   Gn3
 BYTE   N12  Gn3  v096
 BYTE   N12  As3
 BYTE   W12
 BYTE   Gn3
 BYTE   N12  As3
 BYTE   W24
 BYTE   Gn3
 BYTE   N12  As3
 BYTE   W12
 BYTE   Gn3
 BYTE   N12  As3
 BYTE   W24
 BYTE   EOT
 BYTE   Gn2  v062
 BYTE   TIE  Gn2
 BYTE   TIE  Cn3
 BYTE   TIE  Gn3
 BYTE   W12
// 139   ----------------------------------------
 BYTE   W96
// 140   ----------------------------------------
 BYTE   W48
 BYTE   EOT
 BYTE   Gn2  v060
 BYTE   Gn3
 BYTE   N12  Gn2
 BYTE   N12  Cn3
 BYTE   N12  Gn3
 BYTE   W12
 BYTE   Gn2
 BYTE   N12  Cn3
 BYTE   N12  Gn3
 BYTE   W24
 BYTE   TIE  Gn2
 BYTE   TIE  Cn3
 BYTE   TIE  Gn3
 BYTE   W12
// 141   ----------------------------------------
 BYTE   W96
// 142   ----------------------------------------
 BYTE   W48
 BYTE   EOT
 BYTE   Gn2  v060
 BYTE   Gn3
 BYTE   N12  Gn2
 BYTE   N12  Cn3
 BYTE   N12  Gn3
 BYTE   W12
 BYTE   Gn2
 BYTE   N12  Cn3
 BYTE   N12  Gn3
 BYTE   W24
 BYTE   TIE  Fn2
 BYTE   TIE  As2
 BYTE   TIE  Fn3
 BYTE   W12
// 143   ----------------------------------------
 BYTE   W96
// 144   ----------------------------------------
 BYTE   EOT
 BYTE   Fn2  v058
 BYTE   Fn3
// 145   ----------------------------------------
 BYTE   PATT
  POIN2 Label_4_014DECF2
// 146   ----------------------------------------
 BYTE   W96
// 147   ----------------------------------------
 BYTE   W12
 BYTE   EOT
 BYTE   Gn2  v060
 BYTE   Ds3
 BYTE   N36  Gn2  v096
 BYTE   N36  Ds3
 BYTE   N36  Gn3
 BYTE   W36
 BYTE   N12  Fn2
 BYTE   N12  Dn3
 BYTE   N12  Fn3
 BYTE   W12
 BYTE   Dn2
 BYTE   N12  As2
 BYTE   N12  Dn3
 BYTE   W24
 BYTE   TIE  Gn2
 BYTE   TIE  Cn3
 BYTE   TIE  Gn3
 BYTE   W12
// 148   ----------------------------------------
 BYTE   W96
// 149   ----------------------------------------
 BYTE   W48
 BYTE   EOT
 BYTE   Gn2  v060
 BYTE   Gn3
 BYTE   N12  Gn2
 BYTE   N12  Cn3
 BYTE   N12  Gn3
 BYTE   W12
 BYTE   Gn2
 BYTE   N12  Cn3
 BYTE   N12  Gn3
 BYTE   W24
 BYTE   TIE  Gn2
 BYTE   TIE  Cn3
 BYTE   TIE  Gn3
 BYTE   W12
// 150   ----------------------------------------
 BYTE   W96
// 151   ----------------------------------------
 BYTE   W48
 BYTE   EOT
 BYTE   Gn2  v060
 BYTE   Gn3
 BYTE   N12  Gn2
 BYTE   N12  Cn3
 BYTE   N12  Gn3
 BYTE   W12
 BYTE   Gn2
 BYTE   N12  Cn3
 BYTE   N12  Gn3
 BYTE   W24
 BYTE   TIE  Fn2
 BYTE   TIE  As2
 BYTE   TIE  Fn3
 BYTE   W12
// 152   ----------------------------------------
 BYTE   W96
// 153   ----------------------------------------
 BYTE   EOT
 BYTE   Fn2  v058
 BYTE   Fn3
// 154   ----------------------------------------
 BYTE   PATT
  POIN2 Label_4_014DED63
// 155   ----------------------------------------
 BYTE   W96
// 156   ----------------------------------------
 BYTE   GoTo
  POIN2 Label_4_014DED7D
// 157   ----------------------------------------
 BYTE   W12
 BYTE   EOT
 BYTE   Cn2  v055
 BYTE   Cn3  v063
 BYTE   N36  Gn2  v096
 BYTE   N36  Ds3
 BYTE   N36  Gn3
 BYTE   W36
 BYTE   N12  Fn2
 BYTE   N12  Dn3
 BYTE   N12  Fn3
 BYTE   W12
 BYTE   Gn2
 BYTE   N12  Ds3
 BYTE   N12  Gn3
 BYTE   W36
 BYTE   FINE

//**************** Track 6 (Midi-Chn.5) ****************//

CapAm_006:
// 000   ----------------------------------------
 BYTE   KEYSH   CapAm_key+0
 BYTE   VOICE   63
 BYTE   PAN   c_v-60
 BYTE   VOL   48*CapAm_mvl/mxv
 BYTE   W96
// 001   ----------------------------------------
 BYTE   W96
// 002   ----------------------------------------
 BYTE   W96
// 003   ----------------------------------------
 BYTE   W96
// 004   ----------------------------------------
 BYTE   W96
// 005   ----------------------------------------
 BYTE   W96
// 006   ----------------------------------------
 BYTE   W96
// 007   ----------------------------------------
 BYTE   W96
// 008   ----------------------------------------
 BYTE   W96
// 009   ----------------------------------------
 BYTE   W96
// 010   ----------------------------------------
 BYTE   W96
// 011   ----------------------------------------
 BYTE   W72
 BYTE   N24  Dn3  v127
 BYTE   W24
// 012   ----------------------------------------
Label_5_54C704:
 BYTE   N36  Fn3  v127
 BYTE   W36
 BYTE   Gn3
 BYTE   W36
 BYTE   N24  Ds3
 BYTE   W24
 BYTE   PEND 
// 013   ----------------------------------------
Label_5_54C70E:
 BYTE   N48  Fn3  v127
 BYTE   W48
 BYTE   N36  Ds3
 BYTE   W36
 BYTE   N96  As2
 BYTE   W12
 BYTE   PEND 
// 014   ----------------------------------------
 BYTE   W84
 BYTE   N72  Cn3
 BYTE   W12
// 015   ----------------------------------------
Label_5_54C71D:
 BYTE   W60
 BYTE   N12  Dn3  v127
 BYTE   W12
 BYTE   Ds3
 BYTE   W12
 BYTE   N60  Fn3
 BYTE   W12
 BYTE   PEND 
// 016   ----------------------------------------
 BYTE   W48
 BYTE   N48  Ds3
 BYTE   W48
// 017   ----------------------------------------
Label_5_54C72C:
 BYTE   N48  Dn3  v127
 BYTE   W48
 BYTE   N36  As2
 BYTE   W36
 BYTE   TIE  Gn2
 BYTE   W12
 BYTE   PEND 
// 018   ----------------------------------------
 BYTE   W96
// 019   ----------------------------------------
 BYTE   W12
 BYTE   EOT
 BYTE   N12
 BYTE   W12
 BYTE   As2
 BYTE   W12
 BYTE   Cn3
 BYTE   W12
 BYTE   Dn3
 BYTE   W12
 BYTE   Ds3
 BYTE   W12
 BYTE   Fn3
 BYTE   W12
 BYTE   N48  Gn3
 BYTE   W12
// 020   ----------------------------------------
Label_5_54C749:
 BYTE   W36
 BYTE   N36  Fn3  v127
 BYTE   W36
 BYTE   N24  Gn3
 BYTE   W24
 BYTE   PEND 
// 021   ----------------------------------------
Label_5_54C752:
 BYTE   N36  Cn4  v127
 BYTE   W36
 BYTE   As3
 BYTE   W36
 BYTE   N12  Fn3
 BYTE   W12
 BYTE   TIE  Gn3
 BYTE   W12
 BYTE   PEND 
// 022   ----------------------------------------
 BYTE   W96
// 023   ----------------------------------------
 BYTE   EOT
Label_5_54C761:
 BYTE   N60  Cn4  v127
 BYTE   W60
 BYTE   N12  As3
 BYTE   W12
 BYTE   Cn4
 BYTE   W12
 BYTE   TIE  Dn4
 BYTE   W12
 BYTE   PEND 
// 024   ----------------------------------------
 BYTE   W96
// 025   ----------------------------------------
 BYTE   W12
 BYTE   EOT
 BYTE   N12  Ds4
 BYTE   W12
 BYTE   Dn4
 BYTE   W12
 BYTE   Fn3
 BYTE   W12
 BYTE   Gn3
 BYTE   W12
 BYTE   As3
 BYTE   W12
 BYTE   Ds4
 BYTE   W12
 BYTE   TIE  Cn4
 BYTE   W12
// 026   ----------------------------------------
 BYTE   W96
// 027   ----------------------------------------
 BYTE   W72
 BYTE   EOT
 BYTE   W24
// 028   ----------------------------------------
 BYTE   W96
// 029   ----------------------------------------
 BYTE   W96
// 030   ----------------------------------------
 BYTE   W96
// 031   ----------------------------------------
 BYTE   W96
// 032   ----------------------------------------
 BYTE   W96
// 033   ----------------------------------------
 BYTE   W96
// 034   ----------------------------------------
 BYTE   W96
// 035   ----------------------------------------
 BYTE   W84
 BYTE   N48  Dn3
 BYTE   W12
// 036   ----------------------------------------
Label_5_54C790:
 BYTE   W36
 BYTE   N36  Ds3  v127
 BYTE   W36
 BYTE   N24  As3
 BYTE   W24
 BYTE   PEND 
// 037   ----------------------------------------
Label_5_54C799:
 BYTE   N48  Gn3  v127
 BYTE   W48
 BYTE   N12  Fn3
 BYTE   W12
 BYTE   Gn3
 BYTE   W24
 BYTE   N48  Dn3
 BYTE   W12
 BYTE   PEND 
// 038   ----------------------------------------
Label_5_54C7A6:
 BYTE   W36
 BYTE   N36  Ds3  v127
 BYTE   W36
 BYTE   N24  Cn4
 BYTE   W24
 BYTE   PEND 
// 039   ----------------------------------------
Label_5_54C7AF:
 BYTE   N48  As3  v127
 BYTE   W48
 BYTE   N12  Gs3
 BYTE   W12
 BYTE   Gn3
 BYTE   W24
 BYTE   TIE  Fn3
 BYTE   W12
 BYTE   PEND 
// 040   ----------------------------------------
 BYTE   W96
// 041   ----------------------------------------
 BYTE   EOT
Label_5_54C7BE:
 BYTE   N48  Dn3  v127
 BYTE   W48
 BYTE   N12  Gn3
 BYTE   W12
 BYTE   Fn3
 BYTE   W24
 BYTE   TIE  Ds3
 BYTE   W12
 BYTE   PEND 
// 042   ----------------------------------------
 BYTE   W96
// 043   ----------------------------------------
 BYTE   W84
 BYTE   EOT
 BYTE   N48  Dn3
 BYTE   W12
// 044   ----------------------------------------
 BYTE   PATT
  POIN2 Label_5_54C790
// 045   ----------------------------------------
 BYTE   PATT
  POIN2 Label_5_54C799
// 046   ----------------------------------------
 BYTE   PATT
  POIN2 Label_5_54C790
// 047   ----------------------------------------
Label_5_54C7E0:
 BYTE   N48  Cn4  v127
 BYTE   W48
 BYTE   N12  As3
 BYTE   W12
 BYTE   Cn4
 BYTE   W24
 BYTE   TIE  Dn4
 BYTE   W12
 BYTE   PEND 
// 048   ----------------------------------------
 BYTE   W96
// 049   ----------------------------------------
 BYTE   EOT
Label_5_54C7EF:
 BYTE   N48  Ds4  v127
 BYTE   W48
 BYTE   N12  Dn4
 BYTE   W12
 BYTE   As3
 BYTE   W24
 BYTE   TIE  Cn4
 BYTE   W12
 BYTE   PEND 
// 050   ----------------------------------------
 BYTE   W96
// 051   ----------------------------------------
Label_5_54C7FD:
 BYTE   W96
// 052   ----------------------------------------
 BYTE   EOT
 BYTE   Cn4
 BYTE   W96
// 053   ----------------------------------------
 BYTE   W96
// 054   ----------------------------------------
 BYTE   W96
// 055   ----------------------------------------
 BYTE   W96
// 056   ----------------------------------------
 BYTE   W96
// 057   ----------------------------------------
 BYTE   W96
// 058   ----------------------------------------
 BYTE   W96
// 059   ----------------------------------------
 BYTE   W72
 BYTE   N24  Dn3  v127
 BYTE   W24
// 060   ----------------------------------------
 BYTE   PATT
  POIN2 Label_5_54C704
// 061   ----------------------------------------
 BYTE   PATT
  POIN2 Label_5_54C70E
// 062   ----------------------------------------
 BYTE   W84
 BYTE   N72  Cn3  v127
 BYTE   W12
// 063   ----------------------------------------
 BYTE   PATT
  POIN2 Label_5_54C71D
// 064   ----------------------------------------
 BYTE   W48
 BYTE   N48  Ds3  v127
 BYTE   W48
// 065   ----------------------------------------
 BYTE   PATT
  POIN2 Label_5_54C72C
// 066   ----------------------------------------
 BYTE   W96
// 067   ----------------------------------------
 BYTE   W12
 BYTE   EOT
 BYTE   Gn2
 BYTE   N12  Gn2  v127
 BYTE   W12
 BYTE   As2
 BYTE   W12
 BYTE   Cn3
 BYTE   W12
 BYTE   Dn3
 BYTE   W12
 BYTE   Ds3
 BYTE   W12
 BYTE   Fn3
 BYTE   W12
 BYTE   N48  Gn3
 BYTE   W12
// 068   ----------------------------------------
 BYTE   PATT
  POIN2 Label_5_54C749
// 069   ----------------------------------------
 BYTE   PATT
  POIN2 Label_5_54C752
// 070   ----------------------------------------
 BYTE   W96
// 071   ----------------------------------------
 BYTE   EOT
 BYTE   Gn3
// 072   ----------------------------------------
 BYTE   PATT
  POIN2 Label_5_54C761
// 073   ----------------------------------------
 BYTE   W96
// 074   ----------------------------------------
 BYTE   W12
 BYTE   EOT
 BYTE   Dn4
 BYTE   N12  Ds4  v127
 BYTE   W12
 BYTE   Dn4
 BYTE   W12
 BYTE   Fn3
 BYTE   W12
 BYTE   Gn3
 BYTE   W12
 BYTE   As3
 BYTE   W12
 BYTE   Ds4
 BYTE   W12
 BYTE   TIE  Cn4
 BYTE   W12
// 075   ----------------------------------------
 BYTE   W96
// 076   ----------------------------------------
 BYTE   W72
 BYTE   EOT
 BYTE   W24
// 077   ----------------------------------------
 BYTE   W96
// 078   ----------------------------------------
 BYTE   W96
// 079   ----------------------------------------
 BYTE   W96
// 080   ----------------------------------------
 BYTE   W96
// 081   ----------------------------------------
 BYTE   W96
// 082   ----------------------------------------
 BYTE   W96
// 083   ----------------------------------------
 BYTE   W96
// 084   ----------------------------------------
 BYTE   W84
 BYTE   N48  Dn3
 BYTE   W12
// 085   ----------------------------------------
 BYTE   PATT
  POIN2 Label_5_54C790
// 086   ----------------------------------------
 BYTE   PATT
  POIN2 Label_5_54C799
// 087   ----------------------------------------
 BYTE   PATT
  POIN2 Label_5_54C7A6
// 088   ----------------------------------------
 BYTE   PATT
  POIN2 Label_5_54C7AF
// 089   ----------------------------------------
 BYTE   W96
// 090   ----------------------------------------
 BYTE   EOT
 BYTE   Fn3
// 091   ----------------------------------------
 BYTE   PATT
  POIN2 Label_5_54C7BE
// 092   ----------------------------------------
 BYTE   W96
// 093   ----------------------------------------
 BYTE   W84
 BYTE   EOT
 BYTE   Ds3
 BYTE   N48  Dn3  v127
 BYTE   W12
// 094   ----------------------------------------
 BYTE   PATT
  POIN2 Label_5_54C790
// 095   ----------------------------------------
 BYTE   PATT
  POIN2 Label_5_54C799
// 096   ----------------------------------------
 BYTE   PATT
  POIN2 Label_5_54C790
// 097   ----------------------------------------
 BYTE   PATT
  POIN2 Label_5_54C7E0
// 098   ----------------------------------------
 BYTE   W96
// 099   ----------------------------------------
 BYTE   EOT
 BYTE   Dn4
// 100   ----------------------------------------
 BYTE   PATT
  POIN2 Label_5_54C7EF
// 101   ----------------------------------------
 BYTE   W96
// 102   ----------------------------------------
 BYTE   W96
// 103   ----------------------------------------
 BYTE   EOT
 BYTE   Cn4
 BYTE   W96
// 104   ----------------------------------------
 BYTE   W96
// 105   ----------------------------------------
 BYTE   W96
// 106   ----------------------------------------
 BYTE   W96
// 107   ----------------------------------------
 BYTE   W96
// 108   ----------------------------------------
 BYTE   W96
// 109   ----------------------------------------
 BYTE   W96
// 110   ----------------------------------------
 BYTE   W72
 BYTE   N24  Dn3  v127
 BYTE   W24
// 111   ----------------------------------------
 BYTE   PATT
  POIN2 Label_5_54C704
// 112   ----------------------------------------
 BYTE   PATT
  POIN2 Label_5_54C70E
// 113   ----------------------------------------
 BYTE   W84
 BYTE   N72  Cn3  v127
 BYTE   W12
// 114   ----------------------------------------
 BYTE   PATT
  POIN2 Label_5_54C71D
// 115   ----------------------------------------
 BYTE   W48
 BYTE   N48  Ds3  v127
 BYTE   W48
// 116   ----------------------------------------
 BYTE   PATT
  POIN2 Label_5_54C72C
// 117   ----------------------------------------
 BYTE   W96
// 118   ----------------------------------------
 BYTE   W12
 BYTE   EOT
 BYTE   Gn2
 BYTE   N12  Gn2  v127
 BYTE   W12
 BYTE   As2
 BYTE   W12
 BYTE   Cn3
 BYTE   W12
 BYTE   Dn3
 BYTE   W12
 BYTE   Ds3
 BYTE   W12
 BYTE   Fn3
 BYTE   W12
 BYTE   N48  Gn3
 BYTE   W12
// 119   ----------------------------------------
 BYTE   PATT
  POIN2 Label_5_54C749
// 120   ----------------------------------------
 BYTE   PATT
  POIN2 Label_5_54C752
// 121   ----------------------------------------
 BYTE   W96
// 122   ----------------------------------------
 BYTE   EOT
 BYTE   Gn3
// 123   ----------------------------------------
 BYTE   PATT
  POIN2 Label_5_54C761
// 124   ----------------------------------------
 BYTE   W96
// 125   ----------------------------------------
 BYTE   W12
 BYTE   EOT
 BYTE   Dn4
 BYTE   N12  Ds4  v127
 BYTE   W12
 BYTE   Dn4
 BYTE   W12
 BYTE   Fn3
 BYTE   W12
 BYTE   Gn3
 BYTE   W12
 BYTE   As3
 BYTE   W12
 BYTE   Ds4
 BYTE   W12
 BYTE   TIE  Cn4
 BYTE   W12
// 126   ----------------------------------------
 BYTE   W96
// 127   ----------------------------------------
 BYTE   W72
 BYTE   EOT
 BYTE   W24
// 128   ----------------------------------------
 BYTE   W96
// 129   ----------------------------------------
 BYTE   W96
// 130   ----------------------------------------
 BYTE   W96
// 131   ----------------------------------------
 BYTE   W96
// 132   ----------------------------------------
 BYTE   W96
// 133   ----------------------------------------
 BYTE   W96
// 134   ----------------------------------------
 BYTE   W96
// 135   ----------------------------------------
 BYTE   W84
 BYTE   N48  Dn3
 BYTE   W12
// 136   ----------------------------------------
 BYTE   PATT
  POIN2 Label_5_54C790
// 137   ----------------------------------------
 BYTE   PATT
  POIN2 Label_5_54C799
// 138   ----------------------------------------
 BYTE   PATT
  POIN2 Label_5_54C7A6
// 139   ----------------------------------------
 BYTE   PATT
  POIN2 Label_5_54C7AF
// 140   ----------------------------------------
 BYTE   W96
// 141   ----------------------------------------
 BYTE   EOT
 BYTE   Fn3
// 142   ----------------------------------------
 BYTE   PATT
  POIN2 Label_5_54C7BE
// 143   ----------------------------------------
 BYTE   W96
// 144   ----------------------------------------
 BYTE   W84
 BYTE   EOT
 BYTE   Ds3
 BYTE   N48  Dn3  v127
 BYTE   W12
// 145   ----------------------------------------
 BYTE   PATT
  POIN2 Label_5_54C790
// 146   ----------------------------------------
 BYTE   PATT
  POIN2 Label_5_54C799
// 147   ----------------------------------------
 BYTE   PATT
  POIN2 Label_5_54C790
// 148   ----------------------------------------
 BYTE   PATT
  POIN2 Label_5_54C7E0
// 149   ----------------------------------------
 BYTE   W96
// 150   ----------------------------------------
 BYTE   EOT
 BYTE   Dn4
// 151   ----------------------------------------
 BYTE   PATT
  POIN2 Label_5_54C7EF
// 152   ----------------------------------------
 BYTE   W96
// 153   ----------------------------------------
 BYTE   GoTo
  POIN2 Label_5_54C7FD
// 154   ----------------------------------------
 BYTE   W96
// 155   ----------------------------------------
 BYTE   EOT
 BYTE   Cn4
 BYTE   FINE

//**************** Track 7 (Midi-Chn.6) ****************//

CapAm_007:
// 000   ----------------------------------------
 BYTE   KEYSH   CapAm_key+0
 BYTE   VOICE   52
 BYTE   PAN   c_v+59
 BYTE   VOL   48*CapAm_mvl/mxv
 BYTE   W96
// 001   ----------------------------------------
 BYTE   W96
// 002   ----------------------------------------
 BYTE   W96
// 003   ----------------------------------------
 BYTE   W96
// 004   ----------------------------------------
 BYTE   W96
// 005   ----------------------------------------
 BYTE   W96
// 006   ----------------------------------------
 BYTE   W96
// 007   ----------------------------------------
 BYTE   W96
// 008   ----------------------------------------
 BYTE   W96
// 009   ----------------------------------------
 BYTE   W96
// 010   ----------------------------------------
 BYTE   W96
// 011   ----------------------------------------
 BYTE   W72
 BYTE   N24  Dn3  v127
 BYTE   W24
// 012   ----------------------------------------
Label_6_014DC8C0:
 BYTE   N36  Fn3  v127
 BYTE   W36
 BYTE   Gn3
 BYTE   W36
 BYTE   N24  Ds3
 BYTE   W24
 BYTE   PEND 
// 013   ----------------------------------------
Label_6_014DC8CA:
 BYTE   N48  Fn3  v127
 BYTE   W48
 BYTE   N36  Ds3
 BYTE   W36
 BYTE   N96  As2
 BYTE   W12
 BYTE   PEND 
// 014   ----------------------------------------
 BYTE   W84
 BYTE   N72  Cn3
 BYTE   W12
// 015   ----------------------------------------
Label_6_014DC8D9:
 BYTE   W60
 BYTE   N12  Dn3  v127
 BYTE   W12
 BYTE   Ds3
 BYTE   W12
 BYTE   N60  Fn3
 BYTE   W12
 BYTE   PEND 
// 016   ----------------------------------------
 BYTE   W48
 BYTE   N48  Ds3
 BYTE   W48
// 017   ----------------------------------------
Label_6_014DC8E8:
 BYTE   N48  Dn3  v127
 BYTE   W48
 BYTE   N36  As2
 BYTE   W36
 BYTE   TIE  Gn2
 BYTE   W12
 BYTE   PEND 
// 018   ----------------------------------------
 BYTE   W96
// 019   ----------------------------------------
 BYTE   W12
 BYTE   EOT
 BYTE   N12
 BYTE   W12
 BYTE   As2
 BYTE   W12
 BYTE   Cn3
 BYTE   W12
 BYTE   Dn3
 BYTE   W12
 BYTE   Ds3
 BYTE   W12
 BYTE   Fn3
 BYTE   W12
 BYTE   N48  Gn3
 BYTE   W12
// 020   ----------------------------------------
Label_6_014DC905:
 BYTE   W36
 BYTE   N36  Fn3  v127
 BYTE   W36
 BYTE   N24  Gn3
 BYTE   W24
 BYTE   PEND 
// 021   ----------------------------------------
Label_6_014DC90E:
 BYTE   N36  Cn4  v127
 BYTE   W36
 BYTE   As3
 BYTE   W36
 BYTE   N12  Fn3
 BYTE   W12
 BYTE   TIE  Gn3
 BYTE   W12
 BYTE   PEND 
// 022   ----------------------------------------
 BYTE   W96
// 023   ----------------------------------------
 BYTE   EOT
Label_6_014DC91D:
 BYTE   N60  Cn4  v127
 BYTE   W60
 BYTE   N12  As3
 BYTE   W12
 BYTE   Cn4
 BYTE   W12
 BYTE   TIE  Dn4
 BYTE   W12
 BYTE   PEND 
// 024   ----------------------------------------
 BYTE   W96
// 025   ----------------------------------------
 BYTE   W12
 BYTE   EOT
 BYTE   N12  Ds4
 BYTE   W12
 BYTE   Dn4
 BYTE   W12
 BYTE   Fn3
 BYTE   W12
 BYTE   Gn3
 BYTE   W12
 BYTE   As3
 BYTE   W12
 BYTE   Ds4
 BYTE   W12
 BYTE   TIE  Cn4
 BYTE   W12
// 026   ----------------------------------------
 BYTE   W96
// 027   ----------------------------------------
 BYTE   W72
 BYTE   EOT
 BYTE   W24
// 028   ----------------------------------------
 BYTE   W96
// 029   ----------------------------------------
 BYTE   W96
// 030   ----------------------------------------
 BYTE   W96
// 031   ----------------------------------------
 BYTE   W96
// 032   ----------------------------------------
 BYTE   W96
// 033   ----------------------------------------
 BYTE   W96
// 034   ----------------------------------------
 BYTE   W96
// 035   ----------------------------------------
 BYTE   W84
 BYTE   N48  Dn3
 BYTE   W12
// 036   ----------------------------------------
Label_6_014DC94C:
 BYTE   W36
 BYTE   N36  Ds3  v127
 BYTE   W36
 BYTE   N24  As3
 BYTE   W24
 BYTE   PEND 
// 037   ----------------------------------------
Label_6_014DC955:
 BYTE   N48  Gn3  v127
 BYTE   W48
 BYTE   N12  Fn3
 BYTE   W12
 BYTE   Gn3
 BYTE   W24
 BYTE   N48  Dn3
 BYTE   W12
 BYTE   PEND 
// 038   ----------------------------------------
Label_6_014DC962:
 BYTE   W36
 BYTE   N36  Ds3  v127
 BYTE   W36
 BYTE   N24  Cn4
 BYTE   W24
 BYTE   PEND 
// 039   ----------------------------------------
Label_6_014DC96B:
 BYTE   N48  As3  v127
 BYTE   W48
 BYTE   N12  Gs3
 BYTE   W12
 BYTE   Gn3
 BYTE   W24
 BYTE   TIE  Fn3
 BYTE   W12
 BYTE   PEND 
// 040   ----------------------------------------
 BYTE   W96
// 041   ----------------------------------------
 BYTE   EOT
Label_6_014DC97A:
 BYTE   N48  Dn3  v127
 BYTE   W48
 BYTE   N12  Gn3
 BYTE   W12
 BYTE   Fn3
 BYTE   W24
 BYTE   TIE  Ds3
 BYTE   W12
 BYTE   PEND 
// 042   ----------------------------------------
 BYTE   W96
// 043   ----------------------------------------
 BYTE   W84
 BYTE   EOT
 BYTE   N48  Dn3
 BYTE   W12
// 044   ----------------------------------------
 BYTE   PATT
  POIN2 Label_6_014DC94C
// 045   ----------------------------------------
 BYTE   PATT
  POIN2 Label_6_014DC955
// 046   ----------------------------------------
 BYTE   PATT
  POIN2 Label_6_014DC94C
// 047   ----------------------------------------
Label_6_014DC99C:
 BYTE   N48  Cn4  v127
 BYTE   W48
 BYTE   N12  As3
 BYTE   W12
 BYTE   Cn4
 BYTE   W24
 BYTE   TIE  Dn4
 BYTE   W12
 BYTE   PEND 
// 048   ----------------------------------------
 BYTE   W96
// 049   ----------------------------------------
 BYTE   EOT
Label_6_014DC9AB:
 BYTE   N48  Ds4  v127
 BYTE   W48
 BYTE   N12  Dn4
 BYTE   W12
 BYTE   As3
 BYTE   W24
 BYTE   TIE  Cn4
 BYTE   W12
 BYTE   PEND 
// 050   ----------------------------------------
 BYTE   W96
// 051   ----------------------------------------
Label_6_014DC9B9:
 BYTE   W96
// 052   ----------------------------------------
 BYTE   EOT
 BYTE   Cn4
 BYTE   W96
// 053   ----------------------------------------
 BYTE   W96
// 054   ----------------------------------------
 BYTE   W96
// 055   ----------------------------------------
 BYTE   W96
// 056   ----------------------------------------
 BYTE   W96
// 057   ----------------------------------------
 BYTE   W96
// 058   ----------------------------------------
 BYTE   W96
// 059   ----------------------------------------
 BYTE   W72
 BYTE   N24  Dn3  v127
 BYTE   W24
// 060   ----------------------------------------
 BYTE   PATT
  POIN2 Label_6_014DC8C0
// 061   ----------------------------------------
 BYTE   PATT
  POIN2 Label_6_014DC8CA
// 062   ----------------------------------------
 BYTE   W84
 BYTE   N72  Cn3  v127
 BYTE   W12
// 063   ----------------------------------------
 BYTE   PATT
  POIN2 Label_6_014DC8D9
// 064   ----------------------------------------
 BYTE   W48
 BYTE   N48  Ds3  v127
 BYTE   W48
// 065   ----------------------------------------
 BYTE   PATT
  POIN2 Label_6_014DC8E8
// 066   ----------------------------------------
 BYTE   W96
// 067   ----------------------------------------
 BYTE   W12
 BYTE   EOT
 BYTE   Gn2
 BYTE   N12  Gn2  v127
 BYTE   W12
 BYTE   As2
 BYTE   W12
 BYTE   Cn3
 BYTE   W12
 BYTE   Dn3
 BYTE   W12
 BYTE   Ds3
 BYTE   W12
 BYTE   Fn3
 BYTE   W12
 BYTE   N48  Gn3
 BYTE   W12
// 068   ----------------------------------------
 BYTE   PATT
  POIN2 Label_6_014DC905
// 069   ----------------------------------------
 BYTE   PATT
  POIN2 Label_6_014DC90E
// 070   ----------------------------------------
 BYTE   W96
// 071   ----------------------------------------
 BYTE   EOT
 BYTE   Gn3
// 072   ----------------------------------------
 BYTE   PATT
  POIN2 Label_6_014DC91D
// 073   ----------------------------------------
 BYTE   W96
// 074   ----------------------------------------
 BYTE   W12
 BYTE   EOT
 BYTE   Dn4
 BYTE   N12  Ds4  v127
 BYTE   W12
 BYTE   Dn4
 BYTE   W12
 BYTE   Fn3
 BYTE   W12
 BYTE   Gn3
 BYTE   W12
 BYTE   As3
 BYTE   W12
 BYTE   Ds4
 BYTE   W12
 BYTE   TIE  Cn4
 BYTE   W12
// 075   ----------------------------------------
 BYTE   W96
// 076   ----------------------------------------
 BYTE   W72
 BYTE   EOT
 BYTE   W24
// 077   ----------------------------------------
 BYTE   W96
// 078   ----------------------------------------
 BYTE   W96
// 079   ----------------------------------------
 BYTE   W96
// 080   ----------------------------------------
 BYTE   W96
// 081   ----------------------------------------
 BYTE   W96
// 082   ----------------------------------------
 BYTE   W96
// 083   ----------------------------------------
 BYTE   W96
// 084   ----------------------------------------
 BYTE   W84
 BYTE   N48  Dn3
 BYTE   W12
// 085   ----------------------------------------
 BYTE   PATT
  POIN2 Label_6_014DC94C
// 086   ----------------------------------------
 BYTE   PATT
  POIN2 Label_6_014DC955
// 087   ----------------------------------------
 BYTE   PATT
  POIN2 Label_6_014DC962
// 088   ----------------------------------------
 BYTE   PATT
  POIN2 Label_6_014DC96B
// 089   ----------------------------------------
 BYTE   W96
// 090   ----------------------------------------
 BYTE   EOT
 BYTE   Fn3
// 091   ----------------------------------------
 BYTE   PATT
  POIN2 Label_6_014DC97A
// 092   ----------------------------------------
 BYTE   W96
// 093   ----------------------------------------
 BYTE   W84
 BYTE   EOT
 BYTE   Ds3
 BYTE   N48  Dn3  v127
 BYTE   W12
// 094   ----------------------------------------
 BYTE   PATT
  POIN2 Label_6_014DC94C
// 095   ----------------------------------------
 BYTE   PATT
  POIN2 Label_6_014DC955
// 096   ----------------------------------------
 BYTE   PATT
  POIN2 Label_6_014DC94C
// 097   ----------------------------------------
 BYTE   PATT
  POIN2 Label_6_014DC99C
// 098   ----------------------------------------
 BYTE   W96
// 099   ----------------------------------------
 BYTE   EOT
 BYTE   Dn4
// 100   ----------------------------------------
 BYTE   PATT
  POIN2 Label_6_014DC9AB
// 101   ----------------------------------------
 BYTE   W96
// 102   ----------------------------------------
 BYTE   W96
// 103   ----------------------------------------
 BYTE   EOT
 BYTE   Cn4
 BYTE   W96
// 104   ----------------------------------------
 BYTE   W96
// 105   ----------------------------------------
 BYTE   W96
// 106   ----------------------------------------
 BYTE   W96
// 107   ----------------------------------------
 BYTE   W96
// 108   ----------------------------------------
 BYTE   W96
// 109   ----------------------------------------
 BYTE   W96
// 110   ----------------------------------------
 BYTE   W72
 BYTE   N24  Dn3  v127
 BYTE   W24
// 111   ----------------------------------------
 BYTE   PATT
  POIN2 Label_6_014DC8C0
// 112   ----------------------------------------
 BYTE   PATT
  POIN2 Label_6_014DC8CA
// 113   ----------------------------------------
 BYTE   W84
 BYTE   N72  Cn3  v127
 BYTE   W12
// 114   ----------------------------------------
 BYTE   PATT
  POIN2 Label_6_014DC8D9
// 115   ----------------------------------------
 BYTE   W48
 BYTE   N48  Ds3  v127
 BYTE   W48
// 116   ----------------------------------------
 BYTE   PATT
  POIN2 Label_6_014DC8E8
// 117   ----------------------------------------
 BYTE   W96
// 118   ----------------------------------------
 BYTE   W12
 BYTE   EOT
 BYTE   Gn2
 BYTE   N12  Gn2  v127
 BYTE   W12
 BYTE   As2
 BYTE   W12
 BYTE   Cn3
 BYTE   W12
 BYTE   Dn3
 BYTE   W12
 BYTE   Ds3
 BYTE   W12
 BYTE   Fn3
 BYTE   W12
 BYTE   N48  Gn3
 BYTE   W12
// 119   ----------------------------------------
 BYTE   PATT
  POIN2 Label_6_014DC905
// 120   ----------------------------------------
 BYTE   PATT
  POIN2 Label_6_014DC90E
// 121   ----------------------------------------
 BYTE   W96
// 122   ----------------------------------------
 BYTE   EOT
 BYTE   Gn3
// 123   ----------------------------------------
 BYTE   PATT
  POIN2 Label_6_014DC91D
// 124   ----------------------------------------
 BYTE   W96
// 125   ----------------------------------------
 BYTE   W12
 BYTE   EOT
 BYTE   Dn4
 BYTE   N12  Ds4  v127
 BYTE   W12
 BYTE   Dn4
 BYTE   W12
 BYTE   Fn3
 BYTE   W12
 BYTE   Gn3
 BYTE   W12
 BYTE   As3
 BYTE   W12
 BYTE   Ds4
 BYTE   W12
 BYTE   TIE  Cn4
 BYTE   W12
// 126   ----------------------------------------
 BYTE   W96
// 127   ----------------------------------------
 BYTE   W72
 BYTE   EOT
 BYTE   W24
// 128   ----------------------------------------
 BYTE   W96
// 129   ----------------------------------------
 BYTE   W96
// 130   ----------------------------------------
 BYTE   W96
// 131   ----------------------------------------
 BYTE   W96
// 132   ----------------------------------------
 BYTE   W96
// 133   ----------------------------------------
 BYTE   W96
// 134   ----------------------------------------
 BYTE   W96
// 135   ----------------------------------------
 BYTE   W84
 BYTE   N48  Dn3
 BYTE   W12
// 136   ----------------------------------------
 BYTE   PATT
  POIN2 Label_6_014DC94C
// 137   ----------------------------------------
 BYTE   PATT
  POIN2 Label_6_014DC955
// 138   ----------------------------------------
 BYTE   PATT
  POIN2 Label_6_014DC962
// 139   ----------------------------------------
 BYTE   PATT
  POIN2 Label_6_014DC96B
// 140   ----------------------------------------
 BYTE   W96
// 141   ----------------------------------------
 BYTE   EOT
 BYTE   Fn3
// 142   ----------------------------------------
 BYTE   PATT
  POIN2 Label_6_014DC97A
// 143   ----------------------------------------
 BYTE   W96
// 144   ----------------------------------------
 BYTE   W84
 BYTE   EOT
 BYTE   Ds3
 BYTE   N48  Dn3  v127
 BYTE   W12
// 145   ----------------------------------------
 BYTE   PATT
  POIN2 Label_6_014DC94C
// 146   ----------------------------------------
 BYTE   PATT
  POIN2 Label_6_014DC955
// 147   ----------------------------------------
 BYTE   PATT
  POIN2 Label_6_014DC94C
// 148   ----------------------------------------
 BYTE   PATT
  POIN2 Label_6_014DC99C
// 149   ----------------------------------------
 BYTE   W96
// 150   ----------------------------------------
 BYTE   EOT
 BYTE   Dn4
// 151   ----------------------------------------
 BYTE   PATT
  POIN2 Label_6_014DC9AB
// 152   ----------------------------------------
 BYTE   W96
// 153   ----------------------------------------
 BYTE   GoTo
  POIN2 Label_6_014DC9B9
// 154   ----------------------------------------
 BYTE   W96
// 155   ----------------------------------------
 BYTE   EOT
 BYTE   Cn4
 BYTE   FINE

//**************** Track 8 (Midi-Chn.7) ****************//

CapAm_008:
// 000   ----------------------------------------
 BYTE   KEYSH   CapAm_key+0
 BYTE   VOICE   127
 BYTE   VOL   40*CapAm_mvl/mxv
 BYTE   N24  Cn1  v127
 BYTE   N36  Cs2
 BYTE   W36
 BYTE   N24  Cn1
 BYTE   N36  Cs2
 BYTE   W36
 BYTE   N24  Cn1
 BYTE   N48  Cs2
 BYTE   W24
// 001   ----------------------------------------
 BYTE   N24  Cn1
 BYTE   W24
 BYTE   N03  Dn2
 BYTE   W03
 BYTE   N03
 BYTE   W03
 BYTE   N18
 BYTE   W18
 BYTE   N24  Dn1
 BYTE   N48  Cs2
 BYTE   W24
 BYTE   N03  Dn1  v096
 BYTE   W03
 BYTE   Dn1  v100
 BYTE   W03
 BYTE   Dn1  v104
 BYTE   W03
 BYTE   Dn1  v108
 BYTE   W03
 BYTE   Dn1  v112
 BYTE   W03
 BYTE   Dn1  v116
 BYTE   W03
 BYTE   Dn1  v120
 BYTE   W03
 BYTE   Dn1  v124
 BYTE   W03
// 002   ----------------------------------------
Label_7_014DF54A:
 BYTE   N12  Cn1  v127
 BYTE   N96  Cs2
 BYTE   W24
 BYTE   N12  Dn1
 BYTE   N24  As1
 BYTE   W24
 BYTE   N12  Cn1
 BYTE   N24  As1
 BYTE   W12
 BYTE   N12  Cn1
 BYTE   W12
 BYTE   Dn1
 BYTE   N24  As1
 BYTE   W24
 BYTE   PEND 
// 003   ----------------------------------------
 BYTE   N12  Cn1
 BYTE   N96  Cs2
 BYTE   W12
 BYTE   N12  Cn1
 BYTE   W12
 BYTE   Dn1
 BYTE   N24  As1
 BYTE   W12
 BYTE   N12  Cn1
 BYTE   W12
 BYTE   Dn1
 BYTE   N24  As1
 BYTE   W12
 BYTE   N12  Cn1
 BYTE   W12
 BYTE   N03  Dn1  v096
 BYTE   N24  As1  v127
 BYTE   W03
 BYTE   N03  Dn1  v100
 BYTE   W03
 BYTE   Dn1  v104
 BYTE   W03
 BYTE   Dn1  v108
 BYTE   W03
 BYTE   Dn1  v112
 BYTE   W03
 BYTE   Dn1  v116
 BYTE   W03
 BYTE   Dn1  v120
 BYTE   W03
 BYTE   Dn1  v124
 BYTE   W03
// 004   ----------------------------------------
 BYTE   PATT
  POIN2 Label_7_014DF54A
// 005   ----------------------------------------
Label_7_014DF59A:
 BYTE   N12  Cn1  v127
 BYTE   N24  As1
 BYTE   W24
 BYTE   N12  Dn1
 BYTE   N24  As1
 BYTE   W24
 BYTE   N12  Cn1
 BYTE   N12  As1
 BYTE   W12
 BYTE   Cn1
 BYTE   N12  As1
 BYTE   W12
 BYTE   Dn1
 BYTE   N12  As1
 BYTE   W12
 BYTE   Cn1
 BYTE   N96  Cs2
 BYTE   W12
 BYTE   PEND 
// 006   ----------------------------------------
Label_7_014DF5B7:
 BYTE   W24
 BYTE   N12  Dn1  v127
 BYTE   N24  As1
 BYTE   W24
 BYTE   N12  Cn1
 BYTE   N24  As1
 BYTE   W12
 BYTE   N12  Cn1
 BYTE   W12
 BYTE   Dn1
 BYTE   N24  As1
 BYTE   W24
 BYTE   PEND 
// 007   ----------------------------------------
 BYTE   PATT
  POIN2 Label_7_014DF59A
// 008   ----------------------------------------
Label_7_014DF5D0:
 BYTE   W24
 BYTE   N12  Dn1  v127
 BYTE   N24  As1
 BYTE   W24
 BYTE   N12  Cn1
 BYTE   N24  As1
 BYTE   W12
 BYTE   N12  Cn1
 BYTE   W12
 BYTE   Dn1
 BYTE   N24  As1
 BYTE   W12
 BYTE   N12  Cn1
 BYTE   W12
 BYTE   PEND 
// 009   ----------------------------------------
Label_7_014DF5E7:
 BYTE   N24  As1  v127
 BYTE   W24
 BYTE   N12  Dn1
 BYTE   N24  As1
 BYTE   W12
 BYTE   N12  Cn1
 BYTE   W12
 BYTE   Dn1
 BYTE   N12  As1
 BYTE   W12
 BYTE   Cn1
 BYTE   N12  As1
 BYTE   W12
 BYTE   Dn1
 BYTE   N12  As1
 BYTE   W12
 BYTE   Cn1
 BYTE   N96  Cs2
 BYTE   W12
 BYTE   PEND 
// 010   ----------------------------------------
Label_7_014DF604:
 BYTE   W12
 BYTE   N12  Cn1  v127
 BYTE   W12
 BYTE   Dn1
 BYTE   N24  As1
 BYTE   W24
 BYTE   N12  Cn1
 BYTE   N24  As1
 BYTE   W12
 BYTE   N12  Cn1
 BYTE   W12
 BYTE   Dn1
 BYTE   N24  As1
 BYTE   W24
 BYTE   PEND 
// 011   ----------------------------------------
Label_7_014DF61A:
 BYTE   N12  Cn1  v127
 BYTE   N12  As1
 BYTE   W12
 BYTE   Dn1  v112
 BYTE   N12  An1  v127
 BYTE   N72  Cs2
 BYTE   W12
 BYTE   N12  Dn1  v112
 BYTE   N12  An1  v127
 BYTE   W12
 BYTE   Dn1  v112
 BYTE   N12  An1  v127
 BYTE   W12
 BYTE   Dn1  v112
 BYTE   N12  Gn1  v127
 BYTE   W12
 BYTE   Dn1  v112
 BYTE   N12  Gn1  v127
 BYTE   W12
 BYTE   Dn1  v112
 BYTE   N12  Fn1  v127
 BYTE   W24
 BYTE   PEND 
// 012   ----------------------------------------
 BYTE   PATT
  POIN2 Label_7_014DF54A
// 013   ----------------------------------------
Label_7_014DF64D:
 BYTE   N12  Cn1  v127
 BYTE   N24  As1
 BYTE   W24
 BYTE   N12  Dn1
 BYTE   N24  As1
 BYTE   W24
 BYTE   N12  Cn1
 BYTE   N12  As1
 BYTE   W12
 BYTE   Cn1
 BYTE   N12  As1
 BYTE   W12
 BYTE   Dn1
 BYTE   W12
 BYTE   Cn1
 BYTE   N96  Cs2
 BYTE   W12
 BYTE   PEND 
// 014   ----------------------------------------
 BYTE   PATT
  POIN2 Label_7_014DF5B7
// 015   ----------------------------------------
 BYTE   PATT
  POIN2 Label_7_014DF64D
// 016   ----------------------------------------
 BYTE   PATT
  POIN2 Label_7_014DF5B7
// 017   ----------------------------------------
 BYTE   PATT
  POIN2 Label_7_014DF64D
// 018   ----------------------------------------
 BYTE   PATT
  POIN2 Label_7_014DF5B7
// 019   ----------------------------------------
Label_7_014DF681:
 BYTE   N12  Cn1  v127
 BYTE   N12  As1
 BYTE   W12
 BYTE   N12
 BYTE   N72  Cs2
 BYTE   N12  Dn2
 BYTE   W12
 BYTE   As1
 BYTE   N12  Dn2
 BYTE   W12
 BYTE   Cn2
 BYTE   W12
 BYTE   N06  Bn1
 BYTE   W06
 BYTE   N06
 BYTE   W06
 BYTE   N12  An1
 BYTE   W12
 BYTE   Gn1
 BYTE   W12
 BYTE   Cn1
 BYTE   N96  Cs2
 BYTE   W12
 BYTE   PEND 
// 020   ----------------------------------------
 BYTE   PATT
  POIN2 Label_7_014DF5B7
// 021   ----------------------------------------
 BYTE   PATT
  POIN2 Label_7_014DF64D
// 022   ----------------------------------------
 BYTE   PATT
  POIN2 Label_7_014DF5B7
// 023   ----------------------------------------
 BYTE   PATT
  POIN2 Label_7_014DF64D
// 024   ----------------------------------------
 BYTE   PATT
  POIN2 Label_7_014DF5B7
// 025   ----------------------------------------
 BYTE   PATT
  POIN2 Label_7_014DF64D
// 026   ----------------------------------------
 BYTE   PATT
  POIN2 Label_7_014DF5B7
// 027   ----------------------------------------
Label_7_014DF6C5:
 BYTE   N12  Cn1  v127
 BYTE   N12  As1
 BYTE   W12
 BYTE   Cn2
 BYTE   N84  Cs2
 BYTE   W12
 BYTE   N12  Bn1
 BYTE   W12
 BYTE   An1
 BYTE   W12
 BYTE   N08  Dn1
 BYTE   W08
 BYTE   N08
 BYTE   W08
 BYTE   N08
 BYTE   W08
 BYTE   Cn2
 BYTE   W08
 BYTE   Bn1
 BYTE   W08
 BYTE   An1
 BYTE   W08
 BYTE   PEND 
// 028   ----------------------------------------
Label_7_014DF6E2:
 BYTE   N12  Cn1  v127
 BYTE   N96  Cs2
 BYTE   W24
 BYTE   N12  Dn1
 BYTE   N24  As1
 BYTE   W24
 BYTE   N12  Cn1
 BYTE   N24  As1
 BYTE   W12
 BYTE   N12  Cn1  v096
 BYTE   W12
 BYTE   Dn1  v127
 BYTE   N24  As1
 BYTE   W12
 BYTE   N12  Cn1
 BYTE   W12
 BYTE   PEND 
// 029   ----------------------------------------
Label_7_014DF6FF:
 BYTE   N12  Cn1  v127
 BYTE   N24  As1
 BYTE   W24
 BYTE   N12  Dn1
 BYTE   N24  As1
 BYTE   W12
 BYTE   N12  Cn1
 BYTE   W12
 BYTE   N24  As1
 BYTE   W12
 BYTE   N12  Cn1
 BYTE   W12
 BYTE   Dn1
 BYTE   N12  As1
 BYTE   W12
 BYTE   Cn1
 BYTE   N96  Cs2
 BYTE   W12
 BYTE   PEND 
// 030   ----------------------------------------
Label_7_014DF71C:
 BYTE   W24
 BYTE   N12  Dn1  v127
 BYTE   N24  As1
 BYTE   W24
 BYTE   N12  Cn1
 BYTE   N24  As1
 BYTE   W12
 BYTE   N12  Cn1  v096
 BYTE   W12
 BYTE   Dn1  v127
 BYTE   N24  As1
 BYTE   W12
 BYTE   N12  Cn1
 BYTE   W12
 BYTE   PEND 
// 031   ----------------------------------------
Label_7_014DF735:
 BYTE   N12  Cn1  v127
 BYTE   N24  As1
 BYTE   W24
 BYTE   N12  Dn1
 BYTE   N24  As1
 BYTE   W12
 BYTE   N12  Cn1
 BYTE   W12
 BYTE   N24  As1
 BYTE   W12
 BYTE   N06  Cn1
 BYTE   W06
 BYTE   N06
 BYTE   W06
 BYTE   N12  Dn1
 BYTE   N24  As1
 BYTE   W24
 BYTE   PEND 
// 032   ----------------------------------------
 BYTE   PATT
  POIN2 Label_7_014DF6E2
// 033   ----------------------------------------
 BYTE   PATT
  POIN2 Label_7_014DF6FF
// 034   ----------------------------------------
 BYTE   PATT
  POIN2 Label_7_014DF71C
// 035   ----------------------------------------
Label_7_014DF760:
 BYTE   N12  Cn1  v127
 BYTE   N48  Cs2
 BYTE   W12
 BYTE   N12  Dn1
 BYTE   W12
 BYTE   N12
 BYTE   W12
 BYTE   N12
 BYTE   W12
 BYTE   Cn1
 BYTE   N36  Cs2  v096
 BYTE   W12
 BYTE   N12  Dn1  v127
 BYTE   W12
 BYTE   N12
 BYTE   W12
 BYTE   Cn1
 BYTE   N96  Cs2
 BYTE   W12
 BYTE   PEND 
// 036   ----------------------------------------
 BYTE   PATT
  POIN2 Label_7_014DF5B7
// 037   ----------------------------------------
 BYTE   PATT
  POIN2 Label_7_014DF64D
// 038   ----------------------------------------
 BYTE   PATT
  POIN2 Label_7_014DF5B7
// 039   ----------------------------------------
 BYTE   PATT
  POIN2 Label_7_014DF64D
// 040   ----------------------------------------
 BYTE   PATT
  POIN2 Label_7_014DF5B7
// 041   ----------------------------------------
 BYTE   PATT
  POIN2 Label_7_014DF64D
// 042   ----------------------------------------
 BYTE   PATT
  POIN2 Label_7_014DF5B7
// 043   ----------------------------------------
Label_7_014DF7A0:
 BYTE   N12  Cn1  v127
 BYTE   W12
 BYTE   N72  Cs2
 BYTE   N12  Dn2
 BYTE   W12
 BYTE   Cn2
 BYTE   W12
 BYTE   Bn1
 BYTE   W12
 BYTE   Dn1
 BYTE   N12  An1
 BYTE   W12
 BYTE   Dn1
 BYTE   N12  Gn1
 BYTE   W12
 BYTE   Dn1
 BYTE   N12  Fn1
 BYTE   W12
 BYTE   Cn1
 BYTE   N96  Cs2
 BYTE   W12
 BYTE   PEND 
// 044   ----------------------------------------
 BYTE   PATT
  POIN2 Label_7_014DF5B7
// 045   ----------------------------------------
 BYTE   PATT
  POIN2 Label_7_014DF64D
// 046   ----------------------------------------
 BYTE   PATT
  POIN2 Label_7_014DF5B7
// 047   ----------------------------------------
 BYTE   PATT
  POIN2 Label_7_014DF64D
// 048   ----------------------------------------
 BYTE   PATT
  POIN2 Label_7_014DF5B7
// 049   ----------------------------------------
 BYTE   PATT
  POIN2 Label_7_014DF64D
// 050   ----------------------------------------
 BYTE   PATT
  POIN2 Label_7_014DF5B7
// 051   ----------------------------------------
Label_7_014DF7E1:
 BYTE   N12  Dn1  v127
 BYTE   W12
 BYTE   Cn1
 BYTE   N84  Cs2
 BYTE   W36
 BYTE   N06  Cn1
 BYTE   W06
 BYTE   N06
 BYTE   W06
 BYTE   N06
 BYTE   W06
 BYTE   N06
 BYTE   W06
 BYTE   N12  Dn1
 BYTE   W24
 BYTE   PEND 
// 052   ----------------------------------------
 BYTE   PATT
  POIN2 Label_7_014DF54A
// 053   ----------------------------------------
 BYTE   PATT
  POIN2 Label_7_014DF59A
// 054   ----------------------------------------
 BYTE   PATT
  POIN2 Label_7_014DF5B7
// 055   ----------------------------------------
 BYTE   PATT
  POIN2 Label_7_014DF59A
// 056   ----------------------------------------
 BYTE   PATT
  POIN2 Label_7_014DF5D0
// 057   ----------------------------------------
 BYTE   PATT
  POIN2 Label_7_014DF5E7
// 058   ----------------------------------------
 BYTE   PATT
  POIN2 Label_7_014DF604
// 059   ----------------------------------------
 BYTE   PATT
  POIN2 Label_7_014DF61A
// 060   ----------------------------------------
 BYTE   PATT
  POIN2 Label_7_014DF54A
// 061   ----------------------------------------
 BYTE   PATT
  POIN2 Label_7_014DF64D
// 062   ----------------------------------------
 BYTE   PATT
  POIN2 Label_7_014DF5B7
// 063   ----------------------------------------
 BYTE   PATT
  POIN2 Label_7_014DF64D
// 064   ----------------------------------------
 BYTE   PATT
  POIN2 Label_7_014DF5B7
// 065   ----------------------------------------
 BYTE   PATT
  POIN2 Label_7_014DF64D
// 066   ----------------------------------------
 BYTE   PATT
  POIN2 Label_7_014DF5B7
// 067   ----------------------------------------
 BYTE   PATT
  POIN2 Label_7_014DF681
// 068   ----------------------------------------
 BYTE   PATT
  POIN2 Label_7_014DF5B7
// 069   ----------------------------------------
 BYTE   PATT
  POIN2 Label_7_014DF64D
// 070   ----------------------------------------
 BYTE   PATT
  POIN2 Label_7_014DF5B7
// 071   ----------------------------------------
 BYTE   PATT
  POIN2 Label_7_014DF64D
// 072   ----------------------------------------
 BYTE   PATT
  POIN2 Label_7_014DF5B7
// 073   ----------------------------------------
 BYTE   PATT
  POIN2 Label_7_014DF64D
// 074   ----------------------------------------
 BYTE   PATT
  POIN2 Label_7_014DF5B7
// 075   ----------------------------------------
 BYTE   PATT
  POIN2 Label_7_014DF6C5
// 076   ----------------------------------------
 BYTE   PATT
  POIN2 Label_7_014DF6E2
// 077   ----------------------------------------
 BYTE   PATT
  POIN2 Label_7_014DF6FF
// 078   ----------------------------------------
 BYTE   PATT
  POIN2 Label_7_014DF71C
// 079   ----------------------------------------
 BYTE   PATT
  POIN2 Label_7_014DF735
// 080   ----------------------------------------
 BYTE   PATT
  POIN2 Label_7_014DF6E2
// 081   ----------------------------------------
 BYTE   PATT
  POIN2 Label_7_014DF6FF
// 082   ----------------------------------------
 BYTE   PATT
  POIN2 Label_7_014DF71C
// 083   ----------------------------------------
 BYTE   PATT
  POIN2 Label_7_014DF760
// 084   ----------------------------------------
 BYTE   PATT
  POIN2 Label_7_014DF5B7
// 085   ----------------------------------------
 BYTE   PATT
  POIN2 Label_7_014DF64D
// 086   ----------------------------------------
 BYTE   PATT
  POIN2 Label_7_014DF5B7
// 087   ----------------------------------------
 BYTE   PATT
  POIN2 Label_7_014DF64D
// 088   ----------------------------------------
 BYTE   PATT
  POIN2 Label_7_014DF5B7
// 089   ----------------------------------------
 BYTE   PATT
  POIN2 Label_7_014DF64D
// 090   ----------------------------------------
 BYTE   PATT
  POIN2 Label_7_014DF5B7
// 091   ----------------------------------------
 BYTE   PATT
  POIN2 Label_7_014DF7A0
// 092   ----------------------------------------
 BYTE   PATT
  POIN2 Label_7_014DF5B7
// 093   ----------------------------------------
 BYTE   PATT
  POIN2 Label_7_014DF64D
// 094   ----------------------------------------
 BYTE   PATT
  POIN2 Label_7_014DF5B7
// 095   ----------------------------------------
 BYTE   PATT
  POIN2 Label_7_014DF64D
// 096   ----------------------------------------
 BYTE   PATT
  POIN2 Label_7_014DF5B7
// 097   ----------------------------------------
 BYTE   PATT
  POIN2 Label_7_014DF64D
// 098   ----------------------------------------
 BYTE   PATT
  POIN2 Label_7_014DF5B7
// 099   ----------------------------------------
 BYTE   PATT
  POIN2 Label_7_014DF7E1
// 100   ----------------------------------------
 BYTE   PATT
  POIN2 Label_7_014DF54A
// 101   ----------------------------------------
 BYTE   PATT
  POIN2 Label_7_014DF59A
// 102   ----------------------------------------
 BYTE   PATT
  POIN2 Label_7_014DF5B7
// 103   ----------------------------------------
 BYTE   PATT
  POIN2 Label_7_014DF59A
// 104   ----------------------------------------
 BYTE   PATT
  POIN2 Label_7_014DF5D0
// 105   ----------------------------------------
 BYTE   PATT
  POIN2 Label_7_014DF5E7
// 106   ----------------------------------------
 BYTE   PATT
  POIN2 Label_7_014DF604
// 107   ----------------------------------------
 BYTE   PATT
  POIN2 Label_7_014DF61A
// 108   ----------------------------------------
 BYTE   PATT
  POIN2 Label_7_014DF54A
// 109   ----------------------------------------
 BYTE   PATT
  POIN2 Label_7_014DF64D
// 110   ----------------------------------------
 BYTE   PATT
  POIN2 Label_7_014DF5B7
// 111   ----------------------------------------
 BYTE   PATT
  POIN2 Label_7_014DF64D
// 112   ----------------------------------------
 BYTE   PATT
  POIN2 Label_7_014DF5B7
// 113   ----------------------------------------
 BYTE   PATT
  POIN2 Label_7_014DF64D
// 114   ----------------------------------------
 BYTE   PATT
  POIN2 Label_7_014DF5B7
// 115   ----------------------------------------
 BYTE   PATT
  POIN2 Label_7_014DF681
// 116   ----------------------------------------
 BYTE   PATT
  POIN2 Label_7_014DF5B7
// 117   ----------------------------------------
 BYTE   PATT
  POIN2 Label_7_014DF64D
// 118   ----------------------------------------
 BYTE   PATT
  POIN2 Label_7_014DF5B7
// 119   ----------------------------------------
 BYTE   PATT
  POIN2 Label_7_014DF64D
// 120   ----------------------------------------
 BYTE   PATT
  POIN2 Label_7_014DF5B7
// 121   ----------------------------------------
 BYTE   PATT
  POIN2 Label_7_014DF64D
// 122   ----------------------------------------
 BYTE   PATT
  POIN2 Label_7_014DF5B7
// 123   ----------------------------------------
 BYTE   PATT
  POIN2 Label_7_014DF6C5
// 124   ----------------------------------------
 BYTE   PATT
  POIN2 Label_7_014DF6E2
// 125   ----------------------------------------
 BYTE   PATT
  POIN2 Label_7_014DF6FF
// 126   ----------------------------------------
 BYTE   PATT
  POIN2 Label_7_014DF71C
// 127   ----------------------------------------
 BYTE   PATT
  POIN2 Label_7_014DF735
// 128   ----------------------------------------
 BYTE   PATT
  POIN2 Label_7_014DF6E2
// 129   ----------------------------------------
 BYTE   PATT
  POIN2 Label_7_014DF6FF
// 130   ----------------------------------------
 BYTE   PATT
  POIN2 Label_7_014DF71C
// 131   ----------------------------------------
 BYTE   PATT
  POIN2 Label_7_014DF760
// 132   ----------------------------------------
 BYTE   PATT
  POIN2 Label_7_014DF5B7
// 133   ----------------------------------------
 BYTE   PATT
  POIN2 Label_7_014DF64D
// 134   ----------------------------------------
 BYTE   PATT
  POIN2 Label_7_014DF5B7
// 135   ----------------------------------------
 BYTE   PATT
  POIN2 Label_7_014DF64D
// 136   ----------------------------------------
 BYTE   PATT
  POIN2 Label_7_014DF5B7
// 137   ----------------------------------------
 BYTE   PATT
  POIN2 Label_7_014DF64D
// 138   ----------------------------------------
 BYTE   PATT
  POIN2 Label_7_014DF5B7
// 139   ----------------------------------------
 BYTE   PATT
  POIN2 Label_7_014DF7A0
// 140   ----------------------------------------
 BYTE   PATT
  POIN2 Label_7_014DF5B7
// 141   ----------------------------------------
 BYTE   PATT
  POIN2 Label_7_014DF64D
// 142   ----------------------------------------
 BYTE   PATT
  POIN2 Label_7_014DF5B7
// 143   ----------------------------------------
 BYTE   PATT
  POIN2 Label_7_014DF64D
// 144   ----------------------------------------
 BYTE   PATT
  POIN2 Label_7_014DF5B7
// 145   ----------------------------------------
 BYTE   PATT
  POIN2 Label_7_014DF64D
// 146   ----------------------------------------
 BYTE   PATT
  POIN2 Label_7_014DF5B7
// 147   ----------------------------------------
 BYTE   GoTo
  POIN2 Label_7_014DF7E1
// 148   ----------------------------------------
 BYTE   PATT
  POIN2 Label_7_014DF7E1
 BYTE   FINE

//******************************************************//
	ALIGN 4

CapAm:
	BYTE	8	// NumTrks
	BYTE	0	// NumBlks
	BYTE	CapAm_pri	// Priority
	BYTE	CapAm_rev	// Reverb.
    
	POIN2	CapAm_grp
    
	POIN2	CapAm_001
	POIN2	CapAm_002
	POIN2	CapAm_003
	POIN2	CapAm_004
	POIN2	CapAm_005
	POIN2	CapAm_006
	POIN2	CapAm_007
	POIN2	CapAm_008

	
