//Event file generated from Sappy .s format.
        #include "MPlayDef.event"

        #define    Dance_Brace_lesslessdrum_grp  voicegroup000
        #define    Dance_Brace_lesslessdrum_pri  0
        #define    Dance_Brace_lesslessdrum_rev  0
        #define    Dance_Brace_lesslessdrum_key  0

        // .rodata
        // Dance_Brace_lesslessdrum
        ALIGN 4

//****************** Track 0 (Midi-Chn.1) ******************//

Dance_Brace_lesslessdrum_0:
        BYTE   KEYSH   Dance_Brace_lesslessdrum_key+0
// 000   ----------------------------------------
        BYTE   TEMPO   176/2
        BYTE           VOICE   55
        BYTE           VOL     29
        BYTE   W06
        BYTE           N24     Fn3   v121
        BYTE   W01
        BYTE           N23     Fn5   v123
        BYTE   W68
        BYTE   W03
        BYTE           N11     Fn3   v110
        BYTE   W01
        BYTE           N10     Fn5   v113
        BYTE   W11
        BYTE           N24     Fn3   v121
        BYTE   W01
        BYTE           N23     Fn5   v123
        BYTE   W05
// 001   ----------------------------------------
        BYTE   W96
// 002   ----------------------------------------
        BYTE   W96
// 003   ----------------------------------------
        BYTE   W06
        BYTE           N24     Cs4   v121
        BYTE   W01
        BYTE           N23     Cs6   v123
        BYTE   W23
        BYTE           N11     Cs4   v110
        BYTE   W01
        BYTE           N10     Cs6   v113
        BYTE   W11
        BYTE           N24     Ds4   v121
        BYTE   W01
        BYTE           N23     Ds6   v123
        BYTE   W23
        BYTE                   Ds4   v121
        BYTE   W01
        BYTE           N22     Ds6   v123
        BYTE   W20
Dance_Brace_lesslessdrum_0_LOOP:
        BYTE   W03
        BYTE           N24     Fn3   v121
        BYTE   W01
        BYTE           N23     Fn5   v123
        BYTE   W05
// 004   ----------------------------------------
        BYTE   W96
// 005   ----------------------------------------
        BYTE   W96
// 006   ----------------------------------------
        BYTE   W96
// 007   ----------------------------------------
        BYTE   W96
// 008   ----------------------------------------
        BYTE   W96
// 009   ----------------------------------------
        BYTE   W96
// 010   ----------------------------------------
        BYTE   W96
// 011   ----------------------------------------
        BYTE   W96
// 012   ----------------------------------------
        BYTE   W96
// 013   ----------------------------------------
        BYTE   W96
// 014   ----------------------------------------
        BYTE   W96
// 015   ----------------------------------------
        BYTE   W96
// 016   ----------------------------------------
        BYTE   W90
        BYTE           N18     Cn4   v121
        BYTE   W01
        BYTE           N17     Cn6   v123
        BYTE   W05
// 017   ----------------------------------------
        BYTE   W18
        BYTE           N08     Cn4   v121
        BYTE   W01
        BYTE           N07     Cn6   v123
        BYTE   W11
        BYTE           N28     Cn4   v121
        BYTE   W01
        BYTE           N24     Cn6   v123   gtp3
        BYTE   W64
        BYTE   W01
// 018   ----------------------------------------
        BYTE   W96
// 019   ----------------------------------------
        BYTE   W96
// 020   ----------------------------------------
        BYTE   W96
// 021   ----------------------------------------
        BYTE   W96
// 022   ----------------------------------------
        BYTE   W96
// 023   ----------------------------------------
        BYTE   W96
// 024   ----------------------------------------
        BYTE   W96
// 025   ----------------------------------------
        BYTE   W96
// 026   ----------------------------------------
        BYTE   W06
        BYTE           N23     Fn3   v121
        BYTE   W01
        BYTE           N22     Fn5   v123
        BYTE   W32
        BYTE   W03
        BYTE           N23     Gn3   v121
        BYTE   W01
        BYTE           N22     Gn5   v123
        BYTE   W44
        BYTE   W03
        BYTE           N23     Gs3   v121
        BYTE   W01
        BYTE           N22     Gs5   v123
        BYTE   W05
// 027   ----------------------------------------
        BYTE   W42
        BYTE           N23     Cn4   v121
        BYTE   W01
        BYTE           N22     Cn6   v123
        BYTE   W52
        BYTE   W01
// 028   ----------------------------------------
        BYTE   W96
// 029   ----------------------------------------
        BYTE   W96
// 030   ----------------------------------------
        BYTE   W06
        BYTE           N23     As3   v121
        BYTE   W01
        BYTE           N22     As5   v123
        BYTE   W32
        BYTE   W03
        BYTE           N23     Gs3   v121
        BYTE   W01
        BYTE           N22     Gs5   v123
        BYTE   W32
        BYTE   W03
        BYTE           N23     Fn3   v121
        BYTE   W01
        BYTE           N22     Fn5   v123
        BYTE   W17
// 031   ----------------------------------------
        BYTE   W96
// 032   ----------------------------------------
Dance_Brace_lesslessdrum_0_32:
        BYTE   W78
        BYTE           N24     Cn4   v121
        BYTE   W01
        BYTE           N23     Cn6   v123
        BYTE   W17
        BYTE   PEND
// 033   ----------------------------------------
        BYTE   PATT
         POIN2  Dance_Brace_lesslessdrum_0_32
// 034   ----------------------------------------
Dance_Brace_lesslessdrum_0_34:
        BYTE   W90
        BYTE           N12     Cs3   v123
        BYTE   W01
        BYTE           N11     Cs5   v126
        BYTE   W05
        BYTE   PEND
// 035   ----------------------------------------
Dance_Brace_lesslessdrum_0_35:
        BYTE   W18
        BYTE           N12     Cs3   v123
        BYTE   W01
        BYTE           N11     Cs5   v126
        BYTE   W23
        BYTE           N12     Cs3   v123
        BYTE   W01
        BYTE           N11     Cs5   v126
        BYTE   W23
        BYTE           N12     Cs3   v123
        BYTE   W01
        BYTE           N11     Cs5   v126
        BYTE   W11
        BYTE           N24     Dn3   v123
        BYTE   W01
        BYTE           N23     Dn5   v126
        BYTE   W17
        BYTE   PEND
// 036   ----------------------------------------
        BYTE   W96
// 037   ----------------------------------------
        BYTE   W96
// 038   ----------------------------------------
        BYTE   W96
// 039   ----------------------------------------
        BYTE   W96
// 040   ----------------------------------------
        BYTE   W96
// 041   ----------------------------------------
        BYTE   W96
// 042   ----------------------------------------
        BYTE   PATT
         POIN2  Dance_Brace_lesslessdrum_0_34
// 043   ----------------------------------------
        BYTE   PATT
         POIN2  Dance_Brace_lesslessdrum_0_35
// 044   ----------------------------------------
        BYTE   W96
// 045   ----------------------------------------
        BYTE   W96
// 046   ----------------------------------------
        BYTE   W96
// 047   ----------------------------------------
        BYTE   W96
// 048   ----------------------------------------
        BYTE   W90
        BYTE           N19     En3   v121
        BYTE   W01
        BYTE           N18     En5   v123
        BYTE   W05
// 049   ----------------------------------------
        BYTE   W18
        BYTE           N07     En3   v121
        BYTE   W01
        BYTE           N06     En5   v123
        BYTE   W11
        BYTE           N17     En3   v121
        BYTE   W01
        BYTE           N16     En5   v123
        BYTE   W64
        BYTE   W01
// 050   ----------------------------------------
        BYTE   W96
// 051   ----------------------------------------
        BYTE   W96
// 052   ----------------------------------------
        BYTE   W96
// 053   ----------------------------------------
        BYTE   W06
        BYTE           N24     Cs4   v121
        BYTE   W01
        BYTE           N23     Cs6   v123
        BYTE   W23
        BYTE           N11     Cs4   v110
        BYTE   W01
        BYTE           N10     Cs6   v113
        BYTE   W11
        BYTE           N24     Ds4   v121
        BYTE   W01
        BYTE           N23     Ds6   v123
        BYTE   W23
        BYTE                   Ds4   v121
        BYTE   W01
        BYTE           N22     Ds6   v123
        BYTE   W21
        BYTE   GoTo
         POIN2  Dance_Brace_lesslessdrum_0_LOOP
        BYTE   W01
        BYTE   FINE

//****************** Track 1 (Midi-Chn.2) ******************//

Dance_Brace_lesslessdrum_1:
        BYTE   KEYSH   Dance_Brace_lesslessdrum_key+0
// 000   ----------------------------------------
        BYTE           VOICE   43
        BYTE           PAN     c_v+27
        BYTE           VOL     39
        BYTE   W96
// 001   ----------------------------------------
        BYTE   W96
// 002   ----------------------------------------
        BYTE   W96
// 003   ----------------------------------------
        BYTE   W84
        BYTE   W03
Dance_Brace_lesslessdrum_1_LOOP:
        BYTE   W09
// 004   ----------------------------------------
Dance_Brace_lesslessdrum_1_4:
        BYTE   W30
        BYTE           N23     Cn3   v118
        BYTE   W24
        BYTE           N11     Fn3
        BYTE   W12
        BYTE           N23     Gs3
        BYTE   W24
        BYTE                   Gn3
        BYTE   W06
        BYTE   PEND
// 005   ----------------------------------------
Dance_Brace_lesslessdrum_1_5:
        BYTE   W30
        BYTE           N23     Gn3   v118
        BYTE   W24
        BYTE                   Gs3
        BYTE   W24
        BYTE                   As3
        BYTE   W18
        BYTE   PEND
// 006   ----------------------------------------
Dance_Brace_lesslessdrum_1_6:
        BYTE   W06
        BYTE           N23     Cn4   v118
        BYTE   W24
        BYTE           N10     As3   v113
        BYTE   W12
        BYTE           N56     Gs3   v118   gtp3
        BYTE   W54
        BYTE   PEND
// 007   ----------------------------------------
        BYTE   W66
        BYTE           N11
        BYTE   W12
        BYTE           N09     Gn3   v113
        BYTE   W12
        BYTE                   Gs3
        BYTE   W06
// 008   ----------------------------------------
        BYTE   W06
        BYTE           N23     As3   v118
        BYTE   W24
        BYTE           N09     Gs3   v113
        BYTE   W11
        BYTE           N23     As3   v118
        BYTE   W36
        BYTE           N24     Fn3
        BYTE   W19
// 009   ----------------------------------------
        BYTE   W06
        BYTE           N23     As3
        BYTE   W24
        BYTE           N09     Gs3   v113
        BYTE   W12
        BYTE           N20     As3   v118
        BYTE   W24
        BYTE           N11     Gs3
        BYTE   W12
        BYTE           N09     Gn3   v113
        BYTE   W12
        BYTE                   Fn3
        BYTE   W06
// 010   ----------------------------------------
        BYTE   W06
        BYTE           N23     Gn3   v118
        BYTE   W24
        BYTE           N09     En3   v113
        BYTE   W12
        BYTE           N40     Cn4   v118   gtp1
        BYTE   W54
// 011   ----------------------------------------
        BYTE   W96
// 012   ----------------------------------------
        BYTE   PATT
         POIN2  Dance_Brace_lesslessdrum_1_4
// 013   ----------------------------------------
        BYTE   PATT
         POIN2  Dance_Brace_lesslessdrum_1_5
// 014   ----------------------------------------
        BYTE   PATT
         POIN2  Dance_Brace_lesslessdrum_1_6
// 015   ----------------------------------------
        BYTE   W66
        BYTE           N11     Gs3   v118
        BYTE   W12
        BYTE           N09     Gn3   v113
        BYTE   W12
        BYTE                   Ds3
        BYTE   W06
// 016   ----------------------------------------
        BYTE   W06
        BYTE           N23     Fn3   v118
        BYTE   W24
        BYTE           N07     Cs3   v113
        BYTE   W12
        BYTE           N21     Cs3   v118
        BYTE   W24
        BYTE           N11     Ds3
        BYTE   W12
        BYTE           N09     Fn3   v113
        BYTE   W12
        BYTE           N40     Ds3   v118   gtp1
        BYTE   W06
// 017   ----------------------------------------
        BYTE   W42
        BYTE           N11
        BYTE   W12
        BYTE           N17     As3
        BYTE   W18
        BYTE                   Gs3
        BYTE   W18
        BYTE           N10     Gn3
        BYTE   W06
// 018   ----------------------------------------
        BYTE   W06
        BYTE           N11
        BYTE   W12
        BYTE           N09     Fn3
        BYTE   W24
        BYTE           N44     Fn3   v118   gtp3
        BYTE   W54
// 019   ----------------------------------------
        BYTE   W96
// 020   ----------------------------------------
        BYTE   W96
// 021   ----------------------------------------
        BYTE   W96
// 022   ----------------------------------------
        BYTE   W96
// 023   ----------------------------------------
        BYTE   W96
// 024   ----------------------------------------
        BYTE   W96
// 025   ----------------------------------------
        BYTE   W96
// 026   ----------------------------------------
        BYTE   W96
// 027   ----------------------------------------
        BYTE   W96
// 028   ----------------------------------------
        BYTE   W96
// 029   ----------------------------------------
        BYTE   W96
// 030   ----------------------------------------
        BYTE   W96
// 031   ----------------------------------------
        BYTE   W96
// 032   ----------------------------------------
        BYTE   W96
// 033   ----------------------------------------
        BYTE   W96
// 034   ----------------------------------------
        BYTE   W96
// 035   ----------------------------------------
Dance_Brace_lesslessdrum_1_35:
        BYTE   W30
        BYTE           N23     En3   v121
        BYTE   W24
        BYTE                   En4
        BYTE   W24
        BYTE                   Dn4
        BYTE   W18
        BYTE   PEND
// 036   ----------------------------------------
Dance_Brace_lesslessdrum_1_36:
        BYTE   W06
        BYTE           N28     Cs4   v121   gtp1
        BYTE   W36
        BYTE                   Fs3
        BYTE   W36
        BYTE           N11     Gs3
        BYTE   W12
        BYTE           N17     An3
        BYTE   W06
        BYTE   PEND
// 037   ----------------------------------------
Dance_Brace_lesslessdrum_1_37:
        BYTE   W30
        BYTE           N23     Gs3   v121
        BYTE   W24
        BYTE           N17     An3
        BYTE   W24
        BYTE                   Cs4
        BYTE   W18
        BYTE   PEND
// 038   ----------------------------------------
        BYTE   W06
        BYTE           N28     En4   v121   gtp1
        BYTE   W36
        BYTE                   Cs4
        BYTE   W36
        BYTE           N11     Bn3
        BYTE   W12
        BYTE           N17     Cs4
        BYTE   W06
// 039   ----------------------------------------
        BYTE   W54
        BYTE                   Fs4
        BYTE   W24
        BYTE                   An4
        BYTE   W18
// 040   ----------------------------------------
        BYTE   W06
        BYTE           N30     Gs4   v121   gtp1
        BYTE   W36
        BYTE           N32     Fs4   v121   gtp3
        BYTE   W36
        BYTE           N17     Bn3
        BYTE   W18
// 041   ----------------------------------------
        BYTE   W06
        BYTE           N23     An3
        BYTE   W24
        BYTE           N17     Fs3
        BYTE   W24
        BYTE                   An3
        BYTE   W24
        BYTE                   Bn3
        BYTE   W18
// 042   ----------------------------------------
        BYTE   W06
        BYTE           N11
        BYTE   W12
        BYTE           N08     An3
        BYTE   W12
        BYTE                   Gs3
        BYTE   W12
        BYTE           N52     Cs4   v121   gtp1
        BYTE   W54
// 043   ----------------------------------------
        BYTE   PATT
         POIN2  Dance_Brace_lesslessdrum_1_35
// 044   ----------------------------------------
        BYTE   PATT
         POIN2  Dance_Brace_lesslessdrum_1_36
// 045   ----------------------------------------
        BYTE   PATT
         POIN2  Dance_Brace_lesslessdrum_1_37
// 046   ----------------------------------------
        BYTE   W06
        BYTE           N30     En4   v121   gtp1
        BYTE   W36
        BYTE           N32     Cs4   v121   gtp3
        BYTE   W36
        BYTE           N11     Bn3
        BYTE   W12
        BYTE           N17     Cs4
        BYTE   W06
// 047   ----------------------------------------
        BYTE   W30
        BYTE           N23
        BYTE   W24
        BYTE           N17     Bn3
        BYTE   W24
        BYTE                   Cs4
        BYTE   W18
// 048   ----------------------------------------
        BYTE   W06
        BYTE           N19     Fs3
        BYTE   W24
        BYTE           N11
        BYTE   W12
        BYTE           N44     Bn3   v121   gtp3
        BYTE   W54
// 049   ----------------------------------------
        BYTE   W30
        BYTE           N23
        BYTE   W24
        BYTE           N17     En4
        BYTE   W24
        BYTE                   Cs4
        BYTE   W18
// 050   ----------------------------------------
        BYTE   W06
        BYTE           N32     En4
        BYTE   W36
        BYTE           TIE     Fs4
        BYTE   W54
// 051   ----------------------------------------
        BYTE   W92
        BYTE   W03
        BYTE           EOT
        BYTE   W01
// 052   ----------------------------------------
        BYTE   W96
// 053   ----------------------------------------
        BYTE   W88
        BYTE   GoTo
         POIN2  Dance_Brace_lesslessdrum_1_LOOP
        BYTE   W01
        BYTE   FINE

//****************** Track 2 (Midi-Chn.3) ******************//

Dance_Brace_lesslessdrum_2:
        BYTE   KEYSH   Dance_Brace_lesslessdrum_key+0
// 000   ----------------------------------------
        BYTE           VOICE   26
        BYTE           VOL     20
        BYTE           PAN     c_v-25
        BYTE   W06
        BYTE           N12     Fn2   v098
        BYTE           N12     Cn3
        BYTE   W01
        BYTE                   Gs3
        BYTE   W68
        BYTE   W02
        BYTE           N11     Fn2
        BYTE   W01
        BYTE                   Cn3
        BYTE           N10     Gs3
        BYTE   W11
        BYTE           N14     Fn3
        BYTE   W01
        BYTE                   Gs2
        BYTE           N14     Cs2
        BYTE   W06
// 001   ----------------------------------------
        BYTE   W76
        BYTE   W01
        BYTE           N18
        BYTE   W01
        BYTE                   Gs2
        BYTE           N18     Fn3
        BYTE   W18
// 002   ----------------------------------------
        BYTE   W04
        BYTE           N24     Cn2
        BYTE   W01
        BYTE                   Gn2
        BYTE   W01
        BYTE           N23     Ds3
        BYTE   W23
        BYTE           N03     Cn2   v084
        BYTE   W01
        BYTE                   Gn2
        BYTE           N03     Ds3
        BYTE   W10
        BYTE           N54     Gn3   v098
        BYTE   W01
        BYTE                   Cn3
        BYTE   W01
        BYTE                   Ds2
        BYTE   W01
        BYTE                   Gs1   v091
        BYTE   W52
        BYTE   W01
// 003   ----------------------------------------
        BYTE   W05
        BYTE           N18     As1   v098
        BYTE   W01
        BYTE                   Fn2
        BYTE           N18     Cs3
        BYTE   W23
        BYTE           N03     As1   v084
        BYTE   W01
        BYTE                   Fn2
        BYTE           N03     Cs3
        BYTE   W11
        BYTE           N14     Ds3   v098
        BYTE   W01
        BYTE                   Gn2
        BYTE           N14     Cn2
        BYTE   W23
        BYTE                   Ds3
        BYTE   W01
        BYTE                   Gn2
        BYTE           N14     Cn2
        BYTE   W21
Dance_Brace_lesslessdrum_2_LOOP:
        BYTE   W03
        BYTE           TIE     Fn1   v068
        BYTE   W06
// 004   ----------------------------------------
        BYTE   W18
        BYTE           N78     Cn2
        BYTE   W12
        BYTE           N66     Gs2
        BYTE   W12
        BYTE           N54     Fn3
        BYTE   W54
// 005   ----------------------------------------
        BYTE           EOT     Fn1
        BYTE   W06
        BYTE           N90     Cn2
        BYTE   W12
        BYTE           N78     Gn2
        BYTE   W12
        BYTE           N66     Cn3
        BYTE   W12
        BYTE           N54     Gn3
        BYTE   W54
// 006   ----------------------------------------
Dance_Brace_lesslessdrum_2_6:
        BYTE   W06
        BYTE           N78     Cs2   v068
        BYTE   W12
        BYTE           N54     Gs2
        BYTE   W12
        BYTE           N66     Fn3
        BYTE   W12
        BYTE           N54     Gs3
        BYTE   W24
        BYTE           N30     Cs3
        BYTE   W12
        BYTE           N18     Gs2
        BYTE   W12
        BYTE           N11     Cs2
        BYTE   W06
        BYTE   PEND
// 007   ----------------------------------------
Dance_Brace_lesslessdrum_2_7:
        BYTE   W06
        BYTE           N90     Gs1   v068
        BYTE   W12
        BYTE           N78     Ds2
        BYTE   W12
        BYTE           N66     Cn3
        BYTE   W12
        BYTE           N54     Gs3
        BYTE   W54
        BYTE   PEND
// 008   ----------------------------------------
        BYTE   W06
        BYTE           N84     As1
        BYTE   W12
        BYTE           N54     Fn2
        BYTE   W12
        BYTE           N30     Cs3
        BYTE   W12
        BYTE           N54     Fn3
        BYTE   W24
        BYTE           N30     Cs3
        BYTE   W12
        BYTE           N17     Fn2
        BYTE   W12
        BYTE           N11     Cs2
        BYTE   W06
// 009   ----------------------------------------
        BYTE   W06
        BYTE           N90     As1
        BYTE   W12
        BYTE           N54     Fn2
        BYTE   W12
        BYTE           N30     Cs3
        BYTE   W12
        BYTE           N54     Gs3
        BYTE   W24
        BYTE           N30     Cs3
        BYTE   W12
        BYTE           N17     Fn2
        BYTE   W12
        BYTE           N11     Cs2
        BYTE   W06
// 010   ----------------------------------------
        BYTE   W06
        BYTE           N78     Cn2
        BYTE   W12
        BYTE           N66     Gn2
        BYTE   W12
        BYTE           N54     En3
        BYTE   W12
        BYTE           N42     Gn3
        BYTE   W48
        BYTE           N23     Cs2   v095
        BYTE   W06
// 011   ----------------------------------------
        BYTE   W18
        BYTE           N11
        BYTE   W12
        BYTE           N23     Cn2   v087
        BYTE   W24
        BYTE                   As1   v095
        BYTE   W24
        BYTE           N11     Gn1
        BYTE   W12
        BYTE                   Fn1
        BYTE   W06
// 012   ----------------------------------------
        BYTE   W06
        BYTE           N90     Fn1   v068
        BYTE   W12
        BYTE           N78     Cn2
        BYTE   W12
        BYTE           N66     Gs2
        BYTE   W12
        BYTE           N54     Fn3
        BYTE   W54
// 013   ----------------------------------------
        BYTE   W06
        BYTE           N90     Cn2
        BYTE   W12
        BYTE           N78     Gn2
        BYTE   W12
        BYTE           N66     Cn3
        BYTE   W12
        BYTE           N54     Gn3
        BYTE   W54
// 014   ----------------------------------------
        BYTE   PATT
         POIN2  Dance_Brace_lesslessdrum_2_6
// 015   ----------------------------------------
        BYTE   PATT
         POIN2  Dance_Brace_lesslessdrum_2_7
// 016   ----------------------------------------
        BYTE   W06
        BYTE           N78     As1   v068
        BYTE   W12
        BYTE           N54     Fn2
        BYTE   W12
        BYTE           N30     Cs3
        BYTE   W12
        BYTE           N42     Fn3
        BYTE   W24
        BYTE           N18     Cs3
        BYTE   W12
        BYTE           N05     Fn2
        BYTE   W11
        BYTE           N12     Cn2   v073
        BYTE   W01
        BYTE                   Gn2   v068
        BYTE           N12     Ds3
        BYTE   W06
// 017   ----------------------------------------
        BYTE   W17
        BYTE           N04
        BYTE   W01
        BYTE                   Gn2   v063
        BYTE           N04     Cn2
        BYTE   W11
        BYTE           N12     Cn2   v073
        BYTE   W01
        BYTE                   Gn2   v068
        BYTE           N12     Ds3
        BYTE   W32
        BYTE   W03
        BYTE           N30     Cn2   v073
        BYTE   W01
        BYTE                   Gn2   v068
        BYTE           N23     Ds3
        BYTE   W24
        BYTE           N12     Ds3   v063
        BYTE   W06
// 018   ----------------------------------------
        BYTE   W06
        BYTE           N78     Fn1   v068
        BYTE   W12
        BYTE           N54     Cn2
        BYTE   W12
        BYTE           N30     Gs2
        BYTE   W12
        BYTE           N42     Fn3
        BYTE   W24
        BYTE           N18     Gs2
        BYTE   W12
        BYTE           N06     Cn2
        BYTE   W12
        BYTE           N23     Bn1   v122
        BYTE   W06
// 019   ----------------------------------------
        BYTE   W18
        BYTE           N11
        BYTE   W12
        BYTE           N23     As1   v111
        BYTE   W24
        BYTE                   Gs1   v122
        BYTE   W24
        BYTE                   Fn1
        BYTE   W18
// 020   ----------------------------------------
        BYTE   W06
        BYTE           TIE     Cn2   v104
        BYTE   W36
        BYTE           N90     Gn2
        BYTE   W36
        BYTE           TIE     Ds3
        BYTE   W18
// 021   ----------------------------------------
        BYTE   W18
        BYTE           N11     Cn3   v091
        BYTE   W12
        BYTE           N06     As2
        BYTE   W12
        BYTE           N54     Gn2
        BYTE   W24
        BYTE           EOT     Cn2
        BYTE           N11     Ds2
        BYTE   W12
        BYTE           N18     Cn2
        BYTE   W18
// 022   ----------------------------------------
        BYTE           EOT     Ds3
        BYTE   W06
        BYTE           TIE     Fn1   v104
        BYTE   W36
        BYTE                   Cn2
        BYTE   W36
        BYTE           N78     Gs2
        BYTE   W18
// 023   ----------------------------------------
        BYTE   W18
        BYTE           N12     Cn3   v091
        BYTE   W12
        BYTE           N66     Ds3
        BYTE   W12
        BYTE           N24     Cn3
        BYTE   W24
        BYTE           N30     Gs2
        BYTE   W06
        BYTE           EOT     Cn2
        BYTE   W06
        BYTE           N18
        BYTE   W18
// 024   ----------------------------------------
        BYTE           EOT     Fn1
        BYTE   W06
        BYTE           N78     As1   v104
        BYTE   W36
        BYTE           N42     Fn2
        BYTE   W24
        BYTE           N18     Cs3
        BYTE   W24
        BYTE           N78     Cn2
        BYTE   W06
// 025   ----------------------------------------
        BYTE   W18
        BYTE                   Gn2
        BYTE   W12
        BYTE           N30     Cn3
        BYTE   W12
        BYTE           N54     En3
        BYTE   W24
        BYTE           N28     Cn3   v104   gtp1
        BYTE   W12
        BYTE           N18     Cn2   v098
        BYTE   W18
// 026   ----------------------------------------
        BYTE   W05
        BYTE           N30     Fn1
        BYTE   W01
        BYTE                   Cn2   v091
        BYTE           N30     As2
        BYTE   W32
        BYTE   W03
        BYTE                   Gs2   v098
        BYTE   W01
        BYTE                   Cn2   v091
        BYTE           N30     Fn1
        BYTE   W32
        BYTE   W03
        BYTE           N03     Fn1   v084
        BYTE   W01
        BYTE                   Cn2   v076
        BYTE           N03     Gs2
        BYTE   W11
        BYTE           N30     Gs2   v098
        BYTE   W01
        BYTE                   Cn2   v091
        BYTE           N30     Fn1
        BYTE   W06
// 027   ----------------------------------------
        BYTE   W28
        BYTE   W01
        BYTE           N03     Fn1   v084
        BYTE   W01
        BYTE                   Cn2   v076
        BYTE           N03     Gs2
        BYTE   W11
        BYTE           N30     Gs2   v098
        BYTE   W01
        BYTE                   Cn2   v091
        BYTE           N18     Fn1
        BYTE   W24
        BYTE           N03     Fn1   v104
        BYTE   W11
        BYTE           N18     Gs2   v098
        BYTE   W01
        BYTE                   Cn2   v091
        BYTE           N18     Fn1
        BYTE   W18
// 028   ----------------------------------------
        BYTE   W06
        BYTE           N78     Cs2   v121
        BYTE   W12
        BYTE           N54     Gs2
        BYTE   W12
        BYTE           N66     Fn3
        BYTE   W12
        BYTE           N54     Gs3
        BYTE   W24
        BYTE           N30     Cs3
        BYTE   W12
        BYTE           N18     Gs2
        BYTE   W12
        BYTE           N11     Cs2
        BYTE   W06
// 029   ----------------------------------------
        BYTE   W06
        BYTE           N54     Cn2
        BYTE   W12
        BYTE                   Gn2
        BYTE   W12
        BYTE           N66     Cn3
        BYTE   W12
        BYTE           N54     Gn3
        BYTE   W23
        BYTE           N30     Cn2   v127
        BYTE   W12
        BYTE           N18     Gn2
        BYTE   W19
// 030   ----------------------------------------
        BYTE   W05
        BYTE           N30     Fn1
        BYTE           N30     Cn2
        BYTE   W01
        BYTE                   As2
        BYTE           N30     Ds3
        BYTE   W32
        BYTE   W03
        BYTE                   Cs3
        BYTE   W01
        BYTE                   Fn2
        BYTE           N30     Gs1
        BYTE   W32
        BYTE   W03
        BYTE                   As1
        BYTE   W01
        BYTE                   Fn2
        BYTE           N30     Ds3
        BYTE   W18
// 031   ----------------------------------------
        BYTE   W17
        BYTE           N18     Dn3
        BYTE   W01
        BYTE                   Fn2
        BYTE           N18     As1
        BYTE   W23
        BYTE                   Dn3
        BYTE   W01
        BYTE           N30     Fn2
        BYTE           N42     As1
        BYTE   W24
        BYTE           N30     Dn3
        BYTE   W12
        BYTE           N18     Fn2
        BYTE   W12
        BYTE           N06     As1
        BYTE   W06
// 032   ----------------------------------------
Dance_Brace_lesslessdrum_2_32:
        BYTE   W05
        BYTE           N18     Cn2   v127
        BYTE   W01
        BYTE                   Gs2
        BYTE           N18     Fn3
        BYTE   W23
        BYTE           N03     Cn2   v112
        BYTE   W01
        BYTE                   Gs2
        BYTE           N03     Fn3
        BYTE   W11
        BYTE           N18     En3   v127
        BYTE   W01
        BYTE                   Gn2
        BYTE           N18     Cn2
        BYTE   W23
        BYTE           N03     En3   v112
        BYTE   W01
        BYTE                   Gn2
        BYTE           N03     Cn2
        BYTE   W11
        BYTE           N18     Cn2   v127
        BYTE   W01
        BYTE                   Gn2
        BYTE           N18     En3
        BYTE   W18
        BYTE   PEND
// 033   ----------------------------------------
        BYTE   PATT
         POIN2  Dance_Brace_lesslessdrum_2_32
// 034   ----------------------------------------
        BYTE   W05
        BYTE           N18     Bn1   v127
        BYTE           N18     Fs2
        BYTE   W01
        BYTE                   Dn3
        BYTE           N18     An3
        BYTE   W23
        BYTE           N03     Bn1   v112
        BYTE   W01
        BYTE                   Fs2
        BYTE           N03     Dn3
        BYTE   W11
        BYTE           N18     Dn3   v127
        BYTE   W01
        BYTE                   Fs2
        BYTE           N18     Bn1
        BYTE           N18     Fs3
        BYTE   W23
        BYTE           N03     Fs3   v112
        BYTE   W01
        BYTE                   Gs2
        BYTE           N03     Cs2
        BYTE   W11
        BYTE                   Cs2
        BYTE   W01
        BYTE                   Gs2
        BYTE           N03     Fs3
        BYTE   W11
        BYTE           N12     Cs2   v127
        BYTE           N12     Gs2
        BYTE   W01
        BYTE                   Fs3
        BYTE   W06
// 035   ----------------------------------------
        BYTE   W17
        BYTE           N06
        BYTE   W01
        BYTE                   Gs2
        BYTE           N06     Cs2
        BYTE   W23
        BYTE                   En3
        BYTE   W01
        BYTE                   Gs2
        BYTE           N06     Cs2
        BYTE   W23
        BYTE                   En3
        BYTE   W01
        BYTE                   Gs2
        BYTE           N06     Cs2
        BYTE   W11
        BYTE           N18     Dn2
        BYTE           N18     Gs2
        BYTE   W01
        BYTE                   Fn3
        BYTE   W18
// 036   ----------------------------------------
        BYTE   W06
        BYTE           TIE     Fs1   v091
        BYTE   W12
        BYTE                   Cs2
        BYTE   W12
        BYTE           N42     An2
        BYTE   W12
        BYTE                   Fs3
        BYTE   W24
        BYTE           N54     Cs3
        BYTE   W12
        BYTE                   Fs2
        BYTE   W12
        BYTE           N24     An3
        BYTE   W06
// 037   ----------------------------------------
        BYTE   W18
        BYTE           N78     Fs3
        BYTE   W12
        BYTE           N66     Cs3
        BYTE   W12
        BYTE           N54     Fs2
        BYTE   W18
        BYTE           EOT     Cs2
        BYTE   W06
        BYTE           N30
        BYTE   W06
        BYTE           EOT     Fs1
        BYTE   W06
        BYTE           N18
        BYTE   W18
// 038   ----------------------------------------
        BYTE   W06
        BYTE           TIE     Dn2
        BYTE   W12
        BYTE                   An2
        BYTE   W12
        BYTE           N54     Fs3
        BYTE   W12
        BYTE           N42     Dn4
        BYTE   W24
        BYTE           N24     An3
        BYTE   W12
        BYTE           N30     Dn3
        BYTE   W12
        BYTE           N24     Fs3
        BYTE   W06
// 039   ----------------------------------------
        BYTE   W18
        BYTE           N78     Dn3
        BYTE   W06
        BYTE           EOT     An2
        BYTE   W06
        BYTE           N66
        BYTE   W06
        BYTE           EOT     Dn2
        BYTE   W06
        BYTE           N30
        BYTE   W24
        BYTE                   An1
        BYTE   W12
        BYTE           N18     Dn2
        BYTE   W18
// 040   ----------------------------------------
        BYTE   W06
        BYTE           TIE     Bn1
        BYTE   W12
        BYTE                   Fs2
        BYTE   W12
        BYTE           N42     Dn3
        BYTE   W12
        BYTE                   Bn3
        BYTE   W24
        BYTE           N54     Fs3
        BYTE   W12
        BYTE                   Bn2
        BYTE   W12
        BYTE           N24     Dn4
        BYTE   W06
// 041   ----------------------------------------
        BYTE   W18
        BYTE           N78     Bn3
        BYTE   W12
        BYTE           N66     Fs3
        BYTE   W12
        BYTE           N54     Bn2
        BYTE   W18
        BYTE           EOT     Fs2
        BYTE   W06
        BYTE           N30
        BYTE   W06
        BYTE           EOT     Bn1
        BYTE   W06
        BYTE           N18
        BYTE   W18
// 042   ----------------------------------------
        BYTE   W06
        BYTE           N78     Cs2
        BYTE   W12
        BYTE           N42     Gs2
        BYTE   W12
        BYTE           N54     En3
        BYTE   W12
        BYTE           N42     Cs3
        BYTE   W24
        BYTE           N18     An2
        BYTE   W12
        BYTE           N06     Fs2
        BYTE   W11
        BYTE           N12     Cs2   v098
        BYTE           N12     Gs2
        BYTE   W01
        BYTE                   Fs3
        BYTE   W06
// 043   ----------------------------------------
        BYTE   W17
        BYTE           N06
        BYTE   W01
        BYTE                   Gs2
        BYTE           N06     Cs2
        BYTE   W23
        BYTE                   En3
        BYTE   W01
        BYTE                   Gs2
        BYTE           N06     Cs2
        BYTE   W23
        BYTE                   En3
        BYTE   W01
        BYTE                   Gs2
        BYTE           N06     Cs2
        BYTE   W11
        BYTE           N18     Dn2
        BYTE           N18     Gs2
        BYTE   W01
        BYTE                   Fn3
        BYTE   W18
// 044   ----------------------------------------
        BYTE   W06
        BYTE           N78     Fs1   v091
        BYTE   W12
        BYTE           N66     Cs2
        BYTE   W12
        BYTE           N54     An2
        BYTE   W12
        BYTE           N24     Fs3
        BYTE   W24
        BYTE           N18     Cs3
        BYTE   W12
        BYTE           N06     Fs2
        BYTE   W12
        BYTE           TIE     En1   v098
        BYTE   W06
// 045   ----------------------------------------
        BYTE   W18
        BYTE           N66     Bn1   v091
        BYTE   W12
        BYTE           N36     Bn2
        BYTE   W12
        BYTE           N23     En3
        BYTE   W24
        BYTE           N30     Bn2
        BYTE   W12
        BYTE           N18     Gs2
        BYTE   W12
        BYTE           N06     Bn1
        BYTE   W06
// 046   ----------------------------------------
        BYTE           EOT     En1
        BYTE   W06
        BYTE           N78     Dn2
        BYTE   W12
        BYTE           N66     An2
        BYTE   W12
        BYTE           N54     Fs3
        BYTE   W12
        BYTE           N23     Dn4
        BYTE   W24
        BYTE           N18     An3
        BYTE   W12
        BYTE           N06     Dn3
        BYTE   W12
        BYTE           TIE     Cs2   v098
        BYTE   W06
// 047   ----------------------------------------
        BYTE   W18
        BYTE           N78     Gs2   v091
        BYTE   W12
        BYTE           N18     An3
        BYTE   W12
        BYTE           N54     Cs4
        BYTE   W12
        BYTE           N42     Gs3   v098
        BYTE   W12
        BYTE           N11     En3
        BYTE   W12
        BYTE           N18     Cs3   v091
        BYTE   W18
// 048   ----------------------------------------
        BYTE           EOT     Cs2
        BYTE   W06
        BYTE           N78     Bn1
        BYTE   W12
        BYTE           N54     Fs2
        BYTE   W12
        BYTE                   Dn3
        BYTE   W12
        BYTE           N23     Fs3
        BYTE   W24
        BYTE           N18     Bn2
        BYTE   W12
        BYTE           N06     Fs2
        BYTE   W12
        BYTE           N12     Cs2   v098
        BYTE           N12     Gs2   v091
        BYTE   W01
        BYTE                   Fs3
        BYTE   W05
// 049   ----------------------------------------
        BYTE   W18
        BYTE           N04
        BYTE           N04     Gs2   v084
        BYTE   W01
        BYTE                   Cs2
        BYTE   W11
        BYTE           N12     Cs2   v098
        BYTE           N12     Gs2   v091
        BYTE   W01
        BYTE                   En3
        BYTE   W64
        BYTE   W01
// 050   ----------------------------------------
        BYTE   W06
        BYTE           N78     Fs1
        BYTE   W12
        BYTE           N54     Cs2
        BYTE   W12
        BYTE           N11     Bn2
        BYTE   W12
        BYTE           N78     An2
        BYTE   W24
        BYTE           N54     Fs2
        BYTE   W12
        BYTE           N30     Cs2
        BYTE   W12
        BYTE           N78     Fs1
        BYTE   W06
// 051   ----------------------------------------
        BYTE   W18
        BYTE                   Cs2
        BYTE   W12
        BYTE           N66     An2
        BYTE   W12
        BYTE           N54     Fs3
        BYTE   W24
        BYTE           N30     Fs2
        BYTE   W12
        BYTE           N24     Fs1
        BYTE   W18
// 052   ----------------------------------------
        BYTE   W06
        BYTE           N90
        BYTE   W12
        BYTE           N54     Cs2
        BYTE   W12
        BYTE           N11     Bn2
        BYTE   W12
        BYTE           N54     An2
        BYTE   W24
        BYTE           N30     Fs2
        BYTE   W12
        BYTE           N18     Cs2
        BYTE   W18
// 053   ----------------------------------------
        BYTE   W05
        BYTE                   As1   v098
        BYTE   W01
        BYTE                   Fn2
        BYTE           N18     Cs3
        BYTE   W23
        BYTE           N03     As1   v084
        BYTE   W01
        BYTE                   Fn2
        BYTE           N03     Cs3
        BYTE   W11
        BYTE           N14     Ds3   v098
        BYTE   W01
        BYTE                   Gn2
        BYTE           N14     Cn2
        BYTE   W23
        BYTE                   Ds3
        BYTE   W01
        BYTE                   Gn2
        BYTE           N14     Cn2
        BYTE   W22
        BYTE   GoTo
         POIN2  Dance_Brace_lesslessdrum_2_LOOP
        BYTE   W01
        BYTE   FINE

//****************** Track 3 (Midi-Chn.4) ******************//

Dance_Brace_lesslessdrum_3:
        BYTE   KEYSH   Dance_Brace_lesslessdrum_key+0
// 000   ----------------------------------------
        BYTE           VOICE   114
        BYTE           VOL     25
        BYTE   W06
        BYTE           N07     Fn1   v087
        BYTE   W06
        BYTE                   Gs1
        BYTE   W06
        BYTE                   Cn2
        BYTE   W05
        BYTE           N05     Fn1   v071
        BYTE   W01
        BYTE           N07     Fn2   v087
        BYTE   W05
        BYTE           N05     Gs1   v071
        BYTE   W01
        BYTE           N07     Gs2   v087
        BYTE   W05
        BYTE           N05     Cn2   v071
        BYTE   W01
        BYTE           N07     Cn3   v087
        BYTE   W05
        BYTE           N05     Fn2   v071
        BYTE   W01
        BYTE           N07     Fn3   v087
        BYTE   W05
        BYTE           N05     Gs2   v071
        BYTE   W01
        BYTE           N07     Gs3   v087
        BYTE   W05
        BYTE           N05     Cn3   v071
        BYTE   W01
        BYTE           N07     Cn4   v087
        BYTE   W05
        BYTE           N05     Fn3   v071
        BYTE   W01
        BYTE           N07     Fn4   v087
        BYTE   W05
        BYTE           N05     Gs3   v071
        BYTE   W01
        BYTE           N07     Gs4   v087
        BYTE   W05
        BYTE           N05     Cn4   v071
        BYTE   W01
        BYTE           N07     Cn5   v087
        BYTE   W05
        BYTE           N05     Fn4   v071
        BYTE   W01
        BYTE           N07     Fn5   v087
        BYTE   W05
        BYTE           N05     Gs4   v071
        BYTE   W01
        BYTE           N07     Gs5   v087
        BYTE   W05
        BYTE           N05     Cn5   v071
        BYTE   W01
        BYTE           N07     Cn6   v087
        BYTE   W05
        BYTE           N05     Fn5   v071
        BYTE   W01
// 001   ----------------------------------------
        BYTE           N07     Fn6   v087
        BYTE   W05
        BYTE           N05     Gs5   v071
        BYTE   W01
        BYTE           N07     Fn1   v087
        BYTE   W05
        BYTE           N05     Cn6   v071
        BYTE   W01
        BYTE           N07     Gs1   v087
        BYTE   W05
        BYTE           N05     Fn6   v071
        BYTE   W01
        BYTE           N07     Cs2   v087
        BYTE   W05
        BYTE           N05     Fn1   v071
        BYTE   W01
        BYTE           N07     Fn2   v087
        BYTE   W05
        BYTE           N05     Gs1   v071
        BYTE   W01
        BYTE           N07     Gs2   v087
        BYTE   W05
        BYTE           N05     Cs2   v071
        BYTE   W01
        BYTE           N07     Cs3   v087
        BYTE   W05
        BYTE           N05     Fn2   v071
        BYTE   W01
        BYTE           N07     Fn3   v087
        BYTE   W05
        BYTE           N05     Gs2   v071
        BYTE   W01
        BYTE           N07     Gs3   v087
        BYTE   W05
        BYTE           N05     Cs3   v071
        BYTE   W01
        BYTE           N07     Cs4   v087
        BYTE   W05
        BYTE           N05     Fn3   v071
        BYTE   W01
        BYTE           N07     Fn4   v087
        BYTE   W05
        BYTE           N05     Gs3   v071
        BYTE   W01
        BYTE           N07     Gs4   v087
        BYTE   W05
        BYTE           N05     Cs4   v071
        BYTE   W01
        BYTE           N07     Cs5   v087
        BYTE   W05
        BYTE           N05     Fn4   v071
        BYTE   W01
        BYTE           N07     Fn5   v087
        BYTE   W05
        BYTE           N05     Gs4   v071
        BYTE   W01
        BYTE           N07     Gs5   v087
        BYTE   W05
        BYTE           N05     Cs5   v071
        BYTE   W01
        BYTE           N07     Cs6   v087
        BYTE   W05
        BYTE           N05     Fn5   v071
        BYTE   W01
// 002   ----------------------------------------
        BYTE           N07     Fn6   v087
        BYTE   W05
        BYTE           N05     Gs5   v071
        BYTE   W06
        BYTE                   Cs6
        BYTE   W06
        BYTE                   Fn6
        BYTE   W78
        BYTE   W01
// 003   ----------------------------------------
        BYTE   W84
        BYTE   W03
Dance_Brace_lesslessdrum_3_LOOP:
        BYTE   W09
// 004   ----------------------------------------
Dance_Brace_lesslessdrum_3_4:
        BYTE   W06
        BYTE           PAN     c_v-48
        BYTE   W12
        BYTE           N05     Fn3   v094
        BYTE   W06
        BYTE           N04     Cn4
        BYTE   W06
        BYTE                   Fn3
        BYTE   W06
        BYTE                   Cn4
        BYTE   W06
        BYTE           N05     Fn4
        BYTE   W06
        BYTE           N04     Cn4
        BYTE   W06
        BYTE           N05     Cn5
        BYTE   W06
        BYTE           N04     Fn4
        BYTE   W06
        BYTE                   Cn4
        BYTE   W06
        BYTE           N05     Fn3
        BYTE   W12
        BYTE                   Fn3
        BYTE   W06
        BYTE           N04     Cn3
        BYTE   W06
        BYTE   PEND
// 005   ----------------------------------------
        BYTE   W06
        BYTE           PAN     c_v+48
        BYTE   W12
        BYTE           N05     Gn3
        BYTE   W06
        BYTE           N04     Cn4
        BYTE   W06
        BYTE                   Gn3
        BYTE   W06
        BYTE                   Cn4
        BYTE   W06
        BYTE           N05     Gn4
        BYTE   W06
        BYTE           N04     Cn4
        BYTE   W06
        BYTE           N05     Cn5
        BYTE   W06
        BYTE           N04     Gn4
        BYTE   W06
        BYTE                   Cn4
        BYTE   W06
        BYTE           N05     Gn3
        BYTE   W12
        BYTE                   Gn3
        BYTE   W06
        BYTE           N04     Cn3
        BYTE   W06
// 006   ----------------------------------------
        BYTE   W06
        BYTE           PAN     c_v-48
        BYTE   W12
        BYTE           N05     Gs3
        BYTE   W06
        BYTE           N04     Cn4
        BYTE   W06
        BYTE                   Gs3
        BYTE   W06
        BYTE                   Cn4
        BYTE   W06
        BYTE           N05     Gs4
        BYTE   W06
        BYTE           N04     Cn4
        BYTE   W06
        BYTE           N05     Cn5
        BYTE   W06
        BYTE           N04     Gs4
        BYTE   W06
        BYTE                   Cn4
        BYTE   W06
        BYTE           N05     Gs3
        BYTE   W12
        BYTE                   Gs3
        BYTE   W06
        BYTE           N04     Cn3
        BYTE   W06
// 007   ----------------------------------------
        BYTE   W06
        BYTE           PAN     c_v+48
        BYTE   W12
        BYTE           N05     Gs3
        BYTE   W06
        BYTE           N04     Cn4
        BYTE   W06
        BYTE                   Gs3
        BYTE   W06
        BYTE                   Cn4
        BYTE   W06
        BYTE           N05     Gs4
        BYTE   W06
        BYTE           N04     Cn4
        BYTE   W06
        BYTE           N05     Cn5
        BYTE   W06
        BYTE           N04     Gs4
        BYTE   W06
        BYTE                   Cn4
        BYTE   W06
        BYTE           N05     Gs3
        BYTE   W12
        BYTE                   Gs3
        BYTE   W06
        BYTE           N04     Cn3
        BYTE   W06
// 008   ----------------------------------------
        BYTE   PATT
         POIN2  Dance_Brace_lesslessdrum_3_4
// 009   ----------------------------------------
        BYTE   W06
        BYTE           PAN     c_v+48
        BYTE   W12
        BYTE           N05     Fn3   v094
        BYTE   W06
        BYTE           N04     Cn4
        BYTE   W06
        BYTE                   Fn3
        BYTE   W06
        BYTE                   Cn4
        BYTE   W06
        BYTE           N05     Fn4
        BYTE   W06
        BYTE           N04     Cn4
        BYTE   W06
        BYTE           N05     Cn5
        BYTE   W06
        BYTE           N04     Fn4
        BYTE   W06
        BYTE                   Cn4
        BYTE   W06
        BYTE           N05     Fn3
        BYTE   W12
        BYTE                   Fn3
        BYTE   W06
        BYTE           N04     Cn3
        BYTE   W06
// 010   ----------------------------------------
        BYTE   W06
        BYTE           PAN     c_v-48
        BYTE   W12
        BYTE           N05     Gn3
        BYTE   W06
        BYTE           N04     Cn4
        BYTE   W06
        BYTE                   Gn3
        BYTE   W06
        BYTE                   Cn4
        BYTE   W06
        BYTE           N05     Gn4
        BYTE   W06
        BYTE           N04     Cn4
        BYTE   W06
        BYTE           N05     Cn5
        BYTE   W06
        BYTE           N04     Gn4
        BYTE   W06
        BYTE                   Cn4
        BYTE   W06
        BYTE           N05     Gn3
        BYTE   W12
        BYTE                   Gn3
        BYTE   W06
        BYTE           N04     Bn2
        BYTE   W06
// 011   ----------------------------------------
        BYTE   W96
// 012   ----------------------------------------
        BYTE   W96
// 013   ----------------------------------------
        BYTE   W96
// 014   ----------------------------------------
        BYTE   W96
// 015   ----------------------------------------
        BYTE   W96
// 016   ----------------------------------------
        BYTE   W96
// 017   ----------------------------------------
        BYTE   W96
// 018   ----------------------------------------
        BYTE   W96
// 019   ----------------------------------------
        BYTE   W96
// 020   ----------------------------------------
        BYTE           PAN     c_v+0
        BYTE   W06
        BYTE           N07     Cn1   v116
        BYTE   W06
        BYTE                   Ds1
        BYTE   W06
        BYTE                   Gn1
        BYTE   W05
        BYTE                   Cn1   v094
        BYTE   W01
        BYTE                   Cn2   v116
        BYTE   W05
        BYTE                   Ds1   v094
        BYTE   W01
        BYTE                   Ds2   v116
        BYTE   W05
        BYTE                   Gn1   v094
        BYTE   W01
        BYTE                   Gn2   v116
        BYTE   W05
        BYTE                   Cn2   v094
        BYTE   W01
        BYTE                   Cn3   v116
        BYTE   W05
        BYTE                   Ds2   v094
        BYTE   W01
        BYTE                   Ds3   v116
        BYTE   W05
        BYTE                   Gn2   v094
        BYTE   W01
        BYTE                   Gn3   v116
        BYTE   W05
        BYTE                   Cn3   v094
        BYTE   W01
        BYTE                   Cn4   v116
        BYTE   W05
        BYTE                   Ds3   v094
        BYTE   W01
        BYTE                   Ds4   v116
        BYTE   W05
        BYTE                   Gn3   v094
        BYTE   W01
        BYTE                   Gn4   v116
        BYTE   W05
        BYTE                   Cn4   v094
        BYTE   W01
        BYTE                   Cn5   v116
        BYTE   W05
        BYTE                   Ds4   v094
        BYTE   W01
        BYTE                   Ds5   v116
        BYTE   W05
        BYTE                   Gn4   v094
        BYTE   W01
        BYTE                   Gn5   v116
        BYTE   W05
        BYTE                   Cn5   v094
        BYTE   W01
// 021   ----------------------------------------
        BYTE                   Cn6   v116
        BYTE   W05
        BYTE                   Ds5   v094
        BYTE   W01
        BYTE                   Ds6   v116
        BYTE   W05
        BYTE                   Gn5   v094
        BYTE   W01
        BYTE           N04     Cn6   v116
        BYTE   W05
        BYTE           N07     Cn6   v094
        BYTE   W01
        BYTE                   Gn5   v116
        BYTE   W05
        BYTE                   Ds6   v094
        BYTE   W01
        BYTE                   Ds5   v116
        BYTE   W05
        BYTE                   Cn6   v094
        BYTE   W01
        BYTE                   Cn5   v116
        BYTE   W05
        BYTE                   Gn5   v094
        BYTE   W01
        BYTE                   Gn4   v116
        BYTE   W05
        BYTE                   Ds5   v094
        BYTE   W01
        BYTE                   Ds4   v116
        BYTE   W05
        BYTE                   Cn5   v094
        BYTE   W01
        BYTE                   Cn4   v116
        BYTE   W05
        BYTE                   Gn4   v094
        BYTE   W01
        BYTE                   Gn3   v116
        BYTE   W05
        BYTE                   Ds4   v094
        BYTE   W01
        BYTE                   Ds3   v116
        BYTE   W05
        BYTE                   Cn4   v094
        BYTE   W01
        BYTE                   Cn3   v116
        BYTE   W05
        BYTE                   Gn3   v094
        BYTE   W01
        BYTE                   Gn2   v116
        BYTE   W05
        BYTE                   Ds3   v094
        BYTE   W01
        BYTE                   Ds2   v116
        BYTE   W05
        BYTE                   Cn3   v094
        BYTE   W01
        BYTE                   Cn2   v116
        BYTE   W05
        BYTE                   Gn2   v094
        BYTE   W01
        BYTE                   Gn1   v116
        BYTE   W05
        BYTE                   Ds2   v094
        BYTE   W01
// 022   ----------------------------------------
        BYTE                   Ds1   v116
        BYTE   W05
        BYTE                   Cn2   v094
        BYTE   W01
        BYTE                   Cn1   v116
        BYTE   W05
        BYTE                   Gn1   v094
        BYTE   W01
        BYTE                   Fn1   v116
        BYTE   W05
        BYTE                   Ds1   v094
        BYTE   W01
        BYTE                   Gs1   v116
        BYTE   W05
        BYTE                   Cn1   v094
        BYTE   W01
        BYTE                   Cn2   v116
        BYTE   W05
        BYTE                   Fn1   v094
        BYTE   W01
        BYTE                   Fn2   v116
        BYTE   W05
        BYTE                   Gs1   v094
        BYTE   W01
        BYTE                   Gs2   v116
        BYTE   W05
        BYTE                   Cn2   v094
        BYTE   W01
        BYTE                   Cn3   v116
        BYTE   W05
        BYTE                   Fn2   v094
        BYTE   W01
        BYTE                   Fn3   v116
        BYTE   W05
        BYTE                   Gs2   v094
        BYTE   W01
        BYTE                   Gs3   v116
        BYTE   W05
        BYTE                   Cn3   v094
        BYTE   W01
        BYTE                   Cn4   v116
        BYTE   W05
        BYTE                   Fn3   v094
        BYTE   W01
        BYTE                   Fn4   v116
        BYTE   W05
        BYTE                   Gs3   v094
        BYTE   W01
        BYTE                   Gs4   v116
        BYTE   W05
        BYTE                   Cn4   v094
        BYTE   W01
        BYTE                   Cn5   v116
        BYTE   W05
        BYTE                   Fn4   v094
        BYTE   W01
        BYTE                   Fn5   v116
        BYTE   W05
        BYTE                   Gs4   v094
        BYTE   W01
        BYTE                   Gs5   v116
        BYTE   W05
        BYTE                   Cn5   v094
        BYTE   W01
// 023   ----------------------------------------
        BYTE                   Cn6   v116
        BYTE   W05
        BYTE                   Fn5   v094
        BYTE   W01
        BYTE                   Fn6   v116
        BYTE   W05
        BYTE                   Gs5   v094
        BYTE   W01
        BYTE           N04     Cn6   v116
        BYTE   W05
        BYTE           N07     Cn6   v094
        BYTE   W01
        BYTE                   Gs5   v116
        BYTE   W05
        BYTE                   Fn6   v094
        BYTE   W01
        BYTE                   Fn5   v116
        BYTE   W05
        BYTE                   Cn6   v094
        BYTE   W01
        BYTE                   Cn5   v116
        BYTE   W05
        BYTE                   Gs5   v094
        BYTE   W01
        BYTE                   Gs4   v116
        BYTE   W05
        BYTE                   Fn5   v094
        BYTE   W01
        BYTE                   Fn4   v116
        BYTE   W05
        BYTE                   Cn5   v094
        BYTE   W01
        BYTE                   Cn4   v116
        BYTE   W05
        BYTE                   Gs4   v094
        BYTE   W01
        BYTE                   Gs3   v116
        BYTE   W05
        BYTE                   Fn4   v094
        BYTE   W01
        BYTE                   Fn3   v116
        BYTE   W05
        BYTE                   Cn4   v094
        BYTE   W01
        BYTE                   Cn3   v116
        BYTE   W05
        BYTE                   Gs3   v094
        BYTE   W01
        BYTE                   Gs2   v116
        BYTE   W05
        BYTE                   Fn3   v094
        BYTE   W01
        BYTE                   Fn2   v116
        BYTE   W05
        BYTE                   Cn3   v094
        BYTE   W01
        BYTE                   Cn2   v116
        BYTE   W05
        BYTE                   Gs2   v094
        BYTE   W01
        BYTE                   Gs1   v116
        BYTE   W05
        BYTE                   Fn2   v094
        BYTE   W01
// 024   ----------------------------------------
        BYTE                   Fn1   v116
        BYTE   W05
        BYTE                   Cn2   v094
        BYTE   W01
        BYTE                   As0   v116
        BYTE   W05
        BYTE                   Gs1   v094
        BYTE   W01
        BYTE                   Ds1   v116
        BYTE   W06
        BYTE                   Fn1
        BYTE   W05
        BYTE                   As0   v094
        BYTE   W01
        BYTE                   As1   v116
        BYTE   W05
        BYTE                   Ds1   v094
        BYTE   W01
        BYTE                   Cs2   v116
        BYTE   W05
        BYTE                   Fn1   v094
        BYTE   W01
        BYTE                   Fn2   v116
        BYTE   W05
        BYTE                   As1   v094
        BYTE   W01
        BYTE                   As2   v116
        BYTE   W05
        BYTE                   Cs2   v094
        BYTE   W01
        BYTE                   Cs3   v116
        BYTE   W05
        BYTE                   Fn2   v094
        BYTE   W01
        BYTE                   Fn3   v116
        BYTE   W05
        BYTE                   As2   v094
        BYTE   W01
        BYTE                   As3   v116
        BYTE   W05
        BYTE                   Cs3   v094
        BYTE   W01
        BYTE                   Cs4   v116
        BYTE   W05
        BYTE                   Fn3   v094
        BYTE   W01
        BYTE                   Fn4   v116
        BYTE   W05
        BYTE                   As3   v094
        BYTE   W01
        BYTE                   As4   v116
        BYTE   W05
        BYTE                   Cs4   v094
        BYTE   W01
        BYTE                   Cs5   v116
        BYTE   W05
        BYTE                   Fn4   v094
        BYTE   W01
        BYTE                   Gn5   v116
        BYTE   W05
        BYTE                   As4   v094
        BYTE   W01
// 025   ----------------------------------------
        BYTE                   Cn6   v116
        BYTE   W05
        BYTE                   Cs5   v094
        BYTE   W01
        BYTE                   Cn1   v116
        BYTE   W05
        BYTE                   Gn5   v094
        BYTE   W01
        BYTE                   En1   v116
        BYTE   W05
        BYTE                   Cn6   v094
        BYTE   W01
        BYTE                   Gn1   v116
        BYTE   W05
        BYTE                   Cn1   v094
        BYTE   W01
        BYTE                   Cn2   v116
        BYTE   W05
        BYTE                   En1   v094
        BYTE   W01
        BYTE                   En2   v116
        BYTE   W05
        BYTE                   Gn1   v094
        BYTE   W01
        BYTE                   Gn2   v116
        BYTE   W05
        BYTE                   Cn2   v094
        BYTE   W01
        BYTE                   Cn3   v116
        BYTE   W05
        BYTE                   En2   v094
        BYTE   W01
        BYTE                   En3   v116
        BYTE   W05
        BYTE                   Gn2   v094
        BYTE   W01
        BYTE                   Gn3   v116
        BYTE   W05
        BYTE                   Cn3   v094
        BYTE   W01
        BYTE                   Cn4   v116
        BYTE   W05
        BYTE                   En3   v094
        BYTE   W01
        BYTE                   En4   v116
        BYTE   W05
        BYTE                   Gn3   v094
        BYTE   W01
        BYTE                   Gn4   v116
        BYTE   W05
        BYTE                   Cn4   v094
        BYTE   W01
        BYTE                   Cn5   v116
        BYTE   W05
        BYTE                   En4   v094
        BYTE   W01
        BYTE                   En5   v116
        BYTE   W05
        BYTE                   Gn4   v094
        BYTE   W01
        BYTE                   Gn5   v116
        BYTE   W05
        BYTE                   Cn5   v094
        BYTE   W01
// 026   ----------------------------------------
        BYTE                   Cn6   v116
        BYTE   W05
        BYTE                   En5   v094
        BYTE   W06
        BYTE                   Gn5
        BYTE   W06
        BYTE                   Cn6
        BYTE   W78
        BYTE   W01
// 027   ----------------------------------------
        BYTE   W96
// 028   ----------------------------------------
        BYTE   W96
// 029   ----------------------------------------
        BYTE   W96
// 030   ----------------------------------------
        BYTE   W96
// 031   ----------------------------------------
        BYTE   W96
// 032   ----------------------------------------
        BYTE   W96
// 033   ----------------------------------------
        BYTE   W96
// 034   ----------------------------------------
        BYTE   W96
// 035   ----------------------------------------
        BYTE   W96
// 036   ----------------------------------------
Dance_Brace_lesslessdrum_3_36:
        BYTE   W30
        BYTE           N05     Cs3   v113
        BYTE   W06
        BYTE                   Fs3
        BYTE   W06
        BYTE                   An3
        BYTE   W06
        BYTE                   Cs4
        BYTE   W06
        BYTE           N24     Fs4   v107   gtp1
        BYTE   W24
        BYTE           N07     Fs5
        BYTE   W12
        BYTE                   Fs4
        BYTE   W06
        BYTE   PEND
// 037   ----------------------------------------
        BYTE   W54
        BYTE           N05     Cs3   v084
        BYTE   W12
        BYTE                   Cs3
        BYTE   W12
        BYTE           N24     En3   v080   gtp1
        BYTE   W18
// 038   ----------------------------------------
        BYTE   W30
        BYTE           N05     Dn3   v113
        BYTE   W06
        BYTE                   Fs3
        BYTE   W06
        BYTE                   An3
        BYTE   W06
        BYTE                   Dn4
        BYTE   W06
        BYTE           N24     Fs4   v107   gtp1
        BYTE   W24
        BYTE           N07     Fs5
        BYTE   W12
        BYTE                   Fs4
        BYTE   W06
// 039   ----------------------------------------
Dance_Brace_lesslessdrum_3_39:
        BYTE   W54
        BYTE           N05     Cs3   v084
        BYTE   W12
        BYTE                   Cs3
        BYTE   W12
        BYTE           N24     Fs3   v080   gtp1
        BYTE   W18
        BYTE   PEND
// 040   ----------------------------------------
        BYTE   PATT
         POIN2  Dance_Brace_lesslessdrum_3_36
// 041   ----------------------------------------
        BYTE   PATT
         POIN2  Dance_Brace_lesslessdrum_3_39
// 042   ----------------------------------------
        BYTE   W30
        BYTE           N05     Cs3   v113
        BYTE   W06
        BYTE                   En3
        BYTE   W06
        BYTE                   Gs3
        BYTE   W06
        BYTE                   Cs4
        BYTE   W06
        BYTE           N19     En4   v107
        BYTE   W24
        BYTE           N07     Fs4
        BYTE   W12
        BYTE                   En4
        BYTE   W06
// 043   ----------------------------------------
        BYTE   W96
// 044   ----------------------------------------
        BYTE   W96
// 045   ----------------------------------------
        BYTE   W96
// 046   ----------------------------------------
        BYTE   W96
// 047   ----------------------------------------
        BYTE   W96
// 048   ----------------------------------------
        BYTE   W96
// 049   ----------------------------------------
        BYTE   W54
        BYTE           N05     Cs3   v094
        BYTE   W06
        BYTE                   En3
        BYTE   W06
        BYTE                   Gs3
        BYTE   W05
        BYTE                   Cs3   v080
        BYTE   W01
        BYTE                   Cs4   v094
        BYTE   W05
        BYTE                   En3   v080
        BYTE   W01
        BYTE                   En4   v094
        BYTE   W05
        BYTE                   Gs3   v080
        BYTE   W01
        BYTE                   Gs4   v094
        BYTE   W05
        BYTE                   Cs4   v080
        BYTE   W01
        BYTE                   Bn4   v094
        BYTE   W05
        BYTE                   En4   v080
        BYTE   W01
// 050   ----------------------------------------
        BYTE                   Cs5   v094
        BYTE   W05
        BYTE                   Gs4   v080
        BYTE   W06
        BYTE                   Bn4
        BYTE   W06
        BYTE                   Cs5
        BYTE   W78
        BYTE   W01
// 051   ----------------------------------------
        BYTE   W96
// 052   ----------------------------------------
        BYTE   W96
// 053   ----------------------------------------
        BYTE   W88
        BYTE   GoTo
         POIN2  Dance_Brace_lesslessdrum_3_LOOP
        BYTE   W01
        BYTE   FINE

//****************** Track 4 (Midi-Chn.5) ******************//

Dance_Brace_lesslessdrum_4:
        BYTE   KEYSH   Dance_Brace_lesslessdrum_key+0
// 000   ----------------------------------------
        BYTE           VOICE   122
        BYTE           VOL     32
        BYTE   W06
        BYTE           N24     Cn1   v107   gtp1
        BYTE                   En1   v113
        BYTE           N72     Cs2   v104
        BYTE   W01
        BYTE           N68     Dn2   v083   gtp3
        BYTE   W56
        BYTE   W03
        BYTE           N05     Cn2   v127
        BYTE   W06
        BYTE                   Bn1
        BYTE   W06
        BYTE           N13     Bn0   v107
        BYTE           N13     En1   v113
        BYTE   W12
        BYTE           N24     Cn1   v107   gtp1
        BYTE                   Fn1   v090
        BYTE           N72     Cs2   v104
        BYTE   W01
        BYTE           N68     Dn2   v083   gtp3
        BYTE   W05
// 001   ----------------------------------------
        BYTE   W54
        BYTE           N05     Cn2   v127
        BYTE   W06
        BYTE                   Bn1
        BYTE   W06
        BYTE           N24     Cn1   v107   gtp1
        BYTE   W12
        BYTE                   En1   v113
        BYTE           N06     As1   v121
        BYTE   W18
// 002   ----------------------------------------
        BYTE   W06
        BYTE           N24     Cn1   v110   gtp1
        BYTE                   Fn1   v090
        BYTE           N36     Cs2   v104
        BYTE   W01
        BYTE           N32     Dn2   v083   gtp3
        BYTE   W23
        BYTE           N07     En1   v107
        BYTE   W06
        BYTE                   Fn1   v075
        BYTE   W06
        BYTE           N24     Cn1   v110   gtp1
        BYTE           N07     En1   v080
        BYTE           N72     Cs2   v104
        BYTE   W01
        BYTE           N68     Dn2   v083   gtp3
        BYTE   W05
        BYTE           N07     Fn1   v075
        BYTE   W06
        BYTE                   En1   v110
        BYTE   W06
        BYTE                   Fn1   v078
        BYTE   W06
        BYTE                   En1   v084
        BYTE   W06
        BYTE                   Fn1   v078
        BYTE   W06
        BYTE                   En1   v113
        BYTE   W06
        BYTE                   Fn1   v080
        BYTE   W06
        BYTE                   En1   v087
        BYTE   W06
// 003   ----------------------------------------
        BYTE                   Fn1   v080
        BYTE   W06
        BYTE           N24     Cn1   v110   gtp1
        BYTE           N07     En1   v115
        BYTE           N04     Fs1
        BYTE   W06
        BYTE           N07     Fn1   v083
        BYTE   W06
        BYTE                   En1   v091
        BYTE           N06     As1   v115
        BYTE   W06
        BYTE           N07     Fn1   v083
        BYTE   W06
        BYTE           N13     Bn0   v110
        BYTE           N07     En1   v118
        BYTE           N04     Fs1   v115
        BYTE   W06
        BYTE           N07     Fn1   v083
        BYTE   W06
        BYTE           N24     Cn1   v110   gtp1
        BYTE                   En1   v113
        BYTE           N06     As1   v121
        BYTE   W12
        BYTE           N04     Fs1   v115
        BYTE   W12
        BYTE           N23     Bn0   v110
        BYTE           N23     Fn1   v094
        BYTE           N06     As1   v115
        BYTE           N05     Cn2   v127
        BYTE   W06
        BYTE                   Bn1
        BYTE   W06
        BYTE           N04     Fs1   v115
        BYTE   W09
Dance_Brace_lesslessdrum_4_LOOP:
        BYTE   W03
        BYTE           N24     Cn1   v110   gtp1
        BYTE                   En1   v113
        BYTE           N06     As1   v121
        BYTE           N72     Cs2   v104
        BYTE   W01
        BYTE           N68     Dn2   v083   gtp3
        BYTE   W05
// 004   ----------------------------------------
        BYTE   W06
        BYTE           N04     Fs1   v115
        BYTE   W12
        BYTE           N13     Bn0   v101
        BYTE           N06     As1   v115
        BYTE   W12
        BYTE           N24     Cn1   v110   gtp1
        BYTE           N04     Fs1   v115
        BYTE   W12
        BYTE           N06     As1   v121
        BYTE   W06
        BYTE           N04     Fs1   v098
        BYTE   W06
        BYTE           N24     Bn0   v110   gtp1
        BYTE           N04     Fs1   v115
        BYTE   W12
        BYTE           N06     As1
        BYTE   W12
        BYTE           N24     Cn1   v110   gtp1
        BYTE           N04     Fs1   v115
        BYTE   W12
        BYTE           N06     As1   v121
        BYTE   W06
// 005   ----------------------------------------
Dance_Brace_lesslessdrum_4_5:
        BYTE           N04     Fs1   v098
        BYTE   W06
        BYTE           N24     Bn0   v110   gtp1
        BYTE           N04     Fs1   v115
        BYTE   W12
        BYTE           N06     As1
        BYTE   W12
        BYTE           N24     Cn1   v110   gtp1
        BYTE           N04     Fs1   v115
        BYTE   W12
        BYTE           N06     As1   v121
        BYTE   W06
        BYTE           N04     Fs1   v098
        BYTE   W06
        BYTE           N24     Bn0   v110   gtp1
        BYTE           N04     Fs1   v115
        BYTE   W12
        BYTE           N06     As1
        BYTE   W12
        BYTE           N24     Cn1   v110   gtp1
        BYTE           N04     Fs1   v115
        BYTE   W12
        BYTE           N06     As1   v121
        BYTE   W06
        BYTE   PEND
// 006   ----------------------------------------
        BYTE   PATT
         POIN2  Dance_Brace_lesslessdrum_4_5
// 007   ----------------------------------------
        BYTE           N04     Fs1   v098
        BYTE   W06
        BYTE           N24     Bn0   v110   gtp1
        BYTE           N04     Fs1   v115
        BYTE   W12
        BYTE           N06     As1
        BYTE   W12
        BYTE           N24     Cn1   v110   gtp1
        BYTE           N04     Fs1   v115
        BYTE   W12
        BYTE           N06     As1   v121
        BYTE   W06
        BYTE           N04     Fs1   v098
        BYTE   W06
        BYTE           N24     Bn0   v110   gtp1
        BYTE           N04     Fs1   v115
        BYTE   W12
        BYTE           N06     As1
        BYTE   W12
        BYTE           N13     Cn1   v110
        BYTE           N24     En1   v113   gtp1
        BYTE           N04     Fs1   v115
        BYTE   W12
        BYTE           N13     Bn0   v101
        BYTE           N06     As1   v121
        BYTE   W06
// 008   ----------------------------------------
Dance_Brace_lesslessdrum_4_8:
        BYTE           N04     Fs1   v098
        BYTE   W06
        BYTE           N24     Cn1   v110   gtp1
        BYTE           N04     Fs1   v115
        BYTE   W12
        BYTE           N06     As1
        BYTE   W12
        BYTE           N24     Bn0   v110   gtp1
        BYTE           N04     Fs1   v115
        BYTE   W12
        BYTE           N06     As1   v121
        BYTE   W06
        BYTE           N04     Fs1   v098
        BYTE   W06
        BYTE           N24     Cn1   v110   gtp1
        BYTE           N04     Fs1   v115
        BYTE   W12
        BYTE           N06     As1
        BYTE   W12
        BYTE           N24     Bn0   v110   gtp1
        BYTE           N04     Fs1   v115
        BYTE   W12
        BYTE           N06     As1   v121
        BYTE   W06
        BYTE   PEND
// 009   ----------------------------------------
        BYTE   PATT
         POIN2  Dance_Brace_lesslessdrum_4_8
// 010   ----------------------------------------
        BYTE           N04     Fs1   v098
        BYTE   W06
        BYTE           N24     Cn1   v110   gtp1
        BYTE           N04     Fs1   v115
        BYTE   W12
        BYTE           N06     As1
        BYTE   W12
        BYTE           N24     Bn0   v110   gtp1
        BYTE           N04     Fs1   v115
        BYTE   W12
        BYTE           N06     As1   v121
        BYTE   W06
        BYTE           N04     Fs1   v098
        BYTE   W06
        BYTE           N24     Cn1   v110   gtp1
        BYTE           N04     Fs1   v115
        BYTE   W12
        BYTE           N06     As1
        BYTE   W12
        BYTE           N13     Bn0   v110
        BYTE           N04     Fs1   v115
        BYTE   W12
        BYTE           N24     Cn1   v110   gtp1
        BYTE                   En1   v113
        BYTE           N06     As1   v121
        BYTE   W06
// 011   ----------------------------------------
        BYTE           N04     Fs1   v098
        BYTE   W06
        BYTE                   Fs1   v115
        BYTE   W12
        BYTE           N13     Bn0   v101
        BYTE           N13     Dn2   v090
        BYTE           N06     As1   v115
        BYTE   W12
        BYTE           N24     Cn1   v110   gtp1
        BYTE           N07     En1   v118
        BYTE           N04     Fs1   v115
        BYTE   W06
        BYTE           N07     Fn1   v085
        BYTE   W06
        BYTE                   En1   v094
        BYTE           N06     As1   v121
        BYTE   W06
        BYTE           N07     Fn1   v085
        BYTE           N04     Fs1   v098
        BYTE   W06
        BYTE           N24     Bn0   v110   gtp1
        BYTE           N07     En1   v121
        BYTE           N04     Fs1   v115
        BYTE   W06
        BYTE           N07     Fn1   v088
        BYTE   W06
        BYTE                   En1   v098
        BYTE           N06     As1   v115
        BYTE   W06
        BYTE           N07     Fn1   v088
        BYTE   W06
        BYTE           N13     Cn1   v110
        BYTE           N13     En1   v118
        BYTE           N04     Fs1   v115
        BYTE   W12
        BYTE           N24     Bn0   v110   gtp1
        BYTE                   Fn1   v090
        BYTE           N06     As1   v121
        BYTE           N72     Cs2   v104
        BYTE   W01
        BYTE           N68     Dn2   v083   gtp3
        BYTE   W05
// 012   ----------------------------------------
        BYTE           N04     Fs1   v098
        BYTE   W06
        BYTE                   Fs1   v115
        BYTE   W12
        BYTE           N13     Cn1   v101
        BYTE           N06     As1   v115
        BYTE   W06
        BYTE           N04     Fs1   v098
        BYTE   W06
        BYTE           N24     Bn0   v110   gtp1
        BYTE           N19     En1   v113
        BYTE           N04     Fs1   v115
        BYTE   W06
        BYTE                   Fs1   v098
        BYTE   W06
        BYTE           N06     As1   v121
        BYTE   W06
        BYTE           N24     Fn1   v075   gtp1
        BYTE           N04     Fs1   v098
        BYTE   W06
        BYTE           N24     Cn1   v110   gtp1
        BYTE           N04     Fs1   v115
        BYTE   W12
        BYTE           N06     As1
        BYTE   W06
        BYTE           N04     Fs1   v098
        BYTE   W06
        BYTE           N24     Bn0   v110   gtp1
        BYTE           N19     En1   v113
        BYTE           N04     Fs1   v115
        BYTE   W06
        BYTE                   Fs1   v098
        BYTE   W06
        BYTE           N06     As1   v121
        BYTE   W06
// 013   ----------------------------------------
Dance_Brace_lesslessdrum_4_13:
        BYTE           N24     Fn1   v075   gtp1
        BYTE           N04     Fs1   v098
        BYTE   W06
        BYTE           N24     Cn1   v110   gtp1
        BYTE           N04     Fs1   v115
        BYTE   W12
        BYTE           N06     As1
        BYTE   W06
        BYTE           N04     Fs1   v098
        BYTE   W06
        BYTE           N24     Bn0   v110   gtp1
        BYTE           N19     En1   v113
        BYTE           N04     Fs1   v115
        BYTE   W06
        BYTE                   Fs1   v098
        BYTE   W06
        BYTE           N06     As1   v121
        BYTE   W06
        BYTE           N24     Fn1   v075   gtp1
        BYTE           N04     Fs1   v098
        BYTE   W06
        BYTE           N24     Cn1   v110   gtp1
        BYTE           N04     Fs1   v115
        BYTE   W12
        BYTE           N06     As1
        BYTE   W06
        BYTE           N04     Fs1   v098
        BYTE   W06
        BYTE           N24     Bn0   v110   gtp1
        BYTE           N19     En1   v113
        BYTE           N04     Fs1   v115
        BYTE   W06
        BYTE                   Fs1   v098
        BYTE   W06
        BYTE           N06     As1   v121
        BYTE   W06
        BYTE   PEND
// 014   ----------------------------------------
        BYTE   PATT
         POIN2  Dance_Brace_lesslessdrum_4_13
// 015   ----------------------------------------
        BYTE           N24     Fn1   v075   gtp1
        BYTE           N04     Fs1   v098
        BYTE   W06
        BYTE           N24     Cn1   v110   gtp1
        BYTE           N04     Fs1   v115
        BYTE   W12
        BYTE           N06     As1
        BYTE   W06
        BYTE           N04     Fs1   v098
        BYTE   W06
        BYTE           N24     Bn0   v110   gtp1
        BYTE           N19     En1   v113
        BYTE           N04     Fs1   v115
        BYTE   W06
        BYTE                   Fs1   v098
        BYTE   W06
        BYTE           N06     As1   v121
        BYTE   W06
        BYTE           N24     Fn1   v075   gtp1
        BYTE           N04     Fs1   v098
        BYTE   W06
        BYTE           N24     Cn1   v110   gtp1
        BYTE           N04     Fs1   v115
        BYTE   W12
        BYTE           N06     As1
        BYTE   W06
        BYTE           N04     Fs1   v098
        BYTE   W06
        BYTE           N13     Bn0   v110
        BYTE           N19     En1   v113
        BYTE           N04     Fs1   v115
        BYTE   W06
        BYTE                   Fs1   v098
        BYTE   W06
        BYTE           N13     Cn1   v101
        BYTE           N06     As1   v121
        BYTE   W06
// 016   ----------------------------------------
        BYTE           N24     Fn1   v075   gtp1
        BYTE           N04     Fs1   v098
        BYTE   W06
        BYTE           N24     Bn0   v110   gtp1
        BYTE           N04     Fs1   v115
        BYTE   W12
        BYTE           N06     As1
        BYTE   W06
        BYTE           N04     Fs1   v098
        BYTE   W06
        BYTE           N24     Cn1   v110   gtp1
        BYTE           N19     En1   v113
        BYTE           N04     Fs1   v115
        BYTE   W06
        BYTE                   Fs1   v098
        BYTE   W06
        BYTE           N06     As1   v121
        BYTE   W06
        BYTE           N07     Fn1   v075
        BYTE           N04     Fs1   v098
        BYTE   W06
        BYTE           N24     Bn0   v110   gtp1
        BYTE           N07     En1   v118
        BYTE           N04     Fs1   v115
        BYTE   W06
        BYTE           N07     Fn1   v085
        BYTE   W06
        BYTE                   En1   v094
        BYTE           N06     As1   v115
        BYTE   W06
        BYTE           N07     Fn1   v085
        BYTE           N04     Fs1   v098
        BYTE   W06
        BYTE           N13     Cn1   v110
        BYTE           N13     En1   v113
        BYTE           N04     Fs1   v115
        BYTE   W06
        BYTE                   Fs1   v098
        BYTE   W06
        BYTE           N24     Bn0   v110   gtp1
        BYTE                   Fn1   v090
        BYTE           N06     As1   v121
        BYTE           N36     Cs2   v104
        BYTE   W01
        BYTE           N32     Dn2   v083   gtp3
        BYTE   W05
// 017   ----------------------------------------
        BYTE           N04     Fs1   v098
        BYTE   W06
        BYTE                   Fs1   v115
        BYTE   W12
        BYTE           N13     Cn1   v101
        BYTE           N13     En1   v113
        BYTE           N06     As1   v115
        BYTE   W06
        BYTE           N04     Fs1   v098
        BYTE   W06
        BYTE           N24     Bn0   v110   gtp1
        BYTE           N13     Fn1   v090
        BYTE           N04     Fs1   v115
        BYTE           N72     Cs2   v104
        BYTE   W01
        BYTE           N68     Dn2   v083   gtp3
        BYTE   W05
        BYTE           N04     Fs1   v098
        BYTE   W06
        BYTE           N07     En1   v094
        BYTE           N06     As1   v121
        BYTE   W06
        BYTE           N07     Fn1   v085
        BYTE           N04     Fs1   v098
        BYTE   W06
        BYTE           N24     Cn1   v110   gtp1
        BYTE           N07     En1   v118
        BYTE           N04     Fs1   v115
        BYTE   W06
        BYTE           N07     Fn1   v085
        BYTE   W06
        BYTE                   En1   v094
        BYTE           N06     As1   v115
        BYTE   W06
        BYTE           N07     Fn1   v085
        BYTE           N04     Fs1   v098
        BYTE   W06
        BYTE           N24     Bn0   v110   gtp1
        BYTE           N05     En1   v118
        BYTE           N04     Fs1   v115
        BYTE   W04
        BYTE           N05     Fn1   v085
        BYTE   W02
        BYTE           N04     Fs1   v098
        BYTE   W02
        BYTE           N05     En1   v101
        BYTE   W04
        BYTE                   Fn1   v085
        BYTE           N06     As1   v121
        BYTE   W04
        BYTE           N05     En1   v113
        BYTE   W02
// 018   ----------------------------------------
        BYTE           N04     Fs1   v098
        BYTE   W02
        BYTE           N24     Fn1   v094   gtp1
        BYTE   W04
        BYTE                   Cn1   v110
        BYTE           N04     Fs1   v115
        BYTE           N72     Cs2   v104
        BYTE   W01
        BYTE           N68     Dn2   v083   gtp3
        BYTE   W11
        BYTE           N06     As1   v115
        BYTE   W06
        BYTE           N04     Fs1   v098
        BYTE   W06
        BYTE           N24     Bn0   v110   gtp1
        BYTE           N23     Ds1   v113
        BYTE           N24     En1   v113   gtp1
        BYTE           N04     Fs1   v115
        BYTE   W01
        BYTE           N22     Gn1
        BYTE   W05
        BYTE           N04     Fs1   v098
        BYTE   W06
        BYTE           N06     As1   v121
        BYTE   W06
        BYTE           N04     Fs1   v098
        BYTE   W06
        BYTE           N24     Cn1   v110   gtp1
        BYTE           N04     Fs1   v115
        BYTE   W12
        BYTE           N06     As1
        BYTE   W06
        BYTE           N04     Fs1   v098
        BYTE   W06
        BYTE           N13     Bn0   v110
        BYTE           N23     Ds1   v113
        BYTE           N13     En1
        BYTE           N04     Fs1   v115
        BYTE   W01
        BYTE           N22     Gn1
        BYTE   W05
        BYTE           N04     Fs1   v098
        BYTE   W06
        BYTE           N24     Cn1   v110   gtp1
        BYTE                   Fn1   v090
        BYTE           N06     As1   v121
        BYTE   W06
// 019   ----------------------------------------
        BYTE           N04     Fs1   v098
        BYTE   W06
        BYTE                   Fs1   v115
        BYTE   W12
        BYTE           N13     Bn0   v101
        BYTE           N13     En1   v113
        BYTE           N06     As1   v115
        BYTE   W06
        BYTE           N04     Fs1   v098
        BYTE   W06
        BYTE           N24     Cn1   v110   gtp1
        BYTE           N23     Ds1   v113
        BYTE           N07     Fn1   v094
        BYTE           N04     Fs1   v115
        BYTE   W01
        BYTE           N22     Gn1
        BYTE   W05
        BYTE           N07     En1   v107
        BYTE           N04     Fs1   v098
        BYTE   W06
        BYTE           N07     Fn1   v075
        BYTE           N06     As1   v121
        BYTE   W06
        BYTE           N07     En1   v107
        BYTE           N04     Fs1   v098
        BYTE   W06
        BYTE           N13     Bn0   v110
        BYTE           N07     Fn1   v096
        BYTE           N04     Fs1   v115
        BYTE   W06
        BYTE           N07     En1   v110
        BYTE   W06
        BYTE           N13     Cn1   v101
        BYTE           N07     Fn1   v078
        BYTE           N06     As1   v115
        BYTE   W06
        BYTE           N07     En1   v110
        BYTE           N04     Fs1   v098
        BYTE   W06
        BYTE           N13     Bn0   v110
        BYTE           N23     Ds1   v113
        BYTE           N07     Fn1   v098
        BYTE           N04     Fs1   v115
        BYTE   W01
        BYTE           N22     Gn1
        BYTE   W05
        BYTE           N07     En1   v113
        BYTE           N04     Fs1   v098
        BYTE   W06
        BYTE           N07     Cn1   v101
        BYTE           N07     Fn1   v080
        BYTE           N06     As1   v121
        BYTE   W06
// 020   ----------------------------------------
        BYTE           N07     Bn0   v101
        BYTE           N24     En1   v113   gtp1
        BYTE           N04     Fs1   v098
        BYTE   W06
        BYTE           N24     Cn1   v110   gtp1
        BYTE           N04     Fs1   v121
        BYTE           N72     Cs2   v104
        BYTE   W01
        BYTE           N68     Dn2   v083   gtp3
        BYTE   W11
        BYTE           N04     Fs1   v098
        BYTE   W12
        BYTE                   Fs1   v121
        BYTE   W12
        BYTE           N13     Bn0   v101
        BYTE           N04     Fs1   v098
        BYTE   W12
        BYTE           N24     Cn1   v110   gtp1
        BYTE           N04     Fs1   v121
        BYTE   W12
        BYTE                   Fs1   v098
        BYTE           N05     Cn2   v111
        BYTE   W06
        BYTE                   Bn1
        BYTE   W06
        BYTE           N24     En1   v113   gtp1
        BYTE           N04     Fs1   v121
        BYTE   W12
        BYTE           N24     Cn1   v110   gtp1
        BYTE           N04     Fs1   v098
        BYTE   W06
// 021   ----------------------------------------
Dance_Brace_lesslessdrum_4_21:
        BYTE   W06
        BYTE           N04     Fs1   v121
        BYTE   W12
        BYTE           N24     Bn0   v110   gtp1
        BYTE           N04     Fs1   v098
        BYTE   W12
        BYTE           N06     As1   v121
        BYTE   W06
        BYTE           N04     Fs1   v115
        BYTE   W06
        BYTE           N13     Cn1   v101
        BYTE           N04     Fs1   v098
        BYTE   W12
        BYTE           N24     Bn0   v110   gtp1
        BYTE           N04     Fs1   v115
        BYTE   W12
        BYTE                   Fs1   v098
        BYTE           N05     Cn2   v111
        BYTE   W06
        BYTE                   Bn1
        BYTE   W06
        BYTE           N24     En1   v113   gtp1
        BYTE           N04     Fs1   v121
        BYTE   W12
        BYTE                   Fs1   v098
        BYTE   W06
        BYTE   PEND
// 022   ----------------------------------------
        BYTE                   Fs1   v115
        BYTE   W06
        BYTE           N24     Cn1   v110   gtp1
        BYTE           N04     Fs1   v121
        BYTE   W12
        BYTE                   Fs1   v098
        BYTE   W12
        BYTE                   Fs1   v121
        BYTE   W12
        BYTE           N13     Bn0   v101
        BYTE           N04     Fs1   v098
        BYTE   W12
        BYTE           N24     Cn1   v110   gtp1
        BYTE           N04     Fs1   v121
        BYTE   W12
        BYTE                   Fs1   v098
        BYTE           N05     Cn2   v111
        BYTE   W06
        BYTE                   Bn1
        BYTE   W06
        BYTE           N24     En1   v113   gtp1
        BYTE           N04     Fs1   v121
        BYTE   W12
        BYTE           N24     Cn1   v110   gtp1
        BYTE           N04     Fs1   v098
        BYTE   W06
// 023   ----------------------------------------
        BYTE   W06
        BYTE                   Fs1   v121
        BYTE   W12
        BYTE           N24     Bn0   v110   gtp1
        BYTE           N04     Fs1   v098
        BYTE   W06
        BYTE                   Fs1   v115
        BYTE   W06
        BYTE           N06     As1   v121
        BYTE   W06
        BYTE           N04     Fs1   v115
        BYTE   W06
        BYTE           N13     Cn1   v101
        BYTE           N04     Fs1   v098
        BYTE   W12
        BYTE           N24     Bn0   v110   gtp1
        BYTE           N04     Fs1   v115
        BYTE   W12
        BYTE           N13     En1   v107
        BYTE           N04     Fs1   v098
        BYTE           N05     Cn2   v111
        BYTE   W06
        BYTE                   Bn1
        BYTE   W06
        BYTE           N24     Fn1   v090   gtp1
        BYTE           N04     Fs1   v121
        BYTE   W12
        BYTE                   Fs1   v098
        BYTE   W06
// 024   ----------------------------------------
        BYTE   W06
        BYTE           N24     Cn1   v110   gtp1
        BYTE           N04     Fs1   v121
        BYTE   W12
        BYTE                   Fs1   v098
        BYTE   W12
        BYTE                   Fs1   v121
        BYTE   W12
        BYTE           N13     Cn1   v101
        BYTE           N04     Fs1   v098
        BYTE   W12
        BYTE           N24     Bn0   v110   gtp1
        BYTE           N04     Fs1   v121
        BYTE   W12
        BYTE                   Fs1   v098
        BYTE           N05     Cn2   v111
        BYTE   W06
        BYTE                   Bn1
        BYTE   W06
        BYTE           N24     En1   v113   gtp1
        BYTE           N04     Fs1   v121
        BYTE   W12
        BYTE           N24     Cn1   v110   gtp1
        BYTE           N04     Fs1   v098
        BYTE   W06
// 025   ----------------------------------------
        BYTE   PATT
         POIN2  Dance_Brace_lesslessdrum_4_21
// 026   ----------------------------------------
        BYTE           N04     Fs1   v115
        BYTE   W06
        BYTE           N24     Cn1   v110   gtp1
        BYTE           N04     Fs1   v121
        BYTE           N36     Cs2   v104
        BYTE   W01
        BYTE           N32     Dn2   v083   gtp3
        BYTE   W11
        BYTE           N04     Fs1   v098
        BYTE   W12
        BYTE           N24     En1   v113   gtp1
        BYTE           N04     Fs1   v121
        BYTE   W12
        BYTE           N24     Cn1   v110   gtp1
        BYTE           N04     Fs1   v098
        BYTE           N48     Cs2   v104
        BYTE   W01
        BYTE           N44     Dn2   v083   gtp3
        BYTE   W11
        BYTE           N04     Fs1   v121
        BYTE   W12
        BYTE           N24     Bn0   v110   gtp1
        BYTE           N13     Dn1
        BYTE           N04     Fs1   v098
        BYTE           N05     Cn2   v111
        BYTE   W06
        BYTE                   Bn1
        BYTE   W06
        BYTE           N24     En1   v113   gtp1
        BYTE           N04     Fs1   v121
        BYTE   W12
        BYTE           N24     Cn1   v110   gtp1
        BYTE           N04     Fs1   v098
        BYTE           N48     Cs2   v104
        BYTE   W01
        BYTE           N44     Dn2   v083   gtp3
        BYTE   W05
// 027   ----------------------------------------
        BYTE   W06
        BYTE           N04     Fs1   v121
        BYTE   W12
        BYTE           N24     Bn0   v110   gtp1
        BYTE           N13     Dn1
        BYTE           N04     Fs1   v098
        BYTE   W12
        BYTE           N24     En1   v113   gtp1
        BYTE           N04     Fs1   v121
        BYTE   W12
        BYTE           N24     Cn1   v110   gtp1
        BYTE           N04     Fs1   v098
        BYTE           N60     Cs2   v104
        BYTE   W01
        BYTE           N56     Dn2   v083   gtp3
        BYTE   W11
        BYTE           N04     Fs1   v121
        BYTE   W12
        BYTE           N13     Bn0   v101
        BYTE           N06     Cs1   v110
        BYTE           N13     En1   v107
        BYTE           N04     Fs1   v098
        BYTE           N05     Cn2   v111
        BYTE   W04
        BYTE           N06     Dn1   v115
        BYTE   W02
        BYTE           N05     Bn1   v111
        BYTE   W02
        BYTE           N06     Cs1   v121
        BYTE   W04
        BYTE           N13     Cn1   v110
        BYTE           N19     Dn1   v121
        BYTE           N13     Fn1   v090
        BYTE           N04     Fs1   v121
        BYTE   W12
        BYTE           N07     Bn0   v101
        BYTE           N05     En1   v107
        BYTE           N04     Fs1   v098
        BYTE   W04
        BYTE           N05     Fn1   v090
        BYTE   W02
// 028   ----------------------------------------
        BYTE           N07     Cn1   v101
        BYTE   W02
        BYTE           N24     En1   v118   gtp1
        BYTE   W04
        BYTE                   Bn0   v110
        BYTE           N04     Fs1   v121
        BYTE           N72     Cs2   v104
        BYTE   W01
        BYTE           N68     Dn2   v083   gtp3
        BYTE   W11
        BYTE           N13     Dn1   v084
        BYTE           N04     Fs1   v098
        BYTE   W12
        BYTE           N24     Cn1   v110   gtp1
        BYTE                   En1   v113
        BYTE           N04     Fs1   v121
        BYTE   W06
        BYTE           N13     Dn1   v091
        BYTE   W06
        BYTE           N04     Fs1   v098
        BYTE   W12
        BYTE           N24     Bn0   v110   gtp1
        BYTE           N04     Fs1   v121
        BYTE   W12
        BYTE           N13     Dn1   v084
        BYTE           N04     Fs1   v098
        BYTE           N05     Cn2   v111
        BYTE   W06
        BYTE                   Bn1
        BYTE   W06
        BYTE           N24     Cn1   v110   gtp1
        BYTE                   En1   v113
        BYTE           N04     Fs1   v121
        BYTE   W06
        BYTE           N13     Dn1   v091
        BYTE   W06
        BYTE           N04     Fs1   v098
        BYTE   W06
// 029   ----------------------------------------
        BYTE   W06
        BYTE           N24     Bn0   v110   gtp1
        BYTE           N04     Fs1   v121
        BYTE   W12
        BYTE           N13     Dn1   v084
        BYTE           N04     Fs1   v098
        BYTE   W12
        BYTE           N24     Cn1   v110   gtp1
        BYTE                   En1   v113
        BYTE           N06     As1   v121
        BYTE   W06
        BYTE           N13     Dn1   v091
        BYTE           N04     Fs1   v115
        BYTE   W06
        BYTE                   Fs1   v098
        BYTE   W12
        BYTE           N24     Bn0   v110   gtp1
        BYTE           N04     Fs1   v115
        BYTE   W12
        BYTE           N13     Dn1   v110
        BYTE           N04     Fs1   v098
        BYTE           N05     Cn2   v111
        BYTE   W06
        BYTE                   Bn1
        BYTE   W06
        BYTE           N13     Cn1   v110
        BYTE           N24     En1   v113   gtp1
        BYTE           N04     Fs1   v121
        BYTE   W06
        BYTE           N13     Dn1   v091
        BYTE   W06
        BYTE                   Bn0   v101
        BYTE           N04     Fs1   v098
        BYTE   W06
// 030   ----------------------------------------
        BYTE                   Fs1   v115
        BYTE   W06
        BYTE           N24     Cn1   v110   gtp1
        BYTE           N04     Fs1   v121
        BYTE           N36     Cs2   v104
        BYTE   W01
        BYTE           N32     Dn2   v083   gtp3
        BYTE   W11
        BYTE           N13     Dn1   v113
        BYTE           N04     Fs1   v098
        BYTE   W12
        BYTE           N13     Bn0   v101
        BYTE           N24     En1   v113   gtp1
        BYTE           N04     Fs1   v121
        BYTE   W12
        BYTE           N24     Cn1   v110   gtp1
        BYTE           N04     Fs1   v098
        BYTE           N36     Cs2   v104
        BYTE   W01
        BYTE           N32     Dn2   v083   gtp3
        BYTE   W11
        BYTE           N04     Fs1   v121
        BYTE   W12
        BYTE           N13     Bn0   v101
        BYTE           N13     Dn1   v113
        BYTE           N04     Fs1   v098
        BYTE           N05     Cn2   v111
        BYTE   W06
        BYTE                   Bn1
        BYTE   W06
        BYTE           N13     Cn1   v110
        BYTE           N24     En1   v113   gtp1
        BYTE           N04     Fs1   v121
        BYTE           N72     Cs2   v104
        BYTE   W01
        BYTE           N68     Dn2   v083   gtp3
        BYTE   W11
        BYTE           N24     Bn0   v110   gtp1
        BYTE           N04     Fs1   v098
        BYTE   W06
// 031   ----------------------------------------
        BYTE   W06
        BYTE                   Fs1   v121
        BYTE   W12
        BYTE           N13     Cn1   v101
        BYTE           N13     Dn1   v113
        BYTE           N04     Fs1   v098
        BYTE   W12
        BYTE           N24     Bn0   v110   gtp1
        BYTE           N07     En1   v113
        BYTE           N06     As1   v121
        BYTE   W06
        BYTE           N07     Fn1   v085
        BYTE           N04     Fs1   v115
        BYTE   W06
        BYTE           N07     En1   v113
        BYTE           N04     Fs1   v098
        BYTE   W06
        BYTE           N07     Fn1   v085
        BYTE   W06
        BYTE           N13     Cn1   v110
        BYTE           N07     En1   v118
        BYTE           N04     Fs1   v115
        BYTE   W06
        BYTE           N07     Fn1   v085
        BYTE   W06
        BYTE           N13     Bn0   v101
        BYTE           N07     En1   v113
        BYTE           N04     Fs1   v098
        BYTE           N05     Cn2   v111
        BYTE   W06
        BYTE           N07     Fn1   v085
        BYTE           N05     Bn1   v111
        BYTE   W06
        BYTE           N13     Cn1   v110
        BYTE           N05     En1   v118
        BYTE           N04     Fs1   v121
        BYTE   W04
        BYTE           N05     Fn1   v085
        BYTE   W04
        BYTE                   En1   v101
        BYTE   W04
        BYTE           N07     Bn0
        BYTE           N05     Fn1   v085
        BYTE           N04     Fs1   v098
        BYTE   W04
        BYTE           N05     En1   v113
        BYTE   W02
// 032   ----------------------------------------
        BYTE           N07     Cn1   v101
        BYTE           N04     Fs1   v115
        BYTE   W02
        BYTE           N24     Fn1   v094   gtp1
        BYTE   W04
        BYTE                   Bn0   v110
        BYTE           N04     Fs1   v121
        BYTE           N36     Cs2   v104
        BYTE   W01
        BYTE           N32     Dn2   v083   gtp3
        BYTE   W11
        BYTE           N13     Dn1   v080
        BYTE           N06     As1   v121
        BYTE   W06
        BYTE           N04     Fs1   v098
        BYTE   W06
        BYTE           N24     Cn1   v110   gtp1
        BYTE           N19     En1   v113
        BYTE           N04     Fs1   v115
        BYTE   W06
        BYTE           N13     Dn1   v087
        BYTE           N04     Fs1   v098
        BYTE   W06
        BYTE           N06     As1   v121
        BYTE           N60     Cs2   v104
        BYTE   W01
        BYTE           N56     Dn2   v083   gtp3
        BYTE   W05
        BYTE           N13     Cs1   v062
        BYTE           N24     Fn1   v075   gtp1
        BYTE           N04     Fs1   v098
        BYTE   W06
        BYTE           N24     Bn0   v110   gtp1
        BYTE           N04     Fs1   v121
        BYTE   W12
        BYTE           N13     Cs1   v080
        BYTE           N06     As1   v121
        BYTE           N05     Cn2   v111
        BYTE   W06
        BYTE           N04     Fs1   v098
        BYTE           N05     Bn1   v111
        BYTE   W06
        BYTE           N13     Cn1   v110
        BYTE           N19     Dn1   v104
        BYTE           N24     En1   v113   gtp1
        BYTE           N04     Fs1   v115
        BYTE   W06
        BYTE                   Fs1   v098
        BYTE   W06
        BYTE           N13     Bn0   v101
        BYTE           N06     As1   v121
        BYTE   W06
// 033   ----------------------------------------
        BYTE           N13     Cs1   v062
        BYTE           N04     Fs1   v098
        BYTE   W06
        BYTE           N24     Cn1   v110   gtp1
        BYTE           N04     Fs1   v121
        BYTE           N36     Cs2   v104
        BYTE   W01
        BYTE           N32     Dn2   v083   gtp3
        BYTE   W11
        BYTE           N13     Dn1   v080
        BYTE           N06     As1   v121
        BYTE   W06
        BYTE           N04     Fs1   v098
        BYTE   W06
        BYTE           N24     Bn0   v110   gtp1
        BYTE           N19     En1   v113
        BYTE           N04     Fs1   v115
        BYTE   W06
        BYTE           N13     Dn1   v087
        BYTE           N04     Fs1   v098
        BYTE   W06
        BYTE           N06     As1   v121
        BYTE           N60     Cs2   v104
        BYTE   W01
        BYTE           N56     Dn2   v083   gtp3
        BYTE   W05
        BYTE           N13     Cs1   v062
        BYTE           N24     Fn1   v075   gtp1
        BYTE           N04     Fs1   v098
        BYTE   W06
        BYTE           N24     Cn1   v110   gtp1
        BYTE           N04     Fs1   v121
        BYTE   W12
        BYTE           N13     Cs1   v080
        BYTE           N06     As1   v121
        BYTE           N05     Cn2   v111
        BYTE   W06
        BYTE           N04     Fs1   v098
        BYTE           N05     Bn1   v111
        BYTE   W06
        BYTE           N13     Bn0   v110
        BYTE           N19     Dn1   v104
        BYTE           N24     En1   v113   gtp1
        BYTE           N04     Fs1   v115
        BYTE   W06
        BYTE                   Fs1   v098
        BYTE   W06
        BYTE           N13     Cn1   v101
        BYTE           N06     As1   v121
        BYTE   W06
// 034   ----------------------------------------
        BYTE           N13     Cs1   v062
        BYTE           N04     Fs1   v098
        BYTE   W06
        BYTE           N24     Bn0   v110   gtp1
        BYTE           N04     Fs1   v115
        BYTE           N36     Cs2   v104
        BYTE   W01
        BYTE           N32     Dn2   v083   gtp3
        BYTE   W11
        BYTE           N06     As1   v115
        BYTE   W06
        BYTE           N04     Fs1   v098
        BYTE   W06
        BYTE           N24     En1   v113   gtp1
        BYTE           N04     Fs1   v115
        BYTE   W06
        BYTE                   Fs1   v098
        BYTE   W06
        BYTE           N24     Cn1   v110   gtp1
        BYTE           N06     As1   v121
        BYTE           N24     Cs2   v104
        BYTE   W01
        BYTE           N23     Dn2   v083
        BYTE   W05
        BYTE           N04     Fs1   v098
        BYTE   W06
        BYTE                   Fs1   v115
        BYTE   W12
        BYTE           N24     Bn0   v110   gtp1
        BYTE                   En1   v113
        BYTE           N06     As1   v115
        BYTE           N84     Cs2   v104
        BYTE           N05     Cn2   v111
        BYTE   W01
        BYTE           N80     Dn2   v083   gtp3
        BYTE   W05
        BYTE           N04     Fs1   v098
        BYTE           N05     Bn1   v111
        BYTE   W06
        BYTE           N04     Fs1   v115
        BYTE   W06
        BYTE                   Fs1   v098
        BYTE   W06
        BYTE           N24     Cn1   v110   gtp1
        BYTE                   Fn1   v090
        BYTE           N06     As1   v121
        BYTE   W06
// 035   ----------------------------------------
        BYTE           N04     Fs1   v098
        BYTE   W06
        BYTE                   Fs1   v115
        BYTE   W12
        BYTE           N24     Bn0   v110   gtp1
        BYTE                   En1   v113
        BYTE           N06     As1   v115
        BYTE   W06
        BYTE           N04     Fs1   v098
        BYTE   W06
        BYTE                   Fs1   v115
        BYTE   W06
        BYTE                   Fs1   v098
        BYTE   W06
        BYTE           N24     Cn1   v110   gtp1
        BYTE                   Fn1   v090
        BYTE           N06     As1   v121
        BYTE   W06
        BYTE           N04     Fs1   v098
        BYTE   W06
        BYTE                   Fs1   v115
        BYTE   W12
        BYTE           N13     Bn0   v101
        BYTE           N13     En1   v118
        BYTE           N04     Fs1   v115
        BYTE   W12
        BYTE           N07     Cn1   v110
        BYTE           N05     Fn1   v094
        BYTE           N04     Fs1   v115
        BYTE   W04
        BYTE           N07     Bn0   v101
        BYTE           N05     En1   v107
        BYTE   W02
        BYTE           N04     Fs1   v098
        BYTE   W02
        BYTE           N07     Cn1   v101
        BYTE           N05     Fn1   v080
        BYTE   W04
        BYTE           N07     Bn0   v101
        BYTE           N05     En1   v107
        BYTE           N06     As1   v121
        BYTE   W04
        BYTE           N07     Cn1   v101
        BYTE           N05     Fn1   v090
        BYTE   W02
// 036   ----------------------------------------
        BYTE           N04     Fs1   v098
        BYTE   W02
        BYTE           N07     Bn0   v101
        BYTE           N24     En1   v118   gtp1
        BYTE   W04
        BYTE                   Cn1   v110
        BYTE           N04     Fs1   v115
        BYTE           N72     Cs2   v104
        BYTE   W01
        BYTE           N68     Dn2   v083   gtp3
        BYTE   W11
        BYTE           N06     As1   v115
        BYTE   W06
        BYTE           N04     Fs1   v098
        BYTE   W06
        BYTE           N24     Bn0   v110   gtp1
        BYTE           N19     En1   v113
        BYTE           N04     Fs1   v115
        BYTE   W06
        BYTE                   Fs1   v098
        BYTE   W06
        BYTE           N06     As1   v121
        BYTE   W06
        BYTE           N24     Fn1   v075   gtp1
        BYTE           N04     Fs1   v098
        BYTE   W06
        BYTE           N24     Cn1   v110   gtp1
        BYTE           N04     Fs1   v115
        BYTE   W12
        BYTE           N06     As1
        BYTE   W06
        BYTE           N04     Fs1   v098
        BYTE   W06
        BYTE           N13     Bn0   v110
        BYTE           N19     En1   v113
        BYTE           N04     Fs1   v115
        BYTE   W06
        BYTE                   Fs1   v098
        BYTE   W06
        BYTE           N24     Cn1   v110   gtp1
        BYTE           N06     As1   v121
        BYTE   W06
// 037   ----------------------------------------
Dance_Brace_lesslessdrum_4_37:
        BYTE           N24     Fn1   v075   gtp1
        BYTE           N04     Fs1   v098
        BYTE   W06
        BYTE                   Fs1   v115
        BYTE   W12
        BYTE           N13     Bn0   v101
        BYTE           N13     Dn1   v113
        BYTE           N06     As1   v115
        BYTE   W06
        BYTE           N04     Fs1   v098
        BYTE   W06
        BYTE           N24     Cn1   v110   gtp1
        BYTE           N13     Cs1
        BYTE           N19     En1   v113
        BYTE           N04     Fs1   v115
        BYTE   W06
        BYTE                   Fs1   v098
        BYTE   W06
        BYTE           N06     As1   v121
        BYTE   W06
        BYTE           N24     Fn1   v075   gtp1
        BYTE           N04     Fs1   v098
        BYTE   W06
        BYTE           N13     Bn0   v110
        BYTE           N04     Fs1   v115
        BYTE   W12
        BYTE           N13     Cn1   v101
        BYTE           N06     As1   v115
        BYTE   W06
        BYTE           N04     Fs1   v098
        BYTE   W06
        BYTE           N13     Bn0   v110
        BYTE           N19     En1   v113
        BYTE           N04     Fs1   v115
        BYTE   W06
        BYTE                   Fs1   v098
        BYTE   W06
        BYTE           N07     Cn1   v101
        BYTE           N06     As1   v121
        BYTE   W06
        BYTE   PEND
// 038   ----------------------------------------
Dance_Brace_lesslessdrum_4_38:
        BYTE           N07     Bn0   v101
        BYTE           N24     Fn1   v075   gtp1
        BYTE           N04     Fs1   v098
        BYTE   W06
        BYTE           N24     Cn1   v110   gtp1
        BYTE           N04     Fs1   v115
        BYTE   W12
        BYTE           N06     As1
        BYTE   W06
        BYTE           N04     Fs1   v098
        BYTE   W06
        BYTE           N24     Bn0   v110   gtp1
        BYTE           N19     En1   v113
        BYTE           N04     Fs1   v115
        BYTE   W06
        BYTE                   Fs1   v098
        BYTE   W06
        BYTE           N06     As1   v121
        BYTE   W06
        BYTE           N24     Fn1   v075   gtp1
        BYTE           N04     Fs1   v098
        BYTE   W06
        BYTE           N24     Cn1   v110   gtp1
        BYTE           N04     Fs1   v115
        BYTE   W12
        BYTE           N06     As1
        BYTE   W06
        BYTE           N04     Fs1   v098
        BYTE   W06
        BYTE           N13     Bn0   v110
        BYTE           N19     En1   v113
        BYTE           N04     Fs1   v115
        BYTE   W06
        BYTE                   Fs1   v098
        BYTE   W06
        BYTE           N24     Cn1   v110   gtp1
        BYTE           N06     As1   v121
        BYTE   W06
        BYTE   PEND
// 039   ----------------------------------------
        BYTE   PATT
         POIN2  Dance_Brace_lesslessdrum_4_37
// 040   ----------------------------------------
        BYTE   PATT
         POIN2  Dance_Brace_lesslessdrum_4_38
// 041   ----------------------------------------
        BYTE   PATT
         POIN2  Dance_Brace_lesslessdrum_4_37
// 042   ----------------------------------------
        BYTE           N07     Bn0   v101
        BYTE           N24     Fn1   v075   gtp1
        BYTE           N04     Fs1   v098
        BYTE   W06
        BYTE           N24     Cn1   v110   gtp1
        BYTE           N04     Fs1   v115
        BYTE   W12
        BYTE           N06     As1
        BYTE   W06
        BYTE           N04     Fs1   v098
        BYTE   W06
        BYTE           N24     Bn0   v110   gtp1
        BYTE           N19     En1   v113
        BYTE           N04     Fs1   v115
        BYTE   W06
        BYTE                   Fs1   v098
        BYTE   W06
        BYTE           N06     As1   v121
        BYTE   W06
        BYTE           N24     Fn1   v075   gtp1
        BYTE           N04     Fs1   v098
        BYTE   W06
        BYTE           N24     Cn1   v110   gtp1
        BYTE           N04     Fs1   v115
        BYTE   W12
        BYTE           N06     As1
        BYTE   W06
        BYTE           N04     Fs1   v098
        BYTE   W06
        BYTE           N13     Bn0   v110
        BYTE           N13     En1   v113
        BYTE           N04     Fs1   v115
        BYTE   W06
        BYTE                   Fs1   v098
        BYTE   W06
        BYTE           N24     Cn1   v110   gtp1
        BYTE                   Fn1   v090
        BYTE   W06
// 043   ----------------------------------------
        BYTE           N04     Fs1   v098
        BYTE   W06
        BYTE                   Fs1   v115
        BYTE   W12
        BYTE           N24     Bn0   v110   gtp1
        BYTE                   En1   v113
        BYTE           N06     As1   v115
        BYTE   W06
        BYTE           N04     Fs1   v098
        BYTE   W06
        BYTE                   Fs1   v115
        BYTE   W06
        BYTE                   Fs1   v098
        BYTE   W06
        BYTE           N24     Cn1   v110   gtp1
        BYTE                   Fn1   v090
        BYTE           N06     As1   v121
        BYTE   W06
        BYTE           N04     Fs1   v098
        BYTE   W06
        BYTE                   Fs1   v115
        BYTE   W12
        BYTE           N13     Bn0   v101
        BYTE           N13     En1   v118
        BYTE           N04     Fs1   v115
        BYTE   W12
        BYTE           N07     Cn1   v110
        BYTE           N19     Fn1   v090
        BYTE           N04     Fs1   v115
        BYTE   W04
        BYTE           N07     Bn0   v101
        BYTE   W02
        BYTE           N04     Fs1   v098
        BYTE   W02
        BYTE           N07     Cn1   v101
        BYTE   W04
        BYTE                   Bn0
        BYTE           N06     As1   v121
        BYTE   W04
        BYTE           N07     Cn1   v101
        BYTE   W02
// 044   ----------------------------------------
        BYTE           N24     En1   v094   gtp1
        BYTE           N04     Fs1   v098
        BYTE   W02
        BYTE           N07     Bn0   v101
        BYTE   W04
        BYTE           N24     Cn1   v110   gtp1
        BYTE           N04     Fs1   v115
        BYTE           N72     Cs2   v104
        BYTE   W01
        BYTE           N68     Dn2   v083   gtp3
        BYTE   W11
        BYTE           N06     As1   v115
        BYTE   W06
        BYTE           N04     Fs1   v098
        BYTE   W06
        BYTE           N24     Bn0   v110   gtp1
        BYTE           N19     En1   v113
        BYTE           N04     Fs1   v115
        BYTE   W06
        BYTE                   Fs1   v098
        BYTE   W06
        BYTE           N06     As1   v121
        BYTE   W06
        BYTE           N24     Fn1   v075   gtp1
        BYTE           N04     Fs1   v098
        BYTE   W06
        BYTE           N24     Cn1   v110   gtp1
        BYTE           N04     Fs1   v115
        BYTE   W12
        BYTE           N06     As1
        BYTE           N05     Cn2   v111
        BYTE   W06
        BYTE           N04     Fs1   v098
        BYTE           N05     Bn1   v111
        BYTE   W06
        BYTE           N13     Bn0   v110
        BYTE           N19     En1   v113
        BYTE           N04     Fs1   v115
        BYTE   W06
        BYTE                   Fs1   v098
        BYTE   W06
        BYTE           N24     Cn1   v110   gtp1
        BYTE           N06     As1   v121
        BYTE   W06
// 045   ----------------------------------------
Dance_Brace_lesslessdrum_4_45:
        BYTE           N24     Fn1   v075   gtp1
        BYTE           N04     Fs1   v098
        BYTE   W06
        BYTE                   Fs1   v115
        BYTE   W12
        BYTE           N13     Bn0   v101
        BYTE           N13     Dn1   v113
        BYTE           N06     As1   v115
        BYTE   W06
        BYTE           N04     Fs1   v098
        BYTE   W06
        BYTE           N24     Cn1   v110   gtp1
        BYTE           N13     Cs1
        BYTE           N19     En1   v113
        BYTE           N04     Fs1   v115
        BYTE   W06
        BYTE                   Fs1   v098
        BYTE   W06
        BYTE           N06     As1   v121
        BYTE   W06
        BYTE           N24     Fn1   v075   gtp1
        BYTE           N04     Fs1   v098
        BYTE   W06
        BYTE           N13     Bn0   v110
        BYTE           N04     Fs1   v115
        BYTE   W12
        BYTE           N13     Cn1   v101
        BYTE           N06     As1   v115
        BYTE           N05     Cn2   v111
        BYTE   W06
        BYTE           N04     Fs1   v098
        BYTE           N05     Bn1   v111
        BYTE   W06
        BYTE           N13     Bn0   v110
        BYTE           N19     En1   v113
        BYTE           N04     Fs1   v115
        BYTE   W06
        BYTE                   Fs1   v098
        BYTE   W06
        BYTE           N07     Cn1   v101
        BYTE           N06     As1   v121
        BYTE   W06
        BYTE   PEND
// 046   ----------------------------------------
        BYTE           N07     Bn0   v101
        BYTE           N24     Fn1   v075   gtp1
        BYTE           N04     Fs1   v098
        BYTE   W06
        BYTE           N24     Cn1   v110   gtp1
        BYTE           N04     Fs1   v115
        BYTE   W12
        BYTE           N06     As1
        BYTE   W06
        BYTE           N04     Fs1   v098
        BYTE   W06
        BYTE           N24     Bn0   v110   gtp1
        BYTE           N19     En1   v113
        BYTE           N04     Fs1   v115
        BYTE   W06
        BYTE                   Fs1   v098
        BYTE   W06
        BYTE           N06     As1   v121
        BYTE   W06
        BYTE           N24     Fn1   v075   gtp1
        BYTE           N04     Fs1   v098
        BYTE   W06
        BYTE           N24     Cn1   v110   gtp1
        BYTE           N04     Fs1   v115
        BYTE   W12
        BYTE           N06     As1
        BYTE           N05     Cn2   v111
        BYTE   W06
        BYTE           N04     Fs1   v098
        BYTE           N05     Bn1   v111
        BYTE   W06
        BYTE           N13     Bn0   v110
        BYTE           N19     En1   v113
        BYTE           N04     Fs1   v115
        BYTE   W06
        BYTE                   Fs1   v098
        BYTE   W06
        BYTE           N24     Cn1   v110   gtp1
        BYTE           N06     As1   v121
        BYTE   W06
// 047   ----------------------------------------
        BYTE   PATT
         POIN2  Dance_Brace_lesslessdrum_4_45
// 048   ----------------------------------------
        BYTE           N07     Bn0   v101
        BYTE           N24     Fn1   v075   gtp1
        BYTE           N04     Fs1   v098
        BYTE   W06
        BYTE           N24     Cn1   v110   gtp1
        BYTE           N04     Fs1   v115
        BYTE   W12
        BYTE           N06     As1
        BYTE   W06
        BYTE           N04     Fs1   v098
        BYTE   W06
        BYTE           N24     Bn0   v110   gtp1
        BYTE           N19     En1   v113
        BYTE           N04     Fs1   v115
        BYTE   W06
        BYTE                   Fs1   v098
        BYTE   W06
        BYTE           N06     As1   v121
        BYTE   W06
        BYTE           N24     Fn1   v075   gtp1
        BYTE           N04     Fs1   v098
        BYTE   W06
        BYTE           N24     Cn1   v110   gtp1
        BYTE           N04     Fs1   v115
        BYTE   W12
        BYTE           N06     As1
        BYTE           N05     Cn2   v111
        BYTE   W06
        BYTE           N04     Fs1   v098
        BYTE           N05     Bn1   v111
        BYTE   W06
        BYTE           N13     Bn0   v110
        BYTE           N13     En1   v113
        BYTE           N04     Fs1   v115
        BYTE   W06
        BYTE                   Fs1   v098
        BYTE   W06
        BYTE           N24     Cn1   v110   gtp1
        BYTE                   Fn1   v090
        BYTE           N06     As1   v121
        BYTE   W06
// 049   ----------------------------------------
        BYTE           N04     Fs1   v098
        BYTE   W06
        BYTE                   Fs1   v115
        BYTE   W12
        BYTE           N13     Bn0   v101
        BYTE           N13     En1   v113
        BYTE           N06     As1   v115
        BYTE   W06
        BYTE           N04     Fs1   v098
        BYTE   W06
        BYTE           N24     Cn1   v110   gtp1
        BYTE           N19     Fn1   v090
        BYTE           N04     Fs1   v115
        BYTE   W06
        BYTE                   Fs1   v098
        BYTE   W06
        BYTE           N06     As1   v121
        BYTE   W06
        BYTE           N07     En1   v094
        BYTE           N04     Fs1   v098
        BYTE   W06
        BYTE           N13     Bn0   v110
        BYTE           N07     Fn1   v094
        BYTE           N04     Fs1   v115
        BYTE   W06
        BYTE           N07     En1   v107
        BYTE   W06
        BYTE           N13     Cn1   v101
        BYTE           N07     Fn1   v075
        BYTE           N06     As1   v115
        BYTE           N05     Cn2   v111
        BYTE   W06
        BYTE           N07     En1   v107
        BYTE           N04     Fs1   v098
        BYTE           N05     Bn1   v111
        BYTE   W06
        BYTE           N13     Bn0   v110
        BYTE           N05     Fn1   v094
        BYTE           N04     Fs1   v115
        BYTE   W04
        BYTE           N05     En1   v107
        BYTE   W02
        BYTE           N04     Fs1   v098
        BYTE   W02
        BYTE           N05     Fn1   v080
        BYTE   W04
        BYTE           N07     Cn1   v101
        BYTE           N05     En1   v107
        BYTE           N06     As1   v121
        BYTE   W04
        BYTE           N05     Fn1   v090
        BYTE   W02
// 050   ----------------------------------------
        BYTE           N07     Bn0   v101
        BYTE           N04     Fs1   v098
        BYTE   W02
        BYTE           N24     En1   v118   gtp1
        BYTE   W04
        BYTE                   Cn1   v110
        BYTE           N04     Fs1   v115
        BYTE           N72     Cs2   v104
        BYTE   W01
        BYTE           N68     Dn2   v083   gtp3
        BYTE   W11
        BYTE           N06     As1   v115
        BYTE   W06
        BYTE           N04     Fs1   v098
        BYTE   W06
        BYTE           N24     Bn0   v110   gtp1
        BYTE                   Dn1
        BYTE           N23     Ds1   v115
        BYTE           N19     En1   v113
        BYTE           N04     Fs1   v115
        BYTE   W01
        BYTE           N22     Gn1   v118
        BYTE   W05
        BYTE           N04     Fs1   v098
        BYTE   W06
        BYTE           N06     As1   v121
        BYTE   W06
        BYTE           N24     Fn1   v075   gtp1
        BYTE           N04     Fs1   v098
        BYTE   W06
        BYTE           N24     Cn1   v110   gtp1
        BYTE           N04     Fs1   v115
        BYTE   W12
        BYTE           N06     As1
        BYTE           N05     Cn2   v111
        BYTE   W06
        BYTE           N04     Fs1   v098
        BYTE           N05     Bn1   v111
        BYTE   W06
        BYTE           N13     Bn0   v110
        BYTE           N24     Dn1   v110   gtp1
        BYTE           N23     Ds1   v115
        BYTE           N19     En1   v113
        BYTE           N04     Fs1   v115
        BYTE   W01
        BYTE           N22     Gn1   v118
        BYTE   W05
        BYTE           N04     Fs1   v098
        BYTE   W06
        BYTE           N24     Cn1   v110   gtp1
        BYTE           N06     As1   v121
        BYTE   W06
// 051   ----------------------------------------
        BYTE           N24     Fn1   v075   gtp1
        BYTE           N04     Fs1   v098
        BYTE   W06
        BYTE                   Fs1   v115
        BYTE   W12
        BYTE           N13     Bn0   v101
        BYTE           N06     As1   v115
        BYTE   W06
        BYTE           N04     Fs1   v098
        BYTE   W06
        BYTE           N24     Cn1   v110   gtp1
        BYTE                   Dn1
        BYTE           N23     Ds1   v115
        BYTE           N19     En1   v113
        BYTE           N04     Fs1   v115
        BYTE   W01
        BYTE           N22     Gn1   v118
        BYTE   W05
        BYTE           N04     Fs1   v098
        BYTE   W06
        BYTE           N06     As1   v121
        BYTE   W06
        BYTE           N24     Fn1   v075   gtp1
        BYTE           N04     Fs1   v098
        BYTE   W06
        BYTE           N13     Bn0   v110
        BYTE           N04     Fs1   v115
        BYTE   W12
        BYTE           N13     Cn1   v101
        BYTE           N06     As1   v115
        BYTE           N05     Cn2   v111
        BYTE   W06
        BYTE           N04     Fs1   v098
        BYTE           N05     Bn1   v111
        BYTE   W06
        BYTE           N13     Bn0   v110
        BYTE           N24     Dn1   v110   gtp1
        BYTE           N23     Ds1   v115
        BYTE           N19     En1   v113
        BYTE           N04     Fs1   v115
        BYTE   W01
        BYTE           N22     Gn1   v118
        BYTE   W05
        BYTE           N04     Fs1   v098
        BYTE   W06
        BYTE           N07     Cn1   v101
        BYTE           N06     As1   v121
        BYTE   W06
// 052   ----------------------------------------
        BYTE           N07     Bn0   v101
        BYTE           N24     Fn1   v075   gtp1
        BYTE           N04     Fs1   v098
        BYTE   W06
        BYTE           N24     Cn1   v110   gtp1
        BYTE           N04     Fs1   v115
        BYTE   W12
        BYTE           N06     As1
        BYTE   W06
        BYTE           N04     Fs1   v098
        BYTE   W06
        BYTE           N24     Bn0   v110   gtp1
        BYTE                   Dn1
        BYTE           N23     Ds1   v115
        BYTE           N07     En1   v107
        BYTE           N04     Fs1   v115
        BYTE   W01
        BYTE           N22     Gn1   v118
        BYTE   W05
        BYTE           N07     Fn1   v075
        BYTE           N04     Fs1   v098
        BYTE   W06
        BYTE           N07     En1   v080
        BYTE           N06     As1   v121
        BYTE   W06
        BYTE           N07     Fn1   v075
        BYTE           N04     Fs1   v098
        BYTE   W06
        BYTE           N24     Cn1   v110   gtp1
        BYTE           N07     En1
        BYTE           N04     Fs1   v115
        BYTE   W06
        BYTE           N07     Fn1   v078
        BYTE   W06
        BYTE                   En1   v084
        BYTE           N06     As1   v115
        BYTE           N05     Cn2   v111
        BYTE   W06
        BYTE           N07     Fn1   v078
        BYTE           N04     Fs1   v098
        BYTE           N05     Bn1   v111
        BYTE   W06
        BYTE           N24     Bn0   v110   gtp1
        BYTE                   Dn1
        BYTE           N23     Ds1   v115
        BYTE           N07     En1   v113
        BYTE           N04     Fs1   v115
        BYTE   W01
        BYTE           N22     Gn1   v118
        BYTE   W05
        BYTE           N07     Fn1   v080
        BYTE           N04     Fs1   v098
        BYTE   W06
        BYTE           N07     En1   v087
        BYTE           N06     As1   v121
        BYTE   W06
// 053   ----------------------------------------
        BYTE           N07     Fn1   v080
        BYTE           N04     Fs1   v098
        BYTE   W06
        BYTE           N24     Cn1   v110   gtp1
        BYTE           N07     En1   v115
        BYTE           N04     Fs1
        BYTE   W06
        BYTE           N07     Fn1   v083
        BYTE   W06
        BYTE                   En1   v091
        BYTE           N06     As1   v115
        BYTE   W06
        BYTE           N07     Fn1   v083
        BYTE           N04     Fs1   v098
        BYTE   W06
        BYTE           N13     Bn0   v110
        BYTE           N07     En1   v118
        BYTE           N04     Fs1   v115
        BYTE   W06
        BYTE           N07     Fn1   v083
        BYTE           N04     Fs1   v098
        BYTE   W06
        BYTE           N24     Cn1   v110   gtp1
        BYTE                   En1   v113
        BYTE           N06     As1   v121
        BYTE   W06
        BYTE           N04     Fs1   v098
        BYTE   W06
        BYTE                   Fs1   v115
        BYTE   W12
        BYTE           N23     Bn0   v110
        BYTE           N23     Fn1   v094
        BYTE           N06     As1   v115
        BYTE           N05     Cn2   v111
        BYTE   W06
        BYTE           N04     Fs1   v098
        BYTE           N05     Bn1   v111
        BYTE   W06
        BYTE           N04     Fs1   v115
        BYTE   W06
        BYTE                   Fs1   v098
        BYTE   W04
        BYTE   GoTo
         POIN2  Dance_Brace_lesslessdrum_4_LOOP
        BYTE   W01
        BYTE   FINE

//****************** Track 5 (Midi-Chn.8) ******************//

Dance_Brace_lesslessdrum_5:
        BYTE   KEYSH   Dance_Brace_lesslessdrum_key+0
// 000   ----------------------------------------
        BYTE           VOICE   38
        BYTE           VOL     39
        BYTE   W06
        BYTE           N18     Fn0   v113
        BYTE   W72
        BYTE           N08
        BYTE   W12
        BYTE           N18     Cs1
        BYTE   W06
// 001   ----------------------------------------
        BYTE   W78
        BYTE           N20
        BYTE   W18
// 002   ----------------------------------------
        BYTE   W06
        BYTE           N24     Cn1
        BYTE   W36
        BYTE           N30     Gs0
        BYTE   W36
        BYTE           N18
        BYTE   W18
// 003   ----------------------------------------
        BYTE   W06
        BYTE                   As0
        BYTE   W24
        BYTE           N08
        BYTE   W12
        BYTE           N18     Cn1
        BYTE   W24
        BYTE                   Cn1
        BYTE   W21
Dance_Brace_lesslessdrum_5_LOOP:
        BYTE   W03
        BYTE           N18     Fn0   v113
        BYTE   W06
// 004   ----------------------------------------
Dance_Brace_lesslessdrum_5_4:
        BYTE   W18
        BYTE           N08     Fn0   v113
        BYTE   W12
        BYTE           N10
        BYTE   W12
        BYTE           N05
        BYTE   W06
        BYTE           N04     Cn1
        BYTE   W06
        BYTE           N12     Fn0
        BYTE   W12
        BYTE           N05     Fn1
        BYTE   W12
        BYTE           N10     Fn0
        BYTE   W12
        BYTE           N05
        BYTE   W06
        BYTE   PEND
// 005   ----------------------------------------
Dance_Brace_lesslessdrum_5_5:
        BYTE           N04     Cn1   v113
        BYTE   W06
        BYTE           N11
        BYTE   W12
        BYTE           N08
        BYTE   W12
        BYTE           N10
        BYTE   W12
        BYTE           N05
        BYTE   W06
        BYTE           N04     Gn1
        BYTE   W06
        BYTE           N12     Cn1
        BYTE   W12
        BYTE           N05     Cn2
        BYTE   W12
        BYTE           N10     Cn1
        BYTE   W12
        BYTE           N05
        BYTE   W06
        BYTE   PEND
// 006   ----------------------------------------
Dance_Brace_lesslessdrum_5_6:
        BYTE           N04     Gn1   v113
        BYTE   W06
        BYTE           N11     Cs1
        BYTE   W12
        BYTE           N08
        BYTE   W12
        BYTE           N10
        BYTE   W12
        BYTE           N05
        BYTE   W06
        BYTE           N04     Gs1
        BYTE   W06
        BYTE           N12     Cs1
        BYTE   W12
        BYTE           N05     Cs2
        BYTE   W12
        BYTE           N10     Cs1
        BYTE   W12
        BYTE           N05
        BYTE   W06
        BYTE   PEND
// 007   ----------------------------------------
Dance_Brace_lesslessdrum_5_7:
        BYTE           N04     Gs1   v113
        BYTE   W06
        BYTE           N11     Gs0
        BYTE   W12
        BYTE           N08
        BYTE   W12
        BYTE           N10
        BYTE   W12
        BYTE           N05
        BYTE   W06
        BYTE           N04     Ds1
        BYTE   W06
        BYTE           N12     Gs0
        BYTE   W12
        BYTE           N05     Gs1
        BYTE   W12
        BYTE           N10     Gs0
        BYTE   W12
        BYTE           N05
        BYTE   W06
        BYTE   PEND
// 008   ----------------------------------------
        BYTE           N04     Ds1
        BYTE   W06
        BYTE           N11     As0
        BYTE   W12
        BYTE           N08
        BYTE   W12
        BYTE           N10
        BYTE   W12
        BYTE           N05
        BYTE   W06
        BYTE           N04     Fn1
        BYTE   W06
        BYTE           N12     As0
        BYTE   W12
        BYTE           N05     As1
        BYTE   W12
        BYTE           N10     As0
        BYTE   W12
        BYTE           N05
        BYTE   W06
// 009   ----------------------------------------
        BYTE           N04     Fn1
        BYTE   W06
        BYTE           N11     As0
        BYTE   W12
        BYTE           N08
        BYTE   W12
        BYTE           N10
        BYTE   W12
        BYTE           N05
        BYTE   W06
        BYTE           N04     Fn1
        BYTE   W06
        BYTE           N12     As0
        BYTE   W12
        BYTE           N05     As1
        BYTE   W12
        BYTE           N10     As0
        BYTE   W12
        BYTE           N05
        BYTE   W06
// 010   ----------------------------------------
        BYTE           N04     Fn1
        BYTE   W06
        BYTE           N11     Cn1
        BYTE   W12
        BYTE           N08
        BYTE   W12
        BYTE           N10
        BYTE   W12
        BYTE           N05
        BYTE   W06
        BYTE           N04     Gn1
        BYTE   W06
        BYTE           N12     Cn1
        BYTE   W12
        BYTE           N05     Cn2
        BYTE   W12
        BYTE           N10     Cn1
        BYTE   W12
        BYTE           N23     Cs1
        BYTE   W06
// 011   ----------------------------------------
        BYTE   W18
        BYTE           N08     Cs2
        BYTE   W12
        BYTE           N10     Cn1
        BYTE   W12
        BYTE           N05
        BYTE   W06
        BYTE           N04     Gn1
        BYTE   W06
        BYTE           N12     As0
        BYTE   W12
        BYTE           N05     As1
        BYTE   W12
        BYTE           N10     Dn1
        BYTE   W12
        BYTE           N18     Fn0
        BYTE   W06
// 012   ----------------------------------------
        BYTE   PATT
         POIN2  Dance_Brace_lesslessdrum_5_4
// 013   ----------------------------------------
        BYTE   PATT
         POIN2  Dance_Brace_lesslessdrum_5_5
// 014   ----------------------------------------
        BYTE   PATT
         POIN2  Dance_Brace_lesslessdrum_5_6
// 015   ----------------------------------------
        BYTE   PATT
         POIN2  Dance_Brace_lesslessdrum_5_7
// 016   ----------------------------------------
        BYTE           N04     Ds1   v113
        BYTE   W06
        BYTE           N11     As0
        BYTE   W12
        BYTE           N08
        BYTE   W12
        BYTE           N10
        BYTE   W12
        BYTE           N05
        BYTE   W06
        BYTE           N04     Fn1
        BYTE   W06
        BYTE           N12     As0
        BYTE   W12
        BYTE           N05     As1
        BYTE   W12
        BYTE           N10     As0
        BYTE   W12
        BYTE           N18     Cn1
        BYTE   W06
// 017   ----------------------------------------
        BYTE   W18
        BYTE           N08
        BYTE   W12
        BYTE           N28
        BYTE   W36
        BYTE           N05     As1
        BYTE   W06
        BYTE           N04     Cn2
        BYTE   W06
        BYTE           N05     Fn1
        BYTE   W06
        BYTE           N04     Gn1
        BYTE   W06
        BYTE           N05     As0
        BYTE   W06
// 018   ----------------------------------------
        BYTE           N04     Cn1
        BYTE   W06
        BYTE           N11     Fn0
        BYTE   W12
        BYTE           N08
        BYTE   W12
        BYTE           N10
        BYTE   W12
        BYTE           N05
        BYTE   W06
        BYTE           N04     Cn1
        BYTE   W06
        BYTE           N12     Fn0
        BYTE   W12
        BYTE           N05     Fn1
        BYTE   W12
        BYTE           N10     Fn0
        BYTE   W12
        BYTE           N23     Bn0
        BYTE   W06
// 019   ----------------------------------------
        BYTE   W18
        BYTE           N08     Bn1
        BYTE   W12
        BYTE           N10     As0
        BYTE   W12
        BYTE           N05
        BYTE   W06
        BYTE           N04     Fn1
        BYTE   W06
        BYTE           N12     Gs0
        BYTE   W12
        BYTE           N05     Gs1
        BYTE   W12
        BYTE           N10     Fn0
        BYTE   W12
        BYTE           N05
        BYTE   W06
// 020   ----------------------------------------
        BYTE           N04     Fn1
        BYTE   W06
        BYTE           N05     Cn1
        BYTE   W12
        BYTE                   Cn1
        BYTE   W12
        BYTE                   Cn1
        BYTE   W12
        BYTE                   Cn1
        BYTE   W06
        BYTE           N04     Cn2
        BYTE   W06
        BYTE           N05     Cn1
        BYTE   W12
        BYTE                   Cn1
        BYTE   W12
        BYTE                   Cn1
        BYTE   W12
        BYTE                   Cn1
        BYTE   W06
// 021   ----------------------------------------
        BYTE   W06
        BYTE                   Cn1
        BYTE   W12
        BYTE                   Cn1
        BYTE   W12
        BYTE                   Cn1
        BYTE   W12
        BYTE                   Cn1
        BYTE   W12
        BYTE                   Cn1
        BYTE   W12
        BYTE                   Cn1
        BYTE   W06
        BYTE           N04     Cn2
        BYTE   W06
        BYTE           N05     Fn1
        BYTE   W06
        BYTE           N04     Gn1
        BYTE   W06
        BYTE           N05     As0
        BYTE   W06
// 022   ----------------------------------------
        BYTE           N04     Cn1
        BYTE   W06
        BYTE           N05     Fn0
        BYTE   W12
        BYTE                   Fn0
        BYTE   W12
        BYTE                   Fn0
        BYTE   W12
        BYTE                   Fn0
        BYTE   W06
        BYTE           N04     Fn1
        BYTE   W06
        BYTE           N05     Fn0
        BYTE   W12
        BYTE                   Fn0
        BYTE   W12
        BYTE                   Fn0
        BYTE   W12
        BYTE                   Fn0
        BYTE   W06
// 023   ----------------------------------------
        BYTE   W06
        BYTE                   Fn0
        BYTE   W12
        BYTE                   Fn0
        BYTE   W12
        BYTE                   Fn0
        BYTE   W12
        BYTE                   Fn0
        BYTE   W12
        BYTE                   Fn0
        BYTE   W12
        BYTE                   Fn0
        BYTE   W06
        BYTE           N04     Fn1
        BYTE   W06
        BYTE           N05     As0
        BYTE   W06
        BYTE           N04     Cn1
        BYTE   W06
        BYTE           N05     Ds0
        BYTE   W06
// 024   ----------------------------------------
        BYTE           N04     Fn0
        BYTE   W06
        BYTE           N05     As0
        BYTE   W12
        BYTE                   As0
        BYTE   W12
        BYTE                   As0
        BYTE   W12
        BYTE                   As0
        BYTE   W06
        BYTE           N04     As1
        BYTE   W06
        BYTE           N05     As0
        BYTE   W12
        BYTE                   As0
        BYTE   W12
        BYTE                   As0
        BYTE   W12
        BYTE           N17     Cn1
        BYTE   W06
// 025   ----------------------------------------
        BYTE   W18
        BYTE           N05
        BYTE   W12
        BYTE                   Cn1
        BYTE   W12
        BYTE                   Cn1
        BYTE   W12
        BYTE                   Cn1
        BYTE   W12
        BYTE                   Cn1
        BYTE   W06
        BYTE           N04     Cn2
        BYTE   W06
        BYTE           N05     Fn1
        BYTE   W06
        BYTE           N04     Gn1
        BYTE   W06
        BYTE           N05     As0
        BYTE   W06
// 026   ----------------------------------------
        BYTE           N04     Cn1
        BYTE   W06
        BYTE           N05     Fn0
        BYTE   W12
        BYTE                   Fn0
        BYTE   W12
        BYTE                   Fn0
        BYTE   W06
        BYTE           N04     Fn1
        BYTE   W06
        BYTE           N17     Fn0
        BYTE   W24
        BYTE           N05
        BYTE   W12
        BYTE                   Fn0
        BYTE   W06
        BYTE           N04     Fn1
        BYTE   W06
        BYTE           N17     Fn0
        BYTE   W06
// 027   ----------------------------------------
        BYTE   W18
        BYTE           N05
        BYTE   W12
        BYTE                   Fn0
        BYTE   W06
        BYTE           N04     Fn1
        BYTE   W06
        BYTE           N17     Fn0
        BYTE   W24
        BYTE           N05
        BYTE   W12
        BYTE                   Fn0
        BYTE   W06
        BYTE           N04     Fn1
        BYTE   W06
        BYTE           N11     Fn0
        BYTE   W06
// 028   ----------------------------------------
        BYTE   W06
        BYTE           N05     Cs1
        BYTE   W12
        BYTE                   Gs1
        BYTE   W12
        BYTE                   Cs1
        BYTE   W12
        BYTE                   Cs1
        BYTE   W06
        BYTE           N04     Cs2
        BYTE   W06
        BYTE           N05     Cs1
        BYTE   W12
        BYTE                   Gs1
        BYTE   W12
        BYTE                   Cs1
        BYTE   W12
        BYTE                   Cs1
        BYTE   W06
// 029   ----------------------------------------
        BYTE           N04     Cs2
        BYTE   W06
        BYTE           N05     Cn1
        BYTE   W12
        BYTE                   Gn1
        BYTE   W12
        BYTE                   Cn1
        BYTE   W12
        BYTE                   Cn1
        BYTE   W06
        BYTE           N04     Cn2
        BYTE   W06
        BYTE           N05     Cn1
        BYTE   W12
        BYTE                   Gn1
        BYTE   W12
        BYTE                   Cn1
        BYTE   W12
        BYTE                   Cn1
        BYTE   W06
// 030   ----------------------------------------
        BYTE           N04     Cn2
        BYTE   W06
        BYTE           N11     Ds0
        BYTE   W12
        BYTE           N05     As0
        BYTE   W12
        BYTE                   Ds0
        BYTE   W12
        BYTE           N23     Fn0
        BYTE   W24
        BYTE           N05     Cn1
        BYTE   W12
        BYTE           N11     As0
        BYTE   W12
        BYTE           N23     As1
        BYTE   W06
// 031   ----------------------------------------
        BYTE   W18
        BYTE           N05     Fn1
        BYTE   W12
        BYTE                   As0
        BYTE   W12
        BYTE           N23     Fn0
        BYTE   W24
        BYTE           N05     Fn1
        BYTE   W12
        BYTE                   As0
        BYTE   W12
        BYTE                   As0
        BYTE   W06
// 032   ----------------------------------------
        BYTE           N04     As1
        BYTE   W06
        BYTE           N05     Cn1
        BYTE   W12
        BYTE                   Gn1
        BYTE   W12
        BYTE                   Cn1
        BYTE   W12
        BYTE                   Cn1
        BYTE   W06
        BYTE           N04     Cn2
        BYTE   W06
        BYTE           N05     Cn1
        BYTE   W12
        BYTE                   Gn1
        BYTE   W12
        BYTE                   Cn1
        BYTE   W12
        BYTE                   Cn1
        BYTE   W06
// 033   ----------------------------------------
        BYTE           N04     Cn2
        BYTE   W06
        BYTE           N05     Cn1
        BYTE   W12
        BYTE                   Fs1
        BYTE   W12
        BYTE                   Cn1
        BYTE   W12
        BYTE                   Cn1
        BYTE   W06
        BYTE           N04     Cn2
        BYTE   W06
        BYTE           N05     Cn1
        BYTE   W12
        BYTE                   Gn1
        BYTE   W12
        BYTE                   Cn1
        BYTE   W12
        BYTE                   Cn1
        BYTE   W06
// 034   ----------------------------------------
        BYTE           N04     Cn2
        BYTE   W06
        BYTE           N11     Bn0
        BYTE   W12
        BYTE           N05     Fs1
        BYTE   W24
        BYTE           N17     Bn0
        BYTE   W24
        BYTE           N11     Cs1
        BYTE   W12
        BYTE           N05
        BYTE   W12
        BYTE           N11
        BYTE   W06
// 035   ----------------------------------------
Dance_Brace_lesslessdrum_5_35:
        BYTE   W18
        BYTE           N11     Cs1   v113
        BYTE   W24
        BYTE                   Cs1
        BYTE   W24
        BYTE           N05
        BYTE   W12
        BYTE           N17     Dn1
        BYTE   W18
        BYTE   PEND
// 036   ----------------------------------------
        BYTE   W06
        BYTE           N11     Fs0
        BYTE   W12
        BYTE           N08
        BYTE   W12
        BYTE           N10
        BYTE   W12
        BYTE           N05
        BYTE   W06
        BYTE           N04     Cs1
        BYTE   W06
        BYTE           N12     Fs0
        BYTE   W12
        BYTE           N05     Fs1
        BYTE   W12
        BYTE           N10     Fs0
        BYTE   W12
        BYTE           N23
        BYTE   W06
// 037   ----------------------------------------
Dance_Brace_lesslessdrum_5_37:
        BYTE   W18
        BYTE           N08     Fs0   v113
        BYTE   W12
        BYTE           N10
        BYTE   W12
        BYTE           N05
        BYTE   W06
        BYTE           N04     Cs1
        BYTE   W06
        BYTE           N12     Fs0
        BYTE   W12
        BYTE           N05     Fs1
        BYTE   W12
        BYTE           N10     Fs0
        BYTE   W12
        BYTE           N05
        BYTE   W06
        BYTE   PEND
// 038   ----------------------------------------
        BYTE           N04     Cs1
        BYTE   W06
        BYTE           N11     Dn1
        BYTE   W12
        BYTE           N08
        BYTE   W12
        BYTE           N10
        BYTE   W12
        BYTE           N05
        BYTE   W06
        BYTE           N04     An1
        BYTE   W06
        BYTE           N12     Dn1
        BYTE   W12
        BYTE           N05     Dn2
        BYTE   W12
        BYTE           N10     Dn1
        BYTE   W12
        BYTE           N23
        BYTE   W06
// 039   ----------------------------------------
        BYTE   W18
        BYTE           N08
        BYTE   W12
        BYTE           N10
        BYTE   W12
        BYTE           N05
        BYTE   W06
        BYTE           N04     An1
        BYTE   W06
        BYTE           N12     Dn1
        BYTE   W12
        BYTE           N05     Dn2
        BYTE   W12
        BYTE           N10     Dn1
        BYTE   W12
        BYTE           N05
        BYTE   W06
// 040   ----------------------------------------
        BYTE           N04     An1
        BYTE   W06
        BYTE           N11     Bn0
        BYTE   W12
        BYTE           N08
        BYTE   W12
        BYTE           N10
        BYTE   W12
        BYTE           N05
        BYTE   W06
        BYTE           N04     Fs1
        BYTE   W06
        BYTE           N12     Bn0
        BYTE   W12
        BYTE           N05     Bn1
        BYTE   W12
        BYTE           N10     Bn0
        BYTE   W12
        BYTE           N23
        BYTE   W06
// 041   ----------------------------------------
        BYTE   W18
        BYTE           N08
        BYTE   W12
        BYTE           N10
        BYTE   W12
        BYTE           N05
        BYTE   W06
        BYTE           N04     Fs1
        BYTE   W06
        BYTE           N12     Bn0
        BYTE   W12
        BYTE           N05     Bn1
        BYTE   W12
        BYTE           N10     Bn0
        BYTE   W12
        BYTE           N05
        BYTE   W06
// 042   ----------------------------------------
        BYTE           N04     Fs1
        BYTE   W06
        BYTE           N11     Cs1
        BYTE   W12
        BYTE           N08
        BYTE   W12
        BYTE           N10
        BYTE   W12
        BYTE           N05
        BYTE   W06
        BYTE           N04     Gs1
        BYTE   W06
        BYTE           N12     Cs1
        BYTE   W12
        BYTE           N05     Cs2
        BYTE   W12
        BYTE                   Cs1
        BYTE   W12
        BYTE           N11
        BYTE   W06
// 043   ----------------------------------------
        BYTE   PATT
         POIN2  Dance_Brace_lesslessdrum_5_35
// 044   ----------------------------------------
        BYTE   W06
        BYTE           N11     Fs0   v113
        BYTE   W12
        BYTE           N08
        BYTE   W12
        BYTE           N10
        BYTE   W12
        BYTE           N05
        BYTE   W06
        BYTE           N04     Cs1
        BYTE   W06
        BYTE           N12     Fs0
        BYTE   W12
        BYTE           N05     Fs1
        BYTE   W12
        BYTE           N10     Fs0
        BYTE   W12
        BYTE           N23     En0
        BYTE   W06
// 045   ----------------------------------------
        BYTE   W18
        BYTE           N08
        BYTE   W12
        BYTE           N10
        BYTE   W12
        BYTE           N05
        BYTE   W06
        BYTE           N04     Bn0
        BYTE   W06
        BYTE           N12     En0
        BYTE   W12
        BYTE           N05     En1
        BYTE   W12
        BYTE           N10     En0
        BYTE   W12
        BYTE           N05
        BYTE   W06
// 046   ----------------------------------------
        BYTE           N04     Bn0
        BYTE   W06
        BYTE           N11     Dn1
        BYTE   W12
        BYTE           N08
        BYTE   W12
        BYTE           N10
        BYTE   W12
        BYTE           N05
        BYTE   W06
        BYTE           N04     An1
        BYTE   W06
        BYTE           N12     Dn1
        BYTE   W12
        BYTE           N05     Dn2
        BYTE   W12
        BYTE           N10     Dn1
        BYTE   W12
        BYTE           N23     Cs1
        BYTE   W06
// 047   ----------------------------------------
        BYTE   W18
        BYTE           N08
        BYTE   W12
        BYTE           N10
        BYTE   W12
        BYTE           N05
        BYTE   W06
        BYTE           N04     Gs1
        BYTE   W06
        BYTE           N12     Cs1
        BYTE   W12
        BYTE           N05     Cs2
        BYTE   W12
        BYTE           N10     Cs1
        BYTE   W12
        BYTE           N05
        BYTE   W06
// 048   ----------------------------------------
        BYTE           N04     Gs1
        BYTE   W06
        BYTE           N11     Bn0
        BYTE   W12
        BYTE           N08
        BYTE   W12
        BYTE           N10
        BYTE   W12
        BYTE           N05
        BYTE   W06
        BYTE           N04     Fs1
        BYTE   W06
        BYTE           N12     Bn0
        BYTE   W12
        BYTE           N05     Bn1
        BYTE   W12
        BYTE           N10     Bn0
        BYTE   W12
        BYTE           N23     Cs1
        BYTE   W06
// 049   ----------------------------------------
        BYTE   W18
        BYTE           N08
        BYTE   W12
        BYTE           N10
        BYTE   W24
        BYTE           N11
        BYTE   W12
        BYTE           N08
        BYTE   W12
        BYTE           N10
        BYTE   W12
        BYTE           N05
        BYTE   W06
// 050   ----------------------------------------
        BYTE           N04     Gs1
        BYTE   W06
        BYTE           N11     Fs0
        BYTE   W12
        BYTE           N08
        BYTE   W12
        BYTE           N10
        BYTE   W12
        BYTE           N05
        BYTE   W06
        BYTE           N04     Cs1
        BYTE   W06
        BYTE           N12     Fs0
        BYTE   W12
        BYTE           N05     Fs1
        BYTE   W12
        BYTE           N10     Fs0
        BYTE   W12
        BYTE           N23
        BYTE   W06
// 051   ----------------------------------------
        BYTE   PATT
         POIN2  Dance_Brace_lesslessdrum_5_37
// 052   ----------------------------------------
        BYTE           N04     Cs1   v113
        BYTE   W06
        BYTE           N11     Fs0
        BYTE   W12
        BYTE           N08
        BYTE   W12
        BYTE           N10
        BYTE   W12
        BYTE           N05
        BYTE   W06
        BYTE           N04     Cs1
        BYTE   W06
        BYTE           N12     Fs0
        BYTE   W12
        BYTE           N05     Fs1
        BYTE   W12
        BYTE           N10     Fs0
        BYTE   W12
        BYTE           N05     En1
        BYTE   W06
// 053   ----------------------------------------
        BYTE           N04     Fs1
        BYTE   W06
        BYTE           N18     As0
        BYTE   W24
        BYTE           N08
        BYTE   W12
        BYTE           N18     Cn1
        BYTE   W24
        BYTE                   Cn1
        BYTE   W22
        BYTE   GoTo
         POIN2  Dance_Brace_lesslessdrum_5_LOOP
        BYTE   W01
        BYTE   FINE

//***************** Track 6 (Midi-Chn.10) ******************//

Dance_Brace_lesslessdrum_6:
        BYTE   KEYSH   Dance_Brace_lesslessdrum_key+0
// 000   ----------------------------------------
        BYTE           VOICE   57
        BYTE           PAN     c_v+21
        BYTE           VOL     28
        BYTE   W96
// 001   ----------------------------------------
        BYTE   W96
// 002   ----------------------------------------
        BYTE   W96
// 003   ----------------------------------------
        BYTE   W84
        BYTE   W03
Dance_Brace_lesslessdrum_6_LOOP:
        BYTE   W09
// 004   ----------------------------------------
Dance_Brace_lesslessdrum_6_4:
        BYTE   W44
        BYTE   W03
        BYTE           N23     Cn3   v118
        BYTE   W24
        BYTE           N11     Fn3
        BYTE   W12
        BYTE           N23     Gs3
        BYTE   W13
        BYTE   PEND
// 005   ----------------------------------------
Dance_Brace_lesslessdrum_6_5:
        BYTE   W11
        BYTE           N23     Gn3   v118
        BYTE   W36
        BYTE                   Gn3
        BYTE   W24
        BYTE                   Gs3
        BYTE   W24
        BYTE                   As3
        BYTE   W01
        BYTE   PEND
// 006   ----------------------------------------
Dance_Brace_lesslessdrum_6_6:
        BYTE   W23
        BYTE           N23     Cn4   v118
        BYTE   W24
        BYTE           N10     As3   v113
        BYTE   W12
        BYTE           N56     Gs3   v118   gtp3
        BYTE   W36
        BYTE   W01
        BYTE   PEND
// 007   ----------------------------------------
Dance_Brace_lesslessdrum_6_7:
        BYTE   W80
        BYTE   W03
        BYTE           N11     Gs3   v118
        BYTE   W12
        BYTE           N09     Gn3   v113
        BYTE   W01
        BYTE   PEND
// 008   ----------------------------------------
        BYTE   W11
        BYTE                   Gs3
        BYTE   W12
        BYTE           N23     As3   v118
        BYTE   W24
        BYTE           N09     Gs3   v113
        BYTE   W11
        BYTE           N23     As3   v118
        BYTE   W36
        BYTE           N24     Fn3
        BYTE   W02
// 009   ----------------------------------------
        BYTE   W23
        BYTE           N23     As3
        BYTE   W24
        BYTE           N09     Gs3   v113
        BYTE   W12
        BYTE           N20     As3   v118
        BYTE   W24
        BYTE           N11     Gs3
        BYTE   W12
        BYTE           N09     Gn3   v113
        BYTE   W01
// 010   ----------------------------------------
        BYTE   W11
        BYTE                   Fn3
        BYTE   W12
        BYTE           N23     Gn3   v118
        BYTE   W24
        BYTE           N09     En3   v113
        BYTE   W12
        BYTE           N40     Cn4   v118   gtp1
        BYTE   W36
        BYTE   W01
// 011   ----------------------------------------
        BYTE   W96
// 012   ----------------------------------------
        BYTE   PATT
         POIN2  Dance_Brace_lesslessdrum_6_4
// 013   ----------------------------------------
        BYTE   PATT
         POIN2  Dance_Brace_lesslessdrum_6_5
// 014   ----------------------------------------
        BYTE   PATT
         POIN2  Dance_Brace_lesslessdrum_6_6
// 015   ----------------------------------------
        BYTE   PATT
         POIN2  Dance_Brace_lesslessdrum_6_7
// 016   ----------------------------------------
        BYTE   W11
        BYTE           N09     Ds3   v113
        BYTE   W12
        BYTE           N23     Fn3   v118
        BYTE   W24
        BYTE           N07     Cs3   v113
        BYTE   W12
        BYTE           N21     Cs3   v118
        BYTE   W24
        BYTE           N11     Ds3
        BYTE   W12
        BYTE           N09     Fn3   v113
        BYTE   W01
// 017   ----------------------------------------
        BYTE   W11
        BYTE           N40     Ds3   v118   gtp1
        BYTE   W48
        BYTE           N11
        BYTE   W12
        BYTE           N17     As3
        BYTE   W18
        BYTE                   Gs3
        BYTE   W07
// 018   ----------------------------------------
        BYTE   W11
        BYTE           N10     Gn3
        BYTE   W12
        BYTE           N11
        BYTE   W12
        BYTE           N09     Fn3   v113
        BYTE   W24
        BYTE           N44     Fn3   v118   gtp3
        BYTE   W36
        BYTE   W01
// 019   ----------------------------------------
        BYTE   W96
// 020   ----------------------------------------
        BYTE   W96
// 021   ----------------------------------------
        BYTE   W96
// 022   ----------------------------------------
        BYTE   W96
// 023   ----------------------------------------
        BYTE   W96
// 024   ----------------------------------------
        BYTE   W96
// 025   ----------------------------------------
        BYTE   W96
// 026   ----------------------------------------
        BYTE   W96
// 027   ----------------------------------------
        BYTE   W96
// 028   ----------------------------------------
        BYTE   W96
// 029   ----------------------------------------
        BYTE   W96
// 030   ----------------------------------------
        BYTE   W96
// 031   ----------------------------------------
        BYTE   W96
// 032   ----------------------------------------
        BYTE   W96
// 033   ----------------------------------------
        BYTE   W96
// 034   ----------------------------------------
        BYTE   W96
// 035   ----------------------------------------
Dance_Brace_lesslessdrum_6_35:
        BYTE   W44
        BYTE   W03
        BYTE           N23     En3   v121
        BYTE   W24
        BYTE                   En4
        BYTE   W24
        BYTE                   Dn4
        BYTE   W01
        BYTE   PEND
// 036   ----------------------------------------
Dance_Brace_lesslessdrum_6_36:
        BYTE   W23
        BYTE           N28     Cs4   v121   gtp1
        BYTE   W36
        BYTE                   Fs3
        BYTE   W36
        BYTE           N11     Gs3
        BYTE   W01
        BYTE   PEND
// 037   ----------------------------------------
Dance_Brace_lesslessdrum_6_37:
        BYTE   W11
        BYTE           N17     An3   v121
        BYTE   W36
        BYTE           N23     Gs3
        BYTE   W24
        BYTE           N17     An3
        BYTE   W24
        BYTE                   Cs4
        BYTE   W01
        BYTE   PEND
// 038   ----------------------------------------
        BYTE   W23
        BYTE           N28     En4   v121   gtp1
        BYTE   W36
        BYTE                   Cs4
        BYTE   W36
        BYTE           N11     Bn3
        BYTE   W01
// 039   ----------------------------------------
        BYTE   W11
        BYTE           N17     Cs4
        BYTE   W60
        BYTE                   Fs4
        BYTE   W24
        BYTE                   An4
        BYTE   W01
// 040   ----------------------------------------
        BYTE   W23
        BYTE           N30     Gs4   v121   gtp1
        BYTE   W36
        BYTE           N32     Fs4   v121   gtp3
        BYTE   W36
        BYTE           N17     Bn3
        BYTE   W01
// 041   ----------------------------------------
        BYTE   W23
        BYTE           N23     An3
        BYTE   W24
        BYTE           N17     Fs3
        BYTE   W24
        BYTE                   An3
        BYTE   W24
        BYTE                   Bn3
        BYTE   W01
// 042   ----------------------------------------
        BYTE   W23
        BYTE           N11
        BYTE   W12
        BYTE           N08     An3
        BYTE   W12
        BYTE                   Gs3
        BYTE   W12
        BYTE           N52     Cs4   v121   gtp1
        BYTE   W36
        BYTE   W01
// 043   ----------------------------------------
        BYTE   PATT
         POIN2  Dance_Brace_lesslessdrum_6_35
// 044   ----------------------------------------
        BYTE   PATT
         POIN2  Dance_Brace_lesslessdrum_6_36
// 045   ----------------------------------------
        BYTE   PATT
         POIN2  Dance_Brace_lesslessdrum_6_37
// 046   ----------------------------------------
        BYTE   W23
        BYTE           N30     En4   v121   gtp1
        BYTE   W36
        BYTE           N32     Cs4   v121   gtp3
        BYTE   W36
        BYTE           N11     Bn3
        BYTE   W01
// 047   ----------------------------------------
        BYTE   W11
        BYTE           N17     Cs4
        BYTE   W36
        BYTE           N23
        BYTE   W24
        BYTE           N17     Bn3
        BYTE   W24
        BYTE                   Cs4
        BYTE   W01
// 048   ----------------------------------------
        BYTE   W23
        BYTE           N19     Fs3
        BYTE   W24
        BYTE           N11
        BYTE   W12
        BYTE           N44     Bn3   v121   gtp3
        BYTE   W36
        BYTE   W01
// 049   ----------------------------------------
        BYTE   W44
        BYTE   W03
        BYTE           N23
        BYTE   W24
        BYTE           N17     En4
        BYTE   W24
        BYTE                   Cs4
        BYTE   W01
// 050   ----------------------------------------
        BYTE   W23
        BYTE           N32     En4
        BYTE   W36
        BYTE           TIE     Fs4
        BYTE   W36
        BYTE   W01
// 051   ----------------------------------------
        BYTE   W96
// 052   ----------------------------------------
        BYTE   W16
        BYTE           EOT
        BYTE   W80
// 053   ----------------------------------------
        BYTE   W88
        BYTE   GoTo
         POIN2  Dance_Brace_lesslessdrum_6_LOOP
        BYTE   W01
        BYTE   FINE

//***************** Track 7 (Midi-Chn.11) ******************//

Dance_Brace_lesslessdrum_7:
        BYTE   KEYSH   Dance_Brace_lesslessdrum_key+0
// 000   ----------------------------------------
        BYTE           VOICE   97
        BYTE           VOL     39
        BYTE   W01
        BYTE           PAN     c_v-16
        BYTE   W92
        BYTE   W03
// 001   ----------------------------------------
        BYTE   W96
// 002   ----------------------------------------
        BYTE   W78
        BYTE           N07     Ds3   v118
        BYTE   W06
        BYTE                   Gs3   v113
        BYTE   W06
        BYTE                   As3
        BYTE   W06
// 003   ----------------------------------------
        BYTE                   Cn4
        BYTE   W06
        BYTE           N12     Cs4   v107
        BYTE   W24
        BYTE           N06     Cs4   v101
        BYTE   W12
        BYTE           N12     Ds4   v107
        BYTE   W24
        BYTE                   Ds4   v101
        BYTE   W21
Dance_Brace_lesslessdrum_7_LOOP:
        BYTE   W03
        BYTE           N18     Fn4   v107
        BYTE   W06
// 004   ----------------------------------------
        BYTE   W96
// 005   ----------------------------------------
        BYTE   W96
// 006   ----------------------------------------
        BYTE   W96
// 007   ----------------------------------------
        BYTE   W96
// 008   ----------------------------------------
        BYTE   W96
// 009   ----------------------------------------
        BYTE   W96
// 010   ----------------------------------------
        BYTE   W96
// 011   ----------------------------------------
        BYTE   W96
// 012   ----------------------------------------
        BYTE   W96
// 013   ----------------------------------------
        BYTE   W96
// 014   ----------------------------------------
        BYTE   W96
// 015   ----------------------------------------
        BYTE   W96
// 016   ----------------------------------------
        BYTE   W66
        BYTE           N07     Cs3   v113
        BYTE   W06
        BYTE                   Fn3
        BYTE   W06
        BYTE                   Gs3
        BYTE   W06
        BYTE                   As3
        BYTE   W06
        BYTE           N17     Cn4
        BYTE   W06
// 017   ----------------------------------------
        BYTE   W18
        BYTE           N05
        BYTE   W12
        BYTE           N11
        BYTE   W66
// 018   ----------------------------------------
        BYTE   W96
// 019   ----------------------------------------
        BYTE   W78
        BYTE           N07     Cs3
        BYTE   W06
        BYTE                   Fn3
        BYTE   W06
        BYTE                   Gs3
        BYTE   W06
// 020   ----------------------------------------
        BYTE                   As3
        BYTE   W06
        BYTE           TIE     Cn4   v101
        BYTE   W90
// 021   ----------------------------------------
        BYTE   W96
// 022   ----------------------------------------
        BYTE   W54
        BYTE                   Fn4
        BYTE   W01
        BYTE           EOT     Cn4
        BYTE   W40
        BYTE   W01
// 023   ----------------------------------------
        BYTE   W54
        BYTE           N48     Gs3   v094   gtp1
        BYTE   W01
        BYTE           EOT     Fn4
        BYTE   W40
        BYTE   W01
// 024   ----------------------------------------
        BYTE   W06
        BYTE           N24     As3   v094   gtp1
        BYTE   W24
        BYTE           N11     Cn4
        BYTE   W12
        BYTE           N60     Cs4   v094   gtp1
        BYTE   W54
// 025   ----------------------------------------
        BYTE   W06
        BYTE           N48     Cn4   v094   gtp1
        BYTE   W48
        BYTE                   En4   v101
        BYTE   W42
// 026   ----------------------------------------
        BYTE   W06
        BYTE           N30     Fn4   v113   gtp1
        BYTE   W36
        BYTE           N42     Ds4   v110   gtp1
        BYTE   W48
        BYTE                   Dn4   v107
        BYTE   W06
// 027   ----------------------------------------
        BYTE   W42
        BYTE           N30     Cn4   v107   gtp1
        BYTE   W54
// 028   ----------------------------------------
        BYTE   W96
// 029   ----------------------------------------
        BYTE   W96
// 030   ----------------------------------------
        BYTE   W96
// 031   ----------------------------------------
        BYTE   W96
// 032   ----------------------------------------
        BYTE   W96
// 033   ----------------------------------------
        BYTE   W78
        BYTE           N07     Cn3   v123
        BYTE   W06
        BYTE                   Dn3   v118
        BYTE   W06
        BYTE                   En3
        BYTE   W06
// 034   ----------------------------------------
        BYTE                   Gn3
        BYTE   W06
        BYTE           N17     An3   v107
        BYTE   W36
        BYTE                   An3
        BYTE   W24
        BYTE           N11     Bn3
        BYTE   W24
        BYTE                   Cs4
        BYTE   W06
// 035   ----------------------------------------
        BYTE   W96
// 036   ----------------------------------------
        BYTE   W96
// 037   ----------------------------------------
        BYTE   W96
// 038   ----------------------------------------
        BYTE   W96
// 039   ----------------------------------------
        BYTE   W96
// 040   ----------------------------------------
        BYTE   W96
// 041   ----------------------------------------
        BYTE   W96
// 042   ----------------------------------------
        BYTE   W06
        BYTE           N44     Gs2   v101   gtp3
        BYTE   W48
        BYTE           N32     Cs3   v101   gtp3
        BYTE   W36
        BYTE           N11     En3
        BYTE   W06
// 043   ----------------------------------------
        BYTE   W18
        BYTE                   En3
        BYTE   W24
        BYTE                   En3
        BYTE   W24
        BYTE                   Bn3
        BYTE   W12
        BYTE           N23
        BYTE   W18
// 044   ----------------------------------------
        BYTE   W06
        BYTE           N68     An3   v101   gtp3
        BYTE   W72
        BYTE           N11     Cs4
        BYTE   W12
        BYTE           N56     Cs4   v101   gtp3
        BYTE   W06
// 045   ----------------------------------------
        BYTE   W54
        BYTE           N44     Gs3   v101   gtp3
        BYTE   W42
// 046   ----------------------------------------
        BYTE   W06
        BYTE                   An3
        BYTE   W48
        BYTE           N92     An4   v107   gtp3
        BYTE   W42
// 047   ----------------------------------------
        BYTE   W54
        BYTE           N68     Bn4   v107   gtp3
        BYTE   W42
// 048   ----------------------------------------
        BYTE   W30
        BYTE           N23     Fs4   v101
        BYTE   W24
        BYTE                   Dn4
        BYTE   W24
        BYTE           N11     Bn3
        BYTE   W12
        BYTE           N17     Cs4   v113
        BYTE   W06
// 049   ----------------------------------------
        BYTE   W18
        BYTE           N05
        BYTE   W12
        BYTE           N11
        BYTE   W66
// 050   ----------------------------------------
        BYTE   W96
// 051   ----------------------------------------
        BYTE   W66
        BYTE           N07     Cs3   v118
        BYTE   W06
        BYTE                   Fs3   v113
        BYTE   W06
        BYTE                   An3
        BYTE   W06
        BYTE                   Cs4
        BYTE   W06
        BYTE           N78     En4   v107
        BYTE   W06
// 052   ----------------------------------------
        BYTE   W78
        BYTE           N07     Cs3   v118
        BYTE   W06
        BYTE                   En3   v113
        BYTE   W06
        BYTE                   Gn3
        BYTE   W06
// 053   ----------------------------------------
        BYTE                   An3
        BYTE   W06
        BYTE           N12     Cs4   v107
        BYTE   W24
        BYTE           N06     Cs4   v101
        BYTE   W12
        BYTE           N12     Ds4   v107
        BYTE   W24
        BYTE                   Ds4   v101
        BYTE   W22
        BYTE   GoTo
         POIN2  Dance_Brace_lesslessdrum_7_LOOP
        BYTE   W01
        BYTE   FINE

//***************** Track 8 (Midi-Chn.12) ******************//

Dance_Brace_lesslessdrum_8:
        BYTE   KEYSH   Dance_Brace_lesslessdrum_key+0
// 000   ----------------------------------------
        BYTE           VOICE   115
        BYTE           VOL     28
        BYTE   W96
// 001   ----------------------------------------
        BYTE   W96
// 002   ----------------------------------------
        BYTE   W96
// 003   ----------------------------------------
        BYTE   W84
        BYTE   W03
Dance_Brace_lesslessdrum_8_LOOP:
        BYTE   W09
// 004   ----------------------------------------
        BYTE   W96
// 005   ----------------------------------------
        BYTE   W96
// 006   ----------------------------------------
        BYTE   W96
// 007   ----------------------------------------
        BYTE   W96
// 008   ----------------------------------------
        BYTE   W96
// 009   ----------------------------------------
        BYTE   W96
// 010   ----------------------------------------
        BYTE   W96
// 011   ----------------------------------------
        BYTE   W96
// 012   ----------------------------------------
        BYTE   W96
// 013   ----------------------------------------
        BYTE   W96
// 014   ----------------------------------------
        BYTE   W96
// 015   ----------------------------------------
        BYTE   W96
// 016   ----------------------------------------
        BYTE   W96
// 017   ----------------------------------------
        BYTE   W96
// 018   ----------------------------------------
        BYTE   W96
// 019   ----------------------------------------
        BYTE   W96
// 020   ----------------------------------------
        BYTE   W96
// 021   ----------------------------------------
        BYTE   W96
// 022   ----------------------------------------
        BYTE   W96
// 023   ----------------------------------------
        BYTE   W96
// 024   ----------------------------------------
        BYTE   W96
// 025   ----------------------------------------
        BYTE   W96
// 026   ----------------------------------------
        BYTE   W96
// 027   ----------------------------------------
        BYTE   W96
// 028   ----------------------------------------
        BYTE   W96
// 029   ----------------------------------------
        BYTE   W96
// 030   ----------------------------------------
        BYTE   W96
// 031   ----------------------------------------
        BYTE   W96
// 032   ----------------------------------------
        BYTE   W96
// 033   ----------------------------------------
        BYTE   W96
// 034   ----------------------------------------
        BYTE   W96
// 035   ----------------------------------------
        BYTE   W96
// 036   ----------------------------------------
        BYTE   W06
        BYTE           N04     Fs4   v118
        BYTE   W02
        BYTE           PAN     c_v-1
        BYTE   W02
        BYTE                   c_v-2
        BYTE   W01
        BYTE                   c_v-3
        BYTE   W01
        BYTE           N06     An4   v110
        BYTE   W01
        BYTE           PAN     c_v-4
        BYTE   W01
        BYTE                   c_v-5
        BYTE   W02
        BYTE                   c_v-6
        BYTE   W01
        BYTE                   c_v-7
        BYTE   W01
        BYTE           N06     Cs5
        BYTE   W01
        BYTE           PAN     c_v-8
        BYTE   W01
        BYTE                   c_v-9
        BYTE   W02
        BYTE                   c_v-10
        BYTE   W01
        BYTE                   c_v-11
        BYTE   W01
        BYTE           N04     An4
        BYTE   W01
        BYTE           PAN     c_v-12
        BYTE   W01
        BYTE                   c_v-13
        BYTE   W02
        BYTE                   c_v-14
        BYTE   W01
        BYTE                   c_v-15
        BYTE   W01
        BYTE           N04     Fs4   v118
        BYTE   W01
        BYTE           PAN     c_v-16
        BYTE   W01
        BYTE                   c_v-17
        BYTE   W02
        BYTE                   c_v-18
        BYTE   W01
        BYTE                   c_v-19
        BYTE   W01
        BYTE           N06     An4   v110
        BYTE           PAN     c_v-20
        BYTE   W02
        BYTE                   c_v-21
        BYTE   W01
        BYTE                   c_v-22
        BYTE   W02
        BYTE                   c_v-23
        BYTE   W01
        BYTE           N06     Cs5
        BYTE           PAN     c_v-24
        BYTE   W02
        BYTE                   c_v-25
        BYTE   W01
        BYTE                   c_v-26
        BYTE   W02
        BYTE                   c_v-27
        BYTE   W01
        BYTE           N04     An4
        BYTE           PAN     c_v-28
        BYTE   W02
        BYTE                   c_v-29
        BYTE   W01
        BYTE                   c_v-30
        BYTE   W02
        BYTE                   c_v-31
        BYTE   W01
        BYTE           N04     Fs4   v118
        BYTE           PAN     c_v-32
        BYTE   W02
        BYTE                   c_v-33
        BYTE   W01
        BYTE                   c_v-34
        BYTE   W02
        BYTE                   c_v-35
        BYTE   W01
        BYTE           N06     An4   v110
        BYTE           PAN     c_v-36
        BYTE   W02
        BYTE                   c_v-37
        BYTE   W01
        BYTE                   c_v-38
        BYTE   W02
        BYTE                   c_v-39
        BYTE   W01
        BYTE           N06     Cs5
        BYTE           PAN     c_v-40
        BYTE   W01
        BYTE                   c_v-41
        BYTE   W02
        BYTE                   c_v-42
        BYTE   W01
        BYTE                   c_v-43
        BYTE   W02
        BYTE           N04     An4
        BYTE           PAN     c_v-44
        BYTE   W01
        BYTE                   c_v-45
        BYTE   W02
        BYTE                   c_v-46
        BYTE   W01
        BYTE                   c_v-47
        BYTE   W02
        BYTE           N04     Fs4   v118
        BYTE           PAN     c_v-48
        BYTE   W01
        BYTE                   c_v-49
        BYTE   W02
        BYTE                   c_v-50
        BYTE   W01
        BYTE                   c_v-51
        BYTE   W02
        BYTE           N06     An4   v110
        BYTE           PAN     c_v-52
        BYTE   W01
        BYTE                   c_v-53
        BYTE   W02
        BYTE                   c_v-54
        BYTE   W01
        BYTE                   c_v-55
        BYTE   W02
        BYTE           N06     Cs5
        BYTE           PAN     c_v-56
        BYTE   W01
        BYTE                   c_v-57
        BYTE   W02
        BYTE                   c_v-58
        BYTE   W01
        BYTE                   c_v-59
        BYTE   W02
// 037   ----------------------------------------
        BYTE           N04     An4
        BYTE   W01
        BYTE           PAN     c_v-60
        BYTE   W01
        BYTE                   c_v-61
        BYTE   W02
        BYTE                   c_v-62
        BYTE   W01
        BYTE                   c_v-63
        BYTE   W01
        BYTE                   c_v-64
        BYTE           N04     Fs4   v118
        BYTE   W03
        BYTE           PAN     c_v-63
        BYTE   W01
        BYTE                   c_v-62
        BYTE   W02
        BYTE                   c_v-61
        BYTE           N06     An4   v110
        BYTE   W01
        BYTE           PAN     c_v-60
        BYTE   W02
        BYTE                   c_v-59
        BYTE   W01
        BYTE                   c_v-58
        BYTE   W02
        BYTE                   c_v-57
        BYTE           N06     Cs5
        BYTE   W01
        BYTE           PAN     c_v-56
        BYTE   W02
        BYTE                   c_v-55
        BYTE   W01
        BYTE                   c_v-54
        BYTE   W02
        BYTE                   c_v-53
        BYTE           N04     An4
        BYTE   W01
        BYTE           PAN     c_v-52
        BYTE   W02
        BYTE                   c_v-51
        BYTE   W01
        BYTE                   c_v-50
        BYTE   W02
        BYTE                   c_v-49
        BYTE           N04     Fs4   v118
        BYTE   W01
        BYTE           PAN     c_v-48
        BYTE   W02
        BYTE                   c_v-47
        BYTE   W01
        BYTE                   c_v-46
        BYTE   W02
        BYTE                   c_v-45
        BYTE           N06     An4   v110
        BYTE   W01
        BYTE           PAN     c_v-44
        BYTE   W02
        BYTE                   c_v-43
        BYTE   W01
        BYTE                   c_v-42
        BYTE   W02
        BYTE                   c_v-41
        BYTE           N06     Cs5
        BYTE   W01
        BYTE           PAN     c_v-40
        BYTE   W02
        BYTE                   c_v-39
        BYTE   W01
        BYTE                   c_v-38
        BYTE   W02
        BYTE                   c_v-37
        BYTE           N04     An4
        BYTE   W01
        BYTE           PAN     c_v-36
        BYTE   W02
        BYTE                   c_v-35
        BYTE   W01
        BYTE                   c_v-34
        BYTE   W02
        BYTE                   c_v-33
        BYTE           N04     Fs4   v118
        BYTE   W01
        BYTE           PAN     c_v-32
        BYTE   W02
        BYTE                   c_v-31
        BYTE   W01
        BYTE                   c_v-30
        BYTE   W02
        BYTE                   c_v-29
        BYTE           N06     An4   v110
        BYTE   W01
        BYTE           PAN     c_v-28
        BYTE   W02
        BYTE                   c_v-27
        BYTE   W01
        BYTE                   c_v-26
        BYTE   W02
        BYTE                   c_v-25
        BYTE           N06     Cs5
        BYTE   W01
        BYTE           PAN     c_v-24
        BYTE   W02
        BYTE                   c_v-23
        BYTE   W01
        BYTE                   c_v-22
        BYTE   W02
        BYTE                   c_v-21
        BYTE           N04     An4
        BYTE   W01
        BYTE           PAN     c_v-20
        BYTE   W02
        BYTE                   c_v-19
        BYTE   W01
        BYTE                   c_v-18
        BYTE   W02
        BYTE                   c_v-17
        BYTE           N04     Fs4   v118
        BYTE   W01
        BYTE           PAN     c_v-16
        BYTE   W02
        BYTE                   c_v-15
        BYTE   W01
        BYTE                   c_v-14
        BYTE   W02
        BYTE                   c_v-13
        BYTE           N06     An4   v110
        BYTE   W01
        BYTE           PAN     c_v-12
        BYTE   W02
        BYTE                   c_v-11
        BYTE   W01
        BYTE                   c_v-10
        BYTE   W02
        BYTE                   c_v-9
        BYTE           N06     Cs5
        BYTE   W01
        BYTE           PAN     c_v-8
        BYTE   W02
        BYTE                   c_v-7
        BYTE   W01
        BYTE                   c_v-6
        BYTE   W02
// 038   ----------------------------------------
        BYTE                   c_v-5
        BYTE           N04     An4
        BYTE   W01
        BYTE           PAN     c_v-4
        BYTE   W02
        BYTE                   c_v-3
        BYTE   W01
        BYTE                   c_v-2
        BYTE   W02
        BYTE                   c_v-1
        BYTE           N04     Fs4   v118
        BYTE   W01
        BYTE           PAN     c_v+0
        BYTE   W02
        BYTE                   c_v+1
        BYTE   W01
        BYTE                   c_v+2
        BYTE   W02
        BYTE                   c_v+3
        BYTE           N06     An4   v110
        BYTE   W01
        BYTE           PAN     c_v+4
        BYTE   W02
        BYTE                   c_v+5
        BYTE   W01
        BYTE                   c_v+6
        BYTE   W02
        BYTE                   c_v+7
        BYTE           N06     Cs5
        BYTE   W01
        BYTE           PAN     c_v+8
        BYTE   W02
        BYTE                   c_v+9
        BYTE   W01
        BYTE                   c_v+10
        BYTE   W02
        BYTE                   c_v+11
        BYTE           N04     An4
        BYTE   W01
        BYTE           PAN     c_v+12
        BYTE   W02
        BYTE                   c_v+13
        BYTE   W01
        BYTE                   c_v+14
        BYTE   W02
        BYTE                   c_v+15
        BYTE           N04     Fs4   v118
        BYTE   W01
        BYTE           PAN     c_v+16
        BYTE   W02
        BYTE                   c_v+17
        BYTE   W01
        BYTE                   c_v+18
        BYTE   W02
        BYTE                   c_v+19
        BYTE           N06     An4   v110
        BYTE   W01
        BYTE           PAN     c_v+20
        BYTE   W02
        BYTE                   c_v+21
        BYTE   W01
        BYTE                   c_v+22
        BYTE   W02
        BYTE                   c_v+23
        BYTE           N06     Cs5
        BYTE   W01
        BYTE           PAN     c_v+24
        BYTE   W02
        BYTE                   c_v+25
        BYTE   W01
        BYTE                   c_v+26
        BYTE   W02
        BYTE                   c_v+27
        BYTE           N04     An4
        BYTE   W01
        BYTE           PAN     c_v+28
        BYTE   W02
        BYTE                   c_v+29
        BYTE   W01
        BYTE                   c_v+30
        BYTE   W02
        BYTE                   c_v+31
        BYTE           N04     Fs4   v118
        BYTE   W01
        BYTE           PAN     c_v+32
        BYTE   W02
        BYTE                   c_v+33
        BYTE   W01
        BYTE                   c_v+34
        BYTE   W02
        BYTE                   c_v+35
        BYTE           N06     An4   v110
        BYTE   W01
        BYTE           PAN     c_v+36
        BYTE   W02
        BYTE                   c_v+37
        BYTE   W01
        BYTE                   c_v+38
        BYTE   W02
        BYTE                   c_v+39
        BYTE           N06     Cs5
        BYTE   W01
        BYTE           PAN     c_v+40
        BYTE   W02
        BYTE                   c_v+41
        BYTE   W01
        BYTE                   c_v+42
        BYTE   W02
        BYTE                   c_v+43
        BYTE           N04     An4
        BYTE   W01
        BYTE           PAN     c_v+44
        BYTE   W02
        BYTE                   c_v+45
        BYTE   W01
        BYTE                   c_v+46
        BYTE   W02
        BYTE                   c_v+47
        BYTE           N04     Fs4   v118
        BYTE   W01
        BYTE           PAN     c_v+48
        BYTE   W02
        BYTE                   c_v+49
        BYTE   W01
        BYTE                   c_v+50
        BYTE   W02
        BYTE                   c_v+51
        BYTE           N06     An4   v110
        BYTE   W01
        BYTE           PAN     c_v+52
        BYTE   W02
        BYTE                   c_v+53
        BYTE   W01
        BYTE                   c_v+54
        BYTE   W02
        BYTE                   c_v+55
        BYTE           N06     Cs5
        BYTE   W01
        BYTE           PAN     c_v+56
        BYTE   W02
        BYTE                   c_v+57
        BYTE   W01
        BYTE                   c_v+58
        BYTE   W02
// 039   ----------------------------------------
        BYTE                   c_v+59
        BYTE           N04     An4
        BYTE   W01
        BYTE           PAN     c_v+60
        BYTE   W02
        BYTE                   c_v+61
        BYTE   W01
        BYTE                   c_v+62
        BYTE   W02
        BYTE                   c_v+63
        BYTE           N04     Fs4   v118
        BYTE   W03
        BYTE           PAN     c_v+62
        BYTE   W01
        BYTE                   c_v+61
        BYTE   W02
        BYTE                   c_v+60
        BYTE           N06     An4   v110
        BYTE   W01
        BYTE           PAN     c_v+59
        BYTE   W02
        BYTE                   c_v+58
        BYTE   W01
        BYTE                   c_v+57
        BYTE   W02
        BYTE                   c_v+56
        BYTE           N06     Cs5
        BYTE   W01
        BYTE           PAN     c_v+55
        BYTE   W02
        BYTE                   c_v+54
        BYTE   W01
        BYTE                   c_v+53
        BYTE   W02
        BYTE                   c_v+52
        BYTE           N04     An4
        BYTE   W01
        BYTE           PAN     c_v+51
        BYTE   W02
        BYTE                   c_v+50
        BYTE   W01
        BYTE                   c_v+49
        BYTE   W02
        BYTE                   c_v+48
        BYTE           N04     Fs4   v118
        BYTE   W01
        BYTE           PAN     c_v+47
        BYTE   W02
        BYTE                   c_v+46
        BYTE   W01
        BYTE                   c_v+45
        BYTE   W02
        BYTE                   c_v+44
        BYTE           N06     An4   v110
        BYTE   W01
        BYTE           PAN     c_v+43
        BYTE   W02
        BYTE                   c_v+42
        BYTE   W01
        BYTE                   c_v+41
        BYTE   W02
        BYTE                   c_v+40
        BYTE           N06     Cs5
        BYTE   W01
        BYTE           PAN     c_v+39
        BYTE   W02
        BYTE                   c_v+38
        BYTE   W01
        BYTE                   c_v+37
        BYTE   W02
        BYTE                   c_v+36
        BYTE           N04     An4
        BYTE   W01
        BYTE           PAN     c_v+35
        BYTE   W02
        BYTE                   c_v+34
        BYTE   W01
        BYTE                   c_v+33
        BYTE   W02
        BYTE                   c_v+32
        BYTE           N04     Fs4   v118
        BYTE   W01
        BYTE           PAN     c_v+31
        BYTE   W02
        BYTE                   c_v+30
        BYTE   W01
        BYTE                   c_v+29
        BYTE   W02
        BYTE                   c_v+28
        BYTE           N06     An4   v110
        BYTE   W01
        BYTE           PAN     c_v+27
        BYTE   W02
        BYTE                   c_v+26
        BYTE   W01
        BYTE                   c_v+25
        BYTE   W02
        BYTE                   c_v+24
        BYTE           N06     Cs5
        BYTE   W01
        BYTE           PAN     c_v+23
        BYTE   W02
        BYTE                   c_v+22
        BYTE   W01
        BYTE                   c_v+21
        BYTE   W02
        BYTE                   c_v+20
        BYTE           N04     An4
        BYTE   W01
        BYTE           PAN     c_v+19
        BYTE   W02
        BYTE                   c_v+18
        BYTE   W01
        BYTE                   c_v+17
        BYTE   W02
        BYTE                   c_v+16
        BYTE           N04     Fs4   v118
        BYTE   W01
        BYTE           PAN     c_v+15
        BYTE   W02
        BYTE                   c_v+14
        BYTE   W01
        BYTE                   c_v+13
        BYTE   W02
        BYTE                   c_v+12
        BYTE           N06     An4   v110
        BYTE   W01
        BYTE           PAN     c_v+11
        BYTE   W02
        BYTE                   c_v+10
        BYTE   W01
        BYTE                   c_v+9
        BYTE   W02
        BYTE                   c_v+8
        BYTE           N06     Cs5
        BYTE   W01
        BYTE           PAN     c_v+7
        BYTE   W02
        BYTE                   c_v+6
        BYTE   W01
        BYTE                   c_v+5
        BYTE   W02
// 040   ----------------------------------------
        BYTE                   c_v+4
        BYTE           N04     An4
        BYTE   W01
        BYTE           PAN     c_v+3
        BYTE   W02
        BYTE                   c_v+2
        BYTE   W01
        BYTE                   c_v+1
        BYTE   W02
        BYTE                   c_v+0
        BYTE           N04     Fs4   v118
        BYTE   W01
        BYTE           PAN     c_v-1
        BYTE   W02
        BYTE                   c_v-2
        BYTE   W01
        BYTE                   c_v-3
        BYTE   W02
        BYTE                   c_v-4
        BYTE           N06     An4   v110
        BYTE   W01
        BYTE           PAN     c_v-5
        BYTE   W02
        BYTE                   c_v-6
        BYTE   W01
        BYTE                   c_v-7
        BYTE   W02
        BYTE                   c_v-8
        BYTE           N06     Cs5
        BYTE   W01
        BYTE           PAN     c_v-9
        BYTE   W02
        BYTE                   c_v-10
        BYTE   W01
        BYTE                   c_v-11
        BYTE   W02
        BYTE                   c_v-12
        BYTE           N04     An4
        BYTE   W01
        BYTE           PAN     c_v-13
        BYTE   W02
        BYTE                   c_v-14
        BYTE   W01
        BYTE                   c_v-15
        BYTE   W02
        BYTE                   c_v-16
        BYTE           N04     Fs4   v118
        BYTE   W01
        BYTE           PAN     c_v-17
        BYTE   W02
        BYTE                   c_v-18
        BYTE   W01
        BYTE                   c_v-19
        BYTE   W02
        BYTE                   c_v-20
        BYTE           N06     An4   v110
        BYTE   W01
        BYTE           PAN     c_v-21
        BYTE   W02
        BYTE                   c_v-22
        BYTE   W01
        BYTE                   c_v-23
        BYTE   W02
        BYTE                   c_v-24
        BYTE           N06     Cs5
        BYTE   W01
        BYTE           PAN     c_v-25
        BYTE   W02
        BYTE                   c_v-26
        BYTE   W01
        BYTE                   c_v-27
        BYTE   W02
        BYTE                   c_v-28
        BYTE           N04     An4
        BYTE   W01
        BYTE           PAN     c_v-29
        BYTE   W02
        BYTE                   c_v-30
        BYTE   W01
        BYTE                   c_v-31
        BYTE   W02
        BYTE                   c_v-32
        BYTE           N04     Fs4   v118
        BYTE   W01
        BYTE           PAN     c_v-33
        BYTE   W02
        BYTE                   c_v-34
        BYTE   W01
        BYTE                   c_v-35
        BYTE   W02
        BYTE                   c_v-36
        BYTE           N06     An4   v110
        BYTE   W01
        BYTE           PAN     c_v-37
        BYTE   W02
        BYTE                   c_v-38
        BYTE   W01
        BYTE                   c_v-39
        BYTE   W02
        BYTE                   c_v-40
        BYTE           N06     Cs5
        BYTE   W01
        BYTE           PAN     c_v-41
        BYTE   W02
        BYTE                   c_v-42
        BYTE   W01
        BYTE                   c_v-43
        BYTE   W02
        BYTE                   c_v-44
        BYTE           N04     An4
        BYTE   W01
        BYTE           PAN     c_v-45
        BYTE   W02
        BYTE                   c_v-46
        BYTE   W01
        BYTE                   c_v-47
        BYTE   W02
        BYTE                   c_v-48
        BYTE           N04     Fs4   v118
        BYTE   W01
        BYTE           PAN     c_v-49
        BYTE   W02
        BYTE                   c_v-50
        BYTE   W01
        BYTE                   c_v-51
        BYTE   W02
        BYTE                   c_v-52
        BYTE           N06     An4   v110
        BYTE   W01
        BYTE           PAN     c_v-53
        BYTE   W02
        BYTE                   c_v-54
        BYTE   W01
        BYTE                   c_v-55
        BYTE   W02
        BYTE                   c_v-56
        BYTE           N06     Cs5
        BYTE   W01
        BYTE           PAN     c_v-57
        BYTE   W02
        BYTE                   c_v-58
        BYTE   W01
        BYTE                   c_v-59
        BYTE   W02
// 041   ----------------------------------------
        BYTE                   c_v-60
        BYTE           N04     An4
        BYTE   W01
        BYTE           PAN     c_v-61
        BYTE   W02
        BYTE                   c_v-62
        BYTE   W01
        BYTE                   c_v-63
        BYTE   W02
        BYTE                   c_v-64
        BYTE           N04     Fs4   v118
        BYTE   W03
        BYTE           PAN     c_v-63
        BYTE   W01
        BYTE                   c_v-62
        BYTE   W02
        BYTE                   c_v-61
        BYTE           N06     An4   v110
        BYTE   W01
        BYTE           PAN     c_v-60
        BYTE   W02
        BYTE                   c_v-59
        BYTE   W01
        BYTE                   c_v-58
        BYTE   W02
        BYTE                   c_v-57
        BYTE           N06     Cs5
        BYTE   W01
        BYTE           PAN     c_v-56
        BYTE   W02
        BYTE                   c_v-55
        BYTE   W01
        BYTE                   c_v-54
        BYTE   W02
        BYTE                   c_v-53
        BYTE           N04     An4
        BYTE   W01
        BYTE           PAN     c_v-52
        BYTE   W02
        BYTE                   c_v-51
        BYTE   W01
        BYTE                   c_v-50
        BYTE   W02
        BYTE                   c_v-49
        BYTE           N04     Fs4   v118
        BYTE   W01
        BYTE           PAN     c_v-48
        BYTE   W02
        BYTE                   c_v-47
        BYTE   W01
        BYTE                   c_v-46
        BYTE   W02
        BYTE                   c_v-45
        BYTE           N06     An4   v110
        BYTE   W01
        BYTE           PAN     c_v-44
        BYTE   W02
        BYTE                   c_v-43
        BYTE   W01
        BYTE                   c_v-42
        BYTE   W02
        BYTE                   c_v-41
        BYTE           N06     Cs5
        BYTE   W01
        BYTE           PAN     c_v-40
        BYTE   W02
        BYTE                   c_v-39
        BYTE   W01
        BYTE                   c_v-38
        BYTE   W02
        BYTE                   c_v-37
        BYTE           N04     An4
        BYTE   W01
        BYTE           PAN     c_v-36
        BYTE   W02
        BYTE                   c_v-35
        BYTE   W01
        BYTE                   c_v-34
        BYTE   W02
        BYTE                   c_v-33
        BYTE           N04     Fs4   v118
        BYTE   W01
        BYTE           PAN     c_v-32
        BYTE   W02
        BYTE                   c_v-31
        BYTE   W01
        BYTE                   c_v-30
        BYTE   W02
        BYTE                   c_v-29
        BYTE           N06     An4   v110
        BYTE   W01
        BYTE           PAN     c_v-28
        BYTE   W02
        BYTE                   c_v-27
        BYTE   W01
        BYTE                   c_v-26
        BYTE   W02
        BYTE                   c_v-25
        BYTE           N06     Cs5
        BYTE   W01
        BYTE           PAN     c_v-24
        BYTE   W02
        BYTE                   c_v-23
        BYTE   W01
        BYTE                   c_v-22
        BYTE   W02
        BYTE                   c_v-21
        BYTE           N04     An4
        BYTE   W01
        BYTE           PAN     c_v-20
        BYTE   W02
        BYTE                   c_v-19
        BYTE   W01
        BYTE                   c_v-18
        BYTE   W02
        BYTE                   c_v-17
        BYTE           N04     Fs4   v118
        BYTE   W01
        BYTE           PAN     c_v-16
        BYTE   W02
        BYTE                   c_v-15
        BYTE   W01
        BYTE                   c_v-14
        BYTE   W02
        BYTE                   c_v-13
        BYTE           N06     An4   v110
        BYTE   W01
        BYTE           PAN     c_v-12
        BYTE   W02
        BYTE                   c_v-11
        BYTE   W01
        BYTE                   c_v-10
        BYTE   W02
        BYTE                   c_v-9
        BYTE           N06     Cs5
        BYTE   W01
        BYTE           PAN     c_v-8
        BYTE   W02
        BYTE                   c_v-7
        BYTE   W01
        BYTE                   c_v-6
        BYTE   W02
// 042   ----------------------------------------
        BYTE                   c_v-5
        BYTE           N04     An4
        BYTE   W01
        BYTE           PAN     c_v-4
        BYTE   W02
        BYTE                   c_v-3
        BYTE   W01
        BYTE                   c_v-2
        BYTE   W02
        BYTE                   c_v-1
        BYTE           N04     En4   v118
        BYTE   W01
        BYTE           PAN     c_v+0
        BYTE   W02
        BYTE                   c_v+1
        BYTE   W01
        BYTE                   c_v+2
        BYTE   W02
        BYTE                   c_v+3
        BYTE           N06     Gs4   v110
        BYTE   W01
        BYTE           PAN     c_v+4
        BYTE   W02
        BYTE                   c_v+5
        BYTE   W01
        BYTE                   c_v+6
        BYTE   W02
        BYTE                   c_v+7
        BYTE           N06     Cs5
        BYTE   W01
        BYTE           PAN     c_v+8
        BYTE   W02
        BYTE                   c_v+9
        BYTE   W01
        BYTE                   c_v+10
        BYTE   W02
        BYTE                   c_v+11
        BYTE           N04     Gs4
        BYTE   W01
        BYTE           PAN     c_v+12
        BYTE   W02
        BYTE                   c_v+13
        BYTE   W01
        BYTE                   c_v+14
        BYTE   W02
        BYTE                   c_v+15
        BYTE           N04     En4   v118
        BYTE   W01
        BYTE           PAN     c_v+16
        BYTE   W02
        BYTE                   c_v+17
        BYTE   W01
        BYTE                   c_v+18
        BYTE   W02
        BYTE                   c_v+19
        BYTE           N06     Gs4   v110
        BYTE   W01
        BYTE           PAN     c_v+20
        BYTE   W02
        BYTE                   c_v+21
        BYTE   W01
        BYTE                   c_v+22
        BYTE   W02
        BYTE                   c_v+23
        BYTE           N06     Cs5
        BYTE   W01
        BYTE           PAN     c_v+24
        BYTE   W02
        BYTE                   c_v+25
        BYTE   W01
        BYTE                   c_v+26
        BYTE   W02
        BYTE                   c_v+27
        BYTE           N04     Gs4
        BYTE   W01
        BYTE           PAN     c_v+28
        BYTE   W02
        BYTE                   c_v+29
        BYTE   W01
        BYTE                   c_v+30
        BYTE   W02
        BYTE                   c_v+31
        BYTE           N04     En4   v118
        BYTE   W01
        BYTE           PAN     c_v+32
        BYTE   W02
        BYTE                   c_v+33
        BYTE   W01
        BYTE                   c_v+34
        BYTE   W02
        BYTE                   c_v+35
        BYTE           N06     Gs4   v110
        BYTE   W01
        BYTE           PAN     c_v+36
        BYTE   W02
        BYTE                   c_v+37
        BYTE   W01
        BYTE                   c_v+38
        BYTE   W02
        BYTE                   c_v+39
        BYTE           N06     Cs5
        BYTE   W01
        BYTE           PAN     c_v+40
        BYTE   W02
        BYTE                   c_v+41
        BYTE   W01
        BYTE                   c_v+42
        BYTE   W02
        BYTE                   c_v+43
        BYTE           N04     An4
        BYTE   W01
        BYTE           PAN     c_v+44
        BYTE   W02
        BYTE                   c_v+45
        BYTE   W01
        BYTE                   c_v+46
        BYTE   W02
        BYTE                   c_v+47
        BYTE           N04     En4   v118
        BYTE   W01
        BYTE           PAN     c_v+48
        BYTE   W02
        BYTE                   c_v+49
        BYTE   W01
        BYTE                   c_v+50
        BYTE   W02
        BYTE                   c_v+51
        BYTE   W01
        BYTE                   c_v+52
        BYTE   W02
        BYTE                   c_v+53
        BYTE   W01
        BYTE                   c_v+54
        BYTE   W02
        BYTE                   c_v+55
        BYTE   W01
        BYTE                   c_v+56
        BYTE   W02
        BYTE                   c_v+57
        BYTE   W01
        BYTE                   c_v+58
        BYTE   W02
// 043   ----------------------------------------
        BYTE                   c_v+59
        BYTE   W01
        BYTE                   c_v+60
        BYTE   W02
        BYTE                   c_v+61
        BYTE   W01
        BYTE                   c_v+62
        BYTE   W02
        BYTE                   c_v+63
        BYTE   W03
        BYTE                   c_v+62
        BYTE   W01
        BYTE                   c_v+61
        BYTE   W02
        BYTE                   c_v+60
        BYTE   W01
        BYTE                   c_v+59
        BYTE   W02
        BYTE                   c_v+58
        BYTE   W01
        BYTE                   c_v+57
        BYTE   W02
        BYTE                   c_v+56
        BYTE   W01
        BYTE                   c_v+55
        BYTE   W02
        BYTE                   c_v+54
        BYTE   W01
        BYTE                   c_v+53
        BYTE   W02
        BYTE                   c_v+52
        BYTE   W01
        BYTE                   c_v+51
        BYTE   W02
        BYTE                   c_v+50
        BYTE   W01
        BYTE                   c_v+49
        BYTE   W02
        BYTE                   c_v+48
        BYTE   W01
        BYTE                   c_v+47
        BYTE   W02
        BYTE                   c_v+46
        BYTE   W01
        BYTE                   c_v+45
        BYTE   W02
        BYTE                   c_v+44
        BYTE   W01
        BYTE                   c_v+43
        BYTE   W02
        BYTE                   c_v+42
        BYTE   W01
        BYTE                   c_v+41
        BYTE   W02
        BYTE                   c_v+40
        BYTE   W01
        BYTE                   c_v+39
        BYTE   W02
        BYTE                   c_v+38
        BYTE   W01
        BYTE                   c_v+37
        BYTE   W02
        BYTE                   c_v+36
        BYTE   W01
        BYTE                   c_v+35
        BYTE   W02
        BYTE                   c_v+34
        BYTE   W01
        BYTE                   c_v+33
        BYTE   W02
        BYTE                   c_v+32
        BYTE   W01
        BYTE                   c_v+31
        BYTE   W02
        BYTE                   c_v+30
        BYTE   W01
        BYTE                   c_v+29
        BYTE   W02
        BYTE                   c_v+28
        BYTE   W01
        BYTE                   c_v+27
        BYTE   W02
        BYTE                   c_v+26
        BYTE   W01
        BYTE                   c_v+25
        BYTE   W02
        BYTE                   c_v+24
        BYTE   W01
        BYTE                   c_v+23
        BYTE   W02
        BYTE                   c_v+22
        BYTE   W01
        BYTE                   c_v+21
        BYTE   W02
        BYTE                   c_v+20
        BYTE   W01
        BYTE                   c_v+19
        BYTE   W02
        BYTE                   c_v+18
        BYTE   W01
        BYTE                   c_v+17
        BYTE   W02
        BYTE                   c_v+16
        BYTE   W01
        BYTE                   c_v+15
        BYTE   W02
        BYTE                   c_v+14
        BYTE   W01
        BYTE                   c_v+13
        BYTE   W02
        BYTE                   c_v+12
        BYTE   W01
        BYTE                   c_v+11
        BYTE   W02
        BYTE                   c_v+10
        BYTE   W01
        BYTE                   c_v+9
        BYTE   W02
        BYTE                   c_v+8
        BYTE   W01
        BYTE                   c_v+7
        BYTE   W02
        BYTE                   c_v+6
        BYTE   W01
        BYTE                   c_v+5
        BYTE   W02
// 044   ----------------------------------------
        BYTE                   c_v+4
        BYTE   W01
        BYTE                   c_v+3
        BYTE   W02
        BYTE                   c_v+2
        BYTE   W01
        BYTE                   c_v+1
        BYTE   W02
        BYTE                   c_v+0
        BYTE           N04     Fs4
        BYTE   W01
        BYTE           PAN     c_v-1
        BYTE   W02
        BYTE                   c_v-2
        BYTE   W01
        BYTE                   c_v-3
        BYTE   W02
        BYTE                   c_v-4
        BYTE           N06     An4   v110
        BYTE   W01
        BYTE           PAN     c_v-5
        BYTE   W02
        BYTE                   c_v-6
        BYTE   W01
        BYTE                   c_v-7
        BYTE   W02
        BYTE                   c_v-8
        BYTE           N06     Cs5
        BYTE   W01
        BYTE           PAN     c_v-9
        BYTE   W02
        BYTE                   c_v-10
        BYTE   W01
        BYTE                   c_v-11
        BYTE   W02
        BYTE                   c_v-12
        BYTE           N04     An4
        BYTE   W01
        BYTE           PAN     c_v-13
        BYTE   W02
        BYTE                   c_v-14
        BYTE   W01
        BYTE                   c_v-15
        BYTE   W02
        BYTE                   c_v-16
        BYTE           N04     Fs4   v118
        BYTE   W01
        BYTE           PAN     c_v-17
        BYTE   W02
        BYTE                   c_v-18
        BYTE   W01
        BYTE                   c_v-19
        BYTE   W02
        BYTE                   c_v-20
        BYTE           N06     An4   v110
        BYTE   W01
        BYTE           PAN     c_v-21
        BYTE   W02
        BYTE                   c_v-22
        BYTE   W01
        BYTE                   c_v-23
        BYTE   W02
        BYTE                   c_v-24
        BYTE           N06     Cs5
        BYTE   W01
        BYTE           PAN     c_v-25
        BYTE   W02
        BYTE                   c_v-26
        BYTE   W01
        BYTE                   c_v-27
        BYTE   W02
        BYTE                   c_v-28
        BYTE           N04     An4
        BYTE   W01
        BYTE           PAN     c_v-29
        BYTE   W02
        BYTE                   c_v-30
        BYTE   W01
        BYTE                   c_v-31
        BYTE   W02
        BYTE                   c_v-32
        BYTE           N04     Fs4   v118
        BYTE   W01
        BYTE           PAN     c_v-33
        BYTE   W02
        BYTE                   c_v-34
        BYTE   W01
        BYTE                   c_v-35
        BYTE   W02
        BYTE                   c_v-36
        BYTE           N06     An4   v110
        BYTE   W01
        BYTE           PAN     c_v-37
        BYTE   W02
        BYTE                   c_v-38
        BYTE   W01
        BYTE                   c_v-39
        BYTE   W02
        BYTE                   c_v-40
        BYTE           N06     Cs5
        BYTE   W01
        BYTE           PAN     c_v-41
        BYTE   W02
        BYTE                   c_v-42
        BYTE   W01
        BYTE                   c_v-43
        BYTE   W02
        BYTE                   c_v-44
        BYTE           N04     An4
        BYTE   W01
        BYTE           PAN     c_v-45
        BYTE   W02
        BYTE                   c_v-46
        BYTE   W01
        BYTE                   c_v-47
        BYTE   W02
        BYTE                   c_v-48
        BYTE           N04     Fs4   v118
        BYTE   W01
        BYTE           PAN     c_v-49
        BYTE   W02
        BYTE                   c_v-50
        BYTE   W01
        BYTE                   c_v-51
        BYTE   W02
        BYTE                   c_v-52
        BYTE           N06     An4   v110
        BYTE   W01
        BYTE           PAN     c_v-53
        BYTE   W02
        BYTE                   c_v-54
        BYTE   W01
        BYTE                   c_v-55
        BYTE   W02
        BYTE                   c_v-56
        BYTE           N06     Cs5
        BYTE   W01
        BYTE           PAN     c_v-57
        BYTE   W02
        BYTE                   c_v-58
        BYTE   W01
        BYTE                   c_v-59
        BYTE   W02
// 045   ----------------------------------------
        BYTE                   c_v-60
        BYTE           N04     An4
        BYTE   W01
        BYTE           PAN     c_v-61
        BYTE   W02
        BYTE                   c_v-62
        BYTE   W01
        BYTE                   c_v-63
        BYTE   W02
        BYTE                   c_v-64
        BYTE           N04     En4   v118
        BYTE   W03
        BYTE           PAN     c_v-63
        BYTE   W01
        BYTE                   c_v-62
        BYTE   W02
        BYTE                   c_v-61
        BYTE           N06     Gs4   v110
        BYTE   W01
        BYTE           PAN     c_v-60
        BYTE   W02
        BYTE                   c_v-59
        BYTE   W01
        BYTE                   c_v-58
        BYTE   W02
        BYTE                   c_v-57
        BYTE           N06     Cs5
        BYTE   W01
        BYTE           PAN     c_v-56
        BYTE   W02
        BYTE                   c_v-55
        BYTE   W01
        BYTE                   c_v-54
        BYTE   W02
        BYTE                   c_v-53
        BYTE           N04     Gs4
        BYTE   W01
        BYTE           PAN     c_v-52
        BYTE   W02
        BYTE                   c_v-51
        BYTE   W01
        BYTE                   c_v-50
        BYTE   W02
        BYTE                   c_v-49
        BYTE           N04     En4   v118
        BYTE   W01
        BYTE           PAN     c_v-48
        BYTE   W02
        BYTE                   c_v-47
        BYTE   W01
        BYTE                   c_v-46
        BYTE   W02
        BYTE                   c_v-45
        BYTE           N06     Gs4   v110
        BYTE   W01
        BYTE           PAN     c_v-44
        BYTE   W02
        BYTE                   c_v-43
        BYTE   W01
        BYTE                   c_v-42
        BYTE   W02
        BYTE                   c_v-41
        BYTE           N06     Cs5
        BYTE   W01
        BYTE           PAN     c_v-40
        BYTE   W02
        BYTE                   c_v-39
        BYTE   W01
        BYTE                   c_v-38
        BYTE   W02
        BYTE                   c_v-37
        BYTE           N04     Gs4
        BYTE   W01
        BYTE           PAN     c_v-36
        BYTE   W02
        BYTE                   c_v-35
        BYTE   W01
        BYTE                   c_v-34
        BYTE   W02
        BYTE                   c_v-33
        BYTE           N04     En4   v118
        BYTE   W01
        BYTE           PAN     c_v-32
        BYTE   W02
        BYTE                   c_v-31
        BYTE   W01
        BYTE                   c_v-30
        BYTE   W02
        BYTE                   c_v-29
        BYTE           N06     An4   v110
        BYTE   W01
        BYTE           PAN     c_v-28
        BYTE   W02
        BYTE                   c_v-27
        BYTE   W01
        BYTE                   c_v-26
        BYTE   W02
        BYTE                   c_v-25
        BYTE           N06     Cs5
        BYTE   W01
        BYTE           PAN     c_v-24
        BYTE   W02
        BYTE                   c_v-23
        BYTE   W01
        BYTE                   c_v-22
        BYTE   W02
        BYTE                   c_v-21
        BYTE           N04     An4
        BYTE   W01
        BYTE           PAN     c_v-20
        BYTE   W02
        BYTE                   c_v-19
        BYTE   W01
        BYTE                   c_v-18
        BYTE   W02
        BYTE                   c_v-17
        BYTE           N04     En4   v118
        BYTE   W01
        BYTE           PAN     c_v-16
        BYTE   W02
        BYTE                   c_v-15
        BYTE   W01
        BYTE                   c_v-14
        BYTE   W02
        BYTE                   c_v-13
        BYTE           N06     Gs4   v110
        BYTE   W01
        BYTE           PAN     c_v-12
        BYTE   W02
        BYTE                   c_v-11
        BYTE   W01
        BYTE                   c_v-10
        BYTE   W02
        BYTE                   c_v-9
        BYTE           N06     Cs5
        BYTE   W01
        BYTE           PAN     c_v-8
        BYTE   W02
        BYTE                   c_v-7
        BYTE   W01
        BYTE                   c_v-6
        BYTE   W02
// 046   ----------------------------------------
        BYTE                   c_v-5
        BYTE           N04     Gs4
        BYTE   W01
        BYTE           PAN     c_v-4
        BYTE   W02
        BYTE                   c_v-3
        BYTE   W01
        BYTE                   c_v-2
        BYTE   W02
        BYTE                   c_v-1
        BYTE           N04     Fs4   v118
        BYTE   W01
        BYTE           PAN     c_v+0
        BYTE   W02
        BYTE                   c_v+1
        BYTE   W01
        BYTE                   c_v+2
        BYTE   W02
        BYTE                   c_v+3
        BYTE           N06     An4   v110
        BYTE   W01
        BYTE           PAN     c_v+4
        BYTE   W02
        BYTE                   c_v+5
        BYTE   W01
        BYTE                   c_v+6
        BYTE   W02
        BYTE                   c_v+7
        BYTE           N06     Cs5
        BYTE   W01
        BYTE           PAN     c_v+8
        BYTE   W02
        BYTE                   c_v+9
        BYTE   W01
        BYTE                   c_v+10
        BYTE   W02
        BYTE                   c_v+11
        BYTE           N04     An4
        BYTE   W01
        BYTE           PAN     c_v+12
        BYTE   W02
        BYTE                   c_v+13
        BYTE   W01
        BYTE                   c_v+14
        BYTE   W02
        BYTE                   c_v+15
        BYTE           N04     Fs4   v118
        BYTE   W01
        BYTE           PAN     c_v+16
        BYTE   W02
        BYTE                   c_v+17
        BYTE   W01
        BYTE                   c_v+18
        BYTE   W02
        BYTE                   c_v+19
        BYTE           N06     An4   v110
        BYTE   W01
        BYTE           PAN     c_v+20
        BYTE   W02
        BYTE                   c_v+21
        BYTE   W01
        BYTE                   c_v+22
        BYTE   W02
        BYTE                   c_v+23
        BYTE           N06     Cs5
        BYTE   W01
        BYTE           PAN     c_v+24
        BYTE   W02
        BYTE                   c_v+25
        BYTE   W01
        BYTE                   c_v+26
        BYTE   W02
        BYTE                   c_v+27
        BYTE           N04     An4
        BYTE   W01
        BYTE           PAN     c_v+28
        BYTE   W02
        BYTE                   c_v+29
        BYTE   W01
        BYTE                   c_v+30
        BYTE   W02
        BYTE                   c_v+31
        BYTE           N04     Fs4   v118
        BYTE   W01
        BYTE           PAN     c_v+32
        BYTE   W02
        BYTE                   c_v+33
        BYTE   W01
        BYTE                   c_v+34
        BYTE   W02
        BYTE                   c_v+35
        BYTE           N06     An4   v110
        BYTE   W01
        BYTE           PAN     c_v+36
        BYTE   W02
        BYTE                   c_v+37
        BYTE   W01
        BYTE                   c_v+38
        BYTE   W02
        BYTE                   c_v+39
        BYTE           N06     Cs5
        BYTE   W01
        BYTE           PAN     c_v+40
        BYTE   W02
        BYTE                   c_v+41
        BYTE   W01
        BYTE                   c_v+42
        BYTE   W02
        BYTE                   c_v+43
        BYTE           N04     An4
        BYTE   W01
        BYTE           PAN     c_v+44
        BYTE   W02
        BYTE                   c_v+45
        BYTE   W01
        BYTE                   c_v+46
        BYTE   W02
        BYTE                   c_v+47
        BYTE           N04     Fs4   v118
        BYTE   W01
        BYTE           PAN     c_v+48
        BYTE   W02
        BYTE                   c_v+49
        BYTE   W01
        BYTE                   c_v+50
        BYTE   W02
        BYTE                   c_v+51
        BYTE           N06     An4   v110
        BYTE   W01
        BYTE           PAN     c_v+52
        BYTE   W02
        BYTE                   c_v+53
        BYTE   W01
        BYTE                   c_v+54
        BYTE   W02
        BYTE                   c_v+55
        BYTE           N06     Cs5
        BYTE   W01
        BYTE           PAN     c_v+56
        BYTE   W02
        BYTE                   c_v+57
        BYTE   W01
        BYTE                   c_v+58
        BYTE   W02
// 047   ----------------------------------------
        BYTE                   c_v+59
        BYTE           N04     An4
        BYTE   W01
        BYTE           PAN     c_v+60
        BYTE   W02
        BYTE                   c_v+61
        BYTE   W01
        BYTE                   c_v+62
        BYTE   W02
        BYTE                   c_v+63
        BYTE           N04     En4   v118
        BYTE   W03
        BYTE           PAN     c_v+62
        BYTE   W01
        BYTE                   c_v+61
        BYTE   W02
        BYTE                   c_v+60
        BYTE           N06     An4   v110
        BYTE   W01
        BYTE           PAN     c_v+59
        BYTE   W02
        BYTE                   c_v+58
        BYTE   W01
        BYTE                   c_v+57
        BYTE   W02
        BYTE                   c_v+56
        BYTE           N06     Cs5
        BYTE   W01
        BYTE           PAN     c_v+55
        BYTE   W02
        BYTE                   c_v+54
        BYTE   W01
        BYTE                   c_v+53
        BYTE   W02
        BYTE                   c_v+52
        BYTE           N04     An4
        BYTE   W01
        BYTE           PAN     c_v+51
        BYTE   W02
        BYTE                   c_v+50
        BYTE   W01
        BYTE                   c_v+49
        BYTE   W02
        BYTE                   c_v+48
        BYTE           N04     En4   v118
        BYTE   W01
        BYTE           PAN     c_v+47
        BYTE   W02
        BYTE                   c_v+46
        BYTE   W01
        BYTE                   c_v+45
        BYTE   W02
        BYTE                   c_v+44
        BYTE           N06     An4   v110
        BYTE   W01
        BYTE           PAN     c_v+43
        BYTE   W02
        BYTE                   c_v+42
        BYTE   W01
        BYTE                   c_v+41
        BYTE   W02
        BYTE                   c_v+40
        BYTE           N06     Cs5
        BYTE   W01
        BYTE           PAN     c_v+39
        BYTE   W02
        BYTE                   c_v+38
        BYTE   W01
        BYTE                   c_v+37
        BYTE   W02
        BYTE                   c_v+36
        BYTE           N04     An4
        BYTE   W01
        BYTE           PAN     c_v+35
        BYTE   W02
        BYTE                   c_v+34
        BYTE   W01
        BYTE                   c_v+33
        BYTE   W02
        BYTE                   c_v+32
        BYTE           N04     En4   v118
        BYTE   W01
        BYTE           PAN     c_v+31
        BYTE   W02
        BYTE                   c_v+30
        BYTE   W01
        BYTE                   c_v+29
        BYTE   W02
        BYTE                   c_v+28
        BYTE           N06     Gs4   v110
        BYTE   W01
        BYTE           PAN     c_v+27
        BYTE   W02
        BYTE                   c_v+26
        BYTE   W01
        BYTE                   c_v+25
        BYTE   W02
        BYTE                   c_v+24
        BYTE           N06     Cs5
        BYTE   W01
        BYTE           PAN     c_v+23
        BYTE   W02
        BYTE                   c_v+22
        BYTE   W01
        BYTE                   c_v+21
        BYTE   W02
        BYTE                   c_v+20
        BYTE           N04     Gs4
        BYTE   W01
        BYTE           PAN     c_v+19
        BYTE   W02
        BYTE                   c_v+18
        BYTE   W01
        BYTE                   c_v+17
        BYTE   W02
        BYTE                   c_v+16
        BYTE           N04     En4   v118
        BYTE   W01
        BYTE           PAN     c_v+15
        BYTE   W02
        BYTE                   c_v+14
        BYTE   W01
        BYTE                   c_v+13
        BYTE   W02
        BYTE                   c_v+12
        BYTE           N06     Gs4   v110
        BYTE   W01
        BYTE           PAN     c_v+11
        BYTE   W02
        BYTE                   c_v+10
        BYTE   W01
        BYTE                   c_v+9
        BYTE   W02
        BYTE                   c_v+8
        BYTE           N06     Cs5
        BYTE   W01
        BYTE           PAN     c_v+7
        BYTE   W02
        BYTE                   c_v+6
        BYTE   W01
        BYTE                   c_v+5
        BYTE   W02
// 048   ----------------------------------------
        BYTE                   c_v+4
        BYTE           N04     Gs4
        BYTE   W01
        BYTE           PAN     c_v+3
        BYTE   W02
        BYTE                   c_v+2
        BYTE   W01
        BYTE                   c_v+1
        BYTE   W02
        BYTE                   c_v+0
        BYTE           N04     Fs4   v118
        BYTE   W01
        BYTE           PAN     c_v-1
        BYTE   W02
        BYTE                   c_v-2
        BYTE   W01
        BYTE                   c_v-3
        BYTE   W02
        BYTE                   c_v-4
        BYTE           N06     An4   v110
        BYTE   W01
        BYTE           PAN     c_v-5
        BYTE   W02
        BYTE                   c_v-6
        BYTE   W01
        BYTE                   c_v-7
        BYTE   W02
        BYTE                   c_v-8
        BYTE           N06     Cs5
        BYTE   W01
        BYTE           PAN     c_v-9
        BYTE   W02
        BYTE                   c_v-10
        BYTE   W01
        BYTE                   c_v-11
        BYTE   W02
        BYTE                   c_v-12
        BYTE           N04     An4
        BYTE   W01
        BYTE           PAN     c_v-13
        BYTE   W02
        BYTE                   c_v-14
        BYTE   W01
        BYTE                   c_v-15
        BYTE   W02
        BYTE                   c_v-16
        BYTE           N04     Fs4   v118
        BYTE   W01
        BYTE           PAN     c_v-17
        BYTE   W02
        BYTE                   c_v-18
        BYTE   W01
        BYTE                   c_v-19
        BYTE   W02
        BYTE                   c_v-20
        BYTE           N06     An4   v110
        BYTE   W01
        BYTE           PAN     c_v-21
        BYTE   W02
        BYTE                   c_v-22
        BYTE   W01
        BYTE                   c_v-23
        BYTE   W02
        BYTE                   c_v-24
        BYTE           N06     Cs5
        BYTE   W01
        BYTE           PAN     c_v-25
        BYTE   W02
        BYTE                   c_v-26
        BYTE   W01
        BYTE                   c_v-27
        BYTE   W02
        BYTE                   c_v-28
        BYTE           N04     An4
        BYTE   W01
        BYTE           PAN     c_v-29
        BYTE   W02
        BYTE                   c_v-30
        BYTE   W01
        BYTE                   c_v-31
        BYTE   W02
        BYTE                   c_v-32
        BYTE           N04     Fs4   v118
        BYTE   W01
        BYTE           PAN     c_v-33
        BYTE   W02
        BYTE                   c_v-34
        BYTE   W01
        BYTE                   c_v-35
        BYTE   W02
        BYTE                   c_v-36
        BYTE           N06     An4   v110
        BYTE   W01
        BYTE           PAN     c_v-37
        BYTE   W02
        BYTE                   c_v-38
        BYTE   W01
        BYTE                   c_v-39
        BYTE   W02
        BYTE                   c_v-40
        BYTE           N06     Cs5
        BYTE   W01
        BYTE           PAN     c_v-41
        BYTE   W02
        BYTE                   c_v-42
        BYTE   W01
        BYTE                   c_v-43
        BYTE   W02
        BYTE                   c_v-44
        BYTE           N04     An4
        BYTE   W01
        BYTE           PAN     c_v-45
        BYTE   W02
        BYTE                   c_v-46
        BYTE   W01
        BYTE                   c_v-47
        BYTE   W02
        BYTE                   c_v-48
        BYTE           N04     Fs4   v118
        BYTE   W01
        BYTE           PAN     c_v-49
        BYTE   W02
        BYTE                   c_v-50
        BYTE   W01
        BYTE                   c_v-51
        BYTE   W02
        BYTE                   c_v-52
        BYTE           N06     An4   v110
        BYTE   W01
        BYTE           PAN     c_v-53
        BYTE   W02
        BYTE                   c_v-54
        BYTE   W01
        BYTE                   c_v-55
        BYTE   W02
        BYTE                   c_v-56
        BYTE           N06     Cs5
        BYTE   W01
        BYTE           PAN     c_v-57
        BYTE   W02
        BYTE                   c_v-58
        BYTE   W01
        BYTE                   c_v-59
        BYTE   W02
// 049   ----------------------------------------
        BYTE                   c_v-60
        BYTE           N04     An4
        BYTE   W01
        BYTE           PAN     c_v-61
        BYTE   W02
        BYTE                   c_v-62
        BYTE   W01
        BYTE                   c_v-63
        BYTE   W02
        BYTE                   c_v-64
        BYTE   W90
// 050   ----------------------------------------
        BYTE   W96
// 051   ----------------------------------------
        BYTE   W96
// 052   ----------------------------------------
        BYTE   W96
// 053   ----------------------------------------
        BYTE   W88
        BYTE                   c_v+0
        BYTE   GoTo
         POIN2  Dance_Brace_lesslessdrum_8_LOOP
        BYTE   W01
        BYTE   FINE

//***************** Track 9 (Midi-Chn.13) ******************//

Dance_Brace_lesslessdrum_9:
        BYTE   KEYSH   Dance_Brace_lesslessdrum_key+0
// 000   ----------------------------------------
        BYTE           VOICE   86
        BYTE           VOL     36
        BYTE   W96
// 001   ----------------------------------------
        BYTE   W96
// 002   ----------------------------------------
        BYTE   W96
// 003   ----------------------------------------
        BYTE   W84
        BYTE   W03
Dance_Brace_lesslessdrum_9_LOOP:
        BYTE   W09
// 004   ----------------------------------------
        BYTE   W96
// 005   ----------------------------------------
        BYTE   W96
// 006   ----------------------------------------
        BYTE   W96
// 007   ----------------------------------------
        BYTE   W96
// 008   ----------------------------------------
        BYTE   W96
// 009   ----------------------------------------
        BYTE   W96
// 010   ----------------------------------------
        BYTE   W90
        BYTE           N17     Cs3   v118
        BYTE   W06
// 011   ----------------------------------------
        BYTE   W18
        BYTE           N11
        BYTE   W12
        BYTE           N23     Cn3   v107
        BYTE   W24
        BYTE                   As2   v118
        BYTE   W24
        BYTE           N11     Gn2
        BYTE   W18
// 012   ----------------------------------------
        BYTE   W96
// 013   ----------------------------------------
        BYTE   W96
// 014   ----------------------------------------
        BYTE   W96
// 015   ----------------------------------------
        BYTE   W96
// 016   ----------------------------------------
        BYTE   W96
// 017   ----------------------------------------
        BYTE   W96
// 018   ----------------------------------------
        BYTE   W90
        BYTE           N17     Bn2
        BYTE   W06
// 019   ----------------------------------------
        BYTE   W18
        BYTE           N11
        BYTE   W12
        BYTE           N23     As2   v107
        BYTE   W24
        BYTE                   Gs2   v118
        BYTE   W24
        BYTE                   Fn2
        BYTE   W18
// 020   ----------------------------------------
        BYTE   W96
// 021   ----------------------------------------
        BYTE   W96
// 022   ----------------------------------------
        BYTE   W96
// 023   ----------------------------------------
        BYTE   W96
// 024   ----------------------------------------
        BYTE   W96
// 025   ----------------------------------------
        BYTE   W96
// 026   ----------------------------------------
        BYTE   W96
// 027   ----------------------------------------
        BYTE   W96
// 028   ----------------------------------------
        BYTE   W96
// 029   ----------------------------------------
        BYTE   W96
// 030   ----------------------------------------
        BYTE   W96
// 031   ----------------------------------------
        BYTE   W96
// 032   ----------------------------------------
        BYTE   W64
        BYTE   W01
        BYTE           VOICE   96
        BYTE   W13
        BYTE           N18     Cn3
        BYTE   W18
// 033   ----------------------------------------
        BYTE   W78
        BYTE                   Cn3
        BYTE   W18
// 034   ----------------------------------------
        BYTE   W90
        BYTE           N10     Cs3   v088
        BYTE   W06
// 035   ----------------------------------------
Dance_Brace_lesslessdrum_9_35:
        BYTE   W18
        BYTE           N10     Cs3   v088
        BYTE   W24
        BYTE                   Cs3
        BYTE   W24
        BYTE           N06
        BYTE   W12
        BYTE           N22     Dn3
        BYTE   W18
        BYTE   PEND
// 036   ----------------------------------------
Dance_Brace_lesslessdrum_9_36:
        BYTE   W18
        BYTE           N06     Cs4   v092
        BYTE   W24
        BYTE                   Cs4
        BYTE   W24
        BYTE                   Cs4
        BYTE   W24
        BYTE                   Cs4
        BYTE   W06
        BYTE   PEND
// 037   ----------------------------------------
        BYTE   PATT
         POIN2  Dance_Brace_lesslessdrum_9_36
// 038   ----------------------------------------
        BYTE   PATT
         POIN2  Dance_Brace_lesslessdrum_9_36
// 039   ----------------------------------------
        BYTE   PATT
         POIN2  Dance_Brace_lesslessdrum_9_36
// 040   ----------------------------------------
        BYTE   PATT
         POIN2  Dance_Brace_lesslessdrum_9_36
// 041   ----------------------------------------
        BYTE   PATT
         POIN2  Dance_Brace_lesslessdrum_9_36
// 042   ----------------------------------------
        BYTE   W18
        BYTE           N06     Cs4   v092
        BYTE   W24
        BYTE                   Cs4
        BYTE   W24
        BYTE                   Cs4
        BYTE   W24
        BYTE           N10     Cs3   v088
        BYTE   W06
// 043   ----------------------------------------
        BYTE   PATT
         POIN2  Dance_Brace_lesslessdrum_9_35
// 044   ----------------------------------------
        BYTE   PATT
         POIN2  Dance_Brace_lesslessdrum_9_36
// 045   ----------------------------------------
        BYTE   PATT
         POIN2  Dance_Brace_lesslessdrum_9_36
// 046   ----------------------------------------
        BYTE   PATT
         POIN2  Dance_Brace_lesslessdrum_9_36
// 047   ----------------------------------------
        BYTE   PATT
         POIN2  Dance_Brace_lesslessdrum_9_36
// 048   ----------------------------------------
        BYTE   W18
        BYTE           N06     Cs4   v092
        BYTE   W24
        BYTE                   Cs4
        BYTE   W24
        BYTE                   Cs4
        BYTE   W24
        BYTE           N12     Cs4   v084
        BYTE   W06
// 049   ----------------------------------------
        BYTE   W18
        BYTE           N06
        BYTE   W12
        BYTE           N12
        BYTE   W11
        BYTE           VOICE   86
        BYTE   W54
        BYTE   W01
// 050   ----------------------------------------
        BYTE   W96
// 051   ----------------------------------------
        BYTE   W96
// 052   ----------------------------------------
        BYTE   W96
// 053   ----------------------------------------
        BYTE   W88
        BYTE   GoTo
         POIN2  Dance_Brace_lesslessdrum_9_LOOP
        BYTE   W01
        BYTE   FINE

//***************** Track 10 (Midi-Chn.14) *****************//

Dance_Brace_lesslessdrum_10:
        BYTE   KEYSH   Dance_Brace_lesslessdrum_key+0
// 000   ----------------------------------------
        BYTE           VOICE   30
        BYTE           VOL     31
        BYTE           PAN     c_v+15
        BYTE   W06
        BYTE           N19     Fn1   v123
        BYTE   W72
        BYTE           N11
        BYTE   W12
        BYTE           N19     Cs2
        BYTE   W06
// 001   ----------------------------------------
        BYTE   W78
        BYTE           N23
        BYTE   W18
// 002   ----------------------------------------
        BYTE   W06
        BYTE                   Cn2
        BYTE   W24
        BYTE           N04     Cn2   v101
        BYTE   W12
        BYTE           N42     Gs1   v123   gtp1
        BYTE   W48
        BYTE           N11
        BYTE   W06
// 003   ----------------------------------------
        BYTE   W06
        BYTE           N13     As1
        BYTE   W24
        BYTE           N07
        BYTE   W12
        BYTE           N13     Cn2
        BYTE   W24
        BYTE                   Cn2
        BYTE   W21
Dance_Brace_lesslessdrum_10_LOOP:
        BYTE   W03
        BYTE           N92     Fn1   v123   gtp3
        BYTE   W06
// 004   ----------------------------------------
        BYTE   W90
        BYTE           N04     Fn1   v101
        BYTE   W06
// 005   ----------------------------------------
        BYTE                   Fn1
        BYTE   W06
        BYTE           N80     Cn2   v123   gtp3
        BYTE   W84
        BYTE           N04     Cn2   v101
        BYTE   W06
// 006   ----------------------------------------
        BYTE                   Cn2
        BYTE   W06
        BYTE           N80     Cs2   v123   gtp3
        BYTE   W84
        BYTE           N04     Cs2   v101
        BYTE   W06
// 007   ----------------------------------------
        BYTE                   Cs2
        BYTE   W06
        BYTE           N80     Gs1   v123   gtp3
        BYTE   W84
        BYTE           N04     Gs1   v101
        BYTE   W06
// 008   ----------------------------------------
        BYTE                   Gs1
        BYTE   W06
        BYTE           N80     As1   v123   gtp3
        BYTE   W84
        BYTE           N04     As1   v101
        BYTE   W06
// 009   ----------------------------------------
        BYTE                   As1
        BYTE   W06
        BYTE           N80     As1   v123   gtp3
        BYTE   W84
        BYTE           N04     As1   v101
        BYTE   W06
// 010   ----------------------------------------
        BYTE                   As1
        BYTE   W06
        BYTE           N76     Cn2   v123   gtp1
        BYTE   W78
        BYTE           N04     Cn2   v101
        BYTE   W06
        BYTE           N11     Cs2   v123
        BYTE   W06
// 011   ----------------------------------------
        BYTE   W06
        BYTE           N04     Cs2   v101
        BYTE   W12
        BYTE           N11     Cs2   v123
        BYTE   W12
        BYTE           N17     Cn2
        BYTE   W24
        BYTE           N23     As1
        BYTE   W24
        BYTE           N04     Gn1   v101
        BYTE   W12
        BYTE           N23     Fn1   v123
        BYTE   W06
// 012   ----------------------------------------
        BYTE   W18
        BYTE           N04     Fn1   v101
        BYTE   W12
        BYTE           N11     Fn1   v123
        BYTE   W12
        BYTE           N04     Fn1   v101
        BYTE   W12
        BYTE                   Fn1
        BYTE   W12
        BYTE           N11     Fn1   v123
        BYTE   W12
        BYTE           N04     Fn1   v101
        BYTE   W12
        BYTE                   Fn1
        BYTE   W06
// 013   ----------------------------------------
Dance_Brace_lesslessdrum_10_13:
        BYTE   W06
        BYTE           N11     Cn2   v123
        BYTE   W12
        BYTE           N04     Cn2   v101
        BYTE   W12
        BYTE                   Cn2
        BYTE   W12
        BYTE           N23     Cn2   v123
        BYTE   W24
        BYTE           N04     Cn2   v101
        BYTE   W12
        BYTE           N11     Cn2   v123
        BYTE   W12
        BYTE           N04     Cn2   v101
        BYTE   W06
        BYTE   PEND
// 014   ----------------------------------------
        BYTE   W06
        BYTE           N11     Cs2   v123
        BYTE   W12
        BYTE           N04     Cs2   v101
        BYTE   W12
        BYTE           N11     Cs2   v123
        BYTE   W12
        BYTE           N04     Cs2   v101
        BYTE   W12
        BYTE                   Cs2
        BYTE   W12
        BYTE           N11     Cs2   v123
        BYTE   W12
        BYTE           N04     Cs2   v101
        BYTE   W12
        BYTE                   Cs2
        BYTE   W06
// 015   ----------------------------------------
        BYTE   W06
        BYTE           N11     Gs1   v123
        BYTE   W12
        BYTE           N04     Gs1   v101
        BYTE   W12
        BYTE                   Gs1
        BYTE   W12
        BYTE           N23     Gs1   v123
        BYTE   W24
        BYTE           N04     Gs1   v101
        BYTE   W12
        BYTE           N11     Gs1   v123
        BYTE   W12
        BYTE           N04     Gs1   v101
        BYTE   W06
// 016   ----------------------------------------
        BYTE   W06
        BYTE           N11     As1   v123
        BYTE   W12
        BYTE           N04     As1   v101
        BYTE   W12
        BYTE           N11     As1   v123
        BYTE   W12
        BYTE           N04     As1   v101
        BYTE   W12
        BYTE                   As1
        BYTE   W12
        BYTE           N11     As1   v123
        BYTE   W12
        BYTE           N04     As1   v101
        BYTE   W12
        BYTE           N23     Cn2   v123
        BYTE   W06
// 017   ----------------------------------------
        BYTE   W18
        BYTE           N04     Cn2   v101
        BYTE   W12
        BYTE           N28     Cn2   v123   gtp1
        BYTE   W36
        BYTE           N04     Cn2   v101
        BYTE   W12
        BYTE           N11     Cn2   v123
        BYTE   W12
        BYTE           N04     Cn2   v101
        BYTE   W06
// 018   ----------------------------------------
        BYTE   W06
        BYTE                   Fn1
        BYTE   W12
        BYTE                   Fn1
        BYTE   W12
        BYTE           N11     Fn1   v123
        BYTE   W12
        BYTE           N04     Fn1   v101
        BYTE   W12
        BYTE                   Fn1
        BYTE   W12
        BYTE           N11     Fn1   v123
        BYTE   W12
        BYTE           N04     Fn1   v101
        BYTE   W12
        BYTE           N11     Bn1   v123
        BYTE   W06
// 019   ----------------------------------------
        BYTE   W06
        BYTE           N04     Bn1   v101
        BYTE   W12
        BYTE           N11     Bn1   v123
        BYTE   W12
        BYTE           N17     As1
        BYTE   W24
        BYTE           N11     Gs1
        BYTE   W12
        BYTE           N04     Gs1   v101
        BYTE   W12
        BYTE           N23     Fn1   v123
        BYTE   W18
// 020   ----------------------------------------
        BYTE   W06
        BYTE           TIE     Cn2   v113
        BYTE   W90
// 021   ----------------------------------------
        BYTE   W88
        BYTE   W01
        BYTE           EOT
        BYTE   W01
        BYTE           N04     Cn2   v101
        BYTE   W06
// 022   ----------------------------------------
        BYTE                   Cn2
        BYTE   W06
        BYTE           TIE     Fn1   v113
        BYTE   W90
// 023   ----------------------------------------
        BYTE   W88
        BYTE   W01
        BYTE           EOT
        BYTE   W01
        BYTE           N04     Fn1   v101
        BYTE   W06
// 024   ----------------------------------------
        BYTE                   Fn1
        BYTE   W06
        BYTE           N68     As1   v113   gtp3
        BYTE   W72
        BYTE           N04     As1   v101
        BYTE   W12
        BYTE           N64     Cn2   v113   gtp1
        BYTE   W06
// 025   ----------------------------------------
        BYTE   W66
        BYTE           N04     Cn2   v101
        BYTE   W12
        BYTE           N11     Cn2   v113
        BYTE   W12
        BYTE           N04     Cn2   v101
        BYTE   W06
// 026   ----------------------------------------
        BYTE   W06
        BYTE           N11     Fn1   v113
        BYTE   W12
        BYTE           N04     Fn1   v101
        BYTE   W12
        BYTE                   Fn1
        BYTE   W12
        BYTE           N17     Fn1   v113
        BYTE   W24
        BYTE           N04     Fn1   v101
        BYTE   W12
        BYTE                   Fn1
        BYTE   W12
        BYTE           N17     Fn1   v113
        BYTE   W06
// 027   ----------------------------------------
        BYTE   W18
        BYTE           N04     Fn1   v101
        BYTE   W12
        BYTE                   Fn1
        BYTE   W12
        BYTE           N17     Fn1   v113
        BYTE   W24
        BYTE           N04     Fn1   v101
        BYTE   W12
        BYTE           N23     Fn1   v113
        BYTE   W18
// 028   ----------------------------------------
        BYTE   W06
        BYTE           N04     Cs2   v101
        BYTE   W12
        BYTE                   Cs2
        BYTE   W12
        BYTE           N11     Cs2   v113
        BYTE   W12
        BYTE           N04     Cs2   v101
        BYTE   W12
        BYTE                   Cs2
        BYTE   W12
        BYTE           N11     Cs2   v113
        BYTE   W12
        BYTE           N04     Cs2   v101
        BYTE   W12
        BYTE                   Cs2
        BYTE   W06
// 029   ----------------------------------------
        BYTE   W06
        BYTE           N11     Cn2   v113
        BYTE   W12
        BYTE           N04     Cn2   v101
        BYTE   W12
        BYTE                   Cn2
        BYTE   W12
        BYTE           N11     Cn2   v113
        BYTE   W12
        BYTE           N04     Cn2   v101
        BYTE   W12
        BYTE                   Cn2
        BYTE   W12
        BYTE           N23     Cn2   v113
        BYTE   W18
// 030   ----------------------------------------
        BYTE   W06
        BYTE                   Fn1
        BYTE   W24
        BYTE           N04     Fn1   v101
        BYTE   W12
        BYTE           N23     Cs2   v113
        BYTE   W24
        BYTE           N04     Cs2   v101
        BYTE   W12
        BYTE           N32     As1   v113   gtp3
        BYTE   W18
// 031   ----------------------------------------
        BYTE   W18
        BYTE           N04     As1   v101
        BYTE   W12
        BYTE           N11     As1   v113
        BYTE   W12
        BYTE           N04     As1   v101
        BYTE   W12
        BYTE                   As1
        BYTE   W12
        BYTE           N23     As1   v113
        BYTE   W24
        BYTE           N04     As1   v101
        BYTE   W06
// 032   ----------------------------------------
        BYTE   PATT
         POIN2  Dance_Brace_lesslessdrum_10_13
// 033   ----------------------------------------
        BYTE   PATT
         POIN2  Dance_Brace_lesslessdrum_10_13
// 034   ----------------------------------------
        BYTE   W06
        BYTE           N11     Bn1   v123
        BYTE   W12
        BYTE           N04     Bn1   v101
        BYTE   W12
        BYTE                   Bn1
        BYTE   W12
        BYTE           N23     Bn1   v123
        BYTE   W24
        BYTE           N11     Cs2
        BYTE   W12
        BYTE           N04     Cs2   v101
        BYTE   W12
        BYTE           N11     Cs2   v123
        BYTE   W06
// 035   ----------------------------------------
Dance_Brace_lesslessdrum_10_35:
        BYTE   W18
        BYTE           N11     Cs2   v123
        BYTE   W12
        BYTE           N04     Cs2   v101
        BYTE   W12
        BYTE           N11     Cs2   v123
        BYTE   W12
        BYTE           N04     Cs2   v101
        BYTE   W12
        BYTE           N05     Cs2   v123
        BYTE   W12
        BYTE           N23     Dn2
        BYTE   W18
        BYTE   PEND
// 036   ----------------------------------------
        BYTE   W06
        BYTE           TIE     Fs1
        BYTE   W90
// 037   ----------------------------------------
Dance_Brace_lesslessdrum_10_37:
        BYTE   W88
        BYTE   W01
        BYTE           EOT     Fs1
        BYTE   W01
        BYTE           N04     Fs1   v101
        BYTE   W06
        BYTE   PEND
// 038   ----------------------------------------
        BYTE                   Fs1
        BYTE   W06
        BYTE           TIE     Dn2   v123
        BYTE   W90
// 039   ----------------------------------------
        BYTE   W88
        BYTE   W01
        BYTE           EOT
        BYTE   W01
        BYTE           N04     Dn2   v101
        BYTE   W06
// 040   ----------------------------------------
        BYTE                   Dn2
        BYTE   W06
        BYTE           TIE     Bn1   v123
        BYTE   W90
// 041   ----------------------------------------
        BYTE   W88
        BYTE   W01
        BYTE           EOT
        BYTE   W01
        BYTE           N04     Bn1   v101
        BYTE   W06
// 042   ----------------------------------------
        BYTE                   Bn1
        BYTE   W06
        BYTE           N68     Cs2   v123   gtp3
        BYTE   W72
        BYTE           N04     Cs2   v101
        BYTE   W12
        BYTE           N11     Cs2   v123
        BYTE   W06
// 043   ----------------------------------------
        BYTE   PATT
         POIN2  Dance_Brace_lesslessdrum_10_35
// 044   ----------------------------------------
        BYTE   W06
        BYTE           N68     Fs1   v123   gtp3
        BYTE   W72
        BYTE           N04     Fs1   v101
        BYTE   W12
        BYTE           N92     En1   v123   gtp3
        BYTE   W06
// 045   ----------------------------------------
        BYTE   W90
        BYTE           N04     En1   v101
        BYTE   W06
// 046   ----------------------------------------
        BYTE                   En1
        BYTE   W06
        BYTE           N68     Dn2   v123   gtp3
        BYTE   W72
        BYTE           N04     Dn2   v101
        BYTE   W12
        BYTE           N28     Cs2   v123   gtp1
        BYTE   W06
// 047   ----------------------------------------
        BYTE   W24
        BYTE           N04     Cs2   v101
        BYTE   W06
        BYTE           N17     Cs2   v123
        BYTE   W24
        BYTE                   Cs2
        BYTE   W24
        BYTE           N23
        BYTE   W18
// 048   ----------------------------------------
        BYTE   W06
        BYTE           N68     Bn1   v123   gtp3
        BYTE   W72
        BYTE           N04     Bn1   v101
        BYTE   W12
        BYTE           N19     Cs2   v123
        BYTE   W06
// 049   ----------------------------------------
        BYTE   W18
        BYTE           N07
        BYTE   W12
        BYTE           N17
        BYTE   W66
// 050   ----------------------------------------
        BYTE   W06
        BYTE           TIE     Fs1
        BYTE   W90
// 051   ----------------------------------------
        BYTE   PATT
         POIN2  Dance_Brace_lesslessdrum_10_37
// 052   ----------------------------------------
        BYTE           N04     Fs1   v101
        BYTE   W06
        BYTE           N80     Fs1   v123   gtp3
        BYTE   W84
        BYTE           N04     Fs1   v101
        BYTE   W06
// 053   ----------------------------------------
        BYTE                   Fs1
        BYTE   W06
        BYTE           N13     As1   v123
        BYTE   W24
        BYTE           N07
        BYTE   W12
        BYTE           N13     Cn2
        BYTE   W24
        BYTE                   Cn2
        BYTE   W22
        BYTE   GoTo
         POIN2  Dance_Brace_lesslessdrum_10_LOOP
        BYTE   W01
        BYTE   FINE


//********************** End of Song ***********************//

        ALIGN 4
Dance_Brace_lesslessdrum:
        BYTE   11                      // Num Tracks
        BYTE   0                       // Unknown
        BYTE   Dance_Brace_lesslessdrum_pri // Priority
        BYTE   Dance_Brace_lesslessdrum_rev // Reverb

        POIN2   Dance_Brace_lesslessdrum_grp

        POIN2   Dance_Brace_lesslessdrum_0
        POIN2   Dance_Brace_lesslessdrum_1
        POIN2   Dance_Brace_lesslessdrum_2
        POIN2   Dance_Brace_lesslessdrum_3
        POIN2   Dance_Brace_lesslessdrum_4
        POIN2   Dance_Brace_lesslessdrum_5
        POIN2   Dance_Brace_lesslessdrum_6
        POIN2   Dance_Brace_lesslessdrum_7
        POIN2   Dance_Brace_lesslessdrum_8
        POIN2   Dance_Brace_lesslessdrum_9
        POIN2   Dance_Brace_lesslessdrum_10

        
