//Event file generated from Sappy .s format.
	#include "MPlayDef.event"

	#define	EienNoIczer_grp  voicegroup000
	#define	EienNoIczer_pri  0
	#define	EienNoIczer_rev  0
	#define	EienNoIczer_mvl  127
	#define	EienNoIczer_key  0
	#define	EienNoIczer_tbs  1
	#define	EienNoIczer_exg  0
	#define	EienNoIczer_cmp  1

	// .rodata
	//	EienNoIczer
	ALIGN 4


//**************** Track 1 (Midi-Chn.0) ****************//

EienNoIczer_001:
//  #01 //000   ----------------------------------------
 BYTE   KEYSH   EienNoIczer_key+0
 BYTE   VOICE   34
 BYTE   BENDR  12
 BYTE   VOL   54*EienNoIczer_mvl/mxv
 BYTE   N12  Fn1  v101
 BYTE   W12
 BYTE   Fn2  v079
 BYTE   W12
 BYTE   Fn1  v099
 BYTE   W12
 BYTE   Fn2  v075
 BYTE   W12
 BYTE   Fn1  v101
 BYTE   W12
 BYTE   Fn2  v077
 BYTE   W12
 BYTE   Fn1  v095
 BYTE   W12
 BYTE   Fn2  v079
 BYTE   W05
 BYTE   BEND   c_v-6
 BYTE   W05
 BYTE   BEND   c_v-11
 BYTE   W02
//  #01 //001   ----------------------------------------
 BYTE   BEND   c_v+0
 BYTE   N12  Ds1  v100
 BYTE   W12
 BYTE   Ds2  v074
 BYTE   W12
 BYTE   Ds1  v095
 BYTE   W12
 BYTE   Ds2  v073
 BYTE   W12
 BYTE   Ds1  v102
 BYTE   W12
 BYTE   Ds2  v073
 BYTE   W12
 BYTE   Ds1  v102
 BYTE   W12
 BYTE   Ds2  v079
 BYTE   W05
 BYTE   BEND   c_v-6
 BYTE   W05
 BYTE   BEND   c_v-11
 BYTE   W02
//  #01 //002   ----------------------------------------
 BYTE   BEND   c_v+0
 BYTE   N12  Dn1  v096
 BYTE   W12
 BYTE   Dn2  v078
 BYTE   W12
 BYTE   Dn1  v100
 BYTE   W12
 BYTE   Dn2  v074
 BYTE   W12
 BYTE   Dn1  v097
 BYTE   W12
 BYTE   Dn2  v074
 BYTE   W12
 BYTE   Dn1  v102
 BYTE   W12
 BYTE   Dn2  v075
 BYTE   W12
//  #01 //003   ----------------------------------------
 BYTE   Cs1  v096
 BYTE   W12
 BYTE   Cs2  v079
 BYTE   W12
 BYTE   Cs1  v101
 BYTE   W12
 BYTE   Cs2  v078
 BYTE   W12
 BYTE   Cs1  v101
 BYTE   W12
 BYTE   Cs2  v079
 BYTE   W12
 BYTE   Cs1  v096
 BYTE   W12
 BYTE   Cs2  v074
 BYTE   W05
 BYTE   BEND   c_v+5
 BYTE   W03
 BYTE   BEND   c_v+10
 BYTE   W02
 BYTE   BEND   c_v+16
 BYTE   W02
//  #01 //004   ----------------------------------------
 BYTE   BEND   c_v+0
 BYTE   N12  Fn1  v100
 BYTE   W12
 BYTE   Fn2  v073
 BYTE   W12
 BYTE   Fn1  v099
 BYTE   W12
 BYTE   Fn2  v080
 BYTE   W12
 BYTE   Fn1  v102
 BYTE   W12
 BYTE   Fn2  v074
 BYTE   W12
 BYTE   Fn1  v096
 BYTE   W12
 BYTE   Fn2  v075
 BYTE   W05
 BYTE   BEND   c_v-6
 BYTE   W05
 BYTE   BEND   c_v-11
 BYTE   W02
//  #01 //005   ----------------------------------------
 BYTE   BEND   c_v+0
 BYTE   N12  Ds1  v096
 BYTE   W12
 BYTE   Ds2  v074
 BYTE   W12
 BYTE   Ds1  v101
 BYTE   W12
 BYTE   Ds2  v078
 BYTE   W12
 BYTE   Ds1  v096
 BYTE   W12
 BYTE   Ds2  v075
 BYTE   W12
 BYTE   Ds1  v096
 BYTE   W12
 BYTE   Ds2  v073
 BYTE   W05
 BYTE   BEND   c_v-6
 BYTE   W05
 BYTE   BEND   c_v-11
 BYTE   W02
//  #01 //006   ----------------------------------------
 BYTE   BEND   c_v+0
 BYTE   N12  Dn1  v097
 BYTE   W12
 BYTE   Dn2  v080
 BYTE   W12
 BYTE   Dn1  v095
 BYTE   W12
 BYTE   Dn2  v073
 BYTE   W12
 BYTE   Cs1  v095
 BYTE   W12
 BYTE   Cs2  v074
 BYTE   W12
 BYTE   Cs1  v097
 BYTE   W12
 BYTE   Cs2  v074
 BYTE   W12
//  #01 //007   ----------------------------------------
 BYTE   Cn1  v095
 BYTE   W12
 BYTE   Cn2  v078
 BYTE   W12
 BYTE   Cn1  v099
 BYTE   W12
 BYTE   Cn2  v077
 BYTE   W12
 BYTE   Cn1  v096
 BYTE   W12
 BYTE   Cn2  v077
 BYTE   W12
 BYTE   Cn1  v097
 BYTE   W12
 BYTE   Cn2  v080
 BYTE   W12
//  #01 //008   ----------------------------------------
Label_012B7E0E:
 BYTE   N10  Fn1  v086
 BYTE   W12
 BYTE   Fn1  v080
 BYTE   W12
 BYTE   Fn1  v084
 BYTE   W12
 BYTE   Fn1  v073
 BYTE   W12
 BYTE   Fn1  v084
 BYTE   W12
 BYTE   Fn1  v075
 BYTE   W12
 BYTE   Fn1  v088
 BYTE   W12
 BYTE   Fn1  v079
 BYTE   W12
//  #01 //009   ----------------------------------------
 BYTE   Fn1  v088
 BYTE   W12
 BYTE   Fn1  v073
 BYTE   W12
 BYTE   Fn1  v084
 BYTE   W12
 BYTE   Fn1  v078
 BYTE   W12
 BYTE   Fn1  v088
 BYTE   W12
 BYTE   Fn1  v073
 BYTE   W12
 BYTE   Fn1  v088
 BYTE   W12
 BYTE   Fn1  v078
 BYTE   W12
//  #01 //010   ----------------------------------------
 BYTE   Cn1  v086
 BYTE   W12
 BYTE   Cn1  v080
 BYTE   W12
 BYTE   Cn1  v090
 BYTE   W12
 BYTE   Cn1  v077
 BYTE   W12
 BYTE   Cn1  v088
 BYTE   W12
 BYTE   Cn1  v073
 BYTE   W12
 BYTE   Cn1  v086
 BYTE   W12
 BYTE   Cn1  v074
 BYTE   W12
//  #01 //011   ----------------------------------------
 BYTE   Cn1  v085
 BYTE   W12
 BYTE   Cn1  v074
 BYTE   W12
 BYTE   Cn1  v088
 BYTE   W12
 BYTE   Cn1  v075
 BYTE   W12
 BYTE   Cn1  v089
 BYTE   W12
 BYTE   Cn1  v078
 BYTE   W12
 BYTE   Cn1  v086
 BYTE   W12
 BYTE   Cn1  v080
 BYTE   W12
//  #01 //012   ----------------------------------------
 BYTE   Cs1  v084
 BYTE   W12
 BYTE   Cs1  v079
 BYTE   W12
 BYTE   Cs1  v091
 BYTE   W12
 BYTE   Cs1  v075
 BYTE   W12
 BYTE   Cs1  v090
 BYTE   W12
 BYTE   Cs1  v077
 BYTE   W12
 BYTE   Cs1  v089
 BYTE   W12
 BYTE   Cs1  v080
 BYTE   W12
//  #01 //013   ----------------------------------------
 BYTE   Cs1  v091
 BYTE   W12
 BYTE   Cs1  v078
 BYTE   W12
 BYTE   Cs1  v090
 BYTE   W12
 BYTE   Cs1  v077
 BYTE   W12
 BYTE   Cs1  v089
 BYTE   W12
 BYTE   Cs1  v079
 BYTE   W12
 BYTE   Cs1  v084
 BYTE   W12
 BYTE   Cs1  v075
 BYTE   W12
//  #01 //014   ----------------------------------------
 BYTE   Cn1  v086
 BYTE   W12
 BYTE   Cn1  v075
 BYTE   W12
 BYTE   Cn1  v084
 BYTE   W12
 BYTE   Cn1  v073
 BYTE   W12
 BYTE   Cn1  v090
 BYTE   W12
 BYTE   Cn1  v074
 BYTE   W12
 BYTE   Cn1  v090
 BYTE   W12
 BYTE   Cn1  v078
 BYTE   W12
//  #01 //015   ----------------------------------------
 BYTE   Cn1  v090
 BYTE   W12
 BYTE   Cn1  v077
 BYTE   W12
 BYTE   Cn1  v088
 BYTE   W12
 BYTE   Cn1  v075
 BYTE   W12
 BYTE   Cn1  v085
 BYTE   W12
 BYTE   Cn1  v074
 BYTE   W12
 BYTE   Cn1  v086
 BYTE   W12
 BYTE   Cn1  v077
 BYTE   W12
//  #01 //016   ----------------------------------------
 BYTE   Fn1  v090
 BYTE   W12
 BYTE   Fn1  v080
 BYTE   W12
 BYTE   Fn1  v089
 BYTE   W12
 BYTE   Fn1  v075
 BYTE   W12
 BYTE   Fn1  v084
 BYTE   W12
 BYTE   Fn1  v080
 BYTE   W12
 BYTE   Fn1  v088
 BYTE   W12
 BYTE   Fn1  v078
 BYTE   W12
//  #01 //017   ----------------------------------------
 BYTE   Fn1  v090
 BYTE   W12
 BYTE   Fn1  v073
 BYTE   W12
 BYTE   Fn1  v090
 BYTE   W12
 BYTE   Fn1  v079
 BYTE   W12
 BYTE   Fn1  v084
 BYTE   W12
 BYTE   Fn1  v078
 BYTE   W12
 BYTE   Fn1  v089
 BYTE   W12
 BYTE   Fn1  v078
 BYTE   W12
//  #01 //018   ----------------------------------------
 BYTE   Cn1  v086
 BYTE   W12
 BYTE   Cn1  v073
 BYTE   W12
 BYTE   Cn1  v086
 BYTE   W12
 BYTE   Cn1  v079
 BYTE   W12
 BYTE   Cn1  v088
 BYTE   W12
 BYTE   Cn1  v077
 BYTE   W12
 BYTE   Cn1  v090
 BYTE   W12
 BYTE   Cn1  v077
 BYTE   W12
//  #01 //019   ----------------------------------------
 BYTE   Cn1  v084
 BYTE   W12
 BYTE   Cn1  v077
 BYTE   W12
 BYTE   Cn1  v085
 BYTE   W12
 BYTE   Cn1  v080
 BYTE   W12
 BYTE   Cn1  v089
 BYTE   W12
 BYTE   Cn1  v075
 BYTE   W12
 BYTE   Cn1  v085
 BYTE   W12
 BYTE   Cn1  v073
 BYTE   W12
//  #01 //020   ----------------------------------------
 BYTE   Cs1  v090
 BYTE   W12
 BYTE   Cs1  v077
 BYTE   W12
 BYTE   Cs1  v089
 BYTE   W12
 BYTE   Cs1  v080
 BYTE   W12
 BYTE   Cs1  v088
 BYTE   W12
 BYTE   Cs1  v073
 BYTE   W12
 BYTE   Cs1  v085
 BYTE   W12
 BYTE   N24  Ds1
 BYTE   W12
//  #01 //021   ----------------------------------------
 BYTE   W12
 BYTE   N10  Ds1  v073
 BYTE   W12
 BYTE   Ds1  v084
 BYTE   W12
 BYTE   Ds1  v075
 BYTE   W12
 BYTE   Ds1  v089
 BYTE   W12
 BYTE   Ds1  v080
 BYTE   W12
 BYTE   Ds1  v090
 BYTE   W12
 BYTE   Ds1  v079
 BYTE   W12
//  #01 //022   ----------------------------------------
 BYTE   Gs0  v084
 BYTE   W12
 BYTE   Gs0  v075
 BYTE   W12
 BYTE   Gs0  v085
 BYTE   W12
 BYTE   Gs0  v077
 BYTE   W12
 BYTE   Gs0  v089
 BYTE   W12
 BYTE   Gs0  v079
 BYTE   W12
 BYTE   Gs0  v086
 BYTE   W12
 BYTE   N24  Cn1  v084
 BYTE   W12
//  #01 //023   ----------------------------------------
 BYTE   W12
 BYTE   N10  Cn1  v074
 BYTE   W12
 BYTE   Cn1  v088
 BYTE   W12
 BYTE   Cn1  v075
 BYTE   W12
 BYTE   Cn1  v089
 BYTE   W12
 BYTE   Cn1  v078
 BYTE   W12
 BYTE   Cn1  v085
 BYTE   W12
 BYTE   Cn1  v073
 BYTE   W12
//  #01 //024   ----------------------------------------
 BYTE   N11  Fn1  v088
 BYTE   W12
 BYTE   Fn2  v077
 BYTE   W12
 BYTE   N01  Fn1  v051
 BYTE   W12
 BYTE   N10  Fn1  v077
 BYTE   W12
 BYTE   N11  Fn1  v084
 BYTE   W12
 BYTE   Fn2  v080
 BYTE   W12
 BYTE   N01  Fn1  v055
 BYTE   W12
 BYTE   N10  Fn1  v073
 BYTE   W12
//  #01 //025   ----------------------------------------
 BYTE   N11  Ds1  v091
 BYTE   W12
 BYTE   Ds2  v073
 BYTE   W12
 BYTE   N01  Ds1  v052
 BYTE   W12
 BYTE   N10  Ds1  v073
 BYTE   W12
 BYTE   N11  Ds1  v091
 BYTE   W12
 BYTE   Ds2  v079
 BYTE   W12
 BYTE   N01  Ds1  v053
 BYTE   W12
 BYTE   N10  Ds1  v073
 BYTE   W12
//  #01 //026   ----------------------------------------
 BYTE   N11  Cs1  v088
 BYTE   W12
 BYTE   Cs2  v080
 BYTE   W12
 BYTE   N01  Cs1  v055
 BYTE   W12
 BYTE   N10  Cs1  v075
 BYTE   W12
 BYTE   N11  Cs1  v086
 BYTE   W12
 BYTE   Cs2  v075
 BYTE   W12
 BYTE   N01  Cs1  v053
 BYTE   W12
 BYTE   N10  Cs1  v077
 BYTE   W12
//  #01 //027   ----------------------------------------
 BYTE   N11  Cn1  v086
 BYTE   W12
 BYTE   Cn2  v074
 BYTE   W12
 BYTE   N01  Cn1  v055
 BYTE   W12
 BYTE   N10  Cn1  v073
 BYTE   W12
 BYTE   N11  Cn1  v084
 BYTE   W12
 BYTE   Cn2  v073
 BYTE   W12
 BYTE   N01  Cn1  v052
 BYTE   W12
 BYTE   N10  Cn1  v078
 BYTE   W12
//  #01 //028   ----------------------------------------
 BYTE   N11  Cs1  v088
 BYTE   W12
 BYTE   Cs2  v079
 BYTE   W12
 BYTE   N01  Cs1  v052
 BYTE   W12
 BYTE   N10  Cs1  v079
 BYTE   W12
 BYTE   N11  Cs1  v084
 BYTE   W12
 BYTE   Cs2  v078
 BYTE   W12
 BYTE   N01  Cs1  v058
 BYTE   W12
 BYTE   N10  Cs1  v078
 BYTE   W12
//  #01 //029   ----------------------------------------
 BYTE   N11  Ds1  v091
 BYTE   W12
 BYTE   Ds2  v073
 BYTE   W12
 BYTE   N01  Ds1  v058
 BYTE   W12
 BYTE   N10  Ds1  v079
 BYTE   W12
 BYTE   N11  Ds1  v090
 BYTE   W12
 BYTE   Ds2  v073
 BYTE   W12
 BYTE   N01  Ds1  v051
 BYTE   W12
 BYTE   N10  Ds1  v078
 BYTE   W12
//  #01 //030   ----------------------------------------
 BYTE   N11  Gs0  v090
 BYTE   W12
 BYTE   Gs1  v074
 BYTE   W12
 BYTE   N01  Gs0  v053
 BYTE   W12
 BYTE   N10  Gs0  v079
 BYTE   W12
 BYTE   N11  Gs0  v091
 BYTE   W12
 BYTE   Gs1  v075
 BYTE   W12
 BYTE   N01  Gs0  v057
 BYTE   W12
 BYTE   N10  Gs0  v078
 BYTE   W12
//  #01 //031   ----------------------------------------
 BYTE   N11  Gn0  v089
 BYTE   W12
 BYTE   Gn1  v080
 BYTE   W12
 BYTE   N01  Gn0  v056
 BYTE   W12
 BYTE   N10  Gn0  v078
 BYTE   W12
 BYTE   N11  Cn1  v091
 BYTE   W12
 BYTE   Cn2  v079
 BYTE   W12
 BYTE   N01  Cn1  v055
 BYTE   W12
 BYTE   N10  Cn1  v074
 BYTE   W12
//  #01 //032   ----------------------------------------
 BYTE   N11  Fn1  v090
 BYTE   W12
 BYTE   Fn2  v075
 BYTE   W12
 BYTE   N01  Fn1  v052
 BYTE   W12
 BYTE   N10  Fn1  v075
 BYTE   W12
 BYTE   N11  Fn1  v091
 BYTE   W12
 BYTE   Fn2  v073
 BYTE   W12
 BYTE   N01  Fn1  v055
 BYTE   W12
 BYTE   N10  Fn1  v074
 BYTE   W12
//  #01 //033   ----------------------------------------
 BYTE   N11  Ds1  v090
 BYTE   W12
 BYTE   Ds2  v075
 BYTE   W12
 BYTE   N01  Ds1  v052
 BYTE   W12
 BYTE   N10  Ds1  v079
 BYTE   W12
 BYTE   N11  Ds1  v090
 BYTE   W12
 BYTE   Ds2  v078
 BYTE   W12
 BYTE   N01  Ds1  v058
 BYTE   W12
 BYTE   N10  Ds1  v073
 BYTE   W12
//  #01 //034   ----------------------------------------
 BYTE   N11  Cs1  v090
 BYTE   W12
 BYTE   Cs2  v077
 BYTE   W12
 BYTE   N01  Cs1  v057
 BYTE   W12
 BYTE   N10  Cs1  v075
 BYTE   W12
 BYTE   N11  Cs1  v084
 BYTE   W12
 BYTE   Cs2  v073
 BYTE   W12
 BYTE   N01  Cs1  v058
 BYTE   W12
 BYTE   N10  Cs1  v078
 BYTE   W12
//  #01 //035   ----------------------------------------
 BYTE   N11  Cn1  v090
 BYTE   W12
 BYTE   Cn2  v079
 BYTE   W12
 BYTE   N01  Cn1  v052
 BYTE   W12
 BYTE   N10  Cn1  v078
 BYTE   W12
 BYTE   N11  Cn1  v084
 BYTE   W12
 BYTE   Cn2  v080
 BYTE   W12
 BYTE   N01  Cn1  v056
 BYTE   W12
 BYTE   N10  Cn1  v075
 BYTE   W12
//  #01 //036   ----------------------------------------
 BYTE   N11  Cs1  v085
 BYTE   W12
 BYTE   Cs2  v073
 BYTE   W12
 BYTE   N01  Cs1  v058
 BYTE   W12
 BYTE   N10  Cs1  v074
 BYTE   W12
 BYTE   N11  Cs1  v085
 BYTE   W12
 BYTE   Cs2  v080
 BYTE   W12
 BYTE   N01  Cs1  v053
 BYTE   W12
 BYTE   N10  Cs1  v073
 BYTE   W12
//  #01 //037   ----------------------------------------
 BYTE   N11  Ds1  v086
 BYTE   W12
 BYTE   Ds2  v073
 BYTE   W12
 BYTE   N01  Ds1  v057
 BYTE   W12
 BYTE   N10  Ds1  v079
 BYTE   W12
 BYTE   N11  Ds1  v088
 BYTE   W12
 BYTE   Ds2  v074
 BYTE   W12
 BYTE   N01  Ds1  v057
 BYTE   W12
 BYTE   N10  Ds1  v080
 BYTE   W12
//  #01 //038   ----------------------------------------
 BYTE   N11  Gs0  v090
 BYTE   W12
 BYTE   Gs1  v077
 BYTE   W12
 BYTE   N01  Gs0  v055
 BYTE   W12
 BYTE   N10  Gs0  v073
 BYTE   W12
 BYTE   N11  Cs1  v089
 BYTE   W12
 BYTE   Cs2  v074
 BYTE   W12
 BYTE   N01  Cs1  v056
 BYTE   W12
 BYTE   N10  Cs1  v080
 BYTE   W12
//  #01 //039   ----------------------------------------
 BYTE   N11  Cn1  v089
 BYTE   W12
 BYTE   Cn2  v074
 BYTE   W12
 BYTE   N01  Cn1  v056
 BYTE   W12
 BYTE   N10  Cn1  v079
 BYTE   W12
 BYTE   N11  Cn1  v089
 BYTE   W12
 BYTE   Cn2  v075
 BYTE   W12
 BYTE   N01  Cn1  v051
 BYTE   W12
 BYTE   N24  Cs1  v100
 BYTE   W12
//  #01 //040   ----------------------------------------
 BYTE   W12
 BYTE   N11  Cs2  v079
 BYTE   W12
 BYTE   N01  Cs1  v056
 BYTE   W12
 BYTE   N10  Cs1  v079
 BYTE   W12
 BYTE   N11  Fs0  v088
 BYTE   W12
 BYTE   Fs1  v078
 BYTE   W12
 BYTE   N01  Fs0  v051
 BYTE   W12
 BYTE   N10  Fs0  v079
 BYTE   W12
//  #01 //041   ----------------------------------------
 BYTE   N11  Fn0  v090
 BYTE   W12
 BYTE   Fn1  v073
 BYTE   W12
 BYTE   N01  Fn0  v052
 BYTE   W12
 BYTE   N10  Fn0  v075
 BYTE   W12
 BYTE   N11  Fn0  v085
 BYTE   W12
 BYTE   Fn1  v079
 BYTE   W12
 BYTE   N01  Fn0  v055
 BYTE   W12
 BYTE   N10  Fn0  v075
 BYTE   W12
//  #01 //042   ----------------------------------------
 BYTE   N12  Fn1  v100
 BYTE   W12
 BYTE   Fn2  v075
 BYTE   W12
 BYTE   Fn1  v100
 BYTE   W12
 BYTE   Fn2  v073
 BYTE   W12
 BYTE   Fn1  v095
 BYTE   W12
 BYTE   Fn2  v079
 BYTE   W12
 BYTE   Fn1  v095
 BYTE   W12
 BYTE   Fn2  v073
 BYTE   W05
 BYTE   BEND   c_v-6
 BYTE   W05
 BYTE   BEND   c_v-11
 BYTE   W02
//  #01 //043   ----------------------------------------
 BYTE   BEND   c_v+0
 BYTE   N12  Ds1  v101
 BYTE   W12
 BYTE   Ds2  v078
 BYTE   W12
 BYTE   Ds1  v097
 BYTE   W12
 BYTE   Ds2  v079
 BYTE   W12
 BYTE   Ds1  v096
 BYTE   W12
 BYTE   Ds2  v075
 BYTE   W12
 BYTE   Ds1  v102
 BYTE   W12
 BYTE   Ds2  v080
 BYTE   W05
 BYTE   BEND   c_v-6
 BYTE   W05
 BYTE   BEND   c_v-11
 BYTE   W02
//  #01 //044   ----------------------------------------
 BYTE   BEND   c_v+0
 BYTE   N12  Dn1  v102
 BYTE   W12
 BYTE   Dn2  v077
 BYTE   W12
 BYTE   Dn1  v097
 BYTE   W12
 BYTE   Dn2  v074
 BYTE   W12
 BYTE   Dn1  v095
 BYTE   W12
 BYTE   Dn2  v080
 BYTE   W12
 BYTE   Dn1  v101
 BYTE   W12
 BYTE   Dn2  v077
 BYTE   W12
//  #01 //045   ----------------------------------------
 BYTE   Cs1  v096
 BYTE   W12
 BYTE   Cs2  v074
 BYTE   W12
 BYTE   Cs1  v097
 BYTE   W12
 BYTE   Cs2  v078
 BYTE   W12
 BYTE   Cs1  v097
 BYTE   W12
 BYTE   Cs2  v080
 BYTE   W12
 BYTE   Cs1  v096
 BYTE   W12
 BYTE   Cs2  v073
 BYTE   W05
 BYTE   BEND   c_v+5
 BYTE   W03
 BYTE   BEND   c_v+10
 BYTE   W02
 BYTE   BEND   c_v+16
 BYTE   W02
//  #01 //046   ----------------------------------------
 BYTE   BEND   c_v+0
 BYTE   N12  Fn1  v101
 BYTE   W12
 BYTE   Fn2  v073
 BYTE   W12
 BYTE   Fn1  v101
 BYTE   W12
 BYTE   Fn2  v079
 BYTE   W12
 BYTE   Fn1  v100
 BYTE   W12
 BYTE   Fn2  v074
 BYTE   W12
 BYTE   Fn1  v095
 BYTE   W12
 BYTE   Fn2  v080
 BYTE   W05
 BYTE   BEND   c_v-6
 BYTE   W05
 BYTE   BEND   c_v-11
 BYTE   W02
//  #01 //047   ----------------------------------------
 BYTE   BEND   c_v+0
 BYTE   N12  Ds1  v097
 BYTE   W12
 BYTE   Ds2  v075
 BYTE   W12
 BYTE   Ds1  v099
 BYTE   W12
 BYTE   Ds2  v079
 BYTE   W12
 BYTE   Ds1  v099
 BYTE   W12
 BYTE   Ds2  v080
 BYTE   W12
 BYTE   Ds1  v097
 BYTE   W12
 BYTE   Ds2  v080
 BYTE   W05
 BYTE   BEND   c_v-6
 BYTE   W05
 BYTE   BEND   c_v-11
 BYTE   W02
//  #01 //048   ----------------------------------------
 BYTE   BEND   c_v+0
 BYTE   N12  Dn1  v097
 BYTE   W12
 BYTE   Dn2  v075
 BYTE   W12
 BYTE   Dn1  v102
 BYTE   W12
 BYTE   Dn2  v078
 BYTE   W12
 BYTE   Dn1  v097
 BYTE   W12
 BYTE   Dn2  v073
 BYTE   W12
 BYTE   Dn1  v095
 BYTE   W12
 BYTE   Dn2  v074
 BYTE   W12
//  #01 //049   ----------------------------------------
 BYTE   Cs1  v099
 BYTE   W12
 BYTE   Cs2  v080
 BYTE   W12
 BYTE   Cs1  v102
 BYTE   W12
 BYTE   Cs2  v080
 BYTE   W12
 BYTE   Cs1  v096
 BYTE   W12
 BYTE   Cs2  v073
 BYTE   W12
 BYTE   Cs1  v095
 BYTE   W12
 BYTE   Cs2  v077
 BYTE   W05
 BYTE   BEND   c_v+5
 BYTE   W03
 BYTE   BEND   c_v+10
 BYTE   W02
 BYTE   BEND   c_v+16
 BYTE   W02
//  #01 //050   ----------------------------------------
 BYTE   BEND   c_v+0
 BYTE   N12  Fn1  v101
 BYTE   W12
 BYTE   Fn2  v079
 BYTE   W12
 BYTE   Fn1  v095
 BYTE   W12
 BYTE   Fn2  v075
 BYTE   W12
 BYTE   Fn1  v097
 BYTE   W12
 BYTE   Fn2  v078
 BYTE   W12
 BYTE   Fn1  v100
 BYTE   W12
 BYTE   Fn2  v079
 BYTE   W05
 BYTE   BEND   c_v-6
 BYTE   W05
 BYTE   BEND   c_v-11
 BYTE   W02
//  #01 //051   ----------------------------------------
 BYTE   BEND   c_v+0
 BYTE   N12  Ds1  v096
 BYTE   W12
 BYTE   Ds2  v080
 BYTE   W12
 BYTE   Ds1  v102
 BYTE   W12
 BYTE   Ds2  v079
 BYTE   W12
 BYTE   Ds1  v101
 BYTE   W12
 BYTE   Ds2  v078
 BYTE   W12
 BYTE   Ds1  v097
 BYTE   W12
 BYTE   Ds2  v078
 BYTE   W05
 BYTE   BEND   c_v-6
 BYTE   W05
 BYTE   BEND   c_v-11
 BYTE   W02
//  #01 //052   ----------------------------------------
 BYTE   BEND   c_v+0
 BYTE   N12  Dn1  v096
 BYTE   W12
 BYTE   Dn2  v079
 BYTE   W12
 BYTE   Dn1  v101
 BYTE   W12
 BYTE   Dn2  v078
 BYTE   W12
 BYTE   Cs1  v097
 BYTE   W12
 BYTE   Cs2  v073
 BYTE   W12
 BYTE   Cs1  v097
 BYTE   W12
 BYTE   Cs2  v073
 BYTE   W12
//  #01 //053   ----------------------------------------
 BYTE   Cn1  v101
 BYTE   W12
 BYTE   Cn2  v075
 BYTE   W12
 BYTE   Cn1  v097
 BYTE   W12
 BYTE   Cn2  v073
 BYTE   W12
 BYTE   Cn1  v095
 BYTE   W12
 BYTE   Cn2  v080
 BYTE   W12
 BYTE   Cn1  v099
 BYTE   W12
 BYTE   Cn2  v079
 BYTE   W12
//  #01 //054   ----------------------------------------
 BYTE   GoTo
  POIN2 Label_012B7E0E
//  #01 //055   ----------------------------------------
 BYTE   W10
 BYTE   FINE

//**************** Track 2 (Midi-Chn.1) ****************//

EienNoIczer_002:
//  #02 //000   ----------------------------------------
 BYTE   KEYSH   EienNoIczer_key+0
 BYTE   VOICE   26
 BYTE   BENDR  12
 BYTE   VOL   11*EienNoIczer_mvl/mxv
 BYTE   PAN   c_v+44
 BYTE   BEND   c_v-6
 BYTE   N17  Cn2  v092
 BYTE   N17  Fn2
 BYTE   N18  Cn3  v093
 BYTE   W04
 BYTE   BEND   c_v+0
 BYTE   W14
 BYTE   N06  Cn3  v091
 BYTE   N06  Fn2
 BYTE   N06  Cn2  v093
 BYTE   W06
 BYTE   N01  Cn2  v091
 BYTE   N01  Fn2  v088
 BYTE   W24
 BYTE   N04  Cn2  v090
 BYTE   N04  Fn2  v093
 BYTE   N05  Cn3
 BYTE   W18
 BYTE   N04  Cn3  v088
 BYTE   N04  Fn2
 BYTE   N05  Cn2  v093
 BYTE   W30
//  #02 //001   ----------------------------------------
 BYTE   BEND   c_v-6
 BYTE   N17  Cn2  v092
 BYTE   N17  Ds2  v088
 BYTE   N18  Cn3  v091
 BYTE   W04
 BYTE   BEND   c_v+0
 BYTE   W14
 BYTE   N06
 BYTE   N06  Ds2  v092
 BYTE   N06  Cn2  v089
 BYTE   W06
 BYTE   N01  Cn2  v092
 BYTE   N01  Ds2  v093
 BYTE   W24
 BYTE   N04  Cn2  v088
 BYTE   N04  Ds2  v090
 BYTE   N05  Cn3
 BYTE   W18
 BYTE   N04  Cn3  v088
 BYTE   N04  Ds2  v087
 BYTE   N05  Cn2
 BYTE   W30
//  #02 //002   ----------------------------------------
 BYTE   BEND   c_v-6
 BYTE   N17  Cn2  v093
 BYTE   N17  Fn2  v092
 BYTE   N18  Cn3  v093
 BYTE   W04
 BYTE   BEND   c_v+0
 BYTE   W14
 BYTE   N06  Cn3  v092
 BYTE   N06  Fn2
 BYTE   N06  Cn2  v091
 BYTE   W06
 BYTE   N01  Cn2  v087
 BYTE   N01  Fn2  v090
 BYTE   W24
 BYTE   N04  Cn2  v093
 BYTE   N04  Fn2  v092
 BYTE   N05  Cn3  v090
 BYTE   W18
 BYTE   N04  Cn3  v093
 BYTE   N04  Fn2  v092
 BYTE   N05  Cn2  v089
 BYTE   W30
//  #02 //003   ----------------------------------------
 BYTE   BEND   c_v-6
 BYTE   N17  Cs2  v090
 BYTE   N17  Fn2  v091
 BYTE   N18  Cn3  v088
 BYTE   W04
 BYTE   BEND   c_v+0
 BYTE   W14
 BYTE   N06  Cn3  v093
 BYTE   N06  Fn2  v092
 BYTE   N06  Cs2  v088
 BYTE   W06
 BYTE   N01  Cs2  v089
 BYTE   N01  Fn2
 BYTE   W24
 BYTE   N04  Cs2
 BYTE   N04  Fn2  v087
 BYTE   N05  Cn3
 BYTE   W18
 BYTE   N04
 BYTE   N04  Fn2  v091
 BYTE   N05  Cs2  v092
 BYTE   W30
//  #02 //004   ----------------------------------------
 BYTE   BEND   c_v-6
 BYTE   N17  Fn2  v090
 BYTE   N17  Gs2  v092
 BYTE   N18  Cn3  v089
 BYTE   W04
 BYTE   BEND   c_v+0
 BYTE   W14
 BYTE   N06  Cn3  v093
 BYTE   N06  Gs2  v091
 BYTE   N06  Fn2  v093
 BYTE   W06
 BYTE   N01
 BYTE   N01  Gs2  v091
 BYTE   W24
 BYTE   N04  Fn2  v089
 BYTE   N04  Gs2  v091
 BYTE   N05  Cn3  v093
 BYTE   W18
 BYTE   N04  Cn3  v091
 BYTE   N04  Gs2  v088
 BYTE   N05  Fn2  v087
 BYTE   W30
//  #02 //005   ----------------------------------------
 BYTE   BEND   c_v-6
 BYTE   N17  Ds2  v092
 BYTE   N17  Gs2  v088
 BYTE   N18  Cn3  v092
 BYTE   W04
 BYTE   BEND   c_v+0
 BYTE   W14
 BYTE   N06  Cn3  v093
 BYTE   N06  Gs2  v087
 BYTE   N06  Ds2  v088
 BYTE   W06
 BYTE   N01
 BYTE   N01  Gs2
 BYTE   W24
 BYTE   N04  Ds2
 BYTE   N04  Gs2  v090
 BYTE   N05  Cn3  v091
 BYTE   W18
 BYTE   N04  Cn3  v089
 BYTE   N04  Gs2  v093
 BYTE   N05  Ds2  v091
 BYTE   W30
//  #02 //006   ----------------------------------------
 BYTE   BEND   c_v-6
 BYTE   N17  Dn2  v089
 BYTE   N17  Gs2  v087
 BYTE   N18  Cn3  v091
 BYTE   W04
 BYTE   BEND   c_v+0
 BYTE   W14
 BYTE   N06  Cn3  v087
 BYTE   N06  Gs2  v088
 BYTE   N06  Dn2  v087
 BYTE   W06
 BYTE   N01  Dn2  v088
 BYTE   N01  Gs2
 BYTE   W24
 BYTE   N04  Cs2  v090
 BYTE   N04  Gs2  v092
 BYTE   N05  Cn3  v090
 BYTE   W18
 BYTE   N04  Cn3  v088
 BYTE   N04  Gs2  v091
 BYTE   N05  Cs2  v088
 BYTE   W30
//  #02 //007   ----------------------------------------
 BYTE   BEND   c_v-6
 BYTE   N17  Cn2  v089
 BYTE   N17  En2  v093
 BYTE   N18  Cn3  v092
 BYTE   W04
 BYTE   BEND   c_v+0
 BYTE   W14
 BYTE   N06
 BYTE   N06  En2  v088
 BYTE   N06  Cn2
 BYTE   W06
 BYTE   N01  Gn1
 BYTE   N01  Cn2  v089
 BYTE   W24
 BYTE   N04  Cn2  v092
 BYTE   N04  En2  v087
 BYTE   N05  Cn3  v092
 BYTE   W18
 BYTE   N04  Cn3  v090
 BYTE   N04  En2  v092
 BYTE   N05  Cn2  v090
 BYTE   W30
//  #02 //008   ----------------------------------------
Label_012B849D:
 BYTE   BEND   c_v-6
 BYTE   N17  Fn2  v092
 BYTE   N17  Gs2
 BYTE   N18  Cn3  v093
 BYTE   W04
 BYTE   BEND   c_v+0
 BYTE   W14
 BYTE   N06  Cn3  v090
 BYTE   N06  Gs2  v089
 BYTE   N06  Fn2  v088
 BYTE   W06
 BYTE   N01  Fn2  v092
 BYTE   N01  Gs2
 BYTE   W24
 BYTE   N04  Fn2  v091
 BYTE   N04  Gs2  v087
 BYTE   N05  Cn3
 BYTE   W18
 BYTE   N04  Cn3  v091
 BYTE   N04  Gs2  v090
 BYTE   N05  Fn2  v087
 BYTE   W30
//  #02 //009   ----------------------------------------
 BYTE   BEND   c_v-6
 BYTE   N17
 BYTE   N17  Gs2  v088
 BYTE   N18  Cn3  v090
 BYTE   W04
 BYTE   BEND   c_v+0
 BYTE   W14
 BYTE   N06  Cn3  v092
 BYTE   N06  Gs2  v088
 BYTE   N06  Fn2  v090
 BYTE   W06
 BYTE   N01  Fn2  v093
 BYTE   N01  Gs2  v087
 BYTE   W24
 BYTE   N04  Fn2  v091
 BYTE   N04  Gs2  v089
 BYTE   N05  Cn3  v090
 BYTE   W18
 BYTE   N04
 BYTE   N04  Gs2  v091
 BYTE   N05  Fn2  v088
 BYTE   W30
//  #02 //010   ----------------------------------------
 BYTE   BEND   c_v-6
 BYTE   N17  Ds2  v090
 BYTE   N17  Gn2  v093
 BYTE   N18  Cn3  v088
 BYTE   W04
 BYTE   BEND   c_v+0
 BYTE   W14
 BYTE   N06  Cn3  v091
 BYTE   N06  Gn2  v092
 BYTE   N06  Ds2  v088
 BYTE   W06
 BYTE   N01  Ds2  v091
 BYTE   N01  Gn2  v087
 BYTE   W24
 BYTE   N04  Ds2  v091
 BYTE   N04  Gn2  v088
 BYTE   N05  Cn3  v087
 BYTE   W18
 BYTE   N04  Cn3  v092
 BYTE   N04  Gn2  v087
 BYTE   N05  Ds2  v088
 BYTE   W30
//  #02 //011   ----------------------------------------
 BYTE   BEND   c_v-6
 BYTE   N17  Ds2  v091
 BYTE   N17  Gn2  v089
 BYTE   N18  Cn3  v092
 BYTE   W04
 BYTE   BEND   c_v+0
 BYTE   W14
 BYTE   N06  Cn3  v090
 BYTE   N06  Gn2  v091
 BYTE   N06  Ds2  v087
 BYTE   W06
 BYTE   N01  Ds2  v093
 BYTE   N01  Gn2  v089
 BYTE   W24
 BYTE   BEND   c_v-6
 BYTE   N17  Ds2  v087
 BYTE   N17  Gn2  v090
 BYTE   N18  Cn3  v089
 BYTE   W04
 BYTE   BEND   c_v+0
 BYTE   W14
 BYTE   N06
 BYTE   N06  Gn2  v090
 BYTE   N06  Ds2
 BYTE   W06
 BYTE   N01  Ds2  v087
 BYTE   N01  Gn2  v091
 BYTE   W24
//  #02 //012   ----------------------------------------
 BYTE   BEND   c_v-6
 BYTE   N17  Fn2  v087
 BYTE   N17  Gs2  v093
 BYTE   N18  Cs3  v089
 BYTE   W04
 BYTE   BEND   c_v+0
 BYTE   W14
 BYTE   N06
 BYTE   N06  Gs2  v091
 BYTE   N06  Fn2  v092
 BYTE   W06
 BYTE   N01  Fn2  v090
 BYTE   N01  Gs2
 BYTE   W24
 BYTE   N04  Fn2
 BYTE   N04  Gs2  v091
 BYTE   N05  Cs3  v090
 BYTE   W18
 BYTE   N04  Cs3  v088
 BYTE   N04  Gs2
 BYTE   N05  Fn2  v087
 BYTE   W18
 BYTE   BEND   c_v-6
 BYTE   N36  Fn2  v089
 BYTE   N32  Gs2  v089  gtp3
 BYTE   N36  Cs3  v090
 BYTE   W04
 BYTE   BEND   c_v+0
 BYTE   W08
//  #02 //013   ----------------------------------------
 BYTE   W24
 BYTE   N06  Cs3  v087
 BYTE   N06  Gs2  v091
 BYTE   N06  Fn2  v090
 BYTE   W24
 BYTE   N04
 BYTE   N04  Gs2  v091
 BYTE   N05  Cs3  v090
 BYTE   W18
 BYTE   N04  Cs3  v088
 BYTE   N04  Gs2  v087
 BYTE   N05  Fn2  v089
 BYTE   W30
//  #02 //014   ----------------------------------------
 BYTE   BEND   c_v-6
 BYTE   N17  Gn2  v091
 BYTE   N18  Cn3
 BYTE   W04
 BYTE   BEND   c_v+0
 BYTE   W14
 BYTE   N06  Cn3  v088
 BYTE   N06  Gn2  v091
 BYTE   W06
 BYTE   N01  Gn2  v090
 BYTE   W24
 BYTE   N04  Gn2  v091
 BYTE   N05  Cn3  v088
 BYTE   W18
 BYTE   N04  Cn3  v090
 BYTE   N04  Gn2  v087
 BYTE   W30
//  #02 //015   ----------------------------------------
 BYTE   BEND   c_v-6
 BYTE   N17  Gn2  v088
 BYTE   N18  Cn3  v093
 BYTE   W04
 BYTE   BEND   c_v+0
 BYTE   W14
 BYTE   N06  Cn3  v092
 BYTE   N06  Gn2
 BYTE   W06
 BYTE   N01  Gn2  v090
 BYTE   W24
 BYTE   N04  Gn2  v089
 BYTE   N05  Cn3  v090
 BYTE   W18
 BYTE   N04  Cn3  v093
 BYTE   N04  Gn2  v092
 BYTE   W30
//  #02 //016   ----------------------------------------
 BYTE   BEND   c_v-6
 BYTE   N17  Fn2  v089
 BYTE   N17  Gs2  v090
 BYTE   N18  Cn3  v093
 BYTE   W04
 BYTE   BEND   c_v+0
 BYTE   W14
 BYTE   N06  Cn3  v090
 BYTE   N06  Gs2  v089
 BYTE   N06  Fn2  v093
 BYTE   W06
 BYTE   N01  Fn2  v091
 BYTE   N01  Gs2  v087
 BYTE   W24
 BYTE   N04  Fn2  v089
 BYTE   N04  Gs2
 BYTE   N05  Cn3  v088
 BYTE   W18
 BYTE   N04  Cn3  v092
 BYTE   N04  Gs2
 BYTE   N05  Fn2  v089
 BYTE   W30
//  #02 //017   ----------------------------------------
 BYTE   BEND   c_v-6
 BYTE   N17  Fn2  v090
 BYTE   N17  Gs2  v087
 BYTE   N18  Cn3  v091
 BYTE   W04
 BYTE   BEND   c_v+0
 BYTE   W14
 BYTE   N06  Cn3  v089
 BYTE   N06  Gs2  v088
 BYTE   N06  Fn2  v089
 BYTE   W06
 BYTE   N01  Fn2  v087
 BYTE   N01  Gs2
 BYTE   W24
 BYTE   N04  Fn2
 BYTE   N04  Gs2  v091
 BYTE   N05  Cn3  v088
 BYTE   W18
 BYTE   N04  Cn3  v090
 BYTE   N04  Gs2  v088
 BYTE   N05  Fn2  v089
 BYTE   W30
//  #02 //018   ----------------------------------------
 BYTE   BEND   c_v-6
 BYTE   N17  Ds2  v092
 BYTE   N17  Gn2  v087
 BYTE   N18  Cn3
 BYTE   W04
 BYTE   BEND   c_v+0
 BYTE   W14
 BYTE   N06  Cn3  v090
 BYTE   N06  Gn2  v093
 BYTE   N06  Ds2  v087
 BYTE   W06
 BYTE   N01  Ds2  v092
 BYTE   N01  Gn2
 BYTE   W24
 BYTE   N04  Ds2  v091
 BYTE   N04  Gn2  v087
 BYTE   N05  Cn3  v090
 BYTE   W18
 BYTE   N04  Cn3  v092
 BYTE   N04  Gn2  v090
 BYTE   N05  Ds2  v092
 BYTE   W30
//  #02 //019   ----------------------------------------
 BYTE   BEND   c_v-6
 BYTE   N17  Ds2  v091
 BYTE   N17  Gn2  v089
 BYTE   N18  Cn3  v093
 BYTE   W04
 BYTE   BEND   c_v+0
 BYTE   W14
 BYTE   N06  Cn3  v089
 BYTE   N06  Gn2  v093
 BYTE   N06  Ds2  v090
 BYTE   W06
 BYTE   N01  Ds2  v091
 BYTE   N01  Gn2  v093
 BYTE   W24
 BYTE   N04  Ds2  v092
 BYTE   N04  Gn2  v089
 BYTE   N05  Cn3  v088
 BYTE   W18
 BYTE   N04  Cn3  v087
 BYTE   N04  Gn2  v092
 BYTE   N05  Ds2
 BYTE   W30
//  #02 //020   ----------------------------------------
 BYTE   N24  Cs2  v090
 BYTE   N24  Fn2  v093
 BYTE   N24  Gs2  v090
 BYTE   W24
 BYTE   N02  Cs2  v093
 BYTE   N02  Fn2  v090
 BYTE   N03  Gs2  v089
 BYTE   W24
 BYTE   N11  Cs2  v088
 BYTE   N11  Fn2
 BYTE   N12  Gs2  v087
 BYTE   W12
 BYTE   N11  Gs2  v093
 BYTE   N11  Fn2  v089
 BYTE   N12  Cs2  v092
 BYTE   W12
 BYTE   N01
 BYTE   N01  Fn2  v093
 BYTE   W12
 BYTE   N36  As2  v087
 BYTE   N32  Gn2  v089  gtp3
 BYTE   N36  Ds2  v092
 BYTE   W12
//  #02 //021   ----------------------------------------
 BYTE   W24
 BYTE   N06  Ds2  v090
 BYTE   N06  Gn2  v092
 BYTE   N06  As2  v088
 BYTE   W24
 BYTE   N01  Ds2  v087
 BYTE   N01  Gn2
 BYTE   W12
 BYTE   N11  As2  v089
 BYTE   N11  Gn2  v088
 BYTE   N12  Ds2  v093
 BYTE   W36
//  #02 //022   ----------------------------------------
 BYTE   N24  Cn2  v087
 BYTE   N24  Ds2  v089
 BYTE   N24  Gs2
 BYTE   W24
 BYTE   N02  Cn2  v087
 BYTE   N02  Ds2  v092
 BYTE   N03  Gs2  v088
 BYTE   W24
 BYTE   N01  Cn2  v093
 BYTE   N01  Ds2  v091
 BYTE   W12
 BYTE   N11  Gs2  v092
 BYTE   N11  Ds2  v089
 BYTE   N12  Cn2  v090
 BYTE   W12
 BYTE   N01  Cn2  v087
 BYTE   N01  Ds2  v091
 BYTE   W12
 BYTE   N72  Gn2  v093
 BYTE   N60  En2  v088
 BYTE   N60  Cn2
 BYTE   W12
//  #02 //023   ----------------------------------------
 BYTE   W48
 BYTE   N12  Cn2  v070
 BYTE   N12  En2  v072
 BYTE   W12
 BYTE   N36  Cn2  v083
 BYTE   N32  En2  v082  gtp3
 BYTE   N36  Gn2  v079
 BYTE   W36
//  #02 //024   ----------------------------------------
 BYTE   W96
//  #02 //025   ----------------------------------------
 BYTE   W96
//  #02 //026   ----------------------------------------
 BYTE   W96
//  #02 //027   ----------------------------------------
 BYTE   W96
//  #02 //028   ----------------------------------------
 BYTE   W96
//  #02 //029   ----------------------------------------
 BYTE   W96
//  #02 //030   ----------------------------------------
 BYTE   W96
//  #02 //031   ----------------------------------------
 BYTE   W96
//  #02 //032   ----------------------------------------
 BYTE   W96
//  #02 //033   ----------------------------------------
 BYTE   W96
//  #02 //034   ----------------------------------------
 BYTE   W96
//  #02 //035   ----------------------------------------
 BYTE   W96
//  #02 //036   ----------------------------------------
 BYTE   W96
//  #02 //037   ----------------------------------------
 BYTE   W96
//  #02 //038   ----------------------------------------
 BYTE   W96
//  #02 //039   ----------------------------------------
 BYTE   W96
//  #02 //040   ----------------------------------------
 BYTE   W96
//  #02 //041   ----------------------------------------
 BYTE   W96
//  #02 //042   ----------------------------------------
 BYTE   BEND   c_v-6
 BYTE   N17  Cn2  v092
 BYTE   N17  Fn2
 BYTE   N18  Cn3  v093
 BYTE   W04
 BYTE   BEND   c_v+0
 BYTE   W14
 BYTE   N06  Cn3  v087
 BYTE   N06  Fn2  v092
 BYTE   N06  Cn2  v087
 BYTE   W06
 BYTE   N01  Cn2  v090
 BYTE   N01  Fn2  v087
 BYTE   W24
 BYTE   N04  Cn2  v093
 BYTE   N04  Fn2  v089
 BYTE   N05  Cn3  v092
 BYTE   W18
 BYTE   N04  Cn3  v093
 BYTE   N04  Fn2  v087
 BYTE   N05  Cn2  v090
 BYTE   W30
//  #02 //043   ----------------------------------------
 BYTE   BEND   c_v-6
 BYTE   N17  Cn2  v092
 BYTE   N17  Ds2  v089
 BYTE   N18  Cn3  v090
 BYTE   W04
 BYTE   BEND   c_v+0
 BYTE   W14
 BYTE   N06  Cn3  v091
 BYTE   N06  Ds2  v087
 BYTE   N06  Cn2  v090
 BYTE   W06
 BYTE   N01  Cn2  v087
 BYTE   N01  Ds2
 BYTE   W24
 BYTE   N04  Cn2  v089
 BYTE   N04  Ds2  v091
 BYTE   N05  Cn3  v088
 BYTE   W18
 BYTE   N04  Cn3  v087
 BYTE   N04  Ds2  v088
 BYTE   N05  Cn2  v091
 BYTE   W30
//  #02 //044   ----------------------------------------
 BYTE   BEND   c_v-6
 BYTE   N17  Cn2  v087
 BYTE   N17  Fn2  v093
 BYTE   N18  Cn3  v087
 BYTE   W04
 BYTE   BEND   c_v+0
 BYTE   W14
 BYTE   N06  Cn3  v092
 BYTE   N06  Fn2  v087
 BYTE   N06  Cn2  v088
 BYTE   W06
 BYTE   N01  Cn2  v087
 BYTE   N01  Fn2
 BYTE   W24
 BYTE   N04  Cn2  v089
 BYTE   N04  Fn2
 BYTE   N05  Cn3  v093
 BYTE   W18
 BYTE   N04  Cn3  v091
 BYTE   N04  Fn2  v092
 BYTE   N05  Cn2  v087
 BYTE   W30
//  #02 //045   ----------------------------------------
 BYTE   BEND   c_v-6
 BYTE   N17  Cs2  v088
 BYTE   N17  Fn2  v091
 BYTE   N18  Cn3
 BYTE   W04
 BYTE   BEND   c_v+0
 BYTE   W14
 BYTE   N06  Cn3  v090
 BYTE   N06  Fn2
 BYTE   N06  Cs2  v089
 BYTE   W06
 BYTE   N01  Cs2  v092
 BYTE   N01  Fn2  v093
 BYTE   W24
 BYTE   N04  Cs2
 BYTE   N04  Fn2  v089
 BYTE   N05  Cn3  v093
 BYTE   W18
 BYTE   N04  Cn3  v091
 BYTE   N04  Fn2
 BYTE   N05  Cs2  v087
 BYTE   W30
//  #02 //046   ----------------------------------------
 BYTE   BEND   c_v-6
 BYTE   N17  Cn2  v093
 BYTE   N17  Fn2  v090
 BYTE   N18  Cn3  v087
 BYTE   W04
 BYTE   BEND   c_v+0
 BYTE   W14
 BYTE   N06
 BYTE   N06  Fn2  v089
 BYTE   N06  Cn2
 BYTE   W06
 BYTE   N01  Cn2  v088
 BYTE   N01  Fn2  v093
 BYTE   W24
 BYTE   N04  Cn2  v089
 BYTE   N04  Fn2  v087
 BYTE   N05  Cn3
 BYTE   W18
 BYTE   N04  Cn3  v088
 BYTE   N04  Fn2  v087
 BYTE   N05  Cn2  v090
 BYTE   W30
//  #02 //047   ----------------------------------------
 BYTE   BEND   c_v-6
 BYTE   N17
 BYTE   N17  Ds2  v087
 BYTE   N18  Cn3
 BYTE   W04
 BYTE   BEND   c_v+0
 BYTE   W14
 BYTE   N06  Cn3  v091
 BYTE   N06  Ds2  v089
 BYTE   N06  Cn2
 BYTE   W06
 BYTE   N01  Cn2  v092
 BYTE   N01  Ds2
 BYTE   W24
 BYTE   N04  Cn2
 BYTE   N04  Ds2
 BYTE   N05  Cn3  v093
 BYTE   W18
 BYTE   N04  Cn3  v091
 BYTE   N04  Ds2  v092
 BYTE   N05  Cn2  v087
 BYTE   W30
//  #02 //048   ----------------------------------------
 BYTE   BEND   c_v-6
 BYTE   N17  Cn2  v091
 BYTE   N17  Fn2  v090
 BYTE   N18  Cn3  v093
 BYTE   W04
 BYTE   BEND   c_v+0
 BYTE   W14
 BYTE   N06  Cn3  v087
 BYTE   N06  Fn2  v088
 BYTE   N06  Cn2
 BYTE   W06
 BYTE   N01  Cn2  v093
 BYTE   N01  Fn2  v087
 BYTE   W24
 BYTE   N04  Cn2  v089
 BYTE   N04  Fn2  v090
 BYTE   N05  Cn3  v089
 BYTE   W18
 BYTE   N04  Cn3  v087
 BYTE   N04  Fn2
 BYTE   N05  Cn2  v093
 BYTE   W30
//  #02 //049   ----------------------------------------
 BYTE   BEND   c_v-6
 BYTE   N17  Cs2  v088
 BYTE   N17  Fn2  v089
 BYTE   N18  Cn3  v092
 BYTE   W04
 BYTE   BEND   c_v+0
 BYTE   W14
 BYTE   N06  Cn3  v093
 BYTE   N06  Fn2  v088
 BYTE   N06  Cs2  v089
 BYTE   W06
 BYTE   N01  Cs2  v093
 BYTE   N01  Fn2  v089
 BYTE   W24
 BYTE   N04  Cs2  v092
 BYTE   N04  Fn2
 BYTE   N05  Cn3  v093
 BYTE   W18
 BYTE   N04  Cn3  v089
 BYTE   N04  Fn2
 BYTE   N05  Cs2  v093
 BYTE   W30
//  #02 //050   ----------------------------------------
 BYTE   BEND   c_v-6
 BYTE   N17  Fn2  v091
 BYTE   N17  Gs2  v093
 BYTE   N18  Cn3  v092
 BYTE   W04
 BYTE   BEND   c_v+0
 BYTE   W14
 BYTE   N06  Cn3  v091
 BYTE   N06  Gs2  v090
 BYTE   N06  Fn2  v091
 BYTE   W06
 BYTE   N01  Fn2  v087
 BYTE   N01  Gs2  v089
 BYTE   W24
 BYTE   N04  Fn2  v090
 BYTE   N04  Gs2  v088
 BYTE   N05  Cn3  v090
 BYTE   W18
 BYTE   N04  Cn3  v087
 BYTE   N04  Gs2  v092
 BYTE   N05  Fn2  v088
 BYTE   W30
//  #02 //051   ----------------------------------------
 BYTE   BEND   c_v-6
 BYTE   N17  Ds2  v090
 BYTE   N17  Gs2  v091
 BYTE   N18  Cn3
 BYTE   W04
 BYTE   BEND   c_v+0
 BYTE   W14
 BYTE   N06  Cn3  v089
 BYTE   N06  Gs2  v093
 BYTE   N06  Ds2
 BYTE   W06
 BYTE   N01  Ds2  v091
 BYTE   N01  Gs2  v087
 BYTE   W24
 BYTE   N04  Ds2  v093
 BYTE   N04  Gs2
 BYTE   N05  Cn3  v092
 BYTE   W18
 BYTE   N04  Cn3  v087
 BYTE   N04  Gs2  v091
 BYTE   N05  Ds2  v087
 BYTE   W30
//  #02 //052   ----------------------------------------
 BYTE   BEND   c_v-6
 BYTE   N17  Dn2  v092
 BYTE   N17  Gs2  v087
 BYTE   N18  Cn3  v089
 BYTE   W04
 BYTE   BEND   c_v+0
 BYTE   W14
 BYTE   N06  Cn3  v093
 BYTE   N06  Gs2  v092
 BYTE   N06  Dn2
 BYTE   W06
 BYTE   N01
 BYTE   N01  Gs2  v090
 BYTE   W24
 BYTE   N04  Cs2  v089
 BYTE   N04  Gs2  v093
 BYTE   N05  Cn3  v092
 BYTE   W18
 BYTE   N04
 BYTE   N04  Gs2  v088
 BYTE   N05  Cs2  v087
 BYTE   W30
//  #02 //053   ----------------------------------------
 BYTE   BEND   c_v-6
 BYTE   N17  Cn2  v093
 BYTE   N17  En2  v090
 BYTE   N18  Cn3  v089
 BYTE   W04
 BYTE   BEND   c_v+0
 BYTE   W14
 BYTE   N06  Cn3  v087
 BYTE   N06  En2
 BYTE   N06  Cn2  v092
 BYTE   W06
 BYTE   N01  Gn1  v089
 BYTE   N01  Cn2  v087
 BYTE   W24
 BYTE   N04  Cn2  v088
 BYTE   N04  En2  v089
 BYTE   N05  Cn3  v091
 BYTE   W18
 BYTE   N04  Cn3  v088
 BYTE   N04  En2  v093
 BYTE   N05  Cn2  v088
 BYTE   W30
//  #02 //054   ----------------------------------------
 BYTE   BEND   c_v-6
 BYTE   GoTo
  POIN2 Label_012B849D
//  #02 //055   ----------------------------------------
 BYTE   W10
 BYTE   FINE

//**************** Track 3 (Midi-Chn.2) ****************//

EienNoIczer_003:
//  #03 //000   ----------------------------------------
 BYTE   KEYSH   EienNoIczer_key+0
 BYTE   VOICE   56
 BYTE   BENDR  12
 BYTE   PAN   c_v-16
 BYTE   VOL   54*EienNoIczer_mvl/mxv
 BYTE   N03  Fn3  v127
 BYTE   N06  Fn4  v063
 BYTE   W12
 BYTE   N04  Gs3  v127
 BYTE   N06  Gs4  v063
 BYTE   W12
 BYTE   N03  Gn3  v127
 BYTE   N06  Gn4  v063
 BYTE   W12
 BYTE   N04  Gs3  v127
 BYTE   N06  Gs4  v063
 BYTE   W06
 BYTE   N04  Fn3  v127
 BYTE   N06  Fn4  v063
 BYTE   W54
//  #03 //001   ----------------------------------------
 BYTE   N03  Fn3  v127
 BYTE   N06  Fn4  v063
 BYTE   W12
 BYTE   N04  Gs3  v127
 BYTE   N06  Gs4  v063
 BYTE   W12
 BYTE   N03  Gn3  v127
 BYTE   N06  Gn4  v063
 BYTE   W12
 BYTE   N04  Gs3  v127
 BYTE   N06  Gs4  v063
 BYTE   W06
 BYTE   N04  Fn3  v127
 BYTE   N06  Fn4  v063
 BYTE   W54
//  #03 //002   ----------------------------------------
 BYTE   N03  Fn3  v127
 BYTE   N06  Fn4  v063
 BYTE   W12
 BYTE   N04  Gs3  v127
 BYTE   N06  Gs4  v063
 BYTE   W12
 BYTE   N03  Gn3  v127
 BYTE   N06  Gn4  v063
 BYTE   W12
 BYTE   N04  Gs3  v127
 BYTE   N06  Gs4  v063
 BYTE   W06
 BYTE   N03  Fn3  v127
 BYTE   N06  Fn4  v063
 BYTE   W12
 BYTE   N04  Fn3  v127
 BYTE   N06  Fn4  v063
 BYTE   W06
 BYTE   N04  Gn3  v127
 BYTE   N06  Gn4  v063
 BYTE   W12
 BYTE   N04  Gs3  v127
 BYTE   N06  Gs4  v063
 BYTE   W12
 BYTE   N04  As3  v127
 BYTE   N06  As4  v063
 BYTE   W12
//  #03 //003   ----------------------------------------
 BYTE   N04  Fn3  v112
 BYTE   N03  Cn4  v127
 BYTE   N06  Cn5  v063
 BYTE   W12
 BYTE   N03  Fn3  v112
 BYTE   N04  Cn4  v127
 BYTE   N06  Cn5  v063
 BYTE   W12
 BYTE   N04  Fn3  v115
 BYTE   N03  Cn4  v127
 BYTE   N06  Cn5  v063
 BYTE   W12
 BYTE   N03  Ds3  v115
 BYTE   N04  As3  v127
 BYTE   N06  As4  v063
 BYTE   W06
 BYTE   N04  Fn3  v114
 BYTE   N04  Cn4  v127
 BYTE   N06  Cn5  v063
 BYTE   W54
//  #03 //004   ----------------------------------------
Label_012B8AA1:
 BYTE   N04  Fn4  v127
 BYTE   N06  Fn5  v063
 BYTE   W12
 BYTE   N05  Gs4  v127
 BYTE   N06  Gs5  v063
 BYTE   W12
 BYTE   N04  Gn4  v127
 BYTE   N06  Gn5  v063
 BYTE   W12
 BYTE   N05  Gs4  v127
 BYTE   N06  Gs5  v063
 BYTE   W06
 BYTE   N05  Fn4  v127
 BYTE   N06  Fn5  v063
 BYTE   W54
 BYTE   PEND 
//  #03 //005   ----------------------------------------
 BYTE   PATT
  POIN2 Label_012B8AA1
//  #03 //006   ----------------------------------------
 BYTE   N04  Fn4  v127
 BYTE   N06  Fn5  v063
 BYTE   W12
 BYTE   N05  Gs4  v127
 BYTE   N06  Gs5  v063
 BYTE   W12
 BYTE   N04  Gn4  v127
 BYTE   N06  Gn5  v063
 BYTE   W12
 BYTE   N05  Gs4  v127
 BYTE   N06  Gs5  v063
 BYTE   W06
 BYTE   N04  Fn4  v127
 BYTE   N06  Fn5  v063
 BYTE   W12
 BYTE   N05  Fn4  v127
 BYTE   N06  Fn5  v063
 BYTE   W06
 BYTE   N05  Gn4  v127
 BYTE   N06  Gn5  v063
 BYTE   W12
 BYTE   N05  Gs4  v127
 BYTE   N06  Gs5  v063
 BYTE   W12
 BYTE   N05  As4  v127
 BYTE   N06  As5  v063
 BYTE   W12
//  #03 //007   ----------------------------------------
 BYTE   N05  Gn3  v102
 BYTE   N04  Cn5  v127
 BYTE   N06  Cn6  v063
 BYTE   W12
 BYTE   N04  Gn3  v103
 BYTE   N05  Cn5  v127
 BYTE   N06  Cn6  v063
 BYTE   W12
 BYTE   N05  Gn3  v096
 BYTE   N04  Cn5  v127
 BYTE   N06  Cn6  v063
 BYTE   W12
 BYTE   N04  Fn3  v099
 BYTE   N05  As4  v127
 BYTE   N06  As5  v063
 BYTE   W06
 BYTE   N05  Gn3  v096
 BYTE   N05  Cn5  v127
 BYTE   N06  Cn6  v063
 BYTE   W54
//  #03 //008   ----------------------------------------
Label_012B8B3B:
 BYTE   W96
//  #03 //009   ----------------------------------------
 BYTE   W96
//  #03 //010   ----------------------------------------
 BYTE   W96
//  #03 //011   ----------------------------------------
 BYTE   W96
//  #03 //012   ----------------------------------------
 BYTE   W96
//  #03 //013   ----------------------------------------
 BYTE   W96
//  #03 //014   ----------------------------------------
 BYTE   W96
//  #03 //015   ----------------------------------------
 BYTE   W96
//  #03 //016   ----------------------------------------
 BYTE   W96
//  #03 //017   ----------------------------------------
 BYTE   W36
 BYTE   N11  Cn4  v092
 BYTE   W18
 BYTE   N05  Cn4  v088
 BYTE   W06
 BYTE   N04  As3  v092
 BYTE   W12
 BYTE   Cn4  v090
 BYTE   W12
 BYTE   Ds4  v089
 BYTE   W06
 BYTE   TIE  Cn4  v092
 BYTE   W06
//  #03 //018   ----------------------------------------
 BYTE   W92
 BYTE   W02
 BYTE   VOL   53*EienNoIczer_mvl/mxv
 BYTE   W02
//  #03 //019   ----------------------------------------
 BYTE   W02
 BYTE   VOL   52*EienNoIczer_mvl/mxv
 BYTE   W01
 BYTE   VOL   51*EienNoIczer_mvl/mxv
 BYTE   W02
 BYTE   VOL   50*EienNoIczer_mvl/mxv
 BYTE   W01
 BYTE   EOT
 BYTE   VOL   49*EienNoIczer_mvl/mxv
 BYTE   W01
 BYTE   VOL   48*EienNoIczer_mvl/mxv
 BYTE   W01
 BYTE   VOL   46*EienNoIczer_mvl/mxv
 BYTE   W01
 BYTE   VOL   43*EienNoIczer_mvl/mxv
 BYTE   W01
 BYTE   VOL   41*EienNoIczer_mvl/mxv
 BYTE   W01
 BYTE   VOL   38*EienNoIczer_mvl/mxv
 BYTE   W24
 BYTE   W01
 BYTE   VOL   54*EienNoIczer_mvl/mxv
 BYTE   N03  As3  v093
 BYTE   W12
 BYTE   N12  Cn4  v092
 BYTE   W12
 BYTE   N06  Ds4  v093
 BYTE   W36
//  #03 //020   ----------------------------------------
 BYTE   W96
//  #03 //021   ----------------------------------------
 BYTE   W60
 BYTE   N14  As3  v092
 BYTE   W18
 BYTE   N03  Cn4  v096
 BYTE   W12
 BYTE   Cs4
 BYTE   W06
//  #03 //022   ----------------------------------------
 BYTE   N48  Ds4  v090  gtp1
 BYTE   W60
 BYTE   N10  Ds4  v092
 BYTE   W24
 BYTE   N20  En4
 BYTE   W12
//  #03 //023   ----------------------------------------
 BYTE   W12
 BYTE   N04
 BYTE   W12
 BYTE   Fn4  v091
 BYTE   W12
 BYTE   N60  Gn4  v096
 BYTE   W60
//  #03 //024   ----------------------------------------
 BYTE   W96
//  #03 //025   ----------------------------------------
 BYTE   W60
 BYTE   VOL   49*EienNoIczer_mvl/mxv
 BYTE   N04  Ds4  v111
 BYTE   W12
 BYTE   Ds4  v117
 BYTE   W06
 BYTE   Cs4  v092
 BYTE   W06
 BYTE   Ds4  v114
 BYTE   W12
//  #03 //026   ----------------------------------------
 BYTE   N96  Fn4
 BYTE   W96
//  #03 //027   ----------------------------------------
 BYTE   W60
 BYTE   N04  Cn4  v113
 BYTE   W12
 BYTE   N06  Cn4  v115
 BYTE   W06
 BYTE   N03  Cs4  v094
 BYTE   W12
 BYTE   N04  Ds4  v112
 BYTE   W06
//  #03 //028   ----------------------------------------
 BYTE   Gs3  v113
 BYTE   N04  Cs4  v112
 BYTE   W36
 BYTE   N60  Gs3  v111
 BYTE   N60  Cs4  v115
 BYTE   W60
//  #03 //029   ----------------------------------------
 BYTE   N04  As3  v114
 BYTE   N04  Ds4
 BYTE   W36
 BYTE   N18  As3  v111
 BYTE   N18  Ds4  v115
 BYTE   W24
 BYTE   Cs4  v117
 BYTE   N18  Fn4
 BYTE   W24
 BYTE   N04  Ds4  v116
 BYTE   N04  Gn4  v114
 BYTE   W12
//  #03 //030   ----------------------------------------
 BYTE   N22  Ds4  v111
 BYTE   N22  Gs4  v115
 BYTE   W20
 BYTE   BEND   c_v-1
 BYTE   W01
 BYTE   N03  Gn4  v095
 BYTE   W02
 BYTE   N02  Fn4  v101
 BYTE   W01
 BYTE   BEND   c_v-2
 BYTE   W01
 BYTE   BEND   c_v-3
 BYTE   N02  Ds4  v099
 BYTE   W01
 BYTE   BEND   c_v-4
 BYTE   W01
 BYTE   BEND   c_v-7
 BYTE   N01  Cs4
 BYTE   W01
 BYTE   BEND   c_v-10
 BYTE   W01
 BYTE   BEND   c_v-14
 BYTE   N01  Cn4  v101
 BYTE   W01
 BYTE   BEND   c_v-20
 BYTE   W01
 BYTE   N01  As3  v097
 BYTE   W02
 BYTE   Gs3  v095
 BYTE   W60
 BYTE   W03
//  #03 //031   ----------------------------------------
 BYTE   W12
 BYTE   BEND   c_v+0
 BYTE   N04  Dn4  v115
 BYTE   W12
 BYTE   Dn4  v113
 BYTE   W12
 BYTE   N05  Dn4  v116
 BYTE   W06
 BYTE   N24  En4  v113  gtp2
 BYTE   W30
 BYTE   N06  En4  v112
 BYTE   W06
 BYTE   N04  Fn4  v111
 BYTE   W06
 BYTE   N07  Gn4  v113
 BYTE   W12
//  #03 //032   ----------------------------------------
 BYTE   W96
//  #03 //033   ----------------------------------------
 BYTE   W60
 BYTE   N04  Ds4  v111
 BYTE   W12
 BYTE   Ds4  v115
 BYTE   W06
 BYTE   Cs4  v092
 BYTE   W06
 BYTE   Ds4  v113
 BYTE   W12
//  #03 //034   ----------------------------------------
 BYTE   N96  Fn4  v112
 BYTE   W96
//  #03 //035   ----------------------------------------
 BYTE   W60
 BYTE   N04  Cn4  v116
 BYTE   W12
 BYTE   N06  Cn4  v115
 BYTE   W06
 BYTE   N03  Cs4  v094
 BYTE   W12
 BYTE   N04  Ds4  v115
 BYTE   W06
//  #03 //036   ----------------------------------------
 BYTE   Gs3  v116
 BYTE   N04  Cs4  v113
 BYTE   W36
 BYTE   N60  Gs3  v114
 BYTE   N60  Cs4  v111
 BYTE   W60
//  #03 //037   ----------------------------------------
 BYTE   N04  As3  v114
 BYTE   N04  Ds4  v111
 BYTE   W36
 BYTE   N18  As3  v112
 BYTE   N18  Ds4  v113
 BYTE   W24
 BYTE   Cs4  v112
 BYTE   N18  Fn4  v111
 BYTE   W24
 BYTE   N04  Ds4  v115
 BYTE   N04  Gn4  v111
 BYTE   W12
//  #03 //038   ----------------------------------------
 BYTE   N22  Ds4  v116
 BYTE   N22  Gs4  v112
 BYTE   W20
 BYTE   BEND   c_v-1
 BYTE   W01
 BYTE   N03  Gn4  v075
 BYTE   W02
 BYTE   N02  Fn4  v070
 BYTE   W01
 BYTE   BEND   c_v-2
 BYTE   W01
 BYTE   BEND   c_v-3
 BYTE   N02  Ds4  v073
 BYTE   W01
 BYTE   BEND   c_v-4
 BYTE   W01
 BYTE   BEND   c_v-7
 BYTE   N01  Cs4  v074
 BYTE   W01
 BYTE   BEND   c_v-10
 BYTE   W01
 BYTE   BEND   c_v-14
 BYTE   N01  Cn4
 BYTE   W01
 BYTE   BEND   c_v-20
 BYTE   W01
 BYTE   N01  As3  v075
 BYTE   W02
 BYTE   Gs3  v070
 BYTE   W60
 BYTE   W03
//  #03 //039   ----------------------------------------
 BYTE   W12
 BYTE   BEND   c_v+0
 BYTE   W84
//  #03 //040   ----------------------------------------
 BYTE   W12
 BYTE   N11  Fn3  v094
 BYTE   W12
 BYTE   Gn3  v106
 BYTE   W12
 BYTE   Gs3  v112
 BYTE   W12
 BYTE   N18  As3  v116
 BYTE   W18
 BYTE   N04  Cn4  v114
 BYTE   W18
 BYTE   Cs4  v112
 BYTE   W12
//  #03 //041   ----------------------------------------
 BYTE   VOL   54*EienNoIczer_mvl/mxv
 BYTE   N04  Gn3  v084
 BYTE   N04  Cn4  v120
 BYTE   W06
 BYTE   Gn3  v083
 BYTE   N04  Cn4  v120
 BYTE   W12
 BYTE   Gn3  v086
 BYTE   N04  Cn4  v120
 BYTE   W06
 BYTE   Cn4  v084
 BYTE   N04  Ds4  v120
 BYTE   W12
 BYTE   N06  Cn4  v084
 BYTE   N06  Fn4  v120
 BYTE   W60
//  #03 //042   ----------------------------------------
 BYTE   W96
//  #03 //043   ----------------------------------------
 BYTE   W96
//  #03 //044   ----------------------------------------
 BYTE   W96
//  #03 //045   ----------------------------------------
 BYTE   W96
//  #03 //046   ----------------------------------------
Label_012B8D03:
 BYTE   N03  Fn3  v101
 BYTE   N06  Fn4  v050
 BYTE   W12
 BYTE   N04  Gs3  v101
 BYTE   N06  Gs4  v050
 BYTE   W12
 BYTE   N03  Gn3  v101
 BYTE   N06  Gn4  v050
 BYTE   W12
 BYTE   N04  Gs3  v101
 BYTE   N06  Gs4  v050
 BYTE   W06
 BYTE   N04  Fn3  v101
 BYTE   N06  Fn4  v050
 BYTE   W54
 BYTE   PEND 
//  #03 //047   ----------------------------------------
 BYTE   PATT
  POIN2 Label_012B8D03
//  #03 //048   ----------------------------------------
 BYTE   N03  Fn3  v101
 BYTE   N06  Fn4  v050
 BYTE   W12
 BYTE   N04  Gs3  v101
 BYTE   N06  Gs4  v050
 BYTE   W12
 BYTE   N03  Gn3  v101
 BYTE   N06  Gn4  v050
 BYTE   W12
 BYTE   N04  Gs3  v101
 BYTE   N06  Gs4  v050
 BYTE   W06
 BYTE   N03  Fn3  v101
 BYTE   N06  Fn4  v050
 BYTE   W12
 BYTE   N04  Fn3  v101
 BYTE   N06  Fn4  v050
 BYTE   W06
 BYTE   N04  Gn3  v101
 BYTE   N06  Gn4  v050
 BYTE   W12
 BYTE   N04  Gs3  v101
 BYTE   N06  Gs4  v050
 BYTE   W12
 BYTE   N04  As3  v101
 BYTE   N06  As4  v050
 BYTE   W12
//  #03 //049   ----------------------------------------
 BYTE   N04  Fn3  v089
 BYTE   N03  Cn4  v101
 BYTE   N06  Cn5  v050
 BYTE   W12
 BYTE   N03  Fn3  v089
 BYTE   N04  Cn4  v101
 BYTE   N06  Cn5  v050
 BYTE   W12
 BYTE   N04  Fn3  v092
 BYTE   N03  Cn4  v101
 BYTE   N06  Cn5  v050
 BYTE   W12
 BYTE   N03  Ds3  v092
 BYTE   N04  As3  v101
 BYTE   N06  As4  v050
 BYTE   W06
 BYTE   N04  Fn3  v091
 BYTE   N04  Cn4  v101
 BYTE   N06  Cn5  v050
 BYTE   W54
//  #03 //050   ----------------------------------------
Label_012B8D9D:
 BYTE   N04  Fn4  v114
 BYTE   N06  Fn5  v056
 BYTE   W12
 BYTE   N05  Gs4  v114
 BYTE   N06  Gs5  v056
 BYTE   W12
 BYTE   N04  Gn4  v114
 BYTE   N06  Gn5  v056
 BYTE   W12
 BYTE   N05  Gs4  v114
 BYTE   N06  Gs5  v056
 BYTE   W06
 BYTE   N05  Fn4  v114
 BYTE   N06  Fn5  v056
 BYTE   W54
 BYTE   PEND 
//  #03 //051   ----------------------------------------
 BYTE   PATT
  POIN2 Label_012B8D9D
//  #03 //052   ----------------------------------------
 BYTE   N04  Fn4  v114
 BYTE   N06  Fn5  v056
 BYTE   W12
 BYTE   N05  Gs4  v114
 BYTE   N06  Gs5  v056
 BYTE   W12
 BYTE   N04  Gn4  v114
 BYTE   N06  Gn5  v056
 BYTE   W12
 BYTE   N05  Gs4  v114
 BYTE   N06  Gs5  v056
 BYTE   W06
 BYTE   N04  Fn4  v114
 BYTE   N06  Fn5  v056
 BYTE   W12
 BYTE   N05  Fn4  v114
 BYTE   N06  Fn5  v056
 BYTE   W06
 BYTE   N05  Gn4  v114
 BYTE   N06  Gn5  v056
 BYTE   W12
 BYTE   N05  Gs4  v114
 BYTE   N06  Gs5  v056
 BYTE   W12
 BYTE   N05  As4  v114
 BYTE   N06  As5  v056
 BYTE   W12
//  #03 //053   ----------------------------------------
 BYTE   N05  Gn3  v091
 BYTE   N04  Cn5  v114
 BYTE   N06  Cn6  v056
 BYTE   W12
 BYTE   N04  Gn3  v092
 BYTE   N05  Cn5  v114
 BYTE   N06  Cn6  v056
 BYTE   W12
 BYTE   N05  Gn3  v086
 BYTE   N04  Cn5  v114
 BYTE   N06  Cn6  v056
 BYTE   W12
 BYTE   N04  Fn3  v089
 BYTE   N05  As4  v114
 BYTE   N06  As5  v056
 BYTE   W06
 BYTE   N05  Gn3  v086
 BYTE   N05  Cn5  v114
 BYTE   N06  Cn6  v056
 BYTE   W54
//  #03 //054   ----------------------------------------
 BYTE   GoTo
  POIN2 Label_012B8B3B
//  #03 //055   ----------------------------------------
 BYTE   W10
 BYTE   FINE

//**************** Track 4 (Midi-Chn.3) ****************//

EienNoIczer_004:
//  #04 //000   ----------------------------------------
 BYTE   KEYSH   EienNoIczer_key+0
 BYTE   VOICE   96
 BYTE   BENDR  12
 BYTE   VOL   47*EienNoIczer_mvl/mxv
 BYTE   PAN   c_v+24
 BYTE   W48
 BYTE   VOL   38*EienNoIczer_mvl/mxv
 BYTE   N06  Fn3  v108
 BYTE   W06
 BYTE   Gs3  v109
 BYTE   W06
 BYTE   As3  v110
 BYTE   W06
 BYTE   Cn4  v109
 BYTE   W06
 BYTE   Fn4  v105
 BYTE   W06
 BYTE   Cn4  v108
 BYTE   W06
 BYTE   As3  v110
 BYTE   W06
 BYTE   Gs3  v105
 BYTE   W06
//  #04 //001   ----------------------------------------
 BYTE   W48
 BYTE   Fn3  v106
 BYTE   W06
 BYTE   Gs3
 BYTE   W06
 BYTE   As3  v111
 BYTE   W06
 BYTE   Cn4  v105
 BYTE   W06
 BYTE   Fn4
 BYTE   W06
 BYTE   Cn4  v109
 BYTE   W06
 BYTE   As3  v104
 BYTE   W06
 BYTE   Gs3  v110
 BYTE   W06
//  #04 //002   ----------------------------------------
 BYTE   W96
//  #04 //003   ----------------------------------------
 BYTE   W48
 BYTE   Cn4  v104
 BYTE   W06
 BYTE   Cs4  v111
 BYTE   W06
 BYTE   Ds4  v106
 BYTE   W06
 BYTE   Fn4  v108
 BYTE   W12
 BYTE   Cs4  v110
 BYTE   W06
 BYTE   Ds4  v106
 BYTE   W06
 BYTE   Fn4  v104
 BYTE   W06
//  #04 //004   ----------------------------------------
 BYTE   W48
 BYTE   Fn4  v111
 BYTE   W06
 BYTE   Gs4  v105
 BYTE   W06
 BYTE   As4  v104
 BYTE   W06
 BYTE   Cn5  v109
 BYTE   W12
 BYTE   Cn5  v106
 BYTE   W06
 BYTE   As4  v105
 BYTE   W06
 BYTE   Gs4  v104
 BYTE   W06
//  #04 //005   ----------------------------------------
 BYTE   W48
 BYTE   Fn4  v105
 BYTE   W06
 BYTE   Gs4  v108
 BYTE   W06
 BYTE   As4  v105
 BYTE   W06
 BYTE   Cn5  v104
 BYTE   W12
 BYTE   Cn5
 BYTE   W06
 BYTE   As4  v106
 BYTE   W06
 BYTE   Gs4  v110
 BYTE   W06
//  #04 //006   ----------------------------------------
 BYTE   W96
//  #04 //007   ----------------------------------------
 BYTE   W96
//  #04 //008   ----------------------------------------
Label_012B8EC1:
 BYTE   W96
//  #04 //009   ----------------------------------------
 BYTE   W44
 BYTE   W02
 BYTE   PAN   c_v-24
 BYTE   W02
 BYTE   N06  Fn3  v104
 BYTE   W06
 BYTE   Gs3  v111
 BYTE   W06
 BYTE   As3
 BYTE   W06
 BYTE   Cn4  v105
 BYTE   W06
 BYTE   Fn4
 BYTE   W06
 BYTE   Cn4  v108
 BYTE   W06
 BYTE   Gs3  v104
 BYTE   W06
 BYTE   As3  v108
 BYTE   W06
//  #04 //010   ----------------------------------------
 BYTE   Cn4  v106
 BYTE   W06
 BYTE   As3  v110
 BYTE   W06
 BYTE   Cn4  v105
 BYTE   W12
 BYTE   VOL   26*EienNoIczer_mvl/mxv
 BYTE   N06  Cn4  v108
 BYTE   W06
 BYTE   As3  v110
 BYTE   W06
 BYTE   Cn4  v108
 BYTE   W12
 BYTE   VOL   17*EienNoIczer_mvl/mxv
 BYTE   N06  Cn4  v111
 BYTE   W06
 BYTE   As3  v105
 BYTE   W06
 BYTE   Cn4  v110
 BYTE   W12
 BYTE   VOL   13*EienNoIczer_mvl/mxv
 BYTE   N06  Cn4  v111
 BYTE   W06
 BYTE   As3  v104
 BYTE   W06
 BYTE   Cn4  v105
 BYTE   W12
//  #04 //011   ----------------------------------------
 BYTE   VOL   9*EienNoIczer_mvl/mxv
 BYTE   N06
 BYTE   W06
 BYTE   As3  v109
 BYTE   W06
 BYTE   Cn4
 BYTE   W12
 BYTE   VOL   4*EienNoIczer_mvl/mxv
 BYTE   N06  Cn4  v108
 BYTE   W06
 BYTE   As3  v106
 BYTE   W06
 BYTE   Cn4  v108
 BYTE   W60
//  #04 //012   ----------------------------------------
 BYTE   W96
//  #04 //013   ----------------------------------------
 BYTE   W48
 BYTE   VOL   38*EienNoIczer_mvl/mxv
 BYTE   N06  Cs3  v109
 BYTE   W06
 BYTE   Ds3  v105
 BYTE   W06
 BYTE   Fn3  v110
 BYTE   W06
 BYTE   Gs3  v108
 BYTE   W12
 BYTE   Gs3  v104
 BYTE   W06
 BYTE   Fn3  v110
 BYTE   W06
 BYTE   Gs3  v106
 BYTE   W06
//  #04 //014   ----------------------------------------
 BYTE   Gn3
 BYTE   W06
 BYTE   Fn3
 BYTE   W06
 BYTE   Gn3  v105
 BYTE   W12
 BYTE   VOL   26*EienNoIczer_mvl/mxv
 BYTE   N06  Gn3  v111
 BYTE   W06
 BYTE   Fn3
 BYTE   W06
 BYTE   Gn3  v106
 BYTE   W12
 BYTE   VOL   17*EienNoIczer_mvl/mxv
 BYTE   N06  Gn3  v109
 BYTE   W06
 BYTE   Fn3
 BYTE   W06
 BYTE   Gn3  v111
 BYTE   W12
 BYTE   VOL   13*EienNoIczer_mvl/mxv
 BYTE   N06  Gn3  v105
 BYTE   W06
 BYTE   Fn3  v104
 BYTE   W06
 BYTE   Gn3  v111
 BYTE   W12
//  #04 //015   ----------------------------------------
 BYTE   VOL   9*EienNoIczer_mvl/mxv
 BYTE   N06  Gn3  v106
 BYTE   W06
 BYTE   Fn3  v108
 BYTE   W06
 BYTE   Gn3  v110
 BYTE   W12
 BYTE   VOL   4*EienNoIczer_mvl/mxv
 BYTE   N06  Gn3  v109
 BYTE   W06
 BYTE   Fn3  v106
 BYTE   W06
 BYTE   Gn3  v110
 BYTE   W60
//  #04 //016   ----------------------------------------
 BYTE   W96
//  #04 //017   ----------------------------------------
 BYTE   W96
//  #04 //018   ----------------------------------------
 BYTE   W96
//  #04 //019   ----------------------------------------
 BYTE   W96
//  #04 //020   ----------------------------------------
 BYTE   W96
//  #04 //021   ----------------------------------------
 BYTE   W96
//  #04 //022   ----------------------------------------
 BYTE   W96
//  #04 //023   ----------------------------------------
 BYTE   VOL   43*EienNoIczer_mvl/mxv
 BYTE   PAN   c_v+0
 BYTE   W72
 BYTE   VOL   35*EienNoIczer_mvl/mxv
 BYTE   N06  As3  v083
 BYTE   W01
 BYTE   VOL   37*EienNoIczer_mvl/mxv
 BYTE   W01
 BYTE   VOL   38*EienNoIczer_mvl/mxv
 BYTE   W01
 BYTE   VOL   39*EienNoIczer_mvl/mxv
 BYTE   W02
 BYTE   VOL   40*EienNoIczer_mvl/mxv
 BYTE   W01
 BYTE   VOL   41*EienNoIczer_mvl/mxv
 BYTE   N06  Cn4  v087
 BYTE   W02
 BYTE   VOL   42*EienNoIczer_mvl/mxv
 BYTE   W02
 BYTE   VOL   43*EienNoIczer_mvl/mxv
 BYTE   W02
 BYTE   N06  Cs4  v090
 BYTE   W06
 BYTE   Ds4  v091
 BYTE   W06
//  #04 //024   ----------------------------------------
 BYTE   VOL   31*EienNoIczer_mvl/mxv
 BYTE   N96  Fn4  v090
 BYTE   N96  Cn3  v079
 BYTE   N96  Fn3  v070
 BYTE   W01
 BYTE   VOL   32*EienNoIczer_mvl/mxv
 BYTE   W01
 BYTE   VOL   33*EienNoIczer_mvl/mxv
 BYTE   W02
 BYTE   VOL   34*EienNoIczer_mvl/mxv
 BYTE   W02
 BYTE   VOL   35*EienNoIczer_mvl/mxv
 BYTE   W03
 BYTE   VOL   36*EienNoIczer_mvl/mxv
 BYTE   W02
 BYTE   VOL   37*EienNoIczer_mvl/mxv
 BYTE   W04
 BYTE   VOL   38*EienNoIczer_mvl/mxv
 BYTE   W05
 BYTE   VOL   39*EienNoIczer_mvl/mxv
 BYTE   W76
//  #04 //025   ----------------------------------------
 BYTE   VOL   28*EienNoIczer_mvl/mxv
 BYTE   N96  Gs4  v091
 BYTE   N96  Cn3  v070
 BYTE   N96  Ds3  v076
 BYTE   W02
 BYTE   VOL   30*EienNoIczer_mvl/mxv
 BYTE   W02
 BYTE   VOL   31*EienNoIczer_mvl/mxv
 BYTE   W01
 BYTE   VOL   32*EienNoIczer_mvl/mxv
 BYTE   W02
 BYTE   VOL   33*EienNoIczer_mvl/mxv
 BYTE   W01
 BYTE   VOL   34*EienNoIczer_mvl/mxv
 BYTE   W02
 BYTE   VOL   35*EienNoIczer_mvl/mxv
 BYTE   W02
 BYTE   VOL   36*EienNoIczer_mvl/mxv
 BYTE   W03
 BYTE   VOL   37*EienNoIczer_mvl/mxv
 BYTE   W04
 BYTE   VOL   38*EienNoIczer_mvl/mxv
 BYTE   W04
 BYTE   VOL   39*EienNoIczer_mvl/mxv
 BYTE   W72
 BYTE   W01
//  #04 //026   ----------------------------------------
 BYTE   VOL   35*EienNoIczer_mvl/mxv
 BYTE   N96  Cn5  v090
 BYTE   N96  Cs3  v079
 BYTE   N96  Fn3  v072
 BYTE   W13
 BYTE   VOL   34*EienNoIczer_mvl/mxv
 BYTE   W09
 BYTE   VOL   33*EienNoIczer_mvl/mxv
 BYTE   W15
 BYTE   VOL   32*EienNoIczer_mvl/mxv
 BYTE   W09
 BYTE   VOL   31*EienNoIczer_mvl/mxv
 BYTE   W15
 BYTE   VOL   30*EienNoIczer_mvl/mxv
 BYTE   W14
 BYTE   VOL   29*EienNoIczer_mvl/mxv
 BYTE   W10
 BYTE   VOL   28*EienNoIczer_mvl/mxv
 BYTE   W11
//  #04 //027   ----------------------------------------
 BYTE   N96  Gn4  v088
 BYTE   N96  Cn3  v076
 BYTE   N96  Gn3
 BYTE   W03
 BYTE   VOL   27*EienNoIczer_mvl/mxv
 BYTE   W10
 BYTE   VOL   26*EienNoIczer_mvl/mxv
 BYTE   W14
 BYTE   VOL   25*EienNoIczer_mvl/mxv
 BYTE   W10
 BYTE   VOL   24*EienNoIczer_mvl/mxv
 BYTE   W14
 BYTE   VOL   23*EienNoIczer_mvl/mxv
 BYTE   W10
 BYTE   VOL   22*EienNoIczer_mvl/mxv
 BYTE   W14
 BYTE   VOL   21*EienNoIczer_mvl/mxv
 BYTE   W10
 BYTE   VOL   20*EienNoIczer_mvl/mxv
 BYTE   W11
//  #04 //028   ----------------------------------------
 BYTE   N96  Gs4  v087
 BYTE   N96  Cs3  v075
 BYTE   N96  Fn3  v078
 BYTE   W02
 BYTE   VOL   22*EienNoIczer_mvl/mxv
 BYTE   W02
 BYTE   VOL   23*EienNoIczer_mvl/mxv
 BYTE   W01
 BYTE   VOL   24*EienNoIczer_mvl/mxv
 BYTE   W02
 BYTE   VOL   25*EienNoIczer_mvl/mxv
 BYTE   W01
 BYTE   VOL   26*EienNoIczer_mvl/mxv
 BYTE   W02
 BYTE   VOL   27*EienNoIczer_mvl/mxv
 BYTE   W02
 BYTE   VOL   28*EienNoIczer_mvl/mxv
 BYTE   W03
 BYTE   VOL   29*EienNoIczer_mvl/mxv
 BYTE   W02
 BYTE   VOL   30*EienNoIczer_mvl/mxv
 BYTE   W06
 BYTE   VOL   31*EienNoIczer_mvl/mxv
 BYTE   W72
 BYTE   W01
//  #04 //029   ----------------------------------------
 BYTE   VOL   28*EienNoIczer_mvl/mxv
 BYTE   N96  As4  v090
 BYTE   N96  As2  v073
 BYTE   N96  Ds3  v070
 BYTE   W02
 BYTE   VOL   29*EienNoIczer_mvl/mxv
 BYTE   W01
 BYTE   VOL   30*EienNoIczer_mvl/mxv
 BYTE   W03
 BYTE   VOL   31*EienNoIczer_mvl/mxv
 BYTE   W03
 BYTE   VOL   32*EienNoIczer_mvl/mxv
 BYTE   W02
 BYTE   VOL   33*EienNoIczer_mvl/mxv
 BYTE   W04
 BYTE   VOL   34*EienNoIczer_mvl/mxv
 BYTE   W05
 BYTE   VOL   35*EienNoIczer_mvl/mxv
 BYTE   W76
//  #04 //030   ----------------------------------------
 BYTE   VOL   28*EienNoIczer_mvl/mxv
 BYTE   N48  Ds5  v091
 BYTE   N96  Gs2  v070
 BYTE   N96  Ds3  v073
 BYTE   W02
 BYTE   VOL   29*EienNoIczer_mvl/mxv
 BYTE   W01
 BYTE   VOL   30*EienNoIczer_mvl/mxv
 BYTE   W03
 BYTE   VOL   31*EienNoIczer_mvl/mxv
 BYTE   W03
 BYTE   VOL   32*EienNoIczer_mvl/mxv
 BYTE   W02
 BYTE   VOL   33*EienNoIczer_mvl/mxv
 BYTE   W04
 BYTE   VOL   34*EienNoIczer_mvl/mxv
 BYTE   W05
 BYTE   VOL   35*EienNoIczer_mvl/mxv
 BYTE   W28
 BYTE   VOL   28*EienNoIczer_mvl/mxv
 BYTE   N24  Cn5  v087
 BYTE   W03
 BYTE   VOL   29*EienNoIczer_mvl/mxv
 BYTE   W03
 BYTE   VOL   30*EienNoIczer_mvl/mxv
 BYTE   W03
 BYTE   VOL   31*EienNoIczer_mvl/mxv
 BYTE   W04
 BYTE   VOL   32*EienNoIczer_mvl/mxv
 BYTE   W02
 BYTE   VOL   33*EienNoIczer_mvl/mxv
 BYTE   W04
 BYTE   VOL   34*EienNoIczer_mvl/mxv
 BYTE   W02
 BYTE   VOL   35*EienNoIczer_mvl/mxv
 BYTE   W03
 BYTE   N12  As4
 BYTE   W12
 BYTE   Gs4  v088
 BYTE   W12
//  #04 //031   ----------------------------------------
 BYTE   VOL   28*EienNoIczer_mvl/mxv
 BYTE   N48  Gn4  v091
 BYTE   N48  As2  v075
 BYTE   N48  Dn3
 BYTE   W01
 BYTE   VOL   29*EienNoIczer_mvl/mxv
 BYTE   W01
 BYTE   VOL   30*EienNoIczer_mvl/mxv
 BYTE   W01
 BYTE   VOL   31*EienNoIczer_mvl/mxv
 BYTE   W02
 BYTE   VOL   32*EienNoIczer_mvl/mxv
 BYTE   W01
 BYTE   VOL   33*EienNoIczer_mvl/mxv
 BYTE   W02
 BYTE   VOL   34*EienNoIczer_mvl/mxv
 BYTE   W02
 BYTE   VOL   35*EienNoIczer_mvl/mxv
 BYTE   W36
 BYTE   W02
 BYTE   VOL   28*EienNoIczer_mvl/mxv
 BYTE   N48  Cn5  v088
 BYTE   N48  Cn3  v079
 BYTE   N48  En3  v075
 BYTE   W01
 BYTE   VOL   29*EienNoIczer_mvl/mxv
 BYTE   W01
 BYTE   VOL   30*EienNoIczer_mvl/mxv
 BYTE   W01
 BYTE   VOL   31*EienNoIczer_mvl/mxv
 BYTE   W02
 BYTE   VOL   32*EienNoIczer_mvl/mxv
 BYTE   W01
 BYTE   VOL   33*EienNoIczer_mvl/mxv
 BYTE   W02
 BYTE   VOL   34*EienNoIczer_mvl/mxv
 BYTE   W02
 BYTE   VOL   35*EienNoIczer_mvl/mxv
 BYTE   W36
 BYTE   W02
//  #04 //032   ----------------------------------------
 BYTE   VOL   31*EienNoIczer_mvl/mxv
 BYTE   N96  Fn4  v087
 BYTE   N96  Cn3  v073
 BYTE   N96  Fn3  v070
 BYTE   W01
 BYTE   VOL   32*EienNoIczer_mvl/mxv
 BYTE   W01
 BYTE   VOL   33*EienNoIczer_mvl/mxv
 BYTE   W02
 BYTE   VOL   34*EienNoIczer_mvl/mxv
 BYTE   W02
 BYTE   VOL   35*EienNoIczer_mvl/mxv
 BYTE   W03
 BYTE   VOL   36*EienNoIczer_mvl/mxv
 BYTE   W02
 BYTE   VOL   37*EienNoIczer_mvl/mxv
 BYTE   W04
 BYTE   VOL   38*EienNoIczer_mvl/mxv
 BYTE   W05
 BYTE   VOL   39*EienNoIczer_mvl/mxv
 BYTE   W76
//  #04 //033   ----------------------------------------
 BYTE   VOL   28*EienNoIczer_mvl/mxv
 BYTE   N96  Gs4  v091
 BYTE   N96  Cn3  v070
 BYTE   N96  Ds3  v073
 BYTE   W02
 BYTE   VOL   30*EienNoIczer_mvl/mxv
 BYTE   W02
 BYTE   VOL   31*EienNoIczer_mvl/mxv
 BYTE   W01
 BYTE   VOL   32*EienNoIczer_mvl/mxv
 BYTE   W02
 BYTE   VOL   33*EienNoIczer_mvl/mxv
 BYTE   W01
 BYTE   VOL   34*EienNoIczer_mvl/mxv
 BYTE   W02
 BYTE   VOL   35*EienNoIczer_mvl/mxv
 BYTE   W02
 BYTE   VOL   36*EienNoIczer_mvl/mxv
 BYTE   W03
 BYTE   VOL   37*EienNoIczer_mvl/mxv
 BYTE   W04
 BYTE   VOL   38*EienNoIczer_mvl/mxv
 BYTE   W04
 BYTE   VOL   39*EienNoIczer_mvl/mxv
 BYTE   W72
 BYTE   W01
//  #04 //034   ----------------------------------------
 BYTE   VOL   35*EienNoIczer_mvl/mxv
 BYTE   N96  Cn5  v090
 BYTE   N96  Cs3  v070
 BYTE   N96  Fn3
 BYTE   W13
 BYTE   VOL   34*EienNoIczer_mvl/mxv
 BYTE   W09
 BYTE   VOL   33*EienNoIczer_mvl/mxv
 BYTE   W15
 BYTE   VOL   32*EienNoIczer_mvl/mxv
 BYTE   W09
 BYTE   VOL   31*EienNoIczer_mvl/mxv
 BYTE   W15
 BYTE   VOL   30*EienNoIczer_mvl/mxv
 BYTE   W14
 BYTE   VOL   29*EienNoIczer_mvl/mxv
 BYTE   W10
 BYTE   VOL   28*EienNoIczer_mvl/mxv
 BYTE   W11
//  #04 //035   ----------------------------------------
 BYTE   N96  Gn4  v091
 BYTE   N96  Cn3  v079
 BYTE   N96  Gn3  v075
 BYTE   W03
 BYTE   VOL   27*EienNoIczer_mvl/mxv
 BYTE   W10
 BYTE   VOL   26*EienNoIczer_mvl/mxv
 BYTE   W14
 BYTE   VOL   25*EienNoIczer_mvl/mxv
 BYTE   W10
 BYTE   VOL   24*EienNoIczer_mvl/mxv
 BYTE   W14
 BYTE   VOL   23*EienNoIczer_mvl/mxv
 BYTE   W10
 BYTE   VOL   22*EienNoIczer_mvl/mxv
 BYTE   W14
 BYTE   VOL   21*EienNoIczer_mvl/mxv
 BYTE   W10
 BYTE   VOL   20*EienNoIczer_mvl/mxv
 BYTE   W11
//  #04 //036   ----------------------------------------
 BYTE   N96  Gs4  v087
 BYTE   N96  Cs3  v072
 BYTE   N96  Fn3
 BYTE   W02
 BYTE   VOL   22*EienNoIczer_mvl/mxv
 BYTE   W02
 BYTE   VOL   23*EienNoIczer_mvl/mxv
 BYTE   W01
 BYTE   VOL   24*EienNoIczer_mvl/mxv
 BYTE   W02
 BYTE   VOL   25*EienNoIczer_mvl/mxv
 BYTE   W01
 BYTE   VOL   26*EienNoIczer_mvl/mxv
 BYTE   W02
 BYTE   VOL   27*EienNoIczer_mvl/mxv
 BYTE   W02
 BYTE   VOL   28*EienNoIczer_mvl/mxv
 BYTE   W03
 BYTE   VOL   29*EienNoIczer_mvl/mxv
 BYTE   W02
 BYTE   VOL   30*EienNoIczer_mvl/mxv
 BYTE   W06
 BYTE   VOL   31*EienNoIczer_mvl/mxv
 BYTE   W72
 BYTE   W01
//  #04 //037   ----------------------------------------
 BYTE   VOL   28*EienNoIczer_mvl/mxv
 BYTE   N96  As4  v091
 BYTE   N96  As2  v078
 BYTE   N96  Ds3  v070
 BYTE   W02
 BYTE   VOL   29*EienNoIczer_mvl/mxv
 BYTE   W01
 BYTE   VOL   30*EienNoIczer_mvl/mxv
 BYTE   W03
 BYTE   VOL   31*EienNoIczer_mvl/mxv
 BYTE   W03
 BYTE   VOL   32*EienNoIczer_mvl/mxv
 BYTE   W02
 BYTE   VOL   33*EienNoIczer_mvl/mxv
 BYTE   W04
 BYTE   VOL   34*EienNoIczer_mvl/mxv
 BYTE   W05
 BYTE   VOL   35*EienNoIczer_mvl/mxv
 BYTE   W76
//  #04 //038   ----------------------------------------
 BYTE   VOL   28*EienNoIczer_mvl/mxv
 BYTE   N48  Ds5  v090
 BYTE   N48  Gs2  v075
 BYTE   N48  Ds3
 BYTE   W02
 BYTE   VOL   29*EienNoIczer_mvl/mxv
 BYTE   W01
 BYTE   VOL   30*EienNoIczer_mvl/mxv
 BYTE   W03
 BYTE   VOL   31*EienNoIczer_mvl/mxv
 BYTE   W03
 BYTE   VOL   32*EienNoIczer_mvl/mxv
 BYTE   W02
 BYTE   VOL   33*EienNoIczer_mvl/mxv
 BYTE   W04
 BYTE   VOL   34*EienNoIczer_mvl/mxv
 BYTE   W05
 BYTE   VOL   35*EienNoIczer_mvl/mxv
 BYTE   W28
 BYTE   N12  Cn5  v090
 BYTE   N48  Cs3  v070
 BYTE   N48  Fn3  v079
 BYTE   W12
 BYTE   N24  As4  v090
 BYTE   W24
 BYTE   N12  Gs4  v089
 BYTE   W12
//  #04 //039   ----------------------------------------
 BYTE   VOL   28*EienNoIczer_mvl/mxv
 BYTE   N60  Gn4  v092
 BYTE   N84  Cn3  v072
 BYTE   N84  En3  v073
 BYTE   W01
 BYTE   VOL   29*EienNoIczer_mvl/mxv
 BYTE   W01
 BYTE   VOL   30*EienNoIczer_mvl/mxv
 BYTE   W01
 BYTE   VOL   31*EienNoIczer_mvl/mxv
 BYTE   W02
 BYTE   VOL   32*EienNoIczer_mvl/mxv
 BYTE   W01
 BYTE   VOL   33*EienNoIczer_mvl/mxv
 BYTE   W02
 BYTE   VOL   34*EienNoIczer_mvl/mxv
 BYTE   W02
 BYTE   VOL   35*EienNoIczer_mvl/mxv
 BYTE   W48
 BYTE   W02
 BYTE   N24  Cn5  v090
 BYTE   W24
 BYTE   VOL   28*EienNoIczer_mvl/mxv
 BYTE   TIE  Fn4  v087
 BYTE   N60  Gs2
 BYTE   N60  Cs3  v091
 BYTE   W02
 BYTE   VOL   29*EienNoIczer_mvl/mxv
 BYTE   W01
 BYTE   VOL   30*EienNoIczer_mvl/mxv
 BYTE   W01
 BYTE   VOL   31*EienNoIczer_mvl/mxv
 BYTE   W03
 BYTE   VOL   32*EienNoIczer_mvl/mxv
 BYTE   W01
 BYTE   VOL   33*EienNoIczer_mvl/mxv
 BYTE   W04
//  #04 //040   ----------------------------------------
 BYTE   VOL   34*EienNoIczer_mvl/mxv
 BYTE   W03
 BYTE   VOL   35*EienNoIczer_mvl/mxv
 BYTE   W44
 BYTE   W01
 BYTE   N48  Fs2  v093
 BYTE   N48  Cs3  v090
 BYTE   W48
//  #04 //041   ----------------------------------------
 BYTE   N96  Fn2  v076
 BYTE   N96  Cn3
 BYTE   W32
 BYTE   W02
 BYTE   VOL   34*EienNoIczer_mvl/mxv
 BYTE   W07
 BYTE   VOL   33*EienNoIczer_mvl/mxv
 BYTE   W08
 BYTE   VOL   32*EienNoIczer_mvl/mxv
 BYTE   W03
 BYTE   VOL   31*EienNoIczer_mvl/mxv
 BYTE   W05
 BYTE   VOL   30*EienNoIczer_mvl/mxv
 BYTE   W05
 BYTE   VOL   29*EienNoIczer_mvl/mxv
 BYTE   W02
 BYTE   VOL   28*EienNoIczer_mvl/mxv
 BYTE   W04
 BYTE   VOL   27*EienNoIczer_mvl/mxv
 BYTE   W02
 BYTE   VOL   26*EienNoIczer_mvl/mxv
 BYTE   W03
 BYTE   VOL   25*EienNoIczer_mvl/mxv
 BYTE   W02
 BYTE   VOL   24*EienNoIczer_mvl/mxv
 BYTE   W02
 BYTE   VOL   23*EienNoIczer_mvl/mxv
 BYTE   W02
 BYTE   VOL   22*EienNoIczer_mvl/mxv
 BYTE   W02
 BYTE   VOL   21*EienNoIczer_mvl/mxv
 BYTE   W02
 BYTE   VOL   20*EienNoIczer_mvl/mxv
 BYTE   W02
 BYTE   VOL   19*EienNoIczer_mvl/mxv
 BYTE   W02
 BYTE   VOL   18*EienNoIczer_mvl/mxv
 BYTE   W01
 BYTE   VOL   17*EienNoIczer_mvl/mxv
 BYTE   W02
 BYTE   VOL   16*EienNoIczer_mvl/mxv
 BYTE   W01
 BYTE   VOL   15*EienNoIczer_mvl/mxv
 BYTE   W02
 BYTE   VOL   14*EienNoIczer_mvl/mxv
 BYTE   W01
 BYTE   VOL   13*EienNoIczer_mvl/mxv
 BYTE   W02
//  #04 //042   ----------------------------------------
 BYTE   EOT
 BYTE   Fn4
 BYTE   VOL   12*EienNoIczer_mvl/mxv
 BYTE   W96
//  #04 //043   ----------------------------------------
 BYTE   W96
//  #04 //044   ----------------------------------------
 BYTE   W96
//  #04 //045   ----------------------------------------
 BYTE   W96
//  #04 //046   ----------------------------------------
 BYTE   VOL   13*EienNoIczer_mvl/mxv
 BYTE   W01
 BYTE   VOL   47*EienNoIczer_mvl/mxv
 BYTE   W03
 BYTE   PAN   c_v+24
 BYTE   W44
 BYTE   VOL   38*EienNoIczer_mvl/mxv
 BYTE   N06  Fn3  v111
 BYTE   W06
 BYTE   Gs3  v106
 BYTE   W06
 BYTE   As3  v105
 BYTE   W06
 BYTE   Cn4
 BYTE   W12
 BYTE   Cn4  v108
 BYTE   W06
 BYTE   As3  v104
 BYTE   W06
 BYTE   Gs3
 BYTE   W06
//  #04 //047   ----------------------------------------
 BYTE   W48
 BYTE   Fn3  v108
 BYTE   W06
 BYTE   Gs3  v106
 BYTE   W06
 BYTE   As3
 BYTE   W06
 BYTE   Cn4  v105
 BYTE   W12
 BYTE   Cn4  v106
 BYTE   W06
 BYTE   As3  v104
 BYTE   W06
 BYTE   Gs3  v108
 BYTE   W06
//  #04 //048   ----------------------------------------
 BYTE   W96
//  #04 //049   ----------------------------------------
 BYTE   W48
 BYTE   Cn4  v109
 BYTE   W06
 BYTE   Cs4  v110
 BYTE   W06
 BYTE   Ds4  v104
 BYTE   W06
 BYTE   Fn4  v109
 BYTE   W12
 BYTE   Cs4  v110
 BYTE   W06
 BYTE   Ds4  v104
 BYTE   W06
 BYTE   Fn4
 BYTE   W06
//  #04 //050   ----------------------------------------
 BYTE   W48
 BYTE   Fn4  v111
 BYTE   W06
 BYTE   Gs4  v106
 BYTE   W06
 BYTE   As4  v109
 BYTE   W06
 BYTE   Cn5  v111
 BYTE   W12
 BYTE   Cn5  v106
 BYTE   W06
 BYTE   As4  v105
 BYTE   W06
 BYTE   Gs4
 BYTE   W06
//  #04 //051   ----------------------------------------
 BYTE   W48
 BYTE   Fn4  v104
 BYTE   W06
 BYTE   Gs4  v108
 BYTE   W06
 BYTE   As4  v109
 BYTE   W06
 BYTE   Cn5  v108
 BYTE   W12
 BYTE   Cn5  v109
 BYTE   W06
 BYTE   As4  v111
 BYTE   W06
 BYTE   Gs4  v106
 BYTE   W06
//  #04 //052   ----------------------------------------
 BYTE   W96
//  #04 //053   ----------------------------------------
 BYTE   W96
//  #04 //054   ----------------------------------------
 BYTE   GoTo
  POIN2 Label_012B8EC1
//  #04 //055   ----------------------------------------
 BYTE   W10
 BYTE   FINE

//**************** Track 5 (Midi-Chn.4) ****************//

EienNoIczer_005:
//  #05 //000   ----------------------------------------
 BYTE   KEYSH   EienNoIczer_key+0
 BYTE   VOICE   97
 BYTE   BENDR  12
 BYTE   VOL   47*EienNoIczer_mvl/mxv
 BYTE   PAN   c_v+24
 BYTE   W96
//  #05 //001   ----------------------------------------
 BYTE   W96
//  #05 //002   ----------------------------------------
 BYTE   W96
//  #05 //003   ----------------------------------------
 BYTE   W96
//  #05 //004   ----------------------------------------
 BYTE   W96
//  #05 //005   ----------------------------------------
 BYTE   W96
//  #05 //006   ----------------------------------------
 BYTE   W96
//  #05 //007   ----------------------------------------
 BYTE   W96
//  #05 //008   ----------------------------------------
Label_0125E37A:
 BYTE   W96
//  #05 //009   ----------------------------------------
 BYTE   W96
//  #05 //010   ----------------------------------------
 BYTE   W96
//  #05 //011   ----------------------------------------
 BYTE   W24
 BYTE   N12  Cn4  v069
 BYTE   W12
 BYTE   N04  Ds4  v070
 BYTE   W12
 BYTE   VOL   38*EienNoIczer_mvl/mxv
 BYTE   N12  Cn4  v073
 BYTE   W12
 BYTE   N04  Ds4  v071
 BYTE   W12
 BYTE   VOL   30*EienNoIczer_mvl/mxv
 BYTE   N12  Cn4  v067
 BYTE   W12
 BYTE   N04  Ds4  v068
 BYTE   W12
//  #05 //012   ----------------------------------------
 BYTE   VOL   21*EienNoIczer_mvl/mxv
 BYTE   N12  Cn4  v071
 BYTE   W12
 BYTE   N04  Ds4  v068
 BYTE   W12
 BYTE   VOL   17*EienNoIczer_mvl/mxv
 BYTE   N12  Cn4  v070
 BYTE   W12
 BYTE   N04  Ds4  v068
 BYTE   W12
 BYTE   VOL   13*EienNoIczer_mvl/mxv
 BYTE   N12  Cn4
 BYTE   W12
 BYTE   N04  Ds4  v070
 BYTE   W12
 BYTE   VOL   9*EienNoIczer_mvl/mxv
 BYTE   N12  Cn4  v069
 BYTE   W12
 BYTE   N04  Ds4
 BYTE   W12
//  #05 //013   ----------------------------------------
 BYTE   W96
//  #05 //014   ----------------------------------------
 BYTE   W96
//  #05 //015   ----------------------------------------
 BYTE   VOL   47*EienNoIczer_mvl/mxv
 BYTE   N12  Ds4  v068
 BYTE   W12
 BYTE   N04  Cn4  v067
 BYTE   W12
 BYTE   VOL   38*EienNoIczer_mvl/mxv
 BYTE   N12  Ds4  v070
 BYTE   W12
 BYTE   N04  Cn4  v067
 BYTE   W12
 BYTE   VOL   30*EienNoIczer_mvl/mxv
 BYTE   N12  Ds4  v072
 BYTE   W12
 BYTE   N04  Cn4  v068
 BYTE   W12
 BYTE   VOL   21*EienNoIczer_mvl/mxv
 BYTE   N12  Ds4
 BYTE   W12
 BYTE   N04  Cn4  v067
 BYTE   W12
//  #05 //016   ----------------------------------------
 BYTE   VOL   17*EienNoIczer_mvl/mxv
 BYTE   N12  Ds4
 BYTE   W12
 BYTE   N04  Cn4  v072
 BYTE   W12
 BYTE   VOL   13*EienNoIczer_mvl/mxv
 BYTE   N12  Ds4  v073
 BYTE   W12
 BYTE   N04  Cn4  v069
 BYTE   W12
 BYTE   VOL   9*EienNoIczer_mvl/mxv
 BYTE   N12  Ds4  v067
 BYTE   W12
 BYTE   N04  Cn4  v069
 BYTE   W36
//  #05 //017   ----------------------------------------
 BYTE   W96
//  #05 //018   ----------------------------------------
 BYTE   W96
//  #05 //019   ----------------------------------------
 BYTE   W96
//  #05 //020   ----------------------------------------
 BYTE   W96
//  #05 //021   ----------------------------------------
 BYTE   W96
//  #05 //022   ----------------------------------------
 BYTE   W96
//  #05 //023   ----------------------------------------
 BYTE   W96
//  #05 //024   ----------------------------------------
 BYTE   W96
//  #05 //025   ----------------------------------------
 BYTE   W96
//  #05 //026   ----------------------------------------
 BYTE   W96
//  #05 //027   ----------------------------------------
 BYTE   W96
//  #05 //028   ----------------------------------------
 BYTE   W96
//  #05 //029   ----------------------------------------
 BYTE   W96
//  #05 //030   ----------------------------------------
 BYTE   W96
//  #05 //031   ----------------------------------------
 BYTE   W96
//  #05 //032   ----------------------------------------
 BYTE   W96
//  #05 //033   ----------------------------------------
 BYTE   W96
//  #05 //034   ----------------------------------------
 BYTE   W96
//  #05 //035   ----------------------------------------
 BYTE   W96
//  #05 //036   ----------------------------------------
 BYTE   W96
//  #05 //037   ----------------------------------------
 BYTE   W96
//  #05 //038   ----------------------------------------
 BYTE   W96
//  #05 //039   ----------------------------------------
 BYTE   W96
//  #05 //040   ----------------------------------------
 BYTE   W96
//  #05 //041   ----------------------------------------
 BYTE   W96
//  #05 //042   ----------------------------------------
 BYTE   W96
//  #05 //043   ----------------------------------------
 BYTE   W96
//  #05 //044   ----------------------------------------
 BYTE   W96
//  #05 //045   ----------------------------------------
 BYTE   W96
//  #05 //046   ----------------------------------------
 BYTE   W96
//  #05 //047   ----------------------------------------
 BYTE   W96
//  #05 //048   ----------------------------------------
 BYTE   W96
//  #05 //049   ----------------------------------------
 BYTE   W96
//  #05 //050   ----------------------------------------
 BYTE   W96
//  #05 //051   ----------------------------------------
 BYTE   W96
//  #05 //052   ----------------------------------------
 BYTE   W96
//  #05 //053   ----------------------------------------
 BYTE   W96
//  #05 //054   ----------------------------------------
 BYTE   VOL   47*EienNoIczer_mvl/mxv
 BYTE   GoTo
  POIN2 Label_0125E37A
//  #05 //055   ----------------------------------------
 BYTE   W10
 BYTE   FINE

//**************** Track 6 (Midi-Chn.5) ****************//

EienNoIczer_006:
//  #06 //000   ----------------------------------------
 BYTE   KEYSH   EienNoIczer_key+0
 BYTE   VOICE   103
 BYTE   BENDR  12
 BYTE   VOL   34*EienNoIczer_mvl/mxv
 BYTE   W96
//  #06 //001   ----------------------------------------
 BYTE   W96
//  #06 //002   ----------------------------------------
 BYTE   W96
//  #06 //003   ----------------------------------------
 BYTE   W96
//  #06 //004   ----------------------------------------
 BYTE   W96
//  #06 //005   ----------------------------------------
 BYTE   W96
//  #06 //006   ----------------------------------------
 BYTE   W96
//  #06 //007   ----------------------------------------
 BYTE   W96
//  #06 //008   ----------------------------------------
Label_0128220C:
 BYTE   W12
 BYTE   VOL   28*EienNoIczer_mvl/mxv
 BYTE   N03  Fn2  v076
 BYTE   W36
 BYTE   Fn2  v072
 BYTE   W18
 BYTE   Fn2
 BYTE   W30
//  #06 //009   ----------------------------------------
 BYTE   W12
 BYTE   Fn2  v075
 BYTE   W36
 BYTE   Fn2
 BYTE   W18
 BYTE   Fn2  v074
 BYTE   W30
//  #06 //010   ----------------------------------------
 BYTE   W12
 BYTE   Cn2  v075
 BYTE   W36
 BYTE   Cn2  v071
 BYTE   W18
 BYTE   Cn2  v072
 BYTE   W30
//  #06 //011   ----------------------------------------
 BYTE   W12
 BYTE   Cn2
 BYTE   W36
 BYTE   Cn2  v071
 BYTE   W18
 BYTE   Cn2  v076
 BYTE   W30
//  #06 //012   ----------------------------------------
 BYTE   W12
 BYTE   Cs2  v072
 BYTE   W36
 BYTE   Cs2  v071
 BYTE   W18
 BYTE   Cs2  v072
 BYTE   W30
//  #06 //013   ----------------------------------------
 BYTE   W12
 BYTE   Cs2  v074
 BYTE   W36
 BYTE   Cs2  v071
 BYTE   W18
 BYTE   Cs2  v072
 BYTE   W30
//  #06 //014   ----------------------------------------
 BYTE   W12
 BYTE   Cn2  v076
 BYTE   W36
 BYTE   Cn2
 BYTE   W18
 BYTE   Cn2  v071
 BYTE   W30
//  #06 //015   ----------------------------------------
 BYTE   W12
 BYTE   Cn2  v075
 BYTE   W36
 BYTE   Cn2  v076
 BYTE   W18
 BYTE   Cn2  v075
 BYTE   W30
//  #06 //016   ----------------------------------------
 BYTE   W12
 BYTE   Fn2
 BYTE   W36
 BYTE   Fn2
 BYTE   W18
 BYTE   Fn2
 BYTE   W30
//  #06 //017   ----------------------------------------
 BYTE   W12
 BYTE   Fn2  v072
 BYTE   W36
 BYTE   Fn2  v071
 BYTE   W18
 BYTE   Fn2  v075
 BYTE   W30
//  #06 //018   ----------------------------------------
 BYTE   W12
 BYTE   Cn2
 BYTE   W36
 BYTE   Cn2  v072
 BYTE   W18
 BYTE   Cn2
 BYTE   W30
//  #06 //019   ----------------------------------------
 BYTE   W12
 BYTE   Cn2
 BYTE   W36
 BYTE   Cn2  v076
 BYTE   W18
 BYTE   Cn2  v075
 BYTE   W30
//  #06 //020   ----------------------------------------
 BYTE   N84  Cs2  v093
 BYTE   N84  Gs2  v090
 BYTE   W78
 BYTE   BEND   c_v+5
 BYTE   W05
 BYTE   BEND   c_v+10
 BYTE   W01
 BYTE   BEND   c_v+0
 BYTE   TIE  Ds2  v089
 BYTE   TIE  As2  v093
 BYTE   W12
//  #06 //021   ----------------------------------------
 BYTE   W84
 BYTE   W02
 BYTE   BEND   c_v-6
 BYTE   W03
 BYTE   BEND   c_v-12
 BYTE   W02
 BYTE   BEND   c_v-17
 BYTE   W03
 BYTE   BEND   c_v-23
 BYTE   W02
//  #06 //022   ----------------------------------------
 BYTE   EOT
 BYTE   Ds2  v058
 BYTE   BEND   c_v+0
 BYTE   N72  Gs1  v089
 BYTE   N72  Ds2  v087
 BYTE   W72
 BYTE   N12  Gs1  v090
 BYTE   N12  Ds2  v068
 BYTE   W12
 BYTE   TIE  Cn2  v091
 BYTE   TIE  Gn2  v088
 BYTE   W12
//  #06 //023   ----------------------------------------
 BYTE   W48
 BYTE   VOL   27*EienNoIczer_mvl/mxv
 BYTE   W15
 BYTE   VOL   26*EienNoIczer_mvl/mxv
 BYTE   W06
 BYTE   VOL   25*EienNoIczer_mvl/mxv
 BYTE   W06
 BYTE   VOL   24*EienNoIczer_mvl/mxv
 BYTE   W03
 BYTE   VOL   23*EienNoIczer_mvl/mxv
 BYTE   W03
 BYTE   VOL   22*EienNoIczer_mvl/mxv
 BYTE   W03
 BYTE   VOL   21*EienNoIczer_mvl/mxv
 BYTE   W02
 BYTE   VOL   20*EienNoIczer_mvl/mxv
 BYTE   W02
 BYTE   VOL   19*EienNoIczer_mvl/mxv
 BYTE   W02
 BYTE   VOL   18*EienNoIczer_mvl/mxv
 BYTE   W02
 BYTE   VOL   17*EienNoIczer_mvl/mxv
 BYTE   W02
 BYTE   VOL   16*EienNoIczer_mvl/mxv
 BYTE   W01
 BYTE   VOL   15*EienNoIczer_mvl/mxv
 BYTE   W01
//  #06 //024   ----------------------------------------
 BYTE   EOT
 BYTE   Cn2  v055
 BYTE   VOL   14*EienNoIczer_mvl/mxv
 BYTE   W96
//  #06 //025   ----------------------------------------
 BYTE   W96
//  #06 //026   ----------------------------------------
 BYTE   W96
//  #06 //027   ----------------------------------------
 BYTE   W96
//  #06 //028   ----------------------------------------
 BYTE   W96
//  #06 //029   ----------------------------------------
 BYTE   W96
//  #06 //030   ----------------------------------------
 BYTE   W96
//  #06 //031   ----------------------------------------
 BYTE   W96
//  #06 //032   ----------------------------------------
 BYTE   W96
//  #06 //033   ----------------------------------------
 BYTE   W96
//  #06 //034   ----------------------------------------
 BYTE   W96
//  #06 //035   ----------------------------------------
 BYTE   W96
//  #06 //036   ----------------------------------------
 BYTE   W96
//  #06 //037   ----------------------------------------
 BYTE   W96
//  #06 //038   ----------------------------------------
 BYTE   W96
//  #06 //039   ----------------------------------------
 BYTE   W96
//  #06 //040   ----------------------------------------
 BYTE   W96
//  #06 //041   ----------------------------------------
 BYTE   W78
 BYTE   W01
 BYTE   VOL   34*EienNoIczer_mvl/mxv
 BYTE   W03
 BYTE   N03  Gs1  v122
 BYTE   W02
 BYTE   BEND   c_v-15
 BYTE   N03  Ds2  v121
 BYTE   W01
 BYTE   BEND   c_v-14
 BYTE   W01
 BYTE   BEND   c_v-13
 BYTE   N03  Gs2  v124
 BYTE   W01
 BYTE   BEND   c_v-12
 BYTE   W01
 BYTE   TIE  Fn3  v127
 BYTE   W01
 BYTE   BEND   c_v-11
 BYTE   W01
 BYTE   BEND   c_v-10
 BYTE   W01
 BYTE   BEND   c_v-9
 BYTE   W01
 BYTE   BEND   c_v-8
 BYTE   W02
 BYTE   BEND   c_v-7
 BYTE   W01
 BYTE   BEND   c_v-6
 BYTE   W01
//  #06 //042   ----------------------------------------
 BYTE   BEND   c_v-5
 BYTE   W01
 BYTE   BEND   c_v-4
 BYTE   W02
 BYTE   BEND   c_v-3
 BYTE   W01
 BYTE   BEND   c_v-2
 BYTE   W01
 BYTE   BEND   c_v-1
 BYTE   W01
 BYTE   BEND   c_v+0
 BYTE   W10
 BYTE   BEND   c_v+1
 BYTE   W03
 BYTE   BEND   c_v+0
 BYTE   W05
 BYTE   BEND   c_v+1
 BYTE   W03
 BYTE   BEND   c_v+2
 BYTE   W01
 BYTE   BEND   c_v+1
 BYTE   W02
 BYTE   BEND   c_v+0
 BYTE   W06
 BYTE   BEND   c_v+1
 BYTE   W06
 BYTE   BEND   c_v+0
 BYTE   W05
 BYTE   BEND   c_v+1
 BYTE   W03
 BYTE   BEND   c_v+2
 BYTE   W01
 BYTE   BEND   c_v+1
 BYTE   W02
 BYTE   BEND   c_v+0
 BYTE   W06
 BYTE   BEND   c_v+1
 BYTE   W06
 BYTE   BEND   c_v+0
 BYTE   W05
 BYTE   BEND   c_v+1
 BYTE   W03
 BYTE   BEND   c_v+2
 BYTE   W01
 BYTE   BEND   c_v+1
 BYTE   W02
 BYTE   BEND   c_v+0
 BYTE   W04
 BYTE   BEND   c_v-1
 BYTE   W05
 BYTE   BEND   c_v-2
 BYTE   W03
 BYTE   BEND   c_v-4
 BYTE   W02
 BYTE   BEND   c_v-9
 BYTE   W03
 BYTE   BEND   c_v-18
 BYTE   W02
 BYTE   EOT
 BYTE   BEND   c_v-34
 BYTE   W01
//  #06 //043   ----------------------------------------
 BYTE   BEND   c_v-37
 BYTE   N02  Cn3
 BYTE   W01
 BYTE   BEND   c_v-12
 BYTE   N03  Cn2
 BYTE   W01
 BYTE   BEND   c_v-10
 BYTE   W01
 BYTE   BEND   c_v-8
 BYTE   N11  Ds3
 BYTE   W01
 BYTE   BEND   c_v-5
 BYTE   W01
 BYTE   BEND   c_v-3
 BYTE   W01
 BYTE   BEND   c_v+0
 BYTE   W06
 BYTE   N11  Cn3
 BYTE   W12
 BYTE   Cn3
 BYTE   W12
 BYTE   Ds3
 BYTE   W12
 BYTE   Cn3
 BYTE   W12
 BYTE   Cn3
 BYTE   W12
 BYTE   BEND   c_v+10
 BYTE   N11  As2
 BYTE   W06
 BYTE   BEND   c_v+0
 BYTE   W06
 BYTE   N06  Gs2
 BYTE   W06
 BYTE   Fn2
 BYTE   W06
//  #06 //044   ----------------------------------------
 BYTE   N11  As2
 BYTE   W12
 BYTE   N84  Gs2
 BYTE   W15
 BYTE   BEND   c_v+1
 BYTE   W03
 BYTE   BEND   c_v+0
 BYTE   W05
 BYTE   BEND   c_v+1
 BYTE   W03
 BYTE   BEND   c_v+2
 BYTE   W01
 BYTE   BEND   c_v+1
 BYTE   W02
 BYTE   BEND   c_v+0
 BYTE   W06
 BYTE   BEND   c_v+1
 BYTE   W06
 BYTE   BEND   c_v+0
 BYTE   W05
 BYTE   BEND   c_v+1
 BYTE   W04
 BYTE   BEND   c_v+0
 BYTE   W03
 BYTE   BEND   c_v-2
 BYTE   W02
 BYTE   BEND   c_v-5
 BYTE   W03
 BYTE   BEND   c_v-10
 BYTE   W02
 BYTE   BEND   c_v-15
 BYTE   W03
 BYTE   BEND   c_v-22
 BYTE   W02
 BYTE   BEND   c_v-31
 BYTE   W01
 BYTE   BEND   c_v-32
 BYTE   W02
 BYTE   BEND   c_v-37
 BYTE   W03
 BYTE   BEND   c_v-36
 BYTE   W02
 BYTE   BEND   c_v-31
 BYTE   W03
 BYTE   BEND   c_v-22
 BYTE   W02
 BYTE   BEND   c_v-8
 BYTE   W03
 BYTE   BEND   c_v+14
 BYTE   W02
 BYTE   BEND   c_v+44
 BYTE   W01
//  #06 //045   ----------------------------------------
 BYTE   BEND   c_v+0
 BYTE   N02  Ds2  v119
 BYTE   N02  As2  v117
 BYTE   W06
 BYTE   Ds2  v123
 BYTE   N02  As2
 BYTE   W06
 BYTE   N11  Gs1  v095
 BYTE   W01
 BYTE   BEND   c_v-12
 BYTE   W01
 BYTE   BEND   c_v-20
 BYTE   W01
 BYTE   BEND   c_v-25
 BYTE   W01
 BYTE   BEND   c_v-29
 BYTE   W01
 BYTE   BEND   c_v-31
 BYTE   W01
 BYTE   BEND   c_v-32
 BYTE   W01
 BYTE   BEND   c_v-33
 BYTE   W05
 BYTE   N11  Fn3  v127
 BYTE   W01
 BYTE   BEND   c_v-11
 BYTE   W02
 BYTE   BEND   c_v-10
 BYTE   W02
 BYTE   BEND   c_v-9
 BYTE   W01
 BYTE   BEND   c_v-8
 BYTE   W02
 BYTE   BEND   c_v-6
 BYTE   W01
 BYTE   BEND   c_v-5
 BYTE   W01
 BYTE   BEND   c_v-4
 BYTE   W01
 BYTE   BEND   c_v-2
 BYTE   W01
 BYTE   BEND   c_v+0
 BYTE   N06  Ds3
 BYTE   W06
 BYTE   As2
 BYTE   W06
 BYTE   N11  Ds2
 BYTE   W12
 BYTE   BEND   c_v-13
 BYTE   TIE  As3
 BYTE   W05
 BYTE   BEND   c_v-12
 BYTE   W02
 BYTE   BEND   c_v-11
 BYTE   W02
 BYTE   BEND   c_v-10
 BYTE   W01
 BYTE   BEND   c_v-9
 BYTE   W02
 BYTE   BEND   c_v-8
 BYTE   W01
 BYTE   BEND   c_v-7
 BYTE   W01
 BYTE   BEND   c_v-6
 BYTE   W01
 BYTE   BEND   c_v-4
 BYTE   W01
 BYTE   BEND   c_v-3
 BYTE   W01
 BYTE   BEND   c_v-2
 BYTE   W01
 BYTE   BEND   c_v+0
 BYTE   W15
 BYTE   BEND   c_v+1
 BYTE   W03
//  #06 //046   ----------------------------------------
 BYTE   BEND   c_v+0
 BYTE   W05
 BYTE   BEND   c_v+1
 BYTE   W03
 BYTE   BEND   c_v+2
 BYTE   W01
 BYTE   BEND   c_v+1
 BYTE   W02
 BYTE   BEND   c_v+0
 BYTE   W06
 BYTE   BEND   c_v+1
 BYTE   W06
 BYTE   BEND   c_v+0
 BYTE   W05
 BYTE   BEND   c_v+1
 BYTE   W03
 BYTE   BEND   c_v+2
 BYTE   W01
 BYTE   BEND   c_v+1
 BYTE   W02
 BYTE   BEND   c_v+0
 BYTE   W22
 BYTE   BEND   c_v-1
 BYTE   W03
 BYTE   BEND   c_v-5
 BYTE   W02
 BYTE   BEND   c_v-16
 BYTE   W03
 BYTE   BEND   c_v-38
 BYTE   W02
 BYTE   EOT
 BYTE   BEND   c_v+0
 BYTE   N02  Cn2  v106
 BYTE   W02
 BYTE   Gn2  v107
 BYTE   W02
 BYTE   Cn3  v112
 BYTE   W02
 BYTE   N12  Fn3  v127
 BYTE   W12
 BYTE   N48  Ds3  v126
 BYTE   W12
//  #06 //047   ----------------------------------------
 BYTE   W01
 BYTE   BEND   c_v+6
 BYTE   W01
 BYTE   BEND   c_v+9
 BYTE   W01
 BYTE   BEND   c_v+10
 BYTE   W01
 BYTE   BEND   c_v+11
 BYTE   W03
 BYTE   BEND   c_v+9
 BYTE   W01
 BYTE   BEND   c_v+7
 BYTE   W01
 BYTE   BEND   c_v+5
 BYTE   W01
 BYTE   BEND   c_v+4
 BYTE   W01
 BYTE   BEND   c_v+2
 BYTE   W01
 BYTE   BEND   c_v+0
 BYTE   W09
 BYTE   BEND   c_v+1
 BYTE   W03
 BYTE   BEND   c_v+0
 BYTE   W05
 BYTE   BEND   c_v+1
 BYTE   W03
 BYTE   BEND   c_v+3
 BYTE   W01
 BYTE   BEND   c_v+1
 BYTE   W02
 BYTE   BEND   c_v+0
 BYTE   W01
 BYTE   N12  Cn3  v127
 BYTE   W12
 BYTE   N06
 BYTE   W06
 BYTE   Cn3
 BYTE   W06
 BYTE   Fn3
 BYTE   W06
 BYTE   Cn3
 BYTE   W06
 BYTE   Ds3
 BYTE   W06
 BYTE   Cn3
 BYTE   W06
 BYTE   As2
 BYTE   W06
 BYTE   Gs2
 BYTE   W06
//  #06 //048   ----------------------------------------
 BYTE   N12  As2
 BYTE   W06
 BYTE   BEND   c_v-11
 BYTE   W06
 BYTE   BEND   c_v+0
 BYTE   N06  Fn2
 BYTE   W06
 BYTE   N36  Gs2
 BYTE   W15
 BYTE   BEND   c_v+1
 BYTE   W03
 BYTE   BEND   c_v+0
 BYTE   W05
 BYTE   BEND   c_v+1
 BYTE   W03
 BYTE   BEND   c_v+2
 BYTE   W01
 BYTE   BEND   c_v+1
 BYTE   W02
 BYTE   BEND   c_v+0
 BYTE   W02
 BYTE   BEND   c_v-10
 BYTE   W01
 BYTE   BEND   c_v-20
 BYTE   W01
 BYTE   BEND   c_v-30
 BYTE   W01
 BYTE   BEND   c_v-39
 BYTE   W01
 BYTE   BEND   c_v-49
 BYTE   W01
 BYTE   BEND   c_v+0
 BYTE   N06  Fn1
 BYTE   W06
 BYTE   Fn1
 BYTE   W06
 BYTE   Gn1
 BYTE   W06
 BYTE   Gs1
 BYTE   W06
 BYTE   As1
 BYTE   W06
 BYTE   Cn2
 BYTE   W06
 BYTE   Cs2
 BYTE   W06
//  #06 //049   ----------------------------------------
 BYTE   N11  Cn2
 BYTE   W12
 BYTE   N06
 BYTE   W06
 BYTE   N11  Ds2
 BYTE   W18
 BYTE   Cn3  v122
 BYTE   W24
 BYTE   BEND   c_v-11
 BYTE   N11  Fn3  v127
 BYTE   W06
 BYTE   BEND   c_v+0
 BYTE   W06
 BYTE   N06  Gs3
 BYTE   W12
 BYTE   As3
 BYTE   W12
//  #06 //050   ----------------------------------------
 BYTE   BEND   c_v-10
 BYTE   N44  Cn4  v127  gtp3
 BYTE   W03
 BYTE   BEND   c_v-9
 BYTE   W01
 BYTE   BEND   c_v-8
 BYTE   W01
 BYTE   BEND   c_v-5
 BYTE   W01
 BYTE   BEND   c_v+0
 BYTE   W09
 BYTE   BEND   c_v-3
 BYTE   W03
 BYTE   BEND   c_v-5
 BYTE   W05
 BYTE   BEND   c_v-3
 BYTE   W03
 BYTE   BEND   c_v+0
 BYTE   W22
 BYTE   BEND   c_v-12
 BYTE   N11
 BYTE   W01
 BYTE   BEND   c_v-10
 BYTE   W01
 BYTE   BEND   c_v-8
 BYTE   W01
 BYTE   BEND   c_v-6
 BYTE   W01
 BYTE   BEND   c_v-4
 BYTE   W01
 BYTE   BEND   c_v-2
 BYTE   W01
 BYTE   BEND   c_v+0
 BYTE   W01
 BYTE   BEND   c_v-7
 BYTE   W01
 BYTE   BEND   c_v-10
 BYTE   W01
 BYTE   BEND   c_v-11
 BYTE   W03
 BYTE   BEND   c_v+0
 BYTE   N06  Gs3
 BYTE   W06
 BYTE   Fn3
 BYTE   W06
 BYTE   Ds3
 BYTE   W06
 BYTE   As3
 BYTE   W06
 BYTE   BEND   c_v-10
 BYTE   N60  Cn4
 BYTE   W03
 BYTE   BEND   c_v-9
 BYTE   W01
 BYTE   BEND   c_v-8
 BYTE   W01
 BYTE   BEND   c_v-5
 BYTE   W01
 BYTE   BEND   c_v+0
 BYTE   W06
//  #06 //051   ----------------------------------------
 BYTE   W03
 BYTE   BEND   c_v-3
 BYTE   W03
 BYTE   BEND   c_v-5
 BYTE   W05
 BYTE   BEND   c_v-3
 BYTE   W03
 BYTE   BEND   c_v+0
 BYTE   W32
 BYTE   W02
 BYTE   BEND   c_v-12
 BYTE   N11
 BYTE   W01
 BYTE   BEND   c_v-10
 BYTE   W01
 BYTE   BEND   c_v-8
 BYTE   W01
 BYTE   BEND   c_v-6
 BYTE   W01
 BYTE   BEND   c_v-4
 BYTE   W01
 BYTE   BEND   c_v-2
 BYTE   W01
 BYTE   BEND   c_v+0
 BYTE   W01
 BYTE   BEND   c_v-7
 BYTE   W01
 BYTE   BEND   c_v-10
 BYTE   W01
 BYTE   BEND   c_v-11
 BYTE   W03
 BYTE   BEND   c_v+0
 BYTE   N06  Gs3
 BYTE   W06
 BYTE   Fn3
 BYTE   W06
 BYTE   Ds3
 BYTE   W06
 BYTE   As3
 BYTE   W06
 BYTE   BEND   c_v-10
 BYTE   N72  Cn4
 BYTE   W03
 BYTE   BEND   c_v-9
 BYTE   W01
 BYTE   BEND   c_v-8
 BYTE   W01
 BYTE   BEND   c_v-5
 BYTE   W01
 BYTE   BEND   c_v+0
 BYTE   W06
//  #06 //052   ----------------------------------------
 BYTE   W03
 BYTE   BEND   c_v-3
 BYTE   W03
 BYTE   BEND   c_v-5
 BYTE   W05
 BYTE   BEND   c_v-3
 BYTE   W03
 BYTE   BEND   c_v+0
 BYTE   W44
 BYTE   W02
 BYTE   N11  Gs3
 BYTE   W12
 BYTE   N07  As3
 BYTE   W12
 BYTE   BEND   c_v-10
 BYTE   TIE  Cn4
 BYTE   W03
 BYTE   BEND   c_v-9
 BYTE   W01
 BYTE   BEND   c_v-8
 BYTE   W01
 BYTE   BEND   c_v-5
 BYTE   W01
 BYTE   BEND   c_v+0
 BYTE   W06
//  #06 //053   ----------------------------------------
 BYTE   W03
 BYTE   BEND   c_v-3
 BYTE   W03
 BYTE   BEND   c_v-5
 BYTE   W05
 BYTE   BEND   c_v-3
 BYTE   W03
 BYTE   BEND   c_v+0
 BYTE   W52
 BYTE   VOL   33*EienNoIczer_mvl/mxv
 BYTE   W02
 BYTE   BEND   c_v-6
 BYTE   W03
 BYTE   BEND   c_v-11
 BYTE   W02
 BYTE   BEND   c_v-16
 BYTE   W03
 BYTE   BEND   c_v-22
 BYTE   VOL   32*EienNoIczer_mvl/mxv
 BYTE   W02
 BYTE   BEND   c_v-27
 BYTE   W01
 BYTE   VOL   31*EienNoIczer_mvl/mxv
 BYTE   W02
 BYTE   BEND   c_v-32
 BYTE   VOL   30*EienNoIczer_mvl/mxv
 BYTE   W02
 BYTE   VOL   29*EienNoIczer_mvl/mxv
 BYTE   BEND   c_v-38
 BYTE   W02
 BYTE   VOL   28*EienNoIczer_mvl/mxv
 BYTE   W01
 BYTE   BEND   c_v-43
 BYTE   VOL   27*EienNoIczer_mvl/mxv
 BYTE   W01
 BYTE   VOL   26*EienNoIczer_mvl/mxv
 BYTE   W01
 BYTE   VOL   25*EienNoIczer_mvl/mxv
 BYTE   BEND   c_v-48
 BYTE   W01
 BYTE   VOL   24*EienNoIczer_mvl/mxv
 BYTE   W01
 BYTE   VOL   22*EienNoIczer_mvl/mxv
 BYTE   W01
 BYTE   BEND   c_v-54
 BYTE   VOL   21*EienNoIczer_mvl/mxv
 BYTE   W01
 BYTE   VOL   19*EienNoIczer_mvl/mxv
 BYTE   W01
 BYTE   VOL   18*EienNoIczer_mvl/mxv
 BYTE   BEND   c_v-59
 BYTE   W01
 BYTE   VOL   16*EienNoIczer_mvl/mxv
 BYTE   W01
 BYTE   VOL   14*EienNoIczer_mvl/mxv
 BYTE   W01
//  #06 //054   ----------------------------------------
 BYTE   EOT
 BYTE   VOL   34*EienNoIczer_mvl/mxv
 BYTE   BEND   c_v+0
 BYTE   GoTo
  POIN2 Label_0128220C
//  #06 //055   ----------------------------------------
 BYTE   W10
 BYTE   FINE

//**************** Track 7 (Midi-Chn.6) ****************//

EienNoIczer_007:
//  #07 //000   ----------------------------------------
 BYTE   KEYSH   EienNoIczer_key+0
 BYTE   VOICE   43
 BYTE   PAN   c_v-1
 BYTE   BENDR  12
 BYTE   VOL   54*EienNoIczer_mvl/mxv
 BYTE   MOD 2
 BYTE   W96
//  #07 //001   ----------------------------------------
 BYTE   W96
//  #07 //002   ----------------------------------------
 BYTE   W96
//  #07 //003   ----------------------------------------
 BYTE   W96
//  #07 //004   ----------------------------------------
 BYTE   W96
//  #07 //005   ----------------------------------------
 BYTE   W96
//  #07 //006   ----------------------------------------
 BYTE   W96
//  #07 //007   ----------------------------------------
Label_0125EEE3:
 BYTE   W84
 BYTE   N22  Cn4  v104
 BYTE   W12
 BYTE   PEND 
//  #07 //008   ----------------------------------------
Label_0125EEE9:
 BYTE   W12
 BYTE   N10  Fn4  v109
 BYTE   W12
 BYTE   Gn4
 BYTE   W12
 BYTE   Gs4  v105
 BYTE   W12
 BYTE   Gn4  v104
 BYTE   W12
 BYTE   N22  Fn4  v110
 BYTE   W24
 BYTE   N10  Fn4  v109
 BYTE   W12
//  #07 //009   ----------------------------------------
 BYTE   Gs4  v106
 BYTE   W12
 BYTE   Gs4  v108
 BYTE   W12
 BYTE   Gn4  v111
 BYTE   W12
 BYTE   N32  Fn4  v111  gtp2
 BYTE   W60
//  #07 //010   ----------------------------------------
 BYTE   W24
 BYTE   N10  Ds4  v109
 BYTE   W12
 BYTE   Ds4  v108
 BYTE   W12
 BYTE   Fn4  v104
 BYTE   W12
 BYTE   N22  Ds4  v108
 BYTE   W24
 BYTE   N10  Ds4  v104
 BYTE   W12
//  #07 //011   ----------------------------------------
 BYTE   Cn4  v105
 BYTE   W12
 BYTE   N32  Ds4  v111  gtp2
 BYTE   W72
 BYTE   N22
 BYTE   W12
//  #07 //012   ----------------------------------------
 BYTE   W12
 BYTE   N10  Cs4  v104
 BYTE   W12
 BYTE   Cn4  v110
 BYTE   W12
 BYTE   N14  Cs4  v104
 BYTE   W24
 BYTE   N22  Cs4  v111
 BYTE   W24
 BYTE   N10
 BYTE   W12
//  #07 //013   ----------------------------------------
 BYTE   Ds4  v104
 BYTE   W12
 BYTE   Cs4  v109
 BYTE   W12
 BYTE   Cn4  v110
 BYTE   W12
 BYTE   N32  Cs4  v105  gtp2
 BYTE   W60
//  #07 //014   ----------------------------------------
 BYTE   W24
 BYTE   N10  Cn4
 BYTE   W12
 BYTE   Cn4  v109
 BYTE   W12
 BYTE   Cn4  v110
 BYTE   W12
 BYTE   Cn4
 BYTE   W12
 BYTE   Ds4  v109
 BYTE   W12
 BYTE   N32  Cn4  v109  gtp2
 BYTE   W12
//  #07 //015   ----------------------------------------
 BYTE   PATT
  POIN2 Label_0125EEE3
//  #07 //016   ----------------------------------------
 BYTE   W12
 BYTE   N10  Fn4  v110
 BYTE   W12
 BYTE   Gn4  v111
 BYTE   W12
 BYTE   Gs4  v105
 BYTE   W12
 BYTE   Gn4
 BYTE   W12
 BYTE   N22  Fn4  v110
 BYTE   W24
 BYTE   N10  Fn4  v109
 BYTE   W12
//  #07 //017   ----------------------------------------
 BYTE   Gs4  v104
 BYTE   W12
 BYTE   Gs4  v108
 BYTE   W12
 BYTE   Gn4  v105
 BYTE   W12
 BYTE   N32  Fn4  v106  gtp2
 BYTE   W60
//  #07 //018   ----------------------------------------
 BYTE   W24
 BYTE   N10  Ds4  v104
 BYTE   W12
 BYTE   Ds4  v110
 BYTE   W12
 BYTE   Fn4  v111
 BYTE   W12
 BYTE   N22  Ds4  v110
 BYTE   W24
 BYTE   N10
 BYTE   W12
//  #07 //019   ----------------------------------------
 BYTE   Cn4
 BYTE   W12
 BYTE   N32  Ds4  v109  gtp2
 BYTE   W84
//  #07 //020   ----------------------------------------
 BYTE   N22  Fn4  v110
 BYTE   W24
 BYTE   N10  Fn4  v105
 BYTE   W12
 BYTE   Fn4  v110
 BYTE   W12
 BYTE   Ds4  v104
 BYTE   W12
 BYTE   N14  Cs4  v106
 BYTE   W24
 BYTE   N22  Gn4  v109
 BYTE   W12
//  #07 //021   ----------------------------------------
 BYTE   W12
 BYTE   N10  Gn4  v110
 BYTE   W12
 BYTE   Gn4  v108
 BYTE   W12
 BYTE   Gn4  v104
 BYTE   W12
 BYTE   Fn4  v109
 BYTE   W12
 BYTE   N32  Ds4  v108  gtp2
 BYTE   W36
//  #07 //022   ----------------------------------------
 BYTE   W24
 BYTE   N10  Gs4
 BYTE   W12
 BYTE   Gs4
 BYTE   W12
 BYTE   Gs4  v110
 BYTE   W12
 BYTE   N22  As4  v108
 BYTE   W24
 BYTE   TIE  Gn4  v104
 BYTE   W12
//  #07 //023   ----------------------------------------
 BYTE   W92
 BYTE   W02
 BYTE   EOT
 BYTE   W02
//  #07 //024   ----------------------------------------
 BYTE   W24
 BYTE   N10  Fn4  v105
 BYTE   W12
 BYTE   Fn4
 BYTE   W12
 BYTE   Gs4  v106
 BYTE   W12
 BYTE   Gs4
 BYTE   W12
 BYTE   Cn5  v111
 BYTE   W12
 BYTE   Cn5  v104
 BYTE   W12
//  #07 //025   ----------------------------------------
 BYTE   Cn5  v105
 BYTE   W12
 BYTE   Cn5  v109
 BYTE   W12
 BYTE   Cs5
 BYTE   W12
 BYTE   N56  Cn5  v108  gtp2
 BYTE   W60
//  #07 //026   ----------------------------------------
 BYTE   W24
 BYTE   N10  Cn5  v111
 BYTE   W12
 BYTE   Cn5  v105
 BYTE   W12
 BYTE   Cs5  v109
 BYTE   W12
 BYTE   Cn5  v105
 BYTE   W12
 BYTE   As4  v108
 BYTE   W12
 BYTE   Gs4  v111
 BYTE   W12
//  #07 //027   ----------------------------------------
 BYTE   N22  Cn5  v108
 BYTE   W24
 BYTE   N10  Cn5  v109
 BYTE   W12
 BYTE   N32  Gn4  v106  gtp2
 BYTE   W60
//  #07 //028   ----------------------------------------
 BYTE   N10  Fn4  v109
 BYTE   W12
 BYTE   Gn4  v106
 BYTE   W12
 BYTE   Gs4  v108
 BYTE   W12
 BYTE   N22  Fn4  v106
 BYTE   W24
 BYTE   Gn4
 BYTE   W24
 BYTE   N10  Gs4  v110
 BYTE   W12
//  #07 //029   ----------------------------------------
 BYTE   Gn4  v108
 BYTE   W12
 BYTE   Gs4
 BYTE   W12
 BYTE   As4  v110
 BYTE   W12
 BYTE   N22  Gn4  v109
 BYTE   W24
 BYTE   Gs4  v110
 BYTE   W24
 BYTE   N10  As4  v105
 BYTE   W12
//  #07 //030   ----------------------------------------
 BYTE   W24
 BYTE   Cn5  v106
 BYTE   W12
 BYTE   Cn5
 BYTE   W12
 BYTE   Cn5  v105
 BYTE   W12
 BYTE   N22  As4  v106
 BYTE   W24
 BYTE   N10  Gs4  v108
 BYTE   W12
//  #07 //031   ----------------------------------------
 BYTE   N92  Cn5  v104  gtp2
 BYTE   W96
//  #07 //032   ----------------------------------------
 BYTE   W24
 BYTE   N10  Cn5  v108
 BYTE   W12
 BYTE   Cn5  v104
 BYTE   W12
 BYTE   Cn5
 BYTE   W12
 BYTE   Cn5  v109
 BYTE   W12
 BYTE   Cn5  v110
 BYTE   W12
 BYTE   Cn5  v109
 BYTE   W12
//  #07 //033   ----------------------------------------
 BYTE   Cs5  v105
 BYTE   W12
 BYTE   Cn5  v104
 BYTE   W12
 BYTE   Cs5  v111
 BYTE   W12
 BYTE   N56  Cn5  v109  gtp2
 BYTE   W60
//  #07 //034   ----------------------------------------
 BYTE   W24
 BYTE   N10  Cn5  v106
 BYTE   W12
 BYTE   Cn5  v110
 BYTE   W12
 BYTE   Cs5  v105
 BYTE   W12
 BYTE   Cn5  v111
 BYTE   W12
 BYTE   As4
 BYTE   W12
 BYTE   Gs4  v109
 BYTE   W12
//  #07 //035   ----------------------------------------
 BYTE   N22  Cn5
 BYTE   W24
 BYTE   N10  Cn5  v108
 BYTE   W12
 BYTE   N56  Gn4  v105  gtp2
 BYTE   W60
//  #07 //036   ----------------------------------------
 BYTE   N10  Fn4  v110
 BYTE   W12
 BYTE   Gn4
 BYTE   W12
 BYTE   Gs4  v109
 BYTE   W12
 BYTE   N22  Fn4  v111
 BYTE   W24
 BYTE   Gn4  v106
 BYTE   W24
 BYTE   N10  Gs4  v104
 BYTE   W12
//  #07 //037   ----------------------------------------
 BYTE   Gn4  v108
 BYTE   W12
 BYTE   Gs4  v104
 BYTE   W12
 BYTE   As4  v110
 BYTE   W12
 BYTE   N22  Gn4  v105
 BYTE   W24
 BYTE   Gs4  v110
 BYTE   W24
 BYTE   N10  As4
 BYTE   W12
//  #07 //038   ----------------------------------------
 BYTE   W24
 BYTE   Cn5  v111
 BYTE   W12
 BYTE   Cn5  v105
 BYTE   W12
 BYTE   Cn5  v106
 BYTE   W12
 BYTE   N22  As4  v108
 BYTE   W24
 BYTE   N10  Gs4  v111
 BYTE   W12
//  #07 //039   ----------------------------------------
 BYTE   N22  Gn4  v105
 BYTE   W24
 BYTE   Gn4  v108
 BYTE   W24
 BYTE   N10  Gn4  v109
 BYTE   W12
 BYTE   N22  Cn5  v104
 BYTE   W24
 BYTE   TIE  Fn4  v106
 BYTE   W12
//  #07 //040   ----------------------------------------
 BYTE   W92
 BYTE   W02
 BYTE   EOT
 BYTE   W02
//  #07 //041   ----------------------------------------
 BYTE   W96
//  #07 //042   ----------------------------------------
 BYTE   W96
//  #07 //043   ----------------------------------------
 BYTE   W96
//  #07 //044   ----------------------------------------
 BYTE   W96
//  #07 //045   ----------------------------------------
 BYTE   W96
//  #07 //046   ----------------------------------------
 BYTE   W96
//  #07 //047   ----------------------------------------
 BYTE   W96
//  #07 //048   ----------------------------------------
 BYTE   W96
//  #07 //049   ----------------------------------------
 BYTE   W96
//  #07 //050   ----------------------------------------
 BYTE   W96
//  #07 //051   ----------------------------------------
 BYTE   W96
//  #07 //052   ----------------------------------------
 BYTE   W96
//  #07 //053   ----------------------------------------
 BYTE   PATT
  POIN2 Label_0125EEE3
//  #07 //054   ----------------------------------------
 BYTE   GoTo
  POIN2 Label_0125EEE9
//  #07 //055   ----------------------------------------
 BYTE   W10
 BYTE   FINE

//**************** Track 8 (Midi-Chn.7) ****************//

EienNoIczer_008:
//  #08 //000   ----------------------------------------
 BYTE   KEYSH   EienNoIczer_key+0
 BYTE   VOICE   26
 BYTE   BENDR  12
 BYTE   VOL   24*EienNoIczer_mvl/mxv
 BYTE   PAN   c_v+24
 BYTE   W96
//  #08 //001   ----------------------------------------
 BYTE   W96
//  #08 //002   ----------------------------------------
 BYTE   W96
//  #08 //003   ----------------------------------------
 BYTE   W96
//  #08 //004   ----------------------------------------
 BYTE   W96
//  #08 //005   ----------------------------------------
 BYTE   W96
//  #08 //006   ----------------------------------------
 BYTE   W96
//  #08 //007   ----------------------------------------
 BYTE   W96
//  #08 //008   ----------------------------------------
Label_0125F5D2:
 BYTE   W96
//  #08 //009   ----------------------------------------
 BYTE   W96
//  #08 //010   ----------------------------------------
 BYTE   W96
//  #08 //011   ----------------------------------------
 BYTE   W96
//  #08 //012   ----------------------------------------
 BYTE   W96
//  #08 //013   ----------------------------------------
 BYTE   W96
//  #08 //014   ----------------------------------------
 BYTE   W96
//  #08 //015   ----------------------------------------
 BYTE   W96
//  #08 //016   ----------------------------------------
 BYTE   W96
//  #08 //017   ----------------------------------------
 BYTE   W96
//  #08 //018   ----------------------------------------
 BYTE   W96
//  #08 //019   ----------------------------------------
 BYTE   W96
//  #08 //020   ----------------------------------------
 BYTE   W96
//  #08 //021   ----------------------------------------
 BYTE   W96
//  #08 //022   ----------------------------------------
 BYTE   W96
//  #08 //023   ----------------------------------------
 BYTE   W96
//  #08 //024   ----------------------------------------
 BYTE   N02  Fn2  v079
 BYTE   W36
 BYTE   N04  Cn2  v099
 BYTE   W12
 BYTE   BEND   c_v-11
 BYTE   N12  Fn2  v102
 BYTE   W06
 BYTE   BEND   c_v+0
 BYTE   W12
 BYTE   N04  Fn2  v099
 BYTE   W18
 BYTE   N01  Cn2  v081
 BYTE   W12
//  #08 //025   ----------------------------------------
 BYTE   N04  Ds2  v103
 BYTE   W18
 BYTE   Ds2
 BYTE   W18
 BYTE   N02  Cn2  v098
 BYTE   W12
 BYTE   N01  Cn2  v069
 BYTE   W12
 BYTE   BEND   c_v-11
 BYTE   N12  Cn2  v106
 BYTE   W06
 BYTE   BEND   c_v+0
 BYTE   W06
 BYTE   N01  Cn2  v099
 BYTE   W06
 BYTE   N05  Ds2
 BYTE   W18
//  #08 //026   ----------------------------------------
 BYTE   BEND   c_v-11
 BYTE   N10  Fn2  v100
 BYTE   W06
 BYTE   BEND   c_v+0
 BYTE   W12
 BYTE   N06  Fn2  v091
 BYTE   W18
 BYTE   N01  Cn2  v067
 BYTE   W24
 BYTE   N02  Cn2  v081
 BYTE   W12
 BYTE   BEND   c_v-11
 BYTE   N11  Fn2  v097
 BYTE   W06
 BYTE   BEND   c_v+0
 BYTE   W06
 BYTE   N01  Cn2  v062
 BYTE   W12
//  #08 //027   ----------------------------------------
 BYTE   N11  Ds2  v089
 BYTE   W18
 BYTE   N04  Ds2  v088
 BYTE   W18
 BYTE   BEND   c_v-11
 BYTE   N11  Cn2  v092
 BYTE   W06
 BYTE   BEND   c_v+0
 BYTE   W06
 BYTE   N03  Ds2  v090
 BYTE   W18
 BYTE   Ds2  v091
 BYTE   W18
 BYTE   Ds2  v089
 BYTE   W12
//  #08 //028   ----------------------------------------
 BYTE   BEND   c_v-6
 BYTE   N18  Fn2  v099
 BYTE   W04
 BYTE   BEND   c_v+0
 BYTE   W14
 BYTE   N06  Fn2  v092
 BYTE   W18
 BYTE   N01  Cn2  v070
 BYTE   W24
 BYTE   BEND   c_v-11
 BYTE   N11  Fn2  v097
 BYTE   W06
 BYTE   BEND   c_v+0
 BYTE   W06
 BYTE   N01  Cs2  v062
 BYTE   W06
 BYTE   N06  Fn2  v090
 BYTE   W18
//  #08 //029   ----------------------------------------
 BYTE   N16  Ds2  v087
 BYTE   W18
 BYTE   N04  Ds2  v103
 BYTE   W18
 BYTE   N11  Cn2  v090
 BYTE   W12
 BYTE   Cn2  v092
 BYTE   N11  Ds2  v098
 BYTE   W12
 BYTE   N07  As1  v087
 BYTE   N07  Cs2
 BYTE   W24
 BYTE   N11  Cn2  v093
 BYTE   N11  Ds2  v087
 BYTE   W12
//  #08 //030   ----------------------------------------
 BYTE   BEND   c_v-11
 BYTE   N23  Cn2  v091
 BYTE   W06
 BYTE   BEND   c_v+0
 BYTE   W18
 BYTE   N04  Cn2  v088
 BYTE   W36
 BYTE   N07
 BYTE   N07  Ds2
 BYTE   W24
 BYTE   BEND   c_v-11
 BYTE   N23  As1  v090
 BYTE   N23  Dn2  v091
 BYTE   W12
//  #08 //031   ----------------------------------------
 BYTE   BEND   c_v+2
 BYTE   W12
 BYTE   N04  As1  v088
 BYTE   N04  Dn2  v087
 BYTE   N23  Cn3  v090
 BYTE   W36
 BYTE   N11  Cn2  v087
 BYTE   N11  En2
 BYTE   W12
 BYTE   N06  Cn2  v070
 BYTE   N06  En2  v069
 BYTE   W36
//  #08 //032   ----------------------------------------
 BYTE   N02  Fn2  v080
 BYTE   W36
 BYTE   N04  Cn2  v100
 BYTE   W12
 BYTE   BEND   c_v-11
 BYTE   N12  Fn2  v107
 BYTE   W06
 BYTE   BEND   c_v+0
 BYTE   W12
 BYTE   N04  Fn2  v102
 BYTE   W18
 BYTE   N01  Cn2  v079
 BYTE   W12
//  #08 //033   ----------------------------------------
 BYTE   N04  Ds2  v099
 BYTE   W18
 BYTE   Ds2  v098
 BYTE   W18
 BYTE   N02  Cn2
 BYTE   W12
 BYTE   N01  Cn2  v067
 BYTE   W12
 BYTE   BEND   c_v-11
 BYTE   N12  Cn2  v108
 BYTE   W06
 BYTE   BEND   c_v+0
 BYTE   W06
 BYTE   N01  Cn2  v101
 BYTE   W06
 BYTE   N05  Ds2
 BYTE   W18
//  #08 //034   ----------------------------------------
 BYTE   BEND   c_v-11
 BYTE   N10  Fn2  v103
 BYTE   W06
 BYTE   BEND   c_v+0
 BYTE   W12
 BYTE   N06  Fn2  v088
 BYTE   W18
 BYTE   N01  Cn2  v068
 BYTE   W24
 BYTE   N02  Cn2  v082
 BYTE   W12
 BYTE   BEND   c_v-11
 BYTE   N11  Fn2  v102
 BYTE   W06
 BYTE   BEND   c_v+0
 BYTE   W06
 BYTE   N01  Cn2  v058
 BYTE   W12
//  #08 //035   ----------------------------------------
 BYTE   N11  Ds2  v092
 BYTE   W18
 BYTE   N04  Ds2  v090
 BYTE   W18
 BYTE   BEND   c_v-11
 BYTE   N11  Cn2  v092
 BYTE   W06
 BYTE   BEND   c_v+0
 BYTE   W06
 BYTE   N03  Ds2
 BYTE   W18
 BYTE   Ds2
 BYTE   W18
 BYTE   Ds2  v093
 BYTE   W12
//  #08 //036   ----------------------------------------
 BYTE   BEND   c_v-6
 BYTE   N18  Fn2  v097
 BYTE   W04
 BYTE   BEND   c_v+0
 BYTE   W14
 BYTE   N06  Fn2  v093
 BYTE   W18
 BYTE   N01  Cn2  v068
 BYTE   W24
 BYTE   BEND   c_v-11
 BYTE   N11  Fn2  v103
 BYTE   W06
 BYTE   BEND   c_v+0
 BYTE   W06
 BYTE   N01  Cs2  v060
 BYTE   W06
 BYTE   N06  Fn2  v092
 BYTE   W18
//  #08 //037   ----------------------------------------
 BYTE   N16  Ds2  v090
 BYTE   W18
 BYTE   N04  Ds2  v100
 BYTE   W18
 BYTE   N11  Cn2  v092
 BYTE   W12
 BYTE   Cn2  v093
 BYTE   N11  Ds2  v100
 BYTE   W12
 BYTE   N07  As1  v093
 BYTE   N07  Cs2  v091
 BYTE   W24
 BYTE   N11  Cn2  v093
 BYTE   N11  Ds2  v090
 BYTE   W12
//  #08 //038   ----------------------------------------
 BYTE   BEND   c_v-11
 BYTE   N23  Cn2  v088
 BYTE   W06
 BYTE   BEND   c_v+0
 BYTE   W18
 BYTE   N04  Cn2  v089
 BYTE   W24
 BYTE   N01  Gs1  v088
 BYTE   N01  Cs2  v090
 BYTE   W12
 BYTE   N04  Gs1  v092
 BYTE   N04  Cs2  v088
 BYTE   N04  Fn2  v093
 BYTE   W12
 BYTE   N06  Gs1  v091
 BYTE   N06  Cs2  v087
 BYTE   N06  Fn2  v091
 BYTE   W24
//  #08 //039   ----------------------------------------
 BYTE   N24  Gn1  v087
 BYTE   N24  Cn2  v090
 BYTE   N24  En2  v088
 BYTE   W24
 BYTE   N02  Gn1  v093
 BYTE   N02  Cn2  v088
 BYTE   N03  En2  v091
 BYTE   W24
 BYTE   N11  Gn1  v092
 BYTE   N11  Cn2  v091
 BYTE   N12  En2  v089
 BYTE   W12
 BYTE   N11  En2  v092
 BYTE   N11  Cn2  v093
 BYTE   N12  Gn1  v088
 BYTE   W12
 BYTE   N01  Gn1  v093
 BYTE   N01  Cn2
 BYTE   W12
 BYTE   N60  Fn2  v090
 BYTE   N56  Cs2  v087  gtp3
 BYTE   N60  Gs1  v089
 BYTE   W12
//  #08 //040   ----------------------------------------
 BYTE   W48
 BYTE   N36  Fs1
 BYTE   N36  As1  v091
 BYTE   N36  Cs2
 BYTE   W36
 BYTE   N09  Fs1  v088
 BYTE   W12
//  #08 //041   ----------------------------------------
 BYTE   W12
 BYTE   Fn1
 BYTE   W24
 BYTE   N08  Gs1  v087
 BYTE   W12
 BYTE   BEND   c_v-6
 BYTE   N23  Fn1  v091
 BYTE   W06
 BYTE   BEND   c_v+0
 BYTE   W18
 BYTE   N24  Cn1  v093
 BYTE   W24
//  #08 //042   ----------------------------------------
 BYTE   VOL   25*EienNoIczer_mvl/mxv
 BYTE   N06  Fn2  v092
 BYTE   W12
 BYTE   Gs2  v093
 BYTE   W12
 BYTE   Gn2  v090
 BYTE   W12
 BYTE   Gs2  v093
 BYTE   W06
 BYTE   Fn2  v090
 BYTE   W54
//  #08 //043   ----------------------------------------
 BYTE   Fn2  v091
 BYTE   W12
 BYTE   Gs2  v089
 BYTE   W12
 BYTE   Gn2
 BYTE   W12
 BYTE   Gs2  v093
 BYTE   W06
 BYTE   Fn2  v088
 BYTE   W54
//  #08 //044   ----------------------------------------
 BYTE   Fn2  v093
 BYTE   W12
 BYTE   Gs2  v090
 BYTE   W12
 BYTE   Gn2
 BYTE   W12
 BYTE   Gs2  v092
 BYTE   W06
 BYTE   Fn2  v091
 BYTE   W12
 BYTE   Fn2
 BYTE   W06
 BYTE   Gn2  v090
 BYTE   W12
 BYTE   Gs2
 BYTE   W12
 BYTE   As2  v093
 BYTE   W12
//  #08 //045   ----------------------------------------
 BYTE   Cn3  v091
 BYTE   W12
 BYTE   Cn3  v090
 BYTE   W12
 BYTE   Cn3  v088
 BYTE   W12
 BYTE   As2  v090
 BYTE   W06
 BYTE   Cn3  v093
 BYTE   W54
//  #08 //046   ----------------------------------------
 BYTE   W96
//  #08 //047   ----------------------------------------
 BYTE   W96
//  #08 //048   ----------------------------------------
 BYTE   W96
//  #08 //049   ----------------------------------------
 BYTE   W96
//  #08 //050   ----------------------------------------
 BYTE   W96
//  #08 //051   ----------------------------------------
 BYTE   W96
//  #08 //052   ----------------------------------------
 BYTE   W96
//  #08 //053   ----------------------------------------
 BYTE   W96
//  #08 //054   ----------------------------------------
 BYTE   VOL   24*EienNoIczer_mvl/mxv
 BYTE   GoTo
  POIN2 Label_0125F5D2
//  #08 //055   ----------------------------------------
 BYTE   W10
 BYTE   FINE

//**************** Track 9 (Midi-Chn.8) ****************//

EienNoIczer_009:
//  #09 //000   ----------------------------------------
 BYTE   KEYSH   EienNoIczer_key+0
 BYTE   VOICE   122
 BYTE   BENDR  12
 BYTE   VOL   41*EienNoIczer_mvl/mxv
 BYTE   N03  Cn1  v127
 BYTE   N03  Cs2  v100
 BYTE   N03  Ds3  v065
 BYTE   W12
 BYTE   Fs1  v057
 BYTE   W06
 BYTE   Ds3  v044
 BYTE   W06
 BYTE   Dn1  v127
 BYTE   N03  Fs1  v118
 BYTE   N03  Ds3  v044
 BYTE   W12
 BYTE   Fs1  v055
 BYTE   N03  En3  v063
 BYTE   W12
 BYTE   Cn1  v127
 BYTE   N03  Fs1  v103
 BYTE   N03  Ds3  v061
 BYTE   W12
 BYTE   Fs1  v052
 BYTE   W06
 BYTE   Ds3  v046
 BYTE   W06
 BYTE   Dn1  v127
 BYTE   N03  Fs1  v115
 BYTE   N03  Ds3  v043
 BYTE   W12
 BYTE   Fs1  v054
 BYTE   N03  En3  v062
 BYTE   W12
//  #09 //001   ----------------------------------------
 BYTE   Cn1  v124
 BYTE   N03  Fs1  v103
 BYTE   N03  Ds3  v063
 BYTE   W12
 BYTE   Fs1  v052
 BYTE   W06
 BYTE   Ds3  v045
 BYTE   W06
 BYTE   Dn1  v127
 BYTE   N03  Fs1  v110
 BYTE   N03  Ds3  v045
 BYTE   W12
 BYTE   Fs1  v061
 BYTE   N03  En3  v060
 BYTE   W12
 BYTE   Cn1  v124
 BYTE   N03  Fs1  v100
 BYTE   N03  Ds3  v064
 BYTE   W12
 BYTE   Fs1  v052
 BYTE   W06
 BYTE   Ds3  v045
 BYTE   W06
 BYTE   Dn1  v124
 BYTE   N03  Fs1  v116
 BYTE   N03  Ds3  v042
 BYTE   W12
 BYTE   Fs1  v054
 BYTE   N03  En3  v062
 BYTE   W12
//  #09 //002   ----------------------------------------
 BYTE   Cn1  v127
 BYTE   N03  Fs1  v098
 BYTE   N03  Ds3  v064
 BYTE   W12
 BYTE   Fs1  v055
 BYTE   W06
 BYTE   Ds3  v045
 BYTE   W06
 BYTE   Dn1  v127
 BYTE   N03  Fs1  v111
 BYTE   N03  Ds3  v042
 BYTE   W12
 BYTE   Fs1  v058
 BYTE   N03  En3  v063
 BYTE   W12
 BYTE   Cn1  v124
 BYTE   N03  Fs1  v102
 BYTE   N03  Ds3  v061
 BYTE   W12
 BYTE   Fs1  v060
 BYTE   W06
 BYTE   Ds3  v045
 BYTE   W06
 BYTE   Dn1  v124
 BYTE   N03  Fs1  v115
 BYTE   N03  Ds3  v045
 BYTE   W12
 BYTE   Fs1  v055
 BYTE   N03  En3  v061
 BYTE   W12
//  #09 //003   ----------------------------------------
 BYTE   Cn1  v124
 BYTE   N03  Fs1  v097
 BYTE   N03  Ds3  v065
 BYTE   W12
 BYTE   Fs1  v052
 BYTE   W06
 BYTE   Ds3  v046
 BYTE   W06
 BYTE   Dn1  v127
 BYTE   N03  Fs1  v115
 BYTE   N03  Ds3  v044
 BYTE   W12
 BYTE   Fs1  v052
 BYTE   N03  En3  v063
 BYTE   W12
 BYTE   Cn1  v124
 BYTE   N03  Fs1  v102
 BYTE   N03  Ds3  v060
 BYTE   W12
 BYTE   Fs1  v057
 BYTE   W06
 BYTE   Ds3  v042
 BYTE   W06
 BYTE   Dn1  v127
 BYTE   N03  Fs1  v110
 BYTE   N03  Ds3  v043
 BYTE   W12
 BYTE   Cn1  v102
 BYTE   N03  Fs1  v058
 BYTE   N03  En3  v061
 BYTE   W12
//  #09 //004   ----------------------------------------
 BYTE   Cn1  v126
 BYTE   N03  Cs2  v102
 BYTE   N03  Ds3  v061
 BYTE   W12
 BYTE   Fs1  v054
 BYTE   W06
 BYTE   Ds3  v043
 BYTE   W06
 BYTE   Dn1  v127
 BYTE   N03  Fs1  v111
 BYTE   N03  Ds3  v046
 BYTE   W12
 BYTE   Fs1  v052
 BYTE   N03  En3  v063
 BYTE   W12
 BYTE   Cn1  v124
 BYTE   N03  Fs1  v103
 BYTE   N03  Ds3  v062
 BYTE   W12
 BYTE   Fs1  v057
 BYTE   W06
 BYTE   Ds3  v047
 BYTE   W06
 BYTE   Dn1  v126
 BYTE   N03  Fs1  v116
 BYTE   N03  Ds3  v045
 BYTE   W12
 BYTE   Fs1  v057
 BYTE   N03  En3  v062
 BYTE   W12
//  #09 //005   ----------------------------------------
 BYTE   Cn1  v127
 BYTE   N03  Fs1  v102
 BYTE   N03  Ds3  v064
 BYTE   W12
 BYTE   Fs1  v052
 BYTE   W06
 BYTE   Ds3  v045
 BYTE   W06
 BYTE   Dn1  v124
 BYTE   N03  Fs1  v111
 BYTE   N03  Ds3  v045
 BYTE   W12
 BYTE   Fs1  v052
 BYTE   N03  En3  v063
 BYTE   W12
 BYTE   Cn1  v127
 BYTE   N03  Fs1  v103
 BYTE   N03  Ds3  v062
 BYTE   W12
 BYTE   Fs1  v055
 BYTE   W06
 BYTE   Ds3  v047
 BYTE   W06
 BYTE   Dn1  v127
 BYTE   N03  Fs1  v111
 BYTE   N03  Ds3  v042
 BYTE   W12
 BYTE   Fs1  v054
 BYTE   N03  En3  v062
 BYTE   W12
//  #09 //006   ----------------------------------------
 BYTE   Cn1  v126
 BYTE   N03  Fs1  v104
 BYTE   N03  Ds3  v064
 BYTE   W12
 BYTE   Fs1  v058
 BYTE   W06
 BYTE   Ds3  v044
 BYTE   W06
 BYTE   Dn1  v124
 BYTE   N03  Fs1  v117
 BYTE   N03  Ds3  v046
 BYTE   W12
 BYTE   Fs1  v052
 BYTE   N03  En3  v063
 BYTE   W12
 BYTE   Cn1  v126
 BYTE   N03  Fs1  v102
 BYTE   N03  Ds3  v065
 BYTE   W12
 BYTE   Fs1  v055
 BYTE   W06
 BYTE   Ds3  v044
 BYTE   W06
 BYTE   Dn1  v127
 BYTE   N03  Fs1  v116
 BYTE   N03  Ds3  v044
 BYTE   W12
 BYTE   Fs1  v060
 BYTE   N03  En3  v063
 BYTE   W12
//  #09 //007   ----------------------------------------
 BYTE   Cn1  v127
 BYTE   N03  Fs1  v103
 BYTE   N03  Ds3  v062
 BYTE   W12
 BYTE   Fs1  v061
 BYTE   W06
 BYTE   Ds3  v044
 BYTE   W06
 BYTE   Dn1  v124
 BYTE   N03  Fs1  v110
 BYTE   N03  Ds3  v047
 BYTE   W12
 BYTE   Fs1  v052
 BYTE   N03  En3  v062
 BYTE   W12
 BYTE   Cn1  v127
 BYTE   N03  Fs1  v100
 BYTE   N03  Ds3  v062
 BYTE   W12
 BYTE   Cn1  v117
 BYTE   N03  Fs1  v060
 BYTE   W06
 BYTE   Ds3  v044
 BYTE   W06
 BYTE   Dn1  v126
 BYTE   N03  Fs1  v115
 BYTE   N03  Ds3  v047
 BYTE   W12
 BYTE   Fs1  v058
 BYTE   N03  En3  v060
 BYTE   W12
//  #09 //008   ----------------------------------------
Label_012B947B:
 BYTE   N03  Cn1  v127
 BYTE   N03  Cs2  v102
 BYTE   N03  Ds3  v060
 BYTE   W12
 BYTE   Fs1
 BYTE   W06
 BYTE   Ds3  v045
 BYTE   W06
 BYTE   Dn1  v127
 BYTE   N03  Fs1  v118
 BYTE   N03  Ds3  v042
 BYTE   W12
 BYTE   Fs1  v061
 BYTE   N03  En3  v065
 BYTE   W12
 BYTE   Cn1  v127
 BYTE   N03  Fs1  v102
 BYTE   N03  Ds3  v061
 BYTE   W12
 BYTE   Fs1  v052
 BYTE   W06
 BYTE   Ds3  v045
 BYTE   W06
 BYTE   Dn1  v127
 BYTE   N03  Fs1  v117
 BYTE   N03  Ds3  v046
 BYTE   W12
 BYTE   Fs1  v054
 BYTE   N03  En3  v062
 BYTE   W12
//  #09 //009   ----------------------------------------
 BYTE   Cn1  v127
 BYTE   N03  Fs1  v097
 BYTE   N03  Ds3  v063
 BYTE   W12
 BYTE   Fs1  v061
 BYTE   W06
 BYTE   Ds3  v044
 BYTE   W06
 BYTE   Dn1  v127
 BYTE   N03  Fs1  v111
 BYTE   N03  Ds3  v043
 BYTE   W12
 BYTE   Fs1  v061
 BYTE   N03  En3  v065
 BYTE   W12
 BYTE   Cn1  v127
 BYTE   N03  Fs1  v098
 BYTE   N03  Ds3  v065
 BYTE   W12
 BYTE   Cn1  v110
 BYTE   N03  Fs1  v054
 BYTE   W06
 BYTE   Ds3  v045
 BYTE   W06
 BYTE   Dn1  v124
 BYTE   N03  Fs1  v117
 BYTE   N03  Ds3  v047
 BYTE   W12
 BYTE   Fs1  v057
 BYTE   N03  En3  v061
 BYTE   W12
//  #09 //010   ----------------------------------------
 BYTE   Cn1  v127
 BYTE   N03  Fs1  v097
 BYTE   N03  Ds3  v062
 BYTE   W12
 BYTE   Fs1  v060
 BYTE   W06
 BYTE   Ds3  v045
 BYTE   W06
 BYTE   Dn1  v127
 BYTE   N03  Fs1  v111
 BYTE   N03  Ds3  v047
 BYTE   W12
 BYTE   Fs1  v055
 BYTE   N03  En3  v065
 BYTE   W12
 BYTE   Cn1  v127
 BYTE   N03  Fs1  v096
 BYTE   N03  Ds3  v063
 BYTE   W12
 BYTE   Fs1  v060
 BYTE   W06
 BYTE   Ds3  v046
 BYTE   W06
 BYTE   Dn1  v126
 BYTE   N03  Fs1  v110
 BYTE   N03  Ds3  v045
 BYTE   W12
 BYTE   Fs1  v057
 BYTE   N03  En3  v061
 BYTE   W12
//  #09 //011   ----------------------------------------
 BYTE   Cn1  v127
 BYTE   N03  Fs1  v098
 BYTE   N03  Ds3  v060
 BYTE   W12
 BYTE   Fs1
 BYTE   W06
 BYTE   Ds3  v045
 BYTE   W06
 BYTE   Dn1  v124
 BYTE   N03  Fs1  v112
 BYTE   N03  Ds3  v046
 BYTE   W12
 BYTE   Fs1  v055
 BYTE   N03  En3  v063
 BYTE   W12
 BYTE   Cn1  v127
 BYTE   N03  Fs1  v098
 BYTE   N03  Ds3  v065
 BYTE   W12
 BYTE   Cn1  v115
 BYTE   N03  Fs1  v060
 BYTE   W06
 BYTE   Ds3  v045
 BYTE   W06
 BYTE   Dn1  v127
 BYTE   N03  Fs1  v116
 BYTE   N03  Ds3  v045
 BYTE   W12
 BYTE   Fs1  v058
 BYTE   N03  En3  v065
 BYTE   W12
//  #09 //012   ----------------------------------------
 BYTE   Cn1  v127
 BYTE   N03  Fs1  v097
 BYTE   N03  Ds3  v064
 BYTE   W12
 BYTE   Fs1  v054
 BYTE   W06
 BYTE   Ds3  v045
 BYTE   W06
 BYTE   Dn1  v127
 BYTE   N03  Fs1  v118
 BYTE   N03  Ds3  v044
 BYTE   W12
 BYTE   Fs1  v054
 BYTE   N03  En3  v064
 BYTE   W12
 BYTE   Cn1  v127
 BYTE   N03  Fs1  v104
 BYTE   N03  Ds3  v062
 BYTE   W12
 BYTE   Fs1  v052
 BYTE   W06
 BYTE   Ds3  v043
 BYTE   W06
 BYTE   Dn1  v127
 BYTE   N03  Fs1  v110
 BYTE   N03  Ds3  v046
 BYTE   W12
 BYTE   Fs1  v054
 BYTE   N03  En3  v063
 BYTE   W12
//  #09 //013   ----------------------------------------
 BYTE   Cn1  v127
 BYTE   N03  Fs1  v103
 BYTE   N03  Ds3  v063
 BYTE   W12
 BYTE   Fs1  v052
 BYTE   W06
 BYTE   Ds3  v043
 BYTE   W06
 BYTE   Dn1  v127
 BYTE   N03  Fs1  v116
 BYTE   N03  Ds3  v045
 BYTE   W12
 BYTE   Fs1  v060
 BYTE   N03  En3  v063
 BYTE   W12
 BYTE   Cn1  v127
 BYTE   N03  Fs1  v104
 BYTE   N03  Ds3  v064
 BYTE   W12
 BYTE   Cn1  v110
 BYTE   N03  Fs1  v052
 BYTE   W06
 BYTE   Ds3  v044
 BYTE   W06
 BYTE   Dn1  v127
 BYTE   N03  Fs1  v117
 BYTE   N03  Ds3  v044
 BYTE   W12
 BYTE   Fs1  v055
 BYTE   N03  En3  v060
 BYTE   W12
//  #09 //014   ----------------------------------------
 BYTE   Cn1  v127
 BYTE   N03  Fs1  v102
 BYTE   N03  Ds3  v063
 BYTE   W12
 BYTE   Fs1  v061
 BYTE   W06
 BYTE   Ds3  v047
 BYTE   W06
 BYTE   Dn1  v127
 BYTE   N03  Fs1  v112
 BYTE   N03  Ds3  v042
 BYTE   W12
 BYTE   Fs1  v052
 BYTE   N03  En3  v065
 BYTE   W12
 BYTE   Cn1  v127
 BYTE   N03  Fs1  v104
 BYTE   N03  Ds3  v061
 BYTE   W12
 BYTE   Fs1  v060
 BYTE   W06
 BYTE   Ds3  v047
 BYTE   W06
 BYTE   Dn1  v124
 BYTE   N03  Fs1  v118
 BYTE   N03  Ds3  v046
 BYTE   W12
 BYTE   Fs1  v055
 BYTE   N03  En3  v060
 BYTE   W12
//  #09 //015   ----------------------------------------
 BYTE   Cn1  v127
 BYTE   N03  Fs1  v096
 BYTE   N03  Ds3  v065
 BYTE   W12
 BYTE   Fs1  v058
 BYTE   W06
 BYTE   Ds3  v045
 BYTE   W06
 BYTE   Dn1  v124
 BYTE   N03  Fs1  v111
 BYTE   N03  Ds3  v047
 BYTE   W12
 BYTE   Fs1  v057
 BYTE   N03  En3  v063
 BYTE   W12
 BYTE   Cn1  v127
 BYTE   N03  Fs1  v104
 BYTE   N03  Ds3  v061
 BYTE   W12
 BYTE   Cn1  v115
 BYTE   N03  Fs1  v054
 BYTE   W06
 BYTE   Ds3  v045
 BYTE   W06
 BYTE   Dn1  v127
 BYTE   N03  Fs1  v118
 BYTE   N03  Ds3  v047
 BYTE   W12
 BYTE   Fs1  v055
 BYTE   N03  En3  v064
 BYTE   W12
//  #09 //016   ----------------------------------------
 BYTE   Cn1  v127
 BYTE   N03  Cs2  v098
 BYTE   N03  Ds3  v062
 BYTE   W12
 BYTE   Fs1  v058
 BYTE   W06
 BYTE   Ds3  v047
 BYTE   W06
 BYTE   Dn1  v126
 BYTE   N03  Fs1  v116
 BYTE   N03  Ds3  v046
 BYTE   W12
 BYTE   Fs1  v052
 BYTE   N03  En3  v064
 BYTE   W12
 BYTE   Cn1  v124
 BYTE   N03  Fs1  v098
 BYTE   N03  Ds3  v061
 BYTE   W12
 BYTE   Fs1  v060
 BYTE   W06
 BYTE   Ds3  v042
 BYTE   W06
 BYTE   Dn1  v127
 BYTE   N03  Fs1  v115
 BYTE   N03  Ds3  v047
 BYTE   W12
 BYTE   Fs1  v058
 BYTE   N03  En3  v060
 BYTE   W12
//  #09 //017   ----------------------------------------
 BYTE   Cn1  v127
 BYTE   N03  Fs1  v102
 BYTE   N03  Ds3  v065
 BYTE   W12
 BYTE   Fs1  v054
 BYTE   W06
 BYTE   Ds3  v043
 BYTE   W06
 BYTE   Dn1  v127
 BYTE   N03  Fs1  v118
 BYTE   N03  Ds3  v044
 BYTE   W12
 BYTE   Fs1  v058
 BYTE   N03  En3  v064
 BYTE   W12
 BYTE   Cn1  v127
 BYTE   N03  Fs1  v103
 BYTE   N03  Ds3  v065
 BYTE   W12
 BYTE   Cn1  v110
 BYTE   N03  Fs1  v054
 BYTE   W06
 BYTE   Ds3  v044
 BYTE   W06
 BYTE   Dn1  v127
 BYTE   N03  Fs1  v118
 BYTE   N03  Ds3  v043
 BYTE   W12
 BYTE   Fs1  v058
 BYTE   N03  En3  v065
 BYTE   W12
//  #09 //018   ----------------------------------------
 BYTE   Cn1  v127
 BYTE   N03  Fs1  v096
 BYTE   N03  Ds3  v065
 BYTE   W12
 BYTE   Fs1  v061
 BYTE   W06
 BYTE   Ds3  v045
 BYTE   W06
 BYTE   Dn1  v127
 BYTE   N03  Fs1  v110
 BYTE   N03  Ds3  v044
 BYTE   W12
 BYTE   Fs1  v060
 BYTE   N03  En3  v061
 BYTE   W12
 BYTE   Cn1  v126
 BYTE   N03  Fs1  v096
 BYTE   N03  Ds3  v062
 BYTE   W12
 BYTE   Fs1  v061
 BYTE   W06
 BYTE   Ds3  v044
 BYTE   W06
 BYTE   Dn1  v127
 BYTE   N03  Fs1  v111
 BYTE   N03  Ds3  v047
 BYTE   W12
 BYTE   Fs1  v060
 BYTE   N03  En3  v062
 BYTE   W12
//  #09 //019   ----------------------------------------
 BYTE   Cn1  v126
 BYTE   N03  Fs1  v102
 BYTE   N03  Ds3  v063
 BYTE   W12
 BYTE   Fs1  v057
 BYTE   W06
 BYTE   Ds3  v043
 BYTE   W06
 BYTE   Dn1  v127
 BYTE   N03  Fs1  v111
 BYTE   N03  Ds3  v046
 BYTE   W12
 BYTE   Fs1  v061
 BYTE   N03  En3  v063
 BYTE   W12
 BYTE   Cn1  v126
 BYTE   N03  Fs1  v100
 BYTE   N03  Ds3  v063
 BYTE   W12
 BYTE   Cn1  v117
 BYTE   N03  Fs1  v052
 BYTE   W06
 BYTE   Ds3  v045
 BYTE   W06
 BYTE   Dn1  v127
 BYTE   N03  Fs1  v110
 BYTE   N03  Ds3  v044
 BYTE   W12
 BYTE   Fs1  v061
 BYTE   N03  En3  v064
 BYTE   W12
//  #09 //020   ----------------------------------------
 BYTE   Cn1  v127
 BYTE   N03  Fs1  v100
 BYTE   N03  Ds3  v064
 BYTE   W12
 BYTE   Fs1  v057
 BYTE   W06
 BYTE   Ds3  v047
 BYTE   W06
 BYTE   Dn1  v127
 BYTE   N03  Fs1  v111
 BYTE   N03  Ds3  v047
 BYTE   W12
 BYTE   Fs1  v058
 BYTE   N03  En3  v064
 BYTE   W12
 BYTE   Cn1  v124
 BYTE   N03  Fs1  v100
 BYTE   N03  Ds3  v064
 BYTE   W12
 BYTE   Cn1  v117
 BYTE   N03  Fs1  v058
 BYTE   W06
 BYTE   Ds3  v044
 BYTE   W06
 BYTE   Dn1  v127
 BYTE   N03  Fs1  v115
 BYTE   N03  Ds3  v043
 BYTE   W12
 BYTE   Cn1  v127
 BYTE   N03  Cs2  v104
 BYTE   N03  En3  v063
 BYTE   W12
//  #09 //021   ----------------------------------------
 BYTE   Ds3  v065
 BYTE   W12
 BYTE   Cn1  v126
 BYTE   N03  Fs1  v052
 BYTE   W06
 BYTE   Ds3  v047
 BYTE   W06
 BYTE   Dn1  v127
 BYTE   N03  Fs1  v112
 BYTE   N03  Ds3  v046
 BYTE   W12
 BYTE   Fs1  v052
 BYTE   N03  En3  v061
 BYTE   W12
 BYTE   Cn1  v127
 BYTE   N03  Fs1  v103
 BYTE   N03  Ds3  v064
 BYTE   W12
 BYTE   Fs1  v054
 BYTE   W06
 BYTE   Ds3  v045
 BYTE   W06
 BYTE   Dn1  v127
 BYTE   N03  Fs1  v116
 BYTE   N03  Ds3  v045
 BYTE   W12
 BYTE   Fs1  v057
 BYTE   N03  En3  v064
 BYTE   W12
//  #09 //022   ----------------------------------------
 BYTE   Cn1  v124
 BYTE   N03  Fs1  v100
 BYTE   N03  Ds3  v063
 BYTE   W12
 BYTE   Fs1  v052
 BYTE   W06
 BYTE   Ds3  v047
 BYTE   W06
 BYTE   Dn1  v127
 BYTE   N03  Fs1  v115
 BYTE   N03  Ds3  v045
 BYTE   W12
 BYTE   Fs1  v057
 BYTE   N03  En3  v064
 BYTE   W12
 BYTE   Cn1  v127
 BYTE   N03  Fs1  v098
 BYTE   N03  Ds3  v063
 BYTE   W12
 BYTE   Cn1  v127
 BYTE   N03  Fs1  v058
 BYTE   W06
 BYTE   Ds3  v045
 BYTE   W06
 BYTE   Dn1  v127
 BYTE   N03  Fs1  v112
 BYTE   N03  Ds3  v042
 BYTE   W12
 BYTE   Cn1  v127
 BYTE   N03  Cs2  v103
 BYTE   N03  En3  v062
 BYTE   W12
//  #09 //023   ----------------------------------------
 BYTE   Ds3  v060
 BYTE   W12
 BYTE   Cn1  v127
 BYTE   N03  Fs1  v054
 BYTE   W06
 BYTE   Ds3  v046
 BYTE   W06
 BYTE   Dn1  v127
 BYTE   N03  Fs1  v112
 BYTE   N03  Ds3  v045
 BYTE   W12
 BYTE   Fs1  v060
 BYTE   N03  En3  v063
 BYTE   W12
 BYTE   Cn1  v127
 BYTE   N03  Fs1  v100
 BYTE   W12
 BYTE   Cn1  v117
 BYTE   N03  Fs1  v055
 BYTE   N03  Ds3  v042
 BYTE   W12
 BYTE   Dn1  v127
 BYTE   N03  Fs1  v117
 BYTE   N03  En3  v045
 BYTE   W12
 BYTE   Fs1  v054
 BYTE   N03  En3  v060
 BYTE   W12
//  #09 //024   ----------------------------------------
 BYTE   Cn1  v126
 BYTE   N03  Fs1  v098
 BYTE   N03  Ds3  v063
 BYTE   W12
 BYTE   Fs1  v057
 BYTE   W06
 BYTE   Ds3  v043
 BYTE   W06
 BYTE   Dn1  v124
 BYTE   N03  Fs1  v110
 BYTE   N03  Ds3  v046
 BYTE   W12
 BYTE   Cn1  v103
 BYTE   N03  Fs1  v060
 BYTE   N03  En3  v063
 BYTE   W12
 BYTE   Cn1  v126
 BYTE   N03  Fs1  v098
 BYTE   N03  Ds3  v045
 BYTE   W12
 BYTE   Fs1  v054
 BYTE   W12
 BYTE   Dn1  v127
 BYTE   N03  Fs1  v116
 BYTE   W12
 BYTE   Fs1  v055
 BYTE   N03  En3  v061
 BYTE   W12
//  #09 //025   ----------------------------------------
 BYTE   Cn1  v127
 BYTE   N03  Fs1  v098
 BYTE   N03  Ds3  v063
 BYTE   W12
 BYTE   Fs1  v055
 BYTE   W06
 BYTE   Ds3  v046
 BYTE   W06
 BYTE   Dn1  v127
 BYTE   N03  Fs1  v117
 BYTE   N03  Ds3  v045
 BYTE   W12
 BYTE   Cn1  v102
 BYTE   N03  Fs1  v057
 BYTE   N03  En3  v064
 BYTE   W12
 BYTE   Cn1  v127
 BYTE   N03  Fs1  v098
 BYTE   N03  Ds3  v045
 BYTE   W12
 BYTE   Fs1  v054
 BYTE   W12
 BYTE   Dn1  v127
 BYTE   N03  Fs1  v112
 BYTE   W12
 BYTE   Fs1  v060
 BYTE   N03  En3  v063
 BYTE   W12
//  #09 //026   ----------------------------------------
 BYTE   Cn1  v127
 BYTE   N03  Fs1  v100
 BYTE   N03  Ds3  v063
 BYTE   W12
 BYTE   Fs1  v055
 BYTE   W06
 BYTE   Ds3  v044
 BYTE   W06
 BYTE   Dn1  v126
 BYTE   N03  Fs1  v115
 BYTE   N03  Ds3  v047
 BYTE   W12
 BYTE   Cn1  v097
 BYTE   N03  Fs1  v057
 BYTE   N03  En3  v063
 BYTE   W12
 BYTE   Cn1  v127
 BYTE   N03  Fs1  v096
 BYTE   N03  Ds3  v043
 BYTE   W12
 BYTE   Fs1  v061
 BYTE   W12
 BYTE   Dn1  v127
 BYTE   N03  Fs1  v116
 BYTE   W12
 BYTE   Fs1  v055
 BYTE   N03  En3  v063
 BYTE   W12
//  #09 //027   ----------------------------------------
 BYTE   Cn1  v127
 BYTE   N03  Fs1  v098
 BYTE   N03  Ds3  v065
 BYTE   W12
 BYTE   Fs1  v061
 BYTE   W06
 BYTE   Ds3  v047
 BYTE   W06
 BYTE   Dn1  v124
 BYTE   N03  Fs1  v112
 BYTE   N03  Ds3  v046
 BYTE   W12
 BYTE   Cn1  v104
 BYTE   N03  Fs1  v058
 BYTE   N03  En3  v063
 BYTE   W12
 BYTE   Cn1  v127
 BYTE   N03  Fs1  v100
 BYTE   N03  Ds3  v046
 BYTE   W12
 BYTE   Fs1  v055
 BYTE   W12
 BYTE   Dn1  v127
 BYTE   N03  Fs1  v117
 BYTE   W12
 BYTE   Fs1  v055
 BYTE   N03  En3  v063
 BYTE   W12
//  #09 //028   ----------------------------------------
 BYTE   Cn1  v124
 BYTE   N03  Fs1  v104
 BYTE   N03  Ds3  v064
 BYTE   W12
 BYTE   Fs1  v057
 BYTE   W06
 BYTE   Ds3  v047
 BYTE   W06
 BYTE   Dn1  v127
 BYTE   N03  Fs1  v110
 BYTE   N03  Ds3  v044
 BYTE   W12
 BYTE   Cn1  v100
 BYTE   N03  Fs1  v057
 BYTE   N03  En3  v062
 BYTE   W12
 BYTE   Cn1  v127
 BYTE   N03  Fs1  v096
 BYTE   N03  Ds3  v045
 BYTE   W12
 BYTE   Fs1  v055
 BYTE   W12
 BYTE   Dn1  v127
 BYTE   N03  Fs1  v118
 BYTE   W12
 BYTE   Fs1  v052
 BYTE   N03  En3  v060
 BYTE   W12
//  #09 //029   ----------------------------------------
 BYTE   Cn1  v124
 BYTE   N03  Fs1  v103
 BYTE   N03  Ds3  v062
 BYTE   W12
 BYTE   Fs1  v061
 BYTE   W06
 BYTE   Ds3  v045
 BYTE   W06
 BYTE   Dn1  v127
 BYTE   N03  Fs1  v110
 BYTE   N03  Ds3  v045
 BYTE   W12
 BYTE   Cn1  v104
 BYTE   N03  Fs1  v058
 BYTE   N03  En3  v061
 BYTE   W12
 BYTE   Cn1  v126
 BYTE   N03  Fs1  v102
 BYTE   N03  Ds3  v045
 BYTE   W12
 BYTE   Fs1  v060
 BYTE   W12
 BYTE   Dn1  v127
 BYTE   N03  Fs1  v118
 BYTE   W12
 BYTE   Fs1  v055
 BYTE   N03  En3  v061
 BYTE   W12
//  #09 //030   ----------------------------------------
 BYTE   Cn1  v124
 BYTE   N03  Fs1  v103
 BYTE   N03  Ds3  v063
 BYTE   W12
 BYTE   Fs1  v060
 BYTE   W06
 BYTE   Ds3  v045
 BYTE   W06
 BYTE   Dn1  v127
 BYTE   N03  Fs1  v116
 BYTE   N03  Ds3  v044
 BYTE   W12
 BYTE   Cn1  v104
 BYTE   N03  Fs1  v052
 BYTE   N03  En3  v064
 BYTE   W12
 BYTE   Cn1  v127
 BYTE   N03  Fs1  v100
 BYTE   N03  Ds3  v043
 BYTE   W12
 BYTE   Fs1  v055
 BYTE   W12
 BYTE   Dn1  v127
 BYTE   N03  Fs1  v115
 BYTE   W12
 BYTE   Fs1  v061
 BYTE   N03  En3  v062
 BYTE   W12
//  #09 //031   ----------------------------------------
 BYTE   Cn1  v126
 BYTE   N03  Fs1  v100
 BYTE   N03  Ds3  v063
 BYTE   W12
 BYTE   Fs1  v055
 BYTE   W06
 BYTE   Ds3  v043
 BYTE   W06
 BYTE   Dn1  v127
 BYTE   N03  Fs1  v115
 BYTE   N03  Ds3  v045
 BYTE   W12
 BYTE   Cn1  v096
 BYTE   N03  Fs1  v054
 BYTE   N03  En3  v060
 BYTE   W12
 BYTE   Cn1  v127
 BYTE   N03  Fs1  v102
 BYTE   N03  Ds3  v045
 BYTE   W12
 BYTE   Fs1  v061
 BYTE   W12
 BYTE   Dn1  v127
 BYTE   N03  Fs1  v111
 BYTE   W12
 BYTE   Fs1  v057
 BYTE   N03  En3  v063
 BYTE   W12
//  #09 //032   ----------------------------------------
 BYTE   Cn1  v127
 BYTE   N03  Cs2  v102
 BYTE   N03  Ds3  v063
 BYTE   W12
 BYTE   Fs1  v055
 BYTE   W06
 BYTE   Ds3  v043
 BYTE   W06
 BYTE   Dn1  v126
 BYTE   N03  Fs1  v118
 BYTE   N03  Ds3  v045
 BYTE   W12
 BYTE   Cn1  v097
 BYTE   N03  Fs1  v061
 BYTE   N03  En3  v065
 BYTE   W12
 BYTE   Cn1  v127
 BYTE   N03  Fs1  v102
 BYTE   N03  Ds3  v045
 BYTE   W12
 BYTE   Fs1  v057
 BYTE   W12
 BYTE   Dn1  v124
 BYTE   N03  Fs1  v116
 BYTE   W12
 BYTE   Fs1  v060
 BYTE   N03  En3  v063
 BYTE   W12
//  #09 //033   ----------------------------------------
 BYTE   Cn1  v127
 BYTE   N03  Fs1  v104
 BYTE   N03  Ds3  v062
 BYTE   W12
 BYTE   Fs1  v061
 BYTE   W06
 BYTE   Ds3  v045
 BYTE   W06
 BYTE   Dn1  v126
 BYTE   N03  Fs1  v110
 BYTE   N03  Ds3  v046
 BYTE   W12
 BYTE   Cn1  v098
 BYTE   N03  Fs1  v055
 BYTE   N03  En3  v063
 BYTE   W12
 BYTE   Cn1  v127
 BYTE   N03  Fs1  v100
 BYTE   N03  Ds3  v043
 BYTE   W12
 BYTE   Fs1  v060
 BYTE   W12
 BYTE   Dn1  v127
 BYTE   N03  Fs1  v117
 BYTE   W12
 BYTE   Fs1  v057
 BYTE   N03  En3  v062
 BYTE   W12
//  #09 //034   ----------------------------------------
 BYTE   Cn1  v127
 BYTE   N03  Fs1  v103
 BYTE   N03  Ds3  v064
 BYTE   W12
 BYTE   Fs1  v057
 BYTE   W06
 BYTE   Ds3  v045
 BYTE   W06
 BYTE   Dn1  v127
 BYTE   N03  Fs1  v112
 BYTE   N03  Ds3  v044
 BYTE   W12
 BYTE   Cn1  v098
 BYTE   N03  Fs1  v055
 BYTE   N03  En3  v063
 BYTE   W12
 BYTE   Cn1  v127
 BYTE   N03  Fs1  v100
 BYTE   N03  Ds3  v047
 BYTE   W12
 BYTE   Fs1  v061
 BYTE   W12
 BYTE   Dn1  v127
 BYTE   N03  Fs1  v117
 BYTE   W12
 BYTE   Fs1  v061
 BYTE   N03  En3  v063
 BYTE   W12
//  #09 //035   ----------------------------------------
 BYTE   Cn1  v127
 BYTE   N03  Fs1  v104
 BYTE   N03  Ds3  v062
 BYTE   W12
 BYTE   Fs1  v061
 BYTE   W06
 BYTE   Ds3  v047
 BYTE   W06
 BYTE   Dn1  v124
 BYTE   N03  Fs1  v110
 BYTE   N03  Ds3  v045
 BYTE   W12
 BYTE   Cn1  v096
 BYTE   N03  Fs1  v055
 BYTE   N03  En3  v061
 BYTE   W12
 BYTE   Cn1  v127
 BYTE   N03  Fs1  v102
 BYTE   N03  Ds3  v047
 BYTE   W12
 BYTE   Fs1  v061
 BYTE   W12
 BYTE   Dn1  v127
 BYTE   N03  Fs1  v112
 BYTE   W12
 BYTE   Fs1  v057
 BYTE   N03  En3  v060
 BYTE   W12
//  #09 //036   ----------------------------------------
 BYTE   Cn1  v127
 BYTE   N03  Fs1  v102
 BYTE   N03  Ds3  v065
 BYTE   W12
 BYTE   Fs1  v054
 BYTE   W06
 BYTE   Ds3  v047
 BYTE   W06
 BYTE   Dn1  v127
 BYTE   N03  Fs1  v115
 BYTE   N03  Ds3  v044
 BYTE   W12
 BYTE   Cn1  v103
 BYTE   N03  Fs1  v061
 BYTE   N03  En3  v065
 BYTE   W12
 BYTE   Cn1  v124
 BYTE   N03  Fs1  v103
 BYTE   N03  Ds3  v047
 BYTE   W12
 BYTE   Fs1  v052
 BYTE   W12
 BYTE   Dn1  v127
 BYTE   N03  Fs1  v111
 BYTE   W12
 BYTE   Fs1  v058
 BYTE   N03  En3  v062
 BYTE   W12
//  #09 //037   ----------------------------------------
 BYTE   Cn1  v127
 BYTE   N03  Fs1  v096
 BYTE   N03  Ds3  v063
 BYTE   W12
 BYTE   Fs1  v052
 BYTE   W06
 BYTE   Ds3  v045
 BYTE   W06
 BYTE   Dn1  v126
 BYTE   N03  Fs1  v110
 BYTE   N03  Ds3  v042
 BYTE   W12
 BYTE   Cn1  v096
 BYTE   N03  Fs1  v060
 BYTE   N03  En3  v061
 BYTE   W12
 BYTE   Cn1  v127
 BYTE   N03  Fs1  v103
 BYTE   N03  Ds3  v042
 BYTE   W12
 BYTE   Fs1  v054
 BYTE   W12
 BYTE   Dn1  v127
 BYTE   N03  Fs1  v116
 BYTE   W12
 BYTE   Fs1  v052
 BYTE   N03  En3  v060
 BYTE   W12
//  #09 //038   ----------------------------------------
 BYTE   Cn1  v127
 BYTE   N03  Fs1  v098
 BYTE   N03  Ds3  v061
 BYTE   W12
 BYTE   Fs1  v060
 BYTE   W06
 BYTE   Ds3  v043
 BYTE   W06
 BYTE   Dn1  v127
 BYTE   N03  Fs1  v116
 BYTE   N03  Ds3  v042
 BYTE   W12
 BYTE   Cn1  v102
 BYTE   N03  Fs1  v058
 BYTE   N03  En3  v063
 BYTE   W12
 BYTE   Cn1  v126
 BYTE   N03  Fs1  v103
 BYTE   N03  Ds3  v044
 BYTE   W12
 BYTE   Fs1  v057
 BYTE   W12
 BYTE   Dn1  v127
 BYTE   N03  Fs1  v118
 BYTE   W12
 BYTE   Fs1  v061
 BYTE   N03  En3  v060
 BYTE   W12
//  #09 //039   ----------------------------------------
 BYTE   Cn1  v127
 BYTE   N03  Fs1  v096
 BYTE   N03  Ds3  v061
 BYTE   W12
 BYTE   Fs1  v060
 BYTE   W06
 BYTE   Ds3  v047
 BYTE   W06
 BYTE   Dn1  v127
 BYTE   N03  Fs1  v115
 BYTE   N03  Ds3  v047
 BYTE   W12
 BYTE   Fs1  v061
 BYTE   N03  En3
 BYTE   W12
 BYTE   Cn1  v127
 BYTE   N03  Fs1  v100
 BYTE   N03  Ds3  v044
 BYTE   W12
 BYTE   Cn1  v096
 BYTE   N03  Fs1  v055
 BYTE   W12
 BYTE   Dn1  v127
 BYTE   N03  Fs1  v115
 BYTE   W12
 BYTE   Cn1  v127
 BYTE   N03  Cs2  v103
 BYTE   N03  En3  v064
 BYTE   W12
//  #09 //040   ----------------------------------------
 BYTE   Ds3  v061
 BYTE   W12
 BYTE   Cn1  v127
 BYTE   N03  Fs1  v061
 BYTE   W06
 BYTE   Ds3  v042
 BYTE   W06
 BYTE   Dn1  v127
 BYTE   N03  Fs1  v112
 BYTE   N03  Ds3  v045
 BYTE   W12
 BYTE   Fs1  v052
 BYTE   N03  En3  v065
 BYTE   W12
 BYTE   Cn1  v127
 BYTE   N03  Fs1  v103
 BYTE   N03  Ds3  v044
 BYTE   W12
 BYTE   Fs1  v054
 BYTE   W12
 BYTE   Dn1  v127
 BYTE   N03  Fs1  v115
 BYTE   W12
 BYTE   Fs1  v060
 BYTE   N03  En3  v063
 BYTE   W12
//  #09 //041   ----------------------------------------
 BYTE   Cn1  v127
 BYTE   N03  Fs1  v097
 BYTE   N03  Ds3  v064
 BYTE   W12
 BYTE   Fs1  v058
 BYTE   W06
 BYTE   Ds3  v044
 BYTE   W06
 BYTE   Dn1  v127
 BYTE   N03  Fs1  v117
 BYTE   N03  Ds3  v045
 BYTE   W12
 BYTE   Fs1  v058
 BYTE   N03  En3  v061
 BYTE   W12
 BYTE   Cn1  v127
 BYTE   N03  Fs1  v100
 BYTE   N03  Ds3  v045
 BYTE   W12
 BYTE   Fs1  v055
 BYTE   W12
 BYTE   Dn1  v126
 BYTE   N03  Fs1  v115
 BYTE   W12
 BYTE   Fs1  v054
 BYTE   N03  En3  v060
 BYTE   W12
//  #09 //042   ----------------------------------------
 BYTE   Cn1  v127
 BYTE   N03  Cs2  v098
 BYTE   N03  Ds3  v060
 BYTE   W12
 BYTE   Fs1  v061
 BYTE   W06
 BYTE   Ds3  v046
 BYTE   W06
 BYTE   Dn1  v126
 BYTE   N03  Fs1  v116
 BYTE   N03  Ds3  v046
 BYTE   W12
 BYTE   Fs1  v052
 BYTE   N03  En3  v060
 BYTE   W12
 BYTE   Cn1  v127
 BYTE   N03  Fs1  v102
 BYTE   N03  Ds3  v063
 BYTE   W12
 BYTE   Fs1  v054
 BYTE   W06
 BYTE   Ds3  v045
 BYTE   W06
 BYTE   Dn1  v127
 BYTE   N03  Fs1  v118
 BYTE   N03  Ds3  v042
 BYTE   W12
 BYTE   Fs1  v052
 BYTE   N03  En3  v065
 BYTE   W12
//  #09 //043   ----------------------------------------
 BYTE   Cn1  v127
 BYTE   N03  Fs1  v100
 BYTE   N03  Ds3  v062
 BYTE   W12
 BYTE   Fs1  v055
 BYTE   W06
 BYTE   Ds3  v045
 BYTE   W06
 BYTE   Dn1  v127
 BYTE   N03  Fs1  v118
 BYTE   N03  Ds3  v042
 BYTE   W12
 BYTE   Fs1  v057
 BYTE   N03  En3  v062
 BYTE   W12
 BYTE   Cn1  v124
 BYTE   N03  Fs1  v098
 BYTE   N03  Ds3  v061
 BYTE   W12
 BYTE   Fs1  v052
 BYTE   W06
 BYTE   Ds3  v045
 BYTE   W06
 BYTE   Dn1  v126
 BYTE   N03  Fs1  v115
 BYTE   N03  Ds3  v047
 BYTE   W12
 BYTE   Fs1  v055
 BYTE   N03  En3  v065
 BYTE   W12
//  #09 //044   ----------------------------------------
 BYTE   Cn1  v127
 BYTE   N03  Fs1  v098
 BYTE   N03  Ds3  v060
 BYTE   W12
 BYTE   Fs1  v058
 BYTE   W06
 BYTE   Ds3  v042
 BYTE   W06
 BYTE   Dn1  v126
 BYTE   N03  Fs1  v116
 BYTE   N03  Ds3  v046
 BYTE   W12
 BYTE   Fs1  v054
 BYTE   N03  En3  v061
 BYTE   W12
 BYTE   Cn1  v127
 BYTE   N03  Fs1  v104
 BYTE   N03  Ds3  v065
 BYTE   W12
 BYTE   Fs1  v060
 BYTE   W06
 BYTE   Ds3  v043
 BYTE   W06
 BYTE   Dn1  v127
 BYTE   N03  Fs1  v115
 BYTE   N03  Ds3  v047
 BYTE   W12
 BYTE   Fs1  v061
 BYTE   N03  En3
 BYTE   W12
//  #09 //045   ----------------------------------------
 BYTE   Cn1  v127
 BYTE   N03  Fs1  v104
 BYTE   N03  Ds3  v064
 BYTE   W12
 BYTE   Fs1  v061
 BYTE   W06
 BYTE   Ds3  v043
 BYTE   W06
 BYTE   Dn1  v126
 BYTE   N03  Fs1  v115
 BYTE   N03  Ds3  v045
 BYTE   W12
 BYTE   Fs1  v052
 BYTE   N03  En3  v065
 BYTE   W12
 BYTE   Cn1  v127
 BYTE   N03  Fs1  v102
 BYTE   N03  Ds3  v063
 BYTE   W12
 BYTE   Fs1  v058
 BYTE   W06
 BYTE   Ds3  v047
 BYTE   W06
 BYTE   Dn1  v127
 BYTE   N03  Fs1  v115
 BYTE   N03  Ds3  v044
 BYTE   W12
 BYTE   Cn1  v100
 BYTE   N03  Fs1  v052
 BYTE   N03  En3  v063
 BYTE   W12
//  #09 //046   ----------------------------------------
 BYTE   Cn1  v127
 BYTE   N03  Cs2  v096
 BYTE   N03  Ds3  v063
 BYTE   W12
 BYTE   Fs1  v055
 BYTE   W06
 BYTE   Ds3  v045
 BYTE   W06
 BYTE   Dn1  v124
 BYTE   N03  Fs1  v115
 BYTE   N03  Ds3  v046
 BYTE   W12
 BYTE   Fs1  v057
 BYTE   N03  En3  v065
 BYTE   W12
 BYTE   Cn1  v127
 BYTE   N03  Fs1  v102
 BYTE   N03  Ds3  v065
 BYTE   W12
 BYTE   Fs1  v054
 BYTE   W06
 BYTE   Ds3  v047
 BYTE   W06
 BYTE   Dn1  v127
 BYTE   N03  Fs1  v115
 BYTE   N03  Ds3  v045
 BYTE   W12
 BYTE   Fs1  v058
 BYTE   N03  En3  v063
 BYTE   W12
//  #09 //047   ----------------------------------------
 BYTE   Cn1  v127
 BYTE   N03  Fs1  v102
 BYTE   N03  Ds3  v062
 BYTE   W12
 BYTE   Fs1  v055
 BYTE   W06
 BYTE   Ds3  v045
 BYTE   W06
 BYTE   Dn1  v127
 BYTE   N03  Fs1  v111
 BYTE   N03  Ds3  v043
 BYTE   W12
 BYTE   Fs1  v054
 BYTE   N03  En3  v064
 BYTE   W12
 BYTE   Cn1  v126
 BYTE   N03  Fs1  v103
 BYTE   N03  Ds3  v065
 BYTE   W12
 BYTE   Fs1  v052
 BYTE   W06
 BYTE   Ds3  v047
 BYTE   W06
 BYTE   Dn1  v127
 BYTE   N03  Fs1  v117
 BYTE   N03  Ds3  v044
 BYTE   W12
 BYTE   Fs1  v058
 BYTE   N03  En3  v064
 BYTE   W12
//  #09 //048   ----------------------------------------
 BYTE   Cn1  v127
 BYTE   N03  Fs1  v096
 BYTE   N03  Ds3  v065
 BYTE   W12
 BYTE   Fs1  v055
 BYTE   W06
 BYTE   Ds3  v047
 BYTE   W06
 BYTE   Dn1  v127
 BYTE   N03  Fs1  v115
 BYTE   N03  Ds3  v045
 BYTE   W12
 BYTE   Fs1  v057
 BYTE   N03  En3  v060
 BYTE   W12
 BYTE   Cn1  v127
 BYTE   N03  Fs1  v098
 BYTE   N03  Ds3  v064
 BYTE   W12
 BYTE   Fs1  v055
 BYTE   W06
 BYTE   Ds3  v043
 BYTE   W06
 BYTE   Dn1  v124
 BYTE   N03  Fs1  v116
 BYTE   N03  Ds3  v044
 BYTE   W12
 BYTE   Fs1  v052
 BYTE   N03  En3  v063
 BYTE   W12
//  #09 //049   ----------------------------------------
 BYTE   Cn1  v124
 BYTE   N03  Fs1  v102
 BYTE   N03  Ds3  v063
 BYTE   W12
 BYTE   Fs1  v052
 BYTE   W06
 BYTE   Ds3  v045
 BYTE   W06
 BYTE   Dn1  v127
 BYTE   N03  Fs1  v110
 BYTE   N03  Ds3  v045
 BYTE   W12
 BYTE   Fs1  v057
 BYTE   N03  En3  v062
 BYTE   W12
 BYTE   Cn1  v127
 BYTE   N03  Fs1  v098
 BYTE   N03  Ds3  v063
 BYTE   W12
 BYTE   Fs1  v060
 BYTE   W06
 BYTE   Ds3  v047
 BYTE   W06
 BYTE   Dn1  v127
 BYTE   N03  Fs1  v115
 BYTE   N03  Ds3  v045
 BYTE   W12
 BYTE   Cn1  v097
 BYTE   N03  Fs1  v061
 BYTE   N03  En3
 BYTE   W12
//  #09 //050   ----------------------------------------
 BYTE   Cn1  v126
 BYTE   N03  Cs2  v104
 BYTE   N03  Ds3  v060
 BYTE   W12
 BYTE   Fs1  v061
 BYTE   W06
 BYTE   Ds3  v045
 BYTE   W06
 BYTE   Dn1  v124
 BYTE   N03  Fs1  v117
 BYTE   N03  Ds3  v045
 BYTE   W12
 BYTE   Fs1  v057
 BYTE   N03  En3  v065
 BYTE   W12
 BYTE   Cn1  v127
 BYTE   N03  Fs1  v096
 BYTE   N03  Ds3  v063
 BYTE   W12
 BYTE   Fs1  v057
 BYTE   W06
 BYTE   Ds3  v047
 BYTE   W06
 BYTE   Dn1  v127
 BYTE   N03  Fs1  v115
 BYTE   N03  Ds3  v046
 BYTE   W12
 BYTE   Fs1  v052
 BYTE   N03  En3  v063
 BYTE   W12
//  #09 //051   ----------------------------------------
 BYTE   Cn1  v127
 BYTE   N03  Fs1  v097
 BYTE   N03  Ds3  v060
 BYTE   W12
 BYTE   Fs1  v055
 BYTE   W06
 BYTE   Ds3  v045
 BYTE   W06
 BYTE   Dn1  v127
 BYTE   N03  Fs1  v110
 BYTE   N03  Ds3  v045
 BYTE   W12
 BYTE   Fs1  v058
 BYTE   N03  En3  v063
 BYTE   W12
 BYTE   Cn1  v127
 BYTE   N03  Fs1  v100
 BYTE   N03  Ds3  v064
 BYTE   W12
 BYTE   Fs1  v055
 BYTE   W06
 BYTE   Ds3  v042
 BYTE   W06
 BYTE   Dn1  v126
 BYTE   N03  Fs1  v112
 BYTE   N03  Ds3  v042
 BYTE   W12
 BYTE   Fs1  v060
 BYTE   N03  En3  v064
 BYTE   W12
//  #09 //052   ----------------------------------------
 BYTE   Cn1  v124
 BYTE   N03  Fs1  v097
 BYTE   N03  Ds3  v062
 BYTE   W12
 BYTE   Fs1  v054
 BYTE   W06
 BYTE   Ds3  v044
 BYTE   W06
 BYTE   Dn1  v127
 BYTE   N03  Fs1  v117
 BYTE   N03  Ds3  v042
 BYTE   W12
 BYTE   Fs1  v055
 BYTE   N03  En3  v061
 BYTE   W12
 BYTE   Cn1  v124
 BYTE   N03  Fs1  v103
 BYTE   N03  Ds3  v065
 BYTE   W12
 BYTE   Fs1  v057
 BYTE   W06
 BYTE   Ds3  v047
 BYTE   W06
 BYTE   Dn1  v127
 BYTE   N03  Fs1  v116
 BYTE   N03  Ds3  v045
 BYTE   W12
 BYTE   Fs1  v054
 BYTE   N03  En3  v061
 BYTE   W12
//  #09 //053   ----------------------------------------
 BYTE   Cn1  v127
 BYTE   N03  Fs1  v102
 BYTE   N03  Ds3  v063
 BYTE   W12
 BYTE   Fs1  v061
 BYTE   W06
 BYTE   Ds3  v047
 BYTE   W06
 BYTE   Dn1  v124
 BYTE   N03  Fs1  v112
 BYTE   N03  Ds3  v045
 BYTE   W12
 BYTE   Fs1  v058
 BYTE   N03  En3  v064
 BYTE   W12
 BYTE   Cn1  v127
 BYTE   N03  Fs1  v102
 BYTE   N03  Ds3  v064
 BYTE   W12
 BYTE   Cn1  v111
 BYTE   N03  Fs1  v060
 BYTE   W06
 BYTE   Ds3  v045
 BYTE   W06
 BYTE   Dn1  v126
 BYTE   N03  Fs1  v110
 BYTE   N03  Ds3  v045
 BYTE   W12
 BYTE   Fs1  v057
 BYTE   N03  En3  v065
 BYTE   W12
//  #09 //054   ----------------------------------------
 BYTE   GoTo
  POIN2 Label_012B947B
//  #09 //055   ----------------------------------------
 BYTE   W10
 BYTE   FINE

//**************** Track 10 (Midi-Chn.9) ****************//

EienNoIczer_010:
//  #10 //000   ----------------------------------------
 BYTE   KEYSH   EienNoIczer_key+0
 BYTE   VOICE   56
 BYTE   BENDR  12
 BYTE   PAN   c_v+32
 BYTE   VOL   27*EienNoIczer_mvl/mxv
 BYTE   N03  Fn3  v127
 BYTE   W12
 BYTE   N04  Gs3
 BYTE   W12
 BYTE   N03  Gn3
 BYTE   W12
 BYTE   N04  Gs3
 BYTE   W06
 BYTE   Fn3
 BYTE   W54
//  #10 //001   ----------------------------------------
Label_012B9F45:
 BYTE   N03  Fn3  v127
 BYTE   W12
 BYTE   N04  Gs3
 BYTE   W12
 BYTE   N03  Gn3
 BYTE   W12
 BYTE   N04  Gs3
 BYTE   W06
 BYTE   Fn3
 BYTE   W54
 BYTE   PEND 
//  #10 //002   ----------------------------------------
Label_012B9F55:
 BYTE   N03  Fn3  v127
 BYTE   W12
 BYTE   N04  Gs3
 BYTE   W12
 BYTE   N03  Gn3
 BYTE   W12
 BYTE   N04  Gs3
 BYTE   W06
 BYTE   N03  Fn3
 BYTE   W12
 BYTE   N04
 BYTE   W06
 BYTE   Gn3
 BYTE   W12
 BYTE   Gs3
 BYTE   W12
 BYTE   As3
 BYTE   W12
 BYTE   PEND 
//  #10 //003   ----------------------------------------
 BYTE   Fn3  v101
 BYTE   N03  Cn4  v127
 BYTE   W12
 BYTE   Fn3  v097
 BYTE   N04  Cn4  v127
 BYTE   W12
 BYTE   Fn3  v100
 BYTE   N03  Cn4  v127
 BYTE   W12
 BYTE   Ds3  v100
 BYTE   N04  As3  v127
 BYTE   W06
 BYTE   Fn3  v101
 BYTE   N04  Cn4  v127
 BYTE   W54
//  #10 //004   ----------------------------------------
 BYTE   VOL   33*EienNoIczer_mvl/mxv
 BYTE   N04  Fn3  v119
 BYTE   W12
 BYTE   N05  Gs3
 BYTE   W12
 BYTE   N04  Gn3  v122
 BYTE   W12
 BYTE   N05  Gs3
 BYTE   W06
 BYTE   Fn3  v124
 BYTE   W54
//  #10 //005   ----------------------------------------
 BYTE   N04  Fn3  v121
 BYTE   W12
 BYTE   N05  Gs3  v117
 BYTE   W12
 BYTE   N04  Gn3
 BYTE   W12
 BYTE   N05  Gs3  v121
 BYTE   W06
 BYTE   Fn3  v117
 BYTE   W54
//  #10 //006   ----------------------------------------
 BYTE   N04  Fn3  v118
 BYTE   W12
 BYTE   N05  Gs3  v124
 BYTE   W12
 BYTE   N04  Gn3  v122
 BYTE   W12
 BYTE   N05  Gs3  v117
 BYTE   W06
 BYTE   N04  Fn3  v124
 BYTE   W12
 BYTE   N05  Fn3  v121
 BYTE   W06
 BYTE   Gn3  v117
 BYTE   W12
 BYTE   Gs3  v124
 BYTE   W12
 BYTE   As3  v121
 BYTE   W12
//  #10 //007   ----------------------------------------
 BYTE   Gn2  v090
 BYTE   N04  Cn4  v121
 BYTE   W12
 BYTE   Gn2  v089
 BYTE   N05  Cn4  v117
 BYTE   W12
 BYTE   Gn2  v090
 BYTE   N04  Cn4  v123
 BYTE   W12
 BYTE   Fn2  v090
 BYTE   N05  As3  v124
 BYTE   W06
 BYTE   Gn2  v085
 BYTE   N05  Cn4  v118
 BYTE   W54
//  #10 //008   ----------------------------------------
Label_012B9FF0:
 BYTE   W96
//  #10 //009   ----------------------------------------
 BYTE   W96
//  #10 //010   ----------------------------------------
 BYTE   W96
//  #10 //011   ----------------------------------------
 BYTE   W96
//  #10 //012   ----------------------------------------
 BYTE   W96
//  #10 //013   ----------------------------------------
 BYTE   W96
//  #10 //014   ----------------------------------------
 BYTE   W96
//  #10 //015   ----------------------------------------
 BYTE   W96
//  #10 //016   ----------------------------------------
 BYTE   W96
//  #10 //017   ----------------------------------------
 BYTE   W96
//  #10 //018   ----------------------------------------
 BYTE   W96
//  #10 //019   ----------------------------------------
 BYTE   W96
//  #10 //020   ----------------------------------------
 BYTE   W96
//  #10 //021   ----------------------------------------
 BYTE   W96
//  #10 //022   ----------------------------------------
 BYTE   W96
//  #10 //023   ----------------------------------------
 BYTE   W96
//  #10 //024   ----------------------------------------
 BYTE   W96
//  #10 //025   ----------------------------------------
 BYTE   W96
//  #10 //026   ----------------------------------------
 BYTE   W96
//  #10 //027   ----------------------------------------
 BYTE   W96
//  #10 //028   ----------------------------------------
 BYTE   VOL   27*EienNoIczer_mvl/mxv
 BYTE   N04  Gs3  v122
 BYTE   N04  Cs4  v117
 BYTE   W36
 BYTE   N60  Gs3  v122
 BYTE   N60  Cs4  v121
 BYTE   W60
//  #10 //029   ----------------------------------------
 BYTE   N04  As3  v119
 BYTE   N04  Ds4  v124
 BYTE   W36
 BYTE   N18  As3  v117
 BYTE   N18  Ds4  v122
 BYTE   W24
 BYTE   Cs4
 BYTE   N18  Fn4  v119
 BYTE   W24
 BYTE   N04  Ds4  v122
 BYTE   N04  Gn4  v121
 BYTE   W12
//  #10 //030   ----------------------------------------
 BYTE   N22  Ds4  v119
 BYTE   N22  Gs4  v117
 BYTE   W20
 BYTE   BEND   c_v-1
 BYTE   W01
 BYTE   N03  Gn4  v074
 BYTE   W02
 BYTE   N02  Fn4  v077
 BYTE   W01
 BYTE   BEND   c_v-2
 BYTE   W01
 BYTE   BEND   c_v-3
 BYTE   N02  Ds4
 BYTE   W01
 BYTE   BEND   c_v-4
 BYTE   W01
 BYTE   BEND   c_v-7
 BYTE   N01  Cs4  v078
 BYTE   W01
 BYTE   BEND   c_v-10
 BYTE   W01
 BYTE   BEND   c_v-14
 BYTE   N01  Cn4  v077
 BYTE   W01
 BYTE   BEND   c_v-20
 BYTE   W01
 BYTE   N01  As3  v078
 BYTE   W02
 BYTE   Gs3  v075
 BYTE   W60
 BYTE   W03
//  #10 //031   ----------------------------------------
 BYTE   W12
 BYTE   BEND   c_v+0
 BYTE   W84
//  #10 //032   ----------------------------------------
 BYTE   W96
//  #10 //033   ----------------------------------------
 BYTE   W96
//  #10 //034   ----------------------------------------
 BYTE   W96
//  #10 //035   ----------------------------------------
 BYTE   W96
//  #10 //036   ----------------------------------------
 BYTE   N04  Gs3  v124
 BYTE   N04  Cs4  v122
 BYTE   W36
 BYTE   N60  Gs3  v119
 BYTE   N60  Cs4  v123
 BYTE   W60
//  #10 //037   ----------------------------------------
 BYTE   N04  As3  v117
 BYTE   N04  Ds4  v121
 BYTE   W36
 BYTE   N18  As3  v123
 BYTE   N18  Ds4  v117
 BYTE   W24
 BYTE   Cs4  v122
 BYTE   N18  Fn4  v117
 BYTE   W24
 BYTE   N04  Ds4  v123
 BYTE   N04  Gn4  v124
 BYTE   W12
//  #10 //038   ----------------------------------------
 BYTE   N22  Ds4  v119
 BYTE   N22  Gs4
 BYTE   W20
 BYTE   BEND   c_v-1
 BYTE   W01
 BYTE   N03  Gn4  v073
 BYTE   W02
 BYTE   N02  Fn4  v075
 BYTE   W01
 BYTE   BEND   c_v-2
 BYTE   W01
 BYTE   BEND   c_v-3
 BYTE   N02  Ds4  v078
 BYTE   W01
 BYTE   BEND   c_v-4
 BYTE   W01
 BYTE   BEND   c_v-7
 BYTE   N01  Cs4  v080
 BYTE   W01
 BYTE   BEND   c_v-10
 BYTE   W01
 BYTE   BEND   c_v-14
 BYTE   N01  Cn4  v075
 BYTE   W01
 BYTE   BEND   c_v-20
 BYTE   W01
 BYTE   N01  As3  v077
 BYTE   W02
 BYTE   Gs3  v074
 BYTE   W60
 BYTE   W03
//  #10 //039   ----------------------------------------
 BYTE   W12
 BYTE   BEND   c_v+0
 BYTE   W84
//  #10 //040   ----------------------------------------
 BYTE   W12
 BYTE   N11  Fn2  v097
 BYTE   W12
 BYTE   Gn2  v106
 BYTE   W12
 BYTE   Gs2  v123
 BYTE   W12
 BYTE   N18  As2  v121
 BYTE   W18
 BYTE   N04  Cn3  v119
 BYTE   W18
 BYTE   Cs3  v123
 BYTE   W12
//  #10 //041   ----------------------------------------
 BYTE   VOL   33*EienNoIczer_mvl/mxv
 BYTE   N04  Gn2  v085
 BYTE   N04  Cn3  v123
 BYTE   W06
 BYTE   Gn2  v091
 BYTE   N04  Cn3  v122
 BYTE   W12
 BYTE   Gn2  v090
 BYTE   N04  Cn3  v119
 BYTE   W06
 BYTE   Cn3  v091
 BYTE   N04  Ds3  v121
 BYTE   W12
 BYTE   N06  Cn3  v084
 BYTE   N06  Fn3  v124
 BYTE   W60
//  #10 //042   ----------------------------------------
 BYTE   W96
//  #10 //043   ----------------------------------------
 BYTE   W96
//  #10 //044   ----------------------------------------
 BYTE   W96
//  #10 //045   ----------------------------------------
 BYTE   W96
//  #10 //046   ----------------------------------------
 BYTE   VOL   27*EienNoIczer_mvl/mxv
 BYTE   N03  Fn3  v127
 BYTE   W12
 BYTE   N04  Gs3
 BYTE   W12
 BYTE   N03  Gn3
 BYTE   W12
 BYTE   N04  Gs3
 BYTE   W06
 BYTE   Fn3
 BYTE   W54
//  #10 //047   ----------------------------------------
 BYTE   PATT
  POIN2 Label_012B9F45
//  #10 //048   ----------------------------------------
 BYTE   PATT
  POIN2 Label_012B9F55
//  #10 //049   ----------------------------------------
 BYTE   N04  Fn3  v096
 BYTE   N03  Cn4  v127
 BYTE   W12
 BYTE   Fn3  v101
 BYTE   N04  Cn4  v127
 BYTE   W12
 BYTE   Fn3  v099
 BYTE   N03  Cn4  v127
 BYTE   W12
 BYTE   Ds3  v102
 BYTE   N04  As3  v127
 BYTE   W06
 BYTE   Fn3  v095
 BYTE   N04  Cn4  v127
 BYTE   W54
//  #10 //050   ----------------------------------------
 BYTE   VOL   33*EienNoIczer_mvl/mxv
 BYTE   N04  Fn3  v119
 BYTE   W12
 BYTE   N05  Gs3  v123
 BYTE   W12
 BYTE   N04  Gn3  v121
 BYTE   W12
 BYTE   N05  Gs3  v117
 BYTE   W06
 BYTE   Fn3  v119
 BYTE   W54
//  #10 //051   ----------------------------------------
 BYTE   N04  Fn3  v122
 BYTE   W12
 BYTE   N05  Gs3  v118
 BYTE   W12
 BYTE   N04  Gn3  v119
 BYTE   W12
 BYTE   N05  Gs3  v122
 BYTE   W06
 BYTE   Fn3  v121
 BYTE   W54
//  #10 //052   ----------------------------------------
 BYTE   N04  Fn3  v119
 BYTE   W12
 BYTE   N05  Gs3  v118
 BYTE   W12
 BYTE   N04  Gn3  v121
 BYTE   W12
 BYTE   N05  Gs3
 BYTE   W06
 BYTE   N04  Fn3  v123
 BYTE   W12
 BYTE   N05  Fn3  v124
 BYTE   W06
 BYTE   Gn3  v119
 BYTE   W12
 BYTE   Gs3  v117
 BYTE   W12
 BYTE   As3
 BYTE   W12
//  #10 //053   ----------------------------------------
 BYTE   Gn2  v091
 BYTE   N04  Cn4  v122
 BYTE   W12
 BYTE   Gn2  v090
 BYTE   N05  Cn4  v117
 BYTE   W12
 BYTE   Gn2  v084
 BYTE   N04  Cn4  v124
 BYTE   W12
 BYTE   Fn2  v090
 BYTE   N05  As3  v124
 BYTE   W06
 BYTE   Gn2  v085
 BYTE   N05  Cn4  v118
 BYTE   W54
//  #10 //054   ----------------------------------------
 BYTE   GoTo
  POIN2 Label_012B9FF0
//  #10 //055   ----------------------------------------
 BYTE   W10
 BYTE   FINE

//**************** Track 11 (Midi-Chn.10) ****************//

EienNoIczer_011:
//  #11 //000   ----------------------------------------
 BYTE   KEYSH   EienNoIczer_key+0
 BYTE   VOICE   26
 BYTE   VOL   21*EienNoIczer_mvl/mxv
 BYTE   W96
//  #11 //001   ----------------------------------------
 BYTE   W96
//  #11 //002   ----------------------------------------
 BYTE   W96
//  #11 //003   ----------------------------------------
 BYTE   W96
//  #11 //004   ----------------------------------------
 BYTE   W96
//  #11 //005   ----------------------------------------
 BYTE   W96
//  #11 //006   ----------------------------------------
 BYTE   W96
//  #11 //007   ----------------------------------------
 BYTE   W96
//  #11 //008   ----------------------------------------
Label_012BA1BE:
 BYTE   W96
//  #11 //009   ----------------------------------------
 BYTE   W96
//  #11 //010   ----------------------------------------
 BYTE   W96
//  #11 //011   ----------------------------------------
 BYTE   W96
//  #11 //012   ----------------------------------------
 BYTE   W96
//  #11 //013   ----------------------------------------
 BYTE   W96
//  #11 //014   ----------------------------------------
 BYTE   W96
//  #11 //015   ----------------------------------------
 BYTE   W96
//  #11 //016   ----------------------------------------
 BYTE   W96
//  #11 //017   ----------------------------------------
 BYTE   W96
//  #11 //018   ----------------------------------------
 BYTE   W96
//  #11 //019   ----------------------------------------
 BYTE   W96
//  #11 //020   ----------------------------------------
 BYTE   W96
//  #11 //021   ----------------------------------------
 BYTE   W96
//  #11 //022   ----------------------------------------
 BYTE   W96
//  #11 //023   ----------------------------------------
 BYTE   W96
//  #11 //024   ----------------------------------------
 BYTE   W96
//  #11 //025   ----------------------------------------
 BYTE   W96
//  #11 //026   ----------------------------------------
 BYTE   W96
//  #11 //027   ----------------------------------------
 BYTE   W96
//  #11 //028   ----------------------------------------
 BYTE   W96
//  #11 //029   ----------------------------------------
 BYTE   W96
//  #11 //030   ----------------------------------------
 BYTE   W96
//  #11 //031   ----------------------------------------
 BYTE   W96
//  #11 //032   ----------------------------------------
 BYTE   W96
//  #11 //033   ----------------------------------------
 BYTE   W96
//  #11 //034   ----------------------------------------
 BYTE   W96
//  #11 //035   ----------------------------------------
 BYTE   W96
//  #11 //036   ----------------------------------------
 BYTE   W96
//  #11 //037   ----------------------------------------
 BYTE   W96
//  #11 //038   ----------------------------------------
 BYTE   W96
//  #11 //039   ----------------------------------------
 BYTE   W96
//  #11 //040   ----------------------------------------
 BYTE   W96
//  #11 //041   ----------------------------------------
 BYTE   BENDR  12
 BYTE   VOL   18*EienNoIczer_mvl/mxv
 BYTE   W96
//  #11 //042   ----------------------------------------
 BYTE   W10
 BYTE   N03  Gs2  v122
 BYTE   W02
 BYTE   BEND   c_v-15
 BYTE   N03  Ds3  v119
 BYTE   W01
 BYTE   BEND   c_v-14
 BYTE   W01
 BYTE   BEND   c_v-13
 BYTE   N03  Gs3  v117
 BYTE   W01
 BYTE   BEND   c_v-12
 BYTE   W01
 BYTE   TIE  Fn4  v127
 BYTE   W01
 BYTE   BEND   c_v-11
 BYTE   W01
 BYTE   BEND   c_v-10
 BYTE   W01
 BYTE   BEND   c_v-9
 BYTE   W01
 BYTE   BEND   c_v-8
 BYTE   W02
 BYTE   BEND   c_v-7
 BYTE   W01
 BYTE   BEND   c_v-6
 BYTE   W01
 BYTE   BEND   c_v-5
 BYTE   W01
 BYTE   BEND   c_v-4
 BYTE   W02
 BYTE   BEND   c_v-3
 BYTE   W01
 BYTE   BEND   c_v-2
 BYTE   W01
 BYTE   BEND   c_v-1
 BYTE   W01
 BYTE   BEND   c_v+0
 BYTE   W10
 BYTE   BEND   c_v+1
 BYTE   W03
 BYTE   BEND   c_v+0
 BYTE   W05
 BYTE   BEND   c_v+1
 BYTE   W03
 BYTE   BEND   c_v+2
 BYTE   W01
 BYTE   BEND   c_v+1
 BYTE   W02
 BYTE   BEND   c_v+0
 BYTE   W06
 BYTE   BEND   c_v+1
 BYTE   W06
 BYTE   BEND   c_v+0
 BYTE   W05
 BYTE   BEND   c_v+1
 BYTE   W03
 BYTE   BEND   c_v+2
 BYTE   W01
 BYTE   BEND   c_v+1
 BYTE   W02
 BYTE   BEND   c_v+0
 BYTE   W06
 BYTE   BEND   c_v+1
 BYTE   W06
 BYTE   BEND   c_v+0
 BYTE   W05
 BYTE   BEND   c_v+1
 BYTE   W02
//  #11 //043   ----------------------------------------
 BYTE   W01
 BYTE   BEND   c_v+2
 BYTE   W01
 BYTE   BEND   c_v+1
 BYTE   W02
 BYTE   BEND   c_v+0
 BYTE   W04
 BYTE   BEND   c_v-1
 BYTE   W05
 BYTE   BEND   c_v-2
 BYTE   W03
 BYTE   BEND   c_v-4
 BYTE   W02
 BYTE   BEND   c_v-9
 BYTE   W03
 BYTE   BEND   c_v-18
 BYTE   W02
 BYTE   EOT
 BYTE   BEND   c_v-34
 BYTE   W01
 BYTE   BEND   c_v-37
 BYTE   N02  Cn4
 BYTE   W01
 BYTE   BEND   c_v-12
 BYTE   N03  Cn3
 BYTE   W01
 BYTE   BEND   c_v-10
 BYTE   W01
 BYTE   BEND   c_v-8
 BYTE   N11  Ds4
 BYTE   W01
 BYTE   BEND   c_v-5
 BYTE   W01
 BYTE   BEND   c_v-3
 BYTE   W01
 BYTE   BEND   c_v+0
 BYTE   W06
 BYTE   N11  Cn4
 BYTE   W12
 BYTE   Cn4
 BYTE   W12
 BYTE   Ds4
 BYTE   W12
 BYTE   Cn4
 BYTE   W12
 BYTE   Cn4
 BYTE   W12
//  #11 //044   ----------------------------------------
 BYTE   BEND   c_v+10
 BYTE   N11  As3
 BYTE   W06
 BYTE   BEND   c_v+0
 BYTE   W06
 BYTE   N06  Gs3
 BYTE   W06
 BYTE   Fn3
 BYTE   W06
 BYTE   N11  As3
 BYTE   W12
 BYTE   N84  Gs3
 BYTE   W15
 BYTE   BEND   c_v+1
 BYTE   W03
 BYTE   BEND   c_v+0
 BYTE   W05
 BYTE   BEND   c_v+1
 BYTE   W03
 BYTE   BEND   c_v+2
 BYTE   W01
 BYTE   BEND   c_v+1
 BYTE   W02
 BYTE   BEND   c_v+0
 BYTE   W06
 BYTE   BEND   c_v+1
 BYTE   W06
 BYTE   BEND   c_v+0
 BYTE   W05
 BYTE   BEND   c_v+1
 BYTE   W04
 BYTE   BEND   c_v+0
 BYTE   W03
 BYTE   BEND   c_v-2
 BYTE   W02
 BYTE   BEND   c_v-5
 BYTE   W03
 BYTE   BEND   c_v-10
 BYTE   W02
//  #11 //045   ----------------------------------------
 BYTE   BEND   c_v-15
 BYTE   W03
 BYTE   BEND   c_v-22
 BYTE   W02
 BYTE   BEND   c_v-31
 BYTE   W01
 BYTE   BEND   c_v-32
 BYTE   W02
 BYTE   BEND   c_v-37
 BYTE   W03
 BYTE   BEND   c_v-36
 BYTE   W02
 BYTE   BEND   c_v-31
 BYTE   W03
 BYTE   BEND   c_v-22
 BYTE   W02
 BYTE   BEND   c_v-8
 BYTE   W03
 BYTE   BEND   c_v+14
 BYTE   W02
 BYTE   BEND   c_v+44
 BYTE   W01
 BYTE   BEND   c_v+0
 BYTE   N02  Ds3  v123
 BYTE   N02  As3  v119
 BYTE   W06
 BYTE   Ds3  v118
 BYTE   N02  As3  v122
 BYTE   W06
 BYTE   N11  Gs2  v102
 BYTE   W01
 BYTE   BEND   c_v-12
 BYTE   W01
 BYTE   BEND   c_v-20
 BYTE   W01
 BYTE   BEND   c_v-25
 BYTE   W01
 BYTE   BEND   c_v-29
 BYTE   W01
 BYTE   BEND   c_v-31
 BYTE   W01
 BYTE   BEND   c_v-32
 BYTE   W01
 BYTE   BEND   c_v-33
 BYTE   W05
 BYTE   N11  Fn4  v127
 BYTE   W01
 BYTE   BEND   c_v-11
 BYTE   W02
 BYTE   BEND   c_v-10
 BYTE   W02
 BYTE   BEND   c_v-9
 BYTE   W01
 BYTE   BEND   c_v-8
 BYTE   W02
 BYTE   BEND   c_v-6
 BYTE   W01
 BYTE   BEND   c_v-5
 BYTE   W01
 BYTE   BEND   c_v-4
 BYTE   W01
 BYTE   BEND   c_v-2
 BYTE   W01
 BYTE   BEND   c_v+0
 BYTE   N06  Ds4
 BYTE   W06
 BYTE   As3
 BYTE   W06
 BYTE   N11  Ds3
 BYTE   W12
 BYTE   BEND   c_v-13
 BYTE   TIE  As4
 BYTE   W05
 BYTE   BEND   c_v-12
 BYTE   W02
 BYTE   BEND   c_v-11
 BYTE   W02
 BYTE   BEND   c_v-10
 BYTE   W01
 BYTE   BEND   c_v-9
 BYTE   W02
//  #11 //046   ----------------------------------------
 BYTE   BEND   c_v-8
 BYTE   W01
 BYTE   BEND   c_v-7
 BYTE   W01
 BYTE   BEND   c_v-6
 BYTE   W01
 BYTE   BEND   c_v-4
 BYTE   W01
 BYTE   BEND   c_v-3
 BYTE   W01
 BYTE   BEND   c_v-2
 BYTE   W01
 BYTE   BEND   c_v+0
 BYTE   W15
 BYTE   BEND   c_v+1
 BYTE   W03
 BYTE   BEND   c_v+0
 BYTE   W05
 BYTE   BEND   c_v+1
 BYTE   W03
 BYTE   BEND   c_v+2
 BYTE   W01
 BYTE   BEND   c_v+1
 BYTE   W02
 BYTE   BEND   c_v+0
 BYTE   W06
 BYTE   BEND   c_v+1
 BYTE   W06
 BYTE   BEND   c_v+0
 BYTE   W05
 BYTE   BEND   c_v+1
 BYTE   W03
 BYTE   BEND   c_v+2
 BYTE   W01
 BYTE   BEND   c_v+1
 BYTE   W02
 BYTE   BEND   c_v+0
 BYTE   W22
 BYTE   BEND   c_v-1
 BYTE   W03
 BYTE   BEND   c_v-5
 BYTE   W02
 BYTE   BEND   c_v-16
 BYTE   W03
 BYTE   BEND   c_v-38
 BYTE   W02
 BYTE   EOT
 BYTE   BEND   c_v+0
 BYTE   N02  Cn3  v108
 BYTE   W02
 BYTE   Gn3
 BYTE   W02
 BYTE   Cn4  v106
 BYTE   W02
//  #11 //047   ----------------------------------------
 BYTE   N12  Fn4  v127
 BYTE   W12
 BYTE   N48  Ds4  v124
 BYTE   W13
 BYTE   BEND   c_v+6
 BYTE   W01
 BYTE   BEND   c_v+9
 BYTE   W01
 BYTE   BEND   c_v+10
 BYTE   W01
 BYTE   BEND   c_v+11
 BYTE   W03
 BYTE   BEND   c_v+9
 BYTE   W01
 BYTE   BEND   c_v+7
 BYTE   W01
 BYTE   BEND   c_v+5
 BYTE   W01
 BYTE   BEND   c_v+4
 BYTE   W01
 BYTE   BEND   c_v+2
 BYTE   W01
 BYTE   BEND   c_v+0
 BYTE   W09
 BYTE   BEND   c_v+1
 BYTE   W03
 BYTE   BEND   c_v+0
 BYTE   W05
 BYTE   BEND   c_v+1
 BYTE   W03
 BYTE   BEND   c_v+3
 BYTE   W01
 BYTE   BEND   c_v+1
 BYTE   W02
 BYTE   BEND   c_v+0
 BYTE   W01
 BYTE   N12  Cn4  v127
 BYTE   W12
 BYTE   N06
 BYTE   W06
 BYTE   Cn4
 BYTE   W06
 BYTE   Fn4
 BYTE   W06
 BYTE   Cn4
 BYTE   W06
//  #11 //048   ----------------------------------------
 BYTE   Ds4
 BYTE   W06
 BYTE   Cn4
 BYTE   W06
 BYTE   As3
 BYTE   W06
 BYTE   Gs3
 BYTE   W06
 BYTE   N12  As3
 BYTE   W06
 BYTE   BEND   c_v-11
 BYTE   W06
 BYTE   BEND   c_v+0
 BYTE   N06  Fn3
 BYTE   W06
 BYTE   N36  Gs3
 BYTE   W15
 BYTE   BEND   c_v+1
 BYTE   W03
 BYTE   BEND   c_v+0
 BYTE   W05
 BYTE   BEND   c_v+1
 BYTE   W03
 BYTE   BEND   c_v+2
 BYTE   W01
 BYTE   BEND   c_v+1
 BYTE   W02
 BYTE   BEND   c_v+0
 BYTE   W02
 BYTE   BEND   c_v-10
 BYTE   W01
 BYTE   BEND   c_v-20
 BYTE   W01
 BYTE   BEND   c_v-30
 BYTE   W01
 BYTE   BEND   c_v-39
 BYTE   W01
 BYTE   BEND   c_v-49
 BYTE   W01
 BYTE   BEND   c_v+0
 BYTE   N06  Fn2
 BYTE   W06
 BYTE   Fn2
 BYTE   W06
 BYTE   Gn2
 BYTE   W06
//  #11 //049   ----------------------------------------
 BYTE   Gs2
 BYTE   W06
 BYTE   As2
 BYTE   W06
 BYTE   Cn3
 BYTE   W06
 BYTE   Cs3
 BYTE   W06
 BYTE   N11  Cn3
 BYTE   W12
 BYTE   N06
 BYTE   W06
 BYTE   N11  Ds3
 BYTE   W18
 BYTE   Cn4  v118
 BYTE   W24
 BYTE   BEND   c_v-11
 BYTE   N11  Fn4  v127
 BYTE   W06
 BYTE   BEND   c_v+0
 BYTE   W06
//  #11 //050   ----------------------------------------
 BYTE   N06  Gs4
 BYTE   W12
 BYTE   As4
 BYTE   W12
 BYTE   BEND   c_v-10
 BYTE   N44  Cn5  v127  gtp3
 BYTE   W03
 BYTE   BEND   c_v-9
 BYTE   W01
 BYTE   BEND   c_v-8
 BYTE   W01
 BYTE   BEND   c_v-5
 BYTE   W01
 BYTE   BEND   c_v+0
 BYTE   W09
 BYTE   BEND   c_v-3
 BYTE   W03
 BYTE   BEND   c_v-5
 BYTE   W05
 BYTE   BEND   c_v-3
 BYTE   W03
 BYTE   BEND   c_v+0
 BYTE   W22
 BYTE   BEND   c_v-12
 BYTE   N11
 BYTE   W01
 BYTE   BEND   c_v-10
 BYTE   W01
 BYTE   BEND   c_v-8
 BYTE   W01
 BYTE   BEND   c_v-6
 BYTE   W01
 BYTE   BEND   c_v-4
 BYTE   W01
 BYTE   BEND   c_v-2
 BYTE   W01
 BYTE   BEND   c_v+0
 BYTE   W01
 BYTE   BEND   c_v-7
 BYTE   W01
 BYTE   BEND   c_v-10
 BYTE   W01
 BYTE   BEND   c_v-11
 BYTE   W03
 BYTE   BEND   c_v+0
 BYTE   N06  Gs4
 BYTE   W06
 BYTE   Fn4
 BYTE   W06
//  #11 //051   ----------------------------------------
 BYTE   Ds4
 BYTE   W06
 BYTE   As4
 BYTE   W06
 BYTE   BEND   c_v-10
 BYTE   N60  Cn5
 BYTE   W03
 BYTE   BEND   c_v-9
 BYTE   W01
 BYTE   BEND   c_v-8
 BYTE   W01
 BYTE   BEND   c_v-5
 BYTE   W01
 BYTE   BEND   c_v+0
 BYTE   W09
 BYTE   BEND   c_v-3
 BYTE   W03
 BYTE   BEND   c_v-5
 BYTE   W05
 BYTE   BEND   c_v-3
 BYTE   W03
 BYTE   BEND   c_v+0
 BYTE   W32
 BYTE   W02
 BYTE   BEND   c_v-12
 BYTE   N11
 BYTE   W01
 BYTE   BEND   c_v-10
 BYTE   W01
 BYTE   BEND   c_v-8
 BYTE   W01
 BYTE   BEND   c_v-6
 BYTE   W01
 BYTE   BEND   c_v-4
 BYTE   W01
 BYTE   BEND   c_v-2
 BYTE   W01
 BYTE   BEND   c_v+0
 BYTE   W01
 BYTE   BEND   c_v-7
 BYTE   W01
 BYTE   BEND   c_v-10
 BYTE   W01
 BYTE   BEND   c_v-11
 BYTE   W03
 BYTE   BEND   c_v+0
 BYTE   N06  Gs4
 BYTE   W06
 BYTE   Fn4
 BYTE   W06
//  #11 //052   ----------------------------------------
 BYTE   Ds4
 BYTE   W06
 BYTE   As4
 BYTE   W06
 BYTE   BEND   c_v-10
 BYTE   N72  Cn5
 BYTE   W03
 BYTE   BEND   c_v-9
 BYTE   W01
 BYTE   BEND   c_v-8
 BYTE   W01
 BYTE   BEND   c_v-5
 BYTE   W01
 BYTE   BEND   c_v+0
 BYTE   W09
 BYTE   BEND   c_v-3
 BYTE   W03
 BYTE   BEND   c_v-5
 BYTE   W05
 BYTE   BEND   c_v-3
 BYTE   W03
 BYTE   BEND   c_v+0
 BYTE   W44
 BYTE   W02
 BYTE   N11  Gs4
 BYTE   W12
//  #11 //053   ----------------------------------------
 BYTE   N07  As4
 BYTE   W12
 BYTE   BEND   c_v-10
 BYTE   N84  Cn5
 BYTE   W03
 BYTE   BEND   c_v-9
 BYTE   W01
 BYTE   BEND   c_v-8
 BYTE   W01
 BYTE   BEND   c_v-5
 BYTE   W01
 BYTE   BEND   c_v+0
 BYTE   W09
 BYTE   BEND   c_v-3
 BYTE   W03
 BYTE   BEND   c_v-5
 BYTE   W05
 BYTE   BEND   c_v-3
 BYTE   W03
 BYTE   BEND   c_v+0
 BYTE   W54
 BYTE   BEND   c_v-6
 BYTE   W03
 BYTE   BEND   c_v-11
 BYTE   W01
//  #11 //054   ----------------------------------------
 BYTE   VOL   21*EienNoIczer_mvl/mxv
 BYTE   BEND   c_v+0
 BYTE   BENDR  2
 BYTE   GoTo
  POIN2 Label_012BA1BE
//  #11 //055   ----------------------------------------
 BYTE   W10
 BYTE   FINE

//**************** Track 12 (Midi-Chn.11) ****************//

EienNoIczer_012:
//  #12 //000   ----------------------------------------
 BYTE   KEYSH   EienNoIczer_key+0
 BYTE   VOICE   107
 BYTE   BENDR  12
 BYTE   VOL   10*EienNoIczer_mvl/mxv
 BYTE   MOD 1
 BYTE   PAN   c_v-64
 BYTE   W96
//  #12 //001   ----------------------------------------
 BYTE   W96
//  #12 //002   ----------------------------------------
 BYTE   W96
//  #12 //003   ----------------------------------------
 BYTE   W96
//  #12 //004   ----------------------------------------
 BYTE   W96
//  #12 //005   ----------------------------------------
 BYTE   W96
//  #12 //006   ----------------------------------------
 BYTE   W96
//  #12 //007   ----------------------------------------
 BYTE   W96
//  #12 //008   ----------------------------------------
Label_012BA488:
 BYTE   N22  Cn4  v104
 BYTE   W24
 BYTE   N10  Fn4  v109
 BYTE   W12
 BYTE   Gn4
 BYTE   W12
 BYTE   Gs4  v105
 BYTE   W12
 BYTE   Gn4  v104
 BYTE   W12
 BYTE   N22  Fn4  v110
 BYTE   W24
//  #12 //009   ----------------------------------------
 BYTE   N10  Fn4  v109
 BYTE   W12
 BYTE   Gs4  v106
 BYTE   W12
 BYTE   Gs4  v108
 BYTE   W12
 BYTE   Gn4  v111
 BYTE   W12
 BYTE   N32  Fn4  v111  gtp2
 BYTE   W48
//  #12 //010   ----------------------------------------
 BYTE   W36
 BYTE   N10  Ds4  v109
 BYTE   W12
 BYTE   Ds4  v108
 BYTE   W12
 BYTE   Fn4  v104
 BYTE   W12
 BYTE   N22  Ds4  v108
 BYTE   W24
//  #12 //011   ----------------------------------------
 BYTE   N10  Ds4  v104
 BYTE   W12
 BYTE   Cn4  v105
 BYTE   W12
 BYTE   N32  Ds4  v111  gtp2
 BYTE   W72
//  #12 //012   ----------------------------------------
 BYTE   N22
 BYTE   W24
 BYTE   N10  Cs4  v104
 BYTE   W12
 BYTE   Cn4  v110
 BYTE   W12
 BYTE   N14  Cs4  v104
 BYTE   W24
 BYTE   N22  Cs4  v111
 BYTE   W24
//  #12 //013   ----------------------------------------
 BYTE   N10
 BYTE   W12
 BYTE   Ds4  v104
 BYTE   W12
 BYTE   Cs4  v109
 BYTE   W12
 BYTE   Cn4  v110
 BYTE   W12
 BYTE   N32  Cs4  v105  gtp2
 BYTE   W48
//  #12 //014   ----------------------------------------
 BYTE   W36
 BYTE   N10  Cn4
 BYTE   W12
 BYTE   Cn4  v109
 BYTE   W12
 BYTE   Cn4  v110
 BYTE   W12
 BYTE   Cn4
 BYTE   W12
 BYTE   Ds4  v109
 BYTE   W12
//  #12 //015   ----------------------------------------
 BYTE   N32  Cn4  v109  gtp2
 BYTE   W96
//  #12 //016   ----------------------------------------
 BYTE   N22  Cn4  v104
 BYTE   W24
 BYTE   N10  Fn4  v110
 BYTE   W12
 BYTE   Gn4  v111
 BYTE   W12
 BYTE   Gs4  v105
 BYTE   W12
 BYTE   Gn4
 BYTE   W12
 BYTE   N22  Fn4  v110
 BYTE   W24
//  #12 //017   ----------------------------------------
 BYTE   N10  Fn4  v109
 BYTE   W12
 BYTE   Gs4  v104
 BYTE   W12
 BYTE   Gs4  v108
 BYTE   W12
 BYTE   Gn4  v105
 BYTE   W12
 BYTE   N32  Fn4  v106  gtp2
 BYTE   W48
//  #12 //018   ----------------------------------------
 BYTE   W36
 BYTE   N10  Ds4  v104
 BYTE   W12
 BYTE   Ds4  v110
 BYTE   W12
 BYTE   Fn4  v111
 BYTE   W12
 BYTE   N22  Ds4  v110
 BYTE   W24
//  #12 //019   ----------------------------------------
 BYTE   N10
 BYTE   W12
 BYTE   Cn4
 BYTE   W12
 BYTE   N32  Ds4  v109  gtp2
 BYTE   W72
//  #12 //020   ----------------------------------------
 BYTE   W12
 BYTE   N22  Fn4  v110
 BYTE   W24
 BYTE   N10  Fn4  v105
 BYTE   W12
 BYTE   Fn4  v110
 BYTE   W12
 BYTE   Ds4  v104
 BYTE   W12
 BYTE   N14  Cs4  v106
 BYTE   W24
//  #12 //021   ----------------------------------------
 BYTE   N22  Gn4  v109
 BYTE   W24
 BYTE   N10  Gn4  v110
 BYTE   W12
 BYTE   Gn4  v108
 BYTE   W12
 BYTE   Gn4  v104
 BYTE   W12
 BYTE   Fn4  v109
 BYTE   W12
 BYTE   N32  Ds4  v108  gtp2
 BYTE   W24
//  #12 //022   ----------------------------------------
 BYTE   W36
 BYTE   N10  Gs4
 BYTE   W12
 BYTE   Gs4
 BYTE   W12
 BYTE   Gs4  v110
 BYTE   W12
 BYTE   N22  As4  v108
 BYTE   W24
//  #12 //023   ----------------------------------------
 BYTE   TIE  Gn4  v104
 BYTE   W96
//  #12 //024   ----------------------------------------
 BYTE   W10
 BYTE   EOT
 BYTE   W24
 BYTE   W02
 BYTE   N10  Fn4  v105
 BYTE   W12
 BYTE   Fn4
 BYTE   W12
 BYTE   Gs4  v106
 BYTE   W12
 BYTE   Gs4
 BYTE   W12
 BYTE   Cn5  v111
 BYTE   W12
//  #12 //025   ----------------------------------------
 BYTE   Cn5  v104
 BYTE   W12
 BYTE   Cn5  v105
 BYTE   W12
 BYTE   Cn5  v109
 BYTE   W12
 BYTE   Cs5
 BYTE   W12
 BYTE   N56  Cn5  v108  gtp2
 BYTE   W48
//  #12 //026   ----------------------------------------
 BYTE   W36
 BYTE   N10  Cn5  v111
 BYTE   W12
 BYTE   Cn5  v105
 BYTE   W12
 BYTE   Cs5  v109
 BYTE   W12
 BYTE   Cn5  v105
 BYTE   W12
 BYTE   As4  v108
 BYTE   W12
//  #12 //027   ----------------------------------------
 BYTE   Gs4  v111
 BYTE   W12
 BYTE   N22  Cn5  v108
 BYTE   W24
 BYTE   N10  Cn5  v109
 BYTE   W12
 BYTE   N32  Gn4  v106  gtp2
 BYTE   W48
//  #12 //028   ----------------------------------------
 BYTE   W12
 BYTE   N10  Fn4  v109
 BYTE   W12
 BYTE   Gn4  v106
 BYTE   W12
 BYTE   Gs4  v108
 BYTE   W12
 BYTE   N22  Fn4  v106
 BYTE   W24
 BYTE   Gn4
 BYTE   W24
//  #12 //029   ----------------------------------------
 BYTE   N10  Gs4  v110
 BYTE   W12
 BYTE   Gn4  v108
 BYTE   W12
 BYTE   Gs4
 BYTE   W12
 BYTE   As4  v110
 BYTE   W12
 BYTE   N22  Gn4  v109
 BYTE   W24
 BYTE   Gs4  v110
 BYTE   W24
//  #12 //030   ----------------------------------------
 BYTE   N10  As4  v105
 BYTE   W36
 BYTE   Cn5  v106
 BYTE   W12
 BYTE   Cn5
 BYTE   W12
 BYTE   Cn5  v105
 BYTE   W12
 BYTE   N22  As4  v106
 BYTE   W24
//  #12 //031   ----------------------------------------
 BYTE   N10  Gs4  v108
 BYTE   W12
 BYTE   N92  Cn5  v104  gtp2
 BYTE   W84
//  #12 //032   ----------------------------------------
 BYTE   W36
 BYTE   N10  Cn5  v108
 BYTE   W12
 BYTE   Cn5  v104
 BYTE   W12
 BYTE   Cn5
 BYTE   W12
 BYTE   Cn5  v109
 BYTE   W12
 BYTE   Cn5  v110
 BYTE   W12
//  #12 //033   ----------------------------------------
 BYTE   Cn5  v109
 BYTE   W12
 BYTE   Cs5  v105
 BYTE   W12
 BYTE   Cn5  v104
 BYTE   W12
 BYTE   Cs5  v111
 BYTE   W12
 BYTE   N56  Cn5  v109  gtp2
 BYTE   W48
//  #12 //034   ----------------------------------------
 BYTE   W36
 BYTE   N10  Cn5  v106
 BYTE   W12
 BYTE   Cn5  v110
 BYTE   W12
 BYTE   Cs5  v105
 BYTE   W12
 BYTE   Cn5  v111
 BYTE   W12
 BYTE   As4
 BYTE   W12
//  #12 //035   ----------------------------------------
 BYTE   Gs4  v109
 BYTE   W12
 BYTE   N22  Cn5
 BYTE   W24
 BYTE   N10  Cn5  v108
 BYTE   W12
 BYTE   N56  Gn4  v105  gtp2
 BYTE   W48
//  #12 //036   ----------------------------------------
 BYTE   W12
 BYTE   N10  Fn4  v110
 BYTE   W12
 BYTE   Gn4
 BYTE   W12
 BYTE   Gs4  v109
 BYTE   W12
 BYTE   N22  Fn4  v111
 BYTE   W24
 BYTE   Gn4  v106
 BYTE   W24
//  #12 //037   ----------------------------------------
 BYTE   N10  Gs4  v104
 BYTE   W12
 BYTE   Gn4  v108
 BYTE   W12
 BYTE   Gs4  v104
 BYTE   W12
 BYTE   As4  v110
 BYTE   W12
 BYTE   N22  Gn4  v105
 BYTE   W24
 BYTE   Gs4  v110
 BYTE   W24
//  #12 //038   ----------------------------------------
 BYTE   N10  As4
 BYTE   W36
 BYTE   Cn5  v111
 BYTE   W12
 BYTE   Cn5  v105
 BYTE   W12
 BYTE   Cn5  v106
 BYTE   W12
 BYTE   N22  As4  v108
 BYTE   W24
//  #12 //039   ----------------------------------------
 BYTE   N10  Gs4  v111
 BYTE   W12
 BYTE   N22  Gn4  v105
 BYTE   W24
 BYTE   Gn4  v108
 BYTE   W24
 BYTE   N10  Gn4  v109
 BYTE   W12
 BYTE   N22  Cn5  v104
 BYTE   W24
//  #12 //040   ----------------------------------------
 BYTE   TIE  Fn4  v106
 BYTE   W96
//  #12 //041   ----------------------------------------
 BYTE   W10
 BYTE   EOT
 BYTE   W84
 BYTE   W02
//  #12 //042   ----------------------------------------
 BYTE   W96
//  #12 //043   ----------------------------------------
 BYTE   W96
//  #12 //044   ----------------------------------------
 BYTE   W96
//  #12 //045   ----------------------------------------
 BYTE   W96
//  #12 //046   ----------------------------------------
 BYTE   W96
//  #12 //047   ----------------------------------------
 BYTE   W96
//  #12 //048   ----------------------------------------
 BYTE   W96
//  #12 //049   ----------------------------------------
 BYTE   W96
//  #12 //050   ----------------------------------------
 BYTE   W96
//  #12 //051   ----------------------------------------
 BYTE   W96
//  #12 //052   ----------------------------------------
 BYTE   W96
//  #12 //053   ----------------------------------------
 BYTE   W96
//  #12 //054   ----------------------------------------
 BYTE   GoTo
  POIN2 Label_012BA488
//  #12 //055   ----------------------------------------
 BYTE   W10
 BYTE   FINE

//**************** Track 13 (Midi-Chn.12) ****************//

EienNoIczer_013:
//  #13 //000   ----------------------------------------
 BYTE   KEYSH   EienNoIczer_key+0
 BYTE   VOICE   43
 BYTE   BENDR  12
 BYTE   PAN   c_v+16
 BYTE   VOL   21*EienNoIczer_mvl/mxv
 BYTE   N03  Fn3  v120
 BYTE   W03
 BYTE   N01
 BYTE   W09
 BYTE   N03  Gs3
 BYTE   W03
 BYTE   N01
 BYTE   W09
 BYTE   N03  Gn3
 BYTE   W03
 BYTE   N01
 BYTE   W09
 BYTE   N03  Gs3
 BYTE   W03
 BYTE   N01
 BYTE   W03
 BYTE   N03  Fn3
 BYTE   W03
 BYTE   N01
 BYTE   W48
 BYTE   W03
//  #13 //001   ----------------------------------------
Label_012BA6C1:
 BYTE   N03  Fn3  v120
 BYTE   W03
 BYTE   N01
 BYTE   W09
 BYTE   N03  Gs3
 BYTE   W03
 BYTE   N01
 BYTE   W09
 BYTE   N03  Gn3
 BYTE   W03
 BYTE   N01
 BYTE   W09
 BYTE   N03  Gs3
 BYTE   W03
 BYTE   N01
 BYTE   W03
 BYTE   N03  Fn3
 BYTE   W03
 BYTE   N01
 BYTE   W48
 BYTE   W03
 BYTE   PEND 
//  #13 //002   ----------------------------------------
Label_012BA6DD:
 BYTE   N03  Fn3  v120
 BYTE   W03
 BYTE   N01
 BYTE   W09
 BYTE   N03  Gs3
 BYTE   W03
 BYTE   N01
 BYTE   W09
 BYTE   N03  Gn3
 BYTE   W03
 BYTE   N01
 BYTE   W09
 BYTE   N03  Gs3
 BYTE   W03
 BYTE   N01
 BYTE   W03
 BYTE   N03  Fn3
 BYTE   W03
 BYTE   N01
 BYTE   W09
 BYTE   N03
 BYTE   W03
 BYTE   N01
 BYTE   W03
 BYTE   N03  Gn3
 BYTE   W03
 BYTE   N01
 BYTE   W09
 BYTE   N03  Gs3
 BYTE   W03
 BYTE   N01
 BYTE   W09
 BYTE   N03  As3
 BYTE   W03
 BYTE   N01
 BYTE   W09
 BYTE   PEND 
//  #13 //003   ----------------------------------------
Label_012BA70B:
 BYTE   N03  Cn4  v120
 BYTE   W03
 BYTE   N01
 BYTE   W09
 BYTE   N03
 BYTE   W03
 BYTE   N01
 BYTE   W09
 BYTE   N03
 BYTE   W03
 BYTE   N01
 BYTE   W09
 BYTE   N03  As3
 BYTE   W03
 BYTE   N01
 BYTE   W03
 BYTE   N03  Cn4
 BYTE   W03
 BYTE   N01
 BYTE   W48
 BYTE   W03
 BYTE   PEND 
//  #13 //004   ----------------------------------------
 BYTE   N03  Fn4  v113
 BYTE   W03
 BYTE   N01
 BYTE   W09
 BYTE   N03  Gs4  v112
 BYTE   W03
 BYTE   N02
 BYTE   W09
 BYTE   N03  Gn4  v116
 BYTE   W03
 BYTE   N01
 BYTE   W09
 BYTE   N03  Gs4
 BYTE   W03
 BYTE   N02
 BYTE   W03
 BYTE   N03  Fn4  v115
 BYTE   W03
 BYTE   N02
 BYTE   W48
 BYTE   W03
//  #13 //005   ----------------------------------------
 BYTE   N03  Fn4  v116
 BYTE   W03
 BYTE   N01
 BYTE   W09
 BYTE   N03  Gs4
 BYTE   W03
 BYTE   N02
 BYTE   W09
 BYTE   N03  Gn4  v112
 BYTE   W03
 BYTE   N01
 BYTE   W09
 BYTE   N03  Gs4  v114
 BYTE   W03
 BYTE   N02
 BYTE   W03
 BYTE   N03  Fn4  v116
 BYTE   W03
 BYTE   N02
 BYTE   W48
 BYTE   W03
//  #13 //006   ----------------------------------------
 BYTE   N03  Fn4  v112
 BYTE   W03
 BYTE   N01
 BYTE   W09
 BYTE   N03  Gs4  v115
 BYTE   W03
 BYTE   N02
 BYTE   W09
 BYTE   N03  Gn4  v113
 BYTE   W03
 BYTE   N01
 BYTE   W09
 BYTE   N03  Gs4
 BYTE   W03
 BYTE   N02
 BYTE   W03
 BYTE   N03  Fn4  v111
 BYTE   W03
 BYTE   N01
 BYTE   W09
 BYTE   N03  Fn4  v112
 BYTE   W03
 BYTE   N02
 BYTE   W03
 BYTE   N03  Gn4
 BYTE   W03
 BYTE   N02
 BYTE   W09
 BYTE   N03  Gs4  v117
 BYTE   W03
 BYTE   N02
 BYTE   W09
 BYTE   N03  As4
 BYTE   W03
 BYTE   N02
 BYTE   W09
//  #13 //007   ----------------------------------------
 BYTE   N03  Cn5  v115
 BYTE   W03
 BYTE   N01
 BYTE   W09
 BYTE   N03  Cn5  v117
 BYTE   W03
 BYTE   N02
 BYTE   W09
 BYTE   N03  Cn5  v116
 BYTE   W03
 BYTE   N01
 BYTE   W09
 BYTE   N03  As4  v112
 BYTE   W03
 BYTE   N02
 BYTE   W03
 BYTE   N03  Cn5  v114
 BYTE   W03
 BYTE   N02
 BYTE   W48
 BYTE   W03
//  #13 //008   ----------------------------------------
Label_012BA7B3:
 BYTE   W96
//  #13 //009   ----------------------------------------
 BYTE   W96
//  #13 //010   ----------------------------------------
 BYTE   W96
//  #13 //011   ----------------------------------------
 BYTE   W96
//  #13 //012   ----------------------------------------
 BYTE   W96
//  #13 //013   ----------------------------------------
 BYTE   W96
//  #13 //014   ----------------------------------------
 BYTE   W96
//  #13 //015   ----------------------------------------
 BYTE   W96
//  #13 //016   ----------------------------------------
 BYTE   W96
//  #13 //017   ----------------------------------------
 BYTE   W36
 BYTE   N03  Cn4  v116
 BYTE   W03
 BYTE   N08
 BYTE   W15
 BYTE   N03  Cn4  v111
 BYTE   W03
 BYTE   N02
 BYTE   W03
 BYTE   N03  As3  v116
 BYTE   W03
 BYTE   N01
 BYTE   W09
 BYTE   N03  Cn4  v113
 BYTE   W03
 BYTE   N01
 BYTE   W09
 BYTE   N03  Ds4  v112
 BYTE   W03
 BYTE   N01
 BYTE   W03
 BYTE   N03  Cn4  v115
 BYTE   W03
 BYTE   TIE
 BYTE   W03
//  #13 //018   ----------------------------------------
 BYTE   W96
//  #13 //019   ----------------------------------------
 BYTE   W02
 BYTE   VOL   20*EienNoIczer_mvl/mxv
 BYTE   W02
 BYTE   VOL   21*EienNoIczer_mvl/mxv
 BYTE   W01
 BYTE   VOL   20*EienNoIczer_mvl/mxv
 BYTE   W01
 BYTE   EOT
 BYTE   W03
 BYTE   VOL   19*EienNoIczer_mvl/mxv
 BYTE   W02
 BYTE   VOL   18*EienNoIczer_mvl/mxv
 BYTE   W01
 BYTE   VOL   17*EienNoIczer_mvl/mxv
 BYTE   W01
 BYTE   VOL   16*EienNoIczer_mvl/mxv
 BYTE   W01
 BYTE   VOL   15*EienNoIczer_mvl/mxv
 BYTE   W22
 BYTE   VOL   21*EienNoIczer_mvl/mxv
 BYTE   N03  As3  v117
 BYTE   W03
 BYTE   N01
 BYTE   W09
 BYTE   N03  Cn4  v116
 BYTE   W03
 BYTE   N09
 BYTE   W09
 BYTE   N03  Ds4  v117
 BYTE   W03
 BYTE   Ds4
 BYTE   W32
 BYTE   W01
//  #13 //020   ----------------------------------------
 BYTE   W96
//  #13 //021   ----------------------------------------
 BYTE   W60
 BYTE   As3  v115
 BYTE   W03
 BYTE   N11
 BYTE   W15
 BYTE   N03  Cn4  v120
 BYTE   W03
 BYTE   N01
 BYTE   W09
 BYTE   N03  Cs4
 BYTE   W03
 BYTE   N01
 BYTE   W03
//  #13 //022   ----------------------------------------
 BYTE   N03  Ds4  v113
 BYTE   W03
 BYTE   N44  Ds4  v113  gtp2
 BYTE   W56
 BYTE   W01
 BYTE   N03  Ds4  v115
 BYTE   W03
 BYTE   N07
 BYTE   W21
 BYTE   N03  En4  v116
 BYTE   W03
 BYTE   N17
 BYTE   W09
//  #13 //023   ----------------------------------------
 BYTE   W12
 BYTE   N03
 BYTE   W03
 BYTE   N01
 BYTE   W09
 BYTE   N03  Fn4  v114
 BYTE   W03
 BYTE   N01
 BYTE   W09
 BYTE   N03  Gn4  v120
 BYTE   W03
 BYTE   N56  Gn4  v120  gtp1
 BYTE   W56
 BYTE   W01
//  #13 //024   ----------------------------------------
 BYTE   W96
//  #13 //025   ----------------------------------------
 BYTE   W60
 BYTE   VOL   19*EienNoIczer_mvl/mxv
 BYTE   N03  Ds4  v111
 BYTE   W03
 BYTE   N01
 BYTE   W09
 BYTE   N03  Ds4  v117
 BYTE   W03
 BYTE   N01
 BYTE   W03
 BYTE   N03  Cs4  v092
 BYTE   W03
 BYTE   N01
 BYTE   W03
 BYTE   N03  Ds4  v114
 BYTE   W03
 BYTE   N01
 BYTE   W09
//  #13 //026   ----------------------------------------
 BYTE   N03  Fn4
 BYTE   W03
 BYTE   N92  Fn4  v114  gtp1
 BYTE   W92
 BYTE   W01
//  #13 //027   ----------------------------------------
 BYTE   W60
 BYTE   N03  Cn4  v113
 BYTE   W03
 BYTE   N01
 BYTE   W09
 BYTE   N03  Cn4  v115
 BYTE   W03
 BYTE   Cn4
 BYTE   W03
 BYTE   Cs4  v094
 BYTE   W03
 BYTE   N01
 BYTE   W09
 BYTE   N03  Ds4  v112
 BYTE   W03
 BYTE   N01
 BYTE   W03
//  #13 //028   ----------------------------------------
 BYTE   N03  Gs3  v113
 BYTE   N03  Cs4  v112
 BYTE   W03
 BYTE   N01  Gs3  v113
 BYTE   N01  Cs4  v112
 BYTE   W32
 BYTE   W01
 BYTE   N03  Gs3  v111
 BYTE   N03  Cs4  v115
 BYTE   W03
 BYTE   N56  Gs3  v111  gtp1
 BYTE   Cs4  v115
 BYTE   W56
 BYTE   W01
//  #13 //029   ----------------------------------------
 BYTE   N03  As3  v114
 BYTE   N03  Ds4
 BYTE   W03
 BYTE   N01  As3
 BYTE   N01  Ds4
 BYTE   W32
 BYTE   W01
 BYTE   N03  As3  v111
 BYTE   N03  Ds4  v115
 BYTE   W03
 BYTE   N15  As3  v111
 BYTE   N15  Ds4  v115
 BYTE   W21
 BYTE   N03  Cs4  v117
 BYTE   N03  Fn4
 BYTE   W03
 BYTE   N15  Cs4
 BYTE   N15  Fn4
 BYTE   W21
 BYTE   N03  Ds4  v116
 BYTE   N03  Gn4  v114
 BYTE   W03
 BYTE   N01  Ds4  v116
 BYTE   N01  Gn4  v114
 BYTE   W09
//  #13 //030   ----------------------------------------
 BYTE   N03  Ds4  v111
 BYTE   N03  Gs4  v115
 BYTE   W03
 BYTE   N19  Ds4  v111
 BYTE   N19  Gs4  v115
 BYTE   W17
 BYTE   BEND   c_v-1
 BYTE   W01
 BYTE   BEND   c_v+0
 BYTE   N03  Gn4  v069
 BYTE   W01
 BYTE   BEND   c_v-1
 BYTE   W01
 BYTE   N02  Fn4  v076
 BYTE   W01
 BYTE   N03  Gn4  v091
 BYTE   W01
 BYTE   N01  Ds4  v073
 BYTE   W01
 BYTE   N02  Fn4  v097
 BYTE   W01
 BYTE   BEND   c_v-2
 BYTE   N01  Cs4  v074
 BYTE   W01
 BYTE   BEND   c_v-3
 BYTE   N02  Ds4  v095
 BYTE   W01
 BYTE   BEND   c_v-4
 BYTE   N01  Cn4  v076
 BYTE   W01
 BYTE   BEND   c_v-7
 BYTE   N01  Cs4  v095
 BYTE   W01
 BYTE   BEND   c_v-10
 BYTE   N01  As3  v071
 BYTE   W01
 BYTE   BEND   c_v-14
 BYTE   N01  Cn4  v097
 BYTE   W01
 BYTE   BEND   c_v-20
 BYTE   N01  Gs3  v069
 BYTE   W01
 BYTE   As3  v093
 BYTE   W02
 BYTE   Gs3  v091
 BYTE   W60
//  #13 //031   ----------------------------------------
 BYTE   W12
 BYTE   BEND   c_v+0
 BYTE   N03  Dn4  v115
 BYTE   W03
 BYTE   N01
 BYTE   W09
 BYTE   N03  Dn4  v113
 BYTE   W03
 BYTE   N01
 BYTE   W09
 BYTE   N03  Dn4  v116
 BYTE   W03
 BYTE   N02
 BYTE   W03
 BYTE   N03  En4  v113
 BYTE   W03
 BYTE   N23
 BYTE   W24
 BYTE   W03
 BYTE   N03  En4  v112
 BYTE   W03
 BYTE   En4
 BYTE   W03
 BYTE   Fn4  v111
 BYTE   W03
 BYTE   N01
 BYTE   W03
 BYTE   N03  Gn4  v113
 BYTE   W03
 BYTE   N04
 BYTE   W09
//  #13 //032   ----------------------------------------
 BYTE   W96
//  #13 //033   ----------------------------------------
 BYTE   W60
 BYTE   N03  Ds4  v111
 BYTE   W03
 BYTE   N01
 BYTE   W09
 BYTE   N03  Ds4  v115
 BYTE   W03
 BYTE   N01
 BYTE   W03
 BYTE   N03  Cs4  v092
 BYTE   W03
 BYTE   N01
 BYTE   W03
 BYTE   N03  Ds4  v113
 BYTE   W03
 BYTE   N01
 BYTE   W09
//  #13 //034   ----------------------------------------
 BYTE   N03  Fn4  v112
 BYTE   W03
 BYTE   N92  Fn4  v112  gtp1
 BYTE   W92
 BYTE   W01
//  #13 //035   ----------------------------------------
 BYTE   W60
 BYTE   N03  Cn4  v116
 BYTE   W03
 BYTE   N01
 BYTE   W09
 BYTE   N03  Cn4  v115
 BYTE   W03
 BYTE   Cn4
 BYTE   W03
 BYTE   Cs4  v094
 BYTE   W03
 BYTE   N01
 BYTE   W09
 BYTE   N03  Ds4  v115
 BYTE   W03
 BYTE   N01
 BYTE   W03
//  #13 //036   ----------------------------------------
 BYTE   N03  Cs4  v113
 BYTE   W03
 BYTE   N01
 BYTE   W32
 BYTE   W01
 BYTE   N03  Cs4  v111
 BYTE   W03
 BYTE   N56  Cs4  v111  gtp1
 BYTE   W56
 BYTE   W01
//  #13 //037   ----------------------------------------
 BYTE   N03  Ds4
 BYTE   W03
 BYTE   N01
 BYTE   W32
 BYTE   W01
 BYTE   N03  Ds4  v113
 BYTE   W03
 BYTE   N15
 BYTE   W21
 BYTE   N03  Fn4  v111
 BYTE   W03
 BYTE   N15
 BYTE   W21
 BYTE   N03  Gn4
 BYTE   W03
 BYTE   N01
 BYTE   W09
//  #13 //038   ----------------------------------------
 BYTE   N03  Gs4  v112
 BYTE   W03
 BYTE   N19
 BYTE   W17
 BYTE   BEND   c_v-1
 BYTE   W01
 BYTE   BEND   c_v+0
 BYTE   N03  Gn4  v075
 BYTE   W01
 BYTE   BEND   c_v-1
 BYTE   W01
 BYTE   N02  Fn4  v070
 BYTE   W01
 BYTE   N03  Gn4  v075
 BYTE   W01
 BYTE   N02  Ds4  v073
 BYTE   W01
 BYTE   Fn4  v070
 BYTE   W01
 BYTE   BEND   c_v-2
 BYTE   N01  Cs4  v074
 BYTE   W01
 BYTE   BEND   c_v-3
 BYTE   N02  Ds4  v073
 BYTE   W01
 BYTE   BEND   c_v-4
 BYTE   N01  Cn4  v074
 BYTE   W01
 BYTE   BEND   c_v-7
 BYTE   N01  Cs4
 BYTE   W01
 BYTE   BEND   c_v-10
 BYTE   N01  As3  v075
 BYTE   W01
 BYTE   BEND   c_v-14
 BYTE   N01  Cn4  v074
 BYTE   W01
 BYTE   BEND   c_v-20
 BYTE   N01  Gs3  v070
 BYTE   W01
 BYTE   As3  v075
 BYTE   W02
 BYTE   Gs3  v070
 BYTE   W60
//  #13 //039   ----------------------------------------
 BYTE   W12
 BYTE   BEND   c_v+0
 BYTE   W84
//  #13 //040   ----------------------------------------
 BYTE   W12
 BYTE   N03  Fn3  v094
 BYTE   W03
 BYTE   N08
 BYTE   W09
 BYTE   N03  Gn3  v106
 BYTE   W03
 BYTE   N08
 BYTE   W09
 BYTE   N03  Gs3  v112
 BYTE   W03
 BYTE   N08
 BYTE   W09
 BYTE   N03  As3  v116
 BYTE   W03
 BYTE   N15
 BYTE   W15
 BYTE   N03  Cn4  v114
 BYTE   W03
 BYTE   N01
 BYTE   W15
 BYTE   N03  Cs4  v112
 BYTE   W03
 BYTE   N01
 BYTE   W09
//  #13 //041   ----------------------------------------
 BYTE   VOL   21*EienNoIczer_mvl/mxv
 BYTE   N03  Cn4  v120
 BYTE   W03
 BYTE   N01
 BYTE   W03
 BYTE   Cn4
 BYTE   W03
 BYTE   Cn4
 BYTE   W09
 BYTE   N03
 BYTE   W03
 BYTE   N01
 BYTE   W03
 BYTE   N03  Ds4
 BYTE   W03
 BYTE   N01
 BYTE   W09
 BYTE   N03  Fn4
 BYTE   W03
 BYTE   Fn4
 BYTE   W56
 BYTE   W01
//  #13 //042   ----------------------------------------
 BYTE   W96
//  #13 //043   ----------------------------------------
 BYTE   W96
//  #13 //044   ----------------------------------------
 BYTE   W96
//  #13 //045   ----------------------------------------
 BYTE   W96
//  #13 //046   ----------------------------------------
 BYTE   PATT
  POIN2 Label_012BA6C1
//  #13 //047   ----------------------------------------
 BYTE   PATT
  POIN2 Label_012BA6C1
//  #13 //048   ----------------------------------------
 BYTE   PATT
  POIN2 Label_012BA6DD
//  #13 //049   ----------------------------------------
 BYTE   PATT
  POIN2 Label_012BA70B
//  #13 //050   ----------------------------------------
 BYTE   N03  Fn4  v111
 BYTE   W03
 BYTE   N01
 BYTE   W09
 BYTE   N03  Gs4  v117
 BYTE   W03
 BYTE   N02
 BYTE   W09
 BYTE   N03  Gn4  v112
 BYTE   W03
 BYTE   N01
 BYTE   W09
 BYTE   N03  Gs4  v117
 BYTE   W03
 BYTE   N02
 BYTE   W03
 BYTE   N03  Fn4  v116
 BYTE   W03
 BYTE   N02
 BYTE   W48
 BYTE   W03
//  #13 //051   ----------------------------------------
 BYTE   N03  Fn4  v112
 BYTE   W03
 BYTE   N01
 BYTE   W09
 BYTE   N03  Gs4  v115
 BYTE   W03
 BYTE   N02
 BYTE   W09
 BYTE   N03  Gn4  v117
 BYTE   W03
 BYTE   N01
 BYTE   W09
 BYTE   N03  Gs4  v113
 BYTE   W03
 BYTE   N02
 BYTE   W03
 BYTE   N03  Fn4  v117
 BYTE   W03
 BYTE   N02
 BYTE   W48
 BYTE   W03
//  #13 //052   ----------------------------------------
 BYTE   N03  Fn4  v114
 BYTE   W03
 BYTE   N01
 BYTE   W09
 BYTE   N03  Gs4  v116
 BYTE   W03
 BYTE   N02
 BYTE   W09
 BYTE   N03  Gn4  v113
 BYTE   W03
 BYTE   N01
 BYTE   W09
 BYTE   N03  Gs4  v114
 BYTE   W03
 BYTE   N02
 BYTE   W03
 BYTE   N03  Fn4  v112
 BYTE   W03
 BYTE   N01
 BYTE   W09
 BYTE   N03
 BYTE   W03
 BYTE   N02
 BYTE   W03
 BYTE   N03  Gn4  v116
 BYTE   W03
 BYTE   N02
 BYTE   W09
 BYTE   N03  Gs4  v114
 BYTE   W03
 BYTE   N02
 BYTE   W09
 BYTE   N03  As4  v115
 BYTE   W03
 BYTE   N02
 BYTE   W09
//  #13 //053   ----------------------------------------
 BYTE   N03  Cn5  v116
 BYTE   W03
 BYTE   N01
 BYTE   W09
 BYTE   N03  Cn5  v117
 BYTE   W03
 BYTE   N02
 BYTE   W09
 BYTE   N03
 BYTE   W03
 BYTE   N01
 BYTE   W09
 BYTE   N03  As4  v112
 BYTE   W03
 BYTE   N02
 BYTE   W03
 BYTE   N03  Cn5  v114
 BYTE   W03
 BYTE   N02
 BYTE   W48
 BYTE   W03
//  #13 //054   ----------------------------------------
 BYTE   GoTo
  POIN2 Label_012BA7B3
//  #13 //055   ----------------------------------------
 BYTE   W10
 BYTE   FINE

//******************************************************//
	ALIGN 4

EienNoIczer:
	BYTE	13	// NumTrks
	BYTE	0	// NumBlks
	BYTE	EienNoIczer_pri	// Priority
	BYTE	EienNoIczer_rev	// Reverb.
    
	POIN2	EienNoIczer_grp
    
	POIN2	EienNoIczer_001
	POIN2	EienNoIczer_002
	POIN2	EienNoIczer_003
	POIN2	EienNoIczer_004
	POIN2	EienNoIczer_005
	POIN2	EienNoIczer_006
	POIN2	EienNoIczer_007
	POIN2	EienNoIczer_008
	POIN2	EienNoIczer_009
	POIN2	EienNoIczer_010
	POIN2	EienNoIczer_011
	POIN2	EienNoIczer_012
	POIN2	EienNoIczer_013

	
