//Event file generated from Sappy .s format.
	#include "MPlayDef.event"

	#define	exceedinglynear000_grp  voicegroup000
	#define	exceedinglynear000_pri  0
	#define	exceedinglynear000_rev  0
	#define	exceedinglynear000_mvl  127
	#define	exceedinglynear000_key  0
	#define	exceedinglynear000_tbs  1
	#define	exceedinglynear000_exg  0
	#define	exceedinglynear000_cmp  1

	// .rodata
	//	exceedinglynear000
	ALIGN 4

//**************** Track 1 (Midi-Chn.1) ****************//

exceedinglynear000_1:
	BYTE	KEYSH   exceedinglynear000_key+0
// 000   ----------------------------------------
	BYTE	TEMPO   240*exceedinglynear000_tbs/2
	BYTE		VOICE   124
	BYTE		MOD     0
	BYTE	W01
	BYTE	W02
	BYTE		VOL     49*exceedinglynear000_mvl/mxv
	BYTE	W01
	BYTE		PAN     c_v+0
	BYTE	W01
	BYTE		BEND    c_v+0
	BYTE	W01
	BYTE	W18
	BYTE	TEMPO   180*exceedinglynear000_tbs/2
	BYTE	W36
	BYTE		N04     Cn1   v124
	BYTE	W04
	BYTE		        Cn1   v104
	BYTE	W04
	BYTE		        Cn1   v112
	BYTE	W04
	BYTE		N01     En1   v120
	BYTE	W03
	BYTE		N21     En1   v127
	BYTE	W21
exceedinglynear000_1_B1:
// 001   ----------------------------------------
exceedinglynear000_1_001:
	BYTE		N24     Cn1   v124
	BYTE		N90     Cs2   v127
	BYTE	W24
	BYTE		N24     En1   v120
	BYTE		N12     Fs1   v076
	BYTE	W12
	BYTE		        Fs1   v044
	BYTE	W12
	BYTE		        Cn1   v112
	BYTE		N12     Fs1   v076
	BYTE	W12
	BYTE		        Cn1   v100
	BYTE		N12     Fs1   v044
	BYTE	W12
	BYTE		N24     En1   v124
	BYTE		N12     Fs1   v080
	BYTE	W12
	BYTE		N24     Cn1   v108
	BYTE		N12     Fs1   v056
	BYTE	W12
	BYTE	PEND
// 002   ----------------------------------------
exceedinglynear000_1_002:
	BYTE		N12     Fs1   v080
	BYTE	W12
	BYTE		        Fs1   v056
	BYTE	W12
	BYTE		N24     En1   v116
	BYTE		N12     Fs1   v076
	BYTE	W12
	BYTE		        Cn1   v112
	BYTE		N12     Fs1   v044
	BYTE	W12
	BYTE		        Fs1   v076
	BYTE	W12
	BYTE		        Cn1   v100
	BYTE		N12     Fs1   v044
	BYTE	W12
	BYTE		N24     En1   v124
	BYTE		N12     Fs1   v080
	BYTE	W12
	BYTE		        Cn1   v108
	BYTE		N12     Fs1   v056
	BYTE	W12
	BYTE	PEND
// 003   ----------------------------------------
exceedinglynear000_1_003:
	BYTE		N24     Cn1   v124
	BYTE		N12     Fs1   v080
	BYTE	W12
	BYTE		        Fs1   v056
	BYTE	W12
	BYTE		N24     En1   v120
	BYTE		N12     Fs1   v076
	BYTE	W12
	BYTE		        Fs1   v044
	BYTE	W12
	BYTE		        Cn1   v112
	BYTE		N12     Fs1   v076
	BYTE	W12
	BYTE		        Cn1   v100
	BYTE		N12     Fs1   v044
	BYTE	W12
	BYTE		N24     En1   v124
	BYTE		N12     Fs1   v080
	BYTE	W12
	BYTE		N24     Cn1   v108
	BYTE		N12     Fs1   v056
	BYTE	W12
	BYTE	PEND
// 004   ----------------------------------------
	BYTE	PATT
	 POIN2	exceedinglynear000_1_002
// 005   ----------------------------------------
exceedinglynear000_1_005:
	BYTE		N24     Cn1   v124
	BYTE		N90     Ds2   v127
	BYTE	W24
	BYTE		N24     En1   v120
	BYTE		N12     Fs1   v076
	BYTE	W12
	BYTE		        Fs1   v044
	BYTE	W12
	BYTE		        Cn1   v112
	BYTE		N12     Fs1   v076
	BYTE	W12
	BYTE		        Cn1   v100
	BYTE		N12     Fs1   v044
	BYTE	W12
	BYTE		N24     En1   v124
	BYTE		N12     Fs1   v080
	BYTE	W12
	BYTE		        Fs1   v056
	BYTE	W12
	BYTE	PEND
// 006   ----------------------------------------
exceedinglynear000_1_006:
	BYTE		N24     Cn1   v120
	BYTE		N90     Cs2   v127
	BYTE	W24
	BYTE		N24     En1   v116
	BYTE		N12     Fs1   v076
	BYTE	W12
	BYTE		        Cn1   v112
	BYTE		N12     Fs1   v044
	BYTE	W12
	BYTE		        Fs1   v076
	BYTE	W12
	BYTE		        Cn1   v100
	BYTE		N12     Fs1   v044
	BYTE	W12
	BYTE		N24     En1   v124
	BYTE		N12     Fs1   v080
	BYTE	W12
	BYTE		        Cn1   v108
	BYTE		N12     Fs1   v056
	BYTE	W12
	BYTE	PEND
// 007   ----------------------------------------
	BYTE		        As1   v092
	BYTE	W12
	BYTE		        Cn1   v108
	BYTE		N12     Fs1   v068
	BYTE	W12
	BYTE		N24     En1   v116
	BYTE		N12     As1   v100
	BYTE	W12
	BYTE		        Cn1   v112
	BYTE		N12     Fs1   v044
	BYTE	W12
	BYTE		        As1   v112
	BYTE	W12
	BYTE		        Cn1   v100
	BYTE		N12     Fs1   v044
	BYTE	W12
	BYTE		N24     En1   v124
	BYTE		N12     As1   v088
	BYTE	W12
	BYTE		        Cn1   v108
	BYTE		N12     Fs1   v056
	BYTE	W12
// 008   ----------------------------------------
	BYTE		N24     Cn1   v127
	BYTE		N24     En1 
	BYTE	W12
	BYTE		N12     Gn1 
	BYTE	W12
	BYTE		        Bn1 
	BYTE	W12
	BYTE		        An1   v124
	BYTE	W12
	BYTE		N24     Cn1   v127
	BYTE		N24     Fn1   v124
	BYTE	W01
	BYTE		N28     An1   v116
	BYTE	W23
	BYTE		N24     En1   v127
	BYTE		N24     Gn1   v124
	BYTE		N24     As1   v104
	BYTE	W24
// 009   ----------------------------------------
	BYTE	PATT
	 POIN2	exceedinglynear000_1_001
// 010   ----------------------------------------
	BYTE	PATT
	 POIN2	exceedinglynear000_1_002
// 011   ----------------------------------------
	BYTE	PATT
	 POIN2	exceedinglynear000_1_003
// 012   ----------------------------------------
	BYTE	PATT
	 POIN2	exceedinglynear000_1_002
// 013   ----------------------------------------
	BYTE	PATT
	 POIN2	exceedinglynear000_1_005
// 014   ----------------------------------------
exceedinglynear000_1_014:
	BYTE		N24     Cn1   v120
	BYTE		N24     As1 
	BYTE	W24
	BYTE		        En1   v116
	BYTE		N12     Fs1   v076
	BYTE	W12
	BYTE		        Cn1   v112
	BYTE		N12     Fs1   v044
	BYTE	W12
	BYTE		        Fs1   v076
	BYTE	W12
	BYTE		        Cn1   v100
	BYTE		N12     Fs1   v044
	BYTE	W12
	BYTE		N24     En1   v124
	BYTE		N12     Fs1   v080
	BYTE	W12
	BYTE		        Cn1   v108
	BYTE		N12     Fs1   v056
	BYTE	W12
	BYTE	PEND
// 015   ----------------------------------------
exceedinglynear000_1_015:
	BYTE		N24     Cn1   v124
	BYTE		N12     Fs1   v080
	BYTE	W12
	BYTE		        Fs1   v056
	BYTE	W12
	BYTE		N24     En1   v120
	BYTE		N12     Fs1   v076
	BYTE	W12
	BYTE		        Fs1   v044
	BYTE	W12
	BYTE		        Cn1   v112
	BYTE		N12     Fs1   v076
	BYTE	W12
	BYTE		        Cn1   v100
	BYTE		N12     Fs1   v044
	BYTE	W12
	BYTE		N24     En1   v124
	BYTE		N12     Fs1   v080
	BYTE	W12
	BYTE		        Fs1   v056
	BYTE	W12
	BYTE	PEND
// 016   ----------------------------------------
	BYTE		N24     Cn1   v120
	BYTE		N12     Fs1   v080
	BYTE	W12
	BYTE		        Fs1   v056
	BYTE	W12
	BYTE		N24     En1   v116
	BYTE		N12     As1 
	BYTE	W12
	BYTE		        Cn1   v112
	BYTE		N12     Fs1   v044
	BYTE	W12
	BYTE		        Bn1   v104
	BYTE	W06
	BYTE		        An1   v120
	BYTE	W06
	BYTE		        Gn1   v104
	BYTE	W12
	BYTE		        An1   v116
	BYTE	W06
	BYTE		        Gn1   v104
	BYTE	W06
	BYTE		        Fn1   v108
	BYTE	W12
// 017   ----------------------------------------
	BYTE		N24     Cn1   v124
	BYTE		N90     Cs2   v116
	BYTE	W24
	BYTE		N24     En1   v120
	BYTE		N12     Fs1   v076
	BYTE	W12
	BYTE		        Fs1   v044
	BYTE	W12
	BYTE		        Cn1   v112
	BYTE		N12     Fs1   v076
	BYTE	W12
	BYTE		        Cn1   v100
	BYTE		N12     Fs1   v044
	BYTE	W12
	BYTE		N24     En1   v124
	BYTE		N12     Fs1   v080
	BYTE	W12
	BYTE		N24     Cn1   v108
	BYTE		N12     Fs1   v056
	BYTE	W12
// 018   ----------------------------------------
	BYTE	PATT
	 POIN2	exceedinglynear000_1_002
// 019   ----------------------------------------
	BYTE	PATT
	 POIN2	exceedinglynear000_1_003
// 020   ----------------------------------------
	BYTE		N12     Fs1   v080
	BYTE	W12
	BYTE		        Fs1   v056
	BYTE	W12
	BYTE		N24     En1   v116
	BYTE		N12     Fs1   v076
	BYTE	W12
	BYTE		        Cn1   v112
	BYTE		N12     Fs1   v044
	BYTE	W12
	BYTE		        Fs1   v076
	BYTE	W12
	BYTE		        Cn1   v100
	BYTE		N12     En1   v096
	BYTE		N12     Fs1   v044
	BYTE	W12
	BYTE		N24     En1   v124
	BYTE		N12     Fs1   v080
	BYTE	W12
	BYTE		        Cn1   v108
	BYTE		N12     Fs1   v056
	BYTE	W12
// 021   ----------------------------------------
	BYTE		N24     Cn1   v124
	BYTE		N90     Cs2   v116
	BYTE	W24
	BYTE		N24     En1   v120
	BYTE		N12     Fs1   v076
	BYTE	W12
	BYTE		        Fs1   v044
	BYTE	W12
	BYTE		        Cn1   v112
	BYTE		N12     Fs1   v076
	BYTE	W12
	BYTE		        Cn1   v100
	BYTE		N12     Fs1   v044
	BYTE	W12
	BYTE		N24     En1   v124
	BYTE		N12     Fs1   v080
	BYTE	W12
	BYTE		        Fs1   v056
	BYTE	W12
// 022   ----------------------------------------
	BYTE		N24     Cn1   v120
	BYTE		N12     Fs1   v080
	BYTE	W12
	BYTE		        Fs1   v056
	BYTE	W12
	BYTE		N24     En1   v116
	BYTE		N12     Fs1   v076
	BYTE	W12
	BYTE		        Cn1   v112
	BYTE		N12     Fs1   v044
	BYTE	W12
	BYTE		        Fs1   v076
	BYTE	W12
	BYTE		        Cn1   v100
	BYTE		N12     Fs1   v044
	BYTE	W12
	BYTE		N24     En1   v124
	BYTE		N12     Fs1   v080
	BYTE	W12
	BYTE		        Cn1   v108
	BYTE		N12     Fs1   v056
	BYTE	W12
// 023   ----------------------------------------
	BYTE	PATT
	 POIN2	exceedinglynear000_1_003
// 024   ----------------------------------------
	BYTE	PATT
	 POIN2	exceedinglynear000_1_002
// 025   ----------------------------------------
	BYTE		N24     Cn1   v124
	BYTE		N12     Fs1   v080
	BYTE	W12
	BYTE		        Fs1   v056
	BYTE	W12
	BYTE		        En1   v120
	BYTE		N12     As1   v112
	BYTE	W06
	BYTE		N03     Cn1   v096
	BYTE	W03
	BYTE		        Cn1   v108
	BYTE	W03
	BYTE		N12     Cn1   v127
	BYTE		N24     En1   v120
	BYTE		N24     Fn1 
	BYTE		N90     Cs2   v127
	BYTE	W24
	BYTE		N12     Cn1   v100
	BYTE	W12
	BYTE		N24     En1   v124
	BYTE	W12
	BYTE		        Cn1   v108
	BYTE	W12
// 026   ----------------------------------------
	BYTE		N12     Fs1   v080
	BYTE	W12
	BYTE		        Fs1   v056
	BYTE	W12
	BYTE		        En1   v116
	BYTE		N12     As1   v112
	BYTE	W06
	BYTE		N03     Cn1   v096
	BYTE	W03
	BYTE		        Cn1   v108
	BYTE	W03
	BYTE		N12     Cn1   v127
	BYTE		N24     En1   v116
	BYTE		N24     Fn1 
	BYTE		N90     Ds2   v127
	BYTE	W24
	BYTE		N12     Cn1   v100
	BYTE	W12
	BYTE		N24     En1   v124
	BYTE	W12
	BYTE		N12     Cn1   v108
	BYTE	W12
// 027   ----------------------------------------
	BYTE		N24     En1   v127
	BYTE		N36     Cs2   v124
	BYTE	W12
	BYTE		N12     Cn1   v116
	BYTE	W12
	BYTE		        Cn1   v100
	BYTE	W12
	BYTE		N24     En1   v124
	BYTE		N90     Cs2   v100
	BYTE	W12
	BYTE		N12     Cn1   v112
	BYTE	W12
	BYTE		        Cn1   v104
	BYTE	W12
	BYTE		N24     En1   v127
	BYTE		N90     Ds2   v108
	BYTE	W12
	BYTE		N12     Cn1 
	BYTE	W12
// 028   ----------------------------------------
	BYTE		        Cn1   v124
	BYTE		N06     En1   v116
	BYTE	W06
	BYTE		        En1   v104
	BYTE	W06
	BYTE		N12     Cn1   v116
	BYTE		N06     En1 
	BYTE	W06
	BYTE		        En1   v120
	BYTE	W06
	BYTE		N12     Cn1   v124
	BYTE		N12     En1   v127
	BYTE		N06     Bn1   v124
	BYTE	W06
	BYTE		        Bn1   v127
	BYTE	W06
	BYTE		        Bn1   v120
	BYTE	W06
	BYTE		N16     Bn1   v124
	BYTE	W06
	BYTE		N06     An1   v120
	BYTE	W06
	BYTE		        An1   v108
	BYTE	W06
	BYTE		N16     An1   v124
	BYTE	W06
	BYTE		N06     Gn1 
	BYTE	W06
	BYTE		N16     Gn1   v120
	BYTE	W06
	BYTE		N06     Fn1   v124
	BYTE	W06
	BYTE		        Fn1   v116
	BYTE	W06
	BYTE		        Fn1   v120
	BYTE	W06
// 029   ----------------------------------------
	BYTE	PATT
	 POIN2	exceedinglynear000_1_001
// 030   ----------------------------------------
	BYTE	PATT
	 POIN2	exceedinglynear000_1_002
// 031   ----------------------------------------
	BYTE	PATT
	 POIN2	exceedinglynear000_1_003
// 032   ----------------------------------------
	BYTE		N12     Fs1   v080
	BYTE	W12
	BYTE		        Fs1   v056
	BYTE	W12
	BYTE		N24     En1   v116
	BYTE		N12     Fs1   v076
	BYTE	W12
	BYTE		        Cn1   v112
	BYTE		N12     Fs1   v044
	BYTE	W12
	BYTE		        Fs1   v076
	BYTE	W12
	BYTE		        Cn1   v100
	BYTE		N12     Fs1   v044
	BYTE	W12
	BYTE		N24     En1   v124
	BYTE		N12     Fs1   v080
	BYTE	W12
	BYTE		        Cn1   v108
	BYTE		N12     As1   v104
	BYTE	W12
// 033   ----------------------------------------
	BYTE	PATT
	 POIN2	exceedinglynear000_1_005
// 034   ----------------------------------------
	BYTE	PATT
	 POIN2	exceedinglynear000_1_006
// 035   ----------------------------------------
	BYTE		N24     En1   v116
	BYTE		N12     Fs1   v080
	BYTE	W12
	BYTE		        Fs1   v056
	BYTE	W12
	BYTE		N24     En1   v116
	BYTE		N12     Fs1   v076
	BYTE	W12
	BYTE		        Cn1   v112
	BYTE		N12     Fs1   v044
	BYTE	W12
	BYTE		N24     En1   v124
	BYTE		N12     Fs1   v076
	BYTE	W12
	BYTE		        Cn1   v100
	BYTE		N12     Fs1   v044
	BYTE	W12
	BYTE		N24     En1   v124
	BYTE		N12     Fs1   v080
	BYTE	W12
	BYTE		        Cn1   v108
	BYTE		N12     As1   v104
	BYTE	W12
// 036   ----------------------------------------
	BYTE		N16     Cn1   v124
	BYTE		N48     Ds2   v127
	BYTE	W15
	BYTE		N16     An1   v112
	BYTE	W01
	BYTE		        Cn1   v108
	BYTE		N16     En1   v120
	BYTE		N16     Bn1 
	BYTE	W16
	BYTE		        Gn1   v127
	BYTE	W16
	BYTE		N12     Cn1 
	BYTE		N24     En1 
	BYTE		N48     Ds2 
	BYTE	W12
	BYTE		N12     Cn1   v116
	BYTE	W12
	BYTE		N24     Cn1   v127
	BYTE		N24     En1   v124
	BYTE		N22     Cs2   v127
	BYTE	W24
// 037   ----------------------------------------
	BYTE		N90     Ds2 
	BYTE	W24
	BYTE		N24     En1   v120
	BYTE		N12     Fs1   v076
	BYTE	W12
	BYTE		        Fs1   v044
	BYTE	W12
	BYTE		        Cn1   v112
	BYTE		N12     Fs1   v076
	BYTE	W12
	BYTE		        Cn1   v100
	BYTE		N12     Fs1   v044
	BYTE	W12
	BYTE		N24     En1   v124
	BYTE		N12     Fs1   v080
	BYTE	W12
	BYTE		N24     Cn1   v108
	BYTE		N12     Fs1   v056
	BYTE	W12
// 038   ----------------------------------------
	BYTE	PATT
	 POIN2	exceedinglynear000_1_002
// 039   ----------------------------------------
	BYTE	PATT
	 POIN2	exceedinglynear000_1_003
// 040   ----------------------------------------
	BYTE	PATT
	 POIN2	exceedinglynear000_1_002
// 041   ----------------------------------------
	BYTE	PATT
	 POIN2	exceedinglynear000_1_005
// 042   ----------------------------------------
	BYTE	PATT
	 POIN2	exceedinglynear000_1_014
// 043   ----------------------------------------
	BYTE	PATT
	 POIN2	exceedinglynear000_1_015
// 044   ----------------------------------------
	BYTE		N24     Cn1   v120
	BYTE		N12     Fs1   v080
	BYTE	W06
	BYTE		        Bn1   v120
	BYTE	W06
	BYTE		        Fs1   v056
	BYTE		N06     An1   v096
	BYTE	W06
	BYTE		        An1   v108
	BYTE	W06
	BYTE		        Gn1   v100
	BYTE	W06
	BYTE		        An1   v108
	BYTE	W06
	BYTE		N12     Cn1   v112
	BYTE		N06     An1   v096
	BYTE	W06
	BYTE		        An1   v080
	BYTE	W06
	BYTE		        An1   v104
	BYTE	W06
	BYTE		        Gn1   v116
	BYTE	W06
	BYTE		N12     Cn1   v112
	BYTE		N06     Gn1   v124
	BYTE	W06
	BYTE		        Gn1   v116
	BYTE	W06
	BYTE		        En1   v120
	BYTE	W06
	BYTE		        En1   v124
	BYTE	W06
	BYTE		N06   
	BYTE	W06
	BYTE		        En1   v120
	BYTE	W06
// 045   ----------------------------------------
	BYTE		N48     Bn0   v004
	BYTE		N90     Ds2   v127
	BYTE	W44
	BYTE	W03
	BYTE		N01     Dn1   v100
	BYTE	W01
	BYTE		N48     Dn1   v124
	BYTE		N48     As1   v096
	BYTE	W06
	BYTE		N42     Cs1   v127
	BYTE	W06
	BYTE		N36     As0   v004
	BYTE	W24
	BYTE		N12     Bn0 
	BYTE	W12
// 046   ----------------------------------------
exceedinglynear000_1_046:
	BYTE		N48     Bn0   v004
	BYTE		N48     As1   v108
	BYTE	W12
	BYTE		N36     As0   v004
	BYTE	W32
	BYTE	W02
	BYTE		N01     Dn1   v100
	BYTE	W01
	BYTE		        Dn1   v124
	BYTE	W01
	BYTE		N48     As1   v116
	BYTE	W06
	BYTE		N42     Cs1   v127
	BYTE	W06
	BYTE		N36     As0   v004
	BYTE	W24
	BYTE		N12     Bn0 
	BYTE	W12
	BYTE	PEND
// 047   ----------------------------------------
exceedinglynear000_1_047:
	BYTE		N48     Bn0   v004
	BYTE		N48     As1   v108
	BYTE	W12
	BYTE		        As0   v004
	BYTE	W32
	BYTE	W03
	BYTE		N02     Dn1   v116
	BYTE	W01
	BYTE		N48     As1   v104
	BYTE	W01
	BYTE		        Dn1   v124
	BYTE	W05
	BYTE		N42     Cs1   v127
	BYTE	W06
	BYTE		N36     As0   v004
	BYTE	W24
	BYTE		N12     Bn0 
	BYTE	W12
	BYTE	PEND
// 048   ----------------------------------------
exceedinglynear000_1_048:
	BYTE		N48     Bn0   v004
	BYTE		N48     As1   v112
	BYTE	W10
	BYTE		N02     Dn1   v076
	BYTE	W02
	BYTE		N36     As0   v004
	BYTE		N24     Dn1   v104
	BYTE	W06
	BYTE		        Cs1   v112
	BYTE	W28
	BYTE	W01
	BYTE		N48     Dn1   v124
	BYTE	W01
	BYTE		        As1   v104
	BYTE	W06
	BYTE		N42     Cs1   v127
	BYTE	W06
	BYTE		N36     As0   v004
	BYTE	W12
	BYTE		N24     Bn0 
	BYTE		N90     Ds2   v116
	BYTE	W24
	BYTE	PEND
// 049   ----------------------------------------
	BYTE		N48     Bn0   v004
	BYTE		N90     Cs2   v112
	BYTE	W44
	BYTE	W03
	BYTE		N01     Dn1   v100
	BYTE	W01
	BYTE		N48     Dn1   v124
	BYTE		N48     As1   v116
	BYTE	W06
	BYTE		N42     Cs1   v127
	BYTE	W06
	BYTE		N36     As0   v004
	BYTE	W24
	BYTE		N12     Bn0 
	BYTE	W12
// 050   ----------------------------------------
	BYTE	PATT
	 POIN2	exceedinglynear000_1_046
// 051   ----------------------------------------
	BYTE	PATT
	 POIN2	exceedinglynear000_1_047
// 052   ----------------------------------------
	BYTE		N48     Bn0   v004
	BYTE		N48     As1   v112
	BYTE	W10
	BYTE		N02     Dn1   v076
	BYTE	W02
	BYTE		N36     As0   v004
	BYTE		N24     Dn1   v104
	BYTE	W06
	BYTE		        Cs1   v112
	BYTE	W28
	BYTE	W01
	BYTE		N48     Dn1   v127
	BYTE	W01
	BYTE		        As1   v104
	BYTE	W06
	BYTE		N42     Cs1   v127
	BYTE	W06
	BYTE		N36     As0   v004
	BYTE	W12
	BYTE		N24     Bn0 
	BYTE	W24
// 053   ----------------------------------------
	BYTE		N48   
	BYTE		N90     Ds2   v127
	BYTE	W44
	BYTE	W03
	BYTE		N01     Dn1   v100
	BYTE	W01
	BYTE		N48     Dn1   v124
	BYTE		N48     As1   v116
	BYTE	W06
	BYTE		N40     Cs1   v127
	BYTE	W06
	BYTE		N36     As0   v004
	BYTE	W24
	BYTE		N12     Bn0 
	BYTE	W12
// 054   ----------------------------------------
	BYTE		N48   
	BYTE		N48     As1   v108
	BYTE	W12
	BYTE		N36     As0   v004
	BYTE	W32
	BYTE	W03
	BYTE		N48     Dn1   v124
	BYTE	W01
	BYTE		        As1   v116
	BYTE	W06
	BYTE		N40     Cs1   v127
	BYTE	W06
	BYTE		N36     As0   v004
	BYTE	W24
	BYTE		N12     Bn0 
	BYTE	W12
// 055   ----------------------------------------
	BYTE		N48   
	BYTE		N48     As1   v108
	BYTE	W12
	BYTE		        As0   v004
	BYTE	W36
	BYTE		N02     Dn1   v116
	BYTE		N48     As1   v104
	BYTE	W02
	BYTE		        Dn1   v124
	BYTE	W04
	BYTE		N42     Cs1   v127
	BYTE	W06
	BYTE		N36     As0   v004
	BYTE	W24
	BYTE		N12     Bn0 
	BYTE	W12
// 056   ----------------------------------------
	BYTE	PATT
	 POIN2	exceedinglynear000_1_048
// 057   ----------------------------------------
	BYTE		N48     Bn0   v004
	BYTE		N90     Cs2   v112
	BYTE	W44
	BYTE	W02
	BYTE		N02     Dn1   v100
	BYTE	W02
	BYTE		N48     Dn1   v124
	BYTE		N48     As1   v116
	BYTE	W06
	BYTE		N42     Cs1   v127
	BYTE	W06
	BYTE		N36     As0   v004
	BYTE	W24
	BYTE		N12     Bn0 
	BYTE	W12
// 058   ----------------------------------------
	BYTE		N48   
	BYTE		N48     As1   v108
	BYTE	W12
	BYTE		N36     As0   v004
	BYTE	W32
	BYTE	W03
	BYTE		N02     Dn1   v100
	BYTE	W01
	BYTE		N48     As1   v116
	BYTE	W01
	BYTE		        Dn1   v124
	BYTE	W05
	BYTE		N42     Cs1   v127
	BYTE	W06
	BYTE		N36     As0   v004
	BYTE	W24
	BYTE		N12     Bn0 
	BYTE	W12
// 059   ----------------------------------------
	BYTE		N24     Cn1   v124
	BYTE		N12     Fs1   v080
	BYTE	W12
	BYTE		        Fs1   v052
	BYTE	W12
	BYTE		N24     En1   v112
	BYTE		N12     As1   v100
	BYTE	W12
	BYTE		N24     Cn1   v096
	BYTE		N12     Fs1   v044
	BYTE	W12
	BYTE		N24     En1   v124
	BYTE		N12     As1   v112
	BYTE	W12
	BYTE		N24     Cn1   v104
	BYTE		N12     Fs1   v044
	BYTE	W12
	BYTE		N24     En1   v116
	BYTE		N12     As1   v088
	BYTE	W12
	BYTE		        Cn1   v096
	BYTE		N12     Fs1   v056
	BYTE	W12
// 060   ----------------------------------------
	BYTE		        Cn1   v112
	BYTE		N12     En1   v116
	BYTE		N12     Fn1   v127
	BYTE	W12
	BYTE		        Cn1   v104
	BYTE		N12     En1   v120
	BYTE		N12     Gn1   v116
	BYTE	W12
	BYTE		        Cn1   v124
	BYTE		N24     En1 
	BYTE		N36     Fn1   v120
	BYTE	W12
	BYTE		N24     As1   v116
	BYTE	W12
	BYTE		N18     Bn1   v120
	BYTE	W06
	BYTE		        An1   v108
	BYTE	W06
	BYTE		        Gn1   v124
	BYTE	W12
	BYTE		N23     En1 
	BYTE	W12
	BYTE		N11     Cn1   v096
	BYTE	W11
	BYTE	GoTo
	 POIN2	exceedinglynear000_1_B1
exceedinglynear000_1_B2:
	BYTE	FINE

//**************** Track 2 (Midi-Chn.3) ****************//

exceedinglynear000_2:
	BYTE	KEYSH   exceedinglynear000_key+0
// 000   ----------------------------------------
	BYTE		VOICE   104
	BYTE		VOL     57*exceedinglynear000_mvl/mxv
	BYTE	W96
exceedinglynear000_2_B1:
// 001   ----------------------------------------
	BYTE	W96
// 002   ----------------------------------------
	BYTE	W96
// 003   ----------------------------------------
	BYTE	W96
// 004   ----------------------------------------
	BYTE	W96
// 005   ----------------------------------------
	BYTE	W96
// 006   ----------------------------------------
	BYTE	W96
// 007   ----------------------------------------
	BYTE	W96
// 008   ----------------------------------------
	BYTE	W96
// 009   ----------------------------------------
exceedinglynear000_2_009:
	BYTE		N36     Ds4   v108
	BYTE	W01
	BYTE		        Ds1   v032
	BYTE	W32
	BYTE	W03
	BYTE		        Gn3   v096
	BYTE	W01
	BYTE		        Gn0   v032
	BYTE	W32
	BYTE	W03
	BYTE		N06     Ds4   v092
	BYTE	W01
	BYTE		        Ds1   v032
	BYTE	W11
	BYTE		N72     Fn4   v104
	BYTE	W01
	BYTE		        Fn1   v032
	BYTE	W11
	BYTE	PEND
// 010   ----------------------------------------
exceedinglynear000_2_010:
	BYTE	W60
	BYTE		N06     Ds4   v104
	BYTE	W01
	BYTE		        Ds1   v032
	BYTE	W23
	BYTE		N36     Dn4   v092
	BYTE	W01
	BYTE		        Dn1   v032
	BYTE	W11
	BYTE	PEND
// 011   ----------------------------------------
exceedinglynear000_2_011:
	BYTE	W24
	BYTE		N12     Dn4   v104
	BYTE	W12
	BYTE		        As3   v112
	BYTE	W01
	BYTE		        As0   v032
	BYTE	W23
	BYTE		N09     Fn3   v112
	BYTE	W01
	BYTE		        Fn0   v032
	BYTE	W23
	BYTE		N48     Ds4   v112
	BYTE	W01
	BYTE		        Ds1   v032
	BYTE	W11
	BYTE	PEND
// 012   ----------------------------------------
exceedinglynear000_2_012:
	BYTE	W36
	BYTE		N09     Ds4   v112
	BYTE	W24
	BYTE		        Dn4 
	BYTE	W01
	BYTE		        Dn1   v032
	BYTE	W23
	BYTE		N72     Cn4   v112
	BYTE	W01
	BYTE		        Cn1   v032
	BYTE	W11
	BYTE	PEND
// 013   ----------------------------------------
exceedinglynear000_2_013:
	BYTE	W60
	BYTE		N09     As3   v092
	BYTE	W01
	BYTE		        As0   v032
	BYTE	W23
	BYTE		N56     Gs3   v092
	BYTE	W01
	BYTE		        Gs0   v032
	BYTE	W11
	BYTE	PEND
// 014   ----------------------------------------
exceedinglynear000_2_014:
	BYTE	W48
	BYTE		N24     Gs3   v092
	BYTE	W01
	BYTE		        Gs0   v032
	BYTE	W23
	BYTE		N12     Cn4   v088
	BYTE	W01
	BYTE		        Cn1   v032
	BYTE	W23
	BYTE	PEND
// 015   ----------------------------------------
	BYTE		N32     Cn4   v096
	BYTE	W01
	BYTE		        Cn1   v032
	BYTE	W32
	BYTE	W03
	BYTE		TIE     Cn4   v112
	BYTE	W01
	BYTE		        Cn1   v032
	BYTE	W56
	BYTE	W03
// 016   ----------------------------------------
	BYTE	W44
	BYTE	W01
	BYTE		EOT     Cn4 
	BYTE	W01
	BYTE		        Cn1 
	BYTE	W18
	BYTE		N16     Cn3   v116
	BYTE	W01
	BYTE		        Cn0   v032
	BYTE	W15
	BYTE		        Dn3   v116
	BYTE	W01
	BYTE		        Dn0   v032
	BYTE	W15
// 017   ----------------------------------------
	BYTE		N36     Ds3   v104
	BYTE	W01
	BYTE		        Ds0   v032
	BYTE	W32
	BYTE	W03
	BYTE		        Gs2   v096
	BYTE	W01
	BYTE		        GsM1  v032
	BYTE	W32
	BYTE	W03
	BYTE		N12     Dn3   v108
	BYTE	W01
	BYTE		        Dn0   v032
	BYTE	W11
	BYTE		N54     As2   v100
	BYTE	W01
	BYTE		        AsM1  v032
	BYTE	W11
// 018   ----------------------------------------
	BYTE	W48
	BYTE		N12     As2   v104
	BYTE	W01
	BYTE		        AsM1  v032
	BYTE	W11
	BYTE		N18     Cn3   v108
	BYTE	W01
	BYTE		        Cn0   v032
	BYTE	W23
	BYTE		N48     Gn2   v100
	BYTE	W01
	BYTE		        GnM1  v032
	BYTE	W11
// 019   ----------------------------------------
	BYTE	W36
	BYTE		TIE     Gn2   v104
	BYTE	W01
	BYTE		        GnM1  v032
	BYTE	W56
	BYTE	W03
// 020   ----------------------------------------
	BYTE	W56
	BYTE	W01
	BYTE		EOT     Gn2 
	BYTE	W01
	BYTE		        GnM1
	BYTE	W06
	BYTE		N16     Cn3   v116
	BYTE	W01
	BYTE		        Cn0   v032
	BYTE	W15
	BYTE		        Dn3   v116
	BYTE	W01
	BYTE		        Dn0   v032
	BYTE	W15
// 021   ----------------------------------------
	BYTE		N36     Ds3   v104
	BYTE	W01
	BYTE		        Ds0   v032
	BYTE	W32
	BYTE	W03
	BYTE		        Gs2   v096
	BYTE	W01
	BYTE		        GsM1  v032
	BYTE	W32
	BYTE	W03
	BYTE		N12     Dn3   v108
	BYTE	W01
	BYTE		        Dn0   v032
	BYTE	W11
	BYTE		N52     As2   v100
	BYTE	W01
	BYTE		        AsM1  v032
	BYTE	W11
// 022   ----------------------------------------
	BYTE	W48
	BYTE		N12     As2   v104
	BYTE	W01
	BYTE		        AsM1  v032
	BYTE	W11
	BYTE		        Cn3   v108
	BYTE	W01
	BYTE		        Cn0   v032
	BYTE	W11
	BYTE		        As2   v108
	BYTE	W01
	BYTE		        AsM1  v032
	BYTE	W11
	BYTE		N48     Gn2   v100
	BYTE	W01
	BYTE		        GnM1  v032
	BYTE	W11
// 023   ----------------------------------------
	BYTE	W36
	BYTE		N36     Dn2   v108
	BYTE	W01
	BYTE		        DnM1  v032
	BYTE	W32
	BYTE	W03
	BYTE		N12     Dn3   v108
	BYTE	W01
	BYTE		        Dn0   v032
	BYTE	W11
	BYTE		N68     Cn3   v108
	BYTE	W01
	BYTE		        Cn0   v032
	BYTE	W11
// 024   ----------------------------------------
exceedinglynear000_2_024:
	BYTE	W60
	BYTE		N12     Cn3   v108
	BYTE	W01
	BYTE		        Cn0   v032
	BYTE	W11
	BYTE		N06     Dn3   v108
	BYTE	W01
	BYTE		        Dn0   v032
	BYTE	W11
	BYTE		N60     Ds3   v108
	BYTE	W01
	BYTE		        Ds0   v032
	BYTE	W11
	BYTE	PEND
// 025   ----------------------------------------
	BYTE	PATT
	 POIN2	exceedinglynear000_2_024
// 026   ----------------------------------------
	BYTE	W60
	BYTE		N12     Cn3   v108
	BYTE	W01
	BYTE		        Cn0   v032
	BYTE	W11
	BYTE		N06     Dn3   v108
	BYTE	W01
	BYTE		        Dn0   v032
	BYTE	W11
	BYTE		TIE     Dn3   v108
	BYTE	W01
	BYTE		        Dn0   v032
	BYTE	W11
// 027   ----------------------------------------
	BYTE	W96
// 028   ----------------------------------------
	BYTE	W30
	BYTE	W01
	BYTE		EOT     Dn3 
	BYTE	W01
	BYTE		        Dn0 
	BYTE	W04
	BYTE		N12     Dn3   v112
	BYTE	W01
	BYTE		        Dn0   v032
	BYTE	W11
	BYTE		        Gn3   v108
	BYTE	W01
	BYTE		        Gn0   v032
	BYTE	W11
	BYTE		        Bn3   v096
	BYTE	W01
	BYTE		        Bn0   v032
	BYTE	W11
	BYTE		        Cn4   v124
	BYTE	W01
	BYTE		        Cn1   v032
	BYTE	W11
	BYTE		        Dn4   v112
	BYTE	W01
	BYTE		        Dn1   v032
	BYTE	W11
// 029   ----------------------------------------
	BYTE	PATT
	 POIN2	exceedinglynear000_2_009
// 030   ----------------------------------------
	BYTE	PATT
	 POIN2	exceedinglynear000_2_010
// 031   ----------------------------------------
	BYTE	W24
	BYTE		N12     Dn4   v104
	BYTE	W01
	BYTE		        Dn1   v032
	BYTE	W11
	BYTE		        As3   v112
	BYTE	W01
	BYTE		        As0   v032
	BYTE	W23
	BYTE		N09     Fn3   v112
	BYTE	W01
	BYTE		        Fn0   v032
	BYTE	W23
	BYTE		N48     Ds4   v112
	BYTE	W01
	BYTE		        Ds1   v032
	BYTE	W11
// 032   ----------------------------------------
	BYTE	W36
	BYTE		N09     Ds4   v112
	BYTE	W01
	BYTE		        Ds1   v032
	BYTE	W23
	BYTE		        Dn4   v112
	BYTE	W01
	BYTE		        Dn1   v032
	BYTE	W23
	BYTE		N72     Cn4   v112
	BYTE	W01
	BYTE		        Cn1   v032
	BYTE	W11
// 033   ----------------------------------------
	BYTE	PATT
	 POIN2	exceedinglynear000_2_013
// 034   ----------------------------------------
	BYTE	PATT
	 POIN2	exceedinglynear000_2_014
// 035   ----------------------------------------
	BYTE		N32     Cn4   v096
	BYTE	W01
	BYTE		        Cn1   v032
	BYTE	W32
	BYTE	W03
	BYTE		N92     As3   v112
	BYTE	W01
	BYTE		        As0   v032
	BYTE	W56
	BYTE	W03
// 036   ----------------------------------------
	BYTE	W36
	BYTE		N36     Cn4   v112
	BYTE	W01
	BYTE		        Cn1   v032
	BYTE	W32
	BYTE	W03
	BYTE		N24     Dn4   v124
	BYTE	W01
	BYTE		        Dn1   v032
	BYTE	W23
// 037   ----------------------------------------
	BYTE	PATT
	 POIN2	exceedinglynear000_2_009
// 038   ----------------------------------------
	BYTE	PATT
	 POIN2	exceedinglynear000_2_010
// 039   ----------------------------------------
	BYTE	PATT
	 POIN2	exceedinglynear000_2_011
// 040   ----------------------------------------
	BYTE	PATT
	 POIN2	exceedinglynear000_2_012
// 041   ----------------------------------------
	BYTE	PATT
	 POIN2	exceedinglynear000_2_013
// 042   ----------------------------------------
	BYTE	PATT
	 POIN2	exceedinglynear000_2_014
// 043   ----------------------------------------
	BYTE		N32     Cn4   v096
	BYTE	W01
	BYTE		        Cn1   v032
	BYTE	W32
	BYTE	W03
	BYTE		TIE     Dn4   v112
	BYTE	W01
	BYTE		        Dn1   v032
	BYTE	W56
	BYTE	W03
// 044   ----------------------------------------
	BYTE	W78
	BYTE	W01
	BYTE		EOT     Dn4 
	BYTE	W01
	BYTE		        Dn1 
	BYTE	W16
// 045   ----------------------------------------
exceedinglynear000_2_045:
	BYTE	W36
	BYTE		N24     Ds4   v116
	BYTE	W01
	BYTE		        Ds1   v032
	BYTE	W23
	BYTE		N12     Dn4   v104
	BYTE	W01
	BYTE		        Dn1   v032
	BYTE	W11
	BYTE		        Cn4   v100
	BYTE	W01
	BYTE		        Cn1   v032
	BYTE	W11
	BYTE		N48     Dn4   v104
	BYTE	W01
	BYTE		        Dn1   v032
	BYTE	W11
	BYTE	PEND
// 046   ----------------------------------------
exceedinglynear000_2_046:
	BYTE	W48
	BYTE		N16     As3   v108
	BYTE	W01
	BYTE		        As0   v032
	BYTE	W15
	BYTE		        Cn4   v112
	BYTE	W01
	BYTE		        Cn1   v032
	BYTE	W15
	BYTE		        Dn4   v120
	BYTE	W01
	BYTE		        Dn1   v032
	BYTE	W15
	BYTE	PEND
// 047   ----------------------------------------
exceedinglynear000_2_047:
	BYTE		TIE     As3   v104
	BYTE	W01
	BYTE		        As0   v032
	BYTE	W92
	BYTE	W03
	BYTE	PEND
// 048   ----------------------------------------
	BYTE	W44
	BYTE	W01
	BYTE		EOT     As3 
	BYTE	W01
	BYTE		        As0 
	BYTE	W48
	BYTE	W02
// 049   ----------------------------------------
exceedinglynear000_2_049:
	BYTE	W36
	BYTE		N24     Ds4   v116
	BYTE	W01
	BYTE		        Ds1   v032
	BYTE	W23
	BYTE		N12     Dn4   v104
	BYTE	W01
	BYTE		        Dn1   v032
	BYTE	W11
	BYTE		        Cn4   v100
	BYTE	W01
	BYTE		        Cn1   v032
	BYTE	W11
	BYTE		N48     Dn4   v120
	BYTE	W01
	BYTE		        Dn1   v032
	BYTE	W11
	BYTE	PEND
// 050   ----------------------------------------
	BYTE	W48
	BYTE		N12     Fn4   v092
	BYTE	W01
	BYTE		        Fn1   v032
	BYTE	W11
	BYTE		        Fn4   v116
	BYTE	W01
	BYTE		        Fn1   v032
	BYTE	W23
	BYTE		TIE     Ds4   v104
	BYTE	W01
	BYTE		        Ds1   v032
	BYTE	W11
// 051   ----------------------------------------
	BYTE	W96
// 052   ----------------------------------------
	BYTE	W32
	BYTE	W02
	BYTE		EOT     Ds4 
	BYTE	W01
	BYTE		        Ds1 
	BYTE	W60
	BYTE	W01
// 053   ----------------------------------------
	BYTE	PATT
	 POIN2	exceedinglynear000_2_045
// 054   ----------------------------------------
	BYTE	PATT
	 POIN2	exceedinglynear000_2_046
// 055   ----------------------------------------
	BYTE	PATT
	 POIN2	exceedinglynear000_2_047
// 056   ----------------------------------------
	BYTE	W44
	BYTE	W01
	BYTE		EOT     As3 
	BYTE	W01
	BYTE		        As0 
	BYTE	W48
	BYTE	W02
// 057   ----------------------------------------
	BYTE	PATT
	 POIN2	exceedinglynear000_2_049
// 058   ----------------------------------------
	BYTE	W48
	BYTE		N12     Fn4   v092
	BYTE	W01
	BYTE		        Fn1   v032
	BYTE	W11
	BYTE		        Fn4   v116
	BYTE	W01
	BYTE		        Fn1   v032
	BYTE	W23
	BYTE		TIE     Dn4   v104
	BYTE	W01
	BYTE		        Dn1   v032
	BYTE	W11
// 059   ----------------------------------------
	BYTE	W96
// 060   ----------------------------------------
	BYTE	W32
	BYTE	W02
	BYTE		EOT     Dn4 
	BYTE	W01
	BYTE		        Dn1 
	BYTE	W60
	BYTE	GoTo
	 POIN2	exceedinglynear000_2_B1
exceedinglynear000_2_B2:
	BYTE	FINE

//**************** Track 3 (Midi-Chn.4) ****************//

exceedinglynear000_3:
	BYTE	KEYSH   exceedinglynear000_key+0
// 000   ----------------------------------------
	BYTE		VOICE   34
	BYTE		VOL     41*exceedinglynear000_mvl/mxv
	BYTE		PAN     c_v+0
	BYTE		MOD     0
	BYTE	W05
	BYTE		BEND    c_v+0
	BYTE	W90
	BYTE	W01
exceedinglynear000_3_B1:
// 001   ----------------------------------------
	BYTE		N06     Cn4   v088
	BYTE	W12
	BYTE		        Cn4   v084
	BYTE	W12
	BYTE		N12     Cn2   v112
	BYTE	W12
	BYTE		N06     Cn4   v088
	BYTE	W12
	BYTE		        Cn4   v068
	BYTE	W12
	BYTE		N12     Cn2   v112
	BYTE	W12
	BYTE		N06     Cn4   v084
	BYTE	W12
	BYTE		N24     Fn1   v112
	BYTE	W12
// 002   ----------------------------------------
exceedinglynear000_3_002:
	BYTE	W12
	BYTE		N06     Fn3   v088
	BYTE	W12
	BYTE		        Fn3   v068
	BYTE	W12
	BYTE		N24     Fn3   v112
	BYTE	W24
	BYTE		N06     Fn3   v088
	BYTE	W12
	BYTE		        Fn3   v068
	BYTE	W12
	BYTE		N06   
	BYTE	W12
	BYTE	PEND
// 003   ----------------------------------------
exceedinglynear000_3_003:
	BYTE		N06     As3   v088
	BYTE	W12
	BYTE		        As3   v084
	BYTE	W12
	BYTE		N12     As1   v112
	BYTE	W12
	BYTE		N06     As3   v088
	BYTE	W12
	BYTE		        As3   v068
	BYTE	W12
	BYTE		N12     As1   v112
	BYTE	W12
	BYTE		N06     As3   v084
	BYTE	W12
	BYTE		N12     As3   v100
	BYTE	W12
	BYTE	PEND
// 004   ----------------------------------------
exceedinglynear000_3_004:
	BYTE		N24     Ds2   v112
	BYTE	W24
	BYTE		N12     Ds4   v104
	BYTE	W12
	BYTE		N06     Ds4   v088
	BYTE	W12
	BYTE		        Dn4   v068
	BYTE	W12
	BYTE		N24     Dn2   v112
	BYTE	W24
	BYTE		N12     Dn4   v100
	BYTE	W12
	BYTE	PEND
// 005   ----------------------------------------
exceedinglynear000_3_005:
	BYTE		N06     Cn4   v088
	BYTE	W12
	BYTE		        Cn4   v084
	BYTE	W12
	BYTE		N12     Cn2   v112
	BYTE	W12
	BYTE		N06     Cn4   v088
	BYTE	W12
	BYTE		        Cn4   v068
	BYTE	W12
	BYTE		N12     Cn2   v112
	BYTE	W12
	BYTE		N06     Cn4   v084
	BYTE	W12
	BYTE		N12     As1   v116
	BYTE	W12
	BYTE	PEND
// 006   ----------------------------------------
exceedinglynear000_3_006:
	BYTE		N24     Gs1   v116
	BYTE	W24
	BYTE		N06     Gs3   v088
	BYTE	W12
	BYTE		N24     Gs1   v116
	BYTE	W24
	BYTE		N06     Gs3   v088
	BYTE	W12
	BYTE		N06   
	BYTE	W12
	BYTE		        Gs3   v068
	BYTE	W12
	BYTE	PEND
// 007   ----------------------------------------
	BYTE	PATT
	 POIN2	exceedinglynear000_3_003
// 008   ----------------------------------------
	BYTE		N12     As3   v112
	BYTE	W12
	BYTE		        As1 
	BYTE	W12
	BYTE		        Dn4 
	BYTE	W12
	BYTE		        Fn4 
	BYTE	W12
	BYTE		        As3 
	BYTE	W48
// 009   ----------------------------------------
exceedinglynear000_3_009:
	BYTE		N06     Cn4   v088
	BYTE	W12
	BYTE		        Cn4   v084
	BYTE	W12
	BYTE		N12     Cn2   v112
	BYTE	W12
	BYTE		N06     Cn4   v088
	BYTE	W12
	BYTE		        Cn4   v068
	BYTE	W12
	BYTE		N12     Cn2   v112
	BYTE	W12
	BYTE		N06     Cn4   v084
	BYTE	W12
	BYTE		N24     Fn1   v112
	BYTE	W12
	BYTE	PEND
// 010   ----------------------------------------
	BYTE	PATT
	 POIN2	exceedinglynear000_3_002
// 011   ----------------------------------------
	BYTE	PATT
	 POIN2	exceedinglynear000_3_003
// 012   ----------------------------------------
	BYTE	PATT
	 POIN2	exceedinglynear000_3_004
// 013   ----------------------------------------
	BYTE	PATT
	 POIN2	exceedinglynear000_3_005
// 014   ----------------------------------------
	BYTE	PATT
	 POIN2	exceedinglynear000_3_006
// 015   ----------------------------------------
	BYTE	PATT
	 POIN2	exceedinglynear000_3_003
// 016   ----------------------------------------
	BYTE	PATT
	 POIN2	exceedinglynear000_3_003
// 017   ----------------------------------------
exceedinglynear000_3_017:
	BYTE		N12     Gs1   v112
	BYTE	W12
	BYTE		N06     Gs3   v080
	BYTE	W12
	BYTE		        Gs3   v084
	BYTE	W12
	BYTE		        Gs3   v096
	BYTE	W12
	BYTE		        Gs3   v080
	BYTE	W12
	BYTE		N24     Gs1   v108
	BYTE	W24
	BYTE		        As1 
	BYTE	W12
	BYTE	PEND
// 018   ----------------------------------------
	BYTE	W12
	BYTE		N06     As3   v080
	BYTE	W12
	BYTE		        As3   v084
	BYTE	W12
	BYTE		        As3   v096
	BYTE	W12
	BYTE		        As3   v080
	BYTE	W12
	BYTE		N24     As1   v108
	BYTE	W24
	BYTE		        Cn2 
	BYTE	W12
// 019   ----------------------------------------
	BYTE	W12
	BYTE		N06     Cn4   v096
	BYTE	W12
	BYTE		        Cn4   v080
	BYTE	W12
	BYTE		N12     Cn2   v108
	BYTE	W12
	BYTE		N06     Cn4   v096
	BYTE	W12
	BYTE		        Cn4   v080
	BYTE	W12
	BYTE		N12     Cn2   v108
	BYTE	W12
	BYTE		N06     Cn4   v080
	BYTE	W12
// 020   ----------------------------------------
	BYTE		N12     Ds4   v108
	BYTE	W12
	BYTE		N06     Dn4   v096
	BYTE	W12
	BYTE		N12     Cn4   v108
	BYTE	W12
	BYTE		N24     As1   v104
	BYTE	W24
	BYTE		N12     As1   v096
	BYTE	W12
	BYTE		        Fn3   v088
	BYTE	W12
	BYTE		N06     As3 
	BYTE	W12
// 021   ----------------------------------------
	BYTE	PATT
	 POIN2	exceedinglynear000_3_017
// 022   ----------------------------------------
	BYTE	W12
	BYTE		N06     As3   v080
	BYTE	W12
	BYTE		        As3   v084
	BYTE	W12
	BYTE		        As3   v096
	BYTE	W12
	BYTE		        As3   v080
	BYTE	W12
	BYTE		N24     As1   v108
	BYTE	W24
	BYTE		        Gn3 
	BYTE	W12
// 023   ----------------------------------------
	BYTE	W12
	BYTE		N06     Gn3   v080
	BYTE	W12
	BYTE		        Gn3   v084
	BYTE	W12
	BYTE		N22     Gn1   v096
	BYTE	W24
	BYTE		N06     Bn3   v080
	BYTE	W12
	BYTE		        Bn3   v084
	BYTE	W12
	BYTE		N24     Cn2   v112
	BYTE	W12
// 024   ----------------------------------------
	BYTE	W12
	BYTE		N06     Cn4   v080
	BYTE	W12
	BYTE		        Cn4   v084
	BYTE	W12
	BYTE		        Cn4   v096
	BYTE	W12
	BYTE		        Cn4   v080
	BYTE	W12
	BYTE		N24     As1   v108
	BYTE	W24
	BYTE		N06     As3   v096
	BYTE	W12
// 025   ----------------------------------------
	BYTE		N12     Gs1   v112
	BYTE	W12
	BYTE		N06     Gs3   v080
	BYTE	W12
	BYTE		        Gs3   v084
	BYTE	W12
	BYTE		        Gs3   v096
	BYTE	W12
	BYTE		        Gs3   v080
	BYTE	W12
	BYTE		N24     Gs1   v108
	BYTE	W24
	BYTE		        Fn1 
	BYTE	W12
// 026   ----------------------------------------
	BYTE	W12
	BYTE		N06     Fn3   v080
	BYTE	W12
	BYTE		        Fn3   v084
	BYTE	W12
	BYTE		        Fn3   v096
	BYTE	W12
	BYTE		        Fn3   v080
	BYTE	W12
	BYTE		N24     Fn1   v108
	BYTE	W24
	BYTE		N12     Fn3 
	BYTE	W12
// 027   ----------------------------------------
	BYTE		N24     Gn1   v112
	BYTE	W24
	BYTE		N06     Gn3   v096
	BYTE	W12
	BYTE		N24     Gn1   v112
	BYTE	W24
	BYTE		N06     Gn3   v080
	BYTE	W12
	BYTE		N12     Gn1   v104
	BYTE	W12
	BYTE		N06     Gn3   v080
	BYTE	W12
// 028   ----------------------------------------
	BYTE		N12     Gn1   v100
	BYTE	W12
	BYTE		N06     Gn3   v084
	BYTE	W12
	BYTE		        Gn3   v080
	BYTE	W12
	BYTE		N12     Gn1   v116
	BYTE	W12
	BYTE		N07     Cn4   v096
	BYTE	W12
	BYTE		N12     Dn4   v080
	BYTE	W12
	BYTE		        Ds4   v092
	BYTE	W12
	BYTE		        Fn4   v108
	BYTE	W12
// 029   ----------------------------------------
	BYTE	PATT
	 POIN2	exceedinglynear000_3_009
// 030   ----------------------------------------
	BYTE	PATT
	 POIN2	exceedinglynear000_3_002
// 031   ----------------------------------------
	BYTE	PATT
	 POIN2	exceedinglynear000_3_003
// 032   ----------------------------------------
	BYTE	PATT
	 POIN2	exceedinglynear000_3_004
// 033   ----------------------------------------
	BYTE	PATT
	 POIN2	exceedinglynear000_3_005
// 034   ----------------------------------------
	BYTE	PATT
	 POIN2	exceedinglynear000_3_006
// 035   ----------------------------------------
	BYTE	PATT
	 POIN2	exceedinglynear000_3_003
// 036   ----------------------------------------
	BYTE		N16     As1   v116
	BYTE	W16
	BYTE		        As3   v124
	BYTE	W16
	BYTE		        Fn3   v127
	BYTE	W16
	BYTE		        As3   v116
	BYTE	W16
	BYTE		        Dn4   v104
	BYTE	W16
	BYTE		        As3   v112
	BYTE	W16
// 037   ----------------------------------------
	BYTE	PATT
	 POIN2	exceedinglynear000_3_009
// 038   ----------------------------------------
	BYTE	PATT
	 POIN2	exceedinglynear000_3_002
// 039   ----------------------------------------
	BYTE	PATT
	 POIN2	exceedinglynear000_3_003
// 040   ----------------------------------------
	BYTE	PATT
	 POIN2	exceedinglynear000_3_004
// 041   ----------------------------------------
	BYTE	PATT
	 POIN2	exceedinglynear000_3_005
// 042   ----------------------------------------
	BYTE	PATT
	 POIN2	exceedinglynear000_3_006
// 043   ----------------------------------------
	BYTE	PATT
	 POIN2	exceedinglynear000_3_003
// 044   ----------------------------------------
	BYTE		N12     As1   v127
	BYTE	W12
	BYTE		N06     As3   v116
	BYTE	W12
	BYTE		        As3   v112
	BYTE	W12
	BYTE		N12     As1   v127
	BYTE	W12
	BYTE		N06     As3   v112
	BYTE	W12
	BYTE		        As3   v100
	BYTE	W12
	BYTE		N12     As1   v124
	BYTE	W12
	BYTE		N06     As3   v112
	BYTE	W12
// 045   ----------------------------------------
exceedinglynear000_3_045:
	BYTE	W01
	BYTE		N92     GsM1  v112
	BYTE	W92
	BYTE	W03
	BYTE	PEND
// 046   ----------------------------------------
exceedinglynear000_3_046:
	BYTE	W01
	BYTE		N92     AsM1  v112
	BYTE	W92
	BYTE	W03
	BYTE	PEND
// 047   ----------------------------------------
exceedinglynear000_3_047:
	BYTE	W01
	BYTE		N96     Cn0   v112
	BYTE	W92
	BYTE	W03
	BYTE	PEND
// 048   ----------------------------------------
exceedinglynear000_3_048:
	BYTE	W12
	BYTE		N12     Gn3   v104
	BYTE	W12
	BYTE		        Cn4   v056
	BYTE	W12
	BYTE		        Dn4   v080
	BYTE	W12
	BYTE		        Ds4   v056
	BYTE	W12
	BYTE		        Dn4   v072
	BYTE	W12
	BYTE		        Cn4   v076
	BYTE	W12
	BYTE		        Gn3   v064
	BYTE	W12
	BYTE	PEND
// 049   ----------------------------------------
	BYTE	PATT
	 POIN2	exceedinglynear000_3_045
// 050   ----------------------------------------
	BYTE	PATT
	 POIN2	exceedinglynear000_3_046
// 051   ----------------------------------------
	BYTE	W01
	BYTE		N92     Cn0   v112
	BYTE	W92
	BYTE	W03
// 052   ----------------------------------------
	BYTE	W01
	BYTE		N44     Cn0   v124
	BYTE	W48
	BYTE		        AsM1
	BYTE	W44
	BYTE	W03
// 053   ----------------------------------------
	BYTE	PATT
	 POIN2	exceedinglynear000_3_045
// 054   ----------------------------------------
	BYTE	PATT
	 POIN2	exceedinglynear000_3_046
// 055   ----------------------------------------
	BYTE	PATT
	 POIN2	exceedinglynear000_3_047
// 056   ----------------------------------------
	BYTE	PATT
	 POIN2	exceedinglynear000_3_048
// 057   ----------------------------------------
	BYTE	PATT
	 POIN2	exceedinglynear000_3_045
// 058   ----------------------------------------
	BYTE	W01
	BYTE		N92     AsM1  v104
	BYTE	W92
	BYTE	W03
// 059   ----------------------------------------
	BYTE		N24     Gn1   v127
	BYTE	W24
	BYTE		N06     Gn1   v116
	BYTE	W12
	BYTE		        Gn1   v088
	BYTE	W12
	BYTE		        Gn1   v096
	BYTE	W12
	BYTE		        Gn1   v088
	BYTE	W12
	BYTE		        Gn1   v108
	BYTE	W12
	BYTE		N06   
	BYTE	W12
// 060   ----------------------------------------
	BYTE		N12     Gn1   v127
	BYTE	W12
	BYTE		N12   
	BYTE	W12
	BYTE		N12   
	BYTE	W68
	BYTE	W03
	BYTE	GoTo
	 POIN2	exceedinglynear000_3_B1
exceedinglynear000_3_B2:
	BYTE	FINE

//**************** Track 4 (Midi-Chn.8) ****************//

exceedinglynear000_4:
	BYTE	KEYSH   exceedinglynear000_key+0
// 000   ----------------------------------------
	BYTE		VOICE   30
	BYTE		VOL     19*exceedinglynear000_mvl/mxv
	BYTE		MOD     0
	BYTE	W01
	BYTE	W03
	BYTE		PAN     c_v+0
	BYTE	W01
	BYTE		BEND    c_v+0
	BYTE	W01
	BYTE	W90
exceedinglynear000_4_B1:
// 001   ----------------------------------------
exceedinglynear000_4_001:
	BYTE		N72     Gn3   v116
	BYTE		N72     Cn4 
	BYTE		N72     Ds4 
	BYTE	W84
	BYTE		N84     Gs3 
	BYTE		N84     Cn4 
	BYTE		N84     Fn4 
	BYTE	W12
	BYTE	PEND
// 002   ----------------------------------------
exceedinglynear000_4_002:
	BYTE	W84
	BYTE		N84     Fn3   v116
	BYTE		N84     As3 
	BYTE		N84     Dn4 
	BYTE	W12
	BYTE	PEND
// 003   ----------------------------------------
exceedinglynear000_4_003:
	BYTE	W84
	BYTE		N36     As3   v116
	BYTE		N36     Ds4 
	BYTE		N36     Gn4 
	BYTE	W12
	BYTE	PEND
// 004   ----------------------------------------
exceedinglynear000_4_004:
	BYTE	W36
	BYTE		N36     As3   v116
	BYTE		N36     Dn4 
	BYTE		N36     Gn4 
	BYTE	W48
	BYTE		N72     Gn3 
	BYTE		N72     Cn4 
	BYTE		N72     Ds4 
	BYTE	W12
	BYTE	PEND
// 005   ----------------------------------------
exceedinglynear000_4_005:
	BYTE	W60
	BYTE		N12     Fn3   v116
	BYTE		N12     As3 
	BYTE		N12     Dn4 
	BYTE	W24
	BYTE		N96     Ds3 
	BYTE		N96     Gs3 
	BYTE		N96     Cn4 
	BYTE	W12
	BYTE	PEND
// 006   ----------------------------------------
	BYTE	W96
// 007   ----------------------------------------
exceedinglynear000_4_007:
	BYTE		N24     Fn3   v116
	BYTE		N24     As3 
	BYTE		N24     Ds4 
	BYTE	W36
	BYTE		N72     Fn3 
	BYTE		N72     As3 
	BYTE		N72     Dn4 
	BYTE	W60
	BYTE	PEND
// 008   ----------------------------------------
	BYTE	W96
// 009   ----------------------------------------
	BYTE	PATT
	 POIN2	exceedinglynear000_4_001
// 010   ----------------------------------------
	BYTE	PATT
	 POIN2	exceedinglynear000_4_002
// 011   ----------------------------------------
	BYTE	PATT
	 POIN2	exceedinglynear000_4_003
// 012   ----------------------------------------
	BYTE	PATT
	 POIN2	exceedinglynear000_4_004
// 013   ----------------------------------------
	BYTE	PATT
	 POIN2	exceedinglynear000_4_005
// 014   ----------------------------------------
	BYTE	W96
// 015   ----------------------------------------
exceedinglynear000_4_015:
	BYTE		N24     Fn3   v116
	BYTE		N24     As3 
	BYTE		N24     Ds4 
	BYTE	W36
	BYTE		N56     Fn3 
	BYTE		N56     As3 
	BYTE		N56     Dn4 
	BYTE	W60
	BYTE	PEND
// 016   ----------------------------------------
exceedinglynear000_4_016:
	BYTE		N90     Dn4   v116
	BYTE		N90     Fn4 
	BYTE		N90     As4 
	BYTE	W96
	BYTE	PEND
// 017   ----------------------------------------
exceedinglynear000_4_017:
	BYTE		N84     Gs3   v124
	BYTE		N84     Cn4 
	BYTE		N84     Gn4 
	BYTE	W96
	BYTE	PEND
// 018   ----------------------------------------
exceedinglynear000_4_018:
	BYTE		N84     As3   v124
	BYTE		N84     Dn4 
	BYTE		N84     Fn4 
	BYTE	W96
	BYTE	PEND
// 019   ----------------------------------------
	BYTE		N24     Cn4 
	BYTE		N24     Ds4 
	BYTE		N24     Gn4 
	BYTE	W24
	BYTE		N06     Cn3 
	BYTE	W12
	BYTE		N24     Dn4 
	BYTE		N24     Ds4 
	BYTE		N24     Gn4 
	BYTE	W24
	BYTE		N06     Cn3 
	BYTE	W12
	BYTE		N24     Ds4 
	BYTE		N24     Fn4 
	BYTE		N24     Gn4 
	BYTE	W24
// 020   ----------------------------------------
	BYTE		N06     Cn3 
	BYTE	W12
	BYTE		N24     Ds4 
	BYTE		N24     Gn4 
	BYTE		N24     Cn5 
	BYTE	W24
	BYTE		N06     Cn3 
	BYTE	W12
	BYTE		N36     Fn4 
	BYTE		N36     Gn4 
	BYTE		N36     Cn5 
	BYTE	W48
// 021   ----------------------------------------
	BYTE	PATT
	 POIN2	exceedinglynear000_4_017
// 022   ----------------------------------------
	BYTE	PATT
	 POIN2	exceedinglynear000_4_018
// 023   ----------------------------------------
	BYTE		N84     Dn4   v124
	BYTE		N84     Fn4 
	BYTE		N84     As4 
	BYTE	W96
// 024   ----------------------------------------
	BYTE		        Gn3 
	BYTE		N84     As3 
	BYTE		N84     Ds4 
	BYTE	W96
// 025   ----------------------------------------
	BYTE		        Cn4 
	BYTE		N84     Ds4 
	BYTE		N84     Gn4 
	BYTE	W96
// 026   ----------------------------------------
	BYTE		        An3 
	BYTE		N84     Ds4 
	BYTE		N84     Gn4 
	BYTE	W96
// 027   ----------------------------------------
	BYTE	W96
// 028   ----------------------------------------
	BYTE	W96
// 029   ----------------------------------------
	BYTE	PATT
	 POIN2	exceedinglynear000_4_001
// 030   ----------------------------------------
	BYTE	PATT
	 POIN2	exceedinglynear000_4_002
// 031   ----------------------------------------
	BYTE	PATT
	 POIN2	exceedinglynear000_4_003
// 032   ----------------------------------------
exceedinglynear000_4_032:
	BYTE	W36
	BYTE		N36     Gs3   v116
	BYTE		N36     Cn4 
	BYTE		N36     Fn4 
	BYTE	W48
	BYTE		N72     Gn3 
	BYTE		N72     Cn4 
	BYTE		N72     Ds4 
	BYTE	W12
	BYTE	PEND
// 033   ----------------------------------------
	BYTE	PATT
	 POIN2	exceedinglynear000_4_005
// 034   ----------------------------------------
	BYTE	W96
// 035   ----------------------------------------
	BYTE	PATT
	 POIN2	exceedinglynear000_4_007
// 036   ----------------------------------------
	BYTE	W96
// 037   ----------------------------------------
	BYTE	PATT
	 POIN2	exceedinglynear000_4_001
// 038   ----------------------------------------
	BYTE	PATT
	 POIN2	exceedinglynear000_4_002
// 039   ----------------------------------------
	BYTE	PATT
	 POIN2	exceedinglynear000_4_003
// 040   ----------------------------------------
	BYTE	PATT
	 POIN2	exceedinglynear000_4_032
// 041   ----------------------------------------
	BYTE	PATT
	 POIN2	exceedinglynear000_4_005
// 042   ----------------------------------------
	BYTE	W96
// 043   ----------------------------------------
	BYTE	PATT
	 POIN2	exceedinglynear000_4_015
// 044   ----------------------------------------
	BYTE	PATT
	 POIN2	exceedinglynear000_4_016
// 045   ----------------------------------------
exceedinglynear000_4_045:
	BYTE		N90     Gs3   v116
	BYTE		N90     Cn4 
	BYTE		N90     Gn4 
	BYTE	W96
	BYTE	PEND
// 046   ----------------------------------------
	BYTE	PATT
	 POIN2	exceedinglynear000_4_016
// 047   ----------------------------------------
exceedinglynear000_4_047:
	BYTE		TIE     Cn4   v116
	BYTE		TIE     Ds4 
	BYTE		TIE     Gn4 
	BYTE	W96
	BYTE	PEND
// 048   ----------------------------------------
	BYTE	W68
	BYTE	W02
	BYTE		EOT     Cn4 
	BYTE		        Ds4 
	BYTE		        Gn4 
	BYTE	W24
	BYTE	W02
// 049   ----------------------------------------
	BYTE	PATT
	 POIN2	exceedinglynear000_4_045
// 050   ----------------------------------------
	BYTE	PATT
	 POIN2	exceedinglynear000_4_016
// 051   ----------------------------------------
	BYTE		TIE     Ds4   v116
	BYTE		TIE     Gn4 
	BYTE		TIE     Cn5 
	BYTE	W96
// 052   ----------------------------------------
	BYTE	W68
	BYTE	W02
	BYTE		EOT     Ds4 
	BYTE		        Gn4 
	BYTE		        Cn5 
	BYTE	W24
	BYTE	W02
// 053   ----------------------------------------
	BYTE	PATT
	 POIN2	exceedinglynear000_4_045
// 054   ----------------------------------------
	BYTE	PATT
	 POIN2	exceedinglynear000_4_016
// 055   ----------------------------------------
	BYTE	PATT
	 POIN2	exceedinglynear000_4_047
// 056   ----------------------------------------
	BYTE	W68
	BYTE	W02
	BYTE		EOT     Cn4 
	BYTE		        Ds4 
	BYTE		        Gn4 
	BYTE	W24
	BYTE	W02
// 057   ----------------------------------------
	BYTE	PATT
	 POIN2	exceedinglynear000_4_045
// 058   ----------------------------------------
	BYTE	PATT
	 POIN2	exceedinglynear000_4_016
// 059   ----------------------------------------
	BYTE		N96     Bn3   v116
	BYTE		N96     Dn4 
	BYTE		N96     Gn4 
	BYTE	W96
// 060   ----------------------------------------
	BYTE		N12     Bn4   v127
	BYTE		N12     Dn5 
	BYTE		N12     Gn5 
	BYTE	W12
	BYTE		        Bn4 
	BYTE		N12     Dn5 
	BYTE		N12     Gn5 
	BYTE	W12
	BYTE		        Bn4 
	BYTE		N12     Dn5 
	BYTE		N12     Gn5 
	BYTE	W12
	BYTE		N06     Fn5 
	BYTE	W01
	BYTE		        Ds5 
	BYTE	W02
	BYTE		        Cs5 
	BYTE	W01
	BYTE		        Cn5 
	BYTE	W02
	BYTE		        Bn4 
	BYTE	W01
	BYTE		        An4 
	BYTE	W02
	BYTE		        Gn4 
	BYTE	W01
	BYTE		        Fn4 
	BYTE	W48
	BYTE	W01
	BYTE	GoTo
	 POIN2	exceedinglynear000_4_B1
exceedinglynear000_4_B2:
	BYTE	FINE

//**************** Track 5 (Midi-Chn.9) ****************//

exceedinglynear000_5:
	BYTE	KEYSH   exceedinglynear000_key+0
// 000   ----------------------------------------
	BYTE		VOICE   4
	BYTE		VOL     14*exceedinglynear000_mvl/mxv
	BYTE		MOD     0
	BYTE	W01
	BYTE	W03
	BYTE		PAN     c_v+0
	BYTE	W01
	BYTE		BEND    c_v+0
	BYTE	W01
	BYTE	W90
exceedinglynear000_5_B1:
// 001   ----------------------------------------
exceedinglynear000_5_001:
	BYTE		PAN     c_v-64
	BYTE		N06     Gn3   v116
	BYTE	W06
	BYTE		PAN     c_v-61
	BYTE		N06     Cn4 
	BYTE	W03
	BYTE		PAN     c_v-55
	BYTE	W03
	BYTE		        c_v-47
	BYTE		N06     Ds4 
	BYTE	W03
	BYTE		PAN     c_v-36
	BYTE	W03
	BYTE		        c_v-25
	BYTE		N06     Gn4 
	BYTE	W03
	BYTE		PAN     c_v-12
	BYTE	W03
	BYTE		        c_v+0
	BYTE		N06     Cn5 
	BYTE	W03
	BYTE		PAN     c_v+13
	BYTE	W03
	BYTE		        c_v+26
	BYTE		N06     Gn4 
	BYTE	W03
	BYTE		PAN     c_v+36
	BYTE	W03
	BYTE		        c_v+47
	BYTE		N06     Ds4 
	BYTE	W03
	BYTE		PAN     c_v+55
	BYTE	W03
	BYTE		        c_v+61
	BYTE		N06     Cn4 
	BYTE	W03
	BYTE		PAN     c_v+63
	BYTE	W03
	BYTE		N06     Gn3 
	BYTE	W06
	BYTE		PAN     c_v+61
	BYTE		N06     Cn4 
	BYTE	W03
	BYTE		PAN     c_v+55
	BYTE	W03
	BYTE		        c_v+47
	BYTE		N06     Ds4 
	BYTE	W03
	BYTE		PAN     c_v+36
	BYTE	W03
	BYTE		        c_v+26
	BYTE		N06     Gn4 
	BYTE	W03
	BYTE		PAN     c_v+13
	BYTE	W03
	BYTE		        c_v+1
	BYTE		N06     Cn5 
	BYTE	W03
	BYTE		PAN     c_v-12
	BYTE	W03
	BYTE		        c_v-25
	BYTE		N06     Gn4 
	BYTE	W03
	BYTE		PAN     c_v-36
	BYTE	W03
	BYTE		        c_v-47
	BYTE		N06     Ds4 
	BYTE	W03
	BYTE		PAN     c_v-55
	BYTE	W03
	BYTE		        c_v-61
	BYTE		N06     Cn4 
	BYTE	W03
	BYTE		PAN     c_v-64
	BYTE	W03
	BYTE	PEND
// 002   ----------------------------------------
exceedinglynear000_5_002:
	BYTE		N06     Cn3   v116
	BYTE	W06
	BYTE		PAN     c_v-61
	BYTE		N06     Fn3 
	BYTE	W03
	BYTE		PAN     c_v-55
	BYTE	W03
	BYTE		        c_v-47
	BYTE		N06     Gs3 
	BYTE	W03
	BYTE		PAN     c_v-36
	BYTE	W03
	BYTE		        c_v-25
	BYTE		N06     Cn4 
	BYTE	W03
	BYTE		PAN     c_v-12
	BYTE	W03
	BYTE		        c_v+0
	BYTE		N06     Fn4 
	BYTE	W03
	BYTE		PAN     c_v+13
	BYTE	W03
	BYTE		        c_v+26
	BYTE		N06     Cn4 
	BYTE	W03
	BYTE		PAN     c_v+36
	BYTE	W03
	BYTE		        c_v+47
	BYTE		N06     Gs3 
	BYTE	W03
	BYTE		PAN     c_v+55
	BYTE	W03
	BYTE		        c_v+61
	BYTE		N06     Fn3 
	BYTE	W03
	BYTE		PAN     c_v+63
	BYTE	W03
	BYTE		N06     Cn3 
	BYTE	W06
	BYTE		PAN     c_v+61
	BYTE		N06     Fn3 
	BYTE	W03
	BYTE		PAN     c_v+55
	BYTE	W03
	BYTE		        c_v+47
	BYTE		N06     Gs3 
	BYTE	W03
	BYTE		PAN     c_v+36
	BYTE	W03
	BYTE		        c_v+26
	BYTE		N06     Cn4 
	BYTE	W03
	BYTE		PAN     c_v+13
	BYTE	W03
	BYTE		        c_v+1
	BYTE		N06     Fn4 
	BYTE	W03
	BYTE		PAN     c_v-12
	BYTE	W03
	BYTE		        c_v-25
	BYTE		N06     Cn4 
	BYTE	W03
	BYTE		PAN     c_v-36
	BYTE	W03
	BYTE		        c_v-47
	BYTE		N06     Gs3 
	BYTE	W03
	BYTE		PAN     c_v-55
	BYTE	W03
	BYTE		        c_v-61
	BYTE		N06     Fn3 
	BYTE	W03
	BYTE		PAN     c_v-64
	BYTE	W03
	BYTE	PEND
// 003   ----------------------------------------
exceedinglynear000_5_003:
	BYTE		PAN     c_v-64
	BYTE		N06     Dn3   v116
	BYTE	W06
	BYTE		PAN     c_v-61
	BYTE		N06     Fn3 
	BYTE	W03
	BYTE		PAN     c_v-55
	BYTE	W03
	BYTE		        c_v-47
	BYTE		N06     As3 
	BYTE	W03
	BYTE		PAN     c_v-36
	BYTE	W03
	BYTE		        c_v-25
	BYTE		N06     Dn4 
	BYTE	W03
	BYTE		PAN     c_v-12
	BYTE	W03
	BYTE		        c_v+0
	BYTE		N06     Fn4 
	BYTE	W03
	BYTE		PAN     c_v+13
	BYTE	W03
	BYTE		        c_v+26
	BYTE		N06     Dn4 
	BYTE	W03
	BYTE		PAN     c_v+36
	BYTE	W03
	BYTE		        c_v+47
	BYTE		N06     As3 
	BYTE	W03
	BYTE		PAN     c_v+55
	BYTE	W03
	BYTE		        c_v+61
	BYTE		N06     Fn3 
	BYTE	W03
	BYTE		PAN     c_v+63
	BYTE	W03
	BYTE		N06     Dn3 
	BYTE	W06
	BYTE		PAN     c_v+61
	BYTE		N06     Fn3 
	BYTE	W03
	BYTE		PAN     c_v+55
	BYTE	W03
	BYTE		        c_v+47
	BYTE		N06     As3 
	BYTE	W03
	BYTE		PAN     c_v+36
	BYTE	W03
	BYTE		        c_v+26
	BYTE		N06     Dn4 
	BYTE	W03
	BYTE		PAN     c_v+13
	BYTE	W03
	BYTE		        c_v+1
	BYTE		N06     Fn4 
	BYTE	W03
	BYTE		PAN     c_v-12
	BYTE	W03
	BYTE		        c_v-25
	BYTE		N06     Dn4 
	BYTE	W03
	BYTE		PAN     c_v-36
	BYTE	W03
	BYTE		        c_v-47
	BYTE		N06     As3 
	BYTE	W03
	BYTE		PAN     c_v-55
	BYTE	W03
	BYTE		        c_v-61
	BYTE		N06     Fn3 
	BYTE	W03
	BYTE		PAN     c_v-64
	BYTE	W03
	BYTE	PEND
// 004   ----------------------------------------
exceedinglynear000_5_004:
	BYTE		N06     As2   v116
	BYTE	W06
	BYTE		PAN     c_v-61
	BYTE		N06     Ds3 
	BYTE	W03
	BYTE		PAN     c_v-55
	BYTE	W03
	BYTE		        c_v-47
	BYTE		N06     Gn3 
	BYTE	W03
	BYTE		PAN     c_v-36
	BYTE	W03
	BYTE		        c_v-25
	BYTE		N06     As3 
	BYTE	W03
	BYTE		PAN     c_v-12
	BYTE	W03
	BYTE		        c_v+0
	BYTE		N06     Ds4 
	BYTE	W03
	BYTE		PAN     c_v+13
	BYTE	W03
	BYTE		        c_v+26
	BYTE		N06     As3 
	BYTE	W03
	BYTE		PAN     c_v+36
	BYTE	W03
	BYTE		        c_v+47
	BYTE		N06     Gn3 
	BYTE	W03
	BYTE		PAN     c_v+55
	BYTE	W03
	BYTE		        c_v+61
	BYTE		N06     Ds3 
	BYTE	W03
	BYTE		PAN     c_v+63
	BYTE	W03
	BYTE		N06     As2 
	BYTE	W06
	BYTE		PAN     c_v+61
	BYTE		N06     Dn3 
	BYTE	W03
	BYTE		PAN     c_v+55
	BYTE	W03
	BYTE		        c_v+47
	BYTE		N06     Gn3 
	BYTE	W03
	BYTE		PAN     c_v+36
	BYTE	W03
	BYTE		        c_v+26
	BYTE		N06     As3 
	BYTE	W03
	BYTE		PAN     c_v+13
	BYTE	W03
	BYTE		        c_v+1
	BYTE		N06     Dn4 
	BYTE	W03
	BYTE		PAN     c_v-12
	BYTE	W03
	BYTE		        c_v-25
	BYTE		N06     As3 
	BYTE	W03
	BYTE		PAN     c_v-36
	BYTE	W03
	BYTE		        c_v-47
	BYTE		N06     Gn3 
	BYTE	W03
	BYTE		PAN     c_v-55
	BYTE	W03
	BYTE		        c_v-61
	BYTE		N06     Dn3 
	BYTE	W03
	BYTE		PAN     c_v-64
	BYTE	W03
	BYTE	PEND
// 005   ----------------------------------------
exceedinglynear000_5_005:
	BYTE		PAN     c_v-64
	BYTE		N06     Ds3   v116
	BYTE	W06
	BYTE		PAN     c_v-61
	BYTE		N06     Gn3 
	BYTE	W03
	BYTE		PAN     c_v-55
	BYTE	W03
	BYTE		        c_v-47
	BYTE		N06     Cn4 
	BYTE	W03
	BYTE		PAN     c_v-36
	BYTE	W03
	BYTE		        c_v-25
	BYTE		N06     Ds4 
	BYTE	W03
	BYTE		PAN     c_v-12
	BYTE	W03
	BYTE		        c_v+0
	BYTE		N06     Gn4 
	BYTE	W03
	BYTE		PAN     c_v+13
	BYTE	W03
	BYTE		        c_v+26
	BYTE		N06     Ds4 
	BYTE	W03
	BYTE		PAN     c_v+36
	BYTE	W03
	BYTE		        c_v+47
	BYTE		N06     Cn4 
	BYTE	W03
	BYTE		PAN     c_v+55
	BYTE	W03
	BYTE		        c_v+61
	BYTE		N06     Gn3 
	BYTE	W03
	BYTE		PAN     c_v+63
	BYTE	W03
	BYTE		N06     Ds3 
	BYTE	W06
	BYTE		PAN     c_v+61
	BYTE		N06     Gn3 
	BYTE	W03
	BYTE		PAN     c_v+55
	BYTE	W03
	BYTE		        c_v+47
	BYTE		N06     Cn4 
	BYTE	W03
	BYTE		PAN     c_v+36
	BYTE	W03
	BYTE		        c_v+26
	BYTE		N06     Ds4 
	BYTE	W03
	BYTE		PAN     c_v+13
	BYTE	W03
	BYTE		        c_v+1
	BYTE		N06     Gn4 
	BYTE	W03
	BYTE		PAN     c_v-12
	BYTE	W03
	BYTE		        c_v-25
	BYTE		N06     Ds4 
	BYTE	W03
	BYTE		PAN     c_v-36
	BYTE	W03
	BYTE		        c_v-47
	BYTE		N06     Cn4 
	BYTE	W03
	BYTE		PAN     c_v-55
	BYTE	W03
	BYTE		        c_v-61
	BYTE		N06     Gn3 
	BYTE	W03
	BYTE		PAN     c_v-64
	BYTE	W03
	BYTE	PEND
// 006   ----------------------------------------
exceedinglynear000_5_006:
	BYTE		N06     Ds3   v116
	BYTE	W06
	BYTE		PAN     c_v-61
	BYTE		N06     Gs3 
	BYTE	W03
	BYTE		PAN     c_v-55
	BYTE	W03
	BYTE		        c_v-47
	BYTE		N06     Cn4 
	BYTE	W03
	BYTE		PAN     c_v-36
	BYTE	W03
	BYTE		        c_v-25
	BYTE		N06     Ds4 
	BYTE	W03
	BYTE		PAN     c_v-12
	BYTE	W03
	BYTE		        c_v+0
	BYTE		N06     Gs4 
	BYTE	W03
	BYTE		PAN     c_v+13
	BYTE	W03
	BYTE		        c_v+26
	BYTE		N06     Ds4 
	BYTE	W03
	BYTE		PAN     c_v+36
	BYTE	W03
	BYTE		        c_v+47
	BYTE		N06     Cn4 
	BYTE	W03
	BYTE		PAN     c_v+55
	BYTE	W03
	BYTE		        c_v+61
	BYTE		N06     Gs3 
	BYTE	W03
	BYTE		PAN     c_v+63
	BYTE	W03
	BYTE		N06     Ds3 
	BYTE	W06
	BYTE		PAN     c_v+61
	BYTE		N06     Gs3 
	BYTE	W03
	BYTE		PAN     c_v+55
	BYTE	W03
	BYTE		        c_v+47
	BYTE		N06     Cn4 
	BYTE	W03
	BYTE		PAN     c_v+36
	BYTE	W03
	BYTE		        c_v+26
	BYTE		N06     Ds4 
	BYTE	W03
	BYTE		PAN     c_v+13
	BYTE	W03
	BYTE		        c_v+1
	BYTE		N06     Gs4 
	BYTE	W03
	BYTE		PAN     c_v-12
	BYTE	W03
	BYTE		        c_v-25
	BYTE		N06     Ds4 
	BYTE	W03
	BYTE		PAN     c_v-36
	BYTE	W03
	BYTE		        c_v-47
	BYTE		N06     Cn4 
	BYTE	W03
	BYTE		PAN     c_v-55
	BYTE	W03
	BYTE		        c_v-61
	BYTE		N06     Gs3 
	BYTE	W03
	BYTE		PAN     c_v-64
	BYTE	W03
	BYTE	PEND
// 007   ----------------------------------------
exceedinglynear000_5_007:
	BYTE		PAN     c_v-64
	BYTE		N06     Fn3   v116
	BYTE	W06
	BYTE		PAN     c_v-61
	BYTE		N06     As3 
	BYTE	W03
	BYTE		PAN     c_v-55
	BYTE	W03
	BYTE		        c_v-47
	BYTE		N06     Dn4 
	BYTE	W03
	BYTE		PAN     c_v-36
	BYTE	W03
	BYTE		        c_v-25
	BYTE		N06     Fn4 
	BYTE	W03
	BYTE		PAN     c_v-12
	BYTE	W03
	BYTE		        c_v+0
	BYTE		N06     As4 
	BYTE	W03
	BYTE		PAN     c_v+13
	BYTE	W03
	BYTE		        c_v+26
	BYTE		N06     Fn4 
	BYTE	W03
	BYTE		PAN     c_v+36
	BYTE	W03
	BYTE		        c_v+47
	BYTE		N06     Dn4 
	BYTE	W03
	BYTE		PAN     c_v+55
	BYTE	W03
	BYTE		        c_v+61
	BYTE		N06     As3 
	BYTE	W03
	BYTE		PAN     c_v+63
	BYTE	W03
	BYTE		N06     Fn3 
	BYTE	W06
	BYTE		PAN     c_v+61
	BYTE		N06     As3 
	BYTE	W03
	BYTE		PAN     c_v+55
	BYTE	W03
	BYTE		        c_v+47
	BYTE		N06     Ds4 
	BYTE	W03
	BYTE		PAN     c_v+36
	BYTE	W03
	BYTE		        c_v+26
	BYTE		N06     Fn4 
	BYTE	W03
	BYTE		PAN     c_v+13
	BYTE	W03
	BYTE		        c_v+1
	BYTE		N06     As4 
	BYTE	W03
	BYTE		PAN     c_v-12
	BYTE	W03
	BYTE		        c_v-25
	BYTE		N06     Fn4 
	BYTE	W03
	BYTE		PAN     c_v-36
	BYTE	W03
	BYTE		        c_v-47
	BYTE		N06     Ds4 
	BYTE	W03
	BYTE		PAN     c_v-55
	BYTE	W03
	BYTE		        c_v-61
	BYTE		N06     As3 
	BYTE	W03
	BYTE		PAN     c_v-64
	BYTE	W03
	BYTE	PEND
// 008   ----------------------------------------
	BYTE	W96
// 009   ----------------------------------------
	BYTE	PATT
	 POIN2	exceedinglynear000_5_001
// 010   ----------------------------------------
	BYTE	PATT
	 POIN2	exceedinglynear000_5_002
// 011   ----------------------------------------
	BYTE	PATT
	 POIN2	exceedinglynear000_5_003
// 012   ----------------------------------------
	BYTE	PATT
	 POIN2	exceedinglynear000_5_004
// 013   ----------------------------------------
	BYTE	PATT
	 POIN2	exceedinglynear000_5_005
// 014   ----------------------------------------
	BYTE	PATT
	 POIN2	exceedinglynear000_5_006
// 015   ----------------------------------------
	BYTE	PATT
	 POIN2	exceedinglynear000_5_007
// 016   ----------------------------------------
	BYTE	W06
	BYTE		PAN     c_v-61
	BYTE	W03
	BYTE		        c_v-55
	BYTE	W03
	BYTE		        c_v-47
	BYTE	W03
	BYTE		        c_v-36
	BYTE	W03
	BYTE		        c_v-25
	BYTE	W03
	BYTE		        c_v-12
	BYTE	W03
	BYTE		        c_v+0
	BYTE	W03
	BYTE		        c_v+13
	BYTE	W03
	BYTE		        c_v+26
	BYTE	W03
	BYTE		        c_v+36
	BYTE	W03
	BYTE		        c_v+47
	BYTE	W03
	BYTE		        c_v+55
	BYTE	W03
	BYTE		        c_v+61
	BYTE	W03
	BYTE		        c_v+63
	BYTE	W09
	BYTE		        c_v+61
	BYTE	W03
	BYTE		        c_v+55
	BYTE	W03
	BYTE		        c_v+47
	BYTE	W03
	BYTE		        c_v+36
	BYTE	W03
	BYTE		        c_v+26
	BYTE	W03
	BYTE		        c_v+13
	BYTE	W03
	BYTE		        c_v+1
	BYTE	W03
	BYTE		        c_v-12
	BYTE	W03
	BYTE		        c_v-25
	BYTE	W03
	BYTE		        c_v-36
	BYTE	W03
	BYTE		        c_v-47
	BYTE	W03
	BYTE		        c_v-55
	BYTE	W03
	BYTE		        c_v-61
	BYTE	W03
	BYTE		        c_v-64
	BYTE	W03
// 017   ----------------------------------------
exceedinglynear000_5_017:
	BYTE		PAN     c_v-64
	BYTE		N06     Ds3   v104
	BYTE	W06
	BYTE		PAN     c_v-61
	BYTE		N06     Gs3 
	BYTE	W03
	BYTE		PAN     c_v-55
	BYTE	W03
	BYTE		        c_v-47
	BYTE		N06     Cn4 
	BYTE	W03
	BYTE		PAN     c_v-36
	BYTE	W03
	BYTE		        c_v-25
	BYTE		N06     Ds4 
	BYTE	W03
	BYTE		PAN     c_v-12
	BYTE	W03
	BYTE		        c_v+0
	BYTE		N06     Gs4 
	BYTE	W03
	BYTE		PAN     c_v+13
	BYTE	W03
	BYTE		        c_v+26
	BYTE		N06     Ds4 
	BYTE	W03
	BYTE		PAN     c_v+36
	BYTE	W03
	BYTE		        c_v+47
	BYTE		N06     Cn4 
	BYTE	W03
	BYTE		PAN     c_v+55
	BYTE	W03
	BYTE		        c_v+61
	BYTE		N06     Gs3 
	BYTE	W03
	BYTE		PAN     c_v+63
	BYTE	W03
	BYTE		N06     Ds3 
	BYTE	W06
	BYTE		PAN     c_v+61
	BYTE		N06     Gs3 
	BYTE	W03
	BYTE		PAN     c_v+55
	BYTE	W03
	BYTE		        c_v+47
	BYTE		N06     Cn4 
	BYTE	W03
	BYTE		PAN     c_v+36
	BYTE	W03
	BYTE		        c_v+26
	BYTE		N06     Ds4 
	BYTE	W03
	BYTE		PAN     c_v+13
	BYTE	W03
	BYTE		        c_v+1
	BYTE		N06     Gs4 
	BYTE	W03
	BYTE		PAN     c_v-12
	BYTE	W03
	BYTE		        c_v-25
	BYTE		N06     Ds4 
	BYTE	W03
	BYTE		PAN     c_v-36
	BYTE	W03
	BYTE		        c_v-47
	BYTE		N06     Cn4 
	BYTE	W03
	BYTE		PAN     c_v-55
	BYTE	W03
	BYTE		        c_v-61
	BYTE		N06     Gs3 
	BYTE	W03
	BYTE		PAN     c_v-64
	BYTE	W03
	BYTE	PEND
// 018   ----------------------------------------
exceedinglynear000_5_018:
	BYTE		N06     Fn3   v104
	BYTE	W06
	BYTE		PAN     c_v-61
	BYTE		N06     As3 
	BYTE	W03
	BYTE		PAN     c_v-55
	BYTE	W03
	BYTE		        c_v-47
	BYTE		N06     Dn4 
	BYTE	W03
	BYTE		PAN     c_v-36
	BYTE	W03
	BYTE		        c_v-25
	BYTE		N06     Fn4 
	BYTE	W03
	BYTE		PAN     c_v-12
	BYTE	W03
	BYTE		        c_v+0
	BYTE		N06     As4 
	BYTE	W03
	BYTE		PAN     c_v+13
	BYTE	W03
	BYTE		        c_v+26
	BYTE		N06     Fn4 
	BYTE	W03
	BYTE		PAN     c_v+36
	BYTE	W03
	BYTE		        c_v+47
	BYTE		N06     Dn4 
	BYTE	W03
	BYTE		PAN     c_v+55
	BYTE	W03
	BYTE		        c_v+61
	BYTE		N06     As3 
	BYTE	W03
	BYTE		PAN     c_v+63
	BYTE	W03
	BYTE		N06     Fn3 
	BYTE	W06
	BYTE		PAN     c_v+61
	BYTE		N06     As3 
	BYTE	W03
	BYTE		PAN     c_v+55
	BYTE	W03
	BYTE		        c_v+47
	BYTE		N06     Dn4 
	BYTE	W03
	BYTE		PAN     c_v+36
	BYTE	W03
	BYTE		        c_v+26
	BYTE		N06     Fn4 
	BYTE	W03
	BYTE		PAN     c_v+13
	BYTE	W03
	BYTE		        c_v+1
	BYTE		N06     As4 
	BYTE	W03
	BYTE		PAN     c_v-12
	BYTE	W03
	BYTE		        c_v-25
	BYTE		N06     Fn4 
	BYTE	W03
	BYTE		PAN     c_v-36
	BYTE	W03
	BYTE		        c_v-47
	BYTE		N06     Dn4 
	BYTE	W03
	BYTE		PAN     c_v-55
	BYTE	W03
	BYTE		        c_v-61
	BYTE		N06     As3 
	BYTE	W03
	BYTE		PAN     c_v-64
	BYTE	W03
	BYTE	PEND
// 019   ----------------------------------------
	BYTE		        c_v-64
	BYTE		N06     Gn3 
	BYTE	W06
	BYTE		PAN     c_v-61
	BYTE		N06     Cn4 
	BYTE	W03
	BYTE		PAN     c_v-55
	BYTE	W03
	BYTE		        c_v-47
	BYTE		N06     Ds4 
	BYTE	W03
	BYTE		PAN     c_v-36
	BYTE	W03
	BYTE		        c_v-25
	BYTE		N06     Gn4 
	BYTE	W03
	BYTE		PAN     c_v-12
	BYTE	W03
	BYTE		        c_v+0
	BYTE		N06     Cn5 
	BYTE	W03
	BYTE		PAN     c_v+13
	BYTE	W03
	BYTE		        c_v+26
	BYTE		N06     Gn4 
	BYTE	W03
	BYTE		PAN     c_v+36
	BYTE	W03
	BYTE		        c_v+47
	BYTE		N06     Ds4 
	BYTE	W03
	BYTE		PAN     c_v+55
	BYTE	W03
	BYTE		        c_v+61
	BYTE		N06     Cn4 
	BYTE	W03
	BYTE		PAN     c_v+63
	BYTE	W03
	BYTE		N06     Gn3 
	BYTE	W06
	BYTE		PAN     c_v+61
	BYTE		N06     Cn4 
	BYTE	W03
	BYTE		PAN     c_v+55
	BYTE	W03
	BYTE		        c_v+47
	BYTE		N06     Ds4 
	BYTE	W03
	BYTE		PAN     c_v+36
	BYTE	W03
	BYTE		        c_v+26
	BYTE		N06     Gn4 
	BYTE	W03
	BYTE		PAN     c_v+13
	BYTE	W03
	BYTE		        c_v+1
	BYTE		N06     Cn5 
	BYTE	W03
	BYTE		PAN     c_v-12
	BYTE	W03
	BYTE		        c_v-25
	BYTE		N06     Gn4 
	BYTE	W03
	BYTE		PAN     c_v-36
	BYTE	W03
	BYTE		        c_v-47
	BYTE		N06     Ds4 
	BYTE	W03
	BYTE		PAN     c_v-55
	BYTE	W03
	BYTE		        c_v-61
	BYTE		N06     Cn4 
	BYTE	W03
	BYTE		PAN     c_v-64
	BYTE	W03
// 020   ----------------------------------------
exceedinglynear000_5_020:
	BYTE		N06     Gn3   v104
	BYTE	W06
	BYTE		PAN     c_v-61
	BYTE		N06     Cn4 
	BYTE	W03
	BYTE		PAN     c_v-55
	BYTE	W03
	BYTE		        c_v-47
	BYTE		N06     Ds4 
	BYTE	W03
	BYTE		PAN     c_v-36
	BYTE	W03
	BYTE		        c_v-25
	BYTE		N06     Gn4 
	BYTE	W03
	BYTE		PAN     c_v-12
	BYTE	W03
	BYTE		        c_v+0
	BYTE		N06     Cn5 
	BYTE	W03
	BYTE		PAN     c_v+13
	BYTE	W03
	BYTE		        c_v+26
	BYTE		N06     Gn4 
	BYTE	W03
	BYTE		PAN     c_v+36
	BYTE	W03
	BYTE		        c_v+47
	BYTE		N06     Ds4 
	BYTE	W03
	BYTE		PAN     c_v+55
	BYTE	W03
	BYTE		        c_v+61
	BYTE		N06     Cn4 
	BYTE	W03
	BYTE		PAN     c_v+63
	BYTE	W03
	BYTE		N06     Fn3 
	BYTE	W06
	BYTE		PAN     c_v+61
	BYTE		N06     As3 
	BYTE	W03
	BYTE		PAN     c_v+55
	BYTE	W03
	BYTE		        c_v+47
	BYTE		N06     Dn4 
	BYTE	W03
	BYTE		PAN     c_v+36
	BYTE	W03
	BYTE		        c_v+26
	BYTE		N06     Fn4 
	BYTE	W03
	BYTE		PAN     c_v+13
	BYTE	W03
	BYTE		        c_v+1
	BYTE		N06     As4 
	BYTE	W03
	BYTE		PAN     c_v-12
	BYTE	W03
	BYTE		        c_v-25
	BYTE		N06     Fn4 
	BYTE	W03
	BYTE		PAN     c_v-36
	BYTE	W03
	BYTE		        c_v-47
	BYTE		N06     Dn4 
	BYTE	W03
	BYTE		PAN     c_v-55
	BYTE	W03
	BYTE		        c_v-61
	BYTE		N06     As3 
	BYTE	W03
	BYTE		PAN     c_v-64
	BYTE	W03
	BYTE	PEND
// 021   ----------------------------------------
	BYTE	PATT
	 POIN2	exceedinglynear000_5_017
// 022   ----------------------------------------
	BYTE	PATT
	 POIN2	exceedinglynear000_5_018
// 023   ----------------------------------------
	BYTE		PAN     c_v-64
	BYTE		N06     Dn3   v104
	BYTE	W06
	BYTE		PAN     c_v-61
	BYTE		N06     Gn3 
	BYTE	W03
	BYTE		PAN     c_v-55
	BYTE	W03
	BYTE		        c_v-47
	BYTE		N06     As3 
	BYTE	W03
	BYTE		PAN     c_v-36
	BYTE	W03
	BYTE		        c_v-25
	BYTE		N06     Dn4 
	BYTE	W03
	BYTE		PAN     c_v-12
	BYTE	W03
	BYTE		        c_v+0
	BYTE		N06     Gn4 
	BYTE	W03
	BYTE		PAN     c_v+13
	BYTE	W03
	BYTE		        c_v+26
	BYTE		N06     Dn4 
	BYTE	W03
	BYTE		PAN     c_v+36
	BYTE	W03
	BYTE		        c_v+47
	BYTE		N06     As3 
	BYTE	W03
	BYTE		PAN     c_v+55
	BYTE	W03
	BYTE		        c_v+61
	BYTE		N06     Gn3 
	BYTE	W03
	BYTE		PAN     c_v+63
	BYTE	W03
	BYTE		N06     Dn3 
	BYTE	W06
	BYTE		PAN     c_v+61
	BYTE		N06     Gn3 
	BYTE	W03
	BYTE		PAN     c_v+55
	BYTE	W03
	BYTE		        c_v+47
	BYTE		N06     As3 
	BYTE	W03
	BYTE		PAN     c_v+36
	BYTE	W03
	BYTE		        c_v+26
	BYTE		N06     Dn4 
	BYTE	W03
	BYTE		PAN     c_v+13
	BYTE	W03
	BYTE		        c_v+1
	BYTE		N06     Gn4 
	BYTE	W03
	BYTE		PAN     c_v-12
	BYTE	W03
	BYTE		        c_v-25
	BYTE		N06     Dn4 
	BYTE	W03
	BYTE		PAN     c_v-36
	BYTE	W03
	BYTE		        c_v-47
	BYTE		N06     As3 
	BYTE	W03
	BYTE		PAN     c_v-55
	BYTE	W03
	BYTE		        c_v-61
	BYTE		N06     Gn3 
	BYTE	W03
	BYTE		PAN     c_v-64
	BYTE	W03
// 024   ----------------------------------------
	BYTE	PATT
	 POIN2	exceedinglynear000_5_020
// 025   ----------------------------------------
	BYTE	W96
// 026   ----------------------------------------
	BYTE	W96
// 027   ----------------------------------------
	BYTE	W96
// 028   ----------------------------------------
	BYTE	W96
// 029   ----------------------------------------
exceedinglynear000_5_029:
	BYTE		PAN     c_v-64
	BYTE		N06     Ds3   v104
	BYTE		N06     Gn3 
	BYTE	W06
	BYTE		PAN     c_v-61
	BYTE		N06   
	BYTE		N06     Cn4 
	BYTE	W03
	BYTE		PAN     c_v-55
	BYTE	W03
	BYTE		        c_v-47
	BYTE		N06   
	BYTE		N06     Ds4 
	BYTE	W03
	BYTE		PAN     c_v-36
	BYTE	W03
	BYTE		        c_v-25
	BYTE		N06   
	BYTE		N06     Gn4 
	BYTE	W03
	BYTE		PAN     c_v-12
	BYTE	W03
	BYTE		        c_v+0
	BYTE		N06   
	BYTE		N06     Cn5 
	BYTE	W03
	BYTE		PAN     c_v+13
	BYTE	W03
	BYTE		        c_v+26
	BYTE		N06     Ds4 
	BYTE		N06     Gn4 
	BYTE	W03
	BYTE		PAN     c_v+36
	BYTE	W03
	BYTE		        c_v+47
	BYTE		N06     Cn4 
	BYTE		N06     Ds4 
	BYTE	W03
	BYTE		PAN     c_v+55
	BYTE	W03
	BYTE		        c_v+61
	BYTE		N06     Gn3 
	BYTE		N06     Cn4 
	BYTE	W03
	BYTE		PAN     c_v+63
	BYTE	W03
	BYTE		N06     Ds3 
	BYTE		N06     Gn3 
	BYTE	W06
	BYTE		PAN     c_v+61
	BYTE		N06   
	BYTE		N06     Cn4 
	BYTE	W03
	BYTE		PAN     c_v+55
	BYTE	W03
	BYTE		        c_v+47
	BYTE		N06   
	BYTE		N06     Ds4 
	BYTE	W03
	BYTE		PAN     c_v+36
	BYTE	W03
	BYTE		        c_v+26
	BYTE		N06   
	BYTE		N06     Gn4 
	BYTE	W03
	BYTE		PAN     c_v+13
	BYTE	W03
	BYTE		        c_v+1
	BYTE		N06   
	BYTE		N06     Cn5 
	BYTE	W03
	BYTE		PAN     c_v-12
	BYTE	W03
	BYTE		        c_v-25
	BYTE		N06     Ds4 
	BYTE		N06     Gn4 
	BYTE	W03
	BYTE		PAN     c_v-36
	BYTE	W03
	BYTE		        c_v-47
	BYTE		N06     Cn4 
	BYTE		N06     Ds4 
	BYTE	W03
	BYTE		PAN     c_v-55
	BYTE	W03
	BYTE		        c_v-61
	BYTE		N06     Gn3 
	BYTE		N06     Cn4 
	BYTE	W03
	BYTE		PAN     c_v-64
	BYTE	W03
	BYTE	PEND
// 030   ----------------------------------------
exceedinglynear000_5_030:
	BYTE		N06     Gs2   v104
	BYTE		N06     Cn3 
	BYTE	W06
	BYTE		PAN     c_v-61
	BYTE		N06   
	BYTE		N06     Fn3 
	BYTE	W03
	BYTE		PAN     c_v-55
	BYTE	W03
	BYTE		        c_v-47
	BYTE		N06   
	BYTE		N06     Gs3 
	BYTE	W03
	BYTE		PAN     c_v-36
	BYTE	W03
	BYTE		        c_v-25
	BYTE		N06   
	BYTE		N06     Cn4 
	BYTE	W03
	BYTE		PAN     c_v-12
	BYTE	W03
	BYTE		        c_v+0
	BYTE		N06   
	BYTE		N06     Fn4 
	BYTE	W03
	BYTE		PAN     c_v+13
	BYTE	W03
	BYTE		        c_v+26
	BYTE		N06     Gs3 
	BYTE		N06     Cn4 
	BYTE	W03
	BYTE		PAN     c_v+36
	BYTE	W03
	BYTE		        c_v+47
	BYTE		N06     Fn3 
	BYTE		N06     Gs3 
	BYTE	W03
	BYTE		PAN     c_v+55
	BYTE	W03
	BYTE		        c_v+61
	BYTE		N06     Cn3 
	BYTE		N06     Fn3 
	BYTE	W03
	BYTE		PAN     c_v+63
	BYTE	W03
	BYTE		N06     Gs2 
	BYTE		N06     Cn3 
	BYTE	W06
	BYTE		PAN     c_v+61
	BYTE		N06   
	BYTE		N06     Fn3 
	BYTE	W03
	BYTE		PAN     c_v+55
	BYTE	W03
	BYTE		        c_v+47
	BYTE		N06   
	BYTE		N06     Gs3 
	BYTE	W03
	BYTE		PAN     c_v+36
	BYTE	W03
	BYTE		        c_v+26
	BYTE		N06   
	BYTE		N06     Cn4 
	BYTE	W03
	BYTE		PAN     c_v+13
	BYTE	W03
	BYTE		        c_v+1
	BYTE		N06   
	BYTE		N06     Fn4 
	BYTE	W03
	BYTE		PAN     c_v-12
	BYTE	W03
	BYTE		        c_v-25
	BYTE		N06     Gs3 
	BYTE		N06     Cn4 
	BYTE	W03
	BYTE		PAN     c_v-36
	BYTE	W03
	BYTE		        c_v-47
	BYTE		N06     Fn3 
	BYTE		N06     Gs3 
	BYTE	W03
	BYTE		PAN     c_v-55
	BYTE	W03
	BYTE		        c_v-61
	BYTE		N06     Cn3 
	BYTE		N06     Fn3 
	BYTE	W03
	BYTE		PAN     c_v-64
	BYTE	W03
	BYTE	PEND
// 031   ----------------------------------------
exceedinglynear000_5_031:
	BYTE		PAN     c_v-64
	BYTE		N06     As2   v104
	BYTE		N06     Dn3 
	BYTE	W06
	BYTE		PAN     c_v-61
	BYTE		N06   
	BYTE		N06     Fn3 
	BYTE	W03
	BYTE		PAN     c_v-55
	BYTE	W03
	BYTE		        c_v-47
	BYTE		N06   
	BYTE		N06     As3 
	BYTE	W03
	BYTE		PAN     c_v-36
	BYTE	W03
	BYTE		        c_v-25
	BYTE		N06   
	BYTE		N06     Dn4 
	BYTE	W03
	BYTE		PAN     c_v-12
	BYTE	W03
	BYTE		        c_v+0
	BYTE		N06   
	BYTE		N06     Fn4 
	BYTE	W03
	BYTE		PAN     c_v+13
	BYTE	W03
	BYTE		        c_v+26
	BYTE		N06     As3 
	BYTE		N06     Dn4 
	BYTE	W03
	BYTE		PAN     c_v+36
	BYTE	W03
	BYTE		        c_v+47
	BYTE		N06     Fn3 
	BYTE		N06     As3 
	BYTE	W03
	BYTE		PAN     c_v+55
	BYTE	W03
	BYTE		        c_v+61
	BYTE		N06     Dn3 
	BYTE		N06     Fn3 
	BYTE	W03
	BYTE		PAN     c_v+63
	BYTE	W03
	BYTE		N06     As2 
	BYTE		N06     Dn3 
	BYTE	W06
	BYTE		PAN     c_v+61
	BYTE		N06   
	BYTE		N06     Fn3 
	BYTE	W03
	BYTE		PAN     c_v+55
	BYTE	W03
	BYTE		        c_v+47
	BYTE		N06   
	BYTE		N06     As3 
	BYTE	W03
	BYTE		PAN     c_v+36
	BYTE	W03
	BYTE		        c_v+26
	BYTE		N06   
	BYTE		N06     Dn4 
	BYTE	W03
	BYTE		PAN     c_v+13
	BYTE	W03
	BYTE		        c_v+1
	BYTE		N06   
	BYTE		N06     Fn4 
	BYTE	W03
	BYTE		PAN     c_v-12
	BYTE	W03
	BYTE		        c_v-25
	BYTE		N06     As3 
	BYTE		N06     Dn4 
	BYTE	W03
	BYTE		PAN     c_v-36
	BYTE	W03
	BYTE		        c_v-47
	BYTE		N06     Fn3 
	BYTE		N06     As3 
	BYTE	W03
	BYTE		PAN     c_v-55
	BYTE	W03
	BYTE		        c_v-61
	BYTE		N06     Dn3 
	BYTE		N06     Fn3 
	BYTE	W03
	BYTE		PAN     c_v-64
	BYTE	W03
	BYTE	PEND
// 032   ----------------------------------------
exceedinglynear000_5_032:
	BYTE		N06     Fn2   v104
	BYTE		N06     As2 
	BYTE	W06
	BYTE		PAN     c_v-61
	BYTE		N06   
	BYTE		N06     Ds3 
	BYTE	W03
	BYTE		PAN     c_v-55
	BYTE	W03
	BYTE		        c_v-47
	BYTE		N06   
	BYTE		N06     Gn3 
	BYTE	W03
	BYTE		PAN     c_v-36
	BYTE	W03
	BYTE		        c_v-25
	BYTE		N06   
	BYTE		N06     As3 
	BYTE	W03
	BYTE		PAN     c_v-12
	BYTE	W03
	BYTE		        c_v+0
	BYTE		N06   
	BYTE		N06     Ds4 
	BYTE	W03
	BYTE		PAN     c_v+13
	BYTE	W03
	BYTE		        c_v+26
	BYTE		N06     Gn3 
	BYTE		N06     As3 
	BYTE	W03
	BYTE		PAN     c_v+36
	BYTE	W03
	BYTE		        c_v+47
	BYTE		N06     Ds3 
	BYTE		N06     Gn3 
	BYTE	W03
	BYTE		PAN     c_v+55
	BYTE	W03
	BYTE		        c_v+61
	BYTE		N06     As2 
	BYTE		N06     Ds3 
	BYTE	W03
	BYTE		PAN     c_v+63
	BYTE	W03
	BYTE		N06     Gn2 
	BYTE		N06     As2 
	BYTE	W06
	BYTE		PAN     c_v+61
	BYTE		N06   
	BYTE		N06     Dn3 
	BYTE	W03
	BYTE		PAN     c_v+55
	BYTE	W03
	BYTE		        c_v+47
	BYTE		N06   
	BYTE		N06     Gn3 
	BYTE	W03
	BYTE		PAN     c_v+36
	BYTE	W03
	BYTE		        c_v+26
	BYTE		N06   
	BYTE		N06     As3 
	BYTE	W03
	BYTE		PAN     c_v+13
	BYTE	W03
	BYTE		        c_v+1
	BYTE		N06   
	BYTE		N06     Dn4 
	BYTE	W03
	BYTE		PAN     c_v-12
	BYTE	W03
	BYTE		        c_v-25
	BYTE		N06     Gn3 
	BYTE		N06     As3 
	BYTE	W03
	BYTE		PAN     c_v-36
	BYTE	W03
	BYTE		        c_v-47
	BYTE		N06     Dn3 
	BYTE		N06     Gn3 
	BYTE	W03
	BYTE		PAN     c_v-55
	BYTE	W03
	BYTE		        c_v-61
	BYTE		N06     As2 
	BYTE		N06     Dn3 
	BYTE	W03
	BYTE		PAN     c_v-64
	BYTE	W03
	BYTE	PEND
// 033   ----------------------------------------
exceedinglynear000_5_033:
	BYTE		PAN     c_v-64
	BYTE		N06     Cn3   v104
	BYTE		N06     Ds3 
	BYTE	W06
	BYTE		PAN     c_v-61
	BYTE		N06   
	BYTE		N06     Gn3 
	BYTE	W03
	BYTE		PAN     c_v-55
	BYTE	W03
	BYTE		        c_v-47
	BYTE		N06   
	BYTE		N06     Cn4 
	BYTE	W03
	BYTE		PAN     c_v-36
	BYTE	W03
	BYTE		        c_v-25
	BYTE		N06   
	BYTE		N06     Ds4 
	BYTE	W03
	BYTE		PAN     c_v-12
	BYTE	W03
	BYTE		        c_v+0
	BYTE		N06   
	BYTE		N06     Gn4 
	BYTE	W03
	BYTE		PAN     c_v+13
	BYTE	W03
	BYTE		        c_v+26
	BYTE		N06     Cn4 
	BYTE		N06     Ds4 
	BYTE	W03
	BYTE		PAN     c_v+36
	BYTE	W03
	BYTE		        c_v+47
	BYTE		N06     Gn3 
	BYTE		N06     Cn4 
	BYTE	W03
	BYTE		PAN     c_v+55
	BYTE	W03
	BYTE		        c_v+61
	BYTE		N06     Ds3 
	BYTE		N06     Gn3 
	BYTE	W03
	BYTE		PAN     c_v+63
	BYTE	W03
	BYTE		N06     Cn3 
	BYTE		N06     Ds3 
	BYTE	W06
	BYTE		PAN     c_v+61
	BYTE		N06   
	BYTE		N06     Gn3 
	BYTE	W03
	BYTE		PAN     c_v+55
	BYTE	W03
	BYTE		        c_v+47
	BYTE		N06   
	BYTE		N06     Cn4 
	BYTE	W03
	BYTE		PAN     c_v+36
	BYTE	W03
	BYTE		        c_v+26
	BYTE		N06   
	BYTE		N06     Ds4 
	BYTE	W03
	BYTE		PAN     c_v+13
	BYTE	W03
	BYTE		        c_v+1
	BYTE		N06   
	BYTE		N06     Gn4 
	BYTE	W03
	BYTE		PAN     c_v-12
	BYTE	W03
	BYTE		        c_v-25
	BYTE		N06     Cn4 
	BYTE		N06     Ds4 
	BYTE	W03
	BYTE		PAN     c_v-36
	BYTE	W03
	BYTE		        c_v-47
	BYTE		N06     Gn3 
	BYTE		N06     Cn4 
	BYTE	W03
	BYTE		PAN     c_v-55
	BYTE	W03
	BYTE		        c_v-61
	BYTE		N06     Ds3 
	BYTE		N06     Gn3 
	BYTE	W03
	BYTE		PAN     c_v-64
	BYTE	W03
	BYTE	PEND
// 034   ----------------------------------------
exceedinglynear000_5_034:
	BYTE		N06     Cn3   v104
	BYTE		N06     Ds3 
	BYTE	W06
	BYTE		PAN     c_v-61
	BYTE		N06   
	BYTE		N06     Gs3 
	BYTE	W03
	BYTE		PAN     c_v-55
	BYTE	W03
	BYTE		        c_v-47
	BYTE		N06   
	BYTE		N06     Cn4 
	BYTE	W03
	BYTE		PAN     c_v-36
	BYTE	W03
	BYTE		        c_v-25
	BYTE		N06   
	BYTE		N06     Ds4 
	BYTE	W03
	BYTE		PAN     c_v-12
	BYTE	W03
	BYTE		        c_v+0
	BYTE		N06   
	BYTE		N06     Gs4 
	BYTE	W03
	BYTE		PAN     c_v+13
	BYTE	W03
	BYTE		        c_v+26
	BYTE		N06     Cn4 
	BYTE		N06     Ds4 
	BYTE	W03
	BYTE		PAN     c_v+36
	BYTE	W03
	BYTE		        c_v+47
	BYTE		N06     Gs3 
	BYTE		N06     Cn4 
	BYTE	W03
	BYTE		PAN     c_v+55
	BYTE	W03
	BYTE		        c_v+61
	BYTE		N06     Ds3 
	BYTE		N06     Gs3 
	BYTE	W03
	BYTE		PAN     c_v+63
	BYTE	W03
	BYTE		N06     Cn3 
	BYTE		N06     Ds3 
	BYTE	W06
	BYTE		PAN     c_v+61
	BYTE		N06   
	BYTE		N06     Gs3 
	BYTE	W03
	BYTE		PAN     c_v+55
	BYTE	W03
	BYTE		        c_v+47
	BYTE		N06   
	BYTE		N06     Cn4 
	BYTE	W03
	BYTE		PAN     c_v+36
	BYTE	W03
	BYTE		        c_v+26
	BYTE		N06   
	BYTE		N06     Ds4 
	BYTE	W03
	BYTE		PAN     c_v+13
	BYTE	W03
	BYTE		        c_v+1
	BYTE		N06   
	BYTE		N06     Gs4 
	BYTE	W03
	BYTE		PAN     c_v-12
	BYTE	W03
	BYTE		        c_v-25
	BYTE		N06     Cn4 
	BYTE		N06     Ds4 
	BYTE	W03
	BYTE		PAN     c_v-36
	BYTE	W03
	BYTE		        c_v-47
	BYTE		N06     Gs3 
	BYTE		N06     Cn4 
	BYTE	W03
	BYTE		PAN     c_v-55
	BYTE	W03
	BYTE		        c_v-61
	BYTE		N06     Ds3 
	BYTE		N06     Gs3 
	BYTE	W03
	BYTE		PAN     c_v-64
	BYTE	W03
	BYTE	PEND
// 035   ----------------------------------------
exceedinglynear000_5_035:
	BYTE		PAN     c_v-64
	BYTE		N06     Dn3   v104
	BYTE		N06     Fn3 
	BYTE	W06
	BYTE		PAN     c_v-61
	BYTE		N06   
	BYTE		N06     As3 
	BYTE	W03
	BYTE		PAN     c_v-55
	BYTE	W03
	BYTE		        c_v-47
	BYTE		N06   
	BYTE		N06     Dn4 
	BYTE	W03
	BYTE		PAN     c_v-36
	BYTE	W03
	BYTE		        c_v-25
	BYTE		N06   
	BYTE		N06     Fn4 
	BYTE	W03
	BYTE		PAN     c_v-12
	BYTE	W03
	BYTE		        c_v+0
	BYTE		N06   
	BYTE		N06     As4 
	BYTE	W03
	BYTE		PAN     c_v+13
	BYTE	W03
	BYTE		        c_v+26
	BYTE		N06     Dn4 
	BYTE		N06     Fn4 
	BYTE	W03
	BYTE		PAN     c_v+36
	BYTE	W03
	BYTE		        c_v+47
	BYTE		N06     As3 
	BYTE		N06     Dn4 
	BYTE	W03
	BYTE		PAN     c_v+55
	BYTE	W03
	BYTE		        c_v+61
	BYTE		N06     Fn3 
	BYTE		N06     As3 
	BYTE	W03
	BYTE		PAN     c_v+63
	BYTE	W03
	BYTE		N06     Dn3 
	BYTE		N06     Fn3 
	BYTE	W06
	BYTE		PAN     c_v+61
	BYTE		N06   
	BYTE		N06     As3 
	BYTE	W03
	BYTE		PAN     c_v+55
	BYTE	W03
	BYTE		        c_v+47
	BYTE		N06     Cn4 
	BYTE		N06     Ds4 
	BYTE	W03
	BYTE		PAN     c_v+36
	BYTE	W03
	BYTE		        c_v+26
	BYTE		N06     Dn4 
	BYTE		N06     Fn4 
	BYTE	W03
	BYTE		PAN     c_v+13
	BYTE	W03
	BYTE		        c_v+1
	BYTE		N06   
	BYTE		N06     As4 
	BYTE	W03
	BYTE		PAN     c_v-12
	BYTE	W03
	BYTE		        c_v-25
	BYTE		N06     Dn4 
	BYTE		N06     Fn4 
	BYTE	W03
	BYTE		PAN     c_v-36
	BYTE	W03
	BYTE		        c_v-47
	BYTE		N06     Cn4 
	BYTE		N06     Ds4 
	BYTE	W03
	BYTE		PAN     c_v-55
	BYTE	W03
	BYTE		        c_v-61
	BYTE		N06     Fn3 
	BYTE		N06     As3 
	BYTE	W03
	BYTE		PAN     c_v-64
	BYTE	W03
	BYTE	PEND
// 036   ----------------------------------------
	BYTE		N06     Dn3 
	BYTE		N06     Fn3 
	BYTE	W06
	BYTE		PAN     c_v-61
	BYTE		N06   
	BYTE		N06     As3 
	BYTE	W03
	BYTE		PAN     c_v-55
	BYTE	W03
	BYTE		        c_v-47
	BYTE		N06   
	BYTE		N06     Dn4 
	BYTE	W03
	BYTE		PAN     c_v-36
	BYTE	W03
	BYTE		        c_v-25
	BYTE	W03
	BYTE		        c_v-12
	BYTE	W03
	BYTE		        c_v+0
	BYTE	W03
	BYTE		        c_v+13
	BYTE	W03
	BYTE		        c_v+26
	BYTE	W03
	BYTE		        c_v+36
	BYTE	W03
	BYTE		        c_v+47
	BYTE	W03
	BYTE		        c_v+55
	BYTE	W03
	BYTE		        c_v+61
	BYTE	W03
	BYTE		        c_v+63
	BYTE	W09
	BYTE		        c_v+61
	BYTE	W03
	BYTE		        c_v+55
	BYTE	W03
	BYTE		        c_v+47
	BYTE	W03
	BYTE		        c_v+36
	BYTE	W03
	BYTE		        c_v+26
	BYTE	W03
	BYTE		        c_v+13
	BYTE	W03
	BYTE		        c_v+1
	BYTE	W03
	BYTE		        c_v-12
	BYTE	W03
	BYTE		        c_v-25
	BYTE	W03
	BYTE		        c_v-36
	BYTE	W03
	BYTE		        c_v-47
	BYTE	W03
	BYTE		        c_v-55
	BYTE	W03
	BYTE		        c_v-61
	BYTE	W03
	BYTE		        c_v-64
	BYTE	W03
// 037   ----------------------------------------
	BYTE	PATT
	 POIN2	exceedinglynear000_5_029
// 038   ----------------------------------------
	BYTE	PATT
	 POIN2	exceedinglynear000_5_030
// 039   ----------------------------------------
	BYTE	PATT
	 POIN2	exceedinglynear000_5_031
// 040   ----------------------------------------
	BYTE	PATT
	 POIN2	exceedinglynear000_5_032
// 041   ----------------------------------------
	BYTE	PATT
	 POIN2	exceedinglynear000_5_033
// 042   ----------------------------------------
	BYTE	PATT
	 POIN2	exceedinglynear000_5_034
// 043   ----------------------------------------
	BYTE	PATT
	 POIN2	exceedinglynear000_5_035
// 044   ----------------------------------------
	BYTE		N06     Dn3   v104
	BYTE		N06     Fn3 
	BYTE	W06
	BYTE		PAN     c_v-61
	BYTE		N06   
	BYTE		N06     As3 
	BYTE	W03
	BYTE		PAN     c_v-55
	BYTE	W03
	BYTE		        c_v-47
	BYTE		N06   
	BYTE		N06     Dn4 
	BYTE	W03
	BYTE		PAN     c_v-36
	BYTE	W03
	BYTE		        c_v-25
	BYTE		N06   
	BYTE		N06     Fn4 
	BYTE	W03
	BYTE		PAN     c_v-12
	BYTE	W03
	BYTE		        c_v+0
	BYTE		N06   
	BYTE		N06     As4 
	BYTE	W03
	BYTE		PAN     c_v+13
	BYTE	W03
	BYTE		        c_v+26
	BYTE		N06     Dn4 
	BYTE		N06     Fn4 
	BYTE	W03
	BYTE		PAN     c_v+36
	BYTE	W03
	BYTE		        c_v+47
	BYTE		N06     As3 
	BYTE		N06     Dn4 
	BYTE	W03
	BYTE		PAN     c_v+55
	BYTE	W03
	BYTE		        c_v+61
	BYTE		N06     Fn3 
	BYTE		N06     As3 
	BYTE	W03
	BYTE		PAN     c_v+63
	BYTE	W03
	BYTE		N06     Dn3 
	BYTE		N06     Fn3 
	BYTE	W06
	BYTE		PAN     c_v+61
	BYTE		N06   
	BYTE		N06     As3 
	BYTE	W03
	BYTE		PAN     c_v+55
	BYTE	W03
	BYTE		        c_v+47
	BYTE		N06     Cn4 
	BYTE		N06     Ds4 
	BYTE	W03
	BYTE		PAN     c_v+36
	BYTE	W03
	BYTE		        c_v+26
	BYTE		N06     Dn4 
	BYTE		N06     Fn4 
	BYTE	W03
	BYTE		PAN     c_v+13
	BYTE	W03
	BYTE		        c_v+1
	BYTE		N06   
	BYTE		N06     As4 
	BYTE	W03
	BYTE		PAN     c_v-12
	BYTE	W03
	BYTE		        c_v-25
	BYTE		N06     Dn4 
	BYTE		N06     Fn4 
	BYTE	W03
	BYTE		PAN     c_v-36
	BYTE	W03
	BYTE		        c_v-47
	BYTE		N06     Cn4 
	BYTE		N06     Ds4 
	BYTE	W03
	BYTE		PAN     c_v-55
	BYTE	W03
	BYTE		        c_v-61
	BYTE		N06     Fn3 
	BYTE		N06     As3 
	BYTE	W03
	BYTE		PAN     c_v-64
	BYTE	W03
// 045   ----------------------------------------
	BYTE	W96
// 046   ----------------------------------------
	BYTE	W96
// 047   ----------------------------------------
	BYTE	W96
// 048   ----------------------------------------
	BYTE	W96
// 049   ----------------------------------------
	BYTE	W96
// 050   ----------------------------------------
	BYTE	W96
// 051   ----------------------------------------
	BYTE	W96
// 052   ----------------------------------------
	BYTE	W96
// 053   ----------------------------------------
	BYTE	W96
// 054   ----------------------------------------
	BYTE	W96
// 055   ----------------------------------------
	BYTE	W96
// 056   ----------------------------------------
	BYTE	W96
// 057   ----------------------------------------
	BYTE	W96
// 058   ----------------------------------------
	BYTE	W96
// 059   ----------------------------------------
	BYTE	W96
// 060   ----------------------------------------
	BYTE	W92
	BYTE	W03
	BYTE	GoTo
	 POIN2	exceedinglynear000_5_B1
exceedinglynear000_5_B2:
	BYTE	FINE

//**************** Track 6 (Midi-Chn.11) ****************//

exceedinglynear000_6:
	BYTE	KEYSH   exceedinglynear000_key+0
// 000   ----------------------------------------
	BYTE		VOICE   63
	BYTE		VOL     50*exceedinglynear000_mvl/mxv
	BYTE		MOD     0
	BYTE	W01
	BYTE	W03
	BYTE		PAN     c_v+0
	BYTE	W01
	BYTE		BEND    c_v+0
	BYTE	W01
	BYTE	W30
	BYTE		N12     Gn3   v096
	BYTE	W12
	BYTE		        Cn4 
	BYTE	W12
	BYTE		        Dn4 
	BYTE	W12
	BYTE		        Ds4 
	BYTE	W12
	BYTE		        Fn4 
	BYTE	W12
exceedinglynear000_6_B1:
// 001   ----------------------------------------
	BYTE		N36     Gn4   v096
	BYTE	W36
	BYTE		        Cn4 
	BYTE	W36
	BYTE		N06     Gn4 
	BYTE	W12
	BYTE		N72     Gs4 
	BYTE	W12
// 002   ----------------------------------------
	BYTE	W60
	BYTE		N12     Gn4 
	BYTE	W24
	BYTE		N36     Fn4 
	BYTE	W12
// 003   ----------------------------------------
	BYTE	W24
	BYTE		N12   
	BYTE	W12
	BYTE		        Dn4 
	BYTE	W24
	BYTE		        As3 
	BYTE	W24
	BYTE		N36     Gn4 
	BYTE	W12
// 004   ----------------------------------------
	BYTE	W24
	BYTE		N12     Gs4 
	BYTE	W12
	BYTE		        Gn4 
	BYTE	W24
	BYTE		        Fn4 
	BYTE	W24
	BYTE		N72     Ds4 
	BYTE	W12
// 005   ----------------------------------------
	BYTE	W60
	BYTE		N12     Dn4 
	BYTE	W24
	BYTE		N60     Cn4 
	BYTE	W12
// 006   ----------------------------------------
	BYTE	W48
	BYTE		N24   
	BYTE	W24
	BYTE		N12     Ds4 
	BYTE	W24
// 007   ----------------------------------------
	BYTE		N36   
	BYTE	W36
	BYTE		N60     Dn4 
	BYTE	W60
// 008   ----------------------------------------
	BYTE	W12
	BYTE		N12     As2   v127
	BYTE		N12     Dn3 
	BYTE	W12
	BYTE		N12   
	BYTE		N12     Fn3 
	BYTE	W12
	BYTE		N12   
	BYTE		N12     As3 
	BYTE	W12
	BYTE		N12   
	BYTE		N12     Dn4 
	BYTE	W12
	BYTE		N24     Ds4   v116
	BYTE	W24
	BYTE		N12     Fn4 
	BYTE	W12
// 009   ----------------------------------------
	BYTE		N36     Gn4 
	BYTE	W36
	BYTE		        Cn4 
	BYTE	W36
	BYTE		N06     Gn4 
	BYTE	W12
	BYTE		N72     Gs4 
	BYTE	W12
// 010   ----------------------------------------
	BYTE	W60
	BYTE		N12     Gn4 
	BYTE	W24
	BYTE		N36     Fn4 
	BYTE	W12
// 011   ----------------------------------------
	BYTE	W24
	BYTE		N12   
	BYTE	W12
	BYTE		        Dn4 
	BYTE	W24
	BYTE		        As3 
	BYTE	W24
	BYTE		N36     Gn4 
	BYTE	W12
// 012   ----------------------------------------
	BYTE	W24
	BYTE		N12     Gs4 
	BYTE	W12
	BYTE		        Gn4 
	BYTE	W24
	BYTE		        Fn4 
	BYTE	W24
	BYTE		N72     Ds4 
	BYTE	W12
// 013   ----------------------------------------
	BYTE	W60
	BYTE		N12     Dn4 
	BYTE	W24
	BYTE		N60     Cn4 
	BYTE	W12
// 014   ----------------------------------------
	BYTE	W48
	BYTE		N24   
	BYTE	W24
	BYTE		N12     Ds4 
	BYTE	W24
// 015   ----------------------------------------
	BYTE		N36   
	BYTE	W36
	BYTE		TIE     Fn4 
	BYTE	W60
// 016   ----------------------------------------
	BYTE	W44
	BYTE	W01
	BYTE		EOT   
	BYTE	W48
	BYTE	W03
// 017   ----------------------------------------
	BYTE	W96
// 018   ----------------------------------------
	BYTE	W96
// 019   ----------------------------------------
	BYTE	W96
// 020   ----------------------------------------
	BYTE	W96
// 021   ----------------------------------------
	BYTE	W96
// 022   ----------------------------------------
	BYTE	W96
// 023   ----------------------------------------
	BYTE	W96
// 024   ----------------------------------------
	BYTE	W96
// 025   ----------------------------------------
exceedinglynear000_6_025:
	BYTE	W30
	BYTE		N06     Fn4   v100
	BYTE	W03
	BYTE		        Fs4   v096
	BYTE	W03
	BYTE		N36     Gn0 
	BYTE		N19     Cn4   v104
	BYTE		N19     Ds4 
	BYTE		N19     Gn4   v116
	BYTE	W18
	BYTE		N03     Fs4   v092
	BYTE	W42
	BYTE	PEND
// 026   ----------------------------------------
	BYTE	PATT
	 POIN2	exceedinglynear000_6_025
// 027   ----------------------------------------
	BYTE	W96
// 028   ----------------------------------------
	BYTE	W36
	BYTE		N12     Gn3   v088
	BYTE	W12
	BYTE		        Cn4 
	BYTE	W12
	BYTE		        Dn4 
	BYTE	W12
	BYTE		        Ds4 
	BYTE	W12
	BYTE		        Fn4 
	BYTE	W12
// 029   ----------------------------------------
exceedinglynear000_6_029:
	BYTE		N36     Gn4   v088
	BYTE	W36
	BYTE		        Cn4 
	BYTE	W36
	BYTE		N06     Gn4 
	BYTE	W12
	BYTE		N72     Gs4 
	BYTE	W12
	BYTE	PEND
// 030   ----------------------------------------
exceedinglynear000_6_030:
	BYTE	W60
	BYTE		N12     Gn4   v088
	BYTE	W24
	BYTE		N36     Fn4 
	BYTE	W12
	BYTE	PEND
// 031   ----------------------------------------
exceedinglynear000_6_031:
	BYTE	W24
	BYTE		N12     Fn4   v088
	BYTE	W12
	BYTE		        Dn4 
	BYTE	W24
	BYTE		        As3 
	BYTE	W24
	BYTE		N36     Gn4 
	BYTE	W12
	BYTE	PEND
// 032   ----------------------------------------
exceedinglynear000_6_032:
	BYTE	W24
	BYTE		N12     Gs4   v088
	BYTE	W12
	BYTE		        Gn4 
	BYTE	W24
	BYTE		        Fn4 
	BYTE	W24
	BYTE		N72     Ds4 
	BYTE	W12
	BYTE	PEND
// 033   ----------------------------------------
exceedinglynear000_6_033:
	BYTE	W60
	BYTE		N12     Dn4   v088
	BYTE	W24
	BYTE		N60     Cn4 
	BYTE	W12
	BYTE	PEND
// 034   ----------------------------------------
exceedinglynear000_6_034:
	BYTE	W48
	BYTE		N24     Cn4   v088
	BYTE	W24
	BYTE		N12     Ds4 
	BYTE	W24
	BYTE	PEND
// 035   ----------------------------------------
	BYTE		N36   
	BYTE	W36
	BYTE		N60     Dn4 
	BYTE	W60
// 036   ----------------------------------------
	BYTE	W36
	BYTE		N36     Ds4 
	BYTE	W36
	BYTE		N24     Fn4 
	BYTE	W24
// 037   ----------------------------------------
	BYTE	PATT
	 POIN2	exceedinglynear000_6_029
// 038   ----------------------------------------
	BYTE	PATT
	 POIN2	exceedinglynear000_6_030
// 039   ----------------------------------------
	BYTE	PATT
	 POIN2	exceedinglynear000_6_031
// 040   ----------------------------------------
	BYTE	PATT
	 POIN2	exceedinglynear000_6_032
// 041   ----------------------------------------
	BYTE	PATT
	 POIN2	exceedinglynear000_6_033
// 042   ----------------------------------------
	BYTE	PATT
	 POIN2	exceedinglynear000_6_034
// 043   ----------------------------------------
	BYTE		N36     Ds4   v088
	BYTE	W36
	BYTE		TIE     Fn4 
	BYTE	W60
// 044   ----------------------------------------
	BYTE	W44
	BYTE	W01
	BYTE		EOT   
	BYTE	W48
	BYTE	W03
// 045   ----------------------------------------
	BYTE	W96
// 046   ----------------------------------------
	BYTE	W96
// 047   ----------------------------------------
	BYTE	W96
// 048   ----------------------------------------
	BYTE	W96
// 049   ----------------------------------------
	BYTE	W96
// 050   ----------------------------------------
	BYTE	W96
// 051   ----------------------------------------
	BYTE	W96
// 052   ----------------------------------------
	BYTE	W96
// 053   ----------------------------------------
	BYTE	W96
// 054   ----------------------------------------
	BYTE	W96
// 055   ----------------------------------------
	BYTE	W96
// 056   ----------------------------------------
	BYTE	W96
// 057   ----------------------------------------
	BYTE	W96
// 058   ----------------------------------------
	BYTE	W96
// 059   ----------------------------------------
	BYTE		N06     Gn2   v124
	BYTE		N06     Gn3 
	BYTE	W12
	BYTE		N12     Gn2   v116
	BYTE		N12     Gn3 
	BYTE	W12
	BYTE		        Gs2   v124
	BYTE		N12     Gs3 
	BYTE	W12
	BYTE		        Gn2   v100
	BYTE		N12     Gn3 
	BYTE	W12
	BYTE		        Bn2   v104
	BYTE		N12     Bn3 
	BYTE	W12
	BYTE		        Gn2   v120
	BYTE		N12     Gn3 
	BYTE	W12
	BYTE		        Dn3   v108
	BYTE		N12     Dn4   v104
	BYTE	W12
	BYTE		        Gn2 
	BYTE		N12     Gn3   v088
	BYTE	W12
// 060   ----------------------------------------
	BYTE		        Gn0   v108
	BYTE		N10     Bn3   v116
	BYTE		N10     Dn4   v104
	BYTE		N10     Gn4   v100
	BYTE	W12
	BYTE		N12     Gn0   v108
	BYTE		N10     Bn3 
	BYTE		N10     Dn4   v112
	BYTE		N10     Gn4   v104
	BYTE	W12
	BYTE		N54     Gn0   v108
	BYTE		N12     Bn3   v116
	BYTE		N12     Dn4   v104
	BYTE		N12     Gn4   v108
	BYTE	W12
	BYTE		        Gn3   v088
	BYTE		N03     Fn4   v108
	BYTE	W01
	BYTE		        Ds4 
	BYTE	W02
	BYTE		        Dn4 
	BYTE	W01
	BYTE		        Cn4 
	BYTE	W02
	BYTE		        As3 
	BYTE	W01
	BYTE		        An3 
	BYTE	W05
	BYTE		N13     Cn4   v088
	BYTE	W12
	BYTE		N12     Dn4 
	BYTE	W12
	BYTE		        Ds4 
	BYTE	W12
	BYTE		N11     Fn4 
	BYTE	W11
	BYTE	GoTo
	 POIN2	exceedinglynear000_6_B1
exceedinglynear000_6_B2:
	BYTE	FINE

//**************** Track 7 (Midi-Chn.12) ****************//

exceedinglynear000_7:
	BYTE	KEYSH   exceedinglynear000_key+0
// 000   ----------------------------------------
	BYTE		VOICE   30
	BYTE		VOL     57*exceedinglynear000_mvl/mxv
	BYTE		MOD     0
	BYTE	W01
	BYTE	W03
	BYTE		PAN     c_v+0
	BYTE	W01
	BYTE		BEND    c_v+0
	BYTE	W01
	BYTE	W90
exceedinglynear000_7_B1:
// 001   ----------------------------------------
	BYTE	W96
// 002   ----------------------------------------
	BYTE	W96
// 003   ----------------------------------------
	BYTE	W96
// 004   ----------------------------------------
	BYTE	W96
// 005   ----------------------------------------
	BYTE	W96
// 006   ----------------------------------------
	BYTE	W96
// 007   ----------------------------------------
	BYTE	W96
// 008   ----------------------------------------
	BYTE	W12
	BYTE		N12     DnM1  v048
	BYTE	W01
	BYTE		        Dn1 
	BYTE	W11
	BYTE		        FnM1
	BYTE	W01
	BYTE		        Fn1 
	BYTE	W11
	BYTE		        AsM1
	BYTE	W01
	BYTE		        As1 
	BYTE	W11
	BYTE		N36     Dn0 
	BYTE	W01
	BYTE		        Dn2 
	BYTE	W44
	BYTE	W03
// 009   ----------------------------------------
	BYTE	W96
// 010   ----------------------------------------
	BYTE	W96
// 011   ----------------------------------------
	BYTE	W96
// 012   ----------------------------------------
	BYTE	W96
// 013   ----------------------------------------
	BYTE	W96
// 014   ----------------------------------------
exceedinglynear000_7_014:
	BYTE		MOD     0
	BYTE	W01
	BYTE	W03
	BYTE		PAN     c_v+0
	BYTE	W01
	BYTE		BEND    c_v+0
	BYTE	W01
	BYTE	W90
	BYTE	PEND
// 015   ----------------------------------------
	BYTE	W96
// 016   ----------------------------------------
	BYTE		N06     As2   v124
	BYTE	W06
	BYTE		        Cn3 
	BYTE	W06
	BYTE		        Dn3 
	BYTE	W06
	BYTE		        Fn3 
	BYTE	W06
	BYTE		        As3 
	BYTE	W06
	BYTE		        Dn4 
	BYTE	W06
	BYTE		        Fn4 
	BYTE	W06
	BYTE		        As4 
	BYTE	W06
	BYTE		        Dn5 
	BYTE	W06
	BYTE		        As4 
	BYTE	W06
	BYTE		        Fn4 
	BYTE	W06
	BYTE		        Dn4 
	BYTE	W06
	BYTE		        As3 
	BYTE	W06
	BYTE		        Fn3 
	BYTE	W06
	BYTE		        Dn3 
	BYTE	W06
	BYTE		        As2 
	BYTE	W06
// 017   ----------------------------------------
	BYTE	PATT
	 POIN2	exceedinglynear000_7_014
// 018   ----------------------------------------
	BYTE	W96
// 019   ----------------------------------------
	BYTE	W96
// 020   ----------------------------------------
	BYTE	W96
// 021   ----------------------------------------
	BYTE	W96
// 022   ----------------------------------------
	BYTE	W96
// 023   ----------------------------------------
	BYTE	W96
// 024   ----------------------------------------
	BYTE	W96
// 025   ----------------------------------------
exceedinglynear000_7_025:
	BYTE	W36
	BYTE		N24     GnM1  v127
	BYTE	W01
	BYTE		        Gn1 
	BYTE	W56
	BYTE	W03
	BYTE	PEND
// 026   ----------------------------------------
	BYTE	PATT
	 POIN2	exceedinglynear000_7_025
// 027   ----------------------------------------
	BYTE		N12     Dn0   v127
	BYTE	W01
	BYTE		        Dn2 
	BYTE	W11
	BYTE		        GnM1  v104
	BYTE	W01
	BYTE		        Gn1 
	BYTE	W11
	BYTE		        GnM1
	BYTE	W01
	BYTE		        Gn1 
	BYTE	W11
	BYTE		        Dn0   v127
	BYTE	W01
	BYTE		        Dn2 
	BYTE	W11
	BYTE		        GnM1  v104
	BYTE	W01
	BYTE		        Gn1 
	BYTE	W11
	BYTE		        GnM1
	BYTE	W01
	BYTE		        Gn1 
	BYTE	W11
	BYTE		        Dn0   v127
	BYTE	W01
	BYTE		        Dn2 
	BYTE	W11
	BYTE		        GnM1  v104
	BYTE	W01
	BYTE		        Gn1 
	BYTE	W11
// 028   ----------------------------------------
	BYTE		N06     GnM1  v127
	BYTE	W01
	BYTE		        Gn1 
	BYTE	W05
	BYTE		        AnM1
	BYTE	W01
	BYTE		        An1 
	BYTE	W05
	BYTE		        BnM1
	BYTE	W01
	BYTE		        Bn1 
	BYTE	W05
	BYTE		        Cn0 
	BYTE	W01
	BYTE		        Cn2 
	BYTE	W05
	BYTE		N24     Dn0 
	BYTE	W01
	BYTE		        Dn2 
	BYTE	W68
	BYTE	W03
// 029   ----------------------------------------
	BYTE	W96
// 030   ----------------------------------------
	BYTE	W96
// 031   ----------------------------------------
	BYTE	W96
// 032   ----------------------------------------
	BYTE	W96
// 033   ----------------------------------------
	BYTE	W96
// 034   ----------------------------------------
	BYTE	W96
// 035   ----------------------------------------
	BYTE	W96
// 036   ----------------------------------------
	BYTE	W15
	BYTE		N16     AsM1  v116
	BYTE	W01
	BYTE		        As1 
	BYTE	W15
	BYTE		        FnM1  v120
	BYTE	W01
	BYTE		        Fn1 
	BYTE	W15
	BYTE		        AsM1  v127
	BYTE	W01
	BYTE		        As1 
	BYTE	W48
// 037   ----------------------------------------
	BYTE	W96
// 038   ----------------------------------------
	BYTE	W96
// 039   ----------------------------------------
	BYTE	W96
// 040   ----------------------------------------
	BYTE	W96
// 041   ----------------------------------------
	BYTE	W96
// 042   ----------------------------------------
	BYTE	W96
// 043   ----------------------------------------
	BYTE	W96
// 044   ----------------------------------------
	BYTE	W96
// 045   ----------------------------------------
	BYTE	W96
// 046   ----------------------------------------
	BYTE	W96
// 047   ----------------------------------------
	BYTE	W96
// 048   ----------------------------------------
exceedinglynear000_7_048:
	BYTE		N12     Cn3   v080
	BYTE		N12     Cn4 
	BYTE	W12
	BYTE		        Cn3   v064
	BYTE		N12     Ds3   v127
	BYTE		N12     Cn4   v064
	BYTE	W12
	BYTE		        Cn3   v044
	BYTE		N12     Ds3   v127
	BYTE		N12     Cn4   v044
	BYTE	W12
	BYTE		        Cn3   v036
	BYTE		N12     Fn3   v127
	BYTE		N12     Cn4   v036
	BYTE	W12
	BYTE		        Cn3   v080
	BYTE		N12     Gn3   v127
	BYTE		N12     Cn4   v080
	BYTE	W12
	BYTE		        Cn3   v064
	BYTE		N12     Gs3   v127
	BYTE		N12     Cn4   v064
	BYTE	W12
	BYTE		        Cn3   v044
	BYTE		N12     Fn3   v127
	BYTE		N12     Cn4   v044
	BYTE	W12
	BYTE		        Cn3   v036
	BYTE		N12     Gn3   v127
	BYTE		N12     Cn4   v036
	BYTE	W12
	BYTE	PEND
// 049   ----------------------------------------
exceedinglynear000_7_049:
	BYTE		N12     Cn3   v108
	BYTE		N12     Cn4 
	BYTE	W12
	BYTE		        Cn3   v064
	BYTE		N12     Cn4 
	BYTE	W84
	BYTE	PEND
// 050   ----------------------------------------
	BYTE	W96
// 051   ----------------------------------------
	BYTE	W96
// 052   ----------------------------------------
	BYTE		N48     Ds3   v104
	BYTE		N48     Cn4 
	BYTE		N48     Ds4   v100
	BYTE	W48
	BYTE		N16     Dn3   v104
	BYTE		N16     As3   v096
	BYTE		N16     Dn4 
	BYTE	W16
	BYTE		        Ds3 
	BYTE		N16     Cn4   v100
	BYTE		N16     Ds4   v092
	BYTE	W16
	BYTE		        Fn3   v108
	BYTE		N16     Dn4 
	BYTE		N16     Fn4   v104
	BYTE	W16
// 053   ----------------------------------------
	BYTE		N12     Cn3   v116
	BYTE		N12     Cn4 
	BYTE	W12
	BYTE		        Cn3   v064
	BYTE		N12     Cn4 
	BYTE	W84
// 054   ----------------------------------------
	BYTE	W96
// 055   ----------------------------------------
	BYTE	W96
// 056   ----------------------------------------
	BYTE	PATT
	 POIN2	exceedinglynear000_7_048
// 057   ----------------------------------------
	BYTE	PATT
	 POIN2	exceedinglynear000_7_049
// 058   ----------------------------------------
	BYTE	W96
// 059   ----------------------------------------
	BYTE	W96
// 060   ----------------------------------------
	BYTE		N12     GnM1  v116
	BYTE	W01
	BYTE		N11     Gn1 
	BYTE	W11
	BYTE		N12     GnM1
	BYTE	W01
	BYTE		N11     Gn1 
	BYTE	W11
	BYTE		N12     GnM1
	BYTE	W01
	BYTE		N11     Gn1 
	BYTE	W68
	BYTE	W02
	BYTE	GoTo
	 POIN2	exceedinglynear000_7_B1
exceedinglynear000_7_B2:
	BYTE	FINE

//******************************************************//
	ALIGN 4

exceedinglynear000:
	BYTE	7	// NumTrks
	BYTE	0	// NumBlks
	BYTE	exceedinglynear000_pri	// Priority
	BYTE	exceedinglynear000_rev	// Reverb.

	POIN2	exceedinglynear000_grp

	POIN2	exceedinglynear000_1
	POIN2	exceedinglynear000_2
	POIN2	exceedinglynear000_3
	POIN2	exceedinglynear000_4
	POIN2	exceedinglynear000_5
	POIN2	exceedinglynear000_6
	POIN2	exceedinglynear000_7

	
