//Event file generated from Sappy .s format.
        #include "MPlayDef.event"

        #define    extend_ash_hourai_victim_000_grp  voicegroup000
        #define    extend_ash_hourai_victim_000_pri  0
        #define    extend_ash_hourai_victim_000_rev  0
        #define    extend_ash_hourai_victim_000_key  0

        // .rodata
        // extend_ash_hourai_victim_000
        ALIGN 4

//****************** Track 0 (Midi-Chn.0) ******************//

extend_ash_hourai_victim_000_0:
        BYTE   KEYSH   extend_ash_hourai_victim_000_key+0
// 000   ----------------------------------------
        BYTE   TEMPO   156/2
extend_ash_hourai_victim_000_0_LOOP:
        BYTE           VOICE   53
        BYTE           VOL     52
        BYTE           BENDR   12
        BYTE   W96
// 001   ----------------------------------------
        BYTE   W96
// 002   ----------------------------------------
        BYTE   W96
// 003   ----------------------------------------
        BYTE   W96
// 004   ----------------------------------------
        BYTE   W96
// 005   ----------------------------------------
        BYTE   W96
// 006   ----------------------------------------
        BYTE   W96
// 007   ----------------------------------------
        BYTE   W96
// 008   ----------------------------------------
        BYTE   W96
// 009   ----------------------------------------
        BYTE   W96
// 010   ----------------------------------------
        BYTE   W96
// 011   ----------------------------------------
        BYTE   W96
// 012   ----------------------------------------
extend_ash_hourai_victim_000_0_12:
        BYTE           N12     Dn3   v100
        BYTE   W12
        BYTE                   Gn2
        BYTE   W12
        BYTE                   Cn3
        BYTE   W12
        BYTE                   Dn3
        BYTE   W12
        BYTE                   As2
        BYTE   W12
        BYTE           N24     An2
        BYTE   W24
        BYTE                   Dn3
        BYTE   W12
        BYTE   PEND
// 013   ----------------------------------------
extend_ash_hourai_victim_000_0_13:
        BYTE   W12
        BYTE           N12     Gn2   v100
        BYTE   W12
        BYTE                   Cn3
        BYTE   W12
        BYTE                   Dn3
        BYTE   W12
        BYTE                   As2
        BYTE   W12
        BYTE           N24     An2
        BYTE   W24
        BYTE           N12     Fn2
        BYTE   W12
        BYTE   PEND
// 014   ----------------------------------------
extend_ash_hourai_victim_000_0_14:
        BYTE           N12     Gn2   v100
        BYTE   W12
        BYTE                   Dn2
        BYTE   W12
        BYTE                   An2
        BYTE   W12
        BYTE                   As2
        BYTE   W12
        BYTE                   An2
        BYTE   W12
        BYTE           N24     Fn2
        BYTE   W24
        BYTE           N12     Cn2
        BYTE   W12
        BYTE   PEND
// 015   ----------------------------------------
extend_ash_hourai_victim_000_0_15:
        BYTE           N12     Fs2   v100
        BYTE   W12
        BYTE                   Gn2
        BYTE   W12
        BYTE                   An2
        BYTE   W12
        BYTE                   Dn3
        BYTE   W12
        BYTE                   An2
        BYTE   W12
        BYTE                   Gn2
        BYTE   W12
        BYTE           N24     Fs2
        BYTE   W24
        BYTE   PEND
// 016   ----------------------------------------
extend_ash_hourai_victim_000_0_16:
        BYTE           N12     Dn3   v100
        BYTE   W12
        BYTE                   Gn2
        BYTE   W12
        BYTE                   Cn3
        BYTE   W12
        BYTE                   Dn3
        BYTE   W12
        BYTE                   As2
        BYTE   W12
        BYTE           N24     An2
        BYTE   W24
        BYTE           N36     Gn3
        BYTE   W12
        BYTE   PEND
// 017   ----------------------------------------
extend_ash_hourai_victim_000_0_17:
        BYTE   W24
        BYTE           N12     An3   v100
        BYTE   W12
        BYTE           N60     As3
        BYTE   W60
        BYTE   PEND
// 018   ----------------------------------------
extend_ash_hourai_victim_000_0_18:
        BYTE   W12
        BYTE           N12     Dn2   v100
        BYTE   W12
        BYTE                   Gn2
        BYTE   W12
        BYTE                   An2
        BYTE   W12
        BYTE           N48     As2
        BYTE   W48
        BYTE   PEND
// 019   ----------------------------------------
        BYTE           N96     An2
        BYTE   W96
// 020   ----------------------------------------
        BYTE   PATT
         POIN2  extend_ash_hourai_victim_000_0_12
// 021   ----------------------------------------
        BYTE   PATT
         POIN2  extend_ash_hourai_victim_000_0_13
// 022   ----------------------------------------
        BYTE   PATT
         POIN2  extend_ash_hourai_victim_000_0_14
// 023   ----------------------------------------
        BYTE   PATT
         POIN2  extend_ash_hourai_victim_000_0_15
// 024   ----------------------------------------
        BYTE   PATT
         POIN2  extend_ash_hourai_victim_000_0_16
// 025   ----------------------------------------
        BYTE   PATT
         POIN2  extend_ash_hourai_victim_000_0_17
// 026   ----------------------------------------
extend_ash_hourai_victim_000_0_26:
        BYTE   W12
        BYTE           N12     An3   v100
        BYTE   W12
        BYTE                   As3
        BYTE   W12
        BYTE           N60     Cn4
        BYTE   W60
        BYTE   PEND
// 027   ----------------------------------------
        BYTE           N96     Fs3
        BYTE   W96
// 028   ----------------------------------------
        BYTE           TIE     Gn3
        BYTE   W96
// 029   ----------------------------------------
        BYTE   W96
// 030   ----------------------------------------
        BYTE   W96
// 031   ----------------------------------------
        BYTE   W84
        BYTE           EOT
        BYTE   W12
// 032   ----------------------------------------
        BYTE   W96
// 033   ----------------------------------------
        BYTE   W96
// 034   ----------------------------------------
        BYTE   W96
// 035   ----------------------------------------
        BYTE   W96
// 036   ----------------------------------------
        BYTE   PATT
         POIN2  extend_ash_hourai_victim_000_0_12
// 037   ----------------------------------------
        BYTE   PATT
         POIN2  extend_ash_hourai_victim_000_0_13
// 038   ----------------------------------------
        BYTE   PATT
         POIN2  extend_ash_hourai_victim_000_0_14
// 039   ----------------------------------------
        BYTE   PATT
         POIN2  extend_ash_hourai_victim_000_0_15
// 040   ----------------------------------------
        BYTE   PATT
         POIN2  extend_ash_hourai_victim_000_0_16
// 041   ----------------------------------------
        BYTE   PATT
         POIN2  extend_ash_hourai_victim_000_0_17
// 042   ----------------------------------------
        BYTE   PATT
         POIN2  extend_ash_hourai_victim_000_0_18
// 043   ----------------------------------------
        BYTE           N96     An2   v100
        BYTE   W96
// 044   ----------------------------------------
        BYTE   PATT
         POIN2  extend_ash_hourai_victim_000_0_12
// 045   ----------------------------------------
        BYTE   PATT
         POIN2  extend_ash_hourai_victim_000_0_13
// 046   ----------------------------------------
        BYTE   PATT
         POIN2  extend_ash_hourai_victim_000_0_14
// 047   ----------------------------------------
        BYTE   PATT
         POIN2  extend_ash_hourai_victim_000_0_15
// 048   ----------------------------------------
        BYTE   PATT
         POIN2  extend_ash_hourai_victim_000_0_16
// 049   ----------------------------------------
        BYTE   PATT
         POIN2  extend_ash_hourai_victim_000_0_17
// 050   ----------------------------------------
        BYTE   PATT
         POIN2  extend_ash_hourai_victim_000_0_26
// 051   ----------------------------------------
        BYTE           N96     Fs3   v100
        BYTE   W96
// 052   ----------------------------------------
        BYTE           TIE     Gn3
        BYTE   W96
// 053   ----------------------------------------
        BYTE   W96
// 054   ----------------------------------------
        BYTE   W96
// 055   ----------------------------------------
        BYTE   W84
        BYTE           EOT
        BYTE   W12
// 056   ----------------------------------------
        BYTE   W96
// 057   ----------------------------------------
        BYTE   W96
// 058   ----------------------------------------
        BYTE   W96
// 059   ----------------------------------------
        BYTE   W96
// 060   ----------------------------------------
        BYTE   W96
// 061   ----------------------------------------
        BYTE   W96
// 062   ----------------------------------------
        BYTE   W96
// 063   ----------------------------------------
        BYTE   W96
// 064   ----------------------------------------
        BYTE   W96
// 065   ----------------------------------------
        BYTE   W96
// 066   ----------------------------------------
        BYTE   W96
// 067   ----------------------------------------
        BYTE   W96
// 068   ----------------------------------------
        BYTE   W96
// 069   ----------------------------------------
        BYTE   W96
// 070   ----------------------------------------
        BYTE   W96
// 071   ----------------------------------------
        BYTE   W96
// 072   ----------------------------------------
        BYTE   W96
// 073   ----------------------------------------
        BYTE   W96
// 074   ----------------------------------------
        BYTE   W96
// 075   ----------------------------------------
        BYTE   W96
// 076   ----------------------------------------
        BYTE   W96
// 077   ----------------------------------------
        BYTE   W96
// 078   ----------------------------------------
        BYTE   W96
// 079   ----------------------------------------
        BYTE   W96
// 080   ----------------------------------------
        BYTE   W96
// 081   ----------------------------------------
        BYTE   W96
// 082   ----------------------------------------
        BYTE   W96
// 083   ----------------------------------------
        BYTE   W96
// 084   ----------------------------------------
extend_ash_hourai_victim_000_0_84:
        BYTE           N48     En2   v100
        BYTE   W48
        BYTE                   Bn2
        BYTE   W48
        BYTE   PEND
// 085   ----------------------------------------
extend_ash_hourai_victim_000_0_85:
        BYTE           N48     An2   v100
        BYTE   W48
        BYTE                   Dn3
        BYTE   W48
        BYTE   PEND
// 086   ----------------------------------------
extend_ash_hourai_victim_000_0_86:
        BYTE           N36     Bn2   v100
        BYTE   W36
        BYTE                   Ds3
        BYTE   W36
        BYTE           N24     Fs3
        BYTE   W24
        BYTE   PEND
// 087   ----------------------------------------
extend_ash_hourai_victim_000_0_87:
        BYTE           N36     Fs3   v100
        BYTE   W36
        BYTE           N12     En3
        BYTE   W12
        BYTE           N48     Bn2
        BYTE   W48
        BYTE   PEND
// 088   ----------------------------------------
        BYTE   PATT
         POIN2  extend_ash_hourai_victim_000_0_84
// 089   ----------------------------------------
        BYTE   PATT
         POIN2  extend_ash_hourai_victim_000_0_85
// 090   ----------------------------------------
extend_ash_hourai_victim_000_0_90:
        BYTE           N36     Ds3   v100
        BYTE   W36
        BYTE                   Fs3
        BYTE   W36
        BYTE           N24     An3
        BYTE   W24
        BYTE   PEND
// 091   ----------------------------------------
extend_ash_hourai_victim_000_0_91:
        BYTE           N36     An3   v100
        BYTE   W36
        BYTE           N12     Bn3
        BYTE   W12
        BYTE           N48     Gn3
        BYTE   W48
        BYTE   PEND
// 092   ----------------------------------------
        BYTE   PATT
         POIN2  extend_ash_hourai_victim_000_0_84
// 093   ----------------------------------------
        BYTE   PATT
         POIN2  extend_ash_hourai_victim_000_0_85
// 094   ----------------------------------------
        BYTE   PATT
         POIN2  extend_ash_hourai_victim_000_0_86
// 095   ----------------------------------------
        BYTE   PATT
         POIN2  extend_ash_hourai_victim_000_0_87
// 096   ----------------------------------------
        BYTE   PATT
         POIN2  extend_ash_hourai_victim_000_0_84
// 097   ----------------------------------------
        BYTE   PATT
         POIN2  extend_ash_hourai_victim_000_0_85
// 098   ----------------------------------------
        BYTE   PATT
         POIN2  extend_ash_hourai_victim_000_0_90
// 099   ----------------------------------------
        BYTE   PATT
         POIN2  extend_ash_hourai_victim_000_0_91
// 100   ----------------------------------------
        BYTE   W96
// 101   ----------------------------------------
        BYTE   W96
// 102   ----------------------------------------
        BYTE   W96
// 103   ----------------------------------------
        BYTE   W96
// 104   ----------------------------------------
        BYTE   W96
// 105   ----------------------------------------
        BYTE   W96
// 106   ----------------------------------------
        BYTE   W96
// 107   ----------------------------------------
        BYTE   W96
// 108   ----------------------------------------
        BYTE   W96
// 109   ----------------------------------------
        BYTE   W96
// 110   ----------------------------------------
        BYTE   W96
// 111   ----------------------------------------
        BYTE   W96
// 112   ----------------------------------------
        BYTE   PATT
         POIN2  extend_ash_hourai_victim_000_0_12
// 113   ----------------------------------------
        BYTE   PATT
         POIN2  extend_ash_hourai_victim_000_0_13
// 114   ----------------------------------------
        BYTE   PATT
         POIN2  extend_ash_hourai_victim_000_0_14
// 115   ----------------------------------------
        BYTE   PATT
         POIN2  extend_ash_hourai_victim_000_0_15
// 116   ----------------------------------------
        BYTE   PATT
         POIN2  extend_ash_hourai_victim_000_0_16
// 117   ----------------------------------------
        BYTE   PATT
         POIN2  extend_ash_hourai_victim_000_0_17
// 118   ----------------------------------------
        BYTE   PATT
         POIN2  extend_ash_hourai_victim_000_0_18
// 119   ----------------------------------------
        BYTE           N96     An2   v100
        BYTE   W96
// 120   ----------------------------------------
        BYTE   PATT
         POIN2  extend_ash_hourai_victim_000_0_12
// 121   ----------------------------------------
        BYTE   PATT
         POIN2  extend_ash_hourai_victim_000_0_13
// 122   ----------------------------------------
        BYTE   PATT
         POIN2  extend_ash_hourai_victim_000_0_14
// 123   ----------------------------------------
        BYTE   PATT
         POIN2  extend_ash_hourai_victim_000_0_15
// 124   ----------------------------------------
        BYTE   PATT
         POIN2  extend_ash_hourai_victim_000_0_16
// 125   ----------------------------------------
        BYTE   PATT
         POIN2  extend_ash_hourai_victim_000_0_17
// 126   ----------------------------------------
        BYTE   PATT
         POIN2  extend_ash_hourai_victim_000_0_26
// 127   ----------------------------------------
        BYTE           N96     Fs3   v100
        BYTE   W96
// 128   ----------------------------------------
        BYTE           TIE     Gn3
        BYTE   W96
// 129   ----------------------------------------
        BYTE   W96
// 130   ----------------------------------------
        BYTE   W96
// 131   ----------------------------------------
        BYTE   W84
        BYTE           EOT
        BYTE   W12
// 132   ----------------------------------------
        BYTE   W96
// 133   ----------------------------------------
        BYTE   W96
// 134   ----------------------------------------
        BYTE   W96
// 135   ----------------------------------------
        BYTE   W96
// 136   ----------------------------------------
        BYTE   PATT
         POIN2  extend_ash_hourai_victim_000_0_12
// 137   ----------------------------------------
        BYTE   PATT
         POIN2  extend_ash_hourai_victim_000_0_13
// 138   ----------------------------------------
        BYTE   PATT
         POIN2  extend_ash_hourai_victim_000_0_14
// 139   ----------------------------------------
        BYTE   PATT
         POIN2  extend_ash_hourai_victim_000_0_15
// 140   ----------------------------------------
        BYTE   PATT
         POIN2  extend_ash_hourai_victim_000_0_16
// 141   ----------------------------------------
        BYTE   PATT
         POIN2  extend_ash_hourai_victim_000_0_17
// 142   ----------------------------------------
        BYTE   PATT
         POIN2  extend_ash_hourai_victim_000_0_18
// 143   ----------------------------------------
        BYTE           N96     An2   v100
        BYTE   W96
// 144   ----------------------------------------
        BYTE   PATT
         POIN2  extend_ash_hourai_victim_000_0_12
// 145   ----------------------------------------
        BYTE   PATT
         POIN2  extend_ash_hourai_victim_000_0_13
// 146   ----------------------------------------
        BYTE   PATT
         POIN2  extend_ash_hourai_victim_000_0_14
// 147   ----------------------------------------
        BYTE   PATT
         POIN2  extend_ash_hourai_victim_000_0_15
// 148   ----------------------------------------
        BYTE   PATT
         POIN2  extend_ash_hourai_victim_000_0_16
// 149   ----------------------------------------
        BYTE   PATT
         POIN2  extend_ash_hourai_victim_000_0_17
// 150   ----------------------------------------
        BYTE   PATT
         POIN2  extend_ash_hourai_victim_000_0_26
// 151   ----------------------------------------
        BYTE           N96     Fs3   v100
        BYTE   W96
// 152   ----------------------------------------
        BYTE           TIE     Gn3
        BYTE   W96
// 153   ----------------------------------------
        BYTE   W96
// 154   ----------------------------------------
        BYTE   W96
// 155   ----------------------------------------
        BYTE   W84
        BYTE           EOT
        BYTE   W12
// 156   ----------------------------------------
        BYTE   W96
// 157   ----------------------------------------
        BYTE   W96
// 158   ----------------------------------------
        BYTE   W96
// 159   ----------------------------------------
        BYTE   W96
// 160   ----------------------------------------
        BYTE   W96
// 161   ----------------------------------------
        BYTE   W96
// 162   ----------------------------------------
        BYTE   W96
// 163   ----------------------------------------
        BYTE   W96
// 164   ----------------------------------------
        BYTE   W96
// 165   ----------------------------------------
        BYTE   W96
// 166   ----------------------------------------
        BYTE   W96
// 167   ----------------------------------------
        BYTE   W96
// 168   ----------------------------------------
        BYTE   W96
// 169   ----------------------------------------
        BYTE   W96
// 170   ----------------------------------------
        BYTE   W96
// 171   ----------------------------------------
        BYTE   W96
// 172   ----------------------------------------
        BYTE   W96
// 173   ----------------------------------------
        BYTE   W96
// 174   ----------------------------------------
        BYTE   W96
// 175   ----------------------------------------
        BYTE   W96
// 176   ----------------------------------------
        BYTE   W96
// 177   ----------------------------------------
        BYTE   W96
// 178   ----------------------------------------
        BYTE   W96
// 179   ----------------------------------------
        BYTE   W96
// 180   ----------------------------------------
        BYTE   W96
// 181   ----------------------------------------
        BYTE   W96
// 182   ----------------------------------------
        BYTE   W96
// 183   ----------------------------------------
        BYTE   W96
// 184   ----------------------------------------
        BYTE   PATT
         POIN2  extend_ash_hourai_victim_000_0_84
// 185   ----------------------------------------
        BYTE   PATT
         POIN2  extend_ash_hourai_victim_000_0_85
// 186   ----------------------------------------
        BYTE   PATT
         POIN2  extend_ash_hourai_victim_000_0_86
// 187   ----------------------------------------
        BYTE   PATT
         POIN2  extend_ash_hourai_victim_000_0_87
// 188   ----------------------------------------
        BYTE   PATT
         POIN2  extend_ash_hourai_victim_000_0_84
// 189   ----------------------------------------
        BYTE   PATT
         POIN2  extend_ash_hourai_victim_000_0_85
// 190   ----------------------------------------
        BYTE   PATT
         POIN2  extend_ash_hourai_victim_000_0_90
// 191   ----------------------------------------
        BYTE   PATT
         POIN2  extend_ash_hourai_victim_000_0_91
// 192   ----------------------------------------
        BYTE   PATT
         POIN2  extend_ash_hourai_victim_000_0_84
// 193   ----------------------------------------
        BYTE   PATT
         POIN2  extend_ash_hourai_victim_000_0_85
// 194   ----------------------------------------
        BYTE   PATT
         POIN2  extend_ash_hourai_victim_000_0_86
// 195   ----------------------------------------
        BYTE   PATT
         POIN2  extend_ash_hourai_victim_000_0_87
// 196   ----------------------------------------
        BYTE   PATT
         POIN2  extend_ash_hourai_victim_000_0_84
// 197   ----------------------------------------
        BYTE   PATT
         POIN2  extend_ash_hourai_victim_000_0_85
// 198   ----------------------------------------
        BYTE   PATT
         POIN2  extend_ash_hourai_victim_000_0_90
// 199   ----------------------------------------
        BYTE           N36     An3   v100
        BYTE   W36
        BYTE           N12     Bn3
        BYTE   W12
        BYTE           N48     Gn3
        BYTE   W44
        BYTE   W01
        BYTE   GoTo
         POIN2  extend_ash_hourai_victim_000_0_LOOP
        BYTE   W03
// 200   ----------------------------------------
        BYTE   FINE

//****************** Track 1 (Midi-Chn.1) ******************//

extend_ash_hourai_victim_000_1:
        BYTE   KEYSH   extend_ash_hourai_victim_000_key+0
// 000   ----------------------------------------
extend_ash_hourai_victim_000_1_LOOP:
        BYTE           VOICE   0
        BYTE           VOL     23
        BYTE           BENDR   12
        BYTE           N24     Gn2   v079
        BYTE           N24     As2   v100
        BYTE   W24
        BYTE                   An2   v079
        BYTE           N24     Cn3   v100
        BYTE   W24
        BYTE                   As2   v079
        BYTE           N24     Dn3   v100
        BYTE   W24
        BYTE           N12     An2   v079
        BYTE           N12     Cn3   v100
        BYTE   W12
        BYTE                   Gn2   v079
        BYTE           N12     As2   v100
        BYTE   W12
// 001   ----------------------------------------
extend_ash_hourai_victim_000_1_1:
        BYTE           N24     Gn2   v079
        BYTE           N24     As2   v100
        BYTE   W24
        BYTE                   An2   v079
        BYTE           N24     Cn3   v100
        BYTE   W24
        BYTE                   Dn3
        BYTE           N24     As2   v079
        BYTE   W24
        BYTE           N12     An2
        BYTE           N12     Cn3   v100
        BYTE   W12
        BYTE                   Fn2   v079
        BYTE           N12     An2   v100
        BYTE   W12
        BYTE   PEND
// 002   ----------------------------------------
extend_ash_hourai_victim_000_1_2:
        BYTE           N24     Gn2   v079
        BYTE           N24     As2   v100
        BYTE   W24
        BYTE                   An2   v079
        BYTE           N24     Cn3   v100
        BYTE   W24
        BYTE                   As2   v079
        BYTE           N24     Dn3   v100
        BYTE   W24
        BYTE           N12     An2   v079
        BYTE           N12     Cn3   v100
        BYTE   W12
        BYTE                   Gn2   v079
        BYTE           N12     As2   v100
        BYTE   W12
        BYTE   PEND
// 003   ----------------------------------------
extend_ash_hourai_victim_000_1_3:
        BYTE           N24     As2   v100
        BYTE           N24     Gn2   v079
        BYTE   W24
        BYTE           N12     An2
        BYTE           N12     Cn3   v100
        BYTE   W12
        BYTE           N24     Dn3
        BYTE           N24     As2   v079
        BYTE   W24
        BYTE           N12     An2
        BYTE           N12     Cn3   v100
        BYTE   W12
        BYTE           N24     An2
        BYTE           N24     Fn2   v079
        BYTE   W24
        BYTE   PEND
// 004   ----------------------------------------
extend_ash_hourai_victim_000_1_4:
        BYTE           N24     As2   v100
        BYTE           N24     Gn2   v079
        BYTE   W24
        BYTE                   An2
        BYTE           N24     Cn3   v100
        BYTE   W24
        BYTE                   As2   v079
        BYTE           N24     Dn3   v100
        BYTE   W24
        BYTE           N12     An2   v079
        BYTE           N12     Cn3   v100
        BYTE   W12
        BYTE                   Gn2   v079
        BYTE           N12     As2   v100
        BYTE   W12
        BYTE   PEND
// 005   ----------------------------------------
extend_ash_hourai_victim_000_1_5:
        BYTE           N24     Gn2   v079
        BYTE           N24     As2   v100
        BYTE   W24
        BYTE                   An2   v079
        BYTE           N24     Cn3   v100
        BYTE   W24
        BYTE                   As2   v079
        BYTE           N24     Dn3   v100
        BYTE   W24
        BYTE           N12     Cn3
        BYTE           N12     An2   v079
        BYTE   W12
        BYTE                   An2   v100
        BYTE           N12     Fn2   v079
        BYTE   W12
        BYTE   PEND
// 006   ----------------------------------------
extend_ash_hourai_victim_000_1_6:
        BYTE           N24     As2   v100
        BYTE           N24     Gn2   v079
        BYTE   W24
        BYTE                   Cn3   v100
        BYTE           N24     An2   v079
        BYTE   W24
        BYTE                   Dn3   v100
        BYTE           N24     As2   v079
        BYTE   W24
        BYTE           N12     An2
        BYTE           N12     Cn3   v100
        BYTE   W12
        BYTE                   Gn2   v079
        BYTE           N12     As2   v100
        BYTE   W12
        BYTE   PEND
// 007   ----------------------------------------
extend_ash_hourai_victim_000_1_7:
        BYTE           N24     Gn2   v079
        BYTE           N24     As2   v100
        BYTE   W24
        BYTE           N12     Cn3
        BYTE           N12     An2   v079
        BYTE   W12
        BYTE           N24     Dn3   v100
        BYTE           N24     As2   v079
        BYTE   W24
        BYTE           N12     Cn3   v100
        BYTE           N12     An2   v079
        BYTE   W12
        BYTE           N24     An2   v100
        BYTE           N24     Fn2   v079
        BYTE   W24
        BYTE   PEND
// 008   ----------------------------------------
extend_ash_hourai_victim_000_1_8:
        BYTE           N24     As2   v100
        BYTE           N24     Gn2   v079
        BYTE   W24
        BYTE                   An2
        BYTE           N24     Cn3   v100
        BYTE   W24
        BYTE                   Dn3
        BYTE           N24     As2   v079
        BYTE   W24
        BYTE           N12     An2
        BYTE           N12     Cn3   v100
        BYTE   W12
        BYTE                   As2
        BYTE           N12     Gn2   v079
        BYTE   W12
        BYTE   PEND
// 009   ----------------------------------------
extend_ash_hourai_victim_000_1_9:
        BYTE           N24     Gn2   v079
        BYTE           N24     As2   v100
        BYTE   W24
        BYTE                   Cn3
        BYTE           N24     An2   v079
        BYTE   W24
        BYTE                   As2
        BYTE           N24     Dn3   v100
        BYTE   W24
        BYTE           N12     Cn3
        BYTE           N12     An2   v079
        BYTE   W12
        BYTE                   Fn2
        BYTE           N12     An2   v100
        BYTE   W12
        BYTE   PEND
// 010   ----------------------------------------
        BYTE   PATT
         POIN2  extend_ash_hourai_victim_000_1_2
// 011   ----------------------------------------
extend_ash_hourai_victim_000_1_11:
        BYTE           N24     Gn2   v079
        BYTE           N24     As2   v100
        BYTE   W24
        BYTE           N12     An2   v079
        BYTE           N12     Cn3   v100
        BYTE   W12
        BYTE           N24     As2   v079
        BYTE           N24     Dn3   v100
        BYTE   W24
        BYTE           N12     An2   v079
        BYTE           N12     Cn3   v100
        BYTE   W12
        BYTE           N24     Fn2   v079
        BYTE           N24     An2   v100
        BYTE   W24
        BYTE   PEND
// 012   ----------------------------------------
        BYTE                   As2   v079
        BYTE           N24     Gn2   v064
        BYTE   W24
        BYTE                   An2
        BYTE           N24     Cn3   v079
        BYTE   W24
        BYTE                   As2   v064
        BYTE           N24     Dn3   v079
        BYTE   W24
        BYTE           N12     An2   v064
        BYTE           N12     Cn3   v079
        BYTE   W12
        BYTE                   Gn2   v064
        BYTE           N12     As2   v079
        BYTE   W12
// 013   ----------------------------------------
        BYTE           N24
        BYTE           N24     Gn2   v064
        BYTE   W24
        BYTE                   Cn3   v079
        BYTE           N24     An2   v064
        BYTE   W24
        BYTE                   As2
        BYTE           N24     Dn3   v079
        BYTE   W24
        BYTE           N12     Cn3
        BYTE           N12     An2   v064
        BYTE   W12
        BYTE                   An2   v079
        BYTE           N12     Fn2   v064
        BYTE   W12
// 014   ----------------------------------------
        BYTE           N24     An2   v079
        BYTE           N24     Fn2   v064
        BYTE   W24
        BYTE                   Gn2
        BYTE           N24     As2   v079
        BYTE   W24
        BYTE                   Cn3
        BYTE           N24     An2   v064
        BYTE   W24
        BYTE           N12     Gn2
        BYTE           N12     As2   v079
        BYTE   W12
        BYTE                   An2
        BYTE           N12     Fn2   v064
        BYTE   W12
// 015   ----------------------------------------
        BYTE           N24     An2   v079
        BYTE           N24     Fs2   v064
        BYTE   W24
        BYTE           N12     Gn2
        BYTE           N12     As2   v079
        BYTE   W12
        BYTE           N24     An2   v064
        BYTE           N24     Cn3   v079
        BYTE   W24
        BYTE           N12     As2
        BYTE           N12     Gn2   v064
        BYTE   W12
        BYTE           N24     An2   v079
        BYTE           N24     Fs2   v064
        BYTE   W24
// 016   ----------------------------------------
        BYTE                   Gn2
        BYTE           N24     As2   v079
        BYTE   W24
        BYTE                   Cn3
        BYTE           N24     An2   v064
        BYTE   W24
        BYTE                   Dn3   v079
        BYTE           N24     As2   v064
        BYTE   W24
        BYTE           N12     Cn3   v079
        BYTE           N12     An2   v064
        BYTE   W12
        BYTE                   As2   v079
        BYTE           N12     Gn2   v064
        BYTE   W12
// 017   ----------------------------------------
        BYTE           N24     As2   v079
        BYTE           N24     Gn2   v064
        BYTE   W24
        BYTE                   An2
        BYTE           N24     Cn3   v079
        BYTE   W24
        BYTE                   Dn3
        BYTE           N24     As2   v064
        BYTE   W24
        BYTE           N12     Cn3   v079
        BYTE           N12     An2   v064
        BYTE   W12
        BYTE                   Fn2
        BYTE           N12     An2   v079
        BYTE   W12
// 018   ----------------------------------------
extend_ash_hourai_victim_000_1_18:
        BYTE           N24     Fn2   v064
        BYTE           N24     An2   v079
        BYTE   W24
        BYTE                   Gn2   v064
        BYTE           N24     As2   v079
        BYTE   W24
        BYTE                   An2   v064
        BYTE           N24     Cn3   v079
        BYTE   W24
        BYTE           N12     Gn2   v064
        BYTE           N12     As2   v079
        BYTE   W12
        BYTE                   Fn2   v064
        BYTE           N12     An2   v079
        BYTE   W12
        BYTE   PEND
// 019   ----------------------------------------
extend_ash_hourai_victim_000_1_19:
        BYTE           N24     Fs2   v064
        BYTE           N24     An2   v079
        BYTE   W24
        BYTE           N12     Gn2   v064
        BYTE           N12     As2   v079
        BYTE   W12
        BYTE           N24     An2   v064
        BYTE           N24     Cn3   v079
        BYTE   W24
        BYTE           N12     Gn2   v064
        BYTE           N12     As2   v079
        BYTE   W12
        BYTE           N24     Fs2   v064
        BYTE           N24     An2   v079
        BYTE   W24
        BYTE   PEND
// 020   ----------------------------------------
extend_ash_hourai_victim_000_1_20:
        BYTE           N24     As2   v079
        BYTE           N24     Gn2   v064
        BYTE   W24
        BYTE                   An2
        BYTE           N24     Cn3   v079
        BYTE   W24
        BYTE                   Dn3
        BYTE           N24     As2   v064
        BYTE   W24
        BYTE           N12     An2
        BYTE           N12     Cn3   v079
        BYTE   W12
        BYTE                   As2
        BYTE           N12     Gn2   v064
        BYTE   W12
        BYTE   PEND
// 021   ----------------------------------------
extend_ash_hourai_victim_000_1_21:
        BYTE           N24     Gn2   v064
        BYTE           N24     As2   v079
        BYTE   W24
        BYTE                   Cn3
        BYTE           N24     An2   v064
        BYTE   W24
        BYTE                   As2
        BYTE           N24     Dn3   v079
        BYTE   W24
        BYTE           N12     Cn3
        BYTE           N12     An2   v064
        BYTE   W12
        BYTE                   Fn2
        BYTE           N12     An2   v079
        BYTE   W12
        BYTE   PEND
// 022   ----------------------------------------
        BYTE   PATT
         POIN2  extend_ash_hourai_victim_000_1_18
// 023   ----------------------------------------
        BYTE   PATT
         POIN2  extend_ash_hourai_victim_000_1_19
// 024   ----------------------------------------
        BYTE   PATT
         POIN2  extend_ash_hourai_victim_000_1_20
// 025   ----------------------------------------
        BYTE   PATT
         POIN2  extend_ash_hourai_victim_000_1_21
// 026   ----------------------------------------
        BYTE   PATT
         POIN2  extend_ash_hourai_victim_000_1_18
// 027   ----------------------------------------
        BYTE   PATT
         POIN2  extend_ash_hourai_victim_000_1_19
// 028   ----------------------------------------
        BYTE   PATT
         POIN2  extend_ash_hourai_victim_000_1_8
// 029   ----------------------------------------
        BYTE   PATT
         POIN2  extend_ash_hourai_victim_000_1_9
// 030   ----------------------------------------
        BYTE   PATT
         POIN2  extend_ash_hourai_victim_000_1_2
// 031   ----------------------------------------
        BYTE   PATT
         POIN2  extend_ash_hourai_victim_000_1_11
// 032   ----------------------------------------
        BYTE   PATT
         POIN2  extend_ash_hourai_victim_000_1_8
// 033   ----------------------------------------
        BYTE   PATT
         POIN2  extend_ash_hourai_victim_000_1_9
// 034   ----------------------------------------
        BYTE   PATT
         POIN2  extend_ash_hourai_victim_000_1_2
// 035   ----------------------------------------
        BYTE   PATT
         POIN2  extend_ash_hourai_victim_000_1_11
// 036   ----------------------------------------
        BYTE   PATT
         POIN2  extend_ash_hourai_victim_000_1_20
// 037   ----------------------------------------
        BYTE   PATT
         POIN2  extend_ash_hourai_victim_000_1_21
// 038   ----------------------------------------
        BYTE   PATT
         POIN2  extend_ash_hourai_victim_000_1_18
// 039   ----------------------------------------
        BYTE   PATT
         POIN2  extend_ash_hourai_victim_000_1_19
// 040   ----------------------------------------
        BYTE   PATT
         POIN2  extend_ash_hourai_victim_000_1_20
// 041   ----------------------------------------
        BYTE   PATT
         POIN2  extend_ash_hourai_victim_000_1_21
// 042   ----------------------------------------
        BYTE   PATT
         POIN2  extend_ash_hourai_victim_000_1_18
// 043   ----------------------------------------
        BYTE   PATT
         POIN2  extend_ash_hourai_victim_000_1_19
// 044   ----------------------------------------
        BYTE   PATT
         POIN2  extend_ash_hourai_victim_000_1_20
// 045   ----------------------------------------
        BYTE   PATT
         POIN2  extend_ash_hourai_victim_000_1_21
// 046   ----------------------------------------
        BYTE   PATT
         POIN2  extend_ash_hourai_victim_000_1_18
// 047   ----------------------------------------
        BYTE   PATT
         POIN2  extend_ash_hourai_victim_000_1_19
// 048   ----------------------------------------
        BYTE   PATT
         POIN2  extend_ash_hourai_victim_000_1_20
// 049   ----------------------------------------
        BYTE   PATT
         POIN2  extend_ash_hourai_victim_000_1_21
// 050   ----------------------------------------
        BYTE   PATT
         POIN2  extend_ash_hourai_victim_000_1_18
// 051   ----------------------------------------
        BYTE   PATT
         POIN2  extend_ash_hourai_victim_000_1_19
// 052   ----------------------------------------
        BYTE   PATT
         POIN2  extend_ash_hourai_victim_000_1_8
// 053   ----------------------------------------
        BYTE   PATT
         POIN2  extend_ash_hourai_victim_000_1_9
// 054   ----------------------------------------
extend_ash_hourai_victim_000_1_54:
        BYTE           N24     Fn2   v079
        BYTE           N24     An2   v100
        BYTE   W24
        BYTE                   Gn2   v079
        BYTE           N24     As2   v100
        BYTE   W24
        BYTE                   An2   v079
        BYTE           N24     Cn3   v100
        BYTE   W24
        BYTE           N12     Gn2   v079
        BYTE           N12     As2   v100
        BYTE   W12
        BYTE                   Fn2   v079
        BYTE           N12     An2   v100
        BYTE   W12
        BYTE   PEND
// 055   ----------------------------------------
extend_ash_hourai_victim_000_1_55:
        BYTE           N24     Fs2   v079
        BYTE           N24     An2   v100
        BYTE   W24
        BYTE           N12     Gn2   v079
        BYTE           N12     As2   v100
        BYTE   W12
        BYTE           N24     An2   v079
        BYTE           N24     Cn3   v100
        BYTE   W24
        BYTE           N12     Gn2   v079
        BYTE           N12     As2   v100
        BYTE   W12
        BYTE           N24     Fs2   v079
        BYTE           N24     An2   v100
        BYTE   W24
        BYTE   PEND
// 056   ----------------------------------------
        BYTE   PATT
         POIN2  extend_ash_hourai_victim_000_1_8
// 057   ----------------------------------------
        BYTE   PATT
         POIN2  extend_ash_hourai_victim_000_1_9
// 058   ----------------------------------------
        BYTE   PATT
         POIN2  extend_ash_hourai_victim_000_1_54
// 059   ----------------------------------------
        BYTE   PATT
         POIN2  extend_ash_hourai_victim_000_1_55
// 060   ----------------------------------------
        BYTE   PATT
         POIN2  extend_ash_hourai_victim_000_1_8
// 061   ----------------------------------------
        BYTE   PATT
         POIN2  extend_ash_hourai_victim_000_1_9
// 062   ----------------------------------------
        BYTE   PATT
         POIN2  extend_ash_hourai_victim_000_1_54
// 063   ----------------------------------------
        BYTE   PATT
         POIN2  extend_ash_hourai_victim_000_1_55
// 064   ----------------------------------------
        BYTE   PATT
         POIN2  extend_ash_hourai_victim_000_1_8
// 065   ----------------------------------------
        BYTE   PATT
         POIN2  extend_ash_hourai_victim_000_1_9
// 066   ----------------------------------------
        BYTE   PATT
         POIN2  extend_ash_hourai_victim_000_1_54
// 067   ----------------------------------------
        BYTE   PATT
         POIN2  extend_ash_hourai_victim_000_1_55
// 068   ----------------------------------------
        BYTE   W96
// 069   ----------------------------------------
        BYTE   W96
// 070   ----------------------------------------
        BYTE   W96
// 071   ----------------------------------------
        BYTE   W96
// 072   ----------------------------------------
        BYTE   W96
// 073   ----------------------------------------
        BYTE   W96
// 074   ----------------------------------------
        BYTE   W96
// 075   ----------------------------------------
        BYTE   W96
// 076   ----------------------------------------
        BYTE   W96
// 077   ----------------------------------------
        BYTE   W96
// 078   ----------------------------------------
        BYTE   W96
// 079   ----------------------------------------
        BYTE   W96
// 080   ----------------------------------------
        BYTE   W96
// 081   ----------------------------------------
        BYTE   W96
// 082   ----------------------------------------
        BYTE   W96
// 083   ----------------------------------------
        BYTE   W96
// 084   ----------------------------------------
        BYTE   W96
// 085   ----------------------------------------
        BYTE   W96
// 086   ----------------------------------------
        BYTE   W96
// 087   ----------------------------------------
        BYTE   W96
// 088   ----------------------------------------
        BYTE   W96
// 089   ----------------------------------------
        BYTE   W96
// 090   ----------------------------------------
        BYTE   W96
// 091   ----------------------------------------
        BYTE   W96
// 092   ----------------------------------------
        BYTE   W96
// 093   ----------------------------------------
        BYTE   W96
// 094   ----------------------------------------
        BYTE   W96
// 095   ----------------------------------------
        BYTE   W96
// 096   ----------------------------------------
        BYTE   W96
// 097   ----------------------------------------
        BYTE   W96
// 098   ----------------------------------------
        BYTE   W96
// 099   ----------------------------------------
        BYTE   W96
// 100   ----------------------------------------
        BYTE   PATT
         POIN2  extend_ash_hourai_victim_000_1_2
// 101   ----------------------------------------
        BYTE   PATT
         POIN2  extend_ash_hourai_victim_000_1_1
// 102   ----------------------------------------
        BYTE   PATT
         POIN2  extend_ash_hourai_victim_000_1_2
// 103   ----------------------------------------
        BYTE   PATT
         POIN2  extend_ash_hourai_victim_000_1_3
// 104   ----------------------------------------
        BYTE   PATT
         POIN2  extend_ash_hourai_victim_000_1_4
// 105   ----------------------------------------
        BYTE   PATT
         POIN2  extend_ash_hourai_victim_000_1_5
// 106   ----------------------------------------
        BYTE   PATT
         POIN2  extend_ash_hourai_victim_000_1_6
// 107   ----------------------------------------
        BYTE   PATT
         POIN2  extend_ash_hourai_victim_000_1_7
// 108   ----------------------------------------
        BYTE   PATT
         POIN2  extend_ash_hourai_victim_000_1_8
// 109   ----------------------------------------
        BYTE   PATT
         POIN2  extend_ash_hourai_victim_000_1_9
// 110   ----------------------------------------
        BYTE   PATT
         POIN2  extend_ash_hourai_victim_000_1_2
// 111   ----------------------------------------
        BYTE   PATT
         POIN2  extend_ash_hourai_victim_000_1_11
// 112   ----------------------------------------
        BYTE   PATT
         POIN2  extend_ash_hourai_victim_000_1_20
// 113   ----------------------------------------
        BYTE   PATT
         POIN2  extend_ash_hourai_victim_000_1_21
// 114   ----------------------------------------
        BYTE   PATT
         POIN2  extend_ash_hourai_victim_000_1_18
// 115   ----------------------------------------
        BYTE   PATT
         POIN2  extend_ash_hourai_victim_000_1_19
// 116   ----------------------------------------
        BYTE   PATT
         POIN2  extend_ash_hourai_victim_000_1_20
// 117   ----------------------------------------
        BYTE   PATT
         POIN2  extend_ash_hourai_victim_000_1_21
// 118   ----------------------------------------
        BYTE   PATT
         POIN2  extend_ash_hourai_victim_000_1_18
// 119   ----------------------------------------
        BYTE   PATT
         POIN2  extend_ash_hourai_victim_000_1_19
// 120   ----------------------------------------
        BYTE   PATT
         POIN2  extend_ash_hourai_victim_000_1_20
// 121   ----------------------------------------
        BYTE   PATT
         POIN2  extend_ash_hourai_victim_000_1_21
// 122   ----------------------------------------
        BYTE   PATT
         POIN2  extend_ash_hourai_victim_000_1_18
// 123   ----------------------------------------
        BYTE   PATT
         POIN2  extend_ash_hourai_victim_000_1_19
// 124   ----------------------------------------
        BYTE   PATT
         POIN2  extend_ash_hourai_victim_000_1_20
// 125   ----------------------------------------
        BYTE   PATT
         POIN2  extend_ash_hourai_victim_000_1_21
// 126   ----------------------------------------
        BYTE   PATT
         POIN2  extend_ash_hourai_victim_000_1_18
// 127   ----------------------------------------
        BYTE   PATT
         POIN2  extend_ash_hourai_victim_000_1_19
// 128   ----------------------------------------
        BYTE   PATT
         POIN2  extend_ash_hourai_victim_000_1_8
// 129   ----------------------------------------
        BYTE   PATT
         POIN2  extend_ash_hourai_victim_000_1_9
// 130   ----------------------------------------
        BYTE   PATT
         POIN2  extend_ash_hourai_victim_000_1_2
// 131   ----------------------------------------
        BYTE   PATT
         POIN2  extend_ash_hourai_victim_000_1_11
// 132   ----------------------------------------
        BYTE   PATT
         POIN2  extend_ash_hourai_victim_000_1_8
// 133   ----------------------------------------
        BYTE   PATT
         POIN2  extend_ash_hourai_victim_000_1_9
// 134   ----------------------------------------
        BYTE   PATT
         POIN2  extend_ash_hourai_victim_000_1_2
// 135   ----------------------------------------
        BYTE   PATT
         POIN2  extend_ash_hourai_victim_000_1_11
// 136   ----------------------------------------
        BYTE   PATT
         POIN2  extend_ash_hourai_victim_000_1_20
// 137   ----------------------------------------
        BYTE   PATT
         POIN2  extend_ash_hourai_victim_000_1_21
// 138   ----------------------------------------
        BYTE   PATT
         POIN2  extend_ash_hourai_victim_000_1_18
// 139   ----------------------------------------
        BYTE   PATT
         POIN2  extend_ash_hourai_victim_000_1_19
// 140   ----------------------------------------
        BYTE   PATT
         POIN2  extend_ash_hourai_victim_000_1_20
// 141   ----------------------------------------
        BYTE   PATT
         POIN2  extend_ash_hourai_victim_000_1_21
// 142   ----------------------------------------
        BYTE   PATT
         POIN2  extend_ash_hourai_victim_000_1_18
// 143   ----------------------------------------
        BYTE   PATT
         POIN2  extend_ash_hourai_victim_000_1_19
// 144   ----------------------------------------
        BYTE   PATT
         POIN2  extend_ash_hourai_victim_000_1_20
// 145   ----------------------------------------
        BYTE   PATT
         POIN2  extend_ash_hourai_victim_000_1_21
// 146   ----------------------------------------
        BYTE   PATT
         POIN2  extend_ash_hourai_victim_000_1_18
// 147   ----------------------------------------
        BYTE   PATT
         POIN2  extend_ash_hourai_victim_000_1_19
// 148   ----------------------------------------
        BYTE   PATT
         POIN2  extend_ash_hourai_victim_000_1_20
// 149   ----------------------------------------
        BYTE   PATT
         POIN2  extend_ash_hourai_victim_000_1_21
// 150   ----------------------------------------
        BYTE   PATT
         POIN2  extend_ash_hourai_victim_000_1_18
// 151   ----------------------------------------
        BYTE   PATT
         POIN2  extend_ash_hourai_victim_000_1_19
// 152   ----------------------------------------
        BYTE   PATT
         POIN2  extend_ash_hourai_victim_000_1_8
// 153   ----------------------------------------
        BYTE   PATT
         POIN2  extend_ash_hourai_victim_000_1_9
// 154   ----------------------------------------
        BYTE   PATT
         POIN2  extend_ash_hourai_victim_000_1_54
// 155   ----------------------------------------
        BYTE   PATT
         POIN2  extend_ash_hourai_victim_000_1_55
// 156   ----------------------------------------
        BYTE   PATT
         POIN2  extend_ash_hourai_victim_000_1_8
// 157   ----------------------------------------
        BYTE   PATT
         POIN2  extend_ash_hourai_victim_000_1_9
// 158   ----------------------------------------
        BYTE   PATT
         POIN2  extend_ash_hourai_victim_000_1_54
// 159   ----------------------------------------
        BYTE   PATT
         POIN2  extend_ash_hourai_victim_000_1_55
// 160   ----------------------------------------
        BYTE   PATT
         POIN2  extend_ash_hourai_victim_000_1_8
// 161   ----------------------------------------
        BYTE   PATT
         POIN2  extend_ash_hourai_victim_000_1_9
// 162   ----------------------------------------
        BYTE   PATT
         POIN2  extend_ash_hourai_victim_000_1_54
// 163   ----------------------------------------
        BYTE   PATT
         POIN2  extend_ash_hourai_victim_000_1_55
// 164   ----------------------------------------
        BYTE   PATT
         POIN2  extend_ash_hourai_victim_000_1_8
// 165   ----------------------------------------
        BYTE   PATT
         POIN2  extend_ash_hourai_victim_000_1_9
// 166   ----------------------------------------
        BYTE   PATT
         POIN2  extend_ash_hourai_victim_000_1_54
// 167   ----------------------------------------
        BYTE   PATT
         POIN2  extend_ash_hourai_victim_000_1_55
// 168   ----------------------------------------
        BYTE   W96
// 169   ----------------------------------------
        BYTE   W96
// 170   ----------------------------------------
        BYTE   W96
// 171   ----------------------------------------
        BYTE   W96
// 172   ----------------------------------------
        BYTE   W96
// 173   ----------------------------------------
        BYTE   W96
// 174   ----------------------------------------
        BYTE   W96
// 175   ----------------------------------------
        BYTE   W96
// 176   ----------------------------------------
        BYTE   W96
// 177   ----------------------------------------
        BYTE   W96
// 178   ----------------------------------------
        BYTE   W96
// 179   ----------------------------------------
        BYTE   W96
// 180   ----------------------------------------
        BYTE   W96
// 181   ----------------------------------------
        BYTE   W96
// 182   ----------------------------------------
        BYTE   W96
// 183   ----------------------------------------
        BYTE   W96
// 184   ----------------------------------------
        BYTE   W96
// 185   ----------------------------------------
        BYTE   W96
// 186   ----------------------------------------
        BYTE   W96
// 187   ----------------------------------------
        BYTE   W96
// 188   ----------------------------------------
        BYTE   W96
// 189   ----------------------------------------
        BYTE   W96
// 190   ----------------------------------------
        BYTE   W96
// 191   ----------------------------------------
        BYTE   W96
// 192   ----------------------------------------
        BYTE   W96
// 193   ----------------------------------------
        BYTE   W96
// 194   ----------------------------------------
        BYTE   W96
// 195   ----------------------------------------
        BYTE   W96
// 196   ----------------------------------------
        BYTE   W96
// 197   ----------------------------------------
        BYTE   W96
// 198   ----------------------------------------
        BYTE   W96
// 199   ----------------------------------------
        BYTE   W92
        BYTE   W01
        BYTE   GoTo
         POIN2  extend_ash_hourai_victim_000_1_LOOP
        BYTE   W03
// 200   ----------------------------------------
        BYTE   FINE

//****************** Track 2 (Midi-Chn.2) ******************//

extend_ash_hourai_victim_000_2:
        BYTE   KEYSH   extend_ash_hourai_victim_000_key+0
// 000   ----------------------------------------
extend_ash_hourai_victim_000_2_LOOP:
        BYTE           VOICE   5
        BYTE           VOL     27
        BYTE           BENDR   12
        BYTE   W96
// 001   ----------------------------------------
        BYTE   W96
// 002   ----------------------------------------
        BYTE   W96
// 003   ----------------------------------------
        BYTE   W96
// 004   ----------------------------------------
extend_ash_hourai_victim_000_2_4:
        BYTE           N06     As2   v100
        BYTE   W06
        BYTE                   Cn3
        BYTE   W06
        BYTE                   Dn3
        BYTE   W06
        BYTE                   Gn3
        BYTE   W06
        BYTE                   An3
        BYTE   W06
        BYTE                   As3
        BYTE   W06
        BYTE                   Dn4
        BYTE   W06
        BYTE                   An3
        BYTE   W06
        BYTE                   As3
        BYTE   W06
        BYTE                   Gn4
        BYTE   W06
        BYTE                   An4
        BYTE   W06
        BYTE                   As4
        BYTE   W06
        BYTE                   Dn5
        BYTE   W06
        BYTE                   Gn5
        BYTE   W06
        BYTE                   Dn5
        BYTE   W06
        BYTE                   Cn5
        BYTE   W06
        BYTE   PEND
// 005   ----------------------------------------
extend_ash_hourai_victim_000_2_5:
        BYTE           N06     As4   v100
        BYTE   W06
        BYTE                   An4
        BYTE   W06
        BYTE                   Gn4
        BYTE   W06
        BYTE                   Dn4
        BYTE   W06
        BYTE                   As3
        BYTE   W06
        BYTE                   An3
        BYTE   W06
        BYTE                   Gn3
        BYTE   W06
        BYTE                   Dn3
        BYTE   W06
        BYTE                   As2
        BYTE   W06
        BYTE                   An2
        BYTE   W06
        BYTE                   As2
        BYTE   W06
        BYTE                   Cn3
        BYTE   W06
        BYTE                   Dn3
        BYTE   W06
        BYTE                   Gn3
        BYTE   W06
        BYTE                   Gn3
        BYTE   W06
        BYTE                   An3
        BYTE   W06
        BYTE   PEND
// 006   ----------------------------------------
        BYTE   PATT
         POIN2  extend_ash_hourai_victim_000_2_4
// 007   ----------------------------------------
        BYTE   PATT
         POIN2  extend_ash_hourai_victim_000_2_5
// 008   ----------------------------------------
        BYTE   PATT
         POIN2  extend_ash_hourai_victim_000_2_4
// 009   ----------------------------------------
        BYTE   PATT
         POIN2  extend_ash_hourai_victim_000_2_5
// 010   ----------------------------------------
        BYTE   PATT
         POIN2  extend_ash_hourai_victim_000_2_4
// 011   ----------------------------------------
        BYTE   PATT
         POIN2  extend_ash_hourai_victim_000_2_5
// 012   ----------------------------------------
        BYTE   W96
// 013   ----------------------------------------
        BYTE   W96
// 014   ----------------------------------------
        BYTE   W96
// 015   ----------------------------------------
        BYTE   W96
// 016   ----------------------------------------
        BYTE   W96
// 017   ----------------------------------------
        BYTE   W96
// 018   ----------------------------------------
        BYTE   W96
// 019   ----------------------------------------
        BYTE   W96
// 020   ----------------------------------------
        BYTE   PATT
         POIN2  extend_ash_hourai_victim_000_2_4
// 021   ----------------------------------------
        BYTE   PATT
         POIN2  extend_ash_hourai_victim_000_2_5
// 022   ----------------------------------------
        BYTE   PATT
         POIN2  extend_ash_hourai_victim_000_2_4
// 023   ----------------------------------------
        BYTE   PATT
         POIN2  extend_ash_hourai_victim_000_2_5
// 024   ----------------------------------------
        BYTE   PATT
         POIN2  extend_ash_hourai_victim_000_2_4
// 025   ----------------------------------------
        BYTE   PATT
         POIN2  extend_ash_hourai_victim_000_2_5
// 026   ----------------------------------------
        BYTE   PATT
         POIN2  extend_ash_hourai_victim_000_2_4
// 027   ----------------------------------------
        BYTE   PATT
         POIN2  extend_ash_hourai_victim_000_2_5
// 028   ----------------------------------------
        BYTE   PATT
         POIN2  extend_ash_hourai_victim_000_2_4
// 029   ----------------------------------------
        BYTE   PATT
         POIN2  extend_ash_hourai_victim_000_2_5
// 030   ----------------------------------------
        BYTE   PATT
         POIN2  extend_ash_hourai_victim_000_2_4
// 031   ----------------------------------------
        BYTE   PATT
         POIN2  extend_ash_hourai_victim_000_2_5
// 032   ----------------------------------------
        BYTE   PATT
         POIN2  extend_ash_hourai_victim_000_2_4
// 033   ----------------------------------------
        BYTE   PATT
         POIN2  extend_ash_hourai_victim_000_2_5
// 034   ----------------------------------------
        BYTE   PATT
         POIN2  extend_ash_hourai_victim_000_2_4
// 035   ----------------------------------------
        BYTE   PATT
         POIN2  extend_ash_hourai_victim_000_2_5
// 036   ----------------------------------------
        BYTE   W96
// 037   ----------------------------------------
        BYTE   W96
// 038   ----------------------------------------
        BYTE   W96
// 039   ----------------------------------------
        BYTE   W96
// 040   ----------------------------------------
        BYTE   W96
// 041   ----------------------------------------
        BYTE   W96
// 042   ----------------------------------------
        BYTE   W96
// 043   ----------------------------------------
        BYTE   W96
// 044   ----------------------------------------
        BYTE   PATT
         POIN2  extend_ash_hourai_victim_000_2_4
// 045   ----------------------------------------
        BYTE   PATT
         POIN2  extend_ash_hourai_victim_000_2_5
// 046   ----------------------------------------
        BYTE   PATT
         POIN2  extend_ash_hourai_victim_000_2_4
// 047   ----------------------------------------
        BYTE   PATT
         POIN2  extend_ash_hourai_victim_000_2_5
// 048   ----------------------------------------
        BYTE   PATT
         POIN2  extend_ash_hourai_victim_000_2_4
// 049   ----------------------------------------
        BYTE   PATT
         POIN2  extend_ash_hourai_victim_000_2_5
// 050   ----------------------------------------
        BYTE   PATT
         POIN2  extend_ash_hourai_victim_000_2_4
// 051   ----------------------------------------
        BYTE   PATT
         POIN2  extend_ash_hourai_victim_000_2_5
// 052   ----------------------------------------
        BYTE   W96
// 053   ----------------------------------------
        BYTE   W96
// 054   ----------------------------------------
        BYTE   W96
// 055   ----------------------------------------
        BYTE   W96
// 056   ----------------------------------------
        BYTE   W96
// 057   ----------------------------------------
        BYTE   W96
// 058   ----------------------------------------
        BYTE   W96
// 059   ----------------------------------------
        BYTE   W96
// 060   ----------------------------------------
        BYTE   PATT
         POIN2  extend_ash_hourai_victim_000_2_4
// 061   ----------------------------------------
        BYTE   PATT
         POIN2  extend_ash_hourai_victim_000_2_5
// 062   ----------------------------------------
        BYTE   PATT
         POIN2  extend_ash_hourai_victim_000_2_4
// 063   ----------------------------------------
        BYTE   PATT
         POIN2  extend_ash_hourai_victim_000_2_5
// 064   ----------------------------------------
        BYTE   PATT
         POIN2  extend_ash_hourai_victim_000_2_4
// 065   ----------------------------------------
        BYTE   PATT
         POIN2  extend_ash_hourai_victim_000_2_5
// 066   ----------------------------------------
        BYTE   PATT
         POIN2  extend_ash_hourai_victim_000_2_4
// 067   ----------------------------------------
extend_ash_hourai_victim_000_2_67:
        BYTE           N06     As4   v100
        BYTE   W06
        BYTE                   An4
        BYTE   W06
        BYTE                   Gn4
        BYTE   W06
        BYTE                   Dn4
        BYTE   W06
        BYTE                   As3
        BYTE   W06
        BYTE                   An3
        BYTE   W06
        BYTE                   Gn3
        BYTE   W06
        BYTE                   Dn3
        BYTE   W06
        BYTE           N12     As2
        BYTE   W12
        BYTE                   Cn3
        BYTE   W12
        BYTE                   Dn3
        BYTE   W12
        BYTE                   Fn3
        BYTE   W12
        BYTE   PEND
// 068   ----------------------------------------
extend_ash_hourai_victim_000_2_68:
        BYTE           N48     Gn3   v100
        BYTE   W48
        BYTE                   Dn4
        BYTE   W48
        BYTE   PEND
// 069   ----------------------------------------
extend_ash_hourai_victim_000_2_69:
        BYTE           N48     Cn4   v100
        BYTE   W48
        BYTE                   Fn4
        BYTE   W48
        BYTE   PEND
// 070   ----------------------------------------
extend_ash_hourai_victim_000_2_70:
        BYTE           N36     Dn4   v100
        BYTE   W36
        BYTE                   Fs4
        BYTE   W36
        BYTE           N24     An4
        BYTE   W24
        BYTE   PEND
// 071   ----------------------------------------
extend_ash_hourai_victim_000_2_71:
        BYTE           N36     An4   v100
        BYTE   W36
        BYTE           N12     Gn4
        BYTE   W12
        BYTE           N48     Dn4
        BYTE   W48
        BYTE   PEND
// 072   ----------------------------------------
        BYTE   PATT
         POIN2  extend_ash_hourai_victim_000_2_68
// 073   ----------------------------------------
        BYTE   PATT
         POIN2  extend_ash_hourai_victim_000_2_69
// 074   ----------------------------------------
extend_ash_hourai_victim_000_2_74:
        BYTE           N36     Fs4   v100
        BYTE   W36
        BYTE                   An4
        BYTE   W36
        BYTE           N24     Cn5
        BYTE   W24
        BYTE   PEND
// 075   ----------------------------------------
extend_ash_hourai_victim_000_2_75:
        BYTE           N36     Cn5   v100
        BYTE   W36
        BYTE           N12     Dn5
        BYTE   W12
        BYTE           N48     As4
        BYTE   W48
        BYTE   PEND
// 076   ----------------------------------------
        BYTE   PATT
         POIN2  extend_ash_hourai_victim_000_2_68
// 077   ----------------------------------------
        BYTE   PATT
         POIN2  extend_ash_hourai_victim_000_2_69
// 078   ----------------------------------------
        BYTE   PATT
         POIN2  extend_ash_hourai_victim_000_2_70
// 079   ----------------------------------------
        BYTE   PATT
         POIN2  extend_ash_hourai_victim_000_2_71
// 080   ----------------------------------------
        BYTE   PATT
         POIN2  extend_ash_hourai_victim_000_2_68
// 081   ----------------------------------------
        BYTE   PATT
         POIN2  extend_ash_hourai_victim_000_2_69
// 082   ----------------------------------------
        BYTE   PATT
         POIN2  extend_ash_hourai_victim_000_2_74
// 083   ----------------------------------------
        BYTE   PATT
         POIN2  extend_ash_hourai_victim_000_2_75
// 084   ----------------------------------------
extend_ash_hourai_victim_000_2_84:
        BYTE           N48     En3   v100
        BYTE   W48
        BYTE                   Bn3
        BYTE   W48
        BYTE   PEND
// 085   ----------------------------------------
extend_ash_hourai_victim_000_2_85:
        BYTE           N48     An3   v100
        BYTE   W48
        BYTE                   Dn4
        BYTE   W48
        BYTE   PEND
// 086   ----------------------------------------
extend_ash_hourai_victim_000_2_86:
        BYTE           N36     Bn3   v100
        BYTE   W36
        BYTE                   Ds4
        BYTE   W36
        BYTE           N24     Fs4
        BYTE   W24
        BYTE   PEND
// 087   ----------------------------------------
extend_ash_hourai_victim_000_2_87:
        BYTE           N36     Fs4   v100
        BYTE   W36
        BYTE           N12     En4
        BYTE   W12
        BYTE           N48     Bn3
        BYTE   W48
        BYTE   PEND
// 088   ----------------------------------------
        BYTE   PATT
         POIN2  extend_ash_hourai_victim_000_2_84
// 089   ----------------------------------------
        BYTE   PATT
         POIN2  extend_ash_hourai_victim_000_2_85
// 090   ----------------------------------------
extend_ash_hourai_victim_000_2_90:
        BYTE           N36     Ds4   v100
        BYTE   W36
        BYTE                   Fs4
        BYTE   W36
        BYTE           N24     An4
        BYTE   W24
        BYTE   PEND
// 091   ----------------------------------------
extend_ash_hourai_victim_000_2_91:
        BYTE           N36     An4   v100
        BYTE   W36
        BYTE           N12     Bn4
        BYTE   W12
        BYTE           N48     Gn4
        BYTE   W48
        BYTE   PEND
// 092   ----------------------------------------
        BYTE   PATT
         POIN2  extend_ash_hourai_victim_000_2_84
// 093   ----------------------------------------
        BYTE   PATT
         POIN2  extend_ash_hourai_victim_000_2_85
// 094   ----------------------------------------
        BYTE   PATT
         POIN2  extend_ash_hourai_victim_000_2_86
// 095   ----------------------------------------
        BYTE   PATT
         POIN2  extend_ash_hourai_victim_000_2_87
// 096   ----------------------------------------
        BYTE   PATT
         POIN2  extend_ash_hourai_victim_000_2_84
// 097   ----------------------------------------
        BYTE   PATT
         POIN2  extend_ash_hourai_victim_000_2_85
// 098   ----------------------------------------
        BYTE   PATT
         POIN2  extend_ash_hourai_victim_000_2_90
// 099   ----------------------------------------
        BYTE   PATT
         POIN2  extend_ash_hourai_victim_000_2_91
// 100   ----------------------------------------
        BYTE   W96
// 101   ----------------------------------------
        BYTE   W96
// 102   ----------------------------------------
        BYTE   W96
// 103   ----------------------------------------
        BYTE   W96
// 104   ----------------------------------------
        BYTE   PATT
         POIN2  extend_ash_hourai_victim_000_2_4
// 105   ----------------------------------------
        BYTE   PATT
         POIN2  extend_ash_hourai_victim_000_2_5
// 106   ----------------------------------------
        BYTE   PATT
         POIN2  extend_ash_hourai_victim_000_2_4
// 107   ----------------------------------------
        BYTE   PATT
         POIN2  extend_ash_hourai_victim_000_2_5
// 108   ----------------------------------------
        BYTE   PATT
         POIN2  extend_ash_hourai_victim_000_2_4
// 109   ----------------------------------------
        BYTE   PATT
         POIN2  extend_ash_hourai_victim_000_2_5
// 110   ----------------------------------------
        BYTE   PATT
         POIN2  extend_ash_hourai_victim_000_2_4
// 111   ----------------------------------------
        BYTE   PATT
         POIN2  extend_ash_hourai_victim_000_2_5
// 112   ----------------------------------------
        BYTE   W96
// 113   ----------------------------------------
        BYTE   W96
// 114   ----------------------------------------
        BYTE   W96
// 115   ----------------------------------------
        BYTE   W96
// 116   ----------------------------------------
        BYTE   W96
// 117   ----------------------------------------
        BYTE   W96
// 118   ----------------------------------------
        BYTE   W96
// 119   ----------------------------------------
        BYTE   W96
// 120   ----------------------------------------
        BYTE   PATT
         POIN2  extend_ash_hourai_victim_000_2_4
// 121   ----------------------------------------
        BYTE   PATT
         POIN2  extend_ash_hourai_victim_000_2_5
// 122   ----------------------------------------
        BYTE   PATT
         POIN2  extend_ash_hourai_victim_000_2_4
// 123   ----------------------------------------
        BYTE   PATT
         POIN2  extend_ash_hourai_victim_000_2_5
// 124   ----------------------------------------
        BYTE   PATT
         POIN2  extend_ash_hourai_victim_000_2_4
// 125   ----------------------------------------
        BYTE   PATT
         POIN2  extend_ash_hourai_victim_000_2_5
// 126   ----------------------------------------
        BYTE   PATT
         POIN2  extend_ash_hourai_victim_000_2_4
// 127   ----------------------------------------
        BYTE   PATT
         POIN2  extend_ash_hourai_victim_000_2_5
// 128   ----------------------------------------
        BYTE   PATT
         POIN2  extend_ash_hourai_victim_000_2_4
// 129   ----------------------------------------
        BYTE   PATT
         POIN2  extend_ash_hourai_victim_000_2_5
// 130   ----------------------------------------
        BYTE   PATT
         POIN2  extend_ash_hourai_victim_000_2_4
// 131   ----------------------------------------
        BYTE   PATT
         POIN2  extend_ash_hourai_victim_000_2_5
// 132   ----------------------------------------
        BYTE   PATT
         POIN2  extend_ash_hourai_victim_000_2_4
// 133   ----------------------------------------
        BYTE   PATT
         POIN2  extend_ash_hourai_victim_000_2_5
// 134   ----------------------------------------
        BYTE   PATT
         POIN2  extend_ash_hourai_victim_000_2_4
// 135   ----------------------------------------
        BYTE   PATT
         POIN2  extend_ash_hourai_victim_000_2_5
// 136   ----------------------------------------
        BYTE   W96
// 137   ----------------------------------------
        BYTE   W96
// 138   ----------------------------------------
        BYTE   W96
// 139   ----------------------------------------
        BYTE   W96
// 140   ----------------------------------------
        BYTE   W96
// 141   ----------------------------------------
        BYTE   W96
// 142   ----------------------------------------
        BYTE   W96
// 143   ----------------------------------------
        BYTE   W96
// 144   ----------------------------------------
        BYTE   PATT
         POIN2  extend_ash_hourai_victim_000_2_4
// 145   ----------------------------------------
        BYTE   PATT
         POIN2  extend_ash_hourai_victim_000_2_5
// 146   ----------------------------------------
        BYTE   PATT
         POIN2  extend_ash_hourai_victim_000_2_4
// 147   ----------------------------------------
        BYTE   PATT
         POIN2  extend_ash_hourai_victim_000_2_5
// 148   ----------------------------------------
        BYTE   PATT
         POIN2  extend_ash_hourai_victim_000_2_4
// 149   ----------------------------------------
        BYTE   PATT
         POIN2  extend_ash_hourai_victim_000_2_5
// 150   ----------------------------------------
        BYTE   PATT
         POIN2  extend_ash_hourai_victim_000_2_4
// 151   ----------------------------------------
        BYTE   PATT
         POIN2  extend_ash_hourai_victim_000_2_5
// 152   ----------------------------------------
        BYTE   W96
// 153   ----------------------------------------
        BYTE   W96
// 154   ----------------------------------------
        BYTE   W96
// 155   ----------------------------------------
        BYTE   W96
// 156   ----------------------------------------
        BYTE   W96
// 157   ----------------------------------------
        BYTE   W96
// 158   ----------------------------------------
        BYTE   W96
// 159   ----------------------------------------
        BYTE   W96
// 160   ----------------------------------------
        BYTE   PATT
         POIN2  extend_ash_hourai_victim_000_2_4
// 161   ----------------------------------------
        BYTE   PATT
         POIN2  extend_ash_hourai_victim_000_2_5
// 162   ----------------------------------------
        BYTE   PATT
         POIN2  extend_ash_hourai_victim_000_2_4
// 163   ----------------------------------------
        BYTE   PATT
         POIN2  extend_ash_hourai_victim_000_2_5
// 164   ----------------------------------------
        BYTE   PATT
         POIN2  extend_ash_hourai_victim_000_2_4
// 165   ----------------------------------------
        BYTE   PATT
         POIN2  extend_ash_hourai_victim_000_2_5
// 166   ----------------------------------------
        BYTE   PATT
         POIN2  extend_ash_hourai_victim_000_2_4
// 167   ----------------------------------------
        BYTE   PATT
         POIN2  extend_ash_hourai_victim_000_2_67
// 168   ----------------------------------------
        BYTE   PATT
         POIN2  extend_ash_hourai_victim_000_2_68
// 169   ----------------------------------------
        BYTE   PATT
         POIN2  extend_ash_hourai_victim_000_2_69
// 170   ----------------------------------------
        BYTE   PATT
         POIN2  extend_ash_hourai_victim_000_2_70
// 171   ----------------------------------------
        BYTE   PATT
         POIN2  extend_ash_hourai_victim_000_2_71
// 172   ----------------------------------------
        BYTE   PATT
         POIN2  extend_ash_hourai_victim_000_2_68
// 173   ----------------------------------------
        BYTE   PATT
         POIN2  extend_ash_hourai_victim_000_2_69
// 174   ----------------------------------------
        BYTE   PATT
         POIN2  extend_ash_hourai_victim_000_2_74
// 175   ----------------------------------------
        BYTE   PATT
         POIN2  extend_ash_hourai_victim_000_2_75
// 176   ----------------------------------------
        BYTE   PATT
         POIN2  extend_ash_hourai_victim_000_2_68
// 177   ----------------------------------------
        BYTE   PATT
         POIN2  extend_ash_hourai_victim_000_2_69
// 178   ----------------------------------------
        BYTE   PATT
         POIN2  extend_ash_hourai_victim_000_2_70
// 179   ----------------------------------------
        BYTE   PATT
         POIN2  extend_ash_hourai_victim_000_2_71
// 180   ----------------------------------------
        BYTE   PATT
         POIN2  extend_ash_hourai_victim_000_2_68
// 181   ----------------------------------------
        BYTE   PATT
         POIN2  extend_ash_hourai_victim_000_2_69
// 182   ----------------------------------------
        BYTE   PATT
         POIN2  extend_ash_hourai_victim_000_2_74
// 183   ----------------------------------------
        BYTE   PATT
         POIN2  extend_ash_hourai_victim_000_2_75
// 184   ----------------------------------------
        BYTE   PATT
         POIN2  extend_ash_hourai_victim_000_2_84
// 185   ----------------------------------------
        BYTE   PATT
         POIN2  extend_ash_hourai_victim_000_2_85
// 186   ----------------------------------------
        BYTE   PATT
         POIN2  extend_ash_hourai_victim_000_2_86
// 187   ----------------------------------------
        BYTE   PATT
         POIN2  extend_ash_hourai_victim_000_2_87
// 188   ----------------------------------------
        BYTE   PATT
         POIN2  extend_ash_hourai_victim_000_2_84
// 189   ----------------------------------------
        BYTE   PATT
         POIN2  extend_ash_hourai_victim_000_2_85
// 190   ----------------------------------------
        BYTE   PATT
         POIN2  extend_ash_hourai_victim_000_2_90
// 191   ----------------------------------------
        BYTE   PATT
         POIN2  extend_ash_hourai_victim_000_2_91
// 192   ----------------------------------------
        BYTE   PATT
         POIN2  extend_ash_hourai_victim_000_2_84
// 193   ----------------------------------------
        BYTE   PATT
         POIN2  extend_ash_hourai_victim_000_2_85
// 194   ----------------------------------------
        BYTE   PATT
         POIN2  extend_ash_hourai_victim_000_2_86
// 195   ----------------------------------------
        BYTE   PATT
         POIN2  extend_ash_hourai_victim_000_2_87
// 196   ----------------------------------------
        BYTE   PATT
         POIN2  extend_ash_hourai_victim_000_2_84
// 197   ----------------------------------------
        BYTE   PATT
         POIN2  extend_ash_hourai_victim_000_2_85
// 198   ----------------------------------------
        BYTE   PATT
         POIN2  extend_ash_hourai_victim_000_2_90
// 199   ----------------------------------------
        BYTE           N36     An4   v100
        BYTE   W36
        BYTE           N12     Bn4
        BYTE   W12
        BYTE           N48     Gn4
        BYTE   W44
        BYTE   W01
        BYTE   GoTo
         POIN2  extend_ash_hourai_victim_000_2_LOOP
        BYTE   W03
// 200   ----------------------------------------
        BYTE   FINE

//****************** Track 3 (Midi-Chn.3) ******************//

extend_ash_hourai_victim_000_3:
        BYTE   KEYSH   extend_ash_hourai_victim_000_key+0
// 000   ----------------------------------------
extend_ash_hourai_victim_000_3_LOOP:
        BYTE           VOICE   6
        BYTE           VOL     20
        BYTE           BENDR   12
        BYTE   W96
// 001   ----------------------------------------
        BYTE   W96
// 002   ----------------------------------------
        BYTE   W96
// 003   ----------------------------------------
        BYTE   W96
// 004   ----------------------------------------
extend_ash_hourai_victim_000_3_4:
        BYTE           N06     As2   v098
        BYTE   W06
        BYTE                   Cn3   v096
        BYTE   W06
        BYTE                   Dn3   v090
        BYTE   W06
        BYTE                   Gn3   v083
        BYTE   W06
        BYTE                   An3   v072
        BYTE   W06
        BYTE                   As3   v055
        BYTE   W66
        BYTE   PEND
// 005   ----------------------------------------
extend_ash_hourai_victim_000_3_5:
        BYTE   W24
        BYTE           N06     As3   v054
        BYTE   W06
        BYTE                   An3   v058
        BYTE   W06
        BYTE                   Gn3   v060
        BYTE   W06
        BYTE                   Dn3   v064
        BYTE   W06
        BYTE                   As2   v068
        BYTE   W06
        BYTE                   An2   v072
        BYTE   W06
        BYTE                   As2   v075
        BYTE   W06
        BYTE                   Cn3   v081
        BYTE   W06
        BYTE                   Dn3   v085
        BYTE   W06
        BYTE                   Gn3   v088
        BYTE   W06
        BYTE                   Gn3   v092
        BYTE   W06
        BYTE                   An3   v096
        BYTE   W06
        BYTE   PEND
// 006   ----------------------------------------
extend_ash_hourai_victim_000_3_6:
        BYTE           N06     As2   v098
        BYTE   W06
        BYTE                   Cn3   v100
        BYTE   W06
        BYTE                   Dn3   v097
        BYTE   W06
        BYTE                   Gn3   v091
        BYTE   W06
        BYTE                   An3   v083
        BYTE   W06
        BYTE                   As3   v076
        BYTE   W06
        BYTE                   Dn4   v066
        BYTE   W06
        BYTE                   An3   v042
        BYTE   W06
        BYTE                   As3   v034
        BYTE   W48
        BYTE   PEND
// 007   ----------------------------------------
extend_ash_hourai_victim_000_3_7:
        BYTE   W24
        BYTE           N06     As3   v054
        BYTE   W06
        BYTE                   An3   v067
        BYTE   W06
        BYTE                   Gn3   v073
        BYTE   W06
        BYTE                   Dn3   v076
        BYTE   W06
        BYTE                   As2   v079
        BYTE   W06
        BYTE                   An2   v082
        BYTE   W06
        BYTE                   As2   v085
        BYTE   W06
        BYTE                   Cn3   v087
        BYTE   W06
        BYTE                   Dn3   v090
        BYTE   W06
        BYTE                   Gn3   v093
        BYTE   W06
        BYTE                   Gn3   v094
        BYTE   W06
        BYTE                   An3   v097
        BYTE   W06
        BYTE   PEND
// 008   ----------------------------------------
        BYTE   PATT
         POIN2  extend_ash_hourai_victim_000_3_4
// 009   ----------------------------------------
        BYTE   PATT
         POIN2  extend_ash_hourai_victim_000_3_5
// 010   ----------------------------------------
        BYTE   PATT
         POIN2  extend_ash_hourai_victim_000_3_6
// 011   ----------------------------------------
        BYTE   PATT
         POIN2  extend_ash_hourai_victim_000_3_7
// 012   ----------------------------------------
        BYTE   W96
// 013   ----------------------------------------
        BYTE   W96
// 014   ----------------------------------------
        BYTE   W96
// 015   ----------------------------------------
        BYTE   W96
// 016   ----------------------------------------
        BYTE   W96
// 017   ----------------------------------------
        BYTE   W96
// 018   ----------------------------------------
        BYTE   W96
// 019   ----------------------------------------
        BYTE   W96
// 020   ----------------------------------------
        BYTE   PATT
         POIN2  extend_ash_hourai_victim_000_3_4
// 021   ----------------------------------------
        BYTE   PATT
         POIN2  extend_ash_hourai_victim_000_3_5
// 022   ----------------------------------------
        BYTE   PATT
         POIN2  extend_ash_hourai_victim_000_3_6
// 023   ----------------------------------------
        BYTE   PATT
         POIN2  extend_ash_hourai_victim_000_3_7
// 024   ----------------------------------------
        BYTE   PATT
         POIN2  extend_ash_hourai_victim_000_3_4
// 025   ----------------------------------------
        BYTE   PATT
         POIN2  extend_ash_hourai_victim_000_3_5
// 026   ----------------------------------------
        BYTE   PATT
         POIN2  extend_ash_hourai_victim_000_3_6
// 027   ----------------------------------------
        BYTE   PATT
         POIN2  extend_ash_hourai_victim_000_3_7
// 028   ----------------------------------------
        BYTE   PATT
         POIN2  extend_ash_hourai_victim_000_3_4
// 029   ----------------------------------------
        BYTE   PATT
         POIN2  extend_ash_hourai_victim_000_3_5
// 030   ----------------------------------------
        BYTE   PATT
         POIN2  extend_ash_hourai_victim_000_3_6
// 031   ----------------------------------------
        BYTE   PATT
         POIN2  extend_ash_hourai_victim_000_3_7
// 032   ----------------------------------------
        BYTE   PATT
         POIN2  extend_ash_hourai_victim_000_3_4
// 033   ----------------------------------------
        BYTE   PATT
         POIN2  extend_ash_hourai_victim_000_3_5
// 034   ----------------------------------------
        BYTE   PATT
         POIN2  extend_ash_hourai_victim_000_3_6
// 035   ----------------------------------------
        BYTE   PATT
         POIN2  extend_ash_hourai_victim_000_3_7
// 036   ----------------------------------------
        BYTE   W96
// 037   ----------------------------------------
        BYTE   W96
// 038   ----------------------------------------
        BYTE   W96
// 039   ----------------------------------------
        BYTE   W96
// 040   ----------------------------------------
        BYTE   W96
// 041   ----------------------------------------
        BYTE   W96
// 042   ----------------------------------------
        BYTE   W96
// 043   ----------------------------------------
        BYTE   W96
// 044   ----------------------------------------
        BYTE   PATT
         POIN2  extend_ash_hourai_victim_000_3_4
// 045   ----------------------------------------
        BYTE   PATT
         POIN2  extend_ash_hourai_victim_000_3_5
// 046   ----------------------------------------
        BYTE   PATT
         POIN2  extend_ash_hourai_victim_000_3_6
// 047   ----------------------------------------
        BYTE   PATT
         POIN2  extend_ash_hourai_victim_000_3_7
// 048   ----------------------------------------
        BYTE   PATT
         POIN2  extend_ash_hourai_victim_000_3_4
// 049   ----------------------------------------
        BYTE   PATT
         POIN2  extend_ash_hourai_victim_000_3_5
// 050   ----------------------------------------
        BYTE   PATT
         POIN2  extend_ash_hourai_victim_000_3_6
// 051   ----------------------------------------
        BYTE   PATT
         POIN2  extend_ash_hourai_victim_000_3_7
// 052   ----------------------------------------
        BYTE   W96
// 053   ----------------------------------------
        BYTE   W96
// 054   ----------------------------------------
        BYTE   W96
// 055   ----------------------------------------
        BYTE   W96
// 056   ----------------------------------------
        BYTE   W96
// 057   ----------------------------------------
        BYTE   W96
// 058   ----------------------------------------
        BYTE   W96
// 059   ----------------------------------------
        BYTE   W96
// 060   ----------------------------------------
        BYTE   PATT
         POIN2  extend_ash_hourai_victim_000_3_4
// 061   ----------------------------------------
        BYTE   PATT
         POIN2  extend_ash_hourai_victim_000_3_5
// 062   ----------------------------------------
        BYTE   PATT
         POIN2  extend_ash_hourai_victim_000_3_6
// 063   ----------------------------------------
        BYTE   PATT
         POIN2  extend_ash_hourai_victim_000_3_7
// 064   ----------------------------------------
        BYTE   PATT
         POIN2  extend_ash_hourai_victim_000_3_4
// 065   ----------------------------------------
        BYTE   PATT
         POIN2  extend_ash_hourai_victim_000_3_5
// 066   ----------------------------------------
        BYTE   PATT
         POIN2  extend_ash_hourai_victim_000_3_6
// 067   ----------------------------------------
        BYTE   PATT
         POIN2  extend_ash_hourai_victim_000_3_7
// 068   ----------------------------------------
        BYTE   W96
// 069   ----------------------------------------
        BYTE   W96
// 070   ----------------------------------------
        BYTE   W96
// 071   ----------------------------------------
        BYTE   W96
// 072   ----------------------------------------
        BYTE   W96
// 073   ----------------------------------------
        BYTE   W96
// 074   ----------------------------------------
        BYTE   W96
// 075   ----------------------------------------
        BYTE   W96
// 076   ----------------------------------------
        BYTE   W96
// 077   ----------------------------------------
        BYTE   W96
// 078   ----------------------------------------
        BYTE   W96
// 079   ----------------------------------------
        BYTE   W96
// 080   ----------------------------------------
        BYTE   W96
// 081   ----------------------------------------
        BYTE   W96
// 082   ----------------------------------------
        BYTE   W96
// 083   ----------------------------------------
        BYTE   W96
// 084   ----------------------------------------
        BYTE   W96
// 085   ----------------------------------------
        BYTE   W96
// 086   ----------------------------------------
        BYTE   W96
// 087   ----------------------------------------
        BYTE   W96
// 088   ----------------------------------------
        BYTE   W96
// 089   ----------------------------------------
        BYTE   W96
// 090   ----------------------------------------
        BYTE   W96
// 091   ----------------------------------------
        BYTE   W96
// 092   ----------------------------------------
        BYTE   W96
// 093   ----------------------------------------
        BYTE   W96
// 094   ----------------------------------------
        BYTE   W96
// 095   ----------------------------------------
        BYTE   W96
// 096   ----------------------------------------
        BYTE   W96
// 097   ----------------------------------------
        BYTE   W96
// 098   ----------------------------------------
        BYTE   W96
// 099   ----------------------------------------
        BYTE   W96
// 100   ----------------------------------------
        BYTE   W96
// 101   ----------------------------------------
        BYTE   W96
// 102   ----------------------------------------
        BYTE   W96
// 103   ----------------------------------------
        BYTE   W96
// 104   ----------------------------------------
        BYTE   PATT
         POIN2  extend_ash_hourai_victim_000_3_4
// 105   ----------------------------------------
        BYTE   PATT
         POIN2  extend_ash_hourai_victim_000_3_5
// 106   ----------------------------------------
        BYTE   PATT
         POIN2  extend_ash_hourai_victim_000_3_6
// 107   ----------------------------------------
        BYTE   PATT
         POIN2  extend_ash_hourai_victim_000_3_7
// 108   ----------------------------------------
        BYTE   PATT
         POIN2  extend_ash_hourai_victim_000_3_4
// 109   ----------------------------------------
        BYTE   PATT
         POIN2  extend_ash_hourai_victim_000_3_5
// 110   ----------------------------------------
        BYTE   PATT
         POIN2  extend_ash_hourai_victim_000_3_6
// 111   ----------------------------------------
        BYTE   PATT
         POIN2  extend_ash_hourai_victim_000_3_7
// 112   ----------------------------------------
        BYTE   W96
// 113   ----------------------------------------
        BYTE   W96
// 114   ----------------------------------------
        BYTE   W96
// 115   ----------------------------------------
        BYTE   W96
// 116   ----------------------------------------
        BYTE   W96
// 117   ----------------------------------------
        BYTE   W96
// 118   ----------------------------------------
        BYTE   W96
// 119   ----------------------------------------
        BYTE   W96
// 120   ----------------------------------------
        BYTE   PATT
         POIN2  extend_ash_hourai_victim_000_3_4
// 121   ----------------------------------------
        BYTE   PATT
         POIN2  extend_ash_hourai_victim_000_3_5
// 122   ----------------------------------------
        BYTE   PATT
         POIN2  extend_ash_hourai_victim_000_3_6
// 123   ----------------------------------------
        BYTE   PATT
         POIN2  extend_ash_hourai_victim_000_3_7
// 124   ----------------------------------------
        BYTE   PATT
         POIN2  extend_ash_hourai_victim_000_3_4
// 125   ----------------------------------------
        BYTE   PATT
         POIN2  extend_ash_hourai_victim_000_3_5
// 126   ----------------------------------------
        BYTE   PATT
         POIN2  extend_ash_hourai_victim_000_3_6
// 127   ----------------------------------------
        BYTE   PATT
         POIN2  extend_ash_hourai_victim_000_3_7
// 128   ----------------------------------------
        BYTE   PATT
         POIN2  extend_ash_hourai_victim_000_3_4
// 129   ----------------------------------------
        BYTE   PATT
         POIN2  extend_ash_hourai_victim_000_3_5
// 130   ----------------------------------------
        BYTE   PATT
         POIN2  extend_ash_hourai_victim_000_3_6
// 131   ----------------------------------------
        BYTE   PATT
         POIN2  extend_ash_hourai_victim_000_3_7
// 132   ----------------------------------------
        BYTE   PATT
         POIN2  extend_ash_hourai_victim_000_3_4
// 133   ----------------------------------------
        BYTE   PATT
         POIN2  extend_ash_hourai_victim_000_3_5
// 134   ----------------------------------------
        BYTE   PATT
         POIN2  extend_ash_hourai_victim_000_3_6
// 135   ----------------------------------------
        BYTE   PATT
         POIN2  extend_ash_hourai_victim_000_3_7
// 136   ----------------------------------------
        BYTE   W96
// 137   ----------------------------------------
        BYTE   W96
// 138   ----------------------------------------
        BYTE   W96
// 139   ----------------------------------------
        BYTE   W96
// 140   ----------------------------------------
        BYTE   W96
// 141   ----------------------------------------
        BYTE   W96
// 142   ----------------------------------------
        BYTE   W96
// 143   ----------------------------------------
        BYTE   W96
// 144   ----------------------------------------
        BYTE   PATT
         POIN2  extend_ash_hourai_victim_000_3_4
// 145   ----------------------------------------
        BYTE   PATT
         POIN2  extend_ash_hourai_victim_000_3_5
// 146   ----------------------------------------
        BYTE   PATT
         POIN2  extend_ash_hourai_victim_000_3_6
// 147   ----------------------------------------
        BYTE   PATT
         POIN2  extend_ash_hourai_victim_000_3_7
// 148   ----------------------------------------
        BYTE   PATT
         POIN2  extend_ash_hourai_victim_000_3_4
// 149   ----------------------------------------
        BYTE   PATT
         POIN2  extend_ash_hourai_victim_000_3_5
// 150   ----------------------------------------
        BYTE   PATT
         POIN2  extend_ash_hourai_victim_000_3_6
// 151   ----------------------------------------
        BYTE   PATT
         POIN2  extend_ash_hourai_victim_000_3_7
// 152   ----------------------------------------
        BYTE   W96
// 153   ----------------------------------------
        BYTE   W96
// 154   ----------------------------------------
        BYTE   W96
// 155   ----------------------------------------
        BYTE   W96
// 156   ----------------------------------------
        BYTE   W96
// 157   ----------------------------------------
        BYTE   W96
// 158   ----------------------------------------
        BYTE   W96
// 159   ----------------------------------------
        BYTE   W96
// 160   ----------------------------------------
        BYTE   PATT
         POIN2  extend_ash_hourai_victim_000_3_4
// 161   ----------------------------------------
        BYTE   PATT
         POIN2  extend_ash_hourai_victim_000_3_5
// 162   ----------------------------------------
        BYTE   PATT
         POIN2  extend_ash_hourai_victim_000_3_6
// 163   ----------------------------------------
        BYTE   PATT
         POIN2  extend_ash_hourai_victim_000_3_7
// 164   ----------------------------------------
        BYTE   PATT
         POIN2  extend_ash_hourai_victim_000_3_4
// 165   ----------------------------------------
        BYTE   PATT
         POIN2  extend_ash_hourai_victim_000_3_5
// 166   ----------------------------------------
        BYTE   PATT
         POIN2  extend_ash_hourai_victim_000_3_6
// 167   ----------------------------------------
        BYTE   PATT
         POIN2  extend_ash_hourai_victim_000_3_7
// 168   ----------------------------------------
        BYTE   W96
// 169   ----------------------------------------
        BYTE   W96
// 170   ----------------------------------------
        BYTE   W96
// 171   ----------------------------------------
        BYTE   W96
// 172   ----------------------------------------
        BYTE   W96
// 173   ----------------------------------------
        BYTE   W96
// 174   ----------------------------------------
        BYTE   W96
// 175   ----------------------------------------
        BYTE   W96
// 176   ----------------------------------------
        BYTE   W96
// 177   ----------------------------------------
        BYTE   W96
// 178   ----------------------------------------
        BYTE   W96
// 179   ----------------------------------------
        BYTE   W96
// 180   ----------------------------------------
        BYTE   W96
// 181   ----------------------------------------
        BYTE   W96
// 182   ----------------------------------------
        BYTE   W96
// 183   ----------------------------------------
        BYTE   W96
// 184   ----------------------------------------
        BYTE   W96
// 185   ----------------------------------------
        BYTE   W96
// 186   ----------------------------------------
        BYTE   W96
// 187   ----------------------------------------
        BYTE   W96
// 188   ----------------------------------------
        BYTE   W96
// 189   ----------------------------------------
        BYTE   W96
// 190   ----------------------------------------
        BYTE   W96
// 191   ----------------------------------------
        BYTE   W96
// 192   ----------------------------------------
        BYTE   W96
// 193   ----------------------------------------
        BYTE   W96
// 194   ----------------------------------------
        BYTE   W96
// 195   ----------------------------------------
        BYTE   W96
// 196   ----------------------------------------
        BYTE   W96
// 197   ----------------------------------------
        BYTE   W96
// 198   ----------------------------------------
        BYTE   W96
// 199   ----------------------------------------
        BYTE   W92
        BYTE   W01
        BYTE   GoTo
         POIN2  extend_ash_hourai_victim_000_3_LOOP
        BYTE   W03
// 200   ----------------------------------------
        BYTE   FINE

//****************** Track 4 (Midi-Chn.4) ******************//

extend_ash_hourai_victim_000_4:
        BYTE   KEYSH   extend_ash_hourai_victim_000_key+0
// 000   ----------------------------------------
extend_ash_hourai_victim_000_4_LOOP:
        BYTE           VOICE   4
        BYTE           VOL     24
        BYTE           BENDR   12
        BYTE   W96
// 001   ----------------------------------------
        BYTE   W96
// 002   ----------------------------------------
        BYTE   W96
// 003   ----------------------------------------
        BYTE   W96
// 004   ----------------------------------------
        BYTE   W96
// 005   ----------------------------------------
        BYTE   W96
// 006   ----------------------------------------
        BYTE   W96
// 007   ----------------------------------------
        BYTE   W96
// 008   ----------------------------------------
        BYTE   W96
// 009   ----------------------------------------
        BYTE   W96
// 010   ----------------------------------------
        BYTE   W96
// 011   ----------------------------------------
        BYTE   W96
// 012   ----------------------------------------
        BYTE   W96
// 013   ----------------------------------------
        BYTE   W96
// 014   ----------------------------------------
        BYTE   W96
// 015   ----------------------------------------
        BYTE   W96
// 016   ----------------------------------------
        BYTE   W96
// 017   ----------------------------------------
        BYTE   W96
// 018   ----------------------------------------
        BYTE   W96
// 019   ----------------------------------------
        BYTE   W96
// 020   ----------------------------------------
        BYTE   W96
// 021   ----------------------------------------
        BYTE   W96
// 022   ----------------------------------------
        BYTE   W96
// 023   ----------------------------------------
        BYTE   W96
// 024   ----------------------------------------
        BYTE   W96
// 025   ----------------------------------------
        BYTE   W96
// 026   ----------------------------------------
        BYTE   W96
// 027   ----------------------------------------
        BYTE   W96
// 028   ----------------------------------------
        BYTE   W96
// 029   ----------------------------------------
        BYTE   W96
// 030   ----------------------------------------
        BYTE   W96
// 031   ----------------------------------------
        BYTE   W96
// 032   ----------------------------------------
        BYTE   W96
// 033   ----------------------------------------
        BYTE   W96
// 034   ----------------------------------------
        BYTE   W96
// 035   ----------------------------------------
        BYTE   W96
// 036   ----------------------------------------
        BYTE   W96
// 037   ----------------------------------------
        BYTE   W96
// 038   ----------------------------------------
        BYTE   W96
// 039   ----------------------------------------
        BYTE   W96
// 040   ----------------------------------------
        BYTE   W96
// 041   ----------------------------------------
        BYTE   W96
// 042   ----------------------------------------
        BYTE   W96
// 043   ----------------------------------------
        BYTE   W96
// 044   ----------------------------------------
        BYTE   W96
// 045   ----------------------------------------
        BYTE   W96
// 046   ----------------------------------------
        BYTE   W96
// 047   ----------------------------------------
        BYTE   W96
// 048   ----------------------------------------
        BYTE   W96
// 049   ----------------------------------------
        BYTE   W96
// 050   ----------------------------------------
        BYTE   W96
// 051   ----------------------------------------
        BYTE   W96
// 052   ----------------------------------------
        BYTE   W96
// 053   ----------------------------------------
        BYTE   W96
// 054   ----------------------------------------
        BYTE   W96
// 055   ----------------------------------------
        BYTE   W96
// 056   ----------------------------------------
        BYTE   W96
// 057   ----------------------------------------
        BYTE   W96
// 058   ----------------------------------------
        BYTE   W96
// 059   ----------------------------------------
        BYTE   W96
// 060   ----------------------------------------
        BYTE   W96
// 061   ----------------------------------------
        BYTE   W96
// 062   ----------------------------------------
        BYTE   W96
// 063   ----------------------------------------
        BYTE   W96
// 064   ----------------------------------------
        BYTE   W96
// 065   ----------------------------------------
        BYTE   W96
// 066   ----------------------------------------
        BYTE   W96
// 067   ----------------------------------------
extend_ash_hourai_victim_000_4_67:
        BYTE   W48
        BYTE           N12     As2   v100
        BYTE   W12
        BYTE                   Cn3
        BYTE   W12
        BYTE                   Dn3
        BYTE   W12
        BYTE                   Fn3
        BYTE   W12
        BYTE   PEND
// 068   ----------------------------------------
        BYTE   PATT
         POIN2  extend_ash_hourai_victim_000_2_68
// 069   ----------------------------------------
        BYTE   PATT
         POIN2  extend_ash_hourai_victim_000_2_69
// 070   ----------------------------------------
        BYTE   PATT
         POIN2  extend_ash_hourai_victim_000_2_70
// 071   ----------------------------------------
        BYTE   PATT
         POIN2  extend_ash_hourai_victim_000_2_71
// 072   ----------------------------------------
        BYTE   PATT
         POIN2  extend_ash_hourai_victim_000_2_68
// 073   ----------------------------------------
        BYTE   PATT
         POIN2  extend_ash_hourai_victim_000_2_69
// 074   ----------------------------------------
        BYTE   PATT
         POIN2  extend_ash_hourai_victim_000_2_74
// 075   ----------------------------------------
        BYTE   PATT
         POIN2  extend_ash_hourai_victim_000_2_75
// 076   ----------------------------------------
        BYTE   PATT
         POIN2  extend_ash_hourai_victim_000_2_68
// 077   ----------------------------------------
        BYTE   PATT
         POIN2  extend_ash_hourai_victim_000_2_69
// 078   ----------------------------------------
        BYTE   PATT
         POIN2  extend_ash_hourai_victim_000_2_70
// 079   ----------------------------------------
        BYTE   PATT
         POIN2  extend_ash_hourai_victim_000_2_71
// 080   ----------------------------------------
        BYTE   PATT
         POIN2  extend_ash_hourai_victim_000_2_68
// 081   ----------------------------------------
        BYTE   PATT
         POIN2  extend_ash_hourai_victim_000_2_69
// 082   ----------------------------------------
        BYTE   PATT
         POIN2  extend_ash_hourai_victim_000_2_74
// 083   ----------------------------------------
        BYTE   PATT
         POIN2  extend_ash_hourai_victim_000_2_75
// 084   ----------------------------------------
        BYTE   PATT
         POIN2  extend_ash_hourai_victim_000_2_84
// 085   ----------------------------------------
        BYTE   PATT
         POIN2  extend_ash_hourai_victim_000_2_85
// 086   ----------------------------------------
        BYTE   PATT
         POIN2  extend_ash_hourai_victim_000_2_86
// 087   ----------------------------------------
        BYTE   PATT
         POIN2  extend_ash_hourai_victim_000_2_87
// 088   ----------------------------------------
        BYTE   PATT
         POIN2  extend_ash_hourai_victim_000_2_84
// 089   ----------------------------------------
        BYTE   PATT
         POIN2  extend_ash_hourai_victim_000_2_85
// 090   ----------------------------------------
        BYTE   PATT
         POIN2  extend_ash_hourai_victim_000_2_90
// 091   ----------------------------------------
        BYTE   PATT
         POIN2  extend_ash_hourai_victim_000_2_91
// 092   ----------------------------------------
        BYTE   PATT
         POIN2  extend_ash_hourai_victim_000_2_84
// 093   ----------------------------------------
        BYTE   PATT
         POIN2  extend_ash_hourai_victim_000_2_85
// 094   ----------------------------------------
        BYTE   PATT
         POIN2  extend_ash_hourai_victim_000_2_86
// 095   ----------------------------------------
        BYTE   PATT
         POIN2  extend_ash_hourai_victim_000_2_87
// 096   ----------------------------------------
        BYTE   PATT
         POIN2  extend_ash_hourai_victim_000_2_84
// 097   ----------------------------------------
        BYTE   PATT
         POIN2  extend_ash_hourai_victim_000_2_85
// 098   ----------------------------------------
        BYTE   PATT
         POIN2  extend_ash_hourai_victim_000_2_90
// 099   ----------------------------------------
        BYTE   PATT
         POIN2  extend_ash_hourai_victim_000_2_91
// 100   ----------------------------------------
        BYTE   W96
// 101   ----------------------------------------
        BYTE   W96
// 102   ----------------------------------------
        BYTE   W96
// 103   ----------------------------------------
        BYTE   W96
// 104   ----------------------------------------
        BYTE   W96
// 105   ----------------------------------------
        BYTE   W96
// 106   ----------------------------------------
        BYTE   W96
// 107   ----------------------------------------
        BYTE   W96
// 108   ----------------------------------------
        BYTE   W96
// 109   ----------------------------------------
        BYTE   W96
// 110   ----------------------------------------
        BYTE   W96
// 111   ----------------------------------------
        BYTE   W96
// 112   ----------------------------------------
        BYTE   W96
// 113   ----------------------------------------
        BYTE   W96
// 114   ----------------------------------------
        BYTE   W96
// 115   ----------------------------------------
        BYTE   W96
// 116   ----------------------------------------
        BYTE   W96
// 117   ----------------------------------------
        BYTE   W96
// 118   ----------------------------------------
        BYTE   W96
// 119   ----------------------------------------
        BYTE   W96
// 120   ----------------------------------------
        BYTE   W96
// 121   ----------------------------------------
        BYTE   W96
// 122   ----------------------------------------
        BYTE   W96
// 123   ----------------------------------------
        BYTE   W96
// 124   ----------------------------------------
        BYTE   W96
// 125   ----------------------------------------
        BYTE   W96
// 126   ----------------------------------------
        BYTE   W96
// 127   ----------------------------------------
        BYTE   W96
// 128   ----------------------------------------
        BYTE   W96
// 129   ----------------------------------------
        BYTE   W96
// 130   ----------------------------------------
        BYTE   W96
// 131   ----------------------------------------
        BYTE   W96
// 132   ----------------------------------------
        BYTE   W96
// 133   ----------------------------------------
        BYTE   W96
// 134   ----------------------------------------
        BYTE   W96
// 135   ----------------------------------------
        BYTE   W96
// 136   ----------------------------------------
        BYTE   W96
// 137   ----------------------------------------
        BYTE   W96
// 138   ----------------------------------------
        BYTE   W96
// 139   ----------------------------------------
        BYTE   W96
// 140   ----------------------------------------
        BYTE   W96
// 141   ----------------------------------------
        BYTE   W96
// 142   ----------------------------------------
        BYTE   W96
// 143   ----------------------------------------
        BYTE   W96
// 144   ----------------------------------------
        BYTE   W96
// 145   ----------------------------------------
        BYTE   W96
// 146   ----------------------------------------
        BYTE   W96
// 147   ----------------------------------------
        BYTE   W96
// 148   ----------------------------------------
        BYTE   W96
// 149   ----------------------------------------
        BYTE   W96
// 150   ----------------------------------------
        BYTE   W96
// 151   ----------------------------------------
        BYTE   W96
// 152   ----------------------------------------
        BYTE   W96
// 153   ----------------------------------------
        BYTE   W96
// 154   ----------------------------------------
        BYTE   W96
// 155   ----------------------------------------
        BYTE   W96
// 156   ----------------------------------------
        BYTE   W96
// 157   ----------------------------------------
        BYTE   W96
// 158   ----------------------------------------
        BYTE   W96
// 159   ----------------------------------------
        BYTE   W96
// 160   ----------------------------------------
        BYTE   W96
// 161   ----------------------------------------
        BYTE   W96
// 162   ----------------------------------------
        BYTE   W96
// 163   ----------------------------------------
        BYTE   W96
// 164   ----------------------------------------
        BYTE   W96
// 165   ----------------------------------------
        BYTE   W96
// 166   ----------------------------------------
        BYTE   W96
// 167   ----------------------------------------
        BYTE   PATT
         POIN2  extend_ash_hourai_victim_000_4_67
// 168   ----------------------------------------
        BYTE   PATT
         POIN2  extend_ash_hourai_victim_000_2_68
// 169   ----------------------------------------
        BYTE   PATT
         POIN2  extend_ash_hourai_victim_000_2_69
// 170   ----------------------------------------
        BYTE   PATT
         POIN2  extend_ash_hourai_victim_000_2_70
// 171   ----------------------------------------
        BYTE   PATT
         POIN2  extend_ash_hourai_victim_000_2_71
// 172   ----------------------------------------
        BYTE   PATT
         POIN2  extend_ash_hourai_victim_000_2_68
// 173   ----------------------------------------
        BYTE   PATT
         POIN2  extend_ash_hourai_victim_000_2_69
// 174   ----------------------------------------
        BYTE   PATT
         POIN2  extend_ash_hourai_victim_000_2_74
// 175   ----------------------------------------
        BYTE   PATT
         POIN2  extend_ash_hourai_victim_000_2_75
// 176   ----------------------------------------
        BYTE   PATT
         POIN2  extend_ash_hourai_victim_000_2_68
// 177   ----------------------------------------
        BYTE   PATT
         POIN2  extend_ash_hourai_victim_000_2_69
// 178   ----------------------------------------
        BYTE   PATT
         POIN2  extend_ash_hourai_victim_000_2_70
// 179   ----------------------------------------
        BYTE   PATT
         POIN2  extend_ash_hourai_victim_000_2_71
// 180   ----------------------------------------
        BYTE   PATT
         POIN2  extend_ash_hourai_victim_000_2_68
// 181   ----------------------------------------
        BYTE   PATT
         POIN2  extend_ash_hourai_victim_000_2_69
// 182   ----------------------------------------
        BYTE   PATT
         POIN2  extend_ash_hourai_victim_000_2_74
// 183   ----------------------------------------
        BYTE   PATT
         POIN2  extend_ash_hourai_victim_000_2_75
// 184   ----------------------------------------
        BYTE   PATT
         POIN2  extend_ash_hourai_victim_000_2_84
// 185   ----------------------------------------
        BYTE   PATT
         POIN2  extend_ash_hourai_victim_000_2_85
// 186   ----------------------------------------
        BYTE   PATT
         POIN2  extend_ash_hourai_victim_000_2_86
// 187   ----------------------------------------
        BYTE   PATT
         POIN2  extend_ash_hourai_victim_000_2_87
// 188   ----------------------------------------
        BYTE   PATT
         POIN2  extend_ash_hourai_victim_000_2_84
// 189   ----------------------------------------
        BYTE   PATT
         POIN2  extend_ash_hourai_victim_000_2_85
// 190   ----------------------------------------
        BYTE   PATT
         POIN2  extend_ash_hourai_victim_000_2_90
// 191   ----------------------------------------
        BYTE   PATT
         POIN2  extend_ash_hourai_victim_000_2_91
// 192   ----------------------------------------
        BYTE   PATT
         POIN2  extend_ash_hourai_victim_000_2_84
// 193   ----------------------------------------
        BYTE   PATT
         POIN2  extend_ash_hourai_victim_000_2_85
// 194   ----------------------------------------
        BYTE   PATT
         POIN2  extend_ash_hourai_victim_000_2_86
// 195   ----------------------------------------
        BYTE   PATT
         POIN2  extend_ash_hourai_victim_000_2_87
// 196   ----------------------------------------
        BYTE   PATT
         POIN2  extend_ash_hourai_victim_000_2_84
// 197   ----------------------------------------
        BYTE   PATT
         POIN2  extend_ash_hourai_victim_000_2_85
// 198   ----------------------------------------
        BYTE   PATT
         POIN2  extend_ash_hourai_victim_000_2_90
// 199   ----------------------------------------
        BYTE           N36     An4   v100
        BYTE   W36
        BYTE           N12     Bn4
        BYTE   W12
        BYTE           N48     Gn4
        BYTE   W44
        BYTE   W01
        BYTE   GoTo
         POIN2  extend_ash_hourai_victim_000_4_LOOP
        BYTE   W03
// 200   ----------------------------------------
        BYTE   FINE

//****************** Track 5 (Midi-Chn.5) ******************//

extend_ash_hourai_victim_000_5:
        BYTE   KEYSH   extend_ash_hourai_victim_000_key+0
// 000   ----------------------------------------
extend_ash_hourai_victim_000_5_LOOP:
        BYTE           VOICE   36
        BYTE           BENDR   12
        BYTE           VOL     27
        BYTE   W96
// 001   ----------------------------------------
        BYTE   W96
// 002   ----------------------------------------
        BYTE   W96
// 003   ----------------------------------------
        BYTE   W96
// 004   ----------------------------------------
extend_ash_hourai_victim_000_5_4:
        BYTE           N12     Gn1   v100
        BYTE   W12
        BYTE                   Dn2
        BYTE   W12
        BYTE                   Gn1
        BYTE   W12
        BYTE                   Dn2
        BYTE   W12
        BYTE                   Gn1
        BYTE   W12
        BYTE                   Dn2
        BYTE   W12
        BYTE                   Gn1
        BYTE   W12
        BYTE                   Dn2
        BYTE   W12
        BYTE   PEND
// 005   ----------------------------------------
        BYTE   PATT
         POIN2  extend_ash_hourai_victim_000_5_4
// 006   ----------------------------------------
        BYTE   PATT
         POIN2  extend_ash_hourai_victim_000_5_4
// 007   ----------------------------------------
        BYTE   PATT
         POIN2  extend_ash_hourai_victim_000_5_4
// 008   ----------------------------------------
        BYTE   PATT
         POIN2  extend_ash_hourai_victim_000_5_4
// 009   ----------------------------------------
        BYTE   PATT
         POIN2  extend_ash_hourai_victim_000_5_4
// 010   ----------------------------------------
        BYTE   PATT
         POIN2  extend_ash_hourai_victim_000_5_4
// 011   ----------------------------------------
        BYTE   PATT
         POIN2  extend_ash_hourai_victim_000_5_4
// 012   ----------------------------------------
        BYTE   PATT
         POIN2  extend_ash_hourai_victim_000_5_4
// 013   ----------------------------------------
extend_ash_hourai_victim_000_5_13:
        BYTE           N12     Ds1   v100
        BYTE   W12
        BYTE                   As1
        BYTE   W12
        BYTE                   Ds1
        BYTE   W12
        BYTE                   As1
        BYTE   W12
        BYTE                   Ds1
        BYTE   W12
        BYTE                   As1
        BYTE   W12
        BYTE                   Ds1
        BYTE   W12
        BYTE                   As1
        BYTE   W12
        BYTE   PEND
// 014   ----------------------------------------
extend_ash_hourai_victim_000_5_14:
        BYTE           N12     Fn1   v100
        BYTE   W12
        BYTE                   Cn2
        BYTE   W12
        BYTE                   Fn1
        BYTE   W12
        BYTE                   Cn2
        BYTE   W12
        BYTE                   Fn1
        BYTE   W12
        BYTE                   Cn2
        BYTE   W12
        BYTE                   Fn1
        BYTE   W12
        BYTE                   Cn2
        BYTE   W12
        BYTE   PEND
// 015   ----------------------------------------
extend_ash_hourai_victim_000_5_15:
        BYTE           N12     Fs1   v100
        BYTE   W12
        BYTE                   Cn2
        BYTE   W12
        BYTE                   Fs1
        BYTE   W12
        BYTE                   Cn2
        BYTE   W12
        BYTE                   Fs1
        BYTE   W12
        BYTE                   Dn2
        BYTE   W12
        BYTE                   Fs1
        BYTE   W12
        BYTE                   Dn2
        BYTE   W12
        BYTE   PEND
// 016   ----------------------------------------
        BYTE   PATT
         POIN2  extend_ash_hourai_victim_000_5_4
// 017   ----------------------------------------
        BYTE   PATT
         POIN2  extend_ash_hourai_victim_000_5_13
// 018   ----------------------------------------
        BYTE   PATT
         POIN2  extend_ash_hourai_victim_000_5_14
// 019   ----------------------------------------
        BYTE   PATT
         POIN2  extend_ash_hourai_victim_000_5_15
// 020   ----------------------------------------
        BYTE   PATT
         POIN2  extend_ash_hourai_victim_000_5_4
// 021   ----------------------------------------
        BYTE   PATT
         POIN2  extend_ash_hourai_victim_000_5_13
// 022   ----------------------------------------
        BYTE   PATT
         POIN2  extend_ash_hourai_victim_000_5_14
// 023   ----------------------------------------
        BYTE   PATT
         POIN2  extend_ash_hourai_victim_000_5_15
// 024   ----------------------------------------
        BYTE   PATT
         POIN2  extend_ash_hourai_victim_000_5_4
// 025   ----------------------------------------
        BYTE   PATT
         POIN2  extend_ash_hourai_victim_000_5_13
// 026   ----------------------------------------
        BYTE   PATT
         POIN2  extend_ash_hourai_victim_000_5_14
// 027   ----------------------------------------
        BYTE   PATT
         POIN2  extend_ash_hourai_victim_000_5_15
// 028   ----------------------------------------
        BYTE   PATT
         POIN2  extend_ash_hourai_victim_000_5_4
// 029   ----------------------------------------
        BYTE   PATT
         POIN2  extend_ash_hourai_victim_000_5_4
// 030   ----------------------------------------
        BYTE   PATT
         POIN2  extend_ash_hourai_victim_000_5_4
// 031   ----------------------------------------
        BYTE   PATT
         POIN2  extend_ash_hourai_victim_000_5_4
// 032   ----------------------------------------
        BYTE   PATT
         POIN2  extend_ash_hourai_victim_000_5_4
// 033   ----------------------------------------
        BYTE   PATT
         POIN2  extend_ash_hourai_victim_000_5_4
// 034   ----------------------------------------
        BYTE   PATT
         POIN2  extend_ash_hourai_victim_000_5_4
// 035   ----------------------------------------
        BYTE   PATT
         POIN2  extend_ash_hourai_victim_000_5_4
// 036   ----------------------------------------
        BYTE   PATT
         POIN2  extend_ash_hourai_victim_000_5_4
// 037   ----------------------------------------
        BYTE   PATT
         POIN2  extend_ash_hourai_victim_000_5_13
// 038   ----------------------------------------
        BYTE   PATT
         POIN2  extend_ash_hourai_victim_000_5_14
// 039   ----------------------------------------
        BYTE   PATT
         POIN2  extend_ash_hourai_victim_000_5_15
// 040   ----------------------------------------
        BYTE   PATT
         POIN2  extend_ash_hourai_victim_000_5_4
// 041   ----------------------------------------
        BYTE   PATT
         POIN2  extend_ash_hourai_victim_000_5_13
// 042   ----------------------------------------
        BYTE   PATT
         POIN2  extend_ash_hourai_victim_000_5_14
// 043   ----------------------------------------
        BYTE   PATT
         POIN2  extend_ash_hourai_victim_000_5_15
// 044   ----------------------------------------
        BYTE   PATT
         POIN2  extend_ash_hourai_victim_000_5_4
// 045   ----------------------------------------
        BYTE   PATT
         POIN2  extend_ash_hourai_victim_000_5_13
// 046   ----------------------------------------
        BYTE   PATT
         POIN2  extend_ash_hourai_victim_000_5_14
// 047   ----------------------------------------
        BYTE   PATT
         POIN2  extend_ash_hourai_victim_000_5_15
// 048   ----------------------------------------
        BYTE   PATT
         POIN2  extend_ash_hourai_victim_000_5_4
// 049   ----------------------------------------
        BYTE   PATT
         POIN2  extend_ash_hourai_victim_000_5_13
// 050   ----------------------------------------
        BYTE   PATT
         POIN2  extend_ash_hourai_victim_000_5_14
// 051   ----------------------------------------
        BYTE   PATT
         POIN2  extend_ash_hourai_victim_000_5_15
// 052   ----------------------------------------
        BYTE   PATT
         POIN2  extend_ash_hourai_victim_000_5_4
// 053   ----------------------------------------
        BYTE   PATT
         POIN2  extend_ash_hourai_victim_000_5_13
// 054   ----------------------------------------
        BYTE   PATT
         POIN2  extend_ash_hourai_victim_000_5_14
// 055   ----------------------------------------
        BYTE   PATT
         POIN2  extend_ash_hourai_victim_000_5_15
// 056   ----------------------------------------
        BYTE   PATT
         POIN2  extend_ash_hourai_victim_000_5_4
// 057   ----------------------------------------
        BYTE   PATT
         POIN2  extend_ash_hourai_victim_000_5_13
// 058   ----------------------------------------
        BYTE   PATT
         POIN2  extend_ash_hourai_victim_000_5_14
// 059   ----------------------------------------
        BYTE   PATT
         POIN2  extend_ash_hourai_victim_000_5_15
// 060   ----------------------------------------
        BYTE   PATT
         POIN2  extend_ash_hourai_victim_000_5_4
// 061   ----------------------------------------
        BYTE   PATT
         POIN2  extend_ash_hourai_victim_000_5_13
// 062   ----------------------------------------
        BYTE   PATT
         POIN2  extend_ash_hourai_victim_000_5_14
// 063   ----------------------------------------
        BYTE   PATT
         POIN2  extend_ash_hourai_victim_000_5_15
// 064   ----------------------------------------
        BYTE   PATT
         POIN2  extend_ash_hourai_victim_000_5_4
// 065   ----------------------------------------
        BYTE   PATT
         POIN2  extend_ash_hourai_victim_000_5_13
// 066   ----------------------------------------
        BYTE   PATT
         POIN2  extend_ash_hourai_victim_000_5_14
// 067   ----------------------------------------
        BYTE   PATT
         POIN2  extend_ash_hourai_victim_000_5_15
// 068   ----------------------------------------
        BYTE   W96
// 069   ----------------------------------------
        BYTE   W96
// 070   ----------------------------------------
        BYTE   W96
// 071   ----------------------------------------
        BYTE   W96
// 072   ----------------------------------------
        BYTE   W96
// 073   ----------------------------------------
        BYTE   W96
// 074   ----------------------------------------
        BYTE   W96
// 075   ----------------------------------------
        BYTE   W96
// 076   ----------------------------------------
        BYTE   PATT
         POIN2  extend_ash_hourai_victim_000_5_13
// 077   ----------------------------------------
        BYTE   PATT
         POIN2  extend_ash_hourai_victim_000_5_14
// 078   ----------------------------------------
extend_ash_hourai_victim_000_5_78:
        BYTE           N12     Fs1   v100
        BYTE   W12
        BYTE                   Cn2
        BYTE   W12
        BYTE                   Fs1
        BYTE   W12
        BYTE                   Cn2
        BYTE   W12
        BYTE                   Fs1
        BYTE   W12
        BYTE                   Cn2
        BYTE   W12
        BYTE                   Fs1
        BYTE   W12
        BYTE                   Cn2
        BYTE   W12
        BYTE   PEND
// 079   ----------------------------------------
        BYTE   PATT
         POIN2  extend_ash_hourai_victim_000_5_4
// 080   ----------------------------------------
        BYTE   PATT
         POIN2  extend_ash_hourai_victim_000_5_13
// 081   ----------------------------------------
        BYTE   PATT
         POIN2  extend_ash_hourai_victim_000_5_14
// 082   ----------------------------------------
        BYTE   PATT
         POIN2  extend_ash_hourai_victim_000_5_78
// 083   ----------------------------------------
        BYTE   PATT
         POIN2  extend_ash_hourai_victim_000_5_4
// 084   ----------------------------------------
extend_ash_hourai_victim_000_5_84:
        BYTE           N12     Cn1   v100
        BYTE   W12
        BYTE                   Gn1
        BYTE   W12
        BYTE                   Cn1
        BYTE   W12
        BYTE                   Gn1
        BYTE   W12
        BYTE                   Cn1
        BYTE   W12
        BYTE                   Gn1
        BYTE   W12
        BYTE                   Cn1
        BYTE   W12
        BYTE                   Gn1
        BYTE   W12
        BYTE   PEND
// 085   ----------------------------------------
extend_ash_hourai_victim_000_5_85:
        BYTE           N12     Dn1   v100
        BYTE   W12
        BYTE                   An1
        BYTE   W12
        BYTE                   Dn1
        BYTE   W12
        BYTE                   An1
        BYTE   W12
        BYTE                   Dn1
        BYTE   W12
        BYTE                   An1
        BYTE   W12
        BYTE                   Dn1
        BYTE   W12
        BYTE                   An1
        BYTE   W12
        BYTE   PEND
// 086   ----------------------------------------
extend_ash_hourai_victim_000_5_86:
        BYTE           N12     Ds1   v100
        BYTE   W12
        BYTE                   An1
        BYTE   W12
        BYTE                   Ds1
        BYTE   W12
        BYTE                   An1
        BYTE   W12
        BYTE                   Ds1
        BYTE   W12
        BYTE                   An1
        BYTE   W12
        BYTE                   Ds1
        BYTE   W12
        BYTE                   An1
        BYTE   W12
        BYTE   PEND
// 087   ----------------------------------------
extend_ash_hourai_victim_000_5_87:
        BYTE           N12     En1   v100
        BYTE   W12
        BYTE                   Bn1
        BYTE   W12
        BYTE                   En1
        BYTE   W12
        BYTE                   Bn1
        BYTE   W12
        BYTE                   En1
        BYTE   W12
        BYTE                   Bn1
        BYTE   W12
        BYTE                   En1
        BYTE   W12
        BYTE                   Bn1
        BYTE   W12
        BYTE   PEND
// 088   ----------------------------------------
        BYTE   PATT
         POIN2  extend_ash_hourai_victim_000_5_84
// 089   ----------------------------------------
        BYTE   PATT
         POIN2  extend_ash_hourai_victim_000_5_85
// 090   ----------------------------------------
        BYTE   PATT
         POIN2  extend_ash_hourai_victim_000_5_86
// 091   ----------------------------------------
        BYTE   PATT
         POIN2  extend_ash_hourai_victim_000_5_87
// 092   ----------------------------------------
        BYTE   PATT
         POIN2  extend_ash_hourai_victim_000_5_84
// 093   ----------------------------------------
        BYTE   PATT
         POIN2  extend_ash_hourai_victim_000_5_85
// 094   ----------------------------------------
        BYTE   PATT
         POIN2  extend_ash_hourai_victim_000_5_86
// 095   ----------------------------------------
        BYTE   PATT
         POIN2  extend_ash_hourai_victim_000_5_87
// 096   ----------------------------------------
        BYTE   PATT
         POIN2  extend_ash_hourai_victim_000_5_84
// 097   ----------------------------------------
        BYTE   PATT
         POIN2  extend_ash_hourai_victim_000_5_85
// 098   ----------------------------------------
        BYTE   PATT
         POIN2  extend_ash_hourai_victim_000_5_86
// 099   ----------------------------------------
        BYTE   PATT
         POIN2  extend_ash_hourai_victim_000_5_87
// 100   ----------------------------------------
        BYTE   W96
// 101   ----------------------------------------
        BYTE   W96
// 102   ----------------------------------------
        BYTE   W96
// 103   ----------------------------------------
        BYTE   W96
// 104   ----------------------------------------
        BYTE   PATT
         POIN2  extend_ash_hourai_victim_000_5_4
// 105   ----------------------------------------
        BYTE   PATT
         POIN2  extend_ash_hourai_victim_000_5_4
// 106   ----------------------------------------
        BYTE   PATT
         POIN2  extend_ash_hourai_victim_000_5_4
// 107   ----------------------------------------
        BYTE   PATT
         POIN2  extend_ash_hourai_victim_000_5_4
// 108   ----------------------------------------
        BYTE   PATT
         POIN2  extend_ash_hourai_victim_000_5_4
// 109   ----------------------------------------
        BYTE   PATT
         POIN2  extend_ash_hourai_victim_000_5_4
// 110   ----------------------------------------
        BYTE   PATT
         POIN2  extend_ash_hourai_victim_000_5_4
// 111   ----------------------------------------
        BYTE   PATT
         POIN2  extend_ash_hourai_victim_000_5_4
// 112   ----------------------------------------
        BYTE   PATT
         POIN2  extend_ash_hourai_victim_000_5_4
// 113   ----------------------------------------
        BYTE   PATT
         POIN2  extend_ash_hourai_victim_000_5_13
// 114   ----------------------------------------
        BYTE   PATT
         POIN2  extend_ash_hourai_victim_000_5_14
// 115   ----------------------------------------
        BYTE   PATT
         POIN2  extend_ash_hourai_victim_000_5_15
// 116   ----------------------------------------
        BYTE   PATT
         POIN2  extend_ash_hourai_victim_000_5_4
// 117   ----------------------------------------
        BYTE   PATT
         POIN2  extend_ash_hourai_victim_000_5_13
// 118   ----------------------------------------
        BYTE   PATT
         POIN2  extend_ash_hourai_victim_000_5_14
// 119   ----------------------------------------
        BYTE   PATT
         POIN2  extend_ash_hourai_victim_000_5_15
// 120   ----------------------------------------
        BYTE   PATT
         POIN2  extend_ash_hourai_victim_000_5_4
// 121   ----------------------------------------
        BYTE   PATT
         POIN2  extend_ash_hourai_victim_000_5_13
// 122   ----------------------------------------
        BYTE   PATT
         POIN2  extend_ash_hourai_victim_000_5_14
// 123   ----------------------------------------
        BYTE   PATT
         POIN2  extend_ash_hourai_victim_000_5_15
// 124   ----------------------------------------
        BYTE   PATT
         POIN2  extend_ash_hourai_victim_000_5_4
// 125   ----------------------------------------
        BYTE   PATT
         POIN2  extend_ash_hourai_victim_000_5_13
// 126   ----------------------------------------
        BYTE   PATT
         POIN2  extend_ash_hourai_victim_000_5_14
// 127   ----------------------------------------
        BYTE   PATT
         POIN2  extend_ash_hourai_victim_000_5_15
// 128   ----------------------------------------
        BYTE   PATT
         POIN2  extend_ash_hourai_victim_000_5_4
// 129   ----------------------------------------
        BYTE   PATT
         POIN2  extend_ash_hourai_victim_000_5_4
// 130   ----------------------------------------
        BYTE   PATT
         POIN2  extend_ash_hourai_victim_000_5_4
// 131   ----------------------------------------
        BYTE   PATT
         POIN2  extend_ash_hourai_victim_000_5_4
// 132   ----------------------------------------
        BYTE   PATT
         POIN2  extend_ash_hourai_victim_000_5_4
// 133   ----------------------------------------
        BYTE   PATT
         POIN2  extend_ash_hourai_victim_000_5_4
// 134   ----------------------------------------
        BYTE   PATT
         POIN2  extend_ash_hourai_victim_000_5_4
// 135   ----------------------------------------
        BYTE   PATT
         POIN2  extend_ash_hourai_victim_000_5_4
// 136   ----------------------------------------
        BYTE   PATT
         POIN2  extend_ash_hourai_victim_000_5_4
// 137   ----------------------------------------
        BYTE   PATT
         POIN2  extend_ash_hourai_victim_000_5_13
// 138   ----------------------------------------
        BYTE   PATT
         POIN2  extend_ash_hourai_victim_000_5_14
// 139   ----------------------------------------
        BYTE   PATT
         POIN2  extend_ash_hourai_victim_000_5_15
// 140   ----------------------------------------
        BYTE   PATT
         POIN2  extend_ash_hourai_victim_000_5_4
// 141   ----------------------------------------
        BYTE   PATT
         POIN2  extend_ash_hourai_victim_000_5_13
// 142   ----------------------------------------
        BYTE   PATT
         POIN2  extend_ash_hourai_victim_000_5_14
// 143   ----------------------------------------
        BYTE   PATT
         POIN2  extend_ash_hourai_victim_000_5_15
// 144   ----------------------------------------
        BYTE   PATT
         POIN2  extend_ash_hourai_victim_000_5_4
// 145   ----------------------------------------
        BYTE   PATT
         POIN2  extend_ash_hourai_victim_000_5_13
// 146   ----------------------------------------
        BYTE   PATT
         POIN2  extend_ash_hourai_victim_000_5_14
// 147   ----------------------------------------
        BYTE   PATT
         POIN2  extend_ash_hourai_victim_000_5_15
// 148   ----------------------------------------
        BYTE   PATT
         POIN2  extend_ash_hourai_victim_000_5_4
// 149   ----------------------------------------
        BYTE   PATT
         POIN2  extend_ash_hourai_victim_000_5_13
// 150   ----------------------------------------
        BYTE   PATT
         POIN2  extend_ash_hourai_victim_000_5_14
// 151   ----------------------------------------
        BYTE   PATT
         POIN2  extend_ash_hourai_victim_000_5_15
// 152   ----------------------------------------
        BYTE   PATT
         POIN2  extend_ash_hourai_victim_000_5_4
// 153   ----------------------------------------
        BYTE   PATT
         POIN2  extend_ash_hourai_victim_000_5_13
// 154   ----------------------------------------
        BYTE   PATT
         POIN2  extend_ash_hourai_victim_000_5_14
// 155   ----------------------------------------
        BYTE   PATT
         POIN2  extend_ash_hourai_victim_000_5_15
// 156   ----------------------------------------
        BYTE   PATT
         POIN2  extend_ash_hourai_victim_000_5_4
// 157   ----------------------------------------
        BYTE   PATT
         POIN2  extend_ash_hourai_victim_000_5_13
// 158   ----------------------------------------
        BYTE   PATT
         POIN2  extend_ash_hourai_victim_000_5_14
// 159   ----------------------------------------
        BYTE   PATT
         POIN2  extend_ash_hourai_victim_000_5_15
// 160   ----------------------------------------
        BYTE   PATT
         POIN2  extend_ash_hourai_victim_000_5_4
// 161   ----------------------------------------
        BYTE   PATT
         POIN2  extend_ash_hourai_victim_000_5_13
// 162   ----------------------------------------
        BYTE   PATT
         POIN2  extend_ash_hourai_victim_000_5_14
// 163   ----------------------------------------
        BYTE   PATT
         POIN2  extend_ash_hourai_victim_000_5_15
// 164   ----------------------------------------
        BYTE   PATT
         POIN2  extend_ash_hourai_victim_000_5_4
// 165   ----------------------------------------
        BYTE   PATT
         POIN2  extend_ash_hourai_victim_000_5_13
// 166   ----------------------------------------
        BYTE   PATT
         POIN2  extend_ash_hourai_victim_000_5_14
// 167   ----------------------------------------
        BYTE   PATT
         POIN2  extend_ash_hourai_victim_000_5_15
// 168   ----------------------------------------
        BYTE   W96
// 169   ----------------------------------------
        BYTE   W96
// 170   ----------------------------------------
        BYTE   W96
// 171   ----------------------------------------
        BYTE   W96
// 172   ----------------------------------------
        BYTE   W96
// 173   ----------------------------------------
        BYTE   W96
// 174   ----------------------------------------
        BYTE   W96
// 175   ----------------------------------------
        BYTE   W96
// 176   ----------------------------------------
        BYTE   PATT
         POIN2  extend_ash_hourai_victim_000_5_13
// 177   ----------------------------------------
        BYTE   PATT
         POIN2  extend_ash_hourai_victim_000_5_14
// 178   ----------------------------------------
        BYTE   PATT
         POIN2  extend_ash_hourai_victim_000_5_78
// 179   ----------------------------------------
        BYTE   PATT
         POIN2  extend_ash_hourai_victim_000_5_4
// 180   ----------------------------------------
        BYTE   PATT
         POIN2  extend_ash_hourai_victim_000_5_13
// 181   ----------------------------------------
        BYTE   PATT
         POIN2  extend_ash_hourai_victim_000_5_14
// 182   ----------------------------------------
        BYTE   PATT
         POIN2  extend_ash_hourai_victim_000_5_78
// 183   ----------------------------------------
        BYTE   PATT
         POIN2  extend_ash_hourai_victim_000_5_4
// 184   ----------------------------------------
        BYTE   PATT
         POIN2  extend_ash_hourai_victim_000_5_84
// 185   ----------------------------------------
        BYTE   PATT
         POIN2  extend_ash_hourai_victim_000_5_85
// 186   ----------------------------------------
        BYTE   PATT
         POIN2  extend_ash_hourai_victim_000_5_86
// 187   ----------------------------------------
        BYTE   PATT
         POIN2  extend_ash_hourai_victim_000_5_87
// 188   ----------------------------------------
        BYTE   PATT
         POIN2  extend_ash_hourai_victim_000_5_84
// 189   ----------------------------------------
        BYTE   PATT
         POIN2  extend_ash_hourai_victim_000_5_85
// 190   ----------------------------------------
        BYTE   PATT
         POIN2  extend_ash_hourai_victim_000_5_86
// 191   ----------------------------------------
        BYTE   PATT
         POIN2  extend_ash_hourai_victim_000_5_87
// 192   ----------------------------------------
        BYTE   PATT
         POIN2  extend_ash_hourai_victim_000_5_84
// 193   ----------------------------------------
        BYTE   PATT
         POIN2  extend_ash_hourai_victim_000_5_85
// 194   ----------------------------------------
        BYTE   PATT
         POIN2  extend_ash_hourai_victim_000_5_86
// 195   ----------------------------------------
        BYTE   PATT
         POIN2  extend_ash_hourai_victim_000_5_87
// 196   ----------------------------------------
        BYTE   PATT
         POIN2  extend_ash_hourai_victim_000_5_84
// 197   ----------------------------------------
        BYTE   PATT
         POIN2  extend_ash_hourai_victim_000_5_85
// 198   ----------------------------------------
        BYTE   PATT
         POIN2  extend_ash_hourai_victim_000_5_86
// 199   ----------------------------------------
        BYTE           N12     En1   v100
        BYTE   W12
        BYTE                   Bn1
        BYTE   W12
        BYTE                   En1
        BYTE   W12
        BYTE                   Bn1
        BYTE   W12
        BYTE                   En1
        BYTE   W12
        BYTE                   Bn1
        BYTE   W12
        BYTE                   En1
        BYTE   W12
        BYTE                   Bn1
        BYTE   W09
        BYTE   GoTo
         POIN2  extend_ash_hourai_victim_000_5_LOOP
        BYTE   W03
// 200   ----------------------------------------
        BYTE   FINE

//****************** Track 6 (Midi-Chn.6) ******************//

extend_ash_hourai_victim_000_6:
        BYTE   KEYSH   extend_ash_hourai_victim_000_key+0
// 000   ----------------------------------------
extend_ash_hourai_victim_000_6_LOOP:
        BYTE           VOICE   96
        BYTE           VOL     16
        BYTE           BENDR   12
        BYTE           TIE     Gn2   v075
        BYTE           TIE     Dn2
        BYTE   W96
// 001   ----------------------------------------
        BYTE   W96
// 002   ----------------------------------------
        BYTE   W96
// 003   ----------------------------------------
        BYTE   W96
// 004   ----------------------------------------
extend_ash_hourai_victim_000_6_4:
        BYTE           EOT     Gn2
        BYTE                   Dn2
        BYTE           TIE     Gn2   v075
        BYTE           TIE     Dn2
        BYTE   W96
        BYTE   PEND
// 005   ----------------------------------------
        BYTE   W96
// 006   ----------------------------------------
        BYTE   W96
// 007   ----------------------------------------
        BYTE   W96
// 008   ----------------------------------------
        BYTE   PATT
         POIN2  extend_ash_hourai_victim_000_6_4
// 009   ----------------------------------------
        BYTE   W96
// 010   ----------------------------------------
        BYTE   W96
// 011   ----------------------------------------
        BYTE   W96
// 012   ----------------------------------------
extend_ash_hourai_victim_000_6_12:
        BYTE           EOT     Gn2
        BYTE                   Dn2
        BYTE           N96     Dn2   v075
        BYTE           N96     Gn2
        BYTE   W96
        BYTE   PEND
// 013   ----------------------------------------
extend_ash_hourai_victim_000_6_13:
        BYTE           N96     Ds2   v075
        BYTE           N96     As1
        BYTE   W96
        BYTE   PEND
// 014   ----------------------------------------
extend_ash_hourai_victim_000_6_14:
        BYTE           N96     Fn2   v075
        BYTE           N96     Cn2
        BYTE   W96
        BYTE   PEND
// 015   ----------------------------------------
extend_ash_hourai_victim_000_6_15:
        BYTE           N48     Cn2   v075
        BYTE           N48     Fs2
        BYTE   W48
        BYTE                   Dn2
        BYTE           N48     Fs2
        BYTE   W48
        BYTE   PEND
// 016   ----------------------------------------
extend_ash_hourai_victim_000_6_16:
        BYTE           N96     Dn2   v075
        BYTE           N96     Gn2
        BYTE   W96
        BYTE   PEND
// 017   ----------------------------------------
        BYTE   PATT
         POIN2  extend_ash_hourai_victim_000_6_13
// 018   ----------------------------------------
        BYTE   PATT
         POIN2  extend_ash_hourai_victim_000_6_14
// 019   ----------------------------------------
        BYTE   PATT
         POIN2  extend_ash_hourai_victim_000_6_15
// 020   ----------------------------------------
        BYTE   PATT
         POIN2  extend_ash_hourai_victim_000_6_16
// 021   ----------------------------------------
        BYTE   PATT
         POIN2  extend_ash_hourai_victim_000_6_13
// 022   ----------------------------------------
        BYTE   PATT
         POIN2  extend_ash_hourai_victim_000_6_14
// 023   ----------------------------------------
        BYTE   PATT
         POIN2  extend_ash_hourai_victim_000_6_15
// 024   ----------------------------------------
        BYTE   PATT
         POIN2  extend_ash_hourai_victim_000_6_16
// 025   ----------------------------------------
        BYTE   PATT
         POIN2  extend_ash_hourai_victim_000_6_13
// 026   ----------------------------------------
        BYTE   PATT
         POIN2  extend_ash_hourai_victim_000_6_14
// 027   ----------------------------------------
        BYTE   PATT
         POIN2  extend_ash_hourai_victim_000_6_15
// 028   ----------------------------------------
extend_ash_hourai_victim_000_6_28:
        BYTE           TIE     Gn2   v075
        BYTE           TIE     Dn2
        BYTE   W96
        BYTE   PEND
// 029   ----------------------------------------
        BYTE   W96
// 030   ----------------------------------------
        BYTE   W96
// 031   ----------------------------------------
        BYTE   W96
// 032   ----------------------------------------
        BYTE   PATT
         POIN2  extend_ash_hourai_victim_000_6_4
// 033   ----------------------------------------
        BYTE   W96
// 034   ----------------------------------------
        BYTE   W96
// 035   ----------------------------------------
        BYTE   W96
// 036   ----------------------------------------
        BYTE   PATT
         POIN2  extend_ash_hourai_victim_000_6_12
// 037   ----------------------------------------
        BYTE   PATT
         POIN2  extend_ash_hourai_victim_000_6_13
// 038   ----------------------------------------
        BYTE   PATT
         POIN2  extend_ash_hourai_victim_000_6_14
// 039   ----------------------------------------
        BYTE   PATT
         POIN2  extend_ash_hourai_victim_000_6_15
// 040   ----------------------------------------
        BYTE   PATT
         POIN2  extend_ash_hourai_victim_000_6_16
// 041   ----------------------------------------
        BYTE   PATT
         POIN2  extend_ash_hourai_victim_000_6_13
// 042   ----------------------------------------
        BYTE   PATT
         POIN2  extend_ash_hourai_victim_000_6_14
// 043   ----------------------------------------
        BYTE   PATT
         POIN2  extend_ash_hourai_victim_000_6_15
// 044   ----------------------------------------
        BYTE   PATT
         POIN2  extend_ash_hourai_victim_000_6_16
// 045   ----------------------------------------
        BYTE   PATT
         POIN2  extend_ash_hourai_victim_000_6_13
// 046   ----------------------------------------
        BYTE   PATT
         POIN2  extend_ash_hourai_victim_000_6_14
// 047   ----------------------------------------
        BYTE   PATT
         POIN2  extend_ash_hourai_victim_000_6_15
// 048   ----------------------------------------
        BYTE   PATT
         POIN2  extend_ash_hourai_victim_000_6_16
// 049   ----------------------------------------
        BYTE   PATT
         POIN2  extend_ash_hourai_victim_000_6_13
// 050   ----------------------------------------
        BYTE   PATT
         POIN2  extend_ash_hourai_victim_000_6_14
// 051   ----------------------------------------
        BYTE   PATT
         POIN2  extend_ash_hourai_victim_000_6_15
// 052   ----------------------------------------
        BYTE   PATT
         POIN2  extend_ash_hourai_victim_000_6_16
// 053   ----------------------------------------
        BYTE   PATT
         POIN2  extend_ash_hourai_victim_000_6_13
// 054   ----------------------------------------
        BYTE   PATT
         POIN2  extend_ash_hourai_victim_000_6_14
// 055   ----------------------------------------
        BYTE   PATT
         POIN2  extend_ash_hourai_victim_000_6_15
// 056   ----------------------------------------
        BYTE   PATT
         POIN2  extend_ash_hourai_victim_000_6_16
// 057   ----------------------------------------
        BYTE   PATT
         POIN2  extend_ash_hourai_victim_000_6_13
// 058   ----------------------------------------
        BYTE   PATT
         POIN2  extend_ash_hourai_victim_000_6_14
// 059   ----------------------------------------
        BYTE   PATT
         POIN2  extend_ash_hourai_victim_000_6_15
// 060   ----------------------------------------
        BYTE   PATT
         POIN2  extend_ash_hourai_victim_000_6_16
// 061   ----------------------------------------
        BYTE   PATT
         POIN2  extend_ash_hourai_victim_000_6_13
// 062   ----------------------------------------
        BYTE   PATT
         POIN2  extend_ash_hourai_victim_000_6_14
// 063   ----------------------------------------
        BYTE   PATT
         POIN2  extend_ash_hourai_victim_000_6_15
// 064   ----------------------------------------
        BYTE   PATT
         POIN2  extend_ash_hourai_victim_000_6_16
// 065   ----------------------------------------
        BYTE   PATT
         POIN2  extend_ash_hourai_victim_000_6_13
// 066   ----------------------------------------
        BYTE   PATT
         POIN2  extend_ash_hourai_victim_000_6_14
// 067   ----------------------------------------
extend_ash_hourai_victim_000_6_67:
        BYTE           N48     Cn2   v075
        BYTE           N48     Fs2
        BYTE   W48
        BYTE                   Dn2   v100
        BYTE           N48     Fs2
        BYTE   W48
        BYTE   PEND
// 068   ----------------------------------------
extend_ash_hourai_victim_000_6_68:
        BYTE           N96     As2   v079
        BYTE           N96     Gn2
        BYTE   W96
        BYTE   PEND
// 069   ----------------------------------------
extend_ash_hourai_victim_000_6_69:
        BYTE           N96     Cn3   v079
        BYTE           N96     An2
        BYTE   W96
        BYTE   PEND
// 070   ----------------------------------------
extend_ash_hourai_victim_000_6_70:
        BYTE           N96     An2   v079
        BYTE           N96     Fs2
        BYTE   W96
        BYTE   PEND
// 071   ----------------------------------------
extend_ash_hourai_victim_000_6_71:
        BYTE           N96     Dn3   v079
        BYTE           N96     As2
        BYTE   W96
        BYTE   PEND
// 072   ----------------------------------------
extend_ash_hourai_victim_000_6_72:
        BYTE           N96     Gn2   v079
        BYTE           N96     Ds2
        BYTE   W96
        BYTE   PEND
// 073   ----------------------------------------
extend_ash_hourai_victim_000_6_73:
        BYTE           N96     An2   v079
        BYTE           N96     Fn2
        BYTE   W96
        BYTE   PEND
// 074   ----------------------------------------
        BYTE   PATT
         POIN2  extend_ash_hourai_victim_000_6_70
// 075   ----------------------------------------
extend_ash_hourai_victim_000_6_75:
        BYTE           N96     Dn3   v079
        BYTE           N96     Gn2
        BYTE   W96
        BYTE   PEND
// 076   ----------------------------------------
extend_ash_hourai_victim_000_6_76:
        BYTE           N96     As2   v100
        BYTE           N96     Gn2
        BYTE   W96
        BYTE   PEND
// 077   ----------------------------------------
extend_ash_hourai_victim_000_6_77:
        BYTE           N96     Cn3   v100
        BYTE           N96     An2
        BYTE   W96
        BYTE   PEND
// 078   ----------------------------------------
extend_ash_hourai_victim_000_6_78:
        BYTE           N96     An2   v100
        BYTE           N96     Fs2
        BYTE   W96
        BYTE   PEND
// 079   ----------------------------------------
extend_ash_hourai_victim_000_6_79:
        BYTE           N96     Dn3   v100
        BYTE           N96     As2
        BYTE   W96
        BYTE   PEND
// 080   ----------------------------------------
extend_ash_hourai_victim_000_6_80:
        BYTE           N96     Gn2   v100
        BYTE           N96     Ds2
        BYTE   W96
        BYTE   PEND
// 081   ----------------------------------------
extend_ash_hourai_victim_000_6_81:
        BYTE           N96     An2   v100
        BYTE           N96     Fn2
        BYTE   W96
        BYTE   PEND
// 082   ----------------------------------------
        BYTE   PATT
         POIN2  extend_ash_hourai_victim_000_6_78
// 083   ----------------------------------------
extend_ash_hourai_victim_000_6_83:
        BYTE           N96     Dn3   v100
        BYTE           N96     Gn2
        BYTE   W96
        BYTE   PEND
// 084   ----------------------------------------
        BYTE                   En2
        BYTE           N96     Gn2
        BYTE   W96
// 085   ----------------------------------------
        BYTE                   Fs2
        BYTE           N96     An2
        BYTE   W96
// 086   ----------------------------------------
        BYTE                   Ds2
        BYTE           N96     Fs2
        BYTE   W96
// 087   ----------------------------------------
        BYTE                   Gn2
        BYTE           N96     Bn2
        BYTE   W96
// 088   ----------------------------------------
extend_ash_hourai_victim_000_6_88:
        BYTE           N96     En2   v100
        BYTE           N96     Cn2
        BYTE   W96
        BYTE   PEND
// 089   ----------------------------------------
extend_ash_hourai_victim_000_6_89:
        BYTE           N96     Fs2   v100
        BYTE           N96     Dn2
        BYTE   W96
        BYTE   PEND
// 090   ----------------------------------------
extend_ash_hourai_victim_000_6_90:
        BYTE           N96     Fs2   v100
        BYTE           N96     Ds2
        BYTE   W96
        BYTE   PEND
// 091   ----------------------------------------
extend_ash_hourai_victim_000_6_91:
        BYTE           N96     Bn2   v100
        BYTE           N96     En2
        BYTE   W96
        BYTE   PEND
// 092   ----------------------------------------
extend_ash_hourai_victim_000_6_92:
        BYTE           N96     Gn2   v100
        BYTE           N96     En2
        BYTE   W96
        BYTE   PEND
// 093   ----------------------------------------
        BYTE   PATT
         POIN2  extend_ash_hourai_victim_000_6_78
// 094   ----------------------------------------
        BYTE   PATT
         POIN2  extend_ash_hourai_victim_000_6_90
// 095   ----------------------------------------
extend_ash_hourai_victim_000_6_95:
        BYTE           N96     Bn2   v100
        BYTE           N96     Gn2
        BYTE   W96
        BYTE   PEND
// 096   ----------------------------------------
        BYTE   PATT
         POIN2  extend_ash_hourai_victim_000_6_88
// 097   ----------------------------------------
        BYTE   PATT
         POIN2  extend_ash_hourai_victim_000_6_89
// 098   ----------------------------------------
        BYTE   PATT
         POIN2  extend_ash_hourai_victim_000_6_90
// 099   ----------------------------------------
        BYTE   PATT
         POIN2  extend_ash_hourai_victim_000_6_91
// 100   ----------------------------------------
        BYTE   PATT
         POIN2  extend_ash_hourai_victim_000_6_28
// 101   ----------------------------------------
        BYTE   W96
// 102   ----------------------------------------
        BYTE   W96
// 103   ----------------------------------------
        BYTE   W96
// 104   ----------------------------------------
        BYTE   PATT
         POIN2  extend_ash_hourai_victim_000_6_4
// 105   ----------------------------------------
        BYTE   W96
// 106   ----------------------------------------
        BYTE   W96
// 107   ----------------------------------------
        BYTE   W96
// 108   ----------------------------------------
        BYTE   PATT
         POIN2  extend_ash_hourai_victim_000_6_4
// 109   ----------------------------------------
        BYTE   W96
// 110   ----------------------------------------
        BYTE   W96
// 111   ----------------------------------------
        BYTE   W96
// 112   ----------------------------------------
        BYTE   PATT
         POIN2  extend_ash_hourai_victim_000_6_12
// 113   ----------------------------------------
        BYTE   PATT
         POIN2  extend_ash_hourai_victim_000_6_13
// 114   ----------------------------------------
        BYTE   PATT
         POIN2  extend_ash_hourai_victim_000_6_14
// 115   ----------------------------------------
        BYTE   PATT
         POIN2  extend_ash_hourai_victim_000_6_15
// 116   ----------------------------------------
        BYTE   PATT
         POIN2  extend_ash_hourai_victim_000_6_16
// 117   ----------------------------------------
        BYTE   PATT
         POIN2  extend_ash_hourai_victim_000_6_13
// 118   ----------------------------------------
        BYTE   PATT
         POIN2  extend_ash_hourai_victim_000_6_14
// 119   ----------------------------------------
        BYTE   PATT
         POIN2  extend_ash_hourai_victim_000_6_15
// 120   ----------------------------------------
        BYTE   PATT
         POIN2  extend_ash_hourai_victim_000_6_16
// 121   ----------------------------------------
        BYTE   PATT
         POIN2  extend_ash_hourai_victim_000_6_13
// 122   ----------------------------------------
        BYTE   PATT
         POIN2  extend_ash_hourai_victim_000_6_14
// 123   ----------------------------------------
        BYTE   PATT
         POIN2  extend_ash_hourai_victim_000_6_15
// 124   ----------------------------------------
        BYTE   PATT
         POIN2  extend_ash_hourai_victim_000_6_16
// 125   ----------------------------------------
        BYTE   PATT
         POIN2  extend_ash_hourai_victim_000_6_13
// 126   ----------------------------------------
        BYTE   PATT
         POIN2  extend_ash_hourai_victim_000_6_14
// 127   ----------------------------------------
        BYTE   PATT
         POIN2  extend_ash_hourai_victim_000_6_15
// 128   ----------------------------------------
        BYTE   PATT
         POIN2  extend_ash_hourai_victim_000_6_28
// 129   ----------------------------------------
        BYTE   W96
// 130   ----------------------------------------
        BYTE   W96
// 131   ----------------------------------------
        BYTE   W96
// 132   ----------------------------------------
        BYTE   PATT
         POIN2  extend_ash_hourai_victim_000_6_4
// 133   ----------------------------------------
        BYTE   W96
// 134   ----------------------------------------
        BYTE   W96
// 135   ----------------------------------------
        BYTE   W96
// 136   ----------------------------------------
        BYTE   PATT
         POIN2  extend_ash_hourai_victim_000_6_12
// 137   ----------------------------------------
        BYTE   PATT
         POIN2  extend_ash_hourai_victim_000_6_13
// 138   ----------------------------------------
        BYTE   PATT
         POIN2  extend_ash_hourai_victim_000_6_14
// 139   ----------------------------------------
        BYTE   PATT
         POIN2  extend_ash_hourai_victim_000_6_15
// 140   ----------------------------------------
        BYTE   PATT
         POIN2  extend_ash_hourai_victim_000_6_16
// 141   ----------------------------------------
        BYTE   PATT
         POIN2  extend_ash_hourai_victim_000_6_13
// 142   ----------------------------------------
        BYTE   PATT
         POIN2  extend_ash_hourai_victim_000_6_14
// 143   ----------------------------------------
        BYTE   PATT
         POIN2  extend_ash_hourai_victim_000_6_15
// 144   ----------------------------------------
        BYTE   PATT
         POIN2  extend_ash_hourai_victim_000_6_16
// 145   ----------------------------------------
        BYTE   PATT
         POIN2  extend_ash_hourai_victim_000_6_13
// 146   ----------------------------------------
        BYTE   PATT
         POIN2  extend_ash_hourai_victim_000_6_14
// 147   ----------------------------------------
        BYTE   PATT
         POIN2  extend_ash_hourai_victim_000_6_15
// 148   ----------------------------------------
        BYTE   PATT
         POIN2  extend_ash_hourai_victim_000_6_16
// 149   ----------------------------------------
        BYTE   PATT
         POIN2  extend_ash_hourai_victim_000_6_13
// 150   ----------------------------------------
        BYTE   PATT
         POIN2  extend_ash_hourai_victim_000_6_14
// 151   ----------------------------------------
        BYTE   PATT
         POIN2  extend_ash_hourai_victim_000_6_15
// 152   ----------------------------------------
        BYTE   PATT
         POIN2  extend_ash_hourai_victim_000_6_16
// 153   ----------------------------------------
        BYTE   PATT
         POIN2  extend_ash_hourai_victim_000_6_13
// 154   ----------------------------------------
        BYTE   PATT
         POIN2  extend_ash_hourai_victim_000_6_14
// 155   ----------------------------------------
        BYTE   PATT
         POIN2  extend_ash_hourai_victim_000_6_15
// 156   ----------------------------------------
        BYTE   PATT
         POIN2  extend_ash_hourai_victim_000_6_16
// 157   ----------------------------------------
        BYTE   PATT
         POIN2  extend_ash_hourai_victim_000_6_13
// 158   ----------------------------------------
        BYTE   PATT
         POIN2  extend_ash_hourai_victim_000_6_14
// 159   ----------------------------------------
        BYTE   PATT
         POIN2  extend_ash_hourai_victim_000_6_15
// 160   ----------------------------------------
        BYTE   PATT
         POIN2  extend_ash_hourai_victim_000_6_16
// 161   ----------------------------------------
        BYTE   PATT
         POIN2  extend_ash_hourai_victim_000_6_13
// 162   ----------------------------------------
        BYTE   PATT
         POIN2  extend_ash_hourai_victim_000_6_14
// 163   ----------------------------------------
        BYTE   PATT
         POIN2  extend_ash_hourai_victim_000_6_15
// 164   ----------------------------------------
        BYTE   PATT
         POIN2  extend_ash_hourai_victim_000_6_16
// 165   ----------------------------------------
        BYTE   PATT
         POIN2  extend_ash_hourai_victim_000_6_13
// 166   ----------------------------------------
        BYTE   PATT
         POIN2  extend_ash_hourai_victim_000_6_14
// 167   ----------------------------------------
        BYTE   PATT
         POIN2  extend_ash_hourai_victim_000_6_67
// 168   ----------------------------------------
        BYTE   PATT
         POIN2  extend_ash_hourai_victim_000_6_68
// 169   ----------------------------------------
        BYTE   PATT
         POIN2  extend_ash_hourai_victim_000_6_69
// 170   ----------------------------------------
        BYTE   PATT
         POIN2  extend_ash_hourai_victim_000_6_70
// 171   ----------------------------------------
        BYTE   PATT
         POIN2  extend_ash_hourai_victim_000_6_71
// 172   ----------------------------------------
        BYTE   PATT
         POIN2  extend_ash_hourai_victim_000_6_72
// 173   ----------------------------------------
        BYTE   PATT
         POIN2  extend_ash_hourai_victim_000_6_73
// 174   ----------------------------------------
        BYTE   PATT
         POIN2  extend_ash_hourai_victim_000_6_70
// 175   ----------------------------------------
        BYTE   PATT
         POIN2  extend_ash_hourai_victim_000_6_75
// 176   ----------------------------------------
        BYTE   PATT
         POIN2  extend_ash_hourai_victim_000_6_76
// 177   ----------------------------------------
        BYTE   PATT
         POIN2  extend_ash_hourai_victim_000_6_77
// 178   ----------------------------------------
        BYTE   PATT
         POIN2  extend_ash_hourai_victim_000_6_78
// 179   ----------------------------------------
        BYTE   PATT
         POIN2  extend_ash_hourai_victim_000_6_79
// 180   ----------------------------------------
        BYTE   PATT
         POIN2  extend_ash_hourai_victim_000_6_80
// 181   ----------------------------------------
        BYTE   PATT
         POIN2  extend_ash_hourai_victim_000_6_81
// 182   ----------------------------------------
        BYTE   PATT
         POIN2  extend_ash_hourai_victim_000_6_78
// 183   ----------------------------------------
        BYTE   PATT
         POIN2  extend_ash_hourai_victim_000_6_83
// 184   ----------------------------------------
        BYTE   PATT
         POIN2  extend_ash_hourai_victim_000_6_92
// 185   ----------------------------------------
        BYTE   PATT
         POIN2  extend_ash_hourai_victim_000_6_78
// 186   ----------------------------------------
        BYTE   PATT
         POIN2  extend_ash_hourai_victim_000_6_90
// 187   ----------------------------------------
        BYTE   PATT
         POIN2  extend_ash_hourai_victim_000_6_95
// 188   ----------------------------------------
        BYTE   PATT
         POIN2  extend_ash_hourai_victim_000_6_88
// 189   ----------------------------------------
        BYTE   PATT
         POIN2  extend_ash_hourai_victim_000_6_89
// 190   ----------------------------------------
        BYTE   PATT
         POIN2  extend_ash_hourai_victim_000_6_90
// 191   ----------------------------------------
        BYTE   PATT
         POIN2  extend_ash_hourai_victim_000_6_91
// 192   ----------------------------------------
        BYTE   PATT
         POIN2  extend_ash_hourai_victim_000_6_92
// 193   ----------------------------------------
        BYTE   PATT
         POIN2  extend_ash_hourai_victim_000_6_78
// 194   ----------------------------------------
        BYTE   PATT
         POIN2  extend_ash_hourai_victim_000_6_90
// 195   ----------------------------------------
        BYTE   PATT
         POIN2  extend_ash_hourai_victim_000_6_95
// 196   ----------------------------------------
        BYTE   PATT
         POIN2  extend_ash_hourai_victim_000_6_88
// 197   ----------------------------------------
        BYTE   PATT
         POIN2  extend_ash_hourai_victim_000_6_89
// 198   ----------------------------------------
        BYTE   PATT
         POIN2  extend_ash_hourai_victim_000_6_90
// 199   ----------------------------------------
        BYTE           N96     Bn2   v100
        BYTE           N96     En2
        BYTE   W92
        BYTE   W01
        BYTE   GoTo
         POIN2  extend_ash_hourai_victim_000_6_LOOP
        BYTE   W03
// 200   ----------------------------------------
        BYTE   FINE

//****************** Track 7 (Midi-Chn.7) ******************//

extend_ash_hourai_victim_000_7:
        BYTE   KEYSH   extend_ash_hourai_victim_000_key+0
// 000   ----------------------------------------
extend_ash_hourai_victim_000_7_LOOP:
        BYTE           VOICE   122
        BYTE           BENDR   12
        BYTE           VOL     25
        BYTE           N06     Cn1   v100
        BYTE           N06     Fs1
        BYTE   W24
        BYTE                   Fs1
        BYTE   W24
        BYTE                   Cn1
        BYTE           N06     Fs1
        BYTE   W24
        BYTE                   Fs1
        BYTE   W12
        BYTE                   Fs1
        BYTE   W06
        BYTE                   Fs1
        BYTE   W06
// 001   ----------------------------------------
extend_ash_hourai_victim_000_7_1:
        BYTE           N06     Cn1   v100
        BYTE           N06     Fs1
        BYTE   W24
        BYTE                   Cn1
        BYTE           N06     Fs1
        BYTE   W06
        BYTE                   Fs1
        BYTE   W06
        BYTE                   Fs1
        BYTE   W12
        BYTE                   Cn1
        BYTE           N06     Fs1
        BYTE   W24
        BYTE                   Cn1
        BYTE           N06     Fs1
        BYTE   W12
        BYTE                   Fs1
        BYTE   W12
        BYTE   PEND
// 002   ----------------------------------------
extend_ash_hourai_victim_000_7_2:
        BYTE           N06     Cn1   v100
        BYTE           N06     Fs1
        BYTE   W12
        BYTE                   As1   v079
        BYTE   W12
        BYTE                   Cn1   v100
        BYTE           N06     Fs1
        BYTE   W12
        BYTE                   As1   v079
        BYTE   W12
        BYTE                   Cn1   v100
        BYTE           N06     Fs1
        BYTE   W12
        BYTE                   As1   v079
        BYTE   W12
        BYTE                   Cn1   v100
        BYTE           N06     Fs1
        BYTE   W12
        BYTE                   As1   v079
        BYTE   W06
        BYTE                   Fs1   v100
        BYTE   W06
        BYTE   PEND
// 003   ----------------------------------------
extend_ash_hourai_victim_000_7_3:
        BYTE           N06     Cn1   v100
        BYTE           N06     Fs1
        BYTE   W12
        BYTE                   As1   v079
        BYTE   W12
        BYTE                   Cn1   v100
        BYTE           N06     Fs1
        BYTE   W06
        BYTE                   Fs1
        BYTE   W06
        BYTE                   As1   v079
        BYTE   W12
        BYTE                   Cn1   v100
        BYTE           N06     Fs1
        BYTE   W12
        BYTE           N03     Dn1   v079
        BYTE           N06     As1
        BYTE   W03
        BYTE           N03     Dn1
        BYTE   W03
        BYTE                   Dn1
        BYTE   W03
        BYTE                   Dn1
        BYTE   W03
        BYTE           N06     Cs2   v100
        BYTE           N06     Cn1
        BYTE           N06     Dn1   v079
        BYTE           N06     Fs1   v100
        BYTE   W12
        BYTE                   As1   v079
        BYTE   W12
        BYTE   PEND
// 004   ----------------------------------------
extend_ash_hourai_victim_000_7_4:
        BYTE           N06     Fs1   v100
        BYTE           N06     Cn1
        BYTE   W12
        BYTE                   En1
        BYTE           N06     As1   v079
        BYTE   W12
        BYTE                   Fs1   v100
        BYTE           N06     Cn1
        BYTE   W12
        BYTE                   As1   v079
        BYTE           N06     En1   v100
        BYTE   W12
        BYTE                   Cn1
        BYTE           N06     Fs1
        BYTE   W06
        BYTE                   En1
        BYTE   W06
        BYTE                   As1   v079
        BYTE   W06
        BYTE                   En1   v100
        BYTE   W06
        BYTE                   Fs1
        BYTE           N06     Cn1
        BYTE   W12
        BYTE                   En1
        BYTE           N06     As1   v079
        BYTE   W06
        BYTE                   Fs1   v100
        BYTE   W06
        BYTE   PEND
// 005   ----------------------------------------
extend_ash_hourai_victim_000_7_5:
        BYTE           N06     Cn1   v100
        BYTE           N06     Fs1
        BYTE   W12
        BYTE                   En1
        BYTE           N06     As1   v079
        BYTE   W12
        BYTE                   Fs1   v100
        BYTE           N06     Cn1
        BYTE   W06
        BYTE                   Fs1
        BYTE   W06
        BYTE                   As1   v079
        BYTE           N06     En1   v100
        BYTE   W12
        BYTE                   Cn1
        BYTE           N06     Fs1
        BYTE   W06
        BYTE                   En1
        BYTE   W06
        BYTE                   As1   v079
        BYTE   W06
        BYTE                   En1   v100
        BYTE   W06
        BYTE                   Fs1
        BYTE           N06     Cn1
        BYTE   W06
        BYTE                   Fs1
        BYTE   W06
        BYTE                   As1   v079
        BYTE           N06     En1   v100
        BYTE   W06
        BYTE                   Fs1
        BYTE   W06
        BYTE   PEND
// 006   ----------------------------------------
extend_ash_hourai_victim_000_7_6:
        BYTE           N06     Fs1   v100
        BYTE           N06     Cn1
        BYTE   W12
        BYTE                   En1
        BYTE           N06     As1   v079
        BYTE   W12
        BYTE                   Fs1   v100
        BYTE           N06     Cn1
        BYTE   W12
        BYTE                   En1
        BYTE           N06     As1   v079
        BYTE   W12
        BYTE                   Fs1   v100
        BYTE           N06     Cn1
        BYTE   W06
        BYTE                   En1
        BYTE   W06
        BYTE                   As1   v079
        BYTE   W06
        BYTE                   En1   v100
        BYTE   W06
        BYTE                   Fs1
        BYTE           N06     Cn1
        BYTE   W12
        BYTE                   En1
        BYTE           N06     As1   v079
        BYTE   W06
        BYTE                   Fs1   v100
        BYTE   W06
        BYTE   PEND
// 007   ----------------------------------------
        BYTE   PATT
         POIN2  extend_ash_hourai_victim_000_7_5
// 008   ----------------------------------------
extend_ash_hourai_victim_000_7_8:
        BYTE           N06     Cn1   v100
        BYTE           N06     Fs1
        BYTE   W12
        BYTE                   As1   v079
        BYTE           N06     En1   v100
        BYTE   W12
        BYTE                   Cn1
        BYTE           N06     Fs1
        BYTE   W12
        BYTE                   As1   v079
        BYTE           N06     En1   v100
        BYTE   W12
        BYTE                   Cn1
        BYTE           N06     Fs1
        BYTE   W06
        BYTE                   En1
        BYTE   W06
        BYTE                   As1   v079
        BYTE   W06
        BYTE                   En1   v100
        BYTE   W06
        BYTE                   Fs1
        BYTE           N06     Cn1
        BYTE   W12
        BYTE                   En1
        BYTE           N06     As1   v079
        BYTE   W06
        BYTE                   Fs1   v100
        BYTE   W06
        BYTE   PEND
// 009   ----------------------------------------
extend_ash_hourai_victim_000_7_9:
        BYTE           N06     Cn1   v100
        BYTE           N06     Fs1
        BYTE   W12
        BYTE                   En1
        BYTE           N06     As1   v079
        BYTE   W12
        BYTE                   Cn1   v100
        BYTE           N06     Fs1
        BYTE   W06
        BYTE                   Fs1
        BYTE   W06
        BYTE                   En1
        BYTE           N06     As1   v079
        BYTE   W12
        BYTE                   Fs1   v100
        BYTE           N06     Cn1
        BYTE   W06
        BYTE                   En1
        BYTE   W06
        BYTE                   As1   v079
        BYTE   W06
        BYTE                   En1   v100
        BYTE   W06
        BYTE                   Cn1
        BYTE           N06     Fs1
        BYTE   W06
        BYTE                   Fs1
        BYTE   W06
        BYTE                   En1
        BYTE           N06     As1   v079
        BYTE   W06
        BYTE                   Fs1   v100
        BYTE   W06
        BYTE   PEND
// 010   ----------------------------------------
        BYTE   PATT
         POIN2  extend_ash_hourai_victim_000_7_8
// 011   ----------------------------------------
extend_ash_hourai_victim_000_7_11:
        BYTE           N06     Cn1   v100
        BYTE           N06     Fs1
        BYTE   W12
        BYTE                   En1
        BYTE           N06     As1   v079
        BYTE   W12
        BYTE                   Cn1   v100
        BYTE           N06     Fs1
        BYTE   W06
        BYTE                   Fs1
        BYTE   W06
        BYTE                   En1
        BYTE           N06     As1   v079
        BYTE   W12
        BYTE                   Dn1
        BYTE           N06     Fs1   v100
        BYTE           N06     Cn1
        BYTE   W06
        BYTE                   Dn1   v079
        BYTE           N06     En1   v100
        BYTE   W06
        BYTE                   Dn1   v079
        BYTE           N06     As1
        BYTE   W06
        BYTE                   Dn1
        BYTE           N06     En1   v100
        BYTE   W06
        BYTE                   Cn1
        BYTE           N06     Dn1   v079
        BYTE           N06     Fs1   v100
        BYTE   W06
        BYTE                   Dn1   v079
        BYTE           N06     Fs1   v100
        BYTE   W06
        BYTE                   Dn1   v079
        BYTE           N06     En1   v100
        BYTE           N06     As1   v079
        BYTE   W06
        BYTE                   Dn1
        BYTE           N06     Fs1   v100
        BYTE   W06
        BYTE   PEND
// 012   ----------------------------------------
        BYTE                   Cs2
        BYTE           N06     Cn1
        BYTE           N06     Fs1
        BYTE   W12
        BYTE                   As1   v079
        BYTE   W12
        BYTE                   En1   v100
        BYTE           N06     Fs1
        BYTE   W12
        BYTE                   As1   v079
        BYTE   W12
        BYTE                   Fs1   v100
        BYTE           N06     Cn1
        BYTE   W12
        BYTE                   Cn1
        BYTE           N06     As1   v079
        BYTE   W12
        BYTE                   En1   v100
        BYTE           N06     Fs1
        BYTE   W12
        BYTE                   As1   v079
        BYTE   W06
        BYTE                   Fs1   v100
        BYTE   W06
// 013   ----------------------------------------
        BYTE                   Fs1
        BYTE           N06     Cn1
        BYTE   W12
        BYTE                   As1   v079
        BYTE   W12
        BYTE                   En1   v100
        BYTE           N06     Fs1
        BYTE   W06
        BYTE                   Fs1
        BYTE   W06
        BYTE                   Cn1
        BYTE           N06     As1   v079
        BYTE   W12
        BYTE                   Fs1   v100
        BYTE   W12
        BYTE                   As1   v079
        BYTE           N06     Cn1   v100
        BYTE   W12
        BYTE                   En1
        BYTE           N06     Fs1
        BYTE   W12
        BYTE                   As1   v079
        BYTE           N06     Cn1   v100
        BYTE   W12
// 014   ----------------------------------------
        BYTE                   Fs1
        BYTE           N06     Cn1
        BYTE   W12
        BYTE                   As1   v079
        BYTE   W12
        BYTE                   En1   v100
        BYTE           N06     Fs1
        BYTE   W12
        BYTE                   As1   v079
        BYTE   W12
        BYTE                   Fs1   v100
        BYTE           N06     Cn1
        BYTE   W12
        BYTE                   As1   v079
        BYTE           N06     Cn1   v100
        BYTE   W12
        BYTE                   En1
        BYTE           N06     Fs1
        BYTE   W12
        BYTE                   As1   v079
        BYTE   W06
        BYTE                   Fs1   v100
        BYTE   W06
// 015   ----------------------------------------
        BYTE                   Fs1
        BYTE           N06     Cn1
        BYTE   W12
        BYTE                   As1   v079
        BYTE   W12
        BYTE                   En1   v100
        BYTE           N06     Fs1
        BYTE   W06
        BYTE                   Fs1
        BYTE   W06
        BYTE                   Cn1
        BYTE           N06     As1   v079
        BYTE   W12
        BYTE                   Fs1   v100
        BYTE   W12
        BYTE                   As1   v079
        BYTE           N06     Cn1   v100
        BYTE   W12
        BYTE                   Fs1
        BYTE           N06     En1
        BYTE   W06
        BYTE                   En1
        BYTE   W06
        BYTE                   Dn1   v079
        BYTE           N06     En1   v100
        BYTE           N06     Cn1
        BYTE           N06     As1   v079
        BYTE   W06
        BYTE                   Dn1
        BYTE   W06
// 016   ----------------------------------------
        BYTE                   Fs1   v100
        BYTE           N06     Cn1
        BYTE   W12
        BYTE                   As1   v079
        BYTE   W12
        BYTE                   Fs1   v100
        BYTE           N06     En1
        BYTE   W12
        BYTE                   As1   v079
        BYTE   W12
        BYTE                   Cn1   v100
        BYTE           N06     Fs1
        BYTE   W12
        BYTE                   Cn1
        BYTE           N06     As1   v079
        BYTE   W12
        BYTE                   Fs1   v100
        BYTE           N06     En1
        BYTE   W12
        BYTE                   As1   v079
        BYTE   W06
        BYTE                   Fs1   v100
        BYTE   W06
// 017   ----------------------------------------
        BYTE                   Fs1
        BYTE           N06     Cn1
        BYTE   W12
        BYTE                   As1   v079
        BYTE   W12
        BYTE                   Fs1   v100
        BYTE           N06     En1
        BYTE   W06
        BYTE                   Fs1
        BYTE   W06
        BYTE                   Cn1
        BYTE           N06     As1   v079
        BYTE   W12
        BYTE                   Fs1   v100
        BYTE   W12
        BYTE                   Cn1
        BYTE           N06     As1   v079
        BYTE   W12
        BYTE                   En1   v100
        BYTE           N06     Fs1
        BYTE   W12
        BYTE                   Cn1
        BYTE           N06     As1   v079
        BYTE   W12
// 018   ----------------------------------------
extend_ash_hourai_victim_000_7_18:
        BYTE           N06     Cn1   v100
        BYTE           N06     Fs1
        BYTE   W12
        BYTE                   As1   v079
        BYTE   W12
        BYTE                   En1   v100
        BYTE           N06     Fs1
        BYTE   W12
        BYTE                   As1   v079
        BYTE   W12
        BYTE                   Cn1   v100
        BYTE           N06     Fs1
        BYTE   W12
        BYTE                   Cn1
        BYTE           N06     As1   v079
        BYTE   W12
        BYTE                   En1   v100
        BYTE           N06     Fs1
        BYTE   W12
        BYTE                   As1   v079
        BYTE   W06
        BYTE                   Fs1   v100
        BYTE   W06
        BYTE   PEND
// 019   ----------------------------------------
        BYTE                   Fs1
        BYTE           N06     Cn1
        BYTE   W12
        BYTE                   As1   v079
        BYTE   W12
        BYTE                   Fs1   v100
        BYTE           N06     En1
        BYTE   W06
        BYTE                   Fs1
        BYTE   W06
        BYTE                   As1   v079
        BYTE           N06     Cn1   v100
        BYTE   W12
        BYTE                   Fs1
        BYTE           N06     Dn1   v079
        BYTE           N06     An2   v100
        BYTE   W12
        BYTE                   As1   v079
        BYTE           N06     Dn1
        BYTE           N06     Cn1   v100
        BYTE   W06
        BYTE                   Dn1   v079
        BYTE   W06
        BYTE                   An2   v100
        BYTE           N06     Fs1
        BYTE           N03     Dn1   v079
        BYTE           N06     En1   v100
        BYTE   W03
        BYTE           N03     Dn1   v079
        BYTE   W03
        BYTE           N06     Fs1   v100
        BYTE           N03     Dn1   v079
        BYTE   W03
        BYTE                   Dn1
        BYTE   W03
        BYTE           N06     As1
        BYTE           N03     Dn1
        BYTE           N06     Cn1   v100
        BYTE   W03
        BYTE           N03     Dn1   v079
        BYTE   W03
        BYTE           N06     Fs1   v100
        BYTE           N03     Dn1   v079
        BYTE   W03
        BYTE                   Dn1
        BYTE   W03
// 020   ----------------------------------------
        BYTE   PATT
         POIN2  extend_ash_hourai_victim_000_7_8
// 021   ----------------------------------------
        BYTE   PATT
         POIN2  extend_ash_hourai_victim_000_7_9
// 022   ----------------------------------------
        BYTE   PATT
         POIN2  extend_ash_hourai_victim_000_7_8
// 023   ----------------------------------------
        BYTE   PATT
         POIN2  extend_ash_hourai_victim_000_7_9
// 024   ----------------------------------------
        BYTE   PATT
         POIN2  extend_ash_hourai_victim_000_7_8
// 025   ----------------------------------------
        BYTE   PATT
         POIN2  extend_ash_hourai_victim_000_7_9
// 026   ----------------------------------------
        BYTE   PATT
         POIN2  extend_ash_hourai_victim_000_7_8
// 027   ----------------------------------------
extend_ash_hourai_victim_000_7_27:
        BYTE           N06     Cn1   v100
        BYTE           N06     Fs1
        BYTE   W12
        BYTE                   En1
        BYTE           N06     As1   v079
        BYTE   W12
        BYTE                   Cn1   v100
        BYTE           N06     Fs1
        BYTE   W06
        BYTE                   Fs1
        BYTE   W06
        BYTE                   En1
        BYTE           N06     As1   v079
        BYTE   W12
        BYTE                   Dn1
        BYTE           N06     Fs1   v100
        BYTE           N06     Cn1
        BYTE   W06
        BYTE                   Dn1   v079
        BYTE           N06     En1   v100
        BYTE   W06
        BYTE                   Dn1   v079
        BYTE           N06     As1
        BYTE   W06
        BYTE                   Dn1
        BYTE           N06     En1   v100
        BYTE   W06
        BYTE                   Dn1   v079
        BYTE           N06     Cn1   v100
        BYTE           N06     Fs1
        BYTE   W06
        BYTE                   Dn1   v079
        BYTE           N06     Fs1   v100
        BYTE   W06
        BYTE                   Dn1   v079
        BYTE           N06     En1   v100
        BYTE           N06     As1   v079
        BYTE   W06
        BYTE                   Dn1
        BYTE           N06     Fs1   v100
        BYTE   W06
        BYTE   PEND
// 028   ----------------------------------------
        BYTE   PATT
         POIN2  extend_ash_hourai_victim_000_7_8
// 029   ----------------------------------------
        BYTE   PATT
         POIN2  extend_ash_hourai_victim_000_7_9
// 030   ----------------------------------------
        BYTE   PATT
         POIN2  extend_ash_hourai_victim_000_7_8
// 031   ----------------------------------------
        BYTE   PATT
         POIN2  extend_ash_hourai_victim_000_7_9
// 032   ----------------------------------------
        BYTE   PATT
         POIN2  extend_ash_hourai_victim_000_7_8
// 033   ----------------------------------------
        BYTE   PATT
         POIN2  extend_ash_hourai_victim_000_7_9
// 034   ----------------------------------------
        BYTE   PATT
         POIN2  extend_ash_hourai_victim_000_7_8
// 035   ----------------------------------------
extend_ash_hourai_victim_000_7_35:
        BYTE           N03     Dn1   v056
        BYTE           N06     Cn1   v100
        BYTE           N06     Fs1
        BYTE   W03
        BYTE           N03     Dn1   v056
        BYTE   W03
        BYTE                   Dn1
        BYTE   W03
        BYTE                   Dn1
        BYTE   W03
        BYTE                   Dn1
        BYTE           N06     En1   v100
        BYTE           N06     As1   v079
        BYTE   W03
        BYTE           N03     Dn1   v056
        BYTE   W03
        BYTE                   Dn1
        BYTE   W03
        BYTE                   Dn1
        BYTE   W03
        BYTE                   Dn1   v058
        BYTE           N06     Cn1   v100
        BYTE           N06     Fs1
        BYTE   W03
        BYTE           N03     Dn1   v059
        BYTE   W03
        BYTE                   Dn1   v062
        BYTE           N06     Fs1   v100
        BYTE   W03
        BYTE           N03     Dn1   v064
        BYTE   W03
        BYTE                   Dn1   v067
        BYTE           N06     En1   v100
        BYTE           N06     As1   v079
        BYTE   W03
        BYTE           N03     Dn1   v070
        BYTE   W03
        BYTE                   Dn1   v073
        BYTE   W03
        BYTE                   Dn1   v076
        BYTE   W03
        BYTE                   Dn1   v079
        BYTE           N06     Fs1   v100
        BYTE           N06     Cn1
        BYTE   W03
        BYTE           N03     Dn1   v079
        BYTE   W03
        BYTE                   Dn1
        BYTE           N06     En1   v100
        BYTE   W03
        BYTE           N03     Dn1   v079
        BYTE   W03
        BYTE                   Dn1
        BYTE           N06     As1
        BYTE   W03
        BYTE           N03     Dn1
        BYTE   W03
        BYTE                   Dn1
        BYTE           N06     En1   v100
        BYTE   W03
        BYTE           N03     Dn1   v079
        BYTE   W03
        BYTE                   Dn1
        BYTE           N06     Cn1   v100
        BYTE           N06     Fs1
        BYTE   W03
        BYTE           N03     Dn1   v079
        BYTE   W03
        BYTE                   Dn1
        BYTE           N06     Fs1   v100
        BYTE   W03
        BYTE           N03     Dn1   v079
        BYTE   W03
        BYTE                   Dn1
        BYTE           N06     En1   v100
        BYTE           N06     As1   v079
        BYTE   W03
        BYTE           N03     Dn1
        BYTE   W03
        BYTE                   Dn1
        BYTE           N06     Fs1   v100
        BYTE   W03
        BYTE           N03     Dn1   v079
        BYTE   W03
        BYTE   PEND
// 036   ----------------------------------------
extend_ash_hourai_victim_000_7_36:
        BYTE           N06     Cs2   v100
        BYTE           N06     Cn1
        BYTE           N06     Fs1
        BYTE   W12
        BYTE                   As1   v079
        BYTE   W12
        BYTE                   En1   v100
        BYTE           N06     Fs1
        BYTE   W12
        BYTE                   As1   v079
        BYTE   W12
        BYTE                   Cn1   v100
        BYTE           N06     Fs1
        BYTE   W12
        BYTE                   Cn1
        BYTE           N06     As1   v079
        BYTE   W12
        BYTE                   En1   v100
        BYTE           N06     Fs1
        BYTE   W12
        BYTE                   As1   v079
        BYTE   W06
        BYTE                   Fs1   v100
        BYTE   W06
        BYTE   PEND
// 037   ----------------------------------------
extend_ash_hourai_victim_000_7_37:
        BYTE           N06     Cn1   v100
        BYTE           N06     Fs1
        BYTE   W12
        BYTE                   As1   v079
        BYTE   W12
        BYTE                   En1   v100
        BYTE           N06     Fs1
        BYTE   W06
        BYTE                   Fs1
        BYTE   W06
        BYTE                   Cn1
        BYTE           N06     As1   v079
        BYTE   W12
        BYTE                   Fs1   v100
        BYTE   W12
        BYTE                   Cn1
        BYTE           N06     As1   v079
        BYTE   W12
        BYTE                   En1   v100
        BYTE           N06     Fs1
        BYTE   W12
        BYTE                   Cn1
        BYTE           N06     As1   v079
        BYTE   W12
        BYTE   PEND
// 038   ----------------------------------------
        BYTE   PATT
         POIN2  extend_ash_hourai_victim_000_7_18
// 039   ----------------------------------------
extend_ash_hourai_victim_000_7_39:
        BYTE           N06     Cn1   v100
        BYTE           N06     Fs1
        BYTE   W12
        BYTE                   As1   v079
        BYTE   W12
        BYTE                   En1   v100
        BYTE           N06     Fs1
        BYTE   W06
        BYTE                   Fs1
        BYTE   W06
        BYTE                   Cn1
        BYTE           N06     As1   v079
        BYTE   W12
        BYTE                   Fs1   v100
        BYTE   W12
        BYTE                   Cn1
        BYTE           N06     As1   v079
        BYTE   W12
        BYTE                   En1   v100
        BYTE           N06     Fs1
        BYTE   W06
        BYTE                   En1
        BYTE   W06
        BYTE                   Dn1   v079
        BYTE           N06     En1   v100
        BYTE           N06     Cn1
        BYTE           N06     As1   v079
        BYTE   W06
        BYTE                   Dn1
        BYTE   W06
        BYTE   PEND
// 040   ----------------------------------------
        BYTE   PATT
         POIN2  extend_ash_hourai_victim_000_7_18
// 041   ----------------------------------------
        BYTE   PATT
         POIN2  extend_ash_hourai_victim_000_7_37
// 042   ----------------------------------------
        BYTE   PATT
         POIN2  extend_ash_hourai_victim_000_7_18
// 043   ----------------------------------------
extend_ash_hourai_victim_000_7_43:
        BYTE           N06     Fs1   v100
        BYTE           N06     Cn1
        BYTE   W12
        BYTE                   As1   v079
        BYTE   W12
        BYTE                   Fs1   v100
        BYTE           N06     En1
        BYTE   W06
        BYTE                   Fs1
        BYTE   W06
        BYTE                   As1   v079
        BYTE           N06     Cn1   v100
        BYTE   W12
        BYTE                   Fs1
        BYTE           N06     An2
        BYTE           N06     Dn1   v079
        BYTE   W12
        BYTE                   As1
        BYTE           N06     Dn1
        BYTE           N06     Cn1   v100
        BYTE   W06
        BYTE                   Dn1   v079
        BYTE   W06
        BYTE                   An2   v100
        BYTE           N06     Fs1
        BYTE           N03     Dn1   v079
        BYTE           N06     En1   v100
        BYTE   W03
        BYTE           N03     Dn1   v079
        BYTE   W03
        BYTE           N06     Fs1   v100
        BYTE           N03     Dn1   v079
        BYTE   W03
        BYTE                   Dn1
        BYTE   W03
        BYTE           N06     As1
        BYTE           N03     Dn1
        BYTE           N06     Cn1   v100
        BYTE   W03
        BYTE           N03     Dn1   v079
        BYTE   W03
        BYTE           N06     Fs1   v100
        BYTE           N03     Dn1   v079
        BYTE   W03
        BYTE                   Dn1
        BYTE   W03
        BYTE   PEND
// 044   ----------------------------------------
        BYTE   PATT
         POIN2  extend_ash_hourai_victim_000_7_8
// 045   ----------------------------------------
        BYTE   PATT
         POIN2  extend_ash_hourai_victim_000_7_9
// 046   ----------------------------------------
        BYTE   PATT
         POIN2  extend_ash_hourai_victim_000_7_8
// 047   ----------------------------------------
        BYTE   PATT
         POIN2  extend_ash_hourai_victim_000_7_9
// 048   ----------------------------------------
        BYTE   PATT
         POIN2  extend_ash_hourai_victim_000_7_8
// 049   ----------------------------------------
        BYTE   PATT
         POIN2  extend_ash_hourai_victim_000_7_9
// 050   ----------------------------------------
        BYTE   PATT
         POIN2  extend_ash_hourai_victim_000_7_8
// 051   ----------------------------------------
        BYTE   PATT
         POIN2  extend_ash_hourai_victim_000_7_27
// 052   ----------------------------------------
extend_ash_hourai_victim_000_7_52:
        BYTE           N06     Gn2   v100
        BYTE           N06     Fs1
        BYTE           N06     Cs2
        BYTE   W24
        BYTE                   Fs1
        BYTE   W24
        BYTE                   Fs1
        BYTE   W24
        BYTE                   Fs1
        BYTE   W24
        BYTE   PEND
// 053   ----------------------------------------
extend_ash_hourai_victim_000_7_53:
        BYTE           N06     Gn2   v100
        BYTE           N06     Fs1
        BYTE   W24
        BYTE                   Fs1
        BYTE   W24
        BYTE                   Fs1
        BYTE   W24
        BYTE                   Fs1
        BYTE   W24
        BYTE   PEND
// 054   ----------------------------------------
        BYTE   PATT
         POIN2  extend_ash_hourai_victim_000_7_53
// 055   ----------------------------------------
        BYTE   PATT
         POIN2  extend_ash_hourai_victim_000_7_53
// 056   ----------------------------------------
        BYTE   PATT
         POIN2  extend_ash_hourai_victim_000_7_53
// 057   ----------------------------------------
        BYTE   PATT
         POIN2  extend_ash_hourai_victim_000_7_53
// 058   ----------------------------------------
        BYTE   PATT
         POIN2  extend_ash_hourai_victim_000_7_53
// 059   ----------------------------------------
        BYTE   PATT
         POIN2  extend_ash_hourai_victim_000_7_53
// 060   ----------------------------------------
extend_ash_hourai_victim_000_7_60:
        BYTE           N06     Gn2   v100
        BYTE           N06     Cn1
        BYTE           N06     Fs1
        BYTE   W24
        BYTE                   Cn1
        BYTE           N06     Fs1
        BYTE   W24
        BYTE                   Cn1
        BYTE           N06     Fs1
        BYTE   W24
        BYTE                   Cn1
        BYTE           N06     Fs1
        BYTE   W12
        BYTE                   Fs1
        BYTE   W06
        BYTE                   Fs1
        BYTE   W06
        BYTE   PEND
// 061   ----------------------------------------
extend_ash_hourai_victim_000_7_61:
        BYTE           N06     Gn2   v100
        BYTE           N06     Cn1
        BYTE           N06     Fs1
        BYTE   W24
        BYTE                   Cn1
        BYTE           N06     Fs1
        BYTE   W06
        BYTE                   Fs1
        BYTE   W18
        BYTE                   Cn1
        BYTE           N06     Fs1
        BYTE   W24
        BYTE                   Cn1
        BYTE           N06     Fs1
        BYTE   W12
        BYTE                   Fs1
        BYTE   W12
        BYTE   PEND
// 062   ----------------------------------------
        BYTE   PATT
         POIN2  extend_ash_hourai_victim_000_7_60
// 063   ----------------------------------------
        BYTE   PATT
         POIN2  extend_ash_hourai_victim_000_7_61
// 064   ----------------------------------------
        BYTE   PATT
         POIN2  extend_ash_hourai_victim_000_7_60
// 065   ----------------------------------------
        BYTE   PATT
         POIN2  extend_ash_hourai_victim_000_7_61
// 066   ----------------------------------------
        BYTE   PATT
         POIN2  extend_ash_hourai_victim_000_7_60
// 067   ----------------------------------------
extend_ash_hourai_victim_000_7_67:
        BYTE           N03     Dn1   v079
        BYTE           N06     Gn2   v100
        BYTE           N06     Cn1
        BYTE           N06     Fs1
        BYTE   W03
        BYTE           N03     Dn1   v079
        BYTE   W03
        BYTE                   Dn1
        BYTE   W03
        BYTE                   Dn1
        BYTE   W03
        BYTE                   Dn1
        BYTE   W03
        BYTE                   Dn1
        BYTE   W03
        BYTE                   Dn1
        BYTE   W03
        BYTE                   Dn1
        BYTE   W03
        BYTE                   Dn1
        BYTE           N06     Cn1   v100
        BYTE           N06     Fs1
        BYTE   W03
        BYTE           N03     Dn1   v079
        BYTE   W03
        BYTE                   Dn1
        BYTE           N06     Fs1   v100
        BYTE   W03
        BYTE           N03     Dn1   v079
        BYTE   W03
        BYTE                   Dn1
        BYTE   W03
        BYTE                   Dn1
        BYTE   W03
        BYTE                   Dn1
        BYTE   W03
        BYTE                   Dn1
        BYTE   W03
        BYTE           N06
        BYTE           N06     Cn1   v100
        BYTE           N06     Fs1
        BYTE   W12
        BYTE                   Dn1   v079
        BYTE   W12
        BYTE                   Dn1
        BYTE           N06     Cn1   v100
        BYTE           N06     Fs1
        BYTE   W12
        BYTE                   Dn1   v079
        BYTE           N06     Fs1   v100
        BYTE   W12
        BYTE   PEND
// 068   ----------------------------------------
        BYTE   PATT
         POIN2  extend_ash_hourai_victim_000_7_36
// 069   ----------------------------------------
        BYTE   PATT
         POIN2  extend_ash_hourai_victim_000_7_37
// 070   ----------------------------------------
        BYTE   PATT
         POIN2  extend_ash_hourai_victim_000_7_18
// 071   ----------------------------------------
        BYTE   PATT
         POIN2  extend_ash_hourai_victim_000_7_39
// 072   ----------------------------------------
        BYTE   PATT
         POIN2  extend_ash_hourai_victim_000_7_18
// 073   ----------------------------------------
        BYTE   PATT
         POIN2  extend_ash_hourai_victim_000_7_37
// 074   ----------------------------------------
        BYTE   PATT
         POIN2  extend_ash_hourai_victim_000_7_18
// 075   ----------------------------------------
        BYTE   PATT
         POIN2  extend_ash_hourai_victim_000_7_43
// 076   ----------------------------------------
extend_ash_hourai_victim_000_7_76:
        BYTE           N06     Fs1   v100
        BYTE           N06     Cn1
        BYTE           N06     An2
        BYTE   W12
        BYTE                   As1   v079
        BYTE           N06     En1   v100
        BYTE   W12
        BYTE                   Cn1
        BYTE           N06     Fs1
        BYTE   W12
        BYTE                   As1   v079
        BYTE           N06     En1   v100
        BYTE   W12
        BYTE                   Cn1
        BYTE           N06     Fs1
        BYTE   W06
        BYTE                   En1
        BYTE   W06
        BYTE                   As1   v079
        BYTE   W06
        BYTE                   En1   v100
        BYTE   W06
        BYTE                   Fs1
        BYTE           N06     Cn1
        BYTE   W12
        BYTE                   En1
        BYTE           N06     As1   v079
        BYTE   W06
        BYTE                   Fs1   v100
        BYTE   W06
        BYTE   PEND
// 077   ----------------------------------------
        BYTE                   Fs1
        BYTE           N06     Cn1
        BYTE   W12
        BYTE                   En1
        BYTE           N06     As1   v079
        BYTE   W12
        BYTE                   Cn1   v100
        BYTE           N06     Fs1
        BYTE   W06
        BYTE                   Fs1
        BYTE   W06
        BYTE                   En1
        BYTE           N06     As1   v079
        BYTE   W12
        BYTE                   Fs1   v100
        BYTE           N06     Cn1
        BYTE   W06
        BYTE                   En1
        BYTE   W06
        BYTE                   As1   v079
        BYTE   W06
        BYTE                   En1   v100
        BYTE   W06
        BYTE                   Cn1
        BYTE           N06     Fs1
        BYTE   W06
        BYTE                   Fs1
        BYTE   W06
        BYTE                   En1
        BYTE           N06     As1   v079
        BYTE   W06
        BYTE                   Fs1   v100
        BYTE   W06
// 078   ----------------------------------------
        BYTE   PATT
         POIN2  extend_ash_hourai_victim_000_7_76
// 079   ----------------------------------------
        BYTE           N06     Fs1   v100
        BYTE           N06     Cn1
        BYTE   W12
        BYTE                   En1
        BYTE           N06     As1   v079
        BYTE   W12
        BYTE                   Cn1   v100
        BYTE           N06     Fs1
        BYTE   W06
        BYTE                   Fs1
        BYTE   W06
        BYTE                   En1
        BYTE           N06     As1   v079
        BYTE   W12
        BYTE                   Cn1   v100
        BYTE           N06     Fs1
        BYTE   W06
        BYTE                   En1
        BYTE   W06
        BYTE                   As1   v079
        BYTE   W06
        BYTE                   En1   v100
        BYTE   W06
        BYTE                   Cn1
        BYTE           N06     Fs1
        BYTE   W06
        BYTE                   Fs1
        BYTE   W06
        BYTE                   En1
        BYTE           N06     As1   v079
        BYTE   W06
        BYTE                   Fs1   v100
        BYTE   W06
// 080   ----------------------------------------
extend_ash_hourai_victim_000_7_80:
        BYTE           N06     An2   v100
        BYTE           N06     Cn1
        BYTE           N06     Fs1
        BYTE   W12
        BYTE                   As1   v079
        BYTE           N06     En1   v100
        BYTE   W12
        BYTE                   Cn1
        BYTE           N06     Fs1
        BYTE   W12
        BYTE                   As1   v079
        BYTE           N06     En1   v100
        BYTE   W12
        BYTE                   Cn1
        BYTE           N06     Fs1
        BYTE   W06
        BYTE                   En1
        BYTE   W06
        BYTE                   As1   v079
        BYTE   W06
        BYTE                   En1   v100
        BYTE   W06
        BYTE                   Fs1
        BYTE           N06     Cn1
        BYTE   W12
        BYTE                   En1
        BYTE           N06     As1   v079
        BYTE   W06
        BYTE                   Fs1   v100
        BYTE   W06
        BYTE   PEND
// 081   ----------------------------------------
        BYTE   PATT
         POIN2  extend_ash_hourai_victim_000_7_9
// 082   ----------------------------------------
        BYTE   PATT
         POIN2  extend_ash_hourai_victim_000_7_80
// 083   ----------------------------------------
extend_ash_hourai_victim_000_7_83:
        BYTE           N06     Cn1   v100
        BYTE           N06     Fs1
        BYTE   W12
        BYTE                   Dn1   v079
        BYTE           N06     En1   v100
        BYTE           N06     As1   v079
        BYTE   W12
        BYTE                   Dn1
        BYTE           N06     Cn1   v100
        BYTE           N06     Fs1
        BYTE   W06
        BYTE                   Fs1
        BYTE   W06
        BYTE                   Dn1   v079
        BYTE           N06     En1   v100
        BYTE           N06     As1   v079
        BYTE   W12
        BYTE                   Dn1
        BYTE           N06     Fs1   v100
        BYTE           N06     Cn1
        BYTE   W06
        BYTE                   Dn1   v079
        BYTE           N06     En1   v100
        BYTE   W06
        BYTE                   Dn1   v079
        BYTE           N06     As1
        BYTE   W06
        BYTE                   Dn1
        BYTE           N06     En1   v100
        BYTE   W06
        BYTE                   Fs1
        BYTE           N06     Cn1
        BYTE           N06     En1
        BYTE   W24
        BYTE   PEND
// 084   ----------------------------------------
        BYTE   W96
// 085   ----------------------------------------
        BYTE   W96
// 086   ----------------------------------------
        BYTE   W96
// 087   ----------------------------------------
        BYTE   W96
// 088   ----------------------------------------
        BYTE   W96
// 089   ----------------------------------------
        BYTE   W96
// 090   ----------------------------------------
        BYTE   W96
// 091   ----------------------------------------
        BYTE   W96
// 092   ----------------------------------------
        BYTE   PATT
         POIN2  extend_ash_hourai_victim_000_7_80
// 093   ----------------------------------------
        BYTE   PATT
         POIN2  extend_ash_hourai_victim_000_7_9
// 094   ----------------------------------------
        BYTE   PATT
         POIN2  extend_ash_hourai_victim_000_7_80
// 095   ----------------------------------------
        BYTE   PATT
         POIN2  extend_ash_hourai_victim_000_7_9
// 096   ----------------------------------------
        BYTE   PATT
         POIN2  extend_ash_hourai_victim_000_7_80
// 097   ----------------------------------------
        BYTE   PATT
         POIN2  extend_ash_hourai_victim_000_7_9
// 098   ----------------------------------------
extend_ash_hourai_victim_000_7_98:
        BYTE           N03     Dn1   v048
        BYTE           N06     An2   v100
        BYTE           N06     Cn1
        BYTE           N06     Fs1
        BYTE   W03
        BYTE           N03     Dn1   v048
        BYTE   W03
        BYTE                   Dn1
        BYTE   W03
        BYTE                   Dn1
        BYTE   W03
        BYTE                   Dn1
        BYTE           N06     As1   v079
        BYTE           N06     En1   v100
        BYTE   W03
        BYTE           N03     Dn1   v048
        BYTE   W03
        BYTE                   Dn1
        BYTE   W03
        BYTE                   Dn1
        BYTE   W03
        BYTE                   Dn1
        BYTE           N06     Cn1   v100
        BYTE           N06     Fs1
        BYTE   W03
        BYTE           N03     Dn1   v048
        BYTE   W03
        BYTE                   Dn1
        BYTE   W03
        BYTE                   Dn1
        BYTE   W03
        BYTE                   Dn1
        BYTE           N06     As1   v079
        BYTE           N06     En1   v100
        BYTE   W03
        BYTE           N03     Dn1   v048
        BYTE   W03
        BYTE                   Dn1
        BYTE   W03
        BYTE                   Dn1
        BYTE   W03
        BYTE                   Dn1
        BYTE           N06     Cn1   v100
        BYTE           N06     Fs1
        BYTE   W03
        BYTE           N03     Dn1   v048
        BYTE   W03
        BYTE                   Dn1
        BYTE           N06     En1   v100
        BYTE   W03
        BYTE           N03     Dn1   v048
        BYTE   W03
        BYTE                   Dn1
        BYTE           N06     As1   v079
        BYTE   W03
        BYTE           N03     Dn1   v048
        BYTE   W03
        BYTE                   Dn1
        BYTE           N06     En1   v100
        BYTE   W03
        BYTE           N03     Dn1   v048
        BYTE   W03
        BYTE                   Dn1   v049
        BYTE           N06     Fs1   v100
        BYTE           N06     Cn1
        BYTE   W03
        BYTE           N03     Dn1   v053
        BYTE   W03
        BYTE                   Dn1   v057
        BYTE   W03
        BYTE                   Dn1   v060
        BYTE   W03
        BYTE                   Dn1   v064
        BYTE           N06     En1   v100
        BYTE           N06     As1   v079
        BYTE   W03
        BYTE           N03     Dn1   v068
        BYTE   W03
        BYTE                   Dn1   v072
        BYTE           N06     Fs1   v100
        BYTE   W03
        BYTE           N03     Dn1   v076
        BYTE   W03
        BYTE   PEND
// 099   ----------------------------------------
        BYTE                   Dn1   v079
        BYTE           N06     Cn1   v100
        BYTE           N06     Fs1
        BYTE   W03
        BYTE           N03     Dn1   v079
        BYTE   W03
        BYTE                   Dn1
        BYTE   W03
        BYTE                   Dn1
        BYTE   W03
        BYTE                   Dn1
        BYTE           N06     En1   v100
        BYTE           N06     As1   v079
        BYTE   W03
        BYTE           N03     Dn1
        BYTE   W03
        BYTE                   Dn1
        BYTE   W03
        BYTE                   Dn1
        BYTE   W03
        BYTE                   Dn1
        BYTE           N06     Cn1   v100
        BYTE           N06     Fs1
        BYTE   W03
        BYTE           N03     Dn1   v079
        BYTE   W03
        BYTE                   Dn1
        BYTE           N06     Fs1   v100
        BYTE   W03
        BYTE           N03     Dn1   v079
        BYTE   W03
        BYTE                   Dn1
        BYTE           N06     En1   v100
        BYTE           N06     As1   v079
        BYTE   W03
        BYTE           N03     Dn1
        BYTE   W03
        BYTE                   Dn1
        BYTE   W03
        BYTE                   Dn1
        BYTE   W03
        BYTE                   Dn1
        BYTE           N06     Fs1   v100
        BYTE           N06     Cn1
        BYTE   W03
        BYTE           N03     Dn1   v079
        BYTE   W03
        BYTE                   Dn1
        BYTE           N06     En1   v100
        BYTE   W03
        BYTE           N03     Dn1   v079
        BYTE   W03
        BYTE                   Dn1
        BYTE           N06     As1
        BYTE   W03
        BYTE           N03     Dn1
        BYTE   W03
        BYTE                   Dn1
        BYTE           N06     En1   v100
        BYTE   W03
        BYTE           N03     Dn1   v079
        BYTE   W03
        BYTE                   Dn1
        BYTE           N06     Cn1   v100
        BYTE           N06     Fs1
        BYTE   W03
        BYTE           N03     Dn1   v079
        BYTE   W03
        BYTE                   Dn1
        BYTE           N06     Fs1   v100
        BYTE   W03
        BYTE           N03     Dn1   v079
        BYTE   W03
        BYTE                   Dn1
        BYTE           N06     En1   v100
        BYTE           N06     As1   v079
        BYTE   W03
        BYTE           N03     Dn1
        BYTE   W03
        BYTE                   Dn1
        BYTE           N06     Fs1   v100
        BYTE   W03
        BYTE           N03     Dn1   v079
        BYTE   W03
// 100   ----------------------------------------
        BYTE           N06     Cn1   v100
        BYTE           N06     Fs1
        BYTE   W24
        BYTE                   Fs1
        BYTE   W24
        BYTE                   Cn1
        BYTE           N06     Fs1
        BYTE   W24
        BYTE                   Fs1
        BYTE   W12
        BYTE                   Fs1
        BYTE   W06
        BYTE                   Fs1
        BYTE   W06
// 101   ----------------------------------------
        BYTE   PATT
         POIN2  extend_ash_hourai_victim_000_7_1
// 102   ----------------------------------------
        BYTE   PATT
         POIN2  extend_ash_hourai_victim_000_7_2
// 103   ----------------------------------------
        BYTE   PATT
         POIN2  extend_ash_hourai_victim_000_7_3
// 104   ----------------------------------------
        BYTE   PATT
         POIN2  extend_ash_hourai_victim_000_7_4
// 105   ----------------------------------------
        BYTE   PATT
         POIN2  extend_ash_hourai_victim_000_7_5
// 106   ----------------------------------------
        BYTE   PATT
         POIN2  extend_ash_hourai_victim_000_7_6
// 107   ----------------------------------------
        BYTE   PATT
         POIN2  extend_ash_hourai_victim_000_7_5
// 108   ----------------------------------------
        BYTE   PATT
         POIN2  extend_ash_hourai_victim_000_7_8
// 109   ----------------------------------------
        BYTE   PATT
         POIN2  extend_ash_hourai_victim_000_7_9
// 110   ----------------------------------------
        BYTE   PATT
         POIN2  extend_ash_hourai_victim_000_7_8
// 111   ----------------------------------------
        BYTE   PATT
         POIN2  extend_ash_hourai_victim_000_7_11
// 112   ----------------------------------------
        BYTE   PATT
         POIN2  extend_ash_hourai_victim_000_7_36
// 113   ----------------------------------------
        BYTE   PATT
         POIN2  extend_ash_hourai_victim_000_7_37
// 114   ----------------------------------------
        BYTE   PATT
         POIN2  extend_ash_hourai_victim_000_7_18
// 115   ----------------------------------------
        BYTE   PATT
         POIN2  extend_ash_hourai_victim_000_7_39
// 116   ----------------------------------------
        BYTE   PATT
         POIN2  extend_ash_hourai_victim_000_7_18
// 117   ----------------------------------------
        BYTE   PATT
         POIN2  extend_ash_hourai_victim_000_7_37
// 118   ----------------------------------------
        BYTE   PATT
         POIN2  extend_ash_hourai_victim_000_7_18
// 119   ----------------------------------------
        BYTE   PATT
         POIN2  extend_ash_hourai_victim_000_7_43
// 120   ----------------------------------------
        BYTE   PATT
         POIN2  extend_ash_hourai_victim_000_7_8
// 121   ----------------------------------------
        BYTE   PATT
         POIN2  extend_ash_hourai_victim_000_7_9
// 122   ----------------------------------------
        BYTE   PATT
         POIN2  extend_ash_hourai_victim_000_7_8
// 123   ----------------------------------------
        BYTE   PATT
         POIN2  extend_ash_hourai_victim_000_7_9
// 124   ----------------------------------------
        BYTE   PATT
         POIN2  extend_ash_hourai_victim_000_7_8
// 125   ----------------------------------------
        BYTE   PATT
         POIN2  extend_ash_hourai_victim_000_7_9
// 126   ----------------------------------------
        BYTE   PATT
         POIN2  extend_ash_hourai_victim_000_7_8
// 127   ----------------------------------------
        BYTE   PATT
         POIN2  extend_ash_hourai_victim_000_7_27
// 128   ----------------------------------------
        BYTE   PATT
         POIN2  extend_ash_hourai_victim_000_7_8
// 129   ----------------------------------------
        BYTE   PATT
         POIN2  extend_ash_hourai_victim_000_7_9
// 130   ----------------------------------------
        BYTE   PATT
         POIN2  extend_ash_hourai_victim_000_7_8
// 131   ----------------------------------------
        BYTE   PATT
         POIN2  extend_ash_hourai_victim_000_7_9
// 132   ----------------------------------------
        BYTE   PATT
         POIN2  extend_ash_hourai_victim_000_7_8
// 133   ----------------------------------------
        BYTE   PATT
         POIN2  extend_ash_hourai_victim_000_7_9
// 134   ----------------------------------------
        BYTE   PATT
         POIN2  extend_ash_hourai_victim_000_7_8
// 135   ----------------------------------------
        BYTE   PATT
         POIN2  extend_ash_hourai_victim_000_7_35
// 136   ----------------------------------------
        BYTE   PATT
         POIN2  extend_ash_hourai_victim_000_7_36
// 137   ----------------------------------------
        BYTE   PATT
         POIN2  extend_ash_hourai_victim_000_7_37
// 138   ----------------------------------------
        BYTE   PATT
         POIN2  extend_ash_hourai_victim_000_7_18
// 139   ----------------------------------------
        BYTE   PATT
         POIN2  extend_ash_hourai_victim_000_7_39
// 140   ----------------------------------------
        BYTE   PATT
         POIN2  extend_ash_hourai_victim_000_7_18
// 141   ----------------------------------------
        BYTE   PATT
         POIN2  extend_ash_hourai_victim_000_7_37
// 142   ----------------------------------------
        BYTE   PATT
         POIN2  extend_ash_hourai_victim_000_7_18
// 143   ----------------------------------------
        BYTE   PATT
         POIN2  extend_ash_hourai_victim_000_7_43
// 144   ----------------------------------------
        BYTE   PATT
         POIN2  extend_ash_hourai_victim_000_7_8
// 145   ----------------------------------------
        BYTE   PATT
         POIN2  extend_ash_hourai_victim_000_7_9
// 146   ----------------------------------------
        BYTE   PATT
         POIN2  extend_ash_hourai_victim_000_7_8
// 147   ----------------------------------------
        BYTE   PATT
         POIN2  extend_ash_hourai_victim_000_7_9
// 148   ----------------------------------------
        BYTE   PATT
         POIN2  extend_ash_hourai_victim_000_7_8
// 149   ----------------------------------------
        BYTE   PATT
         POIN2  extend_ash_hourai_victim_000_7_9
// 150   ----------------------------------------
        BYTE   PATT
         POIN2  extend_ash_hourai_victim_000_7_8
// 151   ----------------------------------------
        BYTE   PATT
         POIN2  extend_ash_hourai_victim_000_7_27
// 152   ----------------------------------------
        BYTE   PATT
         POIN2  extend_ash_hourai_victim_000_7_52
// 153   ----------------------------------------
        BYTE   PATT
         POIN2  extend_ash_hourai_victim_000_7_53
// 154   ----------------------------------------
        BYTE   PATT
         POIN2  extend_ash_hourai_victim_000_7_53
// 155   ----------------------------------------
        BYTE   PATT
         POIN2  extend_ash_hourai_victim_000_7_53
// 156   ----------------------------------------
        BYTE   PATT
         POIN2  extend_ash_hourai_victim_000_7_53
// 157   ----------------------------------------
        BYTE   PATT
         POIN2  extend_ash_hourai_victim_000_7_53
// 158   ----------------------------------------
        BYTE   PATT
         POIN2  extend_ash_hourai_victim_000_7_53
// 159   ----------------------------------------
        BYTE   PATT
         POIN2  extend_ash_hourai_victim_000_7_53
// 160   ----------------------------------------
        BYTE   PATT
         POIN2  extend_ash_hourai_victim_000_7_60
// 161   ----------------------------------------
        BYTE   PATT
         POIN2  extend_ash_hourai_victim_000_7_61
// 162   ----------------------------------------
        BYTE   PATT
         POIN2  extend_ash_hourai_victim_000_7_60
// 163   ----------------------------------------
        BYTE   PATT
         POIN2  extend_ash_hourai_victim_000_7_61
// 164   ----------------------------------------
        BYTE   PATT
         POIN2  extend_ash_hourai_victim_000_7_60
// 165   ----------------------------------------
        BYTE   PATT
         POIN2  extend_ash_hourai_victim_000_7_61
// 166   ----------------------------------------
        BYTE   PATT
         POIN2  extend_ash_hourai_victim_000_7_60
// 167   ----------------------------------------
        BYTE   PATT
         POIN2  extend_ash_hourai_victim_000_7_67
// 168   ----------------------------------------
        BYTE   PATT
         POIN2  extend_ash_hourai_victim_000_7_36
// 169   ----------------------------------------
        BYTE   PATT
         POIN2  extend_ash_hourai_victim_000_7_37
// 170   ----------------------------------------
        BYTE   PATT
         POIN2  extend_ash_hourai_victim_000_7_18
// 171   ----------------------------------------
        BYTE   PATT
         POIN2  extend_ash_hourai_victim_000_7_39
// 172   ----------------------------------------
        BYTE   PATT
         POIN2  extend_ash_hourai_victim_000_7_18
// 173   ----------------------------------------
        BYTE   PATT
         POIN2  extend_ash_hourai_victim_000_7_37
// 174   ----------------------------------------
        BYTE   PATT
         POIN2  extend_ash_hourai_victim_000_7_18
// 175   ----------------------------------------
        BYTE   PATT
         POIN2  extend_ash_hourai_victim_000_7_43
// 176   ----------------------------------------
        BYTE   PATT
         POIN2  extend_ash_hourai_victim_000_7_80
// 177   ----------------------------------------
        BYTE   PATT
         POIN2  extend_ash_hourai_victim_000_7_9
// 178   ----------------------------------------
        BYTE   PATT
         POIN2  extend_ash_hourai_victim_000_7_80
// 179   ----------------------------------------
        BYTE   PATT
         POIN2  extend_ash_hourai_victim_000_7_9
// 180   ----------------------------------------
        BYTE   PATT
         POIN2  extend_ash_hourai_victim_000_7_80
// 181   ----------------------------------------
        BYTE   PATT
         POIN2  extend_ash_hourai_victim_000_7_9
// 182   ----------------------------------------
        BYTE   PATT
         POIN2  extend_ash_hourai_victim_000_7_80
// 183   ----------------------------------------
        BYTE   PATT
         POIN2  extend_ash_hourai_victim_000_7_83
// 184   ----------------------------------------
        BYTE   W96
// 185   ----------------------------------------
        BYTE   W96
// 186   ----------------------------------------
        BYTE   W96
// 187   ----------------------------------------
        BYTE   W96
// 188   ----------------------------------------
        BYTE   W96
// 189   ----------------------------------------
        BYTE   W96
// 190   ----------------------------------------
        BYTE   W96
// 191   ----------------------------------------
        BYTE   W96
// 192   ----------------------------------------
        BYTE   PATT
         POIN2  extend_ash_hourai_victim_000_7_80
// 193   ----------------------------------------
        BYTE   PATT
         POIN2  extend_ash_hourai_victim_000_7_9
// 194   ----------------------------------------
        BYTE   PATT
         POIN2  extend_ash_hourai_victim_000_7_80
// 195   ----------------------------------------
        BYTE   PATT
         POIN2  extend_ash_hourai_victim_000_7_9
// 196   ----------------------------------------
        BYTE   PATT
         POIN2  extend_ash_hourai_victim_000_7_80
// 197   ----------------------------------------
        BYTE   PATT
         POIN2  extend_ash_hourai_victim_000_7_9
// 198   ----------------------------------------
        BYTE   PATT
         POIN2  extend_ash_hourai_victim_000_7_98
// 199   ----------------------------------------
        BYTE           N03     Dn1   v079
        BYTE           N06     Cn1   v100
        BYTE           N06     Fs1
        BYTE   W03
        BYTE           N03     Dn1   v079
        BYTE   W03
        BYTE                   Dn1
        BYTE   W03
        BYTE                   Dn1
        BYTE   W03
        BYTE                   Dn1
        BYTE           N06     En1   v100
        BYTE           N06     As1   v079
        BYTE   W03
        BYTE           N03     Dn1
        BYTE   W03
        BYTE                   Dn1
        BYTE   W03
        BYTE                   Dn1
        BYTE   W03
        BYTE                   Dn1
        BYTE           N06     Cn1   v100
        BYTE           N06     Fs1
        BYTE   W03
        BYTE           N03     Dn1   v079
        BYTE   W03
        BYTE                   Dn1
        BYTE           N06     Fs1   v100
        BYTE   W03
        BYTE           N03     Dn1   v079
        BYTE   W03
        BYTE                   Dn1
        BYTE           N06     En1   v100
        BYTE           N06     As1   v079
        BYTE   W03
        BYTE           N03     Dn1
        BYTE   W03
        BYTE                   Dn1
        BYTE   W03
        BYTE                   Dn1
        BYTE   W03
        BYTE                   Dn1
        BYTE           N06     Fs1   v100
        BYTE           N06     Cn1
        BYTE   W03
        BYTE           N03     Dn1   v079
        BYTE   W03
        BYTE                   Dn1
        BYTE           N06     En1   v100
        BYTE   W03
        BYTE           N03     Dn1   v079
        BYTE   W03
        BYTE                   Dn1
        BYTE           N06     As1
        BYTE   W03
        BYTE           N03     Dn1
        BYTE   W03
        BYTE                   Dn1
        BYTE           N06     En1   v100
        BYTE   W03
        BYTE           N03     Dn1   v079
        BYTE   W03
        BYTE                   Dn1
        BYTE           N06     Cn1   v100
        BYTE           N06     Fs1
        BYTE   W03
        BYTE           N03     Dn1   v079
        BYTE   W03
        BYTE                   Dn1
        BYTE           N06     Fs1   v100
        BYTE   W03
        BYTE           N03     Dn1   v079
        BYTE   W03
        BYTE                   Dn1
        BYTE           N06     En1   v100
        BYTE           N06     As1   v079
        BYTE   W03
        BYTE           N03     Dn1
        BYTE   W03
        BYTE                   Dn1
        BYTE           N06     Fs1   v100
        BYTE   W03
        BYTE           N03     Dn1   v079
        BYTE   GoTo
         POIN2  extend_ash_hourai_victim_000_7_LOOP
        BYTE   W03
// 200   ----------------------------------------
        BYTE   FINE

//****************** Track 8 (Midi-Chn.8) ******************//

extend_ash_hourai_victim_000_8:
        BYTE   KEYSH   extend_ash_hourai_victim_000_key+0
// 000   ----------------------------------------
extend_ash_hourai_victim_000_8_LOOP:
        BYTE           VOICE   56
        BYTE           VOL     42
        BYTE           BENDR   12
        BYTE   W96
// 001   ----------------------------------------
        BYTE   W96
// 002   ----------------------------------------
        BYTE   W96
// 003   ----------------------------------------
        BYTE   W96
// 004   ----------------------------------------
        BYTE   W96
// 005   ----------------------------------------
        BYTE   W96
// 006   ----------------------------------------
        BYTE   W96
// 007   ----------------------------------------
        BYTE   W96
// 008   ----------------------------------------
        BYTE   W96
// 009   ----------------------------------------
        BYTE   W96
// 010   ----------------------------------------
        BYTE   W96
// 011   ----------------------------------------
        BYTE   W96
// 012   ----------------------------------------
extend_ash_hourai_victim_000_8_12:
        BYTE           N12     Dn4   v100
        BYTE   W12
        BYTE                   Gn3
        BYTE   W12
        BYTE                   Cn4
        BYTE   W12
        BYTE                   Dn4
        BYTE   W12
        BYTE                   As3
        BYTE   W12
        BYTE           N24     An3
        BYTE   W24
        BYTE                   Dn4
        BYTE   W12
        BYTE   PEND
// 013   ----------------------------------------
extend_ash_hourai_victim_000_8_13:
        BYTE   W12
        BYTE           N12     Gn3   v100
        BYTE   W12
        BYTE                   Cn4
        BYTE   W12
        BYTE                   Dn4
        BYTE   W12
        BYTE                   As3
        BYTE   W12
        BYTE           N24     An3
        BYTE   W24
        BYTE           N12     Fn3
        BYTE   W12
        BYTE   PEND
// 014   ----------------------------------------
extend_ash_hourai_victim_000_8_14:
        BYTE           N12     Gn3   v100
        BYTE   W12
        BYTE                   Dn3
        BYTE   W12
        BYTE                   An3
        BYTE   W12
        BYTE                   As3
        BYTE   W12
        BYTE                   An3
        BYTE   W12
        BYTE           N24     Fn3
        BYTE   W24
        BYTE           N12     Cn3
        BYTE   W12
        BYTE   PEND
// 015   ----------------------------------------
extend_ash_hourai_victim_000_8_15:
        BYTE           N12     Fs3   v100
        BYTE   W12
        BYTE                   Gn3
        BYTE   W12
        BYTE                   An3
        BYTE   W12
        BYTE                   Dn4
        BYTE   W12
        BYTE                   An3
        BYTE   W12
        BYTE                   Gn3
        BYTE   W12
        BYTE           N24     Fs3
        BYTE   W24
        BYTE   PEND
// 016   ----------------------------------------
extend_ash_hourai_victim_000_8_16:
        BYTE           N12     Dn4   v100
        BYTE   W12
        BYTE                   Gn3
        BYTE   W12
        BYTE                   Cn4
        BYTE   W12
        BYTE                   Dn4
        BYTE   W12
        BYTE                   As3
        BYTE   W12
        BYTE           N24     An3
        BYTE   W24
        BYTE           N36     Gn4
        BYTE   W12
        BYTE   PEND
// 017   ----------------------------------------
extend_ash_hourai_victim_000_8_17:
        BYTE   W24
        BYTE           N12     An4   v100
        BYTE   W12
        BYTE           N60     As4
        BYTE   W60
        BYTE   PEND
// 018   ----------------------------------------
extend_ash_hourai_victim_000_8_18:
        BYTE   W12
        BYTE           N12     Dn3   v100
        BYTE   W12
        BYTE                   Gn3
        BYTE   W12
        BYTE                   An3
        BYTE   W12
        BYTE           N48     As3
        BYTE   W48
        BYTE   PEND
// 019   ----------------------------------------
        BYTE           N96     An3
        BYTE   W96
// 020   ----------------------------------------
        BYTE   PATT
         POIN2  extend_ash_hourai_victim_000_8_12
// 021   ----------------------------------------
        BYTE   PATT
         POIN2  extend_ash_hourai_victim_000_8_13
// 022   ----------------------------------------
        BYTE   PATT
         POIN2  extend_ash_hourai_victim_000_8_14
// 023   ----------------------------------------
        BYTE   PATT
         POIN2  extend_ash_hourai_victim_000_8_15
// 024   ----------------------------------------
        BYTE   PATT
         POIN2  extend_ash_hourai_victim_000_8_16
// 025   ----------------------------------------
        BYTE   PATT
         POIN2  extend_ash_hourai_victim_000_8_17
// 026   ----------------------------------------
extend_ash_hourai_victim_000_8_26:
        BYTE   W12
        BYTE           N12     An4   v100
        BYTE   W12
        BYTE                   As4
        BYTE   W12
        BYTE           N60     Cn5
        BYTE   W60
        BYTE   PEND
// 027   ----------------------------------------
        BYTE           N96     Fs4
        BYTE   W96
// 028   ----------------------------------------
        BYTE           TIE     Gn4
        BYTE   W96
// 029   ----------------------------------------
        BYTE   W96
// 030   ----------------------------------------
        BYTE   W96
// 031   ----------------------------------------
        BYTE   W84
        BYTE           EOT
        BYTE   W12
// 032   ----------------------------------------
        BYTE   W96
// 033   ----------------------------------------
        BYTE   W96
// 034   ----------------------------------------
        BYTE   W96
// 035   ----------------------------------------
        BYTE   W96
// 036   ----------------------------------------
        BYTE   PATT
         POIN2  extend_ash_hourai_victim_000_8_12
// 037   ----------------------------------------
        BYTE   PATT
         POIN2  extend_ash_hourai_victim_000_8_13
// 038   ----------------------------------------
        BYTE   PATT
         POIN2  extend_ash_hourai_victim_000_8_14
// 039   ----------------------------------------
        BYTE   PATT
         POIN2  extend_ash_hourai_victim_000_8_15
// 040   ----------------------------------------
        BYTE   PATT
         POIN2  extend_ash_hourai_victim_000_8_16
// 041   ----------------------------------------
        BYTE   PATT
         POIN2  extend_ash_hourai_victim_000_8_17
// 042   ----------------------------------------
        BYTE   PATT
         POIN2  extend_ash_hourai_victim_000_8_18
// 043   ----------------------------------------
        BYTE           N96     An3   v100
        BYTE   W96
// 044   ----------------------------------------
        BYTE   PATT
         POIN2  extend_ash_hourai_victim_000_8_12
// 045   ----------------------------------------
        BYTE   PATT
         POIN2  extend_ash_hourai_victim_000_8_13
// 046   ----------------------------------------
        BYTE   PATT
         POIN2  extend_ash_hourai_victim_000_8_14
// 047   ----------------------------------------
        BYTE   PATT
         POIN2  extend_ash_hourai_victim_000_8_15
// 048   ----------------------------------------
        BYTE   PATT
         POIN2  extend_ash_hourai_victim_000_8_16
// 049   ----------------------------------------
        BYTE   PATT
         POIN2  extend_ash_hourai_victim_000_8_17
// 050   ----------------------------------------
        BYTE   PATT
         POIN2  extend_ash_hourai_victim_000_8_26
// 051   ----------------------------------------
        BYTE           N96     Fs4   v100
        BYTE   W96
// 052   ----------------------------------------
        BYTE           TIE     Gn4
        BYTE   W96
// 053   ----------------------------------------
        BYTE   W96
// 054   ----------------------------------------
        BYTE   W96
// 055   ----------------------------------------
        BYTE   W84
        BYTE           EOT
        BYTE   W12
// 056   ----------------------------------------
        BYTE   W96
// 057   ----------------------------------------
        BYTE   W96
// 058   ----------------------------------------
        BYTE   W96
// 059   ----------------------------------------
        BYTE   W96
// 060   ----------------------------------------
        BYTE   W96
// 061   ----------------------------------------
        BYTE   W96
// 062   ----------------------------------------
        BYTE   W96
// 063   ----------------------------------------
        BYTE   W96
// 064   ----------------------------------------
        BYTE   W96
// 065   ----------------------------------------
        BYTE   W96
// 066   ----------------------------------------
        BYTE   W96
// 067   ----------------------------------------
        BYTE   W96
// 068   ----------------------------------------
        BYTE   W96
// 069   ----------------------------------------
        BYTE   W96
// 070   ----------------------------------------
        BYTE   W96
// 071   ----------------------------------------
        BYTE   W96
// 072   ----------------------------------------
        BYTE   W96
// 073   ----------------------------------------
        BYTE   W96
// 074   ----------------------------------------
        BYTE   W96
// 075   ----------------------------------------
        BYTE   W96
// 076   ----------------------------------------
        BYTE   W96
// 077   ----------------------------------------
        BYTE   W96
// 078   ----------------------------------------
        BYTE   W96
// 079   ----------------------------------------
        BYTE   W96
// 080   ----------------------------------------
        BYTE   W96
// 081   ----------------------------------------
        BYTE   W96
// 082   ----------------------------------------
        BYTE   W96
// 083   ----------------------------------------
        BYTE   W96
// 084   ----------------------------------------
        BYTE   PATT
         POIN2  extend_ash_hourai_victim_000_2_84
// 085   ----------------------------------------
        BYTE   PATT
         POIN2  extend_ash_hourai_victim_000_2_85
// 086   ----------------------------------------
        BYTE   PATT
         POIN2  extend_ash_hourai_victim_000_2_86
// 087   ----------------------------------------
        BYTE   PATT
         POIN2  extend_ash_hourai_victim_000_2_87
// 088   ----------------------------------------
        BYTE   PATT
         POIN2  extend_ash_hourai_victim_000_2_84
// 089   ----------------------------------------
        BYTE   PATT
         POIN2  extend_ash_hourai_victim_000_2_85
// 090   ----------------------------------------
        BYTE   PATT
         POIN2  extend_ash_hourai_victim_000_2_90
// 091   ----------------------------------------
        BYTE   PATT
         POIN2  extend_ash_hourai_victim_000_2_91
// 092   ----------------------------------------
        BYTE   PATT
         POIN2  extend_ash_hourai_victim_000_2_84
// 093   ----------------------------------------
        BYTE   PATT
         POIN2  extend_ash_hourai_victim_000_2_85
// 094   ----------------------------------------
        BYTE   PATT
         POIN2  extend_ash_hourai_victim_000_2_86
// 095   ----------------------------------------
        BYTE   PATT
         POIN2  extend_ash_hourai_victim_000_2_87
// 096   ----------------------------------------
        BYTE   PATT
         POIN2  extend_ash_hourai_victim_000_2_84
// 097   ----------------------------------------
        BYTE   PATT
         POIN2  extend_ash_hourai_victim_000_2_85
// 098   ----------------------------------------
        BYTE   PATT
         POIN2  extend_ash_hourai_victim_000_2_90
// 099   ----------------------------------------
        BYTE   PATT
         POIN2  extend_ash_hourai_victim_000_2_91
// 100   ----------------------------------------
        BYTE   W96
// 101   ----------------------------------------
        BYTE   W96
// 102   ----------------------------------------
        BYTE   W96
// 103   ----------------------------------------
        BYTE   W96
// 104   ----------------------------------------
        BYTE   W96
// 105   ----------------------------------------
        BYTE   W96
// 106   ----------------------------------------
        BYTE   W96
// 107   ----------------------------------------
        BYTE   W96
// 108   ----------------------------------------
        BYTE   W96
// 109   ----------------------------------------
        BYTE   W96
// 110   ----------------------------------------
        BYTE   W96
// 111   ----------------------------------------
        BYTE   W96
// 112   ----------------------------------------
        BYTE   PATT
         POIN2  extend_ash_hourai_victim_000_8_12
// 113   ----------------------------------------
        BYTE   PATT
         POIN2  extend_ash_hourai_victim_000_8_13
// 114   ----------------------------------------
        BYTE   PATT
         POIN2  extend_ash_hourai_victim_000_8_14
// 115   ----------------------------------------
        BYTE   PATT
         POIN2  extend_ash_hourai_victim_000_8_15
// 116   ----------------------------------------
        BYTE   PATT
         POIN2  extend_ash_hourai_victim_000_8_16
// 117   ----------------------------------------
        BYTE   PATT
         POIN2  extend_ash_hourai_victim_000_8_17
// 118   ----------------------------------------
        BYTE   PATT
         POIN2  extend_ash_hourai_victim_000_8_18
// 119   ----------------------------------------
        BYTE           N96     An3   v100
        BYTE   W96
// 120   ----------------------------------------
        BYTE   PATT
         POIN2  extend_ash_hourai_victim_000_8_12
// 121   ----------------------------------------
        BYTE   PATT
         POIN2  extend_ash_hourai_victim_000_8_13
// 122   ----------------------------------------
        BYTE   PATT
         POIN2  extend_ash_hourai_victim_000_8_14
// 123   ----------------------------------------
        BYTE   PATT
         POIN2  extend_ash_hourai_victim_000_8_15
// 124   ----------------------------------------
        BYTE   PATT
         POIN2  extend_ash_hourai_victim_000_8_16
// 125   ----------------------------------------
        BYTE   PATT
         POIN2  extend_ash_hourai_victim_000_8_17
// 126   ----------------------------------------
        BYTE   PATT
         POIN2  extend_ash_hourai_victim_000_8_26
// 127   ----------------------------------------
        BYTE           N96     Fs4   v100
        BYTE   W96
// 128   ----------------------------------------
        BYTE           TIE     Gn4
        BYTE   W96
// 129   ----------------------------------------
        BYTE   W96
// 130   ----------------------------------------
        BYTE   W96
// 131   ----------------------------------------
        BYTE   W84
        BYTE           EOT
        BYTE   W12
// 132   ----------------------------------------
        BYTE   W96
// 133   ----------------------------------------
        BYTE   W96
// 134   ----------------------------------------
        BYTE   W96
// 135   ----------------------------------------
        BYTE   W96
// 136   ----------------------------------------
        BYTE   PATT
         POIN2  extend_ash_hourai_victim_000_8_12
// 137   ----------------------------------------
        BYTE   PATT
         POIN2  extend_ash_hourai_victim_000_8_13
// 138   ----------------------------------------
        BYTE   PATT
         POIN2  extend_ash_hourai_victim_000_8_14
// 139   ----------------------------------------
        BYTE   PATT
         POIN2  extend_ash_hourai_victim_000_8_15
// 140   ----------------------------------------
        BYTE   PATT
         POIN2  extend_ash_hourai_victim_000_8_16
// 141   ----------------------------------------
        BYTE   PATT
         POIN2  extend_ash_hourai_victim_000_8_17
// 142   ----------------------------------------
        BYTE   PATT
         POIN2  extend_ash_hourai_victim_000_8_18
// 143   ----------------------------------------
        BYTE           N96     An3   v100
        BYTE   W96
// 144   ----------------------------------------
        BYTE   PATT
         POIN2  extend_ash_hourai_victim_000_8_12
// 145   ----------------------------------------
        BYTE   PATT
         POIN2  extend_ash_hourai_victim_000_8_13
// 146   ----------------------------------------
        BYTE   PATT
         POIN2  extend_ash_hourai_victim_000_8_14
// 147   ----------------------------------------
        BYTE   PATT
         POIN2  extend_ash_hourai_victim_000_8_15
// 148   ----------------------------------------
        BYTE   PATT
         POIN2  extend_ash_hourai_victim_000_8_16
// 149   ----------------------------------------
        BYTE   PATT
         POIN2  extend_ash_hourai_victim_000_8_17
// 150   ----------------------------------------
        BYTE   PATT
         POIN2  extend_ash_hourai_victim_000_8_26
// 151   ----------------------------------------
        BYTE           N96     Fs4   v100
        BYTE   W96
// 152   ----------------------------------------
        BYTE           TIE     Gn4
        BYTE   W96
// 153   ----------------------------------------
        BYTE   W96
// 154   ----------------------------------------
        BYTE   W96
// 155   ----------------------------------------
        BYTE   W84
        BYTE           EOT
        BYTE   W12
// 156   ----------------------------------------
        BYTE   W96
// 157   ----------------------------------------
        BYTE   W96
// 158   ----------------------------------------
        BYTE   W96
// 159   ----------------------------------------
        BYTE   W96
// 160   ----------------------------------------
        BYTE   W96
// 161   ----------------------------------------
        BYTE   W96
// 162   ----------------------------------------
        BYTE   W96
// 163   ----------------------------------------
        BYTE   W96
// 164   ----------------------------------------
        BYTE   W96
// 165   ----------------------------------------
        BYTE   W96
// 166   ----------------------------------------
        BYTE   W96
// 167   ----------------------------------------
        BYTE   W96
// 168   ----------------------------------------
        BYTE   W96
// 169   ----------------------------------------
        BYTE   W96
// 170   ----------------------------------------
        BYTE   W96
// 171   ----------------------------------------
        BYTE   W96
// 172   ----------------------------------------
        BYTE   W96
// 173   ----------------------------------------
        BYTE   W96
// 174   ----------------------------------------
        BYTE   W96
// 175   ----------------------------------------
        BYTE   W96
// 176   ----------------------------------------
        BYTE   W96
// 177   ----------------------------------------
        BYTE   W96
// 178   ----------------------------------------
        BYTE   W96
// 179   ----------------------------------------
        BYTE   W96
// 180   ----------------------------------------
        BYTE   W96
// 181   ----------------------------------------
        BYTE   W96
// 182   ----------------------------------------
        BYTE   W96
// 183   ----------------------------------------
        BYTE   W96
// 184   ----------------------------------------
        BYTE   PATT
         POIN2  extend_ash_hourai_victim_000_2_84
// 185   ----------------------------------------
        BYTE   PATT
         POIN2  extend_ash_hourai_victim_000_2_85
// 186   ----------------------------------------
        BYTE   PATT
         POIN2  extend_ash_hourai_victim_000_2_86
// 187   ----------------------------------------
        BYTE   PATT
         POIN2  extend_ash_hourai_victim_000_2_87
// 188   ----------------------------------------
        BYTE   PATT
         POIN2  extend_ash_hourai_victim_000_2_84
// 189   ----------------------------------------
        BYTE   PATT
         POIN2  extend_ash_hourai_victim_000_2_85
// 190   ----------------------------------------
        BYTE   PATT
         POIN2  extend_ash_hourai_victim_000_2_90
// 191   ----------------------------------------
        BYTE   PATT
         POIN2  extend_ash_hourai_victim_000_2_91
// 192   ----------------------------------------
        BYTE   PATT
         POIN2  extend_ash_hourai_victim_000_2_84
// 193   ----------------------------------------
        BYTE   PATT
         POIN2  extend_ash_hourai_victim_000_2_85
// 194   ----------------------------------------
        BYTE   PATT
         POIN2  extend_ash_hourai_victim_000_2_86
// 195   ----------------------------------------
        BYTE   PATT
         POIN2  extend_ash_hourai_victim_000_2_87
// 196   ----------------------------------------
        BYTE   PATT
         POIN2  extend_ash_hourai_victim_000_2_84
// 197   ----------------------------------------
        BYTE   PATT
         POIN2  extend_ash_hourai_victim_000_2_85
// 198   ----------------------------------------
        BYTE   PATT
         POIN2  extend_ash_hourai_victim_000_2_90
// 199   ----------------------------------------
        BYTE           N36     An4   v100
        BYTE   W36
        BYTE           N12     Bn4
        BYTE   W12
        BYTE           N48     Gn4
        BYTE   W44
        BYTE   W01
        BYTE   GoTo
         POIN2  extend_ash_hourai_victim_000_8_LOOP
        BYTE   W03
// 200   ----------------------------------------
        BYTE   FINE


//********************** End of Song ***********************//

        ALIGN 4
extend_ash_hourai_victim_000:
        BYTE   9                       // Num Tracks
        BYTE   0                       // Unknown
        BYTE   extend_ash_hourai_victim_000_pri // Priority
        BYTE   extend_ash_hourai_victim_000_rev // Reverb

        POIN2   extend_ash_hourai_victim_000_grp

        POIN2   extend_ash_hourai_victim_000_0
        POIN2   extend_ash_hourai_victim_000_1
        POIN2   extend_ash_hourai_victim_000_2
        POIN2   extend_ash_hourai_victim_000_3
        POIN2   extend_ash_hourai_victim_000_4
        POIN2   extend_ash_hourai_victim_000_5
        POIN2   extend_ash_hourai_victim_000_6
        POIN2   extend_ash_hourai_victim_000_7
        POIN2   extend_ash_hourai_victim_000_8

        
