//Event file generated from Sappy .s format.
        #include "MPlayDef.event"

        #define    FirstWard_grp  voicegroup000
        #define    FirstWard_pri  0
        #define    FirstWard_rev  0
        #define    FirstWard_key  0

        // .rodata
        // FirstWard
        ALIGN 4

//****************** Track 0 (Midi-Chn.0) ******************//

FirstWard_0:
        BYTE   KEYSH   FirstWard_key+0
// 000   ----------------------------------------
        BYTE   TEMPO   120/2
        BYTE           VOICE   35
        BYTE           VOL     50
        BYTE           N12     Gn1   v110
        BYTE   W18
        BYTE                   Gn1
        BYTE   W18
        BYTE                   As1
        BYTE   W18
        BYTE                   Gn1
        BYTE   W18
        BYTE                   Dn2
        BYTE   W12
        BYTE                   Dn1
        BYTE   W12
// 001   ----------------------------------------
FirstWard_0_1:
        BYTE   W12
        BYTE           N12     Fn1   v110
        BYTE   W12
        BYTE                   Gn1
        BYTE   W12
        BYTE           N06     Fn1
        BYTE   W06
        BYTE                   Gn1
        BYTE   W06
        BYTE                   As1
        BYTE   W06
        BYTE                   As1
        BYTE   W06
        BYTE           N12     Gn1
        BYTE   W12
        BYTE                   Dn2
        BYTE   W12
        BYTE                   Dn1
        BYTE   W12
        BYTE   PEND
// 002   ----------------------------------------
FirstWard_0_2:
        BYTE           N12     Gn1   v110
        BYTE   W18
        BYTE                   Gn1
        BYTE   W18
        BYTE                   As1
        BYTE   W18
        BYTE                   Gn1
        BYTE   W18
        BYTE                   Dn2
        BYTE   W12
        BYTE                   Dn1
        BYTE   W12
        BYTE   PEND
// 003   ----------------------------------------
FirstWard_0_3:
        BYTE   W12
        BYTE           N12     Fn1   v110
        BYTE   W12
        BYTE                   Gn1
        BYTE   W12
        BYTE           N06     Fn1
        BYTE   W06
        BYTE                   Dn1
        BYTE   W06
        BYTE                   As1
        BYTE   W06
        BYTE                   As1
        BYTE   W06
        BYTE           N12     Gn1
        BYTE   W12
        BYTE                   Dn2
        BYTE   W12
        BYTE                   Dn1
        BYTE   W12
        BYTE   PEND
// 004   ----------------------------------------
        BYTE   PATT
         POIN2  FirstWard_0_2
// 005   ----------------------------------------
        BYTE   PATT
         POIN2  FirstWard_0_1
// 006   ----------------------------------------
        BYTE   PATT
         POIN2  FirstWard_0_2
// 007   ----------------------------------------
        BYTE   W12
        BYTE           N12     Fn1   v110
        BYTE   W12
        BYTE                   Gn1
        BYTE   W12
        BYTE           N06     Fn1
        BYTE   W06
        BYTE                   Dn1
        BYTE   W06
        BYTE           N12     As1
        BYTE   W18
        BYTE                   As1
        BYTE   W18
        BYTE                   An1
        BYTE   W06
FirstWard_0_LOOP:
        BYTE   W06
// 008   ----------------------------------------
        BYTE           BENDR   127
        BYTE           N12     Gn1   v110
        BYTE   W18
        BYTE                   Gn1
        BYTE   W18
        BYTE                   As1
        BYTE   W18
        BYTE                   Gn1
        BYTE   W18
        BYTE                   Dn2
        BYTE   W12
        BYTE                   Dn1
        BYTE   W12
// 009   ----------------------------------------
        BYTE   PATT
         POIN2  FirstWard_0_1
// 010   ----------------------------------------
        BYTE   PATT
         POIN2  FirstWard_0_2
// 011   ----------------------------------------
        BYTE   PATT
         POIN2  FirstWard_0_3
// 012   ----------------------------------------
        BYTE   PATT
         POIN2  FirstWard_0_2
// 013   ----------------------------------------
        BYTE   PATT
         POIN2  FirstWard_0_1
// 014   ----------------------------------------
        BYTE   PATT
         POIN2  FirstWard_0_2
// 015   ----------------------------------------
FirstWard_0_15:
        BYTE   W12
        BYTE           N12     Fn1   v110
        BYTE   W12
        BYTE                   Gn1
        BYTE   W12
        BYTE           N06     Fn1
        BYTE   W06
        BYTE                   Dn1
        BYTE   W06
        BYTE           N12     As1
        BYTE   W18
        BYTE                   As1
        BYTE   W18
        BYTE                   An1
        BYTE   W12
        BYTE   PEND
// 016   ----------------------------------------
        BYTE   PATT
         POIN2  FirstWard_0_2
// 017   ----------------------------------------
        BYTE   PATT
         POIN2  FirstWard_0_1
// 018   ----------------------------------------
        BYTE   PATT
         POIN2  FirstWard_0_2
// 019   ----------------------------------------
        BYTE   PATT
         POIN2  FirstWard_0_3
// 020   ----------------------------------------
        BYTE   PATT
         POIN2  FirstWard_0_2
// 021   ----------------------------------------
        BYTE   PATT
         POIN2  FirstWard_0_1
// 022   ----------------------------------------
        BYTE   PATT
         POIN2  FirstWard_0_2
// 023   ----------------------------------------
        BYTE   PATT
         POIN2  FirstWard_0_15
// 024   ----------------------------------------
        BYTE   PATT
         POIN2  FirstWard_0_2
// 025   ----------------------------------------
        BYTE   W72
        BYTE           N12     Dn2   v110
        BYTE   W12
        BYTE                   Dn1
        BYTE   W12
// 026   ----------------------------------------
        BYTE   PATT
         POIN2  FirstWard_0_2
// 027   ----------------------------------------
        BYTE   W48
        BYTE           N06     As1   v110
        BYTE   W06
        BYTE                   As1
        BYTE   W06
        BYTE           N12     Gn1
        BYTE   W12
        BYTE                   Dn2
        BYTE   W12
        BYTE                   Dn1
        BYTE   W12
// 028   ----------------------------------------
        BYTE   PATT
         POIN2  FirstWard_0_2
// 029   ----------------------------------------
        BYTE   W36
        BYTE           N06     Fn1   v110
        BYTE   W06
        BYTE                   Gn1
        BYTE   W06
        BYTE                   As1
        BYTE   W06
        BYTE                   As1
        BYTE   W06
        BYTE           N12     Gn1
        BYTE   W12
        BYTE                   Dn2
        BYTE   W12
        BYTE                   Dn1
        BYTE   W12
// 030   ----------------------------------------
        BYTE   PATT
         POIN2  FirstWard_0_2
// 031   ----------------------------------------
        BYTE   PATT
         POIN2  FirstWard_0_15
// 032   ----------------------------------------
FirstWard_0_32:
        BYTE           N12     Gn1   v110
        BYTE   W18
        BYTE                   Gn1
        BYTE   W18
        BYTE                   As1
        BYTE   W18
        BYTE                   Gn1
        BYTE   W18
        BYTE                   Dn2
        BYTE   W12
        BYTE                   Cs2
        BYTE   W12
        BYTE   PEND
// 033   ----------------------------------------
FirstWard_0_33:
        BYTE           N12     Gn1   v110
        BYTE   W18
        BYTE                   Gn1
        BYTE   W18
        BYTE                   As1
        BYTE   W18
        BYTE                   Gn1
        BYTE   W18
        BYTE                   Fn2
        BYTE   W12
        BYTE                   En2
        BYTE   W12
        BYTE   PEND
// 034   ----------------------------------------
        BYTE   PATT
         POIN2  FirstWard_0_32
// 035   ----------------------------------------
        BYTE   PATT
         POIN2  FirstWard_0_33
// 036   ----------------------------------------
        BYTE   PATT
         POIN2  FirstWard_0_32
// 037   ----------------------------------------
        BYTE   PATT
         POIN2  FirstWard_0_33
// 038   ----------------------------------------
        BYTE   PATT
         POIN2  FirstWard_0_32
// 039   ----------------------------------------
        BYTE   PATT
         POIN2  FirstWard_0_33
// 040   ----------------------------------------
FirstWard_0_40:
        BYTE           N12     Ds1   v110
        BYTE   W18
        BYTE                   Ds1
        BYTE   W18
        BYTE                   Gn1
        BYTE   W18
        BYTE                   Ds1
        BYTE   W18
        BYTE                   As1
        BYTE   W12
        BYTE                   An1
        BYTE   W12
        BYTE   PEND
// 041   ----------------------------------------
FirstWard_0_41:
        BYTE           N12     Ds1   v110
        BYTE   W18
        BYTE                   Ds1
        BYTE   W18
        BYTE                   Gn1
        BYTE   W18
        BYTE                   Ds1
        BYTE   W18
        BYTE                   Cs2
        BYTE   W12
        BYTE                   Cn2
        BYTE   W12
        BYTE   PEND
// 042   ----------------------------------------
        BYTE   PATT
         POIN2  FirstWard_0_40
// 043   ----------------------------------------
        BYTE   PATT
         POIN2  FirstWard_0_41
// 044   ----------------------------------------
        BYTE   PATT
         POIN2  FirstWard_0_32
// 045   ----------------------------------------
        BYTE   PATT
         POIN2  FirstWard_0_33
// 046   ----------------------------------------
        BYTE   PATT
         POIN2  FirstWard_0_32
// 047   ----------------------------------------
        BYTE   PATT
         POIN2  FirstWard_0_33
// 048   ----------------------------------------
        BYTE   PATT
         POIN2  FirstWard_0_2
// 049   ----------------------------------------
        BYTE   PATT
         POIN2  FirstWard_0_1
// 050   ----------------------------------------
        BYTE   PATT
         POIN2  FirstWard_0_2
// 051   ----------------------------------------
        BYTE   PATT
         POIN2  FirstWard_0_3
// 052   ----------------------------------------
        BYTE   PATT
         POIN2  FirstWard_0_2
// 053   ----------------------------------------
        BYTE   PATT
         POIN2  FirstWard_0_1
// 054   ----------------------------------------
        BYTE   PATT
         POIN2  FirstWard_0_2
// 055   ----------------------------------------
        BYTE   W12
        BYTE           N12     Fn1   v110
        BYTE   W12
        BYTE                   Gn1
        BYTE   W12
        BYTE           N06     Fn1
        BYTE   W06
        BYTE                   Dn1
        BYTE   W06
        BYTE           N12     As1
        BYTE   W18
        BYTE                   As1
        BYTE   W18
        BYTE           N11     An1
        BYTE   W06
        BYTE           BENDR   2
        BYTE   GoTo
         POIN2  FirstWard_0_LOOP
        BYTE   W06
// 056   ----------------------------------------
        BYTE   FINE

//****************** Track 1 (Midi-Chn.1) ******************//

FirstWard_1:
        BYTE   KEYSH   FirstWard_key+0
// 000   ----------------------------------------
        BYTE           VOICE   92
        BYTE           VOL     50
        BYTE   W96
// 001   ----------------------------------------
        BYTE   W96
// 002   ----------------------------------------
        BYTE   W96
// 003   ----------------------------------------
        BYTE   W96
// 004   ----------------------------------------
        BYTE   W96
// 005   ----------------------------------------
        BYTE   W96
// 006   ----------------------------------------
        BYTE   W96
// 007   ----------------------------------------
        BYTE   W90
FirstWard_1_LOOP:
        BYTE   W06
// 008   ----------------------------------------
FirstWard_1_8:
        BYTE   W12
        BYTE           N16     Dn3   v100
        BYTE           N16     Fn3
        BYTE   W18
        BYTE                   Dn3   v082
        BYTE           N16     Fn3
        BYTE   W18
        BYTE                   Dn3   v065
        BYTE           N16     Fn3
        BYTE   W18
        BYTE                   Dn3   v047
        BYTE           N16     Fn3
        BYTE   W18
        BYTE                   Dn3   v030
        BYTE           N16     Fn3
        BYTE   W12
        BYTE   PEND
// 009   ----------------------------------------
        BYTE   W96
// 010   ----------------------------------------
FirstWard_1_10:
        BYTE   W12
        BYTE           N16     Cs3   v100
        BYTE           N16     En3
        BYTE   W18
        BYTE                   Cs3   v082
        BYTE           N16     En3
        BYTE   W18
        BYTE                   Cs3   v065
        BYTE           N16     En3
        BYTE   W18
        BYTE                   Cs3   v047
        BYTE           N16     En3
        BYTE   W18
        BYTE                   Cs3   v030
        BYTE           N16     En3
        BYTE   W12
        BYTE   PEND
// 011   ----------------------------------------
        BYTE   W96
// 012   ----------------------------------------
FirstWard_1_12:
        BYTE   W12
        BYTE           N16     Cn3   v100
        BYTE           N16     Ds3
        BYTE   W18
        BYTE                   Cn3   v082
        BYTE           N16     Ds3
        BYTE   W18
        BYTE                   Cn3   v065
        BYTE           N16     Ds3
        BYTE   W18
        BYTE                   Cn3   v047
        BYTE           N16     Ds3
        BYTE   W18
        BYTE                   Cn3   v030
        BYTE           N16     Ds3
        BYTE   W12
        BYTE   PEND
// 013   ----------------------------------------
        BYTE   W96
// 014   ----------------------------------------
FirstWard_1_14:
        BYTE   W12
        BYTE           N16     As2   v100
        BYTE           N16     Dn3
        BYTE   W18
        BYTE                   As2   v082
        BYTE           N16     Dn3
        BYTE   W18
        BYTE                   As2   v065
        BYTE           N16     Dn3
        BYTE   W18
        BYTE                   As2   v047
        BYTE           N16     Dn3
        BYTE   W18
        BYTE                   As2   v030
        BYTE           N16     Dn3
        BYTE   W12
        BYTE   PEND
// 015   ----------------------------------------
        BYTE   W96
// 016   ----------------------------------------
        BYTE   PATT
         POIN2  FirstWard_1_8
// 017   ----------------------------------------
        BYTE   W96
// 018   ----------------------------------------
        BYTE   PATT
         POIN2  FirstWard_1_10
// 019   ----------------------------------------
        BYTE   W96
// 020   ----------------------------------------
        BYTE   PATT
         POIN2  FirstWard_1_12
// 021   ----------------------------------------
        BYTE   W96
// 022   ----------------------------------------
        BYTE   PATT
         POIN2  FirstWard_1_14
// 023   ----------------------------------------
        BYTE   W96
// 024   ----------------------------------------
        BYTE   W96
// 025   ----------------------------------------
        BYTE   W96
// 026   ----------------------------------------
        BYTE   W96
// 027   ----------------------------------------
        BYTE   W96
// 028   ----------------------------------------
        BYTE   W96
// 029   ----------------------------------------
        BYTE   W96
// 030   ----------------------------------------
        BYTE   W96
// 031   ----------------------------------------
        BYTE   W96
// 032   ----------------------------------------
FirstWard_1_32:
        BYTE   W72
        BYTE           N12     As2   v106
        BYTE           N12     Dn3
        BYTE   W12
        BYTE                   An2
        BYTE           N12     Cs3
        BYTE   W12
        BYTE   PEND
// 033   ----------------------------------------
FirstWard_1_33:
        BYTE   W72
        BYTE           N12     Dn3   v106
        BYTE           N12     Fn3
        BYTE   W12
        BYTE                   Cs3
        BYTE           N12     En3
        BYTE   W12
        BYTE   PEND
// 034   ----------------------------------------
        BYTE   PATT
         POIN2  FirstWard_1_32
// 035   ----------------------------------------
        BYTE   PATT
         POIN2  FirstWard_1_33
// 036   ----------------------------------------
        BYTE   PATT
         POIN2  FirstWard_1_32
// 037   ----------------------------------------
        BYTE   PATT
         POIN2  FirstWard_1_33
// 038   ----------------------------------------
        BYTE   PATT
         POIN2  FirstWard_1_32
// 039   ----------------------------------------
        BYTE   PATT
         POIN2  FirstWard_1_33
// 040   ----------------------------------------
FirstWard_1_40:
        BYTE   W72
        BYTE           N12     Fs2   v106
        BYTE           N12     As2
        BYTE   W12
        BYTE                   Fn2
        BYTE           N12     An2
        BYTE   W12
        BYTE   PEND
// 041   ----------------------------------------
FirstWard_1_41:
        BYTE   W72
        BYTE           N12     As2   v106
        BYTE           N12     Cs3
        BYTE   W12
        BYTE                   An2
        BYTE           N12     Cn3
        BYTE   W12
        BYTE   PEND
// 042   ----------------------------------------
        BYTE   PATT
         POIN2  FirstWard_1_40
// 043   ----------------------------------------
        BYTE   PATT
         POIN2  FirstWard_1_41
// 044   ----------------------------------------
        BYTE   PATT
         POIN2  FirstWard_1_32
// 045   ----------------------------------------
        BYTE   PATT
         POIN2  FirstWard_1_33
// 046   ----------------------------------------
        BYTE   PATT
         POIN2  FirstWard_1_32
// 047   ----------------------------------------
        BYTE   PATT
         POIN2  FirstWard_1_33
// 048   ----------------------------------------
        BYTE   W96
// 049   ----------------------------------------
        BYTE   W96
// 050   ----------------------------------------
        BYTE   W96
// 051   ----------------------------------------
        BYTE   W96
// 052   ----------------------------------------
        BYTE   W96
// 053   ----------------------------------------
        BYTE   W96
// 054   ----------------------------------------
        BYTE   W96
// 055   ----------------------------------------
        BYTE   W90
        BYTE   GoTo
         POIN2  FirstWard_1_LOOP
        BYTE   W06
// 056   ----------------------------------------
        BYTE   FINE

//****************** Track 2 (Midi-Chn.2) ******************//

FirstWard_2:
        BYTE   KEYSH   FirstWard_key+0
// 000   ----------------------------------------
        BYTE           VOICE   92
        BYTE           VOL     50
        BYTE           TIE     Dn2   v080
        BYTE           TIE     Fn2
        BYTE   W96
// 001   ----------------------------------------
FirstWard_2_1:
        BYTE   W11
        BYTE           EOT     Dn2
        BYTE                   Fn2
        BYTE   W84
        BYTE   W01
        BYTE   PEND
// 002   ----------------------------------------
FirstWard_2_2:
        BYTE           TIE     Cs2   v090
        BYTE           TIE     En2
        BYTE   W96
        BYTE   PEND
// 003   ----------------------------------------
FirstWard_2_3:
        BYTE   W11
        BYTE           EOT     Cs2
        BYTE                   En2
        BYTE   W84
        BYTE   W01
        BYTE   PEND
// 004   ----------------------------------------
FirstWard_2_4:
        BYTE           TIE     Cn2   v100
        BYTE           TIE     Ds2
        BYTE   W96
        BYTE   PEND
// 005   ----------------------------------------
FirstWard_2_5:
        BYTE   W11
        BYTE           EOT     Cn2
        BYTE                   Ds2
        BYTE   W84
        BYTE   W01
        BYTE   PEND
// 006   ----------------------------------------
FirstWard_2_6:
        BYTE           TIE     As1   v110
        BYTE           TIE     Dn2
        BYTE   W96
        BYTE   PEND
// 007   ----------------------------------------
        BYTE   W11
        BYTE           EOT     As1
        BYTE                   Dn2
        BYTE   W78
        BYTE   W01
FirstWard_2_LOOP:
        BYTE   W06
// 008   ----------------------------------------
        BYTE           TIE     Dn3   v080
        BYTE           TIE     Fn3
        BYTE   W96
// 009   ----------------------------------------
        BYTE   W96
// 010   ----------------------------------------
FirstWard_2_10:
        BYTE           EOT     Dn3
        BYTE                   Fn3
        BYTE           TIE     Cs3   v080
        BYTE           TIE     En3
        BYTE   W96
        BYTE   PEND
// 011   ----------------------------------------
        BYTE   W96
// 012   ----------------------------------------
FirstWard_2_12:
        BYTE           EOT     Cs3
        BYTE                   En3
        BYTE           TIE     Cn3   v080
        BYTE           TIE     Ds3
        BYTE   W96
        BYTE   PEND
// 013   ----------------------------------------
        BYTE   W96
// 014   ----------------------------------------
FirstWard_2_14:
        BYTE           EOT     Cn3
        BYTE                   Ds3
        BYTE           TIE     As2   v080
        BYTE           TIE     Dn3
        BYTE   W96
        BYTE   PEND
// 015   ----------------------------------------
        BYTE   W96
// 016   ----------------------------------------
        BYTE           EOT     As2
        BYTE                   Dn3
        BYTE           TIE
        BYTE           TIE     Fn3
        BYTE   W96
// 017   ----------------------------------------
        BYTE   W96
// 018   ----------------------------------------
        BYTE   PATT
         POIN2  FirstWard_2_10
// 019   ----------------------------------------
        BYTE   W96
// 020   ----------------------------------------
        BYTE   PATT
         POIN2  FirstWard_2_12
// 021   ----------------------------------------
        BYTE   W96
// 022   ----------------------------------------
        BYTE   PATT
         POIN2  FirstWard_2_14
// 023   ----------------------------------------
        BYTE   W96
// 024   ----------------------------------------
        BYTE           EOT     As2
        BYTE                   Dn3
        BYTE           TIE     Dn2   v080
        BYTE           TIE     Fn2
        BYTE   W96
// 025   ----------------------------------------
        BYTE   PATT
         POIN2  FirstWard_2_1
// 026   ----------------------------------------
        BYTE   PATT
         POIN2  FirstWard_2_2
// 027   ----------------------------------------
        BYTE   PATT
         POIN2  FirstWard_2_3
// 028   ----------------------------------------
        BYTE   PATT
         POIN2  FirstWard_2_4
// 029   ----------------------------------------
        BYTE   PATT
         POIN2  FirstWard_2_5
// 030   ----------------------------------------
        BYTE   PATT
         POIN2  FirstWard_2_6
// 031   ----------------------------------------
        BYTE   W11
        BYTE           EOT     As1
        BYTE                   Dn2
        BYTE   W84
        BYTE   W01
// 032   ----------------------------------------
        BYTE   W96
// 033   ----------------------------------------
        BYTE   W96
// 034   ----------------------------------------
        BYTE   W96
// 035   ----------------------------------------
        BYTE   W96
// 036   ----------------------------------------
        BYTE   W96
// 037   ----------------------------------------
        BYTE   W96
// 038   ----------------------------------------
        BYTE   W96
// 039   ----------------------------------------
        BYTE   W96
// 040   ----------------------------------------
        BYTE   W96
// 041   ----------------------------------------
        BYTE   W96
// 042   ----------------------------------------
        BYTE   W96
// 043   ----------------------------------------
        BYTE   W96
// 044   ----------------------------------------
        BYTE   W96
// 045   ----------------------------------------
        BYTE   W96
// 046   ----------------------------------------
        BYTE   W96
// 047   ----------------------------------------
        BYTE   W96
// 048   ----------------------------------------
        BYTE           TIE     Dn2   v080
        BYTE           TIE     Fn2
        BYTE   W96
// 049   ----------------------------------------
        BYTE   PATT
         POIN2  FirstWard_2_1
// 050   ----------------------------------------
        BYTE   PATT
         POIN2  FirstWard_2_2
// 051   ----------------------------------------
        BYTE   PATT
         POIN2  FirstWard_2_3
// 052   ----------------------------------------
        BYTE   PATT
         POIN2  FirstWard_2_4
// 053   ----------------------------------------
        BYTE   PATT
         POIN2  FirstWard_2_5
// 054   ----------------------------------------
        BYTE   PATT
         POIN2  FirstWard_2_6
// 055   ----------------------------------------
        BYTE   W11
        BYTE           EOT     As1
        BYTE                   Dn2
        BYTE   W78
        BYTE   W01
        BYTE   GoTo
         POIN2  FirstWard_2_LOOP
        BYTE   W06
// 056   ----------------------------------------
        BYTE   FINE

//****************** Track 3 (Midi-Chn.4) ******************//

FirstWard_3:
        BYTE   KEYSH   FirstWard_key+0
// 000   ----------------------------------------
        BYTE           VOICE   68
        BYTE           VOL     50
        BYTE   W96
// 001   ----------------------------------------
        BYTE   W96
// 002   ----------------------------------------
        BYTE   W96
// 003   ----------------------------------------
        BYTE   W96
// 004   ----------------------------------------
        BYTE   W96
// 005   ----------------------------------------
        BYTE   W96
// 006   ----------------------------------------
        BYTE   W96
// 007   ----------------------------------------
        BYTE   W90
FirstWard_3_LOOP:
        BYTE   W06
// 008   ----------------------------------------
        BYTE           TIE     As3   v100
        BYTE   W96
// 009   ----------------------------------------
        BYTE   W48
        BYTE           EOT
        BYTE           N44     Gn3   v100   gtp2
        BYTE   W48
// 010   ----------------------------------------
        BYTE           N68     An3   v100   gtp1
        BYTE   W72
        BYTE           TIE     En3
        BYTE   W24
// 011   ----------------------------------------
        BYTE   W96
// 012   ----------------------------------------
        BYTE           EOT
        BYTE   W48
        BYTE           N92     Gs3
        BYTE   W48
// 013   ----------------------------------------
FirstWard_3_13:
        BYTE   W48
        BYTE           N44     Fs3   v100   gtp2
        BYTE   W48
        BYTE   PEND
// 014   ----------------------------------------
        BYTE           N68     Gn3   v100   gtp1
        BYTE   W72
        BYTE           TIE     Dn3
        BYTE   W24
// 015   ----------------------------------------
        BYTE   W96
// 016   ----------------------------------------
        BYTE           EOT
        BYTE   W48
        BYTE           N92     As3
        BYTE   W48
// 017   ----------------------------------------
        BYTE   W48
        BYTE           N44     Gn3   v100   gtp2
        BYTE   W48
// 018   ----------------------------------------
        BYTE           N68     An3   v100   gtp1
        BYTE   W72
        BYTE                   Cs4
        BYTE   W24
// 019   ----------------------------------------
        BYTE   W48
        BYTE           N44     An3   v100   gtp2
        BYTE   W48
// 020   ----------------------------------------
        BYTE           N68     Gs3   v100   gtp1
        BYTE   W72
        BYTE                   Cn4
        BYTE   W24
// 021   ----------------------------------------
        BYTE   PATT
         POIN2  FirstWard_3_13
// 022   ----------------------------------------
        BYTE           TIE     Gn3   v100
        BYTE   W96
// 023   ----------------------------------------
        BYTE   W96
// 024   ----------------------------------------
        BYTE           EOT
        BYTE   W96
// 025   ----------------------------------------
        BYTE   W96
// 026   ----------------------------------------
        BYTE   W96
// 027   ----------------------------------------
        BYTE   W96
// 028   ----------------------------------------
        BYTE   W96
// 029   ----------------------------------------
        BYTE   W96
// 030   ----------------------------------------
        BYTE   W96
// 031   ----------------------------------------
        BYTE   W96
// 032   ----------------------------------------
        BYTE   W96
// 033   ----------------------------------------
        BYTE   W96
// 034   ----------------------------------------
        BYTE   W96
// 035   ----------------------------------------
        BYTE   W96
// 036   ----------------------------------------
        BYTE   W96
// 037   ----------------------------------------
        BYTE   W96
// 038   ----------------------------------------
        BYTE   W96
// 039   ----------------------------------------
        BYTE   W96
// 040   ----------------------------------------
        BYTE   W96
// 041   ----------------------------------------
        BYTE   W96
// 042   ----------------------------------------
        BYTE   W96
// 043   ----------------------------------------
        BYTE   W96
// 044   ----------------------------------------
        BYTE   W96
// 045   ----------------------------------------
        BYTE   W96
// 046   ----------------------------------------
        BYTE   W96
// 047   ----------------------------------------
        BYTE   W96
// 048   ----------------------------------------
        BYTE   W96
// 049   ----------------------------------------
        BYTE   W96
// 050   ----------------------------------------
        BYTE   W96
// 051   ----------------------------------------
        BYTE   W96
// 052   ----------------------------------------
        BYTE   W96
// 053   ----------------------------------------
        BYTE   W96
// 054   ----------------------------------------
        BYTE   W96
// 055   ----------------------------------------
        BYTE   W90
        BYTE   GoTo
         POIN2  FirstWard_3_LOOP
        BYTE   W06
// 056   ----------------------------------------
        BYTE   FINE

//****************** Track 4 (Midi-Chn.5) ******************//

FirstWard_4:
        BYTE   KEYSH   FirstWard_key+0
// 000   ----------------------------------------
        BYTE           VOICE   115
        BYTE           VOL     50
        BYTE   W96
// 001   ----------------------------------------
        BYTE   W96
// 002   ----------------------------------------
        BYTE   W96
// 003   ----------------------------------------
        BYTE   W96
// 004   ----------------------------------------
        BYTE   W96
// 005   ----------------------------------------
        BYTE   W96
// 006   ----------------------------------------
        BYTE   W96
// 007   ----------------------------------------
        BYTE   W90
FirstWard_4_LOOP:
        BYTE   W06
// 008   ----------------------------------------
        BYTE   W96
// 009   ----------------------------------------
        BYTE   W96
// 010   ----------------------------------------
        BYTE   W96
// 011   ----------------------------------------
        BYTE   W96
// 012   ----------------------------------------
        BYTE   W96
// 013   ----------------------------------------
        BYTE   W96
// 014   ----------------------------------------
        BYTE   W96
// 015   ----------------------------------------
        BYTE   W96
// 016   ----------------------------------------
        BYTE   W96
// 017   ----------------------------------------
        BYTE   W96
// 018   ----------------------------------------
        BYTE   W96
// 019   ----------------------------------------
        BYTE   W96
// 020   ----------------------------------------
        BYTE   W96
// 021   ----------------------------------------
        BYTE   W96
// 022   ----------------------------------------
        BYTE   W96
// 023   ----------------------------------------
        BYTE   W96
// 024   ----------------------------------------
        BYTE           TIE     Cn1   v090
        BYTE   W48
        BYTE   W01
        BYTE           BEND    c_v-3
        BYTE   W24
        BYTE   W01
        BYTE                   c_v-6
        BYTE   W22
// 025   ----------------------------------------
        BYTE   W03
        BYTE                   c_v-9
        BYTE   W24
        BYTE   W01
        BYTE                   c_v-12
        BYTE   W24
        BYTE   W01
        BYTE                   c_v-15
        BYTE   W24
        BYTE   W01
        BYTE                   c_v-17
        BYTE   W18
// 026   ----------------------------------------
        BYTE   W07
        BYTE                   c_v-20
        BYTE   W24
        BYTE   W01
        BYTE                   c_v-23
        BYTE   W24
        BYTE   W01
        BYTE                   c_v-26
        BYTE   W24
        BYTE   W01
        BYTE                   c_v-29
        BYTE   W14
// 027   ----------------------------------------
        BYTE   W12
        BYTE                   c_v-32
        BYTE   W24
        BYTE   W01
        BYTE                   c_v-35
        BYTE   W24
        BYTE   W01
        BYTE                   c_v-38
        BYTE   W24
        BYTE   W01
        BYTE                   c_v-41
        BYTE   W09
// 028   ----------------------------------------
        BYTE   W16
        BYTE                   c_v-44
        BYTE   W24
        BYTE   W01
        BYTE                   c_v-46
        BYTE   W24
        BYTE   W01
        BYTE                   c_v-49
        BYTE   W24
        BYTE   W01
        BYTE                   c_v-52
        BYTE   W05
// 029   ----------------------------------------
        BYTE   W20
        BYTE                   c_v-55
        BYTE   W24
        BYTE   W01
        BYTE                   c_v-58
        BYTE   W24
        BYTE   W01
        BYTE                   c_v-61
        BYTE   W24
        BYTE   W01
        BYTE                   c_v-64
        BYTE   W01
// 030   ----------------------------------------
        BYTE           EOT
        BYTE   W96
// 031   ----------------------------------------
        BYTE   W72
        BYTE           N05     Fn1   v109
        BYTE   W06
        BYTE                   Gn1
        BYTE   W06
        BYTE                   As1
        BYTE           N05     Fn3   v093
        BYTE   W06
        BYTE                   An1   v109
        BYTE           N05     Gn3   v093
        BYTE   W06
// 032   ----------------------------------------
        BYTE                   Gn1   v109
        BYTE           N05     As3   v093
        BYTE   W06
        BYTE                   Gn1   v109
        BYTE           N05     An3   v093
        BYTE   W06
        BYTE           N11     Gn2   v109
        BYTE           N05     Gn3   v093
        BYTE   W06
        BYTE                   Gn3
        BYTE   W06
        BYTE                   Gn1   v109
        BYTE           N11     Gn4   v093
        BYTE   W06
        BYTE                   Fn2   v109
        BYTE   W06
        BYTE           N05     Gn3   v093
        BYTE   W06
        BYTE                   Gn1   v109
        BYTE           N11     Fn4   v093
        BYTE   W06
        BYTE                   Dn2   v109
        BYTE   W06
        BYTE           N05     Gn3   v093
        BYTE   W06
        BYTE                   Gn1   v109
        BYTE           N11     Dn4   v093
        BYTE   W06
        BYTE                   Cn2   v109
        BYTE   W06
        BYTE           N05     Gn3   v093
        BYTE   W06
        BYTE                   Gn1   v109
        BYTE           N11     Cn4   v093
        BYTE   W06
        BYTE           N05     As1   v109
        BYTE   W06
        BYTE                   Cn2
        BYTE           N05     Gn3   v093
        BYTE   W06
// 033   ----------------------------------------
        BYTE                   Dn2   v109
        BYTE           N05     As3   v093
        BYTE   W06
        BYTE                   Gn1   v109
        BYTE           N05     Cn4   v093
        BYTE   W06
        BYTE                   Gn1   v109
        BYTE           N05     Dn4   v093
        BYTE   W06
        BYTE                   Cn2   v109
        BYTE           N05     Gn3   v093
        BYTE   W06
        BYTE                   Gn1   v109
        BYTE           N05     Gn3   v093
        BYTE   W06
        BYTE                   Gn1   v109
        BYTE           N05     Cn4   v093
        BYTE   W06
        BYTE                   As1   v109
        BYTE           N05     Gn3   v093
        BYTE   W06
        BYTE                   Gn1   v109
        BYTE           N05     Gn3   v093
        BYTE   W06
        BYTE                   Gn1   v109
        BYTE           N05     As3   v093
        BYTE   W06
        BYTE                   An1   v109
        BYTE           N05     Gn3   v093
        BYTE   W06
        BYTE                   Gn1   v109
        BYTE           N05     Gn3   v093
        BYTE   W06
        BYTE                   An1   v109
        BYTE           N05     An3   v093
        BYTE   W06
        BYTE                   As1   v109
        BYTE           N05     Gn3   v093
        BYTE   W06
        BYTE                   Cn2   v109
        BYTE           N05     An3   v093
        BYTE   W06
        BYTE                   An1   v109
        BYTE           N05     As3   v093
        BYTE   W06
        BYTE                   Fn1   v109
        BYTE           N05     Cn4   v093
        BYTE   W06
// 034   ----------------------------------------
        BYTE                   Gn1   v109
        BYTE           N05     An3   v093
        BYTE   W06
        BYTE                   An1   v109
        BYTE           N05     Fn3   v093
        BYTE   W06
        BYTE                   As1   v109
        BYTE           N05     Gn3   v093
        BYTE   W06
        BYTE           N11     Cn2   v109
        BYTE           N05     An3   v093
        BYTE   W06
        BYTE                   As3
        BYTE   W06
        BYTE                   As1   v109
        BYTE           N11     Cn4   v093
        BYTE   W06
        BYTE           N05     Cn2   v109
        BYTE   W06
        BYTE           N11     Dn2
        BYTE           N05     As3   v093
        BYTE   W06
        BYTE                   Cn4
        BYTE   W06
        BYTE                   Cn2   v109
        BYTE           N11     Dn4   v093
        BYTE   W06
        BYTE           N05     As1   v109
        BYTE   W06
        BYTE           N11     Cn2
        BYTE           N05     Cn4   v093
        BYTE   W06
        BYTE                   As3
        BYTE   W06
        BYTE                   As1   v109
        BYTE           N11     Cn4   v093
        BYTE   W06
        BYTE           N05     An1   v109
        BYTE   W06
        BYTE                   Cn2
        BYTE           N05     As3   v093
        BYTE   W06
// 035   ----------------------------------------
        BYTE           N11     Dn2   v109
        BYTE           N05     An3   v093
        BYTE   W06
        BYTE                   Cn4
        BYTE   W06
        BYTE                   As1   v109
        BYTE           N11     Dn4   v093
        BYTE   W06
        BYTE                   Fn2   v109
        BYTE   W06
        BYTE           N05     As3   v093
        BYTE   W06
        BYTE                   Dn2   v109
        BYTE           N11     Fn4   v093
        BYTE   W06
        BYTE           N05     Gn2   v109
        BYTE   W06
        BYTE                   Fn2
        BYTE           N05     Dn4   v093
        BYTE   W06
        BYTE                   Dn2   v109
        BYTE           N05     Gn4   v093
        BYTE   W06
        BYTE           N11     As2   v109
        BYTE           N05     Fn4   v093
        BYTE   W06
        BYTE                   Dn4
        BYTE   W06
        BYTE           N11     An2   v109
        BYTE           N11     As4   v093
        BYTE   W12
        BYTE                   Dn2   v109
        BYTE           N11     An4   v093
        BYTE   W12
        BYTE           N05     Fn2   v109
        BYTE           N11     Dn4   v093
        BYTE   W06
// 036   ----------------------------------------
        BYTE           N05     Gn2   v109
        BYTE   W06
        BYTE                   Gn1
        BYTE           N05     Fn4   v093
        BYTE   W06
        BYTE                   Gn1   v109
        BYTE           N05     Gn4   v093
        BYTE   W06
        BYTE                   Fn2   v109
        BYTE           N05     Gn3   v093
        BYTE   W06
        BYTE                   Gn1   v109
        BYTE           N05     Gn3   v093
        BYTE   W06
        BYTE                   Gn1   v109
        BYTE           N05     Fn4   v093
        BYTE   W06
        BYTE                   Gn2   v109
        BYTE           N05     Gn3   v093
        BYTE   W06
        BYTE                   Gn1   v109
        BYTE           N05     Gn3   v093
        BYTE   W06
        BYTE                   Gn2   v089
        BYTE           N05     Gn4   v093
        BYTE   W06
        BYTE                   Fn2   v109
        BYTE           N05     Gn3   v093
        BYTE   W06
        BYTE                   Gn1   v109
        BYTE           N05     Gn4   v093
        BYTE   W06
        BYTE                   Fn2   v109
        BYTE           N05     Fn4   v093
        BYTE   W06
        BYTE                   Gn2   v109
        BYTE           N05     Gn3   v093
        BYTE   W06
        BYTE                   Gn1   v109
        BYTE           N05     Fn4   v093
        BYTE   W06
        BYTE                   As2   v109
        BYTE           N05     Gn4   v093
        BYTE   W06
        BYTE                   Gn1   v109
        BYTE           N05     Gn3   v093
        BYTE   W06
// 037   ----------------------------------------
        BYTE                   Gn2   v109
        BYTE           N05     As4   v093
        BYTE   W06
        BYTE                   Gn1   v109
        BYTE           N05     Gn3   v093
        BYTE   W06
        BYTE                   Gn1   v109
        BYTE           N05     Gn4   v093
        BYTE   W06
        BYTE                   Fn2   v109
        BYTE           N05     Gn3   v093
        BYTE   W06
        BYTE                   Gn1   v109
        BYTE           N05     Gn3   v093
        BYTE   W06
        BYTE                   Fn2   v089
        BYTE           N05     Fn4   v093
        BYTE   W06
        BYTE                   Gn2   v109
        BYTE           N05     Gn3   v093
        BYTE   W06
        BYTE                   Gn1   v109
        BYTE           N05     Fn4   v093
        BYTE   W06
        BYTE                   Gn1   v109
        BYTE           N05     Gn4   v093
        BYTE   W06
        BYTE                   Fn2   v109
        BYTE           N05     Gn3   v093
        BYTE   W06
        BYTE                   Gn1   v109
        BYTE           N05     Gn3   v093
        BYTE   W06
        BYTE                   Fn2   v109
        BYTE           N05     Fn4   v093
        BYTE   W06
        BYTE                   Gn2   v109
        BYTE           N05     Gn3   v093
        BYTE   W06
        BYTE                   Gn1   v109
        BYTE           N05     Fn4   v093
        BYTE   W06
        BYTE                   Cn3   v127
        BYTE           N05     Gn4   v093
        BYTE   W06
        BYTE                   Gn1   v109
        BYTE           N05     Gn3   v093
        BYTE   W06
// 038   ----------------------------------------
        BYTE                   Gn2   v109
        BYTE           N05     Cn5   v093
        BYTE   W06
        BYTE                   Gn1   v109
        BYTE           N05     Gn3   v093
        BYTE   W06
        BYTE                   Gn2   v089
        BYTE           N05     Gn4   v093
        BYTE   W06
        BYTE                   Fn2   v109
        BYTE           N05     Gn3   v093
        BYTE   W06
        BYTE                   Gn1   v109
        BYTE           N05     Gn4   v093
        BYTE   W06
        BYTE                   Fn2   v109
        BYTE           N05     Fn4   v093
        BYTE   W06
        BYTE                   Gn2   v109
        BYTE           N05     Gn3   v093
        BYTE   W06
        BYTE                   Gn1   v109
        BYTE           N05     Fn4   v093
        BYTE   W06
        BYTE                   Gn1   v109
        BYTE           N05     Gn4   v093
        BYTE   W06
        BYTE                   Fn2   v109
        BYTE           N05     Gn3   v093
        BYTE   W06
        BYTE                   Gn1   v109
        BYTE           N05     Gn3   v093
        BYTE   W06
        BYTE                   Fn2   v109
        BYTE           N05     Fn4   v093
        BYTE   W06
        BYTE                   Gn2   v109
        BYTE           N05     Gn3   v093
        BYTE   W06
        BYTE                   Gn1   v109
        BYTE           N05     Fn4   v093
        BYTE   W06
        BYTE                   As2   v109
        BYTE           N05     Gn4   v093
        BYTE   W06
        BYTE                   Gn1   v109
        BYTE           N05     Gn3   v093
        BYTE   W06
// 039   ----------------------------------------
        BYTE                   Gn2   v109
        BYTE           N05     As4   v093
        BYTE   W06
        BYTE                   Fn2   v109
        BYTE           N05     Gn3   v093
        BYTE   W06
        BYTE                   Dn2   v109
        BYTE           N05     Gn4   v093
        BYTE   W06
        BYTE                   Fn2   v109
        BYTE           N05     Fn4   v093
        BYTE   W06
        BYTE                   Dn2   v109
        BYTE           N05     Dn4   v093
        BYTE   W06
        BYTE                   Cn2   v109
        BYTE           N05     Fn4   v093
        BYTE   W06
        BYTE                   Dn2   v109
        BYTE           N05     Dn4   v093
        BYTE   W06
        BYTE           N11     Gn1   v109
        BYTE           N05     Cn4   v093
        BYTE   W06
        BYTE                   Dn4
        BYTE   W06
        BYTE                   Gn1   v109
        BYTE           N11     Gn3   v093
        BYTE   W06
        BYTE           N05     An1   v109
        BYTE   W06
        BYTE                   As1
        BYTE           N05     Gn3   v093
        BYTE   W06
        BYTE                   Cn2   v109
        BYTE           N05     An3   v093
        BYTE   W06
        BYTE           N11     Fn2   v109
        BYTE           N05     As3   v093
        BYTE   W06
        BYTE                   Cn4
        BYTE   W06
        BYTE                   Dn2   v109
        BYTE           N11     Fn4   v093
        BYTE   W06
// 040   ----------------------------------------
        BYTE           N05     Ds1   v109
        BYTE   W06
        BYTE                   Ds1
        BYTE           N05     Dn4   v093
        BYTE   W06
        BYTE                   Gn1   v109
        BYTE           N05     Ds3   v093
        BYTE   W06
        BYTE                   Ds1   v109
        BYTE           N05     Ds3   v093
        BYTE   W06
        BYTE                   As1   v109
        BYTE           N05     Gn3   v093
        BYTE   W06
        BYTE                   Ds1   v109
        BYTE           N05     Ds3   v093
        BYTE   W06
        BYTE                   Ds1   v109
        BYTE           N05     As3   v093
        BYTE   W06
        BYTE           N11     Ds2   v109
        BYTE           N05     Ds3   v093
        BYTE   W06
        BYTE                   Ds3
        BYTE   W06
        BYTE                   Ds2   v109
        BYTE           N11     Ds4   v093
        BYTE   W06
        BYTE           N05     As1   v109
        BYTE   W06
        BYTE           N11     Gn1
        BYTE           N05     Ds4   v093
        BYTE   W06
        BYTE                   As3
        BYTE   W06
        BYTE                   As1   v109
        BYTE           N11     Gn3   v093
        BYTE   W06
        BYTE           N05     Gn1   v109
        BYTE   W06
        BYTE                   Ds1
        BYTE           N05     As3   v093
        BYTE   W06
// 041   ----------------------------------------
        BYTE                   Gn1   v109
        BYTE           N05     Gn3   v093
        BYTE   W06
        BYTE                   Ds1   v109
        BYTE           N05     Ds3   v093
        BYTE   W06
        BYTE                   As1   v109
        BYTE           N05     Gn3   v093
        BYTE   W06
        BYTE                   Ds1   v109
        BYTE           N05     Ds3   v093
        BYTE   W06
        BYTE                   Ds2   v109
        BYTE           N05     As3   v093
        BYTE   W06
        BYTE                   As1   v109
        BYTE           N05     Ds3   v093
        BYTE   W06
        BYTE                   Gn1   v109
        BYTE           N05     Ds4   v093
        BYTE   W06
        BYTE           N11     As1   v109
        BYTE           N05     As3   v093
        BYTE   W06
        BYTE                   Gn3
        BYTE   W06
        BYTE                   Gn1   v109
        BYTE           N11     As3   v093
        BYTE   W06
        BYTE           N05     Gn1   v109
        BYTE   W06
        BYTE                   As1
        BYTE           N05     Gn3   v093
        BYTE   W06
        BYTE                   Ds2   v109
        BYTE           N05     Gn3   v093
        BYTE   W06
        BYTE                   As1   v109
        BYTE           N05     As3   v093
        BYTE   W06
        BYTE                   Gn1   v109
        BYTE           N05     Ds4   v093
        BYTE   W06
        BYTE                   Ds1   v109
        BYTE           N05     As3   v093
        BYTE   W06
// 042   ----------------------------------------
        BYTE                   Gn1   v109
        BYTE           N05     Gn3   v093
        BYTE   W06
        BYTE                   As1   v109
        BYTE           N05     Ds3   v093
        BYTE   W06
        BYTE                   Gn1   v109
        BYTE           N05     Gn3   v093
        BYTE   W06
        BYTE                   Ds1   v109
        BYTE           N05     As3   v093
        BYTE   W06
        BYTE                   Gn1   v109
        BYTE           N05     Gn3   v093
        BYTE   W06
        BYTE                   Ds1   v109
        BYTE           N05     Ds3   v093
        BYTE   W06
        BYTE                   Gn1   v109
        BYTE           N05     Gn3   v093
        BYTE   W06
        BYTE           N11     As1   v109
        BYTE           N05     Ds3   v093
        BYTE   W06
        BYTE                   Gn3
        BYTE   W06
        BYTE                   Ds1   v109
        BYTE           N11     As3   v093
        BYTE   W06
        BYTE           N05     Gn1   v109
        BYTE   W06
        BYTE                   As1
        BYTE           N05     Ds3   v093
        BYTE   W06
        BYTE                   Ds2   v109
        BYTE           N05     Gn3   v093
        BYTE   W06
        BYTE                   As1   v109
        BYTE           N05     As3   v093
        BYTE   W06
        BYTE                   Gn1   v109
        BYTE           N05     Ds4   v093
        BYTE   W06
        BYTE                   Ds1   v109
        BYTE           N05     As3   v093
        BYTE   W06
// 043   ----------------------------------------
        BYTE                   Ds2   v109
        BYTE           N05     Gn3   v093
        BYTE   W06
        BYTE                   As1   v109
        BYTE           N05     Ds3   v093
        BYTE   W06
        BYTE                   Gn1   v109
        BYTE           N05     Ds4   v093
        BYTE   W06
        BYTE                   Dn2   v109
        BYTE           N05     As3   v093
        BYTE   W06
        BYTE                   Gn1   v109
        BYTE           N05     Gn3   v093
        BYTE   W06
        BYTE                   As1   v109
        BYTE           N05     Dn4   v093
        BYTE   W06
        BYTE                   Ds2   v109
        BYTE           N05     Gn3   v093
        BYTE   W06
        BYTE                   Gn1   v109
        BYTE           N05     As3   v093
        BYTE   W06
        BYTE                   Gn1   v109
        BYTE           N05     Ds4   v093
        BYTE   W06
        BYTE                   Dn2   v109
        BYTE           N05     Gn3   v093
        BYTE   W06
        BYTE                   Gn1   v109
        BYTE           N05     Gn3   v093
        BYTE   W06
        BYTE                   Gn1   v109
        BYTE           N05     Dn4   v093
        BYTE   W06
        BYTE                   Ds2   v109
        BYTE           N05     Gn3   v093
        BYTE   W06
        BYTE                   Gn1   v109
        BYTE           N05     Gn3   v093
        BYTE   W06
        BYTE                   Fn2   v109
        BYTE           N05     Ds4   v093
        BYTE   W06
        BYTE                   Gn1   v109
        BYTE           N05     Gn3   v093
        BYTE   W06
// 044   ----------------------------------------
        BYTE                   Gn2   v109
        BYTE           N05     Fn4   v093
        BYTE   W06
        BYTE                   Gn1   v109
        BYTE           N05     Gn3   v093
        BYTE   W06
        BYTE                   Gn1   v109
        BYTE           N05     Gn4   v093
        BYTE   W06
        BYTE                   Fn2   v109
        BYTE           N05     Gn3   v093
        BYTE   W06
        BYTE                   Gn1   v109
        BYTE           N05     Gn3   v093
        BYTE   W06
        BYTE                   Gn1   v109
        BYTE           N05     Fn4   v093
        BYTE   W06
        BYTE                   Dn2   v109
        BYTE           N05     Gn3   v093
        BYTE   W06
        BYTE                   Gn1   v109
        BYTE           N05     Gn3   v093
        BYTE   W06
        BYTE                   Gn1   v109
        BYTE           N05     Dn4   v093
        BYTE   W06
        BYTE                   Cn2   v109
        BYTE           N05     Gn3   v093
        BYTE   W06
        BYTE                   Gn1   v109
        BYTE           N05     Gn3   v093
        BYTE   W06
        BYTE                   Gn1   v109
        BYTE           N05     Cn4   v093
        BYTE   W06
        BYTE                   As1   v109
        BYTE           N05     Gn3   v093
        BYTE   W06
        BYTE                   Gn1   v109
        BYTE           N05     Gn3   v093
        BYTE   W06
        BYTE                   Cn2   v109
        BYTE           N05     As3   v093
        BYTE   W06
        BYTE                   Gn1   v109
        BYTE           N05     Gn3   v093
        BYTE   W06
// 045   ----------------------------------------
        BYTE                   Dn2   v109
        BYTE           N05     Cn4   v093
        BYTE   W06
        BYTE                   Gn1   v109
        BYTE           N05     Gn3   v093
        BYTE   W06
        BYTE                   Dn2   v109
        BYTE           N05     Dn4   v093
        BYTE   W06
        BYTE                   Fn2   v109
        BYTE           N05     Gn3   v093
        BYTE   W06
        BYTE                   Gn1   v109
        BYTE           N05     Dn4   v093
        BYTE   W06
        BYTE                   Fn2   v109
        BYTE           N05     Fn4   v093
        BYTE   W06
        BYTE                   Gn2   v109
        BYTE           N05     Gn3   v093
        BYTE   W06
        BYTE                   Gn1   v109
        BYTE           N05     Fn4   v093
        BYTE   W06
        BYTE                   Gn1   v109
        BYTE           N05     Gn4   v093
        BYTE   W06
        BYTE           N11     Fn1   v109
        BYTE           N05     Gn3   v093
        BYTE   W06
        BYTE                   Gn3
        BYTE   W06
        BYTE                   Fn1   v109
        BYTE           N11     Fn3   v093
        BYTE   W06
        BYTE           N05     Gn1   v109
        BYTE   W06
        BYTE                   An1
        BYTE           N05     Fn3   v093
        BYTE   W06
        BYTE                   As1   v109
        BYTE           N05     Gn3   v093
        BYTE   W06
        BYTE                   An1   v109
        BYTE           N05     An3   v093
        BYTE   W06
// 046   ----------------------------------------
        BYTE                   Gn1   v109
        BYTE           N05     As3   v093
        BYTE   W06
        BYTE                   Gn1   v109
        BYTE           N05     An3   v093
        BYTE   W06
        BYTE                   Gn2   v109
        BYTE           N05     Gn3   v093
        BYTE   W06
        BYTE                   Gn1   v109
        BYTE           N05     Gn3   v093
        BYTE   W06
        BYTE           N11     Gn2   v109
        BYTE           N05     Gn4   v093
        BYTE   W06
        BYTE                   Gn3
        BYTE   W06
        BYTE                   Dn2   v109
        BYTE           N11     Gn4   v093
        BYTE   W06
        BYTE                   Gn1   v109
        BYTE   W06
        BYTE           N05     Dn4   v093
        BYTE   W06
        BYTE                   Gn1   v109
        BYTE           N11     Gn3   v093
        BYTE   W06
        BYTE           N05     Gn2   v109
        BYTE   W06
        BYTE                   Gn1
        BYTE           N05     Gn3   v093
        BYTE   W06
        BYTE                   Gn2   v109
        BYTE           N05     Gn4   v093
        BYTE   W06
        BYTE                   Dn2   v109
        BYTE           N05     Gn3   v093
        BYTE   W06
        BYTE                   As1   v109
        BYTE           N05     Gn4   v093
        BYTE   W06
        BYTE                   Dn2   v109
        BYTE           N05     Dn4   v093
        BYTE   W06
// 047   ----------------------------------------
        BYTE                   Gn2   v109
        BYTE           N05     As3   v093
        BYTE   W06
        BYTE                   Fn2   v109
        BYTE           N05     Dn4   v093
        BYTE   W06
        BYTE                   Gn2   v109
        BYTE           N05     Gn4   v093
        BYTE   W06
        BYTE           N11     Gn1   v109
        BYTE           N05     Fn4   v093
        BYTE   W06
        BYTE                   Gn4
        BYTE   W06
        BYTE                   Fn2   v109
        BYTE           N11     Gn3   v093
        BYTE   W06
        BYTE           N05     Gn2   v109
        BYTE   W06
        BYTE                   Fn2
        BYTE           N05     Fn4   v093
        BYTE   W06
        BYTE                   Gn2   v109
        BYTE           N05     Gn4   v093
        BYTE   W06
        BYTE           N11     Gn1   v109
        BYTE           N05     Fn4   v093
        BYTE   W06
        BYTE                   Gn4
        BYTE   W06
        BYTE                   Fn2   v109
        BYTE           N11     Gn3   v093
        BYTE   W06
        BYTE           N05     Gn2   v109
        BYTE   W06
        BYTE                   Fn2
        BYTE           N05     Fn4   v093
        BYTE   W06
        BYTE           N12     Gn1   v109
        BYTE           N05     Gn4   v093
        BYTE   W06
        BYTE                   Fn4
        BYTE   W06
// 048   ----------------------------------------
        BYTE           N12     Gn3
        BYTE   W96
// 049   ----------------------------------------
        BYTE   W96
// 050   ----------------------------------------
        BYTE   W96
// 051   ----------------------------------------
        BYTE   W96
// 052   ----------------------------------------
        BYTE   W96
// 053   ----------------------------------------
        BYTE   W96
// 054   ----------------------------------------
        BYTE   W96
// 055   ----------------------------------------
        BYTE   W90
        BYTE           BEND    c_v+0
        BYTE   GoTo
         POIN2  FirstWard_4_LOOP
        BYTE   W06
// 056   ----------------------------------------
        BYTE   FINE

//****************** Track 5 (Midi-Chn.6) ******************//

FirstWard_5:
        BYTE   KEYSH   FirstWard_key+0
// 000   ----------------------------------------
        BYTE           VOICE   121
        BYTE           VOL     50
        BYTE           N17     Cn1   v120
        BYTE   W18
        BYTE                   Cn1
        BYTE   W18
        BYTE           N11
        BYTE   W12
        BYTE           N56     Cn1   v120   gtp1
        BYTE   W24
        BYTE           N11     Dn1
        BYTE   W12
        BYTE           N80     Cs1   v064
        BYTE   W12
// 001   ----------------------------------------
FirstWard_5_1:
        BYTE   W12
        BYTE           N23     Cn1   v120
        BYTE   W24
        BYTE           N11
        BYTE   W12
        BYTE           N17
        BYTE   W18
        BYTE                   Cn1
        BYTE   W06
        BYTE           N11     Dn1
        BYTE   W12
        BYTE                   Cn1
        BYTE           N80     Cs1   v064
        BYTE   W12
        BYTE   PEND
// 002   ----------------------------------------
FirstWard_5_2:
        BYTE           N17     Cn1   v120
        BYTE   W18
        BYTE                   Cn1
        BYTE   W18
        BYTE           N11
        BYTE   W12
        BYTE           N56     Cn1   v120   gtp1
        BYTE   W24
        BYTE           N11     Dn1
        BYTE   W12
        BYTE           N72     Cs1   v064   gtp2
        BYTE   W12
        BYTE   PEND
// 003   ----------------------------------------
FirstWard_5_3:
        BYTE   W12
        BYTE           N23     Cn1   v120
        BYTE   W24
        BYTE           N11
        BYTE   W12
        BYTE           N17
        BYTE   W18
        BYTE                   Cn1
        BYTE           N02     Dn1   v064
        BYTE   W03
        BYTE                   Dn1   v078
        BYTE   W03
        BYTE           N05     Dn1   v092
        BYTE   W06
        BYTE                   Dn1   v120
        BYTE   W06
        BYTE           N11     Cn1
        BYTE           N05     Cs1   v036
        BYTE   W06
        BYTE           N28     Cs1   v064
        BYTE   W06
        BYTE   PEND
// 004   ----------------------------------------
FirstWard_5_4:
        BYTE           N17     Cn1   v120
        BYTE   W12
        BYTE           N23     Fs1   v090
        BYTE   W06
        BYTE           N17     Cn1   v120
        BYTE   W06
        BYTE           N11     Dn1
        BYTE   W12
        BYTE                   Cn1
        BYTE           N32     Cs1   v064   gtp2
        BYTE           N23     Fs1   v090
        BYTE   W12
        BYTE           N56     Cn1   v120   gtp1
        BYTE   W12
        BYTE           N68     Fs1   v090   gtp1
        BYTE   W12
        BYTE           N11     Dn1   v120
        BYTE   W12
        BYTE           N32     Cs1   v064   gtp2
        BYTE   W12
        BYTE   PEND
// 005   ----------------------------------------
FirstWard_5_5:
        BYTE   W12
        BYTE           N23     Cn1   v120
        BYTE   W12
        BYTE           N11     Dn1
        BYTE   W12
        BYTE                   Cn1
        BYTE           N32     Cs1   v064   gtp2
        BYTE           N23     Fs1   v090
        BYTE   W12
        BYTE           N17     Cn1   v120
        BYTE   W12
        BYTE           N23     Fs1   v090
        BYTE   W06
        BYTE           N17     Cn1   v120
        BYTE   W06
        BYTE           N11     Dn1
        BYTE   W12
        BYTE                   Cn1
        BYTE           N32     Cs1   v064   gtp2
        BYTE           N23     Fs1   v090
        BYTE   W12
        BYTE   PEND
// 006   ----------------------------------------
FirstWard_5_6:
        BYTE           N17     Cn1   v120
        BYTE   W12
        BYTE           N23     Fs1   v090
        BYTE   W06
        BYTE           N17     Cn1   v120
        BYTE   W06
        BYTE           N11     Dn1
        BYTE   W12
        BYTE                   Cn1
        BYTE           N32     Cs1   v064   gtp2
        BYTE           N23     Fs1   v090
        BYTE   W12
        BYTE           N80     Cn1   v120
        BYTE   W12
        BYTE           N44     Fs1   v090   gtp2
        BYTE   W12
        BYTE           N11     Dn1   v120
        BYTE   W12
        BYTE           N56     Cs1   v064   gtp1
        BYTE   W12
        BYTE   PEND
// 007   ----------------------------------------
        BYTE   W12
        BYTE           N03     Fs1   v066
        BYTE   W04
        BYTE                   Fs1   v078
        BYTE   W04
        BYTE                   Fs1   v090
        BYTE   W04
        BYTE           N05
        BYTE   W06
        BYTE           N17
        BYTE   W06
        BYTE           N05     Cn1   v120
        BYTE   W06
        BYTE           N17
        BYTE   W06
        BYTE           N11     Dn1
        BYTE           N05     Fs1   v090
        BYTE   W06
        BYTE                   Fs1   v054
        BYTE   W06
        BYTE           N17     Cn1   v120
        BYTE           N05     Cs1   v064
        BYTE           N11     Fs1   v078
        BYTE   W06
        BYTE                   Dn1   v120
        BYTE   W06
        BYTE           N05     Fs1   v090
        BYTE   W06
        BYTE           N17     Cn1   v120
        BYTE           N05     Cs1   v064
        BYTE           N05     Fs1   v054
        BYTE   W06
        BYTE                   Dn1   v120
        BYTE           N11     Fs1   v078
        BYTE   W06
FirstWard_5_LOOP:
        BYTE           N05     Dn1   v120
        BYTE   W06
// 008   ----------------------------------------
FirstWard_5_8:
        BYTE           N17     Cn1   v120
        BYTE           N05     Cs1   v064
        BYTE           N05     Fs1   v090
        BYTE   W06
        BYTE           N17     Cs1   v064
        BYTE           N05     Fs1   v054
        BYTE   W06
        BYTE           N11     Fs1   v078
        BYTE   W06
        BYTE           N17     Cn1   v120
        BYTE   W06
        BYTE           N11     Dn1
        BYTE           N05     Fs1   v090
        BYTE   W06
        BYTE                   Fs1   v054
        BYTE   W06
        BYTE           N11     Cn1   v120
        BYTE           N32     Cs1   v064   gtp2
        BYTE           N11     Fs1   v078
        BYTE   W12
        BYTE           N44     Cn1   v120   gtp2
        BYTE           N05     Fs1   v090
        BYTE   W06
        BYTE                   Fs1   v054
        BYTE   W06
        BYTE           N11     Fs1   v078
        BYTE   W12
        BYTE                   Dn1   v120
        BYTE           N05     Fs1   v090
        BYTE   W06
        BYTE                   Fs1   v054
        BYTE   W06
        BYTE           N32     Cs1   v064   gtp2
        BYTE           N11     Fs1   v078
        BYTE   W12
        BYTE   PEND
// 009   ----------------------------------------
FirstWard_5_9:
        BYTE           N17     Cn1   v120
        BYTE           N05     Fs1   v090
        BYTE   W06
        BYTE                   Fs1   v054
        BYTE   W06
        BYTE           N11     Fs1   v078
        BYTE   W06
        BYTE           N17     Cn1   v120
        BYTE   W06
        BYTE           N11     Dn1
        BYTE           N05     Fs1   v090
        BYTE   W06
        BYTE                   Fs1   v054
        BYTE   W06
        BYTE           N11     Cn1   v120
        BYTE           N32     Cs1   v064   gtp2
        BYTE           N11     Fs1   v078
        BYTE   W12
        BYTE                   Cn1   v120
        BYTE           N05     Fs1   v090
        BYTE   W06
        BYTE                   Fs1   v054
        BYTE   W06
        BYTE           N23     Cn1   v120
        BYTE           N11     Fs1   v078
        BYTE   W12
        BYTE                   Dn1   v120
        BYTE           N05     Fs1   v090
        BYTE   W06
        BYTE                   Fs1   v054
        BYTE   W06
        BYTE           N11     Cn1   v120
        BYTE           N32     Cs1   v064   gtp2
        BYTE           N11     Fs1   v078
        BYTE   W12
        BYTE   PEND
// 010   ----------------------------------------
FirstWard_5_10:
        BYTE           N17     Cn1   v120
        BYTE           N05     Fs1   v090
        BYTE   W06
        BYTE                   Fs1   v054
        BYTE   W06
        BYTE           N11     Fs1   v078
        BYTE   W06
        BYTE           N17     Cn1   v120
        BYTE   W06
        BYTE           N11     Dn1
        BYTE           N05     Fs1   v090
        BYTE   W06
        BYTE                   Fs1   v054
        BYTE   W06
        BYTE           N11     Cn1   v120
        BYTE           N32     Cs1   v064   gtp2
        BYTE           N11     Fs1   v078
        BYTE   W12
        BYTE           N44     Cn1   v120   gtp2
        BYTE           N05     Fs1   v090
        BYTE   W06
        BYTE                   Fs1   v054
        BYTE   W06
        BYTE           N11     Fs1   v078
        BYTE   W12
        BYTE                   Dn1   v120
        BYTE           N05     Fs1   v090
        BYTE   W06
        BYTE                   Fs1   v054
        BYTE   W06
        BYTE           N32     Cs1   v064   gtp2
        BYTE           N11     Fs1   v078
        BYTE   W12
        BYTE   PEND
// 011   ----------------------------------------
        BYTE           N17     Cn1   v120
        BYTE           N05     Fs1   v090
        BYTE   W06
        BYTE                   Fs1   v054
        BYTE   W06
        BYTE           N11     Fs1   v078
        BYTE   W06
        BYTE           N17     Cn1   v120
        BYTE   W06
        BYTE           N11     Dn1
        BYTE           N05     Fs1   v090
        BYTE   W06
        BYTE                   Fs1   v054
        BYTE   W06
        BYTE           N11     Cn1   v120
        BYTE           N32     Cs1   v064   gtp2
        BYTE           N11     Fs1   v078
        BYTE   W12
        BYTE                   Cn1   v120
        BYTE           N05     Fs1   v090
        BYTE   W06
        BYTE                   Fs1   v054
        BYTE   W06
        BYTE           N32     Cn1   v120   gtp2
        BYTE           N11     Fs1   v078
        BYTE   W12
        BYTE                   Dn1   v120
        BYTE           N05     Fs1   v090
        BYTE   W06
        BYTE                   Fs1   v054
        BYTE   W06
        BYTE                   Dn1   v120
        BYTE           N11     Fs1   v078
        BYTE   W06
        BYTE           N05     Dn1   v120
        BYTE   W06
// 012   ----------------------------------------
        BYTE   PATT
         POIN2  FirstWard_5_8
// 013   ----------------------------------------
        BYTE   PATT
         POIN2  FirstWard_5_9
// 014   ----------------------------------------
        BYTE   PATT
         POIN2  FirstWard_5_10
// 015   ----------------------------------------
        BYTE           N17     Cn1   v120
        BYTE           N05     Fs1   v090
        BYTE   W06
        BYTE                   Fs1   v054
        BYTE   W06
        BYTE           N11     Fs1   v078
        BYTE   W06
        BYTE           N17     Cn1   v120
        BYTE   W06
        BYTE           N11     Dn1
        BYTE           N05     Fs1   v090
        BYTE   W06
        BYTE                   Fs1   v054
        BYTE   W06
        BYTE                   Cn1   v120
        BYTE           N11     Cs1   v064
        BYTE           N11     Fs1   v078
        BYTE   W06
        BYTE           N32     Cn1   v120   gtp2
        BYTE   W06
        BYTE           N11     Dn1
        BYTE           N05     Fs1   v090
        BYTE   W06
        BYTE                   Fs1   v054
        BYTE   W06
        BYTE                   Cs1   v064
        BYTE           N11     Fs1   v078
        BYTE   W06
        BYTE                   Dn1   v120
        BYTE   W06
        BYTE           N05     Fs1   v090
        BYTE   W06
        BYTE           N17     Cn1   v120
        BYTE           N05     Cs1   v064
        BYTE           N05     Fs1   v054
        BYTE   W06
        BYTE                   Dn1   v120
        BYTE           N11     Fs1   v078
        BYTE   W06
        BYTE           N05     Dn1   v120
        BYTE   W06
// 016   ----------------------------------------
        BYTE           N17     Cn1
        BYTE           N05     Cs1   v064
        BYTE           N05     Fs1   v090
        BYTE   W06
        BYTE           N11     Dn1   v120
        BYTE           N05     Fs1   v054
        BYTE   W06
        BYTE           N11     Fs1   v078
        BYTE   W06
        BYTE           N17     Cn1   v120
        BYTE           N05     Cs1   v064
        BYTE   W06
        BYTE           N11     Dn1   v092
        BYTE           N05     Fs1   v090
        BYTE   W06
        BYTE                   Fs1   v054
        BYTE   W06
        BYTE           N11     Cn1   v120
        BYTE           N32     Cs1   v036   gtp2
        BYTE           N11     Fs1   v078
        BYTE   W12
        BYTE           N44     Cn1   v120   gtp2
        BYTE           N05     Fs1   v090
        BYTE   W06
        BYTE                   Fs1   v054
        BYTE   W06
        BYTE           N11     Fs1   v078
        BYTE   W12
        BYTE                   Dn1   v120
        BYTE           N05     Fs1   v090
        BYTE   W06
        BYTE                   Fs1   v054
        BYTE   W06
        BYTE           N32     Cs1   v064   gtp2
        BYTE           N11     Fs1   v078
        BYTE   W12
// 017   ----------------------------------------
        BYTE   PATT
         POIN2  FirstWard_5_9
// 018   ----------------------------------------
        BYTE   PATT
         POIN2  FirstWard_5_10
// 019   ----------------------------------------
        BYTE           N17     Cn1   v120
        BYTE           N05     Fs1   v090
        BYTE   W06
        BYTE                   Fs1   v054
        BYTE   W06
        BYTE           N11     Fs1   v078
        BYTE   W06
        BYTE           N17     Cn1   v120
        BYTE   W06
        BYTE           N11     Dn1
        BYTE           N05     Fs1   v090
        BYTE   W06
        BYTE                   Fs1   v054
        BYTE   W06
        BYTE           N11     Cn1   v120
        BYTE           N32     Cs1   v064   gtp2
        BYTE           N11     Fs1   v078
        BYTE   W12
        BYTE                   Cn1   v120
        BYTE           N05     Fs1   v090
        BYTE   W06
        BYTE                   Fs1   v054
        BYTE   W06
        BYTE           N32     Cn1   v120   gtp2
        BYTE           N11     Fs1   v078
        BYTE   W12
        BYTE                   Dn1   v120
        BYTE           N05     Fs1   v090
        BYTE   W06
        BYTE                   Fs1   v054
        BYTE   W06
        BYTE                   Dn1   v120
        BYTE           N11     Fs1   v078
        BYTE   W06
        BYTE                   Dn1   v120
        BYTE   W06
// 020   ----------------------------------------
        BYTE           N17     Cn1
        BYTE           N05     Fs1   v090
        BYTE   W06
        BYTE           N17     Cs1   v064
        BYTE           N05     Fs1   v054
        BYTE   W06
        BYTE           N11     Fs1   v078
        BYTE   W06
        BYTE           N17     Cn1   v120
        BYTE   W06
        BYTE           N11     Dn1
        BYTE           N05     Fs1   v090
        BYTE   W06
        BYTE                   Fs1   v054
        BYTE   W06
        BYTE           N11     Cn1   v120
        BYTE           N32     Cs1   v064   gtp2
        BYTE           N11     Fs1   v078
        BYTE   W12
        BYTE           N44     Cn1   v120   gtp2
        BYTE           N05     Fs1   v090
        BYTE   W06
        BYTE                   Fs1   v054
        BYTE   W06
        BYTE           N11     Fs1   v078
        BYTE   W12
        BYTE                   Dn1   v120
        BYTE           N05     Fs1   v090
        BYTE   W06
        BYTE                   Fs1   v054
        BYTE   W06
        BYTE           N32     Cs1   v064   gtp2
        BYTE           N11     Fs1   v078
        BYTE   W12
// 021   ----------------------------------------
        BYTE   PATT
         POIN2  FirstWard_5_9
// 022   ----------------------------------------
        BYTE   PATT
         POIN2  FirstWard_5_10
// 023   ----------------------------------------
        BYTE           N17     Cn1   v120
        BYTE           N05     Fs1   v090
        BYTE   W06
        BYTE                   Fs1   v054
        BYTE   W06
        BYTE           N11     Fs1   v078
        BYTE   W06
        BYTE           N17     Cn1   v120
        BYTE   W06
        BYTE           N11     Dn1
        BYTE           N05     Fs1   v090
        BYTE   W06
        BYTE                   Fs1   v054
        BYTE   W06
        BYTE           N23     Cn1   v120
        BYTE           N11     Cs1   v064
        BYTE           N11     Fs1   v078
        BYTE   W12
        BYTE                   Dn1   v120
        BYTE           N05     Fs1   v090
        BYTE   W06
        BYTE                   Fs1   v054
        BYTE   W06
        BYTE           N23     Cn1   v120
        BYTE           N05     Cs1   v064
        BYTE           N14     Fs1   v078
        BYTE   W06
        BYTE           N05     Dn1   v092
        BYTE   W06
        BYTE           N02     Dn1   v106
        BYTE   W03
        BYTE                   Dn1   v120
        BYTE           N02     Fs1   v090
        BYTE   W03
        BYTE           N05     Dn1   v120
        BYTE           N05     Fs1   v054
        BYTE   W06
        BYTE           N11     Cn1   v120
        BYTE           N05     Cs1   v064
        BYTE           N05     Fs1   v078
        BYTE   W06
        BYTE                   Dn1   v100
        BYTE   W06
// 024   ----------------------------------------
FirstWard_5_24:
        BYTE           N23     As3   v106
        BYTE   W24
        BYTE                   As3
        BYTE   W24
        BYTE                   As3
        BYTE   W24
        BYTE                   As3
        BYTE   W24
        BYTE   PEND
// 025   ----------------------------------------
        BYTE   PATT
         POIN2  FirstWard_5_24
// 026   ----------------------------------------
        BYTE   PATT
         POIN2  FirstWard_5_24
// 027   ----------------------------------------
        BYTE   PATT
         POIN2  FirstWard_5_24
// 028   ----------------------------------------
        BYTE           N17     Cn1   v120
        BYTE           N23     As3   v106
        BYTE   W18
        BYTE           N60     Cn1   v120   gtp3
        BYTE   W06
        BYTE           N23     As3   v106
        BYTE   W24
        BYTE                   As3
        BYTE   W24
        BYTE                   As3
        BYTE   W12
        BYTE           N11     Cn1   v120
        BYTE   W12
// 029   ----------------------------------------
        BYTE           N17
        BYTE           N23     As3   v106
        BYTE   W18
        BYTE           N17     Cn1   v120
        BYTE   W06
        BYTE           N23     As3   v106
        BYTE   W12
        BYTE           N56     Cn1   v120   gtp1
        BYTE   W12
        BYTE           N23     As3   v106
        BYTE   W24
        BYTE           N11     Dn1   v120
        BYTE           N23     As3   v106
        BYTE   W12
        BYTE           N32     Cs1   v064   gtp2
        BYTE   W12
// 030   ----------------------------------------
        BYTE           N17     Cn1   v120
        BYTE           N23     As3   v106
        BYTE   W18
        BYTE           N17     Cn1   v120
        BYTE   W06
        BYTE           N11     Dn1
        BYTE           N23     As3   v106
        BYTE   W12
        BYTE           N11     Cn1   v120
        BYTE           N32     Cs1   v064   gtp2
        BYTE   W12
        BYTE           N44     Cn1   v120   gtp2
        BYTE           N23     As3   v106
        BYTE   W24
        BYTE           N11     Dn1   v120
        BYTE           N23     As3   v106
        BYTE   W12
        BYTE                   Cs1   v064
        BYTE   W12
// 031   ----------------------------------------
        BYTE           N17     Cn1   v120
        BYTE           N23     As3   v106
        BYTE   W12
        BYTE           N01     Dn1
        BYTE   W01
        BYTE           N10     Dn1   v120
        BYTE   W05
        BYTE           N17     Cn1
        BYTE   W06
        BYTE           N01     Dn1   v106
        BYTE           N23     As3
        BYTE   W01
        BYTE           N10     Dn1   v120
        BYTE   W11
        BYTE           N11     Cn1
        BYTE           N05     Dn1   v092
        BYTE   W06
        BYTE                   Dn1   v106
        BYTE   W06
        BYTE           N17     Cn1   v120
        BYTE           N11     Dn1
        BYTE           N23     As3   v106
        BYTE   W12
        BYTE           N05     Cs1   v064
        BYTE   W06
        BYTE           N17     Cn1   v120
        BYTE           N11     Dn1
        BYTE   W06
        BYTE           N23     As3   v106
        BYTE   W06
        BYTE           N05     Cs1   v064
        BYTE   W06
        BYTE           N11     Cn1   v120
        BYTE           N11     Dn1
        BYTE   W12
// 032   ----------------------------------------
FirstWard_5_32:
        BYTE           N17     Cn1   v120
        BYTE           N23     Cs1   v064
        BYTE           N05     Fs1   v090
        BYTE   W06
        BYTE                   Fs1   v054
        BYTE   W06
        BYTE           N11     Fs1   v078
        BYTE   W06
        BYTE           N17     Cn1   v120
        BYTE   W06
        BYTE           N11     Dn1
        BYTE           N11     An1
        BYTE           N05     Fs1   v090
        BYTE   W06
        BYTE                   Fs1   v054
        BYTE   W06
        BYTE           N11     Cn1   v120
        BYTE           N32     Cs1   v064   gtp2
        BYTE           N11     Fs1   v078
        BYTE   W12
        BYTE                   Cn1   v120
        BYTE           N05     Fs1   v090
        BYTE   W06
        BYTE                   Fs1   v054
        BYTE   W06
        BYTE           N32     Cn1   v120   gtp2
        BYTE           N11     Fs1   v078
        BYTE   W12
        BYTE                   Dn1   v120
        BYTE           N11     An1
        BYTE           N05     Fs1   v090
        BYTE   W06
        BYTE                   Fs1   v054
        BYTE   W06
        BYTE           N32     Cs1   v064   gtp2
        BYTE           N11     Fn1   v120
        BYTE           N11     Fs1   v078
        BYTE   W12
        BYTE   PEND
// 033   ----------------------------------------
FirstWard_5_33:
        BYTE           N05     Cn1   v120
        BYTE           N05     Fs1   v090
        BYTE   W06
        BYTE           N11     Cn1   v120
        BYTE           N05     Fs1   v054
        BYTE   W06
        BYTE           N11     Fs1   v078
        BYTE   W06
        BYTE           N17     Cn1   v120
        BYTE   W06
        BYTE           N11     Dn1
        BYTE           N11     An1
        BYTE           N05     Fs1   v090
        BYTE   W06
        BYTE                   Fs1   v054
        BYTE   W06
        BYTE           N11     Cn1   v120
        BYTE           N32     Cs1   v064   gtp2
        BYTE           N11     Fs1   v078
        BYTE   W12
        BYTE                   Cn1   v120
        BYTE           N05     Fs1   v090
        BYTE   W06
        BYTE                   Fs1   v054
        BYTE   W06
        BYTE           N23     Cn1   v120
        BYTE           N11     Fs1   v078
        BYTE   W12
        BYTE                   Dn1   v120
        BYTE           N11     An1
        BYTE           N05     Fs1   v090
        BYTE   W06
        BYTE                   Fs1   v054
        BYTE   W06
        BYTE           N11     Cn1   v120
        BYTE           N11     Cs1   v064
        BYTE           N11     Fn1   v120
        BYTE           N11     Fs1   v078
        BYTE   W12
        BYTE   PEND
// 034   ----------------------------------------
        BYTE   PATT
         POIN2  FirstWard_5_32
// 035   ----------------------------------------
        BYTE           N05     Cn1   v120
        BYTE           N05     Fs1   v090
        BYTE   W06
        BYTE           N11     Cn1   v120
        BYTE           N05     Fs1   v054
        BYTE   W06
        BYTE           N11     Fs1   v078
        BYTE   W06
        BYTE           N17     Cn1   v120
        BYTE   W06
        BYTE           N11     Dn1
        BYTE           N11     An1
        BYTE           N05     Fs1   v090
        BYTE   W06
        BYTE                   Fs1   v054
        BYTE   W06
        BYTE           N11     Cn1   v120
        BYTE           N32     Cs1   v064   gtp2
        BYTE           N11     Fs1   v078
        BYTE   W12
        BYTE                   Cn1   v120
        BYTE           N05     Fs1   v090
        BYTE   W06
        BYTE                   Fs1   v054
        BYTE   W06
        BYTE           N17     Cn1   v120
        BYTE           N11     Fs1   v078
        BYTE   W12
        BYTE                   Dn1   v120
        BYTE           N11     An1
        BYTE           N05     Fs1   v090
        BYTE   W06
        BYTE           N17     Cn1   v120
        BYTE           N05     Fs1   v054
        BYTE   W06
        BYTE           N11     Dn1   v120
        BYTE           N11     Fn1
        BYTE           N11     Fs1   v078
        BYTE   W12
// 036   ----------------------------------------
        BYTE   PATT
         POIN2  FirstWard_5_32
// 037   ----------------------------------------
        BYTE           N05     Cn1   v120
        BYTE           N05     Fs1   v090
        BYTE   W06
        BYTE           N11     Cn1   v120
        BYTE           N05     Fs1   v054
        BYTE   W06
        BYTE           N11     Fs1   v078
        BYTE   W06
        BYTE           N17     Cn1   v120
        BYTE   W06
        BYTE           N11     Dn1
        BYTE           N11     An1
        BYTE           N05     Fs1   v090
        BYTE   W06
        BYTE                   Fs1   v054
        BYTE   W06
        BYTE           N11     Cn1   v120
        BYTE           N32     Cs1   v064   gtp2
        BYTE           N11     Fs1   v078
        BYTE   W12
        BYTE                   Cn1   v120
        BYTE           N05     Fs1   v090
        BYTE   W06
        BYTE                   Fs1   v054
        BYTE   W06
        BYTE           N23     Cn1   v120
        BYTE           N11     Fs1   v078
        BYTE   W12
        BYTE                   Dn1   v120
        BYTE           N05     Fs1   v090
        BYTE   W06
        BYTE           N11     An1   v120
        BYTE           N05     Fs1   v054
        BYTE   W06
        BYTE           N11     Cn1   v120
        BYTE           N32     Cs1   v064   gtp2
        BYTE           N11     Fn1   v120
        BYTE           N11     Fs1   v078
        BYTE   W12
// 038   ----------------------------------------
FirstWard_5_38:
        BYTE           N17     Cn1   v120
        BYTE           N05     Fs1   v090
        BYTE   W06
        BYTE                   Fs1   v054
        BYTE   W06
        BYTE           N11     Fs1   v078
        BYTE   W06
        BYTE           N17     Cn1   v120
        BYTE   W06
        BYTE           N11     Dn1
        BYTE           N11     An1
        BYTE           N05     Fs1   v090
        BYTE   W06
        BYTE                   Fs1   v054
        BYTE   W06
        BYTE           N11     Cn1   v120
        BYTE           N32     Cs1   v064   gtp2
        BYTE           N11     Fs1   v078
        BYTE   W12
        BYTE                   Cn1   v120
        BYTE           N05     Fs1   v090
        BYTE   W06
        BYTE                   Fs1   v054
        BYTE   W06
        BYTE           N32     Cn1   v120   gtp2
        BYTE           N11     Fs1   v078
        BYTE   W12
        BYTE                   Dn1   v120
        BYTE           N11     An1
        BYTE           N05     Fs1   v090
        BYTE   W06
        BYTE                   Fs1   v054
        BYTE   W06
        BYTE           N32     Cs1   v064   gtp2
        BYTE           N11     Fn1   v120
        BYTE           N11     Fs1   v078
        BYTE   W12
        BYTE   PEND
// 039   ----------------------------------------
        BYTE           N05     Cn1   v120
        BYTE           N05     Fs1   v090
        BYTE   W06
        BYTE           N11     Cn1   v120
        BYTE           N05     Fs1   v054
        BYTE   W06
        BYTE           N11     Fs1   v078
        BYTE   W06
        BYTE           N17     Cn1   v120
        BYTE   W06
        BYTE           N11     Dn1
        BYTE           N11     An1
        BYTE           N05     Fs1   v090
        BYTE   W06
        BYTE                   Fs1   v054
        BYTE   W06
        BYTE           N11     Cn1   v120
        BYTE           N32     Cs1   v064   gtp2
        BYTE           N11     Fs1   v078
        BYTE   W12
        BYTE                   Cn1   v120
        BYTE           N05     Fs1   v090
        BYTE   W06
        BYTE                   Fs1   v054
        BYTE   W06
        BYTE           N17     Cn1   v120
        BYTE           N11     Fs1   v078
        BYTE   W12
        BYTE                   Dn1   v120
        BYTE           N11     An1
        BYTE           N05     Fs1   v090
        BYTE   W06
        BYTE           N17     Cn1   v120
        BYTE           N05     Fs1   v054
        BYTE   W06
        BYTE                   Dn1   v120
        BYTE           N11     Fn1
        BYTE           N11     Fs1   v078
        BYTE   W06
        BYTE           N05     Dn1   v120
        BYTE   W06
// 040   ----------------------------------------
        BYTE   PATT
         POIN2  FirstWard_5_32
// 041   ----------------------------------------
        BYTE           N05     Cn1   v120
        BYTE           N05     Fs1   v090
        BYTE   W06
        BYTE           N11     Cn1   v120
        BYTE           N05     Fs1   v054
        BYTE   W06
        BYTE           N11     Fs1   v078
        BYTE   W06
        BYTE           N17     Cn1   v120
        BYTE   W06
        BYTE           N11     Dn1
        BYTE           N11     An1
        BYTE           N05     Fs1   v090
        BYTE   W06
        BYTE                   Fs1   v054
        BYTE   W06
        BYTE           N11     Cn1   v120
        BYTE           N32     Cs1   v064   gtp2
        BYTE           N11     Fs1   v078
        BYTE   W12
        BYTE                   Cn1   v120
        BYTE           N05     Fs1   v090
        BYTE   W06
        BYTE                   Fs1   v054
        BYTE   W06
        BYTE           N23     Cn1   v120
        BYTE           N11     Fs1   v078
        BYTE   W12
        BYTE                   Dn1   v120
        BYTE           N11     An1
        BYTE           N05     Fs1   v090
        BYTE   W06
        BYTE                   Fs1   v054
        BYTE   W06
        BYTE           N11     Cn1   v120
        BYTE           N32     Cs1   v064   gtp2
        BYTE           N11     Fn1   v120
        BYTE           N11     Fs1   v078
        BYTE   W12
// 042   ----------------------------------------
        BYTE   PATT
         POIN2  FirstWard_5_38
// 043   ----------------------------------------
        BYTE           N05     Cn1   v120
        BYTE           N05     Fs1   v090
        BYTE   W06
        BYTE           N11     Cn1   v120
        BYTE           N05     Fs1   v054
        BYTE   W06
        BYTE           N11     Fs1   v078
        BYTE   W06
        BYTE           N17     Cn1   v120
        BYTE   W06
        BYTE           N11     Dn1
        BYTE           N11     An1
        BYTE           N05     Fs1   v090
        BYTE   W06
        BYTE                   Fs1   v054
        BYTE   W06
        BYTE           N11     Cn1   v120
        BYTE           N28     Cs1   v064
        BYTE           N11     Fs1   v078
        BYTE   W12
        BYTE                   Cn1   v120
        BYTE           N05     Fs1   v090
        BYTE   W06
        BYTE                   Fs1   v054
        BYTE   W06
        BYTE           N17     Cn1   v120
        BYTE           N11     Fs1   v078
        BYTE   W06
        BYTE                   Dn1   v120
        BYTE   W06
        BYTE                   An1
        BYTE           N05     Fs1   v090
        BYTE   W06
        BYTE           N17     Cn1   v120
        BYTE           N05     Cs1   v064
        BYTE           N05     Fs1   v054
        BYTE   W06
        BYTE           N11     Dn1   v120
        BYTE           N11     Fn1
        BYTE           N11     Fs1   v078
        BYTE   W12
// 044   ----------------------------------------
        BYTE   PATT
         POIN2  FirstWard_5_32
// 045   ----------------------------------------
        BYTE   PATT
         POIN2  FirstWard_5_33
// 046   ----------------------------------------
        BYTE           N05     Cn1   v120
        BYTE           N11     Cs1   v064
        BYTE           N05     Fs1   v090
        BYTE   W06
        BYTE           N11     Cn1   v120
        BYTE           N05     Fs1   v054
        BYTE   W06
        BYTE           N11     Dn1   v120
        BYTE           N11     Fs1   v078
        BYTE   W06
        BYTE           N17     Cn1   v120
        BYTE   W06
        BYTE           N11     Dn1
        BYTE           N11     An1
        BYTE           N05     Fs1   v090
        BYTE   W06
        BYTE                   Fs1   v054
        BYTE   W06
        BYTE                   Cn1   v120
        BYTE           N23     Cs1   v064
        BYTE           N11     Fs1   v078
        BYTE   W06
        BYTE                   Cn1   v120
        BYTE   W06
        BYTE           N05     Fs1   v090
        BYTE   W06
        BYTE           N11     Cn1   v120
        BYTE           N05     Fs1   v054
        BYTE   W06
        BYTE           N11     Dn1   v120
        BYTE           N11     Fs1   v078
        BYTE   W06
        BYTE           N28     Cn1   v120
        BYTE   W06
        BYTE           N11     Dn1
        BYTE           N11     An1
        BYTE           N05     Fs1   v090
        BYTE   W06
        BYTE                   Fs1   v054
        BYTE   W06
        BYTE           N11     Cs1   v064
        BYTE           N11     Fn1   v120
        BYTE           N11     Fs1   v078
        BYTE   W12
// 047   ----------------------------------------
        BYTE           N05     Cn1   v120
        BYTE           N11     Dn1
        BYTE           N05     Fs1   v090
        BYTE   W06
        BYTE           N11     Cn1   v120
        BYTE           N05     Fs1   v054
        BYTE   W06
        BYTE                   Cs1   v064
        BYTE           N11     Fs1   v078
        BYTE   W06
        BYTE           N17     Cn1   v120
        BYTE           N11     Dn1   v092
        BYTE   W06
        BYTE                   An1   v120
        BYTE           N05     Fs1   v090
        BYTE   W06
        BYTE                   Cs1   v036
        BYTE           N05     Fs1   v054
        BYTE   W06
        BYTE           N11     Cn1   v120
        BYTE           N11     Dn1
        BYTE           N11     Fs1   v078
        BYTE   W12
        BYTE                   Cn1   v120
        BYTE           N05     Cs1   v064
        BYTE           N05     Fs1   v090
        BYTE   W06
        BYTE           N11     Dn1   v092
        BYTE           N05     Fs1   v054
        BYTE   W06
        BYTE           N11     Cn1   v120
        BYTE           N11     Fs1   v078
        BYTE   W06
        BYTE           N05     Cs1   v036
        BYTE   W06
        BYTE           N02     Dn1   v106
        BYTE           N05     Fs1   v090
        BYTE   W03
        BYTE           N02     Dn1   v078
        BYTE   W03
        BYTE           N05     Dn1   v092
        BYTE           N05     Fn1
        BYTE           N05     Fs1   v054
        BYTE   W06
        BYTE                   Dn1   v106
        BYTE           N05     Fn1
        BYTE           N05     Fs1   v078
        BYTE   W06
        BYTE                   Dn1   v106
        BYTE           N05     Fn1
        BYTE   W06
// 048   ----------------------------------------
        BYTE           N17     Cn1   v120
        BYTE   W18
        BYTE                   Cn1
        BYTE   W18
        BYTE           N11
        BYTE   W12
        BYTE           N56     Cn1   v120   gtp1
        BYTE   W24
        BYTE           N11     Dn1
        BYTE   W12
        BYTE           N80     Cs1   v064
        BYTE   W12
// 049   ----------------------------------------
        BYTE   PATT
         POIN2  FirstWard_5_1
// 050   ----------------------------------------
        BYTE   PATT
         POIN2  FirstWard_5_2
// 051   ----------------------------------------
        BYTE   PATT
         POIN2  FirstWard_5_3
// 052   ----------------------------------------
        BYTE   PATT
         POIN2  FirstWard_5_4
// 053   ----------------------------------------
        BYTE   PATT
         POIN2  FirstWard_5_5
// 054   ----------------------------------------
        BYTE   PATT
         POIN2  FirstWard_5_6
// 055   ----------------------------------------
        BYTE   W12
        BYTE           N03     Fs1   v066
        BYTE   W04
        BYTE                   Fs1   v078
        BYTE   W04
        BYTE                   Fs1   v090
        BYTE   W04
        BYTE           N05
        BYTE   W06
        BYTE           N17
        BYTE   W06
        BYTE           N05     Cn1   v120
        BYTE   W06
        BYTE           N17
        BYTE   W06
        BYTE           N11     Dn1
        BYTE           N05     Fs1   v090
        BYTE   W06
        BYTE                   Fs1   v054
        BYTE   W06
        BYTE           N17     Cn1   v120
        BYTE           N05     Cs1   v064
        BYTE           N11     Fs1   v078
        BYTE   W06
        BYTE                   Dn1   v120
        BYTE   W06
        BYTE           N05     Fs1   v090
        BYTE   W06
        BYTE           N17     Cn1   v120
        BYTE           N05     Cs1   v064
        BYTE           N05     Fs1   v054
        BYTE   W06
        BYTE                   Dn1   v120
        BYTE           N11     Fs1   v078
        BYTE   W06
        BYTE           N05     Dn1   v120
        BYTE   GoTo
         POIN2  FirstWard_5_LOOP
        BYTE   W06
// 056   ----------------------------------------
        BYTE   FINE


//********************** End of Song ***********************//

        ALIGN 4
FirstWard:
        BYTE   6                       // Num Tracks
        BYTE   0                       // Unknown
        BYTE   FirstWard_pri             // Priority
        BYTE   FirstWard_rev             // Reverb

        POIN2   FirstWard_grp            

        POIN2   FirstWard_0
        POIN2   FirstWard_1
        POIN2   FirstWard_2
        POIN2   FirstWard_3
        POIN2   FirstWard_4
        POIN2   FirstWard_5

        
