//Event file generated from Sappy .s format.
	#include "MPlayDef.event"

	#define	FirstCampaingCut_grp  voicegroup000
	#define	FirstCampaingCut_pri  0
	#define	FirstCampaingCut_rev  0
	#define	FirstCampaingCut_mvl  127
	#define	FirstCampaingCut_key  0
	#define	FirstCampaingCut_tbs  1
	#define	FirstCampaingCut_exg  0
	#define	FirstCampaingCut_cmp  1

	// .rodata
	//	FirstCampaingCut
	ALIGN 4

//**************** Track 1 (Midi-Chn.1) ****************//

FirstCampaingCut_1:
	BYTE	KEYSH   FirstCampaingCut_key+0
FirstCampaingCut_1_B1:
// 000   ----------------------------------------
	BYTE	TEMPO   184*FirstCampaingCut_tbs/2
	BYTE		VOICE   122
	BYTE		VOL     60*FirstCampaingCut_mvl/mxv
	BYTE		PAN     c_v+0
	BYTE		N05     Cn1   v127
	BYTE		N05     Fs1   v116
	BYTE		N92     Cs2   v127
	BYTE	W06
	BYTE		N05     Dn1   v048
	BYTE	W06
	BYTE		        Fs1   v080
	BYTE	W12
	BYTE		        Dn1   v127
	BYTE		N05     Fs1 
	BYTE	W06
	BYTE		        Dn1   v060
	BYTE	W06
	BYTE		        Fs1   v092
	BYTE	W06
	BYTE		        Cn1 
	BYTE	W06
	BYTE		        Cn1   v127
	BYTE		N05     Fs1 
	BYTE	W06
	BYTE		        Dn1   v048
	BYTE	W06
	BYTE		        Cn1   v127
	BYTE		N05     Fs1   v100
	BYTE	W12
	BYTE		        Dn1   v127
	BYTE		N05     Fs1 
	BYTE	W06
	BYTE		        Dn1   v060
	BYTE	W06
	BYTE		        Fs1   v088
	BYTE	W06
	BYTE		        Dn1   v060
	BYTE	W06
// 001   ----------------------------------------
FirstCampaingCut_1_001:
	BYTE		N05     Cn1   v127
	BYTE		N05     Fs1 
	BYTE	W06
	BYTE		        Dn1   v048
	BYTE	W06
	BYTE		        Dn1   v052
	BYTE		N05     Fs1   v084
	BYTE	W12
	BYTE		        Dn1   v127
	BYTE		N05     Fs1 
	BYTE	W06
	BYTE		        Dn1   v060
	BYTE	W06
	BYTE		        Cn1   v127
	BYTE		N05     Fs1   v084
	BYTE	W06
	BYTE		        Dn1   v052
	BYTE	W06
	BYTE		        Fs1   v127
	BYTE	W06
	BYTE		        Cn1   v100
	BYTE	W06
	BYTE		        Cn1   v127
	BYTE		N05     Fs1   v084
	BYTE	W12
	BYTE		        Dn1   v127
	BYTE		N05     Fs1 
	BYTE	W06
	BYTE		        Dn1   v064
	BYTE	W06
	BYTE		        As1   v124
	BYTE	W06
	BYTE		        Dn1   v048
	BYTE	W06
	BYTE	PEND
// 002   ----------------------------------------
FirstCampaingCut_1_002:
	BYTE		N05     Cn1   v127
	BYTE		N05     Fs1   v116
	BYTE	W06
	BYTE		        Dn1   v048
	BYTE	W06
	BYTE		        Fs1   v080
	BYTE	W12
	BYTE		        Dn1   v127
	BYTE		N05     Fs1 
	BYTE	W06
	BYTE		        Dn1   v060
	BYTE	W06
	BYTE		        Fs1   v092
	BYTE	W06
	BYTE		        Cn1 
	BYTE	W06
	BYTE		        Cn1   v127
	BYTE		N05     Fs1 
	BYTE	W06
	BYTE		        Dn1   v048
	BYTE	W06
	BYTE		        Cn1   v127
	BYTE		N05     Fs1   v100
	BYTE	W12
	BYTE		        Dn1   v127
	BYTE		N05     Fs1 
	BYTE	W06
	BYTE		        Dn1   v060
	BYTE	W06
	BYTE		        Fs1   v088
	BYTE	W06
	BYTE		        Dn1   v060
	BYTE	W06
	BYTE	PEND
// 003   ----------------------------------------
	BYTE	PATT
	 POIN2	FirstCampaingCut_1_001
// 004   ----------------------------------------
	BYTE	PATT
	 POIN2	FirstCampaingCut_1_002
// 005   ----------------------------------------
	BYTE	PATT
	 POIN2	FirstCampaingCut_1_001
// 006   ----------------------------------------
	BYTE	PATT
	 POIN2	FirstCampaingCut_1_002
// 007   ----------------------------------------
	BYTE	PATT
	 POIN2	FirstCampaingCut_1_001
// 008   ----------------------------------------
FirstCampaingCut_1_008:
	BYTE		N05     Cn1   v127
	BYTE		N05     Fs1   v116
	BYTE		N92     Cs2   v127
	BYTE	W06
	BYTE		N05     Dn1   v048
	BYTE	W06
	BYTE		        Fs1   v080
	BYTE	W12
	BYTE		        Dn1   v127
	BYTE		N05     Fs1 
	BYTE	W06
	BYTE		        Dn1   v060
	BYTE	W06
	BYTE		        Fs1   v092
	BYTE	W06
	BYTE		        Cn1 
	BYTE	W06
	BYTE		        Cn1   v127
	BYTE		N05     Fs1 
	BYTE	W06
	BYTE		        Dn1   v048
	BYTE	W06
	BYTE		        Cn1   v127
	BYTE		N05     Fs1   v100
	BYTE	W12
	BYTE		        Dn1   v127
	BYTE		N05     Fs1 
	BYTE	W06
	BYTE		        Dn1   v060
	BYTE	W06
	BYTE		        Fs1   v088
	BYTE	W06
	BYTE		        Dn1   v060
	BYTE	W06
	BYTE	PEND
// 009   ----------------------------------------
	BYTE	PATT
	 POIN2	FirstCampaingCut_1_001
// 010   ----------------------------------------
	BYTE	PATT
	 POIN2	FirstCampaingCut_1_002
// 011   ----------------------------------------
	BYTE	PATT
	 POIN2	FirstCampaingCut_1_001
// 012   ----------------------------------------
	BYTE	PATT
	 POIN2	FirstCampaingCut_1_002
// 013   ----------------------------------------
	BYTE	PATT
	 POIN2	FirstCampaingCut_1_001
// 014   ----------------------------------------
	BYTE	PATT
	 POIN2	FirstCampaingCut_1_002
// 015   ----------------------------------------
	BYTE	PATT
	 POIN2	FirstCampaingCut_1_001
// 016   ----------------------------------------
	BYTE	PATT
	 POIN2	FirstCampaingCut_1_008
// 017   ----------------------------------------
	BYTE	PATT
	 POIN2	FirstCampaingCut_1_001
// 018   ----------------------------------------
	BYTE	PATT
	 POIN2	FirstCampaingCut_1_002
// 019   ----------------------------------------
	BYTE	PATT
	 POIN2	FirstCampaingCut_1_001
// 020   ----------------------------------------
	BYTE	PATT
	 POIN2	FirstCampaingCut_1_002
// 021   ----------------------------------------
	BYTE	PATT
	 POIN2	FirstCampaingCut_1_001
// 022   ----------------------------------------
	BYTE	PATT
	 POIN2	FirstCampaingCut_1_002
// 023   ----------------------------------------
	BYTE	PATT
	 POIN2	FirstCampaingCut_1_001
// 024   ----------------------------------------
	BYTE	PATT
	 POIN2	FirstCampaingCut_1_008
// 025   ----------------------------------------
	BYTE	PATT
	 POIN2	FirstCampaingCut_1_001
// 026   ----------------------------------------
	BYTE	PATT
	 POIN2	FirstCampaingCut_1_002
// 027   ----------------------------------------
	BYTE	PATT
	 POIN2	FirstCampaingCut_1_001
// 028   ----------------------------------------
	BYTE	PATT
	 POIN2	FirstCampaingCut_1_008
// 029   ----------------------------------------
	BYTE	PATT
	 POIN2	FirstCampaingCut_1_001
// 030   ----------------------------------------
FirstCampaingCut_1_030:
	BYTE		N05     Cn1   v127
	BYTE		N05     Dn1 
	BYTE		N68     Cs2 
	BYTE	W12
	BYTE		N05     Dn1   v092
	BYTE	W06
	BYTE		        Dn1   v080
	BYTE	W06
	BYTE		        Dn1   v096
	BYTE	W06
	BYTE		        Dn1   v080
	BYTE	W06
	BYTE		        Cn1   v127
	BYTE		N05     Dn1   v124
	BYTE	W12
	BYTE		        Cn1   v127
	BYTE		N05     Dn1   v080
	BYTE	W06
	BYTE		        Dn1   v088
	BYTE	W06
	BYTE		        Dn1   v080
	BYTE	W06
	BYTE		        Dn1   v076
	BYTE	W06
	BYTE		        Cn1   v127
	BYTE		N05     Dn1 
	BYTE	W12
	BYTE		        Cn1 
	BYTE		N92     Cs2 
	BYTE		N92     An2 
	BYTE	W12
	BYTE	PEND
// 031   ----------------------------------------
FirstCampaingCut_1_031:
	BYTE	W24
	BYTE		N17     As1   v127
	BYTE	W24
	BYTE		N17   
	BYTE	W12
	BYTE		N05     Cn1 
	BYTE	W12
	BYTE		        Dn1 
	BYTE		N17     Fs1 
	BYTE		N05     Gn1 
	BYTE	W24
	BYTE	PEND
// 032   ----------------------------------------
	BYTE	PATT
	 POIN2	FirstCampaingCut_1_008
// 033   ----------------------------------------
	BYTE	PATT
	 POIN2	FirstCampaingCut_1_001
// 034   ----------------------------------------
	BYTE	PATT
	 POIN2	FirstCampaingCut_1_002
// 035   ----------------------------------------
	BYTE	PATT
	 POIN2	FirstCampaingCut_1_001
// 036   ----------------------------------------
	BYTE	PATT
	 POIN2	FirstCampaingCut_1_002
// 037   ----------------------------------------
	BYTE	PATT
	 POIN2	FirstCampaingCut_1_001
// 038   ----------------------------------------
	BYTE	PATT
	 POIN2	FirstCampaingCut_1_002
// 039   ----------------------------------------
	BYTE	PATT
	 POIN2	FirstCampaingCut_1_001
// 040   ----------------------------------------
	BYTE	PATT
	 POIN2	FirstCampaingCut_1_008
// 041   ----------------------------------------
	BYTE	PATT
	 POIN2	FirstCampaingCut_1_001
// 042   ----------------------------------------
	BYTE	PATT
	 POIN2	FirstCampaingCut_1_002
// 043   ----------------------------------------
	BYTE	PATT
	 POIN2	FirstCampaingCut_1_001
// 044   ----------------------------------------
	BYTE	PATT
	 POIN2	FirstCampaingCut_1_002
// 045   ----------------------------------------
	BYTE	PATT
	 POIN2	FirstCampaingCut_1_001
// 046   ----------------------------------------
	BYTE	PATT
	 POIN2	FirstCampaingCut_1_002
// 047   ----------------------------------------
	BYTE	PATT
	 POIN2	FirstCampaingCut_1_001
// 048   ----------------------------------------
	BYTE	PATT
	 POIN2	FirstCampaingCut_1_008
// 049   ----------------------------------------
	BYTE	PATT
	 POIN2	FirstCampaingCut_1_001
// 050   ----------------------------------------
	BYTE	PATT
	 POIN2	FirstCampaingCut_1_002
// 051   ----------------------------------------
	BYTE	PATT
	 POIN2	FirstCampaingCut_1_001
// 052   ----------------------------------------
	BYTE	PATT
	 POIN2	FirstCampaingCut_1_002
// 053   ----------------------------------------
	BYTE	PATT
	 POIN2	FirstCampaingCut_1_001
// 054   ----------------------------------------
	BYTE	PATT
	 POIN2	FirstCampaingCut_1_002
// 055   ----------------------------------------
	BYTE	PATT
	 POIN2	FirstCampaingCut_1_001
// 056   ----------------------------------------
	BYTE	PATT
	 POIN2	FirstCampaingCut_1_008
// 057   ----------------------------------------
	BYTE	PATT
	 POIN2	FirstCampaingCut_1_001
// 058   ----------------------------------------
	BYTE	PATT
	 POIN2	FirstCampaingCut_1_002
// 059   ----------------------------------------
	BYTE	PATT
	 POIN2	FirstCampaingCut_1_001
// 060   ----------------------------------------
	BYTE	PATT
	 POIN2	FirstCampaingCut_1_008
// 061   ----------------------------------------
	BYTE	PATT
	 POIN2	FirstCampaingCut_1_001
// 062   ----------------------------------------
	BYTE	PATT
	 POIN2	FirstCampaingCut_1_030
// 063   ----------------------------------------
	BYTE	PATT
	 POIN2	FirstCampaingCut_1_031
// 064   ----------------------------------------
	BYTE	PATT
	 POIN2	FirstCampaingCut_1_008
// 065   ----------------------------------------
	BYTE	PATT
	 POIN2	FirstCampaingCut_1_001
// 066   ----------------------------------------
	BYTE	PATT
	 POIN2	FirstCampaingCut_1_002
// 067   ----------------------------------------
	BYTE	PATT
	 POIN2	FirstCampaingCut_1_001
// 068   ----------------------------------------
	BYTE	PATT
	 POIN2	FirstCampaingCut_1_002
// 069   ----------------------------------------
	BYTE	PATT
	 POIN2	FirstCampaingCut_1_001
// 070   ----------------------------------------
	BYTE	PATT
	 POIN2	FirstCampaingCut_1_002
// 071   ----------------------------------------
	BYTE	PATT
	 POIN2	FirstCampaingCut_1_001
// 072   ----------------------------------------
	BYTE	PATT
	 POIN2	FirstCampaingCut_1_008
// 073   ----------------------------------------
	BYTE	PATT
	 POIN2	FirstCampaingCut_1_001
// 074   ----------------------------------------
	BYTE	PATT
	 POIN2	FirstCampaingCut_1_002
// 075   ----------------------------------------
	BYTE	PATT
	 POIN2	FirstCampaingCut_1_001
// 076   ----------------------------------------
	BYTE	PATT
	 POIN2	FirstCampaingCut_1_002
// 077   ----------------------------------------
	BYTE	PATT
	 POIN2	FirstCampaingCut_1_001
// 078   ----------------------------------------
	BYTE	PATT
	 POIN2	FirstCampaingCut_1_002
// 079   ----------------------------------------
	BYTE	PATT
	 POIN2	FirstCampaingCut_1_001
// 080   ----------------------------------------
	BYTE	PATT
	 POIN2	FirstCampaingCut_1_008
// 081   ----------------------------------------
	BYTE	PATT
	 POIN2	FirstCampaingCut_1_001
// 082   ----------------------------------------
	BYTE	PATT
	 POIN2	FirstCampaingCut_1_002
// 083   ----------------------------------------
	BYTE	PATT
	 POIN2	FirstCampaingCut_1_001
// 084   ----------------------------------------
	BYTE	PATT
	 POIN2	FirstCampaingCut_1_002
// 085   ----------------------------------------
	BYTE	PATT
	 POIN2	FirstCampaingCut_1_001
// 086   ----------------------------------------
	BYTE	PATT
	 POIN2	FirstCampaingCut_1_002
// 087   ----------------------------------------
	BYTE	PATT
	 POIN2	FirstCampaingCut_1_001
// 088   ----------------------------------------
	BYTE	PATT
	 POIN2	FirstCampaingCut_1_008
// 089   ----------------------------------------
	BYTE	PATT
	 POIN2	FirstCampaingCut_1_001
// 090   ----------------------------------------
	BYTE	PATT
	 POIN2	FirstCampaingCut_1_002
// 091   ----------------------------------------
	BYTE	PATT
	 POIN2	FirstCampaingCut_1_001
// 092   ----------------------------------------
	BYTE	PATT
	 POIN2	FirstCampaingCut_1_002
// 093   ----------------------------------------
	BYTE	PATT
	 POIN2	FirstCampaingCut_1_001
// 094   ----------------------------------------
	BYTE	PATT
	 POIN2	FirstCampaingCut_1_002
// 095   ----------------------------------------
	BYTE	PATT
	 POIN2	FirstCampaingCut_1_001
// 096   ----------------------------------------
FirstCampaingCut_1_096:
	BYTE		N05     Cn1   v127
	BYTE		N05     Fs1 
	BYTE		N92     Cs2 
	BYTE	W12
	BYTE		N05     Fs1   v048
	BYTE	W12
	BYTE		        Fs1   v127
	BYTE	W12
	BYTE		        Fs1   v060
	BYTE	W12
	BYTE		        Fs1   v127
	BYTE	W06
	BYTE		        Fs1   v056
	BYTE	W06
	BYTE		        Fs1   v048
	BYTE	W06
	BYTE		        Fs1   v080
	BYTE	W06
	BYTE		        Fs1   v127
	BYTE	W12
	BYTE		        Fs1   v072
	BYTE	W12
	BYTE	PEND
// 097   ----------------------------------------
FirstCampaingCut_1_097:
	BYTE		N05     Cn1   v127
	BYTE		N05     Fs1 
	BYTE	W12
	BYTE		        Cn1 
	BYTE		N05     Fs1   v052
	BYTE	W12
	BYTE		        Fs1   v127
	BYTE	W12
	BYTE		        Fs1   v052
	BYTE	W12
	BYTE		        Fs1   v127
	BYTE	W12
	BYTE		        Fs1   v052
	BYTE	W12
	BYTE		        Dn1   v127
	BYTE		N05     Fs1 
	BYTE	W12
	BYTE		        Cn1   v116
	BYTE	W12
	BYTE	PEND
// 098   ----------------------------------------
	BYTE		        Cn1   v127
	BYTE		N05     Fs1 
	BYTE	W12
	BYTE		        Fs1   v048
	BYTE	W12
	BYTE		        Fs1   v127
	BYTE	W12
	BYTE		        Cn1 
	BYTE	W12
	BYTE		        Fs1 
	BYTE	W12
	BYTE		        Fs1   v052
	BYTE	W12
	BYTE		        Fs1   v127
	BYTE	W12
	BYTE		        Fs1   v052
	BYTE	W12
// 099   ----------------------------------------
	BYTE		        Fs1   v127
	BYTE	W12
	BYTE		        Fs1   v056
	BYTE	W12
	BYTE		        Fs1   v127
	BYTE	W12
	BYTE		        Fs1   v048
	BYTE	W12
	BYTE		        Fs1   v127
	BYTE	W12
	BYTE		        Fs1   v048
	BYTE	W12
	BYTE		        Dn1   v127
	BYTE		N05     Fs1 
	BYTE	W12
	BYTE		        Cn1   v124
	BYTE		N05     Fs1   v048
	BYTE	W12
// 100   ----------------------------------------
	BYTE	PATT
	 POIN2	FirstCampaingCut_1_096
// 101   ----------------------------------------
	BYTE	PATT
	 POIN2	FirstCampaingCut_1_097
// 102   ----------------------------------------
	BYTE		N05     Cn1   v127
	BYTE		N05     Cn2 
	BYTE	W06
	BYTE		        Dn1   v072
	BYTE	W06
	BYTE		        Dn1   v080
	BYTE	W06
	BYTE		        Dn1   v127
	BYTE	W06
	BYTE		N05   
	BYTE	W12
	BYTE		        Cn2 
	BYTE	W06
	BYTE		        Dn1   v076
	BYTE	W06
	BYTE		        Dn1   v088
	BYTE	W06
	BYTE		        Dn1   v127
	BYTE	W06
	BYTE		N05   
	BYTE	W12
	BYTE		        Cn2 
	BYTE	W06
	BYTE		        Dn1   v068
	BYTE	W06
	BYTE		        Dn1   v064
	BYTE	W06
	BYTE		        Dn1   v116
	BYTE	W06
// 103   ----------------------------------------
	BYTE		        Dn1   v127
	BYTE	W12
	BYTE		N05   
	BYTE	W12
	BYTE		        Dn1   v124
	BYTE	W06
	BYTE		        Dn1   v084
	BYTE	W06
	BYTE		        Dn1   v127
	BYTE	W12
	BYTE		N05   
	BYTE	W12
	BYTE		        Dn1   v096
	BYTE	W06
	BYTE		        Dn1   v084
	BYTE	W06
	BYTE		        Dn1   v127
	BYTE	W06
	BYTE		N05   
	BYTE	W06
	BYTE		        Dn1   v112
	BYTE	W06
	BYTE		        Dn1   v092
	BYTE	W06
// 104   ----------------------------------------
	BYTE	W03
	BYTE	GoTo
	 POIN2	FirstCampaingCut_1_B1
FirstCampaingCut_1_B2:
	BYTE	FINE

//**************** Track 2 (Midi-Chn.3) ****************//

FirstCampaingCut_2:
	BYTE	KEYSH   FirstCampaingCut_key+0
FirstCampaingCut_2_B1:
// 000   ----------------------------------------
	BYTE		VOICE   18
	BYTE		VOL     48*FirstCampaingCut_mvl/mxv
	BYTE		PAN     c_v+0
	BYTE		N10     Dn4   v080
	BYTE		N12     Fn4   v092
	BYTE	W12
	BYTE		N08     Cn4   v068
	BYTE		N06     En4   v076
	BYTE	W12
	BYTE		N04     An3   v068
	BYTE		N03     Cn4   v072
	BYTE	W12
	BYTE		N10     Cn4   v080
	BYTE		N12     En4   v092
	BYTE	W12
	BYTE		N08     An3   v068
	BYTE		N06     Dn4   v076
	BYTE	W12
	BYTE		N04     Gn3   v068
	BYTE		N03     Cn4   v072
	BYTE	W12
	BYTE		N10     Dn4   v080
	BYTE		N12     Fn4   v092
	BYTE	W12
	BYTE		N08     Cn4   v068
	BYTE		N06     En4   v076
	BYTE	W12
// 001   ----------------------------------------
FirstCampaingCut_2_001:
	BYTE		N04     An3   v068
	BYTE		N03     Cn4   v072
	BYTE	W12
	BYTE		N10     En4   v080
	BYTE		N12     Gn4   v092
	BYTE	W12
	BYTE		N08     Dn4   v068
	BYTE		N06     Fn4   v076
	BYTE	W12
	BYTE		N04     Cn4   v068
	BYTE		N03     En4   v072
	BYTE	W12
	BYTE		N10     Dn4   v080
	BYTE		N12     Fn4   v092
	BYTE	W12
	BYTE		N08     Cn4   v068
	BYTE		N06     En4   v076
	BYTE	W12
	BYTE		N04     As3   v068
	BYTE		N03     Dn4   v072
	BYTE	W12
	BYTE		N04     An3   v068
	BYTE		N03     Cn4   v072
	BYTE	W12
	BYTE	PEND
// 002   ----------------------------------------
FirstCampaingCut_2_002:
	BYTE		N10     Dn4   v080
	BYTE		N12     Fn4   v092
	BYTE	W12
	BYTE		N08     Cn4   v068
	BYTE		N06     En4   v076
	BYTE	W12
	BYTE		N04     An3   v068
	BYTE		N03     Cn4   v072
	BYTE	W12
	BYTE		N10     Cn4   v080
	BYTE		N12     En4   v092
	BYTE	W12
	BYTE		N08     An3   v068
	BYTE		N06     Dn4   v076
	BYTE	W12
	BYTE		N04     Gn3   v068
	BYTE		N03     Cn4   v072
	BYTE	W12
	BYTE		N10     Dn4   v080
	BYTE		N12     Fn4   v092
	BYTE	W12
	BYTE		N08     Cn4   v068
	BYTE		N06     En4   v076
	BYTE	W12
	BYTE	PEND
// 003   ----------------------------------------
	BYTE	PATT
	 POIN2	FirstCampaingCut_2_001
// 004   ----------------------------------------
	BYTE	PATT
	 POIN2	FirstCampaingCut_2_002
// 005   ----------------------------------------
	BYTE	PATT
	 POIN2	FirstCampaingCut_2_001
// 006   ----------------------------------------
	BYTE	PATT
	 POIN2	FirstCampaingCut_2_002
// 007   ----------------------------------------
	BYTE	PATT
	 POIN2	FirstCampaingCut_2_001
// 008   ----------------------------------------
	BYTE	PATT
	 POIN2	FirstCampaingCut_2_002
// 009   ----------------------------------------
	BYTE	PATT
	 POIN2	FirstCampaingCut_2_001
// 010   ----------------------------------------
	BYTE	PATT
	 POIN2	FirstCampaingCut_2_002
// 011   ----------------------------------------
	BYTE	PATT
	 POIN2	FirstCampaingCut_2_001
// 012   ----------------------------------------
	BYTE	PATT
	 POIN2	FirstCampaingCut_2_002
// 013   ----------------------------------------
	BYTE	PATT
	 POIN2	FirstCampaingCut_2_001
// 014   ----------------------------------------
	BYTE	PATT
	 POIN2	FirstCampaingCut_2_002
// 015   ----------------------------------------
	BYTE	PATT
	 POIN2	FirstCampaingCut_2_001
// 016   ----------------------------------------
FirstCampaingCut_2_016:
	BYTE		N10     Dn4   v080
	BYTE		N12     Fn4   v092
	BYTE	W12
	BYTE		N08     Cn4   v068
	BYTE		N06     En4   v076
	BYTE	W12
	BYTE		N04     An3   v068
	BYTE		N03     Dn4   v072
	BYTE	W12
	BYTE		N10     Cn4   v080
	BYTE		N12     En4   v092
	BYTE	W12
	BYTE		N08     An3   v068
	BYTE		N06     Dn4   v076
	BYTE	W12
	BYTE		N04     Gn3   v068
	BYTE		N03     Cn4   v072
	BYTE	W12
	BYTE		N10     Dn4   v080
	BYTE		N12     Fn4   v092
	BYTE	W12
	BYTE		N08     Cn4   v068
	BYTE		N06     En4   v076
	BYTE	W12
	BYTE	PEND
// 017   ----------------------------------------
FirstCampaingCut_2_017:
	BYTE		N04     An3   v068
	BYTE		N03     Dn4   v072
	BYTE	W12
	BYTE		N10     En4   v080
	BYTE		N12     Gn4   v092
	BYTE	W12
	BYTE		N08     Dn4   v068
	BYTE		N06     Fn4   v076
	BYTE	W12
	BYTE		N04     Cn4   v068
	BYTE		N03     En4   v072
	BYTE	W12
	BYTE		N10     Dn4   v080
	BYTE		N12     Fn4   v092
	BYTE	W12
	BYTE		N08     Cn4   v068
	BYTE		N06     En4   v076
	BYTE	W12
	BYTE		N04     An3   v068
	BYTE		N03     Dn4   v072
	BYTE	W12
	BYTE		N04     Gn3   v068
	BYTE		N03     Cn4   v072
	BYTE	W12
	BYTE	PEND
// 018   ----------------------------------------
FirstCampaingCut_2_018:
	BYTE		N10     Dn4   v080
	BYTE		N12     Fn4   v092
	BYTE	W12
	BYTE		N08     Cn4   v068
	BYTE		N06     En4   v076
	BYTE	W12
	BYTE		N04     An3   v068
	BYTE		N03     Dn4   v072
	BYTE	W12
	BYTE		N10     Dn4   v080
	BYTE		N12     Fn4   v092
	BYTE	W12
	BYTE		N08     Cn4   v068
	BYTE		N06     En4   v076
	BYTE	W12
	BYTE		N04     An3   v068
	BYTE		N03     Dn4   v072
	BYTE	W12
	BYTE		N10     Dn4   v080
	BYTE		N12     Fn4   v092
	BYTE	W12
	BYTE		N08     Cn4   v068
	BYTE		N06     En4   v076
	BYTE	W12
	BYTE	PEND
// 019   ----------------------------------------
	BYTE	PATT
	 POIN2	FirstCampaingCut_2_001
// 020   ----------------------------------------
	BYTE	PATT
	 POIN2	FirstCampaingCut_2_016
// 021   ----------------------------------------
FirstCampaingCut_2_021:
	BYTE		N04     An3   v068
	BYTE		N03     Dn4   v072
	BYTE	W12
	BYTE		N10     En4   v080
	BYTE		N12     Gn4   v092
	BYTE	W12
	BYTE		N08     Dn4   v068
	BYTE		N06     Fn4   v076
	BYTE	W12
	BYTE		N04     Cn4   v068
	BYTE		N03     En4   v072
	BYTE	W12
	BYTE		N10     Dn4   v080
	BYTE		N12     Fn4   v092
	BYTE	W12
	BYTE		N08     Cn4   v068
	BYTE		N06     En4   v076
	BYTE	W12
	BYTE		N04     As3   v068
	BYTE		N03     Dn4   v072
	BYTE	W12
	BYTE		N04     An3   v068
	BYTE		N03     Cn4   v072
	BYTE	W12
	BYTE	PEND
// 022   ----------------------------------------
	BYTE	PATT
	 POIN2	FirstCampaingCut_2_018
// 023   ----------------------------------------
	BYTE	PATT
	 POIN2	FirstCampaingCut_2_001
// 024   ----------------------------------------
	BYTE	PATT
	 POIN2	FirstCampaingCut_2_002
// 025   ----------------------------------------
	BYTE	PATT
	 POIN2	FirstCampaingCut_2_001
// 026   ----------------------------------------
	BYTE	PATT
	 POIN2	FirstCampaingCut_2_002
// 027   ----------------------------------------
	BYTE	PATT
	 POIN2	FirstCampaingCut_2_001
// 028   ----------------------------------------
FirstCampaingCut_2_028:
	BYTE		N10     Gn4   v104
	BYTE		N12     As4   v116
	BYTE	W12
	BYTE		N08     Fn4   v092
	BYTE		N06     An4   v100
	BYTE	W12
	BYTE		N04     En4   v092
	BYTE		N03     Gn4   v100
	BYTE	W12
	BYTE		N10     Fn4   v104
	BYTE		N12     An4   v116
	BYTE	W12
	BYTE		N08     En4   v092
	BYTE		N06     Gn4   v100
	BYTE	W12
	BYTE		N04     Dn4   v092
	BYTE		N03     Fn4   v100
	BYTE	W12
	BYTE		N10     En4   v104
	BYTE		N12     Gn4   v116
	BYTE	W12
	BYTE		N08     Dn4   v092
	BYTE		N06     Fn4   v100
	BYTE	W12
	BYTE	PEND
// 029   ----------------------------------------
FirstCampaingCut_2_029:
	BYTE		N04     Cn4   v092
	BYTE		N03     En4   v100
	BYTE	W12
	BYTE		N10     Dn4   v104
	BYTE		N12     Fn4   v116
	BYTE	W12
	BYTE		N08     Cn4   v092
	BYTE		N06     En4   v100
	BYTE	W12
	BYTE		N04     As3   v092
	BYTE		N03     Dn4   v100
	BYTE	W12
	BYTE		N10     Cn4   v104
	BYTE		N12     En4   v116
	BYTE	W12
	BYTE		N08     As3   v092
	BYTE		N06     Dn4   v100
	BYTE	W12
	BYTE		N04     An3   v092
	BYTE		N03     Cn4   v100
	BYTE	W12
	BYTE		N04     Gn3   v092
	BYTE		N03     As3   v100
	BYTE	W12
	BYTE	PEND
// 030   ----------------------------------------
FirstCampaingCut_2_030:
	BYTE		N05     En4   v100
	BYTE		N05     An4 
	BYTE	W12
	BYTE		        En4 
	BYTE		N04     An4 
	BYTE	W24
	BYTE		N02     En4 
	BYTE		N02     An4 
	BYTE	W12
	BYTE		N05     En4 
	BYTE		N06     An4 
	BYTE	W24
	BYTE		N04     En4 
	BYTE		N04     An4 
	BYTE	W12
	BYTE		        En4 
	BYTE		N04     An4 
	BYTE	W12
	BYTE	PEND
// 031   ----------------------------------------
	BYTE	W96
// 032   ----------------------------------------
	BYTE	PATT
	 POIN2	FirstCampaingCut_2_002
// 033   ----------------------------------------
	BYTE	PATT
	 POIN2	FirstCampaingCut_2_001
// 034   ----------------------------------------
	BYTE	PATT
	 POIN2	FirstCampaingCut_2_002
// 035   ----------------------------------------
	BYTE	PATT
	 POIN2	FirstCampaingCut_2_001
// 036   ----------------------------------------
	BYTE	PATT
	 POIN2	FirstCampaingCut_2_002
// 037   ----------------------------------------
	BYTE	PATT
	 POIN2	FirstCampaingCut_2_001
// 038   ----------------------------------------
	BYTE	PATT
	 POIN2	FirstCampaingCut_2_002
// 039   ----------------------------------------
	BYTE	PATT
	 POIN2	FirstCampaingCut_2_001
// 040   ----------------------------------------
	BYTE	PATT
	 POIN2	FirstCampaingCut_2_002
// 041   ----------------------------------------
	BYTE	PATT
	 POIN2	FirstCampaingCut_2_001
// 042   ----------------------------------------
	BYTE	PATT
	 POIN2	FirstCampaingCut_2_002
// 043   ----------------------------------------
	BYTE	PATT
	 POIN2	FirstCampaingCut_2_001
// 044   ----------------------------------------
	BYTE	PATT
	 POIN2	FirstCampaingCut_2_002
// 045   ----------------------------------------
	BYTE	PATT
	 POIN2	FirstCampaingCut_2_001
// 046   ----------------------------------------
	BYTE	PATT
	 POIN2	FirstCampaingCut_2_002
// 047   ----------------------------------------
	BYTE	PATT
	 POIN2	FirstCampaingCut_2_001
// 048   ----------------------------------------
	BYTE	PATT
	 POIN2	FirstCampaingCut_2_016
// 049   ----------------------------------------
	BYTE	PATT
	 POIN2	FirstCampaingCut_2_017
// 050   ----------------------------------------
	BYTE	PATT
	 POIN2	FirstCampaingCut_2_018
// 051   ----------------------------------------
	BYTE	PATT
	 POIN2	FirstCampaingCut_2_001
// 052   ----------------------------------------
	BYTE	PATT
	 POIN2	FirstCampaingCut_2_016
// 053   ----------------------------------------
	BYTE	PATT
	 POIN2	FirstCampaingCut_2_021
// 054   ----------------------------------------
	BYTE	PATT
	 POIN2	FirstCampaingCut_2_018
// 055   ----------------------------------------
	BYTE	PATT
	 POIN2	FirstCampaingCut_2_001
// 056   ----------------------------------------
	BYTE	PATT
	 POIN2	FirstCampaingCut_2_002
// 057   ----------------------------------------
	BYTE	PATT
	 POIN2	FirstCampaingCut_2_001
// 058   ----------------------------------------
	BYTE	PATT
	 POIN2	FirstCampaingCut_2_002
// 059   ----------------------------------------
	BYTE	PATT
	 POIN2	FirstCampaingCut_2_001
// 060   ----------------------------------------
	BYTE	PATT
	 POIN2	FirstCampaingCut_2_028
// 061   ----------------------------------------
	BYTE	PATT
	 POIN2	FirstCampaingCut_2_029
// 062   ----------------------------------------
	BYTE	PATT
	 POIN2	FirstCampaingCut_2_030
// 063   ----------------------------------------
	BYTE	W96
// 064   ----------------------------------------
FirstCampaingCut_2_064:
	BYTE		N10     Cn4   v080
	BYTE		N11     En4   v092
	BYTE	W12
	BYTE		N08     As3   v068
	BYTE		N06     Dn4   v076
	BYTE	W12
	BYTE		N04     Cn4   v068
	BYTE		N03     En4   v072
	BYTE	W12
	BYTE		N10     Dn4   v080
	BYTE		N11     Fn4   v092
	BYTE	W12
	BYTE		N08     Cn4   v068
	BYTE		N06     En4   v076
	BYTE	W12
	BYTE		N04     Dn4   v068
	BYTE		N03     Fn4   v072
	BYTE	W12
	BYTE		N10     Cn4   v080
	BYTE		N11     En4   v092
	BYTE	W12
	BYTE		N08     As3   v068
	BYTE		N06     Dn4   v076
	BYTE	W12
	BYTE	PEND
// 065   ----------------------------------------
FirstCampaingCut_2_065:
	BYTE		N04     Cn4   v068
	BYTE		N03     En4   v072
	BYTE	W12
	BYTE		N10     Dn4   v080
	BYTE		N11     Fn4   v092
	BYTE	W12
	BYTE		N08     Cn4   v068
	BYTE		N06     En4   v076
	BYTE	W12
	BYTE		N04     Dn4   v068
	BYTE		N03     Fn4   v072
	BYTE	W12
	BYTE		N10     Cn4   v080
	BYTE		N11     En4   v092
	BYTE	W12
	BYTE		N08     As3   v068
	BYTE		N06     Dn4   v076
	BYTE	W12
	BYTE		N04     Cn4   v068
	BYTE		N03     En4   v072
	BYTE	W12
	BYTE		N04     Dn4   v068
	BYTE		N03     Fn4   v072
	BYTE	W12
	BYTE	PEND
// 066   ----------------------------------------
	BYTE	PATT
	 POIN2	FirstCampaingCut_2_064
// 067   ----------------------------------------
FirstCampaingCut_2_067:
	BYTE		N04     Cn4   v068
	BYTE		N03     En4   v072
	BYTE	W12
	BYTE		N10     Dn4   v080
	BYTE		N11     Fn4   v092
	BYTE	W12
	BYTE		N08     Cn4   v068
	BYTE		N06     En4   v076
	BYTE	W12
	BYTE		N04     Dn4   v068
	BYTE		N03     Fn4   v072
	BYTE	W12
	BYTE		N10     En4   v080
	BYTE		N11     Gn4   v092
	BYTE	W12
	BYTE		N08     Dn4   v068
	BYTE		N06     Fn4   v076
	BYTE	W12
	BYTE		N04     Cn4   v068
	BYTE		N03     En4   v072
	BYTE	W12
	BYTE		N04     Dn4   v068
	BYTE		N03     Fn4   v072
	BYTE	W12
	BYTE	PEND
// 068   ----------------------------------------
FirstCampaingCut_2_068:
	BYTE		N10     Fn4   v080
	BYTE		N11     An4   v092
	BYTE	W12
	BYTE		N08     En4   v068
	BYTE		N06     Gn4   v076
	BYTE	W12
	BYTE		N04     Fn4   v068
	BYTE		N03     An4   v072
	BYTE	W12
	BYTE		N10     Gn4   v080
	BYTE		N11     As4   v092
	BYTE	W12
	BYTE		N08     Fn4   v068
	BYTE		N06     An4   v076
	BYTE	W12
	BYTE		N04     Gn4   v068
	BYTE		N03     As4   v072
	BYTE	W12
	BYTE		N10     Fn4   v080
	BYTE		N11     An4   v092
	BYTE	W12
	BYTE		N08     En4   v068
	BYTE		N06     Gn4   v076
	BYTE	W12
	BYTE	PEND
// 069   ----------------------------------------
FirstCampaingCut_2_069:
	BYTE		N04     Fn4   v068
	BYTE		N03     An4   v072
	BYTE	W12
	BYTE		N10     Gn4   v080
	BYTE		N11     As4   v092
	BYTE	W12
	BYTE		N08     Fn4   v068
	BYTE		N06     An4   v076
	BYTE	W12
	BYTE		N04     Gn4   v068
	BYTE		N03     As4   v072
	BYTE	W12
	BYTE		N10     Fn4   v080
	BYTE		N11     An4   v092
	BYTE	W12
	BYTE		N08     En4   v068
	BYTE		N06     Gn4   v076
	BYTE	W12
	BYTE		N04     Fn4   v068
	BYTE		N03     An4   v072
	BYTE	W12
	BYTE		N04     Gn4   v068
	BYTE		N03     As4   v072
	BYTE	W12
	BYTE	PEND
// 070   ----------------------------------------
FirstCampaingCut_2_070:
	BYTE		N10     An4   v080
	BYTE		N11     Cn5   v092
	BYTE	W12
	BYTE		N08     Gn4   v068
	BYTE		N06     As4   v076
	BYTE	W12
	BYTE		N04     An4   v068
	BYTE		N03     Cn5   v072
	BYTE	W12
	BYTE		N10     As4   v080
	BYTE		N11     Dn5   v092
	BYTE	W12
	BYTE		N08     An4   v068
	BYTE		N06     Cn5   v076
	BYTE	W12
	BYTE		N04     As4   v068
	BYTE		N03     Dn5   v072
	BYTE	W12
	BYTE		N10     An4   v080
	BYTE		N11     Cn5   v092
	BYTE	W12
	BYTE		N08     Gn4   v068
	BYTE		N06     As4   v076
	BYTE	W12
	BYTE	PEND
// 071   ----------------------------------------
FirstCampaingCut_2_071:
	BYTE		N04     An4   v068
	BYTE		N03     Cn5   v072
	BYTE	W12
	BYTE		N10     As4   v080
	BYTE		N11     Dn5   v092
	BYTE	W12
	BYTE		N08     An4   v068
	BYTE		N06     Cn5   v076
	BYTE	W12
	BYTE		N04     As4   v068
	BYTE		N03     Dn5   v072
	BYTE	W12
	BYTE		N10     An4   v080
	BYTE		N11     Cn5   v092
	BYTE	W12
	BYTE		N08     Gn4   v068
	BYTE		N06     As4   v076
	BYTE	W12
	BYTE		N04     An4   v068
	BYTE		N03     Cn5   v072
	BYTE	W12
	BYTE		N04     As4   v068
	BYTE		N03     Dn5   v072
	BYTE	W12
	BYTE	PEND
// 072   ----------------------------------------
	BYTE	PATT
	 POIN2	FirstCampaingCut_2_064
// 073   ----------------------------------------
	BYTE	PATT
	 POIN2	FirstCampaingCut_2_065
// 074   ----------------------------------------
	BYTE	PATT
	 POIN2	FirstCampaingCut_2_064
// 075   ----------------------------------------
	BYTE	PATT
	 POIN2	FirstCampaingCut_2_067
// 076   ----------------------------------------
	BYTE	PATT
	 POIN2	FirstCampaingCut_2_068
// 077   ----------------------------------------
	BYTE	PATT
	 POIN2	FirstCampaingCut_2_069
// 078   ----------------------------------------
	BYTE	PATT
	 POIN2	FirstCampaingCut_2_070
// 079   ----------------------------------------
	BYTE	PATT
	 POIN2	FirstCampaingCut_2_071
// 080   ----------------------------------------
	BYTE	PATT
	 POIN2	FirstCampaingCut_2_064
// 081   ----------------------------------------
	BYTE	PATT
	 POIN2	FirstCampaingCut_2_065
// 082   ----------------------------------------
	BYTE	PATT
	 POIN2	FirstCampaingCut_2_064
// 083   ----------------------------------------
	BYTE	PATT
	 POIN2	FirstCampaingCut_2_067
// 084   ----------------------------------------
	BYTE	PATT
	 POIN2	FirstCampaingCut_2_068
// 085   ----------------------------------------
	BYTE	PATT
	 POIN2	FirstCampaingCut_2_069
// 086   ----------------------------------------
	BYTE	PATT
	 POIN2	FirstCampaingCut_2_070
// 087   ----------------------------------------
	BYTE	PATT
	 POIN2	FirstCampaingCut_2_071
// 088   ----------------------------------------
	BYTE	PATT
	 POIN2	FirstCampaingCut_2_064
// 089   ----------------------------------------
	BYTE	PATT
	 POIN2	FirstCampaingCut_2_065
// 090   ----------------------------------------
	BYTE	PATT
	 POIN2	FirstCampaingCut_2_064
// 091   ----------------------------------------
	BYTE	PATT
	 POIN2	FirstCampaingCut_2_067
// 092   ----------------------------------------
	BYTE	PATT
	 POIN2	FirstCampaingCut_2_068
// 093   ----------------------------------------
	BYTE	PATT
	 POIN2	FirstCampaingCut_2_069
// 094   ----------------------------------------
	BYTE	PATT
	 POIN2	FirstCampaingCut_2_070
// 095   ----------------------------------------
	BYTE	PATT
	 POIN2	FirstCampaingCut_2_071
// 096   ----------------------------------------
	BYTE	PATT
	 POIN2	FirstCampaingCut_2_064
// 097   ----------------------------------------
	BYTE	PATT
	 POIN2	FirstCampaingCut_2_065
// 098   ----------------------------------------
	BYTE		N10     Ds4   v080
	BYTE		N11     Gn4   v092
	BYTE	W12
	BYTE		N08     Cs4   v068
	BYTE		N06     Fn4   v076
	BYTE	W12
	BYTE		N04     Ds4   v068
	BYTE		N03     Gn4   v072
	BYTE	W12
	BYTE		N10     Fn4   v080
	BYTE		N11     Gs4   v092
	BYTE	W12
	BYTE		N08     Ds4   v068
	BYTE		N06     Gn4   v076
	BYTE	W12
	BYTE		N04     Fn4   v068
	BYTE		N03     Gs4   v072
	BYTE	W12
	BYTE		N10     Ds4   v080
	BYTE		N11     Gn4   v092
	BYTE	W12
	BYTE		N08     Cs4   v068
	BYTE		N06     Fn4   v076
	BYTE	W12
// 099   ----------------------------------------
	BYTE		N04     Ds4   v068
	BYTE		N03     Gn4   v072
	BYTE	W12
	BYTE		N10     Fn4   v080
	BYTE		N11     Gs4   v092
	BYTE	W12
	BYTE		N08     Ds4   v068
	BYTE		N06     Gn4   v076
	BYTE	W12
	BYTE		N04     Fn4   v068
	BYTE		N03     Gs4   v072
	BYTE	W12
	BYTE		N10     Ds4   v080
	BYTE		N11     Gn4   v092
	BYTE	W12
	BYTE		N08     Cs4   v068
	BYTE		N06     Fn4   v076
	BYTE	W12
	BYTE		N04     Ds4   v068
	BYTE		N03     Gn4   v072
	BYTE	W12
	BYTE		N04     Cs4   v068
	BYTE		N03     Fn4   v072
	BYTE	W12
// 100   ----------------------------------------
FirstCampaingCut_2_100:
	BYTE		N10     Dn4   v080
	BYTE		N11     Fn4   v092
	BYTE	W12
	BYTE		N08     Cn4   v068
	BYTE		N06     En4   v076
	BYTE	W12
	BYTE		N04     An3   v068
	BYTE		N03     Dn4   v072
	BYTE	W12
	BYTE		N10     Cn4   v080
	BYTE		N11     En4   v092
	BYTE	W12
	BYTE		N08     An3   v068
	BYTE		N06     Dn4   v076
	BYTE	W12
	BYTE		N04     Gn3   v068
	BYTE		N03     Cn4   v072
	BYTE	W12
	BYTE		N10     Dn4   v080
	BYTE		N11     Fn4   v092
	BYTE	W12
	BYTE		N08     Cn4   v068
	BYTE		N06     En4   v076
	BYTE	W12
	BYTE	PEND
// 101   ----------------------------------------
	BYTE		N04     An3   v068
	BYTE		N03     Dn4   v072
	BYTE	W12
	BYTE		N10     En4   v080
	BYTE		N11     Gn4   v092
	BYTE	W12
	BYTE		N08     Dn4   v068
	BYTE		N06     Fn4   v076
	BYTE	W12
	BYTE		N04     Cn4   v068
	BYTE		N03     En4   v072
	BYTE	W12
	BYTE		N10     Dn4   v080
	BYTE		N11     Fn4   v092
	BYTE	W12
	BYTE		N08     Cn4   v068
	BYTE		N06     En4   v076
	BYTE	W12
	BYTE		N04     An3   v068
	BYTE		N03     Dn4   v072
	BYTE	W12
	BYTE		        Gn3 
	BYTE		N03     Cn4 
	BYTE	W12
// 102   ----------------------------------------
	BYTE	PATT
	 POIN2	FirstCampaingCut_2_100
// 103   ----------------------------------------
	BYTE		N04     An3   v068
	BYTE		N03     Dn4   v072
	BYTE	W12
	BYTE		N10     En4   v080
	BYTE		N11     Gn4   v092
	BYTE	W12
	BYTE		N08     Dn4   v068
	BYTE		N06     Fn4   v076
	BYTE	W12
	BYTE		N04     Cn4   v068
	BYTE		N03     En4   v072
	BYTE	W12
	BYTE		N10     Dn4   v080
	BYTE		N11     Fn4   v092
	BYTE	W12
	BYTE		N08     Cn4   v068
	BYTE		N06     En4   v076
	BYTE	W12
	BYTE		N04     An3   v068
	BYTE		N03     Dn4   v072
	BYTE	W12
	BYTE		        Gn3 
	BYTE		N03     Cn4 
	BYTE	W03
	BYTE		VOL     48*FirstCampaingCut_mvl/mxv
	BYTE		PAN     c_v+0
	BYTE	W09
// 104   ----------------------------------------
	BYTE	W03
	BYTE	GoTo
	 POIN2	FirstCampaingCut_2_B1
FirstCampaingCut_2_B2:
	BYTE	FINE

//**************** Track 3 (Midi-Chn.4) ****************//

FirstCampaingCut_3:
	BYTE	KEYSH   FirstCampaingCut_key+0
FirstCampaingCut_3_B1:
// 000   ----------------------------------------
	BYTE		VOICE   26
	BYTE		VOL     38*FirstCampaingCut_mvl/mxv
	BYTE		PAN     c_v-61
	BYTE	W96
// 001   ----------------------------------------
	BYTE	W96
// 002   ----------------------------------------
	BYTE	W96
// 003   ----------------------------------------
	BYTE	W96
// 004   ----------------------------------------
	BYTE	W96
// 005   ----------------------------------------
	BYTE	W96
// 006   ----------------------------------------
	BYTE	W96
// 007   ----------------------------------------
	BYTE	W96
// 008   ----------------------------------------
	BYTE	W96
// 009   ----------------------------------------
	BYTE	W96
// 010   ----------------------------------------
	BYTE	W96
// 011   ----------------------------------------
	BYTE	W96
// 012   ----------------------------------------
	BYTE	W96
// 013   ----------------------------------------
	BYTE	W96
// 014   ----------------------------------------
	BYTE	W96
// 015   ----------------------------------------
	BYTE	W96
// 016   ----------------------------------------
FirstCampaingCut_3_016:
	BYTE	W48
	BYTE	W01
	BYTE		N11     Fn3   v096
	BYTE	W12
	BYTE		        Gn3 
	BYTE	W12
	BYTE		        An3 
	BYTE	W12
	BYTE		        Dn3 
	BYTE	W11
	BYTE	PEND
// 017   ----------------------------------------
FirstCampaingCut_3_017:
	BYTE	W01
	BYTE		N11     Fn3   v084
	BYTE	W12
	BYTE		        Gn3 
	BYTE	W12
	BYTE		        An3 
	BYTE	W12
	BYTE		        Dn3 
	BYTE	W12
	BYTE		        Fn3   v072
	BYTE	W12
	BYTE		        Gn3 
	BYTE	W12
	BYTE		        An3 
	BYTE	W12
	BYTE		        Dn3 
	BYTE	W11
	BYTE	PEND
// 018   ----------------------------------------
	BYTE	PATT
	 POIN2	FirstCampaingCut_3_016
// 019   ----------------------------------------
FirstCampaingCut_3_019:
	BYTE	W01
	BYTE		N11     Fn3   v084
	BYTE	W12
	BYTE		        Gn3 
	BYTE	W12
	BYTE		        An3 
	BYTE	W12
	BYTE		        Dn3 
	BYTE	W12
	BYTE		        Fn3   v068
	BYTE	W12
	BYTE		        Gn3 
	BYTE	W12
	BYTE		        An3 
	BYTE	W12
	BYTE		        Dn3 
	BYTE	W11
	BYTE	PEND
// 020   ----------------------------------------
	BYTE	PATT
	 POIN2	FirstCampaingCut_3_016
// 021   ----------------------------------------
	BYTE	PATT
	 POIN2	FirstCampaingCut_3_019
// 022   ----------------------------------------
FirstCampaingCut_3_022:
	BYTE	W48
	BYTE	W01
	BYTE		N11     Fn3   v100
	BYTE	W12
	BYTE		        Gn3 
	BYTE	W12
	BYTE		        An3 
	BYTE	W12
	BYTE		        Dn3 
	BYTE	W11
	BYTE	PEND
// 023   ----------------------------------------
FirstCampaingCut_3_023:
	BYTE	W01
	BYTE		N11     Fn3   v084
	BYTE	W12
	BYTE		        Gn3 
	BYTE	W12
	BYTE		        An3 
	BYTE	W12
	BYTE		        Dn3 
	BYTE	W12
	BYTE		        Fn3   v068
	BYTE	W12
	BYTE		        Dn3   v100
	BYTE	W12
	BYTE		        Fn3 
	BYTE	W12
	BYTE		        Gn3 
	BYTE	W11
	BYTE	PEND
// 024   ----------------------------------------
FirstCampaingCut_3_024:
	BYTE	W01
	BYTE		N32     An3   v100
	BYTE	W36
	BYTE		        Gn3 
	BYTE	W36
	BYTE		N23     Dn3 
	BYTE	W23
	BYTE	PEND
// 025   ----------------------------------------
FirstCampaingCut_3_025:
	BYTE	W01
	BYTE		N32     Fn3   v100
	BYTE	W36
	BYTE		        Dn3 
	BYTE	W36
	BYTE		N11     Cn3 
	BYTE	W12
	BYTE		        Dn3 
	BYTE	W11
	BYTE	PEND
// 026   ----------------------------------------
	BYTE	PATT
	 POIN2	FirstCampaingCut_3_024
// 027   ----------------------------------------
	BYTE	PATT
	 POIN2	FirstCampaingCut_3_025
// 028   ----------------------------------------
FirstCampaingCut_3_028:
	BYTE	W01
	BYTE		N11     As3   v100
	BYTE	W12
	BYTE		        An3 
	BYTE	W12
	BYTE		        Gn3 
	BYTE	W12
	BYTE		        An3 
	BYTE	W12
	BYTE		N17     Gn3 
	BYTE	W12
	BYTE		N11     Fn3 
	BYTE	W12
	BYTE		        Gn3 
	BYTE	W12
	BYTE		        Fn3 
	BYTE	W11
	BYTE	PEND
// 029   ----------------------------------------
FirstCampaingCut_3_029:
	BYTE	W01
	BYTE		N11     En3   v100
	BYTE	W12
	BYTE		        Fn3 
	BYTE	W12
	BYTE		        En3 
	BYTE	W12
	BYTE		        Dn3 
	BYTE	W12
	BYTE		        En3 
	BYTE	W12
	BYTE		        Dn3 
	BYTE	W12
	BYTE		        Cn3 
	BYTE	W12
	BYTE		        As2 
	BYTE	W11
	BYTE	PEND
// 030   ----------------------------------------
FirstCampaingCut_3_030:
	BYTE	W01
	BYTE		N06     An2   v100
	BYTE	W12
	BYTE		N06   
	BYTE	W24
	BYTE		N06   
	BYTE	W12
	BYTE		N06   
	BYTE	W24
	BYTE		N06   
	BYTE	W12
	BYTE		N06   
	BYTE	W11
	BYTE	PEND
// 031   ----------------------------------------
	BYTE	W96
// 032   ----------------------------------------
	BYTE	W96
// 033   ----------------------------------------
	BYTE	W96
// 034   ----------------------------------------
	BYTE	W96
// 035   ----------------------------------------
	BYTE	W96
// 036   ----------------------------------------
	BYTE	W96
// 037   ----------------------------------------
	BYTE	W96
// 038   ----------------------------------------
	BYTE	W96
// 039   ----------------------------------------
	BYTE	W96
// 040   ----------------------------------------
	BYTE	W96
// 041   ----------------------------------------
	BYTE	W96
// 042   ----------------------------------------
	BYTE	W96
// 043   ----------------------------------------
	BYTE	W96
// 044   ----------------------------------------
	BYTE	W96
// 045   ----------------------------------------
	BYTE	W96
// 046   ----------------------------------------
	BYTE	W96
// 047   ----------------------------------------
	BYTE	W96
// 048   ----------------------------------------
	BYTE	PATT
	 POIN2	FirstCampaingCut_3_016
// 049   ----------------------------------------
	BYTE	PATT
	 POIN2	FirstCampaingCut_3_017
// 050   ----------------------------------------
	BYTE	PATT
	 POIN2	FirstCampaingCut_3_016
// 051   ----------------------------------------
	BYTE	PATT
	 POIN2	FirstCampaingCut_3_019
// 052   ----------------------------------------
	BYTE	PATT
	 POIN2	FirstCampaingCut_3_016
// 053   ----------------------------------------
	BYTE	PATT
	 POIN2	FirstCampaingCut_3_019
// 054   ----------------------------------------
	BYTE	PATT
	 POIN2	FirstCampaingCut_3_022
// 055   ----------------------------------------
	BYTE	PATT
	 POIN2	FirstCampaingCut_3_023
// 056   ----------------------------------------
	BYTE	PATT
	 POIN2	FirstCampaingCut_3_024
// 057   ----------------------------------------
	BYTE	PATT
	 POIN2	FirstCampaingCut_3_025
// 058   ----------------------------------------
	BYTE	PATT
	 POIN2	FirstCampaingCut_3_024
// 059   ----------------------------------------
	BYTE	PATT
	 POIN2	FirstCampaingCut_3_025
// 060   ----------------------------------------
	BYTE	PATT
	 POIN2	FirstCampaingCut_3_028
// 061   ----------------------------------------
	BYTE	PATT
	 POIN2	FirstCampaingCut_3_029
// 062   ----------------------------------------
	BYTE	PATT
	 POIN2	FirstCampaingCut_3_030
// 063   ----------------------------------------
	BYTE	W96
// 064   ----------------------------------------
	BYTE	W96
// 065   ----------------------------------------
	BYTE	W96
// 066   ----------------------------------------
	BYTE	W96
// 067   ----------------------------------------
	BYTE	W96
// 068   ----------------------------------------
	BYTE	W96
// 069   ----------------------------------------
	BYTE	W96
// 070   ----------------------------------------
	BYTE	W96
// 071   ----------------------------------------
	BYTE	W96
// 072   ----------------------------------------
	BYTE	W96
// 073   ----------------------------------------
	BYTE	W96
// 074   ----------------------------------------
	BYTE	W96
// 075   ----------------------------------------
	BYTE	W96
// 076   ----------------------------------------
	BYTE	W96
// 077   ----------------------------------------
	BYTE	W96
// 078   ----------------------------------------
	BYTE	W96
// 079   ----------------------------------------
	BYTE	W96
// 080   ----------------------------------------
	BYTE	W13
	BYTE		N13     An3   v088
	BYTE	W12
	BYTE		N14     As3 
	BYTE	W12
	BYTE		N24     Cn4 
	BYTE	W24
	BYTE		N09     Fn3 
	BYTE	W12
	BYTE		N13     Gn3 
	BYTE	W12
	BYTE		        Cn4 
	BYTE	W11
// 081   ----------------------------------------
FirstCampaingCut_3_081:
	BYTE	W01
	BYTE		N15     Fn3   v088
	BYTE	W12
	BYTE		N14     Gn3 
	BYTE	W12
	BYTE		N15     Cn4 
	BYTE	W12
	BYTE		N13     Fn3 
	BYTE	W12
	BYTE		N12     Gn3 
	BYTE	W12
	BYTE		N14     Dn4 
	BYTE	W12
	BYTE		N12     Cn4 
	BYTE	W12
	BYTE		        Fn3 
	BYTE	W11
	BYTE	PEND
// 082   ----------------------------------------
	BYTE	W13
	BYTE		N12   
	BYTE	W12
	BYTE		        Gn3 
	BYTE	W12
	BYTE		N24     Cn4 
	BYTE	W24
	BYTE		N09     Fn3 
	BYTE	W12
	BYTE		N13     Gn3 
	BYTE	W12
	BYTE		        Cn4 
	BYTE	W11
// 083   ----------------------------------------
	BYTE	PATT
	 POIN2	FirstCampaingCut_3_081
// 084   ----------------------------------------
FirstCampaingCut_3_084:
	BYTE	W13
	BYTE		N11     An3   v088
	BYTE	W12
	BYTE		N15     As3 
	BYTE	W12
	BYTE		N36     Cn4 
	BYTE	W36
	BYTE		N13     Fn3 
	BYTE	W23
	BYTE	PEND
// 085   ----------------------------------------
FirstCampaingCut_3_085:
	BYTE	W01
	BYTE		N11     En3   v088
	BYTE	W12
	BYTE		N07     Fn3 
	BYTE	W24
	BYTE		N56     Cn4 
	BYTE	W56
	BYTE	W03
	BYTE	PEND
// 086   ----------------------------------------
	BYTE	W13
	BYTE		N11   
	BYTE	W12
	BYTE		        Dn4 
	BYTE	W12
	BYTE		N32     Cn4 
	BYTE	W36
	BYTE		N11     Fn4 
	BYTE	W23
// 087   ----------------------------------------
	BYTE	W01
	BYTE		N12     En4 
	BYTE	W12
	BYTE		N07     Cn4 
	BYTE	W24
	BYTE		N23     An3 
	BYTE	W24
	BYTE		N11     As3 
	BYTE	W12
	BYTE		N09     Dn4 
	BYTE	W12
	BYTE		N23     Cn4 
	BYTE	W11
// 088   ----------------------------------------
FirstCampaingCut_3_088:
	BYTE	W13
	BYTE		N11     Fn3   v088
	BYTE	W12
	BYTE		        En3 
	BYTE	W12
	BYTE		        Fn3 
	BYTE	W12
	BYTE		        Cn4 
	BYTE	W12
	BYTE		        En3 
	BYTE	W12
	BYTE		        Fn3 
	BYTE	W12
	BYTE		        Cn4 
	BYTE	W11
	BYTE	PEND
// 089   ----------------------------------------
FirstCampaingCut_3_089:
	BYTE	W01
	BYTE		N11     En3   v088
	BYTE	W12
	BYTE		        Fn3 
	BYTE	W12
	BYTE		        Cn4 
	BYTE	W12
	BYTE		        En3 
	BYTE	W12
	BYTE		        Fn3 
	BYTE	W12
	BYTE		        Cn4 
	BYTE	W12
	BYTE		        Dn4 
	BYTE	W12
	BYTE		        Cn4 
	BYTE	W11
	BYTE	PEND
// 090   ----------------------------------------
	BYTE	PATT
	 POIN2	FirstCampaingCut_3_088
// 091   ----------------------------------------
	BYTE	PATT
	 POIN2	FirstCampaingCut_3_089
// 092   ----------------------------------------
	BYTE	PATT
	 POIN2	FirstCampaingCut_3_084
// 093   ----------------------------------------
	BYTE	PATT
	 POIN2	FirstCampaingCut_3_085
// 094   ----------------------------------------
	BYTE	W13
	BYTE		N15     Cn4   v088
	BYTE	W12
	BYTE		N14     Dn4 
	BYTE	W12
	BYTE		N36     Cn4 
	BYTE	W36
	BYTE		N12     Fn4 
	BYTE	W23
// 095   ----------------------------------------
	BYTE	W01
	BYTE		N14     Gn4 
	BYTE	W12
	BYTE		N09     Cn4 
	BYTE	W24
	BYTE		N24     An4 
	BYTE	W24
	BYTE		N07     As4 
	BYTE	W12
	BYTE		N05     An4 
	BYTE	W12
	BYTE		N24     Gn4 
	BYTE	W11
// 096   ----------------------------------------
	BYTE	W13
	BYTE		N11     As4 
	BYTE	W12
	BYTE		N08     An4 
	BYTE	W12
	BYTE		N68     Fn4 
	BYTE	W56
	BYTE	W03
// 097   ----------------------------------------
	BYTE	W13
	BYTE		N15     Cn4 
	BYTE	W24
	BYTE		N23     Fn4 
	BYTE	W24
	BYTE		N07     Gn4 
	BYTE	W12
	BYTE		N40     Fn4 
	BYTE	W23
// 098   ----------------------------------------
	BYTE	W48
	BYTE	W01
	BYTE		N56   
	BYTE	W44
	BYTE	W03
// 099   ----------------------------------------
	BYTE	W24
	BYTE	W01
	BYTE		N02     Gn4   v060
	BYTE	W03
	BYTE		N05     Gs4   v080
	BYTE	W09
	BYTE		N17     Gn4   v088
	BYTE	W24
	BYTE		N14     Fn4   v080
	BYTE	W24
	BYTE		N05   
	BYTE	W11
// 100   ----------------------------------------
	BYTE	W01
	BYTE		N02   
	BYTE	W03
	BYTE		N14     Gn4   v076
	BYTE	W09
	BYTE		N11     Fn4   v072
	BYTE	W12
	BYTE		N14     Gn4   v068
	BYTE	W12
	BYTE		N06     Fn4   v084
	BYTE	W24
	BYTE		N05     Cn4   v080
	BYTE	W12
	BYTE		N02   
	BYTE	W03
	BYTE		N72     Dn4   v088
	BYTE	W20
// 101   ----------------------------------------
	BYTE	W54
	BYTE	W01
	BYTE		N05     Cn4 
	BYTE	W06
	BYTE		        Fn4 
	BYTE	W06
	BYTE		        Dn4 
	BYTE	W06
	BYTE		        Cn4 
	BYTE	W06
	BYTE		        An3 
	BYTE	W06
	BYTE		        Dn4 
	BYTE	W06
	BYTE		        Cn4 
	BYTE	W05
// 102   ----------------------------------------
	BYTE	W01
	BYTE		        An3 
	BYTE	W06
	BYTE		        Fn3 
	BYTE	W06
	BYTE		        Cn4 
	BYTE	W06
	BYTE		        An3 
	BYTE	W06
	BYTE		        Fn3 
	BYTE	W06
	BYTE		        Dn3 
	BYTE	W06
	BYTE		        Gn3 
	BYTE	W06
	BYTE		        Fn3 
	BYTE	W06
	BYTE		        Dn3 
	BYTE	W06
	BYTE		        Cn3 
	BYTE	W06
	BYTE		        An2 
	BYTE	W06
	BYTE		        Gn2 
	BYTE	W06
	BYTE		        Fn2 
	BYTE	W06
	BYTE		        An2 
	BYTE	W06
	BYTE		        Cn3 
	BYTE	W06
	BYTE		        Dn3 
	BYTE	W05
// 103   ----------------------------------------
	BYTE	W01
	BYTE		        An2 
	BYTE	W06
	BYTE		        Cn3 
	BYTE	W06
	BYTE		        Dn3 
	BYTE	W06
	BYTE		        Fn3 
	BYTE	W06
	BYTE		        Dn3 
	BYTE	W06
	BYTE		        Fn3 
	BYTE	W06
	BYTE		        Gn3 
	BYTE	W06
	BYTE		        An3 
	BYTE	W06
	BYTE		        Fn3 
	BYTE	W06
	BYTE		        An3 
	BYTE	W06
	BYTE		        Cn4 
	BYTE	W06
	BYTE		        Dn4 
	BYTE	W06
	BYTE		        Fn4 
	BYTE	W06
	BYTE		        Dn4 
	BYTE	W06
	BYTE		        Fn4 
	BYTE	W06
	BYTE		        Gn4 
	BYTE	W05
// 104   ----------------------------------------
	BYTE	W03
	BYTE	GoTo
	 POIN2	FirstCampaingCut_3_B1
FirstCampaingCut_3_B2:
	BYTE	FINE

//**************** Track 4 (Midi-Chn.5) ****************//

FirstCampaingCut_4:
	BYTE	KEYSH   FirstCampaingCut_key+0
FirstCampaingCut_4_B1:
// 000   ----------------------------------------
	BYTE		VOICE   38
	BYTE		VOL     58*FirstCampaingCut_mvl/mxv
	BYTE		PAN     c_v+0
	BYTE		N10     Dn2   v088
	BYTE	W12
	BYTE		N10   
	BYTE	W12
	BYTE		N10   
	BYTE	W12
	BYTE		N10   
	BYTE	W12
	BYTE		N10   
	BYTE	W12
	BYTE		N10   
	BYTE	W12
	BYTE		N10   
	BYTE	W12
	BYTE		N10   
	BYTE	W12
// 001   ----------------------------------------
FirstCampaingCut_4_001:
	BYTE		N10     Dn2   v088
	BYTE	W12
	BYTE		N10   
	BYTE	W12
	BYTE		N10   
	BYTE	W12
	BYTE		N10   
	BYTE	W12
	BYTE		N10   
	BYTE	W12
	BYTE		N10   
	BYTE	W12
	BYTE		N10   
	BYTE	W12
	BYTE		N10   
	BYTE	W12
	BYTE	PEND
// 002   ----------------------------------------
FirstCampaingCut_4_002:
	BYTE		N10     As1   v088
	BYTE	W12
	BYTE		N10   
	BYTE	W12
	BYTE		N10   
	BYTE	W12
	BYTE		N10   
	BYTE	W12
	BYTE		N10   
	BYTE	W12
	BYTE		N10   
	BYTE	W12
	BYTE		N10   
	BYTE	W12
	BYTE		N10   
	BYTE	W12
	BYTE	PEND
// 003   ----------------------------------------
FirstCampaingCut_4_003:
	BYTE		N10     Gn1   v088
	BYTE	W12
	BYTE		N10   
	BYTE	W12
	BYTE		N10   
	BYTE	W12
	BYTE		N10   
	BYTE	W12
	BYTE		N10   
	BYTE	W12
	BYTE		N10   
	BYTE	W12
	BYTE		N10   
	BYTE	W12
	BYTE		N10   
	BYTE	W12
	BYTE	PEND
// 004   ----------------------------------------
	BYTE	PATT
	 POIN2	FirstCampaingCut_4_001
// 005   ----------------------------------------
	BYTE	PATT
	 POIN2	FirstCampaingCut_4_001
// 006   ----------------------------------------
FirstCampaingCut_4_006:
	BYTE		N10     Fn1   v088
	BYTE	W12
	BYTE		N10   
	BYTE	W12
	BYTE		N10   
	BYTE	W12
	BYTE		N10   
	BYTE	W12
	BYTE		N10   
	BYTE	W12
	BYTE		N10   
	BYTE	W12
	BYTE		N10   
	BYTE	W12
	BYTE		N10   
	BYTE	W12
	BYTE	PEND
// 007   ----------------------------------------
	BYTE	PATT
	 POIN2	FirstCampaingCut_4_002
// 008   ----------------------------------------
	BYTE	PATT
	 POIN2	FirstCampaingCut_4_001
// 009   ----------------------------------------
	BYTE	PATT
	 POIN2	FirstCampaingCut_4_001
// 010   ----------------------------------------
	BYTE	PATT
	 POIN2	FirstCampaingCut_4_002
// 011   ----------------------------------------
	BYTE	PATT
	 POIN2	FirstCampaingCut_4_003
// 012   ----------------------------------------
	BYTE	PATT
	 POIN2	FirstCampaingCut_4_001
// 013   ----------------------------------------
	BYTE	PATT
	 POIN2	FirstCampaingCut_4_001
// 014   ----------------------------------------
	BYTE	PATT
	 POIN2	FirstCampaingCut_4_006
// 015   ----------------------------------------
	BYTE	PATT
	 POIN2	FirstCampaingCut_4_002
// 016   ----------------------------------------
	BYTE	PATT
	 POIN2	FirstCampaingCut_4_001
// 017   ----------------------------------------
FirstCampaingCut_4_017:
	BYTE		N10     En2   v088
	BYTE	W12
	BYTE		N10   
	BYTE	W12
	BYTE		N10   
	BYTE	W12
	BYTE		N10   
	BYTE	W12
	BYTE		N10   
	BYTE	W12
	BYTE		N10   
	BYTE	W12
	BYTE		N10   
	BYTE	W12
	BYTE		N10   
	BYTE	W12
	BYTE	PEND
// 018   ----------------------------------------
FirstCampaingCut_4_018:
	BYTE		N10     Fn2   v088
	BYTE	W12
	BYTE		N10   
	BYTE	W12
	BYTE		N10   
	BYTE	W12
	BYTE		N10   
	BYTE	W12
	BYTE		N10   
	BYTE	W12
	BYTE		N10   
	BYTE	W12
	BYTE		N10   
	BYTE	W12
	BYTE		N10   
	BYTE	W12
	BYTE	PEND
// 019   ----------------------------------------
	BYTE	PATT
	 POIN2	FirstCampaingCut_4_002
// 020   ----------------------------------------
	BYTE	PATT
	 POIN2	FirstCampaingCut_4_001
// 021   ----------------------------------------
	BYTE	PATT
	 POIN2	FirstCampaingCut_4_017
// 022   ----------------------------------------
	BYTE	PATT
	 POIN2	FirstCampaingCut_4_018
// 023   ----------------------------------------
	BYTE	PATT
	 POIN2	FirstCampaingCut_4_002
// 024   ----------------------------------------
FirstCampaingCut_4_024:
	BYTE		N10     Gn1   v088
	BYTE	W12
	BYTE		N10   
	BYTE	W12
	BYTE		N10   
	BYTE	W12
	BYTE		        An1 
	BYTE	W12
	BYTE		N10   
	BYTE	W12
	BYTE		N10   
	BYTE	W12
	BYTE		N10   
	BYTE	W12
	BYTE		        As1 
	BYTE	W12
	BYTE	PEND
// 025   ----------------------------------------
FirstCampaingCut_4_025:
	BYTE		N10     As1   v088
	BYTE	W12
	BYTE		N10   
	BYTE	W12
	BYTE		N10   
	BYTE	W12
	BYTE		        Cn2 
	BYTE	W12
	BYTE		N10   
	BYTE	W12
	BYTE		N10   
	BYTE	W12
	BYTE		N10   
	BYTE	W12
	BYTE		N10   
	BYTE	W12
	BYTE	PEND
// 026   ----------------------------------------
	BYTE	PATT
	 POIN2	FirstCampaingCut_4_024
// 027   ----------------------------------------
	BYTE	PATT
	 POIN2	FirstCampaingCut_4_025
// 028   ----------------------------------------
FirstCampaingCut_4_028:
	BYTE		N10     Gn1   v088
	BYTE	W12
	BYTE		N10   
	BYTE	W12
	BYTE		N10   
	BYTE	W12
	BYTE		        An1 
	BYTE	W12
	BYTE		N10   
	BYTE	W12
	BYTE		N10   
	BYTE	W12
	BYTE		        As1 
	BYTE	W12
	BYTE		N10   
	BYTE	W12
	BYTE	PEND
// 029   ----------------------------------------
FirstCampaingCut_4_029:
	BYTE		N10     As1   v088
	BYTE	W12
	BYTE		        Cn2 
	BYTE	W12
	BYTE		N10   
	BYTE	W12
	BYTE		N10   
	BYTE	W12
	BYTE		        Dn2 
	BYTE	W12
	BYTE		N10   
	BYTE	W12
	BYTE		        En2 
	BYTE	W12
	BYTE		N10   
	BYTE	W12
	BYTE	PEND
// 030   ----------------------------------------
FirstCampaingCut_4_030:
	BYTE		N10     An1   v088
	BYTE	W12
	BYTE		N10   
	BYTE	W24
	BYTE		N10   
	BYTE	W12
	BYTE		N10   
	BYTE	W24
	BYTE		N10   
	BYTE	W12
	BYTE		N10   
	BYTE	W12
	BYTE	PEND
// 031   ----------------------------------------
FirstCampaingCut_4_031:
	BYTE	W12
	BYTE		N11     Gn1   v088
	BYTE	W12
	BYTE		        An1 
	BYTE	W12
	BYTE		        Cn2 
	BYTE	W12
	BYTE		        Fn2 
	BYTE	W12
	BYTE		        En2 
	BYTE	W12
	BYTE		        Dn2 
	BYTE	W12
	BYTE		        Cn2 
	BYTE	W12
	BYTE	PEND
// 032   ----------------------------------------
	BYTE	PATT
	 POIN2	FirstCampaingCut_4_001
// 033   ----------------------------------------
	BYTE	PATT
	 POIN2	FirstCampaingCut_4_001
// 034   ----------------------------------------
	BYTE	PATT
	 POIN2	FirstCampaingCut_4_002
// 035   ----------------------------------------
	BYTE	PATT
	 POIN2	FirstCampaingCut_4_003
// 036   ----------------------------------------
	BYTE	PATT
	 POIN2	FirstCampaingCut_4_001
// 037   ----------------------------------------
	BYTE	PATT
	 POIN2	FirstCampaingCut_4_001
// 038   ----------------------------------------
	BYTE	PATT
	 POIN2	FirstCampaingCut_4_006
// 039   ----------------------------------------
	BYTE	PATT
	 POIN2	FirstCampaingCut_4_002
// 040   ----------------------------------------
	BYTE	PATT
	 POIN2	FirstCampaingCut_4_001
// 041   ----------------------------------------
	BYTE	PATT
	 POIN2	FirstCampaingCut_4_001
// 042   ----------------------------------------
	BYTE	PATT
	 POIN2	FirstCampaingCut_4_002
// 043   ----------------------------------------
	BYTE	PATT
	 POIN2	FirstCampaingCut_4_003
// 044   ----------------------------------------
	BYTE	PATT
	 POIN2	FirstCampaingCut_4_001
// 045   ----------------------------------------
	BYTE	PATT
	 POIN2	FirstCampaingCut_4_001
// 046   ----------------------------------------
	BYTE	PATT
	 POIN2	FirstCampaingCut_4_006
// 047   ----------------------------------------
	BYTE	PATT
	 POIN2	FirstCampaingCut_4_002
// 048   ----------------------------------------
	BYTE	PATT
	 POIN2	FirstCampaingCut_4_001
// 049   ----------------------------------------
	BYTE	PATT
	 POIN2	FirstCampaingCut_4_017
// 050   ----------------------------------------
	BYTE	PATT
	 POIN2	FirstCampaingCut_4_018
// 051   ----------------------------------------
	BYTE	PATT
	 POIN2	FirstCampaingCut_4_002
// 052   ----------------------------------------
	BYTE	PATT
	 POIN2	FirstCampaingCut_4_001
// 053   ----------------------------------------
	BYTE	PATT
	 POIN2	FirstCampaingCut_4_017
// 054   ----------------------------------------
	BYTE	PATT
	 POIN2	FirstCampaingCut_4_018
// 055   ----------------------------------------
	BYTE	PATT
	 POIN2	FirstCampaingCut_4_002
// 056   ----------------------------------------
	BYTE	PATT
	 POIN2	FirstCampaingCut_4_024
// 057   ----------------------------------------
	BYTE	PATT
	 POIN2	FirstCampaingCut_4_025
// 058   ----------------------------------------
	BYTE	PATT
	 POIN2	FirstCampaingCut_4_024
// 059   ----------------------------------------
	BYTE	PATT
	 POIN2	FirstCampaingCut_4_025
// 060   ----------------------------------------
	BYTE	PATT
	 POIN2	FirstCampaingCut_4_028
// 061   ----------------------------------------
	BYTE	PATT
	 POIN2	FirstCampaingCut_4_029
// 062   ----------------------------------------
	BYTE	PATT
	 POIN2	FirstCampaingCut_4_030
// 063   ----------------------------------------
	BYTE	PATT
	 POIN2	FirstCampaingCut_4_031
// 064   ----------------------------------------
FirstCampaingCut_4_064:
	BYTE		N09     As1   v088
	BYTE	W12
	BYTE		N09   
	BYTE	W12
	BYTE		N09   
	BYTE	W12
	BYTE		N09   
	BYTE	W12
	BYTE		N09   
	BYTE	W12
	BYTE		N09   
	BYTE	W12
	BYTE		N09   
	BYTE	W12
	BYTE		N09   
	BYTE	W12
	BYTE	PEND
// 065   ----------------------------------------
FirstCampaingCut_4_065:
	BYTE		N09     As1   v088
	BYTE	W12
	BYTE		N09   
	BYTE	W12
	BYTE		N09   
	BYTE	W12
	BYTE		N09   
	BYTE	W12
	BYTE		N09   
	BYTE	W12
	BYTE		N09   
	BYTE	W12
	BYTE		        An1 
	BYTE	W12
	BYTE		        As1 
	BYTE	W12
	BYTE	PEND
// 066   ----------------------------------------
FirstCampaingCut_4_066:
	BYTE		N09     Cn2   v088
	BYTE	W12
	BYTE		N09   
	BYTE	W12
	BYTE		N09   
	BYTE	W12
	BYTE		N09   
	BYTE	W12
	BYTE		N09   
	BYTE	W12
	BYTE		N09   
	BYTE	W12
	BYTE		N09   
	BYTE	W12
	BYTE		N09   
	BYTE	W12
	BYTE	PEND
// 067   ----------------------------------------
	BYTE	PATT
	 POIN2	FirstCampaingCut_4_066
// 068   ----------------------------------------
FirstCampaingCut_4_068:
	BYTE		N09     Fn1   v088
	BYTE	W12
	BYTE		N09   
	BYTE	W12
	BYTE		N09   
	BYTE	W12
	BYTE		N09   
	BYTE	W12
	BYTE		N09   
	BYTE	W12
	BYTE		N09   
	BYTE	W12
	BYTE		N09   
	BYTE	W12
	BYTE		N09   
	BYTE	W12
	BYTE	PEND
// 069   ----------------------------------------
FirstCampaingCut_4_069:
	BYTE		N09     Fn1   v088
	BYTE	W12
	BYTE		N09   
	BYTE	W12
	BYTE		N09   
	BYTE	W12
	BYTE		N09   
	BYTE	W12
	BYTE		N09   
	BYTE	W12
	BYTE		N09   
	BYTE	W12
	BYTE		N09   
	BYTE	W12
	BYTE		        Gn1 
	BYTE	W12
	BYTE	PEND
// 070   ----------------------------------------
FirstCampaingCut_4_070:
	BYTE		N09     An1   v088
	BYTE	W12
	BYTE		N09   
	BYTE	W12
	BYTE		N09   
	BYTE	W12
	BYTE		N09   
	BYTE	W12
	BYTE		N09   
	BYTE	W12
	BYTE		N09   
	BYTE	W12
	BYTE		N09   
	BYTE	W12
	BYTE		N09   
	BYTE	W12
	BYTE	PEND
// 071   ----------------------------------------
FirstCampaingCut_4_071:
	BYTE		N09     An1   v088
	BYTE	W12
	BYTE		N09   
	BYTE	W12
	BYTE		        Gn1 
	BYTE	W12
	BYTE		        An1 
	BYTE	W12
	BYTE		        Cn2 
	BYTE	W12
	BYTE		        As1 
	BYTE	W12
	BYTE		        An1 
	BYTE	W12
	BYTE		        Gn1 
	BYTE	W12
	BYTE	PEND
// 072   ----------------------------------------
	BYTE	PATT
	 POIN2	FirstCampaingCut_4_064
// 073   ----------------------------------------
	BYTE	PATT
	 POIN2	FirstCampaingCut_4_065
// 074   ----------------------------------------
	BYTE	PATT
	 POIN2	FirstCampaingCut_4_066
// 075   ----------------------------------------
	BYTE	PATT
	 POIN2	FirstCampaingCut_4_066
// 076   ----------------------------------------
	BYTE	PATT
	 POIN2	FirstCampaingCut_4_068
// 077   ----------------------------------------
	BYTE	PATT
	 POIN2	FirstCampaingCut_4_069
// 078   ----------------------------------------
	BYTE	PATT
	 POIN2	FirstCampaingCut_4_070
// 079   ----------------------------------------
	BYTE	PATT
	 POIN2	FirstCampaingCut_4_071
// 080   ----------------------------------------
	BYTE	PATT
	 POIN2	FirstCampaingCut_4_064
// 081   ----------------------------------------
	BYTE	PATT
	 POIN2	FirstCampaingCut_4_065
// 082   ----------------------------------------
	BYTE	PATT
	 POIN2	FirstCampaingCut_4_066
// 083   ----------------------------------------
	BYTE	PATT
	 POIN2	FirstCampaingCut_4_066
// 084   ----------------------------------------
	BYTE	PATT
	 POIN2	FirstCampaingCut_4_068
// 085   ----------------------------------------
	BYTE	PATT
	 POIN2	FirstCampaingCut_4_069
// 086   ----------------------------------------
	BYTE	PATT
	 POIN2	FirstCampaingCut_4_070
// 087   ----------------------------------------
	BYTE	PATT
	 POIN2	FirstCampaingCut_4_071
// 088   ----------------------------------------
	BYTE	PATT
	 POIN2	FirstCampaingCut_4_064
// 089   ----------------------------------------
	BYTE	PATT
	 POIN2	FirstCampaingCut_4_065
// 090   ----------------------------------------
	BYTE	PATT
	 POIN2	FirstCampaingCut_4_066
// 091   ----------------------------------------
	BYTE	PATT
	 POIN2	FirstCampaingCut_4_066
// 092   ----------------------------------------
	BYTE	PATT
	 POIN2	FirstCampaingCut_4_068
// 093   ----------------------------------------
	BYTE	PATT
	 POIN2	FirstCampaingCut_4_069
// 094   ----------------------------------------
	BYTE	PATT
	 POIN2	FirstCampaingCut_4_070
// 095   ----------------------------------------
	BYTE	PATT
	 POIN2	FirstCampaingCut_4_071
// 096   ----------------------------------------
	BYTE	PATT
	 POIN2	FirstCampaingCut_4_064
// 097   ----------------------------------------
	BYTE	PATT
	 POIN2	FirstCampaingCut_4_064
// 098   ----------------------------------------
FirstCampaingCut_4_098:
	BYTE		N09     Cs2   v088
	BYTE	W12
	BYTE		N09   
	BYTE	W12
	BYTE		N09   
	BYTE	W12
	BYTE		N09   
	BYTE	W12
	BYTE		N09   
	BYTE	W12
	BYTE		N09   
	BYTE	W12
	BYTE		N09   
	BYTE	W12
	BYTE		N09   
	BYTE	W12
	BYTE	PEND
// 099   ----------------------------------------
	BYTE	PATT
	 POIN2	FirstCampaingCut_4_098
// 100   ----------------------------------------
FirstCampaingCut_4_100:
	BYTE		N09     Dn1   v088
	BYTE	W12
	BYTE		N09   
	BYTE	W12
	BYTE		N09   
	BYTE	W12
	BYTE		N09   
	BYTE	W12
	BYTE		N09   
	BYTE	W12
	BYTE		N09   
	BYTE	W12
	BYTE		N09   
	BYTE	W12
	BYTE		N09   
	BYTE	W12
	BYTE	PEND
// 101   ----------------------------------------
	BYTE	PATT
	 POIN2	FirstCampaingCut_4_100
// 102   ----------------------------------------
	BYTE	PATT
	 POIN2	FirstCampaingCut_4_100
// 103   ----------------------------------------
	BYTE		N09     Dn1   v088
	BYTE	W12
	BYTE		N09   
	BYTE	W12
	BYTE		N09   
	BYTE	W12
	BYTE		N09   
	BYTE	W12
	BYTE		N09   
	BYTE	W12
	BYTE		N09   
	BYTE	W12
	BYTE		N09   
	BYTE	W12
	BYTE		N09   
	BYTE	W09
	BYTE		VOL     58*FirstCampaingCut_mvl/mxv
	BYTE		PAN     c_v+0
	BYTE	W03
// 104   ----------------------------------------
	BYTE	W03
	BYTE	GoTo
	 POIN2	FirstCampaingCut_4_B1
FirstCampaingCut_4_B2:
	BYTE	FINE

//**************** Track 5 (Midi-Chn.6) ****************//

FirstCampaingCut_5:
	BYTE	KEYSH   FirstCampaingCut_key+0
FirstCampaingCut_5_B1:
// 000   ----------------------------------------
	BYTE		VOICE   4
	BYTE		VOL     29*FirstCampaingCut_mvl/mxv
	BYTE		PAN     c_v+61
	BYTE	W96
// 001   ----------------------------------------
	BYTE	W96
// 002   ----------------------------------------
	BYTE	W96
// 003   ----------------------------------------
	BYTE	W96
// 004   ----------------------------------------
	BYTE	W96
// 005   ----------------------------------------
	BYTE	W96
// 006   ----------------------------------------
	BYTE	W96
// 007   ----------------------------------------
	BYTE	W96
// 008   ----------------------------------------
	BYTE	W96
// 009   ----------------------------------------
	BYTE	W96
// 010   ----------------------------------------
	BYTE	W96
// 011   ----------------------------------------
	BYTE	W96
// 012   ----------------------------------------
	BYTE	W96
// 013   ----------------------------------------
	BYTE	W96
// 014   ----------------------------------------
	BYTE	W96
// 015   ----------------------------------------
	BYTE	W96
// 016   ----------------------------------------
	BYTE	W96
// 017   ----------------------------------------
	BYTE	W96
// 018   ----------------------------------------
	BYTE	W96
// 019   ----------------------------------------
	BYTE	W96
// 020   ----------------------------------------
	BYTE	W96
// 021   ----------------------------------------
	BYTE	W96
// 022   ----------------------------------------
	BYTE	W96
// 023   ----------------------------------------
	BYTE	W96
// 024   ----------------------------------------
	BYTE	W96
// 025   ----------------------------------------
	BYTE	W96
// 026   ----------------------------------------
	BYTE	W96
// 027   ----------------------------------------
	BYTE	W96
// 028   ----------------------------------------
FirstCampaingCut_5_028:
	BYTE		N06     Gn2   v092
	BYTE	W12
	BYTE		N06   
	BYTE	W12
	BYTE		        Gn3 
	BYTE	W12
	BYTE		        An2 
	BYTE	W12
	BYTE		N06   
	BYTE	W12
	BYTE		        An3 
	BYTE	W12
	BYTE		        As2 
	BYTE	W12
	BYTE		N06   
	BYTE	W12
	BYTE	PEND
// 029   ----------------------------------------
FirstCampaingCut_5_029:
	BYTE		N06     As3   v092
	BYTE	W12
	BYTE		        Cn3 
	BYTE	W12
	BYTE		N06   
	BYTE	W12
	BYTE		        Cn4 
	BYTE	W12
	BYTE		        Dn3 
	BYTE	W12
	BYTE		N06   
	BYTE	W12
	BYTE		        En4 
	BYTE	W12
	BYTE		        En3 
	BYTE	W12
	BYTE	PEND
// 030   ----------------------------------------
FirstCampaingCut_5_030:
	BYTE		N06     An3   v092
	BYTE	W12
	BYTE		        An2 
	BYTE	W12
	BYTE		N06   
	BYTE	W12
	BYTE		        An3 
	BYTE	W12
	BYTE		        An2 
	BYTE	W12
	BYTE		N05   
	BYTE	W12
	BYTE		N06     An3 
	BYTE	W12
	BYTE		        An2 
	BYTE	W12
	BYTE	PEND
// 031   ----------------------------------------
FirstCampaingCut_5_031:
	BYTE	W12
	BYTE		N11     Gn3   v092
	BYTE	W12
	BYTE		        An3 
	BYTE	W12
	BYTE		        Cn4 
	BYTE	W12
	BYTE		        Fn4 
	BYTE	W12
	BYTE		        En4 
	BYTE	W12
	BYTE		        Dn4 
	BYTE	W12
	BYTE		        Cn4 
	BYTE	W12
	BYTE	PEND
// 032   ----------------------------------------
	BYTE	W96
// 033   ----------------------------------------
	BYTE	W96
// 034   ----------------------------------------
	BYTE	W96
// 035   ----------------------------------------
	BYTE	W96
// 036   ----------------------------------------
	BYTE	W96
// 037   ----------------------------------------
	BYTE	W96
// 038   ----------------------------------------
	BYTE	W96
// 039   ----------------------------------------
	BYTE	W96
// 040   ----------------------------------------
	BYTE	W96
// 041   ----------------------------------------
	BYTE	W96
// 042   ----------------------------------------
	BYTE	W96
// 043   ----------------------------------------
	BYTE	W96
// 044   ----------------------------------------
	BYTE	W96
// 045   ----------------------------------------
	BYTE	W96
// 046   ----------------------------------------
	BYTE	W96
// 047   ----------------------------------------
	BYTE	W96
// 048   ----------------------------------------
	BYTE	W96
// 049   ----------------------------------------
	BYTE	W96
// 050   ----------------------------------------
	BYTE	W96
// 051   ----------------------------------------
	BYTE	W96
// 052   ----------------------------------------
	BYTE	W96
// 053   ----------------------------------------
	BYTE	W96
// 054   ----------------------------------------
	BYTE	W96
// 055   ----------------------------------------
	BYTE	W96
// 056   ----------------------------------------
	BYTE	W96
// 057   ----------------------------------------
	BYTE	W96
// 058   ----------------------------------------
	BYTE	W96
// 059   ----------------------------------------
	BYTE	W96
// 060   ----------------------------------------
	BYTE	PATT
	 POIN2	FirstCampaingCut_5_028
// 061   ----------------------------------------
	BYTE	PATT
	 POIN2	FirstCampaingCut_5_029
// 062   ----------------------------------------
	BYTE	PATT
	 POIN2	FirstCampaingCut_5_030
// 063   ----------------------------------------
	BYTE	PATT
	 POIN2	FirstCampaingCut_5_031
// 064   ----------------------------------------
	BYTE		TIE     As2   v076
	BYTE	W96
// 065   ----------------------------------------
	BYTE	W68
	BYTE	W03
	BYTE		EOT   
	BYTE	W01
	BYTE		N11     An2 
	BYTE	W12
	BYTE		        As2 
	BYTE	W12
// 066   ----------------------------------------
	BYTE		TIE     Cn3 
	BYTE	W96
// 067   ----------------------------------------
	BYTE	W44
	BYTE	W03
	BYTE		EOT   
	BYTE	W01
	BYTE		N44   
	BYTE	W48
// 068   ----------------------------------------
	BYTE		TIE     Fn3 
	BYTE	W96
// 069   ----------------------------------------
	BYTE	W44
	BYTE	W03
	BYTE		EOT   
	BYTE	W01
	BYTE		N32   
	BYTE	W36
	BYTE		N11     Gn3 
	BYTE	W12
// 070   ----------------------------------------
	BYTE		TIE     An3 
	BYTE	W96
// 071   ----------------------------------------
	BYTE	W23
	BYTE		EOT   
	BYTE	W01
	BYTE		N11     Gn3 
	BYTE	W12
	BYTE		        An3 
	BYTE	W12
	BYTE		        Cn4 
	BYTE	W12
	BYTE		        As3 
	BYTE	W12
	BYTE		        An3 
	BYTE	W12
	BYTE		        Gn3 
	BYTE	W12
// 072   ----------------------------------------
	BYTE		TIE     As2 
	BYTE	W96
// 073   ----------------------------------------
	BYTE	W68
	BYTE	W03
	BYTE		EOT   
	BYTE	W01
	BYTE		N11     An2 
	BYTE	W12
	BYTE		        As2 
	BYTE	W12
// 074   ----------------------------------------
	BYTE		TIE     Cn3 
	BYTE	W96
// 075   ----------------------------------------
	BYTE	W44
	BYTE	W03
	BYTE		EOT   
	BYTE	W01
	BYTE		N44   
	BYTE	W48
// 076   ----------------------------------------
	BYTE		TIE     Fn3 
	BYTE	W96
// 077   ----------------------------------------
	BYTE	W44
	BYTE	W03
	BYTE		EOT   
	BYTE	W01
	BYTE		N32   
	BYTE	W36
	BYTE		N11     Gn3 
	BYTE	W12
// 078   ----------------------------------------
	BYTE		TIE     An3 
	BYTE	W96
// 079   ----------------------------------------
	BYTE	W23
	BYTE		EOT   
	BYTE	W01
	BYTE		N11     Gn3 
	BYTE	W12
	BYTE		        An3 
	BYTE	W12
	BYTE		        Cn4 
	BYTE	W12
	BYTE		        As3 
	BYTE	W12
	BYTE		        An3 
	BYTE	W12
	BYTE		        Gn3 
	BYTE	W12
// 080   ----------------------------------------
	BYTE		TIE     As2 
	BYTE	W96
// 081   ----------------------------------------
	BYTE	W68
	BYTE	W03
	BYTE		EOT   
	BYTE	W01
	BYTE		N11     An2 
	BYTE	W12
	BYTE		        As2 
	BYTE	W12
// 082   ----------------------------------------
	BYTE		TIE     Cn3 
	BYTE	W96
// 083   ----------------------------------------
	BYTE	W44
	BYTE	W03
	BYTE		EOT   
	BYTE	W01
	BYTE		N44   
	BYTE	W48
// 084   ----------------------------------------
	BYTE		TIE     Fn3 
	BYTE	W96
// 085   ----------------------------------------
	BYTE	W44
	BYTE	W03
	BYTE		EOT   
	BYTE	W01
	BYTE		N32   
	BYTE	W36
	BYTE		N11     Gn3 
	BYTE	W12
// 086   ----------------------------------------
	BYTE		TIE     An3 
	BYTE	W96
// 087   ----------------------------------------
	BYTE	W23
	BYTE		EOT   
	BYTE	W01
	BYTE		N11     Gn3 
	BYTE	W12
	BYTE		        An3 
	BYTE	W12
	BYTE		        Cn4 
	BYTE	W12
	BYTE		        As3 
	BYTE	W12
	BYTE		        An3 
	BYTE	W12
	BYTE		        Gn3 
	BYTE	W12
// 088   ----------------------------------------
	BYTE		TIE     As2 
	BYTE	W96
// 089   ----------------------------------------
	BYTE	W68
	BYTE	W03
	BYTE		EOT   
	BYTE	W01
	BYTE		N11     An2 
	BYTE	W12
	BYTE		        As2 
	BYTE	W12
// 090   ----------------------------------------
	BYTE		TIE     Cn3 
	BYTE	W96
// 091   ----------------------------------------
	BYTE	W44
	BYTE	W03
	BYTE		EOT   
	BYTE	W01
	BYTE		N44   
	BYTE	W48
// 092   ----------------------------------------
	BYTE		TIE     Fn3 
	BYTE	W96
// 093   ----------------------------------------
	BYTE	W44
	BYTE	W03
	BYTE		EOT   
	BYTE	W01
	BYTE		N32   
	BYTE	W36
	BYTE		N11     Gn3 
	BYTE	W12
// 094   ----------------------------------------
	BYTE		TIE     An3 
	BYTE	W96
// 095   ----------------------------------------
	BYTE	W23
	BYTE		EOT   
	BYTE	W01
	BYTE		N11     Gn3 
	BYTE	W12
	BYTE		        An3 
	BYTE	W12
	BYTE		        Cn4 
	BYTE	W12
	BYTE		        As3 
	BYTE	W12
	BYTE		        An3 
	BYTE	W12
	BYTE		        Gn3 
	BYTE	W12
// 096   ----------------------------------------
	BYTE		        As3 
	BYTE	W12
	BYTE		N05     Fn3 
	BYTE	W12
	BYTE		N11   
	BYTE	W12
	BYTE		        As3 
	BYTE	W12
	BYTE		N05     Fn3 
	BYTE	W12
	BYTE		N11   
	BYTE	W12
	BYTE		        As3 
	BYTE	W12
	BYTE		N05     Fn3 
	BYTE	W12
// 097   ----------------------------------------
	BYTE		N11   
	BYTE	W12
	BYTE		        As3 
	BYTE	W12
	BYTE		N05     Fn3 
	BYTE	W12
	BYTE		N11   
	BYTE	W12
	BYTE		        As3 
	BYTE	W12
	BYTE		N05     Fn3 
	BYTE	W12
	BYTE		N11   
	BYTE	W12
	BYTE		        As3 
	BYTE	W12
// 098   ----------------------------------------
	BYTE		        Cs4 
	BYTE	W12
	BYTE		N05     Gs3 
	BYTE	W12
	BYTE		N11   
	BYTE	W12
	BYTE		        Cs4 
	BYTE	W12
	BYTE		N05     Gs3 
	BYTE	W12
	BYTE		N11   
	BYTE	W12
	BYTE		        Cs4 
	BYTE	W12
	BYTE		N05     Gs3 
	BYTE	W12
// 099   ----------------------------------------
	BYTE		N11   
	BYTE	W12
	BYTE		        Cs4 
	BYTE	W12
	BYTE		N05     Gs3 
	BYTE	W12
	BYTE		N11   
	BYTE	W12
	BYTE		        Cs4 
	BYTE	W12
	BYTE		N05     Gs3 
	BYTE	W12
	BYTE		N11   
	BYTE	W12
	BYTE		        Cs4 
	BYTE	W12
// 100   ----------------------------------------
FirstCampaingCut_5_100:
	BYTE		N11     Dn4   v076
	BYTE	W12
	BYTE		N05     An3 
	BYTE	W12
	BYTE		N11   
	BYTE	W12
	BYTE		        Dn4 
	BYTE	W12
	BYTE		N05     An3 
	BYTE	W12
	BYTE		N11   
	BYTE	W12
	BYTE		        Dn4 
	BYTE	W12
	BYTE		N05     An3 
	BYTE	W12
	BYTE	PEND
// 101   ----------------------------------------
	BYTE		N11   
	BYTE	W12
	BYTE		        Dn4 
	BYTE	W12
	BYTE		N05     An3 
	BYTE	W12
	BYTE		N11   
	BYTE	W12
	BYTE		        Dn4 
	BYTE	W12
	BYTE		N05     An3 
	BYTE	W12
	BYTE		N11   
	BYTE	W12
	BYTE		        Dn4 
	BYTE	W12
// 102   ----------------------------------------
	BYTE	PATT
	 POIN2	FirstCampaingCut_5_100
// 103   ----------------------------------------
	BYTE		N11     An3   v076
	BYTE	W12
	BYTE		        Dn4 
	BYTE	W12
	BYTE		N05     An3 
	BYTE	W12
	BYTE		N11   
	BYTE	W12
	BYTE		        Dn4 
	BYTE	W12
	BYTE		N05     An3 
	BYTE	W12
	BYTE		N11   
	BYTE	W12
	BYTE		        Dn4 
	BYTE	W11
	BYTE		VOL     29*FirstCampaingCut_mvl/mxv
	BYTE		PAN     c_v+61
	BYTE	W01
// 104   ----------------------------------------
	BYTE	W03
	BYTE	GoTo
	 POIN2	FirstCampaingCut_5_B1
FirstCampaingCut_5_B2:
	BYTE	FINE

//**************** Track 6 (Midi-Chn.7) ****************//

FirstCampaingCut_6:
	BYTE	KEYSH   FirstCampaingCut_key+0
FirstCampaingCut_6_B1:
// 000   ----------------------------------------
	BYTE		VOICE   44
	BYTE		VOL     57*FirstCampaingCut_mvl/mxv
	BYTE		PAN     c_v+0
	BYTE		VOL     57*FirstCampaingCut_mvl/mxv
	BYTE	W12
	BYTE		N11     An2   v108
	BYTE	W12
	BYTE		N05     Cn3 
	BYTE	W12
	BYTE		        Dn3 
	BYTE	W12
	BYTE		N32     Gn3 
	BYTE	W36
	BYTE		        Fn3 
	BYTE	W12
// 001   ----------------------------------------
FirstCampaingCut_6_001:
	BYTE	W24
	BYTE		N32     Dn3   v108
	BYTE	W36
	BYTE		        Cn3 
	BYTE	W36
	BYTE	PEND
// 002   ----------------------------------------
FirstCampaingCut_6_002:
	BYTE		N56     An2   v108
	BYTE	W72
	BYTE		N05     Cn3 
	BYTE	W12
	BYTE		N44     Gn2 
	BYTE	W12
	BYTE	PEND
// 003   ----------------------------------------
	BYTE	W36
	BYTE		        Fn2 
	BYTE	W60
// 004   ----------------------------------------
FirstCampaingCut_6_004:
	BYTE	W12
	BYTE		N11     An2   v108
	BYTE	W12
	BYTE		N05     Cn3 
	BYTE	W12
	BYTE		        Dn3 
	BYTE	W12
	BYTE		N32     Gn3 
	BYTE	W36
	BYTE		        Fn3 
	BYTE	W12
	BYTE	PEND
// 005   ----------------------------------------
FirstCampaingCut_6_005:
	BYTE	W24
	BYTE		N32     Dn3   v108
	BYTE	W36
	BYTE		        Cn4 
	BYTE	W36
	BYTE	PEND
// 006   ----------------------------------------
FirstCampaingCut_6_006:
	BYTE		N56     An3   v108
	BYTE	W72
	BYTE	W01
	BYTE		N06   
	BYTE	W04
	BYTE		N09     As3 
	BYTE	W07
	BYTE		N44     An3 
	BYTE	W12
	BYTE	PEND
// 007   ----------------------------------------
	BYTE	W36
	BYTE		N42     Gn3 
	BYTE	W60
// 008   ----------------------------------------
	BYTE	PATT
	 POIN2	FirstCampaingCut_6_004
// 009   ----------------------------------------
	BYTE	PATT
	 POIN2	FirstCampaingCut_6_001
// 010   ----------------------------------------
	BYTE	PATT
	 POIN2	FirstCampaingCut_6_002
// 011   ----------------------------------------
	BYTE	W36
	BYTE		N44     Fn2   v108
	BYTE	W60
// 012   ----------------------------------------
	BYTE	PATT
	 POIN2	FirstCampaingCut_6_004
// 013   ----------------------------------------
	BYTE	PATT
	 POIN2	FirstCampaingCut_6_005
// 014   ----------------------------------------
	BYTE	PATT
	 POIN2	FirstCampaingCut_6_006
// 015   ----------------------------------------
	BYTE	W36
	BYTE		N42     Gn3   v108
	BYTE	W60
// 016   ----------------------------------------
FirstCampaingCut_6_016:
	BYTE		N11     Fn3   v108
	BYTE	W12
	BYTE		        Gn3 
	BYTE	W12
	BYTE		        An3 
	BYTE	W12
	BYTE		N17     Dn3 
	BYTE	W24
	BYTE		N08   
	BYTE	W12
	BYTE		N11     Cn3 
	BYTE	W12
	BYTE		N32     Dn3 
	BYTE	W12
	BYTE	PEND
// 017   ----------------------------------------
FirstCampaingCut_6_017:
	BYTE	W24
	BYTE		N11     An2   v108
	BYTE	W12
	BYTE		N23     Cn3 
	BYTE	W24
	BYTE		        Dn3 
	BYTE	W36
	BYTE	PEND
// 018   ----------------------------------------
FirstCampaingCut_6_018:
	BYTE		N11     Fn3   v108
	BYTE	W12
	BYTE		        Gn3 
	BYTE	W12
	BYTE		        An3 
	BYTE	W12
	BYTE		N20     Dn3 
	BYTE	W24
	BYTE		N08   
	BYTE	W12
	BYTE		N11     Cn3 
	BYTE	W12
	BYTE		N32     Dn3 
	BYTE	W12
	BYTE	PEND
// 019   ----------------------------------------
FirstCampaingCut_6_019:
	BYTE	W24
	BYTE		N11     An2   v108
	BYTE	W12
	BYTE		N23     Gn2 
	BYTE	W24
	BYTE		        An2 
	BYTE	W36
	BYTE	PEND
// 020   ----------------------------------------
FirstCampaingCut_6_020:
	BYTE		N15     Fn3   v108
	BYTE	W12
	BYTE		        Gn3 
	BYTE	W12
	BYTE		N13     An3 
	BYTE	W12
	BYTE		N20     Dn3 
	BYTE	W24
	BYTE		N08   
	BYTE	W12
	BYTE		N11     Cn3 
	BYTE	W12
	BYTE		N32     Dn3 
	BYTE	W12
	BYTE	PEND
// 021   ----------------------------------------
	BYTE	PATT
	 POIN2	FirstCampaingCut_6_017
// 022   ----------------------------------------
FirstCampaingCut_6_022:
	BYTE		N15     Fn3   v108
	BYTE	W12
	BYTE		        Gn3 
	BYTE	W12
	BYTE		N13     An3 
	BYTE	W12
	BYTE		N20     Dn3 
	BYTE	W24
	BYTE		N08   
	BYTE	W12
	BYTE		N17     Cn4 
	BYTE	W12
	BYTE		N32     Dn4 
	BYTE	W12
	BYTE	PEND
// 023   ----------------------------------------
FirstCampaingCut_6_023:
	BYTE	W24
	BYTE		N11     An3   v108
	BYTE	W12
	BYTE		N20     Gn3 
	BYTE	W24
	BYTE		N11     Dn3 
	BYTE	W12
	BYTE		N05     Fn3 
	BYTE	W12
	BYTE		        Gn3 
	BYTE	W12
	BYTE	PEND
// 024   ----------------------------------------
FirstCampaingCut_6_024:
	BYTE		N32     An3   v108
	BYTE	W36
	BYTE		        Gn3 
	BYTE	W36
	BYTE		N11     Dn3 
	BYTE	W24
	BYTE	PEND
// 025   ----------------------------------------
FirstCampaingCut_6_025:
	BYTE		N32     Fn3   v108
	BYTE	W36
	BYTE		        Dn3 
	BYTE	W60
	BYTE	PEND
// 026   ----------------------------------------
	BYTE	PATT
	 POIN2	FirstCampaingCut_6_024
// 027   ----------------------------------------
FirstCampaingCut_6_027:
	BYTE		N36     Fn3   v108
	BYTE	W36
	BYTE		N32     Dn3 
	BYTE	W60
	BYTE	PEND
// 028   ----------------------------------------
FirstCampaingCut_6_028:
	BYTE		N11     As3   v108
	BYTE	W12
	BYTE		N05     An3 
	BYTE	W12
	BYTE		N03     Gn3 
	BYTE	W12
	BYTE		N11     An3 
	BYTE	W12
	BYTE		N05     Gn3 
	BYTE	W12
	BYTE		N03     Fn3 
	BYTE	W12
	BYTE		N11     Gn3 
	BYTE	W12
	BYTE		N05     Fn3 
	BYTE	W12
	BYTE	PEND
// 029   ----------------------------------------
FirstCampaingCut_6_029:
	BYTE		N03     En3   v108
	BYTE	W12
	BYTE		N11     Fn3 
	BYTE	W12
	BYTE		N05     En3 
	BYTE	W12
	BYTE		N03     Dn3 
	BYTE	W12
	BYTE		N11     En3 
	BYTE	W12
	BYTE		N05     Dn3 
	BYTE	W12
	BYTE		N03     Cn3 
	BYTE	W12
	BYTE		        As2 
	BYTE	W12
	BYTE	PEND
// 030   ----------------------------------------
	BYTE	W96
// 031   ----------------------------------------
	BYTE	W96
// 032   ----------------------------------------
	BYTE	PATT
	 POIN2	FirstCampaingCut_6_004
// 033   ----------------------------------------
	BYTE	PATT
	 POIN2	FirstCampaingCut_6_001
// 034   ----------------------------------------
	BYTE	PATT
	 POIN2	FirstCampaingCut_6_002
// 035   ----------------------------------------
	BYTE	W36
	BYTE		N44     Fn2   v108
	BYTE	W60
// 036   ----------------------------------------
	BYTE	PATT
	 POIN2	FirstCampaingCut_6_004
// 037   ----------------------------------------
	BYTE	PATT
	 POIN2	FirstCampaingCut_6_005
// 038   ----------------------------------------
	BYTE	PATT
	 POIN2	FirstCampaingCut_6_006
// 039   ----------------------------------------
	BYTE	W36
	BYTE		N42     Gn3   v108
	BYTE	W60
// 040   ----------------------------------------
	BYTE	PATT
	 POIN2	FirstCampaingCut_6_004
// 041   ----------------------------------------
	BYTE	PATT
	 POIN2	FirstCampaingCut_6_001
// 042   ----------------------------------------
	BYTE	PATT
	 POIN2	FirstCampaingCut_6_002
// 043   ----------------------------------------
	BYTE	W36
	BYTE		N44     Fn2   v108
	BYTE	W60
// 044   ----------------------------------------
	BYTE	PATT
	 POIN2	FirstCampaingCut_6_004
// 045   ----------------------------------------
	BYTE	PATT
	 POIN2	FirstCampaingCut_6_005
// 046   ----------------------------------------
	BYTE	PATT
	 POIN2	FirstCampaingCut_6_006
// 047   ----------------------------------------
	BYTE	W36
	BYTE		N42     Gn3   v108
	BYTE	W60
// 048   ----------------------------------------
	BYTE	PATT
	 POIN2	FirstCampaingCut_6_016
// 049   ----------------------------------------
	BYTE	PATT
	 POIN2	FirstCampaingCut_6_017
// 050   ----------------------------------------
	BYTE	PATT
	 POIN2	FirstCampaingCut_6_018
// 051   ----------------------------------------
	BYTE	PATT
	 POIN2	FirstCampaingCut_6_019
// 052   ----------------------------------------
	BYTE	PATT
	 POIN2	FirstCampaingCut_6_020
// 053   ----------------------------------------
	BYTE	PATT
	 POIN2	FirstCampaingCut_6_017
// 054   ----------------------------------------
	BYTE	PATT
	 POIN2	FirstCampaingCut_6_022
// 055   ----------------------------------------
	BYTE	PATT
	 POIN2	FirstCampaingCut_6_023
// 056   ----------------------------------------
	BYTE	PATT
	 POIN2	FirstCampaingCut_6_024
// 057   ----------------------------------------
	BYTE	PATT
	 POIN2	FirstCampaingCut_6_025
// 058   ----------------------------------------
	BYTE	PATT
	 POIN2	FirstCampaingCut_6_024
// 059   ----------------------------------------
	BYTE	PATT
	 POIN2	FirstCampaingCut_6_027
// 060   ----------------------------------------
	BYTE	PATT
	 POIN2	FirstCampaingCut_6_028
// 061   ----------------------------------------
	BYTE	PATT
	 POIN2	FirstCampaingCut_6_029
// 062   ----------------------------------------
	BYTE	W96
// 063   ----------------------------------------
	BYTE	W96
// 064   ----------------------------------------
FirstCampaingCut_6_064:
	BYTE		N10     Gn3   v108
	BYTE	W12
	BYTE		N12     Gn2 
	BYTE	W12
	BYTE		N14     Cn3 
	BYTE	W12
	BYTE		N13     Fn3 
	BYTE	W12
	BYTE		N14     Gn2 
	BYTE	W12
	BYTE		N13     Cn3 
	BYTE	W12
	BYTE		N11     Gn3 
	BYTE	W12
	BYTE		N12     Gn2 
	BYTE	W12
	BYTE	PEND
// 065   ----------------------------------------
FirstCampaingCut_6_065:
	BYTE		N15     Cn3   v108
	BYTE	W12
	BYTE		N11     Fn3 
	BYTE	W12
	BYTE		N15     Gn2 
	BYTE	W12
	BYTE		N13     Cn3 
	BYTE	W12
	BYTE		N08     Gn3 
	BYTE	W12
	BYTE		N12     Gn2 
	BYTE	W12
	BYTE		N10     Fn3 
	BYTE	W12
	BYTE		N09     Gn2 
	BYTE	W12
	BYTE	PEND
// 066   ----------------------------------------
	BYTE	PATT
	 POIN2	FirstCampaingCut_6_064
// 067   ----------------------------------------
	BYTE	PATT
	 POIN2	FirstCampaingCut_6_065
// 068   ----------------------------------------
FirstCampaingCut_6_068:
	BYTE		N11     An3   v108
	BYTE	W12
	BYTE		        As3 
	BYTE	W12
	BYTE		        An3 
	BYTE	W11
	BYTE		N07     Fn3 
	BYTE	W24
	BYTE	W01
	BYTE		N11     Cn3 
	BYTE	W12
	BYTE		N05     Dn3 
	BYTE	W12
	BYTE		N56     Cn3 
	BYTE	W12
	BYTE	PEND
// 069   ----------------------------------------
	BYTE	W60
	BYTE		N11   
	BYTE	W12
	BYTE		N05     Fn3 
	BYTE	W12
	BYTE		N04     Gn3 
	BYTE	W12
// 070   ----------------------------------------
	BYTE		N11     An3 
	BYTE	W12
	BYTE		        As3 
	BYTE	W12
	BYTE		        An3 
	BYTE	W12
	BYTE		N07     Fn3 
	BYTE	W24
	BYTE		N11     Dn4 
	BYTE	W12
	BYTE		N92     Cn4 
	BYTE	W24
// 071   ----------------------------------------
	BYTE	W96
// 072   ----------------------------------------
	BYTE	PATT
	 POIN2	FirstCampaingCut_6_064
// 073   ----------------------------------------
	BYTE	PATT
	 POIN2	FirstCampaingCut_6_065
// 074   ----------------------------------------
	BYTE	PATT
	 POIN2	FirstCampaingCut_6_064
// 075   ----------------------------------------
	BYTE	PATT
	 POIN2	FirstCampaingCut_6_065
// 076   ----------------------------------------
	BYTE	PATT
	 POIN2	FirstCampaingCut_6_068
// 077   ----------------------------------------
	BYTE	W60
	BYTE		N11     An3   v108
	BYTE	W12
	BYTE		N05     As3 
	BYTE	W12
	BYTE		N04     An3 
	BYTE	W12
// 078   ----------------------------------------
	BYTE		N11     Dn4 
	BYTE	W12
	BYTE		N06     Cn4 
	BYTE	W12
	BYTE		N04     Fn3 
	BYTE	W12
	BYTE		N11     Dn4 
	BYTE	W12
	BYTE		N12     Cn4 
	BYTE	W12
	BYTE		N15     Fn4 
	BYTE	W12
	BYTE		N13     En4 
	BYTE	W12
	BYTE		N56     Cn4 
	BYTE	W12
// 079   ----------------------------------------
	BYTE	W60
	BYTE		N13     An3 
	BYTE	W12
	BYTE		N14     As3 
	BYTE	W12
	BYTE		N24     Cn4 
	BYTE	W12
// 080   ----------------------------------------
FirstCampaingCut_6_080:
	BYTE	W12
	BYTE		N09     Fn3   v108
	BYTE	W12
	BYTE		N13     Gn3 
	BYTE	W12
	BYTE		        Cn4 
	BYTE	W12
	BYTE		N15     Fn3 
	BYTE	W12
	BYTE		N14     Gn3 
	BYTE	W12
	BYTE		N15     Cn4 
	BYTE	W12
	BYTE		N13     Fn3 
	BYTE	W12
	BYTE	PEND
// 081   ----------------------------------------
	BYTE		N12     Gn3 
	BYTE	W12
	BYTE		N14     Dn4 
	BYTE	W12
	BYTE		N12     Cn4 
	BYTE	W12
	BYTE		        Fn3 
	BYTE	W24
	BYTE		N12   
	BYTE	W12
	BYTE		        Gn3 
	BYTE	W12
	BYTE		N24     Cn4 
	BYTE	W12
// 082   ----------------------------------------
	BYTE	PATT
	 POIN2	FirstCampaingCut_6_080
// 083   ----------------------------------------
	BYTE		N12     Gn3   v108
	BYTE	W12
	BYTE		N14     Dn4 
	BYTE	W12
	BYTE		N12     Cn4 
	BYTE	W12
	BYTE		        Fn3 
	BYTE	W24
	BYTE		N11     An3 
	BYTE	W12
	BYTE		N15     As3 
	BYTE	W12
	BYTE		N36     Cn4 
	BYTE	W12
// 084   ----------------------------------------
FirstCampaingCut_6_084:
	BYTE	W24
	BYTE		N13     Fn3   v108
	BYTE	W24
	BYTE		N11     En3 
	BYTE	W12
	BYTE		N07     Fn3 
	BYTE	W24
	BYTE		N56     Cn4 
	BYTE	W12
	BYTE	PEND
// 085   ----------------------------------------
	BYTE	W60
	BYTE		N11   
	BYTE	W12
	BYTE		        Dn4 
	BYTE	W12
	BYTE		N32     Cn4 
	BYTE	W12
// 086   ----------------------------------------
	BYTE	W24
	BYTE		N11     Fn4 
	BYTE	W24
	BYTE		N12     En4 
	BYTE	W12
	BYTE		N07     Cn4 
	BYTE	W24
	BYTE		N23     An3 
	BYTE	W12
// 087   ----------------------------------------
	BYTE	W12
	BYTE		N11     As3 
	BYTE	W12
	BYTE		N09     Dn4 
	BYTE	W12
	BYTE		N23     Cn4 
	BYTE	W24
	BYTE		N11     Fn3 
	BYTE	W12
	BYTE		        En3 
	BYTE	W12
	BYTE		        Fn3 
	BYTE	W12
// 088   ----------------------------------------
FirstCampaingCut_6_088:
	BYTE		N11     Cn4   v108
	BYTE	W12
	BYTE		        En3 
	BYTE	W12
	BYTE		        Fn3 
	BYTE	W12
	BYTE		        Cn4 
	BYTE	W12
	BYTE		        En3 
	BYTE	W12
	BYTE		        Fn3 
	BYTE	W12
	BYTE		        Cn4 
	BYTE	W12
	BYTE		        En3 
	BYTE	W12
	BYTE	PEND
// 089   ----------------------------------------
	BYTE		        Fn3 
	BYTE	W12
	BYTE		        Cn4 
	BYTE	W12
	BYTE		        Dn4 
	BYTE	W12
	BYTE		        Cn4 
	BYTE	W24
	BYTE		        Fn3 
	BYTE	W12
	BYTE		        En3 
	BYTE	W12
	BYTE		        Fn3 
	BYTE	W12
// 090   ----------------------------------------
	BYTE	PATT
	 POIN2	FirstCampaingCut_6_088
// 091   ----------------------------------------
	BYTE		N11     Fn3   v108
	BYTE	W12
	BYTE		        Cn4 
	BYTE	W12
	BYTE		        Dn4 
	BYTE	W12
	BYTE		        Cn4 
	BYTE	W24
	BYTE		        An3 
	BYTE	W12
	BYTE		N15     As3 
	BYTE	W12
	BYTE		N36     Cn4 
	BYTE	W12
// 092   ----------------------------------------
	BYTE	PATT
	 POIN2	FirstCampaingCut_6_084
// 093   ----------------------------------------
	BYTE	W60
	BYTE		N15     Cn4   v108
	BYTE	W12
	BYTE		N14     Dn4 
	BYTE	W12
	BYTE		N36     Cn4 
	BYTE	W12
// 094   ----------------------------------------
	BYTE	W24
	BYTE		N12     Fn4 
	BYTE	W24
	BYTE		N14     Gn4 
	BYTE	W12
	BYTE		N09     Cn4 
	BYTE	W24
	BYTE		N24     An4 
	BYTE	W12
// 095   ----------------------------------------
	BYTE	W12
	BYTE		N07     As4 
	BYTE	W12
	BYTE		N05     An4 
	BYTE	W12
	BYTE		N24     Gn4 
	BYTE	W24
	BYTE		N11     As4 
	BYTE	W12
	BYTE		N08     An4 
	BYTE	W12
	BYTE		N68     Fn4 
	BYTE	W12
// 096   ----------------------------------------
	BYTE	W60
	BYTE		N15     Cn4 
	BYTE	W24
	BYTE		N23     Fn4 
	BYTE	W12
// 097   ----------------------------------------
	BYTE	W12
	BYTE		N07     Gn4 
	BYTE	W12
	BYTE		N40     Fn4 
	BYTE	W72
// 098   ----------------------------------------
	BYTE		N56   
	BYTE	W72
	BYTE		N02     Gn4   v080
	BYTE	W03
	BYTE		N05     Gs4   v100
	BYTE	W09
	BYTE		N17     Gn4   v108
	BYTE	W12
// 099   ----------------------------------------
	BYTE	W12
	BYTE		N14     Fn4   v100
	BYTE	W24
	BYTE		N05   
	BYTE	W12
	BYTE		N02   
	BYTE	W03
	BYTE		N14     Gn4   v096
	BYTE	W09
	BYTE		N11     Fn4   v092
	BYTE	W12
	BYTE		N14     Gn4   v088
	BYTE	W12
	BYTE		N06     Fn4   v104
	BYTE	W12
// 100   ----------------------------------------
	BYTE	W12
	BYTE		N05     Cn4   v100
	BYTE	W12
	BYTE		N02   
	BYTE	W03
	BYTE		N72     Dn4   v108
	BYTE	W68
	BYTE	W01
// 101   ----------------------------------------
	BYTE	W06
	BYTE		N05     Cn4 
	BYTE	W06
	BYTE		        Fn4 
	BYTE	W06
	BYTE		        Dn4 
	BYTE	W06
	BYTE		        Cn4 
	BYTE	W06
	BYTE		        An3 
	BYTE	W06
	BYTE		        Dn4 
	BYTE	W06
	BYTE		        Cn4 
	BYTE	W06
	BYTE		        An3 
	BYTE	W06
	BYTE		        Fn3 
	BYTE	W06
	BYTE		        Cn4 
	BYTE	W06
	BYTE		        An3 
	BYTE	W06
	BYTE		        Fn3 
	BYTE	W06
	BYTE		        Dn3 
	BYTE	W06
	BYTE		        Gn3 
	BYTE	W06
	BYTE		        Fn3 
	BYTE	W06
// 102   ----------------------------------------
	BYTE		        Dn3 
	BYTE	W06
	BYTE		        Cn3 
	BYTE	W06
	BYTE		        An2 
	BYTE	W06
	BYTE		        Gn2 
	BYTE	W06
	BYTE		        Fn2 
	BYTE	W06
	BYTE		        An2 
	BYTE	W06
	BYTE		        Cn3 
	BYTE	W06
	BYTE		        Dn3 
	BYTE	W06
	BYTE		        An2 
	BYTE	W06
	BYTE		        Cn3 
	BYTE	W06
	BYTE		        Dn3 
	BYTE	W06
	BYTE		        Fn3 
	BYTE	W06
	BYTE		        Dn3 
	BYTE	W06
	BYTE		        Fn3 
	BYTE	W06
	BYTE		        Gn3 
	BYTE	W06
	BYTE		        An3 
	BYTE	W06
// 103   ----------------------------------------
	BYTE		        Fn3 
	BYTE	W06
	BYTE		        An3 
	BYTE	W06
	BYTE		        Cn4 
	BYTE	W06
	BYTE		        Dn4 
	BYTE	W06
	BYTE		        Fn4 
	BYTE	W06
	BYTE		        Dn4 
	BYTE	W06
	BYTE		        Fn4 
	BYTE	W06
	BYTE		        Gn4 
	BYTE	W06
	BYTE		        An4 
	BYTE	W06
	BYTE		        Fn4 
	BYTE	W06
	BYTE		        Gn4 
	BYTE	W06
	BYTE		        An4 
	BYTE	W06
	BYTE		        Cn5 
	BYTE	W06
	BYTE		        An4 
	BYTE	W06
	BYTE		        Cn5 
	BYTE	W06
	BYTE		        Dn5 
	BYTE	W05
	BYTE		PAN     c_v+0
	BYTE	W01
// 104   ----------------------------------------
	BYTE	W03
	BYTE	GoTo
	 POIN2	FirstCampaingCut_6_B1
FirstCampaingCut_6_B2:
	BYTE	FINE

//**************** Track 7 (Midi-Chn.8) ****************//

FirstCampaingCut_7:
	BYTE	KEYSH   FirstCampaingCut_key+0
FirstCampaingCut_7_B1:
// 000   ----------------------------------------
	BYTE		VOICE   44
	BYTE		VOL     30*FirstCampaingCut_mvl/mxv
	BYTE		PAN     c_v-61
	BYTE	W06
	BYTE		BEND    c_v+1
	BYTE	W16
	BYTE		N11     An2   v100
	BYTE	W12
	BYTE		N05     Cn3 
	BYTE	W12
	BYTE		        Dn3 
	BYTE	W12
	BYTE		N32     Gn3 
	BYTE	W36
	BYTE		        Fn3 
	BYTE	W02
// 001   ----------------------------------------
FirstCampaingCut_7_001:
	BYTE	W32
	BYTE	W02
	BYTE		N32     Dn3   v100
	BYTE	W36
	BYTE		        Cn3 
	BYTE	W24
	BYTE	W02
	BYTE	PEND
// 002   ----------------------------------------
FirstCampaingCut_7_002:
	BYTE	W10
	BYTE		N56     An2   v100
	BYTE	W72
	BYTE		N05     Cn3 
	BYTE	W12
	BYTE		N44     Gn2 
	BYTE	W02
	BYTE	PEND
// 003   ----------------------------------------
FirstCampaingCut_7_003:
	BYTE	W44
	BYTE	W02
	BYTE		N44     Fn2   v100
	BYTE	W48
	BYTE	W02
	BYTE	PEND
// 004   ----------------------------------------
FirstCampaingCut_7_004:
	BYTE	W22
	BYTE		N11     An2   v100
	BYTE	W12
	BYTE		N05     Cn3 
	BYTE	W12
	BYTE		        Dn3 
	BYTE	W12
	BYTE		N32     Gn3 
	BYTE	W36
	BYTE		        Fn3 
	BYTE	W02
	BYTE	PEND
// 005   ----------------------------------------
FirstCampaingCut_7_005:
	BYTE	W32
	BYTE	W02
	BYTE		N32     Dn3   v100
	BYTE	W36
	BYTE		        Cn4 
	BYTE	W24
	BYTE	W02
	BYTE	PEND
// 006   ----------------------------------------
FirstCampaingCut_7_006:
	BYTE	W10
	BYTE		N56     An3   v100
	BYTE	W72
	BYTE	W02
	BYTE		N06   
	BYTE	W04
	BYTE		N09     As3 
	BYTE	W06
	BYTE		N44     An3 
	BYTE	W02
	BYTE	PEND
// 007   ----------------------------------------
FirstCampaingCut_7_007:
	BYTE	W44
	BYTE	W02
	BYTE		N42     Gn3   v100
	BYTE	W48
	BYTE	W02
	BYTE	PEND
// 008   ----------------------------------------
	BYTE	PATT
	 POIN2	FirstCampaingCut_7_004
// 009   ----------------------------------------
	BYTE	PATT
	 POIN2	FirstCampaingCut_7_001
// 010   ----------------------------------------
	BYTE	PATT
	 POIN2	FirstCampaingCut_7_002
// 011   ----------------------------------------
	BYTE	PATT
	 POIN2	FirstCampaingCut_7_003
// 012   ----------------------------------------
	BYTE	PATT
	 POIN2	FirstCampaingCut_7_004
// 013   ----------------------------------------
	BYTE	PATT
	 POIN2	FirstCampaingCut_7_005
// 014   ----------------------------------------
	BYTE	PATT
	 POIN2	FirstCampaingCut_7_006
// 015   ----------------------------------------
	BYTE	PATT
	 POIN2	FirstCampaingCut_7_007
// 016   ----------------------------------------
FirstCampaingCut_7_016:
	BYTE	W10
	BYTE		N11     Fn3   v100
	BYTE	W12
	BYTE		        Gn3 
	BYTE	W12
	BYTE		        An3 
	BYTE	W12
	BYTE		N17     Dn3 
	BYTE	W24
	BYTE		N08   
	BYTE	W12
	BYTE		N11     Cn3 
	BYTE	W12
	BYTE		N32     Dn3 
	BYTE	W02
	BYTE	PEND
// 017   ----------------------------------------
FirstCampaingCut_7_017:
	BYTE	W32
	BYTE	W02
	BYTE		N11     An2   v100
	BYTE	W12
	BYTE		N23     Cn3 
	BYTE	W24
	BYTE		        Dn3 
	BYTE	W24
	BYTE	W02
	BYTE	PEND
// 018   ----------------------------------------
FirstCampaingCut_7_018:
	BYTE	W10
	BYTE		N11     Fn3   v100
	BYTE	W12
	BYTE		        Gn3 
	BYTE	W12
	BYTE		        An3 
	BYTE	W12
	BYTE		N20     Dn3 
	BYTE	W24
	BYTE		N08   
	BYTE	W12
	BYTE		N11     Cn3 
	BYTE	W12
	BYTE		N32     Dn3 
	BYTE	W02
	BYTE	PEND
// 019   ----------------------------------------
FirstCampaingCut_7_019:
	BYTE	W32
	BYTE	W02
	BYTE		N11     An2   v100
	BYTE	W12
	BYTE		N23     Gn2 
	BYTE	W24
	BYTE		        An2 
	BYTE	W24
	BYTE	W02
	BYTE	PEND
// 020   ----------------------------------------
FirstCampaingCut_7_020:
	BYTE	W10
	BYTE		N15     Fn3   v100
	BYTE	W12
	BYTE		        Gn3 
	BYTE	W12
	BYTE		N13     An3 
	BYTE	W12
	BYTE		N20     Dn3 
	BYTE	W24
	BYTE		N08   
	BYTE	W12
	BYTE		N11     Cn3 
	BYTE	W12
	BYTE		N32     Dn3 
	BYTE	W02
	BYTE	PEND
// 021   ----------------------------------------
	BYTE	PATT
	 POIN2	FirstCampaingCut_7_017
// 022   ----------------------------------------
FirstCampaingCut_7_022:
	BYTE	W10
	BYTE		N15     Fn3   v100
	BYTE	W12
	BYTE		        Gn3 
	BYTE	W12
	BYTE		N13     An3 
	BYTE	W12
	BYTE		N20     Dn3 
	BYTE	W24
	BYTE		N08   
	BYTE	W12
	BYTE		N17     Cn4 
	BYTE	W12
	BYTE		N32     Dn4 
	BYTE	W02
	BYTE	PEND
// 023   ----------------------------------------
FirstCampaingCut_7_023:
	BYTE	W32
	BYTE	W02
	BYTE		N11     An3   v100
	BYTE	W12
	BYTE		N20     Gn3 
	BYTE	W24
	BYTE		N11     Dn3 
	BYTE	W12
	BYTE		N05     Fn3 
	BYTE	W12
	BYTE		        Gn3 
	BYTE	W02
	BYTE	PEND
// 024   ----------------------------------------
FirstCampaingCut_7_024:
	BYTE	W10
	BYTE		N32     An3   v100
	BYTE	W36
	BYTE		        Gn3 
	BYTE	W36
	BYTE		N11     Dn3 
	BYTE	W14
	BYTE	PEND
// 025   ----------------------------------------
FirstCampaingCut_7_025:
	BYTE	W10
	BYTE		N32     Fn3   v100
	BYTE	W36
	BYTE		        Dn3 
	BYTE	W48
	BYTE	W02
	BYTE	PEND
// 026   ----------------------------------------
	BYTE	PATT
	 POIN2	FirstCampaingCut_7_024
// 027   ----------------------------------------
FirstCampaingCut_7_027:
	BYTE	W10
	BYTE		N36     Fn3   v100
	BYTE	W36
	BYTE		N32     Dn3 
	BYTE	W48
	BYTE	W02
	BYTE	PEND
// 028   ----------------------------------------
FirstCampaingCut_7_028:
	BYTE	W10
	BYTE		N11     As3   v100
	BYTE	W12
	BYTE		N05     An3 
	BYTE	W12
	BYTE		N03     Gn3 
	BYTE	W12
	BYTE		N11     An3 
	BYTE	W12
	BYTE		N05     Gn3 
	BYTE	W12
	BYTE		N03     Fn3 
	BYTE	W12
	BYTE		N11     Gn3 
	BYTE	W12
	BYTE		N05     Fn3 
	BYTE	W02
	BYTE	PEND
// 029   ----------------------------------------
FirstCampaingCut_7_029:
	BYTE	W10
	BYTE		N03     En3   v100
	BYTE	W12
	BYTE		N11     Fn3 
	BYTE	W12
	BYTE		N05     En3 
	BYTE	W12
	BYTE		N03     Dn3 
	BYTE	W12
	BYTE		N11     En3 
	BYTE	W12
	BYTE		N05     Dn3 
	BYTE	W12
	BYTE		N03     Cn3 
	BYTE	W12
	BYTE		        As2 
	BYTE	W02
	BYTE	PEND
// 030   ----------------------------------------
	BYTE	W96
// 031   ----------------------------------------
	BYTE	W96
// 032   ----------------------------------------
	BYTE	PATT
	 POIN2	FirstCampaingCut_7_004
// 033   ----------------------------------------
	BYTE	PATT
	 POIN2	FirstCampaingCut_7_001
// 034   ----------------------------------------
	BYTE	PATT
	 POIN2	FirstCampaingCut_7_002
// 035   ----------------------------------------
	BYTE	PATT
	 POIN2	FirstCampaingCut_7_003
// 036   ----------------------------------------
	BYTE	PATT
	 POIN2	FirstCampaingCut_7_004
// 037   ----------------------------------------
	BYTE	PATT
	 POIN2	FirstCampaingCut_7_005
// 038   ----------------------------------------
	BYTE	PATT
	 POIN2	FirstCampaingCut_7_006
// 039   ----------------------------------------
	BYTE	PATT
	 POIN2	FirstCampaingCut_7_007
// 040   ----------------------------------------
	BYTE	PATT
	 POIN2	FirstCampaingCut_7_004
// 041   ----------------------------------------
	BYTE	PATT
	 POIN2	FirstCampaingCut_7_001
// 042   ----------------------------------------
	BYTE	PATT
	 POIN2	FirstCampaingCut_7_002
// 043   ----------------------------------------
	BYTE	PATT
	 POIN2	FirstCampaingCut_7_003
// 044   ----------------------------------------
	BYTE	PATT
	 POIN2	FirstCampaingCut_7_004
// 045   ----------------------------------------
	BYTE	PATT
	 POIN2	FirstCampaingCut_7_005
// 046   ----------------------------------------
	BYTE	PATT
	 POIN2	FirstCampaingCut_7_006
// 047   ----------------------------------------
	BYTE	PATT
	 POIN2	FirstCampaingCut_7_007
// 048   ----------------------------------------
	BYTE	PATT
	 POIN2	FirstCampaingCut_7_016
// 049   ----------------------------------------
	BYTE	PATT
	 POIN2	FirstCampaingCut_7_017
// 050   ----------------------------------------
	BYTE	PATT
	 POIN2	FirstCampaingCut_7_018
// 051   ----------------------------------------
	BYTE	PATT
	 POIN2	FirstCampaingCut_7_019
// 052   ----------------------------------------
	BYTE	PATT
	 POIN2	FirstCampaingCut_7_020
// 053   ----------------------------------------
	BYTE	PATT
	 POIN2	FirstCampaingCut_7_017
// 054   ----------------------------------------
	BYTE	PATT
	 POIN2	FirstCampaingCut_7_022
// 055   ----------------------------------------
	BYTE	PATT
	 POIN2	FirstCampaingCut_7_023
// 056   ----------------------------------------
	BYTE	PATT
	 POIN2	FirstCampaingCut_7_024
// 057   ----------------------------------------
	BYTE	PATT
	 POIN2	FirstCampaingCut_7_025
// 058   ----------------------------------------
	BYTE	PATT
	 POIN2	FirstCampaingCut_7_024
// 059   ----------------------------------------
	BYTE	PATT
	 POIN2	FirstCampaingCut_7_027
// 060   ----------------------------------------
	BYTE	PATT
	 POIN2	FirstCampaingCut_7_028
// 061   ----------------------------------------
	BYTE	PATT
	 POIN2	FirstCampaingCut_7_029
// 062   ----------------------------------------
	BYTE	W96
// 063   ----------------------------------------
	BYTE	W96
// 064   ----------------------------------------
FirstCampaingCut_7_064:
	BYTE	W10
	BYTE		N10     Gn3   v100
	BYTE	W12
	BYTE		N12     Gn2 
	BYTE	W12
	BYTE		N14     Cn3 
	BYTE	W12
	BYTE		N13     Fn3 
	BYTE	W12
	BYTE		N14     Gn2 
	BYTE	W12
	BYTE		N13     Cn3 
	BYTE	W12
	BYTE		N11     Gn3 
	BYTE	W12
	BYTE		N12     Gn2 
	BYTE	W02
	BYTE	PEND
// 065   ----------------------------------------
FirstCampaingCut_7_065:
	BYTE	W10
	BYTE		N15     Cn3   v100
	BYTE	W12
	BYTE		N11     Fn3 
	BYTE	W12
	BYTE		N15     Gn2 
	BYTE	W12
	BYTE		N13     Cn3 
	BYTE	W12
	BYTE		N08     Gn3 
	BYTE	W12
	BYTE		N12     Gn2 
	BYTE	W12
	BYTE		N10     Fn3 
	BYTE	W12
	BYTE		N09     Gn2 
	BYTE	W02
	BYTE	PEND
// 066   ----------------------------------------
	BYTE	PATT
	 POIN2	FirstCampaingCut_7_064
// 067   ----------------------------------------
	BYTE	PATT
	 POIN2	FirstCampaingCut_7_065
// 068   ----------------------------------------
FirstCampaingCut_7_068:
	BYTE	W10
	BYTE		N11     An3   v100
	BYTE	W12
	BYTE		        As3 
	BYTE	W12
	BYTE		        An3 
	BYTE	W12
	BYTE		N07     Fn3 
	BYTE	W24
	BYTE		N11     Cn3 
	BYTE	W12
	BYTE		N05     Dn3 
	BYTE	W12
	BYTE		N56     Cn3 
	BYTE	W02
	BYTE	PEND
// 069   ----------------------------------------
	BYTE	W68
	BYTE	W02
	BYTE		N11   
	BYTE	W12
	BYTE		N05     Fn3 
	BYTE	W12
	BYTE		N04     Gn3 
	BYTE	W02
// 070   ----------------------------------------
	BYTE	W10
	BYTE		N11     An3 
	BYTE	W12
	BYTE		        As3 
	BYTE	W12
	BYTE		        An3 
	BYTE	W12
	BYTE		N07     Fn3 
	BYTE	W24
	BYTE		N11     Dn4 
	BYTE	W12
	BYTE		N92     Cn4 
	BYTE	W14
// 071   ----------------------------------------
	BYTE	W96
// 072   ----------------------------------------
	BYTE	PATT
	 POIN2	FirstCampaingCut_7_064
// 073   ----------------------------------------
	BYTE	PATT
	 POIN2	FirstCampaingCut_7_065
// 074   ----------------------------------------
	BYTE	PATT
	 POIN2	FirstCampaingCut_7_064
// 075   ----------------------------------------
	BYTE	PATT
	 POIN2	FirstCampaingCut_7_065
// 076   ----------------------------------------
	BYTE	PATT
	 POIN2	FirstCampaingCut_7_068
// 077   ----------------------------------------
	BYTE	W68
	BYTE	W02
	BYTE		N11     An3   v100
	BYTE	W12
	BYTE		N05     As3 
	BYTE	W12
	BYTE		N04     An3 
	BYTE	W02
// 078   ----------------------------------------
	BYTE	W10
	BYTE		N11     Dn4 
	BYTE	W12
	BYTE		N06     Cn4 
	BYTE	W12
	BYTE		N04     Fn3 
	BYTE	W12
	BYTE		N11     Dn4 
	BYTE	W12
	BYTE		N12     Cn4 
	BYTE	W12
	BYTE		N15     Fn4 
	BYTE	W12
	BYTE		N12     En4 
	BYTE	W12
	BYTE		N56     Cn4 
	BYTE	W02
// 079   ----------------------------------------
	BYTE	W68
	BYTE	W02
	BYTE		N13     An3 
	BYTE	W12
	BYTE		N14     As3 
	BYTE	W12
	BYTE		N24     Cn4 
	BYTE	W02
// 080   ----------------------------------------
FirstCampaingCut_7_080:
	BYTE	W22
	BYTE		N09     Fn3   v100
	BYTE	W12
	BYTE		N13     Gn3 
	BYTE	W12
	BYTE		        Cn4 
	BYTE	W12
	BYTE		N15     Fn3 
	BYTE	W12
	BYTE		N14     Gn3 
	BYTE	W12
	BYTE		N15     Cn4 
	BYTE	W12
	BYTE		N13     Fn3 
	BYTE	W02
	BYTE	PEND
// 081   ----------------------------------------
	BYTE	W10
	BYTE		N12     Gn3 
	BYTE	W12
	BYTE		N14     Dn4 
	BYTE	W12
	BYTE		N12     Cn4 
	BYTE	W12
	BYTE		        Fn3 
	BYTE	W24
	BYTE		N12   
	BYTE	W12
	BYTE		        Gn3 
	BYTE	W12
	BYTE		N24     Cn4 
	BYTE	W02
// 082   ----------------------------------------
	BYTE	PATT
	 POIN2	FirstCampaingCut_7_080
// 083   ----------------------------------------
	BYTE	W10
	BYTE		N12     Gn3   v100
	BYTE	W12
	BYTE		N14     Dn4 
	BYTE	W12
	BYTE		N12     Cn4 
	BYTE	W12
	BYTE		        Fn3 
	BYTE	W24
	BYTE		N11     An3 
	BYTE	W12
	BYTE		N15     As3 
	BYTE	W12
	BYTE		N36     Cn4 
	BYTE	W02
// 084   ----------------------------------------
FirstCampaingCut_7_084:
	BYTE	W32
	BYTE	W02
	BYTE		N13     Fn3   v100
	BYTE	W24
	BYTE		N11     En3 
	BYTE	W12
	BYTE		N07     Fn3 
	BYTE	W24
	BYTE		N56     Cn4 
	BYTE	W02
	BYTE	PEND
// 085   ----------------------------------------
	BYTE	W68
	BYTE	W02
	BYTE		N11   
	BYTE	W12
	BYTE		        Dn4 
	BYTE	W12
	BYTE		N32     Cn4 
	BYTE	W02
// 086   ----------------------------------------
	BYTE	W32
	BYTE	W02
	BYTE		N11     Fn4 
	BYTE	W24
	BYTE		N12     En4 
	BYTE	W12
	BYTE		N07     Cn4 
	BYTE	W24
	BYTE		N23     An3 
	BYTE	W02
// 087   ----------------------------------------
	BYTE	W22
	BYTE		N11     As3 
	BYTE	W12
	BYTE		N09     Dn4 
	BYTE	W12
	BYTE		N23     Cn4 
	BYTE	W24
	BYTE		N11     Fn3 
	BYTE	W12
	BYTE		        En3 
	BYTE	W12
	BYTE		        Fn3 
	BYTE	W02
// 088   ----------------------------------------
FirstCampaingCut_7_088:
	BYTE	W10
	BYTE		N11     Cn4   v100
	BYTE	W12
	BYTE		        En3 
	BYTE	W12
	BYTE		        Fn3 
	BYTE	W12
	BYTE		        Cn4 
	BYTE	W12
	BYTE		        En3 
	BYTE	W12
	BYTE		        Fn3 
	BYTE	W12
	BYTE		        Cn4 
	BYTE	W12
	BYTE		        En3 
	BYTE	W02
	BYTE	PEND
// 089   ----------------------------------------
	BYTE	W10
	BYTE		        Fn3 
	BYTE	W12
	BYTE		        Cn4 
	BYTE	W12
	BYTE		        Dn4 
	BYTE	W12
	BYTE		        Cn4 
	BYTE	W24
	BYTE		        Fn3 
	BYTE	W12
	BYTE		        En3 
	BYTE	W12
	BYTE		        Fn3 
	BYTE	W02
// 090   ----------------------------------------
	BYTE	PATT
	 POIN2	FirstCampaingCut_7_088
// 091   ----------------------------------------
	BYTE	W10
	BYTE		N11     Fn3   v100
	BYTE	W12
	BYTE		        Cn4 
	BYTE	W12
	BYTE		        Dn4 
	BYTE	W12
	BYTE		        Cn4 
	BYTE	W24
	BYTE		        An3 
	BYTE	W12
	BYTE		N15     As3 
	BYTE	W12
	BYTE		N36     Cn4 
	BYTE	W02
// 092   ----------------------------------------
	BYTE	PATT
	 POIN2	FirstCampaingCut_7_084
// 093   ----------------------------------------
	BYTE	W68
	BYTE	W02
	BYTE		N15     Cn4   v100
	BYTE	W12
	BYTE		N14     Dn4 
	BYTE	W12
	BYTE		N36     Cn4 
	BYTE	W02
// 094   ----------------------------------------
	BYTE	W32
	BYTE	W02
	BYTE		N12     Fn4 
	BYTE	W24
	BYTE		N14     Gn4 
	BYTE	W12
	BYTE		N09     Cn4 
	BYTE	W24
	BYTE		N24     An4 
	BYTE	W02
// 095   ----------------------------------------
	BYTE	W22
	BYTE		N07     As4 
	BYTE	W12
	BYTE		N05     An4 
	BYTE	W12
	BYTE		N24     Gn4 
	BYTE	W24
	BYTE		N11     As4 
	BYTE	W12
	BYTE		N08     An4 
	BYTE	W12
	BYTE		N68     Fn4 
	BYTE	W02
// 096   ----------------------------------------
	BYTE	W68
	BYTE	W02
	BYTE		N15     Cn4 
	BYTE	W24
	BYTE		N23     Fn4 
	BYTE	W02
// 097   ----------------------------------------
	BYTE	W22
	BYTE		N07     Gn4 
	BYTE	W12
	BYTE		N40     Fn4 
	BYTE	W60
	BYTE	W02
// 098   ----------------------------------------
	BYTE	W10
	BYTE		N56   
	BYTE	W72
	BYTE		N02     Gn4   v076
	BYTE	W03
	BYTE		N05     Gs4   v092
	BYTE	W09
	BYTE		N17     Gn4   v104
	BYTE	W02
// 099   ----------------------------------------
	BYTE	W22
	BYTE		N14     Fn4   v096
	BYTE	W24
	BYTE		N05     Fn4   v092
	BYTE	W12
	BYTE		N02   
	BYTE	W03
	BYTE		N14     Gn4 
	BYTE	W09
	BYTE		N11     Fn4   v088
	BYTE	W12
	BYTE		N14     Gn4   v084
	BYTE	W12
	BYTE		N06     Fn4   v100
	BYTE	W02
// 100   ----------------------------------------
	BYTE	W22
	BYTE		N05     Cn4   v096
	BYTE	W12
	BYTE		N02     Cn4   v092
	BYTE	W03
	BYTE		N72     Dn4   v100
	BYTE	W56
	BYTE	W03
// 101   ----------------------------------------
	BYTE	W16
	BYTE		N05     Cn4 
	BYTE	W06
	BYTE		        Fn4 
	BYTE	W06
	BYTE		        Dn4 
	BYTE	W06
	BYTE		        Cn4 
	BYTE	W06
	BYTE		        An3 
	BYTE	W06
	BYTE		        Dn4 
	BYTE	W06
	BYTE		        Cn4 
	BYTE	W06
	BYTE		        An3 
	BYTE	W06
	BYTE		        Fn3 
	BYTE	W06
	BYTE		        Cn4 
	BYTE	W06
	BYTE		        An3 
	BYTE	W06
	BYTE		        Fn3 
	BYTE	W06
	BYTE		        Dn3 
	BYTE	W06
	BYTE		        Gn3 
	BYTE	W02
// 102   ----------------------------------------
	BYTE	W04
	BYTE		        Fn3 
	BYTE	W06
	BYTE		        Dn3 
	BYTE	W06
	BYTE		        Cn3 
	BYTE	W06
	BYTE		        An2 
	BYTE	W06
	BYTE		        Gn2 
	BYTE	W06
	BYTE		        Fn2 
	BYTE	W06
	BYTE		        An2 
	BYTE	W06
	BYTE		        Cn3 
	BYTE	W06
	BYTE		        Dn3 
	BYTE	W06
	BYTE		        An2 
	BYTE	W06
	BYTE		        Cn3 
	BYTE	W06
	BYTE		        Dn3 
	BYTE	W06
	BYTE		        Fn3 
	BYTE	W06
	BYTE		        Dn3 
	BYTE	W06
	BYTE		        Fn3 
	BYTE	W06
	BYTE		        Gn3 
	BYTE	W02
// 103   ----------------------------------------
	BYTE	W04
	BYTE		        An3 
	BYTE	W06
	BYTE		        Fn3 
	BYTE	W06
	BYTE		        An3 
	BYTE	W06
	BYTE		        Cn4 
	BYTE	W06
	BYTE		        Dn4 
	BYTE	W06
	BYTE		        Fn4 
	BYTE	W06
	BYTE		        Dn4 
	BYTE	W06
	BYTE		        Fn4 
	BYTE	W06
	BYTE		        Gn4 
	BYTE	W06
	BYTE		        An4 
	BYTE	W06
	BYTE		        Fn4 
	BYTE	W06
	BYTE		        Gn4 
	BYTE	W06
	BYTE		        An4 
	BYTE	W06
	BYTE		        Cn5 
	BYTE	W06
	BYTE		        An4 
	BYTE	W06
	BYTE		        Cn5 
	BYTE	W02
// 104   ----------------------------------------
	BYTE	W03
	BYTE	GoTo
	 POIN2	FirstCampaingCut_7_B1
FirstCampaingCut_7_B2:
	BYTE	FINE

//**************** Track 8 (Midi-Chn.9) ****************//

FirstCampaingCut_8:
	BYTE	KEYSH   FirstCampaingCut_key+0
FirstCampaingCut_8_B1:
// 000   ----------------------------------------
	BYTE		VOICE   36
	BYTE		VOL     41*FirstCampaingCut_mvl/mxv
	BYTE		PAN     c_v+62
	BYTE		N10     Dn2   v088
	BYTE	W12
	BYTE		N10   
	BYTE	W12
	BYTE		N10   
	BYTE	W12
	BYTE		N10   
	BYTE	W12
	BYTE		N10   
	BYTE	W12
	BYTE		N10   
	BYTE	W12
	BYTE		N10   
	BYTE	W12
	BYTE		N10   
	BYTE	W12
// 001   ----------------------------------------
FirstCampaingCut_8_001:
	BYTE		N10     Dn2   v088
	BYTE	W12
	BYTE		N10   
	BYTE	W12
	BYTE		N10   
	BYTE	W12
	BYTE		N10   
	BYTE	W12
	BYTE		N10   
	BYTE	W12
	BYTE		N10   
	BYTE	W12
	BYTE		N10   
	BYTE	W12
	BYTE		N10   
	BYTE	W12
	BYTE	PEND
// 002   ----------------------------------------
FirstCampaingCut_8_002:
	BYTE		N10     As1   v088
	BYTE	W12
	BYTE		N10   
	BYTE	W12
	BYTE		N10   
	BYTE	W12
	BYTE		N10   
	BYTE	W12
	BYTE		N10   
	BYTE	W12
	BYTE		N10   
	BYTE	W12
	BYTE		N10   
	BYTE	W12
	BYTE		N10   
	BYTE	W12
	BYTE	PEND
// 003   ----------------------------------------
FirstCampaingCut_8_003:
	BYTE		N10     Gn1   v088
	BYTE	W12
	BYTE		N10   
	BYTE	W12
	BYTE		N10   
	BYTE	W12
	BYTE		N10   
	BYTE	W12
	BYTE		N10   
	BYTE	W12
	BYTE		N10   
	BYTE	W12
	BYTE		N10   
	BYTE	W12
	BYTE		N10   
	BYTE	W12
	BYTE	PEND
// 004   ----------------------------------------
	BYTE	PATT
	 POIN2	FirstCampaingCut_8_001
// 005   ----------------------------------------
	BYTE	PATT
	 POIN2	FirstCampaingCut_8_001
// 006   ----------------------------------------
FirstCampaingCut_8_006:
	BYTE		N10     Fn1   v088
	BYTE	W12
	BYTE		N10   
	BYTE	W12
	BYTE		N10   
	BYTE	W12
	BYTE		N10   
	BYTE	W12
	BYTE		N10   
	BYTE	W12
	BYTE		N10   
	BYTE	W12
	BYTE		N10   
	BYTE	W12
	BYTE		N10   
	BYTE	W12
	BYTE	PEND
// 007   ----------------------------------------
	BYTE	PATT
	 POIN2	FirstCampaingCut_8_002
// 008   ----------------------------------------
	BYTE	PATT
	 POIN2	FirstCampaingCut_8_001
// 009   ----------------------------------------
	BYTE	PATT
	 POIN2	FirstCampaingCut_8_001
// 010   ----------------------------------------
	BYTE	PATT
	 POIN2	FirstCampaingCut_8_002
// 011   ----------------------------------------
	BYTE	PATT
	 POIN2	FirstCampaingCut_8_003
// 012   ----------------------------------------
	BYTE	PATT
	 POIN2	FirstCampaingCut_8_001
// 013   ----------------------------------------
	BYTE	PATT
	 POIN2	FirstCampaingCut_8_001
// 014   ----------------------------------------
	BYTE	PATT
	 POIN2	FirstCampaingCut_8_006
// 015   ----------------------------------------
	BYTE	PATT
	 POIN2	FirstCampaingCut_8_002
// 016   ----------------------------------------
	BYTE	PATT
	 POIN2	FirstCampaingCut_8_001
// 017   ----------------------------------------
FirstCampaingCut_8_017:
	BYTE		N10     En2   v088
	BYTE	W12
	BYTE		N10   
	BYTE	W12
	BYTE		N10   
	BYTE	W12
	BYTE		N10   
	BYTE	W12
	BYTE		N10   
	BYTE	W12
	BYTE		N10   
	BYTE	W12
	BYTE		N10   
	BYTE	W12
	BYTE		N10   
	BYTE	W12
	BYTE	PEND
// 018   ----------------------------------------
FirstCampaingCut_8_018:
	BYTE		N10     Fn2   v088
	BYTE	W12
	BYTE		N10   
	BYTE	W12
	BYTE		N10   
	BYTE	W12
	BYTE		N10   
	BYTE	W12
	BYTE		N10   
	BYTE	W12
	BYTE		N10   
	BYTE	W12
	BYTE		N10   
	BYTE	W12
	BYTE		N10   
	BYTE	W12
	BYTE	PEND
// 019   ----------------------------------------
	BYTE	PATT
	 POIN2	FirstCampaingCut_8_002
// 020   ----------------------------------------
	BYTE	PATT
	 POIN2	FirstCampaingCut_8_001
// 021   ----------------------------------------
	BYTE	PATT
	 POIN2	FirstCampaingCut_8_017
// 022   ----------------------------------------
	BYTE	PATT
	 POIN2	FirstCampaingCut_8_018
// 023   ----------------------------------------
	BYTE	PATT
	 POIN2	FirstCampaingCut_8_002
// 024   ----------------------------------------
FirstCampaingCut_8_024:
	BYTE		N10     Gn1   v088
	BYTE	W12
	BYTE		N10   
	BYTE	W12
	BYTE		N10   
	BYTE	W12
	BYTE		        An1 
	BYTE	W12
	BYTE		N10   
	BYTE	W12
	BYTE		N10   
	BYTE	W12
	BYTE		N10   
	BYTE	W12
	BYTE		        As1 
	BYTE	W12
	BYTE	PEND
// 025   ----------------------------------------
FirstCampaingCut_8_025:
	BYTE		N10     As1   v088
	BYTE	W12
	BYTE		N10   
	BYTE	W12
	BYTE		N10   
	BYTE	W12
	BYTE		        Cn2 
	BYTE	W12
	BYTE		N10   
	BYTE	W12
	BYTE		N10   
	BYTE	W12
	BYTE		N10   
	BYTE	W12
	BYTE		N10   
	BYTE	W12
	BYTE	PEND
// 026   ----------------------------------------
	BYTE	PATT
	 POIN2	FirstCampaingCut_8_024
// 027   ----------------------------------------
	BYTE	PATT
	 POIN2	FirstCampaingCut_8_025
// 028   ----------------------------------------
FirstCampaingCut_8_028:
	BYTE		N10     Gn1   v088
	BYTE	W12
	BYTE		N10   
	BYTE	W12
	BYTE		N10   
	BYTE	W12
	BYTE		        An1 
	BYTE	W12
	BYTE		N10   
	BYTE	W12
	BYTE		N10   
	BYTE	W12
	BYTE		        As1 
	BYTE	W12
	BYTE		N10   
	BYTE	W12
	BYTE	PEND
// 029   ----------------------------------------
FirstCampaingCut_8_029:
	BYTE		N10     As1   v088
	BYTE	W12
	BYTE		        Cn2 
	BYTE	W12
	BYTE		N10   
	BYTE	W12
	BYTE		N10   
	BYTE	W12
	BYTE		        Dn2 
	BYTE	W12
	BYTE		N10   
	BYTE	W12
	BYTE		        En2 
	BYTE	W12
	BYTE		N10   
	BYTE	W12
	BYTE	PEND
// 030   ----------------------------------------
FirstCampaingCut_8_030:
	BYTE		N10     An1   v088
	BYTE	W12
	BYTE		N10   
	BYTE	W24
	BYTE		N10   
	BYTE	W12
	BYTE		N10   
	BYTE	W24
	BYTE		N10   
	BYTE	W12
	BYTE		N10   
	BYTE	W12
	BYTE	PEND
// 031   ----------------------------------------
FirstCampaingCut_8_031:
	BYTE	W12
	BYTE		N11     Gn1   v088
	BYTE	W12
	BYTE		        An1 
	BYTE	W12
	BYTE		        Cn2 
	BYTE	W12
	BYTE		        Fn2 
	BYTE	W12
	BYTE		        En2 
	BYTE	W12
	BYTE		        Dn2 
	BYTE	W12
	BYTE		        Cn2 
	BYTE	W12
	BYTE	PEND
// 032   ----------------------------------------
	BYTE	PATT
	 POIN2	FirstCampaingCut_8_001
// 033   ----------------------------------------
	BYTE	PATT
	 POIN2	FirstCampaingCut_8_001
// 034   ----------------------------------------
	BYTE	PATT
	 POIN2	FirstCampaingCut_8_002
// 035   ----------------------------------------
	BYTE	PATT
	 POIN2	FirstCampaingCut_8_003
// 036   ----------------------------------------
	BYTE	PATT
	 POIN2	FirstCampaingCut_8_001
// 037   ----------------------------------------
	BYTE	PATT
	 POIN2	FirstCampaingCut_8_001
// 038   ----------------------------------------
	BYTE	PATT
	 POIN2	FirstCampaingCut_8_006
// 039   ----------------------------------------
	BYTE	PATT
	 POIN2	FirstCampaingCut_8_002
// 040   ----------------------------------------
	BYTE	PATT
	 POIN2	FirstCampaingCut_8_001
// 041   ----------------------------------------
	BYTE	PATT
	 POIN2	FirstCampaingCut_8_001
// 042   ----------------------------------------
	BYTE	PATT
	 POIN2	FirstCampaingCut_8_002
// 043   ----------------------------------------
	BYTE	PATT
	 POIN2	FirstCampaingCut_8_003
// 044   ----------------------------------------
	BYTE	PATT
	 POIN2	FirstCampaingCut_8_001
// 045   ----------------------------------------
	BYTE	PATT
	 POIN2	FirstCampaingCut_8_001
// 046   ----------------------------------------
	BYTE	PATT
	 POIN2	FirstCampaingCut_8_006
// 047   ----------------------------------------
	BYTE	PATT
	 POIN2	FirstCampaingCut_8_002
// 048   ----------------------------------------
	BYTE	PATT
	 POIN2	FirstCampaingCut_8_001
// 049   ----------------------------------------
	BYTE	PATT
	 POIN2	FirstCampaingCut_8_017
// 050   ----------------------------------------
	BYTE	PATT
	 POIN2	FirstCampaingCut_8_018
// 051   ----------------------------------------
	BYTE	PATT
	 POIN2	FirstCampaingCut_8_002
// 052   ----------------------------------------
	BYTE	PATT
	 POIN2	FirstCampaingCut_8_001
// 053   ----------------------------------------
	BYTE	PATT
	 POIN2	FirstCampaingCut_8_017
// 054   ----------------------------------------
	BYTE	PATT
	 POIN2	FirstCampaingCut_8_018
// 055   ----------------------------------------
	BYTE	PATT
	 POIN2	FirstCampaingCut_8_002
// 056   ----------------------------------------
	BYTE	PATT
	 POIN2	FirstCampaingCut_8_024
// 057   ----------------------------------------
	BYTE	PATT
	 POIN2	FirstCampaingCut_8_025
// 058   ----------------------------------------
	BYTE	PATT
	 POIN2	FirstCampaingCut_8_024
// 059   ----------------------------------------
	BYTE	PATT
	 POIN2	FirstCampaingCut_8_025
// 060   ----------------------------------------
	BYTE	PATT
	 POIN2	FirstCampaingCut_8_028
// 061   ----------------------------------------
	BYTE	PATT
	 POIN2	FirstCampaingCut_8_029
// 062   ----------------------------------------
	BYTE	PATT
	 POIN2	FirstCampaingCut_8_030
// 063   ----------------------------------------
	BYTE	PATT
	 POIN2	FirstCampaingCut_8_031
// 064   ----------------------------------------
FirstCampaingCut_8_064:
	BYTE		N09     As1   v088
	BYTE	W12
	BYTE		N09   
	BYTE	W12
	BYTE		N09   
	BYTE	W12
	BYTE		N09   
	BYTE	W12
	BYTE		N09   
	BYTE	W12
	BYTE		N09   
	BYTE	W12
	BYTE		N09   
	BYTE	W12
	BYTE		N09   
	BYTE	W12
	BYTE	PEND
// 065   ----------------------------------------
FirstCampaingCut_8_065:
	BYTE		N09     As1   v088
	BYTE	W12
	BYTE		N09   
	BYTE	W12
	BYTE		N09   
	BYTE	W12
	BYTE		N09   
	BYTE	W12
	BYTE		N09   
	BYTE	W12
	BYTE		N09   
	BYTE	W12
	BYTE		        An1 
	BYTE	W12
	BYTE		        As1 
	BYTE	W12
	BYTE	PEND
// 066   ----------------------------------------
FirstCampaingCut_8_066:
	BYTE		N09     Cn2   v088
	BYTE	W12
	BYTE		N09   
	BYTE	W12
	BYTE		N09   
	BYTE	W12
	BYTE		N09   
	BYTE	W12
	BYTE		N09   
	BYTE	W12
	BYTE		N09   
	BYTE	W12
	BYTE		N09   
	BYTE	W12
	BYTE		N09   
	BYTE	W12
	BYTE	PEND
// 067   ----------------------------------------
	BYTE	PATT
	 POIN2	FirstCampaingCut_8_066
// 068   ----------------------------------------
FirstCampaingCut_8_068:
	BYTE		N09     Fn1   v088
	BYTE	W12
	BYTE		N09   
	BYTE	W12
	BYTE		N09   
	BYTE	W12
	BYTE		N09   
	BYTE	W12
	BYTE		N09   
	BYTE	W12
	BYTE		N09   
	BYTE	W12
	BYTE		N09   
	BYTE	W12
	BYTE		N09   
	BYTE	W12
	BYTE	PEND
// 069   ----------------------------------------
FirstCampaingCut_8_069:
	BYTE		N09     Fn1   v088
	BYTE	W12
	BYTE		N09   
	BYTE	W12
	BYTE		N09   
	BYTE	W12
	BYTE		N09   
	BYTE	W12
	BYTE		N09   
	BYTE	W12
	BYTE		N09   
	BYTE	W12
	BYTE		N09   
	BYTE	W12
	BYTE		        Gn1 
	BYTE	W12
	BYTE	PEND
// 070   ----------------------------------------
FirstCampaingCut_8_070:
	BYTE		N09     An1   v088
	BYTE	W12
	BYTE		N09   
	BYTE	W12
	BYTE		N09   
	BYTE	W12
	BYTE		N09   
	BYTE	W12
	BYTE		N09   
	BYTE	W12
	BYTE		N09   
	BYTE	W12
	BYTE		N09   
	BYTE	W12
	BYTE		N09   
	BYTE	W12
	BYTE	PEND
// 071   ----------------------------------------
FirstCampaingCut_8_071:
	BYTE		N09     An1   v088
	BYTE	W12
	BYTE		N09   
	BYTE	W12
	BYTE		        Gn1 
	BYTE	W12
	BYTE		        An1 
	BYTE	W12
	BYTE		        Cn2 
	BYTE	W12
	BYTE		        As1 
	BYTE	W12
	BYTE		        An1 
	BYTE	W12
	BYTE		        Gn1 
	BYTE	W12
	BYTE	PEND
// 072   ----------------------------------------
	BYTE	PATT
	 POIN2	FirstCampaingCut_8_064
// 073   ----------------------------------------
	BYTE	PATT
	 POIN2	FirstCampaingCut_8_065
// 074   ----------------------------------------
	BYTE	PATT
	 POIN2	FirstCampaingCut_8_066
// 075   ----------------------------------------
	BYTE	PATT
	 POIN2	FirstCampaingCut_8_066
// 076   ----------------------------------------
	BYTE	PATT
	 POIN2	FirstCampaingCut_8_068
// 077   ----------------------------------------
	BYTE	PATT
	 POIN2	FirstCampaingCut_8_069
// 078   ----------------------------------------
	BYTE	PATT
	 POIN2	FirstCampaingCut_8_070
// 079   ----------------------------------------
	BYTE	PATT
	 POIN2	FirstCampaingCut_8_071
// 080   ----------------------------------------
	BYTE	PATT
	 POIN2	FirstCampaingCut_8_064
// 081   ----------------------------------------
	BYTE	PATT
	 POIN2	FirstCampaingCut_8_065
// 082   ----------------------------------------
	BYTE	PATT
	 POIN2	FirstCampaingCut_8_066
// 083   ----------------------------------------
	BYTE	PATT
	 POIN2	FirstCampaingCut_8_066
// 084   ----------------------------------------
	BYTE	PATT
	 POIN2	FirstCampaingCut_8_068
// 085   ----------------------------------------
	BYTE	PATT
	 POIN2	FirstCampaingCut_8_069
// 086   ----------------------------------------
	BYTE	PATT
	 POIN2	FirstCampaingCut_8_070
// 087   ----------------------------------------
	BYTE	PATT
	 POIN2	FirstCampaingCut_8_071
// 088   ----------------------------------------
	BYTE	PATT
	 POIN2	FirstCampaingCut_8_064
// 089   ----------------------------------------
	BYTE	PATT
	 POIN2	FirstCampaingCut_8_065
// 090   ----------------------------------------
	BYTE	PATT
	 POIN2	FirstCampaingCut_8_066
// 091   ----------------------------------------
	BYTE	PATT
	 POIN2	FirstCampaingCut_8_066
// 092   ----------------------------------------
	BYTE	PATT
	 POIN2	FirstCampaingCut_8_068
// 093   ----------------------------------------
	BYTE	PATT
	 POIN2	FirstCampaingCut_8_069
// 094   ----------------------------------------
	BYTE	PATT
	 POIN2	FirstCampaingCut_8_070
// 095   ----------------------------------------
	BYTE	PATT
	 POIN2	FirstCampaingCut_8_071
// 096   ----------------------------------------
	BYTE	PATT
	 POIN2	FirstCampaingCut_8_064
// 097   ----------------------------------------
	BYTE	PATT
	 POIN2	FirstCampaingCut_8_064
// 098   ----------------------------------------
FirstCampaingCut_8_098:
	BYTE		N09     Cs2   v088
	BYTE	W12
	BYTE		N09   
	BYTE	W12
	BYTE		N09   
	BYTE	W12
	BYTE		N09   
	BYTE	W12
	BYTE		N09   
	BYTE	W12
	BYTE		N09   
	BYTE	W12
	BYTE		N09   
	BYTE	W12
	BYTE		N09   
	BYTE	W12
	BYTE	PEND
// 099   ----------------------------------------
	BYTE	PATT
	 POIN2	FirstCampaingCut_8_098
// 100   ----------------------------------------
FirstCampaingCut_8_100:
	BYTE		N09     Dn1   v088
	BYTE	W12
	BYTE		N09   
	BYTE	W12
	BYTE		N09   
	BYTE	W12
	BYTE		N09   
	BYTE	W12
	BYTE		N09   
	BYTE	W12
	BYTE		N09   
	BYTE	W12
	BYTE		N09   
	BYTE	W12
	BYTE		N09   
	BYTE	W12
	BYTE	PEND
// 101   ----------------------------------------
	BYTE	PATT
	 POIN2	FirstCampaingCut_8_100
// 102   ----------------------------------------
	BYTE	PATT
	 POIN2	FirstCampaingCut_8_100
// 103   ----------------------------------------
	BYTE		N09     Dn1   v088
	BYTE	W12
	BYTE		N09   
	BYTE	W12
	BYTE		N09   
	BYTE	W12
	BYTE		N09   
	BYTE	W12
	BYTE		N09   
	BYTE	W12
	BYTE		N09   
	BYTE	W12
	BYTE		N09   
	BYTE	W12
	BYTE		N09   
	BYTE	W09
	BYTE		VOL     41*FirstCampaingCut_mvl/mxv
	BYTE		PAN     c_v+62
	BYTE	W03
// 104   ----------------------------------------
	BYTE	W03
	BYTE	GoTo
	 POIN2	FirstCampaingCut_8_B1
FirstCampaingCut_8_B2:
	BYTE	FINE

//******************************************************//
	ALIGN 4

FirstCampaingCut:
	BYTE	8	// NumTrks
	BYTE	0	// NumBlks
	BYTE	FirstCampaingCut_pri	// Priority
	BYTE	FirstCampaingCut_rev	// Reverb.

	POIN2	FirstCampaingCut_grp

	POIN2	FirstCampaingCut_1
	POIN2	FirstCampaingCut_2
	POIN2	FirstCampaingCut_3
	POIN2	FirstCampaingCut_4
	POIN2	FirstCampaingCut_5
	POIN2	FirstCampaingCut_6
	POIN2	FirstCampaingCut_7
	POIN2	FirstCampaingCut_8

	
