//Event file generated from Sappy .s format.
	#include "MPlayDef.event"

	#define	FlapperGirl_grp  voicegroup000
	#define	FlapperGirl_pri  0
	#define	FlapperGirl_rev  0
	#define	FlapperGirl_mvl  127
	#define	FlapperGirl_key  0
	#define	FlapperGirl_tbs  1
	#define	FlapperGirl_exg  0
	#define	FlapperGirl_cmp  1

	// .rodata
	//	FlapperGirl
	ALIGN 4


//**************** Track 1 (Midi-Chn.0) ****************//

FlapperGirl_001:
// 000   ----------------------------------------
 BYTE   KEYSH   FlapperGirl_key+0
Label_0_0101A962:
 BYTE   TEMPO   176*FlapperGirl_tbs/2
 BYTE   VOICE   79
 BYTE   PAN   c_v+0
 BYTE   VOL   74*FlapperGirl_mvl/mxv
 BYTE   W96
// 001   ----------------------------------------
 BYTE   W96
// 002   ----------------------------------------
 BYTE   W96
// 003   ----------------------------------------
 BYTE   W96
// 004   ----------------------------------------
 BYTE   W96
// 005   ----------------------------------------
 BYTE   W12
 BYTE   PAN   c_v+0
 BYTE   W84
// 006   ----------------------------------------
 BYTE   W96
// 007   ----------------------------------------
 BYTE   W96
// 008   ----------------------------------------
 BYTE   W96
// 009   ----------------------------------------
 BYTE   W96
// 010   ----------------------------------------
 BYTE   W96
// 011   ----------------------------------------
 BYTE   W96
// 012   ----------------------------------------
 BYTE   W96
// 013   ----------------------------------------
 BYTE   W96
// 014   ----------------------------------------
 BYTE   W96
// 015   ----------------------------------------
 BYTE   W96
// 016   ----------------------------------------
 BYTE   W96
// 017   ----------------------------------------
 BYTE   W96
// 018   ----------------------------------------
 BYTE   W96
// 019   ----------------------------------------
 BYTE   W96
// 020   ----------------------------------------
 BYTE   W96
// 021   ----------------------------------------
 BYTE   W96
// 022   ----------------------------------------
 BYTE   W96
// 023   ----------------------------------------
 BYTE   W96
// 024   ----------------------------------------
 BYTE   W96
// 025   ----------------------------------------
 BYTE   W96
// 026   ----------------------------------------
 BYTE   W96
// 027   ----------------------------------------
 BYTE   W96
// 028   ----------------------------------------
 BYTE   W96
// 029   ----------------------------------------
 BYTE   W96
// 030   ----------------------------------------
 BYTE   W96
// 031   ----------------------------------------
 BYTE   W96
// 032   ----------------------------------------
 BYTE   W96
// 033   ----------------------------------------
 BYTE   W96
// 034   ----------------------------------------
 BYTE   W96
// 035   ----------------------------------------
 BYTE   W96
// 036   ----------------------------------------
 BYTE   W96
// 037   ----------------------------------------
 BYTE   W96
// 038   ----------------------------------------
 BYTE   W96
// 039   ----------------------------------------
 BYTE   W96
// 040   ----------------------------------------
 BYTE   W96
// 041   ----------------------------------------
 BYTE   W96
// 042   ----------------------------------------
 BYTE   W96
// 043   ----------------------------------------
 BYTE   W96
// 044   ----------------------------------------
 BYTE   W96
// 045   ----------------------------------------
 BYTE   W96
// 046   ----------------------------------------
 BYTE   W96
// 047   ----------------------------------------
 BYTE   W96
// 048   ----------------------------------------
 BYTE   W96
// 049   ----------------------------------------
 BYTE   W96
// 050   ----------------------------------------
 BYTE   W96
// 051   ----------------------------------------
 BYTE   W96
// 052   ----------------------------------------
 BYTE   W96
// 053   ----------------------------------------
 BYTE   W96
// 054   ----------------------------------------
 BYTE   W96
// 055   ----------------------------------------
 BYTE   W78
 BYTE   VOICE   79
 BYTE   VOL   42*FlapperGirl_mvl/mxv
 BYTE   W01
 BYTE   PAN   c_v+0
 BYTE   W05
 BYTE   N06  Dn4  v080
 BYTE   W06
 BYTE   En4
 BYTE   W06
// 056   ----------------------------------------
 BYTE   N48  Fs4
 BYTE   W12
 BYTE   BEND   c_v+1
 BYTE   W01
 BYTE   Fs3
 BYTE   W02
 BYTE   Fn3
 BYTE   W01
 BYTE   En3
 BYTE   W02
 BYTE   Ds3
 BYTE   W01
 BYTE   Dn3
 BYTE   W02
 BYTE   Ds3
 BYTE   W01
 BYTE   En3
 BYTE   W02
 BYTE   Fs3
 BYTE   W01
 BYTE   Gn3
 BYTE   W02
 BYTE   Fs3
 BYTE   W01
 BYTE   En3
 BYTE   W02
 BYTE   Ds3
 BYTE   W01
 BYTE   Dn3
 BYTE   W02
 BYTE   Ds3
 BYTE   W01
 BYTE   En3
 BYTE   W02
 BYTE   Fs3
 BYTE   W01
 BYTE   Gs3
 BYTE   W02
 BYTE   Fs3
 BYTE   W01
 BYTE   En3
 BYTE   W02
 BYTE   Ds3
 BYTE   W01
 BYTE   Dn3
 BYTE   W02
 BYTE   Ds3
 BYTE   W01
 BYTE   En3
 BYTE   W02
 BYTE   N12  En4
 BYTE   W12
 BYTE   Dn4
 BYTE   W12
 BYTE   Cs4
 BYTE   W12
 BYTE   N60  Bn3
 BYTE   W12
// 057   ----------------------------------------
 BYTE   BEND   c_v+1
 BYTE   W01
 BYTE   Fs3
 BYTE   W02
 BYTE   Fn3
 BYTE   W01
 BYTE   En3
 BYTE   W02
 BYTE   Ds3
 BYTE   W01
 BYTE   Dn3
 BYTE   W02
 BYTE   Ds3
 BYTE   W01
 BYTE   En3
 BYTE   W02
 BYTE   Fs3
 BYTE   W01
 BYTE   Gn3
 BYTE   W02
 BYTE   Fs3
 BYTE   W01
 BYTE   En3
 BYTE   W02
 BYTE   Ds3
 BYTE   W01
 BYTE   Dn3
 BYTE   W02
 BYTE   Ds3
 BYTE   W01
 BYTE   En3
 BYTE   W02
 BYTE   Fs3
 BYTE   W01
 BYTE   Gs3
 BYTE   W02
 BYTE   Fs3
 BYTE   W01
 BYTE   En3
 BYTE   W02
 BYTE   Ds3
 BYTE   W01
 BYTE   Dn3
 BYTE   W02
 BYTE   Ds3
 BYTE   W01
 BYTE   En3
 BYTE   W02
 BYTE   Gn3
 BYTE   W01
 BYTE   An3
 BYTE   W02
 BYTE   Gn3
 BYTE   W01
 BYTE   En3
 BYTE   W02
 BYTE   Ds3
 BYTE   W01
 BYTE   Dn3
 BYTE   W02
 BYTE   Ds3
 BYTE   W01
 BYTE   En3
 BYTE   W02
 BYTE   N12
 BYTE   W12
 BYTE   En4
 BYTE   W12
 BYTE   Gn3
 BYTE   W12
 BYTE   N24  An3
 BYTE   W12
// 058   ----------------------------------------
 BYTE   BEND   c_v+2
 BYTE   W01
 BYTE   Gn3
 BYTE   W02
 BYTE   Fs3
 BYTE   W01
 BYTE   En3
 BYTE   W02
 BYTE   Ds3
 BYTE   W01
 BYTE   Dn3
 BYTE   W02
 BYTE   Ds3
 BYTE   W01
 BYTE   En3
 BYTE   W02
 BYTE   N04  Bn3
 BYTE   W12
 BYTE   N12  Cs4
 BYTE   W12
 BYTE   N04  Dn4
 BYTE   W12
 BYTE   En4
 BYTE   W12
 BYTE   N24  Fs4
 BYTE   W12
 BYTE   BEND   c_v+2
 BYTE   W01
 BYTE   Gn3
 BYTE   W02
 BYTE   Fs3
 BYTE   W01
 BYTE   En3
 BYTE   W02
 BYTE   Ds3
 BYTE   W01
 BYTE   Dn3
 BYTE   W02
 BYTE   Ds3
 BYTE   W01
 BYTE   En3
 BYTE   W02
 BYTE   N48  Gn4
 BYTE   W12
// 059   ----------------------------------------
 BYTE   BEND   c_v+1
 BYTE   W01
 BYTE   Fs3
 BYTE   W02
 BYTE   Fn3
 BYTE   W01
 BYTE   En3
 BYTE   W02
 BYTE   Ds3
 BYTE   W01
 BYTE   Dn3
 BYTE   W02
 BYTE   Ds3
 BYTE   W01
 BYTE   En3
 BYTE   W02
 BYTE   Fs3
 BYTE   W01
 BYTE   Gn3
 BYTE   W02
 BYTE   Fs3
 BYTE   W01
 BYTE   En3
 BYTE   W02
 BYTE   Ds3
 BYTE   W01
 BYTE   Dn3
 BYTE   W02
 BYTE   Ds3
 BYTE   W01
 BYTE   En3
 BYTE   W02
 BYTE   Fs3
 BYTE   W01
 BYTE   Gs3
 BYTE   W02
 BYTE   Fs3
 BYTE   W01
 BYTE   En3
 BYTE   W02
 BYTE   Ds3
 BYTE   W01
 BYTE   Dn3
 BYTE   W02
 BYTE   Ds3
 BYTE   W01
 BYTE   En3
 BYTE   W02
 BYTE   N24  An4
 BYTE   W12
 BYTE   BEND   c_v+2
 BYTE   W01
 BYTE   Gn3
 BYTE   W02
 BYTE   Fs3
 BYTE   W01
 BYTE   En3
 BYTE   W02
 BYTE   Ds3
 BYTE   W01
 BYTE   Dn3
 BYTE   W02
 BYTE   Ds3
 BYTE   W01
 BYTE   En3
 BYTE   W02
 BYTE   N04  Bn4
 BYTE   W12
 BYTE   Cs5
 BYTE   W12
 BYTE   N03  Cs5  v056
 BYTE   W03
 BYTE   N68  Dn5  v080
 BYTE   W09
// 060   ----------------------------------------
 BYTE   W12
 BYTE   BEND   c_v+1
 BYTE   W01
 BYTE   Fs3
 BYTE   W02
 BYTE   Fn3
 BYTE   W01
 BYTE   En3
 BYTE   W02
 BYTE   Ds3
 BYTE   W01
 BYTE   Dn3
 BYTE   W02
 BYTE   Ds3
 BYTE   W01
 BYTE   En3
 BYTE   W02
 BYTE   Fs3
 BYTE   W01
 BYTE   Gn3
 BYTE   W02
 BYTE   Fs3
 BYTE   W01
 BYTE   En3
 BYTE   W02
 BYTE   Ds3
 BYTE   W01
 BYTE   Dn3
 BYTE   W02
 BYTE   Ds3
 BYTE   W01
 BYTE   En3
 BYTE   W02
 BYTE   Fs3
 BYTE   W01
 BYTE   Gs3
 BYTE   W02
 BYTE   Fs3
 BYTE   W01
 BYTE   En3
 BYTE   W02
 BYTE   Ds3
 BYTE   W01
 BYTE   Dn3
 BYTE   W02
 BYTE   Ds3
 BYTE   W01
 BYTE   En3
 BYTE   W02
 BYTE   Gn3
 BYTE   W01
 BYTE   An3
 BYTE   W02
 BYTE   Gn3
 BYTE   W01
 BYTE   En3
 BYTE   W02
 BYTE   Ds3
 BYTE   W01
 BYTE   Dn3
 BYTE   W02
 BYTE   Ds3
 BYTE   W01
 BYTE   En3
 BYTE   W02
 BYTE   N12  Cs5
 BYTE   W12
 BYTE   N04  Bn4
 BYTE   W04
 BYTE   Cs5  v056
 BYTE   W04
 BYTE   Bn4
 BYTE   W04
 BYTE   N12  An4  v080
 BYTE   W12
// 061   ----------------------------------------
 BYTE   N60  Gn4
 BYTE   W18
 BYTE   BEND   c_v+1
 BYTE   W01
 BYTE   Fs3
 BYTE   W02
 BYTE   Fn3
 BYTE   W01
 BYTE   En3
 BYTE   W02
 BYTE   Ds3
 BYTE   W01
 BYTE   Dn3
 BYTE   W02
 BYTE   Ds3
 BYTE   W01
 BYTE   En3
 BYTE   W02
 BYTE   Fs3
 BYTE   W01
 BYTE   Gn3
 BYTE   W02
 BYTE   Fs3
 BYTE   W01
 BYTE   En3
 BYTE   W02
 BYTE   Ds3
 BYTE   W01
 BYTE   Dn3
 BYTE   W02
 BYTE   Ds3
 BYTE   W01
 BYTE   En3
 BYTE   W02
 BYTE   Fs3
 BYTE   W01
 BYTE   Gs3
 BYTE   W02
 BYTE   Fs3
 BYTE   W01
 BYTE   En3
 BYTE   W02
 BYTE   Ds3
 BYTE   W01
 BYTE   Dn3
 BYTE   W02
 BYTE   Ds3
 BYTE   W01
 BYTE   En3
 BYTE   W02
 BYTE   Gn3
 BYTE   W01
 BYTE   An3
 BYTE   W02
 BYTE   Gn3
 BYTE   W01
 BYTE   En3
 BYTE   W02
 BYTE   N04  Bn4
 BYTE   W12
 BYTE   Dn5
 BYTE   W12
 BYTE   N03  Cs5
 BYTE   W03
 BYTE   Dn5  v056
 BYTE   W03
 BYTE   N30  Cs5  v080
 BYTE   W06
// 062   ----------------------------------------
 BYTE   W06
 BYTE   BEND   c_v+2
 BYTE   W01
 BYTE   Gn3
 BYTE   W02
 BYTE   Fs3
 BYTE   W01
 BYTE   En3
 BYTE   W02
 BYTE   Ds3
 BYTE   W01
 BYTE   Dn3
 BYTE   W02
 BYTE   Ds3
 BYTE   W01
 BYTE   En3
 BYTE   W02
 BYTE   Fs3
 BYTE   W01
 BYTE   Gs3
 BYTE   W02
 BYTE   Fs3
 BYTE   W01
 BYTE   En3
 BYTE   W02
 BYTE   N20  Bn4
 BYTE   W12
 BYTE   BEND   c_v+2
 BYTE   W01
 BYTE   Gn3
 BYTE   W02
 BYTE   Fs3
 BYTE   W01
 BYTE   En3
 BYTE   W04
 BYTE   N03  Bn4  v056
 BYTE   W03
 BYTE   N24  As4  v080
 BYTE   W13
 BYTE   BEND   c_v+2
 BYTE   W01
 BYTE   Gn3
 BYTE   W02
 BYTE   Fs3
 BYTE   W01
 BYTE   En3
 BYTE   W02
 BYTE   Ds3
 BYTE   W01
 BYTE   Dn3
 BYTE   W02
 BYTE   Ds3
 BYTE   W01
 BYTE   En3
 BYTE   W01
 BYTE   N16  Bn4
 BYTE   W16
 BYTE   N03  As4  v056
 BYTE   W03
 BYTE   N72  Bn4  v080
 BYTE   W06
// 063   ----------------------------------------
 BYTE   W12
 BYTE   BEND   c_v+1
 BYTE   W01
 BYTE   Fs3
 BYTE   W02
 BYTE   Fn3
 BYTE   W01
 BYTE   En3
 BYTE   W02
 BYTE   Ds3
 BYTE   W01
 BYTE   Dn3
 BYTE   W02
 BYTE   Ds3
 BYTE   W01
 BYTE   En3
 BYTE   W02
 BYTE   Fs3
 BYTE   W01
 BYTE   Gn3
 BYTE   W02
 BYTE   Fs3
 BYTE   W01
 BYTE   En3
 BYTE   W02
 BYTE   Ds3
 BYTE   W01
 BYTE   Dn3
 BYTE   W02
 BYTE   Ds3
 BYTE   W01
 BYTE   En3
 BYTE   W02
 BYTE   Fs3
 BYTE   W01
 BYTE   Gs3
 BYTE   W02
 BYTE   Fs3
 BYTE   W01
 BYTE   En3
 BYTE   W02
 BYTE   Ds3
 BYTE   W01
 BYTE   Dn3
 BYTE   W02
 BYTE   Ds3
 BYTE   W01
 BYTE   En3
 BYTE   W02
 BYTE   Fs3
 BYTE   W01
 BYTE   Gs3
 BYTE   W02
 BYTE   Fs3
 BYTE   W01
 BYTE   En3
 BYTE   W02
 BYTE   Ds3
 BYTE   W01
 BYTE   Dn3
 BYTE   W02
 BYTE   Ds3
 BYTE   W01
 BYTE   En3
 BYTE   W02
 BYTE   Fs3
 BYTE   W01
 BYTE   Gs3
 BYTE   W02
 BYTE   Fs3
 BYTE   W01
 BYTE   En3
 BYTE   W20
 BYTE   VOICE   56
 BYTE   VOL   99*FlapperGirl_mvl/mxv
 BYTE   W06
 BYTE   BEND   c_v+1
 BYTE   N54  Bn3  v088
 BYTE   W02
 BYTE   BEND   c_v+1
 BYTE   W01
 BYTE   Gn2
 BYTE   W01
 BYTE   Gs2
 BYTE   W02
// 064   ----------------------------------------
 BYTE   As2
 BYTE   W01
 BYTE   Bn2
 BYTE   W01
 BYTE   Cn3
 BYTE   W01
 BYTE   Cs3
 BYTE   W01
 BYTE   En3
 BYTE   W08
 BYTE   En3
 BYTE   W01
 BYTE   En3
 BYTE   W02
 BYTE   En3
 BYTE   W01
 BYTE   En3
 BYTE   W02
 BYTE   Ds3
 BYTE   W01
 BYTE   Ds3
 BYTE   W02
 BYTE   Ds3
 BYTE   W01
 BYTE   En3
 BYTE   W02
 BYTE   En3
 BYTE   W01
 BYTE   En3
 BYTE   W02
 BYTE   En3
 BYTE   W01
 BYTE   En3
 BYTE   W02
 BYTE   Ds3
 BYTE   W01
 BYTE   Ds3
 BYTE   W02
 BYTE   Ds3
 BYTE   W01
 BYTE   En3
 BYTE   W02
 BYTE   En3
 BYTE   W01
 BYTE   En3
 BYTE   W02
 BYTE   En3
 BYTE   W01
 BYTE   En3
 BYTE   W02
 BYTE   Ds3
 BYTE   W01
 BYTE   Ds3
 BYTE   W02
 BYTE   Ds3
 BYTE   W01
 BYTE   En3
 BYTE   W14
 BYTE   N12
 BYTE   W12
 BYTE   N12
 BYTE   W12
 BYTE   N48  Cs4
 BYTE   W12
// 065   ----------------------------------------
 BYTE   BEND   c_v+0
 BYTE   W01
 BYTE   En3
 BYTE   W02
 BYTE   En3
 BYTE   W01
 BYTE   En3
 BYTE   W02
 BYTE   Ds3
 BYTE   W01
 BYTE   Ds3
 BYTE   W02
 BYTE   Ds3
 BYTE   W01
 BYTE   En3
 BYTE   W02
 BYTE   En3
 BYTE   W01
 BYTE   En3
 BYTE   W02
 BYTE   En3
 BYTE   W01
 BYTE   En3
 BYTE   W02
 BYTE   Ds3
 BYTE   W01
 BYTE   Ds3
 BYTE   W02
 BYTE   Ds3
 BYTE   W01
 BYTE   En3
 BYTE   W02
 BYTE   En3
 BYTE   W01
 BYTE   En3
 BYTE   W02
 BYTE   En3
 BYTE   W01
 BYTE   En3
 BYTE   W02
 BYTE   Dn3
 BYTE   W01
 BYTE   Cn3
 BYTE   W01
 BYTE   As2
 BYTE   W01
 BYTE   An2
 BYTE   W01
 BYTE   Gn2
 BYTE   W01
 BYTE   Gn2
 BYTE   W01
 BYTE   Fn2
 BYTE   W12
 BYTE   Fs2
 BYTE   N12  En4
 BYTE   W01
 BYTE   BEND   c_v+0
 BYTE   W01
 BYTE   Cn3
 BYTE   W01
 BYTE   En3
 BYTE   W09
 BYTE   N12  Fs4
 BYTE   W12
 BYTE   Gn4
 BYTE   W12
 BYTE   En4
 BYTE   W12
// 066   ----------------------------------------
 BYTE   N36  Dn4
 BYTE   W05
 BYTE   BEND   c_v+0
 BYTE   W01
 BYTE   Cn3
 BYTE   W01
 BYTE   Bn2
 BYTE   W01
 BYTE   Bn2
 BYTE   W28
 BYTE   Bn2
 BYTE   N60
 BYTE   W03
 BYTE   BEND   c_v+0
 BYTE   W01
 BYTE   Cs3
 BYTE   W01
 BYTE   Dn3
 BYTE   W01
 BYTE   En3
 BYTE   W12
 BYTE   En3
 BYTE   W01
 BYTE   En3
 BYTE   W02
 BYTE   En3
 BYTE   W01
 BYTE   En3
 BYTE   W02
 BYTE   Ds3
 BYTE   W01
 BYTE   Ds3
 BYTE   W02
 BYTE   Ds3
 BYTE   W01
 BYTE   En3
 BYTE   W02
 BYTE   En3
 BYTE   W01
 BYTE   En3
 BYTE   W02
 BYTE   En3
 BYTE   W01
 BYTE   En3
 BYTE   W02
 BYTE   Ds3
 BYTE   W01
 BYTE   Ds3
 BYTE   W02
 BYTE   Ds3
 BYTE   W01
 BYTE   En3
 BYTE   W02
 BYTE   En3
 BYTE   W01
 BYTE   En3
 BYTE   W02
 BYTE   En3
 BYTE   W01
 BYTE   En3
 BYTE   W02
 BYTE   Ds3
 BYTE   W01
 BYTE   Ds3
 BYTE   W02
 BYTE   Ds3
 BYTE   W01
 BYTE   En3
 BYTE   W02
 BYTE   En3
 BYTE   W01
 BYTE   En3
 BYTE   W02
 BYTE   En3
 BYTE   W01
 BYTE   En3
 BYTE   W02
// 067   ----------------------------------------
 BYTE   W24
 BYTE   Fs2
 BYTE   N12  En4
 BYTE   W01
 BYTE   BEND   c_v+0
 BYTE   W01
 BYTE   Cn3
 BYTE   W01
 BYTE   En3
 BYTE   W09
 BYTE   N12  Dn4
 BYTE   W12
 BYTE   Cs4
 BYTE   W12
 BYTE   Dn4
 BYTE   W12
 BYTE   N06  Cs4
 BYTE   W06
 BYTE   Bn3
 BYTE   W06
 BYTE   N11  An3
 BYTE   W12
// 068   ----------------------------------------
 BYTE   BEND   c_v+0
 BYTE   N24  Bn3
 BYTE   W01
 BYTE   BEND   c_v-7
 BYTE   W01
 BYTE   Cn3
 BYTE   W01
 BYTE   En3
 BYTE   W21
 BYTE   N12
 BYTE   W12
 BYTE   N48  En4
 BYTE   W18
 BYTE   BEND   c_v+0
 BYTE   W01
 BYTE   En3
 BYTE   W02
 BYTE   En3
 BYTE   W01
 BYTE   En3
 BYTE   W02
 BYTE   Ds3
 BYTE   W01
 BYTE   Ds3
 BYTE   W02
 BYTE   Ds3
 BYTE   W01
 BYTE   En3
 BYTE   W02
 BYTE   En3
 BYTE   W01
 BYTE   En3
 BYTE   W02
 BYTE   En3
 BYTE   W01
 BYTE   En3
 BYTE   W02
 BYTE   Ds3
 BYTE   W01
 BYTE   Ds3
 BYTE   W02
 BYTE   Ds3
 BYTE   W01
 BYTE   En3
 BYTE   W02
 BYTE   Dn3
 BYTE   W01
 BYTE   Cs3
 BYTE   W01
 BYTE   Bn2
 BYTE   W01
 BYTE   As2
 BYTE   W01
 BYTE   Gs2
 BYTE   W01
 BYTE   Gn2
 BYTE   W01
 BYTE   Fn2
 BYTE   W12
// 069   ----------------------------------------
 BYTE   W12
 BYTE   Fs2
 BYTE   N12  An3
 BYTE   W01
 BYTE   BEND   c_v-7
 BYTE   W01
 BYTE   Cn3
 BYTE   W01
 BYTE   En3
 BYTE   W09
 BYTE   N12  Bn3
 BYTE   W12
 BYTE   N11  Cs4
 BYTE   W12
 BYTE   BEND   c_v-10
 BYTE   N12  Dn4
 BYTE   W01
 BYTE   BEND   c_v-7
 BYTE   W01
 BYTE   Cn3
 BYTE   W01
 BYTE   En3
 BYTE   W15
 BYTE   N08  En4
 BYTE   W18
 BYTE   N05  Fs4
 BYTE   W12
// 070   ----------------------------------------
 BYTE   BEND   c_v-5
 BYTE   N36  Gn4
 BYTE   W01
 BYTE   BEND   c_v-4
 BYTE   W01
 BYTE   Dn3
 BYTE   W01
 BYTE   En3
 BYTE   W15
 BYTE   En3
 BYTE   W01
 BYTE   En3
 BYTE   W02
 BYTE   En3
 BYTE   W01
 BYTE   En3
 BYTE   W02
 BYTE   Ds3
 BYTE   W01
 BYTE   Ds3
 BYTE   W02
 BYTE   Ds3
 BYTE   W01
 BYTE   En3
 BYTE   W02
 BYTE   En3
 BYTE   W01
 BYTE   En3
 BYTE   W02
 BYTE   En3
 BYTE   W01
 BYTE   En3
 BYTE   W02
 BYTE   N78  An4
 BYTE   W18
 BYTE   BEND   c_v+0
 BYTE   W01
 BYTE   En3
 BYTE   W02
 BYTE   En3
 BYTE   W01
 BYTE   En3
 BYTE   W02
 BYTE   Ds3
 BYTE   W01
 BYTE   Ds3
 BYTE   W02
 BYTE   Ds3
 BYTE   W01
 BYTE   En3
 BYTE   W02
 BYTE   En3
 BYTE   W01
 BYTE   En3
 BYTE   W02
 BYTE   En3
 BYTE   W01
 BYTE   En3
 BYTE   W02
 BYTE   Ds3
 BYTE   W01
 BYTE   Ds3
 BYTE   W02
 BYTE   Ds3
 BYTE   W01
 BYTE   En3
 BYTE   W02
 BYTE   En3
 BYTE   W01
 BYTE   En3
 BYTE   W02
 BYTE   En3
 BYTE   W01
 BYTE   En3
 BYTE   W02
 BYTE   Ds3
 BYTE   W01
 BYTE   Ds3
 BYTE   W02
 BYTE   Ds3
 BYTE   W01
 BYTE   En3
 BYTE   W02
 BYTE   En3
 BYTE   W01
 BYTE   En3
 BYTE   W02
 BYTE   En3
 BYTE   W01
 BYTE   En3
 BYTE   W02
// 071   ----------------------------------------
 BYTE   Ds3
 BYTE   W01
 BYTE   Ds3
 BYTE   W02
 BYTE   Ds3
 BYTE   W01
 BYTE   En3
 BYTE   W06
 BYTE   Dn3
 BYTE   W01
 BYTE   Dn3
 BYTE   W01
 BYTE   Bn2
 BYTE   W01
 BYTE   As2
 BYTE   W01
 BYTE   Gs2
 BYTE   W01
 BYTE   Gn2
 BYTE   W01
 BYTE   Fn2
 BYTE   W20
 BYTE   Bn2
 BYTE   N10  Dn4
 BYTE   W01
 BYTE   BEND   c_v-4
 BYTE   W01
 BYTE   Dn3
 BYTE   W01
 BYTE   En3
 BYTE   W09
 BYTE   Fs2
 BYTE   N08  Fs4
 BYTE   W01
 BYTE   BEND   c_v-7
 BYTE   W01
 BYTE   Cn3
 BYTE   W01
 BYTE   En3
 BYTE   W09
 BYTE   N06  Dn4
 BYTE   W12
 BYTE   BEND   c_v-5
 BYTE   N07  Gn4
 BYTE   W01
 BYTE   BEND   c_v-4
 BYTE   W01
 BYTE   Dn3
 BYTE   W01
 BYTE   En3
 BYTE   W09
 BYTE   N06  Dn4
 BYTE   W12
// 072   ----------------------------------------
 BYTE   BEND   c_v-10
 BYTE   N24  Bn4
 BYTE   W01
 BYTE   BEND   c_v-7
 BYTE   W01
 BYTE   Cn3
 BYTE   W01
 BYTE   En3
 BYTE   W15
 BYTE   En3
 BYTE   W01
 BYTE   En3
 BYTE   W02
 BYTE   En3
 BYTE   W01
 BYTE   En3
 BYTE   W02
 BYTE   N10  Dn4
 BYTE   W24
 BYTE   BEND   c_v-5
 BYTE   N24
 BYTE   W01
 BYTE   BEND   c_v-4
 BYTE   W01
 BYTE   Dn3
 BYTE   W01
 BYTE   En3
 BYTE   W15
 BYTE   En3
 BYTE   W01
 BYTE   En3
 BYTE   W02
 BYTE   En3
 BYTE   W01
 BYTE   En3
 BYTE   W02
 BYTE   N12  Cs4
 BYTE   W12
 BYTE   N24
 BYTE   W12
// 073   ----------------------------------------
 BYTE   W06
 BYTE   BEND   c_v+0
 BYTE   W01
 BYTE   En3
 BYTE   W02
 BYTE   En3
 BYTE   W01
 BYTE   En3
 BYTE   W02
 BYTE   N23  Bn3
 BYTE   W09
 BYTE   BEND   c_v-2
 BYTE   W01
 BYTE   Cn3
 BYTE   W02
 BYTE   Bn2
 BYTE   W01
 BYTE   An2
 BYTE   W01
 BYTE   Gn2
 BYTE   W01
 BYTE   Fs2
 BYTE   W01
 BYTE   Fn2
 BYTE   W08
 BYTE   En3
 BYTE   N24  An3
 BYTE   W18
 BYTE   BEND   c_v+0
 BYTE   W01
 BYTE   En3
 BYTE   W02
 BYTE   En3
 BYTE   W01
 BYTE   En3
 BYTE   W14
 BYTE   N12  Dn4
 BYTE   W12
 BYTE   N11  En4
 BYTE   W11
 BYTE   BEND   c_v+0
 BYTE   W01
// 074   ----------------------------------------
 BYTE   Fs2
 BYTE   N24  Fs4
 BYTE   W01
 BYTE   BEND   c_v-7
 BYTE   W01
 BYTE   Cn3
 BYTE   W01
 BYTE   En3
 BYTE   W15
 BYTE   En3
 BYTE   W01
 BYTE   En3
 BYTE   W02
 BYTE   En3
 BYTE   W01
 BYTE   En3
 BYTE   W02
 BYTE   N12  Gn4
 BYTE   W12
 BYTE   N24  Fs4
 BYTE   W18
 BYTE   BEND   c_v+0
 BYTE   W01
 BYTE   En3
 BYTE   W02
 BYTE   En3
 BYTE   W01
 BYTE   En3
 BYTE   W02
 BYTE   N24  Gn4
 BYTE   W18
 BYTE   BEND   c_v+0
 BYTE   W01
 BYTE   En3
 BYTE   W02
 BYTE   En3
 BYTE   W01
 BYTE   En3
 BYTE   W02
 BYTE   N24  Fs4
 BYTE   W12
// 075   ----------------------------------------
 BYTE   W06
 BYTE   BEND   c_v+0
 BYTE   W01
 BYTE   En3
 BYTE   W02
 BYTE   En3
 BYTE   W01
 BYTE   En3
 BYTE   W02
 BYTE   N23  En4
 BYTE   W09
 BYTE   BEND   c_v-1
 BYTE   W01
 BYTE   Dn3
 BYTE   W02
 BYTE   Cs3
 BYTE   W01
 BYTE   Cn3
 BYTE   W01
 BYTE   Bn2
 BYTE   W01
 BYTE   Bn2
 BYTE   W01
 BYTE   As2
 BYTE   W08
 BYTE   En3
 BYTE   N24  Ds4
 BYTE   W18
 BYTE   BEND   c_v+0
 BYTE   W01
 BYTE   En3
 BYTE   W02
 BYTE   En3
 BYTE   W01
 BYTE   En3
 BYTE   W05
 BYTE   As2
 BYTE   W01
 BYTE   N15  Cn5
 BYTE   W04
 BYTE   BEND   c_v+0
 BYTE   W12
 BYTE   N15  Bn4
 BYTE   W16
// 076   ----------------------------------------
 BYTE   N32  An4
 BYTE   W18
 BYTE   BEND   c_v+0
 BYTE   W01
 BYTE   En3
 BYTE   W02
 BYTE   En3
 BYTE   W01
 BYTE   En3
 BYTE   W02
 BYTE   Ds3
 BYTE   W01
 BYTE   Ds3
 BYTE   W02
 BYTE   Ds3
 BYTE   W01
 BYTE   En3
 BYTE   W02
 BYTE   En3
 BYTE   W01
 BYTE   En3
 BYTE   W02
 BYTE   En3
 BYTE   W01
 BYTE   En3
 BYTE   W02
 BYTE   As2
 BYTE   N24  Gn4
 BYTE   W03
 BYTE   BEND   c_v+0
 BYTE   W15
 BYTE   En3
 BYTE   W01
 BYTE   En3
 BYTE   W02
 BYTE   En3
 BYTE   W01
 BYTE   En3
 BYTE   W02
 BYTE   N12
 BYTE   W12
 BYTE   N11  Fs4
 BYTE   W12
 BYTE   BEND   c_v-5
 BYTE   N36  Gn4
 BYTE   W01
 BYTE   BEND   c_v-4
 BYTE   W01
 BYTE   Dn3
 BYTE   W01
 BYTE   En3
 BYTE   W09
// 077   ----------------------------------------
 BYTE   W06
 BYTE   En3
 BYTE   W01
 BYTE   En3
 BYTE   W02
 BYTE   En3
 BYTE   W01
 BYTE   En3
 BYTE   W02
 BYTE   Ds3
 BYTE   W01
 BYTE   Ds3
 BYTE   W02
 BYTE   Ds3
 BYTE   W01
 BYTE   En3
 BYTE   W02
 BYTE   En3
 BYTE   W01
 BYTE   En3
 BYTE   W02
 BYTE   En3
 BYTE   W01
 BYTE   En3
 BYTE   W02
 BYTE   N11  An4
 BYTE   W12
 BYTE   BEND   c_v-5
 BYTE   N36  Gn4
 BYTE   W01
 BYTE   BEND   c_v-4
 BYTE   W01
 BYTE   Dn3
 BYTE   W01
 BYTE   En3
 BYTE   W15
 BYTE   En3
 BYTE   W01
 BYTE   En3
 BYTE   W02
 BYTE   En3
 BYTE   W01
 BYTE   En3
 BYTE   W02
 BYTE   Ds3
 BYTE   W01
 BYTE   Ds3
 BYTE   W02
 BYTE   Ds3
 BYTE   W01
 BYTE   En3
 BYTE   W02
 BYTE   En3
 BYTE   W01
 BYTE   En3
 BYTE   W02
 BYTE   En3
 BYTE   W01
 BYTE   En3
 BYTE   W02
 BYTE   N12  Fs4
 BYTE   W12
 BYTE   N24  Cs4
 BYTE   W12
// 078   ----------------------------------------
 BYTE   W06
 BYTE   BEND   c_v+0
 BYTE   W01
 BYTE   En3
 BYTE   W02
 BYTE   En3
 BYTE   W01
 BYTE   En3
 BYTE   W02
 BYTE   N12  Dn4
 BYTE   W12
 BYTE   N04  En4
 BYTE   W12
 BYTE   N24  Fs4
 BYTE   W18
 BYTE   BEND   c_v+0
 BYTE   W01
 BYTE   En3
 BYTE   W02
 BYTE   En3
 BYTE   W01
 BYTE   En3
 BYTE   W02
 BYTE   N12
 BYTE   W12
 BYTE   N11  Gn4
 BYTE   W12
 BYTE   BEND   c_v-10
 BYTE   N24  Fs4
 BYTE   W01
 BYTE   BEND   c_v-7
 BYTE   W01
 BYTE   Cn3
 BYTE   W01
 BYTE   En3
 BYTE   W09
// 079   ----------------------------------------
 BYTE   W06
 BYTE   En3
 BYTE   W01
 BYTE   En3
 BYTE   W02
 BYTE   En3
 BYTE   W01
 BYTE   En3
 BYTE   W02
 BYTE   N12  En4
 BYTE   W12
 BYTE   Dn4
 BYTE   W12
 BYTE   N24  Cs4
 BYTE   W10
 BYTE   BEND   c_v-1
 BYTE   W03
 BYTE   Dn3
 BYTE   W02
 BYTE   Cs3
 BYTE   W01
 BYTE   Cn3
 BYTE   W01
 BYTE   Bn2
 BYTE   W01
 BYTE   An2
 BYTE   W01
 BYTE   Gn2
 BYTE   W01
 BYTE   En2
 BYTE   W01
 BYTE   Cn2
 BYTE   W01
 BYTE   Gs1
 BYTE   W01
 BYTE   Fs1
 BYTE   W01
 BYTE   Dn1
 BYTE   W36
// 080   ----------------------------------------
 BYTE   W96
// 081   ----------------------------------------
 BYTE   W96
// 082   ----------------------------------------
 BYTE   W96
// 083   ----------------------------------------
 BYTE   W96
// 084   ----------------------------------------
 BYTE   W96
// 085   ----------------------------------------
 BYTE   W96
// 086   ----------------------------------------
 BYTE   W96
// 087   ----------------------------------------
 BYTE   W96
// 088   ----------------------------------------
 BYTE   W96
// 089   ----------------------------------------
 BYTE   W96
// 090   ----------------------------------------
 BYTE   W96
// 091   ----------------------------------------
 BYTE   W96
// 092   ----------------------------------------
 BYTE   W96
// 093   ----------------------------------------
 BYTE   W96
// 094   ----------------------------------------
 BYTE   W96
// 095   ----------------------------------------
 BYTE   W96
// 096   ----------------------------------------
 BYTE   W96
// 097   ----------------------------------------
 BYTE   W96
// 098   ----------------------------------------
 BYTE   W96
// 099   ----------------------------------------
 BYTE   W96
// 100   ----------------------------------------
 BYTE   W96
// 101   ----------------------------------------
 BYTE   W96
// 102   ----------------------------------------
 BYTE   W96
// 103   ----------------------------------------
 BYTE   W66
 BYTE   VOICE   47
 BYTE   VOL   40*FlapperGirl_mvl/mxv
 BYTE   W06
 BYTE   N22  An3  v092
 BYTE   N22  An4  v108
 BYTE   W24
// 104   ----------------------------------------
 BYTE   GoTo
  POIN2 Label_0_0101A962
 BYTE   FINE

//**************** Track 2 (Midi-Chn.1) ****************//

FlapperGirl_002:
// 000   ----------------------------------------
 BYTE   KEYSH   FlapperGirl_key+0
Label_1_0101AFC6:
 BYTE   VOICE   33
 BYTE   PAN   c_v+0
 BYTE   VOL   64*FlapperGirl_mvl/mxv
 BYTE   N56  Bn0  v112
 BYTE   W60
 BYTE   N10  An0  v108
 BYTE   W24
 BYTE   N52  En0  v112
 BYTE   W12
// 001   ----------------------------------------
 BYTE   W42
 BYTE   N05  En1  v096
 BYTE   W06
 BYTE   En1  v104
 BYTE   W12
 BYTE   En1  v100
 BYTE   W12
 BYTE   N23  Gn0  v112
 BYTE   W24
// 002   ----------------------------------------
 BYTE   N56  An0
 BYTE   W60
 BYTE   N10  An0  v108
 BYTE   W24
 BYTE   N23  As0  v112
 BYTE   W12
// 003   ----------------------------------------
 BYTE   W12
 BYTE   N11  As0  v100
 BYTE   W12
 BYTE   N23  Cs1  v108
 BYTE   W24
 BYTE   N11  Fs1  v112
 BYTE   W12
 BYTE   En1  v108
 BYTE   W12
 BYTE   Dn1
 BYTE   W12
 BYTE   N23  Bn0  v112
 BYTE   W12
// 004   ----------------------------------------
 BYTE   W12
 BYTE   N11  Bn0  v100
 BYTE   W12
 BYTE   Bn0  v112
 BYTE   W12
 BYTE   Bn0  v100
 BYTE   W12
 BYTE   Bn0  v112
 BYTE   W12
 BYTE   N12  An0
 BYTE   W24
 BYTE   N23  Gn0
 BYTE   W12
// 005   ----------------------------------------
 BYTE   W12
 BYTE   N11  Gn0  v100
 BYTE   W12
 BYTE   Gn0  v112
 BYTE   W12
 BYTE   Gn0  v100
 BYTE   W12
 BYTE   Gn0  v112
 BYTE   W12
 BYTE   N12
 BYTE   W24
 BYTE   N23  Cs1
 BYTE   W12
// 006   ----------------------------------------
 BYTE   W12
 BYTE   N11  Cs1  v100
 BYTE   W12
 BYTE   Cs1  v112
 BYTE   W12
 BYTE   Cs1  v100
 BYTE   W12
 BYTE   Cs1  v112
 BYTE   W12
 BYTE   Cn1  v104
 BYTE   W12
 BYTE   Cs1  v108
 BYTE   W12
 BYTE   N12  Fs0  v112
 BYTE   W12
// 007   ----------------------------------------
 BYTE   W12
 BYTE   N11  Fs1
 BYTE   W12
 BYTE   Fs1  v108
 BYTE   W12
 BYTE   BEND   c_v-6
 BYTE   N11  Fs1  v100
 BYTE   W03
 BYTE   BEND   c_v+0
 BYTE   W09
 BYTE   N11  Fs1  v112
 BYTE   W12
 BYTE   Fs1  v104
 BYTE   W12
 BYTE   Fs0  v112
 BYTE   W12
 BYTE   As0  v104
 BYTE   W12
// 008   ----------------------------------------
Label_1_0101B064:
 BYTE   N11  Bn0  v108
 BYTE   W12
 BYTE   N12
 BYTE   W24
 BYTE   N11  An0  v104
 BYTE   W12
 BYTE   Bn0  v108
 BYTE   W12
 BYTE   N12
 BYTE   W24
 BYTE   N18  En0
 BYTE   W12
 BYTE   PEND 
// 009   ----------------------------------------
Label_1_0101B077:
 BYTE   W12
 BYTE   N03  En1  v104
 BYTE   W12
 BYTE   N11  Fs0  v108
 BYTE   W12
 BYTE   N03  Fs1  v104
 BYTE   W12
 BYTE   N11  Gn0  v108
 BYTE   W12
 BYTE   N03  Gn1  v104
 BYTE   W12
 BYTE   N11  En0  v108
 BYTE   W12
 BYTE   N03  En1  v104
 BYTE   W12
 BYTE   PEND 
// 010   ----------------------------------------
Label_1_0101B095:
 BYTE   N11  An0  v108
 BYTE   W12
 BYTE   N24  An1  v104
 BYTE   W30
 BYTE   N05  Gn0
 BYTE   W06
 BYTE   BEND   c_v-5
 BYTE   N24  An0  v108
 BYTE   W02
 BYTE   BEND   c_v-6
 BYTE   W01
 BYTE   En3
 BYTE   W32
 BYTE   W01
 BYTE   N23  Dn1
 BYTE   W12
 BYTE   PEND 
// 011   ----------------------------------------
Label_1_0101B0B0:
 BYTE   W12
 BYTE   N03  Dn2  v104
 BYTE   W12
 BYTE   N12  Dn1  v108
 BYTE   W18
 BYTE   N05  Dn1  v104
 BYTE   W06
 BYTE   N03  Cs1  v108
 BYTE   W12
 BYTE   N18
 BYTE   W24
 BYTE   N09  Cs1  v104
 BYTE   W12
 BYTE   PEND 
// 012   ----------------------------------------
Label_1_0101B0C8:
 BYTE   N24  Bn0  v108
 BYTE   W30
 BYTE   N05  Fs0  v100
 BYTE   W06
 BYTE   N11  An0  v104
 BYTE   W12
 BYTE   Bn0  v108
 BYTE   W12
 BYTE   An0  v104
 BYTE   W12
 BYTE   Gn0  v108
 BYTE   W12
 BYTE   Fs0  v104
 BYTE   W12
 BYTE   PEND 
// 013   ----------------------------------------
Label_1_0101B0E1:
 BYTE   N11  En0  v108
 BYTE   W12
 BYTE   En1  v104
 BYTE   W12
 BYTE   Fs0  v108
 BYTE   W12
 BYTE   Fs1  v104
 BYTE   W12
 BYTE   Gn0  v108
 BYTE   W12
 BYTE   Gn1  v104
 BYTE   W12
 BYTE   N03  En0  v108
 BYTE   W12
 BYTE   N11  An0
 BYTE   W12
 BYTE   PEND 
// 014   ----------------------------------------
Label_1_0101B0FC:
 BYTE   N11  An0  v104
 BYTE   W12
 BYTE   An1  v108
 BYTE   W12
 BYTE   An1  v104
 BYTE   W12
 BYTE   As0  v108
 BYTE   W12
 BYTE   As0  v104
 BYTE   W12
 BYTE   As1  v108
 BYTE   W12
 BYTE   As1  v104
 BYTE   W12
 BYTE   N23  Bn0  v108
 BYTE   W12
 BYTE   PEND 
// 015   ----------------------------------------
Label_1_0101B117:
 BYTE   W12
 BYTE   N11  Bn1  v104
 BYTE   W12
 BYTE   Cs1  v108
 BYTE   W12
 BYTE   Cs2  v104
 BYTE   W12
 BYTE   Dn1  v108
 BYTE   W12
 BYTE   Dn2  v104
 BYTE   W12
 BYTE   Bn0  v108
 BYTE   W12
 BYTE   Bn1  v104
 BYTE   W12
 BYTE   PEND 
// 016   ----------------------------------------
Label_1_0101B12F:
 BYTE   N17  Gn0  v108
 BYTE   W18
 BYTE   N05  Gn0  v096
 BYTE   W06
 BYTE   N17  Gn0  v104
 BYTE   W18
 BYTE   N11  Gn1  v100
 BYTE   W12
 BYTE   N05  Gn1  v112
 BYTE   W06
 BYTE   N11  Gn0  v100
 BYTE   W12
 BYTE   An0  v108
 BYTE   W12
 BYTE   Gn0  v104
 BYTE   W12
 BYTE   PEND 
// 017   ----------------------------------------
Label_1_0101B14E:
 BYTE   N17  An0  v108
 BYTE   W18
 BYTE   N05  An0  v096
 BYTE   W06
 BYTE   N17  An0  v104
 BYTE   W18
 BYTE   N11  An1  v100
 BYTE   W12
 BYTE   N05  An1  v112
 BYTE   W06
 BYTE   N11  An0  v100
 BYTE   W12
 BYTE   An0  v108
 BYTE   W12
 BYTE   An0  v104
 BYTE   W12
 BYTE   PEND 
// 018   ----------------------------------------
Label_1_0101B16D:
 BYTE   N17  Bn0  v108
 BYTE   W18
 BYTE   N05  Bn0  v096
 BYTE   W06
 BYTE   N17  Bn0  v104
 BYTE   W18
 BYTE   N11  Bn0  v100
 BYTE   W12
 BYTE   N05  Bn0  v112
 BYTE   W06
 BYTE   N11  An0  v100
 BYTE   W12
 BYTE   Bn0  v104
 BYTE   W12
 BYTE   N10  As0  v108
 BYTE   W12
 BYTE   PEND 
// 019   ----------------------------------------
Label_1_0101B18D:
 BYTE   W12
 BYTE   N10  Cs1  v108
 BYTE   W24
 BYTE   As0
 BYTE   W18
 BYTE   N04  As0  v100
 BYTE   W06
 BYTE   N11  Fs0  v108
 BYTE   W12
 BYTE   N11
 BYTE   W12
 BYTE   N11
 BYTE   W12
 BYTE   PEND 
// 020   ----------------------------------------
Label_1_0101B1A1:
 BYTE   N11  Gn0  v108
 BYTE   W12
 BYTE   Gn0  v096
 BYTE   W12
 BYTE   N17  Gn0  v104
 BYTE   W18
 BYTE   N11  Gn1  v100
 BYTE   W12
 BYTE   N05  Gn1  v112
 BYTE   W06
 BYTE   N11  Gn0  v100
 BYTE   W12
 BYTE   Gn0  v108
 BYTE   W12
 BYTE   Gn0  v104
 BYTE   W12
 BYTE   PEND 
// 021   ----------------------------------------
Label_1_0101B1BF:
 BYTE   N11  An0  v108
 BYTE   W12
 BYTE   An0  v096
 BYTE   W12
 BYTE   N17  An0  v104
 BYTE   W18
 BYTE   N11  An1  v100
 BYTE   W12
 BYTE   N05  An1  v112
 BYTE   W06
 BYTE   N11  An0  v100
 BYTE   W12
 BYTE   An0  v108
 BYTE   W12
 BYTE   An0  v104
 BYTE   W12
 BYTE   PEND 
// 022   ----------------------------------------
Label_1_0101B1DD:
 BYTE   N17  Dn1  v108
 BYTE   W18
 BYTE   N05  Dn1  v096
 BYTE   W06
 BYTE   N17  Dn1  v104
 BYTE   W18
 BYTE   N11  Dn1  v100
 BYTE   W12
 BYTE   N05  Dn1  v112
 BYTE   W06
 BYTE   N11  Dn1  v100
 BYTE   W12
 BYTE   Cs1  v104
 BYTE   W12
 BYTE   Cs1  v108
 BYTE   W12
 BYTE   PEND 
// 023   ----------------------------------------
Label_1_0101B1FC:
 BYTE   N17  Cn1  v108
 BYTE   W18
 BYTE   N05  Cn1  v096
 BYTE   W06
 BYTE   N17  Cn1  v104
 BYTE   W18
 BYTE   N11  Cn1  v100
 BYTE   W12
 BYTE   N05  Cn1  v112
 BYTE   W06
 BYTE   N11  Fs0  v100
 BYTE   W12
 BYTE   An0  v104
 BYTE   W12
 BYTE   Dn1  v108
 BYTE   W12
 BYTE   PEND 
// 024   ----------------------------------------
Label_1_0101B21B:
 BYTE   N11  Gn0  v108
 BYTE   W12
 BYTE   Gn0  v104
 BYTE   W12
 BYTE   Gn0  v108
 BYTE   W12
 BYTE   Gn0  v104
 BYTE   W12
 BYTE   Gn0  v108
 BYTE   W12
 BYTE   Gn0  v104
 BYTE   W12
 BYTE   Gn0  v108
 BYTE   W12
 BYTE   Gn0  v104
 BYTE   W12
 BYTE   PEND 
// 025   ----------------------------------------
Label_1_0101B235:
 BYTE   N11  Gn0  v108
 BYTE   W12
 BYTE   Gn0  v104
 BYTE   W12
 BYTE   Gn0  v108
 BYTE   W12
 BYTE   Gn0  v104
 BYTE   W12
 BYTE   Gn0  v108
 BYTE   W12
 BYTE   Gn0  v104
 BYTE   W12
 BYTE   Gn0  v108
 BYTE   W12
 BYTE   N23  Dn1
 BYTE   W12
 BYTE   PEND 
// 026   ----------------------------------------
Label_1_0101B24F:
 BYTE   W12
 BYTE   N11  Dn1  v104
 BYTE   W12
 BYTE   BEND   c_v-6
 BYTE   N23  Dn1  v108
 BYTE   W06
 BYTE   BEND   c_v+0
 BYTE   W18
 BYTE   As2
 BYTE   N11
 BYTE   W03
 BYTE   BEND   c_v+0
 BYTE   W09
 BYTE   N11  Dn1  v104
 BYTE   W12
 BYTE   Dn1  v108
 BYTE   W12
 BYTE   N12  Ds0
 BYTE   W12
 BYTE   PEND 
// 027   ----------------------------------------
Label_1_0101B26E:
 BYTE   W12
 BYTE   N11  Ds0  v104
 BYTE   W12
 BYTE   BEND   c_v-6
 BYTE   N23  Ds0  v108
 BYTE   W06
 BYTE   BEND   c_v+0
 BYTE   W18
 BYTE   As2
 BYTE   N11
 BYTE   W03
 BYTE   BEND   c_v+0
 BYTE   W09
 BYTE   N11  Ds0  v104
 BYTE   W12
 BYTE   Ds0  v108
 BYTE   W12
 BYTE   BEND   c_v-6
 BYTE   N11  Ds0  v104
 BYTE   W03
 BYTE   BEND   c_v+0
 BYTE   W09
 BYTE   PEND 
// 028   ----------------------------------------
Label_1_0101B293:
 BYTE   N11  En0  v108
 BYTE   W12
 BYTE   En0  v104
 BYTE   W12
 BYTE   En0  v108
 BYTE   W12
 BYTE   BEND   c_v-5
 BYTE   N11
 BYTE   W03
 BYTE   BEND   c_v+0
 BYTE   W09
 BYTE   N11
 BYTE   W12
 BYTE   En0  v104
 BYTE   W12
 BYTE   En0  v108
 BYTE   W12
 BYTE   En0  v104
 BYTE   W12
 BYTE   PEND 
// 029   ----------------------------------------
Label_1_0101B2B0:
 BYTE   N11  Dn0  v108
 BYTE   W12
 BYTE   Dn0  v104
 BYTE   W12
 BYTE   BEND   c_v-6
 BYTE   N11  Dn0  v108
 BYTE   W04
 BYTE   BEND   c_v+0
 BYTE   W08
 BYTE   N11
 BYTE   W12
 BYTE   N11
 BYTE   W12
 BYTE   Dn0  v104
 BYTE   W12
 BYTE   Dn0  v108
 BYTE   W12
 BYTE   N23  Cs0
 BYTE   W12
 BYTE   PEND 
// 030   ----------------------------------------
Label_1_0101B2CE:
 BYTE   W12
 BYTE   N10  Cs0  v108
 BYTE   W24
 BYTE   N23  Gn0  v112
 BYTE   W24
 BYTE   N10  Bn0  v108
 BYTE   W24
 BYTE   N23  Fs1  v112
 BYTE   W12
 BYTE   PEND 
// 031   ----------------------------------------
Label_1_0101B2E0:
 BYTE   W12
 BYTE   N11  Fs0  v104
 BYTE   W12
 BYTE   Bn0  v108
 BYTE   W12
 BYTE   N10  Fs1  v112
 BYTE   W48
 BYTE   N23  Bn0
 BYTE   W12
 BYTE   PEND 
// 032   ----------------------------------------
Label_1_0101B2F0:
 BYTE   W12
 BYTE   N05  Bn1  v104
 BYTE   W06
 BYTE   N05
 BYTE   W06
 BYTE   N11  Bn0  v112
 BYTE   W12
 BYTE   N05  Bn0  v104
 BYTE   W06
 BYTE   N05
 BYTE   W06
 BYTE   N11  Bn0  v112
 BYTE   W12
 BYTE   N11
 BYTE   W12
 BYTE   An0  v108
 BYTE   W12
 BYTE   N23  En0  v112
 BYTE   W12
 BYTE   PEND 
// 033   ----------------------------------------
Label_1_0101B30F:
 BYTE   W12
 BYTE   N05  En1  v104
 BYTE   W06
 BYTE   N05
 BYTE   W06
 BYTE   N17  En0  v112
 BYTE   W18
 BYTE   N05  En1  v104
 BYTE   W06
 BYTE   N11  En1  v112
 BYTE   W12
 BYTE   En0
 BYTE   W12
 BYTE   En1  v108
 BYTE   W12
 BYTE   N23  An0  v112
 BYTE   W12
 BYTE   PEND 
// 034   ----------------------------------------
Label_1_0101B32C:
 BYTE   W12
 BYTE   N11  An1  v112
 BYTE   W12
 BYTE   An0  v104
 BYTE   W12
 BYTE   N23  Gn0  v112
 BYTE   W24
 BYTE   Gn0  v104
 BYTE   W24
 BYTE   Dn0  v112
 BYTE   W12
 BYTE   PEND 
// 035   ----------------------------------------
Label_1_0101B33F:
 BYTE   W12
 BYTE   N11  Dn1  v112
 BYTE   W12
 BYTE   Dn0  v104
 BYTE   W12
 BYTE   N23  Ds0  v112
 BYTE   W24
 BYTE   N11  En0  v104
 BYTE   W12
 BYTE   Fs0  v108
 BYTE   W12
 BYTE   An0  v112
 BYTE   W12
 BYTE   PEND 
// 036   ----------------------------------------
 BYTE   Cn1
 BYTE   W12
 BYTE   Bn0  v104
 BYTE   W12
 BYTE   N17  Cn1  v112
 BYTE   W18
 BYTE   N05  Gn0  v104
 BYTE   W06
 BYTE   N11  Bn0  v112
 BYTE   W12
 BYTE   N12  Cn1
 BYTE   W24
 BYTE   N22  Bn0
 BYTE   W12
// 037   ----------------------------------------
Label_1_0101B36D:
 BYTE   W12
 BYTE   N11  Bn1  v108
 BYTE   W12
 BYTE   Cs1  v112
 BYTE   W12
 BYTE   Cs2  v108
 BYTE   W12
 BYTE   Dn1  v112
 BYTE   W12
 BYTE   Dn2  v108
 BYTE   W12
 BYTE   Bn0  v104
 BYTE   W12
 BYTE   N23  En0  v112
 BYTE   W12
 BYTE   PEND 
// 038   ----------------------------------------
Label_1_0101B386:
 BYTE   W12
 BYTE   N23  En0  v104
 BYTE   W24
 BYTE   Gn0  v112
 BYTE   W24
 BYTE   Gn0  v104
 BYTE   W24
 BYTE   Fs0  v112
 BYTE   W12
 BYTE   PEND 
// 039   ----------------------------------------
Label_1_0101B395:
 BYTE   W12
 BYTE   N11  Bn0  v104
 BYTE   W12
 BYTE   Cs1  v108
 BYTE   W12
 BYTE   N23  Fs1  v112
 BYTE   W24
 BYTE   N11  Fs0
 BYTE   W12
 BYTE   Fs1  v108
 BYTE   W12
 BYTE   N23  Bn0  v112
 BYTE   W12
 BYTE   PEND 
// 040   ----------------------------------------
Label_1_0101B3AC:
 BYTE   W12
 BYTE   N04  Bn0  v096
 BYTE   W12
 BYTE   N12  Bn0  v104
 BYTE   W18
 BYTE   N05
 BYTE   W06
 BYTE   N11  Bn0  v112
 BYTE   W12
 BYTE   N04  Bn0  v100
 BYTE   W12
 BYTE   N11  Bn0  v108
 BYTE   W12
 BYTE   N23  En1  v112
 BYTE   W12
 BYTE   PEND 
// 041   ----------------------------------------
Label_1_0101B3C8:
 BYTE   W12
 BYTE   N11  En1  v104
 BYTE   W12
 BYTE   N12  En0  v112
 BYTE   W18
 BYTE   N05  En0  v104
 BYTE   W06
 BYTE   N11  En0  v112
 BYTE   W12
 BYTE   En1
 BYTE   W12
 BYTE   Dn1  v108
 BYTE   W12
 BYTE   N23  An0  v112
 BYTE   W12
 BYTE   PEND 
// 042   ----------------------------------------
Label_1_0101B3E3:
 BYTE   W12
 BYTE   N11  En1  v104
 BYTE   W12
 BYTE   An1  v108
 BYTE   W12
 BYTE   N23  Gn0  v112
 BYTE   W24
 BYTE   N11  Dn1  v104
 BYTE   W12
 BYTE   Gn1  v108
 BYTE   W12
 BYTE   N12  Dn0  v112
 BYTE   W12
 BYTE   PEND 
// 043   ----------------------------------------
Label_1_0101B3FB:
 BYTE   W12
 BYTE   N23  Dn0  v108
 BYTE   W24
 BYTE   N08  Ds0  v112
 BYTE   W24
 BYTE   N23  Ds0  v108
 BYTE   W24
 BYTE   N11  Ds0  v104
 BYTE   W12
 BYTE   PEND 
// 044   ----------------------------------------
Label_1_0101B40D:
 BYTE   N11  En0  v112
 BYTE   W12
 BYTE   Dn0  v104
 BYTE   W12
 BYTE   N12  En0  v112
 BYTE   W18
 BYTE   N05  En0  v104
 BYTE   W06
 BYTE   N11  Dn0  v112
 BYTE   W12
 BYTE   N12  En0
 BYTE   W24
 BYTE   N23  Cs0
 BYTE   W12
 BYTE   PEND 
// 045   ----------------------------------------
Label_1_0101B427:
 BYTE   W12
 BYTE   N11  Cs0  v104
 BYTE   W12
 BYTE   Cs0  v108
 BYTE   W12
 BYTE   N12  Cs0  v112
 BYTE   W24
 BYTE   Cs0  v108
 BYTE   W24
 BYTE   BnM1  v112
 BYTE   W12
 BYTE   PEND 
// 046   ----------------------------------------
Label_1_0101B43A:
 BYTE   W12
 BYTE   N12  Bn0  v108
 BYTE   W24
 BYTE   Bn0  v112
 BYTE   W24
 BYTE   N12
 BYTE   W24
 BYTE   N05  Bn0  v104
 BYTE   W12
 BYTE   PEND 
// 047   ----------------------------------------
Label_1_0101B449:
 BYTE   N11  An0  v112
 BYTE   W12
 BYTE   An0  v108
 BYTE   W12
 BYTE   N17  An0  v112
 BYTE   W18
 BYTE   N05  An0  v104
 BYTE   W06
 BYTE   N11  An0  v112
 BYTE   W12
 BYTE   An0  v108
 BYTE   W12
 BYTE   An0  v112
 BYTE   W12
 BYTE   An0  v108
 BYTE   W12
 BYTE   PEND 
// 048   ----------------------------------------
Label_1_0101B466:
 BYTE   N11  Gn0  v112
 BYTE   W12
 BYTE   Gn0  v104
 BYTE   W12
 BYTE   Gn0  v112
 BYTE   W12
 BYTE   Gn0  v104
 BYTE   W12
 BYTE   Gn0  v112
 BYTE   W12
 BYTE   Gn0  v104
 BYTE   W12
 BYTE   Gn0  v112
 BYTE   W12
 BYTE   Gn0  v104
 BYTE   W12
 BYTE   PEND 
// 049   ----------------------------------------
Label_1_0101B480:
 BYTE   N11  An0  v112
 BYTE   W12
 BYTE   An0  v104
 BYTE   W12
 BYTE   An0  v112
 BYTE   W12
 BYTE   An0  v104
 BYTE   W12
 BYTE   An0  v112
 BYTE   W12
 BYTE   An0  v104
 BYTE   W12
 BYTE   An0  v112
 BYTE   W12
 BYTE   An0  v104
 BYTE   W12
 BYTE   PEND 
// 050   ----------------------------------------
Label_1_0101B49A:
 BYTE   N11  Bn0  v112
 BYTE   W12
 BYTE   Bn0  v104
 BYTE   W12
 BYTE   Bn0  v112
 BYTE   W12
 BYTE   Bn0  v104
 BYTE   W12
 BYTE   Bn0  v112
 BYTE   W12
 BYTE   Bn0  v104
 BYTE   W12
 BYTE   Bn0  v112
 BYTE   W12
 BYTE   Bn0  v104
 BYTE   W12
 BYTE   PEND 
// 051   ----------------------------------------
Label_1_0101B4B4:
 BYTE   N11  As0  v112
 BYTE   W12
 BYTE   As0  v104
 BYTE   W12
 BYTE   N17  As0  v112
 BYTE   W18
 BYTE   N05  As0  v104
 BYTE   W06
 BYTE   N11  As0  v112
 BYTE   W12
 BYTE   As0  v104
 BYTE   W12
 BYTE   As0  v112
 BYTE   W12
 BYTE   As0  v104
 BYTE   W12
 BYTE   PEND 
 BYTE   PATT
  POIN2 Label_1_0101B466
 BYTE   PATT
  POIN2 Label_1_0101B480
// 052   ----------------------------------------
Label_1_0101B4DB:
 BYTE   W24
 BYTE   N12  Fs0  v112
 BYTE   W48
 BYTE   N12
 BYTE   W24
 BYTE   PEND 
// 053   ----------------------------------------
Label_1_0101B4E3:
 BYTE   N11  Fs1  v112
 BYTE   W12
 BYTE   En1
 BYTE   W12
 BYTE   Dn1  v104
 BYTE   W12
 BYTE   N10  Cs1  v112
 BYTE   W24
 BYTE   N11  Bn0  v104
 BYTE   W12
 BYTE   N23  An0  v108
 BYTE   W24
 BYTE   PEND 
 BYTE   PATT
  POIN2 Label_1_0101B064
 BYTE   PATT
  POIN2 Label_1_0101B077
 BYTE   PATT
  POIN2 Label_1_0101B095
 BYTE   PATT
  POIN2 Label_1_0101B0B0
 BYTE   PATT
  POIN2 Label_1_0101B0C8
 BYTE   PATT
  POIN2 Label_1_0101B0E1
 BYTE   PATT
  POIN2 Label_1_0101B0FC
 BYTE   PATT
  POIN2 Label_1_0101B117
 BYTE   PATT
  POIN2 Label_1_0101B12F
 BYTE   PATT
  POIN2 Label_1_0101B14E
 BYTE   PATT
  POIN2 Label_1_0101B16D
 BYTE   PATT
  POIN2 Label_1_0101B18D
 BYTE   PATT
  POIN2 Label_1_0101B1A1
 BYTE   PATT
  POIN2 Label_1_0101B1BF
 BYTE   PATT
  POIN2 Label_1_0101B1DD
 BYTE   PATT
  POIN2 Label_1_0101B1FC
 BYTE   PATT
  POIN2 Label_1_0101B21B
 BYTE   PATT
  POIN2 Label_1_0101B235
 BYTE   PATT
  POIN2 Label_1_0101B24F
 BYTE   PATT
  POIN2 Label_1_0101B26E
 BYTE   PATT
  POIN2 Label_1_0101B293
 BYTE   PATT
  POIN2 Label_1_0101B2B0
 BYTE   PATT
  POIN2 Label_1_0101B2CE
 BYTE   PATT
  POIN2 Label_1_0101B2E0
 BYTE   PATT
  POIN2 Label_1_0101B2F0
 BYTE   PATT
  POIN2 Label_1_0101B30F
 BYTE   PATT
  POIN2 Label_1_0101B32C
 BYTE   PATT
  POIN2 Label_1_0101B33F
// 054   ----------------------------------------
 BYTE   N11  Cn1  v112
 BYTE   W12
 BYTE   Bn0  v104
 BYTE   W12
 BYTE   N17  Cn1  v112
 BYTE   W18
 BYTE   N05  Gn0  v104
 BYTE   W06
 BYTE   N11  Bn0  v112
 BYTE   W12
 BYTE   N12  Cn1
 BYTE   W24
 BYTE   N23  Bn0
 BYTE   W12
 BYTE   PATT
  POIN2 Label_1_0101B36D
 BYTE   PATT
  POIN2 Label_1_0101B386
 BYTE   PATT
  POIN2 Label_1_0101B395
 BYTE   PATT
  POIN2 Label_1_0101B3AC
 BYTE   PATT
  POIN2 Label_1_0101B3C8
 BYTE   PATT
  POIN2 Label_1_0101B3E3
 BYTE   PATT
  POIN2 Label_1_0101B3FB
 BYTE   PATT
  POIN2 Label_1_0101B40D
 BYTE   PATT
  POIN2 Label_1_0101B427
 BYTE   PATT
  POIN2 Label_1_0101B43A
 BYTE   PATT
  POIN2 Label_1_0101B449
 BYTE   PATT
  POIN2 Label_1_0101B466
 BYTE   PATT
  POIN2 Label_1_0101B480
 BYTE   PATT
  POIN2 Label_1_0101B49A
 BYTE   PATT
  POIN2 Label_1_0101B4B4
 BYTE   PATT
  POIN2 Label_1_0101B466
 BYTE   PATT
  POIN2 Label_1_0101B480
 BYTE   PATT
  POIN2 Label_1_0101B4DB
 BYTE   PATT
  POIN2 Label_1_0101B4E3
// 055   ----------------------------------------
 BYTE   GoTo
  POIN2 Label_1_0101AFC6
 BYTE   FINE

//**************** Track 3 (Midi-Chn.2) ****************//

FlapperGirl_003:
// 000   ----------------------------------------
 BYTE   KEYSH   FlapperGirl_key+0
Label_2_0101B606:
 BYTE   VOICE   40
 BYTE   PAN   c_v+0
 BYTE   VOL   29*FlapperGirl_mvl/mxv
 BYTE   N12  Bn3  v088
 BYTE   N60  Fs4  v076
 BYTE   N12  Bn4  v088
 BYTE   W11
 BYTE   Cs4
 BYTE   W01
 BYTE   Cs5
 BYTE   W11
 BYTE   Dn4  v092
 BYTE   W01
 BYTE   Dn5
 BYTE   W11
 BYTE   N24  Cs4  v068
 BYTE   W01
 BYTE   Cs5
 BYTE   W23
 BYTE   Bn3  v076
 BYTE   W01
 BYTE   Fs4  v084
 BYTE   N24  Bn4  v076
 BYTE   W23
 BYTE   N60  Gn3  v088
 BYTE   W01
 BYTE   N84  Gn4
 BYTE   N60  Bn4  v076
 BYTE   W12
// 001   ----------------------------------------
 BYTE   W44
 BYTE   W03
 BYTE   N24  En4  v088
 BYTE   W01
 BYTE   En5
 BYTE   W23
 BYTE   Dn4
 BYTE   W01
 BYTE   Bn4  v076
 BYTE   N24  Dn5  v088
 BYTE   W23
 BYTE   N60  Cs4
 BYTE   W01
// 002   ----------------------------------------
 BYTE   An4  v076
 BYTE   N60  Cs5  v088
 BYTE   W56
 BYTE   W03
 BYTE   N12  Bn3
 BYTE   W01
 BYTE   N24  En4  v072
 BYTE   N12  Bn4  v088
 BYTE   W11
 BYTE   An3  v084
 BYTE   W01
 BYTE   An4
 BYTE   W11
 BYTE   N84  Fs3  v076
 BYTE   W01
 BYTE   Fs4
 BYTE   N84  As4  v088
 BYTE   W12
// 003   ----------------------------------------
 BYTE   W72
 BYTE   N12  An4  v072
 BYTE   W12
 BYTE   N24  Bn4  v076
 BYTE   W12
// 004   ----------------------------------------
 BYTE   W12
 BYTE   N12  Bn4  v068
 BYTE   W12
 BYTE   Bn4  v072
 BYTE   W24
 BYTE   Bn4  v076
 BYTE   W12
 BYTE   Cs5  v072
 BYTE   W24
 BYTE   N24  Dn5
 BYTE   W12
// 005   ----------------------------------------
 BYTE   W12
 BYTE   N12  Dn5  v068
 BYTE   W12
 BYTE   Dn5  v072
 BYTE   W72
// 006   ----------------------------------------
 BYTE   W96
// 007   ----------------------------------------
 BYTE   W96
// 008   ----------------------------------------
 BYTE   W96
// 009   ----------------------------------------
 BYTE   W96
// 010   ----------------------------------------
 BYTE   W96
// 011   ----------------------------------------
 BYTE   W96
// 012   ----------------------------------------
 BYTE   W96
// 013   ----------------------------------------
 BYTE   W96
// 014   ----------------------------------------
 BYTE   W96
// 015   ----------------------------------------
 BYTE   W96
// 016   ----------------------------------------
 BYTE   W96
// 017   ----------------------------------------
 BYTE   W96
// 018   ----------------------------------------
 BYTE   W96
// 019   ----------------------------------------
 BYTE   W96
// 020   ----------------------------------------
 BYTE   W96
// 021   ----------------------------------------
 BYTE   W96
// 022   ----------------------------------------
 BYTE   W96
// 023   ----------------------------------------
 BYTE   W96
// 024   ----------------------------------------
Label_2_0101B69E:
 BYTE   N92  Dn4  v036
 BYTE   N92  Gn4  v044
 BYTE   N92  Bn4  v064
 BYTE   W96
 BYTE   PEND 
// 025   ----------------------------------------
 BYTE   En4  v036
 BYTE   N44  Gn4  v044
 BYTE   N92  Cs5  v064
 BYTE   W48
 BYTE   N24  Fs4  v060
 BYTE   W24
 BYTE   N23  Gn4
 BYTE   W24
// 026   ----------------------------------------
Label_2_0101B6B9:
 BYTE   N80  Dn4  v036
 BYTE   N80  Fs4  v044
 BYTE   N80  An4  v060
 BYTE   W84
 BYTE   N44  Ds4  v036
 BYTE   N44  Fs4  v044
 BYTE   N44  Bn4  v060
 BYTE   W12
 BYTE   PEND 
// 027   ----------------------------------------
 BYTE   W36
 BYTE   N24  Gn4  v084
 BYTE   W12
 BYTE   BEND   c_v+0
 BYTE   W03
 BYTE   An3
 BYTE   W03
 BYTE   En3
 BYTE   W06
 BYTE   N12  Fs4  v080
 BYTE   W12
 BYTE   En4  v076
 BYTE   W12
 BYTE   Ds4  v068
 BYTE   W12
// 028   ----------------------------------------
 BYTE   W96
// 029   ----------------------------------------
 BYTE   W96
// 030   ----------------------------------------
 BYTE   W84
 BYTE   N44  Cs4  v064
 BYTE   N44  Bn4
 BYTE   W12
// 031   ----------------------------------------
 BYTE   W36
 BYTE   N07  Fs4  v068
 BYTE   N07  As4
 BYTE   W48
 BYTE   N36  Fs3  v072
 BYTE   W12
// 032   ----------------------------------------
 BYTE   W24
 BYTE   N24  En3  v060
 BYTE   W24
 BYTE   Fs3  v072
 BYTE   W36
 BYTE   N36  Gn3  v080
 BYTE   N72  Bn3  v072
 BYTE   W12
// 033   ----------------------------------------
 BYTE   W24
 BYTE   N24  Fs3  v080
 BYTE   W24
 BYTE   Gn3
 BYTE   W12
 BYTE   N06  Bn3  v072
 BYTE   W12
 BYTE   N06
 BYTE   W12
 BYTE   N24  Cs4
 BYTE   W12
// 034   ----------------------------------------
Label_2_0101B717:
 BYTE   W12
 BYTE   N06  Cs4  v072
 BYTE   W12
 BYTE   N06
 BYTE   W12
 BYTE   N24
 BYTE   W24
 BYTE   N06
 BYTE   W12
 BYTE   N06
 BYTE   W12
 BYTE   N48
 BYTE   W12
 BYTE   PEND 
// 035   ----------------------------------------
 BYTE   W36
 BYTE   N60  Cn4
 BYTE   W60
// 036   ----------------------------------------
 BYTE   W96
// 037   ----------------------------------------
 BYTE   W96
// 038   ----------------------------------------
 BYTE   W96
// 039   ----------------------------------------
 BYTE   W96
// 040   ----------------------------------------
Label_2_0101B72F:
 BYTE   N24  Dn4  v072
 BYTE   W24
 BYTE   Cs4
 BYTE   W24
 BYTE   N12  Bn3
 BYTE   W12
 BYTE   N24  An3
 BYTE   W24
 BYTE   N36  Gn4
 BYTE   W12
 BYTE   PEND 
// 041   ----------------------------------------
Label_2_0101B73F:
 BYTE   W24
 BYTE   N24  Fs4  v072
 BYTE   W24
 BYTE   N12  En4
 BYTE   W12
 BYTE   N24  Dn4
 BYTE   W24
 BYTE   N36  Gn4
 BYTE   W12
 BYTE   PEND 
// 042   ----------------------------------------
Label_2_0101B74E:
 BYTE   W36
 BYTE   N36  An4  v072
 BYTE   W48
 BYTE   Bn4
 BYTE   W12
 BYTE   PEND 
// 043   ----------------------------------------
Label_2_0101B756:
 BYTE   W24
 BYTE   N12  An4  v072
 BYTE   W12
 BYTE   N36  Fs4
 BYTE   W60
 BYTE   PEND 
// 044   ----------------------------------------
 BYTE   W96
// 045   ----------------------------------------
 BYTE   W96
// 046   ----------------------------------------
 BYTE   W96
// 047   ----------------------------------------
Label_2_0101B762:
 BYTE   W72
 BYTE   N13  Gn2  v112
 BYTE   N13  Gn3
 BYTE   W12
 BYTE   An2  v104
 BYTE   N13  An3
 BYTE   W12
 BYTE   PEND 
// 048   ----------------------------------------
Label_2_0101B76F:
 BYTE   N48  Bn2  v104
 BYTE   N48  Bn3
 BYTE   W48
 BYTE   N24  Cs3
 BYTE   N24  Cs4
 BYTE   W24
 BYTE   Dn3  v112
 BYTE   N24  Dn4  v104
 BYTE   W24
 BYTE   PEND 
// 049   ----------------------------------------
Label_2_0101B781:
 BYTE   N48  En3  v104
 BYTE   N48  En4
 BYTE   W48
 BYTE   N24  An2
 BYTE   N24  An3
 BYTE   W24
 BYTE   An3  v116
 BYTE   N24  An4  v124
 BYTE   W24
 BYTE   PEND 
// 050   ----------------------------------------
Label_2_0101B793:
 BYTE   N60  Fs3  v104
 BYTE   N60  Fs4  v124
 BYTE   W60
 BYTE   N13  En3  v104
 BYTE   N13  En4  v072
 BYTE   W12
 BYTE   Dn3  v104
 BYTE   N13  Dn4  v084
 BYTE   W12
 BYTE   N84  Fs3  v112
 BYTE   N84  Fs4  v124
 BYTE   W12
 BYTE   PEND 
// 051   ----------------------------------------
Label_2_0101B7AF:
 BYTE   W72
 BYTE   N11  Gn2  v112
 BYTE   N13  Gn3
 BYTE   N13  Gn4
 BYTE   W12
 BYTE   N11  An2
 BYTE   N13  An3
 BYTE   N13  An4
 BYTE   W12
 BYTE   PEND 
// 052   ----------------------------------------
Label_2_0101B7C0:
 BYTE   N68  Bn2  v112
 BYTE   N72  Bn3
 BYTE   N72  Bn4
 BYTE   W72
 BYTE   N23  Dn3
 BYTE   N24  Dn4
 BYTE   N24  Dn5
 BYTE   W24
 BYTE   PEND 
// 053   ----------------------------------------
Label_2_0101B7D0:
 BYTE   N44  Cs3  v112
 BYTE   N48  Cs4
 BYTE   N48  Cs5
 BYTE   W48
 BYTE   N23  Dn3  v100
 BYTE   N24  Dn4
 BYTE   N24  Dn5
 BYTE   W24
 BYTE   N23  En3  v096
 BYTE   N24  En4
 BYTE   N24  En5
 BYTE   W24
 BYTE   PEND 
// 054   ----------------------------------------
 BYTE   W96
// 055   ----------------------------------------
 BYTE   W96
// 056   ----------------------------------------
 BYTE   W96
// 057   ----------------------------------------
 BYTE   W96
// 058   ----------------------------------------
 BYTE   W96
// 059   ----------------------------------------
 BYTE   W96
// 060   ----------------------------------------
 BYTE   W96
// 061   ----------------------------------------
 BYTE   W96
// 062   ----------------------------------------
 BYTE   W96
// 063   ----------------------------------------
 BYTE   W96
// 064   ----------------------------------------
 BYTE   W96
// 065   ----------------------------------------
 BYTE   W96
// 066   ----------------------------------------
 BYTE   W96
// 067   ----------------------------------------
 BYTE   W96
// 068   ----------------------------------------
 BYTE   W96
// 069   ----------------------------------------
 BYTE   W96
// 070   ----------------------------------------
 BYTE   W96
// 071   ----------------------------------------
 BYTE   W96
 BYTE   PATT
  POIN2 Label_2_0101B69E
// 072   ----------------------------------------
 BYTE   N92  En4  v036
 BYTE   N44  Gn4  v044
 BYTE   N92  Cs5  v064
 BYTE   W48
 BYTE   N23  Fs4  v060
 BYTE   W24
 BYTE   Gn4
 BYTE   W24
 BYTE   PATT
  POIN2 Label_2_0101B6B9
// 073   ----------------------------------------
 BYTE   W36
 BYTE   N24  Gn4  v084
 BYTE   W12
 BYTE   BEND   c_v+0
 BYTE   W03
 BYTE   An3
 BYTE   W03
 BYTE   En3
 BYTE   W06
 BYTE   N12  Fs4  v080
 BYTE   W12
 BYTE   En4  v084
 BYTE   W12
 BYTE   Ds4  v080
 BYTE   W12
// 074   ----------------------------------------
 BYTE   W96
// 075   ----------------------------------------
 BYTE   W96
// 076   ----------------------------------------
 BYTE   W84
 BYTE   N48  Cs4  v068
 BYTE   N48  Bn4
 BYTE   W12
// 077   ----------------------------------------
 BYTE   W36
 BYTE   N12  Fs4  v072
 BYTE   N12  As4
 BYTE   W48
 BYTE   N36  Fs3
 BYTE   W12
// 078   ----------------------------------------
 BYTE   W24
 BYTE   N24  En3
 BYTE   W24
 BYTE   Fs3
 BYTE   W36
 BYTE   N36  Gn3  v080
 BYTE   N72  Bn3  v072
 BYTE   W12
// 079   ----------------------------------------
 BYTE   W24
 BYTE   N24  Fs3  v080
 BYTE   W24
 BYTE   Gn3
 BYTE   W12
 BYTE   N03  Bn3  v072
 BYTE   W12
 BYTE   N03
 BYTE   W12
 BYTE   N24  Cs4
 BYTE   W12
 BYTE   PATT
  POIN2 Label_2_0101B717
// 080   ----------------------------------------
 BYTE   W36
 BYTE   N60  Cn4  v072
 BYTE   W60
// 081   ----------------------------------------
 BYTE   W96
// 082   ----------------------------------------
 BYTE   W96
// 083   ----------------------------------------
 BYTE   W96
// 084   ----------------------------------------
 BYTE   W96
 BYTE   PATT
  POIN2 Label_2_0101B72F
 BYTE   PATT
  POIN2 Label_2_0101B73F
 BYTE   PATT
  POIN2 Label_2_0101B74E
 BYTE   PATT
  POIN2 Label_2_0101B756
// 085   ----------------------------------------
 BYTE   W96
// 086   ----------------------------------------
 BYTE   W96
// 087   ----------------------------------------
 BYTE   W96
 BYTE   PATT
  POIN2 Label_2_0101B762
 BYTE   PATT
  POIN2 Label_2_0101B76F
 BYTE   PATT
  POIN2 Label_2_0101B781
 BYTE   PATT
  POIN2 Label_2_0101B793
 BYTE   PATT
  POIN2 Label_2_0101B7AF
 BYTE   PATT
  POIN2 Label_2_0101B7C0
 BYTE   PATT
  POIN2 Label_2_0101B7D0
// 088   ----------------------------------------
 BYTE   W96
// 089   ----------------------------------------
 BYTE   W96
// 090   ----------------------------------------
 BYTE   GoTo
  POIN2 Label_2_0101B606
 BYTE   FINE

//**************** Track 4 (Midi-Chn.3) ****************//

FlapperGirl_004:
// 000   ----------------------------------------
 BYTE   KEYSH   FlapperGirl_key+0
Label_3_0101B8AE:
 BYTE   VOICE   40
 BYTE   PAN   c_v+12
 BYTE   VOL   29*FlapperGirl_mvl/mxv
 BYTE   W96
// 001   ----------------------------------------
 BYTE   W96
// 002   ----------------------------------------
 BYTE   W96
// 003   ----------------------------------------
 BYTE   W96
// 004   ----------------------------------------
 BYTE   W96
// 005   ----------------------------------------
 BYTE   W96
// 006   ----------------------------------------
 BYTE   W96
// 007   ----------------------------------------
 BYTE   W96
// 008   ----------------------------------------
 BYTE   N36  Bn4  v100
 BYTE   W30
 BYTE   W01
 BYTE   BEND   c_v-2
 BYTE   W01
 BYTE   Cs3
 BYTE   W01
 BYTE   Cn3
 BYTE   W01
 BYTE   Bn2
 BYTE   W02
 BYTE   As2
 BYTE   W12
 BYTE   N12
 BYTE   W01
 BYTE   BEND   c_v-4
 BYTE   W01
 BYTE   Cs3
 BYTE   W01
 BYTE   En3
 BYTE   W09
 BYTE   N12  Cs5
 BYTE   W12
 BYTE   N11  Dn5  v096
 BYTE   W12
 BYTE   BEND   c_v-6
 BYTE   N36  Dn5  v100
 BYTE   W01
 BYTE   BEND   c_v-4
 BYTE   W01
 BYTE   Cs3
 BYTE   W01
 BYTE   En3
 BYTE   W09
// 009   ----------------------------------------
 BYTE   W24
 BYTE   N11  En5  v096
 BYTE   W12
 BYTE   BEND   c_v-5
 BYTE   N11  Cs5  v100
 BYTE   W01
 BYTE   BEND   c_v-7
 BYTE   W01
 BYTE   Bn2
 BYTE   W01
 BYTE   En3
 BYTE   W21
 BYTE   N12  Bn4  v096
 BYTE   W24
 BYTE   BEND   c_v-5
 BYTE   N24  Bn4  v100
 BYTE   W01
 BYTE   BEND   c_v-7
 BYTE   W01
 BYTE   Bn2
 BYTE   W01
 BYTE   En3
 BYTE   W09
// 010   ----------------------------------------
 BYTE   W12
 BYTE   N04  An4  v096
 BYTE   W12
 BYTE   BEND   c_v-5
 BYTE   N36  An4  v100
 BYTE   W01
 BYTE   BEND   c_v-7
 BYTE   W01
 BYTE   Bn2
 BYTE   W01
 BYTE   En3
 BYTE   W32
 BYTE   W01
 BYTE   N23  Gn4  v096
 BYTE   W24
 BYTE   BEND   c_v-6
 BYTE   N24  Gn4  v100
 BYTE   W01
 BYTE   BEND   c_v-4
 BYTE   W01
 BYTE   Cs3
 BYTE   W01
 BYTE   En3
 BYTE   W09
// 011   ----------------------------------------
 BYTE   W20
 BYTE   N04  Fs4  v096
 BYTE   W04
 BYTE   N08  Fs4  v100
 BYTE   W36
 BYTE   N12  En4  v108
 BYTE   W12
 BYTE   N11  Fs4  v096
 BYTE   W12
 BYTE   BEND   c_v-5
 BYTE   N36  En4  v108
 BYTE   W01
 BYTE   BEND   c_v-7
 BYTE   W01
 BYTE   Bn2
 BYTE   W01
 BYTE   En3
 BYTE   W09
// 012   ----------------------------------------
 BYTE   W24
 BYTE   N12  Dn4  v104
 BYTE   W12
 BYTE   N24  Dn4  v108
 BYTE   W24
 BYTE   N12  Cs4  v104
 BYTE   W12
 BYTE   Dn4
 BYTE   W12
 BYTE   N36  En4  v108
 BYTE   W12
// 013   ----------------------------------------
 BYTE   W24
 BYTE   N12  Fs4  v100
 BYTE   W12
 BYTE   Gn4
 BYTE   W12
 BYTE   An4
 BYTE   W12
 BYTE   Bn4
 BYTE   W24
 BYTE   BEND   c_v-8
 BYTE   N36  Cs5
 BYTE   W01
 BYTE   BEND   c_v-7
 BYTE   W01
 BYTE   Bn2
 BYTE   W01
 BYTE   En3
 BYTE   W09
// 014   ----------------------------------------
 BYTE   W24
 BYTE   N24  Bn4  v096
 BYTE   W24
 BYTE   Cs5  v100
 BYTE   W24
 BYTE   N11  Dn5  v096
 BYTE   W12
 BYTE   BEND   c_v-11
 BYTE   N24  Cs5  v100
 BYTE   W01
 BYTE   BEND   c_v-7
 BYTE   W01
 BYTE   Bn2
 BYTE   W01
 BYTE   En3
 BYTE   W09
// 015   ----------------------------------------
 BYTE   W12
 BYTE   N12  Bn4
 BYTE   W12
 BYTE   N72
 BYTE   W72
// 016   ----------------------------------------
 BYTE   W24
 BYTE   N24  En5  v104
 BYTE   W24
 BYTE   Dn5
 BYTE   W04
 BYTE   BEND   c_v+10
 BYTE   W04
 BYTE   En3
 BYTE   W16
 BYTE   N24  Cs5  v100
 BYTE   W24
// 017   ----------------------------------------
 BYTE   Bn4
 BYTE   W24
 BYTE   An4
 BYTE   W24
 BYTE   Gn4
 BYTE   W24
 BYTE   An4
 BYTE   W24
// 018   ----------------------------------------
 BYTE   N36  Fs4
 BYTE   W48
 BYTE   BEND   c_v-11
 BYTE   N12  En4  v112
 BYTE   W01
 BYTE   BEND   c_v-7
 BYTE   W01
 BYTE   Bn2
 BYTE   W01
 BYTE   En3
 BYTE   W09
 BYTE   N12  Dn4  v108
 BYTE   W12
 BYTE   En4  v104
 BYTE   W12
 BYTE   N60  Fs4  v100
 BYTE   W12
// 019   ----------------------------------------
 BYTE   W48
 BYTE   N24  Gn4  v104
 BYTE   W24
 BYTE   N12  An4  v100
 BYTE   W12
 BYTE   N60  Bn4  v104
 BYTE   W12
// 020   ----------------------------------------
 BYTE   W48
 BYTE   N12  Cs5
 BYTE   W12
 BYTE   Dn5  v096
 BYTE   W24
 BYTE   N24  Dn5  v104
 BYTE   W12
// 021   ----------------------------------------
 BYTE   W12
 BYTE   N12  Cs5  v100
 BYTE   W12
 BYTE   N24  Cs5  v104
 BYTE   W24
 BYTE   N23  Bn4
 BYTE   W14
 BYTE   BEND   c_v-2
 BYTE   W01
 BYTE   Cs3
 BYTE   W01
 BYTE   Cn3
 BYTE   W01
 BYTE   Bn2
 BYTE   W01
 BYTE   As2
 BYTE   W01
 BYTE   An2
 BYTE   W01
 BYTE   Gs2
 BYTE   W01
 BYTE   Gn2
 BYTE   W01
 BYTE   Fs2
 BYTE   W01
 BYTE   En3
 BYTE   W01
 BYTE   N05  An4  v100
 BYTE   W12
 BYTE   BEND   c_v-11
 BYTE   W01
 BYTE   An2
 BYTE   W01
 BYTE   Bn2
 BYTE   W01
 BYTE   En3
 BYTE   W09
// 022   ----------------------------------------
 BYTE   W96
// 023   ----------------------------------------
 BYTE   W96
// 024   ----------------------------------------
 BYTE   W96
// 025   ----------------------------------------
 BYTE   W96
// 026   ----------------------------------------
 BYTE   W96
// 027   ----------------------------------------
 BYTE   W96
// 028   ----------------------------------------
 BYTE   W96
// 029   ----------------------------------------
 BYTE   W24
 BYTE   N08  Bn3  v060
 BYTE   N08  Gn4  v092
 BYTE   W08
 BYTE   Dn4  v060
 BYTE   N08  An4  v092
 BYTE   W08
 BYTE   Bn3  v060
 BYTE   N08  Gn4  v092
 BYTE   W08
 BYTE   N11  Fs4
 BYTE   W12
 BYTE   En4  v076
 BYTE   W12
 BYTE   Dn4
 BYTE   W12
 BYTE   N92  Cs4
 BYTE   W12
// 030   ----------------------------------------
 BYTE   W84
 BYTE   N44  Fs4  v072
 BYTE   W12
// 031   ----------------------------------------
 BYTE   W36
 BYTE   N07
 BYTE   W60
// 032   ----------------------------------------
 BYTE   W96
// 033   ----------------------------------------
 BYTE   W96
// 034   ----------------------------------------
 BYTE   W96
// 035   ----------------------------------------
 BYTE   W96
// 036   ----------------------------------------
 BYTE   W96
// 037   ----------------------------------------
 BYTE   W96
// 038   ----------------------------------------
 BYTE   W96
// 039   ----------------------------------------
 BYTE   W96
// 040   ----------------------------------------
 BYTE   W96
// 041   ----------------------------------------
 BYTE   W96
// 042   ----------------------------------------
 BYTE   W96
// 043   ----------------------------------------
 BYTE   W96
// 044   ----------------------------------------
Label_3_0101BA4A:
 BYTE   N12  Bn3  v104
 BYTE   W12
 BYTE   Gn3  v108
 BYTE   W12
 BYTE   An3  v100
 BYTE   W12
 BYTE   N24  Bn3  v104
 BYTE   W24
 BYTE   N12  Cs4  v108
 BYTE   W12
 BYTE   Dn4  v104
 BYTE   W12
 BYTE   En4  v108
 BYTE   W12
 BYTE   PEND 
// 045   ----------------------------------------
Label_3_0101BA63:
 BYTE   N24  Fs4  v100
 BYTE   W24
 BYTE   N12  Gn4  v096
 BYTE   W12
 BYTE   An4  v100
 BYTE   W24
 BYTE   N23  Fs4  v096
 BYTE   W24
 BYTE   BEND   c_v-11
 BYTE   N96  En4  v108
 BYTE   W01
 BYTE   BEND   c_v-7
 BYTE   W01
 BYTE   Bn2
 BYTE   W01
 BYTE   En3
 BYTE   W09
 BYTE   PEND 
// 046   ----------------------------------------
 BYTE   W84
 BYTE   N90  Dn4
 BYTE   W12
// 047   ----------------------------------------
 BYTE   W96
// 048   ----------------------------------------
 BYTE   W96
// 049   ----------------------------------------
 BYTE   W96
// 050   ----------------------------------------
 BYTE   W96
// 051   ----------------------------------------
 BYTE   W96
// 052   ----------------------------------------
 BYTE   W96
// 053   ----------------------------------------
 BYTE   W96
// 054   ----------------------------------------
 BYTE   W96
// 055   ----------------------------------------
 BYTE   W96
// 056   ----------------------------------------
 BYTE   W96
// 057   ----------------------------------------
 BYTE   W96
// 058   ----------------------------------------
 BYTE   W96
// 059   ----------------------------------------
 BYTE   W96
// 060   ----------------------------------------
 BYTE   W96
// 061   ----------------------------------------
 BYTE   W96
// 062   ----------------------------------------
 BYTE   W96
// 063   ----------------------------------------
 BYTE   W96
// 064   ----------------------------------------
 BYTE   W96
// 065   ----------------------------------------
 BYTE   W96
// 066   ----------------------------------------
 BYTE   W96
// 067   ----------------------------------------
 BYTE   W96
// 068   ----------------------------------------
 BYTE   W96
// 069   ----------------------------------------
 BYTE   W96
// 070   ----------------------------------------
 BYTE   W96
// 071   ----------------------------------------
 BYTE   W96
// 072   ----------------------------------------
 BYTE   W96
// 073   ----------------------------------------
 BYTE   W96
// 074   ----------------------------------------
 BYTE   W96
// 075   ----------------------------------------
 BYTE   W96
// 076   ----------------------------------------
 BYTE   W96
// 077   ----------------------------------------
 BYTE   W96
// 078   ----------------------------------------
 BYTE   W96
// 079   ----------------------------------------
 BYTE   W96
// 080   ----------------------------------------
 BYTE   W96
// 081   ----------------------------------------
 BYTE   W96
// 082   ----------------------------------------
 BYTE   W96
// 083   ----------------------------------------
 BYTE   W96
// 084   ----------------------------------------
 BYTE   W96
// 085   ----------------------------------------
 BYTE   W96
// 086   ----------------------------------------
 BYTE   W96
// 087   ----------------------------------------
 BYTE   W96
// 088   ----------------------------------------
 BYTE   W96
// 089   ----------------------------------------
 BYTE   W96
// 090   ----------------------------------------
 BYTE   W96
// 091   ----------------------------------------
 BYTE   W96
 BYTE   PATT
  POIN2 Label_3_0101BA4A
 BYTE   PATT
  POIN2 Label_3_0101BA63
// 092   ----------------------------------------
 BYTE   W84
 BYTE   N84  Dn4  v108
 BYTE   W12
// 093   ----------------------------------------
 BYTE   W96
// 094   ----------------------------------------
 BYTE   W96
// 095   ----------------------------------------
 BYTE   W96
// 096   ----------------------------------------
 BYTE   W96
// 097   ----------------------------------------
 BYTE   W96
// 098   ----------------------------------------
 BYTE   W96
// 099   ----------------------------------------
 BYTE   W96
// 100   ----------------------------------------
 BYTE   W96
// 101   ----------------------------------------
 BYTE   W96
// 102   ----------------------------------------
 BYTE   GoTo
  POIN2 Label_3_0101B8AE
 BYTE   FINE

//**************** Track 5 (Midi-Chn.4) ****************//

FlapperGirl_005:
// 000   ----------------------------------------
 BYTE   KEYSH   FlapperGirl_key+0
Label_4_0101BAD2:
 BYTE   VOICE   50
 BYTE   VOL   36*FlapperGirl_mvl/mxv
 BYTE   PAN   c_v+2
 BYTE   N56  Dn3  v088
 BYTE   N56  Fs3
 BYTE   N56  Bn3  v096
 BYTE   W60
 BYTE   N12  Dn3  v076
 BYTE   N12  En3
 BYTE   N12  An3  v088
 BYTE   W12
 BYTE   Ds3  v076
 BYTE   N12  Fs3  v080
 BYTE   N12  As3  v088
 BYTE   W12
 BYTE   N80  En3
 BYTE   W12
// 001   ----------------------------------------
 BYTE   W72
 BYTE   N22  Dn3
 BYTE   W24
// 002   ----------------------------------------
 BYTE   N56  Cs3
 BYTE   N56  En3
 BYTE   N56  An3  v096
 BYTE   W60
 BYTE   N10  Cs3  v076
 BYTE   N10  En3
 BYTE   N10  An3  v088
 BYTE   W12
 BYTE   Cs3  v076
 BYTE   N10  En3
 BYTE   N10  An3  v088
 BYTE   W12
 BYTE   N80  Cs3
 BYTE   N80  Fs3
 BYTE   N80  As3  v096
 BYTE   W12
// 003   ----------------------------------------
 BYTE   W84
 BYTE   N22  Dn3  v072
 BYTE   N22  Fs3  v084
 BYTE   N22  Bn3  v092
 BYTE   W12
// 004   ----------------------------------------
 BYTE   W12
 BYTE   N10  Dn3  v064
 BYTE   N10  Fs3  v072
 BYTE   N10  Bn3  v084
 BYTE   W12
 BYTE   N10
 BYTE   W24
 BYTE   Dn3  v072
 BYTE   N10  Fs3  v080
 BYTE   N10  Bn3  v092
 BYTE   W12
 BYTE   Cs3  v068
 BYTE   N10  En3  v076
 BYTE   N10  An3  v088
 BYTE   W24
 BYTE   N22  Dn3  v068
 BYTE   N22  Gn3  v080
 BYTE   N22  Bn3  v088
 BYTE   W12
// 005   ----------------------------------------
 BYTE   W12
 BYTE   N10  Dn3  v064
 BYTE   N10  Gn3  v072
 BYTE   N10  Bn3  v084
 BYTE   W12
 BYTE   Dn3  v064
 BYTE   N10  Gn3  v076
 BYTE   N10  Bn3  v084
 BYTE   W24
 BYTE   Dn3  v068
 BYTE   N10  Gn3  v076
 BYTE   N10  Bn3  v088
 BYTE   W24
 BYTE   N04  Dn3  v056
 BYTE   N04  Gn3  v068
 BYTE   N04  Bn3  v076
 BYTE   W12
 BYTE   N32  En3  v072
 BYTE   N32  Fs3
 BYTE   N32  Bn3  v080
 BYTE   N32  Cs4  v092
 BYTE   W12
// 006   ----------------------------------------
 BYTE   W96
// 007   ----------------------------------------
 BYTE   W96
// 008   ----------------------------------------
 BYTE   N92  Fs2  v072
 BYTE   N68  Bn2
 BYTE   N44  Dn3  v080
 BYTE   W48
 BYTE   N10
 BYTE   W12
 BYTE   Cs3
 BYTE   W12
 BYTE   Bn2
 BYTE   W12
 BYTE   An2
 BYTE   W12
// 009   ----------------------------------------
 BYTE   N92  Gn2  v060
 BYTE   N92  Bn2
 BYTE   N92  En3
 BYTE   N22  Gn3  v084
 BYTE   W24
 BYTE   An3  v080
 BYTE   W24
 BYTE   Bn3
 BYTE   W24
 BYTE   Gn3  v084
 BYTE   W24
// 010   ----------------------------------------
Label_4_0101BBA8:
 BYTE   N92  Cs3  v060
 BYTE   N92  En3
 BYTE   N92  An3  v080
 BYTE   W96
 BYTE   PEND 
// 011   ----------------------------------------
Label_4_0101BBB2:
 BYTE   N44  Dn3  v060
 BYTE   N44  Fs3
 BYTE   N44  An3  v080
 BYTE   W48
 BYTE   As3  v060
 BYTE   N44  Cs4
 BYTE   N44  En4  v080
 BYTE   W48
 BYTE   PEND 
// 012   ----------------------------------------
 BYTE   N92  Dn3  v048
 BYTE   N92  Fs3  v060
 BYTE   N56  Bn3
 BYTE   N56  Dn4  v080
 BYTE   W60
 BYTE   N10  Cs4  v084
 BYTE   W12
 BYTE   Bn3
 BYTE   W12
 BYTE   An3  v080
 BYTE   W12
// 013   ----------------------------------------
Label_4_0101BBD9:
 BYTE   N36  Bn2  v060
 BYTE   N36  En3
 BYTE   N36  Gn3  v080
 BYTE   W48
 BYTE   Gn3  v060
 BYTE   N36  Bn3
 BYTE   N36  Dn4  v080
 BYTE   W48
 BYTE   PEND 
// 014   ----------------------------------------
Label_4_0101BBEB:
 BYTE   N36  En3  v060
 BYTE   N36  An3
 BYTE   N36  Cs4  v080
 BYTE   W48
 BYTE   Cs3  v060
 BYTE   N36  Fs3  v076
 BYTE   N36  As3  v080
 BYTE   W48
 BYTE   PEND 
// 015   ----------------------------------------
Label_4_0101BBFE:
 BYTE   N92  Fs3  v060
 BYTE   N92  Bn3
 BYTE   N22  Dn4  v080
 BYTE   W24
 BYTE   En4
 BYTE   W24
 BYTE   Fs4
 BYTE   W24
 BYTE   Dn4
 BYTE   W24
 BYTE   PEND 
// 016   ----------------------------------------
Label_4_0101BC0E:
 BYTE   N92  Dn3  v060
 BYTE   N92  Gn3
 BYTE   N92  Bn3  v080
 BYTE   W96
 BYTE   PEND 
 BYTE   PATT
  POIN2 Label_4_0101BBA8
// 017   ----------------------------------------
Label_4_0101BC1D:
 BYTE   N92  Dn3  v060
 BYTE   N92  Fs3
 BYTE   N92  Bn3  v080
 BYTE   W96
 BYTE   PEND 
// 018   ----------------------------------------
 BYTE   Cs3  v060
 BYTE   N44  Fs3
 BYTE   N22  As3
 BYTE   N22  Cs4  v080
 BYTE   W24
 BYTE   As3  v076
 BYTE   W24
 BYTE   N44  Fs3  v080
 BYTE   W48
 BYTE   PATT
  POIN2 Label_4_0101BC0E
 BYTE   PATT
  POIN2 Label_4_0101BBA8
// 019   ----------------------------------------
 BYTE   N68  Dn4  v088
 BYTE   W72
 BYTE   N22  Cs4
 BYTE   W24
// 020   ----------------------------------------
 BYTE   N92  Cn4
 BYTE   W96
// 021   ----------------------------------------
 BYTE   Dn3  v056
 BYTE   N92  Gn3  v060
 BYTE   N92  Bn3  v084
 BYTE   W96
// 022   ----------------------------------------
 BYTE   En3  v056
 BYTE   N92  Gn3  v060
 BYTE   N92  Cs4  v084
 BYTE   W96
// 023   ----------------------------------------
 BYTE   N80  Dn3  v056
 BYTE   N80  Fs3  v060
 BYTE   N80  An3  v080
 BYTE   W96
// 024   ----------------------------------------
 BYTE   W96
// 025   ----------------------------------------
 BYTE   N92  En3  v068
 BYTE   N92  Gn3
 BYTE   N92  Bn3  v080
 BYTE   W96
// 026   ----------------------------------------
 BYTE   Dn3  v068
 BYTE   N92  Gn3
 BYTE   N92  Bn3  v080
 BYTE   W96
// 027   ----------------------------------------
 BYTE   N80  Cs3  v056
 BYTE   N80  Gn3  v060
 BYTE   N80  Bn3  v080
 BYTE   W84
 BYTE   N44  Cs3  v056
 BYTE   N44  Fs3  v060
 BYTE   N44  Bn3  v080
 BYTE   W12
// 028   ----------------------------------------
 BYTE   W36
 BYTE   N07  Cs3  v060
 BYTE   N07  Fs3  v064
 BYTE   N07  As3  v084
 BYTE   W48
 BYTE   N92  Fs2  v052
 BYTE   N92  Bn2  v048
 BYTE   N32  Dn3  v076
 BYTE   W12
// 029   ----------------------------------------
Label_4_0101BCA3:
 BYTE   W24
 BYTE   N22  Cs3  v076
 BYTE   W24
 BYTE   N32  Dn3
 BYTE   W36
 BYTE   N92  Gn2  v056
 BYTE   N92  Bn2  v048
 BYTE   N32  Dn3  v056
 BYTE   W12
 BYTE   PEND 
// 030   ----------------------------------------
Label_4_0101BCB6:
 BYTE   W24
 BYTE   N22  Cs3  v076
 BYTE   W24
 BYTE   N32  Dn3
 BYTE   W36
 BYTE   N22  An2  v048
 BYTE   N22  Cs3
 BYTE   N22  En3  v056
 BYTE   N22  Gn3  v072
 BYTE   W12
 BYTE   PEND 
// 031   ----------------------------------------
Label_4_0101BCCB:
 BYTE   W12
 BYTE   N06  An2  v048
 BYTE   N06  Cs3
 BYTE   N06  En3  v056
 BYTE   N06  Gn3  v072
 BYTE   W12
 BYTE   An2  v048
 BYTE   N06  Cs3
 BYTE   N06  En3  v056
 BYTE   N06  Gn3  v072
 BYTE   W12
 BYTE   N22  Gn2  v048
 BYTE   N22  Bn2
 BYTE   N22  En3  v056
 BYTE   N22  Gn3  v072
 BYTE   W24
 BYTE   N06  Gn2  v048
 BYTE   N06  Bn2
 BYTE   N06  En3  v056
 BYTE   N06  Gn3  v072
 BYTE   W12
 BYTE   Gn2  v048
 BYTE   N06  Bn2
 BYTE   N06  En3  v056
 BYTE   N06  Gn3  v072
 BYTE   W12
 BYTE   N44  An2  v048
 BYTE   N44  Dn3  v056
 BYTE   N44  Fs3  v072
 BYTE   W12
 BYTE   PEND 
// 032   ----------------------------------------
Label_4_0101BD11:
 BYTE   W36
 BYTE   N56  An2  v048
 BYTE   N56  Ds3  v056
 BYTE   N56  Fs3  v072
 BYTE   W60
 BYTE   PEND 
// 033   ----------------------------------------
Label_4_0101BD1D:
 BYTE   N80  Gn2  v048
 BYTE   N80  Cn3
 BYTE   N80  En3  v056
 BYTE   N80  Gn3  v072
 BYTE   W84
 BYTE   N22  Fs2  v064
 BYTE   N22  Bn2  v048
 BYTE   N22  Dn3  v056
 BYTE   N22  Fs3  v072
 BYTE   W12
 BYTE   PEND 
// 034   ----------------------------------------
Label_4_0101BD37:
 BYTE   W12
 BYTE   N03  Fs2  v064
 BYTE   N03  Bn2  v048
 BYTE   N03  Dn3  v056
 BYTE   N03  Fs3  v072
 BYTE   W12
 BYTE   N10  Fs2  v064
 BYTE   N10  Bn2  v048
 BYTE   N10  Dn3  v056
 BYTE   N10  Fs3  v072
 BYTE   W12
 BYTE   N22  Fs2  v064
 BYTE   N22  Bn2  v048
 BYTE   N22  En3  v072
 BYTE   W24
 BYTE   N10  Fs2  v064
 BYTE   N10  Bn2  v048
 BYTE   N10  Dn3  v072
 BYTE   W24
 BYTE   N32  Gn2  v056
 BYTE   N32  Bn2
 BYTE   N32  En3  v072
 BYTE   W12
 BYTE   PEND 
// 035   ----------------------------------------
Label_4_0101BD70:
 BYTE   W36
 BYTE   N32  Gn2  v064
 BYTE   N32  Bn2  v048
 BYTE   N32  Dn3  v056
 BYTE   N32  Gn3  v072
 BYTE   W48
 BYTE   Fs2  v064
 BYTE   N32  Bn2  v048
 BYTE   N32  Cs3  v056
 BYTE   N32  Fs3  v072
 BYTE   W12
 BYTE   PEND 
// 036   ----------------------------------------
Label_4_0101BD8B:
 BYTE   W36
 BYTE   N32  Fs2  v064
 BYTE   N32  As2  v048
 BYTE   N32  Cs3  v056
 BYTE   N32  Fs3  v072
 BYTE   W48
 BYTE   N92  Fs2  v052
 BYTE   N92  Bn2  v048
 BYTE   N32  Dn3  v076
 BYTE   N32  Fs3  v064
 BYTE   W12
 BYTE   PEND 
// 037   ----------------------------------------
Label_4_0101BDA7:
 BYTE   W24
 BYTE   N22  Cs3  v076
 BYTE   N22  En3  v064
 BYTE   W24
 BYTE   N32  Dn3  v076
 BYTE   N32  Fs3  v064
 BYTE   W36
 BYTE   N92  Gn2  v056
 BYTE   N92  Bn2  v048
 BYTE   N32  Dn3  v056
 BYTE   N32  Gn3  v064
 BYTE   W12
 BYTE   PEND 
// 038   ----------------------------------------
Label_4_0101BDC4:
 BYTE   W24
 BYTE   N22  Cs3  v076
 BYTE   N22  Fs3  v064
 BYTE   W24
 BYTE   N32  Dn3  v076
 BYTE   N32  Gn3  v064
 BYTE   W36
 BYTE   N22  An2  v048
 BYTE   N22  Cs3
 BYTE   N22  En3  v056
 BYTE   N22  Gn3  v072
 BYTE   W12
 BYTE   PEND 
// 039   ----------------------------------------
Label_4_0101BDE0:
 BYTE   W12
 BYTE   N03  An2  v064
 BYTE   N03  Cs3  v048
 BYTE   N03  En3  v056
 BYTE   N03  Gn3  v076
 BYTE   W12
 BYTE   An2  v064
 BYTE   N03  Cs3  v048
 BYTE   N03  En3  v056
 BYTE   N03  Gn3  v076
 BYTE   W12
 BYTE   N22  Gn2  v064
 BYTE   N22  Bn2  v048
 BYTE   N22  En3  v056
 BYTE   N22  Gn3  v076
 BYTE   W24
 BYTE   N03  Gn2  v064
 BYTE   N03  Bn2  v048
 BYTE   N03  En3  v056
 BYTE   N03  Gn3  v076
 BYTE   W12
 BYTE   Gn2  v064
 BYTE   N03  Bn2  v048
 BYTE   N03  En3  v056
 BYTE   N03  Gn3  v076
 BYTE   W12
 BYTE   N22  An2  v064
 BYTE   N22  Dn3  v056
 BYTE   N22  Fs3  v076
 BYTE   W12
 BYTE   PEND 
// 040   ----------------------------------------
Label_4_0101BE2B:
 BYTE   W12
 BYTE   N10  An2  v064
 BYTE   N10  Dn3  v056
 BYTE   N10  Fs3  v076
 BYTE   W24
 BYTE   N56  Ds3  v048
 BYTE   N56  Fs3  v056
 BYTE   N56  An3  v076
 BYTE   W60
 BYTE   PEND 
// 041   ----------------------------------------
Label_4_0101BE41:
 BYTE   N80  Bn2  v048
 BYTE   N80  En3  v056
 BYTE   N80  Gn3  v076
 BYTE   W84
 BYTE   N32  As2  v048
 BYTE   N32  Cs3  v056
 BYTE   N32  Fs3  v076
 BYTE   W12
 BYTE   PEND 
// 042   ----------------------------------------
Label_4_0101BE56:
 BYTE   W36
 BYTE   N10  As2  v048
 BYTE   N10  Cs3  v056
 BYTE   N10  Fs3  v076
 BYTE   W24
 BYTE   As2  v048
 BYTE   N10  Cs3  v056
 BYTE   N10  Fs3  v076
 BYTE   W24
 BYTE   N32  Dn3  v056
 BYTE   W12
 BYTE   PEND 
// 043   ----------------------------------------
Label_4_0101BE6F:
 BYTE   W24
 BYTE   N10  Cs3  v056
 BYTE   W24
 BYTE   En3
 BYTE   W24
 BYTE   Cs3
 BYTE   W12
 BYTE   N32  Dn3
 BYTE   W12
 BYTE   PEND 
// 044   ----------------------------------------
Label_4_0101BE7C:
 BYTE   N92  An2  v048
 BYTE   N92  Fs3  v076
 BYTE   W24
 BYTE   N10  Cs3  v056
 BYTE   W24
 BYTE   En3
 BYTE   W12
 BYTE   Cs3
 BYTE   W24
 BYTE   Dn3
 BYTE   W12
 BYTE   PEND 
// 045   ----------------------------------------
 BYTE   W96
// 046   ----------------------------------------
 BYTE   W96
// 047   ----------------------------------------
 BYTE   W96
// 048   ----------------------------------------
 BYTE   W96
// 049   ----------------------------------------
 BYTE   W96
// 050   ----------------------------------------
 BYTE   W96
// 051   ----------------------------------------
 BYTE   W96
// 052   ----------------------------------------
 BYTE   W96
// 053   ----------------------------------------
 BYTE   N92  Fs2  v072
 BYTE   N68  Bn2
 BYTE   N44  Dn3  v084
 BYTE   W48
 BYTE   N10
 BYTE   W12
 BYTE   Cs3
 BYTE   W12
 BYTE   Bn2
 BYTE   W12
 BYTE   An2
 BYTE   W12
// 054   ----------------------------------------
 BYTE   N92  Gn2  v064
 BYTE   N92  Bn2
 BYTE   N92  En3
 BYTE   N22  Gn3  v084
 BYTE   W24
 BYTE   An3  v080
 BYTE   W24
 BYTE   Bn3  v084
 BYTE   W24
 BYTE   Gn3  v088
 BYTE   W24
 BYTE   PATT
  POIN2 Label_4_0101BBA8
 BYTE   PATT
  POIN2 Label_4_0101BBB2
// 055   ----------------------------------------
 BYTE   N92  Dn3  v052
 BYTE   N92  Fs3  v060
 BYTE   N56  Bn3
 BYTE   N56  Dn4  v084
 BYTE   W60
 BYTE   N10  Cs4
 BYTE   W12
 BYTE   Bn3
 BYTE   W12
 BYTE   An3
 BYTE   W12
 BYTE   PATT
  POIN2 Label_4_0101BBD9
 BYTE   PATT
  POIN2 Label_4_0101BBEB
 BYTE   PATT
  POIN2 Label_4_0101BBFE
 BYTE   PATT
  POIN2 Label_4_0101BC0E
 BYTE   PATT
  POIN2 Label_4_0101BBA8
 BYTE   PATT
  POIN2 Label_4_0101BC1D
// 056   ----------------------------------------
 BYTE   N92  Cs3  v060
 BYTE   N44  Fs3
 BYTE   N22  As3
 BYTE   N22  Cs4  v080
 BYTE   W24
 BYTE   As3
 BYTE   W24
 BYTE   N44  Fs3
 BYTE   W48
 BYTE   PATT
  POIN2 Label_4_0101BC0E
 BYTE   PATT
  POIN2 Label_4_0101BBA8
// 057   ----------------------------------------
 BYTE   N68  Dn4  v092
 BYTE   W72
 BYTE   N22  Cs4  v088
 BYTE   W24
// 058   ----------------------------------------
 BYTE   N92  Cn4
 BYTE   W96
// 059   ----------------------------------------
 BYTE   Dn3  v056
 BYTE   N92  Gn3  v064
 BYTE   N92  Bn3  v084
 BYTE   W96
// 060   ----------------------------------------
 BYTE   En3  v056
 BYTE   N92  Gn3  v064
 BYTE   N92  Cs4  v084
 BYTE   W96
// 061   ----------------------------------------
 BYTE   N80  Dn3  v056
 BYTE   N80  Fs3  v064
 BYTE   N80  An3  v080
 BYTE   W96
// 062   ----------------------------------------
 BYTE   W96
// 063   ----------------------------------------
 BYTE   N92  En3  v072
 BYTE   N92  Gn3
 BYTE   N92  Bn3  v080
 BYTE   W96
// 064   ----------------------------------------
 BYTE   Dn3  v072
 BYTE   N92  Gn3
 BYTE   N92  Bn3  v080
 BYTE   W96
// 065   ----------------------------------------
 BYTE   N80  Cs3  v056
 BYTE   N80  Gn3  v064
 BYTE   N80  Bn3  v080
 BYTE   W84
 BYTE   N44  Cs3  v056
 BYTE   N44  Fs3  v064
 BYTE   N44  Bn3  v080
 BYTE   W12
// 066   ----------------------------------------
 BYTE   W36
 BYTE   N10  Cs3  v060
 BYTE   N10  Fs3  v068
 BYTE   N10  As3  v084
 BYTE   W48
 BYTE   N92  Fs2  v052
 BYTE   N92  Bn2  v048
 BYTE   N32  Dn3  v076
 BYTE   W12
 BYTE   PATT
  POIN2 Label_4_0101BCA3
 BYTE   PATT
  POIN2 Label_4_0101BCB6
 BYTE   PATT
  POIN2 Label_4_0101BCCB
 BYTE   PATT
  POIN2 Label_4_0101BD11
 BYTE   PATT
  POIN2 Label_4_0101BD1D
 BYTE   PATT
  POIN2 Label_4_0101BD37
 BYTE   PATT
  POIN2 Label_4_0101BD70
 BYTE   PATT
  POIN2 Label_4_0101BD8B
 BYTE   PATT
  POIN2 Label_4_0101BDA7
 BYTE   PATT
  POIN2 Label_4_0101BDC4
 BYTE   PATT
  POIN2 Label_4_0101BDE0
 BYTE   PATT
  POIN2 Label_4_0101BE2B
 BYTE   PATT
  POIN2 Label_4_0101BE41
 BYTE   PATT
  POIN2 Label_4_0101BE56
 BYTE   PATT
  POIN2 Label_4_0101BE6F
 BYTE   PATT
  POIN2 Label_4_0101BE7C
// 067   ----------------------------------------
 BYTE   W96
// 068   ----------------------------------------
 BYTE   W96
// 069   ----------------------------------------
 BYTE   W96
// 070   ----------------------------------------
 BYTE   W96
// 071   ----------------------------------------
 BYTE   W96
// 072   ----------------------------------------
 BYTE   W96
// 073   ----------------------------------------
 BYTE   W96
// 074   ----------------------------------------
 BYTE   W96
// 075   ----------------------------------------
 BYTE   GoTo
  POIN2 Label_4_0101BAD2
 BYTE   FINE

//**************** Track 6 (Midi-Chn.5) ****************//

FlapperGirl_006:
// 000   ----------------------------------------
 BYTE   KEYSH   FlapperGirl_key+0
Label_5_0101BFD2:
 BYTE   VOICE   51
 BYTE   PAN   c_v+2
 BYTE   VOL   36*FlapperGirl_mvl/mxv
 BYTE   N56  Bn1  v100
 BYTE   W56
 BYTE   W03
 BYTE   N10  An1  v092
 BYTE   W24
 BYTE   N80  En1  v096
 BYTE   W13
// 001   ----------------------------------------
 BYTE   W68
 BYTE   W03
 BYTE   N22  Gn1
 BYTE   W24
 BYTE   N56  An1  v100
 BYTE   W01
// 002   ----------------------------------------
 BYTE   W56
 BYTE   W03
 BYTE   N10  An1  v092
 BYTE   W24
 BYTE   N80  As1  v096
 BYTE   W13
// 003   ----------------------------------------
 BYTE   W68
 BYTE   W03
 BYTE   N10  An1
 BYTE   W12
 BYTE   N22  Bn1
 BYTE   W13
// 004   ----------------------------------------
 BYTE   W11
 BYTE   N10  Bn1  v088
 BYTE   W12
 BYTE   Bn1  v092
 BYTE   W24
 BYTE   Bn1  v096
 BYTE   W12
 BYTE   An1  v088
 BYTE   W24
 BYTE   N22  Gn1  v096
 BYTE   W13
// 005   ----------------------------------------
 BYTE   W11
 BYTE   N10  Gn1  v088
 BYTE   W12
 BYTE   Gn1  v092
 BYTE   W24
 BYTE   Gn1  v096
 BYTE   W24
 BYTE   N06  Gn1  v088
 BYTE   W12
 BYTE   N32  Cs2  v096
 BYTE   W13
// 006   ----------------------------------------
 BYTE   W96
// 007   ----------------------------------------
Label_5_0101C026:
 BYTE   W92
 BYTE   W03
 BYTE   N92  Bn1  v096
 BYTE   W01
 BYTE   PEND 
// 008   ----------------------------------------
Label_5_0101C02D:
 BYTE   W92
 BYTE   W03
 BYTE   N92  En2  v092
 BYTE   W01
 BYTE   PEND 
// 009   ----------------------------------------
Label_5_0101C034:
 BYTE   W92
 BYTE   W03
 BYTE   N92  An1  v096
 BYTE   W01
 BYTE   PEND 
// 010   ----------------------------------------
Label_5_0101C03B:
 BYTE   W92
 BYTE   W03
 BYTE   N44  Dn2  v096
 BYTE   W01
 BYTE   PEND 
// 011   ----------------------------------------
Label_5_0101C042:
 BYTE   W44
 BYTE   W03
 BYTE   N44  Cs2  v092
 BYTE   W48
 BYTE   N92  Bn1  v096
 BYTE   W01
 BYTE   PEND 
 BYTE   PATT
  POIN2 Label_5_0101C02D
// 012   ----------------------------------------
Label_5_0101C052:
 BYTE   W92
 BYTE   W03
 BYTE   N44  An1  v096
 BYTE   W01
 BYTE   PEND 
// 013   ----------------------------------------
Label_5_0101C059:
 BYTE   W44
 BYTE   W03
 BYTE   N44  As1  v096
 BYTE   W48
 BYTE   N92  Bn1
 BYTE   W01
 BYTE   PEND 
// 014   ----------------------------------------
Label_5_0101C063:
 BYTE   W92
 BYTE   W03
 BYTE   N92  Gn1  v096
 BYTE   W01
 BYTE   PEND 
 BYTE   PATT
  POIN2 Label_5_0101C034
// 015   ----------------------------------------
Label_5_0101C06F:
 BYTE   W92
 BYTE   W03
 BYTE   N80  Bn1  v096
 BYTE   W01
 BYTE   PEND 
// 016   ----------------------------------------
 BYTE   W96
 BYTE   PATT
  POIN2 Label_5_0101C063
 BYTE   PATT
  POIN2 Label_5_0101C034
// 017   ----------------------------------------
Label_5_0101C081:
 BYTE   W92
 BYTE   W03
 BYTE   N68  Dn2  v096
 BYTE   W01
 BYTE   PEND 
// 018   ----------------------------------------
Label_5_0101C088:
 BYTE   W68
 BYTE   W03
 BYTE   N22  Cs2  v096
 BYTE   W24
 BYTE   N92  Cn2
 BYTE   W01
 BYTE   PEND 
// 019   ----------------------------------------
 BYTE   W96
// 020   ----------------------------------------
 BYTE   W96
// 021   ----------------------------------------
Label_5_0101C094:
 BYTE   W92
 BYTE   W03
 BYTE   N80  Dn2  v096
 BYTE   W01
 BYTE   PEND 
// 022   ----------------------------------------
 BYTE   W96
// 023   ----------------------------------------
Label_5_0101C09C:
 BYTE   W92
 BYTE   W03
 BYTE   N92  En2  v096
 BYTE   W01
 BYTE   PEND 
 BYTE   PATT
  POIN2 Label_5_0101C094
// 024   ----------------------------------------
Label_5_0101C0A8:
 BYTE   W80
 BYTE   W03
 BYTE   N22  Cs2  v096
 BYTE   W13
 BYTE   PEND 
// 025   ----------------------------------------
Label_5_0101C0AF:
 BYTE   W11
 BYTE   N10  Cs2  v096
 BYTE   W24
 BYTE   N22  Gn2
 BYTE   W24
 BYTE   N10
 BYTE   W24
 BYTE   N44  Fs2
 BYTE   W13
 BYTE   PEND 
// 026   ----------------------------------------
Label_5_0101C0BD:
 BYTE   W32
 BYTE   W03
 BYTE   N10  Fs2  v096
 BYTE   W48
 BYTE   N92  Bn1
 BYTE   W13
 BYTE   PEND 
// 027   ----------------------------------------
Label_5_0101C0C7:
 BYTE   W80
 BYTE   W03
 BYTE   N92  En2  v096
 BYTE   W13
 BYTE   PEND 
// 028   ----------------------------------------
Label_5_0101C0CE:
 BYTE   W80
 BYTE   W03
 BYTE   N22  An1  v096
 BYTE   W13
 BYTE   PEND 
// 029   ----------------------------------------
 BYTE   W11
 BYTE   N06
 BYTE   W12
 BYTE   N06
 BYTE   W12
 BYTE   N22  Gn1
 BYTE   W24
 BYTE   N06
 BYTE   W12
 BYTE   N06
 BYTE   W12
 BYTE   N44  Dn2
 BYTE   W13
// 030   ----------------------------------------
Label_5_0101C0E4:
 BYTE   W32
 BYTE   W03
 BYTE   N56  Ds2  v096
 BYTE   W60
 BYTE   N80  Cn2
 BYTE   W01
 BYTE   PEND 
// 031   ----------------------------------------
Label_5_0101C0EE:
 BYTE   W80
 BYTE   W03
 BYTE   N22  Bn1  v096
 BYTE   W13
 BYTE   PEND 
// 032   ----------------------------------------
Label_5_0101C0F5:
 BYTE   W11
 BYTE   N05  Bn1  v096
 BYTE   W12
 BYTE   N10
 BYTE   W12
 BYTE   N22
 BYTE   W24
 BYTE   N10
 BYTE   W24
 BYTE   N32  En1
 BYTE   W13
 BYTE   PEND 
// 033   ----------------------------------------
Label_5_0101C104:
 BYTE   W32
 BYTE   W03
 BYTE   N32  Gn1  v096
 BYTE   W48
 BYTE   Fs1
 BYTE   W13
 BYTE   PEND 
// 034   ----------------------------------------
Label_5_0101C10D:
 BYTE   W32
 BYTE   W03
 BYTE   N32  Fs1  v096
 BYTE   W48
 BYTE   N92  Bn1
 BYTE   W13
 BYTE   PEND 
 BYTE   PATT
  POIN2 Label_5_0101C0C7
 BYTE   PATT
  POIN2 Label_5_0101C0CE
// 035   ----------------------------------------
Label_5_0101C121:
 BYTE   W11
 BYTE   N04  An1  v096
 BYTE   W12
 BYTE   N04
 BYTE   W12
 BYTE   N22  Gn1
 BYTE   W24
 BYTE   N04
 BYTE   W12
 BYTE   N04
 BYTE   W12
 BYTE   N44  Dn2
 BYTE   W13
 BYTE   PEND 
// 036   ----------------------------------------
Label_5_0101C133:
 BYTE   W32
 BYTE   W03
 BYTE   N56  Ds2  v096
 BYTE   W60
 BYTE   N80  En2  v084
 BYTE   W01
 BYTE   PEND 
// 037   ----------------------------------------
Label_5_0101C13E:
 BYTE   W80
 BYTE   W03
 BYTE   N32  Fs2  v084
 BYTE   W13
 BYTE   PEND 
// 038   ----------------------------------------
Label_5_0101C145:
 BYTE   W32
 BYTE   W03
 BYTE   N10  Fs2  v084
 BYTE   W24
 BYTE   N10
 BYTE   W36
 BYTE   W01
 BYTE   PEND 
// 039   ----------------------------------------
Label_5_0101C14F:
 BYTE   W92
 BYTE   W03
 BYTE   N92  An1  v084
 BYTE   W01
 BYTE   PEND 
// 040   ----------------------------------------
 BYTE   W96
// 041   ----------------------------------------
 BYTE   W96
// 042   ----------------------------------------
 BYTE   W96
// 043   ----------------------------------------
 BYTE   W96
// 044   ----------------------------------------
 BYTE   W96
// 045   ----------------------------------------
 BYTE   W96
// 046   ----------------------------------------
 BYTE   W96
// 047   ----------------------------------------
 BYTE   W96
 BYTE   PATT
  POIN2 Label_5_0101C026
 BYTE   PATT
  POIN2 Label_5_0101C02D
 BYTE   PATT
  POIN2 Label_5_0101C034
 BYTE   PATT
  POIN2 Label_5_0101C03B
 BYTE   PATT
  POIN2 Label_5_0101C042
 BYTE   PATT
  POIN2 Label_5_0101C02D
 BYTE   PATT
  POIN2 Label_5_0101C052
 BYTE   PATT
  POIN2 Label_5_0101C059
 BYTE   PATT
  POIN2 Label_5_0101C063
 BYTE   PATT
  POIN2 Label_5_0101C034
 BYTE   PATT
  POIN2 Label_5_0101C06F
// 048   ----------------------------------------
 BYTE   W96
 BYTE   PATT
  POIN2 Label_5_0101C063
 BYTE   PATT
  POIN2 Label_5_0101C034
 BYTE   PATT
  POIN2 Label_5_0101C081
 BYTE   PATT
  POIN2 Label_5_0101C088
// 049   ----------------------------------------
 BYTE   W96
// 050   ----------------------------------------
 BYTE   W96
 BYTE   PATT
  POIN2 Label_5_0101C094
// 051   ----------------------------------------
 BYTE   W96
 BYTE   PATT
  POIN2 Label_5_0101C09C
 BYTE   PATT
  POIN2 Label_5_0101C094
 BYTE   PATT
  POIN2 Label_5_0101C0A8
 BYTE   PATT
  POIN2 Label_5_0101C0AF
 BYTE   PATT
  POIN2 Label_5_0101C0BD
 BYTE   PATT
  POIN2 Label_5_0101C0C7
 BYTE   PATT
  POIN2 Label_5_0101C0CE
 BYTE   PATT
  POIN2 Label_5_0101C121
 BYTE   PATT
  POIN2 Label_5_0101C0E4
 BYTE   PATT
  POIN2 Label_5_0101C0EE
 BYTE   PATT
  POIN2 Label_5_0101C0F5
 BYTE   PATT
  POIN2 Label_5_0101C104
 BYTE   PATT
  POIN2 Label_5_0101C10D
 BYTE   PATT
  POIN2 Label_5_0101C0C7
 BYTE   PATT
  POIN2 Label_5_0101C0CE
 BYTE   PATT
  POIN2 Label_5_0101C121
 BYTE   PATT
  POIN2 Label_5_0101C133
 BYTE   PATT
  POIN2 Label_5_0101C13E
 BYTE   PATT
  POIN2 Label_5_0101C145
 BYTE   PATT
  POIN2 Label_5_0101C14F
// 052   ----------------------------------------
 BYTE   W96
// 053   ----------------------------------------
 BYTE   W96
// 054   ----------------------------------------
 BYTE   W96
// 055   ----------------------------------------
 BYTE   W96
// 056   ----------------------------------------
 BYTE   W96
// 057   ----------------------------------------
 BYTE   W96
// 058   ----------------------------------------
 BYTE   W96
// 059   ----------------------------------------
 BYTE   W96
// 060   ----------------------------------------
 BYTE   W96
// 061   ----------------------------------------
 BYTE   GoTo
  POIN2 Label_5_0101BFD2
 BYTE   FINE

//**************** Track 7 (Midi-Chn.6) ****************//

FlapperGirl_007:
// 000   ----------------------------------------
 BYTE   KEYSH   FlapperGirl_key+0
Label_6_0101C22A:
 BYTE   VOICE   57
 BYTE   VOL   49*FlapperGirl_mvl/mxv
 BYTE   PAN   c_v-42
 BYTE   W96
// 001   ----------------------------------------
 BYTE   W96
// 002   ----------------------------------------
 BYTE   W96
// 003   ----------------------------------------
 BYTE   W84
 BYTE   N23  Bn3  v092
 BYTE   W12
// 004   ----------------------------------------
 BYTE   W12
 BYTE   N11  Bn3  v084
 BYTE   W12
 BYTE   Bn3  v088
 BYTE   W24
 BYTE   Bn3  v092
 BYTE   W12
 BYTE   Cs4  v088
 BYTE   W24
 BYTE   N23  Dn4
 BYTE   W12
// 005   ----------------------------------------
 BYTE   W12
 BYTE   N11  Dn4  v084
 BYTE   W12
 BYTE   Cs4  v088
 BYTE   W24
 BYTE   Dn4
 BYTE   W24
 BYTE   N05  Cs4  v076
 BYTE   W12
 BYTE   N23  Fs4  v096
 BYTE   W12
// 006   ----------------------------------------
 BYTE   W12
 BYTE   N05  En4  v092
 BYTE   W12
 BYTE   N04  Dn4  v088
 BYTE   W12
 BYTE   N23  Cs4  v092
 BYTE   W04
 BYTE   BEND   c_v+5
 BYTE   W04
 BYTE   En3
 BYTE   W16
 BYTE   N11  Bn3
 BYTE   W12
 BYTE   N05  Gs3  v088
 BYTE   W12
 BYTE   N23  As3  v096
 BYTE   W12
// 007   ----------------------------------------
 BYTE   W12
 BYTE   N11  Bn3  v092
 BYTE   W12
 BYTE   Cs4  v084
 BYTE   W12
 BYTE   N23  Fs4  v096
 BYTE   W24
 BYTE   N10  En4  v088
 BYTE   W12
 BYTE   BEND   c_v-6
 BYTE   N23  Dn4
 BYTE   W02
 BYTE   BEND   c_v-5
 BYTE   W01
 BYTE   Cn3
 BYTE   W01
 BYTE   Cs3
 BYTE   W01
 BYTE   Dn3
 BYTE   W01
 BYTE   En3
 BYTE   W18
// 008   ----------------------------------------
 BYTE   N36  Bn3
 BYTE   W30
 BYTE   W01
 BYTE   BEND   c_v-2
 BYTE   W01
 BYTE   Cs3
 BYTE   W01
 BYTE   Cn3
 BYTE   W01
 BYTE   Bn2
 BYTE   W01
 BYTE   As2
 BYTE   W13
 BYTE   As2
 BYTE   N11
 BYTE   W01
 BYTE   BEND   c_v-4
 BYTE   W01
 BYTE   Cs3
 BYTE   W01
 BYTE   En3
 BYTE   W09
 BYTE   N11  Cs4  v084
 BYTE   W12
 BYTE   N10  Dn4
 BYTE   W11
 BYTE   BEND   c_v-6
 BYTE   W01
 BYTE   As2
 BYTE   N32  Dn4  v088
 BYTE   W01
 BYTE   BEND   c_v-4
 BYTE   W01
 BYTE   Cs3
 BYTE   W01
 BYTE   En3
 BYTE   W09
// 009   ----------------------------------------
 BYTE   W24
 BYTE   N10  En4  v084
 BYTE   W12
 BYTE   BEND   c_v-11
 BYTE   N10  Cs4  v088
 BYTE   W01
 BYTE   BEND   c_v-7
 BYTE   W01
 BYTE   Bn2
 BYTE   W01
 BYTE   En3
 BYTE   W21
 BYTE   N11  Bn3  v084
 BYTE   W24
 BYTE   BEND   c_v-11
 BYTE   N23  Bn3  v088
 BYTE   W01
 BYTE   BEND   c_v-7
 BYTE   W01
 BYTE   Bn2
 BYTE   W01
 BYTE   En3
 BYTE   W09
// 010   ----------------------------------------
 BYTE   W12
 BYTE   N04  An3  v084
 BYTE   W12
 BYTE   BEND   c_v-11
 BYTE   N32  An3  v088
 BYTE   W01
 BYTE   BEND   c_v-7
 BYTE   W01
 BYTE   Bn2
 BYTE   W01
 BYTE   En3
 BYTE   W32
 BYTE   W01
 BYTE   N22  Gn3  v084
 BYTE   W24
 BYTE   BEND   c_v-6
 BYTE   N23  Gn3  v088
 BYTE   W01
 BYTE   BEND   c_v-4
 BYTE   W01
 BYTE   Cs3
 BYTE   W01
 BYTE   En3
 BYTE   W09
// 011   ----------------------------------------
 BYTE   W12
 BYTE   N11  Fs3  v084
 BYTE   W12
 BYTE   N23  Fs3  v088
 BYTE   W36
 BYTE   N11  En3
 BYTE   W12
 BYTE   N10  Fs3  v084
 BYTE   W12
 BYTE   BEND   c_v-11
 BYTE   N32  En3  v088
 BYTE   W01
 BYTE   BEND   c_v-7
 BYTE   W01
 BYTE   Bn2
 BYTE   W01
 BYTE   En3
 BYTE   W09
// 012   ----------------------------------------
 BYTE   W24
 BYTE   N11  Dn3  v084
 BYTE   W12
 BYTE   N23  Dn3  v088
 BYTE   W24
 BYTE   N11  Cs3  v084
 BYTE   W12
 BYTE   Dn3
 BYTE   W12
 BYTE   N32  En3  v088
 BYTE   W12
// 013   ----------------------------------------
 BYTE   W24
 BYTE   N11  Fs3
 BYTE   W12
 BYTE   Gn3  v092
 BYTE   W12
 BYTE   An3
 BYTE   W12
 BYTE   Bn3
 BYTE   W24
 BYTE   BEND   c_v-11
 BYTE   N32  Cs4
 BYTE   W01
 BYTE   BEND   c_v-7
 BYTE   W01
 BYTE   Bn2
 BYTE   W01
 BYTE   En3
 BYTE   W09
// 014   ----------------------------------------
 BYTE   W24
 BYTE   N23  Bn3  v088
 BYTE   W24
 BYTE   Cs4  v092
 BYTE   W24
 BYTE   N10  Dn4  v088
 BYTE   W12
 BYTE   BEND   c_v-11
 BYTE   N23  Cs4  v092
 BYTE   W01
 BYTE   BEND   c_v-7
 BYTE   W01
 BYTE   Bn2
 BYTE   W01
 BYTE   En3
 BYTE   W09
// 015   ----------------------------------------
 BYTE   W12
 BYTE   N11  Bn3  v088
 BYTE   W12
 BYTE   N68  Bn3  v092
 BYTE   W72
// 016   ----------------------------------------
 BYTE   W24
 BYTE   N23  En4
 BYTE   W24
 BYTE   Dn4  v096
 BYTE   W04
 BYTE   BEND   c_v+10
 BYTE   W04
 BYTE   En3
 BYTE   W16
 BYTE   N23  Cs4  v092
 BYTE   W24
// 017   ----------------------------------------
 BYTE   Bn3
 BYTE   W24
 BYTE   An3
 BYTE   W24
 BYTE   Gn3
 BYTE   W24
 BYTE   An3
 BYTE   W24
// 018   ----------------------------------------
 BYTE   N36  Fs3
 BYTE   W48
 BYTE   BEND   c_v-11
 BYTE   N11  En3  v088
 BYTE   W01
 BYTE   BEND   c_v-7
 BYTE   W01
 BYTE   Bn2
 BYTE   W01
 BYTE   En3
 BYTE   W09
 BYTE   N11  Dn3
 BYTE   W12
 BYTE   En3
 BYTE   W12
 BYTE   N56  Fs3  v092
 BYTE   W12
// 019   ----------------------------------------
 BYTE   W48
 BYTE   N23  Gn3
 BYTE   W24
 BYTE   N11  An3
 BYTE   W12
 BYTE   N56  Bn3  v088
 BYTE   W12
// 020   ----------------------------------------
 BYTE   W48
 BYTE   N11  Cs4  v096
 BYTE   W12
 BYTE   Dn4  v088
 BYTE   W24
 BYTE   N23
 BYTE   W12
// 021   ----------------------------------------
 BYTE   W12
 BYTE   N11  Cs4  v092
 BYTE   W12
 BYTE   N23
 BYTE   W24
 BYTE   N22  Bn3
 BYTE   W14
 BYTE   BEND   c_v-2
 BYTE   W01
 BYTE   Cs3
 BYTE   W01
 BYTE   Cn3
 BYTE   W01
 BYTE   Bn2
 BYTE   W01
 BYTE   As2
 BYTE   W01
 BYTE   An2
 BYTE   W01
 BYTE   Gs2
 BYTE   W01
 BYTE   Gn2
 BYTE   W01
 BYTE   Fs2
 BYTE   W01
 BYTE   En3
 BYTE   W01
 BYTE   N05  An3
 BYTE   W12
 BYTE   BEND   c_v-11
 BYTE   W01
 BYTE   An2
 BYTE   W01
 BYTE   Bn2
 BYTE   W01
 BYTE   En3
 BYTE   W09
// 022   ----------------------------------------
 BYTE   W96
// 023   ----------------------------------------
 BYTE   W84
 BYTE   Bn1
 BYTE   W01
 BYTE   Fs2
 BYTE   W01
 BYTE   An2
 BYTE   N28  Gn4  v100
 BYTE   W01
 BYTE   BEND   c_v+0
 BYTE   W09
// 024   ----------------------------------------
 BYTE   W24
 BYTE   N11  Fs4  v096
 BYTE   W24
 BYTE   En4  v100
 BYTE   W12
 BYTE   N22  Dn4  v096
 BYTE   W24
 BYTE   BEND   c_v-11
 BYTE   N32  En4  v100
 BYTE   W01
 BYTE   BEND   c_v-7
 BYTE   W01
 BYTE   Bn2
 BYTE   W01
 BYTE   En3
 BYTE   W09
// 025   ----------------------------------------
 BYTE   W16
 BYTE   Ds3
 BYTE   W02
 BYTE   Cs3
 BYTE   W01
 BYTE   Cn3
 BYTE   W01
 BYTE   As2
 BYTE   W01
 BYTE   Gs2
 BYTE   W01
 BYTE   Fn2
 BYTE   W01
 BYTE   Dn2
 BYTE   W01
 BYTE   Bn1
 BYTE   W11
 BYTE   En3
 BYTE   W01
 BYTE   N11  Cs4
 BYTE   W12
 BYTE   Dn4  v096
 BYTE   W12
 BYTE   N23  En4
 BYTE   W24
 BYTE   N32  Fs4  v100
 BYTE   W12
// 026   ----------------------------------------
 BYTE   W24
 BYTE   N10  Gn4  v092
 BYTE   W12
 BYTE   BEND   c_v-11
 BYTE   N23  Fs4  v100
 BYTE   W01
 BYTE   BEND   c_v-7
 BYTE   W01
 BYTE   Bn2
 BYTE   W01
 BYTE   En3
 BYTE   W21
 BYTE   N23  En4  v096
 BYTE   W24
 BYTE   N32  Ds4  v100
 BYTE   W12
// 027   ----------------------------------------
 BYTE   W16
 BYTE   BEND   c_v-1
 BYTE   W02
 BYTE   Cs3
 BYTE   W01
 BYTE   Cn3
 BYTE   W01
 BYTE   As2
 BYTE   W01
 BYTE   Gs2
 BYTE   W01
 BYTE   Fn2
 BYTE   W01
 BYTE   Dn2
 BYTE   W01
 BYTE   Bn1
 BYTE   W11
 BYTE   An3
 BYTE   W01
 BYTE   N23  Bn3
 BYTE   W12
 BYTE   BEND   c_v+0
 BYTE   W03
 BYTE   An3
 BYTE   W03
 BYTE   En3
 BYTE   W06
 BYTE   N11  An3  v096
 BYTE   W12
 BYTE   Gn3  v100
 BYTE   W12
 BYTE   Fs3  v096
 BYTE   W12
// 028   ----------------------------------------
 BYTE   N44  Gn3
 BYTE   W60
 BYTE   N11  An3  v100
 BYTE   W12
 BYTE   Fs3  v092
 BYTE   W12
 BYTE   N56  Gn3  v100
 BYTE   W12
// 029   ----------------------------------------
 BYTE   W32
 BYTE   W02
 BYTE   BEND   c_v-11
 BYTE   W02
 BYTE   En3
 BYTE   W12
 BYTE   N11  Fs3  v096
 BYTE   W12
 BYTE   En3
 BYTE   W12
 BYTE   Fs3
 BYTE   W12
 BYTE   N23  Gn3  v100
 BYTE   W12
// 030   ----------------------------------------
 BYTE   W12
 BYTE   N04  Gn3  v092
 BYTE   W12
 BYTE   N11
 BYTE   W12
 BYTE   N23  Bn3  v100
 BYTE   W24
 BYTE   N04  Bn3  v092
 BYTE   W12
 BYTE   N11
 BYTE   W12
 BYTE   N60  Cs4  v100
 BYTE   W12
// 031   ----------------------------------------
Label_6_0101C4A7:
 BYTE   W60
 BYTE   BEND   c_v-11
 BYTE   N11  Bn3  v104
 BYTE   W01
 BYTE   BEND   c_v-7
 BYTE   W01
 BYTE   Bn2
 BYTE   W01
 BYTE   En3
 BYTE   W09
 BYTE   N11  Cs4  v096
 BYTE   W12
 BYTE   N56  Dn4  v100
 BYTE   W12
 BYTE   PEND 
// 032   ----------------------------------------
Label_6_0101C4BE:
 BYTE   W60
 BYTE   BEND   c_v-11
 BYTE   N11  Cs4  v104
 BYTE   W01
 BYTE   BEND   c_v-7
 BYTE   W01
 BYTE   Bn2
 BYTE   W01
 BYTE   En3
 BYTE   W09
 BYTE   N11  An3  v096
 BYTE   W12
 BYTE   N56  Bn3  v100
 BYTE   W12
 BYTE   PEND 
// 033   ----------------------------------------
Label_6_0101C4D5:
 BYTE   W60
 BYTE   BEND   c_v-6
 BYTE   N11  En4  v104
 BYTE   W01
 BYTE   BEND   c_v-4
 BYTE   W01
 BYTE   Cs3
 BYTE   W01
 BYTE   En3
 BYTE   W09
 BYTE   N11  Dn4  v096
 BYTE   W12
 BYTE   N23  Cs4  v100
 BYTE   W12
 BYTE   PEND 
// 034   ----------------------------------------
Label_6_0101C4EC:
 BYTE   W12
 BYTE   N07  Cs4  v100
 BYTE   W12
 BYTE   N23  Bn3
 BYTE   W24
 BYTE   An3
 BYTE   W24
 BYTE   N11  En3  v104
 BYTE   W12
 BYTE   N68  Fs3  v100
 BYTE   W12
 BYTE   PEND 
// 035   ----------------------------------------
Label_6_0101C4FF:
 BYTE   W72
 BYTE   BEND   c_v-11
 BYTE   N11  En3  v104
 BYTE   W01
 BYTE   BEND   c_v-7
 BYTE   W01
 BYTE   Bn2
 BYTE   W01
 BYTE   En3
 BYTE   W09
 BYTE   N11  Fs3  v092
 BYTE   W12
 BYTE   PEND 
// 036   ----------------------------------------
Label_6_0101C512:
 BYTE   N32  Gn3  v096
 BYTE   W36
 BYTE   N23  Gn3  v100
 BYTE   W24
 BYTE   N11  Fs3
 BYTE   W12
 BYTE   En3  v096
 BYTE   W12
 BYTE   N32  Fs3
 BYTE   W12
 BYTE   PEND 
// 037   ----------------------------------------
Label_6_0101C524:
 BYTE   W24
 BYTE   N23  Bn3  v100
 BYTE   W24
 BYTE   N11  As3
 BYTE   W12
 BYTE   Bn3  v096
 BYTE   W24
 BYTE   BEND   c_v-11
 BYTE   N32  Cs4  v104
 BYTE   W01
 BYTE   BEND   c_v-7
 BYTE   W01
 BYTE   Bn2
 BYTE   W01
 BYTE   En3
 BYTE   W09
 BYTE   PEND 
// 038   ----------------------------------------
Label_6_0101C53D:
 BYTE   W24
 BYTE   N23  Bn3  v096
 BYTE   W24
 BYTE   N11  As3  v104
 BYTE   W12
 BYTE   N23  Bn3  v100
 BYTE   W24
 BYTE   N56  Cs4
 BYTE   W12
 BYTE   PEND 
// 039   ----------------------------------------
Label_6_0101C54E:
 BYTE   W60
 BYTE   N11  Bn3  v100
 BYTE   W12
 BYTE   N10  Bn3  v096
 BYTE   W12
 BYTE   BEND   c_v-6
 BYTE   N68  Dn4  v104
 BYTE   W01
 BYTE   BEND   c_v-4
 BYTE   W01
 BYTE   Cs3
 BYTE   W01
 BYTE   En3
 BYTE   W09
 BYTE   PEND 
// 040   ----------------------------------------
Label_6_0101C565:
 BYTE   W60
 BYTE   N11  Cs4  v100
 BYTE   W12
 BYTE   Dn4  v096
 BYTE   W12
 BYTE   N32  En4  v104
 BYTE   W12
 BYTE   PEND 
// 041   ----------------------------------------
Label_6_0101C572:
 BYTE   W24
 BYTE   N23  Dn4  v100
 BYTE   W24
 BYTE   N11  Cs4
 BYTE   W12
 BYTE   N23  Bn3
 BYTE   W24
 BYTE   N32  En4  v104
 BYTE   W12
 BYTE   PEND 
// 042   ----------------------------------------
Label_6_0101C582:
 BYTE   W24
 BYTE   N11  Dn4  v100
 BYTE   W12
 BYTE   N32  Cs4  v104
 BYTE   W36
 BYTE   N10  En4  v100
 BYTE   W12
 BYTE   BEND   c_v-5
 BYTE   N32  Gn4  v104
 BYTE   W01
 BYTE   BEND   c_v-4
 BYTE   W01
 BYTE   Dn3
 BYTE   W01
 BYTE   En3
 BYTE   W09
 BYTE   PEND 
// 043   ----------------------------------------
 BYTE   W24
 BYTE   N10  An4  v100
 BYTE   W11
 BYTE   BEND   c_v-11
 BYTE   W01
 BYTE   N32  Fs4  v104
 BYTE   W01
 BYTE   BEND   c_v-7
 BYTE   W01
 BYTE   Bn2
 BYTE   W01
 BYTE   En3
 BYTE   W19
 BYTE   Cn3
 BYTE   W01
 BYTE   Bn2
 BYTE   W01
 BYTE   As2
 BYTE   W01
 BYTE   Gs2
 BYTE   W01
 BYTE   Gn2
 BYTE   W01
 BYTE   Fs2
 BYTE   W01
 BYTE   Fn2
 BYTE   W07
 BYTE   En3
 BYTE   W01
 BYTE   N11  En3  v100
 BYTE   W12
 BYTE   Fs3  v096
 BYTE   W12
// 044   ----------------------------------------
Label_6_0101C5C7:
 BYTE   N11  Gn3  v100
 BYTE   W12
 BYTE   En3
 BYTE   W12
 BYTE   Fs3  v096
 BYTE   W12
 BYTE   N23  Gn3  v100
 BYTE   W24
 BYTE   N11  An3  v104
 BYTE   W12
 BYTE   Bn3  v096
 BYTE   W12
 BYTE   Cs4  v100
 BYTE   W12
 BYTE   PEND 
// 045   ----------------------------------------
Label_6_0101C5DF:
 BYTE   N23  Dn4  v100
 BYTE   W24
 BYTE   N11  En4  v096
 BYTE   W12
 BYTE   Cs4  v104
 BYTE   W24
 BYTE   N22  An3  v096
 BYTE   W24
 BYTE   BEND   c_v-11
 BYTE   W01
 BYTE   An2
 BYTE   W01
 BYTE   Bn2
 BYTE   W01
 BYTE   En3
 BYTE   W09
 BYTE   PEND 
// 046   ----------------------------------------
 BYTE   W96
// 047   ----------------------------------------
 BYTE   W96
// 048   ----------------------------------------
 BYTE   W96
// 049   ----------------------------------------
 BYTE   W96
// 050   ----------------------------------------
 BYTE   W96
// 051   ----------------------------------------
 BYTE   W96
// 052   ----------------------------------------
 BYTE   W96
// 053   ----------------------------------------
 BYTE   W96
// 054   ----------------------------------------
 BYTE   W96
// 055   ----------------------------------------
 BYTE   W96
// 056   ----------------------------------------
 BYTE   W96
// 057   ----------------------------------------
 BYTE   W96
// 058   ----------------------------------------
 BYTE   W96
// 059   ----------------------------------------
 BYTE   W96
// 060   ----------------------------------------
 BYTE   W96
// 061   ----------------------------------------
 BYTE   W96
// 062   ----------------------------------------
 BYTE   W96
// 063   ----------------------------------------
 BYTE   W96
// 064   ----------------------------------------
 BYTE   W96
// 065   ----------------------------------------
 BYTE   W96
// 066   ----------------------------------------
 BYTE   W96
// 067   ----------------------------------------
 BYTE   W96
// 068   ----------------------------------------
 BYTE   W96
// 069   ----------------------------------------
 BYTE   W96
// 070   ----------------------------------------
 BYTE   W96
// 071   ----------------------------------------
 BYTE   W96
// 072   ----------------------------------------
 BYTE   W96
// 073   ----------------------------------------
 BYTE   W96
// 074   ----------------------------------------
 BYTE   W96
// 075   ----------------------------------------
 BYTE   W96
// 076   ----------------------------------------
 BYTE   W96
// 077   ----------------------------------------
 BYTE   W96
// 078   ----------------------------------------
 BYTE   W96
 BYTE   PATT
  POIN2 Label_6_0101C4A7
 BYTE   PATT
  POIN2 Label_6_0101C4BE
 BYTE   PATT
  POIN2 Label_6_0101C4D5
 BYTE   PATT
  POIN2 Label_6_0101C4EC
 BYTE   PATT
  POIN2 Label_6_0101C4FF
 BYTE   PATT
  POIN2 Label_6_0101C512
 BYTE   PATT
  POIN2 Label_6_0101C524
 BYTE   PATT
  POIN2 Label_6_0101C53D
 BYTE   PATT
  POIN2 Label_6_0101C54E
 BYTE   PATT
  POIN2 Label_6_0101C565
 BYTE   PATT
  POIN2 Label_6_0101C572
 BYTE   PATT
  POIN2 Label_6_0101C582
// 079   ----------------------------------------
 BYTE   W24
 BYTE   N10  An4  v100
 BYTE   W12
 BYTE   BEND   c_v-11
 BYTE   N32  Fs4  v104
 BYTE   W01
 BYTE   BEND   c_v-7
 BYTE   W01
 BYTE   Bn2
 BYTE   W01
 BYTE   En3
 BYTE   W19
 BYTE   Cn3
 BYTE   W01
 BYTE   Bn2
 BYTE   W01
 BYTE   As2
 BYTE   W01
 BYTE   Gs2
 BYTE   W01
 BYTE   Gn2
 BYTE   W01
 BYTE   Fs2
 BYTE   W01
 BYTE   Fn2
 BYTE   W07
 BYTE   En3
 BYTE   W01
 BYTE   N11  En3  v100
 BYTE   W12
 BYTE   Fs3  v096
 BYTE   W12
 BYTE   PATT
  POIN2 Label_6_0101C5C7
 BYTE   PATT
  POIN2 Label_6_0101C5DF
// 080   ----------------------------------------
 BYTE   W96
// 081   ----------------------------------------
 BYTE   W96
// 082   ----------------------------------------
 BYTE   W96
// 083   ----------------------------------------
 BYTE   W96
// 084   ----------------------------------------
 BYTE   W96
// 085   ----------------------------------------
 BYTE   W96
// 086   ----------------------------------------
 BYTE   W96
// 087   ----------------------------------------
 BYTE   W96
// 088   ----------------------------------------
 BYTE   W96
// 089   ----------------------------------------
 BYTE   W96
// 090   ----------------------------------------
 BYTE   GoTo
  POIN2 Label_6_0101C22A
 BYTE   FINE

//**************** Track 8 (Midi-Chn.7) ****************//

FlapperGirl_008:
// 000   ----------------------------------------
 BYTE   KEYSH   FlapperGirl_key+0
Label_7_0101C69A:
 BYTE   VOICE   81
 BYTE   PAN   c_v+0
 BYTE   VOL   64*FlapperGirl_mvl/mxv
 BYTE   W96
// 001   ----------------------------------------
 BYTE   W96
// 002   ----------------------------------------
 BYTE   W96
// 003   ----------------------------------------
 BYTE   W96
// 004   ----------------------------------------
 BYTE   W96
// 005   ----------------------------------------
 BYTE   W84
 BYTE   N23  Fs3  v088
 BYTE   W12
// 006   ----------------------------------------
 BYTE   W12
 BYTE   N05  En3  v084
 BYTE   W12
 BYTE   N04  Dn3  v080
 BYTE   W12
 BYTE   N23  Cs3  v088
 BYTE   W04
 BYTE   BEND   c_v+5
 BYTE   W04
 BYTE   En3
 BYTE   W16
 BYTE   N11  Bn2  v096
 BYTE   W12
 BYTE   N05  Gs2  v084
 BYTE   W12
 BYTE   N23  As2  v088
 BYTE   W12
// 007   ----------------------------------------
 BYTE   W12
 BYTE   N11  Bn2  v084
 BYTE   W12
 BYTE   Cs3  v076
 BYTE   W12
 BYTE   N23  Fs3  v088
 BYTE   W24
 BYTE   N10  En3  v080
 BYTE   W12
 BYTE   BEND   c_v-6
 BYTE   N23  Dn3  v104
 BYTE   W02
 BYTE   BEND   c_v-5
 BYTE   W01
 BYTE   Cn3
 BYTE   W01
 BYTE   Cs3
 BYTE   W01
 BYTE   Dn3
 BYTE   W01
 BYTE   En3
 BYTE   W18
// 008   ----------------------------------------
 BYTE   W96
// 009   ----------------------------------------
 BYTE   W96
// 010   ----------------------------------------
 BYTE   W96
// 011   ----------------------------------------
 BYTE   W96
// 012   ----------------------------------------
 BYTE   W96
// 013   ----------------------------------------
 BYTE   W96
// 014   ----------------------------------------
 BYTE   W96
// 015   ----------------------------------------
 BYTE   W96
// 016   ----------------------------------------
 BYTE   W96
// 017   ----------------------------------------
 BYTE   W96
// 018   ----------------------------------------
 BYTE   W96
// 019   ----------------------------------------
 BYTE   W96
// 020   ----------------------------------------
 BYTE   W96
// 021   ----------------------------------------
 BYTE   W96
// 022   ----------------------------------------
 BYTE   W96
// 023   ----------------------------------------
 BYTE   W96
// 024   ----------------------------------------
 BYTE   W96
// 025   ----------------------------------------
 BYTE   W96
// 026   ----------------------------------------
 BYTE   W96
// 027   ----------------------------------------
 BYTE   W96
// 028   ----------------------------------------
 BYTE   W96
// 029   ----------------------------------------
 BYTE   W96
// 030   ----------------------------------------
 BYTE   W96
// 031   ----------------------------------------
Label_7_0101C700:
 BYTE   W60
 BYTE   BEND   c_v-6
 BYTE   N12  Dn4  v092
 BYTE   W01
 BYTE   BEND   c_v-4
 BYTE   W01
 BYTE   Cs3
 BYTE   W01
 BYTE   En3
 BYTE   W09
 BYTE   N12  En4  v088
 BYTE   W12
 BYTE   N60  Fs4  v092
 BYTE   W12
 BYTE   PEND 
// 032   ----------------------------------------
Label_7_0101C717:
 BYTE   W60
 BYTE   BEND   c_v-11
 BYTE   N12  En4  v092
 BYTE   W01
 BYTE   BEND   c_v-7
 BYTE   W01
 BYTE   Bn2
 BYTE   W01
 BYTE   En3
 BYTE   W09
 BYTE   N12  Cs4  v088
 BYTE   W12
 BYTE   N60  Dn4  v092
 BYTE   W12
 BYTE   PEND 
// 033   ----------------------------------------
Label_7_0101C72E:
 BYTE   W60
 BYTE   BEND   c_v-6
 BYTE   N12  Gn4  v092
 BYTE   W01
 BYTE   BEND   c_v-4
 BYTE   W01
 BYTE   Cs3
 BYTE   W01
 BYTE   En3
 BYTE   W09
 BYTE   N12  Fs4  v088
 BYTE   W12
 BYTE   N24  En4  v092
 BYTE   W12
 BYTE   PEND 
// 034   ----------------------------------------
Label_7_0101C745:
 BYTE   W12
 BYTE   N07  En4  v088
 BYTE   W12
 BYTE   N24  Dn4
 BYTE   W24
 BYTE   Cs4  v092
 BYTE   W24
 BYTE   N04  Bn3
 BYTE   W12
 BYTE   N48  Cs4
 BYTE   W12
 BYTE   PEND 
// 035   ----------------------------------------
 BYTE   W36
 BYTE   N36  Cn4
 BYTE   W60
// 036   ----------------------------------------
Label_7_0101C75B:
 BYTE   N36  Cn4  v088
 BYTE   W36
 BYTE   N24  Cn4  v092
 BYTE   W24
 BYTE   N12  Bn3
 BYTE   W12
 BYTE   An3  v088
 BYTE   W12
 BYTE   N36  Bn3
 BYTE   W12
 BYTE   PEND 
// 037   ----------------------------------------
Label_7_0101C76D:
 BYTE   W24
 BYTE   N24  Dn4  v092
 BYTE   W24
 BYTE   N12  Cs4
 BYTE   W12
 BYTE   Dn4  v088
 BYTE   W24
 BYTE   BEND   c_v-11
 BYTE   N36  En4  v092
 BYTE   W01
 BYTE   BEND   c_v-7
 BYTE   W01
 BYTE   Bn2
 BYTE   W01
 BYTE   En3
 BYTE   W09
 BYTE   PEND 
// 038   ----------------------------------------
Label_7_0101C786:
 BYTE   W24
 BYTE   N24  Dn4  v088
 BYTE   W24
 BYTE   N12  Cs4  v092
 BYTE   W12
 BYTE   N24  Dn4
 BYTE   W24
 BYTE   En4
 BYTE   W12
 BYTE   PEND 
// 039   ----------------------------------------
Label_7_0101C795:
 BYTE   W12
 BYTE   N24  Dn4  v088
 BYTE   W24
 BYTE   Cs4  v092
 BYTE   W24
 BYTE   N12  Fs4
 BYTE   W12
 BYTE   N11  Fs4  v088
 BYTE   W12
 BYTE   BEND   c_v-11
 BYTE   N72  Fs4  v092
 BYTE   W01
 BYTE   BEND   c_v-7
 BYTE   W01
 BYTE   Bn2
 BYTE   W01
 BYTE   En3
 BYTE   W09
 BYTE   PEND 
// 040   ----------------------------------------
Label_7_0101C7B2:
 BYTE   W60
 BYTE   N12  En4  v092
 BYTE   W12
 BYTE   Fs4  v088
 BYTE   W12
 BYTE   N36  Gn4  v092
 BYTE   W12
 BYTE   PEND 
// 041   ----------------------------------------
Label_7_0101C7BF:
 BYTE   W24
 BYTE   N24  Fs4  v092
 BYTE   W24
 BYTE   N12  En4
 BYTE   W12
 BYTE   N24  Dn4  v088
 BYTE   W24
 BYTE   N36  Gn4  v092
 BYTE   W12
 BYTE   PEND 
// 042   ----------------------------------------
Label_7_0101C7D0:
 BYTE   W24
 BYTE   N12  Fs4  v092
 BYTE   W12
 BYTE   N36  En4
 BYTE   W36
 BYTE   N11  Gn4
 BYTE   W12
 BYTE   BEND   c_v-10
 BYTE   N36  Bn4
 BYTE   W01
 BYTE   BEND   c_v-7
 BYTE   W01
 BYTE   Cn3
 BYTE   W01
 BYTE   En3
 BYTE   W09
 BYTE   PEND 
// 043   ----------------------------------------
Label_7_0101C7E8:
 BYTE   W24
 BYTE   N11  Cs5  v092
 BYTE   W12
 BYTE   BEND   c_v-11
 BYTE   N32  An4
 BYTE   W01
 BYTE   BEND   c_v-7
 BYTE   W01
 BYTE   Bn2
 BYTE   W01
 BYTE   En3
 BYTE   W19
 BYTE   Cn3
 BYTE   W01
 BYTE   Bn2
 BYTE   W01
 BYTE   As2
 BYTE   W01
 BYTE   Gs2
 BYTE   W01
 BYTE   Gn2
 BYTE   W01
 BYTE   Fs2
 BYTE   W01
 BYTE   Fn2
 BYTE   W08
 BYTE   En3
 BYTE   N12  Gn3
 BYTE   W12
 BYTE   An3  v088
 BYTE   W12
 BYTE   PEND 
// 044   ----------------------------------------
Label_7_0101C80F:
 BYTE   N12  Bn3  v092
 BYTE   W12
 BYTE   Gn3
 BYTE   W12
 BYTE   An3  v088
 BYTE   W12
 BYTE   N24  Bn3  v092
 BYTE   W24
 BYTE   N12  Cs4
 BYTE   W12
 BYTE   Dn4  v088
 BYTE   W12
 BYTE   En4  v092
 BYTE   W12
 BYTE   PEND 
// 045   ----------------------------------------
 BYTE   N24  Fs4
 BYTE   W24
 BYTE   N12  Gn4  v088
 BYTE   W12
 BYTE   An4  v092
 BYTE   W24
 BYTE   N23  Fs4  v088
 BYTE   W24
 BYTE   BEND   c_v-11
 BYTE   N96  En4  v092
 BYTE   W01
 BYTE   BEND   c_v-7
 BYTE   W01
 BYTE   Bn2
 BYTE   W01
 BYTE   En3
 BYTE   W09
// 046   ----------------------------------------
 BYTE   W84
 BYTE   N84  Dn4
 BYTE   W12
// 047   ----------------------------------------
 BYTE   W96
// 048   ----------------------------------------
 BYTE   W96
// 049   ----------------------------------------
 BYTE   W96
// 050   ----------------------------------------
 BYTE   W96
// 051   ----------------------------------------
 BYTE   W96
// 052   ----------------------------------------
 BYTE   W96
// 053   ----------------------------------------
 BYTE   W96
// 054   ----------------------------------------
 BYTE   W96
// 055   ----------------------------------------
 BYTE   W96
// 056   ----------------------------------------
 BYTE   W96
// 057   ----------------------------------------
 BYTE   W96
// 058   ----------------------------------------
 BYTE   W96
// 059   ----------------------------------------
 BYTE   W96
// 060   ----------------------------------------
 BYTE   W96
// 061   ----------------------------------------
 BYTE   W96
// 062   ----------------------------------------
 BYTE   W96
// 063   ----------------------------------------
 BYTE   W96
// 064   ----------------------------------------
 BYTE   W96
// 065   ----------------------------------------
 BYTE   W96
// 066   ----------------------------------------
 BYTE   W96
// 067   ----------------------------------------
 BYTE   W96
// 068   ----------------------------------------
 BYTE   W96
// 069   ----------------------------------------
 BYTE   W96
// 070   ----------------------------------------
 BYTE   W96
// 071   ----------------------------------------
 BYTE   W96
// 072   ----------------------------------------
 BYTE   W96
// 073   ----------------------------------------
 BYTE   W96
// 074   ----------------------------------------
 BYTE   W96
// 075   ----------------------------------------
 BYTE   W96
// 076   ----------------------------------------
 BYTE   W96
// 077   ----------------------------------------
 BYTE   W96
// 078   ----------------------------------------
 BYTE   W96
 BYTE   PATT
  POIN2 Label_7_0101C700
 BYTE   PATT
  POIN2 Label_7_0101C717
 BYTE   PATT
  POIN2 Label_7_0101C72E
 BYTE   PATT
  POIN2 Label_7_0101C745
// 079   ----------------------------------------
 BYTE   W36
 BYTE   N36  Cn4  v092
 BYTE   W60
 BYTE   PATT
  POIN2 Label_7_0101C75B
 BYTE   PATT
  POIN2 Label_7_0101C76D
 BYTE   PATT
  POIN2 Label_7_0101C786
 BYTE   PATT
  POIN2 Label_7_0101C795
 BYTE   PATT
  POIN2 Label_7_0101C7B2
 BYTE   PATT
  POIN2 Label_7_0101C7BF
 BYTE   PATT
  POIN2 Label_7_0101C7D0
 BYTE   PATT
  POIN2 Label_7_0101C7E8
 BYTE   PATT
  POIN2 Label_7_0101C80F
// 080   ----------------------------------------
 BYTE   N24  Fs4  v092
 BYTE   W24
 BYTE   N12  Gn4  v088
 BYTE   W12
 BYTE   En4  v092
 BYTE   W24
 BYTE   N23  Cs4  v088
 BYTE   W24
 BYTE   BEND   c_v-11
 BYTE   N96  En4  v092
 BYTE   W01
 BYTE   BEND   c_v-7
 BYTE   W01
 BYTE   Bn2
 BYTE   W01
 BYTE   En3
 BYTE   W09
// 081   ----------------------------------------
 BYTE   W84
 BYTE   N84  Dn4
 BYTE   W12
// 082   ----------------------------------------
 BYTE   W96
// 083   ----------------------------------------
 BYTE   W96
// 084   ----------------------------------------
 BYTE   W96
// 085   ----------------------------------------
 BYTE   W96
// 086   ----------------------------------------
 BYTE   W96
// 087   ----------------------------------------
 BYTE   W96
// 088   ----------------------------------------
 BYTE   W96
// 089   ----------------------------------------
 BYTE   W96
// 090   ----------------------------------------
 BYTE   W96
// 091   ----------------------------------------
 BYTE   GoTo
  POIN2 Label_7_0101C69A
 BYTE   FINE

//**************** Track 9 (Midi-Chn.8) ****************//

FlapperGirl_009:
// 000   ----------------------------------------
 BYTE   KEYSH   FlapperGirl_key+0
Label_8_0101C8DE:
 BYTE   VOICE   122
 BYTE   PAN   c_v+0
 BYTE   VOL   38*FlapperGirl_mvl/mxv
 BYTE   N05  Cn1  v092
 BYTE   N17  Gn2  v108
 BYTE   W24
 BYTE   N05  Cn1  v080
 BYTE   W12
 BYTE   Cn1  v092
 BYTE   W12
 BYTE   N23  Dn1  v104
 BYTE   W11
 BYTE   N17  Gn2  v092
 BYTE   W01
 BYTE   N05  Cn1
 BYTE   W23
 BYTE   N17  Gn2
 BYTE   W01
 BYTE   N05  Cn1
 BYTE   W12
// 001   ----------------------------------------
 BYTE   W12
 BYTE   N05
 BYTE   W24
 BYTE   Cn1  v080
 BYTE   N11  Dn1  v048
 BYTE   W06
 BYTE   Ds1  v060
 BYTE   W06
 BYTE   N17  Dn1  v104
 BYTE   W12
 BYTE   N23  Ds1
 BYTE   W12
 BYTE   N05  Cn1  v080
 BYTE   W23
 BYTE   N17  Gn2  v092
 BYTE   W01
// 002   ----------------------------------------
 BYTE   N05  Cn1
 BYTE   W24
 BYTE   Cn1  v080
 BYTE   W12
 BYTE   Cn1  v092
 BYTE   W12
 BYTE   N23  Dn1  v104
 BYTE   W12
 BYTE   N05  Cn1  v092
 BYTE   W23
 BYTE   N32  An2  v100
 BYTE   W01
 BYTE   N23  Dn1  v104
 BYTE   W12
// 003   ----------------------------------------
 BYTE   W12
 BYTE   N05  Cn1  v092
 BYTE   W11
 BYTE   N23  An2  v100
 BYTE   W01
 BYTE   Ds1  v104
 BYTE   W18
 BYTE   Dn1  v088
 BYTE   W05
 BYTE   N32  An2  v100
 BYTE   W01
 BYTE   N05  Cn1  v092
 BYTE   W18
 BYTE   N11  Ds1  v088
 BYTE   W06
 BYTE   N23  Dn1  v104
 BYTE   W11
 BYTE   N17  Gn2  v092
 BYTE   W01
 BYTE   N05  Cn1
 BYTE   W12
// 004   ----------------------------------------
 BYTE   W12
 BYTE   N07  Dn1  v048
 BYTE   W04
 BYTE   Ds1
 BYTE   W04
 BYTE   N03  Dn1  v060
 BYTE   W04
 BYTE   N23  Ds1  v104
 BYTE   N17  Gn2  v092
 BYTE   W24
 BYTE   N05  Cn1  v080
 BYTE   N23  As1  v036
 BYTE   W12
 BYTE   N05  Cn1  v092
 BYTE   W12
 BYTE   N23  Dn1  v104
 BYTE   N23  As1  v036
 BYTE   W12
 BYTE   N05  Cn1  v092
 BYTE   W12
// 005   ----------------------------------------
 BYTE   W12
 BYTE   N05
 BYTE   W12
 BYTE   N23  Dn1  v104
 BYTE   N23  As1  v036
 BYTE   W12
 BYTE   N05  Cn1  v080
 BYTE   W12
 BYTE   Cn1  v092
 BYTE   N23  As1  v036
 BYTE   W12
 BYTE   N05  Cn1  v092
 BYTE   W12
 BYTE   N23  Dn1  v104
 BYTE   N23  As1  v036
 BYTE   W11
 BYTE   N17  Gn2  v092
 BYTE   W01
 BYTE   N05  Cn1
 BYTE   W12
// 006   ----------------------------------------
 BYTE   W12
 BYTE   N05
 BYTE   W12
 BYTE   N23  Dn1  v104
 BYTE   N23  As1  v036
 BYTE   W12
 BYTE   N05  Cn1  v092
 BYTE   W12
 BYTE   N23  Dn1  v104
 BYTE   N23  As1  v036
 BYTE   W12
 BYTE   N05  Cn1  v092
 BYTE   W12
 BYTE   N23  Dn1  v104
 BYTE   N23  As1  v036
 BYTE   W11
 BYTE   N17  Gn2  v092
 BYTE   W01
 BYTE   N05  Cn1
 BYTE   W12
// 007   ----------------------------------------
 BYTE   W12
 BYTE   N06  Ds1  v084
 BYTE   W01
 BYTE   N11  Dn1  v104
 BYTE   W11
 BYTE   N06  Ds1  v084
 BYTE   W01
 BYTE   N23  Dn1  v104
 BYTE   W10
 BYTE   N17  Gn2  v092
 BYTE   W01
 BYTE   N05  Cn1
 BYTE   W24
 BYTE   N17  Dn1  v104
 BYTE   W12
 BYTE   N11  Ds1  v060
 BYTE   W06
 BYTE   Dn1  v088
 BYTE   W06
 BYTE   N17  Ds1  v104
 BYTE   W11
 BYTE   Gn2  v092
 BYTE   W01
// 008   ----------------------------------------
Label_8_0101C9FC:
 BYTE   N05  Cn1  v092
 BYTE   W12
 BYTE   Cn1  v080
 BYTE   W12
 BYTE   N23  Dn1  v104
 BYTE   N23  As1  v036
 BYTE   W12
 BYTE   N05  Cn1  v080
 BYTE   W12
 BYTE   Cn1  v092
 BYTE   N23  As1  v036
 BYTE   W24
 BYTE   Dn1  v104
 BYTE   N23  As1  v036
 BYTE   W12
 BYTE   N05  Cn1  v080
 BYTE   W12
 BYTE   PEND 
// 009   ----------------------------------------
Label_8_0101CA1F:
 BYTE   N23  As1  v036
 BYTE   W12
 BYTE   N05  Cn1  v092
 BYTE   W12
 BYTE   N23  Dn1  v104
 BYTE   N23  As1  v036
 BYTE   W12
 BYTE   N05  Cn1  v080
 BYTE   W12
 BYTE   Cn1  v092
 BYTE   N23  As1  v036
 BYTE   W24
 BYTE   Dn1  v104
 BYTE   N23  As1  v036
 BYTE   W12
 BYTE   N05  Cn1  v092
 BYTE   W12
 BYTE   PEND 
// 010   ----------------------------------------
Label_8_0101CA43:
 BYTE   N23  As1  v036
 BYTE   W12
 BYTE   N05  Cn1  v092
 BYTE   W12
 BYTE   N23  Dn1  v104
 BYTE   N23  As1  v036
 BYTE   W18
 BYTE   N05  Cn1  v080
 BYTE   W06
 BYTE   Cn1  v092
 BYTE   N23  As1  v036
 BYTE   W24
 BYTE   Dn1  v104
 BYTE   N23  As1  v036
 BYTE   W12
 BYTE   N05  Cn1  v092
 BYTE   W12
 BYTE   PEND 
// 011   ----------------------------------------
Label_8_0101CA67:
 BYTE   N23  As1  v036
 BYTE   W12
 BYTE   N05  Cn1  v092
 BYTE   W12
 BYTE   N23  Dn1  v104
 BYTE   N23  As1  v036
 BYTE   W18
 BYTE   N05  Cn1  v080
 BYTE   W06
 BYTE   Cn1  v092
 BYTE   N23  As1  v036
 BYTE   W24
 BYTE   Dn1  v104
 BYTE   N23  As1  v036
 BYTE   W12
 BYTE   N05  Cn1  v080
 BYTE   W12
 BYTE   PEND 
// 012   ----------------------------------------
Label_8_0101CA8B:
 BYTE   N05  Cn1  v092
 BYTE   N23  As1  v036
 BYTE   W06
 BYTE   N05  Cn1  v056
 BYTE   W06
 BYTE   N05
 BYTE   W06
 BYTE   N05
 BYTE   W06
 BYTE   N23  Dn1  v104
 BYTE   N23  As1  v036
 BYTE   W12
 BYTE   N05  Cn1  v056
 BYTE   W06
 BYTE   Cn1  v064
 BYTE   W06
 BYTE   Cn1  v092
 BYTE   N23  As1  v036
 BYTE   W18
 BYTE   N11  Ds1  v088
 BYTE   W06
 BYTE   N23  Dn1  v104
 BYTE   N23  As1  v036
 BYTE   W24
 BYTE   PEND 
 BYTE   PATT
  POIN2 Label_8_0101CA8B
 BYTE   PATT
  POIN2 Label_8_0101CA8B
// 013   ----------------------------------------
 BYTE   N05  Cn1  v092
 BYTE   N23  As1  v036
 BYTE   W06
 BYTE   N05  Cn1  v056
 BYTE   W06
 BYTE   N05
 BYTE   W06
 BYTE   N05
 BYTE   W05
 BYTE   N17  Gn2  v092
 BYTE   W01
 BYTE   N23  Dn1  v104
 BYTE   W12
 BYTE   N05  Cn1  v056
 BYTE   W06
 BYTE   Cn1  v064
 BYTE   W06
 BYTE   Cn1  v092
 BYTE   N23  As1  v036
 BYTE   W06
 BYTE   N11  Ds1  v088
 BYTE   W06
 BYTE   N17  Dn1  v104
 BYTE   W12
 BYTE   Ds1
 BYTE   W12
 BYTE   N11  Dn1
 BYTE   W06
 BYTE   N17  Ds1  v088
 BYTE   W05
 BYTE   Gn2  v092
 BYTE   W01
// 014   ----------------------------------------
 BYTE   N05  Cn1
 BYTE   W24
 BYTE   N17  Dn1  v104
 BYTE   N15  As1  v036
 BYTE   W12
 BYTE   Bn1  v020
 BYTE   W06
 BYTE   N17  Dn1  v080
 BYTE   W06
 BYTE   N15  As1  v036
 BYTE   W06
 BYTE   N05  Cn1  v080
 BYTE   W06
 BYTE   Cn1  v092
 BYTE   N15  Bn1  v020
 BYTE   W12
 BYTE   N23  Dn1  v104
 BYTE   N15  As1  v036
 BYTE   W12
 BYTE   N05  Cn1  v080
 BYTE   N15  Bn1  v020
 BYTE   W12
// 015   ----------------------------------------
Label_8_0101CB29:
 BYTE   N05  Cn1  v092
 BYTE   N15  As1  v036
 BYTE   W12
 BYTE   Bn1  v020
 BYTE   W12
 BYTE   N17  Dn1  v104
 BYTE   N15  As1  v036
 BYTE   W12
 BYTE   Bn1  v020
 BYTE   W06
 BYTE   N17  Dn1  v080
 BYTE   W06
 BYTE   N15  As1  v036
 BYTE   W06
 BYTE   N05  Cn1  v080
 BYTE   W06
 BYTE   Cn1  v092
 BYTE   N15  Bn1  v020
 BYTE   W12
 BYTE   N23  Dn1  v104
 BYTE   N15  As1  v036
 BYTE   W12
 BYTE   N05  Cn1  v080
 BYTE   N15  Bn1  v020
 BYTE   W12
 BYTE   PEND 
 BYTE   PATT
  POIN2 Label_8_0101CB29
 BYTE   PATT
  POIN2 Label_8_0101CB29
 BYTE   PATT
  POIN2 Label_8_0101CB29
 BYTE   PATT
  POIN2 Label_8_0101CB29
// 016   ----------------------------------------
 BYTE   N05  Cn1  v092
 BYTE   N15  As1  v036
 BYTE   W12
 BYTE   Bn1  v020
 BYTE   W12
 BYTE   N17  Dn1  v104
 BYTE   N15  As1  v036
 BYTE   W12
 BYTE   Bn1  v020
 BYTE   W06
 BYTE   N17  Dn1  v080
 BYTE   W06
 BYTE   N15  As1  v036
 BYTE   W06
 BYTE   N05  Cn1  v080
 BYTE   W05
 BYTE   N17  Gn2  v092
 BYTE   W01
 BYTE   N05  Cn1
 BYTE   N15  Bn1  v020
 BYTE   W12
 BYTE   N23  Dn1  v104
 BYTE   N15  As1  v036
 BYTE   W11
 BYTE   N17  Gn2  v092
 BYTE   W01
 BYTE   N05  Cn1  v080
 BYTE   N15  Bn1  v020
 BYTE   W12
// 017   ----------------------------------------
 BYTE   N05  Cn1  v092
 BYTE   N15  As1  v036
 BYTE   W12
 BYTE   Bn1  v020
 BYTE   W12
 BYTE   N23  Dn1  v104
 BYTE   N15  As1  v036
 BYTE   W12
 BYTE   Bn1  v020
 BYTE   W06
 BYTE   N17  Ds1  v076
 BYTE   W06
 BYTE   N15  As1  v036
 BYTE   W06
 BYTE   N17  Dn1  v088
 BYTE   W06
 BYTE   N05  Cn1  v092
 BYTE   N23  Bn1  v020
 BYTE   W12
 BYTE   N11  Ds1  v104
 BYTE   W06
 BYTE   N17  Dn1  v088
 BYTE   W06
 BYTE   N05  Cn1  v080
 BYTE   W11
 BYTE   N17  Gn2  v092
 BYTE   W01
// 018   ----------------------------------------
Label_8_0101CBE5:
 BYTE   N05  Cn1  v092
 BYTE   W24
 BYTE   N23  Dn1  v104
 BYTE   N23  As1  v036
 BYTE   W12
 BYTE   N05  Cn1  v080
 BYTE   W12
 BYTE   Cn1  v092
 BYTE   N23  As1  v036
 BYTE   W12
 BYTE   N05  Cn1  v092
 BYTE   W12
 BYTE   N23  Dn1  v104
 BYTE   N23  As1  v036
 BYTE   W12
 BYTE   N05  Cn1  v080
 BYTE   W12
 BYTE   PEND 
// 019   ----------------------------------------
Label_8_0101CC0A:
 BYTE   N05  Cn1  v092
 BYTE   N23  As1  v036
 BYTE   W12
 BYTE   N05  Cn1  v092
 BYTE   W12
 BYTE   N23  Dn1  v104
 BYTE   N23  As1  v036
 BYTE   W12
 BYTE   N05  Cn1  v080
 BYTE   W12
 BYTE   Cn1  v092
 BYTE   N23  As1  v036
 BYTE   W12
 BYTE   N05  Cn1  v092
 BYTE   W12
 BYTE   N23  Dn1  v104
 BYTE   N23  As1  v036
 BYTE   W12
 BYTE   N05  Cn1  v092
 BYTE   W12
 BYTE   PEND 
// 020   ----------------------------------------
Label_8_0101CC36:
 BYTE   N23  As1  v036
 BYTE   W12
 BYTE   N05  Cn1  v092
 BYTE   W12
 BYTE   N23  Dn1  v104
 BYTE   N23  As1  v036
 BYTE   W24
 BYTE   N05  Cn1  v080
 BYTE   N23  As1  v036
 BYTE   W12
 BYTE   N05  Cn1  v092
 BYTE   W12
 BYTE   N23  Dn1  v104
 BYTE   N23  As1  v036
 BYTE   W12
 BYTE   N05  Cn1  v092
 BYTE   W12
 BYTE   PEND 
// 021   ----------------------------------------
Label_8_0101CC5C:
 BYTE   N23  As1  v036
 BYTE   W12
 BYTE   N05  Cn1  v092
 BYTE   W12
 BYTE   N23  Dn1  v104
 BYTE   N23  As1  v036
 BYTE   W24
 BYTE   N05  Cn1  v080
 BYTE   N23  As1  v036
 BYTE   W12
 BYTE   N05  Cn1  v092
 BYTE   W12
 BYTE   N23  Dn1  v104
 BYTE   N23  As1  v036
 BYTE   W24
 BYTE   PEND 
// 022   ----------------------------------------
Label_8_0101CC7E:
 BYTE   N05  Cn1  v092
 BYTE   N23  As1  v036
 BYTE   W24
 BYTE   Dn1  v104
 BYTE   N23  As1  v036
 BYTE   W24
 BYTE   N05  Cn1  v080
 BYTE   N23  As1  v036
 BYTE   W12
 BYTE   N05  Cn1  v092
 BYTE   W12
 BYTE   N23  Dn1  v104
 BYTE   N23  As1  v036
 BYTE   W12
 BYTE   N05  Cn1  v092
 BYTE   W12
 BYTE   PEND 
 BYTE   PATT
  POIN2 Label_8_0101CC36
// 023   ----------------------------------------
 BYTE   N23  As1  v036
 BYTE   W12
 BYTE   N05  Cn1  v092
 BYTE   W12
 BYTE   N23  Dn1  v104
 BYTE   N23  As1  v036
 BYTE   W12
 BYTE   N05  Cn1  v080
 BYTE   W12
 BYTE   Cn1  v092
 BYTE   N23  As1  v036
 BYTE   W12
 BYTE   N05  Cn1  v080
 BYTE   W06
 BYTE   Cn1  v092
 BYTE   W06
 BYTE   N06  Ds1  v076
 BYTE   W01
 BYTE   N17  Dn1  v116
 BYTE   W10
 BYTE   Gn2  v092
 BYTE   W01
 BYTE   N23  Ds1  v112
 BYTE   W12
// 024   ----------------------------------------
Label_8_0101CCD6:
 BYTE   W12
 BYTE   N17  Dn1  v104
 BYTE   W12
 BYTE   Ds1  v100
 BYTE   W11
 BYTE   Gn2  v092
 BYTE   W01
 BYTE   N23  Dn1  v112
 BYTE   W24
 BYTE   N05  Cn1  v080
 BYTE   W06
 BYTE   Cn1  v092
 BYTE   W06
 BYTE   N06  Ds1  v076
 BYTE   W01
 BYTE   N23  Dn1  v116
 BYTE   W10
 BYTE   N17  Gn2  v092
 BYTE   W01
 BYTE   N05  Cn1
 BYTE   W12
 BYTE   PEND 
// 025   ----------------------------------------
Label_8_0101CCFC:
 BYTE   W12
 BYTE   N05  Cn1  v080
 BYTE   W06
 BYTE   Cn1  v092
 BYTE   W05
 BYTE   N17  Gn2
 BYTE   W01
 BYTE   N23  Dn1  v104
 BYTE   W12
 BYTE   N05  Cn1  v080
 BYTE   W06
 BYTE   N05
 BYTE   W06
 BYTE   Cn1  v092
 BYTE   W12
 BYTE   N05
 BYTE   W12
 BYTE   N23  Dn1  v104
 BYTE   W12
 BYTE   N05  Cn1  v092
 BYTE   W12
 BYTE   PEND 
// 026   ----------------------------------------
Label_8_0101CD1F:
 BYTE   N23  Fn2  v064
 BYTE   W12
 BYTE   N05  Cn1  v080
 BYTE   W06
 BYTE   Cn1  v092
 BYTE   W06
 BYTE   N23  Dn1  v104
 BYTE   N23  Fn2  v064
 BYTE   W18
 BYTE   N05  Cn1  v080
 BYTE   W06
 BYTE   Cn1  v092
 BYTE   N23  Fn2  v064
 BYTE   W12
 BYTE   N05  Cn1  v092
 BYTE   W12
 BYTE   N23  Dn1  v104
 BYTE   N23  Fn2  v064
 BYTE   W12
 BYTE   N05  Cn1  v092
 BYTE   W12
 BYTE   PEND 
// 027   ----------------------------------------
Label_8_0101CD4B:
 BYTE   N05  Cn1  v092
 BYTE   N23  Fn2  v064
 BYTE   W12
 BYTE   N05  Cn1  v092
 BYTE   W12
 BYTE   N23  Dn1  v104
 BYTE   N23  Fn2  v064
 BYTE   W12
 BYTE   N05  Cn1  v080
 BYTE   W06
 BYTE   N05
 BYTE   W06
 BYTE   Cn1  v092
 BYTE   N23  Fn2  v064
 BYTE   W12
 BYTE   N05  Cn1  v092
 BYTE   W12
 BYTE   N23  Dn1  v104
 BYTE   N23  Fn2  v064
 BYTE   W12
 BYTE   N05  Cn1  v092
 BYTE   W12
 BYTE   PEND 
// 028   ----------------------------------------
Label_8_0101CD79:
 BYTE   N23  Fn2  v064
 BYTE   W12
 BYTE   N05  Cn1  v092
 BYTE   W12
 BYTE   N23  Dn1  v104
 BYTE   N23  Fn2  v064
 BYTE   W18
 BYTE   N05  Cn1  v080
 BYTE   W06
 BYTE   Cn1  v092
 BYTE   N23  Fn2  v064
 BYTE   W12
 BYTE   N05  Cn1  v092
 BYTE   W12
 BYTE   N23  Dn1  v104
 BYTE   N23  Fn2  v064
 BYTE   W12
 BYTE   N05  Cn1  v092
 BYTE   W12
 BYTE   PEND 
 BYTE   PATT
  POIN2 Label_8_0101CD79
// 029   ----------------------------------------
Label_8_0101CDA7:
 BYTE   N05  Cn1  v092
 BYTE   N23  Fn2  v064
 BYTE   W12
 BYTE   N05  Cn1  v092
 BYTE   W12
 BYTE   N23  Dn1  v104
 BYTE   N23  Fn2  v064
 BYTE   W18
 BYTE   N05  Cn1  v080
 BYTE   W06
 BYTE   Cn1  v092
 BYTE   N23  Fn2  v064
 BYTE   W12
 BYTE   N05  Cn1  v092
 BYTE   W12
 BYTE   N23  Dn1  v104
 BYTE   N23  Fn2  v064
 BYTE   W12
 BYTE   N05  Cn1  v092
 BYTE   W12
 BYTE   PEND 
// 030   ----------------------------------------
Label_8_0101CDD3:
 BYTE   N23  Fn2  v064
 BYTE   W12
 BYTE   N05  Cn1  v092
 BYTE   W12
 BYTE   N23  Dn1  v104
 BYTE   N23  Fn2  v064
 BYTE   W18
 BYTE   N05  Cn1  v080
 BYTE   W06
 BYTE   Cn1  v092
 BYTE   N23  Fn2  v064
 BYTE   W12
 BYTE   N05  Cn1  v092
 BYTE   W12
 BYTE   N23  Dn1  v104
 BYTE   N23  Fn2  v064
 BYTE   W11
 BYTE   N17  Gn2  v092
 BYTE   W01
 BYTE   N05  Cn1
 BYTE   W12
 BYTE   PEND 
// 031   ----------------------------------------
Label_8_0101CDFF:
 BYTE   W12
 BYTE   N23  Dn1  v104
 BYTE   W12
 BYTE   N05  Cn1  v092
 BYTE   W11
 BYTE   N17  Gn2
 BYTE   W01
 BYTE   N23  Dn1  v104
 BYTE   W24
 BYTE   N05  Cn1  v092
 BYTE   W12
 BYTE   N11  Ds1  v104
 BYTE   W06
 BYTE   N23  Dn1  v088
 BYTE   W05
 BYTE   N17  Gn2  v092
 BYTE   W01
 BYTE   N05  Cn1
 BYTE   W12
 BYTE   PEND 
// 032   ----------------------------------------
 BYTE   W12
 BYTE   N05
 BYTE   W11
 BYTE   N17  Gn2
 BYTE   W01
 BYTE   N23  Dn1  v104
 BYTE   W18
 BYTE   N05  Cn1  v080
 BYTE   W06
 BYTE   Cn1  v092
 BYTE   W12
 BYTE   N05
 BYTE   W12
 BYTE   N23  Dn1  v104
 BYTE   W12
 BYTE   N05  Cn1  v092
 BYTE   N11  Fn2  v028
 BYTE   W06
 BYTE   Fs2  v044
 BYTE   W06
// 033   ----------------------------------------
Label_8_0101CE44:
 BYTE   N17  Fn2  v064
 BYTE   W12
 BYTE   N05  Cn1  v092
 BYTE   N11  Fs2  v028
 BYTE   W06
 BYTE   Fn2  v044
 BYTE   W06
 BYTE   N23  Dn1  v104
 BYTE   N17  Fs2  v064
 BYTE   W12
 BYTE   N11  Fn2  v028
 BYTE   W06
 BYTE   N05  Cn1  v080
 BYTE   N11  Fs2  v044
 BYTE   W06
 BYTE   N05  Cn1  v092
 BYTE   N17  Fn2  v064
 BYTE   W12
 BYTE   N05  Cn1  v092
 BYTE   N11  Fs2  v028
 BYTE   W06
 BYTE   Fn2  v044
 BYTE   W06
 BYTE   N23  Dn1  v104
 BYTE   N17  Fs2  v064
 BYTE   W12
 BYTE   N05  Cn1  v092
 BYTE   N11  Fn2  v028
 BYTE   W06
 BYTE   Fs2  v044
 BYTE   W06
 BYTE   PEND 
 BYTE   PATT
  POIN2 Label_8_0101CE44
 BYTE   PATT
  POIN2 Label_8_0101CE44
 BYTE   PATT
  POIN2 Label_8_0101CE44
 BYTE   PATT
  POIN2 Label_8_0101CE44
// 034   ----------------------------------------
 BYTE   N17  Fn2  v064
 BYTE   W12
 BYTE   N05  Cn1  v092
 BYTE   N11  Fs2  v028
 BYTE   W06
 BYTE   Fn2  v044
 BYTE   W06
 BYTE   N23  Dn1  v104
 BYTE   N17  Fs2  v064
 BYTE   W12
 BYTE   N11  Fn2  v028
 BYTE   W06
 BYTE   N05  Cn1  v080
 BYTE   N11  Fs2  v044
 BYTE   W06
 BYTE   N23  Dn1  v104
 BYTE   N17  Fn2  v064
 BYTE   W12
 BYTE   N05  Cn1  v092
 BYTE   N11  Fs2  v028
 BYTE   W06
 BYTE   Fn2  v044
 BYTE   W06
 BYTE   N23  Dn1  v104
 BYTE   N17  Fs2  v064
 BYTE   W11
 BYTE   Gn2  v092
 BYTE   W01
 BYTE   N05  Cn1
 BYTE   N11  Fn2  v028
 BYTE   W06
 BYTE   Fs2  v044
 BYTE   W06
// 035   ----------------------------------------
 BYTE   N17  Fn2  v064
 BYTE   W12
 BYTE   An1  v068
 BYTE   N17  Cn2  v084
 BYTE   N11  Fs2  v028
 BYTE   W06
 BYTE   Fn2  v044
 BYTE   W06
 BYTE   N17  Dn1  v104
 BYTE   N17  Fn1  v084
 BYTE   N17  Fs2  v064
 BYTE   W12
 BYTE   N12  Ds1  v068
 BYTE   N11  Fn2  v032
 BYTE   W06
 BYTE   N12  Dn1  v088
 BYTE   W06
 BYTE   Ds1  v104
 BYTE   W06
 BYTE   Dn1  v056
 BYTE   W06
 BYTE   Ds1  v068
 BYTE   W06
 BYTE   Dn1  v088
 BYTE   W06
 BYTE   Ds1  v104
 BYTE   W06
 BYTE   Dn1  v056
 BYTE   W06
 BYTE   Ds1  v104
 BYTE   W06
 BYTE   N23  Dn1  v088
 BYTE   W05
 BYTE   N17  Gn2  v092
 BYTE   W01
// 036   ----------------------------------------
Label_8_0101CF21:
 BYTE   N05  Cn1  v092
 BYTE   W24
 BYTE   N23  Dn1  v104
 BYTE   N23  Fn2  v064
 BYTE   W24
 BYTE   N05  Cn1  v080
 BYTE   N23  Fn2  v064
 BYTE   W12
 BYTE   N05  Cn1  v092
 BYTE   W12
 BYTE   N23  Dn1  v104
 BYTE   N23  Fn2  v064
 BYTE   W12
 BYTE   N05  Cn1  v080
 BYTE   W12
 BYTE   PEND 
// 037   ----------------------------------------
Label_8_0101CF43:
 BYTE   N05  Cn1  v092
 BYTE   N23  Fn2  v064
 BYTE   W24
 BYTE   Dn1  v104
 BYTE   N23  Fn2  v064
 BYTE   W24
 BYTE   N05  Cn1  v080
 BYTE   N23  Fn2  v064
 BYTE   W12
 BYTE   N05  Cn1  v092
 BYTE   W12
 BYTE   N23  Dn1  v104
 BYTE   N23  Fn2  v064
 BYTE   W12
 BYTE   N05  Cn1  v080
 BYTE   W12
 BYTE   PEND 
 BYTE   PATT
  POIN2 Label_8_0101CF43
// 038   ----------------------------------------
Label_8_0101CF6C:
 BYTE   N23  Fn2  v064
 BYTE   W12
 BYTE   N05  Cn1  v092
 BYTE   W12
 BYTE   N23  Dn1  v104
 BYTE   N23  Fn2  v064
 BYTE   W18
 BYTE   N05  Cn1  v080
 BYTE   W06
 BYTE   Cn1  v092
 BYTE   N23  Fn2  v064
 BYTE   W12
 BYTE   N05  Cn1  v092
 BYTE   W12
 BYTE   N23  Dn1  v104
 BYTE   N23  Fn2  v064
 BYTE   W12
 BYTE   N05  Cn1  v080
 BYTE   W12
 BYTE   PEND 
// 039   ----------------------------------------
Label_8_0101CF95:
 BYTE   N05  Cn1  v092
 BYTE   N23  Fn2  v064
 BYTE   W24
 BYTE   Dn1  v104
 BYTE   N23  Fn2  v064
 BYTE   W18
 BYTE   N05  Cn1  v080
 BYTE   W06
 BYTE   Cn1  v092
 BYTE   N23  Fn2  v064
 BYTE   W12
 BYTE   N05  Cn1  v092
 BYTE   W12
 BYTE   N23  Dn1  v104
 BYTE   N23  Fn2  v064
 BYTE   W12
 BYTE   N05  Cn1  v080
 BYTE   W12
 BYTE   PEND 
// 040   ----------------------------------------
 BYTE   Cn1  v092
 BYTE   N23  Fs2  v064
 BYTE   W12
 BYTE   Fn2  v036
 BYTE   W12
 BYTE   Dn1  v104
 BYTE   W12
 BYTE   Fn2  v048
 BYTE   W12
 BYTE   N05  Cn1  v080
 BYTE   N23  Fs2  v064
 BYTE   W12
 BYTE   N05  Cn1  v092
 BYTE   N23  Fn2  v036
 BYTE   W12
 BYTE   Dn1  v104
 BYTE   W12
 BYTE   N05  Cn1  v080
 BYTE   N23  Fn2  v048
 BYTE   W12
// 041   ----------------------------------------
Label_8_0101CFE3:
 BYTE   N05  Cn1  v092
 BYTE   W12
 BYTE   N05
 BYTE   W11
 BYTE   N17  Gn2
 BYTE   W01
 BYTE   N23  Dn1  v104
 BYTE   W24
 BYTE   N05  Cn1  v092
 BYTE   W12
 BYTE   N05
 BYTE   W11
 BYTE   N17  Gn2
 BYTE   W01
 BYTE   N23  Dn1  v104
 BYTE   W24
 BYTE   PEND 
// 042   ----------------------------------------
 BYTE   N05  Cn1  v092
 BYTE   W12
 BYTE   N11  Gn1  v068
 BYTE   W04
 BYTE   N17  An1
 BYTE   W04
 BYTE   Cn2  v084
 BYTE   W03
 BYTE   Gn2  v092
 BYTE   W01
 BYTE   N06  Ds1  v096
 BYTE   W01
 BYTE   N23  Dn1  v116
 BYTE   W23
 BYTE   N17  Dn1  v104
 BYTE   W12
 BYTE   Ds1  v088
 BYTE   W12
 BYTE   Dn1  v104
 BYTE   W12
 BYTE   N11  Ds1  v076
 BYTE   W06
 BYTE   N17  Dn1  v096
 BYTE   W05
 BYTE   Gn2  v092
 BYTE   W01
 BYTE   PATT
  POIN2 Label_8_0101C9FC
 BYTE   PATT
  POIN2 Label_8_0101CA1F
 BYTE   PATT
  POIN2 Label_8_0101CA43
 BYTE   PATT
  POIN2 Label_8_0101CA67
 BYTE   PATT
  POIN2 Label_8_0101CA8B
 BYTE   PATT
  POIN2 Label_8_0101CA8B
 BYTE   PATT
  POIN2 Label_8_0101CA8B
// 043   ----------------------------------------
 BYTE   N05  Cn1  v092
 BYTE   N23  As1  v036
 BYTE   W06
 BYTE   N05  Cn1  v056
 BYTE   W06
 BYTE   N05
 BYTE   W06
 BYTE   N05
 BYTE   W05
 BYTE   N17  Gn2  v092
 BYTE   W01
 BYTE   N23  Dn1  v104
 BYTE   W12
 BYTE   N05  Cn1  v056
 BYTE   W06
 BYTE   Cn1  v064
 BYTE   W06
 BYTE   Cn1  v092
 BYTE   N23  As1  v036
 BYTE   W06
 BYTE   N11  Dn1  v088
 BYTE   W06
 BYTE   N17  Ds1  v104
 BYTE   W12
 BYTE   Dn1
 BYTE   W12
 BYTE   N11  Ds1
 BYTE   W06
 BYTE   N23  Dn1  v088
 BYTE   W05
 BYTE   N17  Gn2  v092
 BYTE   W01
// 044   ----------------------------------------
 BYTE   N05  Cn1
 BYTE   W24
 BYTE   N17  Dn1  v104
 BYTE   N21  As1  v036
 BYTE   W12
 BYTE   Bn1  v020
 BYTE   W06
 BYTE   N17  Dn1  v080
 BYTE   W06
 BYTE   N21  As1  v036
 BYTE   W06
 BYTE   N05  Cn1  v080
 BYTE   W06
 BYTE   Cn1  v092
 BYTE   N21  Bn1  v020
 BYTE   W12
 BYTE   N23  Dn1  v104
 BYTE   N21  As1  v036
 BYTE   W12
 BYTE   N05  Cn1  v080
 BYTE   N21  Bn1  v020
 BYTE   W12
// 045   ----------------------------------------
 BYTE   N05  Cn1  v092
 BYTE   N21  As1  v036
 BYTE   W12
 BYTE   Bn1  v020
 BYTE   W12
 BYTE   N17  Dn1  v104
 BYTE   N23  As1  v036
 BYTE   W12
 BYTE   N21  Bn1  v020
 BYTE   W06
 BYTE   N17  Dn1  v088
 BYTE   W06
 BYTE   N23  As1  v036
 BYTE   W06
 BYTE   N05  Cn1  v080
 BYTE   W06
 BYTE   Cn1  v092
 BYTE   N21  Bn1  v020
 BYTE   W12
 BYTE   N23  Dn1  v104
 BYTE   N23  As1  v036
 BYTE   W12
 BYTE   N05  Cn1  v080
 BYTE   N21  Bn1  v020
 BYTE   W12
// 046   ----------------------------------------
Label_8_0101D0EA:
 BYTE   N05  Cn1  v092
 BYTE   N23  As1  v036
 BYTE   W12
 BYTE   N21  Bn1  v020
 BYTE   W12
 BYTE   N17  Dn1  v104
 BYTE   N23  As1  v036
 BYTE   W12
 BYTE   N21  Bn1  v020
 BYTE   W06
 BYTE   N17  Dn1  v080
 BYTE   W06
 BYTE   N23  As1  v036
 BYTE   W06
 BYTE   N05  Cn1  v080
 BYTE   W06
 BYTE   Cn1  v092
 BYTE   N21  Bn1  v020
 BYTE   W12
 BYTE   N23  Dn1  v104
 BYTE   N23  As1  v036
 BYTE   W12
 BYTE   N05  Cn1  v080
 BYTE   N21  Bn1  v020
 BYTE   W12
 BYTE   PEND 
 BYTE   PATT
  POIN2 Label_8_0101D0EA
 BYTE   PATT
  POIN2 Label_8_0101D0EA
 BYTE   PATT
  POIN2 Label_8_0101D0EA
// 047   ----------------------------------------
 BYTE   N05  Cn1  v092
 BYTE   N23  As1  v036
 BYTE   W12
 BYTE   N21  Bn1  v020
 BYTE   W12
 BYTE   N17  Dn1  v104
 BYTE   N23  As1  v036
 BYTE   W12
 BYTE   N21  Bn1  v020
 BYTE   W06
 BYTE   N17  Dn1  v080
 BYTE   W06
 BYTE   N23  As1  v036
 BYTE   W06
 BYTE   N05  Cn1  v080
 BYTE   W05
 BYTE   N17  Gn2  v092
 BYTE   W01
 BYTE   N05  Cn1
 BYTE   N23  Bn1  v020
 BYTE   W12
 BYTE   Dn1  v104
 BYTE   N23  As1  v036
 BYTE   W11
 BYTE   N17  Gn2  v092
 BYTE   W01
 BYTE   N05  Cn1  v080
 BYTE   N23  Bn1  v020
 BYTE   W12
// 048   ----------------------------------------
 BYTE   N05  Cn1  v092
 BYTE   N23  As1  v036
 BYTE   W12
 BYTE   Bn1  v020
 BYTE   W12
 BYTE   N17  Dn1  v104
 BYTE   N23  As1  v036
 BYTE   W12
 BYTE   Bn1  v020
 BYTE   W06
 BYTE   N17  Ds1  v076
 BYTE   W06
 BYTE   N23  As1  v036
 BYTE   W06
 BYTE   N17  Dn1  v088
 BYTE   W06
 BYTE   N05  Cn1  v092
 BYTE   N23  Bn1  v020
 BYTE   W12
 BYTE   N11  Ds1  v104
 BYTE   W06
 BYTE   N23  Dn1  v088
 BYTE   W06
 BYTE   N05  Cn1  v080
 BYTE   W11
 BYTE   N17  Gn2  v092
 BYTE   W01
 BYTE   PATT
  POIN2 Label_8_0101CBE5
 BYTE   PATT
  POIN2 Label_8_0101CC0A
 BYTE   PATT
  POIN2 Label_8_0101CC36
 BYTE   PATT
  POIN2 Label_8_0101CC5C
 BYTE   PATT
  POIN2 Label_8_0101CC7E
 BYTE   PATT
  POIN2 Label_8_0101CC36
// 049   ----------------------------------------
 BYTE   N23  As1  v036
 BYTE   W12
 BYTE   N05  Cn1  v092
 BYTE   W12
 BYTE   N23  Dn1  v104
 BYTE   N23  As1  v036
 BYTE   W12
 BYTE   N05  Cn1  v080
 BYTE   W12
 BYTE   Cn1  v092
 BYTE   N23  As1  v036
 BYTE   W12
 BYTE   N05  Cn1  v080
 BYTE   W06
 BYTE   Cn1  v092
 BYTE   W06
 BYTE   N06  Ds1  v076
 BYTE   W01
 BYTE   N17  Dn1  v116
 BYTE   W10
 BYTE   Gn2  v092
 BYTE   W01
 BYTE   Ds1  v112
 BYTE   W12
 BYTE   PATT
  POIN2 Label_8_0101CCD6
 BYTE   PATT
  POIN2 Label_8_0101CCFC
 BYTE   PATT
  POIN2 Label_8_0101CD1F
 BYTE   PATT
  POIN2 Label_8_0101CD4B
 BYTE   PATT
  POIN2 Label_8_0101CD79
 BYTE   PATT
  POIN2 Label_8_0101CD79
 BYTE   PATT
  POIN2 Label_8_0101CDA7
 BYTE   PATT
  POIN2 Label_8_0101CDD3
 BYTE   PATT
  POIN2 Label_8_0101CDFF
// 050   ----------------------------------------
 BYTE   W12
 BYTE   N05  Cn1  v092
 BYTE   W11
 BYTE   N17  Gn2
 BYTE   W01
 BYTE   N23  Dn1  v104
 BYTE   W18
 BYTE   N05  Cn1  v080
 BYTE   W06
 BYTE   Cn1  v092
 BYTE   W12
 BYTE   N05
 BYTE   W12
 BYTE   N23  Dn1  v104
 BYTE   W12
 BYTE   N05  Cn1  v092
 BYTE   N11  Fn2  v032
 BYTE   W06
 BYTE   Fs2  v044
 BYTE   W06
// 051   ----------------------------------------
Label_8_0101D240:
 BYTE   N17  Fn2  v064
 BYTE   W12
 BYTE   N05  Cn1  v092
 BYTE   N11  Fs2  v032
 BYTE   W06
 BYTE   Fn2  v044
 BYTE   W06
 BYTE   N23  Dn1  v104
 BYTE   N17  Fs2  v064
 BYTE   W12
 BYTE   N11  Fn2  v032
 BYTE   W06
 BYTE   N05  Cn1  v080
 BYTE   N11  Fs2  v044
 BYTE   W06
 BYTE   N05  Cn1  v092
 BYTE   N17  Fn2  v064
 BYTE   W12
 BYTE   N05  Cn1  v092
 BYTE   N11  Fs2  v032
 BYTE   W06
 BYTE   Fn2  v044
 BYTE   W06
 BYTE   N23  Dn1  v104
 BYTE   N17  Fs2  v064
 BYTE   W12
 BYTE   N05  Cn1  v092
 BYTE   N11  Fn2  v032
 BYTE   W06
 BYTE   Fs2  v044
 BYTE   W06
 BYTE   PEND 
 BYTE   PATT
  POIN2 Label_8_0101D240
 BYTE   PATT
  POIN2 Label_8_0101D240
 BYTE   PATT
  POIN2 Label_8_0101D240
 BYTE   PATT
  POIN2 Label_8_0101D240
// 052   ----------------------------------------
 BYTE   N17  Fn2  v064
 BYTE   W12
 BYTE   N05  Cn1  v092
 BYTE   N11  Fs2  v032
 BYTE   W06
 BYTE   Fn2  v044
 BYTE   W06
 BYTE   N23  Dn1  v104
 BYTE   N17  Fs2  v064
 BYTE   W12
 BYTE   N11  Fn2  v032
 BYTE   W06
 BYTE   N05  Cn1  v080
 BYTE   N11  Fs2  v044
 BYTE   W06
 BYTE   N23  Dn1  v104
 BYTE   N17  Fn2  v064
 BYTE   W12
 BYTE   N05  Cn1  v092
 BYTE   N11  Fs2  v032
 BYTE   W06
 BYTE   Fn2  v044
 BYTE   W06
 BYTE   N23  Dn1  v104
 BYTE   N17  Fs2  v064
 BYTE   W11
 BYTE   Gn2  v092
 BYTE   W01
 BYTE   N05  Cn1
 BYTE   N11  Fn2  v032
 BYTE   W06
 BYTE   Fs2  v044
 BYTE   W06
// 053   ----------------------------------------
 BYTE   N17  Fn2  v064
 BYTE   W12
 BYTE   An1  v068
 BYTE   N17  Cn2  v084
 BYTE   N11  Fs2  v032
 BYTE   W06
 BYTE   Fn2  v044
 BYTE   W06
 BYTE   N17  Dn1  v104
 BYTE   N17  Fn1  v084
 BYTE   N17  Fs2  v064
 BYTE   W12
 BYTE   N11  Ds1  v068
 BYTE   N11  Fn2  v036
 BYTE   W06
 BYTE   Dn1  v088
 BYTE   W06
 BYTE   Ds1  v104
 BYTE   W06
 BYTE   Dn1  v056
 BYTE   W06
 BYTE   Ds1  v068
 BYTE   W06
 BYTE   Dn1  v088
 BYTE   W06
 BYTE   Ds1  v104
 BYTE   W06
 BYTE   Dn1  v056
 BYTE   W06
 BYTE   Ds1  v104
 BYTE   W06
 BYTE   N17  Dn1  v088
 BYTE   W05
 BYTE   Gn2  v092
 BYTE   W01
 BYTE   PATT
  POIN2 Label_8_0101CF21
 BYTE   PATT
  POIN2 Label_8_0101CF43
 BYTE   PATT
  POIN2 Label_8_0101CF43
 BYTE   PATT
  POIN2 Label_8_0101CF6C
 BYTE   PATT
  POIN2 Label_8_0101CF95
// 054   ----------------------------------------
 BYTE   N05  Cn1  v092
 BYTE   N12  Fn2  v064
 BYTE   W12
 BYTE   N11  Fn2  v036
 BYTE   W12
 BYTE   N23  Dn1  v104
 BYTE   W12
 BYTE   N12  Fn2  v048
 BYTE   W12
 BYTE   N05  Cn1  v080
 BYTE   N11  Fn2  v064
 BYTE   W12
 BYTE   N05  Cn1  v092
 BYTE   N11  Fn2  v036
 BYTE   W12
 BYTE   N23  Dn1  v104
 BYTE   W12
 BYTE   N05  Cn1  v080
 BYTE   N23  Fn2  v048
 BYTE   W11
 BYTE   N32  An2  v100
 BYTE   W01
 BYTE   PATT
  POIN2 Label_8_0101CFE3
// 055   ----------------------------------------
 BYTE   N05  Cn1  v092
 BYTE   W12
 BYTE   N11  Gn1  v068
 BYTE   W04
 BYTE   N17  An1
 BYTE   W04
 BYTE   Cn2  v084
 BYTE   W03
 BYTE   Gn2  v092
 BYTE   W01
 BYTE   N01  Dn1  v096
 BYTE   W01
 BYTE   N23  Dn1  v116
 BYTE   W23
 BYTE   N17  Dn1  v104
 BYTE   W12
 BYTE   Ds1  v088
 BYTE   W12
 BYTE   Dn1  v104
 BYTE   W12
 BYTE   N11  Ds1  v076
 BYTE   W06
 BYTE   N05  Dn1  v096
 BYTE   W06
// 056   ----------------------------------------
 BYTE   GoTo
  POIN2 Label_8_0101C8DE
 BYTE   FINE

//**************** Track 10 (Midi-Chn.9) ****************//

FlapperGirl_010:
// 000   ----------------------------------------
 BYTE   KEYSH   FlapperGirl_key+0
Label_9_0101D39E:
 BYTE   VOICE   15
 BYTE   W96
// 001   ----------------------------------------
 BYTE   W96
// 002   ----------------------------------------
 BYTE   W96
// 003   ----------------------------------------
 BYTE   W96
// 004   ----------------------------------------
 BYTE   W96
// 005   ----------------------------------------
 BYTE   W96
// 006   ----------------------------------------
 BYTE   W96
// 007   ----------------------------------------
 BYTE   W96
// 008   ----------------------------------------
 BYTE   W96
// 009   ----------------------------------------
 BYTE   W96
// 010   ----------------------------------------
 BYTE   W96
// 011   ----------------------------------------
 BYTE   W96
// 012   ----------------------------------------
 BYTE   W96
// 013   ----------------------------------------
 BYTE   W96
// 014   ----------------------------------------
 BYTE   W96
// 015   ----------------------------------------
 BYTE   W90
 BYTE   VOL   29*FlapperGirl_mvl/mxv
 BYTE   W01
 BYTE   PAN   c_v+0
 BYTE   W05
// 016   ----------------------------------------
Label_9_0101D3B6:
 BYTE   N92  Dn3  v068
 BYTE   N92  Gn3
 BYTE   N92  Bn3  v088
 BYTE   W96
 BYTE   PEND 
// 017   ----------------------------------------
Label_9_0101D3C0:
 BYTE   N92  Cs3  v068
 BYTE   N92  En3
 BYTE   N92  An3  v088
 BYTE   W96
 BYTE   PEND 
// 018   ----------------------------------------
Label_9_0101D3CA:
 BYTE   N92  Dn3  v068
 BYTE   N92  Fs3
 BYTE   N92  Bn3  v088
 BYTE   W96
 BYTE   PEND 
// 019   ----------------------------------------
Label_9_0101D3D4:
 BYTE   N92  Cs3  v068
 BYTE   N44  Fs3
 BYTE   N23  As3
 BYTE   N23  Cs4  v088
 BYTE   W24
 BYTE   As3  v084
 BYTE   W24
 BYTE   N44  Fs3  v088
 BYTE   W48
 BYTE   PEND 
 BYTE   PATT
  POIN2 Label_9_0101D3B6
 BYTE   PATT
  POIN2 Label_9_0101D3C0
// 020   ----------------------------------------
Label_9_0101D3F1:
 BYTE   N68  Dn4  v096
 BYTE   W72
 BYTE   N23  Cs4
 BYTE   W24
 BYTE   PEND 
// 021   ----------------------------------------
 BYTE   N92  Cn4
 BYTE   W96
// 022   ----------------------------------------
 BYTE   W96
// 023   ----------------------------------------
 BYTE   W96
// 024   ----------------------------------------
 BYTE   W96
// 025   ----------------------------------------
 BYTE   W96
// 026   ----------------------------------------
 BYTE   W96
// 027   ----------------------------------------
 BYTE   W96
// 028   ----------------------------------------
 BYTE   W96
// 029   ----------------------------------------
 BYTE   W96
// 030   ----------------------------------------
 BYTE   W96
// 031   ----------------------------------------
 BYTE   W96
// 032   ----------------------------------------
 BYTE   W96
// 033   ----------------------------------------
 BYTE   W96
// 034   ----------------------------------------
 BYTE   W96
// 035   ----------------------------------------
 BYTE   W96
// 036   ----------------------------------------
 BYTE   W96
// 037   ----------------------------------------
 BYTE   W96
// 038   ----------------------------------------
 BYTE   W96
// 039   ----------------------------------------
 BYTE   W96
// 040   ----------------------------------------
 BYTE   W96
// 041   ----------------------------------------
 BYTE   W96
// 042   ----------------------------------------
 BYTE   W96
// 043   ----------------------------------------
 BYTE   W96
// 044   ----------------------------------------
 BYTE   W96
// 045   ----------------------------------------
 BYTE   W96
// 046   ----------------------------------------
Label_9_0101D414:
 BYTE   N84  Gn2  v056
 BYTE   N84  Bn2  v076
 BYTE   N84  Dn3
 BYTE   N84  Gn3
 BYTE   W96
 BYTE   PEND 
// 047   ----------------------------------------
Label_9_0101D420:
 BYTE   N84  An2  v056
 BYTE   N84  En3  v076
 BYTE   N84  An3
 BYTE   N84  Cs4
 BYTE   W96
 BYTE   PEND 
// 048   ----------------------------------------
Label_9_0101D42C:
 BYTE   N84  Bn2  v056
 BYTE   N84  Fs3  v076
 BYTE   N84  Bn3
 BYTE   N84  Dn4
 BYTE   W96
 BYTE   PEND 
// 049   ----------------------------------------
Label_9_0101D438:
 BYTE   N84  Fs2  v056
 BYTE   N84  Fs3  v076
 BYTE   N84  As3
 BYTE   N84  Cs4
 BYTE   W96
 BYTE   PEND 
 BYTE   PATT
  POIN2 Label_9_0101D414
 BYTE   PATT
  POIN2 Label_9_0101D420
// 050   ----------------------------------------
 BYTE   N92  Bn3  v076
 BYTE   W96
// 051   ----------------------------------------
 BYTE   As3
 BYTE   W96
// 052   ----------------------------------------
 BYTE   W96
// 053   ----------------------------------------
 BYTE   W96
// 054   ----------------------------------------
 BYTE   W96
// 055   ----------------------------------------
 BYTE   W96
// 056   ----------------------------------------
 BYTE   W96
// 057   ----------------------------------------
 BYTE   W96
// 058   ----------------------------------------
 BYTE   W96
// 059   ----------------------------------------
 BYTE   W96
 BYTE   PATT
  POIN2 Label_9_0101D3B6
 BYTE   PATT
  POIN2 Label_9_0101D3C0
 BYTE   PATT
  POIN2 Label_9_0101D3CA
 BYTE   PATT
  POIN2 Label_9_0101D3D4
 BYTE   PATT
  POIN2 Label_9_0101D3B6
 BYTE   PATT
  POIN2 Label_9_0101D3C0
 BYTE   PATT
  POIN2 Label_9_0101D3F1
// 060   ----------------------------------------
 BYTE   N92  Cn4  v096
 BYTE   W96
// 061   ----------------------------------------
 BYTE   W96
// 062   ----------------------------------------
 BYTE   W96
// 063   ----------------------------------------
 BYTE   W96
// 064   ----------------------------------------
 BYTE   W96
// 065   ----------------------------------------
 BYTE   W96
// 066   ----------------------------------------
 BYTE   W96
// 067   ----------------------------------------
 BYTE   W96
// 068   ----------------------------------------
 BYTE   W96
// 069   ----------------------------------------
 BYTE   W96
// 070   ----------------------------------------
 BYTE   W96
// 071   ----------------------------------------
 BYTE   W96
// 072   ----------------------------------------
 BYTE   W96
// 073   ----------------------------------------
 BYTE   W96
// 074   ----------------------------------------
 BYTE   W96
// 075   ----------------------------------------
 BYTE   W96
// 076   ----------------------------------------
 BYTE   W96
// 077   ----------------------------------------
 BYTE   W96
// 078   ----------------------------------------
 BYTE   W96
// 079   ----------------------------------------
 BYTE   W96
// 080   ----------------------------------------
 BYTE   W96
// 081   ----------------------------------------
 BYTE   W96
// 082   ----------------------------------------
 BYTE   W96
// 083   ----------------------------------------
 BYTE   W96
// 084   ----------------------------------------
 BYTE   W96
 BYTE   PATT
  POIN2 Label_9_0101D414
 BYTE   PATT
  POIN2 Label_9_0101D420
 BYTE   PATT
  POIN2 Label_9_0101D42C
 BYTE   PATT
  POIN2 Label_9_0101D438
 BYTE   PATT
  POIN2 Label_9_0101D414
 BYTE   PATT
  POIN2 Label_9_0101D420
// 085   ----------------------------------------
 BYTE   N92  Bn3  v076
 BYTE   W96
// 086   ----------------------------------------
 BYTE   As3
 BYTE   W96
// 087   ----------------------------------------
 BYTE   GoTo
  POIN2 Label_9_0101D39E
 BYTE   FINE

//**************** Track 11 (Midi-Chn.10) ****************//

FlapperGirl_011:
// 000   ----------------------------------------
 BYTE   KEYSH   FlapperGirl_key+0
Label_10_0101D4CA:
 BYTE   W96
// 001   ----------------------------------------
 BYTE   W96
// 002   ----------------------------------------
 BYTE   W96
// 003   ----------------------------------------
 BYTE   W78
 BYTE   VOICE   62
 BYTE   VOL   29*FlapperGirl_mvl/mxv
 BYTE   W01
 BYTE   PAN   c_v+0
 BYTE   W05
 BYTE   N23  Dn3  v072
 BYTE   N23  Fs3  v080
 BYTE   N23  Bn3  v092
 BYTE   W12
// 004   ----------------------------------------
 BYTE   W12
 BYTE   N11  Dn3  v060
 BYTE   N11  Bn3  v080
 BYTE   W12
 BYTE   Dn3  v064
 BYTE   N11  Bn3  v084
 BYTE   W24
 BYTE   Dn3  v068
 BYTE   N11  Bn3  v088
 BYTE   W12
 BYTE   Cs3  v064
 BYTE   N11  An3  v084
 BYTE   W24
 BYTE   N23  Dn3  v068
 BYTE   N23  Gn3  v076
 BYTE   N23  Bn3  v088
 BYTE   W12
// 005   ----------------------------------------
 BYTE   W12
 BYTE   N11  Dn3  v060
 BYTE   N11  Gn3  v072
 BYTE   N11  Bn3  v080
 BYTE   W12
 BYTE   Dn3  v064
 BYTE   N11  Gn3  v072
 BYTE   N11  Bn3  v084
 BYTE   W24
 BYTE   Dn3  v064
 BYTE   N11  Gn3  v076
 BYTE   N11  Bn3  v084
 BYTE   W24
 BYTE   N04  Dn3  v056
 BYTE   N04  Gn3  v064
 BYTE   N04  Bn3  v076
 BYTE   W12
 BYTE   N32  En3  v068
 BYTE   N32  Fs3
 BYTE   N32  Bn3  v080
 BYTE   N32  Cs4  v088
 BYTE   W12
// 006   ----------------------------------------
 BYTE   W96
// 007   ----------------------------------------
 BYTE   W90
 BYTE   VOICE   63
 BYTE   W06
// 008   ----------------------------------------
Label_10_0101D53C:
 BYTE   N56  Dn3  v076
 BYTE   W60
 BYTE   N11  Cs3  v072
 BYTE   W12
 BYTE   Bn2  v076
 BYTE   W12
 BYTE   An2  v072
 BYTE   W12
 BYTE   PEND 
// 009   ----------------------------------------
Label_10_0101D54B:
 BYTE   N23  Gn2  v080
 BYTE   W24
 BYTE   An2  v072
 BYTE   W24
 BYTE   Bn2  v076
 BYTE   W24
 BYTE   Dn3  v080
 BYTE   W24
 BYTE   PEND 
// 010   ----------------------------------------
 BYTE   N92  Cs3  v076
 BYTE   W96
// 011   ----------------------------------------
Label_10_0101D55D:
 BYTE   N44  Fs2  v076
 BYTE   W48
 BYTE   As2
 BYTE   W48
 BYTE   PEND 
// 012   ----------------------------------------
Label_10_0101D564:
 BYTE   N56  Bn2  v076
 BYTE   W60
 BYTE   N11  An2  v080
 BYTE   W12
 BYTE   Gn2  v076
 BYTE   W12
 BYTE   Fs2
 BYTE   W12
 BYTE   PEND 
// 013   ----------------------------------------
Label_10_0101D572:
 BYTE   N44  Bn2  v076
 BYTE   W48
 BYTE   Dn3
 BYTE   W48
 BYTE   PEND 
// 014   ----------------------------------------
 BYTE   En3
 BYTE   W48
 BYTE   Fs3
 BYTE   W48
// 015   ----------------------------------------
Label_10_0101D57D:
 BYTE   N44  Cs3  v076
 BYTE   W48
 BYTE   Bn2
 BYTE   W48
 BYTE   PEND 
// 016   ----------------------------------------
 BYTE   W96
// 017   ----------------------------------------
 BYTE   W96
// 018   ----------------------------------------
 BYTE   W96
// 019   ----------------------------------------
 BYTE   W96
// 020   ----------------------------------------
 BYTE   W96
// 021   ----------------------------------------
 BYTE   W96
// 022   ----------------------------------------
 BYTE   W96
// 023   ----------------------------------------
 BYTE   W96
// 024   ----------------------------------------
 BYTE   W96
// 025   ----------------------------------------
 BYTE   W96
// 026   ----------------------------------------
 BYTE   W96
// 027   ----------------------------------------
 BYTE   W96
// 028   ----------------------------------------
 BYTE   W96
// 029   ----------------------------------------
 BYTE   W96
// 030   ----------------------------------------
 BYTE   W96
// 031   ----------------------------------------
 BYTE   W78
 BYTE   VOICE   62
 BYTE   W06
 BYTE   N23  Bn2  v092
 BYTE   N23  Dn3
 BYTE   N23  Fs3  v100
 BYTE   W12
// 032   ----------------------------------------
Label_10_0101D5A0:
 BYTE   W12
 BYTE   N04  Bn2  v092
 BYTE   N04  Dn3
 BYTE   N04  Fs3  v100
 BYTE   W12
 BYTE   N11  Bn2  v092
 BYTE   N11  Cs3
 BYTE   N11  En3  v100
 BYTE   W24
 BYTE   Bn2  v092
 BYTE   N11  Dn3
 BYTE   N11  Fs3  v100
 BYTE   W24
 BYTE   N04  Bn2  v092
 BYTE   N04  Dn3
 BYTE   N04  Fs3  v100
 BYTE   W12
 BYTE   N23  Bn2  v092
 BYTE   N23  Dn3
 BYTE   N23  Gn3  v100
 BYTE   W12
 BYTE   PEND 
// 033   ----------------------------------------
Label_10_0101D5CE:
 BYTE   W12
 BYTE   N04  Bn2  v092
 BYTE   N04  Dn3
 BYTE   N04  Gn3  v100
 BYTE   W12
 BYTE   N11  Bn2  v092
 BYTE   N11  Cs3
 BYTE   N11  Fs3  v100
 BYTE   W24
 BYTE   Bn2  v092
 BYTE   N11  Dn3
 BYTE   N11  Gn3  v100
 BYTE   W24
 BYTE   N04  Bn2  v092
 BYTE   N04  Dn3
 BYTE   N04  Gn3  v100
 BYTE   W12
 BYTE   N23  An2  v092
 BYTE   N23  Cs3
 BYTE   N23  Gn3  v100
 BYTE   W12
 BYTE   PEND 
// 034   ----------------------------------------
Label_10_0101D5FC:
 BYTE   W12
 BYTE   N03  An2  v092
 BYTE   N03  Cs3
 BYTE   N03  Gn3  v100
 BYTE   W12
 BYTE   An2  v092
 BYTE   N03  Cs3
 BYTE   N03  Gn3  v100
 BYTE   W12
 BYTE   N23  Bn2  v092
 BYTE   N23  En3
 BYTE   N23  Gn3  v100
 BYTE   W24
 BYTE   N03  Bn2  v092
 BYTE   N03  En3
 BYTE   N03  Gn3  v100
 BYTE   W12
 BYTE   Bn2  v092
 BYTE   N03  En3
 BYTE   N03  Gn3  v100
 BYTE   W12
 BYTE   N23  An2  v092
 BYTE   N23  Dn3
 BYTE   N23  Fs3  v100
 BYTE   W12
 BYTE   PEND 
// 035   ----------------------------------------
 BYTE   W12
 BYTE   N11  An2  v092
 BYTE   N11  Dn3
 BYTE   N11  Fs3  v100
 BYTE   W24
 BYTE   N32  An2  v092
 BYTE   N32  Ds3
 BYTE   N32  Fs3  v100
 BYTE   W60
// 036   ----------------------------------------
 BYTE   N56  Gn2  v092
 BYTE   N56  Cn3
 BYTE   N56  En3
 BYTE   N56  Gn3  v100
 BYTE   W60
 BYTE   N11  Gn2  v092
 BYTE   N11  Cn3
 BYTE   N11  En3
 BYTE   N11  Gn3  v100
 BYTE   W24
 BYTE   N23  Fs2  v092
 BYTE   N23  Bn2
 BYTE   N23  Dn3
 BYTE   N23  Fs3  v100
 BYTE   W12
// 037   ----------------------------------------
 BYTE   W12
 BYTE   N04  Fs2  v092
 BYTE   N04  Bn2
 BYTE   N04  Dn3
 BYTE   N04  Fs3  v100
 BYTE   W12
 BYTE   N11  Fs2  v092
 BYTE   N11  Bn2
 BYTE   N11  Dn3
 BYTE   N11  Fs3  v100
 BYTE   W12
 BYTE   N23  Fs2  v092
 BYTE   N23  Bn2
 BYTE   N23  En3  v100
 BYTE   W24
 BYTE   N11  Fs2  v092
 BYTE   N11  Bn2
 BYTE   N11  Dn3  v100
 BYTE   W24
 BYTE   N23  Gn2  v092
 BYTE   N23  Bn2
 BYTE   N23  En3  v100
 BYTE   W12
// 038   ----------------------------------------
 BYTE   W12
 BYTE   N11  Gn2  v092
 BYTE   N11  Bn2
 BYTE   N11  En3  v100
 BYTE   W24
 BYTE   N23  Gn2  v092
 BYTE   N23  Bn2
 BYTE   N23  Dn3
 BYTE   N23  Gn3  v100
 BYTE   W24
 BYTE   N11  Gn2  v092
 BYTE   N11  Bn2
 BYTE   N11  Dn3
 BYTE   N11  Gn3  v100
 BYTE   W24
 BYTE   N36  Fs2  v092
 BYTE   N36  Bn2
 BYTE   N36  Cs3
 BYTE   N36  Fs3  v100
 BYTE   W12
// 039   ----------------------------------------
 BYTE   W36
 BYTE   Fs2  v092
 BYTE   N36  As2
 BYTE   N36  Cs3
 BYTE   N36  Fs3  v100
 BYTE   W48
 BYTE   N23  Bn2  v092
 BYTE   N23  Dn3
 BYTE   N23  Fs3  v100
 BYTE   W12
 BYTE   PATT
  POIN2 Label_10_0101D5A0
 BYTE   PATT
  POIN2 Label_10_0101D5CE
 BYTE   PATT
  POIN2 Label_10_0101D5FC
// 040   ----------------------------------------
 BYTE   W12
 BYTE   N11  An2  v092
 BYTE   N11  Dn3
 BYTE   N11  Fs3  v100
 BYTE   W24
 BYTE   N56  Ds3  v092
 BYTE   N56  Fs3
 BYTE   N56  An3  v100
 BYTE   W60
// 041   ----------------------------------------
 BYTE   N80  En3  v092
 BYTE   N80  Gn3
 BYTE   N80  Bn3  v100
 BYTE   W84
 BYTE   N23  Fs2  v092
 BYTE   N23  As2
 BYTE   N23  Cs3  v100
 BYTE   W12
// 042   ----------------------------------------
 BYTE   W12
 BYTE   N11  Fs2  v092
 BYTE   N11  As2
 BYTE   N11  Cs3  v100
 BYTE   W12
 BYTE   N04  Fs2  v092
 BYTE   N04  As2
 BYTE   N04  Cs3  v100
 BYTE   W12
 BYTE   N11  Fs2  v092
 BYTE   N11  As2
 BYTE   N11  Cs3  v100
 BYTE   W24
 BYTE   Fs2  v092
 BYTE   N11  As2
 BYTE   N11  Cs3  v100
 BYTE   W24
 BYTE   N23  Bn2  v092
 BYTE   N23  Dn3
 BYTE   N23  Fs3  v100
 BYTE   W12
// 043   ----------------------------------------
 BYTE   W12
 BYTE   N04  Bn2  v092
 BYTE   N04  Dn3
 BYTE   N04  Fs3  v100
 BYTE   W12
 BYTE   N11  Bn2  v092
 BYTE   N11  Cs3
 BYTE   N11  Fs3  v100
 BYTE   W24
 BYTE   Bn2  v092
 BYTE   N11  En3
 BYTE   N11  Fs3  v100
 BYTE   W24
 BYTE   N04  Bn2  v092
 BYTE   N04  Cs3
 BYTE   N04  Fs3  v100
 BYTE   W12
 BYTE   N11  Bn2  v092
 BYTE   N11  Dn3
 BYTE   N11  Fs3  v100
 BYTE   W12
// 044   ----------------------------------------
 BYTE   W12
 BYTE   An2  v092
 BYTE   N11  Dn3
 BYTE   N11  Fs3  v100
 BYTE   W12
 BYTE   An2  v092
 BYTE   N11  Cs3
 BYTE   N11  Fs3  v100
 BYTE   W24
 BYTE   An2  v092
 BYTE   N11  En3
 BYTE   N11  Fs3  v100
 BYTE   W12
 BYTE   An2  v092
 BYTE   N11  Cs3
 BYTE   N11  Fs3  v100
 BYTE   W24
 BYTE   An2  v092
 BYTE   N11  Dn3
 BYTE   N11  Fs3  v100
 BYTE   W12
// 045   ----------------------------------------
 BYTE   W96
// 046   ----------------------------------------
 BYTE   W96
// 047   ----------------------------------------
 BYTE   W96
// 048   ----------------------------------------
 BYTE   W96
// 049   ----------------------------------------
 BYTE   W96
// 050   ----------------------------------------
 BYTE   W96
// 051   ----------------------------------------
 BYTE   W96
// 052   ----------------------------------------
 BYTE   W90
 BYTE   VOICE   63
 BYTE   W06
 BYTE   PATT
  POIN2 Label_10_0101D53C
 BYTE   PATT
  POIN2 Label_10_0101D54B
// 053   ----------------------------------------
 BYTE   N92  Cs3  v076
 BYTE   W96
 BYTE   PATT
  POIN2 Label_10_0101D55D
 BYTE   PATT
  POIN2 Label_10_0101D564
 BYTE   PATT
  POIN2 Label_10_0101D572
// 054   ----------------------------------------
 BYTE   N44  En3  v076
 BYTE   W48
 BYTE   Fs3
 BYTE   W48
 BYTE   PATT
  POIN2 Label_10_0101D57D
// 055   ----------------------------------------
 BYTE   W96
// 056   ----------------------------------------
 BYTE   W96
// 057   ----------------------------------------
 BYTE   W96
// 058   ----------------------------------------
 BYTE   W96
// 059   ----------------------------------------
 BYTE   W96
// 060   ----------------------------------------
 BYTE   W96
// 061   ----------------------------------------
 BYTE   W96
// 062   ----------------------------------------
 BYTE   W96
// 063   ----------------------------------------
 BYTE   W96
// 064   ----------------------------------------
 BYTE   W96
// 065   ----------------------------------------
 BYTE   W96
// 066   ----------------------------------------
 BYTE   W96
// 067   ----------------------------------------
 BYTE   W96
// 068   ----------------------------------------
 BYTE   W96
// 069   ----------------------------------------
 BYTE   W96
// 070   ----------------------------------------
 BYTE   W78
 BYTE   VOICE   62
 BYTE   W02
 BYTE   N23  Bn2  v092
 BYTE   N23  Dn3
 BYTE   N23  Fs3  v100
 BYTE   W16
// 071   ----------------------------------------
Label_10_0101D7DD:
 BYTE   W08
 BYTE   N04  Bn2  v092
 BYTE   N04  Dn3
 BYTE   N04  Fs3  v100
 BYTE   W12
 BYTE   N11  Bn2  v092
 BYTE   N11  Cs3
 BYTE   N11  En3  v100
 BYTE   W24
 BYTE   Bn2  v092
 BYTE   N11  Dn3
 BYTE   N11  Fs3  v100
 BYTE   W24
 BYTE   N04  Bn2  v092
 BYTE   N04  Dn3
 BYTE   N04  Fs3  v100
 BYTE   W12
 BYTE   N23  Bn2  v092
 BYTE   N23  Dn3
 BYTE   N23  Gn3  v100
 BYTE   W16
 BYTE   PEND 
// 072   ----------------------------------------
Label_10_0101D80B:
 BYTE   W08
 BYTE   N04  Bn2  v092
 BYTE   N04  Dn3
 BYTE   N04  Gn3  v100
 BYTE   W12
 BYTE   N11  Bn2  v092
 BYTE   N11  Cs3
 BYTE   N11  Fs3  v100
 BYTE   W24
 BYTE   Bn2  v092
 BYTE   N11  Dn3
 BYTE   N11  Gn3  v100
 BYTE   W24
 BYTE   N04  Bn2  v092
 BYTE   N04  Dn3
 BYTE   N04  Gn3  v100
 BYTE   W12
 BYTE   N23  An2  v092
 BYTE   N23  Cs3
 BYTE   N23  Gn3  v100
 BYTE   W16
 BYTE   PEND 
// 073   ----------------------------------------
Label_10_0101D839:
 BYTE   W08
 BYTE   N03  An2  v092
 BYTE   N03  Cs3
 BYTE   N03  Gn3  v100
 BYTE   W12
 BYTE   An2  v092
 BYTE   N03  Cs3
 BYTE   N03  Gn3  v100
 BYTE   W12
 BYTE   N23  Bn2  v092
 BYTE   N23  En3
 BYTE   N23  Gn3  v100
 BYTE   W24
 BYTE   N03  Bn2  v092
 BYTE   N03  En3
 BYTE   N03  Gn3  v100
 BYTE   W12
 BYTE   Bn2  v092
 BYTE   N03  En3
 BYTE   N03  Gn3  v100
 BYTE   W12
 BYTE   N23  An2  v092
 BYTE   N23  Dn3
 BYTE   N23  Fs3  v100
 BYTE   W16
 BYTE   PEND 
// 074   ----------------------------------------
 BYTE   W08
 BYTE   N11  An2  v092
 BYTE   N11  Dn3
 BYTE   N11  Fs3  v100
 BYTE   W24
 BYTE   N32  An2  v092
 BYTE   N32  Ds3
 BYTE   N32  Fs3  v100
 BYTE   W60
 BYTE   N56  Gn2  v092
 BYTE   N56  Cn3
 BYTE   N56  En3
 BYTE   N56  Gn3  v100
 BYTE   W04
// 075   ----------------------------------------
 BYTE   W56
 BYTE   N11  Gn2  v092
 BYTE   N11  Cn3
 BYTE   N11  En3
 BYTE   N11  Gn3  v100
 BYTE   W24
 BYTE   N23  Fs2  v092
 BYTE   N23  Bn2
 BYTE   N23  Dn3
 BYTE   N23  Fs3  v100
 BYTE   W16
// 076   ----------------------------------------
 BYTE   W08
 BYTE   N04  Fs2  v092
 BYTE   N04  Bn2
 BYTE   N04  Dn3
 BYTE   N04  Fs3  v100
 BYTE   W12
 BYTE   N11  Fs2  v092
 BYTE   N11  Bn2
 BYTE   N11  Dn3
 BYTE   N11  Fs3  v100
 BYTE   W12
 BYTE   N23  Fs2  v092
 BYTE   N23  Bn2
 BYTE   N23  En3  v100
 BYTE   W24
 BYTE   N11  Fs2  v092
 BYTE   N11  Bn2
 BYTE   N11  Dn3  v100
 BYTE   W24
 BYTE   N23  Gn2  v092
 BYTE   N23  Bn2
 BYTE   N23  En3  v100
 BYTE   W16
// 077   ----------------------------------------
 BYTE   W08
 BYTE   N11  Gn2  v092
 BYTE   N11  Bn2
 BYTE   N11  En3  v100
 BYTE   W24
 BYTE   N23  Gn2  v092
 BYTE   N23  Bn2
 BYTE   N23  Dn3
 BYTE   N23  Gn3  v100
 BYTE   W24
 BYTE   N11  Gn2  v092
 BYTE   N11  Bn2
 BYTE   N11  Dn3
 BYTE   N11  Gn3  v100
 BYTE   W24
 BYTE   N36  Fs2  v092
 BYTE   N36  Bn2
 BYTE   N36  Cs3
 BYTE   N36  Fs3  v100
 BYTE   W16
// 078   ----------------------------------------
 BYTE   W32
 BYTE   Fs2  v092
 BYTE   N36  As2
 BYTE   N36  Cs3
 BYTE   N36  Fs3  v100
 BYTE   W48
 BYTE   N23  Bn2  v092
 BYTE   N23  Dn3
 BYTE   N23  Fs3  v100
 BYTE   W16
 BYTE   PATT
  POIN2 Label_10_0101D7DD
 BYTE   PATT
  POIN2 Label_10_0101D80B
 BYTE   PATT
  POIN2 Label_10_0101D839
// 079   ----------------------------------------
 BYTE   W08
 BYTE   N11  An2  v092
 BYTE   N11  Dn3
 BYTE   N11  Fs3  v100
 BYTE   W24
 BYTE   N56  Ds3  v092
 BYTE   N56  Fs3
 BYTE   N56  An3  v100
 BYTE   W60
 BYTE   N80  En3  v092
 BYTE   N80  Gn3
 BYTE   N80  Bn3  v100
 BYTE   W04
// 080   ----------------------------------------
 BYTE   W80
 BYTE   N23  Fs2  v092
 BYTE   N23  As2
 BYTE   N23  Cs3  v100
 BYTE   W16
// 081   ----------------------------------------
 BYTE   W08
 BYTE   N11  Fs2  v092
 BYTE   N11  As2
 BYTE   N11  Cs3  v100
 BYTE   W12
 BYTE   N04  Fs2  v092
 BYTE   N04  As2
 BYTE   N04  Cs3  v100
 BYTE   W12
 BYTE   N11  Fs2  v092
 BYTE   N11  As2
 BYTE   N11  Cs3  v100
 BYTE   W24
 BYTE   Fs2  v092
 BYTE   N11  As2
 BYTE   N11  Cs3  v100
 BYTE   W24
 BYTE   N23  Bn2  v092
 BYTE   N23  Dn3
 BYTE   N23  Fs3  v100
 BYTE   W16
// 082   ----------------------------------------
 BYTE   W08
 BYTE   N04  Bn2  v092
 BYTE   N04  Dn3
 BYTE   N04  Fs3  v100
 BYTE   W12
 BYTE   N11  Bn2  v092
 BYTE   N11  Cs3
 BYTE   N11  Fs3  v100
 BYTE   W24
 BYTE   Bn2  v092
 BYTE   N11  En3
 BYTE   N11  Fs3  v100
 BYTE   W24
 BYTE   N04  Bn2  v092
 BYTE   N04  Cs3
 BYTE   N04  Fs3  v100
 BYTE   W12
 BYTE   N11  Bn2  v092
 BYTE   N11  Dn3
 BYTE   N11  Fs3  v100
 BYTE   W16
// 083   ----------------------------------------
 BYTE   W08
 BYTE   An2  v092
 BYTE   N11  Dn3
 BYTE   N11  Fs3  v100
 BYTE   W12
 BYTE   An2  v092
 BYTE   N11  Cs3
 BYTE   N11  Fs3  v100
 BYTE   W24
 BYTE   An2  v092
 BYTE   N11  En3
 BYTE   N11  Fs3  v100
 BYTE   W12
 BYTE   An2  v092
 BYTE   N11  Cs3
 BYTE   N11  Fs3  v100
 BYTE   W24
 BYTE   An2  v092
 BYTE   N11  Dn3
 BYTE   N11  Fs3  v100
 BYTE   W16
// 084   ----------------------------------------
 BYTE   W96
// 085   ----------------------------------------
 BYTE   W96
// 086   ----------------------------------------
 BYTE   W96
// 087   ----------------------------------------
 BYTE   W96
// 088   ----------------------------------------
 BYTE   W96
// 089   ----------------------------------------
 BYTE   W96
// 090   ----------------------------------------
 BYTE   W96
// 091   ----------------------------------------
 BYTE   W96
// 092   ----------------------------------------
 BYTE   GoTo
  POIN2 Label_10_0101D4CA
 BYTE   FINE

//**************** Track 12 (Midi-Chn.11) ****************//

FlapperGirl_012:
// 000   ----------------------------------------
 BYTE   KEYSH   FlapperGirl_key+0
Label_11_0101D9DE:
 BYTE   VOICE   60
 BYTE   PAN   c_v+0
 BYTE   VOL   34*FlapperGirl_mvl/mxv
 BYTE   W96
// 001   ----------------------------------------
 BYTE   W96
// 002   ----------------------------------------
 BYTE   W96
// 003   ----------------------------------------
 BYTE   W96
// 004   ----------------------------------------
 BYTE   W12
 BYTE   N01  Fs2  v088
 BYTE   N01  Bn2  v092
 BYTE   W02
 BYTE   Gn2  v080
 BYTE   N01  Cs3
 BYTE   W02
 BYTE   An2  v076
 BYTE   N01  Dn3  v080
 BYTE   W02
 BYTE   Bn2  v076
 BYTE   N01  En3  v080
 BYTE   W01
 BYTE   Cs3
 BYTE   N01  Fs3  v084
 BYTE   W02
 BYTE   Dn3  v080
 BYTE   N01  Gn3  v084
 BYTE   W01
 BYTE   En3
 BYTE   N01  An3  v088
 BYTE   W02
 BYTE   N12  Fs3  v100
 BYTE   N12  Bn3
 BYTE   W72
// 005   ----------------------------------------
 BYTE   W96
// 006   ----------------------------------------
 BYTE   W96
// 007   ----------------------------------------
 BYTE   W96
// 008   ----------------------------------------
 BYTE   W96
// 009   ----------------------------------------
 BYTE   W96
// 010   ----------------------------------------
 BYTE   W96
// 011   ----------------------------------------
 BYTE   W96
// 012   ----------------------------------------
 BYTE   W96
// 013   ----------------------------------------
 BYTE   W96
// 014   ----------------------------------------
 BYTE   W96
// 015   ----------------------------------------
 BYTE   W96
// 016   ----------------------------------------
 BYTE   W96
// 017   ----------------------------------------
 BYTE   W96
// 018   ----------------------------------------
 BYTE   W96
// 019   ----------------------------------------
 BYTE   W96
// 020   ----------------------------------------
 BYTE   W96
// 021   ----------------------------------------
 BYTE   W96
// 022   ----------------------------------------
 BYTE   W96
// 023   ----------------------------------------
 BYTE   W96
// 024   ----------------------------------------
 BYTE   W96
// 025   ----------------------------------------
 BYTE   W96
// 026   ----------------------------------------
 BYTE   W96
// 027   ----------------------------------------
 BYTE   W96
// 028   ----------------------------------------
 BYTE   W96
// 029   ----------------------------------------
 BYTE   W96
// 030   ----------------------------------------
 BYTE   W96
// 031   ----------------------------------------
 BYTE   W96
// 032   ----------------------------------------
 BYTE   W96
// 033   ----------------------------------------
 BYTE   W96
// 034   ----------------------------------------
 BYTE   W96
// 035   ----------------------------------------
 BYTE   W96
// 036   ----------------------------------------
 BYTE   W96
// 037   ----------------------------------------
 BYTE   W96
// 038   ----------------------------------------
 BYTE   W96
// 039   ----------------------------------------
 BYTE   W96
// 040   ----------------------------------------
 BYTE   W96
// 041   ----------------------------------------
 BYTE   W96
// 042   ----------------------------------------
 BYTE   W96
// 043   ----------------------------------------
 BYTE   W96
// 044   ----------------------------------------
 BYTE   W96
// 045   ----------------------------------------
 BYTE   W96
// 046   ----------------------------------------
 BYTE   W96
// 047   ----------------------------------------
 BYTE   W96
// 048   ----------------------------------------
 BYTE   W96
// 049   ----------------------------------------
 BYTE   W96
// 050   ----------------------------------------
 BYTE   W96
// 051   ----------------------------------------
 BYTE   W96
// 052   ----------------------------------------
 BYTE   W96
// 053   ----------------------------------------
 BYTE   W96
// 054   ----------------------------------------
 BYTE   W96
// 055   ----------------------------------------
 BYTE   W96
// 056   ----------------------------------------
 BYTE   W96
// 057   ----------------------------------------
 BYTE   W96
// 058   ----------------------------------------
 BYTE   W96
// 059   ----------------------------------------
 BYTE   W96
// 060   ----------------------------------------
 BYTE   W96
// 061   ----------------------------------------
 BYTE   W96
// 062   ----------------------------------------
 BYTE   W96
// 063   ----------------------------------------
 BYTE   W96
// 064   ----------------------------------------
 BYTE   W96
// 065   ----------------------------------------
 BYTE   W96
// 066   ----------------------------------------
 BYTE   W96
// 067   ----------------------------------------
 BYTE   W96
// 068   ----------------------------------------
 BYTE   W96
// 069   ----------------------------------------
 BYTE   W96
// 070   ----------------------------------------
 BYTE   W96
// 071   ----------------------------------------
 BYTE   W96
// 072   ----------------------------------------
 BYTE   W96
// 073   ----------------------------------------
 BYTE   W96
// 074   ----------------------------------------
 BYTE   W96
// 075   ----------------------------------------
 BYTE   W96
// 076   ----------------------------------------
 BYTE   W96
// 077   ----------------------------------------
 BYTE   W96
// 078   ----------------------------------------
 BYTE   W96
// 079   ----------------------------------------
 BYTE   W96
// 080   ----------------------------------------
 BYTE   W96
// 081   ----------------------------------------
 BYTE   W96
// 082   ----------------------------------------
 BYTE   W96
// 083   ----------------------------------------
 BYTE   W96
// 084   ----------------------------------------
 BYTE   W96
// 085   ----------------------------------------
 BYTE   W96
// 086   ----------------------------------------
 BYTE   W96
// 087   ----------------------------------------
 BYTE   W96
// 088   ----------------------------------------
 BYTE   W96
// 089   ----------------------------------------
 BYTE   W96
// 090   ----------------------------------------
 BYTE   W96
// 091   ----------------------------------------
 BYTE   W96
// 092   ----------------------------------------
 BYTE   W96
// 093   ----------------------------------------
 BYTE   W96
// 094   ----------------------------------------
 BYTE   W96
// 095   ----------------------------------------
 BYTE   W96
// 096   ----------------------------------------
 BYTE   W96
// 097   ----------------------------------------
 BYTE   W96
// 098   ----------------------------------------
 BYTE   W96
// 099   ----------------------------------------
 BYTE   W96
// 100   ----------------------------------------
 BYTE   W96
// 101   ----------------------------------------
 BYTE   W96
// 102   ----------------------------------------
 BYTE   W96
// 103   ----------------------------------------
 BYTE   W96
// 104   ----------------------------------------
 BYTE   GoTo
  POIN2 Label_11_0101D9DE
 BYTE   FINE

//**************** Track 13 (Midi-Chn.12) ****************//

FlapperGirl_013:
// 000   ----------------------------------------
 BYTE   KEYSH   FlapperGirl_key+0
Label_12_0101DA82:
 BYTE   VOICE   61
 BYTE   VOL   51*FlapperGirl_mvl/mxv
 BYTE   PAN   c_v+0
 BYTE   W96
// 001   ----------------------------------------
 BYTE   W96
// 002   ----------------------------------------
 BYTE   W96
// 003   ----------------------------------------
 BYTE   W96
// 004   ----------------------------------------
 BYTE   En3
 BYTE   W84
 BYTE   N03  Bn3  v056
 BYTE   W03
 BYTE   An3
 BYTE   W03
 BYTE   N17  Gn3
 BYTE   W06
// 005   ----------------------------------------
 BYTE   W12
 BYTE   N09  Gn3  v052
 BYTE   W12
 BYTE   N09
 BYTE   W12
 BYTE   N09
 BYTE   W12
 BYTE   Gn3  v056
 BYTE   W12
 BYTE   Fs3
 BYTE   W12
 BYTE   Gn3
 BYTE   W12
 BYTE   Fs3
 BYTE   W12
// 006   ----------------------------------------
 BYTE   W96
// 007   ----------------------------------------
 BYTE   W96
// 008   ----------------------------------------
 BYTE   W96
// 009   ----------------------------------------
 BYTE   W96
// 010   ----------------------------------------
 BYTE   W96
// 011   ----------------------------------------
 BYTE   W96
// 012   ----------------------------------------
 BYTE   W96
// 013   ----------------------------------------
 BYTE   W96
// 014   ----------------------------------------
 BYTE   W96
// 015   ----------------------------------------
 BYTE   PAN   c_v+0
 BYTE   W96
// 016   ----------------------------------------
 BYTE   N36  Gn1  v080
 BYTE   N36  Gn2  v072
 BYTE   W48
 BYTE   Bn1  v084
 BYTE   N36  Bn2  v072
 BYTE   W48
// 017   ----------------------------------------
 BYTE   N11  Cs2  v080
 BYTE   N11  Cs3  v072
 BYTE   W24
 BYTE   Dn2  v084
 BYTE   N11  Dn3  v072
 BYTE   W24
 BYTE   Cs2  v080
 BYTE   N11  Cs3  v072
 BYTE   W24
 BYTE   An1  v084
 BYTE   N11  An2  v072
 BYTE   W24
// 018   ----------------------------------------
 BYTE   N68  Fs2  v084
 BYTE   N68  Fs3  v072
 BYTE   W84
 BYTE   N16  As2  v080
 BYTE   N16  As3  v072
 BYTE   W12
// 019   ----------------------------------------
 BYTE   W12
 BYTE   N05  As2  v076
 BYTE   N05  As3  v068
 BYTE   W12
 BYTE   N11  Bn2  v080
 BYTE   N11  Bn3  v072
 BYTE   W24
 BYTE   Cs3  v080
 BYTE   N11  Cs4  v072
 BYTE   W24
 BYTE   N05  Fs2  v076
 BYTE   N05  Fs3  v068
 BYTE   W12
 BYTE   N68  Dn3  v080
 BYTE   N68  Dn4  v072
 BYTE   W12
// 020   ----------------------------------------
 BYTE   W60
 BYTE   N05  Cs3  v076
 BYTE   N05  Cs4  v068
 BYTE   W12
 BYTE   Bn2
 BYTE   N05  Bn3  v060
 BYTE   W12
 BYTE   N48  An2  v080
 BYTE   N48  An3  v072
 BYTE   W12
// 021   ----------------------------------------
 BYTE   W48
 BYTE   N23  An2  v076
 BYTE   N23  An3  v068
 BYTE   W24
 BYTE   N05  Bn2  v072
 BYTE   N05  Bn3  v064
 BYTE   W12
 BYTE   N56  Fs2  v080
 BYTE   N56  Fs3  v072
 BYTE   W12
// 022   ----------------------------------------
 BYTE   W60
 BYTE   N11  En2  v080
 BYTE   N11  En3  v072
 BYTE   W24
 BYTE   Fs2  v080
 BYTE   N11  Fs3  v072
 BYTE   W12
// 023   ----------------------------------------
 BYTE   W12
 BYTE   N05  Dn2
 BYTE   N05  Dn3  v064
 BYTE   W12
 BYTE   N11  Dn2  v076
 BYTE   N11  Dn3  v064
 BYTE   W24
 BYTE   En2  v080
 BYTE   N11  En3  v068
 BYTE   W24
 BYTE   Fs2  v076
 BYTE   N11  Fs3  v068
 BYTE   W24
// 024   ----------------------------------------
 BYTE   N44  Gn0  v092
 BYTE   W48
 BYTE   N09  Gn0  v088
 BYTE   W12
 BYTE   Gn0  v092
 BYTE   W12
 BYTE   Gn0  v088
 BYTE   W12
 BYTE   N84  An0  v080
 BYTE   W12
// 025   ----------------------------------------
 BYTE   W84
 BYTE   N56  Dn1  v092
 BYTE   W12
// 026   ----------------------------------------
 BYTE   W48
 BYTE   N09  Dn1  v088
 BYTE   W12
 BYTE   Dn1  v092
 BYTE   W12
 BYTE   Dn1  v088
 BYTE   W24
// 027   ----------------------------------------
 BYTE   W96
// 028   ----------------------------------------
 BYTE   En1  v084
 BYTE   W12
 BYTE   En1  v080
 BYTE   W12
 BYTE   N18  En1  v092
 BYTE   W24
 BYTE   N09  En1  v080
 BYTE   W12
 BYTE   N18  En1  v092
 BYTE   W24
 BYTE   Dn1
 BYTE   W12
// 029   ----------------------------------------
 BYTE   W12
 BYTE   N09  Dn1  v080
 BYTE   W12
 BYTE   N18  Dn1  v092
 BYTE   W24
 BYTE   N09  Dn1  v080
 BYTE   W12
 BYTE   N18  Dn1  v092
 BYTE   W24
 BYTE   N24  Cs1
 BYTE   W12
// 030   ----------------------------------------
 BYTE   W12
 BYTE   N12
 BYTE   W24
 BYTE   N24  Gn1
 BYTE   W24
 BYTE   N12
 BYTE   W24
 BYTE   N44  Fs1
 BYTE   W12
// 031   ----------------------------------------
 BYTE   W36
 BYTE   N12
 BYTE   W60
// 032   ----------------------------------------
 BYTE   W96
// 033   ----------------------------------------
 BYTE   W96
// 034   ----------------------------------------
 BYTE   W96
// 035   ----------------------------------------
 BYTE   W96
// 036   ----------------------------------------
 BYTE   W96
// 037   ----------------------------------------
 BYTE   W96
// 038   ----------------------------------------
 BYTE   W96
// 039   ----------------------------------------
 BYTE   W96
// 040   ----------------------------------------
 BYTE   W96
// 041   ----------------------------------------
 BYTE   W96
// 042   ----------------------------------------
 BYTE   W96
// 043   ----------------------------------------
 BYTE   W96
// 044   ----------------------------------------
 BYTE   W96
// 045   ----------------------------------------
 BYTE   W96
// 046   ----------------------------------------
 BYTE   W96
// 047   ----------------------------------------
 BYTE   W96
// 048   ----------------------------------------
 BYTE   W96
// 049   ----------------------------------------
 BYTE   W96
// 050   ----------------------------------------
 BYTE   W96
// 051   ----------------------------------------
 BYTE   W96
// 052   ----------------------------------------
 BYTE   W96
// 053   ----------------------------------------
 BYTE   W96
// 054   ----------------------------------------
 BYTE   W96
// 055   ----------------------------------------
 BYTE   W96
// 056   ----------------------------------------
 BYTE   W96
// 057   ----------------------------------------
 BYTE   W96
// 058   ----------------------------------------
 BYTE   W96
// 059   ----------------------------------------
 BYTE   W96
// 060   ----------------------------------------
 BYTE   W96
// 061   ----------------------------------------
 BYTE   W96
// 062   ----------------------------------------
 BYTE   W96
// 063   ----------------------------------------
 BYTE   W96
// 064   ----------------------------------------
 BYTE   N36  Gn1  v084
 BYTE   N36  Gn2  v076
 BYTE   W48
 BYTE   Bn1  v088
 BYTE   N36  Bn2  v076
 BYTE   W48
// 065   ----------------------------------------
 BYTE   N11  Cs2  v084
 BYTE   N11  Cs3  v076
 BYTE   W24
 BYTE   Dn2  v088
 BYTE   N11  Dn3  v076
 BYTE   W24
 BYTE   Cs2  v084
 BYTE   N11  Cs3  v076
 BYTE   W24
 BYTE   An1  v088
 BYTE   N11  An2  v076
 BYTE   W24
// 066   ----------------------------------------
 BYTE   N68  Fs2  v088
 BYTE   N68  Fs3  v076
 BYTE   W84
 BYTE   N16  As2  v088
 BYTE   N16  As3  v080
 BYTE   W12
// 067   ----------------------------------------
 BYTE   W12
 BYTE   N05  As2  v088
 BYTE   N05  As3  v080
 BYTE   W12
 BYTE   N11  Bn2  v088
 BYTE   N11  Bn3  v080
 BYTE   W24
 BYTE   Cs3  v092
 BYTE   N11  Cs4  v080
 BYTE   W24
 BYTE   N05  Fs2  v088
 BYTE   N05  Fs3  v080
 BYTE   W12
 BYTE   N68  Dn3  v088
 BYTE   N68  Dn4  v080
 BYTE   W12
// 068   ----------------------------------------
 BYTE   W60
 BYTE   N05  Cs3  v088
 BYTE   N05  Cs4  v080
 BYTE   W12
 BYTE   Bn2
 BYTE   N05  Bn3  v072
 BYTE   W12
 BYTE   N48  An2  v088
 BYTE   N48  An3  v080
 BYTE   W12
// 069   ----------------------------------------
 BYTE   W48
 BYTE   N23  An2  v088
 BYTE   N23  An3  v076
 BYTE   W24
 BYTE   N05  Bn2  v084
 BYTE   N05  Bn3  v076
 BYTE   W12
 BYTE   N56  Fs2  v092
 BYTE   N56  Fs3  v080
 BYTE   W12
// 070   ----------------------------------------
 BYTE   W60
 BYTE   N11  En2  v088
 BYTE   N11  En3  v080
 BYTE   W24
 BYTE   Fs2  v092
 BYTE   N11  Fs3  v080
 BYTE   W12
// 071   ----------------------------------------
 BYTE   W12
 BYTE   N05  Dn2  v084
 BYTE   N05  Dn3  v076
 BYTE   W12
 BYTE   N11  Dn2  v084
 BYTE   N11  Dn3  v076
 BYTE   W24
 BYTE   En2  v088
 BYTE   N11  En3  v080
 BYTE   W24
 BYTE   Fs2  v088
 BYTE   N11  Fs3  v076
 BYTE   W24
// 072   ----------------------------------------
 BYTE   N44  Gn0  v096
 BYTE   W48
 BYTE   N09
 BYTE   W12
 BYTE   N09
 BYTE   W12
 BYTE   Gn0  v092
 BYTE   W12
 BYTE   N84  Gn0  v096
 BYTE   W12
// 073   ----------------------------------------
 BYTE   W84
 BYTE   N56  Dn1
 BYTE   W12
// 074   ----------------------------------------
 BYTE   W48
 BYTE   N09
 BYTE   W12
 BYTE   N09
 BYTE   W12
 BYTE   Dn1  v092
 BYTE   W24
// 075   ----------------------------------------
 BYTE   W96
// 076   ----------------------------------------
 BYTE   En1  v088
 BYTE   W12
 BYTE   En1  v084
 BYTE   W12
 BYTE   N18  En1  v096
 BYTE   W24
 BYTE   N09  En1  v084
 BYTE   W12
 BYTE   N18  En1  v096
 BYTE   W24
 BYTE   Dn1
 BYTE   W12
// 077   ----------------------------------------
 BYTE   W12
 BYTE   N09  Dn1  v084
 BYTE   W12
 BYTE   N18  Dn1  v096
 BYTE   N11  Dn2  v092
 BYTE   N11  Dn3  v080
 BYTE   W24
 BYTE   N09  Dn1  v084
 BYTE   N11  En2  v092
 BYTE   N11  En3  v080
 BYTE   W12
 BYTE   N18  Dn1  v096
 BYTE   W12
 BYTE   N05  Fs2  v088
 BYTE   N05  Fs3  v080
 BYTE   W12
 BYTE   N24  Cs1  v096
 BYTE   N32  Gn2  v092
 BYTE   N32  Gn3  v084
 BYTE   W12
// 078   ----------------------------------------
 BYTE   W12
 BYTE   N12  Cs1  v096
 BYTE   W24
 BYTE   N24  Gn1
 BYTE   N23  Gn2  v084
 BYTE   N23  Gn3  v072
 BYTE   W24
 BYTE   N12  Gn1  v096
 BYTE   N05  Fs2  v072
 BYTE   N05  Fs3  v064
 BYTE   W12
 BYTE   En2
 BYTE   N05  En3  v052
 BYTE   W12
 BYTE   N44  Fs1  v096
 BYTE   N05  Fs2  v068
 BYTE   N05  Fs3  v056
 BYTE   W12
// 079   ----------------------------------------
 BYTE   W36
 BYTE   N12  Fs1  v096
 BYTE   W60
// 080   ----------------------------------------
 BYTE   W96
// 081   ----------------------------------------
 BYTE   W96
// 082   ----------------------------------------
 BYTE   W96
// 083   ----------------------------------------
 BYTE   W96
// 084   ----------------------------------------
 BYTE   W96
// 085   ----------------------------------------
 BYTE   W96
// 086   ----------------------------------------
 BYTE   W96
// 087   ----------------------------------------
 BYTE   W96
// 088   ----------------------------------------
 BYTE   W96
// 089   ----------------------------------------
 BYTE   W96
// 090   ----------------------------------------
 BYTE   W96
// 091   ----------------------------------------
 BYTE   W96
// 092   ----------------------------------------
 BYTE   W96
// 093   ----------------------------------------
 BYTE   W96
// 094   ----------------------------------------
 BYTE   W96
// 095   ----------------------------------------
 BYTE   W96
// 096   ----------------------------------------
 BYTE   W96
// 097   ----------------------------------------
 BYTE   W96
// 098   ----------------------------------------
 BYTE   W96
// 099   ----------------------------------------
 BYTE   W96
// 100   ----------------------------------------
 BYTE   W96
// 101   ----------------------------------------
 BYTE   W96
// 102   ----------------------------------------
 BYTE   W96
// 103   ----------------------------------------
 BYTE   W96
// 104   ----------------------------------------
 BYTE   GoTo
  POIN2 Label_12_0101DA82
 BYTE   FINE

//**************** Track 14 (Midi-Chn.13) ****************//

FlapperGirl_014:
// 000   ----------------------------------------
 BYTE   KEYSH   FlapperGirl_key+0
Label_13_0101DD2E:
 BYTE   VOICE   62
 BYTE   PAN   c_v+0
 BYTE   VOL   36*FlapperGirl_mvl/mxv
 BYTE   W96
// 001   ----------------------------------------
 BYTE   W96
// 002   ----------------------------------------
 BYTE   W96
// 003   ----------------------------------------
 BYTE   W24
 BYTE   N22  Gn5  v076
 BYTE   W24
 BYTE   Fs5
 BYTE   W24
 BYTE   N10  En5
 BYTE   W12
 BYTE   N32
 BYTE   W12
// 004   ----------------------------------------
 BYTE   W96
// 005   ----------------------------------------
 BYTE   W96
// 006   ----------------------------------------
 BYTE   W96
// 007   ----------------------------------------
 BYTE   W96
// 008   ----------------------------------------
 BYTE   W96
// 009   ----------------------------------------
 BYTE   W96
// 010   ----------------------------------------
 BYTE   W96
// 011   ----------------------------------------
 BYTE   W96
// 012   ----------------------------------------
 BYTE   W96
// 013   ----------------------------------------
 BYTE   W96
// 014   ----------------------------------------
 BYTE   W96
// 015   ----------------------------------------
Label_13_0101DD4E:
 BYTE   N22  Dn5  v060
 BYTE   W24
 BYTE   En5  v064
 BYTE   W24
 BYTE   Fs5
 BYTE   W24
 BYTE   Dn5  v060
 BYTE   W24
 BYTE   PEND 
// 016   ----------------------------------------
 BYTE   W96
// 017   ----------------------------------------
 BYTE   W96
// 018   ----------------------------------------
 BYTE   W96
// 019   ----------------------------------------
 BYTE   W96
// 020   ----------------------------------------
 BYTE   W96
// 021   ----------------------------------------
 BYTE   W96
// 022   ----------------------------------------
 BYTE   W96
// 023   ----------------------------------------
Label_13_0101DD62:
 BYTE   W24
 BYTE   N06  Dn2  v108
 BYTE   W03
 BYTE   En2  v096
 BYTE   W04
 BYTE   Fs2
 BYTE   W03
 BYTE   Gn2  v092
 BYTE   W04
 BYTE   An2
 BYTE   W03
 BYTE   Bn2
 BYTE   W04
 BYTE   Cn3
 BYTE   W03
 BYTE   Dn3  v088
 BYTE   W04
 BYTE   En3
 BYTE   W03
 BYTE   Fs3
 BYTE   W04
 BYTE   Gn3
 BYTE   W03
 BYTE   An3  v084
 BYTE   W04
 BYTE   Bn3
 BYTE   W03
 BYTE   Cn4
 BYTE   W04
 BYTE   Dn4
 BYTE   W03
 BYTE   En4  v080
 BYTE   W04
 BYTE   Fs4
 BYTE   W03
 BYTE   Gn4
 BYTE   W04
 BYTE   An4
 BYTE   W03
 BYTE   N09  Bn4  v076
 BYTE   W06
 BYTE   PEND 
// 024   ----------------------------------------
 BYTE   W96
// 025   ----------------------------------------
 BYTE   W96
// 026   ----------------------------------------
 BYTE   W96
// 027   ----------------------------------------
 BYTE   W96
// 028   ----------------------------------------
 BYTE   W96
// 029   ----------------------------------------
 BYTE   W96
// 030   ----------------------------------------
 BYTE   W96
// 031   ----------------------------------------
 BYTE   W96
// 032   ----------------------------------------
 BYTE   W96
// 033   ----------------------------------------
 BYTE   W96
// 034   ----------------------------------------
 BYTE   W96
// 035   ----------------------------------------
 BYTE   W96
// 036   ----------------------------------------
 BYTE   W96
// 037   ----------------------------------------
 BYTE   W96
// 038   ----------------------------------------
 BYTE   W96
// 039   ----------------------------------------
 BYTE   W96
// 040   ----------------------------------------
 BYTE   W96
// 041   ----------------------------------------
 BYTE   W96
// 042   ----------------------------------------
 BYTE   W96
// 043   ----------------------------------------
 BYTE   W96
// 044   ----------------------------------------
 BYTE   W96
// 045   ----------------------------------------
 BYTE   W96
// 046   ----------------------------------------
 BYTE   W96
// 047   ----------------------------------------
 BYTE   W96
// 048   ----------------------------------------
 BYTE   W96
// 049   ----------------------------------------
 BYTE   W96
// 050   ----------------------------------------
 BYTE   W96
// 051   ----------------------------------------
 BYTE   W96
// 052   ----------------------------------------
 BYTE   W96
// 053   ----------------------------------------
 BYTE   W96
// 054   ----------------------------------------
 BYTE   N05  Fs4  v048
 BYTE   N17  Fs5  v088
 BYTE   W12
 BYTE   N05  En4  v048
 BYTE   N17  En5  v080
 BYTE   W12
 BYTE   N05  Dn4  v048
 BYTE   N17  Dn5  v080
 BYTE   W12
 BYTE   N05  Cs4  v048
 BYTE   N11  Cs5  v080
 BYTE   W06
 BYTE   N05  Dn4  v048
 BYTE   N11  Dn5  v080
 BYTE   W06
 BYTE   N05  Cs4  v048
 BYTE   N17  Cs5  v088
 BYTE   W12
 BYTE   N05  Bn3  v048
 BYTE   N17  Bn4  v080
 BYTE   W12
 BYTE   N05  Gs3  v048
 BYTE   N17  Gs4  v080
 BYTE   W12
 BYTE   N05  As3  v048
 BYTE   N17  As4  v088
 BYTE   W12
// 055   ----------------------------------------
 BYTE   W12
 BYTE   N05  Bn3  v048
 BYTE   N17  Bn4  v080
 BYTE   W12
 BYTE   N05  Cs4  v048
 BYTE   N17  Cs5  v080
 BYTE   W12
 BYTE   Fs3  v048
 BYTE   N23  Fs4  v080
 BYTE   N23  Fs5
 BYTE   W60
// 056   ----------------------------------------
 BYTE   W96
// 057   ----------------------------------------
 BYTE   W96
// 058   ----------------------------------------
 BYTE   W96
// 059   ----------------------------------------
 BYTE   W96
// 060   ----------------------------------------
 BYTE   W96
// 061   ----------------------------------------
 BYTE   W96
// 062   ----------------------------------------
 BYTE   W96
 BYTE   PATT
  POIN2 Label_13_0101DD4E
// 063   ----------------------------------------
 BYTE   W96
// 064   ----------------------------------------
 BYTE   W96
// 065   ----------------------------------------
 BYTE   W96
// 066   ----------------------------------------
 BYTE   W96
// 067   ----------------------------------------
 BYTE   W96
// 068   ----------------------------------------
 BYTE   W96
// 069   ----------------------------------------
 BYTE   W96
 BYTE   PATT
  POIN2 Label_13_0101DD62
// 070   ----------------------------------------
 BYTE   W96
// 071   ----------------------------------------
 BYTE   W96
// 072   ----------------------------------------
 BYTE   W96
// 073   ----------------------------------------
 BYTE   W96
// 074   ----------------------------------------
 BYTE   W96
// 075   ----------------------------------------
 BYTE   W96
// 076   ----------------------------------------
 BYTE   W96
// 077   ----------------------------------------
 BYTE   W96
// 078   ----------------------------------------
 BYTE   W96
// 079   ----------------------------------------
 BYTE   W96
// 080   ----------------------------------------
 BYTE   W96
// 081   ----------------------------------------
 BYTE   W96
// 082   ----------------------------------------
 BYTE   W96
// 083   ----------------------------------------
 BYTE   W96
// 084   ----------------------------------------
 BYTE   W96
// 085   ----------------------------------------
 BYTE   W96
// 086   ----------------------------------------
 BYTE   W96
// 087   ----------------------------------------
 BYTE   W96
// 088   ----------------------------------------
 BYTE   W96
// 089   ----------------------------------------
 BYTE   W96
// 090   ----------------------------------------
 BYTE   W96
// 091   ----------------------------------------
 BYTE   W96
// 092   ----------------------------------------
 BYTE   W96
// 093   ----------------------------------------
 BYTE   W96
// 094   ----------------------------------------
 BYTE   W96
// 095   ----------------------------------------
 BYTE   W96
// 096   ----------------------------------------
 BYTE   W96
// 097   ----------------------------------------
 BYTE   W96
// 098   ----------------------------------------
 BYTE   W96
// 099   ----------------------------------------
 BYTE   W96
// 100   ----------------------------------------
 BYTE   W96
// 101   ----------------------------------------
 BYTE   W96
// 102   ----------------------------------------
 BYTE   GoTo
  POIN2 Label_13_0101DD2E
 BYTE   FINE

//******************************************************//
	ALIGN 4

FlapperGirl:
	BYTE	14	// NumTrks
	BYTE	0	// NumBlks
	BYTE	FlapperGirl_pri	// Priority
	BYTE	FlapperGirl_rev	// Reverb.
    
	POIN2	FlapperGirl_grp
    
	POIN2	FlapperGirl_001
	POIN2	FlapperGirl_002
	POIN2	FlapperGirl_003
	POIN2	FlapperGirl_004
	POIN2	FlapperGirl_005
	POIN2	FlapperGirl_006
	POIN2	FlapperGirl_007
	POIN2	FlapperGirl_008
	POIN2	FlapperGirl_009
	POIN2	FlapperGirl_010
	POIN2	FlapperGirl_011
	POIN2	FlapperGirl_012
	POIN2	FlapperGirl_013
	POIN2	FlapperGirl_014

	
