//Event file generated from Sappy .s format.
	#include "MPlayDef.event"

	#define	HeavyArmorCorps0_grp  voicegroup000
	#define	HeavyArmorCorps0_pri  0
	#define	HeavyArmorCorps0_rev  0
	#define	HeavyArmorCorps0_mvl  127
	#define	HeavyArmorCorps0_key  0
	#define	HeavyArmorCorps0_tbs  1
	#define	HeavyArmorCorps0_exg  0
	#define	HeavyArmorCorps0_cmp  1

	// .rodata
	//	HeavyArmorCorps0
	ALIGN 4

//**************** Track 1 (Midi-Chn.1) ****************//

HeavyArmorCorps0_1:
	BYTE	KEYSH   HeavyArmorCorps0_key+0
// 000   ----------------------------------------
	BYTE	TEMPO   200*HeavyArmorCorps0_tbs/2
	BYTE		VOICE   61
	BYTE		PAN     c_v-8
	BYTE		MOD     0
	BYTE		VOL     30*HeavyArmorCorps0_mvl/mxv
	BYTE		BEND    c_v+0
	BYTE	W11
	BYTE	TEMPO   100*HeavyArmorCorps0_tbs/2
	BYTE	W60
	BYTE	W01
HeavyArmorCorps0_1_B1:
	BYTE	W24
// 001   ----------------------------------------
	BYTE	W96
// 002   ----------------------------------------
	BYTE	W96
// 003   ----------------------------------------
	BYTE	W96
// 004   ----------------------------------------
	BYTE	W96
// 005   ----------------------------------------
	BYTE	W96
// 006   ----------------------------------------
	BYTE	W96
// 007   ----------------------------------------
	BYTE	W96
// 008   ----------------------------------------
	BYTE	W96
// 009   ----------------------------------------
	BYTE	W96
// 010   ----------------------------------------
	BYTE	W96
// 011   ----------------------------------------
	BYTE	W96
// 012   ----------------------------------------
	BYTE	W96
// 013   ----------------------------------------
	BYTE	W96
// 014   ----------------------------------------
	BYTE	W96
// 015   ----------------------------------------
	BYTE	W96
// 016   ----------------------------------------
	BYTE	W96
// 017   ----------------------------------------
	BYTE	W96
// 018   ----------------------------------------
	BYTE	W96
// 019   ----------------------------------------
	BYTE	W96
// 020   ----------------------------------------
	BYTE	W96
// 021   ----------------------------------------
	BYTE	W96
// 022   ----------------------------------------
	BYTE	W96
// 023   ----------------------------------------
	BYTE	W96
// 024   ----------------------------------------
	BYTE	W96
// 025   ----------------------------------------
	BYTE	W96
// 026   ----------------------------------------
	BYTE	W96
// 027   ----------------------------------------
	BYTE	W96
// 028   ----------------------------------------
	BYTE	W96
// 029   ----------------------------------------
	BYTE	W96
// 030   ----------------------------------------
	BYTE	W96
// 031   ----------------------------------------
	BYTE	W96
// 032   ----------------------------------------
HeavyArmorCorps0_1_032:
	BYTE	W24
	BYTE		N48     Cn4   v116
	BYTE	W48
	BYTE		N24     As3 
	BYTE	W24
	BYTE	PEND
// 033   ----------------------------------------
HeavyArmorCorps0_1_033:
	BYTE		N24     Cn4   v116
	BYTE	W24
	BYTE		N48     Dn4 
	BYTE	W48
	BYTE		        As3 
	BYTE	W24
	BYTE	PEND
// 034   ----------------------------------------
HeavyArmorCorps0_1_034:
	BYTE	W24
	BYTE		N48     Ds4   v116
	BYTE	W48
	BYTE		N72     Gn3   v112
	BYTE	W24
	BYTE	PEND
// 035   ----------------------------------------
HeavyArmorCorps0_1_035:
	BYTE	W48
	BYTE		N24     Cn4   v116
	BYTE	W24
	BYTE		N36     Dn4 
	BYTE	W24
	BYTE	PEND
// 036   ----------------------------------------
HeavyArmorCorps0_1_036:
	BYTE	W12
	BYTE		N14     Ds4   v116
	BYTE	W12
	BYTE		N48     Gn4 
	BYTE	W48
	BYTE		N24     Fn4 
	BYTE	W24
	BYTE	PEND
// 037   ----------------------------------------
HeavyArmorCorps0_1_037:
	BYTE		N24     Gn4   v116
	BYTE	W24
	BYTE		N48     As4   v120
	BYTE	W48
	BYTE		N24     Gs4   v116
	BYTE	W24
	BYTE	PEND
// 038   ----------------------------------------
HeavyArmorCorps0_1_038:
	BYTE		N24     Gn4   v116
	BYTE	W24
	BYTE		N48     Fn4 
	BYTE	W48
	BYTE		        Ds4 
	BYTE	W24
	BYTE	PEND
// 039   ----------------------------------------
	BYTE	W24
	BYTE		        Dn4 
	BYTE	W48
	BYTE		        As3 
	BYTE	W24
// 040   ----------------------------------------
	BYTE	PATT
	 POIN2	HeavyArmorCorps0_1_032
// 041   ----------------------------------------
	BYTE	PATT
	 POIN2	HeavyArmorCorps0_1_033
// 042   ----------------------------------------
	BYTE	PATT
	 POIN2	HeavyArmorCorps0_1_034
// 043   ----------------------------------------
	BYTE	PATT
	 POIN2	HeavyArmorCorps0_1_035
// 044   ----------------------------------------
	BYTE	PATT
	 POIN2	HeavyArmorCorps0_1_036
// 045   ----------------------------------------
	BYTE	PATT
	 POIN2	HeavyArmorCorps0_1_037
// 046   ----------------------------------------
	BYTE	PATT
	 POIN2	HeavyArmorCorps0_1_038
// 047   ----------------------------------------
	BYTE	W24
	BYTE		N48     Dn4   v116
	BYTE	W48
	BYTE		        Gn4 
	BYTE	W24
// 048   ----------------------------------------
	BYTE	W24
	BYTE		        Cn5 
	BYTE	W48
	BYTE		N24     As4 
	BYTE	W24
// 049   ----------------------------------------
	BYTE		        Cn5 
	BYTE	W24
	BYTE		N48     Dn5 
	BYTE	W48
	BYTE		        As4 
	BYTE	W24
// 050   ----------------------------------------
	BYTE	W24
	BYTE		        Fn5 
	BYTE	W48
	BYTE		        Ds5 
	BYTE	W24
// 051   ----------------------------------------
	BYTE	W24
	BYTE		        Dn5   v112
	BYTE	W44
	BYTE	W03
	BYTE		        Cn5 
	BYTE	W24
	BYTE	W01
// 052   ----------------------------------------
	BYTE	W24
	BYTE		TIE     As4 
	BYTE	W72
// 053   ----------------------------------------
	BYTE	W24
	BYTE		        Gs4 
	BYTE	W02
	BYTE		EOT     As4 
	BYTE	W68
	BYTE	W02
// 054   ----------------------------------------
	BYTE	W24
	BYTE		TIE     Gn4 
	BYTE	W02
	BYTE		EOT     Gs4 
	BYTE	W68
	BYTE	W02
// 055   ----------------------------------------
	BYTE	W96
// 056   ----------------------------------------
	BYTE	W24
	BYTE		        Gn4 
	BYTE	W72
// 057   ----------------------------------------
	BYTE	W96
// 058   ----------------------------------------
	BYTE	W09
	BYTE	GoTo
	 POIN2	HeavyArmorCorps0_1_B1
HeavyArmorCorps0_1_B2:
	BYTE	W36
	BYTE	W03
	BYTE		MOD     0
	BYTE	FINE

//**************** Track 2 (Midi-Chn.2) ****************//

HeavyArmorCorps0_2:
	BYTE	KEYSH   HeavyArmorCorps0_key+0
// 000   ----------------------------------------
	BYTE		VOICE   56
	BYTE		MOD     0
	BYTE		VOL     29*HeavyArmorCorps0_mvl/mxv
	BYTE		PAN     c_v-11
	BYTE		BEND    c_v+0
	BYTE	W72
HeavyArmorCorps0_2_B1:
	BYTE	W24
// 001   ----------------------------------------
	BYTE	W96
// 002   ----------------------------------------
	BYTE	W96
// 003   ----------------------------------------
	BYTE	W96
// 004   ----------------------------------------
	BYTE	W96
// 005   ----------------------------------------
	BYTE	W96
// 006   ----------------------------------------
	BYTE	W96
// 007   ----------------------------------------
	BYTE	W96
// 008   ----------------------------------------
	BYTE	W96
// 009   ----------------------------------------
	BYTE	W96
// 010   ----------------------------------------
	BYTE	W96
// 011   ----------------------------------------
	BYTE	W96
// 012   ----------------------------------------
	BYTE	W96
// 013   ----------------------------------------
	BYTE	W96
// 014   ----------------------------------------
	BYTE	W96
// 015   ----------------------------------------
	BYTE	W96
// 016   ----------------------------------------
	BYTE	W96
// 017   ----------------------------------------
	BYTE	W96
// 018   ----------------------------------------
	BYTE	W96
// 019   ----------------------------------------
	BYTE	W96
// 020   ----------------------------------------
	BYTE	W96
// 021   ----------------------------------------
	BYTE	W96
// 022   ----------------------------------------
	BYTE	W96
// 023   ----------------------------------------
	BYTE	W96
// 024   ----------------------------------------
	BYTE	W96
// 025   ----------------------------------------
	BYTE	W96
// 026   ----------------------------------------
	BYTE	W96
// 027   ----------------------------------------
	BYTE	W96
// 028   ----------------------------------------
	BYTE	W96
// 029   ----------------------------------------
	BYTE	W96
// 030   ----------------------------------------
	BYTE	W96
// 031   ----------------------------------------
	BYTE	W96
// 032   ----------------------------------------
HeavyArmorCorps0_2_032:
	BYTE	W24
	BYTE		N48     Cn3   v116
	BYTE	W48
	BYTE		N24     As2 
	BYTE	W24
	BYTE	PEND
// 033   ----------------------------------------
HeavyArmorCorps0_2_033:
	BYTE		N24     Cn3   v116
	BYTE	W24
	BYTE		N48     Dn3 
	BYTE	W48
	BYTE		        As2 
	BYTE	W24
	BYTE	PEND
// 034   ----------------------------------------
HeavyArmorCorps0_2_034:
	BYTE	W24
	BYTE		N48     Ds3   v116
	BYTE	W48
	BYTE		N72     Gn2   v112
	BYTE	W24
	BYTE	PEND
// 035   ----------------------------------------
HeavyArmorCorps0_2_035:
	BYTE	W48
	BYTE		N24     Cn3   v116
	BYTE	W24
	BYTE		N36     Dn3 
	BYTE	W24
	BYTE	PEND
// 036   ----------------------------------------
HeavyArmorCorps0_2_036:
	BYTE	W12
	BYTE		N14     Ds3   v116
	BYTE	W12
	BYTE		N48     Gn3   v120
	BYTE	W48
	BYTE		N24     Fn3   v116
	BYTE	W24
	BYTE	PEND
// 037   ----------------------------------------
HeavyArmorCorps0_2_037:
	BYTE		N24     Gn3   v116
	BYTE	W24
	BYTE		N48     As3   v120
	BYTE	W48
	BYTE		N24     Gs3   v116
	BYTE	W24
	BYTE	PEND
// 038   ----------------------------------------
HeavyArmorCorps0_2_038:
	BYTE		N24     Gn3   v116
	BYTE	W24
	BYTE		N48     Fn3 
	BYTE	W48
	BYTE		        Ds3 
	BYTE	W24
	BYTE	PEND
// 039   ----------------------------------------
	BYTE	W24
	BYTE		        Dn3   v112
	BYTE	W48
	BYTE		        As2   v108
	BYTE	W24
// 040   ----------------------------------------
	BYTE	PATT
	 POIN2	HeavyArmorCorps0_2_032
// 041   ----------------------------------------
	BYTE	PATT
	 POIN2	HeavyArmorCorps0_2_033
// 042   ----------------------------------------
	BYTE	PATT
	 POIN2	HeavyArmorCorps0_2_034
// 043   ----------------------------------------
	BYTE	PATT
	 POIN2	HeavyArmorCorps0_2_035
// 044   ----------------------------------------
	BYTE	PATT
	 POIN2	HeavyArmorCorps0_2_036
// 045   ----------------------------------------
	BYTE	PATT
	 POIN2	HeavyArmorCorps0_2_037
// 046   ----------------------------------------
	BYTE	PATT
	 POIN2	HeavyArmorCorps0_2_038
// 047   ----------------------------------------
	BYTE	W24
	BYTE		N48     Dn3   v112
	BYTE	W48
	BYTE		        Gn3   v108
	BYTE	W24
// 048   ----------------------------------------
	BYTE	W24
	BYTE		        Cn4   v116
	BYTE	W48
	BYTE		N24     As3 
	BYTE	W24
// 049   ----------------------------------------
	BYTE		        Cn4 
	BYTE	W24
	BYTE		N48     Dn4 
	BYTE	W48
	BYTE		        As3 
	BYTE	W24
// 050   ----------------------------------------
	BYTE	W24
	BYTE		        Fn4 
	BYTE	W48
	BYTE		        Ds4   v112
	BYTE	W24
// 051   ----------------------------------------
	BYTE	W24
	BYTE		N24     Dn4 
	BYTE	W24
	BYTE		        Gn3   v116
	BYTE	W24
	BYTE		N36     Cn4 
	BYTE	W24
// 052   ----------------------------------------
	BYTE	W12
	BYTE		N14     As3 
	BYTE	W12
	BYTE		N48     Ds3 
	BYTE	W48
	BYTE		N24     Fn3 
	BYTE	W24
// 053   ----------------------------------------
	BYTE		        Gn3 
	BYTE	W24
	BYTE		N48     Fn3   v120
	BYTE	W48
	BYTE		N24     Gn3   v116
	BYTE	W24
// 054   ----------------------------------------
	BYTE		        Gs3 
	BYTE	W24
	BYTE		TIE     Gn3 
	BYTE	W72
// 055   ----------------------------------------
	BYTE	W96
// 056   ----------------------------------------
	BYTE	W24
	BYTE		EOT   
	BYTE	W72
// 057   ----------------------------------------
	BYTE	W96
// 058   ----------------------------------------
	BYTE	W09
	BYTE	GoTo
	 POIN2	HeavyArmorCorps0_2_B1
HeavyArmorCorps0_2_B2:
	BYTE	W36
	BYTE	W03
	BYTE	FINE

//**************** Track 3 (Midi-Chn.3) ****************//

HeavyArmorCorps0_3:
	BYTE	KEYSH   HeavyArmorCorps0_key+0
// 000   ----------------------------------------
	BYTE		VOICE   73
	BYTE		PAN     c_v+3
	BYTE		VOL     20*HeavyArmorCorps0_mvl/mxv
	BYTE		MOD     0
	BYTE		BEND    c_v+0
	BYTE	W72
HeavyArmorCorps0_3_B1:
	BYTE	W24
// 001   ----------------------------------------
	BYTE	W96
// 002   ----------------------------------------
	BYTE	W96
// 003   ----------------------------------------
	BYTE	W96
// 004   ----------------------------------------
	BYTE	W96
// 005   ----------------------------------------
	BYTE	W96
// 006   ----------------------------------------
	BYTE	W96
// 007   ----------------------------------------
	BYTE	W96
// 008   ----------------------------------------
	BYTE	W96
// 009   ----------------------------------------
	BYTE	W96
// 010   ----------------------------------------
	BYTE	W96
// 011   ----------------------------------------
	BYTE	W72
	BYTE		N48     Gn2   v104
	BYTE	W24
// 012   ----------------------------------------
	BYTE	W24
	BYTE		TIE     Fn2   v108
	BYTE		N48     Cn3 
	BYTE	W48
	BYTE		TIE     As2   v104
	BYTE	W24
// 013   ----------------------------------------
	BYTE	W72
	BYTE		N48     Cn3   v108
	BYTE	W02
	BYTE		EOT     As2 
	BYTE	W22
// 014   ----------------------------------------
	BYTE		N24     Gn2 
	BYTE	W02
	BYTE		EOT     Fn2 
	BYTE	W22
	BYTE		TIE     Gs2 
	BYTE		N48     Ds3 
	BYTE	W48
	BYTE		TIE     Cs3 
	BYTE	W24
// 015   ----------------------------------------
	BYTE	W72
	BYTE		N48     Gs3 
	BYTE	W02
	BYTE		EOT     Cs3 
	BYTE	W22
// 016   ----------------------------------------
HeavyArmorCorps0_3_016:
	BYTE	W24
	BYTE		TIE     Gn2   v108
	BYTE		TIE     Gn3 
	BYTE	W02
	BYTE	PEND
	BYTE		EOT     Gs2 
	BYTE	W68
	BYTE	W02
// 017   ----------------------------------------
HeavyArmorCorps0_3_017:
	BYTE	W72
	BYTE		N48     Fn2   v104
	BYTE		N48     Fn3 
	BYTE	W02
	BYTE	PEND
	BYTE		EOT     Gn2 
	BYTE		        Gn3 
	BYTE	W22
// 018   ----------------------------------------
HeavyArmorCorps0_3_018:
	BYTE	W24
	BYTE		TIE     Ds2   v104
	BYTE		TIE     Ds3 
	BYTE	W72
	BYTE	PEND
// 019   ----------------------------------------
HeavyArmorCorps0_3_019:
	BYTE	W24
	BYTE		N48     Dn2   v104
	BYTE		N48     Dn3 
	BYTE	W02
	BYTE	PEND
	BYTE		EOT     Ds2 
	BYTE		        Ds3 
	BYTE	W44
	BYTE	W02
	BYTE		N48     Cn2 
	BYTE		N48     Cn3 
	BYTE	W24
// 020   ----------------------------------------
HeavyArmorCorps0_3_020:
	BYTE	W24
	BYTE		TIE     Gn2   v104
	BYTE		TIE     Gn3 
	BYTE	W72
	BYTE	PEND
// 021   ----------------------------------------
HeavyArmorCorps0_3_021:
	BYTE	W72
	BYTE		N24     Fn2   v104
	BYTE		N24     Fn3 
	BYTE	W02
	BYTE	PEND
	BYTE		EOT     Gn2 
	BYTE		        Gn3 
	BYTE	W22
// 022   ----------------------------------------
	BYTE		N24     Gn2 
	BYTE		N24     Gn3 
	BYTE	W24
	BYTE		TIE     Gs2   v108
	BYTE		TIE     Gs3 
	BYTE	W72
// 023   ----------------------------------------
	BYTE	W24
	BYTE		        Fn2 
	BYTE		TIE     Fn3 
	BYTE	W02
	BYTE		EOT     Gs2 
	BYTE		        Gs3 
	BYTE	W68
	BYTE	W02
// 024   ----------------------------------------
	BYTE	PATT
	 POIN2	HeavyArmorCorps0_3_016
	BYTE		EOT     Fn2 
	BYTE		        Fn3 
	BYTE	W68
	BYTE	W02
// 025   ----------------------------------------
	BYTE	PATT
	 POIN2	HeavyArmorCorps0_3_017
	BYTE		EOT     Gn2 
	BYTE		        Gn3 
	BYTE	W22
// 026   ----------------------------------------
	BYTE	PATT
	 POIN2	HeavyArmorCorps0_3_018
// 027   ----------------------------------------
	BYTE	PATT
	 POIN2	HeavyArmorCorps0_3_019
	BYTE		EOT     Ds2 
	BYTE		        Ds3 
	BYTE	W44
	BYTE	W02
	BYTE		N48     Cn2   v104
	BYTE		N48     Cn3 
	BYTE	W24
// 028   ----------------------------------------
	BYTE	PATT
	 POIN2	HeavyArmorCorps0_3_020
// 029   ----------------------------------------
	BYTE	PATT
	 POIN2	HeavyArmorCorps0_3_021
	BYTE		EOT     Gn2 
	BYTE		        Gn3 
	BYTE	W22
// 030   ----------------------------------------
	BYTE		N24     Gn2   v104
	BYTE		N24     Gn3 
	BYTE	W24
	BYTE		N48     Gs2   v108
	BYTE		N48     Gs3 
	BYTE	W48
	BYTE		N36     Cs2   v104
	BYTE		N36     Cs3 
	BYTE	W24
// 031   ----------------------------------------
	BYTE	W12
	BYTE		N14     Ds2   v108
	BYTE		N14     Ds3 
	BYTE	W12
	BYTE		N24     Fn2 
	BYTE		N24     Fn3 
	BYTE	W24
	BYTE		        Gn2 
	BYTE		N24     Gn3 
	BYTE	W24
	BYTE		        Gs2 
	BYTE		N24     Gs3 
	BYTE	W24
// 032   ----------------------------------------
	BYTE		        As2   v112
	BYTE		N24     As3 
	BYTE	W24
	BYTE		TIE     Gn2   v108
	BYTE		TIE     Gn3 
	BYTE	W72
// 033   ----------------------------------------
	BYTE	W96
// 034   ----------------------------------------
	BYTE	W96
// 035   ----------------------------------------
	BYTE	W96
// 036   ----------------------------------------
HeavyArmorCorps0_3_036:
	BYTE	W24
	BYTE		TIE     Gs2   v108
	BYTE		TIE     Cn3 
	BYTE	W02
	BYTE	PEND
	BYTE		EOT     Gn2 
	BYTE		        Gn3 
	BYTE	W68
	BYTE	W02
// 037   ----------------------------------------
HeavyArmorCorps0_3_037:
	BYTE	W24
	BYTE		TIE     Fn3   v112
	BYTE	W02
	BYTE	PEND
	BYTE		EOT     Cn3 
	BYTE	W68
	BYTE	W02
// 038   ----------------------------------------
	BYTE	W24
	BYTE		TIE     Gn2   v108
	BYTE		TIE     As2 
	BYTE	W02
	BYTE		EOT     Gs2 
	BYTE		        Fn3 
	BYTE	W68
	BYTE	W02
// 039   ----------------------------------------
	BYTE	W96
// 040   ----------------------------------------
	BYTE	W24
	BYTE		        Gn2 
	BYTE		        As2 
	BYTE		TIE     Gn2 
	BYTE		TIE     Gn3 
	BYTE	W72
// 041   ----------------------------------------
	BYTE	W96
// 042   ----------------------------------------
	BYTE	W96
// 043   ----------------------------------------
	BYTE	W96
// 044   ----------------------------------------
	BYTE	PATT
	 POIN2	HeavyArmorCorps0_3_036
	BYTE		EOT     Gn2 
	BYTE		        Gn3 
	BYTE	W68
	BYTE	W02
// 045   ----------------------------------------
	BYTE	PATT
	 POIN2	HeavyArmorCorps0_3_037
	BYTE		EOT     Cn3 
	BYTE	W68
	BYTE	W02
// 046   ----------------------------------------
	BYTE	W24
	BYTE		TIE     Gn2   v108
	BYTE		N96     As2 
	BYTE	W02
	BYTE		EOT     Gs2 
	BYTE		        Fn3 
	BYTE	W68
	BYTE	W02
// 047   ----------------------------------------
	BYTE	W96
// 048   ----------------------------------------
	BYTE	W24
	BYTE		        Gn2 
	BYTE		N96     Gs2 
	BYTE		N96     Cn3 
	BYTE	W72
// 049   ----------------------------------------
	BYTE	W24
	BYTE		TIE     As2 
	BYTE		TIE     Dn3 
	BYTE	W72
// 050   ----------------------------------------
	BYTE	W72
	BYTE		EOT     As2 
	BYTE		        Dn3 
	BYTE		N48     Cn3 
	BYTE		N48     Ds3 
	BYTE	W24
// 051   ----------------------------------------
	BYTE	W24
	BYTE		        Dn3 
	BYTE		N48     Fn3 
	BYTE	W48
	BYTE		        Ds3 
	BYTE		N48     Gn3 
	BYTE	W24
// 052   ----------------------------------------
	BYTE	W24
	BYTE		N96     Cn3 
	BYTE		TIE     Gs3 
	BYTE	W72
// 053   ----------------------------------------
	BYTE	W24
	BYTE		N96     Cs3 
	BYTE	W72
// 054   ----------------------------------------
	BYTE	W24
	BYTE		EOT     Gs3 
	BYTE		N96     Dn3 
	BYTE		N48     Gn3 
	BYTE	W48
	BYTE		N96     Cn4 
	BYTE	W24
// 055   ----------------------------------------
	BYTE	W24
	BYTE		        Fn3 
	BYTE	W48
	BYTE		N48     Bn3 
	BYTE	W24
// 056   ----------------------------------------
	BYTE	W96
// 057   ----------------------------------------
	BYTE	W96
// 058   ----------------------------------------
	BYTE	W09
	BYTE	GoTo
	 POIN2	HeavyArmorCorps0_3_B1
HeavyArmorCorps0_3_B2:
	BYTE	W36
	BYTE	W03
	BYTE	FINE

//**************** Track 4 (Midi-Chn.4) ****************//

HeavyArmorCorps0_4:
	BYTE	KEYSH   HeavyArmorCorps0_key+0
// 000   ----------------------------------------
	BYTE		VOICE   74
	BYTE		PAN     c_v-4
	BYTE		VOL     20*HeavyArmorCorps0_mvl/mxv
	BYTE		MOD     0
	BYTE	W01
	BYTE		BEND    c_v+0
	BYTE	W68
	BYTE	W03
HeavyArmorCorps0_4_B1:
	BYTE	W24
// 001   ----------------------------------------
	BYTE	W96
// 002   ----------------------------------------
	BYTE	W96
// 003   ----------------------------------------
	BYTE	W96
// 004   ----------------------------------------
	BYTE	W96
// 005   ----------------------------------------
	BYTE	W96
// 006   ----------------------------------------
	BYTE	W96
// 007   ----------------------------------------
	BYTE	W96
// 008   ----------------------------------------
	BYTE	W96
// 009   ----------------------------------------
	BYTE	W96
// 010   ----------------------------------------
	BYTE	W96
// 011   ----------------------------------------
	BYTE	W72
	BYTE		N48     Gn2   v104
	BYTE	W24
// 012   ----------------------------------------
	BYTE	W24
	BYTE		TIE     Fn2   v108
	BYTE		N48     Cn3 
	BYTE	W48
	BYTE		TIE     As2   v104
	BYTE	W24
// 013   ----------------------------------------
	BYTE	W72
	BYTE		N48     Cn3   v108
	BYTE	W02
	BYTE		EOT     As2 
	BYTE	W22
// 014   ----------------------------------------
	BYTE		N24     Gn2 
	BYTE	W02
	BYTE		EOT     Fn2 
	BYTE	W22
	BYTE		TIE     Gs2 
	BYTE		N48     Ds3 
	BYTE	W48
	BYTE		TIE     Cs3 
	BYTE	W24
// 015   ----------------------------------------
	BYTE	W72
	BYTE		N48     Gs3 
	BYTE	W02
	BYTE		EOT     Cs3 
	BYTE	W22
// 016   ----------------------------------------
HeavyArmorCorps0_4_016:
	BYTE	W24
	BYTE		TIE     Gn2   v108
	BYTE		TIE     Gn3 
	BYTE	W02
	BYTE	PEND
	BYTE		EOT     Gs2 
	BYTE	W68
	BYTE	W02
// 017   ----------------------------------------
HeavyArmorCorps0_4_017:
	BYTE	W72
	BYTE		N48     Fn2   v104
	BYTE		N48     Fn3 
	BYTE	W02
	BYTE	PEND
	BYTE		EOT     Gn2 
	BYTE		        Gn3 
	BYTE	W22
// 018   ----------------------------------------
HeavyArmorCorps0_4_018:
	BYTE	W24
	BYTE		TIE     Ds2   v104
	BYTE		TIE     Ds3 
	BYTE	W72
	BYTE	PEND
// 019   ----------------------------------------
HeavyArmorCorps0_4_019:
	BYTE	W24
	BYTE		N48     Dn2   v104
	BYTE		N48     Dn3 
	BYTE	W02
	BYTE	PEND
	BYTE		EOT     Ds2 
	BYTE		        Ds3 
	BYTE	W44
	BYTE	W02
	BYTE		N48     Cn2 
	BYTE		N48     Cn3 
	BYTE	W24
// 020   ----------------------------------------
HeavyArmorCorps0_4_020:
	BYTE	W24
	BYTE		TIE     Gn2   v104
	BYTE		TIE     Gn3 
	BYTE	W72
	BYTE	PEND
// 021   ----------------------------------------
HeavyArmorCorps0_4_021:
	BYTE	W72
	BYTE		N24     Fn2   v104
	BYTE		N24     Fn3 
	BYTE	W02
	BYTE	PEND
	BYTE		EOT     Gn2 
	BYTE		        Gn3 
	BYTE	W22
// 022   ----------------------------------------
	BYTE		N24     Gn2 
	BYTE		N24     Gn3 
	BYTE	W24
	BYTE		TIE     Gs2   v108
	BYTE		TIE     Gs3 
	BYTE	W72
// 023   ----------------------------------------
	BYTE	W24
	BYTE		        Fn2 
	BYTE		TIE     Fn3 
	BYTE	W02
	BYTE		EOT     Gs2 
	BYTE		        Gs3 
	BYTE	W68
	BYTE	W02
// 024   ----------------------------------------
	BYTE	PATT
	 POIN2	HeavyArmorCorps0_4_016
	BYTE		EOT     Fn2 
	BYTE		        Fn3 
	BYTE	W68
	BYTE	W02
// 025   ----------------------------------------
	BYTE	PATT
	 POIN2	HeavyArmorCorps0_4_017
	BYTE		EOT     Gn2 
	BYTE		        Gn3 
	BYTE	W22
// 026   ----------------------------------------
	BYTE	PATT
	 POIN2	HeavyArmorCorps0_4_018
// 027   ----------------------------------------
	BYTE	PATT
	 POIN2	HeavyArmorCorps0_4_019
	BYTE		EOT     Ds2 
	BYTE		        Ds3 
	BYTE	W44
	BYTE	W02
	BYTE		N48     Cn2   v104
	BYTE		N48     Cn3 
	BYTE	W24
// 028   ----------------------------------------
	BYTE	PATT
	 POIN2	HeavyArmorCorps0_4_020
// 029   ----------------------------------------
	BYTE	PATT
	 POIN2	HeavyArmorCorps0_4_021
	BYTE		EOT     Gn2 
	BYTE		        Gn3 
	BYTE	W22
// 030   ----------------------------------------
	BYTE		N24     Gn2   v104
	BYTE		N24     Gn3 
	BYTE	W24
	BYTE		N48     Gs2   v108
	BYTE		N48     Gs3 
	BYTE	W48
	BYTE		N36     Cs2   v104
	BYTE		N36     Cs3 
	BYTE	W24
// 031   ----------------------------------------
	BYTE	W12
	BYTE		N14     Ds2   v108
	BYTE		N14     Ds3 
	BYTE	W12
	BYTE		N24     Fn2 
	BYTE		N24     Fn3 
	BYTE	W24
	BYTE		        Gn2 
	BYTE		N24     Gn3 
	BYTE	W24
	BYTE		        Gs2 
	BYTE		N24     Gs3 
	BYTE	W24
// 032   ----------------------------------------
	BYTE		        As2   v112
	BYTE		N24     As3 
	BYTE	W24
	BYTE		TIE     Gn2   v108
	BYTE		TIE     Gn3 
	BYTE	W72
// 033   ----------------------------------------
	BYTE	W96
// 034   ----------------------------------------
	BYTE	W96
// 035   ----------------------------------------
	BYTE	W96
// 036   ----------------------------------------
HeavyArmorCorps0_4_036:
	BYTE	W24
	BYTE		TIE     Gs2   v108
	BYTE		TIE     Cn3 
	BYTE	W02
	BYTE	PEND
	BYTE		EOT     Gn2 
	BYTE		        Gn3 
	BYTE	W68
	BYTE	W02
// 037   ----------------------------------------
HeavyArmorCorps0_4_037:
	BYTE	W24
	BYTE		TIE     Fn3   v112
	BYTE	W02
	BYTE	PEND
	BYTE		EOT     Cn3 
	BYTE	W68
	BYTE	W02
// 038   ----------------------------------------
	BYTE	W24
	BYTE		TIE     Gn2   v108
	BYTE		TIE     As2 
	BYTE	W02
	BYTE		EOT     Gs2 
	BYTE		        Fn3 
	BYTE	W68
	BYTE	W02
// 039   ----------------------------------------
	BYTE	W96
// 040   ----------------------------------------
	BYTE	W24
	BYTE		        Gn2 
	BYTE		        As2 
	BYTE		TIE     Gn2 
	BYTE		TIE     Gn3 
	BYTE	W72
// 041   ----------------------------------------
	BYTE	W96
// 042   ----------------------------------------
	BYTE	W96
// 043   ----------------------------------------
	BYTE	W96
// 044   ----------------------------------------
	BYTE	PATT
	 POIN2	HeavyArmorCorps0_4_036
	BYTE		EOT     Gn2 
	BYTE		        Gn3 
	BYTE	W68
	BYTE	W02
// 045   ----------------------------------------
	BYTE	PATT
	 POIN2	HeavyArmorCorps0_4_037
	BYTE		EOT     Cn3 
	BYTE	W68
	BYTE	W02
// 046   ----------------------------------------
	BYTE	W24
	BYTE		TIE     Gn2   v108
	BYTE		N96     As2 
	BYTE	W02
	BYTE		EOT     Gs2 
	BYTE		        Fn3 
	BYTE	W68
	BYTE	W02
// 047   ----------------------------------------
	BYTE	W96
// 048   ----------------------------------------
	BYTE	W24
	BYTE		        Gn2 
	BYTE		N96     Gs2 
	BYTE		N96     Cn3 
	BYTE	W72
// 049   ----------------------------------------
	BYTE	W24
	BYTE		TIE     As2 
	BYTE		TIE     Dn3 
	BYTE	W72
// 050   ----------------------------------------
	BYTE	W72
	BYTE		EOT     As2 
	BYTE		        Dn3 
	BYTE		N48     Cn3 
	BYTE		N48     Ds3 
	BYTE	W24
// 051   ----------------------------------------
	BYTE	W24
	BYTE		        Dn3 
	BYTE		N48     Fn3 
	BYTE	W48
	BYTE		        Ds3 
	BYTE		N48     Gn3 
	BYTE	W24
// 052   ----------------------------------------
	BYTE	W24
	BYTE		N96     Cn3 
	BYTE		TIE     Gs3 
	BYTE	W72
// 053   ----------------------------------------
	BYTE	W24
	BYTE		N96     Cs3 
	BYTE	W72
// 054   ----------------------------------------
	BYTE	W24
	BYTE		EOT     Gs3 
	BYTE		N96     Dn3 
	BYTE		N48     Gn3 
	BYTE	W48
	BYTE		N96     Cn4 
	BYTE	W24
// 055   ----------------------------------------
	BYTE	W24
	BYTE		        Fn3 
	BYTE	W48
	BYTE		N48     Bn3 
	BYTE	W24
// 056   ----------------------------------------
	BYTE	W96
// 057   ----------------------------------------
	BYTE	W96
// 058   ----------------------------------------
	BYTE	W09
	BYTE	GoTo
	 POIN2	HeavyArmorCorps0_4_B1
HeavyArmorCorps0_4_B2:
	BYTE	W36
	BYTE	W03
	BYTE	FINE

//**************** Track 5 (Midi-Chn.5) ****************//

HeavyArmorCorps0_5:
	BYTE	KEYSH   HeavyArmorCorps0_key+0
// 000   ----------------------------------------
	BYTE		VOICE   48
	BYTE		PAN     c_v-4
	BYTE	W01
	BYTE		MOD     0
	BYTE		VOL     29*HeavyArmorCorps0_mvl/mxv
	BYTE		BEND    c_v+0
	BYTE	W68
	BYTE	W03
HeavyArmorCorps0_5_B1:
	BYTE	W24
// 001   ----------------------------------------
	BYTE	W96
// 002   ----------------------------------------
HeavyArmorCorps0_5_002:
	BYTE	W24
	BYTE		N03     Ds2   v116
	BYTE	W06
	BYTE		        Ds2   v112
	BYTE	W06
	BYTE		        Ds2   v116
	BYTE	W24
	BYTE		        Ds2   v112
	BYTE	W06
	BYTE		N03   
	BYTE	W06
	BYTE		        Ds2   v116
	BYTE	W24
	BYTE	PEND
// 003   ----------------------------------------
HeavyArmorCorps0_5_003:
	BYTE		N03     Ds2   v112
	BYTE	W06
	BYTE		N03   
	BYTE	W06
	BYTE		        Ds2   v116
	BYTE	W06
	BYTE		N03   
	BYTE	W06
	BYTE		N03   
	BYTE	W06
	BYTE		        Ds2   v112
	BYTE	W06
	BYTE		        Ds2   v116
	BYTE	W24
	BYTE		        Ds2   v112
	BYTE	W06
	BYTE		N03   
	BYTE	W06
	BYTE		        Ds2   v116
	BYTE	W24
	BYTE	PEND
// 004   ----------------------------------------
	BYTE		        Ds2   v112
	BYTE	W06
	BYTE		N03   
	BYTE	W06
	BYTE		        Ds2   v116
	BYTE	W06
	BYTE		N03   
	BYTE	W06
	BYTE		        Cs2 
	BYTE		N03     Fn2 
	BYTE	W06
	BYTE		        Cs2   v112
	BYTE		N03     Fn2 
	BYTE	W06
	BYTE		        Cs2   v116
	BYTE		N03     Fn2 
	BYTE	W24
	BYTE		        Cs2   v112
	BYTE		N03     Fn2 
	BYTE	W06
	BYTE		        Cs2 
	BYTE		N03     Fn2 
	BYTE	W06
	BYTE		        Cs2   v116
	BYTE		N03     Fn2 
	BYTE	W24
// 005   ----------------------------------------
	BYTE		        Cs2   v112
	BYTE		N03     Fn2 
	BYTE	W06
	BYTE		        Cs2 
	BYTE		N03     Fn2 
	BYTE	W06
	BYTE		        Cs2   v116
	BYTE		N03     Fn2 
	BYTE	W06
	BYTE		        Cs2 
	BYTE		N03     Fn2 
	BYTE	W06
	BYTE		        Cs2 
	BYTE		N03     Fn2 
	BYTE	W06
	BYTE		        Cs2   v112
	BYTE		N03     Fn2 
	BYTE	W06
	BYTE		        Cs2   v116
	BYTE		N03     Fn2 
	BYTE	W24
	BYTE		        Cs2   v112
	BYTE		N03     Fn2 
	BYTE	W06
	BYTE		        Cs2 
	BYTE		N03     Fn2 
	BYTE	W06
	BYTE		        Cs2   v116
	BYTE		N03     Fn2 
	BYTE	W24
// 006   ----------------------------------------
	BYTE		        Cs2   v112
	BYTE		N03     Fn2 
	BYTE	W06
	BYTE		        Cs2 
	BYTE		N03     Fn2 
	BYTE	W06
	BYTE		        Cs2   v116
	BYTE		N03     Fn2 
	BYTE	W06
	BYTE		        Cs2 
	BYTE		N03     Fn2 
	BYTE	W06
	BYTE		        Cs2 
	BYTE		N03     Gs2 
	BYTE	W06
	BYTE		        Cs2   v112
	BYTE		N03     Gs2 
	BYTE	W06
	BYTE		        Cs2   v116
	BYTE		N03     Gs2 
	BYTE	W24
	BYTE		        Cs2   v112
	BYTE		N03     Gs2 
	BYTE	W06
	BYTE		        Cs2 
	BYTE		N03     Gs2 
	BYTE	W06
	BYTE		        Cs2   v116
	BYTE		N03     Gs2 
	BYTE	W24
// 007   ----------------------------------------
	BYTE		        Cs2   v112
	BYTE		N03     Gs2 
	BYTE	W06
	BYTE		        Cs2 
	BYTE		N03     Gs2 
	BYTE	W06
	BYTE		        Cs2   v116
	BYTE		N03     Gs2 
	BYTE	W06
	BYTE		        Cs2 
	BYTE		N03     Gs2 
	BYTE	W06
	BYTE		        Fn2 
	BYTE		N03     Cs3 
	BYTE	W06
	BYTE		        Fn2   v112
	BYTE		N03     Cs3 
	BYTE	W06
	BYTE		        Fn2   v116
	BYTE		N03     Cs3 
	BYTE	W24
	BYTE		        Fn2   v112
	BYTE		N03     Cs3 
	BYTE	W06
	BYTE		        Fn2 
	BYTE		N03     Cs3 
	BYTE	W06
	BYTE		        Fn2   v116
	BYTE		N03     Cs3 
	BYTE	W24
// 008   ----------------------------------------
	BYTE		        Fn2   v112
	BYTE		N03     Cs3 
	BYTE	W06
	BYTE		        Fn2 
	BYTE		N03     Cs3 
	BYTE	W06
	BYTE		        Fn2   v116
	BYTE		N03     Cs3 
	BYTE	W06
	BYTE		        Fn2 
	BYTE		N03     Cs3 
	BYTE	W78
// 009   ----------------------------------------
	BYTE	W96
// 010   ----------------------------------------
	BYTE	PATT
	 POIN2	HeavyArmorCorps0_5_002
// 011   ----------------------------------------
	BYTE	PATT
	 POIN2	HeavyArmorCorps0_5_003
// 012   ----------------------------------------
	BYTE		N03     Ds2   v112
	BYTE	W06
	BYTE		N03   
	BYTE	W06
	BYTE		        Ds2   v116
	BYTE	W06
	BYTE		N03   
	BYTE	W78
// 013   ----------------------------------------
	BYTE	W96
// 014   ----------------------------------------
	BYTE	W96
// 015   ----------------------------------------
	BYTE	W96
// 016   ----------------------------------------
	BYTE	W96
// 017   ----------------------------------------
	BYTE	W96
// 018   ----------------------------------------
	BYTE	W96
// 019   ----------------------------------------
	BYTE	W96
// 020   ----------------------------------------
	BYTE	W96
// 021   ----------------------------------------
	BYTE	W96
// 022   ----------------------------------------
	BYTE	W96
// 023   ----------------------------------------
	BYTE	W96
// 024   ----------------------------------------
	BYTE	W96
// 025   ----------------------------------------
	BYTE	W96
// 026   ----------------------------------------
	BYTE	W96
// 027   ----------------------------------------
	BYTE	W96
// 028   ----------------------------------------
	BYTE	W96
// 029   ----------------------------------------
	BYTE	W96
// 030   ----------------------------------------
	BYTE	W96
// 031   ----------------------------------------
	BYTE	W96
// 032   ----------------------------------------
	BYTE	W96
// 033   ----------------------------------------
	BYTE	W96
// 034   ----------------------------------------
	BYTE	W96
// 035   ----------------------------------------
	BYTE	W96
// 036   ----------------------------------------
	BYTE	W96
// 037   ----------------------------------------
	BYTE	W96
// 038   ----------------------------------------
	BYTE	W96
// 039   ----------------------------------------
	BYTE	W96
// 040   ----------------------------------------
	BYTE	W96
// 041   ----------------------------------------
	BYTE	W96
// 042   ----------------------------------------
	BYTE	W96
// 043   ----------------------------------------
	BYTE	W96
// 044   ----------------------------------------
	BYTE	W96
// 045   ----------------------------------------
	BYTE	W96
// 046   ----------------------------------------
	BYTE	W96
// 047   ----------------------------------------
	BYTE	W96
// 048   ----------------------------------------
	BYTE	W96
// 049   ----------------------------------------
	BYTE	W96
// 050   ----------------------------------------
	BYTE	W96
// 051   ----------------------------------------
	BYTE	W96
// 052   ----------------------------------------
	BYTE	W96
// 053   ----------------------------------------
	BYTE	W96
// 054   ----------------------------------------
	BYTE	W96
// 055   ----------------------------------------
	BYTE	W96
// 056   ----------------------------------------
	BYTE	W96
// 057   ----------------------------------------
	BYTE	W96
// 058   ----------------------------------------
	BYTE	W09
	BYTE	GoTo
	 POIN2	HeavyArmorCorps0_5_B1
HeavyArmorCorps0_5_B2:
	BYTE	W36
	BYTE	W03
	BYTE	FINE

//**************** Track 6 (Midi-Chn.6) ****************//

HeavyArmorCorps0_6:
	BYTE	KEYSH   HeavyArmorCorps0_key+0
// 000   ----------------------------------------
	BYTE		VOICE   48
	BYTE		PAN     c_v-7
	BYTE	W01
	BYTE		MOD     0
	BYTE		VOL     31*HeavyArmorCorps0_mvl/mxv
	BYTE		BEND    c_v+0
	BYTE	W23
	BYTE		N03     Cn2   v116
	BYTE	W06
	BYTE		        Cn2   v112
	BYTE	W06
	BYTE		        Cn2   v116
	BYTE	W24
	BYTE		        Cn2   v112
	BYTE	W06
	BYTE		N03   
	BYTE	W06
HeavyArmorCorps0_6_B1:
	BYTE		N03     Cn2   v116
	BYTE	W24
// 001   ----------------------------------------
HeavyArmorCorps0_6_001:
	BYTE		N03     Cn2   v112
	BYTE	W06
	BYTE		N03   
	BYTE	W06
	BYTE		        Cn2   v116
	BYTE	W06
	BYTE		N03   
	BYTE	W06
	BYTE		N03   
	BYTE	W06
	BYTE		        Cn2   v112
	BYTE	W06
	BYTE		        Cn2   v116
	BYTE	W24
	BYTE		        Cn2   v112
	BYTE	W06
	BYTE		N03   
	BYTE	W06
	BYTE		        Cn2   v116
	BYTE	W24
	BYTE	PEND
// 002   ----------------------------------------
	BYTE	PATT
	 POIN2	HeavyArmorCorps0_6_001
// 003   ----------------------------------------
	BYTE	PATT
	 POIN2	HeavyArmorCorps0_6_001
// 004   ----------------------------------------
	BYTE	PATT
	 POIN2	HeavyArmorCorps0_6_001
// 005   ----------------------------------------
	BYTE	PATT
	 POIN2	HeavyArmorCorps0_6_001
// 006   ----------------------------------------
	BYTE		N03     Cn2   v112
	BYTE	W06
	BYTE		N03   
	BYTE	W06
	BYTE		        Cn2   v116
	BYTE	W06
	BYTE		N03   
	BYTE	W06
	BYTE		N03   
	BYTE		N03     Fn2 
	BYTE	W06
	BYTE		        Cn2   v112
	BYTE		N03     Fn2 
	BYTE	W06
	BYTE		        Cn2   v116
	BYTE		N03     Fn2 
	BYTE	W24
	BYTE		        Cn2   v112
	BYTE		N03     Fn2 
	BYTE	W06
	BYTE		        Cn2 
	BYTE		N03     Fn2 
	BYTE	W06
	BYTE		        Cn2   v116
	BYTE		N03     Fn2 
	BYTE	W24
// 007   ----------------------------------------
	BYTE		        Cn2   v112
	BYTE		N03     Fn2 
	BYTE	W06
	BYTE		        Cn2 
	BYTE		N03     Fn2 
	BYTE	W06
	BYTE		        Cn2   v116
	BYTE		N03     Fn2 
	BYTE	W06
	BYTE		        Cn2 
	BYTE		N03     Fn2 
	BYTE	W06
	BYTE		        Cs2 
	BYTE		N03     Gs2 
	BYTE	W06
	BYTE		        Cs2   v112
	BYTE		N03     Gs2 
	BYTE	W06
	BYTE		        Cs2   v116
	BYTE		N03     Gs2 
	BYTE	W24
	BYTE		        Cs2   v112
	BYTE		N03     Gs2 
	BYTE	W06
	BYTE		        Cs2 
	BYTE		N03     Gs2 
	BYTE	W06
	BYTE		        Cs2   v116
	BYTE		N03     Gs2 
	BYTE	W24
// 008   ----------------------------------------
	BYTE		        Cs2   v112
	BYTE		N03     Gs2 
	BYTE	W06
	BYTE		        Cs2 
	BYTE		N03     Gs2 
	BYTE	W06
	BYTE		        Cs2   v116
	BYTE		N03     Gs2 
	BYTE	W06
	BYTE		        Cs2 
	BYTE		N03     Gs2 
	BYTE	W06
	BYTE		        Cn2 
	BYTE	W06
	BYTE		        Cn2   v112
	BYTE	W06
	BYTE		        Cn2   v116
	BYTE	W24
	BYTE		        Cn2   v112
	BYTE	W06
	BYTE		N03   
	BYTE	W06
	BYTE		        Cn2   v116
	BYTE	W24
// 009   ----------------------------------------
	BYTE	PATT
	 POIN2	HeavyArmorCorps0_6_001
// 010   ----------------------------------------
	BYTE	PATT
	 POIN2	HeavyArmorCorps0_6_001
// 011   ----------------------------------------
	BYTE	PATT
	 POIN2	HeavyArmorCorps0_6_001
// 012   ----------------------------------------
HeavyArmorCorps0_6_012:
	BYTE		N03     Cn2   v112
	BYTE	W06
	BYTE		N03   
	BYTE	W06
	BYTE		        Cn2   v116
	BYTE	W06
	BYTE		N03   
	BYTE	W06
	BYTE		        Cs2 
	BYTE	W06
	BYTE		        Cs2   v112
	BYTE	W06
	BYTE		        Cs2   v116
	BYTE	W24
	BYTE		        Cs2   v112
	BYTE	W06
	BYTE		N03   
	BYTE	W06
	BYTE		        Cs2   v116
	BYTE	W24
	BYTE	PEND
// 013   ----------------------------------------
HeavyArmorCorps0_6_013:
	BYTE		N03     Cs2   v112
	BYTE	W06
	BYTE		N03   
	BYTE	W06
	BYTE		        Cs2   v116
	BYTE	W06
	BYTE		N03   
	BYTE	W06
	BYTE		        Cn2 
	BYTE	W06
	BYTE		        Cn2   v112
	BYTE	W06
	BYTE		        Cn2   v116
	BYTE	W24
	BYTE		        Cn2   v112
	BYTE	W06
	BYTE		N03   
	BYTE	W06
	BYTE		        Cn2   v116
	BYTE	W24
	BYTE	PEND
// 014   ----------------------------------------
	BYTE	PATT
	 POIN2	HeavyArmorCorps0_6_012
// 015   ----------------------------------------
HeavyArmorCorps0_6_015:
	BYTE		N03     Cs2   v112
	BYTE	W06
	BYTE		N03   
	BYTE	W06
	BYTE		        Cs2   v116
	BYTE	W06
	BYTE		N03   
	BYTE	W06
	BYTE		N03   
	BYTE	W06
	BYTE		        Cs2   v112
	BYTE	W06
	BYTE		        Cs2   v116
	BYTE	W24
	BYTE		        Cs2   v112
	BYTE	W06
	BYTE		N03   
	BYTE	W06
	BYTE		        Cs2   v116
	BYTE	W24
	BYTE	PEND
// 016   ----------------------------------------
	BYTE	PATT
	 POIN2	HeavyArmorCorps0_6_013
// 017   ----------------------------------------
	BYTE	PATT
	 POIN2	HeavyArmorCorps0_6_001
// 018   ----------------------------------------
	BYTE	PATT
	 POIN2	HeavyArmorCorps0_6_001
// 019   ----------------------------------------
	BYTE	PATT
	 POIN2	HeavyArmorCorps0_6_001
// 020   ----------------------------------------
	BYTE	PATT
	 POIN2	HeavyArmorCorps0_6_012
// 021   ----------------------------------------
	BYTE	PATT
	 POIN2	HeavyArmorCorps0_6_015
// 022   ----------------------------------------
	BYTE	PATT
	 POIN2	HeavyArmorCorps0_6_015
// 023   ----------------------------------------
	BYTE	PATT
	 POIN2	HeavyArmorCorps0_6_015
// 024   ----------------------------------------
	BYTE	PATT
	 POIN2	HeavyArmorCorps0_6_013
// 025   ----------------------------------------
	BYTE	PATT
	 POIN2	HeavyArmorCorps0_6_001
// 026   ----------------------------------------
	BYTE	PATT
	 POIN2	HeavyArmorCorps0_6_001
// 027   ----------------------------------------
	BYTE	PATT
	 POIN2	HeavyArmorCorps0_6_001
// 028   ----------------------------------------
	BYTE	PATT
	 POIN2	HeavyArmorCorps0_6_012
// 029   ----------------------------------------
	BYTE	PATT
	 POIN2	HeavyArmorCorps0_6_015
// 030   ----------------------------------------
	BYTE	PATT
	 POIN2	HeavyArmorCorps0_6_015
// 031   ----------------------------------------
	BYTE	PATT
	 POIN2	HeavyArmorCorps0_6_015
// 032   ----------------------------------------
	BYTE	PATT
	 POIN2	HeavyArmorCorps0_6_013
// 033   ----------------------------------------
	BYTE	PATT
	 POIN2	HeavyArmorCorps0_6_001
// 034   ----------------------------------------
	BYTE	PATT
	 POIN2	HeavyArmorCorps0_6_001
// 035   ----------------------------------------
HeavyArmorCorps0_6_035:
	BYTE		N03     Cn2   v112
	BYTE	W06
	BYTE		N03   
	BYTE	W06
	BYTE		        Cn2   v116
	BYTE	W06
	BYTE		N03   
	BYTE	W06
	BYTE		        As1 
	BYTE	W06
	BYTE		        As1   v112
	BYTE	W06
	BYTE		        As1   v116
	BYTE	W24
	BYTE		        As1   v112
	BYTE	W06
	BYTE		N03   
	BYTE	W06
	BYTE		        As1   v116
	BYTE	W24
	BYTE	PEND
// 036   ----------------------------------------
HeavyArmorCorps0_6_036:
	BYTE		N03     As1   v112
	BYTE	W06
	BYTE		N03   
	BYTE	W06
	BYTE		        As1   v116
	BYTE	W06
	BYTE		N03   
	BYTE	W06
	BYTE		        Gs1 
	BYTE	W06
	BYTE		        Gs1   v112
	BYTE	W06
	BYTE		        Gs1   v116
	BYTE	W24
	BYTE		        Gs1   v112
	BYTE	W06
	BYTE		N03   
	BYTE	W06
	BYTE		        Gs1   v116
	BYTE	W24
	BYTE	PEND
// 037   ----------------------------------------
HeavyArmorCorps0_6_037:
	BYTE		N03     Gs1   v112
	BYTE	W06
	BYTE		N03   
	BYTE	W06
	BYTE		        Gs1   v116
	BYTE	W06
	BYTE		N03   
	BYTE	W06
	BYTE		        Fn1 
	BYTE	W06
	BYTE		        Fn1   v112
	BYTE	W06
	BYTE		        Fn1   v116
	BYTE	W24
	BYTE		        Fn1   v112
	BYTE	W06
	BYTE		N03   
	BYTE	W06
	BYTE		        Fn1   v116
	BYTE	W24
	BYTE	PEND
// 038   ----------------------------------------
HeavyArmorCorps0_6_038:
	BYTE		N03     Fn1   v112
	BYTE	W06
	BYTE		N03   
	BYTE	W06
	BYTE		        Fn1   v116
	BYTE	W06
	BYTE		N03   
	BYTE	W06
	BYTE		        Cn2 
	BYTE	W06
	BYTE		        Cn2   v112
	BYTE	W06
	BYTE		        Cn2   v116
	BYTE	W24
	BYTE		        Cn2   v112
	BYTE	W06
	BYTE		N03   
	BYTE	W06
	BYTE		        Cn2   v116
	BYTE	W24
	BYTE	PEND
// 039   ----------------------------------------
	BYTE		        Cn2   v112
	BYTE	W06
	BYTE		N03   
	BYTE	W06
	BYTE		        Cn2   v116
	BYTE	W06
	BYTE		N03   
	BYTE	W06
	BYTE		        Gn1 
	BYTE	W06
	BYTE		        Gn1   v112
	BYTE	W06
	BYTE		        Gn1   v116
	BYTE	W24
	BYTE		        Gn1   v112
	BYTE	W06
	BYTE		N03   
	BYTE	W06
	BYTE		        Gn1   v116
	BYTE	W24
// 040   ----------------------------------------
HeavyArmorCorps0_6_040:
	BYTE		N03     Gn1   v112
	BYTE	W06
	BYTE		N03   
	BYTE	W06
	BYTE		        Gn1   v116
	BYTE	W06
	BYTE		N03   
	BYTE	W06
	BYTE		        Cn2 
	BYTE	W06
	BYTE		        Cn2   v112
	BYTE	W06
	BYTE		        Cn2   v116
	BYTE	W24
	BYTE		        Cn2   v112
	BYTE	W06
	BYTE		N03   
	BYTE	W06
	BYTE		        Cn2   v116
	BYTE	W24
	BYTE	PEND
// 041   ----------------------------------------
	BYTE	PATT
	 POIN2	HeavyArmorCorps0_6_001
// 042   ----------------------------------------
	BYTE	PATT
	 POIN2	HeavyArmorCorps0_6_001
// 043   ----------------------------------------
	BYTE	PATT
	 POIN2	HeavyArmorCorps0_6_035
// 044   ----------------------------------------
	BYTE	PATT
	 POIN2	HeavyArmorCorps0_6_036
// 045   ----------------------------------------
	BYTE	PATT
	 POIN2	HeavyArmorCorps0_6_037
// 046   ----------------------------------------
	BYTE	PATT
	 POIN2	HeavyArmorCorps0_6_038
// 047   ----------------------------------------
	BYTE	PATT
	 POIN2	HeavyArmorCorps0_6_035
// 048   ----------------------------------------
	BYTE	PATT
	 POIN2	HeavyArmorCorps0_6_036
// 049   ----------------------------------------
	BYTE		N03     Gs1   v112
	BYTE	W06
	BYTE		N03   
	BYTE	W06
	BYTE		        Gs1   v116
	BYTE	W06
	BYTE		N03   
	BYTE	W06
	BYTE		        As1 
	BYTE	W06
	BYTE		        As1   v112
	BYTE	W06
	BYTE		        As1   v116
	BYTE	W24
	BYTE		        As1   v112
	BYTE	W06
	BYTE		N03   
	BYTE	W06
	BYTE		        As1   v116
	BYTE	W24
// 050   ----------------------------------------
	BYTE		        As1   v112
	BYTE	W06
	BYTE		N03   
	BYTE	W06
	BYTE		        As1   v116
	BYTE	W06
	BYTE		N03   
	BYTE	W06
	BYTE		        Cn2 
	BYTE	W06
	BYTE		        Cn2   v112
	BYTE	W06
	BYTE		        Cn2   v116
	BYTE	W24
	BYTE		        Cn2   v112
	BYTE	W06
	BYTE		N03   
	BYTE	W06
	BYTE		        Cn2   v116
	BYTE	W24
// 051   ----------------------------------------
	BYTE		        Cn2   v112
	BYTE	W06
	BYTE		N03   
	BYTE	W06
	BYTE		        Cn2   v116
	BYTE	W06
	BYTE		N03   
	BYTE	W06
	BYTE		        Ds1 
	BYTE	W06
	BYTE		        Ds1   v112
	BYTE	W06
	BYTE		        Ds1   v116
	BYTE	W24
	BYTE		        Ds1   v112
	BYTE	W06
	BYTE		N03   
	BYTE	W06
	BYTE		        Ds1   v116
	BYTE	W24
// 052   ----------------------------------------
	BYTE		        Ds1   v112
	BYTE	W06
	BYTE		N03   
	BYTE	W06
	BYTE		        Ds1   v116
	BYTE	W06
	BYTE		N03   
	BYTE	W06
	BYTE		        Gs1 
	BYTE	W06
	BYTE		        Gs1   v112
	BYTE	W06
	BYTE		        Gs1   v116
	BYTE	W24
	BYTE		        Gs1   v112
	BYTE	W06
	BYTE		N03   
	BYTE	W06
	BYTE		        Gs1   v116
	BYTE	W24
// 053   ----------------------------------------
	BYTE		        Gs1   v112
	BYTE	W06
	BYTE		N03   
	BYTE	W06
	BYTE		        Gs1   v116
	BYTE	W06
	BYTE		N03   
	BYTE	W06
	BYTE		        Cs2 
	BYTE	W06
	BYTE		        Cs2   v112
	BYTE	W06
	BYTE		        Cs2   v116
	BYTE	W24
	BYTE		        Cs2   v112
	BYTE	W06
	BYTE		N03   
	BYTE	W06
	BYTE		        Cs2   v116
	BYTE	W24
// 054   ----------------------------------------
	BYTE		        Cs2   v112
	BYTE	W06
	BYTE		N03   
	BYTE	W06
	BYTE		        Cs2   v116
	BYTE	W06
	BYTE		N03   
	BYTE	W06
	BYTE		        Dn2 
	BYTE	W06
	BYTE		        Dn2   v112
	BYTE	W06
	BYTE		        Dn2   v116
	BYTE	W24
	BYTE		        Dn2   v112
	BYTE	W06
	BYTE		N03   
	BYTE	W06
	BYTE		        Dn2   v116
	BYTE	W24
// 055   ----------------------------------------
	BYTE		        Dn2   v112
	BYTE	W06
	BYTE		N03   
	BYTE	W06
	BYTE		        Dn2   v116
	BYTE	W06
	BYTE		N03   
	BYTE	W06
	BYTE		        Gn1 
	BYTE	W06
	BYTE		        Gn1   v112
	BYTE	W06
	BYTE		        Gn1   v116
	BYTE	W24
	BYTE		        Gn1   v112
	BYTE	W06
	BYTE		N03   
	BYTE	W06
	BYTE		        Gn1   v116
	BYTE	W24
// 056   ----------------------------------------
	BYTE	PATT
	 POIN2	HeavyArmorCorps0_6_040
// 057   ----------------------------------------
	BYTE	PATT
	 POIN2	HeavyArmorCorps0_6_001
// 058   ----------------------------------------
	BYTE		N03     Cn2   v112
	BYTE	W06
	BYTE		N03   
	BYTE	W03
	BYTE	GoTo
	 POIN2	HeavyArmorCorps0_6_B1
HeavyArmorCorps0_6_B2:
	BYTE	W03
	BYTE		N03     Cn2   v116
	BYTE	W06
	BYTE		N03   
	BYTE	W30
	BYTE	FINE

//**************** Track 7 (Midi-Chn.7) ****************//

HeavyArmorCorps0_7:
	BYTE	KEYSH   HeavyArmorCorps0_key+0
// 000   ----------------------------------------
	BYTE		VOICE   49
	BYTE		PAN     c_v+8
	BYTE	W01
	BYTE		MOD     0
	BYTE		VOL     31*HeavyArmorCorps0_mvl/mxv
	BYTE	W01
	BYTE		BEND    c_v+0
	BYTE	W22
	BYTE		N06     Cn1   v120
	BYTE	W36
	BYTE		        Cn1   v116
	BYTE	W12
HeavyArmorCorps0_7_B1:
	BYTE	W24
// 001   ----------------------------------------
HeavyArmorCorps0_7_001:
	BYTE		N06     Cn1   v116
	BYTE	W24
	BYTE		        Cn1   v120
	BYTE	W36
	BYTE		        Cn1   v116
	BYTE	W36
	BYTE	PEND
// 002   ----------------------------------------
	BYTE	PATT
	 POIN2	HeavyArmorCorps0_7_001
// 003   ----------------------------------------
	BYTE	PATT
	 POIN2	HeavyArmorCorps0_7_001
// 004   ----------------------------------------
	BYTE	PATT
	 POIN2	HeavyArmorCorps0_7_001
// 005   ----------------------------------------
	BYTE	PATT
	 POIN2	HeavyArmorCorps0_7_001
// 006   ----------------------------------------
	BYTE	PATT
	 POIN2	HeavyArmorCorps0_7_001
// 007   ----------------------------------------
	BYTE	PATT
	 POIN2	HeavyArmorCorps0_7_001
// 008   ----------------------------------------
	BYTE	PATT
	 POIN2	HeavyArmorCorps0_7_001
// 009   ----------------------------------------
	BYTE	PATT
	 POIN2	HeavyArmorCorps0_7_001
// 010   ----------------------------------------
	BYTE	PATT
	 POIN2	HeavyArmorCorps0_7_001
// 011   ----------------------------------------
	BYTE	PATT
	 POIN2	HeavyArmorCorps0_7_001
// 012   ----------------------------------------
	BYTE	PATT
	 POIN2	HeavyArmorCorps0_7_001
// 013   ----------------------------------------
	BYTE	PATT
	 POIN2	HeavyArmorCorps0_7_001
// 014   ----------------------------------------
	BYTE	PATT
	 POIN2	HeavyArmorCorps0_7_001
// 015   ----------------------------------------
	BYTE	PATT
	 POIN2	HeavyArmorCorps0_7_001
// 016   ----------------------------------------
	BYTE	PATT
	 POIN2	HeavyArmorCorps0_7_001
// 017   ----------------------------------------
	BYTE	PATT
	 POIN2	HeavyArmorCorps0_7_001
// 018   ----------------------------------------
	BYTE	PATT
	 POIN2	HeavyArmorCorps0_7_001
// 019   ----------------------------------------
	BYTE	PATT
	 POIN2	HeavyArmorCorps0_7_001
// 020   ----------------------------------------
	BYTE	PATT
	 POIN2	HeavyArmorCorps0_7_001
// 021   ----------------------------------------
	BYTE	PATT
	 POIN2	HeavyArmorCorps0_7_001
// 022   ----------------------------------------
	BYTE	PATT
	 POIN2	HeavyArmorCorps0_7_001
// 023   ----------------------------------------
	BYTE	PATT
	 POIN2	HeavyArmorCorps0_7_001
// 024   ----------------------------------------
	BYTE	PATT
	 POIN2	HeavyArmorCorps0_7_001
// 025   ----------------------------------------
	BYTE	PATT
	 POIN2	HeavyArmorCorps0_7_001
// 026   ----------------------------------------
	BYTE	PATT
	 POIN2	HeavyArmorCorps0_7_001
// 027   ----------------------------------------
	BYTE	PATT
	 POIN2	HeavyArmorCorps0_7_001
// 028   ----------------------------------------
	BYTE	PATT
	 POIN2	HeavyArmorCorps0_7_001
// 029   ----------------------------------------
	BYTE	PATT
	 POIN2	HeavyArmorCorps0_7_001
// 030   ----------------------------------------
	BYTE	PATT
	 POIN2	HeavyArmorCorps0_7_001
// 031   ----------------------------------------
	BYTE	PATT
	 POIN2	HeavyArmorCorps0_7_001
// 032   ----------------------------------------
	BYTE	PATT
	 POIN2	HeavyArmorCorps0_7_001
// 033   ----------------------------------------
	BYTE	PATT
	 POIN2	HeavyArmorCorps0_7_001
// 034   ----------------------------------------
	BYTE	PATT
	 POIN2	HeavyArmorCorps0_7_001
// 035   ----------------------------------------
HeavyArmorCorps0_7_035:
	BYTE		N06     Cn1   v116
	BYTE	W24
	BYTE		        As0   v120
	BYTE	W36
	BYTE		        As0   v116
	BYTE	W36
	BYTE	PEND
// 036   ----------------------------------------
HeavyArmorCorps0_7_036:
	BYTE		N06     As0   v116
	BYTE	W24
	BYTE		        Gs0   v120
	BYTE	W36
	BYTE		        Gs0   v116
	BYTE	W36
	BYTE	PEND
// 037   ----------------------------------------
HeavyArmorCorps0_7_037:
	BYTE		N06     Gs0   v116
	BYTE	W24
	BYTE		        Fn0   v120
	BYTE	W36
	BYTE		        Fn0   v116
	BYTE	W36
	BYTE	PEND
// 038   ----------------------------------------
HeavyArmorCorps0_7_038:
	BYTE		N06     Fn0   v116
	BYTE	W24
	BYTE		        Cn1   v120
	BYTE	W36
	BYTE		        Cn1   v116
	BYTE	W36
	BYTE	PEND
// 039   ----------------------------------------
	BYTE		N06   
	BYTE	W24
	BYTE		        Gn0   v120
	BYTE	W36
	BYTE		        Gn0   v116
	BYTE	W36
// 040   ----------------------------------------
HeavyArmorCorps0_7_040:
	BYTE		N06     Gn0   v116
	BYTE	W24
	BYTE		        Cn1   v120
	BYTE	W36
	BYTE		        Cn1   v116
	BYTE	W36
	BYTE	PEND
// 041   ----------------------------------------
	BYTE	PATT
	 POIN2	HeavyArmorCorps0_7_001
// 042   ----------------------------------------
	BYTE	PATT
	 POIN2	HeavyArmorCorps0_7_001
// 043   ----------------------------------------
	BYTE	PATT
	 POIN2	HeavyArmorCorps0_7_035
// 044   ----------------------------------------
	BYTE	PATT
	 POIN2	HeavyArmorCorps0_7_036
// 045   ----------------------------------------
	BYTE	PATT
	 POIN2	HeavyArmorCorps0_7_037
// 046   ----------------------------------------
	BYTE	PATT
	 POIN2	HeavyArmorCorps0_7_038
// 047   ----------------------------------------
	BYTE	PATT
	 POIN2	HeavyArmorCorps0_7_035
// 048   ----------------------------------------
	BYTE	PATT
	 POIN2	HeavyArmorCorps0_7_036
// 049   ----------------------------------------
	BYTE		N06     Gs0   v116
	BYTE	W24
	BYTE		        As0   v120
	BYTE	W36
	BYTE		        As0   v116
	BYTE	W36
// 050   ----------------------------------------
	BYTE		N06   
	BYTE	W24
	BYTE		        Cn1   v120
	BYTE	W36
	BYTE		        Cn1   v116
	BYTE	W36
// 051   ----------------------------------------
	BYTE		N06   
	BYTE	W24
	BYTE		        Ds0   v120
	BYTE	W36
	BYTE		        Ds0   v116
	BYTE	W36
// 052   ----------------------------------------
	BYTE		N06   
	BYTE	W24
	BYTE		        Gs0   v120
	BYTE	W36
	BYTE		        Gs0   v116
	BYTE	W36
// 053   ----------------------------------------
	BYTE		N06   
	BYTE	W24
	BYTE		        Cs1   v120
	BYTE	W36
	BYTE		        Cs1   v116
	BYTE	W36
// 054   ----------------------------------------
	BYTE		N06   
	BYTE	W24
	BYTE		        Dn1   v120
	BYTE	W36
	BYTE		        Dn1   v116
	BYTE	W36
// 055   ----------------------------------------
	BYTE		N06   
	BYTE	W24
	BYTE		        Gn0   v120
	BYTE	W36
	BYTE		        Gn0   v116
	BYTE	W36
// 056   ----------------------------------------
	BYTE	PATT
	 POIN2	HeavyArmorCorps0_7_040
// 057   ----------------------------------------
	BYTE	PATT
	 POIN2	HeavyArmorCorps0_7_001
// 058   ----------------------------------------
	BYTE		N06     Cn1   v116
	BYTE	W09
	BYTE	GoTo
	 POIN2	HeavyArmorCorps0_7_B1
HeavyArmorCorps0_7_B2:
	BYTE	W36
	BYTE	W03
	BYTE	FINE

//**************** Track 8 (Midi-Chn.8) ****************//

HeavyArmorCorps0_8:
	BYTE	KEYSH   HeavyArmorCorps0_key+0
// 000   ----------------------------------------
	BYTE		VOICE   41
	BYTE		PAN     c_v-5
	BYTE		VOL     26*HeavyArmorCorps0_mvl/mxv
	BYTE	W02
	BYTE		MOD     0
	BYTE		BEND    c_v+0
	BYTE	W68
	BYTE	W02
HeavyArmorCorps0_8_B1:
	BYTE	W24
// 001   ----------------------------------------
	BYTE	W96
// 002   ----------------------------------------
	BYTE	W96
// 003   ----------------------------------------
	BYTE	W96
// 004   ----------------------------------------
	BYTE	W96
// 005   ----------------------------------------
	BYTE	W96
// 006   ----------------------------------------
	BYTE	W96
// 007   ----------------------------------------
	BYTE	W96
// 008   ----------------------------------------
	BYTE	W96
// 009   ----------------------------------------
	BYTE	W96
// 010   ----------------------------------------
	BYTE	W96
// 011   ----------------------------------------
	BYTE	W96
// 012   ----------------------------------------
	BYTE	W96
// 013   ----------------------------------------
	BYTE	W96
// 014   ----------------------------------------
	BYTE	W96
// 015   ----------------------------------------
	BYTE	W96
// 016   ----------------------------------------
	BYTE	W24
	BYTE		N48     Ds3   v112
	BYTE		N48     Cn4   v116
	BYTE	W48
	BYTE		N24     Dn3   v112
	BYTE		N24     As3 
	BYTE	W24
// 017   ----------------------------------------
HeavyArmorCorps0_8_017:
	BYTE		N24     Ds3   v112
	BYTE		N24     Cn4   v116
	BYTE	W24
	BYTE		N48     Fn3 
	BYTE		N48     Dn4 
	BYTE	W48
	BYTE		        Dn3   v112
	BYTE		N48     As3   v116
	BYTE	W24
	BYTE	PEND
// 018   ----------------------------------------
HeavyArmorCorps0_8_018:
	BYTE	W24
	BYTE		N48     Gn3   v116
	BYTE		N48     Ds4 
	BYTE	W48
	BYTE		N96     Cn3   v112
	BYTE		N96     Gn3 
	BYTE	W24
	BYTE	PEND
// 019   ----------------------------------------
HeavyArmorCorps0_8_019:
	BYTE	W72
	BYTE		N48     Gn3   v112
	BYTE		N48     Cn4 
	BYTE	W24
	BYTE	PEND
// 020   ----------------------------------------
HeavyArmorCorps0_8_020:
	BYTE	W24
	BYTE		TIE     Gs3   v116
	BYTE		N48     Gn4   v112
	BYTE	W48
	BYTE		N24     Fn4 
	BYTE	W24
	BYTE	PEND
// 021   ----------------------------------------
HeavyArmorCorps0_8_021:
	BYTE		N24     Gn4   v112
	BYTE	W24
	BYTE		TIE     Cs4   v116
	BYTE		N48     As4   v120
	BYTE	W02
	BYTE	PEND
	BYTE		EOT     Gs3 
	BYTE	W44
	BYTE	W02
	BYTE		N24     Gs4   v112
	BYTE	W24
// 022   ----------------------------------------
	BYTE		        Gn4   v116
	BYTE	W24
	BYTE		TIE     Gs3   v112
	BYTE		N48     Fn4 
	BYTE	W02
	BYTE		EOT     Cs4 
	BYTE	W44
	BYTE	W02
	BYTE		N48     Ds4   v116
	BYTE	W24
// 023   ----------------------------------------
	BYTE	W24
	BYTE		TIE     Fn3   v112
	BYTE		N96     Cs4   v116
	BYTE	W02
	BYTE		EOT     Gs3 
	BYTE	W68
	BYTE	W02
// 024   ----------------------------------------
	BYTE	W24
	BYTE		N48     Ds3   v112
	BYTE		N48     Cn4   v116
	BYTE	W02
	BYTE		EOT     Fn3 
	BYTE	W44
	BYTE	W02
	BYTE		N24     Dn3   v112
	BYTE		N24     As3 
	BYTE	W24
// 025   ----------------------------------------
	BYTE	PATT
	 POIN2	HeavyArmorCorps0_8_017
// 026   ----------------------------------------
	BYTE	PATT
	 POIN2	HeavyArmorCorps0_8_018
// 027   ----------------------------------------
	BYTE	PATT
	 POIN2	HeavyArmorCorps0_8_019
// 028   ----------------------------------------
	BYTE	PATT
	 POIN2	HeavyArmorCorps0_8_020
// 029   ----------------------------------------
	BYTE	PATT
	 POIN2	HeavyArmorCorps0_8_021
	BYTE		EOT     Gs3 
	BYTE	W44
	BYTE	W02
	BYTE		N24     Gs4   v112
	BYTE	W24
// 030   ----------------------------------------
	BYTE		        Gn4   v116
	BYTE	W24
	BYTE		N48     Fn3   v112
	BYTE		N48     Fn4 
	BYTE	W02
	BYTE		EOT     Cs4 
	BYTE	W44
	BYTE	W02
	BYTE		N48     Gn3 
	BYTE		N48     Gn4 
	BYTE	W24
// 031   ----------------------------------------
	BYTE	W24
	BYTE		N96     Gs3   v116
	BYTE		N96     Gs4 
	BYTE	W72
// 032   ----------------------------------------
	BYTE	W96
// 033   ----------------------------------------
	BYTE	W96
// 034   ----------------------------------------
	BYTE	W96
// 035   ----------------------------------------
	BYTE	W96
// 036   ----------------------------------------
	BYTE	W96
// 037   ----------------------------------------
	BYTE	W96
// 038   ----------------------------------------
	BYTE	W96
// 039   ----------------------------------------
	BYTE	W96
// 040   ----------------------------------------
	BYTE	W96
// 041   ----------------------------------------
	BYTE	W96
// 042   ----------------------------------------
	BYTE	W96
// 043   ----------------------------------------
	BYTE	W96
// 044   ----------------------------------------
	BYTE	W96
// 045   ----------------------------------------
	BYTE	W96
// 046   ----------------------------------------
	BYTE	W96
// 047   ----------------------------------------
	BYTE	W96
// 048   ----------------------------------------
	BYTE		N24     Gn3 
	BYTE	W24
	BYTE		N48     Cn4   v120
	BYTE	W48
	BYTE		N24     As3   v116
	BYTE	W24
// 049   ----------------------------------------
	BYTE		        Cn4   v120
	BYTE	W24
	BYTE		N48     Dn4 
	BYTE	W48
	BYTE		        As3   v116
	BYTE	W24
// 050   ----------------------------------------
	BYTE	W24
	BYTE		        Fn4   v120
	BYTE	W48
	BYTE		        Ds4 
	BYTE	W24
// 051   ----------------------------------------
	BYTE	W24
	BYTE		N24     Dn4   v116
	BYTE	W24
	BYTE		        Gn3 
	BYTE	W24
	BYTE		N36     Cn4   v120
	BYTE	W24
// 052   ----------------------------------------
	BYTE	W12
	BYTE		N13     As3 
	BYTE	W12
	BYTE		N48     Ds3 
	BYTE		N48     Gs3 
	BYTE	W48
	BYTE		N24     Fn3 
	BYTE		N48     As3 
	BYTE	W24
// 053   ----------------------------------------
	BYTE		N24     Gn3 
	BYTE	W24
	BYTE		N48     Fn3 
	BYTE		N48     Cn4 
	BYTE	W48
	BYTE		N24     Gn3 
	BYTE		N72     Fn4   v116
	BYTE	W24
// 054   ----------------------------------------
	BYTE		N24     Gs3   v120
	BYTE	W24
	BYTE		TIE     Gn3 
	BYTE	W24
	BYTE		N24     Cn4 
	BYTE	W24
	BYTE		N36     Gn4 
	BYTE	W24
// 055   ----------------------------------------
	BYTE	W12
	BYTE		N13     Fn4 
	BYTE	W12
	BYTE		N96     Gn4 
	BYTE	W72
// 056   ----------------------------------------
	BYTE	W24
	BYTE		EOT     Gn3 
	BYTE	W72
// 057   ----------------------------------------
	BYTE	W96
// 058   ----------------------------------------
	BYTE	W09
	BYTE	GoTo
	 POIN2	HeavyArmorCorps0_8_B1
HeavyArmorCorps0_8_B2:
	BYTE	W36
	BYTE	W03
	BYTE	FINE

//**************** Track 9 (Midi-Chn.9) ****************//

HeavyArmorCorps0_9:
	BYTE	KEYSH   HeavyArmorCorps0_key+0
// 000   ----------------------------------------
	BYTE		VOICE   73
	BYTE		VOL     11*HeavyArmorCorps0_mvl/mxv
	BYTE	W02
	BYTE		MOD     0
	BYTE		PAN     c_v+11
	BYTE		BEND    c_v+0
	BYTE	W68
	BYTE	W02
HeavyArmorCorps0_9_B1:
	BYTE	W24
// 001   ----------------------------------------
	BYTE	W96
// 002   ----------------------------------------
	BYTE	W96
// 003   ----------------------------------------
	BYTE	W96
// 004   ----------------------------------------
	BYTE	W96
// 005   ----------------------------------------
	BYTE	W96
// 006   ----------------------------------------
	BYTE	W96
// 007   ----------------------------------------
	BYTE	W96
// 008   ----------------------------------------
	BYTE	W96
// 009   ----------------------------------------
	BYTE	W96
// 010   ----------------------------------------
	BYTE	W96
// 011   ----------------------------------------
	BYTE	W96
// 012   ----------------------------------------
	BYTE	W96
// 013   ----------------------------------------
	BYTE	W96
// 014   ----------------------------------------
	BYTE	W96
// 015   ----------------------------------------
	BYTE	W96
// 016   ----------------------------------------
	BYTE	W96
// 017   ----------------------------------------
	BYTE	W96
// 018   ----------------------------------------
HeavyArmorCorps0_9_018:
	BYTE	W72
	BYTE		N48     Ds4   v112
	BYTE		N48     Gn4   v116
	BYTE	W24
	BYTE	PEND
// 019   ----------------------------------------
HeavyArmorCorps0_9_019:
	BYTE	W24
	BYTE		N48     Dn4   v112
	BYTE		N48     Fn4 
	BYTE	W48
	BYTE		        Cn4   v108
	BYTE		N48     Ds4   v112
	BYTE	W24
	BYTE	PEND
// 020   ----------------------------------------
	BYTE	W96
// 021   ----------------------------------------
	BYTE	W96
// 022   ----------------------------------------
	BYTE	W72
	BYTE		        Ds4   v116
	BYTE		N48     As4 
	BYTE	W24
// 023   ----------------------------------------
	BYTE	W24
	BYTE		TIE     Cs4   v112
	BYTE		N48     Gs4 
	BYTE	W48
	BYTE		        Fn4   v108
	BYTE	W24
// 024   ----------------------------------------
	BYTE	W24
	BYTE		TIE     Gn4 
	BYTE	W02
	BYTE		EOT     Cs4 
	BYTE	W68
	BYTE	W02
// 025   ----------------------------------------
	BYTE	W48
	BYTE	W02
	BYTE		        Gn4 
	BYTE	W44
	BYTE	W02
// 026   ----------------------------------------
	BYTE	PATT
	 POIN2	HeavyArmorCorps0_9_018
// 027   ----------------------------------------
	BYTE	PATT
	 POIN2	HeavyArmorCorps0_9_019
// 028   ----------------------------------------
	BYTE	W96
// 029   ----------------------------------------
	BYTE	W96
// 030   ----------------------------------------
	BYTE	W72
	BYTE		N96     Fn4   v116
	BYTE		N48     As4 
	BYTE	W24
// 031   ----------------------------------------
	BYTE	W24
	BYTE		        Gs4   v112
	BYTE	W48
	BYTE		        Cs4 
	BYTE		N48     Fn4   v108
	BYTE	W24
// 032   ----------------------------------------
HeavyArmorCorps0_9_032:
	BYTE	W24
	BYTE		TIE     Ds4   v112
	BYTE		TIE     Gn4   v116
	BYTE	W72
	BYTE	PEND
// 033   ----------------------------------------
HeavyArmorCorps0_9_033:
	BYTE	W24
	BYTE		TIE     Dn4   v112
	BYTE		TIE     Fn4 
	BYTE	W02
	BYTE	PEND
	BYTE		EOT     Ds4 
	BYTE		        Gn4 
	BYTE	W68
	BYTE	W02
// 034   ----------------------------------------
HeavyArmorCorps0_9_034:
	BYTE	W24
	BYTE		TIE     Cn4   v112
	BYTE		TIE     Ds4   v108
	BYTE	W02
	BYTE	PEND
	BYTE		EOT     Dn4 
	BYTE		        Fn4 
	BYTE	W68
	BYTE	W02
// 035   ----------------------------------------
HeavyArmorCorps0_9_035:
	BYTE	W24
	BYTE		TIE     As3   v112
	BYTE		TIE     Dn4 
	BYTE	W02
	BYTE	PEND
	BYTE		EOT     Cn4 
	BYTE		        Ds4 
	BYTE	W68
	BYTE	W02
// 036   ----------------------------------------
HeavyArmorCorps0_9_036:
	BYTE	W24
	BYTE		N96     Gs3   v112
	BYTE		N96     Cn4 
	BYTE	W02
	BYTE	PEND
	BYTE		EOT     As3 
	BYTE		        Dn4 
	BYTE	W68
	BYTE	W02
// 037   ----------------------------------------
HeavyArmorCorps0_9_037:
	BYTE	W48
	BYTE		N24     Fn3   v112
	BYTE		N24     Gs3   v108
	BYTE	W24
	BYTE		N36     Gn3   v112
	BYTE		N36     As3 
	BYTE	W24
	BYTE	PEND
// 038   ----------------------------------------
HeavyArmorCorps0_9_038:
	BYTE	W12
	BYTE		N14     Gs3   v116
	BYTE		N14     Cn4   v112
	BYTE	W12
	BYTE		N48     As3   v116
	BYTE		N48     Dn4 
	BYTE	W48
	BYTE		        Cn4 
	BYTE		N48     Ds4 
	BYTE	W24
	BYTE	PEND
// 039   ----------------------------------------
HeavyArmorCorps0_9_039:
	BYTE	W24
	BYTE		N48     As3   v116
	BYTE		N48     Dn4 
	BYTE	W48
	BYTE		        Gn3 
	BYTE		N48     As3   v112
	BYTE	W24
	BYTE	PEND
// 040   ----------------------------------------
	BYTE	PATT
	 POIN2	HeavyArmorCorps0_9_032
// 041   ----------------------------------------
	BYTE	PATT
	 POIN2	HeavyArmorCorps0_9_033
	BYTE		EOT     Ds4 
	BYTE		        Gn4 
	BYTE	W68
	BYTE	W02
// 042   ----------------------------------------
	BYTE	PATT
	 POIN2	HeavyArmorCorps0_9_034
	BYTE		EOT     Dn4 
	BYTE		        Fn4 
	BYTE	W68
	BYTE	W02
// 043   ----------------------------------------
	BYTE	PATT
	 POIN2	HeavyArmorCorps0_9_035
	BYTE		EOT     Cn4 
	BYTE		        Ds4 
	BYTE	W68
	BYTE	W02
// 044   ----------------------------------------
	BYTE	PATT
	 POIN2	HeavyArmorCorps0_9_036
	BYTE		EOT     As3 
	BYTE		        Dn4 
	BYTE	W68
	BYTE	W02
// 045   ----------------------------------------
	BYTE	PATT
	 POIN2	HeavyArmorCorps0_9_037
// 046   ----------------------------------------
	BYTE	PATT
	 POIN2	HeavyArmorCorps0_9_038
// 047   ----------------------------------------
	BYTE	PATT
	 POIN2	HeavyArmorCorps0_9_039
// 048   ----------------------------------------
	BYTE	W96
// 049   ----------------------------------------
	BYTE	W96
// 050   ----------------------------------------
	BYTE	W96
// 051   ----------------------------------------
	BYTE	W96
// 052   ----------------------------------------
	BYTE	W96
// 053   ----------------------------------------
	BYTE	W96
// 054   ----------------------------------------
	BYTE	W96
// 055   ----------------------------------------
	BYTE	W12
	BYTE		N05     Dn4   v108
	BYTE		N05     Dn5 
	BYTE	W04
	BYTE		        Ds4 
	BYTE		N05     Ds5 
	BYTE	W04
	BYTE		        Fn4   v112
	BYTE		N05     Fn5 
	BYTE	W04
	BYTE		N36     Gn4 
	BYTE		N36     Gn5 
	BYTE	W36
	BYTE		N07     Fn4 
	BYTE		N07     Fn5 
	BYTE	W06
	BYTE		        Ds4   v108
	BYTE		N07     Ds5 
	BYTE	W06
	BYTE		N48     Dn4 
	BYTE		N48     Dn5 
	BYTE	W24
// 056   ----------------------------------------
	BYTE	W96
// 057   ----------------------------------------
	BYTE	W96
// 058   ----------------------------------------
	BYTE	W09
	BYTE	GoTo
	 POIN2	HeavyArmorCorps0_9_B1
HeavyArmorCorps0_9_B2:
	BYTE	W36
	BYTE	W03
	BYTE	FINE

//**************** Track 10 (Midi-Chn.11) ****************//

HeavyArmorCorps0_10:
	BYTE	KEYSH   HeavyArmorCorps0_key+0
// 000   ----------------------------------------
	BYTE	W03
	BYTE		VOICE   119
	BYTE		MOD     0
	BYTE		VOL     25*HeavyArmorCorps0_mvl/mxv
	BYTE		PAN     c_v+0
	BYTE		BEND    c_v+0
	BYTE	W09
	BYTE		N96     Gn2   v072
	BYTE	W01
	BYTE	W01
	BYTE	W01
	BYTE	W01
	BYTE	W01
	BYTE	W01
	BYTE	W01
	BYTE	W01
	BYTE	W01
	BYTE	W01
	BYTE	W01
	BYTE	W01
	BYTE	W01
	BYTE	W01
	BYTE	W01
	BYTE	W01
	BYTE	W01
	BYTE	W01
	BYTE	W01
	BYTE	W01
	BYTE	W01
	BYTE	W01
	BYTE	W01
	BYTE	W01
	BYTE	W02
	BYTE	W01
	BYTE	W02
	BYTE	W01
	BYTE	W02
	BYTE	W01
	BYTE	W02
	BYTE	W01
	BYTE	W02
	BYTE	W01
	BYTE	W02
	BYTE	W01
	BYTE	W02
	BYTE	W01
	BYTE	W02
	BYTE	W01
	BYTE	W02
	BYTE	W01
	BYTE	W01
	BYTE	W03
	BYTE	W03
	BYTE	W02
HeavyArmorCorps0_10_B1:
	BYTE	W01
	BYTE	W03
	BYTE	W03
	BYTE	W03
	BYTE	W03
	BYTE	W03
	BYTE	W03
	BYTE	W03
	BYTE	W02
// 001   ----------------------------------------
	BYTE	W01
	BYTE	W03
	BYTE	W03
	BYTE	W03
	BYTE	W84
	BYTE	W02
// 002   ----------------------------------------
	BYTE	W96
// 003   ----------------------------------------
	BYTE	W96
// 004   ----------------------------------------
	BYTE	W96
// 005   ----------------------------------------
HeavyArmorCorps0_10_005:
	BYTE	W24
	BYTE		TIE     Fn2   v116
	BYTE	W10
	BYTE	W05
	BYTE	W05
	BYTE	W06
	BYTE	W05
	BYTE	W05
	BYTE	W05
	BYTE	W06
	BYTE	W05
	BYTE	W05
	BYTE	W05
	BYTE	W05
	BYTE	W05
	BYTE	PEND
// 006   ----------------------------------------
HeavyArmorCorps0_10_006:
	BYTE	W01
	BYTE	W05
	BYTE	W05
	BYTE	W05
	BYTE	W06
	BYTE	W03
	BYTE	W03
	BYTE	W03
	BYTE	W03
	BYTE	W03
	BYTE	W03
	BYTE	W03
	BYTE	W03
	BYTE	W03
	BYTE	W03
	BYTE	W03
	BYTE	W03
	BYTE	W03
	BYTE	W03
	BYTE	W03
	BYTE	W03
	BYTE	W03
	BYTE	W03
	BYTE	W03
	BYTE	W03
	BYTE	W03
	BYTE	W03
	BYTE	W03
	BYTE	W03
	BYTE	W02
	BYTE	PEND
// 007   ----------------------------------------
HeavyArmorCorps0_10_007:
	BYTE	W01
	BYTE	W03
	BYTE	W03
	BYTE	W03
	BYTE	W03
	BYTE	W03
	BYTE	W03
	BYTE	W03
	BYTE	W03
	BYTE	W03
	BYTE	W03
	BYTE	W03
	BYTE	W03
	BYTE	W03
	BYTE	W03
	BYTE	W03
	BYTE	W03
	BYTE	W03
	BYTE	W03
	BYTE	W03
	BYTE	W03
	BYTE	W03
	BYTE	W03
	BYTE	W03
	BYTE	W03
	BYTE	W03
	BYTE	W03
	BYTE	W03
	BYTE	W03
	BYTE	W03
	BYTE	W03
	BYTE	W02
	BYTE	W02
	BYTE	W01
	BYTE	PEND
// 008   ----------------------------------------
HeavyArmorCorps0_10_008:
	BYTE	W02
	BYTE	W01
	BYTE	W02
	BYTE	W01
	BYTE	W02
	BYTE	W01
	BYTE	W02
	BYTE	W01
	BYTE	W02
	BYTE	W01
	BYTE	W02
	BYTE	W01
	BYTE	W02
	BYTE	W01
	BYTE	W02
	BYTE	W01
	BYTE	W01
	BYTE	W01
	BYTE	W01
	BYTE	W01
	BYTE	W01
	BYTE	W01
	BYTE	W01
	BYTE	W01
	BYTE	W01
	BYTE	W01
	BYTE	W01
	BYTE	W02
	BYTE	W01
	BYTE	W02
	BYTE	W01
	BYTE	W02
	BYTE	W01
	BYTE	W02
	BYTE	W01
	BYTE	W02
	BYTE	W01
	BYTE	W02
	BYTE	W03
	BYTE	W03
	BYTE	W03
	BYTE	W03
	BYTE	W03
	BYTE	W03
	BYTE	W03
	BYTE	W03
	BYTE	W09
	BYTE	W04
	BYTE	W05
	BYTE	W02
	BYTE	PEND
// 009   ----------------------------------------
HeavyArmorCorps0_10_009:
	BYTE	W02
	BYTE	W04
	BYTE	W04
	BYTE	W05
	BYTE	W04
	BYTE	W04
	BYTE	W01
	BYTE	PEND
	BYTE		EOT     Fn2 
	BYTE	W72
// 010   ----------------------------------------
	BYTE	W96
// 011   ----------------------------------------
	BYTE	W96
// 012   ----------------------------------------
	BYTE	W96
// 013   ----------------------------------------
	BYTE	W96
// 014   ----------------------------------------
	BYTE	W96
// 015   ----------------------------------------
	BYTE	W96
// 016   ----------------------------------------
	BYTE	W96
// 017   ----------------------------------------
	BYTE	W96
// 018   ----------------------------------------
	BYTE	W96
// 019   ----------------------------------------
	BYTE	W96
// 020   ----------------------------------------
	BYTE	W96
// 021   ----------------------------------------
	BYTE	W96
// 022   ----------------------------------------
	BYTE	W96
// 023   ----------------------------------------
	BYTE	W96
// 024   ----------------------------------------
	BYTE	W96
// 025   ----------------------------------------
	BYTE	W96
// 026   ----------------------------------------
	BYTE	W96
// 027   ----------------------------------------
	BYTE	W96
// 028   ----------------------------------------
	BYTE	W96
// 029   ----------------------------------------
	BYTE	PATT
	 POIN2	HeavyArmorCorps0_10_005
// 030   ----------------------------------------
	BYTE	PATT
	 POIN2	HeavyArmorCorps0_10_006
// 031   ----------------------------------------
	BYTE	PATT
	 POIN2	HeavyArmorCorps0_10_007
// 032   ----------------------------------------
	BYTE	PATT
	 POIN2	HeavyArmorCorps0_10_008
// 033   ----------------------------------------
	BYTE	PATT
	 POIN2	HeavyArmorCorps0_10_009
	BYTE		EOT     Fn2 
	BYTE	W72
// 034   ----------------------------------------
	BYTE	W96
// 035   ----------------------------------------
	BYTE	W96
// 036   ----------------------------------------
	BYTE	W96
// 037   ----------------------------------------
	BYTE	W96
// 038   ----------------------------------------
	BYTE	W96
// 039   ----------------------------------------
	BYTE	W96
// 040   ----------------------------------------
	BYTE	W96
// 041   ----------------------------------------
	BYTE	W96
// 042   ----------------------------------------
	BYTE	W96
// 043   ----------------------------------------
	BYTE	W96
// 044   ----------------------------------------
	BYTE	W96
// 045   ----------------------------------------
	BYTE	W96
// 046   ----------------------------------------
	BYTE	W96
// 047   ----------------------------------------
	BYTE	W96
// 048   ----------------------------------------
	BYTE	W96
// 049   ----------------------------------------
	BYTE	W96
// 050   ----------------------------------------
	BYTE	W96
// 051   ----------------------------------------
	BYTE	W96
// 052   ----------------------------------------
	BYTE	W96
// 053   ----------------------------------------
	BYTE	PATT
	 POIN2	HeavyArmorCorps0_10_005
// 054   ----------------------------------------
	BYTE	PATT
	 POIN2	HeavyArmorCorps0_10_006
// 055   ----------------------------------------
	BYTE	PATT
	 POIN2	HeavyArmorCorps0_10_007
// 056   ----------------------------------------
	BYTE	PATT
	 POIN2	HeavyArmorCorps0_10_008
// 057   ----------------------------------------
	BYTE	PATT
	 POIN2	HeavyArmorCorps0_10_009
	BYTE		EOT     Fn2 
	BYTE	W72
// 058   ----------------------------------------
	BYTE	W09
	BYTE	GoTo
	 POIN2	HeavyArmorCorps0_10_B1
HeavyArmorCorps0_10_B2:
	BYTE	W36
	BYTE	W03
	BYTE	FINE

//**************** Track 11 (Midi-Chn.12) ****************//

HeavyArmorCorps0_11:
	BYTE	KEYSH   HeavyArmorCorps0_key+0
// 000   ----------------------------------------
	BYTE		VOICE   123
	BYTE	W03
	BYTE		MOD     0
	BYTE		VOL     31*HeavyArmorCorps0_mvl/mxv
	BYTE		PAN     c_v+0
	BYTE		BEND    c_v+0
	BYTE	W21
	BYTE		N07     Cn1   v120
	BYTE		N07     Cn2 
	BYTE	W36
	BYTE		        Cn1   v116
	BYTE		N07     Cn2 
	BYTE	W12
HeavyArmorCorps0_11_B1:
	BYTE	W24
// 001   ----------------------------------------
HeavyArmorCorps0_11_001:
	BYTE		N07     Cn1   v116
	BYTE		N07     Cn2 
	BYTE	W24
	BYTE		        Cn1   v120
	BYTE		N07     Cn2 
	BYTE	W36
	BYTE		        Cn1   v116
	BYTE		N07     Cn2 
	BYTE	W36
	BYTE	PEND
// 002   ----------------------------------------
	BYTE	PATT
	 POIN2	HeavyArmorCorps0_11_001
// 003   ----------------------------------------
	BYTE	PATT
	 POIN2	HeavyArmorCorps0_11_001
// 004   ----------------------------------------
	BYTE	PATT
	 POIN2	HeavyArmorCorps0_11_001
// 005   ----------------------------------------
	BYTE	PATT
	 POIN2	HeavyArmorCorps0_11_001
// 006   ----------------------------------------
	BYTE	PATT
	 POIN2	HeavyArmorCorps0_11_001
// 007   ----------------------------------------
	BYTE	PATT
	 POIN2	HeavyArmorCorps0_11_001
// 008   ----------------------------------------
	BYTE	PATT
	 POIN2	HeavyArmorCorps0_11_001
// 009   ----------------------------------------
	BYTE	PATT
	 POIN2	HeavyArmorCorps0_11_001
// 010   ----------------------------------------
	BYTE	PATT
	 POIN2	HeavyArmorCorps0_11_001
// 011   ----------------------------------------
	BYTE	PATT
	 POIN2	HeavyArmorCorps0_11_001
// 012   ----------------------------------------
	BYTE	PATT
	 POIN2	HeavyArmorCorps0_11_001
// 013   ----------------------------------------
	BYTE	PATT
	 POIN2	HeavyArmorCorps0_11_001
// 014   ----------------------------------------
	BYTE	PATT
	 POIN2	HeavyArmorCorps0_11_001
// 015   ----------------------------------------
	BYTE	PATT
	 POIN2	HeavyArmorCorps0_11_001
// 016   ----------------------------------------
	BYTE	PATT
	 POIN2	HeavyArmorCorps0_11_001
// 017   ----------------------------------------
	BYTE	PATT
	 POIN2	HeavyArmorCorps0_11_001
// 018   ----------------------------------------
	BYTE	PATT
	 POIN2	HeavyArmorCorps0_11_001
// 019   ----------------------------------------
	BYTE	PATT
	 POIN2	HeavyArmorCorps0_11_001
// 020   ----------------------------------------
	BYTE	PATT
	 POIN2	HeavyArmorCorps0_11_001
// 021   ----------------------------------------
	BYTE	PATT
	 POIN2	HeavyArmorCorps0_11_001
// 022   ----------------------------------------
	BYTE	PATT
	 POIN2	HeavyArmorCorps0_11_001
// 023   ----------------------------------------
	BYTE	PATT
	 POIN2	HeavyArmorCorps0_11_001
// 024   ----------------------------------------
	BYTE	PATT
	 POIN2	HeavyArmorCorps0_11_001
// 025   ----------------------------------------
	BYTE	PATT
	 POIN2	HeavyArmorCorps0_11_001
// 026   ----------------------------------------
	BYTE	PATT
	 POIN2	HeavyArmorCorps0_11_001
// 027   ----------------------------------------
	BYTE	PATT
	 POIN2	HeavyArmorCorps0_11_001
// 028   ----------------------------------------
	BYTE	PATT
	 POIN2	HeavyArmorCorps0_11_001
// 029   ----------------------------------------
	BYTE	PATT
	 POIN2	HeavyArmorCorps0_11_001
// 030   ----------------------------------------
	BYTE	PATT
	 POIN2	HeavyArmorCorps0_11_001
// 031   ----------------------------------------
	BYTE	PATT
	 POIN2	HeavyArmorCorps0_11_001
// 032   ----------------------------------------
	BYTE		N07     Cn1   v116
	BYTE		N07     Cn2 
	BYTE	W96
// 033   ----------------------------------------
	BYTE	W96
// 034   ----------------------------------------
	BYTE	W96
// 035   ----------------------------------------
	BYTE	W96
// 036   ----------------------------------------
	BYTE	W96
// 037   ----------------------------------------
	BYTE	W96
// 038   ----------------------------------------
	BYTE	W96
// 039   ----------------------------------------
	BYTE	W96
// 040   ----------------------------------------
	BYTE	W96
// 041   ----------------------------------------
	BYTE	W96
// 042   ----------------------------------------
	BYTE	W96
// 043   ----------------------------------------
	BYTE	W96
// 044   ----------------------------------------
	BYTE	W96
// 045   ----------------------------------------
	BYTE	W96
// 046   ----------------------------------------
	BYTE	W96
// 047   ----------------------------------------
	BYTE	W96
// 048   ----------------------------------------
	BYTE	W96
// 049   ----------------------------------------
	BYTE	W96
// 050   ----------------------------------------
	BYTE	W96
// 051   ----------------------------------------
	BYTE	W96
// 052   ----------------------------------------
	BYTE	W96
// 053   ----------------------------------------
	BYTE	W96
// 054   ----------------------------------------
	BYTE	W96
// 055   ----------------------------------------
	BYTE	W96
// 056   ----------------------------------------
	BYTE	W24
	BYTE		        Cn1   v120
	BYTE		N07     Cn2 
	BYTE	W36
	BYTE		        Cn1   v116
	BYTE		N07     Cn2 
	BYTE	W36
// 057   ----------------------------------------
	BYTE	PATT
	 POIN2	HeavyArmorCorps0_11_001
// 058   ----------------------------------------
	BYTE		N07     Cn1   v116
	BYTE		N07     Cn2 
	BYTE	W09
	BYTE	GoTo
	 POIN2	HeavyArmorCorps0_11_B1
HeavyArmorCorps0_11_B2:
	BYTE	W36
	BYTE	W03
	BYTE	FINE

//**************** Track 12 (Midi-Chn.13) ****************//

HeavyArmorCorps0_12:
	BYTE	KEYSH   HeavyArmorCorps0_key+0
// 000   ----------------------------------------
	BYTE		VOICE   123
	BYTE	W02
	BYTE		MOD     0
	BYTE		VOL     29*HeavyArmorCorps0_mvl/mxv
	BYTE		PAN     c_v+0
	BYTE		BEND    c_v+0
	BYTE	W22
	BYTE		N96     Cn1   v124
	BYTE		TIE     Fn2 
	BYTE	W48
HeavyArmorCorps0_12_B1:
	BYTE	W24
// 001   ----------------------------------------
	BYTE	W96
// 002   ----------------------------------------
	BYTE	W24
	BYTE		EOT     Fn2 
	BYTE		N96     Cn1   v124
	BYTE	W72
// 003   ----------------------------------------
	BYTE	W96
// 004   ----------------------------------------
	BYTE	W24
	BYTE		N96   
	BYTE	W72
// 005   ----------------------------------------
	BYTE	W96
// 006   ----------------------------------------
	BYTE	W24
	BYTE		N96   
	BYTE	W72
// 007   ----------------------------------------
	BYTE	W96
// 008   ----------------------------------------
	BYTE	W24
	BYTE		N96   
	BYTE		TIE     Cn2   v108
	BYTE		TIE     Fn2   v124
	BYTE	W72
// 009   ----------------------------------------
	BYTE	W24
	BYTE		N96     Cn1 
	BYTE	W72
// 010   ----------------------------------------
	BYTE	W24
	BYTE		EOT     Cn2 
	BYTE		        Fn2 
	BYTE		N96     Cn1 
	BYTE		TIE     Cn2   v108
	BYTE	W72
// 011   ----------------------------------------
	BYTE	W24
	BYTE		N96     Cn1   v124
	BYTE	W72
// 012   ----------------------------------------
	BYTE	W24
	BYTE		EOT     Cn2 
	BYTE		N96     Cn1 
	BYTE		TIE     Cn2   v108
	BYTE	W72
// 013   ----------------------------------------
	BYTE	W24
	BYTE		N96     Cn1   v124
	BYTE	W72
// 014   ----------------------------------------
	BYTE	W24
	BYTE		EOT     Cn2 
	BYTE		N96     Cn1 
	BYTE		TIE     Cn2   v108
	BYTE	W72
// 015   ----------------------------------------
	BYTE	W24
	BYTE		N96     Cn1   v124
	BYTE	W72
// 016   ----------------------------------------
	BYTE	W24
	BYTE		EOT     Cn2 
	BYTE		N96     Cn1 
	BYTE		TIE     Cn2   v108
	BYTE	W72
// 017   ----------------------------------------
	BYTE	W24
	BYTE		N96     Cn1   v124
	BYTE	W72
// 018   ----------------------------------------
	BYTE	W24
	BYTE		EOT     Cn2 
	BYTE		N96     Cn1 
	BYTE		TIE     Cn2   v108
	BYTE	W72
// 019   ----------------------------------------
	BYTE	W24
	BYTE		N96     Cn1   v124
	BYTE	W72
// 020   ----------------------------------------
	BYTE	W24
	BYTE		EOT     Cn2 
	BYTE		N96     Cn1 
	BYTE		TIE     Cn2   v108
	BYTE	W72
// 021   ----------------------------------------
	BYTE	W24
	BYTE		N96     Cn1   v124
	BYTE	W72
// 022   ----------------------------------------
	BYTE	W24
	BYTE		EOT     Cn2 
	BYTE		N96     Cn1 
	BYTE		TIE     Cn2   v108
	BYTE	W72
// 023   ----------------------------------------
	BYTE	W24
	BYTE		N96     Cn1   v124
	BYTE	W72
// 024   ----------------------------------------
	BYTE	W24
	BYTE		EOT     Cn2 
	BYTE		N96     Cn1 
	BYTE		TIE     Cn2   v108
	BYTE	W72
// 025   ----------------------------------------
	BYTE	W24
	BYTE		N96     Cn1   v124
	BYTE	W72
// 026   ----------------------------------------
	BYTE	W24
	BYTE		EOT     Cn2 
	BYTE		N96     Cn1 
	BYTE		TIE     Cn2   v108
	BYTE	W72
// 027   ----------------------------------------
	BYTE	W24
	BYTE		N96     Cn1   v124
	BYTE	W72
// 028   ----------------------------------------
	BYTE	W24
	BYTE		EOT     Cn2 
	BYTE		N96     Cn1 
	BYTE		TIE     Cn2   v108
	BYTE	W72
// 029   ----------------------------------------
	BYTE	W24
	BYTE		N96     Cn1   v124
	BYTE	W72
// 030   ----------------------------------------
	BYTE	W24
	BYTE		EOT     Cn2 
	BYTE		N96     Cn1 
	BYTE		TIE     Cn2   v108
	BYTE	W72
// 031   ----------------------------------------
	BYTE	W24
	BYTE		N96     Cn1   v124
	BYTE	W72
// 032   ----------------------------------------
	BYTE	W12
	BYTE		N12     Ds1   v104
	BYTE	W11
	BYTE		N06     Dn1 
	BYTE	W01
	BYTE		EOT     Cn2 
	BYTE		N96     Cn1   v124
	BYTE		TIE     Cn2   v108
	BYTE		TIE     Fn2   v124
	BYTE	W05
	BYTE		N06     Cs1   v088
	BYTE	W06
	BYTE		        Dn1   v096
	BYTE	W24
	BYTE	W01
	BYTE		N12     Ds1   v104
	BYTE	W11
	BYTE		N06     Dn1 
	BYTE	W24
	BYTE	W01
// 033   ----------------------------------------
HeavyArmorCorps0_12_033:
	BYTE	W06
	BYTE		N06     Ds1   v104
	BYTE	W07
	BYTE		N12     Cs1   v096
	BYTE	W11
	BYTE		N96     Cn1   v124
	BYTE		N06     Dn1   v104
	BYTE	W11
	BYTE		        Ds1   v108
	BYTE	W24
	BYTE		        Dn1   v104
	BYTE	W12
	BYTE		N06   
	BYTE	W07
	BYTE		N06   
	BYTE	W05
	BYTE		        Cs1   v096
	BYTE	W13
	BYTE	PEND
// 034   ----------------------------------------
	BYTE	W11
	BYTE		N12     Ds1   v104
	BYTE	W13
	BYTE		EOT     Cn2 
	BYTE		        Fn2 
	BYTE		N96     Cn1   v124
	BYTE		N06     Dn1   v104
	BYTE		TIE     Cn2   v108
	BYTE	W06
	BYTE		N06     Cs1   v096
	BYTE	W05
	BYTE		        Dn1   v108
	BYTE	W23
	BYTE		N12     Ds1   v104
	BYTE	W13
	BYTE		N06     Dn1   v096
	BYTE	W24
	BYTE	W01
// 035   ----------------------------------------
HeavyArmorCorps0_12_035:
	BYTE	W12
	BYTE		N12     Cs1   v104
	BYTE	W11
	BYTE		N06     Dn1   v108
	BYTE	W01
	BYTE		N96     Cn1   v124
	BYTE	W11
	BYTE		N06     Ds1   v104
	BYTE	W24
	BYTE	W01
	BYTE		        Cs1 
	BYTE	W06
	BYTE		        Dn1   v096
	BYTE	W06
	BYTE		        Dn1   v104
	BYTE	W12
	BYTE		        Cs1   v088
	BYTE	W12
	BYTE	PEND
// 036   ----------------------------------------
HeavyArmorCorps0_12_036:
	BYTE		N06     Dn1   v104
	BYTE	W06
	BYTE		        Ds1   v108
	BYTE	W06
	BYTE		        Cs1   v096
	BYTE	W05
	BYTE		N05     Dn1   v108
	BYTE	W06
	BYTE		N01     Dn1   v104
	BYTE	W01
	BYTE	PEND
	BYTE		EOT     Cn2 
	BYTE		N96     Cn1   v124
	BYTE		TIE     Cn2   v108
	BYTE	W05
	BYTE		N06     Cs1   v096
	BYTE	W07
	BYTE		        Dn1   v108
	BYTE	W23
	BYTE		N12     Ds1   v104
	BYTE	W13
	BYTE		N06     Dn1   v096
	BYTE	W24
// 037   ----------------------------------------
HeavyArmorCorps0_12_037:
	BYTE	W05
	BYTE		N06     Ds1   v104
	BYTE	W07
	BYTE		N12     Cs1   v096
	BYTE	W12
	BYTE		N96     Cn1   v124
	BYTE		N06     Dn1   v104
	BYTE	W11
	BYTE		        Ds1   v108
	BYTE	W24
	BYTE	W01
	BYTE		        Dn1   v104
	BYTE	W06
	BYTE		        Cs1   v088
	BYTE	W06
	BYTE		        Dn1   v104
	BYTE	W12
	BYTE		        Cs1   v108
	BYTE	W12
	BYTE	PEND
// 038   ----------------------------------------
HeavyArmorCorps0_12_038:
	BYTE	W13
	BYTE		N12     Ds1   v096
	BYTE	W10
	BYTE		N06     Dn1   v104
	BYTE	W01
	BYTE	PEND
	BYTE		EOT     Cn2 
	BYTE		N96     Cn1   v124
	BYTE		TIE     Cn2   v108
	BYTE	W05
	BYTE		N06     Cs1   v096
	BYTE	W07
	BYTE		        Dn1   v108
	BYTE	W23
	BYTE		N11     Ds1   v104
	BYTE	W12
	BYTE		N06     Dn1   v096
	BYTE	W24
	BYTE	W01
// 039   ----------------------------------------
HeavyArmorCorps0_12_039:
	BYTE	W12
	BYTE		N12     Cs1   v104
	BYTE	W12
	BYTE		N96     Cn1   v124
	BYTE		N06     Dn1   v108
	BYTE	W12
	BYTE		        Ds1 
	BYTE	W24
	BYTE		        Dn1   v104
	BYTE	W06
	BYTE		        Cs1   v096
	BYTE	W06
	BYTE		        Cs1   v104
	BYTE	W12
	BYTE		        Dn1   v096
	BYTE	W11
	BYTE		N05     Cs1   v104
	BYTE	W01
	BYTE	PEND
// 040   ----------------------------------------
HeavyArmorCorps0_12_040:
	BYTE	W05
	BYTE		N01     Cs1   v096
	BYTE	W06
	BYTE		N06     Dn1   v108
	BYTE	W12
	BYTE		        Dn1   v104
	BYTE	W01
	BYTE	PEND
	BYTE		EOT     Cn2 
	BYTE		N96     Cn1   v124
	BYTE		TIE     Cn2   v108
	BYTE		TIE     Fn2   v124
	BYTE	W05
	BYTE		N06     Cs1   v088
	BYTE	W06
	BYTE		        Dn1   v096
	BYTE	W24
	BYTE	W01
	BYTE		N12     Ds1   v104
	BYTE	W11
	BYTE		N06     Dn1 
	BYTE	W24
	BYTE	W01
// 041   ----------------------------------------
	BYTE	PATT
	 POIN2	HeavyArmorCorps0_12_033
// 042   ----------------------------------------
	BYTE	W11
	BYTE		N12     Ds1   v104
	BYTE	W13
	BYTE		EOT     Cn2 
	BYTE		        Fn2 
	BYTE		N96     Cn1   v124
	BYTE		N06     Dn1   v104
	BYTE		TIE     Cn2   v108
	BYTE	W06
	BYTE		N06     Cs1   v096
	BYTE	W05
	BYTE		        Dn1   v108
	BYTE	W23
	BYTE		N12     Ds1   v104
	BYTE	W13
	BYTE		N06     Dn1   v096
	BYTE	W24
	BYTE	W01
// 043   ----------------------------------------
	BYTE	PATT
	 POIN2	HeavyArmorCorps0_12_035
// 044   ----------------------------------------
	BYTE	PATT
	 POIN2	HeavyArmorCorps0_12_036
	BYTE		EOT     Cn2 
	BYTE		N96     Cn1   v124
	BYTE		TIE     Cn2   v108
	BYTE	W05
	BYTE		N06     Cs1   v096
	BYTE	W07
	BYTE		        Dn1   v108
	BYTE	W23
	BYTE		N12     Ds1   v104
	BYTE	W13
	BYTE		N06     Dn1   v096
	BYTE	W24
// 045   ----------------------------------------
	BYTE	PATT
	 POIN2	HeavyArmorCorps0_12_037
// 046   ----------------------------------------
	BYTE	PATT
	 POIN2	HeavyArmorCorps0_12_038
	BYTE		EOT     Cn2 
	BYTE		N96     Cn1   v124
	BYTE		TIE     Cn2   v108
	BYTE	W05
	BYTE		N06     Cs1   v096
	BYTE	W07
	BYTE		        Dn1   v108
	BYTE	W23
	BYTE		N11     Ds1   v104
	BYTE	W12
	BYTE		N06     Dn1   v096
	BYTE	W24
	BYTE	W01
// 047   ----------------------------------------
	BYTE	PATT
	 POIN2	HeavyArmorCorps0_12_039
// 048   ----------------------------------------
	BYTE	PATT
	 POIN2	HeavyArmorCorps0_12_040
	BYTE		EOT     Cn2 
	BYTE		N96     Cn1   v124
	BYTE		TIE     Cn2   v108
	BYTE	W05
	BYTE		N06     Cs1   v088
	BYTE	W06
	BYTE		        Dn1   v096
	BYTE	W24
	BYTE	W01
	BYTE		N12     Ds1   v104
	BYTE	W11
	BYTE		N06     Dn1 
	BYTE	W24
	BYTE	W01
// 049   ----------------------------------------
	BYTE	PATT
	 POIN2	HeavyArmorCorps0_12_033
// 050   ----------------------------------------
	BYTE	W11
	BYTE		N12     Ds1   v104
	BYTE	W13
	BYTE		EOT     Cn2 
	BYTE		N96     Cn1   v124
	BYTE		N06     Dn1   v104
	BYTE		TIE     Cn2   v108
	BYTE	W06
	BYTE		N06     Cs1   v096
	BYTE	W05
	BYTE		        Dn1   v108
	BYTE	W23
	BYTE		N12     Ds1   v104
	BYTE	W13
	BYTE		N06     Dn1   v096
	BYTE	W24
	BYTE	W01
// 051   ----------------------------------------
	BYTE	PATT
	 POIN2	HeavyArmorCorps0_12_035
// 052   ----------------------------------------
	BYTE	PATT
	 POIN2	HeavyArmorCorps0_12_036
	BYTE		EOT     Cn2 
	BYTE		N96     Cn1   v124
	BYTE		TIE     Cn2   v108
	BYTE	W05
	BYTE		N06     Cs1   v096
	BYTE	W07
	BYTE		        Dn1   v108
	BYTE	W23
	BYTE		N12     Ds1   v104
	BYTE	W13
	BYTE		N06     Dn1   v096
	BYTE	W24
// 053   ----------------------------------------
	BYTE	PATT
	 POIN2	HeavyArmorCorps0_12_037
// 054   ----------------------------------------
	BYTE	PATT
	 POIN2	HeavyArmorCorps0_12_038
	BYTE		EOT     Cn2 
	BYTE		N96     Cn1   v124
	BYTE		TIE     Cn2   v108
	BYTE	W05
	BYTE		N06     Cs1   v096
	BYTE	W07
	BYTE		        Dn1   v108
	BYTE	W23
	BYTE		N11     Ds1   v104
	BYTE	W12
	BYTE		N06     Dn1   v096
	BYTE	W24
	BYTE	W01
// 055   ----------------------------------------
	BYTE	PATT
	 POIN2	HeavyArmorCorps0_12_039
// 056   ----------------------------------------
	BYTE	W05
	BYTE		N01     Cs1   v096
	BYTE	W06
	BYTE		N06     Dn1   v108
	BYTE	W13
	BYTE		EOT     Cn2 
	BYTE		N96     Cn1   v124
	BYTE		TIE     Fn2 
	BYTE	W72
// 057   ----------------------------------------
	BYTE	W96
// 058   ----------------------------------------
	BYTE	W09
	BYTE	GoTo
	 POIN2	HeavyArmorCorps0_12_B1
HeavyArmorCorps0_12_B2:
	BYTE	W14
	BYTE		EOT     Fn2 
	BYTE	W24
	BYTE	W01
	BYTE	FINE

//******************************************************//
	ALIGN 4

HeavyArmorCorps0:
	BYTE	12	// NumTrks
	BYTE	0	// NumBlks
	BYTE	HeavyArmorCorps0_pri	// Priority
	BYTE	HeavyArmorCorps0_rev	// Reverb.

	POIN2	HeavyArmorCorps0_grp

	POIN2	HeavyArmorCorps0_1
	POIN2	HeavyArmorCorps0_2
	POIN2	HeavyArmorCorps0_3
	POIN2	HeavyArmorCorps0_4
	POIN2	HeavyArmorCorps0_5
	POIN2	HeavyArmorCorps0_6
	POIN2	HeavyArmorCorps0_7
	POIN2	HeavyArmorCorps0_8
	POIN2	HeavyArmorCorps0_9
	POIN2	HeavyArmorCorps0_10
	POIN2	HeavyArmorCorps0_11
	POIN2	HeavyArmorCorps0_12

	
