//Event file generated from Sappy .s format.
	#include "MPlayDef.event"

	#define	song34_grp  voicegroup000
	#define	song34_pri  0
	#define	song34_rev  0
	#define	song34_mvl  127
	#define	song34_key  0
	#define	song34_tbs  1
	#define	song34_exg  0
	#define	song34_cmp  1

	// .rodata
	//	song34
	ALIGN 4


//**************** Track 1 (Midi-Chn.0) ****************//

song34_001:
// 000   ----------------------------------------
 BYTE   KEYSH   song34_key+0
 BYTE   TEMPO   200*song34_tbs/2
 BYTE   VOICE   40
 BYTE   PAN   c_v-4
 BYTE   MOD 0
 BYTE   CnM2  v000
 BYTE   VOL   40*song34_mvl/mxv
 BYTE   BEND   c_v+0
 BYTE   W11
 BYTE   TEMPO   100*song34_tbs/2
 BYTE   W13
Label_0_BB4547:
 BYTE   W72
// 001   ----------------------------------------
 BYTE   W96
// 002   ----------------------------------------
 BYTE   W96
// 003   ----------------------------------------
 BYTE   W96
// 004   ----------------------------------------
 BYTE   W96
// 005   ----------------------------------------
 BYTE   W96
// 006   ----------------------------------------
 BYTE   W96
// 007   ----------------------------------------
 BYTE   W96
// 008   ----------------------------------------
 BYTE   W96
// 009   ----------------------------------------
 BYTE   W96
// 010   ----------------------------------------
 BYTE   W96
// 011   ----------------------------------------
 BYTE   W96
// 012   ----------------------------------------
 BYTE   W96
// 013   ----------------------------------------
 BYTE   W96
// 014   ----------------------------------------
 BYTE   W96
// 015   ----------------------------------------
 BYTE   W96
// 016   ----------------------------------------
 BYTE   W96
// 017   ----------------------------------------
 BYTE   W96
// 018   ----------------------------------------
 BYTE   W96
// 019   ----------------------------------------
 BYTE   W96
// 020   ----------------------------------------
 BYTE   W96
// 021   ----------------------------------------
 BYTE   W96
// 022   ----------------------------------------
 BYTE   W96
// 023   ----------------------------------------
 BYTE   W96
// 024   ----------------------------------------
 BYTE   W96
// 025   ----------------------------------------
 BYTE   W96
// 026   ----------------------------------------
 BYTE   W96
// 027   ----------------------------------------
 BYTE   W96
// 028   ----------------------------------------
 BYTE   W96
// 029   ----------------------------------------
 BYTE   W96
// 030   ----------------------------------------
 BYTE   W96
// 031   ----------------------------------------
 BYTE   W96
// 032   ----------------------------------------
Label_0_BB4567:
 BYTE   W24
 BYTE   N48  Cn4  v116
 BYTE   W48
 BYTE   N24  As3
 BYTE   W24
 BYTE   PEND 
// 033   ----------------------------------------
Label_0_BB4570:
 BYTE   N24  Cn4  v116
 BYTE   W24
 BYTE   N48  Dn4
 BYTE   W48
 BYTE   As3
 BYTE   W24
 BYTE   PEND 
// 034   ----------------------------------------
Label_0_BB457A:
 BYTE   W24
 BYTE   N48  Ds4  v116
 BYTE   W48
 BYTE   N72  Gn3  v112
 BYTE   W24
 BYTE   PEND 
// 035   ----------------------------------------
Label_0_BB4584:
 BYTE   W48
 BYTE   N24  Cn4  v116
 BYTE   W24
 BYTE   N36  Dn4
 BYTE   W24
 BYTE   PEND 
// 036   ----------------------------------------
Label_0_BB458D:
 BYTE   W12
 BYTE   N14  Ds4  v116
 BYTE   W12
 BYTE   N48  Gn4
 BYTE   W48
 BYTE   N24  Fn4
 BYTE   W24
 BYTE   PEND 
// 037   ----------------------------------------
Label_0_BB4599:
 BYTE   N24  Gn4  v116
 BYTE   W24
 BYTE   N48  As4  v120
 BYTE   W48
 BYTE   N24  Gs4  v116
 BYTE   W24
 BYTE   PEND 
// 038   ----------------------------------------
Label_0_BB45A6:
 BYTE   N24  Gn4  v116
 BYTE   W24
 BYTE   N48  Fn4
 BYTE   W48
 BYTE   Ds4
 BYTE   W24
 BYTE   PEND 
// 039   ----------------------------------------
 BYTE   W24
 BYTE   Dn4
 BYTE   W48
 BYTE   As3
 BYTE   W24
 BYTE   PATT
  POIN2 Label_0_BB4567
 BYTE   PATT
  POIN2 Label_0_BB4570
 BYTE   PATT
  POIN2 Label_0_BB457A
 BYTE   PATT
  POIN2 Label_0_BB4584
 BYTE   PATT
  POIN2 Label_0_BB458D
 BYTE   PATT
  POIN2 Label_0_BB4599
 BYTE   PATT
  POIN2 Label_0_BB45A6
// 040   ----------------------------------------
 BYTE   W24
 BYTE   N48  Dn4  v116
 BYTE   W48
 BYTE   Gn4
 BYTE   W24
// 041   ----------------------------------------
 BYTE   W24
 BYTE   Cn5
 BYTE   W48
 BYTE   N24  As4
 BYTE   W24
// 042   ----------------------------------------
 BYTE   Cn5
 BYTE   W24
 BYTE   N48  Dn5
 BYTE   W48
 BYTE   As4
 BYTE   W24
// 043   ----------------------------------------
 BYTE   W24
 BYTE   Fn5
 BYTE   W48
 BYTE   Ds5
 BYTE   W24
// 044   ----------------------------------------
 BYTE   W24
 BYTE   Dn5  v112
 BYTE   W44
 BYTE   W03
 BYTE   Cn5
 BYTE   W24
 BYTE   W01
// 045   ----------------------------------------
 BYTE   W24
 BYTE   TIE  As4
 BYTE   W72
// 046   ----------------------------------------
 BYTE   W24
 BYTE   Gs4
 BYTE   W02
 BYTE   EOT
 BYTE   As4
 BYTE   W68
 BYTE   W02
// 047   ----------------------------------------
 BYTE   W24
 BYTE   TIE  Gn4
 BYTE   W02
 BYTE   EOT
 BYTE   Gs4
 BYTE   W68
 BYTE   W02
// 048   ----------------------------------------
 BYTE   W96
// 049   ----------------------------------------
 BYTE   W24
 BYTE   Gn4
 BYTE   W72
// 050   ----------------------------------------
 BYTE   W96
// 051   ----------------------------------------
 BYTE   W24
 BYTE   GoTo
  POIN2 Label_0_BB4547
 BYTE   FINE

//**************** Track 2 (Midi-Chn.1) ****************//

song34_002:
// 000   ----------------------------------------
 BYTE   KEYSH   song34_key+0
 BYTE   VOICE   40
 BYTE   PAN   c_v-4
 BYTE   MOD 0
 BYTE   CnM2  v000
 BYTE   VOL   34*song34_mvl/mxv
 BYTE   BEND   c_v+0
 BYTE   W24
Label_1_BB4626:
 BYTE   W72
// 001   ----------------------------------------
 BYTE   W96
// 002   ----------------------------------------
 BYTE   W96
// 003   ----------------------------------------
 BYTE   W96
// 004   ----------------------------------------
 BYTE   W96
// 005   ----------------------------------------
 BYTE   W96
// 006   ----------------------------------------
 BYTE   W96
// 007   ----------------------------------------
 BYTE   W96
// 008   ----------------------------------------
 BYTE   W96
// 009   ----------------------------------------
 BYTE   W96
// 010   ----------------------------------------
 BYTE   W96
// 011   ----------------------------------------
 BYTE   W96
// 012   ----------------------------------------
 BYTE   W96
// 013   ----------------------------------------
 BYTE   W96
// 014   ----------------------------------------
 BYTE   W96
// 015   ----------------------------------------
 BYTE   W96
// 016   ----------------------------------------
 BYTE   W96
// 017   ----------------------------------------
 BYTE   W96
// 018   ----------------------------------------
 BYTE   W96
// 019   ----------------------------------------
 BYTE   W96
// 020   ----------------------------------------
 BYTE   W96
// 021   ----------------------------------------
 BYTE   W96
// 022   ----------------------------------------
 BYTE   W96
// 023   ----------------------------------------
 BYTE   W96
// 024   ----------------------------------------
 BYTE   W96
// 025   ----------------------------------------
 BYTE   W96
// 026   ----------------------------------------
 BYTE   W96
// 027   ----------------------------------------
 BYTE   W96
// 028   ----------------------------------------
 BYTE   W96
// 029   ----------------------------------------
 BYTE   W96
// 030   ----------------------------------------
 BYTE   W96
// 031   ----------------------------------------
 BYTE   W96
// 032   ----------------------------------------
Label_1_BB4646:
 BYTE   W24
 BYTE   N48  Cn3  v116
 BYTE   W48
 BYTE   N24  As2
 BYTE   W24
 BYTE   PEND 
// 033   ----------------------------------------
Label_1_BB464F:
 BYTE   N24  Cn3  v116
 BYTE   W24
 BYTE   N48  Dn3
 BYTE   W48
 BYTE   As2
 BYTE   W24
 BYTE   PEND 
// 034   ----------------------------------------
Label_1_BB4659:
 BYTE   W24
 BYTE   N48  Ds3  v116
 BYTE   W48
 BYTE   N72  Gn2  v112
 BYTE   W24
 BYTE   PEND 
// 035   ----------------------------------------
Label_1_BB4663:
 BYTE   W48
 BYTE   N24  Cn3  v116
 BYTE   W24
 BYTE   N36  Dn3
 BYTE   W24
 BYTE   PEND 
// 036   ----------------------------------------
Label_1_BB466C:
 BYTE   W12
 BYTE   N14  Ds3  v116
 BYTE   W12
 BYTE   N48  Gn3  v120
 BYTE   W48
 BYTE   N24  Fn3  v116
 BYTE   W24
 BYTE   PEND 
// 037   ----------------------------------------
Label_1_BB467A:
 BYTE   N24  Gn3  v116
 BYTE   W24
 BYTE   N48  As3  v120
 BYTE   W48
 BYTE   N24  Gs3  v116
 BYTE   W24
 BYTE   PEND 
// 038   ----------------------------------------
Label_1_BB4687:
 BYTE   N24  Gn3  v116
 BYTE   W24
 BYTE   N48  Fn3
 BYTE   W48
 BYTE   Ds3
 BYTE   W24
 BYTE   PEND 
// 039   ----------------------------------------
 BYTE   W24
 BYTE   Dn3  v112
 BYTE   W48
 BYTE   As2  v108
 BYTE   W24
 BYTE   PATT
  POIN2 Label_1_BB4646
 BYTE   PATT
  POIN2 Label_1_BB464F
 BYTE   PATT
  POIN2 Label_1_BB4659
 BYTE   PATT
  POIN2 Label_1_BB4663
 BYTE   PATT
  POIN2 Label_1_BB466C
 BYTE   PATT
  POIN2 Label_1_BB467A
 BYTE   PATT
  POIN2 Label_1_BB4687
// 040   ----------------------------------------
 BYTE   W24
 BYTE   N48  Dn3  v112
 BYTE   W48
 BYTE   Gn3  v108
 BYTE   W24
// 041   ----------------------------------------
 BYTE   W24
 BYTE   Cn4  v116
 BYTE   W48
 BYTE   N24  As3
 BYTE   W24
// 042   ----------------------------------------
 BYTE   Cn4
 BYTE   W24
 BYTE   N48  Dn4
 BYTE   W48
 BYTE   As3
 BYTE   W24
// 043   ----------------------------------------
 BYTE   W24
 BYTE   Fn4
 BYTE   W48
 BYTE   Ds4  v112
 BYTE   W24
// 044   ----------------------------------------
 BYTE   W24
 BYTE   N24  Dn4
 BYTE   W24
 BYTE   Gn3  v116
 BYTE   W24
 BYTE   N36  Cn4
 BYTE   W24
// 045   ----------------------------------------
 BYTE   W12
 BYTE   N14  As3
 BYTE   W12
 BYTE   N48  Ds3
 BYTE   W48
 BYTE   N24  Fn3
 BYTE   W24
// 046   ----------------------------------------
 BYTE   Gn3
 BYTE   W24
 BYTE   N48  Fn3  v120
 BYTE   W48
 BYTE   N24  Gn3  v116
 BYTE   W24
// 047   ----------------------------------------
 BYTE   Gs3
 BYTE   W24
 BYTE   TIE  Gn3
 BYTE   W72
// 048   ----------------------------------------
 BYTE   W96
// 049   ----------------------------------------
 BYTE   W24
 BYTE   EOT
 BYTE   W72
// 050   ----------------------------------------
 BYTE   W96
// 051   ----------------------------------------
 BYTE   W24
 BYTE   GoTo
  POIN2 Label_1_BB4626
 BYTE   FINE

//**************** Track 3 (Midi-Chn.2) ****************//

song34_003:
// 000   ----------------------------------------
 BYTE   KEYSH   song34_key+0
 BYTE   VOICE   45
 BYTE   PAN   c_v-6
 BYTE   MOD 0
 BYTE   CnM2  v000
 BYTE   VOL   32*song34_mvl/mxv
 BYTE   BEND   c_v+0
 BYTE   W24
Label_2_BB4714:
 BYTE   W72
// 001   ----------------------------------------
 BYTE   W96
// 002   ----------------------------------------
 BYTE   W96
// 003   ----------------------------------------
 BYTE   W96
// 004   ----------------------------------------
 BYTE   W96
// 005   ----------------------------------------
 BYTE   W96
// 006   ----------------------------------------
 BYTE   W96
// 007   ----------------------------------------
 BYTE   W96
// 008   ----------------------------------------
 BYTE   W96
// 009   ----------------------------------------
 BYTE   W96
// 010   ----------------------------------------
 BYTE   W96
// 011   ----------------------------------------
 BYTE   W72
 BYTE   N48  Gn2  v104
 BYTE   W24
// 012   ----------------------------------------
 BYTE   W24
 BYTE   TIE  Fn2  v108
 BYTE   N48  Cn3
 BYTE   W48
 BYTE   TIE  As2  v104
 BYTE   W24
// 013   ----------------------------------------
 BYTE   W72
 BYTE   N48  Cn3  v108
 BYTE   W02
 BYTE   EOT
 BYTE   As2
 BYTE   W22
// 014   ----------------------------------------
 BYTE   N24  Gn2
 BYTE   W02
 BYTE   EOT
 BYTE   Fn2
 BYTE   W22
 BYTE   TIE  Gs2
 BYTE   N48  Ds3
 BYTE   W48
 BYTE   TIE  Cs3
 BYTE   W24
// 015   ----------------------------------------
 BYTE   W72
 BYTE   N48  Gs3
 BYTE   W02
 BYTE   EOT
 BYTE   Cs3
 BYTE   W22
// 016   ----------------------------------------
Label_2_BB474C:
 BYTE   W24
 BYTE   TIE  Gn2  v108
 BYTE   TIE  Gn3
 BYTE   W02
 BYTE   PEND 
 BYTE   EOT
 BYTE   Gs2
 BYTE   W68
 BYTE   W02
// 017   ----------------------------------------
Label_2_BB4758:
 BYTE   W72
 BYTE   N48  Fn2  v104
 BYTE   N48  Fn3
 BYTE   W02
 BYTE   PEND 
 BYTE   EOT
 BYTE   Gn2  v067
 BYTE   W22
// 018   ----------------------------------------
Label_2_BB4764:
 BYTE   W24
 BYTE   TIE  Ds2  v104
 BYTE   TIE  Ds3
 BYTE   W72
 BYTE   PEND 
// 019   ----------------------------------------
Label_2_BB476C:
 BYTE   W24
 BYTE   N48  Dn2  v104
 BYTE   N48  Dn3
 BYTE   W02
 BYTE   PEND 
 BYTE   EOT
 BYTE   Ds2  v063
 BYTE   W44
 BYTE   W02
 BYTE   N48  Cn2
 BYTE   N48  Cn3
 BYTE   W24
// 020   ----------------------------------------
Label_2_BB477E:
 BYTE   W24
 BYTE   TIE  Gn2  v104
 BYTE   TIE  Gn3
 BYTE   W72
 BYTE   PEND 
// 021   ----------------------------------------
Label_2_BB4786:
 BYTE   W72
 BYTE   N24  Fn2  v104
 BYTE   N24  Fn3
 BYTE   W02
 BYTE   PEND 
 BYTE   EOT
 BYTE   Gn2  v067
 BYTE   W22
// 022   ----------------------------------------
 BYTE   N24  Gn2
 BYTE   N24  Gn3
 BYTE   W24
 BYTE   TIE  Gs2  v108
 BYTE   TIE  Gs3
 BYTE   W72
// 023   ----------------------------------------
 BYTE   W24
 BYTE   Fn2
 BYTE   TIE  Fn3
 BYTE   W02
 BYTE   EOT
 BYTE   Gs2  v068
 BYTE   W68
 BYTE   W02
 BYTE   PATT
  POIN2 Label_2_BB474C
// 024   ----------------------------------------
 BYTE   EOT
 BYTE   Fn2  v065
 BYTE   W68
 BYTE   W02
 BYTE   PATT
  POIN2 Label_2_BB4758
// 025   ----------------------------------------
 BYTE   EOT
 BYTE   Gn2  v067
 BYTE   W22
 BYTE   PATT
  POIN2 Label_2_BB4764
 BYTE   PATT
  POIN2 Label_2_BB476C
// 026   ----------------------------------------
 BYTE   EOT
 BYTE   Ds2  v063
 BYTE   W44
 BYTE   W02
 BYTE   N48  Cn2  v104
 BYTE   N48  Cn3
 BYTE   W24
 BYTE   PATT
  POIN2 Label_2_BB477E
 BYTE   PATT
  POIN2 Label_2_BB4786
// 027   ----------------------------------------
 BYTE   EOT
 BYTE   Gn2  v067
 BYTE   W22
 BYTE   N24  Gn2  v104
 BYTE   N24  Gn3
 BYTE   W24
 BYTE   N48  Gs2  v108
 BYTE   N48  Gs3
 BYTE   W48
 BYTE   N36  Cs2  v104
 BYTE   N36  Cs3
 BYTE   W24
// 028   ----------------------------------------
 BYTE   W12
 BYTE   N14  Ds2  v108
 BYTE   N14  Ds3
 BYTE   W12
 BYTE   N24  Fn2
 BYTE   N24  Fn3
 BYTE   W24
 BYTE   Gn2
 BYTE   N24  Gn3
 BYTE   W24
 BYTE   Gs2
 BYTE   N24  Gs3
 BYTE   W24
// 029   ----------------------------------------
 BYTE   As2  v112
 BYTE   N24  As3
 BYTE   W24
 BYTE   TIE  Gn2  v108
 BYTE   TIE  Gn3
 BYTE   W72
// 030   ----------------------------------------
 BYTE   W96
// 031   ----------------------------------------
 BYTE   W96
// 032   ----------------------------------------
 BYTE   W96
// 033   ----------------------------------------
Label_2_BB4811:
 BYTE   W24
 BYTE   TIE  Gs2  v108
 BYTE   TIE  Cn3
 BYTE   W02
 BYTE   PEND 
 BYTE   EOT
 BYTE   Gn2  v067
 BYTE   W68
 BYTE   W02
// 034   ----------------------------------------
Label_2_BB481E:
 BYTE   W24
 BYTE   TIE  Fn3  v112
 BYTE   W02
 BYTE   PEND 
 BYTE   EOT
 BYTE   Cn3
 BYTE   W68
 BYTE   W02
// 035   ----------------------------------------
 BYTE   W24
 BYTE   TIE  Gn2  v108
 BYTE   TIE  As2
 BYTE   W02
 BYTE   EOT
 BYTE   Gs2  v065
 BYTE   W68
 BYTE   W02
// 036   ----------------------------------------
 BYTE   W96
// 037   ----------------------------------------
 BYTE   W24
 BYTE   Gn2  v058
 BYTE   TIE  Gn2
 BYTE   TIE  Gn3
 BYTE   W72
// 038   ----------------------------------------
 BYTE   W96
// 039   ----------------------------------------
 BYTE   W96
// 040   ----------------------------------------
 BYTE   W96
 BYTE   PATT
  POIN2 Label_2_BB4811
// 041   ----------------------------------------
 BYTE   EOT
 BYTE   Gn2  v067
 BYTE   W68
 BYTE   W02
 BYTE   PATT
  POIN2 Label_2_BB481E
// 042   ----------------------------------------
 BYTE   EOT
 BYTE   Cn3
 BYTE   W68
 BYTE   W02
 BYTE   W24
 BYTE   TIE  Gn2  v108
 BYTE   N96  As2
 BYTE   W02
// 043   ----------------------------------------
 BYTE   EOT
 BYTE   Gs2  v065
 BYTE   W68
 BYTE   W02
 BYTE   W96
// 044   ----------------------------------------
 BYTE   W24
 BYTE   Gn2
 BYTE   N96  Gs2
 BYTE   N96  Cn3
 BYTE   W72
// 045   ----------------------------------------
 BYTE   W24
 BYTE   TIE  As2
 BYTE   TIE  Dn3
 BYTE   W72
// 046   ----------------------------------------
 BYTE   W72
 BYTE   EOT
 BYTE   As2  v062
 BYTE   N48  Cn3
 BYTE   N48  Ds3
 BYTE   W24
// 047   ----------------------------------------
 BYTE   W24
 BYTE   Dn3
 BYTE   N48  Fn3
 BYTE   W48
 BYTE   Ds3
 BYTE   N48  Gn3
 BYTE   W24
// 048   ----------------------------------------
 BYTE   W24
 BYTE   N96  Cn3
 BYTE   TIE  Gs3
 BYTE   W72
// 049   ----------------------------------------
 BYTE   W24
 BYTE   N96  Cs3
 BYTE   W72
// 050   ----------------------------------------
 BYTE   W24
 BYTE   EOT
 BYTE   Gs3
 BYTE   N96  Dn3
 BYTE   N48  Gn3
 BYTE   W48
 BYTE   N96  Cn4
 BYTE   W24
// 051   ----------------------------------------
 BYTE   W24
 BYTE   Fn3
 BYTE   W48
 BYTE   N48  Bn3
 BYTE   W24
// 052   ----------------------------------------
 BYTE   W96
// 053   ----------------------------------------
 BYTE   W96
// 054   ----------------------------------------
 BYTE   W24
 BYTE   GoTo
  POIN2 Label_2_BB4714
 BYTE   FINE

//**************** Track 4 (Midi-Chn.3) ****************//

song34_004:
// 000   ----------------------------------------
 BYTE   KEYSH   song34_key+0
 BYTE   VOICE   40
 BYTE   PAN   c_v+7
 BYTE   MOD 0
 BYTE   CnM2  v000
 BYTE   W01
 BYTE   VOL   32*song34_mvl/mxv
 BYTE   BEND   c_v+0
 BYTE   W23
Label_3_BB48B2:
 BYTE   W72
// 001   ----------------------------------------
 BYTE   W96
// 002   ----------------------------------------
 BYTE   W96
// 003   ----------------------------------------
 BYTE   W96
// 004   ----------------------------------------
 BYTE   W96
// 005   ----------------------------------------
 BYTE   W96
// 006   ----------------------------------------
 BYTE   W96
// 007   ----------------------------------------
 BYTE   W96
// 008   ----------------------------------------
 BYTE   W96
// 009   ----------------------------------------
 BYTE   W96
// 010   ----------------------------------------
 BYTE   W96
// 011   ----------------------------------------
 BYTE   W72
 BYTE   N48  Gn2  v104
 BYTE   W24
// 012   ----------------------------------------
 BYTE   W24
 BYTE   TIE  Fn2  v108
 BYTE   N48  Cn3
 BYTE   W48
 BYTE   TIE  As2  v104
 BYTE   W24
// 013   ----------------------------------------
 BYTE   W72
 BYTE   N48  Cn3  v108
 BYTE   W02
 BYTE   EOT
 BYTE   As2
 BYTE   W22
// 014   ----------------------------------------
 BYTE   N24  Gn2
 BYTE   W02
 BYTE   EOT
 BYTE   Fn2
 BYTE   W22
 BYTE   TIE  Gs2
 BYTE   N48  Ds3
 BYTE   W48
 BYTE   TIE  Cs3
 BYTE   W24
// 015   ----------------------------------------
 BYTE   W72
 BYTE   N48  Gs3
 BYTE   W02
 BYTE   EOT
 BYTE   Cs3
 BYTE   W22
// 016   ----------------------------------------
Label_3_BB48EA:
 BYTE   W24
 BYTE   TIE  Gn2  v108
 BYTE   TIE  Gn3
 BYTE   W02
 BYTE   PEND 
 BYTE   EOT
 BYTE   Gs2
 BYTE   W68
 BYTE   W02
// 017   ----------------------------------------
Label_3_BB48F6:
 BYTE   W72
 BYTE   N48  Fn2  v104
 BYTE   N48  Fn3
 BYTE   W02
 BYTE   PEND 
 BYTE   EOT
 BYTE   Gn2  v067
 BYTE   W22
// 018   ----------------------------------------
Label_3_BB4902:
 BYTE   W24
 BYTE   TIE  Ds2  v104
 BYTE   TIE  Ds3
 BYTE   W72
 BYTE   PEND 
// 019   ----------------------------------------
Label_3_BB490A:
 BYTE   W24
 BYTE   N48  Dn2  v104
 BYTE   N48  Dn3
 BYTE   W02
 BYTE   PEND 
 BYTE   EOT
 BYTE   Ds2  v063
 BYTE   W44
 BYTE   W02
 BYTE   N48  Cn2
 BYTE   N48  Cn3
 BYTE   W24
// 020   ----------------------------------------
Label_3_BB491C:
 BYTE   W24
 BYTE   TIE  Gn2  v104
 BYTE   TIE  Gn3
 BYTE   W72
 BYTE   PEND 
// 021   ----------------------------------------
Label_3_BB4924:
 BYTE   W72
 BYTE   N24  Fn2  v104
 BYTE   N24  Fn3
 BYTE   W02
 BYTE   PEND 
 BYTE   EOT
 BYTE   Gn2  v067
 BYTE   W22
// 022   ----------------------------------------
 BYTE   N24  Gn2
 BYTE   N24  Gn3
 BYTE   W24
 BYTE   TIE  Gs2  v108
 BYTE   TIE  Gs3
 BYTE   W72
// 023   ----------------------------------------
 BYTE   W24
 BYTE   Fn2
 BYTE   TIE  Fn3
 BYTE   W02
 BYTE   EOT
 BYTE   Gs2  v068
 BYTE   W68
 BYTE   W02
 BYTE   PATT
  POIN2 Label_3_BB48EA
// 024   ----------------------------------------
 BYTE   EOT
 BYTE   Fn2  v065
 BYTE   W68
 BYTE   W02
 BYTE   PATT
  POIN2 Label_3_BB48F6
// 025   ----------------------------------------
 BYTE   EOT
 BYTE   Gn2  v067
 BYTE   W22
 BYTE   PATT
  POIN2 Label_3_BB4902
 BYTE   PATT
  POIN2 Label_3_BB490A
// 026   ----------------------------------------
 BYTE   EOT
 BYTE   Ds2  v063
 BYTE   W44
 BYTE   W02
 BYTE   N48  Cn2  v104
 BYTE   N48  Cn3
 BYTE   W24
 BYTE   PATT
  POIN2 Label_3_BB491C
 BYTE   PATT
  POIN2 Label_3_BB4924
// 027   ----------------------------------------
 BYTE   EOT
 BYTE   Gn2  v067
 BYTE   W22
 BYTE   N24  Gn2  v104
 BYTE   N24  Gn3
 BYTE   W24
 BYTE   N48  Gs2  v108
 BYTE   N48  Gs3
 BYTE   W48
 BYTE   N36  Cs2  v104
 BYTE   N36  Cs3
 BYTE   W24
// 028   ----------------------------------------
 BYTE   W12
 BYTE   N14  Ds2  v108
 BYTE   N14  Ds3
 BYTE   W12
 BYTE   N24  Fn2
 BYTE   N24  Fn3
 BYTE   W24
 BYTE   Gn2
 BYTE   N24  Gn3
 BYTE   W24
 BYTE   Gs2
 BYTE   N24  Gs3
 BYTE   W24
// 029   ----------------------------------------
 BYTE   As2  v112
 BYTE   N24  As3
 BYTE   W24
 BYTE   TIE  Gn2  v108
 BYTE   TIE  Gn3
 BYTE   W72
// 030   ----------------------------------------
 BYTE   W96
// 031   ----------------------------------------
 BYTE   W96
// 032   ----------------------------------------
 BYTE   W96
// 033   ----------------------------------------
Label_3_BB49AF:
 BYTE   W24
 BYTE   TIE  Gs2  v108
 BYTE   TIE  Cn3
 BYTE   W02
 BYTE   PEND 
 BYTE   EOT
 BYTE   Gn2  v067
 BYTE   W68
 BYTE   W02
// 034   ----------------------------------------
Label_3_BB49BC:
 BYTE   W24
 BYTE   TIE  Fn3  v112
 BYTE   W02
 BYTE   PEND 
 BYTE   EOT
 BYTE   Cn3
 BYTE   W68
 BYTE   W02
// 035   ----------------------------------------
 BYTE   W24
 BYTE   TIE  Gn2  v108
 BYTE   TIE  As2
 BYTE   W02
 BYTE   EOT
 BYTE   Gs2  v065
 BYTE   W68
 BYTE   W02
// 036   ----------------------------------------
 BYTE   W96
// 037   ----------------------------------------
 BYTE   W24
 BYTE   Gn2  v058
 BYTE   TIE  Gn2
 BYTE   TIE  Gn3
 BYTE   W72
// 038   ----------------------------------------
 BYTE   W96
// 039   ----------------------------------------
 BYTE   W96
// 040   ----------------------------------------
 BYTE   W96
 BYTE   PATT
  POIN2 Label_3_BB49AF
// 041   ----------------------------------------
 BYTE   EOT
 BYTE   Gn2  v067
 BYTE   W68
 BYTE   W02
 BYTE   PATT
  POIN2 Label_3_BB49BC
// 042   ----------------------------------------
 BYTE   EOT
 BYTE   Cn3
 BYTE   W68
 BYTE   W02
 BYTE   W24
 BYTE   TIE  Gn2  v108
 BYTE   N96  As2
 BYTE   W02
// 043   ----------------------------------------
 BYTE   EOT
 BYTE   Gs2  v065
 BYTE   W68
 BYTE   W02
 BYTE   W96
// 044   ----------------------------------------
 BYTE   W24
 BYTE   Gn2
 BYTE   N96  Gs2
 BYTE   N96  Cn3
 BYTE   W72
// 045   ----------------------------------------
 BYTE   W24
 BYTE   TIE  As2
 BYTE   TIE  Dn3
 BYTE   W72
// 046   ----------------------------------------
 BYTE   W72
 BYTE   EOT
 BYTE   As2  v062
 BYTE   N48  Cn3
 BYTE   N48  Ds3
 BYTE   W24
// 047   ----------------------------------------
 BYTE   W24
 BYTE   Dn3
 BYTE   N48  Fn3
 BYTE   W48
 BYTE   Ds3
 BYTE   N48  Gn3
 BYTE   W24
// 048   ----------------------------------------
 BYTE   W24
 BYTE   N96  Cn3
 BYTE   TIE  Gs3
 BYTE   W72
// 049   ----------------------------------------
 BYTE   W24
 BYTE   N96  Cs3
 BYTE   W72
// 050   ----------------------------------------
 BYTE   W24
 BYTE   EOT
 BYTE   Gs3
 BYTE   N96  Dn3
 BYTE   N48  Gn3
 BYTE   W48
 BYTE   N96  Cn4
 BYTE   W24
// 051   ----------------------------------------
 BYTE   W24
 BYTE   Fn3
 BYTE   W48
 BYTE   N48  Bn3
 BYTE   W24
// 052   ----------------------------------------
 BYTE   W96
// 053   ----------------------------------------
 BYTE   W96
// 054   ----------------------------------------
 BYTE   W24
 BYTE   GoTo
  POIN2 Label_3_BB48B2
 BYTE   FINE

//**************** Track 5 (Midi-Chn.4) ****************//

song34_005:
// 000   ----------------------------------------
 BYTE   KEYSH   song34_key+0
 BYTE   PAN   c_v-3
 BYTE   W01
 BYTE   VOICE   51
 BYTE   MOD 0
 BYTE   CnM2  v000
 BYTE   VOL   24*song34_mvl/mxv
 BYTE   BEND   c_v+0
 BYTE   W23
Label_4_BB4A50:
 BYTE   W72
// 001   ----------------------------------------
 BYTE   W96
// 002   ----------------------------------------
Label_4_BB4A52:
 BYTE   W24
 BYTE   N03  Ds2  v116
 BYTE   W06
 BYTE   Ds2  v112
 BYTE   W06
 BYTE   Ds2  v116
 BYTE   W24
 BYTE   Ds2  v112
 BYTE   W06
 BYTE   N03
 BYTE   W06
 BYTE   Ds2  v116
 BYTE   W24
 BYTE   PEND 
// 003   ----------------------------------------
Label_4_BB4A66:
 BYTE   N03  Ds2  v112
 BYTE   W06
 BYTE   N03
 BYTE   W06
 BYTE   Ds2  v116
 BYTE   W06
 BYTE   N03
 BYTE   W06
 BYTE   N03
 BYTE   W06
 BYTE   Ds2  v112
 BYTE   W06
 BYTE   Ds2  v116
 BYTE   W24
 BYTE   Ds2  v112
 BYTE   W06
 BYTE   N03
 BYTE   W06
 BYTE   Ds2  v116
 BYTE   W24
 BYTE   PEND 
// 004   ----------------------------------------
 BYTE   Ds2  v112
 BYTE   W06
 BYTE   N03
 BYTE   W06
 BYTE   Ds2  v116
 BYTE   W06
 BYTE   N03
 BYTE   W06
 BYTE   Cs2
 BYTE   N03  Fn2
 BYTE   W06
 BYTE   Cs2  v112
 BYTE   N03  Fn2
 BYTE   W06
 BYTE   Cs2  v116
 BYTE   N03  Fn2
 BYTE   W24
 BYTE   Cs2  v112
 BYTE   N03  Fn2
 BYTE   W06
 BYTE   Cs2
 BYTE   N03  Fn2
 BYTE   W06
 BYTE   Cs2  v116
 BYTE   N03  Fn2
 BYTE   W24
// 005   ----------------------------------------
 BYTE   Cs2  v112
 BYTE   N03  Fn2
 BYTE   W06
 BYTE   Cs2
 BYTE   N03  Fn2
 BYTE   W06
 BYTE   Cs2  v116
 BYTE   N03  Fn2
 BYTE   W06
 BYTE   Cs2
 BYTE   N03  Fn2
 BYTE   W06
 BYTE   Cs2
 BYTE   N03  Fn2
 BYTE   W06
 BYTE   Cs2  v112
 BYTE   N03  Fn2
 BYTE   W06
 BYTE   Cs2  v116
 BYTE   N03  Fn2
 BYTE   W24
 BYTE   Cs2  v112
 BYTE   N03  Fn2
 BYTE   W06
 BYTE   Cs2
 BYTE   N03  Fn2
 BYTE   W06
 BYTE   Cs2  v116
 BYTE   N03  Fn2
 BYTE   W24
// 006   ----------------------------------------
 BYTE   Cs2  v112
 BYTE   N03  Fn2
 BYTE   W06
 BYTE   Cs2
 BYTE   N03  Fn2
 BYTE   W06
 BYTE   Cs2  v116
 BYTE   N03  Fn2
 BYTE   W06
 BYTE   Cs2
 BYTE   N03  Fn2
 BYTE   W06
 BYTE   Cs2
 BYTE   N03  Gs2
 BYTE   W06
 BYTE   Cs2  v112
 BYTE   N03  Gs2
 BYTE   W06
 BYTE   Cs2  v116
 BYTE   N03  Gs2
 BYTE   W24
 BYTE   Cs2  v112
 BYTE   N03  Gs2
 BYTE   W06
 BYTE   Cs2
 BYTE   N03  Gs2
 BYTE   W06
 BYTE   Cs2  v116
 BYTE   N03  Gs2
 BYTE   W24
// 007   ----------------------------------------
 BYTE   Cs2  v112
 BYTE   N03  Gs2
 BYTE   W06
 BYTE   Cs2
 BYTE   N03  Gs2
 BYTE   W06
 BYTE   Cs2  v116
 BYTE   N03  Gs2
 BYTE   W06
 BYTE   Cs2
 BYTE   N03  Gs2
 BYTE   W06
 BYTE   Fn2
 BYTE   N03  Cs3
 BYTE   W06
 BYTE   Fn2  v112
 BYTE   N03  Cs3
 BYTE   W06
 BYTE   Fn2  v116
 BYTE   N03  Cs3
 BYTE   W24
 BYTE   Fn2  v112
 BYTE   N03  Cs3
 BYTE   W06
 BYTE   Fn2
 BYTE   N03  Cs3
 BYTE   W06
 BYTE   Fn2  v116
 BYTE   N03  Cs3
 BYTE   W24
// 008   ----------------------------------------
 BYTE   Fn2  v112
 BYTE   N03  Cs3
 BYTE   W06
 BYTE   Fn2
 BYTE   N03  Cs3
 BYTE   W06
 BYTE   Fn2  v116
 BYTE   N03  Cs3
 BYTE   W06
 BYTE   Fn2
 BYTE   N03  Cs3
 BYTE   W78
// 009   ----------------------------------------
 BYTE   W96
 BYTE   PATT
  POIN2 Label_4_BB4A52
 BYTE   PATT
  POIN2 Label_4_BB4A66
// 010   ----------------------------------------
 BYTE   N03  Ds2  v112
 BYTE   W06
 BYTE   N03
 BYTE   W06
 BYTE   Ds2  v116
 BYTE   W06
 BYTE   N03
 BYTE   W78
// 011   ----------------------------------------
 BYTE   W96
// 012   ----------------------------------------
 BYTE   W96
// 013   ----------------------------------------
 BYTE   W96
// 014   ----------------------------------------
 BYTE   W96
// 015   ----------------------------------------
 BYTE   W96
// 016   ----------------------------------------
 BYTE   W96
// 017   ----------------------------------------
 BYTE   W96
// 018   ----------------------------------------
 BYTE   W96
// 019   ----------------------------------------
 BYTE   W96
// 020   ----------------------------------------
 BYTE   W96
// 021   ----------------------------------------
 BYTE   W96
// 022   ----------------------------------------
 BYTE   W96
// 023   ----------------------------------------
 BYTE   W96
// 024   ----------------------------------------
 BYTE   W96
// 025   ----------------------------------------
 BYTE   W96
// 026   ----------------------------------------
 BYTE   W96
// 027   ----------------------------------------
 BYTE   W96
// 028   ----------------------------------------
 BYTE   W96
// 029   ----------------------------------------
 BYTE   W96
// 030   ----------------------------------------
 BYTE   W96
// 031   ----------------------------------------
 BYTE   W96
// 032   ----------------------------------------
 BYTE   W96
// 033   ----------------------------------------
 BYTE   W96
// 034   ----------------------------------------
 BYTE   W96
// 035   ----------------------------------------
 BYTE   W96
// 036   ----------------------------------------
 BYTE   W96
// 037   ----------------------------------------
 BYTE   W96
// 038   ----------------------------------------
 BYTE   W96
// 039   ----------------------------------------
 BYTE   W96
// 040   ----------------------------------------
 BYTE   W96
// 041   ----------------------------------------
 BYTE   W96
// 042   ----------------------------------------
 BYTE   W96
// 043   ----------------------------------------
 BYTE   W96
// 044   ----------------------------------------
 BYTE   W96
// 045   ----------------------------------------
 BYTE   W96
// 046   ----------------------------------------
 BYTE   W96
// 047   ----------------------------------------
 BYTE   W96
// 048   ----------------------------------------
 BYTE   W96
// 049   ----------------------------------------
 BYTE   W96
// 050   ----------------------------------------
 BYTE   W96
// 051   ----------------------------------------
 BYTE   W96
// 052   ----------------------------------------
 BYTE   W96
// 053   ----------------------------------------
 BYTE   W96
// 054   ----------------------------------------
 BYTE   W96
// 055   ----------------------------------------
 BYTE   W96
// 056   ----------------------------------------
 BYTE   W24
 BYTE   GoTo
  POIN2 Label_4_BB4A50
 BYTE   FINE

//**************** Track 6 (Midi-Chn.5) ****************//

song34_006:
// 000   ----------------------------------------
 BYTE   KEYSH   song34_key+0
 BYTE   VOICE   50
 BYTE   PAN   c_v-9
 BYTE   W01
 BYTE   MOD 0
 BYTE   CnM2  v000
 BYTE   VOL   40*song34_mvl/mxv
 BYTE   BEND   c_v+0
 BYTE   W23
Label_5_BB4B9D:
 BYTE   N03  Cn2  v116
 BYTE   W06
 BYTE   Cn2  v112
 BYTE   W06
 BYTE   Cn2  v116
 BYTE   W24
 BYTE   Cn2  v112
 BYTE   W06
 BYTE   N03
 BYTE   W06
 BYTE   Cn2  v116
 BYTE   W24
// 001   ----------------------------------------
Label_5_BB4BAF:
 BYTE   N03  Cn2  v112
 BYTE   W06
 BYTE   N03
 BYTE   W06
 BYTE   Cn2  v116
 BYTE   W06
 BYTE   N03
 BYTE   W06
 BYTE   N03
 BYTE   W06
 BYTE   Cn2  v112
 BYTE   W06
 BYTE   Cn2  v116
 BYTE   W24
 BYTE   Cn2  v112
 BYTE   W06
 BYTE   N03
 BYTE   W06
 BYTE   Cn2  v116
 BYTE   W24
 BYTE   PEND 
 BYTE   PATT
  POIN2 Label_5_BB4BAF
 BYTE   PATT
  POIN2 Label_5_BB4BAF
 BYTE   PATT
  POIN2 Label_5_BB4BAF
 BYTE   PATT
  POIN2 Label_5_BB4BAF
// 002   ----------------------------------------
 BYTE   N03  Cn2  v112
 BYTE   W06
 BYTE   N03
 BYTE   W06
 BYTE   Cn2  v116
 BYTE   W06
 BYTE   N03
 BYTE   W06
 BYTE   N03
 BYTE   N03  Fn2
 BYTE   W06
 BYTE   Cn2  v112
 BYTE   N03  Fn2
 BYTE   W06
 BYTE   Cn2  v116
 BYTE   N03  Fn2
 BYTE   W24
 BYTE   Cn2  v112
 BYTE   N03  Fn2
 BYTE   W06
 BYTE   Cn2
 BYTE   N03  Fn2
 BYTE   W06
 BYTE   Cn2  v116
 BYTE   N03  Fn2
 BYTE   W24
// 003   ----------------------------------------
 BYTE   Cn2  v112
 BYTE   N03  Fn2
 BYTE   W06
 BYTE   Cn2
 BYTE   N03  Fn2
 BYTE   W06
 BYTE   Cn2  v116
 BYTE   N03  Fn2
 BYTE   W06
 BYTE   Cn2
 BYTE   N03  Fn2
 BYTE   W06
 BYTE   Cs2
 BYTE   N03  Gs2
 BYTE   W06
 BYTE   Cs2  v112
 BYTE   N03  Gs2
 BYTE   W06
 BYTE   Cs2  v116
 BYTE   N03  Gs2
 BYTE   W24
 BYTE   Cs2  v112
 BYTE   N03  Gs2
 BYTE   W06
 BYTE   Cs2
 BYTE   N03  Gs2
 BYTE   W06
 BYTE   Cs2  v116
 BYTE   N03  Gs2
 BYTE   W24
// 004   ----------------------------------------
 BYTE   Cs2  v112
 BYTE   N03  Gs2
 BYTE   W06
 BYTE   Cs2
 BYTE   N03  Gs2
 BYTE   W06
 BYTE   Cs2  v116
 BYTE   N03  Gs2
 BYTE   W06
 BYTE   Cs2
 BYTE   N03  Gs2
 BYTE   W06
 BYTE   Cn2
 BYTE   W06
 BYTE   Cn2  v112
 BYTE   W06
 BYTE   Cn2  v116
 BYTE   W24
 BYTE   Cn2  v112
 BYTE   W06
 BYTE   N03
 BYTE   W06
 BYTE   Cn2  v116
 BYTE   W24
 BYTE   PATT
  POIN2 Label_5_BB4BAF
 BYTE   PATT
  POIN2 Label_5_BB4BAF
 BYTE   PATT
  POIN2 Label_5_BB4BAF
// 005   ----------------------------------------
Label_5_BB4C65:
 BYTE   N03  Cn2  v112
 BYTE   W06
 BYTE   N03
 BYTE   W06
 BYTE   Cn2  v116
 BYTE   W06
 BYTE   N03
 BYTE   W06
 BYTE   Cs2
 BYTE   W06
 BYTE   Cs2  v112
 BYTE   W06
 BYTE   Cs2  v116
 BYTE   W24
 BYTE   Cs2  v112
 BYTE   W06
 BYTE   N03
 BYTE   W06
 BYTE   Cs2  v116
 BYTE   W24
 BYTE   PEND 
// 006   ----------------------------------------
Label_5_BB4C81:
 BYTE   N03  Cs2  v112
 BYTE   W06
 BYTE   N03
 BYTE   W06
 BYTE   Cs2  v116
 BYTE   W06
 BYTE   N03
 BYTE   W06
 BYTE   Cn2
 BYTE   W06
 BYTE   Cn2  v112
 BYTE   W06
 BYTE   Cn2  v116
 BYTE   W24
 BYTE   Cn2  v112
 BYTE   W06
 BYTE   N03
 BYTE   W06
 BYTE   Cn2  v116
 BYTE   W24
 BYTE   PEND 
 BYTE   PATT
  POIN2 Label_5_BB4C65
// 007   ----------------------------------------
Label_5_BB4CA2:
 BYTE   N03  Cs2  v112
 BYTE   W06
 BYTE   N03
 BYTE   W06
 BYTE   Cs2  v116
 BYTE   W06
 BYTE   N03
 BYTE   W06
 BYTE   N03
 BYTE   W06
 BYTE   Cs2  v112
 BYTE   W06
 BYTE   Cs2  v116
 BYTE   W24
 BYTE   Cs2  v112
 BYTE   W06
 BYTE   N03
 BYTE   W06
 BYTE   Cs2  v116
 BYTE   W24
 BYTE   PEND 
 BYTE   PATT
  POIN2 Label_5_BB4C81
 BYTE   PATT
  POIN2 Label_5_BB4BAF
 BYTE   PATT
  POIN2 Label_5_BB4BAF
 BYTE   PATT
  POIN2 Label_5_BB4BAF
 BYTE   PATT
  POIN2 Label_5_BB4C65
 BYTE   PATT
  POIN2 Label_5_BB4CA2
 BYTE   PATT
  POIN2 Label_5_BB4CA2
 BYTE   PATT
  POIN2 Label_5_BB4CA2
 BYTE   PATT
  POIN2 Label_5_BB4C81
 BYTE   PATT
  POIN2 Label_5_BB4BAF
 BYTE   PATT
  POIN2 Label_5_BB4BAF
 BYTE   PATT
  POIN2 Label_5_BB4BAF
 BYTE   PATT
  POIN2 Label_5_BB4C65
 BYTE   PATT
  POIN2 Label_5_BB4CA2
 BYTE   PATT
  POIN2 Label_5_BB4CA2
 BYTE   PATT
  POIN2 Label_5_BB4CA2
 BYTE   PATT
  POIN2 Label_5_BB4C81
 BYTE   PATT
  POIN2 Label_5_BB4BAF
 BYTE   PATT
  POIN2 Label_5_BB4BAF
// 008   ----------------------------------------
Label_5_BB4D1D:
 BYTE   N03  Cn2  v112
 BYTE   W06
 BYTE   N03
 BYTE   W06
 BYTE   Cn2  v116
 BYTE   W06
 BYTE   N03
 BYTE   W06
 BYTE   As1
 BYTE   W06
 BYTE   As1  v112
 BYTE   W06
 BYTE   As1  v116
 BYTE   W24
 BYTE   As1  v112
 BYTE   W06
 BYTE   N03
 BYTE   W06
 BYTE   As1  v116
 BYTE   W24
 BYTE   PEND 
// 009   ----------------------------------------
Label_5_BB4D39:
 BYTE   N03  As1  v112
 BYTE   W06
 BYTE   N03
 BYTE   W06
 BYTE   As1  v116
 BYTE   W06
 BYTE   N03
 BYTE   W06
 BYTE   Gs1
 BYTE   W06
 BYTE   Gs1  v112
 BYTE   W06
 BYTE   Gs1  v116
 BYTE   W24
 BYTE   Gs1  v112
 BYTE   W06
 BYTE   N03
 BYTE   W06
 BYTE   Gs1  v116
 BYTE   W24
 BYTE   PEND 
// 010   ----------------------------------------
Label_5_BB4D55:
 BYTE   N03  Gs1  v112
 BYTE   W06
 BYTE   N03
 BYTE   W06
 BYTE   Gs1  v116
 BYTE   W06
 BYTE   N03
 BYTE   W06
 BYTE   Fn1
 BYTE   W06
 BYTE   Fn1  v112
 BYTE   W06
 BYTE   Fn1  v116
 BYTE   W24
 BYTE   Fn1  v112
 BYTE   W06
 BYTE   N03
 BYTE   W06
 BYTE   Fn1  v116
 BYTE   W24
 BYTE   PEND 
// 011   ----------------------------------------
Label_5_BB4D71:
 BYTE   N03  Fn1  v112
 BYTE   W06
 BYTE   N03
 BYTE   W06
 BYTE   Fn1  v116
 BYTE   W06
 BYTE   N03
 BYTE   W06
 BYTE   Cn2
 BYTE   W06
 BYTE   Cn2  v112
 BYTE   W06
 BYTE   Cn2  v116
 BYTE   W24
 BYTE   Cn2  v112
 BYTE   W06
 BYTE   N03
 BYTE   W06
 BYTE   Cn2  v116
 BYTE   W24
 BYTE   PEND 
// 012   ----------------------------------------
 BYTE   Cn2  v112
 BYTE   W06
 BYTE   N03
 BYTE   W06
 BYTE   Cn2  v116
 BYTE   W06
 BYTE   N03
 BYTE   W06
 BYTE   Gn1
 BYTE   W06
 BYTE   Gn1  v112
 BYTE   W06
 BYTE   Gn1  v116
 BYTE   W24
 BYTE   Gn1  v112
 BYTE   W06
 BYTE   N03
 BYTE   W06
 BYTE   Gn1  v116
 BYTE   W24
// 013   ----------------------------------------
Label_5_BB4DA7:
 BYTE   N03  Gn1  v112
 BYTE   W06
 BYTE   N03
 BYTE   W06
 BYTE   Gn1  v116
 BYTE   W06
 BYTE   N03
 BYTE   W06
 BYTE   Cn2
 BYTE   W06
 BYTE   Cn2  v112
 BYTE   W06
 BYTE   Cn2  v116
 BYTE   W24
 BYTE   Cn2  v112
 BYTE   W06
 BYTE   N03
 BYTE   W06
 BYTE   Cn2  v116
 BYTE   W24
 BYTE   PEND 
 BYTE   PATT
  POIN2 Label_5_BB4BAF
 BYTE   PATT
  POIN2 Label_5_BB4BAF
 BYTE   PATT
  POIN2 Label_5_BB4D1D
 BYTE   PATT
  POIN2 Label_5_BB4D39
 BYTE   PATT
  POIN2 Label_5_BB4D55
 BYTE   PATT
  POIN2 Label_5_BB4D71
 BYTE   PATT
  POIN2 Label_5_BB4D1D
 BYTE   PATT
  POIN2 Label_5_BB4D39
// 014   ----------------------------------------
 BYTE   N03  Gs1  v112
 BYTE   W06
 BYTE   N03
 BYTE   W06
 BYTE   Gs1  v116
 BYTE   W06
 BYTE   N03
 BYTE   W06
 BYTE   As1
 BYTE   W06
 BYTE   As1  v112
 BYTE   W06
 BYTE   As1  v116
 BYTE   W24
 BYTE   As1  v112
 BYTE   W06
 BYTE   N03
 BYTE   W06
 BYTE   As1  v116
 BYTE   W24
// 015   ----------------------------------------
 BYTE   As1  v112
 BYTE   W06
 BYTE   N03
 BYTE   W06
 BYTE   As1  v116
 BYTE   W06
 BYTE   N03
 BYTE   W06
 BYTE   Cn2
 BYTE   W06
 BYTE   Cn2  v112
 BYTE   W06
 BYTE   Cn2  v116
 BYTE   W24
 BYTE   Cn2  v112
 BYTE   W06
 BYTE   N03
 BYTE   W06
 BYTE   Cn2  v116
 BYTE   W24
// 016   ----------------------------------------
 BYTE   Cn2  v112
 BYTE   W06
 BYTE   N03
 BYTE   W06
 BYTE   Cn2  v116
 BYTE   W06
 BYTE   N03
 BYTE   W06
 BYTE   Ds1
 BYTE   W06
 BYTE   Ds1  v112
 BYTE   W06
 BYTE   Ds1  v116
 BYTE   W24
 BYTE   Ds1  v112
 BYTE   W06
 BYTE   N03
 BYTE   W06
 BYTE   Ds1  v116
 BYTE   W24
// 017   ----------------------------------------
 BYTE   Ds1  v112
 BYTE   W06
 BYTE   N03
 BYTE   W06
 BYTE   Ds1  v116
 BYTE   W06
 BYTE   N03
 BYTE   W06
 BYTE   Gs1
 BYTE   W06
 BYTE   Gs1  v112
 BYTE   W06
 BYTE   Gs1  v116
 BYTE   W24
 BYTE   Gs1  v112
 BYTE   W06
 BYTE   N03
 BYTE   W06
 BYTE   Gs1  v116
 BYTE   W24
// 018   ----------------------------------------
 BYTE   Gs1  v112
 BYTE   W06
 BYTE   N03
 BYTE   W06
 BYTE   Gs1  v116
 BYTE   W06
 BYTE   N03
 BYTE   W06
 BYTE   Cs2
 BYTE   W06
 BYTE   Cs2  v112
 BYTE   W06
 BYTE   Cs2  v116
 BYTE   W24
 BYTE   Cs2  v112
 BYTE   W06
 BYTE   N03
 BYTE   W06
 BYTE   Cs2  v116
 BYTE   W24
// 019   ----------------------------------------
 BYTE   Cs2  v112
 BYTE   W06
 BYTE   N03
 BYTE   W06
 BYTE   Cs2  v116
 BYTE   W06
 BYTE   N03
 BYTE   W06
 BYTE   Dn2
 BYTE   W06
 BYTE   Dn2  v112
 BYTE   W06
 BYTE   Dn2  v116
 BYTE   W24
 BYTE   Dn2  v112
 BYTE   W06
 BYTE   N03
 BYTE   W06
 BYTE   Dn2  v116
 BYTE   W24
// 020   ----------------------------------------
 BYTE   Dn2  v112
 BYTE   W06
 BYTE   N03
 BYTE   W06
 BYTE   Dn2  v116
 BYTE   W06
 BYTE   N03
 BYTE   W06
 BYTE   Gn1
 BYTE   W06
 BYTE   Gn1  v112
 BYTE   W06
 BYTE   Gn1  v116
 BYTE   W24
 BYTE   Gn1  v112
 BYTE   W06
 BYTE   N03
 BYTE   W06
 BYTE   Gn1  v116
 BYTE   W24
 BYTE   PATT
  POIN2 Label_5_BB4DA7
 BYTE   PATT
  POIN2 Label_5_BB4BAF
// 021   ----------------------------------------
 BYTE   N03  Cn2  v112
 BYTE   W06
 BYTE   N03
 BYTE   W06
 BYTE   Cn2  v116
 BYTE   W06
 BYTE   N03
 BYTE   W06
 BYTE   GoTo
  POIN2 Label_5_BB4B9D
 BYTE   FINE

//**************** Track 7 (Midi-Chn.6) ****************//

song34_007:
// 000   ----------------------------------------
 BYTE   KEYSH   song34_key+0
 BYTE   PAN   c_v-3
 BYTE   W01
 BYTE   VOICE   51
 BYTE   MOD 0
 BYTE   CnM2  v000
 BYTE   VOL   45*song34_mvl/mxv
 BYTE   W01
 BYTE   BEND   c_v+0
 BYTE   W22
Label_6_BB4ECD:
 BYTE   N06  Cn1  v120
 BYTE   W36
 BYTE   Cn1  v116
 BYTE   W36
// 001   ----------------------------------------
Label_6_BB4ED4:
 BYTE   N06  Cn1  v116
 BYTE   W24
 BYTE   Cn1  v120
 BYTE   W36
 BYTE   Cn1  v116
 BYTE   W36
 BYTE   PEND 
 BYTE   PATT
  POIN2 Label_6_BB4ED4
 BYTE   PATT
  POIN2 Label_6_BB4ED4
 BYTE   PATT
  POIN2 Label_6_BB4ED4
 BYTE   PATT
  POIN2 Label_6_BB4ED4
 BYTE   PATT
  POIN2 Label_6_BB4ED4
 BYTE   PATT
  POIN2 Label_6_BB4ED4
 BYTE   PATT
  POIN2 Label_6_BB4ED4
 BYTE   PATT
  POIN2 Label_6_BB4ED4
 BYTE   PATT
  POIN2 Label_6_BB4ED4
 BYTE   PATT
  POIN2 Label_6_BB4ED4
 BYTE   PATT
  POIN2 Label_6_BB4ED4
 BYTE   PATT
  POIN2 Label_6_BB4ED4
 BYTE   PATT
  POIN2 Label_6_BB4ED4
 BYTE   PATT
  POIN2 Label_6_BB4ED4
 BYTE   PATT
  POIN2 Label_6_BB4ED4
 BYTE   PATT
  POIN2 Label_6_BB4ED4
 BYTE   PATT
  POIN2 Label_6_BB4ED4
 BYTE   PATT
  POIN2 Label_6_BB4ED4
 BYTE   PATT
  POIN2 Label_6_BB4ED4
 BYTE   PATT
  POIN2 Label_6_BB4ED4
 BYTE   PATT
  POIN2 Label_6_BB4ED4
 BYTE   PATT
  POIN2 Label_6_BB4ED4
 BYTE   PATT
  POIN2 Label_6_BB4ED4
 BYTE   PATT
  POIN2 Label_6_BB4ED4
 BYTE   PATT
  POIN2 Label_6_BB4ED4
 BYTE   PATT
  POIN2 Label_6_BB4ED4
 BYTE   PATT
  POIN2 Label_6_BB4ED4
 BYTE   PATT
  POIN2 Label_6_BB4ED4
 BYTE   PATT
  POIN2 Label_6_BB4ED4
 BYTE   PATT
  POIN2 Label_6_BB4ED4
 BYTE   PATT
  POIN2 Label_6_BB4ED4
 BYTE   PATT
  POIN2 Label_6_BB4ED4
 BYTE   PATT
  POIN2 Label_6_BB4ED4
// 002   ----------------------------------------
Label_6_BB4F84:
 BYTE   N06  Cn1  v116
 BYTE   W24
 BYTE   As0  v120
 BYTE   W36
 BYTE   As0  v116
 BYTE   W36
 BYTE   PEND 
// 003   ----------------------------------------
Label_6_BB4F8F:
 BYTE   N06  As0  v116
 BYTE   W24
 BYTE   Gs0  v120
 BYTE   W36
 BYTE   Gs0  v116
 BYTE   W36
 BYTE   PEND 
// 004   ----------------------------------------
Label_6_BB4F9A:
 BYTE   N06  Gs0  v116
 BYTE   W24
 BYTE   Fn0  v120
 BYTE   W36
 BYTE   Fn0  v116
 BYTE   W36
 BYTE   PEND 
// 005   ----------------------------------------
Label_6_BB4FA5:
 BYTE   N06  Fn0  v116
 BYTE   W24
 BYTE   Cn1  v120
 BYTE   W36
 BYTE   Cn1  v116
 BYTE   W36
 BYTE   PEND 
// 006   ----------------------------------------
 BYTE   N06
 BYTE   W24
 BYTE   Gn0  v120
 BYTE   W36
 BYTE   Gn0  v116
 BYTE   W36
// 007   ----------------------------------------
Label_6_BB4FB8:
 BYTE   N06  Gn0  v116
 BYTE   W24
 BYTE   Cn1  v120
 BYTE   W36
 BYTE   Cn1  v116
 BYTE   W36
 BYTE   PEND 
 BYTE   PATT
  POIN2 Label_6_BB4ED4
 BYTE   PATT
  POIN2 Label_6_BB4ED4
 BYTE   PATT
  POIN2 Label_6_BB4F84
 BYTE   PATT
  POIN2 Label_6_BB4F8F
 BYTE   PATT
  POIN2 Label_6_BB4F9A
 BYTE   PATT
  POIN2 Label_6_BB4FA5
 BYTE   PATT
  POIN2 Label_6_BB4F84
 BYTE   PATT
  POIN2 Label_6_BB4F8F
// 008   ----------------------------------------
 BYTE   N06  Gs0  v116
 BYTE   W24
 BYTE   As0  v120
 BYTE   W36
 BYTE   As0  v116
 BYTE   W36
// 009   ----------------------------------------
 BYTE   N06
 BYTE   W24
 BYTE   Cn1  v120
 BYTE   W36
 BYTE   Cn1  v116
 BYTE   W36
// 010   ----------------------------------------
 BYTE   N06
 BYTE   W24
 BYTE   Ds0  v120
 BYTE   W36
 BYTE   Ds0  v116
 BYTE   W36
// 011   ----------------------------------------
 BYTE   N06
 BYTE   W24
 BYTE   Gs0  v120
 BYTE   W36
 BYTE   Gs0  v116
 BYTE   W36
// 012   ----------------------------------------
 BYTE   N06
 BYTE   W24
 BYTE   Cs1  v120
 BYTE   W36
 BYTE   Cs1  v116
 BYTE   W36
// 013   ----------------------------------------
 BYTE   N06
 BYTE   W24
 BYTE   Dn1  v120
 BYTE   W36
 BYTE   Dn1  v116
 BYTE   W36
// 014   ----------------------------------------
 BYTE   N06
 BYTE   W24
 BYTE   Gn0  v120
 BYTE   W36
 BYTE   Gn0  v116
 BYTE   W36
 BYTE   PATT
  POIN2 Label_6_BB4FB8
 BYTE   PATT
  POIN2 Label_6_BB4ED4
// 015   ----------------------------------------
 BYTE   N06  Cn1  v116
 BYTE   W24
 BYTE   GoTo
  POIN2 Label_6_BB4ECD
 BYTE   FINE

//**************** Track 8 (Midi-Chn.7) ****************//

song34_008:
// 000   ----------------------------------------
 BYTE   KEYSH   song34_key+0
 BYTE   PAN   c_v-4
 BYTE   W02
 BYTE   VOICE   60
 BYTE   MOD 0
 BYTE   CnM2  v000
 BYTE   VOL   34*song34_mvl/mxv
 BYTE   BEND   c_v+0
 BYTE   W22
Label_7_BB5048:
 BYTE   W72
// 001   ----------------------------------------
 BYTE   W96
// 002   ----------------------------------------
 BYTE   W96
// 003   ----------------------------------------
 BYTE   W96
// 004   ----------------------------------------
 BYTE   W96
// 005   ----------------------------------------
 BYTE   W96
// 006   ----------------------------------------
 BYTE   W96
// 007   ----------------------------------------
 BYTE   W96
// 008   ----------------------------------------
 BYTE   W96
// 009   ----------------------------------------
 BYTE   W96
// 010   ----------------------------------------
 BYTE   W96
// 011   ----------------------------------------
 BYTE   W96
// 012   ----------------------------------------
 BYTE   W96
// 013   ----------------------------------------
 BYTE   W96
// 014   ----------------------------------------
 BYTE   W96
// 015   ----------------------------------------
 BYTE   W96
// 016   ----------------------------------------
 BYTE   W24
 BYTE   N48  Ds3  v112
 BYTE   N48  Cn4  v116
 BYTE   W48
 BYTE   N24  Dn3  v112
 BYTE   N24  As3
 BYTE   W24
// 017   ----------------------------------------
Label_7_BB5066:
 BYTE   N24  Ds3  v112
 BYTE   N24  Cn4  v116
 BYTE   W24
 BYTE   N48  Fn3
 BYTE   N48  Dn4
 BYTE   W48
 BYTE   Dn3  v112
 BYTE   N48  As3  v116
 BYTE   W24
 BYTE   PEND 
// 018   ----------------------------------------
Label_7_BB5079:
 BYTE   W24
 BYTE   N48  Gn3  v116
 BYTE   N48  Ds4
 BYTE   W48
 BYTE   N96  Cn3  v112
 BYTE   N96  Gn3
 BYTE   W24
 BYTE   PEND 
// 019   ----------------------------------------
Label_7_BB5087:
 BYTE   W72
 BYTE   N48  Gn3  v112
 BYTE   N48  Cn4
 BYTE   W24
 BYTE   PEND 
// 020   ----------------------------------------
Label_7_BB508F:
 BYTE   W24
 BYTE   TIE  Gs3  v116
 BYTE   N48  Gn4  v112
 BYTE   W48
 BYTE   N24  Fn4
 BYTE   W24
 BYTE   PEND 
// 021   ----------------------------------------
Label_7_BB509B:
 BYTE   N24  Gn4  v112
 BYTE   W24
 BYTE   TIE  Cs4  v116
 BYTE   N48  As4  v120
 BYTE   W02
 BYTE   PEND 
 BYTE   EOT
 BYTE   Gs3
 BYTE   W44
 BYTE   W02
 BYTE   N24  Gs4  v112
 BYTE   W24
// 022   ----------------------------------------
 BYTE   Gn4  v116
 BYTE   W24
 BYTE   TIE  Gs3  v112
 BYTE   N48  Fn4
 BYTE   W02
 BYTE   EOT
 BYTE   Cs4
 BYTE   W44
 BYTE   W02
 BYTE   N48  Ds4  v116
 BYTE   W24
// 023   ----------------------------------------
 BYTE   W24
 BYTE   TIE  Fn3  v112
 BYTE   N96  Cs4  v116
 BYTE   W02
 BYTE   EOT
 BYTE   Gs3
 BYTE   W68
 BYTE   W02
// 024   ----------------------------------------
 BYTE   W24
 BYTE   N48  Ds3  v112
 BYTE   N48  Cn4  v116
 BYTE   W02
 BYTE   EOT
 BYTE   Fn3
 BYTE   W44
 BYTE   W02
 BYTE   N24  Dn3  v112
 BYTE   N24  As3
 BYTE   W24
 BYTE   PATT
  POIN2 Label_7_BB5066
 BYTE   PATT
  POIN2 Label_7_BB5079
 BYTE   PATT
  POIN2 Label_7_BB5087
 BYTE   PATT
  POIN2 Label_7_BB508F
 BYTE   PATT
  POIN2 Label_7_BB509B
// 025   ----------------------------------------
 BYTE   EOT
 BYTE   Gs3
 BYTE   W44
 BYTE   W02
 BYTE   N24  Gs4  v112
 BYTE   W24
 BYTE   Gn4  v116
 BYTE   W24
 BYTE   N48  Fn3  v112
 BYTE   N48  Fn4
 BYTE   W02
// 026   ----------------------------------------
 BYTE   EOT
 BYTE   Cs4
 BYTE   W44
 BYTE   W02
 BYTE   N48  Gn3
 BYTE   N48  Gn4
 BYTE   W24
 BYTE   W24
 BYTE   N96  Gs3  v116
 BYTE   N96  Gs4
 BYTE   W72
// 027   ----------------------------------------
 BYTE   W96
// 028   ----------------------------------------
 BYTE   W96
// 029   ----------------------------------------
 BYTE   W96
// 030   ----------------------------------------
 BYTE   W96
// 031   ----------------------------------------
 BYTE   W96
// 032   ----------------------------------------
 BYTE   W96
// 033   ----------------------------------------
 BYTE   W96
// 034   ----------------------------------------
 BYTE   W96
// 035   ----------------------------------------
 BYTE   W96
// 036   ----------------------------------------
 BYTE   W96
// 037   ----------------------------------------
 BYTE   W96
// 038   ----------------------------------------
 BYTE   W96
// 039   ----------------------------------------
 BYTE   W96
// 040   ----------------------------------------
 BYTE   W96
// 041   ----------------------------------------
 BYTE   W96
// 042   ----------------------------------------
 BYTE   W96
// 043   ----------------------------------------
 BYTE   N24  Gn3
 BYTE   W24
 BYTE   N48  Cn4  v120
 BYTE   W48
 BYTE   N24  As3  v116
 BYTE   W24
// 044   ----------------------------------------
 BYTE   Cn4  v120
 BYTE   W24
 BYTE   N48  Dn4
 BYTE   W48
 BYTE   As3  v116
 BYTE   W24
// 045   ----------------------------------------
 BYTE   W24
 BYTE   Fn4  v120
 BYTE   W48
 BYTE   Ds4
 BYTE   W24
// 046   ----------------------------------------
 BYTE   W24
 BYTE   N24  Dn4  v116
 BYTE   W24
 BYTE   Gn3
 BYTE   W24
 BYTE   N36  Cn4  v120
 BYTE   W24
// 047   ----------------------------------------
 BYTE   W12
 BYTE   N13  As3
 BYTE   W12
 BYTE   N48  Ds3
 BYTE   N48  Gs3
 BYTE   W48
 BYTE   N24  Fn3
 BYTE   N48  As3
 BYTE   W24
// 048   ----------------------------------------
 BYTE   N24  Gn3
 BYTE   W24
 BYTE   N48  Fn3
 BYTE   N48  Cn4
 BYTE   W48
 BYTE   N24  Gn3
 BYTE   N72  Fn4  v116
 BYTE   W24
// 049   ----------------------------------------
 BYTE   N24  Gs3  v120
 BYTE   W24
 BYTE   TIE  Gn3
 BYTE   W24
 BYTE   N24  Cn4
 BYTE   W24
 BYTE   N36  Gn4
 BYTE   W24
// 050   ----------------------------------------
 BYTE   W12
 BYTE   N13  Fn4
 BYTE   W12
 BYTE   N96  Gn4
 BYTE   W72
// 051   ----------------------------------------
 BYTE   W24
 BYTE   EOT
 BYTE   Gn3
 BYTE   W72
// 052   ----------------------------------------
 BYTE   W96
// 053   ----------------------------------------
 BYTE   W24
 BYTE   GoTo
  POIN2 Label_7_BB5048
 BYTE   FINE

//**************** Track 9 (Midi-Chn.8) ****************//

song34_009:
// 000   ----------------------------------------
 BYTE   KEYSH   song34_key+0
 BYTE   PAN   c_v-1
 BYTE   W02
 BYTE   VOICE   73
 BYTE   MOD 0
 BYTE   CnM2  v000
 BYTE   VOL   25*song34_mvl/mxv
 BYTE   BEND   c_v+0
 BYTE   W22
Label_8_BB5198:
 BYTE   W72
// 001   ----------------------------------------
 BYTE   W96
// 002   ----------------------------------------
 BYTE   W96
// 003   ----------------------------------------
 BYTE   W96
// 004   ----------------------------------------
 BYTE   W96
// 005   ----------------------------------------
 BYTE   W96
// 006   ----------------------------------------
 BYTE   W96
// 007   ----------------------------------------
 BYTE   W96
// 008   ----------------------------------------
 BYTE   W96
// 009   ----------------------------------------
 BYTE   W96
// 010   ----------------------------------------
 BYTE   W96
// 011   ----------------------------------------
 BYTE   W96
// 012   ----------------------------------------
 BYTE   W96
// 013   ----------------------------------------
 BYTE   W96
// 014   ----------------------------------------
 BYTE   W96
// 015   ----------------------------------------
 BYTE   W96
// 016   ----------------------------------------
 BYTE   W96
// 017   ----------------------------------------
 BYTE   W96
// 018   ----------------------------------------
Label_8_BB51AA:
 BYTE   W72
 BYTE   N48  Ds4  v112
 BYTE   N48  Gn4  v116
 BYTE   W24
 BYTE   PEND 
// 019   ----------------------------------------
Label_8_BB51B3:
 BYTE   W24
 BYTE   N48  Dn4  v112
 BYTE   N48  Fn4
 BYTE   W48
 BYTE   Cn4  v108
 BYTE   N48  Ds4  v112
 BYTE   W24
 BYTE   PEND 
// 020   ----------------------------------------
 BYTE   W96
// 021   ----------------------------------------
 BYTE   W96
// 022   ----------------------------------------
 BYTE   W72
 BYTE   Ds4  v116
 BYTE   N48  As4
 BYTE   W24
// 023   ----------------------------------------
 BYTE   W24
 BYTE   TIE  Cs4  v112
 BYTE   N48  Gs4
 BYTE   W48
 BYTE   Fn4  v108
 BYTE   W24
// 024   ----------------------------------------
 BYTE   W24
 BYTE   TIE  Gn4
 BYTE   W02
 BYTE   EOT
 BYTE   Cs4
 BYTE   W68
 BYTE   W02
// 025   ----------------------------------------
 BYTE   W48
 BYTE   W02
 BYTE   Gn4
 BYTE   W44
 BYTE   W02
 BYTE   PATT
  POIN2 Label_8_BB51AA
 BYTE   PATT
  POIN2 Label_8_BB51B3
// 026   ----------------------------------------
 BYTE   W96
// 027   ----------------------------------------
 BYTE   W96
// 028   ----------------------------------------
 BYTE   W72
 BYTE   N96  Fn4  v116
 BYTE   N48  As4
 BYTE   W24
// 029   ----------------------------------------
 BYTE   W24
 BYTE   Gs4  v112
 BYTE   W48
 BYTE   Cs4
 BYTE   N48  Fn4  v108
 BYTE   W24
// 030   ----------------------------------------
Label_8_BB51FC:
 BYTE   W24
 BYTE   TIE  Ds4  v112
 BYTE   TIE  Gn4  v116
 BYTE   W72
 BYTE   PEND 
// 031   ----------------------------------------
Label_8_BB5205:
 BYTE   W24
 BYTE   TIE  Dn4  v112
 BYTE   TIE  Fn4
 BYTE   W02
 BYTE   PEND 
 BYTE   EOT
 BYTE   Ds4  v079
 BYTE   W68
 BYTE   W02
// 032   ----------------------------------------
Label_8_BB5212:
 BYTE   W24
 BYTE   TIE  Cn4  v112
 BYTE   TIE  Ds4  v108
 BYTE   W02
 BYTE   PEND 
 BYTE   EOT
 BYTE   Dn4  v077
 BYTE   W68
 BYTE   W02
// 033   ----------------------------------------
Label_8_BB5220:
 BYTE   W24
 BYTE   TIE  As3  v112
 BYTE   TIE  Dn4
 BYTE   W02
 BYTE   PEND 
 BYTE   EOT
 BYTE   Cn4  v075
 BYTE   W68
 BYTE   W02
// 034   ----------------------------------------
Label_8_BB522D:
 BYTE   W24
 BYTE   N96  Gs3  v112
 BYTE   N96  Cn4
 BYTE   W02
 BYTE   PEND 
 BYTE   EOT
 BYTE   As3  v074
 BYTE   W68
 BYTE   W02
// 035   ----------------------------------------
Label_8_BB523A:
 BYTE   W48
 BYTE   N24  Fn3  v112
 BYTE   N24  Gs3  v108
 BYTE   W24
 BYTE   N36  Gn3  v112
 BYTE   N36  As3
 BYTE   W24
 BYTE   PEND 
// 036   ----------------------------------------
Label_8_BB5249:
 BYTE   W12
 BYTE   N14  Gs3  v116
 BYTE   N14  Cn4  v112
 BYTE   W12
 BYTE   N48  As3  v116
 BYTE   N48  Dn4
 BYTE   W48
 BYTE   Cn4
 BYTE   N48  Ds4
 BYTE   W24
 BYTE   PEND 
// 037   ----------------------------------------
Label_8_BB525C:
 BYTE   W24
 BYTE   N48  As3  v116
 BYTE   N48  Dn4
 BYTE   W48
 BYTE   Gn3
 BYTE   N48  As3  v112
 BYTE   W24
 BYTE   PEND 
 BYTE   PATT
  POIN2 Label_8_BB51FC
 BYTE   PATT
  POIN2 Label_8_BB5205
// 038   ----------------------------------------
 BYTE   EOT
 BYTE   Ds4  v079
 BYTE   W68
 BYTE   W02
 BYTE   PATT
  POIN2 Label_8_BB5212
// 039   ----------------------------------------
 BYTE   EOT
 BYTE   Dn4  v077
 BYTE   W68
 BYTE   W02
 BYTE   PATT
  POIN2 Label_8_BB5220
// 040   ----------------------------------------
 BYTE   EOT
 BYTE   Cn4  v075
 BYTE   W68
 BYTE   W02
 BYTE   PATT
  POIN2 Label_8_BB522D
// 041   ----------------------------------------
 BYTE   EOT
 BYTE   As3  v074
 BYTE   W68
 BYTE   W02
 BYTE   PATT
  POIN2 Label_8_BB523A
 BYTE   PATT
  POIN2 Label_8_BB5249
 BYTE   PATT
  POIN2 Label_8_BB525C
// 042   ----------------------------------------
 BYTE   W96
// 043   ----------------------------------------
 BYTE   W96
// 044   ----------------------------------------
 BYTE   W96
// 045   ----------------------------------------
 BYTE   W96
// 046   ----------------------------------------
 BYTE   W96
// 047   ----------------------------------------
 BYTE   W96
// 048   ----------------------------------------
 BYTE   W96
// 049   ----------------------------------------
 BYTE   W12
 BYTE   N05  Dn4  v108
 BYTE   N05  Dn5
 BYTE   W04
 BYTE   Ds4
 BYTE   N05  Ds5
 BYTE   W04
 BYTE   Fn4  v112
 BYTE   N05  Fn5
 BYTE   W04
 BYTE   N36  Gn4
 BYTE   N36  Gn5
 BYTE   W36
 BYTE   N07  Fn4
 BYTE   N07  Fn5
 BYTE   W06
 BYTE   Ds4  v108
 BYTE   N07  Ds5
 BYTE   W06
 BYTE   N48  Dn4
 BYTE   N48  Dn5
 BYTE   W24
// 050   ----------------------------------------
 BYTE   W96
// 051   ----------------------------------------
 BYTE   W96
// 052   ----------------------------------------
 BYTE   W24
 BYTE   GoTo
  POIN2 Label_8_BB5198
 BYTE   FINE

//**************** Track 10 (Midi-Chn.9) ****************//

song34_010:
// 000   ----------------------------------------
 BYTE   KEYSH   song34_key+0
 BYTE   VOICE   1
 BYTE   PAN   c_v-28
 BYTE   VOL   47*song34_mvl/mxv
 BYTE   W03
 BYTE   MOD 0
 BYTE   CnM2  v000
 BYTE   BEND   c_v+0
 BYTE   W21
Label_9_BB52E8:
 BYTE   N07  Cn1  v120
 BYTE   N07  Cn2
 BYTE   W36
 BYTE   Cn1  v116
 BYTE   N07  Cn2
 BYTE   W36
// 001   ----------------------------------------
Label_9_BB52F3:
 BYTE   N07  Cn1  v116
 BYTE   N07  Cn2
 BYTE   W24
 BYTE   Cn1  v120
 BYTE   N07  Cn2
 BYTE   W36
 BYTE   Cn1  v116
 BYTE   N07  Cn2
 BYTE   W36
 BYTE   PEND 
 BYTE   PATT
  POIN2 Label_9_BB52F3
 BYTE   PATT
  POIN2 Label_9_BB52F3
 BYTE   PATT
  POIN2 Label_9_BB52F3
 BYTE   PATT
  POIN2 Label_9_BB52F3
 BYTE   PATT
  POIN2 Label_9_BB52F3
 BYTE   PATT
  POIN2 Label_9_BB52F3
 BYTE   PATT
  POIN2 Label_9_BB52F3
 BYTE   PATT
  POIN2 Label_9_BB52F3
 BYTE   PATT
  POIN2 Label_9_BB52F3
 BYTE   PATT
  POIN2 Label_9_BB52F3
 BYTE   PATT
  POIN2 Label_9_BB52F3
 BYTE   PATT
  POIN2 Label_9_BB52F3
 BYTE   PATT
  POIN2 Label_9_BB52F3
 BYTE   PATT
  POIN2 Label_9_BB52F3
 BYTE   PATT
  POIN2 Label_9_BB52F3
 BYTE   PATT
  POIN2 Label_9_BB52F3
 BYTE   PATT
  POIN2 Label_9_BB52F3
 BYTE   PATT
  POIN2 Label_9_BB52F3
 BYTE   PATT
  POIN2 Label_9_BB52F3
 BYTE   PATT
  POIN2 Label_9_BB52F3
 BYTE   PATT
  POIN2 Label_9_BB52F3
 BYTE   PATT
  POIN2 Label_9_BB52F3
 BYTE   PATT
  POIN2 Label_9_BB52F3
 BYTE   PATT
  POIN2 Label_9_BB52F3
 BYTE   PATT
  POIN2 Label_9_BB52F3
 BYTE   PATT
  POIN2 Label_9_BB52F3
 BYTE   PATT
  POIN2 Label_9_BB52F3
 BYTE   PATT
  POIN2 Label_9_BB52F3
 BYTE   PATT
  POIN2 Label_9_BB52F3
 BYTE   PATT
  POIN2 Label_9_BB52F3
// 002   ----------------------------------------
 BYTE   N07  Cn1  v116
 BYTE   N07  Cn2
 BYTE   W96
// 003   ----------------------------------------
 BYTE   W96
// 004   ----------------------------------------
 BYTE   W96
// 005   ----------------------------------------
 BYTE   W96
// 006   ----------------------------------------
 BYTE   W96
// 007   ----------------------------------------
 BYTE   W96
// 008   ----------------------------------------
 BYTE   W96
// 009   ----------------------------------------
 BYTE   W96
// 010   ----------------------------------------
 BYTE   W96
// 011   ----------------------------------------
 BYTE   W96
// 012   ----------------------------------------
 BYTE   W96
// 013   ----------------------------------------
 BYTE   W96
// 014   ----------------------------------------
 BYTE   W96
// 015   ----------------------------------------
 BYTE   W96
// 016   ----------------------------------------
 BYTE   W96
// 017   ----------------------------------------
 BYTE   W96
// 018   ----------------------------------------
 BYTE   W96
// 019   ----------------------------------------
 BYTE   W96
// 020   ----------------------------------------
 BYTE   W96
// 021   ----------------------------------------
 BYTE   W96
// 022   ----------------------------------------
 BYTE   W96
// 023   ----------------------------------------
 BYTE   W96
// 024   ----------------------------------------
 BYTE   W96
// 025   ----------------------------------------
 BYTE   W96
// 026   ----------------------------------------
 BYTE   W24
 BYTE   Cn1  v120
 BYTE   N07  Cn2
 BYTE   W36
 BYTE   Cn1  v116
 BYTE   N07  Cn2
 BYTE   W36
 BYTE   PATT
  POIN2 Label_9_BB52F3
// 027   ----------------------------------------
 BYTE   N07  Cn1  v116
 BYTE   N07  Cn2
 BYTE   W24
 BYTE   GoTo
  POIN2 Label_9_BB52E8
 BYTE   FINE

//**************** Track 11 (Midi-Chn.10) ****************//

song34_011:
// 000   ----------------------------------------
 BYTE   KEYSH   song34_key+0
 BYTE   VOICE   127
 BYTE   PAN   c_v-19
 BYTE   W02
 BYTE   MOD 0
 BYTE   CnM2  v000
 BYTE   VOL   49*song34_mvl/mxv
 BYTE   BEND   c_v+0
 BYTE   W01
 BYTE   MOD 0
 BYTE   CnM2  v000
 BYTE   VOL   37*song34_mvl/mxv
 BYTE   BEND   c_v+0
 BYTE   W21
Label_10_BB53EA:
 BYTE   W72
// 001   ----------------------------------------
 BYTE   W96
// 002   ----------------------------------------
 BYTE   W24
 BYTE   N96  Cn1  v124
 BYTE   W72
// 003   ----------------------------------------
 BYTE   W96
// 004   ----------------------------------------
 BYTE   W24
 BYTE   N96
 BYTE   W72
// 005   ----------------------------------------
 BYTE   W24
 BYTE   TIE  Fn2  v116
 BYTE   W72
// 006   ----------------------------------------
 BYTE   W24
 BYTE   N96  Cn1  v124
 BYTE   W72
// 007   ----------------------------------------
 BYTE   W96
// 008   ----------------------------------------
 BYTE   W24
 BYTE   EOT
 BYTE   Fn2
 BYTE   N96  Cn1
 BYTE   TIE  Cn2  v108
 BYTE   TIE  Fn2  v124
 BYTE   W72
// 009   ----------------------------------------
 BYTE   W24
 BYTE   N96  Cn1
 BYTE   W72
// 010   ----------------------------------------
 BYTE   W24
 BYTE   EOT
 BYTE   Cn2  v053
 BYTE   N96  Cn1
 BYTE   TIE  Cn2  v108
 BYTE   W72
// 011   ----------------------------------------
 BYTE   W24
 BYTE   N96  Cn1  v124
 BYTE   W72
// 012   ----------------------------------------
 BYTE   W24
 BYTE   EOT
 BYTE   Cn2
 BYTE   N96  Cn1
 BYTE   TIE  Cn2  v108
 BYTE   W72
// 013   ----------------------------------------
 BYTE   W24
 BYTE   N96  Cn1  v124
 BYTE   W72
// 014   ----------------------------------------
 BYTE   W24
 BYTE   EOT
 BYTE   Cn2
 BYTE   N96  Cn1
 BYTE   TIE  Cn2  v108
 BYTE   W72
// 015   ----------------------------------------
 BYTE   W24
 BYTE   N96  Cn1  v124
 BYTE   W72
// 016   ----------------------------------------
 BYTE   W24
 BYTE   EOT
 BYTE   Cn2
 BYTE   N96  Cn1
 BYTE   TIE  Cn2  v108
 BYTE   W72
// 017   ----------------------------------------
 BYTE   W24
 BYTE   N96  Cn1  v124
 BYTE   W72
// 018   ----------------------------------------
 BYTE   W24
 BYTE   EOT
 BYTE   Cn2
 BYTE   N96  Cn1
 BYTE   TIE  Cn2  v108
 BYTE   W72
// 019   ----------------------------------------
 BYTE   W24
 BYTE   N96  Cn1  v124
 BYTE   W72
// 020   ----------------------------------------
 BYTE   W24
 BYTE   EOT
 BYTE   Cn2
 BYTE   N96  Cn1
 BYTE   TIE  Cn2  v108
 BYTE   W72
// 021   ----------------------------------------
 BYTE   W24
 BYTE   N96  Cn1  v124
 BYTE   W72
// 022   ----------------------------------------
 BYTE   W24
 BYTE   EOT
 BYTE   Cn2
 BYTE   N96  Cn1
 BYTE   TIE  Cn2  v108
 BYTE   W72
// 023   ----------------------------------------
 BYTE   W24
 BYTE   N96  Cn1  v124
 BYTE   W72
// 024   ----------------------------------------
 BYTE   W24
 BYTE   EOT
 BYTE   Cn2
 BYTE   N96  Cn1
 BYTE   TIE  Cn2  v108
 BYTE   W72
// 025   ----------------------------------------
 BYTE   W24
 BYTE   N96  Cn1  v124
 BYTE   W72
// 026   ----------------------------------------
 BYTE   W24
 BYTE   EOT
 BYTE   Cn2
 BYTE   N96  Cn1
 BYTE   TIE  Cn2  v108
 BYTE   W72
// 027   ----------------------------------------
 BYTE   W24
 BYTE   N96  Cn1  v124
 BYTE   W72
// 028   ----------------------------------------
 BYTE   W24
 BYTE   EOT
 BYTE   Cn2
 BYTE   N96  Cn1
 BYTE   TIE  Cn2  v108
 BYTE   W72
// 029   ----------------------------------------
 BYTE   W24
 BYTE   N96  Cn1  v124
 BYTE   TIE  Fn2  v116
 BYTE   W72
// 030   ----------------------------------------
 BYTE   W24
 BYTE   EOT
 BYTE   Cn2
 BYTE   N96  Cn1  v124
 BYTE   TIE  Cn2  v108
 BYTE   W72
// 031   ----------------------------------------
 BYTE   W24
 BYTE   N96  Cn1  v124
 BYTE   W72
// 032   ----------------------------------------
 BYTE   W12
 BYTE   N12  Ds1  v104
 BYTE   W11
 BYTE   N06  Dn1
 BYTE   W01
 BYTE   EOT
 BYTE   Cn2  v053
 BYTE   N96  Cn1  v124
 BYTE   TIE  Cn2  v108
 BYTE   TIE  Fn2  v124
 BYTE   W05
 BYTE   N06  Cs1  v088
 BYTE   W06
 BYTE   Dn1  v096
 BYTE   W24
 BYTE   W01
 BYTE   N12  Ds1  v104
 BYTE   W11
 BYTE   N06  Dn1
 BYTE   W24
 BYTE   W01
// 033   ----------------------------------------
Label_10_BB54D4:
 BYTE   W06
 BYTE   N06  Ds1  v104
 BYTE   W07
 BYTE   N12  Cs1  v096
 BYTE   W11
 BYTE   N96  Cn1  v124
 BYTE   N06  Dn1  v104
 BYTE   W11
 BYTE   Ds1  v108
 BYTE   W24
 BYTE   Dn1  v104
 BYTE   W12
 BYTE   N06
 BYTE   W07
 BYTE   N06
 BYTE   W05
 BYTE   Cs1  v096
 BYTE   W13
 BYTE   PEND 
// 034   ----------------------------------------
 BYTE   W11
 BYTE   N12  Ds1  v104
 BYTE   W13
 BYTE   EOT
 BYTE   Cn2  v053
 BYTE   N96  Cn1  v124
 BYTE   N06  Dn1  v104
 BYTE   TIE  Cn2  v108
 BYTE   W06
 BYTE   N06  Cs1  v096
 BYTE   W05
 BYTE   Dn1  v108
 BYTE   W23
 BYTE   N12  Ds1  v104
 BYTE   W13
 BYTE   N06  Dn1  v096
 BYTE   W24
 BYTE   W01
// 035   ----------------------------------------
Label_10_BB5514:
 BYTE   W12
 BYTE   N12  Cs1  v104
 BYTE   W11
 BYTE   N06  Dn1  v108
 BYTE   W01
 BYTE   N96  Cn1  v124
 BYTE   W11
 BYTE   N06  Ds1  v104
 BYTE   W24
 BYTE   W01
 BYTE   Cs1
 BYTE   W06
 BYTE   Dn1  v096
 BYTE   W06
 BYTE   Dn1  v104
 BYTE   W12
 BYTE   Cs1  v088
 BYTE   W12
 BYTE   PEND 
// 036   ----------------------------------------
Label_10_BB5532:
 BYTE   N06  Dn1  v104
 BYTE   W06
 BYTE   Ds1  v108
 BYTE   W06
 BYTE   Cs1  v096
 BYTE   W05
 BYTE   N05  Dn1  v108
 BYTE   W06
 BYTE   N01  Dn1  v104
 BYTE   W01
 BYTE   PEND 
 BYTE   EOT
 BYTE   Cn2
 BYTE   N96  Cn1  v124
 BYTE   TIE  Cn2  v108
 BYTE   W05
 BYTE   N06  Cs1  v096
 BYTE   W07
 BYTE   Dn1  v108
 BYTE   W23
 BYTE   N12  Ds1  v104
 BYTE   W13
 BYTE   N06  Dn1  v096
 BYTE   W24
// 037   ----------------------------------------
Label_10_BB555D:
 BYTE   W05
 BYTE   N06  Ds1  v104
 BYTE   W07
 BYTE   N12  Cs1  v096
 BYTE   W12
 BYTE   N96  Cn1  v124
 BYTE   N06  Dn1  v104
 BYTE   W11
 BYTE   Ds1  v108
 BYTE   W24
 BYTE   W01
 BYTE   Dn1  v104
 BYTE   W06
 BYTE   Cs1  v088
 BYTE   W06
 BYTE   Dn1  v104
 BYTE   W12
 BYTE   Cs1  v108
 BYTE   W12
 BYTE   PEND 
// 038   ----------------------------------------
Label_10_BB557E:
 BYTE   W13
 BYTE   N12  Ds1  v096
 BYTE   W10
 BYTE   N06  Dn1  v104
 BYTE   W01
 BYTE   PEND 
 BYTE   EOT
 BYTE   Cn2
 BYTE   N96  Cn1  v124
 BYTE   TIE  Cn2  v108
 BYTE   W05
 BYTE   N06  Cs1  v096
 BYTE   W07
 BYTE   Dn1  v108
 BYTE   W23
 BYTE   N11  Ds1  v104
 BYTE   W12
 BYTE   N06  Dn1  v096
 BYTE   W24
 BYTE   W01
// 039   ----------------------------------------
Label_10_BB55A1:
 BYTE   W12
 BYTE   N12  Cs1  v104
 BYTE   W12
 BYTE   N96  Cn1  v124
 BYTE   N06  Dn1  v108
 BYTE   W12
 BYTE   Ds1
 BYTE   W24
 BYTE   Dn1  v104
 BYTE   W06
 BYTE   Cs1  v096
 BYTE   W06
 BYTE   Cs1  v104
 BYTE   W12
 BYTE   Dn1  v096
 BYTE   W11
 BYTE   N05  Cs1  v104
 BYTE   W01
 BYTE   PEND 
// 040   ----------------------------------------
Label_10_BB55C0:
 BYTE   W05
 BYTE   N01  Cs1  v096
 BYTE   W06
 BYTE   N06  Dn1  v108
 BYTE   W12
 BYTE   Dn1  v104
 BYTE   W01
 BYTE   PEND 
 BYTE   EOT
 BYTE   Cn2
 BYTE   N96  Cn1  v124
 BYTE   TIE  Cn2  v108
 BYTE   TIE  Fn2  v124
 BYTE   W05
 BYTE   N06  Cs1  v088
 BYTE   W06
 BYTE   Dn1  v096
 BYTE   W24
 BYTE   W01
 BYTE   N12  Ds1  v104
 BYTE   W11
 BYTE   N06  Dn1
 BYTE   W24
 BYTE   W01
 BYTE   PATT
  POIN2 Label_10_BB54D4
// 041   ----------------------------------------
 BYTE   W11
 BYTE   N12  Ds1  v104
 BYTE   W13
 BYTE   EOT
 BYTE   Cn2  v053
 BYTE   N96  Cn1  v124
 BYTE   N06  Dn1  v104
 BYTE   TIE  Cn2  v108
 BYTE   W06
 BYTE   N06  Cs1  v096
 BYTE   W05
 BYTE   Dn1  v108
 BYTE   W23
 BYTE   N12  Ds1  v104
 BYTE   W13
 BYTE   N06  Dn1  v096
 BYTE   W24
 BYTE   W01
 BYTE   PATT
  POIN2 Label_10_BB5514
 BYTE   PATT
  POIN2 Label_10_BB5532
// 042   ----------------------------------------
 BYTE   EOT
 BYTE   Cn2
 BYTE   N96  Cn1  v124
 BYTE   TIE  Cn2  v108
 BYTE   W05
 BYTE   N06  Cs1  v096
 BYTE   W07
 BYTE   Dn1  v108
 BYTE   W23
 BYTE   N12  Ds1  v104
 BYTE   W13
 BYTE   N06  Dn1  v096
 BYTE   W24
 BYTE   PATT
  POIN2 Label_10_BB555D
 BYTE   PATT
  POIN2 Label_10_BB557E
// 043   ----------------------------------------
 BYTE   EOT
 BYTE   Cn2
 BYTE   N96  Cn1  v124
 BYTE   TIE  Cn2  v108
 BYTE   W05
 BYTE   N06  Cs1  v096
 BYTE   W07
 BYTE   Dn1  v108
 BYTE   W23
 BYTE   N11  Ds1  v104
 BYTE   W12
 BYTE   N06  Dn1  v096
 BYTE   W24
 BYTE   W01
 BYTE   PATT
  POIN2 Label_10_BB55A1
 BYTE   PATT
  POIN2 Label_10_BB55C0
// 044   ----------------------------------------
 BYTE   EOT
 BYTE   Cn2
 BYTE   N96  Cn1  v124
 BYTE   TIE  Cn2  v108
 BYTE   W05
 BYTE   N06  Cs1  v088
 BYTE   W06
 BYTE   Dn1  v096
 BYTE   W24
 BYTE   W01
 BYTE   N12  Ds1  v104
 BYTE   W11
 BYTE   N06  Dn1
 BYTE   W24
 BYTE   W01
 BYTE   PATT
  POIN2 Label_10_BB54D4
// 045   ----------------------------------------
 BYTE   W11
 BYTE   N12  Ds1  v104
 BYTE   W13
 BYTE   EOT
 BYTE   Cn2
 BYTE   N96  Cn1  v124
 BYTE   N06  Dn1  v104
 BYTE   TIE  Cn2  v108
 BYTE   W06
 BYTE   N06  Cs1  v096
 BYTE   W05
 BYTE   Dn1  v108
 BYTE   W23
 BYTE   N12  Ds1  v104
 BYTE   W13
 BYTE   N06  Dn1  v096
 BYTE   W24
 BYTE   W01
 BYTE   PATT
  POIN2 Label_10_BB5514
 BYTE   PATT
  POIN2 Label_10_BB5532
// 046   ----------------------------------------
 BYTE   EOT
 BYTE   Cn2
 BYTE   N96  Cn1  v124
 BYTE   TIE  Cn2  v108
 BYTE   W05
 BYTE   N06  Cs1  v096
 BYTE   W07
 BYTE   Dn1  v108
 BYTE   W23
 BYTE   N12  Ds1  v104
 BYTE   W13
 BYTE   N06  Dn1  v096
 BYTE   W24
 BYTE   W05
 BYTE   Ds1  v104
 BYTE   W07
 BYTE   N12  Cs1  v096
 BYTE   W12
// 047   ----------------------------------------
 BYTE   N96  Cn1  v124
 BYTE   N06  Dn1  v104
 BYTE   TIE  Fn2  v116
 BYTE   W11
 BYTE   N06  Ds1  v108
 BYTE   W24
 BYTE   W01
 BYTE   Dn1  v104
 BYTE   W06
 BYTE   Cs1  v088
 BYTE   W06
 BYTE   Dn1  v104
 BYTE   W12
 BYTE   Cs1  v108
 BYTE   W12
 BYTE   PATT
  POIN2 Label_10_BB557E
// 048   ----------------------------------------
 BYTE   EOT
 BYTE   Cn2
 BYTE   N96  Cn1  v124
 BYTE   TIE  Cn2  v108
 BYTE   W05
 BYTE   N06  Cs1  v096
 BYTE   W07
 BYTE   Dn1  v108
 BYTE   W23
 BYTE   N11  Ds1  v104
 BYTE   W12
 BYTE   N06  Dn1  v096
 BYTE   W24
 BYTE   W01
 BYTE   PATT
  POIN2 Label_10_BB55A1
// 049   ----------------------------------------
 BYTE   W05
 BYTE   N01  Cs1  v096
 BYTE   W06
 BYTE   N06  Dn1  v108
 BYTE   W13
 BYTE   EOT
 BYTE   Cn2  v053
 BYTE   N96  Cn1  v124
 BYTE   TIE  Fn2
 BYTE   W72
// 050   ----------------------------------------
 BYTE   W96
// 051   ----------------------------------------
 BYTE   W23
 BYTE   EOT
 BYTE   W01
 BYTE   GoTo
  POIN2 Label_10_BB53EA
 BYTE   FINE

//******************************************************//
	ALIGN 4

song34:
	BYTE	11	// NumTrks
	BYTE	0	// NumBlks
	BYTE	song34_pri	// Priority
	BYTE	song34_rev	// Reverb.
    
	POIN2	song34_grp
    
	POIN2	song34_001
	POIN2	song34_002
	POIN2	song34_003
	POIN2	song34_004
	POIN2	song34_005
	POIN2	song34_006
	POIN2	song34_007
	POIN2	song34_008
	POIN2	song34_009
	POIN2	song34_010
	POIN2	song34_011

	
