//Event file generated from Sappy .s format.
        #include "MPlayDef.event"

        #define    HiddenHighland_grp  voicegroup000
        #define    HiddenHighland_pri  0
        #define    HiddenHighland_rev  0
        #define    HiddenHighland_key  0

        // .rodata
        // HiddenHighland
        ALIGN 4

//****************** Track 0 (Midi-Chn.0) ******************//

HiddenHighland_0:
        BYTE   KEYSH   HiddenHighland_key+0
// 000   ----------------------------------------
        BYTE   TEMPO   120/2
        BYTE   W24
// 001   ----------------------------------------
        BYTE   TEMPO   76/2
        BYTE           VOL     35
        BYTE           VOICE   45
        BYTE           N06     As2   v127
        BYTE   W12
        BYTE                   Cs3
        BYTE           N06     Fn3
        BYTE   W12
        BYTE                   Cs3
        BYTE           N06     Fn3
        BYTE   W24
        BYTE                   Cn3
        BYTE           N06     Ds3
        BYTE   W12
        BYTE                   Cn3
        BYTE           N06     Ds3
        BYTE   W24
        BYTE                   Ds3
        BYTE           N06     Fs3
        BYTE   W12
// 002   ----------------------------------------
HiddenHighland_0_2:
        BYTE           N06     Ds3   v127
        BYTE           N06     Fs3
        BYTE   W24
        BYTE                   Cs3
        BYTE           N06     Fn3
        BYTE   W12
        BYTE                   Cs3
        BYTE           N06     Fn3
        BYTE   W48
        BYTE                   Fn3
        BYTE           N06     As3
        BYTE   W12
        BYTE   PEND
// 003   ----------------------------------------
HiddenHighland_0_3:
        BYTE           N06     Fn3   v127
        BYTE           N06     As3
        BYTE   W24
        BYTE                   Ds3
        BYTE           N06     Gs3
        BYTE   W12
        BYTE                   Ds3
        BYTE           N06     Gs3
        BYTE   W24
        BYTE                   As2
        BYTE           N06     Ds3
        BYTE   W12
        BYTE                   As2
        BYTE           N06     Ds3
        BYTE   W24
        BYTE   PEND
// 004   ----------------------------------------
HiddenHighland_0_4:
        BYTE   W36
        BYTE           N06     Ds3   v127
        BYTE           N06     Gs3
        BYTE   W12
        BYTE                   Ds3
        BYTE           N06     Gs3
        BYTE   W24
        BYTE                   Gs3
        BYTE           N06     Cn4
        BYTE   W24
        BYTE   PEND
// 005   ----------------------------------------
HiddenHighland_0_5:
        BYTE           N06     As3   v127
        BYTE           N06     Cs4
        BYTE   W24
        BYTE                   Fs3
        BYTE           N06     As3
        BYTE   W12
        BYTE                   Fs3
        BYTE           N06     As3
        BYTE   W48
        BYTE                   As3
        BYTE           N06     Cs4
        BYTE   W12
        BYTE   PEND
// 006   ----------------------------------------
HiddenHighland_0_6:
        BYTE           N06     Cn4   v127
        BYTE           N06     Ds4
        BYTE   W24
        BYTE                   Gs3
        BYTE           N06     Cn4
        BYTE   W12
        BYTE                   Gs3
        BYTE           N06     Cn4
        BYTE   W48
        BYTE                   Ds3
        BYTE           N06     Gs3
        BYTE   W12
        BYTE   PEND
// 007   ----------------------------------------
HiddenHighland_0_7:
        BYTE           N06     Fs3   v127
        BYTE           N06     As3
        BYTE   W12
        BYTE                   Cs3
        BYTE           N06     Fs3
        BYTE   W12
        BYTE                   Cs3
        BYTE           N06     Fs3
        BYTE   W48
        BYTE                   Fs3
        BYTE           N06     As3
        BYTE   W24
        BYTE   PEND
// 008   ----------------------------------------
HiddenHighland_0_8:
        BYTE           N06     Gs3   v127
        BYTE           N06     Cn4
        BYTE   W12
        BYTE                   Ds3
        BYTE           N06     Gs3
        BYTE   W12
        BYTE                   Ds3
        BYTE           N06     Gs3
        BYTE   W48
        BYTE                   Gs3
        BYTE           N06     Cn4
        BYTE   W24
        BYTE   PEND
// 009   ----------------------------------------
HiddenHighland_0_9:
        BYTE           N06     Cn3   v127
        BYTE           N06     Fn3
        BYTE   W12
        BYTE                   Cn3   v101
        BYTE           N06     Fn3
        BYTE   W12
        BYTE                   Cn3   v090
        BYTE           N06     Fn3
        BYTE   W12
        BYTE                   Cn3   v081
        BYTE           N06     Fn3
        BYTE   W12
        BYTE                   Cn3   v074
        BYTE           N06     Fn3
        BYTE   W12
        BYTE                   Cn3   v069
        BYTE           N06     Fn3
        BYTE   W12
        BYTE                   Cn3   v063
        BYTE           N06     Fn3
        BYTE   W12
        BYTE                   Cn3   v061
        BYTE           N06     Fn3
        BYTE   W12
        BYTE   PEND
// 010   ----------------------------------------
        BYTE   PATT
         POIN2  HiddenHighland_0_9
// 011   ----------------------------------------
HiddenHighland_0_11:
        BYTE           N06     Cs3   v127
        BYTE           N06     Fs3
        BYTE   W12
        BYTE                   Cs3
        BYTE           N06     Fs3
        BYTE   W12
        BYTE                   Cs3
        BYTE           N06     Fs3
        BYTE   W12
        BYTE                   Fs3
        BYTE           N06     As3
        BYTE   W12
        BYTE                   Fs3
        BYTE           N06     As3
        BYTE   W12
        BYTE                   Fs3
        BYTE           N06     As3
        BYTE   W12
        BYTE                   Cs3
        BYTE           N06     Fs3
        BYTE   W12
        BYTE                   Cs3
        BYTE           N06     Fs3
        BYTE   W12
        BYTE   PEND
// 012   ----------------------------------------
HiddenHighland_0_12:
        BYTE           N06     Ds3   v127
        BYTE           N06     Gs3
        BYTE   W12
        BYTE                   Ds3
        BYTE           N06     Gs3
        BYTE   W12
        BYTE                   Ds3
        BYTE           N06     Gs3
        BYTE   W12
        BYTE                   Gs3
        BYTE           N06     Cn4
        BYTE   W12
        BYTE                   Gs3
        BYTE           N06     Cn4
        BYTE   W12
        BYTE                   Gs3
        BYTE           N06     Cn4
        BYTE   W12
        BYTE                   Ds3
        BYTE           N06     Gs3
        BYTE   W12
        BYTE                   Ds3
        BYTE           N06     Gs3
        BYTE   W12
        BYTE   PEND
// 013   ----------------------------------------
HiddenHighland_0_13:
        BYTE           N06     Fs3   v127
        BYTE           N06     As3
        BYTE   W12
        BYTE                   Fs3
        BYTE           N06     As3
        BYTE   W12
        BYTE                   Fs3
        BYTE           N06     As3
        BYTE   W12
        BYTE                   As3
        BYTE           N06     Fn4
        BYTE   W12
        BYTE                   As3
        BYTE           N06     Fn4
        BYTE   W12
        BYTE                   As3
        BYTE           N06     Fn4
        BYTE   W12
        BYTE                   As3
        BYTE           N06     Cs4
        BYTE   W12
        BYTE                   As3
        BYTE           N06     Cs4
        BYTE   W12
        BYTE   PEND
// 014   ----------------------------------------
HiddenHighland_0_14:
        BYTE           N06     Gs3   v127
        BYTE           N06     Cn4
        BYTE   W12
        BYTE                   Gs3
        BYTE           N06     Cn4
        BYTE   W12
        BYTE                   Gs3
        BYTE           N06     Cn4
        BYTE   W12
        BYTE                   Ds3
        BYTE           N06     Gs3
        BYTE   W12
        BYTE                   Ds3
        BYTE           N06     Gs3
        BYTE   W12
        BYTE                   Ds3
        BYTE           N06     Gs3
        BYTE   W12
        BYTE                   Ds3
        BYTE           N06     Gs3
        BYTE   W12
        BYTE                   Ds3
        BYTE           N06     Gs3
        BYTE   W12
        BYTE   PEND
// 015   ----------------------------------------
        BYTE   PATT
         POIN2  HiddenHighland_0_11
// 016   ----------------------------------------
        BYTE   PATT
         POIN2  HiddenHighland_0_12
// 017   ----------------------------------------
HiddenHighland_0_17:
        BYTE           N06     Fn3   v127
        BYTE           N06     As3
        BYTE   W12
        BYTE                   Fn3
        BYTE           N06     As3
        BYTE   W12
        BYTE                   Fn3
        BYTE           N06     As3
        BYTE   W12
        BYTE                   As3
        BYTE           N06     Dn4
        BYTE   W12
        BYTE                   As3
        BYTE           N06     Dn4
        BYTE   W12
        BYTE                   As3
        BYTE           N06     Dn4
        BYTE   W12
        BYTE                   Dn4
        BYTE           N06     Fn4
        BYTE   W12
        BYTE                   Dn4
        BYTE           N06     Fn4
        BYTE   W12
        BYTE   PEND
// 018   ----------------------------------------
HiddenHighland_0_18:
        BYTE           N06     Dn4   v127
        BYTE           N06     Fn4
        BYTE   W12
        BYTE                   As3
        BYTE           N06     Dn4
        BYTE   W12
        BYTE                   As3
        BYTE           N06     Dn4
        BYTE   W12
        BYTE                   As3
        BYTE           N06     Dn4
        BYTE   W12
        BYTE                   Fn3
        BYTE           N06     As3
        BYTE   W12
        BYTE                   Fn3
        BYTE           N06     As3
        BYTE   W12
        BYTE                   As2
        BYTE           N06     Fn3
        BYTE   W12
        BYTE                   As2
        BYTE           N06     Fn3
        BYTE   W12
        BYTE   PEND
// 019   ----------------------------------------
        BYTE   W96
// 020   ----------------------------------------
        BYTE   W96
// 021   ----------------------------------------
        BYTE   W96
// 022   ----------------------------------------
        BYTE   W96
// 023   ----------------------------------------
        BYTE   W96
// 024   ----------------------------------------
        BYTE   W96
// 025   ----------------------------------------
        BYTE   W24
HiddenHighland_0_LOOP:
        BYTE   W72
// 026   ----------------------------------------
        BYTE           N06     As2   v127
        BYTE   W12
        BYTE                   Cs3
        BYTE           N06     Fn3
        BYTE   W12
        BYTE                   Cs3
        BYTE           N06     Fn3
        BYTE   W24
        BYTE                   Cn3
        BYTE           N06     Ds3
        BYTE   W12
        BYTE                   Cn3
        BYTE           N06     Ds3
        BYTE   W24
        BYTE                   Ds3
        BYTE           N06     Fs3
        BYTE   W12
// 027   ----------------------------------------
        BYTE   PATT
         POIN2  HiddenHighland_0_2
// 028   ----------------------------------------
        BYTE   PATT
         POIN2  HiddenHighland_0_3
// 029   ----------------------------------------
        BYTE   PATT
         POIN2  HiddenHighland_0_4
// 030   ----------------------------------------
        BYTE   PATT
         POIN2  HiddenHighland_0_5
// 031   ----------------------------------------
        BYTE   PATT
         POIN2  HiddenHighland_0_6
// 032   ----------------------------------------
        BYTE   PATT
         POIN2  HiddenHighland_0_7
// 033   ----------------------------------------
        BYTE   PATT
         POIN2  HiddenHighland_0_8
// 034   ----------------------------------------
        BYTE   PATT
         POIN2  HiddenHighland_0_9
// 035   ----------------------------------------
        BYTE   PATT
         POIN2  HiddenHighland_0_9
// 036   ----------------------------------------
        BYTE   PATT
         POIN2  HiddenHighland_0_11
// 037   ----------------------------------------
        BYTE   PATT
         POIN2  HiddenHighland_0_12
// 038   ----------------------------------------
        BYTE   PATT
         POIN2  HiddenHighland_0_13
// 039   ----------------------------------------
        BYTE   PATT
         POIN2  HiddenHighland_0_14
// 040   ----------------------------------------
        BYTE   PATT
         POIN2  HiddenHighland_0_11
// 041   ----------------------------------------
        BYTE   PATT
         POIN2  HiddenHighland_0_12
// 042   ----------------------------------------
        BYTE   PATT
         POIN2  HiddenHighland_0_17
// 043   ----------------------------------------
        BYTE   PATT
         POIN2  HiddenHighland_0_18
// 044   ----------------------------------------
        BYTE   W96
// 045   ----------------------------------------
        BYTE   W96
// 046   ----------------------------------------
        BYTE   W96
// 047   ----------------------------------------
        BYTE   W96
// 048   ----------------------------------------
        BYTE   W96
// 049   ----------------------------------------
        BYTE   W96
// 050   ----------------------------------------
        BYTE   W24
        BYTE   GoTo
         POIN2  HiddenHighland_0_LOOP
        BYTE   W72
// 051   ----------------------------------------
        BYTE   FINE

//****************** Track 1 (Midi-Chn.1) ******************//

HiddenHighland_1:
        BYTE   KEYSH   HiddenHighland_key+0
// 000   ----------------------------------------
        BYTE   W24
// 001   ----------------------------------------
        BYTE           PAN     c_v-64
        BYTE           VOL     22
        BYTE           VOICE   45
        BYTE   W12
        BYTE           N06     As2   v127
        BYTE   W12
        BYTE                   Cs3
        BYTE           N06     Fn3
        BYTE   W12
        BYTE                   Cs3
        BYTE           N06     Fn3
        BYTE   W24
        BYTE                   Cn3
        BYTE           N06     Ds3
        BYTE   W12
        BYTE                   Cn3
        BYTE           N06     Ds3
        BYTE   W24
// 002   ----------------------------------------
HiddenHighland_1_2:
        BYTE           N06     Ds3   v127
        BYTE           N06     Fs3
        BYTE   W12
        BYTE                   Ds3
        BYTE           N06     Fs3
        BYTE   W24
        BYTE                   Cs3
        BYTE           N06     Fn3
        BYTE   W12
        BYTE                   Cs3
        BYTE           N06     Fn3
        BYTE   W48
        BYTE   PEND
// 003   ----------------------------------------
HiddenHighland_1_3:
        BYTE           N06     Fn3   v127
        BYTE           N06     As3
        BYTE   W12
        BYTE                   Fn3
        BYTE           N06     As3
        BYTE   W24
        BYTE                   Ds3
        BYTE           N06     Gs3
        BYTE   W12
        BYTE                   Ds3
        BYTE           N06     Gs3
        BYTE   W24
        BYTE                   As2
        BYTE           N06     Ds3
        BYTE   W12
        BYTE                   As2
        BYTE           N06     Ds3
        BYTE   W12
        BYTE   PEND
// 004   ----------------------------------------
HiddenHighland_1_4:
        BYTE   W48
        BYTE           N06     Ds3   v127
        BYTE           N06     Gs3
        BYTE   W12
        BYTE                   Ds3
        BYTE           N06     Gs3
        BYTE   W24
        BYTE                   Gs3
        BYTE           N06     Cn4
        BYTE   W12
        BYTE   PEND
// 005   ----------------------------------------
HiddenHighland_1_5:
        BYTE   W12
        BYTE           N06     As3   v127
        BYTE           N06     Cs4
        BYTE   W24
        BYTE                   Fs3
        BYTE           N06     As3
        BYTE   W12
        BYTE                   Fs3
        BYTE           N06     As3
        BYTE   W48
        BYTE   PEND
// 006   ----------------------------------------
HiddenHighland_1_6:
        BYTE           N06     As3   v127
        BYTE           N06     Cs4
        BYTE   W12
        BYTE                   Cn4
        BYTE           N06     Ds4
        BYTE   W24
        BYTE                   Gs3
        BYTE           N06     Cn4
        BYTE   W12
        BYTE                   Gs3
        BYTE           N06     Cn4
        BYTE   W48
        BYTE   PEND
// 007   ----------------------------------------
HiddenHighland_1_7:
        BYTE           N06     Ds3   v127
        BYTE           N06     Gs3
        BYTE   W12
        BYTE                   Fs3
        BYTE           N06     As3
        BYTE   W12
        BYTE                   Cs3
        BYTE           N06     Fs3
        BYTE   W12
        BYTE                   Cs3
        BYTE           N06     Fs3
        BYTE   W48
        BYTE                   Fs3
        BYTE           N06     As3
        BYTE   W12
        BYTE   PEND
// 008   ----------------------------------------
HiddenHighland_1_8:
        BYTE   W12
        BYTE           N06     Gs3   v127
        BYTE           N06     Cn4
        BYTE   W12
        BYTE                   Ds3
        BYTE           N06     Gs3
        BYTE   W12
        BYTE                   Ds3
        BYTE           N06     Gs3
        BYTE   W48
        BYTE                   Gs3
        BYTE           N06     Cn4
        BYTE   W12
        BYTE   PEND
// 009   ----------------------------------------
HiddenHighland_1_9:
        BYTE   W12
        BYTE           N06     Cn3   v127
        BYTE           N06     Fn3
        BYTE   W12
        BYTE                   Cn3   v101
        BYTE           N06     Fn3
        BYTE   W12
        BYTE                   Cn3   v090
        BYTE           N06     Fn3
        BYTE   W12
        BYTE                   Cn3   v081
        BYTE           N06     Fn3
        BYTE   W12
        BYTE                   Cn3   v074
        BYTE           N06     Fn3
        BYTE   W12
        BYTE                   Cn3   v069
        BYTE           N06     Fn3
        BYTE   W12
        BYTE                   Cn3   v063
        BYTE           N06     Fn3
        BYTE   W12
        BYTE   PEND
// 010   ----------------------------------------
HiddenHighland_1_10:
        BYTE           N06     Cn3   v061
        BYTE           N06     Fn3
        BYTE   W12
        BYTE                   Cn3   v127
        BYTE           N06     Fn3
        BYTE   W12
        BYTE                   Cn3   v101
        BYTE           N06     Fn3
        BYTE   W12
        BYTE                   Cn3   v090
        BYTE           N06     Fn3
        BYTE   W12
        BYTE                   Cn3   v081
        BYTE           N06     Fn3
        BYTE   W12
        BYTE                   Cn3   v074
        BYTE           N06     Fn3
        BYTE   W12
        BYTE                   Cn3   v069
        BYTE           N06     Fn3
        BYTE   W12
        BYTE                   Cn3   v063
        BYTE           N06     Fn3
        BYTE   W12
        BYTE   PEND
// 011   ----------------------------------------
HiddenHighland_1_11:
        BYTE           N06     Cn3   v061
        BYTE           N06     Fn3
        BYTE   W12
        BYTE                   Cs3   v127
        BYTE           N06     Fs3
        BYTE   W12
        BYTE                   Cs3
        BYTE           N06     Fs3
        BYTE   W12
        BYTE                   Cs3
        BYTE           N06     Fs3
        BYTE   W12
        BYTE                   Fs3
        BYTE           N06     As3
        BYTE   W12
        BYTE                   Fs3
        BYTE           N06     As3
        BYTE   W12
        BYTE                   Fs3
        BYTE           N06     As3
        BYTE   W12
        BYTE                   Cs3
        BYTE           N06     Fs3
        BYTE   W12
        BYTE   PEND
// 012   ----------------------------------------
HiddenHighland_1_12:
        BYTE           N06     Cs3   v127
        BYTE           N06     Fs3
        BYTE   W12
        BYTE                   Ds3
        BYTE           N06     Gs3
        BYTE   W12
        BYTE                   Ds3
        BYTE           N06     Gs3
        BYTE   W12
        BYTE                   Ds3
        BYTE           N06     Gs3
        BYTE   W12
        BYTE                   Gs3
        BYTE           N06     Cn4
        BYTE   W12
        BYTE                   Gs3
        BYTE           N06     Cn4
        BYTE   W12
        BYTE                   Gs3
        BYTE           N06     Cn4
        BYTE   W12
        BYTE                   Ds3
        BYTE           N06     Gs3
        BYTE   W12
        BYTE   PEND
// 013   ----------------------------------------
HiddenHighland_1_13:
        BYTE           N06     Ds3   v127
        BYTE           N06     Gs3
        BYTE   W12
        BYTE                   Fs3
        BYTE           N06     As3
        BYTE   W12
        BYTE                   Fs3
        BYTE           N06     As3
        BYTE   W12
        BYTE                   Fs3
        BYTE           N06     As3
        BYTE   W12
        BYTE                   As3
        BYTE           N06     Fn4
        BYTE   W12
        BYTE                   As3
        BYTE           N06     Fn4
        BYTE   W12
        BYTE                   As3
        BYTE           N06     Fn4
        BYTE   W12
        BYTE                   As3
        BYTE           N06     Cs4
        BYTE   W12
        BYTE   PEND
// 014   ----------------------------------------
HiddenHighland_1_14:
        BYTE           N06     As3   v127
        BYTE           N06     Cs4
        BYTE   W12
        BYTE                   Gs3
        BYTE           N06     Cn4
        BYTE   W12
        BYTE                   Gs3
        BYTE           N06     Cn4
        BYTE   W12
        BYTE                   Gs3
        BYTE           N06     Cn4
        BYTE   W12
        BYTE                   Ds3
        BYTE           N06     Gs3
        BYTE   W12
        BYTE                   Ds3
        BYTE           N06     Gs3
        BYTE   W12
        BYTE                   Ds3
        BYTE           N06     Gs3
        BYTE   W12
        BYTE                   Ds3
        BYTE           N06     Gs3
        BYTE   W12
        BYTE   PEND
// 015   ----------------------------------------
HiddenHighland_1_15:
        BYTE           N06     Ds3   v127
        BYTE           N06     Gs3
        BYTE   W12
        BYTE                   Cs3
        BYTE           N06     Fs3
        BYTE   W12
        BYTE                   Cs3
        BYTE           N06     Fs3
        BYTE   W12
        BYTE                   Cs3
        BYTE           N06     Fs3
        BYTE   W12
        BYTE                   Fs3
        BYTE           N06     As3
        BYTE   W12
        BYTE                   Fs3
        BYTE           N06     As3
        BYTE   W12
        BYTE                   Fs3
        BYTE           N06     As3
        BYTE   W12
        BYTE                   Cs3
        BYTE           N06     Fs3
        BYTE   W12
        BYTE   PEND
// 016   ----------------------------------------
        BYTE   PATT
         POIN2  HiddenHighland_1_12
// 017   ----------------------------------------
HiddenHighland_1_17:
        BYTE           N06     Ds3   v127
        BYTE           N06     Gs3
        BYTE   W12
        BYTE                   Fn3
        BYTE           N06     As3
        BYTE   W12
        BYTE                   Fn3
        BYTE           N06     As3
        BYTE   W12
        BYTE                   Fn3
        BYTE           N06     As3
        BYTE   W12
        BYTE                   As3
        BYTE           N06     Dn4
        BYTE   W12
        BYTE                   As3
        BYTE           N06     Dn4
        BYTE   W12
        BYTE                   As3
        BYTE           N06     Dn4
        BYTE   W12
        BYTE                   Dn4
        BYTE           N06     Fn4
        BYTE   W12
        BYTE   PEND
// 018   ----------------------------------------
HiddenHighland_1_18:
        BYTE           N06     Dn4   v127
        BYTE           N06     Fn4
        BYTE   W12
        BYTE                   Dn4
        BYTE           N06     Fn4
        BYTE   W12
        BYTE                   As3
        BYTE           N06     Dn4
        BYTE   W12
        BYTE                   As3
        BYTE           N06     Dn4
        BYTE   W12
        BYTE                   As3
        BYTE           N06     Dn4
        BYTE   W12
        BYTE                   Fn3
        BYTE           N06     As3
        BYTE   W12
        BYTE                   Fn3
        BYTE           N06     As3
        BYTE   W12
        BYTE                   As2
        BYTE           N06     Fn3
        BYTE   W12
        BYTE   PEND
// 019   ----------------------------------------
HiddenHighland_1_19:
        BYTE           N06     As2   v127
        BYTE           N06     Fn3
        BYTE   W96
        BYTE   PEND
// 020   ----------------------------------------
        BYTE   W96
// 021   ----------------------------------------
        BYTE   W96
// 022   ----------------------------------------
        BYTE   W96
// 023   ----------------------------------------
        BYTE   W96
// 024   ----------------------------------------
        BYTE   W96
// 025   ----------------------------------------
        BYTE   W24
HiddenHighland_1_LOOP:
        BYTE   W72
// 026   ----------------------------------------
        BYTE   W12
        BYTE           N06     As2   v127
        BYTE   W12
        BYTE                   Cs3
        BYTE           N06     Fn3
        BYTE   W12
        BYTE                   Cs3
        BYTE           N06     Fn3
        BYTE   W24
        BYTE                   Cn3
        BYTE           N06     Ds3
        BYTE   W12
        BYTE                   Cn3
        BYTE           N06     Ds3
        BYTE   W24
// 027   ----------------------------------------
        BYTE   PATT
         POIN2  HiddenHighland_1_2
// 028   ----------------------------------------
        BYTE   PATT
         POIN2  HiddenHighland_1_3
// 029   ----------------------------------------
        BYTE   PATT
         POIN2  HiddenHighland_1_4
// 030   ----------------------------------------
        BYTE   PATT
         POIN2  HiddenHighland_1_5
// 031   ----------------------------------------
        BYTE   PATT
         POIN2  HiddenHighland_1_6
// 032   ----------------------------------------
        BYTE   PATT
         POIN2  HiddenHighland_1_7
// 033   ----------------------------------------
        BYTE   PATT
         POIN2  HiddenHighland_1_8
// 034   ----------------------------------------
        BYTE   PATT
         POIN2  HiddenHighland_1_9
// 035   ----------------------------------------
        BYTE   PATT
         POIN2  HiddenHighland_1_10
// 036   ----------------------------------------
        BYTE   PATT
         POIN2  HiddenHighland_1_11
// 037   ----------------------------------------
        BYTE   PATT
         POIN2  HiddenHighland_1_12
// 038   ----------------------------------------
        BYTE   PATT
         POIN2  HiddenHighland_1_13
// 039   ----------------------------------------
        BYTE   PATT
         POIN2  HiddenHighland_1_14
// 040   ----------------------------------------
        BYTE   PATT
         POIN2  HiddenHighland_1_15
// 041   ----------------------------------------
        BYTE   PATT
         POIN2  HiddenHighland_1_12
// 042   ----------------------------------------
        BYTE   PATT
         POIN2  HiddenHighland_1_17
// 043   ----------------------------------------
        BYTE   PATT
         POIN2  HiddenHighland_1_18
// 044   ----------------------------------------
        BYTE   PATT
         POIN2  HiddenHighland_1_19
// 045   ----------------------------------------
        BYTE   W96
// 046   ----------------------------------------
        BYTE   W96
// 047   ----------------------------------------
        BYTE   W96
// 048   ----------------------------------------
        BYTE   W96
// 049   ----------------------------------------
        BYTE   W96
// 050   ----------------------------------------
        BYTE   W24
        BYTE   GoTo
         POIN2  HiddenHighland_1_LOOP
        BYTE   W72
// 051   ----------------------------------------
        BYTE   FINE

//****************** Track 2 (Midi-Chn.2) ******************//

HiddenHighland_2:
        BYTE   KEYSH   HiddenHighland_key+0
// 000   ----------------------------------------
        BYTE   W24
// 001   ----------------------------------------
        BYTE           PAN     c_v+63
        BYTE           VOL     17
        BYTE           VOICE   45
        BYTE   W24
        BYTE           N06     As2   v127
        BYTE   W12
        BYTE                   Cs3
        BYTE           N06     Fn3
        BYTE   W12
        BYTE                   Cs3
        BYTE           N06     Fn3
        BYTE   W24
        BYTE                   Cn3
        BYTE           N06     Ds3
        BYTE   W12
        BYTE                   Cn3
        BYTE           N06     Ds3
        BYTE   W12
// 002   ----------------------------------------
HiddenHighland_2_2:
        BYTE   W12
        BYTE           N06     Ds3   v127
        BYTE           N06     Fs3
        BYTE   W12
        BYTE                   Ds3
        BYTE           N06     Fs3
        BYTE   W24
        BYTE                   Cs3
        BYTE           N06     Fn3
        BYTE   W12
        BYTE                   Cs3
        BYTE           N06     Fn3
        BYTE   W36
        BYTE   PEND
// 003   ----------------------------------------
HiddenHighland_2_3:
        BYTE   W12
        BYTE           N06     Fn3   v127
        BYTE           N06     As3
        BYTE   W12
        BYTE                   Fn3
        BYTE           N06     As3
        BYTE   W24
        BYTE                   Ds3
        BYTE           N06     Gs3
        BYTE   W12
        BYTE                   Ds3
        BYTE           N06     Gs3
        BYTE   W24
        BYTE                   As2
        BYTE           N06     Ds3
        BYTE   W12
        BYTE   PEND
// 004   ----------------------------------------
HiddenHighland_2_4:
        BYTE           N06     As2   v127
        BYTE           N06     Ds3
        BYTE   W60
        BYTE                   Ds3
        BYTE           N06     Gs3
        BYTE   W12
        BYTE                   Ds3
        BYTE           N06     Gs3
        BYTE   W24
        BYTE   PEND
// 005   ----------------------------------------
HiddenHighland_2_5:
        BYTE           N06     Gs3   v127
        BYTE           N06     Cn4
        BYTE   W24
        BYTE                   As3
        BYTE           N06     Cs4
        BYTE   W24
        BYTE                   Fs3
        BYTE           N06     As3
        BYTE   W12
        BYTE                   Fs3
        BYTE           N06     As3
        BYTE   W36
        BYTE   PEND
// 006   ----------------------------------------
HiddenHighland_2_6:
        BYTE   W12
        BYTE           N06     As3   v127
        BYTE           N06     Cs4
        BYTE   W12
        BYTE                   Cn4
        BYTE           N06     Ds4
        BYTE   W24
        BYTE                   Gs3
        BYTE           N06     Cn4
        BYTE   W12
        BYTE                   Gs3
        BYTE           N06     Cn4
        BYTE   W36
        BYTE   PEND
// 007   ----------------------------------------
HiddenHighland_2_7:
        BYTE   W12
        BYTE           N06     Ds3   v127
        BYTE           N06     Gs3
        BYTE   W12
        BYTE                   Fs3
        BYTE           N06     As3
        BYTE   W12
        BYTE                   Cs3
        BYTE           N06     Fs3
        BYTE   W12
        BYTE                   Cs3
        BYTE           N06     Fs3
        BYTE   W48
        BYTE   PEND
// 008   ----------------------------------------
HiddenHighland_2_8:
        BYTE           N06     Fs3   v127
        BYTE           N06     As3
        BYTE   W24
        BYTE                   Gs3
        BYTE           N06     Cn4
        BYTE   W12
        BYTE                   Ds3
        BYTE           N06     Gs3
        BYTE   W12
        BYTE                   Ds3
        BYTE           N06     Gs3
        BYTE   W48
        BYTE   PEND
// 009   ----------------------------------------
HiddenHighland_2_9:
        BYTE           N06     Gs3   v127
        BYTE           N06     Cn4
        BYTE   W24
        BYTE                   Cn3
        BYTE           N06     Fn3
        BYTE   W12
        BYTE                   Cn3   v101
        BYTE           N06     Fn3
        BYTE   W12
        BYTE                   Cn3   v090
        BYTE           N06     Fn3
        BYTE   W12
        BYTE                   Cn3   v081
        BYTE           N06     Fn3
        BYTE   W12
        BYTE                   Cn3   v074
        BYTE           N06     Fn3
        BYTE   W12
        BYTE                   Cn3   v069
        BYTE           N06     Fn3
        BYTE   W12
        BYTE   PEND
// 010   ----------------------------------------
HiddenHighland_2_10:
        BYTE           N06     Cn3   v063
        BYTE           N06     Fn3
        BYTE   W12
        BYTE                   Cn3   v061
        BYTE           N06     Fn3
        BYTE   W12
        BYTE                   Cn3   v127
        BYTE           N06     Fn3
        BYTE   W12
        BYTE                   Cn3   v101
        BYTE           N06     Fn3
        BYTE   W12
        BYTE                   Cn3   v090
        BYTE           N06     Fn3
        BYTE   W12
        BYTE                   Cn3   v081
        BYTE           N06     Fn3
        BYTE   W12
        BYTE                   Cn3   v074
        BYTE           N06     Fn3
        BYTE   W12
        BYTE                   Cn3   v069
        BYTE           N06     Fn3
        BYTE   W12
        BYTE   PEND
// 011   ----------------------------------------
HiddenHighland_2_11:
        BYTE           N06     Cn3   v063
        BYTE           N06     Fn3
        BYTE   W12
        BYTE                   Cn3   v061
        BYTE           N06     Fn3
        BYTE   W12
        BYTE                   Cs3   v127
        BYTE           N06     Fs3
        BYTE   W12
        BYTE                   Cs3
        BYTE           N06     Fs3
        BYTE   W12
        BYTE                   Cs3
        BYTE           N06     Fs3
        BYTE   W12
        BYTE                   Fs3
        BYTE           N06     As3
        BYTE   W12
        BYTE                   Fs3
        BYTE           N06     As3
        BYTE   W12
        BYTE                   Fs3
        BYTE           N06     As3
        BYTE   W12
        BYTE   PEND
// 012   ----------------------------------------
HiddenHighland_2_12:
        BYTE           N06     Cs3   v127
        BYTE           N06     Fs3
        BYTE   W12
        BYTE                   Cs3
        BYTE           N06     Fs3
        BYTE   W12
        BYTE                   Ds3
        BYTE           N06     Gs3
        BYTE   W12
        BYTE                   Ds3
        BYTE           N06     Gs3
        BYTE   W12
        BYTE                   Ds3
        BYTE           N06     Gs3
        BYTE   W12
        BYTE                   Gs3
        BYTE           N06     Cn4
        BYTE   W12
        BYTE                   Gs3
        BYTE           N06     Cn4
        BYTE   W12
        BYTE                   Gs3
        BYTE           N06     Cn4
        BYTE   W12
        BYTE   PEND
// 013   ----------------------------------------
HiddenHighland_2_13:
        BYTE           N06     Ds3   v127
        BYTE           N06     Gs3
        BYTE   W12
        BYTE                   Ds3
        BYTE           N06     Gs3
        BYTE   W12
        BYTE                   Fs3
        BYTE           N06     As3
        BYTE   W12
        BYTE                   Fs3
        BYTE           N06     As3
        BYTE   W12
        BYTE                   Fs3
        BYTE           N06     As3
        BYTE   W12
        BYTE                   As3
        BYTE           N06     Fn4
        BYTE   W12
        BYTE                   As3
        BYTE           N06     Fn4
        BYTE   W12
        BYTE                   As3
        BYTE           N06     Fn4
        BYTE   W12
        BYTE   PEND
// 014   ----------------------------------------
HiddenHighland_2_14:
        BYTE           N06     As3   v127
        BYTE           N06     Cs4
        BYTE   W12
        BYTE                   As3
        BYTE           N06     Cs4
        BYTE   W12
        BYTE                   Gs3
        BYTE           N06     Cn4
        BYTE   W12
        BYTE                   Gs3
        BYTE           N06     Cn4
        BYTE   W12
        BYTE                   Gs3
        BYTE           N06     Cn4
        BYTE   W12
        BYTE                   Ds3
        BYTE           N06     Gs3
        BYTE   W12
        BYTE                   Ds3
        BYTE           N06     Gs3
        BYTE   W12
        BYTE                   Ds3
        BYTE           N06     Gs3
        BYTE   W12
        BYTE   PEND
// 015   ----------------------------------------
HiddenHighland_2_15:
        BYTE           N06     Ds3   v127
        BYTE           N06     Gs3
        BYTE   W12
        BYTE                   Ds3
        BYTE           N06     Gs3
        BYTE   W12
        BYTE                   Cs3
        BYTE           N06     Fs3
        BYTE   W12
        BYTE                   Cs3
        BYTE           N06     Fs3
        BYTE   W12
        BYTE                   Cs3
        BYTE           N06     Fs3
        BYTE   W12
        BYTE                   Fs3
        BYTE           N06     As3
        BYTE   W12
        BYTE                   Fs3
        BYTE           N06     As3
        BYTE   W12
        BYTE                   Fs3
        BYTE           N06     As3
        BYTE   W12
        BYTE   PEND
// 016   ----------------------------------------
        BYTE   PATT
         POIN2  HiddenHighland_2_12
// 017   ----------------------------------------
HiddenHighland_2_17:
        BYTE           N06     Ds3   v127
        BYTE           N06     Gs3
        BYTE   W12
        BYTE                   Ds3
        BYTE           N06     Gs3
        BYTE   W12
        BYTE                   Fn3
        BYTE           N06     As3
        BYTE   W12
        BYTE                   Fn3
        BYTE           N06     As3
        BYTE   W12
        BYTE                   Fn3
        BYTE           N06     As3
        BYTE   W12
        BYTE                   As3
        BYTE           N06     Dn4
        BYTE   W12
        BYTE                   As3
        BYTE           N06     Dn4
        BYTE   W12
        BYTE                   As3
        BYTE           N06     Dn4
        BYTE   W12
        BYTE   PEND
// 018   ----------------------------------------
HiddenHighland_2_18:
        BYTE           N06     Dn4   v127
        BYTE           N06     Fn4
        BYTE   W12
        BYTE                   Dn4
        BYTE           N06     Fn4
        BYTE   W12
        BYTE                   Dn4
        BYTE           N06     Fn4
        BYTE   W12
        BYTE                   As3
        BYTE           N06     Dn4
        BYTE   W12
        BYTE                   As3
        BYTE           N06     Dn4
        BYTE   W12
        BYTE                   As3
        BYTE           N06     Dn4
        BYTE   W12
        BYTE                   Fn3
        BYTE           N06     As3
        BYTE   W12
        BYTE                   Fn3
        BYTE           N06     As3
        BYTE   W12
        BYTE   PEND
// 019   ----------------------------------------
HiddenHighland_2_19:
        BYTE           N06     As2   v127
        BYTE           N06     Fn3
        BYTE   W12
        BYTE                   As2
        BYTE           N06     Fn3
        BYTE   W84
        BYTE   PEND
// 020   ----------------------------------------
        BYTE   W96
// 021   ----------------------------------------
        BYTE   W96
// 022   ----------------------------------------
        BYTE   W96
// 023   ----------------------------------------
        BYTE   W96
// 024   ----------------------------------------
        BYTE   W96
// 025   ----------------------------------------
        BYTE   W24
HiddenHighland_2_LOOP:
        BYTE   W72
// 026   ----------------------------------------
        BYTE   W24
        BYTE           N06     As2   v127
        BYTE   W12
        BYTE                   Cs3
        BYTE           N06     Fn3
        BYTE   W12
        BYTE                   Cs3
        BYTE           N06     Fn3
        BYTE   W24
        BYTE                   Cn3
        BYTE           N06     Ds3
        BYTE   W12
        BYTE                   Cn3
        BYTE           N06     Ds3
        BYTE   W12
// 027   ----------------------------------------
        BYTE   PATT
         POIN2  HiddenHighland_2_2
// 028   ----------------------------------------
        BYTE   PATT
         POIN2  HiddenHighland_2_3
// 029   ----------------------------------------
        BYTE   PATT
         POIN2  HiddenHighland_2_4
// 030   ----------------------------------------
        BYTE   PATT
         POIN2  HiddenHighland_2_5
// 031   ----------------------------------------
        BYTE   PATT
         POIN2  HiddenHighland_2_6
// 032   ----------------------------------------
        BYTE   PATT
         POIN2  HiddenHighland_2_7
// 033   ----------------------------------------
        BYTE   PATT
         POIN2  HiddenHighland_2_8
// 034   ----------------------------------------
        BYTE   PATT
         POIN2  HiddenHighland_2_9
// 035   ----------------------------------------
        BYTE   PATT
         POIN2  HiddenHighland_2_10
// 036   ----------------------------------------
        BYTE   PATT
         POIN2  HiddenHighland_2_11
// 037   ----------------------------------------
        BYTE   PATT
         POIN2  HiddenHighland_2_12
// 038   ----------------------------------------
        BYTE   PATT
         POIN2  HiddenHighland_2_13
// 039   ----------------------------------------
        BYTE   PATT
         POIN2  HiddenHighland_2_14
// 040   ----------------------------------------
        BYTE   PATT
         POIN2  HiddenHighland_2_15
// 041   ----------------------------------------
        BYTE   PATT
         POIN2  HiddenHighland_2_12
// 042   ----------------------------------------
        BYTE   PATT
         POIN2  HiddenHighland_2_17
// 043   ----------------------------------------
        BYTE   PATT
         POIN2  HiddenHighland_2_18
// 044   ----------------------------------------
        BYTE   PATT
         POIN2  HiddenHighland_2_19
// 045   ----------------------------------------
        BYTE   W96
// 046   ----------------------------------------
        BYTE   W96
// 047   ----------------------------------------
        BYTE   W96
// 048   ----------------------------------------
        BYTE   W96
// 049   ----------------------------------------
        BYTE   W96
// 050   ----------------------------------------
        BYTE   W24
        BYTE   GoTo
         POIN2  HiddenHighland_2_LOOP
        BYTE   W72
// 051   ----------------------------------------
        BYTE   FINE

//****************** Track 3 (Midi-Chn.3) ******************//

HiddenHighland_3:
        BYTE   KEYSH   HiddenHighland_key+0
// 000   ----------------------------------------
        BYTE           VOICE   40
        BYTE   W24
// 001   ----------------------------------------
        BYTE           VOL     39
        BYTE   W96
// 002   ----------------------------------------
        BYTE   W96
// 003   ----------------------------------------
        BYTE   W96
// 004   ----------------------------------------
        BYTE   W96
// 005   ----------------------------------------
        BYTE   W96
// 006   ----------------------------------------
        BYTE   W96
// 007   ----------------------------------------
        BYTE   W96
// 008   ----------------------------------------
        BYTE   W96
// 009   ----------------------------------------
        BYTE   W96
// 010   ----------------------------------------
        BYTE   W96
// 011   ----------------------------------------
HiddenHighland_3_11:
        BYTE           N84     Cn3   v127
        BYTE   W04
        BYTE           VOL     26
        BYTE   W03
        BYTE                   27
        BYTE   W11
        BYTE                   28
        BYTE   W04
        BYTE                   29
        BYTE   W03
        BYTE                   30
        BYTE   W05
        BYTE                   31
        BYTE   W03
        BYTE                   32
        BYTE   W03
        BYTE                   33
        BYTE   W03
        BYTE                   34
        BYTE   W03
        BYTE                   35
        BYTE   W03
        BYTE                   36
        BYTE   W01
        BYTE                   37
        BYTE   W02
        BYTE                   38
        BYTE   W21
        BYTE                   37
        BYTE   W04
        BYTE                   36
        BYTE   W06
        BYTE                   35
        BYTE   W05
        BYTE                   34
        BYTE           N12     As2
        BYTE   W04
        BYTE           VOL     33
        BYTE   W03
        BYTE                   32
        BYTE   W05
        BYTE   PEND
// 012   ----------------------------------------
HiddenHighland_3_12:
        BYTE           N60     Cn3   v127
        BYTE   W09
        BYTE           VOL     33
        BYTE   W15
        BYTE                   34
        BYTE   W10
        BYTE                   35
        BYTE   W06
        BYTE                   36
        BYTE   W09
        BYTE                   37
        BYTE   W03
        BYTE                   38
        BYTE   W05
        BYTE                   39
        BYTE   W03
        BYTE           N12     Cs3
        BYTE   W06
        BYTE           VOL     38
        BYTE   W06
        BYTE           N12     Ds3
        BYTE   W12
        BYTE                   Cs3
        BYTE   W06
        BYTE           VOL     37
        BYTE   W06
        BYTE   PEND
// 013   ----------------------------------------
HiddenHighland_3_13:
        BYTE           N06     Cn3   v127
        BYTE   W01
        BYTE           VOL     36
        BYTE   W05
        BYTE           N06     As2
        BYTE   W06
        BYTE           TIE     Cn3
        BYTE   W54
        BYTE           VOL     35
        BYTE   W09
        BYTE                   34
        BYTE   W10
        BYTE                   33
        BYTE   W08
        BYTE                   32
        BYTE   W03
        BYTE   PEND
// 014   ----------------------------------------
HiddenHighland_3_14:
        BYTE   W04
        BYTE           VOL     31
        BYTE   W03
        BYTE                   30
        BYTE   W06
        BYTE                   29
        BYTE   W03
        BYTE                   28
        BYTE   W05
        BYTE                   27
        BYTE   W06
        BYTE                   26
        BYTE   W03
        BYTE                   25
        BYTE   W03
        BYTE                   24
        BYTE   W03
        BYTE                   23
        BYTE   W04
        BYTE                   22
        BYTE   W03
        BYTE                   21
        BYTE   W04
        BYTE           EOT     Cn3
        BYTE   W01
        BYTE           VOL     20
        BYTE   W01
        BYTE                   19
        BYTE   W03
        BYTE                   18
        BYTE   W03
        BYTE                   17
        BYTE   W03
        BYTE                   16
        BYTE   W03
        BYTE                   15
        BYTE   W03
        BYTE                   14
        BYTE   W24
        BYTE   W03
        BYTE                   27
        BYTE   W02
        BYTE                   28
        BYTE   W03
        BYTE   PEND
// 015   ----------------------------------------
HiddenHighland_3_15:
        BYTE           N60     Cn3   v127
        BYTE   W15
        BYTE           VOL     29
        BYTE   W06
        BYTE                   30
        BYTE   W07
        BYTE                   31
        BYTE   W03
        BYTE                   32
        BYTE   W06
        BYTE                   33
        BYTE   W05
        BYTE                   34
        BYTE   W04
        BYTE                   35
        BYTE   W03
        BYTE                   36
        BYTE   W03
        BYTE                   37
        BYTE   W02
        BYTE                   38
        BYTE   W03
        BYTE                   39
        BYTE   W03
        BYTE           N12     As2
        BYTE   W12
        BYTE                   Cn3
        BYTE   W12
        BYTE                   Cs3
        BYTE   W12
        BYTE   PEND
// 016   ----------------------------------------
HiddenHighland_3_16:
        BYTE           N12     Ds3   v127
        BYTE   W12
        BYTE                   Fn3
        BYTE   W12
        BYTE           N60     Gs3
        BYTE   W28
        BYTE           VOL     38
        BYTE   W17
        BYTE                   37
        BYTE   W04
        BYTE                   36
        BYTE   W09
        BYTE                   35
        BYTE   W02
        BYTE           N12     Gn3
        BYTE   W03
        BYTE           VOL     34
        BYTE   W04
        BYTE                   33
        BYTE   W05
        BYTE   PEND
// 017   ----------------------------------------
HiddenHighland_3_17:
        BYTE           N06     Fn3   v127
        BYTE   W03
        BYTE           VOL     32
        BYTE   W03
        BYTE           N06     Ds3
        BYTE   W06
        BYTE           VOL     33
        BYTE           TIE     Fn3
        BYTE   W18
        BYTE           VOL     34
        BYTE   W12
        BYTE                   35
        BYTE   W06
        BYTE                   36
        BYTE   W09
        BYTE                   37
        BYTE   W03
        BYTE                   38
        BYTE   W04
        BYTE                   39
        BYTE   W14
        BYTE                   38
        BYTE   W07
        BYTE                   37
        BYTE   W03
        BYTE                   36
        BYTE   W05
        BYTE                   35
        BYTE   W03
        BYTE   PEND
// 018   ----------------------------------------
HiddenHighland_3_18:
        BYTE           VOL     34
        BYTE   W04
        BYTE                   33
        BYTE   W02
        BYTE                   32
        BYTE   W03
        BYTE                   31
        BYTE   W01
        BYTE                   30
        BYTE   W03
        BYTE                   29
        BYTE   W02
        BYTE                   28
        BYTE   W01
        BYTE                   27
        BYTE   W03
        BYTE                   26
        BYTE   W02
        BYTE                   25
        BYTE   W01
        BYTE                   24
        BYTE   W02
        BYTE                   23
        BYTE   W01
        BYTE                   22
        BYTE   W02
        BYTE                   21
        BYTE   W03
        BYTE                   19
        BYTE   W01
        BYTE                   18
        BYTE   W02
        BYTE                   17
        BYTE   W01
        BYTE                   16
        BYTE   W02
        BYTE                   15
        BYTE   W01
        BYTE                   13
        BYTE   W02
        BYTE                   12
        BYTE   W01
        BYTE                   11
        BYTE   W02
        BYTE                   10
        BYTE   W01
        BYTE                   9
        BYTE   W02
        BYTE                   7
        BYTE   W01
        BYTE                   6
        BYTE   W02
        BYTE           EOT     Fn3
        BYTE           VOL     5
        BYTE   W10
        BYTE                   36
        BYTE   W14
        BYTE           N06     Fn3   v127
        BYTE   W06
        BYTE           VOL     37
        BYTE           N06     Ds3
        BYTE   W06
        BYTE                   Cs3
        BYTE   W01
        BYTE           VOL     38
        BYTE   W05
        BYTE           N06     Cn3
        BYTE   W04
        BYTE           VOL     39
        BYTE   W02
        BYTE   PEND
// 019   ----------------------------------------
HiddenHighland_3_19:
        BYTE           N96     As2   v120
        BYTE   W32
        BYTE   W02
        BYTE           VOL     38
        BYTE   W17
        BYTE                   37
        BYTE   W06
        BYTE                   36
        BYTE   W10
        BYTE                   35
        BYTE   W06
        BYTE                   34
        BYTE   W06
        BYTE                   33
        BYTE   W06
        BYTE                   32
        BYTE   W05
        BYTE                   31
        BYTE   W03
        BYTE                   30
        BYTE   W03
        BYTE   PEND
// 020   ----------------------------------------
HiddenHighland_3_20:
        BYTE           N24     Gs2   v118
        BYTE   W16
        BYTE           VOL     31
        BYTE   W05
        BYTE                   32
        BYTE   W03
        BYTE           N48     Cs3
        BYTE   W04
        BYTE           VOL     33
        BYTE   W05
        BYTE                   34
        BYTE   W04
        BYTE                   35
        BYTE   W03
        BYTE                   36
        BYTE   W03
        BYTE                   37
        BYTE   W03
        BYTE                   38
        BYTE   W02
        BYTE                   39
        BYTE   W01
        BYTE                   38
        BYTE   W21
        BYTE                   37
        BYTE   W02
        BYTE           N24     Gs2   v119
        BYTE   W04
        BYTE           VOL     36
        BYTE   W09
        BYTE                   35
        BYTE   W05
        BYTE                   34
        BYTE   W06
        BYTE   PEND
// 021   ----------------------------------------
HiddenHighland_3_21:
        BYTE           VOL     33
        BYTE           N72     As2   v120
        BYTE   W12
        BYTE           VOL     34
        BYTE   W12
        BYTE                   35
        BYTE   W04
        BYTE                   36
        BYTE   W06
        BYTE                   37
        BYTE   W03
        BYTE                   38
        BYTE   W05
        BYTE                   39
        BYTE   W22
        BYTE                   38
        BYTE   W08
        BYTE           N24     Ds3   v123
        BYTE   W04
        BYTE           VOL     37
        BYTE   W05
        BYTE                   36
        BYTE   W09
        BYTE                   35
        BYTE   W06
        BYTE   PEND
// 022   ----------------------------------------
HiddenHighland_3_22:
        BYTE           N24     Fn3   v125
        BYTE   W04
        BYTE           VOL     36
        BYTE   W18
        BYTE                   37
        BYTE   W02
        BYTE           N72     Cs3   v127
        BYTE   W03
        BYTE           VOL     38
        BYTE   W06
        BYTE                   39
        BYTE   W09
        BYTE                   38
        BYTE   W06
        BYTE                   37
        BYTE   W03
        BYTE                   36
        BYTE   W04
        BYTE                   35
        BYTE   W02
        BYTE                   34
        BYTE   W03
        BYTE                   33
        BYTE   W03
        BYTE                   32
        BYTE   W01
        BYTE                   31
        BYTE   W02
        BYTE                   30
        BYTE   W03
        BYTE                   29
        BYTE   W01
        BYTE                   28
        BYTE   W02
        BYTE                   27
        BYTE   W01
        BYTE                   26
        BYTE   W02
        BYTE                   25
        BYTE   W01
        BYTE                   23
        BYTE   W03
        BYTE                   21
        BYTE   W02
        BYTE                   20
        BYTE   W01
        BYTE                   19
        BYTE   W02
        BYTE                   18
        BYTE   W01
        BYTE                   16
        BYTE   W02
        BYTE                   15
        BYTE   W01
        BYTE                   13
        BYTE   W02
        BYTE                   12
        BYTE   W01
        BYTE                   11
        BYTE   W02
        BYTE                   9
        BYTE   W01
        BYTE                   7
        BYTE   W02
        BYTE   PEND
// 023   ----------------------------------------
        BYTE   W96
// 024   ----------------------------------------
        BYTE   W96
// 025   ----------------------------------------
        BYTE   W24
HiddenHighland_3_LOOP:
        BYTE   W72
// 026   ----------------------------------------
        BYTE   W96
// 027   ----------------------------------------
        BYTE   W96
// 028   ----------------------------------------
        BYTE   W96
// 029   ----------------------------------------
        BYTE   W96
// 030   ----------------------------------------
        BYTE   W96
// 031   ----------------------------------------
        BYTE   W96
// 032   ----------------------------------------
        BYTE   W96
// 033   ----------------------------------------
        BYTE   W96
// 034   ----------------------------------------
        BYTE   W96
// 035   ----------------------------------------
        BYTE   W96
// 036   ----------------------------------------
        BYTE   PATT
         POIN2  HiddenHighland_3_11
// 037   ----------------------------------------
        BYTE   PATT
         POIN2  HiddenHighland_3_12
// 038   ----------------------------------------
        BYTE   PATT
         POIN2  HiddenHighland_3_13
// 039   ----------------------------------------
        BYTE   PATT
         POIN2  HiddenHighland_3_14
// 040   ----------------------------------------
        BYTE   PATT
         POIN2  HiddenHighland_3_15
// 041   ----------------------------------------
        BYTE   PATT
         POIN2  HiddenHighland_3_16
// 042   ----------------------------------------
        BYTE   PATT
         POIN2  HiddenHighland_3_17
// 043   ----------------------------------------
        BYTE   PATT
         POIN2  HiddenHighland_3_18
// 044   ----------------------------------------
        BYTE   PATT
         POIN2  HiddenHighland_3_19
// 045   ----------------------------------------
        BYTE   PATT
         POIN2  HiddenHighland_3_20
// 046   ----------------------------------------
        BYTE   PATT
         POIN2  HiddenHighland_3_21
// 047   ----------------------------------------
        BYTE   PATT
         POIN2  HiddenHighland_3_22
// 048   ----------------------------------------
        BYTE   W96
// 049   ----------------------------------------
        BYTE   W96
// 050   ----------------------------------------
        BYTE   W24
        BYTE   GoTo
         POIN2  HiddenHighland_3_LOOP
        BYTE   W72
// 051   ----------------------------------------
        BYTE   FINE

//****************** Track 4 (Midi-Chn.4) ******************//

HiddenHighland_4:
        BYTE   KEYSH   HiddenHighland_key+0
// 000   ----------------------------------------
        BYTE           VOICE   96
        BYTE   W24
// 001   ----------------------------------------
        BYTE           PAN     c_v-64
        BYTE           VOL     22
        BYTE   W96
// 002   ----------------------------------------
        BYTE   W96
// 003   ----------------------------------------
        BYTE   W96
// 004   ----------------------------------------
        BYTE   W96
// 005   ----------------------------------------
        BYTE   W96
// 006   ----------------------------------------
        BYTE   W96
// 007   ----------------------------------------
        BYTE   W96
// 008   ----------------------------------------
        BYTE   W96
// 009   ----------------------------------------
        BYTE   W96
// 010   ----------------------------------------
        BYTE   W96
// 011   ----------------------------------------
HiddenHighland_4_11:
        BYTE   W12
        BYTE           N84     Cn3   v127
        BYTE   W04
        BYTE           VOL     15
        BYTE   W15
        BYTE                   16
        BYTE   W06
        BYTE                   17
        BYTE   W08
        BYTE                   18
        BYTE   W04
        BYTE                   19
        BYTE   W06
        BYTE                   20
        BYTE   W05
        BYTE                   21
        BYTE   W22
        BYTE                   20
        BYTE   W11
        BYTE                   19
        BYTE   W03
        BYTE   PEND
// 012   ----------------------------------------
HiddenHighland_4_12:
        BYTE           N12     As2   v127
        BYTE   W06
        BYTE           VOL     18
        BYTE   W06
        BYTE           N60     Cn3
        BYTE   W19
        BYTE           VOL     19
        BYTE   W20
        BYTE                   20
        BYTE   W12
        BYTE                   21
        BYTE   W09
        BYTE           N12     Cs3
        BYTE   W12
        BYTE                   Ds3
        BYTE   W12
        BYTE   PEND
// 013   ----------------------------------------
HiddenHighland_4_13:
        BYTE           N12     Cs3   v127
        BYTE   W09
        BYTE           VOL     20
        BYTE   W03
        BYTE           N06     Cn3
        BYTE   W06
        BYTE                   As2
        BYTE   W06
        BYTE           TIE     Cn3
        BYTE   W56
        BYTE   W01
        BYTE           VOL     19
        BYTE   W15
        BYTE   PEND
// 014   ----------------------------------------
HiddenHighland_4_14:
        BYTE   W04
        BYTE           VOL     18
        BYTE   W12
        BYTE                   17
        BYTE   W09
        BYTE                   16
        BYTE   W06
        BYTE                   15
        BYTE   W08
        BYTE                   14
        BYTE   W07
        BYTE                   13
        BYTE   W06
        BYTE                   12
        BYTE   W06
        BYTE                   11
        BYTE   W01
        BYTE           EOT     Cn3
        BYTE   W04
        BYTE           VOL     10
        BYTE   W06
        BYTE                   9
        BYTE   W04
        BYTE                   8
        BYTE   W23
        BYTE   PEND
// 015   ----------------------------------------
HiddenHighland_4_15:
        BYTE   W07
        BYTE           VOL     15
        BYTE   W05
        BYTE           N60     Cn3   v127
        BYTE   W07
        BYTE           VOL     16
        BYTE   W14
        BYTE                   17
        BYTE   W10
        BYTE                   18
        BYTE   W09
        BYTE                   19
        BYTE   W08
        BYTE                   20
        BYTE   W06
        BYTE                   21
        BYTE   W06
        BYTE           N12     As2
        BYTE   W12
        BYTE                   Cn3
        BYTE   W12
        BYTE   PEND
// 016   ----------------------------------------
HiddenHighland_4_16:
        BYTE           N12     Cs3   v127
        BYTE   W12
        BYTE                   Ds3
        BYTE   W12
        BYTE                   Fn3
        BYTE   W12
        BYTE           N60     Gs3
        BYTE   W44
        BYTE   W02
        BYTE           VOL     20
        BYTE   W14
        BYTE   PEND
// 017   ----------------------------------------
HiddenHighland_4_17:
        BYTE           VOL     19
        BYTE           N12     Gn3   v127
        BYTE   W09
        BYTE           VOL     18
        BYTE   W03
        BYTE           N06     Fn3
        BYTE   W06
        BYTE                   Ds3
        BYTE   W06
        BYTE           TIE     Fn3
        BYTE   W13
        BYTE           VOL     19
        BYTE   W21
        BYTE                   20
        BYTE   W12
        BYTE                   21
        BYTE   W08
        BYTE                   22
        BYTE   W04
        BYTE                   21
        BYTE   W14
        BYTE   PEND
// 018   ----------------------------------------
HiddenHighland_4_18:
        BYTE   W03
        BYTE           VOL     20
        BYTE   W07
        BYTE                   19
        BYTE   W06
        BYTE                   18
        BYTE   W05
        BYTE                   17
        BYTE   W04
        BYTE                   16
        BYTE   W03
        BYTE                   15
        BYTE   W03
        BYTE                   14
        BYTE   W03
        BYTE                   13
        BYTE   W03
        BYTE                   12
        BYTE   W03
        BYTE                   11
        BYTE   W03
        BYTE                   10
        BYTE   W02
        BYTE                   9
        BYTE   W03
        BYTE                   8
        BYTE   W01
        BYTE                   7
        BYTE   W03
        BYTE                   6
        BYTE   W03
        BYTE                   5
        BYTE   W02
        BYTE                   4
        BYTE   W01
        BYTE                   3
        BYTE   W02
        BYTE           EOT     Fn3
        BYTE   W10
        BYTE           VOL     20
        BYTE   W14
        BYTE           N06     Fn3   v127
        BYTE   W06
        BYTE                   Ds3
        BYTE   W04
        BYTE           VOL     21
        BYTE   W02
        BYTE   PEND
// 019   ----------------------------------------
HiddenHighland_4_19:
        BYTE           N06     Cs3   v127
        BYTE   W06
        BYTE                   Cn3
        BYTE   W06
        BYTE           VOL     22
        BYTE           N96     As2   v120
        BYTE   W24
        BYTE   W01
        BYTE           VOL     21
        BYTE   W28
        BYTE   W01
        BYTE                   20
        BYTE   W15
        BYTE                   19
        BYTE   W13
        BYTE                   18
        BYTE   W02
        BYTE   PEND
// 020   ----------------------------------------
HiddenHighland_4_20:
        BYTE   W06
        BYTE           VOL     17
        BYTE   W06
        BYTE           N24     Gs2   v118
        BYTE   W21
        BYTE           VOL     18
        BYTE   W03
        BYTE           N48     Cs3
        BYTE   W07
        BYTE           VOL     19
        BYTE   W08
        BYTE                   20
        BYTE   W06
        BYTE                   21
        BYTE   W24
        BYTE   W03
        BYTE           N24     Gs2   v119
        BYTE   W01
        BYTE           VOL     20
        BYTE   W11
        BYTE   PEND
// 021   ----------------------------------------
HiddenHighland_4_21:
        BYTE   W03
        BYTE           VOL     19
        BYTE   W09
        BYTE                   18
        BYTE           N72     As2   v120
        BYTE   W01
        BYTE           VOL     19
        BYTE   W24
        BYTE   W02
        BYTE                   20
        BYTE   W10
        BYTE                   21
        BYTE   W09
        BYTE                   22
        BYTE   W15
        BYTE                   21
        BYTE   W11
        BYTE           N24     Ds3   v123
        BYTE   W06
        BYTE           VOL     20
        BYTE   W06
        BYTE   PEND
// 022   ----------------------------------------
HiddenHighland_4_22:
        BYTE   W12
        BYTE           N24     Fn3   v125
        BYTE   W24
        BYTE           N72     Cs3   v127
        BYTE   W01
        BYTE           VOL     21
        BYTE   W09
        BYTE                   22
        BYTE   W02
        BYTE                   21
        BYTE   W13
        BYTE                   20
        BYTE   W06
        BYTE                   19
        BYTE   W06
        BYTE                   18
        BYTE   W03
        BYTE                   17
        BYTE   W05
        BYTE                   16
        BYTE   W01
        BYTE                   15
        BYTE   W03
        BYTE                   14
        BYTE   W03
        BYTE                   13
        BYTE   W03
        BYTE                   12
        BYTE   W02
        BYTE                   11
        BYTE   W01
        BYTE                   10
        BYTE   W02
        BYTE   PEND
// 023   ----------------------------------------
HiddenHighland_4_23:
        BYTE   W01
        BYTE           VOL     9
        BYTE   W02
        BYTE                   8
        BYTE   W01
        BYTE                   7
        BYTE   W02
        BYTE                   6
        BYTE   W03
        BYTE                   5
        BYTE   W01
        BYTE                   4
        BYTE   W84
        BYTE   W02
        BYTE   PEND
// 024   ----------------------------------------
        BYTE   W96
// 025   ----------------------------------------
        BYTE   W24
HiddenHighland_4_LOOP:
        BYTE   W72
// 026   ----------------------------------------
        BYTE   W96
// 027   ----------------------------------------
        BYTE   W96
// 028   ----------------------------------------
        BYTE   W96
// 029   ----------------------------------------
        BYTE   W96
// 030   ----------------------------------------
        BYTE   W96
// 031   ----------------------------------------
        BYTE   W96
// 032   ----------------------------------------
        BYTE   W96
// 033   ----------------------------------------
        BYTE   W96
// 034   ----------------------------------------
        BYTE   W96
// 035   ----------------------------------------
        BYTE   W96
// 036   ----------------------------------------
        BYTE   PATT
         POIN2  HiddenHighland_4_11
// 037   ----------------------------------------
        BYTE   PATT
         POIN2  HiddenHighland_4_12
// 038   ----------------------------------------
        BYTE   PATT
         POIN2  HiddenHighland_4_13
// 039   ----------------------------------------
        BYTE   PATT
         POIN2  HiddenHighland_4_14
// 040   ----------------------------------------
        BYTE   PATT
         POIN2  HiddenHighland_4_15
// 041   ----------------------------------------
        BYTE   PATT
         POIN2  HiddenHighland_4_16
// 042   ----------------------------------------
        BYTE   PATT
         POIN2  HiddenHighland_4_17
// 043   ----------------------------------------
        BYTE   PATT
         POIN2  HiddenHighland_4_18
// 044   ----------------------------------------
        BYTE   PATT
         POIN2  HiddenHighland_4_19
// 045   ----------------------------------------
        BYTE   PATT
         POIN2  HiddenHighland_4_20
// 046   ----------------------------------------
        BYTE   PATT
         POIN2  HiddenHighland_4_21
// 047   ----------------------------------------
        BYTE   PATT
         POIN2  HiddenHighland_4_22
// 048   ----------------------------------------
        BYTE   PATT
         POIN2  HiddenHighland_4_23
// 049   ----------------------------------------
        BYTE   W96
// 050   ----------------------------------------
        BYTE   W24
        BYTE   GoTo
         POIN2  HiddenHighland_4_LOOP
        BYTE   W72
// 051   ----------------------------------------
        BYTE   FINE

//****************** Track 5 (Midi-Chn.5) ******************//

HiddenHighland_5:
        BYTE   KEYSH   HiddenHighland_key+0
// 000   ----------------------------------------
        BYTE           VOICE   97
        BYTE   W24
// 001   ----------------------------------------
        BYTE           PAN     c_v+63
        BYTE           VOL     19
        BYTE   W96
// 002   ----------------------------------------
        BYTE   W96
// 003   ----------------------------------------
        BYTE   W96
// 004   ----------------------------------------
        BYTE   W96
// 005   ----------------------------------------
        BYTE   W96
// 006   ----------------------------------------
        BYTE   W96
// 007   ----------------------------------------
        BYTE   W96
// 008   ----------------------------------------
        BYTE   W96
// 009   ----------------------------------------
        BYTE   W96
// 010   ----------------------------------------
        BYTE   W96
// 011   ----------------------------------------
HiddenHighland_5_11:
        BYTE   W24
        BYTE           N84     Cn3   v127
        BYTE   W04
        BYTE           VOL     13
        BYTE   W14
        BYTE                   14
        BYTE   W07
        BYTE                   15
        BYTE   W09
        BYTE                   16
        BYTE   W05
        BYTE                   17
        BYTE   W06
        BYTE                   18
        BYTE   W04
        BYTE                   19
        BYTE   W15
        BYTE                   18
        BYTE   W08
        BYTE   PEND
// 012   ----------------------------------------
HiddenHighland_5_12:
        BYTE   W06
        BYTE           VOL     17
        BYTE   W06
        BYTE           N12     As2   v127
        BYTE   W04
        BYTE           VOL     16
        BYTE   W08
        BYTE           N60     Cn3
        BYTE   W24
        BYTE   W01
        BYTE           VOL     17
        BYTE   W18
        BYTE                   18
        BYTE   W11
        BYTE                   19
        BYTE   W06
        BYTE           N12     Cs3
        BYTE   W12
        BYTE   PEND
// 013   ----------------------------------------
HiddenHighland_5_13:
        BYTE           N12     Ds3   v127
        BYTE   W12
        BYTE           VOL     18
        BYTE           N12     Cs3
        BYTE   W12
        BYTE           N06     Cn3
        BYTE   W06
        BYTE                   As2
        BYTE   W06
        BYTE           TIE     Cn3
        BYTE   W48
        BYTE           VOL     17
        BYTE   W12
        BYTE   PEND
// 014   ----------------------------------------
HiddenHighland_5_14:
        BYTE   W12
        BYTE           VOL     16
        BYTE   W13
        BYTE                   15
        BYTE   W12
        BYTE                   14
        BYTE   W08
        BYTE                   13
        BYTE   W07
        BYTE                   12
        BYTE   W08
        BYTE                   11
        BYTE   W07
        BYTE                   10
        BYTE   W04
        BYTE           EOT     Cn3
        BYTE   W04
        BYTE           VOL     9
        BYTE   W04
        BYTE                   8
        BYTE   W06
        BYTE                   7
        BYTE   W11
        BYTE   PEND
// 015   ----------------------------------------
HiddenHighland_5_15:
        BYTE   W19
        BYTE           VOL     13
        BYTE   W02
        BYTE                   14
        BYTE   W03
        BYTE           N60     Cn3   v127
        BYTE   W21
        BYTE           VOL     15
        BYTE   W13
        BYTE                   16
        BYTE   W08
        BYTE                   17
        BYTE   W07
        BYTE                   18
        BYTE   W06
        BYTE                   19
        BYTE   W05
        BYTE           N12     As2
        BYTE   W12
        BYTE   PEND
// 016   ----------------------------------------
HiddenHighland_5_16:
        BYTE           N12     Cn3   v127
        BYTE   W12
        BYTE                   Cs3
        BYTE   W12
        BYTE                   Ds3
        BYTE   W12
        BYTE                   Fn3
        BYTE   W12
        BYTE           N60     Gs3
        BYTE   W40
        BYTE           VOL     18
        BYTE   W08
        BYTE   PEND
// 017   ----------------------------------------
HiddenHighland_5_17:
        BYTE   W07
        BYTE           VOL     17
        BYTE   W05
        BYTE           N12     Gn3   v127
        BYTE   W07
        BYTE           VOL     16
        BYTE   W05
        BYTE           N06     Fn3
        BYTE   W06
        BYTE                   Ds3
        BYTE   W06
        BYTE           TIE     Fn3
        BYTE   W21
        BYTE           VOL     17
        BYTE   W18
        BYTE                   18
        BYTE   W10
        BYTE                   19
        BYTE   W11
        BYTE   PEND
// 018   ----------------------------------------
HiddenHighland_5_18:
        BYTE   W10
        BYTE           VOL     18
        BYTE   W09
        BYTE                   17
        BYTE   W08
        BYTE                   16
        BYTE   W06
        BYTE                   15
        BYTE   W04
        BYTE                   14
        BYTE   W03
        BYTE                   13
        BYTE   W05
        BYTE                   12
        BYTE   W03
        BYTE                   11
        BYTE   W03
        BYTE                   10
        BYTE   W03
        BYTE                   9
        BYTE   W03
        BYTE                   8
        BYTE   W03
        BYTE                   7
        BYTE   W03
        BYTE                   6
        BYTE   W03
        BYTE                   5
        BYTE   W01
        BYTE                   4
        BYTE   W03
        BYTE                   3
        BYTE   W02
        BYTE           EOT     Fn3
        BYTE           VOL     2
        BYTE   W10
        BYTE                   18
        BYTE   W14
        BYTE   PEND
// 019   ----------------------------------------
HiddenHighland_5_19:
        BYTE           N06     Fn3   v127
        BYTE   W06
        BYTE                   Ds3
        BYTE   W06
        BYTE                   Cs3
        BYTE   W04
        BYTE           VOL     19
        BYTE   W02
        BYTE           N06     Cn3
        BYTE   W06
        BYTE           N96     As2   v120
        BYTE   W44
        BYTE   W02
        BYTE           VOL     18
        BYTE   W18
        BYTE                   17
        BYTE   W08
        BYTE   PEND
// 020   ----------------------------------------
HiddenHighland_5_20:
        BYTE   W06
        BYTE           VOL     16
        BYTE   W10
        BYTE                   15
        BYTE   W08
        BYTE           N24     Gs2   v118
        BYTE   W24
        BYTE           VOL     16
        BYTE           N48     Cs3
        BYTE   W09
        BYTE           VOL     17
        BYTE   W09
        BYTE                   18
        BYTE   W04
        BYTE                   19
        BYTE   W20
        BYTE                   18
        BYTE   W06
        BYTE   PEND
// 021   ----------------------------------------
HiddenHighland_5_21:
        BYTE           N24     Gs2   v119
        BYTE   W10
        BYTE           VOL     17
        BYTE   W14
        BYTE                   16
        BYTE           N72     As2   v120
        BYTE   W15
        BYTE           VOL     17
        BYTE   W16
        BYTE                   18
        BYTE   W08
        BYTE                   19
        BYTE   W32
        BYTE   W01
        BYTE   PEND
// 022   ----------------------------------------
HiddenHighland_5_22:
        BYTE           VOL     18
        BYTE           N24     Ds3   v123
        BYTE   W15
        BYTE           VOL     17
        BYTE   W09
        BYTE           N24     Fn3   v125
        BYTE   W12
        BYTE           VOL     18
        BYTE   W12
        BYTE           N72     Cs3   v127
        BYTE   W06
        BYTE           VOL     19
        BYTE   W16
        BYTE                   18
        BYTE   W08
        BYTE                   17
        BYTE   W06
        BYTE                   16
        BYTE   W04
        BYTE                   15
        BYTE   W05
        BYTE                   14
        BYTE   W03
        BYTE   PEND
// 023   ----------------------------------------
HiddenHighland_5_23:
        BYTE           VOL     13
        BYTE   W03
        BYTE                   12
        BYTE   W01
        BYTE                   11
        BYTE   W03
        BYTE                   10
        BYTE   W03
        BYTE                   9
        BYTE   W03
        BYTE                   8
        BYTE   W02
        BYTE                   7
        BYTE   W03
        BYTE                   6
        BYTE   W01
        BYTE                   5
        BYTE   W02
        BYTE                   4
        BYTE   W72
        BYTE   W03
        BYTE   PEND
// 024   ----------------------------------------
        BYTE   W96
// 025   ----------------------------------------
        BYTE   W24
HiddenHighland_5_LOOP:
        BYTE   W72
// 026   ----------------------------------------
        BYTE   W96
// 027   ----------------------------------------
        BYTE   W96
// 028   ----------------------------------------
        BYTE   W96
// 029   ----------------------------------------
        BYTE   W96
// 030   ----------------------------------------
        BYTE   W96
// 031   ----------------------------------------
        BYTE   W96
// 032   ----------------------------------------
        BYTE   W96
// 033   ----------------------------------------
        BYTE   W96
// 034   ----------------------------------------
        BYTE   W96
// 035   ----------------------------------------
        BYTE   W96
// 036   ----------------------------------------
        BYTE   PATT
         POIN2  HiddenHighland_5_11
// 037   ----------------------------------------
        BYTE   PATT
         POIN2  HiddenHighland_5_12
// 038   ----------------------------------------
        BYTE   PATT
         POIN2  HiddenHighland_5_13
// 039   ----------------------------------------
        BYTE   PATT
         POIN2  HiddenHighland_5_14
// 040   ----------------------------------------
        BYTE   PATT
         POIN2  HiddenHighland_5_15
// 041   ----------------------------------------
        BYTE   PATT
         POIN2  HiddenHighland_5_16
// 042   ----------------------------------------
        BYTE   PATT
         POIN2  HiddenHighland_5_17
// 043   ----------------------------------------
        BYTE   PATT
         POIN2  HiddenHighland_5_18
// 044   ----------------------------------------
        BYTE   PATT
         POIN2  HiddenHighland_5_19
// 045   ----------------------------------------
        BYTE   PATT
         POIN2  HiddenHighland_5_20
// 046   ----------------------------------------
        BYTE   PATT
         POIN2  HiddenHighland_5_21
// 047   ----------------------------------------
        BYTE   PATT
         POIN2  HiddenHighland_5_22
// 048   ----------------------------------------
        BYTE   PATT
         POIN2  HiddenHighland_5_23
// 049   ----------------------------------------
        BYTE   W96
// 050   ----------------------------------------
        BYTE   W24
        BYTE   GoTo
         POIN2  HiddenHighland_5_LOOP
        BYTE   W72
// 051   ----------------------------------------
        BYTE   FINE

//****************** Track 6 (Midi-Chn.6) ******************//

HiddenHighland_6:
        BYTE   KEYSH   HiddenHighland_key+0
// 000   ----------------------------------------
        BYTE   W24
// 001   ----------------------------------------
        BYTE           PAN     c_v+10
        BYTE           VOL     43
        BYTE           VOICE   0
        BYTE           TIE     As0   v100
        BYTE   W96
// 002   ----------------------------------------
        BYTE   W96
// 003   ----------------------------------------
HiddenHighland_6_3:
        BYTE           EOT     As0
        BYTE           TIE     As0   v100
        BYTE   W96
        BYTE   PEND
// 004   ----------------------------------------
        BYTE   W96
// 005   ----------------------------------------
        BYTE   PATT
         POIN2  HiddenHighland_6_3
// 006   ----------------------------------------
        BYTE   W96
// 007   ----------------------------------------
        BYTE   PATT
         POIN2  HiddenHighland_6_3
// 008   ----------------------------------------
        BYTE   W96
// 009   ----------------------------------------
        BYTE   PATT
         POIN2  HiddenHighland_6_3
// 010   ----------------------------------------
        BYTE   W96
// 011   ----------------------------------------
HiddenHighland_6_11:
        BYTE           EOT     As0
        BYTE           N96     Ds0   v100
        BYTE   W96
        BYTE   PEND
// 012   ----------------------------------------
        BYTE                   Fn0
        BYTE   W96
// 013   ----------------------------------------
        BYTE                   Fs0
        BYTE   W96
// 014   ----------------------------------------
        BYTE                   Fn0
        BYTE   W96
// 015   ----------------------------------------
        BYTE                   Ds0
        BYTE   W96
// 016   ----------------------------------------
        BYTE                   Fn0
        BYTE   W96
// 017   ----------------------------------------
        BYTE           TIE     Gn0
        BYTE   W96
// 018   ----------------------------------------
        BYTE   W96
// 019   ----------------------------------------
        BYTE           EOT
        BYTE   W96
// 020   ----------------------------------------
        BYTE   W96
// 021   ----------------------------------------
        BYTE   W96
// 022   ----------------------------------------
        BYTE   W96
// 023   ----------------------------------------
        BYTE   W96
// 024   ----------------------------------------
        BYTE   W48
        BYTE           TIE     As0   v080
        BYTE   W48
// 025   ----------------------------------------
        BYTE   W24
HiddenHighland_6_LOOP:
        BYTE   W72
// 026   ----------------------------------------
        BYTE   PATT
         POIN2  HiddenHighland_6_3
// 027   ----------------------------------------
        BYTE   W96
// 028   ----------------------------------------
        BYTE   PATT
         POIN2  HiddenHighland_6_3
// 029   ----------------------------------------
        BYTE   W96
// 030   ----------------------------------------
        BYTE   PATT
         POIN2  HiddenHighland_6_3
// 031   ----------------------------------------
        BYTE   W96
// 032   ----------------------------------------
        BYTE   PATT
         POIN2  HiddenHighland_6_3
// 033   ----------------------------------------
        BYTE   W96
// 034   ----------------------------------------
        BYTE   PATT
         POIN2  HiddenHighland_6_3
// 035   ----------------------------------------
        BYTE   W96
// 036   ----------------------------------------
        BYTE   PATT
         POIN2  HiddenHighland_6_11
// 037   ----------------------------------------
        BYTE           N96     Fn0   v100
        BYTE   W96
// 038   ----------------------------------------
        BYTE                   Fs0
        BYTE   W96
// 039   ----------------------------------------
        BYTE                   Fn0
        BYTE   W96
// 040   ----------------------------------------
        BYTE                   Ds0
        BYTE   W96
// 041   ----------------------------------------
        BYTE                   Fn0
        BYTE   W96
// 042   ----------------------------------------
        BYTE           TIE     Gn0
        BYTE   W96
// 043   ----------------------------------------
        BYTE   W96
// 044   ----------------------------------------
        BYTE           EOT
        BYTE   W96
// 045   ----------------------------------------
        BYTE   W96
// 046   ----------------------------------------
        BYTE   W96
// 047   ----------------------------------------
        BYTE   W96
// 048   ----------------------------------------
        BYTE   W96
// 049   ----------------------------------------
        BYTE   W48
        BYTE           TIE     As0   v080
        BYTE   W48
// 050   ----------------------------------------
        BYTE   W24
        BYTE   GoTo
         POIN2  HiddenHighland_6_LOOP
        BYTE   W72
// 051   ----------------------------------------
        BYTE           EOT
        BYTE   FINE

//****************** Track 7 (Midi-Chn.7) ******************//

HiddenHighland_7:
        BYTE   KEYSH   HiddenHighland_key+0
// 000   ----------------------------------------
        BYTE   W24
// 001   ----------------------------------------
        BYTE           PAN     c_v-24
        BYTE           VOL     43
        BYTE           VOICE   14
        BYTE           TIE     As3   v110
        BYTE   W96
// 002   ----------------------------------------
        BYTE   W48
        BYTE           EOT
        BYTE   W48
// 003   ----------------------------------------
        BYTE           TIE
        BYTE   W96
// 004   ----------------------------------------
        BYTE   W48
        BYTE           EOT
        BYTE   W48
// 005   ----------------------------------------
        BYTE           TIE
        BYTE   W96
// 006   ----------------------------------------
        BYTE   W48
        BYTE           EOT
        BYTE   W48
// 007   ----------------------------------------
        BYTE           TIE
        BYTE   W96
// 008   ----------------------------------------
        BYTE   W48
        BYTE           EOT
        BYTE   W48
// 009   ----------------------------------------
        BYTE           TIE
        BYTE   W96
// 010   ----------------------------------------
        BYTE   W48
        BYTE           EOT
        BYTE   W48
// 011   ----------------------------------------
        BYTE           N48     Ds4
        BYTE   W96
// 012   ----------------------------------------
        BYTE                   Fn4
        BYTE   W96
// 013   ----------------------------------------
        BYTE                   Fs4
        BYTE   W96
// 014   ----------------------------------------
        BYTE                   Fn4
        BYTE   W96
// 015   ----------------------------------------
        BYTE                   Ds4
        BYTE   W96
// 016   ----------------------------------------
        BYTE                   Fn4
        BYTE   W96
// 017   ----------------------------------------
        BYTE           TIE     Gn4
        BYTE   W96
// 018   ----------------------------------------
        BYTE   W48
        BYTE           EOT
        BYTE   W48
// 019   ----------------------------------------
        BYTE   W96
// 020   ----------------------------------------
        BYTE   W96
// 021   ----------------------------------------
        BYTE   W96
// 022   ----------------------------------------
        BYTE   W96
// 023   ----------------------------------------
        BYTE   W96
// 024   ----------------------------------------
        BYTE   W48
        BYTE           TIE     As3   v120
        BYTE   W48
// 025   ----------------------------------------
        BYTE   W24
HiddenHighland_7_LOOP:
        BYTE   W48
        BYTE           EOT     As3
        BYTE   W24
// 026   ----------------------------------------
        BYTE           TIE     As3   v110
        BYTE   W96
// 027   ----------------------------------------
        BYTE   W48
        BYTE           EOT
        BYTE   W48
// 028   ----------------------------------------
        BYTE           TIE
        BYTE   W96
// 029   ----------------------------------------
        BYTE   W48
        BYTE           EOT
        BYTE   W48
// 030   ----------------------------------------
        BYTE           TIE
        BYTE   W96
// 031   ----------------------------------------
        BYTE   W48
        BYTE           EOT
        BYTE   W48
// 032   ----------------------------------------
        BYTE           TIE
        BYTE   W96
// 033   ----------------------------------------
        BYTE   W48
        BYTE           EOT
        BYTE   W48
// 034   ----------------------------------------
        BYTE           TIE
        BYTE   W96
// 035   ----------------------------------------
        BYTE   W48
        BYTE           EOT
        BYTE   W48
// 036   ----------------------------------------
        BYTE           N48     Ds4
        BYTE   W96
// 037   ----------------------------------------
        BYTE                   Fn4
        BYTE   W96
// 038   ----------------------------------------
        BYTE                   Fs4
        BYTE   W96
// 039   ----------------------------------------
        BYTE                   Fn4
        BYTE   W96
// 040   ----------------------------------------
        BYTE                   Ds4
        BYTE   W96
// 041   ----------------------------------------
        BYTE                   Fn4
        BYTE   W96
// 042   ----------------------------------------
        BYTE           TIE     Gn4
        BYTE   W96
// 043   ----------------------------------------
        BYTE   W48
        BYTE           EOT
        BYTE   W48
// 044   ----------------------------------------
        BYTE   W96
// 045   ----------------------------------------
        BYTE   W96
// 046   ----------------------------------------
        BYTE   W96
// 047   ----------------------------------------
        BYTE   W96
// 048   ----------------------------------------
        BYTE   W96
// 049   ----------------------------------------
        BYTE   W48
        BYTE           TIE     As3   v120
        BYTE   W48
// 050   ----------------------------------------
        BYTE   W24
        BYTE   GoTo
         POIN2  HiddenHighland_7_LOOP
        BYTE   W48
        BYTE           EOT
        BYTE   W24
// 051   ----------------------------------------
        BYTE   FINE

//****************** Track 8 (Midi-Chn.8) ******************//

HiddenHighland_8:
        BYTE   KEYSH   HiddenHighland_key+0
// 000   ----------------------------------------
        BYTE           VOL     40
        BYTE   W24
// 001   ----------------------------------------
        BYTE                   35
        BYTE           VOICE   75
        BYTE   W96
// 002   ----------------------------------------
        BYTE   W72
        BYTE           N04     Cn4   v127
        BYTE   W04
        BYTE                   Cs4
        BYTE   W04
        BYTE                   Ds4
        BYTE   W04
        BYTE                   Fn4
        BYTE   W04
        BYTE                   Ds4
        BYTE   W04
        BYTE                   Cs4
        BYTE   W04
// 003   ----------------------------------------
HiddenHighland_8_3:
        BYTE           N96     Cn4   v127
        BYTE   W30
        BYTE           VOL     34
        BYTE   W06
        BYTE                   33
        BYTE   W04
        BYTE                   32
        BYTE   W05
        BYTE                   31
        BYTE   W06
        BYTE                   30
        BYTE   W01
        BYTE                   29
        BYTE   W03
        BYTE                   28
        BYTE   W03
        BYTE                   27
        BYTE   W02
        BYTE                   26
        BYTE   W03
        BYTE                   25
        BYTE   W03
        BYTE                   24
        BYTE   W01
        BYTE                   23
        BYTE   W02
        BYTE                   22
        BYTE   W01
        BYTE                   21
        BYTE   W03
        BYTE                   20
        BYTE   W02
        BYTE                   19
        BYTE   W01
        BYTE                   18
        BYTE   W02
        BYTE                   17
        BYTE   W01
        BYTE                   16
        BYTE   W02
        BYTE                   15
        BYTE   W01
        BYTE                   14
        BYTE   W03
        BYTE                   12
        BYTE   W02
        BYTE                   11
        BYTE   W01
        BYTE                   10
        BYTE   W02
        BYTE                   9
        BYTE   W01
        BYTE                   8
        BYTE   W02
        BYTE                   7
        BYTE   W01
        BYTE                   6
        BYTE   W02
        BYTE   PEND
// 004   ----------------------------------------
HiddenHighland_8_4:
        BYTE           VOL     4
        BYTE   W01
        BYTE                   3
        BYTE   W02
        BYTE                   2
        BYTE   W01
        BYTE                   1
        BYTE   W92
        BYTE   PEND
// 005   ----------------------------------------
        BYTE   W96
// 006   ----------------------------------------
HiddenHighland_8_6:
        BYTE           VOL     35
        BYTE   W72
        BYTE           N04     Cn4   v127
        BYTE   W04
        BYTE                   Cs4
        BYTE   W04
        BYTE                   Ds4
        BYTE   W04
        BYTE                   Fn4
        BYTE   W04
        BYTE                   Ds4
        BYTE   W04
        BYTE                   Cs4
        BYTE   W04
        BYTE   PEND
// 007   ----------------------------------------
HiddenHighland_8_7:
        BYTE           N24     Cn4   v127
        BYTE   W24
        BYTE           N12     Gs4
        BYTE   W12
        BYTE           N48     Ds4
        BYTE   W48
        BYTE           N12     Cn5
        BYTE   W12
        BYTE   PEND
// 008   ----------------------------------------
HiddenHighland_8_8:
        BYTE           N24     Gs4   v127
        BYTE   W24
        BYTE           N12     Ds4
        BYTE   W12
        BYTE           N60     Gs3
        BYTE   W06
        BYTE           VOL     34
        BYTE   W09
        BYTE                   33
        BYTE   W04
        BYTE                   32
        BYTE   W05
        BYTE                   31
        BYTE   W03
        BYTE                   30
        BYTE   W03
        BYTE                   29
        BYTE   W01
        BYTE                   28
        BYTE   W03
        BYTE                   27
        BYTE   W02
        BYTE                   26
        BYTE   W03
        BYTE                   25
        BYTE   W01
        BYTE                   24
        BYTE   W02
        BYTE                   23
        BYTE   W01
        BYTE                   22
        BYTE   W02
        BYTE                   21
        BYTE   W01
        BYTE                   20
        BYTE   W02
        BYTE                   19
        BYTE   W01
        BYTE                   18
        BYTE   W02
        BYTE                   16
        BYTE   W01
        BYTE                   15
        BYTE   W02
        BYTE                   14
        BYTE   W01
        BYTE                   13
        BYTE   W02
        BYTE                   12
        BYTE   W01
        BYTE                   10
        BYTE   W02
        BYTE   PEND
// 009   ----------------------------------------
HiddenHighland_8_9:
        BYTE           VOL     9
        BYTE   W01
        BYTE                   7
        BYTE   W02
        BYTE                   6
        BYTE   W01
        BYTE                   4
        BYTE   W02
        BYTE                   3
        BYTE   W01
        BYTE                   1
        BYTE   W88
        BYTE   W01
        BYTE   PEND
// 010   ----------------------------------------
        BYTE   W96
// 011   ----------------------------------------
        BYTE   W96
// 012   ----------------------------------------
        BYTE   W96
// 013   ----------------------------------------
        BYTE   W96
// 014   ----------------------------------------
        BYTE   W96
// 015   ----------------------------------------
        BYTE   W96
// 016   ----------------------------------------
        BYTE   W96
// 017   ----------------------------------------
        BYTE   W96
// 018   ----------------------------------------
        BYTE                   35
        BYTE   W96
// 019   ----------------------------------------
HiddenHighland_8_19:
        BYTE           N60     As4   v127
        BYTE   W09
        BYTE           VOL     34
        BYTE   W12
        BYTE                   33
        BYTE   W07
        BYTE                   32
        BYTE   W06
        BYTE                   31
        BYTE   W06
        BYTE                   30
        BYTE   W03
        BYTE                   29
        BYTE   W03
        BYTE                   28
        BYTE   W03
        BYTE                   27
        BYTE   W03
        BYTE                   26
        BYTE   W03
        BYTE                   25
        BYTE   W03
        BYTE                   24
        BYTE   W02
        BYTE           N12     Gs4
        BYTE   W03
        BYTE           VOL     34
        BYTE   W01
        BYTE                   35
        BYTE   W08
        BYTE           N12     Fs4
        BYTE   W12
        BYTE                   Gs4
        BYTE   W12
        BYTE   PEND
// 020   ----------------------------------------
HiddenHighland_8_20:
        BYTE           N18     Fn4   v127
        BYTE   W18
        BYTE           N03     En4
        BYTE   W03
        BYTE                   Ds4
        BYTE   W03
        BYTE           N66     Cs4
        BYTE   W09
        BYTE           VOL     34
        BYTE   W10
        BYTE                   33
        BYTE   W08
        BYTE                   32
        BYTE   W06
        BYTE                   31
        BYTE   W06
        BYTE                   30
        BYTE   W04
        BYTE                   29
        BYTE   W03
        BYTE                   28
        BYTE   W03
        BYTE                   27
        BYTE   W03
        BYTE                   26
        BYTE   W03
        BYTE                   25
        BYTE   W03
        BYTE                   24
        BYTE   W03
        BYTE                   23
        BYTE   W02
        BYTE                   22
        BYTE   W01
        BYTE                   21
        BYTE   W03
        BYTE                   20
        BYTE   W03
        BYTE                   35
        BYTE   W02
        BYTE   PEND
// 021   ----------------------------------------
HiddenHighland_8_21:
        BYTE           N60     As4   v127
        BYTE   W09
        BYTE           VOL     34
        BYTE   W13
        BYTE                   33
        BYTE   W06
        BYTE                   32
        BYTE   W06
        BYTE                   31
        BYTE   W06
        BYTE                   30
        BYTE   W03
        BYTE                   29
        BYTE   W02
        BYTE                   28
        BYTE   W04
        BYTE                   27
        BYTE   W02
        BYTE                   26
        BYTE   W03
        BYTE                   27
        BYTE   W01
        BYTE                   28
        BYTE   W02
        BYTE                   29
        BYTE   W01
        BYTE                   31
        BYTE   W02
        BYTE                   32
        BYTE           N12     Gs4
        BYTE   W01
        BYTE           VOL     35
        BYTE   W11
        BYTE           N12     Fs4
        BYTE   W12
        BYTE                   Gs4
        BYTE   W12
        BYTE   PEND
// 022   ----------------------------------------
HiddenHighland_8_22:
        BYTE           N18     Fn4   v127
        BYTE   W18
        BYTE           N03     Bn4
        BYTE   W03
        BYTE                   Cn5
        BYTE   W03
        BYTE           N66     Cs5
        BYTE   W07
        BYTE           VOL     34
        BYTE   W09
        BYTE                   33
        BYTE   W08
        BYTE                   32
        BYTE   W04
        BYTE                   31
        BYTE   W06
        BYTE                   30
        BYTE   W03
        BYTE                   29
        BYTE   W02
        BYTE                   28
        BYTE   W03
        BYTE                   27
        BYTE   W03
        BYTE                   26
        BYTE   W03
        BYTE                   25
        BYTE   W01
        BYTE                   24
        BYTE   W02
        BYTE                   23
        BYTE   W01
        BYTE                   22
        BYTE   W03
        BYTE                   21
        BYTE   W02
        BYTE                   20
        BYTE   W03
        BYTE                   19
        BYTE   W01
        BYTE                   18
        BYTE   W02
        BYTE                   17
        BYTE   W01
        BYTE                   16
        BYTE   W02
        BYTE                   15
        BYTE   W03
        BYTE                   24
        BYTE   W01
        BYTE                   35
        BYTE   W02
        BYTE   PEND
// 023   ----------------------------------------
HiddenHighland_8_23:
        BYTE           N12     Bn4   v127
        BYTE   W12
        BYTE                   As4
        BYTE   W12
        BYTE                   Gs4
        BYTE   W12
        BYTE                   As4
        BYTE   W12
        BYTE                   Fs4
        BYTE   W12
        BYTE                   Cs4
        BYTE   W12
        BYTE                   Cn4
        BYTE   W12
        BYTE           N10     Gs4
        BYTE   W12
        BYTE   PEND
// 024   ----------------------------------------
HiddenHighland_8_24:
        BYTE           N24     Gs4   v127
        BYTE   W24
        BYTE           N12     Fn4
        BYTE   W12
        BYTE                   Cs4
        BYTE   W12
        BYTE           N06     Cn4
        BYTE   W06
        BYTE                   As3
        BYTE   W06
        BYTE           TIE     Cn4
        BYTE   W22
        BYTE           VOL     34
        BYTE   W14
        BYTE   PEND
// 025   ----------------------------------------
        BYTE   W03
        BYTE                   33
        BYTE   W07
        BYTE                   32
        BYTE   W06
        BYTE                   31
        BYTE   W06
        BYTE                   30
        BYTE   W02
HiddenHighland_8_LOOP:
        BYTE   W03
        BYTE           VOL     29
        BYTE   W01
        BYTE                   28
        BYTE   W05
        BYTE                   27
        BYTE   W03
        BYTE                   26
        BYTE   W04
        BYTE                   25
        BYTE   W02
        BYTE                   24
        BYTE   W03
        BYTE                   23
        BYTE   W03
        BYTE                   22
        BYTE   W01
        BYTE                   21
        BYTE   W03
        BYTE                   20
        BYTE   W03
        BYTE                   19
        BYTE   W02
        BYTE                   18
        BYTE   W03
        BYTE                   17
        BYTE   W01
        BYTE                   16
        BYTE   W02
        BYTE                   15
        BYTE   W03
        BYTE                   14
        BYTE   W01
        BYTE                   13
        BYTE   W02
        BYTE                   12
        BYTE   W03
        BYTE           EOT     Cn4
        BYTE           VOL     11
        BYTE   W01
        BYTE                   10
        BYTE   W02
        BYTE                   9
        BYTE   W01
        BYTE                   8
        BYTE   W02
        BYTE                   7
        BYTE   W01
        BYTE                   6
        BYTE   W03
        BYTE                   5
        BYTE   W02
        BYTE                   4
        BYTE   W01
        BYTE                   3
        BYTE   W11
// 026   ----------------------------------------
        BYTE   W96
// 027   ----------------------------------------
        BYTE   PATT
         POIN2  HiddenHighland_8_6
// 028   ----------------------------------------
        BYTE   PATT
         POIN2  HiddenHighland_8_3
// 029   ----------------------------------------
        BYTE   PATT
         POIN2  HiddenHighland_8_4
// 030   ----------------------------------------
        BYTE   W96
// 031   ----------------------------------------
        BYTE   PATT
         POIN2  HiddenHighland_8_6
// 032   ----------------------------------------
        BYTE   PATT
         POIN2  HiddenHighland_8_7
// 033   ----------------------------------------
        BYTE   PATT
         POIN2  HiddenHighland_8_8
// 034   ----------------------------------------
        BYTE   PATT
         POIN2  HiddenHighland_8_9
// 035   ----------------------------------------
        BYTE   W96
// 036   ----------------------------------------
        BYTE   W96
// 037   ----------------------------------------
        BYTE   W96
// 038   ----------------------------------------
        BYTE   W96
// 039   ----------------------------------------
        BYTE   W96
// 040   ----------------------------------------
        BYTE   W96
// 041   ----------------------------------------
        BYTE   W96
// 042   ----------------------------------------
        BYTE   W96
// 043   ----------------------------------------
        BYTE           VOL     35
        BYTE   W96
// 044   ----------------------------------------
        BYTE   PATT
         POIN2  HiddenHighland_8_19
// 045   ----------------------------------------
        BYTE   PATT
         POIN2  HiddenHighland_8_20
// 046   ----------------------------------------
        BYTE   PATT
         POIN2  HiddenHighland_8_21
// 047   ----------------------------------------
        BYTE   PATT
         POIN2  HiddenHighland_8_22
// 048   ----------------------------------------
        BYTE   PATT
         POIN2  HiddenHighland_8_23
// 049   ----------------------------------------
        BYTE   PATT
         POIN2  HiddenHighland_8_24
// 050   ----------------------------------------
        BYTE   W03
        BYTE           VOL     33
        BYTE   W07
        BYTE                   32
        BYTE   W06
        BYTE                   31
        BYTE   W06
        BYTE                   30
        BYTE   W02
        BYTE   GoTo
         POIN2  HiddenHighland_8_LOOP
        BYTE   W03
        BYTE                   29
        BYTE   W01
        BYTE                   28
        BYTE   W05
        BYTE                   27
        BYTE   W03
        BYTE                   26
        BYTE   W04
        BYTE                   25
        BYTE   W02
        BYTE                   24
        BYTE   W03
        BYTE                   23
        BYTE   W03
        BYTE                   22
        BYTE   W01
        BYTE                   21
        BYTE   W03
        BYTE                   20
        BYTE   W03
        BYTE                   19
        BYTE   W02
        BYTE                   18
        BYTE   W03
        BYTE                   17
        BYTE   W01
        BYTE                   16
        BYTE   W02
        BYTE                   15
        BYTE   W03
        BYTE                   14
        BYTE   W01
        BYTE                   13
        BYTE   W02
        BYTE                   12
        BYTE   W03
        BYTE           EOT     Cn4
        BYTE           VOL     11
        BYTE   W01
        BYTE                   10
        BYTE   W02
        BYTE                   9
        BYTE   W01
        BYTE                   8
        BYTE   W02
        BYTE                   7
        BYTE   W01
        BYTE                   6
        BYTE   W03
        BYTE                   5
        BYTE   W02
        BYTE                   4
        BYTE   W01
        BYTE                   3
        BYTE   W11
// 051   ----------------------------------------
        BYTE   FINE

//***************** Track 9 (Midi-Chn.10) ******************//

HiddenHighland_9:
        BYTE   KEYSH   HiddenHighland_key+0
// 000   ----------------------------------------
        BYTE   W24
// 001   ----------------------------------------
        BYTE           PAN     c_v-64
        BYTE           VOL     22
        BYTE           VOICE   75
        BYTE   W96
// 002   ----------------------------------------
        BYTE   W84
        BYTE           N04     Cn4   v127
        BYTE   W04
        BYTE                   Cs4
        BYTE   W04
        BYTE                   Ds4
        BYTE   W04
// 003   ----------------------------------------
HiddenHighland_9_3:
        BYTE           N04     Fn4   v127
        BYTE   W04
        BYTE                   Ds4
        BYTE   W04
        BYTE                   Cs4
        BYTE   W04
        BYTE           N96     Cn4
        BYTE   W30
        BYTE           VOL     21
        BYTE   W09
        BYTE                   20
        BYTE   W07
        BYTE                   19
        BYTE   W06
        BYTE                   18
        BYTE   W05
        BYTE                   17
        BYTE   W04
        BYTE                   16
        BYTE   W03
        BYTE                   15
        BYTE   W03
        BYTE                   14
        BYTE   W03
        BYTE                   13
        BYTE   W03
        BYTE                   12
        BYTE   W03
        BYTE                   11
        BYTE   W03
        BYTE                   10
        BYTE   W03
        BYTE                   9
        BYTE   W02
        BYTE   PEND
// 004   ----------------------------------------
HiddenHighland_9_4:
        BYTE           VOL     8
        BYTE   W03
        BYTE                   7
        BYTE   W01
        BYTE                   6
        BYTE   W03
        BYTE                   5
        BYTE   W02
        BYTE                   4
        BYTE   W03
        BYTE                   3
        BYTE   W01
        BYTE                   2
        BYTE   W02
        BYTE                   1
        BYTE   W01
        BYTE                   0
        BYTE   W80
        BYTE   PEND
// 005   ----------------------------------------
        BYTE   W96
// 006   ----------------------------------------
HiddenHighland_9_6:
        BYTE   W12
        BYTE           VOL     22
        BYTE   W72
        BYTE           N04     Cn4   v127
        BYTE   W04
        BYTE                   Cs4
        BYTE   W04
        BYTE                   Ds4
        BYTE   W04
        BYTE   PEND
// 007   ----------------------------------------
HiddenHighland_9_7:
        BYTE           N04     Fn4   v127
        BYTE   W04
        BYTE                   Ds4
        BYTE   W04
        BYTE                   Cs4
        BYTE   W04
        BYTE           N24     Cn4
        BYTE   W24
        BYTE           N12     Gs4
        BYTE   W12
        BYTE           N48     Ds4
        BYTE   W48
        BYTE   PEND
// 008   ----------------------------------------
HiddenHighland_9_8:
        BYTE           N12     Cn5   v127
        BYTE   W12
        BYTE           N24     Gs4
        BYTE   W24
        BYTE           N12     Ds4
        BYTE   W12
        BYTE           N60     Gs3
        BYTE   W06
        BYTE           VOL     21
        BYTE   W12
        BYTE                   20
        BYTE   W06
        BYTE                   19
        BYTE   W06
        BYTE                   18
        BYTE   W03
        BYTE                   17
        BYTE   W04
        BYTE                   16
        BYTE   W02
        BYTE                   15
        BYTE   W03
        BYTE                   14
        BYTE   W03
        BYTE                   13
        BYTE   W01
        BYTE                   12
        BYTE   W02
        BYTE   PEND
// 009   ----------------------------------------
HiddenHighland_9_9:
        BYTE   W01
        BYTE           VOL     11
        BYTE   W02
        BYTE                   10
        BYTE   W03
        BYTE                   9
        BYTE   W01
        BYTE                   8
        BYTE   W02
        BYTE                   7
        BYTE   W01
        BYTE                   6
        BYTE   W03
        BYTE                   5
        BYTE   W02
        BYTE                   4
        BYTE   W01
        BYTE                   3
        BYTE   W02
        BYTE                   2
        BYTE   W01
        BYTE                   1
        BYTE   W76
        BYTE   W01
        BYTE   PEND
// 010   ----------------------------------------
        BYTE   W96
// 011   ----------------------------------------
        BYTE   W96
// 012   ----------------------------------------
        BYTE   W96
// 013   ----------------------------------------
        BYTE   W96
// 014   ----------------------------------------
        BYTE   W96
// 015   ----------------------------------------
        BYTE   W96
// 016   ----------------------------------------
        BYTE   W96
// 017   ----------------------------------------
        BYTE   W96
// 018   ----------------------------------------
        BYTE   W12
        BYTE                   22
        BYTE   W84
// 019   ----------------------------------------
HiddenHighland_9_19:
        BYTE   W12
        BYTE           N60     As4   v127
        BYTE   W09
        BYTE           VOL     21
        BYTE   W16
        BYTE                   20
        BYTE   W11
        BYTE                   19
        BYTE   W07
        BYTE                   18
        BYTE   W06
        BYTE                   17
        BYTE   W05
        BYTE                   16
        BYTE   W03
        BYTE                   15
        BYTE   W03
        BYTE           N12     Gs4
        BYTE   W03
        BYTE           VOL     21
        BYTE   W01
        BYTE                   22
        BYTE   W08
        BYTE           N12     Fs4
        BYTE   W12
        BYTE   PEND
// 020   ----------------------------------------
HiddenHighland_9_20:
        BYTE           N12     Gs4   v127
        BYTE   W12
        BYTE           N18     Fn4
        BYTE   W18
        BYTE           N03     En4
        BYTE   W03
        BYTE                   Ds4
        BYTE   W03
        BYTE           N66     Cs4
        BYTE   W09
        BYTE           VOL     21
        BYTE   W15
        BYTE                   20
        BYTE   W10
        BYTE                   19
        BYTE   W09
        BYTE                   18
        BYTE   W06
        BYTE                   17
        BYTE   W05
        BYTE                   16
        BYTE   W03
        BYTE                   15
        BYTE   W03
        BYTE   PEND
// 021   ----------------------------------------
HiddenHighland_9_21:
        BYTE   W01
        BYTE           VOL     14
        BYTE   W03
        BYTE                   13
        BYTE   W05
        BYTE                   12
        BYTE   W01
        BYTE                   22
        BYTE   W02
        BYTE           N60     As4   v127
        BYTE   W09
        BYTE           VOL     21
        BYTE   W18
        BYTE                   20
        BYTE   W09
        BYTE                   19
        BYTE   W07
        BYTE                   18
        BYTE   W05
        BYTE                   17
        BYTE   W07
        BYTE                   18
        BYTE   W03
        BYTE                   19
        BYTE   W02
        BYTE                   20
        BYTE           N12     Gs4
        BYTE   W01
        BYTE           VOL     22
        BYTE   W11
        BYTE           N12     Fs4
        BYTE   W12
        BYTE   PEND
// 022   ----------------------------------------
HiddenHighland_9_22:
        BYTE           N12     Gs4   v127
        BYTE   W12
        BYTE           N18     Fn4
        BYTE   W18
        BYTE           N03     Bn4
        BYTE   W03
        BYTE                   Cn5
        BYTE   W03
        BYTE           N66     Cs5
        BYTE   W07
        BYTE           VOL     21
        BYTE   W14
        BYTE                   20
        BYTE   W09
        BYTE                   19
        BYTE   W07
        BYTE                   18
        BYTE   W05
        BYTE                   17
        BYTE   W03
        BYTE                   16
        BYTE   W03
        BYTE                   15
        BYTE   W04
        BYTE                   14
        BYTE   W03
        BYTE                   13
        BYTE   W03
        BYTE                   12
        BYTE   W02
        BYTE   PEND
// 023   ----------------------------------------
HiddenHighland_9_23:
        BYTE   W01
        BYTE           VOL     11
        BYTE   W02
        BYTE                   10
        BYTE   W03
        BYTE                   9
        BYTE   W03
        BYTE                   15
        BYTE   W01
        BYTE                   22
        BYTE   W02
        BYTE           N12     Bn4   v127
        BYTE   W12
        BYTE                   As4
        BYTE   W12
        BYTE                   Gs4
        BYTE   W12
        BYTE                   As4
        BYTE   W12
        BYTE                   Fs4
        BYTE   W12
        BYTE                   Cs4
        BYTE   W12
        BYTE                   Cn4
        BYTE   W12
        BYTE   PEND
// 024   ----------------------------------------
HiddenHighland_9_24:
        BYTE           N10     Gs4   v127
        BYTE   W12
        BYTE           N24
        BYTE   W24
        BYTE           N12     Fn4
        BYTE   W12
        BYTE                   Cs4
        BYTE   W12
        BYTE           N06     Cn4
        BYTE   W06
        BYTE                   As3
        BYTE   W06
        BYTE           TIE     Cn4
        BYTE   W22
        BYTE           VOL     21
        BYTE   W02
        BYTE   PEND
// 025   ----------------------------------------
        BYTE   W19
        BYTE                   20
        BYTE   W05
HiddenHighland_9_LOOP:
        BYTE   W06
        BYTE           VOL     19
        BYTE   W09
        BYTE                   18
        BYTE   W06
        BYTE                   17
        BYTE   W04
        BYTE                   16
        BYTE   W05
        BYTE                   15
        BYTE   W04
        BYTE                   14
        BYTE   W03
        BYTE                   13
        BYTE   W05
        BYTE                   12
        BYTE   W03
        BYTE                   11
        BYTE   W04
        BYTE                   10
        BYTE   W03
        BYTE                   9
        BYTE   W03
        BYTE                   8
        BYTE   W03
        BYTE                   7
        BYTE   W02
        BYTE           EOT     Cn4
        BYTE   W01
        BYTE           VOL     6
        BYTE   W03
        BYTE                   5
        BYTE   W03
        BYTE                   4
        BYTE   W03
        BYTE                   3
        BYTE   W02
// 026   ----------------------------------------
        BYTE                   2
        BYTE   W96
// 027   ----------------------------------------
        BYTE   PATT
         POIN2  HiddenHighland_9_6
// 028   ----------------------------------------
        BYTE   PATT
         POIN2  HiddenHighland_9_3
// 029   ----------------------------------------
        BYTE   PATT
         POIN2  HiddenHighland_9_4
// 030   ----------------------------------------
        BYTE   W96
// 031   ----------------------------------------
        BYTE   PATT
         POIN2  HiddenHighland_9_6
// 032   ----------------------------------------
        BYTE   PATT
         POIN2  HiddenHighland_9_7
// 033   ----------------------------------------
        BYTE   PATT
         POIN2  HiddenHighland_9_8
// 034   ----------------------------------------
        BYTE   PATT
         POIN2  HiddenHighland_9_9
// 035   ----------------------------------------
        BYTE   W96
// 036   ----------------------------------------
        BYTE   W96
// 037   ----------------------------------------
        BYTE   W96
// 038   ----------------------------------------
        BYTE   W96
// 039   ----------------------------------------
        BYTE   W96
// 040   ----------------------------------------
        BYTE   W96
// 041   ----------------------------------------
        BYTE   W96
// 042   ----------------------------------------
        BYTE   W96
// 043   ----------------------------------------
        BYTE   W12
        BYTE           VOL     22
        BYTE   W84
// 044   ----------------------------------------
        BYTE   PATT
         POIN2  HiddenHighland_9_19
// 045   ----------------------------------------
        BYTE   PATT
         POIN2  HiddenHighland_9_20
// 046   ----------------------------------------
        BYTE   PATT
         POIN2  HiddenHighland_9_21
// 047   ----------------------------------------
        BYTE   PATT
         POIN2  HiddenHighland_9_22
// 048   ----------------------------------------
        BYTE   PATT
         POIN2  HiddenHighland_9_23
// 049   ----------------------------------------
        BYTE   PATT
         POIN2  HiddenHighland_9_24
// 050   ----------------------------------------
        BYTE   W19
        BYTE           VOL     20
        BYTE   W05
        BYTE   GoTo
         POIN2  HiddenHighland_9_LOOP
        BYTE   W06
        BYTE                   19
        BYTE   W09
        BYTE                   18
        BYTE   W06
        BYTE                   17
        BYTE   W04
        BYTE                   16
        BYTE   W05
        BYTE                   15
        BYTE   W04
        BYTE                   14
        BYTE   W03
        BYTE                   13
        BYTE   W05
        BYTE                   12
        BYTE   W03
        BYTE                   11
        BYTE   W04
        BYTE                   10
        BYTE   W03
        BYTE                   9
        BYTE   W03
        BYTE                   8
        BYTE   W03
        BYTE                   7
        BYTE   W02
        BYTE           EOT     Cn4
        BYTE   W01
        BYTE           VOL     6
        BYTE   W03
        BYTE                   5
        BYTE   W03
        BYTE                   4
        BYTE   W03
        BYTE                   3
        BYTE   W02
// 051   ----------------------------------------
        BYTE                   2
        BYTE   FINE

//***************** Track 10 (Midi-Chn.11) *****************//

HiddenHighland_10:
        BYTE   KEYSH   HiddenHighland_key+0
// 000   ----------------------------------------
        BYTE   W24
// 001   ----------------------------------------
        BYTE           PAN     c_v+63
        BYTE           VOL     19
        BYTE           VOICE   75
        BYTE   W96
// 002   ----------------------------------------
        BYTE   W96
// 003   ----------------------------------------
HiddenHighland_10_3:
        BYTE           N04     Cn4   v127
        BYTE   W04
        BYTE                   Cs4
        BYTE   W04
        BYTE                   Ds4
        BYTE   W04
        BYTE                   Fn4
        BYTE   W04
        BYTE                   Ds4
        BYTE   W04
        BYTE                   Cs4
        BYTE   W04
        BYTE           N96     Cn4
        BYTE   W36
        BYTE           VOL     18
        BYTE   W09
        BYTE                   17
        BYTE   W06
        BYTE                   16
        BYTE   W06
        BYTE                   15
        BYTE   W04
        BYTE                   14
        BYTE   W05
        BYTE                   13
        BYTE   W03
        BYTE                   12
        BYTE   W03
        BYTE   PEND
// 004   ----------------------------------------
HiddenHighland_10_4:
        BYTE           VOL     11
        BYTE   W03
        BYTE                   10
        BYTE   W04
        BYTE                   9
        BYTE   W02
        BYTE                   8
        BYTE   W03
        BYTE                   7
        BYTE   W03
        BYTE                   6
        BYTE   W03
        BYTE                   5
        BYTE   W01
        BYTE                   4
        BYTE   W03
        BYTE                   3
        BYTE   W02
        BYTE                   2
        BYTE   W03
        BYTE                   1
        BYTE   W01
        BYTE                   0
        BYTE   W68
        BYTE   PEND
// 005   ----------------------------------------
        BYTE   W96
// 006   ----------------------------------------
        BYTE   W24
        BYTE                   19
        BYTE   W72
// 007   ----------------------------------------
HiddenHighland_10_7:
        BYTE           N04     Cn4   v127
        BYTE   W04
        BYTE                   Cs4
        BYTE   W04
        BYTE                   Ds4
        BYTE   W04
        BYTE                   Fn4
        BYTE   W04
        BYTE                   Ds4
        BYTE   W04
        BYTE                   Cs4
        BYTE   W04
        BYTE           N24     Cn4
        BYTE   W24
        BYTE           N12     Gs4
        BYTE   W12
        BYTE           N48     Ds4
        BYTE   W36
        BYTE   PEND
// 008   ----------------------------------------
HiddenHighland_10_8:
        BYTE   W12
        BYTE           N12     Cn5   v127
        BYTE   W12
        BYTE           N24     Gs4
        BYTE   W24
        BYTE           N12     Ds4
        BYTE   W12
        BYTE           N60     Gs3
        BYTE   W15
        BYTE           VOL     18
        BYTE   W07
        BYTE                   17
        BYTE   W06
        BYTE                   16
        BYTE   W05
        BYTE                   15
        BYTE   W03
        BYTE   PEND
// 009   ----------------------------------------
HiddenHighland_10_9:
        BYTE   W01
        BYTE           VOL     14
        BYTE   W03
        BYTE                   13
        BYTE   W02
        BYTE                   12
        BYTE   W03
        BYTE                   11
        BYTE   W03
        BYTE                   10
        BYTE   W03
        BYTE                   9
        BYTE   W01
        BYTE                   8
        BYTE   W03
        BYTE                   7
        BYTE   W02
        BYTE                   6
        BYTE   W03
        BYTE                   5
        BYTE   W01
        BYTE                   4
        BYTE   W02
        BYTE                   3
        BYTE   W01
        BYTE                   2
        BYTE   W03
        BYTE                   1
        BYTE   W64
        BYTE   W01
        BYTE   PEND
// 010   ----------------------------------------
        BYTE   W96
// 011   ----------------------------------------
        BYTE   W96
// 012   ----------------------------------------
        BYTE   W96
// 013   ----------------------------------------
        BYTE   W96
// 014   ----------------------------------------
        BYTE   W96
// 015   ----------------------------------------
        BYTE   W96
// 016   ----------------------------------------
        BYTE   W96
// 017   ----------------------------------------
        BYTE   W96
// 018   ----------------------------------------
        BYTE   W24
        BYTE                   19
        BYTE   W72
// 019   ----------------------------------------
HiddenHighland_10_19:
        BYTE   W24
        BYTE           N60     As4   v127
        BYTE   W21
        BYTE           VOL     18
        BYTE   W12
        BYTE                   17
        BYTE   W09
        BYTE                   16
        BYTE   W06
        BYTE                   15
        BYTE   W06
        BYTE                   14
        BYTE   W04
        BYTE                   13
        BYTE   W02
        BYTE           N12     Gs4
        BYTE   W03
        BYTE           VOL     19
        BYTE   W09
        BYTE   PEND
// 020   ----------------------------------------
HiddenHighland_10_20:
        BYTE           N12     Fs4   v127
        BYTE   W12
        BYTE                   Gs4
        BYTE   W12
        BYTE           N18     Fn4
        BYTE   W18
        BYTE           N03     En4
        BYTE   W03
        BYTE                   Ds4
        BYTE   W03
        BYTE           N66     Cs4
        BYTE   W19
        BYTE           VOL     18
        BYTE   W12
        BYTE                   17
        BYTE   W09
        BYTE                   16
        BYTE   W08
        BYTE   PEND
// 021   ----------------------------------------
HiddenHighland_10_21:
        BYTE           VOL     15
        BYTE   W06
        BYTE                   14
        BYTE   W04
        BYTE                   13
        BYTE   W03
        BYTE                   12
        BYTE   W05
        BYTE                   11
        BYTE   W04
        BYTE                   19
        BYTE   W02
        BYTE           N60     As4   v127
        BYTE   W22
        BYTE           VOL     18
        BYTE   W11
        BYTE                   17
        BYTE   W07
        BYTE                   16
        BYTE   W08
        BYTE                   15
        BYTE   W09
        BYTE                   16
        BYTE   W01
        BYTE                   17
        BYTE   W02
        BYTE                   18
        BYTE           N12     Gs4
        BYTE   W01
        BYTE           VOL     19
        BYTE   W11
        BYTE   PEND
// 022   ----------------------------------------
HiddenHighland_10_22:
        BYTE           N12     Fs4   v127
        BYTE   W12
        BYTE                   Gs4
        BYTE   W12
        BYTE           N18     Fn4
        BYTE   W18
        BYTE           N03     Bn4
        BYTE   W03
        BYTE                   Cn5
        BYTE   W03
        BYTE           N66     Cs5
        BYTE   W16
        BYTE           VOL     18
        BYTE   W11
        BYTE                   17
        BYTE   W07
        BYTE                   16
        BYTE   W06
        BYTE                   15
        BYTE   W05
        BYTE                   14
        BYTE   W03
        BYTE   PEND
// 023   ----------------------------------------
HiddenHighland_10_23:
        BYTE   W01
        BYTE           VOL     13
        BYTE   W03
        BYTE                   12
        BYTE   W05
        BYTE                   11
        BYTE   W03
        BYTE                   10
        BYTE   W03
        BYTE                   9
        BYTE   W03
        BYTE                   8
        BYTE   W03
        BYTE                   13
        BYTE   W01
        BYTE                   19
        BYTE   W02
        BYTE           N12     Bn4   v127
        BYTE   W12
        BYTE                   As4
        BYTE   W12
        BYTE                   Gs4
        BYTE   W12
        BYTE                   As4
        BYTE   W12
        BYTE                   Fs4
        BYTE   W12
        BYTE                   Cs4
        BYTE   W12
        BYTE   PEND
// 024   ----------------------------------------
HiddenHighland_10_24:
        BYTE           N12     Cn4   v127
        BYTE   W12
        BYTE           N10     Gs4
        BYTE   W12
        BYTE           N24
        BYTE   W24
        BYTE           N12     Fn4
        BYTE   W12
        BYTE                   Cs4
        BYTE   W12
        BYTE           N06     Cn4
        BYTE   W06
        BYTE                   As3
        BYTE   W06
        BYTE           TIE     Cn4
        BYTE   W12
        BYTE   PEND
// 025   ----------------------------------------
        BYTE   W24
HiddenHighland_10_LOOP:
        BYTE   W03
        BYTE           VOL     18
        BYTE   W12
        BYTE                   17
        BYTE   W09
        BYTE                   16
        BYTE   W07
        BYTE                   15
        BYTE   W06
        BYTE                   14
        BYTE   W05
        BYTE                   13
        BYTE   W04
        BYTE                   12
        BYTE   W05
        BYTE                   11
        BYTE   W04
        BYTE                   10
        BYTE   W05
        BYTE                   9
        BYTE   W03
        BYTE                   8
        BYTE   W04
        BYTE                   7
        BYTE   W03
        BYTE                   6
        BYTE   W02
// 026   ----------------------------------------
        BYTE           EOT     Cn4
        BYTE   W96
// 027   ----------------------------------------
        BYTE   W24
        BYTE           VOL     19
        BYTE   W72
// 028   ----------------------------------------
        BYTE   PATT
         POIN2  HiddenHighland_10_3
// 029   ----------------------------------------
        BYTE   PATT
         POIN2  HiddenHighland_10_4
// 030   ----------------------------------------
        BYTE   W96
// 031   ----------------------------------------
        BYTE   W24
        BYTE           VOL     19
        BYTE   W72
// 032   ----------------------------------------
        BYTE   PATT
         POIN2  HiddenHighland_10_7
// 033   ----------------------------------------
        BYTE   PATT
         POIN2  HiddenHighland_10_8
// 034   ----------------------------------------
        BYTE   PATT
         POIN2  HiddenHighland_10_9
// 035   ----------------------------------------
        BYTE   W96
// 036   ----------------------------------------
        BYTE   W96
// 037   ----------------------------------------
        BYTE   W96
// 038   ----------------------------------------
        BYTE   W96
// 039   ----------------------------------------
        BYTE   W96
// 040   ----------------------------------------
        BYTE   W96
// 041   ----------------------------------------
        BYTE   W96
// 042   ----------------------------------------
        BYTE   W96
// 043   ----------------------------------------
        BYTE   W24
        BYTE           VOL     19
        BYTE   W72
// 044   ----------------------------------------
        BYTE   PATT
         POIN2  HiddenHighland_10_19
// 045   ----------------------------------------
        BYTE   PATT
         POIN2  HiddenHighland_10_20
// 046   ----------------------------------------
        BYTE   PATT
         POIN2  HiddenHighland_10_21
// 047   ----------------------------------------
        BYTE   PATT
         POIN2  HiddenHighland_10_22
// 048   ----------------------------------------
        BYTE   PATT
         POIN2  HiddenHighland_10_23
// 049   ----------------------------------------
        BYTE   PATT
         POIN2  HiddenHighland_10_24
// 050   ----------------------------------------
        BYTE   W24
        BYTE   GoTo
         POIN2  HiddenHighland_10_LOOP
        BYTE   W03
        BYTE           VOL     18
        BYTE   W12
        BYTE                   17
        BYTE   W09
        BYTE                   16
        BYTE   W07
        BYTE                   15
        BYTE   W06
        BYTE                   14
        BYTE   W05
        BYTE                   13
        BYTE   W04
        BYTE                   12
        BYTE   W05
        BYTE                   11
        BYTE   W04
        BYTE                   10
        BYTE   W05
        BYTE                   9
        BYTE   W03
        BYTE                   8
        BYTE   W04
        BYTE                   7
        BYTE   W03
        BYTE                   6
        BYTE   W02
// 051   ----------------------------------------
        BYTE           EOT     Cn4
        BYTE   FINE

//***************** Track 11 (Midi-Chn.12) *****************//

HiddenHighland_11:
        BYTE   KEYSH   HiddenHighland_key+0
// 000   ----------------------------------------
        BYTE   W24
// 001   ----------------------------------------
        BYTE           VOL     43
        BYTE           VOICE   10
        BYTE           N04     As3   v061
        BYTE   W12
        BYTE                   Fn4
        BYTE   W12
        BYTE                   Ds4
        BYTE   W12
        BYTE                   Gs4
        BYTE   W12
        BYTE                   Ds4
        BYTE   W12
        BYTE                   Fn4
        BYTE   W12
        BYTE                   As3
        BYTE   W12
        BYTE                   Fn4
        BYTE   W12
// 002   ----------------------------------------
HiddenHighland_11_2:
        BYTE           N04     Ds4   v063
        BYTE   W12
        BYTE                   Gs4
        BYTE   W12
        BYTE                   Ds4
        BYTE   W12
        BYTE                   Fn4   v065
        BYTE   W12
        BYTE                   As3
        BYTE   W12
        BYTE                   Fn4
        BYTE   W12
        BYTE                   Ds4   v067
        BYTE   W12
        BYTE                   Gs4
        BYTE   W12
        BYTE   PEND
// 003   ----------------------------------------
HiddenHighland_11_3:
        BYTE           N04     Ds4   v068
        BYTE   W12
        BYTE                   Fn4
        BYTE   W12
        BYTE                   As3   v070
        BYTE   W12
        BYTE                   Fn4
        BYTE   W12
        BYTE                   Ds4   v072
        BYTE   W12
        BYTE                   Gs4   v074
        BYTE   W12
        BYTE                   Ds4
        BYTE   W12
        BYTE                   Fn4   v076
        BYTE   W12
        BYTE   PEND
// 004   ----------------------------------------
HiddenHighland_11_4:
        BYTE           N04     As3   v078
        BYTE   W12
        BYTE                   Fn4
        BYTE   W12
        BYTE                   Ds4   v079
        BYTE   W12
        BYTE                   Gs4   v081
        BYTE   W12
        BYTE                   Ds4   v083
        BYTE   W12
        BYTE                   Fn4   v085
        BYTE   W12
        BYTE                   As3   v087
        BYTE   W12
        BYTE                   Fn4   v088
        BYTE   W12
        BYTE   PEND
// 005   ----------------------------------------
HiddenHighland_11_5:
        BYTE           N04     Ds4   v090
        BYTE   W12
        BYTE                   Gs4
        BYTE   W12
        BYTE                   Ds4
        BYTE   W12
        BYTE                   Fn4
        BYTE   W12
        BYTE                   As3
        BYTE   W12
        BYTE                   Fn4
        BYTE   W12
        BYTE                   Ds4
        BYTE   W12
        BYTE                   Gs4
        BYTE   W12
        BYTE   PEND
// 006   ----------------------------------------
HiddenHighland_11_6:
        BYTE           N04     Ds4   v092
        BYTE   W12
        BYTE                   Fn4   v090
        BYTE   W12
        BYTE                   As3   v088
        BYTE   W12
        BYTE                   Fn4   v085
        BYTE   W12
        BYTE                   Ds4   v083
        BYTE   W12
        BYTE                   Gs4   v081
        BYTE   W12
        BYTE                   Ds4   v079
        BYTE   W12
        BYTE                   Fn4   v076
        BYTE   W12
        BYTE   PEND
// 007   ----------------------------------------
HiddenHighland_11_7:
        BYTE           N04     As3   v074
        BYTE   W12
        BYTE                   Fn4   v072
        BYTE   W12
        BYTE                   Ds4   v070
        BYTE   W12
        BYTE                   Gs4   v068
        BYTE   W12
        BYTE                   Ds4   v067
        BYTE   W12
        BYTE                   Fn4   v065
        BYTE   W12
        BYTE                   As3   v063
        BYTE   W12
        BYTE                   Fn4
        BYTE   W12
        BYTE   PEND
// 008   ----------------------------------------
HiddenHighland_11_8:
        BYTE           N04     Ds4   v059
        BYTE   W12
        BYTE                   Gs4   v054
        BYTE   W12
        BYTE                   Ds4   v048
        BYTE   W12
        BYTE                   Fn4   v045
        BYTE   W12
        BYTE                   As3   v039
        BYTE   W12
        BYTE                   Fn4   v036
        BYTE   W12
        BYTE                   Ds4   v032
        BYTE   W12
        BYTE                   Gs4   v029
        BYTE   W12
        BYTE   PEND
// 009   ----------------------------------------
HiddenHighland_11_9:
        BYTE           N04     Ds4   v025
        BYTE   W12
        BYTE                   Fn4   v021
        BYTE   W12
        BYTE                   As3   v019
        BYTE   W12
        BYTE                   Fn4   v018
        BYTE   W12
        BYTE                   Ds4   v016
        BYTE   W12
        BYTE                   Gs4   v014
        BYTE   W12
        BYTE                   Ds4
        BYTE   W12
        BYTE                   Fn4
        BYTE   W12
        BYTE   PEND
// 010   ----------------------------------------
HiddenHighland_11_10:
        BYTE           PAN     c_v+6
        BYTE           VOL     35
        BYTE           VOICE   52
        BYTE   W84
        BYTE           VOL     19
        BYTE   W12
        BYTE   PEND
// 011   ----------------------------------------
HiddenHighland_11_11:
        BYTE           N96     Fs3   v100
        BYTE   W06
        BYTE           VOL     20
        BYTE   W24
        BYTE                   21
        BYTE   W09
        BYTE                   22
        BYTE   W09
        BYTE                   23
        BYTE   W06
        BYTE                   24
        BYTE   W06
        BYTE                   25
        BYTE   W06
        BYTE                   26
        BYTE   W06
        BYTE                   27
        BYTE   W12
        BYTE                   26
        BYTE   W09
        BYTE                   21
        BYTE   W03
        BYTE   PEND
// 012   ----------------------------------------
HiddenHighland_11_12:
        BYTE           N96     Gs3   v100
        BYTE   W15
        BYTE           VOL     22
        BYTE   W18
        BYTE                   23
        BYTE   W06
        BYTE                   24
        BYTE   W09
        BYTE                   25
        BYTE   W09
        BYTE                   26
        BYTE   W06
        BYTE                   27
        BYTE   W18
        BYTE                   26
        BYTE   W09
        BYTE                   25
        BYTE   W03
        BYTE                   24
        BYTE   W03
        BYTE   PEND
// 013   ----------------------------------------
HiddenHighland_11_13:
        BYTE           N96     As3   v100
        BYTE   W24
        BYTE   W03
        BYTE           VOL     25
        BYTE   W12
        BYTE                   26
        BYTE   W15
        BYTE                   27
        BYTE   W06
        BYTE                   28
        BYTE   W09
        BYTE                   29
        BYTE   W12
        BYTE                   28
        BYTE   W06
        BYTE                   27
        BYTE   W06
        BYTE                   25
        BYTE   W03
        BYTE   PEND
// 014   ----------------------------------------
HiddenHighland_11_14:
        BYTE           N96     Gs3   v100
        BYTE   W18
        BYTE           VOL     26
        BYTE   W18
        BYTE                   27
        BYTE   W09
        BYTE                   28
        BYTE   W09
        BYTE                   29
        BYTE   W06
        BYTE                   30
        BYTE   W06
        BYTE                   31
        BYTE   W12
        BYTE                   30
        BYTE   W06
        BYTE                   29
        BYTE   W03
        BYTE                   28
        BYTE   W06
        BYTE                   26
        BYTE   W03
        BYTE   PEND
// 015   ----------------------------------------
HiddenHighland_11_15:
        BYTE           N96     Fs3   v100
        BYTE   W15
        BYTE           VOL     27
        BYTE   W18
        BYTE                   28
        BYTE   W15
        BYTE                   29
        BYTE   W09
        BYTE                   30
        BYTE   W06
        BYTE                   31
        BYTE   W21
        BYTE                   30
        BYTE   W06
        BYTE                   29
        BYTE   W03
        BYTE                   28
        BYTE   W03
        BYTE   PEND
// 016   ----------------------------------------
HiddenHighland_11_16:
        BYTE           VOL     26
        BYTE           N96     Gs3   v100
        BYTE   W30
        BYTE           VOL     27
        BYTE   W09
        BYTE                   28
        BYTE   W09
        BYTE                   29
        BYTE   W06
        BYTE                   30
        BYTE   W06
        BYTE                   31
        BYTE   W09
        BYTE                   32
        BYTE   W15
        BYTE                   31
        BYTE   W09
        BYTE                   28
        BYTE   W03
        BYTE   PEND
// 017   ----------------------------------------
HiddenHighland_11_17:
        BYTE           TIE     As3   v100
        BYTE   W21
        BYTE           VOL     29
        BYTE   W15
        BYTE                   30
        BYTE   W12
        BYTE                   31
        BYTE   W15
        BYTE                   32
        BYTE   W09
        BYTE                   33
        BYTE   W18
        BYTE                   32
        BYTE   W06
        BYTE   PEND
// 018   ----------------------------------------
HiddenHighland_11_18:
        BYTE   W09
        BYTE           VOL     31
        BYTE   W09
        BYTE                   30
        BYTE   W06
        BYTE                   29
        BYTE   W06
        BYTE                   28
        BYTE   W06
        BYTE                   27
        BYTE   W03
        BYTE                   26
        BYTE   W06
        BYTE                   25
        BYTE   W03
        BYTE                   24
        BYTE   W06
        BYTE                   23
        BYTE   W03
        BYTE                   22
        BYTE   W03
        BYTE                   21
        BYTE   W03
        BYTE                   20
        BYTE   W06
        BYTE                   19
        BYTE   W03
        BYTE                   18
        BYTE   W03
        BYTE                   16
        BYTE   W06
        BYTE                   14
        BYTE   W06
        BYTE                   12
        BYTE   W03
        BYTE                   11
        BYTE   W03
        BYTE                   10
        BYTE   W03
        BYTE   PEND
// 019   ----------------------------------------
HiddenHighland_11_19:
        BYTE           VOL     9
        BYTE   W03
        BYTE                   8
        BYTE   W03
        BYTE                   6
        BYTE   W03
        BYTE                   5
        BYTE   W03
        BYTE           EOT     As3
        BYTE           VOL     4
        BYTE   W03
        BYTE                   2
        BYTE   W03
        BYTE                   1
        BYTE   W78
        BYTE   PEND
// 020   ----------------------------------------
        BYTE   W96
// 021   ----------------------------------------
        BYTE   W96
// 022   ----------------------------------------
        BYTE   W90
        BYTE                   23
        BYTE   W06
// 023   ----------------------------------------
HiddenHighland_11_23:
        BYTE           N48     Bn3   v100
        BYTE   W03
        BYTE           VOL     24
        BYTE   W09
        BYTE                   25
        BYTE   W06
        BYTE                   26
        BYTE   W06
        BYTE                   27
        BYTE   W03
        BYTE                   28
        BYTE   W03
        BYTE                   29
        BYTE   W03
        BYTE                   30
        BYTE   W03
        BYTE                   31
        BYTE   W03
        BYTE                   33
        BYTE   W09
        BYTE           N24     As3
        BYTE   W03
        BYTE           VOL     32
        BYTE   W09
        BYTE                   31
        BYTE   W06
        BYTE                   30
        BYTE   W06
        BYTE                   28
        BYTE           N48     Gs3
        BYTE   W24
        BYTE   PEND
// 024   ----------------------------------------
HiddenHighland_11_24:
        BYTE           VOL     29
        BYTE   W06
        BYTE                   30
        BYTE   W06
        BYTE                   31
        BYTE   W09
        BYTE                   32
        BYTE   W03
        BYTE                   33
        BYTE           N24     Fn3   v100
        BYTE   W09
        BYTE           VOL     32
        BYTE   W03
        BYTE                   31
        BYTE   W06
        BYTE                   29
        BYTE   W03
        BYTE                   27
        BYTE   W03
        BYTE           N72     Ds3
        BYTE   W12
        BYTE           VOL     28
        BYTE   W12
        BYTE                   29
        BYTE   W06
        BYTE                   30
        BYTE   W06
        BYTE                   31
        BYTE   W06
        BYTE                   32
        BYTE   W06
        BYTE   PEND
// 025   ----------------------------------------
        BYTE   W06
        BYTE                   31
        BYTE   W09
        BYTE                   30
        BYTE   W03
        BYTE                   28
        BYTE   W06
HiddenHighland_11_LOOP:
        BYTE           N72     Gs3   v100
        BYTE   W15
        BYTE           VOL     29
        BYTE   W09
        BYTE                   30
        BYTE   W06
        BYTE                   31
        BYTE   W09
        BYTE                   32
        BYTE   W03
        BYTE                   33
        BYTE   W06
        BYTE                   32
        BYTE   W06
        BYTE                   31
        BYTE   W03
        BYTE                   30
        BYTE   W03
        BYTE                   29
        BYTE   W03
        BYTE                   27
        BYTE   W03
        BYTE                   26
        BYTE   W03
        BYTE                   24
        BYTE   W03
// 026   ----------------------------------------
        BYTE           PAN     c_v+0
        BYTE           VOL     43
        BYTE           VOICE   10
        BYTE           N04     As3   v061
        BYTE   W12
        BYTE                   Fn4
        BYTE   W12
        BYTE                   Ds4
        BYTE   W12
        BYTE                   Gs4
        BYTE   W12
        BYTE                   Ds4
        BYTE   W12
        BYTE                   Fn4
        BYTE   W12
        BYTE                   As3
        BYTE   W12
        BYTE                   Fn4
        BYTE   W12
// 027   ----------------------------------------
        BYTE   PATT
         POIN2  HiddenHighland_11_2
// 028   ----------------------------------------
        BYTE   PATT
         POIN2  HiddenHighland_11_3
// 029   ----------------------------------------
        BYTE   PATT
         POIN2  HiddenHighland_11_4
// 030   ----------------------------------------
        BYTE   PATT
         POIN2  HiddenHighland_11_5
// 031   ----------------------------------------
        BYTE   PATT
         POIN2  HiddenHighland_11_6
// 032   ----------------------------------------
        BYTE   PATT
         POIN2  HiddenHighland_11_7
// 033   ----------------------------------------
        BYTE   PATT
         POIN2  HiddenHighland_11_8
// 034   ----------------------------------------
        BYTE   PATT
         POIN2  HiddenHighland_11_9
// 035   ----------------------------------------
        BYTE   PATT
         POIN2  HiddenHighland_11_10
// 036   ----------------------------------------
        BYTE   PATT
         POIN2  HiddenHighland_11_11
// 037   ----------------------------------------
        BYTE   PATT
         POIN2  HiddenHighland_11_12
// 038   ----------------------------------------
        BYTE   PATT
         POIN2  HiddenHighland_11_13
// 039   ----------------------------------------
        BYTE   PATT
         POIN2  HiddenHighland_11_14
// 040   ----------------------------------------
        BYTE   PATT
         POIN2  HiddenHighland_11_15
// 041   ----------------------------------------
        BYTE   PATT
         POIN2  HiddenHighland_11_16
// 042   ----------------------------------------
        BYTE   PATT
         POIN2  HiddenHighland_11_17
// 043   ----------------------------------------
        BYTE   PATT
         POIN2  HiddenHighland_11_18
// 044   ----------------------------------------
        BYTE   PATT
         POIN2  HiddenHighland_11_19
// 045   ----------------------------------------
        BYTE   W96
// 046   ----------------------------------------
        BYTE   W96
// 047   ----------------------------------------
        BYTE   W90
        BYTE           VOL     23
        BYTE   W06
// 048   ----------------------------------------
        BYTE   PATT
         POIN2  HiddenHighland_11_23
// 049   ----------------------------------------
        BYTE   PATT
         POIN2  HiddenHighland_11_24
// 050   ----------------------------------------
        BYTE   W06
        BYTE           VOL     31
        BYTE   W09
        BYTE                   30
        BYTE   W03
        BYTE                   28
        BYTE   W06
        BYTE           N72     Gs3   v100
        BYTE   GoTo
         POIN2  HiddenHighland_11_LOOP
        BYTE   W15
        BYTE           VOL     29
        BYTE   W09
        BYTE                   30
        BYTE   W06
        BYTE                   31
        BYTE   W09
        BYTE                   32
        BYTE   W03
        BYTE                   33
        BYTE   W06
        BYTE                   32
        BYTE   W06
        BYTE                   31
        BYTE   W03
        BYTE                   30
        BYTE   W03
        BYTE                   29
        BYTE   W03
        BYTE                   27
        BYTE   W03
        BYTE                   26
        BYTE   W03
        BYTE                   24
        BYTE   W03
// 051   ----------------------------------------
        BYTE                   22
        BYTE   FINE

//***************** Track 12 (Midi-Chn.13) *****************//

HiddenHighland_12:
        BYTE   KEYSH   HiddenHighland_key+0
// 000   ----------------------------------------
        BYTE   W24
// 001   ----------------------------------------
HiddenHighland_12_1:
        BYTE           PAN     c_v-64
        BYTE           VOL     26
        BYTE           VOICE   10
        BYTE   W04
        BYTE           N04     As3   v061
        BYTE   W12
        BYTE                   Fn4
        BYTE   W12
        BYTE                   Ds4
        BYTE   W12
        BYTE                   Gs4
        BYTE   W12
        BYTE                   Ds4
        BYTE   W12
        BYTE                   Fn4
        BYTE   W12
        BYTE                   As3
        BYTE   W12
        BYTE                   Fn4
        BYTE   W08
        BYTE   PEND
// 002   ----------------------------------------
HiddenHighland_12_2:
        BYTE   W04
        BYTE           N04     Ds4   v063
        BYTE   W12
        BYTE                   Gs4
        BYTE   W12
        BYTE                   Ds4
        BYTE   W12
        BYTE                   Fn4   v065
        BYTE   W12
        BYTE                   As3
        BYTE   W12
        BYTE                   Fn4
        BYTE   W12
        BYTE                   Ds4   v067
        BYTE   W12
        BYTE                   Gs4
        BYTE   W08
        BYTE   PEND
// 003   ----------------------------------------
HiddenHighland_12_3:
        BYTE   W04
        BYTE           N04     Ds4   v068
        BYTE   W12
        BYTE                   Fn4
        BYTE   W12
        BYTE                   As3   v070
        BYTE   W12
        BYTE                   Fn4
        BYTE   W12
        BYTE                   Ds4   v072
        BYTE   W12
        BYTE                   Gs4   v074
        BYTE   W12
        BYTE                   Ds4
        BYTE   W12
        BYTE                   Fn4   v076
        BYTE   W08
        BYTE   PEND
// 004   ----------------------------------------
HiddenHighland_12_4:
        BYTE   W04
        BYTE           N04     As3   v078
        BYTE   W12
        BYTE                   Fn4
        BYTE   W12
        BYTE                   Ds4   v079
        BYTE   W12
        BYTE                   Gs4   v081
        BYTE   W12
        BYTE                   Ds4   v083
        BYTE   W12
        BYTE                   Fn4   v085
        BYTE   W12
        BYTE                   As3   v087
        BYTE   W12
        BYTE                   Fn4   v088
        BYTE   W08
        BYTE   PEND
// 005   ----------------------------------------
HiddenHighland_12_5:
        BYTE   W04
        BYTE           N04     Ds4   v090
        BYTE   W12
        BYTE                   Gs4
        BYTE   W12
        BYTE                   Ds4
        BYTE   W12
        BYTE                   Fn4
        BYTE   W12
        BYTE                   As3
        BYTE   W12
        BYTE                   Fn4
        BYTE   W12
        BYTE                   Ds4
        BYTE   W12
        BYTE                   Gs4
        BYTE   W08
        BYTE   PEND
// 006   ----------------------------------------
HiddenHighland_12_6:
        BYTE   W04
        BYTE           N04     Ds4   v092
        BYTE   W12
        BYTE                   Fn4   v090
        BYTE   W12
        BYTE                   As3   v088
        BYTE   W12
        BYTE                   Fn4   v085
        BYTE   W12
        BYTE                   Ds4   v083
        BYTE   W12
        BYTE                   Gs4   v081
        BYTE   W12
        BYTE                   Ds4   v079
        BYTE   W12
        BYTE                   Fn4   v076
        BYTE   W08
        BYTE   PEND
// 007   ----------------------------------------
HiddenHighland_12_7:
        BYTE   W04
        BYTE           N04     As3   v074
        BYTE   W12
        BYTE                   Fn4   v072
        BYTE   W12
        BYTE                   Ds4   v070
        BYTE   W12
        BYTE                   Gs4   v068
        BYTE   W12
        BYTE                   Ds4   v067
        BYTE   W12
        BYTE                   Fn4   v065
        BYTE   W12
        BYTE                   As3   v063
        BYTE   W12
        BYTE                   Fn4
        BYTE   W08
        BYTE   PEND
// 008   ----------------------------------------
HiddenHighland_12_8:
        BYTE   W04
        BYTE           N04     Ds4   v059
        BYTE   W12
        BYTE                   Gs4   v054
        BYTE   W12
        BYTE                   Ds4   v048
        BYTE   W12
        BYTE                   Fn4   v045
        BYTE   W12
        BYTE                   As3   v039
        BYTE   W12
        BYTE                   Fn4   v036
        BYTE   W12
        BYTE                   Ds4   v032
        BYTE   W12
        BYTE                   Gs4   v029
        BYTE   W08
        BYTE   PEND
// 009   ----------------------------------------
HiddenHighland_12_9:
        BYTE   W04
        BYTE           N04     Ds4   v025
        BYTE   W12
        BYTE                   Fn4   v021
        BYTE   W12
        BYTE                   As3   v019
        BYTE   W12
        BYTE                   Fn4   v018
        BYTE   W12
        BYTE                   Ds4   v016
        BYTE   W12
        BYTE                   Gs4   v014
        BYTE   W12
        BYTE                   Ds4
        BYTE   W12
        BYTE                   Fn4
        BYTE   W08
        BYTE   PEND
// 010   ----------------------------------------
HiddenHighland_12_10:
        BYTE           PAN     c_v-24
        BYTE           VOL     35
        BYTE           VOICE   52
        BYTE   W84
        BYTE           VOL     19
        BYTE   W12
        BYTE   PEND
// 011   ----------------------------------------
HiddenHighland_12_11:
        BYTE           N96     Cs3   v100
        BYTE   W06
        BYTE           VOL     20
        BYTE   W24
        BYTE                   21
        BYTE   W09
        BYTE                   22
        BYTE   W09
        BYTE                   23
        BYTE   W06
        BYTE                   24
        BYTE   W06
        BYTE                   25
        BYTE   W06
        BYTE                   26
        BYTE   W06
        BYTE                   27
        BYTE   W12
        BYTE                   26
        BYTE   W09
        BYTE                   21
        BYTE   W03
        BYTE   PEND
// 012   ----------------------------------------
HiddenHighland_12_12:
        BYTE           N96     Ds3   v100
        BYTE   W15
        BYTE           VOL     22
        BYTE   W18
        BYTE                   23
        BYTE   W06
        BYTE                   24
        BYTE   W09
        BYTE                   25
        BYTE   W09
        BYTE                   26
        BYTE   W06
        BYTE                   27
        BYTE   W18
        BYTE                   26
        BYTE   W09
        BYTE                   25
        BYTE   W03
        BYTE                   24
        BYTE   W03
        BYTE   PEND
// 013   ----------------------------------------
HiddenHighland_12_13:
        BYTE           N96     Fn3   v100
        BYTE   W24
        BYTE   W03
        BYTE           VOL     25
        BYTE   W12
        BYTE                   26
        BYTE   W15
        BYTE                   27
        BYTE   W06
        BYTE                   28
        BYTE   W09
        BYTE                   29
        BYTE   W12
        BYTE                   28
        BYTE   W06
        BYTE                   27
        BYTE   W06
        BYTE                   25
        BYTE   W03
        BYTE   PEND
// 014   ----------------------------------------
HiddenHighland_12_14:
        BYTE           N96     Ds3   v100
        BYTE   W18
        BYTE           VOL     26
        BYTE   W18
        BYTE                   27
        BYTE   W09
        BYTE                   28
        BYTE   W09
        BYTE                   29
        BYTE   W06
        BYTE                   30
        BYTE   W06
        BYTE                   31
        BYTE   W12
        BYTE                   30
        BYTE   W06
        BYTE                   29
        BYTE   W03
        BYTE                   28
        BYTE   W06
        BYTE                   26
        BYTE   W03
        BYTE   PEND
// 015   ----------------------------------------
HiddenHighland_12_15:
        BYTE           N96     Cs3   v100
        BYTE   W15
        BYTE           VOL     27
        BYTE   W18
        BYTE                   28
        BYTE   W15
        BYTE                   29
        BYTE   W09
        BYTE                   30
        BYTE   W06
        BYTE                   31
        BYTE   W21
        BYTE                   30
        BYTE   W06
        BYTE                   29
        BYTE   W03
        BYTE                   28
        BYTE   W03
        BYTE   PEND
// 016   ----------------------------------------
HiddenHighland_12_16:
        BYTE           VOL     26
        BYTE           N96     Ds3   v100
        BYTE   W30
        BYTE           VOL     27
        BYTE   W09
        BYTE                   28
        BYTE   W09
        BYTE                   29
        BYTE   W06
        BYTE                   30
        BYTE   W06
        BYTE                   31
        BYTE   W09
        BYTE                   32
        BYTE   W15
        BYTE                   31
        BYTE   W09
        BYTE                   28
        BYTE   W03
        BYTE   PEND
// 017   ----------------------------------------
HiddenHighland_12_17:
        BYTE           TIE     Fn3   v100
        BYTE   W21
        BYTE           VOL     29
        BYTE   W15
        BYTE                   30
        BYTE   W12
        BYTE                   31
        BYTE   W15
        BYTE                   32
        BYTE   W09
        BYTE                   33
        BYTE   W18
        BYTE                   32
        BYTE   W06
        BYTE   PEND
// 018   ----------------------------------------
        BYTE   PATT
         POIN2  HiddenHighland_11_18
// 019   ----------------------------------------
HiddenHighland_12_19:
        BYTE           VOL     9
        BYTE   W03
        BYTE                   8
        BYTE   W03
        BYTE                   6
        BYTE   W03
        BYTE                   5
        BYTE   W03
        BYTE           EOT     Fn3
        BYTE           VOL     4
        BYTE   W03
        BYTE                   2
        BYTE   W03
        BYTE                   1
        BYTE   W78
        BYTE   PEND
// 020   ----------------------------------------
        BYTE   W96
// 021   ----------------------------------------
        BYTE   W96
// 022   ----------------------------------------
        BYTE   W90
        BYTE                   23
        BYTE   W06
// 023   ----------------------------------------
HiddenHighland_12_23:
        BYTE           N48     Gs3   v100
        BYTE   W03
        BYTE           VOL     24
        BYTE   W09
        BYTE                   25
        BYTE   W06
        BYTE                   26
        BYTE   W06
        BYTE                   27
        BYTE   W03
        BYTE                   28
        BYTE   W03
        BYTE                   29
        BYTE   W03
        BYTE                   30
        BYTE   W03
        BYTE                   31
        BYTE   W03
        BYTE                   33
        BYTE   W09
        BYTE           N24     Fs3
        BYTE   W03
        BYTE           VOL     32
        BYTE   W09
        BYTE                   31
        BYTE   W06
        BYTE                   30
        BYTE   W06
        BYTE                   28
        BYTE           N48     Fn3
        BYTE   W24
        BYTE   PEND
// 024   ----------------------------------------
HiddenHighland_12_24:
        BYTE           VOL     29
        BYTE   W06
        BYTE                   30
        BYTE   W06
        BYTE                   31
        BYTE   W09
        BYTE                   32
        BYTE   W03
        BYTE                   33
        BYTE           N24     Cs3   v100
        BYTE   W09
        BYTE           VOL     32
        BYTE   W03
        BYTE                   31
        BYTE   W06
        BYTE                   29
        BYTE   W03
        BYTE                   27
        BYTE   W03
        BYTE           N72     Cn3
        BYTE   W12
        BYTE           VOL     28
        BYTE   W12
        BYTE                   29
        BYTE   W06
        BYTE                   30
        BYTE   W06
        BYTE                   31
        BYTE   W06
        BYTE                   32
        BYTE   W06
        BYTE   PEND
// 025   ----------------------------------------
        BYTE   W06
        BYTE                   31
        BYTE   W09
        BYTE                   30
        BYTE   W03
        BYTE                   28
        BYTE   W06
HiddenHighland_12_LOOP:
        BYTE           N72     Ds3   v100
        BYTE   W15
        BYTE           VOL     29
        BYTE   W09
        BYTE                   30
        BYTE   W06
        BYTE                   31
        BYTE   W09
        BYTE                   32
        BYTE   W03
        BYTE                   33
        BYTE   W06
        BYTE                   32
        BYTE   W06
        BYTE                   31
        BYTE   W03
        BYTE                   30
        BYTE   W03
        BYTE                   29
        BYTE   W03
        BYTE                   27
        BYTE   W03
        BYTE                   26
        BYTE   W03
        BYTE                   24
        BYTE   W03
// 026   ----------------------------------------
        BYTE   PATT
         POIN2  HiddenHighland_12_1
// 027   ----------------------------------------
        BYTE   PATT
         POIN2  HiddenHighland_12_2
// 028   ----------------------------------------
        BYTE   PATT
         POIN2  HiddenHighland_12_3
// 029   ----------------------------------------
        BYTE   PATT
         POIN2  HiddenHighland_12_4
// 030   ----------------------------------------
        BYTE   PATT
         POIN2  HiddenHighland_12_5
// 031   ----------------------------------------
        BYTE   PATT
         POIN2  HiddenHighland_12_6
// 032   ----------------------------------------
        BYTE   PATT
         POIN2  HiddenHighland_12_7
// 033   ----------------------------------------
        BYTE   PATT
         POIN2  HiddenHighland_12_8
// 034   ----------------------------------------
        BYTE   PATT
         POIN2  HiddenHighland_12_9
// 035   ----------------------------------------
        BYTE   PATT
         POIN2  HiddenHighland_12_10
// 036   ----------------------------------------
        BYTE   PATT
         POIN2  HiddenHighland_12_11
// 037   ----------------------------------------
        BYTE   PATT
         POIN2  HiddenHighland_12_12
// 038   ----------------------------------------
        BYTE   PATT
         POIN2  HiddenHighland_12_13
// 039   ----------------------------------------
        BYTE   PATT
         POIN2  HiddenHighland_12_14
// 040   ----------------------------------------
        BYTE   PATT
         POIN2  HiddenHighland_12_15
// 041   ----------------------------------------
        BYTE   PATT
         POIN2  HiddenHighland_12_16
// 042   ----------------------------------------
        BYTE   PATT
         POIN2  HiddenHighland_12_17
// 043   ----------------------------------------
        BYTE   PATT
         POIN2  HiddenHighland_11_18
// 044   ----------------------------------------
        BYTE   PATT
         POIN2  HiddenHighland_12_19
// 045   ----------------------------------------
        BYTE   W96
// 046   ----------------------------------------
        BYTE   W96
// 047   ----------------------------------------
        BYTE   W90
        BYTE           VOL     23
        BYTE   W06
// 048   ----------------------------------------
        BYTE   PATT
         POIN2  HiddenHighland_12_23
// 049   ----------------------------------------
        BYTE   PATT
         POIN2  HiddenHighland_12_24
// 050   ----------------------------------------
        BYTE   W06
        BYTE           VOL     31
        BYTE   W09
        BYTE                   30
        BYTE   W03
        BYTE                   28
        BYTE   W06
        BYTE           N72     Ds3   v100
        BYTE   GoTo
         POIN2  HiddenHighland_12_LOOP
        BYTE   W15
        BYTE           VOL     29
        BYTE   W09
        BYTE                   30
        BYTE   W06
        BYTE                   31
        BYTE   W09
        BYTE                   32
        BYTE   W03
        BYTE                   33
        BYTE   W06
        BYTE                   32
        BYTE   W06
        BYTE                   31
        BYTE   W03
        BYTE                   30
        BYTE   W03
        BYTE                   29
        BYTE   W03
        BYTE                   27
        BYTE   W03
        BYTE                   26
        BYTE   W03
        BYTE                   24
        BYTE   W03
// 051   ----------------------------------------
        BYTE                   22
        BYTE   FINE

//***************** Track 13 (Midi-Chn.14) *****************//

HiddenHighland_13:
        BYTE   KEYSH   HiddenHighland_key+0
// 000   ----------------------------------------
        BYTE   W24
// 001   ----------------------------------------
HiddenHighland_13_1:
        BYTE           PAN     c_v+63
        BYTE           VOL     22
        BYTE           VOICE   10
        BYTE   W08
        BYTE           N04     As3   v061
        BYTE   W12
        BYTE                   Fn4
        BYTE   W12
        BYTE                   Ds4
        BYTE   W12
        BYTE                   Gs4
        BYTE   W12
        BYTE                   Ds4
        BYTE   W12
        BYTE                   Fn4
        BYTE   W12
        BYTE                   As3
        BYTE   W12
        BYTE                   Fn4
        BYTE   W04
        BYTE   PEND
// 002   ----------------------------------------
HiddenHighland_13_2:
        BYTE   W08
        BYTE           N04     Ds4   v063
        BYTE   W12
        BYTE                   Gs4
        BYTE   W12
        BYTE                   Ds4
        BYTE   W12
        BYTE                   Fn4   v065
        BYTE   W12
        BYTE                   As3
        BYTE   W12
        BYTE                   Fn4
        BYTE   W12
        BYTE                   Ds4   v067
        BYTE   W12
        BYTE                   Gs4
        BYTE   W04
        BYTE   PEND
// 003   ----------------------------------------
HiddenHighland_13_3:
        BYTE   W08
        BYTE           N04     Ds4   v068
        BYTE   W12
        BYTE                   Fn4
        BYTE   W12
        BYTE                   As3   v070
        BYTE   W12
        BYTE                   Fn4
        BYTE   W12
        BYTE                   Ds4   v072
        BYTE   W12
        BYTE                   Gs4   v074
        BYTE   W12
        BYTE                   Ds4
        BYTE   W12
        BYTE                   Fn4   v076
        BYTE   W04
        BYTE   PEND
// 004   ----------------------------------------
HiddenHighland_13_4:
        BYTE   W08
        BYTE           N04     As3   v078
        BYTE   W12
        BYTE                   Fn4
        BYTE   W12
        BYTE                   Ds4   v079
        BYTE   W12
        BYTE                   Gs4   v081
        BYTE   W12
        BYTE                   Ds4   v083
        BYTE   W12
        BYTE                   Fn4   v085
        BYTE   W12
        BYTE                   As3   v087
        BYTE   W12
        BYTE                   Fn4   v088
        BYTE   W04
        BYTE   PEND
// 005   ----------------------------------------
HiddenHighland_13_5:
        BYTE   W08
        BYTE           N04     Ds4   v090
        BYTE   W12
        BYTE                   Gs4
        BYTE   W12
        BYTE                   Ds4
        BYTE   W12
        BYTE                   Fn4
        BYTE   W12
        BYTE                   As3
        BYTE   W12
        BYTE                   Fn4
        BYTE   W12
        BYTE                   Ds4
        BYTE   W12
        BYTE                   Gs4
        BYTE   W04
        BYTE   PEND
// 006   ----------------------------------------
HiddenHighland_13_6:
        BYTE   W08
        BYTE           N04     Ds4   v092
        BYTE   W12
        BYTE                   Fn4   v090
        BYTE   W12
        BYTE                   As3   v088
        BYTE   W12
        BYTE                   Fn4   v085
        BYTE   W12
        BYTE                   Ds4   v083
        BYTE   W12
        BYTE                   Gs4   v081
        BYTE   W12
        BYTE                   Ds4   v079
        BYTE   W12
        BYTE                   Fn4   v076
        BYTE   W04
        BYTE   PEND
// 007   ----------------------------------------
HiddenHighland_13_7:
        BYTE   W08
        BYTE           N04     As3   v074
        BYTE   W12
        BYTE                   Fn4   v072
        BYTE   W12
        BYTE                   Ds4   v070
        BYTE   W12
        BYTE                   Gs4   v068
        BYTE   W12
        BYTE                   Ds4   v067
        BYTE   W12
        BYTE                   Fn4   v065
        BYTE   W12
        BYTE                   As3   v063
        BYTE   W12
        BYTE                   Fn4
        BYTE   W04
        BYTE   PEND
// 008   ----------------------------------------
HiddenHighland_13_8:
        BYTE   W08
        BYTE           N04     Ds4   v059
        BYTE   W12
        BYTE                   Gs4   v054
        BYTE   W12
        BYTE                   Ds4   v048
        BYTE   W12
        BYTE                   Fn4   v045
        BYTE   W12
        BYTE                   As3   v039
        BYTE   W12
        BYTE                   Fn4   v036
        BYTE   W12
        BYTE                   Ds4   v032
        BYTE   W12
        BYTE                   Gs4   v029
        BYTE   W04
        BYTE   PEND
// 009   ----------------------------------------
HiddenHighland_13_9:
        BYTE   W08
        BYTE           N04     Ds4   v025
        BYTE   W12
        BYTE                   Fn4   v021
        BYTE   W12
        BYTE                   As3   v019
        BYTE   W12
        BYTE                   Fn4   v018
        BYTE   W12
        BYTE                   Ds4   v016
        BYTE   W12
        BYTE                   Gs4   v014
        BYTE   W12
        BYTE                   Ds4
        BYTE   W12
        BYTE                   Fn4
        BYTE   W04
        BYTE   PEND
// 010   ----------------------------------------
HiddenHighland_13_10:
        BYTE           PAN     c_v+26
        BYTE           VOL     35
        BYTE           VOICE   52
        BYTE   W84
        BYTE           VOL     19
        BYTE   W12
        BYTE   PEND
// 011   ----------------------------------------
HiddenHighland_13_11:
        BYTE           N96     As2   v100
        BYTE   W06
        BYTE           VOL     20
        BYTE   W24
        BYTE                   21
        BYTE   W09
        BYTE                   22
        BYTE   W09
        BYTE                   23
        BYTE   W06
        BYTE                   24
        BYTE   W06
        BYTE                   25
        BYTE   W06
        BYTE                   26
        BYTE   W06
        BYTE                   27
        BYTE   W12
        BYTE                   26
        BYTE   W09
        BYTE                   21
        BYTE   W03
        BYTE   PEND
// 012   ----------------------------------------
HiddenHighland_13_12:
        BYTE           N96     Cn3   v100
        BYTE   W15
        BYTE           VOL     22
        BYTE   W18
        BYTE                   23
        BYTE   W06
        BYTE                   24
        BYTE   W09
        BYTE                   25
        BYTE   W09
        BYTE                   26
        BYTE   W06
        BYTE                   27
        BYTE   W18
        BYTE                   26
        BYTE   W09
        BYTE                   25
        BYTE   W03
        BYTE                   24
        BYTE   W03
        BYTE   PEND
// 013   ----------------------------------------
HiddenHighland_13_13:
        BYTE           N96     Cs3   v100
        BYTE   W24
        BYTE   W03
        BYTE           VOL     25
        BYTE   W12
        BYTE                   26
        BYTE   W15
        BYTE                   27
        BYTE   W06
        BYTE                   28
        BYTE   W09
        BYTE                   29
        BYTE   W12
        BYTE                   28
        BYTE   W06
        BYTE                   27
        BYTE   W06
        BYTE                   25
        BYTE   W03
        BYTE   PEND
// 014   ----------------------------------------
HiddenHighland_13_14:
        BYTE           N96     Cn3   v100
        BYTE   W18
        BYTE           VOL     26
        BYTE   W18
        BYTE                   27
        BYTE   W09
        BYTE                   28
        BYTE   W09
        BYTE                   29
        BYTE   W06
        BYTE                   30
        BYTE   W06
        BYTE                   31
        BYTE   W12
        BYTE                   30
        BYTE   W06
        BYTE                   29
        BYTE   W03
        BYTE                   28
        BYTE   W06
        BYTE                   26
        BYTE   W03
        BYTE   PEND
// 015   ----------------------------------------
HiddenHighland_13_15:
        BYTE           N96     As2   v100
        BYTE   W15
        BYTE           VOL     27
        BYTE   W18
        BYTE                   28
        BYTE   W15
        BYTE                   29
        BYTE   W09
        BYTE                   30
        BYTE   W06
        BYTE                   31
        BYTE   W21
        BYTE                   30
        BYTE   W06
        BYTE                   29
        BYTE   W03
        BYTE                   28
        BYTE   W03
        BYTE   PEND
// 016   ----------------------------------------
HiddenHighland_13_16:
        BYTE           VOL     26
        BYTE           N96     Cn3   v100
        BYTE   W30
        BYTE           VOL     27
        BYTE   W09
        BYTE                   28
        BYTE   W09
        BYTE                   29
        BYTE   W06
        BYTE                   30
        BYTE   W06
        BYTE                   31
        BYTE   W09
        BYTE                   32
        BYTE   W15
        BYTE                   31
        BYTE   W09
        BYTE                   28
        BYTE   W03
        BYTE   PEND
// 017   ----------------------------------------
HiddenHighland_13_17:
        BYTE           TIE     Dn3   v100
        BYTE   W21
        BYTE           VOL     29
        BYTE   W15
        BYTE                   30
        BYTE   W12
        BYTE                   31
        BYTE   W15
        BYTE                   32
        BYTE   W09
        BYTE                   33
        BYTE   W18
        BYTE                   32
        BYTE   W06
        BYTE   PEND
// 018   ----------------------------------------
        BYTE   PATT
         POIN2  HiddenHighland_11_18
// 019   ----------------------------------------
HiddenHighland_13_19:
        BYTE           VOL     9
        BYTE   W03
        BYTE                   8
        BYTE   W03
        BYTE                   6
        BYTE   W03
        BYTE                   5
        BYTE   W03
        BYTE           EOT     Dn3
        BYTE           VOL     4
        BYTE   W03
        BYTE                   2
        BYTE   W03
        BYTE                   1
        BYTE   W78
        BYTE   PEND
// 020   ----------------------------------------
        BYTE   W96
// 021   ----------------------------------------
        BYTE   W96
// 022   ----------------------------------------
        BYTE   W90
        BYTE                   23
        BYTE   W06
// 023   ----------------------------------------
HiddenHighland_13_23:
        BYTE           N48     En3   v100
        BYTE   W03
        BYTE           VOL     24
        BYTE   W09
        BYTE                   25
        BYTE   W06
        BYTE                   26
        BYTE   W06
        BYTE                   27
        BYTE   W03
        BYTE                   28
        BYTE   W03
        BYTE                   29
        BYTE   W03
        BYTE                   30
        BYTE   W03
        BYTE                   31
        BYTE   W03
        BYTE                   33
        BYTE   W09
        BYTE           N24     Ds3
        BYTE   W03
        BYTE           VOL     32
        BYTE   W09
        BYTE                   31
        BYTE   W06
        BYTE                   30
        BYTE   W06
        BYTE                   28
        BYTE           N48     Cs3
        BYTE   W24
        BYTE   PEND
// 024   ----------------------------------------
HiddenHighland_13_24:
        BYTE           VOL     29
        BYTE   W06
        BYTE                   30
        BYTE   W06
        BYTE                   31
        BYTE   W09
        BYTE                   32
        BYTE   W03
        BYTE                   33
        BYTE           N24     Bn2   v100
        BYTE   W09
        BYTE           VOL     32
        BYTE   W03
        BYTE                   31
        BYTE   W06
        BYTE                   29
        BYTE   W03
        BYTE                   27
        BYTE   W03
        BYTE           N72     As2
        BYTE   W12
        BYTE           VOL     28
        BYTE   W12
        BYTE                   29
        BYTE   W06
        BYTE                   30
        BYTE   W06
        BYTE                   31
        BYTE   W06
        BYTE                   32
        BYTE   W06
        BYTE   PEND
// 025   ----------------------------------------
        BYTE   W06
        BYTE                   31
        BYTE   W09
        BYTE                   30
        BYTE   W03
        BYTE                   28
        BYTE   W06
HiddenHighland_13_LOOP:
        BYTE           N72     As2   v100
        BYTE   W15
        BYTE           VOL     29
        BYTE   W09
        BYTE                   30
        BYTE   W06
        BYTE                   31
        BYTE   W09
        BYTE                   32
        BYTE   W03
        BYTE                   33
        BYTE   W06
        BYTE                   32
        BYTE   W06
        BYTE                   31
        BYTE   W03
        BYTE                   30
        BYTE   W03
        BYTE                   29
        BYTE   W03
        BYTE                   27
        BYTE   W03
        BYTE                   26
        BYTE   W03
        BYTE                   24
        BYTE   W03
// 026   ----------------------------------------
        BYTE   PATT
         POIN2  HiddenHighland_13_1
// 027   ----------------------------------------
        BYTE   PATT
         POIN2  HiddenHighland_13_2
// 028   ----------------------------------------
        BYTE   PATT
         POIN2  HiddenHighland_13_3
// 029   ----------------------------------------
        BYTE   PATT
         POIN2  HiddenHighland_13_4
// 030   ----------------------------------------
        BYTE   PATT
         POIN2  HiddenHighland_13_5
// 031   ----------------------------------------
        BYTE   PATT
         POIN2  HiddenHighland_13_6
// 032   ----------------------------------------
        BYTE   PATT
         POIN2  HiddenHighland_13_7
// 033   ----------------------------------------
        BYTE   PATT
         POIN2  HiddenHighland_13_8
// 034   ----------------------------------------
        BYTE   PATT
         POIN2  HiddenHighland_13_9
// 035   ----------------------------------------
        BYTE   PATT
         POIN2  HiddenHighland_13_10
// 036   ----------------------------------------
        BYTE   PATT
         POIN2  HiddenHighland_13_11
// 037   ----------------------------------------
        BYTE   PATT
         POIN2  HiddenHighland_13_12
// 038   ----------------------------------------
        BYTE   PATT
         POIN2  HiddenHighland_13_13
// 039   ----------------------------------------
        BYTE   PATT
         POIN2  HiddenHighland_13_14
// 040   ----------------------------------------
        BYTE   PATT
         POIN2  HiddenHighland_13_15
// 041   ----------------------------------------
        BYTE   PATT
         POIN2  HiddenHighland_13_16
// 042   ----------------------------------------
        BYTE   PATT
         POIN2  HiddenHighland_13_17
// 043   ----------------------------------------
        BYTE   PATT
         POIN2  HiddenHighland_11_18
// 044   ----------------------------------------
        BYTE   PATT
         POIN2  HiddenHighland_13_19
// 045   ----------------------------------------
        BYTE   W96
// 046   ----------------------------------------
        BYTE   W96
// 047   ----------------------------------------
        BYTE   W90
        BYTE           VOL     23
        BYTE   W06
// 048   ----------------------------------------
        BYTE   PATT
         POIN2  HiddenHighland_13_23
// 049   ----------------------------------------
        BYTE   PATT
         POIN2  HiddenHighland_13_24
// 050   ----------------------------------------
        BYTE   W06
        BYTE           VOL     31
        BYTE   W09
        BYTE                   30
        BYTE   W03
        BYTE                   28
        BYTE   W06
        BYTE           N72     As2   v100
        BYTE   GoTo
         POIN2  HiddenHighland_13_LOOP
        BYTE   W15
        BYTE           VOL     29
        BYTE   W09
        BYTE                   30
        BYTE   W06
        BYTE                   31
        BYTE   W09
        BYTE                   32
        BYTE   W03
        BYTE                   33
        BYTE   W06
        BYTE                   32
        BYTE   W06
        BYTE                   31
        BYTE   W03
        BYTE                   30
        BYTE   W03
        BYTE                   29
        BYTE   W03
        BYTE                   27
        BYTE   W03
        BYTE                   26
        BYTE   W03
        BYTE                   24
        BYTE   W03
// 051   ----------------------------------------
        BYTE                   22
        BYTE   FINE

//***************** Track 14 (Midi-Chn.15) *****************//

HiddenHighland_14:
        BYTE   KEYSH   HiddenHighland_key+0
// 000   ----------------------------------------
        BYTE   W24
// 001   ----------------------------------------
        BYTE           VOL     19
        BYTE           VOICE   45
        BYTE   W06
        BYTE           N06     As2   v127
        BYTE   W12
        BYTE                   Cs3
        BYTE           N06     Fn3
        BYTE   W12
        BYTE                   Cs3
        BYTE           N06     Fn3
        BYTE   W24
        BYTE                   Cn3
        BYTE           N06     Ds3
        BYTE   W12
        BYTE                   Cn3
        BYTE           N06     Ds3
        BYTE   W24
        BYTE                   Ds3
        BYTE           N06     Fs3
        BYTE   W06
// 002   ----------------------------------------
HiddenHighland_14_2:
        BYTE   W06
        BYTE           N06     Ds3   v127
        BYTE           N06     Fs3
        BYTE   W24
        BYTE                   Cs3
        BYTE           N06     Fn3
        BYTE   W12
        BYTE                   Cs3
        BYTE           N06     Fn3
        BYTE   W48
        BYTE                   Fn3
        BYTE           N06     As3
        BYTE   W06
        BYTE   PEND
// 003   ----------------------------------------
HiddenHighland_14_3:
        BYTE   W06
        BYTE           N06     Fn3   v127
        BYTE           N06     As3
        BYTE   W24
        BYTE                   Ds3
        BYTE           N06     Gs3
        BYTE   W12
        BYTE                   Ds3
        BYTE           N06     Gs3
        BYTE   W24
        BYTE                   As2
        BYTE           N06     Ds3
        BYTE   W12
        BYTE                   As2
        BYTE           N06     Ds3
        BYTE   W18
        BYTE   PEND
// 004   ----------------------------------------
HiddenHighland_14_4:
        BYTE   W42
        BYTE           N06     Ds3   v127
        BYTE           N06     Gs3
        BYTE   W12
        BYTE                   Ds3
        BYTE           N06     Gs3
        BYTE   W24
        BYTE                   Gs3
        BYTE           N06     Cn4
        BYTE   W18
        BYTE   PEND
// 005   ----------------------------------------
HiddenHighland_14_5:
        BYTE   W06
        BYTE           N06     As3   v127
        BYTE           N06     Cs4
        BYTE   W24
        BYTE                   Fs3
        BYTE           N06     As3
        BYTE   W12
        BYTE                   Fs3
        BYTE           N06     As3
        BYTE   W48
        BYTE                   As3
        BYTE           N06     Cs4
        BYTE   W06
        BYTE   PEND
// 006   ----------------------------------------
HiddenHighland_14_6:
        BYTE   W06
        BYTE           N06     Cn4   v127
        BYTE           N06     Ds4
        BYTE   W24
        BYTE                   Gs3
        BYTE           N06     Cn4
        BYTE   W12
        BYTE                   Gs3
        BYTE           N06     Cn4
        BYTE   W48
        BYTE                   Ds3
        BYTE           N06     Gs3
        BYTE   W06
        BYTE   PEND
// 007   ----------------------------------------
HiddenHighland_14_7:
        BYTE   W06
        BYTE           N06     Fs3   v127
        BYTE           N06     As3
        BYTE   W12
        BYTE                   Cs3
        BYTE           N06     Fs3
        BYTE   W12
        BYTE                   Cs3
        BYTE           N06     Fs3
        BYTE   W48
        BYTE                   Fs3
        BYTE           N06     As3
        BYTE   W18
        BYTE   PEND
// 008   ----------------------------------------
HiddenHighland_14_8:
        BYTE   W06
        BYTE           N06     Gs3   v127
        BYTE           N06     Cn4
        BYTE   W12
        BYTE                   Ds3
        BYTE           N06     Gs3
        BYTE   W12
        BYTE                   Ds3
        BYTE           N06     Gs3
        BYTE   W48
        BYTE                   Gs3
        BYTE           N06     Cn4
        BYTE   W18
        BYTE   PEND
// 009   ----------------------------------------
HiddenHighland_14_9:
        BYTE   W06
        BYTE           N06     Cn3   v127
        BYTE           N06     Fn3
        BYTE   W12
        BYTE                   Cn3   v101
        BYTE           N06     Fn3
        BYTE   W12
        BYTE                   Cn3   v090
        BYTE           N06     Fn3
        BYTE   W12
        BYTE                   Cn3   v081
        BYTE           N06     Fn3
        BYTE   W12
        BYTE                   Cn3   v074
        BYTE           N06     Fn3
        BYTE   W12
        BYTE                   Cn3   v069
        BYTE           N06     Fn3
        BYTE   W12
        BYTE                   Cn3   v063
        BYTE           N06     Fn3
        BYTE   W12
        BYTE                   Cn3   v061
        BYTE           N06     Fn3
        BYTE   W06
        BYTE   PEND
// 010   ----------------------------------------
        BYTE   PATT
         POIN2  HiddenHighland_14_9
// 011   ----------------------------------------
HiddenHighland_14_11:
        BYTE   W06
        BYTE           N06     Cs3   v127
        BYTE           N06     Fs3
        BYTE   W12
        BYTE                   Cs3
        BYTE           N06     Fs3
        BYTE   W12
        BYTE                   Cs3
        BYTE           N06     Fs3
        BYTE   W12
        BYTE                   Fs3
        BYTE           N06     As3
        BYTE   W12
        BYTE                   Fs3
        BYTE           N06     As3
        BYTE   W12
        BYTE                   Fs3
        BYTE           N06     As3
        BYTE   W12
        BYTE                   Cs3
        BYTE           N06     Fs3
        BYTE   W12
        BYTE                   Cs3
        BYTE           N06     Fs3
        BYTE   W06
        BYTE   PEND
// 012   ----------------------------------------
HiddenHighland_14_12:
        BYTE   W06
        BYTE           N06     Ds3   v127
        BYTE           N06     Gs3
        BYTE   W12
        BYTE                   Ds3
        BYTE           N06     Gs3
        BYTE   W12
        BYTE                   Ds3
        BYTE           N06     Gs3
        BYTE   W12
        BYTE                   Gs3
        BYTE           N06     Cn4
        BYTE   W12
        BYTE                   Gs3
        BYTE           N06     Cn4
        BYTE   W12
        BYTE                   Gs3
        BYTE           N06     Cn4
        BYTE   W12
        BYTE                   Ds3
        BYTE           N06     Gs3
        BYTE   W12
        BYTE                   Ds3
        BYTE           N06     Gs3
        BYTE   W06
        BYTE   PEND
// 013   ----------------------------------------
HiddenHighland_14_13:
        BYTE   W06
        BYTE           N06     Fs3   v127
        BYTE           N06     As3
        BYTE   W12
        BYTE                   Fs3
        BYTE           N06     As3
        BYTE   W12
        BYTE                   Fs3
        BYTE           N06     As3
        BYTE   W12
        BYTE                   As3
        BYTE           N06     Fn4
        BYTE   W12
        BYTE                   As3
        BYTE           N06     Fn4
        BYTE   W12
        BYTE                   As3
        BYTE           N06     Fn4
        BYTE   W12
        BYTE                   As3
        BYTE           N06     Cs4
        BYTE   W12
        BYTE                   As3
        BYTE           N06     Cs4
        BYTE   W06
        BYTE   PEND
// 014   ----------------------------------------
HiddenHighland_14_14:
        BYTE   W06
        BYTE           N06     Gs3   v127
        BYTE           N06     Cn4
        BYTE   W12
        BYTE                   Gs3
        BYTE           N06     Cn4
        BYTE   W12
        BYTE                   Gs3
        BYTE           N06     Cn4
        BYTE   W12
        BYTE                   Ds3
        BYTE           N06     Gs3
        BYTE   W12
        BYTE                   Ds3
        BYTE           N06     Gs3
        BYTE   W12
        BYTE                   Ds3
        BYTE           N06     Gs3
        BYTE   W12
        BYTE                   Ds3
        BYTE           N06     Gs3
        BYTE   W12
        BYTE                   Ds3
        BYTE           N06     Gs3
        BYTE   W06
        BYTE   PEND
// 015   ----------------------------------------
        BYTE   PATT
         POIN2  HiddenHighland_14_11
// 016   ----------------------------------------
        BYTE   PATT
         POIN2  HiddenHighland_14_12
// 017   ----------------------------------------
HiddenHighland_14_17:
        BYTE   W06
        BYTE           N06     Fn3   v127
        BYTE           N06     As3
        BYTE   W12
        BYTE                   Fn3
        BYTE           N06     As3
        BYTE   W12
        BYTE                   Fn3
        BYTE           N06     As3
        BYTE   W12
        BYTE                   As3
        BYTE           N06     Dn4
        BYTE   W12
        BYTE                   As3
        BYTE           N06     Dn4
        BYTE   W12
        BYTE                   As3
        BYTE           N06     Dn4
        BYTE   W12
        BYTE                   Dn4
        BYTE           N06     Fn4
        BYTE   W12
        BYTE                   Dn4
        BYTE           N06     Fn4
        BYTE   W06
        BYTE   PEND
// 018   ----------------------------------------
HiddenHighland_14_18:
        BYTE   W06
        BYTE           N06     Dn4   v127
        BYTE           N06     Fn4
        BYTE   W12
        BYTE                   As3
        BYTE           N06     Dn4
        BYTE   W12
        BYTE                   As3
        BYTE           N06     Dn4
        BYTE   W12
        BYTE                   As3
        BYTE           N06     Dn4
        BYTE   W12
        BYTE                   Fn3
        BYTE           N06     As3
        BYTE   W12
        BYTE                   Fn3
        BYTE           N06     As3
        BYTE   W12
        BYTE                   As2
        BYTE           N06     Fn3
        BYTE   W12
        BYTE                   As2
        BYTE           N06     Fn3
        BYTE   W06
        BYTE   PEND
// 019   ----------------------------------------
        BYTE   W96
// 020   ----------------------------------------
        BYTE   W96
// 021   ----------------------------------------
        BYTE   W96
// 022   ----------------------------------------
        BYTE   W96
// 023   ----------------------------------------
        BYTE   W96
// 024   ----------------------------------------
        BYTE   W96
// 025   ----------------------------------------
        BYTE   W24
HiddenHighland_14_LOOP:
        BYTE   W72
// 026   ----------------------------------------
        BYTE   W06
        BYTE           N06     As2   v127
        BYTE   W12
        BYTE                   Cs3
        BYTE           N06     Fn3
        BYTE   W12
        BYTE                   Cs3
        BYTE           N06     Fn3
        BYTE   W24
        BYTE                   Cn3
        BYTE           N06     Ds3
        BYTE   W12
        BYTE                   Cn3
        BYTE           N06     Ds3
        BYTE   W24
        BYTE                   Ds3
        BYTE           N06     Fs3
        BYTE   W06
// 027   ----------------------------------------
        BYTE   PATT
         POIN2  HiddenHighland_14_2
// 028   ----------------------------------------
        BYTE   PATT
         POIN2  HiddenHighland_14_3
// 029   ----------------------------------------
        BYTE   PATT
         POIN2  HiddenHighland_14_4
// 030   ----------------------------------------
        BYTE   PATT
         POIN2  HiddenHighland_14_5
// 031   ----------------------------------------
        BYTE   PATT
         POIN2  HiddenHighland_14_6
// 032   ----------------------------------------
        BYTE   PATT
         POIN2  HiddenHighland_14_7
// 033   ----------------------------------------
        BYTE   PATT
         POIN2  HiddenHighland_14_8
// 034   ----------------------------------------
        BYTE   PATT
         POIN2  HiddenHighland_14_9
// 035   ----------------------------------------
        BYTE   PATT
         POIN2  HiddenHighland_14_9
// 036   ----------------------------------------
        BYTE   PATT
         POIN2  HiddenHighland_14_11
// 037   ----------------------------------------
        BYTE   PATT
         POIN2  HiddenHighland_14_12
// 038   ----------------------------------------
        BYTE   PATT
         POIN2  HiddenHighland_14_13
// 039   ----------------------------------------
        BYTE   PATT
         POIN2  HiddenHighland_14_14
// 040   ----------------------------------------
        BYTE   PATT
         POIN2  HiddenHighland_14_11
// 041   ----------------------------------------
        BYTE   PATT
         POIN2  HiddenHighland_14_12
// 042   ----------------------------------------
        BYTE   PATT
         POIN2  HiddenHighland_14_17
// 043   ----------------------------------------
        BYTE   PATT
         POIN2  HiddenHighland_14_18
// 044   ----------------------------------------
        BYTE   W96
// 045   ----------------------------------------
        BYTE   W96
// 046   ----------------------------------------
        BYTE   W96
// 047   ----------------------------------------
        BYTE   W96
// 048   ----------------------------------------
        BYTE   W96
// 049   ----------------------------------------
        BYTE   W96
// 050   ----------------------------------------
        BYTE   W24
        BYTE   GoTo
         POIN2  HiddenHighland_14_LOOP
        BYTE   W72
// 051   ----------------------------------------
        BYTE   FINE


//********************** End of Song ***********************//

        ALIGN 4
HiddenHighland:
        BYTE   15                      // Num Tracks
        BYTE   0                       // Unknown
        BYTE   HiddenHighland_pri      // Priority
        BYTE   HiddenHighland_rev      // Reverb

        POIN2   HiddenHighland_grp     

        POIN2   HiddenHighland_0
        POIN2   HiddenHighland_1
        POIN2   HiddenHighland_2
        POIN2   HiddenHighland_3
        POIN2   HiddenHighland_4
        POIN2   HiddenHighland_5
        POIN2   HiddenHighland_6
        POIN2   HiddenHighland_7
        POIN2   HiddenHighland_8
        POIN2   HiddenHighland_9
        POIN2   HiddenHighland_10
        POIN2   HiddenHighland_11
        POIN2   HiddenHighland_12
        POIN2   HiddenHighland_13
        POIN2   HiddenHighland_14

        
