//Event file generated from Sappy .s format.
        #include "MPlayDef.event"

        #define    iceman0000_grp  voicegroup000
        #define    iceman0000_pri  0
        #define    iceman0000_rev  0
        #define    iceman0000_key  0

        // .rodata
        // iceman0000
        ALIGN  4

//****************** Track 0 (Midi-Chn.0) ******************//

iceman0000_0:
        BYTE   KEYSH   iceman0000_key+0
// 000   ----------------------------------------
        BYTE   TEMPO   250/2
        BYTE           VOICE   122
        BYTE   W01
        BYTE           VOL     30
        BYTE   W23
        BYTE   TEMPO   132/2
        BYTE           N05     Ds0   v060
        BYTE   W03
        BYTE                   En0
        BYTE   W03
        BYTE                   Ds0   v080
        BYTE   W03
        BYTE                   En0
        BYTE   W03
        BYTE           N09     Ds0   v115
        BYTE           N12     Cn1   v060
        BYTE   W07
        BYTE           N15     En0   v115
        BYTE   W05
// 001   ----------------------------------------
iceman0000_0_1:
        BYTE           N12     Cn1   v095
        BYTE           N06     Fs1   v070
        BYTE   W12
        BYTE           N23     As1   v065
        BYTE   W12
        BYTE           N06     Fs1   v070
        BYTE   W12
        BYTE           N23     As1   v065
        BYTE   W12
        BYTE   PEND
// 002   ----------------------------------------
iceman0000_0_2:
        BYTE           N06     Fs1   v070
        BYTE   W12
        BYTE           N23     As1   v065
        BYTE   W12
        BYTE           N06     Fs1   v070
        BYTE   W12
        BYTE           N23     As1   v065
        BYTE   W12
        BYTE   PEND
// 003   ----------------------------------------
        BYTE   PATT
         POIN2  iceman0000_0_2
// 004   ----------------------------------------
        BYTE           N06     Fs1   v070
        BYTE   W12
        BYTE           N15     En0   v115
        BYTE           N23     As1   v065
        BYTE   W12
        BYTE           N06     Fs1   v070
        BYTE   W07
        BYTE           N15     En0   v115
        BYTE   W05
        BYTE           N18     Dn1   v080
        BYTE           N23     As1   v065
        BYTE   W12
// 005   ----------------------------------------
        BYTE   PATT
         POIN2  iceman0000_0_1
// 006   ----------------------------------------
        BYTE   PATT
         POIN2  iceman0000_0_2
// 007   ----------------------------------------
        BYTE   PATT
         POIN2  iceman0000_0_2
// 008   ----------------------------------------
        BYTE           N06     Fs1   v070
        BYTE   W07
        BYTE           N15     En1   v115
        BYTE   W05
        BYTE           N23     As1   v065
        BYTE   W07
        BYTE           N15     Ds1   v115
        BYTE   W05
        BYTE           N06     Fs1   v070
        BYTE   W07
        BYTE           N18     Dn1   v080
        BYTE   W05
        BYTE           N15     En0   v115
        BYTE           N23     As1   v065
        BYTE   W12
// 009   ----------------------------------------
        BYTE   PATT
         POIN2  iceman0000_0_1
// 010   ----------------------------------------
        BYTE   PATT
         POIN2  iceman0000_0_2
// 011   ----------------------------------------
        BYTE   PATT
         POIN2  iceman0000_0_2
// 012   ----------------------------------------
        BYTE           N15     En1   v115
        BYTE           N06     Fs1   v070
        BYTE   W07
        BYTE           N15     Dn1   v080
        BYTE   W05
        BYTE           N23     As1   v065
        BYTE   W07
        BYTE           N15     Cs1   v080
        BYTE   W05
        BYTE                   En0   v115
        BYTE           N06     Fs1   v070
        BYTE   W07
        BYTE           N18     Dn1   v080
        BYTE   W05
        BYTE           N15     Ds0   v105
        BYTE           N23     As1   v065
        BYTE   W12
// 013   ----------------------------------------
iceman0000_0_13:
        BYTE           N12     Cn1   v095
        BYTE           N09     En1   v105
        BYTE           N06     Fs1   v070
        BYTE   W07
        BYTE           N09     Ds1   v075
        BYTE   W05
        BYTE                   En1
        BYTE           N23     As1   v065
        BYTE   W07
        BYTE           N09     Ds1   v075
        BYTE   W05
        BYTE                   En1   v105
        BYTE           N06     Fs1   v070
        BYTE   W07
        BYTE           N09     Ds1   v075
        BYTE   W05
        BYTE                   En1
        BYTE           N23     As1   v065
        BYTE   W07
        BYTE           N09     Ds1   v075
        BYTE   W05
        BYTE   PEND
// 014   ----------------------------------------
        BYTE   PATT
         POIN2  iceman0000_0_13
// 015   ----------------------------------------
        BYTE           N12     Cn1   v095
        BYTE           N09     En1   v105
        BYTE           N06     Fs1   v070
        BYTE           N24     Cs2   v075   gtp3
        BYTE   W07
        BYTE           N09     Ds1
        BYTE   W05
        BYTE                   En1   v115
        BYTE   W07
        BYTE                   Ds1   v085
        BYTE   W05
        BYTE           N12     Cn1   v095
        BYTE           N09     En1   v115
        BYTE           N06     Fs1   v070
        BYTE           N24     Dn2   v075   gtp3
        BYTE   W07
        BYTE           N09     Ds1   v085
        BYTE   W05
        BYTE                   En1
        BYTE   W07
        BYTE                   Ds1
        BYTE   W05
// 016   ----------------------------------------
        BYTE           N12     Cn1   v095
        BYTE           N09     En1   v115
        BYTE           N06     Fs1   v070
        BYTE           N24     Cs2   v075   gtp3
        BYTE   W07
        BYTE           N09     Ds1   v085
        BYTE   W05
        BYTE           N12     Cn1   v075
        BYTE           N09     En1   v085
        BYTE   W07
        BYTE           N07     Ds1
        BYTE   W05
        BYTE           N12     Cn1   v095
        BYTE           N05     En1   v085
        BYTE           N06     Fs1   v070
        BYTE           N24     Dn2   v075   gtp3
        BYTE   W03
        BYTE           N05     Ds1   v085
        BYTE   W03
        BYTE                   En1
        BYTE   W03
        BYTE                   Ds1
        BYTE   W03
        BYTE           N12     Cn1   v075
        BYTE           N05     En1   v115
        BYTE   W03
        BYTE                   Ds1
        BYTE   W03
        BYTE                   En1
        BYTE   W03
        BYTE           N15     Ds1
        BYTE   W03
// 017   ----------------------------------------
iceman0000_0_17:
        BYTE           N12     Cn1   v095
        BYTE           N06     Fs1   v070
        BYTE           N36     Cs2   v075
        BYTE   W12
        BYTE           N15     As1   v070
        BYTE   W12
        BYTE           N12     Cn1   v095
        BYTE           N15     En1   v115
        BYTE           N06     Fs1   v070
        BYTE   W12
        BYTE           N15     As1
        BYTE   W07
        BYTE                   En1   v080
        BYTE   W05
        BYTE   PEND
// 018   ----------------------------------------
iceman0000_0_18:
        BYTE           N12     Cn1   v095
        BYTE           N06     Fs1   v070
        BYTE   W07
        BYTE           N15     Ds1   v080
        BYTE   W05
        BYTE                   As1   v070
        BYTE   W12
        BYTE           N12     Cn1   v095
        BYTE           N15     En1   v115
        BYTE           N06     Fs1   v070
        BYTE   W12
        BYTE           N15     As1
        BYTE   W12
        BYTE   PEND
// 019   ----------------------------------------
iceman0000_0_19:
        BYTE           N12     Cn1   v095
        BYTE           N06     Fs1   v070
        BYTE   W07
        BYTE           N15     En1   v080
        BYTE   W05
        BYTE                   As1   v070
        BYTE   W12
        BYTE           N12     Cn1   v095
        BYTE           N15     En1   v115
        BYTE           N06     Fs1   v070
        BYTE   W12
        BYTE           N15     As1
        BYTE   W07
        BYTE                   En1   v080
        BYTE   W05
        BYTE   PEND
// 020   ----------------------------------------
        BYTE           N12     Cn1   v095
        BYTE           N06     Fs1   v070
        BYTE   W07
        BYTE           N15     Ds1   v080
        BYTE   W05
        BYTE                   As1   v070
        BYTE   W12
        BYTE           N12     Cn1   v095
        BYTE           N15     En1   v115
        BYTE           N06     Fs1   v070
        BYTE   W12
        BYTE           N12     Cn1   v065
        BYTE           N15     As1   v070
        BYTE   W07
iceman0000_0_LOOP:
        BYTE           N15     En1   v080
        BYTE   W05
// 021   ----------------------------------------
iceman0000_0_21:
        BYTE           N12     Cn1   v095
        BYTE           N06     Fs1   v070
        BYTE   W12
        BYTE           N15     As1
        BYTE   W12
        BYTE           N12     Cn1   v095
        BYTE           N15     En1   v115
        BYTE           N06     Fs1   v070
        BYTE   W12
        BYTE           N15     As1
        BYTE   W07
        BYTE                   En1   v080
        BYTE   W05
        BYTE   PEND
// 022   ----------------------------------------
        BYTE   PATT
         POIN2  iceman0000_0_18
// 023   ----------------------------------------
        BYTE   PATT
         POIN2  iceman0000_0_19
// 024   ----------------------------------------
iceman0000_0_24:
        BYTE           N12     Cn1   v095
        BYTE           N06     Fs1   v070
        BYTE   W07
        BYTE           N15     Ds1   v080
        BYTE   W05
        BYTE                   As1   v070
        BYTE   W07
        BYTE           N04     Cn1   v065
        BYTE           N09     En1   v115
        BYTE   W05
        BYTE           N12     Cn1   v095
        BYTE           N15     Ds1   v115
        BYTE           N06     Fs1   v070
        BYTE   W12
        BYTE           N12     Cn1   v065
        BYTE           N09     En1   v115
        BYTE           N15     As1   v070
        BYTE   W07
        BYTE                   Ds1   v080
        BYTE   W05
        BYTE   PEND
// 025   ----------------------------------------
        BYTE   PATT
         POIN2  iceman0000_0_21
// 026   ----------------------------------------
        BYTE   PATT
         POIN2  iceman0000_0_18
// 027   ----------------------------------------
        BYTE   PATT
         POIN2  iceman0000_0_19
// 028   ----------------------------------------
iceman0000_0_28:
        BYTE           N12     Cn1   v095
        BYTE           N06     Fs1   v070
        BYTE   W07
        BYTE           N15     Ds1   v080
        BYTE   W05
        BYTE                   As1   v070
        BYTE   W12
        BYTE           N12     Cn1   v095
        BYTE           N15     En1   v115
        BYTE           N06     Fs1   v070
        BYTE   W12
        BYTE           N12     Cn1   v065
        BYTE           N15     As1   v070
        BYTE   W07
        BYTE                   En1   v080
        BYTE   W05
        BYTE   PEND
// 029   ----------------------------------------
        BYTE   PATT
         POIN2  iceman0000_0_21
// 030   ----------------------------------------
        BYTE   PATT
         POIN2  iceman0000_0_18
// 031   ----------------------------------------
iceman0000_0_31:
        BYTE           N12     Cn1   v095
        BYTE           N06     Fs1   v070
        BYTE   W07
        BYTE           N15     En1   v080
        BYTE   W05
        BYTE                   As1   v070
        BYTE   W12
        BYTE           N12     Cn1   v095
        BYTE           N15     En1   v115
        BYTE           N06     Fs1   v070
        BYTE   W12
        BYTE           N15     Ds1   v080
        BYTE           N15     As1   v070
        BYTE   W07
        BYTE                   En1   v115
        BYTE   W05
        BYTE   PEND
// 032   ----------------------------------------
iceman0000_0_32:
        BYTE           N12     Cn1   v095
        BYTE           N06     Fs1   v070
        BYTE   W07
        BYTE           N09     Ds1   v080
        BYTE   W05
        BYTE                   En1   v115
        BYTE           N15     As1   v070
        BYTE   W07
        BYTE           N04     Cn1   v065
        BYTE           N09     Ds1   v115
        BYTE   W05
        BYTE           N12     Cn1   v095
        BYTE           N09     En1   v115
        BYTE           N06     Fs1   v070
        BYTE   W07
        BYTE           N09     Ds1   v115
        BYTE   W05
        BYTE           N12     Cn1   v065
        BYTE           N09     En1   v115
        BYTE           N15     As1   v070
        BYTE   W07
        BYTE                   Ds1   v115
        BYTE   W05
        BYTE   PEND
// 033   ----------------------------------------
iceman0000_0_33:
        BYTE           N12     Cn1   v090
        BYTE   W12
        BYTE                   Cn1   v065
        BYTE           N06     Fs1   v055
        BYTE   W07
        BYTE                   Fs1   v045
        BYTE   W17
        BYTE                   Fs1   v055
        BYTE   W07
        BYTE                   Fs1   v045
        BYTE   W05
        BYTE   PEND
// 034   ----------------------------------------
        BYTE           N12     Cn1   v090
        BYTE   W07
        BYTE           N18     Bn2   v110
        BYTE   W05
        BYTE           N12     Cn1   v065
        BYTE           N06     Fs1   v055
        BYTE   W07
        BYTE                   Fs1   v045
        BYTE   W04
        BYTE           N24     Cs3   v120
        BYTE   W13
        BYTE           N06     Fs1   v055
        BYTE   W07
        BYTE           N04     Fs1   v045
        BYTE   W05
// 035   ----------------------------------------
        BYTE   PATT
         POIN2  iceman0000_0_17
// 036   ----------------------------------------
        BYTE   PATT
         POIN2  iceman0000_0_18
// 037   ----------------------------------------
        BYTE   PATT
         POIN2  iceman0000_0_19
// 038   ----------------------------------------
iceman0000_0_38:
        BYTE           N12     Cn1   v095
        BYTE           N06     Fs1   v070
        BYTE   W07
        BYTE           N15     Ds1   v080
        BYTE   W05
        BYTE                   As1   v070
        BYTE   W12
        BYTE           N12     Cn1   v095
        BYTE           N15     En1   v115
        BYTE           N06     Fs1   v070
        BYTE   W12
        BYTE           N15     As1
        BYTE   W07
        BYTE                   En1   v080
        BYTE   W05
        BYTE   PEND
// 039   ----------------------------------------
        BYTE   PATT
         POIN2  iceman0000_0_21
// 040   ----------------------------------------
        BYTE   PATT
         POIN2  iceman0000_0_18
// 041   ----------------------------------------
        BYTE   PATT
         POIN2  iceman0000_0_19
// 042   ----------------------------------------
        BYTE           N12     Cn1   v095
        BYTE           N06     Fs1   v070
        BYTE   W07
        BYTE           N15     Ds1   v080
        BYTE   W05
        BYTE                   As1   v070
        BYTE   W07
        BYTE           N09     En1   v115
        BYTE   W05
        BYTE           N12     Cn1   v095
        BYTE           N15     Ds1   v115
        BYTE           N06     Fs1   v070
        BYTE   W12
        BYTE           N09     En1   v115
        BYTE           N15     As1   v070
        BYTE   W07
        BYTE                   Ds1   v080
        BYTE   W05
// 043   ----------------------------------------
        BYTE   PATT
         POIN2  iceman0000_0_21
// 044   ----------------------------------------
        BYTE   PATT
         POIN2  iceman0000_0_18
// 045   ----------------------------------------
        BYTE   PATT
         POIN2  iceman0000_0_19
// 046   ----------------------------------------
        BYTE   PATT
         POIN2  iceman0000_0_38
// 047   ----------------------------------------
        BYTE   PATT
         POIN2  iceman0000_0_21
// 048   ----------------------------------------
        BYTE   PATT
         POIN2  iceman0000_0_18
// 049   ----------------------------------------
        BYTE           N12     Cn1   v095
        BYTE           N06     Fs1   v070
        BYTE   W07
        BYTE           N15     En1   v080
        BYTE   W05
        BYTE                   As1   v070
        BYTE   W12
        BYTE           N12     Cn1   v095
        BYTE           N15     En1   v115
        BYTE           N06     Fs1   v070
        BYTE   W12
        BYTE           N09     Ds1   v080
        BYTE           N15     As1   v070
        BYTE   W07
        BYTE                   En1   v115
        BYTE   W05
// 050   ----------------------------------------
        BYTE           N12     Cn1   v095
        BYTE           N06     Fs1   v070
        BYTE   W07
        BYTE           N09     Ds1   v080
        BYTE   W05
        BYTE                   En1   v115
        BYTE           N15     As1   v070
        BYTE   W07
        BYTE           N09     Ds1   v115
        BYTE   W05
        BYTE           N12     Cn1   v095
        BYTE           N09     En1   v115
        BYTE           N06     Fs1   v070
        BYTE   W07
        BYTE           N09     Ds1   v115
        BYTE   W05
        BYTE                   En1
        BYTE           N11     As1   v070
        BYTE   W07
        BYTE           N15     Ds1   v115
        BYTE   W05
// 051   ----------------------------------------
        BYTE           N12     Cn1   v095
        BYTE           N06     Fs1   v075
        BYTE           N36     Cs2
        BYTE   W07
        BYTE           N04     Fs1   v050
        BYTE   W05
        BYTE           N06     Fs1   v055
        BYTE   W07
        BYTE           N04     Fs1   v050
        BYTE   W05
        BYTE           N12     Cn1   v095
        BYTE           N06     Fs1   v075
        BYTE   W07
        BYTE           N04     Fs1   v050
        BYTE   W05
        BYTE           N06     Fs1   v055
        BYTE   W07
        BYTE           N04     Fs1   v050
        BYTE   W05
// 052   ----------------------------------------
iceman0000_0_52:
        BYTE           N12     Cn1   v095
        BYTE           N06     Fs1   v075
        BYTE   W07
        BYTE           N04     Fs1   v050
        BYTE   W05
        BYTE           N06     Fs1   v055
        BYTE   W07
        BYTE           N04     Fs1   v050
        BYTE   W05
        BYTE           N15     En0   v115
        BYTE           N12     Cn1   v095
        BYTE           N06     Fs1   v075
        BYTE   W07
        BYTE           N04     Fs1   v050
        BYTE   W05
        BYTE           N06     Fs1   v055
        BYTE   W07
        BYTE           N04     Fs1   v050
        BYTE   W05
        BYTE   PEND
// 053   ----------------------------------------
iceman0000_0_53:
        BYTE           N12     Cn1   v095
        BYTE           N06     Fs1   v075
        BYTE   W07
        BYTE           N04     Fs1   v050
        BYTE   W05
        BYTE           N06     Fs1   v055
        BYTE   W07
        BYTE           N04     Fs1   v050
        BYTE   W05
        BYTE           N12     Cn1   v095
        BYTE           N06     Fs1   v075
        BYTE   W07
        BYTE           N04     Fs1   v050
        BYTE   W05
        BYTE           N06     Fs1   v055
        BYTE   W07
        BYTE           N04     Fs1   v050
        BYTE   W05
        BYTE   PEND
// 054   ----------------------------------------
        BYTE   PATT
         POIN2  iceman0000_0_52
// 055   ----------------------------------------
        BYTE   PATT
         POIN2  iceman0000_0_53
// 056   ----------------------------------------
        BYTE   PATT
         POIN2  iceman0000_0_52
// 057   ----------------------------------------
        BYTE   PATT
         POIN2  iceman0000_0_53
// 058   ----------------------------------------
        BYTE   PATT
         POIN2  iceman0000_0_52
// 059   ----------------------------------------
        BYTE   PATT
         POIN2  iceman0000_0_53
// 060   ----------------------------------------
        BYTE   PATT
         POIN2  iceman0000_0_52
// 061   ----------------------------------------
        BYTE   PATT
         POIN2  iceman0000_0_53
// 062   ----------------------------------------
        BYTE   PATT
         POIN2  iceman0000_0_52
// 063   ----------------------------------------
iceman0000_0_63:
        BYTE           N12     Cn1   v095
        BYTE           N09     En1   v105
        BYTE           N06     Fs1   v070
        BYTE   W07
        BYTE           N09     Ds1   v080
        BYTE   W05
        BYTE                   En1   v105
        BYTE           N15     As1   v070
        BYTE   W07
        BYTE           N09     Ds1   v080
        BYTE   W05
        BYTE           N12     Cn1   v095
        BYTE           N09     En1   v105
        BYTE           N06     Fs1   v070
        BYTE   W07
        BYTE           N09     Ds1   v080
        BYTE   W05
        BYTE                   En1   v105
        BYTE           N15     As1   v070
        BYTE   W07
        BYTE           N09     Ds1   v080
        BYTE   W05
        BYTE   PEND
// 064   ----------------------------------------
        BYTE   PATT
         POIN2  iceman0000_0_63
// 065   ----------------------------------------
        BYTE           N12     Cn1   v095
        BYTE           N06     Fs1   v070
        BYTE   W12
        BYTE           N15     As1
        BYTE   W12
        BYTE           N12     Cn1   v095
        BYTE           N06     Fs1   v070
        BYTE   W12
        BYTE           N15     As1
        BYTE   W07
        BYTE           N12     Cn1   v085
        BYTE   W05
// 066   ----------------------------------------
        BYTE   W12
        BYTE           N05     Ds1   v075
        BYTE   W03
        BYTE                   En1
        BYTE   W03
        BYTE                   Ds1
        BYTE   W03
        BYTE                   En1
        BYTE   W03
        BYTE           N12     Cn1   v095
        BYTE           N05     Ds1   v075
        BYTE           N06     Fs1   v070
        BYTE   W03
        BYTE           N05     En1   v105
        BYTE   W03
        BYTE                   Ds1
        BYTE   W03
        BYTE                   En1
        BYTE   W03
        BYTE                   Ds1
        BYTE           N10     As1   v070
        BYTE   W03
        BYTE           N05     En1   v105
        BYTE   W03
        BYTE                   Ds1
        BYTE   W03
        BYTE           N15     En1
        BYTE   W03
// 067   ----------------------------------------
        BYTE   PATT
         POIN2  iceman0000_0_17
// 068   ----------------------------------------
        BYTE   PATT
         POIN2  iceman0000_0_18
// 069   ----------------------------------------
        BYTE   PATT
         POIN2  iceman0000_0_19
// 070   ----------------------------------------
        BYTE   PATT
         POIN2  iceman0000_0_28
// 071   ----------------------------------------
        BYTE   PATT
         POIN2  iceman0000_0_21
// 072   ----------------------------------------
        BYTE   PATT
         POIN2  iceman0000_0_18
// 073   ----------------------------------------
        BYTE   PATT
         POIN2  iceman0000_0_19
// 074   ----------------------------------------
        BYTE           N12     Cn1   v095
        BYTE           N06     Fs1   v070
        BYTE   W07
        BYTE           N15     Ds1   v080
        BYTE   W05
        BYTE                   As1   v070
        BYTE   W07
        BYTE           N09     En1   v115
        BYTE   W05
        BYTE           N12     Cn1   v095
        BYTE           N15     Ds1   v115
        BYTE           N06     Fs1   v070
        BYTE   W12
        BYTE           N12     Cn1   v065
        BYTE           N09     En1   v115
        BYTE           N15     As1   v070
        BYTE   W07
        BYTE                   Ds1   v080
        BYTE   W05
// 075   ----------------------------------------
        BYTE   PATT
         POIN2  iceman0000_0_17
// 076   ----------------------------------------
        BYTE   PATT
         POIN2  iceman0000_0_18
// 077   ----------------------------------------
        BYTE   PATT
         POIN2  iceman0000_0_19
// 078   ----------------------------------------
        BYTE   PATT
         POIN2  iceman0000_0_28
// 079   ----------------------------------------
        BYTE   PATT
         POIN2  iceman0000_0_21
// 080   ----------------------------------------
        BYTE   PATT
         POIN2  iceman0000_0_18
// 081   ----------------------------------------
        BYTE           N12     Cn1   v095
        BYTE           N06     Fs1   v070
        BYTE           TIE     Dn3   v125
        BYTE   W07
        BYTE           N15     En1   v080
        BYTE   W05
        BYTE                   As1   v070
        BYTE   W12
        BYTE           N12     Cn1   v095
        BYTE           N15     En1   v115
        BYTE           N06     Fs1   v070
        BYTE   W12
        BYTE           N15     Ds1   v080
        BYTE           N15     As1   v070
        BYTE   W07
        BYTE                   En1   v115
        BYTE   W05
// 082   ----------------------------------------
        BYTE           N12     Cn1   v095
        BYTE           N06     Fs1   v070
        BYTE   W07
        BYTE           N09     Ds1   v080
        BYTE   W05
        BYTE                   En1   v115
        BYTE           N15     As1   v070
        BYTE   W07
        BYTE           N09     Ds1   v115
        BYTE   W05
        BYTE           N12     Cn1   v095
        BYTE           N09     En1   v115
        BYTE           N06     Fs1   v070
        BYTE   W07
        BYTE           N09     Ds1   v115
        BYTE   W05
        BYTE           N10     Cn1   v065
        BYTE           N09     En1   v115
        BYTE           N11     As1   v070
        BYTE   W07
        BYTE           N15     Ds1   v115
        BYTE   W05
// 083   ----------------------------------------
        BYTE           N12     Cn1   v095
        BYTE           N06     Fs1   v070
        BYTE           N36     Cs2   v075
        BYTE   W06
        BYTE           EOT     Dn3
        BYTE   W06
        BYTE           N15     As1   v070
        BYTE   W12
        BYTE           N12     Cn1   v095
        BYTE           N15     En1   v115
        BYTE           N06     Fs1   v070
        BYTE   W12
        BYTE           N15     As1
        BYTE   W07
        BYTE                   En1   v080
        BYTE   W05
// 084   ----------------------------------------
        BYTE   PATT
         POIN2  iceman0000_0_18
// 085   ----------------------------------------
        BYTE   PATT
         POIN2  iceman0000_0_19
// 086   ----------------------------------------
        BYTE   PATT
         POIN2  iceman0000_0_28
// 087   ----------------------------------------
        BYTE   PATT
         POIN2  iceman0000_0_21
// 088   ----------------------------------------
        BYTE   PATT
         POIN2  iceman0000_0_18
// 089   ----------------------------------------
        BYTE   PATT
         POIN2  iceman0000_0_19
// 090   ----------------------------------------
        BYTE   PATT
         POIN2  iceman0000_0_24
// 091   ----------------------------------------
        BYTE           N12     Cn1   v095
        BYTE           N06     Fs1   v070
        BYTE   W12
        BYTE           N11     As1
        BYTE   W12
        BYTE           N12     Cn1   v095
        BYTE           N15     En1   v115
        BYTE           N06     Fs1   v070
        BYTE           N36     Cs2   v077
        BYTE   W12
        BYTE           N15     As1   v070
        BYTE   W07
        BYTE                   En1   v080
        BYTE   W05
// 092   ----------------------------------------
        BYTE   PATT
         POIN2  iceman0000_0_18
// 093   ----------------------------------------
        BYTE   PATT
         POIN2  iceman0000_0_19
// 094   ----------------------------------------
        BYTE   PATT
         POIN2  iceman0000_0_28
// 095   ----------------------------------------
        BYTE   PATT
         POIN2  iceman0000_0_21
// 096   ----------------------------------------
        BYTE   PATT
         POIN2  iceman0000_0_18
// 097   ----------------------------------------
        BYTE   PATT
         POIN2  iceman0000_0_31
// 098   ----------------------------------------
        BYTE   PATT
         POIN2  iceman0000_0_32
// 099   ----------------------------------------
        BYTE   PATT
         POIN2  iceman0000_0_33
// 100   ----------------------------------------
        BYTE           N12     Cn1   v090
        BYTE   W06
        BYTE                   Cn3   v110
        BYTE   W06
        BYTE                   Cn1   v065
        BYTE           N06     Fs1   v055
        BYTE           N12     As2   v110
        BYTE   W07
        BYTE           N06     Fs1   v045
        BYTE   W05
        BYTE           N24     Cs3   v120
        BYTE   W12
        BYTE           N06     Fs1   v055
        BYTE   W07
        BYTE           N04     Fs1   v045
        BYTE   W05
// 101   ----------------------------------------
        BYTE   PATT
         POIN2  iceman0000_0_17
// 102   ----------------------------------------
        BYTE   PATT
         POIN2  iceman0000_0_18
// 103   ----------------------------------------
        BYTE   PATT
         POIN2  iceman0000_0_19
// 104   ----------------------------------------
        BYTE           N12     Cn1   v095
        BYTE           N06     Fs1   v070
        BYTE   W07
        BYTE           N15     Ds1   v080
        BYTE   W05
        BYTE                   As1   v070
        BYTE   W12
        BYTE           N12     Cn1   v095
        BYTE           N15     En1   v115
        BYTE           N06     Fs1   v070
        BYTE   W12
        BYTE           N09     As1
        BYTE   W07
        BYTE   GoTo
         POIN2  iceman0000_0_LOOP
        BYTE   W05
// 105   ----------------------------------------
        BYTE   FINE

//****************** Track 1 (Midi-Chn.1) ******************//

iceman0000_1:
        BYTE   KEYSH   iceman0000_key+0
// 000   ----------------------------------------
        BYTE           VOICE   102
        BYTE           VOL     26
        BYTE   W48
// 001   ----------------------------------------
        BYTE   W48
// 002   ----------------------------------------
        BYTE   W48
// 003   ----------------------------------------
        BYTE   W48
// 004   ----------------------------------------
        BYTE   W48
// 005   ----------------------------------------
        BYTE   W48
// 006   ----------------------------------------
        BYTE   W48
// 007   ----------------------------------------
        BYTE   W48
// 008   ----------------------------------------
        BYTE   W48
// 009   ----------------------------------------
        BYTE   W48
// 010   ----------------------------------------
        BYTE   W48
// 011   ----------------------------------------
        BYTE   W48
// 012   ----------------------------------------
        BYTE   W48
// 013   ----------------------------------------
        BYTE   W48
// 014   ----------------------------------------
        BYTE   W48
// 015   ----------------------------------------
        BYTE   W48
// 016   ----------------------------------------
        BYTE   W48
// 017   ----------------------------------------
        BYTE   W48
// 018   ----------------------------------------
        BYTE   W48
// 019   ----------------------------------------
        BYTE   W48
// 020   ----------------------------------------
        BYTE   W42
        BYTE   W01
iceman0000_1_LOOP:
        BYTE   W05
// 021   ----------------------------------------
        BYTE   W48
// 022   ----------------------------------------
        BYTE   W48
// 023   ----------------------------------------
        BYTE   W48
// 024   ----------------------------------------
        BYTE   W48
// 025   ----------------------------------------
        BYTE   W48
// 026   ----------------------------------------
        BYTE   W48
// 027   ----------------------------------------
        BYTE   W48
// 028   ----------------------------------------
        BYTE   W48
// 029   ----------------------------------------
        BYTE   W48
// 030   ----------------------------------------
        BYTE   W48
// 031   ----------------------------------------
        BYTE   W48
// 032   ----------------------------------------
        BYTE   W48
// 033   ----------------------------------------
        BYTE   W48
// 034   ----------------------------------------
        BYTE   W48
// 035   ----------------------------------------
        BYTE   W48
// 036   ----------------------------------------
        BYTE   W48
// 037   ----------------------------------------
        BYTE   W48
// 038   ----------------------------------------
        BYTE   W48
// 039   ----------------------------------------
        BYTE   W48
// 040   ----------------------------------------
        BYTE   W48
// 041   ----------------------------------------
        BYTE   W48
// 042   ----------------------------------------
        BYTE   W48
// 043   ----------------------------------------
        BYTE   W48
// 044   ----------------------------------------
        BYTE   W48
// 045   ----------------------------------------
        BYTE   W48
// 046   ----------------------------------------
        BYTE   W48
// 047   ----------------------------------------
        BYTE   W48
// 048   ----------------------------------------
        BYTE   W48
// 049   ----------------------------------------
        BYTE   W48
// 050   ----------------------------------------
        BYTE   W48
// 051   ----------------------------------------
        BYTE   W48
// 052   ----------------------------------------
        BYTE   W48
// 053   ----------------------------------------
        BYTE   W48
// 054   ----------------------------------------
        BYTE   W48
// 055   ----------------------------------------
        BYTE   W48
// 056   ----------------------------------------
        BYTE   W48
// 057   ----------------------------------------
        BYTE   W48
// 058   ----------------------------------------
        BYTE   W48
// 059   ----------------------------------------
        BYTE   W48
// 060   ----------------------------------------
        BYTE   W48
// 061   ----------------------------------------
        BYTE   W48
// 062   ----------------------------------------
        BYTE   W48
// 063   ----------------------------------------
        BYTE   W48
// 064   ----------------------------------------
        BYTE   W48
// 065   ----------------------------------------
        BYTE   W48
// 066   ----------------------------------------
iceman0000_1_66:
        BYTE   W36
        BYTE           N12     Dn3   v105
        BYTE   W12
        BYTE   PEND
// 067   ----------------------------------------
iceman0000_1_67:
        BYTE           N22     Ds3   v095
        BYTE   W24
        BYTE           N16
        BYTE   W24
        BYTE   PEND
// 068   ----------------------------------------
iceman0000_1_68:
        BYTE           N16     Ds3   v095
        BYTE   W19
        BYTE                   Cn3
        BYTE   W17
        BYTE           N10     Ds3
        BYTE   W12
        BYTE   PEND
// 069   ----------------------------------------
iceman0000_1_69:
        BYTE           N16     Ds3   v095
        BYTE   W19
        BYTE                   Ds3
        BYTE   W17
        BYTE           N10
        BYTE   W12
        BYTE   PEND
// 070   ----------------------------------------
iceman0000_1_70:
        BYTE           N21     Ds3   v095
        BYTE   W36
        BYTE           N10
        BYTE   W12
        BYTE   PEND
// 071   ----------------------------------------
        BYTE   PATT
         POIN2  iceman0000_1_67
// 072   ----------------------------------------
iceman0000_1_72:
        BYTE           N16     Ds3   v095
        BYTE   W19
        BYTE                   Ds3
        BYTE   W17
        BYTE           N10     Gs3
        BYTE   W12
        BYTE   PEND
// 073   ----------------------------------------
iceman0000_1_73:
        BYTE           N16     Gs3   v095
        BYTE   W19
        BYTE                   Fn3
        BYTE   W17
        BYTE           N10
        BYTE   W12
        BYTE   PEND
// 074   ----------------------------------------
        BYTE           N40     Fn3   v085
        BYTE   W48
// 075   ----------------------------------------
        BYTE   PATT
         POIN2  iceman0000_1_67
// 076   ----------------------------------------
        BYTE   PATT
         POIN2  iceman0000_1_68
// 077   ----------------------------------------
        BYTE   PATT
         POIN2  iceman0000_1_69
// 078   ----------------------------------------
iceman0000_1_78:
        BYTE           N15     Ds3   v095
        BYTE   W24
        BYTE           N10
        BYTE   W12
        BYTE                   Gn3
        BYTE   W12
        BYTE   PEND
// 079   ----------------------------------------
iceman0000_1_79:
        BYTE           N16     Fn3   v095
        BYTE   W24
        BYTE           N21     Gs3
        BYTE   W24
        BYTE   PEND
// 080   ----------------------------------------
iceman0000_1_80:
        BYTE           N21     As3   v095
        BYTE   W24
        BYTE                   As3
        BYTE   W24
        BYTE   PEND
// 081   ----------------------------------------
        BYTE           N76     Ds3
        BYTE   W48
// 082   ----------------------------------------
        BYTE   PATT
         POIN2  iceman0000_1_66
// 083   ----------------------------------------
        BYTE   PATT
         POIN2  iceman0000_1_67
// 084   ----------------------------------------
        BYTE   PATT
         POIN2  iceman0000_1_68
// 085   ----------------------------------------
        BYTE   PATT
         POIN2  iceman0000_1_69
// 086   ----------------------------------------
        BYTE   PATT
         POIN2  iceman0000_1_70
// 087   ----------------------------------------
        BYTE   PATT
         POIN2  iceman0000_1_67
// 088   ----------------------------------------
        BYTE   PATT
         POIN2  iceman0000_1_72
// 089   ----------------------------------------
        BYTE   PATT
         POIN2  iceman0000_1_73
// 090   ----------------------------------------
        BYTE           N40     Fn3   v085
        BYTE   W48
// 091   ----------------------------------------
        BYTE   PATT
         POIN2  iceman0000_1_67
// 092   ----------------------------------------
        BYTE   PATT
         POIN2  iceman0000_1_68
// 093   ----------------------------------------
        BYTE   PATT
         POIN2  iceman0000_1_69
// 094   ----------------------------------------
        BYTE   PATT
         POIN2  iceman0000_1_78
// 095   ----------------------------------------
        BYTE   PATT
         POIN2  iceman0000_1_79
// 096   ----------------------------------------
        BYTE   PATT
         POIN2  iceman0000_1_80
// 097   ----------------------------------------
        BYTE           N52     Ds3   v095
        BYTE   W48
// 098   ----------------------------------------
        BYTE   W48
// 099   ----------------------------------------
        BYTE   W48
// 100   ----------------------------------------
        BYTE   W48
// 101   ----------------------------------------
        BYTE   W48
// 102   ----------------------------------------
        BYTE   W48
// 103   ----------------------------------------
        BYTE   W48
// 104   ----------------------------------------
        BYTE   W42
        BYTE   W01
        BYTE   GoTo
         POIN2  iceman0000_1_LOOP
        BYTE   W05
// 105   ----------------------------------------
        BYTE   FINE

//****************** Track 2 (Midi-Chn.2) ******************//

iceman0000_2:
        BYTE   KEYSH   iceman0000_key+0
// 000   ----------------------------------------
        BYTE           VOICE   43
        BYTE           VOL     41
        BYTE           PAN     c_v+15
        BYTE   W48
// 001   ----------------------------------------
        BYTE   W48
// 002   ----------------------------------------
        BYTE   W48
// 003   ----------------------------------------
        BYTE   W48
// 004   ----------------------------------------
        BYTE   W48
// 005   ----------------------------------------
        BYTE   W48
// 006   ----------------------------------------
        BYTE   W48
// 007   ----------------------------------------
        BYTE   W48
// 008   ----------------------------------------
        BYTE   W48
// 009   ----------------------------------------
        BYTE   W48
// 010   ----------------------------------------
        BYTE   W48
// 011   ----------------------------------------
        BYTE   W48
// 012   ----------------------------------------
        BYTE   W48
// 013   ----------------------------------------
        BYTE   W48
// 014   ----------------------------------------
        BYTE   W48
// 015   ----------------------------------------
        BYTE   W48
// 016   ----------------------------------------
        BYTE   W48
// 017   ----------------------------------------
        BYTE   W48
// 018   ----------------------------------------
        BYTE   W48
// 019   ----------------------------------------
        BYTE   W48
// 020   ----------------------------------------
        BYTE   W42
        BYTE   W01
iceman0000_2_LOOP:
        BYTE   W05
// 021   ----------------------------------------
        BYTE   W48
// 022   ----------------------------------------
        BYTE   W48
// 023   ----------------------------------------
        BYTE   W48
// 024   ----------------------------------------
        BYTE   W48
// 025   ----------------------------------------
        BYTE   W48
// 026   ----------------------------------------
        BYTE   W48
// 027   ----------------------------------------
        BYTE   W48
// 028   ----------------------------------------
        BYTE   W48
// 029   ----------------------------------------
        BYTE   W48
// 030   ----------------------------------------
        BYTE   W48
// 031   ----------------------------------------
        BYTE   W48
// 032   ----------------------------------------
        BYTE   W48
// 033   ----------------------------------------
        BYTE   W48
// 034   ----------------------------------------
        BYTE   W32
        BYTE   W03
        BYTE           N12     Gn2   v120
        BYTE   W12
        BYTE           N08     Cn3
        BYTE   W01
// 035   ----------------------------------------
        BYTE   W11
        BYTE                   Cn3
        BYTE   W12
        BYTE                   Cn3
        BYTE   W12
        BYTE           N10     As2
        BYTE   W12
        BYTE           N07     Cn3
        BYTE   W01
// 036   ----------------------------------------
        BYTE   W06
        BYTE           N05     Ds3
        BYTE   W12
        BYTE           N10     Gn2
        BYTE   W17
        BYTE           N12     As2
        BYTE   W12
        BYTE           N08     Cn3
        BYTE   W01
// 037   ----------------------------------------
        BYTE   W11
        BYTE           N10     As2
        BYTE   W12
        BYTE           N07     Ds3
        BYTE   W07
        BYTE           N04     Fn3   v110
        BYTE   W11
        BYTE           N22     Gn3   v100
        BYTE   W07
// 038   ----------------------------------------
        BYTE   W32
        BYTE   W03
        BYTE           N06     Gn3   v110
        BYTE   W12
        BYTE           N09     Gs3
        BYTE   W01
// 039   ----------------------------------------
        BYTE   W11
        BYTE           N07     As3
        BYTE   W07
        BYTE           N05     Gs3
        BYTE   W17
        BYTE           N10
        BYTE   W12
        BYTE                   Gs3
        BYTE   W01
// 040   ----------------------------------------
        BYTE   W11
        BYTE                   Gn3
        BYTE   W12
        BYTE           N09     Fn3
        BYTE   W12
        BYTE                   Ds3
        BYTE   W12
        BYTE           N12     Gs2   v120
        BYTE   W01
// 041   ----------------------------------------
        BYTE   W23
        BYTE           N24     Gn3   v110
        BYTE   W24
        BYTE           N18     Fn3   v090
        BYTE   W01
// 042   ----------------------------------------
        BYTE   W23
        BYTE           N22     As2   v120
        BYTE   W24
        BYTE           N52     Gs2
        BYTE   W01
// 043   ----------------------------------------
        BYTE   W48
// 044   ----------------------------------------
        BYTE   W11
        BYTE           N12
        BYTE   W12
        BYTE                   Cn3
        BYTE   W12
        BYTE                   Gn3   v110
        BYTE   W12
        BYTE           N18     Fn3
        BYTE   W01
// 045   ----------------------------------------
        BYTE   W23
        BYTE                   Ds3
        BYTE   W24
        BYTE                   Dn3
        BYTE   W01
// 046   ----------------------------------------
        BYTE   W23
        BYTE           N10     Ds3
        BYTE   W12
        BYTE           N40     Dn3
        BYTE   W13
// 047   ----------------------------------------
        BYTE   W32
        BYTE   W03
        BYTE           N12
        BYTE   W12
        BYTE           N16     Fn3
        BYTE   W01
// 048   ----------------------------------------
        BYTE   W18
        BYTE                   As2   v120
        BYTE   W17
        BYTE           N40     Gn3   v110
        BYTE   W13
// 049   ----------------------------------------
        BYTE   W32
        BYTE   W03
        BYTE           N10
        BYTE   W12
        BYTE           N12     As3
        BYTE   W01
// 050   ----------------------------------------
        BYTE   W11
        BYTE           N10     Gn3
        BYTE   W12
        BYTE                   Fn3
        BYTE   W12
        BYTE           N12     Dn3
        BYTE   W12
        BYTE           N64     Cn3
        BYTE   W01
// 051   ----------------------------------------
        BYTE   W48
// 052   ----------------------------------------
        BYTE   W23
        BYTE           N22     Ds3
        BYTE   W24
        BYTE           N20     Dn3
        BYTE   W01
// 053   ----------------------------------------
        BYTE   W23
        BYTE                   Ds3
        BYTE   W24
        BYTE                   Dn3
        BYTE   W01
// 054   ----------------------------------------
        BYTE   W23
        BYTE                   As2
        BYTE   W24
        BYTE                   Dn3
        BYTE   W01
// 055   ----------------------------------------
        BYTE   W23
        BYTE                   Ds3
        BYTE   W24
        BYTE                   Fn3
        BYTE   W01
// 056   ----------------------------------------
        BYTE   W23
        BYTE           N12     Gn3
        BYTE   W12
        BYTE           N32     Cn3
        BYTE   W13
// 057   ----------------------------------------
        BYTE   W32
        BYTE   W03
        BYTE           N10
        BYTE   W12
        BYTE           N12     Ds3
        BYTE   W01
// 058   ----------------------------------------
        BYTE   W11
        BYTE           N10     Dn3
        BYTE   W12
        BYTE                   Cn3
        BYTE   W12
        BYTE           N12     Ds3
        BYTE   W12
        BYTE                   Fn3
        BYTE   W01
// 059   ----------------------------------------
        BYTE   W11
        BYTE           N10     Ds3   v095
        BYTE   W12
        BYTE                   Ds3   v110
        BYTE   W12
        BYTE           N06     Dn3   v100
        BYTE   W07
        BYTE           N15     Ds3
        BYTE   W06
// 060   ----------------------------------------
        BYTE   W32
        BYTE   W03
        BYTE           N12     Ds3   v110
        BYTE   W12
        BYTE                   Gn3
        BYTE   W01
// 061   ----------------------------------------
        BYTE   W11
        BYTE           N10     Fn3   v095
        BYTE   W12
        BYTE                   Fn3   v110
        BYTE   W12
        BYTE           N06     Gn3   v100
        BYTE   W07
        BYTE           N15     Fn3
        BYTE   W06
// 062   ----------------------------------------
        BYTE   W32
        BYTE   W03
        BYTE           N12     Fn3   v110
        BYTE   W12
        BYTE           N10     Gs3
        BYTE   W01
// 063   ----------------------------------------
        BYTE   W11
        BYTE           N04     Gs3   v100
        BYTE   W07
        BYTE           N10
        BYTE   W17
        BYTE           N21     Gs3   v115
        BYTE   W13
// 064   ----------------------------------------
        BYTE   W11
        BYTE                   As3
        BYTE   W24
        BYTE           N10     Gs3
        BYTE   W12
        BYTE           N08     Gn3
        BYTE   W01
// 065   ----------------------------------------
        BYTE   W11
        BYTE                   Gn3
        BYTE   W12
        BYTE                   Gn3
        BYTE   W12
        BYTE           N06     As3   v120
        BYTE   W07
        BYTE           N14     Gn3   v105
        BYTE   W06
// 066   ----------------------------------------
        BYTE   W36
        BYTE           N12     Gn3   v100
        BYTE   W12
// 067   ----------------------------------------
iceman0000_2_67:
        BYTE           N16     Cn4   v108
        BYTE   W19
        BYTE           N03     Gn3   v083
        BYTE   W05
        BYTE           N16     Gn3   v098
        BYTE   W24
        BYTE   PEND
// 068   ----------------------------------------
iceman0000_2_68:
        BYTE           N16     Cn4   v108
        BYTE   W19
        BYTE                   Ds4   v100
        BYTE   W17
        BYTE           N10     Cn4   v108
        BYTE   W12
        BYTE   PEND
// 069   ----------------------------------------
iceman0000_2_69:
        BYTE           N16     As3   v108
        BYTE   W19
        BYTE                   As3
        BYTE   W17
        BYTE           N10     Cn4
        BYTE   W12
        BYTE   PEND
// 070   ----------------------------------------
iceman0000_2_70:
        BYTE           N21     Gn3   v108
        BYTE   W36
        BYTE           N10     As3
        BYTE   W12
        BYTE   PEND
// 071   ----------------------------------------
        BYTE   PATT
         POIN2  iceman0000_2_67
// 072   ----------------------------------------
iceman0000_2_72:
        BYTE           N16     Cn4   v108
        BYTE   W19
        BYTE                   Dn4   v100
        BYTE   W17
        BYTE           N10     Ds4
        BYTE   W12
        BYTE   PEND
// 073   ----------------------------------------
iceman0000_2_73:
        BYTE           N16     Fn4   v095
        BYTE   W19
        BYTE                   Dn4   v100
        BYTE   W17
        BYTE           N10     Cn4   v108
        BYTE   W12
        BYTE   PEND
// 074   ----------------------------------------
iceman0000_2_74:
        BYTE           N21     Cn4   v108
        BYTE   W24
        BYTE           N16     As3   v098
        BYTE   W24
        BYTE   PEND
// 075   ----------------------------------------
        BYTE   PATT
         POIN2  iceman0000_2_67
// 076   ----------------------------------------
        BYTE   PATT
         POIN2  iceman0000_2_68
// 077   ----------------------------------------
        BYTE   PATT
         POIN2  iceman0000_2_69
// 078   ----------------------------------------
iceman0000_2_78:
        BYTE           N15     Gn3   v108
        BYTE   W24
        BYTE           N10
        BYTE   W12
        BYTE                   As3
        BYTE   W12
        BYTE   PEND
// 079   ----------------------------------------
iceman0000_2_79:
        BYTE           N16     Cn4   v108
        BYTE   W24
        BYTE           N21     Ds4   v100
        BYTE   W24
        BYTE   PEND
// 080   ----------------------------------------
iceman0000_2_80:
        BYTE           N21     Fn4   v095
        BYTE   W24
        BYTE           N24     Gn4   v085
        BYTE   W24
        BYTE   PEND
// 081   ----------------------------------------
        BYTE           N76     Cn4   v108
        BYTE   W48
// 082   ----------------------------------------
        BYTE   W36
        BYTE           N12     Gn3
        BYTE   W12
// 083   ----------------------------------------
        BYTE   PATT
         POIN2  iceman0000_2_67
// 084   ----------------------------------------
        BYTE   PATT
         POIN2  iceman0000_2_68
// 085   ----------------------------------------
        BYTE   PATT
         POIN2  iceman0000_2_69
// 086   ----------------------------------------
        BYTE   PATT
         POIN2  iceman0000_2_70
// 087   ----------------------------------------
        BYTE   PATT
         POIN2  iceman0000_2_67
// 088   ----------------------------------------
        BYTE   PATT
         POIN2  iceman0000_2_72
// 089   ----------------------------------------
        BYTE   PATT
         POIN2  iceman0000_2_73
// 090   ----------------------------------------
        BYTE   PATT
         POIN2  iceman0000_2_74
// 091   ----------------------------------------
        BYTE   PATT
         POIN2  iceman0000_2_67
// 092   ----------------------------------------
        BYTE   PATT
         POIN2  iceman0000_2_68
// 093   ----------------------------------------
        BYTE   PATT
         POIN2  iceman0000_2_69
// 094   ----------------------------------------
        BYTE   PATT
         POIN2  iceman0000_2_78
// 095   ----------------------------------------
        BYTE   PATT
         POIN2  iceman0000_2_79
// 096   ----------------------------------------
        BYTE   PATT
         POIN2  iceman0000_2_80
// 097   ----------------------------------------
        BYTE           N56     Cn4   v108   gtp2
        BYTE   W48
// 098   ----------------------------------------
        BYTE   W24
        BYTE           N10     Gn3
        BYTE   W12
        BYTE                   As3
        BYTE   W12
// 099   ----------------------------------------
        BYTE           N16     Cn4
        BYTE   W24
        BYTE           N18     Ds4   v100
        BYTE   W24
// 100   ----------------------------------------
        BYTE                   Fn4   v095
        BYTE   W24
        BYTE           N24     Gn4   v085
        BYTE   W24
// 101   ----------------------------------------
        BYTE           TIE     Cn4   v100
        BYTE   W48
// 102   ----------------------------------------
        BYTE   W48
// 103   ----------------------------------------
        BYTE   W48
// 104   ----------------------------------------
        BYTE   W28
        BYTE           EOT
        BYTE   W15
        BYTE   GoTo
         POIN2  iceman0000_2_LOOP
        BYTE   W05
// 105   ----------------------------------------
        BYTE   FINE

//****************** Track 3 (Midi-Chn.3) ******************//

iceman0000_3:
        BYTE   KEYSH   iceman0000_key+0
// 000   ----------------------------------------
        BYTE           VOICE   96
        BYTE           VOL     27
        BYTE           PAN     c_v-7
        BYTE   W48
// 001   ----------------------------------------
        BYTE           N92     Cn4   v100   gtp2
        BYTE           N80     Ds4   v100   gtp2
        BYTE   W48
// 002   ----------------------------------------
        BYTE   W36
        BYTE           N04
        BYTE   W06
        BYTE                   Fn4
        BYTE   W06
// 003   ----------------------------------------
        BYTE           N68     Gn4   v100   gtp2
        BYTE   W48
// 004   ----------------------------------------
        BYTE   W24
        BYTE           N22
        BYTE           N22     Cn5
        BYTE   W24
// 005   ----------------------------------------
        BYTE           N80     Gs4   v100   gtp2
        BYTE           N68     Dn5   v100   gtp2
        BYTE   W48
// 006   ----------------------------------------
        BYTE   W24
        BYTE           N10     Ds5
        BYTE   W12
        BYTE           N44     Gn4   v100   gtp2
        BYTE   W12
// 007   ----------------------------------------
        BYTE   W36
        BYTE           N10
        BYTE   W12
// 008   ----------------------------------------
        BYTE                   Gn4
        BYTE           N10     As4
        BYTE   W12
        BYTE                   Fn4
        BYTE           N10     Gs4
        BYTE   W12
        BYTE                   Dn4
        BYTE           N10     Gn4
        BYTE   W12
        BYTE                   Gn3
        BYTE           N10     As3
        BYTE   W12
// 009   ----------------------------------------
        BYTE           N22     Ds4
        BYTE   W24
        BYTE           N10     Cs4
        BYTE           N10     Fn4
        BYTE   W12
        BYTE           N44     Cs4   v100   gtp2
        BYTE                   Fn4
        BYTE   W12
// 010   ----------------------------------------
        BYTE   W36
        BYTE           N10     Cs4
        BYTE           N10     Gn4
        BYTE   W12
// 011   ----------------------------------------
        BYTE                   Ds4
        BYTE           N10     Gs4
        BYTE   W12
        BYTE                   Gn4
        BYTE   W12
        BYTE                   Ds4
        BYTE           N10     Gs4
        BYTE   W12
        BYTE           N32     Cn4   v100   gtp2
        BYTE   W12
// 012   ----------------------------------------
        BYTE   W24
        BYTE           N22
        BYTE           N22     Ds4
        BYTE   W24
// 013   ----------------------------------------
        BYTE           N92     Cn4   v100   gtp2
        BYTE           TIE     Dn4
        BYTE   W48
// 014   ----------------------------------------
        BYTE   W48
// 015   ----------------------------------------
        BYTE           N88     Bn3
        BYTE   W48
// 016   ----------------------------------------
        BYTE   W40
        BYTE           EOT     Dn4
        BYTE   W08
// 017   ----------------------------------------
        BYTE           TIE     Gn3   v085
        BYTE           TIE     Cn4   v095
        BYTE   W48
// 018   ----------------------------------------
        BYTE   W48
// 019   ----------------------------------------
iceman0000_3_19:
        BYTE   W44
        BYTE   W02
        BYTE           EOT     Gn3
        BYTE                   Cn4
        BYTE   W02
        BYTE   PEND
// 020   ----------------------------------------
        BYTE           N22     Gn3   v080
        BYTE           N22     Cn4
        BYTE   W24
        BYTE                   Gn3
        BYTE           N22     Dn4
        BYTE   W19
iceman0000_3_LOOP:
        BYTE   W05
// 021   ----------------------------------------
        BYTE           TIE     Cn4   v080
        BYTE           TIE     Ds4
        BYTE   W48
// 022   ----------------------------------------
        BYTE   W48
// 023   ----------------------------------------
        BYTE   W44
        BYTE   W02
        BYTE           EOT     Cn4
        BYTE                   Ds4
        BYTE   W02
// 024   ----------------------------------------
        BYTE           N22     Gs3
        BYTE           N22     Cn4
        BYTE   W24
        BYTE                   Ds4
        BYTE           N22     Gs4
        BYTE   W24
// 025   ----------------------------------------
        BYTE           N92     Cn4   v080   gtp2
        BYTE                   Fn4
        BYTE   W48
// 026   ----------------------------------------
        BYTE   W48
// 027   ----------------------------------------
        BYTE           N68     Cn4   v080   gtp2
        BYTE                   Ds4
        BYTE   W48
// 028   ----------------------------------------
        BYTE   W24
        BYTE           N22     Gs3
        BYTE           N22     Cn4
        BYTE   W24
// 029   ----------------------------------------
        BYTE           N44     Gs3   v080   gtp2
        BYTE                   Dn4
        BYTE   W48
// 030   ----------------------------------------
        BYTE                   Fn4
        BYTE           N44     Gs4   v080   gtp2
        BYTE   W48
// 031   ----------------------------------------
        BYTE           N80     Dn4   v080   gtp2
        BYTE                   Gn4
        BYTE   W48
// 032   ----------------------------------------
        BYTE   W36
        BYTE           TIE     Dn4   v060
        BYTE           TIE     Gn4
        BYTE   W12
// 033   ----------------------------------------
        BYTE   W48
// 034   ----------------------------------------
        BYTE   W44
        BYTE   W02
        BYTE           EOT     Dn4
        BYTE                   Gn4
        BYTE   W02
// 035   ----------------------------------------
        BYTE   W48
// 036   ----------------------------------------
        BYTE   W48
// 037   ----------------------------------------
        BYTE   W48
// 038   ----------------------------------------
        BYTE   W48
// 039   ----------------------------------------
        BYTE   W48
// 040   ----------------------------------------
        BYTE   W48
// 041   ----------------------------------------
        BYTE   W48
// 042   ----------------------------------------
        BYTE   W48
// 043   ----------------------------------------
        BYTE   W48
// 044   ----------------------------------------
        BYTE   W48
// 045   ----------------------------------------
        BYTE   W48
// 046   ----------------------------------------
        BYTE   W48
// 047   ----------------------------------------
        BYTE   W48
// 048   ----------------------------------------
        BYTE   W48
// 049   ----------------------------------------
        BYTE           N44     Dn3   v070   gtp2
        BYTE                   Gn3   v080
        BYTE   W48
// 050   ----------------------------------------
        BYTE           N22     Gn3   v075
        BYTE           N22     Bn3   v085
        BYTE   W24
        BYTE                   Gn3   v080
        BYTE           N22     Dn4   v090
        BYTE   W24
// 051   ----------------------------------------
        BYTE           N44     Gs3   v075   gtp2
        BYTE                   Ds4   v085
        BYTE   W48
// 052   ----------------------------------------
        BYTE                   Cn4   v075
        BYTE           N44     Gs4   v085   gtp2
        BYTE   W48
// 053   ----------------------------------------
        BYTE           N22     As3   v075
        BYTE           N22     Fn4   v085
        BYTE   W24
        BYTE                   Cn4   v075
        BYTE           N22     Gn4   v085
        BYTE   W24
// 054   ----------------------------------------
        BYTE                   As3   v075
        BYTE           N22     Fn4   v085
        BYTE   W24
        BYTE                   Fn3   v075
        BYTE           N22     Dn4   v085
        BYTE   W24
// 055   ----------------------------------------
        BYTE           N44     As3   v075   gtp2
        BYTE                   Fn4   v085
        BYTE   W48
// 056   ----------------------------------------
        BYTE                   Dn3   v075
        BYTE           N44     As3   v085   gtp2
        BYTE   W48
// 057   ----------------------------------------
        BYTE           N22     Gn3   v075
        BYTE           N22     Ds4   v085
        BYTE   W24
        BYTE                   Gn3   v075
        BYTE           N22     Dn4   v085
        BYTE   W24
// 058   ----------------------------------------
        BYTE                   Gn3   v075
        BYTE           N22     Ds4   v085
        BYTE   W24
        BYTE                   Cn4   v075
        BYTE           N22     Gn4   v085
        BYTE   W24
// 059   ----------------------------------------
        BYTE           N56     Cn4   v075   gtp2
        BYTE                   Gs4   v085
        BYTE   W48
// 060   ----------------------------------------
        BYTE   W12
        BYTE           N10     Cn4   v075
        BYTE           N10     Gs4   v105
        BYTE   W12
        BYTE           N22     Gs3   v075
        BYTE           N22     Ds4   v105
        BYTE   W24
// 061   ----------------------------------------
        BYTE           N56     As3   v075   gtp2
        BYTE                   Fn4   v085
        BYTE   W48
// 062   ----------------------------------------
        BYTE   W12
        BYTE           N10     Dn4   v075
        BYTE           N10     As4   v105
        BYTE   W12
        BYTE           N22     As3   v075
        BYTE           N22     Fn4   v105
        BYTE   W24
// 063   ----------------------------------------
        BYTE                   Gs3   v075
        BYTE           N22     Dn4   v085
        BYTE   W24
        BYTE                   Fn3   v075
        BYTE           N22     Cn4   v085
        BYTE   W24
// 064   ----------------------------------------
        BYTE                   Gs3   v075
        BYTE           N22     Dn4   v085
        BYTE   W24
        BYTE                   Gs3   v075
        BYTE           N22     Fn4   v085
        BYTE   W24
// 065   ----------------------------------------
        BYTE           N52     Bn3   v075
        BYTE           N52     Gn4   v085
        BYTE   W48
// 066   ----------------------------------------
        BYTE   W48
// 067   ----------------------------------------
        BYTE           N44     Gn3   v090   gtp2
        BYTE                   Cn4   v100
        BYTE   W48
// 068   ----------------------------------------
        BYTE           N22     Ds3   v090
        BYTE           N22     Gn3   v100
        BYTE   W24
        BYTE                   Gn3   v090
        BYTE           N22     Ds4   v100
        BYTE   W24
// 069   ----------------------------------------
        BYTE                   As3   v090
        BYTE           N22     Gn4   v100
        BYTE   W24
        BYTE                   Gn3   v090
        BYTE           N22     Fn4   v100
        BYTE   W24
// 070   ----------------------------------------
        BYTE                   Gn3   v090
        BYTE           N22     Ds4   v100
        BYTE   W24
        BYTE                   Gn3   v090
        BYTE           N22     As3   v100
        BYTE   W24
// 071   ----------------------------------------
        BYTE           N44     Gs3   v090   gtp2
        BYTE                   Cn4   v100
        BYTE   W48
// 072   ----------------------------------------
        BYTE                   Cn4   v090
        BYTE           N44     Gs4   v100   gtp2
        BYTE   W48
// 073   ----------------------------------------
        BYTE           N22     Cn4   v090
        BYTE           N22     Fn4   v100
        BYTE   W24
        BYTE                   Dn4   v090
        BYTE           N22     Gs4   v100
        BYTE   W24
// 074   ----------------------------------------
        BYTE                   As3   v090
        BYTE           N22     Gn4   v100
        BYTE   W24
        BYTE                   Gn4   v090
        BYTE           N22     Dn5   v100
        BYTE   W24
// 075   ----------------------------------------
        BYTE           N44     Ds4   v090   gtp2
        BYTE           N32     Cn5   v100   gtp2
        BYTE   W36
        BYTE           N06     As4
        BYTE   W07
        BYTE           N04     Gs4
        BYTE   W05
// 076   ----------------------------------------
        BYTE           N22     Cn4   v090
        BYTE           N22     Gn4   v100
        BYTE   W24
        BYTE           N10     Gn3   v090
        BYTE           N10     Ds4   v100
        BYTE   W12
        BYTE                   Cn4   v090
        BYTE           N10     Gn4   v100
        BYTE   W12
// 077   ----------------------------------------
        BYTE           N06     Gn3   v090
        BYTE           N06     Ds4   v110
        BYTE   W07
        BYTE           N04     Gs3   v090
        BYTE           N04     Fn4   v110
        BYTE   W05
        BYTE           N09     As3   v090
        BYTE           N09     Gn4   v110
        BYTE   W12
        BYTE           N06     As3   v090
        BYTE           N06     Gn4   v110
        BYTE   W07
        BYTE           N04     Cn4   v090
        BYTE           N04     Gs4   v110
        BYTE   W05
        BYTE           N09     Ds4   v090
        BYTE           N09     As4   v110
        BYTE   W12
// 078   ----------------------------------------
        BYTE           N44     As3   v090   gtp2
        BYTE                   Gn4   v100
        BYTE   W48
// 079   ----------------------------------------
        BYTE           N09     Cn4   v090
        BYTE           N10     Fn4   v100
        BYTE   W12
        BYTE           N09     Gs3   v090
        BYTE           N10     Cn4   v100
        BYTE   W12
        BYTE           N09     Gs3   v090
        BYTE           N10     Ds4   v100
        BYTE   W12
        BYTE           N09     Cn4   v090
        BYTE           N10     Fn4   v100
        BYTE   W12
// 080   ----------------------------------------
        BYTE           N09     As3   v090
        BYTE           N10     Fn4   v100
        BYTE   W12
        BYTE           N32     Gn3   v090   gtp2
        BYTE                   Dn4   v100
        BYTE   W36
// 081   ----------------------------------------
        BYTE           N44     Gn3   v080   gtp2
        BYTE           N92     Cn4   v090   gtp2
        BYTE   W48
// 082   ----------------------------------------
        BYTE           N44     An3   v070   gtp2
        BYTE   W44
        BYTE   W02
        BYTE           N10     Gn5   v047
        BYTE   W02
// 083   ----------------------------------------
        BYTE           N44     Ds4   v100   gtp2
        BYTE   W22
        BYTE           N10     Gn5   v047
        BYTE   W24
        BYTE                   Gn5
        BYTE   W02
// 084   ----------------------------------------
        BYTE   W22
        BYTE                   Gn5
        BYTE   W24
        BYTE                   Gn5
        BYTE   W02
// 085   ----------------------------------------
iceman0000_3_85:
        BYTE   W22
        BYTE           N10     Gn5   v047
        BYTE   W02
        BYTE           N22     Fn4   v100
        BYTE   W22
        BYTE           N10     Gn5   v047
        BYTE   W02
        BYTE   PEND
// 086   ----------------------------------------
        BYTE           N22     As3   v100
        BYTE   W22
        BYTE           N10     Gn5   v047
        BYTE   W02
        BYTE           N22     As4   v100
        BYTE   W22
        BYTE           N10     Gn5   v047
        BYTE   W02
// 087   ----------------------------------------
        BYTE           N32     Gs4   v100   gtp2
        BYTE   W22
        BYTE           N10     Gn5   v047
        BYTE   W14
        BYTE           N06     Gn4   v110
        BYTE   W07
        BYTE           N04     Fn4
        BYTE   W03
        BYTE           N10     Gn5   v047
        BYTE   W02
// 088   ----------------------------------------
        BYTE           N22     Gs3   v100
        BYTE   W22
        BYTE           N10     Gn5   v047
        BYTE   W24
        BYTE                   Gn5
        BYTE   W02
// 089   ----------------------------------------
        BYTE   PATT
         POIN2  iceman0000_3_85
// 090   ----------------------------------------
        BYTE           N06     Gn4   v110
        BYTE   W12
        BYTE                   Dn4
        BYTE   W10
        BYTE           N10     Gn5   v047
        BYTE   W14
        BYTE           N06     Gs4   v110
        BYTE   W10
        BYTE           N10     Gn5   v047
        BYTE   W02
// 091   ----------------------------------------
        BYTE           N22     Cn5   v100
        BYTE   W22
        BYTE           N10     Gn5   v047
        BYTE   W02
        BYTE           N22     Gn4   v100
        BYTE   W22
        BYTE           N10     Gn5   v047
        BYTE   W02
// 092   ----------------------------------------
        BYTE                   Ds4   v100
        BYTE   W12
        BYTE                   Fn4
        BYTE   W10
        BYTE                   Gn5   v047
        BYTE   W02
        BYTE           N22     Gn4   v100
        BYTE   W22
        BYTE           N10     Gn5   v047
        BYTE   W02
// 093   ----------------------------------------
        BYTE   W07
        BYTE           N04     Fn4   v110
        BYTE   W05
        BYTE           N09     As3   v090
        BYTE           N09     Gn4   v110
        BYTE   W10
        BYTE           N10     Gn5   v047
        BYTE   W09
        BYTE           N04     Gs4   v110
        BYTE   W05
        BYTE           N09     Ds4   v090
        BYTE           N09     As4   v110
        BYTE   W10
        BYTE           N10     Gn5   v047
        BYTE   W02
// 094   ----------------------------------------
        BYTE           N44     Gn4   v100   gtp2
        BYTE   W22
        BYTE           N10     Gn5   v047
        BYTE   W24
        BYTE                   Gn5
        BYTE   W02
// 095   ----------------------------------------
        BYTE                   Fn4   v100
        BYTE   W12
        BYTE           N09     Gs3   v090
        BYTE           N10     Cn4   v100
        BYTE   W10
        BYTE                   Gn5   v047
        BYTE   W02
        BYTE                   Ds4   v100
        BYTE   W12
        BYTE           N09     Cn4   v090
        BYTE           N10     Fn4   v100
        BYTE   W10
        BYTE                   Gn5   v047
        BYTE   W02
// 096   ----------------------------------------
        BYTE                   Fn4   v100
        BYTE   W12
        BYTE           N32     Dn4   v100   gtp2
        BYTE   W10
        BYTE           N10     Gn5   v047
        BYTE   W24
        BYTE                   Gn5
        BYTE   W02
// 097   ----------------------------------------
        BYTE           N92     Cn4   v090   gtp2
        BYTE   W22
        BYTE           N10     Gn5   v047
        BYTE   W24
        BYTE                   Gn5
        BYTE   W02
// 098   ----------------------------------------
        BYTE   W22
        BYTE                   Gn5
        BYTE   W24
        BYTE   W02
// 099   ----------------------------------------
        BYTE           N44     Fn3   v055   gtp2
        BYTE                   Gs3
        BYTE   W48
// 100   ----------------------------------------
        BYTE                   Gn3
        BYTE           N44     As3   v055   gtp2
        BYTE   W48
// 101   ----------------------------------------
        BYTE           TIE     Gn3   v080
        BYTE           TIE     Cn4   v090
        BYTE   W48
// 102   ----------------------------------------
        BYTE   W48
// 103   ----------------------------------------
        BYTE   PATT
         POIN2  iceman0000_3_19
// 104   ----------------------------------------
        BYTE           N22     Gn3   v080
        BYTE           N22     Cn4
        BYTE   W24
        BYTE                   Gn3
        BYTE           N22     Dn4
        BYTE   W19
        BYTE   GoTo
         POIN2  iceman0000_3_LOOP
        BYTE   W05
// 105   ----------------------------------------
        BYTE   FINE

//****************** Track 4 (Midi-Chn.6) ******************//

iceman0000_4:
        BYTE   KEYSH   iceman0000_key+0
// 000   ----------------------------------------
        BYTE           VOICE   43
        BYTE           VOL     41
        BYTE           PAN     c_v+14
        BYTE   W48
// 001   ----------------------------------------
        BYTE   W48
// 002   ----------------------------------------
        BYTE   W48
// 003   ----------------------------------------
        BYTE   W48
// 004   ----------------------------------------
        BYTE   W48
// 005   ----------------------------------------
        BYTE   W48
// 006   ----------------------------------------
        BYTE   W48
// 007   ----------------------------------------
        BYTE   W48
// 008   ----------------------------------------
        BYTE   W48
// 009   ----------------------------------------
        BYTE   W48
// 010   ----------------------------------------
        BYTE   W48
// 011   ----------------------------------------
        BYTE   W48
// 012   ----------------------------------------
        BYTE   W48
// 013   ----------------------------------------
        BYTE   W48
// 014   ----------------------------------------
        BYTE   W48
// 015   ----------------------------------------
        BYTE   W48
// 016   ----------------------------------------
        BYTE   W48
// 017   ----------------------------------------
iceman0000_4_17:
        BYTE           N16     Cn3   v110
        BYTE   W24
        BYTE                   Ds3
        BYTE   W24
        BYTE   PEND
// 018   ----------------------------------------
iceman0000_4_18:
        BYTE           N12     Dn3   v110
        BYTE   W19
        BYTE           N03     As2
        BYTE   W17
        BYTE           N16     Cn3
        BYTE   W12
        BYTE   PEND
// 019   ----------------------------------------
iceman0000_4_19:
        BYTE   W12
        BYTE           N03     Cn3   v110
        BYTE   W12
        BYTE           N16     Ds3
        BYTE   W24
        BYTE   PEND
// 020   ----------------------------------------
        BYTE           N12     Dn3
        BYTE   W19
        BYTE           N04     As2
        BYTE   W24
iceman0000_4_LOOP:
        BYTE   W05
// 021   ----------------------------------------
        BYTE   PATT
         POIN2  iceman0000_4_17
// 022   ----------------------------------------
        BYTE   PATT
         POIN2  iceman0000_4_18
// 023   ----------------------------------------
        BYTE   PATT
         POIN2  iceman0000_4_19
// 024   ----------------------------------------
iceman0000_4_24:
        BYTE           N12     Fn3   v110
        BYTE   W19
        BYTE           N04     Gn3
        BYTE   W28
        BYTE   W01
        BYTE   PEND
// 025   ----------------------------------------
        BYTE   PATT
         POIN2  iceman0000_4_17
// 026   ----------------------------------------
        BYTE   PATT
         POIN2  iceman0000_4_18
// 027   ----------------------------------------
        BYTE   PATT
         POIN2  iceman0000_4_19
// 028   ----------------------------------------
        BYTE           N12     Dn3   v110
        BYTE   W19
        BYTE           N04     As2
        BYTE   W28
        BYTE   W01
// 029   ----------------------------------------
        BYTE   PATT
         POIN2  iceman0000_4_17
// 030   ----------------------------------------
        BYTE   PATT
         POIN2  iceman0000_4_24
// 031   ----------------------------------------
        BYTE   W48
// 032   ----------------------------------------
        BYTE   W48
// 033   ----------------------------------------
        BYTE   W48
// 034   ----------------------------------------
        BYTE   W48
// 035   ----------------------------------------
        BYTE   W48
// 036   ----------------------------------------
        BYTE   W48
// 037   ----------------------------------------
        BYTE   W48
// 038   ----------------------------------------
        BYTE   W48
// 039   ----------------------------------------
        BYTE   W48
// 040   ----------------------------------------
        BYTE   W48
// 041   ----------------------------------------
        BYTE   W48
// 042   ----------------------------------------
        BYTE   W48
// 043   ----------------------------------------
        BYTE   W48
// 044   ----------------------------------------
        BYTE   W48
// 045   ----------------------------------------
        BYTE   W48
// 046   ----------------------------------------
        BYTE   W48
// 047   ----------------------------------------
        BYTE   W48
// 048   ----------------------------------------
        BYTE   W48
// 049   ----------------------------------------
        BYTE   W48
// 050   ----------------------------------------
        BYTE   W48
// 051   ----------------------------------------
        BYTE   W48
// 052   ----------------------------------------
        BYTE   W48
// 053   ----------------------------------------
        BYTE   W48
// 054   ----------------------------------------
        BYTE   W48
// 055   ----------------------------------------
        BYTE   W48
// 056   ----------------------------------------
        BYTE   W48
// 057   ----------------------------------------
        BYTE   W48
// 058   ----------------------------------------
        BYTE   W48
// 059   ----------------------------------------
        BYTE   W48
// 060   ----------------------------------------
        BYTE   W48
// 061   ----------------------------------------
        BYTE   W48
// 062   ----------------------------------------
        BYTE   W48
// 063   ----------------------------------------
        BYTE   W48
// 064   ----------------------------------------
        BYTE   W48
// 065   ----------------------------------------
        BYTE   W48
// 066   ----------------------------------------
        BYTE   W48
// 067   ----------------------------------------
        BYTE   W48
// 068   ----------------------------------------
        BYTE   W48
// 069   ----------------------------------------
        BYTE   W48
// 070   ----------------------------------------
iceman0000_4_70:
        BYTE   W12
        BYTE           N06     Cn3   v100
        BYTE   W12
        BYTE                   As2
        BYTE   W07
        BYTE           N03     Cn3
        BYTE   W17
        BYTE   PEND
// 071   ----------------------------------------
        BYTE   W48
// 072   ----------------------------------------
        BYTE   W48
// 073   ----------------------------------------
iceman0000_4_73:
        BYTE   W24
        BYTE           N16     Cn3   v100
        BYTE   W24
        BYTE   PEND
// 074   ----------------------------------------
iceman0000_4_74:
        BYTE           N16     Dn3   v100
        BYTE   W24
        BYTE                   As2
        BYTE   W24
        BYTE   PEND
// 075   ----------------------------------------
iceman0000_4_75:
        BYTE   W24
        BYTE           N10     Cn3   v110
        BYTE   W12
        BYTE                   Cn3   v080
        BYTE   W12
        BYTE   PEND
// 076   ----------------------------------------
        BYTE                   Cn3   v060
        BYTE   W48
// 077   ----------------------------------------
        BYTE   W48
// 078   ----------------------------------------
        BYTE   PATT
         POIN2  iceman0000_4_70
// 079   ----------------------------------------
        BYTE   W48
// 080   ----------------------------------------
        BYTE   W48
// 081   ----------------------------------------
        BYTE   W48
// 082   ----------------------------------------
        BYTE   W48
// 083   ----------------------------------------
        BYTE   W48
// 084   ----------------------------------------
        BYTE   W48
// 085   ----------------------------------------
        BYTE   W48
// 086   ----------------------------------------
        BYTE   PATT
         POIN2  iceman0000_4_70
// 087   ----------------------------------------
        BYTE   W48
// 088   ----------------------------------------
        BYTE   W48
// 089   ----------------------------------------
        BYTE   PATT
         POIN2  iceman0000_4_73
// 090   ----------------------------------------
        BYTE   PATT
         POIN2  iceman0000_4_74
// 091   ----------------------------------------
        BYTE   PATT
         POIN2  iceman0000_4_75
// 092   ----------------------------------------
        BYTE   W48
// 093   ----------------------------------------
        BYTE   W48
// 094   ----------------------------------------
        BYTE   PATT
         POIN2  iceman0000_4_70
// 095   ----------------------------------------
        BYTE   W48
// 096   ----------------------------------------
        BYTE   W48
// 097   ----------------------------------------
        BYTE   W48
// 098   ----------------------------------------
        BYTE   W48
// 099   ----------------------------------------
        BYTE   W48
// 100   ----------------------------------------
        BYTE   W48
// 101   ----------------------------------------
        BYTE   PATT
         POIN2  iceman0000_4_17
// 102   ----------------------------------------
        BYTE   PATT
         POIN2  iceman0000_4_18
// 103   ----------------------------------------
        BYTE   PATT
         POIN2  iceman0000_4_19
// 104   ----------------------------------------
        BYTE           N12     Dn3   v110
        BYTE   W19
        BYTE           N04     As2
        BYTE   W24
        BYTE   GoTo
         POIN2  iceman0000_4_LOOP
        BYTE   W05
// 105   ----------------------------------------
        BYTE   FINE

//****************** Track 5 (Midi-Chn.7) ******************//

iceman0000_5:
        BYTE   KEYSH   iceman0000_key+0
// 000   ----------------------------------------
        BYTE           VOICE   55
        BYTE   W01
        BYTE           VOL     34
        BYTE   W44
        BYTE   W03
// 001   ----------------------------------------
        BYTE   W48
// 002   ----------------------------------------
        BYTE   W48
// 003   ----------------------------------------
        BYTE   W48
// 004   ----------------------------------------
        BYTE   W48
// 005   ----------------------------------------
        BYTE   W48
// 006   ----------------------------------------
        BYTE   W48
// 007   ----------------------------------------
        BYTE   W48
// 008   ----------------------------------------
        BYTE   W48
// 009   ----------------------------------------
        BYTE   W48
// 010   ----------------------------------------
        BYTE   W48
// 011   ----------------------------------------
        BYTE   W48
// 012   ----------------------------------------
        BYTE   W48
// 013   ----------------------------------------
        BYTE   W48
// 014   ----------------------------------------
        BYTE   W48
// 015   ----------------------------------------
iceman0000_5_15:
        BYTE           N18     Fn3   v090
        BYTE           N18     Fn4
        BYTE   W24
        BYTE                   Fn3
        BYTE           N18     Fn4
        BYTE   W24
        BYTE   PEND
// 016   ----------------------------------------
        BYTE   PATT
         POIN2  iceman0000_5_15
// 017   ----------------------------------------
        BYTE           N18     Fn3   v090
        BYTE           N18     Fn4
        BYTE   W48
// 018   ----------------------------------------
        BYTE   W48
// 019   ----------------------------------------
        BYTE   W48
// 020   ----------------------------------------
        BYTE   W36
        BYTE           N12     As3   v100
        BYTE   W07
iceman0000_5_LOOP:
        BYTE   W05
// 021   ----------------------------------------
        BYTE   W48
// 022   ----------------------------------------
        BYTE   W48
// 023   ----------------------------------------
        BYTE   W48
// 024   ----------------------------------------
iceman0000_5_24:
        BYTE   W36
        BYTE           N12     As3   v100
        BYTE   W12
        BYTE   PEND
// 025   ----------------------------------------
        BYTE   W48
// 026   ----------------------------------------
        BYTE   W48
// 027   ----------------------------------------
        BYTE   W48
// 028   ----------------------------------------
        BYTE   PATT
         POIN2  iceman0000_5_24
// 029   ----------------------------------------
        BYTE   W48
// 030   ----------------------------------------
        BYTE   W48
// 031   ----------------------------------------
        BYTE   W12
        BYTE           N10     Fn4   v100
        BYTE   W12
        BYTE           N04     Cn4
        BYTE   W06
        BYTE           N10     Ds4
        BYTE   W12
        BYTE           N04     Fn3
        BYTE   W06
// 032   ----------------------------------------
        BYTE   W06
        BYTE                   Fn3
        BYTE   W06
        BYTE                   Gs3
        BYTE   W12
        BYTE                   Fn3
        BYTE   W06
        BYTE                   Gs3
        BYTE   W06
        BYTE                   Cn4
        BYTE   W06
        BYTE           N16     Cs4
        BYTE   W06
// 033   ----------------------------------------
        BYTE   W48
// 034   ----------------------------------------
        BYTE   W48
// 035   ----------------------------------------
        BYTE   W48
// 036   ----------------------------------------
        BYTE   W48
// 037   ----------------------------------------
        BYTE   W48
// 038   ----------------------------------------
iceman0000_5_38:
        BYTE   W24
        BYTE           N24     As3   v100
        BYTE   W24
        BYTE   PEND
// 039   ----------------------------------------
        BYTE   W48
// 040   ----------------------------------------
        BYTE   W48
// 041   ----------------------------------------
        BYTE   W48
// 042   ----------------------------------------
        BYTE   PATT
         POIN2  iceman0000_5_38
// 043   ----------------------------------------
        BYTE   W48
// 044   ----------------------------------------
        BYTE   W48
// 045   ----------------------------------------
        BYTE   W48
// 046   ----------------------------------------
        BYTE   PATT
         POIN2  iceman0000_5_38
// 047   ----------------------------------------
        BYTE   W48
// 048   ----------------------------------------
        BYTE   W48
// 049   ----------------------------------------
        BYTE   W48
// 050   ----------------------------------------
        BYTE   W48
// 051   ----------------------------------------
        BYTE   W48
// 052   ----------------------------------------
        BYTE   W48
// 053   ----------------------------------------
        BYTE   W48
// 054   ----------------------------------------
        BYTE   W48
// 055   ----------------------------------------
        BYTE   W48
// 056   ----------------------------------------
        BYTE   W48
// 057   ----------------------------------------
        BYTE   W48
// 058   ----------------------------------------
        BYTE   W48
// 059   ----------------------------------------
        BYTE   W48
// 060   ----------------------------------------
        BYTE   W48
// 061   ----------------------------------------
        BYTE   W48
// 062   ----------------------------------------
        BYTE   W48
// 063   ----------------------------------------
        BYTE   W48
// 064   ----------------------------------------
        BYTE   W48
// 065   ----------------------------------------
        BYTE   W48
// 066   ----------------------------------------
        BYTE   W48
// 067   ----------------------------------------
        BYTE   W48
// 068   ----------------------------------------
        BYTE   W48
// 069   ----------------------------------------
        BYTE   W48
// 070   ----------------------------------------
        BYTE   W48
// 071   ----------------------------------------
        BYTE   W48
// 072   ----------------------------------------
        BYTE   W48
// 073   ----------------------------------------
        BYTE   W48
// 074   ----------------------------------------
        BYTE   W48
// 075   ----------------------------------------
        BYTE   W48
// 076   ----------------------------------------
        BYTE   W48
// 077   ----------------------------------------
        BYTE   W48
// 078   ----------------------------------------
        BYTE   W48
// 079   ----------------------------------------
        BYTE   W48
// 080   ----------------------------------------
        BYTE   W48
// 081   ----------------------------------------
        BYTE   W48
// 082   ----------------------------------------
        BYTE   W48
// 083   ----------------------------------------
        BYTE   W48
// 084   ----------------------------------------
        BYTE   W48
// 085   ----------------------------------------
        BYTE   W48
// 086   ----------------------------------------
        BYTE   W48
// 087   ----------------------------------------
        BYTE   W48
// 088   ----------------------------------------
        BYTE   W48
// 089   ----------------------------------------
        BYTE   W48
// 090   ----------------------------------------
        BYTE   W48
// 091   ----------------------------------------
        BYTE   W48
// 092   ----------------------------------------
        BYTE   W48
// 093   ----------------------------------------
        BYTE   W48
// 094   ----------------------------------------
        BYTE   W48
// 095   ----------------------------------------
        BYTE   W48
// 096   ----------------------------------------
        BYTE   W48
// 097   ----------------------------------------
        BYTE   W48
// 098   ----------------------------------------
        BYTE   W48
// 099   ----------------------------------------
        BYTE   W48
// 100   ----------------------------------------
        BYTE   W48
// 101   ----------------------------------------
        BYTE   W48
// 102   ----------------------------------------
        BYTE   W48
// 103   ----------------------------------------
        BYTE   W48
// 104   ----------------------------------------
        BYTE   W36
        BYTE           N12     As3   v100
        BYTE   W07
        BYTE   GoTo
         POIN2  iceman0000_5_LOOP
        BYTE   W05
// 105   ----------------------------------------
        BYTE   FINE

//****************** Track 6 (Midi-Chn.8) ******************//

iceman0000_6:
        BYTE   KEYSH   iceman0000_key+0
// 000   ----------------------------------------
        BYTE           VOICE   34
        BYTE           VOL     28
        BYTE   W48
// 001   ----------------------------------------
        BYTE           N92     Cn2   v100   gtp2
        BYTE   W48
// 002   ----------------------------------------
        BYTE   W48
// 003   ----------------------------------------
        BYTE   W48
// 004   ----------------------------------------
        BYTE   W48
// 005   ----------------------------------------
        BYTE   W48
// 006   ----------------------------------------
        BYTE   W48
// 007   ----------------------------------------
        BYTE   W48
// 008   ----------------------------------------
        BYTE   W48
// 009   ----------------------------------------
        BYTE   W48
// 010   ----------------------------------------
        BYTE   W48
// 011   ----------------------------------------
        BYTE   W48
// 012   ----------------------------------------
        BYTE   W48
// 013   ----------------------------------------
        BYTE   W48
// 014   ----------------------------------------
        BYTE   W48
// 015   ----------------------------------------
        BYTE   W48
// 016   ----------------------------------------
        BYTE   W48
// 017   ----------------------------------------
iceman0000_6_17:
        BYTE           N06     Cn2   v110
        BYTE   W12
        BYTE                   As1
        BYTE   W12
        BYTE           N10     Cn2   v100
        BYTE   W19
        BYTE           N16
        BYTE   W05
        BYTE   PEND
// 018   ----------------------------------------
iceman0000_6_18:
        BYTE   W12
        BYTE           N10     Gn2   v100
        BYTE   W12
        BYTE           N16     Cn2
        BYTE   W24
        BYTE   PEND
// 019   ----------------------------------------
        BYTE   PATT
         POIN2  iceman0000_6_17
// 020   ----------------------------------------
        BYTE   W12
        BYTE           N10     Gn2   v100
        BYTE   W12
        BYTE           N16     Cn2
        BYTE   W19
iceman0000_6_LOOP:
        BYTE   W05
// 021   ----------------------------------------
iceman0000_6_21:
        BYTE           N06     Gs1   v110
        BYTE   W12
        BYTE                   Gn1
        BYTE   W12
        BYTE           N10     Gs1   v100
        BYTE   W19
        BYTE           N16
        BYTE   W05
        BYTE   PEND
// 022   ----------------------------------------
iceman0000_6_22:
        BYTE   W12
        BYTE           N10     Ds2   v100
        BYTE   W12
        BYTE           N16     Gs1
        BYTE   W24
        BYTE   PEND
// 023   ----------------------------------------
        BYTE   PATT
         POIN2  iceman0000_6_21
// 024   ----------------------------------------
        BYTE   PATT
         POIN2  iceman0000_6_22
// 025   ----------------------------------------
iceman0000_6_25:
        BYTE           N06     Fn1   v110
        BYTE   W12
        BYTE                   Ds1
        BYTE   W12
        BYTE           N10     Fn1   v100
        BYTE   W19
        BYTE           N16
        BYTE   W05
        BYTE   PEND
// 026   ----------------------------------------
iceman0000_6_26:
        BYTE   W12
        BYTE           N10     Cn2   v100
        BYTE   W12
        BYTE           N16     Fn1
        BYTE   W24
        BYTE   PEND
// 027   ----------------------------------------
        BYTE   PATT
         POIN2  iceman0000_6_25
// 028   ----------------------------------------
        BYTE   PATT
         POIN2  iceman0000_6_26
// 029   ----------------------------------------
iceman0000_6_29:
        BYTE           N06     Dn2   v110
        BYTE   W12
        BYTE                   Cn2
        BYTE   W12
        BYTE           N10     Dn2   v100
        BYTE   W19
        BYTE           N16
        BYTE   W05
        BYTE   PEND
// 030   ----------------------------------------
iceman0000_6_30:
        BYTE   W12
        BYTE           N10     Gs1   v100
        BYTE   W12
        BYTE           N16     Dn2
        BYTE   W24
        BYTE   PEND
// 031   ----------------------------------------
iceman0000_6_31:
        BYTE           N06     Gn1   v110
        BYTE   W12
        BYTE                   Fn1
        BYTE   W12
        BYTE           N10     Gn1   v100
        BYTE   W19
        BYTE           N16
        BYTE   W05
        BYTE   PEND
// 032   ----------------------------------------
iceman0000_6_32:
        BYTE   W12
        BYTE           N10     Dn2   v100
        BYTE   W12
        BYTE           N16     Gn1
        BYTE   W24
        BYTE   PEND
// 033   ----------------------------------------
        BYTE   W48
// 034   ----------------------------------------
        BYTE   W48
// 035   ----------------------------------------
        BYTE   PATT
         POIN2  iceman0000_6_17
// 036   ----------------------------------------
        BYTE   PATT
         POIN2  iceman0000_6_18
// 037   ----------------------------------------
        BYTE   PATT
         POIN2  iceman0000_6_17
// 038   ----------------------------------------
        BYTE   PATT
         POIN2  iceman0000_6_18
// 039   ----------------------------------------
        BYTE   PATT
         POIN2  iceman0000_6_21
// 040   ----------------------------------------
        BYTE   PATT
         POIN2  iceman0000_6_22
// 041   ----------------------------------------
        BYTE   PATT
         POIN2  iceman0000_6_21
// 042   ----------------------------------------
        BYTE   PATT
         POIN2  iceman0000_6_22
// 043   ----------------------------------------
        BYTE   PATT
         POIN2  iceman0000_6_25
// 044   ----------------------------------------
        BYTE   PATT
         POIN2  iceman0000_6_26
// 045   ----------------------------------------
        BYTE   PATT
         POIN2  iceman0000_6_25
// 046   ----------------------------------------
        BYTE   PATT
         POIN2  iceman0000_6_26
// 047   ----------------------------------------
        BYTE   PATT
         POIN2  iceman0000_6_31
// 048   ----------------------------------------
        BYTE   PATT
         POIN2  iceman0000_6_32
// 049   ----------------------------------------
        BYTE   PATT
         POIN2  iceman0000_6_31
// 050   ----------------------------------------
        BYTE   PATT
         POIN2  iceman0000_6_32
// 051   ----------------------------------------
        BYTE   PATT
         POIN2  iceman0000_6_21
// 052   ----------------------------------------
        BYTE   PATT
         POIN2  iceman0000_6_22
// 053   ----------------------------------------
iceman0000_6_53:
        BYTE           N06     As1   v110
        BYTE   W12
        BYTE                   Gs1
        BYTE   W12
        BYTE           N10     As1   v100
        BYTE   W19
        BYTE           N16
        BYTE   W05
        BYTE   PEND
// 054   ----------------------------------------
iceman0000_6_54:
        BYTE   W12
        BYTE           N10     Fn2   v100
        BYTE   W12
        BYTE           N16     As1
        BYTE   W24
        BYTE   PEND
// 055   ----------------------------------------
        BYTE   PATT
         POIN2  iceman0000_6_31
// 056   ----------------------------------------
        BYTE   PATT
         POIN2  iceman0000_6_32
// 057   ----------------------------------------
        BYTE   PATT
         POIN2  iceman0000_6_17
// 058   ----------------------------------------
        BYTE   PATT
         POIN2  iceman0000_6_18
// 059   ----------------------------------------
        BYTE   PATT
         POIN2  iceman0000_6_21
// 060   ----------------------------------------
        BYTE   PATT
         POIN2  iceman0000_6_22
// 061   ----------------------------------------
        BYTE   PATT
         POIN2  iceman0000_6_53
// 062   ----------------------------------------
        BYTE   PATT
         POIN2  iceman0000_6_54
// 063   ----------------------------------------
        BYTE   PATT
         POIN2  iceman0000_6_29
// 064   ----------------------------------------
        BYTE   PATT
         POIN2  iceman0000_6_30
// 065   ----------------------------------------
        BYTE           N06     Gn1   v110
        BYTE   W12
        BYTE                   Gn1
        BYTE   W12
        BYTE                   Gn1
        BYTE   W12
        BYTE                   Gn1
        BYTE   W07
        BYTE           N04
        BYTE   W05
// 066   ----------------------------------------
        BYTE   W36
        BYTE           N10     Gn1   v100
        BYTE   W12
// 067   ----------------------------------------
        BYTE   PATT
         POIN2  iceman0000_6_17
// 068   ----------------------------------------
        BYTE   PATT
         POIN2  iceman0000_6_18
// 069   ----------------------------------------
iceman0000_6_69:
        BYTE           N06     Ds1   v110
        BYTE   W12
        BYTE                   Cs1
        BYTE   W12
        BYTE           N10     Ds1   v100
        BYTE   W19
        BYTE           N16
        BYTE   W05
        BYTE   PEND
// 070   ----------------------------------------
iceman0000_6_70:
        BYTE   W12
        BYTE           N10     As1   v100
        BYTE   W12
        BYTE           N16     Ds1
        BYTE   W24
        BYTE   PEND
// 071   ----------------------------------------
        BYTE   PATT
         POIN2  iceman0000_6_21
// 072   ----------------------------------------
        BYTE   PATT
         POIN2  iceman0000_6_22
// 073   ----------------------------------------
iceman0000_6_73:
        BYTE           N06     Dn2   v110
        BYTE   W12
        BYTE                   Cn2
        BYTE   W12
        BYTE           N10     Dn2   v100
        BYTE   W19
        BYTE           N16     Gn1
        BYTE   W05
        BYTE   PEND
// 074   ----------------------------------------
iceman0000_6_74:
        BYTE   W12
        BYTE           N10     Dn2   v100
        BYTE   W12
        BYTE                   Gn1
        BYTE   W12
        BYTE                   Dn1
        BYTE   W12
        BYTE   PEND
// 075   ----------------------------------------
        BYTE   PATT
         POIN2  iceman0000_6_17
// 076   ----------------------------------------
        BYTE   PATT
         POIN2  iceman0000_6_18
// 077   ----------------------------------------
        BYTE   PATT
         POIN2  iceman0000_6_69
// 078   ----------------------------------------
        BYTE   PATT
         POIN2  iceman0000_6_70
// 079   ----------------------------------------
iceman0000_6_79:
        BYTE           N06     Fn1   v110
        BYTE   W12
        BYTE                   Ds1
        BYTE   W12
        BYTE           N10     Fn1   v100
        BYTE   W19
        BYTE           N16     Gn1
        BYTE   W05
        BYTE   PEND
// 080   ----------------------------------------
        BYTE   PATT
         POIN2  iceman0000_6_74
// 081   ----------------------------------------
        BYTE           N10     Cn1   v100
        BYTE   W12
        BYTE                   Ds1
        BYTE   W12
        BYTE                   Gn1
        BYTE   W12
        BYTE                   As1
        BYTE   W12
// 082   ----------------------------------------
        BYTE           N44     An1   v100   gtp2
        BYTE   W48
// 083   ----------------------------------------
        BYTE   PATT
         POIN2  iceman0000_6_17
// 084   ----------------------------------------
        BYTE   PATT
         POIN2  iceman0000_6_18
// 085   ----------------------------------------
        BYTE   PATT
         POIN2  iceman0000_6_69
// 086   ----------------------------------------
        BYTE   PATT
         POIN2  iceman0000_6_70
// 087   ----------------------------------------
        BYTE   PATT
         POIN2  iceman0000_6_21
// 088   ----------------------------------------
        BYTE   PATT
         POIN2  iceman0000_6_22
// 089   ----------------------------------------
        BYTE   PATT
         POIN2  iceman0000_6_73
// 090   ----------------------------------------
        BYTE   PATT
         POIN2  iceman0000_6_74
// 091   ----------------------------------------
        BYTE   PATT
         POIN2  iceman0000_6_17
// 092   ----------------------------------------
        BYTE   PATT
         POIN2  iceman0000_6_18
// 093   ----------------------------------------
        BYTE   PATT
         POIN2  iceman0000_6_69
// 094   ----------------------------------------
        BYTE   PATT
         POIN2  iceman0000_6_70
// 095   ----------------------------------------
        BYTE   PATT
         POIN2  iceman0000_6_79
// 096   ----------------------------------------
        BYTE   PATT
         POIN2  iceman0000_6_74
// 097   ----------------------------------------
        BYTE           N06     Gs1   v110
        BYTE   W12
        BYTE                   Fs1
        BYTE   W12
        BYTE           N10     Gs1   v100
        BYTE   W19
        BYTE           N16
        BYTE   W05
// 098   ----------------------------------------
        BYTE   PATT
         POIN2  iceman0000_6_22
// 099   ----------------------------------------
        BYTE           N06     Fn1   v100
        BYTE   W12
        BYTE                   Ds1
        BYTE   W12
        BYTE           N10     Fn1   v090
        BYTE   W19
        BYTE           N16     Gn1
        BYTE   W05
// 100   ----------------------------------------
        BYTE   W12
        BYTE           N10     Dn2
        BYTE   W12
        BYTE                   Gn1
        BYTE   W12
        BYTE                   Dn1
        BYTE   W12
// 101   ----------------------------------------
        BYTE   PATT
         POIN2  iceman0000_6_17
// 102   ----------------------------------------
        BYTE   PATT
         POIN2  iceman0000_6_18
// 103   ----------------------------------------
        BYTE   PATT
         POIN2  iceman0000_6_17
// 104   ----------------------------------------
        BYTE   W12
        BYTE           N10     Gn2   v100
        BYTE   W12
        BYTE           N16     Cn2
        BYTE   W19
        BYTE   GoTo
         POIN2  iceman0000_6_LOOP
        BYTE   W05
// 105   ----------------------------------------
        BYTE   FINE

//***************** Track 7 (Midi-Chn.10) ******************//

iceman0000_7:
        BYTE   KEYSH   iceman0000_key+0
// 000   ----------------------------------------
        BYTE           VOICE   122
        BYTE           VOL     31
        BYTE   W48
// 001   ----------------------------------------
iceman0000_7_1:
        BYTE           N24     Cn1   v090   gtp2
        BYTE   W06
        BYTE           N05     Fs1   v070
        BYTE   W06
        BYTE           N14     Dn1   v050
        BYTE   W06
        BYTE           N05     Fs1   v070
        BYTE   W06
        BYTE           N11     En1   v060
        BYTE   W06
        BYTE           N14     Dn1   v050
        BYTE   W12
        BYTE           N05     Fs1   v070
        BYTE   W06
        BYTE   PEND
// 002   ----------------------------------------
iceman0000_7_2:
        BYTE           N14     Dn1   v050
        BYTE   W06
        BYTE           N05     Fs1   v070
        BYTE   W06
        BYTE           N22     As1   v065
        BYTE   W06
        BYTE           N14     Ds1   v050
        BYTE   W06
        BYTE           N11     En1   v060
        BYTE   W06
        BYTE           N14     Dn1   v050
        BYTE   W06
        BYTE           N05     Fs1   v070
        BYTE   W06
        BYTE                   Gn1
        BYTE   W06
        BYTE   PEND
// 003   ----------------------------------------
iceman0000_7_3:
        BYTE           N05     Fs1   v070
        BYTE   W06
        BYTE           N14     Dn1   v050
        BYTE   W06
        BYTE           N22     As1   v065
        BYTE   W06
        BYTE           N11     En1   v060
        BYTE   W06
        BYTE           N14     Dn1   v050
        BYTE   W06
        BYTE           N11     Fn1   v060
        BYTE   W06
        BYTE           N05     Fs1   v070
        BYTE   W06
        BYTE           N14     Dn1   v050
        BYTE   W06
        BYTE   PEND
// 004   ----------------------------------------
iceman0000_7_4:
        BYTE           N05     As1   v065
        BYTE   W06
        BYTE                   Fs1   v070
        BYTE   W06
        BYTE           N14     Dn1   v050
        BYTE   W06
        BYTE           N05     Fs1   v070
        BYTE   W06
        BYTE           N11     En1   v060
        BYTE   W06
        BYTE           N14     Dn1   v050
        BYTE   W06
        BYTE                   Cs1   v090
        BYTE           N05     Fs1   v070
        BYTE   W06
        BYTE                   Gn1
        BYTE   W06
        BYTE   PEND
// 005   ----------------------------------------
        BYTE   PATT
         POIN2  iceman0000_7_1
// 006   ----------------------------------------
        BYTE   PATT
         POIN2  iceman0000_7_2
// 007   ----------------------------------------
        BYTE   PATT
         POIN2  iceman0000_7_3
// 008   ----------------------------------------
        BYTE   PATT
         POIN2  iceman0000_7_4
// 009   ----------------------------------------
        BYTE   PATT
         POIN2  iceman0000_7_1
// 010   ----------------------------------------
        BYTE           N24     Cn1   v090   gtp2
        BYTE           N14     Dn1   v050
        BYTE   W06
        BYTE           N05     Fs1   v070
        BYTE   W06
        BYTE           N22     As1   v065
        BYTE   W06
        BYTE           N14     Ds1   v050
        BYTE   W06
        BYTE           N11     En1   v060
        BYTE   W06
        BYTE           N14     Dn1   v050
        BYTE   W06
        BYTE           N05     Fs1   v070
        BYTE   W06
        BYTE                   Gn1
        BYTE   W06
// 011   ----------------------------------------
        BYTE           N24     Cn1   v090   gtp2
        BYTE           N05     Fs1   v070
        BYTE   W06
        BYTE           N14     Dn1   v050
        BYTE   W06
        BYTE           N22     As1   v065
        BYTE   W06
        BYTE           N11     En1   v060
        BYTE   W06
        BYTE           N14     Dn1   v050
        BYTE   W06
        BYTE           N11     Fn1   v060
        BYTE   W06
        BYTE           N05     Fs1   v070
        BYTE   W06
        BYTE           N14     Dn1   v050
        BYTE   W06
// 012   ----------------------------------------
        BYTE           N24     Cn1   v090   gtp2
        BYTE           N05     As1   v065
        BYTE   W06
        BYTE                   Fs1   v070
        BYTE   W06
        BYTE           N14     Dn1   v050
        BYTE   W06
        BYTE           N05     Fs1   v070
        BYTE   W06
        BYTE           N11     En1   v060
        BYTE   W06
        BYTE           N14     Dn1   v050
        BYTE   W06
        BYTE           N05     Fs1   v070
        BYTE   W06
        BYTE                   Gn1
        BYTE   W06
// 013   ----------------------------------------
        BYTE           N24     Cn1   v090   gtp2
        BYTE   W06
        BYTE           N05     Fs1   v070
        BYTE   W06
        BYTE           N14     Dn1   v050
        BYTE   W06
        BYTE           N05     Fs1   v070
        BYTE   W06
        BYTE           N24     Cs1   v090   gtp2
        BYTE           N11     En1   v060
        BYTE   W06
        BYTE           N14     Dn1   v050
        BYTE   W12
        BYTE           N05     Fs1   v070
        BYTE   W06
// 014   ----------------------------------------
        BYTE           N24     Cn1   v090   gtp2
        BYTE           N14     Dn1   v050
        BYTE   W06
        BYTE           N05     Fs1   v070
        BYTE   W06
        BYTE           N22     As1   v065
        BYTE   W06
        BYTE           N14     Ds1   v050
        BYTE   W06
        BYTE           N24     Cs1   v090   gtp2
        BYTE           N11     En1   v060
        BYTE   W06
        BYTE           N14     Dn1   v050
        BYTE   W06
        BYTE           N05     Fs1   v070
        BYTE   W06
        BYTE                   Gn1
        BYTE   W06
// 015   ----------------------------------------
        BYTE           N24     Cn1   v090   gtp2
        BYTE           N05     Fs1   v070
        BYTE   W06
        BYTE           N14     Dn1
        BYTE   W06
        BYTE           N22     As1   v065
        BYTE   W06
        BYTE           N11     En1   v080
        BYTE   W06
        BYTE           N14     Dn1   v070
        BYTE   W06
        BYTE           N11     Fn1   v080
        BYTE   W06
        BYTE           N05     Fs1   v070
        BYTE   W06
        BYTE           N14     Dn1
        BYTE   W06
// 016   ----------------------------------------
        BYTE           N05     As1   v065
        BYTE   W06
        BYTE                   Fs1   v070
        BYTE   W06
        BYTE           N14     Dn1
        BYTE   W06
        BYTE           N05     Fs1
        BYTE   W06
        BYTE           N11     En1   v080
        BYTE   W06
        BYTE           N14     Dn1   v070
        BYTE   W06
        BYTE                   Cs1   v090
        BYTE           N05     Fs1   v070
        BYTE   W12
// 017   ----------------------------------------
iceman0000_7_17:
        BYTE           N24     Cn1   v090   gtp2
        BYTE   W06
        BYTE           N05     Fs1   v070
        BYTE   W06
        BYTE           N14     Dn1
        BYTE   W06
        BYTE           N05     Fs1
        BYTE   W06
        BYTE           N17     As1   v065
        BYTE   W06
        BYTE           N14     Dn1   v070
        BYTE   W06
        BYTE           N24     Cn1   v090   gtp2
        BYTE   W06
        BYTE           N05     Fs1   v070
        BYTE   W06
        BYTE   PEND
// 018   ----------------------------------------
iceman0000_7_18:
        BYTE           N14     Dn1   v070
        BYTE   W06
        BYTE           N05     Fs1
        BYTE   W06
        BYTE           N10     As1   v065
        BYTE   W06
        BYTE           N14     Dn1   v070
        BYTE   W06
        BYTE           N24     Cn1   v090   gtp2
        BYTE           N05     Fs1   v070
        BYTE   W06
        BYTE           N14     Ds1
        BYTE   W06
        BYTE           N05     Fs1
        BYTE   W06
        BYTE                   Gn1
        BYTE   W06
        BYTE   PEND
// 019   ----------------------------------------
iceman0000_7_19:
        BYTE           N05     Fs1   v070
        BYTE   W06
        BYTE           N14     Dn1
        BYTE   W06
        BYTE           N24     Cn1   v090   gtp2
        BYTE           N17     As1   v065
        BYTE   W12
        BYTE           N14     Dn1   v070
        BYTE   W06
        BYTE           N05     Fs1
        BYTE   W06
        BYTE                   Gn1
        BYTE   W06
        BYTE           N14     Dn1
        BYTE   W06
        BYTE   PEND
// 020   ----------------------------------------
        BYTE           N05     As1   v065
        BYTE   W06
        BYTE                   Fs1   v070
        BYTE   W06
        BYTE           N24     Cn1   v090   gtp2
        BYTE           N14     Dn1   v070
        BYTE   W06
        BYTE           N05     Fs1
        BYTE   W06
        BYTE           N10     As1   v065
        BYTE   W06
        BYTE           N14     Dn1   v070
        BYTE   W06
        BYTE                   Cs1   v090
        BYTE           N05     Fs1   v070
        BYTE   W06
        BYTE                   Gn1
        BYTE   W01
iceman0000_7_LOOP:
        BYTE   W05
// 021   ----------------------------------------
        BYTE   PATT
         POIN2  iceman0000_7_17
// 022   ----------------------------------------
        BYTE   PATT
         POIN2  iceman0000_7_18
// 023   ----------------------------------------
        BYTE   PATT
         POIN2  iceman0000_7_19
// 024   ----------------------------------------
iceman0000_7_24:
        BYTE           N05     As1   v065
        BYTE   W06
        BYTE                   Fs1   v070
        BYTE   W06
        BYTE           N24     Cn1   v090   gtp2
        BYTE           N14     Dn1   v070
        BYTE   W06
        BYTE           N05     Fs1
        BYTE   W06
        BYTE           N10     As1   v065
        BYTE   W06
        BYTE           N14     Dn1   v070
        BYTE   W06
        BYTE                   Cs1   v090
        BYTE           N05     Fs1   v070
        BYTE   W06
        BYTE                   Gn1
        BYTE   W06
        BYTE   PEND
// 025   ----------------------------------------
        BYTE   PATT
         POIN2  iceman0000_7_17
// 026   ----------------------------------------
        BYTE   PATT
         POIN2  iceman0000_7_18
// 027   ----------------------------------------
        BYTE   PATT
         POIN2  iceman0000_7_19
// 028   ----------------------------------------
        BYTE   PATT
         POIN2  iceman0000_7_24
// 029   ----------------------------------------
        BYTE   PATT
         POIN2  iceman0000_7_17
// 030   ----------------------------------------
        BYTE   PATT
         POIN2  iceman0000_7_18
// 031   ----------------------------------------
        BYTE   PATT
         POIN2  iceman0000_7_19
// 032   ----------------------------------------
        BYTE   PATT
         POIN2  iceman0000_7_24
// 033   ----------------------------------------
        BYTE           N11     Bn0   v100
        BYTE           N14     Cn1   v110
        BYTE           N05     Fs1   v090
        BYTE   W06
        BYTE           N11     En1   v080
        BYTE   W06
        BYTE                   Bn0
        BYTE           N24     Cs1   v080   gtp2
        BYTE           N05     Fs1   v070
        BYTE   W12
        BYTE           N11     En1   v100
        BYTE           N05     Fs1   v090
        BYTE   W12
        BYTE                   Fs1   v070
        BYTE   W06
        BYTE           N11     En1   v080
        BYTE   W06
// 034   ----------------------------------------
        BYTE                   Bn0   v100
        BYTE           N14     Cn1
        BYTE           N05     Fs1   v090
        BYTE   W06
        BYTE           N11     Fn1   v080
        BYTE   W06
        BYTE                   Bn0
        BYTE           N24     Cs1   v080   gtp2
        BYTE           N05     Fs1   v070
        BYTE   W12
        BYTE           N11     En1   v100
        BYTE           N05     Fs1   v090
        BYTE   W12
        BYTE           N11     Bn0   v080
        BYTE           N14     Cn1   v100
        BYTE           N05     Fs1   v070
        BYTE   W06
        BYTE           N11     En1   v080
        BYTE   W06
// 035   ----------------------------------------
        BYTE           N24     Cs1   v090   gtp2
        BYTE           N05     Fs1   v070
        BYTE   W06
        BYTE                   Gn1
        BYTE   W06
        BYTE           N14     Dn1
        BYTE   W06
        BYTE           N05     As1   v065
        BYTE   W06
        BYTE                   Fs1   v070
        BYTE   W06
        BYTE           N14     Dn1   v060
        BYTE   W06
        BYTE           N05     Fs1   v070
        BYTE   W06
        BYTE                   Gn1
        BYTE   W06
// 036   ----------------------------------------
iceman0000_7_36:
        BYTE           N14     Dn1   v070
        BYTE   W06
        BYTE           N04     As1   v065
        BYTE   W06
        BYTE           N05     Fs1   v070
        BYTE   W06
        BYTE           N14     Dn1
        BYTE           N05     Gn1
        BYTE   W06
        BYTE                   Fs1
        BYTE   W06
        BYTE                   Gn1
        BYTE   W06
        BYTE           N14     Cs1   v090
        BYTE           N14     Dn1   v070
        BYTE   W06
        BYTE           N05     Fs1
        BYTE   W06
        BYTE   PEND
// 037   ----------------------------------------
        BYTE   PATT
         POIN2  iceman0000_7_17
// 038   ----------------------------------------
iceman0000_7_38:
        BYTE           N14     Dn1   v070
        BYTE   W06
        BYTE           N05     Fs1
        BYTE   W06
        BYTE           N10     As1   v065
        BYTE   W06
        BYTE           N14     Dn1   v070
        BYTE   W06
        BYTE           N24     Cs1   v090   gtp2
        BYTE           N05     Fs1   v070
        BYTE   W06
        BYTE           N14     Ds1
        BYTE   W06
        BYTE           N05     Fs1
        BYTE   W06
        BYTE                   Gn1
        BYTE   W06
        BYTE   PEND
// 039   ----------------------------------------
iceman0000_7_39:
        BYTE           N24     Cn1   v090   gtp2
        BYTE           N05     Fs1   v070
        BYTE   W06
        BYTE                   Gn1
        BYTE   W06
        BYTE           N14     Dn1
        BYTE   W06
        BYTE           N05     As1   v065
        BYTE   W06
        BYTE                   Fs1   v070
        BYTE   W06
        BYTE           N14     Dn1   v060
        BYTE   W06
        BYTE           N05     Fs1   v070
        BYTE   W06
        BYTE                   Gn1
        BYTE   W06
        BYTE   PEND
// 040   ----------------------------------------
        BYTE   PATT
         POIN2  iceman0000_7_36
// 041   ----------------------------------------
        BYTE   PATT
         POIN2  iceman0000_7_17
// 042   ----------------------------------------
        BYTE   PATT
         POIN2  iceman0000_7_38
// 043   ----------------------------------------
        BYTE   PATT
         POIN2  iceman0000_7_39
// 044   ----------------------------------------
        BYTE   PATT
         POIN2  iceman0000_7_36
// 045   ----------------------------------------
        BYTE   PATT
         POIN2  iceman0000_7_17
// 046   ----------------------------------------
        BYTE   PATT
         POIN2  iceman0000_7_38
// 047   ----------------------------------------
        BYTE   PATT
         POIN2  iceman0000_7_39
// 048   ----------------------------------------
        BYTE   PATT
         POIN2  iceman0000_7_36
// 049   ----------------------------------------
        BYTE   PATT
         POIN2  iceman0000_7_17
// 050   ----------------------------------------
iceman0000_7_50:
        BYTE           N14     Dn1   v070
        BYTE   W06
        BYTE           N05     Fs1
        BYTE   W06
        BYTE           N10     As1   v065
        BYTE   W06
        BYTE           N14     Dn1   v070
        BYTE   W06
        BYTE           N20     Cs1   v090
        BYTE           N05     Fs1   v070
        BYTE   W06
        BYTE           N14     Ds1
        BYTE   W06
        BYTE           N05     Fs1
        BYTE   W06
        BYTE                   Gn1
        BYTE   W06
        BYTE   PEND
// 051   ----------------------------------------
        BYTE   PATT
         POIN2  iceman0000_7_39
// 052   ----------------------------------------
        BYTE   PATT
         POIN2  iceman0000_7_36
// 053   ----------------------------------------
        BYTE   PATT
         POIN2  iceman0000_7_17
// 054   ----------------------------------------
        BYTE   PATT
         POIN2  iceman0000_7_38
// 055   ----------------------------------------
        BYTE   PATT
         POIN2  iceman0000_7_39
// 056   ----------------------------------------
        BYTE   PATT
         POIN2  iceman0000_7_36
// 057   ----------------------------------------
        BYTE   PATT
         POIN2  iceman0000_7_17
// 058   ----------------------------------------
        BYTE   PATT
         POIN2  iceman0000_7_38
// 059   ----------------------------------------
        BYTE   PATT
         POIN2  iceman0000_7_39
// 060   ----------------------------------------
        BYTE   PATT
         POIN2  iceman0000_7_36
// 061   ----------------------------------------
        BYTE   PATT
         POIN2  iceman0000_7_17
// 062   ----------------------------------------
        BYTE   PATT
         POIN2  iceman0000_7_38
// 063   ----------------------------------------
        BYTE   PATT
         POIN2  iceman0000_7_39
// 064   ----------------------------------------
        BYTE           N14     Dn1   v070
        BYTE   W06
        BYTE           N04     As1   v065
        BYTE   W06
        BYTE           N05     Fs1   v070
        BYTE   W06
        BYTE           N14     Dn1
        BYTE           N05     Gn1
        BYTE   W06
        BYTE                   Fs1
        BYTE   W06
        BYTE                   Gn1
        BYTE   W06
        BYTE           N14     Cs1   v090
        BYTE           N09     Dn1   v070
        BYTE   W06
        BYTE           N05     Fs1
        BYTE   W06
// 065   ----------------------------------------
        BYTE           N08     Ds0   v085
        BYTE           N24     Cn1   v090   gtp2
        BYTE   W06
        BYTE           N05     Fs1   v070
        BYTE   W01
        BYTE           N08     Dn0   v080
        BYTE   W05
        BYTE                   Ds0   v085
        BYTE   W06
        BYTE           N05     Fs1   v070
        BYTE   W01
        BYTE           N08     Dn0   v080
        BYTE   W05
        BYTE                   Ds0   v085
        BYTE           N17     As1   v065
        BYTE   W07
        BYTE           N08     Dn0   v080
        BYTE   W05
        BYTE                   Ds0   v085
        BYTE           N24     Cn1   v090   gtp2
        BYTE   W06
        BYTE           N05     Fs1   v070
        BYTE   W01
        BYTE           N08     Dn0   v075
        BYTE   W05
// 066   ----------------------------------------
        BYTE   W06
        BYTE           N05     Fs1   v070
        BYTE   W06
        BYTE           N10     As1   v065
        BYTE   W06
        BYTE           N14     Dn1
        BYTE   W06
        BYTE           N20     Cs1   v090
        BYTE           N05     Fs1   v070
        BYTE   W06
        BYTE           N14     Ds1   v065
        BYTE   W06
        BYTE           N05     Fs1   v070
        BYTE   W06
        BYTE                   Gn1
        BYTE   W06
// 067   ----------------------------------------
        BYTE           N24     Cn1   v090   gtp2
        BYTE   W06
        BYTE           N05     Gn1   v070
        BYTE   W06
        BYTE           N14     Dn1
        BYTE   W06
        BYTE           N05     As1   v065
        BYTE   W06
        BYTE                   Fs1   v070
        BYTE   W06
        BYTE           N14     Dn1   v060
        BYTE   W06
        BYTE           N05     Fs1   v070
        BYTE   W06
        BYTE                   Gn1
        BYTE   W06
// 068   ----------------------------------------
        BYTE   PATT
         POIN2  iceman0000_7_36
// 069   ----------------------------------------
        BYTE   PATT
         POIN2  iceman0000_7_17
// 070   ----------------------------------------
        BYTE   PATT
         POIN2  iceman0000_7_38
// 071   ----------------------------------------
        BYTE   PATT
         POIN2  iceman0000_7_39
// 072   ----------------------------------------
        BYTE   PATT
         POIN2  iceman0000_7_36
// 073   ----------------------------------------
        BYTE   PATT
         POIN2  iceman0000_7_17
// 074   ----------------------------------------
iceman0000_7_74:
        BYTE           N14     Dn1   v070
        BYTE   W06
        BYTE           N05     Fs1
        BYTE   W06
        BYTE           N10     As1   v065
        BYTE   W06
        BYTE           N14     Dn1   v070
        BYTE   W06
        BYTE           N24     Cs1   v090   gtp2
        BYTE   W06
        BYTE           N14     Ds1   v070
        BYTE   W06
        BYTE           N05     Fs1
        BYTE   W06
        BYTE                   Gn1
        BYTE   W06
        BYTE   PEND
// 075   ----------------------------------------
        BYTE   PATT
         POIN2  iceman0000_7_39
// 076   ----------------------------------------
        BYTE   PATT
         POIN2  iceman0000_7_36
// 077   ----------------------------------------
        BYTE   PATT
         POIN2  iceman0000_7_17
// 078   ----------------------------------------
        BYTE   PATT
         POIN2  iceman0000_7_38
// 079   ----------------------------------------
        BYTE   PATT
         POIN2  iceman0000_7_39
// 080   ----------------------------------------
        BYTE   PATT
         POIN2  iceman0000_7_36
// 081   ----------------------------------------
        BYTE           N24     Cn1   v090   gtp2
        BYTE   W36
        BYTE                   Cn1
        BYTE   W12
// 082   ----------------------------------------
        BYTE   PATT
         POIN2  iceman0000_7_50
// 083   ----------------------------------------
        BYTE   PATT
         POIN2  iceman0000_7_39
// 084   ----------------------------------------
        BYTE   PATT
         POIN2  iceman0000_7_36
// 085   ----------------------------------------
        BYTE   PATT
         POIN2  iceman0000_7_17
// 086   ----------------------------------------
        BYTE   PATT
         POIN2  iceman0000_7_38
// 087   ----------------------------------------
        BYTE   PATT
         POIN2  iceman0000_7_39
// 088   ----------------------------------------
        BYTE   PATT
         POIN2  iceman0000_7_36
// 089   ----------------------------------------
        BYTE   PATT
         POIN2  iceman0000_7_17
// 090   ----------------------------------------
        BYTE   PATT
         POIN2  iceman0000_7_74
// 091   ----------------------------------------
        BYTE   PATT
         POIN2  iceman0000_7_39
// 092   ----------------------------------------
        BYTE   PATT
         POIN2  iceman0000_7_36
// 093   ----------------------------------------
        BYTE           N24     Cn1   v090   gtp2
        BYTE   W06
        BYTE           N05     Fs1   v070
        BYTE   W06
        BYTE           N10     Dn1
        BYTE   W06
        BYTE           N05     Fs1
        BYTE   W06
        BYTE           N17     As1   v065
        BYTE   W06
        BYTE           N14     Dn1   v070
        BYTE   W06
        BYTE           N24     Cn1   v090   gtp2
        BYTE   W06
        BYTE           N05     Fs1   v070
        BYTE   W06
// 094   ----------------------------------------
        BYTE   PATT
         POIN2  iceman0000_7_38
// 095   ----------------------------------------
        BYTE   PATT
         POIN2  iceman0000_7_39
// 096   ----------------------------------------
        BYTE   PATT
         POIN2  iceman0000_7_36
// 097   ----------------------------------------
        BYTE   PATT
         POIN2  iceman0000_7_17
// 098   ----------------------------------------
        BYTE   PATT
         POIN2  iceman0000_7_38
// 099   ----------------------------------------
        BYTE           N11     Bn0   v100
        BYTE           N14     Cn1
        BYTE           N05     Fs1   v090
        BYTE   W06
        BYTE           N11     En1   v080
        BYTE   W06
        BYTE                   Bn0
        BYTE           N24     Cs1   v080   gtp2
        BYTE           N05     Fs1   v070
        BYTE   W12
        BYTE           N11     En1   v105
        BYTE           N05     Fs1   v090
        BYTE   W12
        BYTE                   Fs1   v070
        BYTE   W06
        BYTE           N11     En1   v080
        BYTE   W06
// 100   ----------------------------------------
        BYTE                   Bn0   v100
        BYTE           N14     Cs1   v090
        BYTE           N05     Fs1
        BYTE   W06
        BYTE           N11     Fn1   v080
        BYTE   W06
        BYTE                   Bn0
        BYTE           N24     Cn1   v080   gtp2
        BYTE           N05     Fs1   v070
        BYTE   W12
        BYTE           N11     En1   v105
        BYTE           N05     Fs1   v090
        BYTE   W12
        BYTE           N11     Bn0   v080
        BYTE           N14     Cs1   v100
        BYTE           N05     Fs1   v070
        BYTE   W06
        BYTE           N11     En1   v080
        BYTE   W06
// 101   ----------------------------------------
        BYTE   PATT
         POIN2  iceman0000_7_17
// 102   ----------------------------------------
        BYTE   PATT
         POIN2  iceman0000_7_18
// 103   ----------------------------------------
        BYTE           N05     Fs1   v070
        BYTE   W06
        BYTE           N14     Dn1
        BYTE   W06
        BYTE           N24     Cn1   v090   gtp2
        BYTE           N17     As1   v065
        BYTE   W12
        BYTE           N14     Dn1   v070
        BYTE   W06
        BYTE           N05     Fs1
        BYTE   W06
        BYTE                   Gn1
        BYTE   W06
        BYTE           N08     Dn1
        BYTE   W06
// 104   ----------------------------------------
        BYTE   W06
        BYTE           N05     Fs1
        BYTE   W06
        BYTE           N24     Cn1   v090   gtp2
        BYTE           N14     Dn1   v070
        BYTE   W06
        BYTE           N05     Fs1
        BYTE   W06
        BYTE           N10     As1   v065
        BYTE   W06
        BYTE           N14     Dn1   v070
        BYTE   W06
        BYTE           N09     Cs1   v090
        BYTE           N05     Fs1   v070
        BYTE   W06
        BYTE                   Gn1
        BYTE   W01
        BYTE   GoTo
         POIN2  iceman0000_7_LOOP
        BYTE   W05
// 105   ----------------------------------------
        BYTE   FINE

//***************** Track 8 (Midi-Chn.12) ******************//

iceman0000_8:
        BYTE   KEYSH   iceman0000_key+0
// 000   ----------------------------------------
        BYTE           VOICE   46
        BYTE           VOL     22
        BYTE   W01
        BYTE           PAN     c_v+16
        BYTE   W44
        BYTE   W03
// 001   ----------------------------------------
        BYTE   W32
        BYTE   W03
        BYTE           N48     Gn2   v080
        BYTE   W01
        BYTE           N60     Cn3   v090
        BYTE   W12
// 002   ----------------------------------------
iceman0000_8_2:
        BYTE   W36
        BYTE           N12     Gn2   v090
        BYTE   W12
        BYTE   PEND
// 003   ----------------------------------------
        BYTE   W32
        BYTE   W03
        BYTE           N60     As2   v080
        BYTE   W01
        BYTE           N48     Dn3   v090
        BYTE   W12
// 004   ----------------------------------------
        BYTE   W36
        BYTE           N12
        BYTE   W12
// 005   ----------------------------------------
        BYTE   W24
        BYTE           N60     Fn2   v080
        BYTE   W11
        BYTE           N48     Gs2
        BYTE   W01
        BYTE                   Cn3   v090
        BYTE   W12
// 006   ----------------------------------------
        BYTE   W48
// 007   ----------------------------------------
        BYTE   W32
        BYTE   W03
        BYTE                   Gn2   v080
        BYTE   W01
        BYTE           N60     Dn3   v090
        BYTE   W12
// 008   ----------------------------------------
        BYTE   PATT
         POIN2  iceman0000_8_2
// 009   ----------------------------------------
        BYTE   W24
        BYTE           N72     Fn2   v080
        BYTE   W11
        BYTE           N48     Gs2
        BYTE   W01
        BYTE           N60     Cs3   v090
        BYTE   W12
// 010   ----------------------------------------
iceman0000_8_10:
        BYTE   W36
        BYTE           N12     Gs2   v090
        BYTE   W12
        BYTE   PEND
// 011   ----------------------------------------
        BYTE   W24
        BYTE           N72     Ds2   v080
        BYTE   W11
        BYTE           N48     Gs2
        BYTE   W01
        BYTE           N60     Cn3   v090
        BYTE   W12
// 012   ----------------------------------------
        BYTE   PATT
         POIN2  iceman0000_8_10
// 013   ----------------------------------------
        BYTE   W24
        BYTE           N72     Dn2   v080
        BYTE   W11
        BYTE           N48     Gn2
        BYTE   W01
        BYTE           N60     Cn3   v090
        BYTE   W12
// 014   ----------------------------------------
        BYTE   PATT
         POIN2  iceman0000_8_2
// 015   ----------------------------------------
        BYTE   W12
        BYTE           N60     Bn1   v080
        BYTE   W12
        BYTE           N72     Dn2
        BYTE   W11
        BYTE           N48     Gn2
        BYTE   W13
// 016   ----------------------------------------
        BYTE   W24
        BYTE           N24     Bn1   v090
        BYTE   W12
        BYTE           N12     Gn2
        BYTE   W12
// 017   ----------------------------------------
        BYTE   W48
// 018   ----------------------------------------
        BYTE   W48
// 019   ----------------------------------------
        BYTE   W48
// 020   ----------------------------------------
        BYTE   W42
        BYTE   W01
iceman0000_8_LOOP:
        BYTE   W05
// 021   ----------------------------------------
        BYTE   W48
// 022   ----------------------------------------
        BYTE   W48
// 023   ----------------------------------------
        BYTE   W48
// 024   ----------------------------------------
        BYTE   W48
// 025   ----------------------------------------
        BYTE   W48
// 026   ----------------------------------------
        BYTE   W48
// 027   ----------------------------------------
        BYTE   W48
// 028   ----------------------------------------
        BYTE   W48
// 029   ----------------------------------------
        BYTE   W48
// 030   ----------------------------------------
        BYTE   W48
// 031   ----------------------------------------
        BYTE   W48
// 032   ----------------------------------------
        BYTE   W48
// 033   ----------------------------------------
        BYTE   W48
// 034   ----------------------------------------
        BYTE   W48
// 035   ----------------------------------------
        BYTE   W48
// 036   ----------------------------------------
        BYTE   W48
// 037   ----------------------------------------
        BYTE   W48
// 038   ----------------------------------------
        BYTE   W48
// 039   ----------------------------------------
        BYTE   W48
// 040   ----------------------------------------
        BYTE   W48
// 041   ----------------------------------------
        BYTE   W48
// 042   ----------------------------------------
        BYTE   W48
// 043   ----------------------------------------
        BYTE   W48
// 044   ----------------------------------------
        BYTE   W48
// 045   ----------------------------------------
        BYTE   W48
// 046   ----------------------------------------
        BYTE   W48
// 047   ----------------------------------------
        BYTE   W48
// 048   ----------------------------------------
        BYTE   W48
// 049   ----------------------------------------
        BYTE   W48
// 050   ----------------------------------------
        BYTE   W48
// 051   ----------------------------------------
iceman0000_8_51:
        BYTE   W32
        BYTE   W03
        BYTE           N42     Gs2   v085
        BYTE   W01
        BYTE           N54     Cn3   v095
        BYTE   W12
        BYTE   PEND
// 052   ----------------------------------------
iceman0000_8_52:
        BYTE   W36
        BYTE           N12     Gs2   v095
        BYTE   W12
        BYTE   PEND
// 053   ----------------------------------------
iceman0000_8_53:
        BYTE   W24
        BYTE           N66     Fn2   v085
        BYTE   W11
        BYTE           N36     As2
        BYTE   W01
        BYTE           N30     Dn3   v095
        BYTE   W12
        BYTE   PEND
// 054   ----------------------------------------
        BYTE   W24
        BYTE           N06     Dn3   v115
        BYTE   W07
        BYTE           N12     As2   v085
        BYTE   W17
// 055   ----------------------------------------
        BYTE   W32
        BYTE   W03
        BYTE           N42     Gn2
        BYTE   W01
        BYTE           N30     Dn3
        BYTE   W12
// 056   ----------------------------------------
        BYTE   W24
        BYTE           N18
        BYTE   W12
        BYTE           N12     As2
        BYTE   W12
// 057   ----------------------------------------
        BYTE   W32
        BYTE   W03
        BYTE           N42     Gn2
        BYTE   W01
        BYTE           N36     Cn3   v095
        BYTE   W12
// 058   ----------------------------------------
        BYTE   W30
        BYTE   W01
        BYTE           N12
        BYTE   W05
        BYTE                   Gn2
        BYTE   W12
// 059   ----------------------------------------
        BYTE   PATT
         POIN2  iceman0000_8_51
// 060   ----------------------------------------
        BYTE   PATT
         POIN2  iceman0000_8_52
// 061   ----------------------------------------
        BYTE   PATT
         POIN2  iceman0000_8_53
// 062   ----------------------------------------
        BYTE   W24
        BYTE           N06     Dn3   v115
        BYTE   W07
        BYTE           N12     As2   v085
        BYTE   W05
        BYTE                   Dn2
        BYTE   W12
// 063   ----------------------------------------
        BYTE   W24
        BYTE           N30     Dn2   v095
        BYTE   W11
        BYTE                   Gs2   v085
        BYTE   W13
// 064   ----------------------------------------
        BYTE   W12
        BYTE                   Dn2   v095
        BYTE   W11
        BYTE           N18     Gs2   v085
        BYTE   W13
        BYTE           N10     Cn2
        BYTE   W12
// 065   ----------------------------------------
        BYTE           N03     Gn1   v110
        BYTE           N03     Bn1   v090
        BYTE           N03     Dn2
        BYTE   W12
        BYTE           N05     Bn1   v080
        BYTE           N05     Dn2
        BYTE           N05     Gn2
        BYTE   W12
        BYTE           N03     Bn1   v090
        BYTE           N03     Dn2
        BYTE           N03     Gn2
        BYTE   W12
        BYTE           N05     Gn1
        BYTE           N05     Bn1   v070
        BYTE           N05     Dn2
        BYTE   W07
        BYTE           N03     Bn1   v090
        BYTE           N03     Dn2
        BYTE           N03     Gn2
        BYTE   W05
// 066   ----------------------------------------
        BYTE   W48
// 067   ----------------------------------------
        BYTE   W48
// 068   ----------------------------------------
        BYTE   W48
// 069   ----------------------------------------
        BYTE   W48
// 070   ----------------------------------------
        BYTE   W48
// 071   ----------------------------------------
        BYTE   W48
// 072   ----------------------------------------
        BYTE   W48
// 073   ----------------------------------------
        BYTE   W48
// 074   ----------------------------------------
        BYTE   W48
// 075   ----------------------------------------
        BYTE   W48
// 076   ----------------------------------------
        BYTE   W48
// 077   ----------------------------------------
        BYTE   W48
// 078   ----------------------------------------
        BYTE   W48
// 079   ----------------------------------------
        BYTE   W48
// 080   ----------------------------------------
        BYTE   W48
// 081   ----------------------------------------
        BYTE   W48
// 082   ----------------------------------------
        BYTE   W48
// 083   ----------------------------------------
        BYTE   W48
// 084   ----------------------------------------
        BYTE   W48
// 085   ----------------------------------------
        BYTE   W48
// 086   ----------------------------------------
        BYTE   W48
// 087   ----------------------------------------
        BYTE   W48
// 088   ----------------------------------------
        BYTE   W48
// 089   ----------------------------------------
        BYTE   W48
// 090   ----------------------------------------
        BYTE   W48
// 091   ----------------------------------------
        BYTE   W48
// 092   ----------------------------------------
        BYTE   W48
// 093   ----------------------------------------
        BYTE   W48
// 094   ----------------------------------------
        BYTE   W48
// 095   ----------------------------------------
        BYTE   W48
// 096   ----------------------------------------
        BYTE   W48
// 097   ----------------------------------------
        BYTE   W48
// 098   ----------------------------------------
        BYTE   W48
// 099   ----------------------------------------
        BYTE   W48
// 100   ----------------------------------------
        BYTE   W48
// 101   ----------------------------------------
        BYTE   W48
// 102   ----------------------------------------
        BYTE   W48
// 103   ----------------------------------------
        BYTE   W48
// 104   ----------------------------------------
        BYTE   W42
        BYTE   W01
        BYTE   GoTo
         POIN2  iceman0000_8_LOOP
        BYTE   W05
// 105   ----------------------------------------
        BYTE   FINE

//***************** Track 9 (Midi-Chn.14) ******************//

iceman0000_9:
        BYTE   KEYSH   iceman0000_key+0
// 000   ----------------------------------------
        BYTE           VOL     23
        BYTE           PAN     c_v-13
        BYTE           VOICE   100
        BYTE   W48
// 001   ----------------------------------------
        BYTE   W24
        BYTE           N24     Cn3   v090   gtp3
        BYTE   W24
// 002   ----------------------------------------
        BYTE           N36     Gn3   v080   gtp3
        BYTE   W36
        BYTE           N08     Ds4
        BYTE   W06
        BYTE                   Fn4
        BYTE   W06
// 003   ----------------------------------------
        BYTE           N24     Gn4   v080   gtp3
        BYTE   W24
        BYTE                   Ds4
        BYTE   W24
// 004   ----------------------------------------
        BYTE           N44     Cn4   v080   gtp1
        BYTE   W48
// 005   ----------------------------------------
        BYTE           N10     Gs3
        BYTE   W08
        BYTE                   Gn3
        BYTE   W08
        BYTE                   Fn3
        BYTE   W08
        BYTE           N64     Gs3   v080   gtp1
        BYTE   W24
// 006   ----------------------------------------
        BYTE   W48
// 007   ----------------------------------------
        BYTE   W12
        BYTE           N12     As4   v090
        BYTE   W06
        BYTE                   Gn4
        BYTE   W06
        BYTE                   Dn4
        BYTE   W06
        BYTE                   As3   v085
        BYTE   W06
        BYTE                   Gn3
        BYTE   W06
        BYTE                   Dn3
        BYTE   W06
// 008   ----------------------------------------
        BYTE           N54     As2   v080
        BYTE   W48
// 009   ----------------------------------------
        BYTE   W48
// 010   ----------------------------------------
        BYTE           N44     Gs3   v090   gtp1
        BYTE   W48
// 011   ----------------------------------------
        BYTE   W48
// 012   ----------------------------------------
        BYTE                   Gs3
        BYTE   W48
// 013   ----------------------------------------
        BYTE   W48
// 014   ----------------------------------------
        BYTE   W48
// 015   ----------------------------------------
        BYTE   W48
// 016   ----------------------------------------
        BYTE   W48
// 017   ----------------------------------------
iceman0000_9_17:
        BYTE           N24     Cn4   v106   gtp2
        BYTE   W24
        BYTE                   Ds4
        BYTE   W24
        BYTE   PEND
// 018   ----------------------------------------
iceman0000_9_18:
        BYTE           N22     Dn4   v106
        BYTE   W19
        BYTE           N19     As3
        BYTE   W17
        BYTE           N20     Cn4
        BYTE   W12
        BYTE   PEND
// 019   ----------------------------------------
iceman0000_9_19:
        BYTE   W12
        BYTE           N13     Cn4   v106
        BYTE   W12
        BYTE           N24     Ds4   v106   gtp2
        BYTE   W24
        BYTE   PEND
// 020   ----------------------------------------
        BYTE           N22     Dn4
        BYTE   W19
        BYTE           N24     As3   v106   gtp2
        BYTE   W24
iceman0000_9_LOOP:
        BYTE   W04
        BYTE           BENDR   127
        BYTE   W01
// 021   ----------------------------------------
        BYTE   PATT
         POIN2  iceman0000_9_17
// 022   ----------------------------------------
        BYTE   PATT
         POIN2  iceman0000_9_18
// 023   ----------------------------------------
        BYTE   PATT
         POIN2  iceman0000_9_19
// 024   ----------------------------------------
        BYTE           N22     Fn4   v106
        BYTE   W19
        BYTE           N24     Gn4   v106   gtp2
        BYTE   W28
        BYTE   W01
// 025   ----------------------------------------
        BYTE   PATT
         POIN2  iceman0000_9_17
// 026   ----------------------------------------
        BYTE   PATT
         POIN2  iceman0000_9_18
// 027   ----------------------------------------
        BYTE   PATT
         POIN2  iceman0000_9_19
// 028   ----------------------------------------
        BYTE           N22     Dn4   v106
        BYTE   W19
        BYTE           N24     As3   v106   gtp2
        BYTE   W28
        BYTE   W01
// 029   ----------------------------------------
        BYTE   PATT
         POIN2  iceman0000_9_17
// 030   ----------------------------------------
        BYTE           N22     Fn4   v106
        BYTE   W19
        BYTE           N72     Gn4   v106   gtp2
        BYTE   W28
        BYTE   W01
// 031   ----------------------------------------
        BYTE   W48
// 032   ----------------------------------------
        BYTE   W48
// 033   ----------------------------------------
        BYTE   W48
// 034   ----------------------------------------
        BYTE   W48
// 035   ----------------------------------------
        BYTE   W48
// 036   ----------------------------------------
        BYTE   W48
// 037   ----------------------------------------
        BYTE   W48
// 038   ----------------------------------------
        BYTE   W48
// 039   ----------------------------------------
        BYTE   W48
// 040   ----------------------------------------
        BYTE   W48
// 041   ----------------------------------------
        BYTE   W48
// 042   ----------------------------------------
        BYTE   W48
// 043   ----------------------------------------
        BYTE   W12
        BYTE           N12     Gs4   v080
        BYTE   W06
        BYTE                   Fn4   v075
        BYTE   W06
        BYTE                   Cn4
        BYTE   W06
        BYTE                   Gs3   v070
        BYTE   W06
        BYTE                   Fn3
        BYTE   W06
        BYTE                   Cn3
        BYTE   W06
// 044   ----------------------------------------
        BYTE           N54     Gs2   v065
        BYTE   W48
// 045   ----------------------------------------
        BYTE   W48
// 046   ----------------------------------------
        BYTE   W48
// 047   ----------------------------------------
        BYTE   W48
// 048   ----------------------------------------
        BYTE   W48
// 049   ----------------------------------------
        BYTE   W48
// 050   ----------------------------------------
        BYTE   W48
// 051   ----------------------------------------
        BYTE           N52     Ds4   v070
        BYTE   W48
// 052   ----------------------------------------
        BYTE                   Gs4
        BYTE   W48
// 053   ----------------------------------------
        BYTE           N28     Fn4
        BYTE   W24
        BYTE                   Gn4
        BYTE   W24
// 054   ----------------------------------------
        BYTE                   Fn4
        BYTE   W24
        BYTE                   Dn4
        BYTE   W24
// 055   ----------------------------------------
        BYTE           N52     Fn4
        BYTE   W48
// 056   ----------------------------------------
        BYTE                   As3
        BYTE   W48
// 057   ----------------------------------------
        BYTE           N28     Ds4
        BYTE   W24
        BYTE                   Dn4
        BYTE   W24
// 058   ----------------------------------------
        BYTE                   Ds4
        BYTE   W24
        BYTE                   Gn4
        BYTE   W24
// 059   ----------------------------------------
        BYTE           N56     Gs4   v070   gtp2
        BYTE   W48
// 060   ----------------------------------------
        BYTE   W12
        BYTE           N10     Ds4
        BYTE           N16     Gs4   v085
        BYTE   W12
        BYTE           N76     Cn4   v070
        BYTE           N76     Ds4   v085
        BYTE   W24
// 061   ----------------------------------------
        BYTE   W48
// 062   ----------------------------------------
        BYTE   W12
        BYTE           N10     Fn4   v070
        BYTE           N16     As4   v085
        BYTE   W12
        BYTE           N22     Dn4   v070
        BYTE           N28     Fn4   v085
        BYTE   W24
// 063   ----------------------------------------
        BYTE                   Dn4   v070
        BYTE   W24
        BYTE                   Cn4
        BYTE   W24
// 064   ----------------------------------------
        BYTE                   Dn4
        BYTE   W24
        BYTE                   Fn4
        BYTE   W24
// 065   ----------------------------------------
        BYTE           N92     Gn4   v070   gtp2
        BYTE   W48
// 066   ----------------------------------------
        BYTE   W48
// 067   ----------------------------------------
        BYTE   W48
// 068   ----------------------------------------
        BYTE   W48
// 069   ----------------------------------------
        BYTE   W48
// 070   ----------------------------------------
        BYTE   W48
// 071   ----------------------------------------
        BYTE   W48
// 072   ----------------------------------------
        BYTE   W48
// 073   ----------------------------------------
        BYTE   W48
// 074   ----------------------------------------
        BYTE   W48
// 075   ----------------------------------------
        BYTE   W48
// 076   ----------------------------------------
        BYTE   W48
// 077   ----------------------------------------
        BYTE   W48
// 078   ----------------------------------------
        BYTE   W48
// 079   ----------------------------------------
        BYTE   W48
// 080   ----------------------------------------
        BYTE   W48
// 081   ----------------------------------------
        BYTE   W48
// 082   ----------------------------------------
        BYTE   W48
// 083   ----------------------------------------
        BYTE   W48
// 084   ----------------------------------------
        BYTE   W48
// 085   ----------------------------------------
        BYTE   W48
// 086   ----------------------------------------
        BYTE   W48
// 087   ----------------------------------------
        BYTE   W48
// 088   ----------------------------------------
        BYTE   W48
// 089   ----------------------------------------
        BYTE   W48
// 090   ----------------------------------------
        BYTE   W48
// 091   ----------------------------------------
        BYTE   W48
// 092   ----------------------------------------
        BYTE   W48
// 093   ----------------------------------------
        BYTE   W48
// 094   ----------------------------------------
        BYTE   W48
// 095   ----------------------------------------
        BYTE   W48
// 096   ----------------------------------------
        BYTE   W48
// 097   ----------------------------------------
        BYTE   W48
// 098   ----------------------------------------
        BYTE   W48
// 099   ----------------------------------------
        BYTE   W48
// 100   ----------------------------------------
        BYTE   W48
// 101   ----------------------------------------
        BYTE           N24     Cn4   v080   gtp2
        BYTE   W24
        BYTE                   Ds4
        BYTE   W24
// 102   ----------------------------------------
        BYTE           N22     Dn4
        BYTE   W19
        BYTE           N19     As3
        BYTE   W17
        BYTE           N20     Cn4
        BYTE   W12
// 103   ----------------------------------------
        BYTE   W12
        BYTE           N13
        BYTE   W12
        BYTE           N20     Ds4
        BYTE   W24
// 104   ----------------------------------------
        BYTE           N16     Dn4
        BYTE   W19
        BYTE           N24     As3   v080   gtp2
        BYTE   W24
        BYTE           BENDR   2
        BYTE   GoTo
         POIN2  iceman0000_9_LOOP
        BYTE   W05
// 105   ----------------------------------------
        BYTE   FINE


//********************** End of Song ***********************//

        ALIGN  4
iceman0000:
        BYTE   10                      // Num Tracks
        BYTE   0                       // Unknown
        BYTE   iceman0000_pri          // Priority
        BYTE   iceman0000_rev          // Reverb

        POIN2   iceman0000_grp         

        POIN2   iceman0000_0
        POIN2   iceman0000_1
        POIN2   iceman0000_2
        POIN2   iceman0000_3
        POIN2   iceman0000_4
        POIN2   iceman0000_5
        POIN2   iceman0000_6
        POIN2   iceman0000_7
        POIN2   iceman0000_8
        POIN2   iceman0000_9

        
