//Event file generated from Sappy .s format.
	#include "MPlayDef.event"

	#define	NearFarFrontier00_grp  voicegroup000
	#define	NearFarFrontier00_pri  0
	#define	NearFarFrontier00_rev  0
	#define	NearFarFrontier00_mvl  127
	#define	NearFarFrontier00_key  0
	#define	NearFarFrontier00_tbs  1
	#define	NearFarFrontier00_exg  0
	#define	NearFarFrontier00_cmp  1

	// .rodata
	//	NearFarFrontier00
	ALIGN 4


//**************** Track 1 (Midi-Chn.0) ****************//

NearFarFrontier00_001:
//  #01 //000   ----------------------------------------
 BYTE   KEYSH   NearFarFrontier00_key+0
 BYTE   TEMPO   180*NearFarFrontier00_tbs/2
 BYTE   VOICE   122
 BYTE   VOL   37*NearFarFrontier00_mvl/mxv
 BYTE   W96
//  #01 //001   ----------------------------------------
 BYTE   W96
//  #01 //002   ----------------------------------------
 BYTE   W72
 BYTE   N05  Cs2  v001
 BYTE   W03
 BYTE   An2
 BYTE   W03
 BYTE   Cs2
 BYTE   W03
 BYTE   An2
 BYTE   W03
 BYTE   Cs2
 BYTE   W03
 BYTE   An2  v002
 BYTE   W03
 BYTE   Cs2  v005
 BYTE   W03
 BYTE   An2  v008
 BYTE   W03
//  #01 //003   ----------------------------------------
 BYTE   Cs2  v021
 BYTE   W03
 BYTE   An2  v024
 BYTE   W03
 BYTE   Cs2  v025
 BYTE   W03
 BYTE   An2  v036
 BYTE   W03
 BYTE   Cs2  v048
 BYTE   W03
 BYTE   An2  v059
 BYTE   W03
 BYTE   Cs2  v071
 BYTE   W03
 BYTE   An2  v082
 BYTE   W03
 BYTE   Cs2  v105
 BYTE   W60
 BYTE   N10  Cn1  v122
 BYTE   W10
 BYTE   N01  En1  v100
 BYTE   W02
//  #01 //004   ----------------------------------------
 BYTE   N23
 BYTE   N23  As1  v070
 BYTE   W12
Label_011C8AA4:
 BYTE   W12
 BYTE   N11  Cn1  v122
 BYTE   N44  Cs2  v080  gtp3
 BYTE   W24
 BYTE   N23  En1  v100
 BYTE   W24
 BYTE   N11  Cn1  v122
 BYTE   N23  As1  v070
 BYTE   W24
//  #01 //005   ----------------------------------------
Label_011C8AB8:
 BYTE   N11  En1  v100
 BYTE   N23  As1  v055
 BYTE   W12
 BYTE   Cn1  v122
 BYTE   W12
 BYTE   As1  v070
 BYTE   W12
 BYTE   N11  Cn1  v122
 BYTE   W12
 BYTE   N23  En1  v100
 BYTE   N23  As1  v055
 BYTE   W24
 BYTE   N11  Cn1  v122
 BYTE   N23  As1  v070
 BYTE   W12
 BYTE   N11  Cn1  v122
 BYTE   W12
 BYTE   PEND 
//  #01 //006   ----------------------------------------
Label_011C8ADC:
 BYTE   N11  En1  v100
 BYTE   N23  As1  v055
 BYTE   W12
 BYTE   Cn1  v122
 BYTE   W12
 BYTE   As1  v070
 BYTE   W12
 BYTE   N11  Cn1  v122
 BYTE   W12
 BYTE   En1  v100
 BYTE   N23  As1  v055
 BYTE   W12
 BYTE   N11  Cn1  v122
 BYTE   W12
 BYTE   N23  As1  v070
 BYTE   W12
 BYTE   N11  Cn1  v122
 BYTE   W12
 BYTE   PEND 
//  #01 //007   ----------------------------------------
Label_011C8B00:
 BYTE   N11  En1  v100
 BYTE   N11  As1  v055
 BYTE   W12
 BYTE   N23  Cn1  v122
 BYTE   N32  Cs2  v070  gtp3
 BYTE   W24
 BYTE   N11  Cn1  v122
 BYTE   W12
 BYTE   En1  v100
 BYTE   N11  As1  v055
 BYTE   W12
 BYTE   N23  Cn1  v122
 BYTE   N32  An2  v070  gtp3
 BYTE   W24
 BYTE   N11  Cn1  v122
 BYTE   W12
 BYTE   PEND 
//  #01 //008   ----------------------------------------
Label_011C8B26:
 BYTE   N11  En1  v100
 BYTE   N11  As1  v055
 BYTE   W12
 BYTE   N23  Cn1  v122
 BYTE   N32  Cs2  v070  gtp3
 BYTE   W24
 BYTE   N11  Cn1  v122
 BYTE   W12
 BYTE   N23  En1  v100
 BYTE   N23  As1  v055
 BYTE   W24
 BYTE   N11  Cn1  v122
 BYTE   N11  As1  v070
 BYTE   W12
 BYTE   En1  v100
 BYTE   N23  An2  v070
 BYTE   W12
 BYTE   PEND 
//  #01 //009   ----------------------------------------
Label_011C8B4E:
 BYTE   W12
 BYTE   N23  Cn1  v122
 BYTE   N56  Cs2  v070  gtp3
 BYTE   W24
 BYTE   N11  Cn1  v122
 BYTE   W12
 BYTE   N23  En1  v100
 BYTE   W24
 BYTE   As1  v070
 BYTE   W12
 BYTE   N05  Cn1  v122
 BYTE   W06
 BYTE   Cn1
 BYTE   W06
 BYTE   PEND 
//  #01 //010   ----------------------------------------
 BYTE   N23  En1  v100
 BYTE   N23  As1  v055
 BYTE   W24
 BYTE   Cn1  v122
 BYTE   N23  As1  v070
 BYTE   W24
 BYTE   N11  En1  v100
 BYTE   N23  As1  v055
 BYTE   W12
 BYTE   N11  Cn1  v122
 BYTE   W12
 BYTE   En1  v090
 BYTE   N23  As1  v070
 BYTE   W12
 BYTE   N11  Cn1  v122
 BYTE   W12
//  #01 //011   ----------------------------------------
 BYTE   En1  v100
 BYTE   N23  As1  v055
 BYTE   W12
 BYTE   N11  Cn1  v122
 BYTE   W12
 BYTE   En1  v100
 BYTE   N23  As1  v070
 BYTE   W12
 BYTE   N05  Cn2  v127
 BYTE   W06
 BYTE   Cn2  v110
 BYTE   W06
 BYTE   An1  v127
 BYTE   W06
 BYTE   An1  v110
 BYTE   W06
 BYTE   Gn1
 BYTE   W06
 BYTE   Gn1
 BYTE   W06
 BYTE   N22  Cn1  v122
 BYTE   N22  Fn1  v110
 BYTE   W22
 BYTE   N01  En1  v100
 BYTE   W02
//  #01 //012   ----------------------------------------
 BYTE   N23  En1  v115
 BYTE   N23  As1  v070
 BYTE   W24
 BYTE   Cn1  v122
 BYTE   N44  Cs2  v080  gtp3
 BYTE   W24
 BYTE   N23  En1  v100
 BYTE   W24
 BYTE   N11  Cn1  v122
 BYTE   N23  As1  v070
 BYTE   W24
//  #01 //013   ----------------------------------------
 BYTE   PATT
  POIN2 Label_011C8AB8
//  #01 //014   ----------------------------------------
 BYTE   PATT
  POIN2 Label_011C8ADC
//  #01 //015   ----------------------------------------
 BYTE   PATT
  POIN2 Label_011C8B00
//  #01 //016   ----------------------------------------
 BYTE   PATT
  POIN2 Label_011C8B26
//  #01 //017   ----------------------------------------
 BYTE   W12
 BYTE   N23  Cn1  v122
 BYTE   N56  Cs2  v070  gtp3
 BYTE   W24
 BYTE   N11  Cn1  v122
 BYTE   W12
 BYTE   N23  En1  v100
 BYTE   W24
 BYTE   N11  Cn1  v122
 BYTE   N23  As1  v070
 BYTE   W12
 BYTE   N11  Cn1  v122
 BYTE   W12
//  #01 //018   ----------------------------------------
 BYTE   N23  En1  v100
 BYTE   N23  As1  v055
 BYTE   W24
 BYTE   Cn1  v122
 BYTE   N32  An2  v070  gtp3
 BYTE   W24
 BYTE   N11  En1  v100
 BYTE   W12
 BYTE   N23  Cn1  v122
 BYTE   N32  Cs2  v070  gtp3
 BYTE   W24
 BYTE   N11  En1  v100
 BYTE   W12
//  #01 //019   ----------------------------------------
 BYTE   Cn1  v122
 BYTE   N32  An2  v070  gtp3
 BYTE   W24
 BYTE   N11  En1  v100
 BYTE   W12
 BYTE   Cn1  v122
 BYTE   N32  Cs2  v070  gtp3
 BYTE   W24
 BYTE   N11  En1  v080
 BYTE   W12
 BYTE   En1  v100
 BYTE   N23  An2  v060
 BYTE   W12
 BYTE   N10  Cn1  v122
 BYTE   W10
 BYTE   N01  En1  v100
 BYTE   W02
//  #01 //020   ----------------------------------------
 BYTE   N23
 BYTE   N23  An2  v060
 BYTE   W24
 BYTE   Cn1  v122
 BYTE   N44  Cs2  v080  gtp3
 BYTE   W24
 BYTE   N11  En1  v100
 BYTE   W12
 BYTE   N23  Cn1  v122
 BYTE   W12
 BYTE   As1  v070
 BYTE   W12
 BYTE   N11  Cn1  v122
 BYTE   W12
//  #01 //021   ----------------------------------------
 BYTE   PATT
  POIN2 Label_011C8AB8
//  #01 //022   ----------------------------------------
 BYTE   N11  En1  v100
 BYTE   N11  As1  v055
 BYTE   W12
 BYTE   Cn1  v122
 BYTE   N32  Cs2  v070  gtp3
 BYTE   W12
 BYTE   N11  As1
 BYTE   W12
 BYTE   Cn1  v122
 BYTE   W12
 BYTE   En1  v100
 BYTE   N11  As1  v055
 BYTE   W12
 BYTE   Cn1  v122
 BYTE   N32  An2  v070  gtp3
 BYTE   W12
 BYTE   N11  As1
 BYTE   W12
 BYTE   Cn1  v122
 BYTE   W12
//  #01 //023   ----------------------------------------
 BYTE   En1  v100
 BYTE   N11  As1  v055
 BYTE   W12
 BYTE   Cn1  v122
 BYTE   N32  Cs2  v070  gtp3
 BYTE   W12
 BYTE   N11  As1
 BYTE   W12
 BYTE   N03  Cn2  v125
 BYTE   W04
 BYTE   An1  v120
 BYTE   W04
 BYTE   Fn1
 BYTE   W04
 BYTE   N11  En1  v100
 BYTE   N11  As1  v055
 BYTE   W12
 BYTE   Cn1  v122
 BYTE   N23  En1  v100
 BYTE   W24
 BYTE   N11
 BYTE   N32  Cs2  v070  gtp3
 BYTE   W12
//  #01 //024   ----------------------------------------
 BYTE   W12
 BYTE   N11  En1  v080
 BYTE   W12
 BYTE   N23  Cn1  v122
 BYTE   N44  An2  v070  gtp3
 BYTE   W24
 BYTE   N11  En1  v100
 BYTE   W12
 BYTE   N23  Cn1  v122
 BYTE   W12
 BYTE   As1  v070
 BYTE   W12
 BYTE   N11  Cn1  v122
 BYTE   W12
//  #01 //025   ----------------------------------------
 BYTE   PATT
  POIN2 Label_011C8AB8
//  #01 //026   ----------------------------------------
 BYTE   PATT
  POIN2 Label_011C8ADC
//  #01 //027   ----------------------------------------
 BYTE   N11  En1  v100
 BYTE   N11  As1  v055
 BYTE   W12
 BYTE   Cn1  v122
 BYTE   N32  An2  v070  gtp3
 BYTE   W24
 BYTE   N11  Cn1  v122
 BYTE   W12
 BYTE   En1  v100
 BYTE   N03  Fs1  v045
 BYTE   W12
 BYTE   N11  Cn1  v122
 BYTE   N32  Cs2  v070  gtp3
 BYTE   W12
 BYTE   N11  As1
 BYTE   W12
 BYTE   En1  v100
 BYTE   W12
//  #01 //028   ----------------------------------------
Label_011C8D01:
 BYTE   N11  En1  v100
 BYTE   N11  As1  v055
 BYTE   W12
 BYTE   N23  Cn1  v122
 BYTE   N32  An2  v060  gtp3
 BYTE   W12
 BYTE   N23  As1  v070
 BYTE   W12
 BYTE   N11  Cn1  v122
 BYTE   W12
 BYTE   En1  v100
 BYTE   N03  Fs1  v045
 BYTE   W12
 BYTE   N11  Cn1  v122
 BYTE   N32  Cs2  v080  gtp3
 BYTE   W24
 BYTE   N11  Cn1  v122
 BYTE   W12
 BYTE   PEND 
//  #01 //029   ----------------------------------------
 BYTE   PATT
  POIN2 Label_011C8D01
//  #01 //030   ----------------------------------------
 BYTE   N11  En1  v100
 BYTE   N11  As1  v055
 BYTE   W12
 BYTE   En1  v110
 BYTE   N32  Cs2  v060  gtp3
 BYTE   W24
 BYTE   N11  Cn1  v122
 BYTE   W12
 BYTE   En1  v100
 BYTE   W12
 BYTE   Cn1  v122
 BYTE   N23  Cs2  v060
 BYTE   W24
 BYTE   N11  En1  v100
 BYTE   N32  An2  v060  gtp3
 BYTE   W12
//  #01 //031   ----------------------------------------
 BYTE   W12
 BYTE   N11  Fn1  v100
 BYTE   W12
 BYTE   Cn1  v127
 BYTE   N05  En1  v115
 BYTE   W06
 BYTE   En1  v100
 BYTE   W06
 BYTE   En1
 BYTE   W06
 BYTE   En1
 BYTE   W06
 BYTE   N11  Cn1  v127
 BYTE   N05  Cn2
 BYTE   W06
 BYTE   Cn2  v100
 BYTE   W06
 BYTE   Cn2
 BYTE   W06
 BYTE   Cn2
 BYTE   W06
 BYTE   N11  Cn1  v127
 BYTE   N05  An1
 BYTE   N23  As1  v070
 BYTE   W06
 BYTE   N05  An1  v100
 BYTE   W06
 BYTE   An1
 BYTE   W06
 BYTE   An1
 BYTE   W06
//  #01 //032   ----------------------------------------
 BYTE   N11  Cn1  v127
 BYTE   N05  Fn1
 BYTE   N23  As1  v055
 BYTE   W06
 BYTE   N05  Fn1  v100
 BYTE   W06
 BYTE   Fn1
 BYTE   W06
 BYTE   Fn1
 BYTE   W06
 BYTE   N11  Cn1  v122
 BYTE   N44  Cs2  v080  gtp3
 BYTE   W24
 BYTE   N23  En1  v100
 BYTE   W24
 BYTE   N11  Cn1  v122
 BYTE   N23  As1  v070
 BYTE   W24
//  #01 //033   ----------------------------------------
 BYTE   PATT
  POIN2 Label_011C8AB8
//  #01 //034   ----------------------------------------
 BYTE   PATT
  POIN2 Label_011C8ADC
//  #01 //035   ----------------------------------------
 BYTE   PATT
  POIN2 Label_011C8B00
//  #01 //036   ----------------------------------------
 BYTE   PATT
  POIN2 Label_011C8B26
//  #01 //037   ----------------------------------------
 BYTE   PATT
  POIN2 Label_011C8B4E
//  #01 //038   ----------------------------------------
 BYTE   N23  En1  v100
 BYTE   N23  As1  v055
 BYTE   W24
 BYTE   N22  Cn1  v122
 BYTE   N23  As1  v070
 BYTE   W22
 BYTE   N01  En1  v100
 BYTE   W02
 BYTE   N11
 BYTE   N23  As1  v055
 BYTE   W12
 BYTE   N11  Cn1  v122
 BYTE   W12
 BYTE   En1  v100
 BYTE   N23  As1  v070
 BYTE   W12
 BYTE   N11  Cn1  v122
 BYTE   W12
//  #01 //039   ----------------------------------------
 BYTE   N23  En1  v100
 BYTE   N23  As1  v055
 BYTE   W24
 BYTE   N11  Cn1  v122
 BYTE   N15  En1  v100
 BYTE   W16
 BYTE   Cn2  v120
 BYTE   W16
 BYTE   N11  Cn1  v122
 BYTE   N15  En1  v100
 BYTE   W16
 BYTE   N14  An1
 BYTE   W14
 BYTE   N01  En1  v090
 BYTE   W02
 BYTE   N11  Cn1  v122
 BYTE   N15  En1  v105
 BYTE   W08
//  #01 //040   ----------------------------------------
 BYTE   W08
 BYTE   Fn1  v100
 BYTE   W16
 BYTE   N23  Cn1  v122
 BYTE   N44  Cs2  v080  gtp3
 BYTE   N80  Cn0  v100  gtp3
 BYTE   W24
 BYTE   N23  En1
 BYTE   W24
 BYTE   N11  Cn1  v122
 BYTE   N23  Ds2  v070
 BYTE   W24
//  #01 //041   ----------------------------------------
 BYTE   N11  En1  v100
 BYTE   N11  Ds2  v055
 BYTE   W12
 BYTE   N23  Cn1  v122
 BYTE   N11  As1  v080
 BYTE   W12
 BYTE   N23  Ds2  v070
 BYTE   W12
 BYTE   N11  Cn1  v122
 BYTE   W12
 BYTE   N23  En1  v100
 BYTE   N23  Ds2  v055
 BYTE   W24
 BYTE   N11  Cn1  v122
 BYTE   N11  Ds2  v070
 BYTE   W12
 BYTE   Cn1  v122
 BYTE   N11  As1  v080
 BYTE   W12
//  #01 //042   ----------------------------------------
 BYTE   En1  v100
 BYTE   N11  Ds2  v055
 BYTE   W12
 BYTE   N23  Cn1  v122
 BYTE   N11  As1  v080
 BYTE   W12
 BYTE   N23  Ds2  v070
 BYTE   W12
 BYTE   N11  Cn1  v122
 BYTE   W12
 BYTE   En1  v100
 BYTE   N11  Ds2  v055
 BYTE   W12
 BYTE   Cn1  v122
 BYTE   N11  As1  v080
 BYTE   W12
 BYTE   N23  Ds2  v070
 BYTE   W12
 BYTE   N11  Cn1  v122
 BYTE   W12
//  #01 //043   ----------------------------------------
 BYTE   En1  v100
 BYTE   N11  Ds2  v055
 BYTE   W12
 BYTE   N23  Cn1  v122
 BYTE   N32  Cs2  v070  gtp3
 BYTE   W24
 BYTE   N11  Cn1  v122
 BYTE   W12
 BYTE   En1  v100
 BYTE   N11  Ds2  v055
 BYTE   W12
 BYTE   N23  Cn1  v122
 BYTE   N32  An2  v070  gtp3
 BYTE   W24
 BYTE   N11  Cn1  v122
 BYTE   W12
//  #01 //044   ----------------------------------------
 BYTE   En1  v100
 BYTE   N11  Ds2  v055
 BYTE   W12
 BYTE   N23  Cn1  v122
 BYTE   N32  Cs2  v070  gtp3
 BYTE   W24
 BYTE   N11  Cn1  v122
 BYTE   W12
 BYTE   N23  En1  v100
 BYTE   N23  Ds2  v055
 BYTE   W24
 BYTE   N11  Cn1  v122
 BYTE   N11  Ds2  v070
 BYTE   W12
 BYTE   En1  v100
 BYTE   N23  An2  v070
 BYTE   W12
//  #01 //045   ----------------------------------------
 BYTE   W12
 BYTE   Cn1  v122
 BYTE   N56  Cs2  v070  gtp3
 BYTE   W24
 BYTE   N11  Cn1  v122
 BYTE   W12
 BYTE   N23  En1  v100
 BYTE   W24
 BYTE   N11  Cn1  v122
 BYTE   N23  Ds2  v070
 BYTE   W12
 BYTE   N11  Cn1  v122
 BYTE   W12
//  #01 //046   ----------------------------------------
 BYTE   N23  En1  v100
 BYTE   N23  Ds2  v055
 BYTE   W24
 BYTE   Cn1  v122
 BYTE   N32  An2  v070  gtp3
 BYTE   W24
 BYTE   N11  En1  v100
 BYTE   W12
 BYTE   N23  Cn1  v122
 BYTE   N32  Cs2  v070  gtp3
 BYTE   W24
 BYTE   N11  En1  v100
 BYTE   W12
//  #01 //047   ----------------------------------------
 BYTE   N23  Cn1  v122
 BYTE   N32  An2  v070  gtp3
 BYTE   W24
 BYTE   N11  En1  v100
 BYTE   W12
 BYTE   Cn1  v122
 BYTE   N32  Cs2  v070  gtp3
 BYTE   W24
 BYTE   N11  En1  v100
 BYTE   W12
 BYTE   Cn1  v127
 BYTE   N05  Cn2
 BYTE   W06
 BYTE   Cn2  v100
 BYTE   W06
 BYTE   An1  v127
 BYTE   W06
 BYTE   An1  v100
 BYTE   W06
//  #01 //048   ----------------------------------------
 BYTE   N11  Cn1  v127
 BYTE   N05  Fn1
 BYTE   W06
 BYTE   Fn1  v100
 BYTE   W06
 BYTE   En1  v090
 BYTE   W06
 BYTE   En1
 BYTE   W06
 BYTE   N23  Cn1  v122
 BYTE   N44  Cs2  v080  gtp3
 BYTE   W36
 BYTE   N10  Cn1  v122
 BYTE   W10
 BYTE   N01  En1  v100
 BYTE   W02
 BYTE   N23  As1  v070
 BYTE   N32  Dn1  v110  gtp3
 BYTE   W24
//  #01 //049   ----------------------------------------
Label_011C8F46:
 BYTE   N23  As1  v020
 BYTE   W12
 BYTE   N11  Cn1  v122
 BYTE   W12
 BYTE   N23
 BYTE   N23  As1  v070
 BYTE   W24
 BYTE   N22  Cn1  v102
 BYTE   N23  As1  v020
 BYTE   W22
 BYTE   N01  En1  v100
 BYTE   W02
 BYTE   N23  As1  v070
 BYTE   N32  Dn1  v110  gtp3
 BYTE   W24
 BYTE   PEND 
//  #01 //050   ----------------------------------------
Label_011C8F67:
 BYTE   N23  As1  v020
 BYTE   W24
 BYTE   Cn1  v122
 BYTE   N23  As1  v070
 BYTE   W24
 BYTE   As1  v020
 BYTE   W12
 BYTE   N10  Cn1  v122
 BYTE   W10
 BYTE   N01  En1  v100
 BYTE   W02
 BYTE   N23  As1  v070
 BYTE   N32  Dn1  v110  gtp3
 BYTE   W24
 BYTE   PEND 
//  #01 //051   ----------------------------------------
 BYTE   N23  As1  v020
 BYTE   W12
 BYTE   Cn1  v122
 BYTE   W12
 BYTE   As1  v070
 BYTE   W12
 BYTE   Cn1  v122
 BYTE   W12
 BYTE   As1  v020
 BYTE   W12
 BYTE   N10  Cn1  v102
 BYTE   W10
 BYTE   N01  En1  v100
 BYTE   W02
 BYTE   N23  As1  v070
 BYTE   N32  Dn1  v110  gtp3
 BYTE   W24
//  #01 //052   ----------------------------------------
 BYTE   N23  An2  v060
 BYTE   W12
 BYTE   N11  En1  v080
 BYTE   W12
 BYTE   N23  Cn1  v122
 BYTE   N44  Cs2  v080  gtp3
 BYTE   W36
 BYTE   N10  Cn1  v122
 BYTE   W10
 BYTE   N01  En1  v100
 BYTE   W02
 BYTE   N23  As1  v070
 BYTE   N32  Dn1  v110  gtp3
 BYTE   W24
//  #01 //053   ----------------------------------------
 BYTE   PATT
  POIN2 Label_011C8F46
//  #01 //054   ----------------------------------------
 BYTE   PATT
  POIN2 Label_011C8F67
//  #01 //055   ----------------------------------------
 BYTE   N23  As1  v020
 BYTE   W12
 BYTE   Cn1  v122
 BYTE   W12
 BYTE   As1  v070
 BYTE   W12
 BYTE   En1  v100
 BYTE   W12
 BYTE   As1  v020
 BYTE   W12
 BYTE   N10  Fn1  v110
 BYTE   W12
 BYTE   N05  Cn2  v127
 BYTE   W06
 BYTE   Cn2  v100
 BYTE   W06
 BYTE   Cn2
 BYTE   W06
 BYTE   Cn2
 BYTE   W06
//  #01 //056   ----------------------------------------
 BYTE   An1  v127
 BYTE   W06
 BYTE   An1  v100
 BYTE   W06
 BYTE   Fn1  v110
 BYTE   W06
 BYTE   Fn1  v100
 BYTE   W06
 BYTE   N23  Cn1  v122
 BYTE   N44  Cs2  v080  gtp3
 BYTE   W36
 BYTE   N10  Cn1  v122
 BYTE   W10
 BYTE   N01  En1  v100
 BYTE   W02
 BYTE   N23  Ds2  v070
 BYTE   N32  Dn1  v110  gtp3
 BYTE   W24
//  #01 //057   ----------------------------------------
Label_011C9012:
 BYTE   N23  Ds2  v040
 BYTE   W12
 BYTE   N11  Cn1  v122
 BYTE   W12
 BYTE   N23
 BYTE   N23  Ds2  v070
 BYTE   W24
 BYTE   N22  Cn1  v102
 BYTE   N23  Ds2  v040
 BYTE   W22
 BYTE   N01  En1  v100
 BYTE   W02
 BYTE   N23  Ds2  v070
 BYTE   N32  Dn1  v110  gtp3
 BYTE   W24
 BYTE   PEND 
//  #01 //058   ----------------------------------------
 BYTE   N23  Ds2  v040
 BYTE   W24
 BYTE   Cn1  v122
 BYTE   N23  Ds2  v070
 BYTE   W24
 BYTE   Ds2  v040
 BYTE   W12
 BYTE   N10  Cn1  v122
 BYTE   W10
 BYTE   N01  En1  v100
 BYTE   W02
 BYTE   N23  Ds2  v070
 BYTE   N32  Dn1  v110  gtp3
 BYTE   W24
//  #01 //059   ----------------------------------------
 BYTE   N11  As1  v090
 BYTE   W12
 BYTE   N23  Cn1  v122
 BYTE   N05  Fs1  v080
 BYTE   W12
 BYTE   N11  Fn1  v090
 BYTE   W12
 BYTE   En1  v080
 BYTE   W12
 BYTE   En1  v100
 BYTE   N23  Ds2  v040
 BYTE   W12
 BYTE   N10  Cn1  v102
 BYTE   W10
 BYTE   N01  En1  v100
 BYTE   W02
 BYTE   N23  Ds2  v070
 BYTE   N32  Dn1  v110  gtp3
 BYTE   W24
//  #01 //060   ----------------------------------------
 BYTE   N23  An2  v070
 BYTE   W12
 BYTE   N11  En1  v080
 BYTE   W12
 BYTE   N23  Cn1  v122
 BYTE   N44  Cs2  v080  gtp3
 BYTE   W36
 BYTE   N10  Cn1  v122
 BYTE   W10
 BYTE   N01  En1  v100
 BYTE   W02
 BYTE   N23  Ds2  v070
 BYTE   N32  Dn1  v110  gtp3
 BYTE   W24
//  #01 //061   ----------------------------------------
 BYTE   PATT
  POIN2 Label_011C9012
//  #01 //062   ----------------------------------------
 BYTE   N11  Ds2  v040
 BYTE   W12
 BYTE   N23  Cn1  v122
 BYTE   N44  Cs2  v080  gtp3
 BYTE   W24
 BYTE   N11  Cn1  v122
 BYTE   W12
 BYTE   N23  En1  v100
 BYTE   W24
 BYTE   N11  Cn1  v122
 BYTE   N23  As1  v070
 BYTE   W12
 BYTE   N11  Cn1  v122
 BYTE   W12
//  #01 //063   ----------------------------------------
 BYTE   N23  En1  v100
 BYTE   N23  As1  v055
 BYTE   W24
 BYTE   N11  Cn1  v122
 BYTE   N11  En1  v100
 BYTE   W12
 BYTE   En1
 BYTE   W12
 BYTE   Cn1  v122
 BYTE   N11  En1  v100
 BYTE   W12
 BYTE   N05  En1  v080
 BYTE   W06
 BYTE   En1
 BYTE   W06
 BYTE   Cn2  v127
 BYTE   W06
 BYTE   Cn2  v100
 BYTE   W06
 BYTE   Cn2
 BYTE   W06
 BYTE   Cn2
 BYTE   W06
//  #01 //064   ----------------------------------------
 BYTE   N11  Cn1  v122
 BYTE   N05  An1  v127
 BYTE   W06
 BYTE   An1  v100
 BYTE   W06
 BYTE   Fn1  v110
 BYTE   GoTo
  POIN2 Label_011C8AA4
//  #01 //065   ----------------------------------------
 BYTE   W06
 BYTE   Fn1  v100
 BYTE   W06
 BYTE   FINE

//**************** Track 2 (Midi-Chn.1) ****************//

NearFarFrontier00_002:
//  #02 //000   ----------------------------------------
 BYTE   KEYSH   NearFarFrontier00_key+0
 BYTE   VOICE   55
 BYTE   VOL   37*NearFarFrontier00_mvl/mxv
 BYTE   W96
//  #02 //001   ----------------------------------------
 BYTE   W96
//  #02 //002   ----------------------------------------
 BYTE   W96
//  #02 //003   ----------------------------------------
 BYTE   W96
//  #02 //004   ----------------------------------------
 BYTE   W12
Label_0117617B:
 BYTE   W84
//  #02 //005   ----------------------------------------
 BYTE   W96
//  #02 //006   ----------------------------------------
 BYTE   W96
//  #02 //007   ----------------------------------------
 BYTE   W96
//  #02 //008   ----------------------------------------
 BYTE   W96
//  #02 //009   ----------------------------------------
 BYTE   W96
//  #02 //010   ----------------------------------------
 BYTE   W96
//  #02 //011   ----------------------------------------
 BYTE   W36
 BYTE   N11  Dn4  v122
 BYTE   W12
 BYTE   Fn4
 BYTE   W12
 BYTE   As4
 BYTE   W12
 BYTE   N17  Dn5
 BYTE   W18
 BYTE   Dn4  v075
 BYTE   W06
//  #02 //012   ----------------------------------------
 BYTE   W96
//  #02 //013   ----------------------------------------
 BYTE   W96
//  #02 //014   ----------------------------------------
 BYTE   W96
//  #02 //015   ----------------------------------------
 BYTE   W96
//  #02 //016   ----------------------------------------
 BYTE   W96
//  #02 //017   ----------------------------------------
 BYTE   W96
//  #02 //018   ----------------------------------------
 BYTE   W96
//  #02 //019   ----------------------------------------
 BYTE   W96
//  #02 //020   ----------------------------------------
 BYTE   W96
//  #02 //021   ----------------------------------------
 BYTE   W96
//  #02 //022   ----------------------------------------
 BYTE   W96
//  #02 //023   ----------------------------------------
 BYTE   W96
//  #02 //024   ----------------------------------------
 BYTE   W96
//  #02 //025   ----------------------------------------
 BYTE   W96
//  #02 //026   ----------------------------------------
 BYTE   W96
//  #02 //027   ----------------------------------------
 BYTE   W96
//  #02 //028   ----------------------------------------
 BYTE   W96
//  #02 //029   ----------------------------------------
 BYTE   W96
//  #02 //030   ----------------------------------------
 BYTE   W12
 BYTE   N23  Dn5  v115
 BYTE   W24
 BYTE   N11  Gn4  v065
 BYTE   W12
 BYTE   Gn4
 BYTE   W12
 BYTE   N23  Dn5  v105
 BYTE   W24
 BYTE   Dn5  v115
 BYTE   W12
//  #02 //031   ----------------------------------------
 BYTE   W12
 BYTE   N11  Gn4  v065
 BYTE   W12
 BYTE   N05  Gn4  v122
 BYTE   W06
 BYTE   An4
 BYTE   W06
 BYTE   Bn4
 BYTE   W06
 BYTE   Cn5
 BYTE   W06
 BYTE   N23  Dn5  v115
 BYTE   W24
 BYTE   W01
 BYTE   Bn4  v095
 BYTE   W23
//  #02 //032   ----------------------------------------
 BYTE   W01
 BYTE   Gn4
 BYTE   W92
 BYTE   W03
//  #02 //033   ----------------------------------------
 BYTE   W96
//  #02 //034   ----------------------------------------
 BYTE   W96
//  #02 //035   ----------------------------------------
 BYTE   W96
//  #02 //036   ----------------------------------------
 BYTE   W96
//  #02 //037   ----------------------------------------
 BYTE   W96
//  #02 //038   ----------------------------------------
 BYTE   W96
//  #02 //039   ----------------------------------------
 BYTE   W24
 BYTE   N15  As4  v105
 BYTE   W16
 BYTE   Dn5
 BYTE   W16
 BYTE   Cn5
 BYTE   W16
 BYTE   Ds4
 BYTE   W16
 BYTE   Fn4
 BYTE   W08
//  #02 //040   ----------------------------------------
 BYTE   W08
 BYTE   As4
 BYTE   W88
//  #02 //041   ----------------------------------------
 BYTE   W96
//  #02 //042   ----------------------------------------
 BYTE   W96
//  #02 //043   ----------------------------------------
 BYTE   W96
//  #02 //044   ----------------------------------------
 BYTE   W96
//  #02 //045   ----------------------------------------
 BYTE   W96
//  #02 //046   ----------------------------------------
 BYTE   W24
 BYTE   N28  Cn5  v105  gtp1
 BYTE   W36
 BYTE   As4
 BYTE   W36
//  #02 //047   ----------------------------------------
 BYTE   Cn5
 BYTE   W36
 BYTE   As4
 BYTE   W36
 BYTE   N23  Cn5
 BYTE   W24
//  #02 //048   ----------------------------------------
 BYTE   As4
 BYTE   W96
//  #02 //049   ----------------------------------------
 BYTE   W96
//  #02 //050   ----------------------------------------
 BYTE   W96
//  #02 //051   ----------------------------------------
 BYTE   W96
//  #02 //052   ----------------------------------------
 BYTE   W96
//  #02 //053   ----------------------------------------
 BYTE   W96
//  #02 //054   ----------------------------------------
 BYTE   W96
//  #02 //055   ----------------------------------------
 BYTE   W96
//  #02 //056   ----------------------------------------
 BYTE   W96
//  #02 //057   ----------------------------------------
 BYTE   W96
//  #02 //058   ----------------------------------------
 BYTE   W96
//  #02 //059   ----------------------------------------
 BYTE   W96
//  #02 //060   ----------------------------------------
 BYTE   W96
//  #02 //061   ----------------------------------------
 BYTE   W96
//  #02 //062   ----------------------------------------
 BYTE   W96
//  #02 //063   ----------------------------------------
 BYTE   W24
 BYTE   N11  Gn4  v115
 BYTE   W12
 BYTE   Gn4
 BYTE   W12
 BYTE   N32  Gn4  v115  gtp3
 BYTE   W48
//  #02 //064   ----------------------------------------
 BYTE   W12
 BYTE   GoTo
  POIN2 Label_0117617B
//  #02 //065   ----------------------------------------
 BYTE   W12
 BYTE   FINE

//**************** Track 3 (Midi-Chn.2) ****************//

NearFarFrontier00_003:
//  #03 //000   ----------------------------------------
 BYTE   KEYSH   NearFarFrontier00_key+0
 BYTE   VOICE   62
 BYTE   PAN   c_v+12
 BYTE   VOL   58*NearFarFrontier00_mvl/mxv
 BYTE   N07  Fn3  v080
 BYTE   W04
 BYTE   Gn3
 BYTE   W04
 BYTE   An3
 BYTE   W04
 BYTE   Bn3
 BYTE   W04
 BYTE   Cn4
 BYTE   W04
 BYTE   N03  Dn4
 BYTE   W04
 BYTE   N28  Ds4  v080  gtp1
 BYTE   W36
 BYTE   N05  Dn4
 BYTE   W06
 BYTE   Ds4
 BYTE   W06
 BYTE   N11  Fn4
 BYTE   W16
 BYTE   Dn4
 BYTE   W08
//  #03 //001   ----------------------------------------
 BYTE   W08
 BYTE   As3
 BYTE   W16
 BYTE   N28  Gn4  v080  gtp1
 BYTE   W36
 BYTE   N05  Fn4
 BYTE   W06
 BYTE   Gn4
 BYTE   W06
 BYTE   N11  As4  v070
 BYTE   W16
 BYTE   Fn4
 BYTE   W08
//  #03 //002   ----------------------------------------
 BYTE   W08
 BYTE   Dn4  v080
 BYTE   W16
 BYTE   N92  Gn4  v080  gtp3
 BYTE   W72
//  #03 //003   ----------------------------------------
 BYTE   W96
//  #03 //004   ----------------------------------------
 BYTE   W12
Label_01175C4C:
 BYTE   W84
//  #03 //005   ----------------------------------------
 BYTE   W96
//  #03 //006   ----------------------------------------
 BYTE   W96
//  #03 //007   ----------------------------------------
 BYTE   W96
//  #03 //008   ----------------------------------------
 BYTE   W96
//  #03 //009   ----------------------------------------
 BYTE   W96
//  #03 //010   ----------------------------------------
 BYTE   W96
//  #03 //011   ----------------------------------------
 BYTE   W36
 BYTE   N08  Dn2  v100
 BYTE   W12
 BYTE   Fn2
 BYTE   W12
 BYTE   As2
 BYTE   W12
 BYTE   Dn3
 BYTE   W24
//  #03 //012   ----------------------------------------
 BYTE   W96
//  #03 //013   ----------------------------------------
 BYTE   W96
//  #03 //014   ----------------------------------------
 BYTE   W96
//  #03 //015   ----------------------------------------
 BYTE   W96
//  #03 //016   ----------------------------------------
 BYTE   W96
//  #03 //017   ----------------------------------------
 BYTE   W96
//  #03 //018   ----------------------------------------
 BYTE   W96
//  #03 //019   ----------------------------------------
 BYTE   W96
//  #03 //020   ----------------------------------------
 BYTE   W96
//  #03 //021   ----------------------------------------
 BYTE   W96
//  #03 //022   ----------------------------------------
 BYTE   W96
//  #03 //023   ----------------------------------------
 BYTE   W96
//  #03 //024   ----------------------------------------
 BYTE   W96
//  #03 //025   ----------------------------------------
 BYTE   W96
//  #03 //026   ----------------------------------------
 BYTE   W96
//  #03 //027   ----------------------------------------
 BYTE   W96
//  #03 //028   ----------------------------------------
 BYTE   W60
 BYTE   N11  Ds4  v110
 BYTE   N17  Gn4
 BYTE   W18
 BYTE   N11  Gn4  v040
 BYTE   W18
//  #03 //029   ----------------------------------------
 BYTE   W60
 BYTE   An3  v110
 BYTE   N17  Gn4
 BYTE   W18
 BYTE   N11  Gn4  v050
 BYTE   W18
//  #03 //030   ----------------------------------------
 BYTE   W96
//  #03 //031   ----------------------------------------
 BYTE   W60
 BYTE   VOICE   56
 BYTE   N06  Gn3  v125
 BYTE   W12
 BYTE   N11  Cn4  v120
 BYTE   W12
 BYTE   N06  Dn4  v115
 BYTE   W12
//  #03 //032   ----------------------------------------
 BYTE   Ds4  v110
 BYTE   W12
 BYTE   Fn4
 BYTE   W12
 BYTE   N28  Gn4  v110  gtp1
 BYTE   W36
 BYTE   Cn4
 BYTE   W36
//  #03 //033   ----------------------------------------
Label_01175C9F:
 BYTE   N05  Gn4  v110
 BYTE   W12
 BYTE   N64  Gs4  v110  gtp1
 BYTE   W24
 BYTE   MOD 3
 BYTE   W48
 BYTE   MOD 0
 BYTE   N11  Gn4
 BYTE   W12
 BYTE   PEND 
//  #03 //034   ----------------------------------------
Label_01175CB0:
 BYTE   W12
 BYTE   N28  Fn4  v110  gtp1
 BYTE   W36
 BYTE   N08
 BYTE   W12
 BYTE   N11  Dn4
 BYTE   W24
 BYTE   As3
 BYTE   W12
 BYTE   PEND 
//  #03 //035   ----------------------------------------
Label_01175CBE:
 BYTE   W12
 BYTE   N28  Gn4  v110  gtp1
 BYTE   W32
 BYTE   W01
 BYTE   N02  Gn4  v070
 BYTE   W03
 BYTE   N08  Gs4  v110
 BYTE   W12
 BYTE   N11  Gn4
 BYTE   W24
 BYTE   Fn4
 BYTE   W12
 BYTE   PEND 
//  #03 //036   ----------------------------------------
Label_01175CD3:
 BYTE   W12
 BYTE   N64  Ds4  v110  gtp1
 BYTE   W24
 BYTE   MOD 3
 BYTE   W48
 BYTE   MOD 0
 BYTE   N11  Dn4
 BYTE   W12
 BYTE   PEND 
//  #03 //037   ----------------------------------------
Label_01175CE1:
 BYTE   W12
 BYTE   N52  Cn4  v110  gtp1
 BYTE   W24
 BYTE   MOD 3
 BYTE   W36
 BYTE   MOD 0
 BYTE   N17
 BYTE   W24
 BYTE   PEND 
//  #03 //038   ----------------------------------------
 BYTE   N11  Ds4
 BYTE   W24
 BYTE   N28  Ds4  v110  gtp1
 BYTE   W36
 BYTE   N84  Dn4  v110  gtp2
 BYTE   W24
 BYTE   MOD 3
 BYTE   W12
//  #03 //039   ----------------------------------------
 BYTE   W56
 BYTE   N36  Ds4  v110  gtp2
 BYTE   W16
 BYTE   MOD 0
 BYTE   W24
//  #03 //040   ----------------------------------------
 BYTE   N20  Fn4
 BYTE   W24
 BYTE   N28  Gn4  v110  gtp1
 BYTE   W36
 BYTE   Cn4
 BYTE   W36
//  #03 //041   ----------------------------------------
 BYTE   PATT
  POIN2 Label_01175C9F
//  #03 //042   ----------------------------------------
 BYTE   PATT
  POIN2 Label_01175CB0
//  #03 //043   ----------------------------------------
 BYTE   PATT
  POIN2 Label_01175CBE
//  #03 //044   ----------------------------------------
 BYTE   PATT
  POIN2 Label_01175CD3
//  #03 //045   ----------------------------------------
 BYTE   PATT
  POIN2 Label_01175CE1
//  #03 //046   ----------------------------------------
 BYTE   N11  Ds4  v110
 BYTE   W24
 BYTE   N28  Ds4  v110  gtp1
 BYTE   W36
 BYTE   TIE  Fn4
 BYTE   W24
 BYTE   MOD 3
 BYTE   W12
//  #03 //047   ----------------------------------------
 BYTE   W72
 BYTE   MOD 0
 BYTE   W24
//  #03 //048   ----------------------------------------
 BYTE   W05
 BYTE   EOT
 BYTE   W90
 BYTE   W01
//  #03 //049   ----------------------------------------
 BYTE   W96
//  #03 //050   ----------------------------------------
 BYTE   W96
//  #03 //051   ----------------------------------------
Label_01175D42:
 BYTE   W36
 BYTE   N11  Gn3  v120
 BYTE   W12
 BYTE   Cn4
 BYTE   W12
 BYTE   Dn4
 BYTE   W12
 BYTE   Ds4
 BYTE   W12
 BYTE   Fn4
 BYTE   W12
 BYTE   PEND 
//  #03 //052   ----------------------------------------
Label_01175D50:
 BYTE   N11  Dn4  v120
 BYTE   W12
 BYTE   Ds4
 BYTE   W12
 BYTE   N23  Cn4
 BYTE   W72
 BYTE   PEND 
//  #03 //053   ----------------------------------------
 BYTE   W96
//  #03 //054   ----------------------------------------
 BYTE   W96
//  #03 //055   ----------------------------------------
 BYTE   W96
//  #03 //056   ----------------------------------------
 BYTE   W96
//  #03 //057   ----------------------------------------
 BYTE   W96
//  #03 //058   ----------------------------------------
 BYTE   W96
//  #03 //059   ----------------------------------------
 BYTE   PATT
  POIN2 Label_01175D42
//  #03 //060   ----------------------------------------
 BYTE   PATT
  POIN2 Label_01175D50
//  #03 //061   ----------------------------------------
 BYTE   W96
//  #03 //062   ----------------------------------------
 BYTE   W12
 BYTE   N17  Gn3  v100
 BYTE   W24
 BYTE   N05  Gn3  v125
 BYTE   W12
 BYTE   N11  Gs3
 BYTE   W12
 BYTE   N05  Gn3
 BYTE   W12
 BYTE   N11  Bn3
 BYTE   W12
 BYTE   N05  Gn3
 BYTE   W12
//  #03 //063   ----------------------------------------
 BYTE   N11  Dn4
 BYTE   W12
 BYTE   N05  Gn3
 BYTE   W12
 BYTE   Gn4  v110
 BYTE   W12
 BYTE   Gn4
 BYTE   W12
 BYTE   N18
 BYTE   W13
 BYTE   BEND   c_v-1
 BYTE   W01
 BYTE   BEND   c_v-4
 BYTE   W01
 BYTE   BEND   c_v-7
 BYTE   W01
 BYTE   BEND   c_v-14
 BYTE   W01
 BYTE   BEND   c_v-17
 BYTE   W01
 BYTE   BEND   c_v-20
 BYTE   W01
 BYTE   BEND   c_v-26
 BYTE   W01
 BYTE   BEND   c_v-29
 BYTE   W01
 BYTE   BEND   c_v-32
 BYTE   W01
 BYTE   BEND   c_v-39
 BYTE   W01
 BYTE   BEND   c_v-42
 BYTE   W01
 BYTE   BEND   c_v-45
 BYTE   W01
 BYTE   BEND   c_v-51
 BYTE   W01
 BYTE   BEND   c_v-54
 BYTE   W01
 BYTE   BEND   c_v-57
 BYTE   W01
 BYTE   BEND   c_v-61
 BYTE   W18
 BYTE   BEND   c_v+0
 BYTE   W02
//  #03 //064   ----------------------------------------
 BYTE   W12
 BYTE   VOICE   62
 BYTE   GoTo
  POIN2 Label_01175C4C
//  #03 //065   ----------------------------------------
 BYTE   W12
 BYTE   FINE

//**************** Track 4 (Midi-Chn.3) ****************//

NearFarFrontier00_004:
//  #04 //000   ----------------------------------------
 BYTE   KEYSH   NearFarFrontier00_key+0
 BYTE   VOICE   26
 BYTE   PAN   c_v+17
 BYTE   BENDR  4
 BYTE   VOL   45*NearFarFrontier00_mvl/mxv
 BYTE   W96
//  #04 //001   ----------------------------------------
 BYTE   W96
//  #04 //002   ----------------------------------------
 BYTE   W96
//  #04 //003   ----------------------------------------
 BYTE   W60
 BYTE   N09  Gn2  v110
 BYTE   W11
 BYTE   BEND   c_v-32
 BYTE   W01
 BYTE   N21  Dn3  v105
 BYTE   W12
 BYTE   BEND   c_v+0
 BYTE   W12
//  #04 //004   ----------------------------------------
 BYTE   N07  Ds3  v100
 BYTE   W12
Label_011C9118:
 BYTE   N08  Fn3  v100
 BYTE   W11
 BYTE   BEND   c_v+32
 BYTE   W01
 BYTE   N32  Fn3  v100  gtp2
 BYTE   W24
 BYTE   BEND   c_v+26
 BYTE   W01
 BYTE   BEND   c_v+20
 BYTE   W01
 BYTE   BEND   c_v+14
 BYTE   W01
 BYTE   BEND   c_v+3
 BYTE   W01
 BYTE   BEND   c_v-10
 BYTE   W01
 BYTE   BEND   c_v-20
 BYTE   W01
 BYTE   BEND   c_v-30
 BYTE   W01
 BYTE   BEND   c_v-50
 BYTE   W01
 BYTE   BEND   c_v-60
 BYTE   W01
 BYTE   BEND   c_v-64
 BYTE   W02
 BYTE   BEND   c_v+0
 BYTE   W01
 BYTE   N32  Cn3  v100  gtp1
 BYTE   W36
//  #04 //005   ----------------------------------------
 BYTE   N08  Gn3  v105
 BYTE   W10
 BYTE   BEND   c_v+16
 BYTE   W02
 BYTE   N64  Fs3  v100  gtp1
 BYTE   W03
 BYTE   BEND   c_v+20
 BYTE   W01
 BYTE   BEND   c_v+24
 BYTE   W01
 BYTE   BEND   c_v+28
 BYTE   W01
 BYTE   BEND   c_v+32
 BYTE   W54
 BYTE   BEND   c_v+26
 BYTE   W01
 BYTE   BEND   c_v+20
 BYTE   W01
 BYTE   BEND   c_v+14
 BYTE   W01
 BYTE   BEND   c_v-2
 BYTE   W01
 BYTE   BEND   c_v-12
 BYTE   W01
 BYTE   BEND   c_v-22
 BYTE   W01
 BYTE   BEND   c_v-32
 BYTE   W06
 BYTE   N12  Gn3
 BYTE   BEND   c_v-24
 BYTE   W01
 BYTE   BEND   c_v-16
 BYTE   W01
 BYTE   BEND   c_v-8
 BYTE   W01
 BYTE   BEND   c_v+0
 BYTE   W09
//  #04 //006   ----------------------------------------
 BYTE   W12
 BYTE   N32  Fn3  v100  gtp1
 BYTE   W24
 BYTE   W01
 BYTE   BEND   c_v-8
 BYTE   W01
 BYTE   BEND   c_v-15
 BYTE   W01
 BYTE   BEND   c_v-22
 BYTE   W01
 BYTE   BEND   c_v-37
 BYTE   W01
 BYTE   BEND   c_v-44
 BYTE   W01
 BYTE   BEND   c_v-51
 BYTE   W01
 BYTE   BEND   c_v-64
 BYTE   W05
 BYTE   N11  Fn3  v110
 BYTE   BEND   c_v-24
 BYTE   W01
 BYTE   BEND   c_v-16
 BYTE   W01
 BYTE   BEND   c_v-8
 BYTE   W01
 BYTE   BEND   c_v+0
 BYTE   W09
 BYTE   N09  Dn3  v080
 BYTE   W24
 BYTE   N11  As2  v100
 BYTE   W12
//  #04 //007   ----------------------------------------
 BYTE   W12
 BYTE   N28  Fs3  v100  gtp1
 BYTE   BEND   c_v+5
 BYTE   W02
 BYTE   BEND   c_v+10
 BYTE   W01
 BYTE   BEND   c_v+15
 BYTE   W01
 BYTE   BEND   c_v+16
 BYTE   W20
 BYTE   BEND   c_v+10
 BYTE   W01
 BYTE   BEND   c_v+4
 BYTE   W01
 BYTE   BEND   c_v-2
 BYTE   W01
 BYTE   BEND   c_v-14
 BYTE   W01
 BYTE   BEND   c_v-20
 BYTE   W01
 BYTE   BEND   c_v-26
 BYTE   W01
 BYTE   BEND   c_v-32
 BYTE   W05
 BYTE   BEND   c_v+0
 BYTE   W01
 BYTE   N22  Gn3  v105
 BYTE   W03
 BYTE   BEND   c_v+4
 BYTE   W01
 BYTE   BEND   c_v+8
 BYTE   W01
 BYTE   BEND   c_v+12
 BYTE   W01
 BYTE   BEND   c_v+16
 BYTE   W06
 BYTE   BEND   c_v+0
 BYTE   W24
 BYTE   N12  Fn3  v100
 BYTE   W12
//  #04 //008   ----------------------------------------
 BYTE   W11
 BYTE   BEND   c_v+16
 BYTE   W01
 BYTE   N66  Dn3
 BYTE   W56
 BYTE   W01
 BYTE   BEND   c_v+9
 BYTE   W01
 BYTE   BEND   c_v+2
 BYTE   W01
 BYTE   BEND   c_v-4
 BYTE   W01
 BYTE   BEND   c_v-18
 BYTE   W01
 BYTE   BEND   c_v-24
 BYTE   W01
 BYTE   BEND   c_v-31
 BYTE   W01
 BYTE   BEND   c_v-44
 BYTE   W01
 BYTE   BEND   c_v-51
 BYTE   W01
 BYTE   BEND   c_v-58
 BYTE   W01
 BYTE   BEND   c_v-64
 BYTE   W04
 BYTE   BEND   c_v+0
 BYTE   W02
 BYTE   N12
 BYTE   W12
//  #04 //009   ----------------------------------------
 BYTE   W11
 BYTE   BEND   c_v+32
 BYTE   W01
 BYTE   N56  As2
 BYTE   W44
 BYTE   W01
 BYTE   BEND   c_v+24
 BYTE   W01
 BYTE   BEND   c_v+16
 BYTE   W01
 BYTE   BEND   c_v+8
 BYTE   W01
 BYTE   BEND   c_v-8
 BYTE   W01
 BYTE   BEND   c_v-16
 BYTE   W01
 BYTE   BEND   c_v-24
 BYTE   W01
 BYTE   BEND   c_v-40
 BYTE   W01
 BYTE   BEND   c_v-48
 BYTE   W01
 BYTE   BEND   c_v-56
 BYTE   W01
 BYTE   BEND   c_v-64
 BYTE   W05
 BYTE   BEND   c_v+0
 BYTE   W01
 BYTE   N20  Cn3  v105
 BYTE   W24
//  #04 //010   ----------------------------------------
 BYTE   N13  Ds3  v100
 BYTE   W24
 BYTE   N32  Dn3
 BYTE   W03
 BYTE   BEND   c_v+4
 BYTE   W01
 BYTE   BEND   c_v+8
 BYTE   W01
 BYTE   BEND   c_v+12
 BYTE   W01
 BYTE   BEND   c_v+16
 BYTE   W17
 BYTE   BEND   c_v+6
 BYTE   W01
 BYTE   BEND   c_v+0
 BYTE   W11
 BYTE   BEND   c_v+32
 BYTE   W01
 BYTE   TIE  Cn3
 BYTE   W36
//  #04 //011   ----------------------------------------
 BYTE   W54
 BYTE   BEND   c_v+27
 BYTE   W01
 BYTE   BEND   c_v+22
 BYTE   W01
 BYTE   BEND   c_v+17
 BYTE   W01
 BYTE   BEND   c_v+7
 BYTE   W01
 BYTE   BEND   c_v+2
 BYTE   W01
 BYTE   BEND   c_v-3
 BYTE   W01
 BYTE   BEND   c_v-15
 BYTE   W01
 BYTE   BEND   c_v-22
 BYTE   W01
 BYTE   BEND   c_v-29
 BYTE   W01
 BYTE   BEND   c_v-43
 BYTE   W01
 BYTE   BEND   c_v-50
 BYTE   W01
 BYTE   EOT
 BYTE   BEND   c_v-57
 BYTE   W01
 BYTE   BEND   c_v-64
 BYTE   W03
 BYTE   BEND   c_v+0
 BYTE   W03
 BYTE   N08  Dn4  v110
 BYTE   W12
 BYTE   N20  Ds4  v085
 BYTE   W12
//  #04 //012   ----------------------------------------
 BYTE   W12
 BYTE   N08  Fn4
 BYTE   W11
 BYTE   BEND   c_v+32
 BYTE   W01
 BYTE   N32  Fn4  v095  gtp2
 BYTE   W24
 BYTE   BEND   c_v+26
 BYTE   W01
 BYTE   BEND   c_v+20
 BYTE   W01
 BYTE   BEND   c_v+14
 BYTE   W01
 BYTE   BEND   c_v+3
 BYTE   W01
 BYTE   BEND   c_v-10
 BYTE   W01
 BYTE   BEND   c_v-20
 BYTE   W01
 BYTE   BEND   c_v-30
 BYTE   W01
 BYTE   BEND   c_v-50
 BYTE   W01
 BYTE   BEND   c_v-60
 BYTE   W01
 BYTE   BEND   c_v-64
 BYTE   W02
 BYTE   BEND   c_v+0
 BYTE   W01
 BYTE   N32  Cn4  v095  gtp1
 BYTE   W36
//  #04 //013   ----------------------------------------
 BYTE   N08  Gn4  v100
 BYTE   W10
 BYTE   BEND   c_v+16
 BYTE   W02
 BYTE   N64  Fs4  v095  gtp1
 BYTE   W03
 BYTE   BEND   c_v+20
 BYTE   W01
 BYTE   BEND   c_v+24
 BYTE   W01
 BYTE   BEND   c_v+28
 BYTE   W01
 BYTE   BEND   c_v+32
 BYTE   W54
 BYTE   BEND   c_v+28
 BYTE   W01
 BYTE   BEND   c_v+24
 BYTE   W01
 BYTE   BEND   c_v+20
 BYTE   W01
 BYTE   BEND   c_v+12
 BYTE   W01
 BYTE   BEND   c_v+8
 BYTE   W01
 BYTE   BEND   c_v+4
 BYTE   W01
 BYTE   BEND   c_v+0
 BYTE   W06
 BYTE   N12  Gn4
 BYTE   W12
//  #04 //014   ----------------------------------------
 BYTE   W12
 BYTE   N32  Fn4  v095  gtp1
 BYTE   W24
 BYTE   W01
 BYTE   BEND   c_v-8
 BYTE   W01
 BYTE   BEND   c_v-15
 BYTE   W01
 BYTE   BEND   c_v-22
 BYTE   W01
 BYTE   BEND   c_v-37
 BYTE   W01
 BYTE   BEND   c_v-44
 BYTE   W01
 BYTE   BEND   c_v-51
 BYTE   W01
 BYTE   BEND   c_v-64
 BYTE   W05
 BYTE   N11  Fn4  v105
 BYTE   BEND   c_v-24
 BYTE   W01
 BYTE   BEND   c_v-16
 BYTE   W01
 BYTE   BEND   c_v-8
 BYTE   W01
 BYTE   BEND   c_v+0
 BYTE   W09
 BYTE   N09  Dn4  v075
 BYTE   W24
 BYTE   N11  As3  v095
 BYTE   W12
//  #04 //015   ----------------------------------------
 BYTE   W12
 BYTE   N28  Fs4  v095  gtp1
 BYTE   BEND   c_v+5
 BYTE   W02
 BYTE   BEND   c_v+10
 BYTE   W01
 BYTE   BEND   c_v+15
 BYTE   W01
 BYTE   BEND   c_v+16
 BYTE   W20
 BYTE   BEND   c_v+10
 BYTE   W01
 BYTE   BEND   c_v+4
 BYTE   W01
 BYTE   BEND   c_v-2
 BYTE   W01
 BYTE   BEND   c_v-14
 BYTE   W01
 BYTE   BEND   c_v-20
 BYTE   W01
 BYTE   BEND   c_v-26
 BYTE   W01
 BYTE   BEND   c_v-32
 BYTE   W05
 BYTE   BEND   c_v+0
 BYTE   W01
 BYTE   N22  Gn4  v100
 BYTE   W03
 BYTE   BEND   c_v+4
 BYTE   W01
 BYTE   BEND   c_v+8
 BYTE   W01
 BYTE   BEND   c_v+12
 BYTE   W01
 BYTE   BEND   c_v+16
 BYTE   W06
 BYTE   BEND   c_v+0
 BYTE   W24
 BYTE   N12  Fn4  v095
 BYTE   W12
//  #04 //016   ----------------------------------------
 BYTE   W11
 BYTE   BEND   c_v+16
 BYTE   W01
 BYTE   N66  Dn4
 BYTE   W56
 BYTE   W01
 BYTE   BEND   c_v+9
 BYTE   W01
 BYTE   BEND   c_v+2
 BYTE   W01
 BYTE   BEND   c_v-4
 BYTE   W01
 BYTE   BEND   c_v-18
 BYTE   W01
 BYTE   BEND   c_v-24
 BYTE   W01
 BYTE   BEND   c_v-31
 BYTE   W01
 BYTE   BEND   c_v-44
 BYTE   W01
 BYTE   BEND   c_v-51
 BYTE   W01
 BYTE   BEND   c_v-58
 BYTE   W01
 BYTE   BEND   c_v-64
 BYTE   W04
 BYTE   BEND   c_v+0
 BYTE   W02
 BYTE   N12
 BYTE   W12
//  #04 //017   ----------------------------------------
 BYTE   W11
 BYTE   BEND   c_v+32
 BYTE   W01
 BYTE   N56  As3
 BYTE   W44
 BYTE   W01
 BYTE   BEND   c_v+24
 BYTE   W01
 BYTE   BEND   c_v+16
 BYTE   W01
 BYTE   BEND   c_v+8
 BYTE   W01
 BYTE   BEND   c_v-8
 BYTE   W01
 BYTE   BEND   c_v-16
 BYTE   W01
 BYTE   BEND   c_v-24
 BYTE   W01
 BYTE   BEND   c_v-40
 BYTE   W01
 BYTE   BEND   c_v-48
 BYTE   W01
 BYTE   BEND   c_v-56
 BYTE   W01
 BYTE   BEND   c_v-64
 BYTE   W05
 BYTE   BEND   c_v+0
 BYTE   W01
 BYTE   N20  Cn4  v100
 BYTE   W24
//  #04 //018   ----------------------------------------
 BYTE   N13  Ds4  v095
 BYTE   W24
 BYTE   N28  Dn4  v085  gtp1
 BYTE   W03
 BYTE   BEND   c_v+4
 BYTE   W01
 BYTE   BEND   c_v+8
 BYTE   W01
 BYTE   BEND   c_v+12
 BYTE   W01
 BYTE   BEND   c_v+16
 BYTE   W18
 BYTE   BEND   c_v+6
 BYTE   W01
 BYTE   BEND   c_v-4
 BYTE   W01
 BYTE   BEND   c_v-14
 BYTE   W01
 BYTE   BEND   c_v-34
 BYTE   W01
 BYTE   BEND   c_v-44
 BYTE   W01
 BYTE   BEND   c_v-54
 BYTE   W01
 BYTE   BEND   c_v-64
 BYTE   W05
 BYTE   BEND   c_v+16
 BYTE   W01
 BYTE   TIE  Ds4
 BYTE   W03
 BYTE   BEND   c_v+20
 BYTE   W01
 BYTE   BEND   c_v+24
 BYTE   W01
 BYTE   BEND   c_v+28
 BYTE   W01
 BYTE   BEND   c_v+32
 BYTE   W30
//  #04 //019   ----------------------------------------
 BYTE   W66
 BYTE   BEND   c_v+28
 BYTE   W01
 BYTE   BEND   c_v+24
 BYTE   W01
 BYTE   BEND   c_v+20
 BYTE   W01
 BYTE   BEND   c_v+12
 BYTE   W01
 BYTE   BEND   c_v+8
 BYTE   W01
 BYTE   BEND   c_v+4
 BYTE   W01
 BYTE   BEND   c_v-8
 BYTE   W01
 BYTE   BEND   c_v-16
 BYTE   W01
 BYTE   BEND   c_v-24
 BYTE   W01
 BYTE   BEND   c_v-40
 BYTE   W01
 BYTE   BEND   c_v-48
 BYTE   W01
 BYTE   EOT
 BYTE   BEND   c_v-56
 BYTE   W01
 BYTE   BEND   c_v-64
 BYTE   W05
 BYTE   BEND   c_v+0
 BYTE   W01
 BYTE   N23  Ds3  v100
 BYTE   W12
//  #04 //020   ----------------------------------------
 BYTE   W12
 BYTE   N11  Fn3  v080
 BYTE   W12
 BYTE   BEND   c_v-16
 BYTE   N32  Gn3  v100  gtp3
 BYTE   W03
 BYTE   BEND   c_v-12
 BYTE   W01
 BYTE   BEND   c_v-8
 BYTE   W01
 BYTE   BEND   c_v-4
 BYTE   W01
 BYTE   BEND   c_v+0
 BYTE   W19
 BYTE   BEND   c_v-6
 BYTE   W02
 BYTE   BEND   c_v-12
 BYTE   W01
 BYTE   BEND   c_v-18
 BYTE   W02
 BYTE   BEND   c_v-31
 BYTE   W01
 BYTE   BEND   c_v-37
 BYTE   W01
 BYTE   BEND   c_v-43
 BYTE   W01
 BYTE   BEND   c_v-56
 BYTE   W01
 BYTE   BEND   c_v-64
 BYTE   W02
 BYTE   BEND   c_v+0
 BYTE   N32  Cn3  v100  gtp2
 BYTE   W32
 BYTE   W03
 BYTE   BEND   c_v-16
 BYTE   W01
//  #04 //021   ----------------------------------------
 BYTE   N11  Fn3
 BYTE   W03
 BYTE   BEND   c_v-12
 BYTE   W01
 BYTE   BEND   c_v-8
 BYTE   W01
 BYTE   BEND   c_v-4
 BYTE   W01
 BYTE   BEND   c_v+0
 BYTE   W06
 BYTE   BEND   c_v+16
 BYTE   N52  Cs3  v100  gtp1
 BYTE   W42
 BYTE   BEND   c_v+12
 BYTE   W01
 BYTE   BEND   c_v+8
 BYTE   W01
 BYTE   BEND   c_v+4
 BYTE   W01
 BYTE   BEND   c_v-4
 BYTE   W01
 BYTE   BEND   c_v-8
 BYTE   W01
 BYTE   BEND   c_v-12
 BYTE   W01
 BYTE   BEND   c_v-22
 BYTE   W01
 BYTE   BEND   c_v-28
 BYTE   W01
 BYTE   BEND   c_v-34
 BYTE   W01
 BYTE   BEND   c_v-46
 BYTE   W01
 BYTE   BEND   c_v-52
 BYTE   W01
 BYTE   BEND   c_v-58
 BYTE   W01
 BYTE   BEND   c_v-64
 BYTE   W04
 BYTE   BEND   c_v+0
 BYTE   W02
 BYTE   N21  Dn3
 BYTE   W12
 BYTE   BEND   c_v+16
 BYTE   W11
 BYTE   BEND   c_v+0
 BYTE   W01
//  #04 //022   ----------------------------------------
 BYTE   N08  Dn3  v090
 BYTE   W12
 BYTE   N44  As2  v100  gtp3
 BYTE   W48
 BYTE   TIE  Bn2
 BYTE   W03
 BYTE   BEND   c_v+4
 BYTE   W01
 BYTE   BEND   c_v+8
 BYTE   W01
 BYTE   BEND   c_v+12
 BYTE   W01
 BYTE   BEND   c_v+16
 BYTE   W30
//  #04 //023   ----------------------------------------
 BYTE   W60
 BYTE   BEND   c_v+12
 BYTE   W01
 BYTE   BEND   c_v+8
 BYTE   W01
 BYTE   BEND   c_v+4
 BYTE   W01
 BYTE   BEND   c_v-4
 BYTE   W01
 BYTE   BEND   c_v-8
 BYTE   W01
 BYTE   BEND   c_v-12
 BYTE   W01
 BYTE   BEND   c_v-22
 BYTE   W01
 BYTE   BEND   c_v-28
 BYTE   W01
 BYTE   BEND   c_v-34
 BYTE   W01
 BYTE   BEND   c_v-46
 BYTE   W01
 BYTE   BEND   c_v-52
 BYTE   W01
 BYTE   EOT
 BYTE   BEND   c_v-58
 BYTE   W01
 BYTE   BEND   c_v-64
 BYTE   W09
 BYTE   BEND   c_v+0
 BYTE   W03
 BYTE   N23  Ds3
 BYTE   W12
//  #04 //024   ----------------------------------------
 BYTE   W12
 BYTE   N11  Fn3  v080
 BYTE   W11
 BYTE   BEND   c_v-8
 BYTE   W01
 BYTE   N32  Gn3  v100  gtp3
 BYTE   W04
 BYTE   BEND   c_v-4
 BYTE   W02
 BYTE   BEND   c_v+0
 BYTE   W19
 BYTE   BEND   c_v-6
 BYTE   W02
 BYTE   BEND   c_v-12
 BYTE   W01
 BYTE   BEND   c_v-18
 BYTE   W02
 BYTE   BEND   c_v-32
 BYTE   W01
 BYTE   BEND   c_v-39
 BYTE   W01
 BYTE   BEND   c_v-46
 BYTE   W01
 BYTE   BEND   c_v-60
 BYTE   W01
 BYTE   BEND   c_v-64
 BYTE   W01
 BYTE   BEND   c_v+0
 BYTE   W01
 BYTE   N32  Cn3  v100  gtp2
 BYTE   W32
 BYTE   W03
 BYTE   BEND   c_v-16
 BYTE   W01
//  #04 //025   ----------------------------------------
 BYTE   N11  Fn3
 BYTE   W03
 BYTE   BEND   c_v-10
 BYTE   W01
 BYTE   BEND   c_v-6
 BYTE   W01
 BYTE   BEND   c_v-3
 BYTE   W01
 BYTE   BEND   c_v+0
 BYTE   W06
 BYTE   BEND   c_v+16
 BYTE   N52  Cs3  v100  gtp1
 BYTE   W42
 BYTE   BEND   c_v+12
 BYTE   W01
 BYTE   BEND   c_v+8
 BYTE   W01
 BYTE   BEND   c_v+4
 BYTE   W01
 BYTE   BEND   c_v-4
 BYTE   W01
 BYTE   BEND   c_v-8
 BYTE   W01
 BYTE   BEND   c_v-12
 BYTE   W01
 BYTE   BEND   c_v-22
 BYTE   W01
 BYTE   BEND   c_v-28
 BYTE   W01
 BYTE   BEND   c_v-34
 BYTE   W01
 BYTE   BEND   c_v-46
 BYTE   W01
 BYTE   BEND   c_v-52
 BYTE   W01
 BYTE   BEND   c_v-58
 BYTE   W01
 BYTE   BEND   c_v-64
 BYTE   W05
 BYTE   BEND   c_v+0
 BYTE   W01
 BYTE   N20  Dn3
 BYTE   W12
 BYTE   BEND   c_v+16
 BYTE   W11
 BYTE   BEND   c_v+0
 BYTE   W01
//  #04 //026   ----------------------------------------
 BYTE   N08
 BYTE   W12
 BYTE   N44  As2  v100  gtp3
 BYTE   W36
 BYTE   BEND   c_v-4
 BYTE   W01
 BYTE   BEND   c_v-8
 BYTE   W01
 BYTE   BEND   c_v-12
 BYTE   W01
 BYTE   BEND   c_v-20
 BYTE   W01
 BYTE   BEND   c_v-24
 BYTE   W01
 BYTE   BEND   c_v-28
 BYTE   W01
 BYTE   BEND   c_v-36
 BYTE   W01
 BYTE   BEND   c_v-40
 BYTE   W01
 BYTE   BEND   c_v-44
 BYTE   W01
 BYTE   BEND   c_v-48
 BYTE   W02
 BYTE   BEND   c_v+0
 BYTE   W01
 BYTE   N32  Gn2  v105  gtp3
 BYTE   W32
 BYTE   W03
 BYTE   BEND   c_v+16
 BYTE   W01
//  #04 //027   ----------------------------------------
 BYTE   N11  Ds3  v100
 BYTE   W03
 BYTE   BEND   c_v+20
 BYTE   W01
 BYTE   BEND   c_v+24
 BYTE   W01
 BYTE   BEND   c_v+28
 BYTE   W01
 BYTE   BEND   c_v+32
 BYTE   W06
 BYTE   BEND   c_v+0
 BYTE   N64  Ds3  v100  gtp1
 BYTE   W54
 BYTE   W01
 BYTE   BEND   c_v-6
 BYTE   W02
 BYTE   BEND   c_v-12
 BYTE   W01
 BYTE   BEND   c_v-18
 BYTE   W02
 BYTE   BEND   c_v-29
 BYTE   W01
 BYTE   BEND   c_v-34
 BYTE   W01
 BYTE   BEND   c_v-39
 BYTE   W01
 BYTE   BEND   c_v-49
 BYTE   W01
 BYTE   BEND   c_v-54
 BYTE   W01
 BYTE   BEND   c_v-59
 BYTE   W01
 BYTE   BEND   c_v-64
 BYTE   W03
 BYTE   BEND   c_v+0
 BYTE   W03
 BYTE   N11  Cn3  v085
 BYTE   N11  Ds3  v100
 BYTE   W12
//  #04 //028   ----------------------------------------
 BYTE   N07  Dn3  v085
 BYTE   N07  Fn3  v090
 BYTE   W12
 BYTE   N44  Dn3  v065  gtp3
 BYTE   N64  Fs3  v100  gtp1
 BYTE   W03
 BYTE   BEND   c_v+4
 BYTE   W01
 BYTE   BEND   c_v+8
 BYTE   W01
 BYTE   BEND   c_v+12
 BYTE   W01
 BYTE   BEND   c_v+16
 BYTE   W48
 BYTE   W01
 BYTE   BEND   c_v+10
 BYTE   W02
 BYTE   BEND   c_v+4
 BYTE   W01
 BYTE   BEND   c_v-2
 BYTE   W02
 BYTE   BEND   c_v-13
 BYTE   W01
 BYTE   BEND   c_v-18
 BYTE   W01
 BYTE   BEND   c_v-22
 BYTE   W01
 BYTE   BEND   c_v-32
 BYTE   W01
 BYTE   BEND   c_v-36
 BYTE   W01
 BYTE   BEND   c_v-41
 BYTE   W01
 BYTE   BEND   c_v-50
 BYTE   W01
 BYTE   BEND   c_v-55
 BYTE   W01
 BYTE   BEND   c_v-60
 BYTE   W01
 BYTE   BEND   c_v-64
 BYTE   W02
 BYTE   BEND   c_v+0
 BYTE   W01
 BYTE   N11  Cn3  v085
 BYTE   N11  Ds3  v100
 BYTE   W12
//  #04 //029   ----------------------------------------
 BYTE   N07  Dn3  v085
 BYTE   N07  Fn3  v090
 BYTE   W12
 BYTE   N44  Gs2  v065  gtp3
 BYTE   N64  Fs3  v100  gtp1
 BYTE   W03
 BYTE   BEND   c_v+4
 BYTE   W01
 BYTE   BEND   c_v+8
 BYTE   W01
 BYTE   BEND   c_v+12
 BYTE   W01
 BYTE   BEND   c_v+16
 BYTE   W48
 BYTE   W01
 BYTE   BEND   c_v+10
 BYTE   W02
 BYTE   BEND   c_v+4
 BYTE   W01
 BYTE   BEND   c_v-2
 BYTE   W02
 BYTE   BEND   c_v-13
 BYTE   W01
 BYTE   BEND   c_v-18
 BYTE   W01
 BYTE   BEND   c_v-22
 BYTE   W01
 BYTE   BEND   c_v-32
 BYTE   W01
 BYTE   BEND   c_v-36
 BYTE   W01
 BYTE   BEND   c_v-41
 BYTE   W01
 BYTE   BEND   c_v-50
 BYTE   W01
 BYTE   BEND   c_v-55
 BYTE   W01
 BYTE   BEND   c_v-60
 BYTE   W01
 BYTE   BEND   c_v-64
 BYTE   W02
 BYTE   BEND   c_v+0
 BYTE   W01
 BYTE   N11  Cn3  v085
 BYTE   N11  Ds3  v100
 BYTE   W12
//  #04 //030   ----------------------------------------
 BYTE   N07  Dn3  v085
 BYTE   N07  Fn3  v090
 BYTE   W12
 BYTE   TIE  As2  v060
 BYTE   TIE  Fs3  v100
 BYTE   W07
 BYTE   BEND   c_v+4
 BYTE   W02
 BYTE   BEND   c_v+8
 BYTE   W01
 BYTE   BEND   c_v+12
 BYTE   W02
 BYTE   BEND   c_v+16
 BYTE   W22
 BYTE   BEND   c_v+3
 BYTE   W01
 BYTE   BEND   c_v-9
 BYTE   W01
 BYTE   BEND   c_v-24
 BYTE   W01
 BYTE   BEND   c_v-19
 BYTE   W01
 BYTE   BEND   c_v-8
 BYTE   W01
 BYTE   BEND   c_v-2
 BYTE   W01
 BYTE   BEND   c_v+3
 BYTE   W01
 BYTE   BEND   c_v+14
 BYTE   W01
 BYTE   BEND   c_v+16
 BYTE   W16
 BYTE   BEND   c_v+6
 BYTE   W01
 BYTE   BEND   c_v-4
 BYTE   W01
 BYTE   BEND   c_v-8
 BYTE   W01
 BYTE   BEND   c_v-2
 BYTE   W02
 BYTE   BEND   c_v+4
 BYTE   W01
 BYTE   BEND   c_v+10
 BYTE   W02
 BYTE   BEND   c_v+16
 BYTE   W18
//  #04 //031   ----------------------------------------
 BYTE   W42
 BYTE   W01
 BYTE   BEND   c_v+10
 BYTE   W02
 BYTE   BEND   c_v+4
 BYTE   W01
 BYTE   BEND   c_v-2
 BYTE   W02
 BYTE   BEND   c_v-15
 BYTE   W01
 BYTE   BEND   c_v-22
 BYTE   W01
 BYTE   BEND   c_v-29
 BYTE   W01
 BYTE   BEND   c_v-43
 BYTE   W01
 BYTE   BEND   c_v-50
 BYTE   W01
 BYTE   EOT
 BYTE   As2  v066
 BYTE   BEND   c_v-57
 BYTE   W01
 BYTE   BEND   c_v-64
 BYTE   W42
//  #04 //032   ----------------------------------------
 BYTE   W24
 BYTE   BEND   c_v+0
 BYTE   W72
//  #04 //033   ----------------------------------------
 BYTE   W96
//  #04 //034   ----------------------------------------
 BYTE   W96
//  #04 //035   ----------------------------------------
 BYTE   W96
//  #04 //036   ----------------------------------------
 BYTE   W96
//  #04 //037   ----------------------------------------
 BYTE   W96
//  #04 //038   ----------------------------------------
 BYTE   W96
//  #04 //039   ----------------------------------------
 BYTE   W56
 BYTE   N36  Cn4  v050  gtp2
 BYTE   W40
//  #04 //040   ----------------------------------------
 BYTE   N20  Dn4
 BYTE   W24
 BYTE   N28  Ds4  v050  gtp1
 BYTE   W36
 BYTE   Gn3
 BYTE   W36
//  #04 //041   ----------------------------------------
 BYTE   N05  Ds4
 BYTE   W12
 BYTE   N32  Fn4  v050  gtp3
 BYTE   W36
 BYTE   N23  Ds4
 BYTE   W24
 BYTE   N11  Dn4
 BYTE   W12
 BYTE   Cn4
 BYTE   W12
//  #04 //042   ----------------------------------------
 BYTE   W12
 BYTE   N28  Dn4  v050  gtp1
 BYTE   W36
 BYTE   N11
 BYTE   W12
 BYTE   As3
 BYTE   W24
 BYTE   Fn3
 BYTE   W12
//  #04 //043   ----------------------------------------
 BYTE   W12
 BYTE   N28  Ds4  v050  gtp1
 BYTE   W36
 BYTE   N11  Fn4
 BYTE   W12
 BYTE   Ds4
 BYTE   W24
 BYTE   Dn4
 BYTE   W12
//  #04 //044   ----------------------------------------
 BYTE   W12
 BYTE   N64  Cn4  v050  gtp1
 BYTE   W72
 BYTE   N11  As3
 BYTE   W12
//  #04 //045   ----------------------------------------
 BYTE   W12
 BYTE   N52  Gs3  v050  gtp1
 BYTE   W60
 BYTE   N23
 BYTE   W24
//  #04 //046   ----------------------------------------
 BYTE   N11  Cn4
 BYTE   W24
 BYTE   N28  Cn4  v050  gtp1
 BYTE   W36
 BYTE   TIE  Dn4
 BYTE   W36
//  #04 //047   ----------------------------------------
 BYTE   W96
//  #04 //048   ----------------------------------------
 BYTE   W05
 BYTE   EOT
 BYTE   W48
 BYTE   W01
 BYTE   BEND   c_v-6
 BYTE   W01
 BYTE   BEND   c_v-11
 BYTE   W01
 BYTE   BEND   c_v-16
 BYTE   W01
 BYTE   BEND   c_v-27
 BYTE   W01
 BYTE   BEND   c_v-32
 BYTE   W02
 BYTE   BEND   c_v-30
 BYTE   N23  Ds4  v070
 BYTE   N23  Gn4  v110
 BYTE   W01
 BYTE   BEND   c_v-27
 BYTE   W02
 BYTE   BEND   c_v-24
 BYTE   W01
 BYTE   BEND   c_v-21
 BYTE   W02
 BYTE   BEND   c_v-19
 BYTE   W01
 BYTE   BEND   c_v-16
 BYTE   W02
 BYTE   BEND   c_v-13
 BYTE   W01
 BYTE   BEND   c_v-10
 BYTE   W02
 BYTE   BEND   c_v-8
 BYTE   W01
 BYTE   BEND   c_v-5
 BYTE   W02
 BYTE   BEND   c_v+0
 BYTE   W09
 BYTE   N11  Dn4  v070
 BYTE   N11  Fn4  v110
 BYTE   W12
//  #04 //049   ----------------------------------------
Label_011C9643:
 BYTE   N11  Cn4  v070
 BYTE   N11  Ds4  v110
 BYTE   W12
 BYTE   N40  Cs4  v070  gtp1
 BYTE   En4  v110
 BYTE   W03
 BYTE   BEND   c_v+4
 BYTE   W01
 BYTE   BEND   c_v+8
 BYTE   W01
 BYTE   BEND   c_v+12
 BYTE   W01
 BYTE   BEND   c_v+16
 BYTE   W24
 BYTE   W01
 BYTE   BEND   c_v+10
 BYTE   W02
 BYTE   BEND   c_v+4
 BYTE   W01
 BYTE   BEND   c_v-2
 BYTE   W02
 BYTE   BEND   c_v-15
 BYTE   W01
 BYTE   BEND   c_v-22
 BYTE   W01
 BYTE   BEND   c_v-29
 BYTE   W01
 BYTE   BEND   c_v-43
 BYTE   W01
 BYTE   BEND   c_v-50
 BYTE   W01
 BYTE   BEND   c_v-57
 BYTE   W01
 BYTE   BEND   c_v-64
 BYTE   W12
 BYTE   BEND   c_v+0
 BYTE   W06
 BYTE   N15  As3  v070
 BYTE   N15  Dn4  v110
 BYTE   W16
 BYTE   Cn4  v070
 BYTE   N15  Ds4  v110
 BYTE   W08
 BYTE   PEND 
//  #04 //050   ----------------------------------------
Label_011C967F:
 BYTE   W08
 BYTE   N15  Dn4  v070
 BYTE   N15  Fn4  v110
 BYTE   W16
 BYTE   N92  As3  v070  gtp3
 BYTE   Dn4  v110
 BYTE   W72
 BYTE   PEND 
//  #04 //051   ----------------------------------------
Label_011C968F:
 BYTE   W36
 BYTE   N11  Ds3  v070
 BYTE   W12
 BYTE   Gn3
 BYTE   W12
 BYTE   As3
 BYTE   W12
 BYTE   Cn4
 BYTE   W12
 BYTE   Dn4
 BYTE   W12
 BYTE   PEND 
//  #04 //052   ----------------------------------------
 BYTE   As3
 BYTE   W12
 BYTE   Cn4
 BYTE   W12
 BYTE   Gs3
 BYTE   W30
 BYTE   BEND   c_v-6
 BYTE   W01
 BYTE   BEND   c_v-11
 BYTE   W01
 BYTE   BEND   c_v-16
 BYTE   W01
 BYTE   BEND   c_v-27
 BYTE   W01
 BYTE   BEND   c_v-32
 BYTE   W02
 BYTE   BEND   c_v-30
 BYTE   N23  Ds4
 BYTE   N23  Gn4  v110
 BYTE   W01
 BYTE   BEND   c_v-27
 BYTE   W02
 BYTE   BEND   c_v-24
 BYTE   W01
 BYTE   BEND   c_v-21
 BYTE   W02
 BYTE   BEND   c_v-19
 BYTE   W01
 BYTE   BEND   c_v-16
 BYTE   W02
 BYTE   BEND   c_v-13
 BYTE   W01
 BYTE   BEND   c_v-10
 BYTE   W02
 BYTE   BEND   c_v-8
 BYTE   W01
 BYTE   BEND   c_v-5
 BYTE   W02
 BYTE   BEND   c_v+0
 BYTE   W09
 BYTE   N11  Dn4  v070
 BYTE   N11  Fn4  v110
 BYTE   W12
//  #04 //053   ----------------------------------------
 BYTE   Cn4  v070
 BYTE   N11  Ds4  v110
 BYTE   W12
 BYTE   N40  Dn4  v070  gtp1
 BYTE   Fn4  v110
 BYTE   W60
 BYTE   N11  Dn4  v070
 BYTE   N11  As4  v110
 BYTE   W12
 BYTE   N07  Dn4  v070
 BYTE   N09  Cn5  v100
 BYTE   W12
//  #04 //054   ----------------------------------------
 BYTE   W11
 BYTE   BEND   c_v+16
 BYTE   W01
 BYTE   TIE  Dn4  v070
 BYTE   TIE  Fs4  v110
 BYTE   W84
//  #04 //055   ----------------------------------------
 BYTE   W06
 BYTE   BEND   c_v+12
 BYTE   W01
 BYTE   BEND   c_v+8
 BYTE   W01
 BYTE   BEND   c_v+4
 BYTE   W01
 BYTE   BEND   c_v-4
 BYTE   W01
 BYTE   BEND   c_v-8
 BYTE   W01
 BYTE   BEND   c_v-12
 BYTE   W01
 BYTE   BEND   c_v-22
 BYTE   W01
 BYTE   BEND   c_v-28
 BYTE   W01
 BYTE   BEND   c_v-34
 BYTE   W01
 BYTE   BEND   c_v-46
 BYTE   W01
 BYTE   BEND   c_v-52
 BYTE   W01
 BYTE   EOT
 BYTE   Dn4  v078
 BYTE   BEND   c_v-58
 BYTE   W01
 BYTE   BEND   c_v-64
 BYTE   W05
 BYTE   BEND   c_v-16
 BYTE   W01
 BYTE   N44  Cn4  v080  gtp3
 BYTE   Ds5  v110
 BYTE   W03
 BYTE   BEND   c_v-12
 BYTE   W01
 BYTE   BEND   c_v-8
 BYTE   W01
 BYTE   BEND   c_v-4
 BYTE   W01
 BYTE   BEND   c_v+0
 BYTE   W42
 BYTE   N15  As3  v080
 BYTE   N15  Dn5  v110
 BYTE   W16
 BYTE   Cn4  v080
 BYTE   N15  Ds5  v110
 BYTE   W08
//  #04 //056   ----------------------------------------
 BYTE   W08
 BYTE   Dn4  v080
 BYTE   N15  Fn5  v110
 BYTE   W15
 BYTE   BEND   c_v+32
 BYTE   W01
 BYTE   N23  Fs3  v080
 BYTE   N23  As4  v110
 BYTE   W13
 BYTE   BEND   c_v+26
 BYTE   W02
 BYTE   BEND   c_v+20
 BYTE   W01
 BYTE   BEND   c_v+14
 BYTE   W02
 BYTE   BEND   c_v+2
 BYTE   W01
 BYTE   BEND   c_v-4
 BYTE   W01
 BYTE   BEND   c_v-10
 BYTE   W01
 BYTE   BEND   c_v-28
 BYTE   W01
 BYTE   BEND   c_v-40
 BYTE   W01
 BYTE   BEND   c_v-52
 BYTE   W01
 BYTE   BEND   c_v-64
 BYTE   W10
 BYTE   BEND   c_v-32
 BYTE   W02
 BYTE   BEND   c_v-30
 BYTE   N23  Ds4  v070
 BYTE   N23  Gn4  v110
 BYTE   W01
 BYTE   BEND   c_v-27
 BYTE   W02
 BYTE   BEND   c_v-24
 BYTE   W01
 BYTE   BEND   c_v-21
 BYTE   W02
 BYTE   BEND   c_v-19
 BYTE   W01
 BYTE   BEND   c_v-16
 BYTE   W02
 BYTE   BEND   c_v-13
 BYTE   W01
 BYTE   BEND   c_v-10
 BYTE   W02
 BYTE   BEND   c_v-8
 BYTE   W01
 BYTE   BEND   c_v-5
 BYTE   W02
 BYTE   BEND   c_v+0
 BYTE   W09
 BYTE   N11  Dn4  v070
 BYTE   N11  Fn4  v110
 BYTE   W12
//  #04 //057   ----------------------------------------
 BYTE   PATT
  POIN2 Label_011C9643
//  #04 //058   ----------------------------------------
 BYTE   PATT
  POIN2 Label_011C967F
//  #04 //059   ----------------------------------------
 BYTE   PATT
  POIN2 Label_011C968F
//  #04 //060   ----------------------------------------
 BYTE   N11  As3  v070
 BYTE   W12
 BYTE   Cn4
 BYTE   W12
 BYTE   Gs3
 BYTE   W30
 BYTE   BEND   c_v-6
 BYTE   W01
 BYTE   BEND   c_v-11
 BYTE   W01
 BYTE   BEND   c_v-16
 BYTE   W01
 BYTE   BEND   c_v-27
 BYTE   W01
 BYTE   BEND   c_v-32
 BYTE   W02
 BYTE   BEND   c_v-30
 BYTE   N23  Ds4
 BYTE   N23  Gn4  v110
 BYTE   W01
 BYTE   BEND   c_v-27
 BYTE   W02
 BYTE   BEND   c_v-24
 BYTE   W01
 BYTE   BEND   c_v-21
 BYTE   W02
 BYTE   BEND   c_v-18
 BYTE   W01
 BYTE   BEND   c_v-16
 BYTE   W02
 BYTE   BEND   c_v-13
 BYTE   W01
 BYTE   BEND   c_v-10
 BYTE   W02
 BYTE   BEND   c_v-7
 BYTE   W01
 BYTE   BEND   c_v-4
 BYTE   W02
 BYTE   BEND   c_v+0
 BYTE   W09
 BYTE   N11  Dn4  v070
 BYTE   N11  Fn4  v110
 BYTE   W12
//  #04 //061   ----------------------------------------
 BYTE   Cn4  v070
 BYTE   N11  Ds4  v110
 BYTE   W12
 BYTE   N40  Dn4  v070  gtp1
 BYTE   Fn4  v110
 BYTE   W60
 BYTE   N11  Dn4  v070
 BYTE   N11  As4  v110
 BYTE   W12
 BYTE   N07  Dn4  v070
 BYTE   N07  Cn5  v110
 BYTE   W12
//  #04 //062   ----------------------------------------
 BYTE   W12
 BYTE   TIE  Bn3  v070
 BYTE   TIE  Gn4  v110
 BYTE   W84
//  #04 //063   ----------------------------------------
 BYTE   W23
 BYTE   EOT
 BYTE   Bn3  v079
 BYTE   W36
 BYTE   W01
 BYTE   N09  Gn2  v120
 BYTE   W11
 BYTE   BEND   c_v-32
 BYTE   W01
 BYTE   N21  Dn3  v115
 BYTE   W12
 BYTE   BEND   c_v+0
 BYTE   W12
//  #04 //064   ----------------------------------------
 BYTE   N07  Ds3  v110
 BYTE   W12
 BYTE   N08  Fn3
 BYTE   GoTo
  POIN2 Label_011C9118
//  #04 //065   ----------------------------------------
 BYTE   W11
 BYTE   PAN   c_v+12
 BYTE   BENDR  127
 BYTE   VOL   50*NearFarFrontier00_mvl/mxv
 BYTE   BEND   c_v+32
 BYTE   W01
 BYTE   FINE

//**************** Track 5 (Midi-Chn.4) ****************//

NearFarFrontier00_005:
//  #05 //000   ----------------------------------------
 BYTE   KEYSH   NearFarFrontier00_key+0
 BYTE   VOICE   30
 BYTE   VOL   41*NearFarFrontier00_mvl/mxv
 BYTE   W24
 BYTE   N44  Cn2  v060  gtp3
 BYTE   W48
 BYTE   Dn2
 BYTE   W24
//  #05 //001   ----------------------------------------
 BYTE   W24
 BYTE   N48  Gs1  v065
 BYTE   W48
 BYTE   N44  As1  v075  gtp3
 BYTE   W24
//  #05 //002   ----------------------------------------
 BYTE   W24
 BYTE   N92  Gn1  v080  gtp3
 BYTE   W72
//  #05 //003   ----------------------------------------
 BYTE   W24
 BYTE   N10  Gn1  v105
 BYTE   W72
//  #05 //004   ----------------------------------------
 BYTE   N23  Fn1  v110
 BYTE   W12
Label_011C983B:
 BYTE   W12
 BYTE   N03  Cn2  v085
 BYTE   W12
 BYTE   Cn2
 BYTE   W12
 BYTE   N11  Cn2  v105
 BYTE   W12
 BYTE   N03  Cn2  v085
 BYTE   W12
 BYTE   Cn2
 BYTE   W12
 BYTE   N11  Cn2  v105
 BYTE   W12
//  #05 //005   ----------------------------------------
Label_011C9850:
 BYTE   N03  Cn2  v085
 BYTE   W12
 BYTE   N23  Fn1  v105
 BYTE   W24
 BYTE   N03  Fn1  v085
 BYTE   W12
 BYTE   N11  Fn1  v105
 BYTE   W12
 BYTE   N03  Fn1  v085
 BYTE   W12
 BYTE   Fn1
 BYTE   W12
 BYTE   N11  Fn1  v105
 BYTE   W12
 BYTE   PEND 
//  #05 //006   ----------------------------------------
Label_011C986B:
 BYTE   N03  Fn1  v085
 BYTE   W12
 BYTE   N23  As1  v105
 BYTE   W24
 BYTE   N03  As1  v085
 BYTE   W12
 BYTE   N11  As1  v105
 BYTE   W12
 BYTE   N03  As1  v085
 BYTE   W12
 BYTE   As1
 BYTE   W12
 BYTE   N11  As1  v105
 BYTE   W12
 BYTE   PEND 
//  #05 //007   ----------------------------------------
Label_011C9886:
 BYTE   N03  As1  v085
 BYTE   W12
 BYTE   N23  Ds2  v105
 BYTE   W24
 BYTE   N03  Ds2  v085
 BYTE   W12
 BYTE   N06  Ds2  v105
 BYTE   W12
 BYTE   N23  Dn2
 BYTE   W24
 BYTE   N03  Dn2  v085
 BYTE   W12
 BYTE   PEND 
//  #05 //008   ----------------------------------------
Label_011C989E:
 BYTE   N06  Dn2  v105
 BYTE   W12
 BYTE   N23  Cn2
 BYTE   W24
 BYTE   N03  Cn2  v085
 BYTE   W12
 BYTE   N11  Cn2  v105
 BYTE   W12
 BYTE   N03  Cn2  v085
 BYTE   W12
 BYTE   Cn2
 BYTE   W12
 BYTE   N11  As1  v105
 BYTE   W12
 BYTE   PEND 
//  #05 //009   ----------------------------------------
Label_011C98B8:
 BYTE   W12
 BYTE   N23  Gs1  v105
 BYTE   W24
 BYTE   N03  Gs1  v085
 BYTE   W12
 BYTE   N11  Gs1  v105
 BYTE   W12
 BYTE   N03  Gs1  v085
 BYTE   W12
 BYTE   Gs1
 BYTE   W12
 BYTE   N11  Gs1  v105
 BYTE   W12
 BYTE   PEND 
//  #05 //010   ----------------------------------------
Label_011C98D0:
 BYTE   N03  Gs1  v085
 BYTE   W12
 BYTE   Gs1
 BYTE   W12
 BYTE   N11  As1  v105
 BYTE   W12
 BYTE   N03  As1  v085
 BYTE   W12
 BYTE   As1
 BYTE   W12
 BYTE   N23  As1  v105
 BYTE   W24
 BYTE   N03  As1  v085
 BYTE   W12
 BYTE   PEND 
//  #05 //011   ----------------------------------------
 BYTE   N11  As1  v105
 BYTE   W12
 BYTE   N03  As1  v085
 BYTE   W12
 BYTE   N07  As1  v105
 BYTE   W12
 BYTE   N11
 BYTE   W12
 BYTE   N07  Fn1
 BYTE   W12
 BYTE   Ds2
 BYTE   W12
 BYTE   N16  Dn2
 BYTE   W24
//  #05 //012   ----------------------------------------
 BYTE   W24
 BYTE   N03  Cn2  v085
 BYTE   W12
 BYTE   Cn2
 BYTE   W12
 BYTE   N11  Cn2  v105
 BYTE   W12
 BYTE   N03  Cn2  v085
 BYTE   W12
 BYTE   Cn2
 BYTE   W12
 BYTE   N11  Cn2  v105
 BYTE   W12
//  #05 //013   ----------------------------------------
Label_011C9914:
 BYTE   N03  Cn2  v085
 BYTE   W12
 BYTE   N23  Fn1  v105
 BYTE   W24
 BYTE   N03  Fn1  v085
 BYTE   W12
 BYTE   N11  Fn1  v105
 BYTE   W12
 BYTE   N03  Fn1  v085
 BYTE   W12
 BYTE   Fn1
 BYTE   W12
 BYTE   N11  Gn1  v105
 BYTE   W12
 BYTE   PEND 
//  #05 //014   ----------------------------------------
Label_011C992F:
 BYTE   N03  Gs1  v085
 BYTE   W12
 BYTE   N23  As1  v105
 BYTE   W24
 BYTE   N03  As1  v085
 BYTE   W12
 BYTE   N11  As1  v105
 BYTE   W12
 BYTE   N03  As1  v085
 BYTE   W12
 BYTE   As1
 BYTE   W12
 BYTE   N11  Cn2  v105
 BYTE   W12
 BYTE   PEND 
//  #05 //015   ----------------------------------------
Label_011C994A:
 BYTE   N03  Dn2  v085
 BYTE   W12
 BYTE   N23  Ds2  v105
 BYTE   W24
 BYTE   N03  Ds2  v085
 BYTE   W12
 BYTE   N06  Ds2  v105
 BYTE   W12
 BYTE   N23  Dn2
 BYTE   W24
 BYTE   N03  Dn2  v085
 BYTE   W12
 BYTE   PEND 
//  #05 //016   ----------------------------------------
 BYTE   PATT
  POIN2 Label_011C989E
//  #05 //017   ----------------------------------------
 BYTE   PATT
  POIN2 Label_011C98B8
//  #05 //018   ----------------------------------------
 BYTE   PATT
  POIN2 Label_011C98D0
//  #05 //019   ----------------------------------------
Label_011C9971:
 BYTE   N11  As1  v105
 BYTE   W12
 BYTE   N03  As1  v085
 BYTE   W12
 BYTE   As1
 BYTE   W12
 BYTE   N23  As1  v105
 BYTE   W24
 BYTE   N03  As1  v085
 BYTE   W12
 BYTE   N11  As1  v105
 BYTE   W12
 BYTE   N03  As1  v085
 BYTE   W12
 BYTE   PEND 
//  #05 //020   ----------------------------------------
 BYTE   N23  As1  v105
 BYTE   W24
 BYTE   N03  Gs1  v085
 BYTE   W12
 BYTE   Gs1
 BYTE   W12
 BYTE   N11  Gs1  v105
 BYTE   W12
 BYTE   N03  Gs1  v085
 BYTE   W12
 BYTE   Gs1
 BYTE   W12
 BYTE   N11  Gs1  v105
 BYTE   W12
//  #05 //021   ----------------------------------------
Label_011C99A4:
 BYTE   N03  Gs1  v085
 BYTE   W12
 BYTE   N23  As1  v105
 BYTE   W24
 BYTE   N03  As1  v085
 BYTE   W12
 BYTE   N11  As1  v105
 BYTE   W12
 BYTE   N03  As1  v085
 BYTE   W12
 BYTE   As1
 BYTE   W12
 BYTE   N11  As1  v105
 BYTE   W12
 BYTE   PEND 
//  #05 //022   ----------------------------------------
 BYTE   N03  As1  v085
 BYTE   W12
 BYTE   N23  Cn2  v105
 BYTE   W24
 BYTE   N03  Cn2  v085
 BYTE   W12
 BYTE   Cn2
 BYTE   W12
 BYTE   N23  Cn2  v105
 BYTE   W24
 BYTE   N03  Cn2  v085
 BYTE   W12
//  #05 //023   ----------------------------------------
 BYTE   Cn2
 BYTE   W12
 BYTE   N23  Cn2  v105
 BYTE   W24
 BYTE   N03  Cn2  v085
 BYTE   W12
 BYTE   Cn2
 BYTE   W12
 BYTE   N11  Cn2  v105
 BYTE   W24
 BYTE   N23  As1
 BYTE   W12
//  #05 //024   ----------------------------------------
 BYTE   W12
 BYTE   N03  As1  v085
 BYTE   W12
 BYTE   Gs1
 BYTE   W12
 BYTE   Gs1
 BYTE   W12
 BYTE   N11  Gs1  v105
 BYTE   W12
 BYTE   N03  Gs1  v085
 BYTE   W12
 BYTE   Gs1
 BYTE   W12
 BYTE   N11  Gs1  v105
 BYTE   W12
//  #05 //025   ----------------------------------------
 BYTE   PATT
  POIN2 Label_011C99A4
//  #05 //026   ----------------------------------------
 BYTE   N03  As1  v085
 BYTE   W12
 BYTE   N23  Gn1  v105
 BYTE   W24
 BYTE   N03  Gn1  v085
 BYTE   W12
 BYTE   Gn1
 BYTE   W12
 BYTE   N23  Gn1  v105
 BYTE   W24
 BYTE   N03  Gn1  v085
 BYTE   W12
//  #05 //027   ----------------------------------------
 BYTE   Gn1
 BYTE   W12
 BYTE   N32  Cn2  v105  gtp3
 BYTE   W36
 BYTE   N03  Cn2  v085
 BYTE   W12
 BYTE   N32  As1  v105  gtp3
 BYTE   W36
//  #05 //028   ----------------------------------------
 BYTE   N03  As1  v085
 BYTE   W12
 BYTE   N23  Gs1  v105
 BYTE   W24
 BYTE   N03  Gs1  v085
 BYTE   W12
 BYTE   Gs1
 BYTE   W12
 BYTE   N23  Gs2  v090
 BYTE   W24
 BYTE   N03  Gs1  v085
 BYTE   W12
//  #05 //029   ----------------------------------------
 BYTE   N05  Gs1  v105
 BYTE   W12
 BYTE   N23  Fn1
 BYTE   W24
 BYTE   N03  Fn1  v085
 BYTE   W12
 BYTE   Fn1
 BYTE   W12
 BYTE   N23  Fn2  v090
 BYTE   W24
 BYTE   N03  Fn1  v085
 BYTE   W12
//  #05 //030   ----------------------------------------
 BYTE   N11  Fn1  v105
 BYTE   W12
 BYTE   N23  Gn1
 BYTE   W24
 BYTE   N03  Gn1  v085
 BYTE   W12
 BYTE   Gn1
 BYTE   W12
 BYTE   N11  Gn1  v105
 BYTE   W12
 BYTE   N03  Gn1  v085
 BYTE   W12
 BYTE   N11  Gn1  v105
 BYTE   W12
//  #05 //031   ----------------------------------------
 BYTE   N03  Gn1  v085
 BYTE   W12
 BYTE   Gn1
 BYTE   W12
 BYTE   N11  Gn1  v105
 BYTE   W24
 BYTE   Gn1
 BYTE   W12
 BYTE   N05  Gn1  v085
 BYTE   W12
 BYTE   N11  An1  v105
 BYTE   W12
 BYTE   N05  An1  v085
 BYTE   W12
//  #05 //032   ----------------------------------------
 BYTE   N11  Bn1  v105
 BYTE   W12
 BYTE   N05  Bn1  v085
 BYTE   W12
 BYTE   N03  Cn2
 BYTE   W12
 BYTE   Cn2
 BYTE   W12
 BYTE   N11  Cn2  v105
 BYTE   W12
 BYTE   N03  Cn2  v085
 BYTE   W12
 BYTE   Cn2
 BYTE   W12
 BYTE   N11  Cn2  v105
 BYTE   W12
//  #05 //033   ----------------------------------------
 BYTE   PATT
  POIN2 Label_011C9850
//  #05 //034   ----------------------------------------
 BYTE   PATT
  POIN2 Label_011C986B
//  #05 //035   ----------------------------------------
 BYTE   PATT
  POIN2 Label_011C9886
//  #05 //036   ----------------------------------------
 BYTE   PATT
  POIN2 Label_011C989E
//  #05 //037   ----------------------------------------
 BYTE   PATT
  POIN2 Label_011C98B8
//  #05 //038   ----------------------------------------
 BYTE   PATT
  POIN2 Label_011C98D0
//  #05 //039   ----------------------------------------
 BYTE   N11  As1  v105
 BYTE   W12
 BYTE   N03  As1  v085
 BYTE   W12
 BYTE   N10  As1  v110
 BYTE   W16
 BYTE   As1
 BYTE   W16
 BYTE   Fn1
 BYTE   W16
 BYTE   As1
 BYTE   W16
 BYTE   Dn2
 BYTE   W08
//  #05 //040   ----------------------------------------
 BYTE   W08
 BYTE   As1
 BYTE   W16
 BYTE   N06  Cn2  v100
 BYTE   W12
 BYTE   N03  Cn2  v085
 BYTE   W12
 BYTE   N11  Cn2  v105
 BYTE   W12
 BYTE   N03  Cn2  v085
 BYTE   W12
 BYTE   Cn2
 BYTE   W12
 BYTE   N11  Cn2  v105
 BYTE   W12
//  #05 //041   ----------------------------------------
 BYTE   PATT
  POIN2 Label_011C9914
//  #05 //042   ----------------------------------------
 BYTE   PATT
  POIN2 Label_011C992F
//  #05 //043   ----------------------------------------
 BYTE   PATT
  POIN2 Label_011C994A
//  #05 //044   ----------------------------------------
 BYTE   PATT
  POIN2 Label_011C989E
//  #05 //045   ----------------------------------------
 BYTE   PATT
  POIN2 Label_011C98B8
//  #05 //046   ----------------------------------------
 BYTE   PATT
  POIN2 Label_011C98D0
//  #05 //047   ----------------------------------------
 BYTE   PATT
  POIN2 Label_011C9971
//  #05 //048   ----------------------------------------
 BYTE   N23  As1  v105
 BYTE   W24
 BYTE   N92  Gs1  v110  gtp3
 BYTE   W72
//  #05 //049   ----------------------------------------
Label_011C9B18:
 BYTE   W24
 BYTE   N92  As1  v110  gtp3
 BYTE   W72
 BYTE   PEND 
//  #05 //050   ----------------------------------------
Label_011C9B1F:
 BYTE   W24
 BYTE   N92  Cn2  v110  gtp3
 BYTE   W72
 BYTE   PEND 
//  #05 //051   ----------------------------------------
Label_011C9B26:
 BYTE   W36
 BYTE   N06  Gn1  v105
 BYTE   W12
 BYTE   Cn2
 BYTE   W12
 BYTE   Dn2
 BYTE   W12
 BYTE   Ds2
 BYTE   W12
 BYTE   Dn2
 BYTE   W12
 BYTE   PEND 
//  #05 //052   ----------------------------------------
Label_011C9B34:
 BYTE   N06  Cn2  v105
 BYTE   W12
 BYTE   Gn1
 BYTE   W12
 BYTE   N92  Gs1  v110  gtp3
 BYTE   W72
 BYTE   PEND 
//  #05 //053   ----------------------------------------
 BYTE   PATT
  POIN2 Label_011C9B18
//  #05 //054   ----------------------------------------
 BYTE   PATT
  POIN2 Label_011C9B1F
//  #05 //055   ----------------------------------------
 BYTE   PATT
  POIN2 Label_011C9B26
//  #05 //056   ----------------------------------------
 BYTE   PATT
  POIN2 Label_011C9B34
//  #05 //057   ----------------------------------------
 BYTE   PATT
  POIN2 Label_011C9B18
//  #05 //058   ----------------------------------------
 BYTE   PATT
  POIN2 Label_011C9B1F
//  #05 //059   ----------------------------------------
 BYTE   PATT
  POIN2 Label_011C9B26
//  #05 //060   ----------------------------------------
 BYTE   PATT
  POIN2 Label_011C9B34
//  #05 //061   ----------------------------------------
 BYTE   W24
 BYTE   N76  As1  v110  gtp1
 BYTE   W72
//  #05 //062   ----------------------------------------
 BYTE   W12
 BYTE   N18  Gn1  v105
 BYTE   W24
 BYTE   N03  Gn1  v085
 BYTE   W12
 BYTE   N11  Gn1  v105
 BYTE   W12
 BYTE   N03  Gn1  v085
 BYTE   W12
 BYTE   Gn1
 BYTE   W12
 BYTE   N11  Gn1  v105
 BYTE   W12
//  #05 //063   ----------------------------------------
 BYTE   N03  Gn1  v085
 BYTE   W12
 BYTE   Gn1
 BYTE   W12
 BYTE   N06  Gn1  v105
 BYTE   W12
 BYTE   Gn1
 BYTE   W12
 BYTE   N18
 BYTE   W48
//  #05 //064   ----------------------------------------
 BYTE   N23  Gn1  v110
 BYTE   W12
 BYTE   GoTo
  POIN2 Label_011C983B
//  #05 //065   ----------------------------------------
 BYTE   W12
 BYTE   FINE

//**************** Track 6 (Midi-Chn.5) ****************//

NearFarFrontier00_006:
//  #06 //000   ----------------------------------------
 BYTE   KEYSH   NearFarFrontier00_key+0
 BYTE   VOICE   33
 BYTE   VOL   43*NearFarFrontier00_mvl/mxv
 BYTE   W96
//  #06 //001   ----------------------------------------
 BYTE   W96
//  #06 //002   ----------------------------------------
 BYTE   W96
//  #06 //003   ----------------------------------------
 BYTE   W96
//  #06 //004   ----------------------------------------
 BYTE   N23  An0  v120
 BYTE   W12
Label_011762EE:
 BYTE   W12
 BYTE   N08  Cn2  v110
 BYTE   W12
 BYTE   Cn2
 BYTE   W12
 BYTE   Cn2
 BYTE   W12
 BYTE   Cn2
 BYTE   W12
 BYTE   Cn2
 BYTE   W12
 BYTE   Cn2
 BYTE   W12
//  #06 //005   ----------------------------------------
Label_011762FD:
 BYTE   N08  Cn2  v110
 BYTE   W12
 BYTE   N21  Fn1
 BYTE   W24
 BYTE   N08
 BYTE   W12
 BYTE   Fn1
 BYTE   W12
 BYTE   Fn1
 BYTE   W12
 BYTE   Fn1
 BYTE   W12
 BYTE   Fn1
 BYTE   W12
 BYTE   PEND 
//  #06 //006   ----------------------------------------
Label_0117630F:
 BYTE   N08  Fn1  v110
 BYTE   W12
 BYTE   N21  As1
 BYTE   W24
 BYTE   N08
 BYTE   W12
 BYTE   As1
 BYTE   W12
 BYTE   As1
 BYTE   W12
 BYTE   As1
 BYTE   W12
 BYTE   As1
 BYTE   W12
 BYTE   PEND 
//  #06 //007   ----------------------------------------
Label_01176321:
 BYTE   N08  As1  v110
 BYTE   W12
 BYTE   N21  Ds2
 BYTE   W24
 BYTE   N08
 BYTE   W12
 BYTE   Ds2
 BYTE   W12
 BYTE   N21  Dn2
 BYTE   W24
 BYTE   N08
 BYTE   W12
 BYTE   PEND 
//  #06 //008   ----------------------------------------
Label_01176332:
 BYTE   N08  Dn2  v110
 BYTE   W12
 BYTE   N21  Cn2
 BYTE   W24
 BYTE   N08
 BYTE   W12
 BYTE   Cn2
 BYTE   W12
 BYTE   Cn2
 BYTE   W12
 BYTE   N11
 BYTE   W12
 BYTE   N08  As1
 BYTE   W12
 BYTE   PEND 
//  #06 //009   ----------------------------------------
Label_01176345:
 BYTE   W12
 BYTE   N21  Gs1  v110
 BYTE   W24
 BYTE   N08
 BYTE   W12
 BYTE   Gs1
 BYTE   W12
 BYTE   Gs1
 BYTE   W12
 BYTE   Gs1
 BYTE   W12
 BYTE   Gs1
 BYTE   W12
 BYTE   PEND 
//  #06 //010   ----------------------------------------
Label_01176355:
 BYTE   N08  Gs1  v110
 BYTE   W12
 BYTE   Gs1
 BYTE   W12
 BYTE   N11  As1
 BYTE   W12
 BYTE   N08
 BYTE   W12
 BYTE   As1
 BYTE   W12
 BYTE   N21
 BYTE   W24
 BYTE   N08
 BYTE   W12
 BYTE   PEND 
//  #06 //011   ----------------------------------------
 BYTE   N11
 BYTE   W12
 BYTE   N08
 BYTE   W12
 BYTE   N07
 BYTE   W12
 BYTE   N11
 BYTE   W12
 BYTE   N07  Fn1
 BYTE   W12
 BYTE   Ds2
 BYTE   W12
 BYTE   N10  Dn2
 BYTE   W24
//  #06 //012   ----------------------------------------
Label_01176377:
 BYTE   N23  An0  v120
 BYTE   W24
 BYTE   N08  Cn2  v110
 BYTE   W12
 BYTE   Cn2
 BYTE   W12
 BYTE   Cn2
 BYTE   W12
 BYTE   Cn2
 BYTE   W12
 BYTE   Cn2
 BYTE   W12
 BYTE   Cn2
 BYTE   W12
 BYTE   PEND 
//  #06 //013   ----------------------------------------
Label_0117638A:
 BYTE   N08  Cn2  v110
 BYTE   W12
 BYTE   N21  Fn1
 BYTE   W24
 BYTE   N08
 BYTE   W12
 BYTE   Fn1
 BYTE   W12
 BYTE   Fn1
 BYTE   W12
 BYTE   Fn1
 BYTE   W12
 BYTE   Gn1
 BYTE   W12
 BYTE   PEND 
//  #06 //014   ----------------------------------------
Label_0117639C:
 BYTE   N08  Gs1  v110
 BYTE   W12
 BYTE   N21  As1
 BYTE   W24
 BYTE   N08
 BYTE   W12
 BYTE   As1
 BYTE   W12
 BYTE   As1
 BYTE   W12
 BYTE   As1
 BYTE   W12
 BYTE   Cn2
 BYTE   W12
 BYTE   PEND 
//  #06 //015   ----------------------------------------
Label_011763AE:
 BYTE   N08  Dn2  v110
 BYTE   W12
 BYTE   N21  Ds2
 BYTE   W24
 BYTE   N08
 BYTE   W12
 BYTE   Ds2
 BYTE   W12
 BYTE   N21  Dn2
 BYTE   W24
 BYTE   N08
 BYTE   W12
 BYTE   PEND 
//  #06 //016   ----------------------------------------
 BYTE   PATT
  POIN2 Label_01176332
//  #06 //017   ----------------------------------------
 BYTE   PATT
  POIN2 Label_01176345
//  #06 //018   ----------------------------------------
 BYTE   PATT
  POIN2 Label_01176355
//  #06 //019   ----------------------------------------
Label_011763CE:
 BYTE   N11  As1  v110
 BYTE   W12
 BYTE   N08
 BYTE   W12
 BYTE   As1
 BYTE   W12
 BYTE   N21
 BYTE   W24
 BYTE   N08
 BYTE   W12
 BYTE   N11
 BYTE   W12
 BYTE   N08
 BYTE   W12
 BYTE   PEND 
//  #06 //020   ----------------------------------------
 BYTE   N23
 BYTE   W24
 BYTE   N08  Gs1
 BYTE   W12
 BYTE   Gs1
 BYTE   W12
 BYTE   Gs1
 BYTE   W12
 BYTE   Gs1
 BYTE   W12
 BYTE   Gs1
 BYTE   W12
 BYTE   Gs1
 BYTE   W12
//  #06 //021   ----------------------------------------
Label_011763EE:
 BYTE   N08  Gs1  v110
 BYTE   W12
 BYTE   N21  As1
 BYTE   W24
 BYTE   N08
 BYTE   W12
 BYTE   As1
 BYTE   W12
 BYTE   As1
 BYTE   W12
 BYTE   As1
 BYTE   W12
 BYTE   As1
 BYTE   W12
 BYTE   PEND 
//  #06 //022   ----------------------------------------
 BYTE   As1
 BYTE   W12
 BYTE   N21  Cn2
 BYTE   W24
 BYTE   N08
 BYTE   W12
 BYTE   Cn2
 BYTE   W12
 BYTE   N21
 BYTE   W24
 BYTE   N08
 BYTE   W12
//  #06 //023   ----------------------------------------
 BYTE   Cn2
 BYTE   W12
 BYTE   N21
 BYTE   W24
 BYTE   N08
 BYTE   W12
 BYTE   Cn2
 BYTE   W12
 BYTE   Cn2
 BYTE   W24
 BYTE   N21  As1
 BYTE   W12
//  #06 //024   ----------------------------------------
 BYTE   W12
 BYTE   N08
 BYTE   W12
 BYTE   Gs1
 BYTE   W12
 BYTE   Gs1
 BYTE   W12
 BYTE   Gs1
 BYTE   W12
 BYTE   Gs1
 BYTE   W12
 BYTE   Gs1
 BYTE   W12
 BYTE   Gs1
 BYTE   W12
//  #06 //025   ----------------------------------------
 BYTE   PATT
  POIN2 Label_011763EE
//  #06 //026   ----------------------------------------
 BYTE   N08  As1  v110
 BYTE   W12
 BYTE   N21  Gn1
 BYTE   W24
 BYTE   N08
 BYTE   W12
 BYTE   Gn1
 BYTE   W12
 BYTE   Gn1
 BYTE   W12
 BYTE   Gn1
 BYTE   W12
 BYTE   Gn1
 BYTE   W12
//  #06 //027   ----------------------------------------
 BYTE   Gn1
 BYTE   W12
 BYTE   N21  Cn2
 BYTE   W24
 BYTE   N08
 BYTE   W12
 BYTE   Cn2
 BYTE   W12
 BYTE   N21  As1
 BYTE   W24
 BYTE   N08
 BYTE   W12
//  #06 //028   ----------------------------------------
 BYTE   As1
 BYTE   W12
 BYTE   N21  Gs1
 BYTE   W24
 BYTE   N08
 BYTE   W12
 BYTE   Ds2
 BYTE   W12
 BYTE   N21  Gs2
 BYTE   W24
 BYTE   N08  Ds2
 BYTE   W12
//  #06 //029   ----------------------------------------
 BYTE   Gs1
 BYTE   W12
 BYTE   N21  Fn1
 BYTE   W24
 BYTE   N08
 BYTE   W12
 BYTE   Cn2
 BYTE   W12
 BYTE   N21  Fn2
 BYTE   W24
 BYTE   N08  Cn2
 BYTE   W12
//  #06 //030   ----------------------------------------
 BYTE   Fn1
 BYTE   W12
 BYTE   N21  Gn1
 BYTE   W24
 BYTE   N05
 BYTE   W12
 BYTE   Gn1
 BYTE   W12
 BYTE   N11
 BYTE   W12
 BYTE   N05
 BYTE   W12
 BYTE   N21
 BYTE   W12
//  #06 //031   ----------------------------------------
 BYTE   W12
 BYTE   N08
 BYTE   W12
 BYTE   N10
 BYTE   W24
 BYTE   N11
 BYTE   W12
 BYTE   N05
 BYTE   W12
 BYTE   N11  An1
 BYTE   W12
 BYTE   N05
 BYTE   W12
//  #06 //032   ----------------------------------------
 BYTE   PATT
  POIN2 Label_01176377
//  #06 //033   ----------------------------------------
 BYTE   PATT
  POIN2 Label_011762FD
//  #06 //034   ----------------------------------------
 BYTE   PATT
  POIN2 Label_0117630F
//  #06 //035   ----------------------------------------
 BYTE   PATT
  POIN2 Label_01176321
//  #06 //036   ----------------------------------------
 BYTE   PATT
  POIN2 Label_01176332
//  #06 //037   ----------------------------------------
 BYTE   PATT
  POIN2 Label_01176345
//  #06 //038   ----------------------------------------
 BYTE   PATT
  POIN2 Label_01176355
//  #06 //039   ----------------------------------------
 BYTE   N11  As1  v110
 BYTE   W12
 BYTE   N08
 BYTE   W12
 BYTE   N10
 BYTE   W16
 BYTE   As2
 BYTE   W16
 BYTE   Fn2
 BYTE   W16
 BYTE   As1
 BYTE   W16
 BYTE   Dn2
 BYTE   W08
//  #06 //040   ----------------------------------------
 BYTE   W08
 BYTE   As1
 BYTE   W16
 BYTE   N08  Cn2
 BYTE   W12
 BYTE   Cn2
 BYTE   W12
 BYTE   Cn2
 BYTE   W12
 BYTE   Cn2
 BYTE   W12
 BYTE   Cn2
 BYTE   W12
 BYTE   Cn2
 BYTE   W12
//  #06 //041   ----------------------------------------
 BYTE   PATT
  POIN2 Label_0117638A
//  #06 //042   ----------------------------------------
 BYTE   PATT
  POIN2 Label_0117639C
//  #06 //043   ----------------------------------------
 BYTE   PATT
  POIN2 Label_011763AE
//  #06 //044   ----------------------------------------
 BYTE   PATT
  POIN2 Label_01176332
//  #06 //045   ----------------------------------------
 BYTE   PATT
  POIN2 Label_01176345
//  #06 //046   ----------------------------------------
 BYTE   PATT
  POIN2 Label_01176355
//  #06 //047   ----------------------------------------
 BYTE   PATT
  POIN2 Label_011763CE
//  #06 //048   ----------------------------------------
 BYTE   N23  As1  v110
 BYTE   W24
 BYTE   N48  Gs1  v110  gtp2
 BYTE   W60
 BYTE   N12
 BYTE   W12
//  #06 //049   ----------------------------------------
Label_011764F9:
 BYTE   N12  Gs2  v110
 BYTE   W12
 BYTE   Gs1
 BYTE   W12
 BYTE   N32  As1
 BYTE   W36
 BYTE   N05  As1  v100
 BYTE   W06
 BYTE   Gs2
 BYTE   W06
 BYTE   N24  As2  v110
 BYTE   W24
 BYTE   PEND 
//  #06 //050   ----------------------------------------
 BYTE   As1
 BYTE   W24
 BYTE   N30  Cn2
 BYTE   W36
 BYTE   Gn1
 BYTE   W36
//  #06 //051   ----------------------------------------
 BYTE   N24  Cn2
 BYTE   W36
 BYTE   N10  Gn1
 BYTE   W12
 BYTE   Cn2
 BYTE   W12
 BYTE   Dn2
 BYTE   W12
 BYTE   Ds2
 BYTE   W12
 BYTE   Dn2
 BYTE   W12
//  #06 //052   ----------------------------------------
Label_01176522:
 BYTE   N10  Cn2  v110
 BYTE   W12
 BYTE   Gn1
 BYTE   W12
 BYTE   N48  Gs1  v110  gtp2
 BYTE   W60
 BYTE   N12
 BYTE   W12
 BYTE   PEND 
//  #06 //053   ----------------------------------------
 BYTE   PATT
  POIN2 Label_011764F9
//  #06 //054   ----------------------------------------
 BYTE   N24  Dn3  v110
 BYTE   W24
 BYTE   N32  Cn3  v110  gtp3
 BYTE   W36
 BYTE   Gn2
 BYTE   W36
//  #06 //055   ----------------------------------------
 BYTE   N30  Cn2
 BYTE   W36
 BYTE   N10  Gn1
 BYTE   W12
 BYTE   Cn2
 BYTE   W12
 BYTE   Dn2
 BYTE   W12
 BYTE   Ds2
 BYTE   W12
 BYTE   Dn2
 BYTE   W12
//  #06 //056   ----------------------------------------
 BYTE   PATT
  POIN2 Label_01176522
//  #06 //057   ----------------------------------------
 BYTE   PATT
  POIN2 Label_011764F9
//  #06 //058   ----------------------------------------
 BYTE   N24  As1  v110
 BYTE   W24
 BYTE   Cn2
 BYTE   W24
 BYTE   Ds2
 BYTE   W24
 BYTE   N12  Gn2
 BYTE   W12
 BYTE   N17  Cn2
 BYTE   W12
//  #06 //059   ----------------------------------------
 BYTE   W06
 BYTE   N05  As2  v100
 BYTE   W06
 BYTE   N36  Cn3  v110
 BYTE   W36
 BYTE   N10  Cn2
 BYTE   W12
 BYTE   Dn2
 BYTE   W12
 BYTE   Ds2
 BYTE   W12
 BYTE   Dn2
 BYTE   W12
//  #06 //060   ----------------------------------------
 BYTE   PATT
  POIN2 Label_01176522
//  #06 //061   ----------------------------------------
 BYTE   PATT
  POIN2 Label_011764F9
//  #06 //062   ----------------------------------------
 BYTE   N12  As1  v110
 BYTE   W12
 BYTE   N20  Gn1
 BYTE   W24
 BYTE   N08
 BYTE   W12
 BYTE   Gn1
 BYTE   W12
 BYTE   Gn1
 BYTE   W12
 BYTE   Gn1
 BYTE   W12
 BYTE   Gn1
 BYTE   W12
//  #06 //063   ----------------------------------------
 BYTE   Gn1
 BYTE   W12
 BYTE   Gn1
 BYTE   W12
 BYTE   N10
 BYTE   W12
 BYTE   Gn1
 BYTE   W12
 BYTE   N44  An0  v120  gtp3
 BYTE   W48
//  #06 //064   ----------------------------------------
 BYTE   N24  Gn1  v110
 BYTE   W12
 BYTE   GoTo
  POIN2 Label_011762EE
//  #06 //065   ----------------------------------------
 BYTE   W12
 BYTE   FINE

//**************** Track 7 (Midi-Chn.6) ****************//

NearFarFrontier00_007:
//  #07 //000   ----------------------------------------
 BYTE   KEYSH   NearFarFrontier00_key+0
 BYTE   VOICE   80
 BYTE   PAN   c_v+63
 BYTE   VOL   14*NearFarFrontier00_mvl/mxv
 BYTE   W96
//  #07 //001   ----------------------------------------
 BYTE   W24
 BYTE   N05  Ds3  v016
 BYTE   W06
 BYTE   Gs3  v019
 BYTE   W05
 BYTE   PAN   c_v+0
 BYTE   W01
 BYTE   N05  Cn4  v023
 BYTE   W06
 BYTE   Ds4  v026
 BYTE   W05
 BYTE   PAN   c_v-64
 BYTE   W01
 BYTE   N05  Gs4  v030
 BYTE   W06
 BYTE   Ds4  v033
 BYTE   W05
 BYTE   PAN   c_v+0
 BYTE   W01
 BYTE   N05  Cn4  v037
 BYTE   W06
 BYTE   Gs3  v040
 BYTE   W05
 BYTE   PAN   c_v+63
 BYTE   W01
 BYTE   N05  Fn3  v044
 BYTE   W06
 BYTE   As3  v047
 BYTE   W05
 BYTE   PAN   c_v+0
 BYTE   W01
 BYTE   N05  Dn4  v051
 BYTE   W06
 BYTE   Fn4  v054
 BYTE   W05
 BYTE   PAN   c_v-64
 BYTE   W01
//  #07 //002   ----------------------------------------
 BYTE   N05  As4  v058
 BYTE   W06
 BYTE   Fn4  v062
 BYTE   W05
 BYTE   PAN   c_v+0
 BYTE   W01
 BYTE   N05  Dn4  v065
 BYTE   W06
 BYTE   As3  v069
 BYTE   W05
 BYTE   PAN   c_v+63
 BYTE   W01
 BYTE   N05  Gn3  v072
 BYTE   W06
 BYTE   Bn3  v076
 BYTE   W05
 BYTE   PAN   c_v+0
 BYTE   W01
 BYTE   N05  Dn4  v079
 BYTE   W06
 BYTE   Gn4  v083
 BYTE   W05
 BYTE   PAN   c_v-64
 BYTE   W01
 BYTE   N05  Bn4  v086
 BYTE   W06
 BYTE   Dn4  v090
 BYTE   W05
 BYTE   PAN   c_v+0
 BYTE   W01
 BYTE   N05  Gn4  v093
 BYTE   W06
 BYTE   Bn4  v097
 BYTE   W05
 BYTE   PAN   c_v+63
 BYTE   W01
 BYTE   N05  Dn5  v101
 BYTE   W06
 BYTE   Dn4  v076
 BYTE   W05
 BYTE   PAN   c_v+0
 BYTE   W01
 BYTE   N05  Gn4  v079
 BYTE   W06
 BYTE   Bn4  v083
 BYTE   W05
 BYTE   PAN   c_v-64
 BYTE   W01
//  #07 //003   ----------------------------------------
 BYTE   N05  Dn5  v086
 BYTE   W06
 BYTE   Gn4  v090
 BYTE   W05
 BYTE   PAN   c_v+0
 BYTE   W01
 BYTE   N05  Bn4  v093
 BYTE   W06
 BYTE   Dn5  v097
 BYTE   W05
 BYTE   PAN   c_v+63
 BYTE   W01
 BYTE   N05  Gn5  v101
 BYTE   W72
//  #07 //004   ----------------------------------------
 BYTE   W12
Label_01176A7F:
 BYTE   W84
//  #07 //005   ----------------------------------------
 BYTE   W96
//  #07 //006   ----------------------------------------
 BYTE   W96
//  #07 //007   ----------------------------------------
 BYTE   W96
//  #07 //008   ----------------------------------------
 BYTE   W96
//  #07 //009   ----------------------------------------
 BYTE   W96
//  #07 //010   ----------------------------------------
 BYTE   W96
//  #07 //011   ----------------------------------------
 BYTE   W96
//  #07 //012   ----------------------------------------
 BYTE   W96
//  #07 //013   ----------------------------------------
 BYTE   W96
//  #07 //014   ----------------------------------------
 BYTE   W96
//  #07 //015   ----------------------------------------
 BYTE   W96
//  #07 //016   ----------------------------------------
 BYTE   W96
//  #07 //017   ----------------------------------------
 BYTE   W96
//  #07 //018   ----------------------------------------
 BYTE   W96
//  #07 //019   ----------------------------------------
Label_01176A8E:
 BYTE   W24
 BYTE   N05  Dn3  v110
 BYTE   W06
 BYTE   Fn3
 BYTE   W06
 BYTE   As3
 BYTE   W06
 BYTE   Cn4
 BYTE   W06
 BYTE   Dn4
 BYTE   W06
 BYTE   Fn4
 BYTE   W06
 BYTE   As4
 BYTE   W06
 BYTE   Cn5
 BYTE   W06
 BYTE   Dn5
 BYTE   W06
 BYTE   Cn5
 BYTE   W06
 BYTE   As4
 BYTE   W06
 BYTE   Fn4
 BYTE   W06
 BYTE   PEND 
//  #07 //020   ----------------------------------------
 BYTE   Dn4
 BYTE   W06
 BYTE   Cn4
 BYTE   W06
 BYTE   As3
 BYTE   W06
 BYTE   Fn3
 BYTE   W05
 BYTE   PAN   c_v-64
 BYTE   W01
 BYTE   N05  Ds3  v075
 BYTE   W06
 BYTE   Gs3
 BYTE   W06
 BYTE   Cn4
 BYTE   W06
 BYTE   Ds4
 BYTE   W05
 BYTE   PAN   c_v+63
 BYTE   W01
 BYTE   N05  Gn4
 BYTE   W06
 BYTE   Ds4
 BYTE   W06
 BYTE   Cn4
 BYTE   W06
 BYTE   Gs3
 BYTE   W05
 BYTE   PAN   c_v-64
 BYTE   W01
 BYTE   N05  Ds3
 BYTE   W06
 BYTE   Gs3
 BYTE   W06
 BYTE   Cn4
 BYTE   W06
 BYTE   Ds4
 BYTE   W05
 BYTE   PAN   c_v+63
 BYTE   W01
//  #07 //021   ----------------------------------------
 BYTE   N05  Gn4
 BYTE   W06
 BYTE   Ds4
 BYTE   W06
 BYTE   Dn4
 BYTE   W06
 BYTE   As3
 BYTE   W05
 BYTE   PAN   c_v+0
 BYTE   W01
 BYTE   N05  Fn3
 BYTE   W06
 BYTE   As3
 BYTE   W06
 BYTE   Dn4
 BYTE   W06
 BYTE   Fn4
 BYTE   W06
 BYTE   As4
 BYTE   W06
 BYTE   Fn4
 BYTE   W06
 BYTE   Dn4
 BYTE   W06
 BYTE   As3
 BYTE   W06
 BYTE   Fn3
 BYTE   W06
 BYTE   As3
 BYTE   W06
 BYTE   Dn4
 BYTE   W06
 BYTE   Fn4
 BYTE   W06
//  #07 //022   ----------------------------------------
 BYTE   As4
 BYTE   W06
 BYTE   Fn4
 BYTE   W06
 BYTE   Ds4
 BYTE   W06
 BYTE   Cn4
 BYTE   W06
 BYTE   Gn3
 BYTE   W06
 BYTE   Cn4
 BYTE   W06
 BYTE   Ds4
 BYTE   W06
 BYTE   Gn4
 BYTE   W06
 BYTE   Cn5
 BYTE   W06
 BYTE   Gn4
 BYTE   W06
 BYTE   Ds4
 BYTE   W06
 BYTE   Cn4
 BYTE   W06
 BYTE   Gn3
 BYTE   W06
 BYTE   Cn4
 BYTE   W06
 BYTE   Ds4
 BYTE   W06
 BYTE   Gn4
 BYTE   W06
//  #07 //023   ----------------------------------------
 BYTE   Cn5
 BYTE   W06
 BYTE   Gn4
 BYTE   W06
 BYTE   Ds4
 BYTE   W06
 BYTE   Cn4
 BYTE   W06
 BYTE   Gn3
 BYTE   W06
 BYTE   Cn4
 BYTE   W06
 BYTE   Ds4
 BYTE   W06
 BYTE   Gn4
 BYTE   W06
 BYTE   Cn5
 BYTE   W06
 BYTE   Gn4
 BYTE   W06
 BYTE   Ds4
 BYTE   W24
 BYTE   Dn4
 BYTE   W06
 BYTE   Gn4
 BYTE   W06
//  #07 //024   ----------------------------------------
 BYTE   As4
 BYTE   W06
 BYTE   Gn4
 BYTE   W06
 BYTE   Dn4
 BYTE   W06
 BYTE   As3
 BYTE   W06
 BYTE   Ds3
 BYTE   W06
 BYTE   Gs3
 BYTE   W06
 BYTE   Cn4
 BYTE   W06
 BYTE   Ds4
 BYTE   W06
 BYTE   Gn4
 BYTE   W06
 BYTE   Ds4
 BYTE   W06
 BYTE   Cn4
 BYTE   W06
 BYTE   Gs3
 BYTE   W06
 BYTE   Ds3
 BYTE   W06
 BYTE   Gs3
 BYTE   W06
 BYTE   Cn4
 BYTE   W06
 BYTE   Ds4
 BYTE   W06
//  #07 //025   ----------------------------------------
 BYTE   Gn4
 BYTE   W06
 BYTE   Ds4
 BYTE   W06
 BYTE   Dn4
 BYTE   W06
 BYTE   As3
 BYTE   W06
 BYTE   Fn3
 BYTE   W06
 BYTE   As3
 BYTE   W06
 BYTE   Dn4
 BYTE   W06
 BYTE   Fn4
 BYTE   W06
 BYTE   As4
 BYTE   W06
 BYTE   Fn4
 BYTE   W06
 BYTE   Dn4
 BYTE   W06
 BYTE   As3
 BYTE   W06
 BYTE   Fn3
 BYTE   W06
 BYTE   As3
 BYTE   W06
 BYTE   Dn4
 BYTE   W06
 BYTE   Fn4
 BYTE   W06
//  #07 //026   ----------------------------------------
 BYTE   As4
 BYTE   W06
 BYTE   Fn4
 BYTE   W06
 BYTE   Dn4
 BYTE   W06
 BYTE   As3
 BYTE   W06
 BYTE   Dn3
 BYTE   W06
 BYTE   Gn3
 BYTE   W06
 BYTE   As3
 BYTE   W06
 BYTE   Dn4
 BYTE   W06
 BYTE   Gn4
 BYTE   W06
 BYTE   Dn4
 BYTE   W06
 BYTE   As3
 BYTE   W06
 BYTE   Gn3
 BYTE   W06
 BYTE   Dn3
 BYTE   W06
 BYTE   Gn3
 BYTE   W06
 BYTE   As3
 BYTE   W06
 BYTE   Dn4
 BYTE   W06
//  #07 //027   ----------------------------------------
 BYTE   Gn4
 BYTE   W06
 BYTE   Dn4
 BYTE   W06
 BYTE   Cn4
 BYTE   W06
 BYTE   Gn3
 BYTE   W06
 BYTE   Gn3
 BYTE   W06
 BYTE   Cn4
 BYTE   W06
 BYTE   Ds4
 BYTE   W06
 BYTE   Gn4
 BYTE   W06
 BYTE   Cn5
 BYTE   W06
 BYTE   Gn4
 BYTE   W06
 BYTE   Dn4
 BYTE   W06
 BYTE   As3
 BYTE   W06
 BYTE   Fn3
 BYTE   W06
 BYTE   As3
 BYTE   W06
 BYTE   Dn4
 BYTE   W06
 BYTE   Fn4
 BYTE   W06
//  #07 //028   ----------------------------------------
 BYTE   As4
 BYTE   W06
 BYTE   Fn4
 BYTE   W06
 BYTE   Dn4
 BYTE   W06
 BYTE   As3
 BYTE   W06
 BYTE   Cn6  v037
 BYTE   W06
 BYTE   Cn5
 BYTE   W06
 BYTE   Cn6
 BYTE   W06
 BYTE   Cn5
 BYTE   W06
 BYTE   Cn6
 BYTE   W06
 BYTE   Cn5
 BYTE   W06
 BYTE   Cn6
 BYTE   W06
 BYTE   Cn5  v016
 BYTE   W06
 BYTE   N07  Cn6
 BYTE   W24
//  #07 //029   ----------------------------------------
 BYTE   W23
 BYTE   PAN   c_v-64
 BYTE   W01
 BYTE   N05  Cn6  v037
 BYTE   W06
 BYTE   Cn5
 BYTE   W06
 BYTE   Cn6
 BYTE   W06
 BYTE   Cn5
 BYTE   W06
 BYTE   Cn6
 BYTE   W06
 BYTE   Cn5
 BYTE   W06
 BYTE   Cn6
 BYTE   W06
 BYTE   Cn5  v016
 BYTE   W06
 BYTE   N07  Cn6
 BYTE   W24
//  #07 //030   ----------------------------------------
 BYTE   W23
 BYTE   PAN   c_v+63
 BYTE   W72
 BYTE   W01
//  #07 //031   ----------------------------------------
 BYTE   W96
//  #07 //032   ----------------------------------------
 BYTE   W96
//  #07 //033   ----------------------------------------
 BYTE   W96
//  #07 //034   ----------------------------------------
 BYTE   W96
//  #07 //035   ----------------------------------------
 BYTE   W96
//  #07 //036   ----------------------------------------
 BYTE   W96
//  #07 //037   ----------------------------------------
 BYTE   W96
//  #07 //038   ----------------------------------------
 BYTE   W96
//  #07 //039   ----------------------------------------
 BYTE   W96
//  #07 //040   ----------------------------------------
 BYTE   W96
//  #07 //041   ----------------------------------------
 BYTE   W96
//  #07 //042   ----------------------------------------
 BYTE   W96
//  #07 //043   ----------------------------------------
 BYTE   W96
//  #07 //044   ----------------------------------------
 BYTE   W96
//  #07 //045   ----------------------------------------
 BYTE   W96
//  #07 //046   ----------------------------------------
 BYTE   W96
//  #07 //047   ----------------------------------------
 BYTE   PATT
  POIN2 Label_01176A8E
//  #07 //048   ----------------------------------------
 BYTE   N05  Dn4  v110
 BYTE   W06
 BYTE   Cn4
 BYTE   W06
 BYTE   As3
 BYTE   W06
 BYTE   N07  Fn3
 BYTE   W05
 BYTE   PAN   c_v-64
 BYTE   W24
 BYTE   PAN   c_v+63
 BYTE   W24
 BYTE   PAN   c_v-64
 BYTE   W24
 BYTE   PAN   c_v+63
 BYTE   W01
//  #07 //049   ----------------------------------------
 BYTE   W96
//  #07 //050   ----------------------------------------
 BYTE   W96
//  #07 //051   ----------------------------------------
 BYTE   W96
//  #07 //052   ----------------------------------------
 BYTE   W96
//  #07 //053   ----------------------------------------
 BYTE   W96
//  #07 //054   ----------------------------------------
 BYTE   W96
//  #07 //055   ----------------------------------------
 BYTE   W96
//  #07 //056   ----------------------------------------
 BYTE   W96
//  #07 //057   ----------------------------------------
 BYTE   W96
//  #07 //058   ----------------------------------------
 BYTE   W96
//  #07 //059   ----------------------------------------
 BYTE   W96
//  #07 //060   ----------------------------------------
 BYTE   W96
//  #07 //061   ----------------------------------------
 BYTE   W96
//  #07 //062   ----------------------------------------
 BYTE   W96
//  #07 //063   ----------------------------------------
 BYTE   W96
//  #07 //064   ----------------------------------------
 BYTE   W12
 BYTE   GoTo
  POIN2 Label_01176A7F
//  #07 //065   ----------------------------------------
 BYTE   W12
 BYTE   FINE

//**************** Track 8 (Midi-Chn.7) ****************//

NearFarFrontier00_008:
//  #08 //000   ----------------------------------------
 BYTE   KEYSH   NearFarFrontier00_key+0
 BYTE   VOICE   100
 BYTE   VOL   2*NearFarFrontier00_mvl/mxv
 BYTE   W24
 BYTE   N17  Cn5  v070
 BYTE   W17
 BYTE   PAN   c_v+63
 BYTE   W01
 BYTE   N17  Cn5  v080
 BYTE   W18
 BYTE   N11  Cn5  v020
 BYTE   W11
 BYTE   PAN   c_v+0
 BYTE   W01
 BYTE   N17  Cn5  v070
 BYTE   W17
 BYTE   PAN   c_v-64
 BYTE   W01
 BYTE   N17  Cn5  v080
 BYTE   W06
//  #08 //001   ----------------------------------------
 BYTE   W12
 BYTE   N11  Cn5  v020
 BYTE   W11
 BYTE   PAN   c_v+0
 BYTE   W01
 BYTE   N17  Cn5  v070
 BYTE   W17
 BYTE   PAN   c_v+63
 BYTE   W01
 BYTE   N17  Cn5  v080
 BYTE   W18
 BYTE   N11  Cn5  v020
 BYTE   W11
 BYTE   PAN   c_v+0
 BYTE   W01
 BYTE   N17  Cn5  v070
 BYTE   W17
 BYTE   PAN   c_v-64
 BYTE   W01
 BYTE   N17  Cn5  v080
 BYTE   W06
//  #08 //002   ----------------------------------------
 BYTE   W12
 BYTE   N11  Cn5  v020
 BYTE   W11
 BYTE   PAN   c_v+0
 BYTE   W18
 BYTE   PAN   c_v+63
 BYTE   W54
 BYTE   W01
//  #08 //003   ----------------------------------------
 BYTE   W18
 BYTE   PAN   c_v+0
 BYTE   W06
 BYTE   N17  Gn4  v080
 BYTE   W72
//  #08 //004   ----------------------------------------
 BYTE   W12
Label_011C9BFC:
 BYTE   W84
//  #08 //005   ----------------------------------------
 BYTE   W96
//  #08 //006   ----------------------------------------
 BYTE   W96
//  #08 //007   ----------------------------------------
 BYTE   W96
//  #08 //008   ----------------------------------------
 BYTE   W96
//  #08 //009   ----------------------------------------
 BYTE   W96
//  #08 //010   ----------------------------------------
 BYTE   W96
//  #08 //011   ----------------------------------------
 BYTE   W96
//  #08 //012   ----------------------------------------
 BYTE   W96
//  #08 //013   ----------------------------------------
 BYTE   W96
//  #08 //014   ----------------------------------------
 BYTE   W96
//  #08 //015   ----------------------------------------
 BYTE   W96
//  #08 //016   ----------------------------------------
 BYTE   W96
//  #08 //017   ----------------------------------------
 BYTE   W96
//  #08 //018   ----------------------------------------
 BYTE   W96
//  #08 //019   ----------------------------------------
 BYTE   W18
 BYTE   VOICE   80
 BYTE   W05
 BYTE   PAN   c_v-64
 BYTE   W01
 BYTE   N05  As2  v080
 BYTE   W06
 BYTE   Cn3
 BYTE   W06
 BYTE   Dn3
 BYTE   W06
 BYTE   Fn3
 BYTE   W05
 BYTE   PAN   c_v+63
 BYTE   W01
 BYTE   N05  As3
 BYTE   W06
 BYTE   Cn4
 BYTE   W06
 BYTE   Dn4
 BYTE   W06
 BYTE   Fn4
 BYTE   W05
 BYTE   PAN   c_v-64
 BYTE   W01
 BYTE   N05  As4
 BYTE   W06
 BYTE   Fn4
 BYTE   W06
 BYTE   Dn4
 BYTE   W06
 BYTE   Cn4
 BYTE   W05
 BYTE   PAN   c_v+63
 BYTE   W01
//  #08 //020   ----------------------------------------
 BYTE   N05  As3
 BYTE   W06
 BYTE   Fn3
 BYTE   W06
 BYTE   Dn3
 BYTE   W06
 BYTE   Cn3
 BYTE   W78
//  #08 //021   ----------------------------------------
 BYTE   W96
//  #08 //022   ----------------------------------------
 BYTE   W96
//  #08 //023   ----------------------------------------
 BYTE   W96
//  #08 //024   ----------------------------------------
 BYTE   W96
//  #08 //025   ----------------------------------------
 BYTE   W96
//  #08 //026   ----------------------------------------
 BYTE   W96
//  #08 //027   ----------------------------------------
 BYTE   W96
//  #08 //028   ----------------------------------------
 BYTE   W24
 BYTE   Cn4  v035
 BYTE   W06
 BYTE   Cn5
 BYTE   W06
 BYTE   Cn4
 BYTE   W06
 BYTE   Cn5
 BYTE   W06
 BYTE   Cn4
 BYTE   W06
 BYTE   Cn5
 BYTE   W42
//  #08 //029   ----------------------------------------
 BYTE   W23
 BYTE   PAN   c_v-64
 BYTE   W01
 BYTE   N05  Cn4
 BYTE   W06
 BYTE   Cn5
 BYTE   W06
 BYTE   Cn4
 BYTE   W06
 BYTE   Cn5
 BYTE   W06
 BYTE   Cn4
 BYTE   W06
 BYTE   Cn5
 BYTE   W42
//  #08 //030   ----------------------------------------
 BYTE   W96
//  #08 //031   ----------------------------------------
 BYTE   W96
//  #08 //032   ----------------------------------------
 BYTE   W96
//  #08 //033   ----------------------------------------
 BYTE   W96
//  #08 //034   ----------------------------------------
 BYTE   W96
//  #08 //035   ----------------------------------------
 BYTE   W96
//  #08 //036   ----------------------------------------
 BYTE   W96
//  #08 //037   ----------------------------------------
 BYTE   W96
//  #08 //038   ----------------------------------------
 BYTE   W96
//  #08 //039   ----------------------------------------
 BYTE   W96
//  #08 //040   ----------------------------------------
 BYTE   W96
//  #08 //041   ----------------------------------------
 BYTE   W96
//  #08 //042   ----------------------------------------
 BYTE   W96
//  #08 //043   ----------------------------------------
 BYTE   W96
//  #08 //044   ----------------------------------------
 BYTE   W96
//  #08 //045   ----------------------------------------
 BYTE   W96
//  #08 //046   ----------------------------------------
 BYTE   W96
//  #08 //047   ----------------------------------------
 BYTE   W24
 BYTE   As2  v080
 BYTE   W06
 BYTE   Cn3
 BYTE   W06
 BYTE   Dn3
 BYTE   W06
 BYTE   Fn3
 BYTE   W06
 BYTE   As3
 BYTE   W06
 BYTE   Cn4
 BYTE   W05
 BYTE   PAN   c_v+63
 BYTE   W01
 BYTE   N05  Dn4
 BYTE   W06
 BYTE   Fn4
 BYTE   W06
 BYTE   As4
 BYTE   W06
 BYTE   Fn4
 BYTE   W05
 BYTE   PAN   c_v-64
 BYTE   W01
 BYTE   N05  Dn4
 BYTE   W06
 BYTE   Cn4
 BYTE   W06
//  #08 //048   ----------------------------------------
 BYTE   As3
 BYTE   W06
 BYTE   Fn3
 BYTE   W05
 BYTE   PAN   c_v+63
 BYTE   W01
 BYTE   N05  Dn3
 BYTE   W06
 BYTE   VOICE   100
 BYTE   W02
 BYTE   PAN   c_v+0
 BYTE   W04
 BYTE   N17  Cn5  v120
 BYTE   W17
 BYTE   PAN   c_v+63
 BYTE   W01
 BYTE   N17  Cn5  v090
 BYTE   W18
 BYTE   N11  Cn5  v050
 BYTE   W11
 BYTE   PAN   c_v+0
 BYTE   W01
 BYTE   N17  Cn5  v120
 BYTE   W17
 BYTE   PAN   c_v-64
 BYTE   W01
 BYTE   N17  Cn5  v090
 BYTE   W06
//  #08 //049   ----------------------------------------
Label_011C9CC6:
 BYTE   W12
 BYTE   N11  Cn5  v050
 BYTE   W11
 BYTE   PAN   c_v+0
 BYTE   W01
 BYTE   N17  Cn5  v120
 BYTE   W17
 BYTE   PAN   c_v+63
 BYTE   W01
 BYTE   N17  Cn5  v090
 BYTE   W18
 BYTE   N11  Cn5  v050
 BYTE   W11
 BYTE   PAN   c_v+0
 BYTE   W01
 BYTE   N17  Cn5  v120
 BYTE   W17
 BYTE   PAN   c_v-64
 BYTE   W01
 BYTE   N17  Cn5  v090
 BYTE   W06
 BYTE   PEND 
//  #08 //050   ----------------------------------------
 BYTE   PATT
  POIN2 Label_011C9CC6
//  #08 //051   ----------------------------------------
Label_011C9CF1:
 BYTE   W12
 BYTE   N23  Cn5  v050
 BYTE   W17
 BYTE   PAN   c_v+0
 BYTE   W07
 BYTE   N11  Gn4  v090
 BYTE   W12
 BYTE   Cn5
 BYTE   W12
 BYTE   Dn5
 BYTE   W12
 BYTE   Ds5
 BYTE   W12
 BYTE   Fn5
 BYTE   W12
 BYTE   PEND 
//  #08 //052   ----------------------------------------
Label_011C9D06:
 BYTE   N11  Dn5  v090
 BYTE   W12
 BYTE   Ds5
 BYTE   W12
 BYTE   N17  Cn5  v120
 BYTE   W17
 BYTE   PAN   c_v+63
 BYTE   W01
 BYTE   N17  Cn5  v090
 BYTE   W18
 BYTE   N11  Cn5  v050
 BYTE   W11
 BYTE   PAN   c_v+0
 BYTE   W01
 BYTE   N17  Cn5  v120
 BYTE   W17
 BYTE   PAN   c_v-64
 BYTE   W01
 BYTE   N17  Cn5  v090
 BYTE   W06
 BYTE   PEND 
//  #08 //053   ----------------------------------------
 BYTE   PATT
  POIN2 Label_011C9CC6
//  #08 //054   ----------------------------------------
 BYTE   PATT
  POIN2 Label_011C9CC6
//  #08 //055   ----------------------------------------
 BYTE   W12
 BYTE   N11  Cn5  v050
 BYTE   W11
 BYTE   PAN   c_v+0
 BYTE   W01
 BYTE   N44  Ds4  v080  gtp3
 BYTE   W48
 BYTE   N15  Dn4
 BYTE   W16
 BYTE   Ds4
 BYTE   W08
//  #08 //056   ----------------------------------------
 BYTE   W08
 BYTE   Fn4
 BYTE   W16
 BYTE   N17  Cn5  v120
 BYTE   W17
 BYTE   PAN   c_v+63
 BYTE   W01
 BYTE   N17  Cn5  v090
 BYTE   W18
 BYTE   N11  Cn5  v050
 BYTE   W11
 BYTE   PAN   c_v+0
 BYTE   W01
 BYTE   N17  Cn5  v120
 BYTE   W17
 BYTE   PAN   c_v-64
 BYTE   W01
 BYTE   N17  Cn5  v090
 BYTE   W06
//  #08 //057   ----------------------------------------
 BYTE   PATT
  POIN2 Label_011C9CC6
//  #08 //058   ----------------------------------------
 BYTE   PATT
  POIN2 Label_011C9CC6
//  #08 //059   ----------------------------------------
 BYTE   PATT
  POIN2 Label_011C9CF1
//  #08 //060   ----------------------------------------
 BYTE   PATT
  POIN2 Label_011C9D06
//  #08 //061   ----------------------------------------
 BYTE   PATT
  POIN2 Label_011C9CC6
//  #08 //062   ----------------------------------------
 BYTE   W12
 BYTE   N11  Cn5  v050
 BYTE   W84
//  #08 //063   ----------------------------------------
 BYTE   W96
//  #08 //064   ----------------------------------------
 BYTE   W12
 BYTE   PAN   c_v+0
 BYTE   GoTo
  POIN2 Label_011C9BFC
//  #08 //065   ----------------------------------------
 BYTE   W12
 BYTE   FINE

//**************** Track 9 (Midi-Chn.8) ****************//

NearFarFrontier00_009:
//  #09 //000   ----------------------------------------
 BYTE   KEYSH   NearFarFrontier00_key+0
 BYTE   VOICE   18
 BYTE   VOL   33*NearFarFrontier00_mvl/mxv
 BYTE   W24
 BYTE   N44  Cn4  v075  gtp3
 BYTE   W48
 BYTE   Dn4
 BYTE   W24
//  #09 //001   ----------------------------------------
 BYTE   W24
 BYTE   N48  Ds4  v080
 BYTE   W48
 BYTE   N44  Fn4  v085  gtp3
 BYTE   W24
//  #09 //002   ----------------------------------------
 BYTE   W24
 BYTE   TIE  Gn4  v090
 BYTE   W72
//  #09 //003   ----------------------------------------
 BYTE   W28
 BYTE   W01
 BYTE   EOT
 BYTE   W66
 BYTE   W01
//  #09 //004   ----------------------------------------
 BYTE   N07  Dn3
 BYTE   W04
 BYTE   En3
 BYTE   W04
 BYTE   Fn3
 BYTE   W04
Label_011C9DB9:
 BYTE   N07  Gn3  v090
 BYTE   W04
 BYTE   An3
 BYTE   W04
 BYTE   N03  Bn3
 BYTE   W76
//  #09 //005   ----------------------------------------
Label_011C9DC2:
 BYTE   N05  An3  v090
 BYTE   W03
 BYTE   Bn3
 BYTE   W03
 BYTE   Cn4
 BYTE   W03
 BYTE   N02  Dn4
 BYTE   W80
 BYTE   W01
 BYTE   N03  Bn3
 BYTE   W02
 BYTE   An3
 BYTE   W02
 BYTE   Gn3
 BYTE   W02
 BYTE   PEND 
//  #09 //006   ----------------------------------------
Label_011C9DD6:
 BYTE   N03  Fn3  v090
 BYTE   W02
 BYTE   En3
 BYTE   W01
 BYTE   N05  An3
 BYTE   W03
 BYTE   Bn3
 BYTE   W03
 BYTE   N02  Cn4
 BYTE   W84
 BYTE   W03
 BYTE   PEND 
//  #09 //007   ----------------------------------------
 BYTE   W96
//  #09 //008   ----------------------------------------
 BYTE   W96
//  #09 //009   ----------------------------------------
Label_011C9DE8:
 BYTE   N03  Bn4  v090
 BYTE   W02
 BYTE   As4
 BYTE   W02
 BYTE   Gs4
 BYTE   W02
 BYTE   Fs4
 BYTE   W02
 BYTE   En4
 BYTE   W02
 BYTE   N01  Dn4
 BYTE   W84
 BYTE   W02
 BYTE   PEND 
//  #09 //010   ----------------------------------------
 BYTE   W06
 BYTE   N03  Bn4
 BYTE   W02
 BYTE   As4
 BYTE   W02
 BYTE   Gs4
 BYTE   W02
 BYTE   Fs4
 BYTE   W02
 BYTE   En4
 BYTE   W02
 BYTE   Dn4
 BYTE   W02
 BYTE   Cn4
 BYTE   W02
 BYTE   Bn3
 BYTE   W76
//  #09 //011   ----------------------------------------
 BYTE   W24
 BYTE   Cn5
 BYTE   W02
 BYTE   Bn4
 BYTE   W02
 BYTE   An4
 BYTE   W02
 BYTE   Gn4
 BYTE   W02
 BYTE   Fn4
 BYTE   W02
 BYTE   En4
 BYTE   W02
 BYTE   Dn4
 BYTE   W02
 BYTE   Cn4
 BYTE   W02
 BYTE   Bn3
 BYTE   W02
 BYTE   An3
 BYTE   W02
 BYTE   Gn3
 BYTE   W02
 BYTE   N01  Fn3
 BYTE   W36
 BYTE   W02
 BYTE   N03  Cn5
 BYTE   W02
 BYTE   Bn4
 BYTE   W02
 BYTE   An4
 BYTE   W02
 BYTE   Gn4
 BYTE   W02
 BYTE   Fn4
 BYTE   W02
 BYTE   En4
 BYTE   W02
//  #09 //012   ----------------------------------------
 BYTE   N05  Bn2
 BYTE   W03
 BYTE   Cn3
 BYTE   W03
 BYTE   Dn3
 BYTE   W03
 BYTE   En3
 BYTE   W03
 BYTE   Fn3
 BYTE   W03
 BYTE   Gn3
 BYTE   W03
 BYTE   An3
 BYTE   W03
 BYTE   N02  Bn3
 BYTE   W72
 BYTE   W03
//  #09 //013   ----------------------------------------
 BYTE   PATT
  POIN2 Label_011C9DC2
//  #09 //014   ----------------------------------------
 BYTE   PATT
  POIN2 Label_011C9DD6
//  #09 //015   ----------------------------------------
 BYTE   W96
//  #09 //016   ----------------------------------------
 BYTE   W96
//  #09 //017   ----------------------------------------
 BYTE   PATT
  POIN2 Label_011C9DE8
//  #09 //018   ----------------------------------------
 BYTE   N03  Bn4  v090
 BYTE   W02
 BYTE   As4
 BYTE   W02
 BYTE   Gs4
 BYTE   W02
 BYTE   Fs4
 BYTE   W02
 BYTE   En4
 BYTE   W02
 BYTE   Dn4
 BYTE   W02
 BYTE   Cn4
 BYTE   W02
 BYTE   Bn3
 BYTE   W01
 BYTE   N05  Gn4
 BYTE   W03
 BYTE   An4
 BYTE   W03
 BYTE   N02  Bn4
 BYTE   W72
 BYTE   W03
//  #09 //019   ----------------------------------------
 BYTE   W96
//  #09 //020   ----------------------------------------
 BYTE   W12
 BYTE   N03  Gn4
 BYTE   W02
 BYTE   Fn4
 BYTE   W02
 BYTE   En4
 BYTE   W02
 BYTE   Dn4
 BYTE   W02
 BYTE   Cn4
 BYTE   W02
 BYTE   N01  Bn3
 BYTE   W68
 BYTE   N05  En3
 BYTE   W03
 BYTE   Fn3
 BYTE   W03
//  #09 //021   ----------------------------------------
 BYTE   Gn3
 BYTE   W03
 BYTE   An3
 BYTE   W03
 BYTE   Bn3
 BYTE   W03
 BYTE   N02  Cn4
 BYTE   W72
 BYTE   W03
 BYTE   N03
 BYTE   W02
 BYTE   Bn3
 BYTE   W02
 BYTE   An3
 BYTE   W02
 BYTE   Gn3
 BYTE   W02
 BYTE   Fn3
 BYTE   W02
 BYTE   En3
 BYTE   W02
//  #09 //022   ----------------------------------------
 BYTE   N05  An3
 BYTE   W03
 BYTE   Bn3
 BYTE   W03
 BYTE   Cn4
 BYTE   W03
 BYTE   N02  Dn4
 BYTE   W48
 BYTE   W03
 BYTE   N23  Ds3
 BYTE   N23  Cn4
 BYTE   W24
 BYTE   N03  Bn3
 BYTE   W02
 BYTE   An3
 BYTE   W02
 BYTE   Gn3
 BYTE   W02
 BYTE   Fn3
 BYTE   W02
 BYTE   En3
 BYTE   W02
 BYTE   Ds3
 BYTE   W02
//  #09 //023   ----------------------------------------
 BYTE   N05  An3
 BYTE   W03
 BYTE   Bn3
 BYTE   W03
 BYTE   Cn4
 BYTE   W03
 BYTE   N02  Dn4
 BYTE   W84
 BYTE   W03
//  #09 //024   ----------------------------------------
 BYTE   W12
 BYTE   N03  Fn4
 BYTE   W02
 BYTE   En4
 BYTE   W02
 BYTE   Dn4
 BYTE   W02
 BYTE   Cn4
 BYTE   W02
 BYTE   As3
 BYTE   W02
 BYTE   N01  An3
 BYTE   W72
 BYTE   W02
//  #09 //025   ----------------------------------------
 BYTE   W90
 BYTE   N03  An4
 BYTE   W02
 BYTE   Gn4
 BYTE   W02
 BYTE   Fn4
 BYTE   W02
//  #09 //026   ----------------------------------------
 BYTE   En4
 BYTE   W02
 BYTE   Dn4
 BYTE   W02
 BYTE   Cn4
 BYTE   W02
 BYTE   Bn3
 BYTE   W02
 BYTE   An3
 BYTE   W02
 BYTE   N01  Gn3
 BYTE   W36
 BYTE   W02
 BYTE   N05  En4
 BYTE   W03
 BYTE   Fn4
 BYTE   W03
 BYTE   Gn4
 BYTE   W03
 BYTE   N02  An4
 BYTE   W36
 BYTE   W03
//  #09 //027   ----------------------------------------
 BYTE   W96
//  #09 //028   ----------------------------------------
 BYTE   W96
//  #09 //029   ----------------------------------------
 BYTE   W96
//  #09 //030   ----------------------------------------
 BYTE   W96
//  #09 //031   ----------------------------------------
 BYTE   W96
//  #09 //032   ----------------------------------------
 BYTE   N07  Dn3
 BYTE   W04
 BYTE   En3
 BYTE   W04
 BYTE   Fn3
 BYTE   W04
 BYTE   Gn3
 BYTE   W04
 BYTE   An3
 BYTE   W04
 BYTE   N03  Bn3
 BYTE   W76
//  #09 //033   ----------------------------------------
 BYTE   W96
//  #09 //034   ----------------------------------------
 BYTE   W96
//  #09 //035   ----------------------------------------
 BYTE   W96
//  #09 //036   ----------------------------------------
 BYTE   W96
//  #09 //037   ----------------------------------------
 BYTE   W96
//  #09 //038   ----------------------------------------
 BYTE   W12
 BYTE   Dn5
 BYTE   W02
 BYTE   Cn5
 BYTE   W02
 BYTE   Bn4
 BYTE   W02
 BYTE   An4
 BYTE   W02
 BYTE   Gn4
 BYTE   W76
//  #09 //039   ----------------------------------------
 BYTE   W96
//  #09 //040   ----------------------------------------
 BYTE   W96
//  #09 //041   ----------------------------------------
 BYTE   W12
 BYTE   N28  Ds4  v090  gtp1
 BYTE   W36
 BYTE   N17  Gs4
 BYTE   W24
 BYTE   Cn5
 BYTE   W24
//  #09 //042   ----------------------------------------
 BYTE   N11  Gs4
 BYTE   W12
 BYTE   N40  As4  v090  gtp1
 BYTE   W48
 BYTE   N17
 BYTE   W24
 BYTE   N11  Dn5
 BYTE   W12
//  #09 //043   ----------------------------------------
 BYTE   W12
 BYTE   N40  As4  v090  gtp1
 BYTE   W48
 BYTE   Dn5
 BYTE   W36
//  #09 //044   ----------------------------------------
 BYTE   W12
 BYTE   N28  Ds5  v090  gtp1
 BYTE   W36
 BYTE   N23  Cn5
 BYTE   W24
 BYTE   N11  As4
 BYTE   W12
 BYTE   Gn4
 BYTE   W12
//  #09 //045   ----------------------------------------
 BYTE   W12
 BYTE   N32  Gs4  v090  gtp3
 BYTE   W36
 BYTE   N11  Cn5
 BYTE   W24
 BYTE   N32  Ds5  v090  gtp3
 BYTE   W24
//  #09 //046   ----------------------------------------
 BYTE   W12
 BYTE   N01  Dn5
 BYTE   W02
 BYTE   Cn5
 BYTE   W02
 BYTE   Bn4
 BYTE   W02
 BYTE   An4
 BYTE   W02
 BYTE   N03  Gn4
 BYTE   W76
//  #09 //047   ----------------------------------------
 BYTE   W96
//  #09 //048   ----------------------------------------
 BYTE   N07  Bn2
 BYTE   W04
 BYTE   Cn3
 BYTE   W04
 BYTE   Dn3
 BYTE   W04
 BYTE   En3
 BYTE   W04
 BYTE   Fn3
 BYTE   W04
 BYTE   N03  Gn3
 BYTE   W76
//  #09 //049   ----------------------------------------
 BYTE   W96
//  #09 //050   ----------------------------------------
 BYTE   W96
//  #09 //051   ----------------------------------------
 BYTE   W12
 BYTE   Fn3
 BYTE   W02
 BYTE   En3
 BYTE   W02
 BYTE   Dn3
 BYTE   W02
 BYTE   Cn3
 BYTE   W02
 BYTE   Bn2
 BYTE   W02
 BYTE   An2
 BYTE   W02
 BYTE   Gn2
 BYTE   W02
 BYTE   Fn2
 BYTE   W02
 BYTE   En2
 BYTE   W02
 BYTE   Dn2
 BYTE   W02
 BYTE   Cn2
 BYTE   W02
 BYTE   N01  Bn1
 BYTE   W02
 BYTE   N05  Gn4  v100
 BYTE   W12
 BYTE   Cn5
 BYTE   W12
 BYTE   Dn5
 BYTE   W12
 BYTE   N03  Gn1
 BYTE   W02
 BYTE   An1
 BYTE   W02
 BYTE   Bn1
 BYTE   W02
 BYTE   Cn2
 BYTE   W02
 BYTE   Dn2
 BYTE   W02
 BYTE   En2
 BYTE   W02
 BYTE   Fn2
 BYTE   W02
 BYTE   Gn2
 BYTE   W02
 BYTE   An2
 BYTE   W02
 BYTE   Bn2
 BYTE   W02
 BYTE   Cn3
 BYTE   W02
 BYTE   N01  Dn3
 BYTE   W02
//  #09 //052   ----------------------------------------
 BYTE   N03  Cn2
 BYTE   W02
 BYTE   Dn2
 BYTE   W02
 BYTE   En2
 BYTE   W02
 BYTE   Fn2
 BYTE   W02
 BYTE   Gn2
 BYTE   W02
 BYTE   An2
 BYTE   W02
 BYTE   Bn2
 BYTE   W02
 BYTE   Cn3
 BYTE   W02
 BYTE   Dn3
 BYTE   W02
 BYTE   En3
 BYTE   W02
 BYTE   Fn3
 BYTE   W02
 BYTE   N01  Gn3
 BYTE   W72
 BYTE   W02
//  #09 //053   ----------------------------------------
 BYTE   W96
//  #09 //054   ----------------------------------------
 BYTE   N03  An3  v090
 BYTE   W02
 BYTE   Gn3
 BYTE   W02
 BYTE   Fn3
 BYTE   W02
 BYTE   En3
 BYTE   W02
 BYTE   Dn3
 BYTE   W02
 BYTE   Cn3
 BYTE   W02
 BYTE   Bn2
 BYTE   W02
 BYTE   En3
 BYTE   W02
 BYTE   Fn3
 BYTE   W02
 BYTE   Gn3
 BYTE   W02
 BYTE   An3
 BYTE   W02
 BYTE   N01  Bn3
 BYTE   W72
 BYTE   W02
//  #09 //055   ----------------------------------------
 BYTE   W14
 BYTE   N03  Bn2
 BYTE   W02
 BYTE   Cn3
 BYTE   W02
 BYTE   Dn3
 BYTE   W02
 BYTE   En3
 BYTE   W02
 BYTE   N01  Fn3
 BYTE   W72
 BYTE   W02
//  #09 //056   ----------------------------------------
 BYTE   W96
//  #09 //057   ----------------------------------------
 BYTE   N03  Gn3
 BYTE   W02
 BYTE   Fn3
 BYTE   W02
 BYTE   En3
 BYTE   W02
 BYTE   Dn3
 BYTE   W02
 BYTE   Cn3
 BYTE   W02
 BYTE   Bn2
 BYTE   W02
 BYTE   An2
 BYTE   W02
 BYTE   Dn3
 BYTE   W02
 BYTE   En3
 BYTE   W02
 BYTE   Fn3
 BYTE   W02
 BYTE   Gn3
 BYTE   W02
 BYTE   N01  An3
 BYTE   W72
 BYTE   W02
//  #09 //058   ----------------------------------------
 BYTE   W96
//  #09 //059   ----------------------------------------
 BYTE   W12
 BYTE   N03  Fn3
 BYTE   W02
 BYTE   En3
 BYTE   W02
 BYTE   Dn3
 BYTE   W02
 BYTE   Cn3
 BYTE   W02
 BYTE   Bn2
 BYTE   W02
 BYTE   An2
 BYTE   W02
 BYTE   Gn2
 BYTE   W02
 BYTE   Bn2
 BYTE   W02
 BYTE   Cn3
 BYTE   W02
 BYTE   Dn3
 BYTE   W02
 BYTE   En3
 BYTE   W02
 BYTE   N01  Fn3
 BYTE   W02
 BYTE   N05  Gn3  v100
 BYTE   W12
 BYTE   Cn4
 BYTE   W12
 BYTE   Dn4
 BYTE   W12
 BYTE   Ds4
 BYTE   W12
 BYTE   Fn4
 BYTE   W12
//  #09 //060   ----------------------------------------
 BYTE   Dn4
 BYTE   W12
 BYTE   Ds4
 BYTE   W84
//  #09 //061   ----------------------------------------
 BYTE   W84
 BYTE   N03  An3  v090
 BYTE   W02
 BYTE   Gn3
 BYTE   W02
 BYTE   Fn3
 BYTE   W02
 BYTE   En3
 BYTE   W02
 BYTE   Dn3
 BYTE   W02
 BYTE   Cn3
 BYTE   W02
//  #09 //062   ----------------------------------------
 BYTE   Bn2
 BYTE   W02
 BYTE   Fn3
 BYTE   W02
 BYTE   Gn3
 BYTE   W02
 BYTE   An3
 BYTE   W02
 BYTE   Bn3
 BYTE   W02
 BYTE   N01  Cn4
 BYTE   W84
 BYTE   W02
//  #09 //063   ----------------------------------------
 BYTE   W66
 BYTE   N03  Fn4
 BYTE   W02
 BYTE   En4
 BYTE   W02
 BYTE   Dn4
 BYTE   W02
 BYTE   Cn4
 BYTE   W02
 BYTE   Bn3
 BYTE   W02
 BYTE   An3
 BYTE   W02
 BYTE   Gn3
 BYTE   W02
 BYTE   Fn3
 BYTE   W02
 BYTE   En3
 BYTE   W02
 BYTE   Dn3
 BYTE   W02
 BYTE   Cn3
 BYTE   W02
 BYTE   N01  Bn2
 BYTE   W08
//  #09 //064   ----------------------------------------
 BYTE   N07  Dn3
 BYTE   W04
 BYTE   En3
 BYTE   W04
 BYTE   Fn3
 BYTE   W04
 BYTE   Gn3
 BYTE   GoTo
  POIN2 Label_011C9DB9
//  #09 //065   ----------------------------------------
 BYTE   W04
 BYTE   An3
 BYTE   W04
 BYTE   N03  Bn3
 BYTE   W04
 BYTE   FINE

//**************** Track 10 (Midi-Chn.9) ****************//

NearFarFrontier00_010:
//  #10 //000   ----------------------------------------
 BYTE   KEYSH   NearFarFrontier00_key+0
 BYTE   VOICE   19
 BYTE   PAN   c_v-11
 BYTE   VOL   23*NearFarFrontier00_mvl/mxv
 BYTE   W24
 BYTE   N44  Gn3  v075  gtp3
 BYTE   Ds1
 BYTE   W48
 BYTE   As3
 BYTE   N44  Fn1  v075  gtp3
 BYTE   W24
//  #10 //001   ----------------------------------------
 BYTE   W24
 BYTE   N48  Gs3  v080
 BYTE   N48  Cn1
 BYTE   W48
 BYTE   N44  As3  v085  gtp3
 BYTE   Dn1
 BYTE   W24
//  #10 //002   ----------------------------------------
 BYTE   W24
 BYTE   TIE  Bn3  v090
 BYTE   TIE  Dn1
 BYTE   W72
//  #10 //003   ----------------------------------------
 BYTE   W28
 BYTE   W01
 BYTE   EOT
 BYTE   Bn3  v038
 BYTE   W66
 BYTE   W01
//  #10 //004   ----------------------------------------
 BYTE   W12
Label_011CA0BD:
 BYTE   W12
 BYTE   N28  Cn4  v090  gtp1
 BYTE   Ds1
 BYTE   W36
 BYTE   N23  Cn4
 BYTE   N23  Ds1
 BYTE   W24
 BYTE   N11  Ds4
 BYTE   N11  Gn1
 BYTE   W12
//  #10 //005   ----------------------------------------
Label_011CA0CE:
 BYTE   W12
 BYTE   N17  Ds4  v090
 BYTE   N17  Gs1
 BYTE   W24
 BYTE   N11  Ds4
 BYTE   N23  Gs1
 BYTE   W12
 BYTE   N11  Dn4
 BYTE   W24
 BYTE   N17  Cn4
 BYTE   N17  Gs1
 BYTE   W24
 BYTE   PEND 
//  #10 //006   ----------------------------------------
 BYTE   W12
 BYTE   N28  Dn4  v090  gtp1
 BYTE   Gs1
 BYTE   W36
 BYTE   N08  Dn4
 BYTE   N08  Gs1
 BYTE   W12
 BYTE   N32  Fn4  v090  gtp3
 BYTE   As1
 BYTE   W36
//  #10 //007   ----------------------------------------
Label_011CA0F5:
 BYTE   N06  Dn4  v090
 BYTE   N06  Fn1
 BYTE   W12
 BYTE   N40  Ds4  v090  gtp1
 BYTE   Gn1
 BYTE   W48
 BYTE   N17  Dn4
 BYTE   N17  Fn1
 BYTE   W24
 BYTE   As3
 BYTE   N17  Dn1
 BYTE   W12
 BYTE   PEND 
//  #10 //008   ----------------------------------------
Label_011CA10B:
 BYTE   W12
 BYTE   N17  Cn4  v090
 BYTE   N17  Ds1
 BYTE   W24
 BYTE   N11  Cn4
 BYTE   N11  Ds1
 BYTE   W12
 BYTE   Gn4
 BYTE   N11  Cn2
 BYTE   W24
 BYTE   N23  Cn5
 BYTE   N23  Ds2
 BYTE   W24
 BYTE   PEND 
//  #10 //009   ----------------------------------------
 BYTE   W12
 BYTE   N17  Ds4
 BYTE   N17  Gs1
 BYTE   W24
 BYTE   N11  Ds4
 BYTE   N11  Gs1
 BYTE   W12
 BYTE   Gn4
 BYTE   N11  Cn2
 BYTE   W21
 BYTE   N02  Bn4
 BYTE   W03
 BYTE   N28  Cn5  v090  gtp1
 BYTE   Ds2
 BYTE   W24
//  #10 //010   ----------------------------------------
 BYTE   W24
 BYTE   Fn4
 BYTE   N28  As1  v090  gtp1
 BYTE   W36
 BYTE   As4
 BYTE   N28  Fn2  v090  gtp1
 BYTE   W36
//  #10 //011   ----------------------------------------
 BYTE   N23  Dn5
 BYTE   N23  Fn2
 BYTE   W48
 BYTE   N11  Fn4
 BYTE   N11  As1
 BYTE   W12
 BYTE   As4
 BYTE   N11  Dn2
 BYTE   W12
 BYTE   Dn5
 BYTE   N11  Fn2
 BYTE   W24
//  #10 //012   ----------------------------------------
Label_011CA158:
 BYTE   W24
 BYTE   N28  Cn4  v090  gtp1
 BYTE   Ds1
 BYTE   W36
 BYTE   N23  Cn4
 BYTE   N23  Ds1
 BYTE   W24
 BYTE   N11  Ds4
 BYTE   N11  Gn1
 BYTE   W12
 BYTE   PEND 
//  #10 //013   ----------------------------------------
 BYTE   PATT
  POIN2 Label_011CA0CE
//  #10 //014   ----------------------------------------
 BYTE   W12
 BYTE   N28  Dn4  v090  gtp1
 BYTE   Gs1
 BYTE   W36
 BYTE   N08  Dn4
 BYTE   N08  Gs1
 BYTE   W12
 BYTE   N23  Fn4
 BYTE   N23  As1
 BYTE   W24
 BYTE   N11  Ds4
 BYTE   N11  Gn1
 BYTE   W12
//  #10 //015   ----------------------------------------
 BYTE   PATT
  POIN2 Label_011CA0F5
//  #10 //016   ----------------------------------------
 BYTE   PATT
  POIN2 Label_011CA10B
//  #10 //017   ----------------------------------------
 BYTE   W12
 BYTE   N17  Ds4  v090
 BYTE   N17  Gs1
 BYTE   W24
 BYTE   N11  Ds4
 BYTE   N11  Gs1
 BYTE   W12
 BYTE   Gn4
 BYTE   N11  Cn2
 BYTE   W24
 BYTE   N23  Cn5
 BYTE   N23  Ds2
 BYTE   W24
//  #10 //018   ----------------------------------------
 BYTE   W24
 BYTE   N28  Cn5  v090  gtp1
 BYTE   Fn2
 BYTE   W36
 BYTE   As4
 BYTE   N28  Dn2  v090  gtp1
 BYTE   W36
//  #10 //019   ----------------------------------------
 BYTE   Cn5
 BYTE   N28  Dn2  v090  gtp1
 BYTE   W36
 BYTE   As4
 BYTE   N28  Dn2  v090  gtp1
 BYTE   W36
 BYTE   N17  Cn5
 BYTE   N17  Dn2
 BYTE   W24
//  #10 //020   ----------------------------------------
 BYTE   N11  As4
 BYTE   N11  Dn2
 BYTE   W24
 BYTE   N64  Cn4  v090  gtp1
 BYTE   Ds1
 BYTE   W72
//  #10 //021   ----------------------------------------
 BYTE   W12
 BYTE   N68  Dn4  v090  gtp3
 BYTE   Fn1
 BYTE   W84
//  #10 //022   ----------------------------------------
 BYTE   W12
 BYTE   N40  Ds4  v090  gtp1
 BYTE   Gn1
 BYTE   W84
//  #10 //023   ----------------------------------------
 BYTE   W12
 BYTE   Ds4
 BYTE   N40  Gn1  v090  gtp1
 BYTE   W48
 BYTE   N13  Cn4
 BYTE   N13  Ds1
 BYTE   W24
 BYTE   N23  Gn4
 BYTE   N23  As1
 BYTE   W12
//  #10 //024   ----------------------------------------
 BYTE   W24
 BYTE   N32  Ds4  v090  gtp3
 BYTE   Gn1
 BYTE   W36
 BYTE   N28  Gn4  v090  gtp1
 BYTE   Cn2
 BYTE   W36
//  #10 //025   ----------------------------------------
 BYTE   N11  Gn4
 BYTE   N11  Cn2
 BYTE   W12
 BYTE   N32  Fn4  v090  gtp3
 BYTE   As1
 BYTE   W36
 BYTE   N17  Dn4
 BYTE   N17  Fn1
 BYTE   W24
 BYTE   As4
 BYTE   N17  Dn2
 BYTE   W24
//  #10 //026   ----------------------------------------
 BYTE   W12
 BYTE   N32  Gn4  v090  gtp3
 BYTE   As1
 BYTE   W48
 BYTE   N28  As4  v090  gtp1
 BYTE   Dn2
 BYTE   W36
//  #10 //027   ----------------------------------------
 BYTE   N06  As4
 BYTE   N06  Dn2
 BYTE   W12
 BYTE   N40  Cn5  v090  gtp1
 BYTE   Ds2
 BYTE   W48
 BYTE   N17  As4
 BYTE   N17  Dn2
 BYTE   W24
 BYTE   Fn4  v100
 BYTE   W12
//  #10 //028   ----------------------------------------
 BYTE   W96
//  #10 //029   ----------------------------------------
 BYTE   W96
//  #10 //030   ----------------------------------------
 BYTE   W96
//  #10 //031   ----------------------------------------
 BYTE   W96
//  #10 //032   ----------------------------------------
 BYTE   PATT
  POIN2 Label_011CA158
//  #10 //033   ----------------------------------------
 BYTE   W12
 BYTE   N28  Ds4  v090  gtp1
 BYTE   Gs1
 BYTE   W36
 BYTE   N17  Gs4
 BYTE   N17  Cn2
 BYTE   W24
 BYTE   Cn5
 BYTE   N17  Fn2
 BYTE   W24
//  #10 //034   ----------------------------------------
 BYTE   N11  Gs4
 BYTE   N11  Cn2
 BYTE   W12
 BYTE   N40  As4  v090  gtp1
 BYTE   Dn2
 BYTE   W48
 BYTE   N17  As4
 BYTE   N17  Dn2
 BYTE   W24
 BYTE   N11  Dn5
 BYTE   N11  Fn2
 BYTE   W12
//  #10 //035   ----------------------------------------
 BYTE   W12
 BYTE   N40  As4  v090  gtp1
 BYTE   Ds2
 BYTE   W48
 BYTE   Dn5
 BYTE   N40  As2  v090  gtp1
 BYTE   W36
//  #10 //036   ----------------------------------------
 BYTE   W12
 BYTE   N28  Ds5  v090  gtp1
 BYTE   Gn2
 BYTE   W36
 BYTE   N23  Cn5
 BYTE   N23  Gn2
 BYTE   W24
 BYTE   N11  As4
 BYTE   N11  Ds2
 BYTE   W12
 BYTE   Gn4
 BYTE   N11  As1
 BYTE   W12
//  #10 //037   ----------------------------------------
 BYTE   W12
 BYTE   N32  Gs4  v090  gtp3
 BYTE   Ds2
 BYTE   W36
 BYTE   N11  Cn5
 BYTE   N11  Ds2
 BYTE   W24
 BYTE   N32  Ds5  v090  gtp3
 BYTE   Gs2
 BYTE   W24
//  #10 //038   ----------------------------------------
 BYTE   W24
 BYTE   N28  As4  v090  gtp1
 BYTE   Fn2
 BYTE   W36
 BYTE   Fn4
 BYTE   N28  As1  v090  gtp1
 BYTE   W36
//  #10 //039   ----------------------------------------
 BYTE   N17  As3
 BYTE   N17  Fn1
 BYTE   W24
 BYTE   N12  As3  v100
 BYTE   N12  Dn1
 BYTE   W16
 BYTE   Dn4
 BYTE   N12  Fn1
 BYTE   W16
 BYTE   Cn4
 BYTE   N12  Ds1
 BYTE   W16
 BYTE   Ds4
 BYTE   N12  Gn1
 BYTE   W16
 BYTE   Fn4
 BYTE   N12  As1
 BYTE   W08
//  #10 //040   ----------------------------------------
 BYTE   W08
 BYTE   As4
 BYTE   N12  Dn2
 BYTE   W13
 BYTE   VOICE   81
 BYTE   W03
 BYTE   N05  Ds3  v090
 BYTE   W06
 BYTE   Gn3
 BYTE   W06
 BYTE   Cn4
 BYTE   W06
 BYTE   Ds4
 BYTE   W06
 BYTE   Gn4
 BYTE   W06
 BYTE   Ds4
 BYTE   W06
 BYTE   Cn4
 BYTE   W06
 BYTE   Gn3
 BYTE   W06
 BYTE   Ds3
 BYTE   W06
 BYTE   Gn3
 BYTE   W06
 BYTE   Cn4
 BYTE   W06
 BYTE   Ds4
 BYTE   W06
//  #10 //041   ----------------------------------------
 BYTE   Gn4
 BYTE   W06
 BYTE   Ds4
 BYTE   W06
 BYTE   Cn4
 BYTE   W06
 BYTE   Gs3
 BYTE   W06
 BYTE   Gs2
 BYTE   W06
 BYTE   Cn3
 BYTE   W06
 BYTE   Fn3
 BYTE   W06
 BYTE   Gs3
 BYTE   W06
 BYTE   Cn4
 BYTE   W06
 BYTE   Gs3
 BYTE   W06
 BYTE   Fn3
 BYTE   W06
 BYTE   Cn3
 BYTE   W06
 BYTE   Gs2
 BYTE   W06
 BYTE   Cn3
 BYTE   W06
 BYTE   Fn3
 BYTE   W06
 BYTE   Gs3
 BYTE   W06
//  #10 //042   ----------------------------------------
 BYTE   Cn4
 BYTE   W06
 BYTE   Gs3
 BYTE   W06
 BYTE   Fn3
 BYTE   W06
 BYTE   Dn3
 BYTE   W06
 BYTE   As2
 BYTE   W06
 BYTE   Dn3
 BYTE   W06
 BYTE   Fn3
 BYTE   W06
 BYTE   As3
 BYTE   W06
 BYTE   Dn4
 BYTE   W06
 BYTE   As3
 BYTE   W06
 BYTE   Fn3
 BYTE   W06
 BYTE   Dn3
 BYTE   W06
 BYTE   As2
 BYTE   W06
 BYTE   Dn3
 BYTE   W06
 BYTE   Fn3
 BYTE   W06
 BYTE   As3
 BYTE   W06
//  #10 //043   ----------------------------------------
 BYTE   Dn4
 BYTE   W06
 BYTE   As3
 BYTE   W06
 BYTE   Gn3
 BYTE   W06
 BYTE   Ds3
 BYTE   W06
 BYTE   Gn2
 BYTE   W06
 BYTE   As2
 BYTE   W06
 BYTE   Ds3
 BYTE   W06
 BYTE   Gn3
 BYTE   W06
 BYTE   As3
 BYTE   W06
 BYTE   Gn3
 BYTE   W06
 BYTE   Dn3
 BYTE   W06
 BYTE   As2
 BYTE   W06
 BYTE   Gn2
 BYTE   W06
 BYTE   As2
 BYTE   W06
 BYTE   Dn3
 BYTE   W06
 BYTE   Gn3
 BYTE   W06
//  #10 //044   ----------------------------------------
 BYTE   As3
 BYTE   W06
 BYTE   Gn3
 BYTE   W06
 BYTE   Ds3
 BYTE   W06
 BYTE   Cn3
 BYTE   W06
 BYTE   Ds2
 BYTE   W06
 BYTE   Gn2
 BYTE   W06
 BYTE   Cn3
 BYTE   W06
 BYTE   Ds3
 BYTE   W06
 BYTE   Gn3
 BYTE   W06
 BYTE   Ds3
 BYTE   W06
 BYTE   Cn3
 BYTE   W06
 BYTE   Gn2
 BYTE   W06
 BYTE   Ds2
 BYTE   W06
 BYTE   Gn2
 BYTE   W06
 BYTE   Cn3
 BYTE   W06
 BYTE   Ds3
 BYTE   W06
//  #10 //045   ----------------------------------------
 BYTE   Gn3
 BYTE   W06
 BYTE   Ds3
 BYTE   W06
 BYTE   Cn3
 BYTE   W06
 BYTE   Gs2
 BYTE   W06
 BYTE   Cn3
 BYTE   W06
 BYTE   Ds3
 BYTE   W06
 BYTE   Gs3
 BYTE   W06
 BYTE   Cn4
 BYTE   W06
 BYTE   Ds4
 BYTE   W06
 BYTE   Cn4
 BYTE   W06
 BYTE   Gs3
 BYTE   W06
 BYTE   Ds3
 BYTE   W06
 BYTE   Cn3
 BYTE   W06
 BYTE   Ds3
 BYTE   W06
 BYTE   Gs3
 BYTE   W06
 BYTE   Cn4
 BYTE   W06
//  #10 //046   ----------------------------------------
 BYTE   Ds4
 BYTE   W06
 BYTE   Cn4
 BYTE   W06
 BYTE   Gs3
 BYTE   W06
 BYTE   Ds3
 BYTE   W06
 BYTE   Dn3
 BYTE   W06
 BYTE   Fn3
 BYTE   W06
 BYTE   As3
 BYTE   W06
 BYTE   Dn4
 BYTE   W06
 BYTE   Fn4
 BYTE   W06
 BYTE   Dn4
 BYTE   W06
 BYTE   As3
 BYTE   W06
 BYTE   Fn3
 BYTE   W06
 BYTE   Dn3
 BYTE   W06
 BYTE   Fn3
 BYTE   W06
 BYTE   As3
 BYTE   W06
 BYTE   Dn4
 BYTE   W06
//  #10 //047   ----------------------------------------
 BYTE   Fn4
 BYTE   W06
 BYTE   Dn4
 BYTE   W06
 BYTE   As3
 BYTE   W06
 BYTE   Fn3
 BYTE   W78
//  #10 //048   ----------------------------------------
 BYTE   W18
 BYTE   VOICE   19
 BYTE   W06
 BYTE   N96  Gs3
 BYTE   N96  Ds1
 BYTE   W72
//  #10 //049   ----------------------------------------
Label_011CA3AA:
 BYTE   W24
 BYTE   N96  As3  v090
 BYTE   N96  Fn1
 BYTE   W72
 BYTE   PEND 
//  #10 //050   ----------------------------------------
Label_011CA3B2:
 BYTE   W24
 BYTE   N80  Gn3  v090  gtp3
 BYTE   Ds1
 BYTE   W72
 BYTE   PEND 
//  #10 //051   ----------------------------------------
 BYTE   W96
//  #10 //052   ----------------------------------------
Label_011CA3BB:
 BYTE   W24
 BYTE   N96  Gs3  v090
 BYTE   N96  Ds1
 BYTE   W72
 BYTE   PEND 
//  #10 //053   ----------------------------------------
 BYTE   W24
 BYTE   N68  As3  v090  gtp3
 BYTE   Fn1
 BYTE   W72
//  #10 //054   ----------------------------------------
 BYTE   W24
 BYTE   N84  Cn4  v090  gtp1
 BYTE   Ds1
 BYTE   W72
//  #10 //055   ----------------------------------------
 BYTE   W24
 BYTE   N48  Gn3
 BYTE   N48  Ds1
 BYTE   W48
 BYTE   N15  Fn3
 BYTE   N15  Dn1
 BYTE   W16
 BYTE   Gn3
 BYTE   N15  Ds1
 BYTE   W08
//  #10 //056   ----------------------------------------
 BYTE   W08
 BYTE   As3
 BYTE   N15  Fn1
 BYTE   W16
 BYTE   N68  Gs3  v090  gtp3
 BYTE   Ds1
 BYTE   W72
//  #10 //057   ----------------------------------------
 BYTE   PATT
  POIN2 Label_011CA3AA
//  #10 //058   ----------------------------------------
 BYTE   PATT
  POIN2 Label_011CA3B2
//  #10 //059   ----------------------------------------
 BYTE   W96
//  #10 //060   ----------------------------------------
 BYTE   PATT
  POIN2 Label_011CA3BB
//  #10 //061   ----------------------------------------
 BYTE   W24
 BYTE   N56  As3  v090  gtp3
 BYTE   Fn1
 BYTE   W72
//  #10 //062   ----------------------------------------
 BYTE   W12
 BYTE   N18  Dn4
 BYTE   N18  Gn1
 BYTE   W24
 BYTE   N06  Dn4
 BYTE   N06  Gn1
 BYTE   W12
 BYTE   N18  Gn4
 BYTE   N18  Bn1
 BYTE   W24
 BYTE   N06  Bn4
 BYTE   N06  Dn2
 BYTE   W12
 BYTE   N18  Dn5
 BYTE   N18  Gn2
 BYTE   W12
//  #10 //063   ----------------------------------------
 BYTE   W12
 BYTE   Gn5
 BYTE   N18  Bn2
 BYTE   W24
 BYTE   N06  Gn4
 BYTE   N06  Bn1
 BYTE   W12
 BYTE   N18  Gn4
 BYTE   N18  Bn1
 BYTE   W48
//  #10 //064   ----------------------------------------
 BYTE   W12
 BYTE   GoTo
  POIN2 Label_011CA0BD
//  #10 //065   ----------------------------------------
 BYTE   W12
 BYTE   FINE

//**************** Track 11 (Midi-Chn.10) ****************//

NearFarFrontier00_011:
//  #11 //000   ----------------------------------------
 BYTE   KEYSH   NearFarFrontier00_key+0
 BYTE   VOICE   81
 BYTE   PAN   c_v-56
 BYTE   VOL   26*NearFarFrontier00_mvl/mxv
 BYTE   W96
//  #11 //001   ----------------------------------------
 BYTE   W96
//  #11 //002   ----------------------------------------
 BYTE   W96
//  #11 //003   ----------------------------------------
 BYTE   W96
//  #11 //004   ----------------------------------------
 BYTE   W12
Label_011CA441:
 BYTE   W84
//  #11 //005   ----------------------------------------
 BYTE   W96
//  #11 //006   ----------------------------------------
 BYTE   W96
//  #11 //007   ----------------------------------------
 BYTE   W96
//  #11 //008   ----------------------------------------
 BYTE   W96
//  #11 //009   ----------------------------------------
 BYTE   W96
//  #11 //010   ----------------------------------------
 BYTE   W96
//  #11 //011   ----------------------------------------
 BYTE   W96
//  #11 //012   ----------------------------------------
 BYTE   W18
 BYTE   PAN   c_v+0
 BYTE   W06
 BYTE   N05  Ds3  v095
 BYTE   W06
 BYTE   Gn3
 BYTE   W06
 BYTE   Cn4
 BYTE   W06
 BYTE   Ds4
 BYTE   W06
 BYTE   Gn4
 BYTE   W06
 BYTE   Ds4
 BYTE   W06
 BYTE   Cn4
 BYTE   W06
 BYTE   Gn3
 BYTE   W06
 BYTE   Ds3
 BYTE   W06
 BYTE   Gn3
 BYTE   W06
 BYTE   Cn4
 BYTE   W06
 BYTE   Ds4
 BYTE   W06
//  #11 //013   ----------------------------------------
 BYTE   Gn4
 BYTE   W06
 BYTE   Ds4
 BYTE   W06
 BYTE   Cn4
 BYTE   W06
 BYTE   Gs3
 BYTE   W06
 BYTE   Cn3
 BYTE   W06
 BYTE   Fn3
 BYTE   W06
 BYTE   Gs3
 BYTE   W06
 BYTE   Cn4
 BYTE   W06
 BYTE   Fn4
 BYTE   W06
 BYTE   Cn4
 BYTE   W06
 BYTE   Gs3
 BYTE   W06
 BYTE   Fn3
 BYTE   W06
 BYTE   Cn3
 BYTE   W06
 BYTE   Fn3
 BYTE   W06
 BYTE   Gs3
 BYTE   W06
 BYTE   Cn4
 BYTE   W06
//  #11 //014   ----------------------------------------
 BYTE   Fn4
 BYTE   W06
 BYTE   Cn4
 BYTE   W06
 BYTE   As3
 BYTE   W06
 BYTE   Fn3
 BYTE   W06
 BYTE   Dn3
 BYTE   W06
 BYTE   Fn3
 BYTE   W06
 BYTE   As3
 BYTE   W06
 BYTE   Dn4
 BYTE   W06
 BYTE   Fn4
 BYTE   W06
 BYTE   Dn4
 BYTE   W06
 BYTE   As3
 BYTE   W06
 BYTE   Fn3
 BYTE   W06
 BYTE   Dn3
 BYTE   W06
 BYTE   Fn3
 BYTE   W06
 BYTE   As3
 BYTE   W06
 BYTE   Dn4
 BYTE   W06
//  #11 //015   ----------------------------------------
 BYTE   Fn4
 BYTE   W06
 BYTE   Dn4
 BYTE   W06
 BYTE   As3
 BYTE   W06
 BYTE   Gn3
 BYTE   W06
 BYTE   As2
 BYTE   W06
 BYTE   Ds3
 BYTE   W06
 BYTE   Gn3
 BYTE   W06
 BYTE   As3
 BYTE   W06
 BYTE   Ds4
 BYTE   W06
 BYTE   As3
 BYTE   W06
 BYTE   Gn3
 BYTE   W06
 BYTE   Dn3
 BYTE   W06
 BYTE   As2
 BYTE   W06
 BYTE   Dn3
 BYTE   W06
 BYTE   Gn3
 BYTE   W06
 BYTE   As3
 BYTE   W06
//  #11 //016   ----------------------------------------
 BYTE   Dn4
 BYTE   W06
 BYTE   As3
 BYTE   W06
 BYTE   Gn3
 BYTE   W06
 BYTE   Ds3
 BYTE   W06
 BYTE   Cn3
 BYTE   W06
 BYTE   Ds3
 BYTE   W06
 BYTE   Gn3
 BYTE   W06
 BYTE   Cn4
 BYTE   W06
 BYTE   Ds4
 BYTE   W06
 BYTE   Cn4
 BYTE   W06
 BYTE   Gn3
 BYTE   W06
 BYTE   Ds3
 BYTE   W06
 BYTE   Cn3
 BYTE   W06
 BYTE   Ds3
 BYTE   W06
 BYTE   Gn3
 BYTE   W06
 BYTE   Cn4
 BYTE   W06
//  #11 //017   ----------------------------------------
 BYTE   Ds4
 BYTE   W06
 BYTE   Cn4
 BYTE   W06
 BYTE   Gs3
 BYTE   W06
 BYTE   Cn3
 BYTE   W06
 BYTE   Ds3
 BYTE   W06
 BYTE   Gs3
 BYTE   W06
 BYTE   Cn4
 BYTE   W06
 BYTE   Ds4
 BYTE   W06
 BYTE   Gs4
 BYTE   W06
 BYTE   Ds4
 BYTE   W06
 BYTE   Cn4
 BYTE   W06
 BYTE   Gs3
 BYTE   W06
 BYTE   Ds3
 BYTE   W06
 BYTE   Gs3
 BYTE   W06
 BYTE   Cn4
 BYTE   W06
 BYTE   Ds4
 BYTE   W06
//  #11 //018   ----------------------------------------
 BYTE   Gs4
 BYTE   W06
 BYTE   Ds4
 BYTE   W06
 BYTE   Cn4
 BYTE   W06
 BYTE   Gs3
 BYTE   W06
 BYTE   Fn3
 BYTE   W06
 BYTE   As3
 BYTE   W06
 BYTE   Ds4
 BYTE   W06
 BYTE   Fn4
 BYTE   W06
 BYTE   As4
 BYTE   W06
 BYTE   Fn4
 BYTE   W06
 BYTE   Dn4
 BYTE   W06
 BYTE   As3
 BYTE   W06
 BYTE   Fn3
 BYTE   W06
 BYTE   As3
 BYTE   W06
 BYTE   Dn4
 BYTE   W06
 BYTE   Fn4
 BYTE   W06
//  #11 //019   ----------------------------------------
 BYTE   As4
 BYTE   W06
 BYTE   Fn4
 BYTE   W06
 BYTE   Dn4
 BYTE   W06
 BYTE   As3
 BYTE   W78
//  #11 //020   ----------------------------------------
 BYTE   W96
//  #11 //021   ----------------------------------------
 BYTE   W96
//  #11 //022   ----------------------------------------
 BYTE   W96
//  #11 //023   ----------------------------------------
 BYTE   W96
//  #11 //024   ----------------------------------------
 BYTE   W96
//  #11 //025   ----------------------------------------
 BYTE   W96
//  #11 //026   ----------------------------------------
 BYTE   W96
//  #11 //027   ----------------------------------------
 BYTE   W96
//  #11 //028   ----------------------------------------
 BYTE   W96
//  #11 //029   ----------------------------------------
 BYTE   W96
//  #11 //030   ----------------------------------------
 BYTE   W96
//  #11 //031   ----------------------------------------
 BYTE   W96
//  #11 //032   ----------------------------------------
 BYTE   W96
//  #11 //033   ----------------------------------------
 BYTE   W96
//  #11 //034   ----------------------------------------
 BYTE   W96
//  #11 //035   ----------------------------------------
 BYTE   W96
//  #11 //036   ----------------------------------------
 BYTE   W96
//  #11 //037   ----------------------------------------
 BYTE   W96
//  #11 //038   ----------------------------------------
 BYTE   W96
//  #11 //039   ----------------------------------------
 BYTE   W96
//  #11 //040   ----------------------------------------
 BYTE   W18
 BYTE   PAN   c_v-56
 BYTE   W06
 BYTE   N05  Gn3  v100
 BYTE   W06
 BYTE   Cn4
 BYTE   W06
 BYTE   Ds4
 BYTE   W06
 BYTE   Gn4
 BYTE   W06
 BYTE   Cn5
 BYTE   W06
 BYTE   Gn4
 BYTE   W06
 BYTE   Ds4
 BYTE   W06
 BYTE   Cn4
 BYTE   W06
 BYTE   Gn3
 BYTE   W06
 BYTE   Cn4
 BYTE   W06
 BYTE   Ds4
 BYTE   W06
 BYTE   Gn4
 BYTE   W06
//  #11 //041   ----------------------------------------
 BYTE   Cn5
 BYTE   W06
 BYTE   Gn4
 BYTE   W06
 BYTE   Ds4
 BYTE   W06
 BYTE   Cn4
 BYTE   W06
 BYTE   Cn3
 BYTE   W06
 BYTE   Fn3
 BYTE   W06
 BYTE   Gs3
 BYTE   W06
 BYTE   Cn4
 BYTE   W06
 BYTE   Fn4
 BYTE   W06
 BYTE   Cn4
 BYTE   W06
 BYTE   Gs3
 BYTE   W06
 BYTE   Fn3
 BYTE   W06
 BYTE   Cn3
 BYTE   W06
 BYTE   Fn3
 BYTE   W06
 BYTE   Gs3
 BYTE   W06
 BYTE   Cn4
 BYTE   W06
//  #11 //042   ----------------------------------------
 BYTE   Fn4
 BYTE   W06
 BYTE   Cn4
 BYTE   W06
 BYTE   As3
 BYTE   W06
 BYTE   Fn3
 BYTE   W06
 BYTE   Dn3
 BYTE   W06
 BYTE   Fn3
 BYTE   W06
 BYTE   As3
 BYTE   W06
 BYTE   Dn4
 BYTE   W06
 BYTE   Fn4
 BYTE   W06
 BYTE   Dn4
 BYTE   W06
 BYTE   As3
 BYTE   W06
 BYTE   Fn3
 BYTE   W06
 BYTE   Dn3
 BYTE   W06
 BYTE   Fn3
 BYTE   W06
 BYTE   As3
 BYTE   W06
 BYTE   Dn4
 BYTE   W06
//  #11 //043   ----------------------------------------
 BYTE   Fn4
 BYTE   W06
 BYTE   Dn4
 BYTE   W06
 BYTE   As3
 BYTE   W06
 BYTE   Gn3
 BYTE   W06
 BYTE   As2
 BYTE   W06
 BYTE   Ds3
 BYTE   W06
 BYTE   Gn3
 BYTE   W06
 BYTE   As3
 BYTE   W06
 BYTE   Ds4
 BYTE   W06
 BYTE   As3
 BYTE   W06
 BYTE   Gn3
 BYTE   W06
 BYTE   Dn3
 BYTE   W06
 BYTE   As2
 BYTE   W06
 BYTE   Dn3
 BYTE   W06
 BYTE   Gn3
 BYTE   W06
 BYTE   As3
 BYTE   W06
//  #11 //044   ----------------------------------------
 BYTE   Dn4
 BYTE   W06
 BYTE   As3
 BYTE   W06
 BYTE   Gn3
 BYTE   W06
 BYTE   Ds3
 BYTE   W06
 BYTE   Gn2
 BYTE   W06
 BYTE   Cn3
 BYTE   W06
 BYTE   Ds3
 BYTE   W06
 BYTE   Gn3
 BYTE   W06
 BYTE   Cn4
 BYTE   W06
 BYTE   Gn3
 BYTE   W06
 BYTE   Ds3
 BYTE   W06
 BYTE   Cn3
 BYTE   W06
 BYTE   Gn2
 BYTE   W06
 BYTE   Cn3
 BYTE   W06
 BYTE   Ds3
 BYTE   W06
 BYTE   Gn3
 BYTE   W06
//  #11 //045   ----------------------------------------
 BYTE   Cn4
 BYTE   W06
 BYTE   Gn3
 BYTE   W06
 BYTE   Ds3
 BYTE   W06
 BYTE   Cn3
 BYTE   W06
 BYTE   Ds3
 BYTE   W06
 BYTE   Gs3
 BYTE   W06
 BYTE   Cn4
 BYTE   W06
 BYTE   Ds4
 BYTE   W06
 BYTE   Gs4
 BYTE   W06
 BYTE   Ds4
 BYTE   W06
 BYTE   Cn4
 BYTE   W06
 BYTE   Gs3
 BYTE   W06
 BYTE   Ds3
 BYTE   W06
 BYTE   Gs3
 BYTE   W06
 BYTE   Cn4
 BYTE   W06
 BYTE   Ds4
 BYTE   W06
//  #11 //046   ----------------------------------------
 BYTE   Gs4
 BYTE   W06
 BYTE   Ds4
 BYTE   W06
 BYTE   Cn4
 BYTE   W06
 BYTE   Gs3
 BYTE   W06
 BYTE   Fn3
 BYTE   W06
 BYTE   As3
 BYTE   W06
 BYTE   Dn4
 BYTE   W06
 BYTE   Fn4
 BYTE   W06
 BYTE   As4
 BYTE   W06
 BYTE   Fn4
 BYTE   W06
 BYTE   Dn4
 BYTE   W06
 BYTE   As3
 BYTE   W06
 BYTE   Fn3
 BYTE   W06
 BYTE   As3
 BYTE   W06
 BYTE   Dn4
 BYTE   W06
 BYTE   Fn4
 BYTE   W06
//  #11 //047   ----------------------------------------
 BYTE   As4
 BYTE   W06
 BYTE   Fn4
 BYTE   W06
 BYTE   Dn4
 BYTE   W06
 BYTE   As3
 BYTE   W78
//  #11 //048   ----------------------------------------
 BYTE   W96
//  #11 //049   ----------------------------------------
 BYTE   W96
//  #11 //050   ----------------------------------------
 BYTE   W96
//  #11 //051   ----------------------------------------
 BYTE   W96
//  #11 //052   ----------------------------------------
 BYTE   W96
//  #11 //053   ----------------------------------------
 BYTE   W96
//  #11 //054   ----------------------------------------
 BYTE   W96
//  #11 //055   ----------------------------------------
 BYTE   W96
//  #11 //056   ----------------------------------------
 BYTE   W96
//  #11 //057   ----------------------------------------
 BYTE   W96
//  #11 //058   ----------------------------------------
 BYTE   W96
//  #11 //059   ----------------------------------------
 BYTE   W96
//  #11 //060   ----------------------------------------
 BYTE   W96
//  #11 //061   ----------------------------------------
 BYTE   W96
//  #11 //062   ----------------------------------------
 BYTE   W96
//  #11 //063   ----------------------------------------
 BYTE   W96
//  #11 //064   ----------------------------------------
 BYTE   W12
 BYTE   GoTo
  POIN2 Label_011CA441
//  #11 //065   ----------------------------------------
 BYTE   W12
 BYTE   FINE

//**************** Track 12 (Midi-Chn.11) ****************//

NearFarFrontier00_012:
//  #12 //000   ----------------------------------------
 BYTE   KEYSH   NearFarFrontier00_key+0
 BYTE   VOICE   87
 BYTE   PAN   c_v+20
 BYTE   BENDR  4
 BYTE   VOL   15*NearFarFrontier00_mvl/mxv
 BYTE   W96
//  #12 //001   ----------------------------------------
 BYTE   W96
//  #12 //002   ----------------------------------------
 BYTE   W96
//  #12 //003   ----------------------------------------
 BYTE   W76
 BYTE   W01
 BYTE   N09  Gn1  v110
 BYTE   W11
 BYTE   BEND   c_v-32
 BYTE   W01
 BYTE   N21  Dn2  v105
 BYTE   W07
//  #12 //004   ----------------------------------------
 BYTE   W05
 BYTE   BEND   c_v+0
 BYTE   W07
Label_011CA662:
 BYTE   W05
 BYTE   N07  Ds2  v100
 BYTE   W12
 BYTE   N08  Fn2
 BYTE   W11
 BYTE   BEND   c_v+32
 BYTE   W01
 BYTE   N32  Fn2  v100  gtp2
 BYTE   W24
 BYTE   BEND   c_v+26
 BYTE   W01
 BYTE   BEND   c_v+20
 BYTE   W01
 BYTE   BEND   c_v+14
 BYTE   W01
 BYTE   BEND   c_v+3
 BYTE   W01
 BYTE   BEND   c_v-10
 BYTE   W01
 BYTE   BEND   c_v-20
 BYTE   W01
 BYTE   BEND   c_v-30
 BYTE   W01
 BYTE   BEND   c_v-50
 BYTE   W01
 BYTE   BEND   c_v-60
 BYTE   W01
 BYTE   BEND   c_v-64
 BYTE   W02
 BYTE   BEND   c_v+0
 BYTE   W01
 BYTE   N32  Cn2  v100  gtp1
 BYTE   W19
//  #12 //005   ----------------------------------------
 BYTE   W17
 BYTE   N08  Gn2  v105
 BYTE   W10
 BYTE   BEND   c_v+16
 BYTE   W02
 BYTE   N64  Fs2  v100  gtp1
 BYTE   W03
 BYTE   BEND   c_v+20
 BYTE   W01
 BYTE   BEND   c_v+24
 BYTE   W01
 BYTE   BEND   c_v+28
 BYTE   W01
 BYTE   BEND   c_v+32
 BYTE   W54
 BYTE   BEND   c_v+26
 BYTE   W01
 BYTE   BEND   c_v+20
 BYTE   W01
 BYTE   BEND   c_v+14
 BYTE   W01
 BYTE   BEND   c_v-2
 BYTE   W01
 BYTE   BEND   c_v-12
 BYTE   W01
 BYTE   BEND   c_v-22
 BYTE   W01
 BYTE   BEND   c_v-32
 BYTE   W01
//  #12 //006   ----------------------------------------
 BYTE   W05
 BYTE   N12  Gn2
 BYTE   BEND   c_v-24
 BYTE   W01
 BYTE   BEND   c_v-16
 BYTE   W01
 BYTE   BEND   c_v-8
 BYTE   W01
 BYTE   BEND   c_v+0
 BYTE   W21
 BYTE   N32  Fn2  v100  gtp1
 BYTE   W24
 BYTE   W01
 BYTE   BEND   c_v-8
 BYTE   W01
 BYTE   BEND   c_v-15
 BYTE   W01
 BYTE   BEND   c_v-22
 BYTE   W01
 BYTE   BEND   c_v-37
 BYTE   W01
 BYTE   BEND   c_v-44
 BYTE   W01
 BYTE   BEND   c_v-51
 BYTE   W01
 BYTE   BEND   c_v-64
 BYTE   W05
 BYTE   N11  Fn2  v110
 BYTE   BEND   c_v-24
 BYTE   W01
 BYTE   BEND   c_v-16
 BYTE   W01
 BYTE   BEND   c_v-8
 BYTE   W01
 BYTE   BEND   c_v+0
 BYTE   W09
 BYTE   N09  Dn2  v080
 BYTE   W19
//  #12 //007   ----------------------------------------
 BYTE   W05
 BYTE   N11  As1  v100
 BYTE   W24
 BYTE   N28  Fs2  v100  gtp1
 BYTE   BEND   c_v+5
 BYTE   W02
 BYTE   BEND   c_v+10
 BYTE   W01
 BYTE   BEND   c_v+15
 BYTE   W01
 BYTE   BEND   c_v+16
 BYTE   W20
 BYTE   BEND   c_v+10
 BYTE   W01
 BYTE   BEND   c_v+4
 BYTE   W01
 BYTE   BEND   c_v-2
 BYTE   W01
 BYTE   BEND   c_v-14
 BYTE   W01
 BYTE   BEND   c_v-20
 BYTE   W01
 BYTE   BEND   c_v-26
 BYTE   W01
 BYTE   BEND   c_v-32
 BYTE   W05
 BYTE   BEND   c_v+0
 BYTE   W01
 BYTE   N22  Gn2  v105
 BYTE   W03
 BYTE   BEND   c_v+4
 BYTE   W01
 BYTE   BEND   c_v+8
 BYTE   W01
 BYTE   BEND   c_v+12
 BYTE   W01
 BYTE   BEND   c_v+16
 BYTE   W06
 BYTE   BEND   c_v+0
 BYTE   W19
//  #12 //008   ----------------------------------------
 BYTE   W05
 BYTE   N12  Fn2  v100
 BYTE   W23
 BYTE   BEND   c_v+16
 BYTE   W01
 BYTE   N66  Dn2
 BYTE   W56
 BYTE   W01
 BYTE   BEND   c_v+9
 BYTE   W01
 BYTE   BEND   c_v+2
 BYTE   W01
 BYTE   BEND   c_v-4
 BYTE   W01
 BYTE   BEND   c_v-18
 BYTE   W01
 BYTE   BEND   c_v-24
 BYTE   W01
 BYTE   BEND   c_v-31
 BYTE   W01
 BYTE   BEND   c_v-44
 BYTE   W01
 BYTE   BEND   c_v-51
 BYTE   W01
 BYTE   BEND   c_v-58
 BYTE   W01
 BYTE   BEND   c_v-64
 BYTE   W01
//  #12 //009   ----------------------------------------
 BYTE   W03
 BYTE   BEND   c_v+0
 BYTE   W02
 BYTE   N12
 BYTE   W23
 BYTE   BEND   c_v+32
 BYTE   W01
 BYTE   N56  As1
 BYTE   W44
 BYTE   W01
 BYTE   BEND   c_v+24
 BYTE   W01
 BYTE   BEND   c_v+16
 BYTE   W01
 BYTE   BEND   c_v+8
 BYTE   W01
 BYTE   BEND   c_v-8
 BYTE   W01
 BYTE   BEND   c_v-16
 BYTE   W01
 BYTE   BEND   c_v-24
 BYTE   W01
 BYTE   BEND   c_v-40
 BYTE   W01
 BYTE   BEND   c_v-48
 BYTE   W01
 BYTE   BEND   c_v-56
 BYTE   W01
 BYTE   BEND   c_v-64
 BYTE   W05
 BYTE   BEND   c_v+0
 BYTE   W01
 BYTE   N20  Cn2  v105
 BYTE   W07
//  #12 //010   ----------------------------------------
 BYTE   W17
 BYTE   N13  Ds2  v100
 BYTE   W24
 BYTE   N32  Dn2
 BYTE   W03
 BYTE   BEND   c_v+4
 BYTE   W01
 BYTE   BEND   c_v+8
 BYTE   W01
 BYTE   BEND   c_v+12
 BYTE   W01
 BYTE   BEND   c_v+16
 BYTE   W17
 BYTE   BEND   c_v+6
 BYTE   W01
 BYTE   BEND   c_v+0
 BYTE   W11
 BYTE   BEND   c_v+32
 BYTE   W01
 BYTE   TIE  Cn2
 BYTE   W19
//  #12 //011   ----------------------------------------
 BYTE   W68
 BYTE   W03
 BYTE   BEND   c_v+27
 BYTE   W01
 BYTE   BEND   c_v+22
 BYTE   W01
 BYTE   BEND   c_v+17
 BYTE   W01
 BYTE   BEND   c_v+7
 BYTE   W01
 BYTE   BEND   c_v+2
 BYTE   W01
 BYTE   BEND   c_v-3
 BYTE   W01
 BYTE   BEND   c_v-15
 BYTE   W01
 BYTE   BEND   c_v-22
 BYTE   W01
 BYTE   BEND   c_v-29
 BYTE   W01
 BYTE   BEND   c_v-43
 BYTE   W01
 BYTE   BEND   c_v-50
 BYTE   W01
 BYTE   EOT
 BYTE   BEND   c_v-57
 BYTE   W01
 BYTE   BEND   c_v-64
 BYTE   W03
 BYTE   BEND   c_v+0
 BYTE   W03
 BYTE   N08  Dn3  v110
 BYTE   W07
//  #12 //012   ----------------------------------------
 BYTE   W05
 BYTE   N20  Ds3  v085
 BYTE   W24
 BYTE   N08  Fn3
 BYTE   W11
 BYTE   BEND   c_v+32
 BYTE   W01
 BYTE   N32  Fn3  v095  gtp2
 BYTE   W24
 BYTE   BEND   c_v+26
 BYTE   W01
 BYTE   BEND   c_v+20
 BYTE   W01
 BYTE   BEND   c_v+14
 BYTE   W01
 BYTE   BEND   c_v+3
 BYTE   W01
 BYTE   BEND   c_v-10
 BYTE   W01
 BYTE   BEND   c_v-20
 BYTE   W01
 BYTE   BEND   c_v-30
 BYTE   W01
 BYTE   BEND   c_v-50
 BYTE   W01
 BYTE   BEND   c_v-60
 BYTE   W01
 BYTE   BEND   c_v-64
 BYTE   W02
 BYTE   BEND   c_v+0
 BYTE   W01
 BYTE   N32  Cn3  v095  gtp1
 BYTE   W19
//  #12 //013   ----------------------------------------
 BYTE   W17
 BYTE   N08  Gn3  v100
 BYTE   W10
 BYTE   BEND   c_v+16
 BYTE   W02
 BYTE   N64  Fs3  v095  gtp1
 BYTE   W03
 BYTE   BEND   c_v+20
 BYTE   W01
 BYTE   BEND   c_v+24
 BYTE   W01
 BYTE   BEND   c_v+28
 BYTE   W01
 BYTE   BEND   c_v+32
 BYTE   W54
 BYTE   BEND   c_v+28
 BYTE   W01
 BYTE   BEND   c_v+24
 BYTE   W01
 BYTE   BEND   c_v+20
 BYTE   W01
 BYTE   BEND   c_v+12
 BYTE   W01
 BYTE   BEND   c_v+8
 BYTE   W01
 BYTE   BEND   c_v+4
 BYTE   W01
 BYTE   BEND   c_v+0
 BYTE   W01
//  #12 //014   ----------------------------------------
 BYTE   W05
 BYTE   N12  Gn3
 BYTE   W24
 BYTE   N32  Fn3  v095  gtp1
 BYTE   W24
 BYTE   W01
 BYTE   BEND   c_v-8
 BYTE   W01
 BYTE   BEND   c_v-15
 BYTE   W01
 BYTE   BEND   c_v-22
 BYTE   W01
 BYTE   BEND   c_v-37
 BYTE   W01
 BYTE   BEND   c_v-44
 BYTE   W01
 BYTE   BEND   c_v-51
 BYTE   W01
 BYTE   BEND   c_v-64
 BYTE   W05
 BYTE   N11  Fn3  v105
 BYTE   BEND   c_v-24
 BYTE   W01
 BYTE   BEND   c_v-16
 BYTE   W01
 BYTE   BEND   c_v-8
 BYTE   W01
 BYTE   BEND   c_v+0
 BYTE   W09
 BYTE   N09  Dn3  v075
 BYTE   W19
//  #12 //015   ----------------------------------------
 BYTE   W05
 BYTE   N11  As2  v095
 BYTE   W24
 BYTE   N28  Fs3  v095  gtp1
 BYTE   BEND   c_v+5
 BYTE   W02
 BYTE   BEND   c_v+10
 BYTE   W01
 BYTE   BEND   c_v+15
 BYTE   W01
 BYTE   BEND   c_v+16
 BYTE   W20
 BYTE   BEND   c_v+10
 BYTE   W01
 BYTE   BEND   c_v+4
 BYTE   W01
 BYTE   BEND   c_v-2
 BYTE   W01
 BYTE   BEND   c_v-14
 BYTE   W01
 BYTE   BEND   c_v-20
 BYTE   W01
 BYTE   BEND   c_v-26
 BYTE   W01
 BYTE   BEND   c_v-32
 BYTE   W05
 BYTE   BEND   c_v+0
 BYTE   W01
 BYTE   N22  Gn3  v100
 BYTE   W03
 BYTE   BEND   c_v+4
 BYTE   W01
 BYTE   BEND   c_v+8
 BYTE   W01
 BYTE   BEND   c_v+12
 BYTE   W01
 BYTE   BEND   c_v+16
 BYTE   W06
 BYTE   BEND   c_v+0
 BYTE   W19
//  #12 //016   ----------------------------------------
 BYTE   W05
 BYTE   N12  Fn3  v095
 BYTE   W23
 BYTE   BEND   c_v+16
 BYTE   W01
 BYTE   N66  Dn3
 BYTE   W56
 BYTE   W01
 BYTE   BEND   c_v+9
 BYTE   W01
 BYTE   BEND   c_v+2
 BYTE   W01
 BYTE   BEND   c_v-4
 BYTE   W01
 BYTE   BEND   c_v-18
 BYTE   W01
 BYTE   BEND   c_v-24
 BYTE   W01
 BYTE   BEND   c_v-31
 BYTE   W01
 BYTE   BEND   c_v-44
 BYTE   W01
 BYTE   BEND   c_v-51
 BYTE   W01
 BYTE   BEND   c_v-58
 BYTE   W01
 BYTE   BEND   c_v-64
 BYTE   W01
//  #12 //017   ----------------------------------------
 BYTE   W03
 BYTE   BEND   c_v+0
 BYTE   W02
 BYTE   N12
 BYTE   W23
 BYTE   BEND   c_v+32
 BYTE   W01
 BYTE   N56  As2
 BYTE   W44
 BYTE   W01
 BYTE   BEND   c_v+24
 BYTE   W01
 BYTE   BEND   c_v+16
 BYTE   W01
 BYTE   BEND   c_v+8
 BYTE   W01
 BYTE   BEND   c_v-8
 BYTE   W01
 BYTE   BEND   c_v-16
 BYTE   W01
 BYTE   BEND   c_v-24
 BYTE   W01
 BYTE   BEND   c_v-40
 BYTE   W01
 BYTE   BEND   c_v-48
 BYTE   W01
 BYTE   BEND   c_v-56
 BYTE   W01
 BYTE   BEND   c_v-64
 BYTE   W05
 BYTE   BEND   c_v+0
 BYTE   W01
 BYTE   N20  Cn3  v100
 BYTE   W07
//  #12 //018   ----------------------------------------
 BYTE   W17
 BYTE   N13  Ds3  v095
 BYTE   W24
 BYTE   N28  Dn3  v085  gtp1
 BYTE   W03
 BYTE   BEND   c_v+4
 BYTE   W01
 BYTE   BEND   c_v+8
 BYTE   W01
 BYTE   BEND   c_v+12
 BYTE   W01
 BYTE   BEND   c_v+16
 BYTE   W18
 BYTE   BEND   c_v+6
 BYTE   W01
 BYTE   BEND   c_v-4
 BYTE   W01
 BYTE   BEND   c_v-14
 BYTE   W01
 BYTE   BEND   c_v-34
 BYTE   W01
 BYTE   BEND   c_v-44
 BYTE   W01
 BYTE   BEND   c_v-54
 BYTE   W01
 BYTE   BEND   c_v-64
 BYTE   W05
 BYTE   BEND   c_v+16
 BYTE   W01
 BYTE   TIE  Ds3
 BYTE   W03
 BYTE   BEND   c_v+20
 BYTE   W01
 BYTE   BEND   c_v+24
 BYTE   W01
 BYTE   BEND   c_v+28
 BYTE   W01
 BYTE   BEND   c_v+32
 BYTE   W13
//  #12 //019   ----------------------------------------
 BYTE   W80
 BYTE   W03
 BYTE   BEND   c_v+28
 BYTE   W01
 BYTE   BEND   c_v+24
 BYTE   W01
 BYTE   BEND   c_v+20
 BYTE   W01
 BYTE   BEND   c_v+12
 BYTE   W01
 BYTE   BEND   c_v+8
 BYTE   W01
 BYTE   BEND   c_v+4
 BYTE   W01
 BYTE   BEND   c_v-8
 BYTE   W01
 BYTE   BEND   c_v-16
 BYTE   W01
 BYTE   BEND   c_v-24
 BYTE   W01
 BYTE   BEND   c_v-40
 BYTE   W01
 BYTE   BEND   c_v-48
 BYTE   W01
 BYTE   EOT
 BYTE   BEND   c_v-56
 BYTE   W01
 BYTE   BEND   c_v-64
 BYTE   W01
//  #12 //020   ----------------------------------------
 BYTE   W04
 BYTE   BEND   c_v+0
 BYTE   W01
 BYTE   N23  Ds2  v100
 BYTE   W24
 BYTE   N11  Fn2  v080
 BYTE   W12
 BYTE   BEND   c_v-16
 BYTE   N32  Gn2  v100  gtp3
 BYTE   W03
 BYTE   BEND   c_v-12
 BYTE   W01
 BYTE   BEND   c_v-8
 BYTE   W01
 BYTE   BEND   c_v-4
 BYTE   W01
 BYTE   BEND   c_v+0
 BYTE   W19
 BYTE   BEND   c_v-6
 BYTE   W02
 BYTE   BEND   c_v-12
 BYTE   W01
 BYTE   BEND   c_v-18
 BYTE   W02
 BYTE   BEND   c_v-31
 BYTE   W01
 BYTE   BEND   c_v-37
 BYTE   W01
 BYTE   BEND   c_v-43
 BYTE   W01
 BYTE   BEND   c_v-56
 BYTE   W01
 BYTE   BEND   c_v-64
 BYTE   W02
 BYTE   BEND   c_v+0
 BYTE   N32  Cn2  v100  gtp2
 BYTE   W19
//  #12 //021   ----------------------------------------
 BYTE   W16
 BYTE   BEND   c_v-16
 BYTE   W01
 BYTE   N11  Fn2
 BYTE   W03
 BYTE   BEND   c_v-12
 BYTE   W01
 BYTE   BEND   c_v-8
 BYTE   W01
 BYTE   BEND   c_v-4
 BYTE   W01
 BYTE   BEND   c_v+0
 BYTE   W06
 BYTE   BEND   c_v+16
 BYTE   N52  Cs2  v100  gtp1
 BYTE   W42
 BYTE   BEND   c_v+12
 BYTE   W01
 BYTE   BEND   c_v+8
 BYTE   W01
 BYTE   BEND   c_v+4
 BYTE   W01
 BYTE   BEND   c_v-4
 BYTE   W01
 BYTE   BEND   c_v-8
 BYTE   W01
 BYTE   BEND   c_v-12
 BYTE   W01
 BYTE   BEND   c_v-22
 BYTE   W01
 BYTE   BEND   c_v-28
 BYTE   W01
 BYTE   BEND   c_v-34
 BYTE   W01
 BYTE   BEND   c_v-46
 BYTE   W01
 BYTE   BEND   c_v-52
 BYTE   W01
 BYTE   BEND   c_v-58
 BYTE   W01
 BYTE   BEND   c_v-64
 BYTE   W04
 BYTE   BEND   c_v+0
 BYTE   W02
 BYTE   N21  Dn2
 BYTE   W07
//  #12 //022   ----------------------------------------
 BYTE   W05
 BYTE   BEND   c_v+16
 BYTE   W11
 BYTE   BEND   c_v+0
 BYTE   W01
 BYTE   N08  Dn2  v090
 BYTE   W12
 BYTE   N44  As1  v100  gtp3
 BYTE   W48
 BYTE   TIE  Bn1
 BYTE   W03
 BYTE   BEND   c_v+4
 BYTE   W01
 BYTE   BEND   c_v+8
 BYTE   W01
 BYTE   BEND   c_v+12
 BYTE   W01
 BYTE   BEND   c_v+16
 BYTE   W13
//  #12 //023   ----------------------------------------
 BYTE   W76
 BYTE   W01
 BYTE   BEND   c_v+12
 BYTE   W01
 BYTE   BEND   c_v+8
 BYTE   W01
 BYTE   BEND   c_v+4
 BYTE   W01
 BYTE   BEND   c_v-4
 BYTE   W01
 BYTE   BEND   c_v-8
 BYTE   W01
 BYTE   BEND   c_v-12
 BYTE   W01
 BYTE   BEND   c_v-22
 BYTE   W01
 BYTE   BEND   c_v-28
 BYTE   W01
 BYTE   BEND   c_v-34
 BYTE   W01
 BYTE   BEND   c_v-46
 BYTE   W01
 BYTE   BEND   c_v-52
 BYTE   W01
 BYTE   EOT
 BYTE   BEND   c_v-58
 BYTE   W01
 BYTE   BEND   c_v-64
 BYTE   W07
//  #12 //024   ----------------------------------------
 BYTE   W02
 BYTE   BEND   c_v+0
 BYTE   W03
 BYTE   N23  Ds2
 BYTE   W24
 BYTE   N11  Fn2  v080
 BYTE   W11
 BYTE   BEND   c_v-8
 BYTE   W01
 BYTE   N32  Gn2  v100  gtp3
 BYTE   W04
 BYTE   BEND   c_v-4
 BYTE   W02
 BYTE   BEND   c_v+0
 BYTE   W19
 BYTE   BEND   c_v-6
 BYTE   W02
 BYTE   BEND   c_v-12
 BYTE   W01
 BYTE   BEND   c_v-18
 BYTE   W02
 BYTE   BEND   c_v-32
 BYTE   W01
 BYTE   BEND   c_v-39
 BYTE   W01
 BYTE   BEND   c_v-46
 BYTE   W01
 BYTE   BEND   c_v-60
 BYTE   W01
 BYTE   BEND   c_v-64
 BYTE   W01
 BYTE   BEND   c_v+0
 BYTE   W01
 BYTE   N32  Cn2  v100  gtp2
 BYTE   W19
//  #12 //025   ----------------------------------------
 BYTE   W16
 BYTE   BEND   c_v-16
 BYTE   W01
 BYTE   N11  Fn2
 BYTE   W03
 BYTE   BEND   c_v-10
 BYTE   W01
 BYTE   BEND   c_v-6
 BYTE   W01
 BYTE   BEND   c_v-3
 BYTE   W01
 BYTE   BEND   c_v+0
 BYTE   W06
 BYTE   BEND   c_v+16
 BYTE   N52  Cs2  v100  gtp1
 BYTE   W42
 BYTE   BEND   c_v+12
 BYTE   W01
 BYTE   BEND   c_v+8
 BYTE   W01
 BYTE   BEND   c_v+4
 BYTE   W01
 BYTE   BEND   c_v-4
 BYTE   W01
 BYTE   BEND   c_v-8
 BYTE   W01
 BYTE   BEND   c_v-12
 BYTE   W01
 BYTE   BEND   c_v-22
 BYTE   W01
 BYTE   BEND   c_v-28
 BYTE   W01
 BYTE   BEND   c_v-34
 BYTE   W01
 BYTE   BEND   c_v-46
 BYTE   W01
 BYTE   BEND   c_v-52
 BYTE   W01
 BYTE   BEND   c_v-58
 BYTE   W01
 BYTE   BEND   c_v-64
 BYTE   W05
 BYTE   BEND   c_v+0
 BYTE   W01
 BYTE   N20  Dn2
 BYTE   W07
//  #12 //026   ----------------------------------------
 BYTE   W05
 BYTE   BEND   c_v+16
 BYTE   W11
 BYTE   BEND   c_v+0
 BYTE   W01
 BYTE   N08
 BYTE   W12
 BYTE   N44  As1  v100  gtp3
 BYTE   W36
 BYTE   BEND   c_v-4
 BYTE   W01
 BYTE   BEND   c_v-8
 BYTE   W01
 BYTE   BEND   c_v-12
 BYTE   W01
 BYTE   BEND   c_v-20
 BYTE   W01
 BYTE   BEND   c_v-24
 BYTE   W01
 BYTE   BEND   c_v-28
 BYTE   W01
 BYTE   BEND   c_v-36
 BYTE   W01
 BYTE   BEND   c_v-40
 BYTE   W01
 BYTE   BEND   c_v-44
 BYTE   W01
 BYTE   BEND   c_v-48
 BYTE   W02
 BYTE   BEND   c_v+0
 BYTE   W01
 BYTE   N32  Gn1  v105  gtp3
 BYTE   W19
//  #12 //027   ----------------------------------------
 BYTE   W16
 BYTE   BEND   c_v+16
 BYTE   W01
 BYTE   N11  Ds2  v100
 BYTE   W03
 BYTE   BEND   c_v+20
 BYTE   W01
 BYTE   BEND   c_v+24
 BYTE   W01
 BYTE   BEND   c_v+28
 BYTE   W01
 BYTE   BEND   c_v+32
 BYTE   W06
 BYTE   BEND   c_v+0
 BYTE   N64  Ds2  v100  gtp1
 BYTE   W54
 BYTE   W01
 BYTE   BEND   c_v-6
 BYTE   W02
 BYTE   BEND   c_v-12
 BYTE   W01
 BYTE   BEND   c_v-18
 BYTE   W02
 BYTE   BEND   c_v-29
 BYTE   W01
 BYTE   BEND   c_v-34
 BYTE   W01
 BYTE   BEND   c_v-39
 BYTE   W01
 BYTE   BEND   c_v-49
 BYTE   W01
 BYTE   BEND   c_v-54
 BYTE   W01
 BYTE   BEND   c_v-59
 BYTE   W01
 BYTE   BEND   c_v-64
 BYTE   W01
//  #12 //028   ----------------------------------------
 BYTE   W02
 BYTE   BEND   c_v+0
 BYTE   W03
 BYTE   N11
 BYTE   W12
 BYTE   N07  Fn2  v090
 BYTE   W12
 BYTE   N64  Fs2  v100  gtp1
 BYTE   W03
 BYTE   BEND   c_v+4
 BYTE   W01
 BYTE   BEND   c_v+8
 BYTE   W01
 BYTE   BEND   c_v+12
 BYTE   W01
 BYTE   BEND   c_v+16
 BYTE   W48
 BYTE   W01
 BYTE   BEND   c_v+10
 BYTE   W02
 BYTE   BEND   c_v+4
 BYTE   W01
 BYTE   BEND   c_v-2
 BYTE   W02
 BYTE   BEND   c_v-13
 BYTE   W01
 BYTE   BEND   c_v-18
 BYTE   W01
 BYTE   BEND   c_v-22
 BYTE   W01
 BYTE   BEND   c_v-32
 BYTE   W01
 BYTE   BEND   c_v-36
 BYTE   W01
 BYTE   BEND   c_v-41
 BYTE   W01
 BYTE   BEND   c_v-50
 BYTE   W01
//  #12 //029   ----------------------------------------
 BYTE   BEND   c_v-55
 BYTE   W01
 BYTE   BEND   c_v-60
 BYTE   W01
 BYTE   BEND   c_v-64
 BYTE   W02
 BYTE   BEND   c_v+0
 BYTE   W01
 BYTE   N11  Ds2
 BYTE   W12
 BYTE   N07  Fn2  v090
 BYTE   W12
 BYTE   N64  Fs2  v100  gtp1
 BYTE   W03
 BYTE   BEND   c_v+4
 BYTE   W01
 BYTE   BEND   c_v+8
 BYTE   W01
 BYTE   BEND   c_v+12
 BYTE   W01
 BYTE   BEND   c_v+16
 BYTE   W48
 BYTE   W01
 BYTE   BEND   c_v+10
 BYTE   W02
 BYTE   BEND   c_v+4
 BYTE   W01
 BYTE   BEND   c_v-2
 BYTE   W02
 BYTE   BEND   c_v-13
 BYTE   W01
 BYTE   BEND   c_v-18
 BYTE   W01
 BYTE   BEND   c_v-22
 BYTE   W01
 BYTE   BEND   c_v-32
 BYTE   W01
 BYTE   BEND   c_v-36
 BYTE   W01
 BYTE   BEND   c_v-41
 BYTE   W01
 BYTE   BEND   c_v-50
 BYTE   W01
//  #12 //030   ----------------------------------------
 BYTE   BEND   c_v-55
 BYTE   W01
 BYTE   BEND   c_v-60
 BYTE   W01
 BYTE   BEND   c_v-64
 BYTE   W02
 BYTE   BEND   c_v+0
 BYTE   W01
 BYTE   N11  Ds2
 BYTE   W12
 BYTE   N07  Fn2  v090
 BYTE   W12
 BYTE   TIE  Fs2  v100
 BYTE   W07
 BYTE   BEND   c_v+4
 BYTE   W02
 BYTE   BEND   c_v+8
 BYTE   W01
 BYTE   BEND   c_v+12
 BYTE   W02
 BYTE   BEND   c_v+16
 BYTE   W22
 BYTE   BEND   c_v+3
 BYTE   W01
 BYTE   BEND   c_v-9
 BYTE   W01
 BYTE   BEND   c_v-24
 BYTE   W01
 BYTE   BEND   c_v-19
 BYTE   W01
 BYTE   BEND   c_v-8
 BYTE   W01
 BYTE   BEND   c_v-2
 BYTE   W01
 BYTE   BEND   c_v+3
 BYTE   W01
 BYTE   BEND   c_v+14
 BYTE   W01
 BYTE   BEND   c_v+16
 BYTE   W16
 BYTE   BEND   c_v+6
 BYTE   W01
 BYTE   BEND   c_v-4
 BYTE   W01
 BYTE   BEND   c_v-8
 BYTE   W01
 BYTE   BEND   c_v-2
 BYTE   W02
 BYTE   BEND   c_v+4
 BYTE   W01
 BYTE   BEND   c_v+10
 BYTE   W02
 BYTE   BEND   c_v+16
 BYTE   W01
//  #12 //031   ----------------------------------------
 BYTE   W60
 BYTE   BEND   c_v+10
 BYTE   W02
 BYTE   BEND   c_v+4
 BYTE   W01
 BYTE   BEND   c_v-2
 BYTE   W02
 BYTE   BEND   c_v-15
 BYTE   W01
 BYTE   BEND   c_v-22
 BYTE   W01
 BYTE   BEND   c_v-29
 BYTE   W01
 BYTE   BEND   c_v-43
 BYTE   W01
 BYTE   BEND   c_v-50
 BYTE   W01
 BYTE   EOT
 BYTE   BEND   c_v-57
 BYTE   W01
 BYTE   BEND   c_v-64
 BYTE   W24
 BYTE   W01
//  #12 //032   ----------------------------------------
 BYTE   W40
 BYTE   W01
 BYTE   BEND   c_v+0
 BYTE   W54
 BYTE   W01
//  #12 //033   ----------------------------------------
 BYTE   W96
//  #12 //034   ----------------------------------------
 BYTE   W96
//  #12 //035   ----------------------------------------
 BYTE   W96
//  #12 //036   ----------------------------------------
 BYTE   W96
//  #12 //037   ----------------------------------------
 BYTE   W96
//  #12 //038   ----------------------------------------
 BYTE   W96
//  #12 //039   ----------------------------------------
 BYTE   W96
//  #12 //040   ----------------------------------------
 BYTE   W96
//  #12 //041   ----------------------------------------
 BYTE   W96
//  #12 //042   ----------------------------------------
 BYTE   W96
//  #12 //043   ----------------------------------------
 BYTE   W96
//  #12 //044   ----------------------------------------
 BYTE   W96
//  #12 //045   ----------------------------------------
 BYTE   W96
//  #12 //046   ----------------------------------------
 BYTE   W96
//  #12 //047   ----------------------------------------
 BYTE   W96
//  #12 //048   ----------------------------------------
 BYTE   W68
 BYTE   W03
 BYTE   BEND   c_v-6
 BYTE   W01
 BYTE   BEND   c_v-11
 BYTE   W01
 BYTE   BEND   c_v-16
 BYTE   W01
 BYTE   BEND   c_v-27
 BYTE   W01
 BYTE   BEND   c_v-32
 BYTE   W02
 BYTE   BEND   c_v-30
 BYTE   N23  Gn3  v110
 BYTE   W01
 BYTE   BEND   c_v-27
 BYTE   W02
 BYTE   BEND   c_v-24
 BYTE   W01
 BYTE   BEND   c_v-21
 BYTE   W02
 BYTE   BEND   c_v-19
 BYTE   W01
 BYTE   BEND   c_v-16
 BYTE   W02
 BYTE   BEND   c_v-13
 BYTE   W01
 BYTE   BEND   c_v-10
 BYTE   W02
 BYTE   BEND   c_v-8
 BYTE   W01
 BYTE   BEND   c_v-5
 BYTE   W02
 BYTE   BEND   c_v+0
 BYTE   W04
//  #12 //049   ----------------------------------------
Label_011CAB20:
 BYTE   W05
 BYTE   N11  Fn3  v110
 BYTE   W12
 BYTE   Ds3
 BYTE   W12
 BYTE   N40  En3  v110  gtp1
 BYTE   W03
 BYTE   BEND   c_v+4
 BYTE   W01
 BYTE   BEND   c_v+8
 BYTE   W01
 BYTE   BEND   c_v+12
 BYTE   W01
 BYTE   BEND   c_v+16
 BYTE   W24
 BYTE   W01
 BYTE   BEND   c_v+10
 BYTE   W02
 BYTE   BEND   c_v+4
 BYTE   W01
 BYTE   BEND   c_v-2
 BYTE   W02
 BYTE   BEND   c_v-15
 BYTE   W01
 BYTE   BEND   c_v-22
 BYTE   W01
 BYTE   BEND   c_v-29
 BYTE   W01
 BYTE   BEND   c_v-43
 BYTE   W01
 BYTE   BEND   c_v-50
 BYTE   W01
 BYTE   BEND   c_v-57
 BYTE   W01
 BYTE   BEND   c_v-64
 BYTE   W12
 BYTE   BEND   c_v+0
 BYTE   W06
 BYTE   N15  Dn3
 BYTE   W07
 BYTE   PEND 
//  #12 //050   ----------------------------------------
Label_011CAB50:
 BYTE   W09
 BYTE   N15  Ds3  v110
 BYTE   W16
 BYTE   Fn3
 BYTE   W16
 BYTE   N92  Dn3  v110  gtp3
 BYTE   W54
 BYTE   W01
 BYTE   PEND 
//  #12 //051   ----------------------------------------
Label_011CAB5E:
 BYTE   W52
 BYTE   W01
 BYTE   N11  Ds2  v070
 BYTE   W12
 BYTE   Gn2
 BYTE   W12
 BYTE   As2
 BYTE   W12
 BYTE   Cn3
 BYTE   W07
 BYTE   PEND 
//  #12 //052   ----------------------------------------
 BYTE   W05
 BYTE   Dn3
 BYTE   W12
 BYTE   As2
 BYTE   W12
 BYTE   Cn3
 BYTE   W12
 BYTE   Gs2
 BYTE   W30
 BYTE   BEND   c_v-6
 BYTE   W01
 BYTE   BEND   c_v-11
 BYTE   W01
 BYTE   BEND   c_v-16
 BYTE   W01
 BYTE   BEND   c_v-27
 BYTE   W01
 BYTE   BEND   c_v-32
 BYTE   W02
 BYTE   BEND   c_v-30
 BYTE   N23  Gn3  v110
 BYTE   W01
 BYTE   BEND   c_v-27
 BYTE   W02
 BYTE   BEND   c_v-24
 BYTE   W01
 BYTE   BEND   c_v-21
 BYTE   W02
 BYTE   BEND   c_v-19
 BYTE   W01
 BYTE   BEND   c_v-16
 BYTE   W02
 BYTE   BEND   c_v-13
 BYTE   W01
 BYTE   BEND   c_v-10
 BYTE   W02
 BYTE   BEND   c_v-8
 BYTE   W01
 BYTE   BEND   c_v-5
 BYTE   W02
 BYTE   BEND   c_v+0
 BYTE   W04
//  #12 //053   ----------------------------------------
Label_011CAB99:
 BYTE   W05
 BYTE   N11  Fn3  v110
 BYTE   W12
 BYTE   Ds3
 BYTE   W12
 BYTE   N40  Fn3  v110  gtp1
 BYTE   W60
 BYTE   N11  As3
 BYTE   W07
 BYTE   PEND 
//  #12 //054   ----------------------------------------
 BYTE   W05
 BYTE   N09  Cn4  v100
 BYTE   W23
 BYTE   BEND   c_v+16
 BYTE   W01
 BYTE   TIE  Fs3  v110
 BYTE   W66
 BYTE   W01
//  #12 //055   ----------------------------------------
 BYTE   W23
 BYTE   BEND   c_v+12
 BYTE   W01
 BYTE   BEND   c_v+8
 BYTE   W01
 BYTE   BEND   c_v+4
 BYTE   W01
 BYTE   BEND   c_v-4
 BYTE   W01
 BYTE   BEND   c_v-8
 BYTE   W01
 BYTE   BEND   c_v-12
 BYTE   W01
 BYTE   BEND   c_v-22
 BYTE   W01
 BYTE   BEND   c_v-28
 BYTE   W01
 BYTE   BEND   c_v-34
 BYTE   W01
 BYTE   BEND   c_v-46
 BYTE   W01
 BYTE   BEND   c_v-52
 BYTE   W01
 BYTE   EOT
 BYTE   BEND   c_v-58
 BYTE   W01
 BYTE   BEND   c_v-64
 BYTE   W05
 BYTE   BEND   c_v-16
 BYTE   W01
 BYTE   N44  Ds4  v110  gtp3
 BYTE   W03
 BYTE   BEND   c_v-12
 BYTE   W01
 BYTE   BEND   c_v-8
 BYTE   W01
 BYTE   BEND   c_v-4
 BYTE   W01
 BYTE   BEND   c_v+0
 BYTE   W42
 BYTE   N15  Dn4
 BYTE   W07
//  #12 //056   ----------------------------------------
 BYTE   W09
 BYTE   Ds4
 BYTE   W16
 BYTE   Fn4
 BYTE   W15
 BYTE   BEND   c_v+32
 BYTE   W01
 BYTE   N23  As3
 BYTE   W13
 BYTE   BEND   c_v+26
 BYTE   W02
 BYTE   BEND   c_v+20
 BYTE   W01
 BYTE   BEND   c_v+14
 BYTE   W02
 BYTE   BEND   c_v+2
 BYTE   W01
 BYTE   BEND   c_v-4
 BYTE   W01
 BYTE   BEND   c_v-10
 BYTE   W01
 BYTE   BEND   c_v-28
 BYTE   W01
 BYTE   BEND   c_v-40
 BYTE   W01
 BYTE   BEND   c_v-52
 BYTE   W01
 BYTE   BEND   c_v-64
 BYTE   W10
 BYTE   BEND   c_v-32
 BYTE   W02
 BYTE   BEND   c_v-30
 BYTE   N23  Gn3
 BYTE   W01
 BYTE   BEND   c_v-27
 BYTE   W02
 BYTE   BEND   c_v-24
 BYTE   W01
 BYTE   BEND   c_v-21
 BYTE   W02
 BYTE   BEND   c_v-19
 BYTE   W01
 BYTE   BEND   c_v-16
 BYTE   W02
 BYTE   BEND   c_v-13
 BYTE   W01
 BYTE   BEND   c_v-10
 BYTE   W02
 BYTE   BEND   c_v-8
 BYTE   W01
 BYTE   BEND   c_v-5
 BYTE   W02
 BYTE   BEND   c_v+0
 BYTE   W04
//  #12 //057   ----------------------------------------
 BYTE   PATT
  POIN2 Label_011CAB20
//  #12 //058   ----------------------------------------
 BYTE   PATT
  POIN2 Label_011CAB50
//  #12 //059   ----------------------------------------
 BYTE   PATT
  POIN2 Label_011CAB5E
//  #12 //060   ----------------------------------------
 BYTE   W05
 BYTE   N11  Dn3  v070
 BYTE   W12
 BYTE   As2
 BYTE   W12
 BYTE   Cn3
 BYTE   W12
 BYTE   Gs2
 BYTE   W30
 BYTE   BEND   c_v-6
 BYTE   W01
 BYTE   BEND   c_v-11
 BYTE   W01
 BYTE   BEND   c_v-16
 BYTE   W01
 BYTE   BEND   c_v-27
 BYTE   W01
 BYTE   BEND   c_v-32
 BYTE   W02
 BYTE   BEND   c_v-30
 BYTE   N23  Gn3  v110
 BYTE   W01
 BYTE   BEND   c_v-27
 BYTE   W02
 BYTE   BEND   c_v-24
 BYTE   W01
 BYTE   BEND   c_v-21
 BYTE   W02
 BYTE   BEND   c_v-18
 BYTE   W01
 BYTE   BEND   c_v-16
 BYTE   W02
 BYTE   BEND   c_v-13
 BYTE   W01
 BYTE   BEND   c_v-10
 BYTE   W02
 BYTE   BEND   c_v-7
 BYTE   W01
 BYTE   BEND   c_v-4
 BYTE   W02
 BYTE   BEND   c_v+0
 BYTE   W04
//  #12 //061   ----------------------------------------
 BYTE   PATT
  POIN2 Label_011CAB99
//  #12 //062   ----------------------------------------
 BYTE   W05
 BYTE   N07  Cn4  v110
 BYTE   W24
 BYTE   TIE  Gn3
 BYTE   W66
 BYTE   W01
//  #12 //063   ----------------------------------------
 BYTE   W40
 BYTE   EOT
 BYTE   W36
 BYTE   W01
 BYTE   N09  Gn1  v120
 BYTE   W11
 BYTE   BEND   c_v-32
 BYTE   W01
 BYTE   N21  Dn2  v115
 BYTE   W07
//  #12 //064   ----------------------------------------
 BYTE   W05
 BYTE   BEND   c_v+0
 BYTE   W07
 BYTE   GoTo
  POIN2 Label_011CA662
//  #12 //065   ----------------------------------------
 BYTE   W05
 BYTE   N07  Ds2  v110
 BYTE   W07
 BYTE   FINE

//**************** Track 13 (Midi-Chn.12) ****************//

NearFarFrontier00_013:
//  #13 //000   ----------------------------------------
 BYTE   KEYSH   NearFarFrontier00_key+0
 BYTE   VOICE   62
 BYTE   VOL   18*NearFarFrontier00_mvl/mxv
 BYTE   BEND   c_v+2
 BYTE   W17
 BYTE   N07  Fn4  v080
 BYTE   W04
 BYTE   Gn4
 BYTE   W04
 BYTE   An4
 BYTE   W04
 BYTE   Bn4
 BYTE   W04
 BYTE   Cn5
 BYTE   W04
 BYTE   N03  Dn5
 BYTE   W04
 BYTE   N28  Ds5  v100  gtp1
 BYTE   W36
 BYTE   N05  Dn5
 BYTE   W06
 BYTE   Ds5
 BYTE   W06
 BYTE   N11  Fn5
 BYTE   W07
//  #13 //001   ----------------------------------------
 BYTE   W09
 BYTE   Dn5
 BYTE   W16
 BYTE   As4
 BYTE   W16
 BYTE   N28  Gn5  v100  gtp1
 BYTE   W36
 BYTE   N05  Fn5
 BYTE   W06
 BYTE   Gn5
 BYTE   W06
 BYTE   N11  As5  v090
 BYTE   W07
//  #13 //002   ----------------------------------------
 BYTE   W09
 BYTE   Fn5
 BYTE   W16
 BYTE   Dn5  v100
 BYTE   W16
 BYTE   N92  Gn5  v100  gtp3
 BYTE   W54
 BYTE   W01
//  #13 //003   ----------------------------------------
 BYTE   W96
//  #13 //004   ----------------------------------------
 BYTE   W12
Label_011CACD6:
 BYTE   W84
//  #13 //005   ----------------------------------------
 BYTE   W96
//  #13 //006   ----------------------------------------
 BYTE   W96
//  #13 //007   ----------------------------------------
 BYTE   W96
//  #13 //008   ----------------------------------------
 BYTE   W96
//  #13 //009   ----------------------------------------
 BYTE   W96
//  #13 //010   ----------------------------------------
 BYTE   W96
//  #13 //011   ----------------------------------------
 BYTE   W96
//  #13 //012   ----------------------------------------
 BYTE   W96
//  #13 //013   ----------------------------------------
 BYTE   W96
//  #13 //014   ----------------------------------------
 BYTE   W96
//  #13 //015   ----------------------------------------
 BYTE   W96
//  #13 //016   ----------------------------------------
 BYTE   W96
//  #13 //017   ----------------------------------------
 BYTE   W96
//  #13 //018   ----------------------------------------
 BYTE   W96
//  #13 //019   ----------------------------------------
 BYTE   W96
//  #13 //020   ----------------------------------------
 BYTE   W96
//  #13 //021   ----------------------------------------
 BYTE   W96
//  #13 //022   ----------------------------------------
 BYTE   W96
//  #13 //023   ----------------------------------------
 BYTE   W96
//  #13 //024   ----------------------------------------
 BYTE   W96
//  #13 //025   ----------------------------------------
 BYTE   W96
//  #13 //026   ----------------------------------------
 BYTE   W96
//  #13 //027   ----------------------------------------
 BYTE   W96
//  #13 //028   ----------------------------------------
 BYTE   W96
//  #13 //029   ----------------------------------------
 BYTE   W96
//  #13 //030   ----------------------------------------
 BYTE   W96
//  #13 //031   ----------------------------------------
 BYTE   W76
 BYTE   W01
 BYTE   N06  Gn3  v125
 BYTE   W12
 BYTE   N11  Cn4  v120
 BYTE   W07
//  #13 //032   ----------------------------------------
 BYTE   W05
 BYTE   N06  Dn4  v115
 BYTE   W12
 BYTE   Ds4  v110
 BYTE   W12
 BYTE   Fn4
 BYTE   W12
 BYTE   N28  Gn4  v110  gtp1
 BYTE   W36
 BYTE   Cn4
 BYTE   W19
//  #13 //033   ----------------------------------------
Label_011CAD0C:
 BYTE   W17
 BYTE   N05  Gn4  v110
 BYTE   W12
 BYTE   N64  Gs4  v110  gtp1
 BYTE   W24
 BYTE   MOD 3
 BYTE   W42
 BYTE   W01
 BYTE   PEND 
//  #13 //034   ----------------------------------------
Label_011CAD1B:
 BYTE   W05
 BYTE   MOD 0
 BYTE   N11  Gn4  v110
 BYTE   W24
 BYTE   N28  Fn4  v110  gtp1
 BYTE   W36
 BYTE   N08
 BYTE   W12
 BYTE   N11  Dn4
 BYTE   W19
 BYTE   PEND 
//  #13 //035   ----------------------------------------
Label_011CAD2D:
 BYTE   W05
 BYTE   N11  As3  v110
 BYTE   W24
 BYTE   N28  Gn4  v110  gtp1
 BYTE   W32
 BYTE   W01
 BYTE   N02  Gn4  v070
 BYTE   W03
 BYTE   N08  Gs4  v110
 BYTE   W12
 BYTE   N11  Gn4
 BYTE   W19
 BYTE   PEND 
//  #13 //036   ----------------------------------------
Label_011CAD44:
 BYTE   W05
 BYTE   N11  Fn4  v110
 BYTE   W24
 BYTE   N64  Ds4  v110  gtp1
 BYTE   W24
 BYTE   MOD 3
 BYTE   W42
 BYTE   W01
 BYTE   PEND 
//  #13 //037   ----------------------------------------
Label_011CAD53:
 BYTE   W05
 BYTE   MOD 0
 BYTE   N11  Dn4  v110
 BYTE   W24
 BYTE   N52  Cn4  v110  gtp1
 BYTE   W24
 BYTE   MOD 3
 BYTE   W36
 BYTE   MOD 0
 BYTE   N17
 BYTE   W07
 BYTE   PEND 
//  #13 //038   ----------------------------------------
 BYTE   W17
 BYTE   N11  Ds4
 BYTE   W24
 BYTE   N28  Ds4  v110  gtp1
 BYTE   W36
 BYTE   N84  Dn4  v110  gtp2
 BYTE   W19
//  #13 //039   ----------------------------------------
 BYTE   W05
 BYTE   MOD 3
 BYTE   W68
 BYTE   N36  Ds4  v110  gtp2
 BYTE   W16
 BYTE   MOD 0
 BYTE   W07
//  #13 //040   ----------------------------------------
 BYTE   W17
 BYTE   N20  Fn4
 BYTE   W24
 BYTE   N28  Gn4  v110  gtp1
 BYTE   W36
 BYTE   Cn4
 BYTE   W19
//  #13 //041   ----------------------------------------
 BYTE   PATT
  POIN2 Label_011CAD0C
//  #13 //042   ----------------------------------------
 BYTE   PATT
  POIN2 Label_011CAD1B
//  #13 //043   ----------------------------------------
 BYTE   PATT
  POIN2 Label_011CAD2D
//  #13 //044   ----------------------------------------
 BYTE   PATT
  POIN2 Label_011CAD44
//  #13 //045   ----------------------------------------
 BYTE   PATT
  POIN2 Label_011CAD53
//  #13 //046   ----------------------------------------
 BYTE   W17
 BYTE   N11  Ds4  v110
 BYTE   W24
 BYTE   N28  Ds4  v110  gtp1
 BYTE   W36
 BYTE   TIE  Fn4
 BYTE   W19
//  #13 //047   ----------------------------------------
 BYTE   W05
 BYTE   MOD 3
 BYTE   W84
 BYTE   MOD 0
 BYTE   W07
//  #13 //048   ----------------------------------------
 BYTE   W22
 BYTE   EOT
 BYTE   W72
 BYTE   W02
//  #13 //049   ----------------------------------------
 BYTE   W96
//  #13 //050   ----------------------------------------
 BYTE   W24
 BYTE   W01
 BYTE   VOL   15*NearFarFrontier00_mvl/mxv
 BYTE   W01
 BYTE   PAN   c_v-32
 BYTE   W01
 BYTE   BEND   c_v+1
 BYTE   W68
 BYTE   W01
//  #13 //051   ----------------------------------------
Label_011CADC8:
 BYTE   W52
 BYTE   W01
 BYTE   N11  Gn3  v120
 BYTE   W12
 BYTE   Cn4
 BYTE   W12
 BYTE   Dn4
 BYTE   W12
 BYTE   Ds4
 BYTE   W07
 BYTE   PEND 
//  #13 //052   ----------------------------------------
Label_011CADD5:
 BYTE   W05
 BYTE   N11  Fn4  v120
 BYTE   W12
 BYTE   Dn4
 BYTE   W12
 BYTE   Ds4
 BYTE   W12
 BYTE   N23  Cn4
 BYTE   W54
 BYTE   W01
 BYTE   PEND 
//  #13 //053   ----------------------------------------
 BYTE   W96
//  #13 //054   ----------------------------------------
 BYTE   W96
//  #13 //055   ----------------------------------------
 BYTE   W96
//  #13 //056   ----------------------------------------
 BYTE   W96
//  #13 //057   ----------------------------------------
 BYTE   W96
//  #13 //058   ----------------------------------------
 BYTE   W96
//  #13 //059   ----------------------------------------
 BYTE   PATT
  POIN2 Label_011CADC8
//  #13 //060   ----------------------------------------
 BYTE   PATT
  POIN2 Label_011CADD5
//  #13 //061   ----------------------------------------
 BYTE   W96
//  #13 //062   ----------------------------------------
 BYTE   W96
//  #13 //063   ----------------------------------------
 BYTE   W96
//  #13 //064   ----------------------------------------
 BYTE   W12
 BYTE   VOL   18*NearFarFrontier00_mvl/mxv
 BYTE   PAN   c_v+0
 BYTE   BEND   c_v+2
 BYTE   GoTo
  POIN2 Label_011CACD6
//  #13 //065   ----------------------------------------
 BYTE   W12
 BYTE   FINE

//******************************************************//
	ALIGN 4

NearFarFrontier00:
	BYTE	13	// NumTrks
	BYTE	0	// NumBlks
	BYTE	NearFarFrontier00_pri	// Priority
	BYTE	NearFarFrontier00_rev	// Reverb.
    
	POIN2	NearFarFrontier00_grp
    
	POIN2	NearFarFrontier00_001
	POIN2	NearFarFrontier00_002
	POIN2	NearFarFrontier00_003
	POIN2	NearFarFrontier00_004
	POIN2	NearFarFrontier00_005
	POIN2	NearFarFrontier00_006
	POIN2	NearFarFrontier00_007
	POIN2	NearFarFrontier00_008
	POIN2	NearFarFrontier00_009
	POIN2	NearFarFrontier00_010
	POIN2	NearFarFrontier00_011
	POIN2	NearFarFrontier00_012
	POIN2	NearFarFrontier00_013

	
