//Event file generated from Sappy .s format.
        #include "MPlayDef.event"

        #define    SEQ_BGM_053_0000_grp  voicegroup000
        #define    SEQ_BGM_053_0000_pri  0
        #define    SEQ_BGM_053_0000_rev  0
        #define    SEQ_BGM_053_0000_key  0

        // .rodata
        // SEQ_BGM_053_0000
        ALIGN 4

//****************** Track 0 (Midi-Chn.0) ******************//

SEQ_BGM_053_0000_0:
        BYTE   KEYSH   SEQ_BGM_053_0000_key+0
// 000   ----------------------------------------
        BYTE   TEMPO   178/2
        BYTE           VOICE   100
        BYTE           PAN     c_v+16
        BYTE           VOL     33
        BYTE   W96
// 001   ----------------------------------------
        BYTE   W96
// 002   ----------------------------------------
        BYTE   W96
// 003   ----------------------------------------
        BYTE   W84
SEQ_BGM_053_0000_0_LOOP:
        BYTE   W12
// 004   ----------------------------------------
        BYTE   W96
// 005   ----------------------------------------
        BYTE   W96
// 006   ----------------------------------------
        BYTE   W96
// 007   ----------------------------------------
        BYTE   W96
// 008   ----------------------------------------
        BYTE   W72
        BYTE           N11     En4   v040
        BYTE   W12
        BYTE           N68     Dn4   v030   gtp3
        BYTE   W12
// 009   ----------------------------------------
        BYTE   W96
// 010   ----------------------------------------
        BYTE   W72
        BYTE           N11     En4   v080
        BYTE   W12
        BYTE           N68     Dn4   v070   gtp3
        BYTE   W12
// 011   ----------------------------------------
        BYTE   W96
// 012   ----------------------------------------
        BYTE   W96
// 013   ----------------------------------------
        BYTE   W96
// 014   ----------------------------------------
        BYTE   W84
        BYTE           N17     Gn4
        BYTE   W12
// 015   ----------------------------------------
        BYTE   W12
        BYTE           N11     Cn4
        BYTE   W12
        BYTE                   Dn4
        BYTE   W12
        BYTE           N05     Gn4
        BYTE   W24
        BYTE           N11     Cn4
        BYTE   W12
        BYTE                   Dn4
        BYTE   W12
        BYTE                   Gn4
        BYTE   W12
// 016   ----------------------------------------
        BYTE   W96
// 017   ----------------------------------------
        BYTE   W96
// 018   ----------------------------------------
        BYTE   W96
// 019   ----------------------------------------
        BYTE   W96
// 020   ----------------------------------------
        BYTE   W96
// 021   ----------------------------------------
        BYTE   W96
// 022   ----------------------------------------
        BYTE   W96
// 023   ----------------------------------------
        BYTE   W96
// 024   ----------------------------------------
        BYTE   W96
// 025   ----------------------------------------
        BYTE   W96
// 026   ----------------------------------------
        BYTE           N32     Cn4   v070   gtp3
        BYTE   W36
        BYTE           N56     Bn3   v070   gtp3
        BYTE   W60
// 027   ----------------------------------------
        BYTE   W96
// 028   ----------------------------------------
        BYTE   W96
// 029   ----------------------------------------
        BYTE   W96
// 030   ----------------------------------------
        BYTE   W96
// 031   ----------------------------------------
        BYTE   W96
// 032   ----------------------------------------
        BYTE   W96
// 033   ----------------------------------------
        BYTE   W96
// 034   ----------------------------------------
        BYTE   W96
// 035   ----------------------------------------
        BYTE   W96
// 036   ----------------------------------------
        BYTE   W12
        BYTE           N11     Gn4   v075
        BYTE   W12
        BYTE                   Fn4
        BYTE   W12
        BYTE                   En4
        BYTE   W12
        BYTE                   Dn4
        BYTE   W12
        BYTE                   Cn4
        BYTE   W12
        BYTE                   En4
        BYTE   W12
        BYTE           N56     Dn4   v075   gtp3
        BYTE   W12
// 037   ----------------------------------------
        BYTE   W48
        BYTE           N05
        BYTE   W06
        BYTE                   En4
        BYTE   W06
        BYTE           N11     Cn4
        BYTE   W12
        BYTE                   En4
        BYTE   W12
        BYTE           N44     Dn4   v075   gtp3
        BYTE   W12
// 038   ----------------------------------------
        BYTE   W36
        BYTE           N32     Gn3   v075   gtp2
        BYTE   W60
// 039   ----------------------------------------
        BYTE   W96
// 040   ----------------------------------------
        BYTE   W96
// 041   ----------------------------------------
        BYTE   W96
// 042   ----------------------------------------
        BYTE   W96
// 043   ----------------------------------------
        BYTE   W96
// 044   ----------------------------------------
        BYTE   W96
// 045   ----------------------------------------
        BYTE   W96
// 046   ----------------------------------------
        BYTE   W96
// 047   ----------------------------------------
        BYTE   W96
// 048   ----------------------------------------
        BYTE   W96
// 049   ----------------------------------------
        BYTE   W96
// 050   ----------------------------------------
        BYTE   W96
// 051   ----------------------------------------
        BYTE   W96
// 052   ----------------------------------------
        BYTE   W96
// 053   ----------------------------------------
        BYTE   W96
// 054   ----------------------------------------
        BYTE   W96
// 055   ----------------------------------------
        BYTE   W96
// 056   ----------------------------------------
        BYTE   W96
// 057   ----------------------------------------
        BYTE   W96
// 058   ----------------------------------------
        BYTE   W96
// 059   ----------------------------------------
        BYTE   W96
// 060   ----------------------------------------
        BYTE           N92     An4   v040   gtp3
        BYTE   W96
// 061   ----------------------------------------
        BYTE   W96
// 062   ----------------------------------------
        BYTE                   An4
        BYTE   W96
// 063   ----------------------------------------
        BYTE   W96
// 064   ----------------------------------------
        BYTE   W96
// 065   ----------------------------------------
        BYTE   W96
// 066   ----------------------------------------
        BYTE   W96
// 067   ----------------------------------------
        BYTE   W84
        BYTE   GoTo
         POIN2  SEQ_BGM_053_0000_0_LOOP
        BYTE   W12
// 068   ----------------------------------------
        BYTE   W04
        BYTE   FINE

//****************** Track 1 (Midi-Chn.1) ******************//

SEQ_BGM_053_0000_1:
        BYTE   KEYSH   SEQ_BGM_053_0000_key+0
// 000   ----------------------------------------
        BYTE           VOICE   26
        BYTE           PAN     c_v-11
        BYTE           BENDR   4
        BYTE           VOL     39
        BYTE   W96
// 001   ----------------------------------------
        BYTE   W96
// 002   ----------------------------------------
        BYTE   W96
// 003   ----------------------------------------
        BYTE   W84
SEQ_BGM_053_0000_1_LOOP:
        BYTE   W12
// 004   ----------------------------------------
        BYTE   W96
// 005   ----------------------------------------
        BYTE   W96
// 006   ----------------------------------------
        BYTE   W96
// 007   ----------------------------------------
        BYTE   W96
// 008   ----------------------------------------
        BYTE   W96
// 009   ----------------------------------------
        BYTE   W96
// 010   ----------------------------------------
        BYTE   W96
// 011   ----------------------------------------
        BYTE   W92
        BYTE   W03
        BYTE           BEND    c_v+19
        BYTE   W01
// 012   ----------------------------------------
        BYTE           N28     Gn2   v080   gtp1
        BYTE           BEND    c_v+22
        BYTE   W01
        BYTE                   c_v+26
        BYTE   W01
        BYTE                   c_v+32
        BYTE   W19
        BYTE                   c_v+24
        BYTE   W01
        BYTE                   c_v+16
        BYTE   W01
        BYTE                   c_v+8
        BYTE   W01
        BYTE                   c_v-8
        BYTE   W01
        BYTE                   c_v-16
        BYTE   W01
        BYTE                   c_v-24
        BYTE   W01
        BYTE                   c_v-40
        BYTE   W01
        BYTE                   c_v-48
        BYTE   W01
        BYTE                   c_v-56
        BYTE   W01
        BYTE                   c_v-64
        BYTE   W15
        BYTE                   c_v+0
        BYTE   W03
        BYTE           N07     An2
        BYTE   W11
        BYTE           BEND    c_v-16
        BYTE   W01
        BYTE           N18     Cn3
        BYTE   W12
        BYTE           BEND    c_v+0
        BYTE   W11
        BYTE                   c_v+32
        BYTE   W01
        BYTE           N40     Gn2   v080   gtp1
        BYTE   W12
// 013   ----------------------------------------
        BYTE   W21
        BYTE           BEND    c_v+16
        BYTE   W01
        BYTE                   c_v+8
        BYTE   W01
        BYTE                   c_v+0
        BYTE   W01
        BYTE                   c_v-16
        BYTE   W01
        BYTE                   c_v-24
        BYTE   W01
        BYTE                   c_v-32
        BYTE   W01
        BYTE                   c_v-48
        BYTE   W01
        BYTE                   c_v-56
        BYTE   W01
        BYTE                   c_v-64
        BYTE   W13
        BYTE                   c_v+0
        BYTE   W06
        BYTE           N11     An2
        BYTE   W12
        BYTE                   Bn2
        BYTE   W12
        BYTE           N07     Cn3
        BYTE   W12
        BYTE           N32     Bn2   v080   gtp2
        BYTE   W12
// 014   ----------------------------------------
        BYTE   W23
        BYTE           BEND    c_v+19
        BYTE   W01
        BYTE           N23     Gn2
        BYTE           BEND    c_v+23
        BYTE   W01
        BYTE                   c_v+27
        BYTE   W01
        BYTE                   c_v+32
        BYTE   W12
        BYTE                   c_v+0
        BYTE   W22
        BYTE           N11     Fn2
        BYTE   W24
        BYTE           N23     En2
        BYTE   W12
// 015   ----------------------------------------
        BYTE   W03
        BYTE           BEND    c_v-6
        BYTE   W01
        BYTE                   c_v-11
        BYTE   W01
        BYTE                   c_v-16
        BYTE   W01
        BYTE                   c_v-27
        BYTE   W01
        BYTE                   c_v-32
        BYTE   W01
        BYTE                   c_v-38
        BYTE   W01
        BYTE                   c_v-48
        BYTE   W01
        BYTE                   c_v-54
        BYTE   W01
        BYTE                   c_v-59
        BYTE   W01
        BYTE                   c_v-64
        BYTE   W36
        BYTE                   c_v+0
        BYTE   W44
        BYTE   W03
        BYTE                   c_v+19
        BYTE   W01
// 016   ----------------------------------------
        BYTE           N28     Gn2   v080   gtp1
        BYTE           BEND    c_v+22
        BYTE   W01
        BYTE                   c_v+26
        BYTE   W01
        BYTE                   c_v+32
        BYTE   W19
        BYTE                   c_v+24
        BYTE   W01
        BYTE                   c_v+16
        BYTE   W01
        BYTE                   c_v+8
        BYTE   W01
        BYTE                   c_v-8
        BYTE   W01
        BYTE                   c_v-16
        BYTE   W01
        BYTE                   c_v-24
        BYTE   W01
        BYTE                   c_v-40
        BYTE   W01
        BYTE                   c_v-48
        BYTE   W01
        BYTE                   c_v-56
        BYTE   W01
        BYTE                   c_v-64
        BYTE   W15
        BYTE                   c_v+0
        BYTE   W03
        BYTE           N07     An2
        BYTE   W11
        BYTE           BEND    c_v-16
        BYTE   W01
        BYTE           N19     Cn3
        BYTE   W12
        BYTE           BEND    c_v+0
        BYTE   W10
        BYTE                   c_v+32
        BYTE   W02
        BYTE           N40     Gn2   v080   gtp1
        BYTE   W12
// 017   ----------------------------------------
        BYTE   W21
        BYTE           BEND    c_v+24
        BYTE   W01
        BYTE                   c_v+16
        BYTE   W01
        BYTE                   c_v+8
        BYTE   W01
        BYTE                   c_v-8
        BYTE   W01
        BYTE                   c_v-16
        BYTE   W01
        BYTE                   c_v-24
        BYTE   W01
        BYTE                   c_v-40
        BYTE   W01
        BYTE                   c_v-48
        BYTE   W01
        BYTE                   c_v-56
        BYTE   W01
        BYTE                   c_v-64
        BYTE   W17
        BYTE                   c_v-16
        BYTE   W01
        BYTE           N23     An2
        BYTE   W03
        BYTE           BEND    c_v-12
        BYTE   W01
        BYTE                   c_v-8
        BYTE   W01
        BYTE                   c_v-4
        BYTE   W01
        BYTE                   c_v+0
        BYTE   W18
        BYTE           N11     Cn3
        BYTE   W23
        BYTE           BEND    c_v+16
        BYTE   W01
// 018   ----------------------------------------
        BYTE           N32     As2   v080   gtp3
        BYTE   W03
        BYTE           BEND    c_v+20
        BYTE   W01
        BYTE                   c_v+24
        BYTE   W01
        BYTE                   c_v+28
        BYTE   W01
        BYTE                   c_v+32
        BYTE   W17
        BYTE                   c_v+22
        BYTE   W01
        BYTE                   c_v+16
        BYTE   W12
        BYTE           N56     As2   v080   gtp3
        BYTE   W48
        BYTE   W03
        BYTE           BEND    c_v+9
        BYTE   W01
        BYTE                   c_v+2
        BYTE   W01
        BYTE                   c_v-5
        BYTE   W01
        BYTE                   c_v-19
        BYTE   W01
        BYTE                   c_v-25
        BYTE   W01
        BYTE                   c_v-32
        BYTE   W01
        BYTE                   c_v-46
        BYTE   W01
        BYTE                   c_v-53
        BYTE   W01
        BYTE                   c_v-59
        BYTE   W01
// 019   ----------------------------------------
SEQ_BGM_053_0000_1_19:
        BYTE           BEND    c_v-64
        BYTE   W48
        BYTE                   c_v+0
        BYTE   W48
        BYTE   PEND
// 020   ----------------------------------------
SEQ_BGM_053_0000_1_20:
        BYTE           N23     Cn2   v080
        BYTE           N23     An2
        BYTE   W48
        BYTE           N07     Cn2
        BYTE           N07     An2
        BYTE   W12
        BYTE           N11     Dn2
        BYTE           N11     Bn2
        BYTE   W12
        BYTE           N06     En2
        BYTE           N06     Cn3
        BYTE   W11
        BYTE           BEND    c_v+16
        BYTE   W01
        BYTE           N32     Bn1   v080   gtp3
        BYTE                   Gs2
        BYTE   W12
        BYTE   PEND
// 021   ----------------------------------------
        BYTE   W15
        BYTE           BEND    c_v+4
        BYTE   W01
        BYTE                   c_v-2
        BYTE   W01
        BYTE                   c_v-8
        BYTE   W01
        BYTE                   c_v-20
        BYTE   W01
        BYTE                   c_v-26
        BYTE   W01
        BYTE                   c_v-32
        BYTE   W01
        BYTE                   c_v-43
        BYTE   W01
        BYTE                   c_v-49
        BYTE   W01
        BYTE                   c_v-55
        BYTE   W01
        BYTE                   c_v-64
        BYTE   W18
        BYTE                   c_v+0
        BYTE   W06
        BYTE           N11     Fn2
        BYTE           N11     An2
        BYTE   W12
        BYTE                   Gn2
        BYTE           N11     Bn2
        BYTE   W12
        BYTE           N07     An2
        BYTE           N07     Cn3
        BYTE   W11
        BYTE           BEND    c_v+32
        BYTE   W01
        BYTE           N32     Fn2   v080   gtp3
        BYTE                   An2
        BYTE   W12
// 022   ----------------------------------------
        BYTE   W16
        BYTE           BEND    c_v+26
        BYTE   W02
        BYTE                   c_v+21
        BYTE   W01
        BYTE                   c_v+16
        BYTE   W02
        BYTE                   c_v+10
        BYTE   W01
        BYTE                   c_v+5
        BYTE   W02
        BYTE                   c_v+0
        BYTE           N11     Dn2
        BYTE           N11     An2
        BYTE   W12
        BYTE                   Bn1
        BYTE           N11     Gn2
        BYTE   W24
        BYTE                   Dn2
        BYTE           N11     Fn2
        BYTE   W23
        BYTE           BEND    c_v+16
        BYTE   W01
        BYTE           N23     Bn1
        BYTE           N23     Ds2
        BYTE   W12
// 023   ----------------------------------------
        BYTE   W03
        BYTE           BEND    c_v+9
        BYTE   W01
        BYTE                   c_v+2
        BYTE   W01
        BYTE                   c_v-4
        BYTE   W01
        BYTE                   c_v-18
        BYTE   W01
        BYTE                   c_v-24
        BYTE   W01
        BYTE                   c_v-31
        BYTE   W01
        BYTE                   c_v-44
        BYTE   W01
        BYTE                   c_v-51
        BYTE   W01
        BYTE                   c_v-58
        BYTE   W01
        BYTE                   c_v-64
        BYTE   W36
        BYTE                   c_v+0
        BYTE   W48
// 024   ----------------------------------------
        BYTE   PATT
         POIN2  SEQ_BGM_053_0000_1_20
// 025   ----------------------------------------
        BYTE   W15
        BYTE           BEND    c_v+9
        BYTE   W01
        BYTE                   c_v+2
        BYTE   W01
        BYTE                   c_v-4
        BYTE   W01
        BYTE                   c_v-18
        BYTE   W01
        BYTE                   c_v-24
        BYTE   W01
        BYTE                   c_v-31
        BYTE   W01
        BYTE                   c_v-44
        BYTE   W01
        BYTE                   c_v-51
        BYTE   W01
        BYTE                   c_v-58
        BYTE   W01
        BYTE                   c_v-64
        BYTE   W12
        BYTE                   c_v+0
        BYTE   W12
        BYTE           N23     Fn2   v080
        BYTE           N23     An2
        BYTE   W24
        BYTE           N11
        BYTE           N11     Cn3
        BYTE   W23
        BYTE           BEND    c_v+16
        BYTE   W01
// 026   ----------------------------------------
        BYTE           N23     Gn2
        BYTE           N32     As2   v080   gtp3
        BYTE   W03
        BYTE           BEND    c_v+20
        BYTE   W01
        BYTE                   c_v+24
        BYTE   W01
        BYTE                   c_v+28
        BYTE   W01
        BYTE                   c_v+32
        BYTE   W17
        BYTE                   c_v+22
        BYTE   W01
        BYTE                   c_v+16
        BYTE           N11     Fs2
        BYTE   W12
        BYTE           N56     Fs2   v080   gtp3
        BYTE                   As2
        BYTE   W48
        BYTE   W03
        BYTE           BEND    c_v+9
        BYTE   W01
        BYTE                   c_v+2
        BYTE   W01
        BYTE                   c_v-5
        BYTE   W01
        BYTE                   c_v-19
        BYTE   W01
        BYTE                   c_v-25
        BYTE   W01
        BYTE                   c_v-32
        BYTE   W01
        BYTE                   c_v-46
        BYTE   W01
        BYTE                   c_v-53
        BYTE   W01
        BYTE                   c_v-59
        BYTE   W01
// 027   ----------------------------------------
        BYTE   PATT
         POIN2  SEQ_BGM_053_0000_1_19
// 028   ----------------------------------------
        BYTE   W96
// 029   ----------------------------------------
        BYTE   W96
// 030   ----------------------------------------
        BYTE   W96
// 031   ----------------------------------------
        BYTE   W96
// 032   ----------------------------------------
        BYTE   W96
// 033   ----------------------------------------
        BYTE   W96
// 034   ----------------------------------------
        BYTE   W96
// 035   ----------------------------------------
        BYTE   W96
// 036   ----------------------------------------
        BYTE   W96
// 037   ----------------------------------------
        BYTE   W96
// 038   ----------------------------------------
        BYTE   W96
// 039   ----------------------------------------
        BYTE   W80
        BYTE   W03
        BYTE           BEND    c_v-16
        BYTE   W01
        BYTE           N44     En3   v080   gtp3
        BYTE   W04
        BYTE           BEND    c_v-12
        BYTE   W02
        BYTE                   c_v-8
        BYTE   W01
        BYTE                   c_v-4
        BYTE   W02
        BYTE                   c_v+0
        BYTE   W03
// 040   ----------------------------------------
SEQ_BGM_053_0000_1_40:
        BYTE   W36
        BYTE           N56     En3   v080   gtp3
        BYTE   W03
        BYTE           BEND    c_v+4
        BYTE   W01
        BYTE                   c_v+8
        BYTE   W01
        BYTE                   c_v+12
        BYTE   W01
        BYTE                   c_v+16
        BYTE   W30
        BYTE                   c_v+0
        BYTE   W24
        BYTE   PEND
// 041   ----------------------------------------
SEQ_BGM_053_0000_1_41:
        BYTE           N32     Dn3   v080   gtp2
        BYTE   W36
        BYTE                   Ds3
        BYTE   W03
        BYTE           BEND    c_v+4
        BYTE   W01
        BYTE                   c_v+8
        BYTE   W01
        BYTE                   c_v+12
        BYTE   W01
        BYTE                   c_v+16
        BYTE   W18
        BYTE                   c_v-16
        BYTE   W11
        BYTE                   c_v+0
        BYTE   W01
        BYTE           N23     Dn3
        BYTE   W24
        BYTE   PEND
// 042   ----------------------------------------
SEQ_BGM_053_0000_1_42:
        BYTE           N32     Cn3   v080   gtp3
        BYTE   W36
        BYTE           N32     Cs3   v080   gtp2
        BYTE   W03
        BYTE           BEND    c_v+4
        BYTE   W01
        BYTE                   c_v+8
        BYTE   W01
        BYTE                   c_v+12
        BYTE   W01
        BYTE                   c_v+16
        BYTE   W18
        BYTE                   c_v+8
        BYTE   W01
        BYTE                   c_v+0
        BYTE   W01
        BYTE                   c_v-8
        BYTE   W01
        BYTE                   c_v-16
        BYTE   W08
        BYTE                   c_v+0
        BYTE   W01
        BYTE           N23     Cn3
        BYTE   W24
        BYTE   PEND
// 043   ----------------------------------------
SEQ_BGM_053_0000_1_43:
        BYTE           N32     Bn2   v080   gtp3
        BYTE   W03
        BYTE           BEND    c_v+4
        BYTE   W01
        BYTE                   c_v+8
        BYTE   W01
        BYTE                   c_v+12
        BYTE   W01
        BYTE                   c_v+16
        BYTE   W18
        BYTE                   c_v+12
        BYTE   W01
        BYTE                   c_v+8
        BYTE   W01
        BYTE                   c_v+4
        BYTE   W01
        BYTE                   c_v+0
        BYTE   W09
        BYTE           N23
        BYTE   W24
        BYTE           N11     Cn3
        BYTE   W12
        BYTE           N07     Dn3
        BYTE   W12
        BYTE           N40     En3   v080   gtp1
        BYTE   W12
        BYTE   PEND
// 044   ----------------------------------------
        BYTE   W32
        BYTE   W03
        BYTE           BEND    c_v+16
        BYTE   W01
        BYTE           N32     Gn3   v080   gtp3
        BYTE   W04
        BYTE           BEND    c_v+20
        BYTE   W02
        BYTE                   c_v+24
        BYTE   W01
        BYTE                   c_v+28
        BYTE   W02
        BYTE                   c_v+32
        BYTE   W21
        BYTE                   c_v+28
        BYTE   W01
        BYTE                   c_v+24
        BYTE   W01
        BYTE                   c_v+20
        BYTE   W01
        BYTE                   c_v+12
        BYTE   W01
        BYTE                   c_v+8
        BYTE   W01
        BYTE                   c_v+4
        BYTE   W01
        BYTE                   c_v+0
        BYTE           N23     En3
        BYTE   W24
// 045   ----------------------------------------
        BYTE           N28     Dn3   v080   gtp1
        BYTE   W32
        BYTE   W03
        BYTE           BEND    c_v+16
        BYTE   W01
        BYTE           N32     Fn3   v080   gtp2
        BYTE   W04
        BYTE           BEND    c_v+20
        BYTE   W02
        BYTE                   c_v+24
        BYTE   W01
        BYTE                   c_v+28
        BYTE   W02
        BYTE                   c_v+32
        BYTE   W15
        BYTE                   c_v+22
        BYTE   W01
        BYTE                   c_v+12
        BYTE   W01
        BYTE                   c_v+2
        BYTE   W01
        BYTE                   c_v-18
        BYTE   W01
        BYTE                   c_v-28
        BYTE   W01
        BYTE                   c_v-38
        BYTE   W01
        BYTE                   c_v-48
        BYTE   W05
        BYTE                   c_v+0
        BYTE   W01
        BYTE           N10     Dn3
        BYTE   W11
        BYTE           BEND    c_v+32
        BYTE   W01
        BYTE           TIE     As2
        BYTE   W12
// 046   ----------------------------------------
        BYTE   W80
        BYTE   W01
        BYTE           BEND    c_v+26
        BYTE   W01
        BYTE                   c_v+20
        BYTE   W01
        BYTE                   c_v+14
        BYTE   W01
        BYTE                   c_v+2
        BYTE   W01
        BYTE                   c_v-4
        BYTE   W01
        BYTE                   c_v-10
        BYTE   W01
        BYTE                   c_v-22
        BYTE   W01
        BYTE                   c_v-28
        BYTE   W01
        BYTE                   c_v-34
        BYTE   W01
        BYTE                   c_v-46
        BYTE   W01
        BYTE                   c_v-52
        BYTE   W01
        BYTE                   c_v-58
        BYTE   W01
        BYTE           EOT
        BYTE           BEND    c_v-64
        BYTE   W02
        BYTE                   c_v+0
        BYTE   W01
// 047   ----------------------------------------
        BYTE           N06     Bn2
        BYTE   W12
        BYTE                   Bn2
        BYTE   W12
        BYTE                   Bn2
        BYTE   W12
        BYTE                   Cn3
        BYTE   W24
        BYTE                   Dn3
        BYTE   W23
        BYTE           BEND    c_v-16
        BYTE   W01
        BYTE           N44     En3   v080   gtp3
        BYTE   W04
        BYTE           BEND    c_v-12
        BYTE   W02
        BYTE                   c_v-8
        BYTE   W01
        BYTE                   c_v-4
        BYTE   W02
        BYTE                   c_v+0
        BYTE   W03
// 048   ----------------------------------------
        BYTE   PATT
         POIN2  SEQ_BGM_053_0000_1_40
// 049   ----------------------------------------
        BYTE   PATT
         POIN2  SEQ_BGM_053_0000_1_41
// 050   ----------------------------------------
        BYTE   PATT
         POIN2  SEQ_BGM_053_0000_1_42
// 051   ----------------------------------------
        BYTE   PATT
         POIN2  SEQ_BGM_053_0000_1_43
// 052   ----------------------------------------
        BYTE   W36
        BYTE           N32     An3   v080   gtp1
        BYTE   W32
        BYTE   W03
        BYTE           BEND    c_v+16
        BYTE   W01
        BYTE           N56     As3   v080   gtp1
        BYTE   W04
        BYTE           BEND    c_v+21
        BYTE   W02
        BYTE                   c_v+27
        BYTE   W01
        BYTE                   c_v+32
        BYTE   W17
// 053   ----------------------------------------
        BYTE                   c_v+16
        BYTE   W21
        BYTE                   c_v+9
        BYTE   W01
        BYTE                   c_v+2
        BYTE   W01
        BYTE                   c_v-4
        BYTE   W01
        BYTE                   c_v-18
        BYTE   W01
        BYTE                   c_v-24
        BYTE   W01
        BYTE                   c_v-31
        BYTE   W01
        BYTE                   c_v-44
        BYTE   W01
        BYTE                   c_v-51
        BYTE   W01
        BYTE                   c_v-58
        BYTE   W01
        BYTE                   c_v-64
        BYTE   W05
        BYTE                   c_v+16
        BYTE   W01
        BYTE           N32     Fs3   v080   gtp3
        BYTE   W24
        BYTE           BEND    c_v+10
        BYTE   W01
        BYTE                   c_v+4
        BYTE   W01
        BYTE                   c_v-2
        BYTE   W01
        BYTE                   c_v-14
        BYTE   W01
        BYTE                   c_v-20
        BYTE   W01
        BYTE                   c_v-26
        BYTE   W01
        BYTE                   c_v-32
        BYTE   W06
        BYTE           N07
        BYTE   W11
        BYTE           BEND    c_v+0
        BYTE   W01
        BYTE           TIE     Gs3
        BYTE   W03
        BYTE           BEND    c_v+4
        BYTE   W01
        BYTE                   c_v+8
        BYTE   W01
        BYTE                   c_v+12
        BYTE   W01
        BYTE                   c_v+16
        BYTE   W06
// 054   ----------------------------------------
        BYTE   W84
        BYTE                   c_v+11
        BYTE   W01
        BYTE                   c_v+6
        BYTE   W01
        BYTE                   c_v+1
        BYTE   W01
        BYTE                   c_v-9
        BYTE   W01
        BYTE                   c_v-14
        BYTE   W01
        BYTE                   c_v-19
        BYTE   W01
        BYTE                   c_v-29
        BYTE   W01
        BYTE                   c_v-34
        BYTE   W01
        BYTE                   c_v-39
        BYTE   W01
        BYTE                   c_v-49
        BYTE   W01
        BYTE                   c_v-54
        BYTE   W01
        BYTE           EOT
        BYTE           BEND    c_v-59
        BYTE   W01
// 055   ----------------------------------------
        BYTE                   c_v-64
        BYTE   W18
        BYTE                   c_v+0
        BYTE   W06
        BYTE           N05     Dn3
        BYTE   W12
        BYTE                   Dn3
        BYTE   W12
        BYTE           N11     Cn3
        BYTE   W18
        BYTE                   Bn2
        BYTE   W17
        BYTE           BEND    c_v+48
        BYTE   W01
        BYTE           TIE     Fs2
        BYTE   W12
// 056   ----------------------------------------
        BYTE   W96
// 057   ----------------------------------------
        BYTE   W80
        BYTE   W01
        BYTE           BEND    c_v+42
        BYTE   W01
        BYTE                   c_v+36
        BYTE   W01
        BYTE                   c_v+31
        BYTE   W01
        BYTE                   c_v+20
        BYTE   W01
        BYTE                   c_v+14
        BYTE   W01
        BYTE                   c_v+8
        BYTE   W01
        BYTE                   c_v-3
        BYTE   W01
        BYTE                   c_v-8
        BYTE   W01
        BYTE                   c_v-14
        BYTE   W01
        BYTE                   c_v-25
        BYTE   W01
        BYTE                   c_v-31
        BYTE   W01
        BYTE                   c_v-36
        BYTE   W01
        BYTE                   c_v-48
        BYTE   W01
        BYTE                   c_v-53
        BYTE   W01
        BYTE           EOT
        BYTE           BEND    c_v-59
        BYTE   W01
// 058   ----------------------------------------
        BYTE   PATT
         POIN2  SEQ_BGM_053_0000_1_19
// 059   ----------------------------------------
        BYTE   W96
// 060   ----------------------------------------
        BYTE   W96
// 061   ----------------------------------------
        BYTE   W96
// 062   ----------------------------------------
        BYTE   W96
// 063   ----------------------------------------
        BYTE   W96
// 064   ----------------------------------------
        BYTE   W96
// 065   ----------------------------------------
        BYTE   W96
// 066   ----------------------------------------
        BYTE   W96
// 067   ----------------------------------------
        BYTE   W84
        BYTE   GoTo
         POIN2  SEQ_BGM_053_0000_1_LOOP
        BYTE   W12
// 068   ----------------------------------------
        BYTE   W04
        BYTE   FINE

//****************** Track 2 (Midi-Chn.2) ******************//

SEQ_BGM_053_0000_2:
        BYTE   KEYSH   SEQ_BGM_053_0000_key+0
// 000   ----------------------------------------
        BYTE           VOICE   96
        BYTE           PAN     c_v+18
        BYTE           VOL     26
        BYTE           N32     An3   v102   gtp3
        BYTE   W96
// 001   ----------------------------------------
        BYTE   W72
        BYTE           N11
        BYTE   W12
        BYTE           N32     An3   v102   gtp3
        BYTE   W12
// 002   ----------------------------------------
        BYTE   W96
// 003   ----------------------------------------
        BYTE   W84
SEQ_BGM_053_0000_2_LOOP:
        BYTE   W12
// 004   ----------------------------------------
        BYTE   W12
        BYTE           N10     An3   v102
        BYTE   W12
        BYTE                   An3
        BYTE   W24
        BYTE                   An3
        BYTE   W12
        BYTE                   An3
        BYTE   W24
        BYTE                   An3
        BYTE   W12
// 005   ----------------------------------------
        BYTE                   An3
        BYTE   W24
        BYTE                   An3
        BYTE   W12
        BYTE                   An3
        BYTE   W24
        BYTE                   An3
        BYTE   W12
        BYTE                   An3
        BYTE   W24
// 006   ----------------------------------------
        BYTE                   An3
        BYTE   W12
        BYTE                   An3
        BYTE   W24
        BYTE                   An3
        BYTE   W12
        BYTE                   An3
        BYTE   W24
        BYTE                   An3
        BYTE   W12
        BYTE                   An3
        BYTE   W12
// 007   ----------------------------------------
        BYTE           N32     En4   v102   gtp3
        BYTE   W36
        BYTE                   En4
        BYTE   W36
        BYTE           N23
        BYTE   W24
// 008   ----------------------------------------
        BYTE   W96
// 009   ----------------------------------------
        BYTE   W96
// 010   ----------------------------------------
        BYTE   W96
// 011   ----------------------------------------
        BYTE   W96
// 012   ----------------------------------------
        BYTE   W96
// 013   ----------------------------------------
        BYTE   W96
// 014   ----------------------------------------
        BYTE   W96
// 015   ----------------------------------------
        BYTE   W96
// 016   ----------------------------------------
        BYTE   W96
// 017   ----------------------------------------
        BYTE   W96
// 018   ----------------------------------------
        BYTE   W96
// 019   ----------------------------------------
        BYTE   W96
// 020   ----------------------------------------
SEQ_BGM_053_0000_2_20:
        BYTE   W24
        BYTE           N23     An3   v102
        BYTE   W72
        BYTE   PEND
// 021   ----------------------------------------
        BYTE   PATT
         POIN2  SEQ_BGM_053_0000_2_20
// 022   ----------------------------------------
        BYTE   W96
// 023   ----------------------------------------
        BYTE   W96
// 024   ----------------------------------------
        BYTE   PATT
         POIN2  SEQ_BGM_053_0000_2_20
// 025   ----------------------------------------
        BYTE   PATT
         POIN2  SEQ_BGM_053_0000_2_20
// 026   ----------------------------------------
        BYTE   W96
// 027   ----------------------------------------
        BYTE           N11     Gs3   v102
        BYTE   W12
        BYTE                   An3
        BYTE   W24
        BYTE                   Bn3
        BYTE   W24
        BYTE                   Dn4
        BYTE   W24
        BYTE           N10     Cn4
        BYTE   W12
// 028   ----------------------------------------
        BYTE           N40     An2   v102   gtp1
        BYTE   W42
        BYTE           N02     Cn3
        BYTE   W03
        BYTE                   Dn3
        BYTE   W03
        BYTE           N44     En3
        BYTE   W44
        BYTE   W01
        BYTE           N02     Ds3
        BYTE   W03
// 029   ----------------------------------------
        BYTE           N52     Dn3   v102   gtp1
        BYTE   W60
        BYTE           N11     Cn3
        BYTE   W12
        BYTE           N07     Bn2
        BYTE   W12
        BYTE                   An2
        BYTE   W12
// 030   ----------------------------------------
        BYTE           N28     Bn2   v102   gtp1
        BYTE   W30
        BYTE           N02     As2
        BYTE   W03
        BYTE                   Gs2
        BYTE   W03
        BYTE           N30     Gn2
        BYTE   W36
        BYTE           N07     Dn3
        BYTE   W12
        BYTE           N32
        BYTE   W12
// 031   ----------------------------------------
        BYTE   W21
        BYTE           N02     Ds3
        BYTE   W03
        BYTE           N07     En3
        BYTE   W12
        BYTE           N32     Cn3   v102   gtp3
        BYTE   W36
        BYTE           N07     Bn2
        BYTE   W12
        BYTE           N52     Cn3   v102   gtp1
        BYTE   W12
// 032   ----------------------------------------
        BYTE   W42
        BYTE           N02     Cs3
        BYTE   W03
        BYTE                   Dn3
        BYTE   W03
        BYTE           N44     En3
        BYTE   W44
        BYTE   W01
        BYTE           N02     Ds3
        BYTE   W03
// 033   ----------------------------------------
        BYTE           N54     Dn3   v102   gtp1
        BYTE   W60
        BYTE           N11     Cn3
        BYTE   W12
        BYTE           N07     Bn2
        BYTE   W12
        BYTE                   An2
        BYTE   W12
// 034   ----------------------------------------
        BYTE           N56     Gn2   v102   gtp3
        BYTE   W68
        BYTE   W01
        BYTE           N02     Cn3
        BYTE   W03
        BYTE           N07     Dn3
        BYTE   W12
        BYTE           N44     Dn3   v102   gtp3
        BYTE   W12
// 035   ----------------------------------------
        BYTE   W36
        BYTE           N22     Cs3
        BYTE   W24
        BYTE           N11     Dn3
        BYTE   W12
        BYTE           N07     En3
        BYTE   W12
        BYTE                   Gn3
        BYTE   W12
// 036   ----------------------------------------
        BYTE   W09
        BYTE           N02     Fn3
        BYTE   W03
        BYTE           N11     Gn3
        BYTE   W12
        BYTE           N07     Fn3
        BYTE   W12
        BYTE                   En3
        BYTE   W12
        BYTE           N11     Dn3
        BYTE   W12
        BYTE           N07     Cn3
        BYTE   W12
        BYTE                   En3
        BYTE   W12
        BYTE           N52     Dn3   v102   gtp1
        BYTE   W12
// 037   ----------------------------------------
        BYTE   W48
        BYTE           N05
        BYTE   W06
        BYTE                   En3
        BYTE   W06
        BYTE           N07     Cn3
        BYTE   W12
        BYTE                   En3
        BYTE   W12
        BYTE           N40     Dn3   v102   gtp1
        BYTE   W12
// 038   ----------------------------------------
        BYTE   W30
        BYTE           N02     Bn2
        BYTE   W03
        BYTE                   An2
        BYTE   W03
        BYTE           N32     Gn2   v102   gtp2
        BYTE   W32
        BYTE   W03
        BYTE           N07     Gn3
        BYTE   W04
        BYTE                   An3
        BYTE   W04
        BYTE                   Bn3
        BYTE   W04
        BYTE                   Cn4
        BYTE   W04
        BYTE                   Dn4
        BYTE   W04
        BYTE           N05     En4
        BYTE   W05
// 039   ----------------------------------------
        BYTE           N11     Fn4
        BYTE   W12
        BYTE                   Fn4
        BYTE   W12
        BYTE                   Fn4
        BYTE   W12
        BYTE           N23     En4
        BYTE   W24
        BYTE                   Dn4
        BYTE   W24
        BYTE           N11     En4
        BYTE   W12
// 040   ----------------------------------------
        BYTE   W96
// 041   ----------------------------------------
        BYTE   W96
// 042   ----------------------------------------
        BYTE   W96
// 043   ----------------------------------------
        BYTE   W96
// 044   ----------------------------------------
        BYTE   W96
// 045   ----------------------------------------
        BYTE   W96
// 046   ----------------------------------------
        BYTE   W96
// 047   ----------------------------------------
        BYTE                   Bn3
        BYTE   W12
        BYTE                   Bn3
        BYTE   W12
        BYTE                   Bn3
        BYTE   W12
        BYTE           N23     Cn3
        BYTE   W24
        BYTE                   Dn3
        BYTE   W24
        BYTE                   En3
        BYTE           N32     Cn2   v102   gtp3
        BYTE   W12
// 048   ----------------------------------------
        BYTE   W24
        BYTE           N11     An3
        BYTE   W12
        BYTE           N28     Dn3   v102   gtp1
        BYTE   W36
        BYTE           N17     Cn4
        BYTE   W24
// 049   ----------------------------------------
        BYTE           N23     Bn3
        BYTE   W24
        BYTE           N11     Gn3
        BYTE   W12
        BYTE           N28     Cn4   v102   gtp1
        BYTE   W36
        BYTE           N17     Bn3
        BYTE   W24
// 050   ----------------------------------------
        BYTE           N23     An3
        BYTE   W24
        BYTE           N11
        BYTE   W12
        BYTE           N28     Bn3   v102   gtp1
        BYTE   W36
        BYTE           N17     An3
        BYTE   W24
// 051   ----------------------------------------
        BYTE           N28     An3   v102   gtp1
        BYTE   W36
        BYTE           N17     Gs3
        BYTE   W24
        BYTE           N11     An3
        BYTE   W12
        BYTE                   Bn3
        BYTE   W12
        BYTE           N32     Cn4   v102   gtp3
        BYTE   W12
// 052   ----------------------------------------
        BYTE   W24
        BYTE           N11     An3
        BYTE   W12
        BYTE           N28     Cn3   v102   gtp1
        BYTE   W36
        BYTE           N17     En3
        BYTE   W24
// 053   ----------------------------------------
        BYTE           N23     Dn3
        BYTE   W24
        BYTE           N11     Gn3
        BYTE   W12
        BYTE           N28     Bn2   v102   gtp1
        BYTE   W36
        BYTE           N11     Gn2
        BYTE   W24
// 054   ----------------------------------------
        BYTE   W72
        BYTE           N05     Bn3
        BYTE   W06
        BYTE                   Cn4
        BYTE   W06
        BYTE                   Dn4
        BYTE   W06
        BYTE                   Ds4
        BYTE   W06
// 055   ----------------------------------------
        BYTE           N17     En4
        BYTE   W19
        BYTE           N28     En3   v102   gtp1
        BYTE   W76
        BYTE   W01
// 056   ----------------------------------------
        BYTE   W96
// 057   ----------------------------------------
        BYTE   W96
// 058   ----------------------------------------
        BYTE   W96
// 059   ----------------------------------------
        BYTE   W96
// 060   ----------------------------------------
        BYTE           N23     An3
        BYTE   W96
// 061   ----------------------------------------
        BYTE   W96
// 062   ----------------------------------------
        BYTE   W96
// 063   ----------------------------------------
        BYTE   W96
// 064   ----------------------------------------
        BYTE                   An3
        BYTE   W96
// 065   ----------------------------------------
        BYTE   W96
// 066   ----------------------------------------
        BYTE   W96
// 067   ----------------------------------------
        BYTE   W84
        BYTE   GoTo
         POIN2  SEQ_BGM_053_0000_2_LOOP
        BYTE   W12
// 068   ----------------------------------------
        BYTE   W04
        BYTE   FINE

//****************** Track 3 (Midi-Chn.3) ******************//

SEQ_BGM_053_0000_3:
        BYTE   KEYSH   SEQ_BGM_053_0000_key+0
// 000   ----------------------------------------
        BYTE           VOICE   61
        BYTE           VOL     39
        BYTE   W96
// 001   ----------------------------------------
        BYTE   W96
// 002   ----------------------------------------
        BYTE   W96
// 003   ----------------------------------------
        BYTE   W84
SEQ_BGM_053_0000_3_LOOP:
        BYTE   W12
// 004   ----------------------------------------
        BYTE   W96
// 005   ----------------------------------------
        BYTE   W96
// 006   ----------------------------------------
        BYTE   W96
// 007   ----------------------------------------
        BYTE           N10     Gs3   v070
        BYTE           N10     En4   v080
        BYTE   W36
        BYTE                   Gs3   v070
        BYTE           N10     En4   v080
        BYTE   W36
        BYTE                   Gs3   v070
        BYTE           N10     En4   v080
        BYTE   W24
// 008   ----------------------------------------
        BYTE   W96
// 009   ----------------------------------------
        BYTE   W96
// 010   ----------------------------------------
        BYTE   W96
// 011   ----------------------------------------
        BYTE   W96
// 012   ----------------------------------------
        BYTE   W96
// 013   ----------------------------------------
        BYTE   W96
// 014   ----------------------------------------
        BYTE   W96
// 015   ----------------------------------------
        BYTE   W12
        BYTE           N05     Bn3   v050
        BYTE   W03
        BYTE                   Cn4   v060
        BYTE   W03
        BYTE                   Dn4   v070
        BYTE   W03
        BYTE           N02     En4   v080
        BYTE   W03
        BYTE           N11     Dn4   v075
        BYTE           N11     Fn4   v085
        BYTE   W12
        BYTE                   Cn4   v070
        BYTE           N11     En4   v080
        BYTE   W24
        BYTE           N17     Bn3   v075
        BYTE           N17     Dn4   v085
        BYTE   W24
        BYTE           N11     An3   v070
        BYTE           N11     Cn4   v080
        BYTE   W12
// 016   ----------------------------------------
        BYTE   W96
// 017   ----------------------------------------
        BYTE   W96
// 018   ----------------------------------------
        BYTE   W84
        BYTE           N05     Cn4   v050
        BYTE   W03
        BYTE                   Dn4   v060
        BYTE   W03
        BYTE                   En4   v070
        BYTE   W03
        BYTE           N02     Fn4   v080
        BYTE   W03
// 019   ----------------------------------------
        BYTE           N11     En4   v075
        BYTE           N11     Gn4   v085
        BYTE   W12
        BYTE                   Dn4   v070
        BYTE           N11     Fn4   v080
        BYTE   W12
        BYTE                   Cn4   v070
        BYTE           N11     En4   v080
        BYTE   W12
        BYTE                   Bn3   v070
        BYTE           N11     Dn4   v080
        BYTE   W24
        BYTE           N23     Dn4   v075
        BYTE           N23     Fn4   v085
        BYTE   W24
        BYTE           N11     Cn4   v070
        BYTE           N11     En4   v080
        BYTE   W12
// 020   ----------------------------------------
        BYTE   W96
// 021   ----------------------------------------
        BYTE   W96
// 022   ----------------------------------------
        BYTE   W96
// 023   ----------------------------------------
        BYTE           PAN     c_v+40
        BYTE   W12
        BYTE           N05     An3   v060
        BYTE   W03
        BYTE                   Bn3   v070
        BYTE   W03
        BYTE                   Cn4   v080
        BYTE   W03
        BYTE           N02     Dn4   v090
        BYTE   W03
        BYTE           N11     Cn4   v080
        BYTE           N11     En4   v100
        BYTE   W12
        BYTE           N28     Gn3   v065   gtp1
        BYTE                   Cn4   v085
        BYTE   W32
        BYTE   W03
        BYTE           PAN     c_v-40
        BYTE   W01
        BYTE           N11     Bn3   v060
        BYTE           N11     Dn4   v100
        BYTE   W12
        BYTE                   Gn3   v065
        BYTE           N11     Bn3   v085
        BYTE   W12
// 024   ----------------------------------------
        BYTE   W96
// 025   ----------------------------------------
        BYTE   W96
// 026   ----------------------------------------
        BYTE   W90
        BYTE           PAN     c_v+0
        BYTE   W06
// 027   ----------------------------------------
        BYTE           N11     En3   v070
        BYTE           N11     Gs3   v090
        BYTE   W12
        BYTE                   Fs3   v070
        BYTE           N11     An3   v090
        BYTE   W24
        BYTE                   Gs3   v070
        BYTE           N11     Bn3   v090
        BYTE   W24
        BYTE                   Bn3   v070
        BYTE           N11     Dn4   v090
        BYTE   W24
        BYTE                   An3   v070
        BYTE           N11     Cn4   v090
        BYTE   W12
// 028   ----------------------------------------
        BYTE           N40     An2   v080   gtp1
        BYTE   W48
        BYTE                   En3
        BYTE   W48
// 029   ----------------------------------------
SEQ_BGM_053_0000_3_29:
        BYTE           N52     Dn3   v080   gtp1
        BYTE   W60
        BYTE           N11     Cn3
        BYTE   W12
        BYTE           N05     Bn2
        BYTE   W12
        BYTE                   An2
        BYTE   W12
        BYTE   PEND
// 030   ----------------------------------------
        BYTE           N32     Bn2   v080   gtp3
        BYTE   W36
        BYTE           N28     Gn2   v080   gtp1
        BYTE   W36
        BYTE           N05     Dn3
        BYTE   W12
        BYTE           N32     Dn3   v080   gtp3
        BYTE   W12
// 031   ----------------------------------------
        BYTE   W24
        BYTE           N07     En3
        BYTE   W12
        BYTE           N32     Cn3   v080   gtp3
        BYTE   W36
        BYTE           N05     Bn2
        BYTE   W12
        BYTE           N52     Cn3   v080   gtp1
        BYTE   W12
// 032   ----------------------------------------
        BYTE   W48
        BYTE           N40     En3   v080   gtp1
        BYTE   W48
// 033   ----------------------------------------
        BYTE   PATT
         POIN2  SEQ_BGM_053_0000_3_29
// 034   ----------------------------------------
        BYTE           N64     Gn2   v080   gtp1
        BYTE   W72
        BYTE           N05     Dn3
        BYTE   W12
        BYTE           N44     Dn3   v080   gtp3
        BYTE   W12
// 035   ----------------------------------------
        BYTE   W36
        BYTE           N17     Cs3
        BYTE   W24
        BYTE           N11     Dn3
        BYTE   W12
        BYTE           N05     En3
        BYTE   W12
        BYTE                   Gn3
        BYTE   W06
        BYTE           PAN     c_v+16
        BYTE   W06
// 036   ----------------------------------------
        BYTE           N15     Fn3   v095
        BYTE   W16
        BYTE                   An3   v085
        BYTE   W16
        BYTE                   Cn4   v075
        BYTE   W16
        BYTE           N17     Fn4   v055
        BYTE   W42
        BYTE           PAN     c_v-16
        BYTE   W06
// 037   ----------------------------------------
        BYTE           N15     Dn3   v095
        BYTE   W16
        BYTE                   Fs3   v085
        BYTE   W16
        BYTE                   An3   v075
        BYTE   W16
        BYTE           N17     Dn4   v055
        BYTE   W48
// 038   ----------------------------------------
        BYTE   W90
        BYTE           PAN     c_v+0
        BYTE   W06
// 039   ----------------------------------------
        BYTE           N06     Bn3   v070
        BYTE           N06     Fn4   v080
        BYTE   W12
        BYTE                   Bn3   v070
        BYTE           N06     Fn4   v080
        BYTE   W12
        BYTE                   Bn3   v070
        BYTE           N06     Fn4   v080
        BYTE   W12
        BYTE           N08     Bn3   v060
        BYTE           N08     En4   v080
        BYTE   W24
        BYTE                   Bn3   v060
        BYTE           N08     Dn4   v080
        BYTE   W24
        BYTE                   Cn4   v060
        BYTE           N11     En4   v073
        BYTE   W12
// 040   ----------------------------------------
        BYTE   W96
// 041   ----------------------------------------
        BYTE   W96
// 042   ----------------------------------------
        BYTE   W96
// 043   ----------------------------------------
        BYTE   W96
// 044   ----------------------------------------
        BYTE   W96
// 045   ----------------------------------------
        BYTE   W96
// 046   ----------------------------------------
        BYTE   W96
// 047   ----------------------------------------
        BYTE           N06     Gn3   v070
        BYTE           N06     Bn3   v080
        BYTE   W12
        BYTE                   Gn3   v070
        BYTE           N06     Bn3   v080
        BYTE   W12
        BYTE                   Gn3   v070
        BYTE           N06     Bn3   v080
        BYTE   W12
        BYTE           N08     An3   v070
        BYTE           N08     Cn4   v080
        BYTE   W24
        BYTE                   Bn3   v070
        BYTE           N08     Dn4   v080
        BYTE   W36
// 048   ----------------------------------------
        BYTE   W96
// 049   ----------------------------------------
        BYTE   W96
// 050   ----------------------------------------
        BYTE   W96
// 051   ----------------------------------------
        BYTE   W96
// 052   ----------------------------------------
        BYTE   W96
// 053   ----------------------------------------
        BYTE   W96
// 054   ----------------------------------------
        BYTE   W96
// 055   ----------------------------------------
        BYTE   W96
// 056   ----------------------------------------
        BYTE   W96
// 057   ----------------------------------------
        BYTE   W96
// 058   ----------------------------------------
        BYTE   W96
// 059   ----------------------------------------
        BYTE   W96
// 060   ----------------------------------------
        BYTE   W96
// 061   ----------------------------------------
        BYTE   W96
// 062   ----------------------------------------
        BYTE   W96
// 063   ----------------------------------------
        BYTE   W96
// 064   ----------------------------------------
        BYTE   W96
// 065   ----------------------------------------
        BYTE   W96
// 066   ----------------------------------------
        BYTE   W96
// 067   ----------------------------------------
        BYTE   W84
        BYTE   GoTo
         POIN2  SEQ_BGM_053_0000_3_LOOP
        BYTE   W12
// 068   ----------------------------------------
        BYTE   W04
        BYTE   FINE

//****************** Track 4 (Midi-Chn.4) ******************//

SEQ_BGM_053_0000_4:
        BYTE   KEYSH   SEQ_BGM_053_0000_key+0
// 000   ----------------------------------------
        BYTE           VOICE   26
        BYTE           VOL     39
        BYTE           N11     Bn2   v065
        BYTE           N12     En3   v082
        BYTE   W12
        BYTE           N11     An1   v080
        BYTE   W12
        BYTE                   An1
        BYTE   W11
        BYTE           N12     Cn3   v065
        BYTE   W01
        BYTE           N11     Fn3   v082
        BYTE   W12
        BYTE                   An1   v080
        BYTE   W12
        BYTE                   An1
        BYTE   W11
        BYTE           N12     Bn2   v065
        BYTE   W01
        BYTE           N11     En3   v082
        BYTE   W12
        BYTE                   An1   v080
        BYTE   W11
        BYTE           N12     An2   v065
        BYTE   W01
// 001   ----------------------------------------
SEQ_BGM_053_0000_4_1:
        BYTE           N11     Dn3   v082
        BYTE   W12
        BYTE                   Gn1   v080
        BYTE   W12
        BYTE                   Gn1
        BYTE   W11
        BYTE           N12     Bn2   v065
        BYTE   W01
        BYTE           N11     En3   v082
        BYTE   W12
        BYTE                   Gn1   v080
        BYTE   W12
        BYTE                   Gn1
        BYTE   W11
        BYTE           N12     An2   v065
        BYTE   W01
        BYTE           N11     Dn3   v082
        BYTE   W12
        BYTE                   Gn1   v080
        BYTE   W11
        BYTE           N12     Gn2   v065
        BYTE   W01
        BYTE   PEND
// 002   ----------------------------------------
SEQ_BGM_053_0000_4_2:
        BYTE           N11     Cn3   v082
        BYTE   W12
        BYTE                   Fn1   v080
        BYTE   W12
        BYTE                   Fn1
        BYTE   W11
        BYTE           N12     An2   v065
        BYTE   W01
        BYTE           N11     Dn3   v082
        BYTE   W12
        BYTE                   Fn1   v080
        BYTE   W12
        BYTE                   Fn1
        BYTE   W11
        BYTE           N12     Gn2   v065
        BYTE   W01
        BYTE           N11     Cn3   v082
        BYTE   W12
        BYTE                   Fn1   v080
        BYTE   W11
        BYTE           N12     Gn2   v065
        BYTE   W01
        BYTE   PEND
// 003   ----------------------------------------
        BYTE           N11     Cn3   v082
        BYTE   W12
        BYTE                   En1   v080
        BYTE   W12
        BYTE                   En1
        BYTE   W11
        BYTE           N12     Fs2   v065
        BYTE   W01
        BYTE           N11     Bn2   v082
        BYTE   W12
        BYTE                   En1   v080
        BYTE   W12
        BYTE                   En1
        BYTE   W11
        BYTE                   Gn2   v065
        BYTE   W01
        BYTE                   Cn3   v082
        BYTE   W11
        BYTE                   An2   v065
        BYTE   W01
SEQ_BGM_053_0000_4_LOOP:
        BYTE           N11     Dn3   v082
        BYTE   W11
        BYTE           N12     Bn2   v065
        BYTE   W01
// 004   ----------------------------------------
SEQ_BGM_053_0000_4_4:
        BYTE           N11     En3   v082
        BYTE   W12
        BYTE                   An1   v080
        BYTE   W12
        BYTE                   An1
        BYTE   W11
        BYTE           N12     Cn3   v065
        BYTE   W01
        BYTE           N11     Fn3   v082
        BYTE   W12
        BYTE                   An1   v080
        BYTE   W12
        BYTE                   An1
        BYTE   W11
        BYTE           N12     Bn2   v065
        BYTE   W01
        BYTE           N11     En3   v082
        BYTE   W12
        BYTE                   An1   v080
        BYTE   W11
        BYTE           N12     An2   v065
        BYTE   W01
        BYTE   PEND
// 005   ----------------------------------------
        BYTE   PATT
         POIN2  SEQ_BGM_053_0000_4_1
// 006   ----------------------------------------
        BYTE           N11     Cn3   v082
        BYTE   W12
        BYTE                   Fn1   v080
        BYTE   W12
        BYTE                   Fn1
        BYTE   W11
        BYTE           N12     An2   v065
        BYTE   W01
        BYTE           N11     Dn3   v082
        BYTE   W12
        BYTE                   Fn1   v080
        BYTE   W12
        BYTE                   Fn1
        BYTE   W11
        BYTE           N12     Gn2   v065
        BYTE   W01
        BYTE           N11     Cn3   v082
        BYTE   W12
        BYTE                   Fn1   v080
        BYTE   W11
        BYTE           N12     Fs2   v065
        BYTE   W01
// 007   ----------------------------------------
        BYTE           N11     Bn2   v082
        BYTE   W12
        BYTE                   En1   v080
        BYTE   W12
        BYTE                   En1
        BYTE   W11
        BYTE           N12     Fs2   v065
        BYTE   W01
        BYTE           N11     Bn2   v082
        BYTE   W12
        BYTE                   En1   v080
        BYTE   W12
        BYTE                   En1
        BYTE   W11
        BYTE           N12     Fs2   v065
        BYTE   W01
        BYTE           N11     Bn2   v082
        BYTE   W12
        BYTE                   En1   v080
        BYTE   W12
// 008   ----------------------------------------
        BYTE   W96
// 009   ----------------------------------------
        BYTE   W96
// 010   ----------------------------------------
        BYTE   W96
// 011   ----------------------------------------
        BYTE   W96
// 012   ----------------------------------------
        BYTE   W96
// 013   ----------------------------------------
        BYTE   W96
// 014   ----------------------------------------
        BYTE   W96
// 015   ----------------------------------------
        BYTE   W96
// 016   ----------------------------------------
        BYTE   W96
// 017   ----------------------------------------
        BYTE   W96
// 018   ----------------------------------------
        BYTE   W96
// 019   ----------------------------------------
        BYTE   W96
// 020   ----------------------------------------
SEQ_BGM_053_0000_4_20:
        BYTE           N11     An3   v035
        BYTE   W12
        BYTE           N04     An1   v060
        BYTE   W12
        BYTE                   An1
        BYTE   W12
        BYTE           N11     An3   v035
        BYTE   W12
        BYTE           N04     An1   v060
        BYTE   W12
        BYTE                   An1
        BYTE   W12
        BYTE           N11     An3   v035
        BYTE   W12
        BYTE           N04     An1   v060
        BYTE   W12
        BYTE   PEND
// 021   ----------------------------------------
        BYTE   PATT
         POIN2  SEQ_BGM_053_0000_4_20
// 022   ----------------------------------------
SEQ_BGM_053_0000_4_22:
        BYTE           N11     Gn3   v035
        BYTE   W12
        BYTE           N04     Gn1   v060
        BYTE   W12
        BYTE                   Gn1
        BYTE   W12
        BYTE           N11     Gn3   v035
        BYTE   W12
        BYTE           N04     Gn1   v060
        BYTE   W12
        BYTE                   Gn1
        BYTE   W12
        BYTE           N11     Gn3   v035
        BYTE   W12
        BYTE           N04     Gn1   v060
        BYTE   W12
        BYTE   PEND
// 023   ----------------------------------------
        BYTE   PATT
         POIN2  SEQ_BGM_053_0000_4_22
// 024   ----------------------------------------
        BYTE   PATT
         POIN2  SEQ_BGM_053_0000_4_20
// 025   ----------------------------------------
        BYTE   PATT
         POIN2  SEQ_BGM_053_0000_4_20
// 026   ----------------------------------------
        BYTE   W96
// 027   ----------------------------------------
        BYTE   W96
// 028   ----------------------------------------
        BYTE   W96
// 029   ----------------------------------------
        BYTE   W96
// 030   ----------------------------------------
        BYTE   W96
// 031   ----------------------------------------
        BYTE   W96
// 032   ----------------------------------------
        BYTE   W96
// 033   ----------------------------------------
        BYTE   W96
// 034   ----------------------------------------
        BYTE   W96
// 035   ----------------------------------------
        BYTE   W96
// 036   ----------------------------------------
        BYTE   W96
// 037   ----------------------------------------
        BYTE   W96
// 038   ----------------------------------------
        BYTE   W96
// 039   ----------------------------------------
        BYTE   W96
// 040   ----------------------------------------
SEQ_BGM_053_0000_4_40:
        BYTE   W12
        BYTE           N05     En3   v030
        BYTE   W12
        BYTE                   Cn4
        BYTE   W12
        BYTE                   En3
        BYTE   W12
        BYTE                   An3
        BYTE   W12
        BYTE                   En3
        BYTE   W12
        BYTE                   Cn4
        BYTE   W12
        BYTE                   En3
        BYTE   W12
        BYTE   PEND
// 041   ----------------------------------------
        BYTE                   Gn3
        BYTE   W12
        BYTE                   Dn3
        BYTE   W12
        BYTE                   Bn3
        BYTE   W12
        BYTE                   Dn3
        BYTE   W12
        BYTE                   Gn3
        BYTE   W12
        BYTE                   Dn3
        BYTE   W12
        BYTE                   Bn3
        BYTE   W12
        BYTE                   Dn3
        BYTE   W12
// 042   ----------------------------------------
        BYTE                   Fn3
        BYTE   W12
        BYTE                   Cn3
        BYTE   W12
        BYTE                   An3
        BYTE   W12
        BYTE                   Cn3
        BYTE   W12
        BYTE                   Fn3
        BYTE   W12
        BYTE                   Cn3
        BYTE   W12
        BYTE                   An3
        BYTE   W12
        BYTE                   Cn3
        BYTE   W12
// 043   ----------------------------------------
        BYTE                   En3
        BYTE   W12
        BYTE                   Bn2
        BYTE   W12
        BYTE                   En3
        BYTE   W12
        BYTE                   Gs3
        BYTE   W12
        BYTE                   En3
        BYTE   W12
        BYTE                   Gs3
        BYTE   W12
        BYTE                   Bn3
        BYTE   W12
        BYTE           N17     An3
        BYTE   W12
// 044   ----------------------------------------
        BYTE   PATT
         POIN2  SEQ_BGM_053_0000_4_40
// 045   ----------------------------------------
        BYTE           N05     Gn3   v030
        BYTE   W12
        BYTE                   Dn3
        BYTE   W12
        BYTE                   Bn3
        BYTE   W12
        BYTE                   Dn3
        BYTE   W12
        BYTE                   Gn3
        BYTE   W12
        BYTE                   Dn3
        BYTE   W12
        BYTE                   Bn3
        BYTE   W12
        BYTE           N17     Fn3
        BYTE   W12
// 046   ----------------------------------------
        BYTE   W12
        BYTE           N05     Cn3
        BYTE   W12
        BYTE                   An3
        BYTE   W12
        BYTE                   Cn3
        BYTE   W12
        BYTE                   Fn3
        BYTE   W12
        BYTE                   Cn3
        BYTE   W12
        BYTE                   An3
        BYTE   W12
        BYTE                   Cn3
        BYTE   W12
// 047   ----------------------------------------
        BYTE   W96
// 048   ----------------------------------------
        BYTE   W96
// 049   ----------------------------------------
        BYTE   W96
// 050   ----------------------------------------
        BYTE   W96
// 051   ----------------------------------------
        BYTE   W96
// 052   ----------------------------------------
        BYTE   W96
// 053   ----------------------------------------
        BYTE   W96
// 054   ----------------------------------------
        BYTE   W96
// 055   ----------------------------------------
        BYTE   W80
        BYTE   W03
        BYTE           N24     Bn2   v065
        BYTE   W01
        BYTE           N23     En3   v082
        BYTE   W12
// 056   ----------------------------------------
        BYTE   W12
        BYTE           N11     An1   v080
        BYTE   W12
        BYTE                   An1
        BYTE   W11
        BYTE           N12     Cn3   v065
        BYTE   W01
        BYTE           N11     Fn3   v082
        BYTE   W12
        BYTE                   An1   v080
        BYTE   W12
        BYTE                   An1
        BYTE   W11
        BYTE           N12     Bn2   v065
        BYTE   W01
        BYTE           N11     En3   v082
        BYTE   W12
        BYTE                   An1   v080
        BYTE   W11
        BYTE           N12     An2   v065
        BYTE   W01
// 057   ----------------------------------------
        BYTE   PATT
         POIN2  SEQ_BGM_053_0000_4_1
// 058   ----------------------------------------
        BYTE   PATT
         POIN2  SEQ_BGM_053_0000_4_2
// 059   ----------------------------------------
SEQ_BGM_053_0000_4_59:
        BYTE           N11     Cn3   v082
        BYTE   W12
        BYTE                   En1   v080
        BYTE   W12
        BYTE                   En1
        BYTE   W11
        BYTE           N12     Fs2   v065
        BYTE   W01
        BYTE           N11     Bn2   v082
        BYTE   W12
        BYTE                   En1   v080
        BYTE   W12
        BYTE                   En1
        BYTE   W11
        BYTE                   Gn2   v065
        BYTE   W01
        BYTE                   Cn3   v082
        BYTE   W11
        BYTE                   An2   v065
        BYTE   W01
        BYTE                   Dn3   v082
        BYTE   W11
        BYTE           N12     Bn2   v065
        BYTE   W01
        BYTE   PEND
// 060   ----------------------------------------
        BYTE           N11     En3   v082
        BYTE   W12
        BYTE                   An1   v080
        BYTE   W12
        BYTE                   An1
        BYTE   W11
        BYTE           N12     Cn3   v065
        BYTE   W01
        BYTE           N11     Fn3   v082
        BYTE   W12
        BYTE                   An1   v080
        BYTE   W12
        BYTE                   An1
        BYTE   W11
        BYTE           N12     Bn2   v065
        BYTE   W01
        BYTE           N11     En3   v082
        BYTE   W12
        BYTE                   Gn1   v080
        BYTE   W11
        BYTE           N12     An2   v065
        BYTE   W01
// 061   ----------------------------------------
        BYTE           N11     Dn3   v082
        BYTE   W12
        BYTE                   Gn1   v080
        BYTE   W12
        BYTE                   Gn1
        BYTE   W11
        BYTE           N12     Bn2   v065
        BYTE   W01
        BYTE           N11     En3   v082
        BYTE   W12
        BYTE                   Gn1   v080
        BYTE   W12
        BYTE                   Gn1
        BYTE   W11
        BYTE           N12     An2   v065
        BYTE   W01
        BYTE           N11     Dn3   v082
        BYTE   W12
        BYTE                   Fn1   v080
        BYTE   W11
        BYTE           N12     Gn2   v065
        BYTE   W01
// 062   ----------------------------------------
        BYTE           N11     Cn3   v082
        BYTE   W12
        BYTE                   Fn1   v080
        BYTE   W12
        BYTE                   Fn1
        BYTE   W11
        BYTE           N12     An2   v065
        BYTE   W01
        BYTE           N11     Dn3   v082
        BYTE   W12
        BYTE                   Fn1   v080
        BYTE   W12
        BYTE                   Fn1
        BYTE   W11
        BYTE           N12     Gn2   v065
        BYTE   W01
        BYTE           N11     Cn3   v082
        BYTE   W12
        BYTE                   En1   v080
        BYTE   W11
        BYTE           N12     Gn2   v065
        BYTE   W01
// 063   ----------------------------------------
        BYTE   PATT
         POIN2  SEQ_BGM_053_0000_4_59
// 064   ----------------------------------------
        BYTE   PATT
         POIN2  SEQ_BGM_053_0000_4_4
// 065   ----------------------------------------
        BYTE   PATT
         POIN2  SEQ_BGM_053_0000_4_1
// 066   ----------------------------------------
        BYTE   PATT
         POIN2  SEQ_BGM_053_0000_4_2
// 067   ----------------------------------------
        BYTE           N11     Cn3   v082
        BYTE   W12
        BYTE                   En1   v080
        BYTE   W12
        BYTE                   En1
        BYTE   W11
        BYTE           N12     Fs2   v065
        BYTE   W01
        BYTE           N11     Bn2   v082
        BYTE   W12
        BYTE                   En1   v080
        BYTE   W12
        BYTE                   En1
        BYTE   W11
        BYTE                   Gn2   v065
        BYTE   W01
        BYTE                   Cn3   v082
        BYTE   W11
        BYTE                   An2   v065
        BYTE   W01
        BYTE                   Dn3   v082
        BYTE   GoTo
         POIN2  SEQ_BGM_053_0000_4_LOOP
        BYTE   W12
// 068   ----------------------------------------
        BYTE   W04
        BYTE   FINE

//****************** Track 5 (Midi-Chn.5) ******************//

SEQ_BGM_053_0000_5:
        BYTE   KEYSH   SEQ_BGM_053_0000_key+0
// 000   ----------------------------------------
        BYTE           VOICE   34
        BYTE           VOL     34
        BYTE           N11     An1   v127
        BYTE   W96
// 001   ----------------------------------------
        BYTE   W72
        BYTE                   Gn1
        BYTE   W12
        BYTE                   Gn1
        BYTE   W12
// 002   ----------------------------------------
        BYTE   W96
// 003   ----------------------------------------
        BYTE   W60
        BYTE                   Fs0   v125
        BYTE   W12
        BYTE           N23     As0
        BYTE   W12
SEQ_BGM_053_0000_5_LOOP:
        BYTE   W12
// 004   ----------------------------------------
        BYTE           N10     An1   v125
        BYTE   W12
        BYTE                   An1   v100
        BYTE   W12
        BYTE                   An1   v125
        BYTE   W12
        BYTE                   An1   v100
        BYTE   W12
        BYTE                   An1   v125
        BYTE   W12
        BYTE                   An1   v100
        BYTE   W12
        BYTE                   An1   v125
        BYTE   W12
        BYTE                   An1   v100
        BYTE   W12
// 005   ----------------------------------------
        BYTE                   Gn1   v125
        BYTE   W12
        BYTE                   Gn1   v100
        BYTE   W12
        BYTE                   Gn1   v125
        BYTE   W12
        BYTE                   Gn1   v100
        BYTE   W12
        BYTE                   Gn1   v125
        BYTE   W12
        BYTE                   Gn1   v100
        BYTE   W12
        BYTE           N11     Dn2   v125
        BYTE   W12
        BYTE                   Gn2   v100
        BYTE   W12
// 006   ----------------------------------------
        BYTE                   Cn3   v125
        BYTE   W12
        BYTE                   Fn2   v100
        BYTE   W12
        BYTE                   Cn2   v125
        BYTE   W12
        BYTE           N10     Fn1   v100
        BYTE   W12
        BYTE                   Fn1   v125
        BYTE   W12
        BYTE                   Fn1   v100
        BYTE   W12
        BYTE                   Fn1   v125
        BYTE   W12
        BYTE                   Fn1   v100
        BYTE   W12
// 007   ----------------------------------------
        BYTE                   En1   v125
        BYTE   W12
        BYTE           N08     En1   v100
        BYTE   W12
        BYTE                   En1
        BYTE   W12
        BYTE           N10     En1   v125
        BYTE   W12
        BYTE           N08     En1   v100
        BYTE   W12
        BYTE           N10     En1   v125
        BYTE   W12
        BYTE           N11     Bn1   v100
        BYTE   W12
        BYTE                   En2   v125
        BYTE   W12
// 008   ----------------------------------------
        BYTE                   An1
        BYTE   W18
        BYTE                   En2
        BYTE   W18
        BYTE           BEND    c_v-64
        BYTE           N23     An2
        BYTE   W03
        BYTE           BEND    c_v-30
        BYTE   W03
        BYTE                   c_v-15
        BYTE   W03
        BYTE                   c_v+0
        BYTE   W15
        BYTE           N11     En2   v100
        BYTE   W12
        BYTE           N32     An1   v125   gtp2
        BYTE   W24
// 009   ----------------------------------------
        BYTE   W12
        BYTE           N10     An1   v100
        BYTE   W12
        BYTE                   An1   v125
        BYTE   W12
        BYTE                   An1   v100
        BYTE   W12
        BYTE           N05     Dn2   v125
        BYTE   W06
        BYTE                   En2
        BYTE   W12
        BYTE                   Dn2
        BYTE   W12
        BYTE                   Cn2
        BYTE   W06
        BYTE           N11     En2
        BYTE   W12
// 010   ----------------------------------------
        BYTE                   An1
        BYTE   W18
        BYTE                   En2
        BYTE   W18
        BYTE           BEND    c_v-64
        BYTE           N23     An2
        BYTE   W03
        BYTE           BEND    c_v-30
        BYTE   W03
        BYTE                   c_v-15
        BYTE   W03
        BYTE                   c_v+0
        BYTE   W15
        BYTE           N11     En2   v100
        BYTE   W12
        BYTE           N08     An1
        BYTE   W12
        BYTE           N56     An1   v125   gtp3
        BYTE   W12
// 011   ----------------------------------------
        BYTE   W48
        BYTE           N08     An1   v100
        BYTE   W12
        BYTE           N11     Fs0   v125
        BYTE   W12
        BYTE           N23     As0
        BYTE   W24
// 012   ----------------------------------------
SEQ_BGM_053_0000_5_12:
        BYTE           N11     An1   v120
        BYTE   W12
        BYTE           N05     En2
        BYTE   W12
        BYTE                   An1
        BYTE   W12
        BYTE           N23
        BYTE   W24
        BYTE           N05     En2
        BYTE   W12
        BYTE           N11     An1
        BYTE   W12
        BYTE           N21     Fn1
        BYTE   W12
        BYTE   PEND
// 013   ----------------------------------------
SEQ_BGM_053_0000_5_13:
        BYTE   W12
        BYTE           N11     Fn1   v100
        BYTE   W12
        BYTE           N05     Cn2   v120
        BYTE   W12
        BYTE           N23     Fn1
        BYTE   W24
        BYTE           N05     Cn2
        BYTE   W12
        BYTE           N11     Fn1
        BYTE   W12
        BYTE           N21     Gn1
        BYTE   W12
        BYTE   PEND
// 014   ----------------------------------------
SEQ_BGM_053_0000_5_14:
        BYTE   W12
        BYTE           N11     Gn1   v100
        BYTE   W12
        BYTE           N05     Dn2   v120
        BYTE   W12
        BYTE           N23     Gn1
        BYTE   W24
        BYTE           N05     Dn2
        BYTE   W12
        BYTE           N11     Gn1
        BYTE   W12
        BYTE           N21     Cn2
        BYTE   W12
        BYTE   PEND
// 015   ----------------------------------------
SEQ_BGM_053_0000_5_15:
        BYTE   W12
        BYTE           N11     Cn2   v100
        BYTE   W12
        BYTE           N05     Gn2   v120
        BYTE   W12
        BYTE           N23     Bn1
        BYTE   W24
        BYTE           N05     Gn2
        BYTE   W12
        BYTE           N11     Bn1
        BYTE   W12
        BYTE                   Gn1
        BYTE   W12
        BYTE   PEND
// 016   ----------------------------------------
        BYTE   PATT
         POIN2  SEQ_BGM_053_0000_5_12
// 017   ----------------------------------------
SEQ_BGM_053_0000_5_17:
        BYTE   W12
        BYTE           N11     Fn1   v100
        BYTE   W12
        BYTE           N05     Cn2   v120
        BYTE   W12
        BYTE           N23     Fn1
        BYTE   W24
        BYTE           N05     Cn2
        BYTE   W12
        BYTE           N11     Fn1
        BYTE   W12
        BYTE                   Cn2
        BYTE   W12
        BYTE   PEND
// 018   ----------------------------------------
SEQ_BGM_053_0000_5_18:
        BYTE           N17     Gn1   v120
        BYTE   W18
        BYTE           N05     Dn2
        BYTE   W18
        BYTE           N23     Gn1
        BYTE   W24
        BYTE           N05     Dn2
        BYTE   W12
        BYTE           N11     Gn1
        BYTE   W12
        BYTE                   Dn2
        BYTE   W12
        BYTE   PEND
// 019   ----------------------------------------
        BYTE                   En1
        BYTE   W12
        BYTE                   Fn1
        BYTE   W12
        BYTE                   Gn1
        BYTE   W12
        BYTE           N23     Bn1
        BYTE   W24
        BYTE           N11     Dn2
        BYTE   W12
        BYTE                   En2
        BYTE   W12
        BYTE                   En1
        BYTE   W12
// 020   ----------------------------------------
        BYTE   PATT
         POIN2  SEQ_BGM_053_0000_5_12
// 021   ----------------------------------------
        BYTE   PATT
         POIN2  SEQ_BGM_053_0000_5_13
// 022   ----------------------------------------
        BYTE   PATT
         POIN2  SEQ_BGM_053_0000_5_14
// 023   ----------------------------------------
        BYTE   PATT
         POIN2  SEQ_BGM_053_0000_5_15
// 024   ----------------------------------------
        BYTE   PATT
         POIN2  SEQ_BGM_053_0000_5_12
// 025   ----------------------------------------
        BYTE   PATT
         POIN2  SEQ_BGM_053_0000_5_17
// 026   ----------------------------------------
        BYTE   PATT
         POIN2  SEQ_BGM_053_0000_5_18
// 027   ----------------------------------------
        BYTE           N11     En1   v120
        BYTE   W12
        BYTE                   Fs1
        BYTE   W12
        BYTE                   Gn1
        BYTE   W12
        BYTE           N23     Bn1
        BYTE   W24
        BYTE           N11     Dn2
        BYTE   W12
        BYTE                   Ds2
        BYTE   W12
        BYTE                   En2
        BYTE   W12
// 028   ----------------------------------------
SEQ_BGM_053_0000_5_28:
        BYTE           N10     Fn1   v120
        BYTE   W12
        BYTE                   Fn1   v110
        BYTE   W12
        BYTE                   Fn1   v120
        BYTE   W12
        BYTE                   Fn1   v110
        BYTE   W12
        BYTE                   Fn1   v120
        BYTE   W12
        BYTE                   Fn1   v110
        BYTE   W12
        BYTE                   Fn1   v120
        BYTE   W12
        BYTE                   Fn1   v110
        BYTE   W12
        BYTE   PEND
// 029   ----------------------------------------
        BYTE   PATT
         POIN2  SEQ_BGM_053_0000_5_28
// 030   ----------------------------------------
        BYTE           N10     En1   v120
        BYTE   W12
        BYTE                   En1   v110
        BYTE   W12
        BYTE                   En1   v120
        BYTE   W12
        BYTE                   En1   v110
        BYTE   W12
        BYTE                   En1   v120
        BYTE   W12
        BYTE                   En1   v110
        BYTE   W12
        BYTE                   En1   v120
        BYTE   W12
        BYTE           N23     An1
        BYTE   W12
// 031   ----------------------------------------
        BYTE   W12
        BYTE           N11     An2
        BYTE   W12
        BYTE           N05     An1
        BYTE   W12
        BYTE           N23     Gn1
        BYTE   W24
        BYTE           N05     Gn2
        BYTE   W12
        BYTE           N11     Gn1
        BYTE   W12
        BYTE           N23     Fn1
        BYTE   W12
// 032   ----------------------------------------
SEQ_BGM_053_0000_5_32:
        BYTE   W12
        BYTE           N10     Fn1   v120
        BYTE   W12
        BYTE           N05     Fn2
        BYTE   W12
        BYTE           N23     Fn1
        BYTE   W24
        BYTE           N05     Fn2
        BYTE   W12
        BYTE           N11     Fn1
        BYTE   W12
        BYTE                   Fn2
        BYTE   W12
        BYTE   PEND
// 033   ----------------------------------------
        BYTE                   Fn1
        BYTE   W12
        BYTE           N10
        BYTE   W12
        BYTE           N05     Fn2
        BYTE   W12
        BYTE           N23     Fn1
        BYTE   W24
        BYTE           N05     Fn2
        BYTE   W12
        BYTE           N11     Fn1
        BYTE   W12
        BYTE                   Fn2
        BYTE   W12
// 034   ----------------------------------------
        BYTE                   En1
        BYTE   W12
        BYTE           N10
        BYTE   W12
        BYTE           N05     En2
        BYTE   W12
        BYTE           N23     En1
        BYTE   W24
        BYTE           N05     En2
        BYTE   W12
        BYTE           N11     En1
        BYTE   W12
        BYTE           N23     An1
        BYTE   W12
// 035   ----------------------------------------
        BYTE   W12
        BYTE           N11     An2
        BYTE   W12
        BYTE           N05     An1
        BYTE   W12
        BYTE           N23     Gn1
        BYTE   W24
        BYTE           N05     Gn2
        BYTE   W12
        BYTE           N11     Gn1
        BYTE   W12
        BYTE                   Gn2
        BYTE   W12
// 036   ----------------------------------------
        BYTE                   Fn1
        BYTE   W12
        BYTE           N10
        BYTE   W12
        BYTE           N05     Fn2
        BYTE   W12
        BYTE           N23     Fn1
        BYTE   W24
        BYTE           N05     Fn2
        BYTE   W12
        BYTE           N11     Fn1
        BYTE   W12
        BYTE           N23     Fs1
        BYTE   W12
// 037   ----------------------------------------
        BYTE   W12
        BYTE           N10
        BYTE   W12
        BYTE           N05     Fs2
        BYTE   W12
        BYTE           N23     Fs1
        BYTE   W24
        BYTE           N05     Fs2
        BYTE   W12
        BYTE           N11     Fs1
        BYTE   W12
        BYTE           N23     Gn1
        BYTE   W12
// 038   ----------------------------------------
        BYTE   W12
        BYTE           N10
        BYTE   W12
        BYTE           N05     Gn2
        BYTE   W12
        BYTE           N23     Gn1
        BYTE   W24
        BYTE           N05     Gn2
        BYTE   W12
        BYTE           N11     Gn1
        BYTE   W12
        BYTE                   Gn2
        BYTE   W12
// 039   ----------------------------------------
        BYTE           N07     Gs1
        BYTE   W12
        BYTE                   Gs1
        BYTE   W12
        BYTE                   Gs1
        BYTE   W12
        BYTE                   Gs1
        BYTE   W24
        BYTE                   Gs1
        BYTE   W24
        BYTE           N23     An1
        BYTE   W12
// 040   ----------------------------------------
        BYTE   W12
        BYTE           N05     An2
        BYTE   W12
        BYTE                   En2
        BYTE   W12
        BYTE           N23     An1
        BYTE   W24
        BYTE           N05     An2
        BYTE   W12
        BYTE           N11     An1
        BYTE   W12
        BYTE                   An2
        BYTE   W12
// 041   ----------------------------------------
SEQ_BGM_053_0000_5_41:
        BYTE           N11     Gn1   v120
        BYTE   W12
        BYTE           N05     Gn2
        BYTE   W12
        BYTE                   Dn2
        BYTE   W12
        BYTE           N23     Gn1
        BYTE   W24
        BYTE           N05     Gn2
        BYTE   W12
        BYTE           N11     Gn1
        BYTE   W12
        BYTE                   Gn2
        BYTE   W12
        BYTE   PEND
// 042   ----------------------------------------
SEQ_BGM_053_0000_5_42:
        BYTE           N11     Fn1   v120
        BYTE   W12
        BYTE           N05     Fn2
        BYTE   W12
        BYTE                   Cn2
        BYTE   W12
        BYTE           N23     Fn1
        BYTE   W24
        BYTE           N05     Fn2
        BYTE   W12
        BYTE           N11     Fn1
        BYTE   W12
        BYTE                   Fn2
        BYTE   W12
        BYTE   PEND
// 043   ----------------------------------------
        BYTE                   En1
        BYTE   W12
        BYTE           N05     En2
        BYTE   W12
        BYTE                   Bn1
        BYTE   W12
        BYTE           N23     En1
        BYTE   W24
        BYTE           N05     En2
        BYTE   W12
        BYTE           N11     En1
        BYTE   W12
        BYTE           N23     An1
        BYTE   W12
// 044   ----------------------------------------
SEQ_BGM_053_0000_5_44:
        BYTE   W12
        BYTE           N10     An1   v120
        BYTE   W12
        BYTE           N05     An2
        BYTE   W12
        BYTE           N23     An1
        BYTE   W24
        BYTE           N05     An2
        BYTE   W12
        BYTE           N11     An1
        BYTE   W12
        BYTE                   An2
        BYTE   W12
        BYTE   PEND
// 045   ----------------------------------------
SEQ_BGM_053_0000_5_45:
        BYTE           N11     Gn1   v120
        BYTE   W12
        BYTE           N05     Gn2
        BYTE   W12
        BYTE                   Dn2
        BYTE   W12
        BYTE           N23     Gn1
        BYTE   W24
        BYTE           N05     Gn2
        BYTE   W12
        BYTE           N11     Gn1
        BYTE   W12
        BYTE           N23     Fn1
        BYTE   W12
        BYTE   PEND
// 046   ----------------------------------------
        BYTE   PATT
         POIN2  SEQ_BGM_053_0000_5_32
// 047   ----------------------------------------
        BYTE           N05     En1   v120
        BYTE   W12
        BYTE                   En1
        BYTE   W12
        BYTE                   En1
        BYTE   W12
        BYTE           N11     Fn1
        BYTE   W24
        BYTE                   Gn1
        BYTE   W24
        BYTE           N23     An1
        BYTE   W12
// 048   ----------------------------------------
        BYTE   PATT
         POIN2  SEQ_BGM_053_0000_5_44
// 049   ----------------------------------------
        BYTE   PATT
         POIN2  SEQ_BGM_053_0000_5_41
// 050   ----------------------------------------
        BYTE   PATT
         POIN2  SEQ_BGM_053_0000_5_42
// 051   ----------------------------------------
        BYTE           N11     En2   v120
        BYTE   W12
        BYTE           N05     Dn2
        BYTE   W12
        BYTE                   Bn1
        BYTE   W12
        BYTE           N23     En1
        BYTE   W24
        BYTE           N11     Bn1
        BYTE   W12
        BYTE           N05     En2
        BYTE   W12
        BYTE           N23     An1
        BYTE   W12
// 052   ----------------------------------------
        BYTE   PATT
         POIN2  SEQ_BGM_053_0000_5_44
// 053   ----------------------------------------
        BYTE   PATT
         POIN2  SEQ_BGM_053_0000_5_45
// 054   ----------------------------------------
        BYTE   W12
        BYTE           N05     Fn2   v120
        BYTE   W12
        BYTE                   Cn2
        BYTE   W12
        BYTE           N23     Fn1
        BYTE   W24
        BYTE           N05     Fn2
        BYTE   W12
        BYTE           N11     Fn1
        BYTE   W12
        BYTE                   Fn2
        BYTE   W12
// 055   ----------------------------------------
        BYTE           N23     En1
        BYTE   W96
// 056   ----------------------------------------
        BYTE   W48
        BYTE           N44     An2   v100   gtp3
        BYTE   W48
// 057   ----------------------------------------
        BYTE                   Gn2
        BYTE   W48
        BYTE                   Gn1
        BYTE   W48
// 058   ----------------------------------------
        BYTE                   Fn1
        BYTE   W48
        BYTE                   Fn2
        BYTE   W48
// 059   ----------------------------------------
        BYTE                   En2
        BYTE   W48
        BYTE                   En1
        BYTE   W48
// 060   ----------------------------------------
        BYTE           N17     An1   v120
        BYTE   W72
        BYTE           N11
        BYTE   W12
        BYTE           N17     Gn1
        BYTE   W12
// 061   ----------------------------------------
        BYTE   W72
        BYTE           N11
        BYTE   W12
        BYTE           N17     Fn1
        BYTE   W12
// 062   ----------------------------------------
        BYTE   W72
        BYTE           N11
        BYTE   W12
        BYTE           N22     En1
        BYTE   W12
// 063   ----------------------------------------
        BYTE   W12
        BYTE           N10     En1   v100
        BYTE   W12
        BYTE                   En1   v120
        BYTE   W12
        BYTE                   En1   v100
        BYTE   W12
        BYTE                   En1   v120
        BYTE   W12
        BYTE           N05
        BYTE   W12
        BYTE           N11     Bn1
        BYTE   W12
        BYTE                   En2
        BYTE   W12
// 064   ----------------------------------------
        BYTE           N10     An1
        BYTE   W12
        BYTE                   An1   v100
        BYTE   W12
        BYTE                   An1   v120
        BYTE   W12
        BYTE                   An1   v100
        BYTE   W12
        BYTE                   An1   v120
        BYTE   W12
        BYTE                   An1   v100
        BYTE   W12
        BYTE                   An1   v120
        BYTE   W12
        BYTE                   An1   v100
        BYTE   W12
// 065   ----------------------------------------
        BYTE                   Gn1   v120
        BYTE   W12
        BYTE                   Gn1   v100
        BYTE   W12
        BYTE                   Gn1   v120
        BYTE   W12
        BYTE                   Gn1   v100
        BYTE   W12
        BYTE                   Gn1   v120
        BYTE   W12
        BYTE                   Gn1   v100
        BYTE   W12
        BYTE                   Gn1   v120
        BYTE   W12
        BYTE                   Gn1   v100
        BYTE   W12
// 066   ----------------------------------------
        BYTE                   Fn1   v120
        BYTE   W12
        BYTE                   Fn1   v100
        BYTE   W12
        BYTE                   Fn1   v120
        BYTE   W12
        BYTE                   Fn1   v100
        BYTE   W12
        BYTE                   Fn1   v120
        BYTE   W12
        BYTE                   Fn1   v100
        BYTE   W12
        BYTE                   Fn1   v120
        BYTE   W12
        BYTE                   Fn1   v100
        BYTE   W12
// 067   ----------------------------------------
        BYTE                   En1   v120
        BYTE   W12
        BYTE                   En1   v100
        BYTE   W12
        BYTE                   En1   v120
        BYTE   W12
        BYTE                   En1   v100
        BYTE   W12
        BYTE           N05     En1   v120
        BYTE   W12
        BYTE           N11     Fs0   v125
        BYTE   W12
        BYTE           N23     As0
        BYTE   W12
        BYTE   GoTo
         POIN2  SEQ_BGM_053_0000_5_LOOP
        BYTE   W12
// 068   ----------------------------------------
        BYTE   W04
        BYTE   FINE

//****************** Track 6 (Midi-Chn.6) ******************//

SEQ_BGM_053_0000_6:
        BYTE   KEYSH   SEQ_BGM_053_0000_key+0
// 000   ----------------------------------------
        BYTE           VOICE   30
        BYTE           VOL     39
        BYTE   W96
// 001   ----------------------------------------
        BYTE   W96
// 002   ----------------------------------------
        BYTE   W96
// 003   ----------------------------------------
        BYTE   W84
SEQ_BGM_053_0000_6_LOOP:
        BYTE   W12
// 004   ----------------------------------------
        BYTE   W96
// 005   ----------------------------------------
        BYTE   W96
// 006   ----------------------------------------
        BYTE   W96
// 007   ----------------------------------------
        BYTE   W96
// 008   ----------------------------------------
SEQ_BGM_053_0000_6_8:
        BYTE           N11     An1   v087
        BYTE   W18
        BYTE                   En2
        BYTE   W18
        BYTE           TIE     An2   v077
        BYTE   W60
        BYTE   PEND
// 009   ----------------------------------------
        BYTE   W40
        BYTE   W01
        BYTE           EOT
        BYTE   W07
        BYTE           N05     Dn2   v097
        BYTE   W06
        BYTE                   En2
        BYTE   W12
        BYTE                   Dn2
        BYTE   W12
        BYTE                   Cn2
        BYTE   W06
        BYTE           N11     En2   v087
        BYTE   W12
// 010   ----------------------------------------
        BYTE   PATT
         POIN2  SEQ_BGM_053_0000_6_8
// 011   ----------------------------------------
        BYTE   W40
        BYTE   W01
        BYTE           EOT     An2
        BYTE   W54
        BYTE   W01
// 012   ----------------------------------------
SEQ_BGM_053_0000_6_12:
        BYTE           N10     An1   v090
        BYTE   W36
        BYTE           N22
        BYTE   W36
        BYTE           N10
        BYTE   W12
        BYTE           N22     Fn1
        BYTE   W12
        BYTE   PEND
// 013   ----------------------------------------
SEQ_BGM_053_0000_6_13:
        BYTE   W36
        BYTE           N22     Fn1   v090
        BYTE   W36
        BYTE           N10
        BYTE   W12
        BYTE           N22     Gn1
        BYTE   W12
        BYTE   PEND
// 014   ----------------------------------------
SEQ_BGM_053_0000_6_14:
        BYTE   W36
        BYTE           N22     Gn1   v090
        BYTE   W36
        BYTE           N10
        BYTE   W12
        BYTE           N22     Cn2
        BYTE   W12
        BYTE   PEND
// 015   ----------------------------------------
SEQ_BGM_053_0000_6_15:
        BYTE   W36
        BYTE           N22     Bn1   v090
        BYTE   W36
        BYTE           N10
        BYTE   W24
        BYTE   PEND
// 016   ----------------------------------------
        BYTE   PATT
         POIN2  SEQ_BGM_053_0000_6_12
// 017   ----------------------------------------
SEQ_BGM_053_0000_6_17:
        BYTE   W36
        BYTE           N22     Fn1   v090
        BYTE   W36
        BYTE           N10
        BYTE   W24
        BYTE   PEND
// 018   ----------------------------------------
        BYTE           N22     Gn1
        BYTE   W36
        BYTE                   Gn1
        BYTE   W36
        BYTE           N10
        BYTE   W24
// 019   ----------------------------------------
        BYTE                   En1
        BYTE   W36
        BYTE           N22     Bn1
        BYTE   W24
        BYTE           N10     Dn2
        BYTE   W12
        BYTE                   En2
        BYTE   W12
        BYTE                   En1
        BYTE   W12
// 020   ----------------------------------------
        BYTE   PATT
         POIN2  SEQ_BGM_053_0000_6_12
// 021   ----------------------------------------
        BYTE   PATT
         POIN2  SEQ_BGM_053_0000_6_13
// 022   ----------------------------------------
        BYTE   PATT
         POIN2  SEQ_BGM_053_0000_6_14
// 023   ----------------------------------------
        BYTE   PATT
         POIN2  SEQ_BGM_053_0000_6_15
// 024   ----------------------------------------
        BYTE   PATT
         POIN2  SEQ_BGM_053_0000_6_12
// 025   ----------------------------------------
        BYTE   PATT
         POIN2  SEQ_BGM_053_0000_6_17
// 026   ----------------------------------------
SEQ_BGM_053_0000_6_26:
        BYTE           N10     Gn1   v090
        BYTE   W36
        BYTE           N22
        BYTE   W36
        BYTE           N10
        BYTE   W24
        BYTE   PEND
// 027   ----------------------------------------
        BYTE                   En1
        BYTE   W36
        BYTE           N22     Bn1
        BYTE   W24
        BYTE           N10     Dn2
        BYTE   W24
        BYTE                   En2
        BYTE   W12
// 028   ----------------------------------------
        BYTE   W24
        BYTE           N11     Fn1
        BYTE   W36
        BYTE                   Fn1
        BYTE   W36
// 029   ----------------------------------------
        BYTE                   Fn1
        BYTE   W36
        BYTE           N23
        BYTE   W36
        BYTE           N11
        BYTE   W24
// 030   ----------------------------------------
        BYTE   W24
        BYTE                   En1
        BYTE   W36
        BYTE                   En1
        BYTE   W24
        BYTE           N22     An1
        BYTE   W12
// 031   ----------------------------------------
        BYTE   W24
        BYTE           N10
        BYTE   W12
        BYTE           N22     Gn1
        BYTE   W36
        BYTE           N10
        BYTE   W12
        BYTE           N22     Fn1
        BYTE   W12
// 032   ----------------------------------------
        BYTE   W24
        BYTE           N10
        BYTE   W36
        BYTE                   Fn1
        BYTE   W36
// 033   ----------------------------------------
SEQ_BGM_053_0000_6_33:
        BYTE           N10     Fn1   v090
        BYTE   W36
        BYTE           N22
        BYTE   W36
        BYTE           N10
        BYTE   W24
        BYTE   PEND
// 034   ----------------------------------------
        BYTE   W24
        BYTE                   En1
        BYTE   W36
        BYTE                   En1
        BYTE   W24
        BYTE           N22     An1
        BYTE   W12
// 035   ----------------------------------------
        BYTE   W24
        BYTE           N10
        BYTE   W12
        BYTE           N22     Gn1
        BYTE   W36
        BYTE           N10
        BYTE   W24
// 036   ----------------------------------------
        BYTE   W24
        BYTE                   Fn1
        BYTE   W36
        BYTE                   Fn1
        BYTE   W24
        BYTE           N22     Fs1
        BYTE   W12
// 037   ----------------------------------------
        BYTE   W24
        BYTE           N10
        BYTE   W36
        BYTE                   Fs1
        BYTE   W24
        BYTE           N22     Gn1
        BYTE   W12
// 038   ----------------------------------------
        BYTE   W24
        BYTE           N10
        BYTE   W12
        BYTE           N22
        BYTE   W36
        BYTE           N10
        BYTE   W24
// 039   ----------------------------------------
        BYTE           N07     Gs1
        BYTE   W12
        BYTE                   Gs1
        BYTE   W12
        BYTE                   Gs1
        BYTE   W12
        BYTE                   Gs1
        BYTE   W24
        BYTE           N10
        BYTE   W24
        BYTE           N22     An1
        BYTE   W12
// 040   ----------------------------------------
SEQ_BGM_053_0000_6_40:
        BYTE   W36
        BYTE           N22     An1   v090
        BYTE   W36
        BYTE           N10
        BYTE   W24
        BYTE   PEND
// 041   ----------------------------------------
        BYTE   PATT
         POIN2  SEQ_BGM_053_0000_6_26
// 042   ----------------------------------------
        BYTE   PATT
         POIN2  SEQ_BGM_053_0000_6_33
// 043   ----------------------------------------
SEQ_BGM_053_0000_6_43:
        BYTE           N10     En1   v090
        BYTE   W36
        BYTE           N22
        BYTE   W36
        BYTE           N10
        BYTE   W12
        BYTE           N22     An1
        BYTE   W12
        BYTE   PEND
// 044   ----------------------------------------
        BYTE   PATT
         POIN2  SEQ_BGM_053_0000_6_40
// 045   ----------------------------------------
SEQ_BGM_053_0000_6_45:
        BYTE           N10     Gn1   v090
        BYTE   W36
        BYTE           N22
        BYTE   W36
        BYTE           N10
        BYTE   W12
        BYTE           N22     Fn1
        BYTE   W12
        BYTE   PEND
// 046   ----------------------------------------
        BYTE   PATT
         POIN2  SEQ_BGM_053_0000_6_17
// 047   ----------------------------------------
        BYTE           N10     En1   v090
        BYTE   W36
        BYTE           N11     Fn1
        BYTE   W24
        BYTE                   Gn1
        BYTE   W24
        BYTE           N22     An1
        BYTE   W12
// 048   ----------------------------------------
        BYTE   PATT
         POIN2  SEQ_BGM_053_0000_6_40
// 049   ----------------------------------------
        BYTE   PATT
         POIN2  SEQ_BGM_053_0000_6_26
// 050   ----------------------------------------
        BYTE   PATT
         POIN2  SEQ_BGM_053_0000_6_33
// 051   ----------------------------------------
        BYTE   PATT
         POIN2  SEQ_BGM_053_0000_6_43
// 052   ----------------------------------------
        BYTE   PATT
         POIN2  SEQ_BGM_053_0000_6_40
// 053   ----------------------------------------
        BYTE   PATT
         POIN2  SEQ_BGM_053_0000_6_45
// 054   ----------------------------------------
        BYTE   PATT
         POIN2  SEQ_BGM_053_0000_6_17
// 055   ----------------------------------------
        BYTE           N17     En1   v090
        BYTE   W96
// 056   ----------------------------------------
        BYTE   W96
// 057   ----------------------------------------
        BYTE   W96
// 058   ----------------------------------------
        BYTE   W96
// 059   ----------------------------------------
        BYTE   W96
// 060   ----------------------------------------
        BYTE   W96
// 061   ----------------------------------------
        BYTE   W96
// 062   ----------------------------------------
        BYTE   W96
// 063   ----------------------------------------
        BYTE   W96
// 064   ----------------------------------------
        BYTE   W96
// 065   ----------------------------------------
        BYTE   W96
// 066   ----------------------------------------
        BYTE   W96
// 067   ----------------------------------------
        BYTE   W84
        BYTE   GoTo
         POIN2  SEQ_BGM_053_0000_6_LOOP
        BYTE   W12
// 068   ----------------------------------------
        BYTE   W04
        BYTE   FINE

//****************** Track 7 (Midi-Chn.7) ******************//

SEQ_BGM_053_0000_7:
        BYTE   KEYSH   SEQ_BGM_053_0000_key+0
// 000   ----------------------------------------
        BYTE           VOICE   122
        BYTE           VOL     39
        BYTE           N11     Bn0   v120
        BYTE           TIE     Cs2   v060
        BYTE   W24
        BYTE           N05     Fs1   v050
        BYTE   W48
        BYTE                   Fs1
        BYTE   W24
// 001   ----------------------------------------
        BYTE   W11
        BYTE           EOT     Cs2
        BYTE   W13
        BYTE           N05     Fs1
        BYTE   W44
        BYTE   W01
        BYTE           N02     En1   v035
        BYTE   W03
        BYTE           N11     Bn0   v105
        BYTE           N11     En1   v080
        BYTE           N11     Cs2   v050
        BYTE   W12
        BYTE                   Bn0   v120
        BYTE           N11     En1   v080
        BYTE           TIE     Cs2   v060
        BYTE   W12
// 002   ----------------------------------------
        BYTE   W24
        BYTE           N05     Fs1   v050
        BYTE   W48
        BYTE                   Fs1
        BYTE   W21
        BYTE           N02     Cn2   v092
        BYTE   W02
        BYTE           EOT     Cs2
        BYTE   W01
// 003   ----------------------------------------
        BYTE           N11     Bn0   v120
        BYTE           N05     Cn2   v127
        BYTE   W06
        BYTE                   Cn2   v092
        BYTE   W06
        BYTE                   Cn2   v082
        BYTE   W06
        BYTE                   Cn2   v092
        BYTE   W06
        BYTE                   An1   v122
        BYTE   W06
        BYTE                   An1   v082
        BYTE   W06
        BYTE           N11     Bn0   v120
        BYTE           N05     An1   v072
        BYTE   W06
        BYTE                   An1   v082
        BYTE   W06
        BYTE                   Fn1   v122
        BYTE   W06
        BYTE                   Fn1   v082
        BYTE   W06
        BYTE                   Fn1   v072
        BYTE   W06
        BYTE                   Fn1   v082
        BYTE   W06
        BYTE           N11     Bn0   v120
        BYTE           N11     En1   v090
        BYTE   W12
SEQ_BGM_053_0000_7_LOOP:
        BYTE           N05     Fs1   v060
        BYTE   W06
        BYTE                   En1   v055
        BYTE   W06
// 004   ----------------------------------------
        BYTE           N11     Bn0   v120
        BYTE           N68     Cs2   v060   gtp3
        BYTE   W12
        BYTE           N05     Fs1   v035
        BYTE   W12
        BYTE           N11     Bn0   v120
        BYTE   W12
        BYTE           N05     Fs1   v035
        BYTE   W06
        BYTE                   Fs1   v055
        BYTE   W06
        BYTE           N11     En1   v075
        BYTE   W12
        BYTE           N05     Fs1   v035
        BYTE   W06
        BYTE           N02     Cn2   v082
        BYTE   W03
        BYTE                   Cn2   v092
        BYTE   W03
        BYTE           N11     Bn0   v120
        BYTE           N23     Cn2   v112
        BYTE   W12
        BYTE           N05     Fs1   v035
        BYTE   W06
        BYTE                   Fs1   v055
        BYTE   W06
// 005   ----------------------------------------
        BYTE                   Fs1   v075
        BYTE   W12
        BYTE                   Fs1   v035
        BYTE   W12
        BYTE           N11     Bn0   v120
        BYTE           N23     An1   v112
        BYTE   W12
        BYTE           N05     Fs1   v035
        BYTE   W06
        BYTE                   Fs1   v055
        BYTE   W06
        BYTE           N11     En1   v075
        BYTE   W12
        BYTE           N05     Fs1   v035
        BYTE   W12
        BYTE           N11     Bn0   v120
        BYTE           N23     Fn1   v112
        BYTE   W12
        BYTE           N05     Fs1   v035
        BYTE   W06
        BYTE                   Fs1   v055
        BYTE   W06
// 006   ----------------------------------------
        BYTE                   Fs1   v075
        BYTE   W12
        BYTE                   Fs1   v035
        BYTE   W12
        BYTE           N11     Bn0   v120
        BYTE           N23     An1   v112
        BYTE   W12
        BYTE           N05     Fs1   v035
        BYTE   W06
        BYTE                   Fs1   v055
        BYTE   W06
        BYTE           N11     En1   v075
        BYTE   W12
        BYTE           N05     Fs1   v035
        BYTE   W06
        BYTE           N02     Fn1   v082
        BYTE   W03
        BYTE                   Fn1   v092
        BYTE   W03
        BYTE           N11     Bn0   v120
        BYTE           N23     Fn1   v112
        BYTE   W12
        BYTE           N05     Fs1   v035
        BYTE   W06
        BYTE                   Fs1   v055
        BYTE   W06
// 007   ----------------------------------------
        BYTE                   Bn0   v125
        BYTE           N32     Cs2   v045   gtp3
        BYTE           N92     En3   v080   gtp3
        BYTE   W06
        BYTE           N05     En1   v090
        BYTE   W06
        BYTE                   En1
        BYTE   W06
        BYTE                   En1
        BYTE   W06
        BYTE           N11
        BYTE   W12
        BYTE           N05     Bn0   v125
        BYTE           N32     Cs2   v045   gtp3
        BYTE   W06
        BYTE           N05     En1   v090
        BYTE   W06
        BYTE           N11
        BYTE   W12
        BYTE                   En1
        BYTE   W12
        BYTE           N05
        BYTE           N23     Cs2   v045
        BYTE   W06
        BYTE           N05     En1   v090
        BYTE   W06
        BYTE                   En1
        BYTE   W06
        BYTE                   En1
        BYTE   W06
// 008   ----------------------------------------
        BYTE           N11     Bn0   v120
        BYTE           N44     Cs2   v070   gtp3
        BYTE   W24
        BYTE           N11     En1   v090
        BYTE   W24
        BYTE                   Bn0   v120
        BYTE           N11     As1   v070
        BYTE   W12
        BYTE                   As1   v025
        BYTE   W12
        BYTE                   En1   v090
        BYTE           N11     As1   v050
        BYTE   W12
        BYTE                   Bn0   v120
        BYTE           N11     As1   v025
        BYTE   W12
// 009   ----------------------------------------
        BYTE                   As1   v070
        BYTE   W12
        BYTE                   Bn0   v100
        BYTE           N11     As1   v025
        BYTE   W12
        BYTE                   En1   v090
        BYTE           N11     As1   v050
        BYTE   W12
        BYTE                   As1   v025
        BYTE   W06
        BYTE           N05     En1   v060
        BYTE   W06
        BYTE           N11     Bn0   v120
        BYTE           N11     As1   v070
        BYTE   W12
        BYTE                   Bn0   v100
        BYTE           N11     As1   v025
        BYTE   W12
        BYTE                   En1   v090
        BYTE           N11     As1   v050
        BYTE   W12
        BYTE                   As1   v025
        BYTE   W12
// 010   ----------------------------------------
        BYTE                   Bn0   v120
        BYTE           N11     As1   v070
        BYTE   W12
        BYTE                   As1   v025
        BYTE   W12
        BYTE                   En1   v090
        BYTE           N11     As1   v050
        BYTE   W12
        BYTE                   As1   v025
        BYTE   W12
        BYTE                   Bn0   v120
        BYTE           N11     As1   v070
        BYTE   W12
        BYTE                   As1   v025
        BYTE   W12
        BYTE                   En1   v090
        BYTE           N11     As1   v050
        BYTE   W12
        BYTE                   Bn0   v120
        BYTE           N80     Cs2   v070   gtp3
        BYTE   W12
// 011   ----------------------------------------
        BYTE   W48
        BYTE           N44     Fn4   v080   gtp3
        BYTE   W12
        BYTE           N11     Bn0   v120
        BYTE   W12
        BYTE           N23     En1   v090
        BYTE           N23     As1   v055
        BYTE   W24
// 012   ----------------------------------------
        BYTE           N11     Bn0   v120
        BYTE           N56     Cs2   v070   gtp3
        BYTE   W24
        BYTE           N11     En1   v090
        BYTE   W24
        BYTE                   Bn0   v120
        BYTE           N23     As1   v060
        BYTE   W24
        BYTE           N11     En1   v090
        BYTE           N23     As1   v040
        BYTE   W12
        BYTE           N11     Bn0   v120
        BYTE   W12
// 013   ----------------------------------------
SEQ_BGM_053_0000_7_13:
        BYTE           N23     As1   v060
        BYTE   W12
        BYTE           N11     Bn0   v100
        BYTE   W12
        BYTE                   En1   v090
        BYTE           N23     As1   v040
        BYTE   W18
        BYTE           N05     En1   v060
        BYTE   W06
        BYTE           N11     Bn0   v120
        BYTE           N23     As1   v060
        BYTE   W12
        BYTE           N11     Bn0   v100
        BYTE   W12
        BYTE                   En1   v090
        BYTE           N23     As1   v040
        BYTE   W12
        BYTE           N11     Bn0   v120
        BYTE   W12
        BYTE   PEND
// 014   ----------------------------------------
SEQ_BGM_053_0000_7_14:
        BYTE           N23     As1   v060
        BYTE   W12
        BYTE           N11     Bn0   v100
        BYTE   W12
        BYTE                   En1   v090
        BYTE           N23     As1   v040
        BYTE   W12
        BYTE           N11     Bn0   v120
        BYTE   W12
        BYTE           N23     As1   v060
        BYTE   W12
        BYTE           N11     Bn0   v100
        BYTE   W12
        BYTE                   En1   v090
        BYTE           N23     As1   v040
        BYTE   W12
        BYTE           N11     Bn0   v120
        BYTE   W12
        BYTE   PEND
// 015   ----------------------------------------
SEQ_BGM_053_0000_7_15:
        BYTE           N23     As1   v060
        BYTE   W12
        BYTE           N11     Bn0   v100
        BYTE   W12
        BYTE                   En1   v090
        BYTE           N23     As1   v040
        BYTE   W12
        BYTE           N05     Bn0   v120
        BYTE   W06
        BYTE                   En1   v060
        BYTE   W06
        BYTE           N23     As1
        BYTE   W12
        BYTE           N11     Bn0   v100
        BYTE   W12
        BYTE                   En1   v090
        BYTE           N23     As1   v040
        BYTE   W12
        BYTE           N05     Bn0   v100
        BYTE   W06
        BYTE                   En1   v065
        BYTE   W06
        BYTE   PEND
// 016   ----------------------------------------
        BYTE           N11     Bn0   v120
        BYTE           N23     As1   v060
        BYTE   W24
        BYTE           N11     En1   v090
        BYTE           N23     As1   v040
        BYTE   W24
        BYTE           N11     Bn0   v120
        BYTE           N23     As1   v060
        BYTE   W24
        BYTE           N11     En1   v090
        BYTE           N23     As1   v040
        BYTE   W12
        BYTE           N11     Bn0   v120
        BYTE   W12
// 017   ----------------------------------------
        BYTE           N23     As1   v060
        BYTE   W12
        BYTE           N11     Bn0   v100
        BYTE   W12
        BYTE                   En1   v090
        BYTE           N23     As1   v040
        BYTE   W18
        BYTE           N05     En1   v060
        BYTE   W06
        BYTE           N11     Bn0   v120
        BYTE           N23     As1   v060
        BYTE   W12
        BYTE           N11     Bn0   v100
        BYTE   W12
        BYTE                   En1   v090
        BYTE           N23     As1   v040
        BYTE   W24
// 018   ----------------------------------------
        BYTE           N11     Bn0   v120
        BYTE           N23     As1   v060
        BYTE   W12
        BYTE           N11     En1   v075
        BYTE   W12
        BYTE                   Fn1   v117
        BYTE           N11     As1   v040
        BYTE   W12
        BYTE                   Bn0   v120
        BYTE           N56     Cs2   v060   gtp3
        BYTE   W24
        BYTE           N11     Bn0   v120
        BYTE   W12
        BYTE                   En1   v090
        BYTE   W24
// 019   ----------------------------------------
        BYTE                   Bn0   v120
        BYTE           N11     En1   v090
        BYTE   W12
        BYTE                   En1   v060
        BYTE           N11     As1   v040
        BYTE   W12
        BYTE                   En1   v090
        BYTE           N11     As1   v060
        BYTE   W12
        BYTE                   En1   v090
        BYTE   W12
        BYTE                   Bn0   v120
        BYTE   W12
        BYTE                   En1   v085
        BYTE           N11     As1   v060
        BYTE   W12
        BYTE                   En1   v095
        BYTE           N05     Fs1   v100
        BYTE   W12
        BYTE           N11     Fn1   v122
        BYTE   W12
// 020   ----------------------------------------
        BYTE                   Bn0   v120
        BYTE           N44     Cs2   v070   gtp3
        BYTE   W24
        BYTE           N11     En1   v090
        BYTE   W24
        BYTE                   Bn0   v120
        BYTE           N23     As1   v060
        BYTE   W24
        BYTE           N11     En1   v090
        BYTE           N23     As1   v040
        BYTE   W12
        BYTE           N11     Bn0   v120
        BYTE   W12
// 021   ----------------------------------------
        BYTE   PATT
         POIN2  SEQ_BGM_053_0000_7_13
// 022   ----------------------------------------
        BYTE   PATT
         POIN2  SEQ_BGM_053_0000_7_14
// 023   ----------------------------------------
        BYTE   PATT
         POIN2  SEQ_BGM_053_0000_7_15
// 024   ----------------------------------------
        BYTE           N11     Bn0   v120
        BYTE           N23     As1   v060
        BYTE   W24
        BYTE           N11     En1   v090
        BYTE           N44     Cs2   v070   gtp3
        BYTE   W24
        BYTE           N11     Bn0   v120
        BYTE   W24
        BYTE                   En1   v090
        BYTE           N23     As1   v040
        BYTE   W12
        BYTE           N11     Bn0   v120
        BYTE   W12
// 025   ----------------------------------------
        BYTE                   As1   v060
        BYTE   W12
        BYTE                   Bn0   v100
        BYTE           N11     En1   v075
        BYTE   W12
        BYTE                   En1   v090
        BYTE           N44     Cs2   v070   gtp3
        BYTE   W18
        BYTE           N05     En1   v060
        BYTE   W06
        BYTE           N11     Bn0   v120
        BYTE   W12
        BYTE                   Bn0   v100
        BYTE   W12
        BYTE                   En1   v090
        BYTE           N23     As1   v040
        BYTE   W24
// 026   ----------------------------------------
        BYTE           N11     Bn0   v120
        BYTE           N32     Cs2   v050   gtp3
        BYTE   W12
        BYTE           N11     En1   v075
        BYTE   W12
        BYTE                   En1   v090
        BYTE   W12
        BYTE                   Bn0   v120
        BYTE           N56     Cs2   v050   gtp3
        BYTE   W12
        BYTE           N05     Fs1   v085
        BYTE   W12
        BYTE           N11     Bn0   v120
        BYTE   W12
        BYTE                   En1   v090
        BYTE   W12
        BYTE           N05     Fs1   v085
        BYTE   W06
        BYTE                   En1   v060
        BYTE   W06
// 027   ----------------------------------------
        BYTE           N11     Bn0   v120
        BYTE           N11     En1   v090
        BYTE   W12
        BYTE                   En1
        BYTE           N05     Fs1   v040
        BYTE   W12
        BYTE           N11     Bn0   v120
        BYTE           N05     Fs1   v090
        BYTE   W12
        BYTE           N11     En1
        BYTE           N05     Fs1   v040
        BYTE   W12
        BYTE                   Fs1   v090
        BYTE   W12
        BYTE           N11     En1
        BYTE           N05     Fs1   v040
        BYTE   W12
        BYTE           N11     Bn0   v120
        BYTE           N11     En1   v075
        BYTE   W12
        BYTE                   En1   v090
        BYTE           N11     As1   v060
        BYTE   W12
// 028   ----------------------------------------
        BYTE                   Bn0   v120
        BYTE           N44     Cs2   v070   gtp3
        BYTE   W12
        BYTE           N05     Fs1   v040
        BYTE   W12
        BYTE           N11     En1   v090
        BYTE   W12
        BYTE           N05     Fs1   v040
        BYTE   W12
        BYTE           N11     Bn0   v120
        BYTE           N05     Fs1   v095
        BYTE   W12
        BYTE           N11     Bn0   v100
        BYTE           N05     Fs1   v040
        BYTE   W12
        BYTE           N23     En1   v090
        BYTE           N05     Fs1   v095
        BYTE   W12
        BYTE           N11     As1   v040
        BYTE   W12
// 029   ----------------------------------------
        BYTE                   Bn0   v120
        BYTE           N05     Fs1   v095
        BYTE   W12
        BYTE                   Fs1   v040
        BYTE   W12
        BYTE           N11     En1   v090
        BYTE           N05     Fs1   v095
        BYTE   W12
        BYTE           N11     Bn0   v120
        BYTE           N11     As1   v040
        BYTE   W12
        BYTE           N05     Fs1   v095
        BYTE   W12
        BYTE           N11     Bn0   v100
        BYTE           N05     Fs1   v040
        BYTE   W12
        BYTE           N23     En1   v090
        BYTE   W06
        BYTE           N05     Fs1   v040
        BYTE   W06
        BYTE           N11     As1   v060
        BYTE   W12
// 030   ----------------------------------------
SEQ_BGM_053_0000_7_30:
        BYTE           N11     Bn0   v120
        BYTE           N05     Fs1   v095
        BYTE   W12
        BYTE                   Fs1   v040
        BYTE   W12
        BYTE           N11     En1   v090
        BYTE           N05     Fs1   v095
        BYTE   W12
        BYTE           N11     Bn0   v120
        BYTE           N05     Fs1   v040
        BYTE   W12
        BYTE                   Fs1   v095
        BYTE   W12
        BYTE           N11     Bn0   v100
        BYTE           N05     Fs1   v040
        BYTE   W12
        BYTE           N11     En1   v090
        BYTE           N05     Fs1   v095
        BYTE   W12
        BYTE           N11     Bn0   v120
        BYTE           N23     As1   v080
        BYTE   W12
        BYTE   PEND
// 031   ----------------------------------------
        BYTE   W12
        BYTE           N11     Bn0   v100
        BYTE           N05     Fs1   v040
        BYTE   W12
        BYTE           N11     En1   v090
        BYTE           N05     Fs1   v095
        BYTE   W12
        BYTE           N11     Bn0   v120
        BYTE           N11     As1   v080
        BYTE   W12
        BYTE           N05     Fs1   v095
        BYTE   W12
        BYTE           N11     Bn0   v100
        BYTE           N11     En1   v070
        BYTE   W12
        BYTE                   En1   v090
        BYTE           N05     Fs1   v095
        BYTE   W12
        BYTE           N11     Bn0   v120
        BYTE           N56     Cs2   v050   gtp3
        BYTE   W12
// 032   ----------------------------------------
        BYTE           N05     Fs1   v095
        BYTE   W12
        BYTE           N11     Bn0   v100
        BYTE   W12
        BYTE                   En1   v090
        BYTE   W12
        BYTE           N05     Fs1   v040
        BYTE   W12
        BYTE           N11     Bn0   v120
        BYTE           N05     Fs1   v095
        BYTE   W12
        BYTE           N11     Bn0   v100
        BYTE           N05     Fs1   v040
        BYTE   W12
        BYTE           N23     En1   v090
        BYTE           N05     Fs1   v095
        BYTE   W12
        BYTE           N11     As1   v040
        BYTE   W12
// 033   ----------------------------------------
        BYTE                   Bn0   v120
        BYTE           N05     Fs1   v095
        BYTE   W12
        BYTE                   Fs1   v040
        BYTE   W12
        BYTE           N11     En1   v090
        BYTE           N05     Fs1   v095
        BYTE   W12
        BYTE           N11     Bn0   v120
        BYTE           N11     As1   v040
        BYTE   W12
        BYTE           N05     Fs1   v095
        BYTE   W12
        BYTE           N11     Bn0   v100
        BYTE           N05     Fs1   v040
        BYTE   W12
        BYTE           N23     En1   v090
        BYTE   W06
        BYTE           N05     Fs1   v040
        BYTE   W06
        BYTE           N11     As1
        BYTE   W12
// 034   ----------------------------------------
        BYTE   PATT
         POIN2  SEQ_BGM_053_0000_7_30
// 035   ----------------------------------------
        BYTE   W12
        BYTE           N11     Bn0   v100
        BYTE           N05     Fs1   v040
        BYTE   W12
        BYTE           N11     En1   v090
        BYTE           N05     Fs1   v095
        BYTE   W12
        BYTE           N11     Bn0   v120
        BYTE           N11     As1   v080
        BYTE   W12
        BYTE           N05     En1   v075
        BYTE   W06
        BYTE           N11     En1   v090
        BYTE   W06
        BYTE                   An1   v112
        BYTE   W06
        BYTE                   Fn1   v107
        BYTE   W06
        BYTE                   En1   v090
        BYTE   W12
        BYTE           N05     Bn0   v115
        BYTE           N11     As1   v070
        BYTE   W06
        BYTE           N05     En1
        BYTE   W06
// 036   ----------------------------------------
        BYTE           N11     Bn0   v120
        BYTE           N44     Cs2   v070   gtp3
        BYTE   W12
        BYTE           N11     As1   v040
        BYTE   W12
        BYTE                   En1   v090
        BYTE   W12
        BYTE                   Bn0   v120
        BYTE   W12
        BYTE                   En1   v090
        BYTE           N11     As1   v070
        BYTE   W12
        BYTE                   Bn0   v100
        BYTE           N11     As1   v040
        BYTE   W12
        BYTE                   En1   v090
        BYTE           N11     As1   v070
        BYTE   W12
        BYTE                   Bn0   v120
        BYTE           N56     Cs2   v050   gtp3
        BYTE   W12
// 037   ----------------------------------------
        BYTE           N11     As1   v070
        BYTE   W12
        BYTE                   Bn0   v100
        BYTE   W12
        BYTE                   En1   v090
        BYTE   W12
        BYTE                   Bn0   v120
        BYTE   W12
        BYTE                   En1   v090
        BYTE           N11     As1   v070
        BYTE   W12
        BYTE                   Bn0   v100
        BYTE           N11     As1   v040
        BYTE   W12
        BYTE                   En1   v090
        BYTE           N11     As1   v070
        BYTE   W12
        BYTE                   Bn0   v120
        BYTE           N44     Cs2   v050   gtp3
        BYTE   W12
// 038   ----------------------------------------
        BYTE           N11     As1   v055
        BYTE   W12
        BYTE                   Bn0   v100
        BYTE   W12
        BYTE                   En1   v090
        BYTE   W12
        BYTE                   Bn0   v120
        BYTE           N44     Cs2   v050   gtp3
        BYTE   W12
        BYTE           N11     As1   v070
        BYTE   W12
        BYTE                   Bn0   v100
        BYTE   W12
        BYTE           N17     En1   v090
        BYTE   W12
        BYTE           N11     As1   v040
        BYTE   W06
        BYTE           N05     En1   v055
        BYTE   W06
// 039   ----------------------------------------
        BYTE           N11     Bn0   v125
        BYTE           N11     En1   v090
        BYTE   W12
        BYTE                   En1
        BYTE   W12
        BYTE                   En1
        BYTE           N05     Fs1   v070
        BYTE   W12
        BYTE           N11     Bn0   v125
        BYTE           N11     En1   v090
        BYTE   W12
        BYTE           N05     Fs1   v070
        BYTE   W12
        BYTE           N11     En1   v090
        BYTE           N11     As1
        BYTE   W12
        BYTE                   En1
        BYTE           N05     Fs1   v070
        BYTE   W12
        BYTE           N11     Bn0   v120
        BYTE           N56     Cs2   v070   gtp3
        BYTE   W12
// 040   ----------------------------------------
        BYTE   W12
        BYTE           N11     Bn0   v100
        BYTE   W12
        BYTE                   En1   v090
        BYTE   W12
        BYTE                   Bn0   v120
        BYTE   W12
        BYTE           N23     As1   v060
        BYTE   W12
        BYTE           N11     Bn0   v100
        BYTE   W12
        BYTE           N23     En1   v090
        BYTE           N23     As1   v040
        BYTE   W24
// 041   ----------------------------------------
        BYTE           N11     Bn0   v120
        BYTE           N23     As1   v060
        BYTE   W24
        BYTE           N11     En1   v090
        BYTE           N23     As1   v040
        BYTE   W12
        BYTE           N11     Bn0   v120
        BYTE   W12
        BYTE           N23     As1   v060
        BYTE   W12
        BYTE           N11     Bn0   v100
        BYTE   W12
        BYTE           N23     En1   v090
        BYTE           N23     As1   v040
        BYTE   W24
// 042   ----------------------------------------
        BYTE           N11     Bn0   v120
        BYTE           N23     As1   v060
        BYTE   W24
        BYTE           N11     En1   v090
        BYTE           N23     As1   v040
        BYTE   W12
        BYTE           N11     Bn0   v120
        BYTE   W12
        BYTE           N23     As1   v060
        BYTE   W12
        BYTE           N11     Bn0   v100
        BYTE   W12
        BYTE           N17     En1   v090
        BYTE           N23     As1   v040
        BYTE   W18
        BYTE           N05     En1   v070
        BYTE   W06
// 043   ----------------------------------------
        BYTE           N11     Bn0   v120
        BYTE           N23     As1   v060
        BYTE   W24
        BYTE           N11     En1   v090
        BYTE           N23     As1   v040
        BYTE   W12
        BYTE           N11     Bn0   v120
        BYTE   W12
        BYTE           N23     As1   v060
        BYTE   W12
        BYTE           N11     En1   v070
        BYTE   W12
        BYTE                   En1   v090
        BYTE           N11     As1   v040
        BYTE   W12
        BYTE                   Bn0   v120
        BYTE           N56     Cs2   v050   gtp3
        BYTE   W12
// 044   ----------------------------------------
        BYTE           N11     As1   v060
        BYTE   W12
        BYTE                   Bn0   v100
        BYTE   W12
        BYTE                   En1   v090
        BYTE   W12
        BYTE                   Bn0   v120
        BYTE   W12
        BYTE           N23     As1   v060
        BYTE   W12
        BYTE           N11     Bn0   v100
        BYTE   W12
        BYTE           N17     En1   v090
        BYTE           N23     As1   v040
        BYTE   W18
        BYTE           N05     En1   v070
        BYTE   W06
// 045   ----------------------------------------
        BYTE           N11     Bn0   v120
        BYTE           N23     As1   v060
        BYTE   W24
        BYTE           N11     En1   v090
        BYTE           N23     As1   v040
        BYTE   W12
        BYTE           N11     Bn0   v120
        BYTE   W12
        BYTE           N23     As1   v060
        BYTE   W12
        BYTE           N11     Bn0   v100
        BYTE           N11     En1   v070
        BYTE   W12
        BYTE                   En1   v090
        BYTE           N23     As1   v040
        BYTE   W12
        BYTE           N11     Bn0   v120
        BYTE   W12
// 046   ----------------------------------------
        BYTE           N23     As1   v060
        BYTE   W12
        BYTE           N11     Bn0   v100
        BYTE   W12
        BYTE                   En1   v090
        BYTE           N23     As1   v040
        BYTE   W12
        BYTE           N05     Bn0   v120
        BYTE   W06
        BYTE                   En1   v055
        BYTE   W06
        BYTE           N11     As1   v060
        BYTE   W12
        BYTE                   Bn0   v100
        BYTE           N11     En1   v075
        BYTE   W12
        BYTE                   En1   v090
        BYTE           N23     As1   v040
        BYTE   W12
        BYTE           N11     Fn1   v112
        BYTE   W12
// 047   ----------------------------------------
        BYTE                   Bn0   v120
        BYTE           N11     En1   v090
        BYTE   W12
        BYTE                   En1
        BYTE   W12
        BYTE                   En1
        BYTE           N05     Fs1   v070
        BYTE   W12
        BYTE           N11     Bn0   v120
        BYTE           N11     En1   v090
        BYTE   W12
        BYTE           N05
        BYTE           N05     Fs1   v070
        BYTE   W06
        BYTE                   En1   v090
        BYTE   W06
        BYTE           N11     An1   v112
        BYTE   W06
        BYTE           N17     Fn1   v107
        BYTE   W06
        BYTE           N11     En1   v090
        BYTE   W12
        BYTE                   Bn0   v120
        BYTE           N32     Cs2   v060   gtp3
        BYTE   W12
// 048   ----------------------------------------
        BYTE           N11     As1   v070
        BYTE   W12
        BYTE                   Bn0   v100
        BYTE   W12
        BYTE                   En1   v090
        BYTE           N56     Cs2   v070   gtp3
        BYTE   W12
        BYTE           N11     Bn0   v120
        BYTE   W12
        BYTE           N05     Fs1   v080
        BYTE   W12
        BYTE           N11     Fn2   v075
        BYTE   W12
        BYTE           N17     En1   v090
        BYTE   W12
        BYTE           N23     Fn2   v085
        BYTE   W06
        BYTE           N05     En1   v070
        BYTE   W06
// 049   ----------------------------------------
        BYTE           N11     Bn0   v120
        BYTE   W12
        BYTE                   Fn2   v075
        BYTE           N05     Fs1   v080
        BYTE   W12
        BYTE           N11     En1   v090
        BYTE           N56     Cs2   v070   gtp3
        BYTE   W12
        BYTE           N05     Bn0   v120
        BYTE   W06
        BYTE                   En1   v070
        BYTE   W06
        BYTE                   Fs1   v080
        BYTE   W12
        BYTE           N11     Fn2   v075
        BYTE   W12
        BYTE                   En1   v090
        BYTE   W12
        BYTE                   Bn0   v100
        BYTE           N23     Fn2   v085
        BYTE   W12
// 050   ----------------------------------------
        BYTE           N11     Bn0   v120
        BYTE   W12
        BYTE                   Fn2   v075
        BYTE           N05     Fs1   v080
        BYTE   W12
        BYTE           N11     En1   v090
        BYTE           N56     Cs2   v070   gtp3
        BYTE   W12
        BYTE           N11     Bn0   v120
        BYTE   W12
        BYTE           N05     Fs1   v080
        BYTE   W12
        BYTE           N11     Fn2   v075
        BYTE   W12
        BYTE           N17     En1   v090
        BYTE   W12
        BYTE           N23     Fn2   v085
        BYTE   W06
        BYTE           N05     En1   v070
        BYTE   W06
// 051   ----------------------------------------
        BYTE           N11     Bn0   v120
        BYTE   W12
        BYTE           N05     En1   v045
        BYTE           N11     Fn2   v075
        BYTE   W12
        BYTE           N05     Cn2   v127
        BYTE           N05     Fs1   v080
        BYTE   W06
        BYTE                   Cn2   v097
        BYTE   W06
        BYTE           N11     Bn0   v120
        BYTE           N05     Cn2   v087
        BYTE   W06
        BYTE                   Cn2   v097
        BYTE   W06
        BYTE                   An1   v127
        BYTE           N05     Fs1   v080
        BYTE   W06
        BYTE                   An1   v092
        BYTE   W06
        BYTE                   Fn1   v127
        BYTE   W06
        BYTE                   Fn1   v102
        BYTE   W06
        BYTE           N11     En1   v090
        BYTE   W12
        BYTE                   Bn0   v120
        BYTE           N32     Cs2   v060   gtp3
        BYTE   W12
// 052   ----------------------------------------
        BYTE   W12
        BYTE           N11     Bn0   v100
        BYTE   W12
        BYTE                   En1   v090
        BYTE           N56     Cs2   v070   gtp3
        BYTE   W12
        BYTE           N11     Bn0   v120
        BYTE   W12
        BYTE           N05     Fs1   v080
        BYTE   W12
        BYTE           N11     Fn2   v075
        BYTE   W12
        BYTE           N23     En1   v090
        BYTE   W12
        BYTE                   Fn2   v085
        BYTE   W12
// 053   ----------------------------------------
        BYTE           N11     Bn0   v120
        BYTE   W12
        BYTE                   Fn2   v075
        BYTE           N05     Fs1   v080
        BYTE   W12
        BYTE           N11     En1   v090
        BYTE           N56     Cs2   v070   gtp3
        BYTE   W12
        BYTE           N11     Bn0   v120
        BYTE   W12
        BYTE           N05     Fs1   v080
        BYTE   W12
        BYTE           N11     Fn2   v075
        BYTE   W12
        BYTE                   En1   v090
        BYTE   W12
        BYTE                   Bn0   v120
        BYTE           N11     As1   v090
        BYTE   W12
// 054   ----------------------------------------
        BYTE           N05     Fs1   v080
        BYTE   W12
        BYTE           N11     Bn0   v100
        BYTE           N23     Fn2   v075
        BYTE   W12
        BYTE           N11     En1   v090
        BYTE   W12
        BYTE           N05     Bn0   v120
        BYTE           N23     Fn2   v085
        BYTE   W06
        BYTE           N05     En1   v070
        BYTE   W06
        BYTE                   Fs1   v080
        BYTE   W12
        BYTE           N11     Bn0   v100
        BYTE           N23     Fn2   v075
        BYTE   W12
        BYTE           N05     En1   v090
        BYTE   W06
        BYTE                   En1
        BYTE   W06
        BYTE                   En1
        BYTE   W06
        BYTE                   En1
        BYTE   W06
// 055   ----------------------------------------
        BYTE           N11     Bn0   v125
        BYTE           N11     En1   v090
        BYTE   W48
        BYTE           N17     An1   v112
        BYTE   W01
        BYTE           N16     Cn2   v122
        BYTE   W17
        BYTE           N17     Fn1   v112
        BYTE   W01
        BYTE           N16     Gs1   v110
        BYTE   W17
        BYTE           N11     Bn0   v125
        BYTE           TIE     Cs2   v060
        BYTE           TIE     Cn3   v105
        BYTE   W12
// 056   ----------------------------------------
        BYTE   W24
        BYTE           N05     Fs1   v070
        BYTE   W48
        BYTE                   Fs1
        BYTE   W23
        BYTE           EOT     Cs2
        BYTE   W01
// 057   ----------------------------------------
        BYTE   W24
        BYTE           N05     Fs1
        BYTE   W48
        BYTE                   Fs1
        BYTE   W24
// 058   ----------------------------------------
        BYTE   W05
        BYTE           EOT     Cn3
        BYTE   W19
        BYTE           N05     Fs1
        BYTE   W48
        BYTE                   Fs1
        BYTE   W24
// 059   ----------------------------------------
        BYTE   W24
        BYTE                   Fs1
        BYTE   W36
        BYTE           N11     En1   v080
        BYTE   W12
        BYTE                   En1   v095
        BYTE           N05     Fs1   v070
        BYTE   W12
        BYTE           N11     As1   v060
        BYTE   W12
// 060   ----------------------------------------
        BYTE                   Bn0   v105
        BYTE           N68     Cs2   v050   gtp3
        BYTE   W24
        BYTE           N05     Fs1   v080
        BYTE   W36
        BYTE           N11     Cn2   v102
        BYTE   W12
        BYTE           N08     Bn0   v105
        BYTE           N11     En1   v080
        BYTE   W09
        BYTE           N02     An1   v102
        BYTE   W03
        BYTE           N11     Bn0   v120
        BYTE           N32     An1   v117   gtp3
        BYTE   W12
// 061   ----------------------------------------
        BYTE   W24
        BYTE           N05     Fs1   v080
        BYTE   W32
        BYTE   W01
        BYTE           N02     An1   v082
        BYTE   W03
        BYTE           N11     An1   v102
        BYTE   W12
        BYTE                   Bn0   v105
        BYTE           N11     En1   v080
        BYTE   W12
        BYTE                   Bn0   v120
        BYTE           N32     Fn1   v117   gtp3
        BYTE   W12
// 062   ----------------------------------------
        BYTE   W24
        BYTE           N05     Fs1   v080
        BYTE   W36
        BYTE           N11     Fn1   v102
        BYTE   W09
        BYTE           N02     En1   v065
        BYTE   W03
        BYTE           N11     Bn0   v105
        BYTE           N11     En1   v080
        BYTE   W12
        BYTE                   Bn0   v120
        BYTE           N11     En1   v095
        BYTE   W12
// 063   ----------------------------------------
        BYTE           N05     Cn2   v127
        BYTE   W06
        BYTE                   Cn2   v097
        BYTE   W06
        BYTE                   Cn2   v087
        BYTE   W06
        BYTE                   Cn2   v097
        BYTE   W06
        BYTE                   An1   v122
        BYTE   W06
        BYTE                   An1   v082
        BYTE   W06
        BYTE           N11     Bn0   v120
        BYTE           N05     An1   v072
        BYTE   W06
        BYTE                   An1   v082
        BYTE   W06
        BYTE                   Fn1   v127
        BYTE   W06
        BYTE                   Fn1   v092
        BYTE   W06
        BYTE                   Fn1   v082
        BYTE   W06
        BYTE                   Fn1   v092
        BYTE   W06
        BYTE           N11     Bn0   v120
        BYTE           N05     En1   v095
        BYTE   W06
        BYTE                   En1   v065
        BYTE   W06
        BYTE                   En1   v055
        BYTE   W06
        BYTE                   En1   v090
        BYTE   W06
// 064   ----------------------------------------
        BYTE           N92     Cs2   v050   gtp3
        BYTE           N05     Fs1   v080
        BYTE   W12
        BYTE                   Fs1   v030
        BYTE   W12
        BYTE           N11     Bn0   v120
        BYTE   W12
        BYTE           N05     Fs1   v030
        BYTE   W12
        BYTE           N11     En1   v080
        BYTE   W12
        BYTE           N05     Fs1   v030
        BYTE   W12
        BYTE                   Fs1   v080
        BYTE   W12
        BYTE           N11     En1   v035
        BYTE   W12
// 065   ----------------------------------------
        BYTE           N05     Fs1   v080
        BYTE   W12
        BYTE           N11     En1   v035
        BYTE   W12
        BYTE                   Bn0   v120
        BYTE           N05     Fs1   v080
        BYTE   W12
        BYTE                   Fs1   v030
        BYTE   W12
        BYTE           N11     En1   v080
        BYTE   W12
        BYTE           N05     Fs1   v030
        BYTE   W06
        BYTE                   En1   v015
        BYTE   W06
        BYTE                   Fs1   v080
        BYTE   W12
        BYTE           N11     En1   v035
        BYTE   W12
// 066   ----------------------------------------
        BYTE           N05     Fs1   v080
        BYTE   W12
        BYTE                   Fs1   v030
        BYTE   W12
        BYTE           N11     Bn0   v120
        BYTE           N05     Fs1   v080
        BYTE   W12
        BYTE                   Fs1   v030
        BYTE   W12
        BYTE           N11     En1   v080
        BYTE   W12
        BYTE           N05     Fs1   v030
        BYTE   W12
        BYTE                   Fs1   v080
        BYTE   W12
        BYTE           N11     En1   v035
        BYTE   W12
// 067   ----------------------------------------
        BYTE           N05     Fs1   v080
        BYTE   W12
        BYTE           N11     En1   v035
        BYTE   W12
        BYTE                   Bn0   v120
        BYTE           N05     Fs1   v080
        BYTE   W12
        BYTE                   Fs1   v030
        BYTE   W12
        BYTE           N11     En1   v080
        BYTE           N05     Fs1
        BYTE   W12
        BYTE                   Fs1   v030
        BYTE   W06
        BYTE                   En1   v055
        BYTE   W06
        BYTE           N11     Bn0   v120
        BYTE           N05     Fs1   v080
        BYTE   W12
        BYTE           N11     En1   v090
        BYTE           N05     Fs1   v060
        BYTE   GoTo
         POIN2  SEQ_BGM_053_0000_7_LOOP
        BYTE   W12
// 068   ----------------------------------------
        BYTE   W04
        BYTE   FINE

//****************** Track 8 (Midi-Chn.8) ******************//

SEQ_BGM_053_0000_8:
        BYTE   KEYSH   SEQ_BGM_053_0000_key+0
// 000   ----------------------------------------
        BYTE           VOL     28
        BYTE           VOICE   18
        BYTE   W96
// 001   ----------------------------------------
        BYTE   W96
// 002   ----------------------------------------
        BYTE   W96
// 003   ----------------------------------------
        BYTE   W84
SEQ_BGM_053_0000_8_LOOP:
        BYTE   W12
// 004   ----------------------------------------
        BYTE   W96
// 005   ----------------------------------------
        BYTE   W96
// 006   ----------------------------------------
        BYTE   W96
// 007   ----------------------------------------
        BYTE           N05     En4   v090
        BYTE   W06
        BYTE                   Fn4   v070
        BYTE   W06
        BYTE                   En4   v080
        BYTE   W06
        BYTE                   Fn4   v070
        BYTE   W06
        BYTE                   En4   v080
        BYTE   W06
        BYTE                   Fn4   v070
        BYTE   W06
        BYTE                   En4   v080
        BYTE   W06
        BYTE                   Fn4   v070
        BYTE   W06
        BYTE                   En4   v080
        BYTE   W06
        BYTE                   Fn4   v070
        BYTE   W06
        BYTE                   En4   v080
        BYTE   W06
        BYTE                   Fn4   v070
        BYTE   W06
        BYTE                   En4   v080
        BYTE   W06
        BYTE                   Fn4   v070
        BYTE   W06
        BYTE                   En4   v080
        BYTE   W06
        BYTE                   Fn4   v070
        BYTE   W06
// 008   ----------------------------------------
SEQ_BGM_053_0000_8_8:
        BYTE           N68     An2   v055   gtp3
        BYTE                   En5   v040
        BYTE   W72
        BYTE           N11     En3   v095
        BYTE           N11     An5   v080
        BYTE   W12
        BYTE           N56     Dn3   v085   gtp3
        BYTE           N68     Gn5   v070   gtp3
        BYTE   W12
        BYTE   PEND
// 009   ----------------------------------------
        BYTE   W48
        BYTE           N05     Gn3   v080
        BYTE   W06
        BYTE                   Bn3
        BYTE   W12
        BYTE                   Dn4
        BYTE   W12
        BYTE                   Bn3
        BYTE   W06
        BYTE                   Gn3
        BYTE   W12
// 010   ----------------------------------------
        BYTE   PATT
         POIN2  SEQ_BGM_053_0000_8_8
// 011   ----------------------------------------
        BYTE   W48
        BYTE           N05     Bn2   v080
        BYTE   W06
        BYTE                   Bn2
        BYTE   W06
        BYTE                   Bn2
        BYTE   W06
        BYTE                   Bn2
        BYTE   W06
        BYTE                   Dn3
        BYTE   W06
        BYTE                   Gn3
        BYTE   W06
        BYTE                   Dn3
        BYTE   W06
        BYTE                   Bn2
        BYTE   W06
// 012   ----------------------------------------
        BYTE   W96
// 013   ----------------------------------------
        BYTE   W96
// 014   ----------------------------------------
        BYTE   W96
// 015   ----------------------------------------
        BYTE   W96
// 016   ----------------------------------------
        BYTE   W96
// 017   ----------------------------------------
        BYTE   W96
// 018   ----------------------------------------
        BYTE   W96
// 019   ----------------------------------------
        BYTE   W96
// 020   ----------------------------------------
        BYTE   W96
// 021   ----------------------------------------
        BYTE   W96
// 022   ----------------------------------------
        BYTE   W96
// 023   ----------------------------------------
        BYTE   W96
// 024   ----------------------------------------
        BYTE   W96
// 025   ----------------------------------------
        BYTE   W96
// 026   ----------------------------------------
        BYTE   W96
// 027   ----------------------------------------
        BYTE   W96
// 028   ----------------------------------------
        BYTE   W96
// 029   ----------------------------------------
        BYTE   W96
// 030   ----------------------------------------
        BYTE   W96
// 031   ----------------------------------------
        BYTE   W96
// 032   ----------------------------------------
        BYTE   W96
// 033   ----------------------------------------
        BYTE   W96
// 034   ----------------------------------------
        BYTE   W96
// 035   ----------------------------------------
        BYTE   W96
// 036   ----------------------------------------
        BYTE   W96
// 037   ----------------------------------------
        BYTE   W96
// 038   ----------------------------------------
        BYTE   W96
// 039   ----------------------------------------
        BYTE   W96
// 040   ----------------------------------------
        BYTE   W96
// 041   ----------------------------------------
        BYTE   W96
// 042   ----------------------------------------
        BYTE   W96
// 043   ----------------------------------------
        BYTE   W96
// 044   ----------------------------------------
        BYTE   W96
// 045   ----------------------------------------
        BYTE   W96
// 046   ----------------------------------------
        BYTE   W96
// 047   ----------------------------------------
        BYTE   W96
// 048   ----------------------------------------
        BYTE   W96
// 049   ----------------------------------------
        BYTE   W96
// 050   ----------------------------------------
        BYTE   W96
// 051   ----------------------------------------
        BYTE   W96
// 052   ----------------------------------------
        BYTE   W96
// 053   ----------------------------------------
        BYTE   W96
// 054   ----------------------------------------
        BYTE   W96
// 055   ----------------------------------------
        BYTE   W96
// 056   ----------------------------------------
        BYTE   W96
// 057   ----------------------------------------
        BYTE   W96
// 058   ----------------------------------------
        BYTE   W96
// 059   ----------------------------------------
        BYTE   W96
// 060   ----------------------------------------
        BYTE   W96
// 061   ----------------------------------------
        BYTE   W96
// 062   ----------------------------------------
        BYTE   W96
// 063   ----------------------------------------
        BYTE   W96
// 064   ----------------------------------------
        BYTE   W96
// 065   ----------------------------------------
        BYTE   W96
// 066   ----------------------------------------
        BYTE   W96
// 067   ----------------------------------------
        BYTE   W84
        BYTE   GoTo
         POIN2  SEQ_BGM_053_0000_8_LOOP
        BYTE   W12
// 068   ----------------------------------------
        BYTE   W04
        BYTE   FINE

//***************** Track 9 (Midi-Chn.10) ******************//

SEQ_BGM_053_0000_9:
        BYTE   KEYSH   SEQ_BGM_053_0000_key+0
// 000   ----------------------------------------
        BYTE           VOICE   0
        BYTE           VOL     29
        BYTE   W96
// 001   ----------------------------------------
        BYTE   W96
// 002   ----------------------------------------
        BYTE   W96
// 003   ----------------------------------------
        BYTE   W84
SEQ_BGM_053_0000_9_LOOP:
        BYTE   W12
// 004   ----------------------------------------
        BYTE   W96
// 005   ----------------------------------------
        BYTE   W96
// 006   ----------------------------------------
        BYTE   W96
// 007   ----------------------------------------
        BYTE   W96
// 008   ----------------------------------------
        BYTE   W96
// 009   ----------------------------------------
        BYTE   W96
// 010   ----------------------------------------
        BYTE   W96
// 011   ----------------------------------------
        BYTE   W96
// 012   ----------------------------------------
        BYTE   W96
// 013   ----------------------------------------
        BYTE   W96
// 014   ----------------------------------------
        BYTE   W96
// 015   ----------------------------------------
        BYTE   W96
// 016   ----------------------------------------
        BYTE   W96
// 017   ----------------------------------------
        BYTE   W96
// 018   ----------------------------------------
        BYTE   W96
// 019   ----------------------------------------
        BYTE   W96
// 020   ----------------------------------------
        BYTE   W96
// 021   ----------------------------------------
        BYTE   W96
// 022   ----------------------------------------
        BYTE   W96
// 023   ----------------------------------------
        BYTE   W96
// 024   ----------------------------------------
        BYTE   W96
// 025   ----------------------------------------
        BYTE   W96
// 026   ----------------------------------------
        BYTE   W96
// 027   ----------------------------------------
        BYTE   W96
// 028   ----------------------------------------
SEQ_BGM_053_0000_9_28:
        BYTE           N06     An3   v100
        BYTE   W12
        BYTE                   Cn4
        BYTE   W12
        BYTE                   Fn4
        BYTE   W12
        BYTE                   An4
        BYTE   W12
        BYTE                   Fn4
        BYTE   W12
        BYTE                   Cn4
        BYTE   W12
        BYTE                   An3
        BYTE   W12
        BYTE                   Cn4
        BYTE   W12
        BYTE   PEND
// 029   ----------------------------------------
SEQ_BGM_053_0000_9_29:
        BYTE           N06     Bn3   v100
        BYTE   W12
        BYTE                   Dn4
        BYTE   W12
        BYTE                   Gn4
        BYTE   W12
        BYTE                   Bn4
        BYTE   W12
        BYTE                   Gn4
        BYTE   W12
        BYTE                   Dn4
        BYTE   W12
        BYTE                   Bn3
        BYTE   W12
        BYTE                   Dn4
        BYTE   W12
        BYTE   PEND
// 030   ----------------------------------------
        BYTE   PATT
         POIN2  SEQ_BGM_053_0000_9_29
// 031   ----------------------------------------
        BYTE           N06     An3   v100
        BYTE   W12
        BYTE                   Cn4
        BYTE   W12
        BYTE                   En4
        BYTE   W12
        BYTE                   An4
        BYTE   W12
        BYTE                   En4
        BYTE   W12
        BYTE                   Cn4
        BYTE   W12
        BYTE                   An3
        BYTE   W12
        BYTE                   Cn4
        BYTE   W12
// 032   ----------------------------------------
        BYTE   PATT
         POIN2  SEQ_BGM_053_0000_9_28
// 033   ----------------------------------------
        BYTE   PATT
         POIN2  SEQ_BGM_053_0000_9_29
// 034   ----------------------------------------
        BYTE   PATT
         POIN2  SEQ_BGM_053_0000_9_29
// 035   ----------------------------------------
        BYTE           N06     An3   v100
        BYTE   W12
        BYTE                   En4
        BYTE   W12
        BYTE                   An4
        BYTE   W12
        BYTE                   En4
        BYTE   W12
        BYTE                   An3
        BYTE   W12
        BYTE                   En4
        BYTE   W12
        BYTE                   An4
        BYTE   W12
        BYTE                   En4
        BYTE   W12
// 036   ----------------------------------------
        BYTE   W96
// 037   ----------------------------------------
        BYTE   W96
// 038   ----------------------------------------
        BYTE   W96
// 039   ----------------------------------------
        BYTE   W96
// 040   ----------------------------------------
        BYTE   W96
// 041   ----------------------------------------
        BYTE   W96
// 042   ----------------------------------------
        BYTE   W96
// 043   ----------------------------------------
        BYTE   W96
// 044   ----------------------------------------
        BYTE   W96
// 045   ----------------------------------------
        BYTE   W96
// 046   ----------------------------------------
        BYTE   W96
// 047   ----------------------------------------
        BYTE   W84
        BYTE           N23     Gn3
        BYTE           N23     Cn4
        BYTE   W12
// 048   ----------------------------------------
SEQ_BGM_053_0000_9_48:
        BYTE   W12
        BYTE           N11     An2   v100
        BYTE   W12
        BYTE                   En3
        BYTE   W12
        BYTE                   Gn3
        BYTE           N11     Cn4
        BYTE   W12
        BYTE                   An2
        BYTE   W12
        BYTE                   En3
        BYTE   W12
        BYTE                   Gn3
        BYTE           N11     Cn4
        BYTE   W12
        BYTE                   An3
        BYTE   W12
        BYTE   PEND
// 049   ----------------------------------------
        BYTE                   Gn2
        BYTE   W12
        BYTE                   Gn3
        BYTE           N11     Bn3
        BYTE   W12
        BYTE           N05     Bn2
        BYTE           N05     Gn3
        BYTE   W12
        BYTE           N11
        BYTE           N11     Bn3
        BYTE   W12
        BYTE           N05     Dn3
        BYTE   W12
        BYTE           N23     Gn3
        BYTE           N23     Bn3
        BYTE   W24
        BYTE           N11     Gn2
        BYTE           N11     Dn3
        BYTE   W12
// 050   ----------------------------------------
        BYTE           N23     Fn3
        BYTE   W12
        BYTE                   Gn3
        BYTE   W12
        BYTE           N11     An3
        BYTE   W12
        BYTE                   An3
        BYTE           N11     En4
        BYTE   W12
        BYTE                   Fn2
        BYTE   W12
        BYTE           N23     An3
        BYTE           N23     En4
        BYTE   W24
        BYTE           N11     An3
        BYTE           N11     Dn4
        BYTE   W12
// 051   ----------------------------------------
        BYTE           N23     Cn4
        BYTE           N23     En4
        BYTE   W24
        BYTE           N11
        BYTE   W06
        BYTE                   Cn4
        BYTE   W06
        BYTE                   Bn3
        BYTE   W06
        BYTE                   An3
        BYTE   W06
        BYTE                   En3
        BYTE   W06
        BYTE                   Cn3
        BYTE   W06
        BYTE                   Bn2
        BYTE   W06
        BYTE                   An2
        BYTE   W06
        BYTE                   En2
        BYTE   W12
        BYTE           N23     Gn3
        BYTE           N23     Cn4
        BYTE   W12
// 052   ----------------------------------------
        BYTE   PATT
         POIN2  SEQ_BGM_053_0000_9_48
// 053   ----------------------------------------
        BYTE           N11     Gn2   v100
        BYTE   W12
        BYTE                   Gn3
        BYTE           N11     Bn3
        BYTE   W12
        BYTE           N05     Bn2
        BYTE           N05     Gn3
        BYTE   W12
        BYTE           N11
        BYTE           N11     Bn3
        BYTE   W12
        BYTE           N05     Dn3
        BYTE   W12
        BYTE           N23     Gn3
        BYTE           N23     Bn3
        BYTE   W24
        BYTE                   En3
        BYTE           N23     Cn4
        BYTE   W12
// 054   ----------------------------------------
        BYTE   W96
// 055   ----------------------------------------
        BYTE   W96
// 056   ----------------------------------------
        BYTE   W96
// 057   ----------------------------------------
        BYTE   W96
// 058   ----------------------------------------
        BYTE   W96
// 059   ----------------------------------------
        BYTE   W96
// 060   ----------------------------------------
        BYTE   W96
// 061   ----------------------------------------
        BYTE   W96
// 062   ----------------------------------------
        BYTE   W96
// 063   ----------------------------------------
        BYTE   W96
// 064   ----------------------------------------
        BYTE   W96
// 065   ----------------------------------------
        BYTE   W96
// 066   ----------------------------------------
        BYTE   W96
// 067   ----------------------------------------
        BYTE   W84
        BYTE   GoTo
         POIN2  SEQ_BGM_053_0000_9_LOOP
        BYTE   W12
// 068   ----------------------------------------
        BYTE   W04
        BYTE   FINE

//***************** Track 10 (Midi-Chn.11) *****************//

SEQ_BGM_053_0000_10:
        BYTE   KEYSH   SEQ_BGM_053_0000_key+0
// 000   ----------------------------------------
        BYTE           VOICE   115
        BYTE           VOL     14
        BYTE   W96
// 001   ----------------------------------------
        BYTE   W96
// 002   ----------------------------------------
        BYTE   W96
// 003   ----------------------------------------
        BYTE   W84
SEQ_BGM_053_0000_10_LOOP:
        BYTE   W12
// 004   ----------------------------------------
        BYTE   W96
// 005   ----------------------------------------
        BYTE   W96
// 006   ----------------------------------------
        BYTE   W96
// 007   ----------------------------------------
        BYTE   W96
// 008   ----------------------------------------
        BYTE   W96
// 009   ----------------------------------------
        BYTE   W96
// 010   ----------------------------------------
        BYTE   W96
// 011   ----------------------------------------
        BYTE   W92
        BYTE   W03
        BYTE           BENDR   4
        BYTE   W01
// 012   ----------------------------------------
        BYTE   W16
        BYTE           BEND    c_v+19
        BYTE   W01
        BYTE           N28     Gn2   v075   gtp1
        BYTE           BEND    c_v+22
        BYTE   W01
        BYTE                   c_v+26
        BYTE   W01
        BYTE                   c_v+32
        BYTE   W19
        BYTE                   c_v+24
        BYTE   W01
        BYTE                   c_v+16
        BYTE   W01
        BYTE                   c_v+8
        BYTE   W01
        BYTE                   c_v-8
        BYTE   W01
        BYTE                   c_v-16
        BYTE   W01
        BYTE                   c_v-24
        BYTE   W01
        BYTE                   c_v-40
        BYTE   W01
        BYTE                   c_v-48
        BYTE   W01
        BYTE                   c_v-56
        BYTE   W01
        BYTE                   c_v-64
        BYTE   W15
        BYTE                   c_v+0
        BYTE   W03
        BYTE           N07     An2
        BYTE   W11
        BYTE           BEND    c_v-16
        BYTE   W01
        BYTE           N18     Cn3
        BYTE   W12
        BYTE           BEND    c_v+0
        BYTE   W07
// 013   ----------------------------------------
        BYTE   W04
        BYTE                   c_v+32
        BYTE   W01
        BYTE           N40     Gn2   v075   gtp1
        BYTE   W32
        BYTE   W01
        BYTE           BEND    c_v+16
        BYTE   W01
        BYTE                   c_v+8
        BYTE   W01
        BYTE                   c_v+0
        BYTE   W01
        BYTE                   c_v-16
        BYTE   W01
        BYTE                   c_v-24
        BYTE   W01
        BYTE                   c_v-32
        BYTE   W01
        BYTE                   c_v-48
        BYTE   W01
        BYTE                   c_v-56
        BYTE   W01
        BYTE                   c_v-64
        BYTE   W13
        BYTE                   c_v+0
        BYTE   W06
        BYTE           N11     An2
        BYTE   W12
        BYTE                   Bn2
        BYTE   W12
        BYTE           N07     Cn3
        BYTE   W07
// 014   ----------------------------------------
        BYTE   W05
        BYTE           N32     Bn2   v075   gtp2
        BYTE   W32
        BYTE   W03
        BYTE           BEND    c_v+19
        BYTE   W01
        BYTE           N23     Gn2
        BYTE           BEND    c_v+23
        BYTE   W01
        BYTE                   c_v+27
        BYTE   W01
        BYTE                   c_v+32
        BYTE   W12
        BYTE                   c_v+0
        BYTE   W22
        BYTE           N11     Fn2
        BYTE   W19
// 015   ----------------------------------------
        BYTE   W05
        BYTE           N17     En2
        BYTE   W22
        BYTE           BEND    c_v+2
        BYTE   W02
        BYTE           N02     Bn2   v040
        BYTE   W03
        BYTE                   Cn3   v050
        BYTE   W03
        BYTE                   Dn3   v060
        BYTE   W03
        BYTE                   En3   v070
        BYTE   W03
        BYTE           N11     Fn3   v075
        BYTE   W12
        BYTE                   En3   v070
        BYTE   W11
        BYTE           BEND    c_v-64
        BYTE   W01
        BYTE                   c_v+0
        BYTE   W12
        BYTE           N17     Dn3   v075
        BYTE   W19
// 016   ----------------------------------------
        BYTE   W05
        BYTE           N05     Cn3   v070
        BYTE   W11
        BYTE           BEND    c_v+19
        BYTE   W01
        BYTE           N28     Gn2   v075   gtp1
        BYTE           BEND    c_v+22
        BYTE   W01
        BYTE                   c_v+26
        BYTE   W01
        BYTE                   c_v+32
        BYTE   W19
        BYTE                   c_v+24
        BYTE   W01
        BYTE                   c_v+16
        BYTE   W01
        BYTE                   c_v+8
        BYTE   W01
        BYTE                   c_v-8
        BYTE   W01
        BYTE                   c_v-16
        BYTE   W01
        BYTE                   c_v-24
        BYTE   W01
        BYTE                   c_v-40
        BYTE   W01
        BYTE                   c_v-48
        BYTE   W01
        BYTE                   c_v-56
        BYTE   W01
        BYTE                   c_v-64
        BYTE   W15
        BYTE                   c_v+0
        BYTE   W03
        BYTE           N07     An2
        BYTE   W11
        BYTE           BEND    c_v-16
        BYTE   W01
        BYTE           N19     Cn3
        BYTE   W12
        BYTE           BEND    c_v+0
        BYTE   W07
// 017   ----------------------------------------
        BYTE   W03
        BYTE                   c_v+32
        BYTE   W02
        BYTE           N40     Gn2   v075   gtp1
        BYTE   W32
        BYTE   W01
        BYTE           BEND    c_v+24
        BYTE   W01
        BYTE                   c_v+16
        BYTE   W01
        BYTE                   c_v+8
        BYTE   W01
        BYTE                   c_v-8
        BYTE   W01
        BYTE                   c_v-16
        BYTE   W01
        BYTE                   c_v-24
        BYTE   W01
        BYTE                   c_v-40
        BYTE   W01
        BYTE                   c_v-48
        BYTE   W01
        BYTE                   c_v-56
        BYTE   W01
        BYTE                   c_v-64
        BYTE   W17
        BYTE                   c_v-16
        BYTE   W01
        BYTE           N23     An2
        BYTE   W03
        BYTE           BEND    c_v-12
        BYTE   W01
        BYTE                   c_v-8
        BYTE   W01
        BYTE                   c_v-4
        BYTE   W01
        BYTE                   c_v+0
        BYTE   W18
        BYTE           N11     Cn3
        BYTE   W07
// 018   ----------------------------------------
        BYTE   W16
        BYTE           BEND    c_v+16
        BYTE   W01
        BYTE           N32     As2   v075   gtp3
        BYTE   W03
        BYTE           BEND    c_v+20
        BYTE   W01
        BYTE                   c_v+24
        BYTE   W01
        BYTE                   c_v+28
        BYTE   W01
        BYTE                   c_v+32
        BYTE   W17
        BYTE                   c_v+22
        BYTE   W01
        BYTE                   c_v+16
        BYTE   W12
        BYTE           N40     As2   v075   gtp1
        BYTE   W42
        BYTE   W01
// 019   ----------------------------------------
        BYTE   W03
        BYTE           BEND    c_v+2
        BYTE   W02
        BYTE           N02     Cn3   v040
        BYTE   W03
        BYTE                   Dn3   v050
        BYTE   W03
        BYTE                   En3   v060
        BYTE   W03
        BYTE                   Fn3   v070
        BYTE   W03
        BYTE           N11     Gn3   v075
        BYTE   W12
        BYTE                   Fn3   v070
        BYTE   W12
        BYTE                   En3
        BYTE   W12
        BYTE                   Dn3
        BYTE   W24
        BYTE           N23     Fn3   v075
        BYTE   W19
// 020   ----------------------------------------
        BYTE   W05
        BYTE           N05     En3   v070
        BYTE   W10
        BYTE           BEND    c_v+0
        BYTE   W02
        BYTE           N23     An2   v075
        BYTE   W48
        BYTE           N07
        BYTE   W12
        BYTE           N11     Bn2
        BYTE   W12
        BYTE           N06     Cn3
        BYTE   W07
// 021   ----------------------------------------
        BYTE   W04
        BYTE           BEND    c_v+16
        BYTE   W01
        BYTE           N32     Gs2   v075   gtp3
        BYTE   W24
        BYTE   W03
        BYTE           BEND    c_v+4
        BYTE   W01
        BYTE                   c_v-2
        BYTE   W01
        BYTE                   c_v-8
        BYTE   W01
        BYTE                   c_v-20
        BYTE   W01
        BYTE                   c_v-26
        BYTE   W01
        BYTE                   c_v-32
        BYTE   W01
        BYTE                   c_v-43
        BYTE   W01
        BYTE                   c_v-49
        BYTE   W01
        BYTE                   c_v-55
        BYTE   W01
        BYTE                   c_v-64
        BYTE   W18
        BYTE                   c_v+0
        BYTE   W06
        BYTE           N11     An2   v085
        BYTE   W12
        BYTE                   Bn2   v075
        BYTE   W12
        BYTE           N07     Cn3
        BYTE   W07
// 022   ----------------------------------------
        BYTE   W04
        BYTE           BEND    c_v+32
        BYTE   W01
        BYTE           N32     An2   v075   gtp3
        BYTE   W28
        BYTE           BEND    c_v+26
        BYTE   W02
        BYTE                   c_v+21
        BYTE   W01
        BYTE                   c_v+16
        BYTE   W02
        BYTE                   c_v+10
        BYTE   W01
        BYTE                   c_v+5
        BYTE   W02
        BYTE                   c_v+0
        BYTE           N11
        BYTE   W12
        BYTE                   Gn2
        BYTE   W24
        BYTE                   Fn2
        BYTE   W19
// 023   ----------------------------------------
        BYTE   W04
        BYTE           BEND    c_v+16
        BYTE   W01
        BYTE           N17     Ds2
        BYTE   W17
        BYTE           BEND    c_v-64
        BYTE   W01
        BYTE                   c_v+0
        BYTE   W04
        BYTE                   c_v+2
        BYTE   W02
        BYTE           N02     An2   v050
        BYTE   W03
        BYTE                   Bn2   v060
        BYTE   W03
        BYTE                   Cn3   v070
        BYTE   W03
        BYTE                   Dn3   v080
        BYTE   W03
        BYTE           N11     En3   v090
        BYTE   W12
        BYTE           N28     Cn3   v075   gtp1
        BYTE   W36
        BYTE           N11     Dn3   v090
        BYTE   W07
// 024   ----------------------------------------
        BYTE   W05
        BYTE           N05     Bn2   v075
        BYTE   W10
        BYTE           BEND    c_v+0
        BYTE   W02
        BYTE           N23     An2
        BYTE   W48
        BYTE           N07
        BYTE   W12
        BYTE           N11     Bn2
        BYTE   W12
        BYTE           N06     Cn3
        BYTE   W07
// 025   ----------------------------------------
        BYTE   W04
        BYTE           BEND    c_v+16
        BYTE   W01
        BYTE           N32     Gs2   v075   gtp3
        BYTE   W24
        BYTE   W03
        BYTE           BEND    c_v+9
        BYTE   W01
        BYTE                   c_v+2
        BYTE   W01
        BYTE                   c_v-4
        BYTE   W01
        BYTE                   c_v-18
        BYTE   W01
        BYTE                   c_v-24
        BYTE   W01
        BYTE                   c_v-31
        BYTE   W01
        BYTE                   c_v-44
        BYTE   W01
        BYTE                   c_v-51
        BYTE   W01
        BYTE                   c_v-58
        BYTE   W01
        BYTE                   c_v-64
        BYTE   W12
        BYTE                   c_v+0
        BYTE   W12
        BYTE           N23     An2
        BYTE   W24
        BYTE           N11     Cn3
        BYTE   W07
// 026   ----------------------------------------
        BYTE   W16
        BYTE           BEND    c_v+16
        BYTE   W01
        BYTE           N32     As2   v075   gtp3
        BYTE   W03
        BYTE           BEND    c_v+20
        BYTE   W01
        BYTE                   c_v+24
        BYTE   W01
        BYTE                   c_v+28
        BYTE   W01
        BYTE                   c_v+32
        BYTE   W17
        BYTE                   c_v+22
        BYTE   W01
        BYTE                   c_v+16
        BYTE   W12
        BYTE           N56     As2   v075   gtp3
        BYTE   W42
        BYTE   W01
// 027   ----------------------------------------
        BYTE   W08
        BYTE           BEND    c_v+9
        BYTE   W01
        BYTE                   c_v+2
        BYTE   W01
        BYTE                   c_v-5
        BYTE   W01
        BYTE                   c_v-19
        BYTE   W01
        BYTE                   c_v-25
        BYTE   W01
        BYTE                   c_v-32
        BYTE   W01
        BYTE                   c_v-46
        BYTE   W01
        BYTE                   c_v-53
        BYTE   W01
        BYTE                   c_v-59
        BYTE   W01
        BYTE                   c_v-64
        BYTE   W24
        BYTE                   c_v+0
        BYTE   W54
        BYTE   W01
// 028   ----------------------------------------
        BYTE   W15
        BYTE                   c_v+2
        BYTE   W02
        BYTE           N40     An1   v070   gtp1
        BYTE   W48
        BYTE                   En2
        BYTE   W30
        BYTE   W01
// 029   ----------------------------------------
SEQ_BGM_053_0000_10_29:
        BYTE   W17
        BYTE           N52     Dn2   v070   gtp1
        BYTE   W60
        BYTE           N11     Cn2
        BYTE   W12
        BYTE           N05     Bn1
        BYTE   W07
        BYTE   PEND
// 030   ----------------------------------------
        BYTE   W05
        BYTE                   An1
        BYTE   W12
        BYTE           N32     Bn1   v070   gtp3
        BYTE   W36
        BYTE           N28     Gn1   v070   gtp1
        BYTE   W36
        BYTE           N05     Dn2
        BYTE   W07
// 031   ----------------------------------------
        BYTE   W05
        BYTE           N32     Dn2   v070   gtp3
        BYTE   W36
        BYTE           N07     En2
        BYTE   W12
        BYTE           N32     Cn2   v070   gtp3
        BYTE   W36
        BYTE           N05     Bn1
        BYTE   W07
// 032   ----------------------------------------
        BYTE   W05
        BYTE           N52     Cn2   v070   gtp1
        BYTE   W60
        BYTE           N40     En2   v070   gtp1
        BYTE   W30
        BYTE   W01
// 033   ----------------------------------------
        BYTE   PATT
         POIN2  SEQ_BGM_053_0000_10_29
// 034   ----------------------------------------
        BYTE   W05
        BYTE           N05     An1   v070
        BYTE   W12
        BYTE           N64     Gn1   v070   gtp1
        BYTE   W72
        BYTE           N05     Dn2
        BYTE   W07
// 035   ----------------------------------------
        BYTE   W05
        BYTE           N44     Dn2   v070   gtp3
        BYTE   W48
        BYTE           N17     Cs2
        BYTE   W24
        BYTE           N11     Dn2
        BYTE   W12
        BYTE           N05     En2
        BYTE   W07
// 036   ----------------------------------------
        BYTE   W05
        BYTE                   Gn2
        BYTE   W12
        BYTE           N15     Fn2   v085
        BYTE   W16
        BYTE                   An2   v075
        BYTE   W16
        BYTE                   Cn3   v065
        BYTE   W16
        BYTE           N17     Fn3   v045
        BYTE   W30
        BYTE   W01
// 037   ----------------------------------------
        BYTE   W17
        BYTE           N15     Dn2   v085
        BYTE   W16
        BYTE                   Fs2   v075
        BYTE   W16
        BYTE                   An2   v065
        BYTE   W16
        BYTE           N17     Dn3   v045
        BYTE   W30
        BYTE   W01
// 038   ----------------------------------------
        BYTE   W96
// 039   ----------------------------------------
        BYTE   W92
        BYTE   W01
        BYTE           BEND    c_v+0
        BYTE   W03
// 040   ----------------------------------------
SEQ_BGM_053_0000_10_40:
        BYTE   W04
        BYTE           BEND    c_v-16
        BYTE   W01
        BYTE           N44     En3   v102   gtp3
        BYTE   W04
        BYTE           BEND    c_v-12
        BYTE   W02
        BYTE                   c_v-8
        BYTE   W01
        BYTE                   c_v-4
        BYTE   W02
        BYTE                   c_v+0
        BYTE   W36
        BYTE   W03
        BYTE           N56     En3   v092   gtp3
        BYTE   W03
        BYTE           BEND    c_v+4
        BYTE   W01
        BYTE                   c_v+8
        BYTE   W01
        BYTE                   c_v+12
        BYTE   W01
        BYTE                   c_v+16
        BYTE   W30
        BYTE                   c_v+0
        BYTE   W07
        BYTE   PEND
// 041   ----------------------------------------
SEQ_BGM_053_0000_10_41:
        BYTE   W17
        BYTE           N32     Dn3   v072   gtp2
        BYTE   W36
        BYTE                   Ds3   v087
        BYTE   W03
        BYTE           BEND    c_v+4
        BYTE   W01
        BYTE                   c_v+8
        BYTE   W01
        BYTE                   c_v+12
        BYTE   W01
        BYTE                   c_v+16
        BYTE   W18
        BYTE                   c_v-16
        BYTE   W11
        BYTE                   c_v+0
        BYTE   W01
        BYTE           N23     Dn3   v072
        BYTE   W07
        BYTE   PEND
// 042   ----------------------------------------
SEQ_BGM_053_0000_10_42:
        BYTE   W17
        BYTE           N32     Cn3   v067   gtp3
        BYTE   W36
        BYTE           N32     Cs3   v082   gtp2
        BYTE   W03
        BYTE           BEND    c_v+4
        BYTE   W01
        BYTE                   c_v+8
        BYTE   W01
        BYTE                   c_v+12
        BYTE   W01
        BYTE                   c_v+16
        BYTE   W18
        BYTE                   c_v+8
        BYTE   W01
        BYTE                   c_v+0
        BYTE   W01
        BYTE                   c_v-8
        BYTE   W01
        BYTE                   c_v-16
        BYTE   W08
        BYTE                   c_v+0
        BYTE   W01
        BYTE           N23     Cn3   v062
        BYTE   W07
        BYTE   PEND
// 043   ----------------------------------------
SEQ_BGM_053_0000_10_43:
        BYTE   W17
        BYTE           N32     Bn2   v077   gtp3
        BYTE   W03
        BYTE           BEND    c_v+4
        BYTE   W01
        BYTE                   c_v+8
        BYTE   W01
        BYTE                   c_v+12
        BYTE   W01
        BYTE                   c_v+16
        BYTE   W18
        BYTE                   c_v+12
        BYTE   W01
        BYTE                   c_v+8
        BYTE   W01
        BYTE                   c_v+4
        BYTE   W01
        BYTE                   c_v+0
        BYTE   W09
        BYTE           N23     Bn2   v072
        BYTE   W24
        BYTE           N11     Cn3   v062
        BYTE   W12
        BYTE           N07     Dn3   v072
        BYTE   W07
        BYTE   PEND
// 044   ----------------------------------------
        BYTE   W05
        BYTE           N40     En3   v092   gtp1
        BYTE   W44
        BYTE   W03
        BYTE           BEND    c_v+16
        BYTE   W01
        BYTE           N32     Gn3   v087   gtp3
        BYTE   W04
        BYTE           BEND    c_v+20
        BYTE   W02
        BYTE                   c_v+24
        BYTE   W01
        BYTE                   c_v+28
        BYTE   W02
        BYTE                   c_v+32
        BYTE   W21
        BYTE                   c_v+28
        BYTE   W01
        BYTE                   c_v+24
        BYTE   W01
        BYTE                   c_v+20
        BYTE   W01
        BYTE                   c_v+12
        BYTE   W01
        BYTE                   c_v+8
        BYTE   W01
        BYTE                   c_v+4
        BYTE   W01
        BYTE                   c_v+0
        BYTE           N23     En3
        BYTE   W07
// 045   ----------------------------------------
        BYTE   W17
        BYTE           N28     Dn3   v072   gtp1
        BYTE   W32
        BYTE   W03
        BYTE           BEND    c_v+16
        BYTE   W01
        BYTE           N32     Fn3   v077   gtp2
        BYTE   W04
        BYTE           BEND    c_v+20
        BYTE   W02
        BYTE                   c_v+24
        BYTE   W01
        BYTE                   c_v+28
        BYTE   W02
        BYTE                   c_v+32
        BYTE   W15
        BYTE                   c_v+22
        BYTE   W01
        BYTE                   c_v+12
        BYTE   W01
        BYTE                   c_v+2
        BYTE   W01
        BYTE                   c_v-18
        BYTE   W01
        BYTE                   c_v-28
        BYTE   W01
        BYTE                   c_v-38
        BYTE   W01
        BYTE                   c_v-48
        BYTE   W05
        BYTE                   c_v+0
        BYTE   W01
        BYTE           N10     Dn3   v072
        BYTE   W07
// 046   ----------------------------------------
        BYTE   W04
        BYTE           BEND    c_v+32
        BYTE   W01
        BYTE           TIE     As2   v062
        BYTE   W90
        BYTE   W01
// 047   ----------------------------------------
        BYTE   W02
        BYTE           BEND    c_v+26
        BYTE   W01
        BYTE                   c_v+20
        BYTE   W01
        BYTE                   c_v+14
        BYTE   W01
        BYTE                   c_v+2
        BYTE   W01
        BYTE                   c_v-4
        BYTE   W01
        BYTE                   c_v-10
        BYTE   W01
        BYTE                   c_v-22
        BYTE   W01
        BYTE                   c_v-28
        BYTE   W01
        BYTE                   c_v-34
        BYTE   W01
        BYTE                   c_v-46
        BYTE   W01
        BYTE                   c_v-52
        BYTE   W01
        BYTE                   c_v-58
        BYTE   W01
        BYTE           EOT
        BYTE           BEND    c_v-64
        BYTE   W02
        BYTE                   c_v+0
        BYTE   W01
        BYTE           N06     Bn2   v087
        BYTE   W12
        BYTE                   Bn2
        BYTE   W12
        BYTE                   Bn2
        BYTE   W12
        BYTE                   Cn3
        BYTE   W24
        BYTE                   Dn3
        BYTE   W19
// 048   ----------------------------------------
        BYTE   PATT
         POIN2  SEQ_BGM_053_0000_10_40
// 049   ----------------------------------------
        BYTE   PATT
         POIN2  SEQ_BGM_053_0000_10_41
// 050   ----------------------------------------
        BYTE   PATT
         POIN2  SEQ_BGM_053_0000_10_42
// 051   ----------------------------------------
        BYTE   PATT
         POIN2  SEQ_BGM_053_0000_10_43
// 052   ----------------------------------------
        BYTE   W05
        BYTE           N40     En3   v092   gtp1
        BYTE   W48
        BYTE           N32     An3   v087   gtp1
        BYTE   W32
        BYTE   W03
        BYTE           BEND    c_v+16
        BYTE   W01
        BYTE           N56     As3   v087   gtp1
        BYTE   W04
        BYTE           BEND    c_v+21
        BYTE   W02
        BYTE                   c_v+27
        BYTE   W01
// 053   ----------------------------------------
        BYTE                   c_v+32
        BYTE   W17
        BYTE                   c_v+16
        BYTE   W21
        BYTE                   c_v+9
        BYTE   W01
        BYTE                   c_v+2
        BYTE   W01
        BYTE                   c_v-4
        BYTE   W01
        BYTE                   c_v-18
        BYTE   W01
        BYTE                   c_v-24
        BYTE   W01
        BYTE                   c_v-31
        BYTE   W01
        BYTE                   c_v-44
        BYTE   W01
        BYTE                   c_v-51
        BYTE   W01
        BYTE                   c_v-58
        BYTE   W01
        BYTE                   c_v-64
        BYTE   W05
        BYTE                   c_v+16
        BYTE   W01
        BYTE           N32     Fs3   v077   gtp3
        BYTE   W24
        BYTE           BEND    c_v+10
        BYTE   W01
        BYTE                   c_v+4
        BYTE   W01
        BYTE                   c_v-2
        BYTE   W01
        BYTE                   c_v-14
        BYTE   W01
        BYTE                   c_v-20
        BYTE   W01
        BYTE                   c_v-26
        BYTE   W01
        BYTE                   c_v-32
        BYTE   W06
        BYTE           N07     Fs3   v087
        BYTE   W07
// 054   ----------------------------------------
        BYTE   W04
        BYTE           BEND    c_v+0
        BYTE   W01
        BYTE           TIE     Gs3   v072
        BYTE   W03
        BYTE           BEND    c_v+4
        BYTE   W01
        BYTE                   c_v+8
        BYTE   W01
        BYTE                   c_v+12
        BYTE   W01
        BYTE                   c_v+16
        BYTE   W84
        BYTE   W01
// 055   ----------------------------------------
        BYTE   W05
        BYTE                   c_v+11
        BYTE   W01
        BYTE                   c_v+6
        BYTE   W01
        BYTE                   c_v+1
        BYTE   W01
        BYTE                   c_v-9
        BYTE   W01
        BYTE                   c_v-14
        BYTE   W01
        BYTE                   c_v-19
        BYTE   W01
        BYTE                   c_v-29
        BYTE   W01
        BYTE                   c_v-34
        BYTE   W01
        BYTE                   c_v-39
        BYTE   W01
        BYTE                   c_v-49
        BYTE   W01
        BYTE                   c_v-54
        BYTE   W01
        BYTE           EOT
        BYTE           BEND    c_v-59
        BYTE   W01
        BYTE                   c_v-64
        BYTE   W18
        BYTE                   c_v+0
        BYTE   W06
        BYTE           N05     Dn3
        BYTE   W12
        BYTE                   Dn3
        BYTE   W12
        BYTE           N11     Cn3
        BYTE   W18
        BYTE                   Bn2
        BYTE   W13
// 056   ----------------------------------------
        BYTE   W04
        BYTE           BEND    c_v+48
        BYTE   W01
        BYTE           TIE     Fs2   v057
        BYTE   W90
        BYTE   W01
// 057   ----------------------------------------
        BYTE   W96
// 058   ----------------------------------------
        BYTE   W02
        BYTE           BEND    c_v+42
        BYTE   W01
        BYTE                   c_v+36
        BYTE   W01
        BYTE                   c_v+31
        BYTE   W01
        BYTE                   c_v+20
        BYTE   W01
        BYTE                   c_v+14
        BYTE   W01
        BYTE                   c_v+8
        BYTE   W01
        BYTE                   c_v-3
        BYTE   W01
        BYTE                   c_v-8
        BYTE   W01
        BYTE                   c_v-14
        BYTE   W01
        BYTE                   c_v-25
        BYTE   W01
        BYTE                   c_v-31
        BYTE   W01
        BYTE                   c_v-36
        BYTE   W01
        BYTE                   c_v-48
        BYTE   W01
        BYTE                   c_v-53
        BYTE   W01
        BYTE           EOT
        BYTE           BEND    c_v-59
        BYTE   W01
        BYTE                   c_v-64
        BYTE   W48
        BYTE                   c_v+0
        BYTE   W30
        BYTE   W01
// 059   ----------------------------------------
        BYTE   W96
// 060   ----------------------------------------
        BYTE   W96
// 061   ----------------------------------------
        BYTE   W96
// 062   ----------------------------------------
        BYTE   W96
// 063   ----------------------------------------
        BYTE   W96
// 064   ----------------------------------------
        BYTE   W96
// 065   ----------------------------------------
        BYTE   W96
// 066   ----------------------------------------
        BYTE   W96
// 067   ----------------------------------------
        BYTE   W84
        BYTE           BENDR   2
        BYTE   GoTo
         POIN2  SEQ_BGM_053_0000_10_LOOP
        BYTE   W12
// 068   ----------------------------------------
        BYTE   W04
        BYTE   FINE

//***************** Track 11 (Midi-Chn.12) *****************//

SEQ_BGM_053_0000_11:
        BYTE   KEYSH   SEQ_BGM_053_0000_key+0
// 000   ----------------------------------------
        BYTE           VOICE   97
        BYTE           PAN     c_v-33
        BYTE           VOL     14
        BYTE           BEND    c_v+2
        BYTE   W17
        BYTE           N32     An3   v102   gtp3
        BYTE   W78
        BYTE   W01
// 001   ----------------------------------------
        BYTE   W88
        BYTE   W01
        BYTE           N11
        BYTE   W07
// 002   ----------------------------------------
        BYTE   W05
        BYTE           N32     An3   v102   gtp3
        BYTE   W90
        BYTE   W01
// 003   ----------------------------------------
        BYTE   W84
SEQ_BGM_053_0000_11_LOOP:
        BYTE   W12
// 004   ----------------------------------------
        BYTE   W28
        BYTE   W01
        BYTE           N10     An3   v102
        BYTE   W12
        BYTE                   An3
        BYTE   W24
        BYTE                   An3
        BYTE   W12
        BYTE                   An3
        BYTE   W19
// 005   ----------------------------------------
        BYTE   W05
        BYTE                   An3
        BYTE   W12
        BYTE                   An3
        BYTE   W24
        BYTE                   An3
        BYTE   W12
        BYTE                   An3
        BYTE   W24
        BYTE                   An3
        BYTE   W12
        BYTE                   An3
        BYTE   W07
// 006   ----------------------------------------
        BYTE   W17
        BYTE                   An3
        BYTE   W12
        BYTE                   An3
        BYTE   W24
        BYTE                   An3
        BYTE   W12
        BYTE                   An3
        BYTE   W24
        BYTE                   An3
        BYTE   W07
// 007   ----------------------------------------
        BYTE   W05
        BYTE                   An3
        BYTE   W12
        BYTE           N32     En4   v102   gtp3
        BYTE   W36
        BYTE                   En4
        BYTE   W36
        BYTE           N23
        BYTE   W07
// 008   ----------------------------------------
        BYTE   W96
// 009   ----------------------------------------
        BYTE   W96
// 010   ----------------------------------------
        BYTE   W96
// 011   ----------------------------------------
        BYTE   W96
// 012   ----------------------------------------
        BYTE   W96
// 013   ----------------------------------------
        BYTE   W96
// 014   ----------------------------------------
        BYTE   W96
// 015   ----------------------------------------
        BYTE   W96
// 016   ----------------------------------------
        BYTE   W96
// 017   ----------------------------------------
        BYTE   W96
// 018   ----------------------------------------
        BYTE   W96
// 019   ----------------------------------------
        BYTE   W96
// 020   ----------------------------------------
SEQ_BGM_053_0000_11_20:
        BYTE   W40
        BYTE   W01
        BYTE           N23     An3   v102
        BYTE   W54
        BYTE   W01
        BYTE   PEND
// 021   ----------------------------------------
        BYTE   PATT
         POIN2  SEQ_BGM_053_0000_11_20
// 022   ----------------------------------------
        BYTE   W96
// 023   ----------------------------------------
        BYTE   W96
// 024   ----------------------------------------
        BYTE   PATT
         POIN2  SEQ_BGM_053_0000_11_20
// 025   ----------------------------------------
        BYTE   PATT
         POIN2  SEQ_BGM_053_0000_11_20
// 026   ----------------------------------------
        BYTE   W96
// 027   ----------------------------------------
        BYTE   W17
        BYTE           N11     Gs3   v102
        BYTE   W12
        BYTE                   An3
        BYTE   W24
        BYTE                   Bn3
        BYTE   W24
        BYTE                   Dn4
        BYTE   W19
// 028   ----------------------------------------
        BYTE   W05
        BYTE           N10     Cn4
        BYTE   W12
        BYTE           N40     An2   v102   gtp1
        BYTE   W42
        BYTE           N02     Cn3
        BYTE   W03
        BYTE                   Dn3
        BYTE   W03
        BYTE           N44     En3
        BYTE   W30
        BYTE   W01
// 029   ----------------------------------------
        BYTE   W14
        BYTE           N02     Ds3
        BYTE   W03
        BYTE           N52     Dn3   v102   gtp1
        BYTE   W60
        BYTE           N11     Cn3
        BYTE   W12
        BYTE           N07     Bn2
        BYTE   W07
// 030   ----------------------------------------
        BYTE   W05
        BYTE                   An2
        BYTE   W12
        BYTE           N28     Bn2   v102   gtp1
        BYTE   W30
        BYTE           N02     As2
        BYTE   W03
        BYTE                   Gs2
        BYTE   W03
        BYTE           N30     Gn2
        BYTE   W36
        BYTE           N07     Dn3
        BYTE   W07
// 031   ----------------------------------------
        BYTE   W05
        BYTE           N32
        BYTE   W32
        BYTE   W01
        BYTE           N02     Ds3
        BYTE   W03
        BYTE           N07     En3
        BYTE   W12
        BYTE           N32     Cn3   v102   gtp3
        BYTE   W36
        BYTE           N07     Bn2
        BYTE   W07
// 032   ----------------------------------------
        BYTE   W05
        BYTE           N52     Cn3   v102   gtp1
        BYTE   W54
        BYTE           N02     Cs3
        BYTE   W03
        BYTE                   Dn3
        BYTE   W03
        BYTE           N44     En3
        BYTE   W30
        BYTE   W01
// 033   ----------------------------------------
        BYTE   W14
        BYTE           N02     Ds3
        BYTE   W03
        BYTE           N54     Dn3   v102   gtp1
        BYTE   W60
        BYTE           N11     Cn3
        BYTE   W12
        BYTE           N07     Bn2
        BYTE   W07
// 034   ----------------------------------------
        BYTE   W05
        BYTE                   An2
        BYTE   W12
        BYTE           N56     Gn2   v102   gtp3
        BYTE   W68
        BYTE   W01
        BYTE           N02     Cn3
        BYTE   W03
        BYTE           N07     Dn3
        BYTE   W07
// 035   ----------------------------------------
        BYTE   W05
        BYTE           N44     Dn3   v102   gtp3
        BYTE   W48
        BYTE           N22     Cs3
        BYTE   W24
        BYTE           N11     Dn3
        BYTE   W12
        BYTE           N07     En3
        BYTE   W07
// 036   ----------------------------------------
        BYTE   W05
        BYTE                   Gn3
        BYTE   W21
        BYTE           N02     Fn3
        BYTE   W03
        BYTE           N11     Gn3
        BYTE   W12
        BYTE           N07     Fn3
        BYTE   W12
        BYTE                   En3
        BYTE   W12
        BYTE           N11     Dn3
        BYTE   W12
        BYTE           N07     Cn3
        BYTE   W12
        BYTE                   En3
        BYTE   W07
// 037   ----------------------------------------
        BYTE   W05
        BYTE           N52     Dn3   v102   gtp1
        BYTE   W60
        BYTE           N05
        BYTE   W06
        BYTE                   En3
        BYTE   W06
        BYTE           N07     Cn3
        BYTE   W12
        BYTE                   En3
        BYTE   W07
// 038   ----------------------------------------
        BYTE   W05
        BYTE           N40     Dn3   v102   gtp1
        BYTE   W42
        BYTE           N02     Bn2
        BYTE   W03
        BYTE                   An2
        BYTE   W03
        BYTE           N32     Gn2   v102   gtp2
        BYTE   W32
        BYTE   W03
        BYTE           N03     Gn3
        BYTE   W04
        BYTE                   An3
        BYTE   W04
// 039   ----------------------------------------
        BYTE                   Bn3
        BYTE   W04
        BYTE                   Cn3
        BYTE   W04
        BYTE                   Dn3
        BYTE   W04
        BYTE           N04     En3
        BYTE   W05
        BYTE           N11     Fn3
        BYTE   W12
        BYTE                   Fn3
        BYTE   W12
        BYTE                   Fn3
        BYTE   W12
        BYTE           N23     En3
        BYTE   W24
        BYTE                   Dn3
        BYTE   W19
// 040   ----------------------------------------
        BYTE   W05
        BYTE           N11     En3
        BYTE   W90
        BYTE   W01
// 041   ----------------------------------------
        BYTE   W96
// 042   ----------------------------------------
        BYTE   W96
// 043   ----------------------------------------
        BYTE   W96
// 044   ----------------------------------------
        BYTE   W96
// 045   ----------------------------------------
        BYTE   W96
// 046   ----------------------------------------
        BYTE   W96
// 047   ----------------------------------------
        BYTE   W17
        BYTE                   Bn3
        BYTE   W12
        BYTE                   Bn3
        BYTE   W12
        BYTE                   Bn3
        BYTE   W12
        BYTE           N23     Cn3
        BYTE   W24
        BYTE                   Dn3
        BYTE   W19
// 048   ----------------------------------------
        BYTE   W05
        BYTE           N32     Cn2   v102   gtp3
        BYTE           N23     En3
        BYTE   W36
        BYTE           N11     An3
        BYTE   W12
        BYTE           N28     Dn3   v102   gtp1
        BYTE   W36
        BYTE           N17     Cn4
        BYTE   W07
// 049   ----------------------------------------
        BYTE   W17
        BYTE           N23     Bn3
        BYTE   W24
        BYTE           N11     Gn3
        BYTE   W12
        BYTE           N28     Cn4   v102   gtp1
        BYTE   W36
        BYTE           N17     Bn3
        BYTE   W07
// 050   ----------------------------------------
        BYTE   W17
        BYTE           N23     An3
        BYTE   W24
        BYTE           N11
        BYTE   W12
        BYTE           N28     Bn3   v102   gtp1
        BYTE   W36
        BYTE           N17     An3
        BYTE   W07
// 051   ----------------------------------------
        BYTE   W17
        BYTE           N28     An3   v102   gtp1
        BYTE   W36
        BYTE           N17     Gs3
        BYTE   W24
        BYTE           N11     An3
        BYTE   W12
        BYTE                   Bn3
        BYTE   W07
// 052   ----------------------------------------
        BYTE   W05
        BYTE           N32     Cn4   v102   gtp3
        BYTE   W36
        BYTE           N11     An3
        BYTE   W12
        BYTE           N28     Cn3   v102   gtp1
        BYTE   W36
        BYTE           N17     En3
        BYTE   W07
// 053   ----------------------------------------
        BYTE   W17
        BYTE           N23     Dn3
        BYTE   W24
        BYTE           N11     Gn3
        BYTE   W12
        BYTE           N28     Bn2   v102   gtp1
        BYTE   W36
        BYTE           N11     Gn2
        BYTE   W07
// 054   ----------------------------------------
        BYTE   W88
        BYTE   W01
        BYTE           N05     Bn3
        BYTE   W06
        BYTE                   Cn4
        BYTE   W01
// 055   ----------------------------------------
        BYTE   W05
        BYTE                   Dn4
        BYTE   W06
        BYTE                   Ds4
        BYTE   W06
        BYTE           N17     En4
        BYTE   W19
        BYTE           N28     En3   v102   gtp1
        BYTE   W60
// 056   ----------------------------------------
        BYTE   W96
// 057   ----------------------------------------
        BYTE   W96
// 058   ----------------------------------------
        BYTE   W96
// 059   ----------------------------------------
        BYTE   W96
// 060   ----------------------------------------
        BYTE   W96
// 061   ----------------------------------------
        BYTE   W96
// 062   ----------------------------------------
        BYTE   W96
// 063   ----------------------------------------
        BYTE   W96
// 064   ----------------------------------------
        BYTE   W17
        BYTE           N23     An3
        BYTE   W78
        BYTE   W01
// 065   ----------------------------------------
        BYTE   W96
// 066   ----------------------------------------
        BYTE   W96
// 067   ----------------------------------------
        BYTE   W84
        BYTE   GoTo
         POIN2  SEQ_BGM_053_0000_11_LOOP
        BYTE   W12
// 068   ----------------------------------------
        BYTE   W04
        BYTE   FINE

//***************** Track 12 (Midi-Chn.13) *****************//

SEQ_BGM_053_0000_12:
        BYTE   KEYSH   SEQ_BGM_053_0000_key+0
// 000   ----------------------------------------
        BYTE           VOICE   100
        BYTE           VOL     21
        BYTE           BEND    c_v+2
        BYTE   W96
// 001   ----------------------------------------
        BYTE   W96
// 002   ----------------------------------------
        BYTE   W96
// 003   ----------------------------------------
        BYTE   W84
SEQ_BGM_053_0000_12_LOOP:
        BYTE   W12
// 004   ----------------------------------------
        BYTE   W96
// 005   ----------------------------------------
        BYTE   W96
// 006   ----------------------------------------
        BYTE   W96
// 007   ----------------------------------------
        BYTE   W96
// 008   ----------------------------------------
        BYTE   W88
        BYTE   W01
        BYTE           N11     En4   v050
        BYTE   W07
// 009   ----------------------------------------
        BYTE   W05
        BYTE           N68     Dn4   v040   gtp3
        BYTE   W90
        BYTE   W01
// 010   ----------------------------------------
        BYTE   W88
        BYTE   W01
        BYTE           N11     En4   v090
        BYTE   W07
// 011   ----------------------------------------
        BYTE   W05
        BYTE           N68     Dn4   v080   gtp3
        BYTE   W90
        BYTE   W01
// 012   ----------------------------------------
        BYTE   W96
// 013   ----------------------------------------
        BYTE   W96
// 014   ----------------------------------------
        BYTE   W96
// 015   ----------------------------------------
        BYTE   W05
        BYTE           N17     Gn4
        BYTE   W24
        BYTE           N11     Cn4
        BYTE   W12
        BYTE                   Dn4
        BYTE   W12
        BYTE           N05     Gn4
        BYTE   W24
        BYTE           N11     Cn4
        BYTE   W12
        BYTE                   Dn4
        BYTE   W07
// 016   ----------------------------------------
        BYTE   W05
        BYTE                   Gn4
        BYTE   W90
        BYTE   W01
// 017   ----------------------------------------
        BYTE   W96
// 018   ----------------------------------------
        BYTE   W96
// 019   ----------------------------------------
        BYTE   W96
// 020   ----------------------------------------
        BYTE   W96
// 021   ----------------------------------------
        BYTE   W96
// 022   ----------------------------------------
        BYTE   W96
// 023   ----------------------------------------
        BYTE   W96
// 024   ----------------------------------------
        BYTE   W96
// 025   ----------------------------------------
        BYTE   W96
// 026   ----------------------------------------
        BYTE   W17
        BYTE           N32     Cn4   v080   gtp3
        BYTE   W36
        BYTE           N44     Bn3   v080   gtp3
        BYTE   W42
        BYTE   W01
// 027   ----------------------------------------
        BYTE   W96
// 028   ----------------------------------------
        BYTE   W96
// 029   ----------------------------------------
        BYTE   W96
// 030   ----------------------------------------
        BYTE   W96
// 031   ----------------------------------------
        BYTE   W96
// 032   ----------------------------------------
        BYTE   W96
// 033   ----------------------------------------
        BYTE   W96
// 034   ----------------------------------------
        BYTE   W96
// 035   ----------------------------------------
        BYTE   W96
// 036   ----------------------------------------
        BYTE   W28
        BYTE   W01
        BYTE           N11     Gn4   v085
        BYTE   W12
        BYTE                   Fn4
        BYTE   W12
        BYTE                   En4
        BYTE   W12
        BYTE                   Dn4
        BYTE   W12
        BYTE                   Cn4
        BYTE   W12
        BYTE                   En4
        BYTE   W07
// 037   ----------------------------------------
        BYTE   W05
        BYTE           N56     Dn4   v085   gtp3
        BYTE   W60
        BYTE           N05
        BYTE   W06
        BYTE                   En4
        BYTE   W06
        BYTE           N11     Cn4
        BYTE   W12
        BYTE                   En4
        BYTE   W07
// 038   ----------------------------------------
        BYTE   W05
        BYTE           N44     Dn4   v085   gtp3
        BYTE   W48
        BYTE           N23     Gn3
        BYTE   W42
        BYTE   W01
// 039   ----------------------------------------
        BYTE   W96
// 040   ----------------------------------------
        BYTE   W96
// 041   ----------------------------------------
        BYTE   W96
// 042   ----------------------------------------
        BYTE   W96
// 043   ----------------------------------------
        BYTE   W96
// 044   ----------------------------------------
        BYTE   W96
// 045   ----------------------------------------
        BYTE   W96
// 046   ----------------------------------------
        BYTE   W96
// 047   ----------------------------------------
        BYTE   W96
// 048   ----------------------------------------
        BYTE   W96
// 049   ----------------------------------------
        BYTE   W96
// 050   ----------------------------------------
        BYTE   W96
// 051   ----------------------------------------
        BYTE   W96
// 052   ----------------------------------------
        BYTE   W96
// 053   ----------------------------------------
        BYTE   W96
// 054   ----------------------------------------
        BYTE   W96
// 055   ----------------------------------------
        BYTE   W96
// 056   ----------------------------------------
        BYTE   W96
// 057   ----------------------------------------
        BYTE   W96
// 058   ----------------------------------------
        BYTE   W96
// 059   ----------------------------------------
        BYTE   W96
// 060   ----------------------------------------
        BYTE   W96
// 061   ----------------------------------------
        BYTE   W96
// 062   ----------------------------------------
        BYTE   W96
// 063   ----------------------------------------
        BYTE   W96
// 064   ----------------------------------------
        BYTE   W96
// 065   ----------------------------------------
        BYTE   W96
// 066   ----------------------------------------
        BYTE   W96
// 067   ----------------------------------------
        BYTE   W84
        BYTE   GoTo
         POIN2  SEQ_BGM_053_0000_12_LOOP
        BYTE   W12
// 068   ----------------------------------------
        BYTE   W04
        BYTE   FINE

//***************** Track 13 (Midi-Chn.14) *****************//

SEQ_BGM_053_0000_13:
        BYTE   KEYSH   SEQ_BGM_053_0000_key+0
// 000   ----------------------------------------
        BYTE           VOICE   27
        BYTE           PAN     c_v-11
        BYTE           VOL     21
        BYTE           BEND    c_v+2
        BYTE   W17
        BYTE           N12     En3   v082
        BYTE   W12
        BYTE           N11     An1   v080
        BYTE   W12
        BYTE                   An1
        BYTE   W12
        BYTE                   Fn3   v082
        BYTE   W12
        BYTE                   An1   v080
        BYTE   W12
        BYTE                   An1
        BYTE   W12
        BYTE                   En3   v082
        BYTE   W07
// 001   ----------------------------------------
SEQ_BGM_053_0000_13_1:
        BYTE   W05
        BYTE           N11     An1   v080
        BYTE   W12
        BYTE                   Dn3   v082
        BYTE   W12
        BYTE                   Gn1   v080
        BYTE   W12
        BYTE                   Gn1
        BYTE   W12
        BYTE                   En3   v082
        BYTE   W12
        BYTE                   Gn1   v080
        BYTE   W12
        BYTE                   Gn1
        BYTE   W12
        BYTE                   Dn3   v082
        BYTE   W07
        BYTE   PEND
// 002   ----------------------------------------
SEQ_BGM_053_0000_13_2:
        BYTE   W05
        BYTE           N11     Gn1   v080
        BYTE   W12
        BYTE                   Cn3   v082
        BYTE   W12
        BYTE                   Fn1   v080
        BYTE   W12
        BYTE                   Fn1
        BYTE   W12
        BYTE                   Dn3   v082
        BYTE   W12
        BYTE                   Fn1   v080
        BYTE   W12
        BYTE                   Fn1
        BYTE   W12
        BYTE                   Cn3   v082
        BYTE   W07
        BYTE   PEND
// 003   ----------------------------------------
        BYTE   W05
        BYTE                   Fn1   v080
        BYTE   W12
        BYTE                   Cn3   v082
        BYTE   W12
        BYTE                   En1   v080
        BYTE   W12
        BYTE                   En1
        BYTE   W12
        BYTE                   Bn2   v082
        BYTE   W12
        BYTE                   En1   v080
        BYTE   W12
        BYTE                   En1
        BYTE   W07
SEQ_BGM_053_0000_13_LOOP:
        BYTE   W05
        BYTE           N11     Cn3   v082
        BYTE   W07
// 004   ----------------------------------------
        BYTE   W05
        BYTE                   Dn3
        BYTE   W12
        BYTE                   En3
        BYTE   W12
        BYTE                   An1   v080
        BYTE   W12
        BYTE                   An1
        BYTE   W12
        BYTE                   Fn3   v082
        BYTE   W12
        BYTE                   An1   v080
        BYTE   W12
        BYTE                   An1
        BYTE   W12
        BYTE                   En3   v082
        BYTE   W07
// 005   ----------------------------------------
        BYTE   PATT
         POIN2  SEQ_BGM_053_0000_13_1
// 006   ----------------------------------------
        BYTE   PATT
         POIN2  SEQ_BGM_053_0000_13_2
// 007   ----------------------------------------
        BYTE   W05
        BYTE           N11     Fn1   v080
        BYTE   W12
        BYTE                   Bn2   v082
        BYTE   W12
        BYTE                   En1   v080
        BYTE   W12
        BYTE                   En1
        BYTE   W12
        BYTE                   Bn2   v082
        BYTE   W12
        BYTE                   En1   v080
        BYTE   W12
        BYTE                   En1
        BYTE   W12
        BYTE                   Bn2   v082
        BYTE   W07
// 008   ----------------------------------------
        BYTE   W06
        BYTE           VOICE   30
        BYTE   W11
        BYTE           N11     An1   v087
        BYTE   W12
        BYTE           N03     An3   v095
        BYTE   W06
        BYTE           N11     En2   v087
        BYTE   W12
        BYTE           N03     En4   v095
        BYTE   W06
        BYTE           TIE     An2   v077
        BYTE   W17
        BYTE           MOD     2
        BYTE   W02
        BYTE                   3
        BYTE   W02
        BYTE                   5
        BYTE   W02
        BYTE                   6
        BYTE   W03
        BYTE                   8
        BYTE   W02
        BYTE                   9
        BYTE   W02
        BYTE                   11
        BYTE   W03
        BYTE                   12
        BYTE   W02
        BYTE                   14
        BYTE   W02
        BYTE                   15
        BYTE   W02
        BYTE                   17
        BYTE   W03
        BYTE                   18
        BYTE   W01
// 009   ----------------------------------------
        BYTE   W01
        BYTE                   20
        BYTE   W02
        BYTE                   21
        BYTE   W02
        BYTE                   23
        BYTE   W03
        BYTE                   24
        BYTE   W02
        BYTE                   26
        BYTE   W02
        BYTE                   27
        BYTE   W02
        BYTE                   29
        BYTE   W03
        BYTE                   30
        BYTE   W02
        BYTE                   32
        BYTE   W02
        BYTE                   33
        BYTE   W03
        BYTE                   35
        BYTE   W02
        BYTE                   36
        BYTE   W02
        BYTE                   38
        BYTE   W02
        BYTE                   39
        BYTE   W03
        BYTE                   41
        BYTE   W02
        BYTE                   42
        BYTE   W02
        BYTE                   44
        BYTE   W02
        BYTE                   45
        BYTE   W19
        BYTE           EOT
        BYTE   W06
        BYTE           MOD     0
        BYTE   W01
        BYTE           N05     Dn2   v097
        BYTE   W06
        BYTE                   En2
        BYTE   W12
        BYTE                   Dn2
        BYTE   W12
        BYTE                   Cn2
        BYTE   W01
// 010   ----------------------------------------
        BYTE   W05
        BYTE           N11     En2   v087
        BYTE   W12
        BYTE                   An1
        BYTE   W12
        BYTE           N03     An3   v095
        BYTE   W06
        BYTE           N11     En2   v087
        BYTE   W12
        BYTE           N03     En4   v095
        BYTE   W06
        BYTE           TIE     An2   v077
        BYTE   W17
        BYTE           MOD     2
        BYTE   W02
        BYTE                   3
        BYTE   W02
        BYTE                   5
        BYTE   W02
        BYTE                   6
        BYTE   W03
        BYTE                   8
        BYTE   W02
        BYTE                   9
        BYTE   W02
        BYTE                   11
        BYTE   W03
        BYTE                   12
        BYTE   W02
        BYTE                   14
        BYTE   W02
        BYTE                   15
        BYTE   W02
        BYTE                   17
        BYTE   W03
        BYTE                   18
        BYTE   W01
// 011   ----------------------------------------
        BYTE   W01
        BYTE                   20
        BYTE   W02
        BYTE                   21
        BYTE   W02
        BYTE                   23
        BYTE   W03
        BYTE                   24
        BYTE   W02
        BYTE                   26
        BYTE   W02
        BYTE                   27
        BYTE   W02
        BYTE                   29
        BYTE   W03
        BYTE                   30
        BYTE   W02
        BYTE                   32
        BYTE   W02
        BYTE                   33
        BYTE   W03
        BYTE                   35
        BYTE   W02
        BYTE                   36
        BYTE   W02
        BYTE                   38
        BYTE   W02
        BYTE                   39
        BYTE   W03
        BYTE                   41
        BYTE   W02
        BYTE                   42
        BYTE   W02
        BYTE                   44
        BYTE   W02
        BYTE                   45
        BYTE   W19
        BYTE           EOT
        BYTE   W06
        BYTE           MOD     0
        BYTE   W32
// 012   ----------------------------------------
        BYTE   W96
// 013   ----------------------------------------
        BYTE   W96
// 014   ----------------------------------------
        BYTE   W96
// 015   ----------------------------------------
        BYTE   W96
// 016   ----------------------------------------
        BYTE   W96
// 017   ----------------------------------------
        BYTE   W96
// 018   ----------------------------------------
        BYTE   W96
// 019   ----------------------------------------
        BYTE   W96
// 020   ----------------------------------------
        BYTE           VOICE   27
        BYTE   W17
        BYTE           N11     An3   v035
        BYTE   W12
        BYTE           N04     An2
        BYTE   W12
        BYTE                   An2
        BYTE   W12
        BYTE           N11     An3
        BYTE   W12
        BYTE           N04     An2
        BYTE   W12
        BYTE                   An2
        BYTE   W12
        BYTE           N11     An3
        BYTE   W07
// 021   ----------------------------------------
SEQ_BGM_053_0000_13_21:
        BYTE   W05
        BYTE           N04     An2   v035
        BYTE   W12
        BYTE           N11     An3
        BYTE   W12
        BYTE           N04     An2
        BYTE   W12
        BYTE                   An2
        BYTE   W12
        BYTE           N11     An3
        BYTE   W12
        BYTE           N04     An2
        BYTE   W12
        BYTE                   An2
        BYTE   W12
        BYTE           N11     An3
        BYTE   W07
        BYTE   PEND
// 022   ----------------------------------------
        BYTE   W05
        BYTE           N04     An2
        BYTE   W12
        BYTE           N11     Gn3
        BYTE   W12
        BYTE           N04     Gn2
        BYTE   W12
        BYTE                   Gn2
        BYTE   W12
        BYTE           N11     Gn3
        BYTE   W12
        BYTE           N04     Gn2
        BYTE   W12
        BYTE                   Gn2
        BYTE   W12
        BYTE           N11     Gn3
        BYTE   W07
// 023   ----------------------------------------
        BYTE   W05
        BYTE           N04     Gn2
        BYTE   W12
        BYTE           N11     Gn3
        BYTE   W12
        BYTE           N04     Gn2
        BYTE   W12
        BYTE                   Gn2
        BYTE   W12
        BYTE           N11     Gn3
        BYTE   W12
        BYTE           N04     Gn2
        BYTE   W12
        BYTE                   Gn2
        BYTE   W12
        BYTE           N11     Gn3
        BYTE   W07
// 024   ----------------------------------------
        BYTE   W05
        BYTE           N04     Gn2
        BYTE   W12
        BYTE           N11     An3
        BYTE   W12
        BYTE           N04     An2
        BYTE   W12
        BYTE                   An2
        BYTE   W12
        BYTE           N11     An3
        BYTE   W12
        BYTE           N04     An2
        BYTE   W12
        BYTE                   An2
        BYTE   W12
        BYTE           N11     An3
        BYTE   W07
// 025   ----------------------------------------
        BYTE   PATT
         POIN2  SEQ_BGM_053_0000_13_21
// 026   ----------------------------------------
        BYTE   W05
        BYTE           N04     An2   v035
        BYTE   W90
        BYTE   W01
// 027   ----------------------------------------
        BYTE   W96
// 028   ----------------------------------------
        BYTE   W96
// 029   ----------------------------------------
        BYTE   W96
// 030   ----------------------------------------
        BYTE   W96
// 031   ----------------------------------------
        BYTE   W96
// 032   ----------------------------------------
        BYTE   W96
// 033   ----------------------------------------
        BYTE   W96
// 034   ----------------------------------------
        BYTE   W96
// 035   ----------------------------------------
        BYTE   W96
// 036   ----------------------------------------
        BYTE   W96
// 037   ----------------------------------------
        BYTE   W96
// 038   ----------------------------------------
        BYTE   W96
// 039   ----------------------------------------
        BYTE   W96
// 040   ----------------------------------------
        BYTE   W28
        BYTE   W01
        BYTE           N05     En3   v030
        BYTE   W12
        BYTE                   Cn4
        BYTE   W12
        BYTE                   En3
        BYTE   W12
        BYTE                   An3
        BYTE   W12
        BYTE                   En3
        BYTE   W12
        BYTE                   Cn4
        BYTE   W07
// 041   ----------------------------------------
SEQ_BGM_053_0000_13_41:
        BYTE   W05
        BYTE           N05     En3   v030
        BYTE   W12
        BYTE                   Gn3
        BYTE   W12
        BYTE                   Dn3
        BYTE   W12
        BYTE                   Bn3
        BYTE   W12
        BYTE                   Dn3
        BYTE   W12
        BYTE                   Gn3
        BYTE   W12
        BYTE                   Dn3
        BYTE   W12
        BYTE                   Bn3
        BYTE   W07
        BYTE   PEND
// 042   ----------------------------------------
        BYTE   W05
        BYTE                   Dn3
        BYTE   W12
        BYTE                   Fn3
        BYTE   W12
        BYTE                   Cn3
        BYTE   W12
        BYTE                   An3
        BYTE   W12
        BYTE                   Cn3
        BYTE   W12
        BYTE                   Fn3
        BYTE   W12
        BYTE                   Cn3
        BYTE   W12
        BYTE                   An3
        BYTE   W07
// 043   ----------------------------------------
        BYTE   W05
        BYTE                   Cn3
        BYTE   W12
        BYTE                   En3
        BYTE   W12
        BYTE                   Bn2
        BYTE   W12
        BYTE                   En3
        BYTE   W12
        BYTE                   Gs3
        BYTE   W12
        BYTE                   En3
        BYTE   W12
        BYTE                   Gs3
        BYTE   W12
        BYTE                   Bn3
        BYTE   W07
// 044   ----------------------------------------
        BYTE   W05
        BYTE           N17     An3
        BYTE   W24
        BYTE           N05     En3
        BYTE   W12
        BYTE                   Cn4
        BYTE   W12
        BYTE                   En3
        BYTE   W12
        BYTE                   An3
        BYTE   W12
        BYTE                   En3
        BYTE   W12
        BYTE                   Cn4
        BYTE   W07
// 045   ----------------------------------------
        BYTE   PATT
         POIN2  SEQ_BGM_053_0000_13_41
// 046   ----------------------------------------
        BYTE   W05
        BYTE           N17     Fn3   v030
        BYTE   W24
        BYTE           N05     Cn3
        BYTE   W12
        BYTE                   An3
        BYTE   W12
        BYTE                   Cn3
        BYTE   W12
        BYTE                   Fn3
        BYTE   W12
        BYTE                   Cn3
        BYTE   W12
        BYTE                   An3
        BYTE   W07
// 047   ----------------------------------------
        BYTE   W05
        BYTE                   Cn3
        BYTE   W90
        BYTE   W01
// 048   ----------------------------------------
        BYTE   W96
// 049   ----------------------------------------
        BYTE   W96
// 050   ----------------------------------------
        BYTE   W96
// 051   ----------------------------------------
        BYTE   W96
// 052   ----------------------------------------
        BYTE   W96
// 053   ----------------------------------------
        BYTE   W96
// 054   ----------------------------------------
        BYTE   W96
// 055   ----------------------------------------
        BYTE   W96
// 056   ----------------------------------------
        BYTE   W05
        BYTE           N23     En3   v082
        BYTE   W24
        BYTE           N11     An2   v070
        BYTE   W12
        BYTE                   An2
        BYTE   W12
        BYTE                   Fn3   v082
        BYTE   W12
        BYTE                   An2   v070
        BYTE   W12
        BYTE                   An2
        BYTE   W12
        BYTE                   En3   v082
        BYTE   W07
// 057   ----------------------------------------
SEQ_BGM_053_0000_13_57:
        BYTE   W05
        BYTE           N11     An2   v070
        BYTE   W12
        BYTE                   Dn3   v082
        BYTE   W12
        BYTE                   Gn2   v070
        BYTE   W12
        BYTE                   Gn2
        BYTE   W12
        BYTE                   En3   v082
        BYTE   W12
        BYTE                   Gn2   v070
        BYTE   W12
        BYTE                   Gn2
        BYTE   W12
        BYTE                   Dn3   v082
        BYTE   W07
        BYTE   PEND
// 058   ----------------------------------------
SEQ_BGM_053_0000_13_58:
        BYTE   W05
        BYTE           N11     Gn2   v070
        BYTE   W12
        BYTE                   Cn3   v082
        BYTE   W12
        BYTE                   Fn2   v070
        BYTE   W12
        BYTE                   Fn2
        BYTE   W12
        BYTE                   Dn3   v082
        BYTE   W12
        BYTE                   Fn2   v070
        BYTE   W12
        BYTE                   Fn2
        BYTE   W12
        BYTE                   Cn3   v082
        BYTE   W07
        BYTE   PEND
// 059   ----------------------------------------
        BYTE   W05
        BYTE                   Fn2   v070
        BYTE   W12
        BYTE                   Cn3   v082
        BYTE   W12
        BYTE                   En2   v070
        BYTE   W12
        BYTE                   En2
        BYTE   W12
        BYTE                   Bn2   v082
        BYTE   W12
        BYTE                   En2   v070
        BYTE   W12
        BYTE                   En2
        BYTE   W12
        BYTE                   Cn3   v082
        BYTE   W07
// 060   ----------------------------------------
SEQ_BGM_053_0000_13_60:
        BYTE   W05
        BYTE           N11     Dn3   v082
        BYTE   W12
        BYTE                   En3
        BYTE   W12
        BYTE                   An2   v070
        BYTE   W12
        BYTE                   An2
        BYTE   W12
        BYTE                   Fn3   v082
        BYTE   W12
        BYTE                   An2   v070
        BYTE   W12
        BYTE                   An2
        BYTE   W12
        BYTE                   En3   v082
        BYTE   W07
        BYTE   PEND
// 061   ----------------------------------------
        BYTE   W05
        BYTE                   Gn2   v070
        BYTE   W12
        BYTE                   Dn3   v082
        BYTE   W12
        BYTE                   Gn2   v070
        BYTE   W12
        BYTE                   Gn2
        BYTE   W12
        BYTE                   En3   v082
        BYTE   W12
        BYTE                   Gn2   v070
        BYTE   W12
        BYTE                   Gn2
        BYTE   W12
        BYTE                   Dn3   v082
        BYTE   W07
// 062   ----------------------------------------
        BYTE   W05
        BYTE                   Fn2   v070
        BYTE   W12
        BYTE                   Cn3   v082
        BYTE   W12
        BYTE                   Fn2   v070
        BYTE   W12
        BYTE                   Fn2
        BYTE   W12
        BYTE                   Dn3   v082
        BYTE   W12
        BYTE                   Fn2   v070
        BYTE   W12
        BYTE                   Fn2
        BYTE   W12
        BYTE                   Cn3   v082
        BYTE   W07
// 063   ----------------------------------------
        BYTE   W05
        BYTE                   En2   v070
        BYTE   W12
        BYTE                   Cn3   v082
        BYTE   W12
        BYTE                   En2   v070
        BYTE   W12
        BYTE                   En2
        BYTE   W12
        BYTE                   Bn2   v082
        BYTE   W12
        BYTE                   En2   v070
        BYTE   W12
        BYTE                   En2
        BYTE   W12
        BYTE                   Cn3   v082
        BYTE   W07
// 064   ----------------------------------------
        BYTE   PATT
         POIN2  SEQ_BGM_053_0000_13_60
// 065   ----------------------------------------
        BYTE   PATT
         POIN2  SEQ_BGM_053_0000_13_57
// 066   ----------------------------------------
        BYTE   PATT
         POIN2  SEQ_BGM_053_0000_13_58
// 067   ----------------------------------------
        BYTE   W05
        BYTE           N11     Fn2   v070
        BYTE   W12
        BYTE                   Cn3   v082
        BYTE   W12
        BYTE                   En2   v070
        BYTE   W12
        BYTE                   En2
        BYTE   W12
        BYTE                   Bn2   v082
        BYTE   W12
        BYTE                   En2   v070
        BYTE   W12
        BYTE                   En2
        BYTE   W07
        BYTE   GoTo
         POIN2  SEQ_BGM_053_0000_13_LOOP
        BYTE   W05
        BYTE                   Cn3   v082
        BYTE   W07
// 068   ----------------------------------------
        BYTE   W04
        BYTE   FINE

//***************** Track 14 (Midi-Chn.15) *****************//

SEQ_BGM_053_0000_14:
        BYTE   KEYSH   SEQ_BGM_053_0000_key+0
// 000   ----------------------------------------
        BYTE           VOICE   18
        BYTE           VOL     21
        BYTE           BEND    c_v+2
        BYTE   W96
// 001   ----------------------------------------
        BYTE   W96
// 002   ----------------------------------------
        BYTE   W96
// 003   ----------------------------------------
        BYTE   W84
SEQ_BGM_053_0000_14_LOOP:
        BYTE   W12
// 004   ----------------------------------------
        BYTE   W96
// 005   ----------------------------------------
        BYTE   W96
// 006   ----------------------------------------
        BYTE   W96
// 007   ----------------------------------------
        BYTE   W17
        BYTE           N05     En4   v090
        BYTE   W06
        BYTE                   Fn4   v070
        BYTE   W06
        BYTE                   En4   v080
        BYTE   W06
        BYTE                   Fn4   v070
        BYTE   W06
        BYTE                   En4   v080
        BYTE   W06
        BYTE                   Fn4   v070
        BYTE   W06
        BYTE                   En4   v080
        BYTE   W06
        BYTE                   Fn4   v070
        BYTE   W06
        BYTE                   En4   v080
        BYTE   W06
        BYTE                   Fn4   v070
        BYTE   W06
        BYTE                   En4   v080
        BYTE   W06
        BYTE                   Fn4   v070
        BYTE   W06
        BYTE                   En4   v080
        BYTE   W06
        BYTE                   Fn4   v070
        BYTE   W01
// 008   ----------------------------------------
        BYTE   W05
        BYTE                   En4   v080
        BYTE   W06
        BYTE                   Fn4   v070
        BYTE   W84
        BYTE   W01
// 009   ----------------------------------------
        BYTE   W96
// 010   ----------------------------------------
        BYTE   W96
// 011   ----------------------------------------
        BYTE   W96
// 012   ----------------------------------------
        BYTE   W96
// 013   ----------------------------------------
        BYTE   W96
// 014   ----------------------------------------
        BYTE   W96
// 015   ----------------------------------------
        BYTE   W96
// 016   ----------------------------------------
        BYTE   W96
// 017   ----------------------------------------
        BYTE   W96
// 018   ----------------------------------------
        BYTE   W96
// 019   ----------------------------------------
        BYTE   W96
// 020   ----------------------------------------
        BYTE   W96
// 021   ----------------------------------------
        BYTE   W96
// 022   ----------------------------------------
        BYTE   W96
// 023   ----------------------------------------
        BYTE   W96
// 024   ----------------------------------------
        BYTE   W96
// 025   ----------------------------------------
        BYTE   W96
// 026   ----------------------------------------
        BYTE   W96
// 027   ----------------------------------------
        BYTE   W96
// 028   ----------------------------------------
        BYTE   W06
        BYTE           VOICE   0
        BYTE   W11
        BYTE           N06     An3   v075
        BYTE   W12
        BYTE                   Cn4
        BYTE   W12
        BYTE                   Fn4
        BYTE   W12
        BYTE                   An4
        BYTE   W12
        BYTE                   Fn4
        BYTE   W12
        BYTE                   Cn4
        BYTE   W12
        BYTE                   An3
        BYTE   W07
// 029   ----------------------------------------
SEQ_BGM_053_0000_14_29:
        BYTE   W05
        BYTE           N06     Cn4   v075
        BYTE   W12
        BYTE                   Bn3
        BYTE   W12
        BYTE                   Dn4
        BYTE   W12
        BYTE                   Gn4
        BYTE   W12
        BYTE                   Bn4
        BYTE   W12
        BYTE                   Gn4
        BYTE   W12
        BYTE                   Dn4
        BYTE   W12
        BYTE                   Bn3
        BYTE   W07
        BYTE   PEND
// 030   ----------------------------------------
SEQ_BGM_053_0000_14_30:
        BYTE   W05
        BYTE           N06     Dn4   v075
        BYTE   W12
        BYTE                   Bn3
        BYTE   W12
        BYTE                   Dn4
        BYTE   W12
        BYTE                   Gn4
        BYTE   W12
        BYTE                   Bn4
        BYTE   W12
        BYTE                   Gn4
        BYTE   W12
        BYTE                   Dn4
        BYTE   W12
        BYTE                   Bn3
        BYTE   W07
        BYTE   PEND
// 031   ----------------------------------------
        BYTE   W05
        BYTE                   Dn4
        BYTE   W12
        BYTE                   An3
        BYTE   W12
        BYTE                   Cn4
        BYTE   W12
        BYTE                   En4
        BYTE   W12
        BYTE                   An4
        BYTE   W12
        BYTE                   En4
        BYTE   W12
        BYTE                   Cn4
        BYTE   W12
        BYTE                   An3
        BYTE   W07
// 032   ----------------------------------------
        BYTE   W05
        BYTE                   Cn4
        BYTE   W12
        BYTE                   An3
        BYTE   W12
        BYTE                   Cn4
        BYTE   W12
        BYTE                   Fn4
        BYTE   W12
        BYTE                   An4
        BYTE   W12
        BYTE                   Fn4
        BYTE   W12
        BYTE                   Cn4
        BYTE   W12
        BYTE                   An3
        BYTE   W07
// 033   ----------------------------------------
        BYTE   PATT
         POIN2  SEQ_BGM_053_0000_14_29
// 034   ----------------------------------------
        BYTE   PATT
         POIN2  SEQ_BGM_053_0000_14_30
// 035   ----------------------------------------
        BYTE   W05
        BYTE           N06     Dn4   v075
        BYTE   W12
        BYTE                   An3
        BYTE   W12
        BYTE                   En4
        BYTE   W12
        BYTE                   An4
        BYTE   W12
        BYTE                   En4
        BYTE   W12
        BYTE                   An3
        BYTE   W12
        BYTE                   En4
        BYTE   W12
        BYTE                   An4
        BYTE   W07
// 036   ----------------------------------------
        BYTE   W05
        BYTE                   En4
        BYTE   W90
        BYTE   W01
// 037   ----------------------------------------
        BYTE   W96
// 038   ----------------------------------------
        BYTE   W96
// 039   ----------------------------------------
        BYTE   W96
// 040   ----------------------------------------
        BYTE   W96
// 041   ----------------------------------------
        BYTE   W96
// 042   ----------------------------------------
        BYTE   W96
// 043   ----------------------------------------
        BYTE   W96
// 044   ----------------------------------------
        BYTE   W96
// 045   ----------------------------------------
        BYTE   W96
// 046   ----------------------------------------
        BYTE   W96
// 047   ----------------------------------------
        BYTE   W96
// 048   ----------------------------------------
SEQ_BGM_053_0000_14_48:
        BYTE   W05
        BYTE           N23     Cn4   v076
        BYTE   W24
        BYTE           N11     An2
        BYTE   W12
        BYTE                   En3
        BYTE   W12
        BYTE                   Cn4
        BYTE   W12
        BYTE                   An2
        BYTE   W12
        BYTE                   En3
        BYTE   W12
        BYTE                   Cn4
        BYTE   W07
        BYTE   PEND
// 049   ----------------------------------------
SEQ_BGM_053_0000_14_49:
        BYTE   W05
        BYTE           N11     An3   v076
        BYTE   W12
        BYTE                   Gn2
        BYTE   W12
        BYTE                   Bn3
        BYTE   W12
        BYTE           N05     Gn3
        BYTE   W12
        BYTE           N11     Bn3
        BYTE   W12
        BYTE           N05     Dn3
        BYTE   W12
        BYTE           N23     Bn3
        BYTE   W19
        BYTE   PEND
// 050   ----------------------------------------
        BYTE   W05
        BYTE           N11     Dn3
        BYTE   W12
        BYTE                   Fn3
        BYTE   W12
        BYTE                   Gn3
        BYTE   W12
        BYTE                   An3
        BYTE   W12
        BYTE                   En4
        BYTE   W12
        BYTE                   Fn2
        BYTE   W12
        BYTE           N23     En4
        BYTE   W19
// 051   ----------------------------------------
        BYTE   W05
        BYTE           N11     Dn4
        BYTE   W12
        BYTE           N23     En4
        BYTE   W24
        BYTE           N05     En4   v086
        BYTE   W06
        BYTE                   Cn4   v076
        BYTE   W06
        BYTE                   Bn3
        BYTE   W06
        BYTE                   An3
        BYTE   W06
        BYTE                   En3   v086
        BYTE   W06
        BYTE                   Cn3   v076
        BYTE   W06
        BYTE                   Bn2
        BYTE   W06
        BYTE                   An2
        BYTE   W06
        BYTE           N11     En2   v096
        BYTE   W07
// 052   ----------------------------------------
        BYTE   PATT
         POIN2  SEQ_BGM_053_0000_14_48
// 053   ----------------------------------------
        BYTE   PATT
         POIN2  SEQ_BGM_053_0000_14_49
// 054   ----------------------------------------
        BYTE   W05
        BYTE           N23     Cn4   v076
        BYTE   W90
        BYTE   W01
// 055   ----------------------------------------
        BYTE   W96
// 056   ----------------------------------------
        BYTE   W96
// 057   ----------------------------------------
        BYTE   W96
// 058   ----------------------------------------
        BYTE   W96
// 059   ----------------------------------------
        BYTE   W96
// 060   ----------------------------------------
        BYTE   W06
        BYTE           VOICE   18
        BYTE   W11
        BYTE           TIE     An3   v065
        BYTE   W78
        BYTE   W01
// 061   ----------------------------------------
        BYTE   W88
        BYTE           EOT
        BYTE   W01
        BYTE           N03     As3   v085
        BYTE   W04
        BYTE                   Cn4
        BYTE   W03
// 062   ----------------------------------------
        BYTE   W01
        BYTE                   Dn4
        BYTE   W04
        BYTE                   En4
        BYTE   W04
        BYTE                   Fn4
        BYTE   W04
        BYTE                   Gn4
        BYTE   W04
        BYTE           N92     An4   v065   gtp3
        BYTE   W78
        BYTE   W01
// 063   ----------------------------------------
        BYTE   W17
        BYTE           N05     Gs4   v085
        BYTE   W06
        BYTE                   Bn4   v075
        BYTE   W06
        BYTE                   Gs4
        BYTE   W06
        BYTE                   En4
        BYTE   W06
        BYTE                   Dn4   v085
        BYTE   W06
        BYTE                   En4   v075
        BYTE   W06
        BYTE                   Dn4
        BYTE   W06
        BYTE                   Bn3
        BYTE   W06
        BYTE                   Gs3   v085
        BYTE   W06
        BYTE                   Bn3   v075
        BYTE   W06
        BYTE                   Gs3
        BYTE   W06
        BYTE                   En3
        BYTE   W13
// 064   ----------------------------------------
        BYTE   W96
// 065   ----------------------------------------
        BYTE   W96
// 066   ----------------------------------------
        BYTE   W96
// 067   ----------------------------------------
        BYTE   W84
        BYTE   GoTo
         POIN2  SEQ_BGM_053_0000_14_LOOP
        BYTE   W12
// 068   ----------------------------------------
        BYTE   W04
        BYTE   FINE


//********************** End of Song ***********************//

        ALIGN 4
SEQ_BGM_053_0000:
        BYTE   15                      // Num Tracks
        BYTE   0                       // Unknown
        BYTE   SEQ_BGM_053_0000_pri    // Priority
        BYTE   SEQ_BGM_053_0000_rev    // Reverb

        POIN2   SEQ_BGM_053_0000_grp   

        POIN2   SEQ_BGM_053_0000_0
        POIN2   SEQ_BGM_053_0000_1
        POIN2   SEQ_BGM_053_0000_2
        POIN2   SEQ_BGM_053_0000_3
        POIN2   SEQ_BGM_053_0000_4
        POIN2   SEQ_BGM_053_0000_5
        POIN2   SEQ_BGM_053_0000_6
        POIN2   SEQ_BGM_053_0000_7
        POIN2   SEQ_BGM_053_0000_8
        POIN2   SEQ_BGM_053_0000_9
        POIN2   SEQ_BGM_053_0000_10
        POIN2   SEQ_BGM_053_0000_11
        POIN2   SEQ_BGM_053_0000_12
        POIN2   SEQ_BGM_053_0000_13
        POIN2   SEQ_BGM_053_0000_14

        
