//Event file generated from Sappy .s format.
	#include "MPlayDef.event"

	#define	SEQ_021_00000_grp  voicegroup000
	#define	SEQ_021_00000_pri  0
	#define	SEQ_021_00000_rev  0
	#define	SEQ_021_00000_mvl  127
	#define	SEQ_021_00000_key  0
	#define	SEQ_021_00000_tbs  1
	#define	SEQ_021_00000_exg  0
	#define	SEQ_021_00000_cmp  1

	// .rodata
	//	SEQ_021_00000
	ALIGN 4

//**************** Track 1 (Midi-Chn.1) ****************//

SEQ_021_00000_1:
	BYTE	KEYSH   SEQ_021_00000_key+0
// 000   ----------------------------------------
	BYTE	TEMPO   162*SEQ_021_00000_tbs/2
	BYTE		VOICE   44
	BYTE		VOL     64*SEQ_021_00000_mvl/mxv
	BYTE		PAN     c_v+21
	BYTE		MOD     0
	BYTE		BEND    c_v+0
	BYTE	W96
// 001   ----------------------------------------
	BYTE	W96
// 002   ----------------------------------------
	BYTE	W96
// 003   ----------------------------------------
	BYTE	W84
SEQ_021_00000_1_B1:
	BYTE	W12
// 004   ----------------------------------------
	BYTE	W96
// 005   ----------------------------------------
	BYTE	W96
// 006   ----------------------------------------
	BYTE	W96
// 007   ----------------------------------------
	BYTE	W72
	BYTE		N24     Bn1   v124
	BYTE	W24
// 008   ----------------------------------------
	BYTE		        En2   v127
	BYTE	W24
	BYTE		N01     Fn2   v120
	BYTE	W02
	BYTE		N22     Fs2 
	BYTE	W22
	BYTE		N11     Gn2 
	BYTE	W12
	BYTE		N23     An2   v116
	BYTE	W24
	BYTE		N44     Bn2   v112
	BYTE	W12
// 009   ----------------------------------------
	BYTE	W36
	BYTE		N12     En2   v120
	BYTE	W12
	BYTE		        Ds2 
	BYTE	W12
	BYTE		N24     En2 
	BYTE	W24
	BYTE		N32     Dn3   v116
	BYTE	W12
// 010   ----------------------------------------
	BYTE	W24
	BYTE		N12     Cn3   v120
	BYTE	W12
	BYTE		N20   
	BYTE	W24
	BYTE		N21     Bn2   v116
	BYTE	W24
	BYTE		N56     Cn3 
	BYTE	W12
// 011   ----------------------------------------
	BYTE	W48
	BYTE		N24     Bn2   v120
	BYTE	W24
	BYTE		        An2 
	BYTE	W24
// 012   ----------------------------------------
	BYTE	W20
	BYTE		N02     An2   v092
	BYTE	W01
	BYTE		        As2   v100
	BYTE	W01
	BYTE		        Bn2   v104
	BYTE	W02
	BYTE		N23     Cn3   v112
	BYTE	W24
	BYTE		N12   
	BYTE	W12
	BYTE		N24     Dn3 
	BYTE	W24
	BYTE		N32     En3 
	BYTE	W12
// 013   ----------------------------------------
	BYTE	W24
	BYTE		N23     Cn3 
	BYTE	W24
	BYTE		        En3 
	BYTE	W24
	BYTE		        Gn3 
	BYTE	W24
// 014   ----------------------------------------
	BYTE		N90     An3   v108
	BYTE	W21
	BYTE	W44
	BYTE	W01
	BYTE	W24
	BYTE	W03
	BYTE		N02     An3   v076
	BYTE	W02
	BYTE		        As3   v096
	BYTE	W01
// 015   ----------------------------------------
	BYTE		N92     Bn3   v104
	BYTE	W14
	BYTE	W08
	BYTE	W09
	BYTE	W08
	BYTE	W08
	BYTE	W08
	BYTE	W09
	BYTE	W01
	BYTE	W02
	BYTE	W01
	BYTE	W02
	BYTE		BEND    c_v+0
	BYTE	W01
	BYTE	W02
	BYTE		        c_v-1
	BYTE	W01
	BYTE	W02
	BYTE		        c_v-3
	BYTE	W01
	BYTE	W02
	BYTE		        c_v-4
	BYTE	W01
	BYTE		        c_v-5
	BYTE	W01
	BYTE		        c_v-8
	BYTE	W02
	BYTE		        c_v-11
	BYTE	W01
	BYTE		        c_v-15
	BYTE	W02
	BYTE		        c_v-18
	BYTE	W01
	BYTE		        c_v-22
	BYTE	W01
	BYTE		        c_v-25
	BYTE	W01
	BYTE	W01
	BYTE		        c_v-30
	BYTE	W01
	BYTE		        c_v-35
	BYTE	W01
	BYTE	W01
	BYTE		        c_v-40
	BYTE	W01
	BYTE		        c_v-45
	BYTE	W01
	BYTE		        c_v-62
	BYTE	W01
// 016   ----------------------------------------
	BYTE		        c_v-63
	BYTE	W02
	BYTE	W28
	BYTE	W01
	BYTE		        c_v-16
	BYTE	W01
	BYTE		        c_v+0
	BYTE	W24
	BYTE	W02
	BYTE	W01
	BYTE	W01
	BYTE	W01
	BYTE	W01
	BYTE	W01
	BYTE	W01
	BYTE	W32
// 017   ----------------------------------------
	BYTE	W96
// 018   ----------------------------------------
	BYTE	W96
// 019   ----------------------------------------
	BYTE	W96
// 020   ----------------------------------------
	BYTE	W96
// 021   ----------------------------------------
	BYTE	W96
// 022   ----------------------------------------
	BYTE	W96
// 023   ----------------------------------------
	BYTE	W96
// 024   ----------------------------------------
	BYTE	W18
	BYTE		N02     Cn2   v064
	BYTE	W01
	BYTE		        Dn2   v076
	BYTE	W01
	BYTE		        En2   v084
	BYTE	W02
	BYTE		        Fs2   v100
	BYTE	W02
	BYTE		N24     Gn2   v112
	BYTE	W24
	BYTE		        Fs2 
	BYTE	W24
	BYTE		N11     En2 
	BYTE	W12
	BYTE		N09   
	BYTE	W11
	BYTE		N01     Dn2   v080
	BYTE	W01
// 025   ----------------------------------------
	BYTE		        En2   v088
	BYTE		N44     Fs2   v112
	BYTE	W48
	BYTE		        Dn2 
	BYTE	W48
// 026   ----------------------------------------
	BYTE		N23   
	BYTE	W24
	BYTE		N11     En2 
	BYTE	W12
	BYTE		N01     Dn2   v068
	BYTE		N01     Ds2   v088
	BYTE	W01
	BYTE		N56     En2   v112
	BYTE	W56
	BYTE	W03
// 027   ----------------------------------------
	BYTE		N44   
	BYTE	W48
	BYTE		N24     Gn2   v108
	BYTE	W24
	BYTE		N21     Fs2   v100
	BYTE	W22
	BYTE		N01     Gs2   v068
	BYTE		N01     An2   v080
	BYTE	W01
	BYTE		        As2   v092
	BYTE	W01
// 028   ----------------------------------------
	BYTE		N66     Bn2   v112
	BYTE	W72
	BYTE		N12     An2 
	BYTE	W12
	BYTE		        Gn2 
	BYTE	W12
// 029   ----------------------------------------
	BYTE		N17     Fs2 
	BYTE	W18
	BYTE		N11     Gn2 
	BYTE	W18
	BYTE		N32     En2 
	BYTE	W36
	BYTE		N08     Gn2 
	BYTE	W09
	BYTE		N02     En2   v092
	BYTE	W01
	BYTE		        Fn2   v100
	BYTE	W01
	BYTE		N48     Fs2   v112
	BYTE	W13
// 030   ----------------------------------------
	BYTE	W36
	BYTE		N11     En2 
	BYTE	W12
	BYTE		N90   
	BYTE	W48
// 031   ----------------------------------------
	BYTE	W48
	BYTE		N12   
	BYTE	W12
	BYTE		        Fs2 
	BYTE	W12
	BYTE		        Gn2 
	BYTE	W12
	BYTE		N10     En2 
	BYTE	W09
	BYTE		N02     Cn3   v072
	BYTE	W01
	BYTE		        Dn3   v084
	BYTE	W02
// 032   ----------------------------------------
	BYTE		        Ds3   v100
	BYTE	W02
	BYTE		N68     En3   v112
	BYTE	W68
	BYTE	W02
	BYTE		N24     Gn2 
	BYTE	W24
// 033   ----------------------------------------
	BYTE		N44     Fs2 
	BYTE	W44
	BYTE	W02
	BYTE		N02     En3   v064
	BYTE	W01
	BYTE		        Fn3   v096
	BYTE	W01
	BYTE		N19     Fs3   v112
	BYTE	W18
	BYTE		        En3 
	BYTE	W18
	BYTE		N11     Dn3 
	BYTE	W12
// 034   ----------------------------------------
	BYTE		N02     Dn3   v084
	BYTE	W01
	BYTE		        Ds3   v096
	BYTE	W01
	BYTE		N21     En3   v112
	BYTE	W22
	BYTE		N11     Dn3 
	BYTE	W12
	BYTE		N32   
	BYTE	W36
	BYTE		N10     Bn2 
	BYTE	W10
	BYTE		BEND    c_v+0
	BYTE	W01
	BYTE		        c_v-37
	BYTE	W01
	BYTE		        c_v-45
	BYTE		N56     En3 
	BYTE	W01
	BYTE		BEND    c_v-34
	BYTE	W01
	BYTE		        c_v-18
	BYTE	W01
	BYTE		        c_v-15
	BYTE	W01
	BYTE		        c_v-8
	BYTE	W02
	BYTE		        c_v-4
	BYTE	W01
	BYTE		        c_v+0
	BYTE	W05
// 035   ----------------------------------------
	BYTE	W13
	BYTE		        c_v+0
	BYTE	W32
	BYTE	W03
	BYTE		N18     Bn2 
	BYTE	W18
	BYTE		        Cn3 
	BYTE	W18
	BYTE		N12     Dn3 
	BYTE	W12
// 036   ----------------------------------------
	BYTE		N24     Cn3 
	BYTE	W24
	BYTE		N11     Bn2 
	BYTE	W12
	BYTE		N04     An2   v096
	BYTE	W04
	BYTE		        Bn2   v100
	BYTE	W04
	BYTE		        An2   v096
	BYTE	W16
	BYTE		N12     Gn2   v112
	BYTE	W24
	BYTE		N23     Fs2 
	BYTE	W12
// 037   ----------------------------------------
	BYTE	W12
	BYTE		N06   
	BYTE	W12
	BYTE		N24     En2 
	BYTE	W24
	BYTE		        Fs2 
	BYTE	W24
	BYTE		        Gn2 
	BYTE	W24
// 038   ----------------------------------------
	BYTE		N80     An2 
	BYTE	W84
	BYTE		N08   
	BYTE	W02
	BYTE		        Gs2 
	BYTE	W03
	BYTE		        Gn2 
	BYTE	W07
// 039   ----------------------------------------
	BYTE		N44     Fs2 
	BYTE	W48
	BYTE		N12     En2   v116
	BYTE	W12
	BYTE		        Fs2 
	BYTE	W12
	BYTE		        Gn2   v120
	BYTE	W12
	BYTE		        An2 
	BYTE	W12
// 040   ----------------------------------------
	BYTE		N44     Bn2   v124
	BYTE	W48
	BYTE		N12     Gn2   v116
	BYTE	W12
	BYTE		        An2 
	BYTE	W12
	BYTE		        Bn2 
	BYTE	W12
	BYTE		N20     Fs2   v124
	BYTE	W12
// 041   ----------------------------------------
	BYTE	W09
	BYTE		N02     En2   v100
	BYTE	W01
	BYTE		        Fn2   v108
	BYTE	W02
	BYTE		N11     Fs2   v124
	BYTE	W12
	BYTE		        En2 
	BYTE	W12
	BYTE		N56     Dn2 
	BYTE	W56
	BYTE	W01
	BYTE		N02     Dn2   v088
	BYTE	W01
	BYTE		        Ds2   v104
	BYTE	W02
// 042   ----------------------------------------
	BYTE		N23     En2   v124
	BYTE	W24
	BYTE		N12     Gn2 
	BYTE	W12
	BYTE		N22     Fs2 
	BYTE	W21
	BYTE		N01     Dn2   v080
	BYTE	W02
	BYTE		        Ds2   v092
	BYTE	W01
	BYTE		N11     En2   v124
	BYTE	W10
	BYTE		N02     Cn2   v072
	BYTE	W01
	BYTE		        Cs2   v092
	BYTE	W01
	BYTE		N11     Dn2   v124
	BYTE	W12
	BYTE		        Cn2 
	BYTE	W12
// 043   ----------------------------------------
	BYTE		N92     Bn1 
	BYTE	W96
// 044   ----------------------------------------
	BYTE		N36     Cn2 
	BYTE	W36
	BYTE		N23     Dn2   v120
	BYTE	W24
	BYTE		N12     En2   v124
	BYTE	W12
	BYTE		        Dn2   v120
	BYTE	W12
	BYTE		        Cn2   v124
	BYTE	W12
// 045   ----------------------------------------
	BYTE		        Bn1   v127
	BYTE	W18
	BYTE		N16     Bn1   v124
	BYTE	W18
	BYTE		N23     Gn2   v116
	BYTE	W24
	BYTE		N11   
	BYTE	W12
	BYTE		        An2 
	BYTE	W12
	BYTE		        Bn2 
	BYTE	W12
// 046   ----------------------------------------
	BYTE		N24     An2 
	BYTE	W24
	BYTE		N12     Gn2 
	BYTE	W12
	BYTE		N32     Fs2 
	BYTE	W32
	BYTE	W02
	BYTE		N03   
	BYTE	W02
	BYTE		N23     Gn2 
	BYTE	W24
// 047   ----------------------------------------
	BYTE		N32     Fs2 
	BYTE	W32
	BYTE	W03
	BYTE		N01     Gn2   v100
	BYTE		N01     An2   v108
	BYTE	W01
	BYTE		N36     Bn2   v116
	BYTE	W36
	BYTE		N23     An2 
	BYTE	W24
// 048   ----------------------------------------
	BYTE		N30     Gn2 
	BYTE	W36
	BYTE		N11   
	BYTE	W12
	BYTE		        Fs2 
	BYTE	W12
	BYTE		        En2 
	BYTE	W12
	BYTE		N10   
	BYTE	W11
	BYTE		N02     En2   v096
	BYTE	W01
	BYTE		        Fn2   v104
	BYTE	W01
	BYTE		N22     Fs2   v116
	BYTE	W11
// 049   ----------------------------------------
	BYTE	W12
	BYTE		        Dn2 
	BYTE	W24
	BYTE		N44     Bn1   v120
	BYTE	W48
	BYTE		N12     An1 
	BYTE	W12
// 050   ----------------------------------------
	BYTE		N32     Gn1 
	BYTE	W36
	BYTE		N24     En2   v116
	BYTE	W24
	BYTE		N11     Dn2 
	BYTE	W12
	BYTE		        Cn2   v120
	BYTE	W12
	BYTE		N10   
	BYTE	W10
	BYTE		N01     Cn2   v092
	BYTE	W01
	BYTE		        Cs2   v100
	BYTE	W01
// 051   ----------------------------------------
	BYTE		N36     Dn2   v116
	BYTE	W36
	BYTE		        Bn1   v112
	BYTE	W36
	BYTE		N12     Cn2   v120
	BYTE	W12
	BYTE		        Bn1 
	BYTE	W12
// 052   ----------------------------------------
	BYTE		        An1 
	BYTE	W12
	BYTE		        Bn1 
	BYTE	W12
	BYTE		        Cn2 
	BYTE	W12
	BYTE		N23     Dn2   v116
	BYTE	W24
	BYTE		N11     Ds2 
	BYTE	W12
	BYTE		        En2 
	BYTE	W12
	BYTE		N23     Fs2 
	BYTE	W12
// 053   ----------------------------------------
	BYTE	W12
	BYTE		N11     Bn1   v120
	BYTE	W12
	BYTE		N11   
	BYTE	W12
	BYTE		N22     Gn2   v116
	BYTE	W24
	BYTE		N11   
	BYTE	W12
	BYTE		        An2 
	BYTE	W12
	BYTE		N10     Bn2 
	BYTE	W11
	BYTE		BEND    c_v-64
	BYTE	W01
// 054   ----------------------------------------
	BYTE		        c_v-19
	BYTE		N36     Cn3 
	BYTE	W01
	BYTE		BEND    c_v-7
	BYTE	W02
	BYTE		        c_v+0
	BYTE	W11
	BYTE		        c_v+0
	BYTE	W22
	BYTE		N23     Bn2 
	BYTE	W24
	BYTE		N11     An2 
	BYTE	W12
	BYTE		        Gn2 
	BYTE	W12
	BYTE		N11   
	BYTE	W12
// 055   ----------------------------------------
	BYTE		N32     An2 
	BYTE	W36
	BYTE		N02   
	BYTE	W02
	BYTE		        Gs2 
	BYTE	W02
	BYTE		        Gn2 
	BYTE	W03
	BYTE		N24     Fs2 
	BYTE	W23
	BYTE		N18     Bn2 
	BYTE	W18
	BYTE		N11     An2 
	BYTE	W12
// 056   ----------------------------------------
	BYTE		N92     Gn2 
	BYTE	W48
	BYTE	W03
	BYTE	W03
	BYTE	W03
	BYTE	W03
	BYTE	W03
	BYTE	W03
	BYTE	W03
	BYTE	W03
	BYTE	W03
	BYTE	W03
	BYTE	W03
	BYTE	W03
	BYTE	W03
	BYTE	W03
	BYTE	W03
	BYTE	W03
// 057   ----------------------------------------
	BYTE	W03
	BYTE	W03
	BYTE	W03
	BYTE	W03
	BYTE	W03
	BYTE	W03
	BYTE	W03
	BYTE	W03
	BYTE	W01
	BYTE	W54
	BYTE	W01
	BYTE	W01
	BYTE	W01
	BYTE	W14
// 058   ----------------------------------------
	BYTE	W96
// 059   ----------------------------------------
	BYTE	W84
	BYTE	GoTo
	 POIN2	SEQ_021_00000_1_B1
SEQ_021_00000_1_B2:
	BYTE	W12
// 060   ----------------------------------------
	BYTE	FINE

//**************** Track 2 (Midi-Chn.2) ****************//

SEQ_021_00000_2:
	BYTE	KEYSH   SEQ_021_00000_key+0
// 000   ----------------------------------------
	BYTE		VOICE   44
	BYTE		VOL     57*SEQ_021_00000_mvl/mxv
	BYTE		PAN     c_v-11
	BYTE		MOD     0
	BYTE		BEND    c_v+0
	BYTE	W96
// 001   ----------------------------------------
	BYTE	W96
// 002   ----------------------------------------
	BYTE	W96
// 003   ----------------------------------------
	BYTE	W84
SEQ_021_00000_2_B1:
	BYTE	W12
// 004   ----------------------------------------
	BYTE	W96
// 005   ----------------------------------------
	BYTE	W96
// 006   ----------------------------------------
	BYTE	W96
// 007   ----------------------------------------
	BYTE	W96
// 008   ----------------------------------------
	BYTE		N19     En2   v056
	BYTE	W24
	BYTE		N21   
	BYTE	W24
	BYTE		N12   
	BYTE	W12
	BYTE		        Fs2 
	BYTE	W12
	BYTE		        Gn2 
	BYTE	W12
	BYTE		        An2 
	BYTE	W12
// 009   ----------------------------------------
	BYTE		N32     Bn2 
	BYTE	W36
	BYTE		N12     En2 
	BYTE	W12
	BYTE		        Dn2 
	BYTE	W12
	BYTE		N21     En2 
	BYTE	W21
	BYTE		N02   
	BYTE	W02
	BYTE		        Fn2 
	BYTE		N02     Fs2 
	BYTE	W01
	BYTE		N32     Gn2 
	BYTE	W12
// 010   ----------------------------------------
	BYTE	W24
	BYTE		N11   
	BYTE	W12
	BYTE		N23   
	BYTE	W24
	BYTE		N11     Fs2 
	BYTE	W12
	BYTE		        En2 
	BYTE	W12
	BYTE		        Dn2 
	BYTE	W12
// 011   ----------------------------------------
	BYTE		N44     Cn2 
	BYTE	W48
	BYTE		        Dn2 
	BYTE	W48
// 012   ----------------------------------------
	BYTE	W96
// 013   ----------------------------------------
	BYTE	W96
// 014   ----------------------------------------
	BYTE	W96
// 015   ----------------------------------------
	BYTE	W24
	BYTE		N23     An2   v096
	BYTE	W24
	BYTE		        Gn2   v092
	BYTE	W24
	BYTE		N05     Gn2   v108
	BYTE	W06
	BYTE		        An2 
	BYTE	W06
	BYTE		        Bn2   v104
	BYTE	W06
	BYTE		        Dn3 
	BYTE	W06
// 016   ----------------------------------------
	BYTE		N12     An2   v120
	BYTE	W12
	BYTE		        Gn2 
	BYTE	W12
	BYTE		N11     Fs2   v124
	BYTE	W11
	BYTE		BEND    c_v-64
	BYTE	W01
	BYTE		        c_v-57
	BYTE		N23     Fs2   v120
	BYTE	W01
	BYTE		BEND    c_v-49
	BYTE	W01
	BYTE		        c_v-33
	BYTE	W01
	BYTE		        c_v-27
	BYTE	W01
	BYTE		        c_v-20
	BYTE	W01
	BYTE		        c_v-16
	BYTE	W01
	BYTE		        c_v-12
	BYTE	W01
	BYTE		        c_v-4
	BYTE	W01
	BYTE		        c_v+0
	BYTE	W16
	BYTE		N23     En2 
	BYTE	W24
	BYTE		N11     Bn1   v124
	BYTE	W12
// 017   ----------------------------------------
	BYTE		N23     En2 
	BYTE	W24
	BYTE		N09     Fs2 
	BYTE	W12
	BYTE		        Gn2 
	BYTE	W24
	BYTE		        An2 
	BYTE	W24
	BYTE		        Bn2   v120
	BYTE	W12
// 018   ----------------------------------------
	BYTE		N44     Cn3   v116
	BYTE	W48
	BYTE		N11     Cn3   v120
	BYTE	W12
	BYTE		        Bn2 
	BYTE	W12
	BYTE		        Cn3 
	BYTE	W12
	BYTE		N22     Dn3 
	BYTE	W12
// 019   ----------------------------------------
	BYTE	W10
	BYTE		BEND    c_v-5
	BYTE	W01
	BYTE		        c_v-11
	BYTE	W01
	BYTE		        c_v-17
	BYTE		N11   
	BYTE	W01
	BYTE		BEND    c_v-29
	BYTE	W01
	BYTE		        c_v-35
	BYTE	W01
	BYTE		        c_v-41
	BYTE	W01
	BYTE		        c_v-53
	BYTE	W01
	BYTE		        c_v-59
	BYTE	W01
	BYTE		        c_v-54
	BYTE	W01
	BYTE		        c_v-43
	BYTE	W01
	BYTE		        c_v-32
	BYTE	W01
	BYTE		        c_v-11
	BYTE	W01
	BYTE		        c_v+0
	BYTE	W02
	BYTE		N23     Cn3 
	BYTE	W24
	BYTE		N17     Bn2   v124
	BYTE	W18
	BYTE		N28     An2   v120
	BYTE	W30
// 020   ----------------------------------------
	BYTE	W18
	BYTE		BEND    c_v+0
	BYTE	W01
	BYTE		        c_v-8
	BYTE	W01
	BYTE		        c_v-24
	BYTE	W01
	BYTE		        c_v-32
	BYTE	W01
	BYTE		        c_v-46
	BYTE	W01
	BYTE		        c_v-41
	BYTE	W01
	BYTE		        c_v-35
	BYTE		N24     An2   v124
	BYTE	W01
	BYTE		BEND    c_v-23
	BYTE	W01
	BYTE		        c_v-18
	BYTE	W01
	BYTE		        c_v-15
	BYTE	W01
	BYTE		        c_v-7
	BYTE	W02
	BYTE		        c_v-5
	BYTE	W01
	BYTE		        c_v-3
	BYTE	W02
	BYTE		        c_v+0
	BYTE	W15
	BYTE		N11     Gn2   v120
	BYTE	W12
	BYTE		N21     Fs2   v124
	BYTE	W22
	BYTE		BEND    c_v+0
	BYTE	W01
	BYTE		        c_v-55
	BYTE	W01
	BYTE		        c_v-45
	BYTE		N23     Fs2   v120
	BYTE	W01
	BYTE		BEND    c_v-25
	BYTE	W01
	BYTE		        c_v-19
	BYTE	W01
	BYTE		        c_v-15
	BYTE	W01
	BYTE		        c_v-9
	BYTE	W02
	BYTE		        c_v-8
	BYTE	W01
	BYTE		        c_v-6
	BYTE	W02
	BYTE		        c_v-4
	BYTE	W01
	BYTE		        c_v-2
	BYTE	W02
// 021   ----------------------------------------
	BYTE	W05
	BYTE		        c_v+0
	BYTE	W07
	BYTE		N11   
	BYTE	W12
	BYTE		N23     En2   v124
	BYTE	W24
	BYTE		N17     Fs2 
	BYTE	W18
	BYTE		        En2   v120
	BYTE	W18
	BYTE		N12   
	BYTE	W04
	BYTE		BEND    c_v-17
	BYTE	W01
	BYTE		        c_v-42
	BYTE	W01
	BYTE		        c_v-31
	BYTE	W01
	BYTE		        c_v-20
	BYTE	W01
	BYTE		        c_v+0
	BYTE	W04
// 022   ----------------------------------------
	BYTE		N56     Ds2   v124
	BYTE	W60
	BYTE		N12     Ds2   v120
	BYTE	W12
	BYTE		        En2 
	BYTE	W12
	BYTE		N44     Fs2 
	BYTE	W12
// 023   ----------------------------------------
	BYTE	W96
// 024   ----------------------------------------
	BYTE	W96
// 025   ----------------------------------------
	BYTE	W96
// 026   ----------------------------------------
	BYTE	W96
// 027   ----------------------------------------
	BYTE	W96
// 028   ----------------------------------------
	BYTE	W96
// 029   ----------------------------------------
	BYTE	W96
// 030   ----------------------------------------
	BYTE	W96
// 031   ----------------------------------------
	BYTE	W96
// 032   ----------------------------------------
	BYTE	W96
// 033   ----------------------------------------
	BYTE	W96
// 034   ----------------------------------------
	BYTE	W96
// 035   ----------------------------------------
	BYTE	W96
// 036   ----------------------------------------
	BYTE	W96
// 037   ----------------------------------------
	BYTE	W96
// 038   ----------------------------------------
	BYTE	W96
// 039   ----------------------------------------
	BYTE	W96
// 040   ----------------------------------------
	BYTE		        Gn2   v092
	BYTE	W96
// 041   ----------------------------------------
	BYTE	W96
// 042   ----------------------------------------
	BYTE	W96
// 043   ----------------------------------------
	BYTE	W96
// 044   ----------------------------------------
	BYTE	W96
// 045   ----------------------------------------
	BYTE	W96
// 046   ----------------------------------------
	BYTE	W96
// 047   ----------------------------------------
	BYTE	W96
// 048   ----------------------------------------
	BYTE	W96
// 049   ----------------------------------------
	BYTE	W96
// 050   ----------------------------------------
	BYTE	W96
// 051   ----------------------------------------
	BYTE	W96
// 052   ----------------------------------------
	BYTE	W96
// 053   ----------------------------------------
	BYTE	W96
// 054   ----------------------------------------
	BYTE	W96
// 055   ----------------------------------------
	BYTE	W96
// 056   ----------------------------------------
	BYTE	W96
// 057   ----------------------------------------
	BYTE	W96
// 058   ----------------------------------------
	BYTE	W96
// 059   ----------------------------------------
	BYTE	W84
	BYTE	GoTo
	 POIN2	SEQ_021_00000_2_B1
SEQ_021_00000_2_B2:
	BYTE	W12
// 060   ----------------------------------------
	BYTE	FINE

//**************** Track 3 (Midi-Chn.3) ****************//

SEQ_021_00000_3:
	BYTE	KEYSH   SEQ_021_00000_key+0
// 000   ----------------------------------------
	BYTE		VOICE   84
	BYTE		PAN     c_v-14
	BYTE		VOL     23*SEQ_021_00000_mvl/mxv
	BYTE		MOD     0
	BYTE		TIE     Bn1   v092
	BYTE		TIE     Bn2   v088
	BYTE	W96
// 001   ----------------------------------------
SEQ_021_00000_3_001:
	BYTE		N48     En2   v104
	BYTE		N48     En3   v084
	BYTE	W01
	BYTE	PEND
	BYTE		EOT     Bn1 
	BYTE		        Bn2 
	BYTE	W44
	BYTE	W03
	BYTE		N48     Bn1   v104
	BYTE		N48     Bn2   v084
	BYTE	W48
// 002   ----------------------------------------
SEQ_021_00000_3_002:
	BYTE		N92     Cs2   v104
	BYTE		N92     Cs3   v084
	BYTE	W96
	BYTE	PEND
// 003   ----------------------------------------
	BYTE		N44     An1   v088
	BYTE		N44     An2   v084
	BYTE	W48
	BYTE		        Dn2   v104
	BYTE		N44     Dn3   v084
	BYTE	W36
SEQ_021_00000_3_B1:
	BYTE	W12
// 004   ----------------------------------------
	BYTE		N96     En2   v104
	BYTE		N96     En3   v084
	BYTE	W96
// 005   ----------------------------------------
	BYTE		N44     Fs2   v104
	BYTE		N44     Fs3   v084
	BYTE	W48
	BYTE		        Gn2   v104
	BYTE		N44     Gn3   v084
	BYTE	W48
// 006   ----------------------------------------
	BYTE		N92     An2   v104
	BYTE		N92     An3   v084
	BYTE	W96
// 007   ----------------------------------------
	BYTE		N23     Gn2   v104
	BYTE		N23     Gn3   v084
	BYTE	W24
	BYTE		        Fs2   v104
	BYTE		N23     Fs3   v084
	BYTE	W24
	BYTE		        Dn2   v104
	BYTE		N23     Dn3   v084
	BYTE	W24
	BYTE		        Fs2   v104
	BYTE		N23     Fs3   v084
	BYTE	W24
// 008   ----------------------------------------
	BYTE	W96
// 009   ----------------------------------------
	BYTE	W96
// 010   ----------------------------------------
	BYTE	W96
// 011   ----------------------------------------
	BYTE	W96
// 012   ----------------------------------------
	BYTE	W96
// 013   ----------------------------------------
	BYTE	W96
// 014   ----------------------------------------
	BYTE	W96
// 015   ----------------------------------------
	BYTE	W96
// 016   ----------------------------------------
	BYTE		N92     En2   v092
	BYTE	W96
// 017   ----------------------------------------
	BYTE		N44     En2   v088
	BYTE	W48
	BYTE		        Fs2   v092
	BYTE	W48
// 018   ----------------------------------------
	BYTE		N92     Gn2 
	BYTE	W96
// 019   ----------------------------------------
	BYTE		N48     An2   v088
	BYTE	W48
	BYTE		        Bn2 
	BYTE	W48
// 020   ----------------------------------------
	BYTE		N96     Cn3   v092
	BYTE	W96
// 021   ----------------------------------------
	BYTE		N48     Bn2   v076
	BYTE	W48
	BYTE		N44     As2   v080
	BYTE	W48
// 022   ----------------------------------------
	BYTE		N92     Bn2   v076
	BYTE	W96
// 023   ----------------------------------------
	BYTE		N07     Bn2   v096
	BYTE	W06
	BYTE		        An2   v104
	BYTE	W06
	BYTE		        Gn2   v100
	BYTE	W06
	BYTE		        Fs2   v104
	BYTE	W06
	BYTE		        An2   v096
	BYTE	W06
	BYTE		        Gn2   v100
	BYTE	W06
	BYTE		        Fs2 
	BYTE	W06
	BYTE		        En2   v104
	BYTE	W06
	BYTE		        Gn2   v096
	BYTE	W06
	BYTE		        Fs2   v100
	BYTE	W06
	BYTE		        En2 
	BYTE	W06
	BYTE		        Ds2   v104
	BYTE	W06
	BYTE		        Fs2   v096
	BYTE	W06
	BYTE		        En2   v100
	BYTE	W06
	BYTE		        An1 
	BYTE	W06
	BYTE		        Bn1   v104
	BYTE	W06
// 024   ----------------------------------------
	BYTE		N44     Gn1 
	BYTE	W48
	BYTE		N10   
	BYTE	W12
	BYTE		        An1   v100
	BYTE	W12
	BYTE		        Bn1 
	BYTE	W12
	BYTE		        An1 
	BYTE	W12
// 025   ----------------------------------------
	BYTE		N48     An1   v104
	BYTE	W48
	BYTE		        Dn2   v100
	BYTE	W48
// 026   ----------------------------------------
	BYTE		N92     En2   v088
	BYTE	W96
// 027   ----------------------------------------
	BYTE		N23     En2   v092
	BYTE	W24
	BYTE		        Fs2   v096
	BYTE	W24
	BYTE		        Gn2 
	BYTE	W24
	BYTE		        An2   v100
	BYTE	W24
// 028   ----------------------------------------
	BYTE		N92     Bn2   v104
	BYTE	W96
// 029   ----------------------------------------
	BYTE		N44     An2   v092
	BYTE	W48
	BYTE		        Dn3   v104
	BYTE	W40
	BYTE	W01
	BYTE	W01
	BYTE	W01
	BYTE	W01
	BYTE	W01
	BYTE	W01
	BYTE	W01
	BYTE	W01
// 030   ----------------------------------------
	BYTE		N84     Fs3   v112
	BYTE	W03
	BYTE	W03
	BYTE	W03
	BYTE	W03
	BYTE	W03
	BYTE	W03
	BYTE	W03
	BYTE	W03
	BYTE	W03
	BYTE	W03
	BYTE	W03
	BYTE	W03
	BYTE	W03
	BYTE	W03
	BYTE	W03
	BYTE	W03
	BYTE	W03
	BYTE	W03
	BYTE	W03
	BYTE	W14
	BYTE	W01
	BYTE	W02
	BYTE	W01
	BYTE	W02
	BYTE	W01
	BYTE	W02
	BYTE	W01
	BYTE	W01
	BYTE	W02
	BYTE		N56     En3   v092
	BYTE	W07
	BYTE	W04
	BYTE	W01
// 031   ----------------------------------------
	BYTE	W04
	BYTE	W04
	BYTE	W05
	BYTE	W04
	BYTE	W05
	BYTE	W04
	BYTE	W04
	BYTE	W05
	BYTE	W04
	BYTE	W01
	BYTE	W08
	BYTE		N11     Bn1   v112
	BYTE		N11     Bn2   v116
	BYTE	W12
	BYTE		        Bn1   v112
	BYTE		N11     Bn2   v116
	BYTE	W12
	BYTE		        An1   v112
	BYTE		N11     An2   v116
	BYTE	W04
	BYTE	W03
	BYTE	W03
	BYTE	W02
	BYTE		        Gn1   v112
	BYTE		N11     Gn2   v116
	BYTE	W01
	BYTE	W03
	BYTE	W03
	BYTE	W03
	BYTE	W02
// 032   ----------------------------------------
	BYTE		N56     En0   v088
	BYTE		N56     En1   v108
	BYTE	W60
	BYTE		N12     Fs0   v096
	BYTE		N12     Fs1   v108
	BYTE	W12
	BYTE		        Gn0   v096
	BYTE		N12     Gn1   v100
	BYTE	W12
	BYTE		N68     An0   v096
	BYTE		N68     An1   v100
	BYTE	W12
// 033   ----------------------------------------
	BYTE	W60
	BYTE		N12     Bn0 
	BYTE		N12     Bn1   v112
	BYTE	W12
	BYTE		        Cn1   v096
	BYTE		N12     Cn2   v108
	BYTE	W12
	BYTE		N11     Dn1   v100
	BYTE		N11     Dn2   v104
	BYTE	W12
// 034   ----------------------------------------
	BYTE		N56     Dn1 
	BYTE		N56     Dn2   v100
	BYTE	W60
	BYTE		N11     En1   v104
	BYTE		N11     En2   v108
	BYTE	W12
	BYTE		        Fs1   v100
	BYTE		N11     Fs2   v104
	BYTE	W12
	BYTE		N32     Gs1   v100
	BYTE		N32     Gs2   v108
	BYTE	W12
// 035   ----------------------------------------
	BYTE	W24
	BYTE		N23     An1   v100
	BYTE		N23     An2   v108
	BYTE	W24
	BYTE		N24     Bn1   v100
	BYTE		N24     Bn2   v108
	BYTE	W24
	BYTE		        En1   v092
	BYTE		N24     En2   v108
	BYTE	W24
// 036   ----------------------------------------
	BYTE		N56     Cn2   v100
	BYTE		N56     Cn3   v108
	BYTE	W60
	BYTE		N11     Bn1   v100
	BYTE		N11     Bn2   v112
	BYTE	W12
	BYTE		        An1   v100
	BYTE		N11     An2   v112
	BYTE	W12
	BYTE		        Gn1   v092
	BYTE		N11     Gn2   v108
	BYTE	W12
// 037   ----------------------------------------
	BYTE		N44     Fs1   v092
	BYTE		N44     Fs2   v104
	BYTE	W48
	BYTE		        As1   v092
	BYTE		N44     As2   v100
	BYTE	W48
// 038   ----------------------------------------
	BYTE		N92     Bn1   v092
	BYTE		N92     Bn2   v100
	BYTE	W96
// 039   ----------------------------------------
	BYTE		        Bn1   v092
	BYTE		N92     An2 
	BYTE	W96
// 040   ----------------------------------------
	BYTE	W96
// 041   ----------------------------------------
	BYTE	W96
// 042   ----------------------------------------
	BYTE		N12     Fs1   v096
	BYTE	W12
	BYTE		        Gn1 
	BYTE	W12
	BYTE		        Gs1 
	BYTE	W12
	BYTE		N32     An1   v100
	BYTE	W36
	BYTE		N11     Dn2   v112
	BYTE	W12
	BYTE		N48     Bn1   v096
	BYTE	W12
// 043   ----------------------------------------
	BYTE	W24
	BYTE		N18     Dn2   v112
	BYTE	W18
	BYTE		N17     Bn1   v104
	BYTE	W18
	BYTE		        Cn2 
	BYTE	W18
	BYTE		        Dn2 
	BYTE	W18
// 044   ----------------------------------------
	BYTE		N44     En2 
	BYTE	W48
	BYTE		N12     An1   v112
	BYTE	W12
	BYTE		        Bn1 
	BYTE	W12
	BYTE		        Cn2 
	BYTE	W12
	BYTE		        Dn2 
	BYTE	W12
// 045   ----------------------------------------
	BYTE		N32     Ds2 
	BYTE	W36
	BYTE		N22     En2   v108
	BYTE	W24
	BYTE		N11     Gn2   v104
	BYTE	W12
	BYTE		N22     An2 
	BYTE	W24
// 046   ----------------------------------------
	BYTE		N11     Bn2 
	BYTE	W12
	BYTE		        An2   v100
	BYTE	W12
	BYTE		        Gn2 
	BYTE	W12
	BYTE		N36     Fs2 
	BYTE	W36
	BYTE		N23     En2   v104
	BYTE	W24
// 047   ----------------------------------------
	BYTE		N44     Ds2   v108
	BYTE	W48
	BYTE		N24     En2 
	BYTE	W24
	BYTE		N04     Ds2 
	BYTE	W04
	BYTE		        En2 
	BYTE	W04
	BYTE		        Fs2 
	BYTE	W04
	BYTE		        Gn2 
	BYTE	W04
	BYTE		        An2 
	BYTE	W04
	BYTE		        As2   v100
	BYTE	W04
// 048   ----------------------------------------
	BYTE		N96     Bn2 
	BYTE	W96
// 049   ----------------------------------------
	BYTE		N48     An2 
	BYTE	W48
	BYTE		N24     Gn2 
	BYTE	W24
	BYTE		        Fs2 
	BYTE	W24
// 050   ----------------------------------------
	BYTE		N12     En2 
	BYTE	W12
	BYTE		        Fs2 
	BYTE	W12
	BYTE		        Gn2 
	BYTE	W12
	BYTE		N36     Fs2 
	BYTE	W36
	BYTE		N11     Dn2 
	BYTE	W12
	BYTE		N48     Bn1 
	BYTE	W12
// 051   ----------------------------------------
	BYTE	W36
	BYTE		N23     Dn2 
	BYTE	W24
	BYTE		N18     Cn2 
	BYTE	W18
	BYTE		        Dn2 
	BYTE	W18
// 052   ----------------------------------------
	BYTE		N48     En2   v096
	BYTE	W48
	BYTE		N12     Fs2   v104
	BYTE	W12
	BYTE		        Gn2   v108
	BYTE	W12
	BYTE		        An2 
	BYTE	W12
	BYTE		        Bn2 
	BYTE	W12
// 053   ----------------------------------------
	BYTE		        An2 
	BYTE	W12
	BYTE		        Gn2 
	BYTE	W12
	BYTE		        Fs2 
	BYTE	W12
	BYTE		N56     En2   v104
	BYTE	W60
// 054   ----------------------------------------
	BYTE		N44     Gn2   v092
	BYTE	W48
	BYTE		N24     An2   v096
	BYTE	W24
	BYTE		        Gn2 
	BYTE	W24
// 055   ----------------------------------------
	BYTE		N44     Fs2   v100
	BYTE	W48
	BYTE		N24     En2 
	BYTE	W24
	BYTE		        Ds2   v096
	BYTE	W24
// 056   ----------------------------------------
	BYTE		TIE     Bn1   v104
	BYTE		TIE     Bn2   v084
	BYTE	W96
// 057   ----------------------------------------
	BYTE	PATT
	 POIN2	SEQ_021_00000_3_001
	BYTE		EOT     Bn1 
	BYTE		        Bn2 
	BYTE	W44
	BYTE	W03
	BYTE		N48     Bn1   v104
	BYTE		N48     Bn2   v084
	BYTE	W48
// 058   ----------------------------------------
	BYTE	PATT
	 POIN2	SEQ_021_00000_3_002
// 059   ----------------------------------------
	BYTE		N44     An1   v088
	BYTE		N44     An2   v084
	BYTE	W48
	BYTE		        Dn2   v104
	BYTE		N44     Dn3   v080
	BYTE	W36
	BYTE	GoTo
	 POIN2	SEQ_021_00000_3_B1
SEQ_021_00000_3_B2:
	BYTE	W12
// 060   ----------------------------------------
	BYTE	FINE

//**************** Track 4 (Midi-Chn.4) ****************//

SEQ_021_00000_4:
	BYTE	KEYSH   SEQ_021_00000_key+0
// 000   ----------------------------------------
	BYTE		VOICE   96
	BYTE		VOL     17*SEQ_021_00000_mvl/mxv
	BYTE		PAN     c_v-1
	BYTE		MOD     0
	BYTE		        0
	BYTE		N92     Bn2   v088
	BYTE	W96
// 001   ----------------------------------------
	BYTE		        Bn1   v104
	BYTE		N92     En2   v092
	BYTE	W96
// 002   ----------------------------------------
	BYTE		        Cs2   v100
	BYTE		N92     En2   v076
	BYTE	W96
// 003   ----------------------------------------
	BYTE		        An1   v100
	BYTE		N92     En2   v080
	BYTE	W84
SEQ_021_00000_4_B1:
	BYTE	W12
// 004   ----------------------------------------
	BYTE		N92     Bn1   v084
	BYTE		N92     En2   v080
	BYTE	W96
// 005   ----------------------------------------
	BYTE		        Bn1   v100
	BYTE		N92     En2   v080
	BYTE	W96
// 006   ----------------------------------------
	BYTE		        Cs2   v096
	BYTE		N92     En2   v080
	BYTE	W96
// 007   ----------------------------------------
	BYTE		        An1   v096
	BYTE		N92     En2   v080
	BYTE	W96
// 008   ----------------------------------------
	BYTE		        Bn1   v076
	BYTE		N92     Bn2   v088
	BYTE	W96
// 009   ----------------------------------------
	BYTE		N44     Bn1   v076
	BYTE		N44     En3   v092
	BYTE	W48
	BYTE		        Bn1   v076
	BYTE		N44     Bn2   v092
	BYTE	W48
// 010   ----------------------------------------
	BYTE		N92     En2   v076
	BYTE		N92     Dn3   v096
	BYTE	W96
// 011   ----------------------------------------
	BYTE		N44     En2   v080
	BYTE		N44     En3   v096
	BYTE	W48
	BYTE		        Dn2   v084
	BYTE		N44     Fs3   v096
	BYTE	W48
// 012   ----------------------------------------
	BYTE		N92     Cn2   v084
	BYTE		N92     Gn3   v092
	BYTE	W96
// 013   ----------------------------------------
	BYTE		N44     En2 
	BYTE		N44     En3   v084
	BYTE	W48
	BYTE		        As2   v080
	BYTE		N44     Gn3   v092
	BYTE	W48
// 014   ----------------------------------------
	BYTE		N92     Bn2 
	BYTE		N92     Fs3   v088
	BYTE	W96
// 015   ----------------------------------------
	BYTE		N22     Bn2   v104
	BYTE		N92     Fs3   v088
	BYTE	W24
	BYTE		N22     An2   v104
	BYTE	W24
	BYTE		        Gn2 
	BYTE	W24
	BYTE		        Ds2 
	BYTE	W24
// 016   ----------------------------------------
	BYTE		N92     Bn2   v100
	BYTE		N92     En3   v092
	BYTE	W96
// 017   ----------------------------------------
	BYTE		N44     Bn2   v096
	BYTE		N44     En3   v092
	BYTE	W48
	BYTE		        Gn2 
	BYTE		N44     Bn2   v100
	BYTE	W48
// 018   ----------------------------------------
	BYTE		N92     Gn2   v096
	BYTE		N92     Gn3   v088
	BYTE	W96
// 019   ----------------------------------------
	BYTE		N44     Cn2   v104
	BYTE		N44     An3   v088
	BYTE	W48
	BYTE		        Dn2   v104
	BYTE		N44     Bn3   v088
	BYTE	W48
// 020   ----------------------------------------
	BYTE		N92     Cn2   v104
	BYTE		N92     Gn3   v092
	BYTE	W96
// 021   ----------------------------------------
	BYTE		N44     Gn2   v096
	BYTE		N44     En3   v080
	BYTE	W48
	BYTE		        Fs2   v096
	BYTE		N44     Gn3   v092
	BYTE	W48
// 022   ----------------------------------------
	BYTE		N92     Bn1   v104
	BYTE		N92     Fs3   v088
	BYTE	W96
// 023   ----------------------------------------
	BYTE		        Bn1   v104
	BYTE		N92     Ds3   v092
	BYTE	W96
// 024   ----------------------------------------
	BYTE		N44     En2   v104
	BYTE		N44     Gn2 
	BYTE	W48
	BYTE		N11     En2 
	BYTE		N11     Gn2 
	BYTE	W12
	BYTE		        Fs2 
	BYTE		N11     An2 
	BYTE	W12
	BYTE		        Gn2 
	BYTE		N11     Bn2 
	BYTE	W12
	BYTE		N10     Fs2 
	BYTE		N10     An2 
	BYTE	W12
// 025   ----------------------------------------
	BYTE		N44     Fs2 
	BYTE		N44     An2 
	BYTE	W48
	BYTE		        Dn2 
	BYTE		N44     Fs2 
	BYTE	W48
// 026   ----------------------------------------
	BYTE		N92     Gn2 
	BYTE		N92     Bn2 
	BYTE	W96
// 027   ----------------------------------------
	BYTE		        Fs2 
	BYTE		N92     An2 
	BYTE	W96
// 028   ----------------------------------------
	BYTE		        En2 
	BYTE		N92     Gn2 
	BYTE	W96
// 029   ----------------------------------------
	BYTE		N44     Fs2 
	BYTE		N44     An2 
	BYTE	W48
	BYTE		N23     En2 
	BYTE		N44     Dn3   v096
	BYTE	W24
	BYTE		N23     Dn2   v104
	BYTE	W24
// 030   ----------------------------------------
SEQ_021_00000_4_030:
	BYTE		N92     Gn1   v068
	BYTE		N92     Gn2   v104
	BYTE	W96
	BYTE	PEND
// 031   ----------------------------------------
	BYTE	PATT
	 POIN2	SEQ_021_00000_4_030
// 032   ----------------------------------------
	BYTE		N92     Cn2   v100
	BYTE		N92     En2   v088
	BYTE	W96
// 033   ----------------------------------------
	BYTE		        En2   v084
	BYTE		N92     An2   v072
	BYTE	W96
// 034   ----------------------------------------
SEQ_021_00000_4_034:
	BYTE		N92     En2   v100
	BYTE		N92     An2   v088
	BYTE	W96
	BYTE	PEND
// 035   ----------------------------------------
	BYTE		        En2   v100
	BYTE		N92     Bn2   v088
	BYTE	W96
// 036   ----------------------------------------
	BYTE	PATT
	 POIN2	SEQ_021_00000_4_034
// 037   ----------------------------------------
	BYTE		N92     En2   v100
	BYTE		N92     As2   v088
	BYTE	W96
// 038   ----------------------------------------
	BYTE		        Bn1   v076
	BYTE		N92     En2   v100
	BYTE	W96
// 039   ----------------------------------------
	BYTE		        Bn1   v076
	BYTE		N92     Ds2   v100
	BYTE	W96
// 040   ----------------------------------------
	BYTE		        Bn1 
	BYTE		N92     En2   v084
	BYTE	W96
// 041   ----------------------------------------
	BYTE		        Bn1   v100
	BYTE		N92     Dn2   v084
	BYTE	W96
// 042   ----------------------------------------
	BYTE		N44     Cn2 
	BYTE		N32     En2   v100
	BYTE	W36
	BYTE		N56     Fs2   v088
	BYTE	W12
	BYTE		N44     Fs1   v076
	BYTE	W48
// 043   ----------------------------------------
	BYTE		N32     Bn1   v100
	BYTE		N32     Dn2 
	BYTE	W36
	BYTE		N56     Bn1 
	BYTE		N56     Dn2 
	BYTE	W60
// 044   ----------------------------------------
	BYTE		N32     Cn2 
	BYTE		N32     En2   v088
	BYTE	W36
	BYTE		N56     Dn2   v100
	BYTE		N56     Fs2   v088
	BYTE	W60
// 045   ----------------------------------------
	BYTE		N32     Dn2   v100
	BYTE		N32     Fs2   v088
	BYTE	W36
	BYTE		N56     En2   v100
	BYTE		N56     Gn2   v088
	BYTE	W60
// 046   ----------------------------------------
	BYTE		N32     En2   v100
	BYTE		N32     Gn2   v088
	BYTE	W36
	BYTE		N56     En2   v100
	BYTE		N56     Gn2   v088
	BYTE	W60
// 047   ----------------------------------------
	BYTE		N44     En2   v100
	BYTE		N44     Fs2   v088
	BYTE	W48
	BYTE		        Ds2   v100
	BYTE		N44     Fs2   v088
	BYTE	W48
// 048   ----------------------------------------
	BYTE		N92     En2   v100
	BYTE		N92     Gn2   v088
	BYTE	W96
// 049   ----------------------------------------
	BYTE		        Dn2   v100
	BYTE		N92     Fs2   v088
	BYTE	W96
// 050   ----------------------------------------
	BYTE		N44     Cn2   v100
	BYTE		N44     Gn2   v088
	BYTE	W48
	BYTE		        Dn2   v100
	BYTE		N44     An2   v088
	BYTE	W48
// 051   ----------------------------------------
	BYTE		N32     Dn2   v100
	BYTE		N32     Bn2   v088
	BYTE	W36
	BYTE		N56     Dn2   v100
	BYTE		N56     Bn2   v088
	BYTE	W60
// 052   ----------------------------------------
	BYTE		N32     Bn1   v084
	BYTE		N32     En2 
	BYTE	W36
	BYTE		N44     Dn2   v088
	BYTE		N44     Fs2 
	BYTE	W48
	BYTE		        Ds2   v092
	BYTE		N44     Fs2   v084
	BYTE	W12
// 053   ----------------------------------------
	BYTE	W36
	BYTE		N56     En2   v092
	BYTE		N56     Gn2   v080
	BYTE	W60
// 054   ----------------------------------------
	BYTE		N32     En2   v100
	BYTE		N32     Gn2   v088
	BYTE	W36
	BYTE		N56     Fs2   v092
	BYTE		N56     An2   v088
	BYTE	W60
// 055   ----------------------------------------
	BYTE		N44     Fs2   v084
	BYTE		N44     An2   v088
	BYTE	W48
	BYTE		        Ds2   v084
	BYTE		N44     Fs2   v088
	BYTE	W48
// 056   ----------------------------------------
SEQ_021_00000_4_056:
	BYTE		N92     En2   v096
	BYTE		N92     Gn2   v080
	BYTE	W96
	BYTE	PEND
// 057   ----------------------------------------
	BYTE	PATT
	 POIN2	SEQ_021_00000_4_056
// 058   ----------------------------------------
	BYTE		N92     Cs2   v092
	BYTE		N92     En2   v084
	BYTE	W96
// 059   ----------------------------------------
	BYTE		        Cs2   v092
	BYTE		N92     En2   v084
	BYTE	W84
	BYTE	GoTo
	 POIN2	SEQ_021_00000_4_B1
SEQ_021_00000_4_B2:
	BYTE	W12
// 060   ----------------------------------------
	BYTE	FINE

//**************** Track 5 (Midi-Chn.6) ****************//

SEQ_021_00000_5:
	BYTE	KEYSH   SEQ_021_00000_key+0
// 000   ----------------------------------------
	BYTE		VOICE   96
	BYTE		VOL     25*SEQ_021_00000_mvl/mxv
	BYTE		PAN     c_v+0
	BYTE		MOD     0
	BYTE	W96
// 001   ----------------------------------------
	BYTE	W96
// 002   ----------------------------------------
	BYTE	W96
// 003   ----------------------------------------
SEQ_021_00000_5_003:
	BYTE		N07     An1   v076
	BYTE	W08
	BYTE		        Bn1 
	BYTE	W08
	BYTE		        Cs2   v080
	BYTE	W08
	BYTE		        En2 
	BYTE	W08
	BYTE		        Fs2 
	BYTE	W08
	BYTE		        Gn2   v084
	BYTE	W08
	BYTE		N05     An2 
	BYTE	W06
	BYTE		        Bn2 
	BYTE	W06
	BYTE		        Cs3 
	BYTE	W06
	BYTE		        Dn3 
	BYTE	W06
	BYTE		        En3   v088
	BYTE	W06
	BYTE		        Fs3 
	BYTE	W06
	BYTE	PEND
SEQ_021_00000_5_B1:
	BYTE		N05     Gn3   v088
	BYTE	W06
	BYTE		        An3 
	BYTE	W06
// 004   ----------------------------------------
	BYTE		N92     Bn3 
	BYTE	W96
// 005   ----------------------------------------
	BYTE	W96
// 006   ----------------------------------------
	BYTE	W96
// 007   ----------------------------------------
	BYTE	W96
// 008   ----------------------------------------
	BYTE	W96
// 009   ----------------------------------------
	BYTE	W96
// 010   ----------------------------------------
	BYTE	W96
// 011   ----------------------------------------
	BYTE	W96
// 012   ----------------------------------------
	BYTE	W96
// 013   ----------------------------------------
	BYTE	W96
// 014   ----------------------------------------
	BYTE	W96
// 015   ----------------------------------------
	BYTE	W96
// 016   ----------------------------------------
	BYTE	W96
// 017   ----------------------------------------
	BYTE	W96
// 018   ----------------------------------------
	BYTE	W96
// 019   ----------------------------------------
	BYTE	W96
// 020   ----------------------------------------
	BYTE	W96
// 021   ----------------------------------------
	BYTE	W96
// 022   ----------------------------------------
	BYTE	W96
// 023   ----------------------------------------
	BYTE	W96
// 024   ----------------------------------------
	BYTE	W96
// 025   ----------------------------------------
	BYTE	W96
// 026   ----------------------------------------
	BYTE	W96
// 027   ----------------------------------------
	BYTE	W96
// 028   ----------------------------------------
	BYTE	W96
// 029   ----------------------------------------
	BYTE	W96
// 030   ----------------------------------------
	BYTE	W96
// 031   ----------------------------------------
	BYTE	W96
// 032   ----------------------------------------
	BYTE	W96
// 033   ----------------------------------------
	BYTE	W96
// 034   ----------------------------------------
	BYTE	W96
// 035   ----------------------------------------
	BYTE	W96
// 036   ----------------------------------------
	BYTE	W96
// 037   ----------------------------------------
	BYTE	W96
// 038   ----------------------------------------
	BYTE	W96
// 039   ----------------------------------------
	BYTE	W96
// 040   ----------------------------------------
	BYTE	W96
// 041   ----------------------------------------
	BYTE	W96
// 042   ----------------------------------------
	BYTE	W96
// 043   ----------------------------------------
	BYTE	W96
// 044   ----------------------------------------
	BYTE	W96
// 045   ----------------------------------------
	BYTE	W96
// 046   ----------------------------------------
	BYTE	W96
// 047   ----------------------------------------
	BYTE	W96
// 048   ----------------------------------------
	BYTE	W96
// 049   ----------------------------------------
	BYTE	W96
// 050   ----------------------------------------
	BYTE	W96
// 051   ----------------------------------------
	BYTE	W96
// 052   ----------------------------------------
	BYTE	W96
// 053   ----------------------------------------
	BYTE	W96
// 054   ----------------------------------------
	BYTE	W96
// 055   ----------------------------------------
	BYTE	W96
// 056   ----------------------------------------
	BYTE	W96
// 057   ----------------------------------------
	BYTE	W96
// 058   ----------------------------------------
	BYTE	W96
// 059   ----------------------------------------
	BYTE	PATT
	 POIN2	SEQ_021_00000_5_003
	BYTE	GoTo
	 POIN2	SEQ_021_00000_5_B1
SEQ_021_00000_5_B2:
	BYTE		N05     Gn3   v088
	BYTE	W06
	BYTE		        An3 
	BYTE	W06
// 060   ----------------------------------------
	BYTE	FINE

//**************** Track 6 (Midi-Chn.7) ****************//

SEQ_021_00000_6:
	BYTE	KEYSH   SEQ_021_00000_key+0
// 000   ----------------------------------------
	BYTE		VOICE   46
	BYTE		PAN     c_v-32
	BYTE		VOL     46*SEQ_021_00000_mvl/mxv
	BYTE		MOD     0
	BYTE	W96
// 001   ----------------------------------------
	BYTE	W96
// 002   ----------------------------------------
	BYTE	W96
// 003   ----------------------------------------
	BYTE	W84
SEQ_021_00000_6_B1:
	BYTE	W12
// 004   ----------------------------------------
	BYTE	W96
// 005   ----------------------------------------
	BYTE	W96
// 006   ----------------------------------------
	BYTE	W96
// 007   ----------------------------------------
	BYTE	W96
// 008   ----------------------------------------
	BYTE	W96
// 009   ----------------------------------------
	BYTE	W96
// 010   ----------------------------------------
	BYTE	W96
// 011   ----------------------------------------
	BYTE	W96
// 012   ----------------------------------------
	BYTE	W96
// 013   ----------------------------------------
	BYTE	W96
// 014   ----------------------------------------
	BYTE	W96
// 015   ----------------------------------------
	BYTE	W96
// 016   ----------------------------------------
	BYTE	W96
// 017   ----------------------------------------
	BYTE	W96
// 018   ----------------------------------------
	BYTE	W96
// 019   ----------------------------------------
	BYTE	W96
// 020   ----------------------------------------
	BYTE	W96
// 021   ----------------------------------------
	BYTE	W96
// 022   ----------------------------------------
	BYTE	W96
// 023   ----------------------------------------
	BYTE	W96
// 024   ----------------------------------------
SEQ_021_00000_6_024:
	BYTE		N03     Cn1   v116
	BYTE	W06
	BYTE		        En1   v112
	BYTE	W06
	BYTE		        Gn1 
	BYTE	W06
	BYTE		        Cn2 
	BYTE	W06
	BYTE		        En2   v108
	BYTE	W06
	BYTE		        Gn2 
	BYTE	W06
	BYTE		        Cn3   v104
	BYTE	W06
	BYTE		        En3 
	BYTE	W06
	BYTE		        Gn3   v100
	BYTE	W06
	BYTE		        En3   v104
	BYTE	W06
	BYTE		        Cn3 
	BYTE	W06
	BYTE		        Gn2 
	BYTE	W06
	BYTE		        En2   v108
	BYTE	W06
	BYTE		        Cn2 
	BYTE	W06
	BYTE		        Gn1   v112
	BYTE	W06
	BYTE		        En1 
	BYTE	W06
	BYTE	PEND
// 025   ----------------------------------------
	BYTE	W96
// 026   ----------------------------------------
SEQ_021_00000_6_026:
	BYTE		N03     En1   v120
	BYTE	W06
	BYTE		        Gn1   v116
	BYTE	W06
	BYTE		        Bn1 
	BYTE	W06
	BYTE		        En2 
	BYTE	W06
	BYTE		        Gn2   v112
	BYTE	W06
	BYTE		        Bn2 
	BYTE	W06
	BYTE		        En3   v108
	BYTE	W06
	BYTE		        Gn3 
	BYTE	W06
	BYTE		        Bn3   v104
	BYTE	W06
	BYTE		        Gn3   v108
	BYTE	W06
	BYTE		        En3 
	BYTE	W06
	BYTE		        Bn2   v112
	BYTE	W06
	BYTE		        Gn2 
	BYTE	W06
	BYTE		        En2   v116
	BYTE	W06
	BYTE		        Bn1 
	BYTE	W06
	BYTE		        Gn1   v120
	BYTE	W06
	BYTE	PEND
// 027   ----------------------------------------
	BYTE	W96
// 028   ----------------------------------------
	BYTE	PATT
	 POIN2	SEQ_021_00000_6_024
// 029   ----------------------------------------
	BYTE	W96
// 030   ----------------------------------------
	BYTE	PATT
	 POIN2	SEQ_021_00000_6_026
// 031   ----------------------------------------
	BYTE	W96
// 032   ----------------------------------------
	BYTE	W96
// 033   ----------------------------------------
	BYTE	W96
// 034   ----------------------------------------
	BYTE	W96
// 035   ----------------------------------------
	BYTE	W96
// 036   ----------------------------------------
	BYTE	W96
// 037   ----------------------------------------
	BYTE	W96
// 038   ----------------------------------------
	BYTE	W96
// 039   ----------------------------------------
	BYTE	W96
// 040   ----------------------------------------
	BYTE	W96
// 041   ----------------------------------------
	BYTE	W96
// 042   ----------------------------------------
	BYTE	W96
// 043   ----------------------------------------
	BYTE	W96
// 044   ----------------------------------------
	BYTE	W96
// 045   ----------------------------------------
	BYTE	W96
// 046   ----------------------------------------
	BYTE	W96
// 047   ----------------------------------------
	BYTE	W96
// 048   ----------------------------------------
	BYTE	W96
// 049   ----------------------------------------
	BYTE	W96
// 050   ----------------------------------------
	BYTE	W96
// 051   ----------------------------------------
	BYTE	W96
// 052   ----------------------------------------
	BYTE	W96
// 053   ----------------------------------------
	BYTE	W96
// 054   ----------------------------------------
	BYTE	W96
// 055   ----------------------------------------
	BYTE	W96
// 056   ----------------------------------------
	BYTE	W96
// 057   ----------------------------------------
	BYTE	W96
// 058   ----------------------------------------
	BYTE	W96
// 059   ----------------------------------------
	BYTE	W84
	BYTE	GoTo
	 POIN2	SEQ_021_00000_6_B1
SEQ_021_00000_6_B2:
	BYTE	W12
// 060   ----------------------------------------
	BYTE	FINE

//**************** Track 7 (Midi-Chn.8) ****************//

SEQ_021_00000_7:
	BYTE	KEYSH   SEQ_021_00000_key+0
// 000   ----------------------------------------
	BYTE		VOICE   46
	BYTE		PAN     c_v+31
	BYTE		VOL     43*SEQ_021_00000_mvl/mxv
	BYTE		MOD     0
	BYTE	W96
// 001   ----------------------------------------
	BYTE	W96
// 002   ----------------------------------------
	BYTE	W96
// 003   ----------------------------------------
	BYTE	W84
SEQ_021_00000_7_B1:
	BYTE	W12
// 004   ----------------------------------------
	BYTE	W96
// 005   ----------------------------------------
	BYTE	W96
// 006   ----------------------------------------
	BYTE	W96
// 007   ----------------------------------------
	BYTE	W96
// 008   ----------------------------------------
	BYTE	W96
// 009   ----------------------------------------
	BYTE	W96
// 010   ----------------------------------------
	BYTE	W96
// 011   ----------------------------------------
	BYTE	W96
// 012   ----------------------------------------
	BYTE	W96
// 013   ----------------------------------------
	BYTE	W96
// 014   ----------------------------------------
	BYTE	W96
// 015   ----------------------------------------
	BYTE	W96
// 016   ----------------------------------------
	BYTE	W96
// 017   ----------------------------------------
	BYTE	W96
// 018   ----------------------------------------
	BYTE	W96
// 019   ----------------------------------------
	BYTE	W96
// 020   ----------------------------------------
	BYTE	W96
// 021   ----------------------------------------
	BYTE	W96
// 022   ----------------------------------------
	BYTE	W96
// 023   ----------------------------------------
	BYTE	W96
// 024   ----------------------------------------
	BYTE	W96
// 025   ----------------------------------------
SEQ_021_00000_7_025:
	BYTE		N03     Dn1   v116
	BYTE	W06
	BYTE		        Fs1 
	BYTE	W06
	BYTE		        An1   v112
	BYTE	W06
	BYTE		        Dn2 
	BYTE	W06
	BYTE		        Fs2   v108
	BYTE	W06
	BYTE		        An2 
	BYTE	W06
	BYTE		        Dn3   v104
	BYTE	W06
	BYTE		        Fs3 
	BYTE	W06
	BYTE		        An3 
	BYTE	W06
	BYTE		        Fs3 
	BYTE	W06
	BYTE		        Dn3   v108
	BYTE	W06
	BYTE		        An2 
	BYTE	W06
	BYTE		        Fs2 
	BYTE	W06
	BYTE		        Dn2   v112
	BYTE	W06
	BYTE		        An1 
	BYTE	W06
	BYTE		        Dn1   v116
	BYTE	W06
	BYTE	PEND
// 026   ----------------------------------------
	BYTE	W96
// 027   ----------------------------------------
	BYTE		        Dn1   v120
	BYTE	W06
	BYTE		        Fs1 
	BYTE	W06
	BYTE		        An1   v116
	BYTE	W06
	BYTE		        Dn2 
	BYTE	W06
	BYTE		        Fs2   v112
	BYTE	W06
	BYTE		        An2 
	BYTE	W06
	BYTE		        Dn3   v108
	BYTE	W06
	BYTE		        Fs3 
	BYTE	W06
	BYTE		        An3 
	BYTE	W06
	BYTE		        Fs3 
	BYTE	W06
	BYTE		        Dn3 
	BYTE	W06
	BYTE		        An2   v112
	BYTE	W06
	BYTE		        Fs2 
	BYTE	W06
	BYTE		        Dn2   v116
	BYTE	W06
	BYTE		        An1 
	BYTE	W06
	BYTE		        Fs1   v120
	BYTE	W06
// 028   ----------------------------------------
	BYTE	W96
// 029   ----------------------------------------
	BYTE	PATT
	 POIN2	SEQ_021_00000_7_025
// 030   ----------------------------------------
	BYTE	W96
// 031   ----------------------------------------
	BYTE		N03     En1   v120
	BYTE	W06
	BYTE		        Gn1   v116
	BYTE	W06
	BYTE		        Bn1 
	BYTE	W06
	BYTE		        En2 
	BYTE	W06
	BYTE		        Gn2   v112
	BYTE	W06
	BYTE		        Bn2 
	BYTE	W06
	BYTE		        En3   v108
	BYTE	W06
	BYTE		        Gn3 
	BYTE	W06
	BYTE		        Bn3   v104
	BYTE	W06
	BYTE		        Gn3   v108
	BYTE	W06
	BYTE		        En3 
	BYTE	W06
	BYTE		        Bn2   v112
	BYTE	W06
	BYTE		        Gn2 
	BYTE	W06
	BYTE		        En2   v116
	BYTE	W06
	BYTE		        Bn1 
	BYTE	W06
	BYTE		        Gn1   v120
	BYTE	W06
// 032   ----------------------------------------
	BYTE	W96
// 033   ----------------------------------------
	BYTE	W96
// 034   ----------------------------------------
	BYTE	W96
// 035   ----------------------------------------
	BYTE	W96
// 036   ----------------------------------------
	BYTE	W96
// 037   ----------------------------------------
	BYTE	W96
// 038   ----------------------------------------
	BYTE	W96
// 039   ----------------------------------------
	BYTE	W96
// 040   ----------------------------------------
	BYTE	W96
// 041   ----------------------------------------
	BYTE	W96
// 042   ----------------------------------------
	BYTE	W96
// 043   ----------------------------------------
	BYTE	W96
// 044   ----------------------------------------
	BYTE	W96
// 045   ----------------------------------------
	BYTE	W96
// 046   ----------------------------------------
	BYTE	W96
// 047   ----------------------------------------
	BYTE	W96
// 048   ----------------------------------------
	BYTE	W96
// 049   ----------------------------------------
	BYTE	W96
// 050   ----------------------------------------
	BYTE	W96
// 051   ----------------------------------------
	BYTE	W96
// 052   ----------------------------------------
	BYTE	W96
// 053   ----------------------------------------
	BYTE	W96
// 054   ----------------------------------------
	BYTE	W96
// 055   ----------------------------------------
	BYTE	W96
// 056   ----------------------------------------
	BYTE	W96
// 057   ----------------------------------------
	BYTE	W96
// 058   ----------------------------------------
	BYTE	W96
// 059   ----------------------------------------
	BYTE	W84
	BYTE	GoTo
	 POIN2	SEQ_021_00000_7_B1
SEQ_021_00000_7_B2:
	BYTE	W12
// 060   ----------------------------------------
	BYTE	FINE

//**************** Track 8 (Midi-Chn.9) ****************//

SEQ_021_00000_8:
	BYTE	KEYSH   SEQ_021_00000_key+0
// 000   ----------------------------------------
	BYTE		VOICE   36
	BYTE		VOL     45*SEQ_021_00000_mvl/mxv
	BYTE		PAN     c_v-20
	BYTE		MOD     0
	BYTE		N17     En1   v127
	BYTE	W18
	BYTE		        Bn1 
	BYTE	W18
	BYTE		N23     En2 
	BYTE	W24
	BYTE		        Bn1 
	BYTE	W24
	BYTE		N11     En2 
	BYTE	W12
// 001   ----------------------------------------
SEQ_021_00000_8_001:
	BYTE		N17     En1   v127
	BYTE	W18
	BYTE		        Bn1 
	BYTE	W18
	BYTE		N23     En2 
	BYTE	W24
	BYTE		        Bn1 
	BYTE	W24
	BYTE		N11     En2 
	BYTE	W12
	BYTE	PEND
// 002   ----------------------------------------
SEQ_021_00000_8_002:
	BYTE		N17     An1   v127
	BYTE	W18
	BYTE		        En2 
	BYTE	W18
	BYTE		N23     An2 
	BYTE	W24
	BYTE		        En2 
	BYTE	W24
	BYTE		N11     An2 
	BYTE	W12
	BYTE	PEND
// 003   ----------------------------------------
SEQ_021_00000_8_003:
	BYTE		N17     An1   v127
	BYTE	W18
	BYTE		        En2 
	BYTE	W18
	BYTE		N23     An2 
	BYTE	W24
	BYTE		        En2 
	BYTE	W24
	BYTE	PEND
SEQ_021_00000_8_B1:
	BYTE		N11     An2   v127
	BYTE	W12
// 004   ----------------------------------------
	BYTE	PATT
	 POIN2	SEQ_021_00000_8_001
// 005   ----------------------------------------
	BYTE	PATT
	 POIN2	SEQ_021_00000_8_001
// 006   ----------------------------------------
	BYTE	PATT
	 POIN2	SEQ_021_00000_8_002
// 007   ----------------------------------------
	BYTE		N11     En1   v127
	BYTE	W12
	BYTE		N17     An1 
	BYTE	W18
	BYTE		        Gn1 
	BYTE	W18
	BYTE		        Fs1 
	BYTE	W18
	BYTE		        En1 
	BYTE	W18
	BYTE		N11     Dn1 
	BYTE	W12
// 008   ----------------------------------------
	BYTE		N17     En2 
	BYTE	W18
	BYTE		N05   
	BYTE	W06
	BYTE		N05   
	BYTE	W12
	BYTE		N05   
	BYTE	W06
	BYTE		N05   
	BYTE	W06
	BYTE		N11   
	BYTE	W12
	BYTE		        Bn1 
	BYTE	W12
	BYTE		        Dn2 
	BYTE	W12
	BYTE		        En2 
	BYTE	W12
// 009   ----------------------------------------
	BYTE		N17   
	BYTE	W18
	BYTE		N17   
	BYTE	W18
	BYTE		N05   
	BYTE	W06
	BYTE		N05   
	BYTE	W06
	BYTE		N11   
	BYTE	W12
	BYTE		        Gn2 
	BYTE	W12
	BYTE		        Fs2 
	BYTE	W12
	BYTE		        Dn2 
	BYTE	W12
// 010   ----------------------------------------
	BYTE		        Cn2 
	BYTE	W12
	BYTE		N04   
	BYTE	W06
	BYTE		N04   
	BYTE	W06
	BYTE		N04   
	BYTE	W12
	BYTE		N04   
	BYTE	W06
	BYTE		N04   
	BYTE	W06
	BYTE		N11   
	BYTE	W12
	BYTE		        Gn1 
	BYTE	W12
	BYTE		        Bn1 
	BYTE	W12
	BYTE		        Cn2 
	BYTE	W12
// 011   ----------------------------------------
	BYTE		N16   
	BYTE	W18
	BYTE		N05   
	BYTE	W06
	BYTE		N11   
	BYTE	W12
	BYTE		N05   
	BYTE	W06
	BYTE		N05   
	BYTE	W06
	BYTE		N11   
	BYTE	W12
	BYTE		        En2 
	BYTE	W12
	BYTE		        Dn2 
	BYTE	W12
	BYTE		        Cn2 
	BYTE	W12
// 012   ----------------------------------------
	BYTE		        An1 
	BYTE	W12
	BYTE		N05   
	BYTE	W06
	BYTE		N05   
	BYTE	W06
	BYTE		N05   
	BYTE	W12
	BYTE		N05   
	BYTE	W06
	BYTE		N05   
	BYTE	W06
	BYTE		N11   
	BYTE	W12
	BYTE		        En1 
	BYTE	W12
	BYTE		        Gn1 
	BYTE	W12
	BYTE		        An1 
	BYTE	W12
// 013   ----------------------------------------
	BYTE		N11   
	BYTE	W12
	BYTE		N05   
	BYTE	W06
	BYTE		N05   
	BYTE	W18
	BYTE		N23     As1 
	BYTE	W24
	BYTE		N11   
	BYTE	W12
	BYTE		        Bn1 
	BYTE	W12
	BYTE		        Cn2 
	BYTE	W12
// 014   ----------------------------------------
	BYTE		        Bn1 
	BYTE	W12
	BYTE		N05   
	BYTE	W06
	BYTE		N05   
	BYTE	W06
	BYTE		N05   
	BYTE	W12
	BYTE		N05   
	BYTE	W06
	BYTE		N05   
	BYTE	W06
	BYTE		N11   
	BYTE	W12
	BYTE		        En2 
	BYTE	W12
	BYTE		        Fs2 
	BYTE	W12
	BYTE		N23     En1 
	BYTE	W12
// 015   ----------------------------------------
	BYTE	W12
	BYTE		N11     Bn1 
	BYTE	W12
	BYTE		        En2 
	BYTE	W12
	BYTE		        Bn2 
	BYTE	W12
	BYTE		        An2 
	BYTE	W12
	BYTE		        Gn2 
	BYTE	W12
	BYTE		        Ds2 
	BYTE	W12
	BYTE		        Fs2 
	BYTE	W12
// 016   ----------------------------------------
	BYTE		        En2 
	BYTE	W12
	BYTE		N04   
	BYTE	W06
	BYTE		N04   
	BYTE	W06
	BYTE		N04   
	BYTE	W12
	BYTE		N04   
	BYTE	W06
	BYTE		N04   
	BYTE	W06
	BYTE		N05   
	BYTE	W06
	BYTE		N05   
	BYTE	W06
	BYTE		N11     Bn1 
	BYTE	W12
	BYTE		        Dn2 
	BYTE	W12
	BYTE		        En2 
	BYTE	W12
// 017   ----------------------------------------
	BYTE		N11   
	BYTE	W12
	BYTE		N05   
	BYTE	W06
	BYTE		N05   
	BYTE	W06
	BYTE		N11   
	BYTE	W12
	BYTE		N05   
	BYTE	W06
	BYTE		N05   
	BYTE	W06
	BYTE		N05   
	BYTE	W06
	BYTE		N05   
	BYTE	W06
	BYTE		N11     Gn2 
	BYTE	W12
	BYTE		        Fs2 
	BYTE	W12
	BYTE		        Dn2 
	BYTE	W12
// 018   ----------------------------------------
	BYTE		        Cn2 
	BYTE	W12
	BYTE		N05   
	BYTE	W06
	BYTE		N05   
	BYTE	W06
	BYTE		N05   
	BYTE	W12
	BYTE		N05   
	BYTE	W06
	BYTE		N05   
	BYTE	W06
	BYTE		N11   
	BYTE	W12
	BYTE		        Fs1 
	BYTE	W12
	BYTE		        Bn1 
	BYTE	W12
	BYTE		        Cn2 
	BYTE	W12
// 019   ----------------------------------------
	BYTE		N11   
	BYTE	W12
	BYTE		N05   
	BYTE	W06
	BYTE		N05   
	BYTE	W06
	BYTE		N11   
	BYTE	W12
	BYTE		N05   
	BYTE	W06
	BYTE		N05   
	BYTE	W06
	BYTE		N05   
	BYTE	W06
	BYTE		N05   
	BYTE	W06
	BYTE		N11     En2 
	BYTE	W12
	BYTE		        Dn2 
	BYTE	W12
	BYTE		        Cn2 
	BYTE	W12
// 020   ----------------------------------------
	BYTE		        An1 
	BYTE	W12
	BYTE		N05   
	BYTE	W06
	BYTE		N05   
	BYTE	W06
	BYTE		N04   
	BYTE	W12
	BYTE		N04   
	BYTE	W06
	BYTE		N04   
	BYTE	W06
	BYTE		N05   
	BYTE	W06
	BYTE		N05   
	BYTE	W06
	BYTE		N11     En1 
	BYTE	W12
	BYTE		        Gn1 
	BYTE	W12
	BYTE		        An1 
	BYTE	W12
// 021   ----------------------------------------
	BYTE		N11   
	BYTE	W12
	BYTE		N04   
	BYTE	W06
	BYTE		N04   
	BYTE	W18
	BYTE		N23     As1 
	BYTE	W24
	BYTE		N11   
	BYTE	W12
	BYTE		        Bn1 
	BYTE	W12
	BYTE		        Cn2 
	BYTE	W12
// 022   ----------------------------------------
	BYTE		        Bn1 
	BYTE	W12
	BYTE		N04   
	BYTE	W06
	BYTE		N04   
	BYTE	W06
	BYTE		N04   
	BYTE	W12
	BYTE		N04   
	BYTE	W06
	BYTE		N04   
	BYTE	W06
	BYTE		N11   
	BYTE	W12
	BYTE		        En2 
	BYTE	W12
	BYTE		        Fs2 
	BYTE	W12
	BYTE		        Bn1 
	BYTE	W12
// 023   ----------------------------------------
	BYTE		        En1 
	BYTE	W12
	BYTE		        Bn1 
	BYTE	W12
	BYTE		        En2 
	BYTE	W12
	BYTE		        Bn2 
	BYTE	W12
	BYTE		        An2 
	BYTE	W12
	BYTE		        Gn2 
	BYTE	W12
	BYTE		        Ds2 
	BYTE	W12
	BYTE		        Fs2 
	BYTE	W12
// 024   ----------------------------------------
SEQ_021_00000_8_024:
	BYTE		N32     Cn2   v127
	BYTE	W36
	BYTE		N11   
	BYTE	W12
	BYTE		        Cn3 
	BYTE	W12
	BYTE		        Cn2 
	BYTE	W12
	BYTE		        Cs2 
	BYTE	W12
	BYTE		N23     Dn2 
	BYTE	W12
	BYTE	PEND
// 025   ----------------------------------------
	BYTE	W12
	BYTE		        An1 
	BYTE	W24
	BYTE		N11     Dn2 
	BYTE	W12
	BYTE		N23     Fs2 
	BYTE	W24
	BYTE		N11     En2 
	BYTE	W12
	BYTE		        Dn2 
	BYTE	W12
// 026   ----------------------------------------
SEQ_021_00000_8_026:
	BYTE		N32     En1   v127
	BYTE	W36
	BYTE		N11   
	BYTE	W12
	BYTE		        En2 
	BYTE	W12
	BYTE		        Dn2 
	BYTE	W12
	BYTE		        Ds2 
	BYTE	W12
	BYTE		N23     En2 
	BYTE	W12
	BYTE	PEND
// 027   ----------------------------------------
	BYTE	W12
	BYTE		        Bn1 
	BYTE	W24
	BYTE		N11     En2 
	BYTE	W12
	BYTE		        Dn2 
	BYTE	W12
	BYTE		N11   
	BYTE	W12
	BYTE		        Dn1 
	BYTE	W12
	BYTE		        Dn2 
	BYTE	W12
// 028   ----------------------------------------
	BYTE	PATT
	 POIN2	SEQ_021_00000_8_024
// 029   ----------------------------------------
	BYTE	W12
	BYTE		N23     An1   v127
	BYTE	W24
	BYTE		N11     Dn2 
	BYTE	W12
	BYTE		N23     Fs2 
	BYTE	W24
	BYTE		N11     Dn2 
	BYTE	W12
	BYTE		N11   
	BYTE	W12
// 030   ----------------------------------------
	BYTE	PATT
	 POIN2	SEQ_021_00000_8_026
// 031   ----------------------------------------
	BYTE	W12
	BYTE		N23     En1   v127
	BYTE	W24
	BYTE		N11     En2 
	BYTE	W12
	BYTE		        Dn2 
	BYTE	W12
	BYTE		N02   
	BYTE	W06
	BYTE		N02   
	BYTE	W06
	BYTE		N10   
	BYTE	W12
	BYTE		N10   
	BYTE	W12
// 032   ----------------------------------------
SEQ_021_00000_8_032:
	BYTE		N11     Cn1   v127
	BYTE	W12
	BYTE		N05     Cn2 
	BYTE	W12
	BYTE		N11     Cn1 
	BYTE	W12
	BYTE		N05     Cn2 
	BYTE	W12
	BYTE		N11     Cn1 
	BYTE	W12
	BYTE		N05     Cn2 
	BYTE	W12
	BYTE		N11     Cn1 
	BYTE	W12
	BYTE		N05     Cn2 
	BYTE	W12
	BYTE	PEND
// 033   ----------------------------------------
	BYTE	PATT
	 POIN2	SEQ_021_00000_8_032
// 034   ----------------------------------------
	BYTE		N11     Bn0   v096
	BYTE	W12
	BYTE		N05     Bn1   v127
	BYTE	W12
	BYTE		N11     Bn0   v096
	BYTE	W12
	BYTE		N05     Bn1   v127
	BYTE	W12
	BYTE		N11     Bn0   v096
	BYTE	W12
	BYTE		N05     Bn1   v127
	BYTE	W12
	BYTE		N11     Bn0   v096
	BYTE	W12
	BYTE		N05     Bn1   v127
	BYTE	W12
// 035   ----------------------------------------
	BYTE		N11     En1 
	BYTE	W12
	BYTE		N05     En2 
	BYTE	W12
	BYTE		N11     Fs1 
	BYTE	W12
	BYTE		N05     Fs2 
	BYTE	W12
	BYTE		N11     Gs1 
	BYTE	W12
	BYTE		N05     Gs2 
	BYTE	W12
	BYTE		N11     En1 
	BYTE	W12
	BYTE		N05     En2 
	BYTE	W12
// 036   ----------------------------------------
	BYTE		N11     An1 
	BYTE	W12
	BYTE		        Gn1 
	BYTE	W24
	BYTE		        An1 
	BYTE	W24
	BYTE		        Gn1 
	BYTE	W12
	BYTE		        An1 
	BYTE	W12
	BYTE		N23     As1 
	BYTE	W12
// 037   ----------------------------------------
	BYTE	W12
	BYTE		N11   
	BYTE	W12
	BYTE		        Gs1 
	BYTE	W24
	BYTE		        As1 
	BYTE	W12
	BYTE		        As2 
	BYTE	W24
	BYTE		        Bn1 
	BYTE	W12
// 038   ----------------------------------------
	BYTE	W12
	BYTE		        Bn0   v096
	BYTE	W24
	BYTE		N11   
	BYTE	W24
	BYTE		N11   
	BYTE	W12
	BYTE		        Dn1   v127
	BYTE	W12
	BYTE		N22     Ds1 
	BYTE	W12
// 039   ----------------------------------------
	BYTE	W12
	BYTE		N05   
	BYTE	W06
	BYTE		N05   
	BYTE	W06
	BYTE		N11     Fn1 
	BYTE	W12
	BYTE		        Cn2 
	BYTE	W12
	BYTE		        Bn1 
	BYTE	W12
	BYTE		        An1 
	BYTE	W12
	BYTE		        Gn1 
	BYTE	W12
	BYTE		        Fs1 
	BYTE	W12
// 040   ----------------------------------------
	BYTE		N10     En1 
	BYTE	W12
	BYTE		N05   
	BYTE	W06
	BYTE		N05   
	BYTE	W06
	BYTE		N11     En2 
	BYTE	W12
	BYTE		N04     En1 
	BYTE	W06
	BYTE		N04   
	BYTE	W06
	BYTE		N11     Bn1 
	BYTE	W12
	BYTE		N04     En1 
	BYTE	W06
	BYTE		N04   
	BYTE	W06
	BYTE		N11     Dn2 
	BYTE	W12
	BYTE		N23     Bn1 
	BYTE	W12
// 041   ----------------------------------------
	BYTE	W12
	BYTE		N11   
	BYTE	W12
	BYTE		        Dn2 
	BYTE	W12
	BYTE		        Bn1 
	BYTE	W12
	BYTE		        Fs2 
	BYTE	W12
	BYTE		        Bn1 
	BYTE	W12
	BYTE		        Dn2 
	BYTE	W12
	BYTE		        Bn1 
	BYTE	W12
// 042   ----------------------------------------
	BYTE		        Cn1 
	BYTE	W12
	BYTE		        Dn1 
	BYTE	W12
	BYTE		        En1 
	BYTE	W12
	BYTE		N23     Fs1 
	BYTE	W24
	BYTE		N11     Dn1 
	BYTE	W12
	BYTE		        En1 
	BYTE	W12
	BYTE		        Fs1 
	BYTE	W12
// 043   ----------------------------------------
	BYTE		        Gn1 
	BYTE	W12
	BYTE		        Gn2 
	BYTE	W12
	BYTE		        Gn1 
	BYTE	W12
	BYTE		N23     Gs1 
	BYTE	W24
	BYTE		N11     An1 
	BYTE	W12
	BYTE		        Bn1 
	BYTE	W12
	BYTE		        Dn2 
	BYTE	W12
// 044   ----------------------------------------
	BYTE		        An1 
	BYTE	W12
	BYTE		        Bn1 
	BYTE	W12
	BYTE		        Cn2 
	BYTE	W12
	BYTE		N23     Dn2 
	BYTE	W24
	BYTE		N11   
	BYTE	W12
	BYTE		N11   
	BYTE	W12
	BYTE		N11   
	BYTE	W12
// 045   ----------------------------------------
	BYTE		        Bn1 
	BYTE	W12
	BYTE		        Dn2 
	BYTE	W12
	BYTE		        Ds2 
	BYTE	W12
	BYTE		N23     En2 
	BYTE	W24
	BYTE		N10   
	BYTE	W12
	BYTE		        Dn2 
	BYTE	W12
	BYTE		        Dn3 
	BYTE	W12
// 046   ----------------------------------------
	BYTE		        An1 
	BYTE	W12
	BYTE		        An2 
	BYTE	W12
	BYTE		        An1 
	BYTE	W12
	BYTE		N23     Fs1 
	BYTE	W24
	BYTE		N11     Gn2 
	BYTE	W12
	BYTE		        An2 
	BYTE	W12
	BYTE		        Gn2 
	BYTE	W12
// 047   ----------------------------------------
	BYTE		        Fs1 
	BYTE	W12
	BYTE		N05     Fs2 
	BYTE	W12
	BYTE		N11     Fs1 
	BYTE	W12
	BYTE		N05     Fs2 
	BYTE	W12
	BYTE		        Bn1 
	BYTE	W06
	BYTE		        En2 
	BYTE	W06
	BYTE		        Fn2 
	BYTE	W06
	BYTE		        Fs2 
	BYTE	W06
	BYTE		        En2 
	BYTE	W06
	BYTE		        Fs2 
	BYTE	W06
	BYTE		        Bn2 
	BYTE	W06
	BYTE		        An2 
	BYTE	W06
// 048   ----------------------------------------
	BYTE		N11     Bn1 
	BYTE	W12
	BYTE		N05   
	BYTE	W06
	BYTE		N05   
	BYTE	W06
	BYTE		N11     En2 
	BYTE	W12
	BYTE		N05     Bn1 
	BYTE	W06
	BYTE		N05   
	BYTE	W06
	BYTE		N11     Dn2 
	BYTE	W12
	BYTE		N05     Bn1 
	BYTE	W06
	BYTE		N05   
	BYTE	W06
	BYTE		N11   
	BYTE	W12
	BYTE		N05     Bn0   v096
	BYTE	W06
	BYTE		N05   
	BYTE	W06
// 049   ----------------------------------------
	BYTE		N11   
	BYTE	W12
	BYTE		N04   
	BYTE	W06
	BYTE		N04   
	BYTE	W06
	BYTE		N11     Fs2   v127
	BYTE	W12
	BYTE		N04     Bn0   v096
	BYTE	W06
	BYTE		N04   
	BYTE	W06
	BYTE		N11     En2   v127
	BYTE	W12
	BYTE		N04     Bn0   v096
	BYTE	W06
	BYTE		N04   
	BYTE	W06
	BYTE		N11     Dn2   v127
	BYTE	W12
	BYTE		N04     Bn0   v096
	BYTE	W06
	BYTE		N04   
	BYTE	W06
// 050   ----------------------------------------
	BYTE		N11   
	BYTE	W12
	BYTE		N05   
	BYTE	W06
	BYTE		N05   
	BYTE	W06
	BYTE		N11   
	BYTE	W12
	BYTE		N23     Fs1   v127
	BYTE	W24
	BYTE		N11     Dn1 
	BYTE	W12
	BYTE		        En1 
	BYTE	W12
	BYTE		        Fs1 
	BYTE	W12
// 051   ----------------------------------------
	BYTE		        Gn1 
	BYTE	W12
	BYTE		N05   
	BYTE	W12
	BYTE		N01   
	BYTE	W06
	BYTE		N01   
	BYTE	W06
	BYTE		N23     Gs1 
	BYTE	W24
	BYTE		N11     An1 
	BYTE	W12
	BYTE		        Bn1 
	BYTE	W12
	BYTE		        Dn2 
	BYTE	W12
// 052   ----------------------------------------
	BYTE		        An1 
	BYTE	W12
	BYTE		        Bn1 
	BYTE	W12
	BYTE		        Cn2 
	BYTE	W12
	BYTE		N23     Dn2 
	BYTE	W24
	BYTE		N11   
	BYTE	W12
	BYTE		N11   
	BYTE	W12
	BYTE		N23     Bn1 
	BYTE	W12
// 053   ----------------------------------------
	BYTE	W12
	BYTE		N11     Dn2 
	BYTE	W12
	BYTE		        Ds2 
	BYTE	W12
	BYTE		N23     En2 
	BYTE	W24
	BYTE		N11   
	BYTE	W12
	BYTE		        Dn2 
	BYTE	W12
	BYTE		        Dn3 
	BYTE	W12
// 054   ----------------------------------------
	BYTE		        An1 
	BYTE	W12
	BYTE		        An2 
	BYTE	W12
	BYTE		        An1 
	BYTE	W12
	BYTE		N23     Fs1 
	BYTE	W24
	BYTE		N11     Gn2 
	BYTE	W12
	BYTE		        An2 
	BYTE	W12
	BYTE		        Gn2 
	BYTE	W12
// 055   ----------------------------------------
	BYTE		        Bn1 
	BYTE	W12
	BYTE		N10     Fs2 
	BYTE	W12
	BYTE		N11     Bn1 
	BYTE	W12
	BYTE		N10     Fs2 
	BYTE	W12
	BYTE		N11     Bn1 
	BYTE	W12
	BYTE		N10     Fs2 
	BYTE	W12
	BYTE		N11     Bn1 
	BYTE	W12
	BYTE		N10     Fs2 
	BYTE	W12
// 056   ----------------------------------------
	BYTE	PATT
	 POIN2	SEQ_021_00000_8_001
// 057   ----------------------------------------
	BYTE	PATT
	 POIN2	SEQ_021_00000_8_001
// 058   ----------------------------------------
	BYTE	PATT
	 POIN2	SEQ_021_00000_8_002
// 059   ----------------------------------------
	BYTE	PATT
	 POIN2	SEQ_021_00000_8_003
	BYTE	GoTo
	 POIN2	SEQ_021_00000_8_B1
SEQ_021_00000_8_B2:
	BYTE		N11     An2   v127
	BYTE	W12
// 060   ----------------------------------------
	BYTE	FINE

//**************** Track 9 (Midi-Chn.11) ****************//

SEQ_021_00000_9:
	BYTE	KEYSH   SEQ_021_00000_key+0
// 000   ----------------------------------------
	BYTE		VOICE   122
	BYTE		VOL     32*SEQ_021_00000_mvl/mxv
	BYTE		PAN     c_v+0
	BYTE		MOD     0
	BYTE		N11     Cn1   v127
	BYTE	W12
	BYTE		N05   
	BYTE	W06
	BYTE		        Cn1   v120
	BYTE	W06
	BYTE		N11     Cn1   v127
	BYTE	W12
	BYTE		N05   
	BYTE	W06
	BYTE		        Cn1   v120
	BYTE	W06
	BYTE		N11     Cn1   v127
	BYTE	W12
	BYTE		N05   
	BYTE	W06
	BYTE		        Cn1   v120
	BYTE	W06
	BYTE		N11     Cn1   v127
	BYTE	W12
	BYTE		N05   
	BYTE	W06
	BYTE		        Cn1   v120
	BYTE	W06
// 001   ----------------------------------------
SEQ_021_00000_9_001:
	BYTE		N11     Cn1   v127
	BYTE	W12
	BYTE		N05   
	BYTE	W06
	BYTE		        Cn1   v120
	BYTE	W06
	BYTE		N11     Cn1   v127
	BYTE	W12
	BYTE		N05   
	BYTE	W06
	BYTE		        Cn1   v120
	BYTE	W06
	BYTE		N11     Cn1   v127
	BYTE	W12
	BYTE		N05   
	BYTE	W06
	BYTE		        Cn1   v120
	BYTE	W06
	BYTE		N11     Cn1   v127
	BYTE	W12
	BYTE		N05   
	BYTE	W06
	BYTE		        Cn1   v120
	BYTE	W06
	BYTE	PEND
// 002   ----------------------------------------
	BYTE	PATT
	 POIN2	SEQ_021_00000_9_001
// 003   ----------------------------------------
	BYTE		N11     Cn1   v127
	BYTE	W12
	BYTE		N05   
	BYTE	W06
	BYTE		        Cn1   v120
	BYTE	W06
	BYTE		N11     Cn1   v127
	BYTE	W12
	BYTE		N05   
	BYTE	W06
	BYTE		        Cn1   v120
	BYTE	W06
	BYTE		N11     Cn1   v127
	BYTE	W12
	BYTE		N05   
	BYTE	W06
	BYTE		        Cn1   v120
	BYTE	W06
	BYTE		N11     Cn1   v127
	BYTE	W12
SEQ_021_00000_9_B1:
	BYTE		N05     Cn1   v127
	BYTE	W06
	BYTE		        Cn1   v120
	BYTE	W06
// 004   ----------------------------------------
SEQ_021_00000_9_004:
	BYTE		N11     Cn1   v127
	BYTE	W12
	BYTE		N05   
	BYTE	W06
	BYTE		        Cn1   v120
	BYTE	W06
	BYTE		N11     Cn1   v127
	BYTE	W12
	BYTE		N03   
	BYTE	W04
	BYTE		N03   
	BYTE	W04
	BYTE		N03   
	BYTE	W04
	BYTE		N11   
	BYTE	W12
	BYTE		N05   
	BYTE	W06
	BYTE		        Cn1   v120
	BYTE	W06
	BYTE		N11     Cn1   v127
	BYTE	W12
	BYTE		N03   
	BYTE	W04
	BYTE		N03   
	BYTE	W04
	BYTE		N03   
	BYTE	W04
	BYTE	PEND
// 005   ----------------------------------------
	BYTE	PATT
	 POIN2	SEQ_021_00000_9_004
// 006   ----------------------------------------
	BYTE	PATT
	 POIN2	SEQ_021_00000_9_004
// 007   ----------------------------------------
	BYTE		N05     Cn1   v127
	BYTE	W06
	BYTE		        Cn1   v120
	BYTE	W06
	BYTE		N05   
	BYTE	W06
	BYTE		        Cn1   v127
	BYTE	W06
	BYTE		        Cn1   v120
	BYTE	W06
	BYTE		N05   
	BYTE	W06
	BYTE		        Cn1   v127
	BYTE	W06
	BYTE		        Cn1   v120
	BYTE	W06
	BYTE		N05   
	BYTE	W06
	BYTE		        Cn1   v127
	BYTE	W06
	BYTE		        Cn1   v120
	BYTE	W06
	BYTE		N05   
	BYTE	W06
	BYTE		        Cn1   v127
	BYTE	W06
	BYTE		        Cn1   v120
	BYTE	W06
	BYTE		N05   
	BYTE	W06
	BYTE		N05   
	BYTE	W06
// 008   ----------------------------------------
SEQ_021_00000_9_008:
	BYTE		N11     Cn1   v127
	BYTE	W12
	BYTE		N05   
	BYTE	W06
	BYTE		        Cn1   v120
	BYTE	W06
	BYTE		N11     Cn1   v127
	BYTE	W12
	BYTE		N03   
	BYTE	W04
	BYTE		N03   
	BYTE	W04
	BYTE		N03   
	BYTE	W04
	BYTE		N05   
	BYTE	W06
	BYTE		        Cn1   v120
	BYTE	W06
	BYTE		        Cn1   v127
	BYTE	W06
	BYTE		        Cn1   v120
	BYTE	W06
	BYTE		N11     Cn1   v127
	BYTE	W12
	BYTE		N05   
	BYTE	W06
	BYTE		        Cn1   v116
	BYTE	W06
	BYTE	PEND
// 009   ----------------------------------------
	BYTE	PATT
	 POIN2	SEQ_021_00000_9_008
// 010   ----------------------------------------
	BYTE	PATT
	 POIN2	SEQ_021_00000_9_008
// 011   ----------------------------------------
	BYTE	PATT
	 POIN2	SEQ_021_00000_9_008
// 012   ----------------------------------------
	BYTE	PATT
	 POIN2	SEQ_021_00000_9_008
// 013   ----------------------------------------
	BYTE	PATT
	 POIN2	SEQ_021_00000_9_008
// 014   ----------------------------------------
	BYTE	PATT
	 POIN2	SEQ_021_00000_9_008
// 015   ----------------------------------------
	BYTE		N23     Cn1   v127
	BYTE	W36
	BYTE		        Cn1   v116
	BYTE	W24
	BYTE		N23   
	BYTE	W36
// 016   ----------------------------------------
	BYTE	PATT
	 POIN2	SEQ_021_00000_9_008
// 017   ----------------------------------------
	BYTE	PATT
	 POIN2	SEQ_021_00000_9_008
// 018   ----------------------------------------
	BYTE	PATT
	 POIN2	SEQ_021_00000_9_008
// 019   ----------------------------------------
	BYTE	PATT
	 POIN2	SEQ_021_00000_9_008
// 020   ----------------------------------------
	BYTE	PATT
	 POIN2	SEQ_021_00000_9_008
// 021   ----------------------------------------
	BYTE	PATT
	 POIN2	SEQ_021_00000_9_008
// 022   ----------------------------------------
	BYTE	PATT
	 POIN2	SEQ_021_00000_9_008
// 023   ----------------------------------------
	BYTE		N23     Cn1   v127
	BYTE	W36
	BYTE		N11     Cn1   v116
	BYTE	W12
	BYTE		N23     Cn1   v127
	BYTE	W24
	BYTE		N23   
	BYTE	W24
// 024   ----------------------------------------
SEQ_021_00000_9_024:
	BYTE		N22     Cn1   v127
	BYTE	W36
	BYTE		N22   
	BYTE	W36
	BYTE		N11   
	BYTE	W12
	BYTE		N23   
	BYTE	W12
	BYTE	PEND
// 025   ----------------------------------------
SEQ_021_00000_9_025:
	BYTE	W12
	BYTE		N23     Cn1   v127
	BYTE	W24
	BYTE		N23   
	BYTE	W36
	BYTE		N11   
	BYTE	W12
	BYTE		N11   
	BYTE	W12
	BYTE	PEND
// 026   ----------------------------------------
SEQ_021_00000_9_026:
	BYTE		N23     Cn1   v127
	BYTE	W36
	BYTE		N23   
	BYTE	W36
	BYTE		N10   
	BYTE	W12
	BYTE		N10   
	BYTE	W12
	BYTE	PEND
// 027   ----------------------------------------
	BYTE	W12
	BYTE		N23   
	BYTE	W24
	BYTE		N03   
	BYTE	W04
	BYTE		N03   
	BYTE	W04
	BYTE		N03   
	BYTE	W28
	BYTE		N11   
	BYTE	W12
	BYTE		        Cn1   v116
	BYTE	W12
// 028   ----------------------------------------
	BYTE	PATT
	 POIN2	SEQ_021_00000_9_024
// 029   ----------------------------------------
	BYTE	PATT
	 POIN2	SEQ_021_00000_9_025
// 030   ----------------------------------------
	BYTE	PATT
	 POIN2	SEQ_021_00000_9_026
// 031   ----------------------------------------
	BYTE	W12
	BYTE		N23     Cn1   v127
	BYTE	W48
	BYTE		N11   
	BYTE	W36
// 032   ----------------------------------------
SEQ_021_00000_9_032:
	BYTE		N10     Cn1   v127
	BYTE	W12
	BYTE		        Cn1   v124
	BYTE	W36
	BYTE		        Cn1   v127
	BYTE	W12
	BYTE		        Cn1   v124
	BYTE	W36
	BYTE	PEND
// 033   ----------------------------------------
	BYTE	PATT
	 POIN2	SEQ_021_00000_9_032
// 034   ----------------------------------------
	BYTE	PATT
	 POIN2	SEQ_021_00000_9_032
// 035   ----------------------------------------
	BYTE	PATT
	 POIN2	SEQ_021_00000_9_032
// 036   ----------------------------------------
	BYTE	PATT
	 POIN2	SEQ_021_00000_9_032
// 037   ----------------------------------------
	BYTE	PATT
	 POIN2	SEQ_021_00000_9_032
// 038   ----------------------------------------
	BYTE	PATT
	 POIN2	SEQ_021_00000_9_032
// 039   ----------------------------------------
	BYTE		N10     Cn1   v127
	BYTE	W12
	BYTE		N05     Cn1   v124
	BYTE	W06
	BYTE		N05   
	BYTE	W18
	BYTE		N11   
	BYTE	W12
	BYTE		N10     Cn1   v127
	BYTE	W12
	BYTE		N04   
	BYTE	W06
	BYTE		        Cn1   v124
	BYTE	W06
	BYTE		N10     Cn1   v127
	BYTE	W12
	BYTE		N04   
	BYTE	W06
	BYTE		        Cn1   v124
	BYTE	W06
// 040   ----------------------------------------
SEQ_021_00000_9_040:
	BYTE		N11     Cn1   v127
	BYTE	W12
	BYTE		N05   
	BYTE	W06
	BYTE		        Cn1   v124
	BYTE	W06
	BYTE		N11     Cn1   v127
	BYTE	W12
	BYTE		N05   
	BYTE	W06
	BYTE		        Cn1   v124
	BYTE	W06
	BYTE		N11     Cn1   v127
	BYTE	W12
	BYTE		N05   
	BYTE	W06
	BYTE		        Cn1   v124
	BYTE	W06
	BYTE		N11     Cn1   v127
	BYTE	W12
	BYTE		N05   
	BYTE	W06
	BYTE		        Cn1   v124
	BYTE	W06
	BYTE	PEND
// 041   ----------------------------------------
	BYTE	PATT
	 POIN2	SEQ_021_00000_9_040
// 042   ----------------------------------------
	BYTE	PATT
	 POIN2	SEQ_021_00000_9_040
// 043   ----------------------------------------
	BYTE		N11     Cn1   v127
	BYTE	W12
	BYTE		N11   
	BYTE	W12
	BYTE		N11   
	BYTE	W12
	BYTE		N23   
	BYTE	W24
	BYTE		N11   
	BYTE	W24
	BYTE		N11   
	BYTE	W12
// 044   ----------------------------------------
	BYTE		N32   
	BYTE	W36
	BYTE		N23   
	BYTE	W24
	BYTE		N32   
	BYTE	W36
// 045   ----------------------------------------
	BYTE		N11   
	BYTE	W12
	BYTE		N05   
	BYTE	W06
	BYTE		N17   
	BYTE	W18
	BYTE		N22   
	BYTE	W24
	BYTE		N22   
	BYTE	W36
// 046   ----------------------------------------
	BYTE		N32   
	BYTE	W36
	BYTE		        Cn1   v124
	BYTE	W48
	BYTE		N05     Cn1   v127
	BYTE	W06
	BYTE		        Cn1   v124
	BYTE	W06
// 047   ----------------------------------------
	BYTE		N23     Cn1   v127
	BYTE	W24
	BYTE		        Cn1   v124
	BYTE	W30
	BYTE		N05   
	BYTE	W06
	BYTE		N17   
	BYTE	W18
	BYTE		N05   
	BYTE	W06
	BYTE		N11   
	BYTE	W12
// 048   ----------------------------------------
SEQ_021_00000_9_048:
	BYTE		N11     Cn1   v127
	BYTE	W12
	BYTE		N05     Cn1   v124
	BYTE	W06
	BYTE		N05   
	BYTE	W06
	BYTE		N11     Cn1   v127
	BYTE	W12
	BYTE		N05     Cn1   v124
	BYTE	W06
	BYTE		N05   
	BYTE	W06
	BYTE		N11     Cn1   v127
	BYTE	W12
	BYTE		N05     Cn1   v124
	BYTE	W06
	BYTE		N05   
	BYTE	W06
	BYTE		N11     Cn1   v127
	BYTE	W12
	BYTE		N05     Cn1   v124
	BYTE	W06
	BYTE		N05   
	BYTE	W06
	BYTE	PEND
// 049   ----------------------------------------
	BYTE		N11     Cn1   v127
	BYTE	W12
	BYTE		N05     Cn1   v124
	BYTE	W06
	BYTE		N05   
	BYTE	W06
	BYTE		N11     Cn1   v127
	BYTE	W12
	BYTE		N05     Cn1   v124
	BYTE	W06
	BYTE		N05   
	BYTE	W06
	BYTE		N11     Cn1   v127
	BYTE	W12
	BYTE		N05     Cn1   v124
	BYTE	W06
	BYTE		N05   
	BYTE	W06
	BYTE		N01     Cn1   v127
	BYTE	W02
	BYTE		N09   
	BYTE	W10
	BYTE		N05     Cn1   v124
	BYTE	W06
	BYTE		N05   
	BYTE	W06
// 050   ----------------------------------------
	BYTE	PATT
	 POIN2	SEQ_021_00000_9_048
// 051   ----------------------------------------
	BYTE		N12     Cn1   v127
	BYTE	W36
	BYTE		N12   
	BYTE	W48
	BYTE		N11   
	BYTE	W12
// 052   ----------------------------------------
	BYTE		N23   
	BYTE	W36
	BYTE		N23   
	BYTE	W24
	BYTE		N23   
	BYTE	W24
	BYTE		N23   
	BYTE	W12
// 053   ----------------------------------------
	BYTE	W12
	BYTE		N23   
	BYTE	W24
	BYTE		N23   
	BYTE	W24
	BYTE		N23   
	BYTE	W24
	BYTE		N10   
	BYTE	W12
// 054   ----------------------------------------
	BYTE		N28   
	BYTE	W36
	BYTE		N23   
	BYTE	W24
	BYTE		N23   
	BYTE	W24
	BYTE		N10   
	BYTE	W12
// 055   ----------------------------------------
	BYTE		N28   
	BYTE	W36
	BYTE		N10   
	BYTE	W12
	BYTE		N04   
	BYTE	W06
	BYTE		N11   
	BYTE	W12
	BYTE		N04   
	BYTE	W06
	BYTE		N23   
	BYTE	W24
// 056   ----------------------------------------
	BYTE	PATT
	 POIN2	SEQ_021_00000_9_001
// 057   ----------------------------------------
	BYTE	PATT
	 POIN2	SEQ_021_00000_9_001
// 058   ----------------------------------------
	BYTE	PATT
	 POIN2	SEQ_021_00000_9_001
// 059   ----------------------------------------
	BYTE		N11     Cn1   v127
	BYTE	W12
	BYTE		N12   
	BYTE	W30
	BYTE		N05     Cn1   v120
	BYTE	W06
	BYTE		N11     Cn1   v127
	BYTE	W24
	BYTE		N11   
	BYTE	W12
	BYTE	GoTo
	 POIN2	SEQ_021_00000_9_B1
SEQ_021_00000_9_B2:
	BYTE	W12
// 060   ----------------------------------------
	BYTE	FINE

//**************** Track 10 (Midi-Chn.12) ****************//

SEQ_021_00000_10:
	BYTE	KEYSH   SEQ_021_00000_key+0
// 000   ----------------------------------------
	BYTE		VOICE   122
	BYTE		VOL     31*SEQ_021_00000_mvl/mxv
	BYTE		PAN     c_v+0
	BYTE		MOD     0
	BYTE	W72
	BYTE		N23     Dn1   v127
	BYTE	W24
// 001   ----------------------------------------
	BYTE	W72
	BYTE		N23   
	BYTE	W24
// 002   ----------------------------------------
	BYTE	W72
	BYTE		N23   
	BYTE	W24
// 003   ----------------------------------------
	BYTE	W24
	BYTE		N17   
	BYTE	W18
	BYTE		N05   
	BYTE	W06
	BYTE		N11   
	BYTE	W12
	BYTE		N05   
	BYTE	W06
	BYTE		N17   
	BYTE	W18
SEQ_021_00000_10_B1:
	BYTE		N05     Dn1   v127
	BYTE	W06
	BYTE		N18   
	BYTE	W06
// 004   ----------------------------------------
SEQ_021_00000_10_004:
	BYTE	W24
	BYTE		N23     Dn1   v127
	BYTE	W48
	BYTE		N23   
	BYTE	W24
	BYTE	PEND
// 005   ----------------------------------------
	BYTE	PATT
	 POIN2	SEQ_021_00000_10_004
// 006   ----------------------------------------
	BYTE	PATT
	 POIN2	SEQ_021_00000_10_004
// 007   ----------------------------------------
	BYTE	W12
	BYTE		N17     Dn1   v127
	BYTE	W18
	BYTE		N17   
	BYTE	W18
	BYTE		N17   
	BYTE	W18
	BYTE		N11     Dn1   v124
	BYTE	W12
	BYTE		N05     Dn1   v120
	BYTE	W06
	BYTE		N05   
	BYTE	W06
	BYTE		N16   
	BYTE	W06
// 008   ----------------------------------------
SEQ_021_00000_10_008:
	BYTE	W24
	BYTE		N23     Dn1   v120
	BYTE	W48
	BYTE		N23   
	BYTE	W24
	BYTE	PEND
// 009   ----------------------------------------
	BYTE	PATT
	 POIN2	SEQ_021_00000_10_008
// 010   ----------------------------------------
	BYTE	PATT
	 POIN2	SEQ_021_00000_10_008
// 011   ----------------------------------------
	BYTE	PATT
	 POIN2	SEQ_021_00000_10_008
// 012   ----------------------------------------
	BYTE	PATT
	 POIN2	SEQ_021_00000_10_008
// 013   ----------------------------------------
	BYTE	PATT
	 POIN2	SEQ_021_00000_10_008
// 014   ----------------------------------------
	BYTE	PATT
	 POIN2	SEQ_021_00000_10_008
// 015   ----------------------------------------
	BYTE	W18
	BYTE		N05     Dn1   v120
	BYTE	W06
	BYTE		N23   
	BYTE	W36
	BYTE		N11   
	BYTE	W12
	BYTE		N11   
	BYTE	W12
	BYTE		N05   
	BYTE	W06
	BYTE		N17   
	BYTE	W06
// 016   ----------------------------------------
	BYTE	PATT
	 POIN2	SEQ_021_00000_10_008
// 017   ----------------------------------------
	BYTE	PATT
	 POIN2	SEQ_021_00000_10_008
// 018   ----------------------------------------
	BYTE	PATT
	 POIN2	SEQ_021_00000_10_008
// 019   ----------------------------------------
	BYTE	PATT
	 POIN2	SEQ_021_00000_10_008
// 020   ----------------------------------------
	BYTE	PATT
	 POIN2	SEQ_021_00000_10_008
// 021   ----------------------------------------
	BYTE	PATT
	 POIN2	SEQ_021_00000_10_008
// 022   ----------------------------------------
	BYTE	PATT
	 POIN2	SEQ_021_00000_10_008
// 023   ----------------------------------------
	BYTE	W24
	BYTE		N22     Dn1   v120
	BYTE	W24
	BYTE		N02   
	BYTE	W03
	BYTE		N20   
	BYTE	W21
	BYTE		N02   
	BYTE	W03
	BYTE		N20   
	BYTE	W21
// 024   ----------------------------------------
	BYTE	W48
	BYTE		N22   
	BYTE	W48
// 025   ----------------------------------------
	BYTE	W48
	BYTE		N24   
	BYTE	W48
// 026   ----------------------------------------
	BYTE	W48
	BYTE		N23   
	BYTE	W48
// 027   ----------------------------------------
	BYTE	W48
	BYTE		N23   
	BYTE	W48
// 028   ----------------------------------------
	BYTE	W48
	BYTE		N22   
	BYTE	W48
// 029   ----------------------------------------
	BYTE	W48
	BYTE		N24   
	BYTE	W48
// 030   ----------------------------------------
	BYTE	W48
	BYTE		N01   
	BYTE	W02
	BYTE		N22   
	BYTE	W44
	BYTE	W02
// 031   ----------------------------------------
	BYTE	W12
	BYTE		N11   
	BYTE	W12
	BYTE		N05     Dn1   v116
	BYTE	W06
	BYTE		        Dn1   v112
	BYTE	W06
	BYTE		N11     Dn1   v120
	BYTE	W12
	BYTE		N17     Dn1   v116
	BYTE	W18
	BYTE		N05   
	BYTE	W06
	BYTE		N11     Dn1   v120
	BYTE	W12
	BYTE		N05     Dn1   v116
	BYTE	W06
	BYTE		        Dn1   v112
	BYTE	W06
// 032   ----------------------------------------
	BYTE	PATT
	 POIN2	SEQ_021_00000_10_008
// 033   ----------------------------------------
	BYTE	PATT
	 POIN2	SEQ_021_00000_10_008
// 034   ----------------------------------------
	BYTE	PATT
	 POIN2	SEQ_021_00000_10_008
// 035   ----------------------------------------
	BYTE	PATT
	 POIN2	SEQ_021_00000_10_008
// 036   ----------------------------------------
	BYTE	PATT
	 POIN2	SEQ_021_00000_10_008
// 037   ----------------------------------------
	BYTE	PATT
	 POIN2	SEQ_021_00000_10_008
// 038   ----------------------------------------
	BYTE	PATT
	 POIN2	SEQ_021_00000_10_008
// 039   ----------------------------------------
	BYTE	W24
	BYTE		N23     Dn1   v120
	BYTE	W24
	BYTE		N23   
	BYTE	W24
	BYTE		        Dn1   v116
	BYTE	W24
// 040   ----------------------------------------
	BYTE	PATT
	 POIN2	SEQ_021_00000_10_008
// 041   ----------------------------------------
	BYTE	PATT
	 POIN2	SEQ_021_00000_10_008
// 042   ----------------------------------------
	BYTE	PATT
	 POIN2	SEQ_021_00000_10_008
// 043   ----------------------------------------
	BYTE	W24
	BYTE		N23     Dn1   v120
	BYTE	W48
	BYTE		N05   
	BYTE	W06
	BYTE		N06     Dn1   v116
	BYTE	W18
// 044   ----------------------------------------
	BYTE	W18
	BYTE		N05     Dn1   v120
	BYTE	W06
	BYTE		N24   
	BYTE	W48
	BYTE		N05   
	BYTE	W06
	BYTE		        Dn1   v108
	BYTE	W06
	BYTE		N30     Dn1   v120
	BYTE	W12
// 045   ----------------------------------------
	BYTE	W24
	BYTE		N32   
	BYTE	W36
	BYTE		N11   
	BYTE	W12
	BYTE		        Dn1   v124
	BYTE	W12
	BYTE		N05     Dn1   v116
	BYTE	W06
	BYTE		        Dn1   v104
	BYTE	W06
// 046   ----------------------------------------
	BYTE	W18
	BYTE		N23     Dn1   v120
	BYTE	W42
	BYTE		N11     Dn1   v116
	BYTE	W12
	BYTE		N23     Dn1   v120
	BYTE	W24
// 047   ----------------------------------------
	BYTE	W12
	BYTE		        Dn1   v124
	BYTE	W24
	BYTE		        Dn1   v116
	BYTE	W30
	BYTE		N17     Dn1   v120
	BYTE	W18
	BYTE		N05     Dn1   v124
	BYTE	W06
	BYTE		        Dn1   v112
	BYTE	W06
// 048   ----------------------------------------
	BYTE	W72
	BYTE		N23     Dn1   v120
	BYTE	W24
// 049   ----------------------------------------
	BYTE	W72
	BYTE		N02   
	BYTE	W02
	BYTE		N21   
	BYTE	W22
// 050   ----------------------------------------
	BYTE	W24
	BYTE		N11   
	BYTE	W48
	BYTE		N12   
	BYTE	W24
// 051   ----------------------------------------
	BYTE	W12
	BYTE		N11   
	BYTE	W12
	BYTE		N05   
	BYTE	W06
	BYTE		N23     Dn1   v116
	BYTE	W24
	BYTE		N11     Dn1   v124
	BYTE	W12
	BYTE		N05     Dn1   v116
	BYTE	W06
	BYTE		N23   
	BYTE	W24
// 052   ----------------------------------------
	BYTE	PATT
	 POIN2	SEQ_021_00000_10_008
// 053   ----------------------------------------
	BYTE	W24
	BYTE		N23     Dn1   v120
	BYTE	W48
	BYTE		N05   
	BYTE	W06
	BYTE		        Dn1   v116
	BYTE	W18
// 054   ----------------------------------------
	BYTE	W24
	BYTE		N28     Dn1   v120
	BYTE	W48
	BYTE		N28   
	BYTE	W24
// 055   ----------------------------------------
	BYTE	W12
	BYTE		N10     Dn1   v116
	BYTE	W12
	BYTE		N28     Dn1   v120
	BYTE	W36
	BYTE		N23     Dn1   v116
	BYTE	W24
	BYTE		N05     Dn1   v124
	BYTE	W06
	BYTE		        Dn1   v116
	BYTE	W06
// 056   ----------------------------------------
	BYTE	PATT
	 POIN2	SEQ_021_00000_10_004
// 057   ----------------------------------------
	BYTE	PATT
	 POIN2	SEQ_021_00000_10_004
// 058   ----------------------------------------
	BYTE	PATT
	 POIN2	SEQ_021_00000_10_004
// 059   ----------------------------------------
	BYTE	W24
	BYTE		N17     Dn1   v127
	BYTE	W18
	BYTE		N05     Dn1   v108
	BYTE	W06
	BYTE		N17     Dn1   v127
	BYTE	W18
	BYTE		N05     Dn1   v116
	BYTE	W06
	BYTE		N11     Dn1   v127
	BYTE	W12
	BYTE	GoTo
	 POIN2	SEQ_021_00000_10_B1
SEQ_021_00000_10_B2:
	BYTE		N05     Dn1   v127
	BYTE	W06
	BYTE		        Dn1   v116
	BYTE	W06
// 060   ----------------------------------------
	BYTE	FINE

//**************** Track 11 (Midi-Chn.13) ****************//

SEQ_021_00000_11:
	BYTE	KEYSH   SEQ_021_00000_key+0
// 000   ----------------------------------------
	BYTE		VOICE   122
	BYTE		VOL     31*SEQ_021_00000_mvl/mxv
	BYTE		PAN     c_v+0
	BYTE		MOD     0
	BYTE		N11     Fs1   v096
	BYTE	W12
	BYTE		N06     Fs1   v084
	BYTE	W06
	BYTE		        Fs1   v072
	BYTE	W06
	BYTE		N11     Fs1   v092
	BYTE	W12
	BYTE		N06     Fs1   v084
	BYTE	W06
	BYTE		        Fs1   v072
	BYTE	W06
	BYTE		N11     Fs1   v096
	BYTE	W12
	BYTE		N06     Fs1   v084
	BYTE	W06
	BYTE		        Fs1   v072
	BYTE	W18
	BYTE		        Fs1   v084
	BYTE	W06
	BYTE		        Fs1   v072
	BYTE	W06
// 001   ----------------------------------------
SEQ_021_00000_11_001:
	BYTE		N11     Fs1   v096
	BYTE	W12
	BYTE		N06     Fs1   v084
	BYTE	W06
	BYTE		        Fs1   v072
	BYTE	W06
	BYTE		N11     Fs1   v092
	BYTE	W12
	BYTE		N06     Fs1   v084
	BYTE	W06
	BYTE		        Fs1   v072
	BYTE	W06
	BYTE		N11     Fs1   v096
	BYTE	W12
	BYTE		N06     Fs1   v084
	BYTE	W06
	BYTE		        Fs1   v072
	BYTE	W18
	BYTE		        Fs1   v084
	BYTE	W06
	BYTE		        Fs1   v072
	BYTE	W06
	BYTE	PEND
// 002   ----------------------------------------
	BYTE	PATT
	 POIN2	SEQ_021_00000_11_001
// 003   ----------------------------------------
	BYTE		N11     Fs1   v096
	BYTE	W12
	BYTE		N06     Fs1   v084
	BYTE	W06
	BYTE		        Fs1   v072
	BYTE	W54
	BYTE		N12     Fs1   v084
	BYTE	W12
SEQ_021_00000_11_B1:
	BYTE	W12
// 004   ----------------------------------------
	BYTE	W48
	BYTE		N05     Fs1   v088
	BYTE	W06
	BYTE		        Fs1   v072
	BYTE	W06
	BYTE		N06     Fs1   v076
	BYTE	W06
	BYTE		        Fs1   v064
	BYTE	W06
	BYTE		N05     Fs1   v088
	BYTE	W06
	BYTE		        Fs1   v072
	BYTE	W06
	BYTE		N06     Fs1   v076
	BYTE	W06
	BYTE		        Fs1   v064
	BYTE	W06
// 005   ----------------------------------------
SEQ_021_00000_11_005:
	BYTE		N05     Fs1   v088
	BYTE	W06
	BYTE		        Fs1   v072
	BYTE	W06
	BYTE		N06     Fs1   v076
	BYTE	W06
	BYTE		        Fs1   v064
	BYTE	W06
	BYTE		N05     Fs1   v088
	BYTE	W06
	BYTE		        Fs1   v072
	BYTE	W06
	BYTE		N06     Fs1   v076
	BYTE	W06
	BYTE		        Fs1   v064
	BYTE	W06
	BYTE		N05     Fs1   v088
	BYTE	W06
	BYTE		        Fs1   v072
	BYTE	W06
	BYTE		N06     Fs1   v076
	BYTE	W06
	BYTE		        Fs1   v064
	BYTE	W06
	BYTE		N05     Fs1   v088
	BYTE	W06
	BYTE		        Fs1   v072
	BYTE	W06
	BYTE		N06     Fs1   v076
	BYTE	W06
	BYTE		        Fs1   v064
	BYTE	W06
	BYTE	PEND
// 006   ----------------------------------------
	BYTE	PATT
	 POIN2	SEQ_021_00000_11_005
// 007   ----------------------------------------
	BYTE		N05     Fs1   v088
	BYTE	W06
	BYTE		        Fs1   v072
	BYTE	W90
// 008   ----------------------------------------
	BYTE	W48
	BYTE		N06     Fs1   v108
	BYTE	W06
	BYTE		        Fs1   v092
	BYTE	W06
	BYTE		N11     As1   v084
	BYTE	W12
	BYTE		N06     Fs1   v108
	BYTE	W06
	BYTE		        Fs1   v092
	BYTE	W06
	BYTE		N11     As1   v084
	BYTE	W12
// 009   ----------------------------------------
SEQ_021_00000_11_009:
	BYTE		N06     Fs1   v108
	BYTE	W06
	BYTE		        Fs1   v092
	BYTE	W06
	BYTE		N11     As1   v084
	BYTE	W12
	BYTE		N06     Fs1   v108
	BYTE	W06
	BYTE		        Fs1   v092
	BYTE	W06
	BYTE		N11     As1   v084
	BYTE	W12
	BYTE		N06     Fs1   v108
	BYTE	W06
	BYTE		        Fs1   v092
	BYTE	W06
	BYTE		N11     As1   v084
	BYTE	W12
	BYTE		N06     Fs1   v108
	BYTE	W06
	BYTE		        Fs1   v092
	BYTE	W06
	BYTE		N11     As1   v084
	BYTE	W12
	BYTE	PEND
// 010   ----------------------------------------
	BYTE	PATT
	 POIN2	SEQ_021_00000_11_009
// 011   ----------------------------------------
	BYTE	PATT
	 POIN2	SEQ_021_00000_11_009
// 012   ----------------------------------------
	BYTE	PATT
	 POIN2	SEQ_021_00000_11_009
// 013   ----------------------------------------
	BYTE	PATT
	 POIN2	SEQ_021_00000_11_009
// 014   ----------------------------------------
	BYTE	PATT
	 POIN2	SEQ_021_00000_11_009
// 015   ----------------------------------------
	BYTE	W96
// 016   ----------------------------------------
	BYTE	W48
	BYTE		N05     Fs1   v100
	BYTE	W06
	BYTE		        Fs1   v080
	BYTE	W06
	BYTE		        Fs1   v092
	BYTE	W12
	BYTE		        Fs1   v100
	BYTE	W06
	BYTE		        Fs1   v080
	BYTE	W06
	BYTE		        Fs1   v092
	BYTE	W06
	BYTE		        Fs1   v080
	BYTE	W06
// 017   ----------------------------------------
SEQ_021_00000_11_017:
	BYTE		N05     Fs1   v100
	BYTE	W06
	BYTE		        Fs1   v080
	BYTE	W06
	BYTE		        Fs1   v092
	BYTE	W12
	BYTE		        Fs1   v100
	BYTE	W06
	BYTE		        Fs1   v080
	BYTE	W06
	BYTE		        Fs1   v092
	BYTE	W06
	BYTE		        Fs1   v080
	BYTE	W06
	BYTE		        Fs1   v100
	BYTE	W06
	BYTE		        Fs1   v080
	BYTE	W06
	BYTE		        Fs1   v092
	BYTE	W12
	BYTE		        Fs1   v100
	BYTE	W06
	BYTE		        Fs1   v080
	BYTE	W06
	BYTE		        Fs1   v092
	BYTE	W06
	BYTE		        Fs1   v080
	BYTE	W06
	BYTE	PEND
// 018   ----------------------------------------
	BYTE	PATT
	 POIN2	SEQ_021_00000_11_017
// 019   ----------------------------------------
	BYTE	PATT
	 POIN2	SEQ_021_00000_11_017
// 020   ----------------------------------------
	BYTE	PATT
	 POIN2	SEQ_021_00000_11_017
// 021   ----------------------------------------
	BYTE	PATT
	 POIN2	SEQ_021_00000_11_017
// 022   ----------------------------------------
	BYTE	PATT
	 POIN2	SEQ_021_00000_11_017
// 023   ----------------------------------------
	BYTE	W96
// 024   ----------------------------------------
	BYTE	W96
// 025   ----------------------------------------
	BYTE		N24     Fs1   v092
	BYTE	W96
// 026   ----------------------------------------
	BYTE		N32   
	BYTE	W36
	BYTE		N11   
	BYTE	W12
	BYTE		N32     As1   v076
	BYTE	W48
// 027   ----------------------------------------
	BYTE		        Fs1   v092
	BYTE	W48
	BYTE		N24     As1   v076
	BYTE	W24
	BYTE		N23     Fs1   v092
	BYTE	W24
// 028   ----------------------------------------
	BYTE		        Fs1   v088
	BYTE	W24
	BYTE		        Fs1   v080
	BYTE	W72
// 029   ----------------------------------------
	BYTE		N44     Fs1   v088
	BYTE	W96
// 030   ----------------------------------------
	BYTE		N23   
	BYTE	W24
	BYTE		N23   
	BYTE	W24
	BYTE		N23   
	BYTE	W48
// 031   ----------------------------------------
	BYTE	W72
	BYTE		N23   
	BYTE	W24
// 032   ----------------------------------------
	BYTE	W72
	BYTE		        As1 
	BYTE	W24
// 033   ----------------------------------------
	BYTE		N11     Fs1   v076
	BYTE	W12
	BYTE		N05   
	BYTE	W06
	BYTE		        Fs1   v064
	BYTE	W06
	BYTE		N11     Fs1   v076
	BYTE	W12
	BYTE		N05   
	BYTE	W06
	BYTE		        Fs1   v064
	BYTE	W06
	BYTE		N11     Fs1   v076
	BYTE	W12
	BYTE		N05   
	BYTE	W06
	BYTE		        Fs1   v064
	BYTE	W06
	BYTE		N11     Fs1   v076
	BYTE	W12
	BYTE		N05   
	BYTE	W06
	BYTE		        Fs1   v064
	BYTE	W06
// 034   ----------------------------------------
	BYTE		N11     Fs1   v076
	BYTE	W48
	BYTE		        Fs1   v080
	BYTE	W12
	BYTE		N05   
	BYTE	W06
	BYTE		        Fs1   v064
	BYTE	W06
	BYTE		N11     Fs1   v080
	BYTE	W12
	BYTE		N05   
	BYTE	W06
	BYTE		        Fs1   v064
	BYTE	W06
// 035   ----------------------------------------
	BYTE		N11     Fs1   v080
	BYTE	W12
	BYTE		N05   
	BYTE	W06
	BYTE		        Fs1   v064
	BYTE	W06
	BYTE		N11     Fs1   v080
	BYTE	W12
	BYTE		N05   
	BYTE	W06
	BYTE		        Fs1   v064
	BYTE	W06
	BYTE		N11     Fs1   v080
	BYTE	W12
	BYTE		N05   
	BYTE	W06
	BYTE		        Fs1   v064
	BYTE	W06
	BYTE		N11     Fs1   v080
	BYTE	W12
	BYTE		N05   
	BYTE	W06
	BYTE		        Fs1   v064
	BYTE	W06
// 036   ----------------------------------------
SEQ_021_00000_11_036:
	BYTE		N11     Fs1   v084
	BYTE	W24
	BYTE		        Fs1   v072
	BYTE	W24
	BYTE		        Fs1   v084
	BYTE	W24
	BYTE		        Fs1   v072
	BYTE	W24
	BYTE	PEND
// 037   ----------------------------------------
	BYTE	PATT
	 POIN2	SEQ_021_00000_11_036
// 038   ----------------------------------------
	BYTE	PATT
	 POIN2	SEQ_021_00000_11_036
// 039   ----------------------------------------
	BYTE	PATT
	 POIN2	SEQ_021_00000_11_036
// 040   ----------------------------------------
	BYTE	W72
	BYTE		N04     Fs1   v080
	BYTE	W06
	BYTE		        Fs1   v060
	BYTE	W06
	BYTE		N12     As1   v064
	BYTE	W12
// 041   ----------------------------------------
SEQ_021_00000_11_041:
	BYTE		N11     Fs1   v088
	BYTE	W12
	BYTE		N05     Fs1   v084
	BYTE	W06
	BYTE		N05   
	BYTE	W06
	BYTE		N11     Fs1   v088
	BYTE	W12
	BYTE		N05     Fs1   v084
	BYTE	W06
	BYTE		N05   
	BYTE	W06
	BYTE		N11     Fs1   v088
	BYTE	W12
	BYTE		N05     Fs1   v084
	BYTE	W06
	BYTE		N05   
	BYTE	W06
	BYTE		N11     Fs1   v088
	BYTE	W12
	BYTE		N05     Fs1   v084
	BYTE	W06
	BYTE		N05   
	BYTE	W06
	BYTE	PEND
// 042   ----------------------------------------
	BYTE	PATT
	 POIN2	SEQ_021_00000_11_041
// 043   ----------------------------------------
	BYTE		N05     Fs1   v084
	BYTE	W12
	BYTE		N05   
	BYTE	W12
	BYTE		N05   
	BYTE	W48
	BYTE		N23     As1 
	BYTE	W24
// 044   ----------------------------------------
	BYTE	W96
// 045   ----------------------------------------
	BYTE		        Fs1 
	BYTE	W96
// 046   ----------------------------------------
	BYTE	W96
// 047   ----------------------------------------
	BYTE	W96
// 048   ----------------------------------------
	BYTE	W48
	BYTE		N11     Fs1   v088
	BYTE	W12
	BYTE		N05     Fs1   v084
	BYTE	W06
	BYTE		        Fs1   v068
	BYTE	W18
	BYTE		        Fs1   v084
	BYTE	W06
	BYTE		        Fs1   v068
	BYTE	W06
// 049   ----------------------------------------
	BYTE		N11     Fs1   v088
	BYTE	W12
	BYTE		N05     Fs1   v084
	BYTE	W06
	BYTE		        Fs1   v068
	BYTE	W06
	BYTE		N11     Fs1   v088
	BYTE	W12
	BYTE		N05     Fs1   v084
	BYTE	W06
	BYTE		        Fs1   v068
	BYTE	W06
	BYTE		N11     Fs1   v088
	BYTE	W12
	BYTE		N05     Fs1   v084
	BYTE	W06
	BYTE		        Fs1   v068
	BYTE	W18
	BYTE		        Fs1   v084
	BYTE	W06
	BYTE		        Fs1   v068
	BYTE	W06
// 050   ----------------------------------------
	BYTE		N11     Fs1   v088
	BYTE	W12
	BYTE		N05     Fs1   v084
	BYTE	W06
	BYTE		        Fs1   v068
	BYTE	W18
	BYTE		        Fs1   v084
	BYTE	W06
	BYTE		        Fs1   v068
	BYTE	W06
	BYTE		N11     Fs1   v088
	BYTE	W12
	BYTE		N05     Fs1   v084
	BYTE	W06
	BYTE		        Fs1   v068
	BYTE	W18
	BYTE		        Fs1   v084
	BYTE	W06
	BYTE		        Fs1   v068
	BYTE	W06
// 051   ----------------------------------------
	BYTE		N11     Fs1   v088
	BYTE	W12
	BYTE		N05     Fs1   v084
	BYTE	W06
	BYTE		        Fs1   v068
	BYTE	W78
// 052   ----------------------------------------
	BYTE	W84
	BYTE		N36     As1   v072
	BYTE	W12
// 053   ----------------------------------------
	BYTE	W96
// 054   ----------------------------------------
	BYTE	W24
	BYTE		N22     Fs1   v084
	BYTE	W24
	BYTE		        Fs1   v072
	BYTE	W24
	BYTE		        Fs1   v084
	BYTE	W24
// 055   ----------------------------------------
	BYTE	W96
// 056   ----------------------------------------
	BYTE	W24
	BYTE		N06     Fs1   v088
	BYTE	W06
	BYTE		        Fs1   v072
	BYTE	W06
	BYTE		        Fs1   v080
	BYTE	W06
	BYTE		        Fs1   v064
	BYTE	W06
	BYTE		        Fs1   v088
	BYTE	W06
	BYTE		        Fs1   v072
	BYTE	W06
	BYTE		        Fs1   v080
	BYTE	W06
	BYTE		        Fs1   v064
	BYTE	W06
	BYTE		        Fs1   v080
	BYTE	W06
	BYTE		        Fs1   v064
	BYTE	W06
	BYTE		        Fs1   v080
	BYTE	W06
	BYTE		        Fs1   v064
	BYTE	W06
// 057   ----------------------------------------
SEQ_021_00000_11_057:
	BYTE		N06     Fs1   v088
	BYTE	W06
	BYTE		        Fs1   v072
	BYTE	W06
	BYTE		        Fs1   v080
	BYTE	W06
	BYTE		        Fs1   v064
	BYTE	W06
	BYTE		        Fs1   v072
	BYTE	W06
	BYTE		N06   
	BYTE	W06
	BYTE		        Fs1   v080
	BYTE	W06
	BYTE		        Fs1   v064
	BYTE	W06
	BYTE		        Fs1   v088
	BYTE	W06
	BYTE		        Fs1   v072
	BYTE	W06
	BYTE		        Fs1   v080
	BYTE	W06
	BYTE		        Fs1   v064
	BYTE	W06
	BYTE		        Fs1   v072
	BYTE	W06
	BYTE		N06   
	BYTE	W06
	BYTE		        Fs1   v080
	BYTE	W06
	BYTE		        Fs1   v064
	BYTE	W06
	BYTE	PEND
// 058   ----------------------------------------
	BYTE	PATT
	 POIN2	SEQ_021_00000_11_057
// 059   ----------------------------------------
	BYTE		N06     Fs1   v088
	BYTE	W06
	BYTE		        Fs1   v072
	BYTE	W06
	BYTE		        Fs1   v080
	BYTE	W06
	BYTE		        Fs1   v064
	BYTE	W54
	BYTE		N24     As1   v084
	BYTE	W12
	BYTE	GoTo
	 POIN2	SEQ_021_00000_11_B1
SEQ_021_00000_11_B2:
	BYTE	W12
// 060   ----------------------------------------
	BYTE	FINE

//**************** Track 12 (Midi-Chn.14) ****************//

SEQ_021_00000_12:
	BYTE	KEYSH   SEQ_021_00000_key+0
// 000   ----------------------------------------
	BYTE		VOICE   122
	BYTE		VOL     31*SEQ_021_00000_mvl/mxv
	BYTE		PAN     c_v+0
	BYTE		MOD     0
	BYTE		N72     Cn2   v096
	BYTE	W96
// 001   ----------------------------------------
	BYTE	W96
// 002   ----------------------------------------
	BYTE	W96
// 003   ----------------------------------------
	BYTE	W84
SEQ_021_00000_12_B1:
	BYTE	W12
// 004   ----------------------------------------
	BYTE		N72     Cn2   v104
	BYTE	W96
// 005   ----------------------------------------
	BYTE	W96
// 006   ----------------------------------------
	BYTE	W96
// 007   ----------------------------------------
	BYTE	W12
	BYTE		N30     Cs2   v100
	BYTE	W18
	BYTE		        Cn2 
	BYTE	W18
	BYTE		        Cs2 
	BYTE	W18
	BYTE		        Cn2 
	BYTE	W30
// 008   ----------------------------------------
	BYTE		        Cs2 
	BYTE	W96
// 009   ----------------------------------------
	BYTE	W96
// 010   ----------------------------------------
	BYTE	W96
// 011   ----------------------------------------
	BYTE	W96
// 012   ----------------------------------------
	BYTE	W96
// 013   ----------------------------------------
	BYTE	W96
// 014   ----------------------------------------
	BYTE	W96
// 015   ----------------------------------------
	BYTE		N90     Cs2   v108
	BYTE	W96
// 016   ----------------------------------------
	BYTE	W96
// 017   ----------------------------------------
	BYTE	W96
// 018   ----------------------------------------
	BYTE	W96
// 019   ----------------------------------------
	BYTE	W96
// 020   ----------------------------------------
	BYTE	W96
// 021   ----------------------------------------
	BYTE	W96
// 022   ----------------------------------------
	BYTE	W96
// 023   ----------------------------------------
	BYTE	W36
	BYTE		N32     Cs2   v100
	BYTE	W24
	BYTE		        Cn2 
	BYTE	W36
// 024   ----------------------------------------
	BYTE		N44     Cs2 
	BYTE	W48
	BYTE		N72   
	BYTE	W48
// 025   ----------------------------------------
	BYTE	W48
	BYTE		N48     Cn2 
	BYTE	W48
// 026   ----------------------------------------
	BYTE	W96
// 027   ----------------------------------------
	BYTE	W96
// 028   ----------------------------------------
	BYTE	W48
	BYTE		N44     Cs2   v092
	BYTE	W48
// 029   ----------------------------------------
	BYTE	W48
	BYTE		N44   
	BYTE	W48
// 030   ----------------------------------------
	BYTE	W60
	BYTE		N09     Cs2   v052
	BYTE	W12
	BYTE		        Cs2   v068
	BYTE	W12
	BYTE		        Cs2   v088
	BYTE	W12
// 031   ----------------------------------------
	BYTE		N72     Cs2   v104
	BYTE	W96
// 032   ----------------------------------------
	BYTE		N92     Cn2   v096
	BYTE	W96
// 033   ----------------------------------------
	BYTE	W96
// 034   ----------------------------------------
	BYTE	W96
// 035   ----------------------------------------
	BYTE	W96
// 036   ----------------------------------------
	BYTE	W96
// 037   ----------------------------------------
	BYTE	W96
// 038   ----------------------------------------
	BYTE	W96
// 039   ----------------------------------------
	BYTE	W96
// 040   ----------------------------------------
	BYTE		N72   
	BYTE	W96
// 041   ----------------------------------------
	BYTE	W96
// 042   ----------------------------------------
	BYTE	W96
// 043   ----------------------------------------
	BYTE	W36
	BYTE		N60     Cn2   v100
	BYTE	W60
// 044   ----------------------------------------
	BYTE		N48     Cs2   v096
	BYTE	W36
	BYTE		N72     Cn2 
	BYTE	W60
// 045   ----------------------------------------
	BYTE	W36
	BYTE		N60     Cn2   v088
	BYTE	W60
// 046   ----------------------------------------
	BYTE		        Cs2 
	BYTE	W36
	BYTE		N56     Cn2 
	BYTE	W60
// 047   ----------------------------------------
	BYTE		N56   
	BYTE	W96
// 048   ----------------------------------------
	BYTE		N56   
	BYTE	W96
// 049   ----------------------------------------
	BYTE	W96
// 050   ----------------------------------------
	BYTE	W96
// 051   ----------------------------------------
	BYTE	W36
	BYTE		        Cs2   v096
	BYTE	W60
// 052   ----------------------------------------
	BYTE		N56   
	BYTE	W36
	BYTE		        Cn2 
	BYTE	W60
// 053   ----------------------------------------
	BYTE	W36
	BYTE		N56   
	BYTE	W60
// 054   ----------------------------------------
	BYTE	W96
// 055   ----------------------------------------
	BYTE		N48     Cs2   v100
	BYTE	W36
	BYTE		        Cn2 
	BYTE	W60
// 056   ----------------------------------------
	BYTE		N96     Cs2 
	BYTE	W96
// 057   ----------------------------------------
	BYTE	W96
// 058   ----------------------------------------
	BYTE	W96
// 059   ----------------------------------------
	BYTE	W24
	BYTE		N68     Cs2   v080
	BYTE	W60
	BYTE	GoTo
	 POIN2	SEQ_021_00000_12_B1
SEQ_021_00000_12_B2:
	BYTE	W12
// 060   ----------------------------------------
	BYTE	FINE

//**************** Track 13 (Midi-Chn.15) ****************//

SEQ_021_00000_13:
	BYTE	KEYSH   SEQ_021_00000_key+0
// 000   ----------------------------------------
	BYTE		VOICE   96
	BYTE		VOL     5*SEQ_021_00000_mvl/mxv
	BYTE		PAN     c_v+0
	BYTE		MOD     0
	BYTE	W96
// 001   ----------------------------------------
	BYTE	W96
// 002   ----------------------------------------
	BYTE		N92     En3   v084
	BYTE		N92     An3   v088
	BYTE	W96
// 003   ----------------------------------------
	BYTE		        En3   v080
	BYTE		N92     An3 
	BYTE	W84
SEQ_021_00000_13_B1:
	BYTE	W12
// 004   ----------------------------------------
	BYTE		N92     Bn2   v080
	BYTE		N92     En3 
	BYTE	W96
// 005   ----------------------------------------
	BYTE		        Bn2 
	BYTE		N48     En3 
	BYTE	W48
	BYTE		N44     Dn3 
	BYTE	W48
// 006   ----------------------------------------
	BYTE		N92     An2 
	BYTE		N92     Cs3 
	BYTE	W96
// 007   ----------------------------------------
	BYTE		        Bn2 
	BYTE	W96
// 008   ----------------------------------------
	BYTE	W96
// 009   ----------------------------------------
	BYTE	W96
// 010   ----------------------------------------
	BYTE	W96
// 011   ----------------------------------------
	BYTE	W96
// 012   ----------------------------------------
	BYTE	W96
// 013   ----------------------------------------
	BYTE	W96
// 014   ----------------------------------------
	BYTE	W96
// 015   ----------------------------------------
	BYTE	W96
// 016   ----------------------------------------
	BYTE	W96
// 017   ----------------------------------------
	BYTE	W96
// 018   ----------------------------------------
	BYTE	W96
// 019   ----------------------------------------
	BYTE	W96
// 020   ----------------------------------------
	BYTE	W96
// 021   ----------------------------------------
	BYTE	W96
// 022   ----------------------------------------
	BYTE	W96
// 023   ----------------------------------------
	BYTE	W96
// 024   ----------------------------------------
	BYTE	W96
// 025   ----------------------------------------
	BYTE	W96
// 026   ----------------------------------------
	BYTE	W96
// 027   ----------------------------------------
	BYTE	W96
// 028   ----------------------------------------
	BYTE	W96
// 029   ----------------------------------------
	BYTE	W96
// 030   ----------------------------------------
	BYTE	W96
// 031   ----------------------------------------
	BYTE	W96
// 032   ----------------------------------------
	BYTE	W96
// 033   ----------------------------------------
	BYTE	W96
// 034   ----------------------------------------
	BYTE	W96
// 035   ----------------------------------------
	BYTE	W96
// 036   ----------------------------------------
	BYTE	W96
// 037   ----------------------------------------
	BYTE	W96
// 038   ----------------------------------------
	BYTE	W96
// 039   ----------------------------------------
	BYTE	W96
// 040   ----------------------------------------
	BYTE	W96
// 041   ----------------------------------------
	BYTE	W96
// 042   ----------------------------------------
	BYTE	W96
// 043   ----------------------------------------
	BYTE	W96
// 044   ----------------------------------------
	BYTE	W96
// 045   ----------------------------------------
	BYTE	W96
// 046   ----------------------------------------
	BYTE	W96
// 047   ----------------------------------------
	BYTE	W96
// 048   ----------------------------------------
	BYTE	W96
// 049   ----------------------------------------
	BYTE	W96
// 050   ----------------------------------------
	BYTE	W96
// 051   ----------------------------------------
	BYTE	W96
// 052   ----------------------------------------
	BYTE	W96
// 053   ----------------------------------------
	BYTE	W96
// 054   ----------------------------------------
	BYTE	W96
// 055   ----------------------------------------
	BYTE	W96
// 056   ----------------------------------------
	BYTE	W96
// 057   ----------------------------------------
	BYTE	W96
// 058   ----------------------------------------
	BYTE		        En3   v084
	BYTE		N92     An3   v088
	BYTE	W96
// 059   ----------------------------------------
	BYTE		        En3   v080
	BYTE		N92     An3 
	BYTE	W84
	BYTE	GoTo
	 POIN2	SEQ_021_00000_13_B1
SEQ_021_00000_13_B2:
	BYTE	W12
// 060   ----------------------------------------
	BYTE	FINE

//******************************************************//
	ALIGN 4

SEQ_021_00000:
	BYTE	13	// NumTrks
	BYTE	0	// NumBlks
	BYTE	SEQ_021_00000_pri	// Priority
	BYTE	SEQ_021_00000_rev	// Reverb.

	POIN2	SEQ_021_00000_grp

	POIN2	SEQ_021_00000_1
	POIN2	SEQ_021_00000_2
	POIN2	SEQ_021_00000_3
	POIN2	SEQ_021_00000_4
	POIN2	SEQ_021_00000_5
	POIN2	SEQ_021_00000_6
	POIN2	SEQ_021_00000_7
	POIN2	SEQ_021_00000_8
	POIN2	SEQ_021_00000_9
	POIN2	SEQ_021_00000_10
	POIN2	SEQ_021_00000_11
	POIN2	SEQ_021_00000_12
	POIN2	SEQ_021_00000_13

	
