//Event file generated from Sappy .s format.
	#include "MPlayDef.event"

	#define	song25_grp  voicegroup000
	#define	song25_pri  0
	#define	song25_rev  0
	#define	song25_mvl  127
	#define	song25_key  0
	#define	song25_tbs  1
	#define	song25_exg  0
	#define	song25_cmp  1

	// .rodata
	//	song25
	ALIGN 4


//**************** Track 1 (Midi-Chn.0) ****************//

song25_001:
// 000   ----------------------------------------
 BYTE   KEYSH   song25_key+0
Label_0_01029CB6:
 BYTE   TEMPO   156*song25_tbs/2
 BYTE   VOICE   40
 BYTE   VOL   20*song25_mvl/mxv
 BYTE   PAN   c_v-64
 BYTE   VOL   47*song25_mvl/mxv
 BYTE   W12
 BYTE   N15  Cn3  v096
 BYTE   N15  Cn4
 BYTE   W12
 BYTE   N04  As2  v092
 BYTE   N04  As3
 BYTE   W12
 BYTE   N06  Fn3
 BYTE   N05  Fn4
 BYTE   W12
 BYTE   N02  Cn3  v088
 BYTE   N03  Cn4
 BYTE   W12
 BYTE   N05  As3
 BYTE   N05  As4
 BYTE   W12
 BYTE   Fn3  v092
 BYTE   N05  Fn4
 BYTE   W12
 BYTE   N02  Cn3  v076
 BYTE   N02  Cn4
 BYTE   W12
// 001   ----------------------------------------
Label_0_01029CE8:
 BYTE   N21  Gn3  v108
 BYTE   N20  Gn4
 BYTE   W36
 BYTE   N24  Ds3  v096
 BYTE   N24  Ds4
 BYTE   W36
 BYTE   N18  Fn3  v112
 BYTE   N18  Fn4
 BYTE   W24
 BYTE   PEND 
// 002   ----------------------------------------
 BYTE   W12
 BYTE   N15  Cn3  v096
 BYTE   N15  Cn4
 BYTE   W12
 BYTE   N04  As2  v092
 BYTE   N04  As3
 BYTE   W12
 BYTE   N06  Fn3
 BYTE   N05  Fn4
 BYTE   W12
 BYTE   N02  Cn3  v088
 BYTE   N03  Cn4
 BYTE   W12
 BYTE   N05  As3
 BYTE   N05  As4
 BYTE   W12
 BYTE   Fn3  v092
 BYTE   N05  Fn4
 BYTE   W12
 BYTE   N02  Cn3  v076
 BYTE   N02  Cn4
 BYTE   W12
 BYTE   PATT
  POIN2 Label_0_01029CE8
// 003   ----------------------------------------
 BYTE   W12
 BYTE   N01  Cn3  v064
 BYTE   N05  Cn4  v068
 BYTE   W12
 BYTE   N11  Dn3
 BYTE   N11  Dn4  v080
 BYTE   W12
 BYTE   N06  Ds3  v076
 BYTE   N06  Ds4  v088
 BYTE   W12
 BYTE   N05  Cn3  v068
 BYTE   N05  Cn4  v076
 BYTE   W12
 BYTE   N03  Ds3  v068
 BYTE   N03  Ds4  v080
 BYTE   W12
 BYTE   N04  Cn3  v068
 BYTE   N03  Cn4  v076
 BYTE   W12
 BYTE   N18  Fs3  v084
 BYTE   N18  Fs4  v100
 BYTE   W12
// 004   ----------------------------------------
Label_0_01029D59:
 BYTE   W12
 BYTE   N04  Cn3  v076
 BYTE   N04  Cn4  v084
 BYTE   W12
 BYTE   N11  Dn3  v072
 BYTE   N11  Dn4  v080
 BYTE   W12
 BYTE   N07  Ds3  v076
 BYTE   N07  Ds4  v084
 BYTE   W12
 BYTE   N05  Cn3  v068
 BYTE   N05  Cn4  v088
 BYTE   W12
 BYTE   N06  Ds3  v072
 BYTE   N06  Ds4  v080
 BYTE   W12
 BYTE   Cn3  v076
 BYTE   N06  Cn4  v084
 BYTE   W12
 BYTE   N19  Gn3  v100
 BYTE   N18  Gn4  v112
 BYTE   W12
 BYTE   PEND 
// 005   ----------------------------------------
Label_0_01029D8B:
 BYTE   W12
 BYTE   N04  Cn3  v076
 BYTE   N04  Cn4  v084
 BYTE   W12
 BYTE   N11  Dn3  v068
 BYTE   N11  Dn4  v080
 BYTE   W12
 BYTE   N06  Ds3  v072
 BYTE   N06  Ds4  v084
 BYTE   W12
 BYTE   N03  Cn3  v068
 BYTE   N03  Cn4  v080
 BYTE   W12
 BYTE   N06  Ds3  v076
 BYTE   N06  Ds4  v084
 BYTE   W12
 BYTE   N04  Cn3  v076
 BYTE   N04  Cn4  v088
 BYTE   W12
 BYTE   N17  Gs3  v104
 BYTE   N17  Gs4  v116
 BYTE   W12
 BYTE   PEND 
// 006   ----------------------------------------
 BYTE   W12
 BYTE   N03  Cn3  v080
 BYTE   N03  Cn4  v088
 BYTE   W12
 BYTE   N04  Ds3  v092
 BYTE   N04  Ds4  v096
 BYTE   W12
 BYTE   N20  As2  v092
 BYTE   N20  As3  v096
 BYTE   W24
 BYTE   N05  Dn3  v088
 BYTE   N05  Dn4  v092
 BYTE   W12
 BYTE   N12  Fn3  v100
 BYTE   N12  Fn4  v104
 BYTE   W12
 BYTE   N06  Cn3  v092
 BYTE   N06  Cn4  v096
 BYTE   W12
// 007   ----------------------------------------
 BYTE   W12
 BYTE   N01  Cn3  v064
 BYTE   N05  Cn4  v072
 BYTE   W12
 BYTE   N11  Dn3  v068
 BYTE   N11  Dn4  v084
 BYTE   W12
 BYTE   N06  Ds3  v076
 BYTE   N06  Ds4  v092
 BYTE   W12
 BYTE   N05  Cn3  v068
 BYTE   N05  Cn4  v080
 BYTE   W12
 BYTE   N03  Ds3  v068
 BYTE   N03  Ds4  v084
 BYTE   W12
 BYTE   N04  Cn3  v068
 BYTE   N03  Cn4  v080
 BYTE   W12
 BYTE   N18  Fs3  v084
 BYTE   N18  Fs4  v100
 BYTE   W12
 BYTE   PATT
  POIN2 Label_0_01029D59
 BYTE   PATT
  POIN2 Label_0_01029D8B
// 008   ----------------------------------------
 BYTE   W12
 BYTE   N03  Cn3  v080
 BYTE   N03  Cn4
 BYTE   W12
 BYTE   N04  Ds3  v092
 BYTE   N04  Ds4
 BYTE   W12
 BYTE   N20  As3
 BYTE   N20  As4
 BYTE   W24
 BYTE   N05  Fn3  v088
 BYTE   N05  Fn4
 BYTE   W12
 BYTE   N12  Gn3  v100
 BYTE   N12  Gn4
 BYTE   W12
 BYTE   N06  Cn4  v092
 BYTE   N06  Cn5
 BYTE   W12
// 009   ----------------------------------------
Label_0_01029E49:
 BYTE   W12
 BYTE   N04  Cn4  v096
 BYTE   N04  Cn5  v104
 BYTE   W36
 BYTE   N05  Cn3  v080
 BYTE   N04  Cn4  v096
 BYTE   W36
 BYTE   N05  Cn2  v080
 BYTE   N04  Cn3  v092
 BYTE   W12
 BYTE   PEND 
// 010   ----------------------------------------
Label_0_01029E60:
 BYTE   W12
 BYTE   N12  Cn2  v080
 BYTE   W12
 BYTE   N11  Dn2  v084
 BYTE   W12
 BYTE   N14  Ds2
 BYTE   W12
 BYTE   Fs2  v080
 BYTE   W12
 BYTE   N12  Ds2  v092
 BYTE   W12
 BYTE   N13  Dn2  v088
 BYTE   W12
 BYTE   N08  Cn2  v084
 BYTE   W12
 BYTE   PEND 
 BYTE   PATT
  POIN2 Label_0_01029E49
 BYTE   PATT
  POIN2 Label_0_01029E60
// 011   ----------------------------------------
 BYTE   W12
 BYTE   N24  Cn3  v080
 BYTE   W36
 BYTE   Cn3  v084
 BYTE   N28  Fn3  v088
 BYTE   W36
 BYTE   N23  Dn3  v084
 BYTE   N24  Gn3  v092
 BYTE   W12
// 012   ----------------------------------------
 BYTE   W24
 BYTE   N07  Fn3
 BYTE   N05  As3  v096
 BYTE   W24
 BYTE   Gn3
 BYTE   N04  Cn4  v092
 BYTE   W12
 BYTE   As3  v108
 BYTE   N04  Ds4  v112
 BYTE   W24
 BYTE   N84  Gs3  v076
 BYTE   N80  Cn4  v100
 BYTE   N84  Fn4  v104
 BYTE   W12
// 013   ----------------------------------------
 BYTE   W80
 BYTE   W01
 BYTE   N05  An4  v080
 BYTE   W03
 BYTE   N92  Dn4  v076
 BYTE   N92  Fn4  v092
 BYTE   N88  As4  v108
 BYTE   W12
// 014   ----------------------------------------
 BYTE   W84
 BYTE   N02  As4  v060
 BYTE   W03
 BYTE   Cn5  v072
 BYTE   W03
 BYTE   Dn5  v088
 BYTE   W03
 BYTE   N03  Ds5  v100
 BYTE   W03
// 015   ----------------------------------------
Label_0_01029ED3:
 BYTE   N13  Fn4  v100
 BYTE   N07  Cn5  v096
 BYTE   N12  Fn5  v100
 BYTE   W12
 BYTE   N05  Ds4  v080
 BYTE   N03  Gn4  v072
 BYTE   N05  Cn5  v084
 BYTE   W06
 BYTE   Dn4  v080
 BYTE   W06
 BYTE   N03  Ds4  v092
 BYTE   N03  Gn4  v068
 BYTE   N04  Cn5  v076
 BYTE   W12
 BYTE   N12  Ds4  v096
 BYTE   N05  Gn4  v088
 BYTE   N12  Cn5  v092
 BYTE   W12
 BYTE   N05  Dn4  v088
 BYTE   N04  Gn4  v072
 BYTE   W06
 BYTE   N05  Cn4  v084
 BYTE   W06
 BYTE   N04  Dn4  v096
 BYTE   N05  Gn4  v072
 BYTE   W12
 BYTE   N11  An3  v076
 BYTE   N10  Dn4  v092
 BYTE   N08  Gn4  v100
 BYTE   W12
 BYTE   N04  Gn3  v072
 BYTE   N02  Cn4  v068
 BYTE   W06
 BYTE   N04  Ds3  v072
 BYTE   N04  As3  v084
 BYTE   W06
 BYTE   PEND 
// 016   ----------------------------------------
Label_0_01029F29:
 BYTE   N02  Gn3  v064
 BYTE   N01  Cn4  v080
 BYTE   W12
 BYTE   N11  Fn3  v076
 BYTE   N10  As3  v092
 BYTE   N08  Fn4  v100
 BYTE   W12
 BYTE   N04  Ds3  v080
 BYTE   N02  As3  v068
 BYTE   W06
 BYTE   N04  Dn3  v072
 BYTE   W06
 BYTE   N02  Ds3  v068
 BYTE   N01  As3  v080
 BYTE   W12
 BYTE   N11  Fn3  v076
 BYTE   N11  As3
 BYTE   N16  Ds4  v096
 BYTE   W12
 BYTE   N11  Cn3  v076
 BYTE   N13  Fn3  v072
 BYTE   N13  Cn4  v080
 BYTE   W12
 BYTE   N21  As3
 BYTE   N14  Fn4  v092
 BYTE   W12
 BYTE   N09  Ds4  v084
 BYTE   W12
 BYTE   PEND 
// 017   ----------------------------------------
 BYTE   N07  Fn3
 BYTE   N07  As3
 BYTE   N06  Ds4  v104
 BYTE   W12
 BYTE   N05  Ds3  v072
 BYTE   N05  Gn3
 BYTE   W06
 BYTE   N03  Dn3  v060
 BYTE   N03  Fs3
 BYTE   W06
 BYTE   N02  Ds3  v076
 BYTE   N02  Gn3
 BYTE   W12
 BYTE   N07  Ds3  v072
 BYTE   W12
 BYTE   N05  Dn3
 BYTE   W06
 BYTE   N03  Cn3  v060
 BYTE   N03  Fn3
 BYTE   W06
 BYTE   N02  Dn3  v076
 BYTE   W12
 BYTE   N07  Dn3  v072
 BYTE   W12
 BYTE   N05  Cn3
 BYTE   N05  Fn3
 BYTE   W06
 BYTE   N03  As2  v060
 BYTE   N03  Ds3
 BYTE   W06
// 018   ----------------------------------------
 BYTE   N02  Cn3  v076
 BYTE   N02  Fn3
 BYTE   W12
 BYTE   N07  Cn3  v072
 BYTE   N07  Fn3  v084
 BYTE   W12
 BYTE   N05  As2  v072
 BYTE   N05  Ds3
 BYTE   W06
 BYTE   N03  Gs2  v060
 BYTE   N03  Dn3
 BYTE   W06
 BYTE   N02  As2  v076
 BYTE   N02  Ds3
 BYTE   W12
 BYTE   N07  As2  v072
 BYTE   N07  Ds3
 BYTE   W12
 BYTE   N07
 BYTE   N07  Gs3
 BYTE   W12
 BYTE   Fn3
 BYTE   N07  As3
 BYTE   W12
 BYTE   N07
 BYTE   N07  Ds4
 BYTE   W12
 BYTE   PATT
  POIN2 Label_0_01029ED3
 BYTE   PATT
  POIN2 Label_0_01029F29
// 019   ----------------------------------------
 BYTE   N07  Fn3  v084
 BYTE   N07  As3
 BYTE   N06  Ds4  v104
 BYTE   W12
 BYTE   N05  Ds3  v072
 BYTE   N05  Gn3
 BYTE   W06
 BYTE   N03  Dn3  v060
 BYTE   N03  Fs3
 BYTE   W06
 BYTE   N02  Ds3  v076
 BYTE   N02  Gn3
 BYTE   W12
 BYTE   N07  Ds3  v072
 BYTE   N68  Gn3  v068
 BYTE   N68  Cn4  v084
 BYTE   W12
 BYTE   N05  Dn3  v072
 BYTE   W06
 BYTE   N03  Cn3  v060
 BYTE   N03  Fn3
 BYTE   W06
 BYTE   N02  Dn3  v076
 BYTE   W12
 BYTE   N07  Dn3  v072
 BYTE   W12
 BYTE   N05  Cn3
 BYTE   N05  Fn3
 BYTE   W06
 BYTE   N03  As2  v060
 BYTE   N03  Ds3
 BYTE   W06
// 020   ----------------------------------------
 BYTE   N02  Cn3  v076
 BYTE   N02  Fn3
 BYTE   W12
 BYTE   N07  Cn3  v072
 BYTE   N07  Fn3  v084
 BYTE   N05  Gn3  v088
 BYTE   N05  Cn4
 BYTE   W12
 BYTE   As2  v072
 BYTE   N05  Ds3
 BYTE   N05  Gn3  v088
 BYTE   N05  Cn4
 BYTE   W06
 BYTE   N03  Gs2  v060
 BYTE   N03  Dn3
 BYTE   N03  Fs3  v076
 BYTE   N03  Bn3
 BYTE   W06
 BYTE   N02  As2
 BYTE   N02  Ds3
 BYTE   N02  Gn3  v088
 BYTE   N02  Cn4
 BYTE   W12
 BYTE   N07  As2  v072
 BYTE   N07  Ds3
 BYTE   N07  Gn3
 BYTE   N07  Cn4
 BYTE   W12
 BYTE   Ds3  v088
 BYTE   N07  Gs3
 BYTE   N07  Cn4
 BYTE   N07  Fn4
 BYTE   W12
 BYTE   Fn3  v072
 BYTE   N07  As3
 BYTE   N07  Ds4
 BYTE   N07  Gs4  v092
 BYTE   W12
 BYTE   As3  v072
 BYTE   N07  Ds4
 BYTE   N07  As4  v108
 BYTE   N07  Ds5
 BYTE   W12
// 021   ----------------------------------------
 BYTE   N13  Fn4  v100
 BYTE   N08  Cn5  v088
 BYTE   N07  Fn5  v100
 BYTE   W12
 BYTE   N05  Ds4  v080
 BYTE   N04  Gn4  v096
 BYTE   N02  Cn5  v060
 BYTE   W06
 BYTE   N05  Dn4  v080
 BYTE   W06
 BYTE   N03  Ds4  v092
 BYTE   N02  Gn4  v072
 BYTE   N04  Cn5  v092
 BYTE   W12
 BYTE   N08  Ds4  v096
 BYTE   N07  Gn4  v092
 BYTE   N09  Cn5
 BYTE   W12
 BYTE   N05  As3  v080
 BYTE   N06  Dn4  v084
 BYTE   N02  Gn4  v088
 BYTE   W06
 BYTE   N05  An3  v080
 BYTE   W06
 BYTE   N03  As3  v092
 BYTE   N04  Dn4  v088
 BYTE   N02  Gn4
 BYTE   W12
 BYTE   N06  An3
 BYTE   N06  Dn4
 BYTE   N11  Gn4  v100
 BYTE   W12
 BYTE   N05  En3  v080
 BYTE   N06  An3  v076
 BYTE   N01  Dn4  v092
 BYTE   W06
 BYTE   N05  Dn3  v080
 BYTE   W06
// 022   ----------------------------------------
 BYTE   N03  En3  v092
 BYTE   N02  An3  v076
 BYTE   N02  Dn4  v100
 BYTE   W12
 BYTE   N06  Gn3  v088
 BYTE   N09  Cn4  v080
 BYTE   N09  Fn4  v096
 BYTE   W12
 BYTE   N05  Dn3  v080
 BYTE   N05  Gn3  v064
 BYTE   N02  Cn4
 BYTE   W06
 BYTE   N05  Cn3  v080
 BYTE   W06
 BYTE   N03  Dn3  v092
 BYTE   N05  Gn3  v080
 BYTE   N03  Cn4  v084
 BYTE   W12
 BYTE   N09  Fn3  v076
 BYTE   N09  As3
 BYTE   N12  Ds4  v096
 BYTE   W12
 BYTE   N09  Cn3  v076
 BYTE   N10  Fn3
 BYTE   N12  As3  v084
 BYTE   W12
 BYTE   N09  Dn3  v076
 BYTE   N09  Gn3  v072
 BYTE   N09  Cn4  v092
 BYTE   W12
 BYTE   N08  Gn3  v068
 BYTE   N08  Cn4
 BYTE   N08  Fn4  v084
 BYTE   W12
// 023   ----------------------------------------
 BYTE   N12  An3
 BYTE   N12  Dn4
 BYTE   N12  Gn4  v096
 BYTE   W12
 BYTE   Gn3  v076
 BYTE   N12  Cn4
 BYTE   N14  Fn4  v080
 BYTE   W12
 BYTE   N06  An3  v076
 BYTE   N06  Dn4
 BYTE   N05  Gn4
 BYTE   W12
 BYTE   N30  Dn3  v084
 BYTE   N30  Gn3
 BYTE   N28  Cn4  v100
 BYTE   W32
 BYTE   N05  Bn4  v076
 BYTE   W04
 BYTE   N28  Dn4  v080
 BYTE   N30  Gn4  v092
 BYTE   N28  Cn5  v096
 BYTE   W24
// 024   ----------------------------------------
 BYTE   W12
 BYTE   Cn4  v080
 BYTE   N28  Fn4
 BYTE   N28  As4  v084
 BYTE   W36
 BYTE   N22  An3  v072
 BYTE   N23  Dn4  v088
 BYTE   N23  Gn4
 BYTE   W24
 BYTE   N08  Gn3  v072
 BYTE   N09  Cn4
 BYTE   N11  Fn4  v084
 BYTE   W24
// 025   ----------------------------------------
 BYTE   N08  En4  v100
 BYTE   N06  An4  v092
 BYTE   N08  Dn5  v104
 BYTE   W12
 BYTE   N05  Bn3  v080
 BYTE   N02  En4  v076
 BYTE   N04  An4  v100
 BYTE   W06
 BYTE   N05  As3  v080
 BYTE   W06
 BYTE   N03  Bn3  v092
 BYTE   N02  En4  v088
 BYTE   N01  An4  v084
 BYTE   W12
 BYTE   N06  Bn3  v088
 BYTE   N06  En4
 BYTE   N08  An4  v112
 BYTE   W12
 BYTE   N05  Fs3  v080
 BYTE   N02  Bn3  v044
 BYTE   N05  En4  v092
 BYTE   W06
 BYTE   Fn3  v080
 BYTE   W06
 BYTE   N03  Fs3  v092
 BYTE   N02  Bn3  v080
 BYTE   N03  En4  v084
 BYTE   W12
 BYTE   N09  Fs3  v088
 BYTE   N14  Bn3  v092
 BYTE   N13  En4  v112
 BYTE   W12
 BYTE   N05  En3  v080
 BYTE   N05  An3  v088
 BYTE   N02  Dn4  v096
 BYTE   W06
 BYTE   N05  Ds3  v080
 BYTE   W06
// 026   ----------------------------------------
 BYTE   N03  En3  v092
 BYTE   N05  An3  v072
 BYTE   N02  Dn4  v096
 BYTE   W12
 BYTE   N05  En3  v080
 BYTE   N07  An3  v100
 BYTE   N11  Dn4  v104
 BYTE   W12
 BYTE   N05  Bn2  v084
 BYTE   N05  En3
 BYTE   N04  An3  v096
 BYTE   W06
 BYTE   N05  As2  v084
 BYTE   W06
 BYTE   En3  v080
 BYTE   N05  An3
 BYTE   N05  Dn4  v088
 BYTE   W12
 BYTE   Fs3  v080
 BYTE   N13  Bn3  v072
 BYTE   N12  En4  v092
 BYTE   W12
 BYTE   N05  En3  v080
 BYTE   N10  An3  v072
 BYTE   N10  Dn4  v076
 BYTE   W12
 BYTE   N05  Bn3  v080
 BYTE   N10  En4  v076
 BYTE   N11  An4  v092
 BYTE   W12
 BYTE   N05  En3  v080
 BYTE   N09  An3  v068
 BYTE   N10  Dn4  v084
 BYTE   W12
// 027   ----------------------------------------
 BYTE   N13  Gn3  v092
 BYTE   N13  Cn4
 BYTE   N13  Fn4  v100
 BYTE   W12
 BYTE   N06  Bn3  v080
 BYTE   N06  En4  v088
 BYTE   W12
 BYTE   N03  Gn3  v076
 BYTE   N03  Cn4
 BYTE   N02  Fn4  v072
 BYTE   W12
 BYTE   N23  Dn3  v080
 BYTE   N23  Gn3
 BYTE   N24  Cn4  v104
 BYTE   W30
 BYTE   N02  Gn4  v080
 BYTE   W03
 BYTE   Gs4
 BYTE   W03
 BYTE   N10  Dn4
 BYTE   N11  En4
 BYTE   N11  An4  v112
 BYTE   W12
 BYTE   N06  Cs4  v080
 BYTE   N05  Dn4
 BYTE   N06  Gs4  v088
 BYTE   W12
// 028   ----------------------------------------
 BYTE   N02  Dn4  v076
 BYTE   N02  En4
 BYTE   N03  An4  v096
 BYTE   W12
 BYTE   N23  En3  v084
 BYTE   N23  Bn3
 BYTE   N24  En4  v104
 BYTE   W28
 BYTE   W01
 BYTE   N02  As4  v080
 BYTE   W03
 BYTE   Bn4
 BYTE   W04
 BYTE   N08  Fn4
 BYTE   N10  Gn4
 BYTE   N09  Cn5  v092
 BYTE   W12
 BYTE   N08  Gn3  v080
 BYTE   N05  Cn4
 BYTE   N09  Fn4  v092
 BYTE   W12
 BYTE   N05  An3  v104
 BYTE   N05  Dn4
 BYTE   N06  Gn4  v108
 BYTE   W12
 BYTE   N05  En4  v080
 BYTE   N04  An4  v104
 BYTE   N06  Dn5  v108
 BYTE   W12
// 029   ----------------------------------------
 BYTE   Fs4  v100
 BYTE   N07  Bn4  v096
 BYTE   N07  En5  v100
 BYTE   W12
 BYTE   N05  Cs4  v072
 BYTE   N05  Fs4  v084
 BYTE   N01  Bn4  v088
 BYTE   W12
 BYTE   N04  Cs4  v084
 BYTE   N07  Fs4  v076
 BYTE   N05  Bn4  v096
 BYTE   W12
 BYTE   N04  Gs3  v092
 BYTE   N04  Cs4  v080
 BYTE   N06  Fs4  v096
 BYTE   W11
 BYTE   N09  Gs3  v092
 BYTE   N08  Cs4  v084
 BYTE   N09  Fs4  v104
 BYTE   W13
 BYTE   N04  Cs4  v088
 BYTE   N05  Fs4  v080
 BYTE   N01  Bn4  v068
 BYTE   W12
 BYTE   N05  Cs4  v084
 BYTE   N06  Fs4  v076
 BYTE   N04  Bn4  v092
 BYTE   W12
 BYTE   N05  Gs3  v088
 BYTE   N04  Cs4  v076
 BYTE   N04  Fs4  v096
 BYTE   W12
// 030   ----------------------------------------
Label_0_0102A2DA:
 BYTE   N06  An3  v100
 BYTE   N07  Dn4  v096
 BYTE   N07  Gn4  v100
 BYTE   W12
 BYTE   N05  En3  v072
 BYTE   N05  An3  v084
 BYTE   N01  Dn4  v088
 BYTE   W12
 BYTE   N04  En3  v084
 BYTE   N07  An3  v076
 BYTE   N05  Dn4  v096
 BYTE   W12
 BYTE   N04  Bn2  v092
 BYTE   N04  En3  v080
 BYTE   N06  An3  v096
 BYTE   W12
 BYTE   N09  Bn2  v092
 BYTE   N08  En3  v084
 BYTE   N09  An3  v104
 BYTE   W12
 BYTE   N05  En3  v088
 BYTE   N05  An3  v080
 BYTE   N02  Dn4  v068
 BYTE   W12
 BYTE   N05  En3  v084
 BYTE   N06  An3  v076
 BYTE   N04  Dn4  v092
 BYTE   W12
 BYTE   N05  An3  v088
 BYTE   N04  Dn4  v076
 BYTE   N04  Gn4  v096
 BYTE   W12
 BYTE   PEND 
// 031   ----------------------------------------
 BYTE   N06  Fs4  v100
 BYTE   N07  Bn4  v096
 BYTE   N07  En5  v100
 BYTE   W12
 BYTE   N05  Cs4  v072
 BYTE   N05  Fs4  v084
 BYTE   N01  Bn4  v088
 BYTE   W12
 BYTE   N04  Cs4  v084
 BYTE   N07  Fs4  v076
 BYTE   N05  Bn4  v096
 BYTE   W12
 BYTE   N04  Gs3  v092
 BYTE   N04  Cs4  v080
 BYTE   N06  Fs4  v096
 BYTE   W12
 BYTE   N09  Gs3  v092
 BYTE   N08  Cs4  v084
 BYTE   N09  Fs4  v104
 BYTE   W12
 BYTE   N05  Cs4  v088
 BYTE   N05  Fs4  v080
 BYTE   N02  Bn4  v068
 BYTE   W12
 BYTE   N05  Cs4  v084
 BYTE   N06  Fs4  v076
 BYTE   N04  Bn4  v092
 BYTE   W12
 BYTE   N05  Gs3  v088
 BYTE   N04  Cs4  v076
 BYTE   N04  Fs4  v096
 BYTE   W12
 BYTE   PATT
  POIN2 Label_0_0102A2DA
// 032   ----------------------------------------
Label_0_0102A380:
 BYTE   N06  Fs4  v100
 BYTE   N07  Bn4  v096
 BYTE   N07  En5  v100
 BYTE   W12
 BYTE   N05  Cs4  v072
 BYTE   N05  Fs4  v084
 BYTE   N01  Bn4  v088
 BYTE   W12
 BYTE   N04  Cs4  v084
 BYTE   N07  Fs4  v076
 BYTE   N05  Bn4  v096
 BYTE   W12
 BYTE   N04  Gs3  v092
 BYTE   N04  Cs4  v080
 BYTE   N06  Fs4  v096
 BYTE   W12
 BYTE   An3  v100
 BYTE   N07  Dn4  v096
 BYTE   N07  Gn4  v100
 BYTE   W12
 BYTE   N05  En3  v072
 BYTE   N05  An3  v084
 BYTE   N01  Dn4  v088
 BYTE   W12
 BYTE   N04  En3  v084
 BYTE   N07  An3  v076
 BYTE   N05  Dn4  v096
 BYTE   W12
 BYTE   N04  An3  v092
 BYTE   N04  Dn4  v080
 BYTE   N06  Gn4  v096
 BYTE   W12
 BYTE   PEND 
 BYTE   PATT
  POIN2 Label_0_0102A380
// 033   ----------------------------------------
 BYTE   N04  Bn3  v084
 BYTE   N03  En4  v088
 BYTE   N05  An4
 BYTE   W12
 BYTE   Bn3  v060
 BYTE   N02  En4  v056
 BYTE   N05  An4  v068
 BYTE   W12
 BYTE   N04  Bn3  v064
 BYTE   N04  En4  v068
 BYTE   N05  An4
 BYTE   W12
 BYTE   Bn3  v064
 BYTE   N05  En4  v076
 BYTE   N05  An4  v072
 BYTE   W12
 BYTE   N04  Bn3
 BYTE   N05  En4  v076
 BYTE   N05  An4  v080
 BYTE   W12
 BYTE   N04  Bn3
 BYTE   N02  En4  v088
 BYTE   N05  An4
 BYTE   W12
 BYTE   Bn3  v080
 BYTE   N03  En4  v088
 BYTE   N05  An4  v076
 BYTE   W12
 BYTE   Bn3  v080
 BYTE   N03  En4  v084
 BYTE   N05  An4  v080
 BYTE   W12
// 034   ----------------------------------------
 BYTE   N04  Bn3  v084
 BYTE   N03  En4  v088
 BYTE   N04  An4
 BYTE   W12
 BYTE   N02  Bn3
 BYTE   N03  En4  v092
 BYTE   N04  An4  v096
 BYTE   W12
 BYTE   N03  Bn3  v092
 BYTE   N01  En4
 BYTE   N04  An4  v096
 BYTE   W12
 BYTE   Bn3  v088
 BYTE   N05  En4  v084
 BYTE   N05  An4  v096
 BYTE   W12
 BYTE   Bn3
 BYTE   N05  En4  v088
 BYTE   N05  An4  v100
 BYTE   W12
 BYTE   Bn3  v092
 BYTE   N05  En4  v096
 BYTE   N05  An4  v092
 BYTE   W12
 BYTE   N04  Bn3  v096
 BYTE   N05  En4  v092
 BYTE   N05  An4  v096
 BYTE   W12
 BYTE   N04  Bn3  v088
 BYTE   N01  En4  v092
 BYTE   N02  An4  v100
 BYTE   W12
// 035   ----------------------------------------
 BYTE   N04  Cs4  v084
 BYTE   N03  Fs4  v088
 BYTE   N05  Bn4
 BYTE   W12
 BYTE   Cs4  v060
 BYTE   N02  Fs4  v056
 BYTE   N05  Bn4  v068
 BYTE   W12
 BYTE   N04  Cs4  v064
 BYTE   N04  Fs4  v068
 BYTE   N05  Bn4
 BYTE   W12
 BYTE   Cs4  v064
 BYTE   N05  Fs4  v076
 BYTE   N05  Bn4  v072
 BYTE   W12
 BYTE   N04  Cs4
 BYTE   N05  Fs4  v076
 BYTE   N05  Bn4  v080
 BYTE   W12
 BYTE   N04  Cs4
 BYTE   N02  Fs4  v088
 BYTE   N05  Bn4
 BYTE   W12
 BYTE   Cs4  v080
 BYTE   N03  Fs4  v088
 BYTE   N05  Bn4  v076
 BYTE   W12
 BYTE   Cs4  v080
 BYTE   N03  Fs4  v084
 BYTE   N05  Bn4  v080
 BYTE   W12
// 036   ----------------------------------------
 BYTE   N04  Cs4  v084
 BYTE   N03  Fs4  v088
 BYTE   N04  Bn4
 BYTE   W12
 BYTE   N02  Cs4
 BYTE   N03  Fs4  v092
 BYTE   N04  Bn4  v096
 BYTE   W12
 BYTE   N03  Cs4  v092
 BYTE   N01  Fs4
 BYTE   N04  Bn4  v096
 BYTE   W12
 BYTE   Cs4  v088
 BYTE   N05  Fs4  v084
 BYTE   N05  Bn4  v096
 BYTE   W12
 BYTE   Cs4
 BYTE   N05  Fs4  v088
 BYTE   N05  Bn4  v100
 BYTE   W12
 BYTE   Cs4  v092
 BYTE   N05  Fs4  v096
 BYTE   N05  Bn4  v092
 BYTE   W12
 BYTE   N04  Cs4  v096
 BYTE   N05  Fs4  v092
 BYTE   N05  Bn4  v096
 BYTE   W12
 BYTE   N04  Cs4  v088
 BYTE   N01  Fs4  v092
 BYTE   N02  Bn4  v100
 BYTE   W12
// 037   ----------------------------------------
 BYTE   N06  Cn2  v120
 BYTE   N02  Cn3  v084
 BYTE   N03  Fn3  v088
 BYTE   N05  As3  v104
 BYTE   W12
 BYTE   N10  Cn5  v108
 BYTE   W12
 BYTE   N09  Gn4  v096
 BYTE   W12
 BYTE   N13  Dn4  v080
 BYTE   W12
 BYTE   N11  Gn4  v076
 BYTE   W12
 BYTE   N06  Cn2  v108
 BYTE   N01  Cn3  v084
 BYTE   N05  Fn3  v088
 BYTE   N05  As3  v112
 BYTE   N07  Fn4  v064
 BYTE   W12
 BYTE   Cn4  v096
 BYTE   W12
 BYTE   N12  Dn4  v080
 BYTE   W12
// 038   ----------------------------------------
 BYTE   N09  Cn4  v072
 BYTE   W12
 BYTE   N21  Fn3  v076
 BYTE   W12
 BYTE   N09  Gn3  v088
 BYTE   W12
 BYTE   N10  Cn3
 BYTE   W12
 BYTE   N13  Dn3  v068
 BYTE   W12
 BYTE   N15  Fn3  v076
 BYTE   W12
 BYTE   N14  Gn3  v080
 BYTE   W12
 BYTE   N12  Cn4  v084
 BYTE   W12
// 039   ----------------------------------------
 BYTE   N07  Fs1  v112
 BYTE   N02  Cn3  v084
 BYTE   N03  Ds3  v088
 BYTE   N05  Gs3  v104
 BYTE   W12
 BYTE   N10  As4  v108
 BYTE   W12
 BYTE   N09  Fn4  v096
 BYTE   W12
 BYTE   N13  Cn4  v080
 BYTE   W12
 BYTE   N11  Fn4  v076
 BYTE   W12
 BYTE   N07  Fs1  v116
 BYTE   N01  Cn3  v084
 BYTE   N05  Ds3  v088
 BYTE   N05  Gs3  v112
 BYTE   N07  Ds4  v064
 BYTE   W12
 BYTE   As3  v096
 BYTE   W12
 BYTE   N12  Ds4  v080
 BYTE   W12
// 040   ----------------------------------------
 BYTE   N09  Gs3  v072
 BYTE   W12
 BYTE   N21  Cn4  v076
 BYTE   W12
 BYTE   N06  Fn3  v088
 BYTE   W12
 BYTE   N08  As3
 BYTE   W12
 BYTE   Ds4
 BYTE   W12
 BYTE   Gs3
 BYTE   W12
 BYTE   Cs4
 BYTE   W12
 BYTE   Gs4
 BYTE   W12
// 041   ----------------------------------------
 BYTE   N06  Gn1  v096
 BYTE   N07  Cn3  v088
 BYTE   N08  Fn3  v100
 BYTE   N06  Gn3  v112
 BYTE   W12
 BYTE   N10  Dn5  v116
 BYTE   W12
 BYTE   N06  As4  v080
 BYTE   W12
 BYTE   N07  Fn4
 BYTE   W12
 BYTE   N09  Gn4  v076
 BYTE   W12
 BYTE   N06  Gn1  v096
 BYTE   N07  Cn3  v088
 BYTE   N08  Fn3  v100
 BYTE   N06  Gn3  v112
 BYTE   N07  Dn4  v084
 BYTE   W12
 BYTE   N11  Fn4
 BYTE   W12
 BYTE   N07  As3  v076
 BYTE   W12
// 042   ----------------------------------------
 BYTE   N09  Dn4  v080
 BYTE   W12
 BYTE   N11  Fn3  v076
 BYTE   W12
 BYTE   N08  Gn3  v080
 BYTE   W12
 BYTE   N12  Cn4  v076
 BYTE   W12
 BYTE   N11  Fn3  v088
 BYTE   W12
 BYTE   N14  As3  v084
 BYTE   W12
 BYTE   N12  Cn4  v088
 BYTE   W12
 BYTE   N05  Fn4  v108
 BYTE   W12
// 043   ----------------------------------------
 BYTE   N06  Gn1  v096
 BYTE   N07  Bn2  v088
 BYTE   N08  Fn3  v100
 BYTE   N06  Gn3  v112
 BYTE   W12
 BYTE   N10  Dn5  v116
 BYTE   W12
 BYTE   N06  As4  v096
 BYTE   W12
 BYTE   N07  Fn4  v080
 BYTE   W12
 BYTE   N09  Gn4  v076
 BYTE   W12
 BYTE   N06  Gn1  v096
 BYTE   N07  Bn2  v088
 BYTE   N08  Fn3  v100
 BYTE   N06  Gn3  v112
 BYTE   N07  Cs4  v084
 BYTE   W12
 BYTE   N11  Fn4
 BYTE   W12
 BYTE   N09  As3  v076
 BYTE   W12
// 044   ----------------------------------------
 BYTE   Ds4  v080
 BYTE   W12
 BYTE   N11  Gs3  v076
 BYTE   W12
 BYTE   N09  Cs4  v080
 BYTE   W12
 BYTE   N11  Fs3  v076
 BYTE   W12
 BYTE   As3  v088
 BYTE   W12
 BYTE   N14  Ds4  v084
 BYTE   W12
 BYTE   N12  Gs4  v088
 BYTE   W12
 BYTE   N09  Cs5  v108
 BYTE   W12
// 045   ----------------------------------------
Label_0_0102A638:
 BYTE   N05  Bn2  v080
 BYTE   N03  Fn3  v084
 BYTE   N04  Gn3  v092
 BYTE   N05  Cn5  v076
 BYTE   N06  Fn5  v092
 BYTE   W12
 BYTE   N02  Bn2  v060
 BYTE   N02  Fn3  v068
 BYTE   N05  Gn3  v072
 BYTE   N05  Gn4
 BYTE   N05  Cn5  v084
 BYTE   W24
 BYTE   N02  Bn2  v072
 BYTE   N03  Fn3  v080
 BYTE   N02  Gn3
 BYTE   N05  Cn5  v076
 BYTE   N05  Fn5  v092
 BYTE   W12
 BYTE   N04  Bn2  v064
 BYTE   N05  Fn3  v088
 BYTE   N05  Gn3
 BYTE   N05  Gn4  v072
 BYTE   N06  Cn5  v092
 BYTE   W24
 BYTE   N01  Bn2  v076
 BYTE   N05  Fn3  v092
 BYTE   N05  Gn3
 BYTE   N05  Cn5  v076
 BYTE   N06  Fn5  v096
 BYTE   W12
 BYTE   N05  Bn2  v088
 BYTE   N05  Fn3  v084
 BYTE   N05  Gn3
 BYTE   N05  Gn4  v072
 BYTE   N05  Cn5  v104
 BYTE   W12
 BYTE   PEND 
// 046   ----------------------------------------
 BYTE   W12
 BYTE   N04  Cn4  v088
 BYTE   N04  Fn4
 BYTE   W06
 BYTE   N03  Cn4  v076
 BYTE   N03  Fn4
 BYTE   W06
 BYTE   N04  As3  v088
 BYTE   N04  Ds4
 BYTE   W06
 BYTE   N03  As3  v076
 BYTE   N03  Ds4
 BYTE   W06
 BYTE   N04  Fn3  v088
 BYTE   N04  As3
 BYTE   W06
 BYTE   N03  Fn3  v076
 BYTE   N03  As3
 BYTE   W06
 BYTE   N04  Cn3  v088
 BYTE   N04  Fn3
 BYTE   W06
 BYTE   N03  Cn3  v076
 BYTE   N03  Fn3
 BYTE   W06
 BYTE   N04  Fn3  v088
 BYTE   N04  As3
 BYTE   W06
 BYTE   N03  Fn3  v076
 BYTE   N03  As3
 BYTE   W06
 BYTE   N04  As3  v088
 BYTE   N04  Ds4
 BYTE   W06
 BYTE   N03  As3  v076
 BYTE   N03  Ds4
 BYTE   W06
 BYTE   N04  Cn4  v088
 BYTE   N04  Fn4
 BYTE   W06
 BYTE   N03  Cn4  v076
 BYTE   N03  Fn4
 BYTE   W06
 BYTE   PATT
  POIN2 Label_0_0102A638
// 047   ----------------------------------------
 BYTE   W12
 BYTE   N04  Fn4  v088
 BYTE   N04  As4
 BYTE   W06
 BYTE   N03  Fn4  v076
 BYTE   N03  As4
 BYTE   W06
 BYTE   N04  Cn4  v088
 BYTE   N04  Fn4
 BYTE   W06
 BYTE   N03  Cn4  v076
 BYTE   N03  Fn4
 BYTE   W06
 BYTE   N04  Gn3  v088
 BYTE   N04  Cn4
 BYTE   W06
 BYTE   N03  Gn3  v076
 BYTE   N03  Cn4
 BYTE   W06
 BYTE   N06  Dn3  v088
 BYTE   N04  Gn3
 BYTE   W06
 BYTE   N05  Dn3  v076
 BYTE   N03  Gn3
 BYTE   W06
 BYTE   N04  Gn3  v088
 BYTE   N04  Cn4
 BYTE   W06
 BYTE   N03  Gn3  v076
 BYTE   N03  Cn4
 BYTE   W06
 BYTE   N04  Cn4  v084
 BYTE   N04  Fn4
 BYTE   W06
 BYTE   N03  Cn4  v076
 BYTE   N03  Fn4
 BYTE   W06
 BYTE   N04  Fn4  v088
 BYTE   N04  As4
 BYTE   W06
 BYTE   N03  Fn4  v076
 BYTE   N03  As4
 BYTE   W05
 BYTE   GoTo
  POIN2 Label_0_01029CB6
 BYTE   FINE

//**************** Track 2 (Midi-Chn.1) ****************//

song25_002:
// 000   ----------------------------------------
 BYTE   KEYSH   song25_key+0
Label_1_0102A74E:
 BYTE   VOICE   1
 BYTE   VOL   47*song25_mvl/mxv
 BYTE   PAN   c_v-30
 BYTE   W96
// 001   ----------------------------------------
 BYTE   W96
// 002   ----------------------------------------
 BYTE   W96
// 003   ----------------------------------------
 BYTE   W96
// 004   ----------------------------------------
 BYTE   W96
// 005   ----------------------------------------
 BYTE   W96
// 006   ----------------------------------------
 BYTE   W96
// 007   ----------------------------------------
 BYTE   W96
// 008   ----------------------------------------
 BYTE   W96
// 009   ----------------------------------------
 BYTE   W96
// 010   ----------------------------------------
 BYTE   W96
// 011   ----------------------------------------
 BYTE   W96
// 012   ----------------------------------------
 BYTE   W96
// 013   ----------------------------------------
 BYTE   W96
// 014   ----------------------------------------
 BYTE   W96
// 015   ----------------------------------------
 BYTE   W96
// 016   ----------------------------------------
 BYTE   W12
 BYTE   N21  Cn2  v072
 BYTE   W36
 BYTE   N24  As1  v088
 BYTE   W36
 BYTE   Gs1  v076
 BYTE   W12
// 017   ----------------------------------------
 BYTE   W24
 BYTE   N07  Fs1
 BYTE   W24
 BYTE   N03  Fn1  v072
 BYTE   W12
 BYTE   N05  Ds1  v076
 BYTE   W24
 BYTE   N84  Cs1  v096
 BYTE   W12
// 018   ----------------------------------------
 BYTE   W84
 BYTE   N92  Fs0  v072
 BYTE   N92  Fs1  v080
 BYTE   W12
// 019   ----------------------------------------
 BYTE   W96
// 020   ----------------------------------------
 BYTE   W96
// 021   ----------------------------------------
 BYTE   W96
// 022   ----------------------------------------
 BYTE   W96
// 023   ----------------------------------------
 BYTE   W96
// 024   ----------------------------------------
 BYTE   W96
// 025   ----------------------------------------
 BYTE   W96
// 026   ----------------------------------------
 BYTE   W96
// 027   ----------------------------------------
 BYTE   W96
// 028   ----------------------------------------
 BYTE   W96
// 029   ----------------------------------------
 BYTE   W96
// 030   ----------------------------------------
 BYTE   W96
// 031   ----------------------------------------
 BYTE   W96
// 032   ----------------------------------------
 BYTE   W96
// 033   ----------------------------------------
 BYTE   W96
// 034   ----------------------------------------
 BYTE   W96
// 035   ----------------------------------------
 BYTE   W96
// 036   ----------------------------------------
Label_1_0102A799:
 BYTE   N12  Cs2  v092
 BYTE   W24
 BYTE   N12
 BYTE   W24
 BYTE   N12
 BYTE   W24
 BYTE   N12
 BYTE   W24
 BYTE   PEND 
// 037   ----------------------------------------
Label_1_0102A7A4:
 BYTE   N12  Cn2  v092
 BYTE   W24
 BYTE   N12
 BYTE   W24
 BYTE   N12
 BYTE   W24
 BYTE   N12
 BYTE   W24
 BYTE   PEND 
 BYTE   PATT
  POIN2 Label_1_0102A799
 BYTE   PATT
  POIN2 Label_1_0102A7A4
// 038   ----------------------------------------
Label_1_0102A7B9:
 BYTE   N12  Cs2  v092
 BYTE   W24
 BYTE   N12
 BYTE   W24
 BYTE   Cn2
 BYTE   W24
 BYTE   N12
 BYTE   W24
 BYTE   PEND 
 BYTE   PATT
  POIN2 Label_1_0102A7B9
// 039   ----------------------------------------
 BYTE   N06  Gn0  v084
 BYTE   N05  Gn1  v092
 BYTE   W24
 BYTE   N03  An0  v068
 BYTE   N06  An1  v072
 BYTE   W24
 BYTE   N02  Bn0  v076
 BYTE   N05  Bn1  v084
 BYTE   W24
 BYTE   N07  Cs1  v076
 BYTE   N08  Cs2  v084
 BYTE   W24
// 040   ----------------------------------------
 BYTE   N05  Ds1
 BYTE   N07  Ds2  v096
 BYTE   W24
 BYTE   N04  Bn1  v092
 BYTE   N05  Fn2  v100
 BYTE   W24
 BYTE   Gn1  v108
 BYTE   N07  Gn2  v104
 BYTE   W24
 BYTE   N05  An1  v108
 BYTE   N06  An2  v116
 BYTE   W24
// 041   ----------------------------------------
 BYTE   An0  v084
 BYTE   N05  An1  v092
 BYTE   W24
 BYTE   N03  Bn0  v068
 BYTE   N06  Bn1  v072
 BYTE   W24
 BYTE   N02  Cs1  v076
 BYTE   N05  Cs2  v084
 BYTE   W24
 BYTE   N07  Ds1  v076
 BYTE   N08  Ds2  v084
 BYTE   W24
// 042   ----------------------------------------
 BYTE   N05  Fn1
 BYTE   N07  Fn2  v096
 BYTE   W24
 BYTE   N04  Cs2  v092
 BYTE   N05  Gn2  v100
 BYTE   W24
 BYTE   An1  v108
 BYTE   N07  An2  v104
 BYTE   W24
 BYTE   N05  Bn1  v108
 BYTE   N06  Bn2  v116
 BYTE   W24
// 043   ----------------------------------------
 BYTE   W96
// 044   ----------------------------------------
 BYTE   W96
// 045   ----------------------------------------
 BYTE   W96
// 046   ----------------------------------------
 BYTE   W96
// 047   ----------------------------------------
 BYTE   W96
// 048   ----------------------------------------
 BYTE   W96
// 049   ----------------------------------------
 BYTE   W96
// 050   ----------------------------------------
 BYTE   W96
// 051   ----------------------------------------
 BYTE   W96
// 052   ----------------------------------------
 BYTE   W96
// 053   ----------------------------------------
 BYTE   W96
// 054   ----------------------------------------
 BYTE   W24
 BYTE   N68  Gn1  v076
 BYTE   N68  Gn2
 BYTE   N68  Dn3  v088
 BYTE   W68
 BYTE   W03
 BYTE   GoTo
  POIN2 Label_1_0102A74E
 BYTE   FINE

//**************** Track 3 (Midi-Chn.2) ****************//

song25_003:
// 000   ----------------------------------------
 BYTE   KEYSH   song25_key+0
Label_2_0102A852:
 BYTE   VOICE   1
 BYTE   VOL   47*song25_mvl/mxv
 BYTE   PAN   c_v-50
 BYTE   W96
// 001   ----------------------------------------
 BYTE   W96
// 002   ----------------------------------------
 BYTE   W96
// 003   ----------------------------------------
 BYTE   W96
// 004   ----------------------------------------
Label_2_0102A85C:
 BYTE   W12
 BYTE   N12  Gn3  v068
 BYTE   W12
 BYTE   An3  v056
 BYTE   W12
 BYTE   As3  v060
 BYTE   W12
 BYTE   N08  Gn3  v056
 BYTE   W12
 BYTE   N12  As3  v052
 BYTE   W12
 BYTE   N11  Gn3  v068
 BYTE   W12
 BYTE   N15  Dn4  v092
 BYTE   W12
 BYTE   PEND 
// 005   ----------------------------------------
 BYTE   W12
 BYTE   N11  Gn3  v068
 BYTE   W12
 BYTE   N13  An3
 BYTE   W12
 BYTE   N11  As3  v056
 BYTE   W11
 BYTE   N12  Gn3  v064
 BYTE   W13
 BYTE   As3  v068
 BYTE   W12
 BYTE   N08  Gn3  v060
 BYTE   W12
 BYTE   N16  Ds4  v088
 BYTE   W12
// 006   ----------------------------------------
 BYTE   W12
 BYTE   N13  Gn3  v068
 BYTE   W12
 BYTE   N12  An3  v056
 BYTE   W12
 BYTE   As3  v060
 BYTE   W12
 BYTE   N08  Gn3  v056
 BYTE   W12
 BYTE   N12  As3  v052
 BYTE   W12
 BYTE   N11  Gn3  v068
 BYTE   W11
 BYTE   N16  Cn4  v088
 BYTE   W13
// 007   ----------------------------------------
 BYTE   W11
 BYTE   N12  Ds3  v072
 BYTE   W13
 BYTE   Gs3
 BYTE   W11
 BYTE   N18  Dn3  v092
 BYTE   W24
 BYTE   N12  Fn3  v072
 BYTE   W13
 BYTE   As3
 BYTE   W12
 BYTE   Gn3
 BYTE   W12
 BYTE   PATT
  POIN2 Label_2_0102A85C
// 008   ----------------------------------------
 BYTE   W12
 BYTE   N11  Gn3  v068
 BYTE   W12
 BYTE   N13  An3
 BYTE   W12
 BYTE   N11  As3  v056
 BYTE   W12
 BYTE   N12  Gn3  v064
 BYTE   W12
 BYTE   As3  v068
 BYTE   W12
 BYTE   N08  Gn3  v060
 BYTE   W12
 BYTE   N16  Ds4  v088
 BYTE   W12
// 009   ----------------------------------------
 BYTE   W12
 BYTE   N13  Gn3  v068
 BYTE   W12
 BYTE   N12  An3  v056
 BYTE   W12
 BYTE   As3  v060
 BYTE   W12
 BYTE   N08  Gn3  v056
 BYTE   W12
 BYTE   N12  As3  v052
 BYTE   W12
 BYTE   N11  Gn3  v068
 BYTE   W12
 BYTE   N16  Cn4  v088
 BYTE   W12
// 010   ----------------------------------------
 BYTE   W12
 BYTE   N12  Ds3  v072
 BYTE   W12
 BYTE   Gs3
 BYTE   W12
 BYTE   N18  Dn4  v092
 BYTE   W24
 BYTE   N12  Fn3  v072
 BYTE   W12
 BYTE   As3
 BYTE   W12
 BYTE   Gn3
 BYTE   W12
// 011   ----------------------------------------
Label_2_0102A911:
 BYTE   W12
 BYTE   N07  Gn4  v072
 BYTE   W36
 BYTE   Gn3
 BYTE   W36
 BYTE   Gn2
 BYTE   W12
 BYTE   PEND 
// 012   ----------------------------------------
Label_2_0102A91B:
 BYTE   W12
 BYTE   N13  Gn2  v056
 BYTE   W12
 BYTE   N14  An2  v068
 BYTE   W12
 BYTE   As2  v072
 BYTE   W12
 BYTE   N15  Cs3  v080
 BYTE   W12
 BYTE   N12  As2  v068
 BYTE   W12
 BYTE   N14  An2  v056
 BYTE   W12
 BYTE   N08  Gn2  v052
 BYTE   W12
 BYTE   PEND 
 BYTE   PATT
  POIN2 Label_2_0102A911
 BYTE   PATT
  POIN2 Label_2_0102A91B
// 013   ----------------------------------------
 BYTE   W96
// 014   ----------------------------------------
 BYTE   W96
// 015   ----------------------------------------
 BYTE   W96
// 016   ----------------------------------------
 BYTE   W96
// 017   ----------------------------------------
 BYTE   W96
// 018   ----------------------------------------
 BYTE   W96
// 019   ----------------------------------------
 BYTE   W96
// 020   ----------------------------------------
 BYTE   W96
// 021   ----------------------------------------
 BYTE   W96
// 022   ----------------------------------------
 BYTE   W96
// 023   ----------------------------------------
 BYTE   W96
// 024   ----------------------------------------
 BYTE   W96
// 025   ----------------------------------------
 BYTE   W96
// 026   ----------------------------------------
 BYTE   W96
// 027   ----------------------------------------
 BYTE   W96
// 028   ----------------------------------------
 BYTE   W96
// 029   ----------------------------------------
 BYTE   W96
// 030   ----------------------------------------
 BYTE   W96
// 031   ----------------------------------------
 BYTE   W96
// 032   ----------------------------------------
 BYTE   W96
// 033   ----------------------------------------
 BYTE   W96
// 034   ----------------------------------------
 BYTE   W96
// 035   ----------------------------------------
 BYTE   W96
// 036   ----------------------------------------
 BYTE   W96
// 037   ----------------------------------------
 BYTE   W96
// 038   ----------------------------------------
 BYTE   W96
// 039   ----------------------------------------
 BYTE   W96
// 040   ----------------------------------------
 BYTE   W96
// 041   ----------------------------------------
 BYTE   W96
// 042   ----------------------------------------
 BYTE   W96
// 043   ----------------------------------------
 BYTE   W96
// 044   ----------------------------------------
 BYTE   W96
// 045   ----------------------------------------
 BYTE   W96
// 046   ----------------------------------------
 BYTE   W96
// 047   ----------------------------------------
 BYTE   W96
// 048   ----------------------------------------
 BYTE   W96
// 049   ----------------------------------------
 BYTE   W96
// 050   ----------------------------------------
 BYTE   W96
// 051   ----------------------------------------
 BYTE   W96
// 052   ----------------------------------------
 BYTE   W96
// 053   ----------------------------------------
 BYTE   W96
// 054   ----------------------------------------
 BYTE   W92
 BYTE   W03
 BYTE   GoTo
  POIN2 Label_2_0102A852
 BYTE   FINE

//**************** Track 4 (Midi-Chn.3) ****************//

song25_004:
// 000   ----------------------------------------
 BYTE   KEYSH   song25_key+0
Label_3_0102A976:
 BYTE   VOICE   81
 BYTE   VOL   24*song25_mvl/mxv
 BYTE   PAN   c_v-64
 BYTE   N04  Gn3  v092
 BYTE   N05  Cn4  v096
 BYTE   N05  Ds4
 BYTE   W12
 BYTE   N04  Gn3  v104
 BYTE   N04  Cn4  v092
 BYTE   N03  Ds4  v116
 BYTE   W84
// 001   ----------------------------------------
Label_3_0102A98F:
 BYTE   N20  Fn3  v076
 BYTE   N20  Cn4  v112
 BYTE   N21  Ds4  v108
 BYTE   W36
 BYTE   Gs3  v088
 BYTE   N21  Cn4  v100
 BYTE   N21  Ds4  v116
 BYTE   W36
 BYTE   N14  Fn3  v112
 BYTE   N14  As3  v104
 BYTE   N14  Dn4  v112
 BYTE   W24
 BYTE   PEND 
// 002   ----------------------------------------
 BYTE   N04  Gn3  v092
 BYTE   N05  Cn4  v096
 BYTE   N05  Ds4
 BYTE   W12
 BYTE   N04  Gn3  v104
 BYTE   N04  Cn4  v092
 BYTE   N03  Ds4  v116
 BYTE   W84
 BYTE   PATT
  POIN2 Label_3_0102A98F
// 003   ----------------------------------------
 BYTE   W84
 BYTE   N17  As3  v096
 BYTE   N16  Dn4  v088
 BYTE   W12
// 004   ----------------------------------------
 BYTE   W84
 BYTE   An3
 BYTE   N16  Cn4
 BYTE   W12
// 005   ----------------------------------------
 BYTE   W84
 BYTE   N17  Gs3
 BYTE   N17  Cn4  v100
 BYTE   W12
// 006   ----------------------------------------
 BYTE   W36
 BYTE   N18  Fn3  v088
 BYTE   N18  As3  v100
 BYTE   W48
 BYTE   N07  Gn3  v084
 BYTE   N07  Cn4
 BYTE   W12
// 007   ----------------------------------------
 BYTE   W84
 BYTE   N17  As3  v092
 BYTE   N17  Dn4
 BYTE   W12
// 008   ----------------------------------------
 BYTE   W84
 BYTE   N16  An3
 BYTE   N16  Cn4
 BYTE   W12
// 009   ----------------------------------------
 BYTE   W84
 BYTE   N17  Gs3  v088
 BYTE   N18  Cn4  v092
 BYTE   W12
// 010   ----------------------------------------
 BYTE   W36
 BYTE   As3  v104
 BYTE   N21  Fn4  v088
 BYTE   W48
 BYTE   N06  Cn4  v096
 BYTE   N06  Gn4
 BYTE   W12
// 011   ----------------------------------------
Label_3_0102AA09:
 BYTE   W12
 BYTE   N04  Gn4  v104
 BYTE   N04  Cn5
 BYTE   W36
 BYTE   Gn3  v096
 BYTE   N05  Cn4  v108
 BYTE   W36
 BYTE   Gn2  v092
 BYTE   N04  Cn3
 BYTE   W12
 BYTE   PEND 
// 012   ----------------------------------------
 BYTE   W96
 BYTE   PATT
  POIN2 Label_3_0102AA09
// 013   ----------------------------------------
 BYTE   W96
// 014   ----------------------------------------
 BYTE   W48
 BYTE   N92  Fn3  v064
 BYTE   W36
 BYTE   N56  As3  v072
 BYTE   W12
// 015   ----------------------------------------
 BYTE   W24
 BYTE   N28  Ds4  v100
 BYTE   W24
 BYTE   N05  Gn3  v084
 BYTE   N05  Cn4
 BYTE   W12
 BYTE   As3
 BYTE   N05  Ds4
 BYTE   N09  Gs4  v096
 BYTE   W24
 BYTE   N84  Gn3  v076
 BYTE   N84  Cn4  v092
 BYTE   N80  Gn4  v104
 BYTE   W12
// 016   ----------------------------------------
 BYTE   W96
// 017   ----------------------------------------
 BYTE   W96
// 018   ----------------------------------------
 BYTE   W96
// 019   ----------------------------------------
 BYTE   W96
// 020   ----------------------------------------
 BYTE   W96
// 021   ----------------------------------------
 BYTE   W96
// 022   ----------------------------------------
 BYTE   W96
// 023   ----------------------------------------
 BYTE   W96
// 024   ----------------------------------------
 BYTE   W96
// 025   ----------------------------------------
 BYTE   W96
// 026   ----------------------------------------
 BYTE   W96
// 027   ----------------------------------------
 BYTE   W96
// 028   ----------------------------------------
 BYTE   W96
// 029   ----------------------------------------
 BYTE   W96
// 030   ----------------------------------------
 BYTE   W96
// 031   ----------------------------------------
 BYTE   W96
// 032   ----------------------------------------
 BYTE   N28  Cn4  v096
 BYTE   N28  Fn4
 BYTE   W36
 BYTE   Dn4
 BYTE   N28  Gn4
 BYTE   W36
 BYTE   An3  v084
 BYTE   N28  Dn4  v100
 BYTE   W24
// 033   ----------------------------------------
 BYTE   W12
 BYTE   Bn3
 BYTE   N28  En4
 BYTE   W36
 BYTE   N17  Gn3  v076
 BYTE   N17  Cn4  v096
 BYTE   W24
 BYTE   An3
 BYTE   N17  Dn4
 BYTE   W24
// 034   ----------------------------------------
 BYTE   N92  Cs3  v056
 BYTE   N92  Gs3  v064
 BYTE   N92  Cs4  v080
 BYTE   N92  Fs4
 BYTE   W96
// 035   ----------------------------------------
 BYTE   An3  v072
 BYTE   N92  Dn4  v092
 BYTE   N92  Gn4  v088
 BYTE   W96
// 036   ----------------------------------------
 BYTE   Cs3  v076
 BYTE   N92  Gs3  v068
 BYTE   N92  Cs4  v080
 BYTE   N92  Fs4  v084
 BYTE   W96
// 037   ----------------------------------------
 BYTE   Cn3  v068
 BYTE   N92  An3  v076
 BYTE   N92  Dn4  v092
 BYTE   N92  Gn4
 BYTE   W96
// 038   ----------------------------------------
 BYTE   N48  Cs3  v068
 BYTE   N48  Gs3
 BYTE   N48  Cs4  v084
 BYTE   N48  Fs4
 BYTE   W48
 BYTE   Cn3  v072
 BYTE   N44  An3
 BYTE   N48  Dn4  v096
 BYTE   N44  Gn4  v092
 BYTE   W48
// 039   ----------------------------------------
 BYTE   N48  Cs3  v072
 BYTE   N48  Gs3  v080
 BYTE   N44  Cs4  v084
 BYTE   N44  Fs4
 BYTE   W48
 BYTE   Cn3  v068
 BYTE   N44  An3
 BYTE   N44  Dn4  v088
 BYTE   N44  Gn4
 BYTE   W48
// 040   ----------------------------------------
 BYTE   N24  Gn2  v076
 BYTE   W24
 BYTE   An2  v072
 BYTE   W24
 BYTE   Bn2  v068
 BYTE   W24
 BYTE   Cs3  v080
 BYTE   W24
// 041   ----------------------------------------
 BYTE   Ds3  v076
 BYTE   W24
 BYTE   Bn3  v092
 BYTE   W24
 BYTE   Gn3  v084
 BYTE   W24
 BYTE   N23  An3  v068
 BYTE   W24
// 042   ----------------------------------------
 BYTE   N24  An2  v076
 BYTE   W24
 BYTE   Bn2  v072
 BYTE   W24
 BYTE   Cs3  v068
 BYTE   W24
 BYTE   Ds3  v080
 BYTE   W24
// 043   ----------------------------------------
 BYTE   Fn3  v076
 BYTE   W24
 BYTE   Cs4  v092
 BYTE   W24
 BYTE   An3  v084
 BYTE   W24
 BYTE   N23  Bn3  v068
 BYTE   W24
// 044   ----------------------------------------
 BYTE   N02  Cn4  v084
 BYTE   N03  Fn4  v088
 BYTE   W60
 BYTE   N01  Cn4  v084
 BYTE   N05  Fn4  v088
 BYTE   W36
// 045   ----------------------------------------
 BYTE   W96
// 046   ----------------------------------------
 BYTE   N02  Gs3  v084
 BYTE   N03  Ds4  v088
 BYTE   W60
 BYTE   N01  Gs3  v084
 BYTE   N05  Ds4  v088
 BYTE   W36
// 047   ----------------------------------------
 BYTE   W96
// 048   ----------------------------------------
Label_3_0102AB22:
 BYTE   N02  Gn3  v084
 BYTE   N03  Dn4  v088
 BYTE   W60
 BYTE   N01  Gn3  v084
 BYTE   N05  Dn4  v088
 BYTE   W36
 BYTE   PEND 
// 049   ----------------------------------------
 BYTE   W96
 BYTE   PATT
  POIN2 Label_3_0102AB22
// 050   ----------------------------------------
 BYTE   W96
// 051   ----------------------------------------
 BYTE   N04  Gn2  v084
 BYTE   N05  Gn4  v092
 BYTE   W12
 BYTE   N04  Gn2  v076
 BYTE   N02  Gn4  v084
 BYTE   W24
 BYTE   N04  Gn2  v092
 BYTE   N05  Gn4
 BYTE   W18
 BYTE   Gn2  v080
 BYTE   N02  Gn4  v088
 BYTE   W18
 BYTE   N05  Gn2  v092
 BYTE   N05  Gn4  v088
 BYTE   W12
 BYTE   Gn2  v084
 BYTE   W06
 BYTE   N04  Gn4  v096
 BYTE   W06
// 052   ----------------------------------------
 BYTE   W96
// 053   ----------------------------------------
 BYTE   Gn2  v088
 BYTE   N04  Gn4
 BYTE   W12
 BYTE   Gn2  v092
 BYTE   N03  Gn4
 BYTE   W24
 BYTE   N02  Gn2  v080
 BYTE   N05  Gn4  v092
 BYTE   W12
 BYTE   N04  Gn2  v088
 BYTE   N05  Gn4  v096
 BYTE   W24
 BYTE   Gn2  v088
 BYTE   N04  Gn4  v096
 BYTE   W12
 BYTE   N05  Gn2  v080
 BYTE   N04  Gn4  v100
 BYTE   W12
// 054   ----------------------------------------
 BYTE   W24
 BYTE   N66  Fn4  v104
 BYTE   W68
 BYTE   W03
 BYTE   GoTo
  POIN2 Label_3_0102A976
 BYTE   FINE

//**************** Track 5 (Midi-Chn.4) ****************//

song25_005:
// 000   ----------------------------------------
 BYTE   KEYSH   song25_key+0
Label_4_0102AB96:
 BYTE   VOICE   36
 BYTE   VOL   47*song25_mvl/mxv
 BYTE   PAN   c_v-64
 BYTE   N05  Cn2  v124
 BYTE   W12
 BYTE   N06  Cn2  v116
 BYTE   W84
// 001   ----------------------------------------
Label_4_0102ABA4:
 BYTE   N36  Fn1  v127
 BYTE   W42
 BYTE   N32  Gs1  v124
 BYTE   W30
 BYTE   N19  As1  v127
 BYTE   W24
 BYTE   PEND 
// 002   ----------------------------------------
 BYTE   N05  Cn2  v124
 BYTE   W12
 BYTE   N06  Cn2  v116
 BYTE   W84
 BYTE   PATT
  POIN2 Label_4_0102ABA4
// 003   ----------------------------------------
 BYTE   N09  Cn2  v120
 BYTE   W12
 BYTE   Cn2  v108
 BYTE   W12
 BYTE   N08  Cn2  v120
 BYTE   W12
 BYTE   N09  Cn2  v104
 BYTE   W12
 BYTE   Cn2  v112
 BYTE   W12
 BYTE   Cn2  v116
 BYTE   W12
 BYTE   Cn2  v104
 BYTE   W12
 BYTE   N10  Cn2  v108
 BYTE   W12
// 004   ----------------------------------------
 BYTE   N09  Cn2  v112
 BYTE   W12
 BYTE   N09
 BYTE   W12
 BYTE   Cn2  v120
 BYTE   W12
 BYTE   Cn2  v108
 BYTE   W12
 BYTE   N09
 BYTE   W12
 BYTE   N08  Cn2  v112
 BYTE   W12
 BYTE   N09
 BYTE   W12
 BYTE   Cn2  v108
 BYTE   W12
// 005   ----------------------------------------
 BYTE   N10  Cn2  v116
 BYTE   W12
 BYTE   N09
 BYTE   W12
 BYTE   Cn2  v112
 BYTE   W12
 BYTE   N09
 BYTE   W12
 BYTE   N09
 BYTE   W12
 BYTE   Cn2  v116
 BYTE   W12
 BYTE   N08  Cn2  v108
 BYTE   W12
 BYTE   N07  Gs1
 BYTE   W12
// 006   ----------------------------------------
 BYTE   Gs1  v116
 BYTE   W12
 BYTE   N08  Gs1  v112
 BYTE   W12
 BYTE   N11
 BYTE   W12
 BYTE   N08  As1  v127
 BYTE   W12
 BYTE   N10  As1  v116
 BYTE   W12
 BYTE   N08  As1  v124
 BYTE   W12
 BYTE   N10  As1  v116
 BYTE   W12
 BYTE   N09  Cn2  v120
 BYTE   W12
// 007   ----------------------------------------
 BYTE   Cn2  v112
 BYTE   W12
 BYTE   N07  Cn2  v108
 BYTE   W12
 BYTE   N08
 BYTE   W12
 BYTE   N08
 BYTE   W12
 BYTE   N07  Cn2  v104
 BYTE   W12
 BYTE   Cn2  v108
 BYTE   W12
 BYTE   N08  Cn2  v112
 BYTE   W12
 BYTE   N09  Cn2  v108
 BYTE   W12
// 008   ----------------------------------------
 BYTE   N09
 BYTE   W12
 BYTE   N08
 BYTE   W12
 BYTE   N09
 BYTE   W12
 BYTE   N07  Cn2  v112
 BYTE   W12
 BYTE   N08
 BYTE   W12
 BYTE   Cn2  v108
 BYTE   W12
 BYTE   N09
 BYTE   W12
 BYTE   N06  Cn2  v116
 BYTE   W12
// 009   ----------------------------------------
 BYTE   N07  Cn2  v112
 BYTE   W12
 BYTE   N08
 BYTE   W12
 BYTE   Cn2  v108
 BYTE   W12
 BYTE   Cn2  v112
 BYTE   W12
 BYTE   N09
 BYTE   W12
 BYTE   N07  Cn2  v120
 BYTE   W12
 BYTE   N10  Cn2  v112
 BYTE   W12
 BYTE   N09  Gs1  v116
 BYTE   W12
// 010   ----------------------------------------
 BYTE   N09
 BYTE   W12
 BYTE   Gs1  v112
 BYTE   W12
 BYTE   N10  Gs1  v116
 BYTE   W12
 BYTE   N08  As1
 BYTE   W12
 BYTE   N09  As1  v108
 BYTE   W12
 BYTE   N09
 BYTE   W12
 BYTE   N10
 BYTE   W12
 BYTE   Cn2  v120
 BYTE   W12
// 011   ----------------------------------------
Label_4_0102AC85:
 BYTE   N07  Cn2  v108
 BYTE   W12
 BYTE   N02  Cn3  v112
 BYTE   W12
 BYTE   N11  Cn2  v108
 BYTE   W12
 BYTE   N10  Fs2  v120
 BYTE   W12
 BYTE   Cn2  v112
 BYTE   W12
 BYTE   N09  As2  v104
 BYTE   W12
 BYTE   N12  As1  v112
 BYTE   W12
 BYTE   N08  Cn2
 BYTE   W12
 BYTE   PEND 
// 012   ----------------------------------------
 BYTE   W12
 BYTE   N13
 BYTE   W12
 BYTE   N12  Dn2
 BYTE   W12
 BYTE   N14  Cn2  v104
 BYTE   W12
 BYTE   Fs1  v112
 BYTE   W12
 BYTE   Ds2  v104
 BYTE   W12
 BYTE   N13  Dn2  v116
 BYTE   W12
 BYTE   N10  Cn2  v112
 BYTE   W12
 BYTE   PATT
  POIN2 Label_4_0102AC85
// 013   ----------------------------------------
 BYTE   W12
 BYTE   N13  Cn2  v116
 BYTE   W12
 BYTE   N12  Dn2  v108
 BYTE   W12
 BYTE   N14  Cn2  v116
 BYTE   W12
 BYTE   N12  Fs1  v108
 BYTE   W12
 BYTE   N15  Ds2
 BYTE   W12
 BYTE   N13  Dn2  v112
 BYTE   W12
 BYTE   N08  Cn2  v116
 BYTE   W12
// 014   ----------------------------------------
 BYTE   W12
 BYTE   N07
 BYTE   W12
 BYTE   N06  Cn2  v120
 BYTE   W12
 BYTE   N11
 BYTE   W12
 BYTE   N07  As1  v124
 BYTE   W12
 BYTE   N06  As1  v120
 BYTE   W12
 BYTE   N08  As1  v112
 BYTE   W12
 BYTE   N05  Gs1  v124
 BYTE   W12
// 015   ----------------------------------------
 BYTE   N07  Gs1  v116
 BYTE   W12
 BYTE   N05
 BYTE   W12
 BYTE   N04  Fs1  v120
 BYTE   W12
 BYTE   N08  Fs1  v112
 BYTE   W12
 BYTE   N09  Fn1  v120
 BYTE   W12
 BYTE   N05  Ds1  v116
 BYTE   W24
 BYTE   N84  Cs1  v124
 BYTE   W12
// 016   ----------------------------------------
 BYTE   W96
// 017   ----------------------------------------
 BYTE   W96
// 018   ----------------------------------------
Label_4_0102AD12:
 BYTE   N09  Fn1  v124
 BYTE   W12
 BYTE   N08  Fn1  v127
 BYTE   W12
 BYTE   N10  Fn1  v112
 BYTE   W12
 BYTE   As1
 BYTE   W12
 BYTE   N08  As1  v124
 BYTE   W12
 BYTE   N10  As1  v116
 BYTE   W12
 BYTE   N09  Ds2
 BYTE   W12
 BYTE   N08
 BYTE   W12
 BYTE   PEND 
// 019   ----------------------------------------
Label_4_0102AD2E:
 BYTE   N09  Ds2  v108
 BYTE   W12
 BYTE   N08  Gs1  v127
 BYTE   W12
 BYTE   Gs1  v120
 BYTE   W12
 BYTE   N10  Gs1  v108
 BYTE   W12
 BYTE   N07  Cs2  v116
 BYTE   W12
 BYTE   N09  Cs2  v108
 BYTE   W12
 BYTE   N08  Fs2  v112
 BYTE   W12
 BYTE   N08
 BYTE   W12
 BYTE   PEND 
 BYTE   PATT
  POIN2 Label_4_0102AD12
// 020   ----------------------------------------
Label_4_0102AD51:
 BYTE   N09  Ds2  v108
 BYTE   W12
 BYTE   N08  Gs1  v127
 BYTE   W12
 BYTE   Gs1  v120
 BYTE   W12
 BYTE   N09  Gs1  v108
 BYTE   W12
 BYTE   N07  Cs2  v116
 BYTE   W12
 BYTE   N09  Cs2  v108
 BYTE   W12
 BYTE   Fs2  v112
 BYTE   W12
 BYTE   N08  Fs2  v100
 BYTE   W12
 BYTE   PEND 
 BYTE   PATT
  POIN2 Label_4_0102AD12
 BYTE   PATT
  POIN2 Label_4_0102AD2E
 BYTE   PATT
  POIN2 Label_4_0102AD12
 BYTE   PATT
  POIN2 Label_4_0102AD51
// 021   ----------------------------------------
 BYTE   N07  Fn1  v112
 BYTE   W12
 BYTE   N08  Fn1  v116
 BYTE   W12
 BYTE   Fn1  v108
 BYTE   W12
 BYTE   N09  Gn1  v124
 BYTE   W12
 BYTE   N08  Gn1  v116
 BYTE   W12
 BYTE   Gn1  v108
 BYTE   W12
 BYTE   N09  An1  v120
 BYTE   W12
 BYTE   An1  v116
 BYTE   W12
// 022   ----------------------------------------
 BYTE   An1  v104
 BYTE   W12
 BYTE   As1  v120
 BYTE   W12
 BYTE   N08  As1  v116
 BYTE   W12
 BYTE   N12  As1  v120
 BYTE   W12
 BYTE   N09  Cn2  v124
 BYTE   W12
 BYTE   N10  Cn2  v112
 BYTE   W12
 BYTE   N08  Dn2  v108
 BYTE   W12
 BYTE   Dn2  v112
 BYTE   W12
// 023   ----------------------------------------
 BYTE   N09  Ds1
 BYTE   W12
 BYTE   Ds1  v120
 BYTE   W12
 BYTE   N11  Ds1  v100
 BYTE   W12
 BYTE   N09  Fn1  v120
 BYTE   W12
 BYTE   N08  Fn1  v092
 BYTE   W12
 BYTE   N09  Fn1  v112
 BYTE   W12
 BYTE   Gn1  v124
 BYTE   W12
 BYTE   N07  Gn1  v120
 BYTE   W12
// 024   ----------------------------------------
 BYTE   N09  Gn1  v116
 BYTE   W12
 BYTE   N08  An1  v120
 BYTE   W12
 BYTE   N07  An1  v112
 BYTE   W12
 BYTE   N08  An1  v108
 BYTE   W12
 BYTE   As1  v120
 BYTE   W12
 BYTE   N09  As1  v112
 BYTE   W12
 BYTE   N07  Cn2  v116
 BYTE   W12
 BYTE   N08  Cn2  v112
 BYTE   W12
// 025   ----------------------------------------
 BYTE   N07  En1
 BYTE   W12
 BYTE   N08  En1  v116
 BYTE   W12
 BYTE   En1  v108
 BYTE   W12
 BYTE   N09  Fs1  v124
 BYTE   W12
 BYTE   N08  Fs1  v116
 BYTE   W12
 BYTE   Fs1  v108
 BYTE   W12
 BYTE   N09  Gs1  v120
 BYTE   W12
 BYTE   Gs1  v116
 BYTE   W12
// 026   ----------------------------------------
 BYTE   Gs1  v104
 BYTE   W12
 BYTE   An1  v120
 BYTE   W12
 BYTE   N08  An1  v116
 BYTE   W12
 BYTE   N12  An1  v120
 BYTE   W12
 BYTE   N09  Bn1  v124
 BYTE   W12
 BYTE   N10  Bn1  v112
 BYTE   W12
 BYTE   N08  Cs2  v108
 BYTE   W12
 BYTE   Cs2  v112
 BYTE   W12
// 027   ----------------------------------------
 BYTE   N09  Dn2
 BYTE   W12
 BYTE   Dn2  v120
 BYTE   W12
 BYTE   N11  Dn2  v100
 BYTE   W12
 BYTE   N09  En2  v120
 BYTE   W12
 BYTE   N08  En2  v092
 BYTE   W12
 BYTE   N09  En2  v112
 BYTE   W12
 BYTE   Fs2  v124
 BYTE   W12
 BYTE   N07  Fs2  v120
 BYTE   W12
// 028   ----------------------------------------
 BYTE   N09  Fs2  v116
 BYTE   W12
 BYTE   N08  Gs2  v120
 BYTE   W12
 BYTE   N07  Gs2  v112
 BYTE   W12
 BYTE   N08  Gs2  v108
 BYTE   W12
 BYTE   An2  v120
 BYTE   W12
 BYTE   N09  An2  v112
 BYTE   W12
 BYTE   N07  Bn2  v116
 BYTE   W12
 BYTE   N08  Bn2  v112
 BYTE   W12
// 029   ----------------------------------------
 BYTE   N05  Cs2  v124
 BYTE   W12
 BYTE   Cs2  v104
 BYTE   W12
 BYTE   Cs2  v116
 BYTE   W12
 BYTE   N06  Cs2  v120
 BYTE   W12
 BYTE   N09  Cs2  v112
 BYTE   W12
 BYTE   N13  Fs2  v116
 BYTE   W12
 BYTE   N11  Cs3
 BYTE   W12
 BYTE   N06  Cs2  v108
 BYTE   W12
// 030   ----------------------------------------
 BYTE   Cn2  v116
 BYTE   W12
 BYTE   N02  Cn2  v112
 BYTE   W12
 BYTE   N06  Cn2  v124
 BYTE   W12
 BYTE   N05  Cn2  v116
 BYTE   W12
 BYTE   N07  Cn2  v108
 BYTE   W12
 BYTE   N11  Fn2
 BYTE   W12
 BYTE   N09  Gn2  v112
 BYTE   W12
 BYTE   N08  Cn2  v116
 BYTE   W12
// 031   ----------------------------------------
 BYTE   N02  Cs2  v108
 BYTE   W12
 BYTE   N03  Cs2  v120
 BYTE   W12
 BYTE   N05  Cs2  v112
 BYTE   W12
 BYTE   N03  Cs2  v100
 BYTE   W12
 BYTE   N11  Cs2  v120
 BYTE   W12
 BYTE   Fs2  v108
 BYTE   W12
 BYTE   N13  Cs3  v116
 BYTE   W12
 BYTE   N03  Cs2
 BYTE   W12
// 032   ----------------------------------------
 BYTE   N05  Cn2
 BYTE   W12
 BYTE   N02  Cn2  v112
 BYTE   W12
 BYTE   N04  Cn2  v116
 BYTE   W12
 BYTE   N05  Cn2  v112
 BYTE   W12
 BYTE   N10
 BYTE   W12
 BYTE   N12  Fn2  v108
 BYTE   W12
 BYTE   N14  Gn2  v112
 BYTE   W12
 BYTE   N03  Cn2  v100
 BYTE   W12
// 033   ----------------------------------------
Label_4_0102AEE5:
 BYTE   N12  Cs2  v108
 BYTE   W12
 BYTE   N16  Fs2  v116
 BYTE   W12
 BYTE   N11  Cs3  v120
 BYTE   W12
 BYTE   N02  Cs2  v112
 BYTE   W12
 BYTE   N13  Cn2  v116
 BYTE   W12
 BYTE   N12  Fn2  v100
 BYTE   W12
 BYTE   N14  Gn2  v116
 BYTE   W12
 BYTE   N06  Cn2  v112
 BYTE   W12
 BYTE   PEND 
 BYTE   PATT
  POIN2 Label_4_0102AEE5
// 034   ----------------------------------------
 BYTE   N08  Gn1  v124
 BYTE   W12
 BYTE   N08
 BYTE   W12
 BYTE   An1  v120
 BYTE   W12
 BYTE   N08
 BYTE   W12
 BYTE   Bn1  v108
 BYTE   W12
 BYTE   Bn1  v112
 BYTE   W12
 BYTE   Cs2  v116
 BYTE   W12
 BYTE   Cs2  v108
 BYTE   W12
// 035   ----------------------------------------
 BYTE   Ds2  v112
 BYTE   W12
 BYTE   Ds2  v116
 BYTE   W12
 BYTE   Bn2
 BYTE   W12
 BYTE   Bn2  v124
 BYTE   W12
 BYTE   Gn2
 BYTE   W12
 BYTE   Gn2  v112
 BYTE   W12
 BYTE   An2  v116
 BYTE   W12
 BYTE   An2  v108
 BYTE   W12
// 036   ----------------------------------------
 BYTE   An1  v124
 BYTE   W12
 BYTE   N08
 BYTE   W12
 BYTE   Bn1  v120
 BYTE   W12
 BYTE   N08
 BYTE   W12
 BYTE   Cs2  v108
 BYTE   W12
 BYTE   Cs2  v112
 BYTE   W12
 BYTE   Ds2  v116
 BYTE   W12
 BYTE   Ds2  v108
 BYTE   W12
// 037   ----------------------------------------
 BYTE   Fn2  v112
 BYTE   W12
 BYTE   Fn2  v116
 BYTE   W12
 BYTE   Cs3
 BYTE   W12
 BYTE   Cs3  v124
 BYTE   W12
 BYTE   An2
 BYTE   W12
 BYTE   An2  v112
 BYTE   W12
 BYTE   Bn2  v120
 BYTE   W12
 BYTE   Bn2  v112
 BYTE   W12
// 038   ----------------------------------------
 BYTE   N07  Cn2  v127
 BYTE   W60
 BYTE   N07
 BYTE   W36
// 039   ----------------------------------------
 BYTE   W12
 BYTE   N13  As2  v100
 BYTE   W12
 BYTE   N03  Cn3  v127
 BYTE   W12
 BYTE   N13  Gn2  v092
 BYTE   W24
 BYTE   Gn2  v112
 BYTE   W12
 BYTE   N14  As2  v108
 BYTE   W12
 BYTE   N09  Gn2  v116
 BYTE   W12
// 040   ----------------------------------------
 BYTE   N10  Cn3  v127
 BYTE   W60
 BYTE   N07  Fs1
 BYTE   W36
// 041   ----------------------------------------
 BYTE   W12
 BYTE   N15  Fs2  v096
 BYTE   W12
 BYTE   N11  Cn3
 BYTE   W12
 BYTE   N20  As2  v108
 BYTE   W22
 BYTE   N14  Fs2  v096
 BYTE   W14
 BYTE   N11  As2  v112
 BYTE   W12
 BYTE   Gs2  v104
 BYTE   W12
// 042   ----------------------------------------
 BYTE   N06  Gn2  v127
 BYTE   W60
 BYTE   Gn1
 BYTE   W36
// 043   ----------------------------------------
 BYTE   W12
 BYTE   N12  Cn3  v092
 BYTE   W12
 BYTE   N14  Ds3  v096
 BYTE   W12
 BYTE   N24  Fn3  v112
 BYTE   W24
 BYTE   N12  Ds3  v104
 BYTE   W12
 BYTE   N08  Fn3  v108
 BYTE   W12
 BYTE   N12  Gn3
 BYTE   W12
// 044   ----------------------------------------
 BYTE   W60
 BYTE   N06  Gn1  v127
 BYTE   W36
// 045   ----------------------------------------
 BYTE   W96
// 046   ----------------------------------------
Label_4_0102AFC4:
 BYTE   N03  Gn1  v127
 BYTE   W12
 BYTE   N06
 BYTE   W24
 BYTE   N05
 BYTE   W12
 BYTE   N05
 BYTE   W24
 BYTE   N05
 BYTE   W12
 BYTE   Gn1  v124
 BYTE   W12
 BYTE   PEND 
// 047   ----------------------------------------
 BYTE   W96
 BYTE   PATT
  POIN2 Label_4_0102AFC4
// 048   ----------------------------------------
 BYTE   W92
 BYTE   W03
 BYTE   GoTo
  POIN2 Label_4_0102AB96
 BYTE   FINE

//**************** Track 6 (Midi-Chn.5) ****************//

song25_006:
// 000   ----------------------------------------
 BYTE   KEYSH   song25_key+0
Label_5_0102AFE6:
 BYTE   VOICE   4
 BYTE   VOL   47*song25_mvl/mxv
 BYTE   PAN   c_v-64
 BYTE   W96
// 001   ----------------------------------------
 BYTE   W96
// 002   ----------------------------------------
 BYTE   W96
// 003   ----------------------------------------
 BYTE   W96
// 004   ----------------------------------------
 BYTE   W96
// 005   ----------------------------------------
 BYTE   W96
// 006   ----------------------------------------
 BYTE   W96
// 007   ----------------------------------------
 BYTE   W96
// 008   ----------------------------------------
 BYTE   W96
// 009   ----------------------------------------
 BYTE   W96
// 010   ----------------------------------------
 BYTE   W96
// 011   ----------------------------------------
 BYTE   W96
// 012   ----------------------------------------
Label_5_0102AFF8:
 BYTE   W12
 BYTE   N04  Cn6  v108
 BYTE   W36
 BYTE   N03  Cn5  v088
 BYTE   W36
 BYTE   Cn4  v096
 BYTE   W12
 BYTE   PEND 
// 013   ----------------------------------------
 BYTE   W96
 BYTE   PATT
  POIN2 Label_5_0102AFF8
// 014   ----------------------------------------
 BYTE   W96
// 015   ----------------------------------------
 BYTE   W96
// 016   ----------------------------------------
 BYTE   W96
// 017   ----------------------------------------
 BYTE   W96
// 018   ----------------------------------------
 BYTE   W96
// 019   ----------------------------------------
 BYTE   W96
// 020   ----------------------------------------
 BYTE   W96
// 021   ----------------------------------------
 BYTE   W96
// 022   ----------------------------------------
 BYTE   W96
// 023   ----------------------------------------
 BYTE   W96
// 024   ----------------------------------------
 BYTE   W96
// 025   ----------------------------------------
 BYTE   W96
// 026   ----------------------------------------
 BYTE   W96
// 027   ----------------------------------------
 BYTE   N32  Fn5  v080
 BYTE   W12
 BYTE   N02  Cn5
 BYTE   W12
 BYTE   N04
 BYTE   W12
 BYTE   N32
 BYTE   W12
 BYTE   N02  Gn4
 BYTE   W12
 BYTE   N02
 BYTE   W12
 BYTE   N32
 BYTE   W12
 BYTE   N01  Dn4
 BYTE   W12
// 028   ----------------------------------------
 BYTE   N02
 BYTE   W12
 BYTE   N32  Fn4
 BYTE   W12
 BYTE   N02  Cn4
 BYTE   W12
 BYTE   N03
 BYTE   W12
 BYTE   N32  Ds4
 BYTE   W12
 BYTE   N12  As3
 BYTE   W12
 BYTE   N09  Cn4
 BYTE   W12
 BYTE   N08  Fn4
 BYTE   W12
// 029   ----------------------------------------
 BYTE   N12  Gn4
 BYTE   W12
 BYTE   N14  Fn4
 BYTE   W12
 BYTE   N44  Gn4
 BYTE   W12
 BYTE   N28  Cn4
 BYTE   W36
 BYTE   N32  Cn5
 BYTE   W24
// 030   ----------------------------------------
 BYTE   W12
 BYTE   As4
 BYTE   W36
 BYTE   N23  Gn4
 BYTE   W24
 BYTE   Fn4
 BYTE   W24
// 031   ----------------------------------------
 BYTE   N32  Dn5
 BYTE   W12
 BYTE   N04  An4
 BYTE   W12
 BYTE   N01
 BYTE   W12
 BYTE   N32
 BYTE   W12
 BYTE   N05  En4
 BYTE   W12
 BYTE   N03
 BYTE   W12
 BYTE   N32
 BYTE   W12
 BYTE   N02  Dn4
 BYTE   W12
// 032   ----------------------------------------
 BYTE   N02
 BYTE   W12
 BYTE   N22
 BYTE   W12
 BYTE   N04  An3
 BYTE   W12
 BYTE   N05  Dn4
 BYTE   W12
 BYTE   N21  En4
 BYTE   W12
 BYTE   N10  Dn4
 BYTE   W12
 BYTE   N23  An4
 BYTE   W12
 BYTE   N10  Dn4
 BYTE   W12
// 033   ----------------------------------------
 BYTE   N23  Fn4
 BYTE   W12
 BYTE   N06  En4
 BYTE   W12
 BYTE   N02  Fn4
 BYTE   W12
 BYTE   N32  Cn4
 BYTE   W36
 BYTE   N22  An4
 BYTE   W12
 BYTE   N06  Gs4
 BYTE   W12
// 034   ----------------------------------------
 BYTE   N13  An4
 BYTE   W12
 BYTE   N32  En4
 BYTE   W36
 BYTE   N36  Cn5
 BYTE   W12
 BYTE   N09  Fn4
 BYTE   W12
 BYTE   N06  Gn4
 BYTE   W12
 BYTE   N04  An4
 BYTE   N10  Dn5
 BYTE   W12
// 035   ----------------------------------------
 BYTE   N07  En6
 BYTE   W12
 BYTE   N01  Bn5
 BYTE   W12
 BYTE   N05
 BYTE   W12
 BYTE   N06  Fs5
 BYTE   W11
 BYTE   N09
 BYTE   W13
 BYTE   N01  Bn5
 BYTE   W12
 BYTE   N04
 BYTE   W12
 BYTE   Fs5
 BYTE   W12
// 036   ----------------------------------------
Label_5_0102B0BE:
 BYTE   N07  Gn5  v080
 BYTE   W12
 BYTE   N01  Dn5
 BYTE   W12
 BYTE   N05
 BYTE   W12
 BYTE   N06  An4
 BYTE   W12
 BYTE   N09
 BYTE   W12
 BYTE   N02  Dn5
 BYTE   W12
 BYTE   N04
 BYTE   W12
 BYTE   Gn5
 BYTE   W12
 BYTE   PEND 
// 037   ----------------------------------------
 BYTE   N07  En6
 BYTE   W12
 BYTE   N01  Bn5
 BYTE   W12
 BYTE   N05
 BYTE   W12
 BYTE   N06  Fs5
 BYTE   W12
 BYTE   N09
 BYTE   W12
 BYTE   N02  Bn5
 BYTE   W12
 BYTE   N04
 BYTE   W12
 BYTE   Fs5
 BYTE   W12
 BYTE   PATT
  POIN2 Label_5_0102B0BE
// 038   ----------------------------------------
Label_5_0102B0ED:
 BYTE   N07  En6  v080
 BYTE   W12
 BYTE   N01  Bn5
 BYTE   W12
 BYTE   N05
 BYTE   W12
 BYTE   N06  Fs5
 BYTE   W12
 BYTE   N07  Gn5
 BYTE   W12
 BYTE   N01  Dn5
 BYTE   W12
 BYTE   N05
 BYTE   W12
 BYTE   N06  Gn5
 BYTE   W12
 BYTE   PEND 
 BYTE   PATT
  POIN2 Label_5_0102B0ED
// 039   ----------------------------------------
 BYTE   N05  An5  v076
 BYTE   W12
 BYTE   N04
 BYTE   W12
 BYTE   An5  v080
 BYTE   W12
 BYTE   N04
 BYTE   W12
 BYTE   N05  An5  v084
 BYTE   W12
 BYTE   N02
 BYTE   W12
 BYTE   N03  An5  v088
 BYTE   W12
 BYTE   N05
 BYTE   W12
// 040   ----------------------------------------
 BYTE   N06
 BYTE   W12
 BYTE   N04
 BYTE   W12
 BYTE   N05  An5  v092
 BYTE   W12
 BYTE   N05
 BYTE   W12
 BYTE   An5  v096
 BYTE   W12
 BYTE   N02
 BYTE   W12
 BYTE   N05  An5  v100
 BYTE   W12
 BYTE   N04  An5  v104
 BYTE   W12
// 041   ----------------------------------------
 BYTE   N02  Bn5  v076
 BYTE   W12
 BYTE   N03
 BYTE   W12
 BYTE   N05  Bn5  v080
 BYTE   W12
 BYTE   N05
 BYTE   W12
 BYTE   Bn5  v084
 BYTE   W12
 BYTE   N05
 BYTE   W12
 BYTE   N06  Bn5  v088
 BYTE   W12
 BYTE   N05  Bn5  v092
 BYTE   W12
// 042   ----------------------------------------
 BYTE   N05
 BYTE   W12
 BYTE   N06
 BYTE   W12
 BYTE   N05  Bn5  v096
 BYTE   W12
 BYTE   N04  Bn5  v104
 BYTE   W12
 BYTE   N05
 BYTE   W12
 BYTE   Bn5  v108
 BYTE   W12
 BYTE   N03  Bn5  v112
 BYTE   W12
 BYTE   N01  Bn5  v116
 BYTE   W12
// 043   ----------------------------------------
 BYTE   W96
// 044   ----------------------------------------
 BYTE   W96
// 045   ----------------------------------------
 BYTE   W96
// 046   ----------------------------------------
 BYTE   W96
// 047   ----------------------------------------
 BYTE   W96
// 048   ----------------------------------------
 BYTE   W96
// 049   ----------------------------------------
 BYTE   W96
// 050   ----------------------------------------
 BYTE   W96
// 051   ----------------------------------------
Label_5_0102B172:
 BYTE   N11  Fn5  v080
 BYTE   W12
 BYTE   Cn5
 BYTE   W12
 BYTE   Gn4
 BYTE   W12
 BYTE   N12  Fn5
 BYTE   W12
 BYTE   N11  Cn5
 BYTE   W12
 BYTE   N12  Gn4
 BYTE   W12
 BYTE   N11  Fn5
 BYTE   W12
 BYTE   N12  Cn5
 BYTE   W12
 BYTE   PEND 
// 052   ----------------------------------------
 BYTE   N09  Gn4
 BYTE   W12
 BYTE   N11  Cn4  v072
 BYTE   W12
 BYTE   Fn4
 BYTE   W12
 BYTE   Cn4
 BYTE   W12
 BYTE   As3
 BYTE   W12
 BYTE   Fn3
 BYTE   W12
 BYTE   As3
 BYTE   W12
 BYTE   Cn4
 BYTE   W12
 BYTE   PATT
  POIN2 Label_5_0102B172
// 053   ----------------------------------------
 BYTE   N09  Gn4  v080
 BYTE   W12
 BYTE   N11  Cn4  v072
 BYTE   W12
 BYTE   As4
 BYTE   W12
 BYTE   Fn4
 BYTE   W12
 BYTE   Cn4
 BYTE   W12
 BYTE   Fn4
 BYTE   W12
 BYTE   As4
 BYTE   W12
 BYTE   Fn4
 BYTE   W11
 BYTE   GoTo
  POIN2 Label_5_0102AFE6
 BYTE   FINE

//**************** Track 7 (Midi-Chn.6) ****************//

song25_007:
// 000   ----------------------------------------
 BYTE   KEYSH   song25_key+0
Label_6_0102B1BE:
 BYTE   VOICE   85
 BYTE   VOL   30*song25_mvl/mxv
 BYTE   PAN   c_v-64
 BYTE   W96
// 001   ----------------------------------------
 BYTE   W96
// 002   ----------------------------------------
 BYTE   W96
// 003   ----------------------------------------
 BYTE   W96
// 004   ----------------------------------------
 BYTE   W96
// 005   ----------------------------------------
 BYTE   W96
// 006   ----------------------------------------
 BYTE   W96
// 007   ----------------------------------------
 BYTE   W96
// 008   ----------------------------------------
 BYTE   W96
// 009   ----------------------------------------
 BYTE   W96
// 010   ----------------------------------------
 BYTE   W96
// 011   ----------------------------------------
 BYTE   W96
// 012   ----------------------------------------
 BYTE   W96
// 013   ----------------------------------------
 BYTE   W96
// 014   ----------------------------------------
 BYTE   W96
// 015   ----------------------------------------
 BYTE   W96
// 016   ----------------------------------------
 BYTE   W12
 BYTE   N02  Cn2  v080
 BYTE   W06
 BYTE   Gn2
 BYTE   W06
 BYTE   Cn3
 BYTE   W06
 BYTE   Gn2
 BYTE   W06
 BYTE   Cn2
 BYTE   W06
 BYTE   Gn2
 BYTE   W06
 BYTE   Fn2
 BYTE   W06
 BYTE   Cn3
 BYTE   W06
 BYTE   Fn3
 BYTE   W06
 BYTE   Cn3
 BYTE   W06
 BYTE   Fn2
 BYTE   W06
 BYTE   Cn3
 BYTE   W06
 BYTE   As2
 BYTE   W06
 BYTE   Fn3
 BYTE   W06
// 017   ----------------------------------------
 BYTE   As3
 BYTE   W06
 BYTE   Fn3
 BYTE   W06
 BYTE   As2
 BYTE   W06
 BYTE   Fn3
 BYTE   W06
 BYTE   Ds3
 BYTE   W06
 BYTE   As3
 BYTE   W06
 BYTE   Ds4
 BYTE   W06
 BYTE   As3
 BYTE   W06
 BYTE   Ds3
 BYTE   W06
 BYTE   As3
 BYTE   W06
 BYTE   Ds4
 BYTE   W06
 BYTE   As3
 BYTE   W06
 BYTE   Ds3
 BYTE   W06
 BYTE   As3
 BYTE   W06
 BYTE   Gn2
 BYTE   W06
 BYTE   Cn3
 BYTE   W06
// 018   ----------------------------------------
 BYTE   Gn3
 BYTE   W06
 BYTE   Cn4
 BYTE   W06
 BYTE   Gn4
 BYTE   W06
 BYTE   Cn5
 BYTE   W06
 BYTE   Gn4
 BYTE   W06
 BYTE   Cn4
 BYTE   W06
 BYTE   Gn2
 BYTE   W06
 BYTE   Cn3
 BYTE   W06
 BYTE   Gn3
 BYTE   W06
 BYTE   Cn4
 BYTE   W06
 BYTE   Gn4
 BYTE   W06
 BYTE   Cn5
 BYTE   W06
 BYTE   Gn4
 BYTE   W06
 BYTE   Cn4
 BYTE   W06
 BYTE   Fn3
 BYTE   W06
 BYTE   As3
 BYTE   W06
// 019   ----------------------------------------
 BYTE   Fn4
 BYTE   W06
 BYTE   As4
 BYTE   W06
 BYTE   Fn5
 BYTE   W06
 BYTE   As5
 BYTE   W06
 BYTE   Fn5
 BYTE   W06
 BYTE   As4
 BYTE   W06
 BYTE   Fn2
 BYTE   W06
 BYTE   As2
 BYTE   W06
 BYTE   Fn3
 BYTE   W06
 BYTE   As3
 BYTE   W06
 BYTE   Fn4
 BYTE   W06
 BYTE   As4
 BYTE   W06
 BYTE   Fn4
 BYTE   W06
 BYTE   As3
 BYTE   W18
// 020   ----------------------------------------
 BYTE   W96
// 021   ----------------------------------------
 BYTE   W96
// 022   ----------------------------------------
 BYTE   W96
// 023   ----------------------------------------
 BYTE   W96
// 024   ----------------------------------------
 BYTE   W96
// 025   ----------------------------------------
 BYTE   W96
// 026   ----------------------------------------
 BYTE   W96
// 027   ----------------------------------------
 BYTE   W96
// 028   ----------------------------------------
 BYTE   W96
// 029   ----------------------------------------
 BYTE   W96
// 030   ----------------------------------------
 BYTE   W96
// 031   ----------------------------------------
 BYTE   W96
// 032   ----------------------------------------
 BYTE   W96
// 033   ----------------------------------------
 BYTE   W96
// 034   ----------------------------------------
 BYTE   Fn2
 BYTE   W06
 BYTE   Cn3
 BYTE   W06
 BYTE   Fn3
 BYTE   W06
 BYTE   Cn3
 BYTE   W06
 BYTE   Fn3
 BYTE   W06
 BYTE   Cn4
 BYTE   W06
 BYTE   Cn2
 BYTE   W06
 BYTE   Gn2
 BYTE   W06
 BYTE   Cn3
 BYTE   W06
 BYTE   Gn3
 BYTE   W06
 BYTE   Cn4
 BYTE   W06
 BYTE   Gn4
 BYTE   W06
 BYTE   An2
 BYTE   W06
 BYTE   En3
 BYTE   W06
 BYTE   An3
 BYTE   W06
 BYTE   En3
 BYTE   W06
// 035   ----------------------------------------
 BYTE   An3
 BYTE   W06
 BYTE   En4
 BYTE   W06
 BYTE   En2
 BYTE   W06
 BYTE   Bn2
 BYTE   W06
 BYTE   En3
 BYTE   W06
 BYTE   Bn3
 BYTE   W06
 BYTE   En4
 BYTE   W06
 BYTE   Bn4
 BYTE   W06
 BYTE   Fn3
 BYTE   W06
 BYTE   Cn4
 BYTE   W06
 BYTE   Fn4
 BYTE   W06
 BYTE   Cn5
 BYTE   W06
 BYTE   Gn3
 BYTE   W06
 BYTE   Dn4
 BYTE   W06
 BYTE   Gn4
 BYTE   W06
 BYTE   Dn5
 BYTE   W06
// 036   ----------------------------------------
Label_6_0102B29D:
 BYTE   N02  En2  v080
 BYTE   W06
 BYTE   Bn2
 BYTE   W06
 BYTE   En3
 BYTE   W06
 BYTE   Bn2
 BYTE   W06
 BYTE   N02
 BYTE   W06
 BYTE   Fs3
 BYTE   W06
 BYTE   Bn3
 BYTE   W06
 BYTE   Fs3
 BYTE   W06
 BYTE   En2
 BYTE   W06
 BYTE   Bn2
 BYTE   W06
 BYTE   En3
 BYTE   W06
 BYTE   Bn2
 BYTE   W06
 BYTE   N02
 BYTE   W06
 BYTE   Fs3
 BYTE   W06
 BYTE   Bn3
 BYTE   W06
 BYTE   Fs3
 BYTE   W06
 BYTE   PEND 
// 037   ----------------------------------------
Label_6_0102B2C0:
 BYTE   N02  Gn2  v080
 BYTE   W06
 BYTE   Dn3
 BYTE   W06
 BYTE   Gn3
 BYTE   W06
 BYTE   Dn3
 BYTE   W06
 BYTE   Dn2
 BYTE   W06
 BYTE   An2
 BYTE   W06
 BYTE   Dn3
 BYTE   W06
 BYTE   An2
 BYTE   W06
 BYTE   Gn1
 BYTE   W06
 BYTE   Dn2
 BYTE   W06
 BYTE   Gn2
 BYTE   W06
 BYTE   Dn2
 BYTE   W06
 BYTE   N02
 BYTE   W06
 BYTE   An2
 BYTE   W06
 BYTE   Dn3
 BYTE   W06
 BYTE   An2
 BYTE   W06
 BYTE   PEND 
 BYTE   PATT
  POIN2 Label_6_0102B29D
 BYTE   PATT
  POIN2 Label_6_0102B2C0
// 038   ----------------------------------------
Label_6_0102B2ED:
 BYTE   N02  En2  v080
 BYTE   W06
 BYTE   Bn2
 BYTE   W06
 BYTE   En3
 BYTE   W06
 BYTE   Bn2
 BYTE   W06
 BYTE   N02
 BYTE   W06
 BYTE   Fs3
 BYTE   W06
 BYTE   Bn3
 BYTE   W06
 BYTE   Fs3
 BYTE   W06
 BYTE   Gn2
 BYTE   W06
 BYTE   Dn3
 BYTE   W06
 BYTE   Gn3
 BYTE   W06
 BYTE   Dn3
 BYTE   W06
 BYTE   Dn2
 BYTE   W06
 BYTE   An2
 BYTE   W06
 BYTE   Dn3
 BYTE   W06
 BYTE   An2
 BYTE   W06
 BYTE   PEND 
 BYTE   PATT
  POIN2 Label_6_0102B2ED
// 039   ----------------------------------------
Label_6_0102B315:
 BYTE   N02  An2  v080
 BYTE   W06
 BYTE   En3
 BYTE   W06
 BYTE   An3
 BYTE   W06
 BYTE   En3
 BYTE   W06
 BYTE   An2
 BYTE   W06
 BYTE   En3
 BYTE   W06
 BYTE   An3
 BYTE   W06
 BYTE   En3
 BYTE   W06
 BYTE   An2
 BYTE   W06
 BYTE   En3
 BYTE   W06
 BYTE   An3
 BYTE   W06
 BYTE   En3
 BYTE   W06
 BYTE   An2
 BYTE   W06
 BYTE   En3
 BYTE   W06
 BYTE   An3
 BYTE   W06
 BYTE   En3
 BYTE   W06
 BYTE   PEND 
 BYTE   PATT
  POIN2 Label_6_0102B315
// 040   ----------------------------------------
Label_6_0102B33D:
 BYTE   N02  Bn2  v080
 BYTE   W06
 BYTE   Fs3
 BYTE   W06
 BYTE   Bn3
 BYTE   W06
 BYTE   Fs3
 BYTE   W06
 BYTE   Bn2
 BYTE   W06
 BYTE   Fs3
 BYTE   W06
 BYTE   Bn3
 BYTE   W06
 BYTE   Fs3
 BYTE   W06
 BYTE   Bn2
 BYTE   W06
 BYTE   Fs3
 BYTE   W06
 BYTE   Bn3
 BYTE   W06
 BYTE   Fs3
 BYTE   W06
 BYTE   Bn2
 BYTE   W06
 BYTE   Fs3
 BYTE   W06
 BYTE   Bn3
 BYTE   W06
 BYTE   Fs3
 BYTE   W06
 BYTE   PEND 
 BYTE   PATT
  POIN2 Label_6_0102B33D
// 041   ----------------------------------------
 BYTE   W96
// 042   ----------------------------------------
 BYTE   W96
// 043   ----------------------------------------
 BYTE   W96
// 044   ----------------------------------------
 BYTE   W96
// 045   ----------------------------------------
 BYTE   W96
// 046   ----------------------------------------
 BYTE   W96
// 047   ----------------------------------------
 BYTE   W96
// 048   ----------------------------------------
 BYTE   W96
// 049   ----------------------------------------
 BYTE   W96
// 050   ----------------------------------------
 BYTE   W96
// 051   ----------------------------------------
 BYTE   W96
// 052   ----------------------------------------
 BYTE   W92
 BYTE   W03
 BYTE   GoTo
  POIN2 Label_6_0102B1BE
 BYTE   FINE

//**************** Track 8 (Midi-Chn.7) ****************//

song25_008:
// 000   ----------------------------------------
 BYTE   KEYSH   song25_key+0
Label_7_0102B37A:
 BYTE   VOICE   4
 BYTE   VOL   47*song25_mvl/mxv
 BYTE   PAN   c_v-64
 BYTE   N05  Cn2  v104
 BYTE   W12
 BYTE   Cn2  v092
 BYTE   W84
// 001   ----------------------------------------
 BYTE   N06  Fn1  v100
 BYTE   W36
 BYTE   N05  Gs1  v104
 BYTE   W36
 BYTE   N02  As1  v100
 BYTE   W24
// 002   ----------------------------------------
 BYTE   N05  Cn2
 BYTE   W12
 BYTE   N04  Cn2  v096
 BYTE   W84
// 003   ----------------------------------------
 BYTE   N06  Fn1  v108
 BYTE   W36
 BYTE   N05  Gs1  v096
 BYTE   W36
 BYTE   N03  As1
 BYTE   W24
// 004   ----------------------------------------
 BYTE   Cn2  v100
 BYTE   W96
// 005   ----------------------------------------
 BYTE   W96
// 006   ----------------------------------------
 BYTE   W96
// 007   ----------------------------------------
 BYTE   W96
// 008   ----------------------------------------
 BYTE   W96
// 009   ----------------------------------------
 BYTE   W96
// 010   ----------------------------------------
 BYTE   W96
// 011   ----------------------------------------
 BYTE   W96
// 012   ----------------------------------------
 BYTE   W12
 BYTE   N04  Cn2  v092
 BYTE   W36
 BYTE   N02  Gn1  v088
 BYTE   W36
 BYTE   N05  Cn2  v096
 BYTE   W12
// 013   ----------------------------------------
 BYTE   W96
// 014   ----------------------------------------
 BYTE   W12
 BYTE   N02  Cn2  v088
 BYTE   W36
 BYTE   Gn1  v084
 BYTE   W36
 BYTE   N06  Cn2  v088
 BYTE   W12
// 015   ----------------------------------------
 BYTE   W96
// 016   ----------------------------------------
 BYTE   W96
// 017   ----------------------------------------
 BYTE   W84
 BYTE   N02  Cs2  v100
 BYTE   W12
// 018   ----------------------------------------
 BYTE   W12
 BYTE   Cs2  v064
 BYTE   W12
 BYTE   N01  Cs2  v072
 BYTE   W06
 BYTE   N02  Cs2  v076
 BYTE   W12
 BYTE   Cs2  v080
 BYTE   W06
 BYTE   N01  Cs2  v092
 BYTE   W12
 BYTE   Cs2  v072
 BYTE   W24
 BYTE   Fs1  v100
 BYTE   W12
// 019   ----------------------------------------
 BYTE   W12
 BYTE   Fs1  v080
 BYTE   W12
 BYTE   N02  Fs1  v064
 BYTE   W06
 BYTE   Fs1  v060
 BYTE   W12
 BYTE   Fs1  v080
 BYTE   W06
 BYTE   N01  Fs1  v088
 BYTE   W12
 BYTE   N01
 BYTE   W36
// 020   ----------------------------------------
 BYTE   W96
// 021   ----------------------------------------
 BYTE   W96
// 022   ----------------------------------------
 BYTE   W96
// 023   ----------------------------------------
 BYTE   W96
// 024   ----------------------------------------
 BYTE   W96
// 025   ----------------------------------------
 BYTE   W96
// 026   ----------------------------------------
 BYTE   W96
// 027   ----------------------------------------
 BYTE   W96
// 028   ----------------------------------------
 BYTE   W96
// 029   ----------------------------------------
 BYTE   W96
// 030   ----------------------------------------
 BYTE   W96
// 031   ----------------------------------------
 BYTE   W96
// 032   ----------------------------------------
 BYTE   W96
// 033   ----------------------------------------
 BYTE   W96
// 034   ----------------------------------------
 BYTE   W96
// 035   ----------------------------------------
 BYTE   W96
// 036   ----------------------------------------
Label_7_0102B40D:
 BYTE   W48
 BYTE   N05  Cs2  v060
 BYTE   W06
 BYTE   Cs2  v064
 BYTE   W06
 BYTE   N05
 BYTE   W06
 BYTE   N05
 BYTE   W06
 BYTE   Cs2  v068
 BYTE   W06
 BYTE   Cs2  v080
 BYTE   W06
 BYTE   Cs2  v088
 BYTE   W06
 BYTE   Cs2  v092
 BYTE   W06
 BYTE   PEND 
// 037   ----------------------------------------
 BYTE   W96
 BYTE   PATT
  POIN2 Label_7_0102B40D
// 038   ----------------------------------------
 BYTE   W96
// 039   ----------------------------------------
Label_7_0102B42D:
 BYTE   W24
 BYTE   N05  Cs2  v068
 BYTE   W06
 BYTE   Cs2  v080
 BYTE   W06
 BYTE   Cs2  v088
 BYTE   W06
 BYTE   Cs2  v092
 BYTE   W54
 BYTE   PEND 
 BYTE   PATT
  POIN2 Label_7_0102B42D
// 040   ----------------------------------------
 BYTE   W96
// 041   ----------------------------------------
 BYTE   W96
// 042   ----------------------------------------
 BYTE   W96
// 043   ----------------------------------------
 BYTE   W96
// 044   ----------------------------------------
 BYTE   W96
// 045   ----------------------------------------
 BYTE   W96
// 046   ----------------------------------------
 BYTE   W96
// 047   ----------------------------------------
 BYTE   W96
// 048   ----------------------------------------
 BYTE   W96
// 049   ----------------------------------------
 BYTE   W96
// 050   ----------------------------------------
 BYTE   W96
// 051   ----------------------------------------
 BYTE   W96
// 052   ----------------------------------------
 BYTE   N03  Dn2  v112
 BYTE   W12
 BYTE   N05  Gn1  v108
 BYTE   W24
 BYTE   N03  Dn2
 BYTE   W12
 BYTE   N05  Gn1  v104
 BYTE   W24
 BYTE   N03  Dn2
 BYTE   W12
 BYTE   N05  Gn1  v100
 BYTE   W12
// 053   ----------------------------------------
 BYTE   W24
 BYTE   Gn1  v076
 BYTE   W48
 BYTE   N04
 BYTE   W06
 BYTE   Gn1  v088
 BYTE   W06
 BYTE   Gn1  v100
 BYTE   W06
 BYTE   Gn1  v112
 BYTE   W06
// 054   ----------------------------------------
 BYTE   W02
 BYTE   N01  Gn1  v116
 BYTE   W32
 BYTE   W02
 BYTE   N02  Dn2  v096
 BYTE   W12
 BYTE   N04  Gn1  v100
 BYTE   W24
 BYTE   N02  Dn2  v092
 BYTE   W12
 BYTE   N05  Gn1  v104
 BYTE   W12
// 055   ----------------------------------------
 BYTE   W24
 BYTE   N03  Gn1  v084
 BYTE   W68
 BYTE   W03
 BYTE   GoTo
  POIN2 Label_7_0102B37A
 BYTE   FINE

//**************** Track 9 (Midi-Chn.8) ****************//

song25_009:
// 000   ----------------------------------------
 BYTE   KEYSH   song25_key+0
Label_8_0102B496:
 BYTE   VOICE   6
 BYTE   VOL   20*song25_mvl/mxv
 BYTE   PAN   c_v-61
 BYTE   N05  Cn2  v092
 BYTE   W12
 BYTE   Cn2  v084
 BYTE   W84
// 001   ----------------------------------------
Label_8_0102B4A3:
 BYTE   N32  Fn1  v092
 BYTE   W36
 BYTE   Gs1  v096
 BYTE   W36
 BYTE   N23  As1  v080
 BYTE   W24
 BYTE   PEND 
// 002   ----------------------------------------
 BYTE   N05  Cn2  v092
 BYTE   W12
 BYTE   Cn2  v084
 BYTE   W84
 BYTE   PATT
  POIN2 Label_8_0102B4A3
// 003   ----------------------------------------
 BYTE   W96
// 004   ----------------------------------------
 BYTE   W96
// 005   ----------------------------------------
 BYTE   W96
// 006   ----------------------------------------
 BYTE   W96
// 007   ----------------------------------------
 BYTE   W96
// 008   ----------------------------------------
 BYTE   W96
// 009   ----------------------------------------
 BYTE   W96
// 010   ----------------------------------------
 BYTE   W96
// 011   ----------------------------------------
 BYTE   W96
// 012   ----------------------------------------
 BYTE   W96
// 013   ----------------------------------------
 BYTE   W96
// 014   ----------------------------------------
 BYTE   W96
// 015   ----------------------------------------
 BYTE   W96
// 016   ----------------------------------------
 BYTE   W84
 BYTE   N84  Cs2  v080
 BYTE   W12
// 017   ----------------------------------------
 BYTE   W96
// 018   ----------------------------------------
 BYTE   W96
// 019   ----------------------------------------
 BYTE   W96
// 020   ----------------------------------------
 BYTE   W96
// 021   ----------------------------------------
 BYTE   W96
// 022   ----------------------------------------
 BYTE   W96
// 023   ----------------------------------------
 BYTE   W96
// 024   ----------------------------------------
 BYTE   W96
// 025   ----------------------------------------
 BYTE   W96
// 026   ----------------------------------------
 BYTE   W96
// 027   ----------------------------------------
 BYTE   N32  Fn1
 BYTE   W36
 BYTE   Gn1
 BYTE   W36
 BYTE   An1
 BYTE   W24
// 028   ----------------------------------------
 BYTE   W12
 BYTE   As1
 BYTE   W36
 BYTE   N23  Cn2
 BYTE   W24
 BYTE   Dn2
 BYTE   W24
// 029   ----------------------------------------
 BYTE   N32  Ds2
 BYTE   W36
 BYTE   Fn1
 BYTE   W36
 BYTE   Gn1
 BYTE   W24
// 030   ----------------------------------------
 BYTE   W12
 BYTE   An1
 BYTE   W36
 BYTE   N23  As1
 BYTE   W24
 BYTE   Cn2
 BYTE   W24
// 031   ----------------------------------------
 BYTE   N32  En1
 BYTE   W36
 BYTE   Fs1
 BYTE   W36
 BYTE   Gs1
 BYTE   W24
// 032   ----------------------------------------
 BYTE   W12
 BYTE   An1
 BYTE   W36
 BYTE   N23  Bn1
 BYTE   W24
 BYTE   Cs2
 BYTE   W24
// 033   ----------------------------------------
 BYTE   N32  Dn2
 BYTE   W36
 BYTE   En1
 BYTE   W36
 BYTE   Fs1
 BYTE   W24
// 034   ----------------------------------------
 BYTE   W12
 BYTE   Gs1
 BYTE   W36
 BYTE   N23  An1
 BYTE   W24
 BYTE   Bn1
 BYTE   W24
// 035   ----------------------------------------
 BYTE   W96
// 036   ----------------------------------------
 BYTE   W96
// 037   ----------------------------------------
 BYTE   W96
// 038   ----------------------------------------
 BYTE   W96
// 039   ----------------------------------------
 BYTE   W96
// 040   ----------------------------------------
 BYTE   W96
// 041   ----------------------------------------
 BYTE   Gn1  v072
 BYTE   W24
 BYTE   An1
 BYTE   W24
 BYTE   Bn1
 BYTE   W24
 BYTE   Cs2  v076
 BYTE   W24
// 042   ----------------------------------------
 BYTE   Ds2  v084
 BYTE   W24
 BYTE   Bn2  v068
 BYTE   W24
 BYTE   Gn2  v076
 BYTE   W24
 BYTE   An2  v088
 BYTE   W24
// 043   ----------------------------------------
 BYTE   An1  v072
 BYTE   W24
 BYTE   Bn1
 BYTE   W24
 BYTE   Cs2
 BYTE   W24
 BYTE   Ds2  v076
 BYTE   W24
// 044   ----------------------------------------
 BYTE   Fn2  v084
 BYTE   W24
 BYTE   Cs3  v068
 BYTE   W24
 BYTE   An2  v076
 BYTE   W24
 BYTE   Bn2  v088
 BYTE   W24
// 045   ----------------------------------------
 BYTE   W96
// 046   ----------------------------------------
 BYTE   W96
// 047   ----------------------------------------
 BYTE   W96
// 048   ----------------------------------------
 BYTE   W96
// 049   ----------------------------------------
 BYTE   W96
// 050   ----------------------------------------
 BYTE   W96
// 051   ----------------------------------------
 BYTE   W96
// 052   ----------------------------------------
 BYTE   W96
// 053   ----------------------------------------
 BYTE   W96
// 054   ----------------------------------------
 BYTE   W96
// 055   ----------------------------------------
 BYTE   W96
// 056   ----------------------------------------
 BYTE   W92
 BYTE   W03
 BYTE   GoTo
  POIN2 Label_8_0102B496
 BYTE   FINE

//**************** Track 10 (Midi-Chn.9) ****************//

song25_010:
// 000   ----------------------------------------
 BYTE   KEYSH   song25_key+0
Label_9_0102B55A:
 BYTE   VOICE   124
 BYTE   VOL   47*song25_mvl/mxv
 BYTE   PAN   c_v-64
 BYTE   W96
// 001   ----------------------------------------
 BYTE   W96
// 002   ----------------------------------------
 BYTE   W96
// 003   ----------------------------------------
 BYTE   W48
 BYTE   N02  Gs1  v120
 BYTE   W12
 BYTE   Dn1  v127
 BYTE   N02  Gs1  v088
 BYTE   W06
 BYTE   Dn1  v127
 BYTE   W06
 BYTE   Gs1  v120
 BYTE   W06
 BYTE   Dn1  v116
 BYTE   W06
 BYTE   Dn1  v127
 BYTE   N02  Gs1  v100
 BYTE   W06
 BYTE   Dn1  v127
 BYTE   W06
// 004   ----------------------------------------
 BYTE   W96
// 005   ----------------------------------------
 BYTE   W96
// 006   ----------------------------------------
 BYTE   W96
// 007   ----------------------------------------
 BYTE   W96
// 008   ----------------------------------------
 BYTE   W96
// 009   ----------------------------------------
 BYTE   W96
// 010   ----------------------------------------
 BYTE   W96
// 011   ----------------------------------------
 BYTE   Fs1  v120
 BYTE   W12
 BYTE   Cn1  v127
 BYTE   N02  Gs1  v084
 BYTE   W12
 BYTE   Dn1  v127
 BYTE   N02  Fs1  v116
 BYTE   W06
 BYTE   Dn1  v112
 BYTE   W06
 BYTE   Cn1  v116
 BYTE   N02  Gs1  v088
 BYTE   W06
 BYTE   Dn1  v060
 BYTE   W06
 BYTE   Cn1  v116
 BYTE   N02  Fs1
 BYTE   W12
 BYTE   Gs1  v088
 BYTE   W06
 BYTE   Dn1
 BYTE   W06
 BYTE   Cn1  v116
 BYTE   N02  Dn1
 BYTE   W06
 BYTE   Dn1  v060
 BYTE   W06
 BYTE   Dn1  v127
 BYTE   N02  Gs1  v100
 BYTE   W12
// 012   ----------------------------------------
 BYTE   W96
// 013   ----------------------------------------
 BYTE   W96
// 014   ----------------------------------------
 BYTE   W96
// 015   ----------------------------------------
 BYTE   Fs1  v120
 BYTE   W12
 BYTE   Dn1  v048
 BYTE   N02  Gs1  v112
 BYTE   W06
 BYTE   Dn1  v064
 BYTE   W06
 BYTE   Dn1  v127
 BYTE   N02  Fs1  v120
 BYTE   W12
 BYTE   Cn1  v112
 BYTE   N02  Gs1  v076
 BYTE   W12
 BYTE   Cn2  v127
 BYTE   W06
 BYTE   Dn1  v048
 BYTE   W06
 BYTE   Gs1  v100
 BYTE   N02  Bn1  v096
 BYTE   W06
 BYTE   Dn1  v060
 BYTE   W06
 BYTE   Cn1  v104
 BYTE   N02  Bn1  v127
 BYTE   W06
 BYTE   Dn1  v076
 BYTE   W06
 BYTE   Dn1  v104
 BYTE   N02  Gs1
 BYTE   W06
 BYTE   Dn1  v127
 BYTE   W06
// 016   ----------------------------------------
 BYTE   W96
// 017   ----------------------------------------
 BYTE   W96
// 018   ----------------------------------------
 BYTE   Fs1  v120
 BYTE   W12
 BYTE   Gs1  v084
 BYTE   W06
 BYTE   Cn1  v120
 BYTE   W06
 BYTE   Dn1  v127
 BYTE   N02  Gs1  v116
 BYTE   W06
 BYTE   Dn1
 BYTE   W06
 BYTE   Dn1  v096
 BYTE   N02  Gs1  v088
 BYTE   W06
 BYTE   Dn1  v120
 BYTE   W06
 BYTE   Gs1  v116
 BYTE   N02  Cn2  v127
 BYTE   W06
 BYTE   Cn2  v112
 BYTE   W06
 BYTE   Gs1  v088
 BYTE   N02  Cn2  v096
 BYTE   W06
 BYTE   Cn2  v116
 BYTE   W06
 BYTE   Gs1  v120
 BYTE   N02  Bn1  v127
 BYTE   W06
 BYTE   Bn1  v112
 BYTE   W06
 BYTE   Cn1  v120
 BYTE   N02  Gs1  v100
 BYTE   N44  En2  v127
 BYTE   W12
// 019   ----------------------------------------
 BYTE   N02  Fs1  v120
 BYTE   W12
 BYTE   Cn1  v127
 BYTE   N02  Gs1  v084
 BYTE   W12
 BYTE   Dn1  v127
 BYTE   N02  Fs1  v116
 BYTE   W12
 BYTE   Gs1  v092
 BYTE   W06
 BYTE   Dn1  v116
 BYTE   W06
 BYTE   Dn1  v127
 BYTE   W03
 BYTE   Dn1  v108
 BYTE   W06
 BYTE   Dn1  v100
 BYTE   W03
 BYTE   Dn1  v127
 BYTE   N02  Gs1  v100
 BYTE   W03
 BYTE   Dn1  v124
 BYTE   W06
 BYTE   Dn1  v108
 BYTE   W03
 BYTE   Cn2  v127
 BYTE   W03
 BYTE   Cn2  v104
 BYTE   W06
 BYTE   Cn2  v127
 BYTE   W03
 BYTE   Gs1  v112
 BYTE   N02  Bn1  v116
 BYTE   W03
 BYTE   Bn1  v108
 BYTE   W03
 BYTE   Bn1  v116
 BYTE   W06
// 020   ----------------------------------------
 BYTE   W96
// 021   ----------------------------------------
 BYTE   W96
// 022   ----------------------------------------
 BYTE   W96
// 023   ----------------------------------------
 BYTE   W96
// 024   ----------------------------------------
 BYTE   W96
// 025   ----------------------------------------
 BYTE   W96
// 026   ----------------------------------------
 BYTE   W96
// 027   ----------------------------------------
 BYTE   Fs1  v120
 BYTE   W12
 BYTE   Cn1  v127
 BYTE   N02  Gs1  v084
 BYTE   W12
 BYTE   Gs1  v127
 BYTE   W06
 BYTE   Dn1
 BYTE   W06
 BYTE   Cn1
 BYTE   N02  Gs1  v108
 BYTE   W12
 BYTE   Dn1  v127
 BYTE   N02  Gs1
 BYTE   N44  En2
 BYTE   W06
 BYTE   N02  Cn1
 BYTE   W06
 BYTE   Gs1  v112
 BYTE   W06
 BYTE   Dn1  v127
 BYTE   W06
 BYTE   Cn1
 BYTE   N02  Gs1
 BYTE   W12
 BYTE   Cn1
 BYTE   N02  Dn1
 BYTE   N02  Gs1  v108
 BYTE   W12
// 028   ----------------------------------------
 BYTE   W96
// 029   ----------------------------------------
 BYTE   W96
// 030   ----------------------------------------
 BYTE   W96
// 031   ----------------------------------------
 BYTE   Fs1  v120
 BYTE   W12
 BYTE   Cn1  v127
 BYTE   N02  Gs1  v084
 BYTE   W12
 BYTE   Dn1  v120
 BYTE   N02  Gs1  v108
 BYTE   W12
 BYTE   Gs1  v084
 BYTE   W06
 BYTE   Dn1  v104
 BYTE   W06
 BYTE   Gs1  v112
 BYTE   W06
 BYTE   Dn1
 BYTE   W06
 BYTE   Cn1  v108
 BYTE   N02  Gs1  v084
 BYTE   W06
 BYTE   Dn1  v116
 BYTE   W06
 BYTE   Dn1  v064
 BYTE   N02  Gs1  v112
 BYTE   W06
 BYTE   Cn1  v104
 BYTE   W06
 BYTE   Dn1  v084
 BYTE   N02  Gs1
 BYTE   W06
 BYTE   Dn1  v108
 BYTE   W06
// 032   ----------------------------------------
 BYTE   W96
// 033   ----------------------------------------
 BYTE   W96
// 034   ----------------------------------------
 BYTE   W96
// 035   ----------------------------------------
Label_9_0102B6E4:
 BYTE   N02  Fs1  v120
 BYTE   W12
 BYTE   Cn1  v127
 BYTE   N02  Gs1  v084
 BYTE   W12
 BYTE   Dn1  v127
 BYTE   N02  Gs1  v116
 BYTE   W12
 BYTE   Gs1  v088
 BYTE   W06
 BYTE   Dn1  v112
 BYTE   W06
 BYTE   Gs1  v116
 BYTE   W06
 BYTE   Dn1  v084
 BYTE   W06
 BYTE   Dn1  v127
 BYTE   N02  Gs1  v084
 BYTE   W06
 BYTE   Cn1  v127
 BYTE   W06
 BYTE   N02
 BYTE   N02  Gs1  v116
 BYTE   W06
 BYTE   Dn1  v088
 BYTE   W06
 BYTE   Dn1  v124
 BYTE   N02  Gs1  v088
 BYTE   W06
 BYTE   Dn1  v127
 BYTE   W06
 BYTE   PEND 
// 036   ----------------------------------------
 BYTE   W96
// 037   ----------------------------------------
 BYTE   W96
// 038   ----------------------------------------
 BYTE   W96
// 039   ----------------------------------------
 BYTE   W96
// 040   ----------------------------------------
 BYTE   W96
// 041   ----------------------------------------
 BYTE   Fs1  v120
 BYTE   W12
 BYTE   Cn1  v127
 BYTE   N02  Gs1  v084
 BYTE   W12
 BYTE   Dn1  v127
 BYTE   N02  Gs1  v116
 BYTE   W12
 BYTE   Cn1  v127
 BYTE   N02  Gs1  v088
 BYTE   W06
 BYTE   Dn1  v127
 BYTE   W06
 BYTE   Gs1  v116
 BYTE   W06
 BYTE   Dn1  v084
 BYTE   W06
 BYTE   Dn1  v127
 BYTE   N02  Gs1  v084
 BYTE   W06
 BYTE   Cn1  v112
 BYTE   W06
 BYTE   Cn1  v127
 BYTE   N02  Gs1  v116
 BYTE   W06
 BYTE   Dn1  v088
 BYTE   W06
 BYTE   Dn1  v116
 BYTE   N02  Gs1  v088
 BYTE   W06
 BYTE   Dn1  v127
 BYTE   W06
// 042   ----------------------------------------
 BYTE   W96
// 043   ----------------------------------------
 BYTE   W96
// 044   ----------------------------------------
 BYTE   W96
// 045   ----------------------------------------
 BYTE   W96
// 046   ----------------------------------------
 BYTE   W96
// 047   ----------------------------------------
 BYTE   W96
// 048   ----------------------------------------
 BYTE   W96
// 049   ----------------------------------------
 BYTE   W96
// 050   ----------------------------------------
 BYTE   W96
// 051   ----------------------------------------
 BYTE   W96
// 052   ----------------------------------------
 BYTE   W96
 BYTE   PATT
  POIN2 Label_9_0102B6E4
// 053   ----------------------------------------
 BYTE   W96
// 054   ----------------------------------------
 BYTE   W48
 BYTE   N02  Cn2  v127
 BYTE   W06
 BYTE   Cn2  v112
 BYTE   W06
 BYTE   Cn2  v096
 BYTE   W06
 BYTE   Cn2  v116
 BYTE   W06
 BYTE   Bn1  v127
 BYTE   W06
 BYTE   Bn1  v112
 BYTE   W06
 BYTE   Bn1  v096
 BYTE   W06
 BYTE   Bn1  v116
 BYTE   W06
// 055   ----------------------------------------
 BYTE   W96
// 056   ----------------------------------------
 BYTE   W48
 BYTE   Cn2  v127
 BYTE   W06
 BYTE   Cn2  v112
 BYTE   W06
 BYTE   Cn2  v096
 BYTE   W06
 BYTE   Cn2  v116
 BYTE   W06
 BYTE   Bn1  v127
 BYTE   W06
 BYTE   Bn1  v112
 BYTE   W06
 BYTE   Bn1  v096
 BYTE   W06
 BYTE   Bn1  v116
 BYTE   W05
 BYTE   GoTo
  POIN2 Label_9_0102B55A
 BYTE   FINE

//**************** Track 11 (Midi-Chn.10) ****************//

song25_011:
// 000   ----------------------------------------
 BYTE   VOL   47*song25_mvl/mxv
 BYTE   KEYSH   song25_key+0
Label_10_0102B7A8:
 BYTE   VOICE   124
 BYTE   W96
// 001   ----------------------------------------
 BYTE   W96
// 002   ----------------------------------------
 BYTE   W96
// 003   ----------------------------------------
 BYTE   W96
// 004   ----------------------------------------
Label_10_0102B7AE:
 BYTE   N02  Cn1  v127
 BYTE   N02  Fs1
 BYTE   N44  Cs2
 BYTE   W12
 BYTE   N02  Gs1  v104
 BYTE   W12
 BYTE   Dn1  v127
 BYTE   N02  Fs1
 BYTE   W12
 BYTE   Cn1
 BYTE   N02  Gs1  v108
 BYTE   W12
 BYTE   Fs1  v127
 BYTE   W12
 BYTE   Gs1  v108
 BYTE   W12
 BYTE   Dn1  v127
 BYTE   N02  Fs1
 BYTE   W12
 BYTE   Cn1  v108
 BYTE   N02  Gs1  v120
 BYTE   W12
 BYTE   PEND 
// 005   ----------------------------------------
Label_10_0102B7D6:
 BYTE   N02  Fs1  v127
 BYTE   W12
 BYTE   Cn1
 BYTE   N02  Gs1  v104
 BYTE   W12
 BYTE   Dn1  v127
 BYTE   N02  Fs1
 BYTE   W12
 BYTE   Gs1  v108
 BYTE   W12
 BYTE   Fs1  v127
 BYTE   W12
 BYTE   Cn1  v120
 BYTE   N02  Gs1  v108
 BYTE   W12
 BYTE   Dn1  v127
 BYTE   N02  Fs1
 BYTE   W12
 BYTE   Cn1  v112
 BYTE   N02  Gs1  v120
 BYTE   W12
 BYTE   PEND 
// 006   ----------------------------------------
Label_10_0102B7FC:
 BYTE   N02  Cn1  v127
 BYTE   N02  Fs1
 BYTE   W12
 BYTE   Gs1  v104
 BYTE   W12
 BYTE   Dn1  v127
 BYTE   N02  Fs1
 BYTE   W12
 BYTE   Cn1
 BYTE   N02  Gs1  v108
 BYTE   W12
 BYTE   Fs1  v127
 BYTE   W12
 BYTE   Gs1  v108
 BYTE   W12
 BYTE   Dn1  v127
 BYTE   N02  Fs1
 BYTE   W12
 BYTE   Cn1  v108
 BYTE   N02  Gs1  v120
 BYTE   W12
 BYTE   PEND 
// 007   ----------------------------------------
Label_10_0102B821:
 BYTE   N02  Fs1  v127
 BYTE   W12
 BYTE   Cn1
 BYTE   N02  Gs1  v104
 BYTE   W12
 BYTE   Dn1  v127
 BYTE   N02  Fs1
 BYTE   W12
 BYTE   Gs1  v108
 BYTE   W12
 BYTE   Fs1  v127
 BYTE   W12
 BYTE   Cn1
 BYTE   N02  Gs1  v108
 BYTE   W12
 BYTE   Dn1  v127
 BYTE   N02  Fs1
 BYTE   W12
 BYTE   Gs1  v120
 BYTE   W12
 BYTE   PEND 
 BYTE   PATT
  POIN2 Label_10_0102B7AE
 BYTE   PATT
  POIN2 Label_10_0102B7D6
 BYTE   PATT
  POIN2 Label_10_0102B7FC
// 008   ----------------------------------------
 BYTE   W96
// 009   ----------------------------------------
 BYTE   N02  Cn1  v127
 BYTE   N02  Fs1
 BYTE   N44  Cs2  v120
 BYTE   W12
 BYTE   N02  Gs1  v104
 BYTE   W12
 BYTE   Dn1  v127
 BYTE   N02  Fs1
 BYTE   W12
 BYTE   Cn1
 BYTE   N02  Gs1  v108
 BYTE   W12
 BYTE   Fs1  v127
 BYTE   W12
 BYTE   Gs1  v108
 BYTE   W12
 BYTE   Dn1  v127
 BYTE   N02  Fs1
 BYTE   W12
 BYTE   Cn1  v108
 BYTE   N02  Gs1  v120
 BYTE   W12
 BYTE   PATT
  POIN2 Label_10_0102B7D6
 BYTE   PATT
  POIN2 Label_10_0102B7FC
// 010   ----------------------------------------
 BYTE   W96
// 011   ----------------------------------------
 BYTE   N02  Cn1  v127
 BYTE   N02  Fs1
 BYTE   N44  Cs2  v096
 BYTE   W12
 BYTE   N02  Gs1  v104
 BYTE   W12
 BYTE   Dn1  v127
 BYTE   N02  Fs1
 BYTE   W12
 BYTE   Cn1
 BYTE   N02  Gs1  v108
 BYTE   W12
 BYTE   Fs1  v127
 BYTE   W12
 BYTE   Gs1  v108
 BYTE   W12
 BYTE   Dn1  v127
 BYTE   N02  Fs1
 BYTE   W12
 BYTE   Cn1  v108
 BYTE   N02  Gs1  v120
 BYTE   W12
// 012   ----------------------------------------
 BYTE   Fs1  v127
 BYTE   W12
 BYTE   Cn1
 BYTE   N02  Gs1  v104
 BYTE   W12
 BYTE   Dn1  v127
 BYTE   N02  Fs1
 BYTE   W12
 BYTE   Gs1  v108
 BYTE   W12
 BYTE   Fs1  v127
 BYTE   W12
 BYTE   Cn1  v120
 BYTE   N02  Gs1  v108
 BYTE   W12
 BYTE   Dn1  v127
 BYTE   N02  Fs1
 BYTE   W11
 BYTE   N44  En2  v112
 BYTE   W01
 BYTE   N02  Cn1
 BYTE   N02  Gs1  v120
 BYTE   W12
// 013   ----------------------------------------
 BYTE   Cn1  v127
 BYTE   N02  Fs1
 BYTE   N02  Fs2  v112
 BYTE   W96
// 014   ----------------------------------------
 BYTE   W96
 BYTE   PATT
  POIN2 Label_10_0102B7AE
 BYTE   PATT
  POIN2 Label_10_0102B7D6
 BYTE   PATT
  POIN2 Label_10_0102B7FC
 BYTE   PATT
  POIN2 Label_10_0102B821
 BYTE   PATT
  POIN2 Label_10_0102B7FC
 BYTE   PATT
  POIN2 Label_10_0102B7D6
 BYTE   PATT
  POIN2 Label_10_0102B7FC
// 015   ----------------------------------------
 BYTE   W96
 BYTE   PATT
  POIN2 Label_10_0102B7AE
 BYTE   PATT
  POIN2 Label_10_0102B7D6
 BYTE   PATT
  POIN2 Label_10_0102B7FC
// 016   ----------------------------------------
 BYTE   W96
 BYTE   PATT
  POIN2 Label_10_0102B7FC
 BYTE   PATT
  POIN2 Label_10_0102B7D6
 BYTE   PATT
  POIN2 Label_10_0102B7FC
// 017   ----------------------------------------
 BYTE   W96
// 018   ----------------------------------------
 BYTE   W96
// 019   ----------------------------------------
 BYTE   W96
// 020   ----------------------------------------
 BYTE   W96
// 021   ----------------------------------------
 BYTE   W96
// 022   ----------------------------------------
 BYTE   W96
// 023   ----------------------------------------
 BYTE   W96
// 024   ----------------------------------------
 BYTE   W96
// 025   ----------------------------------------
 BYTE   W96
// 026   ----------------------------------------
 BYTE   W96
// 027   ----------------------------------------
 BYTE   W96
// 028   ----------------------------------------
 BYTE   W96
// 029   ----------------------------------------
 BYTE   W96
// 030   ----------------------------------------
 BYTE   W96
// 031   ----------------------------------------
 BYTE   W96
// 032   ----------------------------------------
 BYTE   W96
// 033   ----------------------------------------
 BYTE   W96
// 034   ----------------------------------------
 BYTE   W96
// 035   ----------------------------------------
 BYTE   W96
// 036   ----------------------------------------
 BYTE   W96
// 037   ----------------------------------------
 BYTE   W96
// 038   ----------------------------------------
 BYTE   W96
// 039   ----------------------------------------
 BYTE   W92
 BYTE   W03
 BYTE   GoTo
  POIN2 Label_10_0102B7A8
 BYTE   FINE

//**************** Track 12 (Midi-Chn.11) ****************//

song25_012:
// 000   ----------------------------------------
 BYTE   VOL   47*song25_mvl/mxv
 BYTE   KEYSH   song25_key+0
Label_11_0102B944:
 BYTE   VOICE   124
 BYTE   W96
// 001   ----------------------------------------
 BYTE   W96
// 002   ----------------------------------------
 BYTE   W96
// 003   ----------------------------------------
 BYTE   W96
// 004   ----------------------------------------
 BYTE   W96
// 005   ----------------------------------------
 BYTE   W96
// 006   ----------------------------------------
 BYTE   W96
// 007   ----------------------------------------
 BYTE   W96
// 008   ----------------------------------------
 BYTE   W96
// 009   ----------------------------------------
 BYTE   W96
// 010   ----------------------------------------
 BYTE   W96
// 011   ----------------------------------------
 BYTE   W96
// 012   ----------------------------------------
 BYTE   W96
// 013   ----------------------------------------
 BYTE   W96
// 014   ----------------------------------------
 BYTE   W96
// 015   ----------------------------------------
 BYTE   W96
// 016   ----------------------------------------
 BYTE   W96
// 017   ----------------------------------------
 BYTE   W96
// 018   ----------------------------------------
 BYTE   W96
// 019   ----------------------------------------
 BYTE   W96
// 020   ----------------------------------------
 BYTE   W96
// 021   ----------------------------------------
 BYTE   W96
// 022   ----------------------------------------
 BYTE   W96
// 023   ----------------------------------------
 BYTE   W96
// 024   ----------------------------------------
 BYTE   W96
// 025   ----------------------------------------
 BYTE   W96
// 026   ----------------------------------------
 BYTE   W96
// 027   ----------------------------------------
 BYTE   W96
// 028   ----------------------------------------
 BYTE   W96
// 029   ----------------------------------------
 BYTE   W96
// 030   ----------------------------------------
 BYTE   W96
// 031   ----------------------------------------
 BYTE   W96
// 032   ----------------------------------------
 BYTE   W96
// 033   ----------------------------------------
 BYTE   W96
// 034   ----------------------------------------
 BYTE   W96
// 035   ----------------------------------------
 BYTE   W96
// 036   ----------------------------------------
Label_11_0102B96A:
 BYTE   N05  Cn1  v112
 BYTE   N05  Gs1  v116
 BYTE   N44  En2  v096
 BYTE   W06
 BYTE   N05  Dn1  v072
 BYTE   W06
 BYTE   Cn1  v088
 BYTE   N05  Gs1  v084
 BYTE   W06
 BYTE   Dn1  v068
 BYTE   W06
 BYTE   Dn1  v127
 BYTE   N05  Gs1  v116
 BYTE   W12
 BYTE   Cn1  v108
 BYTE   N05  Gs1  v088
 BYTE   W06
 BYTE   Dn1  v056
 BYTE   W06
 BYTE   Gs1  v116
 BYTE   W06
 BYTE   Dn1  v084
 BYTE   W06
 BYTE   Gs1
 BYTE   N05  Bn1  v072
 BYTE   W06
 BYTE   Bn1  v108
 BYTE   W06
 BYTE   Dn1  v120
 BYTE   N05  Gs1  v116
 BYTE   W12
 BYTE   Cn1  v112
 BYTE   N05  Gs1  v088
 BYTE   W06
 BYTE   Dn1  v076
 BYTE   W06
 BYTE   PEND 
// 037   ----------------------------------------
Label_11_0102B9AE:
 BYTE   N05  Cn1  v112
 BYTE   N05  Gs1  v116
 BYTE   W06
 BYTE   Dn1  v060
 BYTE   W06
 BYTE   Cn1  v088
 BYTE   N05  Gs1  v084
 BYTE   W06
 BYTE   Cn1  v092
 BYTE   N05  Dn1  v068
 BYTE   W06
 BYTE   Dn1  v127
 BYTE   N05  Gs1  v116
 BYTE   W12
 BYTE   Cn1  v108
 BYTE   N05  Gs1  v088
 BYTE   W06
 BYTE   Dn1  v056
 BYTE   W06
 BYTE   Gs1  v116
 BYTE   W06
 BYTE   Dn1  v076
 BYTE   W06
 BYTE   Gn1  v072
 BYTE   N05  Gs1  v084
 BYTE   W06
 BYTE   Gn1  v100
 BYTE   W06
 BYTE   Dn1  v120
 BYTE   N05  Gs1  v116
 BYTE   W12
 BYTE   Cn1  v112
 BYTE   N05  Gs1  v088
 BYTE   W06
 BYTE   Dn1  v060
 BYTE   W06
 BYTE   PEND 
 BYTE   PATT
  POIN2 Label_11_0102B96A
 BYTE   PATT
  POIN2 Label_11_0102B9AE
// 038   ----------------------------------------
 BYTE   N05  Cn1  v116
 BYTE   N05  Gs1
 BYTE   N44  En2  v096
 BYTE   W06
 BYTE   N05  Dn1  v076
 BYTE   W06
 BYTE   Cn1  v060
 BYTE   N05  Gs1  v084
 BYTE   W06
 BYTE   Dn1  v064
 BYTE   W06
 BYTE   Dn1  v127
 BYTE   N05  Gs1  v116
 BYTE   W06
 BYTE   Dn1  v076
 BYTE   W06
 BYTE   Cn1  v104
 BYTE   N05  Gs1  v088
 BYTE   W06
 BYTE   Cn1  v068
 BYTE   W06
 BYTE   Gs1  v116
 BYTE   W06
 BYTE   Dn1  v076
 BYTE   W06
 BYTE   Gs1  v084
 BYTE   N06  Cn2  v072
 BYTE   W06
 BYTE   N40  Cn2  v108
 BYTE   W06
 BYTE   N05  Dn1  v124
 BYTE   N05  Gs1  v116
 BYTE   W06
 BYTE   Dn1  v127
 BYTE   W06
 BYTE   Cn1  v096
 BYTE   N05  Gs1  v088
 BYTE   W06
 BYTE   Dn1  v076
 BYTE   W06
// 039   ----------------------------------------
 BYTE   W96
 BYTE   PATT
  POIN2 Label_11_0102B96A
 BYTE   PATT
  POIN2 Label_11_0102B9AE
 BYTE   PATT
  POIN2 Label_11_0102B96A
 BYTE   PATT
  POIN2 Label_11_0102B9AE
 BYTE   PATT
  POIN2 Label_11_0102B96A
// 040   ----------------------------------------
Label_11_0102BA61:
 BYTE   N05  Gs1  v116
 BYTE   W06
 BYTE   Dn1  v060
 BYTE   W06
 BYTE   Cn1  v088
 BYTE   N05  Gs1  v084
 BYTE   W06
 BYTE   Cn1  v092
 BYTE   N05  Dn1  v068
 BYTE   W06
 BYTE   Dn1  v127
 BYTE   N05  Gs1  v116
 BYTE   W12
 BYTE   Cn1  v108
 BYTE   N05  Gs1  v088
 BYTE   W06
 BYTE   Dn1  v056
 BYTE   W06
 BYTE   Gs1  v116
 BYTE   W06
 BYTE   Dn1  v076
 BYTE   W06
 BYTE   Gn1  v072
 BYTE   N05  Gs1  v084
 BYTE   W06
 BYTE   Gn1  v100
 BYTE   W06
 BYTE   Dn1  v120
 BYTE   N05  Gs1  v116
 BYTE   W12
 BYTE   Cn1  v112
 BYTE   N05  Gs1  v088
 BYTE   W06
 BYTE   Dn1  v060
 BYTE   W06
 BYTE   PEND 
 BYTE   PATT
  POIN2 Label_11_0102B96A
 BYTE   PATT
  POIN2 Label_11_0102BA61
// 041   ----------------------------------------
Label_11_0102BAAC:
 BYTE   N05  Cn1  v112
 BYTE   N05  Gs1  v116
 BYTE   W06
 BYTE   Dn1  v072
 BYTE   W06
 BYTE   Cn1  v088
 BYTE   N05  Gs1  v084
 BYTE   W06
 BYTE   Dn1  v068
 BYTE   W06
 BYTE   Dn1  v127
 BYTE   N05  Gs1  v116
 BYTE   W12
 BYTE   Cn1  v108
 BYTE   N05  Gs1  v088
 BYTE   W06
 BYTE   Dn1  v056
 BYTE   W06
 BYTE   Gs1  v116
 BYTE   W06
 BYTE   Dn1  v084
 BYTE   W06
 BYTE   Gs1
 BYTE   N05  Bn1  v072
 BYTE   W06
 BYTE   Bn1  v108
 BYTE   W06
 BYTE   Dn1  v120
 BYTE   N05  Gs1  v116
 BYTE   W12
 BYTE   Cn1  v112
 BYTE   N05  Gs1  v088
 BYTE   W06
 BYTE   Dn1  v076
 BYTE   W06
 BYTE   PEND 
 BYTE   PATT
  POIN2 Label_11_0102BA61
 BYTE   PATT
  POIN2 Label_11_0102BAAC
// 042   ----------------------------------------
 BYTE   N05  Cn1  v112
 BYTE   N05  Gs1  v116
 BYTE   W96
// 043   ----------------------------------------
 BYTE   W96
// 044   ----------------------------------------
 BYTE   W96
// 045   ----------------------------------------
 BYTE   W96
// 046   ----------------------------------------
 BYTE   W92
 BYTE   W03
 BYTE   GoTo
  POIN2 Label_11_0102B944
 BYTE   FINE

//**************** Track 13 (Midi-Chn.12) ****************//

song25_013:
// 000   ----------------------------------------
 BYTE   VOL   47*song25_mvl/mxv
 BYTE   KEYSH   song25_key+0
Label_12_0102BB0C:
 BYTE   VOICE   124
 BYTE   N02  Cn1  v064
 BYTE   N02  Gs1  v127
 BYTE   N44  En2  v108
 BYTE   W24
 BYTE   N02  Gs1  v120
 BYTE   W24
 BYTE   N02
 BYTE   W24
 BYTE   Gs1  v124
 BYTE   W24
// 001   ----------------------------------------
 BYTE   Gs1  v127
 BYTE   W24
 BYTE   Gs1  v120
 BYTE   W24
 BYTE   N02
 BYTE   W24
 BYTE   Gs1  v124
 BYTE   W18
 BYTE   Cn1  v060
 BYTE   W06
// 002   ----------------------------------------
 BYTE   Cn1  v092
 BYTE   N02  Gs1  v127
 BYTE   N44  En2  v108
 BYTE   W24
 BYTE   N02  Gs1  v120
 BYTE   W24
 BYTE   N02
 BYTE   W24
 BYTE   Gs1  v124
 BYTE   W24
// 003   ----------------------------------------
 BYTE   Gs1  v127
 BYTE   W24
 BYTE   Gs1  v120
 BYTE   W72
// 004   ----------------------------------------
 BYTE   W96
// 005   ----------------------------------------
 BYTE   W96
// 006   ----------------------------------------
 BYTE   W96
// 007   ----------------------------------------
 BYTE   W96
// 008   ----------------------------------------
 BYTE   W96
// 009   ----------------------------------------
 BYTE   W96
// 010   ----------------------------------------
 BYTE   W96
// 011   ----------------------------------------
 BYTE   W96
// 012   ----------------------------------------
 BYTE   W96
// 013   ----------------------------------------
 BYTE   W96
// 014   ----------------------------------------
 BYTE   W96
// 015   ----------------------------------------
 BYTE   W96
// 016   ----------------------------------------
 BYTE   W96
// 017   ----------------------------------------
 BYTE   W96
// 018   ----------------------------------------
 BYTE   W96
// 019   ----------------------------------------
 BYTE   W96
// 020   ----------------------------------------
 BYTE   W96
// 021   ----------------------------------------
 BYTE   W96
// 022   ----------------------------------------
 BYTE   W96
// 023   ----------------------------------------
 BYTE   W96
// 024   ----------------------------------------
 BYTE   W96
// 025   ----------------------------------------
 BYTE   W96
// 026   ----------------------------------------
 BYTE   W96
// 027   ----------------------------------------
 BYTE   W96
// 028   ----------------------------------------
 BYTE   W96
// 029   ----------------------------------------
 BYTE   W96
// 030   ----------------------------------------
 BYTE   W96
// 031   ----------------------------------------
 BYTE   W96
// 032   ----------------------------------------
 BYTE   W96
// 033   ----------------------------------------
 BYTE   W96
// 034   ----------------------------------------
 BYTE   W96
// 035   ----------------------------------------
 BYTE   W96
// 036   ----------------------------------------
 BYTE   W96
// 037   ----------------------------------------
 BYTE   W96
// 038   ----------------------------------------
 BYTE   W96
// 039   ----------------------------------------
 BYTE   W96
// 040   ----------------------------------------
 BYTE   W96
// 041   ----------------------------------------
 BYTE   W96
// 042   ----------------------------------------
 BYTE   W96
// 043   ----------------------------------------
 BYTE   W96
// 044   ----------------------------------------
 BYTE   W96
// 045   ----------------------------------------
 BYTE   W96
// 046   ----------------------------------------
 BYTE   W96
// 047   ----------------------------------------
 BYTE   W96
// 048   ----------------------------------------
 BYTE   W96
// 049   ----------------------------------------
 BYTE   W96
// 050   ----------------------------------------
 BYTE   W96
// 051   ----------------------------------------
 BYTE   W96
// 052   ----------------------------------------
 BYTE   W96
// 053   ----------------------------------------
 BYTE   W96
// 054   ----------------------------------------
Label_12_0102BB79:
 BYTE   N02  Cn1  v064
 BYTE   N02  Gs1  v127
 BYTE   N02  En2  v108
 BYTE   W24
 BYTE   Gs1  v127
 BYTE   W24
 BYTE   N02
 BYTE   W24
 BYTE   N02
 BYTE   W24
 BYTE   PEND 
// 055   ----------------------------------------
 BYTE   N02
 BYTE   W96
 BYTE   PATT
  POIN2 Label_12_0102BB79
// 056   ----------------------------------------
 BYTE   N02  Gs1  v127
 BYTE   W92
 BYTE   W03
 BYTE   GoTo
  POIN2 Label_12_0102BB0C
 BYTE   FINE

//******************************************************//
	ALIGN 4

song25:
	BYTE	13	// NumTrks
	BYTE	0	// NumBlks
	BYTE	song25_pri	// Priority
	BYTE	song25_rev	// Reverb.
    
	POIN2	song25_grp
    
	POIN2	song25_001
	POIN2	song25_002
	POIN2	song25_003
	POIN2	song25_004
	POIN2	song25_005
	POIN2	song25_006
	POIN2	song25_007
	POIN2	song25_008
	POIN2	song25_009
	POIN2	song25_010
	POIN2	song25_011
	POIN2	song25_012
	POIN2	song25_013

	
