//Event file generated from Sappy .s format.
	#include "MPlayDef.event"

	#define	SteelCockpit0_grp  voicegroup000
	#define	SteelCockpit0_pri  0
	#define	SteelCockpit0_rev  0
	#define	SteelCockpit0_mvl  127
	#define	SteelCockpit0_key  0
	#define	SteelCockpit0_tbs  1
	#define	SteelCockpit0_exg  0
	#define	SteelCockpit0_cmp  1

	// .rodata
	//	SteelCockpit0
	ALIGN 4

//**************** Track 1 (Midi-Chn.2) ****************//

SteelCockpit0_1:
	BYTE	KEYSH   SteelCockpit0_key+0
// 000   ----------------------------------------
	BYTE	TEMPO   138*SteelCockpit0_tbs/2
	BYTE		VOICE   28
	BYTE		VOL     8*SteelCockpit0_mvl/mxv
	BYTE	W01
	BYTE		PAN     c_v+24
	BYTE	W01
	BYTE		BEND    c_v+0
	BYTE	W10
	BYTE	TEMPO   138*SteelCockpit0_tbs/2
	BYTE	W32
	BYTE	W03
	BYTE		N09     Gn1   v104
	BYTE		N09     As1   v092
	BYTE	W01
	BYTE		        Dn2 
	BYTE		N09     Gn2 
	BYTE	W01
	BYTE		        Dn3 
	BYTE		N14     Gn3 
	BYTE	W10
	BYTE		N09     Gn1   v104
	BYTE		N09     As1   v092
	BYTE	W01
	BYTE		N05     Dn5   v104
	BYTE		N04     Gn5 
	BYTE	W01
	BYTE		N02     Dn6 
	BYTE	W04
	BYTE		N05   
	BYTE		N05     Gn6   v116
	BYTE	W01
	BYTE		N03     Gn5   v104
	BYTE	W01
	BYTE		N02     Dn5 
	BYTE	W04
	BYTE		N09     Gn1 
	BYTE		N09     As1   v092
	BYTE	W01
	BYTE		        Dn2 
	BYTE		N09     Gn2 
	BYTE	W01
	BYTE		        Dn3 
	BYTE		N14     Gn3 
	BYTE	W10
	BYTE		N10     Gn1   v104
	BYTE		N10     As1   v092
	BYTE	W01
	BYTE		N05     Dn5   v104
	BYTE		N04     Gn5 
	BYTE	W01
	BYTE		N02     Dn6 
	BYTE	W04
	BYTE		N05   
	BYTE		N05     Gn6   v116
	BYTE	W01
	BYTE		N04     Gn5   v104
	BYTE	W01
	BYTE		N03     Dn5 
	BYTE	W04
	BYTE		N09     Fn1 
	BYTE		N09     As1   v092
	BYTE	W01
// 001   ----------------------------------------
SteelCockpit0_1_001:
	BYTE		N09     Dn2   v092
	BYTE		N09     As2 
	BYTE	W01
	BYTE		N14     Fn3 
	BYTE	W10
	BYTE		N09     Fn1   v104
	BYTE		N09     As1   v092
	BYTE	W01
	BYTE		N05     Dn5   v104
	BYTE		N04     As5 
	BYTE	W05
	BYTE		N05     Fn6   v116
	BYTE	W01
	BYTE		N03     As5   v104
	BYTE	W01
	BYTE		N02     Dn5 
	BYTE	W04
	BYTE		N09     Fn1 
	BYTE		N09     As1   v092
	BYTE	W01
	BYTE		        Dn2 
	BYTE		N09     As2 
	BYTE	W01
	BYTE		N14     Fn3 
	BYTE	W10
	BYTE		N10     Fn1   v104
	BYTE		N10     As1   v092
	BYTE	W01
	BYTE		N05     Dn5   v104
	BYTE		N04     As5 
	BYTE	W05
	BYTE		N05     Fn6   v116
	BYTE	W01
	BYTE		N04     As5   v104
	BYTE	W01
	BYTE		N03     Dn5 
	BYTE	W04
	BYTE		N09     En1 
	BYTE		N09     Cn2   v092
	BYTE	W01
	BYTE		        Gn2 
	BYTE	W01
	BYTE		        Cn3 
	BYTE		N14     En3 
	BYTE	W10
	BYTE		N09     En1   v104
	BYTE		N09     Cn2   v092
	BYTE	W01
	BYTE		N04     Gn5   v104
	BYTE	W01
	BYTE		N02     Cn6 
	BYTE	W04
	BYTE		N05   
	BYTE		N05     En6   v116
	BYTE	W01
	BYTE		N03     Gn5   v104
	BYTE	W05
	BYTE		N09     En1 
	BYTE		N09     Cn2   v092
	BYTE	W01
	BYTE		N15     Gn2 
	BYTE	W01
	BYTE		        Cn3 
	BYTE		N14     En3 
	BYTE	W10
	BYTE		N21     En1   v104
	BYTE		N21     Cn2   v092
	BYTE	W06
	BYTE		N09     Cn3 
	BYTE		N09     En3   v104
	BYTE	W01
	BYTE		        Gn2   v092
	BYTE	W06
	BYTE	PEND
// 002   ----------------------------------------
	BYTE	W05
	BYTE		N15     Cn3 
	BYTE		N15     En3   v104
	BYTE	W01
	BYTE		N04     Gn5 
	BYTE	W01
	BYTE		N02     En5 
	BYTE	W04
	BYTE		N09     En1 
	BYTE		N10     Cn2   v092
	BYTE	W01
	BYTE		N09     En2 
	BYTE	W01
	BYTE		N14     Gn2 
	BYTE	W10
	BYTE		N09     En1   v104
	BYTE	W01
	BYTE		N04     Cn5 
	BYTE		N04     En5 
	BYTE	W05
	BYTE		N09     Gn2 
	BYTE	W01
	BYTE		N03     Cn5 
	BYTE		N04     En5 
	BYTE	W05
	BYTE		N09     En1 
	BYTE	W01
	BYTE		N05     Cn5 
	BYTE	W01
	BYTE		N03     En5 
	BYTE	W04
	BYTE		        Gn5   v116
	BYTE	W01
	BYTE		N02     En5   v104
	BYTE	W01
	BYTE		N01     Cn5 
	BYTE	W05
SteelCockpit0_1_B1:
	BYTE		N09     An1   v104
	BYTE		N09     En2   v092
	BYTE		N09     Gn2 
	BYTE		N09     Cs3 
	BYTE	W01
	BYTE		N14     En3 
	BYTE	W10
	BYTE		N09     An1   v104
	BYTE		N09     En2   v092
	BYTE	W01
	BYTE		N05     Gn5   v104
	BYTE		N04     Cs6 
	BYTE	W05
	BYTE		N05     En6   v116
	BYTE	W01
	BYTE		N03     Cs6   v104
	BYTE	W01
	BYTE		N02     Gn5 
	BYTE	W04
	BYTE		N09     An1 
	BYTE		N09     En2   v092
	BYTE	W01
	BYTE		        Gn2 
	BYTE		N09     Cs3 
	BYTE	W01
	BYTE		N14     En3 
	BYTE	W10
	BYTE		N21     An1   v104
	BYTE		N21     En2   v092
	BYTE	W01
	BYTE		N05     Gn5   v104
	BYTE		N04     Cs6 
	BYTE	W05
	BYTE		N09     En3 
	BYTE	W01
	BYTE		        Cs3   v092
	BYTE	W01
	BYTE		        Gn2 
	BYTE	W05
// 003   ----------------------------------------
	BYTE	W05
	BYTE		N15     En3   v104
	BYTE	W01
	BYTE		N04     Cs6 
	BYTE	W01
	BYTE		N02     Gn5 
	BYTE	W04
	BYTE		N09     An1 
	BYTE		N10     En2   v092
	BYTE	W01
	BYTE		N09     Gn2 
	BYTE	W01
	BYTE		N14     Cs3 
	BYTE	W10
	BYTE		N09     An1   v104
	BYTE	W01
	BYTE		N04     En5 
	BYTE		N04     Gn5 
	BYTE	W05
	BYTE		N09     Cs3 
	BYTE	W01
	BYTE		N03     En5 
	BYTE		N04     Gn5 
	BYTE	W05
	BYTE		N09     An1 
	BYTE	W01
	BYTE		N05     En5 
	BYTE	W01
	BYTE		N03     Gn5 
	BYTE	W04
	BYTE		        Cs6   v116
	BYTE	W01
	BYTE		N02     Gn5   v104
	BYTE	W01
	BYTE		N01     En5 
	BYTE	W04
	BYTE		N09     An1 
	BYTE		N09     Dn2   v092
	BYTE	W01
	BYTE		        An2 
	BYTE		N09     Cn3 
	BYTE	W01
	BYTE		N14     Fs3 
	BYTE	W10
	BYTE		N09     An1   v104
	BYTE		N09     Dn2   v092
	BYTE	W01
	BYTE		N05     An5   v104
	BYTE		N04     Cn6 
	BYTE	W05
	BYTE		N05     Fs6   v116
	BYTE	W01
	BYTE		N03     Cn6   v104
	BYTE	W01
	BYTE		N02     An5 
	BYTE	W04
	BYTE		N09     An1 
	BYTE		N09     Cs2   v092
	BYTE	W01
	BYTE		        An2 
	BYTE		N09     Cs3 
	BYTE	W01
	BYTE		N14     En3 
	BYTE	W10
	BYTE		N21     An1   v104
	BYTE		N21     Cs2   v092
	BYTE	W01
	BYTE		N05     An5   v104
	BYTE		N04     Cs6 
	BYTE	W05
	BYTE		N09     En3 
	BYTE	W01
	BYTE		        Cs3   v092
	BYTE	W01
	BYTE		        An2 
	BYTE	W05
// 004   ----------------------------------------
	BYTE	W05
	BYTE		N15     Fs3   v104
	BYTE	W01
	BYTE		N04     Cn6 
	BYTE	W01
	BYTE		N02     An5 
	BYTE	W04
	BYTE		N09     An1 
	BYTE		N10     Dn2   v092
	BYTE	W01
	BYTE		N09     An2 
	BYTE	W01
	BYTE		N14     Cn3 
	BYTE	W10
	BYTE		N09     An1   v104
	BYTE	W01
	BYTE		N04     Dn5 
	BYTE		N04     An5 
	BYTE	W05
	BYTE		N09     Cn3 
	BYTE	W01
	BYTE		N03     Dn5 
	BYTE		N04     An5 
	BYTE	W05
	BYTE		N09     An1 
	BYTE	W01
	BYTE		N05     Dn5 
	BYTE	W01
	BYTE		N03     An5 
	BYTE	W04
	BYTE		        Cn6   v116
	BYTE	W01
	BYTE		N02     An5   v104
	BYTE	W01
	BYTE		N01     Dn5 
	BYTE	W04
	BYTE		N10     Gn1 
	BYTE		N10     As1   v092
	BYTE	W01
	BYTE		        Dn2 
	BYTE		N10     Gn2 
	BYTE	W01
	BYTE		        Dn3 
	BYTE	W10
	BYTE		        Gn1   v104
	BYTE		N10     As1   v092
	BYTE	W01
	BYTE		N06     Dn5   v104
	BYTE		N05     Gn5 
	BYTE	W01
	BYTE		N03     Dn6 
	BYTE	W04
	BYTE		N06   
	BYTE	W01
	BYTE		N04     Gn5 
	BYTE	W01
	BYTE		N03     Dn5 
	BYTE	W04
	BYTE		N10     Gn1 
	BYTE		N10     As1   v092
	BYTE	W01
	BYTE		        Dn2 
	BYTE		N10     Gn2 
	BYTE	W01
	BYTE		        Dn3 
	BYTE	W10
	BYTE		N22     Gn1   v104
	BYTE		N22     As1   v092
	BYTE	W01
	BYTE		N06     Dn5   v104
	BYTE		N05     Gn5 
	BYTE	W01
	BYTE		N03     Dn6 
	BYTE	W04
	BYTE		N10     Dn3   v092
	BYTE	W01
	BYTE		        Gn2 
	BYTE	W01
	BYTE		        Dn2 
	BYTE	W05
// 005   ----------------------------------------
	BYTE	W05
	BYTE		N16     Dn3 
	BYTE	W01
	BYTE		N05     Gn5   v104
	BYTE	W01
	BYTE		N03     Dn5 
	BYTE	W04
	BYTE		N10     Gn1 
	BYTE		N11     As1   v092
	BYTE	W01
	BYTE		N10     Dn2 
	BYTE	W01
	BYTE		N15     Gn2 
	BYTE	W10
	BYTE		N10     Gn1   v104
	BYTE	W01
	BYTE		N05     As4 
	BYTE		N05     Dn5 
	BYTE	W05
	BYTE		N10     Gn2   v096
	BYTE	W01
	BYTE		N04     As4   v104
	BYTE		N05     Dn5 
	BYTE	W05
	BYTE		N10     Gn1 
	BYTE	W01
	BYTE		N06     As4 
	BYTE	W01
	BYTE		N04     Dn5 
	BYTE	W04
	BYTE		        Gn5   v108
	BYTE	W01
	BYTE		N03     Dn5   v104
	BYTE	W01
	BYTE		N02     As4 
	BYTE	W04
	BYTE		N10     Gn1 
	BYTE		N10     As1   v092
	BYTE	W01
	BYTE		        Dn2 
	BYTE		N10     Gn2 
	BYTE	W01
	BYTE		        Dn3 
	BYTE	W10
	BYTE		        Gn1   v104
	BYTE		N10     As1   v092
	BYTE	W01
	BYTE		N06     Dn5   v104
	BYTE		N05     Gn5 
	BYTE	W01
	BYTE		N03     Dn6 
	BYTE	W04
	BYTE		N06   
	BYTE	W01
	BYTE		N04     Gn5 
	BYTE	W01
	BYTE		N03     Dn5 
	BYTE	W04
	BYTE		N10     Gn1 
	BYTE		N10     As1   v092
	BYTE	W01
	BYTE		        Dn2 
	BYTE		N10     Gn2 
	BYTE	W01
	BYTE		        Dn3 
	BYTE	W10
	BYTE		N22     Gn1   v104
	BYTE		N22     As1   v092
	BYTE	W01
	BYTE		N06     Dn5   v104
	BYTE		N05     Gn5 
	BYTE	W01
	BYTE		N03     Dn6 
	BYTE	W04
	BYTE		N10     Dn3   v092
	BYTE	W01
	BYTE		        Gn2 
	BYTE	W01
	BYTE		        Dn2 
	BYTE	W05
// 006   ----------------------------------------
	BYTE	W05
	BYTE		N16     Dn3 
	BYTE	W01
	BYTE		N05     Gn5   v104
	BYTE	W01
	BYTE		N03     Dn5 
	BYTE	W04
	BYTE		N10     Gn1 
	BYTE		N11     As1   v092
	BYTE	W01
	BYTE		N10     Dn2 
	BYTE	W01
	BYTE		N15     Gn2 
	BYTE	W10
	BYTE		N10     Gn1   v104
	BYTE	W01
	BYTE		N05     As4 
	BYTE		N05     Dn5 
	BYTE	W05
	BYTE		N10     Gn2   v096
	BYTE	W01
	BYTE		N04     As4   v104
	BYTE		N05     Dn5 
	BYTE	W05
	BYTE		N10     Gn1 
	BYTE	W01
	BYTE		N06     As4 
	BYTE	W01
	BYTE		N04     Dn5 
	BYTE	W04
	BYTE		        Gn5   v108
	BYTE	W01
	BYTE		N03     Dn5   v104
	BYTE	W01
	BYTE		N02     As4 
	BYTE	W04
	BYTE		N09     Gn1 
	BYTE		N09     As1   v092
	BYTE	W01
	BYTE		        Dn2 
	BYTE		N09     Gn2 
	BYTE	W01
	BYTE		        Dn3 
	BYTE		N14     Gn3 
	BYTE	W10
	BYTE		N09     Gn1   v104
	BYTE		N09     As1   v092
	BYTE	W01
	BYTE		N05     Dn5   v104
	BYTE		N04     Gn5 
	BYTE	W01
	BYTE		N02     Dn6 
	BYTE	W04
	BYTE		N05   
	BYTE		N05     Gn6   v116
	BYTE	W01
	BYTE		N03     Gn5   v104
	BYTE	W01
	BYTE		N02     Dn5 
	BYTE	W04
	BYTE		N09     Gn1 
	BYTE		N09     As1   v092
	BYTE	W01
	BYTE		        Dn2 
	BYTE		N09     Gn2 
	BYTE	W01
	BYTE		        Dn3 
	BYTE		N14     Gn3 
	BYTE	W10
	BYTE		N21     Gn1   v104
	BYTE		N21     As1   v092
	BYTE	W01
	BYTE		N05     Dn5   v104
	BYTE		N04     Gn5 
	BYTE	W01
	BYTE		N02     Dn6 
	BYTE	W04
	BYTE		N09     Dn3   v092
	BYTE		N09     Gn3   v104
	BYTE	W01
	BYTE		        Gn2   v092
	BYTE	W01
	BYTE		        Dn2 
	BYTE	W05
// 007   ----------------------------------------
SteelCockpit0_1_007:
	BYTE	W05
	BYTE		N15     Dn3   v092
	BYTE		N15     Gn3   v104
	BYTE	W01
	BYTE		N04     Gn5 
	BYTE	W01
	BYTE		N02     Dn5 
	BYTE	W04
	BYTE		N09     Gn1 
	BYTE		N10     As1   v092
	BYTE	W01
	BYTE		N09     Dn2 
	BYTE	W01
	BYTE		N14     Gn2 
	BYTE	W10
	BYTE		N09     Gn1   v104
	BYTE	W01
	BYTE		N04     As4 
	BYTE		N04     Dn5 
	BYTE	W05
	BYTE		N09     Gn2 
	BYTE	W01
	BYTE		N03     As4 
	BYTE		N04     Dn5 
	BYTE	W05
	BYTE		N09     Gn1 
	BYTE	W01
	BYTE		N05     As4 
	BYTE	W01
	BYTE		N03     Dn5 
	BYTE	W04
	BYTE		        Gn5   v116
	BYTE	W01
	BYTE		N02     Dn5   v104
	BYTE	W01
	BYTE		N01     As4 
	BYTE	W04
	BYTE		N09     Gn1 
	BYTE		N09     As1   v092
	BYTE	W01
	BYTE		        Dn2 
	BYTE		N09     Gn2 
	BYTE	W01
	BYTE		        Dn3 
	BYTE		N14     Gn3 
	BYTE	W10
	BYTE		N09     Gn1   v104
	BYTE		N09     As1   v092
	BYTE	W01
	BYTE		N05     Dn5   v104
	BYTE		N04     Gn5 
	BYTE	W01
	BYTE		N02     Dn6 
	BYTE	W04
	BYTE		N05   
	BYTE		N05     Gn6   v116
	BYTE	W01
	BYTE		N03     Gn5   v104
	BYTE	W01
	BYTE		N02     Dn5 
	BYTE	W04
	BYTE		N09     Gn1 
	BYTE		N09     As1   v092
	BYTE	W01
	BYTE		        Dn2 
	BYTE		N09     Gn2 
	BYTE	W01
	BYTE		        Dn3 
	BYTE		N14     Gn3 
	BYTE	W10
	BYTE		N21     Gn1   v104
	BYTE		N21     As1   v092
	BYTE	W01
	BYTE		N05     Dn5   v104
	BYTE		N04     Gn5 
	BYTE	W01
	BYTE		N02     Dn6 
	BYTE	W04
	BYTE		N09     Dn3   v092
	BYTE		N09     Gn3   v104
	BYTE	W01
	BYTE		        Gn2   v092
	BYTE	W01
	BYTE		        Dn2 
	BYTE	W05
	BYTE	PEND
// 008   ----------------------------------------
	BYTE	W05
	BYTE		N16     Dn3 
	BYTE		N16     Gn3   v104
	BYTE	W01
	BYTE		N04     Gn5 
	BYTE	W01
	BYTE		N02     Dn5 
	BYTE	W04
	BYTE		N09     Gn1 
	BYTE		N10     As1   v092
	BYTE	W01
	BYTE		N09     Dn2 
	BYTE	W01
	BYTE		N14     Gn2 
	BYTE	W10
	BYTE		N09     Gn1   v104
	BYTE	W01
	BYTE		N04     As4 
	BYTE		N04     Dn5 
	BYTE	W05
	BYTE		N09     Gn2 
	BYTE	W01
	BYTE		N03     As4 
	BYTE		N04     Dn5 
	BYTE	W05
	BYTE		N08     Gn1 
	BYTE	W01
	BYTE		N05     As4 
	BYTE	W01
	BYTE		N03     Dn5 
	BYTE	W04
	BYTE		        Gn5   v116
	BYTE	W01
	BYTE		N02     Dn5   v104
	BYTE	W01
	BYTE		N01     As4 
	BYTE	W04
	BYTE		N09     As1 
	BYTE		N09     Ds2   v092
	BYTE	W01
	BYTE		        Gn2 
	BYTE	W01
	BYTE		        As2 
	BYTE		N14     Ds3 
	BYTE	W10
	BYTE		N09     As1   v104
	BYTE		N09     Ds2   v092
	BYTE	W01
	BYTE		N04     Gn5   v104
	BYTE	W01
	BYTE		N02     As5 
	BYTE	W04
	BYTE		N05   
	BYTE		N05     Ds6   v116
	BYTE	W01
	BYTE		N03     Gn5   v104
	BYTE	W05
	BYTE		N09     As1 
	BYTE		N09     Ds2   v092
	BYTE	W01
	BYTE		        Gn2 
	BYTE	W01
	BYTE		        As2 
	BYTE		N14     Ds3 
	BYTE	W10
	BYTE		N21     As1   v104
	BYTE		N21     Ds2   v092
	BYTE	W01
	BYTE		N04     Gn5   v104
	BYTE	W01
	BYTE		N02     As5 
	BYTE	W04
	BYTE		N09     As2   v092
	BYTE		N09     Ds3   v104
	BYTE	W01
	BYTE		        Gn2   v092
	BYTE	W06
// 009   ----------------------------------------
	BYTE	W05
	BYTE		N15     As2 
	BYTE		N14     Ds3   v104
	BYTE	W01
	BYTE		N04     Gn5 
	BYTE	W05
	BYTE		N09     As1 
	BYTE		N10     Ds2   v092
	BYTE	W02
	BYTE		N14     Gn2 
	BYTE	W10
	BYTE		N09     As1   v104
	BYTE	W01
	BYTE		N04     Ds5 
	BYTE	W05
	BYTE		N09     Gn2 
	BYTE	W01
	BYTE		N03     Ds5 
	BYTE	W05
	BYTE		N08     As1 
	BYTE	W01
	BYTE		N05     Ds5 
	BYTE	W05
	BYTE		N02     Gn5   v116
	BYTE	W02
	BYTE		        Ds5   v104
	BYTE	W04
	BYTE		N09     Fn1 
	BYTE		N09     An1   v092
	BYTE	W01
	BYTE		        Fn2 
	BYTE		N09     An2 
	BYTE	W01
	BYTE		        Cn3 
	BYTE		N14     Fn3 
	BYTE	W10
	BYTE		N09     Fn1   v104
	BYTE		N09     An1   v092
	BYTE	W01
	BYTE		N05     Fn5   v104
	BYTE		N04     An5 
	BYTE	W01
	BYTE		N02     Cn6 
	BYTE	W04
	BYTE		N05   
	BYTE		N05     Fn6   v116
	BYTE	W01
	BYTE		N03     An5   v104
	BYTE	W01
	BYTE		N02     Fn5 
	BYTE	W04
	BYTE		N09     Fn1 
	BYTE		N09     An1   v092
	BYTE	W01
	BYTE		        Fn2 
	BYTE		N09     An2 
	BYTE	W01
	BYTE		        Cn3 
	BYTE		N14     Fn3 
	BYTE	W10
	BYTE		N21     Fn1   v104
	BYTE		N21     An1   v092
	BYTE	W01
	BYTE		N05     Fn5   v104
	BYTE		N04     An5 
	BYTE	W01
	BYTE		N02     Cn6 
	BYTE	W04
	BYTE		N09     Cn3   v092
	BYTE		N09     Fn3   v104
	BYTE	W01
	BYTE		        An2   v092
	BYTE	W01
	BYTE		        Fn2 
	BYTE	W05
// 010   ----------------------------------------
	BYTE	W05
	BYTE		N14     Cn3 
	BYTE		N14     Fn3   v104
	BYTE	W01
	BYTE		N04     An5 
	BYTE	W01
	BYTE		N02     Fn5 
	BYTE	W04
	BYTE		N09     Fn1 
	BYTE		N10     An1   v092
	BYTE	W01
	BYTE		N09     Fn2 
	BYTE	W01
	BYTE		N14     An2 
	BYTE	W10
	BYTE		N09     Fn1   v104
	BYTE	W01
	BYTE		N04     An4 
	BYTE		N04     Fn5 
	BYTE	W05
	BYTE		N09     An2 
	BYTE	W01
	BYTE		N03     An4 
	BYTE		N04     Fn5 
	BYTE	W05
	BYTE		N08     Fn1 
	BYTE	W01
	BYTE		N05     An4 
	BYTE	W01
	BYTE		N03     Fn5 
	BYTE	W04
	BYTE		N02     An5   v116
	BYTE	W01
	BYTE		        Fn5   v104
	BYTE	W01
	BYTE		        An4 
	BYTE	W04
	BYTE		N09     Gn1 
	BYTE		N09     As1   v092
	BYTE	W01
	BYTE		        Dn2 
	BYTE		N09     Gn2 
	BYTE	W01
	BYTE		        Dn3 
	BYTE		N14     Gn3 
	BYTE	W10
	BYTE		N09     Gn1   v104
	BYTE		N09     As1   v092
	BYTE	W01
	BYTE		N05     Dn5   v104
	BYTE		N04     Gn5 
	BYTE	W01
	BYTE		N02     Dn6 
	BYTE	W04
	BYTE		N05   
	BYTE		N05     Gn6   v116
	BYTE	W01
	BYTE		N03     Gn5   v104
	BYTE	W01
	BYTE		N02     Dn5 
	BYTE	W04
	BYTE		N09     Gn1 
	BYTE		N09     As1   v092
	BYTE	W01
	BYTE		        Dn2 
	BYTE		N09     Gn2 
	BYTE	W01
	BYTE		        Dn3 
	BYTE		N14     Gn3 
	BYTE	W10
	BYTE		N21     Gn1   v104
	BYTE		N21     As1   v092
	BYTE	W01
	BYTE		N05     Dn5   v104
	BYTE		N04     Gn5 
	BYTE	W01
	BYTE		N02     Dn6 
	BYTE	W04
	BYTE		N09     Dn3   v092
	BYTE		N09     Gn3   v104
	BYTE	W01
	BYTE		        Gn2   v092
	BYTE	W01
	BYTE		        Dn2 
	BYTE	W05
// 011   ----------------------------------------
	BYTE	PATT
	 POIN2	SteelCockpit0_1_007
// 012   ----------------------------------------
	BYTE	W05
	BYTE		N15     Dn3   v092
	BYTE		N15     Gn3   v104
	BYTE	W01
	BYTE		N04     Gn5 
	BYTE	W01
	BYTE		N02     Dn5 
	BYTE	W04
	BYTE		N09     Gn1 
	BYTE		N10     As1   v092
	BYTE	W01
	BYTE		N09     Dn2 
	BYTE	W01
	BYTE		N14     Gn2 
	BYTE	W10
	BYTE		N09     Gn1   v104
	BYTE	W01
	BYTE		N04     As4 
	BYTE		N04     Dn5 
	BYTE	W05
	BYTE		N09     Gn2 
	BYTE	W01
	BYTE		N03     As4 
	BYTE		N04     Dn5 
	BYTE	W05
	BYTE		N10     Gn1 
	BYTE	W01
	BYTE		N05     As4 
	BYTE	W01
	BYTE		N03     Dn5 
	BYTE	W04
	BYTE		N02     Gn5   v116
	BYTE	W01
	BYTE		        Dn5   v104
	BYTE	W01
	BYTE		N01     As4 
	BYTE	W04
	BYTE		N09     As1 
	BYTE		N09     Ds2   v092
	BYTE	W01
	BYTE		        Gn2 
	BYTE	W01
	BYTE		        As2 
	BYTE		N14     Ds3 
	BYTE	W10
	BYTE		N09     As1   v104
	BYTE		N09     Ds2   v092
	BYTE	W01
	BYTE		N04     Gn5   v104
	BYTE	W01
	BYTE		N02     As5 
	BYTE	W04
	BYTE		N05   
	BYTE		N05     Ds6   v116
	BYTE	W01
	BYTE		N03     Gn5   v104
	BYTE	W05
	BYTE		N09     As1 
	BYTE		N09     Ds2   v092
	BYTE	W01
	BYTE		        Gn2 
	BYTE	W01
	BYTE		        As2 
	BYTE		N14     Ds3 
	BYTE	W10
	BYTE		N04     As4   v116
	BYTE		N04     Ds5   v104
	BYTE	W01
	BYTE		N02     Gn5 
	BYTE	W01
	BYTE		N01     As5 
	BYTE	W04
	BYTE		N09     Cn3   v092
	BYTE		N09     Fn3   v104
	BYTE	W01
	BYTE		N10     Fn2   v092
	BYTE		N09     An2 
	BYTE	W02
	BYTE		N12     Fn1   v104
	BYTE		N12     An1   v092
	BYTE	W04
// 013   ----------------------------------------
	BYTE	W05
	BYTE		N15     Cn3 
	BYTE		N15     Fn3   v104
	BYTE	W01
	BYTE		N04     An5 
	BYTE	W01
	BYTE		N02     Fn5 
	BYTE	W04
	BYTE		N09     Fn1 
	BYTE		N10     An1   v092
	BYTE	W01
	BYTE		N09     Fn2 
	BYTE	W01
	BYTE		N14     An2 
	BYTE	W10
	BYTE		N09     Fn1   v104
	BYTE	W01
	BYTE		N04     An4 
	BYTE		N04     Fn5 
	BYTE	W05
	BYTE		N09     An2 
	BYTE	W01
	BYTE		N03     An4 
	BYTE		N04     Fn5 
	BYTE	W05
	BYTE		N08     Fn1 
	BYTE	W01
	BYTE		N05     An4 
	BYTE	W01
	BYTE		N03     Fn5 
	BYTE	W04
	BYTE		        An5   v116
	BYTE	W01
	BYTE		N02     Fn5   v104
	BYTE	W01
	BYTE		N01     An4 
	BYTE	W04
	BYTE		N09     Gn1 
	BYTE		N09     As1   v092
	BYTE	W01
	BYTE		        Dn2 
	BYTE		N09     Gn2 
	BYTE	W01
	BYTE		        Dn3 
	BYTE		N14     Gn3 
	BYTE	W10
	BYTE		N09     Gn1   v104
	BYTE		N09     As1   v092
	BYTE	W01
	BYTE		N05     Dn5   v104
	BYTE		N04     Gn5 
	BYTE	W01
	BYTE		N02     Dn6   v100
	BYTE	W04
	BYTE		N05     Dn6   v104
	BYTE		N05     Gn6   v116
	BYTE	W01
	BYTE		N03     Gn5   v104
	BYTE	W01
	BYTE		N02     Dn5 
	BYTE	W04
	BYTE		N09     Gn1 
	BYTE		N09     As1   v092
	BYTE	W01
	BYTE		        Dn2 
	BYTE		N09     Gn2 
	BYTE	W01
	BYTE		        Dn3 
	BYTE		N14     Gn3 
	BYTE	W10
	BYTE		N21     Gn1   v104
	BYTE		N21     As1   v092
	BYTE	W01
	BYTE		N05     Dn2 
	BYTE		N03     Gn5   v104
	BYTE	W01
	BYTE		N02     Dn6 
	BYTE	W04
	BYTE		N09     Dn3   v092
	BYTE		N09     Gn3   v104
	BYTE	W01
	BYTE		        Gn2   v092
	BYTE	W01
	BYTE		        Dn2 
	BYTE	W05
// 014   ----------------------------------------
	BYTE	W05
	BYTE		N15     Dn3 
	BYTE		N15     Gn3   v104
	BYTE	W01
	BYTE		N03     Gn5 
	BYTE	W01
	BYTE		N02     Dn5 
	BYTE	W04
	BYTE		N09     Gn1 
	BYTE		N10     As1   v092
	BYTE	W01
	BYTE		N09     Dn2 
	BYTE	W01
	BYTE		N14     Gn2 
	BYTE	W10
	BYTE		N08     Gn1   v104
	BYTE	W01
	BYTE		N04     As4 
	BYTE		N04     Dn5 
	BYTE	W05
	BYTE		N05     Gn5   v116
	BYTE	W01
	BYTE		N03     As4   v104
	BYTE		N03     Dn5 
	BYTE	W06
	BYTE		N92     As1   v116
	BYTE	W02
	BYTE		N19     Ds2   v108
	BYTE	W02
	BYTE		N28     Gn2 
	BYTE	W01
	BYTE		N36     Ds3 
	BYTE	W01
	BYTE		        Gn3 
	BYTE	W18
	BYTE		N56     Ds2 
	BYTE	W12
	BYTE		N32     Gn2 
	BYTE	W11
	BYTE		N22     Ds3   v116
	BYTE	W01
	BYTE		N56     Gn3   v104
	BYTE	W12
// 015   ----------------------------------------
	BYTE	W12
	BYTE		N32     Ds3   v112
	BYTE	W01
	BYTE		        Gn2   v104
	BYTE	W11
	BYTE		N20     Ds2   v108
	BYTE	W12
	BYTE		N08     As4   v120
	BYTE	W11
	BYTE		N80     An1   v116
	BYTE		N10     Dn2   v108
	BYTE	W01
	BYTE		N21     An2 
	BYTE	W01
	BYTE		N30     Dn3 
	BYTE		N32     Fn3 
	BYTE	W11
	BYTE		N56     Dn2 
	BYTE	W12
	BYTE		N32     An2 
	BYTE	W11
	BYTE		N22     Dn3   v116
	BYTE	W01
	BYTE		N56     Fn3   v104
	BYTE	W12
// 016   ----------------------------------------
	BYTE	W12
	BYTE		N32     Dn3   v112
	BYTE	W01
	BYTE		N30     An2   v104
	BYTE	W11
	BYTE		N20     Dn2   v108
	BYTE	W12
	BYTE		N08     An4   v120
	BYTE	W11
	BYTE		N44     Gs1   v116
	BYTE		N10     Cn2   v108
	BYTE	W01
	BYTE		N21     Ds2 
	BYTE		N32     Gs2 
	BYTE	W01
	BYTE		N44     Cn3 
	BYTE		N44     Gs3 
	BYTE	W11
	BYTE		N32     Cn2 
	BYTE	W12
	BYTE		N20     Ds2 
	BYTE	W11
	BYTE		N09     Gs5   v127
	BYTE	W12
	BYTE		N44     Fn1   v116
	BYTE		N10     Gs1   v108
	BYTE	W01
// 017   ----------------------------------------
	BYTE		N21     Fn2 
	BYTE		N32     Gs2 
	BYTE	W01
	BYTE		N44     Cn3 
	BYTE		N44     Fn3 
	BYTE	W11
	BYTE		N32     Gs1 
	BYTE	W12
	BYTE		N20     Fn2 
	BYTE	W11
	BYTE		N09     Gs5   v127
	BYTE	W12
	BYTE		N80     Gn1   v116
	BYTE		N10     As1   v108
	BYTE	W01
	BYTE		N21     Dn2 
	BYTE	W01
	BYTE		N30     Gn2 
	BYTE		N32     Dn3 
	BYTE	W11
	BYTE		N68     As1 
	BYTE	W12
	BYTE		N56     Dn2 
	BYTE	W11
	BYTE		N22     Gn2   v116
	BYTE	W01
	BYTE		N44     Dn3   v104
	BYTE	W12
// 018   ----------------------------------------
	BYTE	W12
	BYTE		N20     Gn2   v112
	BYTE	W24
	BYTE		N92     As1   v116
	BYTE	W02
	BYTE		N19     Ds2   v108
	BYTE	W02
	BYTE		N28     Gn2 
	BYTE	W01
	BYTE		N36     Ds3 
	BYTE	W01
	BYTE		        Gn3 
	BYTE	W18
	BYTE		N56     Ds2 
	BYTE	W12
	BYTE		N32     Gn2 
	BYTE	W11
	BYTE		N22     Ds3   v116
	BYTE	W01
	BYTE		N56     Gn3   v104
	BYTE	W12
// 019   ----------------------------------------
	BYTE	W12
	BYTE		N32     Ds3   v112
	BYTE	W01
	BYTE		N30     Gn2   v104
	BYTE	W11
	BYTE		N20     Ds2   v108
	BYTE	W12
	BYTE		N08     As4   v120
	BYTE	W11
	BYTE		N80     An1   v116
	BYTE		N10     Dn2   v108
	BYTE	W01
	BYTE		N21     An2 
	BYTE	W01
	BYTE		N30     Dn3 
	BYTE		N32     Fn3 
	BYTE	W11
	BYTE		N56     Dn2 
	BYTE	W12
	BYTE		N32     An2 
	BYTE	W11
	BYTE		N22     Dn3   v116
	BYTE	W01
	BYTE		N56     Fn3   v104
	BYTE	W12
// 020   ----------------------------------------
	BYTE	W12
	BYTE		N32     Dn3   v112
	BYTE	W01
	BYTE		N30     An2   v104
	BYTE	W11
	BYTE		N20     Dn2   v108
	BYTE	W12
	BYTE		N08     An4   v120
	BYTE	W11
	BYTE		N44     Gn1   v116
	BYTE		N10     Cn2   v108
	BYTE	W01
	BYTE		N21     Ds2 
	BYTE		N32     Gn2 
	BYTE	W01
	BYTE		N44     Cn3 
	BYTE		N44     Gn3 
	BYTE	W11
	BYTE		N32     Cn2 
	BYTE	W12
	BYTE		N20     Ds2 
	BYTE	W12
	BYTE		N09     Gn5   v127
	BYTE	W11
	BYTE		N44     An1   v116
	BYTE		N10     Ds2   v108
	BYTE	W01
// 021   ----------------------------------------
	BYTE		N21     Gn2 
	BYTE		N32     Cs3 
	BYTE	W01
	BYTE		N44     Gn3 
	BYTE	W11
	BYTE		N32     Ds2 
	BYTE	W12
	BYTE		N20     Gn2 
	BYTE	W11
	BYTE		N09     Cs6   v127
	BYTE	W12
	BYTE		        An1   v104
	BYTE		N09     Dn2   v092
	BYTE	W01
	BYTE		        An2 
	BYTE		N09     Dn3 
	BYTE	W01
	BYTE		N14     Fs3 
	BYTE	W10
	BYTE		N09     An1   v104
	BYTE		N09     Dn2   v092
	BYTE	W01
	BYTE		N05     An5   v104
	BYTE		N04     Dn6 
	BYTE	W05
	BYTE		N05     Fs6   v116
	BYTE	W01
	BYTE		N03     Dn6   v104
	BYTE	W01
	BYTE		N02     An5 
	BYTE	W04
	BYTE		N09     An1 
	BYTE		N09     Dn2   v092
	BYTE	W01
	BYTE		        An2 
	BYTE		N09     Dn3 
	BYTE	W01
	BYTE		N14     Fs3 
	BYTE	W10
	BYTE		N21     An1   v104
	BYTE		N21     Dn2   v092
	BYTE	W01
	BYTE		N05     An5   v104
	BYTE		N04     Dn6 
	BYTE	W05
	BYTE		N09     Fs3 
	BYTE	W01
	BYTE		        Dn3   v092
	BYTE	W01
	BYTE		        An2 
	BYTE	W05
// 022   ----------------------------------------
	BYTE	W05
	BYTE		N15     Fs3   v104
	BYTE	W01
	BYTE		N04     Dn6 
	BYTE	W01
	BYTE		N02     An5 
	BYTE	W04
	BYTE		N09     An1 
	BYTE		N10     Dn2   v092
	BYTE	W01
	BYTE		N09     An2 
	BYTE	W01
	BYTE		N14     Dn3 
	BYTE	W10
	BYTE		N09     An1   v104
	BYTE	W01
	BYTE		N04     Dn5 
	BYTE		N04     An5 
	BYTE	W05
	BYTE		N09     Dn3 
	BYTE	W01
	BYTE		N03     Dn5 
	BYTE		N04     An5 
	BYTE	W05
	BYTE		N09     An1 
	BYTE	W01
	BYTE		N08     Dn2   v092
	BYTE	W01
	BYTE		N03     An5   v104
	BYTE	W04
	BYTE		N04     Dn6   v116
	BYTE	W01
	BYTE		N02     An5   v104
	BYTE	W05
	BYTE		N21     An1 
	BYTE		N21     Dn2   v092
	BYTE	W01
	BYTE		N20     An2 
	BYTE	W01
	BYTE		N19     Cn3 
	BYTE		N19     Fs3 
	BYTE	W22
	BYTE		N10     An1   v104
	BYTE		N10     Dn2   v092
	BYTE	W01
	BYTE		        An2 
	BYTE		N10     Cn3 
	BYTE	W01
	BYTE		        Fs3 
	BYTE	W11
	BYTE		N01     An4   v104
	BYTE		N01     Dn5   v096
	BYTE	W05
	BYTE		N05     Cn6   v104
	BYTE		N05     Fs6   v116
	BYTE	W01
	BYTE		N04     An5   v104
	BYTE	W01
	BYTE		        An4 
	BYTE		N04     Dn5 
	BYTE	W05
// 023   ----------------------------------------
	BYTE	W48
	BYTE		N08     Gn1 
	BYTE		N08     As1   v092
	BYTE		N09     Dn2 
	BYTE		N09     Gn2 
	BYTE	W01
	BYTE		        Dn3 
	BYTE		N14     Gn3 
	BYTE	W10
	BYTE		N09     Gn1   v104
	BYTE		N09     As1   v092
	BYTE	W01
	BYTE		N05     Dn5   v104
	BYTE		N04     Gn5 
	BYTE	W01
	BYTE		N02     Dn6 
	BYTE	W04
	BYTE		N05   
	BYTE		N05     Gn6   v116
	BYTE	W01
	BYTE		N03     Gn5   v104
	BYTE	W01
	BYTE		N02     Dn5 
	BYTE	W04
	BYTE		N09     Gn1 
	BYTE		N09     As1   v092
	BYTE	W01
	BYTE		        Dn2 
	BYTE		N09     Gn2 
	BYTE	W01
	BYTE		        Dn3 
	BYTE		N14     Gn3 
	BYTE	W10
	BYTE		N21     Gn1   v104
	BYTE		N21     As1   v092
	BYTE	W01
	BYTE		N05     Dn5   v104
	BYTE		N04     Gn5 
	BYTE	W01
	BYTE		N02     Dn6 
	BYTE	W04
	BYTE		N09     Dn3   v092
	BYTE		N09     Gn3   v104
	BYTE	W01
	BYTE		        Gn2   v092
	BYTE	W01
	BYTE		        Dn2 
	BYTE	W05
// 024   ----------------------------------------
SteelCockpit0_1_024:
	BYTE	W05
	BYTE		N15     Dn3   v092
	BYTE		N15     Gn3   v104
	BYTE	W01
	BYTE		N04     Gn5 
	BYTE	W01
	BYTE		N02     Dn5 
	BYTE	W04
	BYTE		N09     Gn1 
	BYTE		N10     As1   v092
	BYTE	W01
	BYTE		N09     Dn2 
	BYTE	W01
	BYTE		N14     Gn2 
	BYTE	W10
	BYTE		N09     Gn1   v104
	BYTE	W01
	BYTE		N04     As4 
	BYTE		N04     Dn5 
	BYTE	W05
	BYTE		N09     Gn2 
	BYTE	W01
	BYTE		N03     As4 
	BYTE		N04     Dn5 
	BYTE	W05
	BYTE		N09     Gn1 
	BYTE	W01
	BYTE		N05     As4 
	BYTE	W01
	BYTE		N03     Dn5 
	BYTE	W04
	BYTE		N02     Gn5   v116
	BYTE	W01
	BYTE		        Dn5   v104
	BYTE	W01
	BYTE		N01     As4 
	BYTE	W04
	BYTE		N09     Fn1 
	BYTE		N09     An1   v092
	BYTE	W01
	BYTE		        Fn2 
	BYTE		N09     An2 
	BYTE	W01
	BYTE		        Cn3 
	BYTE		N14     Fn3 
	BYTE	W10
	BYTE		N09     Fn1   v104
	BYTE		N09     An1   v092
	BYTE	W01
	BYTE		N05     Fn5   v104
	BYTE		N04     An5 
	BYTE	W01
	BYTE		N02     Cn6 
	BYTE	W04
	BYTE		N05   
	BYTE		N05     Fn6   v116
	BYTE	W01
	BYTE		N03     An5   v104
	BYTE	W01
	BYTE		N02     Fn5 
	BYTE	W04
	BYTE		N09     Fn1 
	BYTE		N09     An1   v092
	BYTE	W01
	BYTE		        Fn2 
	BYTE		N09     An2 
	BYTE	W01
	BYTE		        Cn3 
	BYTE		N14     Fn3 
	BYTE	W10
	BYTE		N21     Fn1   v104
	BYTE		N21     An1   v092
	BYTE	W01
	BYTE		N05     Fn5   v104
	BYTE		N04     An5 
	BYTE	W01
	BYTE		N02     Cn6 
	BYTE	W04
	BYTE		N09     Cn3   v092
	BYTE		N09     Fn3   v104
	BYTE	W01
	BYTE		        An2   v092
	BYTE	W01
	BYTE		        Fn2 
	BYTE	W05
	BYTE	PEND
// 025   ----------------------------------------
	BYTE	W05
	BYTE		N15     Cn3 
	BYTE		N15     Fn3   v104
	BYTE	W01
	BYTE		N04     An5 
	BYTE	W01
	BYTE		N02     Fn5 
	BYTE	W04
	BYTE		N09     Fn1 
	BYTE		N10     An1   v092
	BYTE	W01
	BYTE		N09     Fn2 
	BYTE	W01
	BYTE		N14     An2 
	BYTE	W10
	BYTE		N09     Fn1   v104
	BYTE	W01
	BYTE		N04     An4 
	BYTE		N04     Fn5 
	BYTE	W05
	BYTE		N09     An2 
	BYTE	W01
	BYTE		N03     An4 
	BYTE		N04     Fn5 
	BYTE	W05
	BYTE		N09     Fn1 
	BYTE	W01
	BYTE		N05     An4 
	BYTE	W01
	BYTE		N03     Fn5 
	BYTE	W04
	BYTE		        An5   v116
	BYTE	W01
	BYTE		N02     Fn5   v104
	BYTE	W01
	BYTE		N01     An4 
	BYTE	W04
	BYTE		N09     As1 
	BYTE		N09     Ds2   v092
	BYTE	W01
	BYTE		        Gn2 
	BYTE	W01
	BYTE		        As2 
	BYTE		N14     Ds3 
	BYTE	W10
	BYTE		N09     As1   v104
	BYTE		N09     Ds2   v092
	BYTE	W01
	BYTE		N04     Gn5   v104
	BYTE	W01
	BYTE		N02     As5 
	BYTE	W04
	BYTE		N05   
	BYTE		N05     Ds6   v116
	BYTE	W01
	BYTE		N03     Gn5   v104
	BYTE	W05
	BYTE		N09     As1 
	BYTE		N09     Ds2   v092
	BYTE	W01
	BYTE		        Gn2 
	BYTE	W01
	BYTE		        As2 
	BYTE		N14     Ds3 
	BYTE	W10
	BYTE		N21     As1   v104
	BYTE		N21     Ds2   v092
	BYTE	W01
	BYTE		N04     Gn5   v104
	BYTE	W01
	BYTE		N02     As5 
	BYTE	W04
	BYTE		N09     As2   v092
	BYTE		N09     Ds3   v104
	BYTE	W01
	BYTE		        Gn2   v092
	BYTE	W06
// 026   ----------------------------------------
SteelCockpit0_1_026:
	BYTE	W05
	BYTE		N15     As2   v092
	BYTE		N15     Ds3   v104
	BYTE	W01
	BYTE		N04     Gn5 
	BYTE	W05
	BYTE		N09     As1 
	BYTE		N10     Ds2   v092
	BYTE	W02
	BYTE		N14     Gn2 
	BYTE	W10
	BYTE		N09     As1   v104
	BYTE	W01
	BYTE		N04     Ds5 
	BYTE	W05
	BYTE		N09     Gn2 
	BYTE	W01
	BYTE		N03     Ds5 
	BYTE	W05
	BYTE		N09     As1 
	BYTE	W01
	BYTE		N05     Ds5 
	BYTE	W05
	BYTE		N03     Gn5   v116
	BYTE	W02
	BYTE		N01     Ds5   v104
	BYTE	W04
	BYTE		N09     An1 
	BYTE		N09     Dn2   v092
	BYTE	W01
	BYTE		        An2 
	BYTE	W01
	BYTE		        Dn3 
	BYTE		N14     Fs3 
	BYTE	W10
	BYTE		N09     An1   v104
	BYTE		N09     Dn2   v092
	BYTE	W01
	BYTE		N04     An5   v104
	BYTE	W01
	BYTE		N02     Dn6 
	BYTE	W04
	BYTE		N05   
	BYTE		N05     Fs6   v116
	BYTE	W01
	BYTE		N03     An5   v104
	BYTE	W05
	BYTE		N09     An1 
	BYTE		N09     Dn2   v092
	BYTE	W01
	BYTE		        An2 
	BYTE	W01
	BYTE		        Dn3 
	BYTE		N14     Fs3 
	BYTE	W10
	BYTE		N21     An1   v104
	BYTE		N21     Dn2   v092
	BYTE	W01
	BYTE		N04     An5   v104
	BYTE	W01
	BYTE		N02     Dn6 
	BYTE	W04
	BYTE		N09     Dn3   v092
	BYTE		N09     Fs3   v104
	BYTE	W01
	BYTE		        An2   v092
	BYTE	W06
	BYTE	PEND
// 027   ----------------------------------------
	BYTE	W05
	BYTE		N15     Dn3 
	BYTE		N15     Fs3   v104
	BYTE	W01
	BYTE		N03     An5 
	BYTE	W05
	BYTE		N09     An1 
	BYTE		N10     Dn2   v092
	BYTE	W02
	BYTE		N14     An2 
	BYTE	W10
	BYTE		N09     An1   v104
	BYTE	W01
	BYTE		N04     Dn5 
	BYTE	W05
	BYTE		N09     An2 
	BYTE	W01
	BYTE		N03     Dn5 
	BYTE	W05
	BYTE		N09     An1 
	BYTE	W01
	BYTE		N05     Dn5 
	BYTE	W05
	BYTE		N03     An5   v116
	BYTE	W02
	BYTE		N01     Dn5   v104
	BYTE	W04
	BYTE		N09     As1 
	BYTE		N09     Ds2   v092
	BYTE	W01
	BYTE		        Gn2 
	BYTE	W01
	BYTE		        As2 
	BYTE		N14     Ds3 
	BYTE	W10
	BYTE		N09     As1   v104
	BYTE		N09     Ds2   v092
	BYTE	W01
	BYTE		N04     Gn5   v104
	BYTE	W01
	BYTE		N02     As5 
	BYTE	W04
	BYTE		N05   
	BYTE		N05     Ds6   v116
	BYTE	W01
	BYTE		N03     Gn5   v104
	BYTE	W05
	BYTE		N09     As1 
	BYTE		N09     Ds2   v092
	BYTE	W01
	BYTE		        Gn2 
	BYTE	W01
	BYTE		        As2 
	BYTE		N14     Ds3 
	BYTE	W10
	BYTE		N21     As1   v104
	BYTE		N21     Ds2   v092
	BYTE	W01
	BYTE		N04     Gn5   v104
	BYTE	W01
	BYTE		N02     As5 
	BYTE	W04
	BYTE		N09     As2   v092
	BYTE		N09     Ds3   v104
	BYTE	W01
	BYTE		        Gn2   v092
	BYTE	W06
// 028   ----------------------------------------
	BYTE	W05
	BYTE		N15     As2 
	BYTE		N15     Ds3   v104
	BYTE	W01
	BYTE		N04     Gn5 
	BYTE	W05
	BYTE		N09     As1 
	BYTE		N10     Ds2   v092
	BYTE	W02
	BYTE		N14     Gn2 
	BYTE	W10
	BYTE		N09     As1   v104
	BYTE	W01
	BYTE		N04     Ds5 
	BYTE	W05
	BYTE		N09     Gn2 
	BYTE	W01
	BYTE		N03     Ds5 
	BYTE	W05
	BYTE		N09     As1 
	BYTE	W01
	BYTE		N05     Ds5 
	BYTE	W05
	BYTE		N03     Gn5   v116
	BYTE	W02
	BYTE		N01     Ds5   v104
	BYTE	W04
	BYTE		N09     Fn1 
	BYTE		N09     An1   v092
	BYTE	W01
	BYTE		        Fn2 
	BYTE		N09     An2 
	BYTE	W01
	BYTE		        Cn3 
	BYTE		N14     Fn3 
	BYTE	W10
	BYTE		N09     Fn1   v104
	BYTE		N09     An1   v092
	BYTE	W01
	BYTE		N05     Fn5   v104
	BYTE		N04     An5 
	BYTE	W01
	BYTE		N02     Cn6 
	BYTE	W04
	BYTE		N05   
	BYTE		N05     Fn6   v116
	BYTE	W01
	BYTE		N03     An5   v104
	BYTE	W01
	BYTE		N02     Fn5 
	BYTE	W04
	BYTE		N09     Fn1 
	BYTE		N09     An1   v092
	BYTE	W01
	BYTE		        Fn2 
	BYTE		N09     An2 
	BYTE	W01
	BYTE		        Cn3 
	BYTE		N14     Fn3 
	BYTE	W10
	BYTE		N21     Fn1   v104
	BYTE		N21     An1   v092
	BYTE	W01
	BYTE		N05     Fn5   v104
	BYTE		N04     An5 
	BYTE	W01
	BYTE		N02     Cn6 
	BYTE	W04
	BYTE		N09     Cn3   v092
	BYTE		N09     Fn3   v104
	BYTE	W01
	BYTE		        An2   v092
	BYTE	W01
	BYTE		        Fn2 
	BYTE	W05
// 029   ----------------------------------------
	BYTE	W05
	BYTE		N15     Cn3 
	BYTE		N15     Fn3   v104
	BYTE	W01
	BYTE		N03     An5 
	BYTE	W01
	BYTE		N02     Fn5 
	BYTE	W04
	BYTE		N09     Fn1 
	BYTE		N10     An1   v092
	BYTE	W01
	BYTE		N09     Fn2 
	BYTE	W01
	BYTE		N14     An2 
	BYTE	W10
	BYTE		N09     Fn1   v104
	BYTE	W01
	BYTE		N04     An4 
	BYTE		N03     Fn5 
	BYTE	W05
	BYTE		N09     An2 
	BYTE	W01
	BYTE		N03     An4 
	BYTE		N04     Fn5 
	BYTE	W05
	BYTE		N09     Fn1 
	BYTE	W01
	BYTE		N05     An4 
	BYTE	W01
	BYTE		N03     Fn5 
	BYTE	W04
	BYTE		        An5   v116
	BYTE	W01
	BYTE		N02     Fn5   v104
	BYTE	W01
	BYTE		N01     An4 
	BYTE	W04
	BYTE		N09     Gn1 
	BYTE		N09     Cn2   v092
	BYTE	W01
	BYTE		        En2 
	BYTE		N09     Gn2 
	BYTE	W01
	BYTE		        Cn3 
	BYTE		N14     En3 
	BYTE	W10
	BYTE		N09     Gn1   v104
	BYTE		N09     Cn2   v092
	BYTE	W01
	BYTE		N05     En5   v104
	BYTE		N04     Gn5 
	BYTE	W01
	BYTE		N02     Cn6 
	BYTE	W04
	BYTE		N05   
	BYTE		N05     En6   v116
	BYTE	W01
	BYTE		N03     Gn5   v104
	BYTE	W01
	BYTE		N02     En5 
	BYTE	W04
	BYTE		N09     Gn1 
	BYTE		N09     Cn2   v092
	BYTE	W01
	BYTE		        En2 
	BYTE		N09     Gn2 
	BYTE	W01
	BYTE		        Cn3 
	BYTE		N14     En3 
	BYTE	W10
	BYTE		N21     Gn1   v104
	BYTE		N21     Cn2   v092
	BYTE	W01
	BYTE		N05     En5   v104
	BYTE		N04     Gn5 
	BYTE	W01
	BYTE		N02     Cn6 
	BYTE	W04
	BYTE		N09     Cn3   v092
	BYTE		N09     En3   v104
	BYTE	W01
	BYTE		        Gn2   v092
	BYTE	W01
	BYTE		        En2 
	BYTE	W05
// 030   ----------------------------------------
	BYTE	W05
	BYTE		N16     Cn3 
	BYTE		N16     En3   v104
	BYTE	W01
	BYTE		N04     Gn5 
	BYTE	W01
	BYTE		N02     En5 
	BYTE	W04
	BYTE		N09     Gn1 
	BYTE		N10     Cn2   v092
	BYTE	W01
	BYTE		N09     En2 
	BYTE	W01
	BYTE		N14     Gn2 
	BYTE	W10
	BYTE		N09     Gn1   v104
	BYTE	W01
	BYTE		N04     Cn5 
	BYTE		N04     En5 
	BYTE	W05
	BYTE		N09     Gn2 
	BYTE	W01
	BYTE		N03     Cn5 
	BYTE		N04     En5 
	BYTE	W05
	BYTE		N09     Gn1 
	BYTE	W01
	BYTE		N05     Cn5 
	BYTE	W01
	BYTE		N03     En5 
	BYTE	W04
	BYTE		        Gn5   v116
	BYTE	W01
	BYTE		N02     En5   v104
	BYTE	W01
	BYTE		N01     Cn5 
	BYTE	W04
	BYTE		N09     An1 
	BYTE		N09     Dn2   v092
	BYTE	W01
	BYTE		        An2 
	BYTE		N09     Dn3 
	BYTE	W01
	BYTE		N14     Fs3 
	BYTE	W10
	BYTE		N09     An1   v104
	BYTE		N09     Dn2   v092
	BYTE	W01
	BYTE		N05     An5   v104
	BYTE		N04     Dn6 
	BYTE	W05
	BYTE		N05     Fs6   v116
	BYTE	W01
	BYTE		N03     Dn6   v104
	BYTE	W01
	BYTE		N02     An5 
	BYTE	W04
	BYTE		N09     An1 
	BYTE		N09     Dn2   v092
	BYTE	W01
	BYTE		        An2 
	BYTE		N09     Dn3 
	BYTE	W01
	BYTE		N14     Fs3 
	BYTE	W10
	BYTE		N21     An1   v104
	BYTE		N21     Dn2   v092
	BYTE	W01
	BYTE		N05     An5   v104
	BYTE		N04     Dn6 
	BYTE	W05
	BYTE		N09     Fs3 
	BYTE	W01
	BYTE		        Dn3   v092
	BYTE	W01
	BYTE		        An2 
	BYTE	W05
// 031   ----------------------------------------
	BYTE	W05
	BYTE		N15     Fs3   v104
	BYTE	W01
	BYTE		N04     Dn6 
	BYTE	W01
	BYTE		N02     An5 
	BYTE	W04
	BYTE		N09     An1 
	BYTE		N10     Dn2   v092
	BYTE	W01
	BYTE		N09     An2 
	BYTE	W01
	BYTE		N14     Dn3 
	BYTE	W10
	BYTE		N09     An1   v104
	BYTE	W01
	BYTE		N04     Dn5 
	BYTE		N04     An5 
	BYTE	W05
	BYTE		N09     Dn3 
	BYTE	W01
	BYTE		N03     Dn5 
	BYTE		N04     An5 
	BYTE	W05
	BYTE		N10     An1 
	BYTE	W01
	BYTE		N09     Dn2   v092
	BYTE	W01
	BYTE		N03     An5   v104
	BYTE	W04
	BYTE		N04     Dn6   v116
	BYTE	W01
	BYTE		N03     An5   v104
	BYTE	W06
	BYTE		N08     Gn1 
	BYTE		N08     As1   v092
	BYTE		N09     Dn2 
	BYTE		N09     Gn2 
	BYTE	W01
	BYTE		        Dn3 
	BYTE		N14     Gn3 
	BYTE	W10
	BYTE		N09     Gn1   v104
	BYTE		N09     As1   v092
	BYTE	W01
	BYTE		N05     Dn5   v104
	BYTE		N04     Gn5 
	BYTE	W01
	BYTE		N02     Dn6 
	BYTE	W04
	BYTE		N05   
	BYTE		N05     Gn6   v116
	BYTE	W01
	BYTE		N03     Gn5   v104
	BYTE	W01
	BYTE		N02     Dn5 
	BYTE	W04
	BYTE		N09     Gn1 
	BYTE		N09     As1   v092
	BYTE	W01
	BYTE		        Dn2 
	BYTE		N09     Gn2 
	BYTE	W01
	BYTE		        Dn3 
	BYTE		N14     Gn3 
	BYTE	W10
	BYTE		N21     Gn1   v104
	BYTE		N21     As1   v092
	BYTE	W01
	BYTE		N05     Dn5   v104
	BYTE		N04     Gn5 
	BYTE	W01
	BYTE		N02     Dn6 
	BYTE	W04
	BYTE		N09     Dn3   v092
	BYTE		N09     Gn3   v104
	BYTE	W01
	BYTE		        Gn2   v092
	BYTE	W01
	BYTE		        Dn2 
	BYTE	W05
// 032   ----------------------------------------
	BYTE	PATT
	 POIN2	SteelCockpit0_1_024
// 033   ----------------------------------------
	BYTE	W05
	BYTE		N15     Cn3   v092
	BYTE		N15     Fn3   v104
	BYTE	W01
	BYTE		N04     An5 
	BYTE	W01
	BYTE		N02     Fn5 
	BYTE	W04
	BYTE		N09     Fn1 
	BYTE		N09     An1   v092
	BYTE	W01
	BYTE		        Fn2 
	BYTE	W01
	BYTE		N14     An2 
	BYTE	W10
	BYTE		N09     Fn1   v104
	BYTE	W01
	BYTE		N04     An4 
	BYTE		N04     Fn5 
	BYTE	W05
	BYTE		N09     An2 
	BYTE	W01
	BYTE		N03     An4 
	BYTE		N04     Fn5 
	BYTE	W05
	BYTE		N09     Fn1 
	BYTE	W01
	BYTE		N05     An4 
	BYTE	W01
	BYTE		N03     Fn5 
	BYTE	W04
	BYTE		        An5   v116
	BYTE	W01
	BYTE		N02     Fn5   v104
	BYTE	W01
	BYTE		N01     An4 
	BYTE	W04
	BYTE		N09     As1 
	BYTE		N09     Ds2   v092
	BYTE	W01
	BYTE		        Gn2 
	BYTE	W01
	BYTE		        As2 
	BYTE		N14     Ds3 
	BYTE	W10
	BYTE		N09     As1   v104
	BYTE		N09     Ds2   v092
	BYTE	W01
	BYTE		N04     Gn5   v104
	BYTE	W01
	BYTE		N02     As5 
	BYTE	W04
	BYTE		N05   
	BYTE		N05     Ds6   v116
	BYTE	W01
	BYTE		N03     Gn5   v104
	BYTE	W05
	BYTE		N09     As1 
	BYTE		N09     Ds2   v092
	BYTE	W01
	BYTE		        Gn2 
	BYTE	W01
	BYTE		        As2 
	BYTE		N14     Ds3 
	BYTE	W10
	BYTE		N21     As1   v104
	BYTE		N21     Ds2   v092
	BYTE	W01
	BYTE		N04     Gn5   v104
	BYTE	W01
	BYTE		N02     As5 
	BYTE	W04
	BYTE		N09     As2   v092
	BYTE		N09     Ds3   v104
	BYTE	W01
	BYTE		        Gn2   v092
	BYTE	W06
// 034   ----------------------------------------
	BYTE	PATT
	 POIN2	SteelCockpit0_1_026
// 035   ----------------------------------------
	BYTE	W05
	BYTE		N15     Dn3   v092
	BYTE		N15     Fs3   v104
	BYTE	W01
	BYTE		N04     An5 
	BYTE	W05
	BYTE		N09     An1 
	BYTE		N10     Dn2   v092
	BYTE	W02
	BYTE		N14     An2 
	BYTE	W10
	BYTE		N09     An1   v104
	BYTE	W01
	BYTE		N04     Dn5 
	BYTE	W05
	BYTE		N09     An2 
	BYTE	W01
	BYTE		N03     Dn5 
	BYTE	W05
	BYTE		N09     An1 
	BYTE	W01
	BYTE		N05     Dn5 
	BYTE	W05
	BYTE		N03     An5   v116
	BYTE	W02
	BYTE		N01     Dn5   v104
	BYTE	W04
	BYTE		N09     As1 
	BYTE		N09     Ds2   v092
	BYTE	W01
	BYTE		        Gn2 
	BYTE	W01
	BYTE		        As2 
	BYTE		N14     Ds3 
	BYTE	W10
	BYTE		N09     As1   v104
	BYTE		N09     Ds2   v092
	BYTE	W01
	BYTE		N04     Gn5   v104
	BYTE	W01
	BYTE		N02     As5 
	BYTE	W04
	BYTE		N05   
	BYTE		N05     Ds6   v116
	BYTE	W01
	BYTE		N03     Gn5   v104
	BYTE	W05
	BYTE		N09     As1 
	BYTE		N09     Ds2   v092
	BYTE	W01
	BYTE		        Gn2 
	BYTE	W01
	BYTE		        As2 
	BYTE		N14     Ds3 
	BYTE	W10
	BYTE		N21     As1   v104
	BYTE		N21     Ds2   v092
	BYTE	W01
	BYTE		N04     Gn5   v104
	BYTE	W01
	BYTE		N02     As5 
	BYTE	W04
	BYTE		N09     As2   v092
	BYTE		N09     Ds3   v104
	BYTE	W01
	BYTE		        Gn2   v092
	BYTE	W06
// 036   ----------------------------------------
	BYTE	W05
	BYTE		N14     As2 
	BYTE		N14     Ds3   v104
	BYTE	W01
	BYTE		N04     Gn5 
	BYTE	W05
	BYTE		N09     As1 
	BYTE		N10     Ds2   v092
	BYTE	W02
	BYTE		N14     Gn2 
	BYTE	W10
	BYTE		N09     As1   v104
	BYTE	W01
	BYTE		N04     Ds5 
	BYTE	W05
	BYTE		N09     Gn2 
	BYTE	W01
	BYTE		N03     Ds5 
	BYTE	W05
	BYTE		N09     As1 
	BYTE	W01
	BYTE		        Ds2   v092
	BYTE	W05
	BYTE		N03     Gn5   v116
	BYTE	W06
	BYTE		N09     Fn1   v104
	BYTE		N09     An1   v092
	BYTE	W01
	BYTE		        Fn2 
	BYTE		N09     An2 
	BYTE	W01
	BYTE		        Cn3 
	BYTE		N14     Fn3 
	BYTE	W10
	BYTE		N09     Fn1   v104
	BYTE		N09     An1   v092
	BYTE	W01
	BYTE		N05     Fn5   v104
	BYTE		N04     An5 
	BYTE	W01
	BYTE		N02     Cn6 
	BYTE	W04
	BYTE		N05   
	BYTE		N05     Fn6   v116
	BYTE	W01
	BYTE		N03     An5   v104
	BYTE	W01
	BYTE		N02     Fn5 
	BYTE	W04
	BYTE		N09     Fn1 
	BYTE		N09     As1   v092
	BYTE	W01
	BYTE		        Fn2 
	BYTE		N09     As2 
	BYTE	W01
	BYTE		        Cn3 
	BYTE		N14     Fn3 
	BYTE	W10
	BYTE		N21     Fn1   v104
	BYTE		N21     An1   v092
	BYTE	W01
	BYTE		N05     Fn5   v104
	BYTE		N04     As5 
	BYTE	W01
	BYTE		N02     Cn6 
	BYTE	W04
	BYTE		N09     Cn3   v092
	BYTE		N09     Fn3   v104
	BYTE	W01
	BYTE		        An2   v092
	BYTE	W01
	BYTE		        Fn2 
	BYTE	W05
// 037   ----------------------------------------
	BYTE	W05
	BYTE		N16     Cn3 
	BYTE		N16     Fn3   v104
	BYTE	W01
	BYTE		N04     An5 
	BYTE	W01
	BYTE		N36     Fn2   v092
	BYTE	W04
	BYTE		N09     Fn1   v104
	BYTE		N09     An1   v092
	BYTE	W02
	BYTE		N14     An2 
	BYTE	W10
	BYTE		N09     Fn1   v104
	BYTE		N05     An1   v092
	BYTE	W06
	BYTE		N09     An2   v104
	BYTE	W01
	BYTE		        An1   v092
	BYTE	W05
	BYTE		        Fn1   v104
	BYTE	W06
	BYTE		N03     An5   v116
	BYTE	W02
	BYTE		N01     An4   v104
	BYTE	W04
	BYTE		N09     Gn1 
	BYTE		N09     Cn2   v092
	BYTE	W01
	BYTE		        En2 
	BYTE		N09     Gn2 
	BYTE	W01
	BYTE		        Cn3 
	BYTE		N14     En3 
	BYTE	W10
	BYTE		N09     Gn1   v104
	BYTE		N09     Cn2   v092
	BYTE	W01
	BYTE		N05     En5   v104
	BYTE		N04     Gn5 
	BYTE	W01
	BYTE		N02     Cn6 
	BYTE	W04
	BYTE		N05   
	BYTE		N05     En6   v116
	BYTE	W01
	BYTE		N03     Gn5   v104
	BYTE	W01
	BYTE		N02     En5 
	BYTE	W04
	BYTE		N09     Gn1 
	BYTE		N09     Cn2   v092
	BYTE	W01
	BYTE		        En2 
	BYTE		N09     Gn2 
	BYTE	W01
	BYTE		        Cn3 
	BYTE		N14     En3 
	BYTE	W10
	BYTE		N21     Gn1   v104
	BYTE		N21     Cn2   v092
	BYTE	W01
	BYTE		N05     En5   v104
	BYTE		N04     Gn5 
	BYTE	W01
	BYTE		N02     Cn6 
	BYTE	W04
	BYTE		N09     Cn3   v092
	BYTE		N09     En3   v104
	BYTE	W01
	BYTE		        Gn2   v092
	BYTE	W01
	BYTE		        En2 
	BYTE	W05
// 038   ----------------------------------------
	BYTE	W05
	BYTE		N15     Cn3 
	BYTE		N15     En3   v104
	BYTE	W01
	BYTE		N04     Gn5 
	BYTE	W01
	BYTE		N02     En5 
	BYTE	W04
	BYTE		N09     Gn1 
	BYTE		N10     Cn2   v092
	BYTE	W01
	BYTE		N09     En2 
	BYTE	W01
	BYTE		N14     Gn2 
	BYTE	W10
	BYTE		N09     Gn1   v104
	BYTE	W01
	BYTE		N04     Cn5 
	BYTE		N04     En5 
	BYTE	W05
	BYTE		N09     Gn2 
	BYTE	W01
	BYTE		N03     Cn5 
	BYTE		N04     En5 
	BYTE	W05
	BYTE		N09     Gn1 
	BYTE	W01
	BYTE		N05     Cn5 
	BYTE	W01
	BYTE		N03     En5 
	BYTE	W04
	BYTE		        Gn5   v116
	BYTE	W01
	BYTE		N02     En5   v104
	BYTE	W01
	BYTE		N01     Cn5 
	BYTE	W04
	BYTE		N09     An1 
	BYTE		N09     Dn2   v092
	BYTE	W01
	BYTE		        An2 
	BYTE		N09     Cn3 
	BYTE	W01
	BYTE		N14     Fs3 
	BYTE	W10
	BYTE		N09     An1   v104
	BYTE		N09     Dn2   v092
	BYTE	W01
	BYTE		N05     An5   v104
	BYTE		N04     Cn6 
	BYTE	W05
	BYTE		N05     Fs6   v116
	BYTE	W01
	BYTE		N03     Cn6   v104
	BYTE	W01
	BYTE		N02     An5 
	BYTE	W04
	BYTE		N09     An1 
	BYTE		N09     Dn2   v092
	BYTE	W01
	BYTE		        An2 
	BYTE		N09     Cn3 
	BYTE	W01
	BYTE		N14     Fs3 
	BYTE	W10
	BYTE		N21     An1   v104
	BYTE		N21     Dn2   v092
	BYTE	W01
	BYTE		N05     An5   v104
	BYTE		N04     Cn6 
	BYTE	W05
	BYTE		N09     Fs3 
	BYTE	W01
	BYTE		        Cn3   v092
	BYTE	W01
	BYTE		        An2 
	BYTE	W05
// 039   ----------------------------------------
	BYTE	W05
	BYTE		N15     Fs3   v104
	BYTE	W01
	BYTE		N04     Cn6 
	BYTE	W01
	BYTE		N02     An5 
	BYTE	W04
	BYTE		N09     An1 
	BYTE		N10     Dn2   v092
	BYTE	W01
	BYTE		N09     An2 
	BYTE	W01
	BYTE		N14     Cn3 
	BYTE	W10
	BYTE		N09     An1   v104
	BYTE	W01
	BYTE		N04     Dn5 
	BYTE		N04     An5 
	BYTE	W05
	BYTE		N09     Cn3 
	BYTE	W01
	BYTE		N03     Dn5 
	BYTE		N04     An5 
	BYTE	W05
	BYTE		N09     An1 
	BYTE	W01
	BYTE		N08     Dn2   v092
	BYTE	W01
	BYTE		N03     An5   v104
	BYTE	W04
	BYTE		        Cn6   v116
	BYTE	W01
	BYTE		N02     An5   v104
	BYTE	W05
	BYTE		N09     An1 
	BYTE		N09     Dn2   v092
	BYTE	W01
	BYTE		        An2 
	BYTE		N09     Cn3 
	BYTE	W01
	BYTE		N14     Fs3 
	BYTE	W10
	BYTE		N09     An1   v104
	BYTE		N09     Dn2   v092
	BYTE	W01
	BYTE		N05     An5   v104
	BYTE		N04     Cn6 
	BYTE	W05
	BYTE		N05     Fs6   v116
	BYTE	W01
	BYTE		N03     Cn6   v104
	BYTE	W01
	BYTE		N02     An5 
	BYTE	W04
	BYTE		N09     An1 
	BYTE		N09     Dn2   v092
	BYTE	W01
	BYTE		        An2 
	BYTE		N09     Cn3 
	BYTE	W01
	BYTE		N14     Fs3 
	BYTE	W10
	BYTE		N21     An1   v104
	BYTE		N21     Dn2   v092
	BYTE	W01
	BYTE		N05     An5   v104
	BYTE		N04     Cn6 
	BYTE	W05
	BYTE		N09     Fs3 
	BYTE	W01
	BYTE		        Cn3   v092
	BYTE	W01
	BYTE		        An2 
	BYTE	W05
// 040   ----------------------------------------
	BYTE	W05
	BYTE		N15     Fs3   v104
	BYTE	W01
	BYTE		N04     Cn6 
	BYTE	W01
	BYTE		N02     An5 
	BYTE	W04
	BYTE		N09     An1 
	BYTE		N10     Dn2   v092
	BYTE	W01
	BYTE		N09     An2 
	BYTE	W01
	BYTE		N14     Cn3 
	BYTE	W10
	BYTE		N09     An1   v104
	BYTE	W01
	BYTE		N03     Dn5 
	BYTE		N04     An5 
	BYTE	W05
	BYTE		N09     Cn3 
	BYTE	W01
	BYTE		N03     Dn5 
	BYTE		N04     An5 
	BYTE	W05
	BYTE		N10     An1 
	BYTE	W01
	BYTE		N09     Dn2   v092
	BYTE	W01
	BYTE		N03     An5   v104
	BYTE	W04
	BYTE		N04     Cn6   v116
	BYTE	W01
	BYTE		N02     An5   v104
	BYTE	W05
	BYTE		N09     Gn1 
	BYTE		N09     As1   v092
	BYTE	W01
	BYTE		        Dn2 
	BYTE		N09     Gn2 
	BYTE	W01
	BYTE		        Dn3 
	BYTE		N14     Gn3 
	BYTE	W10
	BYTE		N09     Gn1   v104
	BYTE		N09     As1   v092
	BYTE	W01
	BYTE		N05     Dn5   v104
	BYTE		N04     Gn5 
	BYTE	W01
	BYTE		N02     Dn6 
	BYTE	W04
	BYTE		N05   
	BYTE		N05     Gn6   v116
	BYTE	W01
	BYTE		N03     Gn5   v104
	BYTE	W01
	BYTE		N02     Dn5 
	BYTE	W04
	BYTE		N09     Gn1 
	BYTE		N09     As1   v092
	BYTE	W01
	BYTE		        Dn2 
	BYTE		N09     Gn2 
	BYTE	W01
	BYTE		        Dn3 
	BYTE		N14     Gn3 
	BYTE	W10
	BYTE		N10     Gn1   v104
	BYTE		N10     As1   v092
	BYTE	W01
	BYTE		N04     Dn5   v104
	BYTE		N04     Gn5 
	BYTE	W01
	BYTE		N02     Dn6 
	BYTE	W04
	BYTE		N05   
	BYTE		N05     Gn6   v116
	BYTE	W01
	BYTE		N04     Dn5   v104
	BYTE		N04     Gn5 
	BYTE	W05
	BYTE		N09     Fn1 
	BYTE		N09     As1   v092
	BYTE	W01
// 041   ----------------------------------------
	BYTE	PATT
	 POIN2	SteelCockpit0_1_001
// 042   ----------------------------------------
	BYTE	W05
	BYTE		N15     Cn3   v092
	BYTE		N15     En3   v104
	BYTE	W01
	BYTE		N04     Gn5 
	BYTE	W01
	BYTE		N02     En5 
	BYTE	W04
	BYTE		N09     En1 
	BYTE		N10     Cn2   v092
	BYTE	W01
	BYTE		N09     En2 
	BYTE	W01
	BYTE		N14     Gn2 
	BYTE	W10
	BYTE		N09     En1   v104
	BYTE	W01
	BYTE		N04     Cn5 
	BYTE		N04     En5 
	BYTE	W05
	BYTE		N09     Gn2 
	BYTE	W01
	BYTE		N03     Cn5 
	BYTE		N04     En5 
	BYTE	W05
	BYTE		N09     En1 
	BYTE	W01
	BYTE		N05     Cn5 
	BYTE	W01
	BYTE		N03     En5 
	BYTE	W04
	BYTE		        Gn5   v116
	BYTE	W01
	BYTE		N02     En5   v104
	BYTE	W01
	BYTE		N01     Cn5 
	BYTE	W13
	BYTE	GoTo
	 POIN2	SteelCockpit0_1_B1
SteelCockpit0_1_B2:
	BYTE	FINE

//**************** Track 2 (Midi-Chn.3) ****************//

SteelCockpit0_2:
	BYTE	KEYSH   SteelCockpit0_key+0
// 000   ----------------------------------------
	BYTE		VOICE   41
	BYTE		VOL     14*SteelCockpit0_mvl/mxv
	BYTE	W01
	BYTE		PAN     c_v-40
	BYTE	W01
	BYTE		BEND    c_v+0
	BYTE	W10
	BYTE		N06     An3   v124
	BYTE	W06
	BYTE		        As3 
	BYTE	W06
	BYTE		        Cn4 
	BYTE	W06
	BYTE		        Dn4 
	BYTE	W06
	BYTE		        En4 
	BYTE	W06
	BYTE		        Fs4 
	BYTE	W06
	BYTE		N32     Gn4 
	BYTE	W36
	BYTE		N06   
	BYTE	W06
	BYTE		        An4 
	BYTE	W06
// 001   ----------------------------------------
SteelCockpit0_2_001:
	BYTE		N32     As4   v124
	BYTE	W36
	BYTE		N06   
	BYTE	W06
	BYTE		        Cn5 
	BYTE	W06
	BYTE		N12     Dn5 
	BYTE	W12
	BYTE		N06     Gn5 
	BYTE	W12
	BYTE		N12     Dn5 
	BYTE	W12
	BYTE		N06     Gn5 
	BYTE	W12
	BYTE	PEND
// 002   ----------------------------------------
	BYTE		N48     Gn4 
	BYTE	W48
SteelCockpit0_2_B1:
	BYTE		N12     An4   v124
	BYTE	W12
	BYTE		        Gn4 
	BYTE	W12
	BYTE		        An4 
	BYTE	W12
	BYTE		N24     En5 
	BYTE	W12
// 003   ----------------------------------------
	BYTE	W12
	BYTE		N21     An4 
	BYTE	W24
	BYTE		N12   
	BYTE	W12
	BYTE		N44     Dn5 
	BYTE	W48
// 004   ----------------------------------------
	BYTE		N05   
	BYTE	W06
	BYTE		        Cn5 
	BYTE	W06
	BYTE		        As4 
	BYTE	W06
	BYTE		        An4 
	BYTE	W06
	BYTE		        Gn4 
	BYTE	W06
	BYTE		        Fn4 
	BYTE	W06
	BYTE		        Ds4 
	BYTE	W06
	BYTE		        Dn4 
	BYTE	W06
	BYTE		N48     Gn4 
	BYTE	W48
// 005   ----------------------------------------
	BYTE	W06
	BYTE		N05   
	BYTE	W06
	BYTE		        An4 
	BYTE	W06
	BYTE		        As4 
	BYTE	W06
	BYTE		        Cn5 
	BYTE	W06
	BYTE		        Dn5 
	BYTE	W06
	BYTE		        Ds5 
	BYTE	W06
	BYTE		        Fn5 
	BYTE	W06
	BYTE		N88     Gn5 
	BYTE	W48
// 006   ----------------------------------------
	BYTE	W96
// 007   ----------------------------------------
	BYTE	W96
// 008   ----------------------------------------
	BYTE	W96
// 009   ----------------------------------------
	BYTE	W96
// 010   ----------------------------------------
	BYTE	W96
// 011   ----------------------------------------
	BYTE	W96
// 012   ----------------------------------------
	BYTE	W96
// 013   ----------------------------------------
	BYTE	W96
// 014   ----------------------------------------
	BYTE	W72
	BYTE		N24     As4   v116
	BYTE	W24
// 015   ----------------------------------------
	BYTE		        Gn4 
	BYTE	W24
	BYTE		        Ds5 
	BYTE	W24
	BYTE		        An4 
	BYTE	W24
	BYTE		N12     Dn4 
	BYTE	W12
	BYTE		N60     Fn4 
	BYTE	W12
// 016   ----------------------------------------
	BYTE	W48
	BYTE		N36     Gs4 
	BYTE	W36
	BYTE		N06     As4 
	BYTE	W06
	BYTE		        Cn5 
	BYTE	W06
// 017   ----------------------------------------
	BYTE		N18     Ds5 
	BYTE	W18
	BYTE		        Cn5 
	BYTE	W18
	BYTE		N36     Dn5 
	BYTE	W36
	BYTE		N24     As4 
	BYTE	W24
// 018   ----------------------------------------
	BYTE		        Gn4 
	BYTE	W24
	BYTE		N12     Fn4 
	BYTE	W12
	BYTE		N36     Gn4 
	BYTE	W36
	BYTE		N24     As4 
	BYTE	W24
// 019   ----------------------------------------
	BYTE		        Gn4 
	BYTE	W24
	BYTE		        Ds5 
	BYTE	W24
	BYTE		        An4 
	BYTE	W24
	BYTE		N12     Fn4 
	BYTE	W12
	BYTE		N60     Dn5 
	BYTE	W12
// 020   ----------------------------------------
	BYTE	W48
	BYTE		N48     Gn4 
	BYTE	W48
// 021   ----------------------------------------
	BYTE		N06     Cs5   v124
	BYTE	W06
	BYTE		        As4 
	BYTE	W06
	BYTE		        An4 
	BYTE	W06
	BYTE		        Gn4 
	BYTE	W06
	BYTE		        En4 
	BYTE	W06
	BYTE		        Dn4 
	BYTE	W06
	BYTE		        En4 
	BYTE	W06
	BYTE		        Gn4 
	BYTE	W06
	BYTE		N88     Fs4 
	BYTE	W48
// 022   ----------------------------------------
	BYTE	W96
// 023   ----------------------------------------
	BYTE	W06
	BYTE		N06     Dn4 
	BYTE	W06
	BYTE		        En4 
	BYTE	W06
	BYTE		        Fs4 
	BYTE	W06
	BYTE		        Gn4 
	BYTE	W06
	BYTE		        An4 
	BYTE	W06
	BYTE		        As4 
	BYTE	W06
	BYTE		        Cn5 
	BYTE	W06
	BYTE		TIE     Dn5 
	BYTE	W48
// 024   ----------------------------------------
	BYTE	W64
	BYTE	W01
	BYTE		EOT   
	BYTE	W07
	BYTE		N24     Cn5   v120
	BYTE	W24
// 025   ----------------------------------------
SteelCockpit0_2_025:
	BYTE		N24     Fn5   v120
	BYTE	W24
	BYTE		        An4 
	BYTE	W24
	BYTE		        Gn4 
	BYTE	W24
	BYTE		N12     As4 
	BYTE	W12
	BYTE		N24     Ds5 
	BYTE	W12
	BYTE	PEND
// 026   ----------------------------------------
	BYTE	W12
	BYTE		N12     Fn5 
	BYTE	W12
	BYTE		N24     Ds5 
	BYTE	W24
	BYTE		N96     Dn5 
	BYTE	W48
// 027   ----------------------------------------
	BYTE	W48
	BYTE		N24     As4 
	BYTE	W24
	BYTE		N42     Ds5 
	BYTE	W24
// 028   ----------------------------------------
	BYTE	W18
	BYTE		N18     As4 
	BYTE	W18
	BYTE		N12     Ds5 
	BYTE	W12
	BYTE		N56     Cn5 
	BYTE	W48
// 029   ----------------------------------------
	BYTE	W12
	BYTE		N12   
	BYTE	W12
	BYTE		        An4 
	BYTE	W12
	BYTE		        Cn5 
	BYTE	W12
	BYTE		N60     En5 
	BYTE	W48
// 030   ----------------------------------------
	BYTE	W12
	BYTE		N24     Cn5 
	BYTE	W24
	BYTE		N12     Gn4 
	BYTE	W12
	BYTE		N60     Fs4 
	BYTE	W48
// 031   ----------------------------------------
	BYTE	W12
	BYTE		N06     En4   v124
	BYTE	W06
	BYTE		        Fs4 
	BYTE	W06
	BYTE		        Gn4 
	BYTE	W06
	BYTE		        An4 
	BYTE	W06
	BYTE		        As4 
	BYTE	W06
	BYTE		        Cn5 
	BYTE	W06
	BYTE		TIE     Dn5 
	BYTE	W48
// 032   ----------------------------------------
	BYTE	W64
	BYTE	W01
	BYTE		EOT   
	BYTE	W07
	BYTE		N24     Cn5   v120
	BYTE	W24
// 033   ----------------------------------------
	BYTE	PATT
	 POIN2	SteelCockpit0_2_025
// 034   ----------------------------------------
	BYTE	W12
	BYTE		N12     Fn5   v120
	BYTE	W12
	BYTE		N24     Ds5 
	BYTE	W24
	BYTE		        Dn5 
	BYTE	W24
	BYTE		        Cn5 
	BYTE	W24
// 035   ----------------------------------------
	BYTE		N48     An4 
	BYTE	W48
	BYTE		N24     As4 
	BYTE	W24
	BYTE		N42     Ds5 
	BYTE	W24
// 036   ----------------------------------------
	BYTE	W18
	BYTE		N18     As4 
	BYTE	W18
	BYTE		N12     Ds5 
	BYTE	W12
	BYTE		N60     Fn5 
	BYTE	W48
// 037   ----------------------------------------
	BYTE	W12
	BYTE		N24     Cn5 
	BYTE	W24
	BYTE		N12     Fn5 
	BYTE	W12
	BYTE		N24     En5 
	BYTE	W24
	BYTE		N36     Cn5 
	BYTE	W24
// 038   ----------------------------------------
	BYTE	W12
	BYTE		N24     Gn4 
	BYTE	W24
	BYTE		N12     Cn5   v116
	BYTE	W12
	BYTE		N92     An4 
	BYTE	W48
// 039   ----------------------------------------
	BYTE	W96
// 040   ----------------------------------------
	BYTE	W12
	BYTE		N06     An3   v124
	BYTE	W06
	BYTE		        As3 
	BYTE	W06
	BYTE		        Cn4 
	BYTE	W06
	BYTE		        Dn4 
	BYTE	W06
	BYTE		        En4 
	BYTE	W06
	BYTE		        Fs4 
	BYTE	W06
	BYTE		N32     Gn4 
	BYTE	W36
	BYTE		N06   
	BYTE	W06
	BYTE		        An4 
	BYTE	W06
// 041   ----------------------------------------
	BYTE	PATT
	 POIN2	SteelCockpit0_2_001
// 042   ----------------------------------------
	BYTE		N44     Gn4   v124
	BYTE	W56
	BYTE	GoTo
	 POIN2	SteelCockpit0_2_B1
SteelCockpit0_2_B2:
	BYTE	FINE

//**************** Track 3 (Midi-Chn.4) ****************//

SteelCockpit0_3:
	BYTE	KEYSH   SteelCockpit0_key+0
// 000   ----------------------------------------
	BYTE		VOICE   63
	BYTE		VOL     29*SteelCockpit0_mvl/mxv
	BYTE	W01
	BYTE		PAN     c_v+4
	BYTE	W01
	BYTE		BEND    c_v+0
	BYTE	W44
	BYTE	W02
	BYTE		N28     As3   v108
	BYTE		N28     Dn4 
	BYTE		N28     Gn4   v120
	BYTE	W06
	BYTE		BEND    c_v+1
	BYTE	W01
	BYTE		        c_v+2
	BYTE	W02
	BYTE		        c_v+1
	BYTE	W01
	BYTE		        c_v+0
	BYTE	W02
	BYTE		        c_v-1
	BYTE	W01
	BYTE		        c_v+0
	BYTE	W02
	BYTE		        c_v+1
	BYTE	W01
	BYTE		        c_v+2
	BYTE	W02
	BYTE		        c_v+3
	BYTE	W01
	BYTE		        c_v+2
	BYTE	W02
	BYTE		        c_v+1
	BYTE	W01
	BYTE		        c_v+0
	BYTE	W02
	BYTE		        c_v-1
	BYTE	W01
	BYTE		        c_v-2
	BYTE	W02
	BYTE		        c_v-1
	BYTE	W01
	BYTE		        c_v+0
	BYTE	W08
	BYTE		N03     As3   v108
	BYTE		N03     Dn4 
	BYTE		N03     Gn4   v120
	BYTE	W06
	BYTE		        Dn4   v108
	BYTE		N03     An4   v120
	BYTE	W06
// 001   ----------------------------------------
SteelCockpit0_3_001:
	BYTE		N28     Dn4   v108
	BYTE		N28     Fn4 
	BYTE		N28     As4   v120
	BYTE	W06
	BYTE		BEND    c_v+1
	BYTE	W01
	BYTE		        c_v+2
	BYTE	W02
	BYTE		        c_v+1
	BYTE	W01
	BYTE		        c_v+0
	BYTE	W02
	BYTE		        c_v-1
	BYTE	W01
	BYTE		        c_v+0
	BYTE	W02
	BYTE		        c_v+1
	BYTE	W01
	BYTE		        c_v+2
	BYTE	W02
	BYTE		        c_v+3
	BYTE	W01
	BYTE		        c_v+2
	BYTE	W02
	BYTE		        c_v+1
	BYTE	W01
	BYTE		        c_v+0
	BYTE	W02
	BYTE		        c_v-1
	BYTE	W01
	BYTE		        c_v-2
	BYTE	W02
	BYTE		        c_v-1
	BYTE	W01
	BYTE		        c_v+0
	BYTE	W08
	BYTE		N03     Dn4   v108
	BYTE		N03     Fn4 
	BYTE		N03     As4   v120
	BYTE	W06
	BYTE		        Fn4   v108
	BYTE		N03     Cn5   v120
	BYTE	W06
	BYTE		N64     En4   v108
	BYTE		N64     Gn4 
	BYTE		N64     Dn5   v120
	BYTE	W06
	BYTE		BEND    c_v+1
	BYTE	W01
	BYTE		        c_v+2
	BYTE	W02
	BYTE		        c_v+1
	BYTE	W01
	BYTE		        c_v+0
	BYTE	W02
	BYTE		        c_v-1
	BYTE	W01
	BYTE		        c_v+0
	BYTE	W02
	BYTE		        c_v+1
	BYTE	W01
	BYTE		        c_v+2
	BYTE	W02
	BYTE		        c_v+3
	BYTE	W01
	BYTE		        c_v+2
	BYTE	W02
	BYTE		        c_v+1
	BYTE	W01
	BYTE		        c_v+0
	BYTE	W02
	BYTE		        c_v-1
	BYTE	W01
	BYTE		        c_v-2
	BYTE	W02
	BYTE		        c_v-1
	BYTE	W01
	BYTE		        c_v+0
	BYTE	W02
	BYTE		        c_v+1
	BYTE	W01
	BYTE		        c_v+2
	BYTE	W02
	BYTE		        c_v+3
	BYTE	W01
	BYTE		        c_v+4
	BYTE	W02
	BYTE		        c_v+3
	BYTE	W01
	BYTE		        c_v+2
	BYTE	W02
	BYTE		        c_v+1
	BYTE	W01
	BYTE		        c_v+0
	BYTE	W02
	BYTE		        c_v-1
	BYTE	W01
	BYTE		        c_v-2
	BYTE	W02
	BYTE		        c_v-1
	BYTE	W01
	BYTE		        c_v+0
	BYTE	W02
	BYTE	PEND
// 002   ----------------------------------------
	BYTE		        c_v+2
	BYTE	W01
	BYTE		        c_v+3
	BYTE	W02
	BYTE		        c_v+4
	BYTE	W01
	BYTE		        c_v+5
	BYTE	W02
	BYTE		        c_v+4
	BYTE	W01
	BYTE		        c_v+3
	BYTE	W02
	BYTE		        c_v+2
	BYTE	W01
	BYTE		        c_v+0
	BYTE	W02
	BYTE		        c_v-1
	BYTE	W01
	BYTE		        c_v-2
	BYTE	W02
	BYTE		        c_v-1
	BYTE	W01
	BYTE		        c_v+0
	BYTE	W08
	BYTE		N05     En4   v108
	BYTE		N05     Gn4 
	BYTE		N05     Cn5   v120
	BYTE	W12
	BYTE		        Dn4   v108
	BYTE		N05     Fn4 
	BYTE		N05     As4   v120
	BYTE	W12
SteelCockpit0_3_B1:
	BYTE		N17     Cs4   v108
	BYTE		N17     En4 
	BYTE		N17     An4   v120
	BYTE	W06
	BYTE		BEND    c_v+1
	BYTE	W01
	BYTE		        c_v+2
	BYTE	W02
	BYTE		        c_v+1
	BYTE	W01
	BYTE		        c_v+0
	BYTE	W02
	BYTE		        c_v-1
	BYTE	W01
	BYTE		        c_v-2
	BYTE	W02
	BYTE		        c_v-1
	BYTE	W01
	BYTE		        c_v+0
	BYTE	W08
	BYTE		N17     Dn4   v108
	BYTE		N17     Gn4 
	BYTE		N17     Bn4   v120
	BYTE	W06
	BYTE		BEND    c_v+1
	BYTE	W01
	BYTE		        c_v+2
	BYTE	W02
	BYTE		        c_v+1
	BYTE	W01
	BYTE		        c_v+0
	BYTE	W02
	BYTE		        c_v-1
	BYTE	W01
	BYTE		        c_v-2
	BYTE	W02
	BYTE		        c_v-1
	BYTE	W01
	BYTE		        c_v+0
	BYTE	W08
// 003   ----------------------------------------
	BYTE		N11     En4   v108
	BYTE		N11     An4 
	BYTE		N11     Cs5   v120
	BYTE	W18
	BYTE		        An4   v108
	BYTE		N11     Cs5 
	BYTE		N11     En5   v120
	BYTE	W18
	BYTE		N09     Cs5   v108
	BYTE		N09     En5 
	BYTE		N09     Gn5   v120
	BYTE	W12
	BYTE		N28     Fs4   v108
	BYTE		N28     An4 
	BYTE		N28     Dn5   v120
	BYTE	W06
	BYTE		BEND    c_v+1
	BYTE	W01
	BYTE		        c_v+2
	BYTE	W02
	BYTE		        c_v+1
	BYTE	W01
	BYTE		        c_v+0
	BYTE	W02
	BYTE		        c_v-1
	BYTE	W01
	BYTE		        c_v+0
	BYTE	W02
	BYTE		        c_v+1
	BYTE	W01
	BYTE		        c_v+2
	BYTE	W02
	BYTE		        c_v+3
	BYTE	W01
	BYTE		        c_v+2
	BYTE	W02
	BYTE		        c_v+1
	BYTE	W01
	BYTE		        c_v+0
	BYTE	W02
	BYTE		        c_v-1
	BYTE	W01
	BYTE		        c_v-2
	BYTE	W02
	BYTE		        c_v-1
	BYTE	W01
	BYTE		        c_v+0
	BYTE	W08
	BYTE		N28     An4   v108
	BYTE		N28     Cs5 
	BYTE		N28     En5   v120
	BYTE	W06
	BYTE		BEND    c_v+1
	BYTE	W01
	BYTE		        c_v+2
	BYTE	W02
	BYTE		        c_v+1
	BYTE	W01
	BYTE		        c_v+0
	BYTE	W02
// 004   ----------------------------------------
	BYTE		        c_v-1
	BYTE	W01
	BYTE		        c_v+0
	BYTE	W02
	BYTE		        c_v+1
	BYTE	W01
	BYTE		        c_v+2
	BYTE	W02
	BYTE		        c_v+3
	BYTE	W01
	BYTE		        c_v+2
	BYTE	W02
	BYTE		        c_v+1
	BYTE	W01
	BYTE		        c_v+0
	BYTE	W02
	BYTE		        c_v-1
	BYTE	W01
	BYTE		        c_v-2
	BYTE	W02
	BYTE		        c_v-1
	BYTE	W01
	BYTE		        c_v+0
	BYTE	W08
	BYTE		N17     An4   v108
	BYTE		N17     Dn5 
	BYTE		N17     Fs5   v120
	BYTE	W06
	BYTE		BEND    c_v+1
	BYTE	W01
	BYTE		        c_v+2
	BYTE	W02
	BYTE		        c_v+1
	BYTE	W01
	BYTE		        c_v+0
	BYTE	W02
	BYTE		        c_v-1
	BYTE	W01
	BYTE		        c_v-2
	BYTE	W02
	BYTE		        c_v-1
	BYTE	W01
	BYTE		        c_v+0
	BYTE	W08
	BYTE		N11     Gn4   v108
	BYTE		N11     As4 
	BYTE		N11     Dn5 
	BYTE		N11     Gn5   v120
	BYTE	W12
	BYTE		N03     Fn5   v108
	BYTE	W02
	BYTE		        Dn5 
	BYTE	W02
	BYTE		        Bn4 
	BYTE	W02
	BYTE		        Gn4 
	BYTE	W02
	BYTE		        En4 
	BYTE	W02
	BYTE		        Cn4 
	BYTE	W08
	BYTE		N11     Dn5   v096
	BYTE		N11     Gn5   v108
	BYTE	W12
	BYTE		N03     Fn5   v096
	BYTE	W02
	BYTE		        Dn5 
	BYTE	W02
	BYTE		        Bn4 
	BYTE	W02
// 005   ----------------------------------------
	BYTE		        Gn4 
	BYTE	W02
	BYTE		        En4 
	BYTE	W02
	BYTE		        Cn4 
	BYTE	W08
	BYTE		N11     Dn5   v080
	BYTE		N11     Gn5   v096
	BYTE	W12
	BYTE		N03     Fn5   v080
	BYTE	W02
	BYTE		        Dn5 
	BYTE	W02
	BYTE		        Bn4 
	BYTE	W02
	BYTE		        Gn4 
	BYTE	W02
	BYTE		        En4 
	BYTE	W02
	BYTE		        Cn4 
	BYTE	W60
	BYTE	W02
// 006   ----------------------------------------
	BYTE	W96
// 007   ----------------------------------------
	BYTE	W96
// 008   ----------------------------------------
	BYTE	W96
// 009   ----------------------------------------
	BYTE	W96
// 010   ----------------------------------------
	BYTE	W96
// 011   ----------------------------------------
	BYTE	W96
// 012   ----------------------------------------
	BYTE	W96
// 013   ----------------------------------------
	BYTE	W96
// 014   ----------------------------------------
	BYTE	W96
// 015   ----------------------------------------
	BYTE	W96
// 016   ----------------------------------------
	BYTE	W96
// 017   ----------------------------------------
	BYTE	W96
// 018   ----------------------------------------
	BYTE	W96
// 019   ----------------------------------------
	BYTE	W96
// 020   ----------------------------------------
	BYTE	W96
// 021   ----------------------------------------
	BYTE	W96
// 022   ----------------------------------------
	BYTE	W96
// 023   ----------------------------------------
	BYTE	W96
// 024   ----------------------------------------
	BYTE	W96
// 025   ----------------------------------------
	BYTE	W96
// 026   ----------------------------------------
	BYTE	W96
// 027   ----------------------------------------
	BYTE	W96
// 028   ----------------------------------------
	BYTE	W96
// 029   ----------------------------------------
	BYTE	W96
// 030   ----------------------------------------
	BYTE	W96
// 031   ----------------------------------------
	BYTE	W96
// 032   ----------------------------------------
	BYTE	W96
// 033   ----------------------------------------
	BYTE	W96
// 034   ----------------------------------------
	BYTE	W96
// 035   ----------------------------------------
	BYTE	W96
// 036   ----------------------------------------
	BYTE	W96
// 037   ----------------------------------------
	BYTE	W96
// 038   ----------------------------------------
	BYTE	W96
// 039   ----------------------------------------
	BYTE	W96
// 040   ----------------------------------------
	BYTE	W48
	BYTE		N28     As3   v108
	BYTE		N28     Dn4 
	BYTE		N28     Gn4   v120
	BYTE	W06
	BYTE		BEND    c_v+1
	BYTE	W01
	BYTE		        c_v+2
	BYTE	W02
	BYTE		        c_v+1
	BYTE	W01
	BYTE		        c_v+0
	BYTE	W02
	BYTE		        c_v-1
	BYTE	W01
	BYTE		        c_v+0
	BYTE	W02
	BYTE		        c_v+1
	BYTE	W01
	BYTE		        c_v+2
	BYTE	W02
	BYTE		        c_v+3
	BYTE	W01
	BYTE		        c_v+2
	BYTE	W02
	BYTE		        c_v+1
	BYTE	W01
	BYTE		        c_v+0
	BYTE	W02
	BYTE		        c_v-1
	BYTE	W01
	BYTE		        c_v-2
	BYTE	W02
	BYTE		        c_v-1
	BYTE	W01
	BYTE		        c_v+0
	BYTE	W08
	BYTE		N03     As3   v108
	BYTE		N03     Dn4 
	BYTE		N03     Gn4   v120
	BYTE	W06
	BYTE		        Dn4   v108
	BYTE		N03     An4   v120
	BYTE	W06
// 041   ----------------------------------------
	BYTE	PATT
	 POIN2	SteelCockpit0_3_001
// 042   ----------------------------------------
	BYTE		BEND    c_v+2
	BYTE	W01
	BYTE		        c_v+3
	BYTE	W02
	BYTE		        c_v+4
	BYTE	W01
	BYTE		        c_v+5
	BYTE	W02
	BYTE		        c_v+4
	BYTE	W01
	BYTE		        c_v+3
	BYTE	W02
	BYTE		        c_v+2
	BYTE	W01
	BYTE		        c_v+0
	BYTE	W02
	BYTE		        c_v-1
	BYTE	W01
	BYTE		        c_v-2
	BYTE	W02
	BYTE		        c_v-1
	BYTE	W01
	BYTE		        c_v+0
	BYTE	W08
	BYTE		N05     En4   v108
	BYTE		N05     Gn4 
	BYTE		N05     Cn5   v120
	BYTE	W12
	BYTE		        Dn4   v108
	BYTE		N05     Fn4 
	BYTE		N05     As4   v120
	BYTE	W20
	BYTE	GoTo
	 POIN2	SteelCockpit0_3_B1
SteelCockpit0_3_B2:
	BYTE	FINE

//**************** Track 4 (Midi-Chn.5) ****************//

SteelCockpit0_4:
	BYTE	KEYSH   SteelCockpit0_key+0
// 000   ----------------------------------------
	BYTE		VOICE   47
	BYTE		VOL     31*SteelCockpit0_mvl/mxv
	BYTE	W01
	BYTE		PAN     c_v+14
	BYTE	W01
	BYTE		BEND    c_v+0
	BYTE	W22
	BYTE		N24     Dn2   v120
	BYTE	W24
	BYTE		N44     Gn1   v127
	BYTE		N44     Gn2   v092
	BYTE	W48
// 001   ----------------------------------------
	BYTE	W96
// 002   ----------------------------------------
	BYTE	W48
SteelCockpit0_4_B1:
	BYTE	W48
// 003   ----------------------------------------
	BYTE	W72
	BYTE		N21     An1   v120
	BYTE	W12
	BYTE		        Dn2 
	BYTE	W12
// 004   ----------------------------------------
	BYTE		        An0 
	BYTE	W12
	BYTE		        Dn1 
	BYTE	W12
	BYTE		N15     An1 
	BYTE	W12
	BYTE		N10     Dn2 
	BYTE	W12
	BYTE		N44     Gn1   v127
	BYTE		N44     Gn2   v092
	BYTE	W48
// 005   ----------------------------------------
	BYTE	W36
	BYTE		N15     Dn1   v120
	BYTE	W12
	BYTE		N44     Gn1   v127
	BYTE		N44     Gn2   v092
	BYTE	W48
// 006   ----------------------------------------
	BYTE	W96
// 007   ----------------------------------------
	BYTE	W96
// 008   ----------------------------------------
	BYTE	W96
// 009   ----------------------------------------
	BYTE	W96
// 010   ----------------------------------------
	BYTE	W36
	BYTE		N15     Dn2   v120
	BYTE	W12
	BYTE		N44     Gn1   v127
	BYTE		N44     Gn2   v092
	BYTE	W48
// 011   ----------------------------------------
	BYTE	W96
// 012   ----------------------------------------
	BYTE	W96
// 013   ----------------------------------------
	BYTE	W96
// 014   ----------------------------------------
SteelCockpit0_4_014:
	BYTE	W66
	BYTE		N04     Ds0   v104
	BYTE	W03
	BYTE		N02     Ds1   v108
	BYTE	W03
	BYTE		N44     Ds1   v104
	BYTE		N44     Ds2   v124
	BYTE	W24
	BYTE	PEND
// 015   ----------------------------------------
	BYTE	W96
// 016   ----------------------------------------
	BYTE	W96
// 017   ----------------------------------------
	BYTE	W96
// 018   ----------------------------------------
	BYTE	PATT
	 POIN2	SteelCockpit0_4_014
// 019   ----------------------------------------
	BYTE	W96
// 020   ----------------------------------------
	BYTE	W96
// 021   ----------------------------------------
	BYTE	W96
// 022   ----------------------------------------
	BYTE	W96
// 023   ----------------------------------------
	BYTE	W36
	BYTE		N15     Dn2   v116
	BYTE	W12
	BYTE		N44     Gn1   v127
	BYTE		N44     Gn2   v092
	BYTE	W48
// 024   ----------------------------------------
	BYTE	W96
// 025   ----------------------------------------
	BYTE	W96
// 026   ----------------------------------------
	BYTE	W96
// 027   ----------------------------------------
	BYTE	W96
// 028   ----------------------------------------
	BYTE	W96
// 029   ----------------------------------------
	BYTE	W96
// 030   ----------------------------------------
	BYTE	W60
	BYTE		N15     An1   v120
	BYTE	W12
	BYTE		        Dn2 
	BYTE	W12
	BYTE		        An0 
	BYTE	W12
// 031   ----------------------------------------
	BYTE		        Dn1 
	BYTE	W12
	BYTE		        An1 
	BYTE	W12
	BYTE		        Dn2 
	BYTE	W12
	BYTE		        An0 
	BYTE	W12
	BYTE		N44     Gn1   v124
	BYTE		N44     Gn2   v088
	BYTE	W48
// 032   ----------------------------------------
	BYTE	W96
// 033   ----------------------------------------
	BYTE	W96
// 034   ----------------------------------------
	BYTE	W96
// 035   ----------------------------------------
	BYTE	W96
// 036   ----------------------------------------
	BYTE	W96
// 037   ----------------------------------------
	BYTE	W96
// 038   ----------------------------------------
	BYTE	W96
// 039   ----------------------------------------
	BYTE	W48
	BYTE		N23     Dn2   v124
	BYTE	W12
	BYTE		N24     An1   v120
	BYTE	W12
	BYTE		N44     Dn1   v124
	BYTE		N44     Dn2   v104
	BYTE	W24
// 040   ----------------------------------------
	BYTE	W96
// 041   ----------------------------------------
	BYTE	W96
// 042   ----------------------------------------
	BYTE	W56
	BYTE	GoTo
	 POIN2	SteelCockpit0_4_B1
SteelCockpit0_4_B2:
	BYTE	FINE

//**************** Track 5 (Midi-Chn.6) ****************//

SteelCockpit0_5:
	BYTE	KEYSH   SteelCockpit0_key+0
// 000   ----------------------------------------
	BYTE		VOICE   36
	BYTE		VOL     23*SteelCockpit0_mvl/mxv
	BYTE	W01
	BYTE		PAN     c_v+0
	BYTE	W01
	BYTE		BEND    c_v+0
	BYTE	W44
	BYTE	W02
	BYTE		N06     Gn4   v124
	BYTE	W12
	BYTE		        Gn2   v116
	BYTE		N08     Gn4 
	BYTE	W12
	BYTE		        Gn2   v104
	BYTE		N06     Gn4   v124
	BYTE	W12
	BYTE		        Gn2   v116
	BYTE		N08     Gn4 
	BYTE	W12
// 001   ----------------------------------------
SteelCockpit0_5_001:
	BYTE		N08     Gn2   v104
	BYTE		N06     Fn4   v124
	BYTE	W12
	BYTE		        Fn2   v116
	BYTE		N08     Fn4 
	BYTE	W12
	BYTE		        Fn2   v104
	BYTE		N06     Fn4   v124
	BYTE	W12
	BYTE		        Fn2   v116
	BYTE		N08     Fn4 
	BYTE	W12
	BYTE		        Fn2   v104
	BYTE		N06     En4   v124
	BYTE	W12
	BYTE		        En2   v116
	BYTE		N08     En4 
	BYTE	W12
	BYTE		        En2   v104
	BYTE		N06     En4   v124
	BYTE	W12
	BYTE		        En2   v116
	BYTE		N08     En4 
	BYTE	W12
	BYTE	PEND
// 002   ----------------------------------------
	BYTE		        En2   v104
	BYTE		N06     En4   v124
	BYTE	W12
	BYTE		        En2   v116
	BYTE		N08     En4 
	BYTE	W12
	BYTE		        En2   v104
	BYTE		N06     En4   v124
	BYTE	W12
	BYTE		        En2   v116
	BYTE		N08     En4 
	BYTE	W12
SteelCockpit0_5_B1:
	BYTE		N08     En2   v104
	BYTE		N06     An4   v124
	BYTE	W12
	BYTE		        An2   v116
	BYTE		N08     An4 
	BYTE	W12
	BYTE		        An2   v104
	BYTE		N06     An4   v124
	BYTE	W12
	BYTE		        An2   v116
	BYTE		N08     An4 
	BYTE	W12
// 003   ----------------------------------------
	BYTE		        An2   v104
	BYTE		N06     An4   v124
	BYTE	W12
	BYTE		        An2   v116
	BYTE		N08     An4 
	BYTE	W12
	BYTE		        An2   v104
	BYTE		N06     An4   v124
	BYTE	W12
	BYTE		        An2   v116
	BYTE		N08     An4 
	BYTE	W12
	BYTE		        An2   v104
	BYTE		N06     Dn5   v124
	BYTE	W12
	BYTE		        Dn3   v116
	BYTE		N08     Dn5 
	BYTE	W12
	BYTE		        Dn3   v104
	BYTE		N06     Dn5   v124
	BYTE	W12
	BYTE		        Dn3   v116
	BYTE		N08     Dn5 
	BYTE	W12
// 004   ----------------------------------------
	BYTE		        Dn3   v104
	BYTE		N06     Dn5   v124
	BYTE	W12
	BYTE		        Dn3   v116
	BYTE		N08     Dn5 
	BYTE	W12
	BYTE		        Dn3   v104
	BYTE		N06     Dn5   v124
	BYTE	W12
	BYTE		        Dn3   v116
	BYTE		N08     Dn5 
	BYTE	W12
	BYTE		        Dn3   v104
	BYTE		N06     Gn4   v124
	BYTE	W12
	BYTE		        Gn2   v116
	BYTE		N08     Fn4 
	BYTE	W12
	BYTE		        Fn2   v104
	BYTE		N04     Gn4   v124
	BYTE	W06
	BYTE		N09     Fn4   v116
	BYTE	W06
	BYTE		N04     Gn2 
	BYTE	W06
	BYTE		N09     Fn2   v104
	BYTE		N10     Gn4   v124
	BYTE	W06
// 005   ----------------------------------------
	BYTE	W06
	BYTE		        Gn2   v116
	BYTE		N04     As4 
	BYTE	W06
	BYTE		N09     Cn5   v124
	BYTE	W06
	BYTE		N04     As2   v104
	BYTE	W06
	BYTE		N09     Cn3   v116
	BYTE		N06     Dn5   v124
	BYTE	W12
	BYTE		        Dn3   v116
	BYTE		N11     Fn5 
	BYTE	W12
	BYTE		        Fn3   v104
	BYTE		N06     Gn5   v124
	BYTE	W12
	BYTE		        Gn3   v116
	BYTE		N08     Gn5 
	BYTE	W12
	BYTE		        Gn3   v104
	BYTE		N04     Fn5   v124
	BYTE	W06
	BYTE		N09     Dn5   v116
	BYTE	W06
	BYTE		N04     Fn3 
	BYTE	W06
	BYTE		N09     Dn3   v104
	BYTE		N10     Cn5   v124
	BYTE	W06
// 006   ----------------------------------------
	BYTE	W06
	BYTE		        Cn3   v116
	BYTE		N04     Dn5 
	BYTE	W06
	BYTE		N09     Cn5   v124
	BYTE	W06
	BYTE		N04     Dn3   v104
	BYTE	W06
	BYTE		N09     Cn3   v116
	BYTE		N06     As4   v124
	BYTE	W12
	BYTE		        As2   v116
	BYTE		N11     Fn4 
	BYTE	W12
	BYTE		        Fn2   v104
	BYTE		N06     Gn4   v120
	BYTE	W12
	BYTE		        Gn2   v108
	BYTE		N08     Gn4   v112
	BYTE	W12
	BYTE		        Gn2   v100
	BYTE		N04     Fn4   v120
	BYTE	W06
	BYTE		N09     Gn4   v112
	BYTE	W06
	BYTE		N04     Fn2   v108
	BYTE	W06
	BYTE		N09     Gn2   v100
	BYTE		N10     Gn4   v120
	BYTE	W06
// 007   ----------------------------------------
SteelCockpit0_5_007:
	BYTE	W06
	BYTE		N10     Gn2   v108
	BYTE		N04     Fn4   v112
	BYTE	W06
	BYTE		N09     Gn4   v120
	BYTE	W06
	BYTE		N04     Fn2   v100
	BYTE	W06
	BYTE		N09     Gn2   v108
	BYTE		N06     Cn5   v120
	BYTE	W12
	BYTE		        Cn3   v108
	BYTE		N11     Dn5   v112
	BYTE	W12
	BYTE		        Dn3   v100
	BYTE		N06     Gn4   v120
	BYTE	W12
	BYTE		        Gn2   v108
	BYTE		N08     Gn4   v112
	BYTE	W12
	BYTE		        Gn2   v100
	BYTE		N04     Gn5   v120
	BYTE	W06
	BYTE		N09     Fn5   v112
	BYTE	W06
	BYTE		N04     Gn3   v108
	BYTE	W06
	BYTE		N09     Fn3   v100
	BYTE		N10     Dn5   v120
	BYTE	W06
	BYTE	PEND
// 008   ----------------------------------------
	BYTE	W06
	BYTE		        Dn3   v108
	BYTE		N04     As4   v112
	BYTE	W06
	BYTE		N09     Gn4   v120
	BYTE	W06
	BYTE		N04     As2   v100
	BYTE	W06
	BYTE		N09     Gn2   v108
	BYTE		N06     Dn5   v120
	BYTE	W12
	BYTE		        Dn3   v108
	BYTE		N11     Gn5   v112
	BYTE	W12
	BYTE		        Gn3   v100
	BYTE		N06     Ds5   v120
	BYTE	W12
	BYTE		        Ds3   v108
	BYTE		N08     Ds5   v112
	BYTE	W12
	BYTE		        Ds3   v100
	BYTE		N04     Dn5   v120
	BYTE	W06
	BYTE		N09     Cn5   v112
	BYTE	W06
	BYTE		N04     Dn3   v108
	BYTE	W06
	BYTE		N09     Cn3   v100
	BYTE		N10     Ds5   v120
	BYTE	W06
// 009   ----------------------------------------
	BYTE	W06
	BYTE		        Ds3   v108
	BYTE		N04     As4   v112
	BYTE	W06
	BYTE		N09     Cn5   v120
	BYTE	W06
	BYTE		N04     As2   v100
	BYTE	W06
	BYTE		N09     Cn3   v108
	BYTE		N06     Dn5   v120
	BYTE	W12
	BYTE		        Dn3   v108
	BYTE		N11     Ds5   v112
	BYTE	W12
	BYTE		        Ds3   v100
	BYTE		N06     Fn4   v120
	BYTE	W12
	BYTE		        Fn2   v108
	BYTE		N08     Fn4   v112
	BYTE	W12
	BYTE		        Fn2   v100
	BYTE		N04     Gn4   v120
	BYTE	W06
	BYTE		N09     An4   v112
	BYTE	W06
	BYTE		N04     Gn2   v108
	BYTE	W06
	BYTE		N09     An2   v100
	BYTE		N10     Cn5   v120
	BYTE	W06
// 010   ----------------------------------------
	BYTE	W06
	BYTE		        Cn3   v108
	BYTE		N04     Fn4   v112
	BYTE	W06
	BYTE		N09     Cn5   v120
	BYTE	W06
	BYTE		N04     Fn2   v100
	BYTE	W06
	BYTE		N09     Cn3   v108
	BYTE		N06     Ds5   v120
	BYTE	W12
	BYTE		        Ds3   v108
	BYTE		N11     Fn5   v112
	BYTE	W12
	BYTE		        Fn3   v100
	BYTE		N06     Gn4   v120
	BYTE	W12
	BYTE		        Gn2   v108
	BYTE		N08     Gn4   v112
	BYTE	W12
	BYTE		        Gn2   v100
	BYTE		N04     Fn4   v120
	BYTE	W06
	BYTE		N09     Gn4   v112
	BYTE	W06
	BYTE		N04     Fn2   v108
	BYTE	W06
	BYTE		N09     Gn2   v100
	BYTE		N10     Gn4   v120
	BYTE	W06
// 011   ----------------------------------------
	BYTE	PATT
	 POIN2	SteelCockpit0_5_007
// 012   ----------------------------------------
	BYTE	W06
	BYTE		N10     Dn3   v108
	BYTE		N04     As4   v112
	BYTE	W06
	BYTE		N09     Gn4   v120
	BYTE	W06
	BYTE		N04     As2   v100
	BYTE	W06
	BYTE		N09     Gn2   v108
	BYTE		N06     Dn5   v120
	BYTE	W12
	BYTE		        Dn3   v108
	BYTE		N11     Gn5   v112
	BYTE	W12
	BYTE		        Gn3   v100
	BYTE		N06     Ds5   v120
	BYTE	W12
	BYTE		        Ds3   v108
	BYTE		N08     Ds5   v112
	BYTE	W12
	BYTE		        Ds3   v100
	BYTE		N04     Dn5   v120
	BYTE	W06
	BYTE		N09     Cn5   v112
	BYTE	W06
	BYTE		N04     Dn3   v108
	BYTE	W06
	BYTE		N09     Cn3   v100
	BYTE		N10     Fn5   v120
	BYTE	W06
// 013   ----------------------------------------
	BYTE	W06
	BYTE		        Fn3   v108
	BYTE		N04     Cn5   v112
	BYTE	W06
	BYTE		N09     Dn5   v120
	BYTE	W06
	BYTE		N04     Cn3   v100
	BYTE	W06
	BYTE		N09     Dn3   v108
	BYTE		N06     Fn5   v120
	BYTE	W12
	BYTE		        Fn3   v108
	BYTE		N11     Fn4   v112
	BYTE	W12
	BYTE		        Fn2   v100
	BYTE		N06     Gn4   v120
	BYTE	W12
	BYTE		        Gn2   v108
	BYTE		N08     Gn4   v112
	BYTE	W12
	BYTE		        Gn2   v100
	BYTE		N04     Gn5   v120
	BYTE	W06
	BYTE		N09     Fn5   v112
	BYTE	W06
	BYTE		N04     Gn3   v108
	BYTE	W06
	BYTE		N09     Fn3   v100
	BYTE		N10     Dn5   v120
	BYTE	W06
// 014   ----------------------------------------
	BYTE	W06
	BYTE		        Dn3   v108
	BYTE		N04     As4   v112
	BYTE	W06
	BYTE		N09     Gn4   v120
	BYTE	W06
	BYTE		N04     As2   v100
	BYTE	W06
	BYTE		N09     Gn2   v108
	BYTE		N06     Dn5   v120
	BYTE	W12
	BYTE		        Dn3   v108
	BYTE		N18     Ds5   v120
	BYTE	W12
	BYTE		        Ds3   v108
	BYTE	W12
	BYTE		        Ds5   v116
	BYTE	W12
	BYTE		        Ds3   v104
	BYTE	W12
	BYTE		N08     As4   v116
	BYTE	W12
// 015   ----------------------------------------
SteelCockpit0_5_015:
	BYTE		N08     As2   v104
	BYTE		N06     Cn5   v120
	BYTE	W06
	BYTE		N04     Dn5   v112
	BYTE	W06
	BYTE		N06     Cn3   v108
	BYTE		N09     Ds5   v120
	BYTE	W06
	BYTE		N04     Dn3   v100
	BYTE	W06
	BYTE		N09     Ds3   v108
	BYTE		N09     Gn5   v116
	BYTE	W12
	BYTE		        Gn3   v104
	BYTE		N11     As4   v112
	BYTE	W12
	BYTE		        As2   v100
	BYTE		N06     Dn5   v120
	BYTE	W12
	BYTE		        Dn3   v108
	BYTE		N18     Dn5   v116
	BYTE	W12
	BYTE		        Dn3   v104
	BYTE	W12
	BYTE		N08     An4   v116
	BYTE	W12
	BYTE	PEND
// 016   ----------------------------------------
	BYTE		        An2   v104
	BYTE		N06     As4   v120
	BYTE	W06
	BYTE		N04     Cn5   v112
	BYTE	W06
	BYTE		N06     As2   v108
	BYTE		N09     Dn5   v120
	BYTE	W06
	BYTE		N04     Cn3   v100
	BYTE	W06
	BYTE		N09     Dn3   v108
	BYTE		N09     An5   v116
	BYTE	W12
	BYTE		        An3   v104
	BYTE		N09     Dn5   v108
	BYTE	W12
	BYTE		        Dn3   v096
	BYTE		N06     Gs4   v120
	BYTE	W12
	BYTE		        Gs2   v108
	BYTE		N18     Gs4   v116
	BYTE	W12
	BYTE		        Gs2   v104
	BYTE	W12
	BYTE		N08     Cn5   v116
	BYTE	W12
// 017   ----------------------------------------
	BYTE		        Cn3   v104
	BYTE		N06     Fn5   v120
	BYTE	W06
	BYTE		N04     Gn5   v112
	BYTE	W06
	BYTE		N06     Fn3   v108
	BYTE		N09     Gs5   v116
	BYTE	W06
	BYTE		N04     Gn3   v100
	BYTE	W06
	BYTE		N09     Gs3   v104
	BYTE		N06     Fn5   v120
	BYTE	W06
	BYTE		N04     Cn5   v112
	BYTE	W06
	BYTE		N06     Fn3   v108
	BYTE		N09     Gs4   v116
	BYTE	W06
	BYTE		N04     Cn3   v100
	BYTE	W06
	BYTE		N09     Gs2   v104
	BYTE		N06     Gn5   v120
	BYTE	W12
	BYTE		        Gn3   v108
	BYTE		N08     Gn5   v112
	BYTE	W12
	BYTE		        Gn3   v100
	BYTE		N04     Fn5   v120
	BYTE	W06
	BYTE		N09     Dn5   v112
	BYTE	W06
	BYTE		N04     Fn3   v108
	BYTE	W06
	BYTE		N09     Dn3   v100
	BYTE		N10     Cn5   v120
	BYTE	W06
// 018   ----------------------------------------
	BYTE	W06
	BYTE		        Cn3   v108
	BYTE		N04     As4   v112
	BYTE	W06
	BYTE		N09     Gn4   v120
	BYTE	W06
	BYTE		N04     As2   v100
	BYTE	W06
	BYTE		N09     Gn2   v108
	BYTE		N06     Dn5   v120
	BYTE	W12
	BYTE		        Dn3   v108
	BYTE		N18     Ds5   v120
	BYTE	W12
	BYTE		        Ds3   v108
	BYTE	W12
	BYTE		        Ds5   v116
	BYTE	W12
	BYTE		        Ds3   v104
	BYTE	W12
	BYTE		N08     As4   v116
	BYTE	W12
// 019   ----------------------------------------
	BYTE	PATT
	 POIN2	SteelCockpit0_5_015
// 020   ----------------------------------------
	BYTE		N08     An2   v104
	BYTE		N06     As4   v120
	BYTE	W06
	BYTE		N04     Cn5   v112
	BYTE	W06
	BYTE		N06     As2   v108
	BYTE		N09     Dn5   v120
	BYTE	W06
	BYTE		N04     Cn3   v100
	BYTE	W06
	BYTE		N09     Dn3   v108
	BYTE		N09     An5   v116
	BYTE	W12
	BYTE		        An3   v104
	BYTE		N09     Dn5   v108
	BYTE	W12
	BYTE		        Dn3   v096
	BYTE		N06     Cn5   v120
	BYTE	W12
	BYTE		        Cn3   v108
	BYTE		N18     Cn5   v116
	BYTE	W12
	BYTE		        Cn3   v104
	BYTE	W12
	BYTE		N08     Gn4   v116
	BYTE	W12
// 021   ----------------------------------------
	BYTE		        Gn2   v104
	BYTE		N06     Cs5   v120
	BYTE	W06
	BYTE		N04     An4   v112
	BYTE	W06
	BYTE		N06     Cs3   v108
	BYTE		N09     Cs5   v120
	BYTE	W06
	BYTE		N04     An2   v100
	BYTE	W06
	BYTE		N09     Cs3   v108
	BYTE		N09     En5   v116
	BYTE	W12
	BYTE		        En3   v104
	BYTE		N09     An4   v108
	BYTE	W12
	BYTE		        An2   v096
	BYTE		N06     Dn5   v120
	BYTE	W12
	BYTE		        Dn3   v108
	BYTE		N08     Dn5   v112
	BYTE	W12
	BYTE		        Dn3   v100
	BYTE		N04     An5   v120
	BYTE	W06
	BYTE		N09     Fs5   v112
	BYTE	W06
	BYTE		N04     An3   v108
	BYTE	W06
	BYTE		N09     Fs3   v100
	BYTE		N10     Dn5   v120
	BYTE	W06
// 022   ----------------------------------------
	BYTE	W06
	BYTE		        Dn3   v108
	BYTE		N04     Cn5   v112
	BYTE	W06
	BYTE		N09     An4   v120
	BYTE	W06
	BYTE		N04     Cn3   v100
	BYTE	W06
	BYTE		N09     An2   v108
	BYTE		N06     Dn5   v120
	BYTE	W12
	BYTE		        Dn3   v108
	BYTE		N09     Fs5 
	BYTE	W12
	BYTE		        Fs3   v096
	BYTE		N16     Dn5   v120
	BYTE	W12
	BYTE		        Dn3   v108
	BYTE	W12
	BYTE		N10     Dn5   v120
	BYTE	W12
	BYTE		        Dn3   v108
	BYTE	W06
	BYTE		N08     Dn5   v120
	BYTE	W06
// 023   ----------------------------------------
	BYTE	W06
	BYTE		        Dn3   v108
	BYTE	W42
	BYTE		N06     Gn4   v120
	BYTE	W12
	BYTE		        Gn2   v108
	BYTE		N08     Gn4   v112
	BYTE	W12
	BYTE		        Gn2   v100
	BYTE		N04     Fn4   v120
	BYTE	W06
	BYTE		N09     Gn4   v112
	BYTE	W06
	BYTE		N04     Fn2   v108
	BYTE	W06
	BYTE		N09     Gn2   v100
	BYTE		N10     Gn4   v120
	BYTE	W06
// 024   ----------------------------------------
SteelCockpit0_5_024:
	BYTE	W06
	BYTE		N10     Gn2   v108
	BYTE		N04     Fn4   v112
	BYTE	W06
	BYTE		N09     Gn4   v120
	BYTE	W06
	BYTE		N04     Fn2   v100
	BYTE	W06
	BYTE		N09     Gn2   v108
	BYTE		N06     Cn5   v120
	BYTE	W12
	BYTE		        Cn3   v108
	BYTE		N11     Dn5   v112
	BYTE	W12
	BYTE		        Dn3   v100
	BYTE		N06     Fn4   v120
	BYTE	W12
	BYTE		        Fn2   v108
	BYTE		N11     Fn4   v112
	BYTE	W12
	BYTE		        Fn2   v100
	BYTE		N04     Ds4   v120
	BYTE	W06
	BYTE		N09     Fn4   v112
	BYTE	W06
	BYTE		N04     Ds2   v108
	BYTE	W06
	BYTE		N09     Fn2   v100
	BYTE		N10     Fn4   v120
	BYTE	W06
	BYTE	PEND
// 025   ----------------------------------------
SteelCockpit0_5_025:
	BYTE	W06
	BYTE		N10     Fn2   v108
	BYTE		N04     Ds4   v112
	BYTE	W06
	BYTE		N09     Fn4   v120
	BYTE	W06
	BYTE		N04     Ds2   v100
	BYTE	W06
	BYTE		N09     Fn2   v108
	BYTE		N21     Cn5   v120
	BYTE	W12
	BYTE		        Cn3   v108
	BYTE	W12
	BYTE		N06     Ds5   v120
	BYTE	W12
	BYTE		        Ds3   v108
	BYTE		N08     Ds5   v112
	BYTE	W12
	BYTE		        Ds3   v100
	BYTE		N04     Dn5   v120
	BYTE	W06
	BYTE		N09     Ds5   v112
	BYTE	W06
	BYTE		N04     Dn3   v108
	BYTE	W06
	BYTE		N09     Ds3   v100
	BYTE		N10     As4   v120
	BYTE	W06
	BYTE	PEND
// 026   ----------------------------------------
SteelCockpit0_5_026:
	BYTE	W06
	BYTE		N10     As2   v108
	BYTE		N04     Dn5   v112
	BYTE	W06
	BYTE		N09     Ds5   v120
	BYTE	W06
	BYTE		N04     Dn3   v100
	BYTE	W06
	BYTE		N09     Ds3   v108
	BYTE		N06     An4   v120
	BYTE	W12
	BYTE		        An2   v108
	BYTE		N11     As4   v112
	BYTE	W12
	BYTE		        As2   v100
	BYTE		N06     Dn5   v120
	BYTE	W12
	BYTE		        Dn3   v108
	BYTE		N11     Dn5   v112
	BYTE	W12
	BYTE		        Dn3   v100
	BYTE		N04     Cn5   v120
	BYTE	W06
	BYTE		N09     Cn5   v112
	BYTE	W06
	BYTE		N04     Cn3   v108
	BYTE	W06
	BYTE		N09     Cn3   v100
	BYTE		N10     An4   v120
	BYTE	W06
	BYTE	PEND
// 027   ----------------------------------------
SteelCockpit0_5_027:
	BYTE	W06
	BYTE		N10     An2   v108
	BYTE		N04     As4   v112
	BYTE	W06
	BYTE		N09     An4   v120
	BYTE	W06
	BYTE		N04     As2   v100
	BYTE	W06
	BYTE		N09     An2   v108
	BYTE		N21     Dn4   v120
	BYTE	W12
	BYTE		        Dn2   v108
	BYTE	W12
	BYTE		N06     Ds5   v120
	BYTE	W12
	BYTE		        Ds3   v108
	BYTE		N08     Ds5   v112
	BYTE	W12
	BYTE		        Ds3   v100
	BYTE		N04     Dn5   v120
	BYTE	W06
	BYTE		N09     Ds5   v112
	BYTE	W06
	BYTE		N04     Dn3   v108
	BYTE	W06
	BYTE		N09     Ds3   v100
	BYTE		N10     As4   v120
	BYTE	W06
	BYTE	PEND
// 028   ----------------------------------------
	BYTE	W06
	BYTE		        As2   v108
	BYTE		N04     Dn5   v112
	BYTE	W06
	BYTE		N09     Ds5   v120
	BYTE	W06
	BYTE		N04     Dn3   v100
	BYTE	W06
	BYTE		N09     Ds3   v108
	BYTE		N06     An4   v120
	BYTE	W12
	BYTE		        An2   v108
	BYTE		N11     As4   v112
	BYTE	W12
	BYTE		        As2   v100
	BYTE		N06     Fn4   v120
	BYTE	W12
	BYTE		        Fn2   v108
	BYTE		N11     Fn4   v112
	BYTE	W12
	BYTE		        Fn2   v100
	BYTE		N04     Ds4   v120
	BYTE	W06
	BYTE		N09     Fn4   v112
	BYTE	W06
	BYTE		N04     Ds2   v108
	BYTE	W06
	BYTE		N09     Fn2   v100
	BYTE		N10     An4   v120
	BYTE	W06
// 029   ----------------------------------------
	BYTE	W06
	BYTE		        An2   v108
	BYTE		N04     Fn4   v112
	BYTE	W06
	BYTE		N09     Cn5   v120
	BYTE	W06
	BYTE		N04     Fn2   v100
	BYTE	W06
	BYTE		N09     Cn3   v108
	BYTE		N21     Fn5 
	BYTE	W12
	BYTE		        Fn3   v096
	BYTE	W12
	BYTE		N06     Cn5   v120
	BYTE	W12
	BYTE		        Cn3   v108
	BYTE		N08     Cn5   v112
	BYTE	W12
	BYTE		        Cn3   v100
	BYTE		N04     As4   v120
	BYTE	W06
	BYTE		N09     An4   v112
	BYTE	W06
	BYTE		N04     As2   v108
	BYTE	W06
	BYTE		N09     An2   v100
	BYTE		N10     Gn4   v120
	BYTE	W06
// 030   ----------------------------------------
	BYTE	W06
	BYTE		        Gn2   v108
	BYTE		N04     As4   v112
	BYTE	W06
	BYTE		N09     Cn5   v120
	BYTE	W06
	BYTE		N04     As2   v100
	BYTE	W06
	BYTE		N09     Cn3   v108
	BYTE		N06     En5   v120
	BYTE	W12
	BYTE		        En3   v108
	BYTE		N11     Gn5   v112
	BYTE	W12
	BYTE		        Gn3   v100
	BYTE		N06     Dn5   v120
	BYTE	W12
	BYTE		        Dn3   v108
	BYTE		N11     Dn5   v112
	BYTE	W12
	BYTE		        Dn3   v100
	BYTE		N04     As4   v120
	BYTE	W06
	BYTE		N09     Cn5   v112
	BYTE	W06
	BYTE		N04     As2   v108
	BYTE	W06
	BYTE		N09     Cn3   v100
	BYTE		N10     An4   v120
	BYTE	W06
// 031   ----------------------------------------
	BYTE	W06
	BYTE		        An2   v108
	BYTE		N04     As4   v112
	BYTE	W06
	BYTE		N09     An4   v120
	BYTE	W06
	BYTE		N04     As2   v100
	BYTE	W06
	BYTE		N09     An2   v108
	BYTE		N21     Dn4   v120
	BYTE	W12
	BYTE		        Dn2   v108
	BYTE	W12
	BYTE		N06     Gn4   v120
	BYTE	W12
	BYTE		        Gn2   v108
	BYTE		N08     Gn4   v112
	BYTE	W12
	BYTE		        Gn2   v100
	BYTE		N04     Fn4   v120
	BYTE	W06
	BYTE		N09     Gn4   v112
	BYTE	W06
	BYTE		N04     Fn2   v108
	BYTE	W06
	BYTE		N09     Gn2   v100
	BYTE		N10     Gn4   v120
	BYTE	W06
// 032   ----------------------------------------
	BYTE	PATT
	 POIN2	SteelCockpit0_5_024
// 033   ----------------------------------------
	BYTE	PATT
	 POIN2	SteelCockpit0_5_025
// 034   ----------------------------------------
	BYTE	PATT
	 POIN2	SteelCockpit0_5_026
// 035   ----------------------------------------
	BYTE	PATT
	 POIN2	SteelCockpit0_5_027
// 036   ----------------------------------------
	BYTE	W06
	BYTE		N10     As2   v108
	BYTE		N04     Dn5   v112
	BYTE	W06
	BYTE		N09     Ds5   v120
	BYTE	W06
	BYTE		N04     Dn3   v100
	BYTE	W06
	BYTE		N09     Ds3   v108
	BYTE		N06     An4   v120
	BYTE	W12
	BYTE		        An2   v108
	BYTE		N11     As4   v112
	BYTE	W12
	BYTE		        As2   v100
	BYTE		N06     Fn4   v120
	BYTE	W12
	BYTE		        Fn2   v108
	BYTE		N11     Fn4   v112
	BYTE	W12
	BYTE		        Fn2   v100
	BYTE		N04     Ds4   v120
	BYTE	W06
	BYTE		N09     Fn4   v112
	BYTE	W06
	BYTE		N04     Ds2   v108
	BYTE	W06
	BYTE		N09     Fn2   v100
	BYTE		N10     Fn4   v120
	BYTE	W06
// 037   ----------------------------------------
	BYTE	W06
	BYTE		        Fn2   v108
	BYTE		N04     Ds4   v112
	BYTE	W06
	BYTE		N09     Fn4   v120
	BYTE	W06
	BYTE		N04     Ds2   v100
	BYTE	W06
	BYTE		N09     Fn2   v108
	BYTE		N21     Cn5   v120
	BYTE	W12
	BYTE		        Cn3   v108
	BYTE	W12
	BYTE		N06     Cn5   v120
	BYTE	W12
	BYTE		        Cn3   v108
	BYTE		N08     Cn5   v112
	BYTE	W12
	BYTE		        Cn3   v100
	BYTE		N04     As4   v120
	BYTE	W06
	BYTE		N09     Gn4   v112
	BYTE	W06
	BYTE		N04     As2   v108
	BYTE	W06
	BYTE		N09     Gn2   v100
	BYTE		N10     Cn5   v120
	BYTE	W06
// 038   ----------------------------------------
	BYTE	W06
	BYTE		        Cn3   v108
	BYTE		N04     As4   v112
	BYTE	W06
	BYTE		N09     Cn5   v120
	BYTE	W06
	BYTE		N04     As2   v100
	BYTE	W06
	BYTE		N09     Cn3   v108
	BYTE		N06     Gn5   v120
	BYTE	W12
	BYTE		        Gn3   v108
	BYTE		N11     Cn5   v112
	BYTE	W12
	BYTE		        Cn3   v100
	BYTE		N06     Dn5   v120
	BYTE	W12
	BYTE		        Dn3   v108
	BYTE		N11     Dn5   v112
	BYTE	W12
	BYTE		        Dn3   v100
	BYTE		N04     As4   v120
	BYTE	W06
	BYTE		N09     Cn5   v112
	BYTE	W06
	BYTE		N04     As2   v108
	BYTE	W06
	BYTE		N09     Cn3   v100
	BYTE		N10     An4   v120
	BYTE	W06
// 039   ----------------------------------------
	BYTE	W06
	BYTE		        An2   v108
	BYTE		N04     As4   v112
	BYTE	W06
	BYTE		N09     An4   v120
	BYTE	W06
	BYTE		N04     As2   v100
	BYTE	W06
	BYTE		N09     An2   v108
	BYTE		N09     Dn4   v120
	BYTE	W12
	BYTE		        Dn2   v108
	BYTE		N11     An4   v112
	BYTE	W12
	BYTE		        An2   v100
	BYTE		N08     Dn5   v120
	BYTE	W12
	BYTE		        Dn3   v108
	BYTE		N06     An4   v116
	BYTE	W12
	BYTE		        An2   v104
	BYTE		N15     Dn5   v120
	BYTE	W12
	BYTE		        Dn3   v108
	BYTE	W06
	BYTE		N10     Cn5   v120
	BYTE	W06
// 040   ----------------------------------------
	BYTE	W06
	BYTE		        Cn3   v108
	BYTE		N04     As4   v112
	BYTE	W06
	BYTE		N09     An4   v120
	BYTE	W06
	BYTE		N04     As2   v100
	BYTE	W06
	BYTE		N09     An2   v108
	BYTE		N04     Cn5   v120
	BYTE	W06
	BYTE		N15     Dn5 
	BYTE	W06
	BYTE		N04     Cn3   v108
	BYTE	W06
	BYTE		N15     Dn3 
	BYTE	W06
	BYTE		N06     Gn4   v124
	BYTE	W12
	BYTE		        Gn2   v116
	BYTE		N08     Gn4 
	BYTE	W12
	BYTE		        Gn2   v104
	BYTE		N06     Gn4   v124
	BYTE	W12
	BYTE		        Gn2   v116
	BYTE		N08     Gn4 
	BYTE	W12
// 041   ----------------------------------------
	BYTE	PATT
	 POIN2	SteelCockpit0_5_001
// 042   ----------------------------------------
	BYTE		N08     En2   v104
	BYTE		N06     En4   v124
	BYTE	W12
	BYTE		        En2   v116
	BYTE		N08     En4 
	BYTE	W12
	BYTE		        En2   v104
	BYTE		N06     En4   v124
	BYTE	W12
	BYTE		        En2   v116
	BYTE		N08     En4 
	BYTE	W12
	BYTE		        En2   v104
	BYTE	W08
	BYTE	GoTo
	 POIN2	SteelCockpit0_5_B1
SteelCockpit0_5_B2:
	BYTE	FINE

//**************** Track 6 (Midi-Chn.7) ****************//

SteelCockpit0_6:
	BYTE	KEYSH   SteelCockpit0_key+0
// 000   ----------------------------------------
	BYTE		VOICE   100
	BYTE		VOL     25*SteelCockpit0_mvl/mxv
	BYTE	W01
	BYTE		PAN     c_v+4
	BYTE	W01
	BYTE		BEND    c_v+0
	BYTE	W10
	BYTE		N06     An4   v116
	BYTE	W06
	BYTE		        As4 
	BYTE	W06
	BYTE		        Cn5 
	BYTE	W06
	BYTE		        Dn5 
	BYTE	W06
	BYTE		        En5 
	BYTE	W06
	BYTE		        Fs5 
	BYTE	W06
	BYTE		N32     Gn5 
	BYTE	W48
// 001   ----------------------------------------
	BYTE	W96
// 002   ----------------------------------------
	BYTE	W48
SteelCockpit0_6_B1:
	BYTE	W48
// 003   ----------------------------------------
	BYTE	W96
// 004   ----------------------------------------
	BYTE	W96
// 005   ----------------------------------------
	BYTE	W96
// 006   ----------------------------------------
	BYTE	W96
// 007   ----------------------------------------
	BYTE	W96
// 008   ----------------------------------------
	BYTE	W96
// 009   ----------------------------------------
	BYTE	W96
// 010   ----------------------------------------
	BYTE	W96
// 011   ----------------------------------------
	BYTE	W96
// 012   ----------------------------------------
	BYTE	W96
// 013   ----------------------------------------
	BYTE	W96
// 014   ----------------------------------------
	BYTE	W12
	BYTE		N09     Gn4   v116
	BYTE	W12
	BYTE		        Fn4 
	BYTE	W12
	BYTE		N60     Gn4 
	BYTE	W60
// 015   ----------------------------------------
	BYTE	W96
// 016   ----------------------------------------
	BYTE	W96
// 017   ----------------------------------------
	BYTE	W36
	BYTE		N36     Dn5 
	BYTE	W36
	BYTE		N24     As4 
	BYTE	W24
// 018   ----------------------------------------
	BYTE		        Gn4 
	BYTE	W24
	BYTE		N12     Fn4 
	BYTE	W12
	BYTE		N36     Gn4 
	BYTE	W60
// 019   ----------------------------------------
	BYTE	W96
// 020   ----------------------------------------
	BYTE	W96
// 021   ----------------------------------------
	BYTE	W96
// 022   ----------------------------------------
	BYTE	W96
// 023   ----------------------------------------
SteelCockpit0_6_023:
	BYTE	W48
	BYTE		TIE     Dn5   v116
	BYTE	W48
	BYTE	PEND
// 024   ----------------------------------------
	BYTE	W64
	BYTE	W01
	BYTE		EOT   
	BYTE	W07
	BYTE		N24     Cn5 
	BYTE	W24
// 025   ----------------------------------------
SteelCockpit0_6_025:
	BYTE		N24     Fn5   v116
	BYTE	W24
	BYTE		        An4 
	BYTE	W24
	BYTE		        Gn4   v108
	BYTE	W48
	BYTE	PEND
// 026   ----------------------------------------
	BYTE	W96
// 027   ----------------------------------------
	BYTE	W96
// 028   ----------------------------------------
	BYTE	W96
// 029   ----------------------------------------
	BYTE	W96
// 030   ----------------------------------------
	BYTE	W96
// 031   ----------------------------------------
	BYTE	PATT
	 POIN2	SteelCockpit0_6_023
// 032   ----------------------------------------
	BYTE	W64
	BYTE	W01
	BYTE		EOT     Dn5 
	BYTE	W07
	BYTE		N24     Cn5   v116
	BYTE	W24
// 033   ----------------------------------------
	BYTE	PATT
	 POIN2	SteelCockpit0_6_025
// 034   ----------------------------------------
	BYTE	W96
// 035   ----------------------------------------
	BYTE	W96
// 036   ----------------------------------------
	BYTE	W96
// 037   ----------------------------------------
	BYTE	W48
	BYTE		N21     Gn4   v116
	BYTE	W24
	BYTE		N18     Cn4 
	BYTE	W24
// 038   ----------------------------------------
	BYTE		N15     Gn4 
	BYTE	W18
	BYTE		        An4 
	BYTE	W18
	BYTE		N09     As4 
	BYTE	W12
	BYTE		N07     An4 
	BYTE	W12
	BYTE		N90     Dn5 
	BYTE	W36
// 039   ----------------------------------------
	BYTE	W96
// 040   ----------------------------------------
	BYTE		N06     An4 
	BYTE	W12
	BYTE		        As4 
	BYTE	W12
	BYTE		N04     Cn5 
	BYTE	W06
	BYTE		N15     Dn5 
	BYTE	W18
	BYTE		        Gn4 
	BYTE	W48
// 041   ----------------------------------------
	BYTE	W96
// 042   ----------------------------------------
	BYTE	W56
	BYTE	GoTo
	 POIN2	SteelCockpit0_6_B1
SteelCockpit0_6_B2:
	BYTE	FINE

//**************** Track 7 (Midi-Chn.8) ****************//

SteelCockpit0_7:
	BYTE	KEYSH   SteelCockpit0_key+0
// 000   ----------------------------------------
	BYTE		VOICE   60
	BYTE		VOL     44*SteelCockpit0_mvl/mxv
	BYTE	W01
	BYTE		PAN     c_v-8
	BYTE	W01
	BYTE		BEND    c_v+0
	BYTE	W44
	BYTE	W02
	BYTE		N28     Gn2   v088
	BYTE		N28     Gn3   v120
	BYTE	W36
	BYTE		N03     Gn2   v088
	BYTE		N03     Gn3   v120
	BYTE	W06
	BYTE		        An2   v088
	BYTE		N03     An3   v120
	BYTE	W06
// 001   ----------------------------------------
SteelCockpit0_7_001:
	BYTE		N28     As2   v088
	BYTE		N28     As3   v120
	BYTE	W36
	BYTE		N03     As2   v088
	BYTE		N03     As3   v120
	BYTE	W06
	BYTE		        Cn3   v088
	BYTE		N03     Cn4   v120
	BYTE	W06
	BYTE		N64     Dn3   v088
	BYTE		N64     Dn4   v120
	BYTE	W48
	BYTE	PEND
// 002   ----------------------------------------
	BYTE	W24
	BYTE		N05     Cn3   v088
	BYTE		N05     Cn4   v120
	BYTE	W12
	BYTE		        As2   v088
	BYTE		N05     As3   v120
	BYTE	W12
SteelCockpit0_7_B1:
	BYTE		N17     An2   v088
	BYTE		N17     An3   v120
	BYTE	W24
	BYTE		        Bn2   v088
	BYTE		N17     Bn3   v120
	BYTE	W24
// 003   ----------------------------------------
	BYTE		N11     Cs3   v088
	BYTE		N11     Cs4   v120
	BYTE	W18
	BYTE		        En3   v088
	BYTE		N11     En4   v120
	BYTE	W18
	BYTE		        Gn3   v088
	BYTE		N11     Gn4   v120
	BYTE	W12
	BYTE		N28     Dn3   v088
	BYTE		N28     Dn4   v120
	BYTE	W36
	BYTE		        En3   v084
	BYTE		N28     En4   v116
	BYTE	W12
// 004   ----------------------------------------
	BYTE	W24
	BYTE		N17     Fs3   v080
	BYTE		N17     Fs4   v112
	BYTE	W24
	BYTE		        Gn3   v080
	BYTE		N17     Gn4   v112
	BYTE	W48
// 005   ----------------------------------------
	BYTE	W96
// 006   ----------------------------------------
	BYTE	W48
	BYTE		N07     Gn2   v088
	BYTE		N07     Gn3   v120
	BYTE	W12
	BYTE		        Fn2   v088
	BYTE		N07     Fn3   v120
	BYTE	W12
	BYTE		        Gn2   v088
	BYTE		N07     Gn3   v120
	BYTE	W12
	BYTE		        Dn2   v088
	BYTE		N07     Dn3   v120
	BYTE	W12
// 007   ----------------------------------------
	BYTE		N06     Fn2   v088
	BYTE		N06     Fn3   v120
	BYTE	W06
	BYTE		N09     Gn2   v088
	BYTE		N09     Gn3   v120
	BYTE	W12
	BYTE		N18     Gn2   v088
	BYTE		N18     Gn3   v120
	BYTE	W06
	BYTE		BEND    c_v+1
	BYTE	W01
	BYTE		        c_v+2
	BYTE	W02
	BYTE		        c_v+1
	BYTE	W01
	BYTE		        c_v+0
	BYTE	W02
	BYTE		        c_v-1
	BYTE	W01
	BYTE		        c_v-2
	BYTE	W02
	BYTE		        c_v-1
	BYTE	W01
	BYTE		        c_v+0
	BYTE	W08
	BYTE		N06     Gn2   v064
	BYTE		N06     Gn3   v104
	BYTE	W03
	BYTE		        An2   v064
	BYTE		N06     An3   v104
	BYTE	W03
	BYTE		        As2   v088
	BYTE		N06     As3   v120
	BYTE	W12
	BYTE		        An2   v088
	BYTE		N06     An3   v120
	BYTE	W12
	BYTE		        Gn2   v088
	BYTE		N06     Gn3   v120
	BYTE	W06
	BYTE		N09     An2   v088
	BYTE		N09     An3   v120
	BYTE	W12
	BYTE		N30     Dn2   v088
	BYTE		N30     Dn3   v120
	BYTE	W06
// 008   ----------------------------------------
	BYTE		BEND    c_v+1
	BYTE	W01
	BYTE		        c_v+2
	BYTE	W02
	BYTE		        c_v+1
	BYTE	W01
	BYTE		        c_v+0
	BYTE	W02
	BYTE		        c_v-1
	BYTE	W01
	BYTE		        c_v-2
	BYTE	W02
	BYTE		        c_v-1
	BYTE	W01
	BYTE		        c_v+0
	BYTE	W02
	BYTE		        c_v+1
	BYTE	W01
	BYTE		        c_v+2
	BYTE	W02
	BYTE		        c_v+3
	BYTE	W01
	BYTE		        c_v+2
	BYTE	W02
	BYTE		        c_v+1
	BYTE	W01
	BYTE		        c_v+0
	BYTE	W02
	BYTE		        c_v-1
	BYTE	W01
	BYTE		        c_v+0
	BYTE	W14
	BYTE		N09     Dn2   v088
	BYTE		N09     Dn3   v120
	BYTE	W10
	BYTE		BEND    c_v+0
	BYTE	W01
	BYTE		        c_v+32
	BYTE	W01
	BYTE		        c_v+35
	BYTE		N21     Cs2   v088
	BYTE		N21     Cs3   v120
	BYTE	W01
	BYTE		BEND    c_v+39
	BYTE	W01
	BYTE		        c_v+43
	BYTE	W01
	BYTE		        c_v+51
	BYTE	W01
	BYTE		        c_v+55
	BYTE	W01
	BYTE		        c_v+59
	BYTE	W01
	BYTE		        c_v+63
	BYTE	W06
	BYTE		        c_v+53
	BYTE	W01
	BYTE		        c_v+42
	BYTE	W01
	BYTE		        c_v+32
	BYTE	W01
	BYTE		        c_v+11
	BYTE	W01
	BYTE		        c_v+0
	BYTE	W01
	BYTE		        c_v-11
	BYTE	W01
	BYTE		        c_v-32
	BYTE	W01
	BYTE		        c_v-42
	BYTE	W01
	BYTE		        c_v-53
	BYTE	W01
	BYTE		        c_v-64
	BYTE	W01
	BYTE		        c_v-64
	BYTE	W01
	BYTE		        c_v+0
	BYTE	W01
	BYTE		N18     As1   v088
	BYTE		N18     As2   v120
	BYTE	W06
	BYTE		BEND    c_v+1
	BYTE	W01
	BYTE		        c_v+2
	BYTE	W02
	BYTE		        c_v+1
	BYTE	W01
	BYTE		        c_v+0
	BYTE	W02
	BYTE		        c_v-1
	BYTE	W01
	BYTE		        c_v-2
	BYTE	W02
	BYTE		        c_v-1
	BYTE	W01
	BYTE		        c_v+0
	BYTE	W08
// 009   ----------------------------------------
	BYTE		N15     Ds2   v088
	BYTE		N15     Ds3   v120
	BYTE	W06
	BYTE		BEND    c_v+1
	BYTE	W01
	BYTE		        c_v+2
	BYTE	W02
	BYTE		        c_v+1
	BYTE	W01
	BYTE		        c_v+0
	BYTE	W08
	BYTE		N15     Fn2   v088
	BYTE		N15     Fn3   v120
	BYTE	W06
	BYTE		BEND    c_v+1
	BYTE	W01
	BYTE		        c_v+2
	BYTE	W02
	BYTE		        c_v+1
	BYTE	W01
	BYTE		        c_v+0
	BYTE	W08
	BYTE		        c_v+4
	BYTE		N09     Fs2   v088
	BYTE		N09     Fs3   v120
	BYTE	W01
	BYTE		BEND    c_v+8
	BYTE	W01
	BYTE		        c_v+12
	BYTE	W01
	BYTE		        c_v+20
	BYTE	W01
	BYTE		        c_v+24
	BYTE	W01
	BYTE		        c_v+28
	BYTE	W01
	BYTE		        c_v+32
	BYTE	W06
	BYTE		        c_v+32
	BYTE		N21     En2   v088
	BYTE		N21     En3   v120
	BYTE	W06
	BYTE		BEND    c_v+33
	BYTE	W01
	BYTE		        c_v+34
	BYTE	W02
	BYTE		        c_v+33
	BYTE	W01
	BYTE		        c_v+32
	BYTE	W02
	BYTE		        c_v+24
	BYTE	W01
	BYTE		        c_v+16
	BYTE	W01
	BYTE		        c_v+8
	BYTE	W01
	BYTE		        c_v-8
	BYTE	W01
	BYTE		        c_v-16
	BYTE	W01
	BYTE		        c_v-24
	BYTE	W01
	BYTE		        c_v-40
	BYTE	W01
	BYTE		        c_v-48
	BYTE	W01
	BYTE		        c_v-56
	BYTE	W01
	BYTE		        c_v-64
	BYTE	W01
	BYTE		        c_v-64
	BYTE	W01
	BYTE		        c_v+0
	BYTE	W01
	BYTE		        c_v+0
	BYTE		N21     Cn2   v088
	BYTE		N21     Cn3   v120
	BYTE	W06
	BYTE		BEND    c_v+1
	BYTE	W01
	BYTE		        c_v+2
	BYTE	W02
	BYTE		        c_v+1
	BYTE	W01
	BYTE		        c_v+0
	BYTE	W02
	BYTE		        c_v-1
	BYTE	W01
	BYTE		        c_v-2
	BYTE	W02
	BYTE		        c_v-1
	BYTE	W01
	BYTE		        c_v+0
	BYTE	W06
	BYTE		        c_v+0
	BYTE	W01
	BYTE		        c_v-32
	BYTE	W01
// 010   ----------------------------------------
	BYTE		        c_v-28
	BYTE		N36     Dn2   v080
	BYTE		N36     Dn3   v116
	BYTE	W01
	BYTE		BEND    c_v-24
	BYTE	W01
	BYTE		        c_v-20
	BYTE	W01
	BYTE		        c_v-12
	BYTE	W01
	BYTE		        c_v-8
	BYTE	W01
	BYTE		        c_v-4
	BYTE	W01
	BYTE		        c_v+0
	BYTE	W06
	BYTE		        c_v+1
	BYTE	W01
	BYTE		        c_v+2
	BYTE	W02
	BYTE		        c_v+3
	BYTE	W01
	BYTE		        c_v+2
	BYTE	W02
	BYTE		        c_v+1
	BYTE	W01
	BYTE		        c_v+0
	BYTE	W02
	BYTE		        c_v-1
	BYTE	W01
	BYTE		        c_v-2
	BYTE	W02
	BYTE		        c_v-1
	BYTE	W01
	BYTE		        c_v+0
	BYTE	W02
	BYTE		        c_v+1
	BYTE	W01
	BYTE		        c_v+2
	BYTE	W02
	BYTE		        c_v+3
	BYTE	W01
	BYTE		        c_v+2
	BYTE	W02
	BYTE		        c_v+1
	BYTE	W01
	BYTE		        c_v+0
	BYTE	W14
	BYTE		N07     Gn2   v088
	BYTE		N07     Gn3   v120
	BYTE	W12
	BYTE		        Fn2   v088
	BYTE		N07     Fn3   v120
	BYTE	W12
	BYTE		        Gn2   v088
	BYTE		N07     Gn3   v120
	BYTE	W12
	BYTE		        Dn2   v088
	BYTE		N07     Dn3   v120
	BYTE	W12
// 011   ----------------------------------------
	BYTE		N06     Fn2   v088
	BYTE		N06     Fn3   v120
	BYTE	W06
	BYTE		N09     Gn2   v088
	BYTE		N09     Gn3   v120
	BYTE	W12
	BYTE		N18     Gn2   v088
	BYTE		N18     Gn3   v120
	BYTE	W06
	BYTE		BEND    c_v+1
	BYTE	W01
	BYTE		        c_v+2
	BYTE	W02
	BYTE		        c_v+1
	BYTE	W01
	BYTE		        c_v+0
	BYTE	W02
	BYTE		        c_v-1
	BYTE	W01
	BYTE		        c_v-2
	BYTE	W02
	BYTE		        c_v-1
	BYTE	W01
	BYTE		        c_v+0
	BYTE	W08
	BYTE		N06     Gn2   v064
	BYTE		N06     Gn3   v104
	BYTE	W03
	BYTE		        An2   v064
	BYTE		N06     An3   v104
	BYTE	W03
	BYTE		        As2   v088
	BYTE		N06     As3   v120
	BYTE	W12
	BYTE		        An2   v088
	BYTE		N06     An3   v120
	BYTE	W12
	BYTE		        Gn2   v088
	BYTE		N06     Gn3   v120
	BYTE	W06
	BYTE		N09     Fn2   v088
	BYTE		N09     Fn3   v120
	BYTE	W12
	BYTE		N30     Dn2   v088
	BYTE		N30     Dn3   v120
	BYTE	W06
// 012   ----------------------------------------
	BYTE		BEND    c_v+1
	BYTE	W01
	BYTE		        c_v+2
	BYTE	W02
	BYTE		        c_v+1
	BYTE	W01
	BYTE		        c_v+0
	BYTE	W02
	BYTE		        c_v-1
	BYTE	W01
	BYTE		        c_v-2
	BYTE	W02
	BYTE		        c_v-1
	BYTE	W01
	BYTE		        c_v+0
	BYTE	W02
	BYTE		        c_v+1
	BYTE	W01
	BYTE		        c_v+2
	BYTE	W02
	BYTE		        c_v+3
	BYTE	W01
	BYTE		        c_v+2
	BYTE	W02
	BYTE		        c_v+1
	BYTE	W01
	BYTE		        c_v+0
	BYTE	W02
	BYTE		        c_v-1
	BYTE	W01
	BYTE		        c_v+0
	BYTE	W14
	BYTE		N09     Fn2   v088
	BYTE		N09     Fn3   v120
	BYTE	W12
	BYTE		N18     Gn2   v088
	BYTE		N18     Gn3   v120
	BYTE	W06
	BYTE		BEND    c_v+1
	BYTE	W01
	BYTE		        c_v+2
	BYTE	W02
	BYTE		        c_v+1
	BYTE	W01
	BYTE		        c_v+0
	BYTE	W02
	BYTE		        c_v-1
	BYTE	W01
	BYTE		        c_v-2
	BYTE	W02
	BYTE		        c_v-1
	BYTE	W01
	BYTE		        c_v+0
	BYTE	W06
	BYTE		        c_v+0
	BYTE	W01
	BYTE		        c_v-32
	BYTE	W01
	BYTE		        c_v-32
	BYTE		N18     As2   v088
	BYTE		N18     As3   v120
	BYTE	W01
	BYTE		BEND    c_v-27
	BYTE	W02
	BYTE		        c_v-22
	BYTE	W01
	BYTE		        c_v-16
	BYTE	W02
	BYTE		        c_v-11
	BYTE	W01
	BYTE		        c_v-6
	BYTE	W02
	BYTE		        c_v+0
	BYTE	W03
	BYTE		        c_v+2
	BYTE	W01
	BYTE		        c_v+3
	BYTE	W02
	BYTE		        c_v+2
	BYTE	W01
	BYTE		        c_v+0
	BYTE	W08
// 013   ----------------------------------------
	BYTE		N18     An2   v088
	BYTE		N18     An3   v120
	BYTE	W06
	BYTE		BEND    c_v+1
	BYTE	W01
	BYTE		        c_v+2
	BYTE	W02
	BYTE		        c_v+1
	BYTE	W01
	BYTE		        c_v+0
	BYTE	W02
	BYTE		        c_v-1
	BYTE	W01
	BYTE		        c_v-2
	BYTE	W02
	BYTE		        c_v-1
	BYTE	W01
	BYTE		        c_v+0
	BYTE	W08
	BYTE		N18     Fn2   v088
	BYTE		N18     Fn3   v120
	BYTE	W06
	BYTE		BEND    c_v+1
	BYTE	W01
	BYTE		        c_v+2
	BYTE	W02
	BYTE		        c_v+1
	BYTE	W01
	BYTE		        c_v+0
	BYTE	W02
	BYTE		        c_v-1
	BYTE	W01
	BYTE		        c_v-2
	BYTE	W02
	BYTE		        c_v-1
	BYTE	W01
	BYTE		        c_v+0
	BYTE	W08
	BYTE		N42     Gn2   v080
	BYTE		N42     Gn3   v116
	BYTE	W06
	BYTE		BEND    c_v+1
	BYTE	W01
	BYTE		        c_v+2
	BYTE	W02
	BYTE		        c_v+1
	BYTE	W01
	BYTE		        c_v+0
	BYTE	W02
	BYTE		        c_v-1
	BYTE	W01
	BYTE		        c_v-2
	BYTE	W02
	BYTE		        c_v-1
	BYTE	W01
	BYTE		        c_v+0
	BYTE	W02
	BYTE		        c_v+1
	BYTE	W01
	BYTE		        c_v+2
	BYTE	W02
	BYTE		        c_v+3
	BYTE	W01
	BYTE		        c_v+2
	BYTE	W02
	BYTE		        c_v+1
	BYTE	W01
	BYTE		        c_v+0
	BYTE	W02
	BYTE		        c_v-1
	BYTE	W01
	BYTE		        c_v-2
	BYTE	W02
	BYTE		        c_v-1
	BYTE	W01
	BYTE		        c_v+0
	BYTE	W02
	BYTE		        c_v+1
	BYTE	W01
	BYTE		        c_v+2
	BYTE	W02
	BYTE		        c_v+3
	BYTE	W01
	BYTE		        c_v+2
	BYTE	W02
	BYTE		        c_v+1
	BYTE	W01
	BYTE		        c_v+0
	BYTE	W08
// 014   ----------------------------------------
	BYTE	W12
	BYTE		N09     Gn2   v088
	BYTE		N09     Gn3   v120
	BYTE	W12
	BYTE		        Fn2   v088
	BYTE		N09     Fn3   v120
	BYTE	W12
	BYTE		N60     Gn2   v088
	BYTE		N60     Gn3   v120
	BYTE	W06
	BYTE		BEND    c_v+1
	BYTE	W01
	BYTE		        c_v+2
	BYTE	W02
	BYTE		        c_v+1
	BYTE	W01
	BYTE		        c_v+0
	BYTE	W02
	BYTE		        c_v-1
	BYTE	W01
	BYTE		        c_v-2
	BYTE	W02
	BYTE		        c_v-1
	BYTE	W01
	BYTE		        c_v+0
	BYTE	W02
	BYTE		        c_v+1
	BYTE	W01
	BYTE		        c_v+2
	BYTE	W02
	BYTE		        c_v+3
	BYTE	W01
	BYTE		        c_v+2
	BYTE	W02
	BYTE		        c_v+1
	BYTE	W01
	BYTE		        c_v+0
	BYTE	W02
	BYTE		        c_v-1
	BYTE	W01
	BYTE		        c_v-2
	BYTE	W02
	BYTE		        c_v-1
	BYTE	W01
	BYTE		        c_v+0
	BYTE	W02
	BYTE		        c_v+1
	BYTE	W01
	BYTE		        c_v+2
	BYTE	W02
	BYTE		        c_v+3
	BYTE	W01
	BYTE		        c_v+4
	BYTE	W02
	BYTE		        c_v+3
	BYTE	W01
	BYTE		        c_v+2
	BYTE	W02
	BYTE		        c_v+1
	BYTE	W01
	BYTE		        c_v+0
	BYTE	W02
	BYTE		        c_v-1
	BYTE	W01
	BYTE		        c_v-2
	BYTE	W02
	BYTE		        c_v-1
	BYTE	W01
	BYTE		        c_v+0
	BYTE	W02
	BYTE		        c_v+1
	BYTE	W01
	BYTE		        c_v+2
	BYTE	W02
	BYTE		        c_v+3
	BYTE	W01
	BYTE		        c_v+2
	BYTE	W02
	BYTE		        c_v+1
	BYTE	W01
	BYTE		        c_v+0
	BYTE	W02
// 015   ----------------------------------------
	BYTE	W12
	BYTE		N09     Ds2   v088
	BYTE		N09     Ds3   v120
	BYTE	W12
	BYTE		        Gn2   v088
	BYTE		N09     Gn3   v120
	BYTE	W10
	BYTE		BEND    c_v+0
	BYTE	W01
	BYTE		        c_v-32
	BYTE	W01
	BYTE		        c_v-24
	BYTE		N09     As2   v088
	BYTE		N09     As3   v120
	BYTE	W01
	BYTE		BEND    c_v-16
	BYTE	W01
	BYTE		        c_v-8
	BYTE	W01
	BYTE		        c_v+0
	BYTE	W09
	BYTE		N21     An2   v088
	BYTE		N21     An3   v120
	BYTE	W06
	BYTE		BEND    c_v+1
	BYTE	W01
	BYTE		        c_v+2
	BYTE	W02
	BYTE		        c_v+1
	BYTE	W01
	BYTE		        c_v+0
	BYTE	W02
	BYTE		        c_v-1
	BYTE	W01
	BYTE		        c_v-2
	BYTE	W02
	BYTE		        c_v-1
	BYTE	W01
	BYTE		        c_v+0
	BYTE	W08
	BYTE		N09     As2   v088
	BYTE		N09     As3   v120
	BYTE	W12
	BYTE		N24     Dn2   v088
	BYTE		N24     Dn3   v120
	BYTE	W06
	BYTE		BEND    c_v+1
	BYTE	W01
	BYTE		        c_v+2
	BYTE	W02
	BYTE		        c_v+3
	BYTE	W01
	BYTE		        c_v+2
	BYTE	W02
// 016   ----------------------------------------
	BYTE		        c_v+1
	BYTE	W01
	BYTE		        c_v+0
	BYTE	W02
	BYTE		        c_v-1
	BYTE	W01
	BYTE		        c_v-2
	BYTE	W02
	BYTE		        c_v-1
	BYTE	W01
	BYTE		        c_v+0
	BYTE	W02
	BYTE		        c_v+1
	BYTE	W01
	BYTE		        c_v+0
	BYTE	W14
	BYTE		N09     Cn2   v088
	BYTE		N09     Cn3   v120
	BYTE	W12
	BYTE		        Dn2   v088
	BYTE		N09     Dn3   v120
	BYTE	W12
	BYTE		N18     Ds2   v088
	BYTE		N18     Ds3   v120
	BYTE	W06
	BYTE		BEND    c_v+1
	BYTE	W01
	BYTE		        c_v+2
	BYTE	W02
	BYTE		        c_v+3
	BYTE	W01
	BYTE		        c_v+2
	BYTE	W02
	BYTE		        c_v+1
	BYTE	W01
	BYTE		        c_v+0
	BYTE	W02
	BYTE		        c_v-1
	BYTE	W01
	BYTE		        c_v+0
	BYTE	W08
	BYTE		N18     Ds2   v088
	BYTE		N18     Ds3   v120
	BYTE	W06
	BYTE		BEND    c_v+1
	BYTE	W01
	BYTE		        c_v+2
	BYTE	W02
	BYTE		        c_v+3
	BYTE	W01
	BYTE		        c_v+2
	BYTE	W02
	BYTE		        c_v+1
	BYTE	W01
	BYTE		        c_v+0
	BYTE	W02
	BYTE		        c_v-1
	BYTE	W01
	BYTE		        c_v+0
	BYTE	W08
// 017   ----------------------------------------
	BYTE		N15     Fn2   v088
	BYTE		N15     Fn3   v120
	BYTE	W06
	BYTE		BEND    c_v+1
	BYTE	W01
	BYTE		        c_v+2
	BYTE	W02
	BYTE		        c_v+1
	BYTE	W01
	BYTE		        c_v+0
	BYTE	W08
	BYTE		        c_v+8
	BYTE		N15     Fs2   v088
	BYTE		N15     Fs3   v120
	BYTE	W01
	BYTE		BEND    c_v+16
	BYTE	W01
	BYTE		        c_v+24
	BYTE	W01
	BYTE		        c_v+32
	BYTE	W06
	BYTE		        c_v+20
	BYTE	W01
	BYTE		        c_v+8
	BYTE	W01
	BYTE		        c_v-4
	BYTE	W01
	BYTE		        c_v-28
	BYTE	W01
	BYTE		        c_v-40
	BYTE	W01
	BYTE		        c_v-52
	BYTE	W01
	BYTE		        c_v-64
	BYTE	W01
	BYTE		        c_v-64
	BYTE	W01
	BYTE		        c_v+0
	BYTE	W01
	BYTE		        c_v+0
	BYTE		N56     Dn2   v088
	BYTE		N56     Dn3   v120
	BYTE	W06
	BYTE		BEND    c_v+1
	BYTE	W01
	BYTE		        c_v+2
	BYTE	W02
	BYTE		        c_v+1
	BYTE	W01
	BYTE		        c_v+0
	BYTE	W02
	BYTE		        c_v-1
	BYTE	W01
	BYTE		        c_v-2
	BYTE	W02
	BYTE		        c_v-1
	BYTE	W01
	BYTE		        c_v+0
	BYTE	W02
	BYTE		        c_v+1
	BYTE	W01
	BYTE		        c_v+2
	BYTE	W02
	BYTE		        c_v+3
	BYTE	W01
	BYTE		        c_v+2
	BYTE	W02
	BYTE		        c_v+1
	BYTE	W01
	BYTE		        c_v+0
	BYTE	W02
	BYTE		        c_v-1
	BYTE	W01
	BYTE		        c_v-2
	BYTE	W02
	BYTE		        c_v-1
	BYTE	W01
	BYTE		        c_v+0
	BYTE	W02
	BYTE		        c_v+1
	BYTE	W01
	BYTE		        c_v+2
	BYTE	W02
	BYTE		        c_v+3
	BYTE	W01
	BYTE		        c_v+4
	BYTE	W02
	BYTE		        c_v+3
	BYTE	W01
	BYTE		        c_v+2
	BYTE	W02
	BYTE		        c_v+1
	BYTE	W01
	BYTE		        c_v+0
	BYTE	W02
	BYTE		        c_v-1
	BYTE	W01
	BYTE		        c_v-2
	BYTE	W02
	BYTE		        c_v-1
	BYTE	W01
	BYTE		        c_v+0
	BYTE	W02
	BYTE		        c_v+1
	BYTE	W01
	BYTE		        c_v+0
	BYTE	W08
// 018   ----------------------------------------
	BYTE	W10
	BYTE		        c_v+0
	BYTE	W01
	BYTE		        c_v-32
	BYTE	W01
	BYTE		        c_v-28
	BYTE		N09     Gn2   v088
	BYTE		N09     Gn3   v120
	BYTE	W01
	BYTE		BEND    c_v-24
	BYTE	W01
	BYTE		        c_v-20
	BYTE	W01
	BYTE		        c_v-12
	BYTE	W01
	BYTE		        c_v-8
	BYTE	W01
	BYTE		        c_v-4
	BYTE	W01
	BYTE		        c_v+0
	BYTE	W06
	BYTE		N09     Fn2   v088
	BYTE		N09     Fn3   v120
	BYTE	W12
	BYTE		N60     Gn2   v088
	BYTE		N60     Gn3   v120
	BYTE	W06
	BYTE		BEND    c_v+1
	BYTE	W01
	BYTE		        c_v+2
	BYTE	W02
	BYTE		        c_v+1
	BYTE	W01
	BYTE		        c_v+0
	BYTE	W02
	BYTE		        c_v-1
	BYTE	W01
	BYTE		        c_v-2
	BYTE	W02
	BYTE		        c_v-1
	BYTE	W01
	BYTE		        c_v+0
	BYTE	W02
	BYTE		        c_v+1
	BYTE	W01
	BYTE		        c_v+2
	BYTE	W02
	BYTE		        c_v+3
	BYTE	W01
	BYTE		        c_v+2
	BYTE	W02
	BYTE		        c_v+1
	BYTE	W01
	BYTE		        c_v+0
	BYTE	W02
	BYTE		        c_v-1
	BYTE	W01
	BYTE		        c_v-2
	BYTE	W02
	BYTE		        c_v-1
	BYTE	W01
	BYTE		        c_v+0
	BYTE	W02
	BYTE		        c_v+1
	BYTE	W01
	BYTE		        c_v+2
	BYTE	W02
	BYTE		        c_v+3
	BYTE	W01
	BYTE		        c_v+4
	BYTE	W02
	BYTE		        c_v+3
	BYTE	W01
	BYTE		        c_v+2
	BYTE	W02
	BYTE		        c_v+1
	BYTE	W01
	BYTE		        c_v+0
	BYTE	W02
	BYTE		        c_v-1
	BYTE	W01
	BYTE		        c_v-2
	BYTE	W02
	BYTE		        c_v-1
	BYTE	W01
	BYTE		        c_v+0
	BYTE	W02
	BYTE		        c_v+1
	BYTE	W01
	BYTE		        c_v+2
	BYTE	W02
	BYTE		        c_v+3
	BYTE	W01
	BYTE		        c_v+2
	BYTE	W02
	BYTE		        c_v+1
	BYTE	W01
	BYTE		        c_v+0
	BYTE	W02
// 019   ----------------------------------------
	BYTE	W12
	BYTE		N09     Ds2   v088
	BYTE		N09     Ds3   v120
	BYTE	W12
	BYTE		        Gn2   v088
	BYTE		N09     Gn3   v120
	BYTE	W12
	BYTE		        As2   v088
	BYTE		N09     As3   v120
	BYTE	W12
	BYTE		N21     An2   v088
	BYTE		N21     An3   v120
	BYTE	W06
	BYTE		BEND    c_v+1
	BYTE	W01
	BYTE		        c_v+2
	BYTE	W02
	BYTE		        c_v+1
	BYTE	W01
	BYTE		        c_v+0
	BYTE	W02
	BYTE		        c_v-1
	BYTE	W01
	BYTE		        c_v-2
	BYTE	W02
	BYTE		        c_v-1
	BYTE	W01
	BYTE		        c_v+0
	BYTE	W08
	BYTE		N09     As2   v088
	BYTE		N09     As3   v120
	BYTE	W10
	BYTE		BEND    c_v+0
	BYTE	W01
	BYTE		        c_v-32
	BYTE	W01
	BYTE		        c_v-28
	BYTE		N24     Dn3   v088
	BYTE		N24     Dn4   v120
	BYTE	W01
	BYTE		BEND    c_v-24
	BYTE	W01
	BYTE		        c_v-20
	BYTE	W01
	BYTE		        c_v-12
	BYTE	W01
	BYTE		        c_v-8
	BYTE	W01
	BYTE		        c_v-4
	BYTE	W01
	BYTE		        c_v+0
	BYTE	W01
	BYTE		        c_v+2
	BYTE	W02
	BYTE		        c_v+3
	BYTE	W01
	BYTE		        c_v+2
	BYTE	W02
// 020   ----------------------------------------
	BYTE		        c_v+1
	BYTE	W01
	BYTE		        c_v+0
	BYTE	W02
	BYTE		        c_v-1
	BYTE	W01
	BYTE		        c_v-2
	BYTE	W02
	BYTE		        c_v-1
	BYTE	W01
	BYTE		        c_v+0
	BYTE	W02
	BYTE		        c_v+1
	BYTE	W01
	BYTE		        c_v+0
	BYTE	W14
	BYTE		N09     Cn3   v088
	BYTE		N09     Cn4   v120
	BYTE	W12
	BYTE		        Dn3   v088
	BYTE		N09     Dn4   v120
	BYTE	W10
	BYTE		BEND    c_v+0
	BYTE	W01
	BYTE		        c_v-32
	BYTE	W01
	BYTE		        c_v-24
	BYTE		N09     Ds3   v088
	BYTE		N09     Ds4   v120
	BYTE	W01
	BYTE		BEND    c_v-16
	BYTE	W01
	BYTE		        c_v-8
	BYTE	W01
	BYTE		        c_v+0
	BYTE	W09
	BYTE		N09     Dn3   v088
	BYTE		N09     Dn4   v120
	BYTE	W12
	BYTE		        Cn3   v088
	BYTE		N09     Cn4   v120
	BYTE	W12
	BYTE		N03     As2   v088
	BYTE		N03     As3   v120
	BYTE	W06
	BYTE		N24     An2   v088
	BYTE		N24     An3   v120
	BYTE	W06
// 021   ----------------------------------------
	BYTE		BEND    c_v+1
	BYTE	W01
	BYTE		        c_v+2
	BYTE	W02
	BYTE		        c_v+3
	BYTE	W01
	BYTE		        c_v+2
	BYTE	W02
	BYTE		        c_v+1
	BYTE	W01
	BYTE		        c_v+0
	BYTE	W02
	BYTE		        c_v-1
	BYTE	W01
	BYTE		        c_v-2
	BYTE	W02
	BYTE		        c_v-1
	BYTE	W01
	BYTE		        c_v+0
	BYTE	W02
	BYTE		        c_v+1
	BYTE	W01
	BYTE		        c_v+0
	BYTE	W08
	BYTE		N09     Gn2   v088
	BYTE		N09     Gn3   v120
	BYTE	W12
	BYTE		        An2   v088
	BYTE		N09     An3   v120
	BYTE	W10
	BYTE		BEND    c_v+0
	BYTE	W01
	BYTE		        c_v-32
	BYTE	W01
	BYTE		        c_v-32
	BYTE		TIE     Dn3   v088
	BYTE		TIE     Dn4   v120
	BYTE	W01
	BYTE		BEND    c_v-28
	BYTE	W02
	BYTE		        c_v-24
	BYTE	W01
	BYTE		        c_v-20
	BYTE	W02
	BYTE		        c_v-16
	BYTE	W01
	BYTE		        c_v-12
	BYTE	W02
	BYTE		        c_v-8
	BYTE	W01
	BYTE		        c_v-4
	BYTE	W02
	BYTE		        c_v+0
	BYTE	W06
	BYTE		        c_v+1
	BYTE	W01
	BYTE		        c_v+2
	BYTE	W02
	BYTE		        c_v+1
	BYTE	W01
	BYTE		        c_v+0
	BYTE	W02
	BYTE		        c_v-1
	BYTE	W01
	BYTE		        c_v-2
	BYTE	W02
	BYTE		        c_v-1
	BYTE	W01
	BYTE		        c_v+0
	BYTE	W02
	BYTE		        c_v+1
	BYTE	W01
	BYTE		        c_v+2
	BYTE	W02
	BYTE		        c_v+3
	BYTE	W01
	BYTE		        c_v+2
	BYTE	W02
	BYTE		        c_v+1
	BYTE	W01
	BYTE		        c_v+0
	BYTE	W02
	BYTE		        c_v-1
	BYTE	W01
	BYTE		        c_v-2
	BYTE	W02
	BYTE		        c_v-1
	BYTE	W01
	BYTE		        c_v+0
	BYTE	W02
	BYTE		        c_v+1
	BYTE	W01
	BYTE		        c_v+2
	BYTE	W02
// 022   ----------------------------------------
	BYTE		        c_v+3
	BYTE	W01
	BYTE		        c_v+4
	BYTE	W02
	BYTE		        c_v+3
	BYTE	W01
	BYTE		        c_v+2
	BYTE	W02
	BYTE		        c_v+1
	BYTE	W01
	BYTE		        c_v+0
	BYTE	W02
	BYTE		        c_v-1
	BYTE	W01
	BYTE		        c_v-2
	BYTE	W02
	BYTE		        c_v-1
	BYTE	W01
	BYTE		        c_v+0
	BYTE	W02
	BYTE		        c_v+2
	BYTE	W01
	BYTE		        c_v+3
	BYTE	W02
	BYTE		        c_v+4
	BYTE	W01
	BYTE		        c_v+5
	BYTE	W02
	BYTE		        c_v+4
	BYTE	W01
	BYTE		        c_v+3
	BYTE	W02
	BYTE		        c_v+2
	BYTE	W01
	BYTE		        c_v+0
	BYTE	W02
	BYTE		        c_v-1
	BYTE	W01
	BYTE		        c_v-2
	BYTE	W02
	BYTE		        c_v-1
	BYTE	W01
	BYTE		        c_v+0
	BYTE	W02
	BYTE		        c_v+2
	BYTE	W01
	BYTE		        c_v+3
	BYTE	W02
	BYTE		        c_v+4
	BYTE	W01
	BYTE		        c_v+5
	BYTE	W02
	BYTE		        c_v+4
	BYTE	W01
	BYTE		        c_v+3
	BYTE	W02
	BYTE		        c_v+2
	BYTE	W01
	BYTE		        c_v+0
	BYTE	W02
	BYTE		        c_v-1
	BYTE	W01
	BYTE		        c_v+0
	BYTE	W05
	BYTE		EOT     Dn3 
	BYTE		        Dn4 
	BYTE	W44
	BYTE	W01
// 023   ----------------------------------------
SteelCockpit0_7_023:
	BYTE	W12
	BYTE		N08     Dn2   v088
	BYTE		N08     Dn3   v120
	BYTE	W12
	BYTE		N10     Gn2   v088
	BYTE		N10     Gn3   v120
	BYTE	W10
	BYTE		BEND    c_v+0
	BYTE	W01
	BYTE		        c_v-32
	BYTE	W01
	BYTE		        c_v-24
	BYTE		N10     As2   v088
	BYTE		N10     As3   v120
	BYTE	W01
	BYTE		BEND    c_v-16
	BYTE	W01
	BYTE		        c_v-8
	BYTE	W01
	BYTE		        c_v+0
	BYTE	W09
	BYTE		N10     An2   v088
	BYTE		N10     An3   v120
	BYTE	W12
	BYTE		N08     Gn2   v088
	BYTE		N08     Gn3   v120
	BYTE	W12
	BYTE		        Fn2   v088
	BYTE		N08     Fn3   v120
	BYTE	W12
	BYTE		N16     Gn2   v088
	BYTE		N16     Gn3   v120
	BYTE	W06
	BYTE		BEND    c_v+1
	BYTE	W01
	BYTE		        c_v+2
	BYTE	W02
	BYTE		        c_v+1
	BYTE	W01
	BYTE		        c_v+0
	BYTE	W02
	BYTE	PEND
// 024   ----------------------------------------
SteelCockpit0_7_024:
	BYTE	W12
	BYTE		N08     Dn2   v088
	BYTE		N08     Dn3   v120
	BYTE	W12
	BYTE		N10     Gn2   v088
	BYTE		N10     Gn3   v120
	BYTE	W10
	BYTE		BEND    c_v+0
	BYTE	W01
	BYTE		        c_v-32
	BYTE	W01
	BYTE		        c_v-24
	BYTE		N10     As2   v088
	BYTE		N10     As3   v120
	BYTE	W01
	BYTE		BEND    c_v-16
	BYTE	W01
	BYTE		        c_v-8
	BYTE	W01
	BYTE		        c_v+0
	BYTE	W09
	BYTE		N08     An2   v088
	BYTE		N08     An3   v120
	BYTE	W12
	BYTE		N10     An2   v088
	BYTE		N10     An3   v120
	BYTE	W10
	BYTE		BEND    c_v+0
	BYTE	W01
	BYTE		        c_v-32
	BYTE	W01
	BYTE		        c_v-27
	BYTE		N08     Fn3   v088
	BYTE		N08     Fn4   v120
	BYTE	W01
	BYTE		BEND    c_v-21
	BYTE	W01
	BYTE		        c_v-15
	BYTE	W01
	BYTE		        c_v-4
	BYTE	W01
	BYTE		        c_v+0
	BYTE	W08
	BYTE		N32     Dn3   v088
	BYTE		N32     Dn4   v120
	BYTE	W06
	BYTE		BEND    c_v+1
	BYTE	W01
	BYTE		        c_v+2
	BYTE	W02
	BYTE		        c_v+3
	BYTE	W01
	BYTE		        c_v+2
	BYTE	W02
	BYTE	PEND
// 025   ----------------------------------------
SteelCockpit0_7_025:
	BYTE		BEND    c_v+1
	BYTE	W01
	BYTE		        c_v+0
	BYTE	W02
	BYTE		        c_v-1
	BYTE	W01
	BYTE		        c_v-2
	BYTE	W02
	BYTE		        c_v-1
	BYTE	W01
	BYTE		        c_v+0
	BYTE	W02
	BYTE		        c_v+1
	BYTE	W01
	BYTE		        c_v+2
	BYTE	W02
	BYTE		        c_v+3
	BYTE	W01
	BYTE		        c_v+2
	BYTE	W02
	BYTE		        c_v+1
	BYTE	W01
	BYTE		        c_v+0
	BYTE	W20
	BYTE		N04     Cn3   v088
	BYTE		N04     Cn4   v120
	BYTE	W06
	BYTE		        Dn3   v088
	BYTE		N04     Dn4   v120
	BYTE	W06
	BYTE		N10     Ds3   v088
	BYTE		N10     Ds4   v120
	BYTE	W12
	BYTE		N05     Fn3   v088
	BYTE		N05     Fn4   v120
	BYTE	W06
	BYTE		N10     Ds3   v088
	BYTE		N10     Ds4   v120
	BYTE	W18
	BYTE		N08     As2   v088
	BYTE		N08     As3   v120
	BYTE	W12
	BYTE	PEND
// 026   ----------------------------------------
	BYTE		N10     Gn2   v088
	BYTE		N10     Gn3   v120
	BYTE	W12
	BYTE		        An2   v088
	BYTE		N10     An3   v120
	BYTE	W12
	BYTE		N16     As2   v088
	BYTE		N16     As3   v120
	BYTE	W06
	BYTE		BEND    c_v+1
	BYTE	W01
	BYTE		        c_v+2
	BYTE	W02
	BYTE		        c_v+1
	BYTE	W01
	BYTE		        c_v+0
	BYTE	W14
	BYTE		N15     An2   v088
	BYTE		N15     An3   v120
	BYTE	W06
	BYTE		BEND    c_v+1
	BYTE	W01
	BYTE		        c_v+2
	BYTE	W02
	BYTE		        c_v+1
	BYTE	W01
	BYTE		        c_v+0
	BYTE	W12
	BYTE		        c_v+0
	BYTE	W01
	BYTE		        c_v+32
	BYTE	W01
	BYTE		        c_v+35
	BYTE		N21     As2   v088
	BYTE		N21     As3   v120
	BYTE	W01
	BYTE		BEND    c_v+39
	BYTE	W01
	BYTE		        c_v+43
	BYTE	W01
	BYTE		        c_v+51
	BYTE	W01
	BYTE		        c_v+55
	BYTE	W01
	BYTE		        c_v+59
	BYTE	W01
	BYTE		        c_v+63
	BYTE	W09
	BYTE		        c_v+48
	BYTE	W01
	BYTE		        c_v+32
	BYTE	W01
	BYTE		        c_v+16
	BYTE	W01
	BYTE		        c_v-16
	BYTE	W01
	BYTE		        c_v-32
	BYTE	W01
	BYTE		        c_v-48
	BYTE	W01
	BYTE		        c_v-64
	BYTE	W01
	BYTE		        c_v-64
	BYTE	W01
	BYTE		        c_v+0
	BYTE	W01
// 027   ----------------------------------------
	BYTE		        c_v+0
	BYTE		N28     Dn2   v088
	BYTE		N28     Dn3   v120
	BYTE	W06
	BYTE		BEND    c_v+1
	BYTE	W01
	BYTE		        c_v+2
	BYTE	W02
	BYTE		        c_v+1
	BYTE	W01
	BYTE		        c_v+0
	BYTE	W02
	BYTE		        c_v-1
	BYTE	W01
	BYTE		        c_v-2
	BYTE	W02
	BYTE		        c_v-1
	BYTE	W01
	BYTE		        c_v+0
	BYTE	W02
	BYTE		        c_v+1
	BYTE	W01
	BYTE		        c_v+2
	BYTE	W02
	BYTE		        c_v+1
	BYTE	W01
	BYTE		        c_v+0
	BYTE	W24
	BYTE	W02
	BYTE		N18     Ds2   v088
	BYTE		N18     Ds3   v120
	BYTE	W06
	BYTE		BEND    c_v+1
	BYTE	W01
	BYTE		        c_v+2
	BYTE	W02
	BYTE		        c_v+1
	BYTE	W01
	BYTE		        c_v+0
	BYTE	W02
	BYTE		        c_v-1
	BYTE	W01
	BYTE		        c_v-2
	BYTE	W02
	BYTE		        c_v-1
	BYTE	W01
	BYTE		        c_v+0
	BYTE	W08
	BYTE		N18     As1   v088
	BYTE		N18     As2   v120
	BYTE	W06
	BYTE		BEND    c_v+1
	BYTE	W01
	BYTE		        c_v+2
	BYTE	W02
	BYTE		        c_v+1
	BYTE	W01
	BYTE		        c_v+0
	BYTE	W02
	BYTE		        c_v-1
	BYTE	W01
	BYTE		        c_v-2
	BYTE	W02
	BYTE		        c_v-1
	BYTE	W01
	BYTE		        c_v+0
	BYTE	W08
// 028   ----------------------------------------
	BYTE		N15     Ds2   v088
	BYTE		N15     Ds3   v120
	BYTE	W06
	BYTE		BEND    c_v+1
	BYTE	W01
	BYTE		        c_v+2
	BYTE	W02
	BYTE		        c_v+1
	BYTE	W01
	BYTE		        c_v+0
	BYTE	W08
	BYTE		N15     Fn2   v088
	BYTE		N15     Fn3   v120
	BYTE	W06
	BYTE		BEND    c_v+1
	BYTE	W01
	BYTE		        c_v+2
	BYTE	W02
	BYTE		        c_v+1
	BYTE	W01
	BYTE		        c_v+0
	BYTE	W08
	BYTE		N09     Gn2   v088
	BYTE		N09     Gn3   v120
	BYTE	W12
	BYTE		N16     An2   v088
	BYTE		N16     An3   v120
	BYTE	W06
	BYTE		BEND    c_v+1
	BYTE	W01
	BYTE		        c_v+2
	BYTE	W02
	BYTE		        c_v+1
	BYTE	W01
	BYTE		        c_v+0
	BYTE	W14
	BYTE		N18     Fn2   v088
	BYTE		N18     Fn3   v120
	BYTE	W06
	BYTE		BEND    c_v+1
	BYTE	W01
	BYTE		        c_v+2
	BYTE	W02
	BYTE		        c_v+1
	BYTE	W01
	BYTE		        c_v+0
	BYTE	W02
	BYTE		        c_v-1
	BYTE	W01
	BYTE		        c_v-2
	BYTE	W02
	BYTE		        c_v-1
	BYTE	W01
	BYTE		        c_v+0
	BYTE	W06
	BYTE		        c_v+0
	BYTE	W01
	BYTE		        c_v-32
	BYTE	W01
// 029   ----------------------------------------
	BYTE		        c_v-28
	BYTE		N21     Fn3   v088
	BYTE		N21     Fn4   v120
	BYTE	W01
	BYTE		BEND    c_v-24
	BYTE	W01
	BYTE		        c_v-20
	BYTE	W01
	BYTE		        c_v-12
	BYTE	W01
	BYTE		        c_v-8
	BYTE	W01
	BYTE		        c_v-4
	BYTE	W01
	BYTE		        c_v+0
	BYTE	W06
	BYTE		        c_v+1
	BYTE	W01
	BYTE		        c_v+2
	BYTE	W02
	BYTE		        c_v+1
	BYTE	W01
	BYTE		        c_v+0
	BYTE	W08
	BYTE		N22     An2   v088
	BYTE		N22     An3   v120
	BYTE	W06
	BYTE		BEND    c_v+1
	BYTE	W01
	BYTE		        c_v+2
	BYTE	W02
	BYTE		        c_v+1
	BYTE	W01
	BYTE		        c_v+0
	BYTE	W02
	BYTE		        c_v-1
	BYTE	W01
	BYTE		        c_v-2
	BYTE	W02
	BYTE		        c_v-1
	BYTE	W01
	BYTE		        c_v+0
	BYTE	W08
	BYTE		N18     Gn2   v088
	BYTE		N18     Gn3   v120
	BYTE	W06
	BYTE		BEND    c_v+1
	BYTE	W01
	BYTE		        c_v+2
	BYTE	W02
	BYTE		        c_v+3
	BYTE	W01
	BYTE		        c_v+2
	BYTE	W02
	BYTE		        c_v+1
	BYTE	W01
	BYTE		        c_v+0
	BYTE	W02
	BYTE		        c_v-1
	BYTE	W01
	BYTE		        c_v+0
	BYTE	W08
	BYTE		N36     Cn3   v088
	BYTE		N36     Cn4   v120
	BYTE	W06
	BYTE		BEND    c_v+1
	BYTE	W01
	BYTE		        c_v+2
	BYTE	W02
	BYTE		        c_v+3
	BYTE	W01
	BYTE		        c_v+2
	BYTE	W02
	BYTE		        c_v+1
	BYTE	W01
	BYTE		        c_v+0
	BYTE	W02
	BYTE		        c_v-1
	BYTE	W01
	BYTE		        c_v-2
	BYTE	W02
	BYTE		        c_v-1
	BYTE	W01
	BYTE		        c_v+0
	BYTE	W02
	BYTE		        c_v+1
	BYTE	W01
	BYTE		        c_v+2
	BYTE	W02
// 030   ----------------------------------------
	BYTE		        c_v+3
	BYTE	W01
	BYTE		        c_v+4
	BYTE	W02
	BYTE		        c_v+3
	BYTE	W01
	BYTE		        c_v+2
	BYTE	W02
	BYTE		        c_v+1
	BYTE	W01
	BYTE		        c_v+0
	BYTE	W02
	BYTE		        c_v-1
	BYTE	W01
	BYTE		        c_v+0
	BYTE	W14
	BYTE		N08     Gn2   v088
	BYTE		N08     Gn3   v120
	BYTE	W12
	BYTE		        Cn3   v088
	BYTE		N08     Cn4   v120
	BYTE	W10
	BYTE		BEND    c_v+0
	BYTE	W01
	BYTE		        c_v-32
	BYTE	W01
	BYTE		        c_v-24
	BYTE		N09     Dn3   v088
	BYTE		N09     Dn4   v120
	BYTE	W01
	BYTE		BEND    c_v-16
	BYTE	W01
	BYTE		        c_v-8
	BYTE	W01
	BYTE		        c_v+0
	BYTE	W09
	BYTE		N09     Dn3   v088
	BYTE		N09     Dn4   v120
	BYTE	W12
	BYTE		        Dn3   v088
	BYTE		N09     Dn4   v120
	BYTE	W12
	BYTE		N15     Dn2   v088
	BYTE		N15     Dn3   v120
	BYTE	W06
	BYTE		BEND    c_v+1
	BYTE	W01
	BYTE		        c_v+2
	BYTE	W02
	BYTE		        c_v+1
	BYTE	W01
	BYTE		        c_v+0
	BYTE	W02
// 031   ----------------------------------------
	BYTE	PATT
	 POIN2	SteelCockpit0_7_023
// 032   ----------------------------------------
	BYTE	PATT
	 POIN2	SteelCockpit0_7_024
// 033   ----------------------------------------
	BYTE	PATT
	 POIN2	SteelCockpit0_7_025
// 034   ----------------------------------------
	BYTE		N10     Gn2   v088
	BYTE		N10     Gn3   v120
	BYTE	W12
	BYTE		        An2   v088
	BYTE		N10     An3   v120
	BYTE	W12
	BYTE		N16     As2   v088
	BYTE		N16     As3   v120
	BYTE	W06
	BYTE		BEND    c_v+1
	BYTE	W01
	BYTE		        c_v+2
	BYTE	W02
	BYTE		        c_v+1
	BYTE	W01
	BYTE		        c_v+0
	BYTE	W14
	BYTE		N15     An2   v088
	BYTE		N15     An3   v120
	BYTE	W06
	BYTE		BEND    c_v+1
	BYTE	W01
	BYTE		        c_v+2
	BYTE	W02
	BYTE		        c_v+1
	BYTE	W01
	BYTE		        c_v+0
	BYTE	W12
	BYTE		        c_v+0
	BYTE	W01
	BYTE		        c_v+32
	BYTE	W01
	BYTE		        c_v+35
	BYTE		N15     As2   v088
	BYTE		N15     As3   v120
	BYTE	W01
	BYTE		BEND    c_v+39
	BYTE	W01
	BYTE		        c_v+43
	BYTE	W01
	BYTE		        c_v+51
	BYTE	W01
	BYTE		        c_v+55
	BYTE	W01
	BYTE		        c_v+59
	BYTE	W01
	BYTE		        c_v+63
	BYTE	W09
	BYTE		        c_v+48
	BYTE	W01
	BYTE		        c_v+32
	BYTE	W01
	BYTE		        c_v+16
	BYTE	W01
	BYTE		        c_v-16
	BYTE	W01
	BYTE		        c_v-32
	BYTE	W01
	BYTE		        c_v-48
	BYTE	W01
	BYTE		        c_v-64
	BYTE	W01
	BYTE		        c_v-64
	BYTE	W01
	BYTE		        c_v+0
	BYTE	W01
// 035   ----------------------------------------
	BYTE		        c_v+0
	BYTE		N22     Dn2   v088
	BYTE		N22     Dn3   v120
	BYTE	W06
	BYTE		BEND    c_v+1
	BYTE	W01
	BYTE		        c_v+2
	BYTE	W02
	BYTE		        c_v+1
	BYTE	W01
	BYTE		        c_v+0
	BYTE	W02
	BYTE		        c_v-1
	BYTE	W01
	BYTE		        c_v-2
	BYTE	W02
	BYTE		        c_v-1
	BYTE	W01
	BYTE		        c_v+0
	BYTE	W02
	BYTE		        c_v+1
	BYTE	W01
	BYTE		        c_v+2
	BYTE	W02
	BYTE		        c_v+1
	BYTE	W01
	BYTE		        c_v+0
	BYTE	W24
	BYTE	W02
	BYTE		        c_v+8
	BYTE		N21     Dn2   v088
	BYTE		N21     Dn3   v120
	BYTE	W01
	BYTE		BEND    c_v+16
	BYTE	W01
	BYTE		        c_v+24
	BYTE	W01
	BYTE		        c_v+32
	BYTE	W09
	BYTE		        c_v+24
	BYTE	W01
	BYTE		        c_v+16
	BYTE	W01
	BYTE		        c_v+8
	BYTE	W01
	BYTE		        c_v-8
	BYTE	W01
	BYTE		        c_v-16
	BYTE	W01
	BYTE		        c_v-24
	BYTE	W01
	BYTE		        c_v-40
	BYTE	W01
	BYTE		        c_v-48
	BYTE	W01
	BYTE		        c_v-56
	BYTE	W01
	BYTE		        c_v-64
	BYTE	W02
	BYTE		        c_v-64
	BYTE	W01
	BYTE		        c_v+0
	BYTE		N18     As1   v088
	BYTE		N18     As2   v120
	BYTE	W06
	BYTE		BEND    c_v+1
	BYTE	W01
	BYTE		        c_v+2
	BYTE	W02
	BYTE		        c_v+3
	BYTE	W01
	BYTE		        c_v+2
	BYTE	W02
	BYTE		        c_v+1
	BYTE	W01
	BYTE		        c_v+0
	BYTE	W02
	BYTE		        c_v-1
	BYTE	W01
	BYTE		        c_v+0
	BYTE	W08
// 036   ----------------------------------------
	BYTE		N15     Ds2   v088
	BYTE		N15     Ds3   v120
	BYTE	W06
	BYTE		BEND    c_v+1
	BYTE	W01
	BYTE		        c_v+2
	BYTE	W02
	BYTE		        c_v+1
	BYTE	W01
	BYTE		        c_v+0
	BYTE	W08
	BYTE		N15     Fn2   v088
	BYTE		N15     Fn3   v120
	BYTE	W06
	BYTE		BEND    c_v+1
	BYTE	W01
	BYTE		        c_v+2
	BYTE	W02
	BYTE		        c_v+1
	BYTE	W01
	BYTE		        c_v+0
	BYTE	W08
	BYTE		N09     Gn2   v088
	BYTE		N09     Gn3   v120
	BYTE	W12
	BYTE		N16     An2   v088
	BYTE		N16     An3   v120
	BYTE	W06
	BYTE		BEND    c_v+1
	BYTE	W01
	BYTE		        c_v+2
	BYTE	W02
	BYTE		        c_v+1
	BYTE	W01
	BYTE		        c_v+0
	BYTE	W12
	BYTE		        c_v+0
	BYTE	W01
	BYTE		        c_v-32
	BYTE	W01
	BYTE		        c_v-28
	BYTE		N16     As2   v088
	BYTE		N16     As3   v120
	BYTE	W01
	BYTE		BEND    c_v-24
	BYTE	W01
	BYTE		        c_v-20
	BYTE	W01
	BYTE		        c_v-12
	BYTE	W01
	BYTE		        c_v-8
	BYTE	W01
	BYTE		        c_v-4
	BYTE	W01
	BYTE		        c_v+0
	BYTE	W03
	BYTE		        c_v+1
	BYTE	W01
	BYTE		        c_v+2
	BYTE	W02
	BYTE		        c_v+1
	BYTE	W01
	BYTE		        c_v+0
	BYTE	W11
// 037   ----------------------------------------
	BYTE		N16     An2   v088
	BYTE		N16     An3   v120
	BYTE	W06
	BYTE		BEND    c_v+1
	BYTE	W01
	BYTE		        c_v+2
	BYTE	W02
	BYTE		        c_v+1
	BYTE	W01
	BYTE		        c_v+0
	BYTE	W14
	BYTE		N16     Fn2   v088
	BYTE		N16     Fn3   v120
	BYTE	W06
	BYTE		BEND    c_v+1
	BYTE	W01
	BYTE		        c_v+2
	BYTE	W02
	BYTE		        c_v+1
	BYTE	W01
	BYTE		        c_v+0
	BYTE	W14
	BYTE		        c_v+8
	BYTE		N21     Fs2   v088
	BYTE		N21     Fs3   v120
	BYTE	W01
	BYTE		BEND    c_v+16
	BYTE	W01
	BYTE		        c_v+24
	BYTE	W01
	BYTE		        c_v+32
	BYTE	W09
	BYTE		        c_v+24
	BYTE	W01
	BYTE		        c_v+16
	BYTE	W01
	BYTE		        c_v+8
	BYTE	W01
	BYTE		        c_v-8
	BYTE	W01
	BYTE		        c_v-16
	BYTE	W01
	BYTE		        c_v-24
	BYTE	W01
	BYTE		        c_v-40
	BYTE	W01
	BYTE		        c_v-48
	BYTE	W01
	BYTE		        c_v-56
	BYTE	W01
	BYTE		        c_v-64
	BYTE	W02
	BYTE		        c_v-64
	BYTE	W01
	BYTE		        c_v+0
	BYTE		N18     Cn2   v088
	BYTE		N18     Cn3   v120
	BYTE	W06
	BYTE		BEND    c_v+1
	BYTE	W01
	BYTE		        c_v+2
	BYTE	W02
	BYTE		        c_v+3
	BYTE	W01
	BYTE		        c_v+2
	BYTE	W02
	BYTE		        c_v+1
	BYTE	W01
	BYTE		        c_v+0
	BYTE	W02
	BYTE		        c_v-1
	BYTE	W01
	BYTE		        c_v+0
	BYTE	W08
// 038   ----------------------------------------
	BYTE		N15     Gn2   v088
	BYTE		N15     Gn3   v120
	BYTE	W06
	BYTE		BEND    c_v+1
	BYTE	W01
	BYTE		        c_v+2
	BYTE	W02
	BYTE		        c_v+1
	BYTE	W01
	BYTE		        c_v+0
	BYTE	W08
	BYTE		N15     An2   v088
	BYTE		N15     An3   v120
	BYTE	W06
	BYTE		BEND    c_v+1
	BYTE	W01
	BYTE		        c_v+2
	BYTE	W02
	BYTE		        c_v+1
	BYTE	W01
	BYTE		        c_v+0
	BYTE	W08
	BYTE		N09     As2   v088
	BYTE		N09     As3   v120
	BYTE	W12
	BYTE		N07     An2   v088
	BYTE		N07     An3   v120
	BYTE	W10
	BYTE		BEND    c_v+0
	BYTE	W01
	BYTE		        c_v-20
	BYTE	W01
	BYTE		        c_v-32
	BYTE		N90     Dn3   v088
	BYTE		N90     Dn4   v120
	BYTE	W01
	BYTE		BEND    c_v-28
	BYTE	W02
	BYTE		        c_v-24
	BYTE	W01
	BYTE		        c_v-20
	BYTE	W02
	BYTE		        c_v-16
	BYTE	W01
	BYTE		        c_v-12
	BYTE	W02
	BYTE		        c_v-8
	BYTE	W01
	BYTE		        c_v-4
	BYTE	W02
	BYTE		        c_v+0
	BYTE	W06
	BYTE		        c_v+1
	BYTE	W01
	BYTE		        c_v+2
	BYTE	W02
	BYTE		        c_v+1
	BYTE	W01
	BYTE		        c_v+0
	BYTE	W02
	BYTE		        c_v-1
	BYTE	W01
	BYTE		        c_v-2
	BYTE	W02
	BYTE		        c_v-1
	BYTE	W01
	BYTE		        c_v+0
	BYTE	W02
	BYTE		        c_v+1
	BYTE	W01
	BYTE		        c_v+2
	BYTE	W02
	BYTE		        c_v+3
	BYTE	W01
	BYTE		        c_v+2
	BYTE	W02
// 039   ----------------------------------------
	BYTE		        c_v+1
	BYTE	W01
	BYTE		        c_v+0
	BYTE	W02
	BYTE		        c_v-1
	BYTE	W01
	BYTE		        c_v-2
	BYTE	W02
	BYTE		        c_v-1
	BYTE	W01
	BYTE		        c_v+0
	BYTE	W02
	BYTE		        c_v+1
	BYTE	W01
	BYTE		        c_v+2
	BYTE	W02
	BYTE		        c_v+3
	BYTE	W01
	BYTE		        c_v+4
	BYTE	W02
	BYTE		        c_v+3
	BYTE	W01
	BYTE		        c_v+2
	BYTE	W02
	BYTE		        c_v+1
	BYTE	W01
	BYTE		        c_v+0
	BYTE	W02
	BYTE		        c_v-1
	BYTE	W01
	BYTE		        c_v-2
	BYTE	W02
	BYTE		        c_v-1
	BYTE	W01
	BYTE		        c_v+0
	BYTE	W02
	BYTE		        c_v+2
	BYTE	W01
	BYTE		        c_v+3
	BYTE	W02
	BYTE		        c_v+4
	BYTE	W01
	BYTE		        c_v+5
	BYTE	W02
	BYTE		        c_v+4
	BYTE	W01
	BYTE		        c_v+3
	BYTE	W02
	BYTE		        c_v+2
	BYTE	W01
	BYTE		        c_v+0
	BYTE	W02
	BYTE		        c_v-1
	BYTE	W01
	BYTE		        c_v-2
	BYTE	W02
	BYTE		        c_v-1
	BYTE	W01
	BYTE		        c_v+0
	BYTE	W02
	BYTE		        c_v+1
	BYTE	W01
	BYTE		        c_v+2
	BYTE	W02
	BYTE		        c_v+3
	BYTE	W01
	BYTE		        c_v+2
	BYTE	W02
	BYTE		        c_v+1
	BYTE	W01
	BYTE		        c_v+0
	BYTE	W44
// 040   ----------------------------------------
	BYTE		N06     An2   v088
	BYTE		N06     An3   v120
	BYTE	W12
	BYTE		        As2   v088
	BYTE		N06     As3   v120
	BYTE	W12
	BYTE		N04     Cn3   v088
	BYTE		N04     Cn4   v120
	BYTE	W06
	BYTE		BEND    c_v+15
	BYTE		N15     Cn3   v088
	BYTE		N15     Cn4   v120
	BYTE	W01
	BYTE		BEND    c_v+31
	BYTE	W01
	BYTE		        c_v+47
	BYTE	W01
	BYTE		        c_v+63
	BYTE	W06
	BYTE		        c_v+48
	BYTE	W01
	BYTE		        c_v+32
	BYTE	W01
	BYTE		        c_v+16
	BYTE	W01
	BYTE		        c_v-16
	BYTE	W01
	BYTE		        c_v-32
	BYTE	W01
	BYTE		        c_v-48
	BYTE	W01
	BYTE		        c_v-64
	BYTE	W01
	BYTE		        c_v-64
	BYTE	W01
	BYTE		        c_v+0
	BYTE	W01
	BYTE		        c_v+0
	BYTE		N15     Gn2   v088
	BYTE		N15     Gn3   v120
	BYTE	W36
	BYTE		N03     Gn2   v088
	BYTE		N03     Gn3   v120
	BYTE	W06
	BYTE		        An2   v088
	BYTE		N03     An3   v120
	BYTE	W06
// 041   ----------------------------------------
	BYTE	PATT
	 POIN2	SteelCockpit0_7_001
// 042   ----------------------------------------
	BYTE	W24
	BYTE		N05     Cn3   v088
	BYTE		N05     Cn4   v120
	BYTE	W12
	BYTE		        As2   v088
	BYTE		N05     As3   v120
	BYTE	W20
	BYTE	GoTo
	 POIN2	SteelCockpit0_7_B1
SteelCockpit0_7_B2:
	BYTE	FINE

//**************** Track 8 (Midi-Chn.9) ****************//

SteelCockpit0_8:
	BYTE	KEYSH   SteelCockpit0_key+0
// 000   ----------------------------------------
	BYTE		VOICE   61
	BYTE		VOL     44*SteelCockpit0_mvl/mxv
	BYTE	W01
	BYTE		PAN     c_v+0
	BYTE	W01
	BYTE		BEND    c_v+0
	BYTE	W44
	BYTE	W02
	BYTE		N28     Gn2   v088
	BYTE		N28     Gn3   v112
	BYTE	W36
	BYTE		N03     Gn2   v088
	BYTE		N03     Gn3   v112
	BYTE	W06
	BYTE		        An2   v088
	BYTE		N03     An3   v112
	BYTE	W06
// 001   ----------------------------------------
SteelCockpit0_8_001:
	BYTE		N28     As2   v088
	BYTE		N28     As3   v112
	BYTE	W36
	BYTE		N03     As2   v088
	BYTE		N03     As3   v112
	BYTE	W06
	BYTE		        Cn3   v088
	BYTE		N03     Cn4   v112
	BYTE	W06
	BYTE		N64     Dn3   v088
	BYTE		N64     Dn4   v112
	BYTE	W48
	BYTE	PEND
// 002   ----------------------------------------
	BYTE	W24
	BYTE		N05     Cn3   v088
	BYTE		N05     Cn4   v112
	BYTE	W12
	BYTE		        As2   v088
	BYTE		N05     As3   v112
	BYTE	W12
SteelCockpit0_8_B1:
	BYTE		N17     An2   v088
	BYTE		N17     An3   v112
	BYTE	W24
	BYTE		        Bn2   v088
	BYTE		N17     Bn3   v112
	BYTE	W24
// 003   ----------------------------------------
	BYTE		N11     Cs3   v088
	BYTE		N11     Cs4   v112
	BYTE	W18
	BYTE		        En3   v088
	BYTE		N11     En4   v112
	BYTE	W18
	BYTE		        Gn3   v088
	BYTE		N11     Gn4   v112
	BYTE	W12
	BYTE		N28     Dn3   v088
	BYTE		N28     Dn4   v112
	BYTE	W36
	BYTE		        En3   v084
	BYTE		N28     En4   v112
	BYTE	W12
// 004   ----------------------------------------
	BYTE	W24
	BYTE		N17     Fs3   v080
	BYTE		N17     Fs4   v108
	BYTE	W24
	BYTE		        Gn3   v080
	BYTE		N17     Gn4   v108
	BYTE	W48
// 005   ----------------------------------------
	BYTE	W96
// 006   ----------------------------------------
	BYTE	W48
	BYTE		N07     Gn2   v100
	BYTE		N07     Gn3   v112
	BYTE	W12
	BYTE		        Fn2   v100
	BYTE		N07     Fn3   v112
	BYTE	W12
	BYTE		        Gn2   v100
	BYTE		N07     Gn3   v112
	BYTE	W12
	BYTE		        Dn2   v100
	BYTE		N07     Dn3   v112
	BYTE	W12
// 007   ----------------------------------------
	BYTE		N06     Fn2   v100
	BYTE		N06     Fn3   v112
	BYTE	W06
	BYTE		N09     Gn2   v100
	BYTE		N09     Gn3   v112
	BYTE	W12
	BYTE		N18     Gn2   v100
	BYTE		N18     Gn3   v112
	BYTE	W06
	BYTE		BEND    c_v+1
	BYTE	W01
	BYTE		        c_v+2
	BYTE	W02
	BYTE		        c_v+1
	BYTE	W01
	BYTE		        c_v+0
	BYTE	W02
	BYTE		        c_v-1
	BYTE	W01
	BYTE		        c_v-2
	BYTE	W02
	BYTE		        c_v-1
	BYTE	W01
	BYTE		        c_v+0
	BYTE	W08
	BYTE		N06     Gn2   v076
	BYTE		N06     Gn3   v092
	BYTE	W03
	BYTE		        An2   v076
	BYTE		N06     An3   v092
	BYTE	W03
	BYTE		        As2   v100
	BYTE		N06     As3   v112
	BYTE	W12
	BYTE		        An2   v100
	BYTE		N06     An3   v112
	BYTE	W12
	BYTE		        Gn2   v100
	BYTE		N06     Gn3   v112
	BYTE	W06
	BYTE		N09     An2   v100
	BYTE		N09     An3   v112
	BYTE	W12
	BYTE		N30     Dn2   v100
	BYTE		N30     Dn3   v112
	BYTE	W06
// 008   ----------------------------------------
	BYTE		BEND    c_v+1
	BYTE	W01
	BYTE		        c_v+2
	BYTE	W02
	BYTE		        c_v+1
	BYTE	W01
	BYTE		        c_v+0
	BYTE	W02
	BYTE		        c_v-1
	BYTE	W01
	BYTE		        c_v-2
	BYTE	W02
	BYTE		        c_v-1
	BYTE	W01
	BYTE		        c_v+0
	BYTE	W02
	BYTE		        c_v+1
	BYTE	W01
	BYTE		        c_v+2
	BYTE	W02
	BYTE		        c_v+3
	BYTE	W01
	BYTE		        c_v+2
	BYTE	W02
	BYTE		        c_v+1
	BYTE	W01
	BYTE		        c_v+0
	BYTE	W02
	BYTE		        c_v-1
	BYTE	W01
	BYTE		        c_v+0
	BYTE	W14
	BYTE		N09     Dn2   v100
	BYTE		N09     Dn3   v112
	BYTE	W10
	BYTE		BEND    c_v+0
	BYTE	W01
	BYTE		        c_v+32
	BYTE	W01
	BYTE		        c_v+35
	BYTE		N21     Cs2   v100
	BYTE		N21     Cs3   v112
	BYTE	W01
	BYTE		BEND    c_v+39
	BYTE	W01
	BYTE		        c_v+43
	BYTE	W01
	BYTE		        c_v+51
	BYTE	W01
	BYTE		        c_v+55
	BYTE	W01
	BYTE		        c_v+59
	BYTE	W01
	BYTE		        c_v+63
	BYTE	W06
	BYTE		        c_v+53
	BYTE	W01
	BYTE		        c_v+42
	BYTE	W01
	BYTE		        c_v+32
	BYTE	W01
	BYTE		        c_v+11
	BYTE	W01
	BYTE		        c_v+0
	BYTE	W01
	BYTE		        c_v-11
	BYTE	W01
	BYTE		        c_v-32
	BYTE	W01
	BYTE		        c_v-42
	BYTE	W01
	BYTE		        c_v-53
	BYTE	W01
	BYTE		        c_v-64
	BYTE	W01
	BYTE		        c_v-64
	BYTE	W01
	BYTE		        c_v+0
	BYTE	W01
	BYTE		N18     As1   v100
	BYTE		N18     As2   v112
	BYTE	W06
	BYTE		BEND    c_v+1
	BYTE	W01
	BYTE		        c_v+2
	BYTE	W02
	BYTE		        c_v+1
	BYTE	W01
	BYTE		        c_v+0
	BYTE	W02
	BYTE		        c_v-1
	BYTE	W01
	BYTE		        c_v-2
	BYTE	W02
	BYTE		        c_v-1
	BYTE	W01
	BYTE		        c_v+0
	BYTE	W08
// 009   ----------------------------------------
	BYTE		N15     Ds2   v100
	BYTE		N15     Ds3   v112
	BYTE	W06
	BYTE		BEND    c_v+1
	BYTE	W01
	BYTE		        c_v+2
	BYTE	W02
	BYTE		        c_v+1
	BYTE	W01
	BYTE		        c_v+0
	BYTE	W08
	BYTE		N15     Fn2   v100
	BYTE		N15     Fn3   v112
	BYTE	W06
	BYTE		BEND    c_v+1
	BYTE	W01
	BYTE		        c_v+2
	BYTE	W02
	BYTE		        c_v+1
	BYTE	W01
	BYTE		        c_v+0
	BYTE	W08
	BYTE		        c_v+4
	BYTE		N09     Fs2   v100
	BYTE		N09     Fs3   v112
	BYTE	W01
	BYTE		BEND    c_v+8
	BYTE	W01
	BYTE		        c_v+12
	BYTE	W01
	BYTE		        c_v+20
	BYTE	W01
	BYTE		        c_v+24
	BYTE	W01
	BYTE		        c_v+28
	BYTE	W01
	BYTE		        c_v+32
	BYTE	W06
	BYTE		        c_v+32
	BYTE		N21     En2   v100
	BYTE		N21     En3   v112
	BYTE	W06
	BYTE		BEND    c_v+33
	BYTE	W01
	BYTE		        c_v+34
	BYTE	W02
	BYTE		        c_v+33
	BYTE	W01
	BYTE		        c_v+32
	BYTE	W02
	BYTE		        c_v+24
	BYTE	W01
	BYTE		        c_v+16
	BYTE	W01
	BYTE		        c_v+8
	BYTE	W01
	BYTE		        c_v-8
	BYTE	W01
	BYTE		        c_v-16
	BYTE	W01
	BYTE		        c_v-24
	BYTE	W01
	BYTE		        c_v-40
	BYTE	W01
	BYTE		        c_v-48
	BYTE	W01
	BYTE		        c_v-56
	BYTE	W01
	BYTE		        c_v-64
	BYTE	W01
	BYTE		        c_v-64
	BYTE	W01
	BYTE		        c_v+0
	BYTE	W01
	BYTE		        c_v+0
	BYTE		N21     Cn2   v100
	BYTE		N21     Cn3   v112
	BYTE	W06
	BYTE		BEND    c_v+1
	BYTE	W01
	BYTE		        c_v+2
	BYTE	W02
	BYTE		        c_v+1
	BYTE	W01
	BYTE		        c_v+0
	BYTE	W02
	BYTE		        c_v-1
	BYTE	W01
	BYTE		        c_v-2
	BYTE	W02
	BYTE		        c_v-1
	BYTE	W01
	BYTE		        c_v+0
	BYTE	W06
	BYTE		        c_v+0
	BYTE	W01
	BYTE		        c_v-32
	BYTE	W01
// 010   ----------------------------------------
	BYTE		        c_v-28
	BYTE		N36     Dn2   v092
	BYTE		N36     Dn3   v104
	BYTE	W01
	BYTE		BEND    c_v-24
	BYTE	W01
	BYTE		        c_v-20
	BYTE	W01
	BYTE		        c_v-12
	BYTE	W01
	BYTE		        c_v-8
	BYTE	W01
	BYTE		        c_v-4
	BYTE	W01
	BYTE		        c_v+0
	BYTE	W06
	BYTE		        c_v+1
	BYTE	W01
	BYTE		        c_v+2
	BYTE	W02
	BYTE		        c_v+3
	BYTE	W01
	BYTE		        c_v+2
	BYTE	W02
	BYTE		        c_v+1
	BYTE	W01
	BYTE		        c_v+0
	BYTE	W02
	BYTE		        c_v-1
	BYTE	W01
	BYTE		        c_v-2
	BYTE	W02
	BYTE		        c_v-1
	BYTE	W01
	BYTE		        c_v+0
	BYTE	W02
	BYTE		        c_v+1
	BYTE	W01
	BYTE		        c_v+2
	BYTE	W02
	BYTE		        c_v+3
	BYTE	W01
	BYTE		        c_v+2
	BYTE	W02
	BYTE		        c_v+1
	BYTE	W01
	BYTE		        c_v+0
	BYTE	W14
	BYTE		N07     Gn2   v100
	BYTE		N07     Gn3   v112
	BYTE	W12
	BYTE		        Fn2   v100
	BYTE		N07     Fn3   v112
	BYTE	W12
	BYTE		        Gn2   v100
	BYTE		N07     Gn3   v112
	BYTE	W12
	BYTE		        Dn2   v100
	BYTE		N07     Dn3   v112
	BYTE	W12
// 011   ----------------------------------------
	BYTE		N06     Fn2   v100
	BYTE		N06     Fn3   v112
	BYTE	W06
	BYTE		N09     Gn2   v100
	BYTE		N09     Gn3   v112
	BYTE	W12
	BYTE		N18     Gn2   v100
	BYTE		N18     Gn3   v112
	BYTE	W06
	BYTE		BEND    c_v+1
	BYTE	W01
	BYTE		        c_v+2
	BYTE	W02
	BYTE		        c_v+1
	BYTE	W01
	BYTE		        c_v+0
	BYTE	W02
	BYTE		        c_v-1
	BYTE	W01
	BYTE		        c_v-2
	BYTE	W02
	BYTE		        c_v-1
	BYTE	W01
	BYTE		        c_v+0
	BYTE	W08
	BYTE		N06     Gn2   v076
	BYTE		N06     Gn3   v092
	BYTE	W03
	BYTE		        An2   v076
	BYTE		N06     An3   v092
	BYTE	W03
	BYTE		        As2   v100
	BYTE		N06     As3   v112
	BYTE	W12
	BYTE		        An2   v100
	BYTE		N06     An3   v112
	BYTE	W12
	BYTE		        Gn2   v100
	BYTE		N06     Gn3   v112
	BYTE	W06
	BYTE		N09     Fn2   v100
	BYTE		N09     Fn3   v112
	BYTE	W12
	BYTE		N30     Dn2   v100
	BYTE		N30     Dn3   v112
	BYTE	W06
// 012   ----------------------------------------
	BYTE		BEND    c_v+1
	BYTE	W01
	BYTE		        c_v+2
	BYTE	W02
	BYTE		        c_v+1
	BYTE	W01
	BYTE		        c_v+0
	BYTE	W02
	BYTE		        c_v-1
	BYTE	W01
	BYTE		        c_v-2
	BYTE	W02
	BYTE		        c_v-1
	BYTE	W01
	BYTE		        c_v+0
	BYTE	W02
	BYTE		        c_v+1
	BYTE	W01
	BYTE		        c_v+2
	BYTE	W02
	BYTE		        c_v+3
	BYTE	W01
	BYTE		        c_v+2
	BYTE	W02
	BYTE		        c_v+1
	BYTE	W01
	BYTE		        c_v+0
	BYTE	W02
	BYTE		        c_v-1
	BYTE	W01
	BYTE		        c_v+0
	BYTE	W14
	BYTE		N09     Fn2   v100
	BYTE		N09     Fn3   v112
	BYTE	W12
	BYTE		N18     Gn2   v100
	BYTE		N18     Gn3   v112
	BYTE	W06
	BYTE		BEND    c_v+1
	BYTE	W01
	BYTE		        c_v+2
	BYTE	W02
	BYTE		        c_v+1
	BYTE	W01
	BYTE		        c_v+0
	BYTE	W02
	BYTE		        c_v-1
	BYTE	W01
	BYTE		        c_v-2
	BYTE	W02
	BYTE		        c_v-1
	BYTE	W01
	BYTE		        c_v+0
	BYTE	W06
	BYTE		        c_v+0
	BYTE	W01
	BYTE		        c_v-32
	BYTE	W01
	BYTE		        c_v-32
	BYTE		N18     As2   v100
	BYTE		N18     As3   v112
	BYTE	W01
	BYTE		BEND    c_v-27
	BYTE	W02
	BYTE		        c_v-22
	BYTE	W01
	BYTE		        c_v-16
	BYTE	W02
	BYTE		        c_v-11
	BYTE	W01
	BYTE		        c_v-6
	BYTE	W02
	BYTE		        c_v+0
	BYTE	W03
	BYTE		        c_v+2
	BYTE	W01
	BYTE		        c_v+3
	BYTE	W02
	BYTE		        c_v+2
	BYTE	W01
	BYTE		        c_v+0
	BYTE	W08
// 013   ----------------------------------------
	BYTE		N18     An2   v100
	BYTE		N18     An3   v112
	BYTE	W06
	BYTE		BEND    c_v+1
	BYTE	W01
	BYTE		        c_v+2
	BYTE	W02
	BYTE		        c_v+1
	BYTE	W01
	BYTE		        c_v+0
	BYTE	W02
	BYTE		        c_v-1
	BYTE	W01
	BYTE		        c_v-2
	BYTE	W02
	BYTE		        c_v-1
	BYTE	W01
	BYTE		        c_v+0
	BYTE	W08
	BYTE		N18     Fn2   v100
	BYTE		N18     Fn3   v112
	BYTE	W06
	BYTE		BEND    c_v+1
	BYTE	W01
	BYTE		        c_v+2
	BYTE	W02
	BYTE		        c_v+1
	BYTE	W01
	BYTE		        c_v+0
	BYTE	W02
	BYTE		        c_v-1
	BYTE	W01
	BYTE		        c_v-2
	BYTE	W02
	BYTE		        c_v-1
	BYTE	W01
	BYTE		        c_v+0
	BYTE	W08
	BYTE		N42     Gn2   v092
	BYTE		N42     Gn3   v104
	BYTE	W06
	BYTE		BEND    c_v+1
	BYTE	W01
	BYTE		        c_v+2
	BYTE	W02
	BYTE		        c_v+1
	BYTE	W01
	BYTE		        c_v+0
	BYTE	W02
	BYTE		        c_v-1
	BYTE	W01
	BYTE		        c_v-2
	BYTE	W02
	BYTE		        c_v-1
	BYTE	W01
	BYTE		        c_v+0
	BYTE	W02
	BYTE		        c_v+1
	BYTE	W01
	BYTE		        c_v+2
	BYTE	W02
	BYTE		        c_v+3
	BYTE	W01
	BYTE		        c_v+2
	BYTE	W02
	BYTE		        c_v+1
	BYTE	W01
	BYTE		        c_v+0
	BYTE	W02
	BYTE		        c_v-1
	BYTE	W01
	BYTE		        c_v-2
	BYTE	W02
	BYTE		        c_v-1
	BYTE	W01
	BYTE		        c_v+0
	BYTE	W02
	BYTE		        c_v+1
	BYTE	W01
	BYTE		        c_v+2
	BYTE	W02
	BYTE		        c_v+3
	BYTE	W01
	BYTE		        c_v+2
	BYTE	W02
	BYTE		        c_v+1
	BYTE	W01
	BYTE		        c_v+0
	BYTE	W08
// 014   ----------------------------------------
	BYTE	W12
	BYTE		N09     Gn2   v100
	BYTE		N09     Gn3   v112
	BYTE	W12
	BYTE		        Fn2   v100
	BYTE		N09     Fn3   v112
	BYTE	W12
	BYTE		N60     Gn2   v100
	BYTE		N60     Gn3   v112
	BYTE	W06
	BYTE		BEND    c_v+1
	BYTE	W01
	BYTE		        c_v+2
	BYTE	W02
	BYTE		        c_v+1
	BYTE	W01
	BYTE		        c_v+0
	BYTE	W02
	BYTE		        c_v-1
	BYTE	W01
	BYTE		        c_v-2
	BYTE	W02
	BYTE		        c_v-1
	BYTE	W01
	BYTE		        c_v+0
	BYTE	W02
	BYTE		        c_v+1
	BYTE	W01
	BYTE		        c_v+2
	BYTE	W02
	BYTE		        c_v+3
	BYTE	W01
	BYTE		        c_v+2
	BYTE	W02
	BYTE		        c_v+1
	BYTE	W01
	BYTE		        c_v+0
	BYTE	W02
	BYTE		        c_v-1
	BYTE	W01
	BYTE		        c_v-2
	BYTE	W02
	BYTE		        c_v-1
	BYTE	W01
	BYTE		        c_v+0
	BYTE	W02
	BYTE		        c_v+1
	BYTE	W01
	BYTE		        c_v+2
	BYTE	W02
	BYTE		        c_v+3
	BYTE	W01
	BYTE		        c_v+4
	BYTE	W02
	BYTE		        c_v+3
	BYTE	W01
	BYTE		        c_v+2
	BYTE	W02
	BYTE		        c_v+1
	BYTE	W01
	BYTE		        c_v+0
	BYTE	W02
	BYTE		        c_v-1
	BYTE	W01
	BYTE		        c_v-2
	BYTE	W02
	BYTE		        c_v-1
	BYTE	W01
	BYTE		        c_v+0
	BYTE	W02
	BYTE		        c_v+1
	BYTE	W01
	BYTE		        c_v+2
	BYTE	W02
	BYTE		        c_v+3
	BYTE	W01
	BYTE		        c_v+2
	BYTE	W02
	BYTE		        c_v+1
	BYTE	W01
	BYTE		        c_v+0
	BYTE	W02
// 015   ----------------------------------------
	BYTE	W12
	BYTE		N09     Ds2   v100
	BYTE		N09     Ds3   v112
	BYTE	W12
	BYTE		        Gn2   v100
	BYTE		N09     Gn3   v112
	BYTE	W10
	BYTE		BEND    c_v+0
	BYTE	W01
	BYTE		        c_v-32
	BYTE	W01
	BYTE		        c_v-24
	BYTE		N09     As2   v100
	BYTE		N09     As3   v112
	BYTE	W01
	BYTE		BEND    c_v-16
	BYTE	W01
	BYTE		        c_v-8
	BYTE	W01
	BYTE		        c_v+0
	BYTE	W09
	BYTE		N21     An2   v100
	BYTE		N21     An3   v112
	BYTE	W06
	BYTE		BEND    c_v+1
	BYTE	W01
	BYTE		        c_v+2
	BYTE	W02
	BYTE		        c_v+1
	BYTE	W01
	BYTE		        c_v+0
	BYTE	W02
	BYTE		        c_v-1
	BYTE	W01
	BYTE		        c_v-2
	BYTE	W02
	BYTE		        c_v-1
	BYTE	W01
	BYTE		        c_v+0
	BYTE	W08
	BYTE		N09     As2   v100
	BYTE		N09     As3   v112
	BYTE	W12
	BYTE		N24     Dn2   v100
	BYTE		N24     Dn3   v112
	BYTE	W06
	BYTE		BEND    c_v+1
	BYTE	W01
	BYTE		        c_v+2
	BYTE	W02
	BYTE		        c_v+3
	BYTE	W01
	BYTE		        c_v+2
	BYTE	W02
// 016   ----------------------------------------
	BYTE		        c_v+1
	BYTE	W01
	BYTE		        c_v+0
	BYTE	W02
	BYTE		        c_v-1
	BYTE	W01
	BYTE		        c_v-2
	BYTE	W02
	BYTE		        c_v-1
	BYTE	W01
	BYTE		        c_v+0
	BYTE	W02
	BYTE		        c_v+1
	BYTE	W01
	BYTE		        c_v+0
	BYTE	W14
	BYTE		N09     Cn2   v100
	BYTE		N09     Cn3   v112
	BYTE	W12
	BYTE		        Dn2   v100
	BYTE		N09     Dn3   v112
	BYTE	W12
	BYTE		N18     Ds2   v100
	BYTE		N18     Ds3   v112
	BYTE	W06
	BYTE		BEND    c_v+1
	BYTE	W01
	BYTE		        c_v+2
	BYTE	W02
	BYTE		        c_v+3
	BYTE	W01
	BYTE		        c_v+2
	BYTE	W02
	BYTE		        c_v+1
	BYTE	W01
	BYTE		        c_v+0
	BYTE	W02
	BYTE		        c_v-1
	BYTE	W01
	BYTE		        c_v+0
	BYTE	W08
	BYTE		N18     Ds2   v100
	BYTE		N18     Ds3   v112
	BYTE	W06
	BYTE		BEND    c_v+1
	BYTE	W01
	BYTE		        c_v+2
	BYTE	W02
	BYTE		        c_v+3
	BYTE	W01
	BYTE		        c_v+2
	BYTE	W02
	BYTE		        c_v+1
	BYTE	W01
	BYTE		        c_v+0
	BYTE	W02
	BYTE		        c_v-1
	BYTE	W01
	BYTE		        c_v+0
	BYTE	W08
// 017   ----------------------------------------
	BYTE		N15     Fn2   v100
	BYTE		N15     Fn3   v112
	BYTE	W06
	BYTE		BEND    c_v+1
	BYTE	W01
	BYTE		        c_v+2
	BYTE	W02
	BYTE		        c_v+1
	BYTE	W01
	BYTE		        c_v+0
	BYTE	W08
	BYTE		        c_v+8
	BYTE		N15     Fs2   v100
	BYTE		N15     Fs3   v112
	BYTE	W01
	BYTE		BEND    c_v+16
	BYTE	W01
	BYTE		        c_v+24
	BYTE	W01
	BYTE		        c_v+32
	BYTE	W06
	BYTE		        c_v+20
	BYTE	W01
	BYTE		        c_v+8
	BYTE	W01
	BYTE		        c_v-4
	BYTE	W01
	BYTE		        c_v-28
	BYTE	W01
	BYTE		        c_v-40
	BYTE	W01
	BYTE		        c_v-52
	BYTE	W01
	BYTE		        c_v-64
	BYTE	W01
	BYTE		        c_v-64
	BYTE	W01
	BYTE		        c_v+0
	BYTE	W01
	BYTE		        c_v+0
	BYTE		N56     Dn2   v100
	BYTE		N56     Dn3   v112
	BYTE	W06
	BYTE		BEND    c_v+1
	BYTE	W01
	BYTE		        c_v+2
	BYTE	W02
	BYTE		        c_v+1
	BYTE	W01
	BYTE		        c_v+0
	BYTE	W02
	BYTE		        c_v-1
	BYTE	W01
	BYTE		        c_v-2
	BYTE	W02
	BYTE		        c_v-1
	BYTE	W01
	BYTE		        c_v+0
	BYTE	W02
	BYTE		        c_v+1
	BYTE	W01
	BYTE		        c_v+2
	BYTE	W02
	BYTE		        c_v+3
	BYTE	W01
	BYTE		        c_v+2
	BYTE	W02
	BYTE		        c_v+1
	BYTE	W01
	BYTE		        c_v+0
	BYTE	W02
	BYTE		        c_v-1
	BYTE	W01
	BYTE		        c_v-2
	BYTE	W02
	BYTE		        c_v-1
	BYTE	W01
	BYTE		        c_v+0
	BYTE	W02
	BYTE		        c_v+1
	BYTE	W01
	BYTE		        c_v+2
	BYTE	W02
	BYTE		        c_v+3
	BYTE	W01
	BYTE		        c_v+4
	BYTE	W02
	BYTE		        c_v+3
	BYTE	W01
	BYTE		        c_v+2
	BYTE	W02
	BYTE		        c_v+1
	BYTE	W01
	BYTE		        c_v+0
	BYTE	W02
	BYTE		        c_v-1
	BYTE	W01
	BYTE		        c_v-2
	BYTE	W02
	BYTE		        c_v-1
	BYTE	W01
	BYTE		        c_v+0
	BYTE	W02
	BYTE		        c_v+1
	BYTE	W01
	BYTE		        c_v+0
	BYTE	W08
// 018   ----------------------------------------
	BYTE	W10
	BYTE		        c_v+0
	BYTE	W01
	BYTE		        c_v-32
	BYTE	W01
	BYTE		        c_v-28
	BYTE		N09     Gn2   v100
	BYTE		N09     Gn3   v112
	BYTE	W01
	BYTE		BEND    c_v-24
	BYTE	W01
	BYTE		        c_v-20
	BYTE	W01
	BYTE		        c_v-12
	BYTE	W01
	BYTE		        c_v-8
	BYTE	W01
	BYTE		        c_v-4
	BYTE	W01
	BYTE		        c_v+0
	BYTE	W06
	BYTE		N09     Fn2   v100
	BYTE		N09     Fn3   v112
	BYTE	W12
	BYTE		N60     Gn2   v100
	BYTE		N60     Gn3   v112
	BYTE	W06
	BYTE		BEND    c_v+1
	BYTE	W01
	BYTE		        c_v+2
	BYTE	W02
	BYTE		        c_v+1
	BYTE	W01
	BYTE		        c_v+0
	BYTE	W02
	BYTE		        c_v-1
	BYTE	W01
	BYTE		        c_v-2
	BYTE	W02
	BYTE		        c_v-1
	BYTE	W01
	BYTE		        c_v+0
	BYTE	W02
	BYTE		        c_v+1
	BYTE	W01
	BYTE		        c_v+2
	BYTE	W02
	BYTE		        c_v+3
	BYTE	W01
	BYTE		        c_v+2
	BYTE	W02
	BYTE		        c_v+1
	BYTE	W01
	BYTE		        c_v+0
	BYTE	W02
	BYTE		        c_v-1
	BYTE	W01
	BYTE		        c_v-2
	BYTE	W02
	BYTE		        c_v-1
	BYTE	W01
	BYTE		        c_v+0
	BYTE	W02
	BYTE		        c_v+1
	BYTE	W01
	BYTE		        c_v+2
	BYTE	W02
	BYTE		        c_v+3
	BYTE	W01
	BYTE		        c_v+4
	BYTE	W02
	BYTE		        c_v+3
	BYTE	W01
	BYTE		        c_v+2
	BYTE	W02
	BYTE		        c_v+1
	BYTE	W01
	BYTE		        c_v+0
	BYTE	W02
	BYTE		        c_v-1
	BYTE	W01
	BYTE		        c_v-2
	BYTE	W02
	BYTE		        c_v-1
	BYTE	W01
	BYTE		        c_v+0
	BYTE	W02
	BYTE		        c_v+1
	BYTE	W01
	BYTE		        c_v+2
	BYTE	W02
	BYTE		        c_v+3
	BYTE	W01
	BYTE		        c_v+2
	BYTE	W02
	BYTE		        c_v+1
	BYTE	W01
	BYTE		        c_v+0
	BYTE	W02
// 019   ----------------------------------------
	BYTE	W12
	BYTE		N09     Ds2   v100
	BYTE		N09     Ds3   v112
	BYTE	W12
	BYTE		        Gn2   v100
	BYTE		N09     Gn3   v112
	BYTE	W12
	BYTE		        As2   v100
	BYTE		N09     As3   v112
	BYTE	W12
	BYTE		N21     An2   v100
	BYTE		N21     An3   v112
	BYTE	W06
	BYTE		BEND    c_v+1
	BYTE	W01
	BYTE		        c_v+2
	BYTE	W02
	BYTE		        c_v+1
	BYTE	W01
	BYTE		        c_v+0
	BYTE	W02
	BYTE		        c_v-1
	BYTE	W01
	BYTE		        c_v-2
	BYTE	W02
	BYTE		        c_v-1
	BYTE	W01
	BYTE		        c_v+0
	BYTE	W08
	BYTE		N09     As2   v100
	BYTE		N09     As3   v112
	BYTE	W10
	BYTE		BEND    c_v+0
	BYTE	W01
	BYTE		        c_v-32
	BYTE	W01
	BYTE		        c_v-28
	BYTE		N24     Dn3   v100
	BYTE		N24     Dn4   v112
	BYTE	W01
	BYTE		BEND    c_v-24
	BYTE	W01
	BYTE		        c_v-20
	BYTE	W01
	BYTE		        c_v-12
	BYTE	W01
	BYTE		        c_v-8
	BYTE	W01
	BYTE		        c_v-4
	BYTE	W01
	BYTE		        c_v+0
	BYTE	W01
	BYTE		        c_v+2
	BYTE	W02
	BYTE		        c_v+3
	BYTE	W01
	BYTE		        c_v+2
	BYTE	W02
// 020   ----------------------------------------
	BYTE		        c_v+1
	BYTE	W01
	BYTE		        c_v+0
	BYTE	W02
	BYTE		        c_v-1
	BYTE	W01
	BYTE		        c_v-2
	BYTE	W02
	BYTE		        c_v-1
	BYTE	W01
	BYTE		        c_v+0
	BYTE	W02
	BYTE		        c_v+1
	BYTE	W01
	BYTE		        c_v+0
	BYTE	W14
	BYTE		N09     Cn3   v100
	BYTE		N09     Cn4   v112
	BYTE	W12
	BYTE		        Dn3   v100
	BYTE		N09     Dn4   v112
	BYTE	W10
	BYTE		BEND    c_v+0
	BYTE	W01
	BYTE		        c_v-32
	BYTE	W01
	BYTE		        c_v-24
	BYTE		N09     Ds3   v100
	BYTE		N09     Ds4   v112
	BYTE	W01
	BYTE		BEND    c_v-16
	BYTE	W01
	BYTE		        c_v-8
	BYTE	W01
	BYTE		        c_v+0
	BYTE	W09
	BYTE		N09     Dn3   v100
	BYTE		N09     Dn4   v112
	BYTE	W12
	BYTE		        Cn3   v100
	BYTE		N09     Cn4   v112
	BYTE	W12
	BYTE		N03     As2   v100
	BYTE		N03     As3   v112
	BYTE	W06
	BYTE		N24     An2   v100
	BYTE		N24     An3   v112
	BYTE	W06
// 021   ----------------------------------------
	BYTE		BEND    c_v+1
	BYTE	W01
	BYTE		        c_v+2
	BYTE	W02
	BYTE		        c_v+3
	BYTE	W01
	BYTE		        c_v+2
	BYTE	W02
	BYTE		        c_v+1
	BYTE	W01
	BYTE		        c_v+0
	BYTE	W02
	BYTE		        c_v-1
	BYTE	W01
	BYTE		        c_v-2
	BYTE	W02
	BYTE		        c_v-1
	BYTE	W01
	BYTE		        c_v+0
	BYTE	W02
	BYTE		        c_v+1
	BYTE	W01
	BYTE		        c_v+0
	BYTE	W08
	BYTE		N09     Gn2   v100
	BYTE		N09     Gn3   v112
	BYTE	W12
	BYTE		        An2   v100
	BYTE		N09     An3   v112
	BYTE	W10
	BYTE		BEND    c_v+0
	BYTE	W01
	BYTE		        c_v-32
	BYTE	W01
	BYTE		        c_v-32
	BYTE		TIE     Dn3   v100
	BYTE		TIE     Dn4   v112
	BYTE	W01
	BYTE		BEND    c_v-28
	BYTE	W02
	BYTE		        c_v-24
	BYTE	W01
	BYTE		        c_v-20
	BYTE	W02
	BYTE		        c_v-16
	BYTE	W01
	BYTE		        c_v-12
	BYTE	W02
	BYTE		        c_v-8
	BYTE	W01
	BYTE		        c_v-4
	BYTE	W02
	BYTE		        c_v+0
	BYTE	W06
	BYTE		        c_v+1
	BYTE	W01
	BYTE		        c_v+2
	BYTE	W02
	BYTE		        c_v+1
	BYTE	W01
	BYTE		        c_v+0
	BYTE	W02
	BYTE		        c_v-1
	BYTE	W01
	BYTE		        c_v-2
	BYTE	W02
	BYTE		        c_v-1
	BYTE	W01
	BYTE		        c_v+0
	BYTE	W02
	BYTE		        c_v+1
	BYTE	W01
	BYTE		        c_v+2
	BYTE	W02
	BYTE		        c_v+3
	BYTE	W01
	BYTE		        c_v+2
	BYTE	W02
	BYTE		        c_v+1
	BYTE	W01
	BYTE		        c_v+0
	BYTE	W02
	BYTE		        c_v-1
	BYTE	W01
	BYTE		        c_v-2
	BYTE	W02
	BYTE		        c_v-1
	BYTE	W01
	BYTE		        c_v+0
	BYTE	W02
	BYTE		        c_v+1
	BYTE	W01
	BYTE		        c_v+2
	BYTE	W02
// 022   ----------------------------------------
	BYTE		        c_v+3
	BYTE	W01
	BYTE		        c_v+4
	BYTE	W02
	BYTE		        c_v+3
	BYTE	W01
	BYTE		        c_v+2
	BYTE	W02
	BYTE		        c_v+1
	BYTE	W01
	BYTE		        c_v+0
	BYTE	W02
	BYTE		        c_v-1
	BYTE	W01
	BYTE		        c_v-2
	BYTE	W02
	BYTE		        c_v-1
	BYTE	W01
	BYTE		        c_v+0
	BYTE	W02
	BYTE		        c_v+2
	BYTE	W01
	BYTE		        c_v+3
	BYTE	W02
	BYTE		        c_v+4
	BYTE	W01
	BYTE		        c_v+5
	BYTE	W02
	BYTE		        c_v+4
	BYTE	W01
	BYTE		        c_v+3
	BYTE	W02
	BYTE		        c_v+2
	BYTE	W01
	BYTE		        c_v+0
	BYTE	W02
	BYTE		        c_v-1
	BYTE	W01
	BYTE		        c_v-2
	BYTE	W02
	BYTE		        c_v-1
	BYTE	W01
	BYTE		        c_v+0
	BYTE	W02
	BYTE		        c_v+2
	BYTE	W01
	BYTE		        c_v+3
	BYTE	W02
	BYTE		        c_v+4
	BYTE	W01
	BYTE		        c_v+5
	BYTE	W02
	BYTE		        c_v+4
	BYTE	W01
	BYTE		        c_v+3
	BYTE	W02
	BYTE		        c_v+2
	BYTE	W01
	BYTE		        c_v+0
	BYTE	W02
	BYTE		        c_v-1
	BYTE	W01
	BYTE		        c_v+0
	BYTE	W05
	BYTE		EOT     Dn3 
	BYTE		        Dn4 
	BYTE	W44
	BYTE	W01
// 023   ----------------------------------------
SteelCockpit0_8_023:
	BYTE	W12
	BYTE		N08     Dn2   v100
	BYTE		N08     Dn3   v112
	BYTE	W12
	BYTE		N10     Gn2   v100
	BYTE		N10     Gn3   v112
	BYTE	W10
	BYTE		BEND    c_v+0
	BYTE	W01
	BYTE		        c_v-32
	BYTE	W01
	BYTE		        c_v-24
	BYTE		N10     As2   v100
	BYTE		N10     As3   v112
	BYTE	W01
	BYTE		BEND    c_v-16
	BYTE	W01
	BYTE		        c_v-8
	BYTE	W01
	BYTE		        c_v+0
	BYTE	W09
	BYTE		N10     An2   v100
	BYTE		N10     An3   v112
	BYTE	W12
	BYTE		N08     Gn2   v100
	BYTE		N08     Gn3   v112
	BYTE	W12
	BYTE		        Fn2   v100
	BYTE		N08     Fn3   v112
	BYTE	W12
	BYTE		N16     Gn2   v100
	BYTE		N16     Gn3   v112
	BYTE	W06
	BYTE		BEND    c_v+1
	BYTE	W01
	BYTE		        c_v+2
	BYTE	W02
	BYTE		        c_v+1
	BYTE	W01
	BYTE		        c_v+0
	BYTE	W02
	BYTE	PEND
// 024   ----------------------------------------
SteelCockpit0_8_024:
	BYTE	W12
	BYTE		N08     Dn2   v100
	BYTE		N08     Dn3   v112
	BYTE	W12
	BYTE		N10     Gn2   v100
	BYTE		N10     Gn3   v112
	BYTE	W10
	BYTE		BEND    c_v+0
	BYTE	W01
	BYTE		        c_v-32
	BYTE	W01
	BYTE		        c_v-24
	BYTE		N10     As2   v100
	BYTE		N10     As3   v112
	BYTE	W01
	BYTE		BEND    c_v-16
	BYTE	W01
	BYTE		        c_v-8
	BYTE	W01
	BYTE		        c_v+0
	BYTE	W09
	BYTE		N08     An2   v100
	BYTE		N08     An3   v112
	BYTE	W12
	BYTE		N10     An2   v100
	BYTE		N10     An3   v112
	BYTE	W10
	BYTE		BEND    c_v+0
	BYTE	W01
	BYTE		        c_v-32
	BYTE	W01
	BYTE		        c_v-27
	BYTE		N08     Fn3   v100
	BYTE		N08     Fn4   v112
	BYTE	W01
	BYTE		BEND    c_v-21
	BYTE	W01
	BYTE		        c_v-15
	BYTE	W01
	BYTE		        c_v-4
	BYTE	W01
	BYTE		        c_v+0
	BYTE	W08
	BYTE		N32     Dn3   v100
	BYTE		N32     Dn4   v112
	BYTE	W06
	BYTE		BEND    c_v+1
	BYTE	W01
	BYTE		        c_v+2
	BYTE	W02
	BYTE		        c_v+3
	BYTE	W01
	BYTE		        c_v+2
	BYTE	W02
	BYTE	PEND
// 025   ----------------------------------------
SteelCockpit0_8_025:
	BYTE		BEND    c_v+1
	BYTE	W01
	BYTE		        c_v+0
	BYTE	W02
	BYTE		        c_v-1
	BYTE	W01
	BYTE		        c_v-2
	BYTE	W02
	BYTE		        c_v-1
	BYTE	W01
	BYTE		        c_v+0
	BYTE	W02
	BYTE		        c_v+1
	BYTE	W01
	BYTE		        c_v+2
	BYTE	W02
	BYTE		        c_v+3
	BYTE	W01
	BYTE		        c_v+2
	BYTE	W02
	BYTE		        c_v+1
	BYTE	W01
	BYTE		        c_v+0
	BYTE	W20
	BYTE		N04     Cn3   v100
	BYTE		N04     Cn4   v112
	BYTE	W06
	BYTE		        Dn3   v100
	BYTE		N04     Dn4   v112
	BYTE	W06
	BYTE		N10     Ds3   v100
	BYTE		N10     Ds4   v112
	BYTE	W12
	BYTE		N05     Fn3   v100
	BYTE		N05     Fn4   v112
	BYTE	W06
	BYTE		N10     Ds3   v100
	BYTE		N10     Ds4   v112
	BYTE	W18
	BYTE		N08     As2   v100
	BYTE		N08     As3   v112
	BYTE	W12
	BYTE	PEND
// 026   ----------------------------------------
	BYTE		N10     Gn2   v100
	BYTE		N10     Gn3   v112
	BYTE	W12
	BYTE		        An2   v100
	BYTE		N10     An3   v112
	BYTE	W12
	BYTE		N16     As2   v100
	BYTE		N16     As3   v112
	BYTE	W06
	BYTE		BEND    c_v+1
	BYTE	W01
	BYTE		        c_v+2
	BYTE	W02
	BYTE		        c_v+1
	BYTE	W01
	BYTE		        c_v+0
	BYTE	W14
	BYTE		N15     An2   v100
	BYTE		N15     An3   v112
	BYTE	W06
	BYTE		BEND    c_v+1
	BYTE	W01
	BYTE		        c_v+2
	BYTE	W02
	BYTE		        c_v+1
	BYTE	W01
	BYTE		        c_v+0
	BYTE	W12
	BYTE		        c_v+0
	BYTE	W01
	BYTE		        c_v+32
	BYTE	W01
	BYTE		        c_v+35
	BYTE		N21     As2   v100
	BYTE		N21     As3   v112
	BYTE	W01
	BYTE		BEND    c_v+39
	BYTE	W01
	BYTE		        c_v+43
	BYTE	W01
	BYTE		        c_v+51
	BYTE	W01
	BYTE		        c_v+55
	BYTE	W01
	BYTE		        c_v+59
	BYTE	W01
	BYTE		        c_v+63
	BYTE	W09
	BYTE		        c_v+48
	BYTE	W01
	BYTE		        c_v+32
	BYTE	W01
	BYTE		        c_v+16
	BYTE	W01
	BYTE		        c_v-16
	BYTE	W01
	BYTE		        c_v-32
	BYTE	W01
	BYTE		        c_v-48
	BYTE	W01
	BYTE		        c_v-64
	BYTE	W01
	BYTE		        c_v-64
	BYTE	W01
	BYTE		        c_v+0
	BYTE	W01
// 027   ----------------------------------------
	BYTE		        c_v+0
	BYTE		N28     Dn2   v100
	BYTE		N28     Dn3   v112
	BYTE	W06
	BYTE		BEND    c_v+1
	BYTE	W01
	BYTE		        c_v+2
	BYTE	W02
	BYTE		        c_v+1
	BYTE	W01
	BYTE		        c_v+0
	BYTE	W02
	BYTE		        c_v-1
	BYTE	W01
	BYTE		        c_v-2
	BYTE	W02
	BYTE		        c_v-1
	BYTE	W01
	BYTE		        c_v+0
	BYTE	W02
	BYTE		        c_v+1
	BYTE	W01
	BYTE		        c_v+2
	BYTE	W02
	BYTE		        c_v+1
	BYTE	W01
	BYTE		        c_v+0
	BYTE	W24
	BYTE	W02
	BYTE		N18     Ds2   v100
	BYTE		N18     Ds3   v112
	BYTE	W06
	BYTE		BEND    c_v+1
	BYTE	W01
	BYTE		        c_v+2
	BYTE	W02
	BYTE		        c_v+1
	BYTE	W01
	BYTE		        c_v+0
	BYTE	W02
	BYTE		        c_v-1
	BYTE	W01
	BYTE		        c_v-2
	BYTE	W02
	BYTE		        c_v-1
	BYTE	W01
	BYTE		        c_v+0
	BYTE	W08
	BYTE		N18     As1   v100
	BYTE		N18     As2   v112
	BYTE	W06
	BYTE		BEND    c_v+1
	BYTE	W01
	BYTE		        c_v+2
	BYTE	W02
	BYTE		        c_v+1
	BYTE	W01
	BYTE		        c_v+0
	BYTE	W02
	BYTE		        c_v-1
	BYTE	W01
	BYTE		        c_v-2
	BYTE	W02
	BYTE		        c_v-1
	BYTE	W01
	BYTE		        c_v+0
	BYTE	W08
// 028   ----------------------------------------
	BYTE		N15     Ds2   v100
	BYTE		N15     Ds3   v112
	BYTE	W06
	BYTE		BEND    c_v+1
	BYTE	W01
	BYTE		        c_v+2
	BYTE	W02
	BYTE		        c_v+1
	BYTE	W01
	BYTE		        c_v+0
	BYTE	W08
	BYTE		N15     Fn2   v100
	BYTE		N15     Fn3   v112
	BYTE	W06
	BYTE		BEND    c_v+1
	BYTE	W01
	BYTE		        c_v+2
	BYTE	W02
	BYTE		        c_v+1
	BYTE	W01
	BYTE		        c_v+0
	BYTE	W08
	BYTE		N09     Gn2   v100
	BYTE		N09     Gn3   v112
	BYTE	W12
	BYTE		N16     An2   v100
	BYTE		N16     An3   v112
	BYTE	W06
	BYTE		BEND    c_v+1
	BYTE	W01
	BYTE		        c_v+2
	BYTE	W02
	BYTE		        c_v+1
	BYTE	W01
	BYTE		        c_v+0
	BYTE	W14
	BYTE		N18     Fn2   v100
	BYTE		N18     Fn3   v112
	BYTE	W06
	BYTE		BEND    c_v+1
	BYTE	W01
	BYTE		        c_v+2
	BYTE	W02
	BYTE		        c_v+1
	BYTE	W01
	BYTE		        c_v+0
	BYTE	W02
	BYTE		        c_v-1
	BYTE	W01
	BYTE		        c_v-2
	BYTE	W02
	BYTE		        c_v-1
	BYTE	W01
	BYTE		        c_v+0
	BYTE	W06
	BYTE		        c_v+0
	BYTE	W01
	BYTE		        c_v-32
	BYTE	W01
// 029   ----------------------------------------
	BYTE		        c_v-28
	BYTE		N21     Fn3   v100
	BYTE		N21     Fn4   v112
	BYTE	W01
	BYTE		BEND    c_v-24
	BYTE	W01
	BYTE		        c_v-20
	BYTE	W01
	BYTE		        c_v-12
	BYTE	W01
	BYTE		        c_v-8
	BYTE	W01
	BYTE		        c_v-4
	BYTE	W01
	BYTE		        c_v+0
	BYTE	W06
	BYTE		        c_v+1
	BYTE	W01
	BYTE		        c_v+2
	BYTE	W02
	BYTE		        c_v+1
	BYTE	W01
	BYTE		        c_v+0
	BYTE	W08
	BYTE		N22     An2   v100
	BYTE		N22     An3   v112
	BYTE	W06
	BYTE		BEND    c_v+1
	BYTE	W01
	BYTE		        c_v+2
	BYTE	W02
	BYTE		        c_v+1
	BYTE	W01
	BYTE		        c_v+0
	BYTE	W02
	BYTE		        c_v-1
	BYTE	W01
	BYTE		        c_v-2
	BYTE	W02
	BYTE		        c_v-1
	BYTE	W01
	BYTE		        c_v+0
	BYTE	W08
	BYTE		N18     Gn2   v100
	BYTE		N18     Gn3   v112
	BYTE	W06
	BYTE		BEND    c_v+1
	BYTE	W01
	BYTE		        c_v+2
	BYTE	W02
	BYTE		        c_v+3
	BYTE	W01
	BYTE		        c_v+2
	BYTE	W02
	BYTE		        c_v+1
	BYTE	W01
	BYTE		        c_v+0
	BYTE	W02
	BYTE		        c_v-1
	BYTE	W01
	BYTE		        c_v+0
	BYTE	W08
	BYTE		N36     Cn3   v100
	BYTE		N36     Cn4   v112
	BYTE	W06
	BYTE		BEND    c_v+1
	BYTE	W01
	BYTE		        c_v+2
	BYTE	W02
	BYTE		        c_v+3
	BYTE	W01
	BYTE		        c_v+2
	BYTE	W02
	BYTE		        c_v+1
	BYTE	W01
	BYTE		        c_v+0
	BYTE	W02
	BYTE		        c_v-1
	BYTE	W01
	BYTE		        c_v-2
	BYTE	W02
	BYTE		        c_v-1
	BYTE	W01
	BYTE		        c_v+0
	BYTE	W02
	BYTE		        c_v+1
	BYTE	W01
	BYTE		        c_v+2
	BYTE	W02
// 030   ----------------------------------------
	BYTE		        c_v+3
	BYTE	W01
	BYTE		        c_v+4
	BYTE	W02
	BYTE		        c_v+3
	BYTE	W01
	BYTE		        c_v+2
	BYTE	W02
	BYTE		        c_v+1
	BYTE	W01
	BYTE		        c_v+0
	BYTE	W02
	BYTE		        c_v-1
	BYTE	W01
	BYTE		        c_v+0
	BYTE	W14
	BYTE		N08     Gn2   v100
	BYTE		N08     Gn3   v112
	BYTE	W12
	BYTE		        Cn3   v100
	BYTE		N08     Cn4   v112
	BYTE	W10
	BYTE		BEND    c_v+0
	BYTE	W01
	BYTE		        c_v-32
	BYTE	W01
	BYTE		        c_v-24
	BYTE		N09     Dn3   v100
	BYTE		N09     Dn4   v112
	BYTE	W01
	BYTE		BEND    c_v-16
	BYTE	W01
	BYTE		        c_v-8
	BYTE	W01
	BYTE		        c_v+0
	BYTE	W09
	BYTE		N09     Dn3   v100
	BYTE		N09     Dn4   v112
	BYTE	W12
	BYTE		        Dn3   v100
	BYTE		N09     Dn4   v112
	BYTE	W12
	BYTE		N15     Dn2   v100
	BYTE		N15     Dn3   v112
	BYTE	W06
	BYTE		BEND    c_v+1
	BYTE	W01
	BYTE		        c_v+2
	BYTE	W02
	BYTE		        c_v+1
	BYTE	W01
	BYTE		        c_v+0
	BYTE	W02
// 031   ----------------------------------------
	BYTE	PATT
	 POIN2	SteelCockpit0_8_023
// 032   ----------------------------------------
	BYTE	PATT
	 POIN2	SteelCockpit0_8_024
// 033   ----------------------------------------
	BYTE	PATT
	 POIN2	SteelCockpit0_8_025
// 034   ----------------------------------------
	BYTE		N10     Gn2   v100
	BYTE		N10     Gn3   v112
	BYTE	W12
	BYTE		        An2   v100
	BYTE		N10     An3   v112
	BYTE	W12
	BYTE		N16     As2   v100
	BYTE		N16     As3   v112
	BYTE	W06
	BYTE		BEND    c_v+1
	BYTE	W01
	BYTE		        c_v+2
	BYTE	W02
	BYTE		        c_v+1
	BYTE	W01
	BYTE		        c_v+0
	BYTE	W14
	BYTE		N15     An2   v100
	BYTE		N15     An3   v112
	BYTE	W06
	BYTE		BEND    c_v+1
	BYTE	W01
	BYTE		        c_v+2
	BYTE	W02
	BYTE		        c_v+1
	BYTE	W01
	BYTE		        c_v+0
	BYTE	W12
	BYTE		        c_v+0
	BYTE	W01
	BYTE		        c_v+32
	BYTE	W01
	BYTE		        c_v+35
	BYTE		N15     As2   v100
	BYTE		N15     As3   v112
	BYTE	W01
	BYTE		BEND    c_v+39
	BYTE	W01
	BYTE		        c_v+43
	BYTE	W01
	BYTE		        c_v+51
	BYTE	W01
	BYTE		        c_v+55
	BYTE	W01
	BYTE		        c_v+59
	BYTE	W01
	BYTE		        c_v+63
	BYTE	W09
	BYTE		        c_v+48
	BYTE	W01
	BYTE		        c_v+32
	BYTE	W01
	BYTE		        c_v+16
	BYTE	W01
	BYTE		        c_v-16
	BYTE	W01
	BYTE		        c_v-32
	BYTE	W01
	BYTE		        c_v-48
	BYTE	W01
	BYTE		        c_v-64
	BYTE	W01
	BYTE		        c_v-64
	BYTE	W01
	BYTE		        c_v+0
	BYTE	W01
// 035   ----------------------------------------
	BYTE		        c_v+0
	BYTE		N22     Dn2   v100
	BYTE		N22     Dn3   v112
	BYTE	W06
	BYTE		BEND    c_v+1
	BYTE	W01
	BYTE		        c_v+2
	BYTE	W02
	BYTE		        c_v+1
	BYTE	W01
	BYTE		        c_v+0
	BYTE	W02
	BYTE		        c_v-1
	BYTE	W01
	BYTE		        c_v-2
	BYTE	W02
	BYTE		        c_v-1
	BYTE	W01
	BYTE		        c_v+0
	BYTE	W02
	BYTE		        c_v+1
	BYTE	W01
	BYTE		        c_v+2
	BYTE	W02
	BYTE		        c_v+1
	BYTE	W01
	BYTE		        c_v+0
	BYTE	W24
	BYTE	W02
	BYTE		        c_v+8
	BYTE		N21     Dn2   v100
	BYTE		N21     Dn3   v112
	BYTE	W01
	BYTE		BEND    c_v+16
	BYTE	W01
	BYTE		        c_v+24
	BYTE	W01
	BYTE		        c_v+32
	BYTE	W09
	BYTE		        c_v+24
	BYTE	W01
	BYTE		        c_v+16
	BYTE	W01
	BYTE		        c_v+8
	BYTE	W01
	BYTE		        c_v-8
	BYTE	W01
	BYTE		        c_v-16
	BYTE	W01
	BYTE		        c_v-24
	BYTE	W01
	BYTE		        c_v-40
	BYTE	W01
	BYTE		        c_v-48
	BYTE	W01
	BYTE		        c_v-56
	BYTE	W01
	BYTE		        c_v-64
	BYTE	W02
	BYTE		        c_v-64
	BYTE	W01
	BYTE		        c_v+0
	BYTE		N18     As1   v100
	BYTE		N18     As2   v112
	BYTE	W06
	BYTE		BEND    c_v+1
	BYTE	W01
	BYTE		        c_v+2
	BYTE	W02
	BYTE		        c_v+3
	BYTE	W01
	BYTE		        c_v+2
	BYTE	W02
	BYTE		        c_v+1
	BYTE	W01
	BYTE		        c_v+0
	BYTE	W02
	BYTE		        c_v-1
	BYTE	W01
	BYTE		        c_v+0
	BYTE	W08
// 036   ----------------------------------------
	BYTE		N15     Ds2   v100
	BYTE		N15     Ds3   v112
	BYTE	W06
	BYTE		BEND    c_v+1
	BYTE	W01
	BYTE		        c_v+2
	BYTE	W02
	BYTE		        c_v+1
	BYTE	W01
	BYTE		        c_v+0
	BYTE	W08
	BYTE		N15     Fn2   v100
	BYTE		N15     Fn3   v112
	BYTE	W06
	BYTE		BEND    c_v+1
	BYTE	W01
	BYTE		        c_v+2
	BYTE	W02
	BYTE		        c_v+1
	BYTE	W01
	BYTE		        c_v+0
	BYTE	W08
	BYTE		N09     Gn2   v100
	BYTE		N09     Gn3   v112
	BYTE	W12
	BYTE		N16     An2   v100
	BYTE		N16     An3   v112
	BYTE	W06
	BYTE		BEND    c_v+1
	BYTE	W01
	BYTE		        c_v+2
	BYTE	W02
	BYTE		        c_v+1
	BYTE	W01
	BYTE		        c_v+0
	BYTE	W12
	BYTE		        c_v+0
	BYTE	W01
	BYTE		        c_v-32
	BYTE	W01
	BYTE		        c_v-28
	BYTE		N16     As2   v100
	BYTE		N16     As3   v112
	BYTE	W01
	BYTE		BEND    c_v-24
	BYTE	W01
	BYTE		        c_v-20
	BYTE	W01
	BYTE		        c_v-12
	BYTE	W01
	BYTE		        c_v-8
	BYTE	W01
	BYTE		        c_v-4
	BYTE	W01
	BYTE		        c_v+0
	BYTE	W03
	BYTE		        c_v+1
	BYTE	W01
	BYTE		        c_v+2
	BYTE	W02
	BYTE		        c_v+1
	BYTE	W01
	BYTE		        c_v+0
	BYTE	W11
// 037   ----------------------------------------
	BYTE		N16     An2   v100
	BYTE		N16     An3   v112
	BYTE	W06
	BYTE		BEND    c_v+1
	BYTE	W01
	BYTE		        c_v+2
	BYTE	W02
	BYTE		        c_v+1
	BYTE	W01
	BYTE		        c_v+0
	BYTE	W14
	BYTE		N16     Fn2   v100
	BYTE		N16     Fn3   v112
	BYTE	W06
	BYTE		BEND    c_v+1
	BYTE	W01
	BYTE		        c_v+2
	BYTE	W02
	BYTE		        c_v+1
	BYTE	W01
	BYTE		        c_v+0
	BYTE	W14
	BYTE		        c_v+8
	BYTE		N21     Fs2   v100
	BYTE		N21     Fs3   v112
	BYTE	W01
	BYTE		BEND    c_v+16
	BYTE	W01
	BYTE		        c_v+24
	BYTE	W01
	BYTE		        c_v+32
	BYTE	W09
	BYTE		        c_v+24
	BYTE	W01
	BYTE		        c_v+16
	BYTE	W01
	BYTE		        c_v+8
	BYTE	W01
	BYTE		        c_v-8
	BYTE	W01
	BYTE		        c_v-16
	BYTE	W01
	BYTE		        c_v-24
	BYTE	W01
	BYTE		        c_v-40
	BYTE	W01
	BYTE		        c_v-48
	BYTE	W01
	BYTE		        c_v-56
	BYTE	W01
	BYTE		        c_v-64
	BYTE	W02
	BYTE		        c_v-64
	BYTE	W01
	BYTE		        c_v+0
	BYTE		N18     Cn2   v100
	BYTE		N18     Cn3   v112
	BYTE	W06
	BYTE		BEND    c_v+1
	BYTE	W01
	BYTE		        c_v+2
	BYTE	W02
	BYTE		        c_v+3
	BYTE	W01
	BYTE		        c_v+2
	BYTE	W02
	BYTE		        c_v+1
	BYTE	W01
	BYTE		        c_v+0
	BYTE	W02
	BYTE		        c_v-1
	BYTE	W01
	BYTE		        c_v+0
	BYTE	W08
// 038   ----------------------------------------
	BYTE		N15     Gn2   v100
	BYTE		N15     Gn3   v112
	BYTE	W06
	BYTE		BEND    c_v+1
	BYTE	W01
	BYTE		        c_v+2
	BYTE	W02
	BYTE		        c_v+1
	BYTE	W01
	BYTE		        c_v+0
	BYTE	W08
	BYTE		N15     An2   v100
	BYTE		N15     An3   v112
	BYTE	W06
	BYTE		BEND    c_v+1
	BYTE	W01
	BYTE		        c_v+2
	BYTE	W02
	BYTE		        c_v+1
	BYTE	W01
	BYTE		        c_v+0
	BYTE	W08
	BYTE		N09     As2   v100
	BYTE		N09     As3   v112
	BYTE	W12
	BYTE		N07     An2   v100
	BYTE		N07     An3   v112
	BYTE	W10
	BYTE		BEND    c_v+0
	BYTE	W01
	BYTE		        c_v-20
	BYTE	W01
	BYTE		        c_v-32
	BYTE		N90     Dn3   v100
	BYTE		N90     Dn4   v112
	BYTE	W01
	BYTE		BEND    c_v-28
	BYTE	W02
	BYTE		        c_v-24
	BYTE	W01
	BYTE		        c_v-20
	BYTE	W02
	BYTE		        c_v-16
	BYTE	W01
	BYTE		        c_v-12
	BYTE	W02
	BYTE		        c_v-8
	BYTE	W01
	BYTE		        c_v-4
	BYTE	W02
	BYTE		        c_v+0
	BYTE	W06
	BYTE		        c_v+1
	BYTE	W01
	BYTE		        c_v+2
	BYTE	W02
	BYTE		        c_v+1
	BYTE	W01
	BYTE		        c_v+0
	BYTE	W02
	BYTE		        c_v-1
	BYTE	W01
	BYTE		        c_v-2
	BYTE	W02
	BYTE		        c_v-1
	BYTE	W01
	BYTE		        c_v+0
	BYTE	W02
	BYTE		        c_v+1
	BYTE	W01
	BYTE		        c_v+2
	BYTE	W02
	BYTE		        c_v+3
	BYTE	W01
	BYTE		        c_v+2
	BYTE	W02
// 039   ----------------------------------------
	BYTE		        c_v+1
	BYTE	W01
	BYTE		        c_v+0
	BYTE	W02
	BYTE		        c_v-1
	BYTE	W01
	BYTE		        c_v-2
	BYTE	W02
	BYTE		        c_v-1
	BYTE	W01
	BYTE		        c_v+0
	BYTE	W02
	BYTE		        c_v+1
	BYTE	W01
	BYTE		        c_v+2
	BYTE	W02
	BYTE		        c_v+3
	BYTE	W01
	BYTE		        c_v+4
	BYTE	W02
	BYTE		        c_v+3
	BYTE	W01
	BYTE		        c_v+2
	BYTE	W02
	BYTE		        c_v+1
	BYTE	W01
	BYTE		        c_v+0
	BYTE	W02
	BYTE		        c_v-1
	BYTE	W01
	BYTE		        c_v-2
	BYTE	W02
	BYTE		        c_v-1
	BYTE	W01
	BYTE		        c_v+0
	BYTE	W02
	BYTE		        c_v+2
	BYTE	W01
	BYTE		        c_v+3
	BYTE	W02
	BYTE		        c_v+4
	BYTE	W01
	BYTE		        c_v+5
	BYTE	W02
	BYTE		        c_v+4
	BYTE	W01
	BYTE		        c_v+3
	BYTE	W02
	BYTE		        c_v+2
	BYTE	W01
	BYTE		        c_v+0
	BYTE	W02
	BYTE		        c_v-1
	BYTE	W01
	BYTE		        c_v-2
	BYTE	W02
	BYTE		        c_v-1
	BYTE	W01
	BYTE		        c_v+0
	BYTE	W02
	BYTE		        c_v+1
	BYTE	W01
	BYTE		        c_v+2
	BYTE	W02
	BYTE		        c_v+3
	BYTE	W01
	BYTE		        c_v+2
	BYTE	W02
	BYTE		        c_v+1
	BYTE	W01
	BYTE		        c_v+0
	BYTE	W44
// 040   ----------------------------------------
	BYTE		N06     An2   v100
	BYTE		N06     An3   v112
	BYTE	W12
	BYTE		        As2   v100
	BYTE		N06     As3   v112
	BYTE	W12
	BYTE		N04     Cn3   v100
	BYTE		N04     Cn4   v112
	BYTE	W06
	BYTE		BEND    c_v+15
	BYTE		N15     Cn3   v100
	BYTE		N15     Cn4   v112
	BYTE	W01
	BYTE		BEND    c_v+31
	BYTE	W01
	BYTE		        c_v+47
	BYTE	W01
	BYTE		        c_v+63
	BYTE	W06
	BYTE		        c_v+48
	BYTE	W01
	BYTE		        c_v+32
	BYTE	W01
	BYTE		        c_v+16
	BYTE	W01
	BYTE		        c_v-16
	BYTE	W01
	BYTE		        c_v-32
	BYTE	W01
	BYTE		        c_v-48
	BYTE	W01
	BYTE		        c_v-64
	BYTE	W01
	BYTE		        c_v-64
	BYTE	W01
	BYTE		        c_v+0
	BYTE	W01
	BYTE		        c_v+0
	BYTE		N15     Gn2   v100
	BYTE		N15     Gn3   v112
	BYTE	W36
	BYTE		N03     Gn2   v088
	BYTE		N03     Gn3   v112
	BYTE	W06
	BYTE		        An2   v088
	BYTE		N03     An3   v112
	BYTE	W06
// 041   ----------------------------------------
	BYTE	PATT
	 POIN2	SteelCockpit0_8_001
// 042   ----------------------------------------
	BYTE	W24
	BYTE		N05     Cn3   v088
	BYTE		N05     Cn4   v112
	BYTE	W12
	BYTE		        As2   v088
	BYTE		N05     As3   v112
	BYTE	W20
	BYTE	GoTo
	 POIN2	SteelCockpit0_8_B1
SteelCockpit0_8_B2:
	BYTE	FINE

//**************** Track 9 (Midi-Chn.11) ****************//

SteelCockpit0_9:
	BYTE	KEYSH   SteelCockpit0_key+0
// 000   ----------------------------------------
	BYTE		VOICE   33
	BYTE		VOL     31*SteelCockpit0_mvl/mxv
	BYTE	W01
	BYTE		PAN     c_v+0
	BYTE	W01
	BYTE		BEND    c_v+0
	BYTE	W22
	BYTE		N06     Dn2   v124
	BYTE	W04
	BYTE		N05     Cn2   v116
	BYTE	W04
	BYTE		        An1 
	BYTE	W04
	BYTE		N09     Dn1 
	BYTE	W12
	BYTE		N06     Gn1   v124
	BYTE	W12
	BYTE		N08     Gn1   v116
	BYTE	W12
	BYTE		N06     Gn1   v124
	BYTE	W12
	BYTE		N08     Gn1   v116
	BYTE	W12
// 001   ----------------------------------------
SteelCockpit0_9_001:
	BYTE		N06     Fn1   v124
	BYTE	W12
	BYTE		N08     Fn1   v116
	BYTE	W12
	BYTE		N06     Fn1   v124
	BYTE	W12
	BYTE		N08     Fn1   v116
	BYTE	W12
	BYTE		N06     En1   v124
	BYTE	W12
	BYTE		N08     En1   v116
	BYTE	W12
	BYTE		N06     En1   v124
	BYTE	W12
	BYTE		N08     En1   v116
	BYTE	W12
	BYTE	PEND
// 002   ----------------------------------------
	BYTE		N06     En1   v124
	BYTE	W12
	BYTE		N08     En1   v116
	BYTE	W12
	BYTE		N06     En1   v124
	BYTE	W12
	BYTE		N08     En1   v116
	BYTE	W12
SteelCockpit0_9_B1:
	BYTE		N06     An1   v124
	BYTE	W12
	BYTE		N08     An1   v116
	BYTE	W12
	BYTE		N06     An1   v124
	BYTE	W12
	BYTE		N08     An1   v116
	BYTE	W12
// 003   ----------------------------------------
	BYTE		N06     An1   v124
	BYTE	W12
	BYTE		N08     An1   v116
	BYTE	W12
	BYTE		N06     An1   v124
	BYTE	W12
	BYTE		N08     An1   v116
	BYTE	W12
	BYTE		N06     Dn2   v124
	BYTE	W12
	BYTE		N08     Dn2   v116
	BYTE	W12
	BYTE		N06     Dn2   v124
	BYTE	W12
	BYTE		N08     Dn2   v116
	BYTE	W12
// 004   ----------------------------------------
	BYTE		N06     Dn2   v124
	BYTE	W12
	BYTE		N08     Dn2   v116
	BYTE	W12
	BYTE		N06     Dn2   v124
	BYTE	W12
	BYTE		N08     Dn2   v116
	BYTE	W12
	BYTE		N06     Gn1   v124
	BYTE	W12
	BYTE		N08     Fn1   v116
	BYTE	W12
	BYTE		N04     Gn1   v124
	BYTE	W06
	BYTE		N09     Fn1   v116
	BYTE	W12
	BYTE		N10     Gn1   v124
	BYTE	W06
// 005   ----------------------------------------
	BYTE	W06
	BYTE		N04     As1   v116
	BYTE	W06
	BYTE		N09     Cn2   v124
	BYTE	W12
	BYTE		N06     Dn2 
	BYTE	W12
	BYTE		N11     Fn2   v116
	BYTE	W12
	BYTE		N06     Gn2   v124
	BYTE	W12
	BYTE		N08     Gn2   v116
	BYTE	W12
	BYTE		N04     Fn2   v124
	BYTE	W06
	BYTE		N09     Dn2   v116
	BYTE	W12
	BYTE		N10     Cn2   v124
	BYTE	W06
// 006   ----------------------------------------
	BYTE	W06
	BYTE		N04     Dn2   v116
	BYTE	W06
	BYTE		N09     Cn2   v124
	BYTE	W12
	BYTE		N06     As1 
	BYTE	W12
	BYTE		N11     Fn1   v116
	BYTE	W12
	BYTE		N06     Gn1   v124
	BYTE	W12
	BYTE		N08     Gn1   v116
	BYTE	W12
	BYTE		N04     Fn1   v124
	BYTE	W06
	BYTE		N09     Gn1   v116
	BYTE	W12
	BYTE		N10     Gn1   v124
	BYTE	W06
// 007   ----------------------------------------
SteelCockpit0_9_007:
	BYTE	W06
	BYTE		N04     Fn1   v116
	BYTE	W06
	BYTE		N09     Gn1   v124
	BYTE	W12
	BYTE		N06     Cn2 
	BYTE	W12
	BYTE		N11     Dn2   v116
	BYTE	W12
	BYTE		N06     Gn1   v124
	BYTE	W12
	BYTE		N08     Gn1   v116
	BYTE	W12
	BYTE		N04     Gn2   v124
	BYTE	W06
	BYTE		N09     Fn2   v116
	BYTE	W12
	BYTE		N10     Dn2   v124
	BYTE	W06
	BYTE	PEND
// 008   ----------------------------------------
	BYTE	W06
	BYTE		N04     As1   v116
	BYTE	W06
	BYTE		N09     Gn1   v124
	BYTE	W12
	BYTE		N06     Dn2 
	BYTE	W12
	BYTE		N11     Gn2   v116
	BYTE	W12
	BYTE		N06     Ds2   v124
	BYTE	W12
	BYTE		N08     Ds2   v116
	BYTE	W12
	BYTE		N04     Dn2   v124
	BYTE	W06
	BYTE		N09     Cn2   v116
	BYTE	W12
	BYTE		N10     Ds2   v124
	BYTE	W06
// 009   ----------------------------------------
	BYTE	W06
	BYTE		N04     As1   v116
	BYTE	W06
	BYTE		N09     Cn2   v124
	BYTE	W12
	BYTE		N06     Dn2 
	BYTE	W12
	BYTE		N11     Ds2   v116
	BYTE	W12
	BYTE		N06     Fn1   v124
	BYTE	W12
	BYTE		N08     Fn1   v116
	BYTE	W12
	BYTE		N04     Gn1   v124
	BYTE	W06
	BYTE		N09     An1   v116
	BYTE	W12
	BYTE		N10     Cn2   v124
	BYTE	W06
// 010   ----------------------------------------
	BYTE	W06
	BYTE		N04     Fn1   v116
	BYTE	W06
	BYTE		N09     Cn2   v124
	BYTE	W12
	BYTE		N06     Ds2 
	BYTE	W12
	BYTE		N11     Fn2   v116
	BYTE	W12
	BYTE		N06     Gn1   v124
	BYTE	W12
	BYTE		N08     Gn1   v116
	BYTE	W12
	BYTE		N04     Fn1   v124
	BYTE	W06
	BYTE		N09     Gn1   v116
	BYTE	W12
	BYTE		N10     Gn1   v124
	BYTE	W06
// 011   ----------------------------------------
	BYTE	PATT
	 POIN2	SteelCockpit0_9_007
// 012   ----------------------------------------
	BYTE	W06
	BYTE		N04     As1   v116
	BYTE	W06
	BYTE		N09     Gn1   v124
	BYTE	W12
	BYTE		N06     Dn2 
	BYTE	W12
	BYTE		N11     Gn2   v116
	BYTE	W12
	BYTE		N06     Ds2   v124
	BYTE	W12
	BYTE		N08     Ds2   v116
	BYTE	W12
	BYTE		N04     Dn2   v124
	BYTE	W06
	BYTE		N09     Cn2   v116
	BYTE	W12
	BYTE		N10     Fn2   v124
	BYTE	W06
// 013   ----------------------------------------
	BYTE	W06
	BYTE		N04     Cn2   v116
	BYTE	W06
	BYTE		N09     Dn2   v124
	BYTE	W12
	BYTE		N06     Fn2 
	BYTE	W12
	BYTE		N11     Fn1   v116
	BYTE	W12
	BYTE		N06     Gn1   v124
	BYTE	W12
	BYTE		N08     Gn1   v116
	BYTE	W12
	BYTE		N04     Gn2   v124
	BYTE	W06
	BYTE		N09     Fn2   v116
	BYTE	W12
	BYTE		N10     Dn2   v124
	BYTE	W06
// 014   ----------------------------------------
SteelCockpit0_9_014:
	BYTE	W06
	BYTE		N04     As1   v116
	BYTE	W06
	BYTE		N09     Gn1   v124
	BYTE	W12
	BYTE		N06     Dn2 
	BYTE	W12
	BYTE		N18     Ds2 
	BYTE	W24
	BYTE		        Ds2   v120
	BYTE	W24
	BYTE		N08     As1   v124
	BYTE	W12
	BYTE	PEND
// 015   ----------------------------------------
SteelCockpit0_9_015:
	BYTE		N06     Cn2   v124
	BYTE	W06
	BYTE		N04     Dn2   v116
	BYTE	W06
	BYTE		N09     Ds2   v124
	BYTE	W12
	BYTE		        Gn2   v120
	BYTE	W12
	BYTE		N11     As1   v116
	BYTE	W12
	BYTE		N06     Dn2   v124
	BYTE	W12
	BYTE		N18     Dn2   v120
	BYTE	W24
	BYTE		N08     An1   v124
	BYTE	W12
	BYTE	PEND
// 016   ----------------------------------------
	BYTE		N06     As1 
	BYTE	W06
	BYTE		N04     Cn2   v116
	BYTE	W06
	BYTE		N09     Dn2   v124
	BYTE	W12
	BYTE		        An2   v120
	BYTE	W12
	BYTE		        Dn2   v116
	BYTE	W12
	BYTE		N06     Gs1   v124
	BYTE	W12
	BYTE		N18     Gs1   v120
	BYTE	W24
	BYTE		N08     Cn2   v124
	BYTE	W12
// 017   ----------------------------------------
	BYTE		N06     Fn2 
	BYTE	W06
	BYTE		N04     Gn2   v116
	BYTE	W06
	BYTE		N09     Gs2   v120
	BYTE	W12
	BYTE		N06     Fn2   v124
	BYTE	W06
	BYTE		N04     Cn2   v116
	BYTE	W06
	BYTE		N09     Gs1   v120
	BYTE	W12
	BYTE		N06     Gn2   v124
	BYTE	W12
	BYTE		N08     Gn2   v116
	BYTE	W12
	BYTE		N04     Fn2   v124
	BYTE	W06
	BYTE		N09     Dn2   v116
	BYTE	W12
	BYTE		N10     Cn2   v124
	BYTE	W06
// 018   ----------------------------------------
	BYTE	PATT
	 POIN2	SteelCockpit0_9_014
// 019   ----------------------------------------
	BYTE	PATT
	 POIN2	SteelCockpit0_9_015
// 020   ----------------------------------------
	BYTE		N06     As1   v124
	BYTE	W06
	BYTE		N04     Cn2   v116
	BYTE	W06
	BYTE		N09     Dn2   v124
	BYTE	W12
	BYTE		        An2   v120
	BYTE	W12
	BYTE		        Dn2   v116
	BYTE	W12
	BYTE		N06     Cn2   v124
	BYTE	W12
	BYTE		N18     Cn2   v120
	BYTE	W24
	BYTE		N08     Gn1   v124
	BYTE	W12
// 021   ----------------------------------------
	BYTE		N06     Cs2 
	BYTE	W06
	BYTE		N04     An1   v116
	BYTE	W06
	BYTE		N09     Cs2   v124
	BYTE	W12
	BYTE		        En2   v120
	BYTE	W12
	BYTE		        An1   v116
	BYTE	W12
	BYTE		N06     Dn2   v124
	BYTE	W12
	BYTE		N08     Dn2   v116
	BYTE	W12
	BYTE		N04     An2   v120
	BYTE	W06
	BYTE		N07     Fs2   v116
	BYTE	W12
	BYTE		N10     Dn2   v124
	BYTE	W06
// 022   ----------------------------------------
	BYTE	W06
	BYTE		N04     Cn2   v116
	BYTE	W06
	BYTE		N09     An1   v124
	BYTE	W12
	BYTE		N06     Dn2 
	BYTE	W12
	BYTE		N07     Fs2   v116
	BYTE	W12
	BYTE		N16     Dn2   v124
	BYTE	W24
	BYTE		N10   
	BYTE	W18
	BYTE		N08   
	BYTE	W06
// 023   ----------------------------------------
	BYTE	W48
	BYTE		N06     Gn1 
	BYTE	W12
	BYTE		N08     Gn1   v116
	BYTE	W12
	BYTE		N04     Fn1   v124
	BYTE	W06
	BYTE		N09     Gn1   v116
	BYTE	W12
	BYTE		N10     Gn1   v124
	BYTE	W06
// 024   ----------------------------------------
SteelCockpit0_9_024:
	BYTE	W06
	BYTE		N04     Fn1   v116
	BYTE	W06
	BYTE		N09     Gn1   v124
	BYTE	W12
	BYTE		N06     Cn2 
	BYTE	W12
	BYTE		N11     Dn2   v116
	BYTE	W12
	BYTE		N06     Fn1   v124
	BYTE	W12
	BYTE		N11     Fn1   v116
	BYTE	W12
	BYTE		N04     Ds1   v124
	BYTE	W06
	BYTE		N09     Fn1   v116
	BYTE	W12
	BYTE		N10     Fn1   v124
	BYTE	W06
	BYTE	PEND
// 025   ----------------------------------------
SteelCockpit0_9_025:
	BYTE	W06
	BYTE		N04     Ds1   v116
	BYTE	W06
	BYTE		N09     Fn1   v124
	BYTE	W12
	BYTE		N21     Cn2 
	BYTE	W24
	BYTE		N06     Ds2 
	BYTE	W12
	BYTE		N08     Ds2   v116
	BYTE	W12
	BYTE		N04     Dn2   v124
	BYTE	W06
	BYTE		N09     Ds2   v116
	BYTE	W12
	BYTE		N10     As1   v124
	BYTE	W06
	BYTE	PEND
// 026   ----------------------------------------
SteelCockpit0_9_026:
	BYTE	W06
	BYTE		N04     Dn2   v116
	BYTE	W06
	BYTE		N09     Ds2   v124
	BYTE	W12
	BYTE		N06     An1 
	BYTE	W12
	BYTE		N11     As1   v116
	BYTE	W12
	BYTE		N06     Dn2   v124
	BYTE	W12
	BYTE		N11     Dn2   v116
	BYTE	W12
	BYTE		N04     Cn2   v124
	BYTE	W06
	BYTE		N09     Cn2   v116
	BYTE	W12
	BYTE		N10     An1   v124
	BYTE	W06
	BYTE	PEND
// 027   ----------------------------------------
SteelCockpit0_9_027:
	BYTE	W06
	BYTE		N04     As1   v116
	BYTE	W06
	BYTE		N09     An1   v124
	BYTE	W12
	BYTE		N21     Dn1 
	BYTE	W24
	BYTE		N06     Ds2 
	BYTE	W12
	BYTE		N08     Ds2   v116
	BYTE	W12
	BYTE		N04     Dn2   v124
	BYTE	W06
	BYTE		N09     Ds2   v116
	BYTE	W12
	BYTE		N10     As1   v124
	BYTE	W06
	BYTE	PEND
// 028   ----------------------------------------
	BYTE	W06
	BYTE		N04     Dn2   v116
	BYTE	W06
	BYTE		N09     Ds2   v124
	BYTE	W12
	BYTE		N06     An1 
	BYTE	W12
	BYTE		N11     As1   v116
	BYTE	W12
	BYTE		N06     Fn1   v124
	BYTE	W12
	BYTE		N11     Fn1   v116
	BYTE	W12
	BYTE		N04     Ds1   v124
	BYTE	W06
	BYTE		N09     Fn1   v116
	BYTE	W12
	BYTE		N10     An1   v124
	BYTE	W06
// 029   ----------------------------------------
	BYTE	W06
	BYTE		N04     Fn1   v116
	BYTE	W06
	BYTE		N09     Cn2   v124
	BYTE	W12
	BYTE		N21     Fn2   v116
	BYTE	W24
	BYTE		N06     Cn2   v124
	BYTE	W12
	BYTE		N08     Cn2   v116
	BYTE	W12
	BYTE		N04     As1   v124
	BYTE	W06
	BYTE		N09     An1   v116
	BYTE	W12
	BYTE		N10     Gn1   v124
	BYTE	W06
// 030   ----------------------------------------
	BYTE	W06
	BYTE		N04     As1   v116
	BYTE	W06
	BYTE		N09     Cn2   v124
	BYTE	W12
	BYTE		N06     En2 
	BYTE	W12
	BYTE		N11     Gn2   v116
	BYTE	W12
	BYTE		N06     Dn2   v124
	BYTE	W12
	BYTE		N11     Dn2   v116
	BYTE	W12
	BYTE		N04     As1   v124
	BYTE	W06
	BYTE		N09     Cn2   v116
	BYTE	W12
	BYTE		N10     An1   v124
	BYTE	W06
// 031   ----------------------------------------
	BYTE	W06
	BYTE		N04     As1   v116
	BYTE	W06
	BYTE		N09     An1   v124
	BYTE	W12
	BYTE		N21     Dn1 
	BYTE	W24
	BYTE		N06     Gn1 
	BYTE	W12
	BYTE		N08     Gn1   v116
	BYTE	W12
	BYTE		N04     Fn1   v124
	BYTE	W06
	BYTE		N09     Gn1   v116
	BYTE	W12
	BYTE		N10     Gn1   v124
	BYTE	W06
// 032   ----------------------------------------
	BYTE	PATT
	 POIN2	SteelCockpit0_9_024
// 033   ----------------------------------------
	BYTE	PATT
	 POIN2	SteelCockpit0_9_025
// 034   ----------------------------------------
	BYTE	PATT
	 POIN2	SteelCockpit0_9_026
// 035   ----------------------------------------
	BYTE	PATT
	 POIN2	SteelCockpit0_9_027
// 036   ----------------------------------------
	BYTE	W06
	BYTE		N04     Dn2   v116
	BYTE	W06
	BYTE		N09     Ds2   v124
	BYTE	W12
	BYTE		N06     An1 
	BYTE	W12
	BYTE		N11     As1   v116
	BYTE	W12
	BYTE		N06     Fn1   v124
	BYTE	W12
	BYTE		N11     Fn1   v116
	BYTE	W12
	BYTE		N04     Ds1   v124
	BYTE	W06
	BYTE		N09     Fn1   v116
	BYTE	W12
	BYTE		N10     Fn1   v124
	BYTE	W06
// 037   ----------------------------------------
	BYTE	W06
	BYTE		N04     Ds1   v116
	BYTE	W06
	BYTE		N09     Fn1   v124
	BYTE	W12
	BYTE		N21     Cn2 
	BYTE	W24
	BYTE		N06   
	BYTE	W12
	BYTE		N08     Cn2   v116
	BYTE	W12
	BYTE		N04     As1   v124
	BYTE	W06
	BYTE		N09     Gn1   v116
	BYTE	W12
	BYTE		N10     Cn2   v124
	BYTE	W06
// 038   ----------------------------------------
	BYTE	W06
	BYTE		N04     As1   v116
	BYTE	W06
	BYTE		N09     Cn2   v124
	BYTE	W12
	BYTE		N06     Gn2 
	BYTE	W12
	BYTE		N11     Cn2   v116
	BYTE	W12
	BYTE		N06     Dn2   v124
	BYTE	W12
	BYTE		N11     Dn2   v116
	BYTE	W12
	BYTE		N04     As1   v124
	BYTE	W06
	BYTE		N09     Cn2   v116
	BYTE	W12
	BYTE		N10     An1   v124
	BYTE	W06
// 039   ----------------------------------------
	BYTE	W06
	BYTE		N04     As1   v116
	BYTE	W06
	BYTE		N09     An1   v124
	BYTE	W12
	BYTE		        Dn1 
	BYTE	W12
	BYTE		N11     An1   v116
	BYTE	W12
	BYTE		N08     Dn2   v124
	BYTE	W12
	BYTE		N05     Dn4   v120
	BYTE	W12
	BYTE		N15     Dn2   v124
	BYTE	W18
	BYTE		N10     Cn2 
	BYTE	W06
// 040   ----------------------------------------
	BYTE	W06
	BYTE		N04     As1   v116
	BYTE	W06
	BYTE		N09     An1   v124
	BYTE	W12
	BYTE		N04     Cn2 
	BYTE	W06
	BYTE		N15     Dn2 
	BYTE	W18
	BYTE		N06     Gn1 
	BYTE	W12
	BYTE		N08     Gn1   v116
	BYTE	W12
	BYTE		N06     Gn1   v124
	BYTE	W12
	BYTE		N08     Gn1   v116
	BYTE	W12
// 041   ----------------------------------------
	BYTE	PATT
	 POIN2	SteelCockpit0_9_001
// 042   ----------------------------------------
	BYTE		N06     En1   v124
	BYTE	W12
	BYTE		N08     En1   v116
	BYTE	W12
	BYTE		N06     En1   v124
	BYTE	W12
	BYTE		N08     En1   v116
	BYTE	W20
	BYTE	GoTo
	 POIN2	SteelCockpit0_9_B1
SteelCockpit0_9_B2:
	BYTE	FINE

//**************** Track 10 (Midi-Chn.12) ****************//

SteelCockpit0_10:
	BYTE	KEYSH   SteelCockpit0_key+0
// 000   ----------------------------------------
	BYTE		VOICE   127
	BYTE		VOL     31*SteelCockpit0_mvl/mxv
	BYTE	W01
	BYTE		PAN     c_v+0
	BYTE	W01
	BYTE		BEND    c_v+0
	BYTE	W10
	BYTE		N11     Cn1   v127
	BYTE	W06
	BYTE		        Gn1   v116
	BYTE	W05
	BYTE		N01     Dn1   v104
	BYTE	W01
	BYTE		N11   
	BYTE	W12
	BYTE		        Cn1   v124
	BYTE		N11     Gn1   v120
	BYTE	W06
	BYTE		        Fn1   v116
	BYTE	W06
	BYTE		        Dn1   v104
	BYTE		N23     As1   v088
	BYTE	W12
	BYTE		N11     Cn1   v120
	BYTE	W12
	BYTE		        Dn1   v104
	BYTE		N44     Cs2   v100
	BYTE	W01
	BYTE		        Cs4   v088
	BYTE	W11
	BYTE		N11     Cn1   v120
	BYTE	W12
// 001   ----------------------------------------
	BYTE		        Dn1   v104
	BYTE		N23     As1   v088
	BYTE	W12
	BYTE		N11     Cn1   v120
	BYTE	W12
	BYTE		        Dn1   v104
	BYTE		N44     An2   v100
	BYTE	W01
	BYTE		        An4   v088
	BYTE	W11
	BYTE		N11     Cn1   v120
	BYTE	W12
	BYTE		        Dn1   v104
	BYTE		N23     As1   v088
	BYTE	W12
	BYTE		N11     Cn1   v120
	BYTE	W12
	BYTE		        Dn1   v104
	BYTE		N44     Cs2   v100
	BYTE	W01
	BYTE		        Cs4   v088
	BYTE	W11
	BYTE		N11     Cn1   v120
	BYTE	W12
// 002   ----------------------------------------
	BYTE		        Dn1   v104
	BYTE		N23     As1   v088
	BYTE	W12
	BYTE		N11     Cn1   v120
	BYTE	W12
	BYTE		        Dn1   v104
	BYTE		N23     As1   v088
	BYTE		N07     Fs2   v096
	BYTE	W12
	BYTE		N11     Cn1   v120
	BYTE	W12
SteelCockpit0_10_B1:
	BYTE		N11     Dn1   v104
	BYTE		N44     Cs2   v100
	BYTE	W01
	BYTE		        Cs4   v088
	BYTE	W11
	BYTE		N11     Cn1   v120
	BYTE	W12
	BYTE		        Dn1   v104
	BYTE		N23     As1   v088
	BYTE	W12
	BYTE		N11     Cn1   v120
	BYTE	W12
// 003   ----------------------------------------
	BYTE		        Dn1   v104
	BYTE		N23     As1   v088
	BYTE	W12
	BYTE		N11     Cn1   v120
	BYTE	W12
	BYTE		        Dn1   v104
	BYTE		N23     As1   v088
	BYTE		N07     Fs2   v096
	BYTE	W12
	BYTE		N11     Cn1   v120
	BYTE		N11     Gn1 
	BYTE	W06
	BYTE		        Fn1   v116
	BYTE	W06
	BYTE		        Dn1   v104
	BYTE		N44     An2   v100
	BYTE	W01
	BYTE		        An4   v088
	BYTE	W11
	BYTE		N11     Cn1   v120
	BYTE		N11     Dn2   v116
	BYTE	W12
	BYTE		        Dn1   v104
	BYTE		N23     As1   v088
	BYTE	W06
	BYTE		N11     Bn1   v116
	BYTE	W06
	BYTE		        Cn1   v120
	BYTE		N44     Cs2   v100
	BYTE	W01
	BYTE		        Cs4   v088
	BYTE	W05
	BYTE		N11     An1   v116
	BYTE	W06
// 004   ----------------------------------------
	BYTE		        Gn1 
	BYTE	W12
	BYTE		N05     Dn1   v104
	BYTE		N03     Gs1   v100
	BYTE	W06
	BYTE		N05     Dn1   v108
	BYTE	W06
	BYTE		N11     Cn1   v124
	BYTE		N05     Dn1   v108
	BYTE		N07     Fs2   v096
	BYTE	W06
	BYTE		N05     Dn1   v116
	BYTE	W06
	BYTE		        Dn1   v104
	BYTE		N03     Gs1   v100
	BYTE	W06
	BYTE		N11     Dn1   v104
	BYTE	W06
	BYTE		        Cn1   v124
	BYTE		N44     An2   v100
	BYTE	W01
	BYTE		        An4   v088
	BYTE	W05
	BYTE		N11     Dn1   v092
	BYTE	W06
	BYTE		N03     Fs1   v072
	BYTE		N11     Dn3   v124
	BYTE	W12
	BYTE		        Dn1   v104
	BYTE		N03     Fs1   v096
	BYTE		N07     Fs2 
	BYTE	W12
	BYTE		N03     Fs1   v072
	BYTE		N05     Cs3   v108
	BYTE	W06
	BYTE		N11     Cn1   v120
	BYTE		N03     Fs1   v056
	BYTE		N05     Cs3   v108
	BYTE	W06
// 005   ----------------------------------------
	BYTE		N03     Fs1   v096
	BYTE	W06
	BYTE		N11     Dn1   v076
	BYTE	W06
	BYTE		        Cn1   v112
	BYTE		N03     Fs1   v072
	BYTE		N11     Dn3   v124
	BYTE	W12
	BYTE		        Dn1   v104
	BYTE		N03     Fs1   v096
	BYTE		N07     Fs2 
	BYTE	W12
	BYTE		N03     Fs1   v072
	BYTE		N05     Cs3   v108
	BYTE	W06
	BYTE		N03     Fs1   v056
	BYTE		N05     Cs3   v108
	BYTE	W06
	BYTE		N11     Cn1   v124
	BYTE		N03     Fs1   v096
	BYTE	W06
	BYTE		N11     Dn1   v076
	BYTE	W06
	BYTE		        Cn1   v112
	BYTE		N03     Fs1   v072
	BYTE		N11     Dn3   v124
	BYTE	W06
	BYTE		N03     Fs1   v056
	BYTE	W06
	BYTE		N11     Dn1   v100
	BYTE		N03     Fs1   v096
	BYTE		N07     Fs2 
	BYTE	W12
	BYTE		N03     Fs1   v072
	BYTE		N05     Cs3   v108
	BYTE	W06
	BYTE		N11     Cn1   v120
	BYTE		N02     Dn1   v100
	BYTE		N05     Cs3   v108
	BYTE	W03
	BYTE		N02     Dn1   v096
	BYTE	W03
// 006   ----------------------------------------
	BYTE		N05     Dn1   v104
	BYTE	W06
	BYTE		N11     Dn1   v116
	BYTE	W06
	BYTE		        Cn1   v112
	BYTE		N11     Bn1   v108
	BYTE		N11     Dn3   v124
	BYTE	W12
	BYTE		        Cn1   v104
	BYTE		N11     Dn1 
	BYTE		N44     Cs2   v100
	BYTE		N07     Fs2   v096
	BYTE	W01
	BYTE		N44     Cs4   v088
	BYTE	W11
	BYTE		N11     Gn1   v116
	BYTE		N05     Cs3   v108
	BYTE	W06
	BYTE		N05   
	BYTE	W06
	BYTE		N11     Cn1   v124
	BYTE		N44     An2   v100
	BYTE	W01
	BYTE		        An4   v088
	BYTE	W05
	BYTE		N11     Dn1   v072
	BYTE	W06
	BYTE		N03     Fs1 
	BYTE		N11     Dn3   v124
	BYTE	W12
	BYTE		        Dn1   v100
	BYTE		N03     Fs1   v096
	BYTE		N07     Fs2 
	BYTE	W12
	BYTE		N03     Fs1   v072
	BYTE		N05     Cs3   v108
	BYTE	W06
	BYTE		N11     Cn1   v120
	BYTE		N05     Cs3   v108
	BYTE	W06
// 007   ----------------------------------------
SteelCockpit0_10_007:
	BYTE		N03     Fs1   v096
	BYTE	W06
	BYTE		N11     Dn1   v072
	BYTE		N03     Fs1   v056
	BYTE	W06
	BYTE		N11     Cn1   v112
	BYTE		N03     Fs1   v072
	BYTE		N11     Dn3   v124
	BYTE	W12
	BYTE		        Dn1   v104
	BYTE		N03     Fs1   v096
	BYTE		N07     Fs2 
	BYTE	W12
	BYTE		N03     Fs1   v072
	BYTE		N05     Cs3   v108
	BYTE	W06
	BYTE		N05   
	BYTE	W06
	BYTE		N11     Cn1   v124
	BYTE		N03     Fs1   v096
	BYTE	W06
	BYTE		N11     Dn1   v072
	BYTE	W06
	BYTE		        Cn1   v112
	BYTE		N03     Fs1   v072
	BYTE		N11     Dn3   v124
	BYTE	W12
	BYTE		        Dn1   v100
	BYTE		N03     Fs1   v096
	BYTE		N07     Fs2 
	BYTE	W12
	BYTE		N03     Fs1   v072
	BYTE		N05     Cs3   v108
	BYTE	W06
	BYTE		N11     Cn1   v120
	BYTE		N05     Cs3   v108
	BYTE	W06
	BYTE	PEND
// 008   ----------------------------------------
SteelCockpit0_10_008:
	BYTE		N03     Fs1   v096
	BYTE	W06
	BYTE		N11     Dn1   v072
	BYTE	W06
	BYTE		        Cn1   v112
	BYTE		N03     Fs1   v072
	BYTE		N11     Dn3   v124
	BYTE	W06
	BYTE		N03     Fs1   v056
	BYTE	W06
	BYTE		N11     Dn1   v104
	BYTE		N03     Fs1   v096
	BYTE		N07     Fs2 
	BYTE	W12
	BYTE		N11     Cn1   v104
	BYTE		N03     Fs1   v084
	BYTE		N05     Cs3   v108
	BYTE	W06
	BYTE		        As1   v088
	BYTE		N05     Cs3   v108
	BYTE	W06
	BYTE		N11     Cn1   v124
	BYTE		N03     Fs1   v096
	BYTE	W12
	BYTE		        Fs1   v072
	BYTE		N11     Dn3   v124
	BYTE	W12
	BYTE		        Dn1   v100
	BYTE		N03     Fs1   v096
	BYTE		N07     Fs2 
	BYTE	W12
	BYTE		N03     Fs1   v072
	BYTE		N05     Cs3   v108
	BYTE	W06
	BYTE		N11     Cn1   v120
	BYTE		N05     Cs3   v108
	BYTE	W06
	BYTE	PEND
// 009   ----------------------------------------
	BYTE	PATT
	 POIN2	SteelCockpit0_10_007
// 010   ----------------------------------------
	BYTE		N03     Fs1   v096
	BYTE	W06
	BYTE		N11     Dn1   v072
	BYTE	W06
	BYTE		        Cn1   v112
	BYTE		N03     Fs1   v072
	BYTE		N11     Dn3   v124
	BYTE	W06
	BYTE		N03     Fs1   v056
	BYTE	W06
	BYTE		N11     Dn1   v104
	BYTE		N03     Fs1   v096
	BYTE		N07     Fs2 
	BYTE	W12
	BYTE		N11     Cn1   v104
	BYTE		N03     Fs1   v084
	BYTE		N05     Cs3   v108
	BYTE	W06
	BYTE		N11     Dn1   v092
	BYTE		N05     Cs3   v108
	BYTE	W06
	BYTE		N11     Cn1   v124
	BYTE		N03     Fs1   v096
	BYTE	W12
	BYTE		        Fs1   v072
	BYTE		N11     Dn3   v124
	BYTE	W12
	BYTE		        Dn1   v100
	BYTE		N03     Fs1   v096
	BYTE		N07     Fs2 
	BYTE	W12
	BYTE		N03     Fs1   v072
	BYTE		N05     Cs3   v108
	BYTE	W06
	BYTE		N11     Cn1   v120
	BYTE		N05     Cs3   v108
	BYTE	W06
// 011   ----------------------------------------
	BYTE		N11     Dn1   v072
	BYTE		N03     Fs1   v096
	BYTE	W06
	BYTE		        Fs1   v056
	BYTE	W06
	BYTE		N11     Cn1   v112
	BYTE		N03     Fs1   v072
	BYTE		N11     Dn3   v124
	BYTE	W12
	BYTE		        Dn1   v104
	BYTE		N03     Fs1   v096
	BYTE		N07     Fs2 
	BYTE	W12
	BYTE		N03     Fs1   v072
	BYTE		N05     Cs3   v108
	BYTE	W06
	BYTE		N05   
	BYTE	W06
	BYTE		N11     Cn1   v124
	BYTE		N03     Fs1   v096
	BYTE	W06
	BYTE		N11     Dn1   v072
	BYTE	W06
	BYTE		        Cn1   v112
	BYTE		N03     Fs1   v072
	BYTE		N11     Dn3   v124
	BYTE	W12
	BYTE		        Dn1   v100
	BYTE		N03     Fs1   v096
	BYTE		N07     Fs2 
	BYTE	W12
	BYTE		N03     Fs1   v072
	BYTE		N05     Cs3   v108
	BYTE	W06
	BYTE		N11     Cn1   v120
	BYTE		N05     Cs3   v108
	BYTE	W06
// 012   ----------------------------------------
	BYTE	PATT
	 POIN2	SteelCockpit0_10_008
// 013   ----------------------------------------
	BYTE		N03     Fs1   v096
	BYTE	W06
	BYTE		N11     Dn1   v072
	BYTE		N03     Fs1   v056
	BYTE	W06
	BYTE		N11     Cn1   v112
	BYTE		N03     Fs1   v072
	BYTE		N11     Dn3   v124
	BYTE	W12
	BYTE		        Dn1   v104
	BYTE		N03     Fs1   v096
	BYTE		N07     Fs2 
	BYTE	W12
	BYTE		N03     Fs1   v072
	BYTE		N05     Cs3   v108
	BYTE	W06
	BYTE		N05   
	BYTE	W06
	BYTE		N11     Cn1   v124
	BYTE		N03     Fs1   v096
	BYTE	W06
	BYTE		N11     Dn1   v072
	BYTE	W06
	BYTE		        Cn1   v112
	BYTE		N03     Fs1   v072
	BYTE		N11     Dn3   v124
	BYTE	W12
	BYTE		N03     Gs1   v084
	BYTE		N11     Dn2   v116
	BYTE		N07     Fs2   v096
	BYTE	W07
	BYTE		N11     Cn2   v116
	BYTE	W05
	BYTE		        Bn1 
	BYTE		N05     Cs3   v108
	BYTE	W06
	BYTE		N11     Cn1   v120
	BYTE		N05     Cs3   v108
	BYTE	W01
	BYTE		N11     An1   v116
	BYTE	W05
// 014   ----------------------------------------
	BYTE		        Gn1 
	BYTE		N03     Gs1   v084
	BYTE	W07
	BYTE		N11     Fn1   v116
	BYTE	W04
	BYTE		        Bn1   v104
	BYTE	W01
	BYTE		        An1   v120
	BYTE		N11     Dn3   v124
	BYTE	W12
	BYTE		        Gn1   v116
	BYTE		N03     Gs1   v084
	BYTE		N07     Fs2   v096
	BYTE	W12
	BYTE		N11     Cn1   v120
	BYTE		N11     Dn1   v104
	BYTE		N05     Cs3   v108
	BYTE	W06
	BYTE		N05   
	BYTE	W06
	BYTE		N03     Fs1   v084
	BYTE	W06
	BYTE		        Fs1   v060
	BYTE	W06
	BYTE		N11     Cn1   v112
	BYTE		N03     Fs1   v084
	BYTE		N11     Dn3   v124
	BYTE	W06
	BYTE		N03     Fs1   v060
	BYTE	W06
	BYTE		N11     Dn1   v104
	BYTE		N44     An2   v100
	BYTE	W01
	BYTE		        An4   v088
	BYTE	W11
	BYTE		N03     Fs1   v084
	BYTE		N05     Cs3   v108
	BYTE	W06
	BYTE		N03     Fs1   v060
	BYTE		N05     Cs3   v108
	BYTE	W06
// 015   ----------------------------------------
SteelCockpit0_10_015:
	BYTE		N11     Cn1   v124
	BYTE		N03     Fs1   v084
	BYTE	W06
	BYTE		        Fs1   v060
	BYTE	W06
	BYTE		N11     Cn1   v112
	BYTE		N03     Fs1   v084
	BYTE		N11     Dn3   v124
	BYTE	W06
	BYTE		N03     Fs1   v060
	BYTE	W06
	BYTE		N11     Dn1   v104
	BYTE		N07     Fs2   v096
	BYTE	W06
	BYTE		N03     Fs1   v060
	BYTE	W06
	BYTE		        Fs1   v084
	BYTE		N05     Cs3   v108
	BYTE	W06
	BYTE		N03     Fs1   v060
	BYTE		N05     Cs3   v108
	BYTE	W06
	BYTE		N11     Cn1   v124
	BYTE		N03     Fs1   v084
	BYTE	W06
	BYTE		        Fs1   v060
	BYTE	W06
	BYTE		        Fs1   v084
	BYTE		N11     Dn3   v124
	BYTE	W06
	BYTE		N03     Fs1   v060
	BYTE	W06
	BYTE		N11     Dn1   v104
	BYTE	W06
	BYTE		N03     Fs1   v060
	BYTE	W06
	BYTE		        Fs1   v084
	BYTE		N05     Cs3   v108
	BYTE	W06
	BYTE		N03     Fs1   v060
	BYTE		N05     Cs3   v108
	BYTE	W06
	BYTE	PEND
// 016   ----------------------------------------
	BYTE		N11     Cn1   v124
	BYTE		N03     Fs1   v084
	BYTE	W06
	BYTE		        Fs1   v060
	BYTE	W06
	BYTE		N11     Cn1   v112
	BYTE		N03     Fs1   v084
	BYTE		N11     Dn3   v124
	BYTE	W06
	BYTE		N03     Fs1   v060
	BYTE	W06
	BYTE		N11     Dn1   v104
	BYTE		N07     Fs2   v096
	BYTE	W06
	BYTE		N03     Fs1   v060
	BYTE	W06
	BYTE		        Fs1   v084
	BYTE		N05     Cs3   v108
	BYTE	W06
	BYTE		N03     Fs1   v060
	BYTE		N05     Cs3   v108
	BYTE	W06
	BYTE		N11     Cn1   v120
	BYTE		N03     Fs1   v084
	BYTE	W06
	BYTE		        Fs1   v060
	BYTE	W06
	BYTE		        Fs1   v084
	BYTE		N11     Dn3   v124
	BYTE	W06
	BYTE		N03     Fs1   v060
	BYTE	W06
	BYTE		N11     Dn1   v104
	BYTE	W06
	BYTE		N03     Fs1   v060
	BYTE	W06
	BYTE		        Fs1   v084
	BYTE		N05     Cs3   v108
	BYTE	W06
	BYTE		N03     Fs1   v060
	BYTE		N05     Cs3   v108
	BYTE	W06
// 017   ----------------------------------------
	BYTE		N11     Cn1   v124
	BYTE		N03     Fs1   v084
	BYTE	W06
	BYTE		        Fs1   v060
	BYTE	W06
	BYTE		N11     Cn1   v112
	BYTE		N03     Fs1   v084
	BYTE		N11     Dn3   v124
	BYTE	W06
	BYTE		N03     Fs1   v060
	BYTE	W06
	BYTE		N11     Dn1   v104
	BYTE		N07     Fs2   v096
	BYTE	W06
	BYTE		N03     Fs1   v060
	BYTE	W06
	BYTE		N11     Cn1   v124
	BYTE		N03     Fs1   v084
	BYTE		N05     Cs3   v108
	BYTE	W06
	BYTE		N03     Fs1   v060
	BYTE		N05     Cs3   v108
	BYTE	W06
	BYTE		N03     Fs1   v084
	BYTE	W06
	BYTE		        Fs1   v060
	BYTE	W06
	BYTE		N11     Cn1   v112
	BYTE		N03     Fs1   v084
	BYTE		N11     Dn3   v124
	BYTE	W06
	BYTE		N03     Fs1   v060
	BYTE	W06
	BYTE		N11     Dn1   v104
	BYTE	W06
	BYTE		N03     Fs1   v060
	BYTE	W06
	BYTE		        Fs1   v084
	BYTE		N05     Cs3   v108
	BYTE	W06
	BYTE		N11     Cn1   v124
	BYTE		N03     Fs1   v060
	BYTE		N05     Cs3   v108
	BYTE	W06
// 018   ----------------------------------------
	BYTE		N03     Fs1   v084
	BYTE	W06
	BYTE		        Fs1   v060
	BYTE	W06
	BYTE		N11     Dn1   v092
	BYTE		N11     An1   v120
	BYTE		N11     Dn3   v124
	BYTE	W12
	BYTE		        Gn1   v116
	BYTE		N03     Gs1   v084
	BYTE		N07     Fs2   v096
	BYTE	W12
	BYTE		N11     Cn1   v120
	BYTE		N11     Dn1   v104
	BYTE		N05     Cs3   v108
	BYTE	W06
	BYTE		N05   
	BYTE	W06
	BYTE		N03     Fs1   v084
	BYTE	W06
	BYTE		        Fs1   v060
	BYTE	W06
	BYTE		N11     Cn1   v112
	BYTE		N03     Fs1   v084
	BYTE		N11     Dn3   v124
	BYTE	W06
	BYTE		N03     Fs1   v060
	BYTE	W06
	BYTE		N11     Dn1   v104
	BYTE		N44     Cs2   v100
	BYTE	W01
	BYTE		        Cs4   v088
	BYTE	W11
	BYTE		N03     Fs1   v084
	BYTE		N05     Cs3   v108
	BYTE	W06
	BYTE		N03     Fs1   v060
	BYTE		N05     Cs3   v108
	BYTE	W06
// 019   ----------------------------------------
	BYTE	PATT
	 POIN2	SteelCockpit0_10_015
// 020   ----------------------------------------
	BYTE		N11     Cn1   v124
	BYTE		N03     Fs1   v084
	BYTE	W06
	BYTE		        Fs1   v060
	BYTE	W06
	BYTE		N11     Cn1   v112
	BYTE		N03     Fs1   v084
	BYTE		N11     Dn3   v124
	BYTE	W06
	BYTE		N03     Fs1   v060
	BYTE	W06
	BYTE		N11     Dn1   v104
	BYTE		N07     Fs2   v096
	BYTE	W06
	BYTE		N03     Fs1   v060
	BYTE	W06
	BYTE		        Fs1   v084
	BYTE		N05     Cs3   v108
	BYTE	W06
	BYTE		N03     Fs1   v060
	BYTE		N05     Cs3   v108
	BYTE	W06
	BYTE		N11     Cn1   v124
	BYTE		N44     Cs2   v100
	BYTE	W01
	BYTE		        Cs4   v088
	BYTE	W11
	BYTE		N03     Fs1   v084
	BYTE		N11     Dn3   v124
	BYTE	W06
	BYTE		N03     Fs1   v060
	BYTE	W06
	BYTE		N11     Dn1   v104
	BYTE	W06
	BYTE		N03     Fs1   v060
	BYTE	W06
	BYTE		        Fs1   v084
	BYTE		N05     Cs3   v108
	BYTE	W06
	BYTE		N03     Fs1   v060
	BYTE		N05     Cs3   v108
	BYTE	W06
// 021   ----------------------------------------
	BYTE		N11     Cn1   v124
	BYTE		N44     An2   v100
	BYTE	W01
	BYTE		        An4   v088
	BYTE	W11
	BYTE		N11     Cn1   v112
	BYTE		N03     Fs1   v084
	BYTE		N11     Dn3   v124
	BYTE	W06
	BYTE		N03     Fs1   v060
	BYTE	W06
	BYTE		N11     Dn1   v104
	BYTE		N07     Fs2   v096
	BYTE	W06
	BYTE		N03     Fs1   v060
	BYTE	W06
	BYTE		        Fs1   v084
	BYTE		N05     Cs3   v108
	BYTE	W06
	BYTE		N03     Fs1   v060
	BYTE		N05     Cs3   v108
	BYTE	W06
	BYTE		N11     Cn1   v124
	BYTE		N44     Cs2   v100
	BYTE	W01
	BYTE		        Cs4   v088
	BYTE	W11
	BYTE		N03     Fs1   v072
	BYTE		N11     Dn3   v124
	BYTE	W12
	BYTE		        Dn1   v104
	BYTE		N03     Fs1   v096
	BYTE	W12
	BYTE		        Fs1   v072
	BYTE		N05     Cs3   v108
	BYTE	W06
	BYTE		N11     Cn1   v124
	BYTE		N05     Cs3   v108
	BYTE	W06
// 022   ----------------------------------------
	BYTE		N03     Fs1   v096
	BYTE	W06
	BYTE		N11     Dn1   v076
	BYTE	W06
	BYTE		        Cn1   v112
	BYTE		N03     Fs1   v072
	BYTE		N11     Dn3   v124
	BYTE	W12
	BYTE		        Dn1   v104
	BYTE		N03     Fs1   v096
	BYTE		N07     Fs2 
	BYTE	W12
	BYTE		N03     Fs1   v084
	BYTE		N05     Cs3   v108
	BYTE	W06
	BYTE		N05   
	BYTE	W06
	BYTE		N11     Cn1   v120
	BYTE		N11     Dn1   v104
	BYTE		N11     As1   v088
	BYTE		N07     Fs2   v096
	BYTE	W12
	BYTE		N03     Fs1   v072
	BYTE		N11     Bn1   v116
	BYTE	W12
	BYTE		        Dn1   v104
	BYTE		N11     As1   v092
	BYTE		N07     Fs2   v096
	BYTE	W12
	BYTE		N11     Cn1   v120
	BYTE		N03     Fs1   v072
	BYTE	W06
	BYTE		N11     Dn1   v104
	BYTE		N07     Fs2   v096
	BYTE		N44     An2   v100
	BYTE	W01
	BYTE		        An4   v088
	BYTE	W05
// 023   ----------------------------------------
	BYTE		N03     Gs1 
	BYTE	W12
	BYTE		N11     Dn2   v116
	BYTE	W07
	BYTE		        Cn2 
	BYTE	W05
	BYTE		        Cn1   v120
	BYTE		N03     Gs1   v088
	BYTE		N11     Bn1   v116
	BYTE	W07
	BYTE		        An1 
	BYTE	W05
	BYTE		        Gn1 
	BYTE	W07
	BYTE		        Fn1 
	BYTE	W05
	BYTE		        Cn1   v124
	BYTE		N44     Cs2   v100
	BYTE	W01
	BYTE		        Cs4   v088
	BYTE	W11
	BYTE		N03     Fs1   v072
	BYTE		N07     Fs2   v092
	BYTE		N11     Dn3   v124
	BYTE	W12
	BYTE		        Dn1   v104
	BYTE		N03     Fs1   v096
	BYTE	W12
	BYTE		        Fs1   v072
	BYTE		N07     Fs2   v092
	BYTE		N05     Cs3   v108
	BYTE	W06
	BYTE		N11     Cn1   v124
	BYTE		N05     Cs3   v108
	BYTE	W06
// 024   ----------------------------------------
SteelCockpit0_10_024:
	BYTE		N03     Fs1   v096
	BYTE	W06
	BYTE		N11     Dn1   v072
	BYTE		N03     Fs1   v056
	BYTE	W06
	BYTE		N11     Cn1   v112
	BYTE		N03     Fs1   v072
	BYTE		N07     Fs2   v092
	BYTE		N11     Dn3   v124
	BYTE	W12
	BYTE		        Dn1   v104
	BYTE		N03     Fs1   v096
	BYTE	W12
	BYTE		        Fs1   v072
	BYTE		N07     Fs2   v092
	BYTE		N05     Cs3   v108
	BYTE	W06
	BYTE		N05   
	BYTE	W06
	BYTE		N11     Cn1   v124
	BYTE		N03     Fs1   v096
	BYTE	W06
	BYTE		N11     Dn1   v072
	BYTE	W06
	BYTE		        Cn1   v112
	BYTE		N03     Fs1   v072
	BYTE		N07     Fs2   v092
	BYTE		N11     Dn3   v124
	BYTE	W12
	BYTE		        Dn1   v104
	BYTE		N03     Fs1   v096
	BYTE	W12
	BYTE		        Fs1   v072
	BYTE		N07     Fs2   v092
	BYTE		N05     Cs3   v108
	BYTE	W06
	BYTE		N11     Cn1   v124
	BYTE		N05     Cs3   v108
	BYTE	W06
	BYTE	PEND
// 025   ----------------------------------------
SteelCockpit0_10_025:
	BYTE		N03     Fs1   v096
	BYTE	W06
	BYTE		N11     Dn1   v072
	BYTE	W06
	BYTE		        Cn1   v112
	BYTE		N03     Fs1   v072
	BYTE		N07     Fs2   v092
	BYTE		N11     Dn3   v124
	BYTE	W12
	BYTE		        Dn1   v104
	BYTE		N03     Fs1   v096
	BYTE	W12
	BYTE		N11     Cn1   v104
	BYTE		N03     Fs1   v084
	BYTE		N07     Fs2   v092
	BYTE		N05     Cs3   v108
	BYTE	W06
	BYTE		        As1   v088
	BYTE		N05     Cs3   v108
	BYTE	W06
	BYTE		N11     Cn1   v124
	BYTE		N03     Fs1   v096
	BYTE	W12
	BYTE		        Fs1   v072
	BYTE		N07     Fs2   v092
	BYTE		N11     Dn3   v124
	BYTE	W12
	BYTE		        Dn1   v104
	BYTE		N03     Fs1   v096
	BYTE	W12
	BYTE		        Fs1   v072
	BYTE		N07     Fs2   v092
	BYTE		N05     Cs3   v108
	BYTE	W06
	BYTE		N11     Cn1   v124
	BYTE		N05     Cs3   v108
	BYTE	W06
	BYTE	PEND
// 026   ----------------------------------------
SteelCockpit0_10_026:
	BYTE		N03     Fs1   v096
	BYTE	W06
	BYTE		N11     Dn1   v072
	BYTE	W06
	BYTE		        Cn1   v112
	BYTE		N03     Fs1   v072
	BYTE		N07     Fs2   v092
	BYTE		N11     Dn3   v124
	BYTE	W12
	BYTE		        Dn1   v104
	BYTE		N03     Fs1   v096
	BYTE	W12
	BYTE		        Fs1   v072
	BYTE		N07     Fs2   v092
	BYTE		N05     Cs3   v108
	BYTE	W06
	BYTE		N03     Fs1   v056
	BYTE		N05     Cs3   v108
	BYTE	W06
	BYTE		N11     Cn1   v124
	BYTE		N03     Fs1   v096
	BYTE	W06
	BYTE		N11     Dn1   v072
	BYTE		N03     Fs1   v056
	BYTE	W06
	BYTE		N11     Cn1   v112
	BYTE		N03     Fs1   v072
	BYTE		N07     Fs2   v092
	BYTE		N11     Dn3   v124
	BYTE	W12
	BYTE		        Dn1   v104
	BYTE		N03     Fs1   v096
	BYTE	W12
	BYTE		        Fs1   v072
	BYTE		N07     Fs2   v092
	BYTE		N05     Cs3   v108
	BYTE	W06
	BYTE		N11     Cn1   v124
	BYTE		N05     Cs3   v108
	BYTE	W06
	BYTE	PEND
// 027   ----------------------------------------
SteelCockpit0_10_027:
	BYTE		N03     Fs1   v096
	BYTE	W12
	BYTE		N11     Cn1   v112
	BYTE		N11     Dn1   v080
	BYTE		N03     Fs1   v072
	BYTE		N07     Fs2   v092
	BYTE		N11     Dn3   v124
	BYTE	W12
	BYTE		N05     Dn1   v116
	BYTE		N03     Fs1   v096
	BYTE	W07
	BYTE		N11     Dn1 
	BYTE	W05
	BYTE		        Cn1   v104
	BYTE		N11     Gn1   v116
	BYTE		N07     Fs2   v092
	BYTE		N05     Cs3   v108
	BYTE	W06
	BYTE		N05   
	BYTE	W06
	BYTE		N11     Cn1   v124
	BYTE		N03     Fs1   v096
	BYTE	W12
	BYTE		        Fs1   v072
	BYTE		N07     Fs2   v092
	BYTE		N11     Dn3   v124
	BYTE	W12
	BYTE		        Dn1   v104
	BYTE		N03     Fs1   v096
	BYTE	W12
	BYTE		        Fs1   v072
	BYTE		N07     Fs2   v092
	BYTE		N05     Cs3   v108
	BYTE	W06
	BYTE		N11     Cn1   v124
	BYTE		N05     Cs3   v108
	BYTE	W06
	BYTE	PEND
// 028   ----------------------------------------
	BYTE	PATT
	 POIN2	SteelCockpit0_10_024
// 029   ----------------------------------------
	BYTE	PATT
	 POIN2	SteelCockpit0_10_025
// 030   ----------------------------------------
	BYTE	PATT
	 POIN2	SteelCockpit0_10_026
// 031   ----------------------------------------
	BYTE		N03     Fs1   v096
	BYTE	W12
	BYTE		N11     Cn1   v112
	BYTE		N03     Fs1   v072
	BYTE		N07     Fs2   v092
	BYTE		N11     Dn3   v124
	BYTE	W12
	BYTE		        Dn1   v104
	BYTE		N03     Fs1   v096
	BYTE	W07
	BYTE		N11     Bn1   v112
	BYTE	W05
	BYTE		        Cn1   v104
	BYTE		N11     Gn1   v116
	BYTE		N07     Fs2   v092
	BYTE		N05     Cs3   v108
	BYTE	W06
	BYTE		N05   
	BYTE	W06
	BYTE		N11     Cn1   v124
	BYTE		N44     Cs2   v100
	BYTE	W01
	BYTE		        Cs4   v088
	BYTE	W11
	BYTE		N03     Fs1   v072
	BYTE		N07     Fs2   v092
	BYTE		N11     Dn3   v124
	BYTE	W12
	BYTE		        Dn1   v104
	BYTE		N03     Fs1   v096
	BYTE	W12
	BYTE		        Fs1   v072
	BYTE		N07     Fs2   v092
	BYTE		N05     Cs3   v108
	BYTE	W06
	BYTE		N11     Cn1   v124
	BYTE		N05     Cs3   v108
	BYTE	W06
// 032   ----------------------------------------
	BYTE	PATT
	 POIN2	SteelCockpit0_10_024
// 033   ----------------------------------------
	BYTE	PATT
	 POIN2	SteelCockpit0_10_025
// 034   ----------------------------------------
	BYTE	PATT
	 POIN2	SteelCockpit0_10_026
// 035   ----------------------------------------
	BYTE	PATT
	 POIN2	SteelCockpit0_10_027
// 036   ----------------------------------------
	BYTE	PATT
	 POIN2	SteelCockpit0_10_024
// 037   ----------------------------------------
	BYTE	PATT
	 POIN2	SteelCockpit0_10_025
// 038   ----------------------------------------
	BYTE		N03     Fs1   v096
	BYTE	W06
	BYTE		N11     Dn1   v072
	BYTE	W06
	BYTE		        Cn1   v112
	BYTE		N03     Fs1   v072
	BYTE		N07     Fs2   v092
	BYTE		N11     Dn3   v124
	BYTE	W12
	BYTE		        Dn1   v104
	BYTE		N03     Fs1   v096
	BYTE	W12
	BYTE		        Fs1   v072
	BYTE		N07     Fs2   v092
	BYTE		N05     Cs3   v108
	BYTE	W06
	BYTE		N03     Fs1   v056
	BYTE		N05     Cs3   v108
	BYTE	W06
	BYTE		N11     Cn1   v124
	BYTE		N03     Fs1   v096
	BYTE	W06
	BYTE		N11     Dn1   v072
	BYTE	W06
	BYTE		        Cn1   v112
	BYTE		N03     Fs1   v072
	BYTE		N07     Fs2   v092
	BYTE		N11     Dn3   v124
	BYTE	W12
	BYTE		        Dn1   v104
	BYTE		N03     Fs1   v096
	BYTE	W12
	BYTE		        Fs1   v072
	BYTE		N07     Fs2   v092
	BYTE		N05     Cs3   v108
	BYTE	W06
	BYTE		N11     Cn1   v124
	BYTE		N05     Cs3   v108
	BYTE	W06
// 039   ----------------------------------------
	BYTE		N03     Fs1   v096
	BYTE	W06
	BYTE		N11     Dn1   v072
	BYTE	W06
	BYTE		        Cn1   v112
	BYTE		N03     Fs1   v072
	BYTE		N07     Fs2   v092
	BYTE		N11     Dn3   v124
	BYTE	W12
	BYTE		        Dn1   v104
	BYTE		N03     Fs1   v096
	BYTE	W12
	BYTE		N11     Cn1   v104
	BYTE		N03     Fs1   v084
	BYTE		N07     Fs2   v092
	BYTE		N05     Cs3   v108
	BYTE	W06
	BYTE		        As1   v088
	BYTE		N05     Cs3   v108
	BYTE	W06
	BYTE		N11     Cn1   v124
	BYTE		N11     Dn1   v104
	BYTE		N03     Gs1   v084
	BYTE	W12
	BYTE		N11     Dn1   v116
	BYTE		N07     Fs2   v092
	BYTE	W12
	BYTE		N11     Cn1   v124
	BYTE		N03     Gs1   v084
	BYTE		N44     Cs2   v100
	BYTE		N07     Fs2   v092
	BYTE	W01
	BYTE		N44     Cs4   v088
	BYTE	W23
// 040   ----------------------------------------
	BYTE		N03     Gs1   v084
	BYTE		N11     Dn2   v116
	BYTE	W07
	BYTE		        Cn2   v108
	BYTE	W05
	BYTE		        Bn1   v116
	BYTE	W07
	BYTE		        An1   v108
	BYTE	W05
	BYTE		        Dn1   v100
	BYTE		N11     Gn1   v116
	BYTE		N03     Gs1   v084
	BYTE	W06
	BYTE		N11     Cn1   v124
	BYTE		N17     As1   v088
	BYTE	W17
	BYTE		N11     Bn1   v104
	BYTE	W01
	BYTE		N03     Gs1   v084
	BYTE		N11     An1   v120
	BYTE	W12
	BYTE		        Cn1   v124
	BYTE		N11     Gn1   v116
	BYTE	W12
	BYTE		        Dn1   v104
	BYTE		N44     Cs2   v100
	BYTE	W01
	BYTE		        Cs4   v088
	BYTE	W23
// 041   ----------------------------------------
	BYTE		N11     Dn1   v104
	BYTE		N23     As1   v080
	BYTE	W12
	BYTE		N11     Cn1   v120
	BYTE	W12
	BYTE		        Dn1   v104
	BYTE		N44     An2   v100
	BYTE	W01
	BYTE		        An4   v088
	BYTE	W11
	BYTE		N11     Cn1   v120
	BYTE	W12
	BYTE		        Dn1   v104
	BYTE		N23     As1   v080
	BYTE	W12
	BYTE		N11     Cn1   v120
	BYTE	W12
	BYTE		        Dn1   v104
	BYTE		N44     Cs2   v100
	BYTE	W01
	BYTE		        Cs4   v088
	BYTE	W11
	BYTE		N11     Cn1   v120
	BYTE	W12
// 042   ----------------------------------------
	BYTE		        Dn1   v104
	BYTE		N23     As1   v080
	BYTE	W12
	BYTE		N11     Cn1   v120
	BYTE	W12
	BYTE		        Dn1   v104
	BYTE		N23     As1   v080
	BYTE		N07     Fs2   v096
	BYTE	W12
	BYTE		N11     Cn1   v120
	BYTE	W20
	BYTE	GoTo
	 POIN2	SteelCockpit0_10_B1
SteelCockpit0_10_B2:
	BYTE	FINE

//**************** Track 11 (Midi-Chn.13) ****************//

SteelCockpit0_11:
	BYTE	KEYSH   SteelCockpit0_key+0
// 000   ----------------------------------------
	BYTE		VOICE   62
	BYTE		VOL     36*SteelCockpit0_mvl/mxv
	BYTE	W01
	BYTE		PAN     c_v-40
	BYTE	W01
	BYTE		BEND    c_v+0
	BYTE	W68
	BYTE	W02
	BYTE		N10     Dn4   v120
	BYTE		N11     Gn4   v124
	BYTE	W12
	BYTE		N02     Dn4   v112
	BYTE	W03
	BYTE		        Bn3 
	BYTE	W03
	BYTE		        Gn3 
	BYTE	W06
// 001   ----------------------------------------
SteelCockpit0_11_001:
	BYTE	W24
	BYTE		N10     Dn4   v120
	BYTE		N11     Gn4   v124
	BYTE	W12
	BYTE		N02     Dn4   v112
	BYTE	W03
	BYTE		        Bn3 
	BYTE	W03
	BYTE		        Gn3 
	BYTE	W30
	BYTE		N10     En4   v120
	BYTE		N11     Gn4   v124
	BYTE	W12
	BYTE		N02     Dn4   v112
	BYTE	W03
	BYTE		        Bn3 
	BYTE	W03
	BYTE		        Gn3 
	BYTE	W06
	BYTE	PEND
// 002   ----------------------------------------
	BYTE	W48
SteelCockpit0_11_B1:
	BYTE	W48
// 003   ----------------------------------------
	BYTE	W96
// 004   ----------------------------------------
	BYTE	W72
	BYTE		N04     Dn3   v116
	BYTE		N04     Gn3   v120
	BYTE	W24
// 005   ----------------------------------------
	BYTE		        Dn3   v116
	BYTE		N04     Gn3   v120
	BYTE	W12
	BYTE		N05     Dn3   v116
	BYTE		N05     Fn3   v120
	BYTE	W06
	BYTE		N03     Dn3   v112
	BYTE		N03     Gn3   v120
	BYTE	W30
	BYTE		N04     Dn3   v116
	BYTE		N04     Gn3   v120
	BYTE	W12
	BYTE		N05     Dn3   v116
	BYTE		N05     Fn3   v120
	BYTE	W06
	BYTE		N03     Dn3   v112
	BYTE		N03     Gn3   v120
	BYTE	W12
	BYTE		N05     Fn3   v116
	BYTE		N05     As3   v120
	BYTE	W12
	BYTE		N11     Dn3   v112
	BYTE		N11     Gn3   v116
	BYTE	W06
// 006   ----------------------------------------
	BYTE	W24
	BYTE		N10     Dn4   v120
	BYTE		N11     Gn4   v124
	BYTE	W12
	BYTE		N02     Dn4   v108
	BYTE	W03
	BYTE		        Bn3 
	BYTE	W03
	BYTE		        Gn3 
	BYTE	W54
// 007   ----------------------------------------
	BYTE	W96
// 008   ----------------------------------------
SteelCockpit0_11_008:
	BYTE	W06
	BYTE		N04     Gn3   v116
	BYTE		N04     Cn4   v124
	BYTE	W06
	BYTE		        As3   v116
	BYTE		N04     Dn4   v124
	BYTE	W12
	BYTE		        Gn3   v116
	BYTE		N04     Cn4   v124
	BYTE	W06
	BYTE		        As3   v116
	BYTE		N04     Dn4   v124
	BYTE	W66
	BYTE	PEND
// 009   ----------------------------------------
	BYTE	W96
// 010   ----------------------------------------
	BYTE	W24
	BYTE		N10     An3   v120
	BYTE		N10     Dn4   v124
	BYTE	W12
	BYTE		N02     An3   v112
	BYTE	W03
	BYTE		        Fs3 
	BYTE	W03
	BYTE		        Dn3 
	BYTE	W54
// 011   ----------------------------------------
	BYTE	W96
// 012   ----------------------------------------
	BYTE	PATT
	 POIN2	SteelCockpit0_11_008
// 013   ----------------------------------------
	BYTE	W54
	BYTE		N04     As3   v116
	BYTE		N04     Dn4   v124
	BYTE	W06
	BYTE		        Gn3   v116
	BYTE		N04     Cn4   v124
	BYTE	W12
	BYTE		        Gn3   v116
	BYTE		N04     As3   v124
	BYTE	W06
	BYTE		        Fn3   v116
	BYTE		N04     An3   v124
	BYTE	W12
	BYTE		N05     As2   v116
	BYTE		N05     Dn3   v124
	BYTE	W06
// 014   ----------------------------------------
	BYTE	W06
	BYTE		N04     Gn3   v116
	BYTE		N04     Cn4   v124
	BYTE	W06
	BYTE		        As3   v116
	BYTE		N04     Dn4   v124
	BYTE	W12
	BYTE		N05     Gn3   v116
	BYTE		N05     Cn4   v124
	BYTE	W12
	BYTE		N10     Gn3   v120
	BYTE		N10     As3   v124
	BYTE	W12
	BYTE		N02     Fn3   v112
	BYTE	W03
	BYTE		        Dn3 
	BYTE	W03
	BYTE		        As2 
	BYTE	W18
	BYTE		N04     As3   v116
	BYTE		N05     Ds4   v124
	BYTE	W24
// 015   ----------------------------------------
	BYTE	W96
// 016   ----------------------------------------
	BYTE		N04     An3   v116
	BYTE		N05     Dn4   v124
	BYTE	W12
	BYTE		N04     An3   v116
	BYTE		N05     Cn4   v124
	BYTE	W06
	BYTE		N04     An3   v116
	BYTE		N04     Dn4   v124
	BYTE	W78
// 017   ----------------------------------------
	BYTE	W60
	BYTE		N05     Dn3   v116
	BYTE		N05     Gn3   v124
	BYTE	W12
	BYTE		N04     Fn3   v116
	BYTE		N04     As3   v124
	BYTE	W06
	BYTE		        Dn3   v116
	BYTE		N04     Gn3   v124
	BYTE	W12
	BYTE		N10     As3   v116
	BYTE		N10     Dn4   v124
	BYTE	W06
// 018   ----------------------------------------
	BYTE	W06
	BYTE		N05     Gn3   v116
	BYTE		N05     Cn4   v124
	BYTE	W06
	BYTE		        Fn3   v116
	BYTE		N05     As3   v124
	BYTE	W06
	BYTE		        Dn3   v116
	BYTE		N05     Gn3   v124
	BYTE	W06
	BYTE		        As3   v116
	BYTE		N05     Dn4   v124
	BYTE	W12
	BYTE		N10     As3   v120
	BYTE		N10     Ds4   v124
	BYTE	W12
	BYTE		N02     As3   v112
	BYTE	W03
	BYTE		        Gn3 
	BYTE	W03
	BYTE		        Ds3 
	BYTE	W18
	BYTE		N04     As3   v116
	BYTE		N05     Ds4   v124
	BYTE	W24
// 019   ----------------------------------------
	BYTE	W96
// 020   ----------------------------------------
	BYTE		N04     An3   v116
	BYTE		N05     Dn4   v124
	BYTE	W12
	BYTE		N04     Cn4   v116
	BYTE		N05     Fn4   v124
	BYTE	W06
	BYTE		N04     An3   v116
	BYTE		N04     Dn4   v124
	BYTE	W78
// 021   ----------------------------------------
	BYTE	W60
	BYTE		N05     Fs3   v116
	BYTE		N05     An3   v124
	BYTE	W12
	BYTE		        An3   v116
	BYTE		N05     Cn4   v124
	BYTE	W06
	BYTE		N04     Fs3   v116
	BYTE		N04     An3   v124
	BYTE	W12
	BYTE		N06     An3   v116
	BYTE		N06     Dn4   v124
	BYTE	W06
// 022   ----------------------------------------
	BYTE	W06
	BYTE		N03     An3 
	BYTE		N03     Dn4 
	BYTE	W06
	BYTE		N08     Fs3   v116
	BYTE		N08     Cn4   v124
	BYTE	W12
	BYTE		N05     Fs3   v116
	BYTE		N05     An3   v124
	BYTE	W06
	BYTE		N03     Dn3   v116
	BYTE		N03     Fs3   v124
	BYTE	W06
	BYTE		        Fs3   v116
	BYTE		N03     An3   v124
	BYTE	W06
	BYTE		        Gn3   v116
	BYTE		N03     Cn4   v124
	BYTE	W06
	BYTE		N10     An3   v120
	BYTE		N10     Dn4   v124
	BYTE	W24
	BYTE		        An3   v120
	BYTE		N10     Dn4   v124
	BYTE	W18
	BYTE		        An3   v120
	BYTE		N10     Dn4   v124
	BYTE	W06
// 023   ----------------------------------------
	BYTE	W06
	BYTE		N02     An3   v112
	BYTE	W03
	BYTE		        Fs3 
	BYTE	W03
	BYTE		        Dn3 
	BYTE	W84
// 024   ----------------------------------------
SteelCockpit0_11_024:
	BYTE		N04     As3   v116
	BYTE		N04     Dn4   v124
	BYTE	W96
	BYTE	PEND
// 025   ----------------------------------------
SteelCockpit0_11_025:
	BYTE	W12
	BYTE		N04     Cn4   v120
	BYTE		N04     Fn4   v124
	BYTE	W12
	BYTE		        Cn4   v120
	BYTE		N04     Ds4   v124
	BYTE	W06
	BYTE		        Cn4   v120
	BYTE		N04     Fn4   v124
	BYTE	W66
	BYTE	PEND
// 026   ----------------------------------------
	BYTE	W96
// 027   ----------------------------------------
	BYTE		        An3   v120
	BYTE		N04     Dn4   v124
	BYTE	W06
	BYTE		        An3   v120
	BYTE		N04     Cn4   v124
	BYTE	W12
	BYTE		        Fn3   v120
	BYTE		N04     An3   v124
	BYTE	W12
	BYTE		        Dn3   v120
	BYTE		N04     Fn3   v124
	BYTE	W06
	BYTE		N11     An2   v120
	BYTE		N11     Dn3   v124
	BYTE	W06
	BYTE		BEND    c_v+1
	BYTE	W01
	BYTE		        c_v+2
	BYTE	W02
	BYTE		        c_v+1
	BYTE	W01
	BYTE		        c_v+0
	BYTE	W24
	BYTE	W02
	BYTE		N04     As3   v116
	BYTE		N04     Ds4   v124
	BYTE	W24
// 028   ----------------------------------------
	BYTE	W96
// 029   ----------------------------------------
	BYTE	W12
	BYTE		        An3   v116
	BYTE		N04     Cn4   v124
	BYTE	W12
	BYTE		        An3   v116
	BYTE		N04     Cn4   v124
	BYTE	W06
	BYTE		        An3   v116
	BYTE		N04     Cn4   v124
	BYTE	W42
	BYTE		        Gn3   v116
	BYTE		N04     Cn4   v124
	BYTE	W12
	BYTE		        Gn3   v116
	BYTE		N04     As3   v124
	BYTE	W06
	BYTE		        Gn3   v116
	BYTE		N04     Cn4   v124
	BYTE	W06
// 030   ----------------------------------------
	BYTE	W06
	BYTE		        Gn3   v116
	BYTE		N04     Cn4   v124
	BYTE	W12
	BYTE		        Cn4   v116
	BYTE		N04     En4   v124
	BYTE	W12
	BYTE		        Gn3   v116
	BYTE		N04     Cn4   v124
	BYTE	W42
	BYTE		N10     An3   v120
	BYTE		N11     Dn4   v124
	BYTE	W06
	BYTE		BEND    c_v+1
	BYTE	W01
	BYTE		        c_v+2
	BYTE	W02
	BYTE		        c_v+1
	BYTE	W01
	BYTE		        c_v+0
	BYTE	W02
	BYTE		N02     An3   v112
	BYTE	W03
	BYTE		        Fs3 
	BYTE	W03
	BYTE		        Dn3 
	BYTE	W06
// 031   ----------------------------------------
	BYTE	W96
// 032   ----------------------------------------
	BYTE	PATT
	 POIN2	SteelCockpit0_11_024
// 033   ----------------------------------------
	BYTE	PATT
	 POIN2	SteelCockpit0_11_025
// 034   ----------------------------------------
	BYTE	W96
// 035   ----------------------------------------
	BYTE		N04     An3   v120
	BYTE		N04     Dn4   v124
	BYTE	W06
	BYTE		        An3   v120
	BYTE		N04     Cn4   v124
	BYTE	W12
	BYTE		        Fn3   v120
	BYTE		N04     An3   v124
	BYTE	W12
	BYTE		        Dn3   v120
	BYTE		N04     Fn3   v124
	BYTE	W06
	BYTE		N11     An2   v120
	BYTE		N11     Dn3   v124
	BYTE	W06
	BYTE		BEND    c_v+1
	BYTE	W01
	BYTE		        c_v+2
	BYTE	W02
	BYTE		        c_v+1
	BYTE	W01
	BYTE		        c_v+0
	BYTE	W24
	BYTE	W02
	BYTE		N05     As3   v120
	BYTE		N05     Ds4   v124
	BYTE	W24
// 036   ----------------------------------------
	BYTE	W96
// 037   ----------------------------------------
	BYTE	W12
	BYTE		N04     Cn3   v120
	BYTE		N04     Fn3   v124
	BYTE	W12
	BYTE		N10     Fn3   v120
	BYTE		N10     An3   v124
	BYTE	W12
	BYTE		N04     An3   v120
	BYTE		N04     Cn4   v124
	BYTE	W36
	BYTE		N05     Gn3   v120
	BYTE		N05     Cn4   v124
	BYTE	W24
// 038   ----------------------------------------
	BYTE	W60
	BYTE		N04     Fs3   v120
	BYTE		N04     An3   v124
	BYTE	W12
	BYTE		N10     An3   v120
	BYTE		N10     Cn4   v124
	BYTE	W12
	BYTE		N04     Fs3   v120
	BYTE		N04     An3   v124
	BYTE	W12
// 039   ----------------------------------------
	BYTE		        An3   v120
	BYTE		N04     Dn4   v124
	BYTE	W06
	BYTE		        An3   v120
	BYTE		N04     Cn4   v124
	BYTE	W12
	BYTE		        Fs3   v120
	BYTE		N04     An3   v124
	BYTE	W12
	BYTE		        Dn3   v120
	BYTE		N04     Gn3   v124
	BYTE	W12
	BYTE		        Fs3   v120
	BYTE		N04     An3   v124
	BYTE	W06
	BYTE		N05     An3   v120
	BYTE		N05     Dn4   v124
	BYTE	W12
	BYTE		        An3   v120
	BYTE		N05     Dn4   v124
	BYTE	W12
	BYTE		N10     An3   v120
	BYTE		N11     Dn4   v124
	BYTE	W06
	BYTE		BEND    c_v+1
	BYTE	W01
	BYTE		        c_v+2
	BYTE	W02
	BYTE		        c_v+1
	BYTE	W01
	BYTE		        c_v+0
	BYTE	W02
	BYTE		N02     An3   v112
	BYTE	W03
	BYTE		        Fs3 
	BYTE	W03
	BYTE		        Dn3 
	BYTE	W06
// 040   ----------------------------------------
	BYTE	W72
	BYTE		N10     Dn4   v120
	BYTE		N11     Gn4   v124
	BYTE	W12
	BYTE		N02     Dn4   v112
	BYTE	W03
	BYTE		        Bn3 
	BYTE	W03
	BYTE		        Gn3 
	BYTE	W06
// 041   ----------------------------------------
	BYTE	PATT
	 POIN2	SteelCockpit0_11_001
// 042   ----------------------------------------
	BYTE	W56
	BYTE	GoTo
	 POIN2	SteelCockpit0_11_B1
SteelCockpit0_11_B2:
	BYTE	FINE

//**************** Track 12 (Midi-Chn.14) ****************//

SteelCockpit0_12:
	BYTE	KEYSH   SteelCockpit0_key+0
// 000   ----------------------------------------
	BYTE		VOICE   57
	BYTE		VOL     36*SteelCockpit0_mvl/mxv
	BYTE	W01
	BYTE		PAN     c_v+32
	BYTE	W01
	BYTE		BEND    c_v+0
	BYTE	W68
	BYTE	W02
	BYTE		N10     Gn2   v104
	BYTE		N10     As2 
	BYTE		N11     Dn3   v116
	BYTE	W24
// 001   ----------------------------------------
SteelCockpit0_12_001:
	BYTE	W24
	BYTE		N10     Fn2   v104
	BYTE		N10     As2 
	BYTE		N11     Dn3   v116
	BYTE	W48
	BYTE		N10     Gn2   v104
	BYTE		N10     Cn3 
	BYTE		N11     En3   v116
	BYTE	W24
	BYTE	PEND
// 002   ----------------------------------------
	BYTE	W48
SteelCockpit0_12_B1:
	BYTE	W48
// 003   ----------------------------------------
	BYTE	W96
// 004   ----------------------------------------
	BYTE	W72
	BYTE		N04     Dn2   v108
	BYTE		N04     As2   v112
	BYTE	W24
// 005   ----------------------------------------
	BYTE		        Dn2   v108
	BYTE		N04     As2   v112
	BYTE	W12
	BYTE		N05     Dn2   v108
	BYTE		N05     As2   v112
	BYTE	W06
	BYTE		N03     Dn2   v104
	BYTE		N03     As2   v108
	BYTE	W30
	BYTE		N04     Dn2 
	BYTE		N04     As2   v112
	BYTE	W12
	BYTE		N05     Dn2   v108
	BYTE		N05     As2   v112
	BYTE	W06
	BYTE		N03     Dn2   v108
	BYTE		N03     As2   v112
	BYTE	W12
	BYTE		N05     Dn2   v108
	BYTE		N05     As2   v112
	BYTE	W12
	BYTE		N11     Dn2   v100
	BYTE		N11     As2   v108
	BYTE	W06
// 006   ----------------------------------------
	BYTE	W24
	BYTE		N10     As1   v112
	BYTE		N10     Gn2 
	BYTE		N11     Dn3   v120
	BYTE	W72
// 007   ----------------------------------------
	BYTE	W96
// 008   ----------------------------------------
SteelCockpit0_12_008:
	BYTE	W06
	BYTE		N04     Gn2   v108
	BYTE		N04     Cn3   v120
	BYTE	W06
	BYTE		        Gn2   v108
	BYTE		N04     Dn3   v120
	BYTE	W12
	BYTE		        Gn2   v108
	BYTE		N04     Cn3   v120
	BYTE	W06
	BYTE		        Gn2   v108
	BYTE		N04     Dn3   v120
	BYTE	W66
	BYTE	PEND
// 009   ----------------------------------------
	BYTE	W96
// 010   ----------------------------------------
	BYTE	W24
	BYTE		N10     An1   v112
	BYTE		N10     Fn2 
	BYTE		N10     Dn3   v120
	BYTE	W72
// 011   ----------------------------------------
	BYTE	W96
// 012   ----------------------------------------
	BYTE	PATT
	 POIN2	SteelCockpit0_12_008
// 013   ----------------------------------------
	BYTE	W54
	BYTE		N04     As2   v108
	BYTE		N04     Dn3   v120
	BYTE	W06
	BYTE		        Gn2   v108
	BYTE		N04     Cn3   v120
	BYTE	W12
	BYTE		        Gn2   v108
	BYTE		N04     As2   v120
	BYTE	W06
	BYTE		        Fn2   v108
	BYTE		N04     An2   v120
	BYTE	W12
	BYTE		N05     As1   v108
	BYTE		N05     Dn2   v120
	BYTE	W06
// 014   ----------------------------------------
	BYTE	W06
	BYTE		N04     Gn2   v108
	BYTE		N04     Cn3   v120
	BYTE	W06
	BYTE		        As2   v108
	BYTE		N04     Dn3   v120
	BYTE	W12
	BYTE		N05     Gn2   v108
	BYTE		N05     Cn3   v120
	BYTE	W12
	BYTE		N10     Gn2   v112
	BYTE		N10     As2   v120
	BYTE	W36
	BYTE		N04     As1   v108
	BYTE		N04     Gn2 
	BYTE		N05     Ds3   v120
	BYTE	W24
// 015   ----------------------------------------
	BYTE	W96
// 016   ----------------------------------------
	BYTE		N04     An1   v108
	BYTE		N04     Fn2 
	BYTE		N05     Dn3   v120
	BYTE	W12
	BYTE		N10     An1   v108
	BYTE		N10     Fn2 
	BYTE		N05     Cn3   v120
	BYTE	W06
	BYTE		N04     Dn3 
	BYTE	W78
// 017   ----------------------------------------
	BYTE	W60
	BYTE		N05     Gn1 
	BYTE		N05     Gn2 
	BYTE	W12
	BYTE		N04     As1 
	BYTE		N04     As2 
	BYTE	W06
	BYTE		        Gn1 
	BYTE		N04     Gn2 
	BYTE	W12
	BYTE		N10     Dn2 
	BYTE		N10     Dn3 
	BYTE	W06
// 018   ----------------------------------------
	BYTE	W06
	BYTE		N05     Cn3 
	BYTE	W06
	BYTE		        As2 
	BYTE	W06
	BYTE		        Gn2 
	BYTE	W06
	BYTE		        Dn2 
	BYTE		N05     Dn3 
	BYTE	W12
	BYTE		N10     As1 
	BYTE		N10     Gn2   v112
	BYTE		N10     Ds3   v120
	BYTE	W36
	BYTE		N04     As1   v108
	BYTE		N04     Gn2 
	BYTE		N05     Ds3   v120
	BYTE	W24
// 019   ----------------------------------------
	BYTE	W96
// 020   ----------------------------------------
	BYTE		N04     Fn2   v108
	BYTE		N05     Dn3   v120
	BYTE	W12
	BYTE		N10     An1   v108
	BYTE		N10     Fn2 
	BYTE		N05     Fn3   v120
	BYTE	W06
	BYTE		N04     Dn3 
	BYTE	W78
// 021   ----------------------------------------
	BYTE	W60
	BYTE		N05     An1 
	BYTE		N05     An2 
	BYTE	W12
	BYTE		        Cn2 
	BYTE		N05     Cn3 
	BYTE	W06
	BYTE		N04     An1 
	BYTE		N04     An2 
	BYTE	W12
	BYTE		N06     Dn2 
	BYTE		N06     Dn3 
	BYTE	W06
// 022   ----------------------------------------
	BYTE	W06
	BYTE		N04     Dn2 
	BYTE		N04     Dn3 
	BYTE	W06
	BYTE		N08     Cn3 
	BYTE	W12
	BYTE		N05     An2 
	BYTE	W06
	BYTE		N03     Fs2 
	BYTE	W06
	BYTE		        An2 
	BYTE	W06
	BYTE		        Cn3 
	BYTE	W06
	BYTE		N10     An1   v112
	BYTE		N10     Fs2 
	BYTE		N10     Dn3   v120
	BYTE	W24
	BYTE		        An1   v112
	BYTE		N10     Fs2 
	BYTE		N10     Dn3   v120
	BYTE	W18
	BYTE		        An1   v112
	BYTE		N10     Fs2 
	BYTE		N10     Dn3   v120
	BYTE	W06
// 023   ----------------------------------------
	BYTE	W96
// 024   ----------------------------------------
SteelCockpit0_12_024:
	BYTE		N04     As1   v108
	BYTE		N04     Gn2 
	BYTE		N04     Dn3   v120
	BYTE	W96
	BYTE	PEND
// 025   ----------------------------------------
SteelCockpit0_12_025:
	BYTE	W12
	BYTE		N04     An2   v112
	BYTE		N04     Fn3   v120
	BYTE	W12
	BYTE		N10     Cn2   v112
	BYTE		N10     An2 
	BYTE		N04     Ds3   v120
	BYTE	W06
	BYTE		        Fn3 
	BYTE	W42
	BYTE		N17     Gn1   v100
	BYTE		N17     As1   v104
	BYTE		N17     Ds2   v116
	BYTE	W06
	BYTE		BEND    c_v+1
	BYTE	W01
	BYTE		        c_v+2
	BYTE	W02
	BYTE		        c_v+1
	BYTE	W01
	BYTE		        c_v+0
	BYTE	W02
	BYTE		        c_v-1
	BYTE	W01
	BYTE		        c_v-2
	BYTE	W02
	BYTE		        c_v-1
	BYTE	W01
	BYTE		        c_v+0
	BYTE	W08
	BYTE	PEND
// 026   ----------------------------------------
SteelCockpit0_12_026:
	BYTE		N17     As1   v100
	BYTE		N17     Ds2   v104
	BYTE		N17     Gn2   v116
	BYTE	W06
	BYTE		BEND    c_v+1
	BYTE	W01
	BYTE		        c_v+2
	BYTE	W02
	BYTE		        c_v+1
	BYTE	W01
	BYTE		        c_v+0
	BYTE	W02
	BYTE		        c_v-1
	BYTE	W01
	BYTE		        c_v-2
	BYTE	W02
	BYTE		        c_v-1
	BYTE	W01
	BYTE		        c_v+0
	BYTE	W08
	BYTE		N17     Ds2   v100
	BYTE		N17     Gn2   v104
	BYTE		N17     As2   v116
	BYTE	W06
	BYTE		BEND    c_v+1
	BYTE	W01
	BYTE		        c_v+2
	BYTE	W02
	BYTE		        c_v+1
	BYTE	W01
	BYTE		        c_v+0
	BYTE	W02
	BYTE		        c_v-1
	BYTE	W01
	BYTE		        c_v-2
	BYTE	W02
	BYTE		        c_v-1
	BYTE	W01
	BYTE		        c_v+0
	BYTE	W08
	BYTE		N40     Fs1   v100
	BYTE		N40     An1   v104
	BYTE		N40     Dn2   v116
	BYTE	W06
	BYTE		BEND    c_v+1
	BYTE	W01
	BYTE		        c_v+2
	BYTE	W02
	BYTE		        c_v+1
	BYTE	W01
	BYTE		        c_v+0
	BYTE	W02
	BYTE		        c_v-1
	BYTE	W01
	BYTE		        c_v-2
	BYTE	W02
	BYTE		        c_v-1
	BYTE	W01
	BYTE		        c_v+0
	BYTE	W02
	BYTE		        c_v+1
	BYTE	W01
	BYTE		        c_v+2
	BYTE	W02
	BYTE		        c_v+3
	BYTE	W01
	BYTE		        c_v+2
	BYTE	W02
	BYTE		        c_v+1
	BYTE	W01
	BYTE		        c_v+0
	BYTE	W02
	BYTE		        c_v-1
	BYTE	W01
	BYTE		        c_v-2
	BYTE	W02
	BYTE		        c_v-1
	BYTE	W01
	BYTE		        c_v+0
	BYTE	W02
	BYTE		        c_v+1
	BYTE	W01
	BYTE		        c_v+2
	BYTE	W02
	BYTE		        c_v+3
	BYTE	W01
	BYTE		        c_v+2
	BYTE	W02
	BYTE		        c_v+1
	BYTE	W01
	BYTE		        c_v+0
	BYTE	W08
	BYTE	PEND
// 027   ----------------------------------------
	BYTE		N04     Fn2   v112
	BYTE		N04     Dn3   v120
	BYTE	W06
	BYTE		        Fn2   v112
	BYTE		N04     Cn3   v120
	BYTE	W12
	BYTE		        Fn2   v112
	BYTE		N04     Dn3   v120
	BYTE	W12
	BYTE		        Fn2   v112
	BYTE		N04     Dn3   v120
	BYTE	W06
	BYTE		N11     Fn2   v112
	BYTE		N11     Dn3   v120
	BYTE	W36
	BYTE		N04     As1   v108
	BYTE		N04     Gn2 
	BYTE		N04     Ds3   v120
	BYTE	W24
// 028   ----------------------------------------
	BYTE	W96
// 029   ----------------------------------------
	BYTE	W12
	BYTE		        An2   v108
	BYTE		N04     Fn3   v120
	BYTE	W12
	BYTE		N10     Cn2   v108
	BYTE		N10     An2 
	BYTE		N04     Fn3   v120
	BYTE	W06
	BYTE		N04   
	BYTE	W42
	BYTE		        Gn2   v108
	BYTE		N04     Cn3   v120
	BYTE	W12
	BYTE		        Gn2   v108
	BYTE		N04     As2   v120
	BYTE	W06
	BYTE		        Gn2   v108
	BYTE		N04     Cn3   v120
	BYTE	W06
// 030   ----------------------------------------
	BYTE	W06
	BYTE		        Gn2   v108
	BYTE		N04     Cn3   v120
	BYTE	W12
	BYTE		        Gn2   v108
	BYTE		N04     En3   v120
	BYTE	W12
	BYTE		        Gn2   v108
	BYTE		N04     Cn3   v120
	BYTE	W42
	BYTE		N11     Dn2   v112
	BYTE		N11     An2 
	BYTE		N10     Fs3   v120
	BYTE	W24
// 031   ----------------------------------------
	BYTE	W96
// 032   ----------------------------------------
	BYTE	PATT
	 POIN2	SteelCockpit0_12_024
// 033   ----------------------------------------
	BYTE	PATT
	 POIN2	SteelCockpit0_12_025
// 034   ----------------------------------------
	BYTE	PATT
	 POIN2	SteelCockpit0_12_026
// 035   ----------------------------------------
	BYTE		N04     Fn2   v112
	BYTE		N04     Dn3   v120
	BYTE	W06
	BYTE		        Fn2   v112
	BYTE		N04     Cn3   v120
	BYTE	W12
	BYTE		        Fn2   v112
	BYTE		N04     Dn3   v120
	BYTE	W12
	BYTE		        Fn2   v112
	BYTE		N04     Dn3   v120
	BYTE	W06
	BYTE		N11     Fn2   v112
	BYTE		N11     Dn3   v120
	BYTE	W36
	BYTE		N05     As1   v112
	BYTE		N05     Gn2 
	BYTE		N05     Ds3   v120
	BYTE	W24
// 036   ----------------------------------------
	BYTE	W96
// 037   ----------------------------------------
	BYTE	W12
	BYTE		N04     An2   v112
	BYTE		N04     Fn3   v120
	BYTE	W12
	BYTE		N16     Cn2   v112
	BYTE		N16     An2 
	BYTE		N16     Fn3   v120
	BYTE	W48
	BYTE		N05     Cn2   v112
	BYTE		N05     Gn2 
	BYTE		N05     En3   v120
	BYTE	W24
// 038   ----------------------------------------
	BYTE	W60
	BYTE		N04     Fs2   v112
	BYTE		N04     Cn3   v120
	BYTE	W12
	BYTE		N10     Fs2   v112
	BYTE		N10     Cn3   v120
	BYTE	W12
	BYTE		N04     Fs2   v112
	BYTE		N04     Cn3   v120
	BYTE	W12
// 039   ----------------------------------------
	BYTE		        Fs2   v112
	BYTE		N04     Dn3   v120
	BYTE	W06
	BYTE		        Fs2   v112
	BYTE		N04     Cn3   v120
	BYTE	W12
	BYTE		        Fs2   v112
	BYTE		N04     Dn3   v120
	BYTE	W12
	BYTE		        Gn2   v112
	BYTE		N04     Dn3   v120
	BYTE	W12
	BYTE		        Fs2   v112
	BYTE		N04     Dn3   v120
	BYTE	W06
	BYTE		N05     An1   v112
	BYTE		N05     Fs2 
	BYTE		N05     Dn3   v120
	BYTE	W12
	BYTE		        An1   v112
	BYTE		N05     Fs2 
	BYTE		N05     Dn3   v120
	BYTE	W12
	BYTE		N10     An1   v112
	BYTE		N10     Fs2 
	BYTE		N11     Dn3   v120
	BYTE	W24
// 040   ----------------------------------------
	BYTE	W72
	BYTE		N10     Gn2   v104
	BYTE		N10     As2 
	BYTE		N11     Dn3   v116
	BYTE	W24
// 041   ----------------------------------------
	BYTE	PATT
	 POIN2	SteelCockpit0_12_001
// 042   ----------------------------------------
	BYTE	W56
	BYTE	GoTo
	 POIN2	SteelCockpit0_12_B1
SteelCockpit0_12_B2:
	BYTE	FINE

//**************** Track 13 (Midi-Chn.15) ****************//

SteelCockpit0_13:
	BYTE	KEYSH   SteelCockpit0_key+0
// 000   ----------------------------------------
	BYTE		VOICE   48
	BYTE		VOL     11*SteelCockpit0_mvl/mxv
	BYTE	W01
	BYTE		PAN     c_v+40
	BYTE	W01
	BYTE		BEND    c_v+0
	BYTE	W28
	BYTE		N06     An3   v124
	BYTE	W06
	BYTE		        As3 
	BYTE	W06
	BYTE		        Cn4 
	BYTE	W06
	BYTE		        Dn4 
	BYTE	W06
	BYTE		        En4 
	BYTE	W06
	BYTE		        Fs4 
	BYTE	W06
	BYTE		N32     Gn4 
	BYTE	W30
// 001   ----------------------------------------
SteelCockpit0_13_001:
	BYTE	W06
	BYTE		N06     Gn4   v124
	BYTE	W06
	BYTE		        An4 
	BYTE	W06
	BYTE		N32     As4 
	BYTE	W36
	BYTE		N06   
	BYTE	W06
	BYTE		        Cn5 
	BYTE	W06
	BYTE		N12     Dn5 
	BYTE	W12
	BYTE		N06     Gn5 
	BYTE	W12
	BYTE		N12     Dn5 
	BYTE	W06
	BYTE	PEND
// 002   ----------------------------------------
	BYTE	W06
	BYTE		N06     Gn5 
	BYTE	W12
	BYTE		N48     Gn4 
	BYTE	W30
SteelCockpit0_13_B1:
	BYTE	W18
	BYTE		N12     An4   v124
	BYTE	W12
	BYTE		        Gn4 
	BYTE	W12
	BYTE		        An4 
	BYTE	W06
// 003   ----------------------------------------
	BYTE	W06
	BYTE		N24     En5 
	BYTE	W24
	BYTE		N21     An4 
	BYTE	W24
	BYTE		N12   
	BYTE	W12
	BYTE		N44     Dn5 
	BYTE	W30
// 004   ----------------------------------------
	BYTE	W18
	BYTE		N05   
	BYTE	W06
	BYTE		        Cn5 
	BYTE	W06
	BYTE		        As4 
	BYTE	W06
	BYTE		        An4 
	BYTE	W06
	BYTE		        Gn4 
	BYTE	W06
	BYTE		        Fn4 
	BYTE	W06
	BYTE		        Ds4 
	BYTE	W06
	BYTE		        Dn4 
	BYTE	W06
	BYTE		N48     Gn4 
	BYTE	W30
// 005   ----------------------------------------
	BYTE	W24
	BYTE		N05   
	BYTE	W06
	BYTE		        An4 
	BYTE	W06
	BYTE		        As4 
	BYTE	W06
	BYTE		        Cn5 
	BYTE	W06
	BYTE		        Dn5 
	BYTE	W06
	BYTE		        Ds5 
	BYTE	W06
	BYTE		        Fn5 
	BYTE	W06
	BYTE		N88     Gn5 
	BYTE	W30
// 006   ----------------------------------------
	BYTE	W96
// 007   ----------------------------------------
	BYTE	W96
// 008   ----------------------------------------
	BYTE	W96
// 009   ----------------------------------------
	BYTE	W96
// 010   ----------------------------------------
	BYTE	W96
// 011   ----------------------------------------
	BYTE	W96
// 012   ----------------------------------------
	BYTE	W96
// 013   ----------------------------------------
	BYTE	W96
// 014   ----------------------------------------
	BYTE	W90
	BYTE		N24     As4   v116
	BYTE	W06
// 015   ----------------------------------------
	BYTE	W18
	BYTE		        Gn4 
	BYTE	W24
	BYTE		        Ds5 
	BYTE	W24
	BYTE		        An4 
	BYTE	W24
	BYTE		N12     Dn4 
	BYTE	W06
// 016   ----------------------------------------
	BYTE	W06
	BYTE		N60     Fn4 
	BYTE	W60
	BYTE		N36     Gs4 
	BYTE	W30
// 017   ----------------------------------------
	BYTE	W06
	BYTE		N06     As4 
	BYTE	W06
	BYTE		        Cn5 
	BYTE	W06
	BYTE		N18     Ds5 
	BYTE	W18
	BYTE		        Cn5 
	BYTE	W18
	BYTE		N36     Dn5 
	BYTE	W36
	BYTE		N24     As4 
	BYTE	W06
// 018   ----------------------------------------
	BYTE	W18
	BYTE		        Gn4 
	BYTE	W24
	BYTE		N12     Fn4 
	BYTE	W12
	BYTE		N36     Gn4 
	BYTE	W36
	BYTE		N24     As4 
	BYTE	W06
// 019   ----------------------------------------
	BYTE	W18
	BYTE		        Gn4 
	BYTE	W24
	BYTE		        Ds5 
	BYTE	W24
	BYTE		        An4 
	BYTE	W24
	BYTE		N12     Fn4 
	BYTE	W06
// 020   ----------------------------------------
	BYTE	W06
	BYTE		N60     Dn5 
	BYTE	W60
	BYTE		N48     Gn4 
	BYTE	W30
// 021   ----------------------------------------
	BYTE	W18
	BYTE		N06     Cs5   v124
	BYTE	W06
	BYTE		        As4 
	BYTE	W06
	BYTE		        An4 
	BYTE	W06
	BYTE		        Gn4 
	BYTE	W06
	BYTE		        En4 
	BYTE	W06
	BYTE		        Dn4 
	BYTE	W06
	BYTE		        En4 
	BYTE	W06
	BYTE		        Gn4 
	BYTE	W06
	BYTE		N88     Fs4 
	BYTE	W30
// 022   ----------------------------------------
	BYTE	W96
// 023   ----------------------------------------
	BYTE	W24
	BYTE		N06     Dn4 
	BYTE	W06
	BYTE		        En4 
	BYTE	W06
	BYTE		        Fs4 
	BYTE	W06
	BYTE		        Gn4 
	BYTE	W06
	BYTE		        An4 
	BYTE	W06
	BYTE		        As4 
	BYTE	W06
	BYTE		        Cn5 
	BYTE	W06
	BYTE		TIE     Dn5 
	BYTE	W30
// 024   ----------------------------------------
	BYTE	W80
	BYTE	W03
	BYTE		EOT   
	BYTE	W07
	BYTE		N24     Cn5   v120
	BYTE	W06
// 025   ----------------------------------------
SteelCockpit0_13_025:
	BYTE	W18
	BYTE		N24     Fn5   v120
	BYTE	W24
	BYTE		        An4 
	BYTE	W24
	BYTE		        Gn4 
	BYTE	W24
	BYTE		N12     As4 
	BYTE	W06
	BYTE	PEND
// 026   ----------------------------------------
	BYTE	W06
	BYTE		N24     Ds5 
	BYTE	W24
	BYTE		N12     Fn5 
	BYTE	W12
	BYTE		N24     Ds5 
	BYTE	W24
	BYTE		N96     Dn5 
	BYTE	W30
// 027   ----------------------------------------
	BYTE	W66
	BYTE		N24     As4 
	BYTE	W24
	BYTE		N42     Ds5 
	BYTE	W06
// 028   ----------------------------------------
	BYTE	W36
	BYTE		N18     As4 
	BYTE	W18
	BYTE		N12     Ds5 
	BYTE	W12
	BYTE		N56     Cn5 
	BYTE	W30
// 029   ----------------------------------------
	BYTE	W30
	BYTE		N12   
	BYTE	W12
	BYTE		        An4 
	BYTE	W12
	BYTE		        Cn5 
	BYTE	W12
	BYTE		N60     En5 
	BYTE	W30
// 030   ----------------------------------------
	BYTE	W30
	BYTE		N24     Cn5 
	BYTE	W24
	BYTE		N12     Gn4 
	BYTE	W12
	BYTE		N60     Fs4 
	BYTE	W30
// 031   ----------------------------------------
	BYTE	W30
	BYTE		N06     En4   v124
	BYTE	W06
	BYTE		        Fs4 
	BYTE	W06
	BYTE		        Gn4 
	BYTE	W06
	BYTE		        An4 
	BYTE	W06
	BYTE		        As4 
	BYTE	W06
	BYTE		        Cn5 
	BYTE	W06
	BYTE		TIE     Dn5 
	BYTE	W30
// 032   ----------------------------------------
	BYTE	W80
	BYTE	W03
	BYTE		EOT   
	BYTE	W07
	BYTE		N24     Cn5   v120
	BYTE	W06
// 033   ----------------------------------------
	BYTE	PATT
	 POIN2	SteelCockpit0_13_025
// 034   ----------------------------------------
	BYTE	W06
	BYTE		N24     Ds5   v120
	BYTE	W24
	BYTE		N12     Fn5 
	BYTE	W12
	BYTE		N24     Ds5 
	BYTE	W24
	BYTE		        Dn5 
	BYTE	W24
	BYTE		        Cn5 
	BYTE	W06
// 035   ----------------------------------------
	BYTE	W18
	BYTE		N48     An4 
	BYTE	W48
	BYTE		N24     As4 
	BYTE	W24
	BYTE		N42     Ds5 
	BYTE	W06
// 036   ----------------------------------------
	BYTE	W36
	BYTE		N18     As4 
	BYTE	W18
	BYTE		N12     Ds5 
	BYTE	W12
	BYTE		N60     Fn5 
	BYTE	W30
// 037   ----------------------------------------
	BYTE	W30
	BYTE		N24     Cn5 
	BYTE	W24
	BYTE		N12     Fn5 
	BYTE	W12
	BYTE		N24     En5 
	BYTE	W24
	BYTE		N36     Cn5 
	BYTE	W06
// 038   ----------------------------------------
	BYTE	W30
	BYTE		N24     Gn4 
	BYTE	W24
	BYTE		N12     Cn5   v116
	BYTE	W12
	BYTE		N92     An4 
	BYTE	W30
// 039   ----------------------------------------
	BYTE	W96
// 040   ----------------------------------------
	BYTE	W30
	BYTE		N06     An3   v124
	BYTE	W06
	BYTE		        As3 
	BYTE	W06
	BYTE		        Cn4 
	BYTE	W06
	BYTE		        Dn4 
	BYTE	W06
	BYTE		        En4 
	BYTE	W06
	BYTE		        Fs4 
	BYTE	W06
	BYTE		N32     Gn4 
	BYTE	W30
// 041   ----------------------------------------
	BYTE	PATT
	 POIN2	SteelCockpit0_13_001
// 042   ----------------------------------------
	BYTE	W06
	BYTE		N06     Gn5   v124
	BYTE	W12
	BYTE		N24     Gn4 
	BYTE	W36
	BYTE	W02
	BYTE	GoTo
	 POIN2	SteelCockpit0_13_B1
SteelCockpit0_13_B2:
	BYTE	FINE

//******************************************************//
	ALIGN 4

SteelCockpit0:
	BYTE	13	// NumTrks
	BYTE	0	// NumBlks
	BYTE	SteelCockpit0_pri	// Priority
	BYTE	SteelCockpit0_rev	// Reverb.

	POIN2	SteelCockpit0_grp

	POIN2	SteelCockpit0_1
	POIN2	SteelCockpit0_2
	POIN2	SteelCockpit0_3
	POIN2	SteelCockpit0_4
	POIN2	SteelCockpit0_5
	POIN2	SteelCockpit0_6
	POIN2	SteelCockpit0_7
	POIN2	SteelCockpit0_8
	POIN2	SteelCockpit0_9
	POIN2	SteelCockpit0_10
	POIN2	SteelCockpit0_11
	POIN2	SteelCockpit0_12
	POIN2	SteelCockpit0_13

	
