//Event file generated from Sappy .s format.
	#include "MPlayDef.event"

	#define	song30_grp  voicegroup000
	#define	song30_pri  0
	#define	song30_rev  0
	#define	song30_mvl  127
	#define	song30_key  0
	#define	song30_tbs  1
	#define	song30_exg  0
	#define	song30_cmp  1

	// .rodata
	//	song30
	ALIGN 4


//**************** Track 1 (Midi-Chn.0) ****************//

song30_001:
// 000   ----------------------------------------
 BYTE   KEYSH   song30_key+0
 BYTE   TEMPO   144*song30_tbs/2
 BYTE   VOICE   57
 BYTE   VOL   80*song30_mvl/mxv
 BYTE   PAN   c_v+0
 BYTE   W28
 BYTE   BEND   c_v-64
 BYTE   W02
 BYTE   GnM2
 BYTE   N68  Bn1  v080
 BYTE   N68  Gn2
 BYTE   W01
 BYTE   BEND   c_v-47
 BYTE   W02
 BYTE   Fn0
 BYTE   W01
 BYTE   Dn1
 BYTE   W01
 BYTE   Gs2
 BYTE   W02
 BYTE   En3
 BYTE   W56
 BYTE   W03
// 001   ----------------------------------------
 BYTE   W06
 BYTE   N10  Bn1  v028
 BYTE   N10  Gn2
 BYTE   W12
 BYTE   Bn1  v080
 BYTE   N10  Gn2
 BYTE   W12
 BYTE   N32  Cs2
 BYTE   N32  An2
 BYTE   W01
 BYTE   BEND   c_v-57
 BYTE   W01
 BYTE   FnM1
 BYTE   W02
 BYTE   Dn1
 BYTE   W02
 BYTE   Gs2
 BYTE   W02
 BYTE   En3
 BYTE   W28
 BYTE   N32  Dn2
 BYTE   N32  Bn2
 BYTE   W30
// 002   ----------------------------------------
 BYTE   W06
 BYTE   N22  En2
 BYTE   N22  Cs3
 BYTE   W01
 BYTE   BEND   c_v-57
 BYTE   W01
 BYTE   FnM1
 BYTE   W02
 BYTE   Dn1
 BYTE   W02
 BYTE   Gs2
 BYTE   W02
 BYTE   En3
 BYTE   W16
 BYTE   N68  Dn2
 BYTE   N68  Bn2
 BYTE   W66
// 003   ----------------------------------------
 BYTE   W06
 BYTE   N10  Dn2  v028
 BYTE   N10  Bn2
 BYTE   W12
 BYTE   N32  Bn2  v080
 BYTE   N32  Fs3
 BYTE   W01
 BYTE   BEND   c_v-57
 BYTE   W01
 BYTE   FnM1
 BYTE   W02
 BYTE   Dn1
 BYTE   W02
 BYTE   Gs2
 BYTE   W02
 BYTE   En3
 BYTE   W16
 BYTE   Cn2
 BYTE   W01
 BYTE   As0
 BYTE   W03
 BYTE   Cs0
 BYTE   W02
 BYTE   FnM2
 BYTE   W03
 BYTE   En3
 BYTE   W03
 BYTE   N10  Bn2  v028
 BYTE   N10  Fs3
 BYTE   W12
 BYTE   N22  Bn2  v080
 BYTE   N22  En3
 BYTE   W01
 BYTE   BEND   c_v-57
 BYTE   W01
 BYTE   FnM1
 BYTE   W02
 BYTE   Dn1
 BYTE   W02
 BYTE   Gs2
 BYTE   W02
 BYTE   En3
 BYTE   W16
 BYTE   N10  Bn2  v028
 BYTE   N10  En3
 BYTE   W06
// 004   ----------------------------------------
 BYTE   W06
 BYTE   N22  En2  v080
 BYTE   N22  Cs3
 BYTE   W01
 BYTE   BEND   c_v-57
 BYTE   W01
 BYTE   FnM1
 BYTE   W02
 BYTE   Dn1
 BYTE   W02
 BYTE   Gs2
 BYTE   W02
 BYTE   En3
 BYTE   W03
 BYTE   GnM2
 BYTE   W01
 BYTE   FnM1
 BYTE   W02
 BYTE   Dn1
 BYTE   W02
 BYTE   Gs2
 BYTE   W01
 BYTE   En3
 BYTE   W07
 BYTE   N32  Fs2
 BYTE   N32  Dn3
 BYTE   W01
 BYTE   BEND   c_v-57
 BYTE   W01
 BYTE   FnM1
 BYTE   W02
 BYTE   Dn1
 BYTE   W02
 BYTE   Gs2
 BYTE   W02
 BYTE   En3
 BYTE   W28
 BYTE   N04  En2
 BYTE   N04  Cs3
 BYTE   W06
 BYTE   Fs2
 BYTE   N04  Dn3
 BYTE   W06
 BYTE   N32  Fs2
 BYTE   N32  Dn3
 BYTE   W18
// 005   ----------------------------------------
 BYTE   W18
 BYTE   N04  En2
 BYTE   N04  Cs3
 BYTE   W06
 BYTE   Fs2
 BYTE   N04  Dn3
 BYTE   W06
 BYTE   N22  An2
 BYTE   N22  En3
 BYTE   W01
 BYTE   BEND   c_v-57
 BYTE   W01
 BYTE   FnM1
 BYTE   W02
 BYTE   Dn1
 BYTE   W02
 BYTE   Gs2
 BYTE   W02
 BYTE   En3
 BYTE   W16
 BYTE   N10  An2  v028
 BYTE   N10  En3
 BYTE   W12
 BYTE   N22  An2  v080
 BYTE   N22  Cs3
 BYTE   W24
 BYTE   N10  An2  v028
 BYTE   N10  Dn3
 BYTE   W06
// 006   ----------------------------------------
 BYTE   W06
 BYTE   N15  An2  v080
 BYTE   N15  En3
 BYTE   W01
 BYTE   BEND   c_v-57
 BYTE   W01
 BYTE   FnM1
 BYTE   W02
 BYTE   Dn1
 BYTE   W02
 BYTE   Gs2
 BYTE   W02
 BYTE   En3
 BYTE   W10
 BYTE   N04  Cs3
 BYTE   N04  Fn3
 BYTE   W06
 BYTE   N68  Dn3
 BYTE   N68  Fs3
 BYTE   W01
 BYTE   BEND   c_v-57
 BYTE   W01
 BYTE   FnM1
 BYTE   W02
 BYTE   Dn1
 BYTE   W02
 BYTE   Gs2
 BYTE   W02
 BYTE   En3
 BYTE   W01
 BYTE   Cs4
 BYTE   W02
 BYTE   Fs6
 BYTE   W01
 BYTE   Fs8
 BYTE   W03
 BYTE   Bn5
 BYTE   W01
 BYTE   Gn4
 BYTE   W01
 BYTE   En3
 BYTE   W32
 BYTE   W01
 BYTE   Fs2
 BYTE   W04
 BYTE   As1
 BYTE   W03
 BYTE   As0
 BYTE   W03
 BYTE   AnM1
 BYTE   W04
 BYTE   GnM2
 BYTE   W02
// 007   ----------------------------------------
 BYTE   W02
 BYTE   CsM2
 BYTE   W04
 BYTE   N10  Dn3  v028
 BYTE   N10  Fs3
 BYTE   W08
 BYTE   BEND   c_v+0
 BYTE   W48
 BYTE   W02
 BYTE   TEMPO   174*song30_tbs/2
 BYTE   W02
 BYTE   N11  Fs2  v127
 BYTE   W12
 BYTE   Bn2
 BYTE   W12
 BYTE   Cs3
 BYTE   W06
// 008   ----------------------------------------
Label_0_0116478F:
 BYTE   W06
 BYTE   N11  Dn3  v127
 BYTE   W12
 BYTE   Bn2
 BYTE   W12
 BYTE   BEND   c_v-59
 BYTE   N23
 BYTE   N23  Fs3
 BYTE   W03
 BYTE   BEND   c_v-47
 BYTE   W01
 BYTE   Ds0
 BYTE   W02
 BYTE   Gs0
 BYTE   W01
 BYTE   As1
 BYTE   W01
 BYTE   Gs2
 BYTE   W02
 BYTE   En3
 BYTE   W14
 BYTE   N11  Bn2
 BYTE   N11  En3
 BYTE   W12
 BYTE   N80  Fs2
 BYTE   N80  Dn3
 BYTE   W30
 BYTE   PEND 
// 009   ----------------------------------------
Label_0_011647B4:
 BYTE   W66
 BYTE   N11  Bn1  v127
 BYTE   N11  Fs2
 BYTE   W12
 BYTE   N11
 BYTE   N11  Bn2
 BYTE   W12
 BYTE   Fs2
 BYTE   N11  Cs3
 BYTE   W06
 BYTE   PEND 
// 010   ----------------------------------------
Label_0_011647C4:
 BYTE   W06
 BYTE   N11  Fs2  v127
 BYTE   N11  Dn3
 BYTE   W12
 BYTE   Dn2
 BYTE   N11  Bn2
 BYTE   W12
 BYTE   N23
 BYTE   N23  Fs3
 BYTE   W02
 BYTE   BEND   c_v-47
 BYTE   W01
 BYTE   Ds0
 BYTE   W02
 BYTE   Gs0
 BYTE   W01
 BYTE   As1
 BYTE   W02
 BYTE   Gs2
 BYTE   W01
 BYTE   En3
 BYTE   W15
 BYTE   N11  Bn2
 BYTE   N11  En3
 BYTE   W12
 BYTE   N92  Fs2
 BYTE   N92  Dn3
 BYTE   W30
 BYTE   PEND 
// 011   ----------------------------------------
Label_0_011647EB:
 BYTE   W90
 BYTE   N10  Fs2  v127
 BYTE   N10  Dn3
 BYTE   W02
 BYTE   BEND   c_v-47
 BYTE   W01
 BYTE   Ds0
 BYTE   W02
 BYTE   Gs0
 BYTE   W01
 BYTE   PEND 
// 012   ----------------------------------------
Label_0_011647FA:
 BYTE   BEND   c_v-18
 BYTE   W02
 BYTE   Gs2
 BYTE   W01
 BYTE   En3
 BYTE   W03
 BYTE   N10  Fs2  v127
 BYTE   N10  Dn3
 BYTE   W12
 BYTE   N56  En2
 BYTE   N56  Cs3
 BYTE   W72
 BYTE   N10  En2
 BYTE   N10  Cs3
 BYTE   W02
 BYTE   BEND   c_v-47
 BYTE   W01
 BYTE   Ds0
 BYTE   W02
 BYTE   Gs0
 BYTE   W01
 BYTE   PEND 
// 013   ----------------------------------------
Label_0_01164819:
 BYTE   BEND   c_v-18
 BYTE   W02
 BYTE   Gs2
 BYTE   W01
 BYTE   En3
 BYTE   W03
 BYTE   N10  En2  v127
 BYTE   N10  Cs3
 BYTE   W12
 BYTE   Fs2
 BYTE   N10  Dn3
 BYTE   W12
 BYTE   N22  An2
 BYTE   N22  En3
 BYTE   W02
 BYTE   BEND   c_v-47
 BYTE   W01
 BYTE   Ds0
 BYTE   W02
 BYTE   Gs0
 BYTE   W01
 BYTE   As1
 BYTE   W02
 BYTE   Gs2
 BYTE   W01
 BYTE   En3
 BYTE   W10
 BYTE   Gn0
 BYTE   W01
 BYTE   CsM1
 BYTE   W02
 BYTE   BnM2
 BYTE   W14
 BYTE   N22  En2
 BYTE   N22  Cs3
 BYTE   W02
 BYTE   BEND   c_v-47
 BYTE   W01
 BYTE   Ds0
 BYTE   W02
 BYTE   Gs0
 BYTE   W01
 BYTE   As1
 BYTE   W02
 BYTE   Gs2
 BYTE   W01
 BYTE   En3
 BYTE   W21
 BYTE   PEND 
// 014   ----------------------------------------
Label_0_01164855:
 BYTE   W06
 BYTE   N10  Cs2  v127
 BYTE   N10  An2
 BYTE   W24
 BYTE   N56  Dn2
 BYTE   N56  Gn2
 BYTE   W02
 BYTE   BEND   c_v-47
 BYTE   W01
 BYTE   Ds0
 BYTE   W02
 BYTE   Gs0
 BYTE   W01
 BYTE   As1
 BYTE   W02
 BYTE   Gs2
 BYTE   W01
 BYTE   En3
 BYTE   W48
 BYTE   W03
 BYTE   N10  Dn2
 BYTE   N10  An2
 BYTE   W06
 BYTE   PEND 
// 015   ----------------------------------------
Label_0_01164875:
 BYTE   W06
 BYTE   N10  Dn2  v127
 BYTE   N10  Gn2
 BYTE   W12
 BYTE   Cs2
 BYTE   N10  Fs2
 BYTE   W48
 BYTE   N11
 BYTE   W12
 BYTE   Bn2
 BYTE   W12
 BYTE   Cs3
 BYTE   W06
 BYTE   PEND 
 BYTE   PATT
  POIN2 Label_0_0116478F
 BYTE   PATT
  POIN2 Label_0_011647B4
 BYTE   PATT
  POIN2 Label_0_011647C4
 BYTE   PATT
  POIN2 Label_0_011647EB
 BYTE   PATT
  POIN2 Label_0_011647FA
// 016   ----------------------------------------
Label_0_011648A0:
 BYTE   BEND   c_v-18
 BYTE   W02
 BYTE   Gs2
 BYTE   W01
 BYTE   En3
 BYTE   W03
 BYTE   N10  En2  v127
 BYTE   N10  Cs3
 BYTE   W12
 BYTE   Fs2
 BYTE   N10  Dn3
 BYTE   W12
 BYTE   N22  An2
 BYTE   N22  En3
 BYTE   W02
 BYTE   BEND   c_v-47
 BYTE   W01
 BYTE   Ds0
 BYTE   W02
 BYTE   Gs0
 BYTE   W01
 BYTE   As1
 BYTE   W02
 BYTE   Gs2
 BYTE   W01
 BYTE   En3
 BYTE   W10
 BYTE   Gn0
 BYTE   W01
 BYTE   CsM1
 BYTE   W02
 BYTE   BnM2
 BYTE   W08
 BYTE   Ds0
 BYTE   W02
 BYTE   Gs0
 BYTE   W02
 BYTE   As1
 BYTE   W01
 BYTE   Gs2
 BYTE   W01
 BYTE   N22  An2
 BYTE   N22  Dn3
 BYTE   W01
 BYTE   BEND   c_v+0
 BYTE   W28
 BYTE   W01
 BYTE   PEND 
// 017   ----------------------------------------
Label_0_011648DB:
 BYTE   W06
 BYTE   N10  An2  v127
 BYTE   N10  Cs3
 BYTE   W24
 BYTE   N12  Fs2
 BYTE   N12  Cs3
 BYTE   W12
 BYTE   N84  Dn2
 BYTE   N84  Bn2
 BYTE   W54
 BYTE   PEND 
// 018   ----------------------------------------
 BYTE   W96
// 019   ----------------------------------------
Label_0_011648EE:
 BYTE   W28
 BYTE   W01
 BYTE   BEND   c_v-63
 BYTE   W01
 BYTE   BnM2
 BYTE   N44  Bn2  v080
 BYTE   N44  Gn3
 BYTE   W01
 BYTE   BEND   c_v-43
 BYTE   W02
 BYTE   As0
 BYTE   W03
 BYTE   Dn2
 BYTE   W02
 BYTE   Gs2
 BYTE   W01
 BYTE   Dn3
 BYTE   W01
 BYTE   En3
 BYTE   W48
 BYTE   W02
 BYTE   N11  Bn2
 BYTE   N11  Gn3
 BYTE   W06
 BYTE   PEND 
// 020   ----------------------------------------
Label_0_0116490E:
 BYTE   W06
 BYTE   N11  Bn2  v080
 BYTE   N11  Gn3
 BYTE   W12
 BYTE   BEND   c_v-53
 BYTE   N32  Gn2
 BYTE   N32  En3
 BYTE   W02
 BYTE   BEND   c_v-43
 BYTE   W02
 BYTE   As0
 BYTE   W02
 BYTE   Dn2
 BYTE   W02
 BYTE   Gs2
 BYTE   W01
 BYTE   Dn3
 BYTE   W02
 BYTE   En3
 BYTE   W36
 BYTE   W01
 BYTE   BnM2
 BYTE   N23  Bn2
 BYTE   N23  Gn3
 BYTE   W02
 BYTE   BEND   c_v-43
 BYTE   W02
 BYTE   As0
 BYTE   W02
 BYTE   Dn2
 BYTE   W02
 BYTE   Gs2
 BYTE   W01
 BYTE   Dn3
 BYTE   W02
 BYTE   En3
 BYTE   W19
 BYTE   PEND 
// 021   ----------------------------------------
Label_0_0116493E:
 BYTE   W06
 BYTE   BEND   c_v-53
 BYTE   N23  Bn2  v080
 BYTE   N23  Gn3
 BYTE   W02
 BYTE   BEND   c_v-43
 BYTE   W02
 BYTE   As0
 BYTE   W02
 BYTE   Dn2
 BYTE   W02
 BYTE   Gs2
 BYTE   W01
 BYTE   Dn3
 BYTE   W02
 BYTE   En3
 BYTE   W13
 BYTE   BnM2
 BYTE   N32  An2
 BYTE   N32  Fs3
 BYTE   W02
 BYTE   BEND   c_v-43
 BYTE   W02
 BYTE   As0
 BYTE   W02
 BYTE   Dn2
 BYTE   W02
 BYTE   Gs2
 BYTE   W01
 BYTE   Dn3
 BYTE   W02
 BYTE   En3
 BYTE   W24
 BYTE   W01
 BYTE   N32  Gn2
 BYTE   N32  En3
 BYTE   W30
 BYTE   PEND 
// 022   ----------------------------------------
Label_0_0116496E:
 BYTE   W06
 BYTE   N40  Fs2  v080
 BYTE   N40  Dn3
 BYTE   W72
 BYTE   N11  Bn2
 BYTE   N11  Fs3
 BYTE   W18
 BYTE   PEND 
// 023   ----------------------------------------
Label_0_0116497B:
 BYTE   W06
 BYTE   N23  Bn2  v080
 BYTE   N23  Fs3
 BYTE   W24
 BYTE   BEND   c_v-53
 BYTE   N44  Gn2
 BYTE   N44  En3
 BYTE   W02
 BYTE   BEND   c_v-43
 BYTE   W02
 BYTE   As0
 BYTE   W02
 BYTE   Dn2
 BYTE   W02
 BYTE   Gs2
 BYTE   W01
 BYTE   Dn3
 BYTE   W02
 BYTE   En3
 BYTE   W48
 BYTE   W01
 BYTE   N11  Gn2
 BYTE   N11  En3
 BYTE   W06
 BYTE   PEND 
// 024   ----------------------------------------
Label_0_0116499D:
 BYTE   W06
 BYTE   N11  Gn2  v080
 BYTE   N11  En3
 BYTE   W12
 BYTE   BEND   c_v-53
 BYTE   N32  As2
 BYTE   N32  Fs3
 BYTE   W02
 BYTE   BEND   c_v-43
 BYTE   W02
 BYTE   As0
 BYTE   W02
 BYTE   Dn2
 BYTE   W02
 BYTE   Gs2
 BYTE   W01
 BYTE   Dn3
 BYTE   W02
 BYTE   En3
 BYTE   W48
 BYTE   W01
 BYTE   N11  As2
 BYTE   N11  Fs3
 BYTE   W18
 BYTE   PEND 
// 025   ----------------------------------------
Label_0_011649BF:
 BYTE   W06
 BYTE   N23  As2  v080
 BYTE   N23  Fs3
 BYTE   W24
 BYTE   BEND   c_v-53
 BYTE   N23  Dn3
 BYTE   N23  Bn3
 BYTE   W02
 BYTE   BEND   c_v-43
 BYTE   W02
 BYTE   As0
 BYTE   W02
 BYTE   Dn2
 BYTE   W02
 BYTE   Gs2
 BYTE   W01
 BYTE   Dn3
 BYTE   W02
 BYTE   En3
 BYTE   W24
 BYTE   W01
 BYTE   N23  En3
 BYTE   N23  Cs4
 BYTE   W13
 BYTE   BEND   c_v-12
 BYTE   W06
 BYTE   Gs1
 BYTE   W04
 BYTE   Cn1
 BYTE   W03
 BYTE   Ds0
 BYTE   W03
 BYTE   GnM1
 BYTE   W01
 BYTE   PEND 
// 026   ----------------------------------------
Label_0_011649EC:
 BYTE   W06
 BYTE   BEND   c_v-53
 BYTE   N23  Fs3  v080
 BYTE   N23  Dn4
 BYTE   W01
 BYTE   BEND   c_v-53
 BYTE   W01
 BYTE   AnM1
 BYTE   W02
 BYTE   As0
 BYTE   W02
 BYTE   Dn2
 BYTE   W02
 BYTE   Gs2
 BYTE   W01
 BYTE   Dn3
 BYTE   W02
 BYTE   En3
 BYTE   W36
 BYTE   W01
 BYTE   N24  Dn3  v127
 BYTE   N24  Bn3
 BYTE   W02
 BYTE   BEND   c_v-63
 BYTE   W02
 BYTE   DsM1
 BYTE   W04
 BYTE   As0
 BYTE   W02
 BYTE   En2
 BYTE   W02
 BYTE   En3
 BYTE   W12
 BYTE   N24  Cs3
 BYTE   N24  An3
 BYTE   W18
 BYTE   PEND 
// 027   ----------------------------------------
Label_0_01164A1C:
 BYTE   W06
 BYTE   N24  An2  v127
 BYTE   N24  Fs3
 BYTE   W24
 BYTE   N48  Bn2
 BYTE   N48  Gn3
 BYTE   W60
 BYTE   N12  Bn2
 BYTE   N12  Gn3
 BYTE   W06
 BYTE   PEND 
// 028   ----------------------------------------
Label_0_01164A2E:
 BYTE   W06
 BYTE   N12  Fs3  v127
 BYTE   N12  Dn4
 BYTE   W01
 BYTE   BEND   c_v-49
 BYTE   W04
 BYTE   As0
 BYTE   W02
 BYTE   En2
 BYTE   W02
 BYTE   En3
 BYTE   W03
 BYTE   N36  En3
 BYTE   N36  Cs4
 BYTE   W36
 BYTE   N12  Fs3
 BYTE   N12  Dn4
 BYTE   W12
 BYTE   N24  Gn3
 BYTE   N24  En4
 BYTE   W24
 BYTE   Cs3
 BYTE   N24  An3
 BYTE   W06
 BYTE   PEND 
// 029   ----------------------------------------
Label_0_01164A52:
 BYTE   W18
 BYTE   N36  Cs4  v127
 BYTE   N36  Fs4
 BYTE   W01
 BYTE   BEND   c_v-49
 BYTE   W04
 BYTE   As0
 BYTE   W02
 BYTE   En2
 BYTE   W02
 BYTE   En3
 BYTE   W24
 BYTE   W03
 BYTE   N12  Cs4
 BYTE   N12  Gn4
 BYTE   W12
 BYTE   N24  Cs4
 BYTE   N24  Fs4
 BYTE   W24
 BYTE   Cs4
 BYTE   N24  En4
 BYTE   W06
 BYTE   PEND 
// 030   ----------------------------------------
Label_0_01164A72:
 BYTE   W18
 BYTE   N36  Bn3  v127
 BYTE   N36  Dn4
 BYTE   W48
 BYTE   N12  Bn3
 BYTE   N12  Dn4
 BYTE   W12
 BYTE   N17  An3
 BYTE   N17  Cs4
 BYTE   W18
 BYTE   PEND 
// 031   ----------------------------------------
Label_0_01164A84:
 BYTE   N18  En3  v127
 BYTE   N18  Bn3
 BYTE   W18
 BYTE   N12  Cs3
 BYTE   N12  An3
 BYTE   W12
 BYTE   N96  Dn3
 BYTE   N96  Bn3
 BYTE   W01
 BYTE   BEND   c_v-49
 BYTE   W04
 BYTE   As0
 BYTE   W02
 BYTE   En2
 BYTE   W02
 BYTE   En3
 BYTE   W56
 BYTE   W01
 BYTE   PEND 
// 032   ----------------------------------------
Label_0_01164A9F:
 BYTE   W54
 BYTE   N24  Dn3  v127
 BYTE   N24  Bn3
 BYTE   W01
 BYTE   BEND   c_v-49
 BYTE   W04
 BYTE   As0
 BYTE   W02
 BYTE   En2
 BYTE   W02
 BYTE   En3
 BYTE   W15
 BYTE   N17  Dn3
 BYTE   N17  Bn3
 BYTE   W18
 BYTE   PEND 
// 033   ----------------------------------------
Label_0_01164AB5:
 BYTE   N18  Bn3  v127
 BYTE   N17  Fs4
 BYTE   W01
 BYTE   BEND   c_v-49
 BYTE   W04
 BYTE   As0
 BYTE   W02
 BYTE   En2
 BYTE   W02
 BYTE   En3
 BYTE   W04
 BYTE   Dn2
 BYTE   W03
 BYTE   As0
 BYTE   W01
 BYTE   BnM1
 BYTE   W01
 BYTE   N12  Gn3
 BYTE   N12  Dn4
 BYTE   W01
 BYTE   BEND   c_v-49
 BYTE   W04
 BYTE   As0
 BYTE   W02
 BYTE   En2
 BYTE   W02
 BYTE   En3
 BYTE   W03
 BYTE   N48  An3
 BYTE   N48  En4
 BYTE   W60
 BYTE   N12  Gn3
 BYTE   N12  En4
 BYTE   W01
 BYTE   BEND   c_v-49
 BYTE   W04
 BYTE   As0
 BYTE   W01
 BYTE   PEND 
// 034   ----------------------------------------
 BYTE   W01
 BYTE   En2
 BYTE   W02
 BYTE   En3
 BYTE   W03
 BYTE   N12  Fs3
 BYTE   N12  Dn4
 BYTE   W12
 BYTE   En3
 BYTE   N12  Cs4
 BYTE   W78
// 035   ----------------------------------------
 BYTE   W96
// 036   ----------------------------------------
 BYTE   W96
// 037   ----------------------------------------
 BYTE   W96
// 038   ----------------------------------------
 BYTE   W96
// 039   ----------------------------------------
 BYTE   W96
// 040   ----------------------------------------
 BYTE   W96
// 041   ----------------------------------------
 BYTE   W96
// 042   ----------------------------------------
 BYTE   W96
// 043   ----------------------------------------
 BYTE   W96
// 044   ----------------------------------------
 BYTE   W96
// 045   ----------------------------------------
 BYTE   W96
// 046   ----------------------------------------
 BYTE   W96
// 047   ----------------------------------------
 BYTE   W96
// 048   ----------------------------------------
 BYTE   W96
// 049   ----------------------------------------
 BYTE   W96
// 050   ----------------------------------------
 BYTE   W66
 BYTE   N11  Fs2
 BYTE   W12
 BYTE   Bn2
 BYTE   W12
 BYTE   Cs3
 BYTE   W06
 BYTE   PATT
  POIN2 Label_0_0116478F
 BYTE   PATT
  POIN2 Label_0_011647B4
 BYTE   PATT
  POIN2 Label_0_011647C4
 BYTE   PATT
  POIN2 Label_0_011647EB
 BYTE   PATT
  POIN2 Label_0_011647FA
 BYTE   PATT
  POIN2 Label_0_01164819
 BYTE   PATT
  POIN2 Label_0_01164855
 BYTE   PATT
  POIN2 Label_0_01164875
 BYTE   PATT
  POIN2 Label_0_0116478F
 BYTE   PATT
  POIN2 Label_0_011647B4
 BYTE   PATT
  POIN2 Label_0_011647C4
 BYTE   PATT
  POIN2 Label_0_011647EB
 BYTE   PATT
  POIN2 Label_0_011647FA
 BYTE   PATT
  POIN2 Label_0_011648A0
 BYTE   PATT
  POIN2 Label_0_011648DB
// 051   ----------------------------------------
 BYTE   W96
 BYTE   PATT
  POIN2 Label_0_011648EE
 BYTE   PATT
  POIN2 Label_0_0116490E
 BYTE   PATT
  POIN2 Label_0_0116493E
 BYTE   PATT
  POIN2 Label_0_0116496E
 BYTE   PATT
  POIN2 Label_0_0116497B
 BYTE   PATT
  POIN2 Label_0_0116499D
 BYTE   PATT
  POIN2 Label_0_011649BF
 BYTE   PATT
  POIN2 Label_0_011649EC
 BYTE   PATT
  POIN2 Label_0_01164A1C
 BYTE   PATT
  POIN2 Label_0_01164A2E
 BYTE   PATT
  POIN2 Label_0_01164A52
 BYTE   PATT
  POIN2 Label_0_01164A72
 BYTE   PATT
  POIN2 Label_0_01164A84
 BYTE   PATT
  POIN2 Label_0_01164A9F
 BYTE   PATT
  POIN2 Label_0_01164AB5
// 052   ----------------------------------------
 BYTE   W01
 BYTE   BEND   c_v-12
 BYTE   W02
 BYTE   En3
 BYTE   W03
 BYTE   N12  Fs3  v127
 BYTE   N12  Dn4
 BYTE   W12
 BYTE   En3
 BYTE   N12  Cs4
 BYTE   W12
 BYTE   FINE

//**************** Track 2 (Midi-Chn.1) ****************//

song30_002:
// 000   ----------------------------------------
 BYTE   KEYSH   song30_key+0
 BYTE   VOICE   28
 BYTE   VOL   37*song30_mvl/mxv
 BYTE   PAN   c_v+0
 BYTE   W30
 BYTE   N96  Gn1  v127
 BYTE   W66
// 001   ----------------------------------------
 BYTE   W30
 BYTE   An1
 BYTE   W66
// 002   ----------------------------------------
 BYTE   W30
 BYTE   Bn1
 BYTE   W66
// 003   ----------------------------------------
 BYTE   W30
 BYTE   N48
 BYTE   W48
 BYTE   An1
 BYTE   W18
// 004   ----------------------------------------
 BYTE   W30
 BYTE   N96  Gn1
 BYTE   W66
// 005   ----------------------------------------
 BYTE   W30
 BYTE   An1
 BYTE   W66
// 006   ----------------------------------------
 BYTE   W30
 BYTE   Dn1
 BYTE   W66
// 007   ----------------------------------------
 BYTE   W96
// 008   ----------------------------------------
Label_1_01164BDB:
 BYTE   W30
 BYTE   N11  Bn1  v127
 BYTE   W12
 BYTE   N11
 BYTE   W12
 BYTE   N11
 BYTE   W12
 BYTE   N11
 BYTE   W12
 BYTE   N11
 BYTE   W12
 BYTE   N11
 BYTE   W06
 BYTE   PEND 
// 009   ----------------------------------------
Label_1_01164BEB:
 BYTE   W06
 BYTE   N11  Bn1  v127
 BYTE   W12
 BYTE   N11
 BYTE   W12
 BYTE   N11
 BYTE   W12
 BYTE   N11
 BYTE   W12
 BYTE   N11
 BYTE   W12
 BYTE   N11
 BYTE   W12
 BYTE   N11
 BYTE   W12
 BYTE   Fs1
 BYTE   W06
 BYTE   PEND 
// 010   ----------------------------------------
Label_1_01164BFF:
 BYTE   W06
 BYTE   N11  Bn1  v127
 BYTE   W12
 BYTE   An1
 BYTE   W12
 BYTE   Gn1
 BYTE   W12
 BYTE   N11
 BYTE   W12
 BYTE   N11
 BYTE   W12
 BYTE   N11
 BYTE   W12
 BYTE   N11
 BYTE   W12
 BYTE   N11
 BYTE   W06
 BYTE   PEND 
// 011   ----------------------------------------
Label_1_01164C13:
 BYTE   W06
 BYTE   N11  Gn1  v127
 BYTE   W12
 BYTE   N11
 BYTE   W12
 BYTE   N11
 BYTE   W12
 BYTE   N11
 BYTE   W12
 BYTE   N11
 BYTE   W12
 BYTE   N11
 BYTE   W12
 BYTE   N11
 BYTE   W12
 BYTE   Dn1
 BYTE   W06
 BYTE   PEND 
// 012   ----------------------------------------
Label_1_01164C27:
 BYTE   W06
 BYTE   N11  Gn1  v127
 BYTE   W12
 BYTE   Gs1
 BYTE   W12
 BYTE   An1
 BYTE   W12
 BYTE   N11
 BYTE   W12
 BYTE   N11
 BYTE   W12
 BYTE   N11
 BYTE   W12
 BYTE   N11
 BYTE   W12
 BYTE   N11
 BYTE   W06
 BYTE   PEND 
// 013   ----------------------------------------
Label_1_01164C3B:
 BYTE   W06
 BYTE   N11  An1  v127
 BYTE   W12
 BYTE   N11
 BYTE   W12
 BYTE   N11
 BYTE   W12
 BYTE   N11
 BYTE   W12
 BYTE   N11
 BYTE   W12
 BYTE   N11
 BYTE   W12
 BYTE   N11
 BYTE   W12
 BYTE   En1
 BYTE   W06
 BYTE   PEND 
// 014   ----------------------------------------
Label_1_01164C4F:
 BYTE   W06
 BYTE   N11  An1  v127
 BYTE   W12
 BYTE   Cs2
 BYTE   W12
 BYTE   Dn2
 BYTE   W12
 BYTE   N11
 BYTE   W12
 BYTE   N11
 BYTE   W12
 BYTE   N11
 BYTE   W12
 BYTE   N11
 BYTE   W12
 BYTE   N11
 BYTE   W06
 BYTE   PEND 
// 015   ----------------------------------------
Label_1_01164C63:
 BYTE   W06
 BYTE   N11  Dn1  v127
 BYTE   W12
 BYTE   En1
 BYTE   W12
 BYTE   Fs1
 BYTE   W66
 BYTE   PEND 
 BYTE   PATT
  POIN2 Label_1_01164BDB
// 016   ----------------------------------------
Label_1_01164C72:
 BYTE   W06
 BYTE   N11  Bn1  v127
 BYTE   W12
 BYTE   N11
 BYTE   W12
 BYTE   N11
 BYTE   W12
 BYTE   N11
 BYTE   W12
 BYTE   N11
 BYTE   W12
 BYTE   N11
 BYTE   W12
 BYTE   N11
 BYTE   W12
 BYTE   N11
 BYTE   W06
 BYTE   PEND 
// 017   ----------------------------------------
Label_1_01164C86:
 BYTE   W06
 BYTE   N11  Bn1  v127
 BYTE   W12
 BYTE   N11
 BYTE   W12
 BYTE   Gn1
 BYTE   W12
 BYTE   N11
 BYTE   W12
 BYTE   N11
 BYTE   W12
 BYTE   N11
 BYTE   W12
 BYTE   N11
 BYTE   W12
 BYTE   N11
 BYTE   W06
 BYTE   PEND 
// 018   ----------------------------------------
Label_1_01164C9A:
 BYTE   W06
 BYTE   N11  Gn1  v127
 BYTE   W12
 BYTE   N11
 BYTE   W12
 BYTE   N11
 BYTE   W12
 BYTE   N11
 BYTE   W12
 BYTE   N11
 BYTE   W12
 BYTE   N11
 BYTE   W12
 BYTE   N11
 BYTE   W12
 BYTE   N11
 BYTE   W06
 BYTE   PEND 
// 019   ----------------------------------------
Label_1_01164CAE:
 BYTE   W06
 BYTE   N11  Gn1  v127
 BYTE   W12
 BYTE   N11
 BYTE   W12
 BYTE   En1
 BYTE   W12
 BYTE   N11
 BYTE   W12
 BYTE   N11
 BYTE   W12
 BYTE   N11
 BYTE   W12
 BYTE   N11
 BYTE   W12
 BYTE   N11
 BYTE   W06
 BYTE   PEND 
// 020   ----------------------------------------
Label_1_01164CC2:
 BYTE   W06
 BYTE   N11  En1  v127
 BYTE   W12
 BYTE   N11
 BYTE   W12
 BYTE   Fs1
 BYTE   W12
 BYTE   N11
 BYTE   W12
 BYTE   N11
 BYTE   W12
 BYTE   N11
 BYTE   W12
 BYTE   N11
 BYTE   W12
 BYTE   N11
 BYTE   W06
 BYTE   PEND 
// 021   ----------------------------------------
Label_1_01164CD6:
 BYTE   W06
 BYTE   N11  Fs1  v127
 BYTE   W12
 BYTE   N11
 BYTE   W12
 BYTE   Bn1
 BYTE   W12
 BYTE   N11
 BYTE   W12
 BYTE   N11
 BYTE   W12
 BYTE   N11
 BYTE   W12
 BYTE   N11
 BYTE   W12
 BYTE   Fs1
 BYTE   W06
 BYTE   PEND 
// 022   ----------------------------------------
Label_1_01164CEA:
 BYTE   W06
 BYTE   N11  An1  v127
 BYTE   W12
 BYTE   Bn1
 BYTE   W78
 BYTE   PEND 
// 023   ----------------------------------------
Label_1_01164CF2:
 BYTE   W30
 BYTE   N28  En1  v127
 BYTE   W36
 BYTE   N11
 BYTE   W12
 BYTE   N36
 BYTE   W18
 BYTE   PEND 
// 024   ----------------------------------------
Label_1_01164CFC:
 BYTE   W30
 BYTE   N28  An1  v127
 BYTE   W36
 BYTE   N11
 BYTE   W12
 BYTE   N36
 BYTE   W18
 BYTE   PEND 
// 025   ----------------------------------------
Label_1_01164D06:
 BYTE   W30
 BYTE   N28  Dn1  v127
 BYTE   W36
 BYTE   N11
 BYTE   W12
 BYTE   N36
 BYTE   W18
 BYTE   PEND 
// 026   ----------------------------------------
Label_1_01164D10:
 BYTE   W30
 BYTE   N28  Gn1  v127
 BYTE   W36
 BYTE   N11
 BYTE   W12
 BYTE   N36
 BYTE   W18
 BYTE   PEND 
// 027   ----------------------------------------
Label_1_01164D1A:
 BYTE   W30
 BYTE   N28  Cs1  v127
 BYTE   W36
 BYTE   N11
 BYTE   W12
 BYTE   N36
 BYTE   W18
 BYTE   PEND 
// 028   ----------------------------------------
Label_1_01164D24:
 BYTE   W30
 BYTE   N28  Fs1  v127
 BYTE   W36
 BYTE   N11
 BYTE   W12
 BYTE   N36
 BYTE   W18
 BYTE   PEND 
// 029   ----------------------------------------
Label_1_01164D2E:
 BYTE   W30
 BYTE   N12  Bn0  v127
 BYTE   W12
 BYTE   N11  Bn1
 BYTE   W12
 BYTE   N11
 BYTE   W12
 BYTE   N12  Cs1
 BYTE   W12
 BYTE   N11  Cs2
 BYTE   W12
 BYTE   N11
 BYTE   W06
 BYTE   PEND 
// 030   ----------------------------------------
Label_1_01164D41:
 BYTE   W06
 BYTE   N12  Dn1  v127
 BYTE   W12
 BYTE   N11  Dn2
 BYTE   W12
 BYTE   N12  Dn1
 BYTE   W12
 BYTE   N11  Dn2
 BYTE   W12
 BYTE   Ds1
 BYTE   W12
 BYTE   N11
 BYTE   W12
 BYTE   N11
 BYTE   W12
 BYTE   N11
 BYTE   W06
 BYTE   PEND 
// 031   ----------------------------------------
Label_1_01164D58:
 BYTE   W06
 BYTE   N11  Ds1  v127
 BYTE   W12
 BYTE   N11
 BYTE   W12
 BYTE   En1
 BYTE   W12
 BYTE   N11
 BYTE   W12
 BYTE   N11
 BYTE   W12
 BYTE   N11
 BYTE   W12
 BYTE   N11
 BYTE   W12
 BYTE   N11
 BYTE   W06
 BYTE   PEND 
// 032   ----------------------------------------
Label_1_01164D6C:
 BYTE   W06
 BYTE   N11  En1  v127
 BYTE   W12
 BYTE   N11
 BYTE   W12
 BYTE   An1
 BYTE   W12
 BYTE   N11
 BYTE   W12
 BYTE   N11
 BYTE   W12
 BYTE   N11
 BYTE   W12
 BYTE   N11
 BYTE   W12
 BYTE   N11
 BYTE   W06
 BYTE   PEND 
// 033   ----------------------------------------
Label_1_01164D80:
 BYTE   W06
 BYTE   N11  An1  v127
 BYTE   W12
 BYTE   N11
 BYTE   W12
 BYTE   As1
 BYTE   W12
 BYTE   N11
 BYTE   W12
 BYTE   N11
 BYTE   W12
 BYTE   N11
 BYTE   W12
 BYTE   N11
 BYTE   W12
 BYTE   N11
 BYTE   W06
 BYTE   PEND 
// 034   ----------------------------------------
Label_1_01164D94:
 BYTE   W06
 BYTE   N11  As1  v127
 BYTE   W12
 BYTE   N11
 BYTE   W12
 BYTE   Bn1
 BYTE   W12
 BYTE   N11
 BYTE   W12
 BYTE   N11
 BYTE   W12
 BYTE   N11
 BYTE   W12
 BYTE   An1
 BYTE   W12
 BYTE   N11
 BYTE   W06
 BYTE   PEND 
// 035   ----------------------------------------
Label_1_01164DA8:
 BYTE   W06
 BYTE   N11  An1  v127
 BYTE   W12
 BYTE   N11
 BYTE   W12
 BYTE   Gn1
 BYTE   W12
 BYTE   N11
 BYTE   W12
 BYTE   N11
 BYTE   W12
 BYTE   N11
 BYTE   W12
 BYTE   N11
 BYTE   W12
 BYTE   N11
 BYTE   W06
 BYTE   PEND 
 BYTE   PATT
  POIN2 Label_1_01164C9A
// 036   ----------------------------------------
Label_1_01164DC1:
 BYTE   W06
 BYTE   N11  Gn1  v127
 BYTE   W12
 BYTE   N11
 BYTE   W12
 BYTE   An1
 BYTE   W12
 BYTE   N11
 BYTE   W12
 BYTE   N11
 BYTE   W12
 BYTE   N11
 BYTE   W12
 BYTE   N11
 BYTE   W12
 BYTE   En1
 BYTE   W06
 BYTE   PEND 
// 037   ----------------------------------------
Label_1_01164DD5:
 BYTE   W06
 BYTE   N11  Gn1  v127
 BYTE   W12
 BYTE   An1
 BYTE   W78
 BYTE   PEND 
// 038   ----------------------------------------
Label_1_01164DDD:
 BYTE   W05
 BYTE   BEND   c_v-64
 BYTE   W01
 BYTE   N24  Fs1  v127
 BYTE   W01
 BYTE   BEND   c_v-57
 BYTE   W02
 BYTE   Fn0
 BYTE   W01
 BYTE   Fs1
 BYTE   W02
 BYTE   Dn3
 BYTE   W01
 BYTE   An3
 BYTE   W01
 BYTE   Cn6
 BYTE   W01
 BYTE   Dn7
 BYTE   W03
 BYTE   Fs8
 BYTE   W02
 BYTE   Bn4
 BYTE   W02
 BYTE   Ds4
 BYTE   W01
 BYTE   Cn3
 BYTE   W01
 BYTE   En2
 BYTE   W01
 BYTE   En1
 BYTE   W01
 BYTE   Gn0
 BYTE   W01
 BYTE   AnM2
 BYTE   W01
 BYTE   FnM2
 BYTE   W02
 BYTE   En3
 BYTE   N11  As1
 BYTE   W12
 BYTE   N11
 BYTE   W12
 BYTE   N11
 BYTE   W12
 BYTE   N11
 BYTE   W12
 BYTE   N11
 BYTE   W12
 BYTE   N11
 BYTE   W06
 BYTE   PEND 
// 039   ----------------------------------------
Label_1_01164E15:
 BYTE   W06
 BYTE   N11  As1  v127
 BYTE   W12
 BYTE   N11
 BYTE   W12
 BYTE   Cn2
 BYTE   W12
 BYTE   N11
 BYTE   W12
 BYTE   N11
 BYTE   W12
 BYTE   N11
 BYTE   W12
 BYTE   N11
 BYTE   W12
 BYTE   N11
 BYTE   W06
 BYTE   PEND 
// 040   ----------------------------------------
Label_1_01164E29:
 BYTE   W06
 BYTE   N11  Cn2  v127
 BYTE   W12
 BYTE   N11
 BYTE   W12
 BYTE   Dn2
 BYTE   W12
 BYTE   N11
 BYTE   W12
 BYTE   N11
 BYTE   W12
 BYTE   N11
 BYTE   W12
 BYTE   N11
 BYTE   W12
 BYTE   N11
 BYTE   W06
 BYTE   PEND 
// 041   ----------------------------------------
Label_1_01164E3D:
 BYTE   W06
 BYTE   N11  Dn2  v127
 BYTE   W12
 BYTE   N11
 BYTE   W12
 BYTE   Cn2
 BYTE   W12
 BYTE   N11
 BYTE   W12
 BYTE   N11
 BYTE   W12
 BYTE   N11
 BYTE   W12
 BYTE   N11
 BYTE   W12
 BYTE   N11
 BYTE   W06
 BYTE   PEND 
// 042   ----------------------------------------
Label_1_01164E51:
 BYTE   W06
 BYTE   N11  Cn2  v127
 BYTE   W12
 BYTE   N11
 BYTE   W12
 BYTE   As1
 BYTE   W12
 BYTE   N11
 BYTE   W12
 BYTE   N11
 BYTE   W12
 BYTE   N11
 BYTE   W12
 BYTE   N11
 BYTE   W12
 BYTE   N11
 BYTE   W06
 BYTE   PEND 
 BYTE   PATT
  POIN2 Label_1_01164E15
// 043   ----------------------------------------
Label_1_01164E6A:
 BYTE   W06
 BYTE   N11  Cn2  v127
 BYTE   W12
 BYTE   N11
 BYTE   W12
 BYTE   Fn1
 BYTE   W12
 BYTE   N11
 BYTE   W12
 BYTE   N11
 BYTE   W12
 BYTE   N11
 BYTE   W12
 BYTE   N11
 BYTE   W12
 BYTE   N11
 BYTE   W06
 BYTE   PEND 
// 044   ----------------------------------------
Label_1_01164E7E:
 BYTE   W06
 BYTE   N11  Fn1  v127
 BYTE   W12
 BYTE   N11
 BYTE   W12
 BYTE   An1
 BYTE   W12
 BYTE   N11
 BYTE   W12
 BYTE   N11
 BYTE   W12
 BYTE   N11
 BYTE   W12
 BYTE   N11
 BYTE   W12
 BYTE   N11
 BYTE   W06
 BYTE   PEND 
 BYTE   PATT
  POIN2 Label_1_01164D80
// 045   ----------------------------------------
Label_1_01164E97:
 BYTE   W06
 BYTE   N11  As1  v127
 BYTE   W12
 BYTE   N11
 BYTE   W12
 BYTE   N12  Cn2
 BYTE   W12
 BYTE   N12
 BYTE   W12
 BYTE   N12
 BYTE   W12
 BYTE   N12
 BYTE   W12
 BYTE   N12
 BYTE   W12
 BYTE   N12
 BYTE   W06
 BYTE   PEND 
// 046   ----------------------------------------
Label_1_01164EAC:
 BYTE   W06
 BYTE   N12  Cn2  v127
 BYTE   W12
 BYTE   N12
 BYTE   W12
 BYTE   Cs2
 BYTE   W12
 BYTE   N12
 BYTE   W12
 BYTE   N12
 BYTE   W12
 BYTE   N12
 BYTE   W12
 BYTE   N12
 BYTE   W12
 BYTE   N12
 BYTE   W06
 BYTE   PEND 
// 047   ----------------------------------------
Label_1_01164EC0:
 BYTE   W06
 BYTE   N12  Cs2  v127
 BYTE   W12
 BYTE   N12
 BYTE   W12
 BYTE   N11  Dn2
 BYTE   W12
 BYTE   N11
 BYTE   W12
 BYTE   N11
 BYTE   W12
 BYTE   N11
 BYTE   W12
 BYTE   Cn2
 BYTE   W12
 BYTE   N11
 BYTE   W06
 BYTE   PEND 
 BYTE   PATT
  POIN2 Label_1_01164E51
 BYTE   PATT
  POIN2 Label_1_01164E15
// 048   ----------------------------------------
Label_1_01164EDF:
 BYTE   W06
 BYTE   N11  Cn2  v127
 BYTE   W12
 BYTE   N11
 BYTE   W12
 BYTE   Ds1
 BYTE   W12
 BYTE   N11
 BYTE   W12
 BYTE   N11
 BYTE   W12
 BYTE   N11
 BYTE   W12
 BYTE   N11
 BYTE   W12
 BYTE   N11
 BYTE   W06
 BYTE   PEND 
// 049   ----------------------------------------
 BYTE   W06
 BYTE   N11
 BYTE   W12
 BYTE   N11
 BYTE   W12
 BYTE   N11
 BYTE   W66
 BYTE   PATT
  POIN2 Label_1_01164BDB
 BYTE   PATT
  POIN2 Label_1_01164BEB
 BYTE   PATT
  POIN2 Label_1_01164BFF
 BYTE   PATT
  POIN2 Label_1_01164C13
 BYTE   PATT
  POIN2 Label_1_01164C27
 BYTE   PATT
  POIN2 Label_1_01164C3B
 BYTE   PATT
  POIN2 Label_1_01164C4F
 BYTE   PATT
  POIN2 Label_1_01164C63
 BYTE   PATT
  POIN2 Label_1_01164BDB
 BYTE   PATT
  POIN2 Label_1_01164C72
 BYTE   PATT
  POIN2 Label_1_01164C86
 BYTE   PATT
  POIN2 Label_1_01164C9A
 BYTE   PATT
  POIN2 Label_1_01164CAE
 BYTE   PATT
  POIN2 Label_1_01164CC2
 BYTE   PATT
  POIN2 Label_1_01164CD6
 BYTE   PATT
  POIN2 Label_1_01164CEA
 BYTE   PATT
  POIN2 Label_1_01164CF2
 BYTE   PATT
  POIN2 Label_1_01164CFC
 BYTE   PATT
  POIN2 Label_1_01164D06
 BYTE   PATT
  POIN2 Label_1_01164D10
 BYTE   PATT
  POIN2 Label_1_01164D1A
 BYTE   PATT
  POIN2 Label_1_01164D24
 BYTE   PATT
  POIN2 Label_1_01164D2E
 BYTE   PATT
  POIN2 Label_1_01164D41
 BYTE   PATT
  POIN2 Label_1_01164D58
 BYTE   PATT
  POIN2 Label_1_01164D6C
 BYTE   PATT
  POIN2 Label_1_01164D80
 BYTE   PATT
  POIN2 Label_1_01164D94
 BYTE   PATT
  POIN2 Label_1_01164DA8
 BYTE   PATT
  POIN2 Label_1_01164C9A
 BYTE   PATT
  POIN2 Label_1_01164DC1
 BYTE   PATT
  POIN2 Label_1_01164DD5
 BYTE   PATT
  POIN2 Label_1_01164DDD
 BYTE   PATT
  POIN2 Label_1_01164E15
 BYTE   PATT
  POIN2 Label_1_01164E29
 BYTE   PATT
  POIN2 Label_1_01164E3D
 BYTE   PATT
  POIN2 Label_1_01164E51
 BYTE   PATT
  POIN2 Label_1_01164E15
 BYTE   PATT
  POIN2 Label_1_01164E6A
 BYTE   PATT
  POIN2 Label_1_01164E7E
 BYTE   PATT
  POIN2 Label_1_01164D80
 BYTE   PATT
  POIN2 Label_1_01164E97
 BYTE   PATT
  POIN2 Label_1_01164EAC
 BYTE   PATT
  POIN2 Label_1_01164EC0
 BYTE   PATT
  POIN2 Label_1_01164E51
 BYTE   PATT
  POIN2 Label_1_01164E15
 BYTE   PATT
  POIN2 Label_1_01164EDF
// 050   ----------------------------------------
 BYTE   W06
 BYTE   N11  Ds1  v127
 BYTE   W12
 BYTE   N11
 BYTE   W12
 BYTE   N11
 BYTE   W11
 BYTE   FINE

//**************** Track 3 (Midi-Chn.2) ****************//

song30_003:
// 000   ----------------------------------------
 BYTE   KEYSH   song30_key+0
 BYTE   VOICE   35
 BYTE   VOL   31*song30_mvl/mxv
 BYTE   PAN   c_v+0
 BYTE   W30
 BYTE   N96  Gn1  v127
 BYTE   W66
// 001   ----------------------------------------
 BYTE   W30
 BYTE   An1
 BYTE   W66
// 002   ----------------------------------------
 BYTE   W30
 BYTE   Bn1
 BYTE   W66
// 003   ----------------------------------------
 BYTE   W30
 BYTE   N48
 BYTE   W48
 BYTE   An1
 BYTE   W18
// 004   ----------------------------------------
 BYTE   W30
 BYTE   N96  Gn1
 BYTE   W66
// 005   ----------------------------------------
 BYTE   W30
 BYTE   An1
 BYTE   W66
// 006   ----------------------------------------
 BYTE   W30
 BYTE   Dn1
 BYTE   W66
// 007   ----------------------------------------
 BYTE   W96
// 008   ----------------------------------------
Label_2_01165013:
 BYTE   W30
 BYTE   N11  Bn1  v127
 BYTE   W12
 BYTE   N11
 BYTE   W12
 BYTE   N11
 BYTE   W12
 BYTE   N11
 BYTE   W12
 BYTE   N11
 BYTE   W12
 BYTE   N11
 BYTE   W06
 BYTE   PEND 
// 009   ----------------------------------------
Label_2_01165023:
 BYTE   W06
 BYTE   N11  Bn1  v127
 BYTE   W12
 BYTE   N11
 BYTE   W12
 BYTE   N11
 BYTE   W12
 BYTE   N11
 BYTE   W12
 BYTE   N11
 BYTE   W12
 BYTE   N11
 BYTE   W12
 BYTE   N11
 BYTE   W12
 BYTE   Fs1
 BYTE   W06
 BYTE   PEND 
// 010   ----------------------------------------
Label_2_01165037:
 BYTE   W06
 BYTE   N11  Bn1  v127
 BYTE   W12
 BYTE   An1
 BYTE   W12
 BYTE   Gn1
 BYTE   W12
 BYTE   N11
 BYTE   W12
 BYTE   N11
 BYTE   W12
 BYTE   N11
 BYTE   W12
 BYTE   N11
 BYTE   W12
 BYTE   N11
 BYTE   W06
 BYTE   PEND 
// 011   ----------------------------------------
Label_2_0116504B:
 BYTE   W06
 BYTE   N11  Gn1  v127
 BYTE   W12
 BYTE   N11
 BYTE   W12
 BYTE   N11
 BYTE   W12
 BYTE   N11
 BYTE   W12
 BYTE   N11
 BYTE   W12
 BYTE   N11
 BYTE   W12
 BYTE   N11
 BYTE   W12
 BYTE   Dn1
 BYTE   W06
 BYTE   PEND 
// 012   ----------------------------------------
Label_2_0116505F:
 BYTE   W06
 BYTE   N11  Gn1  v127
 BYTE   W12
 BYTE   Gs1
 BYTE   W12
 BYTE   An1
 BYTE   W12
 BYTE   N11
 BYTE   W12
 BYTE   N11
 BYTE   W12
 BYTE   N11
 BYTE   W12
 BYTE   N11
 BYTE   W12
 BYTE   N11
 BYTE   W06
 BYTE   PEND 
// 013   ----------------------------------------
Label_2_01165073:
 BYTE   W06
 BYTE   N11  An1  v127
 BYTE   W12
 BYTE   N11
 BYTE   W12
 BYTE   N11
 BYTE   W12
 BYTE   N11
 BYTE   W12
 BYTE   N11
 BYTE   W12
 BYTE   N11
 BYTE   W12
 BYTE   N11
 BYTE   W12
 BYTE   En1
 BYTE   W06
 BYTE   PEND 
// 014   ----------------------------------------
Label_2_01165087:
 BYTE   W06
 BYTE   N11  An1  v127
 BYTE   W12
 BYTE   Cs2
 BYTE   W12
 BYTE   Dn2
 BYTE   W12
 BYTE   N11
 BYTE   W12
 BYTE   N11
 BYTE   W12
 BYTE   N11
 BYTE   W12
 BYTE   N11
 BYTE   W12
 BYTE   N11
 BYTE   W06
 BYTE   PEND 
// 015   ----------------------------------------
Label_2_0116509B:
 BYTE   W06
 BYTE   N11  Dn1  v127
 BYTE   W12
 BYTE   En1
 BYTE   W12
 BYTE   Fs1
 BYTE   W66
 BYTE   PEND 
 BYTE   PATT
  POIN2 Label_2_01165013
// 016   ----------------------------------------
Label_2_011650AA:
 BYTE   W06
 BYTE   N11  Bn1  v127
 BYTE   W12
 BYTE   N11
 BYTE   W12
 BYTE   N11
 BYTE   W12
 BYTE   N11
 BYTE   W12
 BYTE   N11
 BYTE   W12
 BYTE   N11
 BYTE   W12
 BYTE   N11
 BYTE   W12
 BYTE   N11
 BYTE   W06
 BYTE   PEND 
// 017   ----------------------------------------
Label_2_011650BE:
 BYTE   W06
 BYTE   N11  Bn1  v127
 BYTE   W12
 BYTE   N11
 BYTE   W12
 BYTE   Gn1
 BYTE   W12
 BYTE   N11
 BYTE   W12
 BYTE   N11
 BYTE   W12
 BYTE   N11
 BYTE   W12
 BYTE   N11
 BYTE   W12
 BYTE   N11
 BYTE   W06
 BYTE   PEND 
// 018   ----------------------------------------
Label_2_011650D2:
 BYTE   W06
 BYTE   N11  Gn1  v127
 BYTE   W12
 BYTE   N11
 BYTE   W12
 BYTE   N11
 BYTE   W12
 BYTE   N11
 BYTE   W12
 BYTE   N11
 BYTE   W12
 BYTE   N11
 BYTE   W12
 BYTE   N11
 BYTE   W12
 BYTE   N11
 BYTE   W06
 BYTE   PEND 
// 019   ----------------------------------------
Label_2_011650E6:
 BYTE   W06
 BYTE   N11  Gn1  v127
 BYTE   W12
 BYTE   N11
 BYTE   W12
 BYTE   En1
 BYTE   W12
 BYTE   N11
 BYTE   W12
 BYTE   N11
 BYTE   W12
 BYTE   N11
 BYTE   W12
 BYTE   N11
 BYTE   W12
 BYTE   N11
 BYTE   W06
 BYTE   PEND 
// 020   ----------------------------------------
Label_2_011650FA:
 BYTE   W06
 BYTE   N11  En1  v127
 BYTE   W12
 BYTE   N11
 BYTE   W12
 BYTE   Fs1
 BYTE   W12
 BYTE   N11
 BYTE   W12
 BYTE   N11
 BYTE   W12
 BYTE   N11
 BYTE   W12
 BYTE   N11
 BYTE   W12
 BYTE   N11
 BYTE   W06
 BYTE   PEND 
// 021   ----------------------------------------
Label_2_0116510E:
 BYTE   W06
 BYTE   N11  Fs1  v127
 BYTE   W12
 BYTE   N11
 BYTE   W12
 BYTE   Bn1
 BYTE   W12
 BYTE   N11
 BYTE   W12
 BYTE   N11
 BYTE   W12
 BYTE   N11
 BYTE   W12
 BYTE   N11
 BYTE   W12
 BYTE   Fs1
 BYTE   W06
 BYTE   PEND 
// 022   ----------------------------------------
Label_2_01165122:
 BYTE   W06
 BYTE   N11  An1  v127
 BYTE   W12
 BYTE   Bn1
 BYTE   W78
 BYTE   PEND 
// 023   ----------------------------------------
Label_2_0116512A:
 BYTE   W30
 BYTE   N28  En1  v127
 BYTE   W36
 BYTE   N11
 BYTE   W12
 BYTE   N36
 BYTE   W18
 BYTE   PEND 
// 024   ----------------------------------------
Label_2_01165134:
 BYTE   W30
 BYTE   N28  An1  v127
 BYTE   W36
 BYTE   N11
 BYTE   W12
 BYTE   N36
 BYTE   W18
 BYTE   PEND 
// 025   ----------------------------------------
Label_2_0116513E:
 BYTE   W30
 BYTE   N28  Dn1  v127
 BYTE   W36
 BYTE   N11
 BYTE   W12
 BYTE   N36
 BYTE   W18
 BYTE   PEND 
// 026   ----------------------------------------
Label_2_01165148:
 BYTE   W30
 BYTE   N28  Gn1  v127
 BYTE   W36
 BYTE   N11
 BYTE   W12
 BYTE   N36
 BYTE   W18
 BYTE   PEND 
// 027   ----------------------------------------
Label_2_01165152:
 BYTE   W30
 BYTE   N28  Cs1  v127
 BYTE   W36
 BYTE   N11
 BYTE   W12
 BYTE   N36
 BYTE   W18
 BYTE   PEND 
// 028   ----------------------------------------
Label_2_0116515C:
 BYTE   W30
 BYTE   N28  Fs1  v127
 BYTE   W36
 BYTE   N11
 BYTE   W12
 BYTE   N36
 BYTE   W18
 BYTE   PEND 
// 029   ----------------------------------------
Label_2_01165166:
 BYTE   W30
 BYTE   N12  Bn0  v127
 BYTE   W12
 BYTE   N11  Bn1
 BYTE   W12
 BYTE   N11
 BYTE   W12
 BYTE   N12  Cs1
 BYTE   W12
 BYTE   N11  Cs2
 BYTE   W12
 BYTE   N11
 BYTE   W06
 BYTE   PEND 
// 030   ----------------------------------------
Label_2_01165179:
 BYTE   W06
 BYTE   N12  Dn1  v127
 BYTE   W12
 BYTE   N11  Dn2
 BYTE   W12
 BYTE   N12  Dn1
 BYTE   W12
 BYTE   N11  Dn2
 BYTE   W12
 BYTE   Ds1
 BYTE   W12
 BYTE   N11
 BYTE   W12
 BYTE   N11
 BYTE   W12
 BYTE   N11
 BYTE   W06
 BYTE   PEND 
// 031   ----------------------------------------
Label_2_01165190:
 BYTE   W06
 BYTE   N11  Ds1  v127
 BYTE   W12
 BYTE   N11
 BYTE   W12
 BYTE   En1
 BYTE   W12
 BYTE   N11
 BYTE   W12
 BYTE   N11
 BYTE   W12
 BYTE   N11
 BYTE   W12
 BYTE   N11
 BYTE   W12
 BYTE   N11
 BYTE   W06
 BYTE   PEND 
// 032   ----------------------------------------
Label_2_011651A4:
 BYTE   W06
 BYTE   N11  En1  v127
 BYTE   W12
 BYTE   N11
 BYTE   W12
 BYTE   An1
 BYTE   W12
 BYTE   N11
 BYTE   W12
 BYTE   N11
 BYTE   W12
 BYTE   N11
 BYTE   W12
 BYTE   N11
 BYTE   W12
 BYTE   N11
 BYTE   W06
 BYTE   PEND 
// 033   ----------------------------------------
Label_2_011651B8:
 BYTE   W06
 BYTE   N11  An1  v127
 BYTE   W12
 BYTE   N11
 BYTE   W12
 BYTE   As1
 BYTE   W12
 BYTE   N11
 BYTE   W12
 BYTE   N11
 BYTE   W12
 BYTE   N11
 BYTE   W12
 BYTE   N11
 BYTE   W12
 BYTE   N11
 BYTE   W06
 BYTE   PEND 
// 034   ----------------------------------------
Label_2_011651CC:
 BYTE   W06
 BYTE   N11  As1  v127
 BYTE   W12
 BYTE   N11
 BYTE   W12
 BYTE   Bn1
 BYTE   W12
 BYTE   N11
 BYTE   W12
 BYTE   N11
 BYTE   W12
 BYTE   N11
 BYTE   W12
 BYTE   An1
 BYTE   W12
 BYTE   N11
 BYTE   W06
 BYTE   PEND 
// 035   ----------------------------------------
Label_2_011651E0:
 BYTE   W06
 BYTE   N11  An1  v127
 BYTE   W12
 BYTE   N11
 BYTE   W12
 BYTE   Gn1
 BYTE   W12
 BYTE   N11
 BYTE   W12
 BYTE   N11
 BYTE   W12
 BYTE   N11
 BYTE   W12
 BYTE   N11
 BYTE   W12
 BYTE   N11
 BYTE   W06
 BYTE   PEND 
 BYTE   PATT
  POIN2 Label_2_011650D2
// 036   ----------------------------------------
Label_2_011651F9:
 BYTE   W06
 BYTE   N11  Gn1  v127
 BYTE   W12
 BYTE   N11
 BYTE   W12
 BYTE   An1
 BYTE   W12
 BYTE   N11
 BYTE   W12
 BYTE   N11
 BYTE   W12
 BYTE   N11
 BYTE   W12
 BYTE   N11
 BYTE   W12
 BYTE   En1
 BYTE   W06
 BYTE   PEND 
// 037   ----------------------------------------
Label_2_0116520D:
 BYTE   W06
 BYTE   N11  Gn1  v127
 BYTE   W12
 BYTE   An1
 BYTE   W78
 BYTE   PEND 
// 038   ----------------------------------------
Label_2_01165215:
 BYTE   W05
 BYTE   BEND   c_v-64
 BYTE   W01
 BYTE   N24  Fs1  v127
 BYTE   W01
 BYTE   BEND   c_v-57
 BYTE   W02
 BYTE   Fn0
 BYTE   W01
 BYTE   Fs1
 BYTE   W02
 BYTE   Dn3
 BYTE   W01
 BYTE   An3
 BYTE   W01
 BYTE   Cn6
 BYTE   W01
 BYTE   Dn7
 BYTE   W03
 BYTE   Fs8
 BYTE   W02
 BYTE   Bn4
 BYTE   W02
 BYTE   Ds4
 BYTE   W01
 BYTE   Cn3
 BYTE   W01
 BYTE   En2
 BYTE   W01
 BYTE   En1
 BYTE   W01
 BYTE   Gn0
 BYTE   W01
 BYTE   AnM2
 BYTE   W01
 BYTE   FnM2
 BYTE   W02
 BYTE   En3
 BYTE   N11  As1
 BYTE   W12
 BYTE   N11
 BYTE   W12
 BYTE   N11
 BYTE   W12
 BYTE   N11
 BYTE   W12
 BYTE   N11
 BYTE   W12
 BYTE   N11
 BYTE   W06
 BYTE   PEND 
// 039   ----------------------------------------
Label_2_0116524D:
 BYTE   W06
 BYTE   N11  As1  v127
 BYTE   W12
 BYTE   N11
 BYTE   W12
 BYTE   Cn2
 BYTE   W12
 BYTE   N11
 BYTE   W12
 BYTE   N11
 BYTE   W12
 BYTE   N11
 BYTE   W12
 BYTE   N11
 BYTE   W12
 BYTE   N11
 BYTE   W06
 BYTE   PEND 
// 040   ----------------------------------------
Label_2_01165261:
 BYTE   W06
 BYTE   N11  Cn2  v127
 BYTE   W12
 BYTE   N11
 BYTE   W12
 BYTE   Dn2
 BYTE   W12
 BYTE   N11
 BYTE   W12
 BYTE   N11
 BYTE   W12
 BYTE   N11
 BYTE   W12
 BYTE   N11
 BYTE   W12
 BYTE   N11
 BYTE   W06
 BYTE   PEND 
// 041   ----------------------------------------
Label_2_01165275:
 BYTE   W06
 BYTE   N11  Dn2  v127
 BYTE   W12
 BYTE   N11
 BYTE   W12
 BYTE   Cn2
 BYTE   W12
 BYTE   N11
 BYTE   W12
 BYTE   N11
 BYTE   W12
 BYTE   N11
 BYTE   W12
 BYTE   N11
 BYTE   W12
 BYTE   N11
 BYTE   W06
 BYTE   PEND 
// 042   ----------------------------------------
Label_2_01165289:
 BYTE   W06
 BYTE   N11  Cn2  v127
 BYTE   W12
 BYTE   N11
 BYTE   W12
 BYTE   As1
 BYTE   W12
 BYTE   N11
 BYTE   W12
 BYTE   N11
 BYTE   W12
 BYTE   N11
 BYTE   W12
 BYTE   N11
 BYTE   W12
 BYTE   N11
 BYTE   W06
 BYTE   PEND 
 BYTE   PATT
  POIN2 Label_2_0116524D
// 043   ----------------------------------------
Label_2_011652A2:
 BYTE   W06
 BYTE   N11  Cn2  v127
 BYTE   W12
 BYTE   N11
 BYTE   W12
 BYTE   Fn1
 BYTE   W12
 BYTE   N11
 BYTE   W12
 BYTE   N11
 BYTE   W12
 BYTE   N11
 BYTE   W12
 BYTE   N11
 BYTE   W12
 BYTE   N11
 BYTE   W06
 BYTE   PEND 
// 044   ----------------------------------------
Label_2_011652B6:
 BYTE   W06
 BYTE   N11  Fn1  v127
 BYTE   W12
 BYTE   N11
 BYTE   W12
 BYTE   An1
 BYTE   W12
 BYTE   N11
 BYTE   W12
 BYTE   N11
 BYTE   W12
 BYTE   N11
 BYTE   W12
 BYTE   N11
 BYTE   W12
 BYTE   N11
 BYTE   W06
 BYTE   PEND 
 BYTE   PATT
  POIN2 Label_2_011651B8
// 045   ----------------------------------------
Label_2_011652CF:
 BYTE   W06
 BYTE   N11  As1  v127
 BYTE   W12
 BYTE   N11
 BYTE   W12
 BYTE   N12  Cn2
 BYTE   W12
 BYTE   N12
 BYTE   W12
 BYTE   N12
 BYTE   W12
 BYTE   N12
 BYTE   W12
 BYTE   N12
 BYTE   W12
 BYTE   N12
 BYTE   W06
 BYTE   PEND 
// 046   ----------------------------------------
Label_2_011652E4:
 BYTE   W06
 BYTE   N12  Cn2  v127
 BYTE   W12
 BYTE   N12
 BYTE   W12
 BYTE   Cs2
 BYTE   W12
 BYTE   N12
 BYTE   W12
 BYTE   N12
 BYTE   W12
 BYTE   N12
 BYTE   W12
 BYTE   N12
 BYTE   W12
 BYTE   N12
 BYTE   W06
 BYTE   PEND 
// 047   ----------------------------------------
Label_2_011652F8:
 BYTE   W06
 BYTE   N12  Cs2  v127
 BYTE   W12
 BYTE   N12
 BYTE   W12
 BYTE   N11  Dn2
 BYTE   W12
 BYTE   N11
 BYTE   W12
 BYTE   N11
 BYTE   W12
 BYTE   N11
 BYTE   W12
 BYTE   Cn2
 BYTE   W12
 BYTE   N11
 BYTE   W06
 BYTE   PEND 
 BYTE   PATT
  POIN2 Label_2_01165289
 BYTE   PATT
  POIN2 Label_2_0116524D
// 048   ----------------------------------------
Label_2_01165317:
 BYTE   W06
 BYTE   N11  Cn2  v127
 BYTE   W12
 BYTE   N11
 BYTE   W12
 BYTE   Ds1
 BYTE   W12
 BYTE   N11
 BYTE   W12
 BYTE   N11
 BYTE   W12
 BYTE   N11
 BYTE   W12
 BYTE   N11
 BYTE   W12
 BYTE   N11
 BYTE   W06
 BYTE   PEND 
// 049   ----------------------------------------
 BYTE   W06
 BYTE   N11
 BYTE   W12
 BYTE   N11
 BYTE   W12
 BYTE   N11
 BYTE   W66
 BYTE   PATT
  POIN2 Label_2_01165013
 BYTE   PATT
  POIN2 Label_2_01165023
 BYTE   PATT
  POIN2 Label_2_01165037
 BYTE   PATT
  POIN2 Label_2_0116504B
 BYTE   PATT
  POIN2 Label_2_0116505F
 BYTE   PATT
  POIN2 Label_2_01165073
 BYTE   PATT
  POIN2 Label_2_01165087
 BYTE   PATT
  POIN2 Label_2_0116509B
 BYTE   PATT
  POIN2 Label_2_01165013
 BYTE   PATT
  POIN2 Label_2_011650AA
 BYTE   PATT
  POIN2 Label_2_011650BE
 BYTE   PATT
  POIN2 Label_2_011650D2
 BYTE   PATT
  POIN2 Label_2_011650E6
 BYTE   PATT
  POIN2 Label_2_011650FA
 BYTE   PATT
  POIN2 Label_2_0116510E
 BYTE   PATT
  POIN2 Label_2_01165122
 BYTE   PATT
  POIN2 Label_2_0116512A
 BYTE   PATT
  POIN2 Label_2_01165134
 BYTE   PATT
  POIN2 Label_2_0116513E
 BYTE   PATT
  POIN2 Label_2_01165148
 BYTE   PATT
  POIN2 Label_2_01165152
 BYTE   PATT
  POIN2 Label_2_0116515C
 BYTE   PATT
  POIN2 Label_2_01165166
 BYTE   PATT
  POIN2 Label_2_01165179
 BYTE   PATT
  POIN2 Label_2_01165190
 BYTE   PATT
  POIN2 Label_2_011651A4
 BYTE   PATT
  POIN2 Label_2_011651B8
 BYTE   PATT
  POIN2 Label_2_011651CC
 BYTE   PATT
  POIN2 Label_2_011651E0
 BYTE   PATT
  POIN2 Label_2_011650D2
 BYTE   PATT
  POIN2 Label_2_011651F9
 BYTE   PATT
  POIN2 Label_2_0116520D
 BYTE   PATT
  POIN2 Label_2_01165215
 BYTE   PATT
  POIN2 Label_2_0116524D
 BYTE   PATT
  POIN2 Label_2_01165261
 BYTE   PATT
  POIN2 Label_2_01165275
 BYTE   PATT
  POIN2 Label_2_01165289
 BYTE   PATT
  POIN2 Label_2_0116524D
 BYTE   PATT
  POIN2 Label_2_011652A2
 BYTE   PATT
  POIN2 Label_2_011652B6
 BYTE   PATT
  POIN2 Label_2_011651B8
 BYTE   PATT
  POIN2 Label_2_011652CF
 BYTE   PATT
  POIN2 Label_2_011652E4
 BYTE   PATT
  POIN2 Label_2_011652F8
 BYTE   PATT
  POIN2 Label_2_01165289
 BYTE   PATT
  POIN2 Label_2_0116524D
 BYTE   PATT
  POIN2 Label_2_01165317
// 050   ----------------------------------------
 BYTE   W06
 BYTE   N11  Ds1  v127
 BYTE   W12
 BYTE   N11
 BYTE   W12
 BYTE   N11
 BYTE   W11
 BYTE   FINE

//**************** Track 4 (Midi-Chn.3) ****************//

song30_004:
// 000   ----------------------------------------
 BYTE   KEYSH   song30_key+0
 BYTE   VOICE   101
 BYTE   VOL   41*song30_mvl/mxv
 BYTE   PAN   c_v+0
 BYTE   W30
 BYTE   N06  Gn2  v127
 BYTE   W06
 BYTE   Bn2
 BYTE   W06
 BYTE   Dn3
 BYTE   W06
 BYTE   Gn3
 BYTE   W06
 BYTE   Bn3
 BYTE   W06
 BYTE   Dn4
 BYTE   W06
 BYTE   Gn4
 BYTE   W06
 BYTE   Bn4
 BYTE   W06
 BYTE   Dn5
 BYTE   W06
 BYTE   Bn4
 BYTE   W06
 BYTE   Gn4
 BYTE   W06
// 001   ----------------------------------------
Label_3_01165449:
 BYTE   N06  Dn4  v127
 BYTE   W06
 BYTE   Bn3
 BYTE   W06
 BYTE   Gn3
 BYTE   W06
 BYTE   Dn3
 BYTE   W06
 BYTE   Bn2
 BYTE   W06
 BYTE   An2
 BYTE   W06
 BYTE   Cs3
 BYTE   W06
 BYTE   En3
 BYTE   W06
 BYTE   An3
 BYTE   W06
 BYTE   Cs4
 BYTE   W06
 BYTE   En4
 BYTE   W06
 BYTE   An4
 BYTE   W06
 BYTE   Cs5
 BYTE   W06
 BYTE   En5
 BYTE   W06
 BYTE   Cs5
 BYTE   W06
 BYTE   An4
 BYTE   W06
 BYTE   PEND 
// 002   ----------------------------------------
 BYTE   En4
 BYTE   W06
 BYTE   Cs4
 BYTE   W06
 BYTE   An3
 BYTE   W06
 BYTE   En3
 BYTE   W06
 BYTE   Cs3
 BYTE   W06
 BYTE   Bn2
 BYTE   W06
 BYTE   Dn3
 BYTE   W06
 BYTE   Fs3
 BYTE   W06
 BYTE   Bn3
 BYTE   W06
 BYTE   Dn4
 BYTE   W06
 BYTE   Fs4
 BYTE   W06
 BYTE   Bn4
 BYTE   W06
 BYTE   Dn5
 BYTE   W06
 BYTE   Fs5
 BYTE   W06
 BYTE   Dn5
 BYTE   W06
 BYTE   Bn4
 BYTE   W06
// 003   ----------------------------------------
 BYTE   Fs4
 BYTE   W06
 BYTE   Dn4
 BYTE   W06
 BYTE   Bn3
 BYTE   W06
 BYTE   Fs3
 BYTE   W06
 BYTE   Dn3
 BYTE   W06
 BYTE   An2
 BYTE   W06
 BYTE   Cs3
 BYTE   W06
 BYTE   En3
 BYTE   W06
 BYTE   An3
 BYTE   W06
 BYTE   Cs4
 BYTE   W06
 BYTE   En4
 BYTE   W06
 BYTE   An4
 BYTE   W06
 BYTE   Cs5
 BYTE   W06
 BYTE   En5
 BYTE   W06
 BYTE   Cs5
 BYTE   W06
 BYTE   An4
 BYTE   W06
// 004   ----------------------------------------
 BYTE   En4
 BYTE   W06
 BYTE   Cs4
 BYTE   W06
 BYTE   An3
 BYTE   W06
 BYTE   En3
 BYTE   W06
 BYTE   Cs3
 BYTE   W06
 BYTE   Gn2
 BYTE   W06
 BYTE   Bn2
 BYTE   W06
 BYTE   Dn3
 BYTE   W06
 BYTE   Gn3
 BYTE   W06
 BYTE   Bn3
 BYTE   W06
 BYTE   Dn4
 BYTE   W06
 BYTE   Gn4
 BYTE   W06
 BYTE   Bn4
 BYTE   W06
 BYTE   Dn5
 BYTE   W06
 BYTE   Bn4
 BYTE   W06
 BYTE   Gn4
 BYTE   W06
 BYTE   PATT
  POIN2 Label_3_01165449
// 005   ----------------------------------------
 BYTE   N06  En4  v127
 BYTE   W06
 BYTE   Cs4
 BYTE   W06
 BYTE   An3
 BYTE   W06
 BYTE   En3
 BYTE   W06
 BYTE   Cs3
 BYTE   W06
 BYTE   Cn2
 BYTE   W06
 BYTE   En2
 BYTE   W06
 BYTE   Gn2
 BYTE   W06
 BYTE   Bn2
 BYTE   W06
 BYTE   Cn3
 BYTE   W06
 BYTE   En3
 BYTE   W06
 BYTE   Gn3
 BYTE   W06
 BYTE   Bn3
 BYTE   W06
 BYTE   Cn4
 BYTE   W06
 BYTE   En4
 BYTE   W06
 BYTE   Gn4
 BYTE   W06
// 006   ----------------------------------------
 BYTE   Bn4
 BYTE   W06
 BYTE   Cn5
 BYTE   W06
 BYTE   En5
 BYTE   W06
 BYTE   N12  Gn5
 BYTE   W78
// 007   ----------------------------------------
 BYTE   W96
// 008   ----------------------------------------
 BYTE   W96
// 009   ----------------------------------------
 BYTE   W96
// 010   ----------------------------------------
 BYTE   W96
// 011   ----------------------------------------
 BYTE   W96
// 012   ----------------------------------------
 BYTE   W96
// 013   ----------------------------------------
 BYTE   W96
// 014   ----------------------------------------
 BYTE   W96
// 015   ----------------------------------------
 BYTE   W30
 BYTE   N48  Fs4
 BYTE   W66
// 016   ----------------------------------------
 BYTE   W78
 BYTE   N24  Bn4
 BYTE   W18
// 017   ----------------------------------------
Label_3_0116550C:
 BYTE   W06
 BYTE   N24  Cs5  v127
 BYTE   W24
 BYTE   Dn5
 BYTE   W66
 BYTE   PEND 
// 018   ----------------------------------------
 BYTE   W78
 BYTE   Fs5
 BYTE   W18
// 019   ----------------------------------------
 BYTE   W30
 BYTE   En5
 BYTE   W66
// 020   ----------------------------------------
Label_3_0116551A:
 BYTE   W06
 BYTE   N24  Cs5  v127
 BYTE   W24
 BYTE   N36  An4
 BYTE   W36
 BYTE   Fs4
 BYTE   W30
 BYTE   PEND 
// 021   ----------------------------------------
 BYTE   W06
 BYTE   N24  Bn4
 BYTE   W90
// 022   ----------------------------------------
 BYTE   W96
// 023   ----------------------------------------
Label_3_0116552A:
 BYTE   W30
 BYTE   N12  Dn4  v127
 BYTE   W12
 BYTE   Bn3
 BYTE   W12
 BYTE   Gn3
 BYTE   W12
 BYTE   Dn4
 BYTE   W12
 BYTE   Bn3
 BYTE   W12
 BYTE   Gn3
 BYTE   W06
 BYTE   PEND 
// 024   ----------------------------------------
Label_3_0116553A:
 BYTE   W06
 BYTE   N12  Dn4  v127
 BYTE   W12
 BYTE   Bn3
 BYTE   W12
 BYTE   Cs4
 BYTE   W12
 BYTE   An3
 BYTE   W12
 BYTE   Gn3
 BYTE   W12
 BYTE   Cs4
 BYTE   W12
 BYTE   An3
 BYTE   W12
 BYTE   Gn3
 BYTE   W06
 BYTE   PEND 
// 025   ----------------------------------------
Label_3_0116554E:
 BYTE   W06
 BYTE   N12  Cs4  v127
 BYTE   W12
 BYTE   An3
 BYTE   W12
 BYTE   Cs4
 BYTE   W12
 BYTE   An3
 BYTE   W12
 BYTE   Fs3
 BYTE   W12
 BYTE   Cs4
 BYTE   W12
 BYTE   An3
 BYTE   W12
 BYTE   Fs3
 BYTE   W06
 BYTE   PEND 
// 026   ----------------------------------------
Label_3_01165562:
 BYTE   W06
 BYTE   N12  Cs4  v127
 BYTE   W12
 BYTE   An3
 BYTE   W12
 BYTE   Bn3
 BYTE   W12
 BYTE   Gn3
 BYTE   W12
 BYTE   Fs3
 BYTE   W12
 BYTE   Bn3
 BYTE   W12
 BYTE   Gn3
 BYTE   W12
 BYTE   Fs3
 BYTE   W06
 BYTE   PEND 
// 027   ----------------------------------------
Label_3_01165576:
 BYTE   W06
 BYTE   N12  Bn3  v127
 BYTE   W12
 BYTE   Gn3
 BYTE   W12
 BYTE   Bn3
 BYTE   W12
 BYTE   Gn3
 BYTE   W12
 BYTE   En3
 BYTE   W12
 BYTE   Bn3
 BYTE   W12
 BYTE   Gn3
 BYTE   W12
 BYTE   En3
 BYTE   W06
 BYTE   PEND 
// 028   ----------------------------------------
Label_3_0116558A:
 BYTE   W06
 BYTE   N12  Bn3  v127
 BYTE   W12
 BYTE   Gn3
 BYTE   W12
 BYTE   Cs4
 BYTE   W12
 BYTE   As3
 BYTE   W12
 BYTE   Fs3
 BYTE   W12
 BYTE   Cs4
 BYTE   W12
 BYTE   As3
 BYTE   W12
 BYTE   Fs3
 BYTE   W06
 BYTE   PEND 
// 029   ----------------------------------------
Label_3_0116559E:
 BYTE   W06
 BYTE   N12  Cs4  v127
 BYTE   W12
 BYTE   As3
 BYTE   W12
 BYTE   Dn4
 BYTE   W12
 BYTE   Bn3
 BYTE   W12
 BYTE   Fs3
 BYTE   W12
 BYTE   En4
 BYTE   W12
 BYTE   Cs4
 BYTE   W12
 BYTE   An3
 BYTE   W06
 BYTE   PEND 
// 030   ----------------------------------------
Label_3_011655B2:
 BYTE   W06
 BYTE   N12  Fs4  v127
 BYTE   W12
 BYTE   Dn4
 BYTE   W12
 BYTE   An3
 BYTE   W12
 BYTE   Fs4
 BYTE   W12
 BYTE   Ds4
 BYTE   W12
 BYTE   An3
 BYTE   W12
 BYTE   Fs4
 BYTE   W12
 BYTE   Ds4
 BYTE   W06
 BYTE   PEND 
// 031   ----------------------------------------
Label_3_011655C6:
 BYTE   W06
 BYTE   N12  An3  v127
 BYTE   W12
 BYTE   Fs4
 BYTE   W12
 BYTE   En4
 BYTE   W12
 BYTE   Dn4
 BYTE   W12
 BYTE   Bn3
 BYTE   W12
 BYTE   En4
 BYTE   W12
 BYTE   Dn4
 BYTE   W12
 BYTE   Bn3
 BYTE   W06
 BYTE   PEND 
// 032   ----------------------------------------
Label_3_011655DA:
 BYTE   W06
 BYTE   N12  En4  v127
 BYTE   W12
 BYTE   Dn4
 BYTE   W12
 BYTE   En4
 BYTE   W12
 BYTE   Cs4
 BYTE   W12
 BYTE   An3
 BYTE   W12
 BYTE   En4
 BYTE   W12
 BYTE   Cs4
 BYTE   W12
 BYTE   An3
 BYTE   W06
 BYTE   PEND 
// 033   ----------------------------------------
Label_3_011655EE:
 BYTE   W06
 BYTE   N12  En4  v127
 BYTE   W12
 BYTE   Cs4
 BYTE   W12
 BYTE   En4
 BYTE   W12
 BYTE   Cs4
 BYTE   W12
 BYTE   As3
 BYTE   W12
 BYTE   En4
 BYTE   W12
 BYTE   Cs4
 BYTE   W12
 BYTE   As3
 BYTE   W06
 BYTE   PEND 
// 034   ----------------------------------------
Label_3_01165602:
 BYTE   W06
 BYTE   N12  Gn4  v127
 BYTE   W12
 BYTE   En4
 BYTE   W12
 BYTE   Fs4
 BYTE   W12
 BYTE   Dn4
 BYTE   W12
 BYTE   Bn3
 BYTE   W12
 BYTE   Fs4
 BYTE   W12
 BYTE   Dn4
 BYTE   W12
 BYTE   As3
 BYTE   W06
 BYTE   PEND 
// 035   ----------------------------------------
Label_3_01165616:
 BYTE   W06
 BYTE   N12  Fs4  v127
 BYTE   W12
 BYTE   Dn4
 BYTE   W12
 BYTE   Fs4
 BYTE   W12
 BYTE   Dn4
 BYTE   W12
 BYTE   Bn3
 BYTE   W12
 BYTE   Fs4
 BYTE   W12
 BYTE   Dn4
 BYTE   W12
 BYTE   Bn3
 BYTE   W06
 BYTE   PEND 
// 036   ----------------------------------------
Label_3_0116562A:
 BYTE   W06
 BYTE   N12  Fs4  v127
 BYTE   W12
 BYTE   Dn4
 BYTE   W12
 BYTE   Bn3
 BYTE   W12
 BYTE   Fs4
 BYTE   W12
 BYTE   Dn4
 BYTE   W12
 BYTE   Bn3
 BYTE   W12
 BYTE   Fs4
 BYTE   W12
 BYTE   Dn4
 BYTE   W06
 BYTE   PEND 
// 037   ----------------------------------------
Label_3_0116563E:
 BYTE   W06
 BYTE   N12  Bn3  v127
 BYTE   W12
 BYTE   Fs4
 BYTE   W12
 BYTE   En4
 BYTE   W12
 BYTE   Cs4
 BYTE   W12
 BYTE   An3
 BYTE   W12
 BYTE   En4
 BYTE   W12
 BYTE   An4
 BYTE   W12
 BYTE   Cs5
 BYTE   W06
 BYTE   PEND 
// 038   ----------------------------------------
Label_3_01165652:
 BYTE   W06
 BYTE   N12  En5  v127
 BYTE   W12
 BYTE   An5
 BYTE   W78
 BYTE   PEND 
// 039   ----------------------------------------
Label_3_0116565A:
 BYTE   W42
 BYTE   N12  Dn4  v127
 BYTE   W12
 BYTE   Cn4
 BYTE   W12
 BYTE   An3
 BYTE   W12
 BYTE   Dn4
 BYTE   W18
 BYTE   PEND 
// 040   ----------------------------------------
Label_3_01165666:
 BYTE   W06
 BYTE   N12  Cn4  v127
 BYTE   W12
 BYTE   An3
 BYTE   W24
 BYTE   Dn4
 BYTE   W12
 BYTE   Cn4
 BYTE   W12
 BYTE   An3
 BYTE   W12
 BYTE   Dn4
 BYTE   W18
 BYTE   PEND 
 BYTE   PATT
  POIN2 Label_3_01165666
 BYTE   PATT
  POIN2 Label_3_01165666
 BYTE   PATT
  POIN2 Label_3_01165666
 BYTE   PATT
  POIN2 Label_3_01165666
 BYTE   PATT
  POIN2 Label_3_01165666
// 041   ----------------------------------------
Label_3_0116568F:
 BYTE   W06
 BYTE   N12  Cn4  v127
 BYTE   W12
 BYTE   An3
 BYTE   W24
 BYTE   Dn4
 BYTE   W12
 BYTE   Cs4
 BYTE   W12
 BYTE   An3
 BYTE   W12
 BYTE   Dn4
 BYTE   W18
 BYTE   PEND 
// 042   ----------------------------------------
Label_3_0116569F:
 BYTE   W06
 BYTE   N12  Cs4  v127
 BYTE   W12
 BYTE   An3
 BYTE   W12
 BYTE   N06  Dn3
 BYTE   W06
 BYTE   An2
 BYTE   W06
 BYTE   Dn3
 BYTE   W06
 BYTE   Fn3
 BYTE   W06
 BYTE   An3
 BYTE   W06
 BYTE   Dn4
 BYTE   W06
 BYTE   Fn4
 BYTE   W06
 BYTE   An4
 BYTE   W06
 BYTE   Dn5
 BYTE   W06
 BYTE   An4
 BYTE   W06
 BYTE   Fn4
 BYTE   W06
 BYTE   PEND 
// 043   ----------------------------------------
Label_3_011656BE:
 BYTE   N06  Dn4  v127
 BYTE   W06
 BYTE   An3
 BYTE   W06
 BYTE   Fn3
 BYTE   W06
 BYTE   Dn3
 BYTE   W06
 BYTE   An2
 BYTE   W06
 BYTE   Cn3
 BYTE   W06
 BYTE   Gn2
 BYTE   W06
 BYTE   Cn3
 BYTE   W06
 BYTE   Dn3
 BYTE   W06
 BYTE   Gn3
 BYTE   W06
 BYTE   Cn4
 BYTE   W06
 BYTE   En4
 BYTE   W06
 BYTE   Gn4
 BYTE   W06
 BYTE   Cn5
 BYTE   W06
 BYTE   Gn4
 BYTE   W06
 BYTE   En4
 BYTE   W06
 BYTE   PEND 
// 044   ----------------------------------------
Label_3_011656E1:
 BYTE   N06  Cn4  v127
 BYTE   W06
 BYTE   An3
 BYTE   W06
 BYTE   Dn3
 BYTE   W06
 BYTE   Cn3
 BYTE   W06
 BYTE   Gn2
 BYTE   W06
 BYTE   Cs3
 BYTE   W06
 BYTE   Gn2
 BYTE   W06
 BYTE   Cs3
 BYTE   W06
 BYTE   En3
 BYTE   W06
 BYTE   Gn3
 BYTE   W06
 BYTE   Cs4
 BYTE   W06
 BYTE   En4
 BYTE   W06
 BYTE   Gn4
 BYTE   W06
 BYTE   Cs5
 BYTE   W06
 BYTE   Gn4
 BYTE   W06
 BYTE   En4
 BYTE   W06
 BYTE   PEND 
// 045   ----------------------------------------
Label_3_01165704:
 BYTE   N06  Cs4  v127
 BYTE   W06
 BYTE   Gn3
 BYTE   W06
 BYTE   En3
 BYTE   W06
 BYTE   Cs3
 BYTE   W06
 BYTE   Gn2
 BYTE   W06
 BYTE   Dn3
 BYTE   W06
 BYTE   An2
 BYTE   W06
 BYTE   Dn3
 BYTE   W06
 BYTE   Fn3
 BYTE   W06
 BYTE   An3
 BYTE   W06
 BYTE   Dn4
 BYTE   W06
 BYTE   Fn4
 BYTE   W06
 BYTE   An4
 BYTE   W06
 BYTE   Cn5
 BYTE   W06
 BYTE   An4
 BYTE   W06
 BYTE   Fn4
 BYTE   W06
 BYTE   PEND 
// 046   ----------------------------------------
Label_3_01165727:
 BYTE   N06  Dn4  v127
 BYTE   W06
 BYTE   An3
 BYTE   W06
 BYTE   Fn3
 BYTE   W06
 BYTE   Dn3
 BYTE   W06
 BYTE   An2
 BYTE   W06
 BYTE   Dn3
 BYTE   W06
 BYTE   An2
 BYTE   W06
 BYTE   Dn3
 BYTE   W06
 BYTE   Fn3
 BYTE   W06
 BYTE   An3
 BYTE   W06
 BYTE   Dn4
 BYTE   W06
 BYTE   Fn4
 BYTE   W06
 BYTE   An4
 BYTE   W06
 BYTE   Dn5
 BYTE   W06
 BYTE   An4
 BYTE   W06
 BYTE   Fn4
 BYTE   W06
 BYTE   PEND 
 BYTE   PATT
  POIN2 Label_3_011656BE
// 047   ----------------------------------------
Label_3_0116574F:
 BYTE   N06  Cn4  v127
 BYTE   W06
 BYTE   An3
 BYTE   W06
 BYTE   Dn3
 BYTE   W06
 BYTE   Cn3
 BYTE   W06
 BYTE   Gn2
 BYTE   W06
 BYTE   Ds2
 BYTE   W06
 BYTE   Gn2
 BYTE   W06
 BYTE   As2
 BYTE   W06
 BYTE   Dn3
 BYTE   W06
 BYTE   Ds3
 BYTE   W06
 BYTE   Gn3
 BYTE   W06
 BYTE   As3
 BYTE   W06
 BYTE   Dn4
 BYTE   W06
 BYTE   Ds4
 BYTE   W06
 BYTE   Gn4
 BYTE   W06
 BYTE   As4
 BYTE   W06
 BYTE   PEND 
// 048   ----------------------------------------
 BYTE   Dn5
 BYTE   W06
 BYTE   Ds5
 BYTE   W06
 BYTE   Gn5
 BYTE   W06
 BYTE   As5
 BYTE   W78
// 049   ----------------------------------------
 BYTE   W96
// 050   ----------------------------------------
 BYTE   W96
// 051   ----------------------------------------
 BYTE   W96
// 052   ----------------------------------------
 BYTE   W96
// 053   ----------------------------------------
 BYTE   W96
// 054   ----------------------------------------
 BYTE   W96
// 055   ----------------------------------------
 BYTE   W96
// 056   ----------------------------------------
 BYTE   W96
// 057   ----------------------------------------
 BYTE   W30
 BYTE   N48  Fs4
 BYTE   W66
// 058   ----------------------------------------
 BYTE   W78
 BYTE   N24  Bn4
 BYTE   W18
 BYTE   PATT
  POIN2 Label_3_0116550C
// 059   ----------------------------------------
 BYTE   W78
 BYTE   N24  Fs5  v127
 BYTE   W18
// 060   ----------------------------------------
 BYTE   W30
 BYTE   En5
 BYTE   W66
 BYTE   PATT
  POIN2 Label_3_0116551A
// 061   ----------------------------------------
 BYTE   W06
 BYTE   N24  Bn4  v127
 BYTE   W90
// 062   ----------------------------------------
 BYTE   W96
 BYTE   PATT
  POIN2 Label_3_0116552A
 BYTE   PATT
  POIN2 Label_3_0116553A
 BYTE   PATT
  POIN2 Label_3_0116554E
 BYTE   PATT
  POIN2 Label_3_01165562
 BYTE   PATT
  POIN2 Label_3_01165576
 BYTE   PATT
  POIN2 Label_3_0116558A
 BYTE   PATT
  POIN2 Label_3_0116559E
 BYTE   PATT
  POIN2 Label_3_011655B2
 BYTE   PATT
  POIN2 Label_3_011655C6
 BYTE   PATT
  POIN2 Label_3_011655DA
 BYTE   PATT
  POIN2 Label_3_011655EE
 BYTE   PATT
  POIN2 Label_3_01165602
 BYTE   PATT
  POIN2 Label_3_01165616
 BYTE   PATT
  POIN2 Label_3_0116562A
 BYTE   PATT
  POIN2 Label_3_0116563E
 BYTE   PATT
  POIN2 Label_3_01165652
 BYTE   PATT
  POIN2 Label_3_0116565A
 BYTE   PATT
  POIN2 Label_3_01165666
 BYTE   PATT
  POIN2 Label_3_01165666
 BYTE   PATT
  POIN2 Label_3_01165666
 BYTE   PATT
  POIN2 Label_3_01165666
 BYTE   PATT
  POIN2 Label_3_01165666
 BYTE   PATT
  POIN2 Label_3_01165666
 BYTE   PATT
  POIN2 Label_3_0116568F
 BYTE   PATT
  POIN2 Label_3_0116569F
 BYTE   PATT
  POIN2 Label_3_011656BE
 BYTE   PATT
  POIN2 Label_3_011656E1
 BYTE   PATT
  POIN2 Label_3_01165704
 BYTE   PATT
  POIN2 Label_3_01165727
 BYTE   PATT
  POIN2 Label_3_011656BE
 BYTE   PATT
  POIN2 Label_3_0116574F
// 063   ----------------------------------------
 BYTE   N06  Dn5  v127
 BYTE   W06
 BYTE   Ds5
 BYTE   W06
 BYTE   Gn5
 BYTE   W06
 BYTE   As5
 BYTE   W06
 BYTE   FINE

//**************** Track 5 (Midi-Chn.4) ****************//

song30_005:
// 000   ----------------------------------------
 BYTE   KEYSH   song30_key+0
 BYTE   VOICE   40
 BYTE   VOL   55*song30_mvl/mxv
 BYTE   PAN   c_v+0
 BYTE   W18
 BYTE   N05  Bn3  v127
 BYTE   W06
 BYTE   N06  Cs4
 BYTE   W06
 BYTE   BEND   c_v-64
 BYTE   N80  Dn4
 BYTE   W01
 BYTE   BEND   c_v-57
 BYTE   W02
 BYTE   GnM1
 BYTE   W02
 BYTE   Gn0
 BYTE   W03
 BYTE   Fs1
 BYTE   W01
 BYTE   As2
 BYTE   W03
 BYTE   En3
 BYTE   W54
// 001   ----------------------------------------
 BYTE   W18
 BYTE   N05  Cs4
 BYTE   W06
 BYTE   N06  Bn3
 BYTE   W06
 BYTE   BEND   c_v-57
 BYTE   N44  Cs4
 BYTE   W02
 BYTE   BEND   c_v-45
 BYTE   W02
 BYTE   Gn0
 BYTE   W03
 BYTE   Fs1
 BYTE   W01
 BYTE   As2
 BYTE   W04
 BYTE   En3
 BYTE   W22
 BYTE   Dn2
 BYTE   W02
 BYTE   Cn1
 BYTE   W04
 BYTE   GnM1
 BYTE   W02
 BYTE   AnM2
 BYTE   W06
 BYTE   GnM2
 BYTE   N44  An3
 BYTE   W02
 BYTE   BEND   c_v-45
 BYTE   W02
 BYTE   Gn0
 BYTE   W03
 BYTE   Fs1
 BYTE   W01
 BYTE   As2
 BYTE   W04
 BYTE   En3
 BYTE   W06
// 002   ----------------------------------------
 BYTE   W30
 BYTE   N11  Fs3
 BYTE   W12
 BYTE   BEND   c_v-57
 BYTE   N92  Bn3
 BYTE   W02
 BYTE   BEND   c_v-45
 BYTE   W02
 BYTE   Gn0
 BYTE   W03
 BYTE   Fs1
 BYTE   W01
 BYTE   As2
 BYTE   W04
 BYTE   En3
 BYTE   W42
// 003   ----------------------------------------
 BYTE   W24
 BYTE   W01
 BYTE   En2
 BYTE   W02
 BYTE   As1
 BYTE   W03
 BYTE   En1
 BYTE   W01
 BYTE   Dn1
 BYTE   W03
 BYTE   Cs0
 BYTE   W02
 BYTE   GnM1
 BYTE   W02
 BYTE   GnM1
 BYTE   W01
 BYTE   CsM1
 BYTE   W03
 BYTE   CsM1
 BYTE   W24
 BYTE   GnM2
 BYTE   N11  Dn3
 BYTE   N11  Fs3
 BYTE   W02
 BYTE   BEND   c_v-45
 BYTE   W02
 BYTE   Gn0
 BYTE   W03
 BYTE   Fs1
 BYTE   W01
 BYTE   As2
 BYTE   W04
 BYTE   En3
 BYTE   N17
 BYTE   N16  Bn3
 BYTE   W18
// 004   ----------------------------------------
 BYTE   N17  En3
 BYTE   N17  An3
 BYTE   W10
 BYTE   BEND   c_v-12
 BYTE   W01
 BYTE   En1
 BYTE   W02
 BYTE   Fn0
 BYTE   W01
 BYTE   GnM1
 BYTE   W02
 BYTE   GnM2
 BYTE   W02
 BYTE   GnM2
 BYTE   N32  Bn2
 BYTE   N32  En3
 BYTE   W02
 BYTE   BEND   c_v-45
 BYTE   W02
 BYTE   Gn0
 BYTE   W03
 BYTE   Fs1
 BYTE   W01
 BYTE   As2
 BYTE   W04
 BYTE   En3
 BYTE   W36
 BYTE   N11  Dn3
 BYTE   N11  Fs3
 BYTE   W12
 BYTE   BEND   c_v-57
 BYTE   N17
 BYTE   N16  Bn3
 BYTE   W02
 BYTE   BEND   c_v-45
 BYTE   W02
 BYTE   Gn0
 BYTE   W03
 BYTE   Fs1
 BYTE   W01
 BYTE   As2
 BYTE   W04
 BYTE   En3
 BYTE   W06
// 005   ----------------------------------------
 BYTE   N17  En3
 BYTE   N17  An3
 BYTE   W18
 BYTE   BEND   c_v-57
 BYTE   N68
 BYTE   N68  Cs4
 BYTE   W02
 BYTE   BEND   c_v-45
 BYTE   W02
 BYTE   Gn0
 BYTE   W03
 BYTE   Fs1
 BYTE   W01
 BYTE   As2
 BYTE   W04
 BYTE   En3
 BYTE   W66
// 006   ----------------------------------------
 BYTE   W18
 BYTE   N05  Bn3
 BYTE   N05  Dn4
 BYTE   W06
 BYTE   Cs4
 BYTE   N05  En4
 BYTE   W06
 BYTE   BEND   c_v-57
 BYTE   N92  Dn4
 BYTE   N92  Fs4
 BYTE   W02
 BYTE   BEND   c_v-45
 BYTE   W02
 BYTE   Gn0
 BYTE   W03
 BYTE   Fs1
 BYTE   W01
 BYTE   As2
 BYTE   W04
 BYTE   En3
 BYTE   W54
// 007   ----------------------------------------
 BYTE   W07
 BYTE   Fs2
 BYTE   W04
 BYTE   En1
 BYTE   W02
 BYTE   Dn1
 BYTE   W03
 BYTE   Gn0
 BYTE   W03
 BYTE   Fn0
 BYTE   W03
 BYTE   AnM1
 BYTE   W01
 BYTE   AnM1
 BYTE   W03
 BYTE   DsM1
 BYTE   W04
 BYTE   En3
 BYTE   W66
// 008   ----------------------------------------
 BYTE   W96
// 009   ----------------------------------------
 BYTE   W96
// 010   ----------------------------------------
 BYTE   W96
// 011   ----------------------------------------
 BYTE   W96
// 012   ----------------------------------------
 BYTE   W96
// 013   ----------------------------------------
 BYTE   W96
// 014   ----------------------------------------
 BYTE   W96
// 015   ----------------------------------------
 BYTE   W96
// 016   ----------------------------------------
Label_4_01165958:
 BYTE   W30
 BYTE   N12  Bn1  v127
 BYTE   W12
 BYTE   N06  Bn0
 BYTE   W12
 BYTE   N06
 BYTE   W12
 BYTE   N12  Bn1
 BYTE   W12
 BYTE   N06  Bn0
 BYTE   W12
 BYTE   N06
 BYTE   W06
 BYTE   PEND 
// 017   ----------------------------------------
Label_4_0116596B:
 BYTE   W06
 BYTE   N12  Bn1  v127
 BYTE   W12
 BYTE   N06  Bn0
 BYTE   W12
 BYTE   N12  Bn1
 BYTE   W12
 BYTE   N06  Bn0
 BYTE   W12
 BYTE   N06
 BYTE   W12
 BYTE   N12  Bn1
 BYTE   W12
 BYTE   N06  Bn0
 BYTE   W12
 BYTE   N06
 BYTE   W06
 BYTE   PEND 
// 018   ----------------------------------------
Label_4_01165984:
 BYTE   W06
 BYTE   N12  Bn1  v127
 BYTE   W12
 BYTE   N06  Bn0
 BYTE   W12
 BYTE   N12  Gn1
 BYTE   W12
 BYTE   N06  Gn0
 BYTE   W12
 BYTE   N06
 BYTE   W12
 BYTE   N12  Gn1
 BYTE   W12
 BYTE   N06  Gn0
 BYTE   W12
 BYTE   N06
 BYTE   W06
 BYTE   PEND 
// 019   ----------------------------------------
Label_4_0116599D:
 BYTE   W06
 BYTE   N12  Gn1  v127
 BYTE   W12
 BYTE   N06  Gn0
 BYTE   W12
 BYTE   N12  Gn1
 BYTE   W12
 BYTE   N06  Gn0
 BYTE   W12
 BYTE   N06
 BYTE   W12
 BYTE   N12  Gn1
 BYTE   W12
 BYTE   N06  Gn0
 BYTE   W12
 BYTE   N06
 BYTE   W06
 BYTE   PEND 
// 020   ----------------------------------------
Label_4_011659B6:
 BYTE   W06
 BYTE   N12  Gn1  v127
 BYTE   W12
 BYTE   N06  Gn0
 BYTE   W12
 BYTE   N12  En1
 BYTE   W12
 BYTE   N06  En0
 BYTE   W12
 BYTE   N06
 BYTE   W12
 BYTE   N12  En1
 BYTE   W12
 BYTE   N06  En0
 BYTE   W12
 BYTE   N06
 BYTE   W06
 BYTE   PEND 
// 021   ----------------------------------------
Label_4_011659CF:
 BYTE   W06
 BYTE   N12  En1  v127
 BYTE   W12
 BYTE   N06  En0
 BYTE   W12
 BYTE   N12  Fs1
 BYTE   W12
 BYTE   N06  Fs0
 BYTE   W12
 BYTE   N06
 BYTE   W12
 BYTE   N12  Fs1
 BYTE   W12
 BYTE   N06  Fs0
 BYTE   W12
 BYTE   N06
 BYTE   W06
 BYTE   PEND 
// 022   ----------------------------------------
Label_4_011659E8:
 BYTE   W06
 BYTE   N12  Fs1  v127
 BYTE   W12
 BYTE   N06  Fs0
 BYTE   W11
 BYTE   BEND   c_v-64
 BYTE   W01
 BYTE   N44  Fs3
 BYTE   N44  Bn3
 BYTE   W01
 BYTE   BEND   c_v-55
 BYTE   W03
 BYTE   Ds0
 BYTE   W02
 BYTE   As0
 BYTE   W02
 BYTE   Dn2
 BYTE   W03
 BYTE   As2
 BYTE   W01
 BYTE   En3
 BYTE   W32
 BYTE   En2
 BYTE   W03
 BYTE   As1
 BYTE   W01
 BYTE   N11  Fs3
 BYTE   N11  Bn3
 BYTE   W04
 BYTE   BEND   c_v-33
 BYTE   W01
 BYTE   Cs0
 BYTE   W04
 BYTE   DsM1
 BYTE   W03
 BYTE   BnM2
 BYTE   N11  Dn3
 BYTE   N11  Fs3
 BYTE   W04
 BYTE   BEND   c_v+0
 BYTE   W02
 BYTE   PEND 
// 023   ----------------------------------------
Label_4_01165A1F:
 BYTE   W06
 BYTE   N11  Fs3  v127
 BYTE   N11  An3
 BYTE   W12
 BYTE   Fs3
 BYTE   N11  Bn3
 BYTE   W78
 BYTE   PEND 
// 024   ----------------------------------------
 BYTE   W96
// 025   ----------------------------------------
 BYTE   W96
// 026   ----------------------------------------
 BYTE   W96
// 027   ----------------------------------------
 BYTE   W96
// 028   ----------------------------------------
 BYTE   W96
// 029   ----------------------------------------
 BYTE   W96
// 030   ----------------------------------------
 BYTE   W96
// 031   ----------------------------------------
 BYTE   W96
// 032   ----------------------------------------
Label_4_01165A33:
 BYTE   W04
 BYTE   BEND   c_v-63
 BYTE   W01
 BYTE   GnM2
 BYTE   W01
 BYTE   DsM1
 BYTE   N24  Gn1  v104
 BYTE   N24  Fs2
 BYTE   W02
 BYTE   BEND   c_v-33
 BYTE   W01
 BYTE   Fs1
 BYTE   W01
 BYTE   Fs2
 BYTE   W02
 BYTE   En3
 BYTE   W01
 BYTE   An5
 BYTE   W01
 BYTE   Dn7
 BYTE   W01
 BYTE   En8
 BYTE   W02
 BYTE   Gn8
 BYTE   W02
 BYTE   Fs7
 BYTE   W02
 BYTE   Cn7
 BYTE   W01
 BYTE   Cn6
 BYTE   W01
 BYTE   Cs4
 BYTE   W01
 BYTE   Cn3
 BYTE   W02
 BYTE   En2
 BYTE   W01
 BYTE   En1
 BYTE   W01
 BYTE   Fn0
 BYTE   W01
 BYTE   GnM2
 BYTE   W01
 BYTE   En3
 BYTE   N05  En1
 BYTE   N05  En2
 BYTE   W12
 BYTE   En1
 BYTE   N05  En2
 BYTE   W12
 BYTE   En1
 BYTE   N05  En2
 BYTE   W12
 BYTE   N23  En1
 BYTE   N23  En2
 BYTE   W24
 BYTE   N11  En1
 BYTE   N11  En2
 BYTE   W06
 BYTE   PEND 
// 033   ----------------------------------------
Label_4_01165A7C:
 BYTE   W06
 BYTE   N05  En1  v104
 BYTE   N05  En2
 BYTE   W12
 BYTE   En1
 BYTE   N05  En2
 BYTE   W12
 BYTE   An1
 BYTE   N05  An2
 BYTE   W12
 BYTE   An1
 BYTE   N05  An2
 BYTE   W12
 BYTE   An1
 BYTE   N05  An2
 BYTE   W12
 BYTE   N23  An1
 BYTE   N23  An2
 BYTE   W24
 BYTE   N11  An1
 BYTE   N11  An2
 BYTE   W06
 BYTE   PEND 
// 034   ----------------------------------------
Label_4_01165A9E:
 BYTE   W06
 BYTE   N05  An1  v104
 BYTE   N05  An2
 BYTE   W12
 BYTE   An1
 BYTE   N05  An2
 BYTE   W12
 BYTE   Fs1
 BYTE   N05  Fs2
 BYTE   W12
 BYTE   Fs1
 BYTE   N05  Fs2
 BYTE   W12
 BYTE   Fs1
 BYTE   N05  Fs2
 BYTE   W12
 BYTE   N23  Fs1
 BYTE   N23  Fs2
 BYTE   W24
 BYTE   N11  Fs1
 BYTE   N11  Fs2
 BYTE   W06
 BYTE   PEND 
// 035   ----------------------------------------
Label_4_01165AC0:
 BYTE   W06
 BYTE   N05  Fs1  v104
 BYTE   N05  Fs2
 BYTE   W12
 BYTE   Fs1
 BYTE   N05  Fs2
 BYTE   W12
 BYTE   Bn1
 BYTE   N05  Bn2
 BYTE   W12
 BYTE   Bn1
 BYTE   N05  Bn2
 BYTE   W12
 BYTE   Bn1
 BYTE   N05  Bn2
 BYTE   W12
 BYTE   N23  Bn1
 BYTE   N23  Bn2
 BYTE   W24
 BYTE   N11  An1
 BYTE   N11  An2
 BYTE   W06
 BYTE   PEND 
// 036   ----------------------------------------
Label_4_01165AE2:
 BYTE   W06
 BYTE   N05  An1  v104
 BYTE   N05  An2
 BYTE   W12
 BYTE   Fs1
 BYTE   N05  Fs2
 BYTE   W12
 BYTE   Gn1
 BYTE   N05  Gn2
 BYTE   W12
 BYTE   Gn1
 BYTE   N05  Gn2
 BYTE   W12
 BYTE   Gn1
 BYTE   N05  Gn2
 BYTE   W12
 BYTE   N23  Gn1
 BYTE   N23  Gn2
 BYTE   W24
 BYTE   N11  Gn1
 BYTE   N11  Gn2
 BYTE   W06
 BYTE   PEND 
// 037   ----------------------------------------
Label_4_01165B04:
 BYTE   W06
 BYTE   N05  Gn1  v104
 BYTE   N05  Gn2
 BYTE   W12
 BYTE   Gn1
 BYTE   N05  Gn2
 BYTE   W12
 BYTE   Gn1
 BYTE   N05  Gn2
 BYTE   W12
 BYTE   Gn1
 BYTE   N05  Gn2
 BYTE   W12
 BYTE   Gn1
 BYTE   N05  Gn2
 BYTE   W12
 BYTE   N23  Gn1
 BYTE   N23  Gn2
 BYTE   W24
 BYTE   N11  Gn1
 BYTE   N11  Gn2
 BYTE   W06
 BYTE   PEND 
// 038   ----------------------------------------
Label_4_01165B26:
 BYTE   W06
 BYTE   N05  Gn1  v104
 BYTE   N05  Gn2
 BYTE   W12
 BYTE   Gn1
 BYTE   N05  Gn2
 BYTE   W12
 BYTE   N96  An1
 BYTE   N96  An2
 BYTE   W66
 BYTE   PEND 
// 039   ----------------------------------------
Label_4_01165B37:
 BYTE   W66
 BYTE   N10  Dn3  v127
 BYTE   N10  An3
 BYTE   W08
 BYTE   BEND   c_v-57
 BYTE   W02
 BYTE   GnM1
 BYTE   W02
 BYTE   Gs0
 BYTE   N16
 BYTE   N16  Dn4
 BYTE   W01
 BYTE   BEND   c_v-20
 BYTE   W02
 BYTE   As2
 BYTE   W02
 BYTE   En3
 BYTE   W13
 BYTE   PEND 
// 040   ----------------------------------------
Label_4_01165B50:
 BYTE   N17  An3  v127
 BYTE   N16  Cn4
 BYTE   W18
 BYTE   BEND   c_v-45
 BYTE   N32  Dn3
 BYTE   N32  Gn3
 BYTE   W02
 BYTE   BEND   c_v-32
 BYTE   W02
 BYTE   Gs1
 BYTE   W01
 BYTE   As2
 BYTE   W03
 BYTE   En3
 BYTE   W40
 BYTE   N10  Fn3
 BYTE   N10  An3
 BYTE   W12
 BYTE   BEND   c_v-45
 BYTE   N16
 BYTE   N16  Dn4
 BYTE   W02
 BYTE   BEND   c_v-32
 BYTE   W02
 BYTE   Gs1
 BYTE   W01
 BYTE   As2
 BYTE   W03
 BYTE   En3
 BYTE   W10
 BYTE   PEND 
// 041   ----------------------------------------
Label_4_01165B7B:
 BYTE   N17  An3  v127
 BYTE   N16  Cn4
 BYTE   W18
 BYTE   BEND   c_v-45
 BYTE   N56  Dn3
 BYTE   N56  Gn3
 BYTE   W02
 BYTE   BEND   c_v-32
 BYTE   W02
 BYTE   Gs1
 BYTE   W01
 BYTE   As2
 BYTE   W03
 BYTE   En3
 BYTE   W30
 BYTE   Dn2
 BYTE   W13
 BYTE   Gs1
 BYTE   W06
 BYTE   Cn1
 BYTE   W15
 BYTE   GnM1
 BYTE   N10  Dn3
 BYTE   N10  Fn3
 BYTE   W02
 BYTE   BEND   c_v-32
 BYTE   W02
 BYTE   Gs1
 BYTE   W01
 BYTE   As2
 BYTE   W01
 BYTE   PEND 
// 042   ----------------------------------------
Label_4_01165BA5:
 BYTE   W02
 BYTE   BEND   c_v+0
 BYTE   W04
 BYTE   N10  Dn3  v127
 BYTE   N10  Fn3
 BYTE   W12
 BYTE   Dn3
 BYTE   N10  Gn3
 BYTE   W12
 BYTE   BEND   c_v-45
 BYTE   N22  Fn3
 BYTE   N22  An3
 BYTE   W02
 BYTE   BEND   c_v-32
 BYTE   W02
 BYTE   Gs1
 BYTE   W01
 BYTE   As2
 BYTE   W03
 BYTE   En3
 BYTE   W16
 BYTE   N10  Fn3
 BYTE   N10  As3
 BYTE   W12
 BYTE   N22  Fn3
 BYTE   N22  An3
 BYTE   W24
 BYTE   BEND   c_v-45
 BYTE   N22  En3
 BYTE   N22  Gn3
 BYTE   W02
 BYTE   BEND   c_v-32
 BYTE   W02
 BYTE   Gs1
 BYTE   W01
 BYTE   As2
 BYTE   W01
 BYTE   PEND 
// 043   ----------------------------------------
Label_4_01165BDC:
 BYTE   W02
 BYTE   BEND   c_v+0
 BYTE   W10
 BYTE   Fs2
 BYTE   W01
 BYTE   As1
 BYTE   W01
 BYTE   As0
 BYTE   W01
 BYTE   Ds0
 BYTE   W01
 BYTE   FnM1
 BYTE   W02
 BYTE   GnM1
 BYTE   N44  Dn3  v127
 BYTE   N44  Fn3
 BYTE   W02
 BYTE   BEND   c_v-32
 BYTE   W02
 BYTE   Gs1
 BYTE   W01
 BYTE   As2
 BYTE   W03
 BYTE   En3
 BYTE   W40
 BYTE   N10
 BYTE   N10  An3
 BYTE   W12
 BYTE   N16
 BYTE   N16  Dn4
 BYTE   W18
 BYTE   PEND 
// 044   ----------------------------------------
Label_4_01165C03:
 BYTE   N17  An3  v127
 BYTE   N16  Cn4
 BYTE   W18
 BYTE   BEND   c_v-45
 BYTE   N44  Dn3
 BYTE   N44  Gn3
 BYTE   W02
 BYTE   BEND   c_v-32
 BYTE   W02
 BYTE   Gs1
 BYTE   W01
 BYTE   As2
 BYTE   W03
 BYTE   En3
 BYTE   W40
 BYTE   N10
 BYTE   N10  Cn4
 BYTE   W12
 BYTE   N16  An3
 BYTE   N16  Dn4
 BYTE   W18
 BYTE   PEND 
// 045   ----------------------------------------
Label_4_01165C23:
 BYTE   N17  Gn3  v127
 BYTE   N16  Cn4
 BYTE   W18
 BYTE   BEND   c_v-45
 BYTE   N80
 BYTE   N80  En4
 BYTE   W02
 BYTE   BEND   c_v-32
 BYTE   W02
 BYTE   Gs1
 BYTE   W01
 BYTE   As2
 BYTE   W03
 BYTE   En3
 BYTE   W44
 BYTE   W01
 BYTE   As2
 BYTE   W07
 BYTE   Dn2
 BYTE   W04
 BYTE   Fs1
 BYTE   W07
 BYTE   As0
 BYTE   W05
 BYTE   Gn0
 BYTE   W02
 BYTE   PEND 
// 046   ----------------------------------------
Label_4_01165C44:
 BYTE   W02
 BYTE   BEND   c_v-39
 BYTE   W04
 BYTE   GnM1
 BYTE   N10  Cn4  v127
 BYTE   N10  En4
 BYTE   W02
 BYTE   BEND   c_v-32
 BYTE   W02
 BYTE   Gs1
 BYTE   W01
 BYTE   As2
 BYTE   W03
 BYTE   En3
 BYTE   W04
 BYTE   N10  Cn4
 BYTE   N10  Fn4
 BYTE   W12
 BYTE   BEND   c_v-45
 BYTE   N22  Dn4
 BYTE   N22  Gn4
 BYTE   W02
 BYTE   BEND   c_v-32
 BYTE   W02
 BYTE   Gs1
 BYTE   W01
 BYTE   As2
 BYTE   W03
 BYTE   En3
 BYTE   W16
 BYTE   N10  Dn4
 BYTE   N10  Fn4
 BYTE   W12
 BYTE   N22  Dn4
 BYTE   N22  Gn4
 BYTE   W24
 BYTE   BEND   c_v-45
 BYTE   N22  En4
 BYTE   N22  An4
 BYTE   W02
 BYTE   BEND   c_v-32
 BYTE   W02
 BYTE   Gs1
 BYTE   W01
 BYTE   As2
 BYTE   W01
 BYTE   PEND 
// 047   ----------------------------------------
Label_4_01165C86:
 BYTE   W02
 BYTE   BEND   c_v+0
 BYTE   W16
 BYTE   N32  An3  v127
 BYTE   N32  En4
 BYTE   W48
 BYTE   N10  En3
 BYTE   N10  An3
 BYTE   W12
 BYTE   BEND   c_v-45
 BYTE   N16
 BYTE   N16  Dn4
 BYTE   W02
 BYTE   BEND   c_v-32
 BYTE   W02
 BYTE   Gs1
 BYTE   W01
 BYTE   As2
 BYTE   W03
 BYTE   En3
 BYTE   W10
 BYTE   PEND 
// 048   ----------------------------------------
Label_4_01165CA5:
 BYTE   N17  An3  v127
 BYTE   N16  Cn4
 BYTE   W18
 BYTE   N40  Dn3
 BYTE   N40  Gn3
 BYTE   W21
 BYTE   BEND   c_v-10
 BYTE   W04
 BYTE   Gs1
 BYTE   W05
 BYTE   Cn1
 BYTE   W04
 BYTE   As0
 BYTE   W04
 BYTE   Gn0
 BYTE   W05
 BYTE   Cs0
 BYTE   W05
 BYTE   GnM1
 BYTE   N10  En3
 BYTE   N10  An3
 BYTE   W02
 BYTE   BEND   c_v-32
 BYTE   W02
 BYTE   Gs1
 BYTE   W01
 BYTE   As2
 BYTE   W03
 BYTE   En3
 BYTE   W04
 BYTE   N17
 BYTE   N16  Dn4
 BYTE   W18
 BYTE   PEND 
// 049   ----------------------------------------
Label_4_01165CD1:
 BYTE   N17  An3  v127
 BYTE   N16  Cn4
 BYTE   W18
 BYTE   BEND   c_v-45
 BYTE   N56
 BYTE   N56  En4
 BYTE   W02
 BYTE   BEND   c_v-32
 BYTE   W02
 BYTE   Gs1
 BYTE   W01
 BYTE   As2
 BYTE   W03
 BYTE   En3
 BYTE   W64
 BYTE   N10  Cn4
 BYTE   N10  En4
 BYTE   W06
 BYTE   PEND 
// 050   ----------------------------------------
Label_4_01165CEC:
 BYTE   W06
 BYTE   N10  Cn4  v127
 BYTE   N10  En4
 BYTE   W12
 BYTE   Dn4
 BYTE   N10  Fn4
 BYTE   W12
 BYTE   BEND   c_v-45
 BYTE   N32  En4
 BYTE   N32  Gn4
 BYTE   W02
 BYTE   BEND   c_v-32
 BYTE   W02
 BYTE   Gs1
 BYTE   W01
 BYTE   As2
 BYTE   W03
 BYTE   En3
 BYTE   W28
 BYTE   N10  En4
 BYTE   N10  Gn4
 BYTE   W12
 BYTE   BEND   c_v-45
 BYTE   N22
 BYTE   N22  As4
 BYTE   W02
 BYTE   BEND   c_v-32
 BYTE   W02
 BYTE   Gs1
 BYTE   W01
 BYTE   As2
 BYTE   W03
 BYTE   En3
 BYTE   W10
 BYTE   PEND 
// 051   ----------------------------------------
Label_4_01165D1C:
 BYTE   W06
 BYTE   N10  Fn4  v127
 BYTE   N10  An4
 BYTE   W12
 BYTE   BEND   c_v-45
 BYTE   N22  En4
 BYTE   N22  Gn4
 BYTE   W02
 BYTE   BEND   c_v-32
 BYTE   W02
 BYTE   Gs1
 BYTE   W01
 BYTE   As2
 BYTE   W03
 BYTE   En3
 BYTE   W16
 BYTE   GnM1
 BYTE   N10  Fn4
 BYTE   N10  An4
 BYTE   W02
 BYTE   BEND   c_v-32
 BYTE   W02
 BYTE   Gs1
 BYTE   W01
 BYTE   As2
 BYTE   W03
 BYTE   En3
 BYTE   W04
 BYTE   N22  Dn4
 BYTE   N22  Fn4
 BYTE   W12
 BYTE   BEND   c_v-10
 BYTE   W04
 BYTE   Gs1
 BYTE   W04
 BYTE   Cn1
 BYTE   W01
 BYTE   Gn0
 BYTE   W02
 BYTE   AnM1
 BYTE   W01
 BYTE   GnM1
 BYTE   N16  Cn4
 BYTE   N16  En4
 BYTE   W01
 BYTE   BEND   c_v-49
 BYTE   W01
 BYTE   Gs0
 BYTE   W01
 BYTE   AnM2
 BYTE   W01
 BYTE   Gs1
 BYTE   W01
 BYTE   As2
 BYTE   W03
 BYTE   En3
 BYTE   W10
 BYTE   PEND 
// 052   ----------------------------------------
Label_4_01165D66:
 BYTE   N16  As3  v127
 BYTE   N16  Dn4
 BYTE   W18
 BYTE   N10  An3
 BYTE   N10  Cn4
 BYTE   W12
 BYTE   BEND   c_v-45
 BYTE   N56  As3
 BYTE   N56  Dn4
 BYTE   W02
 BYTE   BEND   c_v-32
 BYTE   W02
 BYTE   Gs1
 BYTE   W01
 BYTE   As2
 BYTE   W03
 BYTE   En3
 BYTE   W52
 BYTE   N10  As3
 BYTE   N10  Dn4
 BYTE   W06
 BYTE   PEND 
// 053   ----------------------------------------
Label_4_01165D87:
 BYTE   W06
 BYTE   BEND   c_v-45
 BYTE   N10  Dn4  v127
 BYTE   N10  Gn4
 BYTE   W02
 BYTE   BEND   c_v-32
 BYTE   W02
 BYTE   Gs1
 BYTE   W01
 BYTE   As2
 BYTE   W03
 BYTE   En3
 BYTE   W04
 BYTE   N44  Cn4
 BYTE   N44  En4
 BYTE   W24
 BYTE   BEND   c_v-6
 BYTE   W03
 BYTE   Fs2
 BYTE   W04
 BYTE   Gs1
 BYTE   W03
 BYTE   Dn1
 BYTE   W03
 BYTE   Gn0
 BYTE   W03
 BYTE   Ds0
 BYTE   W04
 BYTE   AnM1
 BYTE   W03
 BYTE   CsM1
 BYTE   W01
 BYTE   GnM1
 BYTE   N10  Cn4
 BYTE   N10  En4
 BYTE   W02
 BYTE   BEND   c_v-32
 BYTE   W02
 BYTE   Gs1
 BYTE   W01
 BYTE   As2
 BYTE   W03
 BYTE   En3
 BYTE   W04
 BYTE   N22  An3
 BYTE   N22  Dn4
 BYTE   W18
 BYTE   PEND 
// 054   ----------------------------------------
Label_4_01165DC4:
 BYTE   W06
 BYTE   N10  An3  v127
 BYTE   N10  Cn4
 BYTE   W12
 BYTE   BEND   c_v-45
 BYTE   TIE  As3
 BYTE   TIE  Dn4
 BYTE   W02
 BYTE   BEND   c_v-32
 BYTE   W02
 BYTE   Gs1
 BYTE   W01
 BYTE   As2
 BYTE   W03
 BYTE   En3
 BYTE   W60
 BYTE   As2
 BYTE   W07
 BYTE   Dn2
 BYTE   W03
 BYTE   PEND 
// 055   ----------------------------------------
Label_4_01165DE0:
 BYTE   W02
 BYTE   BEND   c_v-26
 BYTE   W03
 BYTE   As0
 BYTE   W07
 BYTE   Gn0
 BYTE   W06
 BYTE   AnM1
 BYTE   W04
 BYTE   GnM1
 BYTE   W04
 BYTE   DsM1
 BYTE   W02
 BYTE   PEND 
 BYTE   EOT
 BYTE   As3  v074
 BYTE   W02
 BYTE   BEND   c_v+0
 BYTE   W66
// 056   ----------------------------------------
 BYTE   W96
// 057   ----------------------------------------
 BYTE   W96
// 058   ----------------------------------------
 BYTE   W96
// 059   ----------------------------------------
 BYTE   W96
// 060   ----------------------------------------
 BYTE   W96
// 061   ----------------------------------------
 BYTE   W96
// 062   ----------------------------------------
 BYTE   W96
// 063   ----------------------------------------
 BYTE   W96
 BYTE   PATT
  POIN2 Label_4_01165958
 BYTE   PATT
  POIN2 Label_4_0116596B
 BYTE   PATT
  POIN2 Label_4_01165984
 BYTE   PATT
  POIN2 Label_4_0116599D
 BYTE   PATT
  POIN2 Label_4_011659B6
 BYTE   PATT
  POIN2 Label_4_011659CF
 BYTE   PATT
  POIN2 Label_4_011659E8
 BYTE   PATT
  POIN2 Label_4_01165A1F
// 064   ----------------------------------------
 BYTE   W96
// 065   ----------------------------------------
 BYTE   W96
// 066   ----------------------------------------
 BYTE   W96
// 067   ----------------------------------------
 BYTE   W96
// 068   ----------------------------------------
 BYTE   W96
// 069   ----------------------------------------
 BYTE   W96
// 070   ----------------------------------------
 BYTE   W96
// 071   ----------------------------------------
 BYTE   W96
 BYTE   PATT
  POIN2 Label_4_01165A33
 BYTE   PATT
  POIN2 Label_4_01165A7C
 BYTE   PATT
  POIN2 Label_4_01165A9E
 BYTE   PATT
  POIN2 Label_4_01165AC0
 BYTE   PATT
  POIN2 Label_4_01165AE2
 BYTE   PATT
  POIN2 Label_4_01165B04
 BYTE   PATT
  POIN2 Label_4_01165B26
 BYTE   PATT
  POIN2 Label_4_01165B37
 BYTE   PATT
  POIN2 Label_4_01165B50
 BYTE   PATT
  POIN2 Label_4_01165B7B
 BYTE   PATT
  POIN2 Label_4_01165BA5
 BYTE   PATT
  POIN2 Label_4_01165BDC
 BYTE   PATT
  POIN2 Label_4_01165C03
 BYTE   PATT
  POIN2 Label_4_01165C23
 BYTE   PATT
  POIN2 Label_4_01165C44
 BYTE   PATT
  POIN2 Label_4_01165C86
 BYTE   PATT
  POIN2 Label_4_01165CA5
 BYTE   PATT
  POIN2 Label_4_01165CD1
 BYTE   PATT
  POIN2 Label_4_01165CEC
 BYTE   PATT
  POIN2 Label_4_01165D1C
 BYTE   PATT
  POIN2 Label_4_01165D66
 BYTE   PATT
  POIN2 Label_4_01165D87
 BYTE   PATT
  POIN2 Label_4_01165DC4
 BYTE   PATT
  POIN2 Label_4_01165DE0
// 072   ----------------------------------------
 BYTE   EOT
 BYTE   As3  v074
 BYTE   W02
 BYTE   BEND   c_v+0
 BYTE   FINE

//**************** Track 6 (Midi-Chn.5) ****************//

song30_006:
// 000   ----------------------------------------
 BYTE   KEYSH   song30_key+0
 BYTE   VOICE   48
 BYTE   VOL   49*song30_mvl/mxv
 BYTE   PAN   c_v+0
 BYTE   W30
 BYTE   N96  Bn2  v127
 BYTE   N96  Dn3
 BYTE   N96  Gn3
 BYTE   W66
// 001   ----------------------------------------
 BYTE   W30
 BYTE   Cs3
 BYTE   N96  En3
 BYTE   N96  An3
 BYTE   W66
// 002   ----------------------------------------
 BYTE   W30
 BYTE   Dn3
 BYTE   N96  Fs3
 BYTE   N96  Bn3
 BYTE   W66
// 003   ----------------------------------------
 BYTE   W30
 BYTE   N48
 BYTE   N48  Dn4
 BYTE   N48  Fs4
 BYTE   W48
 BYTE   An3
 BYTE   N48  Cs4
 BYTE   N48  En4
 BYTE   W18
// 004   ----------------------------------------
 BYTE   W30
 BYTE   N96  Gn3
 BYTE   N96  Bn3
 BYTE   N96  Dn4
 BYTE   W66
// 005   ----------------------------------------
 BYTE   W30
 BYTE   An3
 BYTE   N96  Cs4
 BYTE   N96  En4
 BYTE   W66
// 006   ----------------------------------------
 BYTE   W30
 BYTE   Bn3
 BYTE   N96  Cs4
 BYTE   N96  Fs4
 BYTE   W66
// 007   ----------------------------------------
 BYTE   W96
// 008   ----------------------------------------
Label_5_01165EF3:
 BYTE   W30
 BYTE   N96  Bn2  v127
 BYTE   N96  Dn3
 BYTE   N96  Fs3
 BYTE   W66
 BYTE   PEND 
 BYTE   PATT
  POIN2 Label_5_01165EF3
 BYTE   PATT
  POIN2 Label_5_01165EF3
 BYTE   PATT
  POIN2 Label_5_01165EF3
// 009   ----------------------------------------
Label_5_01165F0C:
 BYTE   W30
 BYTE   N96  An2  v127
 BYTE   N96  Cs3
 BYTE   N96  En3
 BYTE   W66
 BYTE   PEND 
 BYTE   PATT
  POIN2 Label_5_01165F0C
// 010   ----------------------------------------
Label_5_01165F1B:
 BYTE   W30
 BYTE   N84  Dn3  v127
 BYTE   N84  Fs3
 BYTE   N84  An3
 BYTE   W66
 BYTE   PEND 
// 011   ----------------------------------------
Label_5_01165F25:
 BYTE   W30
 BYTE   N12  En3  v127
 BYTE   N12  Fs3
 BYTE   N12  As3
 BYTE   W66
 BYTE   PEND 
// 012   ----------------------------------------
Label_5_01165F2F:
 BYTE   W30
 BYTE   TIE  Bn2  v127
 BYTE   TIE  Dn3
 BYTE   TIE  Fs3
 BYTE   TIE  Fs4
 BYTE   W66
 BYTE   PEND 
// 013   ----------------------------------------
 BYTE   W78
 BYTE   EOT
 BYTE   N24  Dn4
 BYTE   W18
// 014   ----------------------------------------
 BYTE   W06
 BYTE   En4
 BYTE   W24
 BYTE   EOT
 BYTE   Bn2  v062
 BYTE   Fs3
 BYTE   TIE  Bn2
 BYTE   TIE  Dn3
 BYTE   TIE  Fs3
 BYTE   N96  Fs4
 BYTE   W66
// 015   ----------------------------------------
Label_5_01165F50:
 BYTE   W30
 BYTE   N48  Bn4  v127
 BYTE   W48
 BYTE   Dn4
 BYTE   W18
 BYTE   PEND 
// 016   ----------------------------------------
 BYTE   W30
 BYTE   EOT
 BYTE   Bn2  v062
 BYTE   Fs3
 BYTE   N96  An2
 BYTE   N96  Cs3
 BYTE   N96  En3
 BYTE   N72  En4
 BYTE   W66
// 017   ----------------------------------------
Label_5_01165F66:
 BYTE   W06
 BYTE   N24  Dn4  v127
 BYTE   W24
 BYTE   N48  An2
 BYTE   N48  Cs3
 BYTE   N36  Cs4
 BYTE   W36
 BYTE   Dn4
 BYTE   W12
 BYTE   N48  Bn2
 BYTE   N48  Dn3
 BYTE   W18
 BYTE   PEND 
// 018   ----------------------------------------
Label_5_01165F7A:
 BYTE   W06
 BYTE   N24  En4  v127
 BYTE   W24
 BYTE   N96  Bn2
 BYTE   N96  Dn3
 BYTE   N96  Fs3
 BYTE   N96  Fs4
 BYTE   W66
 BYTE   PEND 
// 019   ----------------------------------------
 BYTE   W96
// 020   ----------------------------------------
Label_5_01165F8A:
 BYTE   W30
 BYTE   N96  Bn2  v127
 BYTE   N96  En3
 BYTE   N96  Gn3
 BYTE   W66
 BYTE   PEND 
 BYTE   PATT
  POIN2 Label_5_01165F0C
// 021   ----------------------------------------
Label_5_01165F99:
 BYTE   W30
 BYTE   N96  An2  v127
 BYTE   N96  Dn3
 BYTE   N96  Fs3
 BYTE   W66
 BYTE   PEND 
 BYTE   PATT
  POIN2 Label_5_01165EF3
// 022   ----------------------------------------
Label_5_01165FA8:
 BYTE   W30
 BYTE   N96  Bn2  v127
 BYTE   N96  En3
 BYTE   N96  Fs3
 BYTE   W66
 BYTE   PEND 
// 023   ----------------------------------------
Label_5_01165FB2:
 BYTE   W30
 BYTE   N96  As2  v127
 BYTE   N96  Cs3
 BYTE   N96  En3
 BYTE   W66
 BYTE   PEND 
// 024   ----------------------------------------
Label_5_01165FBC:
 BYTE   W30
 BYTE   N36  Fs2  v127
 BYTE   N36  Bn2
 BYTE   N36  Dn3
 BYTE   W36
 BYTE   An2
 BYTE   N36  Cs3
 BYTE   N36  En3
 BYTE   W30
 BYTE   PEND 
// 025   ----------------------------------------
Label_5_01165FCC:
 BYTE   W06
 BYTE   N72  An2  v127
 BYTE   N72  Dn3
 BYTE   N72  Fs3
 BYTE   W72
 BYTE   N48  Bn2
 BYTE   N48  Ds3
 BYTE   N48  Fs3
 BYTE   W18
 BYTE   PEND 
// 026   ----------------------------------------
 BYTE   W30
 BYTE   N96  En3
 BYTE   N96  Gn3
 BYTE   W66
// 027   ----------------------------------------
Label_5_01165FE3:
 BYTE   W30
 BYTE   N96  Cs3  v127
 BYTE   N96  En3
 BYTE   W66
 BYTE   PEND 
// 028   ----------------------------------------
Label_5_01165FEB:
 BYTE   W30
 BYTE   N96  Cs3  v127
 BYTE   N96  Fs3
 BYTE   W66
 BYTE   PEND 
// 029   ----------------------------------------
Label_5_01165FF3:
 BYTE   W30
 BYTE   N48  Bn2  v127
 BYTE   N48  Dn3
 BYTE   W48
 BYTE   Cs3
 BYTE   N48  En3
 BYTE   W18
 BYTE   PEND 
// 030   ----------------------------------------
Label_5_01165FFF:
 BYTE   W30
 BYTE   TIE  Bn2  v127
 BYTE   TIE  Dn3
 BYTE   W66
 BYTE   PEND 
// 031   ----------------------------------------
 BYTE   W96
// 032   ----------------------------------------
 BYTE   W30
 BYTE   EOT
 BYTE   Bn2  v062
 BYTE   N96  Cs3
 BYTE   N96  En3
 BYTE   W66
// 033   ----------------------------------------
 BYTE   W96
// 034   ----------------------------------------
Label_5_01166012:
 BYTE   W30
 BYTE   N96  Fn1  v127
 BYTE   N96  As1
 BYTE   N96  Fn2
 BYTE   N96  As2
 BYTE   W66
 BYTE   PEND 
// 035   ----------------------------------------
Label_5_0116601E:
 BYTE   W30
 BYTE   N96  Gn1  v127
 BYTE   N96  Cn2
 BYTE   N96  Gn2
 BYTE   N96  Cn3
 BYTE   W66
 BYTE   PEND 
// 036   ----------------------------------------
Label_5_0116602A:
 BYTE   W30
 BYTE   N96  An1  v127
 BYTE   N96  Dn2
 BYTE   N96  An2
 BYTE   N96  Dn3
 BYTE   W66
 BYTE   PEND 
// 037   ----------------------------------------
Label_5_01166036:
 BYTE   W30
 BYTE   N48  An1  v127
 BYTE   N48  Dn2
 BYTE   N48  An2
 BYTE   N48  Dn3
 BYTE   W48
 BYTE   An1
 BYTE   N48  Cn2
 BYTE   N48  An2
 BYTE   N48  Cn3
 BYTE   W18
 BYTE   PEND 
 BYTE   PATT
  POIN2 Label_5_01166012
 BYTE   PATT
  POIN2 Label_5_0116601E
// 038   ----------------------------------------
Label_5_01166054:
 BYTE   W30
 BYTE   N96  Cn2  v127
 BYTE   N96  En2
 BYTE   N96  Cn3
 BYTE   N96  En3
 BYTE   W66
 BYTE   PEND 
// 039   ----------------------------------------
Label_5_01166060:
 BYTE   W30
 BYTE   N96  Cn2  v127
 BYTE   N48  Fn2
 BYTE   N96  Cn3
 BYTE   N48  Fn3
 BYTE   W48
 BYTE   En2
 BYTE   N48  En3
 BYTE   W18
 BYTE   PEND 
// 040   ----------------------------------------
Label_5_01166070:
 BYTE   W30
 BYTE   N96  As1  v127
 BYTE   N96  Dn2
 BYTE   N96  As2
 BYTE   N96  Dn3
 BYTE   W66
 BYTE   PEND 
 BYTE   PATT
  POIN2 Label_5_01166054
// 041   ----------------------------------------
Label_5_01166081:
 BYTE   W30
 BYTE   N96  Cs2  v127
 BYTE   N96  En2
 BYTE   N96  Cs3
 BYTE   N96  En3
 BYTE   W66
 BYTE   PEND 
// 042   ----------------------------------------
Label_5_0116608D:
 BYTE   W30
 BYTE   N48  Dn2  v127
 BYTE   N48  Fn2
 BYTE   N48  Dn3
 BYTE   N48  Fn3
 BYTE   W48
 BYTE   Cn2
 BYTE   N48  En2
 BYTE   N48  Cn3
 BYTE   N48  En3
 BYTE   W18
 BYTE   PEND 
 BYTE   PATT
  POIN2 Label_5_01166070
// 043   ----------------------------------------
Label_5_011660A6:
 BYTE   W30
 BYTE   N96  Dn2  v127
 BYTE   N96  Gn2
 BYTE   N96  Dn3
 BYTE   N96  Gn3
 BYTE   W66
 BYTE   PEND 
// 044   ----------------------------------------
Label_5_011660B2:
 BYTE   W30
 BYTE   N96  Ds2  v127
 BYTE   N96  Gn2
 BYTE   N96  Ds3
 BYTE   N96  Gn3
 BYTE   W66
 BYTE   PEND 
// 045   ----------------------------------------
 BYTE   W96
 BYTE   PATT
  POIN2 Label_5_01165EF3
 BYTE   PATT
  POIN2 Label_5_01165EF3
 BYTE   PATT
  POIN2 Label_5_01165EF3
 BYTE   PATT
  POIN2 Label_5_01165EF3
 BYTE   PATT
  POIN2 Label_5_01165F0C
 BYTE   PATT
  POIN2 Label_5_01165F0C
 BYTE   PATT
  POIN2 Label_5_01165F1B
 BYTE   PATT
  POIN2 Label_5_01165F25
 BYTE   PATT
  POIN2 Label_5_01165F2F
// 046   ----------------------------------------
 BYTE   W78
 BYTE   EOT
 BYTE   Fs4
 BYTE   N24  Dn4  v127
 BYTE   W18
// 047   ----------------------------------------
 BYTE   W06
 BYTE   En4
 BYTE   W24
 BYTE   EOT
 BYTE   Bn2  v062
 BYTE   Fs3
 BYTE   TIE  Bn2
 BYTE   TIE  Dn3
 BYTE   TIE  Fs3
 BYTE   N96  Fs4
 BYTE   W66
 BYTE   PATT
  POIN2 Label_5_01165F50
// 048   ----------------------------------------
 BYTE   W30
 BYTE   EOT
 BYTE   Bn2  v062
 BYTE   Fs3
 BYTE   N96  An2  v127
 BYTE   N96  Cs3
 BYTE   N96  En3
 BYTE   N72  En4
 BYTE   W66
 BYTE   PATT
  POIN2 Label_5_01165F66
 BYTE   PATT
  POIN2 Label_5_01165F7A
// 049   ----------------------------------------
 BYTE   W96
 BYTE   PATT
  POIN2 Label_5_01165F8A
 BYTE   PATT
  POIN2 Label_5_01165F0C
 BYTE   PATT
  POIN2 Label_5_01165F99
 BYTE   PATT
  POIN2 Label_5_01165EF3
 BYTE   PATT
  POIN2 Label_5_01165FA8
 BYTE   PATT
  POIN2 Label_5_01165FB2
 BYTE   PATT
  POIN2 Label_5_01165FBC
 BYTE   PATT
  POIN2 Label_5_01165FCC
// 050   ----------------------------------------
 BYTE   W30
 BYTE   N96  En3  v127
 BYTE   N96  Gn3
 BYTE   W66
 BYTE   PATT
  POIN2 Label_5_01165FE3
 BYTE   PATT
  POIN2 Label_5_01165FEB
 BYTE   PATT
  POIN2 Label_5_01165FF3
 BYTE   PATT
  POIN2 Label_5_01165FFF
// 051   ----------------------------------------
 BYTE   W96
// 052   ----------------------------------------
 BYTE   W30
 BYTE   EOT
 BYTE   Bn2  v062
 BYTE   N96  Cs3  v127
 BYTE   N96  En3
 BYTE   W66
// 053   ----------------------------------------
 BYTE   W96
 BYTE   PATT
  POIN2 Label_5_01166012
 BYTE   PATT
  POIN2 Label_5_0116601E
 BYTE   PATT
  POIN2 Label_5_0116602A
 BYTE   PATT
  POIN2 Label_5_01166036
 BYTE   PATT
  POIN2 Label_5_01166012
 BYTE   PATT
  POIN2 Label_5_0116601E
 BYTE   PATT
  POIN2 Label_5_01166054
 BYTE   PATT
  POIN2 Label_5_01166060
 BYTE   PATT
  POIN2 Label_5_01166070
 BYTE   PATT
  POIN2 Label_5_01166054
 BYTE   PATT
  POIN2 Label_5_01166081
 BYTE   PATT
  POIN2 Label_5_0116608D
 BYTE   PATT
  POIN2 Label_5_01166070
 BYTE   PATT
  POIN2 Label_5_011660A6
 BYTE   PATT
  POIN2 Label_5_011660B2
// 054   ----------------------------------------
 BYTE   W30
 BYTE   FINE

//**************** Track 7 (Midi-Chn.6) ****************//

song30_007:
// 000   ----------------------------------------
 BYTE   KEYSH   song30_key+0
 BYTE   VOICE   127
 BYTE   VOL   52*song30_mvl/mxv
 BYTE   PAN   c_v+0
 BYTE   W30
 BYTE   N24  Cs2  v127
 BYTE   W66
// 001   ----------------------------------------
 BYTE   W30
 BYTE   N24
 BYTE   W66
// 002   ----------------------------------------
 BYTE   W30
 BYTE   N24
 BYTE   W66
// 003   ----------------------------------------
 BYTE   W30
 BYTE   N36
 BYTE   W48
 BYTE   N36
 BYTE   W18
// 004   ----------------------------------------
 BYTE   W78
 BYTE   N24
 BYTE   W18
// 005   ----------------------------------------
 BYTE   W78
 BYTE   N24
 BYTE   W18
// 006   ----------------------------------------
 BYTE   W30
 BYTE   N24
 BYTE   W66
// 007   ----------------------------------------
 BYTE   W18
 BYTE   N36
 BYTE   W78
// 008   ----------------------------------------
 BYTE   W30
 BYTE   N12  Bn0
 BYTE   N12  Fs1
 BYTE   N48  Cs2
 BYTE   W12
 BYTE   N12  Bn0
 BYTE   N12  Fs1
 BYTE   W12
 BYTE   Dn1
 BYTE   N12  As1
 BYTE   W12
 BYTE   Bn0
 BYTE   N12  Gs1
 BYTE   W12
 BYTE   Bn0
 BYTE   N12  Fs1
 BYTE   W12
 BYTE   Bn0
 BYTE   N12  Fs1
 BYTE   W06
// 009   ----------------------------------------
Label_6_01166201:
 BYTE   W06
 BYTE   N12  Dn1  v127
 BYTE   N12  As1
 BYTE   W12
 BYTE   Bn0
 BYTE   N12  Gs1
 BYTE   W12
 BYTE   Bn0
 BYTE   N12  Fs1
 BYTE   W12
 BYTE   Bn0
 BYTE   N12  Fs1
 BYTE   W12
 BYTE   Dn1
 BYTE   N12  As1
 BYTE   W12
 BYTE   Bn0
 BYTE   N12  Gs1
 BYTE   W12
 BYTE   Bn0
 BYTE   N12  Fs1
 BYTE   W12
 BYTE   Bn0
 BYTE   N12  Fs1
 BYTE   W06
 BYTE   PEND 
// 010   ----------------------------------------
Label_6_01166225:
 BYTE   W06
 BYTE   N12  Dn1  v127
 BYTE   N12  As1
 BYTE   W12
 BYTE   Bn0
 BYTE   N12  Dn1
 BYTE   N12  Gs1
 BYTE   W12
 BYTE   Bn0
 BYTE   N12  Fs1
 BYTE   W12
 BYTE   Bn0
 BYTE   N12  Fs1
 BYTE   W12
 BYTE   Dn1
 BYTE   N12  As1
 BYTE   W12
 BYTE   Bn0
 BYTE   N12  Gs1
 BYTE   W12
 BYTE   Bn0
 BYTE   N12  Fs1
 BYTE   W12
 BYTE   Bn0
 BYTE   N12  Fs1
 BYTE   W06
 BYTE   PEND 
// 011   ----------------------------------------
Label_6_0116624B:
 BYTE   W06
 BYTE   N12  Dn1  v127
 BYTE   N12  As1
 BYTE   W12
 BYTE   Bn0
 BYTE   N12  Gs1
 BYTE   W12
 BYTE   Bn0
 BYTE   N12  Fs1
 BYTE   W12
 BYTE   Bn0
 BYTE   N12  Fs1
 BYTE   W12
 BYTE   Dn1
 BYTE   N12  As1
 BYTE   W12
 BYTE   Bn0
 BYTE   N12  Gs1
 BYTE   W12
 BYTE   Bn0
 BYTE   N12  Fs1
 BYTE   W12
 BYTE   Dn1
 BYTE   N12  Fs1
 BYTE   W06
 BYTE   PEND 
// 012   ----------------------------------------
Label_6_0116626F:
 BYTE   W06
 BYTE   N12  Dn1  v127
 BYTE   N12  As1
 BYTE   N12  Cs2
 BYTE   W12
 BYTE   Bn0
 BYTE   N12  Gs1
 BYTE   W12
 BYTE   Bn0
 BYTE   N12  Fs1
 BYTE   N48  Cs2
 BYTE   W12
 BYTE   N12  Bn0
 BYTE   N12  Fs1
 BYTE   W12
 BYTE   Dn1
 BYTE   N12  As1
 BYTE   W12
 BYTE   Bn0
 BYTE   N12  Gs1
 BYTE   W12
 BYTE   Bn0
 BYTE   N12  Fs1
 BYTE   W12
 BYTE   Bn0
 BYTE   N12  Fs1
 BYTE   W06
 BYTE   PEND 
// 013   ----------------------------------------
Label_6_01166298:
 BYTE   W06
 BYTE   N12  Dn1  v127
 BYTE   N12  As1
 BYTE   W12
 BYTE   Bn0
 BYTE   N12  Gs1
 BYTE   W12
 BYTE   Bn0
 BYTE   N12  Dn1
 BYTE   N12  Fs1
 BYTE   N24  Cs2
 BYTE   W12
 BYTE   N12  Bn0
 BYTE   N12  Fs1
 BYTE   W12
 BYTE   Dn1
 BYTE   N12  As1
 BYTE   W12
 BYTE   Bn0
 BYTE   N12  Gs1
 BYTE   N24  Cs2
 BYTE   W12
 BYTE   N12  Bn0
 BYTE   N12  Fs1
 BYTE   W12
 BYTE   Bn0
 BYTE   N12  Fs1
 BYTE   W06
 BYTE   PEND 
// 014   ----------------------------------------
Label_6_011662C4:
 BYTE   W06
 BYTE   N12  Dn1  v127
 BYTE   N12  As1
 BYTE   N24  Cs2
 BYTE   W12
 BYTE   N12  Bn0
 BYTE   N12  Dn1
 BYTE   N12  Gs1
 BYTE   W12
 BYTE   Bn0
 BYTE   N12  Dn1
 BYTE   N12  Fs1
 BYTE   N12  Cs2
 BYTE   W12
 BYTE   Bn0
 BYTE   N12  As1
 BYTE   W12
 BYTE   Bn0
 BYTE   N12  Dn1
 BYTE   N12  Fs1
 BYTE   N12  Cs2
 BYTE   W12
 BYTE   Bn0
 BYTE   N12  As1
 BYTE   W12
 BYTE   Bn0
 BYTE   N12  Dn1
 BYTE   N12  Fs1
 BYTE   N12  Bn1
 BYTE   N12  Cs2
 BYTE   W12
 BYTE   Bn0
 BYTE   N12  Dn1
 BYTE   N12  An1
 BYTE   N12  As1
 BYTE   N12  Cs2
 BYTE   W06
 BYTE   PEND 
// 015   ----------------------------------------
Label_6_01166301:
 BYTE   W06
 BYTE   N12  Bn0  v127
 BYTE   N12  Dn1
 BYTE   N12  Fs1
 BYTE   N12  Gn1
 BYTE   N12  Cs2
 BYTE   W12
 BYTE   Bn0
 BYTE   N12  Dn1
 BYTE   N12  Fn1
 BYTE   N12  As1
 BYTE   N12  Cs2
 BYTE   W72
 BYTE   Bn0
 BYTE   N12  An1
 BYTE   W06
 BYTE   PEND 
// 016   ----------------------------------------
Label_6_0116631D:
 BYTE   W06
 BYTE   N12  Bn0  v127
 BYTE   N12  Gn1
 BYTE   N12  Cs2
 BYTE   W24
 BYTE   Bn0
 BYTE   N12  Fs1
 BYTE   N48  Cs2
 BYTE   W12
 BYTE   N12  Bn0
 BYTE   N12  Fs1
 BYTE   W12
 BYTE   Dn1
 BYTE   N12  As1
 BYTE   W12
 BYTE   Bn0
 BYTE   N12  Gs1
 BYTE   W12
 BYTE   Bn0
 BYTE   N12  Fs1
 BYTE   W12
 BYTE   Bn0
 BYTE   N12  Fs1
 BYTE   W06
 BYTE   PEND 
 BYTE   PATT
  POIN2 Label_6_01166201
 BYTE   PATT
  POIN2 Label_6_01166225
 BYTE   PATT
  POIN2 Label_6_0116624B
 BYTE   PATT
  POIN2 Label_6_0116626F
 BYTE   PATT
  POIN2 Label_6_01166298
// 017   ----------------------------------------
Label_6_0116635B:
 BYTE   W06
 BYTE   N12  Dn1  v127
 BYTE   N12  As1
 BYTE   N24  Cs2
 BYTE   W12
 BYTE   N12  Bn0
 BYTE   N12  Dn1
 BYTE   N12  Gs1
 BYTE   W12
 BYTE   Bn0
 BYTE   N12  Dn1
 BYTE   N12  Fs1
 BYTE   N24  Cs2
 BYTE   W12
 BYTE   N12  Bn0
 BYTE   N12  As1
 BYTE   W12
 BYTE   Bn0
 BYTE   N12  Dn1
 BYTE   N12  Fs1
 BYTE   N24  Cs2
 BYTE   W12
 BYTE   N12  Bn0
 BYTE   N12  As1
 BYTE   W12
 BYTE   Bn0
 BYTE   N12  Dn1
 BYTE   N12  Fs1
 BYTE   N12  Bn1
 BYTE   N12  Cs2
 BYTE   W12
 BYTE   Bn0
 BYTE   N12  Dn1
 BYTE   N12  An1
 BYTE   N12  As1
 BYTE   N12  Cs2
 BYTE   W06
 BYTE   PEND 
// 018   ----------------------------------------
Label_6_0116639A:
 BYTE   W06
 BYTE   N12  Bn0  v127
 BYTE   N12  Dn1
 BYTE   N12  Fs1
 BYTE   N12  Gn1
 BYTE   N12  Cs2
 BYTE   W12
 BYTE   Bn0
 BYTE   N12  Dn1
 BYTE   N12  Fn1
 BYTE   N12  As1
 BYTE   N36  Cs2
 BYTE   W72
 BYTE   N12  Bn0
 BYTE   N12  Bn1
 BYTE   W06
 BYTE   PEND 
// 019   ----------------------------------------
Label_6_011663B7:
 BYTE   W06
 BYTE   N12  Bn0  v127
 BYTE   N12  En1
 BYTE   N12  Gn1
 BYTE   N12  As1
 BYTE   N12  Cs2
 BYTE   W24
 BYTE   Bn0
 BYTE   N12  Fs1
 BYTE   N48  Cs2
 BYTE   N12  Fn2
 BYTE   W12
 BYTE   N06  Gs1
 BYTE   W06
 BYTE   N06
 BYTE   W06
 BYTE   N12  As1
 BYTE   W12
 BYTE   Bn0
 BYTE   N12  Fs1
 BYTE   N12  Fn2
 BYTE   W12
 BYTE   Bn0
 BYTE   N12  Fs1
 BYTE   N12  Fn2
 BYTE   W12
 BYTE   N06  Gs1
 BYTE   N06  Fs2
 BYTE   N06  Ds4
 BYTE   W06
 BYTE   PEND 
// 020   ----------------------------------------
Label_6_011663E8:
 BYTE   N06  Gs1  v127
 BYTE   N06  Fs2
 BYTE   N06  Ds4
 BYTE   W06
 BYTE   N12  Bn0
 BYTE   N12  As1
 BYTE   N12  Fn2
 BYTE   W12
 BYTE   Fs1
 BYTE   W12
 BYTE   Bn0
 BYTE   N12  Fs1
 BYTE   N12  Fn2
 BYTE   W12
 BYTE   N06  Gs1
 BYTE   W06
 BYTE   N06
 BYTE   W06
 BYTE   N12  As1
 BYTE   W12
 BYTE   Bn0
 BYTE   N12  Fs1
 BYTE   N12  Fn2
 BYTE   W12
 BYTE   Bn0
 BYTE   N12  Fs1
 BYTE   N12  Fn2
 BYTE   W12
 BYTE   N06  Gs1
 BYTE   N06  Fs2
 BYTE   N06  Ds4
 BYTE   W06
 BYTE   PEND 
 BYTE   PATT
  POIN2 Label_6_011663E8
 BYTE   PATT
  POIN2 Label_6_011663E8
// 021   ----------------------------------------
Label_6_01166425:
 BYTE   N06  Gs1  v127
 BYTE   N06  Fs2
 BYTE   N06  Ds4
 BYTE   W06
 BYTE   N12  Bn0
 BYTE   N12  As1
 BYTE   N12  Fn2
 BYTE   W12
 BYTE   Fs1
 BYTE   W12
 BYTE   Bn0
 BYTE   N12  Fs1
 BYTE   N48  Cs2
 BYTE   N12  Fn2
 BYTE   W12
 BYTE   N06  Gs1
 BYTE   W06
 BYTE   N06
 BYTE   W06
 BYTE   N12  As1
 BYTE   W12
 BYTE   Bn0
 BYTE   N12  Fs1
 BYTE   N12  Fn2
 BYTE   W12
 BYTE   Bn0
 BYTE   N12  Fs1
 BYTE   N12  Fn2
 BYTE   W12
 BYTE   N06  Gs1
 BYTE   N06  Fs2
 BYTE   N06  Ds4
 BYTE   W06
 BYTE   PEND 
// 022   ----------------------------------------
Label_6_0116645A:
 BYTE   N06  Gs1  v127
 BYTE   N06  Fs2
 BYTE   N06  Ds4
 BYTE   W06
 BYTE   N12  Bn0
 BYTE   N12  As1
 BYTE   N12  Fn2
 BYTE   W12
 BYTE   Fs1
 BYTE   W12
 BYTE   Bn0
 BYTE   N12  Fs1
 BYTE   N12  Fn2
 BYTE   W12
 BYTE   N06  Gs1
 BYTE   W06
 BYTE   N06
 BYTE   W06
 BYTE   N12  As1
 BYTE   W12
 BYTE   Bn0
 BYTE   N12  Fs1
 BYTE   N12  Fn2
 BYTE   W12
 BYTE   Bn0
 BYTE   N12  Fs1
 BYTE   N12  Fn2
 BYTE   W12
 BYTE   N06  Gs1
 BYTE   N12  Bn1
 BYTE   N06  Fs2
 BYTE   N06  Ds4
 BYTE   W06
 BYTE   PEND 
// 023   ----------------------------------------
Label_6_0116648F:
 BYTE   N06  Gs1  v127
 BYTE   N06  Fs2
 BYTE   N06  Ds4
 BYTE   W06
 BYTE   N12  Bn0
 BYTE   N12  As1
 BYTE   N12  Bn1
 BYTE   N12  Cs2
 BYTE   N12  Fn2
 BYTE   W12
 BYTE   Fs1
 BYTE   N12  An1
 BYTE   W12
 BYTE   Bn0
 BYTE   N24  Dn1
 BYTE   N12  As1
 BYTE   N12  Cs2
 BYTE   N12  Dn2
 BYTE   W12
 BYTE   Bn0
 BYTE   N12  Cn2
 BYTE   W12
 BYTE   Bn0
 BYTE   N12  Bn1
 BYTE   W12
 BYTE   Bn0
 BYTE   N24  Dn1
 BYTE   N12  As1
 BYTE   N12  Cs2
 BYTE   N12  Dn2
 BYTE   W12
 BYTE   Bn0
 BYTE   N12  Cn2
 BYTE   W12
 BYTE   Bn0
 BYTE   N12  Bn1
 BYTE   W06
 BYTE   PEND 
// 024   ----------------------------------------
Label_6_011664CB:
 BYTE   W06
 BYTE   N12  Bn0  v127
 BYTE   N24  Dn1
 BYTE   N12  An1
 BYTE   N12  As1
 BYTE   N12  Cs2
 BYTE   W12
 BYTE   Bn0
 BYTE   N12  Gn1
 BYTE   W12
 BYTE   Bn0
 BYTE   N12  Dn1
 BYTE   N06  Gs1
 BYTE   N12  Cs2
 BYTE   W06
 BYTE   N06  Gs1
 BYTE   W06
 BYTE   N12  Bn0
 BYTE   N12  As1
 BYTE   W12
 BYTE   Bn0
 BYTE   N12  Dn1
 BYTE   N12  Gs1
 BYTE   N12  Cs2
 BYTE   W12
 BYTE   Bn0
 BYTE   N12  As1
 BYTE   W12
 BYTE   Bn0
 BYTE   N12  Dn1
 BYTE   N06  Gs1
 BYTE   N12  Cn2
 BYTE   N12  Cs2
 BYTE   W06
 BYTE   N06  Gs1
 BYTE   W06
 BYTE   Bn0
 BYTE   N06  Dn1
 BYTE   N12  As1
 BYTE   N06  Bn1
 BYTE   N12  Cs2
 BYTE   W06
 BYTE   PEND 
// 025   ----------------------------------------
Label_6_01166510:
 BYTE   N06  Bn0  v127
 BYTE   N06  Dn1
 BYTE   N06  An1
 BYTE   W06
 BYTE   N01  Bn0
 BYTE   N12  Dn1
 BYTE   N12  Gn1
 BYTE   N06  Gs1
 BYTE   N12  Cs2
 BYTE   W06
 BYTE   N06  Gs1
 BYTE   W06
 BYTE   N12  Bn0
 BYTE   N12  Dn1
 BYTE   N12  Fn1
 BYTE   N12  As1
 BYTE   N12  Cs2
 BYTE   W12
 BYTE   Bn0
 BYTE   N06  Fs1
 BYTE   N48  Cs2
 BYTE   W06
 BYTE   N06  Fs1
 BYTE   W06
 BYTE   Bn0
 BYTE   N12  As1
 BYTE   N12  Fs2
 BYTE   W06
 BYTE   N06  Bn0
 BYTE   W06
 BYTE   N12  Dn1
 BYTE   N06  Fs1
 BYTE   W06
 BYTE   N06
 BYTE   W06
 BYTE   N12  Bn0
 BYTE   N12  As1
 BYTE   N12  Fs2
 BYTE   W12
 BYTE   Bn0
 BYTE   N06  Fs1
 BYTE   W06
 BYTE   N06
 BYTE   W06
 BYTE   Bn0
 BYTE   N12  As1
 BYTE   N12  Fs2
 BYTE   W06
 BYTE   PEND 
// 026   ----------------------------------------
Label_6_0116655E:
 BYTE   N06  Bn0  v127
 BYTE   W06
 BYTE   N12  Dn1
 BYTE   N06  Fs1
 BYTE   W06
 BYTE   N06
 BYTE   W06
 BYTE   N12  Bn0
 BYTE   N12  As1
 BYTE   N12  Fs2
 BYTE   W12
 BYTE   Bn0
 BYTE   N06  Fs1
 BYTE   W06
 BYTE   N06
 BYTE   W06
 BYTE   Bn0
 BYTE   N12  As1
 BYTE   N12  Fs2
 BYTE   W06
 BYTE   N06  Bn0
 BYTE   W06
 BYTE   N12  Dn1
 BYTE   N06  Fs1
 BYTE   W06
 BYTE   N06
 BYTE   W06
 BYTE   N12  Bn0
 BYTE   N12  As1
 BYTE   N12  Fs2
 BYTE   W12
 BYTE   Bn0
 BYTE   N06  Fs1
 BYTE   W06
 BYTE   N06
 BYTE   W06
 BYTE   Bn0
 BYTE   N12  As1
 BYTE   N12  Fs2
 BYTE   W06
 BYTE   PEND 
 BYTE   PATT
  POIN2 Label_6_0116655E
// 027   ----------------------------------------
Label_6_0116659F:
 BYTE   N06  Bn0  v127
 BYTE   W06
 BYTE   N12  Dn1
 BYTE   N06  Fs1
 BYTE   W06
 BYTE   N06
 BYTE   W06
 BYTE   N12  Bn0
 BYTE   N12  As1
 BYTE   N12  Fs2
 BYTE   W12
 BYTE   Bn0
 BYTE   N06  Fs1
 BYTE   W06
 BYTE   N06
 BYTE   W06
 BYTE   Bn0
 BYTE   N12  As1
 BYTE   N12  Fs2
 BYTE   W06
 BYTE   N06  Bn0
 BYTE   W06
 BYTE   N12  Dn1
 BYTE   N06  Fs1
 BYTE   W06
 BYTE   N06
 BYTE   W06
 BYTE   N12  Bn0
 BYTE   N12  As1
 BYTE   N12  Fs2
 BYTE   W12
 BYTE   Bn0
 BYTE   N06  Fs1
 BYTE   W06
 BYTE   N06
 BYTE   W06
 BYTE   Dn1
 BYTE   N12  As1
 BYTE   N12  Fs2
 BYTE   W06
 BYTE   PEND 
// 028   ----------------------------------------
Label_6_011665DB:
 BYTE   N06  Bn0  v127
 BYTE   W06
 BYTE   N12  Dn1
 BYTE   N06  Fs1
 BYTE   N12  Cs2
 BYTE   W06
 BYTE   N06  Fs1
 BYTE   W06
 BYTE   N12  Dn1
 BYTE   N12  As1
 BYTE   N12  Fs2
 BYTE   W12
 BYTE   Bn0
 BYTE   N06  Fs1
 BYTE   N48  Cs2
 BYTE   W06
 BYTE   N06  Fs1
 BYTE   W06
 BYTE   Bn0
 BYTE   N12  As1
 BYTE   N12  Fs2
 BYTE   W06
 BYTE   N06  Bn0
 BYTE   W06
 BYTE   N12  Dn1
 BYTE   N06  Fs1
 BYTE   W06
 BYTE   N06
 BYTE   W06
 BYTE   N12  Bn0
 BYTE   N12  As1
 BYTE   N12  Fs2
 BYTE   W12
 BYTE   Bn0
 BYTE   N06  Fs1
 BYTE   W06
 BYTE   N06
 BYTE   W06
 BYTE   Bn0
 BYTE   N12  As1
 BYTE   N12  Fs2
 BYTE   W06
 BYTE   PEND 
 BYTE   PATT
  POIN2 Label_6_0116655E
// 029   ----------------------------------------
Label_6_01166622:
 BYTE   N06  Bn0  v127
 BYTE   W06
 BYTE   N12  Dn1
 BYTE   N06  Fs1
 BYTE   W06
 BYTE   N06
 BYTE   W06
 BYTE   N12  Bn0
 BYTE   N12  As1
 BYTE   N12  Fs2
 BYTE   W12
 BYTE   Bn0
 BYTE   N12  Dn1
 BYTE   N06  Fs1
 BYTE   N12  Cs2
 BYTE   W06
 BYTE   N06  Fs1
 BYTE   W06
 BYTE   Bn0
 BYTE   N12  As1
 BYTE   N12  Fs2
 BYTE   W06
 BYTE   N06  Bn0
 BYTE   W06
 BYTE   N12  Dn1
 BYTE   N06  Fs1
 BYTE   N12  Cs2
 BYTE   W06
 BYTE   N06  Fs1
 BYTE   W06
 BYTE   N12  Bn0
 BYTE   N12  As1
 BYTE   N12  Fs2
 BYTE   W12
 BYTE   Bn0
 BYTE   N12  Dn1
 BYTE   N06  Fs1
 BYTE   N06  Bn1
 BYTE   N12  Cs2
 BYTE   W06
 BYTE   N06  Fs1
 BYTE   W06
 BYTE   Bn0
 BYTE   N06  Dn1
 BYTE   N06  An1
 BYTE   N12  As1
 BYTE   N06  Cs2
 BYTE   N12  Fs2
 BYTE   W06
 BYTE   PEND 
// 030   ----------------------------------------
Label_6_01166673:
 BYTE   N06  Bn0  v127
 BYTE   W06
 BYTE   N12  Dn1
 BYTE   N06  Fs1
 BYTE   N06  Gn1
 BYTE   N12  Cs2
 BYTE   W06
 BYTE   N06  Fs1
 BYTE   W06
 BYTE   N12  Bn0
 BYTE   N12  Dn1
 BYTE   N06  Fn1
 BYTE   N12  As1
 BYTE   N12  Cs2
 BYTE   N12  Fs2
 BYTE   W60
 BYTE   Bn0
 BYTE   N12  Bn1
 BYTE   N12  Cs2
 BYTE   W12
 BYTE   N06  Bn0
 BYTE   N06  An1
 BYTE   W06
 BYTE   PEND 
// 031   ----------------------------------------
Label_6_0116669C:
 BYTE   N06  Bn0  v127
 BYTE   N06  Gn1
 BYTE   W06
 BYTE   N01  Bn0
 BYTE   N12  Cn1
 BYTE   N12  Dn1
 BYTE   N12  Fn1
 BYTE   N12  Cn2
 BYTE   N12  Cs2
 BYTE   W12
 BYTE   Bn0
 BYTE   N12  Cn1
 BYTE   N12  Dn1
 BYTE   N12  Fn1
 BYTE   N12  Cs2
 BYTE   W12
 BYTE   Bn0
 BYTE   N06  Fs1
 BYTE   N48  Cs2
 BYTE   W06
 BYTE   N06  Fs1
 BYTE   W06
 BYTE   Bn0
 BYTE   N12  As1
 BYTE   N12  Fs2
 BYTE   W06
 BYTE   N06  Bn0
 BYTE   W06
 BYTE   N12  Dn1
 BYTE   N06  Fs1
 BYTE   W06
 BYTE   N06
 BYTE   W06
 BYTE   N12  Bn0
 BYTE   N12  As1
 BYTE   N12  Fs2
 BYTE   W12
 BYTE   Bn0
 BYTE   N06  Fs1
 BYTE   W06
 BYTE   N06
 BYTE   W06
 BYTE   Bn0
 BYTE   N12  As1
 BYTE   N12  Fs2
 BYTE   W06
 BYTE   PEND 
 BYTE   PATT
  POIN2 Label_6_0116655E
 BYTE   PATT
  POIN2 Label_6_0116655E
 BYTE   PATT
  POIN2 Label_6_0116659F
 BYTE   PATT
  POIN2 Label_6_011665DB
 BYTE   PATT
  POIN2 Label_6_0116655E
// 032   ----------------------------------------
Label_6_011666FF:
 BYTE   N06  Bn0  v127
 BYTE   W06
 BYTE   N12  Dn1
 BYTE   N06  Fs1
 BYTE   W06
 BYTE   N06
 BYTE   W06
 BYTE   N12  Bn0
 BYTE   N12  As1
 BYTE   N12  Fs2
 BYTE   W12
 BYTE   Bn0
 BYTE   N12  Dn1
 BYTE   N06  Fs1
 BYTE   W06
 BYTE   N06
 BYTE   W06
 BYTE   Bn0
 BYTE   N12  As1
 BYTE   N12  Fs2
 BYTE   W06
 BYTE   N06  Bn0
 BYTE   W06
 BYTE   N12  Dn1
 BYTE   N06  Fs1
 BYTE   W06
 BYTE   N06
 BYTE   W06
 BYTE   N12  Bn0
 BYTE   N12  As1
 BYTE   N12  Fs2
 BYTE   W12
 BYTE   Bn0
 BYTE   N12  Dn1
 BYTE   N06  Fs1
 BYTE   W06
 BYTE   N06
 BYTE   W06
 BYTE   Bn0
 BYTE   N06  Dn1
 BYTE   N12  As1
 BYTE   N12  Fs2
 BYTE   W06
 BYTE   PEND 
// 033   ----------------------------------------
Label_6_01166741:
 BYTE   N06  Bn0  v127
 BYTE   N06  Dn1
 BYTE   W06
 BYTE   N01
 BYTE   N06  Fs1
 BYTE   N12  Cs2
 BYTE   W06
 BYTE   N06  Fs1
 BYTE   W06
 BYTE   N12  Bn0
 BYTE   N12  As1
 BYTE   N12  Fs2
 BYTE   W12
 BYTE   Bn0
 BYTE   N12  Dn1
 BYTE   N06  Fs1
 BYTE   W06
 BYTE   N06
 BYTE   W06
 BYTE   Bn0
 BYTE   N12  As1
 BYTE   N12  Fs2
 BYTE   W06
 BYTE   N06  Bn0
 BYTE   W06
 BYTE   N12  Dn1
 BYTE   N06  Fs1
 BYTE   W06
 BYTE   N06
 BYTE   W06
 BYTE   N12  Bn0
 BYTE   N12  As1
 BYTE   N12  Fs2
 BYTE   W12
 BYTE   Bn0
 BYTE   N06  Dn1
 BYTE   N06  Fs1
 BYTE   W06
 BYTE   N06
 BYTE   W06
 BYTE   Dn1
 BYTE   N12  As1
 BYTE   N12  Fs2
 BYTE   W06
 BYTE   PEND 
 BYTE   PATT
  POIN2 Label_6_011665DB
 BYTE   PATT
  POIN2 Label_6_0116655E
 BYTE   PATT
  POIN2 Label_6_0116655E
 BYTE   PATT
  POIN2 Label_6_0116659F
 BYTE   PATT
  POIN2 Label_6_011665DB
 BYTE   PATT
  POIN2 Label_6_0116655E
// 034   ----------------------------------------
Label_6_011667A3:
 BYTE   N06  Bn0  v127
 BYTE   W06
 BYTE   N12  Dn1
 BYTE   N06  Fs1
 BYTE   W06
 BYTE   N06
 BYTE   W06
 BYTE   N12  Bn0
 BYTE   N12  As1
 BYTE   N12  Fs2
 BYTE   W12
 BYTE   Bn0
 BYTE   N12  Dn1
 BYTE   N06  Fs1
 BYTE   N12  Cs2
 BYTE   W06
 BYTE   N06  Fs1
 BYTE   W06
 BYTE   Bn0
 BYTE   N12  As1
 BYTE   N12  Fs2
 BYTE   W06
 BYTE   N06  Bn0
 BYTE   W06
 BYTE   N12  Dn1
 BYTE   N06  Fs1
 BYTE   N12  Cs2
 BYTE   W06
 BYTE   N06  Fs1
 BYTE   W06
 BYTE   N12  Bn0
 BYTE   N12  As1
 BYTE   N12  Fs2
 BYTE   W12
 BYTE   Bn0
 BYTE   N12  Dn1
 BYTE   N06  Fs1
 BYTE   N12  Cs2
 BYTE   W06
 BYTE   N06  Fs1
 BYTE   W06
 BYTE   Bn0
 BYTE   N06  Dn1
 BYTE   N12  As1
 BYTE   N06  Cs2
 BYTE   N12  Fs2
 BYTE   W06
 BYTE   PEND 
// 035   ----------------------------------------
Label_6_011667F0:
 BYTE   N06  Bn0  v127
 BYTE   W06
 BYTE   N12  Dn1
 BYTE   N06  Fs1
 BYTE   N12  Cs2
 BYTE   W06
 BYTE   N06  Fs1
 BYTE   W06
 BYTE   N12  Bn0
 BYTE   N06  Dn1
 BYTE   N12  As1
 BYTE   N06  Cs2
 BYTE   N12  Fs2
 BYTE   W60
 BYTE   Bn0
 BYTE   N12  Bn1
 BYTE   N12  Cs2
 BYTE   W12
 BYTE   N06  Dn1
 BYTE   N06  An1
 BYTE   N12  As1
 BYTE   W06
 BYTE   PEND 
// 036   ----------------------------------------
 BYTE   N06  Bn0
 BYTE   N06  Gn1
 BYTE   W06
 BYTE   N12  Dn1
 BYTE   N12  Fn1
 BYTE   N06  Fs1
 BYTE   N12  Cs2
 BYTE   W06
 BYTE   N06  Fs1
 BYTE   W06
 BYTE   N12  Dn1
 BYTE   N12  Gn1
 BYTE   N12  As1
 BYTE   W12
 BYTE   Bn0
 BYTE   N12  Fs1
 BYTE   N48  Cs2
 BYTE   W12
 BYTE   N12  Bn0
 BYTE   N12  Fs1
 BYTE   W12
 BYTE   Dn1
 BYTE   N12  As1
 BYTE   W12
 BYTE   Bn0
 BYTE   N12  Gs1
 BYTE   W12
 BYTE   Bn0
 BYTE   N12  Fs1
 BYTE   W12
 BYTE   Bn0
 BYTE   N12  Fs1
 BYTE   W06
 BYTE   PATT
  POIN2 Label_6_01166201
 BYTE   PATT
  POIN2 Label_6_01166225
 BYTE   PATT
  POIN2 Label_6_0116624B
 BYTE   PATT
  POIN2 Label_6_0116626F
 BYTE   PATT
  POIN2 Label_6_01166298
 BYTE   PATT
  POIN2 Label_6_011662C4
 BYTE   PATT
  POIN2 Label_6_01166301
 BYTE   PATT
  POIN2 Label_6_0116631D
 BYTE   PATT
  POIN2 Label_6_01166201
 BYTE   PATT
  POIN2 Label_6_01166225
 BYTE   PATT
  POIN2 Label_6_0116624B
 BYTE   PATT
  POIN2 Label_6_0116626F
 BYTE   PATT
  POIN2 Label_6_01166298
 BYTE   PATT
  POIN2 Label_6_0116635B
 BYTE   PATT
  POIN2 Label_6_0116639A
 BYTE   PATT
  POIN2 Label_6_011663B7
 BYTE   PATT
  POIN2 Label_6_011663E8
 BYTE   PATT
  POIN2 Label_6_011663E8
 BYTE   PATT
  POIN2 Label_6_011663E8
 BYTE   PATT
  POIN2 Label_6_01166425
 BYTE   PATT
  POIN2 Label_6_0116645A
 BYTE   PATT
  POIN2 Label_6_0116648F
 BYTE   PATT
  POIN2 Label_6_011664CB
 BYTE   PATT
  POIN2 Label_6_01166510
 BYTE   PATT
  POIN2 Label_6_0116655E
 BYTE   PATT
  POIN2 Label_6_0116655E
 BYTE   PATT
  POIN2 Label_6_0116659F
 BYTE   PATT
  POIN2 Label_6_011665DB
 BYTE   PATT
  POIN2 Label_6_0116655E
 BYTE   PATT
  POIN2 Label_6_01166622
 BYTE   PATT
  POIN2 Label_6_01166673
 BYTE   PATT
  POIN2 Label_6_0116669C
 BYTE   PATT
  POIN2 Label_6_0116655E
 BYTE   PATT
  POIN2 Label_6_0116655E
 BYTE   PATT
  POIN2 Label_6_0116659F
 BYTE   PATT
  POIN2 Label_6_011665DB
 BYTE   PATT
  POIN2 Label_6_0116655E
 BYTE   PATT
  POIN2 Label_6_011666FF
 BYTE   PATT
  POIN2 Label_6_01166741
 BYTE   PATT
  POIN2 Label_6_011665DB
 BYTE   PATT
  POIN2 Label_6_0116655E
 BYTE   PATT
  POIN2 Label_6_0116655E
 BYTE   PATT
  POIN2 Label_6_0116659F
 BYTE   PATT
  POIN2 Label_6_011665DB
 BYTE   PATT
  POIN2 Label_6_0116655E
 BYTE   PATT
  POIN2 Label_6_011667A3
 BYTE   PATT
  POIN2 Label_6_011667F0
// 037   ----------------------------------------
 BYTE   N06  Bn0  v127
 BYTE   N06  Gn1
 BYTE   W06
 BYTE   N12  Dn1
 BYTE   N12  Fn1
 BYTE   N06  Fs1
 BYTE   N12  Cs2
 BYTE   W06
 BYTE   N06  Fs1
 BYTE   W06
 BYTE   N12  Dn1
 BYTE   N12  Gn1
 BYTE   N12  As1
 BYTE   W12
 BYTE   FINE

//**************** Track 8 (Midi-Chn.7) ****************//

song30_008:
// 000   ----------------------------------------
 BYTE   KEYSH   song30_key+0
 BYTE   VOICE   30
 BYTE   VOL   39*song30_mvl/mxv
 BYTE   PAN   c_v+0
 BYTE   W30
 BYTE   N06  Gn2  v127
 BYTE   W06
 BYTE   Bn2
 BYTE   W06
 BYTE   Dn3
 BYTE   W06
 BYTE   Gn3
 BYTE   W06
 BYTE   Bn3
 BYTE   W06
 BYTE   Dn4
 BYTE   W06
 BYTE   Gn4
 BYTE   W06
 BYTE   Bn4
 BYTE   W06
 BYTE   Dn5
 BYTE   W06
 BYTE   Bn4
 BYTE   W06
 BYTE   Gn4
 BYTE   W06
// 001   ----------------------------------------
Label_7_01166971:
 BYTE   N06  Dn4  v127
 BYTE   W06
 BYTE   Bn3
 BYTE   W06
 BYTE   Gn3
 BYTE   W06
 BYTE   Dn3
 BYTE   W06
 BYTE   Bn2
 BYTE   W06
 BYTE   An2
 BYTE   W06
 BYTE   Cs3
 BYTE   W06
 BYTE   En3
 BYTE   W06
 BYTE   An3
 BYTE   W06
 BYTE   Cs4
 BYTE   W06
 BYTE   En4
 BYTE   W06
 BYTE   An4
 BYTE   W06
 BYTE   Cs5
 BYTE   W06
 BYTE   En5
 BYTE   W06
 BYTE   Cs5
 BYTE   W06
 BYTE   An4
 BYTE   W06
 BYTE   PEND 
// 002   ----------------------------------------
 BYTE   En4
 BYTE   W06
 BYTE   Cs4
 BYTE   W06
 BYTE   An3
 BYTE   W06
 BYTE   En3
 BYTE   W06
 BYTE   Cs3
 BYTE   W06
 BYTE   Bn2
 BYTE   W06
 BYTE   Dn3
 BYTE   W06
 BYTE   Fs3
 BYTE   W06
 BYTE   Bn3
 BYTE   W06
 BYTE   Dn4
 BYTE   W06
 BYTE   Fs4
 BYTE   W06
 BYTE   Bn4
 BYTE   W06
 BYTE   Dn5
 BYTE   W06
 BYTE   Fs5
 BYTE   W06
 BYTE   Dn5
 BYTE   W06
 BYTE   Bn4
 BYTE   W06
// 003   ----------------------------------------
 BYTE   Fs4
 BYTE   W06
 BYTE   Dn4
 BYTE   W06
 BYTE   Bn3
 BYTE   W06
 BYTE   Fs3
 BYTE   W06
 BYTE   Dn3
 BYTE   W06
 BYTE   An2
 BYTE   W06
 BYTE   Cs3
 BYTE   W06
 BYTE   En3
 BYTE   W06
 BYTE   An3
 BYTE   W06
 BYTE   Cs4
 BYTE   W06
 BYTE   En4
 BYTE   W06
 BYTE   An4
 BYTE   W06
 BYTE   Cs5
 BYTE   W06
 BYTE   En5
 BYTE   W06
 BYTE   Cs5
 BYTE   W06
 BYTE   An4
 BYTE   W06
// 004   ----------------------------------------
 BYTE   En4
 BYTE   W06
 BYTE   Cs4
 BYTE   W06
 BYTE   An3
 BYTE   W06
 BYTE   En3
 BYTE   W06
 BYTE   Cs3
 BYTE   W06
 BYTE   Gn2
 BYTE   W06
 BYTE   Bn2
 BYTE   W06
 BYTE   Dn3
 BYTE   W06
 BYTE   Gn3
 BYTE   W06
 BYTE   Bn3
 BYTE   W06
 BYTE   Dn4
 BYTE   W06
 BYTE   Gn4
 BYTE   W06
 BYTE   Bn4
 BYTE   W06
 BYTE   Dn5
 BYTE   W06
 BYTE   Bn4
 BYTE   W06
 BYTE   Gn4
 BYTE   W06
 BYTE   PATT
  POIN2 Label_7_01166971
// 005   ----------------------------------------
 BYTE   N06  En4  v127
 BYTE   W06
 BYTE   Cs4
 BYTE   W06
 BYTE   An3
 BYTE   W06
 BYTE   En3
 BYTE   W06
 BYTE   Cs3
 BYTE   W06
 BYTE   Cn2
 BYTE   W06
 BYTE   En2
 BYTE   W06
 BYTE   Gn2
 BYTE   W06
 BYTE   Bn2
 BYTE   W06
 BYTE   Cn3
 BYTE   W06
 BYTE   En3
 BYTE   W06
 BYTE   Gn3
 BYTE   W06
 BYTE   Bn3
 BYTE   W06
 BYTE   Cn4
 BYTE   W06
 BYTE   En4
 BYTE   W06
 BYTE   Gn4
 BYTE   W06
// 006   ----------------------------------------
 BYTE   Bn4
 BYTE   W06
 BYTE   Cn5
 BYTE   W06
 BYTE   En5
 BYTE   W06
 BYTE   N12  Gn5
 BYTE   W78
// 007   ----------------------------------------
Label_7_01166A24:
 BYTE   W30
 BYTE   N11  Bn1  v127
 BYTE   N11  Fs2
 BYTE   W12
 BYTE   Bn1
 BYTE   N11  Fs2
 BYTE   W12
 BYTE   Bn2
 BYTE   N11  Fs3
 BYTE   W12
 BYTE   Bn1
 BYTE   N11  Fs2
 BYTE   W12
 BYTE   Bn1
 BYTE   N11  Fs2
 BYTE   W12
 BYTE   Bn2
 BYTE   N11  Fs3
 BYTE   W06
 BYTE   PEND 
// 008   ----------------------------------------
Label_7_01166A40:
 BYTE   W06
 BYTE   N11  Bn1  v127
 BYTE   N11  Fs2
 BYTE   W12
 BYTE   Bn1
 BYTE   N11  Fs2
 BYTE   W12
 BYTE   Bn1
 BYTE   N11  Fs2
 BYTE   W12
 BYTE   Bn1
 BYTE   N11  Fs2
 BYTE   W12
 BYTE   Bn2
 BYTE   N11  Fs3
 BYTE   W12
 BYTE   Bn1
 BYTE   N11  Fs2
 BYTE   W12
 BYTE   Bn1
 BYTE   N11  Fs2
 BYTE   W12
 BYTE   Bn2
 BYTE   N11  Fs3
 BYTE   W06
 BYTE   PEND 
// 009   ----------------------------------------
Label_7_01166A64:
 BYTE   W06
 BYTE   N11  Bn1  v127
 BYTE   N11  Fs2
 BYTE   W12
 BYTE   Bn1
 BYTE   N11  Fs2
 BYTE   W12
 BYTE   Dn2
 BYTE   N11  Fs2
 BYTE   W12
 BYTE   Dn2
 BYTE   N11  Fs2
 BYTE   W12
 BYTE   Dn3
 BYTE   N11  Fs3
 BYTE   W12
 BYTE   Dn2
 BYTE   N11  Fs2
 BYTE   W12
 BYTE   Dn2
 BYTE   N11  Fs2
 BYTE   W12
 BYTE   Dn3
 BYTE   N11  Fs3
 BYTE   W06
 BYTE   PEND 
// 010   ----------------------------------------
Label_7_01166A88:
 BYTE   W06
 BYTE   N11  Dn2  v127
 BYTE   N11  Fs2
 BYTE   W12
 BYTE   Dn2
 BYTE   N11  Fs2
 BYTE   W12
 BYTE   Dn2
 BYTE   N11  Fs2
 BYTE   W12
 BYTE   Dn2
 BYTE   N11  Fs2
 BYTE   W12
 BYTE   Dn3
 BYTE   N11  Fs3
 BYTE   W12
 BYTE   Dn2
 BYTE   N11  Fs2
 BYTE   W12
 BYTE   Dn2
 BYTE   N11  Fs2
 BYTE   W12
 BYTE   Dn3
 BYTE   N11  Fs3
 BYTE   W06
 BYTE   PEND 
// 011   ----------------------------------------
Label_7_01166AAC:
 BYTE   W06
 BYTE   N11  Dn2  v127
 BYTE   N11  Fs2
 BYTE   W12
 BYTE   Dn2
 BYTE   N11  Fs2
 BYTE   W12
 BYTE   An1
 BYTE   N11  En2
 BYTE   W12
 BYTE   An1
 BYTE   N11  En2
 BYTE   W12
 BYTE   An2
 BYTE   N11  En3
 BYTE   W12
 BYTE   An1
 BYTE   N11  En2
 BYTE   W12
 BYTE   An1
 BYTE   N11  En2
 BYTE   W12
 BYTE   An2
 BYTE   N11  En3
 BYTE   W06
 BYTE   PEND 
// 012   ----------------------------------------
Label_7_01166AD0:
 BYTE   W06
 BYTE   N11  An1  v127
 BYTE   N11  En2
 BYTE   W12
 BYTE   An1
 BYTE   N11  En2
 BYTE   W12
 BYTE   An1
 BYTE   N11  En2
 BYTE   W12
 BYTE   An1
 BYTE   N11  En2
 BYTE   W12
 BYTE   An2
 BYTE   N11  En3
 BYTE   W12
 BYTE   An1
 BYTE   N11  En2
 BYTE   W12
 BYTE   An1
 BYTE   N11  En2
 BYTE   W12
 BYTE   An2
 BYTE   N11  En3
 BYTE   W06
 BYTE   PEND 
// 013   ----------------------------------------
Label_7_01166AF4:
 BYTE   W06
 BYTE   N11  An1  v127
 BYTE   N11  En2
 BYTE   W12
 BYTE   An1
 BYTE   N11  En2
 BYTE   W12
 BYTE   Dn2
 BYTE   N11  Fs2
 BYTE   W12
 BYTE   Dn2
 BYTE   N11  Fs2
 BYTE   W12
 BYTE   Dn3
 BYTE   N11  Fs3
 BYTE   W12
 BYTE   Dn2
 BYTE   N11  Fs2
 BYTE   W12
 BYTE   N12  Dn2
 BYTE   N12  Fs2
 BYTE   W12
 BYTE   Dn3
 BYTE   W06
 BYTE   PEND 
// 014   ----------------------------------------
Label_7_01166B17:
 BYTE   W06
 BYTE   N12  En3  v127
 BYTE   W12
 BYTE   Fs3
 BYTE   W78
 BYTE   PEND 
 BYTE   PATT
  POIN2 Label_7_01166A24
 BYTE   PATT
  POIN2 Label_7_01166A40
 BYTE   PATT
  POIN2 Label_7_01166A64
 BYTE   PATT
  POIN2 Label_7_01166A88
// 015   ----------------------------------------
Label_7_01166B33:
 BYTE   W06
 BYTE   N11  Dn2  v127
 BYTE   N11  Fs2
 BYTE   W12
 BYTE   Dn2
 BYTE   N11  Fs2
 BYTE   W12
 BYTE   N72  Gn2
 BYTE   N72  En3
 BYTE   W66
 BYTE   PEND 
// 016   ----------------------------------------
Label_7_01166B44:
 BYTE   W06
 BYTE   N24  Gn2  v127
 BYTE   N24  Dn3
 BYTE   W24
 BYTE   N36  An2
 BYTE   N36  Cs3
 BYTE   W36
 BYTE   An2
 BYTE   N36  Dn3
 BYTE   W30
 BYTE   PEND 
// 017   ----------------------------------------
Label_7_01166B55:
 BYTE   W06
 BYTE   N24  An2  v127
 BYTE   N24  Cs3
 BYTE   W24
 BYTE   N96  Fs2
 BYTE   N96  Bn2
 BYTE   W66
 BYTE   PEND 
// 018   ----------------------------------------
Label_7_01166B62:
 BYTE   W54
 BYTE   N24  Bn4  v127
 BYTE   W24
 BYTE   An4
 BYTE   W18
 BYTE   PEND 
// 019   ----------------------------------------
Label_7_01166B6A:
 BYTE   W06
 BYTE   N24  Fs4  v127
 BYTE   W24
 BYTE   N52  Bn3
 BYTE   N54  Gn4
 BYTE   W60
 BYTE   N12  Bn3
 BYTE   N12  Gn4
 BYTE   W06
 BYTE   PEND 
// 020   ----------------------------------------
Label_7_01166B7A:
 BYTE   W06
 BYTE   N12  Dn4  v127
 BYTE   N12  Bn4
 BYTE   W12
 BYTE   N36  Cs4
 BYTE   N36  An4
 BYTE   W36
 BYTE   N12  Dn4
 BYTE   N12  Bn4
 BYTE   W12
 BYTE   N24  En4
 BYTE   N24  Cs5
 BYTE   W24
 BYTE   En4
 BYTE   N24  An4
 BYTE   W06
 BYTE   PEND 
// 021   ----------------------------------------
Label_7_01166B95:
 BYTE   W18
 BYTE   N72  An3  v127
 BYTE   N72  Fs4
 BYTE   W72
 BYTE   N12  An3
 BYTE   N12  Fs4
 BYTE   W06
 BYTE   PEND 
// 022   ----------------------------------------
Label_7_01166BA2:
 BYTE   W06
 BYTE   N12  Dn4  v127
 BYTE   N12  An4
 BYTE   W12
 BYTE   N64  Gn3
 BYTE   N66  Dn4
 BYTE   W72
 BYTE   N12  An3
 BYTE   N12  Dn4
 BYTE   W06
 BYTE   PEND 
// 023   ----------------------------------------
Label_7_01166BB4:
 BYTE   W06
 BYTE   N12  Bn3  v127
 BYTE   N12  En4
 BYTE   W12
 BYTE   Bn3
 BYTE   N12  Fs4
 BYTE   W12
 BYTE   N72  Bn3
 BYTE   N60  En4
 BYTE   W60
 BYTE   N12
 BYTE   W06
 BYTE   PEND 
// 024   ----------------------------------------
Label_7_01166BC7:
 BYTE   W06
 BYTE   N12  Bn3  v127
 BYTE   N12  Fs4
 BYTE   W12
 BYTE   Cs4
 BYTE   N12  Gn4
 BYTE   W12
 BYTE   N36  Dn4
 BYTE   N36  Fs4
 BYTE   W36
 BYTE   Cs4
 BYTE   N36  En4
 BYTE   W30
 BYTE   PEND 
// 025   ----------------------------------------
Label_7_01166BDC:
 BYTE   W06
 BYTE   N24  As3  v127
 BYTE   N24  Cs4
 BYTE   W24
 BYTE   N36  Bn3
 BYTE   N36  Dn4
 BYTE   W36
 BYTE   Cs4
 BYTE   N36  En4
 BYTE   W30
 BYTE   PEND 
// 026   ----------------------------------------
Label_7_01166BED:
 BYTE   W06
 BYTE   N48  Dn4  v127
 BYTE   N48  Fs4
 BYTE   W90
 BYTE   PEND 
// 027   ----------------------------------------
 BYTE   W96
// 028   ----------------------------------------
 BYTE   W96
// 029   ----------------------------------------
 BYTE   W96
// 030   ----------------------------------------
 BYTE   W96
// 031   ----------------------------------------
 BYTE   W96
// 032   ----------------------------------------
 BYTE   W96
// 033   ----------------------------------------
 BYTE   W96
// 034   ----------------------------------------
 BYTE   W96
// 035   ----------------------------------------
Label_7_01166BFD:
 BYTE   W18
 BYTE   N36  Fn2  v104
 BYTE   N36  As2
 BYTE   W36
 BYTE   N12  Fn2
 BYTE   N12  As2
 BYTE   W24
 BYTE   Fn2
 BYTE   N12  As2
 BYTE   W12
 BYTE   Fn2
 BYTE   N12  As2
 BYTE   W06
 BYTE   PEND 
// 036   ----------------------------------------
Label_7_01166C12:
 BYTE   W18
 BYTE   N36  Gn2  v104
 BYTE   N36  Cn3
 BYTE   W36
 BYTE   N12  Gn2
 BYTE   N12  Cn3
 BYTE   W24
 BYTE   Gn2
 BYTE   N12  Cn3
 BYTE   W12
 BYTE   Gn2
 BYTE   N12  Cn3
 BYTE   W06
 BYTE   PEND 
// 037   ----------------------------------------
Label_7_01166C27:
 BYTE   W18
 BYTE   N36  An2  v104
 BYTE   N36  Dn3
 BYTE   W36
 BYTE   N12  An2
 BYTE   N12  Dn3
 BYTE   W24
 BYTE   N36  An2
 BYTE   N36  Dn3
 BYTE   W18
 BYTE   PEND 
// 038   ----------------------------------------
Label_7_01166C39:
 BYTE   W30
 BYTE   N36  An2  v104
 BYTE   N36  Dn3
 BYTE   W48
 BYTE   Gn2
 BYTE   N36  Cn3
 BYTE   W18
 BYTE   PEND 
// 039   ----------------------------------------
Label_7_01166C45:
 BYTE   W54
 BYTE   N12  Fn2  v104
 BYTE   N12  As2
 BYTE   W24
 BYTE   Fn2
 BYTE   N12  As2
 BYTE   W12
 BYTE   Fn2
 BYTE   N12  As2
 BYTE   W06
 BYTE   PEND 
 BYTE   PATT
  POIN2 Label_7_01166C12
// 040   ----------------------------------------
Label_7_01166C5A:
 BYTE   W18
 BYTE   N36  An2  v104
 BYTE   N36  Fn3
 BYTE   W36
 BYTE   N12  An2
 BYTE   N12  Fn3
 BYTE   W24
 BYTE   N36  An2
 BYTE   N36  Fn3
 BYTE   W18
 BYTE   PEND 
// 041   ----------------------------------------
Label_7_01166C6C:
 BYTE   W18
 BYTE   N36  An2  v104
 BYTE   N36  En3
 BYTE   W48
 BYTE   N28  An2
 BYTE   N28  En3
 BYTE   W30
 BYTE   PEND 
// 042   ----------------------------------------
Label_7_01166C79:
 BYTE   W30
 BYTE   N12  Fn2  v104
 BYTE   N12  As2
 BYTE   W24
 BYTE   Fn2
 BYTE   N12  As2
 BYTE   W24
 BYTE   Fn2
 BYTE   N12  As2
 BYTE   W12
 BYTE   Fn2
 BYTE   N12  As2
 BYTE   W06
 BYTE   PEND 
 BYTE   PATT
  POIN2 Label_7_01166C12
// 043   ----------------------------------------
Label_7_01166C92:
 BYTE   W18
 BYTE   N36  An2  v104
 BYTE   N36  Cs3
 BYTE   W36
 BYTE   N12  An2
 BYTE   N12  Cs3
 BYTE   W24
 BYTE   N36  An2
 BYTE   N36  Cs3
 BYTE   W18
 BYTE   PEND 
// 044   ----------------------------------------
Label_7_01166CA4:
 BYTE   W18
 BYTE   N36  An2  v104
 BYTE   N36  Dn3
 BYTE   W48
 BYTE   An2
 BYTE   N36  Cn3
 BYTE   W30
 BYTE   PEND 
// 045   ----------------------------------------
Label_7_01166CB0:
 BYTE   W18
 BYTE   N24  Fn2  v104
 BYTE   N24  As2
 BYTE   W36
 BYTE   N12  Fn2
 BYTE   N12  As2
 BYTE   W24
 BYTE   N36  Fn2
 BYTE   N36  As2
 BYTE   W18
 BYTE   PEND 
// 046   ----------------------------------------
Label_7_01166CC2:
 BYTE   W30
 BYTE   N96  Gn2  v104
 BYTE   N96  Cn3
 BYTE   W66
 BYTE   PEND 
// 047   ----------------------------------------
Label_7_01166CCA:
 BYTE   W30
 BYTE   N06  Ds2  v104
 BYTE   W06
 BYTE   Gn2
 BYTE   W06
 BYTE   As2
 BYTE   W06
 BYTE   Dn3
 BYTE   W06
 BYTE   Ds3
 BYTE   W06
 BYTE   Gn3
 BYTE   W06
 BYTE   As3
 BYTE   W06
 BYTE   Dn4
 BYTE   W06
 BYTE   Ds4
 BYTE   W06
 BYTE   Gn4
 BYTE   W06
 BYTE   As4
 BYTE   W06
 BYTE   PEND 
// 048   ----------------------------------------
 BYTE   Dn5
 BYTE   W06
 BYTE   Ds5
 BYTE   W06
 BYTE   Gn5
 BYTE   W06
 BYTE   As5
 BYTE   W78
 BYTE   PATT
  POIN2 Label_7_01166A24
 BYTE   PATT
  POIN2 Label_7_01166A40
 BYTE   PATT
  POIN2 Label_7_01166A64
 BYTE   PATT
  POIN2 Label_7_01166A88
 BYTE   PATT
  POIN2 Label_7_01166AAC
 BYTE   PATT
  POIN2 Label_7_01166AD0
 BYTE   PATT
  POIN2 Label_7_01166AF4
 BYTE   PATT
  POIN2 Label_7_01166B17
 BYTE   PATT
  POIN2 Label_7_01166A24
 BYTE   PATT
  POIN2 Label_7_01166A40
 BYTE   PATT
  POIN2 Label_7_01166A64
 BYTE   PATT
  POIN2 Label_7_01166A88
 BYTE   PATT
  POIN2 Label_7_01166B33
 BYTE   PATT
  POIN2 Label_7_01166B44
 BYTE   PATT
  POIN2 Label_7_01166B55
 BYTE   PATT
  POIN2 Label_7_01166B62
 BYTE   PATT
  POIN2 Label_7_01166B6A
 BYTE   PATT
  POIN2 Label_7_01166B7A
 BYTE   PATT
  POIN2 Label_7_01166B95
 BYTE   PATT
  POIN2 Label_7_01166BA2
 BYTE   PATT
  POIN2 Label_7_01166BB4
 BYTE   PATT
  POIN2 Label_7_01166BC7
 BYTE   PATT
  POIN2 Label_7_01166BDC
 BYTE   PATT
  POIN2 Label_7_01166BED
// 049   ----------------------------------------
 BYTE   W96
// 050   ----------------------------------------
 BYTE   W96
// 051   ----------------------------------------
 BYTE   W96
// 052   ----------------------------------------
 BYTE   W96
// 053   ----------------------------------------
 BYTE   W96
// 054   ----------------------------------------
 BYTE   W96
// 055   ----------------------------------------
 BYTE   W96
// 056   ----------------------------------------
 BYTE   W96
 BYTE   PATT
  POIN2 Label_7_01166BFD
 BYTE   PATT
  POIN2 Label_7_01166C12
 BYTE   PATT
  POIN2 Label_7_01166C27
 BYTE   PATT
  POIN2 Label_7_01166C39
 BYTE   PATT
  POIN2 Label_7_01166C45
 BYTE   PATT
  POIN2 Label_7_01166C12
 BYTE   PATT
  POIN2 Label_7_01166C5A
 BYTE   PATT
  POIN2 Label_7_01166C6C
 BYTE   PATT
  POIN2 Label_7_01166C79
 BYTE   PATT
  POIN2 Label_7_01166C12
 BYTE   PATT
  POIN2 Label_7_01166C92
 BYTE   PATT
  POIN2 Label_7_01166CA4
 BYTE   PATT
  POIN2 Label_7_01166CB0
 BYTE   PATT
  POIN2 Label_7_01166CC2
 BYTE   PATT
  POIN2 Label_7_01166CCA
// 057   ----------------------------------------
 BYTE   N06  Dn5  v104
 BYTE   W06
 BYTE   Ds5
 BYTE   W06
 BYTE   Gn5
 BYTE   W06
 BYTE   As5
 BYTE   W06
 BYTE   FINE

//**************** Track 9 (Midi-Chn.8) ****************//

song30_009:
// 000   ----------------------------------------
 BYTE   KEYSH   song30_key+0
 BYTE   VOICE   73
 BYTE   VOL   42*song30_mvl/mxv
 BYTE   PAN   c_v+0
 BYTE   W96
// 001   ----------------------------------------
 BYTE   W96
// 002   ----------------------------------------
 BYTE   W96
// 003   ----------------------------------------
 BYTE   W96
// 004   ----------------------------------------
 BYTE   W96
// 005   ----------------------------------------
 BYTE   W96
// 006   ----------------------------------------
 BYTE   W96
// 007   ----------------------------------------
 BYTE   W96
// 008   ----------------------------------------
 BYTE   W96
// 009   ----------------------------------------
 BYTE   W96
// 010   ----------------------------------------
 BYTE   W96
// 011   ----------------------------------------
 BYTE   W96
// 012   ----------------------------------------
 BYTE   W96
// 013   ----------------------------------------
 BYTE   W96
// 014   ----------------------------------------
 BYTE   W96
// 015   ----------------------------------------
 BYTE   W96
// 016   ----------------------------------------
 BYTE   W96
// 017   ----------------------------------------
 BYTE   W96
// 018   ----------------------------------------
 BYTE   W96
// 019   ----------------------------------------
 BYTE   W96
// 020   ----------------------------------------
 BYTE   W96
// 021   ----------------------------------------
 BYTE   W96
// 022   ----------------------------------------
 BYTE   W96
// 023   ----------------------------------------
 BYTE   W96
// 024   ----------------------------------------
 BYTE   W30
 BYTE   N96  Bn4  v127
 BYTE   W66
// 025   ----------------------------------------
 BYTE   W30
 BYTE   An4
 BYTE   W66
// 026   ----------------------------------------
 BYTE   W30
 BYTE   N96
 BYTE   W66
// 027   ----------------------------------------
Label_8_01166DEF:
 BYTE   W30
 BYTE   N24  Gn4  v127
 BYTE   W24
 BYTE   An4
 BYTE   W24
 BYTE   Bn4
 BYTE   W18
 BYTE   PEND 
// 028   ----------------------------------------
Label_8_01166DF9:
 BYTE   W06
 BYTE   N24  Dn5  v127
 BYTE   W24
 BYTE   N72  Bn4
 BYTE   W66
 BYTE   PEND 
// 029   ----------------------------------------
Label_8_01166E02:
 BYTE   W06
 BYTE   N24  Gn4  v127
 BYTE   W24
 BYTE   N36  Fs4
 BYTE   W36
 BYTE   Gn4
 BYTE   W30
 BYTE   PEND 
// 030   ----------------------------------------
Label_8_01166E0D:
 BYTE   W06
 BYTE   N24  An4  v127
 BYTE   W24
 BYTE   N36  Dn4
 BYTE   W36
 BYTE   En4
 BYTE   W30
 BYTE   PEND 
// 031   ----------------------------------------
Label_8_01166E18:
 BYTE   W06
 BYTE   N48  Fs4  v127
 BYTE   W48
 BYTE   N72  Bn4
 BYTE   W42
 BYTE   PEND 
// 032   ----------------------------------------
 BYTE   W30
 BYTE   N96  En4
 BYTE   W66
// 033   ----------------------------------------
 BYTE   W30
 BYTE   An4
 BYTE   W66
// 034   ----------------------------------------
 BYTE   W30
 BYTE   As4
 BYTE   W66
// 035   ----------------------------------------
Label_8_01166E2B:
 BYTE   W30
 BYTE   N48  Bn4  v127
 BYTE   W48
 BYTE   An4
 BYTE   W18
 BYTE   PEND 
// 036   ----------------------------------------
Label_8_01166E33:
 BYTE   W30
 BYTE   TIE  Gn4  v127
 BYTE   W66
 BYTE   PEND 
// 037   ----------------------------------------
 BYTE   W96
// 038   ----------------------------------------
 BYTE   W30
 BYTE   EOT
 BYTE   N60  An4
 BYTE   W60
 BYTE   N12  En4
 BYTE   W06
// 039   ----------------------------------------
 BYTE   W06
 BYTE   Gn4
 BYTE   W12
 BYTE   An4
 BYTE   W78
// 040   ----------------------------------------
 BYTE   W96
// 041   ----------------------------------------
 BYTE   W96
// 042   ----------------------------------------
 BYTE   W96
// 043   ----------------------------------------
 BYTE   W96
// 044   ----------------------------------------
 BYTE   W96
// 045   ----------------------------------------
 BYTE   W96
// 046   ----------------------------------------
 BYTE   W96
// 047   ----------------------------------------
 BYTE   W96
// 048   ----------------------------------------
 BYTE   W96
// 049   ----------------------------------------
 BYTE   W96
// 050   ----------------------------------------
 BYTE   W96
// 051   ----------------------------------------
 BYTE   W96
// 052   ----------------------------------------
 BYTE   W96
// 053   ----------------------------------------
 BYTE   W96
// 054   ----------------------------------------
 BYTE   W96
// 055   ----------------------------------------
 BYTE   W96
// 056   ----------------------------------------
 BYTE   W96
// 057   ----------------------------------------
 BYTE   W96
// 058   ----------------------------------------
 BYTE   W96
// 059   ----------------------------------------
 BYTE   W96
// 060   ----------------------------------------
 BYTE   W96
// 061   ----------------------------------------
 BYTE   W96
// 062   ----------------------------------------
 BYTE   W96
// 063   ----------------------------------------
 BYTE   W96
// 064   ----------------------------------------
 BYTE   W96
// 065   ----------------------------------------
 BYTE   W96
// 066   ----------------------------------------
 BYTE   W96
// 067   ----------------------------------------
 BYTE   W96
// 068   ----------------------------------------
 BYTE   W96
// 069   ----------------------------------------
 BYTE   W96
// 070   ----------------------------------------
 BYTE   W96
// 071   ----------------------------------------
 BYTE   W96
// 072   ----------------------------------------
 BYTE   W30
 BYTE   N96  Bn4
 BYTE   W66
// 073   ----------------------------------------
 BYTE   W30
 BYTE   An4
 BYTE   W66
// 074   ----------------------------------------
 BYTE   W30
 BYTE   N96
 BYTE   W66
 BYTE   PATT
  POIN2 Label_8_01166DEF
 BYTE   PATT
  POIN2 Label_8_01166DF9
 BYTE   PATT
  POIN2 Label_8_01166E02
 BYTE   PATT
  POIN2 Label_8_01166E0D
 BYTE   PATT
  POIN2 Label_8_01166E18
// 075   ----------------------------------------
 BYTE   W30
 BYTE   N96  En4  v127
 BYTE   W66
// 076   ----------------------------------------
 BYTE   W30
 BYTE   An4
 BYTE   W66
// 077   ----------------------------------------
 BYTE   W30
 BYTE   As4
 BYTE   W66
 BYTE   PATT
  POIN2 Label_8_01166E2B
 BYTE   PATT
  POIN2 Label_8_01166E33
// 078   ----------------------------------------
 BYTE   W96
// 079   ----------------------------------------
 BYTE   W30
 BYTE   EOT
 BYTE   Gn4
 BYTE   N60  An4  v127
 BYTE   W60
 BYTE   N12  En4
 BYTE   W06
// 080   ----------------------------------------
 BYTE   W06
 BYTE   Gn4
 BYTE   W12
 BYTE   An4
 BYTE   W12
 BYTE   FINE

//******************************************************//
	ALIGN 4

song30:
	BYTE	9	// NumTrks
	BYTE	0	// NumBlks
	BYTE	song30_pri	// Priority
	BYTE	song30_rev	// Reverb.
    
	POIN2	song30_grp
    
	POIN2	song30_001
	POIN2	song30_002
	POIN2	song30_003
	POIN2	song30_004
	POIN2	song30_005
	POIN2	song30_006
	POIN2	song30_007
	POIN2	song30_008
	POIN2	song30_009

	
