//Event file generated from Sappy .s format.
        #include "MPlayDef.event"

        #define    SupremancyBreak00_grp  voicegroup000
        #define    SupremancyBreak00_pri  0
        #define    SupremancyBreak00_rev  0
        #define    SupremancyBreak00_key  0

        // .rodata
        // SupremancyBreak00
        ALIGN 4

//****************** Track 0 (Midi-Chn.0) ******************//

SupremancyBreak00_0:
        BYTE   KEYSH   SupremancyBreak00_key+0
// 000   ----------------------------------------
        BYTE   TEMPO   106/2
        BYTE           VOICE   43
        BYTE           PAN     c_v-13
        BYTE           VOL     36
        BYTE   W96
// 001   ----------------------------------------
        BYTE   W90
        BYTE           N92     Fs0   v095   gtp3
        BYTE           N05     Fs2   v115
        BYTE   W06
// 002   ----------------------------------------
        BYTE   W78
SupremancyBreak00_0_LOOP:
        BYTE   W12
        BYTE           N76     Fs0   v095   gtp1
        BYTE   W06
// 003   ----------------------------------------
        BYTE   W72
        BYTE           N05     An0
        BYTE           N05     An2
        BYTE   W06
        BYTE                   Fs0
        BYTE           N05     Fs2
        BYTE   W06
        BYTE                   Fn0
        BYTE           N05     Fn2
        BYTE   W06
        BYTE           N76     En1   v095   gtp1
        BYTE           N80     An2   v095   gtp3
        BYTE                   En3
        BYTE   W06
// 004   ----------------------------------------
SupremancyBreak00_0_4:
        BYTE   W72
        BYTE           N17     En1   v095
        BYTE   W06
        BYTE                   An2
        BYTE           N17     En3
        BYTE   W12
        BYTE           N05     En1   v085
        BYTE   W06
        BYTE   PEND
// 005   ----------------------------------------
        BYTE           N17     An3   v080
        BYTE           N17     Dn4
        BYTE           N17     Fs4
        BYTE   W18
        BYTE                   Bn3
        BYTE           N17     En4
        BYTE           N17     Gs4
        BYTE   W18
        BYTE           N32     Gs3   v080   gtp3
        BYTE           N05     Bn3
        BYTE           N32     En4   v080   gtp3
        BYTE   W54
        BYTE           N11     Fs2   v075
        BYTE           N11     Dn3
        BYTE   W06
// 006   ----------------------------------------
        BYTE   W06
        BYTE           N05     Fs2   v065
        BYTE           N05     Dn3
        BYTE   W06
        BYTE           N17     Fs2   v075
        BYTE           N17     Dn3
        BYTE   W18
        BYTE           N05     Fs2   v065
        BYTE           N05     Dn3
        BYTE   W12
        BYTE           N17     Gs2   v075
        BYTE           N17     En3
        BYTE   W18
        BYTE           N11     Gs2
        BYTE           N11     En3
        BYTE   W12
        BYTE           N03     Gs2   v065
        BYTE           N03     En3
        BYTE   W06
        BYTE           N17     Gs2   v075
        BYTE           N17     En3
        BYTE   W18
// 007   ----------------------------------------
        BYTE           N11     Cs3
        BYTE           N11     Fn3
        BYTE   W12
        BYTE           N17     Cs3
        BYTE           N17     Fn3
        BYTE   W18
        BYTE           N05     Cs3   v065
        BYTE           N05     Fn3
        BYTE   W12
        BYTE           N17     An2   v075
        BYTE           N17     Fs3
        BYTE   W18
        BYTE           N05     An2   v065
        BYTE           N05     Fs3
        BYTE   W06
        BYTE           N11     Cs3   v075
        BYTE           N11     Gs3
        BYTE   W12
        BYTE           N17     Fs3
        BYTE           N17     An3
        BYTE   W18
// 008   ----------------------------------------
        BYTE           N11     An2
        BYTE           N11     Dn3
        BYTE   W12
        BYTE           N17     An2
        BYTE           N17     Dn3
        BYTE   W18
        BYTE           N05     An2   v065
        BYTE           N05     Dn3
        BYTE   W12
        BYTE           N17     Bn2   v075
        BYTE           N17     En3
        BYTE   W18
        BYTE           N11     Bn2
        BYTE           N11     En3
        BYTE   W12
        BYTE           N03     Bn2   v065
        BYTE           N03     En3
        BYTE   W06
        BYTE           N17     Bn2   v075
        BYTE           N17     En3
        BYTE   W18
// 009   ----------------------------------------
        BYTE           N11     Cs3
        BYTE           N11     Fs3
        BYTE   W12
        BYTE           N17     Cs3
        BYTE           N17     Fs3
        BYTE   W18
        BYTE           N05     Cs3   v065
        BYTE           N05     Fs3
        BYTE   W12
        BYTE           N11     Cs3   v080
        BYTE           N11     Fs3
        BYTE   W12
        BYTE           N05     Cs3
        BYTE           N05     Fs3
        BYTE   W12
        BYTE                   Cs3
        BYTE           N05     Fn3
        BYTE   W12
        BYTE           N17     Cs1   v095
        BYTE           N17     Fn3   v080
        BYTE   W18
// 010   ----------------------------------------
        BYTE           N05     Dn3   v105
        BYTE   W06
        BYTE                   An2
        BYTE   W06
        BYTE                   En3
        BYTE   W06
        BYTE                   An2
        BYTE   W06
        BYTE                   Fs3
        BYTE   W06
        BYTE                   An2
        BYTE   W06
        BYTE                   Dn3
        BYTE   W06
        BYTE                   An2
        BYTE   W06
        BYTE                   En3
        BYTE   W06
        BYTE                   Bn2
        BYTE   W06
        BYTE                   Fs3
        BYTE   W06
        BYTE                   Bn2
        BYTE   W06
        BYTE                   Gs3
        BYTE   W06
        BYTE                   Bn2
        BYTE   W06
        BYTE                   En3
        BYTE   W06
        BYTE                   Bn2
        BYTE   W06
// 011   ----------------------------------------
        BYTE                   Fn3
        BYTE   W06
        BYTE                   Cs3
        BYTE   W06
        BYTE                   Fs3
        BYTE   W06
        BYTE                   Cs3
        BYTE   W06
        BYTE                   Gs3
        BYTE   W06
        BYTE                   Cs3
        BYTE   W06
        BYTE                   Fn3
        BYTE   W06
        BYTE           N12     An2   v075
        BYTE           N12     Cs3
        BYTE           N12     Fs3
        BYTE   W18
        BYTE                   Cs3
        BYTE           N12     Fn3
        BYTE           N12     Gs3
        BYTE   W18
        BYTE                   Fs3
        BYTE           N12     An3
        BYTE   W18
// 012   ----------------------------------------
        BYTE           N11     Dn3   v080
        BYTE   W12
        BYTE           N17
        BYTE   W18
        BYTE           N05
        BYTE   W12
        BYTE           N17     En3
        BYTE   W18
        BYTE           N11
        BYTE   W12
        BYTE           N03
        BYTE   W06
        BYTE           N17
        BYTE   W18
// 013   ----------------------------------------
        BYTE           N11     Fs3
        BYTE   W12
        BYTE           N17
        BYTE   W18
        BYTE           N05
        BYTE   W12
        BYTE           N11     En1   v115
        BYTE   W12
        BYTE           N05
        BYTE   W06
        BYTE                   Bn0
        BYTE   W06
        BYTE                   Gs0   v095
        BYTE   W06
        BYTE                   En0   v115
        BYTE   W06
        BYTE                   Gs0   v095
        BYTE   W12
        BYTE           N11     Fs0
        BYTE   W06
// 014   ----------------------------------------
SupremancyBreak00_0_14:
        BYTE   W12
        BYTE           N17     Fs0   v095
        BYTE   W24
        BYTE                   Fs0
        BYTE   W24
        BYTE                   Fs0
        BYTE   W24
        BYTE           N05
        BYTE   W06
        BYTE           N11
        BYTE   W06
        BYTE   PEND
// 015   ----------------------------------------
        BYTE   PATT
         POIN2  SupremancyBreak00_0_14
// 016   ----------------------------------------
        BYTE   PATT
         POIN2  SupremancyBreak00_0_14
// 017   ----------------------------------------
        BYTE   W12
        BYTE           N17     Fs0   v095
        BYTE   W24
        BYTE                   Fs0
        BYTE   W24
        BYTE                   Fs0
        BYTE   W24
        BYTE           N05
        BYTE   W06
        BYTE           N76     En1   v095   gtp1
        BYTE           N80     An2   v095   gtp3
        BYTE                   En3
        BYTE   W06
// 018   ----------------------------------------
        BYTE   PATT
         POIN2  SupremancyBreak00_0_4
// 019   ----------------------------------------
        BYTE           N17     En1   v075
        BYTE           N17     Gs2
        BYTE           N17     En3
        BYTE   W18
        BYTE                   En1
        BYTE           N17     Gs2
        BYTE           N17     En3
        BYTE   W18
        BYTE           N32     En1   v075   gtp3
        BYTE                   Gs2
        BYTE           N32     En3   v075   gtp3
        BYTE   W36
        BYTE           N05     Cn1   v115
        BYTE           N05     Cn3
        BYTE   W06
        BYTE                   Bn0
        BYTE           N05     Bn2
        BYTE   W06
        BYTE                   An0
        BYTE           N05     An2
        BYTE   W06
        BYTE           N92     Fs0   v095   gtp3
        BYTE           N05     Fs2   v115
        BYTE   W06
// 020   ----------------------------------------
        BYTE   W78
        BYTE   GoTo
         POIN2  SupremancyBreak00_0_LOOP
        BYTE   W18
// 021   ----------------------------------------
        BYTE   W01
        BYTE   FINE

//****************** Track 1 (Midi-Chn.1) ******************//

SupremancyBreak00_1:
        BYTE   KEYSH   SupremancyBreak00_key+0
// 000   ----------------------------------------
        BYTE           VOICE   43
        BYTE           PAN     c_v+8
        BYTE           VOL     57
        BYTE   W96
// 001   ----------------------------------------
        BYTE   W96
// 002   ----------------------------------------
        BYTE   W78
SupremancyBreak00_1_LOOP:
        BYTE   W18
// 003   ----------------------------------------
        BYTE   W96
// 004   ----------------------------------------
        BYTE   W24
        BYTE           N05     Bn2   v108
        BYTE   W06
        BYTE           N04     En3   v103
        BYTE   W06
        BYTE                   An3
        BYTE   W06
        BYTE           N07     Gs3
        BYTE   W12
        BYTE                   An3
        BYTE   W12
        BYTE                   Bn3
        BYTE   W12
        BYTE           N10     En3
        BYTE   W12
        BYTE           N05
        BYTE   W06
// 005   ----------------------------------------
        BYTE           N13     Dn3
        BYTE   W18
        BYTE                   En3
        BYTE   W18
        BYTE           N28     Bn2   v103   gtp1
        BYTE   W18
        BYTE           MOD     1
        BYTE   W12
        BYTE                   0
        BYTE   W06
        BYTE           N05     Cs3   v105
        BYTE   W06
        BYTE           N04     Bn2
        BYTE   W06
        BYTE                   An2
        BYTE   W06
        BYTE           N10     Fs2
        BYTE   W06
// 006   ----------------------------------------
        BYTE   W06
        BYTE           N05     Dn2
        BYTE   W06
        BYTE           N04     Fs2
        BYTE   W06
        BYTE                   An2
        BYTE   W06
        BYTE           N05     Cs3
        BYTE   W06
        BYTE           N04     Bn2
        BYTE   W06
        BYTE                   An2
        BYTE   W06
        BYTE           N07     Bn2
        BYTE   W12
        BYTE                   En3
        BYTE   W12
        BYTE                   Bn2
        BYTE   W12
        BYTE           N10     An2
        BYTE   W12
        BYTE           N05
        BYTE   W06
// 007   ----------------------------------------
        BYTE           N17     Gs2
        BYTE   W18
        BYTE           N08     Cs2
        BYTE   W12
        BYTE                   Gs2
        BYTE   W12
        BYTE           N32     An2
        BYTE   W18
        BYTE           MOD     1
        BYTE   W18
        BYTE                   0
        BYTE           N05     Fs2
        BYTE   W06
        BYTE           N04     Gs2
        BYTE   W06
        BYTE                   En2
        BYTE   W06
// 008   ----------------------------------------
        BYTE           N17     An2
        BYTE   W16
        BYTE           N08     Dn2
        BYTE   W14
        BYTE                   Bn2
        BYTE   W12
        BYTE           N32     Gs2
        BYTE   W36
        BYTE           N05     An2
        BYTE   W06
        BYTE           N04     Bn2
        BYTE   W06
        BYTE           N10     Cs3
        BYTE   W06
// 009   ----------------------------------------
        BYTE   W06
        BYTE           N07     Fs2
        BYTE   W12
        BYTE                   En3
        BYTE   W12
        BYTE           N06     Dn3
        BYTE   W12
        BYTE           N32     Cs3
        BYTE   W18
        BYTE           MOD     1
        BYTE   W18
        BYTE                   0
        BYTE           N05     Cs3   v110
        BYTE   W06
        BYTE           N04     Fs3
        BYTE   W06
        BYTE                   Gs3
        BYTE   W06
// 010   ----------------------------------------
        BYTE           N11     An3
        BYTE   W12
        BYTE           N04     Gs3
        BYTE   W06
        BYTE           N07     Fs3
        BYTE   W12
        BYTE                   Bn3
        BYTE   W12
        BYTE           N20     Gs3
        BYTE   W15
        BYTE           BEND    c_v-14
        BYTE   W03
        BYTE                   c_v-32
        BYTE   W06
        BYTE                   c_v-16
        BYTE           N10
        BYTE   W03
        BYTE           BEND    c_v+0
        BYTE   W09
        BYTE           N07     En3
        BYTE   W12
        BYTE           N05     Bn2
        BYTE   W06
// 011   ----------------------------------------
        BYTE           N17     Cs3
        BYTE   W18
        BYTE           N07     Gs3
        BYTE   W12
        BYTE                   Bn3
        BYTE   W12
        BYTE           N30     An3   v110   gtp1
        BYTE   W09
        BYTE           BEND    c_v-12
        BYTE   W03
        BYTE                   c_v-29
        BYTE   W06
        BYTE                   c_v-14
        BYTE           MOD     1
        BYTE   W03
        BYTE           BEND    c_v+0
        BYTE   W15
        BYTE           MOD     0
        BYTE           N11     Fs2   v080
        BYTE           N11     Fs3   v110
        BYTE   W12
        BYTE           N05     Gs2   v080
        BYTE           N05     Gs3   v110
        BYTE   W06
// 012   ----------------------------------------
        BYTE           N13     An2   v080
        BYTE           N13     An3   v110
        BYTE   W18
        BYTE           N07     Gs2   v080
        BYTE           N07     Gs3   v110
        BYTE   W12
        BYTE                   An2   v080
        BYTE           N07     An3   v110
        BYTE   W12
        BYTE           N30     Bn2   v080   gtp1
        BYTE                   Bn3   v110
        BYTE   W18
        BYTE           MOD     1
        BYTE   W18
        BYTE                   0
        BYTE           N05     An2   v080
        BYTE           N05     An3   v110
        BYTE   W06
        BYTE           N04     Bn2   v080
        BYTE           N04     Bn3   v110
        BYTE   W06
        BYTE           N20     Cs3   v075
        BYTE           N20     Cs4   v105
        BYTE   W06
// 013   ----------------------------------------
        BYTE   W03
        BYTE           BEND    c_v-14
        BYTE   W03
        BYTE                   c_v-32
        BYTE   W12
        BYTE                   c_v-14
        BYTE           VOL     45
        BYTE           N68     Cs3   v075   gtp3
        BYTE                   Cs4   v105
        BYTE   W03
        BYTE           BEND    c_v+0
        BYTE           VOL     57
        BYTE   W15
        BYTE           MOD     1
        BYTE   W24
        BYTE                   2
        BYTE   W30
        BYTE                   0
        BYTE   W06
// 014   ----------------------------------------
        BYTE   W96
// 015   ----------------------------------------
        BYTE   W96
// 016   ----------------------------------------
        BYTE   W96
// 017   ----------------------------------------
        BYTE   W96
// 018   ----------------------------------------
        BYTE   W24
        BYTE           N05     Bn2   v108
        BYTE   W06
        BYTE           N04     En3   v103
        BYTE   W06
        BYTE                   An3
        BYTE   W06
        BYTE           N05     Gs3
        BYTE   W12
        BYTE           N07     En3
        BYTE   W12
        BYTE                   Bn2   v108
        BYTE   W12
        BYTE           N10     An2   v103
        BYTE   W12
        BYTE           N05
        BYTE   W06
// 019   ----------------------------------------
        BYTE           N13     Gs2
        BYTE   W18
        BYTE                   An2
        BYTE   W18
        BYTE           N32     Bn2   v103   gtp2
        BYTE   W18
        BYTE           MOD     1
        BYTE   W18
        BYTE                   0
        BYTE           N05     Cn3
        BYTE   W06
        BYTE           N04     Bn2
        BYTE   W06
        BYTE                   An2
        BYTE   W06
        BYTE           N17     Fs2
        BYTE   W06
// 020   ----------------------------------------
        BYTE   W78
        BYTE   GoTo
         POIN2  SupremancyBreak00_1_LOOP
        BYTE   W18
// 021   ----------------------------------------
        BYTE   W01
        BYTE   FINE

//****************** Track 2 (Midi-Chn.2) ******************//

SupremancyBreak00_2:
        BYTE   KEYSH   SupremancyBreak00_key+0
// 000   ----------------------------------------
        BYTE           VOICE   18
        BYTE           VOL     35
        BYTE   W90
        BYTE                   8
        BYTE           N44     An3   v127   gtp3
        BYTE                   Cn4
        BYTE           N44     Fn4   v127   gtp3
        BYTE   W06
// 001   ----------------------------------------
        BYTE   W03
        BYTE           VOL     10
        BYTE   W06
        BYTE                   12
        BYTE   W03
        BYTE                   14
        BYTE   W03
        BYTE                   15
        BYTE   W03
        BYTE                   17
        BYTE   W03
        BYTE                   20
        BYTE   W03
        BYTE                   23
        BYTE   W03
        BYTE                   26
        BYTE   W03
        BYTE                   29
        BYTE   W03
        BYTE                   32
        BYTE   W03
        BYTE                   35
        BYTE   W06
        BYTE           N02     Dn4   v106
        BYTE   W01
        BYTE           N03     Cn4
        BYTE   W02
        BYTE           N02     Bn3
        BYTE   W01
        BYTE           N03     An3
        BYTE   W02
        BYTE           N02     Gn3
        BYTE   W01
        BYTE           N03     Fn3
        BYTE   W02
        BYTE           N02     En3
        BYTE   W01
        BYTE           N03     Dn3
        BYTE   W02
        BYTE           N02     Cn3
        BYTE   W01
        BYTE           N03     Bn2
        BYTE   W02
        BYTE           N02     An2
        BYTE   W01
        BYTE           N03     Gn2
        BYTE   W02
        BYTE           N02     Fn2
        BYTE   W01
        BYTE           N03     Ds2
        BYTE   W02
        BYTE           N02     Dn2
        BYTE   W01
        BYTE           N03     Cn2
        BYTE   W02
        BYTE           N02     Bn1
        BYTE   W01
        BYTE           N03     An1
        BYTE   W02
        BYTE           N02     Gn1
        BYTE   W01
        BYTE           N03     Bn1
        BYTE   W02
        BYTE           N02     Cn2
        BYTE   W01
        BYTE           N03     Dn2
        BYTE   W02
        BYTE           N02     En2
        BYTE   W01
        BYTE           N03     Fn2
        BYTE   W02
        BYTE           N02     Gn2
        BYTE   W01
        BYTE           N03     An2
        BYTE   W02
        BYTE           N02     Bn2
        BYTE   W01
        BYTE           N03     Cn3
        BYTE   W02
        BYTE           N02     Dn3
        BYTE   W01
        BYTE           N03     En3
        BYTE   W02
        BYTE           N02     Fn3
        BYTE   W01
        BYTE           N01     Gn3
        BYTE   W08
// 002   ----------------------------------------
        BYTE   W78
SupremancyBreak00_2_LOOP:
        BYTE   W18
// 003   ----------------------------------------
        BYTE   W66
        BYTE           VOICE   55
        BYTE           VOL     37
        BYTE   W06
        BYTE           N05     An3   v075
        BYTE   W06
        BYTE                   Fs3
        BYTE   W06
        BYTE                   Fn3   v067
        BYTE   W06
        BYTE           N17     En3   v075
        BYTE   W06
// 004   ----------------------------------------
        BYTE   W96
// 005   ----------------------------------------
        BYTE   W72
        BYTE           N05     Cs4
        BYTE   W06
        BYTE                   Bn3
        BYTE   W06
        BYTE                   An3
        BYTE   W06
        BYTE           N16     Fs3
        BYTE   W06
// 006   ----------------------------------------
        BYTE   W96
// 007   ----------------------------------------
        BYTE   W96
// 008   ----------------------------------------
        BYTE   W96
// 009   ----------------------------------------
        BYTE   W66
        BYTE           N06     Cs4
        BYTE   W18
        BYTE           VOICE   48
        BYTE           VOL     29
        BYTE   W12
// 010   ----------------------------------------
        BYTE           N44     An1   v080   gtp3
        BYTE                   Dn4
        BYTE   W48
        BYTE                   Bn1
        BYTE           N44     En4   v080   gtp3
        BYTE   W48
// 011   ----------------------------------------
        BYTE           N40     Cs2   v080   gtp1
        BYTE                   Fn4
        BYTE   W78
        BYTE           N11     Fs2
        BYTE           N11     Fs3
        BYTE   W12
        BYTE           N05     Gs2
        BYTE           N05     Gs3
        BYTE   W06
// 012   ----------------------------------------
        BYTE           N17     An2
        BYTE           N17     An3
        BYTE   W18
        BYTE                   Gs2
        BYTE           N17     Gs3
        BYTE   W18
        BYTE           N11     An2
        BYTE           N11     An3
        BYTE   W12
        BYTE           N28     Bn2   v080   gtp1
        BYTE                   Bn3
        BYTE   W30
        BYTE           N05     An2
        BYTE           N05     An3
        BYTE   W06
        BYTE                   Bn2
        BYTE           N05     Bn3
        BYTE   W06
        BYTE           N08     Cs3
        BYTE           N08     Cs4
        BYTE   W06
// 013   ----------------------------------------
        BYTE   W06
        BYTE           BEND    c_v-32
        BYTE           N08     Cs3
        BYTE           N08     Cs4
        BYTE   W12
        BYTE           BEND    c_v+0
        BYTE           N52     Cs3   v080   gtp1
        BYTE                   Cs4
        BYTE   W24
        BYTE           VOL     28
        BYTE   W06
        BYTE                   26
        BYTE   W06
        BYTE                   23
        BYTE   W06
        BYTE                   20
        BYTE   W06
        BYTE                   16
        BYTE   W18
        BYTE           VOICE   55
        BYTE           VOL     20
        BYTE   W01
        BYTE                   37
        BYTE   W05
        BYTE           N17     Fs3   v100
        BYTE   W06
// 014   ----------------------------------------
        BYTE   W96
// 015   ----------------------------------------
        BYTE   W90
        BYTE                   Fs3
        BYTE   W06
// 016   ----------------------------------------
        BYTE   W96
// 017   ----------------------------------------
        BYTE   W90
        BYTE                   En3
        BYTE   W06
// 018   ----------------------------------------
        BYTE   W96
// 019   ----------------------------------------
        BYTE   W72
        BYTE           N05     Cn4
        BYTE   W06
        BYTE                   Bn3
        BYTE   W06
        BYTE                   An3
        BYTE   W06
        BYTE           N17     Fs3
        BYTE   W06
// 020   ----------------------------------------
        BYTE   W78
        BYTE           VOICE   18
        BYTE           VOL     35
        BYTE   GoTo
         POIN2  SupremancyBreak00_2_LOOP
        BYTE   W18
// 021   ----------------------------------------
        BYTE   W01
        BYTE   FINE

//****************** Track 3 (Midi-Chn.3) ******************//

SupremancyBreak00_3:
        BYTE   KEYSH   SupremancyBreak00_key+0
// 000   ----------------------------------------
        BYTE           VOICE   19
        BYTE           VOL     27
        BYTE           N07     Dn2   v115
        BYTE   W06
        BYTE                   Fs2
        BYTE   W06
        BYTE                   An2
        BYTE   W06
        BYTE           N05     Cs3
        BYTE   W06
        BYTE           N07     Bn4
        BYTE   W06
        BYTE                   Gs4
        BYTE   W06
        BYTE                   En4
        BYTE   W06
        BYTE           N05     Bn3
        BYTE   W06
        BYTE           N07     An1
        BYTE   W06
        BYTE                   Dn2
        BYTE   W06
        BYTE                   Fs2
        BYTE   W06
        BYTE           N05     An2
        BYTE   W06
        BYTE           N07     Gs4
        BYTE   W06
        BYTE                   En4
        BYTE   W06
        BYTE           N05     Bn3
        BYTE   W12
// 001   ----------------------------------------
SupremancyBreak00_3_1:
        BYTE   W90
        BYTE           N23     Cs4   v110
        BYTE           N23     Fs4   v100
        BYTE   W06
        BYTE   PEND
// 002   ----------------------------------------
        BYTE   W18
        BYTE           N02     Cn2   v075
        BYTE   W01
        BYTE           N03     Bn1
        BYTE   W02
        BYTE           N02     An1
        BYTE   W01
        BYTE           N03     Fn0
        BYTE           N03     Gn1
        BYTE   W02
        BYTE           N02     Gn0
        BYTE           N02     Fn1
        BYTE   W01
        BYTE           N03     An0
        BYTE   W02
        BYTE           N02     Bn0
        BYTE   W01
        BYTE           N03     Cn1
        BYTE   W02
        BYTE           N02     Dn1
        BYTE   W01
        BYTE           N03     En1
        BYTE   W02
        BYTE           N02     Fn1
        BYTE   W01
        BYTE           N03     Gn1
        BYTE   W02
        BYTE           N02     An1
        BYTE   W01
        BYTE           N03     Bn1
        BYTE   W02
        BYTE           N02     Cn2
        BYTE   W01
        BYTE           N01     Dn2
        BYTE   W02
        BYTE           N23     En4   v110
        BYTE           N23     An4   v100
        BYTE   W24
        BYTE           N02     Cs2   v075
        BYTE   W01
        BYTE           N03     Bn1
        BYTE   W02
        BYTE           N02     An1
        BYTE   W01
        BYTE           N03     Gn0
        BYTE           N03     Gn1
        BYTE   W02
        BYTE           N02     An0
        BYTE   W01
        BYTE           N03     Bn0
        BYTE   W02
        BYTE           N02     Cs1
        BYTE   W01
        BYTE           N03     Dn1
        BYTE   W02
SupremancyBreak00_3_LOOP:
        BYTE           N02     En1   v075
        BYTE   W01
        BYTE           N03     Fs1
        BYTE   W02
        BYTE           N02     Gn1
        BYTE   W01
        BYTE           N03     An1
        BYTE   W02
        BYTE           N02     Bn1
        BYTE   W01
        BYTE           N03     Cs2
        BYTE   W02
        BYTE           N02     Dn2
        BYTE   W01
        BYTE           N01     En2
        BYTE   W02
        BYTE           N23     Fs4   v110
        BYTE           N23     Bn4   v100
        BYTE   W06
// 003   ----------------------------------------
        BYTE   W18
        BYTE           N02     Dn2   v075
        BYTE   W01
        BYTE           N03     Cn2
        BYTE   W02
        BYTE           N02     As1
        BYTE   W01
        BYTE           N03     Gs0
        BYTE           N03     Gs1
        BYTE   W02
        BYTE           N02     As0
        BYTE   W01
        BYTE           N03     Cn1
        BYTE   W02
        BYTE           N02     Dn1
        BYTE   W01
        BYTE           N03     Ds1
        BYTE   W02
        BYTE           N02     Fn1
        BYTE   W01
        BYTE           N03     Gn1
        BYTE   W02
        BYTE           N02     Gs1
        BYTE   W01
        BYTE           N03     As1
        BYTE   W02
        BYTE           N02     Cn2
        BYTE   W01
        BYTE           N03     Dn2
        BYTE   W02
        BYTE           N02     Ds2
        BYTE   W01
        BYTE           N01     Fn2
        BYTE   W02
        BYTE           N17     Gn4   v110
        BYTE           N17     Cn5   v100
        BYTE   W18
        BYTE           N02     Fn2   v075
        BYTE   W01
        BYTE           N03     En2
        BYTE   W02
        BYTE           N02     Dn2
        BYTE   W03
        BYTE           N17     Fs2   v100
        BYTE           N17     Bn2   v090
        BYTE   W30
// 004   ----------------------------------------
        BYTE   W96
// 005   ----------------------------------------
        BYTE   W96
// 006   ----------------------------------------
        BYTE   W96
// 007   ----------------------------------------
        BYTE   W96
// 008   ----------------------------------------
        BYTE   W96
// 009   ----------------------------------------
        BYTE   W96
// 010   ----------------------------------------
        BYTE   W96
// 011   ----------------------------------------
        BYTE   W96
// 012   ----------------------------------------
        BYTE   W96
// 013   ----------------------------------------
        BYTE   PATT
         POIN2  SupremancyBreak00_3_1
// 014   ----------------------------------------
SupremancyBreak00_3_14:
        BYTE   W18
        BYTE           N02     Cn2   v075
        BYTE   W01
        BYTE           N03     Bn1
        BYTE   W02
        BYTE           N02     An1
        BYTE   W01
        BYTE           N03     Fn0
        BYTE   W02
        BYTE           N02     Gn0
        BYTE   W01
        BYTE           N03     An0
        BYTE   W02
        BYTE           N02     Bn0
        BYTE   W01
        BYTE           N03     Cn1
        BYTE   W02
        BYTE           N02     Dn1
        BYTE   W01
        BYTE           N03     En1
        BYTE   W02
        BYTE           N02     Fn1
        BYTE   W01
        BYTE           N03     Gn1
        BYTE   W02
        BYTE           N02     An1
        BYTE   W01
        BYTE           N03     Bn1
        BYTE   W02
        BYTE           N02     Cn2
        BYTE   W01
        BYTE           N01     Dn2
        BYTE   W02
        BYTE           N23     En4   v110
        BYTE           N23     An4   v100
        BYTE   W24
        BYTE           N02     Cs2   v075
        BYTE   W01
        BYTE           N03     Bn1
        BYTE   W02
        BYTE           N02     An1
        BYTE   W01
        BYTE           N03     Gn0
        BYTE   W02
        BYTE           N02     An0
        BYTE   W01
        BYTE           N03     Bn0
        BYTE   W02
        BYTE           N02     Cs1
        BYTE   W01
        BYTE           N03     Dn1
        BYTE   W02
        BYTE           N02     En1
        BYTE   W01
        BYTE           N03     Fs1
        BYTE   W02
        BYTE           N02     Gn1
        BYTE   W01
        BYTE           N03     An1
        BYTE   W02
        BYTE           N02     Bn1
        BYTE   W01
        BYTE           N03     Cs2
        BYTE   W02
        BYTE           N02     Dn2
        BYTE   W01
        BYTE           N01     En2
        BYTE   W02
        BYTE           N23     Fs4   v110
        BYTE           N23     Bn4   v100
        BYTE   W06
        BYTE   PEND
// 015   ----------------------------------------
        BYTE   W18
        BYTE           N02     Dn2   v075
        BYTE   W01
        BYTE           N03     Cn2
        BYTE   W02
        BYTE           N02     As1
        BYTE   W01
        BYTE           N03     Gs0
        BYTE   W02
        BYTE           N02     As0
        BYTE   W01
        BYTE           N03     Cn1
        BYTE   W02
        BYTE           N02     Dn1
        BYTE   W01
        BYTE           N03     Ds1
        BYTE   W02
        BYTE           N02     Fn1
        BYTE   W01
        BYTE           N03     Gn1
        BYTE   W02
        BYTE           N02     Gs1
        BYTE   W01
        BYTE           N03     As1
        BYTE   W02
        BYTE           N02     Cn2
        BYTE   W01
        BYTE           N03     Dn2
        BYTE   W02
        BYTE           N02     Ds2
        BYTE   W01
        BYTE           N01     Fn2
        BYTE   W02
        BYTE           N17     Gn4   v110
        BYTE           N17     Cn5   v100
        BYTE   W18
        BYTE           N02     Fn2   v075
        BYTE   W01
        BYTE           N03     En2
        BYTE   W02
        BYTE           N02     Dn2
        BYTE   W03
        BYTE           N17     Fs2   v100
        BYTE           N17     Bn2   v090
        BYTE   W19
        BYTE           N02     En1   v110
        BYTE           N02     An1
        BYTE   W05
        BYTE           N23     Cs4
        BYTE           N23     Fs4   v100
        BYTE   W06
// 016   ----------------------------------------
        BYTE   PATT
         POIN2  SupremancyBreak00_3_14
// 017   ----------------------------------------
        BYTE   W18
        BYTE           N02     Dn2   v075
        BYTE   W01
        BYTE           N03     Cn2
        BYTE   W02
        BYTE           N02     As1
        BYTE   W01
        BYTE           N03     Gs0
        BYTE   W02
        BYTE           N02     As0
        BYTE   W01
        BYTE           N03     Cn1
        BYTE   W02
        BYTE           N02     Dn1
        BYTE   W01
        BYTE           N03     Ds1
        BYTE   W02
        BYTE           N02     Fn1
        BYTE   W01
        BYTE           N03     Gn1
        BYTE   W02
        BYTE           N02     Gs1
        BYTE   W01
        BYTE           N03     As1
        BYTE   W02
        BYTE           N02     Cn2
        BYTE   W01
        BYTE           N03     Dn2
        BYTE   W02
        BYTE           N02     Ds2
        BYTE   W01
        BYTE           N01     Fn2
        BYTE   W02
        BYTE           N20     Gn4   v110
        BYTE           N20     Cn5   v100
        BYTE   W21
        BYTE           N02     En3   v110
        BYTE           N02     An3
        BYTE   W03
        BYTE           N20     Fs2   v100
        BYTE           N20     Bn2   v090
        BYTE   W19
        BYTE           N02     En1   v110
        BYTE           N02     An1
        BYTE   W11
// 018   ----------------------------------------
        BYTE   W96
// 019   ----------------------------------------
        BYTE   PATT
         POIN2  SupremancyBreak00_3_1
// 020   ----------------------------------------
        BYTE   W18
        BYTE           N02     Cn2   v075
        BYTE   W01
        BYTE           N03     Bn1
        BYTE   W02
        BYTE           N02     An1
        BYTE   W01
        BYTE           N03     Fn0
        BYTE           N03     Gn1
        BYTE   W02
        BYTE           N02     Gn0
        BYTE           N02     Fn1
        BYTE   W01
        BYTE           N03     An0
        BYTE   W02
        BYTE           N02     Bn0
        BYTE   W01
        BYTE           N03     Cn1
        BYTE   W02
        BYTE           N02     Dn1
        BYTE   W01
        BYTE           N03     En1
        BYTE   W02
        BYTE           N02     Fn1
        BYTE   W01
        BYTE           N03     Gn1
        BYTE   W02
        BYTE           N02     An1
        BYTE   W01
        BYTE           N03     Bn1
        BYTE   W02
        BYTE           N02     Cn2
        BYTE   W01
        BYTE           N01     Dn2
        BYTE   W02
        BYTE           N23     En4   v110
        BYTE           N23     An4   v100
        BYTE   W24
        BYTE           N02     Cs2   v075
        BYTE   W01
        BYTE           N03     Bn1
        BYTE   W02
        BYTE           N02     An1
        BYTE   W01
        BYTE           N03     Gn0
        BYTE           N03     Gn1
        BYTE   W02
        BYTE           N02     An0
        BYTE   W01
        BYTE           N03     Bn0
        BYTE   W02
        BYTE           N02     Cs1
        BYTE   W01
        BYTE           N03     Dn1
        BYTE   W02
        BYTE           N02     En1
        BYTE   GoTo
         POIN2  SupremancyBreak00_3_LOOP
        BYTE   W01
        BYTE           N03     Fs1
        BYTE   W02
        BYTE           N02     Gn1
        BYTE   W01
        BYTE           N03     An1
        BYTE   W02
        BYTE           N02     Bn1
        BYTE   W01
        BYTE           N03     Cs2
        BYTE   W02
        BYTE           N02     Dn2
        BYTE   W01
        BYTE           N01     En2
        BYTE   W08
// 021   ----------------------------------------
        BYTE   W01
        BYTE   FINE

//****************** Track 4 (Midi-Chn.4) ******************//

SupremancyBreak00_4:
        BYTE   KEYSH   SupremancyBreak00_key+0
// 000   ----------------------------------------
        BYTE           VOICE   26
        BYTE           VOL     44
        BYTE   W96
// 001   ----------------------------------------
        BYTE   W90
        BYTE           N23     Fs3   v065
        BYTE   W06
// 002   ----------------------------------------
        BYTE   W08
        BYTE           BEND    c_v-3
        BYTE   W01
        BYTE                   c_v-8
        BYTE   W01
        BYTE                   c_v-9
        BYTE   W03
        BYTE                   c_v-11
        BYTE   W01
        BYTE                   c_v-12
        BYTE   W01
        BYTE                   c_v-15
        BYTE   W01
        BYTE                   c_v-17
        BYTE   W02
        BYTE                   c_v-12
        BYTE           N44     Fs4   v065   gtp3
        BYTE   W01
        BYTE           BEND    c_v-7
        BYTE   W02
        BYTE                   c_v+0
        BYTE   W36
        BYTE   W03
        BYTE                   c_v-4
        BYTE   W02
        BYTE                   c_v-8
        BYTE   W01
        BYTE                   c_v-12
        BYTE   W01
        BYTE                   c_v-14
        BYTE   W01
        BYTE                   c_v-7
        BYTE   W01
        BYTE                   c_v+0
        BYTE           N05     Cs4   v045
        BYTE   W06
        BYTE                   An4   v075
        BYTE   W06
SupremancyBreak00_4_LOOP:
        BYTE           N11     Fs4   v055
        BYTE   W11
        BYTE           BEND    c_v-5
        BYTE   W01
        BYTE           N11     Cn5   v085
        BYTE           BEND    c_v-8
        BYTE   W02
        BYTE                   c_v-6
        BYTE   W01
        BYTE                   c_v-3
        BYTE   W02
        BYTE                   c_v+0
        BYTE   W01
// 003   ----------------------------------------
        BYTE   W06
        BYTE           N05     Bn4   v055
        BYTE   W06
        BYTE                   An4
        BYTE   W06
        BYTE           N23     Fs4   v065
        BYTE   W19
        BYTE           BEND    c_v-9
        BYTE   W01
        BYTE                   c_v-13
        BYTE   W01
        BYTE                   c_v-17
        BYTE   W01
        BYTE                   c_v-25
        BYTE   W01
        BYTE                   c_v-22
        BYTE   W01
        BYTE           N44     En3   v065   gtp3
        BYTE           BEND    c_v-18
        BYTE   W01
        BYTE                   c_v-13
        BYTE   W01
        BYTE                   c_v-5
        BYTE   W01
        BYTE                   c_v+0
        BYTE   W48
        BYTE   W03
// 004   ----------------------------------------
        BYTE   W96
// 005   ----------------------------------------
        BYTE   W96
// 006   ----------------------------------------
        BYTE   W96
// 007   ----------------------------------------
        BYTE   W96
// 008   ----------------------------------------
        BYTE   W96
// 009   ----------------------------------------
        BYTE   W96
// 010   ----------------------------------------
        BYTE   W96
// 011   ----------------------------------------
        BYTE   W96
// 012   ----------------------------------------
        BYTE   W96
// 013   ----------------------------------------
        BYTE   W88
        BYTE   W01
        BYTE                   c_v-32
        BYTE   W01
        BYTE           N68     En4   v065   gtp3
        BYTE           BEND    c_v-29
        BYTE   W02
        BYTE                   c_v-26
        BYTE   W01
        BYTE                   c_v-23
        BYTE   W02
        BYTE                   c_v-19
        BYTE   W01
// 014   ----------------------------------------
        BYTE                   c_v-16
        BYTE   W01
        BYTE                   c_v-15
        BYTE   W01
        BYTE                   c_v-13
        BYTE   W02
        BYTE                   c_v-11
        BYTE   W01
        BYTE                   c_v-9
        BYTE   W02
        BYTE                   c_v-7
        BYTE   W01
        BYTE                   c_v-5
        BYTE   W02
        BYTE                   c_v-3
        BYTE   W01
        BYTE                   c_v-1
        BYTE   W01
        BYTE                   c_v+0
        BYTE   W22
        BYTE                   c_v-1
        BYTE   W01
        BYTE                   c_v-4
        BYTE   W01
        BYTE                   c_v-5
        BYTE   W06
        BYTE                   c_v-2
        BYTE   W01
        BYTE                   c_v-1
        BYTE   W01
        BYTE                   c_v+0
        BYTE   W22
        BYTE           N05     An3   v045
        BYTE   W06
        BYTE                   Gs3   v075
        BYTE   W06
        BYTE                   An3   v065
        BYTE   W06
        BYTE                   Bn3   v055
        BYTE   W06
        BYTE           N76     En3   v065   gtp1
        BYTE   W06
// 015   ----------------------------------------
        BYTE   W07
        BYTE           BEND    c_v-1
        BYTE   W01
        BYTE                   c_v-4
        BYTE   W01
        BYTE                   c_v-7
        BYTE   W01
        BYTE                   c_v-8
        BYTE   W01
        BYTE                   c_v-10
        BYTE   W01
        BYTE                   c_v-11
        BYTE   W02
        BYTE                   c_v-10
        BYTE   W01
        BYTE                   c_v-8
        BYTE   W01
        BYTE                   c_v-7
        BYTE   W01
        BYTE                   c_v-2
        BYTE   W01
        BYTE                   c_v-1
        BYTE   W03
        BYTE                   c_v+0
        BYTE   W12
        BYTE                   c_v-2
        BYTE   W01
        BYTE                   c_v-5
        BYTE   W04
        BYTE                   c_v-4
        BYTE   W01
        BYTE                   c_v+0
        BYTE   W22
        BYTE                   c_v-4
        BYTE   W02
        BYTE                   c_v-8
        BYTE   W01
        BYTE                   c_v-15
        BYTE   W01
        BYTE                   c_v-18
        BYTE   W01
        BYTE                   c_v-26
        BYTE   W01
        BYTE                   c_v-32
        BYTE   W01
        BYTE                   c_v-38
        BYTE   W01
        BYTE                   c_v-49
        BYTE   W01
        BYTE                   c_v-55
        BYTE   W01
        BYTE                   c_v-64
        BYTE   W01
        BYTE                   c_v+0
        BYTE           N05     An3   v085
        BYTE   W06
        BYTE                   Gs3   v065
        BYTE   W06
        BYTE                   En3   v055
        BYTE   W06
        BYTE           N44     Fs3   v065   gtp3
        BYTE   W06
// 016   ----------------------------------------
        BYTE   W07
        BYTE           BEND    c_v-4
        BYTE   W01
        BYTE                   c_v-7
        BYTE   W01
        BYTE                   c_v-10
        BYTE   W03
        BYTE                   c_v-8
        BYTE   W01
        BYTE                   c_v-6
        BYTE   W01
        BYTE                   c_v-3
        BYTE   W01
        BYTE                   c_v+0
        BYTE   W24
        BYTE   W03
        BYTE                   c_v-16
        BYTE           N68     Fs4   v065   gtp3
        BYTE   W01
        BYTE           BEND    c_v-13
        BYTE   W02
        BYTE                   c_v-10
        BYTE   W01
        BYTE                   c_v-6
        BYTE   W02
        BYTE                   c_v-3
        BYTE   W01
        BYTE                   c_v+0
        BYTE   W40
        BYTE   W01
        BYTE                   c_v-3
        BYTE   W01
        BYTE                   c_v-7
        BYTE   W01
        BYTE                   c_v-5
        BYTE   W02
        BYTE                   c_v+0
        BYTE   W02
// 017   ----------------------------------------
        BYTE   W18
        BYTE           N05     Cs4   v045
        BYTE   W06
        BYTE                   An4   v085
        BYTE   W06
        BYTE                   Gs4   v055
        BYTE   W06
        BYTE                   En4   v045
        BYTE   W06
        BYTE           N44     Cs4   v065   gtp3
        BYTE   W32
        BYTE   W02
        BYTE           BEND    c_v-1
        BYTE   W01
        BYTE                   c_v-4
        BYTE   W01
        BYTE                   c_v-5
        BYTE   W01
        BYTE                   c_v-7
        BYTE   W01
        BYTE                   c_v-8
        BYTE   W01
        BYTE                   c_v-10
        BYTE   W01
        BYTE                   c_v-11
        BYTE   W01
        BYTE                   c_v-14
        BYTE   W01
        BYTE                   c_v-17
        BYTE   W01
        BYTE                   c_v-20
        BYTE   W01
        BYTE                   c_v-23
        BYTE   W01
        BYTE                   c_v-24
        BYTE   W01
        BYTE                   c_v-27
        BYTE   W01
        BYTE                   c_v-33
        BYTE   W01
        BYTE                   c_v-35
        BYTE   W01
        BYTE                   c_v-44
        BYTE   W01
        BYTE                   c_v-51
        BYTE   W01
        BYTE                   c_v-54
        BYTE   W01
        BYTE                   c_v-59
        BYTE   W01
        BYTE                   c_v-63
        BYTE   W01
// 018   ----------------------------------------
        BYTE   W01
        BYTE                   c_v-64
        BYTE   W92
        BYTE   W03
// 019   ----------------------------------------
        BYTE   W40
        BYTE   W01
        BYTE                   c_v+0
        BYTE   W48
        BYTE   W01
        BYTE           N23     Fs3
        BYTE   W06
// 020   ----------------------------------------
        BYTE   W08
        BYTE           BEND    c_v-3
        BYTE   W01
        BYTE                   c_v-8
        BYTE   W01
        BYTE                   c_v-9
        BYTE   W03
        BYTE                   c_v-11
        BYTE   W01
        BYTE                   c_v-12
        BYTE   W01
        BYTE                   c_v-15
        BYTE   W01
        BYTE                   c_v-17
        BYTE   W02
        BYTE                   c_v-12
        BYTE           N44     Fs4   v065   gtp3
        BYTE   W01
        BYTE           BEND    c_v-7
        BYTE   W02
        BYTE                   c_v+0
        BYTE   W36
        BYTE   W03
        BYTE                   c_v-4
        BYTE   W02
        BYTE                   c_v-8
        BYTE   W01
        BYTE                   c_v-12
        BYTE   W01
        BYTE                   c_v-14
        BYTE   W01
        BYTE                   c_v-7
        BYTE   W01
        BYTE                   c_v+0
        BYTE           N05     Cs4   v045
        BYTE   W06
        BYTE                   An4   v075
        BYTE   W06
        BYTE           N11     Fs4   v055
        BYTE   GoTo
         POIN2  SupremancyBreak00_4_LOOP
        BYTE   W18
// 021   ----------------------------------------
        BYTE   W01
        BYTE   FINE

//****************** Track 5 (Midi-Chn.5) ******************//

SupremancyBreak00_5:
        BYTE   KEYSH   SupremancyBreak00_key+0
// 000   ----------------------------------------
        BYTE           VOICE   30
        BYTE           PAN     c_v-64
        BYTE           VOL     36
        BYTE           N23     Bn1   v085
        BYTE   W24
        BYTE                   An1
        BYTE   W24
        BYTE                   Gs1
        BYTE   W24
        BYTE           N17     Fs1
        BYTE   W18
        BYTE           N52     Cs2   v085   gtp1
        BYTE   W06
// 001   ----------------------------------------
        BYTE   W90
        BYTE           N11     Fs1   v075
        BYTE   W06
// 002   ----------------------------------------
        BYTE   W05
        BYTE           N04     Fs2   v070
        BYTE   W07
        BYTE                   Fs2
        BYTE   W06
        BYTE                   Fs2
        BYTE   W06
        BYTE                   Fs2   v080
        BYTE   W06
        BYTE                   Fs2   v070
        BYTE   W06
        BYTE                   Fs2
        BYTE   W06
        BYTE           N11     An1   v075
        BYTE   W11
        BYTE           N04     Fs2   v070
        BYTE   W07
        BYTE                   Fs2
        BYTE   W06
        BYTE                   Fs2
        BYTE   W06
        BYTE                   Fs2   v080
        BYTE   W06
SupremancyBreak00_5_LOOP:
        BYTE           N04     Fs2   v070
        BYTE   W06
        BYTE                   Fs2
        BYTE   W06
        BYTE           N11     Bn1   v075
        BYTE   W06
// 003   ----------------------------------------
        BYTE   W05
        BYTE           N04     Fs2   v070
        BYTE   W07
        BYTE                   Fs2
        BYTE   W06
        BYTE                   Fs2
        BYTE   W06
        BYTE                   Fs2   v080
        BYTE   W06
        BYTE                   Fs2   v070
        BYTE   W06
        BYTE                   Fs2
        BYTE   W06
        BYTE           N11     Cn2   v075
        BYTE   W12
        BYTE           N05     Bn1
        BYTE   W06
        BYTE                   An1   v055
        BYTE   W06
        BYTE                   Fs2   v090
        BYTE   W06
        BYTE                   An1   v075
        BYTE   W06
        BYTE                   Fs1   v055
        BYTE   W06
        BYTE                   Fn1
        BYTE   W06
        BYTE           N11     En1   v075
        BYTE   W06
// 004   ----------------------------------------
SupremancyBreak00_5_4:
        BYTE   W12
        BYTE           N05     En1   v075
        BYTE   W06
        BYTE           N03     En2   v070
        BYTE   W06
        BYTE                   En2
        BYTE   W06
        BYTE           N05     En1   v075
        BYTE   W06
        BYTE           N03     En2   v070
        BYTE   W06
        BYTE                   En2
        BYTE   W06
        BYTE           N05     En1   v075
        BYTE   W06
        BYTE           N03     En2   v070
        BYTE   W06
        BYTE                   En2
        BYTE   W06
        BYTE           N05     En1   v075
        BYTE   W06
        BYTE           N03     En2   v070
        BYTE   W06
        BYTE                   En2
        BYTE   W06
        BYTE           N05     En1   v075
        BYTE   W06
        BYTE           N03     En2   v070
        BYTE   W06
        BYTE   PEND
// 005   ----------------------------------------
        BYTE                   En2
        BYTE   W06
        BYTE                   En2
        BYTE   W06
        BYTE           N05     En1   v075
        BYTE   W06
        BYTE           N03     En2   v070
        BYTE   W06
        BYTE                   En2
        BYTE   W06
        BYTE           N05     En1   v075
        BYTE   W06
        BYTE           N03     En2   v070
        BYTE   W06
        BYTE                   En2
        BYTE   W06
        BYTE           N05     En1   v075
        BYTE   W06
        BYTE           N03     En2   v070
        BYTE   W06
        BYTE                   En2
        BYTE   W06
        BYTE           N05     En1   v075
        BYTE   W24
        BYTE           PAN     c_v-48
        BYTE           N11     Dn1
        BYTE   W06
// 006   ----------------------------------------
        BYTE   W06
        BYTE           N03     Dn2   v070
        BYTE   W06
        BYTE                   Dn2
        BYTE   W06
        BYTE                   Dn2
        BYTE   W06
        BYTE                   Dn2
        BYTE   W06
        BYTE                   Dn2
        BYTE   W06
        BYTE                   Dn2
        BYTE   W06
        BYTE                   Dn2
        BYTE   W06
        BYTE                   En2
        BYTE   W06
        BYTE                   En2
        BYTE   W06
        BYTE                   En2
        BYTE   W06
        BYTE                   En2
        BYTE   W06
        BYTE                   En2
        BYTE   W06
        BYTE                   En2
        BYTE   W06
        BYTE                   En2
        BYTE   W06
        BYTE                   En2
        BYTE   W06
// 007   ----------------------------------------
        BYTE                   Fn2
        BYTE   W06
        BYTE                   Fn2
        BYTE   W06
        BYTE                   Fn2
        BYTE   W06
        BYTE                   Fn2
        BYTE   W06
        BYTE                   Fn2
        BYTE   W06
        BYTE                   Fn2
        BYTE   W06
        BYTE                   Fn2
        BYTE   W06
        BYTE                   Fn2
        BYTE   W06
        BYTE                   Fs2
        BYTE   W06
        BYTE                   Fs2
        BYTE   W06
        BYTE                   Fs2
        BYTE   W06
        BYTE                   Fs2
        BYTE   W06
        BYTE                   Fs2
        BYTE   W06
        BYTE                   Fs2
        BYTE   W06
        BYTE                   Fs2
        BYTE   W06
        BYTE                   Fs2
        BYTE   W06
// 008   ----------------------------------------
        BYTE                   Bn2
        BYTE   W06
        BYTE                   Bn2
        BYTE   W06
        BYTE                   Bn2
        BYTE   W06
        BYTE                   Bn2
        BYTE   W06
        BYTE                   Bn2
        BYTE   W06
        BYTE                   Bn2
        BYTE   W06
        BYTE                   Bn2
        BYTE   W06
        BYTE                   Bn2
        BYTE   W06
        BYTE                   Cs3
        BYTE   W06
        BYTE                   Cs3
        BYTE   W06
        BYTE                   Cs3
        BYTE   W06
        BYTE                   Cs3
        BYTE   W06
        BYTE                   Cs3
        BYTE   W06
        BYTE                   Cs3
        BYTE   W06
        BYTE                   Cs3
        BYTE   W06
        BYTE                   Cs3
        BYTE   W06
// 009   ----------------------------------------
        BYTE                   Dn3
        BYTE   W06
        BYTE                   Dn3
        BYTE   W06
        BYTE                   Dn3
        BYTE   W06
        BYTE                   Dn3
        BYTE   W06
        BYTE                   Dn3
        BYTE   W06
        BYTE                   Dn3
        BYTE   W06
        BYTE                   Dn3
        BYTE   W06
        BYTE           N11     Cs2   v075
        BYTE   W12
        BYTE           N03     Cs3   v070
        BYTE   W06
        BYTE                   Cs3
        BYTE   W06
        BYTE           N05     Cs2   v075
        BYTE   W12
        BYTE                   Fn1   v065
        BYTE   W06
        BYTE                   Gs2   v100
        BYTE   W06
        BYTE                   Cs3
        BYTE   W06
// 010   ----------------------------------------
        BYTE           N03     Dn2   v070
        BYTE   W06
        BYTE                   Dn2
        BYTE   W06
        BYTE                   Dn2
        BYTE   W06
        BYTE                   Dn2
        BYTE   W06
        BYTE                   Dn2
        BYTE   W06
        BYTE                   Dn2
        BYTE   W06
        BYTE                   Dn2
        BYTE   W06
        BYTE                   Dn2
        BYTE   W06
        BYTE                   En2
        BYTE   W06
        BYTE                   En2
        BYTE   W06
        BYTE                   En2
        BYTE   W06
        BYTE                   En2
        BYTE   W06
        BYTE                   En2
        BYTE   W06
        BYTE                   En2
        BYTE   W06
        BYTE                   En2
        BYTE   W06
        BYTE                   En2
        BYTE   W06
// 011   ----------------------------------------
        BYTE                   Fn2
        BYTE   W06
        BYTE                   Fn2
        BYTE   W06
        BYTE                   Fn2
        BYTE   W06
        BYTE                   Fn2
        BYTE   W06
        BYTE                   Fn2
        BYTE   W06
        BYTE                   Fn2
        BYTE   W06
        BYTE                   Fn2
        BYTE   W06
        BYTE           N11     Fs2   v110
        BYTE   W12
        BYTE           N03     Fs2   v070
        BYTE   W06
        BYTE           N11     Gs2   v110
        BYTE   W12
        BYTE           N03     Gs2   v070
        BYTE   W06
        BYTE           N11     An2   v110
        BYTE   W12
        BYTE           N03     An2   v070
        BYTE   W06
// 012   ----------------------------------------
        BYTE                   Bn2
        BYTE   W06
        BYTE                   Bn2
        BYTE   W06
        BYTE                   Bn2
        BYTE   W06
        BYTE                   Bn2
        BYTE   W06
        BYTE                   Bn2
        BYTE   W06
        BYTE                   Bn2
        BYTE   W06
        BYTE                   Bn2
        BYTE   W06
        BYTE                   Bn2
        BYTE   W06
        BYTE           N04     Cs3
        BYTE   W06
        BYTE                   Cs3
        BYTE   W06
        BYTE                   Cs3
        BYTE   W06
        BYTE                   Cs3
        BYTE   W06
        BYTE                   Cs3
        BYTE   W06
        BYTE                   Cs3
        BYTE   W06
        BYTE                   Cs3
        BYTE   W06
        BYTE                   Cs3
        BYTE   W06
// 013   ----------------------------------------
        BYTE                   Dn3
        BYTE   W06
        BYTE                   Dn3
        BYTE   W06
        BYTE                   Dn3
        BYTE   W06
        BYTE                   Dn3
        BYTE   W06
        BYTE                   Dn3
        BYTE   W06
        BYTE                   Dn3
        BYTE   W06
        BYTE                   Dn3   v060
        BYTE   W06
        BYTE           PAN     c_v-64
        BYTE           N11     En3   v110
        BYTE   W12
        BYTE           N05     En3   v100
        BYTE   W06
        BYTE                   Bn2
        BYTE   W06
        BYTE                   Gs2
        BYTE   W06
        BYTE                   En2   v110
        BYTE   W06
        BYTE           N04     Gs2   v100
        BYTE   W12
        BYTE           N11     Fs1   v075
        BYTE   W06
// 014   ----------------------------------------
SupremancyBreak00_5_14:
        BYTE   W05
        BYTE           N04     Fs2   v070
        BYTE   W07
        BYTE                   Fs2
        BYTE   W06
        BYTE                   Fs2
        BYTE   W06
        BYTE                   Fs2   v080
        BYTE   W06
        BYTE                   Fs2   v070
        BYTE   W06
        BYTE                   Fs2
        BYTE   W06
        BYTE           N11     An1   v075
        BYTE   W11
        BYTE           N04     Fs2   v070
        BYTE   W07
        BYTE                   Fs2
        BYTE   W06
        BYTE                   Fs2
        BYTE   W06
        BYTE                   Fs2   v080
        BYTE   W06
        BYTE                   Fs2   v070
        BYTE   W06
        BYTE                   Fs2
        BYTE   W06
        BYTE           N11     Bn1   v075
        BYTE   W06
        BYTE   PEND
// 015   ----------------------------------------
        BYTE   W05
        BYTE           N04     Fs2   v070
        BYTE   W07
        BYTE                   Fs2
        BYTE   W06
        BYTE                   Fs2
        BYTE   W06
        BYTE                   Fs2   v080
        BYTE   W06
        BYTE                   Fs2   v070
        BYTE   W06
        BYTE                   Fs2
        BYTE   W06
        BYTE           N11     Cn2   v075
        BYTE   W12
        BYTE           N05     Bn1
        BYTE   W06
        BYTE                   An1   v055
        BYTE   W06
        BYTE                   Fs2   v090
        BYTE   W06
        BYTE                   An1   v075
        BYTE   W06
        BYTE                   En1   v055
        BYTE   W06
        BYTE                   Fn1
        BYTE   W06
        BYTE           N11     Fs1   v075
        BYTE   W06
// 016   ----------------------------------------
        BYTE   PATT
         POIN2  SupremancyBreak00_5_14
// 017   ----------------------------------------
        BYTE   W05
        BYTE           N04     Fs2   v070
        BYTE   W07
        BYTE                   Fs2
        BYTE   W06
        BYTE                   Fs2
        BYTE   W06
        BYTE                   Fs2   v080
        BYTE   W06
        BYTE                   Fs2   v070
        BYTE   W06
        BYTE                   Fs2
        BYTE   W06
        BYTE           N11     Cn2   v075
        BYTE   W12
        BYTE           N05     Bn1
        BYTE   W06
        BYTE                   An1   v055
        BYTE   W06
        BYTE                   Fs2   v090
        BYTE   W06
        BYTE                   An1   v075
        BYTE   W06
        BYTE                   Fs1   v055
        BYTE   W06
        BYTE                   Fn1
        BYTE   W12
// 018   ----------------------------------------
        BYTE   PATT
         POIN2  SupremancyBreak00_5_4
// 019   ----------------------------------------
        BYTE           N03     En2   v070
        BYTE   W06
        BYTE                   En2
        BYTE   W06
        BYTE           N05     En1   v075
        BYTE   W06
        BYTE           N03     En2   v070
        BYTE   W06
        BYTE                   En2
        BYTE   W06
        BYTE           N05     En1   v075
        BYTE   W06
        BYTE           N03     En2   v070
        BYTE   W06
        BYTE                   En2
        BYTE   W06
        BYTE           N05     En1   v075
        BYTE   W06
        BYTE           N03     En2   v070
        BYTE   W06
        BYTE                   En2
        BYTE   W06
        BYTE           N05     En1   v075
        BYTE   W06
        BYTE                   Cn2
        BYTE   W06
        BYTE                   Bn2   v100
        BYTE   W06
        BYTE                   An1   v075
        BYTE   W06
        BYTE           N11     Fs1
        BYTE   W06
// 020   ----------------------------------------
        BYTE   W05
        BYTE           N04     Fs2   v070
        BYTE   W07
        BYTE                   Fs2
        BYTE   W06
        BYTE                   Fs2
        BYTE   W06
        BYTE                   Fs2   v080
        BYTE   W06
        BYTE                   Fs2   v070
        BYTE   W06
        BYTE                   Fs2
        BYTE   W06
        BYTE           N11     An1   v075
        BYTE   W11
        BYTE           N04     Fs2   v070
        BYTE   W07
        BYTE                   Fs2
        BYTE   W06
        BYTE                   Fs2
        BYTE   W06
        BYTE                   Fs2   v080
        BYTE   W06
        BYTE                   Fs2   v070
        BYTE   GoTo
         POIN2  SupremancyBreak00_5_LOOP
        BYTE   W06
        BYTE                   Fs2
        BYTE   W12
// 021   ----------------------------------------
        BYTE   W01
        BYTE   FINE

//****************** Track 6 (Midi-Chn.6) ******************//

SupremancyBreak00_6:
        BYTE   KEYSH   SupremancyBreak00_key+0
// 000   ----------------------------------------
        BYTE           VOICE   30
        BYTE           PAN     c_v+63
        BYTE           VOL     36
        BYTE           N23     Fs2   v100
        BYTE   W24
        BYTE                   En2   v075
        BYTE   W24
        BYTE                   Ds2
        BYTE   W24
        BYTE           N17     Cs2
        BYTE   W18
        BYTE           N44     Dn2   v075   gtp2
        BYTE   W06
// 001   ----------------------------------------
        BYTE   W90
        BYTE           N10     Cs2   v097
        BYTE   W06
// 002   ----------------------------------------
        BYTE   W05
        BYTE           N05     Cs2   v035
        BYTE   W07
        BYTE                   Cs2
        BYTE   W06
        BYTE                   Cs2
        BYTE   W06
        BYTE                   Cs2   v045
        BYTE   W06
        BYTE                   Cs2   v035
        BYTE   W06
        BYTE                   Cs2
        BYTE   W06
        BYTE           N10     En2   v087
        BYTE   W11
        BYTE           N05     Cs2   v035
        BYTE   W07
        BYTE                   Cs2
        BYTE   W06
        BYTE                   Cs2
        BYTE   W06
        BYTE                   Cs2   v045
        BYTE   W06
SupremancyBreak00_6_LOOP:
        BYTE           N05     Cs2   v035
        BYTE   W06
        BYTE                   Cs2
        BYTE   W06
        BYTE           N10     Fs2   v087
        BYTE   W06
// 003   ----------------------------------------
        BYTE   W05
        BYTE           N05     Cs2   v035
        BYTE   W07
        BYTE                   Cs2
        BYTE   W06
        BYTE                   Cs2
        BYTE   W06
        BYTE                   Cs2   v045
        BYTE   W06
        BYTE                   Cs2   v035
        BYTE   W06
        BYTE                   Cs2
        BYTE   W06
        BYTE           N11     Gn2   v077
        BYTE   W12
        BYTE           N05     Fs2
        BYTE   W06
        BYTE                   En2
        BYTE   W06
        BYTE                   Cs2   v067
        BYTE   W06
        BYTE                   En2   v097
        BYTE   W06
        BYTE                   Cs2   v087
        BYTE   W06
        BYTE                   Cn2
        BYTE   W06
        BYTE           TIE     Bn1   v070
        BYTE   W06
// 004   ----------------------------------------
        BYTE   W92
        BYTE   W03
        BYTE           EOT
        BYTE   W01
// 005   ----------------------------------------
        BYTE           N17
        BYTE   W18
        BYTE                   Bn1
        BYTE   W18
        BYTE           N28     Bn1   v070   gtp1
        BYTE   W30
        BYTE           N05     Bn1   v060
        BYTE   W30
// 006   ----------------------------------------
        BYTE   W06
        BYTE                   An1   v050
        BYTE   W06
        BYTE                   An1   v010
        BYTE   W06
        BYTE                   An1   v050
        BYTE   W06
        BYTE                   An1   v010
        BYTE   W06
        BYTE                   An1   v050
        BYTE   W06
        BYTE                   Gs1   v010
        BYTE   W06
        BYTE                   An1   v050
        BYTE   W06
        BYTE                   Bn1   v060
        BYTE   W06
        BYTE                   Bn1
        BYTE   W06
        BYTE                   Bn1   v020
        BYTE   W06
        BYTE                   Bn1   v060
        BYTE   W06
        BYTE                   Bn1   v020
        BYTE   W06
        BYTE                   Bn1   v060
        BYTE   W06
        BYTE                   As1   v020
        BYTE   W06
        BYTE                   Bn1   v060
        BYTE   W06
// 007   ----------------------------------------
        BYTE                   Cn2
        BYTE   W06
        BYTE                   Cn2
        BYTE   W06
        BYTE                   Cn2   v020
        BYTE   W06
        BYTE                   Cn2   v060
        BYTE   W06
        BYTE                   Cn2   v020
        BYTE   W06
        BYTE                   Cn2   v060
        BYTE   W06
        BYTE                   Bn1   v020
        BYTE   W06
        BYTE                   Cn2   v060
        BYTE   W06
        BYTE                   Cs2
        BYTE   W06
        BYTE                   Cs2
        BYTE   W06
        BYTE                   Cs2   v020
        BYTE   W06
        BYTE                   Cs2   v060
        BYTE   W06
        BYTE                   Cs2   v020
        BYTE   W06
        BYTE                   Cs2   v060
        BYTE   W06
        BYTE                   Bn1   v020
        BYTE   W06
        BYTE                   Cs2   v060
        BYTE   W06
// 008   ----------------------------------------
        BYTE           N17     Fs2   v070
        BYTE   W18
        BYTE                   Cs2
        BYTE   W18
        BYTE           N11     Fs2
        BYTE   W12
        BYTE           N17     Gs2
        BYTE   W18
        BYTE                   En2
        BYTE   W18
        BYTE           N11     Gs2
        BYTE   W12
// 009   ----------------------------------------
        BYTE           N05     An2
        BYTE   W06
        BYTE                   En2
        BYTE   W06
        BYTE                   Bn2
        BYTE   W06
        BYTE           N11     An2
        BYTE   W12
        BYTE           N05     En2
        BYTE   W06
        BYTE           N04     En2   v050
        BYTE   W06
        BYTE           N17     Gs2   v070
        BYTE   W18
        BYTE           N05     Ds2   v020
        BYTE   W06
        BYTE                   Gs2   v060
        BYTE   W12
        BYTE                   Ds2   v020
        BYTE   W06
        BYTE                   Gs2   v060
        BYTE   W06
        BYTE                   Ds2   v020
        BYTE   W06
// 010   ----------------------------------------
        BYTE                   An1   v070
        BYTE   W06
        BYTE                   An1   v050
        BYTE   W06
        BYTE                   An1
        BYTE   W06
        BYTE                   An1
        BYTE   W06
        BYTE                   An1
        BYTE   W06
        BYTE                   An1
        BYTE   W06
        BYTE                   Gs1
        BYTE   W06
        BYTE                   An1
        BYTE   W06
        BYTE                   Bn1   v060
        BYTE   W06
        BYTE                   Bn1
        BYTE   W06
        BYTE                   Bn1   v020
        BYTE   W06
        BYTE                   Bn1   v060
        BYTE   W06
        BYTE                   Bn1   v020
        BYTE   W06
        BYTE                   Bn1   v060
        BYTE   W06
        BYTE                   As1   v020
        BYTE   W06
        BYTE                   Bn1   v060
        BYTE   W06
// 011   ----------------------------------------
        BYTE                   Cn2
        BYTE   W06
        BYTE                   Cn2
        BYTE   W06
        BYTE                   Cn2   v020
        BYTE   W06
        BYTE                   Cn2   v060
        BYTE   W06
        BYTE                   Cn2   v020
        BYTE   W06
        BYTE                   Cn2   v060
        BYTE   W06
        BYTE                   Cn2   v020
        BYTE   W06
        BYTE           N16     Cs2   v070
        BYTE   W18
        BYTE                   Ds2
        BYTE   W18
        BYTE                   En2
        BYTE   W18
// 012   ----------------------------------------
        BYTE           N44     Fs2   v070   gtp3
        BYTE   W48
        BYTE                   Gs2
        BYTE   W48
// 013   ----------------------------------------
        BYTE           N40     An2   v070   gtp1
        BYTE   W42
        BYTE   W01
        BYTE           N11     Bn2   v077
        BYTE   W12
        BYTE           N05
        BYTE   W06
        BYTE                   Fs2   v067
        BYTE   W06
        BYTE                   Ds2
        BYTE   W06
        BYTE                   Bn1   v077
        BYTE   W06
        BYTE                   Ds2   v067
        BYTE   W17
// 014   ----------------------------------------
        BYTE   W12
        BYTE                   Cs2   v035
        BYTE   W06
        BYTE                   Cs2
        BYTE   W06
        BYTE                   Cs2   v045
        BYTE   W06
        BYTE                   Cs2   v035
        BYTE   W06
        BYTE                   Cs2
        BYTE   W06
        BYTE           N10     En2   v087
        BYTE   W11
        BYTE           N05     Cs2   v035
        BYTE   W07
        BYTE                   Cs2
        BYTE   W06
        BYTE                   Cs2
        BYTE   W06
        BYTE                   Cs2   v045
        BYTE   W06
        BYTE                   Cs2   v035
        BYTE   W06
        BYTE                   Cs2
        BYTE   W06
        BYTE           N10     Fs2   v087
        BYTE   W06
// 015   ----------------------------------------
        BYTE   W05
        BYTE           N05     Cs2   v035
        BYTE   W07
        BYTE                   Cs2
        BYTE   W06
        BYTE                   Cs2
        BYTE   W06
        BYTE                   Cs2   v045
        BYTE   W06
        BYTE                   Cs2   v035
        BYTE   W06
        BYTE                   Cs2
        BYTE   W06
        BYTE           N11     Gn2   v077
        BYTE   W12
        BYTE           N05     Fs2
        BYTE   W06
        BYTE                   En2
        BYTE   W06
        BYTE                   Cs2   v067
        BYTE   W06
        BYTE                   En2   v077
        BYTE   W06
        BYTE                   Bn1   v087
        BYTE   W06
        BYTE                   Cn2
        BYTE   W12
// 016   ----------------------------------------
        BYTE   W12
        BYTE                   Cs2   v035
        BYTE   W06
        BYTE                   Cs2
        BYTE   W06
        BYTE                   Cs2   v045
        BYTE   W06
        BYTE                   Cs2   v035
        BYTE   W06
        BYTE                   Cs2
        BYTE   W06
        BYTE           N10     En2   v097
        BYTE   W11
        BYTE           N05     Cs2   v035
        BYTE   W07
        BYTE                   Cs2
        BYTE   W06
        BYTE                   Cs2
        BYTE   W06
        BYTE                   Cs2   v045
        BYTE   W06
        BYTE                   Cs2   v035
        BYTE   W06
        BYTE                   Cs2
        BYTE   W06
        BYTE           N10     Fs2   v087
        BYTE   W06
// 017   ----------------------------------------
        BYTE   W05
        BYTE           N05     Cs2   v035
        BYTE   W07
        BYTE                   Cs2
        BYTE   W06
        BYTE                   Cs2
        BYTE   W06
        BYTE                   Cs2   v045
        BYTE   W06
        BYTE                   Cs2   v035
        BYTE   W06
        BYTE                   Cs2
        BYTE   W06
        BYTE           N11     Gn2   v077
        BYTE   W12
        BYTE           N05     Fs2
        BYTE   W06
        BYTE                   En2
        BYTE   W06
        BYTE                   Cs2   v067
        BYTE   W06
        BYTE                   En2   v077
        BYTE   W06
        BYTE                   Cs2   v087
        BYTE   W06
        BYTE                   Cn2
        BYTE   W06
        BYTE           TIE     Bn1   v070
        BYTE   W06
// 018   ----------------------------------------
        BYTE   W92
        BYTE   W03
        BYTE           EOT
        BYTE   W01
// 019   ----------------------------------------
        BYTE           N17
        BYTE   W18
        BYTE           N52     Bn1   v070   gtp1
        BYTE   W78
// 020   ----------------------------------------
        BYTE   W12
        BYTE           N05     Cs2   v035
        BYTE   W06
        BYTE                   Cs2
        BYTE   W06
        BYTE                   Cs2   v045
        BYTE   W06
        BYTE                   Cs2   v035
        BYTE   W06
        BYTE                   Cs2
        BYTE   W06
        BYTE           N10     En2   v087
        BYTE   W11
        BYTE           N05     Cs2   v035
        BYTE   W07
        BYTE                   Cs2
        BYTE   W06
        BYTE                   Cs2
        BYTE   W06
        BYTE                   Cs2   v045
        BYTE   W06
        BYTE                   Cs2   v035
        BYTE   GoTo
         POIN2  SupremancyBreak00_6_LOOP
        BYTE   W06
        BYTE                   Cs2
        BYTE   W12
// 021   ----------------------------------------
        BYTE   W01
        BYTE   FINE

//****************** Track 7 (Midi-Chn.7) ******************//

SupremancyBreak00_7:
        BYTE   KEYSH   SupremancyBreak00_key+0
// 000   ----------------------------------------
        BYTE           VOICE   33
        BYTE           BENDR   4
        BYTE           VOL     51
        BYTE           N23     Bn1   v110
        BYTE   W24
        BYTE                   An1
        BYTE   W24
        BYTE                   Gs1
        BYTE   W24
        BYTE           N17     Fs1
        BYTE   W18
        BYTE           N52     Cn2   v120   gtp1
        BYTE   W06
// 001   ----------------------------------------
        BYTE   W90
        BYTE           N11     Fs1   v100
        BYTE   W06
// 002   ----------------------------------------
        BYTE   W06
        BYTE           N05     Fs1   v080
        BYTE   W06
        BYTE                   Fs1   v090
        BYTE   W06
        BYTE                   Fs1   v080
        BYTE   W06
        BYTE                   Fs1   v090
        BYTE   W06
        BYTE                   Fs1   v080
        BYTE   W06
        BYTE                   Fs1   v060
        BYTE   W06
        BYTE           N11     Fs1   v100
        BYTE   W12
        BYTE           N05     Fs1   v080
        BYTE   W06
        BYTE                   Fs1   v090
        BYTE   W06
        BYTE                   Fs1   v080
        BYTE   W06
        BYTE                   Fs1   v090
        BYTE   W06
SupremancyBreak00_7_LOOP:
        BYTE           N05     En1   v090
        BYTE   W06
        BYTE                   Fn1   v060
        BYTE   W06
        BYTE           N11     Fs1   v100
        BYTE   W06
// 003   ----------------------------------------
        BYTE   W06
        BYTE           N05     Fs1   v080
        BYTE   W06
        BYTE                   Fs1   v090
        BYTE   W06
        BYTE                   Fs1   v080
        BYTE   W06
        BYTE                   Fs1   v090
        BYTE   W06
        BYTE                   En1
        BYTE   W06
        BYTE                   Fn1   v060
        BYTE   W06
        BYTE           N11     Fs1   v100
        BYTE   W12
        BYTE           N05     Fs1   v080
        BYTE   W06
        BYTE                   Fs1   v090
        BYTE   W06
        BYTE                   Fs1   v080
        BYTE   W06
        BYTE                   An1   v100
        BYTE   W06
        BYTE                   Fs1   v090
        BYTE   W06
        BYTE                   Fn1   v080
        BYTE   W06
        BYTE           N11     En1   v100
        BYTE   W06
// 004   ----------------------------------------
        BYTE   W06
        BYTE           N05     En1   v070
        BYTE   W06
        BYTE                   En1   v090
        BYTE   W06
        BYTE                   En1   v070
        BYTE   W06
        BYTE                   En1   v095
        BYTE   W06
        BYTE                   En1   v070
        BYTE   W06
        BYTE                   En1   v090
        BYTE   W06
        BYTE                   En1   v070
        BYTE   W06
        BYTE                   En1   v095
        BYTE   W06
        BYTE                   En1   v070
        BYTE   W06
        BYTE                   En1   v090
        BYTE   W06
        BYTE           BEND    c_v-11
        BYTE           N11     Bn1
        BYTE   W01
        BYTE           BEND    c_v-9
        BYTE   W02
        BYTE                   c_v-6
        BYTE   W01
        BYTE                   c_v-3
        BYTE   W02
        BYTE                   c_v+0
        BYTE   W06
        BYTE           N11     Dn2   v100
        BYTE   W06
        BYTE           BEND    c_v-4
        BYTE   W03
        BYTE                   c_v-2
        BYTE   W03
        BYTE                   c_v+0
        BYTE           N05     Bn1   v070
        BYTE   W01
        BYTE           BEND    c_v-3
        BYTE   W02
        BYTE                   c_v-6
        BYTE   W01
        BYTE                   c_v-9
        BYTE   W02
// 005   ----------------------------------------
        BYTE                   c_v-11
        BYTE           N11     En2   v090
        BYTE   W01
        BYTE           BEND    c_v-9
        BYTE   W02
        BYTE                   c_v-6
        BYTE   W01
        BYTE                   c_v-3
        BYTE   W02
        BYTE                   c_v+0
        BYTE   W06
        BYTE           N05     Bn1   v070
        BYTE   W07
        BYTE           N11     En1   v100
        BYTE   W11
        BYTE           N05     En1   v070
        BYTE   W06
        BYTE                   En1
        BYTE   W06
        BYTE                   Dn3
        BYTE           N05     Fs3
        BYTE   W06
        BYTE                   En1   v075
        BYTE   W06
        BYTE                   Ds3   v070
        BYTE           N05     Gn3
        BYTE   W06
        BYTE                   En1
        BYTE   W06
        BYTE                   En3   v080
        BYTE           N05     Gs3
        BYTE   W06
        BYTE                   En1   v095
        BYTE   W06
        BYTE                   En1   v080
        BYTE   W12
        BYTE           N11     Dn1   v100
        BYTE   W06
// 006   ----------------------------------------
        BYTE   W06
        BYTE           N05     Dn1   v080
        BYTE   W06
        BYTE                   Dn1   v090
        BYTE   W06
        BYTE                   Dn1   v080
        BYTE   W06
        BYTE                   Dn2   v100
        BYTE   W06
        BYTE                   Dn2   v080
        BYTE   W06
        BYTE                   Dn1   v090
        BYTE   W06
        BYTE                   Dn1   v070
        BYTE   W06
        BYTE                   En1   v100
        BYTE   W06
        BYTE                   En1   v080
        BYTE   W06
        BYTE                   En1   v090
        BYTE   W06
        BYTE                   En2
        BYTE   W06
        BYTE                   En1
        BYTE   W06
        BYTE                   En2
        BYTE   W06
        BYTE                   En1
        BYTE   W06
        BYTE                   En1   v080
        BYTE   W06
// 007   ----------------------------------------
        BYTE                   Fn1   v100
        BYTE   W06
        BYTE                   Fn1   v080
        BYTE   W06
        BYTE                   Fn1   v090
        BYTE   W06
        BYTE                   Fn1   v080
        BYTE   W06
        BYTE                   Fn2   v100
        BYTE   W06
        BYTE                   Fn2   v080
        BYTE   W06
        BYTE                   Fn1   v090
        BYTE   W06
        BYTE                   Fn1   v070
        BYTE   W06
        BYTE                   Fs1   v100
        BYTE   W06
        BYTE                   Fs1   v080
        BYTE   W06
        BYTE                   Gs1   v090
        BYTE   W06
        BYTE                   Gs1   v080
        BYTE   W06
        BYTE                   An1   v100
        BYTE   W06
        BYTE                   An1   v080
        BYTE   W06
        BYTE                   Fs1   v090
        BYTE   W06
        BYTE                   Fs1   v080
        BYTE   W06
// 008   ----------------------------------------
        BYTE                   Bn1   v100
        BYTE   W06
        BYTE                   Bn1   v080
        BYTE   W06
        BYTE                   Bn1   v090
        BYTE   W06
        BYTE                   Bn1   v080
        BYTE   W06
        BYTE                   Bn2   v100
        BYTE   W06
        BYTE                   Bn2   v080
        BYTE   W06
        BYTE                   Bn1   v090
        BYTE   W06
        BYTE                   Bn1   v070
        BYTE   W06
        BYTE                   Cs2   v110
        BYTE   W06
        BYTE                   Cs2   v090
        BYTE   W06
        BYTE                   Cs2   v100
        BYTE   W06
        BYTE                   Cs3   v110
        BYTE   W06
        BYTE                   Cs2   v100
        BYTE   W06
        BYTE                   Gs2   v110
        BYTE   W06
        BYTE                   Cs2   v100
        BYTE   W06
        BYTE                   Cs2   v090
        BYTE   W06
// 009   ----------------------------------------
        BYTE                   Dn2   v110
        BYTE   W06
        BYTE                   An1   v080
        BYTE   W06
        BYTE                   En2
        BYTE   W06
        BYTE           N11     Dn2   v110
        BYTE   W12
        BYTE           N05     An1   v080
        BYTE   W06
        BYTE                   Dn1   v070
        BYTE   W06
        BYTE           BEND    c_v-11
        BYTE           N11     Cs2   v110
        BYTE   W01
        BYTE           BEND    c_v-9
        BYTE   W02
        BYTE                   c_v-6
        BYTE   W01
        BYTE                   c_v-3
        BYTE   W02
        BYTE                   c_v+0
        BYTE   W06
        BYTE           N05     Bn1   v080
        BYTE   W06
        BYTE                   Cn2
        BYTE   W06
        BYTE                   Cs2   v110
        BYTE   W12
        BYTE                   Bn1   v080
        BYTE   W06
        BYTE                   Cn2
        BYTE   W06
        BYTE                   Cs2   v090
        BYTE   W06
// 010   ----------------------------------------
        BYTE                   Dn2   v110
        BYTE   W06
        BYTE                   An1   v080
        BYTE   W06
        BYTE                   En2
        BYTE   W06
        BYTE           N11     Dn2   v110
        BYTE   W12
        BYTE           N05     An1   v080
        BYTE   W06
        BYTE                   Dn2
        BYTE   W06
        BYTE           BEND    c_v-11
        BYTE           N11     En2   v110
        BYTE   W01
        BYTE           BEND    c_v-7
        BYTE   W02
        BYTE                   c_v-3
        BYTE   W01
        BYTE                   c_v+0
        BYTE   W08
        BYTE           N05     Bn1   v080
        BYTE   W06
        BYTE                   En2
        BYTE   W06
        BYTE           N11     En1   v100
        BYTE   W12
        BYTE           N05     Gs1   v080
        BYTE   W06
        BYTE                   Bn1   v070
        BYTE   W06
        BYTE                   En2   v090
        BYTE   W06
// 011   ----------------------------------------
        BYTE                   Fn2   v110
        BYTE   W06
        BYTE                   Cs2   v090
        BYTE   W06
        BYTE                   Fn2   v080
        BYTE   W06
        BYTE           N11     Fn2   v110
        BYTE   W12
        BYTE           N05     Cs2   v090
        BYTE   W06
        BYTE                   Fn2   v080
        BYTE   W06
        BYTE           N11     Fs1   v107
        BYTE   W12
        BYTE           N02     Cs1   v080
        BYTE   W06
        BYTE           BEND    c_v-11
        BYTE           N11     Gs1   v100
        BYTE   W01
        BYTE           BEND    c_v-9
        BYTE   W02
        BYTE                   c_v-6
        BYTE   W01
        BYTE                   c_v-3
        BYTE   W02
        BYTE                   c_v+0
        BYTE   W06
        BYTE           N02     Cs1   v080
        BYTE   W06
        BYTE           BEND    c_v-11
        BYTE           N11     An1   v100
        BYTE   W01
        BYTE           BEND    c_v-9
        BYTE   W02
        BYTE                   c_v-6
        BYTE   W01
        BYTE                   c_v-3
        BYTE   W02
        BYTE                   c_v+0
        BYTE   W06
        BYTE           N05     Fn1   v070
        BYTE   W06
// 012   ----------------------------------------
        BYTE                   Bn1   v100
        BYTE   W06
        BYTE                   Bn1   v070
        BYTE   W06
        BYTE                   Bn1   v090
        BYTE   W06
        BYTE                   Bn1   v070
        BYTE   W06
        BYTE                   Bn1   v090
        BYTE   W06
        BYTE                   Bn1   v070
        BYTE   W06
        BYTE                   Bn1   v090
        BYTE   W06
        BYTE                   Bn1   v070
        BYTE   W06
        BYTE                   Cs2   v110
        BYTE   W06
        BYTE                   Cs2   v080
        BYTE   W06
        BYTE                   Cs2   v100
        BYTE   W06
        BYTE                   Cs2   v080
        BYTE   W06
        BYTE                   Cs2   v100
        BYTE   W06
        BYTE                   Cs2   v080
        BYTE   W06
        BYTE                   Cs2   v100
        BYTE   W06
        BYTE                   Cs2   v080
        BYTE   W06
// 013   ----------------------------------------
        BYTE                   Dn2   v110
        BYTE   W06
        BYTE                   Dn2   v080
        BYTE   W06
        BYTE                   Dn2   v100
        BYTE   W06
        BYTE                   Dn2   v080
        BYTE   W06
        BYTE                   Dn2   v100
        BYTE   W06
        BYTE                   Dn2   v080
        BYTE   W06
        BYTE                   Dn2   v100
        BYTE   W06
        BYTE           N11     En2   v110
        BYTE   W12
        BYTE           N05     En2   v100
        BYTE   W06
        BYTE                   Bn1   v080
        BYTE   W06
        BYTE                   Gs1   v070
        BYTE   W06
        BYTE                   En1   v100
        BYTE   W06
        BYTE                   Gs1   v080
        BYTE   W12
        BYTE           N11     Fs1   v100
        BYTE   W06
// 014   ----------------------------------------
SupremancyBreak00_7_14:
        BYTE   W06
        BYTE           N05     Fs1   v080
        BYTE   W06
        BYTE                   Fs1   v090
        BYTE   W06
        BYTE                   Fs1   v080
        BYTE   W06
        BYTE                   Fs1   v090
        BYTE   W06
        BYTE                   Fs1   v080
        BYTE   W06
        BYTE                   Fs1   v060
        BYTE   W06
        BYTE           N11     Fs1   v100
        BYTE   W12
        BYTE           N05     Fs1   v080
        BYTE   W06
        BYTE                   Fs1   v090
        BYTE   W06
        BYTE                   Fs1   v080
        BYTE   W06
        BYTE                   Fs1   v090
        BYTE   W06
        BYTE                   Fs1   v080
        BYTE   W06
        BYTE                   Fs1   v060
        BYTE   W06
        BYTE           N11     Fs1   v100
        BYTE   W06
        BYTE   PEND
// 015   ----------------------------------------
        BYTE   W06
        BYTE           N05     Fs1   v080
        BYTE   W06
        BYTE                   Fs1   v090
        BYTE   W06
        BYTE                   Fs1   v080
        BYTE   W06
        BYTE                   Fs1   v090
        BYTE   W06
        BYTE                   Fs1   v080
        BYTE   W06
        BYTE                   Fs1   v060
        BYTE   W06
        BYTE           N11     Fs1   v100
        BYTE   W12
        BYTE           N05     Fs1   v080
        BYTE   W06
        BYTE                   Fs1   v090
        BYTE   W06
        BYTE                   Fs1   v080
        BYTE   W06
        BYTE                   Fs1   v090
        BYTE   W06
        BYTE                   En1
        BYTE   W06
        BYTE                   Fn1   v070
        BYTE   W06
        BYTE           N11     Fs1   v100
        BYTE   W06
// 016   ----------------------------------------
        BYTE   PATT
         POIN2  SupremancyBreak00_7_14
// 017   ----------------------------------------
        BYTE   W06
        BYTE           N05     Fs1   v080
        BYTE   W06
        BYTE                   Fs1   v090
        BYTE   W06
        BYTE                   Fs1   v080
        BYTE   W06
        BYTE                   Fs1   v090
        BYTE   W06
        BYTE                   Fs1   v080
        BYTE   W06
        BYTE                   Fs1   v060
        BYTE   W06
        BYTE           N11     Fs1   v100
        BYTE   W12
        BYTE           N05     Fs1   v080
        BYTE   W06
        BYTE                   Fs1   v090
        BYTE   W06
        BYTE                   Fs1   v080
        BYTE   W06
        BYTE                   Fs1   v090
        BYTE   W06
        BYTE                   Fs1
        BYTE   W06
        BYTE                   Fn1   v070
        BYTE   W06
        BYTE           N11     En1   v100
        BYTE   W06
// 018   ----------------------------------------
        BYTE   W06
        BYTE           N05     En1   v070
        BYTE   W06
        BYTE                   En1   v090
        BYTE   W06
        BYTE                   En1   v070
        BYTE   W06
        BYTE                   En1   v095
        BYTE   W06
        BYTE                   En1   v070
        BYTE   W06
        BYTE                   En1   v090
        BYTE   W06
        BYTE                   En1   v070
        BYTE   W06
        BYTE                   En1   v095
        BYTE   W06
        BYTE                   En1   v070
        BYTE   W06
        BYTE                   En1   v090
        BYTE   W06
        BYTE           BEND    c_v-11
        BYTE           N11     Bn1
        BYTE   W01
        BYTE           BEND    c_v-9
        BYTE   W02
        BYTE                   c_v-6
        BYTE   W01
        BYTE                   c_v-3
        BYTE   W02
        BYTE                   c_v+0
        BYTE   W06
        BYTE           N11     Dn2   v100
        BYTE   W06
        BYTE           BEND    c_v-4
        BYTE   W03
        BYTE                   c_v-2
        BYTE   W03
        BYTE                   c_v+0
        BYTE           N05     Bn1   v070
        BYTE   W06
// 019   ----------------------------------------
        BYTE           BEND    c_v-11
        BYTE           N17     En2   v100
        BYTE   W01
        BYTE           BEND    c_v-9
        BYTE   W02
        BYTE                   c_v-6
        BYTE   W01
        BYTE                   c_v-3
        BYTE   W02
        BYTE                   c_v+0
        BYTE   W12
        BYTE                   c_v-11
        BYTE           N17
        BYTE   W01
        BYTE           BEND    c_v-8
        BYTE   W02
        BYTE                   c_v-4
        BYTE   W01
        BYTE                   c_v+0
        BYTE   W02
        BYTE           MOD     18
        BYTE   W12
        BYTE           N17
        BYTE   W18
        BYTE           N05     En2   v080
        BYTE   W06
        BYTE                   En2   v100
        BYTE   W06
        BYTE           MOD     0
        BYTE           N02     En1   v070
        BYTE   W06
        BYTE           N05     Cn2   v110
        BYTE   W06
        BYTE                   Bn1   v080
        BYTE   W06
        BYTE                   An1
        BYTE   W06
        BYTE           N11     Fs1   v100
        BYTE   W06
// 020   ----------------------------------------
        BYTE   W06
        BYTE           N05     Fs1   v080
        BYTE   W06
        BYTE                   Fs1   v090
        BYTE   W06
        BYTE                   Fs1   v080
        BYTE   W06
        BYTE                   Fs1   v090
        BYTE   W06
        BYTE                   Fs1   v080
        BYTE   W06
        BYTE                   Fs1   v060
        BYTE   W06
        BYTE           N11     Fs1   v100
        BYTE   W12
        BYTE           N05     Fs1   v080
        BYTE   W06
        BYTE                   Fs1   v090
        BYTE   W06
        BYTE                   Fs1   v080
        BYTE   W06
        BYTE                   Fs1   v090
        BYTE   W06
        BYTE                   En1
        BYTE   GoTo
         POIN2  SupremancyBreak00_7_LOOP
        BYTE   W06
        BYTE                   Fn1   v060
        BYTE   W12
// 021   ----------------------------------------
        BYTE   W01
        BYTE   FINE

//****************** Track 8 (Midi-Chn.8) ******************//

SupremancyBreak00_8:
        BYTE   KEYSH   SupremancyBreak00_key+0
// 000   ----------------------------------------
        BYTE           VOICE   122
        BYTE           VOL     45
        BYTE           N11     Cn1   v127
        BYTE           N23     En2   v070
        BYTE   W24
        BYTE           N11     Cn1   v127
        BYTE           N28     En2   v070   gtp1
        BYTE   W24
        BYTE           N11     Cn1   v127
        BYTE           N28     Cs2   v070   gtp1
        BYTE   W24
        BYTE           N11     Cn1   v127
        BYTE           N23     En2   v070
        BYTE   W18
        BYTE           N11     Cn1   v127
        BYTE           N32     Cs2   v070   gtp3
        BYTE   W06
// 001   ----------------------------------------
        BYTE   W05
        BYTE           N06     Cn1   v065
        BYTE   W06
        BYTE                   Cn1   v075
        BYTE   W06
        BYTE                   Cn1   v085
        BYTE   W06
        BYTE                   Cn1   v105
        BYTE   W06
        BYTE                   Cn1   v125
        BYTE   W06
        BYTE                   Cn1   v127
        BYTE   W07
        BYTE           N05     As1   v040
        BYTE   W18
        BYTE                   As1   v070
        BYTE   W12
        BYTE                   As1   v100
        BYTE   W06
        BYTE                   Cn2   v125
        BYTE   W03
        BYTE                   Bn1
        BYTE   W02
        BYTE           N01     En1   v055
        BYTE   W01
        BYTE           N05     Fn1   v115
        BYTE   W01
        BYTE           N04     En1   v090
        BYTE   W05
        BYTE           N11     Cn1   v120
        BYTE           N28     En2   v060   gtp1
        BYTE   W06
// 002   ----------------------------------------
        BYTE   W06
        BYTE           N05     Cn1   v100
        BYTE   W06
        BYTE           N11     En1   v085
        BYTE   W12
        BYTE           N05     Cn1   v120
        BYTE           N05     As1   v070
        BYTE   W06
        BYTE                   Cn1   v090
        BYTE   W06
        BYTE                   En1   v085
        BYTE           N05     As1   v070
        BYTE   W06
        BYTE           N11     Cn1   v120
        BYTE           N28     En2   v060   gtp1
        BYTE   W12
        BYTE           N05     Cn1   v100
        BYTE   W06
        BYTE           N11     En1   v085
        BYTE   W12
        BYTE           N05     Cn1   v120
        BYTE           N05     As1   v070
        BYTE   W06
SupremancyBreak00_8_LOOP:
        BYTE           N05     Cn1   v090
        BYTE           N05     En1   v025
        BYTE   W06
        BYTE                   En1   v085
        BYTE           N05     As1   v070
        BYTE   W06
        BYTE           N11     Cn1   v120
        BYTE           N28     Cs2   v060   gtp1
        BYTE   W06
// 003   ----------------------------------------
        BYTE   W06
        BYTE           N05     Cn1   v100
        BYTE   W06
        BYTE           N11     En1   v085
        BYTE   W12
        BYTE           N05     Cn1   v120
        BYTE           N05     As1   v070
        BYTE   W06
        BYTE                   Cn1   v090
        BYTE   W06
        BYTE                   En1   v085
        BYTE           N05     As1   v070
        BYTE   W06
        BYTE           N11     Cn1   v120
        BYTE           N23     En2   v060
        BYTE   W12
        BYTE           N05     Cn1   v100
        BYTE   W06
        BYTE                   En1   v085
        BYTE   W06
        BYTE                   Cn1   v120
        BYTE           N23     Cs2   v060
        BYTE   W06
        BYTE           N05     En1   v095
        BYTE   W06
        BYTE           N02     Cn2   v125
        BYTE   W03
        BYTE                   An1   v105
        BYTE   W03
        BYTE           N05     Gn1   v125
        BYTE   W06
        BYTE                   Cn1   v120
        BYTE           N11     En2   v060
        BYTE   W02
        BYTE           N24     Cs2   v050   gtp3
        BYTE   W04
// 004   ----------------------------------------
        BYTE   W06
        BYTE           N05     An1   v120
        BYTE   W06
        BYTE                   Cn1   v110
        BYTE   W06
        BYTE           N03     Fs1   v040
        BYTE   W06
        BYTE           N05     En1   v095
        BYTE   W06
        BYTE           N03     Fs1   v040
        BYTE   W06
        BYTE           N05     Fn1   v120
        BYTE           N03     Fs1   v080
        BYTE   W06
        BYTE           N05     Cn1   v120
        BYTE           N03     Fs1   v040
        BYTE   W06
        BYTE                   Fs1   v080
        BYTE   W06
        BYTE           N05     En1   v055
        BYTE   W06
        BYTE                   Cn1   v120
        BYTE           N03     Fs1   v040
        BYTE   W06
        BYTE                   Fs1
        BYTE   W06
        BYTE           N05     En1   v095
        BYTE   W06
        BYTE           N04     As1   v100
        BYTE   W06
        BYTE           N03     Fs1   v040
        BYTE   W06
        BYTE           N05     Cn1   v110
        BYTE           N05     Cs2   v060
        BYTE   W06
// 005   ----------------------------------------
        BYTE                   Cn1   v100
        BYTE           N17     En2   v060
        BYTE   W06
        BYTE           N05     En1   v035
        BYTE   W06
        BYTE                   En1
        BYTE   W06
        BYTE                   Cn1   v110
        BYTE           N05     As1   v040
        BYTE   W06
        BYTE           N11     En1   v055
        BYTE           N03     Fs1   v040
        BYTE   W06
        BYTE           N05     As1   v050
        BYTE   W06
        BYTE                   Cn1   v120
        BYTE           N11     En1   v035
        BYTE   W06
        BYTE           N05     Cn1   v100
        BYTE           N05     As1   v070
        BYTE   W06
        BYTE                   Cn1   v120
        BYTE           N03     Fs1   v080
        BYTE   W06
        BYTE           N05     Cn1   v090
        BYTE           N05     As1   v080
        BYTE   W06
        BYTE                   En1   v035
        BYTE           N03     Fs1   v040
        BYTE   W06
        BYTE           N05     Cn1   v080
        BYTE           N05     As1   v100
        BYTE   W06
        BYTE                   Cn1   v120
        BYTE           N05     En1   v095
        BYTE   W06
        BYTE           N11     En1   v075
        BYTE           N11     Gn1   v115
        BYTE   W12
        BYTE                   Cn1   v120
        BYTE           N28     En2   v060   gtp1
        BYTE   W06
// 006   ----------------------------------------
        BYTE   W12
        BYTE           N11     En1   v085
        BYTE   W12
        BYTE           N05     Cn1   v120
        BYTE           N05     As1   v060
        BYTE   W06
        BYTE                   Cn1   v090
        BYTE   W06
        BYTE           N11     En1   v085
        BYTE           N05     As1   v060
        BYTE   W06
        BYTE           N11     Cn1   v120
        BYTE   W06
        BYTE           N05     As1   v070
        BYTE   W06
        BYTE                   Cn1   v100
        BYTE   W06
        BYTE           N11     En1   v085
        BYTE           N05     As1   v060
        BYTE   W12
        BYTE                   Cn1   v120
        BYTE           N05     As1   v060
        BYTE   W06
        BYTE                   Cn1   v090
        BYTE   W06
        BYTE           N11     En1   v085
        BYTE           N05     As1   v060
        BYTE   W06
        BYTE                   Cn1   v120
        BYTE   W06
// 007   ----------------------------------------
        BYTE           N23     En2   v060
        BYTE   W06
        BYTE           N05     Cn1   v100
        BYTE   W06
        BYTE           N11     En1   v085
        BYTE   W12
        BYTE           N05     Cn1   v120
        BYTE           N05     As1   v060
        BYTE   W06
        BYTE                   Cn1   v090
        BYTE   W06
        BYTE           N11     En1   v085
        BYTE           N05     As1   v060
        BYTE   W06
        BYTE           N11     Cn1   v120
        BYTE   W06
        BYTE           N23     En2   v060
        BYTE   W06
        BYTE           N05     Cn1   v100
        BYTE   W06
        BYTE           N11     En1   v085
        BYTE   W12
        BYTE           N05     Cn1   v120
        BYTE           N23     Cs2   v065
        BYTE   W06
        BYTE           N05     Cn1   v090
        BYTE   W06
        BYTE                   En1   v085
        BYTE   W06
        BYTE           N02     Cn1   v120
        BYTE   W03
        BYTE                   En1   v055
        BYTE   W03
// 008   ----------------------------------------
        BYTE           N11     Cn1   v120
        BYTE           N23     En2   v060
        BYTE   W12
        BYTE           N11     En1   v085
        BYTE   W12
        BYTE           N05     Cn1   v120
        BYTE           N05     As1   v060
        BYTE   W06
        BYTE                   Cn1   v090
        BYTE   W06
        BYTE           N11     En1   v085
        BYTE           N05     As1   v060
        BYTE   W06
        BYTE           N11     Cn1   v120
        BYTE   W06
        BYTE           N05     As1   v070
        BYTE   W06
        BYTE                   Cn1   v100
        BYTE           N05     En1   v025
        BYTE   W06
        BYTE           N11     En1   v085
        BYTE           N05     As1   v060
        BYTE   W12
        BYTE                   Cn1   v120
        BYTE           N05     As1   v060
        BYTE   W06
        BYTE                   Cn1   v090
        BYTE   W06
        BYTE                   En1   v085
        BYTE           N05     As1   v060
        BYTE   W06
        BYTE           N11     Cn1   v120
        BYTE           N28     En2   v060   gtp1
        BYTE   W06
// 009   ----------------------------------------
        BYTE   W06
        BYTE           N05     Cn1   v100
        BYTE   W06
        BYTE           N11     En1   v085
        BYTE   W11
        BYTE           N01     En1   v075
        BYTE   W01
        BYTE           N05     As1   v060
        BYTE   W01
        BYTE           N10     En1   v095
        BYTE   W05
        BYTE           N05     Cn1   v120
        BYTE   W06
        BYTE                   Cn1
        BYTE           N05     As1   v060
        BYTE   W05
        BYTE           N01     En1   v075
        BYTE   W01
        BYTE           N17     En2   v060
        BYTE   W01
        BYTE           N04     En1   v075
        BYTE   W05
        BYTE           N05     Cn1   v120
        BYTE   W06
        BYTE                   Cn1   v100
        BYTE   W06
        BYTE                   Cn1
        BYTE           N05     An1   v115
        BYTE   W06
        BYTE                   En1   v095
        BYTE           N05     En2   v060
        BYTE   W12
        BYTE                   Cn1   v120
        BYTE           N17     Cs2   v060
        BYTE   W06
        BYTE           N03     Bn1   v125
        BYTE   W04
        BYTE                   An1   v105
        BYTE   W04
        BYTE                   Gn1   v115
        BYTE   W04
// 010   ----------------------------------------
        BYTE           N11     Cn1   v120
        BYTE           N23     En2   v060
        BYTE   W12
        BYTE           N11     En1   v085
        BYTE           N05     As1   v060
        BYTE   W12
        BYTE                   Cn1   v120
        BYTE           N05     As1   v060
        BYTE   W06
        BYTE                   Cn1   v090
        BYTE   W06
        BYTE           N11     En1   v085
        BYTE           N05     As1   v060
        BYTE   W06
        BYTE           N11     Cn1   v120
        BYTE   W06
        BYTE           N05     As1   v070
        BYTE   W06
        BYTE                   Cn1   v100
        BYTE   W06
        BYTE           N11     En1   v085
        BYTE           N05     As1   v060
        BYTE   W12
        BYTE                   Cn1   v120
        BYTE           N05     As1   v060
        BYTE   W06
        BYTE                   Cn1   v090
        BYTE   W06
        BYTE           N11     En1   v085
        BYTE           N05     As1   v060
        BYTE   W06
        BYTE           N11     Cn1   v120
        BYTE   W06
// 011   ----------------------------------------
        BYTE           N23     En2   v060
        BYTE   W06
        BYTE           N05     Cn1   v100
        BYTE   W06
        BYTE                   En1   v055
        BYTE   W06
        BYTE                   En1   v085
        BYTE   W05
        BYTE           N01     En1   v055
        BYTE   W01
        BYTE           N05     Cn1   v120
        BYTE   W01
        BYTE           N04     En1   v095
        BYTE   W05
        BYTE           N05     Cn1   v090
        BYTE           N11     Cn2   v115
        BYTE   W06
        BYTE           N05     An1   v105
        BYTE   W06
        BYTE                   En1   v095
        BYTE           N17     En2   v060
        BYTE   W06
        BYTE           N05     Cn2   v115
        BYTE   W06
        BYTE                   An1
        BYTE   W06
        BYTE                   En1   v095
        BYTE           N17     Cs2   v060
        BYTE   W06
        BYTE           N05     Bn1   v115
        BYTE   W06
        BYTE                   Gn1
        BYTE   W06
        BYTE                   En1   v095
        BYTE           N17     En2   v067
        BYTE   W12
        BYTE           N05     Cn1   v090
        BYTE   W06
// 012   ----------------------------------------
        BYTE                   Cn1   v120
        BYTE           N17     Cs2   v067
        BYTE   W06
        BYTE           N05     En1   v035
        BYTE   W06
        BYTE           N03     Fs1   v080
        BYTE   W06
        BYTE           N05     Cn1   v110
        BYTE           N05     An1   v115
        BYTE   W06
        BYTE                   En1   v035
        BYTE           N03     Fs1   v050
        BYTE   W06
        BYTE           N05     En1   v035
        BYTE   W06
        BYTE                   Cn1   v120
        BYTE           N05     An1   v115
        BYTE   W06
        BYTE                   Cn1   v100
        BYTE           N05     Gn1   v105
        BYTE   W06
        BYTE           N03     Fs1   v060
        BYTE   W06
        BYTE           N05     Cn1   v120
        BYTE           N11     Bn1   v115
        BYTE   W06
        BYTE           N03     Fs1   v040
        BYTE   W06
        BYTE           N05     Cn1   v080
        BYTE   W05
        BYTE           N01     En1   v095
        BYTE   W01
        BYTE           N05     Cn1   v120
        BYTE   W01
        BYTE           N10     En1   v095
        BYTE   W05
        BYTE           N05     Gn1   v125
        BYTE   W06
        BYTE           N03     Fs1   v040
        BYTE   W06
        BYTE           N05     Cn1   v110
        BYTE           N05     Gs1   v080
        BYTE   W06
// 013   ----------------------------------------
        BYTE                   Cn1   v120
        BYTE           N05     En1   v085
        BYTE   W06
        BYTE                   En1   v045
        BYTE           N05     Fn1   v075
        BYTE   W06
        BYTE                   En1   v045
        BYTE           N05     Fn1   v075
        BYTE   W06
        BYTE                   En1   v065
        BYTE           N05     Fn1   v095
        BYTE   W06
        BYTE                   En1   v065
        BYTE           N05     Fn1   v095
        BYTE   W06
        BYTE                   En1   v075
        BYTE           N05     Fn1   v115
        BYTE   W06
        BYTE                   En1   v075
        BYTE           N05     Fn1   v115
        BYTE   W06
        BYTE           N11     En1   v085
        BYTE           N11     Cs2   v060
        BYTE   W12
        BYTE           N05     Cn1   v110
        BYTE           N17     En2   v060
        BYTE   W06
        BYTE           N05     Bn1   v125
        BYTE   W06
        BYTE                   An1
        BYTE   W06
        BYTE                   En1   v095
        BYTE           N05     Fn1   v125
        BYTE   W06
        BYTE                   Cn1   v120
        BYTE           N11     En1   v085
        BYTE   W06
        BYTE           N05     As1   v070
        BYTE   W06
        BYTE           N17     Cn1   v120
        BYTE           N28     Cs2   v060   gtp1
        BYTE   W06
// 014   ----------------------------------------
        BYTE   W12
        BYTE           N11     En1   v085
        BYTE   W12
        BYTE           N05     Cn1   v120
        BYTE           N05     As1   v060
        BYTE   W06
        BYTE                   Cn1   v090
        BYTE   W06
        BYTE                   En1   v085
        BYTE           N05     As1   v060
        BYTE   W06
        BYTE           N11     Cn1   v120
        BYTE           N28     En2   v060   gtp1
        BYTE   W12
        BYTE           N05     Cn1   v100
        BYTE   W06
        BYTE           N11     En1   v085
        BYTE   W12
        BYTE           N05     Cn1   v120
        BYTE           N05     As1   v060
        BYTE   W06
        BYTE                   Cn1   v090
        BYTE   W06
        BYTE                   En1   v085
        BYTE           N05     As1   v060
        BYTE   W06
        BYTE           N11     Cn1   v120
        BYTE           N28     Cs2   v060   gtp1
        BYTE   W06
// 015   ----------------------------------------
        BYTE   W06
        BYTE           N05     Cn1   v100
        BYTE   W06
        BYTE           N11     En1   v085
        BYTE   W12
        BYTE           N05     Cn1   v120
        BYTE           N05     As1   v060
        BYTE   W06
        BYTE                   En1   v025
        BYTE   W06
        BYTE                   En1   v085
        BYTE           N05     As1   v060
        BYTE   W06
        BYTE           N11     Cn1   v120
        BYTE           N17     En2   v060
        BYTE   W12
        BYTE           N05     Cn1   v100
        BYTE   W06
        BYTE                   En1   v085
        BYTE           N05     As1   v060
        BYTE   W06
        BYTE                   Cn1   v120
        BYTE           N11     Cs2   v060
        BYTE   W06
        BYTE           N05     As1
        BYTE   W06
        BYTE                   Cn1   v090
        BYTE           N11     En2   v067
        BYTE   W06
        BYTE           N05     En1   v085
        BYTE   W06
        BYTE           N11     Cn1   v120
        BYTE           N28     En2   v060   gtp1
        BYTE   W06
// 016   ----------------------------------------
        BYTE   W06
        BYTE           N05     Cn1   v100
        BYTE   W06
        BYTE           N11     En1   v085
        BYTE   W12
        BYTE           N05     Cn1   v120
        BYTE           N05     As1   v060
        BYTE   W06
        BYTE                   Cn1   v090
        BYTE   W06
        BYTE                   En1   v085
        BYTE           N05     As1   v060
        BYTE   W06
        BYTE           N11     Cn1   v120
        BYTE           N28     En2   v060   gtp1
        BYTE   W12
        BYTE           N05     Cn1   v100
        BYTE   W06
        BYTE           N11     En1   v085
        BYTE   W12
        BYTE           N05     Cn1   v120
        BYTE           N05     As1   v060
        BYTE   W06
        BYTE                   Cn1   v090
        BYTE   W06
        BYTE                   En1   v085
        BYTE           N05     As1   v060
        BYTE   W06
        BYTE           N11     Cn1   v120
        BYTE           N28     Cs2   v050   gtp1
        BYTE   W06
// 017   ----------------------------------------
        BYTE   W06
        BYTE           N05     Cn1   v100
        BYTE   W06
        BYTE           N10     En1   v085
        BYTE   W11
        BYTE           N01     En1   v055
        BYTE   W01
        BYTE           N05     Cn1   v120
        BYTE           N05     En1   v095
        BYTE   W06
        BYTE                   En1   v075
        BYTE   W06
        BYTE                   Cn1   v090
        BYTE           N05     As1   v060
        BYTE   W06
        BYTE           N11     Cn1   v120
        BYTE           N23     En2   v060
        BYTE   W12
        BYTE           N05     En1   v055
        BYTE   W06
        BYTE                   En1   v095
        BYTE   W06
        BYTE                   Cn1   v120
        BYTE           N23     Cs2   v060
        BYTE   W06
        BYTE           N05     En1   v095
        BYTE   W06
        BYTE           N02     Cn2   v125
        BYTE   W03
        BYTE                   Bn1   v105
        BYTE   W03
        BYTE           N05     Gn1   v125
        BYTE   W06
        BYTE                   Cn1   v120
        BYTE           N23     En2   v060
        BYTE   W02
        BYTE           N24     Cs2   v050   gtp3
        BYTE   W04
// 018   ----------------------------------------
        BYTE           N05     Cn1   v120
        BYTE   W06
        BYTE                   En1   v035
        BYTE   W06
        BYTE           N03     Fs1   v080
        BYTE   W06
        BYTE           N05     Cn1   v110
        BYTE           N05     An1   v115
        BYTE   W06
        BYTE                   En1   v035
        BYTE           N03     Fs1   v050
        BYTE   W06
        BYTE           N05     En1   v035
        BYTE   W06
        BYTE                   Cn1   v120
        BYTE           N05     An1   v115
        BYTE   W06
        BYTE                   En1   v045
        BYTE           N05     Gn1   v105
        BYTE   W06
        BYTE           N03     Fs1   v060
        BYTE   W06
        BYTE           N05     Cn1   v120
        BYTE           N17     Bn1   v115
        BYTE   W06
        BYTE           N03     Fs1   v040
        BYTE   W06
        BYTE           N05     Cn1   v080
        BYTE   W06
        BYTE                   Cn1   v120
        BYTE           N11     Gn1   v115
        BYTE   W06
        BYTE           N01     En1   v055
        BYTE   W01
        BYTE           N05     En1   v095
        BYTE   W05
        BYTE           N03     Fs1   v040
        BYTE   W06
        BYTE           N05     Cn1   v110
        BYTE           N05     En1   v045
        BYTE   W06
// 019   ----------------------------------------
        BYTE                   Cn1   v100
        BYTE           N17     Cs2   v060
        BYTE   W06
        BYTE           N05     En1   v035
        BYTE   W06
        BYTE                   En1
        BYTE   W06
        BYTE                   Cn1   v110
        BYTE           N05     As1   v050
        BYTE   W06
        BYTE                   En1   v055
        BYTE           N03     Fs1   v040
        BYTE   W06
        BYTE           N05     As1   v070
        BYTE   W06
        BYTE                   Cn1   v120
        BYTE           N05     En1   v035
        BYTE           N03     Fs1   v040
        BYTE   W06
        BYTE           N11     Cn1   v100
        BYTE           N23     En2   v060
        BYTE   W12
        BYTE           N05     Cn1   v120
        BYTE           N05     As1   v070
        BYTE   W06
        BYTE                   En1   v035
        BYTE   W06
        BYTE                   Cn1   v080
        BYTE           N05     As1
        BYTE   W06
        BYTE                   Cn1   v120
        BYTE           N05     An1   v125
        BYTE   W06
        BYTE           N11     Cs2   v060
        BYTE           N12     Gn1   v115
        BYTE   W06
        BYTE           N05     Cn1   v100
        BYTE   W06
        BYTE           N11     Cn1   v120
        BYTE           N28     En2   v060   gtp1
        BYTE   W06
// 020   ----------------------------------------
        BYTE   W06
        BYTE           N05     Cn1   v100
        BYTE   W06
        BYTE           N11     En1   v085
        BYTE   W12
        BYTE           N05     Cn1   v120
        BYTE           N05     As1   v060
        BYTE   W06
        BYTE                   Cn1   v090
        BYTE   W06
        BYTE                   En1   v085
        BYTE           N05     As1   v060
        BYTE   W06
        BYTE           N11     Cn1   v120
        BYTE           N28     En2   v060   gtp1
        BYTE   W12
        BYTE           N05     Cn1   v100
        BYTE   W06
        BYTE           N11     En1   v085
        BYTE   W12
        BYTE           N05     Cn1   v120
        BYTE           N05     As1   v060
        BYTE   W06
        BYTE                   Cn1   v090
        BYTE           N05     En1   v025
        BYTE   GoTo
         POIN2  SupremancyBreak00_8_LOOP
        BYTE   W06
        BYTE                   En1   v085
        BYTE           N05     As1   v060
        BYTE   W12
// 021   ----------------------------------------
        BYTE   W01
        BYTE   FINE

//***************** Track 9 (Midi-Chn.10) ******************//

SupremancyBreak00_9:
        BYTE   KEYSH   SupremancyBreak00_key+0
// 000   ----------------------------------------
        BYTE           VOICE   0
        BYTE           VOL     17
        BYTE           N05     Gs4   v051
        BYTE   W06
        BYTE                   Cs4   v093
        BYTE   W06
        BYTE                   An4   v103
        BYTE   W06
        BYTE                   Cs4   v111
        BYTE   W06
        BYTE                   Fs4   v093
        BYTE   W06
        BYTE                   Cs4   v082
        BYTE   W06
        BYTE                   Gs4   v072
        BYTE   W06
        BYTE                   Cs4   v062
        BYTE   W06
        BYTE                   An4   v051
        BYTE   W06
        BYTE                   Cs4   v062
        BYTE   W06
        BYTE                   Fs4   v093
        BYTE   W06
        BYTE                   Cs4   v062
        BYTE   W06
        BYTE                   Gs4   v093
        BYTE   W06
        BYTE                   Cs4   v082
        BYTE   W06
        BYTE                   An4   v072
        BYTE   W06
        BYTE           N06     Cs4   v062
        BYTE   W06
// 001   ----------------------------------------
        BYTE   W90
        BYTE           PAN     c_v+48
        BYTE   W06
// 002   ----------------------------------------
        BYTE           N05     Fs4   v036
        BYTE   W06
        BYTE                   Cs4   v088
        BYTE   W06
        BYTE                   Gs4   v101
        BYTE   W06
        BYTE                   Cs4   v111
        BYTE   W06
        BYTE                   An4   v088
        BYTE   W06
        BYTE                   Cs4   v075
        BYTE   W06
        BYTE                   Fs4   v062
        BYTE   W06
        BYTE                   Cs4   v050
        BYTE   W06
        BYTE                   Gs4   v036
        BYTE   W06
        BYTE                   Cs4   v050
        BYTE   W06
        BYTE                   An4   v088
        BYTE   W06
        BYTE                   Cs4   v050
        BYTE   W06
        BYTE                   Fs4   v088
        BYTE   W06
SupremancyBreak00_9_LOOP:
        BYTE           N05     Cs4   v075
        BYTE   W06
        BYTE                   Gs4   v062
        BYTE   W06
        BYTE                   Cs4   v050
        BYTE   W06
// 003   ----------------------------------------
        BYTE                   An4   v036
        BYTE   W06
        BYTE                   Cs4   v088
        BYTE   W06
        BYTE                   Fs4   v101
        BYTE   W06
        BYTE                   Cs4   v111
        BYTE   W06
        BYTE                   Gs4   v088
        BYTE   W06
        BYTE                   Cs4   v075
        BYTE   W06
        BYTE                   An4   v062
        BYTE   W06
        BYTE                   Cs4   v050
        BYTE   W06
        BYTE                   Fs4   v036
        BYTE   W06
        BYTE                   Cs4   v050
        BYTE   W06
        BYTE                   Gs4   v088
        BYTE   W06
        BYTE                   Cs4   v050
        BYTE   W30
// 004   ----------------------------------------
        BYTE   W96
// 005   ----------------------------------------
        BYTE   W90
        BYTE           PAN     c_v+0
        BYTE   W06
// 006   ----------------------------------------
        BYTE   W12
        BYTE           N05     Gs4   v117
        BYTE   W06
        BYTE                   Cs4   v127
        BYTE   W06
        BYTE                   An4   v104
        BYTE   W06
        BYTE                   Cs4   v091
        BYTE   W06
        BYTE                   Fs4   v078
        BYTE   W06
        BYTE                   Cs4   v065
        BYTE   W06
        BYTE                   Gs4   v052
        BYTE   W06
        BYTE                   Cs4   v065
        BYTE   W06
        BYTE                   An4   v104
        BYTE   W06
        BYTE                   Cs4   v065
        BYTE   W06
        BYTE                   Fs4   v104
        BYTE   W06
        BYTE                   Cs4   v091
        BYTE   W06
        BYTE                   Gs4   v078
        BYTE   W06
        BYTE                   Cs4   v065
        BYTE   W06
// 007   ----------------------------------------
        BYTE                   An4   v052
        BYTE   W06
        BYTE                   Cs4   v104
        BYTE   W06
        BYTE                   Gs4   v117
        BYTE   W06
        BYTE                   Cs4   v127
        BYTE   W06
        BYTE                   An4   v104
        BYTE   W06
        BYTE                   Cs4   v068
        BYTE   W06
        BYTE                   Bn4   v078
        BYTE   W06
        BYTE                   As3   v065
        BYTE   W06
        BYTE                   An4   v052
        BYTE   W06
        BYTE                   Cs4   v065
        BYTE   W06
        BYTE                   Bn4   v104
        BYTE   W06
        BYTE                   Cs4   v065
        BYTE   W06
        BYTE                   Cs5   v104
        BYTE   W06
        BYTE                   Cs4   v091
        BYTE   W06
        BYTE                   An4   v078
        BYTE   W06
        BYTE                   Cs4   v065
        BYTE   W06
// 008   ----------------------------------------
        BYTE                   Fs4   v102
        BYTE   W06
        BYTE                   An3   v103
        BYTE   W06
        BYTE                   En4   v116
        BYTE   W06
        BYTE                   An3   v126
        BYTE   W06
        BYTE                   Fs4   v103
        BYTE   W06
        BYTE                   An3   v090
        BYTE   W06
        BYTE                   Dn4   v077
        BYTE   W06
        BYTE                   An3   v065
        BYTE   W06
        BYTE                   En4   v051
        BYTE   W06
        BYTE                   Bn3   v065
        BYTE   W06
        BYTE                   Fs4   v103
        BYTE   W06
        BYTE                   Bn3   v065
        BYTE   W06
        BYTE                   Gs4   v103
        BYTE   W06
        BYTE                   Bn3   v090
        BYTE   W06
        BYTE                   En4   v077
        BYTE   W06
        BYTE                   Bn3   v065
        BYTE   W06
// 009   ----------------------------------------
        BYTE                   Fs4   v051
        BYTE   W06
        BYTE                   Cs4   v103
        BYTE   W06
        BYTE                   Gs4   v116
        BYTE   W06
        BYTE                   Cs4   v126
        BYTE   W06
        BYTE                   An4   v103
        BYTE   W06
        BYTE                   Cs4   v090
        BYTE   W06
        BYTE                   Fs4   v077
        BYTE   W06
        BYTE                   Cs4   v065
        BYTE   W06
        BYTE                   Gs4   v051
        BYTE   W06
        BYTE                   Cs4   v065
        BYTE   W06
        BYTE                   An4   v103
        BYTE   W24
        BYTE                   Cs5   v077
        BYTE   W06
        BYTE                   Cs4   v065
        BYTE   W06
// 010   ----------------------------------------
        BYTE   W96
// 011   ----------------------------------------
        BYTE   W96
// 012   ----------------------------------------
        BYTE   W96
// 013   ----------------------------------------
        BYTE   W96
// 014   ----------------------------------------
        BYTE   W96
// 015   ----------------------------------------
        BYTE   W96
// 016   ----------------------------------------
        BYTE   W96
// 017   ----------------------------------------
        BYTE   W96
// 018   ----------------------------------------
        BYTE   W96
// 019   ----------------------------------------
        BYTE   W90
        BYTE           PAN     c_v+48
        BYTE   W06
// 020   ----------------------------------------
        BYTE   W12
        BYTE           N05     Gs4   v116
        BYTE   W06
        BYTE                   Cs4   v126
        BYTE   W06
        BYTE                   An4   v103
        BYTE   W06
        BYTE                   Cs4   v090
        BYTE   W06
        BYTE                   Fs4   v077
        BYTE   W06
        BYTE                   Cs4   v065
        BYTE   W06
        BYTE                   Gs4   v051
        BYTE   W06
        BYTE                   Cs4   v065
        BYTE   W06
        BYTE                   An4   v103
        BYTE   W06
        BYTE                   Cs4   v065
        BYTE   W06
        BYTE                   Fs4   v103
        BYTE   W06
        BYTE                   Cs4   v090
        BYTE   GoTo
         POIN2  SupremancyBreak00_9_LOOP
        BYTE   W06
        BYTE                   Gs4   v077
        BYTE   W12
// 021   ----------------------------------------
        BYTE   W01
        BYTE   FINE

//***************** Track 10 (Midi-Chn.11) *****************//

SupremancyBreak00_10:
        BYTE   KEYSH   SupremancyBreak00_key+0
// 000   ----------------------------------------
        BYTE           VOICE   18
        BYTE           VOL     24
        BYTE           BEND    c_v+2
        BYTE   W08
        BYTE           N06     Dn4   v127
        BYTE   W06
        BYTE                   Fs4
        BYTE   W06
        BYTE                   An4
        BYTE   W06
        BYTE           N05     Cs5
        BYTE   W06
        BYTE           N06     Bn4
        BYTE   W06
        BYTE                   Gs4
        BYTE   W06
        BYTE                   En4
        BYTE   W06
        BYTE           N05     Bn3
        BYTE   W06
        BYTE           N06     An3
        BYTE   W06
        BYTE                   Dn4
        BYTE   W06
        BYTE                   Fs4
        BYTE   W06
        BYTE           N05     An4
        BYTE   W06
        BYTE           N06     Gs4
        BYTE   W06
        BYTE                   En4
        BYTE   W06
        BYTE           N05     Bn3
        BYTE   W04
// 001   ----------------------------------------
        BYTE   W02
        BYTE           VOL     5
        BYTE           N48     Fn4   v110
        BYTE   W03
        BYTE           VOL     6
        BYTE   W06
        BYTE                   7
        BYTE   W06
        BYTE                   8
        BYTE   W03
        BYTE                   9
        BYTE   W03
        BYTE                   11
        BYTE   W03
        BYTE                   12
        BYTE   W03
        BYTE                   14
        BYTE   W03
        BYTE                   15
        BYTE   W03
        BYTE                   18
        BYTE   W03
        BYTE                   20
        BYTE   W03
        BYTE                   22
        BYTE   W03
        BYTE                   24
        BYTE   W06
        BYTE           N01     Dn4   v060
        BYTE   W02
        BYTE                   Cn4
        BYTE   W01
        BYTE                   Bn3
        BYTE   W02
        BYTE                   An3
        BYTE   W01
        BYTE                   Gn3
        BYTE   W02
        BYTE                   Fn3
        BYTE   W01
        BYTE                   En3
        BYTE   W02
        BYTE                   Dn3
        BYTE   W01
        BYTE                   Cn3
        BYTE   W02
        BYTE                   Bn2
        BYTE   W01
        BYTE                   An2
        BYTE   W02
        BYTE                   Gn2
        BYTE   W01
        BYTE                   Fn2
        BYTE   W02
        BYTE                   Ds2
        BYTE   W01
        BYTE                   Dn2
        BYTE   W02
        BYTE                   Cn2
        BYTE   W01
        BYTE                   Bn1
        BYTE   W02
        BYTE                   An1
        BYTE   W01
        BYTE                   Gn1
        BYTE   W02
        BYTE                   Bn1
        BYTE   W01
        BYTE                   Cn2
        BYTE   W02
        BYTE                   Dn2
        BYTE   W01
        BYTE                   En2
        BYTE   W02
        BYTE                   Fn2
        BYTE   W01
        BYTE                   Gn2
        BYTE   W02
        BYTE                   An2
        BYTE   W01
        BYTE                   Bn2
        BYTE   W02
        BYTE                   Cn3
        BYTE   W01
        BYTE                   Dn3
        BYTE   W02
        BYTE                   En3
        BYTE   W01
        BYTE                   Fn3
        BYTE   W01
// 002   ----------------------------------------
        BYTE   W01
        BYTE                   Gn3
        BYTE   W01
        BYTE           N24     Fs4   v095
        BYTE   W48
        BYTE                   An4
        BYTE   W28
SupremancyBreak00_10_LOOP:
        BYTE   W18
// 003   ----------------------------------------
        BYTE   W02
        BYTE           N24     Bn4   v095
        BYTE   W48
        BYTE           N18     Cn5
        BYTE   W24
        BYTE           N17     Bn4   v085
        BYTE   W22
// 004   ----------------------------------------
        BYTE   W96
// 005   ----------------------------------------
        BYTE   W96
// 006   ----------------------------------------
        BYTE   W96
// 007   ----------------------------------------
        BYTE   W96
// 008   ----------------------------------------
        BYTE   W96
// 009   ----------------------------------------
        BYTE   W96
// 010   ----------------------------------------
        BYTE   W96
// 011   ----------------------------------------
        BYTE   W96
// 012   ----------------------------------------
        BYTE   W96
// 013   ----------------------------------------
        BYTE   W96
// 014   ----------------------------------------
SupremancyBreak00_10_14:
        BYTE   W02
        BYTE           N24     Fs4   v095
        BYTE   W48
        BYTE                   An4
        BYTE   W44
        BYTE   W02
        BYTE   PEND
// 015   ----------------------------------------
        BYTE   W02
        BYTE                   Bn4
        BYTE   W48
        BYTE           N18     Cn5
        BYTE   W24
        BYTE           N17     Bn4   v085
        BYTE   W20
        BYTE           N02     An3   v105
        BYTE   W02
// 016   ----------------------------------------
        BYTE   PATT
         POIN2  SupremancyBreak00_10_14
// 017   ----------------------------------------
        BYTE   W02
        BYTE           N24     Bn4   v095
        BYTE   W48
        BYTE           N20     Cn5
        BYTE   W21
        BYTE           N02     An3   v105
        BYTE   W03
        BYTE           N20     Bn4   v085
        BYTE   W20
        BYTE           N02     An3   v105
        BYTE   W02
// 018   ----------------------------------------
        BYTE   W96
// 019   ----------------------------------------
        BYTE   W96
// 020   ----------------------------------------
        BYTE   W02
        BYTE           N24     Fs4   v095
        BYTE   W48
        BYTE                   An4
        BYTE   W28
        BYTE   GoTo
         POIN2  SupremancyBreak00_10_LOOP
        BYTE   W18
// 021   ----------------------------------------
        BYTE   W01
        BYTE   FINE

//***************** Track 11 (Midi-Chn.12) *****************//

SupremancyBreak00_11:
        BYTE   KEYSH   SupremancyBreak00_key+0
// 000   ----------------------------------------
        BYTE           VOICE   26
        BYTE           VOL     24
        BYTE   W96
// 001   ----------------------------------------
        BYTE   W96
// 002   ----------------------------------------
        BYTE   W02
        BYTE           N23     Fs3   v065
        BYTE   W15
        BYTE           BEND    c_v-6
        BYTE   W01
        BYTE                   c_v-9
        BYTE   W03
        BYTE                   c_v-11
        BYTE   W02
        BYTE                   c_v-14
        BYTE   W01
        BYTE                   c_v-15
        BYTE   W01
        BYTE                   c_v-17
        BYTE   W01
        BYTE                   c_v-12
        BYTE           N44     Fs4   v065   gtp3
        BYTE   W02
        BYTE           BEND    c_v-7
        BYTE   W01
        BYTE                   c_v-2
        BYTE   W01
        BYTE                   c_v+0
        BYTE   W36
        BYTE   W03
        BYTE                   c_v-4
        BYTE   W01
        BYTE                   c_v-8
        BYTE   W02
        BYTE                   c_v-12
        BYTE   W01
        BYTE                   c_v-14
        BYTE   W01
        BYTE                   c_v+0
        BYTE           N05     Cs4   v045
        BYTE   W04
SupremancyBreak00_11_LOOP:
        BYTE   W02
        BYTE           N05     An4   v075
        BYTE   W06
        BYTE           N11     Fs4   v055
        BYTE   W10
// 003   ----------------------------------------
        BYTE   W02
        BYTE           BEND    c_v-10
        BYTE           N11     Cn5   v085
        BYTE   W01
        BYTE           BEND    c_v-8
        BYTE   W01
        BYTE                   c_v-6
        BYTE   W02
        BYTE                   c_v-3
        BYTE   W01
        BYTE                   c_v+0
        BYTE   W07
        BYTE           N05     Bn4   v055
        BYTE   W06
        BYTE                   An4
        BYTE   W06
        BYTE           N23     Fs4   v065
        BYTE   W19
        BYTE           BEND    c_v-5
        BYTE   W01
        BYTE                   c_v-9
        BYTE   W01
        BYTE                   c_v-17
        BYTE   W01
        BYTE                   c_v-21
        BYTE   W01
        BYTE                   c_v-26
        BYTE   W01
        BYTE                   c_v-22
        BYTE           N44     En3   v065   gtp3
        BYTE   W01
        BYTE           BEND    c_v-13
        BYTE   W01
        BYTE                   c_v-9
        BYTE   W01
        BYTE                   c_v-5
        BYTE   W01
        BYTE                   c_v+0
        BYTE   W42
// 004   ----------------------------------------
        BYTE   W96
// 005   ----------------------------------------
        BYTE   W96
// 006   ----------------------------------------
        BYTE   W96
// 007   ----------------------------------------
        BYTE   W96
// 008   ----------------------------------------
        BYTE   W96
// 009   ----------------------------------------
        BYTE   W96
// 010   ----------------------------------------
        BYTE   W96
// 011   ----------------------------------------
        BYTE   W96
// 012   ----------------------------------------
        BYTE   W96
// 013   ----------------------------------------
        BYTE   W96
// 014   ----------------------------------------
        BYTE   W01
        BYTE                   c_v-32
        BYTE   W01
        BYTE           N68     En4   v065   gtp3
        BYTE   W01
        BYTE           BEND    c_v-29
        BYTE   W01
        BYTE                   c_v-26
        BYTE   W02
        BYTE                   c_v-23
        BYTE   W01
        BYTE                   c_v-19
        BYTE   W02
        BYTE                   c_v-15
        BYTE   W02
        BYTE                   c_v-13
        BYTE   W01
        BYTE                   c_v-11
        BYTE   W02
        BYTE                   c_v-9
        BYTE   W01
        BYTE                   c_v-7
        BYTE   W02
        BYTE                   c_v-5
        BYTE   W01
        BYTE                   c_v-3
        BYTE   W02
        BYTE                   c_v+0
        BYTE   W22
        BYTE                   c_v-1
        BYTE   W01
        BYTE                   c_v-4
        BYTE   W02
        BYTE                   c_v-5
        BYTE   W05
        BYTE                   c_v-4
        BYTE   W01
        BYTE                   c_v-2
        BYTE   W01
        BYTE                   c_v+0
        BYTE   W22
        BYTE           N05     An3   v045
        BYTE   W06
        BYTE                   Gs3   v075
        BYTE   W06
        BYTE                   An3   v065
        BYTE   W06
        BYTE                   Bn3   v055
        BYTE   W04
// 015   ----------------------------------------
        BYTE   W02
        BYTE           N76     En3   v065   gtp1
        BYTE   W13
        BYTE           BEND    c_v-1
        BYTE   W01
        BYTE                   c_v-4
        BYTE   W01
        BYTE                   c_v-7
        BYTE   W01
        BYTE                   c_v-8
        BYTE   W02
        BYTE                   c_v-10
        BYTE   W01
        BYTE                   c_v-11
        BYTE   W01
        BYTE                   c_v-10
        BYTE   W02
        BYTE                   c_v-8
        BYTE   W01
        BYTE                   c_v-4
        BYTE   W01
        BYTE                   c_v-2
        BYTE   W01
        BYTE                   c_v-1
        BYTE   W02
        BYTE                   c_v+0
        BYTE   W13
        BYTE                   c_v-4
        BYTE   W01
        BYTE                   c_v-5
        BYTE   W03
        BYTE                   c_v-4
        BYTE   W01
        BYTE                   c_v-1
        BYTE   W01
        BYTE                   c_v+0
        BYTE   W22
        BYTE                   c_v-4
        BYTE   W01
        BYTE                   c_v-8
        BYTE   W01
        BYTE                   c_v-12
        BYTE   W01
        BYTE                   c_v-15
        BYTE   W01
        BYTE                   c_v-20
        BYTE   W01
        BYTE                   c_v-26
        BYTE   W01
        BYTE                   c_v-38
        BYTE   W01
        BYTE                   c_v-44
        BYTE   W01
        BYTE                   c_v-49
        BYTE   W01
        BYTE                   c_v-61
        BYTE   W01
        BYTE                   c_v+0
        BYTE           N05     An3   v085
        BYTE   W06
        BYTE                   Gs3   v065
        BYTE   W06
        BYTE                   En3   v055
        BYTE   W04
// 016   ----------------------------------------
        BYTE   W02
        BYTE           N44     Fs3   v065   gtp3
        BYTE   W14
        BYTE           BEND    c_v-7
        BYTE   W01
        BYTE                   c_v-10
        BYTE   W03
        BYTE                   c_v-9
        BYTE   W01
        BYTE                   c_v-6
        BYTE   W01
        BYTE                   c_v-3
        BYTE   W01
        BYTE                   c_v-1
        BYTE   W01
        BYTE                   c_v+0
        BYTE   W24
        BYTE   W02
        BYTE                   c_v-16
        BYTE           N68     Fs4   v065   gtp3
        BYTE   W02
        BYTE           BEND    c_v-13
        BYTE   W01
        BYTE                   c_v-10
        BYTE   W02
        BYTE                   c_v-6
        BYTE   W01
        BYTE                   c_v-3
        BYTE   W01
        BYTE                   c_v+0
        BYTE   W36
        BYTE   W03
// 017   ----------------------------------------
        BYTE   W02
        BYTE                   c_v-3
        BYTE   W01
        BYTE                   c_v-7
        BYTE   W02
        BYTE                   c_v-5
        BYTE   W01
        BYTE                   c_v-3
        BYTE   W01
        BYTE                   c_v+0
        BYTE   W19
        BYTE           N05     Cs4   v045
        BYTE   W06
        BYTE                   An4   v085
        BYTE   W06
        BYTE                   Gs4   v055
        BYTE   W06
        BYTE                   En4   v045
        BYTE   W06
        BYTE           N44     Cs4   v065   gtp3
        BYTE   W32
        BYTE   W02
        BYTE           BEND    c_v-1
        BYTE   W01
        BYTE                   c_v-2
        BYTE   W01
        BYTE                   c_v-4
        BYTE   W01
        BYTE                   c_v-5
        BYTE   W01
        BYTE                   c_v-7
        BYTE   W01
        BYTE                   c_v-8
        BYTE   W01
        BYTE                   c_v-10
        BYTE   W01
        BYTE                   c_v-13
        BYTE   W01
        BYTE                   c_v-16
        BYTE   W01
        BYTE                   c_v-17
        BYTE   W01
        BYTE                   c_v-22
        BYTE   W01
        BYTE                   c_v-24
        BYTE   W01
// 018   ----------------------------------------
        BYTE                   c_v-27
        BYTE   W01
        BYTE                   c_v-30
        BYTE   W01
        BYTE                   c_v-35
        BYTE   W01
        BYTE                   c_v-41
        BYTE   W01
        BYTE                   c_v-48
        BYTE   W01
        BYTE                   c_v-54
        BYTE   W01
        BYTE                   c_v-57
        BYTE   W01
        BYTE                   c_v-62
        BYTE   W01
        BYTE                   c_v-63
        BYTE   W01
        BYTE                   c_v-64
        BYTE   W84
        BYTE   W03
// 019   ----------------------------------------
        BYTE   W48
        BYTE   W01
        BYTE                   c_v+0
        BYTE   W44
        BYTE   W03
// 020   ----------------------------------------
        BYTE   W02
        BYTE           N23     Fs3
        BYTE   W15
        BYTE           BEND    c_v-6
        BYTE   W01
        BYTE                   c_v-9
        BYTE   W03
        BYTE                   c_v-11
        BYTE   W02
        BYTE                   c_v-14
        BYTE   W01
        BYTE                   c_v-15
        BYTE   W01
        BYTE                   c_v-17
        BYTE   W01
        BYTE                   c_v-12
        BYTE           N44     Fs4   v065   gtp3
        BYTE   W02
        BYTE           BEND    c_v-7
        BYTE   W01
        BYTE                   c_v-2
        BYTE   W01
        BYTE                   c_v+0
        BYTE   W36
        BYTE   W03
        BYTE                   c_v-4
        BYTE   W01
        BYTE                   c_v-8
        BYTE   W02
        BYTE                   c_v-12
        BYTE   W01
        BYTE                   c_v-14
        BYTE   W01
        BYTE                   c_v+0
        BYTE           N05     Cs4   v045
        BYTE   W04
        BYTE   GoTo
         POIN2  SupremancyBreak00_11_LOOP
        BYTE   W02
        BYTE                   An4   v075
        BYTE   W06
        BYTE           N11     Fs4   v055
        BYTE   W10
// 021   ----------------------------------------
        BYTE   W01
        BYTE   FINE

//***************** Track 12 (Midi-Chn.13) *****************//

SupremancyBreak00_12:
        BYTE   KEYSH   SupremancyBreak00_key+0
// 000   ----------------------------------------
        BYTE           VOICE   0
        BYTE           PAN     c_v-32
        BYTE           VOL     12
        BYTE           BEND    c_v+2
        BYTE   W08
        BYTE           N06     Gs4   v051
        BYTE   W06
        BYTE                   Cs4   v093
        BYTE   W06
        BYTE                   An4   v103
        BYTE   W06
        BYTE                   Cs4   v111
        BYTE   W06
        BYTE                   Fs4   v093
        BYTE   W06
        BYTE                   Cs4   v082
        BYTE   W06
        BYTE                   Gs4   v072
        BYTE   W06
        BYTE                   Cs4   v062
        BYTE   W06
        BYTE                   An4   v051
        BYTE   W06
        BYTE                   Cs4   v062
        BYTE   W06
        BYTE                   Fs4   v093
        BYTE   W06
        BYTE                   Cs4   v062
        BYTE   W06
        BYTE                   Gs4   v093
        BYTE   W06
        BYTE                   Cs4   v082
        BYTE   W06
        BYTE                   An4   v072
        BYTE   W04
// 001   ----------------------------------------
        BYTE   W02
        BYTE                   Cs4   v062
        BYTE   W92
        BYTE   W02
// 002   ----------------------------------------
        BYTE   W08
        BYTE                   Fs4   v036
        BYTE   W06
        BYTE                   Cs4   v088
        BYTE   W06
        BYTE                   Gs4   v101
        BYTE   W06
        BYTE                   Cs4   v111
        BYTE   W06
        BYTE                   An4   v088
        BYTE   W06
        BYTE                   Cs4   v075
        BYTE   W06
        BYTE                   Fs4   v062
        BYTE   W06
        BYTE                   Cs4   v050
        BYTE   W06
        BYTE                   Gs4   v036
        BYTE   W06
        BYTE                   Cs4   v050
        BYTE   W06
        BYTE                   An4   v088
        BYTE   W06
        BYTE                   Cs4   v050
        BYTE   W04
SupremancyBreak00_12_LOOP:
        BYTE   W02
        BYTE           N06     Fs4   v088
        BYTE   W06
        BYTE                   Cs4   v075
        BYTE   W06
        BYTE                   Gs4   v062
        BYTE   W04
// 003   ----------------------------------------
        BYTE   W02
        BYTE                   Cs4   v050
        BYTE   W06
        BYTE                   An4   v036
        BYTE   W06
        BYTE                   Cs4   v088
        BYTE   W06
        BYTE                   Fs4   v101
        BYTE   W06
        BYTE                   Cs4   v111
        BYTE   W06
        BYTE                   Gs4   v088
        BYTE   W06
        BYTE                   Cs4   v075
        BYTE   W06
        BYTE                   An4   v062
        BYTE   W06
        BYTE                   Cs4   v050
        BYTE   W06
        BYTE                   Fs4   v036
        BYTE   W06
        BYTE                   Cs4   v050
        BYTE   W06
        BYTE                   Gs4   v088
        BYTE   W06
        BYTE                   Cs4   v050
        BYTE   W06
        BYTE                   An4   v088
        BYTE   W06
        BYTE                   Cs4   v075
        BYTE   W06
        BYTE                   Fs4   v062
        BYTE   W04
// 004   ----------------------------------------
        BYTE   W02
        BYTE                   Cs4   v050
        BYTE   W92
        BYTE   W02
// 005   ----------------------------------------
        BYTE   W96
// 006   ----------------------------------------
        BYTE   W08
        BYTE                   Fs4   v078
        BYTE   W06
        BYTE                   Cs4   v104
        BYTE   W06
        BYTE                   Gs4   v117
        BYTE   W06
        BYTE                   Cs4   v127
        BYTE   W06
        BYTE                   An4   v104
        BYTE   W06
        BYTE                   Cs4   v091
        BYTE   W06
        BYTE                   Fs4   v078
        BYTE   W06
        BYTE                   Cs4   v065
        BYTE   W06
        BYTE                   Gs4   v052
        BYTE   W06
        BYTE                   Cs4   v065
        BYTE   W06
        BYTE                   An4   v104
        BYTE   W06
        BYTE                   Cs4   v065
        BYTE   W06
        BYTE                   Fs4   v104
        BYTE   W06
        BYTE                   Cs4   v091
        BYTE   W06
        BYTE                   Gs4   v078
        BYTE   W04
// 007   ----------------------------------------
        BYTE   W02
        BYTE                   Cs4   v065
        BYTE   W06
        BYTE                   An4   v052
        BYTE   W06
        BYTE                   Cs4   v104
        BYTE   W06
        BYTE                   Gs4   v117
        BYTE   W06
        BYTE                   Cs4   v127
        BYTE   W06
        BYTE                   An4   v104
        BYTE   W06
        BYTE                   Cs4   v068
        BYTE   W06
        BYTE                   Bn4   v078
        BYTE   W06
        BYTE                   As3   v065
        BYTE   W06
        BYTE                   An4   v052
        BYTE   W06
        BYTE                   Cs4   v065
        BYTE   W06
        BYTE                   Bn4   v104
        BYTE   W06
        BYTE                   Cs4   v065
        BYTE   W06
        BYTE                   Cs5   v104
        BYTE   W06
        BYTE                   Cs4   v091
        BYTE   W06
        BYTE                   An4   v078
        BYTE   W04
// 008   ----------------------------------------
        BYTE   W02
        BYTE                   Cs4   v065
        BYTE   W06
        BYTE                   Fs4   v102
        BYTE   W06
        BYTE                   An3   v103
        BYTE   W06
        BYTE                   En4   v116
        BYTE   W06
        BYTE                   An3   v126
        BYTE   W06
        BYTE                   Fs4   v103
        BYTE   W06
        BYTE                   An3   v090
        BYTE   W06
        BYTE                   Dn4   v077
        BYTE   W06
        BYTE                   An3   v065
        BYTE   W06
        BYTE                   En4   v051
        BYTE   W06
        BYTE                   Bn3   v065
        BYTE   W06
        BYTE                   Fs4   v103
        BYTE   W06
        BYTE                   Bn3   v065
        BYTE   W06
        BYTE                   Gs4   v103
        BYTE   W06
        BYTE                   Bn3   v090
        BYTE   W06
        BYTE                   En4   v077
        BYTE   W04
// 009   ----------------------------------------
        BYTE   W02
        BYTE                   Bn3   v065
        BYTE   W06
        BYTE                   Fs4   v051
        BYTE   W06
        BYTE                   Cs4   v103
        BYTE   W06
        BYTE                   Gs4   v116
        BYTE   W06
        BYTE                   Cs4   v126
        BYTE   W06
        BYTE                   An4   v103
        BYTE   W06
        BYTE                   Cs4   v090
        BYTE   W06
        BYTE                   Fs4   v077
        BYTE   W06
        BYTE                   Cs4   v065
        BYTE   W06
        BYTE                   Gs4   v051
        BYTE   W06
        BYTE                   Cs4   v065
        BYTE   W06
        BYTE                   An4   v103
        BYTE   W06
        BYTE                   Cs4   v065
        BYTE   W12
        BYTE                   Cs4   v090
        BYTE   W06
        BYTE                   Cs5   v077
        BYTE   W04
// 010   ----------------------------------------
        BYTE   W02
        BYTE                   Cs4   v065
        BYTE   W92
        BYTE   W02
// 011   ----------------------------------------
        BYTE   W96
// 012   ----------------------------------------
        BYTE   W96
// 013   ----------------------------------------
        BYTE   W96
// 014   ----------------------------------------
        BYTE   W96
// 015   ----------------------------------------
        BYTE   W96
// 016   ----------------------------------------
        BYTE   W96
// 017   ----------------------------------------
        BYTE   W96
// 018   ----------------------------------------
        BYTE   W96
// 019   ----------------------------------------
        BYTE   W96
// 020   ----------------------------------------
        BYTE   W08
        BYTE                   Fs4   v051
        BYTE   W06
        BYTE                   Cs4   v103
        BYTE   W06
        BYTE                   Gs4   v116
        BYTE   W06
        BYTE                   Cs4   v126
        BYTE   W06
        BYTE                   An4   v103
        BYTE   W06
        BYTE                   Cs4   v090
        BYTE   W06
        BYTE                   Fs4   v077
        BYTE   W06
        BYTE                   Cs4   v065
        BYTE   W06
        BYTE                   Gs4   v051
        BYTE   W06
        BYTE                   Cs4   v065
        BYTE   W06
        BYTE                   An4   v103
        BYTE   W06
        BYTE                   Cs4   v065
        BYTE   W04
        BYTE   GoTo
         POIN2  SupremancyBreak00_12_LOOP
        BYTE   W02
        BYTE                   Fs4   v103
        BYTE   W06
        BYTE                   Cs4   v090
        BYTE   W10
// 021   ----------------------------------------
        BYTE   W01
        BYTE   FINE

//***************** Track 13 (Midi-Chn.14) *****************//

SupremancyBreak00_13:
        BYTE   KEYSH   SupremancyBreak00_key+0
// 000   ----------------------------------------
        BYTE           VOICE   30
        BYTE           VOL     23
        BYTE           BEND    c_v+2
        BYTE   W08
        BYTE           N23     Bn1   v090
        BYTE   W24
        BYTE                   An1
        BYTE   W24
        BYTE                   Gs1
        BYTE   W24
        BYTE           N17     Fs1
        BYTE   W16
// 001   ----------------------------------------
        BYTE   W02
        BYTE           N52     Cs2   v090   gtp1
        BYTE   W92
        BYTE   W02
// 002   ----------------------------------------
        BYTE   W78
SupremancyBreak00_13_LOOP:
        BYTE   W18
// 003   ----------------------------------------
        BYTE   W01
        BYTE           VOICE   55
        BYTE   W01
        BYTE           VOL     24
        BYTE   W72
        BYTE           N05     An3   v100
        BYTE   W12
        BYTE                   Fs3
        BYTE   W06
        BYTE                   Fn3   v090
        BYTE   W04
// 004   ----------------------------------------
SupremancyBreak00_13_4:
        BYTE   W02
        BYTE           N17     En3   v100
        BYTE   W92
        BYTE   W02
        BYTE   PEND
// 005   ----------------------------------------
        BYTE   W80
        BYTE           N06     Cs4
        BYTE   W06
        BYTE           N05     Bn3
        BYTE   W06
        BYTE                   An3
        BYTE   W04
// 006   ----------------------------------------
        BYTE   W02
        BYTE           N16     Fs3
        BYTE   W92
        BYTE   W02
// 007   ----------------------------------------
        BYTE   W96
// 008   ----------------------------------------
        BYTE   W96
// 009   ----------------------------------------
        BYTE   W72
        BYTE   W02
        BYTE           N06     Cs4
        BYTE   W22
// 010   ----------------------------------------
        BYTE   W96
// 011   ----------------------------------------
        BYTE   W96
// 012   ----------------------------------------
        BYTE   W96
// 013   ----------------------------------------
        BYTE   W96
// 014   ----------------------------------------
SupremancyBreak00_13_14:
        BYTE   W02
        BYTE           N17     Fs3   v100
        BYTE   W92
        BYTE   W02
        BYTE   PEND
// 015   ----------------------------------------
        BYTE   W96
// 016   ----------------------------------------
        BYTE   PATT
         POIN2  SupremancyBreak00_13_14
// 017   ----------------------------------------
        BYTE   W96
// 018   ----------------------------------------
        BYTE   PATT
         POIN2  SupremancyBreak00_13_4
// 019   ----------------------------------------
        BYTE   W80
        BYTE           N05     Cn4   v100
        BYTE   W06
        BYTE                   Bn3
        BYTE   W06
        BYTE                   An3
        BYTE   W04
// 020   ----------------------------------------
        BYTE   W02
        BYTE           N17     Fs3
        BYTE   W76
        BYTE           VOICE   30
        BYTE           VOL     23
        BYTE   GoTo
         POIN2  SupremancyBreak00_13_LOOP
        BYTE   W18
// 021   ----------------------------------------
        BYTE   W01
        BYTE   FINE

//***************** Track 14 (Midi-Chn.15) *****************//

SupremancyBreak00_14:
        BYTE   KEYSH   SupremancyBreak00_key+0
// 000   ----------------------------------------
        BYTE           VOICE   61
        BYTE           PAN     c_v+16
        BYTE           VOL     9
        BYTE           BEND    c_v-2
        BYTE   W96
// 001   ----------------------------------------
        BYTE   W96
// 002   ----------------------------------------
        BYTE   W78
SupremancyBreak00_14_LOOP:
        BYTE   W18
// 003   ----------------------------------------
        BYTE   W96
// 004   ----------------------------------------
        BYTE   W40
        BYTE   W01
        BYTE           N05     Bn2   v108
        BYTE   W06
        BYTE           N04     En3   v103
        BYTE   W06
        BYTE                   An3
        BYTE   W06
        BYTE           N07     Gs3
        BYTE   W12
        BYTE                   An3
        BYTE   W12
        BYTE                   Bn3
        BYTE   W12
        BYTE           N10     En3
        BYTE   W01
// 005   ----------------------------------------
        BYTE   W11
        BYTE           N05
        BYTE   W06
        BYTE           N13     Dn3
        BYTE   W18
        BYTE                   En3
        BYTE   W18
        BYTE           N28     Bn2   v103   gtp1
        BYTE   W18
        BYTE           MOD     16
        BYTE   W12
        BYTE                   0
        BYTE   W06
        BYTE           N05     Cs3   v105
        BYTE   W06
        BYTE           N04     Bn2
        BYTE   W01
// 006   ----------------------------------------
        BYTE   W05
        BYTE                   An2
        BYTE   W06
        BYTE           N10     Fs2
        BYTE   W12
        BYTE           N05     Dn2
        BYTE   W06
        BYTE           N04     Fs2
        BYTE   W06
        BYTE                   An2
        BYTE   W06
        BYTE           N05     Cs3
        BYTE   W06
        BYTE           N04     Bn2
        BYTE   W06
        BYTE                   An2
        BYTE   W06
        BYTE           N07     Bn2
        BYTE   W12
        BYTE                   En3
        BYTE   W12
        BYTE                   Bn2
        BYTE   W12
        BYTE           N10     An2
        BYTE   W01
// 007   ----------------------------------------
        BYTE   W11
        BYTE           N05
        BYTE   W06
        BYTE           N17     Gs2
        BYTE   W18
        BYTE           N08     Cs2
        BYTE   W12
        BYTE                   Gs2
        BYTE   W12
        BYTE           N32     An2
        BYTE   W18
        BYTE           MOD     16
        BYTE   W18
        BYTE                   0
        BYTE           N05     Fs2
        BYTE   W01
// 008   ----------------------------------------
        BYTE   W05
        BYTE           N04     Gs2
        BYTE   W06
        BYTE                   En2
        BYTE   W06
        BYTE           N17     An2
        BYTE   W16
        BYTE           N08     Dn2
        BYTE   W14
        BYTE                   Bn2
        BYTE   W12
        BYTE           N32     Gs2
        BYTE   W36
        BYTE           N05     An2
        BYTE   W01
// 009   ----------------------------------------
        BYTE   W05
        BYTE           N04     Bn2
        BYTE   W06
        BYTE           N10     Cs3
        BYTE   W12
        BYTE           N07     Fs2
        BYTE   W12
        BYTE                   En3
        BYTE   W12
        BYTE           N06     Dn3
        BYTE   W12
        BYTE           N32     Cs3
        BYTE   W18
        BYTE           MOD     16
        BYTE   W18
        BYTE                   0
        BYTE           N05     Cs3   v110
        BYTE   W01
// 010   ----------------------------------------
        BYTE   W05
        BYTE           N04     Fs3
        BYTE   W06
        BYTE                   Gs3
        BYTE   W06
        BYTE           N11     An3
        BYTE   W12
        BYTE           N04     Gs3
        BYTE   W06
        BYTE           N07     Fs3
        BYTE   W12
        BYTE                   Bn3
        BYTE   W12
        BYTE           N20     Gs3
        BYTE   W15
        BYTE           BEND    c_v-16
        BYTE   W03
        BYTE                   c_v-34
        BYTE   W06
        BYTE                   c_v-18
        BYTE           N10
        BYTE   W03
        BYTE           BEND    c_v-2
        BYTE   W09
        BYTE           N07     En3
        BYTE   W01
// 011   ----------------------------------------
        BYTE   W11
        BYTE           N05     Bn2
        BYTE   W06
        BYTE           N17     Cs3
        BYTE   W18
        BYTE           N07     Gs3
        BYTE   W12
        BYTE                   Bn3
        BYTE   W12
        BYTE           N30     An3   v110   gtp1
        BYTE   W09
        BYTE           BEND    c_v-14
        BYTE   W03
        BYTE                   c_v-31
        BYTE   W06
        BYTE                   c_v-16
        BYTE           MOD     16
        BYTE   W03
        BYTE           BEND    c_v-2
        BYTE   W15
        BYTE           MOD     0
        BYTE           N11     Fs3
        BYTE   W01
// 012   ----------------------------------------
        BYTE   W11
        BYTE           N05     Gs3
        BYTE   W06
        BYTE           N13     An3
        BYTE   W18
        BYTE           N07     Gs3
        BYTE   W12
        BYTE                   An3
        BYTE   W12
        BYTE           N30     Bn3   v110   gtp1
        BYTE   W18
        BYTE           MOD     16
        BYTE   W18
        BYTE                   0
        BYTE           N05     An3
        BYTE   W01
// 013   ----------------------------------------
        BYTE   W05
        BYTE           N04     Bn3
        BYTE   W06
        BYTE           N20     Cs4   v105
        BYTE   W09
        BYTE           BEND    c_v-16
        BYTE   W03
        BYTE                   c_v-34
        BYTE   W12
        BYTE                   c_v-16
        BYTE           VOL     7
        BYTE           N68     Cs4   v105   gtp3
        BYTE   W03
        BYTE           BEND    c_v-2
        BYTE           VOL     9
        BYTE   W15
        BYTE           MOD     16
        BYTE   W24
        BYTE                   32
        BYTE   W19
// 014   ----------------------------------------
        BYTE   W11
        BYTE                   0
        BYTE   W84
        BYTE   W01
// 015   ----------------------------------------
        BYTE   W96
// 016   ----------------------------------------
        BYTE   W96
// 017   ----------------------------------------
        BYTE   W96
// 018   ----------------------------------------
        BYTE   W40
        BYTE   W01
        BYTE           N05     Bn2   v108
        BYTE   W06
        BYTE           N04     En3   v103
        BYTE   W06
        BYTE                   An3
        BYTE   W06
        BYTE           N05     Gs3
        BYTE   W12
        BYTE           N07     En3
        BYTE   W12
        BYTE                   Bn2
        BYTE   W12
        BYTE           N10     An2
        BYTE   W01
// 019   ----------------------------------------
        BYTE   W11
        BYTE           N05
        BYTE   W06
        BYTE           N13     Gs2
        BYTE   W18
        BYTE                   An2
        BYTE   W18
        BYTE           N32     Bn2   v103   gtp2
        BYTE   W18
        BYTE           MOD     16
        BYTE   W18
        BYTE                   0
        BYTE           N05     Cn3
        BYTE   W06
        BYTE           N04     Bn2
        BYTE   W01
// 020   ----------------------------------------
        BYTE   W05
        BYTE                   An2
        BYTE   W06
        BYTE           N17     Fs2
        BYTE   W66
        BYTE   W01
        BYTE   GoTo
         POIN2  SupremancyBreak00_14_LOOP
        BYTE   W18
// 021   ----------------------------------------
        BYTE   W01
        BYTE   FINE


//********************** End of Song ***********************//

        ALIGN 4
SupremancyBreak00:
        BYTE   15                      // Num Tracks
        BYTE   0                       // Unknown
        BYTE   SupremancyBreak00_pri   // Priority
        BYTE   SupremancyBreak00_rev   // Reverb

        POIN2   SupremancyBreak00_grp  

        POIN2   SupremancyBreak00_0
        POIN2   SupremancyBreak00_1
        POIN2   SupremancyBreak00_2
        POIN2   SupremancyBreak00_3
        POIN2   SupremancyBreak00_4
        POIN2   SupremancyBreak00_5
        POIN2   SupremancyBreak00_6
        POIN2   SupremancyBreak00_7
        POIN2   SupremancyBreak00_8
        POIN2   SupremancyBreak00_9
        POIN2   SupremancyBreak00_10
        POIN2   SupremancyBreak00_11
        POIN2   SupremancyBreak00_12
        POIN2   SupremancyBreak00_13
        POIN2   SupremancyBreak00_14

        
