//Event file generated from Sappy .s format.
	#include "MPlayDef.event"

	#define	SwordsBursting_grp  voicegroup000
	#define	SwordsBursting_pri  0
	#define	SwordsBursting_rev  0
	#define	SwordsBursting_mvl  127
	#define	SwordsBursting_key  0
	#define	SwordsBursting_tbs  1
	#define	SwordsBursting_exg  0
	#define	SwordsBursting_cmp  1

	// .rodata
	//	SwordsBursting
	ALIGN 4

//**************** Track 1 (Midi-Chn.1) ****************//

SwordsBursting_1:
	BYTE	KEYSH   SwordsBursting_key+0
// 000   ----------------------------------------
	BYTE	TEMPO   175*SwordsBursting_tbs/2
	BYTE		VOICE   127
	BYTE		VOL     33*SwordsBursting_mvl/mxv
	BYTE		PAN     c_v+0
	BYTE		N05     Cn1   v127
	BYTE		N05     Fs1   v096
	BYTE	W11
	BYTE		        Fs1   v088
	BYTE	W13
	BYTE		        Cn1   v127
	BYTE		N05     Fs1   v092
	BYTE	W12
	BYTE		        Fs1   v088
	BYTE	W11
	BYTE		        Fs1   v096
	BYTE	W01
	BYTE		        Cn1   v127
	BYTE	W11
	BYTE		        Fs1   v088
	BYTE	W13
	BYTE		        Cn1   v127
	BYTE		N05     Fs1   v092
	BYTE	W12
	BYTE		        Cn3   v108
	BYTE	W11
	BYTE		        Gs1   v100
	BYTE	W01
// 001   ----------------------------------------
SwordsBursting_1_001:
	BYTE		N05     Cn1   v127
	BYTE		N05     Fs1   v096
	BYTE	W11
	BYTE		        Fs1   v088
	BYTE	W13
	BYTE		        Cn1   v127
	BYTE		N05     Fs1   v092
	BYTE	W12
	BYTE		        Fs1   v088
	BYTE	W11
	BYTE		        Fs1   v096
	BYTE	W01
	BYTE		        Cn1   v127
	BYTE	W11
	BYTE		        Fs1   v088
	BYTE	W13
	BYTE		        Cn1   v127
	BYTE		N05     Fs1   v092
	BYTE	W12
	BYTE		        Cn3   v108
	BYTE	W11
	BYTE		        Gs1   v100
	BYTE	W01
	BYTE	PEND
// 002   ----------------------------------------
	BYTE	PATT
	 POIN2	SwordsBursting_1_001
// 003   ----------------------------------------
	BYTE	PATT
	 POIN2	SwordsBursting_1_001
// 004   ----------------------------------------
	BYTE	PATT
	 POIN2	SwordsBursting_1_001
// 005   ----------------------------------------
	BYTE	PATT
	 POIN2	SwordsBursting_1_001
// 006   ----------------------------------------
	BYTE	PATT
	 POIN2	SwordsBursting_1_001
// 007   ----------------------------------------
	BYTE	PATT
	 POIN2	SwordsBursting_1_001
// 008   ----------------------------------------
	BYTE	PATT
	 POIN2	SwordsBursting_1_001
// 009   ----------------------------------------
	BYTE	PATT
	 POIN2	SwordsBursting_1_001
// 010   ----------------------------------------
	BYTE	PATT
	 POIN2	SwordsBursting_1_001
// 011   ----------------------------------------
	BYTE	PATT
	 POIN2	SwordsBursting_1_001
// 012   ----------------------------------------
	BYTE	PATT
	 POIN2	SwordsBursting_1_001
// 013   ----------------------------------------
	BYTE	PATT
	 POIN2	SwordsBursting_1_001
// 014   ----------------------------------------
	BYTE	PATT
	 POIN2	SwordsBursting_1_001
// 015   ----------------------------------------
	BYTE		N05     Cn1   v127
	BYTE		N05     Fs1 
	BYTE		N23     En2 
	BYTE	W11
	BYTE		N05     Fs1 
	BYTE	W01
	BYTE		        Cn1 
	BYTE	W12
	BYTE		        Fs1   v104
	BYTE	W24
	BYTE		        Fs1   v096
	BYTE	W12
	BYTE		        Dn2   v127
	BYTE	W06
	BYTE		        Bn1 
	BYTE	W06
	BYTE		        Cn1 
	BYTE		N05     Dn1 
	BYTE	W24
SwordsBursting_1_B1:
// 016   ----------------------------------------
SwordsBursting_1_016:
	BYTE		N23     Cs0   v127
	BYTE		N23     Ds0 
	BYTE		N05     Cn1 
	BYTE	W11
	BYTE		N05   
	BYTE	W13
	BYTE		N23     Dn0 
	BYTE		N05     Dn1 
	BYTE	W24
	BYTE		N23     Cs0 
	BYTE		N05     Cn1 
	BYTE	W24
	BYTE		N23     Dn0 
	BYTE		N05     Dn1 
	BYTE	W24
	BYTE	PEND
// 017   ----------------------------------------
SwordsBursting_1_017:
	BYTE		N23     Cs0   v127
	BYTE		N05     Cn1 
	BYTE	W11
	BYTE		N05   
	BYTE	W13
	BYTE		N23     Dn0 
	BYTE		N05     Dn1 
	BYTE	W24
	BYTE		N23     Cs0 
	BYTE		N05     Cn1 
	BYTE	W24
	BYTE		N23     Dn0 
	BYTE		N05     Dn1 
	BYTE	W24
	BYTE	PEND
// 018   ----------------------------------------
	BYTE	PATT
	 POIN2	SwordsBursting_1_017
// 019   ----------------------------------------
	BYTE	PATT
	 POIN2	SwordsBursting_1_017
// 020   ----------------------------------------
	BYTE	PATT
	 POIN2	SwordsBursting_1_017
// 021   ----------------------------------------
	BYTE	PATT
	 POIN2	SwordsBursting_1_017
// 022   ----------------------------------------
	BYTE	PATT
	 POIN2	SwordsBursting_1_017
// 023   ----------------------------------------
	BYTE	PATT
	 POIN2	SwordsBursting_1_017
// 024   ----------------------------------------
	BYTE	PATT
	 POIN2	SwordsBursting_1_016
// 025   ----------------------------------------
	BYTE	PATT
	 POIN2	SwordsBursting_1_017
// 026   ----------------------------------------
	BYTE	PATT
	 POIN2	SwordsBursting_1_017
// 027   ----------------------------------------
	BYTE	PATT
	 POIN2	SwordsBursting_1_017
// 028   ----------------------------------------
	BYTE	PATT
	 POIN2	SwordsBursting_1_017
// 029   ----------------------------------------
	BYTE	PATT
	 POIN2	SwordsBursting_1_017
// 030   ----------------------------------------
	BYTE	PATT
	 POIN2	SwordsBursting_1_017
// 031   ----------------------------------------
SwordsBursting_1_031:
	BYTE		N23     Cs0   v127
	BYTE		N05     Cn1 
	BYTE	W11
	BYTE		N05   
	BYTE	W13
	BYTE		N23     Dn0 
	BYTE		N05     Dn1 
	BYTE	W12
	BYTE		        Gs1 
	BYTE		N05     An1 
	BYTE	W06
	BYTE		N05   
	BYTE	W06
	BYTE		        Fn1 
	BYTE	W12
	BYTE		        Cn1 
	BYTE	W12
	BYTE		        Dn1 
	BYTE		N05     Gs1 
	BYTE	W24
	BYTE	PEND
// 032   ----------------------------------------
SwordsBursting_1_032:
	BYTE		N05     Cn1   v127
	BYTE		N05     Fs1   v096
	BYTE		N23     En2   v127
	BYTE	W11
	BYTE		N05     Fs1   v088
	BYTE	W13
	BYTE		        Cn1   v127
	BYTE		N05     Fs1   v092
	BYTE	W12
	BYTE		        Fs1   v088
	BYTE	W11
	BYTE		        Fs1   v096
	BYTE	W01
	BYTE		        Cn1   v127
	BYTE	W11
	BYTE		        Fs1   v088
	BYTE	W13
	BYTE		        Cn1   v127
	BYTE		N05     Fs1   v092
	BYTE	W12
	BYTE		        Cn3   v108
	BYTE	W11
	BYTE		        Gs1   v100
	BYTE	W01
	BYTE	PEND
// 033   ----------------------------------------
	BYTE	PATT
	 POIN2	SwordsBursting_1_032
// 034   ----------------------------------------
SwordsBursting_1_034:
	BYTE		N23     Cs0   v127
	BYTE		N05     Dn1 
	BYTE		N23     En2 
	BYTE	W11
	BYTE		N05     Cn1 
	BYTE	W13
	BYTE		N05   
	BYTE		N05     Fs1 
	BYTE	W12
	BYTE		        Dn1 
	BYTE		N23     En2 
	BYTE	W12
	BYTE		N05     Cn1 
	BYTE		N05     Fs1 
	BYTE	W12
	BYTE		        Cn1 
	BYTE	W12
	BYTE		        Dn1 
	BYTE		N05     Fs1 
	BYTE		N23     En2 
	BYTE	W12
	BYTE		N05     Cn1 
	BYTE	W12
	BYTE	PEND
// 035   ----------------------------------------
SwordsBursting_1_035:
	BYTE		N05     Cn1   v127
	BYTE	W12
	BYTE		        Dn2 
	BYTE	W06
	BYTE		N05   
	BYTE	W06
	BYTE		        Cn1 
	BYTE		N05     Dn2 
	BYTE	W12
	BYTE		        An1 
	BYTE	W06
	BYTE		N05   
	BYTE	W06
	BYTE		        Cn1 
	BYTE		N05     An1 
	BYTE	W12
	BYTE		        Fn1 
	BYTE	W06
	BYTE		N05   
	BYTE	W06
	BYTE		        Cn1 
	BYTE		N05     Fn1 
	BYTE	W12
	BYTE		        Cn1 
	BYTE	W12
	BYTE	PEND
// 036   ----------------------------------------
	BYTE	PATT
	 POIN2	SwordsBursting_1_032
// 037   ----------------------------------------
	BYTE	PATT
	 POIN2	SwordsBursting_1_032
// 038   ----------------------------------------
	BYTE	PATT
	 POIN2	SwordsBursting_1_034
// 039   ----------------------------------------
	BYTE	PATT
	 POIN2	SwordsBursting_1_035
// 040   ----------------------------------------
	BYTE	PATT
	 POIN2	SwordsBursting_1_016
// 041   ----------------------------------------
	BYTE	PATT
	 POIN2	SwordsBursting_1_017
// 042   ----------------------------------------
	BYTE	PATT
	 POIN2	SwordsBursting_1_017
// 043   ----------------------------------------
	BYTE	PATT
	 POIN2	SwordsBursting_1_017
// 044   ----------------------------------------
	BYTE	PATT
	 POIN2	SwordsBursting_1_017
// 045   ----------------------------------------
	BYTE	PATT
	 POIN2	SwordsBursting_1_017
// 046   ----------------------------------------
	BYTE	PATT
	 POIN2	SwordsBursting_1_017
// 047   ----------------------------------------
SwordsBursting_1_047:
	BYTE		N23     Cs0   v127
	BYTE		N05     Cn1 
	BYTE	W11
	BYTE		N05   
	BYTE	W13
	BYTE		N23     Dn0 
	BYTE		N05     Dn1 
	BYTE	W24
	BYTE		N23     Cs0 
	BYTE		N05     Cn1 
	BYTE	W12
	BYTE		        Dn1 
	BYTE	W12
	BYTE		N23     Dn0 
	BYTE		N05     Dn1 
	BYTE	W12
	BYTE		N05   
	BYTE	W12
	BYTE	PEND
// 048   ----------------------------------------
	BYTE	PATT
	 POIN2	SwordsBursting_1_016
// 049   ----------------------------------------
	BYTE	PATT
	 POIN2	SwordsBursting_1_017
// 050   ----------------------------------------
	BYTE	PATT
	 POIN2	SwordsBursting_1_017
// 051   ----------------------------------------
	BYTE	PATT
	 POIN2	SwordsBursting_1_017
// 052   ----------------------------------------
	BYTE	PATT
	 POIN2	SwordsBursting_1_017
// 053   ----------------------------------------
	BYTE	PATT
	 POIN2	SwordsBursting_1_017
// 054   ----------------------------------------
	BYTE	PATT
	 POIN2	SwordsBursting_1_017
// 055   ----------------------------------------
	BYTE	PATT
	 POIN2	SwordsBursting_1_031
// 056   ----------------------------------------
	BYTE	PATT
	 POIN2	SwordsBursting_1_016
// 057   ----------------------------------------
	BYTE	PATT
	 POIN2	SwordsBursting_1_017
// 058   ----------------------------------------
	BYTE	PATT
	 POIN2	SwordsBursting_1_017
// 059   ----------------------------------------
	BYTE	PATT
	 POIN2	SwordsBursting_1_017
// 060   ----------------------------------------
	BYTE	PATT
	 POIN2	SwordsBursting_1_017
// 061   ----------------------------------------
	BYTE	PATT
	 POIN2	SwordsBursting_1_017
// 062   ----------------------------------------
	BYTE	PATT
	 POIN2	SwordsBursting_1_017
// 063   ----------------------------------------
	BYTE	PATT
	 POIN2	SwordsBursting_1_017
// 064   ----------------------------------------
	BYTE	PATT
	 POIN2	SwordsBursting_1_016
// 065   ----------------------------------------
	BYTE	PATT
	 POIN2	SwordsBursting_1_017
// 066   ----------------------------------------
	BYTE	PATT
	 POIN2	SwordsBursting_1_017
// 067   ----------------------------------------
	BYTE	PATT
	 POIN2	SwordsBursting_1_017
// 068   ----------------------------------------
	BYTE	PATT
	 POIN2	SwordsBursting_1_017
// 069   ----------------------------------------
	BYTE	PATT
	 POIN2	SwordsBursting_1_017
// 070   ----------------------------------------
	BYTE	PATT
	 POIN2	SwordsBursting_1_017
// 071   ----------------------------------------
	BYTE	PATT
	 POIN2	SwordsBursting_1_031
// 072   ----------------------------------------
	BYTE	PATT
	 POIN2	SwordsBursting_1_032
// 073   ----------------------------------------
	BYTE	PATT
	 POIN2	SwordsBursting_1_032
// 074   ----------------------------------------
	BYTE	PATT
	 POIN2	SwordsBursting_1_034
// 075   ----------------------------------------
	BYTE	PATT
	 POIN2	SwordsBursting_1_035
// 076   ----------------------------------------
	BYTE	PATT
	 POIN2	SwordsBursting_1_032
// 077   ----------------------------------------
	BYTE	PATT
	 POIN2	SwordsBursting_1_032
// 078   ----------------------------------------
	BYTE	PATT
	 POIN2	SwordsBursting_1_034
// 079   ----------------------------------------
	BYTE	PATT
	 POIN2	SwordsBursting_1_035
// 080   ----------------------------------------
	BYTE	PATT
	 POIN2	SwordsBursting_1_016
// 081   ----------------------------------------
	BYTE	PATT
	 POIN2	SwordsBursting_1_017
// 082   ----------------------------------------
	BYTE	PATT
	 POIN2	SwordsBursting_1_017
// 083   ----------------------------------------
	BYTE	PATT
	 POIN2	SwordsBursting_1_017
// 084   ----------------------------------------
	BYTE	PATT
	 POIN2	SwordsBursting_1_017
// 085   ----------------------------------------
	BYTE	PATT
	 POIN2	SwordsBursting_1_017
// 086   ----------------------------------------
	BYTE	PATT
	 POIN2	SwordsBursting_1_017
// 087   ----------------------------------------
	BYTE	PATT
	 POIN2	SwordsBursting_1_047
// 088   ----------------------------------------
	BYTE	PATT
	 POIN2	SwordsBursting_1_016
// 089   ----------------------------------------
	BYTE	PATT
	 POIN2	SwordsBursting_1_017
// 090   ----------------------------------------
	BYTE	PATT
	 POIN2	SwordsBursting_1_017
// 091   ----------------------------------------
	BYTE	PATT
	 POIN2	SwordsBursting_1_017
// 092   ----------------------------------------
	BYTE	PATT
	 POIN2	SwordsBursting_1_017
// 093   ----------------------------------------
	BYTE	PATT
	 POIN2	SwordsBursting_1_017
// 094   ----------------------------------------
	BYTE	PATT
	 POIN2	SwordsBursting_1_017
// 095   ----------------------------------------
	BYTE		N23     Cs0   v127
	BYTE		N05     Cn1 
	BYTE	W11
	BYTE		N05   
	BYTE	W13
	BYTE		N23     Dn0 
	BYTE		N05     Dn1 
	BYTE	W12
	BYTE		        Gs1 
	BYTE		N05     An1 
	BYTE	W06
	BYTE		N05   
	BYTE	W06
	BYTE		        Fn1 
	BYTE	W12
	BYTE		        Cn1 
	BYTE	W12
	BYTE		        Dn1 
	BYTE		N05     Gs1 
	BYTE	W23
	BYTE	GoTo
	 POIN2	SwordsBursting_1_B1
SwordsBursting_1_B2:
	BYTE	FINE

//**************** Track 2 (Midi-Chn.2) ****************//

SwordsBursting_2:
	BYTE	KEYSH   SwordsBursting_key+0
// 000   ----------------------------------------
	BYTE		VOICE   4
	BYTE		VOL     26*SwordsBursting_mvl/mxv
	BYTE		PAN     c_v-1
	BYTE		N92     Bn1   v064
	BYTE	W12
	BYTE		N80     Fs2   v068
	BYTE	W12
	BYTE		N68     Dn3 
	BYTE	W12
	BYTE		N56     An3 
	BYTE	W60
// 001   ----------------------------------------
SwordsBursting_2_001:
	BYTE		N92     Bn1   v076
	BYTE	W12
	BYTE		N80     Fs2 
	BYTE	W12
	BYTE		N68     Dn3   v068
	BYTE	W12
	BYTE		N56     Fs3   v076
	BYTE	W60
	BYTE	PEND
// 002   ----------------------------------------
SwordsBursting_2_002:
	BYTE		N92     Cn2   v080
	BYTE	W12
	BYTE		N80     As2   v072
	BYTE	W12
	BYTE		N68     En3   v068
	BYTE	W12
	BYTE		N56     Gn3   v080
	BYTE	W60
	BYTE	PEND
// 003   ----------------------------------------
	BYTE	PATT
	 POIN2	SwordsBursting_2_002
// 004   ----------------------------------------
SwordsBursting_2_004:
	BYTE		N92     Bn1   v064
	BYTE	W12
	BYTE		N80     Fs2   v068
	BYTE	W12
	BYTE		N68     Dn3 
	BYTE	W12
	BYTE		N56     An3 
	BYTE	W60
	BYTE	PEND
// 005   ----------------------------------------
	BYTE	PATT
	 POIN2	SwordsBursting_2_001
// 006   ----------------------------------------
	BYTE	PATT
	 POIN2	SwordsBursting_2_002
// 007   ----------------------------------------
	BYTE	PATT
	 POIN2	SwordsBursting_2_002
// 008   ----------------------------------------
	BYTE	PATT
	 POIN2	SwordsBursting_2_004
// 009   ----------------------------------------
	BYTE		N92     Bn1   v076
	BYTE	W10
	BYTE		N84     Fs2 
	BYTE	W14
	BYTE		N68     Dn3   v068
	BYTE	W12
	BYTE		N56     Fs3   v076
	BYTE	W60
// 010   ----------------------------------------
	BYTE	PATT
	 POIN2	SwordsBursting_2_002
// 011   ----------------------------------------
	BYTE	PATT
	 POIN2	SwordsBursting_2_002
// 012   ----------------------------------------
	BYTE		N92     Cs2   v064
	BYTE	W12
	BYTE		N80     As2   v068
	BYTE	W12
	BYTE		N68     Ds3 
	BYTE	W12
	BYTE		N56     Gn3 
	BYTE	W60
// 013   ----------------------------------------
	BYTE		N92     Cs2   v064
	BYTE	W12
	BYTE		N80     An2   v068
	BYTE	W12
	BYTE		N68     Ds3 
	BYTE	W12
	BYTE		N56     Gn3 
	BYTE	W60
// 014   ----------------------------------------
	BYTE		N92     Gn1   v064
	BYTE	W12
	BYTE		N80     Dn2 
	BYTE	W12
	BYTE		N68     As2   v068
	BYTE	W12
	BYTE		N56     Gn3   v056
	BYTE	W60
// 015   ----------------------------------------
	BYTE		N92     Fs1   v064
	BYTE	W01
	BYTE		        Cs2 
	BYTE	W05
	BYTE		N88     En2 
	BYTE	W02
	BYTE		N84     As2   v068
	BYTE	W06
	BYTE		N80     Cs3   v056
	BYTE	W80
	BYTE	W02
SwordsBursting_2_B1:
// 016   ----------------------------------------
SwordsBursting_2_016:
	BYTE		N92     Bn1   v068
	BYTE	W12
	BYTE		N68     Fs2 
	BYTE	W12
	BYTE		N32     Bn2   v076
	BYTE	W12
	BYTE		N56     En3   v068
	BYTE	W24
	BYTE		N32     Bn2   v060
	BYTE	W24
	BYTE		N11     Fs2   v048
	BYTE	W12
	BYTE	PEND
// 017   ----------------------------------------
SwordsBursting_2_017:
	BYTE		N92     Bn1   v068
	BYTE	W12
	BYTE		N68     Fs2 
	BYTE	W12
	BYTE		N32     Bn2   v076
	BYTE	W12
	BYTE		N56     Dn3   v068
	BYTE	W24
	BYTE		N32     Bn2   v052
	BYTE	W24
	BYTE		N11     Fs2   v044
	BYTE	W12
	BYTE	PEND
// 018   ----------------------------------------
SwordsBursting_2_018:
	BYTE		N92     Gn1   v072
	BYTE	W12
	BYTE		N68     Fs2   v076
	BYTE	W12
	BYTE		N32     Bn2 
	BYTE	W12
	BYTE		N56     Dn3   v068
	BYTE	W24
	BYTE		N32     Bn2   v060
	BYTE	W24
	BYTE		N11     Fs2   v040
	BYTE	W12
	BYTE	PEND
// 019   ----------------------------------------
SwordsBursting_2_019:
	BYTE		N92     Gn1   v072
	BYTE	W12
	BYTE		N68     Fs2   v076
	BYTE	W12
	BYTE		N32     Bn2 
	BYTE	W12
	BYTE		N56     Dn3   v068
	BYTE	W24
	BYTE		N32     Bn2   v056
	BYTE	W24
	BYTE		N11     Fs2   v044
	BYTE	W12
	BYTE	PEND
// 020   ----------------------------------------
SwordsBursting_2_020:
	BYTE		N92     Cn2   v076
	BYTE	W12
	BYTE		N68     Gn2   v072
	BYTE	W12
	BYTE		N32     As2   v076
	BYTE	W12
	BYTE		N56     En3   v068
	BYTE	W24
	BYTE		N32     As2   v052
	BYTE	W24
	BYTE		N11     Gn2   v044
	BYTE	W12
	BYTE	PEND
// 021   ----------------------------------------
SwordsBursting_2_021:
	BYTE		N92     Cn2   v076
	BYTE	W12
	BYTE		N68     Gn2   v072
	BYTE	W12
	BYTE		N32     As2   v076
	BYTE	W12
	BYTE		N56     En3   v068
	BYTE	W24
	BYTE		N32     As2   v060
	BYTE	W24
	BYTE		N11     Gn2   v052
	BYTE	W12
	BYTE	PEND
// 022   ----------------------------------------
SwordsBursting_2_022:
	BYTE		N92     Cs2   v068
	BYTE	W12
	BYTE		N68     Gn2   v072
	BYTE	W12
	BYTE		N32     Bn2   v068
	BYTE	W12
	BYTE		N56     Fs3 
	BYTE	W24
	BYTE		N32     Bn2   v060
	BYTE	W24
	BYTE		N11     Gn2   v048
	BYTE	W12
	BYTE	PEND
// 023   ----------------------------------------
SwordsBursting_2_023:
	BYTE		N92     Fs1   v076
	BYTE	W12
	BYTE		N68     En2   v068
	BYTE	W12
	BYTE		N32     As2   v076
	BYTE	W12
	BYTE		N44     En3 
	BYTE	W24
	BYTE		N32     As2   v056
	BYTE	W24
	BYTE		N11     En2 
	BYTE	W12
	BYTE	PEND
// 024   ----------------------------------------
SwordsBursting_2_024:
	BYTE		N92     Bn1   v068
	BYTE	W12
	BYTE		N68     Fs2 
	BYTE	W12
	BYTE		N32     Bn2   v076
	BYTE	W12
	BYTE		N56     En3   v068
	BYTE	W24
	BYTE		N32     Bn2   v056
	BYTE	W24
	BYTE		N11     Fs2 
	BYTE	W12
	BYTE	PEND
// 025   ----------------------------------------
	BYTE	PATT
	 POIN2	SwordsBursting_2_017
// 026   ----------------------------------------
SwordsBursting_2_026:
	BYTE		N92     Gn1   v072
	BYTE	W12
	BYTE		N68     Fs2   v076
	BYTE	W12
	BYTE		N32     Bn2 
	BYTE	W12
	BYTE		N56     Dn3   v068
	BYTE	W24
	BYTE		N32     Bn2   v056
	BYTE	W24
	BYTE		N11     Fs2 
	BYTE	W12
	BYTE	PEND
// 027   ----------------------------------------
SwordsBursting_2_027:
	BYTE		N92     Gn1   v072
	BYTE	W12
	BYTE		N68     Fs2   v076
	BYTE	W12
	BYTE		N32     Bn2 
	BYTE	W12
	BYTE		N56     Dn3   v068
	BYTE	W24
	BYTE		N32     Bn2   v056
	BYTE	W24
	BYTE		N11     Fs2   v052
	BYTE	W12
	BYTE	PEND
// 028   ----------------------------------------
SwordsBursting_2_028:
	BYTE		N92     Cn2   v076
	BYTE	W12
	BYTE		N68     Gn2   v072
	BYTE	W12
	BYTE		N32     As2   v076
	BYTE	W12
	BYTE		N56     En3   v068
	BYTE	W24
	BYTE		N32     As2   v048
	BYTE	W24
	BYTE		N11     Gn2   v044
	BYTE	W12
	BYTE	PEND
// 029   ----------------------------------------
SwordsBursting_2_029:
	BYTE		N92     Cs2   v068
	BYTE	W12
	BYTE		N68     As2   v072
	BYTE	W12
	BYTE		N32     Cs3   v068
	BYTE	W12
	BYTE		N56     Fs3 
	BYTE	W24
	BYTE		N32     Cs3   v052
	BYTE	W24
	BYTE		N11     As2   v048
	BYTE	W12
	BYTE	PEND
// 030   ----------------------------------------
	BYTE	PATT
	 POIN2	SwordsBursting_2_017
// 031   ----------------------------------------
SwordsBursting_2_031:
	BYTE		N92     Bn1   v068
	BYTE	W12
	BYTE		N68     Fs2 
	BYTE	W12
	BYTE		N32     Bn2   v076
	BYTE	W12
	BYTE		N56     Dn3   v068
	BYTE	W24
	BYTE		N32     Bn2   v056
	BYTE	W24
	BYTE		N11     Fs2   v048
	BYTE	W12
	BYTE	PEND
// 032   ----------------------------------------
	BYTE	W96
// 033   ----------------------------------------
	BYTE	W96
// 034   ----------------------------------------
	BYTE	W96
// 035   ----------------------------------------
	BYTE	W96
// 036   ----------------------------------------
	BYTE	W96
// 037   ----------------------------------------
	BYTE	W96
// 038   ----------------------------------------
	BYTE	W96
// 039   ----------------------------------------
	BYTE	W96
// 040   ----------------------------------------
SwordsBursting_2_040:
	BYTE		N92     Cn2   v084
	BYTE	W12
	BYTE		N68     Gn2   v076
	BYTE	W12
	BYTE		N32     As2   v084
	BYTE	W12
	BYTE		N56     En3   v080
	BYTE	W24
	BYTE		N32     As2   v060
	BYTE	W24
	BYTE		N11     Gn2   v044
	BYTE	W12
	BYTE	PEND
// 041   ----------------------------------------
SwordsBursting_2_041:
	BYTE		N92     Cs2   v080
	BYTE	W12
	BYTE		N68     Fs2   v076
	BYTE	W12
	BYTE		N32     As2 
	BYTE	W12
	BYTE		N56     En3   v080
	BYTE	W24
	BYTE		N32     As2   v060
	BYTE	W24
	BYTE		N11     Fs2   v044
	BYTE	W12
	BYTE	PEND
// 042   ----------------------------------------
SwordsBursting_2_042:
	BYTE		N92     Bn1   v084
	BYTE	W12
	BYTE		N68     Fs2   v076
	BYTE	W12
	BYTE		N32     Dn3 
	BYTE	W12
	BYTE		N56     Fs3   v088
	BYTE	W24
	BYTE		N32     Dn3   v060
	BYTE	W24
	BYTE		N11     Fs2   v044
	BYTE	W12
	BYTE	PEND
// 043   ----------------------------------------
SwordsBursting_2_043:
	BYTE		N92     An1   v084
	BYTE	W12
	BYTE		N68     Fs2   v076
	BYTE	W12
	BYTE		N32     Bn2 
	BYTE	W12
	BYTE		N56     Dn3   v088
	BYTE	W24
	BYTE		N32     Bn2   v060
	BYTE	W24
	BYTE		N11     Fs2   v044
	BYTE	W12
	BYTE	PEND
// 044   ----------------------------------------
SwordsBursting_2_044:
	BYTE		N90     Gs1   v088
	BYTE	W12
	BYTE		N68     Fs2   v080
	BYTE	W12
	BYTE		N32     Bn2   v076
	BYTE	W12
	BYTE		N56     Dn3   v080
	BYTE	W24
	BYTE		N32     Bn2   v060
	BYTE	W24
	BYTE		N11     Fs2   v044
	BYTE	W12
	BYTE	PEND
// 045   ----------------------------------------
SwordsBursting_2_045:
	BYTE		N92     Cs2   v080
	BYTE	W12
	BYTE		N68     Gs2   v076
	BYTE	W12
	BYTE		N32     Bn2   v080
	BYTE	W12
	BYTE		N56     Fn3   v072
	BYTE	W24
	BYTE		N32     Bn2   v060
	BYTE	W24
	BYTE		N11     Gs2   v044
	BYTE	W12
	BYTE	PEND
// 046   ----------------------------------------
SwordsBursting_2_046:
	BYTE		N92     Cs2   v080
	BYTE	W12
	BYTE		N68     Fs2   v076
	BYTE	W12
	BYTE		N32     As2   v080
	BYTE	W12
	BYTE		N44     Fs3   v072
	BYTE	W24
	BYTE		N32     As2   v060
	BYTE	W24
	BYTE		N11     Fs2   v044
	BYTE	W12
	BYTE	PEND
// 047   ----------------------------------------
	BYTE	PATT
	 POIN2	SwordsBursting_2_046
// 048   ----------------------------------------
SwordsBursting_2_048:
	BYTE		N92     Dn2   v084
	BYTE	W12
	BYTE		N68     Gn2   v076
	BYTE	W12
	BYTE		N32     Bn2   v084
	BYTE	W12
	BYTE		N56     Fs3   v080
	BYTE	W24
	BYTE		N32     Bn2   v056
	BYTE	W24
	BYTE		N11     Gn2   v052
	BYTE	W12
	BYTE	PEND
// 049   ----------------------------------------
SwordsBursting_2_049:
	BYTE		N92     Cs2   v080
	BYTE	W12
	BYTE		N68     Fs2   v076
	BYTE	W12
	BYTE		N32     As2 
	BYTE	W12
	BYTE		N56     En3   v080
	BYTE	W24
	BYTE		N32     As2   v056
	BYTE	W24
	BYTE		N11     Fs2   v048
	BYTE	W12
	BYTE	PEND
// 050   ----------------------------------------
SwordsBursting_2_050:
	BYTE		N92     Bn1   v084
	BYTE	W12
	BYTE		N68     Fs2   v076
	BYTE	W12
	BYTE		N32     Dn3 
	BYTE	W12
	BYTE		N56     Fs3   v088
	BYTE	W24
	BYTE		N32     Dn3   v056
	BYTE	W24
	BYTE		N11     Fs2   v044
	BYTE	W12
	BYTE	PEND
// 051   ----------------------------------------
SwordsBursting_2_051:
	BYTE		N92     An1   v084
	BYTE	W12
	BYTE		N68     Fs2   v076
	BYTE	W12
	BYTE		N32     Bn2 
	BYTE	W12
	BYTE		N56     Dn3   v088
	BYTE	W24
	BYTE		N32     Bn2   v052
	BYTE	W24
	BYTE		N11     Fs2 
	BYTE	W12
	BYTE	PEND
// 052   ----------------------------------------
SwordsBursting_2_052:
	BYTE		N92     En2   v088
	BYTE	W12
	BYTE		N68     Bn2   v080
	BYTE	W12
	BYTE		N32     Dn3   v076
	BYTE	W12
	BYTE		N56     Fs3   v080
	BYTE	W24
	BYTE		N32     Dn3   v052
	BYTE	W24
	BYTE		N11     Bn2   v048
	BYTE	W12
	BYTE	PEND
// 053   ----------------------------------------
SwordsBursting_2_053:
	BYTE		N92     Fs2   v080
	BYTE	W12
	BYTE		N80     As2   v076
	BYTE	W12
	BYTE		N32     En3   v080
	BYTE	W12
	BYTE		N44     An3   v072
	BYTE	W24
	BYTE		N32     En3   v052
	BYTE	W24
	BYTE		N11     An3 
	BYTE	W12
	BYTE	PEND
// 054   ----------------------------------------
SwordsBursting_2_054:
	BYTE		N92     Bn1   v080
	BYTE	W12
	BYTE		N68     Fs2   v076
	BYTE	W12
	BYTE		N32     Bn2   v080
	BYTE	W12
	BYTE		N56     Dn3   v072
	BYTE	W24
	BYTE		N32     Bn2   v056
	BYTE	W24
	BYTE		N11     Fs2   v052
	BYTE	W12
	BYTE	PEND
// 055   ----------------------------------------
	BYTE		N92     Bn1   v080
	BYTE	W12
	BYTE		N68     Fs2   v076
	BYTE	W12
	BYTE		N32     Bn2   v080
	BYTE	W12
	BYTE		N56     Dn3   v072
	BYTE	W24
	BYTE		N32     Bn2   v052
	BYTE	W24
	BYTE		N11     Fs2   v040
	BYTE	W12
// 056   ----------------------------------------
	BYTE	PATT
	 POIN2	SwordsBursting_2_016
// 057   ----------------------------------------
	BYTE	PATT
	 POIN2	SwordsBursting_2_017
// 058   ----------------------------------------
	BYTE	PATT
	 POIN2	SwordsBursting_2_018
// 059   ----------------------------------------
	BYTE	PATT
	 POIN2	SwordsBursting_2_019
// 060   ----------------------------------------
	BYTE	PATT
	 POIN2	SwordsBursting_2_020
// 061   ----------------------------------------
	BYTE	PATT
	 POIN2	SwordsBursting_2_021
// 062   ----------------------------------------
	BYTE	PATT
	 POIN2	SwordsBursting_2_022
// 063   ----------------------------------------
	BYTE	PATT
	 POIN2	SwordsBursting_2_023
// 064   ----------------------------------------
	BYTE	PATT
	 POIN2	SwordsBursting_2_024
// 065   ----------------------------------------
	BYTE	PATT
	 POIN2	SwordsBursting_2_017
// 066   ----------------------------------------
	BYTE	PATT
	 POIN2	SwordsBursting_2_026
// 067   ----------------------------------------
	BYTE	PATT
	 POIN2	SwordsBursting_2_027
// 068   ----------------------------------------
	BYTE	PATT
	 POIN2	SwordsBursting_2_028
// 069   ----------------------------------------
	BYTE	PATT
	 POIN2	SwordsBursting_2_029
// 070   ----------------------------------------
	BYTE	PATT
	 POIN2	SwordsBursting_2_017
// 071   ----------------------------------------
	BYTE	PATT
	 POIN2	SwordsBursting_2_031
// 072   ----------------------------------------
	BYTE	W96
// 073   ----------------------------------------
	BYTE	W96
// 074   ----------------------------------------
	BYTE	W96
// 075   ----------------------------------------
	BYTE	W96
// 076   ----------------------------------------
	BYTE	W96
// 077   ----------------------------------------
	BYTE	W96
// 078   ----------------------------------------
	BYTE	W96
// 079   ----------------------------------------
	BYTE	W96
// 080   ----------------------------------------
	BYTE	PATT
	 POIN2	SwordsBursting_2_040
// 081   ----------------------------------------
	BYTE	PATT
	 POIN2	SwordsBursting_2_041
// 082   ----------------------------------------
	BYTE	PATT
	 POIN2	SwordsBursting_2_042
// 083   ----------------------------------------
	BYTE	PATT
	 POIN2	SwordsBursting_2_043
// 084   ----------------------------------------
	BYTE	PATT
	 POIN2	SwordsBursting_2_044
// 085   ----------------------------------------
	BYTE	PATT
	 POIN2	SwordsBursting_2_045
// 086   ----------------------------------------
	BYTE	PATT
	 POIN2	SwordsBursting_2_046
// 087   ----------------------------------------
	BYTE	PATT
	 POIN2	SwordsBursting_2_046
// 088   ----------------------------------------
	BYTE	PATT
	 POIN2	SwordsBursting_2_048
// 089   ----------------------------------------
	BYTE	PATT
	 POIN2	SwordsBursting_2_049
// 090   ----------------------------------------
	BYTE	PATT
	 POIN2	SwordsBursting_2_050
// 091   ----------------------------------------
	BYTE	PATT
	 POIN2	SwordsBursting_2_051
// 092   ----------------------------------------
	BYTE	PATT
	 POIN2	SwordsBursting_2_052
// 093   ----------------------------------------
	BYTE	PATT
	 POIN2	SwordsBursting_2_053
// 094   ----------------------------------------
	BYTE	PATT
	 POIN2	SwordsBursting_2_054
// 095   ----------------------------------------
	BYTE		N92     Bn1   v080
	BYTE	W12
	BYTE		N68     Fs2   v076
	BYTE	W12
	BYTE		N32     Bn2   v080
	BYTE	W12
	BYTE		        Dn3   v072
	BYTE	W24
	BYTE		N23     Bn2   v052
	BYTE	W24
	BYTE		N05     Fs2   v040
	BYTE	W11
	BYTE	GoTo
	 POIN2	SwordsBursting_2_B1
SwordsBursting_2_B2:
	BYTE	FINE

//**************** Track 3 (Midi-Chn.4) ****************//

SwordsBursting_3:
	BYTE	KEYSH   SwordsBursting_key+0
// 000   ----------------------------------------
	BYTE		VOICE   36
	BYTE		VOL     50*SwordsBursting_mvl/mxv
	BYTE		PAN     c_v+0
	BYTE		N21     Bn0   v116
	BYTE	W24
	BYTE		N11     Fs1 
	BYTE	W12
	BYTE		N17     Bn1 
	BYTE	W24
	BYTE		N21     Fs1 
	BYTE	W24
	BYTE		N07     Bn1 
	BYTE	W12
// 001   ----------------------------------------
SwordsBursting_3_001:
	BYTE		N20     Bn0   v116
	BYTE	W24
	BYTE		N12     Fs1 
	BYTE	W12
	BYTE		N18     Bn1 
	BYTE	W24
	BYTE		N16     Fs1 
	BYTE	W24
	BYTE		N10     Bn1 
	BYTE	W12
	BYTE	PEND
// 002   ----------------------------------------
	BYTE		N22     Cn1 
	BYTE	W24
	BYTE		N12     Gn1 
	BYTE	W12
	BYTE		N21     Cn2 
	BYTE	W24
	BYTE		N24     Gn1 
	BYTE	W24
	BYTE		N06     Cn2 
	BYTE	W12
// 003   ----------------------------------------
	BYTE		N20     Cn1 
	BYTE	W24
	BYTE		N12     Gn1 
	BYTE	W12
	BYTE		N18     Cn2 
	BYTE	W24
	BYTE		N21     Gn1 
	BYTE	W24
	BYTE		N08     Cn2 
	BYTE	W12
// 004   ----------------------------------------
	BYTE		N21     Bn0 
	BYTE	W24
	BYTE		N11     Fs1 
	BYTE	W12
	BYTE		N17     Bn1 
	BYTE	W24
	BYTE		N21     Fs1 
	BYTE	W24
	BYTE		N07     Bn1 
	BYTE	W12
// 005   ----------------------------------------
	BYTE	PATT
	 POIN2	SwordsBursting_3_001
// 006   ----------------------------------------
	BYTE		N21     Cn1   v116
	BYTE	W24
	BYTE		N10     Gn1 
	BYTE	W12
	BYTE		N21     Cn2 
	BYTE	W24
	BYTE		N23     Gn1 
	BYTE	W24
	BYTE		N06     Cn2 
	BYTE	W12
// 007   ----------------------------------------
	BYTE		N20     Cn1 
	BYTE	W24
	BYTE		N14     Gn1 
	BYTE	W12
	BYTE		N23     Cn2 
	BYTE	W07
	BYTE		BEND    c_v+5
	BYTE	W01
	BYTE		        c_v+25
	BYTE	W01
	BYTE		        c_v+44
	BYTE	W01
	BYTE		        c_v+59
	BYTE	W02
	BYTE		        c_v+63
	BYTE	W01
	BYTE		        c_v+63
	BYTE	W01
	BYTE		        c_v+63
	BYTE	W01
	BYTE		        c_v+63
	BYTE	W01
	BYTE		        c_v+63
	BYTE	W01
	BYTE		        c_v+63
	BYTE	W01
	BYTE		        c_v+63
	BYTE	W01
	BYTE		        c_v+63
	BYTE	W01
	BYTE		        c_v+63
	BYTE	W01
	BYTE		        c_v+63
	BYTE	W01
	BYTE		        c_v+63
	BYTE	W01
	BYTE		        c_v+0
	BYTE	W01
	BYTE		N17   
	BYTE	W24
	BYTE		N06     Gn1 
	BYTE	W12
// 008   ----------------------------------------
	BYTE		N21     Bn0 
	BYTE	W24
	BYTE		N11     Fs1   v112
	BYTE	W12
	BYTE		N17     Bn1   v116
	BYTE	W24
	BYTE		N21     Fs1   v112
	BYTE	W24
	BYTE		N07     Bn1   v116
	BYTE	W12
// 009   ----------------------------------------
	BYTE		N20     Bn0 
	BYTE	W24
	BYTE		N12     Fs1   v112
	BYTE	W12
	BYTE		N18     Bn1   v116
	BYTE	W24
	BYTE		N16     Fs1   v112
	BYTE	W24
	BYTE		N10     Bn1   v116
	BYTE	W12
// 010   ----------------------------------------
	BYTE		N22     Cn1   v112
	BYTE	W24
	BYTE		N12     Gn1   v116
	BYTE	W12
	BYTE		N21     Cn2 
	BYTE	W24
	BYTE		N24     Gn1 
	BYTE	W24
	BYTE		N06     Cn2 
	BYTE	W12
// 011   ----------------------------------------
	BYTE		N20     Cn1 
	BYTE	W24
	BYTE		N12     Gn1   v112
	BYTE	W12
	BYTE		N18     Cn2   v116
	BYTE	W24
	BYTE		N21     Gn1 
	BYTE	W24
	BYTE		N08     Cn2   v112
	BYTE	W12
// 012   ----------------------------------------
SwordsBursting_3_012:
	BYTE		N20     Cs1   v116
	BYTE	W24
	BYTE		N12     Gn1   v112
	BYTE	W12
	BYTE		N18     Cs2   v116
	BYTE	W24
	BYTE		N21     Gn1 
	BYTE	W24
	BYTE		N08     Cs2   v112
	BYTE	W12
	BYTE	PEND
// 013   ----------------------------------------
	BYTE	PATT
	 POIN2	SwordsBursting_3_012
// 014   ----------------------------------------
	BYTE		N20     Fs0   v116
	BYTE	W24
	BYTE		N12     As0   v112
	BYTE	W12
	BYTE		N18     Gn1   v116
	BYTE	W24
	BYTE		N21     Dn1 
	BYTE	W24
	BYTE		N08     Gn1   v112
	BYTE	W12
// 015   ----------------------------------------
	BYTE		N56     Fs0   v116
	BYTE	W96
SwordsBursting_3_B1:
// 016   ----------------------------------------
SwordsBursting_3_016:
	BYTE		N06     Bn0   v116
	BYTE	W12
	BYTE		N05   
	BYTE	W12
	BYTE		N07   
	BYTE	W12
	BYTE		N19   
	BYTE	W24
	BYTE		N16   
	BYTE	W24
	BYTE		N05   
	BYTE	W12
	BYTE	PEND
// 017   ----------------------------------------
SwordsBursting_3_017:
	BYTE		N06     Bn0   v116
	BYTE	W12
	BYTE		        Bn0   v112
	BYTE	W12
	BYTE		N06   
	BYTE	W12
	BYTE		N18   
	BYTE	W24
	BYTE		N23     Dn1 
	BYTE	W24
	BYTE		N07     Fs1 
	BYTE	W12
	BYTE	PEND
// 018   ----------------------------------------
SwordsBursting_3_018:
	BYTE		N05     Gn1   v112
	BYTE	W12
	BYTE		N04     Gn1   v116
	BYTE	W12
	BYTE		N07   
	BYTE	W12
	BYTE		N18   
	BYTE	W24
	BYTE		N17   
	BYTE	W24
	BYTE		N05     Gn1   v112
	BYTE	W12
	BYTE	PEND
// 019   ----------------------------------------
SwordsBursting_3_019:
	BYTE		N06     Gn1   v112
	BYTE	W12
	BYTE		N06   
	BYTE	W12
	BYTE		N08   
	BYTE	W12
	BYTE		N19     Gn1   v116
	BYTE	W24
	BYTE		N14   
	BYTE	W24
	BYTE		N07     Gn1   v112
	BYTE	W12
	BYTE	PEND
// 020   ----------------------------------------
SwordsBursting_3_020:
	BYTE		N02     Cn1   v116
	BYTE	W12
	BYTE		N03   
	BYTE	W12
	BYTE		N05     Cn1   v112
	BYTE	W12
	BYTE		N20     Cn1   v116
	BYTE	W24
	BYTE		N16   
	BYTE	W24
	BYTE		N06     Cn1   v112
	BYTE	W12
	BYTE	PEND
// 021   ----------------------------------------
SwordsBursting_3_021:
	BYTE		N04     Cn1   v112
	BYTE	W12
	BYTE		N05     Cn1   v116
	BYTE	W12
	BYTE		N06     Cn1   v112
	BYTE	W12
	BYTE		N18     Cn1   v116
	BYTE	W24
	BYTE		N06   
	BYTE	W12
	BYTE		N05   
	BYTE	W12
	BYTE		N08   
	BYTE	W12
	BYTE	PEND
// 022   ----------------------------------------
SwordsBursting_3_022:
	BYTE		N05     Cs1   v116
	BYTE	W12
	BYTE		        Cs1   v112
	BYTE	W12
	BYTE		N06   
	BYTE	W12
	BYTE		N16   
	BYTE	W24
	BYTE		N15   
	BYTE	W24
	BYTE		N07   
	BYTE	W12
	BYTE	PEND
// 023   ----------------------------------------
SwordsBursting_3_023:
	BYTE		N06     Fs0   v116
	BYTE	W12
	BYTE		N07     Fs0   v112
	BYTE	W12
	BYTE		N06   
	BYTE	W12
	BYTE		N19   
	BYTE	W24
	BYTE		N16     Fs0   v116
	BYTE	W24
	BYTE		N08     Fs0   v112
	BYTE	W12
	BYTE	PEND
// 024   ----------------------------------------
SwordsBursting_3_024:
	BYTE		BEND    c_v+0
	BYTE		N06     Bn0   v116
	BYTE	W12
	BYTE		N05   
	BYTE	W12
	BYTE		N07   
	BYTE	W12
	BYTE		N19   
	BYTE	W24
	BYTE		N16   
	BYTE	W24
	BYTE		N05   
	BYTE	W12
	BYTE	PEND
// 025   ----------------------------------------
SwordsBursting_3_025:
	BYTE		N06     Bn0   v116
	BYTE	W12
	BYTE		        Bn0   v112
	BYTE	W12
	BYTE		N06   
	BYTE	W12
	BYTE		N18   
	BYTE	W24
	BYTE		BEND    c_v+5
	BYTE		N23     Cn1 
	BYTE	W01
	BYTE		BEND    c_v+19
	BYTE	W01
	BYTE		        c_v+27
	BYTE	W01
	BYTE		        c_v+40
	BYTE	W01
	BYTE		        c_v+48
	BYTE	W01
	BYTE		        c_v+50
	BYTE	W01
	BYTE		        c_v+57
	BYTE	W01
	BYTE		        c_v+61
	BYTE	W01
	BYTE		        c_v+62
	BYTE	W01
	BYTE		        c_v+62
	BYTE	W01
	BYTE		        c_v+62
	BYTE	W01
	BYTE		        c_v+62
	BYTE	W01
	BYTE		        c_v+62
	BYTE	W01
	BYTE		        c_v+63
	BYTE	W01
	BYTE		        c_v+63
	BYTE	W01
	BYTE		        c_v+63
	BYTE	W01
	BYTE		        c_v+63
	BYTE	W01
	BYTE		        c_v+63
	BYTE	W01
	BYTE		        c_v+63
	BYTE	W01
	BYTE		        c_v+63
	BYTE	W01
	BYTE		        c_v+63
	BYTE	W01
	BYTE		        c_v+63
	BYTE	W01
	BYTE		        c_v+63
	BYTE	W01
	BYTE		        c_v+0
	BYTE	W01
	BYTE		        c_v+0
	BYTE		N07     Fs1 
	BYTE	W12
	BYTE	PEND
// 026   ----------------------------------------
	BYTE	PATT
	 POIN2	SwordsBursting_3_018
// 027   ----------------------------------------
	BYTE	PATT
	 POIN2	SwordsBursting_3_019
// 028   ----------------------------------------
	BYTE	PATT
	 POIN2	SwordsBursting_3_020
// 029   ----------------------------------------
SwordsBursting_3_029:
	BYTE		N04     Cs1   v112
	BYTE	W12
	BYTE		N05     Cs1   v116
	BYTE	W12
	BYTE		N06     Cs1   v112
	BYTE	W12
	BYTE		N18     Cs1   v116
	BYTE	W24
	BYTE		N06     Fs1 
	BYTE	W12
	BYTE		N05   
	BYTE	W12
	BYTE		N08   
	BYTE	W12
	BYTE	PEND
// 030   ----------------------------------------
SwordsBursting_3_030:
	BYTE		N05     Bn0   v116
	BYTE	W12
	BYTE		        Bn0   v112
	BYTE	W12
	BYTE		N06   
	BYTE	W12
	BYTE		N16   
	BYTE	W24
	BYTE		N15   
	BYTE	W24
	BYTE		N07   
	BYTE	W12
	BYTE	PEND
// 031   ----------------------------------------
SwordsBursting_3_031:
	BYTE		N06     Bn0   v116
	BYTE	W12
	BYTE		N07     Fs0   v112
	BYTE	W12
	BYTE		N05     An0 
	BYTE	W12
	BYTE		        Bn0 
	BYTE	W12
	BYTE		        Dn1 
	BYTE	W12
	BYTE		N16     Cs1   v116
	BYTE	W12
	BYTE		N08     An0   v112
	BYTE	W12
	BYTE		        Fs0 
	BYTE	W12
	BYTE	PEND
// 032   ----------------------------------------
SwordsBursting_3_032:
	BYTE		N18     Gn0   v116
	BYTE	W24
	BYTE		N16   
	BYTE	W24
	BYTE		N15     Gn0   v112
	BYTE	W24
	BYTE		N13     Gn0   v116
	BYTE	W24
	BYTE	PEND
// 033   ----------------------------------------
SwordsBursting_3_033:
	BYTE		N14     An0   v112
	BYTE	W24
	BYTE		N13   
	BYTE	W24
	BYTE		N09   
	BYTE	W24
	BYTE		N07     An0   v116
	BYTE	W24
	BYTE	PEND
// 034   ----------------------------------------
SwordsBursting_3_034:
	BYTE		N12     Bn0   v116
	BYTE	W12
	BYTE		N13     Dn1   v112
	BYTE	W12
	BYTE		N08     En1   v116
	BYTE	W12
	BYTE		N12     Bn0 
	BYTE	W12
	BYTE		N13     Dn1   v112
	BYTE	W12
	BYTE		N10     En1   v116
	BYTE	W12
	BYTE		N11     Bn0 
	BYTE	W12
	BYTE		N13     Dn1   v112
	BYTE	W12
	BYTE	PEND
// 035   ----------------------------------------
SwordsBursting_3_035:
	BYTE		N08     En1   v116
	BYTE	W12
	BYTE		N12     Fs1 
	BYTE	W12
	BYTE		        An0   v112
	BYTE	W12
	BYTE		N06     Bn0   v116
	BYTE	W12
	BYTE		N11     Dn1   v112
	BYTE	W12
	BYTE		        En1 
	BYTE	W12
	BYTE		        Dn1   v116
	BYTE	W12
	BYTE		N08     An0 
	BYTE	W12
	BYTE	PEND
// 036   ----------------------------------------
	BYTE	PATT
	 POIN2	SwordsBursting_3_032
// 037   ----------------------------------------
	BYTE	PATT
	 POIN2	SwordsBursting_3_033
// 038   ----------------------------------------
	BYTE	PATT
	 POIN2	SwordsBursting_3_034
// 039   ----------------------------------------
SwordsBursting_3_039:
	BYTE		N08     En1   v116
	BYTE	W12
	BYTE		N12     Fs1 
	BYTE	W12
	BYTE		        An0   v112
	BYTE	W12
	BYTE		N06     Bn0   v116
	BYTE	W12
	BYTE		N11     Dn1   v112
	BYTE	W12
	BYTE		        En1 
	BYTE	W12
	BYTE		        Fs1   v116
	BYTE	W12
	BYTE		N08     Dn1 
	BYTE	W12
	BYTE	PEND
// 040   ----------------------------------------
SwordsBursting_3_040:
	BYTE		N06     Cn1   v120
	BYTE	W12
	BYTE		N05   
	BYTE	W12
	BYTE		N07   
	BYTE	W12
	BYTE		N19   
	BYTE	W24
	BYTE		N16   
	BYTE	W24
	BYTE		N05   
	BYTE	W11
	BYTE		N04     Cs1   v116
	BYTE	W01
	BYTE	PEND
// 041   ----------------------------------------
SwordsBursting_3_041:
	BYTE	W11
	BYTE		N05     Cs1   v116
	BYTE	W12
	BYTE		N06   
	BYTE	W12
	BYTE		N18   
	BYTE	W24
	BYTE		N06     Cs1   v120
	BYTE	W12
	BYTE		N05     Cs1   v116
	BYTE	W12
	BYTE		N08   
	BYTE	W13
	BYTE	PEND
// 042   ----------------------------------------
SwordsBursting_3_042:
	BYTE		N04     Bn0   v116
	BYTE	W12
	BYTE		N05   
	BYTE	W12
	BYTE		N06   
	BYTE	W12
	BYTE		N18   
	BYTE	W24
	BYTE		N06     Bn0   v120
	BYTE	W12
	BYTE		N05     Bn0   v116
	BYTE	W12
	BYTE		N08   
	BYTE	W12
	BYTE	PEND
// 043   ----------------------------------------
SwordsBursting_3_043:
	BYTE		N04     An0   v116
	BYTE	W12
	BYTE		N05   
	BYTE	W12
	BYTE		N06   
	BYTE	W12
	BYTE		N18   
	BYTE	W24
	BYTE		N06     An0   v120
	BYTE	W12
	BYTE		N05     An0   v116
	BYTE	W12
	BYTE		N08   
	BYTE	W12
	BYTE	PEND
// 044   ----------------------------------------
SwordsBursting_3_044:
	BYTE		N04     Gs0   v116
	BYTE	W12
	BYTE		N05   
	BYTE	W12
	BYTE		N06   
	BYTE	W12
	BYTE		N18   
	BYTE	W24
	BYTE		N06     Gs0   v120
	BYTE	W12
	BYTE		N05     Gs0   v116
	BYTE	W12
	BYTE		N08   
	BYTE	W12
	BYTE	PEND
// 045   ----------------------------------------
SwordsBursting_3_045:
	BYTE		N04     Cs1   v116
	BYTE	W12
	BYTE		N05   
	BYTE	W12
	BYTE		N06   
	BYTE	W12
	BYTE		N18   
	BYTE	W24
	BYTE		N06     Cs1   v120
	BYTE	W12
	BYTE		N05     Cs1   v116
	BYTE	W12
	BYTE		N08   
	BYTE	W12
	BYTE	PEND
// 046   ----------------------------------------
SwordsBursting_3_046:
	BYTE		N04     Fs0   v116
	BYTE	W12
	BYTE		N05   
	BYTE	W12
	BYTE		N06   
	BYTE	W12
	BYTE		N18   
	BYTE	W24
	BYTE		N06     Fs0   v120
	BYTE	W12
	BYTE		N05     Fs0   v116
	BYTE	W12
	BYTE		N08   
	BYTE	W12
	BYTE	PEND
// 047   ----------------------------------------
	BYTE	PATT
	 POIN2	SwordsBursting_3_046
// 048   ----------------------------------------
SwordsBursting_3_048:
	BYTE		N06     Gn0   v120
	BYTE	W12
	BYTE		N05   
	BYTE	W12
	BYTE		N07   
	BYTE	W12
	BYTE		N19   
	BYTE	W24
	BYTE		N16   
	BYTE	W24
	BYTE		N05   
	BYTE	W11
	BYTE		N04     Cs1   v116
	BYTE	W01
	BYTE	PEND
// 049   ----------------------------------------
	BYTE	PATT
	 POIN2	SwordsBursting_3_041
// 050   ----------------------------------------
	BYTE	PATT
	 POIN2	SwordsBursting_3_042
// 051   ----------------------------------------
	BYTE	PATT
	 POIN2	SwordsBursting_3_043
// 052   ----------------------------------------
SwordsBursting_3_052:
	BYTE		N04     En1   v116
	BYTE	W12
	BYTE		N05   
	BYTE	W12
	BYTE		N06   
	BYTE	W12
	BYTE		N18   
	BYTE	W24
	BYTE		N06     En1   v120
	BYTE	W12
	BYTE		N05     En1   v116
	BYTE	W12
	BYTE		N08   
	BYTE	W12
	BYTE	PEND
// 053   ----------------------------------------
SwordsBursting_3_053:
	BYTE		N04     Fs1   v116
	BYTE	W12
	BYTE		N05   
	BYTE	W12
	BYTE		N06   
	BYTE	W12
	BYTE		N18   
	BYTE	W24
	BYTE		N06     Fs1   v120
	BYTE	W12
	BYTE		N05     Fs1   v116
	BYTE	W12
	BYTE		N08   
	BYTE	W12
	BYTE	PEND
// 054   ----------------------------------------
	BYTE	PATT
	 POIN2	SwordsBursting_3_042
// 055   ----------------------------------------
	BYTE	PATT
	 POIN2	SwordsBursting_3_042
// 056   ----------------------------------------
	BYTE	PATT
	 POIN2	SwordsBursting_3_016
// 057   ----------------------------------------
	BYTE	PATT
	 POIN2	SwordsBursting_3_017
// 058   ----------------------------------------
	BYTE	PATT
	 POIN2	SwordsBursting_3_018
// 059   ----------------------------------------
	BYTE	PATT
	 POIN2	SwordsBursting_3_019
// 060   ----------------------------------------
	BYTE	PATT
	 POIN2	SwordsBursting_3_020
// 061   ----------------------------------------
	BYTE	PATT
	 POIN2	SwordsBursting_3_021
// 062   ----------------------------------------
	BYTE	PATT
	 POIN2	SwordsBursting_3_022
// 063   ----------------------------------------
	BYTE	PATT
	 POIN2	SwordsBursting_3_023
// 064   ----------------------------------------
	BYTE	PATT
	 POIN2	SwordsBursting_3_024
// 065   ----------------------------------------
	BYTE	PATT
	 POIN2	SwordsBursting_3_025
// 066   ----------------------------------------
	BYTE	PATT
	 POIN2	SwordsBursting_3_018
// 067   ----------------------------------------
	BYTE	PATT
	 POIN2	SwordsBursting_3_019
// 068   ----------------------------------------
	BYTE	PATT
	 POIN2	SwordsBursting_3_020
// 069   ----------------------------------------
	BYTE	PATT
	 POIN2	SwordsBursting_3_029
// 070   ----------------------------------------
	BYTE	PATT
	 POIN2	SwordsBursting_3_030
// 071   ----------------------------------------
	BYTE	PATT
	 POIN2	SwordsBursting_3_031
// 072   ----------------------------------------
	BYTE	PATT
	 POIN2	SwordsBursting_3_032
// 073   ----------------------------------------
	BYTE	PATT
	 POIN2	SwordsBursting_3_033
// 074   ----------------------------------------
	BYTE	PATT
	 POIN2	SwordsBursting_3_034
// 075   ----------------------------------------
	BYTE	PATT
	 POIN2	SwordsBursting_3_035
// 076   ----------------------------------------
	BYTE	PATT
	 POIN2	SwordsBursting_3_032
// 077   ----------------------------------------
	BYTE	PATT
	 POIN2	SwordsBursting_3_033
// 078   ----------------------------------------
	BYTE	PATT
	 POIN2	SwordsBursting_3_034
// 079   ----------------------------------------
	BYTE	PATT
	 POIN2	SwordsBursting_3_039
// 080   ----------------------------------------
	BYTE	PATT
	 POIN2	SwordsBursting_3_040
// 081   ----------------------------------------
	BYTE	PATT
	 POIN2	SwordsBursting_3_041
// 082   ----------------------------------------
	BYTE	PATT
	 POIN2	SwordsBursting_3_042
// 083   ----------------------------------------
	BYTE	PATT
	 POIN2	SwordsBursting_3_043
// 084   ----------------------------------------
	BYTE	PATT
	 POIN2	SwordsBursting_3_044
// 085   ----------------------------------------
	BYTE	PATT
	 POIN2	SwordsBursting_3_045
// 086   ----------------------------------------
	BYTE	PATT
	 POIN2	SwordsBursting_3_046
// 087   ----------------------------------------
	BYTE	PATT
	 POIN2	SwordsBursting_3_046
// 088   ----------------------------------------
	BYTE	PATT
	 POIN2	SwordsBursting_3_048
// 089   ----------------------------------------
	BYTE	PATT
	 POIN2	SwordsBursting_3_041
// 090   ----------------------------------------
	BYTE	PATT
	 POIN2	SwordsBursting_3_042
// 091   ----------------------------------------
	BYTE	PATT
	 POIN2	SwordsBursting_3_043
// 092   ----------------------------------------
	BYTE	PATT
	 POIN2	SwordsBursting_3_052
// 093   ----------------------------------------
	BYTE	PATT
	 POIN2	SwordsBursting_3_053
// 094   ----------------------------------------
	BYTE	PATT
	 POIN2	SwordsBursting_3_042
// 095   ----------------------------------------
	BYTE		N04     Bn0   v116
	BYTE	W12
	BYTE		N05   
	BYTE	W12
	BYTE		N06   
	BYTE	W12
	BYTE		N18   
	BYTE	W24
	BYTE		N06     Bn0   v120
	BYTE	W12
	BYTE		N05     Bn0   v116
	BYTE	W12
	BYTE		N08   
	BYTE	W11
	BYTE	GoTo
	 POIN2	SwordsBursting_3_B1
SwordsBursting_3_B2:
	BYTE	FINE

//**************** Track 4 (Midi-Chn.5) ****************//

SwordsBursting_4:
	BYTE	KEYSH   SwordsBursting_key+0
// 000   ----------------------------------------
	BYTE		VOICE   42
	BYTE		VOL     30*SwordsBursting_mvl/mxv
	BYTE		PAN     c_v-15
	BYTE	W01
	BYTE		N96     Bn4   v096
	BYTE	W92
	BYTE	W01
	BYTE		N54     Fs4   v092
	BYTE	W02
// 001   ----------------------------------------
	BYTE	W48
	BYTE		N48     Bn3   v096
	BYTE	W44
	BYTE	W02
	BYTE		TIE     An4   v092
	BYTE	W02
// 002   ----------------------------------------
	BYTE	W92
	BYTE	W02
	BYTE		N24     Gn4   v084
	BYTE	W02
// 003   ----------------------------------------
	BYTE	W01
	BYTE		EOT     An4 
	BYTE	W22
	BYTE		N24     Fs4   v076
	BYTE	W24
	BYTE	W01
	BYTE		        En4 
	BYTE	W23
	BYTE		        Gn4   v080
	BYTE	W24
	BYTE	W01
// 004   ----------------------------------------
	BYTE		TIE     Fs4   v076
	BYTE	W96
// 005   ----------------------------------------
	BYTE	W96
// 006   ----------------------------------------
	BYTE	W96
// 007   ----------------------------------------
	BYTE	W54
	BYTE	W01
	BYTE		EOT   
	BYTE	W40
	BYTE		TIE     Bn4   v096
	BYTE	W01
// 008   ----------------------------------------
	BYTE	W92
	BYTE	W01
	BYTE		N52     Fs4   v088
	BYTE	W03
// 009   ----------------------------------------
	BYTE	W01
	BYTE		EOT     Bn4 
	BYTE	W48
	BYTE		N48     Bn3   v092
	BYTE	W44
	BYTE	W01
	BYTE		TIE     An4   v096
	BYTE	W02
// 010   ----------------------------------------
	BYTE	W96
// 011   ----------------------------------------
	BYTE	W01
	BYTE		N24     Gn4   v092
	BYTE	W02
	BYTE		EOT     An4 
	BYTE	W20
	BYTE		N24     Fs4   v080
	BYTE	W23
	BYTE		N28     En4 
	BYTE	W24
	BYTE	W01
	BYTE		N30     Fs4   v084
	BYTE	W24
	BYTE	W01
// 012   ----------------------------------------
	BYTE	W02
	BYTE		TIE     Gn4   v088
	BYTE	W92
	BYTE	W02
// 013   ----------------------------------------
	BYTE	W96
// 014   ----------------------------------------
	BYTE	W96
	BYTE		EOT   
// 015   ----------------------------------------
	BYTE	W96
SwordsBursting_4_B1:
// 016   ----------------------------------------
	BYTE	W96
// 017   ----------------------------------------
	BYTE	W96
// 018   ----------------------------------------
	BYTE	W96
// 019   ----------------------------------------
	BYTE	W96
// 020   ----------------------------------------
	BYTE	W96
// 021   ----------------------------------------
	BYTE	W96
// 022   ----------------------------------------
	BYTE	W96
// 023   ----------------------------------------
	BYTE	W96
// 024   ----------------------------------------
	BYTE	W96
// 025   ----------------------------------------
	BYTE	W96
// 026   ----------------------------------------
	BYTE	W96
// 027   ----------------------------------------
	BYTE	W96
// 028   ----------------------------------------
	BYTE	W96
// 029   ----------------------------------------
	BYTE	W96
// 030   ----------------------------------------
	BYTE	W96
// 031   ----------------------------------------
	BYTE	W96
// 032   ----------------------------------------
	BYTE	W96
// 033   ----------------------------------------
	BYTE	W96
// 034   ----------------------------------------
	BYTE	W96
// 035   ----------------------------------------
	BYTE	W96
// 036   ----------------------------------------
	BYTE	W96
// 037   ----------------------------------------
	BYTE	W96
// 038   ----------------------------------------
	BYTE	W96
// 039   ----------------------------------------
	BYTE	W96
// 040   ----------------------------------------
	BYTE	W96
// 041   ----------------------------------------
	BYTE	W96
// 042   ----------------------------------------
	BYTE	W96
// 043   ----------------------------------------
	BYTE	W96
// 044   ----------------------------------------
	BYTE	W96
// 045   ----------------------------------------
	BYTE	W96
// 046   ----------------------------------------
	BYTE	W96
// 047   ----------------------------------------
	BYTE	W96
// 048   ----------------------------------------
	BYTE	W96
// 049   ----------------------------------------
	BYTE	W96
// 050   ----------------------------------------
	BYTE	W96
// 051   ----------------------------------------
	BYTE	W96
// 052   ----------------------------------------
	BYTE	W96
// 053   ----------------------------------------
	BYTE	W96
// 054   ----------------------------------------
	BYTE	W96
// 055   ----------------------------------------
	BYTE	W96
// 056   ----------------------------------------
	BYTE	W96
// 057   ----------------------------------------
	BYTE	W96
// 058   ----------------------------------------
	BYTE	W96
// 059   ----------------------------------------
	BYTE	W96
// 060   ----------------------------------------
	BYTE	W96
// 061   ----------------------------------------
	BYTE	W96
// 062   ----------------------------------------
	BYTE	W96
// 063   ----------------------------------------
	BYTE	W96
// 064   ----------------------------------------
	BYTE	W96
// 065   ----------------------------------------
	BYTE	W96
// 066   ----------------------------------------
	BYTE	W96
// 067   ----------------------------------------
	BYTE	W96
// 068   ----------------------------------------
	BYTE	W96
// 069   ----------------------------------------
	BYTE	W96
// 070   ----------------------------------------
	BYTE	W96
// 071   ----------------------------------------
	BYTE	W96
// 072   ----------------------------------------
	BYTE	W96
// 073   ----------------------------------------
	BYTE	W96
// 074   ----------------------------------------
	BYTE	W96
// 075   ----------------------------------------
	BYTE	W96
// 076   ----------------------------------------
	BYTE	W96
// 077   ----------------------------------------
	BYTE	W96
// 078   ----------------------------------------
	BYTE	W96
// 079   ----------------------------------------
	BYTE	W96
// 080   ----------------------------------------
	BYTE	W96
// 081   ----------------------------------------
	BYTE	W96
// 082   ----------------------------------------
	BYTE	W96
// 083   ----------------------------------------
	BYTE	W96
// 084   ----------------------------------------
	BYTE	W96
// 085   ----------------------------------------
	BYTE	W96
// 086   ----------------------------------------
	BYTE	W96
// 087   ----------------------------------------
	BYTE	W96
// 088   ----------------------------------------
	BYTE	W96
// 089   ----------------------------------------
	BYTE	W96
// 090   ----------------------------------------
	BYTE	W96
// 091   ----------------------------------------
	BYTE	W96
// 092   ----------------------------------------
	BYTE	W96
// 093   ----------------------------------------
	BYTE	W96
// 094   ----------------------------------------
	BYTE	W96
// 095   ----------------------------------------
	BYTE	W92
	BYTE	W03
	BYTE	GoTo
	 POIN2	SwordsBursting_4_B1
SwordsBursting_4_B2:
	BYTE	FINE

//**************** Track 5 (Midi-Chn.6) ****************//

SwordsBursting_5:
	BYTE	KEYSH   SwordsBursting_key+0
// 000   ----------------------------------------
	BYTE		VOICE   1
	BYTE		VOL     48*SwordsBursting_mvl/mxv
	BYTE		PAN     c_v-61
	BYTE	W96
// 001   ----------------------------------------
	BYTE	W96
// 002   ----------------------------------------
	BYTE	W96
// 003   ----------------------------------------
	BYTE	W96
// 004   ----------------------------------------
	BYTE	W96
// 005   ----------------------------------------
	BYTE	W96
// 006   ----------------------------------------
	BYTE	W96
// 007   ----------------------------------------
	BYTE	W96
// 008   ----------------------------------------
	BYTE	W96
// 009   ----------------------------------------
	BYTE	W96
// 010   ----------------------------------------
	BYTE	W96
// 011   ----------------------------------------
	BYTE	W96
// 012   ----------------------------------------
	BYTE	W96
// 013   ----------------------------------------
	BYTE	W96
// 014   ----------------------------------------
	BYTE	W96
// 015   ----------------------------------------
	BYTE		N02     Cs4   v104
	BYTE	W03
	BYTE		        As3 
	BYTE	W03
	BYTE		        Fs3   v092
	BYTE	W03
	BYTE		        Cs3   v088
	BYTE	W03
	BYTE		        As2   v084
	BYTE	W03
	BYTE		        Fs2 
	BYTE	W03
	BYTE		        Cs2   v088
	BYTE	W03
	BYTE		        As1   v092
	BYTE	W03
	BYTE		        As4   v084
	BYTE	W03
	BYTE		        Fs4   v116
	BYTE	W03
	BYTE		        Cs4   v108
	BYTE	W03
	BYTE		        As3   v104
	BYTE	W03
	BYTE		        Fs3   v100
	BYTE	W03
	BYTE		        Cs3 
	BYTE	W03
	BYTE		        As2 
	BYTE	W03
	BYTE		        Fs2 
	BYTE	W03
	BYTE		        Cs4   v116
	BYTE	W03
	BYTE		        As3   v112
	BYTE	W03
	BYTE		        Fs3 
	BYTE	W03
	BYTE		        Cs3   v100
	BYTE	W03
	BYTE		        As2 
	BYTE	W03
	BYTE		        Fs2 
	BYTE	W03
	BYTE		        Cs2 
	BYTE	W03
	BYTE		        As1 
	BYTE	W03
	BYTE		        Fs3 
	BYTE	W03
	BYTE		        Cs3   v088
	BYTE	W03
	BYTE		        As2   v092
	BYTE	W03
	BYTE		        Fs2   v100
	BYTE	W03
	BYTE		        Cs2 
	BYTE	W03
	BYTE		        As1 
	BYTE	W09
SwordsBursting_5_B1:
// 016   ----------------------------------------
	BYTE	W96
// 017   ----------------------------------------
	BYTE	W96
// 018   ----------------------------------------
	BYTE	W96
// 019   ----------------------------------------
	BYTE	W96
// 020   ----------------------------------------
	BYTE	W96
// 021   ----------------------------------------
	BYTE	W96
// 022   ----------------------------------------
	BYTE	W96
// 023   ----------------------------------------
	BYTE	W96
// 024   ----------------------------------------
	BYTE	W96
// 025   ----------------------------------------
	BYTE	W96
// 026   ----------------------------------------
	BYTE	W96
// 027   ----------------------------------------
	BYTE	W96
// 028   ----------------------------------------
	BYTE	W96
// 029   ----------------------------------------
	BYTE	W96
// 030   ----------------------------------------
	BYTE	W96
// 031   ----------------------------------------
	BYTE	W96
// 032   ----------------------------------------
	BYTE	W96
// 033   ----------------------------------------
	BYTE	W96
// 034   ----------------------------------------
	BYTE	W96
// 035   ----------------------------------------
	BYTE	W96
// 036   ----------------------------------------
	BYTE	W96
// 037   ----------------------------------------
	BYTE	W96
// 038   ----------------------------------------
	BYTE	W96
// 039   ----------------------------------------
	BYTE	W96
// 040   ----------------------------------------
	BYTE	W96
// 041   ----------------------------------------
	BYTE	W96
// 042   ----------------------------------------
	BYTE	W96
// 043   ----------------------------------------
	BYTE	W96
// 044   ----------------------------------------
	BYTE	W96
// 045   ----------------------------------------
	BYTE	W96
// 046   ----------------------------------------
	BYTE	W96
// 047   ----------------------------------------
	BYTE	W96
// 048   ----------------------------------------
	BYTE	W96
// 049   ----------------------------------------
	BYTE	W96
// 050   ----------------------------------------
	BYTE	W96
// 051   ----------------------------------------
	BYTE	W96
// 052   ----------------------------------------
	BYTE	W96
// 053   ----------------------------------------
	BYTE	W96
// 054   ----------------------------------------
	BYTE	W96
// 055   ----------------------------------------
	BYTE	W96
// 056   ----------------------------------------
	BYTE	W96
// 057   ----------------------------------------
	BYTE	W96
// 058   ----------------------------------------
	BYTE	W96
// 059   ----------------------------------------
	BYTE	W96
// 060   ----------------------------------------
	BYTE	W96
// 061   ----------------------------------------
	BYTE	W96
// 062   ----------------------------------------
	BYTE	W96
// 063   ----------------------------------------
	BYTE	W96
// 064   ----------------------------------------
	BYTE	W96
// 065   ----------------------------------------
	BYTE	W96
// 066   ----------------------------------------
	BYTE	W96
// 067   ----------------------------------------
	BYTE	W96
// 068   ----------------------------------------
	BYTE	W96
// 069   ----------------------------------------
	BYTE	W96
// 070   ----------------------------------------
	BYTE	W96
// 071   ----------------------------------------
	BYTE	W96
// 072   ----------------------------------------
	BYTE	W96
// 073   ----------------------------------------
	BYTE	W96
// 074   ----------------------------------------
	BYTE	W96
// 075   ----------------------------------------
	BYTE	W96
// 076   ----------------------------------------
	BYTE	W96
// 077   ----------------------------------------
	BYTE	W96
// 078   ----------------------------------------
	BYTE	W96
// 079   ----------------------------------------
	BYTE	W96
// 080   ----------------------------------------
	BYTE	W96
// 081   ----------------------------------------
	BYTE	W96
// 082   ----------------------------------------
	BYTE	W96
// 083   ----------------------------------------
	BYTE	W96
// 084   ----------------------------------------
	BYTE	W96
// 085   ----------------------------------------
	BYTE	W96
// 086   ----------------------------------------
	BYTE	W96
// 087   ----------------------------------------
	BYTE	W96
// 088   ----------------------------------------
	BYTE	W96
// 089   ----------------------------------------
	BYTE	W96
// 090   ----------------------------------------
	BYTE	W96
// 091   ----------------------------------------
	BYTE	W96
// 092   ----------------------------------------
	BYTE	W96
// 093   ----------------------------------------
	BYTE	W96
// 094   ----------------------------------------
	BYTE	W96
// 095   ----------------------------------------
	BYTE	W92
	BYTE	W03
	BYTE	GoTo
	 POIN2	SwordsBursting_5_B1
SwordsBursting_5_B2:
	BYTE	FINE

//**************** Track 6 (Midi-Chn.8) ****************//

SwordsBursting_6:
	BYTE	KEYSH   SwordsBursting_key+0
// 000   ----------------------------------------
	BYTE		VOICE   40
	BYTE		VOL     33*SwordsBursting_mvl/mxv
	BYTE		PAN     c_v+0
	BYTE	W96
// 001   ----------------------------------------
	BYTE	W96
// 002   ----------------------------------------
	BYTE	W96
// 003   ----------------------------------------
	BYTE	W96
// 004   ----------------------------------------
	BYTE		TIE     Dn3   v072
	BYTE		TIE     Fs3   v080
	BYTE	W12
	BYTE	W05
	BYTE	W01
	BYTE	W03
	BYTE	W01
	BYTE	W01
	BYTE	W02
	BYTE	W02
	BYTE	W01
	BYTE	W04
	BYTE	W01
	BYTE	W02
	BYTE	W02
	BYTE	W01
	BYTE	W03
	BYTE	W01
	BYTE	W04
	BYTE	W01
	BYTE	W03
	BYTE	W02
	BYTE	W01
	BYTE	W03
	BYTE	W01
	BYTE	W03
	BYTE	W03
	BYTE	W03
	BYTE	W02
	BYTE	W02
	BYTE	W02
	BYTE	W03
	BYTE	W02
	BYTE	W05
	BYTE	W02
	BYTE	W03
	BYTE	W02
	BYTE	W03
	BYTE	W02
	BYTE	W02
// 005   ----------------------------------------
	BYTE	W02
	BYTE	W03
	BYTE	W06
	BYTE	W04
	BYTE	W03
	BYTE	W04
	BYTE	W04
	BYTE	W04
	BYTE	W05
	BYTE	W10
	BYTE	W06
	BYTE	W07
	BYTE	W09
	BYTE	W22
	BYTE	W02
	BYTE	W05
// 006   ----------------------------------------
	BYTE	W16
	BYTE	W10
	BYTE	W06
	BYTE	W06
	BYTE	W10
	BYTE	W05
	BYTE	W04
	BYTE	W04
	BYTE	W04
	BYTE	W03
	BYTE	W03
	BYTE	W06
	BYTE	W04
	BYTE	W02
	BYTE	W03
	BYTE	W02
	BYTE	W03
	BYTE	W02
	BYTE	W03
// 007   ----------------------------------------
	BYTE	W05
	BYTE	W02
	BYTE	W03
	BYTE	W02
	BYTE	W01
	BYTE	W03
	BYTE	W02
	BYTE	W04
	BYTE	W03
	BYTE	W01
	BYTE	W02
	BYTE	W02
	BYTE	W02
	BYTE	W01
	BYTE	W03
	BYTE	W02
	BYTE	W03
	BYTE	W01
	BYTE	W03
	BYTE	W01
	BYTE	W01
	BYTE	W03
	BYTE	W02
	BYTE	W03
	BYTE	W01
	BYTE	W01
	BYTE	W01
	BYTE	W03
	BYTE	W01
	BYTE	W01
	BYTE	W10
	BYTE		EOT     Dn3 
	BYTE	W04
	BYTE		        Fs3 
	BYTE	W19
// 008   ----------------------------------------
	BYTE	W96
// 009   ----------------------------------------
	BYTE	W96
// 010   ----------------------------------------
	BYTE	W96
// 011   ----------------------------------------
	BYTE	W92
	BYTE	W03
	BYTE		TIE     Ds3   v076
	BYTE		TIE     Gn3 
	BYTE	W01
// 012   ----------------------------------------
	BYTE	W04
	BYTE	W02
	BYTE	W01
	BYTE	W02
	BYTE	W02
	BYTE	W01
	BYTE	W02
	BYTE	W02
	BYTE	W01
	BYTE	W04
	BYTE	W03
	BYTE	W01
	BYTE	W01
	BYTE	W03
	BYTE	W01
	BYTE	W02
	BYTE	W04
	BYTE	W03
	BYTE	W01
	BYTE	W02
	BYTE	W03
	BYTE	W01
	BYTE	W03
	BYTE	W02
	BYTE	W05
	BYTE	W01
	BYTE	W03
	BYTE	W02
	BYTE	W03
	BYTE	W02
	BYTE	W03
	BYTE	W06
	BYTE	W02
	BYTE	W03
	BYTE	W04
	BYTE	W02
	BYTE	W04
	BYTE	W02
	BYTE	W03
// 013   ----------------------------------------
	BYTE	W01
	BYTE	W08
	BYTE	W03
	BYTE	W05
	BYTE	W04
	BYTE	W05
	BYTE	W06
	BYTE	W07
	BYTE	W17
	BYTE	W09
	BYTE	W17
	BYTE	W08
	BYTE	W05
	BYTE		N92     Dn3   v080
	BYTE	W01
// 014   ----------------------------------------
	BYTE	W02
	BYTE	W02
	BYTE		EOT     Ds3 
	BYTE	W03
	BYTE	W03
	BYTE	W04
	BYTE	W06
	BYTE	W02
	BYTE	W03
	BYTE	W02
	BYTE	W03
	BYTE	W02
	BYTE	W03
	BYTE	W01
	BYTE	W05
	BYTE	W01
	BYTE	W03
	BYTE	W01
	BYTE	W03
	BYTE	W01
	BYTE	W01
	BYTE	W04
	BYTE	W01
	BYTE	W03
	BYTE	W01
	BYTE	W01
	BYTE	W01
	BYTE	W03
	BYTE	W01
	BYTE	W03
	BYTE	W01
	BYTE	W01
	BYTE	W01
	BYTE	W03
	BYTE	W01
	BYTE	W01
	BYTE	W03
	BYTE	W01
	BYTE	W01
	BYTE	W02
	BYTE	W01
	BYTE	W01
	BYTE	W01
	BYTE	W01
	BYTE	W06
	BYTE		        Gn3 
	BYTE	W02
// 015   ----------------------------------------
	BYTE		N11     Cs3   v072
	BYTE		N11     Fs3 
	BYTE	W96
SwordsBursting_6_B1:
// 016   ----------------------------------------
	BYTE	W96
// 017   ----------------------------------------
	BYTE	W96
// 018   ----------------------------------------
	BYTE	W96
// 019   ----------------------------------------
	BYTE	W96
// 020   ----------------------------------------
	BYTE	W96
// 021   ----------------------------------------
	BYTE	W96
// 022   ----------------------------------------
	BYTE	W96
// 023   ----------------------------------------
	BYTE	W96
// 024   ----------------------------------------
	BYTE	W96
// 025   ----------------------------------------
	BYTE	W96
// 026   ----------------------------------------
	BYTE	W96
// 027   ----------------------------------------
	BYTE	W96
// 028   ----------------------------------------
	BYTE	W96
// 029   ----------------------------------------
	BYTE	W96
// 030   ----------------------------------------
	BYTE	W96
// 031   ----------------------------------------
	BYTE	W96
// 032   ----------------------------------------
SwordsBursting_6_032:
	BYTE		N92     Dn3   v112
	BYTE		N92     Gn3   v088
	BYTE	W01
	BYTE	W01
	BYTE	W02
	BYTE	W01
	BYTE	W01
	BYTE	W01
	BYTE	W01
	BYTE	W01
	BYTE	W01
	BYTE	W01
	BYTE	W01
	BYTE	W01
	BYTE	W01
	BYTE	W02
	BYTE	W01
	BYTE	W01
	BYTE	W01
	BYTE	W01
	BYTE	W01
	BYTE	W01
	BYTE	W01
	BYTE	W01
	BYTE	W01
	BYTE	W01
	BYTE	W02
	BYTE	W01
	BYTE	W01
	BYTE	W01
	BYTE	W01
	BYTE	W01
	BYTE	W01
	BYTE	W01
	BYTE	W01
	BYTE	W01
	BYTE	W02
	BYTE	W01
	BYTE	W01
	BYTE	W01
	BYTE	W01
	BYTE	W01
	BYTE	W01
	BYTE	W01
	BYTE	W01
	BYTE	W01
	BYTE	W01
	BYTE	W01
	BYTE	W01
	BYTE	W01
	BYTE	W01
	BYTE	W01
	BYTE	W01
	BYTE	W01
	BYTE	W01
	BYTE	W01
	BYTE	W01
	BYTE	W01
	BYTE	W01
	BYTE	W01
	BYTE	W01
	BYTE	W01
	BYTE	W01
	BYTE	W02
	BYTE	W01
	BYTE	W01
	BYTE	W01
	BYTE	W01
	BYTE	W01
	BYTE	W01
	BYTE	W01
	BYTE	W01
	BYTE	W01
	BYTE	W01
	BYTE	W02
	BYTE	W01
	BYTE	W01
	BYTE	W01
	BYTE	W01
	BYTE	W02
	BYTE	W01
	BYTE	W01
	BYTE	W01
	BYTE	W01
	BYTE	W01
	BYTE	W01
	BYTE	W01
	BYTE	W04
	BYTE	PEND
// 033   ----------------------------------------
SwordsBursting_6_033:
	BYTE		N92     En3   v088
	BYTE		N92     An3   v104
	BYTE	W01
	BYTE	W02
	BYTE	W01
	BYTE	W01
	BYTE	W01
	BYTE	W01
	BYTE	W01
	BYTE	W01
	BYTE	W01
	BYTE	W01
	BYTE	W01
	BYTE	W02
	BYTE	W01
	BYTE	W01
	BYTE	W01
	BYTE	W01
	BYTE	W01
	BYTE	W01
	BYTE	W01
	BYTE	W01
	BYTE	W01
	BYTE	W01
	BYTE	W02
	BYTE	W01
	BYTE	W01
	BYTE	W01
	BYTE	W01
	BYTE	W01
	BYTE	W01
	BYTE	W01
	BYTE	W01
	BYTE	W01
	BYTE	W01
	BYTE	W01
	BYTE	W01
	BYTE	W01
	BYTE	W01
	BYTE	W01
	BYTE	W01
	BYTE	W01
	BYTE	W01
	BYTE	W01
	BYTE	W01
	BYTE	W01
	BYTE	W01
	BYTE	W01
	BYTE	W01
	BYTE	W01
	BYTE	W01
	BYTE	W01
	BYTE	W01
	BYTE	W01
	BYTE	W01
	BYTE	W01
	BYTE	W01
	BYTE	W01
	BYTE	W02
	BYTE	W01
	BYTE	W01
	BYTE	W01
	BYTE	W01
	BYTE	W02
	BYTE	W01
	BYTE	W01
	BYTE	W01
	BYTE	W01
	BYTE	W01
	BYTE	W01
	BYTE	W01
	BYTE	W01
	BYTE	W01
	BYTE	W01
	BYTE	W01
	BYTE	W01
	BYTE	W01
	BYTE	W01
	BYTE	W01
	BYTE	W01
	BYTE	W01
	BYTE	W01
	BYTE	W01
	BYTE	W01
	BYTE	W01
	BYTE	W01
	BYTE	W01
	BYTE	W01
	BYTE	W01
	BYTE	W01
	BYTE	W01
	BYTE	W01
	BYTE	W01
	BYTE	PEND
// 034   ----------------------------------------
SwordsBursting_6_034:
	BYTE		N06     Fs3   v100
	BYTE		N07     Bn3   v108
	BYTE	W36
	BYTE		        Fs3   v084
	BYTE		N06     Bn3   v100
	BYTE	W36
	BYTE		N07     Fs3   v096
	BYTE		N07     Bn3   v108
	BYTE	W24
	BYTE	PEND
// 035   ----------------------------------------
SwordsBursting_6_035:
	BYTE	W12
	BYTE		N06     Fs3   v100
	BYTE		N06     Bn3   v116
	BYTE	W84
	BYTE	PEND
// 036   ----------------------------------------
SwordsBursting_6_036:
	BYTE		N92     Dn3   v112
	BYTE		N92     Gn3   v088
	BYTE	W02
	BYTE	W02
	BYTE	W01
	BYTE	W01
	BYTE	W01
	BYTE	W01
	BYTE	W01
	BYTE	W02
	BYTE	W01
	BYTE	W01
	BYTE	W01
	BYTE	W01
	BYTE	W01
	BYTE	W01
	BYTE	W01
	BYTE	W01
	BYTE	W01
	BYTE	W02
	BYTE	W01
	BYTE	W01
	BYTE	W01
	BYTE	W01
	BYTE	W01
	BYTE	W01
	BYTE	W01
	BYTE	W01
	BYTE	W01
	BYTE	W01
	BYTE	W01
	BYTE	W01
	BYTE	W01
	BYTE	W01
	BYTE	W01
	BYTE	W01
	BYTE	W01
	BYTE	W01
	BYTE	W01
	BYTE	W02
	BYTE	W01
	BYTE	W02
	BYTE	W01
	BYTE	W01
	BYTE	W01
	BYTE	W01
	BYTE	W01
	BYTE	W01
	BYTE	W01
	BYTE	W01
	BYTE	W01
	BYTE	W01
	BYTE	W01
	BYTE	W01
	BYTE	W01
	BYTE	W01
	BYTE	W01
	BYTE	W01
	BYTE	W01
	BYTE	W01
	BYTE	W01
	BYTE	W01
	BYTE	W01
	BYTE	W01
	BYTE	W01
	BYTE	W01
	BYTE	W01
	BYTE	W01
	BYTE	W01
	BYTE	W01
	BYTE	W01
	BYTE	W02
	BYTE	W01
	BYTE	W01
	BYTE	W02
	BYTE	W01
	BYTE	W01
	BYTE	W01
	BYTE	W01
	BYTE	W01
	BYTE	W01
	BYTE	W01
	BYTE	W01
	BYTE	W01
	BYTE	W01
	BYTE	W01
	BYTE	W01
	BYTE	W01
	BYTE	W01
	BYTE	W01
	BYTE	PEND
// 037   ----------------------------------------
SwordsBursting_6_037:
	BYTE		N92     En3   v088
	BYTE		N92     An3   v104
	BYTE	W02
	BYTE	W01
	BYTE	W01
	BYTE	W01
	BYTE	W01
	BYTE	W01
	BYTE	W02
	BYTE	W01
	BYTE	W01
	BYTE	W01
	BYTE	W01
	BYTE	W01
	BYTE	W01
	BYTE	W01
	BYTE	W01
	BYTE	W01
	BYTE	W01
	BYTE	W02
	BYTE	W01
	BYTE	W01
	BYTE	W01
	BYTE	W01
	BYTE	W01
	BYTE	W01
	BYTE	W01
	BYTE	W01
	BYTE	W01
	BYTE	W01
	BYTE	W01
	BYTE	W01
	BYTE	W01
	BYTE	W01
	BYTE	W01
	BYTE	W01
	BYTE	W01
	BYTE	W01
	BYTE	W01
	BYTE	W01
	BYTE	W01
	BYTE	W01
	BYTE	W01
	BYTE	W01
	BYTE	W01
	BYTE	W01
	BYTE	W01
	BYTE	W01
	BYTE	W01
	BYTE	W02
	BYTE	W01
	BYTE	W02
	BYTE	W01
	BYTE	W01
	BYTE	W02
	BYTE	W01
	BYTE	W02
	BYTE	W01
	BYTE	W01
	BYTE	W01
	BYTE	W01
	BYTE	W01
	BYTE	W01
	BYTE	W01
	BYTE	W01
	BYTE	W02
	BYTE	W01
	BYTE	W02
	BYTE	W01
	BYTE	W02
	BYTE	W01
	BYTE	W02
	BYTE	W01
	BYTE	W01
	BYTE	W01
	BYTE	W01
	BYTE	W01
	BYTE	W01
	BYTE	W01
	BYTE	W02
	BYTE	W01
	BYTE	W01
	BYTE	W01
	BYTE	W01
	BYTE	W01
	BYTE	W01
	BYTE	PEND
// 038   ----------------------------------------
SwordsBursting_6_038:
	BYTE		N08     Fs3   v100
	BYTE		N08     Bn3   v116
	BYTE	W36
	BYTE		        Fs3   v092
	BYTE		N08     Bn3   v100
	BYTE	W36
	BYTE		N07     Fs3   v096
	BYTE		N07     Bn3   v100
	BYTE	W24
	BYTE	PEND
// 039   ----------------------------------------
SwordsBursting_6_039:
	BYTE	W12
	BYTE		N06     Fs3   v100
	BYTE		N06     Bn3   v112
	BYTE	W84
	BYTE	PEND
// 040   ----------------------------------------
SwordsBursting_6_040:
	BYTE		N07     En3   v060
	BYTE		N08     Gn3   v068
	BYTE	W01
	BYTE	W11
	BYTE		N07     En3   v020
	BYTE		N08     Gn3 
	BYTE	W24
	BYTE		N56     En3   v068
	BYTE		N56     Gn3 
	BYTE	W56
	BYTE	W03
	BYTE		N07     Cs3   v060
	BYTE		N08     Fs3   v068
	BYTE	W01
	BYTE	PEND
// 041   ----------------------------------------
SwordsBursting_6_041:
	BYTE	W12
	BYTE		N07     Cs3   v020
	BYTE		N08     Fs3 
	BYTE	W24
	BYTE		N44     Fs3   v068
	BYTE	W01
	BYTE		        Cs3   v060
	BYTE	W56
	BYTE	W03
	BYTE	PEND
// 042   ----------------------------------------
SwordsBursting_6_042:
	BYTE		N07     Fs3   v064
	BYTE		N06     Bn3 
	BYTE	W12
	BYTE		N07     Fs3   v020
	BYTE		N08     Bn3 
	BYTE	W24
	BYTE		N44     Fs3   v064
	BYTE		N48     Bn3 
	BYTE	W60
	BYTE	PEND
// 043   ----------------------------------------
SwordsBursting_6_043:
	BYTE		N06     Fs3   v060
	BYTE		N07     Bn3 
	BYTE	W12
	BYTE		        Fs3   v020
	BYTE		N08     Bn3 
	BYTE	W24
	BYTE		N44     Fs3   v064
	BYTE		N42     Bn3 
	BYTE	W60
	BYTE	PEND
// 044   ----------------------------------------
SwordsBursting_6_044:
	BYTE		N06     Fs3   v060
	BYTE		N05     Bn3 
	BYTE	W12
	BYTE		N07     Fs3   v020
	BYTE		N08     Bn3 
	BYTE	W24
	BYTE		N54     Fs3   v064
	BYTE		N52     Bn3 
	BYTE	W56
	BYTE	W03
	BYTE		N44     Gs3   v076
	BYTE	W01
	BYTE	PEND
// 045   ----------------------------------------
SwordsBursting_6_045:
	BYTE		N44     Cs4   v068
	BYTE	W48
	BYTE		        Fn3   v080
	BYTE		N44     Gs3 
	BYTE	W48
	BYTE	PEND
// 046   ----------------------------------------
SwordsBursting_6_046:
	BYTE		N06     Fs3   v076
	BYTE		N05     As3 
	BYTE	W12
	BYTE		N07     Fs3   v020
	BYTE		N08     As3 
	BYTE	W24
	BYTE		N32     Fs3   v064
	BYTE		N32     As3 
	BYTE	W36
	BYTE		N23     Fs3   v080
	BYTE		N23     Bn3 
	BYTE	W20
	BYTE	W01
	BYTE	W03
	BYTE	PEND
// 047   ----------------------------------------
SwordsBursting_6_047:
	BYTE		N06     Fs3   v060
	BYTE		N02     As3   v080
	BYTE	W12
	BYTE		        Cs4   v068
	BYTE		N03     Fs4 
	BYTE	W11
	BYTE	W01
	BYTE		N02     Cs4   v052
	BYTE		N03     Fs4   v072
	BYTE	W09
	BYTE	W03
	BYTE		        Cs4   v064
	BYTE		N04     Fs4   v080
	BYTE	W06
	BYTE	W06
	BYTE		N02     Cs4   v068
	BYTE		N04     Fs4   v088
	BYTE	W06
	BYTE	W06
	BYTE		N02     Cs4   v080
	BYTE		N05     Fs4   v084
	BYTE	W01
	BYTE	W05
	BYTE	W05
	BYTE	W01
	BYTE		        Cs4   v096
	BYTE		N05     Fs4   v092
	BYTE	W04
	BYTE	W03
	BYTE	W05
	BYTE		N06     Cs4 
	BYTE		N06     Fs4   v104
	BYTE	W03
	BYTE	W04
	BYTE	W03
	BYTE	W02
	BYTE	PEND
// 048   ----------------------------------------
SwordsBursting_6_048:
	BYTE		N08     Dn4   v127
	BYTE		N08     Fs4   v116
	BYTE	W02
	BYTE	W04
	BYTE	W02
	BYTE	W04
	BYTE		N07     Dn4   v020
	BYTE		N08     Fs4 
	BYTE	W24
	BYTE		N56     Dn3   v068
	BYTE		N56     Fs3 
	BYTE	W60
	BYTE	PEND
// 049   ----------------------------------------
SwordsBursting_6_049:
	BYTE		N07     Cs3   v060
	BYTE		N08     Fs3   v068
	BYTE	W12
	BYTE		N07     Cs3   v020
	BYTE		N08     Fs3 
	BYTE	W24
	BYTE		N44     Fs3   v068
	BYTE	W01
	BYTE		        Cs3   v060
	BYTE	W56
	BYTE	W03
	BYTE	PEND
// 050   ----------------------------------------
	BYTE	PATT
	 POIN2	SwordsBursting_6_042
// 051   ----------------------------------------
	BYTE	PATT
	 POIN2	SwordsBursting_6_043
// 052   ----------------------------------------
	BYTE	PATT
	 POIN2	SwordsBursting_6_043
// 053   ----------------------------------------
SwordsBursting_6_053:
	BYTE		N06     En3   v060
	BYTE		N07     An3 
	BYTE	W12
	BYTE		        En3   v020
	BYTE		N08     An3 
	BYTE	W24
	BYTE		N44     En3   v064
	BYTE		N42     An3 
	BYTE	W60
	BYTE	PEND
// 054   ----------------------------------------
SwordsBursting_6_054:
	BYTE		N06     Fs3   v060
	BYTE		N07     Bn3 
	BYTE	W12
	BYTE		        Fs3   v020
	BYTE		N08     Bn3 
	BYTE	W24
	BYTE		TIE     Fs3   v064
	BYTE		TIE     Bn3 
	BYTE	W09
	BYTE	W03
	BYTE	W02
	BYTE	W01
	BYTE	W02
	BYTE	W01
	BYTE	W02
	BYTE	W03
	BYTE	W02
	BYTE	W02
	BYTE	W02
	BYTE	W03
	BYTE	W03
	BYTE	W03
	BYTE	W03
	BYTE	W05
	BYTE	W05
	BYTE	W09
	BYTE	PEND
// 055   ----------------------------------------
SwordsBursting_6_055:
	BYTE	W17
	BYTE	W01
	BYTE	W10
	BYTE	W05
	BYTE	W03
	BYTE	W03
	BYTE	W02
	BYTE	W02
	BYTE	W03
	BYTE	W01
	BYTE	W02
	BYTE	W02
	BYTE	W01
	BYTE	W02
	BYTE	W01
	BYTE	W02
	BYTE	W01
	BYTE	W02
	BYTE	W01
	BYTE	W01
	BYTE	W01
	BYTE	W01
	BYTE	W01
	BYTE	W01
	BYTE	W01
	BYTE	W02
	BYTE	W01
	BYTE	W01
	BYTE	W01
	BYTE	W01
	BYTE	W01
	BYTE	W01
	BYTE	W01
	BYTE	W01
	BYTE	W01
	BYTE	W01
	BYTE	W04
	BYTE	PEND
	BYTE		EOT     Bn3 
	BYTE	W02
	BYTE		        Fs3 
	BYTE	W11
// 056   ----------------------------------------
	BYTE	W96
// 057   ----------------------------------------
	BYTE	W96
// 058   ----------------------------------------
	BYTE	W96
// 059   ----------------------------------------
	BYTE	W96
// 060   ----------------------------------------
	BYTE	W96
// 061   ----------------------------------------
	BYTE	W96
// 062   ----------------------------------------
	BYTE	W96
// 063   ----------------------------------------
	BYTE	W96
// 064   ----------------------------------------
	BYTE	W96
// 065   ----------------------------------------
	BYTE	W96
// 066   ----------------------------------------
	BYTE	W96
// 067   ----------------------------------------
	BYTE	W96
// 068   ----------------------------------------
	BYTE	W96
// 069   ----------------------------------------
	BYTE	W96
// 070   ----------------------------------------
	BYTE	W96
// 071   ----------------------------------------
	BYTE	W96
// 072   ----------------------------------------
	BYTE	PATT
	 POIN2	SwordsBursting_6_032
// 073   ----------------------------------------
	BYTE	PATT
	 POIN2	SwordsBursting_6_033
// 074   ----------------------------------------
	BYTE	PATT
	 POIN2	SwordsBursting_6_034
// 075   ----------------------------------------
	BYTE	PATT
	 POIN2	SwordsBursting_6_035
// 076   ----------------------------------------
	BYTE	PATT
	 POIN2	SwordsBursting_6_036
// 077   ----------------------------------------
	BYTE	PATT
	 POIN2	SwordsBursting_6_037
// 078   ----------------------------------------
	BYTE	PATT
	 POIN2	SwordsBursting_6_038
// 079   ----------------------------------------
	BYTE	PATT
	 POIN2	SwordsBursting_6_039
// 080   ----------------------------------------
	BYTE	PATT
	 POIN2	SwordsBursting_6_040
// 081   ----------------------------------------
	BYTE	PATT
	 POIN2	SwordsBursting_6_041
// 082   ----------------------------------------
	BYTE	PATT
	 POIN2	SwordsBursting_6_042
// 083   ----------------------------------------
	BYTE	PATT
	 POIN2	SwordsBursting_6_043
// 084   ----------------------------------------
	BYTE	PATT
	 POIN2	SwordsBursting_6_044
// 085   ----------------------------------------
	BYTE	PATT
	 POIN2	SwordsBursting_6_045
// 086   ----------------------------------------
	BYTE	PATT
	 POIN2	SwordsBursting_6_046
// 087   ----------------------------------------
	BYTE	PATT
	 POIN2	SwordsBursting_6_047
// 088   ----------------------------------------
	BYTE	PATT
	 POIN2	SwordsBursting_6_048
// 089   ----------------------------------------
	BYTE	PATT
	 POIN2	SwordsBursting_6_049
// 090   ----------------------------------------
	BYTE	PATT
	 POIN2	SwordsBursting_6_042
// 091   ----------------------------------------
	BYTE	PATT
	 POIN2	SwordsBursting_6_043
// 092   ----------------------------------------
	BYTE	PATT
	 POIN2	SwordsBursting_6_043
// 093   ----------------------------------------
	BYTE	PATT
	 POIN2	SwordsBursting_6_053
// 094   ----------------------------------------
	BYTE	PATT
	 POIN2	SwordsBursting_6_054
// 095   ----------------------------------------
	BYTE	PATT
	 POIN2	SwordsBursting_6_055
	BYTE		EOT     Bn3 
	BYTE	W02
	BYTE		        Fs3 
	BYTE	W10
	BYTE	GoTo
	 POIN2	SwordsBursting_6_B1
SwordsBursting_6_B2:
	BYTE	FINE

//**************** Track 7 (Midi-Chn.9) ****************//

SwordsBursting_7:
	BYTE	KEYSH   SwordsBursting_key+0
// 000   ----------------------------------------
	BYTE		VOICE   57
	BYTE		VOL     26*SwordsBursting_mvl/mxv
	BYTE		PAN     c_v-42
	BYTE	W96
// 001   ----------------------------------------
	BYTE	W96
// 002   ----------------------------------------
	BYTE	W96
// 003   ----------------------------------------
	BYTE	W96
// 004   ----------------------------------------
	BYTE	W96
// 005   ----------------------------------------
	BYTE	W96
// 006   ----------------------------------------
	BYTE	W92
	BYTE	W01
	BYTE		N05     En2   v068
	BYTE		N05     En3 
	BYTE	W03
// 007   ----------------------------------------
	BYTE	W03
	BYTE		        Fs2   v072
	BYTE		N05     Fs3 
	BYTE	W06
	BYTE		        Gn2 
	BYTE		N05     Gn3 
	BYTE	W06
	BYTE		        An2 
	BYTE		N05     An3 
	BYTE	W06
	BYTE		        Gn2   v080
	BYTE		N05     Gn3 
	BYTE	W06
	BYTE		        An2 
	BYTE		N05     An3 
	BYTE	W06
	BYTE		        As2   v084
	BYTE		N05     As3 
	BYTE	W06
	BYTE		        Cn3   v088
	BYTE		N05     Cn4 
	BYTE	W06
	BYTE		        An2 
	BYTE		N05     An3 
	BYTE	W06
	BYTE		        As2   v092
	BYTE		N05     As3 
	BYTE	W06
	BYTE		        Cn3 
	BYTE		N05     Cn4 
	BYTE	W06
	BYTE		        Dn3 
	BYTE		N05     Dn4 
	BYTE	W06
	BYTE		        En3   v096
	BYTE		N05     En4 
	BYTE	W06
	BYTE		        Fs3 
	BYTE		N05     Fs4 
	BYTE	W06
	BYTE		        Gn3 
	BYTE		N05     Gn4 
	BYTE	W06
	BYTE		        An3   v100
	BYTE		N05     An4 
	BYTE	W09
// 008   ----------------------------------------
	BYTE	W96
// 009   ----------------------------------------
	BYTE	W96
// 010   ----------------------------------------
	BYTE	W96
// 011   ----------------------------------------
	BYTE	W96
// 012   ----------------------------------------
	BYTE	W96
// 013   ----------------------------------------
	BYTE	W96
// 014   ----------------------------------------
	BYTE	W96
// 015   ----------------------------------------
	BYTE	W96
SwordsBursting_7_B1:
// 016   ----------------------------------------
	BYTE	W96
// 017   ----------------------------------------
	BYTE	W96
// 018   ----------------------------------------
	BYTE	W96
// 019   ----------------------------------------
	BYTE	W96
// 020   ----------------------------------------
	BYTE	W96
// 021   ----------------------------------------
	BYTE	W96
// 022   ----------------------------------------
	BYTE	W96
// 023   ----------------------------------------
	BYTE	W96
// 024   ----------------------------------------
	BYTE	W96
// 025   ----------------------------------------
	BYTE	W96
// 026   ----------------------------------------
	BYTE	W96
// 027   ----------------------------------------
	BYTE	W96
// 028   ----------------------------------------
	BYTE	W96
// 029   ----------------------------------------
SwordsBursting_7_029:
	BYTE	W92
	BYTE	W01
	BYTE		N09     Fs1   v064
	BYTE		N10     Fs2 
	BYTE	W03
	BYTE	PEND
// 030   ----------------------------------------
SwordsBursting_7_030:
	BYTE	W09
	BYTE		N09     Bn1   v068
	BYTE		N10     Bn2 
	BYTE	W12
	BYTE		N09     Dn2 
	BYTE		N10     Dn3 
	BYTE	W12
	BYTE		N09     Bn1 
	BYTE		N10     Bn2 
	BYTE	W12
	BYTE		N09     Bn1 
	BYTE		N10     Bn2 
	BYTE	W12
	BYTE		N09     Dn2 
	BYTE		N10     Dn3 
	BYTE	W12
	BYTE		N09     Fs2   v072
	BYTE		N10     Fs3 
	BYTE	W12
	BYTE		N09     Dn2 
	BYTE		N10     Dn3 
	BYTE	W12
	BYTE		N09     Dn2 
	BYTE		N10     Dn3 
	BYTE	W03
	BYTE	PEND
// 031   ----------------------------------------
SwordsBursting_7_031:
	BYTE	W09
	BYTE		N09     Fs2   v080
	BYTE		N10     Fs3 
	BYTE	W12
	BYTE		N09     Bn2 
	BYTE		N10     Bn3 
	BYTE	W12
	BYTE		        Fs2   v084
	BYTE		N10     Fs3 
	BYTE	W12
	BYTE		N09     Bn2 
	BYTE		N10     Bn3 
	BYTE	W12
	BYTE		        Dn3   v080
	BYTE		N10     Dn4 
	BYTE	W12
	BYTE		N11     Fs3   v096
	BYTE		N10     Fs4 
	BYTE	W12
	BYTE		N11     Bn3   v108
	BYTE		N10     Bn4 
	BYTE	W12
	BYTE		TIE     Gn2   v060
	BYTE		N48     Bn2   v076
	BYTE		TIE     Gn3   v064
	BYTE		N48     Bn3   v096
	BYTE	W03
	BYTE	PEND
// 032   ----------------------------------------
SwordsBursting_7_032:
	BYTE	W44
	BYTE	W01
	BYTE		N48     Fs3   v092
	BYTE		N48     Fs4   v088
	BYTE	W48
	BYTE		N96     An2   v052
	BYTE		N52     Bn2   v076
	BYTE		N92     An3   v064
	BYTE		N48     Bn3   v092
	BYTE	W02
	BYTE	PEND
	BYTE		EOT     Gn3 
	BYTE	W01
// 033   ----------------------------------------
	BYTE	W01
	BYTE		        Gn2 
	BYTE	W44
	BYTE		N44     Dn3   v088
	BYTE		N44     Dn4 
	BYTE	W48
	BYTE		N07     Fs2 
	BYTE		N07     Bn2 
	BYTE		N07     Fs3 
	BYTE		N08     Bn3   v084
	BYTE	W03
// 034   ----------------------------------------
SwordsBursting_7_034:
	BYTE	W32
	BYTE		N05     Fs3   v088
	BYTE		N07     Bn3   v092
	BYTE	W01
	BYTE		N06     Fs2   v076
	BYTE		N06     Bn2   v080
	BYTE	W32
	BYTE		N07     Bn3   v092
	BYTE	W01
	BYTE		        Bn2   v080
	BYTE		N05     Fs3   v088
	BYTE	W01
	BYTE		N06     Fs2   v084
	BYTE	W28
	BYTE	W01
	BYTE	PEND
// 035   ----------------------------------------
SwordsBursting_7_035:
	BYTE	W08
	BYTE		N07     Fs2   v084
	BYTE		N07     Bn2 
	BYTE		N07     Bn3   v096
	BYTE	W01
	BYTE		N06     Fs3   v092
	BYTE	W12
	BYTE		N18     An2   v072
	BYTE		N18     An3 
	BYTE	W12
	BYTE		N13     Bn2   v076
	BYTE		N13     Bn3 
	BYTE	W12
	BYTE		N11     Dn3   v080
	BYTE		N11     Dn4 
	BYTE	W12
	BYTE		        Cs3   v072
	BYTE		N11     Cs4 
	BYTE	W12
	BYTE		N13     Gn2 
	BYTE		N11     Gn3   v092
	BYTE	W12
	BYTE		N13     An2   v072
	BYTE		N11     An3 
	BYTE	W12
	BYTE		N48     Gn2 
	BYTE		N44     Bn2   v076
	BYTE		N48     Gn3   v068
	BYTE		N44     Bn3   v092
	BYTE	W03
	BYTE	PEND
// 036   ----------------------------------------
SwordsBursting_7_036:
	BYTE	W44
	BYTE	W01
	BYTE		N44     Dn3   v076
	BYTE		N44     Fs3   v092
	BYTE		N44     Dn4   v080
	BYTE		N48     Fs4   v100
	BYTE	W48
	BYTE		        Gn2   v064
	BYTE		N48     Bn2   v072
	BYTE		N44     Gn3   v076
	BYTE		N48     Bn3   v092
	BYTE	W03
	BYTE	PEND
// 037   ----------------------------------------
SwordsBursting_7_037:
	BYTE	W44
	BYTE	W01
	BYTE		N42     Fs3   v068
	BYTE		N44     An3   v080
	BYTE		N40     Fs4   v076
	BYTE		N44     An4   v092
	BYTE	W48
	BYTE		N08     Fs3   v080
	BYTE		N07     Bn3 
	BYTE		N08     Fs4 
	BYTE		N10     Bn4   v076
	BYTE	W03
	BYTE	PEND
// 038   ----------------------------------------
SwordsBursting_7_038:
	BYTE	W32
	BYTE	W01
	BYTE		N07     Fs3   v084
	BYTE		N06     Bn3   v080
	BYTE		N07     Fs4   v088
	BYTE		N08     Bn4 
	BYTE	W36
	BYTE		N06     Fs3   v084
	BYTE		N05     Bn3   v080
	BYTE		N06     Fs4   v092
	BYTE		N07     Bn4   v096
	BYTE	W24
	BYTE	W03
	BYTE	PEND
// 039   ----------------------------------------
SwordsBursting_7_039:
	BYTE	W09
	BYTE		N07     Fs3   v088
	BYTE		N05     Bn3   v080
	BYTE		N06     Fs4   v088
	BYTE		N07     Bn4   v096
	BYTE	W84
	BYTE	W03
	BYTE	PEND
// 040   ----------------------------------------
	BYTE	W96
// 041   ----------------------------------------
SwordsBursting_7_041:
	BYTE	W92
	BYTE	W01
	BYTE		N52     Bn2   v084
	BYTE		N52     Bn3 
	BYTE	W03
	BYTE	PEND
// 042   ----------------------------------------
SwordsBursting_7_042:
	BYTE	W44
	BYTE	W01
	BYTE		N52     Cs3   v084
	BYTE		N48     Cs4 
	BYTE	W48
	BYTE		N52     Dn3   v076
	BYTE		N52     Dn4   v092
	BYTE	W03
	BYTE	PEND
// 043   ----------------------------------------
SwordsBursting_7_043:
	BYTE	W44
	BYTE	W01
	BYTE		N48     En3   v092
	BYTE		N52     En4 
	BYTE	W48
	BYTE	W03
	BYTE	PEND
// 044   ----------------------------------------
SwordsBursting_7_044:
	BYTE	W92
	BYTE	W01
	BYTE		N44     Fn3   v080
	BYTE		N44     Fn4   v096
	BYTE	W03
	BYTE	PEND
// 045   ----------------------------------------
SwordsBursting_7_045:
	BYTE	W44
	BYTE	W01
	BYTE		N48     Gs3   v092
	BYTE		N48     Gs4   v084
	BYTE	W48
	BYTE		N72     As3   v092
	BYTE		N72     As4 
	BYTE	W03
	BYTE	PEND
// 046   ----------------------------------------
SwordsBursting_7_046:
	BYTE	W68
	BYTE	W01
	BYTE		N28     Bn3   v088
	BYTE		N23     Bn4 
	BYTE	W24
	BYTE		        Cs4   v092
	BYTE		N23     Cs5 
	BYTE	W03
	BYTE	PEND
// 047   ----------------------------------------
SwordsBursting_7_047:
	BYTE	W32
	BYTE	W01
	BYTE		N11     Fs2   v080
	BYTE		N11     Fs3 
	BYTE	W12
	BYTE		        Gs2 
	BYTE		N11     Gs3 
	BYTE	W12
	BYTE		        As2   v084
	BYTE		N11     As3 
	BYTE	W12
	BYTE		        Bn2   v092
	BYTE		N11     Bn3 
	BYTE	W12
	BYTE		        Cs3   v096
	BYTE		N11     Cs4 
	BYTE	W15
	BYTE	PEND
// 048   ----------------------------------------
SwordsBursting_7_048:
	BYTE	W92
	BYTE	W01
	BYTE		N24     Cs3   v092
	BYTE		N24     Cs4 
	BYTE	W03
	BYTE	PEND
// 049   ----------------------------------------
SwordsBursting_7_049:
	BYTE	W21
	BYTE		N24     Fs2   v092
	BYTE		N24     Fs3 
	BYTE	W24
	BYTE		        En3 
	BYTE		N24     En4 
	BYTE	W24
	BYTE		        Cs3 
	BYTE		N24     Cs4 
	BYTE	W24
	BYTE		N44     Bn2 
	BYTE		N44     Bn3 
	BYTE	W03
	BYTE	PEND
// 050   ----------------------------------------
SwordsBursting_7_050:
	BYTE	W44
	BYTE	W01
	BYTE		N44     Cs3   v068
	BYTE		N44     Cs4   v084
	BYTE	W48
	BYTE		        Dn3   v068
	BYTE		N44     Dn4   v084
	BYTE	W03
	BYTE	PEND
// 051   ----------------------------------------
SwordsBursting_7_051:
	BYTE	W44
	BYTE	W01
	BYTE		N44     En3   v068
	BYTE		N44     En4   v084
	BYTE	W48
	BYTE	W03
	BYTE	PEND
// 052   ----------------------------------------
	BYTE	W96
// 053   ----------------------------------------
	BYTE	W96
// 054   ----------------------------------------
	BYTE	W96
// 055   ----------------------------------------
	BYTE	W96
// 056   ----------------------------------------
	BYTE	W96
// 057   ----------------------------------------
	BYTE	W96
// 058   ----------------------------------------
	BYTE	W96
// 059   ----------------------------------------
	BYTE	W96
// 060   ----------------------------------------
	BYTE	W96
// 061   ----------------------------------------
	BYTE	W96
// 062   ----------------------------------------
	BYTE	W96
// 063   ----------------------------------------
	BYTE	W96
// 064   ----------------------------------------
	BYTE	W96
// 065   ----------------------------------------
	BYTE	W96
// 066   ----------------------------------------
	BYTE	W96
// 067   ----------------------------------------
	BYTE	W96
// 068   ----------------------------------------
	BYTE	W96
// 069   ----------------------------------------
	BYTE	PATT
	 POIN2	SwordsBursting_7_029
// 070   ----------------------------------------
	BYTE	PATT
	 POIN2	SwordsBursting_7_030
// 071   ----------------------------------------
	BYTE	PATT
	 POIN2	SwordsBursting_7_031
// 072   ----------------------------------------
	BYTE	PATT
	 POIN2	SwordsBursting_7_032
	BYTE		EOT     Gn3 
	BYTE	W01
// 073   ----------------------------------------
	BYTE	W01
	BYTE		        Gn2 
	BYTE	W44
	BYTE		N44     Dn3   v088
	BYTE		N44     Dn4 
	BYTE	W48
	BYTE		N07     Fs2 
	BYTE		N07     Bn2 
	BYTE		N07     Fs3 
	BYTE		N08     Bn3   v084
	BYTE	W03
// 074   ----------------------------------------
	BYTE	PATT
	 POIN2	SwordsBursting_7_034
// 075   ----------------------------------------
	BYTE	PATT
	 POIN2	SwordsBursting_7_035
// 076   ----------------------------------------
	BYTE	PATT
	 POIN2	SwordsBursting_7_036
// 077   ----------------------------------------
	BYTE	PATT
	 POIN2	SwordsBursting_7_037
// 078   ----------------------------------------
	BYTE	PATT
	 POIN2	SwordsBursting_7_038
// 079   ----------------------------------------
	BYTE	PATT
	 POIN2	SwordsBursting_7_039
// 080   ----------------------------------------
	BYTE	W96
// 081   ----------------------------------------
	BYTE	PATT
	 POIN2	SwordsBursting_7_041
// 082   ----------------------------------------
	BYTE	PATT
	 POIN2	SwordsBursting_7_042
// 083   ----------------------------------------
	BYTE	PATT
	 POIN2	SwordsBursting_7_043
// 084   ----------------------------------------
	BYTE	PATT
	 POIN2	SwordsBursting_7_044
// 085   ----------------------------------------
	BYTE	PATT
	 POIN2	SwordsBursting_7_045
// 086   ----------------------------------------
	BYTE	PATT
	 POIN2	SwordsBursting_7_046
// 087   ----------------------------------------
	BYTE	PATT
	 POIN2	SwordsBursting_7_047
// 088   ----------------------------------------
	BYTE	PATT
	 POIN2	SwordsBursting_7_048
// 089   ----------------------------------------
	BYTE	PATT
	 POIN2	SwordsBursting_7_049
// 090   ----------------------------------------
	BYTE	PATT
	 POIN2	SwordsBursting_7_050
// 091   ----------------------------------------
	BYTE	PATT
	 POIN2	SwordsBursting_7_051
// 092   ----------------------------------------
	BYTE	W96
// 093   ----------------------------------------
	BYTE	W96
// 094   ----------------------------------------
	BYTE	W96
// 095   ----------------------------------------
	BYTE	W92
	BYTE	W03
	BYTE	GoTo
	 POIN2	SwordsBursting_7_B1
SwordsBursting_7_B2:
	BYTE	FINE

//**************** Track 8 (Midi-Chn.11) ****************//

SwordsBursting_8:
	BYTE	KEYSH   SwordsBursting_key+0
// 000   ----------------------------------------
	BYTE		VOICE   57
	BYTE		VOL     26*SwordsBursting_mvl/mxv
	BYTE		PAN     c_v-29
	BYTE		N92     Bn3   v080
	BYTE		N92     Bn4   v084
	BYTE	W92
	BYTE	W01
	BYTE		N48     Fs3   v080
	BYTE		N48     Fs4   v092
	BYTE	W03
// 001   ----------------------------------------
	BYTE	W44
	BYTE	W01
	BYTE		        Bn2   v076
	BYTE		N54     Bn3   v084
	BYTE	W48
	BYTE		TIE     An3   v088
	BYTE		TIE     An4   v100
	BYTE	W03
// 002   ----------------------------------------
	BYTE	W92
	BYTE	W01
	BYTE		N24     Gn3   v080
	BYTE		N30     Gn4   v096
	BYTE	W01
	BYTE		EOT     An3 
	BYTE	W01
	BYTE		        An4 
	BYTE	W01
// 003   ----------------------------------------
	BYTE	W21
	BYTE		N24     Fs3   v080
	BYTE		N24     Fs4   v084
	BYTE	W24
	BYTE		        En3   v068
	BYTE		N24     En4   v092
	BYTE	W24
	BYTE		        Gn3   v080
	BYTE		N28     Gn4   v088
	BYTE	W24
	BYTE		TIE     Fs3   v076
	BYTE		TIE     Fs4   v088
	BYTE	W03
// 004   ----------------------------------------
	BYTE	W96
// 005   ----------------------------------------
	BYTE	W96
// 006   ----------------------------------------
	BYTE	W92
	BYTE		EOT     Fs3 
	BYTE		        Fs4 
	BYTE	W04
// 007   ----------------------------------------
	BYTE	W92
	BYTE	W01
	BYTE		N92     Bn3   v080
	BYTE		N92     Bn4   v084
	BYTE	W03
// 008   ----------------------------------------
	BYTE	W88
	BYTE	W01
	BYTE		N48     Fs4   v092
	BYTE	W01
	BYTE		        Fs3   v080
	BYTE	W06
// 009   ----------------------------------------
	BYTE	W40
	BYTE	W01
	BYTE		N54     Bn3   v084
	BYTE	W01
	BYTE		N48     Bn2   v076
	BYTE	W48
	BYTE	W02
	BYTE		TIE     An3   v088
	BYTE		TIE     An4   v100
	BYTE	W04
// 010   ----------------------------------------
	BYTE	W90
	BYTE	W01
	BYTE		N24     Gn3   v080
	BYTE		N30     Gn4   v096
	BYTE	W02
	BYTE		EOT     An3 
	BYTE	W01
	BYTE		        An4 
	BYTE	W02
// 011   ----------------------------------------
	BYTE	W20
	BYTE		N24     Fs3   v080
	BYTE	W01
	BYTE		        Fs4   v084
	BYTE	W23
	BYTE		        En3   v068
	BYTE		N24     En4   v092
	BYTE	W23
	BYTE		N28     Fs4   v088
	BYTE	W01
	BYTE		N24     Fs3   v080
	BYTE	W24
	BYTE	W01
	BYTE		TIE     Gn3   v072
	BYTE		TIE     Gn4   v084
	BYTE	W03
// 012   ----------------------------------------
	BYTE	W96
// 013   ----------------------------------------
	BYTE	W96
// 014   ----------------------------------------
	BYTE	W90
	BYTE	W01
	BYTE		EOT     Gn3 
	BYTE	W01
	BYTE		        Gn4 
	BYTE	W04
// 015   ----------------------------------------
	BYTE	W96
SwordsBursting_8_B1:
// 016   ----------------------------------------
	BYTE	W96
// 017   ----------------------------------------
	BYTE	W96
// 018   ----------------------------------------
	BYTE	W96
// 019   ----------------------------------------
	BYTE	W96
// 020   ----------------------------------------
	BYTE	W96
// 021   ----------------------------------------
	BYTE	W96
// 022   ----------------------------------------
	BYTE	W96
// 023   ----------------------------------------
	BYTE	W96
// 024   ----------------------------------------
	BYTE	W96
// 025   ----------------------------------------
	BYTE	W96
// 026   ----------------------------------------
	BYTE	W96
// 027   ----------------------------------------
	BYTE	W96
// 028   ----------------------------------------
	BYTE	W96
// 029   ----------------------------------------
	BYTE	W96
// 030   ----------------------------------------
	BYTE	W96
// 031   ----------------------------------------
	BYTE	W96
// 032   ----------------------------------------
	BYTE	W96
// 033   ----------------------------------------
	BYTE	W96
// 034   ----------------------------------------
	BYTE	W96
// 035   ----------------------------------------
	BYTE	W96
// 036   ----------------------------------------
	BYTE	W96
// 037   ----------------------------------------
	BYTE	W96
// 038   ----------------------------------------
	BYTE	W96
// 039   ----------------------------------------
SwordsBursting_8_039:
	BYTE	W92
	BYTE	W01
	BYTE		N92     Cn3   v060
	BYTE		N92     Cn4   v072
	BYTE	W03
	BYTE	PEND
// 040   ----------------------------------------
SwordsBursting_8_040:
	BYTE	W92
	BYTE	W01
	BYTE		N23     Cs3   v072
	BYTE		N24     Cs4 
	BYTE	W03
	BYTE	PEND
// 041   ----------------------------------------
	BYTE	W21
	BYTE		N23     As2   v076
	BYTE		N23     As3 
	BYTE	W24
	BYTE		        Fs2   v080
	BYTE		N23     Fs3 
	BYTE	W24
	BYTE		N21     Cs3   v068
	BYTE		N23     Cs4   v080
	BYTE	W24
	BYTE	W03
// 042   ----------------------------------------
	BYTE	W96
// 043   ----------------------------------------
SwordsBursting_8_043:
	BYTE	W92
	BYTE	W01
	BYTE		N92     Fs3   v092
	BYTE		N92     Fs4 
	BYTE	W03
	BYTE	PEND
// 044   ----------------------------------------
	BYTE	W96
// 045   ----------------------------------------
	BYTE	W96
// 046   ----------------------------------------
	BYTE	W96
// 047   ----------------------------------------
SwordsBursting_8_047:
	BYTE	W92
	BYTE	W01
	BYTE		N92     Dn3   v092
	BYTE		N92     Dn4 
	BYTE	W03
	BYTE	PEND
// 048   ----------------------------------------
	BYTE	W96
// 049   ----------------------------------------
	BYTE	W96
// 050   ----------------------------------------
	BYTE	W96
// 051   ----------------------------------------
SwordsBursting_8_051:
	BYTE	W92
	BYTE	W01
	BYTE		N92     Fs3   v068
	BYTE		N92     Fs4   v084
	BYTE	W03
	BYTE	PEND
// 052   ----------------------------------------
SwordsBursting_8_052:
	BYTE	W92
	BYTE	W01
	BYTE		N44     En3   v060
	BYTE		N44     En4   v080
	BYTE	W03
	BYTE	PEND
// 053   ----------------------------------------
SwordsBursting_8_053:
	BYTE	W44
	BYTE	W01
	BYTE		N44     An3   v080
	BYTE		N44     An4   v088
	BYTE	W48
	BYTE		TIE     Bn3   v080
	BYTE		TIE     Bn4 
	BYTE	W03
	BYTE	PEND
// 054   ----------------------------------------
	BYTE	W96
// 055   ----------------------------------------
	BYTE	W80
	BYTE	W03
	BYTE		EOT     Bn3 
	BYTE	W02
	BYTE		        Bn4 
	BYTE	W11
// 056   ----------------------------------------
	BYTE	W96
// 057   ----------------------------------------
	BYTE	W96
// 058   ----------------------------------------
	BYTE	W96
// 059   ----------------------------------------
	BYTE	W96
// 060   ----------------------------------------
	BYTE	W96
// 061   ----------------------------------------
	BYTE	W96
// 062   ----------------------------------------
	BYTE	W96
// 063   ----------------------------------------
	BYTE	W96
// 064   ----------------------------------------
	BYTE	W96
// 065   ----------------------------------------
	BYTE	W96
// 066   ----------------------------------------
	BYTE	W96
// 067   ----------------------------------------
	BYTE	W96
// 068   ----------------------------------------
	BYTE	W96
// 069   ----------------------------------------
	BYTE	W96
// 070   ----------------------------------------
	BYTE	W96
// 071   ----------------------------------------
	BYTE	W96
// 072   ----------------------------------------
	BYTE	W96
// 073   ----------------------------------------
	BYTE	W96
// 074   ----------------------------------------
	BYTE	W96
// 075   ----------------------------------------
	BYTE	W96
// 076   ----------------------------------------
	BYTE	W96
// 077   ----------------------------------------
	BYTE	W96
// 078   ----------------------------------------
	BYTE	W96
// 079   ----------------------------------------
	BYTE	PATT
	 POIN2	SwordsBursting_8_039
// 080   ----------------------------------------
	BYTE	PATT
	 POIN2	SwordsBursting_8_040
// 081   ----------------------------------------
	BYTE	W21
	BYTE		N23     As2   v076
	BYTE		N23     As3 
	BYTE	W24
	BYTE		        Fs2   v080
	BYTE		N23     Fs3 
	BYTE	W24
	BYTE		        Cs3   v068
	BYTE		N24     Cs4   v080
	BYTE	W24
	BYTE	W03
// 082   ----------------------------------------
	BYTE	W96
// 083   ----------------------------------------
	BYTE	PATT
	 POIN2	SwordsBursting_8_043
// 084   ----------------------------------------
	BYTE	W96
// 085   ----------------------------------------
	BYTE	W96
// 086   ----------------------------------------
	BYTE	W96
// 087   ----------------------------------------
	BYTE	PATT
	 POIN2	SwordsBursting_8_047
// 088   ----------------------------------------
	BYTE	W96
// 089   ----------------------------------------
	BYTE	W96
// 090   ----------------------------------------
	BYTE	W96
// 091   ----------------------------------------
	BYTE	PATT
	 POIN2	SwordsBursting_8_051
// 092   ----------------------------------------
	BYTE	PATT
	 POIN2	SwordsBursting_8_052
// 093   ----------------------------------------
	BYTE	PATT
	 POIN2	SwordsBursting_8_053
// 094   ----------------------------------------
	BYTE	W96
// 095   ----------------------------------------
	BYTE	W80
	BYTE	W03
	BYTE		EOT     Bn3 
	BYTE	W02
	BYTE		        Bn4 
	BYTE	W10
	BYTE	GoTo
	 POIN2	SwordsBursting_8_B1
SwordsBursting_8_B2:
	BYTE	FINE

//**************** Track 9 (Midi-Chn.14) ****************//

SwordsBursting_9:
	BYTE	KEYSH   SwordsBursting_key+0
// 000   ----------------------------------------
	BYTE		VOICE   30
	BYTE		VOL     58*SwordsBursting_mvl/mxv
	BYTE	W96
// 001   ----------------------------------------
	BYTE	W96
// 002   ----------------------------------------
	BYTE	W96
// 003   ----------------------------------------
	BYTE	W96
// 004   ----------------------------------------
	BYTE	W96
// 005   ----------------------------------------
	BYTE	W96
// 006   ----------------------------------------
	BYTE	W96
// 007   ----------------------------------------
	BYTE	W96
// 008   ----------------------------------------
	BYTE	W96
// 009   ----------------------------------------
	BYTE	W96
// 010   ----------------------------------------
	BYTE	W96
// 011   ----------------------------------------
	BYTE	W96
// 012   ----------------------------------------
	BYTE	W96
// 013   ----------------------------------------
	BYTE	W96
// 014   ----------------------------------------
	BYTE	W96
// 015   ----------------------------------------
	BYTE	W96
SwordsBursting_9_B1:
// 016   ----------------------------------------
SwordsBursting_9_016:
	BYTE	W12
	BYTE		N19     Fs3   v100
	BYTE	W12
	BYTE		N15     Dn4 
	BYTE	W12
	BYTE		N24     Cs4 
	BYTE	W24
	BYTE		        Bn3 
	BYTE	W24
	BYTE		        An3 
	BYTE	W12
	BYTE	PEND
// 017   ----------------------------------------
SwordsBursting_9_017:
	BYTE	W12
	BYTE		N24     Bn3   v100
	BYTE	W24
	BYTE		        Fs3 
	BYTE	W24
	BYTE		N11     An3 
	BYTE	W12
	BYTE		N13     Bn3 
	BYTE	W12
	BYTE		TIE     Dn3 
	BYTE	W12
	BYTE	PEND
// 018   ----------------------------------------
	BYTE	W96
// 019   ----------------------------------------
	BYTE	W28
	BYTE		EOT   
	BYTE	W08
	BYTE		N30     Bn2 
	BYTE	W24
	BYTE		N16     Cs3 
	BYTE	W12
	BYTE		N14     Dn3 
	BYTE	W12
	BYTE		N13     En3 
	BYTE	W12
// 020   ----------------------------------------
SwordsBursting_9_020:
	BYTE		N36     Fs3   v100
	BYTE	W36
	BYTE		        En3 
	BYTE	W36
	BYTE		        An3 
	BYTE	W24
	BYTE	PEND
// 021   ----------------------------------------
SwordsBursting_9_021:
	BYTE	W12
	BYTE		N36     Gn3   v100
	BYTE	W36
	BYTE		N24     Fs3 
	BYTE	W24
	BYTE		N23     En3 
	BYTE	W24
	BYTE	PEND
// 022   ----------------------------------------
SwordsBursting_9_022:
	BYTE		N24     Fs3   v100
	BYTE	W24
	BYTE		N10     Gn3 
	BYTE	W12
	BYTE		TIE     Fs3 
	BYTE	W60
	BYTE	PEND
// 023   ----------------------------------------
	BYTE	W60
	BYTE	W02
	BYTE		EOT   
	BYTE	W32
	BYTE	W02
// 024   ----------------------------------------
	BYTE	PATT
	 POIN2	SwordsBursting_9_016
// 025   ----------------------------------------
SwordsBursting_9_025:
	BYTE	W12
	BYTE		N24     Bn3   v100
	BYTE	W24
	BYTE		        Fs3 
	BYTE	W24
	BYTE		N11     An3 
	BYTE	W12
	BYTE		N13     Bn3 
	BYTE	W12
	BYTE		N68     Fs4 
	BYTE	W12
	BYTE	PEND
// 026   ----------------------------------------
SwordsBursting_9_026:
	BYTE	W60
	BYTE		N24     En4   v100
	BYTE	W24
	BYTE		N64     Dn4 
	BYTE	W12
	BYTE	PEND
// 027   ----------------------------------------
SwordsBursting_9_027:
	BYTE	W60
	BYTE		N13     Bn3   v100
	BYTE	W12
	BYTE		        Dn4 
	BYTE	W12
	BYTE		N44     An4 
	BYTE	W12
	BYTE	PEND
// 028   ----------------------------------------
SwordsBursting_9_028:
	BYTE	W36
	BYTE		N23     Gn4   v100
	BYTE	W24
	BYTE		        An4 
	BYTE	W24
	BYTE		        Gn4 
	BYTE	W12
	BYTE	PEND
// 029   ----------------------------------------
SwordsBursting_9_029:
	BYTE	W12
	BYTE		N11     Fs4   v100
	BYTE	W12
	BYTE		        En4 
	BYTE	W12
	BYTE		N23     Fs4 
	BYTE	W24
	BYTE		N23   
	BYTE	W24
	BYTE		        Cs4 
	BYTE	W12
	BYTE	PEND
// 030   ----------------------------------------
SwordsBursting_9_030:
	BYTE	W12
	BYTE		N11     Dn4   v100
	BYTE	W12
	BYTE		TIE     Bn3 
	BYTE	W72
	BYTE	PEND
// 031   ----------------------------------------
	BYTE	W52
	BYTE	W01
	BYTE		EOT   
	BYTE	W07
	BYTE		N11     Gn3 
	BYTE	W12
	BYTE		        An3 
	BYTE	W12
	BYTE		N60     Bn3 
	BYTE	W12
// 032   ----------------------------------------
	BYTE	W48
	BYTE		N52     Fs4 
	BYTE	W48
// 033   ----------------------------------------
SwordsBursting_9_033:
	BYTE		N48     Bn3   v100
	BYTE	W48
	BYTE		        Dn4 
	BYTE	W48
	BYTE	PEND
// 034   ----------------------------------------
SwordsBursting_9_034:
	BYTE		N16     Cs4   v100
	BYTE	W12
	BYTE		N15     Bn3 
	BYTE	W12
	BYTE		N13     An3 
	BYTE	W12
	BYTE		TIE     Bn3 
	BYTE	W60
	BYTE	PEND
// 035   ----------------------------------------
	BYTE	W56
	BYTE	W02
	BYTE		EOT   
	BYTE	W14
	BYTE		N11     Gn3 
	BYTE	W12
	BYTE		        An3 
	BYTE	W12
// 036   ----------------------------------------
SwordsBursting_9_036:
	BYTE		N44     Bn3   v100
	BYTE	W48
	BYTE		N52     Fs4 
	BYTE	W48
	BYTE	PEND
// 037   ----------------------------------------
SwordsBursting_9_037:
	BYTE		N48     Bn3   v100
	BYTE	W48
	BYTE		        An4 
	BYTE	W48
	BYTE	PEND
// 038   ----------------------------------------
SwordsBursting_9_038:
	BYTE		N16     Gn4   v100
	BYTE	W12
	BYTE		N15     Fs4 
	BYTE	W12
	BYTE		N13     En4 
	BYTE	W12
	BYTE		TIE     Fs4 
	BYTE	W60
	BYTE	PEND
// 039   ----------------------------------------
	BYTE	W56
	BYTE	W02
	BYTE		EOT   
	BYTE	W02
	BYTE		N11     En4 
	BYTE	W12
	BYTE		        Fs4 
	BYTE	W12
	BYTE		TIE     Gn4 
	BYTE	W12
// 040   ----------------------------------------
	BYTE	W92
	BYTE	W03
	BYTE		EOT   
	BYTE	W01
// 041   ----------------------------------------
SwordsBursting_9_041:
	BYTE		N24     Fs4   v100
	BYTE	W24
	BYTE		        En4 
	BYTE	W24
	BYTE		        Dn4 
	BYTE	W24
	BYTE		        En4 
	BYTE	W24
	BYTE	PEND
// 042   ----------------------------------------
	BYTE		TIE     Fs4 
	BYTE	W96
// 043   ----------------------------------------
	BYTE		N44     Bn3 
	BYTE	W02
	BYTE		EOT     Fs4 
	BYTE	W44
	BYTE	W02
	BYTE		N23     Bn3 
	BYTE	W24
	BYTE		        Cs4 
	BYTE	W24
// 044   ----------------------------------------
	BYTE		N80     Dn4 
	BYTE	W96
// 045   ----------------------------------------
SwordsBursting_9_045:
	BYTE		N23     Cs4   v100
	BYTE	W24
	BYTE		        Bn3 
	BYTE	W24
	BYTE		        As3 
	BYTE	W24
	BYTE		        Bn3 
	BYTE	W24
	BYTE	PEND
// 046   ----------------------------------------
	BYTE		TIE     Cs4 
	BYTE	W96
// 047   ----------------------------------------
	BYTE	W12
	BYTE		N11     Fs3 
	BYTE	W05
	BYTE		EOT     Cs4 
	BYTE	W07
	BYTE		N11     Gs3 
	BYTE	W12
	BYTE		        As3 
	BYTE	W12
	BYTE		        Bn3 
	BYTE	W12
	BYTE		        Cs4 
	BYTE	W12
	BYTE		        Dn4 
	BYTE	W12
	BYTE		        En4 
	BYTE	W12
// 048   ----------------------------------------
SwordsBursting_9_048:
	BYTE		N76     Fs4   v100
	BYTE	W72
	BYTE		N23     En4 
	BYTE	W24
	BYTE	PEND
// 049   ----------------------------------------
SwordsBursting_9_049:
	BYTE		N24     An4   v100
	BYTE	W24
	BYTE		        Gn4 
	BYTE	W24
	BYTE		N23     Fs4 
	BYTE	W24
	BYTE		N24     Gn4 
	BYTE	W24
	BYTE	PEND
// 050   ----------------------------------------
	BYTE		N92     Fs4 
	BYTE	W96
// 051   ----------------------------------------
SwordsBursting_9_051:
	BYTE		N40     Bn3   v100
	BYTE	W48
	BYTE		N23   
	BYTE	W24
	BYTE		        Cs4 
	BYTE	W24
	BYTE	PEND
// 052   ----------------------------------------
SwordsBursting_9_052:
	BYTE		N48     Dn4   v104
	BYTE	W48
	BYTE		        Bn3 
	BYTE	W48
	BYTE	PEND
// 053   ----------------------------------------
SwordsBursting_9_053:
	BYTE		N24     En4   v100
	BYTE	W24
	BYTE		N28     Dn4   v096
	BYTE	W24
	BYTE		N24     Cs4 
	BYTE	W24
	BYTE		        Dn4 
	BYTE	W24
	BYTE	PEND
// 054   ----------------------------------------
	BYTE		TIE     Bn3   v100
	BYTE	W96
// 055   ----------------------------------------
	BYTE	W72
	BYTE	W03
	BYTE		EOT   
	BYTE	W21
// 056   ----------------------------------------
	BYTE	PATT
	 POIN2	SwordsBursting_9_016
// 057   ----------------------------------------
	BYTE	PATT
	 POIN2	SwordsBursting_9_017
// 058   ----------------------------------------
	BYTE	W96
// 059   ----------------------------------------
	BYTE	W28
	BYTE		EOT     Dn3 
	BYTE	W08
	BYTE		N30     Bn2   v100
	BYTE	W24
	BYTE		N16     Cs3 
	BYTE	W12
	BYTE		N14     Dn3 
	BYTE	W12
	BYTE		N13     En3 
	BYTE	W12
// 060   ----------------------------------------
	BYTE	PATT
	 POIN2	SwordsBursting_9_020
// 061   ----------------------------------------
	BYTE	PATT
	 POIN2	SwordsBursting_9_021
// 062   ----------------------------------------
	BYTE	PATT
	 POIN2	SwordsBursting_9_022
// 063   ----------------------------------------
	BYTE	W60
	BYTE	W02
	BYTE		EOT     Fs3 
	BYTE	W32
	BYTE	W02
// 064   ----------------------------------------
	BYTE	PATT
	 POIN2	SwordsBursting_9_016
// 065   ----------------------------------------
	BYTE	PATT
	 POIN2	SwordsBursting_9_025
// 066   ----------------------------------------
	BYTE	PATT
	 POIN2	SwordsBursting_9_026
// 067   ----------------------------------------
	BYTE	PATT
	 POIN2	SwordsBursting_9_027
// 068   ----------------------------------------
	BYTE	PATT
	 POIN2	SwordsBursting_9_028
// 069   ----------------------------------------
	BYTE	PATT
	 POIN2	SwordsBursting_9_029
// 070   ----------------------------------------
	BYTE	PATT
	 POIN2	SwordsBursting_9_030
// 071   ----------------------------------------
	BYTE	W52
	BYTE	W01
	BYTE		EOT     Bn3 
	BYTE	W07
	BYTE		N11     Gn3   v100
	BYTE	W12
	BYTE		        An3 
	BYTE	W12
	BYTE		N60     Bn3 
	BYTE	W12
// 072   ----------------------------------------
	BYTE	W48
	BYTE		N52     Fs4 
	BYTE	W48
// 073   ----------------------------------------
	BYTE	PATT
	 POIN2	SwordsBursting_9_033
// 074   ----------------------------------------
	BYTE	PATT
	 POIN2	SwordsBursting_9_034
// 075   ----------------------------------------
	BYTE	W56
	BYTE	W02
	BYTE		EOT     Bn3 
	BYTE	W14
	BYTE		N11     Gn3   v100
	BYTE	W12
	BYTE		        An3 
	BYTE	W12
// 076   ----------------------------------------
	BYTE	PATT
	 POIN2	SwordsBursting_9_036
// 077   ----------------------------------------
	BYTE	PATT
	 POIN2	SwordsBursting_9_037
// 078   ----------------------------------------
	BYTE	PATT
	 POIN2	SwordsBursting_9_038
// 079   ----------------------------------------
	BYTE	W56
	BYTE	W02
	BYTE		EOT     Fs4 
	BYTE	W02
	BYTE		N11     En4   v100
	BYTE	W12
	BYTE		        Fs4 
	BYTE	W12
	BYTE		TIE     Gn4 
	BYTE	W12
// 080   ----------------------------------------
	BYTE	W92
	BYTE	W03
	BYTE		EOT   
	BYTE	W01
// 081   ----------------------------------------
	BYTE	PATT
	 POIN2	SwordsBursting_9_041
// 082   ----------------------------------------
	BYTE		TIE     Fs4   v100
	BYTE	W96
// 083   ----------------------------------------
	BYTE		N44     Bn3 
	BYTE	W02
	BYTE		EOT     Fs4 
	BYTE	W44
	BYTE	W02
	BYTE		N23     Bn3 
	BYTE	W24
	BYTE		        Cs4 
	BYTE	W24
// 084   ----------------------------------------
	BYTE		N80     Dn4 
	BYTE	W96
// 085   ----------------------------------------
	BYTE	PATT
	 POIN2	SwordsBursting_9_045
// 086   ----------------------------------------
	BYTE		TIE     Cs4   v100
	BYTE	W96
// 087   ----------------------------------------
	BYTE	W12
	BYTE		N11     Fs3 
	BYTE	W05
	BYTE		EOT     Cs4 
	BYTE	W07
	BYTE		N11     Gs3 
	BYTE	W12
	BYTE		        As3 
	BYTE	W12
	BYTE		        Bn3 
	BYTE	W12
	BYTE		        Cs4 
	BYTE	W12
	BYTE		        Dn4 
	BYTE	W12
	BYTE		        En4 
	BYTE	W12
// 088   ----------------------------------------
	BYTE	PATT
	 POIN2	SwordsBursting_9_048
// 089   ----------------------------------------
	BYTE	PATT
	 POIN2	SwordsBursting_9_049
// 090   ----------------------------------------
	BYTE		N92     Fs4   v100
	BYTE	W96
// 091   ----------------------------------------
	BYTE	PATT
	 POIN2	SwordsBursting_9_051
// 092   ----------------------------------------
	BYTE	PATT
	 POIN2	SwordsBursting_9_052
// 093   ----------------------------------------
	BYTE	PATT
	 POIN2	SwordsBursting_9_053
// 094   ----------------------------------------
	BYTE		TIE     Bn3   v100
	BYTE	W96
// 095   ----------------------------------------
	BYTE	W72
	BYTE	W03
	BYTE		EOT   
	BYTE	W20
	BYTE	GoTo
	 POIN2	SwordsBursting_9_B1
SwordsBursting_9_B2:
	BYTE	FINE

//**************** Track 10 (Midi-Chn.16) ****************//

SwordsBursting_10:
	BYTE	KEYSH   SwordsBursting_key+0
// 000   ----------------------------------------
	BYTE		VOICE   29
	BYTE		VOL     70*SwordsBursting_mvl/mxv
	BYTE		PAN     c_v-1
	BYTE	W96
// 001   ----------------------------------------
	BYTE	W96
// 002   ----------------------------------------
	BYTE	W96
// 003   ----------------------------------------
	BYTE	W96
// 004   ----------------------------------------
	BYTE	W96
// 005   ----------------------------------------
	BYTE	W96
// 006   ----------------------------------------
	BYTE	W96
// 007   ----------------------------------------
	BYTE	W96
// 008   ----------------------------------------
	BYTE	W96
// 009   ----------------------------------------
	BYTE	W96
// 010   ----------------------------------------
	BYTE	W96
// 011   ----------------------------------------
	BYTE	W96
// 012   ----------------------------------------
	BYTE	W96
// 013   ----------------------------------------
	BYTE	W96
// 014   ----------------------------------------
	BYTE	W96
// 015   ----------------------------------------
	BYTE	W96
SwordsBursting_10_B1:
// 016   ----------------------------------------
	BYTE	W96
// 017   ----------------------------------------
	BYTE	W96
// 018   ----------------------------------------
	BYTE	W96
// 019   ----------------------------------------
	BYTE	W96
// 020   ----------------------------------------
	BYTE	W96
// 021   ----------------------------------------
	BYTE	W96
// 022   ----------------------------------------
	BYTE	W96
// 023   ----------------------------------------
	BYTE	W96
// 024   ----------------------------------------
	BYTE	W96
// 025   ----------------------------------------
	BYTE	W96
// 026   ----------------------------------------
	BYTE	W96
// 027   ----------------------------------------
	BYTE	W96
// 028   ----------------------------------------
	BYTE	W96
// 029   ----------------------------------------
	BYTE	W96
// 030   ----------------------------------------
	BYTE	W96
// 031   ----------------------------------------
	BYTE	W12
	BYTE		N14     Fs1   v072
	BYTE	W12
	BYTE		        An1 
	BYTE	W12
	BYTE		        Bn1 
	BYTE	W12
	BYTE		        Dn2 
	BYTE	W12
	BYTE		        Cs2 
	BYTE	W12
	BYTE		N11     An1 
	BYTE	W12
	BYTE		N11   
	BYTE	W12
// 032   ----------------------------------------
	BYTE		N92     Gn1   v100
	BYTE		N92     Dn2 
	BYTE	W96
// 033   ----------------------------------------
	BYTE		        An1 
	BYTE		N92     En2 
	BYTE	W96
// 034   ----------------------------------------
	BYTE	W96
// 035   ----------------------------------------
SwordsBursting_10_035:
	BYTE	W12
	BYTE		N11     Fs1   v100
	BYTE	W12
	BYTE		        An1 
	BYTE	W12
	BYTE		        Bn1 
	BYTE	W12
	BYTE		        Dn2 
	BYTE	W12
	BYTE		        Cs2 
	BYTE	W12
	BYTE		        An1 
	BYTE	W12
	BYTE		        Fs1 
	BYTE	W12
	BYTE	PEND
// 036   ----------------------------------------
	BYTE		N92     Gn1 
	BYTE		N92     Dn2 
	BYTE	W96
// 037   ----------------------------------------
	BYTE		        An1 
	BYTE		N92     En2 
	BYTE	W96
// 038   ----------------------------------------
	BYTE	W96
// 039   ----------------------------------------
SwordsBursting_10_039:
	BYTE	W12
	BYTE		N11     Fs1   v100
	BYTE	W12
	BYTE		        An1 
	BYTE	W12
	BYTE		        Bn1 
	BYTE	W12
	BYTE		        Dn2 
	BYTE	W12
	BYTE		        Cs2 
	BYTE	W12
	BYTE		        An1 
	BYTE	W12
	BYTE		        Gn1 
	BYTE	W12
	BYTE	PEND
// 040   ----------------------------------------
	BYTE	W96
// 041   ----------------------------------------
	BYTE	W96
// 042   ----------------------------------------
	BYTE	W96
// 043   ----------------------------------------
	BYTE	W96
// 044   ----------------------------------------
	BYTE	W96
// 045   ----------------------------------------
	BYTE	W96
// 046   ----------------------------------------
	BYTE	W96
// 047   ----------------------------------------
	BYTE	W96
// 048   ----------------------------------------
	BYTE	W96
// 049   ----------------------------------------
	BYTE	W96
// 050   ----------------------------------------
	BYTE	W96
// 051   ----------------------------------------
	BYTE	W96
// 052   ----------------------------------------
	BYTE	W96
// 053   ----------------------------------------
	BYTE	W96
// 054   ----------------------------------------
	BYTE	W96
// 055   ----------------------------------------
	BYTE	W96
// 056   ----------------------------------------
	BYTE	W96
// 057   ----------------------------------------
	BYTE	W96
// 058   ----------------------------------------
	BYTE	W96
// 059   ----------------------------------------
	BYTE	W96
// 060   ----------------------------------------
	BYTE	W96
// 061   ----------------------------------------
	BYTE	W96
// 062   ----------------------------------------
	BYTE	W96
// 063   ----------------------------------------
	BYTE	W96
// 064   ----------------------------------------
	BYTE	W96
// 065   ----------------------------------------
	BYTE	W96
// 066   ----------------------------------------
	BYTE	W96
// 067   ----------------------------------------
	BYTE	W96
// 068   ----------------------------------------
	BYTE	W96
// 069   ----------------------------------------
	BYTE	W96
// 070   ----------------------------------------
	BYTE	W96
// 071   ----------------------------------------
	BYTE	W12
	BYTE		N14     Fs1   v072
	BYTE	W12
	BYTE		        An1 
	BYTE	W12
	BYTE		        Bn1 
	BYTE	W12
	BYTE		        Dn2 
	BYTE	W12
	BYTE		        Cs2 
	BYTE	W12
	BYTE		        An1 
	BYTE	W12
	BYTE		        Fs1 
	BYTE	W12
// 072   ----------------------------------------
	BYTE		N92     Gn1   v100
	BYTE		N92     Dn2 
	BYTE	W96
// 073   ----------------------------------------
	BYTE		        An1 
	BYTE		N92     En2 
	BYTE	W96
// 074   ----------------------------------------
	BYTE	W96
// 075   ----------------------------------------
	BYTE	PATT
	 POIN2	SwordsBursting_10_035
// 076   ----------------------------------------
	BYTE		N92     Gn1   v100
	BYTE		N92     Dn2 
	BYTE	W96
// 077   ----------------------------------------
	BYTE		        An1 
	BYTE		N92     En2 
	BYTE	W96
// 078   ----------------------------------------
	BYTE	W96
// 079   ----------------------------------------
	BYTE	PATT
	 POIN2	SwordsBursting_10_039
// 080   ----------------------------------------
	BYTE	W96
// 081   ----------------------------------------
	BYTE	W96
// 082   ----------------------------------------
	BYTE	W96
// 083   ----------------------------------------
	BYTE	W96
// 084   ----------------------------------------
	BYTE	W96
// 085   ----------------------------------------
	BYTE	W96
// 086   ----------------------------------------
	BYTE	W96
// 087   ----------------------------------------
	BYTE	W96
// 088   ----------------------------------------
	BYTE	W96
// 089   ----------------------------------------
	BYTE	W96
// 090   ----------------------------------------
	BYTE	W96
// 091   ----------------------------------------
	BYTE	W96
// 092   ----------------------------------------
	BYTE	W96
// 093   ----------------------------------------
	BYTE	W96
// 094   ----------------------------------------
	BYTE	W96
// 095   ----------------------------------------
	BYTE	W92
	BYTE	W03
	BYTE	GoTo
	 POIN2	SwordsBursting_10_B1
SwordsBursting_10_B2:
	BYTE	FINE

//******************************************************//
	ALIGN 4

SwordsBursting:
	BYTE	10	// NumTrks
	BYTE	0	// NumBlks
	BYTE	SwordsBursting_pri	// Priority
	BYTE	SwordsBursting_rev	// Reverb.

	POIN2	SwordsBursting_grp

	POIN2	SwordsBursting_1
	POIN2	SwordsBursting_2
	POIN2	SwordsBursting_3
	POIN2	SwordsBursting_4
	POIN2	SwordsBursting_5
	POIN2	SwordsBursting_6
	POIN2	SwordsBursting_7
	POIN2	SwordsBursting_8
	POIN2	SwordsBursting_9
	POIN2	SwordsBursting_10

	
