//Event file generated from Sappy .s format.
	#include "MPlayDef.event"

	#define	Trombe_grp  voicegroup000
	#define	Trombe_pri  0
	#define	Trombe_rev  0
	#define	Trombe_mvl  127
	#define	Trombe_key  0
	#define	Trombe_tbs  1
	#define	Trombe_exg  0
	#define	Trombe_cmp  1

	// .rodata
	//	Trombe
	ALIGN 4

//**************** Track 1 (Midi-Chn.1) ****************//

Trombe_1:
	BYTE	KEYSH   Trombe_key+0
Trombe_1_B1:
// 000   ----------------------------------------
	BYTE	TEMPO   174*Trombe_tbs/2
	BYTE		VOICE   57
	BYTE		VOL     80*Trombe_mvl/mxv
	BYTE		PAN     c_v+0
	BYTE		BEND    c_v+0
	BYTE		N11     Fs2   v127
	BYTE	W12
	BYTE		        Bn2 
	BYTE	W12
	BYTE		        Cs3 
	BYTE	W12
	BYTE		        Dn3 
	BYTE	W12
	BYTE		        Bn2 
	BYTE	W12
	BYTE		BEND    c_v-59
	BYTE		N23   
	BYTE		N23     Fs3 
	BYTE	W03
	BYTE		BEND    c_v-47
	BYTE	W01
	BYTE		        c_v-37
	BYTE	W02
	BYTE		        c_v-32
	BYTE	W01
	BYTE		        c_v-18
	BYTE	W01
	BYTE		        c_v-8
	BYTE	W02
	BYTE		        c_v+0
	BYTE	W14
	BYTE		N11     Bn2 
	BYTE		N11     En3 
	BYTE	W12
// 001   ----------------------------------------
	BYTE		N80     Fs2 
	BYTE		N80     Dn3 
	BYTE	W96
// 002   ----------------------------------------
Trombe_1_002:
	BYTE		N11     Bn1   v127
	BYTE		N11     Fs2 
	BYTE	W12
	BYTE		N11   
	BYTE		N11     Bn2 
	BYTE	W12
	BYTE		        Fs2 
	BYTE		N11     Cs3 
	BYTE	W12
	BYTE		        Fs2 
	BYTE		N11     Dn3 
	BYTE	W12
	BYTE		        Dn2 
	BYTE		N11     Bn2 
	BYTE	W12
	BYTE		N23   
	BYTE		N23     Fs3 
	BYTE	W02
	BYTE		BEND    c_v-47
	BYTE	W01
	BYTE		        c_v-37
	BYTE	W02
	BYTE		        c_v-32
	BYTE	W01
	BYTE		        c_v-18
	BYTE	W02
	BYTE		        c_v-8
	BYTE	W01
	BYTE		        c_v+0
	BYTE	W15
	BYTE		N11     Bn2 
	BYTE		N11     En3 
	BYTE	W12
	BYTE	PEND
// 003   ----------------------------------------
	BYTE		N92     Fs2 
	BYTE		N92     Dn3 
	BYTE	W96
// 004   ----------------------------------------
Trombe_1_004:
	BYTE	W24
	BYTE		N10     Fs2   v127
	BYTE		N10     Dn3 
	BYTE	W02
	BYTE		BEND    c_v-47
	BYTE	W01
	BYTE		        c_v-37
	BYTE	W02
	BYTE		        c_v-32
	BYTE	W01
	BYTE		        c_v-18
	BYTE	W02
	BYTE		        c_v-8
	BYTE	W01
	BYTE		        c_v+0
	BYTE	W03
	BYTE		N10     Fs2 
	BYTE		N10     Dn3 
	BYTE	W12
	BYTE		N56     En2 
	BYTE		N56     Cs3 
	BYTE	W48
	BYTE	PEND
// 005   ----------------------------------------
Trombe_1_005:
	BYTE	W24
	BYTE		N10     En2   v127
	BYTE		N10     Cs3 
	BYTE	W02
	BYTE		BEND    c_v-47
	BYTE	W01
	BYTE		        c_v-37
	BYTE	W02
	BYTE		        c_v-32
	BYTE	W01
	BYTE		        c_v-18
	BYTE	W02
	BYTE		        c_v-8
	BYTE	W01
	BYTE		        c_v+0
	BYTE	W03
	BYTE		N10     En2 
	BYTE		N10     Cs3 
	BYTE	W12
	BYTE		        Fs2 
	BYTE		N10     Dn3 
	BYTE	W12
	BYTE		N22     An2 
	BYTE		N22     En3 
	BYTE	W02
	BYTE		BEND    c_v-47
	BYTE	W01
	BYTE		        c_v-37
	BYTE	W02
	BYTE		        c_v-32
	BYTE	W01
	BYTE		        c_v-18
	BYTE	W02
	BYTE		        c_v-8
	BYTE	W01
	BYTE		        c_v+0
	BYTE	W10
	BYTE		        c_v-33
	BYTE	W01
	BYTE		        c_v-51
	BYTE	W02
	BYTE		        c_v-53
	BYTE	W14
	BYTE	PEND
// 006   ----------------------------------------
Trombe_1_006:
	BYTE		N22     En2   v127
	BYTE		N22     Cs3 
	BYTE	W02
	BYTE		BEND    c_v-47
	BYTE	W01
	BYTE		        c_v-37
	BYTE	W02
	BYTE		        c_v-32
	BYTE	W01
	BYTE		        c_v-18
	BYTE	W02
	BYTE		        c_v-8
	BYTE	W01
	BYTE		        c_v+0
	BYTE	W24
	BYTE	W03
	BYTE		N10     Cs2 
	BYTE		N10     An2 
	BYTE	W24
	BYTE		N56     Dn2 
	BYTE		N56     Gn2 
	BYTE	W02
	BYTE		BEND    c_v-47
	BYTE	W01
	BYTE		        c_v-37
	BYTE	W02
	BYTE		        c_v-32
	BYTE	W01
	BYTE		        c_v-18
	BYTE	W02
	BYTE		        c_v-8
	BYTE	W01
	BYTE		        c_v+0
	BYTE	W24
	BYTE	W03
	BYTE	PEND
// 007   ----------------------------------------
Trombe_1_007:
	BYTE	W24
	BYTE		N10     Dn2   v127
	BYTE		N10     An2 
	BYTE	W12
	BYTE		        Dn2 
	BYTE		N10     Gn2 
	BYTE	W12
	BYTE		        Cs2 
	BYTE		N10     Fs2 
	BYTE	W48
	BYTE	PEND
// 008   ----------------------------------------
Trombe_1_008:
	BYTE		N11     Fs2   v127
	BYTE	W12
	BYTE		        Bn2 
	BYTE	W12
	BYTE		        Cs3 
	BYTE	W12
	BYTE		        Dn3 
	BYTE	W12
	BYTE		        Bn2 
	BYTE	W12
	BYTE		BEND    c_v-59
	BYTE		N23   
	BYTE		N23     Fs3 
	BYTE	W03
	BYTE		BEND    c_v-47
	BYTE	W01
	BYTE		        c_v-37
	BYTE	W02
	BYTE		        c_v-32
	BYTE	W01
	BYTE		        c_v-18
	BYTE	W01
	BYTE		        c_v-8
	BYTE	W02
	BYTE		        c_v+0
	BYTE	W14
	BYTE		N11     Bn2 
	BYTE		N11     En3 
	BYTE	W12
	BYTE	PEND
// 009   ----------------------------------------
	BYTE		N80     Fs2 
	BYTE		N80     Dn3 
	BYTE	W96
// 010   ----------------------------------------
	BYTE	PATT
	 POIN2	Trombe_1_002
// 011   ----------------------------------------
	BYTE		N92     Fs2   v127
	BYTE		N92     Dn3 
	BYTE	W96
// 012   ----------------------------------------
	BYTE	PATT
	 POIN2	Trombe_1_004
// 013   ----------------------------------------
Trombe_1_013:
	BYTE	W24
	BYTE		N10     En2   v127
	BYTE		N10     Cs3 
	BYTE	W02
	BYTE		BEND    c_v-47
	BYTE	W01
	BYTE		        c_v-37
	BYTE	W02
	BYTE		        c_v-32
	BYTE	W01
	BYTE		        c_v-18
	BYTE	W02
	BYTE		        c_v-8
	BYTE	W01
	BYTE		        c_v+0
	BYTE	W03
	BYTE		N10     En2 
	BYTE		N10     Cs3 
	BYTE	W12
	BYTE		        Fs2 
	BYTE		N10     Dn3 
	BYTE	W12
	BYTE		N22     An2 
	BYTE		N22     En3 
	BYTE	W02
	BYTE		BEND    c_v-47
	BYTE	W01
	BYTE		        c_v-37
	BYTE	W02
	BYTE		        c_v-32
	BYTE	W01
	BYTE		        c_v-18
	BYTE	W02
	BYTE		        c_v-8
	BYTE	W01
	BYTE		        c_v+0
	BYTE	W10
	BYTE		        c_v-33
	BYTE	W01
	BYTE		        c_v-51
	BYTE	W02
	BYTE		        c_v-53
	BYTE	W08
	BYTE		        c_v-37
	BYTE	W02
	BYTE		        c_v-32
	BYTE	W02
	BYTE		        c_v-18
	BYTE	W01
	BYTE		        c_v-8
	BYTE	W01
	BYTE	PEND
// 014   ----------------------------------------
Trombe_1_014:
	BYTE		N22     An2   v127
	BYTE		N22     Dn3 
	BYTE	W01
	BYTE		BEND    c_v+0
	BYTE	W32
	BYTE	W03
	BYTE		N10     An2 
	BYTE		N10     Cs3 
	BYTE	W24
	BYTE		N12     Fs2 
	BYTE		N12     Cs3 
	BYTE	W12
	BYTE		N84     Dn2 
	BYTE		N84     Bn2 
	BYTE	W24
	BYTE	PEND
// 015   ----------------------------------------
	BYTE	W96
// 016   ----------------------------------------
Trombe_1_016:
	BYTE	W56
	BYTE	W03
	BYTE		BEND    c_v-63
	BYTE	W01
	BYTE		        c_v-53
	BYTE		N44     Bn2   v080
	BYTE		N44     Gn3 
	BYTE	W01
	BYTE		BEND    c_v-43
	BYTE	W02
	BYTE		        c_v-30
	BYTE	W03
	BYTE		        c_v-14
	BYTE	W02
	BYTE		        c_v-8
	BYTE	W01
	BYTE		        c_v-2
	BYTE	W01
	BYTE		        c_v+0
	BYTE	W24
	BYTE	W02
	BYTE	PEND
// 017   ----------------------------------------
Trombe_1_017:
	BYTE	W24
	BYTE		N11     Bn2   v080
	BYTE		N11     Gn3 
	BYTE	W12
	BYTE		        Bn2 
	BYTE		N11     Gn3 
	BYTE	W12
	BYTE		BEND    c_v-53
	BYTE		N32     Gn2 
	BYTE		N32     En3 
	BYTE	W02
	BYTE		BEND    c_v-43
	BYTE	W02
	BYTE		        c_v-30
	BYTE	W02
	BYTE		        c_v-14
	BYTE	W02
	BYTE		        c_v-8
	BYTE	W01
	BYTE		        c_v-2
	BYTE	W02
	BYTE		        c_v+0
	BYTE	W36
	BYTE	W01
	BYTE	PEND
// 018   ----------------------------------------
Trombe_1_018:
	BYTE		BEND    c_v-53
	BYTE		N23     Bn2   v080
	BYTE		N23     Gn3 
	BYTE	W02
	BYTE		BEND    c_v-43
	BYTE	W02
	BYTE		        c_v-30
	BYTE	W02
	BYTE		        c_v-14
	BYTE	W02
	BYTE		        c_v-8
	BYTE	W01
	BYTE		        c_v-2
	BYTE	W02
	BYTE		        c_v+0
	BYTE	W24
	BYTE	W01
	BYTE		        c_v-53
	BYTE		N23     Bn2 
	BYTE		N23     Gn3 
	BYTE	W02
	BYTE		BEND    c_v-43
	BYTE	W02
	BYTE		        c_v-30
	BYTE	W02
	BYTE		        c_v-14
	BYTE	W02
	BYTE		        c_v-8
	BYTE	W01
	BYTE		        c_v-2
	BYTE	W02
	BYTE		        c_v+0
	BYTE	W13
	BYTE		        c_v-53
	BYTE		N32     An2 
	BYTE		N32     Fs3 
	BYTE	W02
	BYTE		BEND    c_v-43
	BYTE	W02
	BYTE		        c_v-30
	BYTE	W02
	BYTE		        c_v-14
	BYTE	W02
	BYTE		        c_v-8
	BYTE	W01
	BYTE		        c_v-2
	BYTE	W02
	BYTE		        c_v+0
	BYTE	W24
	BYTE	W01
	BYTE	PEND
// 019   ----------------------------------------
Trombe_1_019:
	BYTE		N32     Gn2   v080
	BYTE		N32     En3 
	BYTE	W36
	BYTE		N40     Fs2 
	BYTE		N40     Dn3 
	BYTE	W60
	BYTE	PEND
// 020   ----------------------------------------
Trombe_1_020:
	BYTE	W12
	BYTE		N11     Bn2   v080
	BYTE		N11     Fs3 
	BYTE	W24
	BYTE		N23     Bn2 
	BYTE		N23     Fs3 
	BYTE	W24
	BYTE		BEND    c_v-53
	BYTE		N44     Gn2 
	BYTE		N44     En3 
	BYTE	W02
	BYTE		BEND    c_v-43
	BYTE	W02
	BYTE		        c_v-30
	BYTE	W02
	BYTE		        c_v-14
	BYTE	W02
	BYTE		        c_v-8
	BYTE	W01
	BYTE		        c_v-2
	BYTE	W02
	BYTE		        c_v+0
	BYTE	W24
	BYTE	W01
	BYTE	PEND
// 021   ----------------------------------------
Trombe_1_021:
	BYTE	W24
	BYTE		N11     Gn2   v080
	BYTE		N11     En3 
	BYTE	W12
	BYTE		        Gn2 
	BYTE		N11     En3 
	BYTE	W12
	BYTE		BEND    c_v-53
	BYTE		N32     As2 
	BYTE		N32     Fs3 
	BYTE	W02
	BYTE		BEND    c_v-43
	BYTE	W02
	BYTE		        c_v-30
	BYTE	W02
	BYTE		        c_v-14
	BYTE	W02
	BYTE		        c_v-8
	BYTE	W01
	BYTE		        c_v-2
	BYTE	W02
	BYTE		        c_v+0
	BYTE	W36
	BYTE	W01
	BYTE	PEND
// 022   ----------------------------------------
Trombe_1_022:
	BYTE	W12
	BYTE		N11     As2   v080
	BYTE		N11     Fs3 
	BYTE	W24
	BYTE		N23     As2 
	BYTE		N23     Fs3 
	BYTE	W24
	BYTE		BEND    c_v-53
	BYTE		N23     Dn3 
	BYTE		N23     Bn3 
	BYTE	W02
	BYTE		BEND    c_v-43
	BYTE	W02
	BYTE		        c_v-30
	BYTE	W02
	BYTE		        c_v-14
	BYTE	W02
	BYTE		        c_v-8
	BYTE	W01
	BYTE		        c_v-2
	BYTE	W02
	BYTE		        c_v+0
	BYTE	W24
	BYTE	W01
	BYTE	PEND
// 023   ----------------------------------------
Trombe_1_023:
	BYTE		N23     En3   v080
	BYTE		N23     Cs4 
	BYTE	W13
	BYTE		BEND    c_v-12
	BYTE	W06
	BYTE		        c_v-20
	BYTE	W04
	BYTE		        c_v-28
	BYTE	W03
	BYTE		        c_v-37
	BYTE	W03
	BYTE		        c_v-45
	BYTE	W07
	BYTE		        c_v-53
	BYTE		N23     Fs3 
	BYTE		N23     Dn4 
	BYTE	W01
	BYTE		BEND    c_v-53
	BYTE	W01
	BYTE		        c_v-43
	BYTE	W02
	BYTE		        c_v-30
	BYTE	W02
	BYTE		        c_v-14
	BYTE	W02
	BYTE		        c_v-8
	BYTE	W01
	BYTE		        c_v-2
	BYTE	W02
	BYTE		        c_v+0
	BYTE	W36
	BYTE	W01
	BYTE		N24     Dn3   v127
	BYTE		N24     Bn3 
	BYTE	W02
	BYTE		BEND    c_v-63
	BYTE	W02
	BYTE		        c_v-49
	BYTE	W04
	BYTE		        c_v-30
	BYTE	W02
	BYTE		        c_v-12
	BYTE	W02
	BYTE	PEND
// 024   ----------------------------------------
Trombe_1_024:
	BYTE		BEND    c_v+0
	BYTE	W12
	BYTE		N24     Cs3   v127
	BYTE		N24     An3 
	BYTE	W24
	BYTE		        An2 
	BYTE		N24     Fs3 
	BYTE	W24
	BYTE		N48     Bn2 
	BYTE		N48     Gn3 
	BYTE	W36
	BYTE	PEND
// 025   ----------------------------------------
Trombe_1_025:
	BYTE	W24
	BYTE		N12     Bn2   v127
	BYTE		N12     Gn3 
	BYTE	W12
	BYTE		        Fs3 
	BYTE		N12     Dn4 
	BYTE	W01
	BYTE		BEND    c_v-49
	BYTE	W04
	BYTE		        c_v-30
	BYTE	W02
	BYTE		        c_v-12
	BYTE	W02
	BYTE		        c_v+0
	BYTE	W03
	BYTE		N36     En3 
	BYTE		N36     Cs4 
	BYTE	W36
	BYTE		N12     Fs3 
	BYTE		N12     Dn4 
	BYTE	W12
	BYTE	PEND
// 026   ----------------------------------------
Trombe_1_026:
	BYTE		N24     Gn3   v127
	BYTE		N24     En4 
	BYTE	W24
	BYTE		        Cs3 
	BYTE		N24     An3 
	BYTE	W24
	BYTE		N36     Cs4 
	BYTE		N36     Fs4 
	BYTE	W01
	BYTE		BEND    c_v-49
	BYTE	W04
	BYTE		        c_v-30
	BYTE	W02
	BYTE		        c_v-12
	BYTE	W02
	BYTE		        c_v+0
	BYTE	W24
	BYTE	W03
	BYTE		N12     Cs4 
	BYTE		N12     Gn4 
	BYTE	W12
	BYTE	PEND
// 027   ----------------------------------------
Trombe_1_027:
	BYTE		N24     Cs4   v127
	BYTE		N24     Fs4 
	BYTE	W24
	BYTE		        Cs4 
	BYTE		N24     En4 
	BYTE	W24
	BYTE		N36     Bn3 
	BYTE		N36     Dn4 
	BYTE	W48
	BYTE	PEND
// 028   ----------------------------------------
Trombe_1_028:
	BYTE		N12     Bn3   v127
	BYTE		N12     Dn4 
	BYTE	W12
	BYTE		N17     An3 
	BYTE		N17     Cs4 
	BYTE	W18
	BYTE		N18     En3 
	BYTE		N18     Bn3 
	BYTE	W18
	BYTE		N12     Cs3 
	BYTE		N12     An3 
	BYTE	W12
	BYTE		N96     Dn3 
	BYTE		N96     Bn3 
	BYTE	W01
	BYTE		BEND    c_v-49
	BYTE	W04
	BYTE		        c_v-30
	BYTE	W02
	BYTE		        c_v-12
	BYTE	W02
	BYTE		        c_v+0
	BYTE	W24
	BYTE	W03
	BYTE	PEND
// 029   ----------------------------------------
Trombe_1_029:
	BYTE	W84
	BYTE		N24     Dn3   v127
	BYTE		N24     Bn3 
	BYTE	W01
	BYTE		BEND    c_v-49
	BYTE	W04
	BYTE		        c_v-30
	BYTE	W02
	BYTE		        c_v-12
	BYTE	W02
	BYTE		        c_v+0
	BYTE	W03
	BYTE	PEND
// 030   ----------------------------------------
Trombe_1_030:
	BYTE	W12
	BYTE		N17     Dn3   v127
	BYTE		N17     Bn3 
	BYTE	W18
	BYTE		N18   
	BYTE		N17     Fs4 
	BYTE	W01
	BYTE		BEND    c_v-49
	BYTE	W04
	BYTE		        c_v-30
	BYTE	W02
	BYTE		        c_v-12
	BYTE	W02
	BYTE		        c_v+0
	BYTE	W04
	BYTE		        c_v-14
	BYTE	W03
	BYTE		        c_v-30
	BYTE	W01
	BYTE		        c_v-41
	BYTE	W01
	BYTE		N12     Gn3 
	BYTE		N12     Dn4 
	BYTE	W01
	BYTE		BEND    c_v-49
	BYTE	W04
	BYTE		        c_v-30
	BYTE	W02
	BYTE		        c_v-12
	BYTE	W02
	BYTE		        c_v+0
	BYTE	W03
	BYTE		N48     An3 
	BYTE		N48     En4 
	BYTE	W36
	BYTE	PEND
// 031   ----------------------------------------
Trombe_1_031:
	BYTE	W24
	BYTE		N12     Gn3   v127
	BYTE		N12     En4 
	BYTE	W01
	BYTE		BEND    c_v-49
	BYTE	W04
	BYTE		        c_v-30
	BYTE	W02
	BYTE		        c_v-12
	BYTE	W02
	BYTE		        c_v+0
	BYTE	W03
	BYTE		N12     Fs3 
	BYTE		N12     Dn4 
	BYTE	W12
	BYTE		        En3 
	BYTE		N12     Cs4 
	BYTE	W48
	BYTE	PEND
// 032   ----------------------------------------
	BYTE	W96
// 033   ----------------------------------------
	BYTE	W96
// 034   ----------------------------------------
	BYTE	W96
// 035   ----------------------------------------
	BYTE	W96
// 036   ----------------------------------------
	BYTE	W96
// 037   ----------------------------------------
	BYTE	W96
// 038   ----------------------------------------
	BYTE	W96
// 039   ----------------------------------------
	BYTE	W96
// 040   ----------------------------------------
	BYTE	W96
// 041   ----------------------------------------
	BYTE	W96
// 042   ----------------------------------------
	BYTE	W96
// 043   ----------------------------------------
	BYTE	W96
// 044   ----------------------------------------
	BYTE	W96
// 045   ----------------------------------------
	BYTE	W96
// 046   ----------------------------------------
	BYTE	W96
// 047   ----------------------------------------
	BYTE	W96
// 048   ----------------------------------------
	BYTE	PATT
	 POIN2	Trombe_1_008
// 049   ----------------------------------------
	BYTE		N80     Fs2   v127
	BYTE		N80     Dn3 
	BYTE	W96
// 050   ----------------------------------------
	BYTE	PATT
	 POIN2	Trombe_1_002
// 051   ----------------------------------------
	BYTE		N92     Fs2   v127
	BYTE		N92     Dn3 
	BYTE	W96
// 052   ----------------------------------------
	BYTE	PATT
	 POIN2	Trombe_1_004
// 053   ----------------------------------------
	BYTE	PATT
	 POIN2	Trombe_1_005
// 054   ----------------------------------------
	BYTE	PATT
	 POIN2	Trombe_1_006
// 055   ----------------------------------------
	BYTE	PATT
	 POIN2	Trombe_1_007
// 056   ----------------------------------------
	BYTE	PATT
	 POIN2	Trombe_1_008
// 057   ----------------------------------------
	BYTE		N80     Fs2   v127
	BYTE		N80     Dn3 
	BYTE	W96
// 058   ----------------------------------------
	BYTE	PATT
	 POIN2	Trombe_1_002
// 059   ----------------------------------------
	BYTE		N92     Fs2   v127
	BYTE		N92     Dn3 
	BYTE	W96
// 060   ----------------------------------------
	BYTE	PATT
	 POIN2	Trombe_1_004
// 061   ----------------------------------------
	BYTE	PATT
	 POIN2	Trombe_1_013
// 062   ----------------------------------------
	BYTE	PATT
	 POIN2	Trombe_1_014
// 063   ----------------------------------------
	BYTE	W96
// 064   ----------------------------------------
	BYTE	PATT
	 POIN2	Trombe_1_016
// 065   ----------------------------------------
	BYTE	PATT
	 POIN2	Trombe_1_017
// 066   ----------------------------------------
	BYTE	PATT
	 POIN2	Trombe_1_018
// 067   ----------------------------------------
	BYTE	PATT
	 POIN2	Trombe_1_019
// 068   ----------------------------------------
	BYTE	PATT
	 POIN2	Trombe_1_020
// 069   ----------------------------------------
	BYTE	PATT
	 POIN2	Trombe_1_021
// 070   ----------------------------------------
	BYTE	PATT
	 POIN2	Trombe_1_022
// 071   ----------------------------------------
	BYTE	PATT
	 POIN2	Trombe_1_023
// 072   ----------------------------------------
	BYTE	PATT
	 POIN2	Trombe_1_024
// 073   ----------------------------------------
	BYTE	PATT
	 POIN2	Trombe_1_025
// 074   ----------------------------------------
	BYTE	PATT
	 POIN2	Trombe_1_026
// 075   ----------------------------------------
	BYTE	PATT
	 POIN2	Trombe_1_027
// 076   ----------------------------------------
	BYTE	PATT
	 POIN2	Trombe_1_028
// 077   ----------------------------------------
	BYTE	PATT
	 POIN2	Trombe_1_029
// 078   ----------------------------------------
	BYTE	PATT
	 POIN2	Trombe_1_030
// 079   ----------------------------------------
	BYTE	PATT
	 POIN2	Trombe_1_031
// 080   ----------------------------------------
	BYTE	W96
// 081   ----------------------------------------
	BYTE	W96
// 082   ----------------------------------------
	BYTE	W96
// 083   ----------------------------------------
	BYTE	W96
// 084   ----------------------------------------
	BYTE	W96
// 085   ----------------------------------------
	BYTE	W96
// 086   ----------------------------------------
	BYTE	W96
// 087   ----------------------------------------
	BYTE	W96
// 088   ----------------------------------------
	BYTE	W96
// 089   ----------------------------------------
	BYTE	W96
// 090   ----------------------------------------
	BYTE	W96
// 091   ----------------------------------------
	BYTE	W96
// 092   ----------------------------------------
	BYTE	W96
// 093   ----------------------------------------
	BYTE	W96
// 094   ----------------------------------------
	BYTE	W96
// 095   ----------------------------------------
	BYTE	W72
	BYTE	GoTo
	 POIN2	Trombe_1_B1
Trombe_1_B2:
	BYTE	W24
// 096   ----------------------------------------
	BYTE	W60
	BYTE	FINE

//**************** Track 2 (Midi-Chn.2) ****************//

Trombe_2:
	BYTE	KEYSH   Trombe_key+0
Trombe_2_B1:
// 000   ----------------------------------------
	BYTE		VOICE   28
	BYTE		VOL     37*Trombe_mvl/mxv
	BYTE		PAN     c_v+0
	BYTE	W60
	BYTE		N11     Bn1   v127
	BYTE	W12
	BYTE		N11   
	BYTE	W12
	BYTE		N11   
	BYTE	W12
// 001   ----------------------------------------
Trombe_2_001:
	BYTE		N11     Bn1   v127
	BYTE	W12
	BYTE		N11   
	BYTE	W12
	BYTE		N11   
	BYTE	W12
	BYTE		N11   
	BYTE	W12
	BYTE		N11   
	BYTE	W12
	BYTE		N11   
	BYTE	W12
	BYTE		N11   
	BYTE	W12
	BYTE		N11   
	BYTE	W12
	BYTE	PEND
// 002   ----------------------------------------
Trombe_2_002:
	BYTE		N11     Bn1   v127
	BYTE	W12
	BYTE		N11   
	BYTE	W12
	BYTE		        Fs1 
	BYTE	W12
	BYTE		        Bn1 
	BYTE	W12
	BYTE		        An1 
	BYTE	W12
	BYTE		        Gn1 
	BYTE	W12
	BYTE		N11   
	BYTE	W12
	BYTE		N11   
	BYTE	W12
	BYTE	PEND
// 003   ----------------------------------------
Trombe_2_003:
	BYTE		N11     Gn1   v127
	BYTE	W12
	BYTE		N11   
	BYTE	W12
	BYTE		N11   
	BYTE	W12
	BYTE		N11   
	BYTE	W12
	BYTE		N11   
	BYTE	W12
	BYTE		N11   
	BYTE	W12
	BYTE		N11   
	BYTE	W12
	BYTE		N11   
	BYTE	W12
	BYTE	PEND
// 004   ----------------------------------------
Trombe_2_004:
	BYTE		N11     Gn1   v127
	BYTE	W12
	BYTE		N11   
	BYTE	W12
	BYTE		        Dn1 
	BYTE	W12
	BYTE		        Gn1 
	BYTE	W12
	BYTE		        Gs1 
	BYTE	W12
	BYTE		        An1 
	BYTE	W12
	BYTE		N11   
	BYTE	W12
	BYTE		N11   
	BYTE	W12
	BYTE	PEND
// 005   ----------------------------------------
Trombe_2_005:
	BYTE		N11     An1   v127
	BYTE	W12
	BYTE		N11   
	BYTE	W12
	BYTE		N11   
	BYTE	W12
	BYTE		N11   
	BYTE	W12
	BYTE		N11   
	BYTE	W12
	BYTE		N11   
	BYTE	W12
	BYTE		N11   
	BYTE	W12
	BYTE		N11   
	BYTE	W12
	BYTE	PEND
// 006   ----------------------------------------
Trombe_2_006:
	BYTE		N11     An1   v127
	BYTE	W12
	BYTE		N11   
	BYTE	W12
	BYTE		        En1 
	BYTE	W12
	BYTE		        An1 
	BYTE	W12
	BYTE		        Cs2 
	BYTE	W12
	BYTE		        Dn2 
	BYTE	W12
	BYTE		N11   
	BYTE	W12
	BYTE		N11   
	BYTE	W12
	BYTE	PEND
// 007   ----------------------------------------
Trombe_2_007:
	BYTE		N11     Dn2   v127
	BYTE	W12
	BYTE		N11   
	BYTE	W12
	BYTE		N11   
	BYTE	W12
	BYTE		        Dn1 
	BYTE	W12
	BYTE		        En1 
	BYTE	W12
	BYTE		        Fs1 
	BYTE	W36
	BYTE	PEND
// 008   ----------------------------------------
Trombe_2_008:
	BYTE	W60
	BYTE		N11     Bn1   v127
	BYTE	W12
	BYTE		N11   
	BYTE	W12
	BYTE		N11   
	BYTE	W12
	BYTE	PEND
// 009   ----------------------------------------
	BYTE	PATT
	 POIN2	Trombe_2_001
// 010   ----------------------------------------
Trombe_2_010:
	BYTE		N11     Bn1   v127
	BYTE	W12
	BYTE		N11   
	BYTE	W12
	BYTE		N11   
	BYTE	W12
	BYTE		N11   
	BYTE	W12
	BYTE		N11   
	BYTE	W12
	BYTE		        Gn1 
	BYTE	W12
	BYTE		N11   
	BYTE	W12
	BYTE		N11   
	BYTE	W12
	BYTE	PEND
// 011   ----------------------------------------
	BYTE	PATT
	 POIN2	Trombe_2_003
// 012   ----------------------------------------
Trombe_2_012:
	BYTE		N11     Gn1   v127
	BYTE	W12
	BYTE		N11   
	BYTE	W12
	BYTE		N11   
	BYTE	W12
	BYTE		N11   
	BYTE	W12
	BYTE		N11   
	BYTE	W12
	BYTE		        En1 
	BYTE	W12
	BYTE		N11   
	BYTE	W12
	BYTE		N11   
	BYTE	W12
	BYTE	PEND
// 013   ----------------------------------------
Trombe_2_013:
	BYTE		N11     En1   v127
	BYTE	W12
	BYTE		N11   
	BYTE	W12
	BYTE		N11   
	BYTE	W12
	BYTE		N11   
	BYTE	W12
	BYTE		N11   
	BYTE	W12
	BYTE		        Fs1 
	BYTE	W12
	BYTE		N11   
	BYTE	W12
	BYTE		N11   
	BYTE	W12
	BYTE	PEND
// 014   ----------------------------------------
Trombe_2_014:
	BYTE		N11     Fs1   v127
	BYTE	W12
	BYTE		N11   
	BYTE	W12
	BYTE		N11   
	BYTE	W12
	BYTE		N11   
	BYTE	W12
	BYTE		N11   
	BYTE	W12
	BYTE		        Bn1 
	BYTE	W12
	BYTE		N11   
	BYTE	W12
	BYTE		N11   
	BYTE	W12
	BYTE	PEND
// 015   ----------------------------------------
Trombe_2_015:
	BYTE		N11     Bn1   v127
	BYTE	W12
	BYTE		N11   
	BYTE	W12
	BYTE		        Fs1 
	BYTE	W12
	BYTE		        An1 
	BYTE	W12
	BYTE		        Bn1 
	BYTE	W48
	BYTE	PEND
// 016   ----------------------------------------
	BYTE	W60
	BYTE		N28     En1 
	BYTE	W36
// 017   ----------------------------------------
Trombe_2_017:
	BYTE		N11     En1   v127
	BYTE	W12
	BYTE		N36   
	BYTE	W48
	BYTE		N28     An1 
	BYTE	W36
	BYTE	PEND
// 018   ----------------------------------------
Trombe_2_018:
	BYTE		N11     An1   v127
	BYTE	W12
	BYTE		N36   
	BYTE	W48
	BYTE		N28     Dn1 
	BYTE	W36
	BYTE	PEND
// 019   ----------------------------------------
Trombe_2_019:
	BYTE		N11     Dn1   v127
	BYTE	W12
	BYTE		N36   
	BYTE	W48
	BYTE		N28     Gn1 
	BYTE	W36
	BYTE	PEND
// 020   ----------------------------------------
Trombe_2_020:
	BYTE		N11     Gn1   v127
	BYTE	W12
	BYTE		N36   
	BYTE	W48
	BYTE		N28     Cs1 
	BYTE	W36
	BYTE	PEND
// 021   ----------------------------------------
Trombe_2_021:
	BYTE		N11     Cs1   v127
	BYTE	W12
	BYTE		N36   
	BYTE	W48
	BYTE		N28     Fs1 
	BYTE	W36
	BYTE	PEND
// 022   ----------------------------------------
Trombe_2_022:
	BYTE		N11     Fs1   v127
	BYTE	W12
	BYTE		N36   
	BYTE	W48
	BYTE		N12     Bn0 
	BYTE	W12
	BYTE		N11     Bn1 
	BYTE	W12
	BYTE		N11   
	BYTE	W12
	BYTE	PEND
// 023   ----------------------------------------
Trombe_2_023:
	BYTE		N12     Cs1   v127
	BYTE	W12
	BYTE		N11     Cs2 
	BYTE	W12
	BYTE		N11   
	BYTE	W12
	BYTE		N12     Dn1 
	BYTE	W12
	BYTE		N11     Dn2 
	BYTE	W12
	BYTE		N12     Dn1 
	BYTE	W12
	BYTE		N11     Dn2 
	BYTE	W12
	BYTE		        Ds1 
	BYTE	W12
	BYTE	PEND
// 024   ----------------------------------------
Trombe_2_024:
	BYTE		N11     Ds1   v127
	BYTE	W12
	BYTE		N11   
	BYTE	W12
	BYTE		N11   
	BYTE	W12
	BYTE		N11   
	BYTE	W12
	BYTE		N11   
	BYTE	W12
	BYTE		        En1 
	BYTE	W12
	BYTE		N11   
	BYTE	W12
	BYTE		N11   
	BYTE	W12
	BYTE	PEND
// 025   ----------------------------------------
Trombe_2_025:
	BYTE		N11     En1   v127
	BYTE	W12
	BYTE		N11   
	BYTE	W12
	BYTE		N11   
	BYTE	W12
	BYTE		N11   
	BYTE	W12
	BYTE		N11   
	BYTE	W12
	BYTE		        An1 
	BYTE	W12
	BYTE		N11   
	BYTE	W12
	BYTE		N11   
	BYTE	W12
	BYTE	PEND
// 026   ----------------------------------------
Trombe_2_026:
	BYTE		N11     An1   v127
	BYTE	W12
	BYTE		N11   
	BYTE	W12
	BYTE		N11   
	BYTE	W12
	BYTE		N11   
	BYTE	W12
	BYTE		N11   
	BYTE	W12
	BYTE		        As1 
	BYTE	W12
	BYTE		N11   
	BYTE	W12
	BYTE		N11   
	BYTE	W12
	BYTE	PEND
// 027   ----------------------------------------
Trombe_2_027:
	BYTE		N11     As1   v127
	BYTE	W12
	BYTE		N11   
	BYTE	W12
	BYTE		N11   
	BYTE	W12
	BYTE		N11   
	BYTE	W12
	BYTE		N11   
	BYTE	W12
	BYTE		        Bn1 
	BYTE	W12
	BYTE		N11   
	BYTE	W12
	BYTE		N11   
	BYTE	W12
	BYTE	PEND
// 028   ----------------------------------------
Trombe_2_028:
	BYTE		N11     Bn1   v127
	BYTE	W12
	BYTE		        An1 
	BYTE	W12
	BYTE		N11   
	BYTE	W12
	BYTE		N11   
	BYTE	W12
	BYTE		N11   
	BYTE	W12
	BYTE		        Gn1 
	BYTE	W12
	BYTE		N11   
	BYTE	W12
	BYTE		N11   
	BYTE	W12
	BYTE	PEND
// 029   ----------------------------------------
	BYTE	PATT
	 POIN2	Trombe_2_003
// 030   ----------------------------------------
Trombe_2_030:
	BYTE		N11     Gn1   v127
	BYTE	W12
	BYTE		N11   
	BYTE	W12
	BYTE		N11   
	BYTE	W12
	BYTE		N11   
	BYTE	W12
	BYTE		N11   
	BYTE	W12
	BYTE		        An1 
	BYTE	W12
	BYTE		N11   
	BYTE	W12
	BYTE		N11   
	BYTE	W12
	BYTE	PEND
// 031   ----------------------------------------
Trombe_2_031:
	BYTE		N11     An1   v127
	BYTE	W12
	BYTE		N11   
	BYTE	W12
	BYTE		        En1 
	BYTE	W12
	BYTE		        Gn1 
	BYTE	W12
	BYTE		        An1 
	BYTE	W48
	BYTE	PEND
// 032   ----------------------------------------
Trombe_2_032:
	BYTE	W32
	BYTE	W03
	BYTE		BEND    c_v-64
	BYTE	W01
	BYTE		N24     Fs1   v127
	BYTE	W01
	BYTE		BEND    c_v-57
	BYTE	W02
	BYTE		        c_v-35
	BYTE	W01
	BYTE		        c_v-22
	BYTE	W02
	BYTE		        c_v-2
	BYTE	W01
	BYTE		        c_v+5
	BYTE	W01
	BYTE		        c_v+32
	BYTE	W01
	BYTE		        c_v+46
	BYTE	W03
	BYTE		        c_v+62
	BYTE	W02
	BYTE		        c_v+19
	BYTE	W02
	BYTE		        c_v+11
	BYTE	W01
	BYTE		        c_v-4
	BYTE	W01
	BYTE		        c_v-12
	BYTE	W01
	BYTE		        c_v-24
	BYTE	W01
	BYTE		        c_v-33
	BYTE	W01
	BYTE		        c_v-55
	BYTE	W01
	BYTE		        c_v-59
	BYTE	W02
	BYTE		        c_v+0
	BYTE		N11     As1 
	BYTE	W12
	BYTE		N11   
	BYTE	W12
	BYTE		N11   
	BYTE	W12
	BYTE	PEND
// 033   ----------------------------------------
Trombe_2_033:
	BYTE		N11     As1   v127
	BYTE	W12
	BYTE		N11   
	BYTE	W12
	BYTE		N11   
	BYTE	W12
	BYTE		N11   
	BYTE	W12
	BYTE		N11   
	BYTE	W12
	BYTE		        Cn2 
	BYTE	W12
	BYTE		N11   
	BYTE	W12
	BYTE		N11   
	BYTE	W12
	BYTE	PEND
// 034   ----------------------------------------
Trombe_2_034:
	BYTE		N11     Cn2   v127
	BYTE	W12
	BYTE		N11   
	BYTE	W12
	BYTE		N11   
	BYTE	W12
	BYTE		N11   
	BYTE	W12
	BYTE		N11   
	BYTE	W12
	BYTE		        Dn2 
	BYTE	W12
	BYTE		N11   
	BYTE	W12
	BYTE		N11   
	BYTE	W12
	BYTE	PEND
// 035   ----------------------------------------
Trombe_2_035:
	BYTE		N11     Dn2   v127
	BYTE	W12
	BYTE		N11   
	BYTE	W12
	BYTE		N11   
	BYTE	W12
	BYTE		N11   
	BYTE	W12
	BYTE		N11   
	BYTE	W12
	BYTE		        Cn2 
	BYTE	W12
	BYTE		N11   
	BYTE	W12
	BYTE		N11   
	BYTE	W12
	BYTE	PEND
// 036   ----------------------------------------
Trombe_2_036:
	BYTE		N11     Cn2   v127
	BYTE	W12
	BYTE		N11   
	BYTE	W12
	BYTE		N11   
	BYTE	W12
	BYTE		N11   
	BYTE	W12
	BYTE		N11   
	BYTE	W12
	BYTE		        As1 
	BYTE	W12
	BYTE		N11   
	BYTE	W12
	BYTE		N11   
	BYTE	W12
	BYTE	PEND
// 037   ----------------------------------------
	BYTE	PATT
	 POIN2	Trombe_2_033
// 038   ----------------------------------------
Trombe_2_038:
	BYTE		N11     Cn2   v127
	BYTE	W12
	BYTE		N11   
	BYTE	W12
	BYTE		N11   
	BYTE	W12
	BYTE		N11   
	BYTE	W12
	BYTE		N11   
	BYTE	W12
	BYTE		        Fn1 
	BYTE	W12
	BYTE		N11   
	BYTE	W12
	BYTE		N11   
	BYTE	W12
	BYTE	PEND
// 039   ----------------------------------------
Trombe_2_039:
	BYTE		N11     Fn1   v127
	BYTE	W12
	BYTE		N11   
	BYTE	W12
	BYTE		N11   
	BYTE	W12
	BYTE		N11   
	BYTE	W12
	BYTE		N11   
	BYTE	W12
	BYTE		        An1 
	BYTE	W12
	BYTE		N11   
	BYTE	W12
	BYTE		N11   
	BYTE	W12
	BYTE	PEND
// 040   ----------------------------------------
	BYTE	PATT
	 POIN2	Trombe_2_026
// 041   ----------------------------------------
Trombe_2_041:
	BYTE		N11     As1   v127
	BYTE	W12
	BYTE		N11   
	BYTE	W12
	BYTE		N11   
	BYTE	W12
	BYTE		N11   
	BYTE	W12
	BYTE		N11   
	BYTE	W12
	BYTE		N12     Cn2 
	BYTE	W12
	BYTE		N12   
	BYTE	W12
	BYTE		N12   
	BYTE	W12
	BYTE	PEND
// 042   ----------------------------------------
Trombe_2_042:
	BYTE		N12     Cn2   v127
	BYTE	W12
	BYTE		N12   
	BYTE	W12
	BYTE		N12   
	BYTE	W12
	BYTE		N12   
	BYTE	W12
	BYTE		N12   
	BYTE	W12
	BYTE		        Cs2 
	BYTE	W12
	BYTE		N12   
	BYTE	W12
	BYTE		N12   
	BYTE	W12
	BYTE	PEND
// 043   ----------------------------------------
Trombe_2_043:
	BYTE		N12     Cs2   v127
	BYTE	W12
	BYTE		N12   
	BYTE	W12
	BYTE		N12   
	BYTE	W12
	BYTE		N12   
	BYTE	W12
	BYTE		N12   
	BYTE	W12
	BYTE		N11     Dn2 
	BYTE	W12
	BYTE		N11   
	BYTE	W12
	BYTE		N11   
	BYTE	W12
	BYTE	PEND
// 044   ----------------------------------------
Trombe_2_044:
	BYTE		N11     Dn2   v127
	BYTE	W12
	BYTE		        Cn2 
	BYTE	W12
	BYTE		N11   
	BYTE	W12
	BYTE		N11   
	BYTE	W12
	BYTE		N11   
	BYTE	W12
	BYTE		        As1 
	BYTE	W12
	BYTE		N11   
	BYTE	W12
	BYTE		N11   
	BYTE	W12
	BYTE	PEND
// 045   ----------------------------------------
	BYTE	PATT
	 POIN2	Trombe_2_033
// 046   ----------------------------------------
Trombe_2_046:
	BYTE		N11     Cn2   v127
	BYTE	W12
	BYTE		N11   
	BYTE	W12
	BYTE		N11   
	BYTE	W12
	BYTE		N11   
	BYTE	W12
	BYTE		N11   
	BYTE	W12
	BYTE		        Ds1 
	BYTE	W12
	BYTE		N11   
	BYTE	W12
	BYTE		N11   
	BYTE	W12
	BYTE	PEND
// 047   ----------------------------------------
	BYTE		N11   
	BYTE	W12
	BYTE		N11   
	BYTE	W12
	BYTE		N11   
	BYTE	W12
	BYTE		N11   
	BYTE	W12
	BYTE		N11   
	BYTE	W12
	BYTE		N11   
	BYTE	W36
// 048   ----------------------------------------
	BYTE	PATT
	 POIN2	Trombe_2_008
// 049   ----------------------------------------
	BYTE	PATT
	 POIN2	Trombe_2_001
// 050   ----------------------------------------
	BYTE	PATT
	 POIN2	Trombe_2_002
// 051   ----------------------------------------
	BYTE	PATT
	 POIN2	Trombe_2_003
// 052   ----------------------------------------
	BYTE	PATT
	 POIN2	Trombe_2_004
// 053   ----------------------------------------
	BYTE	PATT
	 POIN2	Trombe_2_005
// 054   ----------------------------------------
	BYTE	PATT
	 POIN2	Trombe_2_006
// 055   ----------------------------------------
	BYTE	PATT
	 POIN2	Trombe_2_007
// 056   ----------------------------------------
	BYTE	PATT
	 POIN2	Trombe_2_008
// 057   ----------------------------------------
	BYTE	PATT
	 POIN2	Trombe_2_001
// 058   ----------------------------------------
	BYTE	PATT
	 POIN2	Trombe_2_010
// 059   ----------------------------------------
	BYTE	PATT
	 POIN2	Trombe_2_003
// 060   ----------------------------------------
	BYTE	PATT
	 POIN2	Trombe_2_012
// 061   ----------------------------------------
	BYTE	PATT
	 POIN2	Trombe_2_013
// 062   ----------------------------------------
	BYTE	PATT
	 POIN2	Trombe_2_014
// 063   ----------------------------------------
	BYTE	PATT
	 POIN2	Trombe_2_015
// 064   ----------------------------------------
	BYTE	W60
	BYTE		N28     En1   v127
	BYTE	W36
// 065   ----------------------------------------
	BYTE	PATT
	 POIN2	Trombe_2_017
// 066   ----------------------------------------
	BYTE	PATT
	 POIN2	Trombe_2_018
// 067   ----------------------------------------
	BYTE	PATT
	 POIN2	Trombe_2_019
// 068   ----------------------------------------
	BYTE	PATT
	 POIN2	Trombe_2_020
// 069   ----------------------------------------
	BYTE	PATT
	 POIN2	Trombe_2_021
// 070   ----------------------------------------
	BYTE	PATT
	 POIN2	Trombe_2_022
// 071   ----------------------------------------
	BYTE	PATT
	 POIN2	Trombe_2_023
// 072   ----------------------------------------
	BYTE	PATT
	 POIN2	Trombe_2_024
// 073   ----------------------------------------
	BYTE	PATT
	 POIN2	Trombe_2_025
// 074   ----------------------------------------
	BYTE	PATT
	 POIN2	Trombe_2_026
// 075   ----------------------------------------
	BYTE	PATT
	 POIN2	Trombe_2_027
// 076   ----------------------------------------
	BYTE	PATT
	 POIN2	Trombe_2_028
// 077   ----------------------------------------
	BYTE	PATT
	 POIN2	Trombe_2_003
// 078   ----------------------------------------
	BYTE	PATT
	 POIN2	Trombe_2_030
// 079   ----------------------------------------
	BYTE	PATT
	 POIN2	Trombe_2_031
// 080   ----------------------------------------
	BYTE	PATT
	 POIN2	Trombe_2_032
// 081   ----------------------------------------
	BYTE	PATT
	 POIN2	Trombe_2_033
// 082   ----------------------------------------
	BYTE	PATT
	 POIN2	Trombe_2_034
// 083   ----------------------------------------
	BYTE	PATT
	 POIN2	Trombe_2_035
// 084   ----------------------------------------
	BYTE	PATT
	 POIN2	Trombe_2_036
// 085   ----------------------------------------
	BYTE	PATT
	 POIN2	Trombe_2_033
// 086   ----------------------------------------
	BYTE	PATT
	 POIN2	Trombe_2_038
// 087   ----------------------------------------
	BYTE	PATT
	 POIN2	Trombe_2_039
// 088   ----------------------------------------
	BYTE	PATT
	 POIN2	Trombe_2_026
// 089   ----------------------------------------
	BYTE	PATT
	 POIN2	Trombe_2_041
// 090   ----------------------------------------
	BYTE	PATT
	 POIN2	Trombe_2_042
// 091   ----------------------------------------
	BYTE	PATT
	 POIN2	Trombe_2_043
// 092   ----------------------------------------
	BYTE	PATT
	 POIN2	Trombe_2_044
// 093   ----------------------------------------
	BYTE	PATT
	 POIN2	Trombe_2_033
// 094   ----------------------------------------
	BYTE	PATT
	 POIN2	Trombe_2_046
// 095   ----------------------------------------
	BYTE		N11     Ds1   v127
	BYTE	W12
	BYTE		N11   
	BYTE	W12
	BYTE		N11   
	BYTE	W12
	BYTE		N11   
	BYTE	W12
	BYTE		N11   
	BYTE	W12
	BYTE		N11   
	BYTE	W12
	BYTE	GoTo
	 POIN2	Trombe_2_B1
Trombe_2_B2:
	BYTE	W24
// 096   ----------------------------------------
	BYTE	W60
	BYTE	FINE

//**************** Track 3 (Midi-Chn.3) ****************//

Trombe_3:
	BYTE	KEYSH   Trombe_key+0
Trombe_3_B1:
// 000   ----------------------------------------
	BYTE		VOICE   35
	BYTE		VOL     31*Trombe_mvl/mxv
	BYTE		PAN     c_v+0
	BYTE	W60
	BYTE		N11     Bn1   v127
	BYTE	W12
	BYTE		N11   
	BYTE	W12
	BYTE		N11   
	BYTE	W12
// 001   ----------------------------------------
Trombe_3_001:
	BYTE		N11     Bn1   v127
	BYTE	W12
	BYTE		N11   
	BYTE	W12
	BYTE		N11   
	BYTE	W12
	BYTE		N11   
	BYTE	W12
	BYTE		N11   
	BYTE	W12
	BYTE		N11   
	BYTE	W12
	BYTE		N11   
	BYTE	W12
	BYTE		N11   
	BYTE	W12
	BYTE	PEND
// 002   ----------------------------------------
Trombe_3_002:
	BYTE		N11     Bn1   v127
	BYTE	W12
	BYTE		N11   
	BYTE	W12
	BYTE		        Fs1 
	BYTE	W12
	BYTE		        Bn1 
	BYTE	W12
	BYTE		        An1 
	BYTE	W12
	BYTE		        Gn1 
	BYTE	W12
	BYTE		N11   
	BYTE	W12
	BYTE		N11   
	BYTE	W12
	BYTE	PEND
// 003   ----------------------------------------
Trombe_3_003:
	BYTE		N11     Gn1   v127
	BYTE	W12
	BYTE		N11   
	BYTE	W12
	BYTE		N11   
	BYTE	W12
	BYTE		N11   
	BYTE	W12
	BYTE		N11   
	BYTE	W12
	BYTE		N11   
	BYTE	W12
	BYTE		N11   
	BYTE	W12
	BYTE		N11   
	BYTE	W12
	BYTE	PEND
// 004   ----------------------------------------
Trombe_3_004:
	BYTE		N11     Gn1   v127
	BYTE	W12
	BYTE		N11   
	BYTE	W12
	BYTE		        Dn1 
	BYTE	W12
	BYTE		        Gn1 
	BYTE	W12
	BYTE		        Gs1 
	BYTE	W12
	BYTE		        An1 
	BYTE	W12
	BYTE		N11   
	BYTE	W12
	BYTE		N11   
	BYTE	W12
	BYTE	PEND
// 005   ----------------------------------------
Trombe_3_005:
	BYTE		N11     An1   v127
	BYTE	W12
	BYTE		N11   
	BYTE	W12
	BYTE		N11   
	BYTE	W12
	BYTE		N11   
	BYTE	W12
	BYTE		N11   
	BYTE	W12
	BYTE		N11   
	BYTE	W12
	BYTE		N11   
	BYTE	W12
	BYTE		N11   
	BYTE	W12
	BYTE	PEND
// 006   ----------------------------------------
Trombe_3_006:
	BYTE		N11     An1   v127
	BYTE	W12
	BYTE		N11   
	BYTE	W12
	BYTE		        En1 
	BYTE	W12
	BYTE		        An1 
	BYTE	W12
	BYTE		        Cs2 
	BYTE	W12
	BYTE		        Dn2 
	BYTE	W12
	BYTE		N11   
	BYTE	W12
	BYTE		N11   
	BYTE	W12
	BYTE	PEND
// 007   ----------------------------------------
Trombe_3_007:
	BYTE		N11     Dn2   v127
	BYTE	W12
	BYTE		N11   
	BYTE	W12
	BYTE		N11   
	BYTE	W12
	BYTE		        Dn1 
	BYTE	W12
	BYTE		        En1 
	BYTE	W12
	BYTE		        Fs1 
	BYTE	W36
	BYTE	PEND
// 008   ----------------------------------------
Trombe_3_008:
	BYTE	W60
	BYTE		N11     Bn1   v127
	BYTE	W12
	BYTE		N11   
	BYTE	W12
	BYTE		N11   
	BYTE	W12
	BYTE	PEND
// 009   ----------------------------------------
	BYTE	PATT
	 POIN2	Trombe_3_001
// 010   ----------------------------------------
Trombe_3_010:
	BYTE		N11     Bn1   v127
	BYTE	W12
	BYTE		N11   
	BYTE	W12
	BYTE		N11   
	BYTE	W12
	BYTE		N11   
	BYTE	W12
	BYTE		N11   
	BYTE	W12
	BYTE		        Gn1 
	BYTE	W12
	BYTE		N11   
	BYTE	W12
	BYTE		N11   
	BYTE	W12
	BYTE	PEND
// 011   ----------------------------------------
	BYTE	PATT
	 POIN2	Trombe_3_003
// 012   ----------------------------------------
Trombe_3_012:
	BYTE		N11     Gn1   v127
	BYTE	W12
	BYTE		N11   
	BYTE	W12
	BYTE		N11   
	BYTE	W12
	BYTE		N11   
	BYTE	W12
	BYTE		N11   
	BYTE	W12
	BYTE		        En1 
	BYTE	W12
	BYTE		N11   
	BYTE	W12
	BYTE		N11   
	BYTE	W12
	BYTE	PEND
// 013   ----------------------------------------
Trombe_3_013:
	BYTE		N11     En1   v127
	BYTE	W12
	BYTE		N11   
	BYTE	W12
	BYTE		N11   
	BYTE	W12
	BYTE		N11   
	BYTE	W12
	BYTE		N11   
	BYTE	W12
	BYTE		        Fs1 
	BYTE	W12
	BYTE		N11   
	BYTE	W12
	BYTE		N11   
	BYTE	W12
	BYTE	PEND
// 014   ----------------------------------------
Trombe_3_014:
	BYTE		N11     Fs1   v127
	BYTE	W12
	BYTE		N11   
	BYTE	W12
	BYTE		N11   
	BYTE	W12
	BYTE		N11   
	BYTE	W12
	BYTE		N11   
	BYTE	W12
	BYTE		        Bn1 
	BYTE	W12
	BYTE		N11   
	BYTE	W12
	BYTE		N11   
	BYTE	W12
	BYTE	PEND
// 015   ----------------------------------------
Trombe_3_015:
	BYTE		N11     Bn1   v127
	BYTE	W12
	BYTE		N11   
	BYTE	W12
	BYTE		        Fs1 
	BYTE	W12
	BYTE		        An1 
	BYTE	W12
	BYTE		        Bn1 
	BYTE	W48
	BYTE	PEND
// 016   ----------------------------------------
	BYTE	W60
	BYTE		N28     En1 
	BYTE	W36
// 017   ----------------------------------------
Trombe_3_017:
	BYTE		N11     En1   v127
	BYTE	W12
	BYTE		N36   
	BYTE	W48
	BYTE		N28     An1 
	BYTE	W36
	BYTE	PEND
// 018   ----------------------------------------
Trombe_3_018:
	BYTE		N11     An1   v127
	BYTE	W12
	BYTE		N36   
	BYTE	W48
	BYTE		N28     Dn1 
	BYTE	W36
	BYTE	PEND
// 019   ----------------------------------------
Trombe_3_019:
	BYTE		N11     Dn1   v127
	BYTE	W12
	BYTE		N36   
	BYTE	W48
	BYTE		N28     Gn1 
	BYTE	W36
	BYTE	PEND
// 020   ----------------------------------------
Trombe_3_020:
	BYTE		N11     Gn1   v127
	BYTE	W12
	BYTE		N36   
	BYTE	W48
	BYTE		N28     Cs1 
	BYTE	W36
	BYTE	PEND
// 021   ----------------------------------------
Trombe_3_021:
	BYTE		N11     Cs1   v127
	BYTE	W12
	BYTE		N36   
	BYTE	W48
	BYTE		N28     Fs1 
	BYTE	W36
	BYTE	PEND
// 022   ----------------------------------------
Trombe_3_022:
	BYTE		N11     Fs1   v127
	BYTE	W12
	BYTE		N36   
	BYTE	W48
	BYTE		N12     Bn0 
	BYTE	W12
	BYTE		N11     Bn1 
	BYTE	W12
	BYTE		N11   
	BYTE	W12
	BYTE	PEND
// 023   ----------------------------------------
Trombe_3_023:
	BYTE		N12     Cs1   v127
	BYTE	W12
	BYTE		N11     Cs2 
	BYTE	W12
	BYTE		N11   
	BYTE	W12
	BYTE		N12     Dn1 
	BYTE	W12
	BYTE		N11     Dn2 
	BYTE	W12
	BYTE		N12     Dn1 
	BYTE	W12
	BYTE		N11     Dn2 
	BYTE	W12
	BYTE		        Ds1 
	BYTE	W12
	BYTE	PEND
// 024   ----------------------------------------
Trombe_3_024:
	BYTE		N11     Ds1   v127
	BYTE	W12
	BYTE		N11   
	BYTE	W12
	BYTE		N11   
	BYTE	W12
	BYTE		N11   
	BYTE	W12
	BYTE		N11   
	BYTE	W12
	BYTE		        En1 
	BYTE	W12
	BYTE		N11   
	BYTE	W12
	BYTE		N11   
	BYTE	W12
	BYTE	PEND
// 025   ----------------------------------------
Trombe_3_025:
	BYTE		N11     En1   v127
	BYTE	W12
	BYTE		N11   
	BYTE	W12
	BYTE		N11   
	BYTE	W12
	BYTE		N11   
	BYTE	W12
	BYTE		N11   
	BYTE	W12
	BYTE		        An1 
	BYTE	W12
	BYTE		N11   
	BYTE	W12
	BYTE		N11   
	BYTE	W12
	BYTE	PEND
// 026   ----------------------------------------
Trombe_3_026:
	BYTE		N11     An1   v127
	BYTE	W12
	BYTE		N11   
	BYTE	W12
	BYTE		N11   
	BYTE	W12
	BYTE		N11   
	BYTE	W12
	BYTE		N11   
	BYTE	W12
	BYTE		        As1 
	BYTE	W12
	BYTE		N11   
	BYTE	W12
	BYTE		N11   
	BYTE	W12
	BYTE	PEND
// 027   ----------------------------------------
Trombe_3_027:
	BYTE		N11     As1   v127
	BYTE	W12
	BYTE		N11   
	BYTE	W12
	BYTE		N11   
	BYTE	W12
	BYTE		N11   
	BYTE	W12
	BYTE		N11   
	BYTE	W12
	BYTE		        Bn1 
	BYTE	W12
	BYTE		N11   
	BYTE	W12
	BYTE		N11   
	BYTE	W12
	BYTE	PEND
// 028   ----------------------------------------
Trombe_3_028:
	BYTE		N11     Bn1   v127
	BYTE	W12
	BYTE		        An1 
	BYTE	W12
	BYTE		N11   
	BYTE	W12
	BYTE		N11   
	BYTE	W12
	BYTE		N11   
	BYTE	W12
	BYTE		        Gn1 
	BYTE	W12
	BYTE		N11   
	BYTE	W12
	BYTE		N11   
	BYTE	W12
	BYTE	PEND
// 029   ----------------------------------------
	BYTE	PATT
	 POIN2	Trombe_3_003
// 030   ----------------------------------------
Trombe_3_030:
	BYTE		N11     Gn1   v127
	BYTE	W12
	BYTE		N11   
	BYTE	W12
	BYTE		N11   
	BYTE	W12
	BYTE		N11   
	BYTE	W12
	BYTE		N11   
	BYTE	W12
	BYTE		        An1 
	BYTE	W12
	BYTE		N11   
	BYTE	W12
	BYTE		N11   
	BYTE	W12
	BYTE	PEND
// 031   ----------------------------------------
Trombe_3_031:
	BYTE		N11     An1   v127
	BYTE	W12
	BYTE		N11   
	BYTE	W12
	BYTE		        En1 
	BYTE	W12
	BYTE		        Gn1 
	BYTE	W12
	BYTE		        An1 
	BYTE	W48
	BYTE	PEND
// 032   ----------------------------------------
Trombe_3_032:
	BYTE	W32
	BYTE	W03
	BYTE		BEND    c_v-64
	BYTE	W01
	BYTE		N24     Fs1   v127
	BYTE	W01
	BYTE		BEND    c_v-57
	BYTE	W02
	BYTE		        c_v-35
	BYTE	W01
	BYTE		        c_v-22
	BYTE	W02
	BYTE		        c_v-2
	BYTE	W01
	BYTE		        c_v+5
	BYTE	W01
	BYTE		        c_v+32
	BYTE	W01
	BYTE		        c_v+46
	BYTE	W03
	BYTE		        c_v+62
	BYTE	W02
	BYTE		        c_v+19
	BYTE	W02
	BYTE		        c_v+11
	BYTE	W01
	BYTE		        c_v-4
	BYTE	W01
	BYTE		        c_v-12
	BYTE	W01
	BYTE		        c_v-24
	BYTE	W01
	BYTE		        c_v-33
	BYTE	W01
	BYTE		        c_v-55
	BYTE	W01
	BYTE		        c_v-59
	BYTE	W02
	BYTE		        c_v+0
	BYTE		N11     As1 
	BYTE	W12
	BYTE		N11   
	BYTE	W12
	BYTE		N11   
	BYTE	W12
	BYTE	PEND
// 033   ----------------------------------------
Trombe_3_033:
	BYTE		N11     As1   v127
	BYTE	W12
	BYTE		N11   
	BYTE	W12
	BYTE		N11   
	BYTE	W12
	BYTE		N11   
	BYTE	W12
	BYTE		N11   
	BYTE	W12
	BYTE		        Cn2 
	BYTE	W12
	BYTE		N11   
	BYTE	W12
	BYTE		N11   
	BYTE	W12
	BYTE	PEND
// 034   ----------------------------------------
Trombe_3_034:
	BYTE		N11     Cn2   v127
	BYTE	W12
	BYTE		N11   
	BYTE	W12
	BYTE		N11   
	BYTE	W12
	BYTE		N11   
	BYTE	W12
	BYTE		N11   
	BYTE	W12
	BYTE		        Dn2 
	BYTE	W12
	BYTE		N11   
	BYTE	W12
	BYTE		N11   
	BYTE	W12
	BYTE	PEND
// 035   ----------------------------------------
Trombe_3_035:
	BYTE		N11     Dn2   v127
	BYTE	W12
	BYTE		N11   
	BYTE	W12
	BYTE		N11   
	BYTE	W12
	BYTE		N11   
	BYTE	W12
	BYTE		N11   
	BYTE	W12
	BYTE		        Cn2 
	BYTE	W12
	BYTE		N11   
	BYTE	W12
	BYTE		N11   
	BYTE	W12
	BYTE	PEND
// 036   ----------------------------------------
Trombe_3_036:
	BYTE		N11     Cn2   v127
	BYTE	W12
	BYTE		N11   
	BYTE	W12
	BYTE		N11   
	BYTE	W12
	BYTE		N11   
	BYTE	W12
	BYTE		N11   
	BYTE	W12
	BYTE		        As1 
	BYTE	W12
	BYTE		N11   
	BYTE	W12
	BYTE		N11   
	BYTE	W12
	BYTE	PEND
// 037   ----------------------------------------
	BYTE	PATT
	 POIN2	Trombe_3_033
// 038   ----------------------------------------
Trombe_3_038:
	BYTE		N11     Cn2   v127
	BYTE	W12
	BYTE		N11   
	BYTE	W12
	BYTE		N11   
	BYTE	W12
	BYTE		N11   
	BYTE	W12
	BYTE		N11   
	BYTE	W12
	BYTE		        Fn1 
	BYTE	W12
	BYTE		N11   
	BYTE	W12
	BYTE		N11   
	BYTE	W12
	BYTE	PEND
// 039   ----------------------------------------
Trombe_3_039:
	BYTE		N11     Fn1   v127
	BYTE	W12
	BYTE		N11   
	BYTE	W12
	BYTE		N11   
	BYTE	W12
	BYTE		N11   
	BYTE	W12
	BYTE		N11   
	BYTE	W12
	BYTE		        An1 
	BYTE	W12
	BYTE		N11   
	BYTE	W12
	BYTE		N11   
	BYTE	W12
	BYTE	PEND
// 040   ----------------------------------------
	BYTE	PATT
	 POIN2	Trombe_3_026
// 041   ----------------------------------------
Trombe_3_041:
	BYTE		N11     As1   v127
	BYTE	W12
	BYTE		N11   
	BYTE	W12
	BYTE		N11   
	BYTE	W12
	BYTE		N11   
	BYTE	W12
	BYTE		N11   
	BYTE	W12
	BYTE		N12     Cn2 
	BYTE	W12
	BYTE		N12   
	BYTE	W12
	BYTE		N12   
	BYTE	W12
	BYTE	PEND
// 042   ----------------------------------------
Trombe_3_042:
	BYTE		N12     Cn2   v127
	BYTE	W12
	BYTE		N12   
	BYTE	W12
	BYTE		N12   
	BYTE	W12
	BYTE		N12   
	BYTE	W12
	BYTE		N12   
	BYTE	W12
	BYTE		        Cs2 
	BYTE	W12
	BYTE		N12   
	BYTE	W12
	BYTE		N12   
	BYTE	W12
	BYTE	PEND
// 043   ----------------------------------------
Trombe_3_043:
	BYTE		N12     Cs2   v127
	BYTE	W12
	BYTE		N12   
	BYTE	W12
	BYTE		N12   
	BYTE	W12
	BYTE		N12   
	BYTE	W12
	BYTE		N12   
	BYTE	W12
	BYTE		N11     Dn2 
	BYTE	W12
	BYTE		N11   
	BYTE	W12
	BYTE		N11   
	BYTE	W12
	BYTE	PEND
// 044   ----------------------------------------
Trombe_3_044:
	BYTE		N11     Dn2   v127
	BYTE	W12
	BYTE		        Cn2 
	BYTE	W12
	BYTE		N11   
	BYTE	W12
	BYTE		N11   
	BYTE	W12
	BYTE		N11   
	BYTE	W12
	BYTE		        As1 
	BYTE	W12
	BYTE		N11   
	BYTE	W12
	BYTE		N11   
	BYTE	W12
	BYTE	PEND
// 045   ----------------------------------------
	BYTE	PATT
	 POIN2	Trombe_3_033
// 046   ----------------------------------------
Trombe_3_046:
	BYTE		N11     Cn2   v127
	BYTE	W12
	BYTE		N11   
	BYTE	W12
	BYTE		N11   
	BYTE	W12
	BYTE		N11   
	BYTE	W12
	BYTE		N11   
	BYTE	W12
	BYTE		        Ds1 
	BYTE	W12
	BYTE		N11   
	BYTE	W12
	BYTE		N11   
	BYTE	W12
	BYTE	PEND
// 047   ----------------------------------------
	BYTE		N11   
	BYTE	W12
	BYTE		N11   
	BYTE	W12
	BYTE		N11   
	BYTE	W12
	BYTE		N11   
	BYTE	W12
	BYTE		N11   
	BYTE	W12
	BYTE		N11   
	BYTE	W36
// 048   ----------------------------------------
	BYTE	PATT
	 POIN2	Trombe_3_008
// 049   ----------------------------------------
	BYTE	PATT
	 POIN2	Trombe_3_001
// 050   ----------------------------------------
	BYTE	PATT
	 POIN2	Trombe_3_002
// 051   ----------------------------------------
	BYTE	PATT
	 POIN2	Trombe_3_003
// 052   ----------------------------------------
	BYTE	PATT
	 POIN2	Trombe_3_004
// 053   ----------------------------------------
	BYTE	PATT
	 POIN2	Trombe_3_005
// 054   ----------------------------------------
	BYTE	PATT
	 POIN2	Trombe_3_006
// 055   ----------------------------------------
	BYTE	PATT
	 POIN2	Trombe_3_007
// 056   ----------------------------------------
	BYTE	PATT
	 POIN2	Trombe_3_008
// 057   ----------------------------------------
	BYTE	PATT
	 POIN2	Trombe_3_001
// 058   ----------------------------------------
	BYTE	PATT
	 POIN2	Trombe_3_010
// 059   ----------------------------------------
	BYTE	PATT
	 POIN2	Trombe_3_003
// 060   ----------------------------------------
	BYTE	PATT
	 POIN2	Trombe_3_012
// 061   ----------------------------------------
	BYTE	PATT
	 POIN2	Trombe_3_013
// 062   ----------------------------------------
	BYTE	PATT
	 POIN2	Trombe_3_014
// 063   ----------------------------------------
	BYTE	PATT
	 POIN2	Trombe_3_015
// 064   ----------------------------------------
	BYTE	W60
	BYTE		N28     En1   v127
	BYTE	W36
// 065   ----------------------------------------
	BYTE	PATT
	 POIN2	Trombe_3_017
// 066   ----------------------------------------
	BYTE	PATT
	 POIN2	Trombe_3_018
// 067   ----------------------------------------
	BYTE	PATT
	 POIN2	Trombe_3_019
// 068   ----------------------------------------
	BYTE	PATT
	 POIN2	Trombe_3_020
// 069   ----------------------------------------
	BYTE	PATT
	 POIN2	Trombe_3_021
// 070   ----------------------------------------
	BYTE	PATT
	 POIN2	Trombe_3_022
// 071   ----------------------------------------
	BYTE	PATT
	 POIN2	Trombe_3_023
// 072   ----------------------------------------
	BYTE	PATT
	 POIN2	Trombe_3_024
// 073   ----------------------------------------
	BYTE	PATT
	 POIN2	Trombe_3_025
// 074   ----------------------------------------
	BYTE	PATT
	 POIN2	Trombe_3_026
// 075   ----------------------------------------
	BYTE	PATT
	 POIN2	Trombe_3_027
// 076   ----------------------------------------
	BYTE	PATT
	 POIN2	Trombe_3_028
// 077   ----------------------------------------
	BYTE	PATT
	 POIN2	Trombe_3_003
// 078   ----------------------------------------
	BYTE	PATT
	 POIN2	Trombe_3_030
// 079   ----------------------------------------
	BYTE	PATT
	 POIN2	Trombe_3_031
// 080   ----------------------------------------
	BYTE	PATT
	 POIN2	Trombe_3_032
// 081   ----------------------------------------
	BYTE	PATT
	 POIN2	Trombe_3_033
// 082   ----------------------------------------
	BYTE	PATT
	 POIN2	Trombe_3_034
// 083   ----------------------------------------
	BYTE	PATT
	 POIN2	Trombe_3_035
// 084   ----------------------------------------
	BYTE	PATT
	 POIN2	Trombe_3_036
// 085   ----------------------------------------
	BYTE	PATT
	 POIN2	Trombe_3_033
// 086   ----------------------------------------
	BYTE	PATT
	 POIN2	Trombe_3_038
// 087   ----------------------------------------
	BYTE	PATT
	 POIN2	Trombe_3_039
// 088   ----------------------------------------
	BYTE	PATT
	 POIN2	Trombe_3_026
// 089   ----------------------------------------
	BYTE	PATT
	 POIN2	Trombe_3_041
// 090   ----------------------------------------
	BYTE	PATT
	 POIN2	Trombe_3_042
// 091   ----------------------------------------
	BYTE	PATT
	 POIN2	Trombe_3_043
// 092   ----------------------------------------
	BYTE	PATT
	 POIN2	Trombe_3_044
// 093   ----------------------------------------
	BYTE	PATT
	 POIN2	Trombe_3_033
// 094   ----------------------------------------
	BYTE	PATT
	 POIN2	Trombe_3_046
// 095   ----------------------------------------
	BYTE		N11     Ds1   v127
	BYTE	W12
	BYTE		N11   
	BYTE	W12
	BYTE		N11   
	BYTE	W12
	BYTE		N11   
	BYTE	W12
	BYTE		N11   
	BYTE	W12
	BYTE		N11   
	BYTE	W12
	BYTE	GoTo
	 POIN2	Trombe_3_B1
Trombe_3_B2:
	BYTE	W24
// 096   ----------------------------------------
	BYTE	W60
	BYTE	FINE

//**************** Track 4 (Midi-Chn.4) ****************//

Trombe_4:
	BYTE	KEYSH   Trombe_key+0
Trombe_4_B1:
// 000   ----------------------------------------
	BYTE		VOICE   101
	BYTE		VOL     41*Trombe_mvl/mxv
	BYTE		PAN     c_v+0
	BYTE	W96
// 001   ----------------------------------------
	BYTE	W96
// 002   ----------------------------------------
	BYTE	W96
// 003   ----------------------------------------
	BYTE	W96
// 004   ----------------------------------------
	BYTE	W96
// 005   ----------------------------------------
	BYTE	W96
// 006   ----------------------------------------
	BYTE	W96
// 007   ----------------------------------------
	BYTE	W96
// 008   ----------------------------------------
	BYTE	W60
	BYTE		N48     Fs4   v127
	BYTE	W36
// 009   ----------------------------------------
	BYTE	W96
// 010   ----------------------------------------
Trombe_4_010:
	BYTE	W12
	BYTE		N24     Bn4   v127
	BYTE	W24
	BYTE		        Cs5 
	BYTE	W24
	BYTE		        Dn5 
	BYTE	W36
	BYTE	PEND
// 011   ----------------------------------------
	BYTE	W96
// 012   ----------------------------------------
Trombe_4_012:
	BYTE	W12
	BYTE		N24     Fs5   v127
	BYTE	W48
	BYTE		        En5 
	BYTE	W36
	BYTE	PEND
// 013   ----------------------------------------
Trombe_4_013:
	BYTE	W36
	BYTE		N24     Cs5   v127
	BYTE	W24
	BYTE		N36     An4 
	BYTE	W36
	BYTE	PEND
// 014   ----------------------------------------
Trombe_4_014:
	BYTE		N36     Fs4   v127
	BYTE	W36
	BYTE		N24     Bn4 
	BYTE	W60
	BYTE	PEND
// 015   ----------------------------------------
	BYTE	W96
// 016   ----------------------------------------
Trombe_4_016:
	BYTE	W60
	BYTE		N12     Dn4   v127
	BYTE	W12
	BYTE		        Bn3 
	BYTE	W12
	BYTE		        Gn3 
	BYTE	W12
	BYTE	PEND
// 017   ----------------------------------------
Trombe_4_017:
	BYTE		N12     Dn4   v127
	BYTE	W12
	BYTE		        Bn3 
	BYTE	W12
	BYTE		        Gn3 
	BYTE	W12
	BYTE		        Dn4 
	BYTE	W12
	BYTE		        Bn3 
	BYTE	W12
	BYTE		        Cs4 
	BYTE	W12
	BYTE		        An3 
	BYTE	W12
	BYTE		        Gn3 
	BYTE	W12
	BYTE	PEND
// 018   ----------------------------------------
Trombe_4_018:
	BYTE		N12     Cs4   v127
	BYTE	W12
	BYTE		        An3 
	BYTE	W12
	BYTE		        Gn3 
	BYTE	W12
	BYTE		        Cs4 
	BYTE	W12
	BYTE		        An3 
	BYTE	W12
	BYTE		        Cs4 
	BYTE	W12
	BYTE		        An3 
	BYTE	W12
	BYTE		        Fs3 
	BYTE	W12
	BYTE	PEND
// 019   ----------------------------------------
Trombe_4_019:
	BYTE		N12     Cs4   v127
	BYTE	W12
	BYTE		        An3 
	BYTE	W12
	BYTE		        Fs3 
	BYTE	W12
	BYTE		        Cs4 
	BYTE	W12
	BYTE		        An3 
	BYTE	W12
	BYTE		        Bn3 
	BYTE	W12
	BYTE		        Gn3 
	BYTE	W12
	BYTE		        Fs3 
	BYTE	W12
	BYTE	PEND
// 020   ----------------------------------------
Trombe_4_020:
	BYTE		N12     Bn3   v127
	BYTE	W12
	BYTE		        Gn3 
	BYTE	W12
	BYTE		        Fs3 
	BYTE	W12
	BYTE		        Bn3 
	BYTE	W12
	BYTE		        Gn3 
	BYTE	W12
	BYTE		        Bn3 
	BYTE	W12
	BYTE		        Gn3 
	BYTE	W12
	BYTE		        En3 
	BYTE	W12
	BYTE	PEND
// 021   ----------------------------------------
Trombe_4_021:
	BYTE		N12     Bn3   v127
	BYTE	W12
	BYTE		        Gn3 
	BYTE	W12
	BYTE		        En3 
	BYTE	W12
	BYTE		        Bn3 
	BYTE	W12
	BYTE		        Gn3 
	BYTE	W12
	BYTE		        Cs4 
	BYTE	W12
	BYTE		        As3 
	BYTE	W12
	BYTE		        Fs3 
	BYTE	W12
	BYTE	PEND
// 022   ----------------------------------------
Trombe_4_022:
	BYTE		N12     Cs4   v127
	BYTE	W12
	BYTE		        As3 
	BYTE	W12
	BYTE		        Fs3 
	BYTE	W12
	BYTE		        Cs4 
	BYTE	W12
	BYTE		        As3 
	BYTE	W12
	BYTE		        Dn4 
	BYTE	W12
	BYTE		        Bn3 
	BYTE	W12
	BYTE		        Fs3 
	BYTE	W12
	BYTE	PEND
// 023   ----------------------------------------
Trombe_4_023:
	BYTE		N12     En4   v127
	BYTE	W12
	BYTE		        Cs4 
	BYTE	W12
	BYTE		        An3 
	BYTE	W12
	BYTE		        Fs4 
	BYTE	W12
	BYTE		        Dn4 
	BYTE	W12
	BYTE		        An3 
	BYTE	W12
	BYTE		        Fs4 
	BYTE	W12
	BYTE		        Ds4 
	BYTE	W12
	BYTE	PEND
// 024   ----------------------------------------
Trombe_4_024:
	BYTE		N12     An3   v127
	BYTE	W12
	BYTE		        Fs4 
	BYTE	W12
	BYTE		        Ds4 
	BYTE	W12
	BYTE		        An3 
	BYTE	W12
	BYTE		        Fs4 
	BYTE	W12
	BYTE		        En4 
	BYTE	W12
	BYTE		        Dn4 
	BYTE	W12
	BYTE		        Bn3 
	BYTE	W12
	BYTE	PEND
// 025   ----------------------------------------
Trombe_4_025:
	BYTE		N12     En4   v127
	BYTE	W12
	BYTE		        Dn4 
	BYTE	W12
	BYTE		        Bn3 
	BYTE	W12
	BYTE		        En4 
	BYTE	W12
	BYTE		        Dn4 
	BYTE	W12
	BYTE		        En4 
	BYTE	W12
	BYTE		        Cs4 
	BYTE	W12
	BYTE		        An3 
	BYTE	W12
	BYTE	PEND
// 026   ----------------------------------------
Trombe_4_026:
	BYTE		N12     En4   v127
	BYTE	W12
	BYTE		        Cs4 
	BYTE	W12
	BYTE		        An3 
	BYTE	W12
	BYTE		        En4 
	BYTE	W12
	BYTE		        Cs4 
	BYTE	W12
	BYTE		        En4 
	BYTE	W12
	BYTE		        Cs4 
	BYTE	W12
	BYTE		        As3 
	BYTE	W12
	BYTE	PEND
// 027   ----------------------------------------
Trombe_4_027:
	BYTE		N12     En4   v127
	BYTE	W12
	BYTE		        Cs4 
	BYTE	W12
	BYTE		        As3 
	BYTE	W12
	BYTE		        Gn4 
	BYTE	W12
	BYTE		        En4 
	BYTE	W12
	BYTE		        Fs4 
	BYTE	W12
	BYTE		        Dn4 
	BYTE	W12
	BYTE		        Bn3 
	BYTE	W12
	BYTE	PEND
// 028   ----------------------------------------
Trombe_4_028:
	BYTE		N12     Fs4   v127
	BYTE	W12
	BYTE		        Dn4 
	BYTE	W12
	BYTE		        As3 
	BYTE	W12
	BYTE		        Fs4 
	BYTE	W12
	BYTE		        Dn4 
	BYTE	W12
	BYTE		        Fs4 
	BYTE	W12
	BYTE		        Dn4 
	BYTE	W12
	BYTE		        Bn3 
	BYTE	W12
	BYTE	PEND
// 029   ----------------------------------------
Trombe_4_029:
	BYTE		N12     Fs4   v127
	BYTE	W12
	BYTE		        Dn4 
	BYTE	W12
	BYTE		        Bn3 
	BYTE	W12
	BYTE		        Fs4 
	BYTE	W12
	BYTE		        Dn4 
	BYTE	W12
	BYTE		        Bn3 
	BYTE	W12
	BYTE		        Fs4 
	BYTE	W12
	BYTE		        Dn4 
	BYTE	W12
	BYTE	PEND
// 030   ----------------------------------------
Trombe_4_030:
	BYTE		N12     Bn3   v127
	BYTE	W12
	BYTE		        Fs4 
	BYTE	W12
	BYTE		        Dn4 
	BYTE	W12
	BYTE		        Bn3 
	BYTE	W12
	BYTE		        Fs4 
	BYTE	W12
	BYTE		        En4 
	BYTE	W12
	BYTE		        Cs4 
	BYTE	W12
	BYTE		        An3 
	BYTE	W12
	BYTE	PEND
// 031   ----------------------------------------
Trombe_4_031:
	BYTE		N12     En4   v127
	BYTE	W12
	BYTE		        An4 
	BYTE	W12
	BYTE		        Cs5 
	BYTE	W12
	BYTE		        En5 
	BYTE	W12
	BYTE		        An5 
	BYTE	W48
	BYTE	PEND
// 032   ----------------------------------------
Trombe_4_032:
	BYTE	W72
	BYTE		N12     Dn4   v127
	BYTE	W12
	BYTE		        Cn4 
	BYTE	W12
	BYTE	PEND
// 033   ----------------------------------------
Trombe_4_033:
	BYTE		N12     An3   v127
	BYTE	W12
	BYTE		        Dn4 
	BYTE	W24
	BYTE		        Cn4 
	BYTE	W12
	BYTE		        An3 
	BYTE	W24
	BYTE		        Dn4 
	BYTE	W12
	BYTE		        Cn4 
	BYTE	W12
	BYTE	PEND
// 034   ----------------------------------------
	BYTE	PATT
	 POIN2	Trombe_4_033
// 035   ----------------------------------------
	BYTE	PATT
	 POIN2	Trombe_4_033
// 036   ----------------------------------------
	BYTE	PATT
	 POIN2	Trombe_4_033
// 037   ----------------------------------------
	BYTE	PATT
	 POIN2	Trombe_4_033
// 038   ----------------------------------------
	BYTE	PATT
	 POIN2	Trombe_4_033
// 039   ----------------------------------------
Trombe_4_039:
	BYTE		N12     An3   v127
	BYTE	W12
	BYTE		        Dn4 
	BYTE	W24
	BYTE		        Cn4 
	BYTE	W12
	BYTE		        An3 
	BYTE	W24
	BYTE		        Dn4 
	BYTE	W12
	BYTE		        Cs4 
	BYTE	W12
	BYTE	PEND
// 040   ----------------------------------------
Trombe_4_040:
	BYTE		N12     An3   v127
	BYTE	W12
	BYTE		        Dn4 
	BYTE	W24
	BYTE		        Cs4 
	BYTE	W12
	BYTE		        An3 
	BYTE	W12
	BYTE		N06     Dn3 
	BYTE	W06
	BYTE		        An2 
	BYTE	W06
	BYTE		        Dn3 
	BYTE	W06
	BYTE		        Fn3 
	BYTE	W06
	BYTE		        An3 
	BYTE	W06
	BYTE		        Dn4 
	BYTE	W06
	BYTE	PEND
// 041   ----------------------------------------
Trombe_4_041:
	BYTE		N06     Fn4   v127
	BYTE	W06
	BYTE		        An4 
	BYTE	W06
	BYTE		        Dn5 
	BYTE	W06
	BYTE		        An4 
	BYTE	W06
	BYTE		        Fn4 
	BYTE	W06
	BYTE		        Dn4 
	BYTE	W06
	BYTE		        An3 
	BYTE	W06
	BYTE		        Fn3 
	BYTE	W06
	BYTE		        Dn3 
	BYTE	W06
	BYTE		        An2 
	BYTE	W06
	BYTE		        Cn3 
	BYTE	W06
	BYTE		        Gn2 
	BYTE	W06
	BYTE		        Cn3 
	BYTE	W06
	BYTE		        Dn3 
	BYTE	W06
	BYTE		        Gn3 
	BYTE	W06
	BYTE		        Cn4 
	BYTE	W06
	BYTE	PEND
// 042   ----------------------------------------
Trombe_4_042:
	BYTE		N06     En4   v127
	BYTE	W06
	BYTE		        Gn4 
	BYTE	W06
	BYTE		        Cn5 
	BYTE	W06
	BYTE		        Gn4 
	BYTE	W06
	BYTE		        En4 
	BYTE	W06
	BYTE		        Cn4 
	BYTE	W06
	BYTE		        An3 
	BYTE	W06
	BYTE		        Dn3 
	BYTE	W06
	BYTE		        Cn3 
	BYTE	W06
	BYTE		        Gn2 
	BYTE	W06
	BYTE		        Cs3 
	BYTE	W06
	BYTE		        Gn2 
	BYTE	W06
	BYTE		        Cs3 
	BYTE	W06
	BYTE		        En3 
	BYTE	W06
	BYTE		        Gn3 
	BYTE	W06
	BYTE		        Cs4 
	BYTE	W06
	BYTE	PEND
// 043   ----------------------------------------
Trombe_4_043:
	BYTE		N06     En4   v127
	BYTE	W06
	BYTE		        Gn4 
	BYTE	W06
	BYTE		        Cs5 
	BYTE	W06
	BYTE		        Gn4 
	BYTE	W06
	BYTE		        En4 
	BYTE	W06
	BYTE		        Cs4 
	BYTE	W06
	BYTE		        Gn3 
	BYTE	W06
	BYTE		        En3 
	BYTE	W06
	BYTE		        Cs3 
	BYTE	W06
	BYTE		        Gn2 
	BYTE	W06
	BYTE		        Dn3 
	BYTE	W06
	BYTE		        An2 
	BYTE	W06
	BYTE		        Dn3 
	BYTE	W06
	BYTE		        Fn3 
	BYTE	W06
	BYTE		        An3 
	BYTE	W06
	BYTE		        Dn4 
	BYTE	W06
	BYTE	PEND
// 044   ----------------------------------------
Trombe_4_044:
	BYTE		N06     Fn4   v127
	BYTE	W06
	BYTE		        An4 
	BYTE	W06
	BYTE		        Cn5 
	BYTE	W06
	BYTE		        An4 
	BYTE	W06
	BYTE		        Fn4 
	BYTE	W06
	BYTE		        Dn4 
	BYTE	W06
	BYTE		        An3 
	BYTE	W06
	BYTE		        Fn3 
	BYTE	W06
	BYTE		        Dn3 
	BYTE	W06
	BYTE		        An2 
	BYTE	W06
	BYTE		        Dn3 
	BYTE	W06
	BYTE		        An2 
	BYTE	W06
	BYTE		        Dn3 
	BYTE	W06
	BYTE		        Fn3 
	BYTE	W06
	BYTE		        An3 
	BYTE	W06
	BYTE		        Dn4 
	BYTE	W06
	BYTE	PEND
// 045   ----------------------------------------
	BYTE	PATT
	 POIN2	Trombe_4_041
// 046   ----------------------------------------
Trombe_4_046:
	BYTE		N06     En4   v127
	BYTE	W06
	BYTE		        Gn4 
	BYTE	W06
	BYTE		        Cn5 
	BYTE	W06
	BYTE		        Gn4 
	BYTE	W06
	BYTE		        En4 
	BYTE	W06
	BYTE		        Cn4 
	BYTE	W06
	BYTE		        An3 
	BYTE	W06
	BYTE		        Dn3 
	BYTE	W06
	BYTE		        Cn3 
	BYTE	W06
	BYTE		        Gn2 
	BYTE	W06
	BYTE		        Ds2 
	BYTE	W06
	BYTE		        Gn2 
	BYTE	W06
	BYTE		        As2 
	BYTE	W06
	BYTE		        Dn3 
	BYTE	W06
	BYTE		        Ds3 
	BYTE	W06
	BYTE		        Gn3 
	BYTE	W06
	BYTE	PEND
// 047   ----------------------------------------
	BYTE		        As3 
	BYTE	W06
	BYTE		        Dn4 
	BYTE	W06
	BYTE		        Ds4 
	BYTE	W06
	BYTE		        Gn4 
	BYTE	W06
	BYTE		        As4 
	BYTE	W06
	BYTE		        Dn5 
	BYTE	W06
	BYTE		        Ds5 
	BYTE	W06
	BYTE		        Gn5 
	BYTE	W06
	BYTE		        As5 
	BYTE	W48
// 048   ----------------------------------------
	BYTE	W96
// 049   ----------------------------------------
	BYTE	W96
// 050   ----------------------------------------
	BYTE	W96
// 051   ----------------------------------------
	BYTE	W96
// 052   ----------------------------------------
	BYTE	W96
// 053   ----------------------------------------
	BYTE	W96
// 054   ----------------------------------------
	BYTE	W96
// 055   ----------------------------------------
	BYTE	W96
// 056   ----------------------------------------
	BYTE	W60
	BYTE		N48     Fs4 
	BYTE	W36
// 057   ----------------------------------------
	BYTE	W96
// 058   ----------------------------------------
	BYTE	PATT
	 POIN2	Trombe_4_010
// 059   ----------------------------------------
	BYTE	W96
// 060   ----------------------------------------
	BYTE	PATT
	 POIN2	Trombe_4_012
// 061   ----------------------------------------
	BYTE	PATT
	 POIN2	Trombe_4_013
// 062   ----------------------------------------
	BYTE	PATT
	 POIN2	Trombe_4_014
// 063   ----------------------------------------
	BYTE	W96
// 064   ----------------------------------------
	BYTE	PATT
	 POIN2	Trombe_4_016
// 065   ----------------------------------------
	BYTE	PATT
	 POIN2	Trombe_4_017
// 066   ----------------------------------------
	BYTE	PATT
	 POIN2	Trombe_4_018
// 067   ----------------------------------------
	BYTE	PATT
	 POIN2	Trombe_4_019
// 068   ----------------------------------------
	BYTE	PATT
	 POIN2	Trombe_4_020
// 069   ----------------------------------------
	BYTE	PATT
	 POIN2	Trombe_4_021
// 070   ----------------------------------------
	BYTE	PATT
	 POIN2	Trombe_4_022
// 071   ----------------------------------------
	BYTE	PATT
	 POIN2	Trombe_4_023
// 072   ----------------------------------------
	BYTE	PATT
	 POIN2	Trombe_4_024
// 073   ----------------------------------------
	BYTE	PATT
	 POIN2	Trombe_4_025
// 074   ----------------------------------------
	BYTE	PATT
	 POIN2	Trombe_4_026
// 075   ----------------------------------------
	BYTE	PATT
	 POIN2	Trombe_4_027
// 076   ----------------------------------------
	BYTE	PATT
	 POIN2	Trombe_4_028
// 077   ----------------------------------------
	BYTE	PATT
	 POIN2	Trombe_4_029
// 078   ----------------------------------------
	BYTE	PATT
	 POIN2	Trombe_4_030
// 079   ----------------------------------------
	BYTE	PATT
	 POIN2	Trombe_4_031
// 080   ----------------------------------------
	BYTE	PATT
	 POIN2	Trombe_4_032
// 081   ----------------------------------------
	BYTE	PATT
	 POIN2	Trombe_4_033
// 082   ----------------------------------------
	BYTE	PATT
	 POIN2	Trombe_4_033
// 083   ----------------------------------------
	BYTE	PATT
	 POIN2	Trombe_4_033
// 084   ----------------------------------------
	BYTE	PATT
	 POIN2	Trombe_4_033
// 085   ----------------------------------------
	BYTE	PATT
	 POIN2	Trombe_4_033
// 086   ----------------------------------------
	BYTE	PATT
	 POIN2	Trombe_4_033
// 087   ----------------------------------------
	BYTE	PATT
	 POIN2	Trombe_4_039
// 088   ----------------------------------------
	BYTE	PATT
	 POIN2	Trombe_4_040
// 089   ----------------------------------------
	BYTE	PATT
	 POIN2	Trombe_4_041
// 090   ----------------------------------------
	BYTE	PATT
	 POIN2	Trombe_4_042
// 091   ----------------------------------------
	BYTE	PATT
	 POIN2	Trombe_4_043
// 092   ----------------------------------------
	BYTE	PATT
	 POIN2	Trombe_4_044
// 093   ----------------------------------------
	BYTE	PATT
	 POIN2	Trombe_4_041
// 094   ----------------------------------------
	BYTE	PATT
	 POIN2	Trombe_4_046
// 095   ----------------------------------------
	BYTE		N06     As3   v127
	BYTE	W06
	BYTE		        Dn4 
	BYTE	W06
	BYTE		        Ds4 
	BYTE	W06
	BYTE		        Gn4 
	BYTE	W06
	BYTE		        As4 
	BYTE	W06
	BYTE		        Dn5 
	BYTE	W06
	BYTE		        Ds5 
	BYTE	W06
	BYTE		        Gn5 
	BYTE	W06
	BYTE		        As5 
	BYTE	W24
	BYTE	GoTo
	 POIN2	Trombe_4_B1
Trombe_4_B2:
	BYTE	W24
// 096   ----------------------------------------
	BYTE	W60
	BYTE	FINE

//**************** Track 5 (Midi-Chn.5) ****************//

Trombe_5:
	BYTE	KEYSH   Trombe_key+0
Trombe_5_B1:
// 000   ----------------------------------------
	BYTE		VOICE   40
	BYTE		VOL     55*Trombe_mvl/mxv
	BYTE		PAN     c_v+0
	BYTE		BEND    c_v+0
	BYTE	W96
// 001   ----------------------------------------
	BYTE	W96
// 002   ----------------------------------------
	BYTE	W96
// 003   ----------------------------------------
	BYTE	W96
// 004   ----------------------------------------
	BYTE	W96
// 005   ----------------------------------------
	BYTE	W96
// 006   ----------------------------------------
	BYTE	W96
// 007   ----------------------------------------
	BYTE	W96
// 008   ----------------------------------------
Trombe_5_008:
	BYTE	W60
	BYTE		N12     Bn1   v127
	BYTE	W12
	BYTE		N06     Bn0 
	BYTE	W12
	BYTE		N06   
	BYTE	W12
	BYTE	PEND
// 009   ----------------------------------------
Trombe_5_009:
	BYTE		N12     Bn1   v127
	BYTE	W12
	BYTE		N06     Bn0 
	BYTE	W12
	BYTE		N06   
	BYTE	W12
	BYTE		N12     Bn1 
	BYTE	W12
	BYTE		N06     Bn0 
	BYTE	W12
	BYTE		N12     Bn1 
	BYTE	W12
	BYTE		N06     Bn0 
	BYTE	W12
	BYTE		N06   
	BYTE	W12
	BYTE	PEND
// 010   ----------------------------------------
Trombe_5_010:
	BYTE		N12     Bn1   v127
	BYTE	W12
	BYTE		N06     Bn0 
	BYTE	W12
	BYTE		N06   
	BYTE	W12
	BYTE		N12     Bn1 
	BYTE	W12
	BYTE		N06     Bn0 
	BYTE	W12
	BYTE		N12     Gn1 
	BYTE	W12
	BYTE		N06     Gn0 
	BYTE	W12
	BYTE		N06   
	BYTE	W12
	BYTE	PEND
// 011   ----------------------------------------
Trombe_5_011:
	BYTE		N12     Gn1   v127
	BYTE	W12
	BYTE		N06     Gn0 
	BYTE	W12
	BYTE		N06   
	BYTE	W12
	BYTE		N12     Gn1 
	BYTE	W12
	BYTE		N06     Gn0 
	BYTE	W12
	BYTE		N12     Gn1 
	BYTE	W12
	BYTE		N06     Gn0 
	BYTE	W12
	BYTE		N06   
	BYTE	W12
	BYTE	PEND
// 012   ----------------------------------------
Trombe_5_012:
	BYTE		N12     Gn1   v127
	BYTE	W12
	BYTE		N06     Gn0 
	BYTE	W12
	BYTE		N06   
	BYTE	W12
	BYTE		N12     Gn1 
	BYTE	W12
	BYTE		N06     Gn0 
	BYTE	W12
	BYTE		N12     En1 
	BYTE	W12
	BYTE		N06     En0 
	BYTE	W12
	BYTE		N06   
	BYTE	W12
	BYTE	PEND
// 013   ----------------------------------------
Trombe_5_013:
	BYTE		N12     En1   v127
	BYTE	W12
	BYTE		N06     En0 
	BYTE	W12
	BYTE		N06   
	BYTE	W12
	BYTE		N12     En1 
	BYTE	W12
	BYTE		N06     En0 
	BYTE	W12
	BYTE		N12     Fs1 
	BYTE	W12
	BYTE		N06     Fs0 
	BYTE	W12
	BYTE		N06   
	BYTE	W12
	BYTE	PEND
// 014   ----------------------------------------
Trombe_5_014:
	BYTE		N12     Fs1   v127
	BYTE	W12
	BYTE		N06     Fs0 
	BYTE	W12
	BYTE		N06   
	BYTE	W12
	BYTE		N12     Fs1 
	BYTE	W12
	BYTE		N06     Fs0 
	BYTE	W11
	BYTE		BEND    c_v-64
	BYTE	W01
	BYTE		N44     Fs3 
	BYTE		N44     Bn3 
	BYTE	W01
	BYTE		BEND    c_v-55
	BYTE	W03
	BYTE		        c_v-37
	BYTE	W02
	BYTE		        c_v-30
	BYTE	W02
	BYTE		        c_v-14
	BYTE	W03
	BYTE		        c_v-6
	BYTE	W01
	BYTE		        c_v+0
	BYTE	W24
	BYTE	PEND
// 015   ----------------------------------------
Trombe_5_015:
	BYTE	W08
	BYTE		BEND    c_v-12
	BYTE	W03
	BYTE		        c_v-18
	BYTE	W01
	BYTE		N11     Fs3   v127
	BYTE		N11     Bn3 
	BYTE	W04
	BYTE		BEND    c_v-33
	BYTE	W01
	BYTE		        c_v-39
	BYTE	W04
	BYTE		        c_v-49
	BYTE	W03
	BYTE		        c_v-53
	BYTE		N11     Dn3 
	BYTE		N11     Fs3 
	BYTE	W04
	BYTE		BEND    c_v+0
	BYTE	W08
	BYTE		N11   
	BYTE		N11     An3 
	BYTE	W12
	BYTE		        Fs3 
	BYTE		N11     Bn3 
	BYTE	W48
	BYTE	PEND
// 016   ----------------------------------------
	BYTE	W96
// 017   ----------------------------------------
	BYTE	W96
// 018   ----------------------------------------
	BYTE	W96
// 019   ----------------------------------------
	BYTE	W96
// 020   ----------------------------------------
	BYTE	W96
// 021   ----------------------------------------
	BYTE	W96
// 022   ----------------------------------------
	BYTE	W96
// 023   ----------------------------------------
	BYTE	W96
// 024   ----------------------------------------
Trombe_5_024:
	BYTE	W32
	BYTE	W02
	BYTE		BEND    c_v-63
	BYTE	W01
	BYTE		        c_v-57
	BYTE	W01
	BYTE		        c_v-49
	BYTE		N24     Gn1   v104
	BYTE		N24     Fs2 
	BYTE	W02
	BYTE		BEND    c_v-33
	BYTE	W01
	BYTE		        c_v-22
	BYTE	W01
	BYTE		        c_v-10
	BYTE	W02
	BYTE		        c_v+0
	BYTE	W01
	BYTE		        c_v+29
	BYTE	W01
	BYTE		        c_v+46
	BYTE	W01
	BYTE		        c_v+60
	BYTE	W02
	BYTE		        c_v+63
	BYTE	W02
	BYTE		        c_v+50
	BYTE	W02
	BYTE		        c_v+44
	BYTE	W01
	BYTE		        c_v+32
	BYTE	W01
	BYTE		        c_v+9
	BYTE	W01
	BYTE		        c_v-4
	BYTE	W02
	BYTE		        c_v-12
	BYTE	W01
	BYTE		        c_v-24
	BYTE	W01
	BYTE		        c_v-35
	BYTE	W01
	BYTE		        c_v-57
	BYTE	W01
	BYTE		        c_v+0
	BYTE		N05     En1 
	BYTE		N05     En2 
	BYTE	W12
	BYTE		        En1 
	BYTE		N05     En2 
	BYTE	W12
	BYTE		        En1 
	BYTE		N05     En2 
	BYTE	W12
	BYTE	PEND
// 025   ----------------------------------------
Trombe_5_025:
	BYTE		N23     En1   v104
	BYTE		N23     En2 
	BYTE	W24
	BYTE		N11     En1 
	BYTE		N11     En2 
	BYTE	W12
	BYTE		N05     En1 
	BYTE		N05     En2 
	BYTE	W12
	BYTE		        En1 
	BYTE		N05     En2 
	BYTE	W12
	BYTE		        An1 
	BYTE		N05     An2 
	BYTE	W12
	BYTE		        An1 
	BYTE		N05     An2 
	BYTE	W12
	BYTE		        An1 
	BYTE		N05     An2 
	BYTE	W12
	BYTE	PEND
// 026   ----------------------------------------
Trombe_5_026:
	BYTE		N23     An1   v104
	BYTE		N23     An2 
	BYTE	W24
	BYTE		N11     An1 
	BYTE		N11     An2 
	BYTE	W12
	BYTE		N05     An1 
	BYTE		N05     An2 
	BYTE	W12
	BYTE		        An1 
	BYTE		N05     An2 
	BYTE	W12
	BYTE		        Fs1 
	BYTE		N05     Fs2 
	BYTE	W12
	BYTE		        Fs1 
	BYTE		N05     Fs2 
	BYTE	W12
	BYTE		        Fs1 
	BYTE		N05     Fs2 
	BYTE	W12
	BYTE	PEND
// 027   ----------------------------------------
Trombe_5_027:
	BYTE		N23     Fs1   v104
	BYTE		N23     Fs2 
	BYTE	W24
	BYTE		N11     Fs1 
	BYTE		N11     Fs2 
	BYTE	W12
	BYTE		N05     Fs1 
	BYTE		N05     Fs2 
	BYTE	W12
	BYTE		        Fs1 
	BYTE		N05     Fs2 
	BYTE	W12
	BYTE		        Bn1 
	BYTE		N05     Bn2 
	BYTE	W12
	BYTE		        Bn1 
	BYTE		N05     Bn2 
	BYTE	W12
	BYTE		        Bn1 
	BYTE		N05     Bn2 
	BYTE	W12
	BYTE	PEND
// 028   ----------------------------------------
Trombe_5_028:
	BYTE		N23     Bn1   v104
	BYTE		N23     Bn2 
	BYTE	W24
	BYTE		N11     An1 
	BYTE		N11     An2 
	BYTE	W12
	BYTE		N05     An1 
	BYTE		N05     An2 
	BYTE	W12
	BYTE		        Fs1 
	BYTE		N05     Fs2 
	BYTE	W12
	BYTE		        Gn1 
	BYTE		N05     Gn2 
	BYTE	W12
	BYTE		        Gn1 
	BYTE		N05     Gn2 
	BYTE	W12
	BYTE		        Gn1 
	BYTE		N05     Gn2 
	BYTE	W12
	BYTE	PEND
// 029   ----------------------------------------
Trombe_5_029:
	BYTE		N23     Gn1   v104
	BYTE		N23     Gn2 
	BYTE	W24
	BYTE		N11     Gn1 
	BYTE		N11     Gn2 
	BYTE	W12
	BYTE		N05     Gn1 
	BYTE		N05     Gn2 
	BYTE	W12
	BYTE		        Gn1 
	BYTE		N05     Gn2 
	BYTE	W12
	BYTE		        Gn1 
	BYTE		N05     Gn2 
	BYTE	W12
	BYTE		        Gn1 
	BYTE		N05     Gn2 
	BYTE	W12
	BYTE		        Gn1 
	BYTE		N05     Gn2 
	BYTE	W12
	BYTE	PEND
// 030   ----------------------------------------
Trombe_5_030:
	BYTE		N23     Gn1   v104
	BYTE		N23     Gn2 
	BYTE	W24
	BYTE		N11     Gn1 
	BYTE		N11     Gn2 
	BYTE	W12
	BYTE		N05     Gn1 
	BYTE		N05     Gn2 
	BYTE	W12
	BYTE		        Gn1 
	BYTE		N05     Gn2 
	BYTE	W12
	BYTE		N96     An1 
	BYTE		N96     An2 
	BYTE	W36
	BYTE	PEND
// 031   ----------------------------------------
	BYTE	W96
// 032   ----------------------------------------
Trombe_5_032:
	BYTE		N10     Dn3   v127
	BYTE		N10     An3 
	BYTE	W08
	BYTE		BEND    c_v-57
	BYTE	W02
	BYTE		        c_v-45
	BYTE	W02
	BYTE		        c_v-32
	BYTE		N16   
	BYTE		N16     Dn4 
	BYTE	W01
	BYTE		BEND    c_v-20
	BYTE	W02
	BYTE		        c_v-6
	BYTE	W02
	BYTE		        c_v+0
	BYTE	W13
	BYTE		N17     An3 
	BYTE		N16     Cn4 
	BYTE	W18
	BYTE		BEND    c_v-45
	BYTE		N32     Dn3 
	BYTE		N32     Gn3 
	BYTE	W02
	BYTE		BEND    c_v-32
	BYTE	W02
	BYTE		        c_v-20
	BYTE	W01
	BYTE		        c_v-6
	BYTE	W03
	BYTE		        c_v+0
	BYTE	W40
	BYTE	PEND
// 033   ----------------------------------------
Trombe_5_033:
	BYTE		N10     Fn3   v127
	BYTE		N10     An3 
	BYTE	W12
	BYTE		BEND    c_v-45
	BYTE		N16   
	BYTE		N16     Dn4 
	BYTE	W02
	BYTE		BEND    c_v-32
	BYTE	W02
	BYTE		        c_v-20
	BYTE	W01
	BYTE		        c_v-6
	BYTE	W03
	BYTE		        c_v+0
	BYTE	W10
	BYTE		N17     An3 
	BYTE		N16     Cn4 
	BYTE	W18
	BYTE		BEND    c_v-45
	BYTE		N56     Dn3 
	BYTE		N56     Gn3 
	BYTE	W02
	BYTE		BEND    c_v-32
	BYTE	W02
	BYTE		        c_v-20
	BYTE	W01
	BYTE		        c_v-6
	BYTE	W03
	BYTE		        c_v+0
	BYTE	W30
	BYTE		        c_v-14
	BYTE	W10
	BYTE	PEND
// 034   ----------------------------------------
Trombe_5_034:
	BYTE	W03
	BYTE		BEND    c_v-20
	BYTE	W06
	BYTE		        c_v-28
	BYTE	W15
	BYTE		        c_v-45
	BYTE		N10     Dn3   v127
	BYTE		N10     Fn3 
	BYTE	W02
	BYTE		BEND    c_v-32
	BYTE	W02
	BYTE		        c_v-20
	BYTE	W01
	BYTE		        c_v-6
	BYTE	W03
	BYTE		        c_v+0
	BYTE	W04
	BYTE		N10     Dn3 
	BYTE		N10     Fn3 
	BYTE	W12
	BYTE		        Dn3 
	BYTE		N10     Gn3 
	BYTE	W12
	BYTE		BEND    c_v-45
	BYTE		N22     Fn3 
	BYTE		N22     An3 
	BYTE	W02
	BYTE		BEND    c_v-32
	BYTE	W02
	BYTE		        c_v-20
	BYTE	W01
	BYTE		        c_v-6
	BYTE	W03
	BYTE		        c_v+0
	BYTE	W16
	BYTE		N10     Fn3 
	BYTE		N10     As3 
	BYTE	W12
	BYTE	PEND
// 035   ----------------------------------------
Trombe_5_035:
	BYTE		N22     Fn3   v127
	BYTE		N22     An3 
	BYTE	W24
	BYTE		BEND    c_v-45
	BYTE		N22     En3 
	BYTE		N22     Gn3 
	BYTE	W02
	BYTE		BEND    c_v-32
	BYTE	W02
	BYTE		        c_v-20
	BYTE	W01
	BYTE		        c_v-6
	BYTE	W03
	BYTE		        c_v+0
	BYTE	W10
	BYTE		        c_v-10
	BYTE	W01
	BYTE		        c_v-18
	BYTE	W01
	BYTE		        c_v-30
	BYTE	W01
	BYTE		        c_v-37
	BYTE	W01
	BYTE		        c_v-47
	BYTE	W02
	BYTE		        c_v-45
	BYTE		N44     Dn3 
	BYTE		N44     Fn3 
	BYTE	W02
	BYTE		BEND    c_v-32
	BYTE	W02
	BYTE		        c_v-20
	BYTE	W01
	BYTE		        c_v-6
	BYTE	W03
	BYTE		        c_v+0
	BYTE	W40
	BYTE	PEND
// 036   ----------------------------------------
Trombe_5_036:
	BYTE		N10     Fn3   v127
	BYTE		N10     An3 
	BYTE	W12
	BYTE		N16   
	BYTE		N16     Dn4 
	BYTE	W18
	BYTE		N17     An3 
	BYTE		N16     Cn4 
	BYTE	W18
	BYTE		BEND    c_v-45
	BYTE		N44     Dn3 
	BYTE		N44     Gn3 
	BYTE	W02
	BYTE		BEND    c_v-32
	BYTE	W02
	BYTE		        c_v-20
	BYTE	W01
	BYTE		        c_v-6
	BYTE	W03
	BYTE		        c_v+0
	BYTE	W40
	BYTE	PEND
// 037   ----------------------------------------
Trombe_5_037:
	BYTE		N10     Gn3   v127
	BYTE		N10     Cn4 
	BYTE	W12
	BYTE		N16     An3 
	BYTE		N16     Dn4 
	BYTE	W18
	BYTE		N17     Gn3 
	BYTE		N16     Cn4 
	BYTE	W18
	BYTE		BEND    c_v-45
	BYTE		N80   
	BYTE		N80     En4 
	BYTE	W02
	BYTE		BEND    c_v-32
	BYTE	W02
	BYTE		        c_v-20
	BYTE	W01
	BYTE		        c_v-6
	BYTE	W03
	BYTE		        c_v+0
	BYTE	W40
	BYTE	PEND
// 038   ----------------------------------------
Trombe_5_038:
	BYTE	W05
	BYTE		BEND    c_v-6
	BYTE	W07
	BYTE		        c_v-14
	BYTE	W04
	BYTE		        c_v-22
	BYTE	W07
	BYTE		        c_v-30
	BYTE	W05
	BYTE		        c_v-33
	BYTE	W04
	BYTE		        c_v-39
	BYTE	W04
	BYTE		        c_v-45
	BYTE		N10     Cn4   v127
	BYTE		N10     En4 
	BYTE	W02
	BYTE		BEND    c_v-32
	BYTE	W02
	BYTE		        c_v-20
	BYTE	W01
	BYTE		        c_v-6
	BYTE	W03
	BYTE		        c_v+0
	BYTE	W04
	BYTE		N10     Cn4 
	BYTE		N10     Fn4 
	BYTE	W12
	BYTE		BEND    c_v-45
	BYTE		N22     Dn4 
	BYTE		N22     Gn4 
	BYTE	W02
	BYTE		BEND    c_v-32
	BYTE	W02
	BYTE		        c_v-20
	BYTE	W01
	BYTE		        c_v-6
	BYTE	W03
	BYTE		        c_v+0
	BYTE	W16
	BYTE		N10     Dn4 
	BYTE		N10     Fn4 
	BYTE	W12
	BYTE	PEND
// 039   ----------------------------------------
Trombe_5_039:
	BYTE		N22     Dn4   v127
	BYTE		N22     Gn4 
	BYTE	W24
	BYTE		BEND    c_v-45
	BYTE		N22     En4 
	BYTE		N22     An4 
	BYTE	W02
	BYTE		BEND    c_v-32
	BYTE	W02
	BYTE		        c_v-20
	BYTE	W01
	BYTE		        c_v-6
	BYTE	W03
	BYTE		        c_v+0
	BYTE	W16
	BYTE		N32     An3 
	BYTE		N32     En4 
	BYTE	W48
	BYTE	PEND
// 040   ----------------------------------------
Trombe_5_040:
	BYTE		N10     En3   v127
	BYTE		N10     An3 
	BYTE	W12
	BYTE		BEND    c_v-45
	BYTE		N16   
	BYTE		N16     Dn4 
	BYTE	W02
	BYTE		BEND    c_v-32
	BYTE	W02
	BYTE		        c_v-20
	BYTE	W01
	BYTE		        c_v-6
	BYTE	W03
	BYTE		        c_v+0
	BYTE	W10
	BYTE		N17     An3 
	BYTE		N16     Cn4 
	BYTE	W18
	BYTE		N40     Dn3 
	BYTE		N40     Gn3 
	BYTE	W21
	BYTE		BEND    c_v-10
	BYTE	W04
	BYTE		        c_v-20
	BYTE	W05
	BYTE		        c_v-28
	BYTE	W04
	BYTE		        c_v-30
	BYTE	W04
	BYTE		        c_v-33
	BYTE	W05
	BYTE		        c_v-39
	BYTE	W05
	BYTE	PEND
// 041   ----------------------------------------
Trombe_5_041:
	BYTE		BEND    c_v-45
	BYTE		N10     En3   v127
	BYTE		N10     An3 
	BYTE	W02
	BYTE		BEND    c_v-32
	BYTE	W02
	BYTE		        c_v-20
	BYTE	W01
	BYTE		        c_v-6
	BYTE	W03
	BYTE		        c_v+0
	BYTE	W04
	BYTE		N17   
	BYTE		N16     Dn4 
	BYTE	W18
	BYTE		N17     An3 
	BYTE		N16     Cn4 
	BYTE	W18
	BYTE		BEND    c_v-45
	BYTE		N56   
	BYTE		N56     En4 
	BYTE	W02
	BYTE		BEND    c_v-32
	BYTE	W02
	BYTE		        c_v-20
	BYTE	W01
	BYTE		        c_v-6
	BYTE	W03
	BYTE		        c_v+0
	BYTE	W40
	BYTE	PEND
// 042   ----------------------------------------
Trombe_5_042:
	BYTE	W24
	BYTE		N10     Cn4   v127
	BYTE		N10     En4 
	BYTE	W12
	BYTE		        Cn4 
	BYTE		N10     En4 
	BYTE	W12
	BYTE		        Dn4 
	BYTE		N10     Fn4 
	BYTE	W12
	BYTE		BEND    c_v-45
	BYTE		N32     En4 
	BYTE		N32     Gn4 
	BYTE	W02
	BYTE		BEND    c_v-32
	BYTE	W02
	BYTE		        c_v-20
	BYTE	W01
	BYTE		        c_v-6
	BYTE	W03
	BYTE		        c_v+0
	BYTE	W28
	BYTE	PEND
// 043   ----------------------------------------
Trombe_5_043:
	BYTE		N10     En4   v127
	BYTE		N10     Gn4 
	BYTE	W12
	BYTE		BEND    c_v-45
	BYTE		N22   
	BYTE		N22     As4 
	BYTE	W02
	BYTE		BEND    c_v-32
	BYTE	W02
	BYTE		        c_v-20
	BYTE	W01
	BYTE		        c_v-6
	BYTE	W03
	BYTE		        c_v+0
	BYTE	W16
	BYTE		N10     Fn4 
	BYTE		N10     An4 
	BYTE	W12
	BYTE		BEND    c_v-45
	BYTE		N22     En4 
	BYTE		N22     Gn4 
	BYTE	W02
	BYTE		BEND    c_v-32
	BYTE	W02
	BYTE		        c_v-20
	BYTE	W01
	BYTE		        c_v-6
	BYTE	W03
	BYTE		        c_v+0
	BYTE	W16
	BYTE		        c_v-45
	BYTE		N10     Fn4 
	BYTE		N10     An4 
	BYTE	W02
	BYTE		BEND    c_v-32
	BYTE	W02
	BYTE		        c_v-20
	BYTE	W01
	BYTE		        c_v-6
	BYTE	W03
	BYTE		        c_v+0
	BYTE	W04
	BYTE		N22     Dn4 
	BYTE		N22     Fn4 
	BYTE	W12
	BYTE	PEND
// 044   ----------------------------------------
Trombe_5_044:
	BYTE		BEND    c_v-10
	BYTE	W04
	BYTE		        c_v-20
	BYTE	W04
	BYTE		        c_v-28
	BYTE	W01
	BYTE		        c_v-33
	BYTE	W02
	BYTE		        c_v-43
	BYTE	W01
	BYTE		        c_v-45
	BYTE		N16     Cn4   v127
	BYTE		N16     En4 
	BYTE	W01
	BYTE		BEND    c_v-49
	BYTE	W01
	BYTE		        c_v-32
	BYTE	W01
	BYTE		        c_v-55
	BYTE	W01
	BYTE		        c_v-20
	BYTE	W01
	BYTE		        c_v-6
	BYTE	W03
	BYTE		        c_v+0
	BYTE	W10
	BYTE		N16     As3 
	BYTE		N16     Dn4 
	BYTE	W18
	BYTE		N10     An3 
	BYTE		N10     Cn4 
	BYTE	W12
	BYTE		BEND    c_v-45
	BYTE		N56     As3 
	BYTE		N56     Dn4 
	BYTE	W02
	BYTE		BEND    c_v-32
	BYTE	W02
	BYTE		        c_v-20
	BYTE	W01
	BYTE		        c_v-6
	BYTE	W03
	BYTE		        c_v+0
	BYTE	W28
	BYTE	PEND
// 045   ----------------------------------------
Trombe_5_045:
	BYTE	W24
	BYTE		N10     As3   v127
	BYTE		N10     Dn4 
	BYTE	W12
	BYTE		BEND    c_v-45
	BYTE		N10   
	BYTE		N10     Gn4 
	BYTE	W02
	BYTE		BEND    c_v-32
	BYTE	W02
	BYTE		        c_v-20
	BYTE	W01
	BYTE		        c_v-6
	BYTE	W03
	BYTE		        c_v+0
	BYTE	W04
	BYTE		N44     Cn4 
	BYTE		N44     En4 
	BYTE	W24
	BYTE		BEND    c_v-6
	BYTE	W03
	BYTE		        c_v-10
	BYTE	W04
	BYTE		        c_v-20
	BYTE	W03
	BYTE		        c_v-26
	BYTE	W03
	BYTE		        c_v-33
	BYTE	W03
	BYTE		        c_v-37
	BYTE	W04
	BYTE		        c_v-43
	BYTE	W03
	BYTE		        c_v-51
	BYTE	W01
	BYTE	PEND
// 046   ----------------------------------------
Trombe_5_046:
	BYTE		BEND    c_v-45
	BYTE		N10     Cn4   v127
	BYTE		N10     En4 
	BYTE	W02
	BYTE		BEND    c_v-32
	BYTE	W02
	BYTE		        c_v-20
	BYTE	W01
	BYTE		        c_v-6
	BYTE	W03
	BYTE		        c_v+0
	BYTE	W04
	BYTE		N22     An3 
	BYTE		N22     Dn4 
	BYTE	W24
	BYTE		N10     An3 
	BYTE		N10     Cn4 
	BYTE	W12
	BYTE		BEND    c_v-45
	BYTE		TIE     As3 
	BYTE		TIE     Dn4 
	BYTE	W02
	BYTE		BEND    c_v-32
	BYTE	W02
	BYTE		        c_v-20
	BYTE	W01
	BYTE		        c_v-6
	BYTE	W03
	BYTE		        c_v+0
	BYTE	W40
	BYTE	PEND
// 047   ----------------------------------------
Trombe_5_047:
	BYTE	W20
	BYTE		BEND    c_v-6
	BYTE	W07
	BYTE		        c_v-14
	BYTE	W05
	BYTE		        c_v-26
	BYTE	W03
	BYTE		        c_v-30
	BYTE	W07
	BYTE		        c_v-33
	BYTE	W06
	BYTE		        c_v-43
	BYTE	W04
	BYTE		        c_v-45
	BYTE	W04
	BYTE		        c_v-49
	BYTE	W02
	BYTE	PEND
	BYTE		EOT     As3 
	BYTE		        Dn4 
	BYTE	W02
	BYTE		BEND    c_v+0
	BYTE	W36
// 048   ----------------------------------------
	BYTE	W96
// 049   ----------------------------------------
	BYTE	W96
// 050   ----------------------------------------
	BYTE	W96
// 051   ----------------------------------------
	BYTE	W96
// 052   ----------------------------------------
	BYTE	W96
// 053   ----------------------------------------
	BYTE	W96
// 054   ----------------------------------------
	BYTE	W96
// 055   ----------------------------------------
	BYTE	W96
// 056   ----------------------------------------
	BYTE	PATT
	 POIN2	Trombe_5_008
// 057   ----------------------------------------
	BYTE	PATT
	 POIN2	Trombe_5_009
// 058   ----------------------------------------
	BYTE	PATT
	 POIN2	Trombe_5_010
// 059   ----------------------------------------
	BYTE	PATT
	 POIN2	Trombe_5_011
// 060   ----------------------------------------
	BYTE	PATT
	 POIN2	Trombe_5_012
// 061   ----------------------------------------
	BYTE	PATT
	 POIN2	Trombe_5_013
// 062   ----------------------------------------
	BYTE	PATT
	 POIN2	Trombe_5_014
// 063   ----------------------------------------
	BYTE	PATT
	 POIN2	Trombe_5_015
// 064   ----------------------------------------
	BYTE	W96
// 065   ----------------------------------------
	BYTE	W96
// 066   ----------------------------------------
	BYTE	W96
// 067   ----------------------------------------
	BYTE	W96
// 068   ----------------------------------------
	BYTE	W96
// 069   ----------------------------------------
	BYTE	W96
// 070   ----------------------------------------
	BYTE	W96
// 071   ----------------------------------------
	BYTE	W96
// 072   ----------------------------------------
	BYTE	PATT
	 POIN2	Trombe_5_024
// 073   ----------------------------------------
	BYTE	PATT
	 POIN2	Trombe_5_025
// 074   ----------------------------------------
	BYTE	PATT
	 POIN2	Trombe_5_026
// 075   ----------------------------------------
	BYTE	PATT
	 POIN2	Trombe_5_027
// 076   ----------------------------------------
	BYTE	PATT
	 POIN2	Trombe_5_028
// 077   ----------------------------------------
	BYTE	PATT
	 POIN2	Trombe_5_029
// 078   ----------------------------------------
	BYTE	PATT
	 POIN2	Trombe_5_030
// 079   ----------------------------------------
	BYTE	W96
// 080   ----------------------------------------
	BYTE	PATT
	 POIN2	Trombe_5_032
// 081   ----------------------------------------
	BYTE	PATT
	 POIN2	Trombe_5_033
// 082   ----------------------------------------
	BYTE	PATT
	 POIN2	Trombe_5_034
// 083   ----------------------------------------
	BYTE	PATT
	 POIN2	Trombe_5_035
// 084   ----------------------------------------
	BYTE	PATT
	 POIN2	Trombe_5_036
// 085   ----------------------------------------
	BYTE	PATT
	 POIN2	Trombe_5_037
// 086   ----------------------------------------
	BYTE	PATT
	 POIN2	Trombe_5_038
// 087   ----------------------------------------
	BYTE	PATT
	 POIN2	Trombe_5_039
// 088   ----------------------------------------
	BYTE	PATT
	 POIN2	Trombe_5_040
// 089   ----------------------------------------
	BYTE	PATT
	 POIN2	Trombe_5_041
// 090   ----------------------------------------
	BYTE	PATT
	 POIN2	Trombe_5_042
// 091   ----------------------------------------
	BYTE	PATT
	 POIN2	Trombe_5_043
// 092   ----------------------------------------
	BYTE	PATT
	 POIN2	Trombe_5_044
// 093   ----------------------------------------
	BYTE	PATT
	 POIN2	Trombe_5_045
// 094   ----------------------------------------
	BYTE	PATT
	 POIN2	Trombe_5_046
// 095   ----------------------------------------
	BYTE	PATT
	 POIN2	Trombe_5_047
	BYTE		EOT     As3 
	BYTE		        Dn4 
	BYTE	W02
	BYTE		BEND    c_v+0
	BYTE	W12
	BYTE	GoTo
	 POIN2	Trombe_5_B1
Trombe_5_B2:
	BYTE	W24
// 096   ----------------------------------------
	BYTE	W60
	BYTE	FINE

//**************** Track 6 (Midi-Chn.6) ****************//

Trombe_6:
	BYTE	KEYSH   Trombe_key+0
Trombe_6_B1:
// 000   ----------------------------------------
	BYTE		VOICE   48
	BYTE		VOL     49*Trombe_mvl/mxv
	BYTE		PAN     c_v+0
	BYTE	W60
	BYTE		N96     Bn2   v127
	BYTE		N96     Dn3 
	BYTE		N96     Fs3 
	BYTE	W36
// 001   ----------------------------------------
Trombe_6_001:
	BYTE	W60
	BYTE		N96     Bn2   v127
	BYTE		N96     Dn3 
	BYTE		N96     Fs3 
	BYTE	W36
	BYTE	PEND
// 002   ----------------------------------------
	BYTE	PATT
	 POIN2	Trombe_6_001
// 003   ----------------------------------------
	BYTE	PATT
	 POIN2	Trombe_6_001
// 004   ----------------------------------------
Trombe_6_004:
	BYTE	W60
	BYTE		N96     An2   v127
	BYTE		N96     Cs3 
	BYTE		N96     En3 
	BYTE	W36
	BYTE	PEND
// 005   ----------------------------------------
	BYTE	PATT
	 POIN2	Trombe_6_004
// 006   ----------------------------------------
Trombe_6_006:
	BYTE	W60
	BYTE		N84     Dn3   v127
	BYTE		N84     Fs3 
	BYTE		N84     An3 
	BYTE	W36
	BYTE	PEND
// 007   ----------------------------------------
Trombe_6_007:
	BYTE	W60
	BYTE		N12     En3   v127
	BYTE		N12     Fs3 
	BYTE		N12     As3 
	BYTE	W36
	BYTE	PEND
// 008   ----------------------------------------
Trombe_6_008:
	BYTE	W60
	BYTE		TIE     Bn2   v127
	BYTE		TIE     Dn3 
	BYTE		TIE     Fs3 
	BYTE		TIE     Fs4 
	BYTE	W36
	BYTE	PEND
// 009   ----------------------------------------
	BYTE	W96
// 010   ----------------------------------------
	BYTE	W12
	BYTE		EOT   
	BYTE		N24     Dn4 
	BYTE	W24
	BYTE		        En4 
	BYTE	W24
	BYTE		EOT     Bn2 
	BYTE		        Dn3 
	BYTE		        Fs3 
	BYTE		TIE     Bn2 
	BYTE		TIE     Dn3 
	BYTE		TIE     Fs3 
	BYTE		N96     Fs4 
	BYTE	W36
// 011   ----------------------------------------
	BYTE	W60
	BYTE		N48     Bn4 
	BYTE	W36
// 012   ----------------------------------------
	BYTE	W12
	BYTE		        Dn4 
	BYTE	W48
	BYTE		EOT     Bn2 
	BYTE		        Dn3 
	BYTE		        Fs3 
	BYTE		N96     An2 
	BYTE		N96     Cs3 
	BYTE		N96     En3 
	BYTE		N72     En4 
	BYTE	W36
// 013   ----------------------------------------
Trombe_6_013:
	BYTE	W36
	BYTE		N24     Dn4   v127
	BYTE	W24
	BYTE		N48     An2 
	BYTE		N48     Cs3 
	BYTE		N36     Cs4 
	BYTE	W36
	BYTE	PEND
// 014   ----------------------------------------
Trombe_6_014:
	BYTE		N36     Dn4   v127
	BYTE	W12
	BYTE		N48     Bn2 
	BYTE		N48     Dn3 
	BYTE	W24
	BYTE		N24     En4 
	BYTE	W24
	BYTE		N96     Bn2 
	BYTE		N96     Dn3 
	BYTE		N96     Fs3 
	BYTE		N96     Fs4 
	BYTE	W36
	BYTE	PEND
// 015   ----------------------------------------
	BYTE	W96
// 016   ----------------------------------------
Trombe_6_016:
	BYTE	W60
	BYTE		N96     Bn2   v127
	BYTE		N96     En3 
	BYTE		N96     Gn3 
	BYTE	W36
	BYTE	PEND
// 017   ----------------------------------------
	BYTE	PATT
	 POIN2	Trombe_6_004
// 018   ----------------------------------------
Trombe_6_018:
	BYTE	W60
	BYTE		N96     An2   v127
	BYTE		N96     Dn3 
	BYTE		N96     Fs3 
	BYTE	W36
	BYTE	PEND
// 019   ----------------------------------------
	BYTE	PATT
	 POIN2	Trombe_6_001
// 020   ----------------------------------------
Trombe_6_020:
	BYTE	W60
	BYTE		N96     Bn2   v127
	BYTE		N96     En3 
	BYTE		N96     Fs3 
	BYTE	W36
	BYTE	PEND
// 021   ----------------------------------------
Trombe_6_021:
	BYTE	W60
	BYTE		N96     As2   v127
	BYTE		N96     Cs3 
	BYTE		N96     En3 
	BYTE	W36
	BYTE	PEND
// 022   ----------------------------------------
Trombe_6_022:
	BYTE	W60
	BYTE		N36     Fs2   v127
	BYTE		N36     Bn2 
	BYTE		N36     Dn3 
	BYTE	W36
	BYTE	PEND
// 023   ----------------------------------------
Trombe_6_023:
	BYTE		N36     An2   v127
	BYTE		N36     Cs3 
	BYTE		N36     En3 
	BYTE	W36
	BYTE		N72     An2 
	BYTE		N72     Dn3 
	BYTE		N72     Fs3 
	BYTE	W60
	BYTE	PEND
// 024   ----------------------------------------
Trombe_6_024:
	BYTE	W12
	BYTE		N48     Bn2   v127
	BYTE		N48     Ds3 
	BYTE		N48     Fs3 
	BYTE	W48
	BYTE		N96     En3 
	BYTE		N96     Gn3 
	BYTE	W36
	BYTE	PEND
// 025   ----------------------------------------
Trombe_6_025:
	BYTE	W60
	BYTE		N96     Cs3   v127
	BYTE		N96     En3 
	BYTE	W36
	BYTE	PEND
// 026   ----------------------------------------
Trombe_6_026:
	BYTE	W60
	BYTE		N96     Cs3   v127
	BYTE		N96     Fs3 
	BYTE	W36
	BYTE	PEND
// 027   ----------------------------------------
Trombe_6_027:
	BYTE	W60
	BYTE		N48     Bn2   v127
	BYTE		N48     Dn3 
	BYTE	W36
	BYTE	PEND
// 028   ----------------------------------------
Trombe_6_028:
	BYTE	W12
	BYTE		N48     Cs3   v127
	BYTE		N48     En3 
	BYTE	W48
	BYTE		TIE     Bn2 
	BYTE		TIE     Dn3 
	BYTE	W36
	BYTE	PEND
// 029   ----------------------------------------
	BYTE	W96
// 030   ----------------------------------------
	BYTE	W60
	BYTE		EOT     Bn2 
	BYTE		        Dn3 
	BYTE		N96     Cs3 
	BYTE		N96     En3 
	BYTE	W36
// 031   ----------------------------------------
	BYTE	W96
// 032   ----------------------------------------
Trombe_6_032:
	BYTE	W60
	BYTE		N96     Fn1   v127
	BYTE		N96     As1 
	BYTE		N96     Fn2 
	BYTE		N96     As2 
	BYTE	W36
	BYTE	PEND
// 033   ----------------------------------------
Trombe_6_033:
	BYTE	W60
	BYTE		N96     Gn1   v127
	BYTE		N96     Cn2 
	BYTE		N96     Gn2 
	BYTE		N96     Cn3 
	BYTE	W36
	BYTE	PEND
// 034   ----------------------------------------
Trombe_6_034:
	BYTE	W60
	BYTE		N96     An1   v127
	BYTE		N96     Dn2 
	BYTE		N96     An2 
	BYTE		N96     Dn3 
	BYTE	W36
	BYTE	PEND
// 035   ----------------------------------------
Trombe_6_035:
	BYTE	W60
	BYTE		N48     An1   v127
	BYTE		N48     Dn2 
	BYTE		N48     An2 
	BYTE		N48     Dn3 
	BYTE	W36
	BYTE	PEND
// 036   ----------------------------------------
Trombe_6_036:
	BYTE	W12
	BYTE		N48     An1   v127
	BYTE		N48     Cn2 
	BYTE		N48     An2 
	BYTE		N48     Cn3 
	BYTE	W48
	BYTE		N96     Fn1 
	BYTE		N96     As1 
	BYTE		N96     Fn2 
	BYTE		N96     As2 
	BYTE	W36
	BYTE	PEND
// 037   ----------------------------------------
	BYTE	PATT
	 POIN2	Trombe_6_033
// 038   ----------------------------------------
Trombe_6_038:
	BYTE	W60
	BYTE		N96     Cn2   v127
	BYTE		N96     En2 
	BYTE		N96     Cn3 
	BYTE		N96     En3 
	BYTE	W36
	BYTE	PEND
// 039   ----------------------------------------
Trombe_6_039:
	BYTE	W60
	BYTE		N96     Cn2   v127
	BYTE		N48     Fn2 
	BYTE		N96     Cn3 
	BYTE		N48     Fn3 
	BYTE	W36
	BYTE	PEND
// 040   ----------------------------------------
Trombe_6_040:
	BYTE	W12
	BYTE		N48     En2   v127
	BYTE		N48     En3 
	BYTE	W48
	BYTE		N96     As1 
	BYTE		N96     Dn2 
	BYTE		N96     As2 
	BYTE		N96     Dn3 
	BYTE	W36
	BYTE	PEND
// 041   ----------------------------------------
	BYTE	PATT
	 POIN2	Trombe_6_038
// 042   ----------------------------------------
Trombe_6_042:
	BYTE	W60
	BYTE		N96     Cs2   v127
	BYTE		N96     En2 
	BYTE		N96     Cs3 
	BYTE		N96     En3 
	BYTE	W36
	BYTE	PEND
// 043   ----------------------------------------
Trombe_6_043:
	BYTE	W60
	BYTE		N48     Dn2   v127
	BYTE		N48     Fn2 
	BYTE		N48     Dn3 
	BYTE		N48     Fn3 
	BYTE	W36
	BYTE	PEND
// 044   ----------------------------------------
Trombe_6_044:
	BYTE	W12
	BYTE		N48     Cn2   v127
	BYTE		N48     En2 
	BYTE		N48     Cn3 
	BYTE		N48     En3 
	BYTE	W48
	BYTE		N96     As1 
	BYTE		N96     Dn2 
	BYTE		N96     As2 
	BYTE		N96     Dn3 
	BYTE	W36
	BYTE	PEND
// 045   ----------------------------------------
Trombe_6_045:
	BYTE	W60
	BYTE		N96     Dn2   v127
	BYTE		N96     Gn2 
	BYTE		N96     Dn3 
	BYTE		N96     Gn3 
	BYTE	W36
	BYTE	PEND
// 046   ----------------------------------------
Trombe_6_046:
	BYTE	W60
	BYTE		N96     Ds2   v127
	BYTE		N96     Gn2 
	BYTE		N96     Ds3 
	BYTE		N96     Gn3 
	BYTE	W36
	BYTE	PEND
// 047   ----------------------------------------
	BYTE	W96
// 048   ----------------------------------------
	BYTE	PATT
	 POIN2	Trombe_6_001
// 049   ----------------------------------------
	BYTE	PATT
	 POIN2	Trombe_6_001
// 050   ----------------------------------------
	BYTE	PATT
	 POIN2	Trombe_6_001
// 051   ----------------------------------------
	BYTE	PATT
	 POIN2	Trombe_6_001
// 052   ----------------------------------------
	BYTE	PATT
	 POIN2	Trombe_6_004
// 053   ----------------------------------------
	BYTE	PATT
	 POIN2	Trombe_6_004
// 054   ----------------------------------------
	BYTE	PATT
	 POIN2	Trombe_6_006
// 055   ----------------------------------------
	BYTE	PATT
	 POIN2	Trombe_6_007
// 056   ----------------------------------------
	BYTE	PATT
	 POIN2	Trombe_6_008
// 057   ----------------------------------------
	BYTE	W96
// 058   ----------------------------------------
	BYTE	W12
	BYTE		EOT     Fs4 
	BYTE		N24     Dn4   v127
	BYTE	W24
	BYTE		        En4 
	BYTE	W24
	BYTE		EOT     Bn2 
	BYTE		        Dn3 
	BYTE		        Fs3 
	BYTE		TIE     Bn2 
	BYTE		TIE     Dn3 
	BYTE		TIE     Fs3 
	BYTE		N96     Fs4 
	BYTE	W36
// 059   ----------------------------------------
	BYTE	W60
	BYTE		N48     Bn4 
	BYTE	W36
// 060   ----------------------------------------
	BYTE	W12
	BYTE		        Dn4 
	BYTE	W48
	BYTE		EOT     Bn2 
	BYTE		        Dn3 
	BYTE		        Fs3 
	BYTE		N96     An2 
	BYTE		N96     Cs3 
	BYTE		N96     En3 
	BYTE		N72     En4 
	BYTE	W36
// 061   ----------------------------------------
	BYTE	PATT
	 POIN2	Trombe_6_013
// 062   ----------------------------------------
	BYTE	PATT
	 POIN2	Trombe_6_014
// 063   ----------------------------------------
	BYTE	W96
// 064   ----------------------------------------
	BYTE	PATT
	 POIN2	Trombe_6_016
// 065   ----------------------------------------
	BYTE	PATT
	 POIN2	Trombe_6_004
// 066   ----------------------------------------
	BYTE	PATT
	 POIN2	Trombe_6_018
// 067   ----------------------------------------
	BYTE	PATT
	 POIN2	Trombe_6_001
// 068   ----------------------------------------
	BYTE	PATT
	 POIN2	Trombe_6_020
// 069   ----------------------------------------
	BYTE	PATT
	 POIN2	Trombe_6_021
// 070   ----------------------------------------
	BYTE	PATT
	 POIN2	Trombe_6_022
// 071   ----------------------------------------
	BYTE	PATT
	 POIN2	Trombe_6_023
// 072   ----------------------------------------
	BYTE	PATT
	 POIN2	Trombe_6_024
// 073   ----------------------------------------
	BYTE	PATT
	 POIN2	Trombe_6_025
// 074   ----------------------------------------
	BYTE	PATT
	 POIN2	Trombe_6_026
// 075   ----------------------------------------
	BYTE	PATT
	 POIN2	Trombe_6_027
// 076   ----------------------------------------
	BYTE	PATT
	 POIN2	Trombe_6_028
// 077   ----------------------------------------
	BYTE	W96
// 078   ----------------------------------------
	BYTE	W60
	BYTE		EOT     Bn2 
	BYTE		        Dn3 
	BYTE		N96     Cs3   v127
	BYTE		N96     En3 
	BYTE	W36
// 079   ----------------------------------------
	BYTE	W96
// 080   ----------------------------------------
	BYTE	PATT
	 POIN2	Trombe_6_032
// 081   ----------------------------------------
	BYTE	PATT
	 POIN2	Trombe_6_033
// 082   ----------------------------------------
	BYTE	PATT
	 POIN2	Trombe_6_034
// 083   ----------------------------------------
	BYTE	PATT
	 POIN2	Trombe_6_035
// 084   ----------------------------------------
	BYTE	PATT
	 POIN2	Trombe_6_036
// 085   ----------------------------------------
	BYTE	PATT
	 POIN2	Trombe_6_033
// 086   ----------------------------------------
	BYTE	PATT
	 POIN2	Trombe_6_038
// 087   ----------------------------------------
	BYTE	PATT
	 POIN2	Trombe_6_039
// 088   ----------------------------------------
	BYTE	PATT
	 POIN2	Trombe_6_040
// 089   ----------------------------------------
	BYTE	PATT
	 POIN2	Trombe_6_038
// 090   ----------------------------------------
	BYTE	PATT
	 POIN2	Trombe_6_042
// 091   ----------------------------------------
	BYTE	PATT
	 POIN2	Trombe_6_043
// 092   ----------------------------------------
	BYTE	PATT
	 POIN2	Trombe_6_044
// 093   ----------------------------------------
	BYTE	PATT
	 POIN2	Trombe_6_045
// 094   ----------------------------------------
	BYTE	PATT
	 POIN2	Trombe_6_046
// 095   ----------------------------------------
	BYTE	W72
	BYTE	GoTo
	 POIN2	Trombe_6_B1
Trombe_6_B2:
	BYTE	W24
// 096   ----------------------------------------
	BYTE	W60
	BYTE	FINE

//**************** Track 7 (Midi-Chn.7) ****************//

Trombe_7:
	BYTE	KEYSH   Trombe_key+0
Trombe_7_B1:
// 000   ----------------------------------------
	BYTE		VOICE   127
	BYTE		VOL     52*Trombe_mvl/mxv
	BYTE		PAN     c_v+0
	BYTE	W60
	BYTE		N12     Bn0   v127
	BYTE		N12     Fs1 
	BYTE		N48     Cs2 
	BYTE	W12
	BYTE		N12     Bn0 
	BYTE		N12     Fs1 
	BYTE	W12
	BYTE		        Dn1 
	BYTE		N12     As1 
	BYTE	W12
// 001   ----------------------------------------
Trombe_7_001:
	BYTE		N12     Bn0   v127
	BYTE		N12     Gs1 
	BYTE	W12
	BYTE		        Bn0 
	BYTE		N12     Fs1 
	BYTE	W12
	BYTE		        Bn0 
	BYTE		N12     Fs1 
	BYTE	W12
	BYTE		        Dn1 
	BYTE		N12     As1 
	BYTE	W12
	BYTE		        Bn0 
	BYTE		N12     Gs1 
	BYTE	W12
	BYTE		        Bn0 
	BYTE		N12     Fs1 
	BYTE	W12
	BYTE		        Bn0 
	BYTE		N12     Fs1 
	BYTE	W12
	BYTE		        Dn1 
	BYTE		N12     As1 
	BYTE	W12
	BYTE	PEND
// 002   ----------------------------------------
Trombe_7_002:
	BYTE		N12     Bn0   v127
	BYTE		N12     Gs1 
	BYTE	W12
	BYTE		        Bn0 
	BYTE		N12     Fs1 
	BYTE	W12
	BYTE		        Bn0 
	BYTE		N12     Fs1 
	BYTE	W12
	BYTE		        Dn1 
	BYTE		N12     As1 
	BYTE	W12
	BYTE		        Bn0 
	BYTE		N12     Dn1 
	BYTE		N12     Gs1 
	BYTE	W12
	BYTE		        Bn0 
	BYTE		N12     Fs1 
	BYTE	W12
	BYTE		        Bn0 
	BYTE		N12     Fs1 
	BYTE	W12
	BYTE		        Dn1 
	BYTE		N12     As1 
	BYTE	W12
	BYTE	PEND
// 003   ----------------------------------------
	BYTE	PATT
	 POIN2	Trombe_7_001
// 004   ----------------------------------------
Trombe_7_004:
	BYTE		N12     Bn0   v127
	BYTE		N12     Gs1 
	BYTE	W12
	BYTE		        Bn0 
	BYTE		N12     Fs1 
	BYTE	W12
	BYTE		        Dn1 
	BYTE		N12     Fs1 
	BYTE	W12
	BYTE		        Dn1 
	BYTE		N12     As1 
	BYTE		N12     Cs2 
	BYTE	W12
	BYTE		        Bn0 
	BYTE		N12     Gs1 
	BYTE	W12
	BYTE		        Bn0 
	BYTE		N12     Fs1 
	BYTE		N48     Cs2 
	BYTE	W12
	BYTE		N12     Bn0 
	BYTE		N12     Fs1 
	BYTE	W12
	BYTE		        Dn1 
	BYTE		N12     As1 
	BYTE	W12
	BYTE	PEND
// 005   ----------------------------------------
Trombe_7_005:
	BYTE		N12     Bn0   v127
	BYTE		N12     Gs1 
	BYTE	W12
	BYTE		        Bn0 
	BYTE		N12     Fs1 
	BYTE	W12
	BYTE		        Bn0 
	BYTE		N12     Fs1 
	BYTE	W12
	BYTE		        Dn1 
	BYTE		N12     As1 
	BYTE	W12
	BYTE		        Bn0 
	BYTE		N12     Gs1 
	BYTE	W12
	BYTE		        Bn0 
	BYTE		N12     Dn1 
	BYTE		N12     Fs1 
	BYTE		N24     Cs2 
	BYTE	W12
	BYTE		N12     Bn0 
	BYTE		N12     Fs1 
	BYTE	W12
	BYTE		        Dn1 
	BYTE		N12     As1 
	BYTE	W12
	BYTE	PEND
// 006   ----------------------------------------
Trombe_7_006:
	BYTE		N12     Bn0   v127
	BYTE		N12     Gs1 
	BYTE		N24     Cs2 
	BYTE	W12
	BYTE		N12     Bn0 
	BYTE		N12     Fs1 
	BYTE	W12
	BYTE		        Bn0 
	BYTE		N12     Fs1 
	BYTE	W12
	BYTE		        Dn1 
	BYTE		N12     As1 
	BYTE		N24     Cs2 
	BYTE	W12
	BYTE		N12     Bn0 
	BYTE		N12     Dn1 
	BYTE		N12     Gs1 
	BYTE	W12
	BYTE		        Bn0 
	BYTE		N12     Dn1 
	BYTE		N12     Fs1 
	BYTE		N12     Cs2 
	BYTE	W12
	BYTE		        Bn0 
	BYTE		N12     As1 
	BYTE	W12
	BYTE		        Bn0 
	BYTE		N12     Dn1 
	BYTE		N12     Fs1 
	BYTE		N12     Cs2 
	BYTE	W12
	BYTE	PEND
// 007   ----------------------------------------
Trombe_7_007:
	BYTE		N12     Bn0   v127
	BYTE		N12     As1 
	BYTE	W12
	BYTE		        Bn0 
	BYTE		N12     Dn1 
	BYTE		N12     Fs1 
	BYTE		N12     Bn1 
	BYTE		N12     Cs2 
	BYTE	W12
	BYTE		        Bn0 
	BYTE		N12     Dn1 
	BYTE		N12     An1 
	BYTE		N12     As1 
	BYTE		N12     Cs2 
	BYTE	W12
	BYTE		        Bn0 
	BYTE		N12     Dn1 
	BYTE		N12     Fs1 
	BYTE		N12     Gn1 
	BYTE		N12     Cs2 
	BYTE	W12
	BYTE		        Bn0 
	BYTE		N12     Dn1 
	BYTE		N12     Fn1 
	BYTE		N12     As1 
	BYTE		N12     Cs2 
	BYTE	W48
	BYTE	PEND
// 008   ----------------------------------------
Trombe_7_008:
	BYTE	W24
	BYTE		N12     Bn0   v127
	BYTE		N12     An1 
	BYTE	W12
	BYTE		        Bn0 
	BYTE		N12     Gn1 
	BYTE		N12     Cs2 
	BYTE	W24
	BYTE		        Bn0 
	BYTE		N12     Fs1 
	BYTE		N48     Cs2 
	BYTE	W12
	BYTE		N12     Bn0 
	BYTE		N12     Fs1 
	BYTE	W12
	BYTE		        Dn1 
	BYTE		N12     As1 
	BYTE	W12
	BYTE	PEND
// 009   ----------------------------------------
	BYTE	PATT
	 POIN2	Trombe_7_001
// 010   ----------------------------------------
	BYTE	PATT
	 POIN2	Trombe_7_002
// 011   ----------------------------------------
	BYTE	PATT
	 POIN2	Trombe_7_001
// 012   ----------------------------------------
	BYTE	PATT
	 POIN2	Trombe_7_004
// 013   ----------------------------------------
	BYTE	PATT
	 POIN2	Trombe_7_005
// 014   ----------------------------------------
Trombe_7_014:
	BYTE		N12     Bn0   v127
	BYTE		N12     Gs1 
	BYTE		N24     Cs2 
	BYTE	W12
	BYTE		N12     Bn0 
	BYTE		N12     Fs1 
	BYTE	W12
	BYTE		        Bn0 
	BYTE		N12     Fs1 
	BYTE	W12
	BYTE		        Dn1 
	BYTE		N12     As1 
	BYTE		N24     Cs2 
	BYTE	W12
	BYTE		N12     Bn0 
	BYTE		N12     Dn1 
	BYTE		N12     Gs1 
	BYTE	W12
	BYTE		        Bn0 
	BYTE		N12     Dn1 
	BYTE		N12     Fs1 
	BYTE		N24     Cs2 
	BYTE	W12
	BYTE		N12     Bn0 
	BYTE		N12     As1 
	BYTE	W12
	BYTE		        Bn0 
	BYTE		N12     Dn1 
	BYTE		N12     Fs1 
	BYTE		N24     Cs2 
	BYTE	W12
	BYTE	PEND
// 015   ----------------------------------------
Trombe_7_015:
	BYTE		N12     Bn0   v127
	BYTE		N12     As1 
	BYTE	W12
	BYTE		        Bn0 
	BYTE		N12     Dn1 
	BYTE		N12     Fs1 
	BYTE		N12     Bn1 
	BYTE		N12     Cs2 
	BYTE	W12
	BYTE		        Bn0 
	BYTE		N12     Dn1 
	BYTE		N12     An1 
	BYTE		N12     As1 
	BYTE		N12     Cs2 
	BYTE	W12
	BYTE		        Bn0 
	BYTE		N12     Dn1 
	BYTE		N12     Fs1 
	BYTE		N12     Gn1 
	BYTE		N12     Cs2 
	BYTE	W12
	BYTE		        Bn0 
	BYTE		N12     Dn1 
	BYTE		N12     Fn1 
	BYTE		N12     As1 
	BYTE		N36     Cs2 
	BYTE	W48
	BYTE	PEND
// 016   ----------------------------------------
Trombe_7_016:
	BYTE	W24
	BYTE		N12     Bn0   v127
	BYTE		N12     Bn1 
	BYTE	W12
	BYTE		        Bn0 
	BYTE		N12     En1 
	BYTE		N12     Gn1 
	BYTE		N12     As1 
	BYTE		N12     Cs2 
	BYTE	W24
	BYTE		        Bn0 
	BYTE		N12     Fs1 
	BYTE		N48     Cs2 
	BYTE		N12     Fn2 
	BYTE	W12
	BYTE		N06     Gs1 
	BYTE	W06
	BYTE		N06   
	BYTE	W06
	BYTE		N12     As1 
	BYTE	W12
	BYTE	PEND
// 017   ----------------------------------------
Trombe_7_017:
	BYTE		N12     Bn0   v127
	BYTE		N12     Fs1 
	BYTE		N12     Fn2 
	BYTE	W12
	BYTE		        Bn0 
	BYTE		N12     Fs1 
	BYTE		N12     Fn2 
	BYTE	W12
	BYTE		N06     Gs1 
	BYTE		N06     Fs2 
	BYTE		N06     Ds4 
	BYTE	W06
	BYTE		        Gs1 
	BYTE		N06     Fs2 
	BYTE		N06     Ds4 
	BYTE	W06
	BYTE		N12     Bn0 
	BYTE		N12     As1 
	BYTE		N12     Fn2 
	BYTE	W12
	BYTE		        Fs1 
	BYTE	W12
	BYTE		        Bn0 
	BYTE		N12     Fs1 
	BYTE		N12     Fn2 
	BYTE	W12
	BYTE		N06     Gs1 
	BYTE	W06
	BYTE		N06   
	BYTE	W06
	BYTE		N12     As1 
	BYTE	W12
	BYTE	PEND
// 018   ----------------------------------------
	BYTE	PATT
	 POIN2	Trombe_7_017
// 019   ----------------------------------------
	BYTE	PATT
	 POIN2	Trombe_7_017
// 020   ----------------------------------------
Trombe_7_020:
	BYTE		N12     Bn0   v127
	BYTE		N12     Fs1 
	BYTE		N12     Fn2 
	BYTE	W12
	BYTE		        Bn0 
	BYTE		N12     Fs1 
	BYTE		N12     Fn2 
	BYTE	W12
	BYTE		N06     Gs1 
	BYTE		N06     Fs2 
	BYTE		N06     Ds4 
	BYTE	W06
	BYTE		        Gs1 
	BYTE		N06     Fs2 
	BYTE		N06     Ds4 
	BYTE	W06
	BYTE		N12     Bn0 
	BYTE		N12     As1 
	BYTE		N12     Fn2 
	BYTE	W12
	BYTE		        Fs1 
	BYTE	W12
	BYTE		        Bn0 
	BYTE		N12     Fs1 
	BYTE		N48     Cs2 
	BYTE		N12     Fn2 
	BYTE	W12
	BYTE		N06     Gs1 
	BYTE	W06
	BYTE		N06   
	BYTE	W06
	BYTE		N12     As1 
	BYTE	W12
	BYTE	PEND
// 021   ----------------------------------------
	BYTE	PATT
	 POIN2	Trombe_7_017
// 022   ----------------------------------------
Trombe_7_022:
	BYTE		N12     Bn0   v127
	BYTE		N12     Fs1 
	BYTE		N12     Fn2 
	BYTE	W12
	BYTE		        Bn0 
	BYTE		N12     Fs1 
	BYTE		N12     Fn2 
	BYTE	W12
	BYTE		N06     Gs1 
	BYTE		N12     Bn1 
	BYTE		N06     Fs2 
	BYTE		N06     Ds4 
	BYTE	W06
	BYTE		        Gs1 
	BYTE		N06     Fs2 
	BYTE		N06     Ds4 
	BYTE	W06
	BYTE		N12     Bn0 
	BYTE		N12     As1 
	BYTE		N12     Bn1 
	BYTE		N12     Cs2 
	BYTE		N12     Fn2 
	BYTE	W12
	BYTE		        Fs1 
	BYTE		N12     An1 
	BYTE	W12
	BYTE		        Bn0 
	BYTE		N24     Dn1 
	BYTE		N12     As1 
	BYTE		N12     Cs2 
	BYTE		N12     Dn2 
	BYTE	W12
	BYTE		        Bn0 
	BYTE		N12     Cn2 
	BYTE	W12
	BYTE		        Bn0 
	BYTE		N12     Bn1 
	BYTE	W12
	BYTE	PEND
// 023   ----------------------------------------
Trombe_7_023:
	BYTE		N12     Bn0   v127
	BYTE		N24     Dn1 
	BYTE		N12     As1 
	BYTE		N12     Cs2 
	BYTE		N12     Dn2 
	BYTE	W12
	BYTE		        Bn0 
	BYTE		N12     Cn2 
	BYTE	W12
	BYTE		        Bn0 
	BYTE		N12     Bn1 
	BYTE	W12
	BYTE		        Bn0 
	BYTE		N24     Dn1 
	BYTE		N12     An1 
	BYTE		N12     As1 
	BYTE		N12     Cs2 
	BYTE	W12
	BYTE		        Bn0 
	BYTE		N12     Gn1 
	BYTE	W12
	BYTE		        Bn0 
	BYTE		N12     Dn1 
	BYTE		N06     Gs1 
	BYTE		N12     Cs2 
	BYTE	W06
	BYTE		N06     Gs1 
	BYTE	W06
	BYTE		N12     Bn0 
	BYTE		N12     As1 
	BYTE	W12
	BYTE		        Bn0 
	BYTE		N12     Dn1 
	BYTE		N12     Gs1 
	BYTE		N12     Cs2 
	BYTE	W12
	BYTE	PEND
// 024   ----------------------------------------
Trombe_7_024:
	BYTE		N12     Bn0   v127
	BYTE		N12     As1 
	BYTE	W12
	BYTE		        Bn0 
	BYTE		N12     Dn1 
	BYTE		N06     Gs1 
	BYTE		N12     Cn2 
	BYTE		N12     Cs2 
	BYTE	W06
	BYTE		N06     Gs1 
	BYTE	W06
	BYTE		        Bn0 
	BYTE		N06     Dn1 
	BYTE		N12     As1 
	BYTE		N06     Bn1 
	BYTE		N12     Cs2 
	BYTE	W06
	BYTE		N06     Bn0 
	BYTE		N06     Dn1 
	BYTE		N06     An1 
	BYTE	W06
	BYTE		N01     Bn0 
	BYTE		N12     Dn1 
	BYTE		N12     Gn1 
	BYTE		N06     Gs1 
	BYTE		N12     Cs2 
	BYTE	W06
	BYTE		N06     Gs1 
	BYTE	W06
	BYTE		N12     Bn0 
	BYTE		N12     Dn1 
	BYTE		N12     Fn1 
	BYTE		N12     As1 
	BYTE		N12     Cs2 
	BYTE	W12
	BYTE		        Bn0 
	BYTE		N06     Fs1 
	BYTE		N48     Cs2 
	BYTE	W06
	BYTE		N06     Fs1 
	BYTE	W06
	BYTE		        Bn0 
	BYTE		N12     As1 
	BYTE		N12     Fs2 
	BYTE	W06
	BYTE		N06     Bn0 
	BYTE	W06
	BYTE		N12     Dn1 
	BYTE		N06     Fs1 
	BYTE	W06
	BYTE		N06   
	BYTE	W06
	BYTE	PEND
// 025   ----------------------------------------
Trombe_7_025:
	BYTE		N12     Bn0   v127
	BYTE		N12     As1 
	BYTE		N12     Fs2 
	BYTE	W12
	BYTE		        Bn0 
	BYTE		N06     Fs1 
	BYTE	W06
	BYTE		N06   
	BYTE	W06
	BYTE		        Bn0 
	BYTE		N12     As1 
	BYTE		N12     Fs2 
	BYTE	W06
	BYTE		N06     Bn0 
	BYTE	W06
	BYTE		N12     Dn1 
	BYTE		N06     Fs1 
	BYTE	W06
	BYTE		N06   
	BYTE	W06
	BYTE		N12     Bn0 
	BYTE		N12     As1 
	BYTE		N12     Fs2 
	BYTE	W12
	BYTE		        Bn0 
	BYTE		N06     Fs1 
	BYTE	W06
	BYTE		N06   
	BYTE	W06
	BYTE		        Bn0 
	BYTE		N12     As1 
	BYTE		N12     Fs2 
	BYTE	W06
	BYTE		N06     Bn0 
	BYTE	W06
	BYTE		N12     Dn1 
	BYTE		N06     Fs1 
	BYTE	W06
	BYTE		N06   
	BYTE	W06
	BYTE	PEND
// 026   ----------------------------------------
	BYTE	PATT
	 POIN2	Trombe_7_025
// 027   ----------------------------------------
	BYTE	PATT
	 POIN2	Trombe_7_025
// 028   ----------------------------------------
Trombe_7_028:
	BYTE		N12     Bn0   v127
	BYTE		N12     As1 
	BYTE		N12     Fs2 
	BYTE	W12
	BYTE		        Bn0 
	BYTE		N06     Fs1 
	BYTE	W06
	BYTE		N06   
	BYTE	W06
	BYTE		        Dn1 
	BYTE		N12     As1 
	BYTE		N12     Fs2 
	BYTE	W06
	BYTE		N06     Bn0 
	BYTE	W06
	BYTE		N12     Dn1 
	BYTE		N06     Fs1 
	BYTE		N12     Cs2 
	BYTE	W06
	BYTE		N06     Fs1 
	BYTE	W06
	BYTE		N12     Dn1 
	BYTE		N12     As1 
	BYTE		N12     Fs2 
	BYTE	W12
	BYTE		        Bn0 
	BYTE		N06     Fs1 
	BYTE		N48     Cs2 
	BYTE	W06
	BYTE		N06     Fs1 
	BYTE	W06
	BYTE		        Bn0 
	BYTE		N12     As1 
	BYTE		N12     Fs2 
	BYTE	W06
	BYTE		N06     Bn0 
	BYTE	W06
	BYTE		N12     Dn1 
	BYTE		N06     Fs1 
	BYTE	W06
	BYTE		N06   
	BYTE	W06
	BYTE	PEND
// 029   ----------------------------------------
	BYTE	PATT
	 POIN2	Trombe_7_025
// 030   ----------------------------------------
Trombe_7_030:
	BYTE		N12     Bn0   v127
	BYTE		N12     As1 
	BYTE		N12     Fs2 
	BYTE	W12
	BYTE		        Bn0 
	BYTE		N06     Fs1 
	BYTE	W06
	BYTE		N06   
	BYTE	W06
	BYTE		        Bn0 
	BYTE		N12     As1 
	BYTE		N12     Fs2 
	BYTE	W06
	BYTE		N06     Bn0 
	BYTE	W06
	BYTE		N12     Dn1 
	BYTE		N06     Fs1 
	BYTE	W06
	BYTE		N06   
	BYTE	W06
	BYTE		N12     Bn0 
	BYTE		N12     As1 
	BYTE		N12     Fs2 
	BYTE	W12
	BYTE		        Bn0 
	BYTE		N12     Dn1 
	BYTE		N06     Fs1 
	BYTE		N12     Cs2 
	BYTE	W06
	BYTE		N06     Fs1 
	BYTE	W06
	BYTE		        Bn0 
	BYTE		N12     As1 
	BYTE		N12     Fs2 
	BYTE	W06
	BYTE		N06     Bn0 
	BYTE	W06
	BYTE		N12     Dn1 
	BYTE		N06     Fs1 
	BYTE		N12     Cs2 
	BYTE	W06
	BYTE		N06     Fs1 
	BYTE	W06
	BYTE	PEND
// 031   ----------------------------------------
Trombe_7_031:
	BYTE		N12     Bn0   v127
	BYTE		N12     As1 
	BYTE		N12     Fs2 
	BYTE	W12
	BYTE		        Bn0 
	BYTE		N12     Dn1 
	BYTE		N06     Fs1 
	BYTE		N06     Bn1 
	BYTE		N12     Cs2 
	BYTE	W06
	BYTE		N06     Fs1 
	BYTE	W06
	BYTE		        Bn0 
	BYTE		N06     Dn1 
	BYTE		N06     An1 
	BYTE		N12     As1 
	BYTE		N06     Cs2 
	BYTE		N12     Fs2 
	BYTE	W06
	BYTE		N06     Bn0 
	BYTE	W06
	BYTE		N12     Dn1 
	BYTE		N06     Fs1 
	BYTE		N06     Gn1 
	BYTE		N12     Cs2 
	BYTE	W06
	BYTE		N06     Fs1 
	BYTE	W06
	BYTE		N12     Bn0 
	BYTE		N12     Dn1 
	BYTE		N06     Fn1 
	BYTE		N12     As1 
	BYTE		N12     Cs2 
	BYTE		N12     Fs2 
	BYTE	W48
	BYTE	PEND
// 032   ----------------------------------------
Trombe_7_032:
	BYTE	W12
	BYTE		N12     Bn0   v127
	BYTE		N12     Bn1 
	BYTE		N12     Cs2 
	BYTE	W12
	BYTE		N06     Bn0 
	BYTE		N06     An1 
	BYTE	W06
	BYTE		        Bn0 
	BYTE		N06     Gn1 
	BYTE	W06
	BYTE		N01     Bn0 
	BYTE		N12     Cn1 
	BYTE		N12     Dn1 
	BYTE		N12     Fn1 
	BYTE		N12     Cn2 
	BYTE		N12     Cs2 
	BYTE	W12
	BYTE		        Bn0 
	BYTE		N12     Cn1 
	BYTE		N12     Dn1 
	BYTE		N12     Fn1 
	BYTE		N12     Cs2 
	BYTE	W12
	BYTE		        Bn0 
	BYTE		N06     Fs1 
	BYTE		N48     Cs2 
	BYTE	W06
	BYTE		N06     Fs1 
	BYTE	W06
	BYTE		        Bn0 
	BYTE		N12     As1 
	BYTE		N12     Fs2 
	BYTE	W06
	BYTE		N06     Bn0 
	BYTE	W06
	BYTE		N12     Dn1 
	BYTE		N06     Fs1 
	BYTE	W06
	BYTE		N06   
	BYTE	W06
	BYTE	PEND
// 033   ----------------------------------------
	BYTE	PATT
	 POIN2	Trombe_7_025
// 034   ----------------------------------------
	BYTE	PATT
	 POIN2	Trombe_7_025
// 035   ----------------------------------------
	BYTE	PATT
	 POIN2	Trombe_7_025
// 036   ----------------------------------------
	BYTE	PATT
	 POIN2	Trombe_7_028
// 037   ----------------------------------------
	BYTE	PATT
	 POIN2	Trombe_7_025
// 038   ----------------------------------------
Trombe_7_038:
	BYTE		N12     Bn0   v127
	BYTE		N12     As1 
	BYTE		N12     Fs2 
	BYTE	W12
	BYTE		        Bn0 
	BYTE		N06     Fs1 
	BYTE	W06
	BYTE		N06   
	BYTE	W06
	BYTE		        Bn0 
	BYTE		N12     As1 
	BYTE		N12     Fs2 
	BYTE	W06
	BYTE		N06     Bn0 
	BYTE	W06
	BYTE		N12     Dn1 
	BYTE		N06     Fs1 
	BYTE	W06
	BYTE		N06   
	BYTE	W06
	BYTE		N12     Bn0 
	BYTE		N12     As1 
	BYTE		N12     Fs2 
	BYTE	W12
	BYTE		        Bn0 
	BYTE		N12     Dn1 
	BYTE		N06     Fs1 
	BYTE	W06
	BYTE		N06   
	BYTE	W06
	BYTE		        Bn0 
	BYTE		N12     As1 
	BYTE		N12     Fs2 
	BYTE	W06
	BYTE		N06     Bn0 
	BYTE	W06
	BYTE		N12     Dn1 
	BYTE		N06     Fs1 
	BYTE	W06
	BYTE		N06   
	BYTE	W06
	BYTE	PEND
// 039   ----------------------------------------
Trombe_7_039:
	BYTE		N12     Bn0   v127
	BYTE		N12     As1 
	BYTE		N12     Fs2 
	BYTE	W12
	BYTE		        Bn0 
	BYTE		N12     Dn1 
	BYTE		N06     Fs1 
	BYTE	W06
	BYTE		N06   
	BYTE	W06
	BYTE		        Bn0 
	BYTE		N06     Dn1 
	BYTE		N12     As1 
	BYTE		N12     Fs2 
	BYTE	W06
	BYTE		N06     Bn0 
	BYTE		N06     Dn1 
	BYTE	W06
	BYTE		N01   
	BYTE		N06     Fs1 
	BYTE		N12     Cs2 
	BYTE	W06
	BYTE		N06     Fs1 
	BYTE	W06
	BYTE		N12     Bn0 
	BYTE		N12     As1 
	BYTE		N12     Fs2 
	BYTE	W12
	BYTE		        Bn0 
	BYTE		N12     Dn1 
	BYTE		N06     Fs1 
	BYTE	W06
	BYTE		N06   
	BYTE	W06
	BYTE		        Bn0 
	BYTE		N12     As1 
	BYTE		N12     Fs2 
	BYTE	W06
	BYTE		N06     Bn0 
	BYTE	W06
	BYTE		N12     Dn1 
	BYTE		N06     Fs1 
	BYTE	W06
	BYTE		N06   
	BYTE	W06
	BYTE	PEND
// 040   ----------------------------------------
Trombe_7_040:
	BYTE		N12     Bn0   v127
	BYTE		N12     As1 
	BYTE		N12     Fs2 
	BYTE	W12
	BYTE		        Bn0 
	BYTE		N06     Dn1 
	BYTE		N06     Fs1 
	BYTE	W06
	BYTE		N06   
	BYTE	W06
	BYTE		        Dn1 
	BYTE		N12     As1 
	BYTE		N12     Fs2 
	BYTE	W06
	BYTE		N06     Bn0 
	BYTE	W06
	BYTE		N12     Dn1 
	BYTE		N06     Fs1 
	BYTE		N12     Cs2 
	BYTE	W06
	BYTE		N06     Fs1 
	BYTE	W06
	BYTE		N12     Dn1 
	BYTE		N12     As1 
	BYTE		N12     Fs2 
	BYTE	W12
	BYTE		        Bn0 
	BYTE		N06     Fs1 
	BYTE		N48     Cs2 
	BYTE	W06
	BYTE		N06     Fs1 
	BYTE	W06
	BYTE		        Bn0 
	BYTE		N12     As1 
	BYTE		N12     Fs2 
	BYTE	W06
	BYTE		N06     Bn0 
	BYTE	W06
	BYTE		N12     Dn1 
	BYTE		N06     Fs1 
	BYTE	W06
	BYTE		N06   
	BYTE	W06
	BYTE	PEND
// 041   ----------------------------------------
	BYTE	PATT
	 POIN2	Trombe_7_025
// 042   ----------------------------------------
	BYTE	PATT
	 POIN2	Trombe_7_025
// 043   ----------------------------------------
	BYTE	PATT
	 POIN2	Trombe_7_025
// 044   ----------------------------------------
	BYTE	PATT
	 POIN2	Trombe_7_028
// 045   ----------------------------------------
	BYTE	PATT
	 POIN2	Trombe_7_025
// 046   ----------------------------------------
	BYTE	PATT
	 POIN2	Trombe_7_030
// 047   ----------------------------------------
	BYTE		N12     Bn0   v127
	BYTE		N12     As1 
	BYTE		N12     Fs2 
	BYTE	W12
	BYTE		        Bn0 
	BYTE		N12     Dn1 
	BYTE		N06     Fs1 
	BYTE		N12     Cs2 
	BYTE	W06
	BYTE		N06     Fs1 
	BYTE	W06
	BYTE		        Bn0 
	BYTE		N06     Dn1 
	BYTE		N12     As1 
	BYTE		N06     Cs2 
	BYTE		N12     Fs2 
	BYTE	W06
	BYTE		N06     Bn0 
	BYTE	W06
	BYTE		N12     Dn1 
	BYTE		N06     Fs1 
	BYTE		N12     Cs2 
	BYTE	W06
	BYTE		N06     Fs1 
	BYTE	W06
	BYTE		N12     Bn0 
	BYTE		N06     Dn1 
	BYTE		N12     As1 
	BYTE		N06     Cs2 
	BYTE		N12     Fs2 
	BYTE	W48
// 048   ----------------------------------------
	BYTE	W12
	BYTE		        Bn0 
	BYTE		N12     Bn1 
	BYTE		N12     Cs2 
	BYTE	W12
	BYTE		N06     Dn1 
	BYTE		N06     An1 
	BYTE		N12     As1 
	BYTE	W06
	BYTE		N06     Bn0 
	BYTE		N06     Gn1 
	BYTE	W06
	BYTE		N12     Dn1 
	BYTE		N12     Fn1 
	BYTE		N06     Fs1 
	BYTE		N12     Cs2 
	BYTE	W06
	BYTE		N06     Fs1 
	BYTE	W06
	BYTE		N12     Dn1 
	BYTE		N12     Gn1 
	BYTE		N12     As1 
	BYTE	W12
	BYTE		        Bn0 
	BYTE		N12     Fs1 
	BYTE		N48     Cs2 
	BYTE	W12
	BYTE		N12     Bn0 
	BYTE		N12     Fs1 
	BYTE	W12
	BYTE		        Dn1 
	BYTE		N12     As1 
	BYTE	W12
// 049   ----------------------------------------
	BYTE	PATT
	 POIN2	Trombe_7_001
// 050   ----------------------------------------
	BYTE	PATT
	 POIN2	Trombe_7_002
// 051   ----------------------------------------
	BYTE	PATT
	 POIN2	Trombe_7_001
// 052   ----------------------------------------
	BYTE	PATT
	 POIN2	Trombe_7_004
// 053   ----------------------------------------
	BYTE	PATT
	 POIN2	Trombe_7_005
// 054   ----------------------------------------
	BYTE	PATT
	 POIN2	Trombe_7_006
// 055   ----------------------------------------
	BYTE	PATT
	 POIN2	Trombe_7_007
// 056   ----------------------------------------
	BYTE	PATT
	 POIN2	Trombe_7_008
// 057   ----------------------------------------
	BYTE	PATT
	 POIN2	Trombe_7_001
// 058   ----------------------------------------
	BYTE	PATT
	 POIN2	Trombe_7_002
// 059   ----------------------------------------
	BYTE	PATT
	 POIN2	Trombe_7_001
// 060   ----------------------------------------
	BYTE	PATT
	 POIN2	Trombe_7_004
// 061   ----------------------------------------
	BYTE	PATT
	 POIN2	Trombe_7_005
// 062   ----------------------------------------
	BYTE	PATT
	 POIN2	Trombe_7_014
// 063   ----------------------------------------
	BYTE	PATT
	 POIN2	Trombe_7_015
// 064   ----------------------------------------
	BYTE	PATT
	 POIN2	Trombe_7_016
// 065   ----------------------------------------
	BYTE	PATT
	 POIN2	Trombe_7_017
// 066   ----------------------------------------
	BYTE	PATT
	 POIN2	Trombe_7_017
// 067   ----------------------------------------
	BYTE	PATT
	 POIN2	Trombe_7_017
// 068   ----------------------------------------
	BYTE	PATT
	 POIN2	Trombe_7_020
// 069   ----------------------------------------
	BYTE	PATT
	 POIN2	Trombe_7_017
// 070   ----------------------------------------
	BYTE	PATT
	 POIN2	Trombe_7_022
// 071   ----------------------------------------
	BYTE	PATT
	 POIN2	Trombe_7_023
// 072   ----------------------------------------
	BYTE	PATT
	 POIN2	Trombe_7_024
// 073   ----------------------------------------
	BYTE	PATT
	 POIN2	Trombe_7_025
// 074   ----------------------------------------
	BYTE	PATT
	 POIN2	Trombe_7_025
// 075   ----------------------------------------
	BYTE	PATT
	 POIN2	Trombe_7_025
// 076   ----------------------------------------
	BYTE	PATT
	 POIN2	Trombe_7_028
// 077   ----------------------------------------
	BYTE	PATT
	 POIN2	Trombe_7_025
// 078   ----------------------------------------
	BYTE	PATT
	 POIN2	Trombe_7_030
// 079   ----------------------------------------
	BYTE	PATT
	 POIN2	Trombe_7_031
// 080   ----------------------------------------
	BYTE	PATT
	 POIN2	Trombe_7_032
// 081   ----------------------------------------
	BYTE	PATT
	 POIN2	Trombe_7_025
// 082   ----------------------------------------
	BYTE	PATT
	 POIN2	Trombe_7_025
// 083   ----------------------------------------
	BYTE	PATT
	 POIN2	Trombe_7_025
// 084   ----------------------------------------
	BYTE	PATT
	 POIN2	Trombe_7_028
// 085   ----------------------------------------
	BYTE	PATT
	 POIN2	Trombe_7_025
// 086   ----------------------------------------
	BYTE	PATT
	 POIN2	Trombe_7_038
// 087   ----------------------------------------
	BYTE	PATT
	 POIN2	Trombe_7_039
// 088   ----------------------------------------
	BYTE	PATT
	 POIN2	Trombe_7_040
// 089   ----------------------------------------
	BYTE	PATT
	 POIN2	Trombe_7_025
// 090   ----------------------------------------
	BYTE	PATT
	 POIN2	Trombe_7_025
// 091   ----------------------------------------
	BYTE	PATT
	 POIN2	Trombe_7_025
// 092   ----------------------------------------
	BYTE	PATT
	 POIN2	Trombe_7_028
// 093   ----------------------------------------
	BYTE	PATT
	 POIN2	Trombe_7_025
// 094   ----------------------------------------
	BYTE	PATT
	 POIN2	Trombe_7_030
// 095   ----------------------------------------
	BYTE		N12     Bn0   v127
	BYTE		N12     As1 
	BYTE		N12     Fs2 
	BYTE	W12
	BYTE		        Bn0 
	BYTE		N12     Dn1 
	BYTE		N06     Fs1 
	BYTE		N12     Cs2 
	BYTE	W06
	BYTE		N06     Fs1 
	BYTE	W06
	BYTE		        Bn0 
	BYTE		N06     Dn1 
	BYTE		N12     As1 
	BYTE		N06     Cs2 
	BYTE		N12     Fs2 
	BYTE	W06
	BYTE		N06     Bn0 
	BYTE	W06
	BYTE		N12     Dn1 
	BYTE		N06     Fs1 
	BYTE		N12     Cs2 
	BYTE	W06
	BYTE		N06     Fs1 
	BYTE	W06
	BYTE		N12     Bn0 
	BYTE		N06     Dn1 
	BYTE		N12     As1 
	BYTE		N06     Cs2 
	BYTE		N12     Fs2 
	BYTE	W24
	BYTE	GoTo
	 POIN2	Trombe_7_B1
Trombe_7_B2:
	BYTE	W24
// 096   ----------------------------------------
	BYTE	W12
	BYTE		N12     Bn0   v127
	BYTE		N12     Bn1 
	BYTE		N12     Cs2 
	BYTE	W12
	BYTE		N06     Dn1 
	BYTE		N06     An1 
	BYTE		N12     As1 
	BYTE	W06
	BYTE		N06     Bn0 
	BYTE		N06     Gn1 
	BYTE	W06
	BYTE		N12     Dn1 
	BYTE		N12     Fn1 
	BYTE		N06     Fs1 
	BYTE		N12     Cs2 
	BYTE	W06
	BYTE		N06     Fs1 
	BYTE	W06
	BYTE		N12     Dn1 
	BYTE		N12     Gn1 
	BYTE		N12     As1 
	BYTE	W12
	BYTE	FINE

//**************** Track 8 (Midi-Chn.8) ****************//

Trombe_8:
	BYTE	KEYSH   Trombe_key+0
Trombe_8_B1:
// 000   ----------------------------------------
	BYTE		VOICE   30
	BYTE		VOL     39*Trombe_mvl/mxv
	BYTE		PAN     c_v+0
	BYTE	W60
	BYTE		N11     Bn1   v127
	BYTE		N11     Fs2 
	BYTE	W12
	BYTE		        Bn1 
	BYTE		N11     Fs2 
	BYTE	W12
	BYTE		        Bn2 
	BYTE		N11     Fs3 
	BYTE	W12
// 001   ----------------------------------------
Trombe_8_001:
	BYTE		N11     Bn1   v127
	BYTE		N11     Fs2 
	BYTE	W12
	BYTE		        Bn1 
	BYTE		N11     Fs2 
	BYTE	W12
	BYTE		        Bn2 
	BYTE		N11     Fs3 
	BYTE	W12
	BYTE		        Bn1 
	BYTE		N11     Fs2 
	BYTE	W12
	BYTE		        Bn1 
	BYTE		N11     Fs2 
	BYTE	W12
	BYTE		        Bn1 
	BYTE		N11     Fs2 
	BYTE	W12
	BYTE		        Bn1 
	BYTE		N11     Fs2 
	BYTE	W12
	BYTE		        Bn2 
	BYTE		N11     Fs3 
	BYTE	W12
	BYTE	PEND
// 002   ----------------------------------------
Trombe_8_002:
	BYTE		N11     Bn1   v127
	BYTE		N11     Fs2 
	BYTE	W12
	BYTE		        Bn1 
	BYTE		N11     Fs2 
	BYTE	W12
	BYTE		        Bn2 
	BYTE		N11     Fs3 
	BYTE	W12
	BYTE		        Bn1 
	BYTE		N11     Fs2 
	BYTE	W12
	BYTE		        Bn1 
	BYTE		N11     Fs2 
	BYTE	W12
	BYTE		        Dn2 
	BYTE		N11     Fs2 
	BYTE	W12
	BYTE		        Dn2 
	BYTE		N11     Fs2 
	BYTE	W12
	BYTE		        Dn3 
	BYTE		N11     Fs3 
	BYTE	W12
	BYTE	PEND
// 003   ----------------------------------------
Trombe_8_003:
	BYTE		N11     Dn2   v127
	BYTE		N11     Fs2 
	BYTE	W12
	BYTE		        Dn2 
	BYTE		N11     Fs2 
	BYTE	W12
	BYTE		        Dn3 
	BYTE		N11     Fs3 
	BYTE	W12
	BYTE		        Dn2 
	BYTE		N11     Fs2 
	BYTE	W12
	BYTE		        Dn2 
	BYTE		N11     Fs2 
	BYTE	W12
	BYTE		        Dn2 
	BYTE		N11     Fs2 
	BYTE	W12
	BYTE		        Dn2 
	BYTE		N11     Fs2 
	BYTE	W12
	BYTE		        Dn3 
	BYTE		N11     Fs3 
	BYTE	W12
	BYTE	PEND
// 004   ----------------------------------------
Trombe_8_004:
	BYTE		N11     Dn2   v127
	BYTE		N11     Fs2 
	BYTE	W12
	BYTE		        Dn2 
	BYTE		N11     Fs2 
	BYTE	W12
	BYTE		        Dn3 
	BYTE		N11     Fs3 
	BYTE	W12
	BYTE		        Dn2 
	BYTE		N11     Fs2 
	BYTE	W12
	BYTE		        Dn2 
	BYTE		N11     Fs2 
	BYTE	W12
	BYTE		        An1 
	BYTE		N11     En2 
	BYTE	W12
	BYTE		        An1 
	BYTE		N11     En2 
	BYTE	W12
	BYTE		        An2 
	BYTE		N11     En3 
	BYTE	W12
	BYTE	PEND
// 005   ----------------------------------------
Trombe_8_005:
	BYTE		N11     An1   v127
	BYTE		N11     En2 
	BYTE	W12
	BYTE		        An1 
	BYTE		N11     En2 
	BYTE	W12
	BYTE		        An2 
	BYTE		N11     En3 
	BYTE	W12
	BYTE		        An1 
	BYTE		N11     En2 
	BYTE	W12
	BYTE		        An1 
	BYTE		N11     En2 
	BYTE	W12
	BYTE		        An1 
	BYTE		N11     En2 
	BYTE	W12
	BYTE		        An1 
	BYTE		N11     En2 
	BYTE	W12
	BYTE		        An2 
	BYTE		N11     En3 
	BYTE	W12
	BYTE	PEND
// 006   ----------------------------------------
Trombe_8_006:
	BYTE		N11     An1   v127
	BYTE		N11     En2 
	BYTE	W12
	BYTE		        An1 
	BYTE		N11     En2 
	BYTE	W12
	BYTE		        An2 
	BYTE		N11     En3 
	BYTE	W12
	BYTE		        An1 
	BYTE		N11     En2 
	BYTE	W12
	BYTE		        An1 
	BYTE		N11     En2 
	BYTE	W12
	BYTE		        Dn2 
	BYTE		N11     Fs2 
	BYTE	W12
	BYTE		        Dn2 
	BYTE		N11     Fs2 
	BYTE	W12
	BYTE		        Dn3 
	BYTE		N11     Fs3 
	BYTE	W12
	BYTE	PEND
// 007   ----------------------------------------
Trombe_8_007:
	BYTE		N11     Dn2   v127
	BYTE		N11     Fs2 
	BYTE	W12
	BYTE		N12     Dn2 
	BYTE		N12     Fs2 
	BYTE	W12
	BYTE		        Dn3 
	BYTE	W12
	BYTE		        En3 
	BYTE	W12
	BYTE		        Fs3 
	BYTE	W48
	BYTE	PEND
// 008   ----------------------------------------
Trombe_8_008:
	BYTE	W60
	BYTE		N11     Bn1   v127
	BYTE		N11     Fs2 
	BYTE	W12
	BYTE		        Bn1 
	BYTE		N11     Fs2 
	BYTE	W12
	BYTE		        Bn2 
	BYTE		N11     Fs3 
	BYTE	W12
	BYTE	PEND
// 009   ----------------------------------------
	BYTE	PATT
	 POIN2	Trombe_8_001
// 010   ----------------------------------------
	BYTE	PATT
	 POIN2	Trombe_8_002
// 011   ----------------------------------------
	BYTE	PATT
	 POIN2	Trombe_8_003
// 012   ----------------------------------------
Trombe_8_012:
	BYTE		N11     Dn2   v127
	BYTE		N11     Fs2 
	BYTE	W12
	BYTE		        Dn2 
	BYTE		N11     Fs2 
	BYTE	W12
	BYTE		        Dn3 
	BYTE		N11     Fs3 
	BYTE	W12
	BYTE		        Dn2 
	BYTE		N11     Fs2 
	BYTE	W12
	BYTE		        Dn2 
	BYTE		N11     Fs2 
	BYTE	W12
	BYTE		N72     Gn2 
	BYTE		N72     En3 
	BYTE	W36
	BYTE	PEND
// 013   ----------------------------------------
Trombe_8_013:
	BYTE	W36
	BYTE		N24     Gn2   v127
	BYTE		N24     Dn3 
	BYTE	W24
	BYTE		N36     An2 
	BYTE		N36     Cs3 
	BYTE	W36
	BYTE	PEND
// 014   ----------------------------------------
Trombe_8_014:
	BYTE		N36     An2   v127
	BYTE		N36     Dn3 
	BYTE	W36
	BYTE		N24     An2 
	BYTE		N24     Cs3 
	BYTE	W24
	BYTE		N96     Fs2 
	BYTE		N96     Bn2 
	BYTE	W36
	BYTE	PEND
// 015   ----------------------------------------
	BYTE	W84
	BYTE		N24     Bn4 
	BYTE	W12
// 016   ----------------------------------------
Trombe_8_016:
	BYTE	W12
	BYTE		N24     An4   v127
	BYTE	W24
	BYTE		        Fs4 
	BYTE	W24
	BYTE		N52     Bn3 
	BYTE		N54     Gn4 
	BYTE	W36
	BYTE	PEND
// 017   ----------------------------------------
Trombe_8_017:
	BYTE	W24
	BYTE		N12     Bn3   v127
	BYTE		N12     Gn4 
	BYTE	W12
	BYTE		        Dn4 
	BYTE		N12     Bn4 
	BYTE	W12
	BYTE		N36     Cs4 
	BYTE		N36     An4 
	BYTE	W36
	BYTE		N12     Dn4 
	BYTE		N12     Bn4 
	BYTE	W12
	BYTE	PEND
// 018   ----------------------------------------
Trombe_8_018:
	BYTE		N24     En4   v127
	BYTE		N24     Cs5 
	BYTE	W24
	BYTE		        En4 
	BYTE		N24     An4 
	BYTE	W24
	BYTE		N72     An3 
	BYTE		N72     Fs4 
	BYTE	W48
	BYTE	PEND
// 019   ----------------------------------------
Trombe_8_019:
	BYTE	W24
	BYTE		N12     An3   v127
	BYTE		N12     Fs4 
	BYTE	W12
	BYTE		        Dn4 
	BYTE		N12     An4 
	BYTE	W12
	BYTE		N64     Gn3 
	BYTE		N66     Dn4 
	BYTE	W48
	BYTE	PEND
// 020   ----------------------------------------
Trombe_8_020:
	BYTE	W24
	BYTE		N12     An3   v127
	BYTE		N12     Dn4 
	BYTE	W12
	BYTE		        Bn3 
	BYTE		N12     En4 
	BYTE	W12
	BYTE		        Bn3 
	BYTE		N12     Fs4 
	BYTE	W12
	BYTE		N72     Bn3 
	BYTE		N60     En4 
	BYTE	W36
	BYTE	PEND
// 021   ----------------------------------------
Trombe_8_021:
	BYTE	W24
	BYTE		N12     En4   v127
	BYTE	W12
	BYTE		        Bn3 
	BYTE		N12     Fs4 
	BYTE	W12
	BYTE		        Cs4 
	BYTE		N12     Gn4 
	BYTE	W12
	BYTE		N36     Dn4 
	BYTE		N36     Fs4 
	BYTE	W36
	BYTE	PEND
// 022   ----------------------------------------
Trombe_8_022:
	BYTE		N36     Cs4   v127
	BYTE		N36     En4 
	BYTE	W36
	BYTE		N24     As3 
	BYTE		N24     Cs4 
	BYTE	W24
	BYTE		N36     Bn3 
	BYTE		N36     Dn4 
	BYTE	W36
	BYTE	PEND
// 023   ----------------------------------------
Trombe_8_023:
	BYTE		N36     Cs4   v127
	BYTE		N36     En4 
	BYTE	W36
	BYTE		N48     Dn4 
	BYTE		N48     Fs4 
	BYTE	W60
	BYTE	PEND
// 024   ----------------------------------------
	BYTE	W96
// 025   ----------------------------------------
	BYTE	W96
// 026   ----------------------------------------
	BYTE	W96
// 027   ----------------------------------------
	BYTE	W96
// 028   ----------------------------------------
	BYTE	W96
// 029   ----------------------------------------
	BYTE	W96
// 030   ----------------------------------------
	BYTE	W96
// 031   ----------------------------------------
	BYTE	W96
// 032   ----------------------------------------
Trombe_8_032:
	BYTE	W48
	BYTE		N36     Fn2   v104
	BYTE		N36     As2 
	BYTE	W36
	BYTE		N12     Fn2 
	BYTE		N12     As2 
	BYTE	W12
	BYTE	PEND
// 033   ----------------------------------------
Trombe_8_033:
	BYTE	W12
	BYTE		N12     Fn2   v104
	BYTE		N12     As2 
	BYTE	W12
	BYTE		        Fn2 
	BYTE		N12     As2 
	BYTE	W24
	BYTE		N36     Gn2 
	BYTE		N36     Cn3 
	BYTE	W36
	BYTE		N12     Gn2 
	BYTE		N12     Cn3 
	BYTE	W12
	BYTE	PEND
// 034   ----------------------------------------
Trombe_8_034:
	BYTE	W12
	BYTE		N12     Gn2   v104
	BYTE		N12     Cn3 
	BYTE	W12
	BYTE		        Gn2 
	BYTE		N12     Cn3 
	BYTE	W24
	BYTE		N36     An2 
	BYTE		N36     Dn3 
	BYTE	W36
	BYTE		N12     An2 
	BYTE		N12     Dn3 
	BYTE	W12
	BYTE	PEND
// 035   ----------------------------------------
Trombe_8_035:
	BYTE	W12
	BYTE		N36     An2   v104
	BYTE		N36     Dn3 
	BYTE	W48
	BYTE		        An2 
	BYTE		N36     Dn3 
	BYTE	W36
	BYTE	PEND
// 036   ----------------------------------------
Trombe_8_036:
	BYTE	W12
	BYTE		N36     Gn2   v104
	BYTE		N36     Cn3 
	BYTE	W72
	BYTE		N12     Fn2 
	BYTE		N12     As2 
	BYTE	W12
	BYTE	PEND
// 037   ----------------------------------------
	BYTE	PATT
	 POIN2	Trombe_8_033
// 038   ----------------------------------------
Trombe_8_038:
	BYTE	W12
	BYTE		N12     Gn2   v104
	BYTE		N12     Cn3 
	BYTE	W12
	BYTE		        Gn2 
	BYTE		N12     Cn3 
	BYTE	W24
	BYTE		N36     An2 
	BYTE		N36     Fn3 
	BYTE	W36
	BYTE		N12     An2 
	BYTE		N12     Fn3 
	BYTE	W12
	BYTE	PEND
// 039   ----------------------------------------
Trombe_8_039:
	BYTE	W12
	BYTE		N36     An2   v104
	BYTE		N36     Fn3 
	BYTE	W36
	BYTE		        An2 
	BYTE		N36     En3 
	BYTE	W48
	BYTE	PEND
// 040   ----------------------------------------
Trombe_8_040:
	BYTE		N28     An2   v104
	BYTE		N28     En3 
	BYTE	W60
	BYTE		N12     Fn2 
	BYTE		N12     As2 
	BYTE	W24
	BYTE		        Fn2 
	BYTE		N12     As2 
	BYTE	W12
	BYTE	PEND
// 041   ----------------------------------------
	BYTE	PATT
	 POIN2	Trombe_8_033
// 042   ----------------------------------------
Trombe_8_042:
	BYTE	W12
	BYTE		N12     Gn2   v104
	BYTE		N12     Cn3 
	BYTE	W12
	BYTE		        Gn2 
	BYTE		N12     Cn3 
	BYTE	W24
	BYTE		N36     An2 
	BYTE		N36     Cs3 
	BYTE	W36
	BYTE		N12     An2 
	BYTE		N12     Cs3 
	BYTE	W12
	BYTE	PEND
// 043   ----------------------------------------
Trombe_8_043:
	BYTE	W12
	BYTE		N36     An2   v104
	BYTE		N36     Cs3 
	BYTE	W36
	BYTE		        An2 
	BYTE		N36     Dn3 
	BYTE	W48
	BYTE	PEND
// 044   ----------------------------------------
Trombe_8_044:
	BYTE		N36     An2   v104
	BYTE		N36     Cn3 
	BYTE	W48
	BYTE		N24     Fn2 
	BYTE		N24     As2 
	BYTE	W36
	BYTE		N12     Fn2 
	BYTE		N12     As2 
	BYTE	W12
	BYTE	PEND
// 045   ----------------------------------------
Trombe_8_045:
	BYTE	W12
	BYTE		N36     Fn2   v104
	BYTE		N36     As2 
	BYTE	W48
	BYTE		N96     Gn2 
	BYTE		N96     Cn3 
	BYTE	W36
	BYTE	PEND
// 046   ----------------------------------------
Trombe_8_046:
	BYTE	W60
	BYTE		N06     Ds2   v104
	BYTE	W06
	BYTE		        Gn2 
	BYTE	W06
	BYTE		        As2 
	BYTE	W06
	BYTE		        Dn3 
	BYTE	W06
	BYTE		        Ds3 
	BYTE	W06
	BYTE		        Gn3 
	BYTE	W06
	BYTE	PEND
// 047   ----------------------------------------
	BYTE		        As3 
	BYTE	W06
	BYTE		        Dn4 
	BYTE	W06
	BYTE		        Ds4 
	BYTE	W06
	BYTE		        Gn4 
	BYTE	W06
	BYTE		        As4 
	BYTE	W06
	BYTE		        Dn5 
	BYTE	W06
	BYTE		        Ds5 
	BYTE	W06
	BYTE		        Gn5 
	BYTE	W06
	BYTE		        As5 
	BYTE	W48
// 048   ----------------------------------------
	BYTE	PATT
	 POIN2	Trombe_8_008
// 049   ----------------------------------------
	BYTE	PATT
	 POIN2	Trombe_8_001
// 050   ----------------------------------------
	BYTE	PATT
	 POIN2	Trombe_8_002
// 051   ----------------------------------------
	BYTE	PATT
	 POIN2	Trombe_8_003
// 052   ----------------------------------------
	BYTE	PATT
	 POIN2	Trombe_8_004
// 053   ----------------------------------------
	BYTE	PATT
	 POIN2	Trombe_8_005
// 054   ----------------------------------------
	BYTE	PATT
	 POIN2	Trombe_8_006
// 055   ----------------------------------------
	BYTE	PATT
	 POIN2	Trombe_8_007
// 056   ----------------------------------------
	BYTE	PATT
	 POIN2	Trombe_8_008
// 057   ----------------------------------------
	BYTE	PATT
	 POIN2	Trombe_8_001
// 058   ----------------------------------------
	BYTE	PATT
	 POIN2	Trombe_8_002
// 059   ----------------------------------------
	BYTE	PATT
	 POIN2	Trombe_8_003
// 060   ----------------------------------------
	BYTE	PATT
	 POIN2	Trombe_8_012
// 061   ----------------------------------------
	BYTE	PATT
	 POIN2	Trombe_8_013
// 062   ----------------------------------------
	BYTE	PATT
	 POIN2	Trombe_8_014
// 063   ----------------------------------------
	BYTE	W84
	BYTE		N24     Bn4   v127
	BYTE	W12
// 064   ----------------------------------------
	BYTE	PATT
	 POIN2	Trombe_8_016
// 065   ----------------------------------------
	BYTE	PATT
	 POIN2	Trombe_8_017
// 066   ----------------------------------------
	BYTE	PATT
	 POIN2	Trombe_8_018
// 067   ----------------------------------------
	BYTE	PATT
	 POIN2	Trombe_8_019
// 068   ----------------------------------------
	BYTE	PATT
	 POIN2	Trombe_8_020
// 069   ----------------------------------------
	BYTE	PATT
	 POIN2	Trombe_8_021
// 070   ----------------------------------------
	BYTE	PATT
	 POIN2	Trombe_8_022
// 071   ----------------------------------------
	BYTE	PATT
	 POIN2	Trombe_8_023
// 072   ----------------------------------------
	BYTE	W96
// 073   ----------------------------------------
	BYTE	W96
// 074   ----------------------------------------
	BYTE	W96
// 075   ----------------------------------------
	BYTE	W96
// 076   ----------------------------------------
	BYTE	W96
// 077   ----------------------------------------
	BYTE	W96
// 078   ----------------------------------------
	BYTE	W96
// 079   ----------------------------------------
	BYTE	W96
// 080   ----------------------------------------
	BYTE	PATT
	 POIN2	Trombe_8_032
// 081   ----------------------------------------
	BYTE	PATT
	 POIN2	Trombe_8_033
// 082   ----------------------------------------
	BYTE	PATT
	 POIN2	Trombe_8_034
// 083   ----------------------------------------
	BYTE	PATT
	 POIN2	Trombe_8_035
// 084   ----------------------------------------
	BYTE	PATT
	 POIN2	Trombe_8_036
// 085   ----------------------------------------
	BYTE	PATT
	 POIN2	Trombe_8_033
// 086   ----------------------------------------
	BYTE	PATT
	 POIN2	Trombe_8_038
// 087   ----------------------------------------
	BYTE	PATT
	 POIN2	Trombe_8_039
// 088   ----------------------------------------
	BYTE	PATT
	 POIN2	Trombe_8_040
// 089   ----------------------------------------
	BYTE	PATT
	 POIN2	Trombe_8_033
// 090   ----------------------------------------
	BYTE	PATT
	 POIN2	Trombe_8_042
// 091   ----------------------------------------
	BYTE	PATT
	 POIN2	Trombe_8_043
// 092   ----------------------------------------
	BYTE	PATT
	 POIN2	Trombe_8_044
// 093   ----------------------------------------
	BYTE	PATT
	 POIN2	Trombe_8_045
// 094   ----------------------------------------
	BYTE	PATT
	 POIN2	Trombe_8_046
// 095   ----------------------------------------
	BYTE		N06     As3   v104
	BYTE	W06
	BYTE		        Dn4 
	BYTE	W06
	BYTE		        Ds4 
	BYTE	W06
	BYTE		        Gn4 
	BYTE	W06
	BYTE		        As4 
	BYTE	W06
	BYTE		        Dn5 
	BYTE	W06
	BYTE		        Ds5 
	BYTE	W06
	BYTE		        Gn5 
	BYTE	W06
	BYTE		        As5 
	BYTE	W24
	BYTE	GoTo
	 POIN2	Trombe_8_B1
Trombe_8_B2:
	BYTE	W24
// 096   ----------------------------------------
	BYTE	W60
	BYTE	FINE

//**************** Track 9 (Midi-Chn.9) ****************//

Trombe_9:
	BYTE	KEYSH   Trombe_key+0
Trombe_9_B1:
// 000   ----------------------------------------
	BYTE		VOICE   73
	BYTE		VOL     42*Trombe_mvl/mxv
	BYTE		PAN     c_v+0
	BYTE	W96
// 001   ----------------------------------------
	BYTE	W96
// 002   ----------------------------------------
	BYTE	W96
// 003   ----------------------------------------
	BYTE	W96
// 004   ----------------------------------------
	BYTE	W96
// 005   ----------------------------------------
	BYTE	W96
// 006   ----------------------------------------
	BYTE	W96
// 007   ----------------------------------------
	BYTE	W96
// 008   ----------------------------------------
	BYTE	W96
// 009   ----------------------------------------
	BYTE	W96
// 010   ----------------------------------------
	BYTE	W96
// 011   ----------------------------------------
	BYTE	W96
// 012   ----------------------------------------
	BYTE	W96
// 013   ----------------------------------------
	BYTE	W96
// 014   ----------------------------------------
	BYTE	W96
// 015   ----------------------------------------
	BYTE	W96
// 016   ----------------------------------------
	BYTE	W60
	BYTE		N96     Bn4   v127
	BYTE	W36
// 017   ----------------------------------------
	BYTE	W60
	BYTE		        An4 
	BYTE	W36
// 018   ----------------------------------------
	BYTE	W60
	BYTE		N96   
	BYTE	W36
// 019   ----------------------------------------
Trombe_9_019:
	BYTE	W60
	BYTE		N24     Gn4   v127
	BYTE	W24
	BYTE		        An4 
	BYTE	W12
	BYTE	PEND
// 020   ----------------------------------------
Trombe_9_020:
	BYTE	W12
	BYTE		N24     Bn4   v127
	BYTE	W24
	BYTE		        Dn5 
	BYTE	W24
	BYTE		N72     Bn4 
	BYTE	W36
	BYTE	PEND
// 021   ----------------------------------------
Trombe_9_021:
	BYTE	W36
	BYTE		N24     Gn4   v127
	BYTE	W24
	BYTE		N36     Fs4 
	BYTE	W36
	BYTE	PEND
// 022   ----------------------------------------
Trombe_9_022:
	BYTE		N36     Gn4   v127
	BYTE	W36
	BYTE		N24     An4 
	BYTE	W24
	BYTE		N36     Dn4 
	BYTE	W36
	BYTE	PEND
// 023   ----------------------------------------
Trombe_9_023:
	BYTE		N36     En4   v127
	BYTE	W36
	BYTE		N48     Fs4 
	BYTE	W48
	BYTE		N72     Bn4 
	BYTE	W12
	BYTE	PEND
// 024   ----------------------------------------
	BYTE	W60
	BYTE		N96     En4 
	BYTE	W36
// 025   ----------------------------------------
	BYTE	W60
	BYTE		        An4 
	BYTE	W36
// 026   ----------------------------------------
	BYTE	W60
	BYTE		        As4 
	BYTE	W36
// 027   ----------------------------------------
	BYTE	W60
	BYTE		N48     Bn4 
	BYTE	W36
// 028   ----------------------------------------
Trombe_9_028:
	BYTE	W12
	BYTE		N48     An4   v127
	BYTE	W48
	BYTE		TIE     Gn4 
	BYTE	W36
	BYTE	PEND
// 029   ----------------------------------------
	BYTE	W96
// 030   ----------------------------------------
	BYTE	W60
	BYTE		EOT   
	BYTE		N60     An4 
	BYTE	W36
// 031   ----------------------------------------
Trombe_9_031:
	BYTE	W24
	BYTE		N12     En4   v127
	BYTE	W12
	BYTE		        Gn4 
	BYTE	W12
	BYTE		        An4 
	BYTE	W48
	BYTE	PEND
// 032   ----------------------------------------
	BYTE	W96
// 033   ----------------------------------------
	BYTE	W96
// 034   ----------------------------------------
	BYTE	W96
// 035   ----------------------------------------
	BYTE	W96
// 036   ----------------------------------------
	BYTE	W96
// 037   ----------------------------------------
	BYTE	W96
// 038   ----------------------------------------
	BYTE	W96
// 039   ----------------------------------------
	BYTE	W96
// 040   ----------------------------------------
	BYTE	W96
// 041   ----------------------------------------
	BYTE	W96
// 042   ----------------------------------------
	BYTE	W96
// 043   ----------------------------------------
	BYTE	W96
// 044   ----------------------------------------
	BYTE	W96
// 045   ----------------------------------------
	BYTE	W96
// 046   ----------------------------------------
	BYTE	W96
// 047   ----------------------------------------
	BYTE	W96
// 048   ----------------------------------------
	BYTE	W96
// 049   ----------------------------------------
	BYTE	W96
// 050   ----------------------------------------
	BYTE	W96
// 051   ----------------------------------------
	BYTE	W96
// 052   ----------------------------------------
	BYTE	W96
// 053   ----------------------------------------
	BYTE	W96
// 054   ----------------------------------------
	BYTE	W96
// 055   ----------------------------------------
	BYTE	W96
// 056   ----------------------------------------
	BYTE	W96
// 057   ----------------------------------------
	BYTE	W96
// 058   ----------------------------------------
	BYTE	W96
// 059   ----------------------------------------
	BYTE	W96
// 060   ----------------------------------------
	BYTE	W96
// 061   ----------------------------------------
	BYTE	W96
// 062   ----------------------------------------
	BYTE	W96
// 063   ----------------------------------------
	BYTE	W96
// 064   ----------------------------------------
	BYTE	W60
	BYTE		N96     Bn4 
	BYTE	W36
// 065   ----------------------------------------
	BYTE	W60
	BYTE		        An4 
	BYTE	W36
// 066   ----------------------------------------
	BYTE	W60
	BYTE		N96   
	BYTE	W36
// 067   ----------------------------------------
	BYTE	PATT
	 POIN2	Trombe_9_019
// 068   ----------------------------------------
	BYTE	PATT
	 POIN2	Trombe_9_020
// 069   ----------------------------------------
	BYTE	PATT
	 POIN2	Trombe_9_021
// 070   ----------------------------------------
	BYTE	PATT
	 POIN2	Trombe_9_022
// 071   ----------------------------------------
	BYTE	PATT
	 POIN2	Trombe_9_023
// 072   ----------------------------------------
	BYTE	W60
	BYTE		N96     En4   v127
	BYTE	W36
// 073   ----------------------------------------
	BYTE	W60
	BYTE		        An4 
	BYTE	W36
// 074   ----------------------------------------
	BYTE	W60
	BYTE		        As4 
	BYTE	W36
// 075   ----------------------------------------
	BYTE	W60
	BYTE		N48     Bn4 
	BYTE	W36
// 076   ----------------------------------------
	BYTE	PATT
	 POIN2	Trombe_9_028
// 077   ----------------------------------------
	BYTE	W96
// 078   ----------------------------------------
	BYTE	W60
	BYTE		EOT     Gn4 
	BYTE		N60     An4   v127
	BYTE	W36
// 079   ----------------------------------------
	BYTE	PATT
	 POIN2	Trombe_9_031
// 080   ----------------------------------------
	BYTE	W96
// 081   ----------------------------------------
	BYTE	W96
// 082   ----------------------------------------
	BYTE	W96
// 083   ----------------------------------------
	BYTE	W96
// 084   ----------------------------------------
	BYTE	W96
// 085   ----------------------------------------
	BYTE	W96
// 086   ----------------------------------------
	BYTE	W96
// 087   ----------------------------------------
	BYTE	W96
// 088   ----------------------------------------
	BYTE	W96
// 089   ----------------------------------------
	BYTE	W96
// 090   ----------------------------------------
	BYTE	W96
// 091   ----------------------------------------
	BYTE	W96
// 092   ----------------------------------------
	BYTE	W96
// 093   ----------------------------------------
	BYTE	W96
// 094   ----------------------------------------
	BYTE	W96
// 095   ----------------------------------------
	BYTE	W72
	BYTE	GoTo
	 POIN2	Trombe_9_B1
Trombe_9_B2:
	BYTE	W24
// 096   ----------------------------------------
	BYTE	W60
	BYTE	FINE

//******************************************************//
	ALIGN 4

Trombe:
	BYTE	9	// NumTrks
	BYTE	0	// NumBlks
	BYTE	Trombe_pri	// Priority
	BYTE	Trombe_rev	// Reverb.

	POIN2	Trombe_grp

	POIN2	Trombe_1
	POIN2	Trombe_2
	POIN2	Trombe_3
	POIN2	Trombe_4
	POIN2	Trombe_5
	POIN2	Trombe_6
	POIN2	Trombe_7
	POIN2	Trombe_8
	POIN2	Trombe_9

	
