//Event file generated from Sappy .s format.
        #include "MPlayDef.event"

        #define    Truth0_grp  voicegroup000
        #define    Truth0_pri  0
        #define    Truth0_rev  0
        #define    Truth0_key  0

        // .rodata
        // Truth0
        ALIGN  2

//****************** Track 0 (Midi-Chn.0) ******************//

Truth0_0:
        BYTE   KEYSH   Truth0_key+0
// 000   ----------------------------------------
        BYTE   TEMPO   160/2
        BYTE           VOICE   43
        BYTE           VOL     56
        BYTE   W96
// 001   ----------------------------------------
        BYTE   W96
// 002   ----------------------------------------
        BYTE   W96
// 003   ----------------------------------------
        BYTE   W96
// 004   ----------------------------------------
        BYTE   W96
// 005   ----------------------------------------
        BYTE   W96
// 006   ----------------------------------------
        BYTE   W96
// 007   ----------------------------------------
        BYTE   W96
// 008   ----------------------------------------
        BYTE   W96
// 009   ----------------------------------------
        BYTE   W96
// 010   ----------------------------------------
        BYTE   W96
// 011   ----------------------------------------
        BYTE   W96
// 012   ----------------------------------------
        BYTE   W96
// 013   ----------------------------------------
        BYTE   W96
// 014   ----------------------------------------
        BYTE   W96
// 015   ----------------------------------------
        BYTE   W96
// 016   ----------------------------------------
        BYTE   W96
// 017   ----------------------------------------
        BYTE   W96
// 018   ----------------------------------------
        BYTE   W96
// 019   ----------------------------------------
        BYTE   W96
// 020   ----------------------------------------
        BYTE   W56
        BYTE   W03
        BYTE           N12     An2   v088
        BYTE   W12
        BYTE                   Cn3
        BYTE   W11
        BYTE           N28     Gn3
        BYTE   W14
// 021   ----------------------------------------
        BYTE   W13
        BYTE           N22     Fn3
        BYTE   W24
        BYTE           N19     En3
        BYTE   W21
        BYTE           N06     Fn3
        BYTE   W04
        BYTE           N05     En3
        BYTE   W05
        BYTE           N14     Dn3
        BYTE   W15
        BYTE           N66     As2   v088   gtp1
        BYTE   W14
// 022   ----------------------------------------
        BYTE   W60
        BYTE   W01
        BYTE           N13     Gn2
        BYTE   W11
        BYTE           N11     As2
        BYTE   W12
        BYTE           N24     Fn3
        BYTE   W12
// 023   ----------------------------------------
        BYTE   W12
        BYTE                   En3   v088   gtp1
        BYTE   W24
        BYTE           N32     Dn3   v088   gtp2
        BYTE   W22
        BYTE           N07     En3
        BYTE   W12
        BYTE           N15     Cn3
        BYTE   W15
        BYTE           N54     Gn2
        BYTE   W11
// 024   ----------------------------------------
        BYTE   W56
        BYTE   W03
        BYTE           N18
        BYTE   W15
        BYTE           N10     As2
        BYTE   W10
        BYTE           N24     Fn3   v088   gtp2
        BYTE   W12
// 025   ----------------------------------------
        BYTE   W13
        BYTE           N24     En3
        BYTE   W24
        BYTE           N20     Dn3
        BYTE   W21
        BYTE           N08     En3
        BYTE   W05
        BYTE                   Dn3
        BYTE   W08
        BYTE           N16     Cn3
        BYTE   W13
        BYTE           TIE     An2
        BYTE   W12
// 026   ----------------------------------------
        BYTE   W92
        BYTE   W02
        BYTE           EOT
        BYTE   W02
// 027   ----------------------------------------
        BYTE   W13
        BYTE           N12     Fn3
        BYTE   W24
        BYTE           N11     En3
        BYTE   W24
        BYTE           N12     Gn3
        BYTE   W24
        BYTE           N24     Fn3
        BYTE   W11
// 028   ----------------------------------------
        BYTE   W11
        BYTE           N11     En3
        BYTE   W12
        BYTE           N24     Dn3   v088   gtp1
        BYTE   W36
        BYTE   W01
        BYTE           N12     An2
        BYTE   W12
        BYTE                   Cn3
        BYTE   W14
        BYTE           N21     Gn3
        BYTE   W10
// 029   ----------------------------------------
        BYTE   W12
        BYTE           N24     Fn3   v088   gtp3
        BYTE   W24
        BYTE   W01
        BYTE           N20     En3
        BYTE   W22
        BYTE           N08     Fn3
        BYTE   W05
        BYTE           N09     En3
        BYTE   W10
        BYTE           N13     Dn3
        BYTE   W12
        BYTE           N60     As2
        BYTE   W10
// 030   ----------------------------------------
        BYTE   W60
        BYTE   W01
        BYTE           N13     Gn2
        BYTE   W11
        BYTE           N11     As2
        BYTE   W12
        BYTE           N24     Fn3   v088   gtp1
        BYTE   W12
// 031   ----------------------------------------
        BYTE   W12
        BYTE           N24     En3
        BYTE   W24
        BYTE           N23     Dn3
        BYTE   W24
        BYTE           N08     En3
        BYTE   W05
        BYTE           N10     Dn3
        BYTE   W11
        BYTE                   Cn3
        BYTE   W14
        BYTE           N48     Gn2   v088   gtp3
        BYTE   W06
// 032   ----------------------------------------
        BYTE   W60
        BYTE   W01
        BYTE           N14
        BYTE   W11
        BYTE           N10     As2
        BYTE   W13
        BYTE           N23     Fn3
        BYTE   W11
// 033   ----------------------------------------
        BYTE   W11
        BYTE                   En3
        BYTE   W24
        BYTE           N36     Dn3   v088   gtp2
        BYTE   W24
        BYTE           N08     En3
        BYTE   W14
        BYTE           N13     Cn3
        BYTE   W13
        BYTE           N80     An2
        BYTE   W10
// 034   ----------------------------------------
        BYTE   W68
        BYTE   W01
        BYTE           N07     Cn3
        BYTE   W24
        BYTE   W02
        BYTE           N23     Fn3
        BYTE   W01
// 035   ----------------------------------------
        BYTE   W24
        BYTE           N14     En3
        BYTE   W13
        BYTE           N32     Gn3   v088   gtp2
        BYTE   W56
        BYTE   W02
        BYTE           N04     Bn3
        BYTE   W01
// 036   ----------------------------------------
        BYTE   W01
        BYTE           N54     Cn4
        BYTE   W60
        BYTE           N05     As3
        BYTE   W24
        BYTE           N40     An3   v088   gtp1
        BYTE   W11
// 037   ----------------------------------------
        BYTE   W32
        BYTE   W02
        BYTE           N52     Gn3   v088   gtp1
        BYTE   W60
        BYTE           N32     As3   v088   gtp1
        BYTE   W02
// 038   ----------------------------------------
        BYTE   W36
        BYTE   W01
        BYTE           N28     An3
        BYTE   W32
        BYTE   W03
        BYTE           N09     Gn3
        BYTE   W14
        BYTE           N32     An3
        BYTE   W10
// 039   ----------------------------------------
        BYTE   W23
        BYTE           N07     Cn3
        BYTE   W14
        BYTE           N40     An3   v088   gtp1
        BYTE   W56
        BYTE   W03
// 040   ----------------------------------------
        BYTE   W01
        BYTE           N54     As3   v088   gtp1
        BYTE   W56
        BYTE   W01
        BYTE           N16     An3
        BYTE   W24
        BYTE   W03
        BYTE           N44     Gn3   v088   gtp1
        BYTE   W11
// 041   ----------------------------------------
        BYTE   W32
        BYTE   W03
        BYTE           N36     Fn3
        BYTE   W32
        BYTE   W02
        BYTE           N13     Gn3
        BYTE   W24
        BYTE   W02
        BYTE           N40     Fn3   v088   gtp1
        BYTE   W01
// 042   ----------------------------------------
        BYTE   W36
        BYTE   W01
        BYTE           N11     En3
        BYTE   W21
        BYTE           N14     Dn3
        BYTE   W23
        BYTE           N68     Cn3
        BYTE   W15
// 043   ----------------------------------------
        BYTE   W60
        BYTE           N13     As2
        BYTE   W12
        BYTE           N10     Gn2
        BYTE   W12
        BYTE           N72     Cn3
        BYTE   W12
// 044   ----------------------------------------
        BYTE   W56
        BYTE   W03
        BYTE           N11     Dn3
        BYTE   W12
        BYTE           N13     As2
        BYTE   W13
        BYTE           N56     En3   v088   gtp3
        BYTE   W12
// 045   ----------------------------------------
        BYTE   W60
        BYTE           N11     Fn3
        BYTE   W10
        BYTE           N14     Cn3
        BYTE   W15
        BYTE           N32     Gn3   v088   gtp3
        BYTE   W11
// 046   ----------------------------------------
        BYTE   W24
        BYTE           N12     Dn3
        BYTE   W12
        BYTE           N32     Gs3   v088   gtp3
        BYTE   W36
        BYTE           N08     En3
        BYTE   W12
        BYTE           N84     An3
        BYTE   W12
// 047   ----------------------------------------
        BYTE   W80
        BYTE   W02
        BYTE           N11
        BYTE   W12
        BYTE           N24     Dn4   v088   gtp1
        BYTE   W02
// 048   ----------------------------------------
        BYTE   W24
        BYTE           N12     An3
        BYTE   W12
        BYTE           N23     En4
        BYTE   W24
        BYTE           N24     An3
        BYTE   W24
        BYTE           N22     Fn4
        BYTE   W12
// 049   ----------------------------------------
        BYTE   W13
        BYTE           N18     An3
        BYTE   W20
        BYTE           N06     Fn4
        BYTE   W02
        BYTE           N24     Gn4   v088   gtp1
        BYTE   W22
        BYTE           N14     Fn4
        BYTE   W15
        BYTE           N13     En4
        BYTE   W05
        BYTE           N04     Fn4
        BYTE   W05
        BYTE           N12     Dn4
        BYTE   W11
        BYTE           N24     Cn4   v088   gtp3
        BYTE   W03
// 050   ----------------------------------------
        BYTE   W23
        BYTE           N12     Gn3
        BYTE   W13
        BYTE           N21     Dn4
        BYTE   W22
        BYTE           N24     Gn3
        BYTE   W24
        BYTE   W01
        BYTE                   En4   v088   gtp2
        BYTE   W13
// 051   ----------------------------------------
        BYTE   W13
        BYTE           N21     Gn3
        BYTE   W22
        BYTE           N24     Fn4   v088   gtp3
        BYTE   W24
        BYTE   W01
        BYTE           N11     En4
        BYTE   W14
        BYTE           N05     Dn4
        BYTE           N02     En4
        BYTE   W05
        BYTE           N05
        BYTE   W02
        BYTE           N06     Dn4
        BYTE   W06
        BYTE           N11     Cn4
        BYTE   W09
// 052   ----------------------------------------
        BYTE   W01
        BYTE           N22     As3
        BYTE   W23
        BYTE           N11     Fn3
        BYTE   W13
        BYTE           N23     Cn4
        BYTE   W24
        BYTE           N21     Fn3
        BYTE   W21
        BYTE           N22     Dn4
        BYTE   W14
// 053   ----------------------------------------
        BYTE   W10
        BYTE                   Fn3
        BYTE   W23
        BYTE           N23     En4
        BYTE   W24
        BYTE           N07     Dn4
        BYTE   W16
        BYTE           N03
        BYTE   W02
        BYTE           N13     Cn4
        BYTE   W07
        BYTE           N05     Dn4
        BYTE   W13
        BYTE           N06     As3
        BYTE   W01
// 054   ----------------------------------------
        BYTE   W05
        BYTE           N42     An3
        BYTE   W54
        BYTE   W01
        BYTE           N05
        BYTE   W03
        BYTE           N08     As3
        BYTE   W08
        BYTE           N09     An3
        BYTE   W12
        BYTE           N10     Gn3
        BYTE   W12
        BYTE           N12     Fn3
        BYTE   W01
// 055   ----------------------------------------
        BYTE   W13
        BYTE           N10     Gn3
        BYTE   W11
        BYTE           N08     An3
        BYTE   W12
        BYTE           N21     As3
        BYTE   W22
        BYTE           N11     Gn3
        BYTE   W13
        BYTE           N10     Cn4
        BYTE   W24
        BYTE           N24     Dn4
        BYTE   W01
// 056   ----------------------------------------
        BYTE   W24
        BYTE   W01
        BYTE           N12     An3
        BYTE   W12
        BYTE           N21     En4
        BYTE   W23
        BYTE           N24     An3
        BYTE   W23
        BYTE           N23     Fn4
        BYTE   W13
// 057   ----------------------------------------
        BYTE   W11
        BYTE           N21     An3
        BYTE   W24
        BYTE           N05     Fn4
        BYTE   W01
        BYTE           N24     Gn4   v088   gtp1
        BYTE   W21
        BYTE           N15     Fn4
        BYTE   W16
        BYTE           N12     En4
        BYTE   W04
        BYTE           N04     Fn4
        BYTE   W06
        BYTE           N10     Dn4
        BYTE   W11
        BYTE           N24     Cn4
        BYTE   W02
// 058   ----------------------------------------
        BYTE   W23
        BYTE           N12     Gn3
        BYTE   W12
        BYTE           N24     Dn4
        BYTE   W24
        BYTE                   Gn3   v088   gtp1
        BYTE   W23
        BYTE           N24     En4
        BYTE   W14
// 059   ----------------------------------------
        BYTE   W11
        BYTE                   Gn3
        BYTE   W23
        BYTE                   Fn4   v088   gtp3
        BYTE   W24
        BYTE           N15     En4
        BYTE   W14
        BYTE           N05     Dn4
        BYTE   W07
        BYTE           N03     En4
        BYTE   W01
        BYTE           N04     Dn4
        BYTE   W02
        BYTE           N15     Cn4
        BYTE   W14
// 060   ----------------------------------------
        BYTE           N22     As3
        BYTE   W23
        BYTE           N12     Fn3
        BYTE   W13
        BYTE           N21     Cn4
        BYTE   W24
        BYTE           N24     Fn3
        BYTE   W24
        BYTE           N21     Dn4
        BYTE   W12
// 061   ----------------------------------------
        BYTE   W10
        BYTE           N23     Fn3
        BYTE   W24
        BYTE           N24     En4   v088   gtp2
        BYTE   W24
        BYTE           N10     Dn4
        BYTE   W13
        BYTE           N06     Cn4
        BYTE   W05
        BYTE           N07     Dn4
        BYTE   W11
        BYTE           N05     As3
        BYTE   W07
        BYTE           N44     An3
        BYTE   W02
// 062   ----------------------------------------
        BYTE   W56
        BYTE   W03
        BYTE           N05
        BYTE   W03
        BYTE           N09     As3
        BYTE   W10
        BYTE           N12     An3
        BYTE   W11
        BYTE           N11     Gn3
        BYTE   W13
// 063   ----------------------------------------
        BYTE           N12     Fn3
        BYTE   W11
        BYTE                   Gn3
        BYTE   W13
        BYTE           N10     An3
        BYTE   W13
        BYTE           N20     As3
        BYTE   W22
        BYTE           N11     Gn3
        BYTE   W12
        BYTE           N08     Cn4
        BYTE   W12
        BYTE           TIE     Dn4
        BYTE   W01
Truth0_0_LOOP:
        BYTE   W12
// 064   ----------------------------------------
        BYTE   W96
// 065   ----------------------------------------
        BYTE   W18
        BYTE           BEND    c_v-2
        BYTE   W05
        BYTE                   c_v-4
        BYTE   W04
        BYTE                   c_v-6
        BYTE   W03
        BYTE                   c_v-8
        BYTE   W03
        BYTE                   c_v-9
        BYTE   W02
        BYTE                   c_v-11
        BYTE   W03
        BYTE                   c_v-13
        BYTE   W02
        BYTE                   c_v-15
        BYTE   W02
        BYTE                   c_v-17
        BYTE   W02
        BYTE                   c_v-19
        BYTE   W02
        BYTE                   c_v-21
        BYTE   W02
        BYTE                   c_v-23
        BYTE   W01
        BYTE                   c_v-24
        BYTE   W02
        BYTE                   c_v-26
        BYTE   W01
        BYTE                   c_v-28
        BYTE   W02
        BYTE                   c_v-30
        BYTE   W01
        BYTE                   c_v-32
        BYTE   W02
        BYTE                   c_v-34
        BYTE   W01
        BYTE                   c_v-36
        BYTE   W02
        BYTE                   c_v-38
        BYTE   W01
        BYTE                   c_v-40
        BYTE   W01
        BYTE                   c_v-41
        BYTE   W02
        BYTE                   c_v-43
        BYTE   W01
        BYTE                   c_v-45
        BYTE   W01
        BYTE                   c_v-47
        BYTE   W01
        BYTE                   c_v-49
        BYTE   W01
        BYTE                   c_v-51
        BYTE   W01
        BYTE                   c_v-53
        BYTE   W02
        BYTE                   c_v-55
        BYTE   W01
        BYTE                   c_v-56
        BYTE   W01
        BYTE                   c_v-58
        BYTE   W01
        BYTE                   c_v-60
        BYTE   W01
        BYTE                   c_v-62
        BYTE   W01
        BYTE                   c_v-64
        BYTE   W02
        BYTE           EOT     Dn4
        BYTE   W17
        BYTE           BEND    c_v+0
        BYTE   W01
// 066   ----------------------------------------
        BYTE   W96
// 067   ----------------------------------------
        BYTE   W96
// 068   ----------------------------------------
        BYTE   W96
// 069   ----------------------------------------
        BYTE   W96
// 070   ----------------------------------------
        BYTE   W96
// 071   ----------------------------------------
        BYTE   W96
// 072   ----------------------------------------
        BYTE   W96
// 073   ----------------------------------------
        BYTE   W96
// 074   ----------------------------------------
        BYTE   W96
// 075   ----------------------------------------
        BYTE   W96
// 076   ----------------------------------------
        BYTE   W96
// 077   ----------------------------------------
        BYTE   W96
// 078   ----------------------------------------
        BYTE   W96
// 079   ----------------------------------------
        BYTE   W96
// 080   ----------------------------------------
        BYTE   W96
// 081   ----------------------------------------
        BYTE   W96
// 082   ----------------------------------------
        BYTE   W96
// 083   ----------------------------------------
        BYTE   W96
// 084   ----------------------------------------
        BYTE   W96
// 085   ----------------------------------------
        BYTE   W96
// 086   ----------------------------------------
        BYTE   W96
// 087   ----------------------------------------
        BYTE   W96
// 088   ----------------------------------------
        BYTE   W96
// 089   ----------------------------------------
        BYTE   W96
// 090   ----------------------------------------
        BYTE   W96
// 091   ----------------------------------------
        BYTE   W96
// 092   ----------------------------------------
        BYTE   W96
// 093   ----------------------------------------
        BYTE           N08     Gn3   v088
        BYTE   W08
        BYTE           N04
        BYTE   W04
        BYTE                   An3
        BYTE   W04
        BYTE                   Gn3
        BYTE   W04
        BYTE                   Fn3
        BYTE   W04
        BYTE           N05     Gn3
        BYTE   W05
        BYTE           N04     An3
        BYTE   W05
        BYTE                   Gn3
        BYTE   W04
        BYTE           N05     Fn3
        BYTE   W05
        BYTE                   Gn3
        BYTE   W05
        BYTE           N06     An3
        BYTE   W06
        BYTE                   Gn3
        BYTE   W06
        BYTE                   Fn3
        BYTE   W06
        BYTE                   Gn3
        BYTE   W06
        BYTE           N04     An3
        BYTE   W04
        BYTE                   Cn4
        BYTE   W05
        BYTE                   An3
        BYTE   W04
        BYTE                   Cn4
        BYTE   W06
        BYTE                   An3
        BYTE   W05
// 094   ----------------------------------------
        BYTE           N06     Gn3
        BYTE   W06
        BYTE                   Fn3
        BYTE   W06
        BYTE                   An3
        BYTE   W06
        BYTE                   Gn3
        BYTE   W06
        BYTE                   Fn3
        BYTE   W06
        BYTE                   Dn3
        BYTE   W06
        BYTE                   Gn3
        BYTE   W06
        BYTE                   An3
        BYTE   W06
        BYTE                   Gn3
        BYTE   W06
        BYTE                   Cn4
        BYTE   W06
        BYTE                   An3
        BYTE   W06
        BYTE                   Gn3
        BYTE   W06
        BYTE                   Fn3
        BYTE   W06
        BYTE                   Cn4
        BYTE   W06
        BYTE                   An3
        BYTE   W06
        BYTE                   Gn3
        BYTE   W06
// 095   ----------------------------------------
        BYTE                   Fn3
        BYTE   W06
        BYTE                   Gn3
        BYTE   W06
        BYTE                   An3
        BYTE   W06
        BYTE                   Cn4
        BYTE   W06
        BYTE                   An3
        BYTE   W06
        BYTE                   Gn3
        BYTE   W06
        BYTE                   Fn3
        BYTE   W06
        BYTE                   Gn3
        BYTE   W06
        BYTE           N04     An3
        BYTE   W04
        BYTE                   Gn3
        BYTE   W04
        BYTE                   An3
        BYTE   W04
        BYTE           N06     Gn3
        BYTE   W06
        BYTE                   Fn3
        BYTE   W06
        BYTE                   Gn3
        BYTE   W06
        BYTE                   Cn4
        BYTE   W06
        BYTE                   An3
        BYTE   W06
        BYTE                   Gn3
        BYTE   W06
// 096   ----------------------------------------
        BYTE           N04     Fn3
        BYTE   W04
        BYTE                   Gn3
        BYTE   W04
        BYTE                   An3
        BYTE   W04
        BYTE                   Gn3
        BYTE   W04
        BYTE                   An3
        BYTE   W04
        BYTE                   Gn3
        BYTE   W04
        BYTE                   Fn3
        BYTE   W04
        BYTE                   Gn3
        BYTE   W04
        BYTE                   An3
        BYTE   W04
        BYTE                   Gn3
        BYTE   W04
        BYTE                   An3
        BYTE   W04
        BYTE                   Gn3
        BYTE   W04
        BYTE                   Fn3
        BYTE   W04
        BYTE                   Dn3
        BYTE   W04
        BYTE                   An3
        BYTE   W04
        BYTE                   Gn3
        BYTE   W04
        BYTE                   Fn3
        BYTE   W04
        BYTE                   Dn3
        BYTE   W04
        BYTE                   An2
        BYTE   W04
        BYTE                   Gn2
        BYTE   W04
        BYTE                   An2
        BYTE   W04
        BYTE                   Gn2
        BYTE   W04
        BYTE                   Fn2
        BYTE   W04
        BYTE                   Dn2
        BYTE   W04
// 097   ----------------------------------------
        BYTE           N06     An2
        BYTE   W06
        BYTE                   Gn2
        BYTE   W06
        BYTE                   Fn2
        BYTE   W06
        BYTE                   Dn2
        BYTE   W06
        BYTE           N04     Fn2
        BYTE   W04
        BYTE                   Gn2
        BYTE   W04
        BYTE                   An2
        BYTE   W04
        BYTE                   Gn2
        BYTE   W04
        BYTE                   An2
        BYTE   W04
        BYTE                   Cn3
        BYTE   W04
        BYTE           N06     Gn2
        BYTE   W06
        BYTE                   An2
        BYTE   W06
        BYTE                   Dn3
        BYTE   W06
        BYTE                   Fn3
        BYTE   W06
        BYTE           N04     An3
        BYTE   W04
        BYTE                   Cn4
        BYTE   W04
        BYTE                   An3
        BYTE   W04
        BYTE                   Dn3
        BYTE   W04
        BYTE                   Fn3
        BYTE   W04
        BYTE                   Gn3
        BYTE   W04
// 098   ----------------------------------------
        BYTE                   Gn3
        BYTE   W04
        BYTE                   Cn4
        BYTE   W04
        BYTE                   Gn3
        BYTE   W04
        BYTE                   Dn3
        BYTE   W04
        BYTE                   Fn3
        BYTE   W04
        BYTE                   Gn3
        BYTE   W04
        BYTE                   Gn4
        BYTE   W05
        BYTE                   An4
        BYTE   W04
        BYTE           N05     Dn4
        BYTE   W05
        BYTE                   Fn4
        BYTE   W05
        BYTE           N04     Gn4
        BYTE   W05
        BYTE           N05     As4
        BYTE   W05
        BYTE           N04     An4
        BYTE   W05
        BYTE           N05     Cn5
        BYTE   W05
        BYTE           N04     As4
        BYTE   W04
        BYTE           N05     Cs5
        BYTE   W05
        BYTE           N06     Dn5
        BYTE   W06
        BYTE                   Cs5
        BYTE   W06
        BYTE           N03     As4
        BYTE   W03
        BYTE                   An4
        BYTE   W03
        BYTE                   Gn4
        BYTE   W03
        BYTE                   Fn4
        BYTE   W03
// 099   ----------------------------------------
        BYTE           N06     An4
        BYTE   W06
        BYTE           N66     Gn4
        BYTE   W66
        BYTE           N12     Fn4
        BYTE   W12
        BYTE                   Dn4
        BYTE   W12
// 100   ----------------------------------------
        BYTE                   Fn4
        BYTE   W12
        BYTE                   Gn4
        BYTE   W12
        BYTE                   An4
        BYTE   W12
        BYTE                   An4
        BYTE   W12
        BYTE                   Cn5
        BYTE   W12
        BYTE           N72     An4
        BYTE   W36
// 101   ----------------------------------------
        BYTE   W36
        BYTE           N12     Gn4
        BYTE   W12
        BYTE           N24     Fn4
        BYTE   W24
        BYTE           N12     Gn4
        BYTE   W12
        BYTE                   An4
        BYTE   W12
// 102   ----------------------------------------
        BYTE                   Gn4
        BYTE   W12
        BYTE                   Fn4
        BYTE   W12
        BYTE                   Dn4
        BYTE   W12
        BYTE           N06     Gn3
        BYTE   W06
        BYTE                   Gs3
        BYTE   W06
        BYTE           N12     Gn3
        BYTE   W12
        BYTE                   Fn3
        BYTE   W12
        BYTE                   Dn3
        BYTE   W12
        BYTE                   Fn3
        BYTE   W12
// 103   ----------------------------------------
        BYTE                   An3
        BYTE   W12
        BYTE                   An3
        BYTE   W12
        BYTE                   An3
        BYTE   W12
        BYTE                   An3
        BYTE   W12
        BYTE                   An3
        BYTE   W12
        BYTE           N04     Gn3
        BYTE   W04
        BYTE                   Fn3
        BYTE   W04
        BYTE                   Dn3
        BYTE   W04
        BYTE           N06     An3
        BYTE   W06
        BYTE                   Gn3
        BYTE   W06
        BYTE                   Fn3
        BYTE   W06
        BYTE                   Dn3
        BYTE   W06
// 104   ----------------------------------------
        BYTE                   An3
        BYTE   W06
        BYTE                   Gn3
        BYTE   W06
        BYTE                   Fn3
        BYTE   W06
        BYTE                   Dn3
        BYTE   W06
        BYTE           N24     An3
        BYTE   W60
        BYTE           N04     Dn4
        BYTE   W04
        BYTE                   Fn4
        BYTE   W04
        BYTE                   Gn4
        BYTE   W04
// 105   ----------------------------------------
        BYTE           N12     Cn5
        BYTE   W12
        BYTE           N04     As4
        BYTE   W04
        BYTE                   An4
        BYTE   W04
        BYTE                   Gn4
        BYTE   W04
        BYTE           N06     Dn4
        BYTE   W06
        BYTE                   Fn4
        BYTE   W06
        BYTE           N12     An4
        BYTE   W12
        BYTE           N36     Gn4
        BYTE   W36
        BYTE           N04     Dn4
        BYTE   W04
        BYTE                   Gn4
        BYTE   W04
        BYTE                   An4
        BYTE   W04
// 106   ----------------------------------------
        BYTE           N32     Gn4
        BYTE   W32
        BYTE           N04     Dn4
        BYTE   W04
        BYTE                   Fn4
        BYTE   W04
        BYTE                   Gn4
        BYTE   W04
        BYTE                   An4
        BYTE   W04
        BYTE           N32     Gn4
        BYTE   W32
        BYTE           N04     Dn4
        BYTE   W04
        BYTE                   En4
        BYTE   W04
        BYTE                   Fn4
        BYTE   W04
        BYTE                   As4
        BYTE   W04
// 107   ----------------------------------------
        BYTE           N36     Cn5
        BYTE   W36
        BYTE           N12     An4
        BYTE   W12
        BYTE                   As4
        BYTE   W12
        BYTE                   Cn5
        BYTE   W12
        BYTE                   An4
        BYTE   W12
        BYTE                   Cn5
        BYTE   W11
        BYTE           N32     Dn5   v088   gtp3
        BYTE   W01
// 108   ----------------------------------------
        BYTE   W36
        BYTE   W01
        BYTE           N36     Cn5   v088   gtp1
        BYTE   W56
        BYTE   W03
// 109   ----------------------------------------
        BYTE   W01
        BYTE           N56     Cn4
        BYTE   W60
        BYTE           N07     As3
        BYTE   W24
        BYTE           N36     An3   v088   gtp2
        BYTE   W11
// 110   ----------------------------------------
        BYTE   W32
        BYTE   W01
        BYTE           N48     Gn3   v088   gtp2
        BYTE   W60
        BYTE   W02
        BYTE           N30     As3
        BYTE   W01
// 111   ----------------------------------------
        BYTE   W36
        BYTE   W01
        BYTE           N24     An3   v088   gtp3
        BYTE   W32
        BYTE   W03
        BYTE           N16     Gn3
        BYTE   W14
        BYTE           N30     An3
        BYTE   W10
// 112   ----------------------------------------
        BYTE   W23
        BYTE           N11     Cn3
        BYTE   W12
        BYTE           N06     Gs3
        BYTE           N36     An3   v088   gtp3
        BYTE   W60
        BYTE   W01
// 113   ----------------------------------------
        BYTE   W01
        BYTE           N04
        BYTE   W01
        BYTE           N56     As3
        BYTE   W56
        BYTE   W01
        BYTE           N09     An3
        BYTE   W24
        BYTE           N40     Gn3
        BYTE   W13
// 114   ----------------------------------------
        BYTE   W32
        BYTE   W03
        BYTE           N36     Fn3   v088   gtp1
        BYTE   W36
        BYTE           N12     Gn3
        BYTE   W24
        BYTE   W01
// 115   ----------------------------------------
        BYTE   W01
        BYTE           N36     Fn3   v088   gtp2
        BYTE   W36
        BYTE           N11     En3
        BYTE   W24
        BYTE           N10     Dn3
        BYTE   W24
        BYTE           N60     Cn3   v088   gtp1
        BYTE   W11
// 116   ----------------------------------------
        BYTE   W56
        BYTE   W03
        BYTE           N11     As2
        BYTE   W13
        BYTE                   Gn2
        BYTE   W12
        BYTE           N68     Cn3   v088   gtp1
        BYTE   W12
// 117   ----------------------------------------
        BYTE   W60
        BYTE   W01
        BYTE           N11     Dn3
        BYTE   W11
        BYTE           N12     As2
        BYTE   W13
        BYTE           N64     En3
        BYTE   W11
// 118   ----------------------------------------
        BYTE   W60
        BYTE   W02
        BYTE           N12     Fn3
        BYTE   W09
        BYTE                   Cn3
        BYTE   W14
        BYTE           N36     Gn3   v088   gtp2
        BYTE   W11
// 119   ----------------------------------------
        BYTE   W24
        BYTE   W03
        BYTE           N10     Dn3
        BYTE   W10
        BYTE           N36     Gs3   v088   gtp1
        BYTE   W36
        BYTE   W01
        BYTE           N06     En3
        BYTE   W11
        BYTE           N80     An3   v088   gtp3
        BYTE   W11
// 120   ----------------------------------------
        BYTE   W84
        BYTE           N12
        BYTE   W12
// 121   ----------------------------------------
        BYTE   W01
        BYTE           N21     Dn4
        BYTE   W23
        BYTE           N13     An3
        BYTE   W13
        BYTE           N21     En4
        BYTE   W22
        BYTE           N23     An3
        BYTE   W24
        BYTE                   Fn4
        BYTE   W13
// 122   ----------------------------------------
        BYTE   W10
        BYTE           N24     An3
        BYTE   W24
        BYTE   W01
        BYTE           N04     Fn4
        BYTE   W01
        BYTE           N24     Gn4
        BYTE   W22
        BYTE           N12     Fn4
        BYTE   W13
        BYTE           N14     En4
        BYTE   W05
        BYTE           N05     Fn4
        BYTE   W08
        BYTE           N09     Dn4
        BYTE   W10
        BYTE           N22     Cn4
        BYTE   W02
// 123   ----------------------------------------
        BYTE   W22
        BYTE           N11     Gn3
        BYTE   W12
        BYTE           N24     Dn4
        BYTE   W24
        BYTE   W01
        BYTE           N22     Gn3
        BYTE   W23
        BYTE           N24     En4
        BYTE   W14
// 124   ----------------------------------------
        BYTE   W12
        BYTE           N20     Gn3
        BYTE   W23
        BYTE           N24     Fn4
        BYTE   W23
        BYTE           N15     En4
        BYTE   W14
        BYTE           N13     Dn4
        BYTE   W05
        BYTE           N04     En4
        BYTE   W07
        BYTE           N12     Cn4
        BYTE   W11
        BYTE           N22     As3
        BYTE   W01
// 125   ----------------------------------------
        BYTE   W22
        BYTE           N13     Fn3
        BYTE   W13
        BYTE           N22     Cn4
        BYTE   W24
        BYTE           N23     Fn3
        BYTE   W24
        BYTE                   Dn4
        BYTE   W13
// 126   ----------------------------------------
        BYTE   W12
        BYTE           N22     Fn3
        BYTE   W22
        BYTE           N24     En4
        BYTE   W23
        BYTE           N14     Dn4
        BYTE   W15
        BYTE           N08     Cn4
        BYTE   W05
        BYTE           N07     Dn4
        BYTE   W13
        BYTE           N05     As3
        BYTE   W04
        BYTE           N44     An3
        BYTE   W02
// 127   ----------------------------------------
        BYTE   W56
        BYTE   W02
        BYTE           N04
        BYTE   W03
        BYTE           N07     As3
        BYTE   W08
        BYTE           N12     An3
        BYTE   W13
        BYTE           N14     Gn3
        BYTE   W02
        BYTE           N10     An3
        BYTE   W12
// 128   ----------------------------------------
        BYTE   W01
        BYTE           N11     Fn3
        BYTE   W10
        BYTE           N10     Gn3
        BYTE   W12
        BYTE           N08     An3
        BYTE   W15
        BYTE           N19     As3
        BYTE   W21
        BYTE           N10     Gn3
        BYTE   W12
        BYTE                   Cn4
        BYTE   W24
        BYTE           N23     Dn4
        BYTE   W01
// 129   ----------------------------------------
        BYTE   W24
        BYTE   W01
        BYTE           N11     An3
        BYTE   W12
        BYTE           N20     En4
        BYTE   W22
        BYTE           N23     An3
        BYTE   W24
        BYTE           N22     Fn4
        BYTE   W13
// 130   ----------------------------------------
        BYTE   W10
        BYTE           N24     An3
        BYTE   W24
        BYTE           N05     Fn4
        BYTE   W02
        BYTE           N23     Gn4
        BYTE   W21
        BYTE           N14     Fn4
        BYTE   W14
        BYTE           N11     En4
        BYTE   W06
        BYTE           N03     Fn4
        BYTE   W03
        BYTE           N04     Dn4
        BYTE   W13
        BYTE           N24     Cn4
        BYTE   W03
// 131   ----------------------------------------
        BYTE   W22
        BYTE           N14     Gn3
        BYTE   W13
        BYTE           N22     Dn4
        BYTE   W23
        BYTE           N24     Gn3   v088   gtp2
        BYTE   W24
        BYTE   W01
        BYTE           N22     En4
        BYTE   W13
// 132   ----------------------------------------
        BYTE   W11
        BYTE           N20     Gn3
        BYTE   W23
        BYTE           N24     Fn4   v088   gtp2
        BYTE   W24
        BYTE           N15     En4
        BYTE   W14
        BYTE           N13     Dn4
        BYTE   W06
        BYTE           N04     En4
        BYTE   W06
        BYTE           N12     Cn4
        BYTE   W11
        BYTE           N24     As3
        BYTE   W01
// 133   ----------------------------------------
        BYTE   W24
        BYTE           N12     Fn3
        BYTE   W11
        BYTE           N21     Cn4
        BYTE   W22
        BYTE           N24     Fn3
        BYTE   W24
        BYTE   W01
        BYTE           N23     Dn4
        BYTE   W14
// 134   ----------------------------------------
        BYTE   W11
        BYTE           N21     Fn3
        BYTE   W23
        BYTE           N23     En4
        BYTE   W21
        BYTE           N16     Dn4
        BYTE   W16
        BYTE           N14     Cn4
        BYTE   W07
        BYTE           N04     Dn4
        BYTE   W14
        BYTE                   As3
        BYTE   W03
        BYTE           N44     An3   v088   gtp2
        BYTE   W01
// 135   ----------------------------------------
        BYTE   W60
        BYTE           N04
        BYTE   W03
        BYTE           N06     As3
        BYTE   W09
        BYTE           N09     An3
        BYTE   W11
        BYTE           N11     Gn3
        BYTE   W13
// 136   ----------------------------------------
        BYTE   W01
        BYTE                   Fn3
        BYTE   W10
        BYTE                   Gn3
        BYTE   W12
        BYTE           N09     An3
        BYTE   W13
        BYTE           N21     As3
        BYTE   W24
        BYTE           N12     Gn3
        BYTE   W13
        BYTE           N07     Cn4
        BYTE   W11
        BYTE           N12     Dn4
        BYTE   GoTo
         POIN2  Truth0_0_LOOP
        BYTE   W12
// 137   ----------------------------------------
        BYTE           N08     Dn5
        BYTE   W08
        BYTE           N04     En4
        BYTE   W04
        BYTE                   Fn4
        BYTE   W04
        BYTE                   Gn4
        BYTE   W04
        BYTE                   An4
        BYTE   W04
        BYTE           N06     Cn5
        BYTE   W06
        BYTE                   Cs5
        BYTE   W06
        BYTE           N42     Dn5
        BYTE   W42
        BYTE           N06     Cn5
        BYTE   W06
        BYTE                   As4
        BYTE   W06
        BYTE                   An4
        BYTE   W06
// 138   ----------------------------------------
        BYTE           N66     Gn4
        BYTE   W66
        BYTE           N06     Dn4
        BYTE   W06
        BYTE                   Fn4
        BYTE   W06
        BYTE                   Cn5
        BYTE   W06
        BYTE           N12     An4
        BYTE   W12
// 139   ----------------------------------------
        BYTE           N30     Gn4   v088   gtp1
        BYTE   W32
        BYTE           N04     Dn4
        BYTE   W04
        BYTE                   Fn4
        BYTE   W04
        BYTE                   Gn4
        BYTE   W04
        BYTE                   An4
        BYTE   W04
        BYTE           N30     Gn4
        BYTE   W30
        BYTE           N03     Fn4
        BYTE   W03
        BYTE           N14     Dn4
        BYTE   W15
// 140   ----------------------------------------
        BYTE           N42     Gn3
        BYTE   W42
        BYTE           N03     An3
        BYTE   W03
        BYTE                   Cn4
        BYTE   W03
        BYTE           N48     An3
        BYTE   W48
// 141   ----------------------------------------
        BYTE   W30
        BYTE           N06     Dn3
        BYTE   W06
        BYTE                   Fn3
        BYTE   W06
        BYTE                   An3
        BYTE   W06
        BYTE                   Gn3
        BYTE   W06
        BYTE                   An3
        BYTE   W06
        BYTE                   An3
        BYTE   W06
        BYTE                   Cn4
        BYTE   W05
        BYTE                   En4
        BYTE   W06
        BYTE           N05
        BYTE   W05
        BYTE                   Fn4
        BYTE   W05
        BYTE           N04     Gn4
        BYTE   W04
        BYTE           N05     An4
        BYTE   W05
// 142   ----------------------------------------
        BYTE           N36     Cn5
        BYTE   W36
        BYTE           N06     As4
        BYTE   W06
        BYTE                   Gn4
        BYTE   W06
        BYTE           N24     An4
        BYTE   W24
        BYTE           N12     Cn5
        BYTE   W12
        BYTE           N72     An4
        BYTE   W12
// 143   ----------------------------------------
        BYTE   W60
        BYTE           N12     As4
        BYTE   W12
        BYTE           N06     Cn5
        BYTE   W06
        BYTE                   As4
        BYTE   W06
        BYTE                   An4
        BYTE   W06
        BYTE                   Gn4
        BYTE   W06
// 144   ----------------------------------------
        BYTE                   Fn4
        BYTE   W06
        BYTE                   Gn4
        BYTE   W06
        BYTE                   An4
        BYTE   W06
        BYTE           N12     Fn4
        BYTE   W12
        BYTE           N06     Gn4
        BYTE   W06
        BYTE                   Fn4
        BYTE   W06
        BYTE                   Dn4
        BYTE   W06
        BYTE                   Fn4
        BYTE   W06
        BYTE                   Gn4
        BYTE   W06
        BYTE                   Dn4
        BYTE   W06
        BYTE                   An4
        BYTE   W06
        BYTE                   Gn4
        BYTE   W06
        BYTE                   Dn4
        BYTE   W06
        BYTE                   Fn4
        BYTE   W06
        BYTE                   Gn4
        BYTE   W06
// 145   ----------------------------------------
        BYTE                   An4
        BYTE   W06
        BYTE                   Gn4
        BYTE   W06
        BYTE                   Fn4
        BYTE   W06
        BYTE                   En4
        BYTE   W06
        BYTE                   An4
        BYTE   W06
        BYTE                   Gn4
        BYTE   W06
        BYTE                   Fn4
        BYTE   W06
        BYTE                   En4
        BYTE   W06
        BYTE                   An4
        BYTE   W06
        BYTE                   Gn4
        BYTE   W06
        BYTE                   Fn4
        BYTE   W06
        BYTE                   En4
        BYTE   W06
        BYTE                   An4
        BYTE   W06
        BYTE                   Gn4
        BYTE   W06
        BYTE                   Fn4
        BYTE   W06
        BYTE                   En4
        BYTE   W06
// 146   ----------------------------------------
        BYTE                   An4
        BYTE   W06
        BYTE                   Gn4
        BYTE   W06
        BYTE                   Fn4
        BYTE   W06
        BYTE                   En4
        BYTE   W06
        BYTE                   An4
        BYTE   W06
        BYTE                   Gn4
        BYTE   W06
        BYTE                   Fn4
        BYTE   W06
        BYTE                   En4
        BYTE   W06
        BYTE                   An4
        BYTE   W06
        BYTE                   Gn4
        BYTE   W06
        BYTE                   Fn4
        BYTE   W06
        BYTE                   En4
        BYTE   W06
        BYTE           N04     Cn5
        BYTE   W04
        BYTE           N05     An4
        BYTE   W06
        BYTE           N04     Gn4
        BYTE   W05
        BYTE                   Fn4
        BYTE   W04
        BYTE           N05     Dn4
        BYTE   W05
// 147   ----------------------------------------
        BYTE           N06     An4
        BYTE   W06
        BYTE                   Gn4
        BYTE   W06
        BYTE                   Fn4
        BYTE   W06
        BYTE                   Dn4
        BYTE   W06
        BYTE           N04     Cn5
        BYTE   W04
        BYTE           N05     An4
        BYTE   W06
        BYTE           N04     Gn4
        BYTE   W05
        BYTE                   Fn4
        BYTE   W04
        BYTE           N05     Dn4
        BYTE   W05
        BYTE           N06     An4
        BYTE   W06
        BYTE                   Gn4
        BYTE   W06
        BYTE                   Fn4
        BYTE   W06
        BYTE                   Dn4
        BYTE   W06
        BYTE           N04     Cn5
        BYTE   W04
        BYTE           N05     An4
        BYTE   W06
        BYTE           N04     Gn4
        BYTE   W05
        BYTE                   Fn4
        BYTE   W04
        BYTE           N05     Dn4
        BYTE   W05
// 148   ----------------------------------------
        BYTE           N06     An4
        BYTE   W06
        BYTE                   Gn4
        BYTE   W06
        BYTE                   Fn4
        BYTE   W06
        BYTE                   Dn4
        BYTE   W06
        BYTE           N04     Cn5
        BYTE   W04
        BYTE           N05     An4
        BYTE   W06
        BYTE           N04     Gn4
        BYTE   W05
        BYTE                   Fn4
        BYTE   W04
        BYTE           N05     Dn4
        BYTE   W05
        BYTE           N06     An4
        BYTE   W06
        BYTE                   Gn4
        BYTE   W06
        BYTE                   Fn4
        BYTE   W06
        BYTE                   Dn4
        BYTE   W05
        BYTE           N03     Fn4
        BYTE   W04
        BYTE                   Gn4
        BYTE   W04
        BYTE                   Dn4
        BYTE   W03
        BYTE                   Fn4
        BYTE   W04
        BYTE                   Gn4
        BYTE   W03
        BYTE                   An4
        BYTE   W03
        BYTE                   Cn5
        BYTE   W04
// 149   ----------------------------------------
        BYTE           N48     An4
        BYTE   W48
        BYTE           N03     Fn4
        BYTE   W05
        BYTE                   Gn4
        BYTE   W05
        BYTE                   An4
        BYTE   W05
        BYTE                   Cn5
        BYTE   W04
        BYTE                   Fn4
        BYTE   W05
        BYTE                   Gn4
        BYTE   W05
        BYTE                   An4
        BYTE   W05
        BYTE                   Gn4
        BYTE   W06
        BYTE                   Fn4
        BYTE   W04
        BYTE                   En4
        BYTE   W04
// 150   ----------------------------------------
        BYTE           N06     Gn4
        BYTE   W06
        BYTE                   Fn4
        BYTE   W06
        BYTE                   Dn4
        BYTE   W06
        BYTE                   An3
        BYTE   W10
        BYTE           N03     Cn4
        BYTE   W05
        BYTE                   An3
        BYTE   W05
        BYTE                   Gn3
        BYTE   W05
        BYTE                   Fn3
        BYTE   W05
        BYTE           N06     Gn3
        BYTE   W06
        BYTE                   An3
        BYTE   W06
        BYTE                   Gn3
        BYTE   W06
        BYTE                   Fn3
        BYTE   W06
        BYTE                   Dn3
        BYTE   W06
        BYTE                   An2
        BYTE   W06
        BYTE                   Gn2
        BYTE   W06
        BYTE                   Fn2
        BYTE   W06
// 151   ----------------------------------------
        BYTE           N48
        BYTE   W48
        BYTE           N06     Dn2
        BYTE   W06
        BYTE                   Fn2
        BYTE   W06
        BYTE                   Gn2
        BYTE   W06
        BYTE                   An2
        BYTE   W06
        BYTE           N03     Fn2
        BYTE   W04
        BYTE                   Gn2
        BYTE   W06
        BYTE                   An2
        BYTE   W06
        BYTE                   Gn2
        BYTE   W04
        BYTE                   An2
        BYTE   W04
// 152   ----------------------------------------
        BYTE           N06     Cn3
        BYTE   W06
        BYTE                   An2
        BYTE   W06
        BYTE                   Cn3
        BYTE   W06
        BYTE                   Dn3
        BYTE   W18
        BYTE                   Dn3
        BYTE   W06
        BYTE                   Fn3
        BYTE   W06
        BYTE                   Dn3
        BYTE   W06
        BYTE                   Fn3
        BYTE   W06
        BYTE                   Gn3
        BYTE   W06
        BYTE                   Fn3
        BYTE   W06
        BYTE                   Gn3
        BYTE   W06
        BYTE                   An3
        BYTE   W06
        BYTE                   Gn3
        BYTE   W06
        BYTE                   An3
        BYTE   W06
// 153   ----------------------------------------
        BYTE                   Cn4
        BYTE   W06
        BYTE                   An3
        BYTE   W06
        BYTE                   Cn4
        BYTE   W06
        BYTE                   Dn4
        BYTE   W06
        BYTE                   Gn4
        BYTE   W06
        BYTE                   Dn4
        BYTE   W06
        BYTE                   Fn4
        BYTE   W06
        BYTE                   Dn4
        BYTE   W06
        BYTE                   Fn4
        BYTE   W06
        BYTE                   Gn4
        BYTE   W06
        BYTE                   Fn4
        BYTE   W06
        BYTE                   Gn4
        BYTE   W06
        BYTE           N03     An4
        BYTE   W05
        BYTE                   Gn4
        BYTE   W04
        BYTE                   An4
        BYTE   W06
        BYTE                   Gn4
        BYTE   W05
        BYTE                   Fn4
        BYTE   W04
// 154   ----------------------------------------
        BYTE           N04     Dn4
        BYTE   W04
        BYTE                   Gn4
        BYTE   W04
        BYTE                   An4
        BYTE   W04
        BYTE                   Gn4
        BYTE   W04
        BYTE                   Fn4
        BYTE   W04
        BYTE                   Dn4
        BYTE   W04
        BYTE           N24     Cn3
        BYTE   W24
        BYTE           N04     Fn3
        BYTE   W04
        BYTE                   Gn3
        BYTE   W04
        BYTE                   An3
        BYTE   W04
        BYTE           N12     Cn4
        BYTE   W12
        BYTE           N06     Cn5
        BYTE   W06
        BYTE                   Gn4
        BYTE   W06
        BYTE           N12     Cn4
        BYTE   W12
// 155   ----------------------------------------
        BYTE   W24
        BYTE           N04
        BYTE   W04
        BYTE                   Fn4
        BYTE   W04
        BYTE                   Gn4
        BYTE   W04
        BYTE           N06     Cn5
        BYTE   W06
        BYTE                   Gn4
        BYTE   W06
        BYTE                   Cn4
        BYTE   W06
        BYTE                   Cn5
        BYTE   W06
        BYTE                   Gn4
        BYTE   W06
        BYTE                   Cn4
        BYTE   W06
        BYTE                   Cn5
        BYTE   W06
        BYTE                   Gn4
        BYTE   W06
        BYTE                   Cn4
        BYTE   W06
        BYTE                   Cn5
        BYTE   W06
// 156   ----------------------------------------
        BYTE                   Gn4
        BYTE   W06
        BYTE                   Cn4
        BYTE   W06
        BYTE                   Cn5
        BYTE   W06
        BYTE                   Gn4
        BYTE   W06
        BYTE                   Cn4
        BYTE   W06
        BYTE                   Cn5
        BYTE   W06
        BYTE                   Gn4
        BYTE   W06
        BYTE                   Cn4
        BYTE   W06
        BYTE                   Cn5
        BYTE   W06
        BYTE                   Gn4
        BYTE   W06
        BYTE                   Cn4
        BYTE   W06
        BYTE                   Cn5
        BYTE   W06
        BYTE                   Gn4
        BYTE   W06
        BYTE                   Cn4
        BYTE   W06
        BYTE                   Cn5
        BYTE   W06
        BYTE                   Gn4
        BYTE   W06
// 157   ----------------------------------------
        BYTE   FINE

//****************** Track 1 (Midi-Chn.1) ******************//

Truth0_1:
        BYTE   KEYSH   Truth0_key+0
// 000   ----------------------------------------
        BYTE           VOICE   122
        BYTE           VOL     51
        BYTE           N10     Cn1   v088
        BYTE           N10     Cs2
        BYTE   W24
        BYTE                   En1
        BYTE   W24
        BYTE                   Cn1
        BYTE   W24
        BYTE                   En1
        BYTE   W24
// 001   ----------------------------------------
Truth0_1_1:
        BYTE           N10     Cn1   v088
        BYTE   W24
        BYTE                   En1
        BYTE   W24
        BYTE                   Cn1
        BYTE   W24
        BYTE                   En1
        BYTE   W24
        BYTE   PEND
// 002   ----------------------------------------
        BYTE   PATT
         POIN2  Truth0_1_1
// 003   ----------------------------------------
Truth0_1_3:
        BYTE           N10     Cn1   v088
        BYTE   W24
        BYTE                   En1
        BYTE   W24
        BYTE                   Cn1
        BYTE   W24
        BYTE                   Cn1
        BYTE           N10     En1
        BYTE           N10     Cs2
        BYTE   W12
        BYTE                   Cn1
        BYTE           N10     En1
        BYTE           N10     Cs2
        BYTE   W12
        BYTE   PEND
// 004   ----------------------------------------
Truth0_1_4:
        BYTE   W24
        BYTE           N10     En1   v088
        BYTE   W24
        BYTE                   Fs1
        BYTE   W12
        BYTE                   Fs1
        BYTE   W12
        BYTE                   Cn1
        BYTE           N10     En1
        BYTE           N10     Cs2
        BYTE   W12
        BYTE           N32     Cn1   v088   gtp2
        BYTE                   En1
        BYTE           N32     Cs2   v088   gtp2
        BYTE   W12
        BYTE   PEND
// 005   ----------------------------------------
Truth0_1_5:
        BYTE   W24
        BYTE           N10     Cn1   v088
        BYTE           N10     En1
        BYTE           N10     Cs2
        BYTE   W12
        BYTE                   Cn1
        BYTE           N10     En1
        BYTE           N10     Cs2
        BYTE   W36
        BYTE                   Cn1
        BYTE           N10     En1
        BYTE           N10     Cs2
        BYTE   W12
        BYTE                   Cn1
        BYTE           N10     En1
        BYTE           N10     Cs2
        BYTE   W12
        BYTE   PEND
// 006   ----------------------------------------
Truth0_1_6:
        BYTE   W24
        BYTE           N10     En1   v088
        BYTE   W24
        BYTE                   Cn1
        BYTE   W24
        BYTE                   En1
        BYTE   W24
        BYTE   PEND
// 007   ----------------------------------------
        BYTE   PATT
         POIN2  Truth0_1_1
// 008   ----------------------------------------
        BYTE   PATT
         POIN2  Truth0_1_1
// 009   ----------------------------------------
        BYTE   PATT
         POIN2  Truth0_1_3
// 010   ----------------------------------------
        BYTE   PATT
         POIN2  Truth0_1_4
// 011   ----------------------------------------
        BYTE   PATT
         POIN2  Truth0_1_5
// 012   ----------------------------------------
        BYTE   PATT
         POIN2  Truth0_1_6
// 013   ----------------------------------------
        BYTE   PATT
         POIN2  Truth0_1_1
// 014   ----------------------------------------
        BYTE   PATT
         POIN2  Truth0_1_1
// 015   ----------------------------------------
        BYTE   PATT
         POIN2  Truth0_1_3
// 016   ----------------------------------------
        BYTE   PATT
         POIN2  Truth0_1_4
// 017   ----------------------------------------
        BYTE   PATT
         POIN2  Truth0_1_5
// 018   ----------------------------------------
        BYTE   W24
        BYTE           N10     En1   v088
        BYTE           N10     Fs1
        BYTE   W12
        BYTE                   Fs1
        BYTE   W12
        BYTE                   Cn1
        BYTE           N10     Fs1
        BYTE   W12
        BYTE                   Fs1
        BYTE   W12
        BYTE                   En1
        BYTE           N10     Fs1
        BYTE   W12
        BYTE                   Fs1
        BYTE   W12
// 019   ----------------------------------------
        BYTE                   Bn1
        BYTE           N10     Cn2
        BYTE   W12
        BYTE                   Cn1
        BYTE   W12
        BYTE                   An1
        BYTE           N10     Bn1
        BYTE   W12
        BYTE                   Cn1
        BYTE   W12
        BYTE                   Gn1
        BYTE           N10     An1
        BYTE   W12
        BYTE                   Fs1
        BYTE   W12
        BYTE                   Fs1
        BYTE   W12
        BYTE                   Cn1
        BYTE           N10     As1
        BYTE   W12
// 020   ----------------------------------------
Truth0_1_20:
        BYTE           N11     Cn1   v088
        BYTE   W24
        BYTE           N10     En1
        BYTE   W24
        BYTE                   Cn1
        BYTE   W24
        BYTE                   En1
        BYTE   W24
        BYTE   PEND
// 021   ----------------------------------------
Truth0_1_21:
        BYTE           N10     Cn1   v088
        BYTE   W24
        BYTE                   En1
        BYTE   W24
        BYTE                   Cn1
        BYTE   W24
        BYTE                   En1
        BYTE   W12
        BYTE                   Cn1
        BYTE   W12
        BYTE   PEND
// 022   ----------------------------------------
Truth0_1_22:
        BYTE   W12
        BYTE           N10     Cn1   v088
        BYTE   W12
        BYTE                   En1
        BYTE   W24
        BYTE                   Cn1
        BYTE   W24
        BYTE                   En1
        BYTE   W24
        BYTE   PEND
// 023   ----------------------------------------
        BYTE   PATT
         POIN2  Truth0_1_21
// 024   ----------------------------------------
        BYTE   PATT
         POIN2  Truth0_1_22
// 025   ----------------------------------------
        BYTE   PATT
         POIN2  Truth0_1_21
// 026   ----------------------------------------
        BYTE   W12
        BYTE           N10     Cn1   v088
        BYTE   W12
        BYTE                   En1
        BYTE   W24
        BYTE                   Cn1
        BYTE   W12
        BYTE                   Cn1
        BYTE   W12
        BYTE                   En1
        BYTE   W24
// 027   ----------------------------------------
        BYTE                   Fs1
        BYTE   W12
        BYTE                   Cn1
        BYTE           N10     As1
        BYTE   W12
        BYTE                   En1
        BYTE           N10     Fs1
        BYTE   W12
        BYTE                   Cn1
        BYTE           N10     As1
        BYTE   W12
        BYTE                   Fs1
        BYTE   W12
        BYTE                   As1
        BYTE   W12
        BYTE                   En1
        BYTE           N10     Fs1
        BYTE   W12
        BYTE                   Cn1
        BYTE           N10     Cs2
        BYTE   W12
// 028   ----------------------------------------
        BYTE   PATT
         POIN2  Truth0_1_20
// 029   ----------------------------------------
        BYTE   PATT
         POIN2  Truth0_1_21
// 030   ----------------------------------------
        BYTE   PATT
         POIN2  Truth0_1_22
// 031   ----------------------------------------
        BYTE   PATT
         POIN2  Truth0_1_21
// 032   ----------------------------------------
        BYTE   PATT
         POIN2  Truth0_1_22
// 033   ----------------------------------------
        BYTE   PATT
         POIN2  Truth0_1_21
// 034   ----------------------------------------
        BYTE   W12
        BYTE           N10     Cn1   v088
        BYTE   W12
        BYTE                   En1
        BYTE   W24
        BYTE                   Cn1
        BYTE   W12
        BYTE           N05
        BYTE   W06
        BYTE                   Cn1
        BYTE   W06
        BYTE                   En1
        BYTE   W24
// 035   ----------------------------------------
        BYTE           N10     Cn1
        BYTE           N10     Cs2
        BYTE   W24
        BYTE                   En1
        BYTE   W12
        BYTE                   Cn1
        BYTE           N10     As1
        BYTE   W12
        BYTE                   Fs1
        BYTE   W12
        BYTE                   Cn1
        BYTE   W12
        BYTE                   Cn2
        BYTE   W24
// 036   ----------------------------------------
Truth0_1_36:
        BYTE           N11     Cn1   v088
        BYTE           N11     Cs2
        BYTE   W24
        BYTE           N10     En1
        BYTE           N10     Fs1
        BYTE   W24
        BYTE                   Fs1
        BYTE   W12
        BYTE                   Cn1
        BYTE   W12
        BYTE                   En1
        BYTE           N10     Fs1
        BYTE   W12
        BYTE                   Cn1
        BYTE   W12
        BYTE   PEND
// 037   ----------------------------------------
Truth0_1_37:
        BYTE           N10     Fs1   v088
        BYTE   W24
        BYTE                   En1
        BYTE           N10     Fs1
        BYTE   W12
        BYTE                   Cn1
        BYTE   W12
        BYTE                   Fs1
        BYTE   W24
        BYTE                   En1
        BYTE           N10     Fs1
        BYTE   W24
        BYTE   PEND
// 038   ----------------------------------------
Truth0_1_38:
        BYTE           N10     Cn1   v088
        BYTE           N10     Fs1
        BYTE   W24
        BYTE                   En1
        BYTE           N10     Fs1
        BYTE   W12
        BYTE                   Cn1
        BYTE   W12
        BYTE                   Fs1
        BYTE   W24
        BYTE                   Cn1
        BYTE           N10     En1
        BYTE           N10     Fs1
        BYTE   W12
        BYTE                   Cn1
        BYTE           N10     Cs2
        BYTE   W12
        BYTE   PEND
// 039   ----------------------------------------
        BYTE   W24
        BYTE                   Cn1
        BYTE           N10     En1
        BYTE           N10     Fs1
        BYTE   W12
        BYTE                   Cn1
        BYTE           N10     Cs2
        BYTE   W36
        BYTE                   En1
        BYTE           N10     Fs1
        BYTE   W24
// 040   ----------------------------------------
Truth0_1_40:
        BYTE           N10     Cn1   v088
        BYTE           N10     Fs1
        BYTE   W24
        BYTE                   En1
        BYTE           N10     Fs1
        BYTE   W24
        BYTE                   Fs1
        BYTE   W12
        BYTE                   Cn1
        BYTE   W12
        BYTE                   En1
        BYTE           N10     Fs1
        BYTE   W12
        BYTE                   Cn1
        BYTE   W12
        BYTE   PEND
// 041   ----------------------------------------
        BYTE                   Fs1
        BYTE   W24
        BYTE                   En1
        BYTE           N10     Fs1
        BYTE   W12
        BYTE                   Cn1
        BYTE   W12
        BYTE                   Fs1
        BYTE   W12
        BYTE                   Cn1
        BYTE   W12
        BYTE                   En1
        BYTE           N10     Fs1
        BYTE   W24
// 042   ----------------------------------------
Truth0_1_42:
        BYTE           N11     Cn1   v088
        BYTE           N11     Cs2
        BYTE   W24
        BYTE           N10     En1
        BYTE   W12
        BYTE                   Cn1
        BYTE           N10     As1
        BYTE   W12
        BYTE                   Fs1
        BYTE   W12
        BYTE                   Cn1
        BYTE           N10     As1
        BYTE   W12
        BYTE                   En1
        BYTE           N10     Fs1
        BYTE   W12
        BYTE                   Cn1
        BYTE           N10     Cs2
        BYTE   W12
        BYTE   PEND
// 043   ----------------------------------------
Truth0_1_43:
        BYTE   W12
        BYTE           N10     Cn1   v088
        BYTE   W12
        BYTE                   En1
        BYTE           N10     Fs1
        BYTE   W24
        BYTE                   Fs1
        BYTE   W12
        BYTE                   Cn1
        BYTE           N10     As1
        BYTE   W12
        BYTE                   En1
        BYTE           N10     Fs1
        BYTE   W12
        BYTE                   Cn1
        BYTE           N10     Cs2
        BYTE   W12
        BYTE   PEND
// 044   ----------------------------------------
        BYTE   PATT
         POIN2  Truth0_1_43
// 045   ----------------------------------------
        BYTE   PATT
         POIN2  Truth0_1_43
// 046   ----------------------------------------
Truth0_1_46:
        BYTE   W24
        BYTE           N10     En1   v088
        BYTE           N10     Fs1
        BYTE   W12
        BYTE                   Cn1
        BYTE           N10     Cs2
        BYTE   W36
        BYTE                   En1
        BYTE           N10     Fs1
        BYTE   W12
        BYTE                   Cn1
        BYTE           N10     Cs2
        BYTE   W12
        BYTE   PEND
// 047   ----------------------------------------
Truth0_1_47:
        BYTE   W12
        BYTE           N10     Bn1   v088
        BYTE   W12
        BYTE           N05     En1
        BYTE   W06
        BYTE                   En1
        BYTE   W18
        BYTE                   En1
        BYTE   W12
        BYTE                   En1
        BYTE   W06
        BYTE                   En1
        BYTE   W06
        BYTE                   En1
        BYTE   W06
        BYTE                   En1
        BYTE   W06
        BYTE                   En1
        BYTE   W12
        BYTE   PEND
// 048   ----------------------------------------
Truth0_1_48:
        BYTE           N08     Cn1   v088
        BYTE           N05     Cs2
        BYTE   W24
        BYTE           N06     Fn2
        BYTE           N06     En1
        BYTE   W24
        BYTE           N07     Cn1
        BYTE           N04     Fn2
        BYTE   W24
        BYTE           N03
        BYTE           N05     En1
        BYTE   W24
        BYTE   PEND
// 049   ----------------------------------------
Truth0_1_49:
        BYTE           N03     Fn2   v088
        BYTE           N05     Cn1
        BYTE   W24
        BYTE                   Fn2
        BYTE           N05     En1
        BYTE   W24
        BYTE           N03     Cn1
        BYTE           N04     Fn2
        BYTE   W12
        BYTE           N05     Cn1
        BYTE   W12
        BYTE                   Fn2
        BYTE           N05     En1
        BYTE   W24
        BYTE   PEND
// 050   ----------------------------------------
Truth0_1_50:
        BYTE           N06     Cn1   v088
        BYTE           N03     Fn2
        BYTE   W24
        BYTE           N04     En1
        BYTE           N03     Fn2
        BYTE   W24
        BYTE           N05     Cn1
        BYTE           N02     Fn2
        BYTE   W24
        BYTE           N03
        BYTE           N05     En1
        BYTE   W24
        BYTE   PEND
// 051   ----------------------------------------
Truth0_1_51:
        BYTE           N05     Cn1   v088
        BYTE           N04     Fn2
        BYTE   W24
        BYTE           N06     En1
        BYTE           N03     Fn2
        BYTE   W24
        BYTE                   Cn1
        BYTE           N02     Fn2
        BYTE   W12
        BYTE           N04     Cn1
        BYTE   W12
        BYTE                   Fn2
        BYTE           N06     En1
        BYTE   W24
        BYTE   PEND
// 052   ----------------------------------------
Truth0_1_52:
        BYTE           N04     Fn2   v088
        BYTE           N04     Cn1
        BYTE   W24
        BYTE                   Fn2
        BYTE           N05     En1
        BYTE   W24
        BYTE           N03     Fn2
        BYTE           N04     Cn1
        BYTE   W24
        BYTE           N03     Fn2
        BYTE           N04     En1
        BYTE   W24
        BYTE   PEND
// 053   ----------------------------------------
Truth0_1_53:
        BYTE           N04     Cn1   v088
        BYTE           N03     Fn2
        BYTE   W24
        BYTE           N05     En1
        BYTE           N04     Fn2
        BYTE   W24
        BYTE           N03     Cn1
        BYTE           N03     Fn2
        BYTE   W12
        BYTE           N05     Cn1
        BYTE   W12
        BYTE           N02     Fn2
        BYTE           N06     En1
        BYTE   W24
        BYTE   PEND
// 054   ----------------------------------------
Truth0_1_54:
        BYTE           N05     Cn1   v088
        BYTE           N03     Fn2
        BYTE   W24
        BYTE           N04
        BYTE           N06     En1
        BYTE   W24
        BYTE                   Cn1
        BYTE           N05     Fn2
        BYTE   W12
        BYTE           N04     En1
        BYTE   W12
        BYTE           N06     Fn2
        BYTE           N07     En1
        BYTE   W24
        BYTE   PEND
// 055   ----------------------------------------
Truth0_1_55:
        BYTE           N08     Cs2   v088
        BYTE           N08     Cn1
        BYTE   W24
        BYTE           N06     En1
        BYTE   W12
        BYTE           N07     Cn1
        BYTE           N06     Cs2
        BYTE   W24
        BYTE                   Cn1
        BYTE   W12
        BYTE                   Cs2
        BYTE           N06     En1
        BYTE   W24
        BYTE   PEND
// 056   ----------------------------------------
        BYTE   PATT
         POIN2  Truth0_1_48
// 057   ----------------------------------------
        BYTE   PATT
         POIN2  Truth0_1_49
// 058   ----------------------------------------
        BYTE   PATT
         POIN2  Truth0_1_50
// 059   ----------------------------------------
        BYTE   PATT
         POIN2  Truth0_1_51
// 060   ----------------------------------------
        BYTE   PATT
         POIN2  Truth0_1_52
// 061   ----------------------------------------
        BYTE   PATT
         POIN2  Truth0_1_53
// 062   ----------------------------------------
        BYTE           N10     Cn1   v088
        BYTE           N10     Fn2
        BYTE   W24
        BYTE                   En1
        BYTE           N10     Fn2
        BYTE   W24
        BYTE                   Cn1
        BYTE   W12
        BYTE           N03     Gn1
        BYTE   W04
        BYTE                   Gn1
        BYTE   W04
        BYTE                   Gn1
        BYTE   W04
        BYTE           N05
        BYTE   W12
        BYTE                   Gn1
        BYTE   W12
// 063   ----------------------------------------
        BYTE           N10     Cn1
        BYTE           N10     Cs2
        BYTE   W24
        BYTE                   En1
        BYTE   W12
        BYTE                   Cn1
        BYTE           N10     As1
        BYTE   W12
        BYTE                   Fs1
        BYTE   W12
        BYTE                   Cn1
        BYTE   W12
        BYTE                   Cn1
        BYTE           N10     Cs2
        BYTE   W12
Truth0_1_LOOP:
        BYTE           N10     Cn1   v088
        BYTE           N10     Cs2
        BYTE   W12
// 064   ----------------------------------------
Truth0_1_64:
        BYTE           N21     Cn1   v088
        BYTE   W24
        BYTE                   Cn1
        BYTE   W24
        BYTE                   Cn1
        BYTE   W24
        BYTE                   Cn1
        BYTE   W24
        BYTE   PEND
// 065   ----------------------------------------
        BYTE   PATT
         POIN2  Truth0_1_64
// 066   ----------------------------------------
        BYTE   PATT
         POIN2  Truth0_1_64
// 067   ----------------------------------------
        BYTE           N21     Cn1   v088
        BYTE   W24
        BYTE                   Cn1
        BYTE   W24
        BYTE                   Cn1
        BYTE   W24
        BYTE           N10
        BYTE           N10     En1
        BYTE           N10     Cs2
        BYTE   W12
        BYTE                   En1
        BYTE           N10     Cs2
        BYTE   W12
// 068   ----------------------------------------
        BYTE           N21     Cn1
        BYTE   W24
        BYTE                   Cn1
        BYTE   W24
        BYTE                   Cn1
        BYTE   W24
        BYTE                   Cn1
        BYTE           N10     En1
        BYTE           N10     Cs2
        BYTE   W12
        BYTE                   En1
        BYTE           N10     Cs2
        BYTE   W12
// 069   ----------------------------------------
        BYTE           N21     Cn1
        BYTE   W24
        BYTE                   Cn1
        BYTE           N10     En1
        BYTE           N10     Cs2
        BYTE   W12
        BYTE                   Cs2
        BYTE   W12
        BYTE           N21     Cn1
        BYTE   W24
        BYTE           N10
        BYTE           N10     En1
        BYTE           N10     Cs2
        BYTE   W12
        BYTE                   As1
        BYTE           N05     Cn1
        BYTE           N05     En1
        BYTE   W12
// 070   ----------------------------------------
Truth0_1_70:
        BYTE           N21     Cn1   v088
        BYTE   W24
        BYTE                   Cn1
        BYTE           N21     Gn1
        BYTE           N21     An1
        BYTE   W24
        BYTE                   Cn1
        BYTE   W24
        BYTE                   Cn1
        BYTE           N21     Gn1
        BYTE           N21     An1
        BYTE   W24
        BYTE   PEND
// 071   ----------------------------------------
        BYTE   PATT
         POIN2  Truth0_1_70
// 072   ----------------------------------------
        BYTE   PATT
         POIN2  Truth0_1_70
// 073   ----------------------------------------
        BYTE           N21     Cn1   v088
        BYTE   W24
        BYTE                   Cn1
        BYTE           N21     Gn1
        BYTE           N21     An1
        BYTE   W24
        BYTE                   Cn1
        BYTE   W24
        BYTE                   Cn1
        BYTE   W24
// 074   ----------------------------------------
        BYTE                   Cn1
        BYTE           N10     Cn2
        BYTE   W12
        BYTE                   Cn2
        BYTE   W12
        BYTE           N21     Cn1
        BYTE           N10     Bn1
        BYTE   W12
        BYTE                   Bn1
        BYTE   W12
        BYTE           N21     Cn1
        BYTE           N10     An1
        BYTE   W12
        BYTE                   An1
        BYTE   W12
        BYTE           N21     Cn1
        BYTE           N10     En1
        BYTE   W12
        BYTE                   En1
        BYTE   W12
// 075   ----------------------------------------
        BYTE           N21     Cn1
        BYTE           N10     Cn2
        BYTE   W12
        BYTE                   Cn2
        BYTE   W12
        BYTE           N21     Cn1
        BYTE           N10     Bn1
        BYTE   W12
        BYTE                   Bn1
        BYTE   W12
        BYTE           N21     Cn1
        BYTE           N06     Cn2
        BYTE   W08
        BYTE                   Cn2
        BYTE   W08
        BYTE                   Cn2
        BYTE   W08
        BYTE           N21     Cn1
        BYTE           N06     Bn1
        BYTE   W08
        BYTE                   Bn1
        BYTE   W08
        BYTE                   An1
        BYTE   W08
// 076   ----------------------------------------
        BYTE           N21     Cn1
        BYTE           N06     Gn1
        BYTE   W08
        BYTE                   Gn1
        BYTE   W08
        BYTE                   Gn1
        BYTE   W08
        BYTE           N21     Cn1
        BYTE           N10     Cs2
        BYTE   W24
        BYTE                   En1
        BYTE   W12
        BYTE                   Cn1
        BYTE           N10     As1
        BYTE   W12
        BYTE                   Fs1
        BYTE   W12
        BYTE                   Cn1
        BYTE           N10     Cs2
        BYTE   W12
// 077   ----------------------------------------
Truth0_1_77:
        BYTE           N08     Cn1   v088
        BYTE   W24
        BYTE           N06     Fn2
        BYTE           N06     En1
        BYTE   W24
        BYTE           N07     Cn1
        BYTE           N04     Fn2
        BYTE   W24
        BYTE           N03
        BYTE           N05     En1
        BYTE   W24
        BYTE   PEND
// 078   ----------------------------------------
        BYTE   PATT
         POIN2  Truth0_1_49
// 079   ----------------------------------------
        BYTE   PATT
         POIN2  Truth0_1_50
// 080   ----------------------------------------
        BYTE   PATT
         POIN2  Truth0_1_51
// 081   ----------------------------------------
        BYTE   PATT
         POIN2  Truth0_1_52
// 082   ----------------------------------------
        BYTE   PATT
         POIN2  Truth0_1_53
// 083   ----------------------------------------
Truth0_1_83:
        BYTE           N05     Cn1   v088
        BYTE           N03     Fn2
        BYTE   W24
        BYTE           N04
        BYTE           N06     En1
        BYTE   W24
        BYTE                   Cn1
        BYTE           N05     Fn2
        BYTE   W12
        BYTE           N10     Cn1
        BYTE   W12
        BYTE                   En1
        BYTE           N10     Fn2
        BYTE   W24
        BYTE   PEND
// 084   ----------------------------------------
        BYTE                   Cn1
        BYTE           N10     Fn2
        BYTE   W24
        BYTE                   En1
        BYTE           N10     Fn2
        BYTE   W24
        BYTE                   Fn2
        BYTE   W12
        BYTE                   Cn1
        BYTE           N10     Cs2
        BYTE   W12
        BYTE                   En1
        BYTE   W12
        BYTE                   Cn1
        BYTE           N10     Cs2
        BYTE   W12
// 085   ----------------------------------------
        BYTE   PATT
         POIN2  Truth0_1_77
// 086   ----------------------------------------
        BYTE   PATT
         POIN2  Truth0_1_49
// 087   ----------------------------------------
        BYTE   PATT
         POIN2  Truth0_1_50
// 088   ----------------------------------------
        BYTE   PATT
         POIN2  Truth0_1_51
// 089   ----------------------------------------
        BYTE   PATT
         POIN2  Truth0_1_52
// 090   ----------------------------------------
        BYTE   PATT
         POIN2  Truth0_1_53
// 091   ----------------------------------------
        BYTE   PATT
         POIN2  Truth0_1_83
// 092   ----------------------------------------
        BYTE           N10     Cn1   v088
        BYTE           N10     Fn2
        BYTE   W12
        BYTE                   Cn1
        BYTE   W12
        BYTE                   En1
        BYTE   W12
        BYTE                   Cn1
        BYTE   W12
        BYTE                   En1
        BYTE   W12
        BYTE                   Cn1
        BYTE           N10     Cs2
        BYTE   W24
        BYTE                   Cn1
        BYTE           N10     Cs2
        BYTE   W12
// 093   ----------------------------------------
        BYTE   PATT
         POIN2  Truth0_1_20
// 094   ----------------------------------------
        BYTE           N10     Cn1   v088
        BYTE   W24
        BYTE                   En1
        BYTE   W24
        BYTE                   Cn1
        BYTE   W12
        BYTE                   Cn1
        BYTE   W12
        BYTE                   En1
        BYTE   W24
// 095   ----------------------------------------
        BYTE   PATT
         POIN2  Truth0_1_1
// 096   ----------------------------------------
Truth0_1_96:
        BYTE           N10     Cn1   v088
        BYTE   W24
        BYTE                   En1
        BYTE   W24
        BYTE                   Cn1
        BYTE   W12
        BYTE                   Cn1
        BYTE   W12
        BYTE                   En1
        BYTE   W12
        BYTE                   Cn1
        BYTE   W12
        BYTE   PEND
// 097   ----------------------------------------
        BYTE   PATT
         POIN2  Truth0_1_22
// 098   ----------------------------------------
        BYTE   PATT
         POIN2  Truth0_1_96
// 099   ----------------------------------------
        BYTE   W24
        BYTE           N10     En1   v088
        BYTE   W24
        BYTE                   Cn1
        BYTE   W12
        BYTE                   Cn1
        BYTE   W12
        BYTE                   En1
        BYTE   W24
// 100   ----------------------------------------
        BYTE                   Fs1
        BYTE   W12
        BYTE                   Cn1
        BYTE           N10     As1
        BYTE   W12
        BYTE                   En1
        BYTE           N10     Fs1
        BYTE   W12
        BYTE                   Cn1
        BYTE           N10     As1
        BYTE   W12
        BYTE                   Fs1
        BYTE   W12
        BYTE                   Cn1
        BYTE           N10     As1
        BYTE   W12
        BYTE                   En1
        BYTE           N10     Fs1
        BYTE   W12
        BYTE                   Cn1
        BYTE           N10     Cs2
        BYTE   W12
// 101   ----------------------------------------
        BYTE   W12
        BYTE                   Cn1
        BYTE   W12
        BYTE                   En1
        BYTE           N10     Gn2
        BYTE   W24
        BYTE                   Cn1
        BYTE           N21     Fs1
        BYTE   W24
        BYTE           N10     En1
        BYTE           N21     Fs1
        BYTE   W24
// 102   ----------------------------------------
Truth0_1_102:
        BYTE           N10     Cn1   v088
        BYTE           N21     Fs1
        BYTE   W24
        BYTE           N10     En1
        BYTE           N21     Fs1
        BYTE   W24
        BYTE           N10     Cn1
        BYTE           N21     Fs1
        BYTE   W12
        BYTE           N10     Cn1
        BYTE   W12
        BYTE                   En1
        BYTE           N21     Fs1
        BYTE   W12
        BYTE           N10     Cn1
        BYTE   W12
        BYTE   PEND
// 103   ----------------------------------------
Truth0_1_103:
        BYTE           N21     Fs1   v088
        BYTE   W12
        BYTE           N10     Cn1
        BYTE   W12
        BYTE                   En1
        BYTE           N21     Fs1
        BYTE   W24
        BYTE           N10     Cn1
        BYTE           N21     Fs1
        BYTE   W24
        BYTE           N10     En1
        BYTE           N21     Fs1
        BYTE   W24
        BYTE   PEND
// 104   ----------------------------------------
        BYTE   PATT
         POIN2  Truth0_1_102
// 105   ----------------------------------------
        BYTE   PATT
         POIN2  Truth0_1_103
// 106   ----------------------------------------
        BYTE           N10     Cn1   v088
        BYTE           N21     Fs1
        BYTE   W24
        BYTE           N10     En1
        BYTE           N21     Fs1
        BYTE   W24
        BYTE           N10     Cn1
        BYTE           N21     Fs1
        BYTE   W12
        BYTE           N10     Cn1
        BYTE   W12
        BYTE                   En1
        BYTE           N21     Fs1
        BYTE   W24
// 107   ----------------------------------------
        BYTE                   Fs1
        BYTE   W24
        BYTE           N10     En1
        BYTE           N21     Fs1
        BYTE   W24
        BYTE                   Fs1
        BYTE   W12
        BYTE           N10     Cn1
        BYTE   W12
        BYTE                   Cn2
        BYTE   W12
        BYTE                   Cn1
        BYTE   W12
// 108   ----------------------------------------
        BYTE                   Cn1
        BYTE           N10     Cs2
        BYTE   W24
        BYTE                   En1
        BYTE   W12
        BYTE                   Cn1
        BYTE           N10     Cs2
        BYTE   W24
        BYTE                   Cn1
        BYTE           N10     En1
        BYTE   W12
        BYTE                   Cn1
        BYTE           N10     En1
        BYTE   W24
// 109   ----------------------------------------
        BYTE   PATT
         POIN2  Truth0_1_36
// 110   ----------------------------------------
        BYTE   PATT
         POIN2  Truth0_1_37
// 111   ----------------------------------------
        BYTE   PATT
         POIN2  Truth0_1_38
// 112   ----------------------------------------
        BYTE   W24
        BYTE           N10     Cn1   v088
        BYTE           N10     En1
        BYTE           N10     Fs1
        BYTE   W12
        BYTE                   Cn1
        BYTE           N10     Cs2
        BYTE   W36
        BYTE                   Gn1
        BYTE           N10     An1
        BYTE   W24
// 113   ----------------------------------------
        BYTE   PATT
         POIN2  Truth0_1_40
// 114   ----------------------------------------
        BYTE           N10     Fs1   v088
        BYTE   W24
        BYTE                   En1
        BYTE           N10     Fs1
        BYTE   W12
        BYTE                   Cn1
        BYTE   W12
        BYTE                   Fs1
        BYTE   W12
        BYTE                   En1
        BYTE           N10     Cn2
        BYTE   W12
        BYTE                   En1
        BYTE           N10     Cn2
        BYTE   W12
        BYTE                   En1
        BYTE           N10     Cn2
        BYTE   W12
// 115   ----------------------------------------
        BYTE   PATT
         POIN2  Truth0_1_42
// 116   ----------------------------------------
        BYTE   PATT
         POIN2  Truth0_1_43
// 117   ----------------------------------------
        BYTE   PATT
         POIN2  Truth0_1_43
// 118   ----------------------------------------
        BYTE   PATT
         POIN2  Truth0_1_43
// 119   ----------------------------------------
        BYTE   PATT
         POIN2  Truth0_1_46
// 120   ----------------------------------------
        BYTE   PATT
         POIN2  Truth0_1_47
// 121   ----------------------------------------
        BYTE   PATT
         POIN2  Truth0_1_48
// 122   ----------------------------------------
        BYTE   PATT
         POIN2  Truth0_1_49
// 123   ----------------------------------------
        BYTE   PATT
         POIN2  Truth0_1_50
// 124   ----------------------------------------
        BYTE   PATT
         POIN2  Truth0_1_51
// 125   ----------------------------------------
        BYTE   PATT
         POIN2  Truth0_1_52
// 126   ----------------------------------------
        BYTE   PATT
         POIN2  Truth0_1_53
// 127   ----------------------------------------
        BYTE           N05     Cn1   v088
        BYTE           N03     Fn2
        BYTE   W24
        BYTE           N04
        BYTE           N06     En1
        BYTE   W24
        BYTE                   Cn1
        BYTE           N05     Fn2
        BYTE   W12
        BYTE                   Cn1
        BYTE   W12
        BYTE                   En1
        BYTE           N05     Fs1
        BYTE   W24
// 128   ----------------------------------------
        BYTE           N10     Cn1
        BYTE           N10     Cs2
        BYTE   W24
        BYTE                   En1
        BYTE   W12
        BYTE                   Cn1
        BYTE           N10     Cs2
        BYTE   W24
        BYTE                   Cn1
        BYTE   W12
        BYTE                   Cn1
        BYTE           N10     Cs2
        BYTE           N10     En1
        BYTE   W24
// 129   ----------------------------------------
        BYTE   PATT
         POIN2  Truth0_1_48
// 130   ----------------------------------------
        BYTE   PATT
         POIN2  Truth0_1_49
// 131   ----------------------------------------
        BYTE   PATT
         POIN2  Truth0_1_50
// 132   ----------------------------------------
        BYTE   PATT
         POIN2  Truth0_1_51
// 133   ----------------------------------------
        BYTE   PATT
         POIN2  Truth0_1_52
// 134   ----------------------------------------
        BYTE   PATT
         POIN2  Truth0_1_53
// 135   ----------------------------------------
        BYTE           N10     Cn1   v088
        BYTE           N10     Fn2
        BYTE   W24
        BYTE                   En1
        BYTE           N10     Fn2
        BYTE   W24
        BYTE                   Cn1
        BYTE           N10     Fn2
        BYTE   W12
        BYTE                   En1
        BYTE   W12
        BYTE                   En1
        BYTE           N10     Fn2
        BYTE   W24
// 136   ----------------------------------------
        BYTE                   Cn1
        BYTE           N10     Cs2
        BYTE   W24
        BYTE                   Cn1
        BYTE   W12
        BYTE                   Cn1
        BYTE           N10     Cs2
        BYTE   W36
        BYTE                   Cn1
        BYTE           N10     Cs2
        BYTE   W12
        BYTE   GoTo
         POIN2  Truth0_1_LOOP
        BYTE   W12
// 137   ----------------------------------------
        BYTE   PATT
         POIN2  Truth0_1_48
// 138   ----------------------------------------
        BYTE   PATT
         POIN2  Truth0_1_49
// 139   ----------------------------------------
        BYTE   PATT
         POIN2  Truth0_1_50
// 140   ----------------------------------------
        BYTE   PATT
         POIN2  Truth0_1_51
// 141   ----------------------------------------
        BYTE   PATT
         POIN2  Truth0_1_52
// 142   ----------------------------------------
        BYTE   PATT
         POIN2  Truth0_1_53
// 143   ----------------------------------------
        BYTE   PATT
         POIN2  Truth0_1_54
// 144   ----------------------------------------
        BYTE   PATT
         POIN2  Truth0_1_55
// 145   ----------------------------------------
        BYTE   PATT
         POIN2  Truth0_1_48
// 146   ----------------------------------------
        BYTE   PATT
         POIN2  Truth0_1_49
// 147   ----------------------------------------
        BYTE   PATT
         POIN2  Truth0_1_50
// 148   ----------------------------------------
Truth0_1_148:
        BYTE           N05     Cn1   v088
        BYTE           N04     Fn2
        BYTE   W24
        BYTE           N06     En1
        BYTE           N03     Fn2
        BYTE   W24
        BYTE                   Cn1
        BYTE           N02     Fn2
        BYTE   W12
        BYTE           N04     Cn1
        BYTE   W12
        BYTE                   Fn2
        BYTE           N06     En1
        BYTE   W22
        BYTE           N01     Fn2
        BYTE           N01     Cn1
        BYTE   W02
        BYTE   PEND
// 149   ----------------------------------------
        BYTE   PATT
         POIN2  Truth0_1_52
// 150   ----------------------------------------
        BYTE   PATT
         POIN2  Truth0_1_53
// 151   ----------------------------------------
        BYTE   PATT
         POIN2  Truth0_1_54
// 152   ----------------------------------------
        BYTE   PATT
         POIN2  Truth0_1_55
// 153   ----------------------------------------
        BYTE   PATT
         POIN2  Truth0_1_48
// 154   ----------------------------------------
        BYTE   PATT
         POIN2  Truth0_1_49
// 155   ----------------------------------------
        BYTE   PATT
         POIN2  Truth0_1_50
// 156   ----------------------------------------
        BYTE   PATT
         POIN2  Truth0_1_148
// 157   ----------------------------------------
        BYTE   FINE

//****************** Track 2 (Midi-Chn.3) ******************//

Truth0_2:
        BYTE   KEYSH   Truth0_key+0
// 000   ----------------------------------------
        BYTE           VOICE   55
        BYTE           VOL     41
        BYTE   W96
// 001   ----------------------------------------
        BYTE   W96
// 002   ----------------------------------------
        BYTE   W96
// 003   ----------------------------------------
Truth0_2_3:
        BYTE   W72
        BYTE   W01
        BYTE           N10     As3   v088
        BYTE           N10     Dn4
        BYTE           N10     Fn4
        BYTE           N10     As4
        BYTE   W12
        BYTE           N80     Cn4   v088   gtp2
        BYTE                   En4
        BYTE           N80     Gn4   v088   gtp2
        BYTE                   Cn5
        BYTE   W11
        BYTE   PEND
// 004   ----------------------------------------
Truth0_2_4:
        BYTE   W72
        BYTE   W01
        BYTE           N10     As3   v088
        BYTE           N10     Dn4
        BYTE           N10     Fn4
        BYTE           N10     As4
        BYTE   W12
        BYTE           N32     Cn4   v088   gtp2
        BYTE                   En4
        BYTE           N32     Gn4   v088   gtp2
        BYTE                   Cn5
        BYTE   W11
        BYTE   PEND
// 005   ----------------------------------------
Truth0_2_5:
        BYTE   W24
        BYTE   W01
        BYTE           N10     As3   v088
        BYTE           N10     Dn4
        BYTE           N10     Fn4
        BYTE           N10     As4
        BYTE   W12
        BYTE           N32     Cn4   v088   gtp2
        BYTE                   En4
        BYTE           N32     Gn4   v088   gtp2
        BYTE                   Cn5
        BYTE   W36
        BYTE           N10     Cn4
        BYTE           N10     En4
        BYTE           N10     Gn4
        BYTE           N10     Cn5
        BYTE   W12
        BYTE           N22     Dn4
        BYTE           N22     Fn4
        BYTE           N22     An4
        BYTE           N22     Dn5
        BYTE   W11
        BYTE   PEND
// 006   ----------------------------------------
        BYTE   W96
// 007   ----------------------------------------
        BYTE   W96
// 008   ----------------------------------------
        BYTE   W96
// 009   ----------------------------------------
        BYTE   PATT
         POIN2  Truth0_2_3
// 010   ----------------------------------------
        BYTE   PATT
         POIN2  Truth0_2_4
// 011   ----------------------------------------
        BYTE   PATT
         POIN2  Truth0_2_5
// 012   ----------------------------------------
        BYTE   W96
// 013   ----------------------------------------
        BYTE   W96
// 014   ----------------------------------------
        BYTE   W96
// 015   ----------------------------------------
        BYTE   PATT
         POIN2  Truth0_2_3
// 016   ----------------------------------------
        BYTE   PATT
         POIN2  Truth0_2_4
// 017   ----------------------------------------
        BYTE   W24
        BYTE   W01
        BYTE           N10     As3   v088
        BYTE           N10     Dn4
        BYTE           N10     Fn4
        BYTE           N10     As4
        BYTE   W12
        BYTE           N32     Cn4   v088   gtp2
        BYTE                   En4
        BYTE           N32     Gn4   v088   gtp2
        BYTE                   Cn5
        BYTE   W36
        BYTE           N10     Cn4
        BYTE           N10     En4
        BYTE           N10     Gn4
        BYTE           N10     Cn5
        BYTE   W12
        BYTE           TIE     An3
        BYTE           TIE     Cs4
        BYTE           TIE     En4
        BYTE           TIE     An4
        BYTE   W11
// 018   ----------------------------------------
        BYTE   W92
        BYTE   W03
        BYTE           EOT     An3
        BYTE                   Cs4
        BYTE                   En4
        BYTE                   An4
        BYTE   W01
// 019   ----------------------------------------
        BYTE   W96
// 020   ----------------------------------------
        BYTE   W96
// 021   ----------------------------------------
        BYTE   W96
// 022   ----------------------------------------
        BYTE   W96
// 023   ----------------------------------------
        BYTE   W96
// 024   ----------------------------------------
        BYTE   W96
// 025   ----------------------------------------
        BYTE   W96
// 026   ----------------------------------------
        BYTE   W96
// 027   ----------------------------------------
        BYTE   W96
// 028   ----------------------------------------
        BYTE   W96
// 029   ----------------------------------------
        BYTE   W96
// 030   ----------------------------------------
        BYTE   W96
// 031   ----------------------------------------
        BYTE   W96
// 032   ----------------------------------------
        BYTE   W96
// 033   ----------------------------------------
        BYTE   W96
// 034   ----------------------------------------
        BYTE   W96
// 035   ----------------------------------------
        BYTE   W96
// 036   ----------------------------------------
        BYTE   W96
// 037   ----------------------------------------
        BYTE   W96
// 038   ----------------------------------------
        BYTE   W96
// 039   ----------------------------------------
        BYTE   W96
// 040   ----------------------------------------
        BYTE   W96
// 041   ----------------------------------------
        BYTE   W96
// 042   ----------------------------------------
        BYTE   W96
// 043   ----------------------------------------
        BYTE   W96
// 044   ----------------------------------------
        BYTE   W96
// 045   ----------------------------------------
        BYTE   W96
// 046   ----------------------------------------
        BYTE   W96
// 047   ----------------------------------------
        BYTE   W96
// 048   ----------------------------------------
        BYTE   W96
// 049   ----------------------------------------
        BYTE   W96
// 050   ----------------------------------------
        BYTE   W96
// 051   ----------------------------------------
        BYTE   W96
// 052   ----------------------------------------
        BYTE   W96
// 053   ----------------------------------------
        BYTE   W96
// 054   ----------------------------------------
        BYTE   W96
// 055   ----------------------------------------
        BYTE   W96
// 056   ----------------------------------------
        BYTE   W96
// 057   ----------------------------------------
        BYTE   W96
// 058   ----------------------------------------
        BYTE   W96
// 059   ----------------------------------------
        BYTE   W96
// 060   ----------------------------------------
        BYTE   W96
// 061   ----------------------------------------
        BYTE   W96
// 062   ----------------------------------------
        BYTE   W96
// 063   ----------------------------------------
        BYTE   W84
Truth0_2_LOOP:
        BYTE   W12
// 064   ----------------------------------------
        BYTE   W96
// 065   ----------------------------------------
        BYTE   W96
// 066   ----------------------------------------
        BYTE   W96
// 067   ----------------------------------------
        BYTE   PATT
         POIN2  Truth0_2_3
// 068   ----------------------------------------
        BYTE   PATT
         POIN2  Truth0_2_4
// 069   ----------------------------------------
        BYTE   PATT
         POIN2  Truth0_2_5
// 070   ----------------------------------------
        BYTE   W96
// 071   ----------------------------------------
        BYTE   W96
// 072   ----------------------------------------
        BYTE   W96
// 073   ----------------------------------------
        BYTE   PATT
         POIN2  Truth0_2_3
// 074   ----------------------------------------
        BYTE   PATT
         POIN2  Truth0_2_4
// 075   ----------------------------------------
        BYTE   PATT
         POIN2  Truth0_2_5
// 076   ----------------------------------------
        BYTE   W96
// 077   ----------------------------------------
        BYTE   W96
// 078   ----------------------------------------
        BYTE   W96
// 079   ----------------------------------------
        BYTE   W96
// 080   ----------------------------------------
        BYTE   W96
// 081   ----------------------------------------
        BYTE   W96
// 082   ----------------------------------------
        BYTE   W96
// 083   ----------------------------------------
        BYTE   W96
// 084   ----------------------------------------
        BYTE   W96
// 085   ----------------------------------------
        BYTE   W96
// 086   ----------------------------------------
        BYTE   W96
// 087   ----------------------------------------
        BYTE   W96
// 088   ----------------------------------------
        BYTE   W96
// 089   ----------------------------------------
        BYTE   W96
// 090   ----------------------------------------
        BYTE   W96
// 091   ----------------------------------------
        BYTE   W96
// 092   ----------------------------------------
        BYTE   W96
// 093   ----------------------------------------
        BYTE   W96
// 094   ----------------------------------------
        BYTE   W96
// 095   ----------------------------------------
        BYTE   W96
// 096   ----------------------------------------
        BYTE   W96
// 097   ----------------------------------------
        BYTE   W96
// 098   ----------------------------------------
        BYTE   W96
// 099   ----------------------------------------
        BYTE   W96
// 100   ----------------------------------------
        BYTE   W96
// 101   ----------------------------------------
        BYTE   W96
// 102   ----------------------------------------
        BYTE   W96
// 103   ----------------------------------------
        BYTE   W96
// 104   ----------------------------------------
        BYTE   W96
// 105   ----------------------------------------
        BYTE   W96
// 106   ----------------------------------------
        BYTE   W96
// 107   ----------------------------------------
        BYTE   W96
// 108   ----------------------------------------
        BYTE   W96
// 109   ----------------------------------------
        BYTE   W96
// 110   ----------------------------------------
        BYTE   W96
// 111   ----------------------------------------
        BYTE   W96
// 112   ----------------------------------------
        BYTE   W96
// 113   ----------------------------------------
        BYTE   W96
// 114   ----------------------------------------
        BYTE   W96
// 115   ----------------------------------------
        BYTE   W96
// 116   ----------------------------------------
        BYTE   W96
// 117   ----------------------------------------
        BYTE   W96
// 118   ----------------------------------------
        BYTE   W96
// 119   ----------------------------------------
        BYTE   W96
// 120   ----------------------------------------
        BYTE   W96
// 121   ----------------------------------------
        BYTE   W96
// 122   ----------------------------------------
        BYTE   W96
// 123   ----------------------------------------
        BYTE   W96
// 124   ----------------------------------------
        BYTE   W96
// 125   ----------------------------------------
        BYTE   W96
// 126   ----------------------------------------
        BYTE   W96
// 127   ----------------------------------------
        BYTE   W96
// 128   ----------------------------------------
        BYTE   W96
// 129   ----------------------------------------
        BYTE   W96
// 130   ----------------------------------------
        BYTE   W96
// 131   ----------------------------------------
        BYTE   W96
// 132   ----------------------------------------
        BYTE   W96
// 133   ----------------------------------------
        BYTE   W96
// 134   ----------------------------------------
        BYTE   W96
// 135   ----------------------------------------
        BYTE   W96
// 136   ----------------------------------------
        BYTE   W84
        BYTE   GoTo
         POIN2  Truth0_2_LOOP
        BYTE   W12
// 137   ----------------------------------------
        BYTE   W96
// 138   ----------------------------------------
        BYTE   W96
// 139   ----------------------------------------
        BYTE   W96
// 140   ----------------------------------------
        BYTE   W96
// 141   ----------------------------------------
        BYTE   W96
// 142   ----------------------------------------
        BYTE   W96
// 143   ----------------------------------------
        BYTE   W96
// 144   ----------------------------------------
        BYTE   W96
// 145   ----------------------------------------
        BYTE   W96
// 146   ----------------------------------------
        BYTE   W96
// 147   ----------------------------------------
        BYTE   W96
// 148   ----------------------------------------
        BYTE   W96
// 149   ----------------------------------------
        BYTE   W96
// 150   ----------------------------------------
        BYTE   W96
// 151   ----------------------------------------
        BYTE   W96
// 152   ----------------------------------------
        BYTE   W96
// 153   ----------------------------------------
        BYTE   W96
// 154   ----------------------------------------
        BYTE   W96
// 155   ----------------------------------------
        BYTE   W96
// 156   ----------------------------------------
        BYTE   W96
// 157   ----------------------------------------
        BYTE   FINE

//****************** Track 3 (Midi-Chn.4) ******************//

Truth0_3:
        BYTE   KEYSH   Truth0_key+0
// 000   ----------------------------------------
        BYTE           VOICE   26
        BYTE           VOL     30
        BYTE   W96
// 001   ----------------------------------------
Truth0_3_1:
        BYTE   W84
        BYTE           N10     Dn2   v088
        BYTE   W12
        BYTE   PEND
// 002   ----------------------------------------
Truth0_3_2:
        BYTE           N10     Fn2   v088
        BYTE   W12
        BYTE                   An2
        BYTE   W12
        BYTE                   Fn3
        BYTE   W12
        BYTE                   An2
        BYTE   W12
        BYTE                   En3
        BYTE   W12
        BYTE                   Cn3
        BYTE   W12
        BYTE                   Dn3
        BYTE   W12
        BYTE                   An2
        BYTE   W12
        BYTE   PEND
// 003   ----------------------------------------
Truth0_3_3:
        BYTE           N10     Cn3   v088
        BYTE   W12
        BYTE                   Gn2
        BYTE   W12
        BYTE                   As2
        BYTE   W12
        BYTE                   Gn2
        BYTE   W12
        BYTE                   An2
        BYTE   W12
        BYTE                   Dn2
        BYTE   W12
        BYTE                   As1
        BYTE           N10     Fn2
        BYTE   W12
        BYTE           N80     Cn2   v088   gtp2
        BYTE                   Gn2
        BYTE   W12
        BYTE   PEND
// 004   ----------------------------------------
Truth0_3_4:
        BYTE   W72
        BYTE           N10     As1   v088
        BYTE           N10     Fn2
        BYTE   W12
        BYTE           N32     Cn2   v088   gtp2
        BYTE                   Gn2
        BYTE   W12
        BYTE   PEND
// 005   ----------------------------------------
Truth0_3_5:
        BYTE   W24
        BYTE           N10     As1   v088
        BYTE           N10     Fn2
        BYTE   W12
        BYTE           N32     Cn2   v088   gtp2
        BYTE                   Gn2
        BYTE   W36
        BYTE           N10     Cn2
        BYTE           N10     Gn2
        BYTE   W12
        BYTE                   Dn2
        BYTE           N10     An2
        BYTE   W12
        BYTE   PEND
// 006   ----------------------------------------
Truth0_3_6:
        BYTE   W12
        BYTE           N10     Dn2   v088
        BYTE   W12
        BYTE                   Fn2
        BYTE   W12
        BYTE                   An2
        BYTE   W12
        BYTE                   Fn3
        BYTE   W12
        BYTE                   An2
        BYTE   W12
        BYTE                   En3
        BYTE   W12
        BYTE                   Cn3
        BYTE   W12
        BYTE   PEND
// 007   ----------------------------------------
Truth0_3_7:
        BYTE           N10     Dn3   v088
        BYTE   W12
        BYTE                   An2
        BYTE   W12
        BYTE                   Cn3
        BYTE   W12
        BYTE                   Gn2
        BYTE   W12
        BYTE                   As2
        BYTE   W12
        BYTE                   Gn2
        BYTE   W12
        BYTE                   An2
        BYTE   W12
        BYTE                   Dn2
        BYTE   W12
        BYTE   PEND
// 008   ----------------------------------------
        BYTE   PATT
         POIN2  Truth0_3_2
// 009   ----------------------------------------
        BYTE   PATT
         POIN2  Truth0_3_3
// 010   ----------------------------------------
        BYTE   PATT
         POIN2  Truth0_3_4
// 011   ----------------------------------------
        BYTE   PATT
         POIN2  Truth0_3_5
// 012   ----------------------------------------
        BYTE   PATT
         POIN2  Truth0_3_6
// 013   ----------------------------------------
        BYTE   PATT
         POIN2  Truth0_3_7
// 014   ----------------------------------------
        BYTE   PATT
         POIN2  Truth0_3_2
// 015   ----------------------------------------
        BYTE   PATT
         POIN2  Truth0_3_3
// 016   ----------------------------------------
        BYTE   PATT
         POIN2  Truth0_3_4
// 017   ----------------------------------------
        BYTE   W24
        BYTE           N10     As1   v088
        BYTE           N10     Fn2
        BYTE   W12
        BYTE           N32     Cn2   v088   gtp2
        BYTE                   Gn2
        BYTE   W36
        BYTE           N10     Cn2
        BYTE           N10     Gn2
        BYTE   W12
        BYTE                   An1
        BYTE           N10     En2
        BYTE           N10     An2
        BYTE   W12
// 018   ----------------------------------------
        BYTE   W84
        BYTE                   En2
        BYTE   W12
// 019   ----------------------------------------
        BYTE                   Dn2
        BYTE   W12
        BYTE                   En2
        BYTE   W12
        BYTE                   Cs2
        BYTE   W12
        BYTE                   En2
        BYTE   W12
        BYTE                   Cs2
        BYTE   W12
        BYTE           N22     An1
        BYTE   W24
        BYTE           N10     Dn2
        BYTE   W12
// 020   ----------------------------------------
        BYTE   W96
// 021   ----------------------------------------
        BYTE   W96
// 022   ----------------------------------------
        BYTE   W96
// 023   ----------------------------------------
        BYTE   W96
// 024   ----------------------------------------
        BYTE   W96
// 025   ----------------------------------------
        BYTE   W96
// 026   ----------------------------------------
        BYTE   W96
// 027   ----------------------------------------
Truth0_3_27:
        BYTE   W12
        BYTE           N10     Cn2   v088
        BYTE           N10     Gn2
        BYTE           N10     Cn3
        BYTE   W24
        BYTE                   Cn2
        BYTE           N10     Gn2
        BYTE           N10     Cn3
        BYTE   W24
        BYTE                   En2
        BYTE           N10     An2
        BYTE           N10     Cs3
        BYTE   W24
        BYTE                   Dn2
        BYTE           N10     An2
        BYTE           N10     Dn3
        BYTE   W12
        BYTE   PEND
// 028   ----------------------------------------
        BYTE   W96
// 029   ----------------------------------------
        BYTE   W96
// 030   ----------------------------------------
        BYTE   W96
// 031   ----------------------------------------
        BYTE   W96
// 032   ----------------------------------------
        BYTE   W96
// 033   ----------------------------------------
        BYTE   W96
// 034   ----------------------------------------
        BYTE   W96
// 035   ----------------------------------------
        BYTE   W96
// 036   ----------------------------------------
        BYTE   W96
// 037   ----------------------------------------
        BYTE   W96
// 038   ----------------------------------------
        BYTE   W96
// 039   ----------------------------------------
        BYTE   W96
// 040   ----------------------------------------
        BYTE   W96
// 041   ----------------------------------------
        BYTE   W96
// 042   ----------------------------------------
        BYTE   W96
// 043   ----------------------------------------
        BYTE   W96
// 044   ----------------------------------------
        BYTE   W96
// 045   ----------------------------------------
        BYTE   W96
// 046   ----------------------------------------
        BYTE   W96
// 047   ----------------------------------------
        BYTE   W96
// 048   ----------------------------------------
        BYTE   W96
// 049   ----------------------------------------
        BYTE   W96
// 050   ----------------------------------------
        BYTE   W96
// 051   ----------------------------------------
        BYTE   W96
// 052   ----------------------------------------
        BYTE   W96
// 053   ----------------------------------------
        BYTE   W96
// 054   ----------------------------------------
        BYTE   W96
// 055   ----------------------------------------
        BYTE   W96
// 056   ----------------------------------------
        BYTE   W96
// 057   ----------------------------------------
        BYTE   W96
// 058   ----------------------------------------
        BYTE   W96
// 059   ----------------------------------------
        BYTE   W96
// 060   ----------------------------------------
        BYTE   W96
// 061   ----------------------------------------
        BYTE   W96
// 062   ----------------------------------------
        BYTE   W96
// 063   ----------------------------------------
        BYTE   W84
Truth0_3_LOOP:
        BYTE   W12
// 064   ----------------------------------------
        BYTE   W96
// 065   ----------------------------------------
        BYTE   W96
// 066   ----------------------------------------
        BYTE   W96
// 067   ----------------------------------------
        BYTE   W96
// 068   ----------------------------------------
        BYTE   W96
// 069   ----------------------------------------
        BYTE   W96
// 070   ----------------------------------------
        BYTE   W96
// 071   ----------------------------------------
        BYTE   W96
// 072   ----------------------------------------
        BYTE   W96
// 073   ----------------------------------------
        BYTE   W96
// 074   ----------------------------------------
        BYTE   W96
// 075   ----------------------------------------
        BYTE   W96
// 076   ----------------------------------------
        BYTE   W23
        BYTE           VOL     46
        BYTE   W01
        BYTE           N22     As3   v088
        BYTE   W36
        BYTE           N10     Cn4
        BYTE   W24
        BYTE           N72     Dn4
        BYTE   W12
// 077   ----------------------------------------
        BYTE   W60
        BYTE           N24
        BYTE   W24
        BYTE           N06     Cn4
        BYTE   W06
        BYTE                   As3
        BYTE   W06
// 078   ----------------------------------------
        BYTE           N36     Dn4
        BYTE   W36
        BYTE           N06     As3
        BYTE   W06
        BYTE                   Cn4
        BYTE   W06
        BYTE                   Dn4
        BYTE   W06
        BYTE                   Ds4
        BYTE   W06
        BYTE                   Dn4
        BYTE   W06
        BYTE                   Cn4
        BYTE   W06
        BYTE                   Bn3
        BYTE   W06
        BYTE                   As3
        BYTE   W06
        BYTE                   An3
        BYTE   W06
        BYTE                   Cn4
        BYTE   W06
// 079   ----------------------------------------
        BYTE                   Bn3
        BYTE   W06
        BYTE                   As3
        BYTE   W06
        BYTE                   An3
        BYTE   W06
        BYTE                   Gn3
        BYTE   W06
        BYTE                   As3
        BYTE   W06
        BYTE                   An3
        BYTE   W06
        BYTE                   Gn3
        BYTE   W06
        BYTE                   Fn3
        BYTE   W06
        BYTE           N36     Gn3
        BYTE   W36
        BYTE           N72     Gn2
        BYTE   W12
// 080   ----------------------------------------
        BYTE   W64
        BYTE           N16     As2
        BYTE   W16
        BYTE                   Cn3
        BYTE   W16
// 081   ----------------------------------------
        BYTE                   Dn3
        BYTE   W16
        BYTE                   Ds3
        BYTE   W16
        BYTE                   Fn3
        BYTE   W16
        BYTE           N36     Gn3
        BYTE   W36
        BYTE           N12     An3
        BYTE   W12
// 082   ----------------------------------------
        BYTE                   As3
        BYTE   W12
        BYTE           N24     Cn4
        BYTE   W24
        BYTE           N12     As3
        BYTE   W12
        BYTE                   Cn4
        BYTE   W12
        BYTE           N24     Dn4
        BYTE   W24
        BYTE           N06     Cn4
        BYTE   W06
        BYTE                   As3
        BYTE   W06
// 083   ----------------------------------------
        BYTE           N36     Cn4
        BYTE   W36
        BYTE           N12     As3
        BYTE   W12
        BYTE                   Cn4
        BYTE   W12
        BYTE                   As3
        BYTE   W12
        BYTE                   Cn4
        BYTE   W12
        BYTE           N24
        BYTE   W12
// 084   ----------------------------------------
        BYTE   W12
        BYTE           N12     Dn4
        BYTE   W12
        BYTE                   Dn4
        BYTE   W12
        BYTE                   Dn4
        BYTE   W12
        BYTE                   Cn4
        BYTE   W12
        BYTE           N06     Dn4
        BYTE   W06
        BYTE           N12     Cn4
        BYTE   W12
        BYTE           N06     Dn4
        BYTE   W06
        BYTE           N12     Cn4
        BYTE   W12
// 085   ----------------------------------------
        BYTE           N06     Dn4
        BYTE   W06
        BYTE           N12     Cn4
        BYTE   W12
        BYTE           N06     Dn4
        BYTE   W06
        BYTE                   Fn4
        BYTE   W06
        BYTE                   Dn4
        BYTE   W06
        BYTE                   Cn4
        BYTE   W06
        BYTE                   Dn4
        BYTE   W06
        BYTE           N03
        BYTE   W06
        BYTE                   Dn4
        BYTE   W05
        BYTE                   Dn4
        BYTE   W05
        BYTE                   Fn4
        BYTE   W04
        BYTE                   Dn4
        BYTE   W04
        BYTE                   Dn4
        BYTE   W05
        BYTE                   Dn4
        BYTE   W05
        BYTE                   Dn4
        BYTE   W05
        BYTE                   Fn4
        BYTE   W05
        BYTE                   Dn4
        BYTE   W04
// 086   ----------------------------------------
        BYTE           N48     Gn4
        BYTE   W48
        BYTE           N06     Ds4
        BYTE   W06
        BYTE                   Dn4
        BYTE   W06
        BYTE                   Cn4
        BYTE   W06
        BYTE                   As3
        BYTE   W06
        BYTE                   An3
        BYTE   W06
        BYTE                   Gn3
        BYTE   W06
        BYTE                   An3
        BYTE   W06
        BYTE                   Gn3
        BYTE   W06
// 087   ----------------------------------------
        BYTE                   Gn3
        BYTE   W06
        BYTE                   Fn3
        BYTE   W06
        BYTE           N84     Gn2
        BYTE   W84
// 088   ----------------------------------------
        BYTE           N16
        BYTE   W16
        BYTE                   Fn2
        BYTE   W16
        BYTE                   Gn2
        BYTE   W16
        BYTE                   As2
        BYTE   W16
        BYTE                   An2
        BYTE   W16
        BYTE                   Cn3
        BYTE   W16
// 089   ----------------------------------------
        BYTE           N06     An2
        BYTE   W06
        BYTE                   As2
        BYTE   W06
        BYTE                   Dn3
        BYTE   W06
        BYTE                   Fn3
        BYTE   W06
        BYTE                   Cn4
        BYTE   W06
        BYTE                   Bn3
        BYTE   W06
        BYTE                   As3
        BYTE   W06
        BYTE                   Gn3
        BYTE   W06
        BYTE                   An3
        BYTE   W06
        BYTE                   As3
        BYTE   W06
        BYTE                   An3
        BYTE   W06
        BYTE                   Gn3
        BYTE   W06
        BYTE           N12     Fn3
        BYTE   W12
        BYTE                   Gn3
        BYTE   W12
// 090   ----------------------------------------
        BYTE                   An3
        BYTE   W12
        BYTE                   Gn3
        BYTE   W12
        BYTE                   An3
        BYTE   W12
        BYTE                   As3
        BYTE   W12
        BYTE                   An3
        BYTE   W12
        BYTE                   As3
        BYTE   W12
        BYTE                   Cn4
        BYTE   W12
        BYTE                   As3
        BYTE   W12
// 091   ----------------------------------------
        BYTE                   Cn4
        BYTE   W12
        BYTE           N24     Dn4
        BYTE   W24
        BYTE           N06     Cn4
        BYTE   W06
        BYTE                   As3
        BYTE   W06
        BYTE           N48     Cn4
        BYTE   W48
// 092   ----------------------------------------
        BYTE           N36     As4
        BYTE   W36
        BYTE           N06     An4
        BYTE   W06
        BYTE                   Gn4
        BYTE   W06
        BYTE                   Fn4
        BYTE   W06
        BYTE                   Dn4
        BYTE   W06
        BYTE           N36     Fn4
        BYTE   W36
// 093   ----------------------------------------
        BYTE           N48     Gn4
        BYTE   W96
// 094   ----------------------------------------
        BYTE   W96
// 095   ----------------------------------------
        BYTE   W96
// 096   ----------------------------------------
        BYTE   W96
// 097   ----------------------------------------
        BYTE   W96
// 098   ----------------------------------------
        BYTE   W96
// 099   ----------------------------------------
        BYTE   W96
// 100   ----------------------------------------
        BYTE   W96
// 101   ----------------------------------------
        BYTE   W96
// 102   ----------------------------------------
        BYTE   W96
// 103   ----------------------------------------
        BYTE   W96
// 104   ----------------------------------------
        BYTE   W96
// 105   ----------------------------------------
        BYTE   W96
// 106   ----------------------------------------
        BYTE   W96
// 107   ----------------------------------------
        BYTE   W96
// 108   ----------------------------------------
        BYTE   W96
// 109   ----------------------------------------
        BYTE   W96
// 110   ----------------------------------------
        BYTE   W96
// 111   ----------------------------------------
        BYTE   W96
// 112   ----------------------------------------
        BYTE   W96
// 113   ----------------------------------------
        BYTE   W96
// 114   ----------------------------------------
        BYTE   W96
// 115   ----------------------------------------
        BYTE   W96
// 116   ----------------------------------------
        BYTE   W96
// 117   ----------------------------------------
        BYTE   W96
// 118   ----------------------------------------
        BYTE   W96
// 119   ----------------------------------------
        BYTE   W96
// 120   ----------------------------------------
        BYTE   W96
// 121   ----------------------------------------
        BYTE   W96
// 122   ----------------------------------------
        BYTE   W96
// 123   ----------------------------------------
        BYTE   W96
// 124   ----------------------------------------
        BYTE   W96
// 125   ----------------------------------------
        BYTE   W96
// 126   ----------------------------------------
        BYTE   W96
// 127   ----------------------------------------
        BYTE   W96
// 128   ----------------------------------------
        BYTE   W96
// 129   ----------------------------------------
        BYTE   W96
// 130   ----------------------------------------
        BYTE   W96
// 131   ----------------------------------------
        BYTE   W96
// 132   ----------------------------------------
        BYTE   W96
// 133   ----------------------------------------
        BYTE   W96
// 134   ----------------------------------------
        BYTE   W96
// 135   ----------------------------------------
        BYTE   W96
// 136   ----------------------------------------
        BYTE   W84
        BYTE           VOL     30
        BYTE   GoTo
         POIN2  Truth0_3_LOOP
        BYTE   W12
// 137   ----------------------------------------
        BYTE   W96
// 138   ----------------------------------------
        BYTE   W96
// 139   ----------------------------------------
        BYTE   W96
// 140   ----------------------------------------
        BYTE   W96
// 141   ----------------------------------------
        BYTE   W96
// 142   ----------------------------------------
        BYTE   W96
// 143   ----------------------------------------
        BYTE   W96
// 144   ----------------------------------------
        BYTE   W96
// 145   ----------------------------------------
        BYTE   W96
// 146   ----------------------------------------
        BYTE   W96
// 147   ----------------------------------------
        BYTE   W96
// 148   ----------------------------------------
        BYTE   W96
// 149   ----------------------------------------
        BYTE   W96
// 150   ----------------------------------------
        BYTE   W96
// 151   ----------------------------------------
        BYTE   W96
// 152   ----------------------------------------
        BYTE   W96
// 153   ----------------------------------------
        BYTE   W96
// 154   ----------------------------------------
        BYTE   W96
// 155   ----------------------------------------
        BYTE   W96
// 156   ----------------------------------------
        BYTE   W96
// 157   ----------------------------------------
        BYTE   FINE

//****************** Track 4 (Midi-Chn.5) ******************//

Truth0_4:
        BYTE   KEYSH   Truth0_key+0
// 000   ----------------------------------------
        BYTE           VOICE   15
        BYTE           VOL     30
        BYTE   W12
        BYTE           N10     Dn2   v088
        BYTE   W12
        BYTE                   Fn2
        BYTE   W12
        BYTE                   An2
        BYTE   W12
        BYTE                   Fn3
        BYTE   W12
        BYTE                   An2
        BYTE   W12
        BYTE                   En3
        BYTE   W12
        BYTE                   Cn3
        BYTE   W12
// 001   ----------------------------------------
        BYTE   PATT
         POIN2  Truth0_3_7
// 002   ----------------------------------------
        BYTE   PATT
         POIN2  Truth0_3_2
// 003   ----------------------------------------
Truth0_4_3:
        BYTE           N10     Cn3   v088
        BYTE   W12
        BYTE                   Gn2
        BYTE   W12
        BYTE                   As2
        BYTE   W12
        BYTE                   Gn2
        BYTE   W12
        BYTE                   An2
        BYTE   W12
        BYTE                   Dn2
        BYTE   W12
        BYTE           N11     Fn3
        BYTE           N11     As3
        BYTE   W12
        BYTE           N56     Gn3   v088   gtp3
        BYTE                   Cn4
        BYTE   W12
        BYTE   PEND
// 004   ----------------------------------------
Truth0_4_4:
        BYTE   W72
        BYTE           N11     Fn3   v088
        BYTE           N11     As3
        BYTE   W12
        BYTE           N32     Gn3   v088   gtp3
        BYTE                   Cn4
        BYTE   W12
        BYTE   PEND
// 005   ----------------------------------------
Truth0_4_5:
        BYTE   W24
        BYTE           N11     Fn3   v088
        BYTE           N11     As3
        BYTE   W12
        BYTE           N32     Gn3   v088   gtp3
        BYTE                   Cn4
        BYTE   W36
        BYTE           N11     Gn3
        BYTE           N11     Cn4
        BYTE   W12
        BYTE                   An3
        BYTE           N11     Dn4
        BYTE   W12
        BYTE   PEND
// 006   ----------------------------------------
        BYTE   PATT
         POIN2  Truth0_3_6
// 007   ----------------------------------------
        BYTE   PATT
         POIN2  Truth0_3_7
// 008   ----------------------------------------
        BYTE   PATT
         POIN2  Truth0_3_2
// 009   ----------------------------------------
        BYTE   PATT
         POIN2  Truth0_4_3
// 010   ----------------------------------------
        BYTE   PATT
         POIN2  Truth0_4_4
// 011   ----------------------------------------
        BYTE   PATT
         POIN2  Truth0_4_5
// 012   ----------------------------------------
        BYTE   PATT
         POIN2  Truth0_3_6
// 013   ----------------------------------------
        BYTE   PATT
         POIN2  Truth0_3_7
// 014   ----------------------------------------
        BYTE   PATT
         POIN2  Truth0_3_2
// 015   ----------------------------------------
        BYTE   PATT
         POIN2  Truth0_4_3
// 016   ----------------------------------------
        BYTE   PATT
         POIN2  Truth0_4_4
// 017   ----------------------------------------
        BYTE   W24
        BYTE           N11     Fn3   v088
        BYTE           N11     As3
        BYTE   W12
        BYTE           N32     Gn3   v088   gtp3
        BYTE                   Cn4
        BYTE   W36
        BYTE           N11     Gn3
        BYTE           N11     Cn4
        BYTE   W12
        BYTE                   En3
        BYTE           N11     An3
        BYTE   W12
// 018   ----------------------------------------
        BYTE   W84
        BYTE           N10     En3
        BYTE   W12
// 019   ----------------------------------------
        BYTE           N11     Dn3
        BYTE   W12
        BYTE           N10     En3
        BYTE   W12
        BYTE           N11     Cs3
        BYTE   W12
        BYTE           N10     En3
        BYTE   W12
        BYTE           N11     An2
        BYTE   W12
        BYTE           N10
        BYTE   W36
// 020   ----------------------------------------
        BYTE           VOICE   0
        BYTE   W24
        BYTE           N22     Dn3
        BYTE           N22     En3
        BYTE   W24
        BYTE           N10     Dn3
        BYTE           N10     En3
        BYTE   W12
        BYTE           N22     Dn3
        BYTE           N22     Fn3
        BYTE   W24
        BYTE           N32     Dn3   v088   gtp2
        BYTE                   Fn3
        BYTE   W12
// 021   ----------------------------------------
Truth0_4_21:
        BYTE   W24
        BYTE           N22     Dn3   v088
        BYTE           N22     En3
        BYTE   W24
        BYTE           N10     Dn3
        BYTE           N10     En3
        BYTE   W12
        BYTE           N22     Dn3
        BYTE           N22     Fn3
        BYTE   W24
        BYTE           N32     Dn3   v088   gtp2
        BYTE                   Gn3
        BYTE   W12
        BYTE   PEND
// 022   ----------------------------------------
Truth0_4_22:
        BYTE   W24
        BYTE           N22     Dn3   v088
        BYTE           N22     Fn3
        BYTE   W24
        BYTE           N10     Dn3
        BYTE           N10     En3
        BYTE   W12
        BYTE           N22     Dn3
        BYTE           N22     Fn3
        BYTE   W24
        BYTE           N32     Dn3   v088   gtp2
        BYTE                   Gn3
        BYTE   W12
        BYTE   PEND
// 023   ----------------------------------------
Truth0_4_23:
        BYTE   W24
        BYTE           N22     Dn3   v088
        BYTE           N22     Fn3
        BYTE   W24
        BYTE           N10     Dn3
        BYTE           N10     En3
        BYTE   W12
        BYTE           N22     Dn3
        BYTE           N22     Fn3
        BYTE   W24
        BYTE           N32     Dn3   v088   gtp2
        BYTE                   Fn3
        BYTE   W12
        BYTE   PEND
// 024   ----------------------------------------
Truth0_4_24:
        BYTE   W24
        BYTE           N22     Dn3   v088
        BYTE           N22     En3
        BYTE   W24
        BYTE           N10     Dn3
        BYTE           N10     En3
        BYTE   W12
        BYTE           N22     Dn3
        BYTE           N22     Fn3
        BYTE   W24
        BYTE                   Dn3
        BYTE           N22     Gn3
        BYTE   W12
        BYTE   PEND
// 025   ----------------------------------------
Truth0_4_25:
        BYTE   W12
        BYTE           N10     Dn3   v088
        BYTE           N01     Gn3
        BYTE           N10
        BYTE   W12
        BYTE           N22     Dn3
        BYTE           N22     Fn3
        BYTE   W24
        BYTE           N10     Dn3
        BYTE           N10     En3
        BYTE   W12
        BYTE           N22     Dn3
        BYTE           N22     Fn3
        BYTE   W24
        BYTE           N32     Cn3   v088   gtp2
        BYTE                   Fn3
        BYTE   W12
        BYTE   PEND
// 026   ----------------------------------------
Truth0_4_26:
        BYTE   W24
        BYTE           N22     Cn3   v088
        BYTE           N22     En3
        BYTE   W24
        BYTE           N10     Cn3
        BYTE           N10     En3
        BYTE   W12
        BYTE                   Cn3
        BYTE           N10     Fn3
        BYTE   W36
        BYTE   PEND
// 027   ----------------------------------------
Truth0_4_27:
        BYTE   W12
        BYTE           N11     Cn3   v088
        BYTE           N11     En3
        BYTE   W24
        BYTE                   Cn3
        BYTE           N11     En3
        BYTE   W24
        BYTE                   Gn3
        BYTE           N11     Gs3
        BYTE   W24
        BYTE                   Dn3
        BYTE           N11     Fn3
        BYTE   W12
        BYTE   PEND
// 028   ----------------------------------------
Truth0_4_28:
        BYTE   W24
        BYTE           N22     Dn3   v088
        BYTE           N22     En3
        BYTE   W24
        BYTE           N10     Dn3
        BYTE           N10     En3
        BYTE   W12
        BYTE           N22     Dn3
        BYTE           N22     Fn3
        BYTE   W24
        BYTE           N32     Dn3   v088   gtp2
        BYTE                   Fn3
        BYTE   W12
        BYTE   PEND
// 029   ----------------------------------------
        BYTE   PATT
         POIN2  Truth0_4_21
// 030   ----------------------------------------
        BYTE   PATT
         POIN2  Truth0_4_22
// 031   ----------------------------------------
        BYTE   PATT
         POIN2  Truth0_4_23
// 032   ----------------------------------------
        BYTE   PATT
         POIN2  Truth0_4_24
// 033   ----------------------------------------
        BYTE   PATT
         POIN2  Truth0_4_25
// 034   ----------------------------------------
        BYTE   PATT
         POIN2  Truth0_4_26
// 035   ----------------------------------------
        BYTE           N23     Gn3   v088
        BYTE           N23     Cn4
        BYTE   W36
        BYTE           N32     Gn3   v088   gtp3
        BYTE                   Cn4
        BYTE   W60
// 036   ----------------------------------------
Truth0_4_36:
        BYTE   W01
        BYTE           N44     As2   v088   gtp1
        BYTE           N44     Dn3
        BYTE   W56
        BYTE   W03
        BYTE           N12     As2
        BYTE           N12     Dn3
        BYTE   W24
        BYTE           N32     Dn3   v088   gtp3
        BYTE           N36     As2
        BYTE   W12
        BYTE   PEND
// 037   ----------------------------------------
Truth0_4_37:
        BYTE   W36
        BYTE           N42     Dn3   v088   gtp1
        BYTE           N42     As2
        BYTE   W60
        BYTE   PEND
// 038   ----------------------------------------
        BYTE           N30     Fn3   v088   gtp1
        BYTE           N24     Cn3   v088   gtp3
        BYTE   W36
        BYTE           N30     Fn3   v088   gtp1
        BYTE           N24     Cn3   v088   gtp3
        BYTE   W36
        BYTE           N06
        BYTE           N06     En3
        BYTE   W12
        BYTE           N28     Fn3   v088   gtp1
        BYTE           N28     Cn3
        BYTE   W12
// 039   ----------------------------------------
        BYTE   W24
        BYTE   W01
        BYTE           N06     En3
        BYTE           N06     Cn3
        BYTE   W11
        BYTE           N36     Cn3   v088   gtp3
        BYTE           N36     Fn3   v088   gtp1
        BYTE   W60
// 040   ----------------------------------------
Truth0_4_40:
        BYTE           N44     Dn3   v088   gtp1
        BYTE           N44     Fn3   v088   gtp2
        BYTE   W60
        BYTE           N11     An3
        BYTE           N12     Fn3
        BYTE   W24
        BYTE           N32     An3   v088   gtp3
        BYTE           N36     Fn3   v088   gtp3
        BYTE   W12
        BYTE   PEND
// 041   ----------------------------------------
        BYTE   W36
        BYTE           N36     Gn3   v088   gtp1
        BYTE           N44     Dn3   v088   gtp3
        BYTE   W60
// 042   ----------------------------------------
        BYTE   W01
        BYTE           N32     Fn3   v088   gtp2
        BYTE           N32     An3   v088   gtp3
        BYTE   W32
        BYTE   W03
        BYTE           N11     En3
        BYTE           N11     Gn3
        BYTE   W24
        BYTE                   Dn3
        BYTE           N11     Fn3
        BYTE   W24
        BYTE           N56     En3   v088   gtp3
        BYTE                   Gn3
        BYTE   W12
// 043   ----------------------------------------
        BYTE   W60
        BYTE           N11     Dn3
        BYTE           N11     Fn3
        BYTE   W24
        BYTE           N56     En3   v088   gtp2
        BYTE                   Gn3
        BYTE   W12
// 044   ----------------------------------------
Truth0_4_44:
        BYTE   W60
        BYTE           N11     Fn3   v088
        BYTE           N11     As3
        BYTE   W24
        BYTE           N56     Gn3   v088   gtp3
        BYTE                   Cn4
        BYTE   W12
        BYTE   PEND
// 045   ----------------------------------------
Truth0_4_45:
        BYTE   W60
        BYTE           N11     An3   v088
        BYTE           N11     Cn4
        BYTE   W24
        BYTE           N32     As3   v088   gtp3
        BYTE                   Dn4
        BYTE   W12
        BYTE   PEND
// 046   ----------------------------------------
        BYTE   W36
        BYTE           N44     Bn3   v088   gtp3
        BYTE                   Dn4
        BYTE   W48
        BYTE           N32     Cs4   v088   gtp2
        BYTE                   En4
        BYTE   W12
// 047   ----------------------------------------
Truth0_4_47:
        BYTE   W24
        BYTE           N02     En6   v088
        BYTE   W01
        BYTE                   Dn6
        BYTE   W02
        BYTE                   Cn6
        BYTE   W01
        BYTE                   Bn5
        BYTE   W02
        BYTE                   An5
        BYTE   W01
        BYTE                   Gn5
        BYTE   W02
        BYTE                   Fn5
        BYTE   W01
        BYTE                   En5
        BYTE   W02
        BYTE                   Dn5
        BYTE   W01
        BYTE                   Cn5
        BYTE   W02
        BYTE                   Bn4
        BYTE   W01
        BYTE                   An4
        BYTE   W02
        BYTE                   Gn4
        BYTE   W01
        BYTE                   Fn4
        BYTE   W02
        BYTE                   En4
        BYTE   W01
        BYTE                   Dn4
        BYTE   W02
        BYTE                   Cn4
        BYTE   W01
        BYTE                   Bn3
        BYTE   W02
        BYTE                   An3
        BYTE   W01
        BYTE                   Gn3
        BYTE   W02
        BYTE                   Fn3
        BYTE   W01
        BYTE                   En3
        BYTE   W02
        BYTE                   Dn3
        BYTE   W01
        BYTE                   Cn3
        BYTE   W02
        BYTE                   Bn2
        BYTE   W01
        BYTE                   An2
        BYTE   W02
        BYTE                   Gn2
        BYTE   W01
        BYTE                   Fn2
        BYTE   W02
        BYTE                   En2
        BYTE   W01
        BYTE                   Dn2
        BYTE   W02
        BYTE                   Cn2
        BYTE   W01
        BYTE                   Bn1
        BYTE   W02
        BYTE                   An1
        BYTE   W24
        BYTE   PEND
// 048   ----------------------------------------
Truth0_4_48:
        BYTE   W01
        BYTE           N10     Fn3   v088
        BYTE           N10     An3
        BYTE   W11
        BYTE                   Fn3
        BYTE           N10     An3
        BYTE   W12
        BYTE           N11     Fn3
        BYTE           N11     An3
        BYTE   W12
        BYTE           N10     Fn3
        BYTE           N10     An3
        BYTE   W12
        BYTE                   Fn3
        BYTE           N10     An3
        BYTE   W12
        BYTE                   Fn3
        BYTE           N10     An3
        BYTE   W12
        BYTE                   Fn3
        BYTE           N10     An3
        BYTE   W12
        BYTE                   Fn3
        BYTE           N10     An3
        BYTE   W12
        BYTE   PEND
// 049   ----------------------------------------
Truth0_4_49:
        BYTE           N10     Fn3   v088
        BYTE           N10     An3
        BYTE   W12
        BYTE                   Fn3
        BYTE           N10     An3
        BYTE   W12
        BYTE                   Fn3
        BYTE           N10     An3
        BYTE   W12
        BYTE                   Fn3
        BYTE           N10     An3
        BYTE   W12
        BYTE                   Fn3
        BYTE           N10     An3
        BYTE   W12
        BYTE                   Fn3
        BYTE           N10     An3
        BYTE   W12
        BYTE           N11     Fn3
        BYTE           N11     An3
        BYTE   W12
        BYTE           N10     Fn3
        BYTE           N10     An3
        BYTE   W12
        BYTE   PEND
// 050   ----------------------------------------
Truth0_4_50:
        BYTE           N11     En3   v088
        BYTE           N11     Gn3
        BYTE   W12
        BYTE           N10     En3
        BYTE           N10     Gn3
        BYTE   W12
        BYTE           N11     En3
        BYTE           N11     Gn3
        BYTE   W12
        BYTE           N10     En3
        BYTE           N10     Gn3
        BYTE   W12
        BYTE                   En3
        BYTE           N10     Gn3
        BYTE   W12
        BYTE                   En3
        BYTE           N10     Gn3
        BYTE   W12
        BYTE                   En3
        BYTE           N10     Gn3
        BYTE   W12
        BYTE                   En3
        BYTE           N10     Gn3
        BYTE   W12
        BYTE   PEND
// 051   ----------------------------------------
Truth0_4_51:
        BYTE           N10     En3   v088
        BYTE           N10     Gn3
        BYTE   W12
        BYTE                   En3
        BYTE           N10     Gn3
        BYTE   W12
        BYTE                   En3
        BYTE           N10     Gn3
        BYTE   W12
        BYTE                   En3
        BYTE           N10     Gn3
        BYTE   W12
        BYTE                   En3
        BYTE           N10     Gn3
        BYTE   W12
        BYTE                   En3
        BYTE           N10     Gn3
        BYTE   W12
        BYTE           N11     En3
        BYTE           N11     Gn3
        BYTE   W12
        BYTE           N10     En3
        BYTE           N10     Gn3
        BYTE   W12
        BYTE   PEND
// 052   ----------------------------------------
Truth0_4_52:
        BYTE           N11     As2   v088
        BYTE           N11     Dn3
        BYTE   W12
        BYTE           N10     As2
        BYTE           N10     Dn3
        BYTE   W12
        BYTE           N11     As2
        BYTE           N11     Dn3
        BYTE   W12
        BYTE           N10     As2
        BYTE           N10     Dn3
        BYTE   W12
        BYTE                   As2
        BYTE           N10     Dn3
        BYTE   W12
        BYTE                   As2
        BYTE           N10     Dn3
        BYTE   W12
        BYTE                   As2
        BYTE           N10     Dn3
        BYTE   W12
        BYTE                   As2
        BYTE           N10     Dn3
        BYTE   W12
        BYTE   PEND
// 053   ----------------------------------------
Truth0_4_53:
        BYTE           N10     As2   v088
        BYTE           N10     Dn3
        BYTE   W12
        BYTE                   As2
        BYTE           N10     Dn3
        BYTE   W12
        BYTE                   As2
        BYTE           N10     Dn3
        BYTE   W12
        BYTE                   As2
        BYTE           N10     Dn3
        BYTE   W12
        BYTE                   As2
        BYTE           N10     Dn3
        BYTE   W12
        BYTE                   As2
        BYTE           N10     Dn3
        BYTE   W12
        BYTE           N11     As2
        BYTE           N11     Dn3
        BYTE   W12
        BYTE           N10     As2
        BYTE           N10     Dn3
        BYTE   W12
        BYTE   PEND
// 054   ----------------------------------------
Truth0_4_54:
        BYTE           N32     An3   v088   gtp3
        BYTE                   Cn4
        BYTE   W36
        BYTE           N56     An3   v088   gtp2
        BYTE                   Cn4
        BYTE   W60
        BYTE   PEND
// 055   ----------------------------------------
Truth0_4_55:
        BYTE           N32     Fn3   v088   gtp3
        BYTE                   As3
        BYTE   W36
        BYTE                   Gn3
        BYTE           N32     Cn4   v088   gtp3
        BYTE   W36
        BYTE           N23     En3
        BYTE           N23     Gn3
        BYTE   W24
        BYTE   PEND
// 056   ----------------------------------------
        BYTE   PATT
         POIN2  Truth0_4_48
// 057   ----------------------------------------
        BYTE   PATT
         POIN2  Truth0_4_49
// 058   ----------------------------------------
        BYTE   PATT
         POIN2  Truth0_4_50
// 059   ----------------------------------------
        BYTE   PATT
         POIN2  Truth0_4_51
// 060   ----------------------------------------
        BYTE   PATT
         POIN2  Truth0_4_52
// 061   ----------------------------------------
        BYTE   PATT
         POIN2  Truth0_4_53
// 062   ----------------------------------------
        BYTE   PATT
         POIN2  Truth0_4_54
// 063   ----------------------------------------
        BYTE           N32     Fn3   v088   gtp3
        BYTE                   As3
        BYTE   W36
        BYTE           N32     Gn3   v088   gtp2
        BYTE                   Cn4
        BYTE   W36
        BYTE           N11     En3
        BYTE           N11     Gn3
        BYTE   W12
Truth0_4_LOOP:
        BYTE           N11     Fn3   v088
        BYTE           N11     An3
        BYTE   W12
// 064   ----------------------------------------
        BYTE   W11
        BYTE           VOICE   15
        BYTE   W01
        BYTE           N10     Dn2
        BYTE   W12
        BYTE                   Fn2
        BYTE   W12
        BYTE                   An2
        BYTE   W12
        BYTE                   Fn3
        BYTE   W12
        BYTE                   An2
        BYTE   W12
        BYTE                   En3
        BYTE   W12
        BYTE                   Cn3
        BYTE   W12
// 065   ----------------------------------------
        BYTE   PATT
         POIN2  Truth0_3_7
// 066   ----------------------------------------
        BYTE   PATT
         POIN2  Truth0_3_2
// 067   ----------------------------------------
        BYTE   PATT
         POIN2  Truth0_4_3
// 068   ----------------------------------------
        BYTE   PATT
         POIN2  Truth0_4_4
// 069   ----------------------------------------
        BYTE   PATT
         POIN2  Truth0_4_5
// 070   ----------------------------------------
        BYTE   W12
        BYTE           N10     Dn2   v088
        BYTE   W12
        BYTE           N11     Fn2
        BYTE   W12
        BYTE           N10     An2
        BYTE   W12
        BYTE                   Fn3
        BYTE   W12
        BYTE                   An2
        BYTE   W12
        BYTE           N11     En3
        BYTE   W12
        BYTE           N10     Cn3
        BYTE   W12
// 071   ----------------------------------------
        BYTE                   Dn3
        BYTE   W12
        BYTE                   An2
        BYTE   W12
        BYTE           N11     Cn3
        BYTE   W12
        BYTE           N10     Gn2
        BYTE   W12
        BYTE                   As2
        BYTE   W12
        BYTE                   Gn2
        BYTE   W12
        BYTE           N11     An2
        BYTE   W12
        BYTE           N10     Dn2
        BYTE   W12
// 072   ----------------------------------------
        BYTE                   Fn2
        BYTE   W12
        BYTE                   An2
        BYTE   W12
        BYTE           N11     Fn3
        BYTE   W12
        BYTE           N10     An2
        BYTE   W12
        BYTE                   En3
        BYTE   W12
        BYTE                   Cn3
        BYTE   W12
        BYTE           N11     Dn3
        BYTE   W12
        BYTE           N10     An2
        BYTE   W12
// 073   ----------------------------------------
        BYTE                   Cn3
        BYTE   W12
        BYTE                   Gn2
        BYTE   W12
        BYTE           N11     As2
        BYTE   W12
        BYTE           N10     Gn2
        BYTE   W12
        BYTE                   An2
        BYTE   W12
        BYTE                   Dn2
        BYTE   W12
        BYTE           N11     Fn3
        BYTE           N11     As3
        BYTE   W12
        BYTE           N80     Gn3   v088   gtp3
        BYTE                   Cn4
        BYTE   W12
// 074   ----------------------------------------
        BYTE   PATT
         POIN2  Truth0_4_4
// 075   ----------------------------------------
        BYTE   W24
        BYTE           N11     Fn3   v088
        BYTE           N11     As3
        BYTE   W12
        BYTE           N32     Gn3   v088   gtp3
        BYTE                   Cn4
        BYTE   W36
        BYTE           N11     Gn3
        BYTE           N11     Cn4
        BYTE   W12
        BYTE           N23     An3
        BYTE           N23     Dn4
        BYTE   W12
// 076   ----------------------------------------
        BYTE   W96
// 077   ----------------------------------------
        BYTE           VOICE   0
        BYTE   W96
// 078   ----------------------------------------
        BYTE           N44     Dn3   v088   gtp2
        BYTE                   Gn3
        BYTE   W60
        BYTE           N32     Dn4   v088   gtp2
        BYTE                   An4
        BYTE   W36
// 079   ----------------------------------------
        BYTE           N92     Ds4   v088   gtp2
        BYTE                   Gn4
        BYTE   W96
// 080   ----------------------------------------
Truth0_4_80:
        BYTE           N10     As2   v088
        BYTE           N10     Dn3
        BYTE   W12
        BYTE                   As2
        BYTE           N10     Dn3
        BYTE   W12
        BYTE                   As2
        BYTE           N10     Dn3
        BYTE   W12
        BYTE                   As2
        BYTE           N10     Dn3
        BYTE   W12
        BYTE                   As2
        BYTE           N10     Dn3
        BYTE   W12
        BYTE                   As2
        BYTE           N10     Dn3
        BYTE   W12
        BYTE                   As2
        BYTE           N10     Dn3
        BYTE   W12
        BYTE                   As2
        BYTE           N10     Dn3
        BYTE   W12
        BYTE   PEND
// 081   ----------------------------------------
Truth0_4_81:
        BYTE           N56     Ds3   v088   gtp2
        BYTE                   Gn3
        BYTE   W60
        BYTE           N32     Ds3   v088   gtp2
        BYTE                   Gn3
        BYTE   W36
        BYTE   PEND
// 082   ----------------------------------------
        BYTE   PATT
         POIN2  Truth0_4_81
// 083   ----------------------------------------
        BYTE   PATT
         POIN2  Truth0_4_80
// 084   ----------------------------------------
        BYTE           N10     As2   v088
        BYTE           N10     Dn3
        BYTE   W12
        BYTE                   As2
        BYTE           N10     Dn3
        BYTE   W12
        BYTE                   As2
        BYTE           N10     Dn3
        BYTE   W12
        BYTE                   As2
        BYTE           N10     Dn3
        BYTE   W24
        BYTE                   Fn3
        BYTE           N10     An3
        BYTE   W24
        BYTE                   Gn3
        BYTE           N10     As3
        BYTE   W12
// 085   ----------------------------------------
        BYTE   W24
        BYTE           N22     Gn3
        BYTE           N22     An3
        BYTE   W24
        BYTE           N10     Gn3
        BYTE           N10     An3
        BYTE   W12
        BYTE           N22     Gn3
        BYTE           N22     As3
        BYTE   W24
        BYTE           N32     Gn3   v088   gtp2
        BYTE                   As3
        BYTE   W12
// 086   ----------------------------------------
        BYTE   W24
        BYTE           N22     Gn3
        BYTE           N22     An3
        BYTE   W24
        BYTE           N10     Gn3
        BYTE           N10     An3
        BYTE   W12
        BYTE           N22     Gn3
        BYTE           N22     As3
        BYTE   W24
        BYTE           N56     Gn3   v088   gtp2
        BYTE                   As3
        BYTE   W12
// 087   ----------------------------------------
        BYTE   W48
        BYTE           N32     Ds4   v088   gtp2
        BYTE                   Gn4
        BYTE   W36
        BYTE           N22     Gn3
        BYTE           N22     As3
        BYTE   W12
// 088   ----------------------------------------
        BYTE   W12
        BYTE                   Gn3
        BYTE           N22     An3
        BYTE   W24
        BYTE           N10     Gn3
        BYTE           N10     As3
        BYTE   W12
        BYTE                   Gn3
        BYTE           N10     Cn4
        BYTE   W12
        BYTE           N32     Gn3   v088   gtp2
        BYTE                   As3
        BYTE   W36
// 089   ----------------------------------------
        BYTE           N44     Gn3   v088   gtp2
        BYTE                   As3
        BYTE   W60
        BYTE           N22     Ds4
        BYTE           N22     Gn4
        BYTE   W24
        BYTE           N56     Ds4   v088   gtp2
        BYTE                   Gn4
        BYTE   W12
// 090   ----------------------------------------
        BYTE   W60
        BYTE           N32     Ds4   v088   gtp2
        BYTE                   Gn4
        BYTE   W36
// 091   ----------------------------------------
        BYTE           N10     Fn3
        BYTE           N10     As3
        BYTE   W12
        BYTE                   Fn3
        BYTE           N10     As3
        BYTE   W12
        BYTE                   Fn3
        BYTE           N10     As3
        BYTE   W12
        BYTE                   Fn3
        BYTE           N10     As3
        BYTE   W12
        BYTE                   Fn3
        BYTE           N10     As3
        BYTE   W12
        BYTE                   Fn3
        BYTE           N10     As3
        BYTE   W12
        BYTE                   Fn3
        BYTE           N10     As3
        BYTE   W12
        BYTE                   Fn3
        BYTE           N10     As3
        BYTE   W12
// 092   ----------------------------------------
        BYTE                   An2
        BYTE           N10     Cn3
        BYTE   W12
        BYTE                   An2
        BYTE           N10     Cn3
        BYTE   W12
        BYTE                   An2
        BYTE           N10     Cn3
        BYTE   W12
        BYTE                   An2
        BYTE           N10     Cn3
        BYTE   W12
        BYTE                   An2
        BYTE           N10     Cn3
        BYTE   W12
        BYTE                   Cn3
        BYTE           N10     En3
        BYTE   W24
        BYTE                   Dn3
        BYTE           N10     Fn3
        BYTE   W12
// 093   ----------------------------------------
        BYTE   PATT
         POIN2  Truth0_4_28
// 094   ----------------------------------------
        BYTE   PATT
         POIN2  Truth0_4_21
// 095   ----------------------------------------
        BYTE   PATT
         POIN2  Truth0_4_22
// 096   ----------------------------------------
        BYTE   PATT
         POIN2  Truth0_4_23
// 097   ----------------------------------------
        BYTE   PATT
         POIN2  Truth0_4_24
// 098   ----------------------------------------
        BYTE   PATT
         POIN2  Truth0_4_25
// 099   ----------------------------------------
        BYTE   PATT
         POIN2  Truth0_4_26
// 100   ----------------------------------------
        BYTE   PATT
         POIN2  Truth0_4_27
// 101   ----------------------------------------
        BYTE   PATT
         POIN2  Truth0_4_28
// 102   ----------------------------------------
        BYTE   PATT
         POIN2  Truth0_4_21
// 103   ----------------------------------------
        BYTE   W24
        BYTE           N23     Dn3   v088
        BYTE           N23     Fn3
        BYTE   W24
        BYTE           N10     Dn3
        BYTE           N10     En3
        BYTE   W12
        BYTE           N22     Dn3
        BYTE           N22     Fn3
        BYTE   W24
        BYTE           N32     Dn3   v088   gtp2
        BYTE                   Gn3
        BYTE   W12
// 104   ----------------------------------------
        BYTE   PATT
         POIN2  Truth0_4_23
// 105   ----------------------------------------
        BYTE   W24
        BYTE           N23     Dn3   v088
        BYTE           N23     En3
        BYTE   W24
        BYTE           N10     Dn3
        BYTE           N10     En3
        BYTE   W12
        BYTE           N22     Dn3
        BYTE           N22     Fn3
        BYTE   W24
        BYTE                   Dn3
        BYTE           N22     Gn3
        BYTE   W12
// 106   ----------------------------------------
        BYTE   PATT
         POIN2  Truth0_4_25
// 107   ----------------------------------------
        BYTE   PATT
         POIN2  Truth0_4_26
// 108   ----------------------------------------
        BYTE           N30     Cn3   v088
        BYTE           N30     En3
        BYTE   W36
        BYTE           N44     Cn3   v088   gtp2
        BYTE                   En3
        BYTE   W60
// 109   ----------------------------------------
        BYTE   PATT
         POIN2  Truth0_4_36
// 110   ----------------------------------------
        BYTE   PATT
         POIN2  Truth0_4_37
// 111   ----------------------------------------
        BYTE           N30     Fn3   v088   gtp1
        BYTE           N24     Cn3   v088   gtp3
        BYTE   W36
        BYTE           N30     Fn3   v088   gtp1
        BYTE           N24     Cn3   v088   gtp3
        BYTE   W36
        BYTE           N06
        BYTE           N06     En3
        BYTE   W12
        BYTE           N28     Fn3   v088   gtp1
        BYTE                   Cn3
        BYTE   W12
// 112   ----------------------------------------
        BYTE   W24
        BYTE           N07     En3
        BYTE           N06     Cn3
        BYTE   W12
        BYTE           N40
        BYTE           N36     Fn3   v088   gtp1
        BYTE   W60
// 113   ----------------------------------------
        BYTE   PATT
         POIN2  Truth0_4_40
// 114   ----------------------------------------
        BYTE   W36
        BYTE           N36     Gn3   v088   gtp2
        BYTE           N44     Dn3   v088   gtp3
        BYTE   W60
// 115   ----------------------------------------
        BYTE   W01
        BYTE           N32     Fn3   v088   gtp2
        BYTE                   An3
        BYTE   W32
        BYTE   W03
        BYTE           N11     En3
        BYTE           N11     Gn3
        BYTE   W24
        BYTE                   Dn3
        BYTE           N11     Fn3
        BYTE   W24
        BYTE           N56     En3   v088   gtp3
        BYTE                   Gn3
        BYTE   W12
// 116   ----------------------------------------
        BYTE   W60
        BYTE           N11     Dn3
        BYTE           N11     Fn3
        BYTE   W24
        BYTE           N56     En3   v088   gtp3
        BYTE                   Gn3
        BYTE   W12
// 117   ----------------------------------------
        BYTE   PATT
         POIN2  Truth0_4_44
// 118   ----------------------------------------
        BYTE   PATT
         POIN2  Truth0_4_45
// 119   ----------------------------------------
        BYTE   W36
        BYTE           N44     Bn3   v088   gtp3
        BYTE                   Dn4
        BYTE   W48
        BYTE           N32     Cs4   v088   gtp3
        BYTE                   En4
        BYTE   W12
// 120   ----------------------------------------
        BYTE   PATT
         POIN2  Truth0_4_47
// 121   ----------------------------------------
        BYTE           N11     Fn3   v088
        BYTE           N11     An3
        BYTE   W12
        BYTE           N10     Fn3
        BYTE           N10     An3
        BYTE   W12
        BYTE           N11     Fn3
        BYTE           N11     An3
        BYTE   W12
        BYTE           N10     Fn3
        BYTE           N10     An3
        BYTE   W12
        BYTE                   Fn3
        BYTE           N10     An3
        BYTE   W12
        BYTE                   Fn3
        BYTE           N10     An3
        BYTE   W12
        BYTE                   Fn3
        BYTE           N10     An3
        BYTE   W12
        BYTE                   Fn3
        BYTE           N10     An3
        BYTE   W12
// 122   ----------------------------------------
        BYTE   PATT
         POIN2  Truth0_4_49
// 123   ----------------------------------------
        BYTE   PATT
         POIN2  Truth0_4_50
// 124   ----------------------------------------
        BYTE   PATT
         POIN2  Truth0_4_51
// 125   ----------------------------------------
        BYTE   PATT
         POIN2  Truth0_4_52
// 126   ----------------------------------------
        BYTE   PATT
         POIN2  Truth0_4_53
// 127   ----------------------------------------
        BYTE   PATT
         POIN2  Truth0_4_54
// 128   ----------------------------------------
        BYTE   PATT
         POIN2  Truth0_4_55
// 129   ----------------------------------------
        BYTE   PATT
         POIN2  Truth0_4_48
// 130   ----------------------------------------
        BYTE   PATT
         POIN2  Truth0_4_49
// 131   ----------------------------------------
        BYTE   PATT
         POIN2  Truth0_4_50
// 132   ----------------------------------------
        BYTE   PATT
         POIN2  Truth0_4_51
// 133   ----------------------------------------
        BYTE   PATT
         POIN2  Truth0_4_52
// 134   ----------------------------------------
        BYTE   PATT
         POIN2  Truth0_4_53
// 135   ----------------------------------------
        BYTE   PATT
         POIN2  Truth0_4_54
// 136   ----------------------------------------
        BYTE           N32     Fn3   v088   gtp3
        BYTE                   As3
        BYTE   W36
        BYTE                   Gn3
        BYTE           N32     Cn4   v088   gtp3
        BYTE   W36
        BYTE           N11     En3
        BYTE           N11     Gn3
        BYTE   W12
        BYTE           N10     Fn3
        BYTE           N10     An3
        BYTE   GoTo
         POIN2  Truth0_4_LOOP
        BYTE   W12
// 137   ----------------------------------------
        BYTE   W24
        BYTE                   Fn3
        BYTE           N10     An3
        BYTE   W12
        BYTE                   Fn3
        BYTE           N10     An3
        BYTE   W24
        BYTE                   Fn3
        BYTE           N10     An3
        BYTE   W24
        BYTE                   Fn3
        BYTE           N10     An3
        BYTE   W12
// 138   ----------------------------------------
        BYTE   W12
        BYTE                   En3
        BYTE           N10     Gn3
        BYTE   W24
        BYTE                   En3
        BYTE           N10     Gn3
        BYTE   W24
        BYTE           N32     Dn3   v088   gtp2
        BYTE                   Fn3
        BYTE   W36
// 139   ----------------------------------------
        BYTE                   En3
        BYTE           N32     Gn3   v088   gtp2
        BYTE   W36
        BYTE           N22
        BYTE           N22     Cn4
        BYTE   W24
        BYTE                   Gn3
        BYTE           N22     Cn4
        BYTE   W24
        BYTE                   Gn3
        BYTE           N22     Cn4
        BYTE   W12
// 140   ----------------------------------------
        BYTE   W12
        BYTE                   Gn3
        BYTE           N22     Cn4
        BYTE   W24
        BYTE                   Dn3
        BYTE           N22     Gn3
        BYTE   W24
        BYTE           N32     En3   v088   gtp2
        BYTE                   Gn3
        BYTE   W36
// 141   ----------------------------------------
Truth0_4_141:
        BYTE           N44     Dn3   v088   gtp2
        BYTE                   Fn3
        BYTE   W60
        BYTE           N10     Dn3
        BYTE           N10     Fn3
        BYTE   W24
        BYTE                   Dn3
        BYTE           N10     Fn3
        BYTE   W12
        BYTE   PEND
// 142   ----------------------------------------
Truth0_4_142:
        BYTE   W12
        BYTE           N10     Dn3   v088
        BYTE           N10     Fn3
        BYTE   W24
        BYTE                   Dn3
        BYTE           N10     Fn3
        BYTE   W24
        BYTE           N32     Dn3   v088   gtp2
        BYTE                   Fn3
        BYTE   W36
        BYTE   PEND
// 143   ----------------------------------------
Truth0_4_143:
        BYTE           N32     Fn3   v088   gtp2
        BYTE                   An3
        BYTE   W36
        BYTE           N10     Fn3
        BYTE           N10     Gn3
        BYTE   W24
        BYTE           N32     Fn3   v088   gtp2
        BYTE                   Gn3
        BYTE   W36
        BYTE   PEND
// 144   ----------------------------------------
Truth0_4_144:
        BYTE           N32     Fn3   v088   gtp2
        BYTE                   As3
        BYTE   W36
        BYTE                   Gn3
        BYTE           N32     Cn4   v088   gtp2
        BYTE   W36
        BYTE           N22     Gn3
        BYTE           N22     Cn4
        BYTE   W24
        BYTE   PEND
// 145   ----------------------------------------
Truth0_4_145:
        BYTE           N23     Fn3   v088
        BYTE           N23     An3
        BYTE   W36
        BYTE           N10
        BYTE           N10     Fn4
        BYTE   W24
        BYTE                   An3
        BYTE           N10     Fn4
        BYTE   W24
        BYTE           N22     An3
        BYTE           N22     Fn4
        BYTE   W12
        BYTE   PEND
// 146   ----------------------------------------
Truth0_4_146:
        BYTE   W12
        BYTE           N22     Gn3   v088
        BYTE           N22     En4
        BYTE   W24
        BYTE           N56     Fn3   v088   gtp2
        BYTE                   Dn4
        BYTE   W60
        BYTE   PEND
// 147   ----------------------------------------
Truth0_4_147:
        BYTE   W36
        BYTE           N10     Gn3   v088
        BYTE           N10     Dn4
        BYTE   W12
        BYTE                   Gn3
        BYTE           N10     Dn4
        BYTE   W12
        BYTE                   Gn3
        BYTE           N10     Dn4
        BYTE   W12
        BYTE                   Gn3
        BYTE           N10     Dn4
        BYTE   W12
        BYTE                   Gn3
        BYTE           N10     Dn4
        BYTE   W12
        BYTE   PEND
// 148   ----------------------------------------
Truth0_4_148:
        BYTE   W12
        BYTE           N10     Gn3   v088
        BYTE           N10     Cn4
        BYTE   W24
        BYTE                   Gn3
        BYTE           N10     Cn4
        BYTE   W24
        BYTE           N32     Fn3   v088   gtp2
        BYTE                   Gn3
        BYTE   W36
        BYTE   PEND
// 149   ----------------------------------------
        BYTE   PATT
         POIN2  Truth0_4_141
// 150   ----------------------------------------
        BYTE   PATT
         POIN2  Truth0_4_142
// 151   ----------------------------------------
        BYTE   PATT
         POIN2  Truth0_4_143
// 152   ----------------------------------------
        BYTE   PATT
         POIN2  Truth0_4_144
// 153   ----------------------------------------
        BYTE   PATT
         POIN2  Truth0_4_145
// 154   ----------------------------------------
        BYTE   PATT
         POIN2  Truth0_4_146
// 155   ----------------------------------------
        BYTE   PATT
         POIN2  Truth0_4_147
// 156   ----------------------------------------
        BYTE   PATT
         POIN2  Truth0_4_148
// 157   ----------------------------------------
        BYTE   FINE

//****************** Track 5 (Midi-Chn.6) ******************//

Truth0_5:
        BYTE   KEYSH   Truth0_key+0
// 000   ----------------------------------------
        BYTE           VOICE   33
        BYTE           VOL     51
        BYTE   W96
// 001   ----------------------------------------
        BYTE   W96
// 002   ----------------------------------------
        BYTE   W96
// 003   ----------------------------------------
Truth0_5_3:
        BYTE   W72
        BYTE           N10     As1   v088
        BYTE   W12
        BYTE           N80     Cn2   v088   gtp2
        BYTE   W12
        BYTE   PEND
// 004   ----------------------------------------
Truth0_5_4:
        BYTE   W72
        BYTE           N10     As1   v088
        BYTE   W12
        BYTE           N32     Cn2   v088   gtp2
        BYTE   W12
        BYTE   PEND
// 005   ----------------------------------------
Truth0_5_5:
        BYTE   W24
        BYTE           N10     As1   v088
        BYTE   W12
        BYTE           N32     Cn2   v088   gtp2
        BYTE   W36
        BYTE           N10
        BYTE   W12
        BYTE                   Dn2
        BYTE   W12
        BYTE   PEND
// 006   ----------------------------------------
        BYTE   W96
// 007   ----------------------------------------
        BYTE   W96
// 008   ----------------------------------------
        BYTE   W96
// 009   ----------------------------------------
        BYTE   PATT
         POIN2  Truth0_5_3
// 010   ----------------------------------------
        BYTE   PATT
         POIN2  Truth0_5_4
// 011   ----------------------------------------
        BYTE   PATT
         POIN2  Truth0_5_5
// 012   ----------------------------------------
        BYTE   W12
        BYTE           N10     Dn2   v088
        BYTE   W12
        BYTE                   Dn2
        BYTE   W12
        BYTE                   Dn2
        BYTE   W12
        BYTE                   Dn2
        BYTE   W12
        BYTE                   Dn2
        BYTE   W12
        BYTE                   Dn2
        BYTE   W12
        BYTE                   Dn2
        BYTE   W12
// 013   ----------------------------------------
Truth0_5_13:
        BYTE           N10     Dn2   v088
        BYTE   W12
        BYTE                   Dn2
        BYTE   W12
        BYTE                   Dn2
        BYTE   W12
        BYTE                   Dn2
        BYTE   W12
        BYTE                   Dn2
        BYTE   W12
        BYTE                   Dn2
        BYTE   W12
        BYTE                   Dn2
        BYTE   W12
        BYTE                   Dn2
        BYTE   W12
        BYTE   PEND
// 014   ----------------------------------------
        BYTE   PATT
         POIN2  Truth0_5_13
// 015   ----------------------------------------
        BYTE           N10     Dn2   v088
        BYTE   W12
        BYTE                   Dn2
        BYTE   W12
        BYTE                   Dn2
        BYTE   W12
        BYTE                   Dn2
        BYTE   W12
        BYTE                   Dn2
        BYTE   W12
        BYTE                   Dn2
        BYTE   W12
        BYTE                   As1
        BYTE   W12
        BYTE           N80     Cn2   v088   gtp2
        BYTE   W12
// 016   ----------------------------------------
        BYTE   PATT
         POIN2  Truth0_5_4
// 017   ----------------------------------------
        BYTE   W24
        BYTE           N10     As1   v088
        BYTE   W12
        BYTE           N32     Cn2   v088   gtp2
        BYTE   W36
        BYTE           N10
        BYTE   W12
        BYTE                   An1
        BYTE   W12
// 018   ----------------------------------------
        BYTE   W12
        BYTE                   An1
        BYTE   W12
        BYTE                   An1
        BYTE   W12
        BYTE                   An1
        BYTE   W12
        BYTE                   An1
        BYTE   W12
        BYTE                   An1
        BYTE   W12
        BYTE                   An1
        BYTE   W12
        BYTE                   An1
        BYTE   W12
// 019   ----------------------------------------
        BYTE                   Dn2
        BYTE   W12
        BYTE                   An1
        BYTE   W12
        BYTE                   Cs2
        BYTE   W12
        BYTE                   An1
        BYTE   W12
        BYTE                   An1
        BYTE   W12
        BYTE           N22
        BYTE   W24
        BYTE           N10     Dn2
        BYTE   W12
// 020   ----------------------------------------
Truth0_5_20:
        BYTE   W12
        BYTE           N09     Dn2   v088
        BYTE   W12
        BYTE                   Dn2
        BYTE   W12
        BYTE                   Dn2
        BYTE   W12
        BYTE                   Dn2
        BYTE   W12
        BYTE                   Dn2
        BYTE   W12
        BYTE                   Dn2
        BYTE   W12
        BYTE                   Dn2
        BYTE   W12
        BYTE   PEND
// 021   ----------------------------------------
Truth0_5_21:
        BYTE           N09     Dn2   v088
        BYTE   W12
        BYTE                   Dn2
        BYTE   W12
        BYTE                   Dn2
        BYTE   W12
        BYTE                   Dn2
        BYTE   W12
        BYTE                   Dn2
        BYTE   W12
        BYTE                   Dn2
        BYTE   W12
        BYTE                   An1
        BYTE   W12
        BYTE           N21     As1
        BYTE   W12
        BYTE   PEND
// 022   ----------------------------------------
Truth0_5_22:
        BYTE   W12
        BYTE           N09     As1   v088
        BYTE   W12
        BYTE                   As1
        BYTE   W12
        BYTE                   As1
        BYTE   W12
        BYTE                   As1
        BYTE   W12
        BYTE                   As1
        BYTE   W12
        BYTE                   As1
        BYTE   W12
        BYTE                   As1
        BYTE   W12
        BYTE   PEND
// 023   ----------------------------------------
Truth0_5_23:
        BYTE           N09     As1   v088
        BYTE   W12
        BYTE                   As1
        BYTE   W12
        BYTE                   As1
        BYTE   W12
        BYTE                   As1
        BYTE   W12
        BYTE                   As1
        BYTE   W12
        BYTE                   As1
        BYTE   W12
        BYTE                   An1
        BYTE   W12
        BYTE           N21     Gn1
        BYTE   W12
        BYTE   PEND
// 024   ----------------------------------------
Truth0_5_24:
        BYTE   W12
        BYTE           N09     Gn1   v088
        BYTE   W12
        BYTE                   Gn1
        BYTE   W12
        BYTE                   Gn1
        BYTE   W12
        BYTE                   Gn1
        BYTE   W12
        BYTE                   Gn1
        BYTE   W12
        BYTE                   Gn1
        BYTE   W12
        BYTE                   Gn1
        BYTE   W12
        BYTE   PEND
// 025   ----------------------------------------
Truth0_5_25:
        BYTE           N09     Gn1   v088
        BYTE   W12
        BYTE                   Gn1
        BYTE   W12
        BYTE                   Gn1
        BYTE   W12
        BYTE                   Gn1
        BYTE   W12
        BYTE                   Gn1
        BYTE   W12
        BYTE                   Gn1
        BYTE   W12
        BYTE                   Gn1
        BYTE   W12
        BYTE           N21     Fn1
        BYTE   W12
        BYTE   PEND
// 026   ----------------------------------------
Truth0_5_26:
        BYTE   W12
        BYTE           N09     Fn1   v088
        BYTE   W12
        BYTE                   Fn1
        BYTE   W12
        BYTE                   Fn1
        BYTE   W12
        BYTE                   Fn1
        BYTE   W12
        BYTE                   Fn1
        BYTE   W12
        BYTE                   Fn1
        BYTE   W12
        BYTE                   Fn1
        BYTE   W12
        BYTE   PEND
// 027   ----------------------------------------
Truth0_5_27:
        BYTE   W12
        BYTE           N09     Cn2   v088
        BYTE   W24
        BYTE                   Cn2
        BYTE   W24
        BYTE                   En2
        BYTE   W24
        BYTE                   Dn2
        BYTE   W12
        BYTE   PEND
// 028   ----------------------------------------
        BYTE   PATT
         POIN2  Truth0_5_20
// 029   ----------------------------------------
        BYTE   PATT
         POIN2  Truth0_5_21
// 030   ----------------------------------------
        BYTE   PATT
         POIN2  Truth0_5_22
// 031   ----------------------------------------
        BYTE   PATT
         POIN2  Truth0_5_23
// 032   ----------------------------------------
        BYTE   PATT
         POIN2  Truth0_5_24
// 033   ----------------------------------------
        BYTE   PATT
         POIN2  Truth0_5_25
// 034   ----------------------------------------
        BYTE   PATT
         POIN2  Truth0_5_26
// 035   ----------------------------------------
        BYTE           N22     Cn2   v088
        BYTE   W36
        BYTE           N32     Cn2   v088   gtp2
        BYTE   W60
// 036   ----------------------------------------
Truth0_5_36:
        BYTE           N48     Gn1   v088   gtp1
        BYTE   W60
        BYTE           N10
        BYTE   W24
        BYTE           N40     Gn1   v088   gtp1
        BYTE   W12
        BYTE   PEND
// 037   ----------------------------------------
Truth0_5_37:
        BYTE   W36
        BYTE           N48     Gn1   v088   gtp3
        BYTE   W60
        BYTE   PEND
// 038   ----------------------------------------
Truth0_5_38:
        BYTE           N24     Fn1   v088   gtp3
        BYTE   W36
        BYTE           N24     Fn1   v088   gtp1
        BYTE   W36
        BYTE           N07
        BYTE   W12
        BYTE           N28     Fn1   v088   gtp1
        BYTE   W12
        BYTE   PEND
// 039   ----------------------------------------
Truth0_5_39:
        BYTE   W24
        BYTE           N06     Fn1   v088
        BYTE   W12
        BYTE           N32
        BYTE   W60
        BYTE   PEND
// 040   ----------------------------------------
Truth0_5_40:
        BYTE           N44     As1   v088   gtp2
        BYTE   W60
        BYTE           N10
        BYTE   W24
        BYTE           N32     As1   v088   gtp1
        BYTE   W12
        BYTE   PEND
// 041   ----------------------------------------
Truth0_5_41:
        BYTE   W36
        BYTE           N56     Cn2   v088   gtp2
        BYTE   W60
        BYTE   PEND
// 042   ----------------------------------------
Truth0_5_42:
        BYTE           N28     Fn2   v088
        BYTE   W36
        BYTE           N11     En2
        BYTE   W24
        BYTE                   Dn2
        BYTE   W24
        BYTE           N64     Cn2   v088   gtp1
        BYTE   W12
        BYTE   PEND
// 043   ----------------------------------------
Truth0_5_43:
        BYTE   W60
        BYTE           N12     As1   v088
        BYTE   W24
        BYTE           N60     Cn2
        BYTE   W12
        BYTE   PEND
// 044   ----------------------------------------
Truth0_5_44:
        BYTE   W60
        BYTE           N12     Dn2   v088
        BYTE   W24
        BYTE           N17     En2
        BYTE   W12
        BYTE   PEND
// 045   ----------------------------------------
Truth0_5_45:
        BYTE   W12
        BYTE           N12     Cn2   v088
        BYTE   W12
        BYTE           N28     En1
        BYTE   W36
        BYTE           N12     Fn1
        BYTE   W24
        BYTE           N36     Gn1   v088   gtp3
        BYTE   W12
        BYTE   PEND
// 046   ----------------------------------------
Truth0_5_46:
        BYTE   W36
        BYTE           N36     Gs1   v088
        BYTE   W48
        BYTE           N21     An1
        BYTE   W12
        BYTE   PEND
// 047   ----------------------------------------
Truth0_5_47:
        BYTE   W12
        BYTE           N09     An1   v088
        BYTE   W12
        BYTE           N08
        BYTE   W12
        BYTE           N09
        BYTE   W12
        BYTE           N08
        BYTE   W12
        BYTE           N09
        BYTE   W12
        BYTE           N08
        BYTE   W12
        BYTE           N11
        BYTE   W12
        BYTE   PEND
// 048   ----------------------------------------
Truth0_5_48:
        BYTE           N11     Dn2   v088
        BYTE   W12
        BYTE           N10
        BYTE   W12
        BYTE                   Dn2
        BYTE   W12
        BYTE                   Dn2
        BYTE   W12
        BYTE                   Dn2
        BYTE   W12
        BYTE                   Dn2
        BYTE   W12
        BYTE                   Dn2
        BYTE   W12
        BYTE                   Dn2
        BYTE   W12
        BYTE   PEND
// 049   ----------------------------------------
Truth0_5_49:
        BYTE           N10     Dn2   v088
        BYTE   W12
        BYTE                   Dn2
        BYTE   W12
        BYTE                   Dn2
        BYTE   W12
        BYTE                   Dn2
        BYTE   W12
        BYTE                   Dn2
        BYTE   W12
        BYTE                   An1
        BYTE   W12
        BYTE                   As1
        BYTE   W12
        BYTE                   Bn1
        BYTE   W12
        BYTE   PEND
// 050   ----------------------------------------
Truth0_5_50:
        BYTE           N10     Cn2   v088
        BYTE   W12
        BYTE                   Cn2
        BYTE   W12
        BYTE                   Cn2
        BYTE   W12
        BYTE                   Cn2
        BYTE   W12
        BYTE                   Cn2
        BYTE   W12
        BYTE                   Cn2
        BYTE   W12
        BYTE                   Cn2
        BYTE   W12
        BYTE                   Cn2
        BYTE   W12
        BYTE   PEND
// 051   ----------------------------------------
Truth0_5_51:
        BYTE           N10     Cn2   v088
        BYTE   W12
        BYTE                   Cn2
        BYTE   W12
        BYTE                   Cn2
        BYTE   W12
        BYTE                   Cn2
        BYTE   W12
        BYTE                   Dn2
        BYTE   W12
        BYTE                   Cn2
        BYTE   W12
        BYTE                   As1
        BYTE   W12
        BYTE                   An1
        BYTE   W12
        BYTE   PEND
// 052   ----------------------------------------
Truth0_5_52:
        BYTE           N10     Gn1   v088
        BYTE   W12
        BYTE                   Gn1
        BYTE   W12
        BYTE                   Gn1
        BYTE   W12
        BYTE                   Gn1
        BYTE   W12
        BYTE                   Gn1
        BYTE   W12
        BYTE                   Gn1
        BYTE   W12
        BYTE                   Gn1
        BYTE   W12
        BYTE                   Gn1
        BYTE   W12
        BYTE   PEND
// 053   ----------------------------------------
        BYTE   PATT
         POIN2  Truth0_5_52
// 054   ----------------------------------------
Truth0_5_54:
        BYTE           N10     Fn1   v088
        BYTE   W12
        BYTE                   Fn1
        BYTE   W12
        BYTE                   Fn1
        BYTE   W12
        BYTE                   Fn1
        BYTE   W12
        BYTE                   Fn1
        BYTE   W12
        BYTE                   Fn1
        BYTE   W12
        BYTE                   Fn1
        BYTE   W12
        BYTE                   Fn1
        BYTE   W12
        BYTE   PEND
// 055   ----------------------------------------
Truth0_5_55:
        BYTE           N32     Dn2   v088   gtp2
        BYTE   W36
        BYTE           N22     En2
        BYTE   W24
        BYTE           N10     Cn2
        BYTE   W12
        BYTE           N22
        BYTE   W24
        BYTE   PEND
// 056   ----------------------------------------
        BYTE   PATT
         POIN2  Truth0_5_48
// 057   ----------------------------------------
        BYTE   PATT
         POIN2  Truth0_5_49
// 058   ----------------------------------------
        BYTE   PATT
         POIN2  Truth0_5_50
// 059   ----------------------------------------
        BYTE   PATT
         POIN2  Truth0_5_51
// 060   ----------------------------------------
        BYTE   PATT
         POIN2  Truth0_5_52
// 061   ----------------------------------------
        BYTE   PATT
         POIN2  Truth0_5_52
// 062   ----------------------------------------
        BYTE   PATT
         POIN2  Truth0_5_54
// 063   ----------------------------------------
        BYTE           N32     Dn2   v088   gtp2
        BYTE   W36
        BYTE                   En2
        BYTE   W36
        BYTE           N10     Cn2
        BYTE   W12
Truth0_5_LOOP:
        BYTE           N10     Dn2   v088
        BYTE   W12
// 064   ----------------------------------------
        BYTE   W96
// 065   ----------------------------------------
        BYTE   W96
// 066   ----------------------------------------
        BYTE   W96
// 067   ----------------------------------------
        BYTE   W72
        BYTE                   As1
        BYTE   W12
        BYTE           N68     Cn2   v088   gtp1
        BYTE   W12
// 068   ----------------------------------------
        BYTE   PATT
         POIN2  Truth0_5_4
// 069   ----------------------------------------
        BYTE   W24
        BYTE           N10     As1   v088
        BYTE   W12
        BYTE           N32     Cn2   v088   gtp2
        BYTE   W36
        BYTE           N10
        BYTE   W12
        BYTE           N12     Dn2
        BYTE   W12
// 070   ----------------------------------------
Truth0_5_70:
        BYTE   W24
        BYTE           N22     Dn2   v088
        BYTE   W48
        BYTE                   Dn2
        BYTE   W24
        BYTE   PEND
// 071   ----------------------------------------
        BYTE   PATT
         POIN2  Truth0_5_70
// 072   ----------------------------------------
        BYTE   PATT
         POIN2  Truth0_5_70
// 073   ----------------------------------------
        BYTE   W24
        BYTE           N22     Dn2   v088
        BYTE   W48
        BYTE           N10     As1
        BYTE   W12
        BYTE           N80     Cn2   v088   gtp2
        BYTE   W12
// 074   ----------------------------------------
        BYTE   PATT
         POIN2  Truth0_5_4
// 075   ----------------------------------------
        BYTE   W24
        BYTE           N10     As1   v088
        BYTE   W12
        BYTE           N32     Cn2   v088   gtp2
        BYTE   W36
        BYTE           N10
        BYTE   W12
        BYTE           N22     Dn2
        BYTE   W12
// 076   ----------------------------------------
        BYTE   W24
        BYTE                   Ds2
        BYTE   W36
        BYTE           N10     Fn2
        BYTE   W24
        BYTE                   Gn2
        BYTE   W12
// 077   ----------------------------------------
Truth0_5_77:
        BYTE   W12
        BYTE           N10     Gn2   v088
        BYTE   W12
        BYTE                   Gn2
        BYTE   W12
        BYTE                   Gn2
        BYTE   W12
        BYTE                   Gn2
        BYTE   W12
        BYTE                   Gn2
        BYTE   W12
        BYTE                   Gn2
        BYTE   W12
        BYTE                   Gn2
        BYTE   W12
        BYTE   PEND
// 078   ----------------------------------------
Truth0_5_78:
        BYTE           N10     Gn2   v088
        BYTE   W12
        BYTE                   Gn2
        BYTE   W12
        BYTE                   Gn2
        BYTE   W12
        BYTE                   Gn2
        BYTE   W12
        BYTE                   Gn2
        BYTE   W12
        BYTE                   Gn2
        BYTE   W12
        BYTE                   Gn2
        BYTE   W12
        BYTE                   Dn2
        BYTE   W12
        BYTE   PEND
// 079   ----------------------------------------
Truth0_5_79:
        BYTE           N10     Ds2   v088
        BYTE   W12
        BYTE                   Ds2
        BYTE   W12
        BYTE                   Ds2
        BYTE   W12
        BYTE                   Ds2
        BYTE   W12
        BYTE                   Ds2
        BYTE   W12
        BYTE                   Ds2
        BYTE   W12
        BYTE                   Ds2
        BYTE   W12
        BYTE                   Ds2
        BYTE   W12
        BYTE   PEND
// 080   ----------------------------------------
Truth0_5_80:
        BYTE           N10     Ds2   v088
        BYTE   W12
        BYTE                   Ds2
        BYTE   W12
        BYTE                   Ds2
        BYTE   W12
        BYTE                   Ds2
        BYTE   W12
        BYTE                   Ds2
        BYTE   W12
        BYTE                   As1
        BYTE   W12
        BYTE                   As1
        BYTE   W12
        BYTE                   Bn1
        BYTE   W12
        BYTE   PEND
// 081   ----------------------------------------
        BYTE   PATT
         POIN2  Truth0_5_50
// 082   ----------------------------------------
        BYTE   PATT
         POIN2  Truth0_5_50
// 083   ----------------------------------------
Truth0_5_83:
        BYTE           N10     As1   v088
        BYTE   W12
        BYTE                   As1
        BYTE   W12
        BYTE                   As1
        BYTE   W12
        BYTE                   As1
        BYTE   W12
        BYTE                   As1
        BYTE   W12
        BYTE                   As1
        BYTE   W12
        BYTE                   As1
        BYTE   W12
        BYTE                   As1
        BYTE   W12
        BYTE   PEND
// 084   ----------------------------------------
        BYTE                   As1
        BYTE   W12
        BYTE                   As1
        BYTE   W12
        BYTE                   As1
        BYTE   W12
        BYTE                   As1
        BYTE   W12
        BYTE                   As1
        BYTE   W12
        BYTE                   Fn1
        BYTE   W24
        BYTE                   Gn1
        BYTE   W12
// 085   ----------------------------------------
        BYTE   PATT
         POIN2  Truth0_5_77
// 086   ----------------------------------------
        BYTE   PATT
         POIN2  Truth0_5_78
// 087   ----------------------------------------
        BYTE   PATT
         POIN2  Truth0_5_79
// 088   ----------------------------------------
        BYTE   PATT
         POIN2  Truth0_5_80
// 089   ----------------------------------------
        BYTE   PATT
         POIN2  Truth0_5_50
// 090   ----------------------------------------
        BYTE   PATT
         POIN2  Truth0_5_50
// 091   ----------------------------------------
        BYTE   PATT
         POIN2  Truth0_5_83
// 092   ----------------------------------------
        BYTE           N10     Fn1   v088
        BYTE   W12
        BYTE                   Fn1
        BYTE   W12
        BYTE                   Fn1
        BYTE   W12
        BYTE                   Fn1
        BYTE   W12
        BYTE                   Fn1
        BYTE   W12
        BYTE                   Cn2
        BYTE   W24
        BYTE                   Dn2
        BYTE   W12
// 093   ----------------------------------------
        BYTE   PATT
         POIN2  Truth0_5_20
// 094   ----------------------------------------
        BYTE   PATT
         POIN2  Truth0_5_21
// 095   ----------------------------------------
        BYTE   PATT
         POIN2  Truth0_5_22
// 096   ----------------------------------------
        BYTE   PATT
         POIN2  Truth0_5_23
// 097   ----------------------------------------
        BYTE   PATT
         POIN2  Truth0_5_24
// 098   ----------------------------------------
        BYTE   PATT
         POIN2  Truth0_5_25
// 099   ----------------------------------------
        BYTE   PATT
         POIN2  Truth0_5_26
// 100   ----------------------------------------
        BYTE   PATT
         POIN2  Truth0_5_27
// 101   ----------------------------------------
        BYTE   PATT
         POIN2  Truth0_5_20
// 102   ----------------------------------------
        BYTE   PATT
         POIN2  Truth0_5_21
// 103   ----------------------------------------
        BYTE   PATT
         POIN2  Truth0_5_22
// 104   ----------------------------------------
        BYTE   PATT
         POIN2  Truth0_5_23
// 105   ----------------------------------------
        BYTE   PATT
         POIN2  Truth0_5_24
// 106   ----------------------------------------
        BYTE   PATT
         POIN2  Truth0_5_25
// 107   ----------------------------------------
        BYTE   W12
        BYTE           N10     Fn1   v088
        BYTE   W12
        BYTE                   Fn1
        BYTE   W12
        BYTE                   Fn1
        BYTE   W12
        BYTE                   Fn1
        BYTE   W12
        BYTE                   An1
        BYTE   W12
        BYTE                   As1
        BYTE   W12
        BYTE                   Bn1
        BYTE   W12
// 108   ----------------------------------------
        BYTE           N32     Cn2   v088   gtp2
        BYTE   W36
        BYTE           N44     Cn2   v088   gtp2
        BYTE   W60
// 109   ----------------------------------------
        BYTE   PATT
         POIN2  Truth0_5_36
// 110   ----------------------------------------
        BYTE   PATT
         POIN2  Truth0_5_37
// 111   ----------------------------------------
        BYTE   PATT
         POIN2  Truth0_5_38
// 112   ----------------------------------------
        BYTE   PATT
         POIN2  Truth0_5_39
// 113   ----------------------------------------
        BYTE   PATT
         POIN2  Truth0_5_40
// 114   ----------------------------------------
        BYTE   PATT
         POIN2  Truth0_5_41
// 115   ----------------------------------------
        BYTE   PATT
         POIN2  Truth0_5_42
// 116   ----------------------------------------
        BYTE   PATT
         POIN2  Truth0_5_43
// 117   ----------------------------------------
        BYTE   PATT
         POIN2  Truth0_5_44
// 118   ----------------------------------------
        BYTE   PATT
         POIN2  Truth0_5_45
// 119   ----------------------------------------
        BYTE   PATT
         POIN2  Truth0_5_46
// 120   ----------------------------------------
        BYTE   PATT
         POIN2  Truth0_5_47
// 121   ----------------------------------------
        BYTE   PATT
         POIN2  Truth0_5_48
// 122   ----------------------------------------
        BYTE   PATT
         POIN2  Truth0_5_49
// 123   ----------------------------------------
        BYTE   PATT
         POIN2  Truth0_5_50
// 124   ----------------------------------------
        BYTE   PATT
         POIN2  Truth0_5_51
// 125   ----------------------------------------
        BYTE   PATT
         POIN2  Truth0_5_52
// 126   ----------------------------------------
        BYTE   PATT
         POIN2  Truth0_5_52
// 127   ----------------------------------------
        BYTE   PATT
         POIN2  Truth0_5_54
// 128   ----------------------------------------
        BYTE   PATT
         POIN2  Truth0_5_55
// 129   ----------------------------------------
        BYTE   PATT
         POIN2  Truth0_5_48
// 130   ----------------------------------------
        BYTE   PATT
         POIN2  Truth0_5_49
// 131   ----------------------------------------
        BYTE   PATT
         POIN2  Truth0_5_50
// 132   ----------------------------------------
        BYTE   PATT
         POIN2  Truth0_5_51
// 133   ----------------------------------------
        BYTE   PATT
         POIN2  Truth0_5_52
// 134   ----------------------------------------
        BYTE   PATT
         POIN2  Truth0_5_52
// 135   ----------------------------------------
        BYTE   PATT
         POIN2  Truth0_5_54
// 136   ----------------------------------------
        BYTE           N32     Dn2   v088   gtp2
        BYTE   W36
        BYTE                   En2
        BYTE   W36
        BYTE           N10     Cn2
        BYTE   W12
        BYTE                   Dn2
        BYTE   GoTo
         POIN2  Truth0_5_LOOP
        BYTE   W12
// 137   ----------------------------------------
        BYTE   PATT
         POIN2  Truth0_5_48
// 138   ----------------------------------------
        BYTE   PATT
         POIN2  Truth0_5_49
// 139   ----------------------------------------
        BYTE   PATT
         POIN2  Truth0_5_50
// 140   ----------------------------------------
        BYTE   PATT
         POIN2  Truth0_5_51
// 141   ----------------------------------------
        BYTE   PATT
         POIN2  Truth0_5_52
// 142   ----------------------------------------
        BYTE   PATT
         POIN2  Truth0_5_52
// 143   ----------------------------------------
        BYTE   PATT
         POIN2  Truth0_5_54
// 144   ----------------------------------------
        BYTE   PATT
         POIN2  Truth0_5_55
// 145   ----------------------------------------
        BYTE   PATT
         POIN2  Truth0_5_48
// 146   ----------------------------------------
        BYTE   PATT
         POIN2  Truth0_5_49
// 147   ----------------------------------------
        BYTE   PATT
         POIN2  Truth0_5_50
// 148   ----------------------------------------
Truth0_5_148:
        BYTE           N10     Cn2   v088
        BYTE   W12
        BYTE                   Cn2
        BYTE   W12
        BYTE                   Cn2
        BYTE   W12
        BYTE                   Cn2
        BYTE   W12
        BYTE                   Dn2
        BYTE   W12
        BYTE                   Cn2
        BYTE   W12
        BYTE                   As1
        BYTE   W12
        BYTE                   An1
        BYTE   W10
        BYTE           N01     Gn1
        BYTE   W02
        BYTE   PEND
// 149   ----------------------------------------
        BYTE   PATT
         POIN2  Truth0_5_52
// 150   ----------------------------------------
        BYTE   PATT
         POIN2  Truth0_5_52
// 151   ----------------------------------------
        BYTE   PATT
         POIN2  Truth0_5_54
// 152   ----------------------------------------
        BYTE   PATT
         POIN2  Truth0_5_55
// 153   ----------------------------------------
        BYTE   PATT
         POIN2  Truth0_5_48
// 154   ----------------------------------------
        BYTE   PATT
         POIN2  Truth0_5_49
// 155   ----------------------------------------
        BYTE   PATT
         POIN2  Truth0_5_50
// 156   ----------------------------------------
        BYTE   PATT
         POIN2  Truth0_5_148
// 157   ----------------------------------------
        BYTE   FINE

//****************** Track 6 (Midi-Chn.7) ******************//

Truth0_6:
        BYTE   KEYSH   Truth0_key+0
// 000   ----------------------------------------
        BYTE           VOICE   61
        BYTE           VOL     39
        BYTE   W96
// 001   ----------------------------------------
        BYTE   W96
// 002   ----------------------------------------
        BYTE   W96
// 003   ----------------------------------------
        BYTE   W96
// 004   ----------------------------------------
        BYTE   W96
// 005   ----------------------------------------
        BYTE   W96
// 006   ----------------------------------------
        BYTE   W96
// 007   ----------------------------------------
        BYTE   W96
// 008   ----------------------------------------
        BYTE   W96
// 009   ----------------------------------------
        BYTE   W96
// 010   ----------------------------------------
        BYTE   W96
// 011   ----------------------------------------
        BYTE   W96
// 012   ----------------------------------------
        BYTE   W96
// 013   ----------------------------------------
        BYTE   W96
// 014   ----------------------------------------
        BYTE   W96
// 015   ----------------------------------------
        BYTE   W96
// 016   ----------------------------------------
        BYTE   W96
// 017   ----------------------------------------
        BYTE   W96
// 018   ----------------------------------------
        BYTE   W96
// 019   ----------------------------------------
        BYTE   W96
// 020   ----------------------------------------
Truth0_6_20:
        BYTE   W12
        BYTE           N10     En3   v088
        BYTE   W12
        BYTE                   Fn3
        BYTE   W12
        BYTE           TIE     Cn4
        BYTE   W60
        BYTE   PEND
// 021   ----------------------------------------
        BYTE   W92
        BYTE   W02
        BYTE           EOT
        BYTE   W02
// 022   ----------------------------------------
Truth0_6_22:
        BYTE   W12
        BYTE           N10     Cn3   v088
        BYTE   W12
        BYTE                   Dn3
        BYTE   W12
        BYTE           TIE     An3
        BYTE   W60
        BYTE   PEND
// 023   ----------------------------------------
        BYTE   W92
        BYTE   W02
        BYTE           EOT
        BYTE   W02
// 024   ----------------------------------------
Truth0_6_24:
        BYTE   W12
        BYTE           N10     An2   v088
        BYTE   W12
        BYTE                   As2
        BYTE   W12
        BYTE           TIE     Fn3
        BYTE   W60
        BYTE   PEND
// 025   ----------------------------------------
        BYTE   W92
        BYTE   W02
        BYTE           EOT
        BYTE   W02
// 026   ----------------------------------------
Truth0_6_26:
        BYTE   W12
        BYTE           N10     Fn3   v088
        BYTE   W12
        BYTE                   Gn3
        BYTE   W12
        BYTE           N56     Cn4   v088   gtp2
        BYTE   W60
        BYTE   PEND
// 027   ----------------------------------------
        BYTE   W96
// 028   ----------------------------------------
        BYTE   PATT
         POIN2  Truth0_6_20
// 029   ----------------------------------------
        BYTE   W92
        BYTE   W02
        BYTE           EOT     Cn4
        BYTE   W02
// 030   ----------------------------------------
        BYTE   PATT
         POIN2  Truth0_6_22
// 031   ----------------------------------------
        BYTE   W92
        BYTE   W02
        BYTE           EOT     An3
        BYTE   W02
// 032   ----------------------------------------
        BYTE   PATT
         POIN2  Truth0_6_24
// 033   ----------------------------------------
        BYTE   W92
        BYTE   W02
        BYTE           EOT     Fn3
        BYTE   W02
// 034   ----------------------------------------
        BYTE   W12
        BYTE           N10     Gn3   v088
        BYTE   W12
        BYTE                   An3
        BYTE   W12
        BYTE           N56     Cn4   v088   gtp2
        BYTE   W60
// 035   ----------------------------------------
        BYTE           N22     Cn2
        BYTE           N22     Gn2
        BYTE           N22     Cn3
        BYTE   W36
        BYTE           N32     Cn2   v088   gtp2
        BYTE                   Gn2
        BYTE           N32     Cn3   v088   gtp2
        BYTE   W60
// 036   ----------------------------------------
Truth0_6_36:
        BYTE           N48     Gn2   v088   gtp1
        BYTE                   Fn3
        BYTE           N48     As3   v088   gtp2
        BYTE           N48     Dn3
        BYTE   W60
        BYTE           N10     Gn2
        BYTE           N08     Fn3
        BYTE           N07     Dn3
        BYTE           N09     As3
        BYTE   W24
        BYTE           N36     Gn2   v088   gtp2
        BYTE           N36     Dn3   v088   gtp1
        BYTE                   Fn3
        BYTE           N30     Cn4   v088   gtp1
        BYTE   W12
        BYTE   PEND
// 037   ----------------------------------------
Truth0_6_37:
        BYTE   W36
        BYTE           N48     Gn2   v088
        BYTE           N52     As3   v088   gtp1
        BYTE           N48     Fn3   v088   gtp1
        BYTE           N48     Dn3   v088   gtp2
        BYTE   W60
        BYTE   PEND
// 038   ----------------------------------------
Truth0_6_38:
        BYTE           N24     Fn2   v088   gtp3
        BYTE           N24     Cn3   v088   gtp1
        BYTE           N24     Fn3   v088   gtp2
        BYTE           N28     As3
        BYTE   W36
        BYTE           N24     Fn3   v088   gtp3
        BYTE                   Fn2
        BYTE           N28     Cn3   v088   gtp1
        BYTE           N28     An3
        BYTE   W36
        BYTE           N06     Fn2
        BYTE           N05     En3
        BYTE           N06     Gn3
        BYTE           N07     Cn3
        BYTE   W12
        BYTE           N30     Fn2   v088   gtp1
        BYTE           N28     Fn3
        BYTE           N28     An3   v088   gtp1
        BYTE           N28     Cn3
        BYTE   W12
        BYTE   PEND
// 039   ----------------------------------------
        BYTE   W24
        BYTE           N05     En3
        BYTE           N05     Cn3
        BYTE           N05     Fn2
        BYTE           N06     Gn3
        BYTE   W12
        BYTE           N32     Cn3   v088   gtp3
        BYTE           N32     Fn2   v088   gtp1
        BYTE           N36     Fn3   v088   gtp1
        BYTE                   An3
        BYTE   W60
// 040   ----------------------------------------
Truth0_6_40:
        BYTE           N48     As2   v088
        BYTE           N44     Dn3   v088   gtp3
        BYTE           N48     As3   v088   gtp3
        BYTE           N44     Fn3   v088   gtp1
        BYTE   W60
        BYTE           N11     Dn3
        BYTE           N12     Fn3
        BYTE           N09     An3
        BYTE           N10     As2
        BYTE   W24
        BYTE           N32     As2   v088   gtp1
        BYTE           N36     An3   v088   gtp1
        BYTE                   Fn3
        BYTE           N36     Dn3   v088   gtp1
        BYTE   W12
        BYTE   PEND
// 041   ----------------------------------------
Truth0_6_41:
        BYTE   W36
        BYTE           N48     Gn3   v088   gtp2
        BYTE           N54     Cn2   v088   gtp1
        BYTE           N40     Fn2   v088   gtp1
        BYTE           N52     As2
        BYTE           N36     Dn3
        BYTE   W60
        BYTE   PEND
// 042   ----------------------------------------
Truth0_6_42:
        BYTE           N24     Fn2   v088   gtp2
        BYTE           N24     Cn3   v088   gtp3
        BYTE           N24     An3   v088   gtp2
        BYTE                   Fn3
        BYTE   W36
        BYTE           N10     En3
        BYTE           N12     Gn3
        BYTE           N12     Cn2
        BYTE           N11     Gn2
        BYTE           N13     Cn3
        BYTE   W24
        BYTE           N11     Fn3
        BYTE           N12     Cn2
        BYTE           N12     Fn2
        BYTE           N13     As2
        BYTE           N09     Dn3
        BYTE   W24
        BYTE           N60     Gn3
        BYTE           N56     Cn3   v088   gtp3
        BYTE           N60     En3
        BYTE           N60     Cn2   v088   gtp1
        BYTE           N60     Gn2
        BYTE   W12
        BYTE   PEND
// 043   ----------------------------------------
        BYTE   W60
        BYTE           N11     As1
        BYTE   W24
        BYTE           N56     Cn2   v088   gtp3
        BYTE   W12
// 044   ----------------------------------------
Truth0_6_44:
        BYTE   W60
        BYTE           N13     Dn2   v088
        BYTE   W24
        BYTE           N60     En2
        BYTE   W12
        BYTE   PEND
// 045   ----------------------------------------
Truth0_6_45:
        BYTE   W60
        BYTE           N12     Fn2   v088
        BYTE   W24
        BYTE           N32     Gn2   v088   gtp3
        BYTE   W12
        BYTE   PEND
// 046   ----------------------------------------
Truth0_6_46:
        BYTE   W36
        BYTE           N32     Gs2   v088   gtp3
        BYTE   W48
        BYTE           N80     An2
        BYTE   W12
        BYTE   PEND
// 047   ----------------------------------------
Truth0_6_47:
        BYTE   W84
        BYTE           N09     An3   v088
        BYTE   W12
        BYTE   PEND
// 048   ----------------------------------------
Truth0_6_48:
        BYTE           N23     Dn4   v088
        BYTE   W24
        BYTE           N10     An3
        BYTE   W12
        BYTE           N22     En4
        BYTE   W24
        BYTE                   An3
        BYTE   W24
        BYTE                   Fn4
        BYTE   W12
        BYTE   PEND
// 049   ----------------------------------------
Truth0_6_49:
        BYTE   W12
        BYTE           N22     An3   v088
        BYTE   W24
        BYTE                   Gn4
        BYTE   W24
        BYTE           N10     Fn4
        BYTE   W12
        BYTE                   En4
        BYTE   W12
        BYTE                   Dn4
        BYTE   W12
        BYTE   PEND
// 050   ----------------------------------------
Truth0_6_50:
        BYTE           N22     Cn4   v088
        BYTE   W24
        BYTE           N10     Gn3
        BYTE   W12
        BYTE           N22     Dn4
        BYTE   W24
        BYTE                   Gn3
        BYTE   W24
        BYTE                   En4
        BYTE   W12
        BYTE   PEND
// 051   ----------------------------------------
Truth0_6_51:
        BYTE   W12
        BYTE           N22     Gn3   v088
        BYTE   W24
        BYTE                   Fn4
        BYTE   W24
        BYTE           N10     En4
        BYTE   W12
        BYTE                   Dn4
        BYTE   W12
        BYTE                   Cn4
        BYTE   W12
        BYTE   PEND
// 052   ----------------------------------------
Truth0_6_52:
        BYTE           N22     As3   v088
        BYTE   W24
        BYTE           N10     Fn3
        BYTE   W12
        BYTE           N22     Cn4
        BYTE   W24
        BYTE                   Fn3
        BYTE   W24
        BYTE                   Dn4
        BYTE   W12
        BYTE   PEND
// 053   ----------------------------------------
Truth0_6_53:
        BYTE   W12
        BYTE           N22     Fn3   v088
        BYTE   W24
        BYTE                   En4
        BYTE   W24
        BYTE           N10     Dn4
        BYTE   W12
        BYTE                   Cn4
        BYTE   W12
        BYTE                   As3
        BYTE   W12
        BYTE   PEND
// 054   ----------------------------------------
Truth0_6_54:
        BYTE           N44     An3   v088   gtp2
        BYTE   W60
        BYTE           N10     As3
        BYTE   W12
        BYTE                   An3
        BYTE   W12
        BYTE                   Gn3
        BYTE   W12
        BYTE   PEND
// 055   ----------------------------------------
Truth0_6_55:
        BYTE           N10     Fn3   v088
        BYTE   W12
        BYTE                   Gn3
        BYTE   W12
        BYTE                   An3
        BYTE   W12
        BYTE           N22     As3
        BYTE   W24
        BYTE           N10     Gn3
        BYTE   W12
        BYTE                   Cn4
        BYTE   W24
        BYTE   PEND
// 056   ----------------------------------------
        BYTE   PATT
         POIN2  Truth0_6_48
// 057   ----------------------------------------
        BYTE   PATT
         POIN2  Truth0_6_49
// 058   ----------------------------------------
        BYTE   PATT
         POIN2  Truth0_6_50
// 059   ----------------------------------------
        BYTE   PATT
         POIN2  Truth0_6_51
// 060   ----------------------------------------
        BYTE   PATT
         POIN2  Truth0_6_52
// 061   ----------------------------------------
        BYTE   PATT
         POIN2  Truth0_6_53
// 062   ----------------------------------------
        BYTE   PATT
         POIN2  Truth0_6_54
// 063   ----------------------------------------
        BYTE           N10     Fn3   v088
        BYTE   W12
        BYTE                   Gn3
        BYTE   W12
        BYTE                   An3
        BYTE   W12
        BYTE           N22     As3
        BYTE   W24
        BYTE           N10     Gn3
        BYTE   W12
        BYTE                   Cn4
        BYTE   W12
Truth0_6_LOOP:
        BYTE           N10     Dn4   v088
        BYTE   W12
// 064   ----------------------------------------
        BYTE   W96
// 065   ----------------------------------------
        BYTE   PATT
         POIN2  Truth0_3_1
// 066   ----------------------------------------
        BYTE   PATT
         POIN2  Truth0_3_2
// 067   ----------------------------------------
        BYTE   PATT
         POIN2  Truth0_3_3
// 068   ----------------------------------------
        BYTE   PATT
         POIN2  Truth0_3_4
// 069   ----------------------------------------
        BYTE   PATT
         POIN2  Truth0_3_5
// 070   ----------------------------------------
        BYTE   PATT
         POIN2  Truth0_3_6
// 071   ----------------------------------------
        BYTE   PATT
         POIN2  Truth0_3_7
// 072   ----------------------------------------
        BYTE   PATT
         POIN2  Truth0_3_2
// 073   ----------------------------------------
        BYTE           N10     Cn3   v088
        BYTE   W12
        BYTE                   Gn2
        BYTE   W12
        BYTE                   As2
        BYTE   W12
        BYTE                   Gn2
        BYTE   W12
        BYTE                   An2
        BYTE   W12
        BYTE                   Dn2
        BYTE   W12
        BYTE                   As1
        BYTE           N10     Fn2
        BYTE           N10     As2
        BYTE   W12
        BYTE           N80     Cn2   v088   gtp2
        BYTE                   Gn2
        BYTE           N80     Cn3   v088   gtp2
        BYTE   W12
// 074   ----------------------------------------
        BYTE   W72
        BYTE           N10     As1
        BYTE           N10     Fn2
        BYTE           N10     As2
        BYTE   W12
        BYTE           N32     Cn2   v088   gtp2
        BYTE                   Gn2
        BYTE           N32     Cn3   v088   gtp2
        BYTE   W12
// 075   ----------------------------------------
        BYTE   W24
        BYTE           N10     As1
        BYTE           N10     Fn2
        BYTE           N10     As2
        BYTE   W12
        BYTE           N32     Cn2   v088   gtp2
        BYTE                   Gn2
        BYTE           N32     Cn3   v088   gtp2
        BYTE   W36
        BYTE           N10     Cn2
        BYTE           N10     Gn2
        BYTE           N10     Cn3
        BYTE   W12
        BYTE           N12     Dn2
        BYTE           N12     An2
        BYTE           N12     Dn3
        BYTE   W12
// 076   ----------------------------------------
        BYTE   W96
// 077   ----------------------------------------
        BYTE   W96
// 078   ----------------------------------------
        BYTE   W96
// 079   ----------------------------------------
        BYTE   W96
// 080   ----------------------------------------
        BYTE   W96
// 081   ----------------------------------------
        BYTE   W96
// 082   ----------------------------------------
        BYTE   W96
// 083   ----------------------------------------
        BYTE   W96
// 084   ----------------------------------------
        BYTE   W96
// 085   ----------------------------------------
        BYTE   W96
// 086   ----------------------------------------
        BYTE   W96
// 087   ----------------------------------------
        BYTE   W96
// 088   ----------------------------------------
        BYTE   W96
// 089   ----------------------------------------
        BYTE   W96
// 090   ----------------------------------------
        BYTE   W96
// 091   ----------------------------------------
        BYTE   W96
// 092   ----------------------------------------
        BYTE   W96
// 093   ----------------------------------------
        BYTE   W96
// 094   ----------------------------------------
        BYTE   W96
// 095   ----------------------------------------
        BYTE   PATT
         POIN2  Truth0_6_22
// 096   ----------------------------------------
        BYTE   W92
        BYTE   W02
        BYTE           EOT     An3
        BYTE   W02
// 097   ----------------------------------------
        BYTE   PATT
         POIN2  Truth0_6_24
// 098   ----------------------------------------
        BYTE   W92
        BYTE   W02
        BYTE           EOT     Fn3
        BYTE   W02
// 099   ----------------------------------------
        BYTE   PATT
         POIN2  Truth0_6_26
// 100   ----------------------------------------
        BYTE   PATT
         POIN2  Truth0_3_27
// 101   ----------------------------------------
        BYTE   W96
// 102   ----------------------------------------
        BYTE   W96
// 103   ----------------------------------------
        BYTE   PATT
         POIN2  Truth0_6_22
// 104   ----------------------------------------
        BYTE   W92
        BYTE   W02
        BYTE           EOT     An3
        BYTE   W02
// 105   ----------------------------------------
        BYTE   PATT
         POIN2  Truth0_6_24
// 106   ----------------------------------------
        BYTE   W92
        BYTE   W02
        BYTE           EOT     Fn3
        BYTE   W02
// 107   ----------------------------------------
        BYTE   W12
        BYTE           N10     Fn3   v088
        BYTE   W12
        BYTE                   Gn3
        BYTE   W12
        BYTE           TIE     Cn4
        BYTE   W60
// 108   ----------------------------------------
        BYTE   W76
        BYTE   W01
        BYTE           EOT
        BYTE   W19
// 109   ----------------------------------------
        BYTE   PATT
         POIN2  Truth0_6_36
// 110   ----------------------------------------
        BYTE   PATT
         POIN2  Truth0_6_37
// 111   ----------------------------------------
        BYTE   PATT
         POIN2  Truth0_6_38
// 112   ----------------------------------------
        BYTE   W24
        BYTE           N05     En3   v088
        BYTE           N04     Cn3
        BYTE           N05     Fn2
        BYTE           N05     Gn3
        BYTE   W12
        BYTE           N32     Cn3   v088   gtp3
        BYTE           N32     Fn2   v088   gtp1
        BYTE           N36     Fn3   v088   gtp1
        BYTE                   An3
        BYTE   W60
// 113   ----------------------------------------
        BYTE   PATT
         POIN2  Truth0_6_40
// 114   ----------------------------------------
        BYTE   PATT
         POIN2  Truth0_6_41
// 115   ----------------------------------------
        BYTE   PATT
         POIN2  Truth0_6_42
// 116   ----------------------------------------
        BYTE   W60
        BYTE           N12     As1   v088
        BYTE   W24
        BYTE           N56     Cn2   v088   gtp3
        BYTE   W12
// 117   ----------------------------------------
        BYTE   PATT
         POIN2  Truth0_6_44
// 118   ----------------------------------------
        BYTE   PATT
         POIN2  Truth0_6_45
// 119   ----------------------------------------
        BYTE   PATT
         POIN2  Truth0_6_46
// 120   ----------------------------------------
        BYTE   PATT
         POIN2  Truth0_6_47
// 121   ----------------------------------------
        BYTE   PATT
         POIN2  Truth0_6_48
// 122   ----------------------------------------
        BYTE   PATT
         POIN2  Truth0_6_49
// 123   ----------------------------------------
        BYTE   PATT
         POIN2  Truth0_6_50
// 124   ----------------------------------------
        BYTE   PATT
         POIN2  Truth0_6_51
// 125   ----------------------------------------
        BYTE   PATT
         POIN2  Truth0_6_52
// 126   ----------------------------------------
        BYTE   PATT
         POIN2  Truth0_6_53
// 127   ----------------------------------------
        BYTE   PATT
         POIN2  Truth0_6_54
// 128   ----------------------------------------
        BYTE   PATT
         POIN2  Truth0_6_55
// 129   ----------------------------------------
        BYTE   PATT
         POIN2  Truth0_6_48
// 130   ----------------------------------------
        BYTE   PATT
         POIN2  Truth0_6_49
// 131   ----------------------------------------
        BYTE   PATT
         POIN2  Truth0_6_50
// 132   ----------------------------------------
        BYTE   PATT
         POIN2  Truth0_6_51
// 133   ----------------------------------------
        BYTE   PATT
         POIN2  Truth0_6_52
// 134   ----------------------------------------
        BYTE   PATT
         POIN2  Truth0_6_53
// 135   ----------------------------------------
        BYTE   PATT
         POIN2  Truth0_6_54
// 136   ----------------------------------------
        BYTE           N10     Fn3   v088
        BYTE   W12
        BYTE                   Gn3
        BYTE   W12
        BYTE                   An3
        BYTE   W12
        BYTE           N22     As3
        BYTE   W24
        BYTE           N10     Gn3
        BYTE   W12
        BYTE                   Cn4
        BYTE   W12
        BYTE                   Dn4
        BYTE   GoTo
         POIN2  Truth0_6_LOOP
        BYTE   W12
// 137   ----------------------------------------
        BYTE   W96
// 138   ----------------------------------------
        BYTE   W96
// 139   ----------------------------------------
        BYTE   W96
// 140   ----------------------------------------
        BYTE   W96
// 141   ----------------------------------------
        BYTE   W96
// 142   ----------------------------------------
        BYTE   W96
// 143   ----------------------------------------
        BYTE   W96
// 144   ----------------------------------------
        BYTE   W96
// 145   ----------------------------------------
        BYTE   W96
// 146   ----------------------------------------
        BYTE   W96
// 147   ----------------------------------------
        BYTE   W96
// 148   ----------------------------------------
        BYTE   W96
// 149   ----------------------------------------
        BYTE   W96
// 150   ----------------------------------------
        BYTE   W96
// 151   ----------------------------------------
        BYTE   W96
// 152   ----------------------------------------
        BYTE   W96
// 153   ----------------------------------------
        BYTE   W96
// 154   ----------------------------------------
        BYTE   W96
// 155   ----------------------------------------
        BYTE   W96
// 156   ----------------------------------------
        BYTE   W96
// 157   ----------------------------------------
        BYTE   FINE


//********************** End of Song ***********************//

        ALIGN  2
Truth0:
        BYTE   7                       // Num Tracks
        BYTE   0                       // Unknown
        BYTE   Truth0_pri              // Priority
        BYTE   Truth0_rev              // Reverb

        POIN2   Truth0_grp             

        POIN2   Truth0_0
        POIN2   Truth0_1
        POIN2   Truth0_2
        POIN2   Truth0_3
        POIN2   Truth0_4
        POIN2   Truth0_5
        POIN2   Truth0_6

        
