//Event file generated from Sappy .s format.
	#include "MPlayDef.event"

	#define	Vanishing_Trooper0000_grp  voicegroup000
	#define	Vanishing_Trooper0000_pri  0
	#define	Vanishing_Trooper0000_rev  0
	#define	Vanishing_Trooper0000_mvl  127
	#define	Vanishing_Trooper0000_key  0
	#define	Vanishing_Trooper0000_tbs  1
	#define	Vanishing_Trooper0000_exg  0
	#define	Vanishing_Trooper0000_cmp  1

	// .rodata
	//	Vanishing_Trooper0000
	ALIGN 4

//**************** Track 1 (Midi-Chn.1) ****************//

Vanishing_Trooper0000_1:
	BYTE	KEYSH   Vanishing_Trooper0000_key+0
// 000   ----------------------------------------
	BYTE	TEMPO   250*Vanishing_Trooper0000_tbs/2
	BYTE		VOICE   122
	BYTE	W01
	BYTE		VOL     41*Vanishing_Trooper0000_mvl/mxv
	BYTE		PAN     c_v+0
	BYTE	W01
	BYTE		BEND    c_v+0
	BYTE	W16
	BYTE	TEMPO   182*Vanishing_Trooper0000_tbs/2
	BYTE	W06
// 001   ----------------------------------------
	BYTE		N11     Cn1   v092
	BYTE		N17     Ds1   v084
	BYTE		N06     Gs1   v064
	BYTE	W12
	BYTE		N17     Dn1   v072
	BYTE	W12
// 002   ----------------------------------------
Vanishing_Trooper0000_1_002:
	BYTE		N11     Cn1   v092
	BYTE		N06     Gs1   v064
	BYTE		N11     An2   v084
	BYTE	W24
	BYTE	PEND
// 003   ----------------------------------------
Vanishing_Trooper0000_1_003:
	BYTE		N11     Cn1   v092
	BYTE		N17     Dn1   v084
	BYTE		N06     Gs1   v064
	BYTE	W12
	BYTE		N17     Ds1   v072
	BYTE	W12
	BYTE	PEND
// 004   ----------------------------------------
	BYTE	PATT
	 POIN2	Vanishing_Trooper0000_1_002
// 005   ----------------------------------------
	BYTE	PATT
	 POIN2	Vanishing_Trooper0000_1_003
// 006   ----------------------------------------
	BYTE		N11     Cn1   v092
	BYTE		N06     Gs1   v064
	BYTE		N11     An2   v084
	BYTE	W12
	BYTE		N17     Dn1 
	BYTE	W12
// 007   ----------------------------------------
	BYTE		N11     Cn1   v092
	BYTE		N06     Gs1   v064
	BYTE	W12
	BYTE		N17     Dn1   v068
	BYTE	W12
// 008   ----------------------------------------
	BYTE		N11     Ds1   v084
	BYTE		N06     Gs1   v064
	BYTE	W06
	BYTE		N11     Cs1   v068
	BYTE	W06
	BYTE		N12     Bn1   v064
	BYTE	W12
// 009   ----------------------------------------
	BYTE		N11     Cn1   v092
	BYTE		N17     Dn1   v084
	BYTE		N06     Gs1   v064
	BYTE		N11     An2   v084
	BYTE	W12
	BYTE		N17     Ds1   v072
	BYTE	W12
// 010   ----------------------------------------
	BYTE	PATT
	 POIN2	Vanishing_Trooper0000_1_002
// 011   ----------------------------------------
	BYTE	PATT
	 POIN2	Vanishing_Trooper0000_1_003
// 012   ----------------------------------------
	BYTE	PATT
	 POIN2	Vanishing_Trooper0000_1_002
// 013   ----------------------------------------
	BYTE	PATT
	 POIN2	Vanishing_Trooper0000_1_003
// 014   ----------------------------------------
	BYTE	PATT
	 POIN2	Vanishing_Trooper0000_1_002
// 015   ----------------------------------------
	BYTE		N11     Cn1   v092
	BYTE	W24
// 016   ----------------------------------------
	BYTE		N11   
	BYTE	W24
// 017   ----------------------------------------
	BYTE		N09     Cn1   v088
	BYTE		N12     An2 
	BYTE	W12
	BYTE		N09     Cn1   v060
	BYTE	W12
// 018   ----------------------------------------
Vanishing_Trooper0000_1_018:
	BYTE		N09     Cn1   v088
	BYTE		N17     Dn1   v084
	BYTE		N17     As1   v056
	BYTE	W12
	BYTE		N09     Cn1   v060
	BYTE		N17     Bn1   v044
	BYTE	W12
	BYTE	PEND
// 019   ----------------------------------------
Vanishing_Trooper0000_1_019:
	BYTE		N09     Cn1   v088
	BYTE		N17     As1   v056
	BYTE	W12
	BYTE		N09     Cn1   v060
	BYTE		N17     Bn1   v044
	BYTE	W12
	BYTE	PEND
// 020   ----------------------------------------
	BYTE	PATT
	 POIN2	Vanishing_Trooper0000_1_018
// 021   ----------------------------------------
	BYTE	PATT
	 POIN2	Vanishing_Trooper0000_1_019
// 022   ----------------------------------------
	BYTE	PATT
	 POIN2	Vanishing_Trooper0000_1_018
// 023   ----------------------------------------
	BYTE	PATT
	 POIN2	Vanishing_Trooper0000_1_019
// 024   ----------------------------------------
	BYTE	PATT
	 POIN2	Vanishing_Trooper0000_1_018
// 025   ----------------------------------------
	BYTE	PATT
	 POIN2	Vanishing_Trooper0000_1_019
// 026   ----------------------------------------
	BYTE	PATT
	 POIN2	Vanishing_Trooper0000_1_018
// 027   ----------------------------------------
	BYTE	PATT
	 POIN2	Vanishing_Trooper0000_1_019
// 028   ----------------------------------------
	BYTE	PATT
	 POIN2	Vanishing_Trooper0000_1_018
// 029   ----------------------------------------
	BYTE	PATT
	 POIN2	Vanishing_Trooper0000_1_019
// 030   ----------------------------------------
	BYTE	PATT
	 POIN2	Vanishing_Trooper0000_1_018
// 031   ----------------------------------------
	BYTE	PATT
	 POIN2	Vanishing_Trooper0000_1_019
// 032   ----------------------------------------
	BYTE		N09     Cn1   v088
	BYTE		N17     Dn1   v084
	BYTE		N17     As1   v056
	BYTE	W12
	BYTE		N09     Cn1   v060
	BYTE		N17     Bn1   v044
	BYTE	W11
	BYTE		N12     An2   v080
	BYTE	W01
// 033   ----------------------------------------
Vanishing_Trooper0000_1_033:
	BYTE		N09     Cn1   v088
	BYTE	W12
	BYTE		        Cn1   v060
	BYTE	W12
	BYTE	PEND
// 034   ----------------------------------------
	BYTE	PATT
	 POIN2	Vanishing_Trooper0000_1_018
// 035   ----------------------------------------
Vanishing_Trooper0000_1_035:
	BYTE		N09     Cn1   v088
	BYTE		N17     Ds1   v084
	BYTE		N17     As1   v056
	BYTE	W12
	BYTE		N09     Cn1   v060
	BYTE		N17     Bn1   v044
	BYTE	W12
	BYTE	PEND
// 036   ----------------------------------------
	BYTE	PATT
	 POIN2	Vanishing_Trooper0000_1_018
// 037   ----------------------------------------
	BYTE	PATT
	 POIN2	Vanishing_Trooper0000_1_035
// 038   ----------------------------------------
	BYTE	PATT
	 POIN2	Vanishing_Trooper0000_1_018
// 039   ----------------------------------------
	BYTE	PATT
	 POIN2	Vanishing_Trooper0000_1_035
// 040   ----------------------------------------
	BYTE		N09     Cn1   v088
	BYTE		N17     Dn1   v084
	BYTE		N17     As1   v056
	BYTE	W12
	BYTE		N09     Cn1   v060
	BYTE		N11     Bn1   v044
	BYTE	W11
	BYTE		N12     An2   v080
	BYTE	W01
// 041   ----------------------------------------
	BYTE	PATT
	 POIN2	Vanishing_Trooper0000_1_033
// 042   ----------------------------------------
	BYTE	PATT
	 POIN2	Vanishing_Trooper0000_1_033
// 043   ----------------------------------------
	BYTE	PATT
	 POIN2	Vanishing_Trooper0000_1_033
// 044   ----------------------------------------
	BYTE		N09     Cn1   v088
	BYTE		N09     Cs1   v072
	BYTE	W06
	BYTE		        Dn1 
	BYTE	W06
	BYTE		        Cn1   v060
	BYTE		N09     Ds1   v072
	BYTE	W06
	BYTE		N17     Cs1   v084
	BYTE	W05
	BYTE		N12     An2   v080
	BYTE	W01
// 045   ----------------------------------------
	BYTE	W24
// 046   ----------------------------------------
	BYTE	PATT
	 POIN2	Vanishing_Trooper0000_1_033
// 047   ----------------------------------------
	BYTE		N09     Cn1   v088
	BYTE	W12
	BYTE		        Cn1   v060
	BYTE	W11
	BYTE		N03     Dn1   v084
	BYTE		N12     An2   v080
	BYTE	W01
// 048   ----------------------------------------
	BYTE		N09     Cn1   v088
	BYTE		N17     Ds1   v084
	BYTE	W23
	BYTE		N12     An2   v080
	BYTE	W01
Vanishing_Trooper0000_1_B1:
// 049   ----------------------------------------
Vanishing_Trooper0000_1_049:
	BYTE		N09     Cn1   v088
	BYTE		N05     Gs1   v056
	BYTE	W24
	BYTE	PEND
// 050   ----------------------------------------
	BYTE		N05   
	BYTE	W24
// 051   ----------------------------------------
	BYTE		N05   
	BYTE	W24
// 052   ----------------------------------------
	BYTE		N05   
	BYTE	W24
// 053   ----------------------------------------
	BYTE		N05   
	BYTE	W24
// 054   ----------------------------------------
	BYTE		N05   
	BYTE		N54     Ds2   v124
	BYTE	W24
// 055   ----------------------------------------
Vanishing_Trooper0000_1_055:
	BYTE		N09     Cn1   v100
	BYTE		N05     Gs1   v056
	BYTE	W12
	BYTE		N09     Cn1   v100
	BYTE	W11
	BYTE		N03     Dn1   v072
	BYTE	W01
	BYTE	PEND
// 056   ----------------------------------------
	BYTE		N17     Ds1 
	BYTE		N23     As1 
	BYTE	W23
	BYTE		N12     An2   v080
	BYTE	W01
// 057   ----------------------------------------
Vanishing_Trooper0000_1_057:
	BYTE		N09     Cn1   v088
	BYTE	W12
	BYTE		N17     Bn1   v044
	BYTE	W12
	BYTE	PEND
// 058   ----------------------------------------
Vanishing_Trooper0000_1_058:
	BYTE		N17     Dn1   v072
	BYTE		N17     As1   v052
	BYTE	W12
	BYTE		        Bn1   v044
	BYTE	W12
	BYTE	PEND
// 059   ----------------------------------------
Vanishing_Trooper0000_1_059:
	BYTE		N09     Cn1   v088
	BYTE		N17     As1   v052
	BYTE	W12
	BYTE		N09     Cn1   v088
	BYTE		N17     Bn1   v044
	BYTE	W12
	BYTE	PEND
// 060   ----------------------------------------
	BYTE	PATT
	 POIN2	Vanishing_Trooper0000_1_058
// 061   ----------------------------------------
Vanishing_Trooper0000_1_061:
	BYTE		N09     Cn1   v088
	BYTE		N17     As1   v052
	BYTE	W12
	BYTE		        Bn1   v044
	BYTE	W12
	BYTE	PEND
// 062   ----------------------------------------
	BYTE	PATT
	 POIN2	Vanishing_Trooper0000_1_058
// 063   ----------------------------------------
	BYTE	PATT
	 POIN2	Vanishing_Trooper0000_1_059
// 064   ----------------------------------------
	BYTE	PATT
	 POIN2	Vanishing_Trooper0000_1_058
// 065   ----------------------------------------
	BYTE	PATT
	 POIN2	Vanishing_Trooper0000_1_061
// 066   ----------------------------------------
	BYTE	PATT
	 POIN2	Vanishing_Trooper0000_1_058
// 067   ----------------------------------------
	BYTE	PATT
	 POIN2	Vanishing_Trooper0000_1_059
// 068   ----------------------------------------
	BYTE	PATT
	 POIN2	Vanishing_Trooper0000_1_058
// 069   ----------------------------------------
	BYTE	PATT
	 POIN2	Vanishing_Trooper0000_1_061
// 070   ----------------------------------------
	BYTE	PATT
	 POIN2	Vanishing_Trooper0000_1_058
// 071   ----------------------------------------
	BYTE	PATT
	 POIN2	Vanishing_Trooper0000_1_059
// 072   ----------------------------------------
	BYTE	PATT
	 POIN2	Vanishing_Trooper0000_1_058
// 073   ----------------------------------------
	BYTE		N09     Cn1   v088
	BYTE		N17     As1   v052
	BYTE	W11
	BYTE		N12     An2   v080
	BYTE	W13
// 074   ----------------------------------------
Vanishing_Trooper0000_1_074:
	BYTE		N17     Dn1   v072
	BYTE	W11
	BYTE		N12     An2   v080
	BYTE	W13
	BYTE	PEND
// 075   ----------------------------------------
	BYTE	PATT
	 POIN2	Vanishing_Trooper0000_1_059
// 076   ----------------------------------------
	BYTE	PATT
	 POIN2	Vanishing_Trooper0000_1_058
// 077   ----------------------------------------
	BYTE	PATT
	 POIN2	Vanishing_Trooper0000_1_061
// 078   ----------------------------------------
	BYTE	PATT
	 POIN2	Vanishing_Trooper0000_1_058
// 079   ----------------------------------------
	BYTE	PATT
	 POIN2	Vanishing_Trooper0000_1_059
// 080   ----------------------------------------
	BYTE	PATT
	 POIN2	Vanishing_Trooper0000_1_058
// 081   ----------------------------------------
	BYTE	PATT
	 POIN2	Vanishing_Trooper0000_1_061
// 082   ----------------------------------------
Vanishing_Trooper0000_1_082:
	BYTE		N17     Cs1   v072
	BYTE		N17     As1   v052
	BYTE	W12
	BYTE		        Bn1   v044
	BYTE	W12
	BYTE	PEND
// 083   ----------------------------------------
	BYTE		N09     Cn1   v088
	BYTE		N17     Dn1   v072
	BYTE		N17     As1   v052
	BYTE	W12
	BYTE		N09     Cn1   v088
	BYTE		N17     Ds1   v072
	BYTE		N17     Bn1   v044
	BYTE	W12
// 084   ----------------------------------------
	BYTE		N05     Gs1   v048
	BYTE	W24
// 085   ----------------------------------------
	BYTE	PATT
	 POIN2	Vanishing_Trooper0000_1_049
// 086   ----------------------------------------
	BYTE		N17     Dn1   v072
	BYTE		N05     Gs1   v056
	BYTE	W24
// 087   ----------------------------------------
	BYTE	PATT
	 POIN2	Vanishing_Trooper0000_1_055
// 088   ----------------------------------------
	BYTE		N17     Ds1   v072
	BYTE		N23     As1   v056
	BYTE	W23
	BYTE		N12     An2   v080
	BYTE	W01
// 089   ----------------------------------------
	BYTE	PATT
	 POIN2	Vanishing_Trooper0000_1_057
// 090   ----------------------------------------
	BYTE	PATT
	 POIN2	Vanishing_Trooper0000_1_058
// 091   ----------------------------------------
	BYTE	PATT
	 POIN2	Vanishing_Trooper0000_1_059
// 092   ----------------------------------------
	BYTE	PATT
	 POIN2	Vanishing_Trooper0000_1_058
// 093   ----------------------------------------
	BYTE	PATT
	 POIN2	Vanishing_Trooper0000_1_061
// 094   ----------------------------------------
	BYTE	PATT
	 POIN2	Vanishing_Trooper0000_1_058
// 095   ----------------------------------------
	BYTE	PATT
	 POIN2	Vanishing_Trooper0000_1_059
// 096   ----------------------------------------
Vanishing_Trooper0000_1_096:
	BYTE		N09     Cs1   v072
	BYTE	W06
	BYTE		        Dn1   v064
	BYTE	W06
	BYTE		        Ds1 
	BYTE	W06
	BYTE		N17     Cs1   v072
	BYTE	W06
	BYTE	PEND
// 097   ----------------------------------------
	BYTE	PATT
	 POIN2	Vanishing_Trooper0000_1_061
// 098   ----------------------------------------
	BYTE	PATT
	 POIN2	Vanishing_Trooper0000_1_058
// 099   ----------------------------------------
	BYTE	PATT
	 POIN2	Vanishing_Trooper0000_1_059
// 100   ----------------------------------------
	BYTE	PATT
	 POIN2	Vanishing_Trooper0000_1_058
// 101   ----------------------------------------
	BYTE		N09     Cn1   v088
	BYTE		N17     As1   v052
	BYTE	W12
	BYTE		N15     Cs1   v064
	BYTE		N17     Bn1   v044
	BYTE	W12
// 102   ----------------------------------------
	BYTE	PATT
	 POIN2	Vanishing_Trooper0000_1_058
// 103   ----------------------------------------
	BYTE		N09     Cn1   v088
	BYTE		N17     Ds1   v072
	BYTE		N17     As1   v052
	BYTE	W12
	BYTE		N09     Cn1   v088
	BYTE		N17     Bn1   v044
	BYTE	W12
// 104   ----------------------------------------
	BYTE		N09     Cs1   v072
	BYTE	W06
	BYTE		N17     Dn1   v064
	BYTE	W18
// 105   ----------------------------------------
	BYTE		N09     Cn1   v088
	BYTE		N23     As1   v056
	BYTE	W11
	BYTE		N12     An2   v080
	BYTE	W13
// 106   ----------------------------------------
	BYTE	PATT
	 POIN2	Vanishing_Trooper0000_1_074
// 107   ----------------------------------------
	BYTE	PATT
	 POIN2	Vanishing_Trooper0000_1_059
// 108   ----------------------------------------
	BYTE	PATT
	 POIN2	Vanishing_Trooper0000_1_058
// 109   ----------------------------------------
	BYTE	PATT
	 POIN2	Vanishing_Trooper0000_1_061
// 110   ----------------------------------------
	BYTE	PATT
	 POIN2	Vanishing_Trooper0000_1_058
// 111   ----------------------------------------
	BYTE	PATT
	 POIN2	Vanishing_Trooper0000_1_059
// 112   ----------------------------------------
	BYTE	PATT
	 POIN2	Vanishing_Trooper0000_1_096
// 113   ----------------------------------------
	BYTE	PATT
	 POIN2	Vanishing_Trooper0000_1_061
// 114   ----------------------------------------
	BYTE	PATT
	 POIN2	Vanishing_Trooper0000_1_082
// 115   ----------------------------------------
	BYTE		N09     Cn1   v088
	BYTE		N15     Dn1   v072
	BYTE		N17     As1   v052
	BYTE	W12
	BYTE		N09     Cn1   v088
	BYTE		N17     Ds1   v072
	BYTE		N17     Bn1   v044
	BYTE	W12
// 116   ----------------------------------------
	BYTE		N05     Gs1   v048
	BYTE	W24
// 117   ----------------------------------------
Vanishing_Trooper0000_1_117:
	BYTE		N09     Cn1   v088
	BYTE		N05     Gs1   v048
	BYTE	W24
	BYTE	PEND
// 118   ----------------------------------------
	BYTE		N17     Dn1   v072
	BYTE		N05     Gs1   v048
	BYTE	W24
// 119   ----------------------------------------
	BYTE		N09     Cn1   v088
	BYTE		N05     Gs1   v048
	BYTE	W12
	BYTE		N09     Cn1   v088
	BYTE	W12
// 120   ----------------------------------------
	BYTE		N05     Gs1   v048
	BYTE	W23
	BYTE		N12     An2   v080
	BYTE	W01
// 121   ----------------------------------------
	BYTE		N09     Cn1   v088
	BYTE	W24
// 122   ----------------------------------------
	BYTE	PATT
	 POIN2	Vanishing_Trooper0000_1_058
// 123   ----------------------------------------
	BYTE	PATT
	 POIN2	Vanishing_Trooper0000_1_059
// 124   ----------------------------------------
	BYTE	PATT
	 POIN2	Vanishing_Trooper0000_1_058
// 125   ----------------------------------------
	BYTE	PATT
	 POIN2	Vanishing_Trooper0000_1_061
// 126   ----------------------------------------
	BYTE	PATT
	 POIN2	Vanishing_Trooper0000_1_058
// 127   ----------------------------------------
	BYTE	PATT
	 POIN2	Vanishing_Trooper0000_1_059
// 128   ----------------------------------------
Vanishing_Trooper0000_1_128:
	BYTE		N09     Cn1   v088
	BYTE		N17     Cs1   v072
	BYTE		N17     As1   v052
	BYTE	W12
	BYTE		N09     Cn1   v072
	BYTE		N17     Bn1   v044
	BYTE	W11
	BYTE		N03     Dn1   v072
	BYTE	W01
	BYTE	PEND
// 129   ----------------------------------------
Vanishing_Trooper0000_1_129:
	BYTE		N17     Ds1   v072
	BYTE	W12
	BYTE		N09     Cn1   v088
	BYTE	W12
	BYTE	PEND
// 130   ----------------------------------------
Vanishing_Trooper0000_1_130:
	BYTE		N09     Cn1   v072
	BYTE	W12
	BYTE		N17     Dn1 
	BYTE	W12
	BYTE	PEND
// 131   ----------------------------------------
Vanishing_Trooper0000_1_131:
	BYTE		N09     Cn1   v088
	BYTE	W12
	BYTE		        Cn1   v072
	BYTE	W12
	BYTE	PEND
// 132   ----------------------------------------
Vanishing_Trooper0000_1_132:
	BYTE		N17     Dn1   v072
	BYTE	W12
	BYTE		N09     Cn1   v088
	BYTE	W12
	BYTE	PEND
// 133   ----------------------------------------
	BYTE	PATT
	 POIN2	Vanishing_Trooper0000_1_130
// 134   ----------------------------------------
	BYTE	PATT
	 POIN2	Vanishing_Trooper0000_1_131
// 135   ----------------------------------------
	BYTE		N09     Cn1   v104
	BYTE	W12
	BYTE		        Cn1   v088
	BYTE	W11
	BYTE		N01     Dn1   v072
	BYTE	W01
// 136   ----------------------------------------
	BYTE		N09     Cn1   v088
	BYTE		N16     Dn1   v072
	BYTE		N23     As1   v040
	BYTE	W12
	BYTE		N09     Cn1   v072
	BYTE	W11
	BYTE		N12     An2   v080
	BYTE	W01
// 137   ----------------------------------------
	BYTE		N09     Cn1   v088
	BYTE	W24
// 138   ----------------------------------------
	BYTE	PATT
	 POIN2	Vanishing_Trooper0000_1_058
// 139   ----------------------------------------
	BYTE	PATT
	 POIN2	Vanishing_Trooper0000_1_059
// 140   ----------------------------------------
	BYTE	PATT
	 POIN2	Vanishing_Trooper0000_1_058
// 141   ----------------------------------------
	BYTE	PATT
	 POIN2	Vanishing_Trooper0000_1_061
// 142   ----------------------------------------
	BYTE	PATT
	 POIN2	Vanishing_Trooper0000_1_058
// 143   ----------------------------------------
	BYTE	PATT
	 POIN2	Vanishing_Trooper0000_1_059
// 144   ----------------------------------------
	BYTE		N17     Cs1   v072
	BYTE		N17     As1   v052
	BYTE	W06
	BYTE		N09     Cn1   v072
	BYTE	W06
	BYTE		N17     Bn1   v044
	BYTE	W06
	BYTE		N09     Cn1   v072
	BYTE	W05
	BYTE		N03     Dn1 
	BYTE		N12     An2   v080
	BYTE	W01
// 145   ----------------------------------------
	BYTE	PATT
	 POIN2	Vanishing_Trooper0000_1_129
// 146   ----------------------------------------
Vanishing_Trooper0000_1_146:
	BYTE		N09     Cn1   v072
	BYTE	W11
	BYTE		N12     An2   v080
	BYTE	W01
	BYTE		N17     Dn1   v072
	BYTE	W12
	BYTE	PEND
// 147   ----------------------------------------
Vanishing_Trooper0000_1_147:
	BYTE		N09     Cn1   v088
	BYTE	W12
	BYTE		        Cn1   v072
	BYTE	W11
	BYTE		N12     An2   v080
	BYTE	W01
	BYTE	PEND
// 148   ----------------------------------------
	BYTE	PATT
	 POIN2	Vanishing_Trooper0000_1_132
// 149   ----------------------------------------
	BYTE		N09     Cn1   v072
	BYTE	W11
	BYTE		N12     An2   v080
	BYTE	W01
	BYTE		N15     Cs1   v072
	BYTE	W12
// 150   ----------------------------------------
	BYTE		N09     Cn1   v088
	BYTE		N17     Dn1   v072
	BYTE	W12
	BYTE		N09     Cn1 
	BYTE	W12
// 151   ----------------------------------------
	BYTE	PATT
	 POIN2	Vanishing_Trooper0000_1_131
// 152   ----------------------------------------
	BYTE	PATT
	 POIN2	Vanishing_Trooper0000_1_131
// 153   ----------------------------------------
Vanishing_Trooper0000_1_153:
	BYTE		N09     Cn1   v088
	BYTE		N17     As1   v052
	BYTE	W12
	BYTE		        Bn1   v044
	BYTE	W11
	BYTE		N12     An2   v080
	BYTE	W01
	BYTE	PEND
// 154   ----------------------------------------
	BYTE		N17     Dn1   v072
	BYTE	W24
// 155   ----------------------------------------
	BYTE	PATT
	 POIN2	Vanishing_Trooper0000_1_059
// 156   ----------------------------------------
	BYTE	PATT
	 POIN2	Vanishing_Trooper0000_1_058
// 157   ----------------------------------------
	BYTE	PATT
	 POIN2	Vanishing_Trooper0000_1_061
// 158   ----------------------------------------
	BYTE	PATT
	 POIN2	Vanishing_Trooper0000_1_058
// 159   ----------------------------------------
	BYTE	PATT
	 POIN2	Vanishing_Trooper0000_1_059
// 160   ----------------------------------------
	BYTE	PATT
	 POIN2	Vanishing_Trooper0000_1_128
// 161   ----------------------------------------
	BYTE	PATT
	 POIN2	Vanishing_Trooper0000_1_129
// 162   ----------------------------------------
	BYTE	PATT
	 POIN2	Vanishing_Trooper0000_1_130
// 163   ----------------------------------------
	BYTE	PATT
	 POIN2	Vanishing_Trooper0000_1_131
// 164   ----------------------------------------
	BYTE	PATT
	 POIN2	Vanishing_Trooper0000_1_132
// 165   ----------------------------------------
	BYTE		N09     Cn1   v072
	BYTE	W12
	BYTE		N17     Cs1 
	BYTE	W12
// 166   ----------------------------------------
	BYTE		N09     Cn1   v088
	BYTE	W12
	BYTE		        Cn1   v072
	BYTE		N17     Dn1 
	BYTE	W12
// 167   ----------------------------------------
	BYTE		N09     Cn1 
	BYTE	W12
	BYTE		        Cn1   v088
	BYTE		N15     Ds1   v072
	BYTE	W12
// 168   ----------------------------------------
	BYTE		N09     Cn1   v088
	BYTE		N15     Cs1   v072
	BYTE	W12
	BYTE		N17     Dn1 
	BYTE	W12
// 169   ----------------------------------------
	BYTE	PATT
	 POIN2	Vanishing_Trooper0000_1_153
// 170   ----------------------------------------
	BYTE		N17     Dn1   v072
	BYTE	W24
// 171   ----------------------------------------
	BYTE		N09     Cn1   v088
	BYTE		N17     As1   v052
	BYTE	W12
	BYTE		N09     Cn1   v088
	BYTE		N17     Bn1   v044
	BYTE	W11
	BYTE		N03     Ds1   v072
	BYTE	W01
// 172   ----------------------------------------
	BYTE	PATT
	 POIN2	Vanishing_Trooper0000_1_058
// 173   ----------------------------------------
	BYTE	PATT
	 POIN2	Vanishing_Trooper0000_1_153
// 174   ----------------------------------------
	BYTE		N17     Dn1   v072
	BYTE	W12
	BYTE		        Bn1   v044
	BYTE	W12
// 175   ----------------------------------------
	BYTE		N09     Cn1   v088
	BYTE		N17     As1   v052
	BYTE	W12
	BYTE		N09     Cn1   v088
	BYTE		N17     Bn1   v044
	BYTE	W11
	BYTE		N03     Dn1   v072
	BYTE	W01
// 176   ----------------------------------------
	BYTE		N09     Cn1   v088
	BYTE		N17     Cs1   v072
	BYTE		N17     As1   v052
	BYTE	W12
	BYTE		N09     Cn1   v072
	BYTE		N17     Bn1   v044
	BYTE	W11
	BYTE		N03     Dn1   v072
	BYTE		N12     An2   v080
	BYTE	W01
// 177   ----------------------------------------
	BYTE	PATT
	 POIN2	Vanishing_Trooper0000_1_129
// 178   ----------------------------------------
	BYTE	PATT
	 POIN2	Vanishing_Trooper0000_1_146
// 179   ----------------------------------------
	BYTE	PATT
	 POIN2	Vanishing_Trooper0000_1_147
// 180   ----------------------------------------
	BYTE	PATT
	 POIN2	Vanishing_Trooper0000_1_132
// 181   ----------------------------------------
Vanishing_Trooper0000_1_181:
	BYTE		N09     Cn1   v072
	BYTE	W12
	BYTE		N17     Dn1 
	BYTE	W11
	BYTE		N12     An2   v080
	BYTE	W01
	BYTE	PEND
// 182   ----------------------------------------
	BYTE	PATT
	 POIN2	Vanishing_Trooper0000_1_131
// 183   ----------------------------------------
	BYTE	PATT
	 POIN2	Vanishing_Trooper0000_1_131
// 184   ----------------------------------------
	BYTE		N09     Cn1   v088
	BYTE	W12
	BYTE		        Cn1   v072
	BYTE	W11
	BYTE		N03     Cs1 
	BYTE		N12     An2   v080
	BYTE	W01
// 185   ----------------------------------------
	BYTE	PATT
	 POIN2	Vanishing_Trooper0000_1_132
// 186   ----------------------------------------
	BYTE	PATT
	 POIN2	Vanishing_Trooper0000_1_146
// 187   ----------------------------------------
	BYTE	PATT
	 POIN2	Vanishing_Trooper0000_1_147
// 188   ----------------------------------------
	BYTE	PATT
	 POIN2	Vanishing_Trooper0000_1_132
// 189   ----------------------------------------
	BYTE	PATT
	 POIN2	Vanishing_Trooper0000_1_181
// 190   ----------------------------------------
	BYTE	PATT
	 POIN2	Vanishing_Trooper0000_1_131
// 191   ----------------------------------------
	BYTE		N09     Cn1   v072
	BYTE	W12
	BYTE		        Cn1   v088
	BYTE	W12
// 192   ----------------------------------------
	BYTE		N09   
	BYTE		N05     Gs1   v048
	BYTE	W12
	BYTE		N09     Cn1   v072
	BYTE	W11
	BYTE		N12     An2   v080
	BYTE	W01
// 193   ----------------------------------------
	BYTE		N09     Cn1   v088
	BYTE	W24
// 194   ----------------------------------------
Vanishing_Trooper0000_1_194:
	BYTE		N17     Dn1   v076
	BYTE		N17     As1   v052
	BYTE	W12
	BYTE		        Bn1   v044
	BYTE	W12
	BYTE	PEND
// 195   ----------------------------------------
Vanishing_Trooper0000_1_195:
	BYTE		N09     Cn1   v088
	BYTE		N17     As1   v052
	BYTE	W12
	BYTE		N09     Cn1   v072
	BYTE		N17     Bn1   v044
	BYTE	W12
	BYTE	PEND
// 196   ----------------------------------------
	BYTE	PATT
	 POIN2	Vanishing_Trooper0000_1_194
// 197   ----------------------------------------
	BYTE	PATT
	 POIN2	Vanishing_Trooper0000_1_061
// 198   ----------------------------------------
	BYTE	PATT
	 POIN2	Vanishing_Trooper0000_1_194
// 199   ----------------------------------------
	BYTE	PATT
	 POIN2	Vanishing_Trooper0000_1_195
// 200   ----------------------------------------
	BYTE		N15     Dn1   v076
	BYTE		N17     As1   v052
	BYTE	W12
	BYTE		        Ds1   v056
	BYTE		N17     Bn1   v044
	BYTE	W12
// 201   ----------------------------------------
	BYTE	PATT
	 POIN2	Vanishing_Trooper0000_1_061
// 202   ----------------------------------------
	BYTE	PATT
	 POIN2	Vanishing_Trooper0000_1_194
// 203   ----------------------------------------
	BYTE	PATT
	 POIN2	Vanishing_Trooper0000_1_195
// 204   ----------------------------------------
	BYTE	PATT
	 POIN2	Vanishing_Trooper0000_1_194
// 205   ----------------------------------------
	BYTE	PATT
	 POIN2	Vanishing_Trooper0000_1_061
// 206   ----------------------------------------
	BYTE	PATT
	 POIN2	Vanishing_Trooper0000_1_194
// 207   ----------------------------------------
	BYTE		N09     Cn1   v088
	BYTE		N17     As1   v052
	BYTE	W12
	BYTE		N09     Cn1   v072
	BYTE		N15     Dn1   v056
	BYTE		N17     Bn1   v044
	BYTE	W12
// 208   ----------------------------------------
	BYTE		        Ds1   v072
	BYTE		N17     As1   v052
	BYTE	W23
	BYTE		N12     An2   v080
	BYTE	W01
// 209   ----------------------------------------
	BYTE	PATT
	 POIN2	Vanishing_Trooper0000_1_131
// 210   ----------------------------------------
Vanishing_Trooper0000_1_210:
	BYTE		N09     Cn1   v088
	BYTE		N17     Dn1   v076
	BYTE		N17     As1   v052
	BYTE	W12
	BYTE		N09     Cn1   v072
	BYTE		N17     Bn1   v044
	BYTE	W12
	BYTE	PEND
// 211   ----------------------------------------
Vanishing_Trooper0000_1_211:
	BYTE		N09     Cn1   v088
	BYTE		N17     Ds1   v068
	BYTE		N17     As1   v052
	BYTE	W12
	BYTE		N09     Cn1   v072
	BYTE		N17     Bn1   v044
	BYTE	W12
	BYTE	PEND
// 212   ----------------------------------------
Vanishing_Trooper0000_1_212:
	BYTE		N09     Cn1   v088
	BYTE		N17     Dn1   v076
	BYTE		N17     As1   v052
	BYTE	W12
	BYTE		N09     Cn1   v072
	BYTE		N17     Bn1   v044
	BYTE	W11
	BYTE		N12     An2   v080
	BYTE	W01
	BYTE	PEND
// 213   ----------------------------------------
Vanishing_Trooper0000_1_213:
	BYTE		N09     Cn1   v088
	BYTE		N17     Ds1   v068
	BYTE	W12
	BYTE		N09     Cn1   v072
	BYTE	W12
	BYTE	PEND
// 214   ----------------------------------------
	BYTE	PATT
	 POIN2	Vanishing_Trooper0000_1_210
// 215   ----------------------------------------
	BYTE	PATT
	 POIN2	Vanishing_Trooper0000_1_211
// 216   ----------------------------------------
	BYTE	PATT
	 POIN2	Vanishing_Trooper0000_1_212
// 217   ----------------------------------------
	BYTE	PATT
	 POIN2	Vanishing_Trooper0000_1_213
// 218   ----------------------------------------
	BYTE	PATT
	 POIN2	Vanishing_Trooper0000_1_210
// 219   ----------------------------------------
	BYTE	PATT
	 POIN2	Vanishing_Trooper0000_1_211
// 220   ----------------------------------------
	BYTE	PATT
	 POIN2	Vanishing_Trooper0000_1_210
// 221   ----------------------------------------
	BYTE	PATT
	 POIN2	Vanishing_Trooper0000_1_211
// 222   ----------------------------------------
	BYTE	PATT
	 POIN2	Vanishing_Trooper0000_1_210
// 223   ----------------------------------------
Vanishing_Trooper0000_1_223:
	BYTE		N09     Cn1   v088
	BYTE		N05     Gs1   v048
	BYTE	W12
	BYTE		N09     Cn1   v072
	BYTE	W12
	BYTE	PEND
// 224   ----------------------------------------
	BYTE		        Cn1   v088
	BYTE		N05     Gs1   v048
	BYTE	W12
	BYTE		N09     Cn1   v072
	BYTE		N09     Dn1   v076
	BYTE	W06
	BYTE		N17     Ds1   v068
	BYTE	W05
	BYTE		N12     An2   v080
	BYTE	W01
// 225   ----------------------------------------
	BYTE	PATT
	 POIN2	Vanishing_Trooper0000_1_131
// 226   ----------------------------------------
	BYTE	PATT
	 POIN2	Vanishing_Trooper0000_1_210
// 227   ----------------------------------------
	BYTE	PATT
	 POIN2	Vanishing_Trooper0000_1_211
// 228   ----------------------------------------
	BYTE	PATT
	 POIN2	Vanishing_Trooper0000_1_210
// 229   ----------------------------------------
	BYTE	PATT
	 POIN2	Vanishing_Trooper0000_1_211
// 230   ----------------------------------------
	BYTE	PATT
	 POIN2	Vanishing_Trooper0000_1_210
// 231   ----------------------------------------
	BYTE	PATT
	 POIN2	Vanishing_Trooper0000_1_211
// 232   ----------------------------------------
Vanishing_Trooper0000_1_232:
	BYTE		N09     Cn1   v088
	BYTE		N17     Dn1   v072
	BYTE		N17     As1   v052
	BYTE	W12
	BYTE		N09     Cn1   v072
	BYTE		N17     Bn1   v044
	BYTE	W12
	BYTE	PEND
// 233   ----------------------------------------
	BYTE	PATT
	 POIN2	Vanishing_Trooper0000_1_211
// 234   ----------------------------------------
	BYTE	PATT
	 POIN2	Vanishing_Trooper0000_1_232
// 235   ----------------------------------------
	BYTE	PATT
	 POIN2	Vanishing_Trooper0000_1_211
// 236   ----------------------------------------
	BYTE	PATT
	 POIN2	Vanishing_Trooper0000_1_232
// 237   ----------------------------------------
	BYTE	PATT
	 POIN2	Vanishing_Trooper0000_1_211
// 238   ----------------------------------------
	BYTE	PATT
	 POIN2	Vanishing_Trooper0000_1_232
// 239   ----------------------------------------
	BYTE		N09     Cn1   v088
	BYTE		N17     As1   v052
	BYTE	W12
	BYTE		N09     Cn1   v072
	BYTE		N15     Dn1   v068
	BYTE		N17     Bn1   v044
	BYTE	W12
// 240   ----------------------------------------
	BYTE		N09     Cn1   v088
	BYTE		N17     Ds1   v072
	BYTE	W12
	BYTE		N09     Cn1 
	BYTE	W11
	BYTE		N12     An2   v080
	BYTE	W01
// 241   ----------------------------------------
	BYTE	PATT
	 POIN2	Vanishing_Trooper0000_1_131
// 242   ----------------------------------------
	BYTE	PATT
	 POIN2	Vanishing_Trooper0000_1_232
// 243   ----------------------------------------
	BYTE	PATT
	 POIN2	Vanishing_Trooper0000_1_211
// 244   ----------------------------------------
Vanishing_Trooper0000_1_244:
	BYTE		N09     Cn1   v088
	BYTE		N17     Dn1   v072
	BYTE		N17     As1   v052
	BYTE	W12
	BYTE		N09     Cn1   v072
	BYTE		N17     Bn1   v044
	BYTE	W11
	BYTE		N12     An2   v080
	BYTE	W01
	BYTE	PEND
// 245   ----------------------------------------
	BYTE	PATT
	 POIN2	Vanishing_Trooper0000_1_213
// 246   ----------------------------------------
	BYTE	PATT
	 POIN2	Vanishing_Trooper0000_1_232
// 247   ----------------------------------------
	BYTE	PATT
	 POIN2	Vanishing_Trooper0000_1_211
// 248   ----------------------------------------
	BYTE	PATT
	 POIN2	Vanishing_Trooper0000_1_244
// 249   ----------------------------------------
	BYTE	PATT
	 POIN2	Vanishing_Trooper0000_1_213
// 250   ----------------------------------------
	BYTE	PATT
	 POIN2	Vanishing_Trooper0000_1_232
// 251   ----------------------------------------
	BYTE	PATT
	 POIN2	Vanishing_Trooper0000_1_211
// 252   ----------------------------------------
	BYTE	PATT
	 POIN2	Vanishing_Trooper0000_1_232
// 253   ----------------------------------------
	BYTE	PATT
	 POIN2	Vanishing_Trooper0000_1_211
// 254   ----------------------------------------
	BYTE	PATT
	 POIN2	Vanishing_Trooper0000_1_232
// 255   ----------------------------------------
	BYTE	PATT
	 POIN2	Vanishing_Trooper0000_1_223
// 256   ----------------------------------------
	BYTE		N09     Cn1   v088
	BYTE		N05     Gs1   v048
	BYTE	W12
	BYTE		N09     Cn1   v072
	BYTE		N09     Dn1   v080
	BYTE	W06
	BYTE		        Ds1   v076
	BYTE	W06
// 257   ----------------------------------------
	BYTE		        Cn1   v088
	BYTE		N17     Cs1   v080
	BYTE		N05     Gs1   v048
	BYTE	W24
// 258   ----------------------------------------
	BYTE	W24
// 259   ----------------------------------------
	BYTE	W12
	BYTE		N09     Cn1   v088
	BYTE	W11
	BYTE		N03     Dn1   v076
	BYTE	W01
// 260   ----------------------------------------
	BYTE		N17     Ds1   v080
	BYTE		N23     As1   v064
	BYTE	W23
	BYTE		N12     An2   v080
	BYTE	W01
// 261   ----------------------------------------
	BYTE		N09     Cn1   v088
	BYTE	W12
	BYTE		N05     Fs1   v040
	BYTE	W12
// 262   ----------------------------------------
Vanishing_Trooper0000_1_262:
	BYTE		N09     Cn1   v088
	BYTE		N05     Fs1   v056
	BYTE	W12
	BYTE		        Fs1   v040
	BYTE	W12
	BYTE	PEND
// 263   ----------------------------------------
	BYTE	PATT
	 POIN2	Vanishing_Trooper0000_1_262
// 264   ----------------------------------------
	BYTE	PATT
	 POIN2	Vanishing_Trooper0000_1_262
// 265   ----------------------------------------
	BYTE	PATT
	 POIN2	Vanishing_Trooper0000_1_262
// 266   ----------------------------------------
	BYTE	PATT
	 POIN2	Vanishing_Trooper0000_1_262
// 267   ----------------------------------------
	BYTE		N09     Cn1   v088
	BYTE		N11     As1   v064
	BYTE	W12
	BYTE		N05     Fs1   v040
	BYTE	W06
	BYTE		        Fs1   v056
	BYTE	W06
// 268   ----------------------------------------
	BYTE		N09     Cn1   v088
	BYTE		N05     Fs1   v052
	BYTE	W12
	BYTE		N11     As1   v060
	BYTE	W12
// 269   ----------------------------------------
	BYTE	PATT
	 POIN2	Vanishing_Trooper0000_1_262
// 270   ----------------------------------------
	BYTE	PATT
	 POIN2	Vanishing_Trooper0000_1_262
// 271   ----------------------------------------
	BYTE	PATT
	 POIN2	Vanishing_Trooper0000_1_262
// 272   ----------------------------------------
	BYTE	PATT
	 POIN2	Vanishing_Trooper0000_1_262
// 273   ----------------------------------------
	BYTE	PATT
	 POIN2	Vanishing_Trooper0000_1_262
// 274   ----------------------------------------
	BYTE	PATT
	 POIN2	Vanishing_Trooper0000_1_262
// 275   ----------------------------------------
	BYTE		N09     Cn1   v088
	BYTE		N05     Fs1   v056
	BYTE	W12
	BYTE		        Fs1   v040
	BYTE	W11
	BYTE		N03     Dn1   v072
	BYTE	W01
// 276   ----------------------------------------
	BYTE		N09     Cn1   v088
	BYTE		N17     Ds1   v080
	BYTE		N05     Fs1   v056
	BYTE	W12
	BYTE		N11     As1   v060
	BYTE	W12
// 277   ----------------------------------------
	BYTE	PATT
	 POIN2	Vanishing_Trooper0000_1_262
// 278   ----------------------------------------
	BYTE	PATT
	 POIN2	Vanishing_Trooper0000_1_262
// 279   ----------------------------------------
Vanishing_Trooper0000_1_279:
	BYTE		N09     Cn1   v088
	BYTE		N17     Ds1   v080
	BYTE		N05     Fs1   v056
	BYTE	W12
	BYTE		        Fs1   v040
	BYTE	W12
	BYTE	PEND
// 280   ----------------------------------------
	BYTE		N09     Cn1   v088
	BYTE		N05     Fs1   v056
	BYTE	W12
	BYTE		N17     Dn1   v060
	BYTE		N05     Fs1   v040
	BYTE	W12
// 281   ----------------------------------------
	BYTE		N09     Cn1   v088
	BYTE		N05     Fs1   v056
	BYTE	W12
	BYTE		N17     Ds1   v060
	BYTE		N05     Fs1   v040
	BYTE	W12
// 282   ----------------------------------------
	BYTE	PATT
	 POIN2	Vanishing_Trooper0000_1_262
// 283   ----------------------------------------
	BYTE	PATT
	 POIN2	Vanishing_Trooper0000_1_279
// 284   ----------------------------------------
	BYTE	PATT
	 POIN2	Vanishing_Trooper0000_1_262
// 285   ----------------------------------------
	BYTE		N09     Cn1   v088
	BYTE		N05     Fs1   v056
	BYTE	W12
	BYTE		N15     Dn1   v060
	BYTE		N05     Fs1   v040
	BYTE	W12
// 286   ----------------------------------------
	BYTE	PATT
	 POIN2	Vanishing_Trooper0000_1_279
// 287   ----------------------------------------
	BYTE	PATT
	 POIN2	Vanishing_Trooper0000_1_262
// 288   ----------------------------------------
	BYTE		N09     Cn1   v088
	BYTE		N17     Ds1   v080
	BYTE		N05     Fs1   v056
	BYTE	W12
	BYTE		N17     Dn1   v060
	BYTE		N05     Fs1   v040
	BYTE	W12
// 289   ----------------------------------------
	BYTE	PATT
	 POIN2	Vanishing_Trooper0000_1_117
// 290   ----------------------------------------
	BYTE	PATT
	 POIN2	Vanishing_Trooper0000_1_117
// 291   ----------------------------------------
	BYTE	PATT
	 POIN2	Vanishing_Trooper0000_1_117
// 292   ----------------------------------------
	BYTE		N09     Cn1   v088
	BYTE		N06     Ds1   v072
	BYTE		N05     Gs1   v048
	BYTE	W06
	BYTE		        Ds1   v088
	BYTE	W06
	BYTE	GoTo
	 POIN2	Vanishing_Trooper0000_1_B1
Vanishing_Trooper0000_1_B2:
	BYTE	W11
	BYTE	FINE

//**************** Track 2 (Midi-Chn.2) ****************//

Vanishing_Trooper0000_2:
	BYTE	KEYSH   Vanishing_Trooper0000_key+0
// 000   ----------------------------------------
	BYTE		VOICE   122
	BYTE	W01
	BYTE		VOL     41*Vanishing_Trooper0000_mvl/mxv
	BYTE		PAN     c_v+0
	BYTE	W01
	BYTE		BEND    c_v+0
	BYTE	W22
// 001   ----------------------------------------
	BYTE	W24
// 002   ----------------------------------------
	BYTE	W24
// 003   ----------------------------------------
	BYTE	W24
// 004   ----------------------------------------
	BYTE	W24
// 005   ----------------------------------------
	BYTE	W24
// 006   ----------------------------------------
	BYTE	W24
// 007   ----------------------------------------
	BYTE	W24
// 008   ----------------------------------------
	BYTE	W24
// 009   ----------------------------------------
	BYTE	W24
// 010   ----------------------------------------
	BYTE	W24
// 011   ----------------------------------------
	BYTE	W24
// 012   ----------------------------------------
	BYTE	W24
// 013   ----------------------------------------
	BYTE	W24
// 014   ----------------------------------------
	BYTE	W24
// 015   ----------------------------------------
	BYTE	W24
// 016   ----------------------------------------
	BYTE	W24
// 017   ----------------------------------------
	BYTE	W24
// 018   ----------------------------------------
	BYTE	W24
// 019   ----------------------------------------
	BYTE	W24
// 020   ----------------------------------------
	BYTE	W24
// 021   ----------------------------------------
	BYTE	W24
// 022   ----------------------------------------
	BYTE	W24
// 023   ----------------------------------------
	BYTE	W24
// 024   ----------------------------------------
	BYTE	W24
// 025   ----------------------------------------
	BYTE	W24
// 026   ----------------------------------------
	BYTE	W24
// 027   ----------------------------------------
	BYTE	W24
// 028   ----------------------------------------
	BYTE	W24
// 029   ----------------------------------------
	BYTE	W24
// 030   ----------------------------------------
	BYTE	W24
// 031   ----------------------------------------
	BYTE	W24
// 032   ----------------------------------------
	BYTE	W24
// 033   ----------------------------------------
Vanishing_Trooper0000_2_033:
	BYTE	W06
	BYTE		N09     Cn1   v060
	BYTE	W12
	BYTE		N09   
	BYTE	W06
	BYTE	PEND
// 034   ----------------------------------------
	BYTE	PATT
	 POIN2	Vanishing_Trooper0000_2_033
// 035   ----------------------------------------
	BYTE	PATT
	 POIN2	Vanishing_Trooper0000_2_033
// 036   ----------------------------------------
	BYTE	PATT
	 POIN2	Vanishing_Trooper0000_2_033
// 037   ----------------------------------------
	BYTE	PATT
	 POIN2	Vanishing_Trooper0000_2_033
// 038   ----------------------------------------
	BYTE	PATT
	 POIN2	Vanishing_Trooper0000_2_033
// 039   ----------------------------------------
	BYTE	PATT
	 POIN2	Vanishing_Trooper0000_2_033
// 040   ----------------------------------------
	BYTE	PATT
	 POIN2	Vanishing_Trooper0000_2_033
// 041   ----------------------------------------
	BYTE	W18
	BYTE		N09     Cn1   v060
	BYTE	W06
// 042   ----------------------------------------
	BYTE	PATT
	 POIN2	Vanishing_Trooper0000_2_033
// 043   ----------------------------------------
	BYTE	PATT
	 POIN2	Vanishing_Trooper0000_2_033
// 044   ----------------------------------------
	BYTE	PATT
	 POIN2	Vanishing_Trooper0000_2_033
// 045   ----------------------------------------
	BYTE	W24
// 046   ----------------------------------------
	BYTE	PATT
	 POIN2	Vanishing_Trooper0000_2_033
// 047   ----------------------------------------
	BYTE	PATT
	 POIN2	Vanishing_Trooper0000_2_033
// 048   ----------------------------------------
	BYTE	W24
Vanishing_Trooper0000_2_B1:
// 049   ----------------------------------------
	BYTE	W24
// 050   ----------------------------------------
	BYTE	W24
// 051   ----------------------------------------
	BYTE	W24
// 052   ----------------------------------------
	BYTE	W24
// 053   ----------------------------------------
	BYTE	W24
// 054   ----------------------------------------
	BYTE	W24
// 055   ----------------------------------------
	BYTE	W24
// 056   ----------------------------------------
	BYTE	W24
// 057   ----------------------------------------
	BYTE	W24
// 058   ----------------------------------------
	BYTE	W24
// 059   ----------------------------------------
	BYTE	W12
	BYTE		N09     Cn1   v088
	BYTE	W12
// 060   ----------------------------------------
	BYTE	W24
// 061   ----------------------------------------
	BYTE	W24
// 062   ----------------------------------------
	BYTE	W24
// 063   ----------------------------------------
	BYTE	W12
	BYTE		N09   
	BYTE	W12
// 064   ----------------------------------------
	BYTE	W24
// 065   ----------------------------------------
	BYTE	W24
// 066   ----------------------------------------
	BYTE	W24
// 067   ----------------------------------------
	BYTE	W12
	BYTE		N09   
	BYTE	W12
// 068   ----------------------------------------
	BYTE	W24
// 069   ----------------------------------------
	BYTE	W24
// 070   ----------------------------------------
	BYTE	W24
// 071   ----------------------------------------
	BYTE	W12
	BYTE		N09   
	BYTE	W12
// 072   ----------------------------------------
	BYTE	W24
// 073   ----------------------------------------
	BYTE	W24
// 074   ----------------------------------------
	BYTE	W24
// 075   ----------------------------------------
	BYTE	W12
	BYTE		N09   
	BYTE	W12
// 076   ----------------------------------------
	BYTE	W24
// 077   ----------------------------------------
	BYTE	W24
// 078   ----------------------------------------
	BYTE	W24
// 079   ----------------------------------------
	BYTE	W12
	BYTE		N09   
	BYTE	W12
// 080   ----------------------------------------
	BYTE	W24
// 081   ----------------------------------------
	BYTE	W24
// 082   ----------------------------------------
	BYTE	W24
// 083   ----------------------------------------
	BYTE	W12
	BYTE		N09   
	BYTE	W12
// 084   ----------------------------------------
	BYTE	W24
// 085   ----------------------------------------
	BYTE	W24
// 086   ----------------------------------------
	BYTE	W24
// 087   ----------------------------------------
	BYTE	W12
	BYTE		        Cn1   v100
	BYTE	W12
// 088   ----------------------------------------
	BYTE	W24
// 089   ----------------------------------------
	BYTE	W24
// 090   ----------------------------------------
	BYTE	W24
// 091   ----------------------------------------
	BYTE	W12
	BYTE		        Cn1   v088
	BYTE	W12
// 092   ----------------------------------------
	BYTE	W24
// 093   ----------------------------------------
	BYTE	W24
// 094   ----------------------------------------
	BYTE	W24
// 095   ----------------------------------------
	BYTE	W12
	BYTE		N09   
	BYTE	W12
// 096   ----------------------------------------
	BYTE	W24
// 097   ----------------------------------------
	BYTE	W24
// 098   ----------------------------------------
	BYTE	W24
// 099   ----------------------------------------
	BYTE	W12
	BYTE		N09   
	BYTE	W12
// 100   ----------------------------------------
	BYTE	W24
// 101   ----------------------------------------
	BYTE	W24
// 102   ----------------------------------------
	BYTE	W24
// 103   ----------------------------------------
	BYTE	W12
	BYTE		N09   
	BYTE	W12
// 104   ----------------------------------------
	BYTE	W24
// 105   ----------------------------------------
	BYTE	W24
// 106   ----------------------------------------
	BYTE	W24
// 107   ----------------------------------------
	BYTE	W12
	BYTE		N09   
	BYTE	W12
// 108   ----------------------------------------
	BYTE	W24
// 109   ----------------------------------------
	BYTE	W24
// 110   ----------------------------------------
	BYTE	W24
// 111   ----------------------------------------
	BYTE	W12
	BYTE		N09   
	BYTE	W12
// 112   ----------------------------------------
	BYTE	W24
// 113   ----------------------------------------
	BYTE	W24
// 114   ----------------------------------------
	BYTE	W24
// 115   ----------------------------------------
	BYTE	W12
	BYTE		N09   
	BYTE	W12
// 116   ----------------------------------------
	BYTE	W24
// 117   ----------------------------------------
	BYTE	W24
// 118   ----------------------------------------
	BYTE	W24
// 119   ----------------------------------------
	BYTE	W12
	BYTE		N09   
	BYTE	W12
// 120   ----------------------------------------
	BYTE	W24
// 121   ----------------------------------------
	BYTE	W24
// 122   ----------------------------------------
	BYTE	W24
// 123   ----------------------------------------
	BYTE	W12
	BYTE		N09   
	BYTE	W12
// 124   ----------------------------------------
	BYTE	W24
// 125   ----------------------------------------
	BYTE	W24
// 126   ----------------------------------------
	BYTE	W24
// 127   ----------------------------------------
	BYTE	W24
// 128   ----------------------------------------
Vanishing_Trooper0000_2_128:
	BYTE	W06
	BYTE		N09     Cn1   v072
	BYTE	W12
	BYTE		N09   
	BYTE	W06
	BYTE	PEND
// 129   ----------------------------------------
	BYTE	W18
	BYTE		N09   
	BYTE	W06
// 130   ----------------------------------------
	BYTE	W06
	BYTE		N09   
	BYTE	W18
// 131   ----------------------------------------
	BYTE	PATT
	 POIN2	Vanishing_Trooper0000_2_128
// 132   ----------------------------------------
	BYTE	W18
	BYTE		N09     Cn1   v072
	BYTE	W06
// 133   ----------------------------------------
	BYTE	W06
	BYTE		N09   
	BYTE	W18
// 134   ----------------------------------------
	BYTE	PATT
	 POIN2	Vanishing_Trooper0000_2_128
// 135   ----------------------------------------
	BYTE	W12
	BYTE		N09     Cn1   v088
	BYTE	W12
// 136   ----------------------------------------
	BYTE	W12
	BYTE		        Cn1   v072
	BYTE	W12
// 137   ----------------------------------------
	BYTE	W24
// 138   ----------------------------------------
	BYTE	W24
// 139   ----------------------------------------
	BYTE	W12
	BYTE		        Cn1   v088
	BYTE	W12
// 140   ----------------------------------------
	BYTE	W24
// 141   ----------------------------------------
	BYTE	W24
// 142   ----------------------------------------
	BYTE	W24
// 143   ----------------------------------------
	BYTE	W24
// 144   ----------------------------------------
	BYTE		N09   
	BYTE	W12
	BYTE		        Cn1   v072
	BYTE	W12
// 145   ----------------------------------------
	BYTE	W18
	BYTE		N09   
	BYTE	W06
// 146   ----------------------------------------
	BYTE	W06
	BYTE		N09   
	BYTE	W18
// 147   ----------------------------------------
	BYTE	PATT
	 POIN2	Vanishing_Trooper0000_2_128
// 148   ----------------------------------------
	BYTE	W18
	BYTE		N09     Cn1   v072
	BYTE	W06
// 149   ----------------------------------------
	BYTE	W06
	BYTE		N09   
	BYTE	W18
// 150   ----------------------------------------
	BYTE	PATT
	 POIN2	Vanishing_Trooper0000_2_128
// 151   ----------------------------------------
	BYTE	W12
	BYTE		N09     Cn1   v072
	BYTE	W12
// 152   ----------------------------------------
	BYTE	W12
	BYTE		N09   
	BYTE	W12
// 153   ----------------------------------------
	BYTE	W24
// 154   ----------------------------------------
	BYTE	W24
// 155   ----------------------------------------
	BYTE	W12
	BYTE		        Cn1   v088
	BYTE	W12
// 156   ----------------------------------------
	BYTE	W24
// 157   ----------------------------------------
	BYTE	W24
// 158   ----------------------------------------
	BYTE	W24
// 159   ----------------------------------------
	BYTE	W24
// 160   ----------------------------------------
	BYTE	PATT
	 POIN2	Vanishing_Trooper0000_2_128
// 161   ----------------------------------------
	BYTE	W18
	BYTE		N09     Cn1   v072
	BYTE	W06
// 162   ----------------------------------------
	BYTE	W06
	BYTE		N09   
	BYTE	W18
// 163   ----------------------------------------
	BYTE	PATT
	 POIN2	Vanishing_Trooper0000_2_128
// 164   ----------------------------------------
	BYTE	W18
	BYTE		N09     Cn1   v072
	BYTE	W06
// 165   ----------------------------------------
	BYTE	W06
	BYTE		N09   
	BYTE	W18
// 166   ----------------------------------------
	BYTE	PATT
	 POIN2	Vanishing_Trooper0000_2_128
// 167   ----------------------------------------
	BYTE	W12
	BYTE		N09     Cn1   v088
	BYTE	W12
// 168   ----------------------------------------
	BYTE	W24
// 169   ----------------------------------------
	BYTE	W24
// 170   ----------------------------------------
	BYTE	W24
// 171   ----------------------------------------
	BYTE	W12
	BYTE		N09   
	BYTE	W12
// 172   ----------------------------------------
	BYTE	W24
// 173   ----------------------------------------
	BYTE	W24
// 174   ----------------------------------------
	BYTE	W24
// 175   ----------------------------------------
	BYTE	W24
// 176   ----------------------------------------
	BYTE	PATT
	 POIN2	Vanishing_Trooper0000_2_128
// 177   ----------------------------------------
	BYTE	W18
	BYTE		N09     Cn1   v072
	BYTE	W06
// 178   ----------------------------------------
	BYTE	W06
	BYTE		N09   
	BYTE	W18
// 179   ----------------------------------------
	BYTE	PATT
	 POIN2	Vanishing_Trooper0000_2_128
// 180   ----------------------------------------
	BYTE	W18
	BYTE		N09     Cn1   v072
	BYTE	W06
// 181   ----------------------------------------
	BYTE	W06
	BYTE		N09   
	BYTE	W18
// 182   ----------------------------------------
	BYTE	PATT
	 POIN2	Vanishing_Trooper0000_2_128
// 183   ----------------------------------------
	BYTE	W12
	BYTE		N09     Cn1   v072
	BYTE	W12
// 184   ----------------------------------------
	BYTE	W12
	BYTE		N09   
	BYTE	W12
// 185   ----------------------------------------
	BYTE	W18
	BYTE		N09   
	BYTE	W06
// 186   ----------------------------------------
	BYTE	W06
	BYTE		N09   
	BYTE	W18
// 187   ----------------------------------------
	BYTE	PATT
	 POIN2	Vanishing_Trooper0000_2_128
// 188   ----------------------------------------
	BYTE	W18
	BYTE		N09     Cn1   v072
	BYTE	W06
// 189   ----------------------------------------
	BYTE	W06
	BYTE		N09   
	BYTE	W18
// 190   ----------------------------------------
	BYTE	PATT
	 POIN2	Vanishing_Trooper0000_2_128
// 191   ----------------------------------------
	BYTE	W12
	BYTE		N09     Cn1   v088
	BYTE	W12
// 192   ----------------------------------------
	BYTE	W12
	BYTE		        Cn1   v072
	BYTE	W12
// 193   ----------------------------------------
	BYTE	W24
// 194   ----------------------------------------
	BYTE	W24
// 195   ----------------------------------------
	BYTE	W24
// 196   ----------------------------------------
	BYTE	W24
// 197   ----------------------------------------
	BYTE	W24
// 198   ----------------------------------------
	BYTE	W24
// 199   ----------------------------------------
	BYTE	W24
// 200   ----------------------------------------
	BYTE	W24
// 201   ----------------------------------------
	BYTE	W24
// 202   ----------------------------------------
	BYTE	W24
// 203   ----------------------------------------
	BYTE	W24
// 204   ----------------------------------------
	BYTE	W24
// 205   ----------------------------------------
	BYTE	W24
// 206   ----------------------------------------
	BYTE	W24
// 207   ----------------------------------------
	BYTE	W24
// 208   ----------------------------------------
	BYTE	W24
// 209   ----------------------------------------
	BYTE	W24
// 210   ----------------------------------------
	BYTE	W24
// 211   ----------------------------------------
	BYTE	W24
// 212   ----------------------------------------
	BYTE	W24
// 213   ----------------------------------------
	BYTE	W24
// 214   ----------------------------------------
	BYTE	W24
// 215   ----------------------------------------
	BYTE	W24
// 216   ----------------------------------------
	BYTE	W24
// 217   ----------------------------------------
	BYTE	W24
// 218   ----------------------------------------
	BYTE	W24
// 219   ----------------------------------------
	BYTE	W24
// 220   ----------------------------------------
	BYTE	W24
// 221   ----------------------------------------
	BYTE	W24
// 222   ----------------------------------------
	BYTE	W24
// 223   ----------------------------------------
	BYTE	W24
// 224   ----------------------------------------
Vanishing_Trooper0000_2_224:
	BYTE	W06
	BYTE		N09     Cn1   v064
	BYTE	W12
	BYTE		N09   
	BYTE	W06
	BYTE	PEND
// 225   ----------------------------------------
	BYTE	PATT
	 POIN2	Vanishing_Trooper0000_2_224
// 226   ----------------------------------------
	BYTE	PATT
	 POIN2	Vanishing_Trooper0000_2_224
// 227   ----------------------------------------
	BYTE	PATT
	 POIN2	Vanishing_Trooper0000_2_224
// 228   ----------------------------------------
	BYTE	PATT
	 POIN2	Vanishing_Trooper0000_2_224
// 229   ----------------------------------------
	BYTE	PATT
	 POIN2	Vanishing_Trooper0000_2_224
// 230   ----------------------------------------
	BYTE	PATT
	 POIN2	Vanishing_Trooper0000_2_224
// 231   ----------------------------------------
	BYTE	PATT
	 POIN2	Vanishing_Trooper0000_2_224
// 232   ----------------------------------------
	BYTE	PATT
	 POIN2	Vanishing_Trooper0000_2_224
// 233   ----------------------------------------
	BYTE	PATT
	 POIN2	Vanishing_Trooper0000_2_224
// 234   ----------------------------------------
	BYTE	PATT
	 POIN2	Vanishing_Trooper0000_2_224
// 235   ----------------------------------------
	BYTE	PATT
	 POIN2	Vanishing_Trooper0000_2_224
// 236   ----------------------------------------
	BYTE	PATT
	 POIN2	Vanishing_Trooper0000_2_224
// 237   ----------------------------------------
	BYTE	PATT
	 POIN2	Vanishing_Trooper0000_2_224
// 238   ----------------------------------------
	BYTE	PATT
	 POIN2	Vanishing_Trooper0000_2_224
// 239   ----------------------------------------
	BYTE	PATT
	 POIN2	Vanishing_Trooper0000_2_224
// 240   ----------------------------------------
	BYTE	PATT
	 POIN2	Vanishing_Trooper0000_2_224
// 241   ----------------------------------------
	BYTE	PATT
	 POIN2	Vanishing_Trooper0000_2_224
// 242   ----------------------------------------
	BYTE	PATT
	 POIN2	Vanishing_Trooper0000_2_224
// 243   ----------------------------------------
	BYTE	PATT
	 POIN2	Vanishing_Trooper0000_2_224
// 244   ----------------------------------------
	BYTE	PATT
	 POIN2	Vanishing_Trooper0000_2_224
// 245   ----------------------------------------
	BYTE	PATT
	 POIN2	Vanishing_Trooper0000_2_224
// 246   ----------------------------------------
	BYTE	PATT
	 POIN2	Vanishing_Trooper0000_2_224
// 247   ----------------------------------------
	BYTE	PATT
	 POIN2	Vanishing_Trooper0000_2_224
// 248   ----------------------------------------
	BYTE	PATT
	 POIN2	Vanishing_Trooper0000_2_224
// 249   ----------------------------------------
	BYTE	PATT
	 POIN2	Vanishing_Trooper0000_2_224
// 250   ----------------------------------------
	BYTE	PATT
	 POIN2	Vanishing_Trooper0000_2_224
// 251   ----------------------------------------
	BYTE	PATT
	 POIN2	Vanishing_Trooper0000_2_224
// 252   ----------------------------------------
	BYTE	PATT
	 POIN2	Vanishing_Trooper0000_2_224
// 253   ----------------------------------------
	BYTE	PATT
	 POIN2	Vanishing_Trooper0000_2_224
// 254   ----------------------------------------
	BYTE	PATT
	 POIN2	Vanishing_Trooper0000_2_224
// 255   ----------------------------------------
	BYTE	PATT
	 POIN2	Vanishing_Trooper0000_2_224
// 256   ----------------------------------------
	BYTE	PATT
	 POIN2	Vanishing_Trooper0000_2_224
// 257   ----------------------------------------
	BYTE	W24
// 258   ----------------------------------------
	BYTE	W24
// 259   ----------------------------------------
	BYTE	W24
// 260   ----------------------------------------
	BYTE	W24
// 261   ----------------------------------------
	BYTE	W24
// 262   ----------------------------------------
	BYTE	W24
// 263   ----------------------------------------
	BYTE	W24
// 264   ----------------------------------------
	BYTE	W24
// 265   ----------------------------------------
	BYTE	W24
// 266   ----------------------------------------
	BYTE	W24
// 267   ----------------------------------------
	BYTE	W24
// 268   ----------------------------------------
	BYTE	W24
// 269   ----------------------------------------
	BYTE	W24
// 270   ----------------------------------------
	BYTE	W24
// 271   ----------------------------------------
	BYTE	W24
// 272   ----------------------------------------
	BYTE	W24
// 273   ----------------------------------------
	BYTE	W24
// 274   ----------------------------------------
	BYTE	W24
// 275   ----------------------------------------
	BYTE	W24
// 276   ----------------------------------------
	BYTE	W24
// 277   ----------------------------------------
	BYTE	W24
// 278   ----------------------------------------
	BYTE	W24
// 279   ----------------------------------------
	BYTE	W24
// 280   ----------------------------------------
	BYTE	W24
// 281   ----------------------------------------
	BYTE	W24
// 282   ----------------------------------------
	BYTE	W24
// 283   ----------------------------------------
	BYTE	W24
// 284   ----------------------------------------
	BYTE	W24
// 285   ----------------------------------------
	BYTE	W24
// 286   ----------------------------------------
	BYTE	W24
// 287   ----------------------------------------
	BYTE	W24
// 288   ----------------------------------------
	BYTE	W24
// 289   ----------------------------------------
	BYTE	W24
// 290   ----------------------------------------
	BYTE	W24
// 291   ----------------------------------------
	BYTE	W24
// 292   ----------------------------------------
	BYTE	W12
	BYTE	GoTo
	 POIN2	Vanishing_Trooper0000_2_B1
Vanishing_Trooper0000_2_B2:
	BYTE	W11
	BYTE	FINE

//**************** Track 3 (Midi-Chn.4) ****************//

Vanishing_Trooper0000_3:
	BYTE	KEYSH   Vanishing_Trooper0000_key+0
// 000   ----------------------------------------
	BYTE		VOICE   115
	BYTE		PAN     c_v+21
	BYTE	W01
	BYTE		VOL     28*Vanishing_Trooper0000_mvl/mxv
	BYTE	W01
	BYTE		BEND    c_v+0
	BYTE	W22
// 001   ----------------------------------------
	BYTE	W24
// 002   ----------------------------------------
	BYTE	W24
// 003   ----------------------------------------
	BYTE	W24
// 004   ----------------------------------------
	BYTE	W24
// 005   ----------------------------------------
	BYTE	W24
// 006   ----------------------------------------
	BYTE	W24
// 007   ----------------------------------------
	BYTE	W12
	BYTE		N05     Gn1   v080
	BYTE	W06
	BYTE		        As1 
	BYTE	W06
// 008   ----------------------------------------
	BYTE		        Dn2 
	BYTE	W06
	BYTE		        Gn2 
	BYTE	W06
	BYTE		        As2 
	BYTE	W06
	BYTE		        Dn3 
	BYTE	W06
// 009   ----------------------------------------
Vanishing_Trooper0000_3_009:
	BYTE		N05     Gn2   v080
	BYTE	W06
	BYTE		        As2 
	BYTE	W06
	BYTE		        Dn3 
	BYTE	W06
	BYTE		        Gn3 
	BYTE	W06
	BYTE	PEND
// 010   ----------------------------------------
	BYTE		        As3 
	BYTE	W06
	BYTE		        Gn3 
	BYTE	W06
	BYTE		        Dn3 
	BYTE	W06
	BYTE		        Gn3 
	BYTE	W06
// 011   ----------------------------------------
	BYTE		        Dn3 
	BYTE	W06
	BYTE		        Gn3 
	BYTE	W06
	BYTE		        As3 
	BYTE	W06
	BYTE		        Dn4 
	BYTE	W06
// 012   ----------------------------------------
	BYTE		        Gn4 
	BYTE	W06
	BYTE		        Dn4 
	BYTE	W06
	BYTE		        As3 
	BYTE	W06
	BYTE		        Dn4 
	BYTE	W06
// 013   ----------------------------------------
	BYTE		        Gn4 
	BYTE	W06
	BYTE		        Dn4 
	BYTE	W06
	BYTE		        As3 
	BYTE	W06
	BYTE		        Gn3 
	BYTE	W06
// 014   ----------------------------------------
	BYTE		        As3 
	BYTE	W06
	BYTE		        Gn3 
	BYTE	W06
	BYTE		        Dn3 
	BYTE	W06
	BYTE		        As2 
	BYTE	W06
// 015   ----------------------------------------
	BYTE	PATT
	 POIN2	Vanishing_Trooper0000_3_009
// 016   ----------------------------------------
	BYTE		N05     As3   v080
	BYTE	W06
	BYTE		        Dn4 
	BYTE	W06
	BYTE		        Gn4 
	BYTE	W12
// 017   ----------------------------------------
	BYTE	W12
	BYTE		N10     Dn4   v088
	BYTE	W12
// 018   ----------------------------------------
Vanishing_Trooper0000_3_018:
	BYTE		N10     Gn4   v088
	BYTE	W12
	BYTE		        As4 
	BYTE	W12
	BYTE	PEND
// 019   ----------------------------------------
Vanishing_Trooper0000_3_019:
	BYTE		N10     An4   v088
	BYTE	W12
	BYTE		        Dn4 
	BYTE	W12
	BYTE	PEND
// 020   ----------------------------------------
Vanishing_Trooper0000_3_020:
	BYTE		N10     Fn4   v088
	BYTE	W12
	BYTE		        As3 
	BYTE	W12
	BYTE	PEND
// 021   ----------------------------------------
Vanishing_Trooper0000_3_021:
	BYTE		N10     Ds4   v088
	BYTE	W12
	BYTE		        Gn3 
	BYTE	W12
	BYTE	PEND
// 022   ----------------------------------------
Vanishing_Trooper0000_3_022:
	BYTE		N10     Dn4   v088
	BYTE	W12
	BYTE		        Gn3 
	BYTE	W12
	BYTE	PEND
// 023   ----------------------------------------
Vanishing_Trooper0000_3_023:
	BYTE		N10     Cn4   v088
	BYTE	W12
	BYTE		        Dn4 
	BYTE	W12
	BYTE	PEND
// 024   ----------------------------------------
Vanishing_Trooper0000_3_024:
	BYTE		N10     An3   v088
	BYTE	W12
	BYTE		        As3 
	BYTE	W12
	BYTE	PEND
// 025   ----------------------------------------
Vanishing_Trooper0000_3_025:
	BYTE		N10     Gs3   v088
	BYTE	W12
	BYTE		        Ds4 
	BYTE	W12
	BYTE	PEND
// 026   ----------------------------------------
Vanishing_Trooper0000_3_026:
	BYTE		N10     Gs4   v088
	BYTE	W12
	BYTE		        Bn4 
	BYTE	W12
	BYTE	PEND
// 027   ----------------------------------------
Vanishing_Trooper0000_3_027:
	BYTE		N10     As4   v088
	BYTE	W12
	BYTE		        Ds4 
	BYTE	W12
	BYTE	PEND
// 028   ----------------------------------------
Vanishing_Trooper0000_3_028:
	BYTE		N10     Fs4   v088
	BYTE	W12
	BYTE		        Bn3 
	BYTE	W12
	BYTE	PEND
// 029   ----------------------------------------
Vanishing_Trooper0000_3_029:
	BYTE		N10     En4   v088
	BYTE	W12
	BYTE		        Gs3 
	BYTE	W12
	BYTE	PEND
// 030   ----------------------------------------
Vanishing_Trooper0000_3_030:
	BYTE		N10     Ds4   v088
	BYTE	W12
	BYTE		        Gs3 
	BYTE	W12
	BYTE	PEND
// 031   ----------------------------------------
Vanishing_Trooper0000_3_031:
	BYTE		N10     Cs4   v088
	BYTE	W12
	BYTE		N04     Ds4 
	BYTE	W04
	BYTE		        En4   v060
	BYTE	W04
	BYTE		        Ds4   v072
	BYTE	W04
	BYTE	PEND
// 032   ----------------------------------------
Vanishing_Trooper0000_3_032:
	BYTE		N10     As3   v088
	BYTE	W12
	BYTE		        Bn3 
	BYTE	W12
	BYTE	PEND
// 033   ----------------------------------------
Vanishing_Trooper0000_3_033:
	BYTE		N10     Gn3   v088
	BYTE	W12
	BYTE		        Dn4 
	BYTE	W12
	BYTE	PEND
// 034   ----------------------------------------
	BYTE	PATT
	 POIN2	Vanishing_Trooper0000_3_018
// 035   ----------------------------------------
	BYTE	PATT
	 POIN2	Vanishing_Trooper0000_3_019
// 036   ----------------------------------------
	BYTE	PATT
	 POIN2	Vanishing_Trooper0000_3_020
// 037   ----------------------------------------
	BYTE	PATT
	 POIN2	Vanishing_Trooper0000_3_021
// 038   ----------------------------------------
Vanishing_Trooper0000_3_038:
	BYTE		N04     Dn4   v088
	BYTE	W04
	BYTE		        Ds4   v060
	BYTE	W04
	BYTE		        Dn4   v072
	BYTE	W04
	BYTE		N10     Gn3   v088
	BYTE	W12
	BYTE	PEND
// 039   ----------------------------------------
	BYTE	PATT
	 POIN2	Vanishing_Trooper0000_3_023
// 040   ----------------------------------------
	BYTE	PATT
	 POIN2	Vanishing_Trooper0000_3_024
// 041   ----------------------------------------
Vanishing_Trooper0000_3_041:
	BYTE		N10     Cn4   v088
	BYTE	W12
	BYTE		        Cn5 
	BYTE	W12
	BYTE	PEND
// 042   ----------------------------------------
Vanishing_Trooper0000_3_042:
	BYTE		N10     As4   v088
	BYTE	W12
	BYTE		N04     An4 
	BYTE	W04
	BYTE		        As4   v060
	BYTE	W04
	BYTE		        An4   v072
	BYTE	W04
	BYTE	PEND
// 043   ----------------------------------------
Vanishing_Trooper0000_3_043:
	BYTE		N10     Gn4   v088
	BYTE	W12
	BYTE		        Dn4 
	BYTE	W12
	BYTE	PEND
// 044   ----------------------------------------
Vanishing_Trooper0000_3_044:
	BYTE		N10     Gn4   v088
	BYTE	W12
	BYTE		        An4 
	BYTE	W12
	BYTE	PEND
// 045   ----------------------------------------
Vanishing_Trooper0000_3_045:
	BYTE		N10     As4   v088
	BYTE	W12
	BYTE		        Dn4 
	BYTE	W12
	BYTE	PEND
// 046   ----------------------------------------
	BYTE	PATT
	 POIN2	Vanishing_Trooper0000_3_019
// 047   ----------------------------------------
Vanishing_Trooper0000_3_047:
	BYTE		N10     Gn4   v088
	BYTE	W12
	BYTE		N04     Dn4 
	BYTE	W04
	BYTE		        Ds4   v060
	BYTE	W04
	BYTE		        Dn4   v072
	BYTE	W04
	BYTE	PEND
// 048   ----------------------------------------
	BYTE		N10     Fs4   v088
	BYTE	W12
	BYTE		        Dn4 
	BYTE	W12
Vanishing_Trooper0000_3_B1:
// 049   ----------------------------------------
	BYTE	W24
// 050   ----------------------------------------
	BYTE	W24
// 051   ----------------------------------------
	BYTE	W24
// 052   ----------------------------------------
	BYTE	W24
// 053   ----------------------------------------
	BYTE	W24
// 054   ----------------------------------------
	BYTE	W24
// 055   ----------------------------------------
	BYTE	W24
// 056   ----------------------------------------
	BYTE	W24
// 057   ----------------------------------------
	BYTE	W24
// 058   ----------------------------------------
	BYTE	W24
// 059   ----------------------------------------
	BYTE	W24
// 060   ----------------------------------------
	BYTE	W24
// 061   ----------------------------------------
	BYTE	W24
// 062   ----------------------------------------
	BYTE	W24
// 063   ----------------------------------------
	BYTE	W24
// 064   ----------------------------------------
	BYTE	W24
// 065   ----------------------------------------
	BYTE	W24
// 066   ----------------------------------------
	BYTE	W24
// 067   ----------------------------------------
	BYTE	W24
// 068   ----------------------------------------
	BYTE	W24
// 069   ----------------------------------------
	BYTE	W24
// 070   ----------------------------------------
	BYTE	W24
// 071   ----------------------------------------
	BYTE	W24
// 072   ----------------------------------------
	BYTE	W24
// 073   ----------------------------------------
	BYTE	W24
// 074   ----------------------------------------
	BYTE	W24
// 075   ----------------------------------------
	BYTE	W24
// 076   ----------------------------------------
	BYTE	W24
// 077   ----------------------------------------
	BYTE	W24
// 078   ----------------------------------------
	BYTE	W24
// 079   ----------------------------------------
	BYTE	W24
// 080   ----------------------------------------
	BYTE	W24
// 081   ----------------------------------------
	BYTE	W24
// 082   ----------------------------------------
	BYTE	W24
// 083   ----------------------------------------
	BYTE	W24
// 084   ----------------------------------------
	BYTE	W24
// 085   ----------------------------------------
	BYTE	W24
// 086   ----------------------------------------
	BYTE	W24
// 087   ----------------------------------------
	BYTE	W24
// 088   ----------------------------------------
	BYTE	W24
// 089   ----------------------------------------
Vanishing_Trooper0000_3_089:
	BYTE		N06     Gn3   v072
	BYTE	W12
	BYTE		        Dn4 
	BYTE	W12
	BYTE	PEND
// 090   ----------------------------------------
Vanishing_Trooper0000_3_090:
	BYTE		N06     Gn4   v072
	BYTE	W12
	BYTE		        As4 
	BYTE	W12
	BYTE	PEND
// 091   ----------------------------------------
Vanishing_Trooper0000_3_091:
	BYTE		N06     An4   v072
	BYTE	W12
	BYTE		        Dn4 
	BYTE	W12
	BYTE	PEND
// 092   ----------------------------------------
Vanishing_Trooper0000_3_092:
	BYTE		N06     Fn4   v072
	BYTE	W12
	BYTE		        As3 
	BYTE	W12
	BYTE	PEND
// 093   ----------------------------------------
Vanishing_Trooper0000_3_093:
	BYTE		N06     Ds4   v072
	BYTE	W12
	BYTE		        Gn3 
	BYTE	W12
	BYTE	PEND
// 094   ----------------------------------------
Vanishing_Trooper0000_3_094:
	BYTE		N06     Dn4   v072
	BYTE	W12
	BYTE		        Gn3 
	BYTE	W12
	BYTE	PEND
// 095   ----------------------------------------
Vanishing_Trooper0000_3_095:
	BYTE		N06     Cn4   v072
	BYTE	W12
	BYTE		        Dn4 
	BYTE	W12
	BYTE	PEND
// 096   ----------------------------------------
Vanishing_Trooper0000_3_096:
	BYTE		N06     An3   v072
	BYTE	W12
	BYTE		        As3 
	BYTE	W12
	BYTE	PEND
// 097   ----------------------------------------
	BYTE	PATT
	 POIN2	Vanishing_Trooper0000_3_089
// 098   ----------------------------------------
	BYTE	PATT
	 POIN2	Vanishing_Trooper0000_3_090
// 099   ----------------------------------------
	BYTE	PATT
	 POIN2	Vanishing_Trooper0000_3_091
// 100   ----------------------------------------
	BYTE	PATT
	 POIN2	Vanishing_Trooper0000_3_092
// 101   ----------------------------------------
	BYTE	PATT
	 POIN2	Vanishing_Trooper0000_3_093
// 102   ----------------------------------------
	BYTE	PATT
	 POIN2	Vanishing_Trooper0000_3_094
// 103   ----------------------------------------
	BYTE		N06     Cn4   v072
	BYTE	W12
	BYTE		        Dn4   v064
	BYTE	W04
	BYTE		        Ds4 
	BYTE	W04
	BYTE		        Dn4 
	BYTE	W04
// 104   ----------------------------------------
	BYTE	PATT
	 POIN2	Vanishing_Trooper0000_3_096
// 105   ----------------------------------------
	BYTE		N06     Gn3   v072
	BYTE	W12
	BYTE		        Ds4 
	BYTE	W12
// 106   ----------------------------------------
	BYTE	PATT
	 POIN2	Vanishing_Trooper0000_3_090
// 107   ----------------------------------------
	BYTE		N06     An4   v072
	BYTE	W12
	BYTE		        Ds4 
	BYTE	W12
// 108   ----------------------------------------
	BYTE	PATT
	 POIN2	Vanishing_Trooper0000_3_092
// 109   ----------------------------------------
	BYTE	PATT
	 POIN2	Vanishing_Trooper0000_3_093
// 110   ----------------------------------------
	BYTE		N06     Dn4   v064
	BYTE	W04
	BYTE		        Ds4 
	BYTE	W04
	BYTE		        Dn4 
	BYTE	W04
	BYTE		        Gn3   v072
	BYTE	W12
// 111   ----------------------------------------
	BYTE	PATT
	 POIN2	Vanishing_Trooper0000_3_095
// 112   ----------------------------------------
	BYTE		N06     As3   v072
	BYTE	W12
	BYTE		        Cn4 
	BYTE	W12
// 113   ----------------------------------------
	BYTE	PATT
	 POIN2	Vanishing_Trooper0000_3_089
// 114   ----------------------------------------
	BYTE	PATT
	 POIN2	Vanishing_Trooper0000_3_090
// 115   ----------------------------------------
	BYTE		N06     An4   v064
	BYTE	W04
	BYTE		        As4 
	BYTE	W04
	BYTE		        An4 
	BYTE	W04
	BYTE		        Dn4   v072
	BYTE	W12
// 116   ----------------------------------------
	BYTE	PATT
	 POIN2	Vanishing_Trooper0000_3_092
// 117   ----------------------------------------
	BYTE	PATT
	 POIN2	Vanishing_Trooper0000_3_093
// 118   ----------------------------------------
	BYTE	PATT
	 POIN2	Vanishing_Trooper0000_3_094
// 119   ----------------------------------------
	BYTE	PATT
	 POIN2	Vanishing_Trooper0000_3_095
// 120   ----------------------------------------
	BYTE	PATT
	 POIN2	Vanishing_Trooper0000_3_096
// 121   ----------------------------------------
	BYTE		N06     Gn3   v060
	BYTE	W24
// 122   ----------------------------------------
	BYTE	W24
// 123   ----------------------------------------
	BYTE	W24
// 124   ----------------------------------------
	BYTE	W24
// 125   ----------------------------------------
	BYTE	W24
// 126   ----------------------------------------
	BYTE	W24
// 127   ----------------------------------------
	BYTE	W24
// 128   ----------------------------------------
	BYTE	W24
// 129   ----------------------------------------
	BYTE	W24
// 130   ----------------------------------------
	BYTE	W24
// 131   ----------------------------------------
	BYTE	W24
// 132   ----------------------------------------
	BYTE	W24
// 133   ----------------------------------------
	BYTE	W24
// 134   ----------------------------------------
	BYTE	W24
// 135   ----------------------------------------
	BYTE	W24
// 136   ----------------------------------------
	BYTE	W24
// 137   ----------------------------------------
	BYTE	W24
// 138   ----------------------------------------
	BYTE	W24
// 139   ----------------------------------------
	BYTE	W24
// 140   ----------------------------------------
	BYTE	W24
// 141   ----------------------------------------
	BYTE	W24
// 142   ----------------------------------------
	BYTE	W24
// 143   ----------------------------------------
	BYTE	W24
// 144   ----------------------------------------
	BYTE	W24
// 145   ----------------------------------------
	BYTE	W24
// 146   ----------------------------------------
	BYTE	W24
// 147   ----------------------------------------
	BYTE	W24
// 148   ----------------------------------------
	BYTE	W24
// 149   ----------------------------------------
	BYTE	W24
// 150   ----------------------------------------
	BYTE	W24
// 151   ----------------------------------------
	BYTE	W24
// 152   ----------------------------------------
	BYTE	W24
// 153   ----------------------------------------
	BYTE	W24
// 154   ----------------------------------------
	BYTE	W24
// 155   ----------------------------------------
	BYTE	W24
// 156   ----------------------------------------
	BYTE	W24
// 157   ----------------------------------------
	BYTE	W24
// 158   ----------------------------------------
	BYTE	W24
// 159   ----------------------------------------
	BYTE	W24
// 160   ----------------------------------------
	BYTE	W24
// 161   ----------------------------------------
	BYTE	W24
// 162   ----------------------------------------
	BYTE	W24
// 163   ----------------------------------------
	BYTE	W24
// 164   ----------------------------------------
	BYTE	W24
// 165   ----------------------------------------
	BYTE	W24
// 166   ----------------------------------------
	BYTE	W24
// 167   ----------------------------------------
	BYTE	W24
// 168   ----------------------------------------
	BYTE	W24
// 169   ----------------------------------------
	BYTE	W24
// 170   ----------------------------------------
	BYTE	W24
// 171   ----------------------------------------
	BYTE	W24
// 172   ----------------------------------------
	BYTE	W24
// 173   ----------------------------------------
	BYTE	W24
// 174   ----------------------------------------
	BYTE	W24
// 175   ----------------------------------------
	BYTE	W24
// 176   ----------------------------------------
	BYTE	W24
// 177   ----------------------------------------
	BYTE	W24
// 178   ----------------------------------------
	BYTE	W24
// 179   ----------------------------------------
	BYTE	W24
// 180   ----------------------------------------
	BYTE	W24
// 181   ----------------------------------------
	BYTE	W24
// 182   ----------------------------------------
	BYTE	W24
// 183   ----------------------------------------
	BYTE	W24
// 184   ----------------------------------------
	BYTE	W24
// 185   ----------------------------------------
	BYTE	W24
// 186   ----------------------------------------
	BYTE	W24
// 187   ----------------------------------------
	BYTE	W24
// 188   ----------------------------------------
	BYTE	W24
// 189   ----------------------------------------
	BYTE	W24
// 190   ----------------------------------------
	BYTE	W24
// 191   ----------------------------------------
	BYTE	W24
// 192   ----------------------------------------
	BYTE	W24
// 193   ----------------------------------------
	BYTE	W24
// 194   ----------------------------------------
	BYTE	W24
// 195   ----------------------------------------
	BYTE	W24
// 196   ----------------------------------------
	BYTE	W24
// 197   ----------------------------------------
	BYTE	W24
// 198   ----------------------------------------
	BYTE	W24
// 199   ----------------------------------------
	BYTE	W24
// 200   ----------------------------------------
	BYTE	W24
// 201   ----------------------------------------
	BYTE	W24
// 202   ----------------------------------------
	BYTE	W24
// 203   ----------------------------------------
	BYTE	W24
// 204   ----------------------------------------
	BYTE	W24
// 205   ----------------------------------------
	BYTE	W24
// 206   ----------------------------------------
	BYTE	W24
// 207   ----------------------------------------
	BYTE	W24
// 208   ----------------------------------------
	BYTE	W24
// 209   ----------------------------------------
	BYTE	W24
// 210   ----------------------------------------
	BYTE	W24
// 211   ----------------------------------------
	BYTE	W24
// 212   ----------------------------------------
	BYTE	W24
// 213   ----------------------------------------
	BYTE	W24
// 214   ----------------------------------------
	BYTE	W24
// 215   ----------------------------------------
	BYTE	W24
// 216   ----------------------------------------
	BYTE	W24
// 217   ----------------------------------------
	BYTE	W24
// 218   ----------------------------------------
	BYTE	W24
// 219   ----------------------------------------
	BYTE	W24
// 220   ----------------------------------------
	BYTE	W24
// 221   ----------------------------------------
	BYTE	W24
// 222   ----------------------------------------
	BYTE	W24
// 223   ----------------------------------------
	BYTE	W24
// 224   ----------------------------------------
	BYTE	W24
// 225   ----------------------------------------
	BYTE	W24
// 226   ----------------------------------------
	BYTE	W24
// 227   ----------------------------------------
	BYTE	W24
// 228   ----------------------------------------
	BYTE	W24
// 229   ----------------------------------------
	BYTE	W24
// 230   ----------------------------------------
	BYTE	W24
// 231   ----------------------------------------
	BYTE	W24
// 232   ----------------------------------------
	BYTE	W24
// 233   ----------------------------------------
	BYTE	W24
// 234   ----------------------------------------
	BYTE	W24
// 235   ----------------------------------------
	BYTE	W24
// 236   ----------------------------------------
	BYTE	W24
// 237   ----------------------------------------
	BYTE	W24
// 238   ----------------------------------------
	BYTE	W24
// 239   ----------------------------------------
	BYTE	W24
// 240   ----------------------------------------
	BYTE	W24
// 241   ----------------------------------------
	BYTE	W24
// 242   ----------------------------------------
	BYTE	W24
// 243   ----------------------------------------
	BYTE	W24
// 244   ----------------------------------------
	BYTE	W24
// 245   ----------------------------------------
	BYTE	W24
// 246   ----------------------------------------
	BYTE	W24
// 247   ----------------------------------------
	BYTE	W24
// 248   ----------------------------------------
	BYTE	W24
// 249   ----------------------------------------
	BYTE	W24
// 250   ----------------------------------------
	BYTE	W24
// 251   ----------------------------------------
	BYTE	W24
// 252   ----------------------------------------
	BYTE	W24
// 253   ----------------------------------------
	BYTE	W24
// 254   ----------------------------------------
	BYTE	W24
// 255   ----------------------------------------
	BYTE	W24
// 256   ----------------------------------------
	BYTE	W24
// 257   ----------------------------------------
	BYTE	W24
// 258   ----------------------------------------
	BYTE	W24
// 259   ----------------------------------------
	BYTE	W24
// 260   ----------------------------------------
	BYTE	W24
// 261   ----------------------------------------
	BYTE	W12
	BYTE		N10     Dn4   v088
	BYTE	W12
// 262   ----------------------------------------
	BYTE	PATT
	 POIN2	Vanishing_Trooper0000_3_018
// 263   ----------------------------------------
	BYTE	PATT
	 POIN2	Vanishing_Trooper0000_3_019
// 264   ----------------------------------------
	BYTE	PATT
	 POIN2	Vanishing_Trooper0000_3_020
// 265   ----------------------------------------
	BYTE	PATT
	 POIN2	Vanishing_Trooper0000_3_021
// 266   ----------------------------------------
	BYTE	PATT
	 POIN2	Vanishing_Trooper0000_3_022
// 267   ----------------------------------------
	BYTE	PATT
	 POIN2	Vanishing_Trooper0000_3_023
// 268   ----------------------------------------
	BYTE	PATT
	 POIN2	Vanishing_Trooper0000_3_024
// 269   ----------------------------------------
	BYTE	PATT
	 POIN2	Vanishing_Trooper0000_3_025
// 270   ----------------------------------------
	BYTE	PATT
	 POIN2	Vanishing_Trooper0000_3_026
// 271   ----------------------------------------
	BYTE	PATT
	 POIN2	Vanishing_Trooper0000_3_027
// 272   ----------------------------------------
	BYTE	PATT
	 POIN2	Vanishing_Trooper0000_3_028
// 273   ----------------------------------------
	BYTE	PATT
	 POIN2	Vanishing_Trooper0000_3_029
// 274   ----------------------------------------
	BYTE	PATT
	 POIN2	Vanishing_Trooper0000_3_030
// 275   ----------------------------------------
	BYTE	PATT
	 POIN2	Vanishing_Trooper0000_3_031
// 276   ----------------------------------------
	BYTE	PATT
	 POIN2	Vanishing_Trooper0000_3_032
// 277   ----------------------------------------
	BYTE	PATT
	 POIN2	Vanishing_Trooper0000_3_033
// 278   ----------------------------------------
	BYTE	PATT
	 POIN2	Vanishing_Trooper0000_3_018
// 279   ----------------------------------------
	BYTE	PATT
	 POIN2	Vanishing_Trooper0000_3_019
// 280   ----------------------------------------
	BYTE	PATT
	 POIN2	Vanishing_Trooper0000_3_020
// 281   ----------------------------------------
	BYTE	PATT
	 POIN2	Vanishing_Trooper0000_3_021
// 282   ----------------------------------------
	BYTE	PATT
	 POIN2	Vanishing_Trooper0000_3_038
// 283   ----------------------------------------
	BYTE	PATT
	 POIN2	Vanishing_Trooper0000_3_023
// 284   ----------------------------------------
	BYTE	PATT
	 POIN2	Vanishing_Trooper0000_3_024
// 285   ----------------------------------------
	BYTE	PATT
	 POIN2	Vanishing_Trooper0000_3_041
// 286   ----------------------------------------
	BYTE	PATT
	 POIN2	Vanishing_Trooper0000_3_042
// 287   ----------------------------------------
	BYTE	PATT
	 POIN2	Vanishing_Trooper0000_3_043
// 288   ----------------------------------------
	BYTE	PATT
	 POIN2	Vanishing_Trooper0000_3_044
// 289   ----------------------------------------
	BYTE	PATT
	 POIN2	Vanishing_Trooper0000_3_045
// 290   ----------------------------------------
	BYTE	PATT
	 POIN2	Vanishing_Trooper0000_3_019
// 291   ----------------------------------------
	BYTE	PATT
	 POIN2	Vanishing_Trooper0000_3_047
// 292   ----------------------------------------
	BYTE		N10     Fs4   v088
	BYTE	W12
	BYTE	GoTo
	 POIN2	Vanishing_Trooper0000_3_B1
Vanishing_Trooper0000_3_B2:
	BYTE		N10     Dn4   v088
	BYTE	W11
	BYTE	FINE

//**************** Track 4 (Midi-Chn.7) ****************//

Vanishing_Trooper0000_4:
	BYTE	KEYSH   Vanishing_Trooper0000_key+0
// 000   ----------------------------------------
	BYTE		VOICE   96
	BYTE		PAN     c_v+11
	BYTE		VOL     26*Vanishing_Trooper0000_mvl/mxv
	BYTE	W01
	BYTE	W01
	BYTE		BEND    c_v+0
	BYTE	W22
// 001   ----------------------------------------
	BYTE		N40     As2   v072
	BYTE		N40     Dn3 
	BYTE	W24
// 002   ----------------------------------------
	BYTE	W24
// 003   ----------------------------------------
	BYTE		N32   
	BYTE		N32     Gn3 
	BYTE	W24
// 004   ----------------------------------------
	BYTE	W12
	BYTE		N04     Cn3   v084
	BYTE		N04     Fn3 
	BYTE	W06
	BYTE		        Dn3 
	BYTE		N04     Gn3 
	BYTE	W06
// 005   ----------------------------------------
	BYTE		N40     Ds3   v072
	BYTE		N40     Gn3 
	BYTE	W24
// 006   ----------------------------------------
	BYTE	W24
// 007   ----------------------------------------
	BYTE		        As2 
	BYTE		N40     Gn3 
	BYTE	W24
// 008   ----------------------------------------
	BYTE	W24
// 009   ----------------------------------------
	BYTE		        Dn3   v092
	BYTE		N40     As3 
	BYTE	W24
// 010   ----------------------------------------
	BYTE	W24
// 011   ----------------------------------------
	BYTE		        Gn3 
	BYTE		N40     Dn4 
	BYTE	W24
// 012   ----------------------------------------
	BYTE	W24
// 013   ----------------------------------------
	BYTE		N36     As3 
	BYTE		N21     An4   v120
	BYTE	W24
// 014   ----------------------------------------
	BYTE		        Gn4 
	BYTE	W24
// 015   ----------------------------------------
	BYTE		N36     Gn3   v092
	BYTE		N21     Fn4   v120
	BYTE	W24
// 016   ----------------------------------------
	BYTE		        Dn4 
	BYTE	W24
// 017   ----------------------------------------
Vanishing_Trooper0000_4_017:
	BYTE		TIE     Gn2   v072
	BYTE		N92     As2 
	BYTE	W24
	BYTE	PEND
// 018   ----------------------------------------
	BYTE	W24
// 019   ----------------------------------------
	BYTE	W24
// 020   ----------------------------------------
	BYTE	W24
// 021   ----------------------------------------
	BYTE		        As3 
	BYTE	W24
// 022   ----------------------------------------
	BYTE	W24
// 023   ----------------------------------------
	BYTE	W24
// 024   ----------------------------------------
	BYTE	W22
	BYTE		EOT     Gn2 
	BYTE	W02
// 025   ----------------------------------------
Vanishing_Trooper0000_4_025:
	BYTE		TIE     Gs2   v072
	BYTE		N92     Bn2 
	BYTE	W24
	BYTE	PEND
// 026   ----------------------------------------
	BYTE	W24
// 027   ----------------------------------------
	BYTE	W24
// 028   ----------------------------------------
	BYTE	W24
// 029   ----------------------------------------
	BYTE		        Bn3 
	BYTE	W24
// 030   ----------------------------------------
	BYTE	W24
// 031   ----------------------------------------
	BYTE	W24
// 032   ----------------------------------------
	BYTE	W22
	BYTE		EOT     Gs2 
	BYTE	W02
// 033   ----------------------------------------
	BYTE	PATT
	 POIN2	Vanishing_Trooper0000_4_017
// 034   ----------------------------------------
	BYTE	W24
// 035   ----------------------------------------
	BYTE	W24
// 036   ----------------------------------------
	BYTE	W24
// 037   ----------------------------------------
	BYTE		N92     As3   v072
	BYTE	W24
// 038   ----------------------------------------
	BYTE	W24
// 039   ----------------------------------------
	BYTE	W24
// 040   ----------------------------------------
	BYTE	W22
	BYTE		EOT     Gn2 
	BYTE	W02
// 041   ----------------------------------------
	BYTE		N92   
	BYTE		N92     As2 
	BYTE	W24
// 042   ----------------------------------------
	BYTE	W24
// 043   ----------------------------------------
	BYTE	W24
// 044   ----------------------------------------
	BYTE	W24
// 045   ----------------------------------------
	BYTE		        Fs2 
	BYTE		N92     Dn3 
	BYTE	W24
// 046   ----------------------------------------
	BYTE	W24
// 047   ----------------------------------------
	BYTE	W24
// 048   ----------------------------------------
	BYTE	W24
Vanishing_Trooper0000_4_B1:
// 049   ----------------------------------------
	BYTE	W24
// 050   ----------------------------------------
	BYTE	W24
// 051   ----------------------------------------
	BYTE	W24
// 052   ----------------------------------------
	BYTE	W24
// 053   ----------------------------------------
	BYTE	W24
// 054   ----------------------------------------
	BYTE	W24
// 055   ----------------------------------------
	BYTE	W24
// 056   ----------------------------------------
	BYTE	W24
// 057   ----------------------------------------
Vanishing_Trooper0000_4_057:
	BYTE		N90     As3   v076
	BYTE		TIE     Dn4 
	BYTE	W24
	BYTE	PEND
// 058   ----------------------------------------
	BYTE	W24
// 059   ----------------------------------------
	BYTE	W24
// 060   ----------------------------------------
	BYTE	W24
// 061   ----------------------------------------
	BYTE		N90     An3 
	BYTE	W24
// 062   ----------------------------------------
	BYTE	W24
// 063   ----------------------------------------
	BYTE	W24
// 064   ----------------------------------------
	BYTE	W24
// 065   ----------------------------------------
	BYTE		        Gn3 
	BYTE	W24
// 066   ----------------------------------------
	BYTE	W24
// 067   ----------------------------------------
	BYTE	W24
// 068   ----------------------------------------
	BYTE	W24
// 069   ----------------------------------------
	BYTE		        An3 
	BYTE	W24
// 070   ----------------------------------------
	BYTE	W24
// 071   ----------------------------------------
	BYTE	W24
// 072   ----------------------------------------
	BYTE	W18
	BYTE		EOT     Dn4 
	BYTE	W06
// 073   ----------------------------------------
	BYTE		TIE     As3 
	BYTE		N90     Gn4 
	BYTE	W24
// 074   ----------------------------------------
	BYTE	W24
// 075   ----------------------------------------
	BYTE	W24
// 076   ----------------------------------------
	BYTE	W24
// 077   ----------------------------------------
	BYTE		        Fn4 
	BYTE	W24
// 078   ----------------------------------------
	BYTE	W24
// 079   ----------------------------------------
	BYTE	W24
// 080   ----------------------------------------
	BYTE	W24
// 081   ----------------------------------------
	BYTE		        Gn4 
	BYTE	W24
// 082   ----------------------------------------
	BYTE	W24
// 083   ----------------------------------------
	BYTE	W24
// 084   ----------------------------------------
	BYTE	W24
// 085   ----------------------------------------
	BYTE		N42     As4 
	BYTE	W24
// 086   ----------------------------------------
	BYTE	W18
	BYTE		EOT     As3 
	BYTE	W06
// 087   ----------------------------------------
	BYTE		N42   
	BYTE		N42     An4 
	BYTE	W24
// 088   ----------------------------------------
	BYTE	W24
// 089   ----------------------------------------
	BYTE	PATT
	 POIN2	Vanishing_Trooper0000_4_057
// 090   ----------------------------------------
	BYTE	W24
// 091   ----------------------------------------
	BYTE	W24
// 092   ----------------------------------------
	BYTE	W24
// 093   ----------------------------------------
	BYTE		N90     An3   v076
	BYTE	W24
// 094   ----------------------------------------
	BYTE	W24
// 095   ----------------------------------------
	BYTE	W24
// 096   ----------------------------------------
	BYTE	W24
// 097   ----------------------------------------
	BYTE		        Gn3 
	BYTE	W24
// 098   ----------------------------------------
	BYTE	W24
// 099   ----------------------------------------
	BYTE	W24
// 100   ----------------------------------------
	BYTE	W24
// 101   ----------------------------------------
	BYTE		        An3 
	BYTE	W24
// 102   ----------------------------------------
	BYTE	W24
// 103   ----------------------------------------
	BYTE	W24
// 104   ----------------------------------------
	BYTE	W18
	BYTE		EOT     Dn4 
	BYTE	W06
// 105   ----------------------------------------
	BYTE		TIE     As3 
	BYTE	W24
// 106   ----------------------------------------
	BYTE	W24
// 107   ----------------------------------------
	BYTE	W24
// 108   ----------------------------------------
	BYTE	W24
// 109   ----------------------------------------
	BYTE	W24
// 110   ----------------------------------------
	BYTE	W24
// 111   ----------------------------------------
	BYTE	W24
// 112   ----------------------------------------
	BYTE	W24
// 113   ----------------------------------------
	BYTE	W24
// 114   ----------------------------------------
	BYTE	W24
// 115   ----------------------------------------
	BYTE	W24
// 116   ----------------------------------------
	BYTE	W24
// 117   ----------------------------------------
	BYTE	W24
// 118   ----------------------------------------
	BYTE	W18
	BYTE		EOT   
	BYTE	W06
// 119   ----------------------------------------
	BYTE		N42   
	BYTE	W24
// 120   ----------------------------------------
	BYTE	W24
// 121   ----------------------------------------
	BYTE		N90   
	BYTE		N90     Gn4 
	BYTE	W24
// 122   ----------------------------------------
	BYTE	W24
// 123   ----------------------------------------
	BYTE	W24
// 124   ----------------------------------------
	BYTE	W24
// 125   ----------------------------------------
	BYTE		        An3   v084
	BYTE		N90     Fn4 
	BYTE	W24
// 126   ----------------------------------------
	BYTE	W24
// 127   ----------------------------------------
	BYTE	W24
// 128   ----------------------------------------
	BYTE	W24
// 129   ----------------------------------------
	BYTE		TIE     Gn3   v072
	BYTE		N30     Ds4   v084
	BYTE	W24
// 130   ----------------------------------------
	BYTE	W12
	BYTE		        Dn4 
	BYTE	W12
// 131   ----------------------------------------
	BYTE	W24
// 132   ----------------------------------------
	BYTE		        Cn4 
	BYTE	W24
// 133   ----------------------------------------
	BYTE	W12
	BYTE		N78     As3 
	BYTE	W12
// 134   ----------------------------------------
	BYTE	W24
// 135   ----------------------------------------
	BYTE	W24
// 136   ----------------------------------------
	BYTE	W18
	BYTE		EOT     Gn3 
	BYTE	W06
// 137   ----------------------------------------
	BYTE		N42     As2   v088
	BYTE		N42     Gn3 
	BYTE	W24
// 138   ----------------------------------------
	BYTE	W24
// 139   ----------------------------------------
	BYTE		        Ds3   v084
	BYTE		N42     As3   v088
	BYTE	W24
// 140   ----------------------------------------
	BYTE	W24
// 141   ----------------------------------------
	BYTE		N18     Cn3 
	BYTE		N18     An3   v096
	BYTE	W24
// 142   ----------------------------------------
	BYTE		N66     An3   v088
	BYTE		N66     Cn4 
	BYTE	W24
// 143   ----------------------------------------
	BYTE	W24
// 144   ----------------------------------------
	BYTE	W24
// 145   ----------------------------------------
	BYTE		N42     As3   v084
	BYTE		N42     Dn4 
	BYTE	W24
// 146   ----------------------------------------
	BYTE	W24
// 147   ----------------------------------------
	BYTE		        An3 
	BYTE		N42     Cn4 
	BYTE	W24
// 148   ----------------------------------------
	BYTE	W24
// 149   ----------------------------------------
	BYTE		N22     As3   v088
	BYTE		N22     Dn4 
	BYTE	W24
// 150   ----------------------------------------
	BYTE		        Gn3 
	BYTE		N22     As3 
	BYTE	W24
// 151   ----------------------------------------
	BYTE		        An3 
	BYTE		N22     Cn4 
	BYTE	W24
// 152   ----------------------------------------
	BYTE		        As3 
	BYTE		N22     Dn4 
	BYTE	W24
// 153   ----------------------------------------
	BYTE		N90     As3   v072
	BYTE		N90     Gn4   v084
	BYTE	W24
// 154   ----------------------------------------
	BYTE	W24
// 155   ----------------------------------------
	BYTE	W24
// 156   ----------------------------------------
	BYTE	W24
// 157   ----------------------------------------
	BYTE		        Cn4   v072
	BYTE		N90     An4   v076
	BYTE	W24
// 158   ----------------------------------------
	BYTE	W24
// 159   ----------------------------------------
	BYTE	W24
// 160   ----------------------------------------
	BYTE	W24
// 161   ----------------------------------------
	BYTE		TIE     Gn3   v072
	BYTE	W24
// 162   ----------------------------------------
	BYTE	W24
// 163   ----------------------------------------
	BYTE	W24
// 164   ----------------------------------------
	BYTE	W24
// 165   ----------------------------------------
	BYTE	W12
	BYTE		N78     As3   v088
	BYTE	W12
// 166   ----------------------------------------
	BYTE	W24
// 167   ----------------------------------------
	BYTE	W24
// 168   ----------------------------------------
	BYTE	W18
	BYTE		EOT     Gn3 
	BYTE	W06
// 169   ----------------------------------------
	BYTE		N90     Gn3   v072
	BYTE		N90     As3 
	BYTE	W24
// 170   ----------------------------------------
	BYTE	W24
// 171   ----------------------------------------
	BYTE	W24
// 172   ----------------------------------------
	BYTE	W24
// 173   ----------------------------------------
	BYTE		N42     Cn4   v084
	BYTE		N90     Ds4 
	BYTE	W24
// 174   ----------------------------------------
	BYTE	W24
// 175   ----------------------------------------
	BYTE		N42     As3 
	BYTE	W24
// 176   ----------------------------------------
	BYTE	W24
// 177   ----------------------------------------
	BYTE		N22     An3   v092
	BYTE		N22     Fn4 
	BYTE	W24
// 178   ----------------------------------------
	BYTE		        Fn3 
	BYTE		N22     Dn4 
	BYTE	W24
// 179   ----------------------------------------
	BYTE		        An3 
	BYTE		N22     Ds4 
	BYTE	W24
// 180   ----------------------------------------
	BYTE		        An3 
	BYTE		N22     Fn4 
	BYTE	W24
// 181   ----------------------------------------
	BYTE		        Fn4   v088
	BYTE		N22     An4 
	BYTE	W24
// 182   ----------------------------------------
	BYTE		        Dn4 
	BYTE		N22     Fn4 
	BYTE	W24
// 183   ----------------------------------------
	BYTE		N22   
	BYTE		N22     An4 
	BYTE	W24
// 184   ----------------------------------------
	BYTE		        Fn4 
	BYTE		N22     Dn5   v076
	BYTE	W23
	BYTE		N07     An3   v108
	BYTE		N07     Fn4 
	BYTE	W01
// 185   ----------------------------------------
	BYTE	W11
	BYTE		        Dn3   v096
	BYTE		N07     Fn3 
	BYTE	W12
	BYTE		N07   
	BYTE		N07     An3 
	BYTE	W01
// 186   ----------------------------------------
	BYTE	W11
	BYTE		        An3   v108
	BYTE		N07     Fn4 
	BYTE	W12
	BYTE		        Dn3   v096
	BYTE		N07     Fn3 
	BYTE	W01
// 187   ----------------------------------------
	BYTE	W11
	BYTE		N07   
	BYTE		N07     An3 
	BYTE	W12
	BYTE		        An3   v108
	BYTE		N07     Fn4 
	BYTE	W01
// 188   ----------------------------------------
	BYTE	W11
	BYTE		        Dn3   v096
	BYTE		N07     Fn3 
	BYTE	W12
	BYTE		        Fs3 
	BYTE		N07     An3 
	BYTE	W01
// 189   ----------------------------------------
	BYTE	W11
	BYTE		        An3   v108
	BYTE		N07     Fs4 
	BYTE	W12
	BYTE		        Dn3   v096
	BYTE		N07     Fs3 
	BYTE	W01
// 190   ----------------------------------------
	BYTE	W11
	BYTE		N07   
	BYTE		N07     An3 
	BYTE	W12
	BYTE		        An3   v108
	BYTE		N07     Fs4 
	BYTE	W01
// 191   ----------------------------------------
	BYTE	W11
	BYTE		        Dn3   v096
	BYTE		N07     Fs3 
	BYTE	W12
	BYTE		N07   
	BYTE		N07     An3 
	BYTE	W01
// 192   ----------------------------------------
	BYTE	W11
	BYTE		        Dn4   v108
	BYTE		N07     Fs4 
	BYTE	W13
// 193   ----------------------------------------
Vanishing_Trooper0000_4_193:
	BYTE		N44     Dn4   v084
	BYTE		N44     Gn4   v076
	BYTE	W24
	BYTE	PEND
// 194   ----------------------------------------
	BYTE	W24
// 195   ----------------------------------------
	BYTE		N68     Dn4 
	BYTE		N68     Gn4 
	BYTE	W24
// 196   ----------------------------------------
	BYTE	W24
// 197   ----------------------------------------
	BYTE	W24
// 198   ----------------------------------------
	BYTE		N22     Dn4   v088
	BYTE		N22     Gn4 
	BYTE	W24
// 199   ----------------------------------------
	BYTE		        Gn3 
	BYTE		N22     Dn4 
	BYTE	W24
// 200   ----------------------------------------
	BYTE		        Gn3 
	BYTE		N22     Fn4 
	BYTE	W24
// 201   ----------------------------------------
	BYTE		N44     Ds4   v076
	BYTE		N44     Gn4 
	BYTE	W24
// 202   ----------------------------------------
	BYTE	W24
// 203   ----------------------------------------
Vanishing_Trooper0000_4_203:
	BYTE		N22     Gn3   v088
	BYTE		N44     Ds4   v092
	BYTE	W24
	BYTE	PEND
// 204   ----------------------------------------
	BYTE		N22     Cn5   v084
	BYTE	W24
// 205   ----------------------------------------
Vanishing_Trooper0000_4_205:
	BYTE		N44     En4   v080
	BYTE		N44     An4   v092
	BYTE	W24
	BYTE	PEND
// 206   ----------------------------------------
	BYTE	W24
// 207   ----------------------------------------
	BYTE		        An3   v080
	BYTE		N44     En4 
	BYTE	W24
// 208   ----------------------------------------
	BYTE	W24
// 209   ----------------------------------------
	BYTE		        An3   v084
	BYTE		N44     Fn4 
	BYTE	W24
// 210   ----------------------------------------
	BYTE	W24
// 211   ----------------------------------------
	BYTE		        Cn4 
	BYTE		N44     An4 
	BYTE	W24
// 212   ----------------------------------------
	BYTE	W24
// 213   ----------------------------------------
	BYTE		        As3 
	BYTE		N44     Gn4 
	BYTE	W24
// 214   ----------------------------------------
	BYTE	W24
// 215   ----------------------------------------
	BYTE		        Ds4 
	BYTE		N44     As4 
	BYTE	W24
// 216   ----------------------------------------
Vanishing_Trooper0000_4_216:
	BYTE	W23
	BYTE		N07     Dn3   v104
	BYTE		N07     Fn3 
	BYTE	W01
	BYTE	PEND
// 217   ----------------------------------------
	BYTE	W11
	BYTE		        Fn3   v092
	BYTE		N07     Dn4 
	BYTE	W12
	BYTE		        An3 
	BYTE		N07     Fn4 
	BYTE	W01
// 218   ----------------------------------------
	BYTE	W11
	BYTE		        Fn3   v104
	BYTE		N07     Dn4 
	BYTE	W12
	BYTE		        An3   v092
	BYTE		N07     Fn4 
	BYTE	W01
// 219   ----------------------------------------
	BYTE	W11
	BYTE		        Dn4 
	BYTE		N07     Fn4 
	BYTE	W12
	BYTE		        An3   v104
	BYTE		N07     Fn4 
	BYTE	W01
// 220   ----------------------------------------
	BYTE	W11
	BYTE		        Dn4   v092
	BYTE		N07     Fn4 
	BYTE	W12
	BYTE		        Fs4   v104
	BYTE		N07     Dn5   v088
	BYTE	W01
// 221   ----------------------------------------
	BYTE	W11
	BYTE		        Dn4   v092
	BYTE		N07     Fs4 
	BYTE	W12
	BYTE		        Dn4   v104
	BYTE		N07     Fs4 
	BYTE	W01
// 222   ----------------------------------------
	BYTE	W11
	BYTE		        An3   v092
	BYTE		N07     Fs4 
	BYTE	W12
	BYTE		        An3   v104
	BYTE		N07     Fs4 
	BYTE	W01
// 223   ----------------------------------------
	BYTE	W11
	BYTE		        Fs3   v092
	BYTE		N07     Dn4 
	BYTE	W12
	BYTE		        Fs3   v104
	BYTE		N07     Dn4 
	BYTE	W01
// 224   ----------------------------------------
	BYTE	W11
	BYTE		        Dn3   v092
	BYTE		N07     Fs3 
	BYTE	W13
// 225   ----------------------------------------
	BYTE	PATT
	 POIN2	Vanishing_Trooper0000_4_193
// 226   ----------------------------------------
	BYTE	W24
// 227   ----------------------------------------
	BYTE		N68     Dn4   v076
	BYTE		N68     Gn4 
	BYTE	W24
// 228   ----------------------------------------
	BYTE	W24
// 229   ----------------------------------------
	BYTE	W24
// 230   ----------------------------------------
	BYTE		N22     Dn4   v084
	BYTE		N22     Gn4 
	BYTE	W24
// 231   ----------------------------------------
	BYTE		        Gn3 
	BYTE		N22     Dn4 
	BYTE	W24
// 232   ----------------------------------------
	BYTE		        Gn3 
	BYTE		N22     Fn4 
	BYTE	W24
// 233   ----------------------------------------
	BYTE		N44     Ds4   v076
	BYTE	W24
// 234   ----------------------------------------
	BYTE	W24
// 235   ----------------------------------------
	BYTE	PATT
	 POIN2	Vanishing_Trooper0000_4_203
// 236   ----------------------------------------
	BYTE		N22     Cn5   v084
	BYTE	W24
// 237   ----------------------------------------
	BYTE	PATT
	 POIN2	Vanishing_Trooper0000_4_205
// 238   ----------------------------------------
	BYTE	W24
// 239   ----------------------------------------
	BYTE		N44     An3   v080
	BYTE		N44     En4 
	BYTE	W24
// 240   ----------------------------------------
	BYTE	W24
// 241   ----------------------------------------
	BYTE		        An3   v084
	BYTE		N44     Fn4 
	BYTE	W24
// 242   ----------------------------------------
	BYTE	W24
// 243   ----------------------------------------
	BYTE		        Cn4 
	BYTE		N44     An4 
	BYTE	W24
// 244   ----------------------------------------
	BYTE	W24
// 245   ----------------------------------------
	BYTE		        As3 
	BYTE		N44     Gn4 
	BYTE	W24
// 246   ----------------------------------------
	BYTE	W24
// 247   ----------------------------------------
	BYTE		        Ds4 
	BYTE		N44     As4 
	BYTE	W24
// 248   ----------------------------------------
	BYTE	PATT
	 POIN2	Vanishing_Trooper0000_4_216
// 249   ----------------------------------------
	BYTE	W11
	BYTE		N07     Fn3   v096
	BYTE		N07     Dn4 
	BYTE	W12
	BYTE		        An3 
	BYTE		N07     Fn4 
	BYTE	W01
// 250   ----------------------------------------
	BYTE	W11
	BYTE		        Fn3   v104
	BYTE		N07     Dn4 
	BYTE	W12
	BYTE		        An3   v096
	BYTE		N07     Fn4 
	BYTE	W01
// 251   ----------------------------------------
	BYTE	W11
	BYTE		        Dn4 
	BYTE		N07     Fn4 
	BYTE	W12
	BYTE		        An3   v104
	BYTE		N07     Fn4 
	BYTE	W01
// 252   ----------------------------------------
	BYTE	W11
	BYTE		        Dn4   v096
	BYTE		N07     Fn4 
	BYTE	W12
	BYTE		        Fs4   v104
	BYTE		N07     Dn5   v092
	BYTE	W01
// 253   ----------------------------------------
	BYTE	W11
	BYTE		        Dn4   v096
	BYTE		N07     Fs4 
	BYTE	W12
	BYTE		        Dn4   v104
	BYTE		N07     Fs4 
	BYTE	W01
// 254   ----------------------------------------
	BYTE	W11
	BYTE		N07   
	BYTE		N07     Dn5   v092
	BYTE	W12
	BYTE		        Dn4   v096
	BYTE		N07     Fs4 
	BYTE	W01
// 255   ----------------------------------------
	BYTE	W11
	BYTE		        Dn4 
	BYTE		N07     Fs4 
	BYTE	W12
	BYTE		        Fs3 
	BYTE		N07     Dn4 
	BYTE	W01
// 256   ----------------------------------------
	BYTE	W11
	BYTE		N19     Dn4   v100
	BYTE		N19     Fs4 
	BYTE	W13
// 257   ----------------------------------------
	BYTE	W24
// 258   ----------------------------------------
	BYTE	W24
// 259   ----------------------------------------
	BYTE	W24
// 260   ----------------------------------------
	BYTE	W24
// 261   ----------------------------------------
	BYTE	PATT
	 POIN2	Vanishing_Trooper0000_4_017
// 262   ----------------------------------------
	BYTE	W24
// 263   ----------------------------------------
	BYTE	W24
// 264   ----------------------------------------
	BYTE	W24
// 265   ----------------------------------------
	BYTE		N92     As3   v072
	BYTE	W24
// 266   ----------------------------------------
	BYTE	W24
// 267   ----------------------------------------
	BYTE	W24
// 268   ----------------------------------------
	BYTE	W22
	BYTE		EOT     Gn2 
	BYTE	W02
// 269   ----------------------------------------
	BYTE	PATT
	 POIN2	Vanishing_Trooper0000_4_025
// 270   ----------------------------------------
	BYTE	W24
// 271   ----------------------------------------
	BYTE	W24
// 272   ----------------------------------------
	BYTE	W24
// 273   ----------------------------------------
	BYTE		N92     Bn3   v072
	BYTE	W24
// 274   ----------------------------------------
	BYTE	W24
// 275   ----------------------------------------
	BYTE	W24
// 276   ----------------------------------------
	BYTE	W22
	BYTE		EOT     Gs2 
	BYTE	W02
// 277   ----------------------------------------
	BYTE	PATT
	 POIN2	Vanishing_Trooper0000_4_017
// 278   ----------------------------------------
	BYTE	W24
// 279   ----------------------------------------
	BYTE	W24
// 280   ----------------------------------------
	BYTE	W24
// 281   ----------------------------------------
	BYTE		N92     As3   v072
	BYTE	W24
// 282   ----------------------------------------
	BYTE	W24
// 283   ----------------------------------------
	BYTE	W24
// 284   ----------------------------------------
	BYTE	W22
	BYTE		EOT     Gn2 
	BYTE	W02
// 285   ----------------------------------------
	BYTE		N92   
	BYTE		N92     As2 
	BYTE	W24
// 286   ----------------------------------------
	BYTE	W24
// 287   ----------------------------------------
	BYTE	W24
// 288   ----------------------------------------
	BYTE	W24
// 289   ----------------------------------------
	BYTE		        Dn2 
	BYTE		N92     An2 
	BYTE	W24
// 290   ----------------------------------------
	BYTE	W24
// 291   ----------------------------------------
	BYTE	W24
// 292   ----------------------------------------
	BYTE	W12
	BYTE	GoTo
	 POIN2	Vanishing_Trooper0000_4_B1
Vanishing_Trooper0000_4_B2:
	BYTE	W11
	BYTE	FINE

//**************** Track 5 (Midi-Chn.8) ****************//

Vanishing_Trooper0000_5:
	BYTE	KEYSH   Vanishing_Trooper0000_key+0
// 000   ----------------------------------------
	BYTE		VOICE   43
	BYTE		PAN     c_v-17
	BYTE	W01
	BYTE		VOL     29*Vanishing_Trooper0000_mvl/mxv
	BYTE	W01
	BYTE		BEND    c_v+0
	BYTE	W22
// 001   ----------------------------------------
	BYTE		N40     As2   v072
	BYTE		N40     Dn3 
	BYTE		N40     Gn3   v104
	BYTE	W24
// 002   ----------------------------------------
	BYTE	W24
// 003   ----------------------------------------
	BYTE		N32     Dn3   v072
	BYTE		N32     Gn3 
	BYTE		N32     As3   v104
	BYTE	W24
// 004   ----------------------------------------
	BYTE	W12
	BYTE		N04     Cn3   v084
	BYTE		N04     Fn3 
	BYTE		N04     An3   v104
	BYTE	W06
	BYTE		        Dn3   v084
	BYTE		N04     Gn3 
	BYTE		N04     As3   v104
	BYTE	W06
// 005   ----------------------------------------
	BYTE		N40     Ds3   v072
	BYTE		N40     Gn3 
	BYTE		N40     Cn4   v104
	BYTE	W24
// 006   ----------------------------------------
	BYTE	W24
// 007   ----------------------------------------
	BYTE		        As2   v072
	BYTE		N40     Gn3 
	BYTE		N40     Dn4   v104
	BYTE	W24
// 008   ----------------------------------------
	BYTE	W24
// 009   ----------------------------------------
	BYTE		        Dn3   v072
	BYTE		N40     As3 
	BYTE		N40     Gn4   v100
	BYTE	W24
// 010   ----------------------------------------
	BYTE	W24
// 011   ----------------------------------------
	BYTE		        Gn3   v072
	BYTE		N40     Dn4 
	BYTE		N40     As4   v100
	BYTE	W24
// 012   ----------------------------------------
	BYTE	W24
// 013   ----------------------------------------
	BYTE		N36     Dn3   v072
	BYTE		N36     As3 
	BYTE		N21     An4   v100
	BYTE	W24
// 014   ----------------------------------------
	BYTE		        Gn4 
	BYTE	W24
// 015   ----------------------------------------
	BYTE		N44     As2   v072
	BYTE		N44     Gn3 
	BYTE		N21     Fn4   v100
	BYTE	W24
// 016   ----------------------------------------
	BYTE		N23     Dn4 
	BYTE	W24
// 017   ----------------------------------------
	BYTE		N16     As3   v076
	BYTE		N16     Dn4 
	BYTE		N16     Gn4   v096
	BYTE	W24
// 018   ----------------------------------------
	BYTE	W24
// 019   ----------------------------------------
	BYTE	W24
// 020   ----------------------------------------
	BYTE	W24
// 021   ----------------------------------------
	BYTE	W24
// 022   ----------------------------------------
	BYTE	W24
// 023   ----------------------------------------
	BYTE	W24
// 024   ----------------------------------------
	BYTE	W24
// 025   ----------------------------------------
	BYTE	W24
// 026   ----------------------------------------
	BYTE	W24
// 027   ----------------------------------------
	BYTE	W24
// 028   ----------------------------------------
	BYTE	W24
// 029   ----------------------------------------
	BYTE	W24
// 030   ----------------------------------------
	BYTE	W24
// 031   ----------------------------------------
	BYTE	W24
// 032   ----------------------------------------
	BYTE	W24
// 033   ----------------------------------------
	BYTE	W24
// 034   ----------------------------------------
	BYTE	W24
// 035   ----------------------------------------
	BYTE	W24
// 036   ----------------------------------------
	BYTE	W24
// 037   ----------------------------------------
	BYTE	W24
// 038   ----------------------------------------
	BYTE	W24
// 039   ----------------------------------------
	BYTE	W24
// 040   ----------------------------------------
	BYTE	W24
// 041   ----------------------------------------
	BYTE	W24
// 042   ----------------------------------------
	BYTE	W24
// 043   ----------------------------------------
	BYTE	W24
// 044   ----------------------------------------
	BYTE	W24
// 045   ----------------------------------------
	BYTE	W24
// 046   ----------------------------------------
	BYTE	W24
// 047   ----------------------------------------
	BYTE	W24
// 048   ----------------------------------------
	BYTE	W24
Vanishing_Trooper0000_5_B1:
// 049   ----------------------------------------
	BYTE	W24
// 050   ----------------------------------------
	BYTE	W24
// 051   ----------------------------------------
	BYTE	W24
// 052   ----------------------------------------
	BYTE		BEND    c_v+0
	BYTE	W24
// 053   ----------------------------------------
	BYTE	W24
// 054   ----------------------------------------
	BYTE	W24
// 055   ----------------------------------------
Vanishing_Trooper0000_5_055:
	BYTE		N10     Dn2   v108
	BYTE		N10     Dn3   v092
	BYTE	W12
	BYTE		        Fn2   v108
	BYTE		N10     Fn3   v092
	BYTE	W12
	BYTE	PEND
// 056   ----------------------------------------
Vanishing_Trooper0000_5_056:
	BYTE		N10     As2   v108
	BYTE		N10     As3   v092
	BYTE	W12
	BYTE		        Cn3   v108
	BYTE		N10     Cn4   v092
	BYTE	W12
	BYTE	PEND
// 057   ----------------------------------------
	BYTE		TIE     Dn3   v108
	BYTE		TIE     Dn4   v092
	BYTE	W06
	BYTE		BEND    c_v+0
	BYTE	W06
	BYTE		        c_v+1
	BYTE	W01
	BYTE		        c_v+2
	BYTE	W02
	BYTE		        c_v+1
	BYTE	W01
	BYTE		        c_v+0
	BYTE	W02
	BYTE		        c_v-1
	BYTE	W01
	BYTE		        c_v-2
	BYTE	W02
	BYTE		        c_v-1
	BYTE	W01
	BYTE		        c_v+0
	BYTE	W02
// 058   ----------------------------------------
Vanishing_Trooper0000_5_058:
	BYTE		BEND    c_v+1
	BYTE	W01
	BYTE		        c_v+2
	BYTE	W02
	BYTE		        c_v+3
	BYTE	W01
	BYTE		        c_v+2
	BYTE	W02
	BYTE		        c_v+1
	BYTE	W01
	BYTE		        c_v+0
	BYTE	W02
	BYTE		        c_v-1
	BYTE	W01
	BYTE		        c_v-2
	BYTE	W02
	BYTE		        c_v-1
	BYTE	W01
	BYTE		        c_v+0
	BYTE	W02
	BYTE		        c_v+1
	BYTE	W01
	BYTE		        c_v+2
	BYTE	W02
	BYTE		        c_v+3
	BYTE	W01
	BYTE		        c_v+4
	BYTE	W02
	BYTE		        c_v+3
	BYTE	W01
	BYTE		        c_v+2
	BYTE	W02
	BYTE	PEND
// 059   ----------------------------------------
Vanishing_Trooper0000_5_059:
	BYTE		BEND    c_v+1
	BYTE	W01
	BYTE		        c_v+0
	BYTE	W02
	BYTE		        c_v-1
	BYTE	W01
	BYTE		        c_v-2
	BYTE	W02
	BYTE		        c_v-1
	BYTE	W01
	BYTE		        c_v+0
	BYTE	W02
	BYTE		        c_v+1
	BYTE	W01
	BYTE		        c_v+2
	BYTE	W02
	BYTE		        c_v+3
	BYTE	W01
	BYTE		        c_v+4
	BYTE	W02
	BYTE		        c_v+3
	BYTE	W01
	BYTE		        c_v+2
	BYTE	W02
	BYTE		        c_v+1
	BYTE	W01
	BYTE		        c_v+0
	BYTE	W02
	BYTE		        c_v-1
	BYTE	W01
	BYTE		        c_v-2
	BYTE	W02
	BYTE	PEND
// 060   ----------------------------------------
Vanishing_Trooper0000_5_060:
	BYTE		BEND    c_v-1
	BYTE	W01
	BYTE		        c_v+0
	BYTE	W02
	BYTE		        c_v+1
	BYTE	W01
	BYTE		        c_v+2
	BYTE	W02
	BYTE		        c_v+3
	BYTE	W01
	BYTE		        c_v+4
	BYTE	W02
	BYTE		        c_v+3
	BYTE	W01
	BYTE		        c_v+2
	BYTE	W02
	BYTE		        c_v+1
	BYTE	W01
	BYTE		        c_v+0
	BYTE	W02
	BYTE		        c_v-1
	BYTE	W01
	BYTE		        c_v-2
	BYTE	W02
	BYTE		        c_v-1
	BYTE	W01
	BYTE		        c_v+0
	BYTE	W02
	BYTE		        c_v+1
	BYTE	W01
	BYTE		        c_v+2
	BYTE	W02
	BYTE	PEND
// 061   ----------------------------------------
Vanishing_Trooper0000_5_061:
	BYTE		BEND    c_v+3
	BYTE	W01
	BYTE		        c_v+4
	BYTE	W02
	BYTE		        c_v+3
	BYTE	W01
	BYTE		        c_v+2
	BYTE	W02
	BYTE		        c_v+1
	BYTE	W01
	BYTE		        c_v+0
	BYTE	W02
	BYTE		        c_v-1
	BYTE	W01
	BYTE		        c_v-2
	BYTE	W02
	BYTE		        c_v-1
	BYTE	W01
	BYTE		        c_v+0
	BYTE	W02
	BYTE		        c_v+1
	BYTE	W01
	BYTE		        c_v+2
	BYTE	W02
	BYTE		        c_v+3
	BYTE	W01
	BYTE		        c_v+4
	BYTE	W02
	BYTE		        c_v+3
	BYTE	W01
	BYTE		        c_v+2
	BYTE	W02
	BYTE	PEND
// 062   ----------------------------------------
Vanishing_Trooper0000_5_062:
	BYTE		BEND    c_v+1
	BYTE	W01
	BYTE		        c_v+0
	BYTE	W02
	BYTE		        c_v-1
	BYTE	W01
	BYTE		        c_v+0
	BYTE	W02
	BYTE	PEND
	BYTE		EOT     Dn3 
	BYTE		        Dn4 
	BYTE	W18
// 063   ----------------------------------------
	BYTE	PATT
	 POIN2	Vanishing_Trooper0000_5_055
// 064   ----------------------------------------
Vanishing_Trooper0000_5_064:
	BYTE		N10     As2   v108
	BYTE		N10     As3   v092
	BYTE	W12
	BYTE		        Cn3   v108
	BYTE		N10     Cn4   v092
	BYTE	W10
	BYTE		BEND    c_v+0
	BYTE	W01
	BYTE		        c_v-64
	BYTE	W01
	BYTE	PEND
// 065   ----------------------------------------
	BYTE		        c_v-59
	BYTE		N24     Dn3   v108
	BYTE		N24     Dn4   v092
	BYTE	W01
	BYTE		BEND    c_v-54
	BYTE	W01
	BYTE		        c_v-48
	BYTE	W01
	BYTE		        c_v-38
	BYTE	W01
	BYTE		        c_v-32
	BYTE	W01
	BYTE		        c_v-27
	BYTE	W01
	BYTE		        c_v-16
	BYTE	W01
	BYTE		        c_v-11
	BYTE	W01
	BYTE		        c_v-6
	BYTE	W01
	BYTE		        c_v+0
	BYTE	W03
	BYTE		        c_v+1
	BYTE	W01
	BYTE		        c_v+0
	BYTE	W02
	BYTE		        c_v-1
	BYTE	W01
	BYTE		        c_v+0
	BYTE	W02
	BYTE		        c_v+1
	BYTE	W01
	BYTE		        c_v+2
	BYTE	W02
	BYTE		        c_v+1
	BYTE	W01
	BYTE		        c_v+0
	BYTE	W02
// 066   ----------------------------------------
	BYTE		N10     Fn3   v108
	BYTE		N10     Fn4   v092
	BYTE	W10
	BYTE		BEND    c_v+0
	BYTE	W01
	BYTE		        c_v+39
	BYTE	W01
	BYTE		        c_v+63
	BYTE		N88     Cn3   v108
	BYTE		N88     Cn4   v092
	BYTE	W12
// 067   ----------------------------------------
	BYTE		BEND    c_v+62
	BYTE	W01
	BYTE		        c_v+61
	BYTE	W02
	BYTE		        c_v+60
	BYTE	W01
	BYTE		        c_v+61
	BYTE	W02
	BYTE		        c_v+62
	BYTE	W01
	BYTE		        c_v+63
	BYTE	W02
	BYTE		        c_v+62
	BYTE	W01
	BYTE		        c_v+61
	BYTE	W02
	BYTE		        c_v+60
	BYTE	W01
	BYTE		        c_v+59
	BYTE	W02
	BYTE		        c_v+60
	BYTE	W01
	BYTE		        c_v+61
	BYTE	W02
	BYTE		        c_v+62
	BYTE	W01
	BYTE		        c_v+63
	BYTE	W02
	BYTE		        c_v+62
	BYTE	W01
	BYTE		        c_v+61
	BYTE	W02
// 068   ----------------------------------------
Vanishing_Trooper0000_5_068:
	BYTE		BEND    c_v+60
	BYTE	W01
	BYTE		        c_v+59
	BYTE	W02
	BYTE		        c_v+60
	BYTE	W01
	BYTE		        c_v+61
	BYTE	W02
	BYTE		        c_v+62
	BYTE	W01
	BYTE		        c_v+63
	BYTE	W02
	BYTE		        c_v+62
	BYTE	W01
	BYTE		        c_v+61
	BYTE	W02
	BYTE		        c_v+60
	BYTE	W01
	BYTE		        c_v+59
	BYTE	W02
	BYTE		        c_v+60
	BYTE	W01
	BYTE		        c_v+61
	BYTE	W02
	BYTE		        c_v+62
	BYTE	W01
	BYTE		        c_v+63
	BYTE	W02
	BYTE		        c_v+62
	BYTE	W01
	BYTE		        c_v+61
	BYTE	W02
	BYTE	PEND
// 069   ----------------------------------------
	BYTE		        c_v+60
	BYTE	W01
	BYTE		        c_v+59
	BYTE	W02
	BYTE		        c_v+60
	BYTE	W01
	BYTE		        c_v+61
	BYTE	W02
	BYTE		        c_v+62
	BYTE	W01
	BYTE		        c_v+63
	BYTE	W02
	BYTE		        c_v+62
	BYTE	W01
	BYTE		        c_v+61
	BYTE	W02
	BYTE		        c_v+63
	BYTE	W01
	BYTE		        c_v+57
	BYTE	W01
	BYTE		        c_v+44
	BYTE	W01
	BYTE		        c_v+37
	BYTE	W01
	BYTE		        c_v+30
	BYTE	W01
	BYTE		        c_v+17
	BYTE	W01
	BYTE		        c_v+11
	BYTE	W01
	BYTE		        c_v+4
	BYTE	W01
	BYTE		        c_v-9
	BYTE	W01
	BYTE		        c_v-16
	BYTE	W01
	BYTE		        c_v-22
	BYTE	W01
	BYTE		        c_v-36
	BYTE	W01
// 070   ----------------------------------------
	BYTE		        c_v-42
	BYTE	W01
	BYTE		        c_v-49
	BYTE	W01
	BYTE		        c_v-62
	BYTE	W01
	BYTE		        c_v-64
	BYTE	W07
	BYTE		        c_v-64
	BYTE	W01
	BYTE		        c_v+0
	BYTE	W01
	BYTE		N12     Dn3   v108
	BYTE		N12     Dn4   v092
	BYTE	W12
// 071   ----------------------------------------
Vanishing_Trooper0000_5_071:
	BYTE		N12     Fn3   v108
	BYTE		N12     Fn4   v092
	BYTE	W12
	BYTE		N05     Ds3   v108
	BYTE		N05     Ds4   v092
	BYTE	W04
	BYTE		        Fn3   v108
	BYTE		N05     Fn4   v092
	BYTE	W04
	BYTE		        Ds3   v108
	BYTE		N05     Ds4   v092
	BYTE	W04
	BYTE	PEND
// 072   ----------------------------------------
Vanishing_Trooper0000_5_072:
	BYTE		N12     Dn3   v108
	BYTE		N12     Dn4   v092
	BYTE	W12
	BYTE		        Ds3   v108
	BYTE		N12     Ds4   v092
	BYTE	W12
	BYTE	PEND
// 073   ----------------------------------------
	BYTE		N24     Fn3   v108
	BYTE		N24     Fn4   v092
	BYTE	W07
	BYTE		BEND    c_v+0
	BYTE	W05
	BYTE		        c_v+1
	BYTE	W01
	BYTE		        c_v+0
	BYTE	W02
	BYTE		        c_v-1
	BYTE	W01
	BYTE		        c_v+0
	BYTE	W02
	BYTE		        c_v+1
	BYTE	W01
	BYTE		        c_v+2
	BYTE	W02
	BYTE		        c_v+1
	BYTE	W01
	BYTE		        c_v+0
	BYTE	W02
// 074   ----------------------------------------
Vanishing_Trooper0000_5_074:
	BYTE		N10     Ds3   v108
	BYTE		N10     Ds4   v092
	BYTE	W10
	BYTE		BEND    c_v+0
	BYTE	W01
	BYTE		        c_v-64
	BYTE	W01
	BYTE		        c_v-60
	BYTE		N78     As3   v108
	BYTE		N78     As4   v092
	BYTE	W01
	BYTE		BEND    c_v-56
	BYTE	W01
	BYTE		        c_v-52
	BYTE	W01
	BYTE		        c_v-44
	BYTE	W01
	BYTE		        c_v-40
	BYTE	W01
	BYTE		        c_v-36
	BYTE	W01
	BYTE		        c_v-28
	BYTE	W01
	BYTE		        c_v-24
	BYTE	W01
	BYTE		        c_v-20
	BYTE	W01
	BYTE		        c_v-12
	BYTE	W01
	BYTE		        c_v-8
	BYTE	W01
	BYTE		        c_v-4
	BYTE	W01
	BYTE	PEND
// 075   ----------------------------------------
	BYTE		        c_v+0
	BYTE	W06
	BYTE		        c_v+1
	BYTE	W01
	BYTE		        c_v+2
	BYTE	W02
	BYTE		        c_v+1
	BYTE	W01
	BYTE		        c_v+0
	BYTE	W02
	BYTE		        c_v-1
	BYTE	W01
	BYTE		        c_v-2
	BYTE	W02
	BYTE		        c_v-1
	BYTE	W01
	BYTE		        c_v+0
	BYTE	W02
	BYTE		        c_v+1
	BYTE	W01
	BYTE		        c_v+2
	BYTE	W02
	BYTE		        c_v+3
	BYTE	W01
	BYTE		        c_v+2
	BYTE	W02
// 076   ----------------------------------------
	BYTE	PATT
	 POIN2	Vanishing_Trooper0000_5_059
// 077   ----------------------------------------
	BYTE		BEND    c_v-1
	BYTE	W01
	BYTE		        c_v+0
	BYTE	W02
	BYTE		        c_v+1
	BYTE	W01
	BYTE		        c_v+2
	BYTE	W02
	BYTE		        c_v+3
	BYTE	W01
	BYTE		        c_v+4
	BYTE	W02
	BYTE		        c_v+3
	BYTE	W01
	BYTE		        c_v+2
	BYTE	W02
	BYTE		        c_v+1
	BYTE	W01
	BYTE		        c_v+0
	BYTE	W02
	BYTE		        c_v-1
	BYTE	W01
	BYTE		        c_v+0
	BYTE	W08
// 078   ----------------------------------------
	BYTE		N18     Gn3   v108
	BYTE		N18     Gn4   v092
	BYTE	W24
// 079   ----------------------------------------
	BYTE		N16     Gn3   v108
	BYTE		N16     Gn4   v092
	BYTE	W18
	BYTE		        An3   v108
	BYTE		N16     An4   v092
	BYTE	W06
// 080   ----------------------------------------
	BYTE	W12
	BYTE		N10     As3   v108
	BYTE		N10     As4   v092
	BYTE	W12
// 081   ----------------------------------------
	BYTE		N30     An3   v108
	BYTE		N30     An4   v092
	BYTE	W12
	BYTE		BEND    c_v+1
	BYTE	W01
	BYTE		        c_v+2
	BYTE	W02
	BYTE		        c_v+1
	BYTE	W01
	BYTE		        c_v+0
	BYTE	W02
	BYTE		        c_v-1
	BYTE	W01
	BYTE		        c_v-2
	BYTE	W02
	BYTE		        c_v-1
	BYTE	W01
	BYTE		        c_v+0
	BYTE	W02
// 082   ----------------------------------------
	BYTE		        c_v+1
	BYTE	W01
	BYTE		        c_v+2
	BYTE	W02
	BYTE		        c_v+1
	BYTE	W01
	BYTE		        c_v+0
	BYTE	W06
	BYTE		        c_v+0
	BYTE	W01
	BYTE		        c_v+39
	BYTE	W01
	BYTE		        c_v+63
	BYTE		N96     Cn3   v108
	BYTE		N96     Cn4   v092
	BYTE	W12
// 083   ----------------------------------------
Vanishing_Trooper0000_5_083:
	BYTE		BEND    c_v+62
	BYTE	W01
	BYTE		        c_v+63
	BYTE	W02
	BYTE		        c_v+62
	BYTE	W01
	BYTE		        c_v+61
	BYTE	W02
	BYTE		        c_v+60
	BYTE	W01
	BYTE		        c_v+59
	BYTE	W02
	BYTE		        c_v+60
	BYTE	W01
	BYTE		        c_v+61
	BYTE	W02
	BYTE		        c_v+62
	BYTE	W01
	BYTE		        c_v+63
	BYTE	W02
	BYTE		        c_v+62
	BYTE	W01
	BYTE		        c_v+61
	BYTE	W02
	BYTE		        c_v+60
	BYTE	W01
	BYTE		        c_v+59
	BYTE	W02
	BYTE		        c_v+60
	BYTE	W01
	BYTE		        c_v+61
	BYTE	W02
	BYTE	PEND
// 084   ----------------------------------------
	BYTE	PATT
	 POIN2	Vanishing_Trooper0000_5_083
// 085   ----------------------------------------
	BYTE	PATT
	 POIN2	Vanishing_Trooper0000_5_083
// 086   ----------------------------------------
	BYTE		BEND    c_v+62
	BYTE	W01
	BYTE		        c_v+61
	BYTE	W02
	BYTE		        c_v+53
	BYTE	W01
	BYTE		        c_v+42
	BYTE	W01
	BYTE		        c_v+32
	BYTE	W01
	BYTE		        c_v+11
	BYTE	W01
	BYTE		        c_v+0
	BYTE	W01
	BYTE		        c_v-11
	BYTE	W01
	BYTE		        c_v-32
	BYTE	W01
	BYTE		        c_v-42
	BYTE	W01
	BYTE		        c_v-53
	BYTE	W01
	BYTE		        c_v-64
	BYTE	W10
	BYTE		        c_v-64
	BYTE	W01
	BYTE		        c_v+0
	BYTE	W01
// 087   ----------------------------------------
	BYTE		        c_v+0
	BYTE		N10     Dn2   v108
	BYTE		N10     Dn3   v092
	BYTE	W12
	BYTE		        Fn2   v108
	BYTE		N10     Fn3   v092
	BYTE	W12
// 088   ----------------------------------------
	BYTE	PATT
	 POIN2	Vanishing_Trooper0000_5_056
// 089   ----------------------------------------
	BYTE		TIE     Dn3   v108
	BYTE		TIE     Dn4   v092
	BYTE	W12
	BYTE		BEND    c_v+1
	BYTE	W01
	BYTE		        c_v+2
	BYTE	W02
	BYTE		        c_v+1
	BYTE	W01
	BYTE		        c_v+0
	BYTE	W02
	BYTE		        c_v-1
	BYTE	W01
	BYTE		        c_v-2
	BYTE	W02
	BYTE		        c_v-1
	BYTE	W01
	BYTE		        c_v+0
	BYTE	W02
// 090   ----------------------------------------
	BYTE	PATT
	 POIN2	Vanishing_Trooper0000_5_058
// 091   ----------------------------------------
	BYTE	PATT
	 POIN2	Vanishing_Trooper0000_5_059
// 092   ----------------------------------------
	BYTE	PATT
	 POIN2	Vanishing_Trooper0000_5_060
// 093   ----------------------------------------
	BYTE	PATT
	 POIN2	Vanishing_Trooper0000_5_061
// 094   ----------------------------------------
	BYTE	PATT
	 POIN2	Vanishing_Trooper0000_5_062
	BYTE		EOT     Dn3 
	BYTE		        Dn4 
	BYTE	W18
// 095   ----------------------------------------
	BYTE	PATT
	 POIN2	Vanishing_Trooper0000_5_055
// 096   ----------------------------------------
	BYTE	PATT
	 POIN2	Vanishing_Trooper0000_5_064
// 097   ----------------------------------------
	BYTE		BEND    c_v-59
	BYTE		N24     Dn3   v108
	BYTE		N24     Dn4   v092
	BYTE	W01
	BYTE		BEND    c_v-54
	BYTE	W01
	BYTE		        c_v-48
	BYTE	W01
	BYTE		        c_v-38
	BYTE	W01
	BYTE		        c_v-32
	BYTE	W01
	BYTE		        c_v-27
	BYTE	W01
	BYTE		        c_v-16
	BYTE	W01
	BYTE		        c_v-11
	BYTE	W01
	BYTE		        c_v-6
	BYTE	W01
	BYTE		        c_v+0
	BYTE	W03
	BYTE		        c_v+1
	BYTE	W01
	BYTE		        c_v+2
	BYTE	W02
	BYTE		        c_v+1
	BYTE	W01
	BYTE		        c_v+0
	BYTE	W02
	BYTE		        c_v-1
	BYTE	W01
	BYTE		        c_v-2
	BYTE	W02
	BYTE		        c_v-1
	BYTE	W01
	BYTE		        c_v+0
	BYTE	W02
// 098   ----------------------------------------
	BYTE		N10     Fn3   v108
	BYTE		N10     Fn4   v092
	BYTE	W10
	BYTE		BEND    c_v+0
	BYTE	W01
	BYTE		        c_v+63
	BYTE	W01
	BYTE		        c_v+63
	BYTE		N88     Cn3   v108
	BYTE		N88     Cn4   v092
	BYTE	W12
// 099   ----------------------------------------
	BYTE	PATT
	 POIN2	Vanishing_Trooper0000_5_083
// 100   ----------------------------------------
	BYTE	PATT
	 POIN2	Vanishing_Trooper0000_5_083
// 101   ----------------------------------------
	BYTE		BEND    c_v+62
	BYTE	W01
	BYTE		        c_v+63
	BYTE	W02
	BYTE		        c_v+62
	BYTE	W01
	BYTE		        c_v+61
	BYTE	W02
	BYTE		        c_v+60
	BYTE	W01
	BYTE		        c_v+59
	BYTE	W02
	BYTE		        c_v+60
	BYTE	W01
	BYTE		        c_v+61
	BYTE	W03
	BYTE		        c_v+62
	BYTE	W02
	BYTE		        c_v+56
	BYTE	W01
	BYTE		        c_v+48
	BYTE	W01
	BYTE		        c_v+40
	BYTE	W01
	BYTE		        c_v+24
	BYTE	W01
	BYTE		        c_v+16
	BYTE	W01
	BYTE		        c_v+8
	BYTE	W01
	BYTE		        c_v-8
	BYTE	W01
	BYTE		        c_v-16
	BYTE	W01
	BYTE		        c_v-24
	BYTE	W01
// 102   ----------------------------------------
	BYTE		        c_v-40
	BYTE	W01
	BYTE		        c_v-48
	BYTE	W01
	BYTE		        c_v-56
	BYTE	W01
	BYTE		        c_v-64
	BYTE	W07
	BYTE		        c_v-64
	BYTE	W01
	BYTE		        c_v+0
	BYTE	W01
	BYTE		N12     Dn3   v108
	BYTE		N12     Dn4   v092
	BYTE	W12
// 103   ----------------------------------------
	BYTE	PATT
	 POIN2	Vanishing_Trooper0000_5_071
// 104   ----------------------------------------
	BYTE	PATT
	 POIN2	Vanishing_Trooper0000_5_072
// 105   ----------------------------------------
	BYTE		N24     Fn3   v108
	BYTE		N24     Fn4   v092
	BYTE	W12
	BYTE		BEND    c_v+1
	BYTE	W01
	BYTE		        c_v+0
	BYTE	W02
	BYTE		        c_v-1
	BYTE	W01
	BYTE		        c_v+0
	BYTE	W02
	BYTE		        c_v+1
	BYTE	W01
	BYTE		        c_v+2
	BYTE	W02
	BYTE		        c_v+1
	BYTE	W01
	BYTE		        c_v+0
	BYTE	W02
// 106   ----------------------------------------
	BYTE	PATT
	 POIN2	Vanishing_Trooper0000_5_074
// 107   ----------------------------------------
	BYTE		BEND    c_v+0
	BYTE	W06
	BYTE		        c_v+1
	BYTE	W01
	BYTE		        c_v+2
	BYTE	W02
	BYTE		        c_v+1
	BYTE	W01
	BYTE		        c_v+0
	BYTE	W02
	BYTE		        c_v-1
	BYTE	W01
	BYTE		        c_v-2
	BYTE	W02
	BYTE		        c_v-1
	BYTE	W01
	BYTE		        c_v+0
	BYTE	W02
	BYTE		        c_v+1
	BYTE	W01
	BYTE		        c_v+2
	BYTE	W02
	BYTE		        c_v+1
	BYTE	W01
	BYTE		        c_v+0
	BYTE	W02
// 108   ----------------------------------------
Vanishing_Trooper0000_5_108:
	BYTE		BEND    c_v-1
	BYTE	W01
	BYTE		        c_v-2
	BYTE	W02
	BYTE		        c_v-1
	BYTE	W01
	BYTE		        c_v+0
	BYTE	W02
	BYTE		        c_v+1
	BYTE	W01
	BYTE		        c_v+2
	BYTE	W02
	BYTE		        c_v+3
	BYTE	W01
	BYTE		        c_v+2
	BYTE	W02
	BYTE		        c_v+1
	BYTE	W01
	BYTE		        c_v+0
	BYTE	W02
	BYTE		        c_v-1
	BYTE	W01
	BYTE		        c_v-2
	BYTE	W02
	BYTE		        c_v-1
	BYTE	W01
	BYTE		        c_v+0
	BYTE	W02
	BYTE		        c_v+1
	BYTE	W01
	BYTE		        c_v+2
	BYTE	W02
	BYTE	PEND
// 109   ----------------------------------------
	BYTE		        c_v+3
	BYTE	W01
	BYTE		        c_v+4
	BYTE	W02
	BYTE		        c_v+3
	BYTE	W01
	BYTE		        c_v+2
	BYTE	W02
	BYTE		        c_v+1
	BYTE	W01
	BYTE		        c_v+0
	BYTE	W02
	BYTE		        c_v-1
	BYTE	W01
	BYTE		        c_v-2
	BYTE	W02
	BYTE		        c_v+0
	BYTE	W01
	BYTE		        c_v+0
	BYTE	W02
	BYTE		        c_v+1
	BYTE	W01
	BYTE		        c_v+0
	BYTE	W08
// 110   ----------------------------------------
	BYTE		N18     Gn3   v108
	BYTE		N18     Gn4   v092
	BYTE	W12
	BYTE		BEND    c_v+1
	BYTE	W01
	BYTE		        c_v+0
	BYTE	W02
	BYTE		        c_v-1
	BYTE	W01
	BYTE		        c_v+0
	BYTE	W08
// 111   ----------------------------------------
	BYTE		N22     An3   v108
	BYTE		N22     An4   v092
	BYTE	W12
	BYTE		BEND    c_v+1
	BYTE	W01
	BYTE		        c_v+0
	BYTE	W02
	BYTE		        c_v-1
	BYTE	W01
	BYTE		        c_v+0
	BYTE	W08
// 112   ----------------------------------------
	BYTE		N22     As3   v108
	BYTE		N22     As4   v092
	BYTE	W12
	BYTE		BEND    c_v+1
	BYTE	W01
	BYTE		        c_v+0
	BYTE	W02
	BYTE		        c_v-1
	BYTE	W01
	BYTE		        c_v+0
	BYTE	W08
// 113   ----------------------------------------
	BYTE		N30     An3   v108
	BYTE		N30     An4   v092
	BYTE	W12
	BYTE		BEND    c_v+1
	BYTE	W01
	BYTE		        c_v+0
	BYTE	W02
	BYTE		        c_v-1
	BYTE	W01
	BYTE		        c_v+0
	BYTE	W02
	BYTE		        c_v+1
	BYTE	W01
	BYTE		        c_v+2
	BYTE	W02
	BYTE		        c_v+1
	BYTE	W01
	BYTE		        c_v+0
	BYTE	W02
// 114   ----------------------------------------
	BYTE		        c_v-1
	BYTE	W01
	BYTE		        c_v-2
	BYTE	W02
	BYTE		        c_v-1
	BYTE	W01
	BYTE		        c_v+0
	BYTE	W08
	BYTE		TIE     Fn3   v108
	BYTE		TIE     Fn4   v092
	BYTE	W12
// 115   ----------------------------------------
Vanishing_Trooper0000_5_115:
	BYTE		BEND    c_v+1
	BYTE	W01
	BYTE		        c_v+0
	BYTE	W02
	BYTE		        c_v-1
	BYTE	W01
	BYTE		        c_v+0
	BYTE	W02
	BYTE		        c_v+1
	BYTE	W01
	BYTE		        c_v+2
	BYTE	W02
	BYTE		        c_v+1
	BYTE	W01
	BYTE		        c_v+0
	BYTE	W02
	BYTE		        c_v-1
	BYTE	W01
	BYTE		        c_v-2
	BYTE	W02
	BYTE		        c_v-1
	BYTE	W01
	BYTE		        c_v+0
	BYTE	W02
	BYTE		        c_v+1
	BYTE	W01
	BYTE		        c_v+2
	BYTE	W02
	BYTE		        c_v+1
	BYTE	W01
	BYTE		        c_v+0
	BYTE	W02
	BYTE	PEND
// 116   ----------------------------------------
	BYTE	PATT
	 POIN2	Vanishing_Trooper0000_5_108
// 117   ----------------------------------------
Vanishing_Trooper0000_5_117:
	BYTE		BEND    c_v+3
	BYTE	W01
	BYTE		        c_v+2
	BYTE	W02
	BYTE		        c_v+1
	BYTE	W01
	BYTE		        c_v+0
	BYTE	W02
	BYTE		        c_v-1
	BYTE	W01
	BYTE		        c_v-2
	BYTE	W02
	BYTE		        c_v-1
	BYTE	W01
	BYTE		        c_v+0
	BYTE	W02
	BYTE		        c_v+1
	BYTE	W01
	BYTE		        c_v+2
	BYTE	W02
	BYTE		        c_v+3
	BYTE	W01
	BYTE		        c_v+4
	BYTE	W02
	BYTE		        c_v+3
	BYTE	W01
	BYTE		        c_v+2
	BYTE	W02
	BYTE		        c_v+1
	BYTE	W01
	BYTE		        c_v+0
	BYTE	W02
	BYTE	PEND
// 118   ----------------------------------------
Vanishing_Trooper0000_5_118:
	BYTE		BEND    c_v-1
	BYTE	W01
	BYTE		        c_v-2
	BYTE	W02
	BYTE		        c_v-1
	BYTE	W01
	BYTE		        c_v+0
	BYTE	W02
	BYTE		        c_v+1
	BYTE	W01
	BYTE		        c_v+2
	BYTE	W02
	BYTE		        c_v+3
	BYTE	W01
	BYTE		        c_v+4
	BYTE	W02
	BYTE		        c_v+3
	BYTE	W01
	BYTE		        c_v+2
	BYTE	W02
	BYTE		        c_v+1
	BYTE	W01
	BYTE		        c_v+0
	BYTE	W02
	BYTE		        c_v-1
	BYTE	W01
	BYTE		        c_v-2
	BYTE	W02
	BYTE		        c_v-1
	BYTE	W01
	BYTE		        c_v+0
	BYTE	W02
	BYTE	PEND
// 119   ----------------------------------------
	BYTE		        c_v+1
	BYTE	W01
	BYTE		        c_v+2
	BYTE	W02
	BYTE		        c_v+3
	BYTE	W01
	BYTE		        c_v+4
	BYTE	W02
	BYTE		        c_v+3
	BYTE	W01
	BYTE		        c_v+2
	BYTE	W02
	BYTE		        c_v+1
	BYTE	W01
	BYTE		        c_v+0
	BYTE	W02
	BYTE		        c_v-1
	BYTE	W01
	BYTE		        c_v-2
	BYTE	W02
	BYTE		        c_v-1
	BYTE	W01
	BYTE		        c_v+0
	BYTE	W02
	BYTE		        c_v+1
	BYTE	W01
	BYTE		        c_v+2
	BYTE	W02
	BYTE		        c_v+3
	BYTE	W01
	BYTE		        c_v+4
	BYTE	W02
// 120   ----------------------------------------
	BYTE		        c_v+3
	BYTE	W01
	BYTE		        c_v+2
	BYTE	W02
	BYTE		        c_v+1
	BYTE	W01
	BYTE		        c_v+0
	BYTE	W02
	BYTE		        c_v-1
	BYTE	W01
	BYTE		        c_v-2
	BYTE	W02
	BYTE		        c_v-1
	BYTE	W01
	BYTE		        c_v+0
	BYTE	W08
	BYTE		EOT     Fn3 
	BYTE		        Fn4 
	BYTE	W06
// 121   ----------------------------------------
	BYTE	W22
	BYTE		BEND    c_v+0
	BYTE	W01
	BYTE		        c_v-32
	BYTE	W01
// 122   ----------------------------------------
Vanishing_Trooper0000_5_122:
	BYTE		BEND    c_v-29
	BYTE		N21     Fn3   v108
	BYTE		N21     Fn4   v092
	BYTE	W01
	BYTE		BEND    c_v-26
	BYTE	W01
	BYTE		        c_v-23
	BYTE	W01
	BYTE		        c_v-17
	BYTE	W01
	BYTE		        c_v-14
	BYTE	W01
	BYTE		        c_v-11
	BYTE	W01
	BYTE		        c_v-8
	BYTE	W01
	BYTE		        c_v-6
	BYTE	W02
	BYTE		        c_v-4
	BYTE	W01
	BYTE		        c_v-2
	BYTE	W02
	BYTE		        c_v+0
	BYTE	W12
	BYTE	PEND
// 123   ----------------------------------------
Vanishing_Trooper0000_5_123:
	BYTE		N21     Ds3   v108
	BYTE		N21     Ds4   v092
	BYTE	W12
	BYTE		BEND    c_v+1
	BYTE	W01
	BYTE		        c_v+0
	BYTE	W02
	BYTE		        c_v-1
	BYTE	W01
	BYTE		        c_v+0
	BYTE	W08
	BYTE	PEND
// 124   ----------------------------------------
Vanishing_Trooper0000_5_124:
	BYTE		N24     Dn3   v108
	BYTE		N24     Dn4   v092
	BYTE	W12
	BYTE		BEND    c_v+1
	BYTE	W01
	BYTE		        c_v+0
	BYTE	W02
	BYTE		        c_v-1
	BYTE	W01
	BYTE		        c_v+0
	BYTE	W02
	BYTE		        c_v+1
	BYTE	W01
	BYTE		        c_v+2
	BYTE	W02
	BYTE		        c_v+1
	BYTE	W01
	BYTE		        c_v+0
	BYTE	W02
	BYTE	PEND
// 125   ----------------------------------------
Vanishing_Trooper0000_5_125:
	BYTE		N21     Cn3   v108
	BYTE		N21     Cn4   v092
	BYTE	W12
	BYTE		BEND    c_v+1
	BYTE	W01
	BYTE		        c_v+0
	BYTE	W02
	BYTE		        c_v-1
	BYTE	W01
	BYTE		        c_v+0
	BYTE	W08
	BYTE	PEND
// 126   ----------------------------------------
Vanishing_Trooper0000_5_126:
	BYTE		N06     Dn3   v108
	BYTE		N06     Dn4   v092
	BYTE	W12
	BYTE		N24     Cn3   v108
	BYTE		N24     Cn4   v092
	BYTE	W12
	BYTE	PEND
// 127   ----------------------------------------
Vanishing_Trooper0000_5_127:
	BYTE		BEND    c_v+1
	BYTE	W01
	BYTE		        c_v+0
	BYTE	W02
	BYTE		        c_v-1
	BYTE	W01
	BYTE		        c_v+0
	BYTE	W02
	BYTE		        c_v+1
	BYTE	W01
	BYTE		        c_v+2
	BYTE	W02
	BYTE		        c_v+1
	BYTE	W01
	BYTE		        c_v+0
	BYTE	W14
	BYTE	PEND
// 128   ----------------------------------------
	BYTE		N21     An3   v108
	BYTE		N21     An4   v092
	BYTE	W12
	BYTE		BEND    c_v+1
	BYTE	W01
	BYTE		        c_v+0
	BYTE	W02
	BYTE		        c_v-1
	BYTE	W01
	BYTE		        c_v+0
	BYTE	W06
	BYTE		        c_v+0
	BYTE	W01
	BYTE		        c_v-64
	BYTE	W01
// 129   ----------------------------------------
	BYTE		        c_v-59
	BYTE		N21     Cn4   v108
	BYTE		N21     Cn5   v092
	BYTE	W01
	BYTE		BEND    c_v-54
	BYTE	W01
	BYTE		        c_v-48
	BYTE	W01
	BYTE		        c_v-38
	BYTE	W01
	BYTE		        c_v-32
	BYTE	W01
	BYTE		        c_v-27
	BYTE	W01
	BYTE		        c_v-16
	BYTE	W01
	BYTE		        c_v-11
	BYTE	W01
	BYTE		        c_v-6
	BYTE	W01
	BYTE		        c_v+0
	BYTE	W03
	BYTE		        c_v+1
	BYTE	W01
	BYTE		        c_v+0
	BYTE	W02
	BYTE		        c_v-1
	BYTE	W01
	BYTE		        c_v+0
	BYTE	W08
// 130   ----------------------------------------
	BYTE		N21     As3   v108
	BYTE		N21     As4   v092
	BYTE	W12
	BYTE		BEND    c_v+1
	BYTE	W01
	BYTE		        c_v+0
	BYTE	W02
	BYTE		        c_v-1
	BYTE	W01
	BYTE		        c_v+0
	BYTE	W08
// 131   ----------------------------------------
Vanishing_Trooper0000_5_131:
	BYTE		N21     An3   v108
	BYTE		N21     An4   v092
	BYTE	W12
	BYTE		BEND    c_v+1
	BYTE	W01
	BYTE		        c_v+0
	BYTE	W02
	BYTE		        c_v-1
	BYTE	W01
	BYTE		        c_v+0
	BYTE	W08
	BYTE	PEND
// 132   ----------------------------------------
	BYTE		N09     Gn3   v108
	BYTE		N09     Gn4   v092
	BYTE	W10
	BYTE		BEND    c_v+0
	BYTE	W01
	BYTE		        c_v+63
	BYTE	W01
	BYTE		        c_v+63
	BYTE		N42     Fn3   v108
	BYTE		N42     Fn4   v092
	BYTE	W07
	BYTE		BEND    c_v+63
	BYTE	W02
	BYTE		        c_v+62
	BYTE	W01
	BYTE		        c_v+61
	BYTE	W02
// 133   ----------------------------------------
	BYTE		        c_v+60
	BYTE	W01
	BYTE		        c_v+59
	BYTE	W02
	BYTE		        c_v+60
	BYTE	W01
	BYTE		        c_v+61
	BYTE	W02
	BYTE		        c_v+62
	BYTE	W01
	BYTE		        c_v+63
	BYTE	W02
	BYTE		        c_v+62
	BYTE	W01
	BYTE		        c_v+61
	BYTE	W02
	BYTE		        c_v+60
	BYTE	W01
	BYTE		        c_v+59
	BYTE	W02
	BYTE		        c_v+60
	BYTE	W01
	BYTE		        c_v+61
	BYTE	W02
	BYTE		        c_v+56
	BYTE	W01
	BYTE		        c_v+48
	BYTE	W01
	BYTE		        c_v+40
	BYTE	W01
	BYTE		        c_v+24
	BYTE	W01
	BYTE		        c_v+16
	BYTE	W01
	BYTE		        c_v+8
	BYTE	W01
// 134   ----------------------------------------
	BYTE		        c_v-8
	BYTE	W01
	BYTE		        c_v-16
	BYTE	W01
	BYTE		        c_v-24
	BYTE	W01
	BYTE		        c_v-40
	BYTE	W01
	BYTE		        c_v-48
	BYTE	W01
	BYTE		        c_v-56
	BYTE	W01
	BYTE		        c_v-64
	BYTE	W04
	BYTE		        c_v-64
	BYTE	W01
	BYTE		        c_v-24
	BYTE	W01
	BYTE		        c_v+0
	BYTE		N09     Dn3   v108
	BYTE		N09     Dn4   v092
	BYTE	W10
	BYTE		BEND    c_v+0
	BYTE	W01
	BYTE		        c_v-32
	BYTE	W01
// 135   ----------------------------------------
	BYTE		        c_v-28
	BYTE		N12     Ds3   v108
	BYTE		N12     Ds4   v092
	BYTE	W01
	BYTE		BEND    c_v-24
	BYTE	W01
	BYTE		        c_v-20
	BYTE	W01
	BYTE		        c_v-12
	BYTE	W01
	BYTE		        c_v-8
	BYTE	W01
	BYTE		        c_v-4
	BYTE	W01
	BYTE		        c_v+0
	BYTE	W06
	BYTE		N12     Dn3   v108
	BYTE		N12     Dn4   v092
	BYTE	W12
// 136   ----------------------------------------
	BYTE		        Ds3   v108
	BYTE		N12     Ds4   v092
	BYTE	W12
	BYTE		        Fn3   v108
	BYTE		N12     Fn4   v092
	BYTE	W12
// 137   ----------------------------------------
	BYTE		N60     Gn3   v108
	BYTE		N60     Gn4   v092
	BYTE	W08
	BYTE		BEND    c_v+0
	BYTE	W04
	BYTE		        c_v+1
	BYTE	W01
	BYTE		        c_v+2
	BYTE	W02
	BYTE		        c_v+1
	BYTE	W01
	BYTE		        c_v+0
	BYTE	W02
	BYTE		        c_v-1
	BYTE	W01
	BYTE		        c_v-2
	BYTE	W02
	BYTE		        c_v-1
	BYTE	W01
	BYTE		        c_v+0
	BYTE	W02
// 138   ----------------------------------------
	BYTE	PATT
	 POIN2	Vanishing_Trooper0000_5_058
// 139   ----------------------------------------
	BYTE		BEND    c_v+1
	BYTE	W01
	BYTE		        c_v+0
	BYTE	W02
	BYTE		        c_v-1
	BYTE	W01
	BYTE		        c_v-2
	BYTE	W02
	BYTE		        c_v-1
	BYTE	W01
	BYTE		        c_v+0
	BYTE	W02
	BYTE		        c_v+1
	BYTE	W01
	BYTE		        c_v+0
	BYTE	W12
	BYTE		        c_v-64
	BYTE	W02
// 140   ----------------------------------------
	BYTE		        c_v-58
	BYTE		N24     As3   v108
	BYTE		N24     As4   v092
	BYTE	W01
	BYTE		BEND    c_v-52
	BYTE	W01
	BYTE		        c_v-46
	BYTE	W01
	BYTE		        c_v-34
	BYTE	W01
	BYTE		        c_v-28
	BYTE	W01
	BYTE		        c_v-22
	BYTE	W01
	BYTE		        c_v-16
	BYTE	W01
	BYTE		        c_v-14
	BYTE	W02
	BYTE		        c_v-11
	BYTE	W01
	BYTE		        c_v-8
	BYTE	W02
	BYTE		        c_v-6
	BYTE	W01
	BYTE		        c_v-3
	BYTE	W02
	BYTE		        c_v+0
	BYTE	W09
// 141   ----------------------------------------
	BYTE		N42     An3   v108
	BYTE		N42     An4   v092
	BYTE	W12
	BYTE		BEND    c_v+1
	BYTE	W01
	BYTE		        c_v+2
	BYTE	W02
	BYTE		        c_v+1
	BYTE	W01
	BYTE		        c_v+0
	BYTE	W02
	BYTE		        c_v-1
	BYTE	W01
	BYTE		        c_v-2
	BYTE	W02
	BYTE		        c_v-1
	BYTE	W01
	BYTE		        c_v+0
	BYTE	W02
// 142   ----------------------------------------
	BYTE		        c_v+1
	BYTE	W01
	BYTE		        c_v+2
	BYTE	W02
	BYTE		        c_v+3
	BYTE	W01
	BYTE		        c_v+2
	BYTE	W02
	BYTE		        c_v+1
	BYTE	W01
	BYTE		        c_v+0
	BYTE	W02
	BYTE		        c_v-1
	BYTE	W01
	BYTE		        c_v-2
	BYTE	W02
	BYTE		        c_v-1
	BYTE	W01
	BYTE		        c_v+0
	BYTE	W02
	BYTE		        c_v+1
	BYTE	W01
	BYTE		        c_v+0
	BYTE	W08
// 143   ----------------------------------------
	BYTE		N22     Fn3   v108
	BYTE		N22     Fn4   v092
	BYTE	W12
	BYTE		BEND    c_v+1
	BYTE	W01
	BYTE		        c_v+0
	BYTE	W02
	BYTE		        c_v-8
	BYTE	W01
	BYTE		        c_v-16
	BYTE	W02
	BYTE		        c_v-24
	BYTE	W01
	BYTE		        c_v-32
	BYTE	W02
	BYTE		        c_v-48
	BYTE	W03
// 144   ----------------------------------------
	BYTE		        c_v+0
	BYTE		N23     Cn3   v108
	BYTE		N23     Cn4   v092
	BYTE	W18
	BYTE		BEND    c_v+1
	BYTE	W01
	BYTE		        c_v+0
	BYTE	W02
	BYTE		        c_v-1
	BYTE	W01
	BYTE		        c_v+0
	BYTE	W02
// 145   ----------------------------------------
	BYTE		        c_v-59
	BYTE		TIE     Dn3   v108
	BYTE		TIE     Dn4   v092
	BYTE	W01
	BYTE		BEND    c_v-54
	BYTE	W01
	BYTE		        c_v-49
	BYTE	W01
	BYTE		        c_v-39
	BYTE	W01
	BYTE		        c_v-34
	BYTE	W01
	BYTE		        c_v-29
	BYTE	W01
	BYTE		        c_v-21
	BYTE	W01
	BYTE		        c_v-18
	BYTE	W01
	BYTE		        c_v-15
	BYTE	W01
	BYTE		        c_v-9
	BYTE	W01
	BYTE		        c_v-6
	BYTE	W01
	BYTE		        c_v-3
	BYTE	W01
	BYTE		        c_v+1
	BYTE	W01
	BYTE		        c_v+0
	BYTE	W02
	BYTE		        c_v-1
	BYTE	W01
	BYTE		        c_v+0
	BYTE	W02
	BYTE		        c_v+1
	BYTE	W01
	BYTE		        c_v+2
	BYTE	W02
	BYTE		        c_v+1
	BYTE	W01
	BYTE		        c_v+0
	BYTE	W02
// 146   ----------------------------------------
	BYTE	PATT
	 POIN2	Vanishing_Trooper0000_5_108
// 147   ----------------------------------------
	BYTE	PATT
	 POIN2	Vanishing_Trooper0000_5_117
// 148   ----------------------------------------
	BYTE	PATT
	 POIN2	Vanishing_Trooper0000_5_118
// 149   ----------------------------------------
	BYTE		BEND    c_v+1
	BYTE	W01
	BYTE		        c_v+2
	BYTE	W02
	BYTE		        c_v+3
	BYTE	W01
	BYTE		        c_v+4
	BYTE	W02
	BYTE		        c_v+3
	BYTE	W01
	BYTE		        c_v+2
	BYTE	W02
	BYTE		        c_v+1
	BYTE	W01
	BYTE		        c_v+0
	BYTE	W02
	BYTE		        c_v-1
	BYTE	W01
	BYTE		        c_v-2
	BYTE	W02
	BYTE		        c_v-1
	BYTE	W01
	BYTE		        c_v+0
	BYTE	W02
	BYTE		        c_v+1
	BYTE	W01
	BYTE		        c_v+2
	BYTE	W02
	BYTE		        c_v+1
	BYTE	W01
	BYTE		        c_v+0
	BYTE	W02
	BYTE		EOT     Dn3 
	BYTE		        Dn4 
// 150   ----------------------------------------
	BYTE	W12
	BYTE		N12     Dn3   v108
	BYTE		N12     Dn4   v092
	BYTE	W12
// 151   ----------------------------------------
	BYTE		N09     Cn3   v108
	BYTE		N09     Cn4   v092
	BYTE	W12
	BYTE		N36     Dn3   v108
	BYTE		N36     Dn4   v092
	BYTE	W12
// 152   ----------------------------------------
	BYTE	PATT
	 POIN2	Vanishing_Trooper0000_5_115
// 153   ----------------------------------------
	BYTE	W22
	BYTE		BEND    c_v+0
	BYTE	W01
	BYTE		        c_v-20
	BYTE	W01
// 154   ----------------------------------------
	BYTE	PATT
	 POIN2	Vanishing_Trooper0000_5_122
// 155   ----------------------------------------
	BYTE	PATT
	 POIN2	Vanishing_Trooper0000_5_123
// 156   ----------------------------------------
	BYTE	PATT
	 POIN2	Vanishing_Trooper0000_5_124
// 157   ----------------------------------------
	BYTE	PATT
	 POIN2	Vanishing_Trooper0000_5_125
// 158   ----------------------------------------
	BYTE	PATT
	 POIN2	Vanishing_Trooper0000_5_126
// 159   ----------------------------------------
	BYTE	PATT
	 POIN2	Vanishing_Trooper0000_5_127
// 160   ----------------------------------------
	BYTE		N21     Fn3   v108
	BYTE		N21     Fn4   v092
	BYTE	W12
	BYTE		BEND    c_v+1
	BYTE	W01
	BYTE		        c_v+0
	BYTE	W02
	BYTE		        c_v-1
	BYTE	W01
	BYTE		        c_v+0
	BYTE	W08
// 161   ----------------------------------------
	BYTE		N21     An3   v108
	BYTE		N21     An4   v092
	BYTE	W12
	BYTE		BEND    c_v+1
	BYTE	W01
	BYTE		        c_v+0
	BYTE	W02
	BYTE		        c_v-1
	BYTE	W01
	BYTE		        c_v+0
	BYTE	W06
	BYTE		        c_v+0
	BYTE	W01
	BYTE		        c_v-20
	BYTE	W01
// 162   ----------------------------------------
	BYTE		        c_v-29
	BYTE		N21     As3   v108
	BYTE		N21     As4   v092
	BYTE	W01
	BYTE		BEND    c_v-26
	BYTE	W01
	BYTE		        c_v-23
	BYTE	W01
	BYTE		        c_v-17
	BYTE	W01
	BYTE		        c_v-14
	BYTE	W01
	BYTE		        c_v-11
	BYTE	W01
	BYTE		        c_v-8
	BYTE	W01
	BYTE		        c_v-6
	BYTE	W02
	BYTE		        c_v-4
	BYTE	W01
	BYTE		        c_v-2
	BYTE	W02
	BYTE		        c_v+0
	BYTE	W12
// 163   ----------------------------------------
	BYTE	PATT
	 POIN2	Vanishing_Trooper0000_5_131
// 164   ----------------------------------------
	BYTE		N09     Gn3   v108
	BYTE		N09     Gn4   v092
	BYTE	W10
	BYTE		BEND    c_v+0
	BYTE	W01
	BYTE		        c_v+39
	BYTE	W01
	BYTE		        c_v+63
	BYTE		N42     Fn3   v108
	BYTE		N42     Fn4   v092
	BYTE	W12
// 165   ----------------------------------------
	BYTE		BEND    c_v+62
	BYTE	W01
	BYTE		        c_v+61
	BYTE	W02
	BYTE		        c_v+60
	BYTE	W01
	BYTE		        c_v+61
	BYTE	W02
	BYTE		        c_v+62
	BYTE	W01
	BYTE		        c_v+63
	BYTE	W02
	BYTE		        c_v+62
	BYTE	W01
	BYTE		        c_v+61
	BYTE	W02
	BYTE		        c_v+60
	BYTE	W01
	BYTE		        c_v+59
	BYTE	W02
	BYTE		        c_v+60
	BYTE	W01
	BYTE		        c_v+61
	BYTE	W03
	BYTE		        c_v+62
	BYTE	W02
	BYTE		        c_v+53
	BYTE	W01
	BYTE		        c_v+42
	BYTE	W01
	BYTE		        c_v+32
	BYTE	W01
// 166   ----------------------------------------
	BYTE		        c_v+11
	BYTE	W01
	BYTE		        c_v+0
	BYTE	W01
	BYTE		        c_v-11
	BYTE	W01
	BYTE		        c_v-32
	BYTE	W01
	BYTE		        c_v-42
	BYTE	W01
	BYTE		        c_v-53
	BYTE	W01
	BYTE		        c_v-64
	BYTE	W04
	BYTE		        c_v-64
	BYTE	W01
	BYTE		        c_v-24
	BYTE	W01
	BYTE		        c_v+0
	BYTE		N21     Dn3   v108
	BYTE		N21     Dn4   v092
	BYTE	W12
// 167   ----------------------------------------
Vanishing_Trooper0000_5_167:
	BYTE		BEND    c_v+1
	BYTE	W01
	BYTE		        c_v+0
	BYTE	W02
	BYTE		        c_v-1
	BYTE	W01
	BYTE		        c_v+0
	BYTE	W08
	BYTE		N09     Ds3   v108
	BYTE		N09     Ds4   v092
	BYTE	W12
	BYTE	PEND
// 168   ----------------------------------------
Vanishing_Trooper0000_5_168:
	BYTE		N21     Fn3   v108
	BYTE		N21     Fn4   v092
	BYTE	W12
	BYTE		BEND    c_v+1
	BYTE	W01
	BYTE		        c_v+0
	BYTE	W02
	BYTE		        c_v-1
	BYTE	W01
	BYTE		        c_v+0
	BYTE	W06
	BYTE		        c_v+0
	BYTE	W01
	BYTE		        c_v+63
	BYTE	W01
	BYTE	PEND
// 169   ----------------------------------------
Vanishing_Trooper0000_5_169:
	BYTE		BEND    c_v+63
	BYTE		N21     Fn3   v108
	BYTE		N21     Fn4   v092
	BYTE	W12
	BYTE		BEND    c_v+57
	BYTE	W01
	BYTE		        c_v+51
	BYTE	W01
	BYTE		        c_v+44
	BYTE	W01
	BYTE		        c_v+32
	BYTE	W01
	BYTE		        c_v+25
	BYTE	W01
	BYTE		        c_v+19
	BYTE	W01
	BYTE		        c_v+6
	BYTE	W01
	BYTE		        c_v+0
	BYTE	W01
	BYTE		        c_v-6
	BYTE	W01
	BYTE		        c_v-19
	BYTE	W01
	BYTE		        c_v-25
	BYTE	W01
	BYTE		        c_v-32
	BYTE	W01
	BYTE	PEND
// 170   ----------------------------------------
	BYTE		        c_v-44
	BYTE	W01
	BYTE		        c_v-51
	BYTE	W01
	BYTE		        c_v-57
	BYTE	W01
	BYTE		        c_v-64
	BYTE	W07
	BYTE		        c_v-64
	BYTE	W01
	BYTE		        c_v+0
	BYTE	W01
	BYTE		        c_v+0
	BYTE		N21     Dn3   v108
	BYTE		N21     Dn4   v092
	BYTE	W12
// 171   ----------------------------------------
	BYTE	PATT
	 POIN2	Vanishing_Trooper0000_5_167
// 172   ----------------------------------------
	BYTE	PATT
	 POIN2	Vanishing_Trooper0000_5_168
// 173   ----------------------------------------
	BYTE	PATT
	 POIN2	Vanishing_Trooper0000_5_169
// 174   ----------------------------------------
	BYTE		BEND    c_v-44
	BYTE	W01
	BYTE		        c_v-51
	BYTE	W01
	BYTE		        c_v-57
	BYTE	W01
	BYTE		        c_v-64
	BYTE	W07
	BYTE		        c_v-64
	BYTE	W01
	BYTE		        c_v+0
	BYTE	W01
	BYTE		        c_v+0
	BYTE		N10     Gn3   v108
	BYTE		N10     Gn4   v092
	BYTE	W12
// 175   ----------------------------------------
	BYTE		N12     Gn3   v108
	BYTE		N12     Gn4   v092
	BYTE	W12
	BYTE		N09     An3   v108
	BYTE		N09     An4   v092
	BYTE	W10
	BYTE		BEND    c_v+0
	BYTE	W01
	BYTE		        c_v-64
	BYTE	W01
// 176   ----------------------------------------
	BYTE		        c_v-59
	BYTE		N12     As3   v108
	BYTE		N12     As4   v092
	BYTE	W01
	BYTE		BEND    c_v-54
	BYTE	W01
	BYTE		        c_v-48
	BYTE	W01
	BYTE		        c_v-38
	BYTE	W01
	BYTE		        c_v-32
	BYTE	W01
	BYTE		        c_v-27
	BYTE	W01
	BYTE		        c_v-16
	BYTE	W01
	BYTE		        c_v-11
	BYTE	W01
	BYTE		        c_v-6
	BYTE	W01
	BYTE		        c_v+0
	BYTE	W03
	BYTE		TIE     An3   v108
	BYTE		TIE     An4   v092
	BYTE	W12
// 177   ----------------------------------------
	BYTE	PATT
	 POIN2	Vanishing_Trooper0000_5_115
// 178   ----------------------------------------
	BYTE	PATT
	 POIN2	Vanishing_Trooper0000_5_108
// 179   ----------------------------------------
	BYTE	PATT
	 POIN2	Vanishing_Trooper0000_5_117
// 180   ----------------------------------------
	BYTE	PATT
	 POIN2	Vanishing_Trooper0000_5_118
// 181   ----------------------------------------
	BYTE		BEND    c_v+1
	BYTE	W01
	BYTE		        c_v+2
	BYTE	W02
	BYTE		        c_v+3
	BYTE	W01
	BYTE		        c_v+4
	BYTE	W02
	BYTE		        c_v+5
	BYTE	W01
	BYTE		        c_v+4
	BYTE	W02
	BYTE		        c_v+3
	BYTE	W01
	BYTE		        c_v+2
	BYTE	W02
	BYTE		        c_v+1
	BYTE	W01
	BYTE		        c_v+0
	BYTE	W02
	BYTE		        c_v-1
	BYTE	W01
	BYTE		        c_v-2
	BYTE	W02
	BYTE		        c_v-1
	BYTE	W01
	BYTE		        c_v+0
	BYTE	W02
	BYTE		        c_v+1
	BYTE	W01
	BYTE		        c_v+2
	BYTE	W02
// 182   ----------------------------------------
	BYTE		        c_v+3
	BYTE	W01
	BYTE		        c_v+4
	BYTE	W02
	BYTE		        c_v+5
	BYTE	W01
	BYTE		        c_v+4
	BYTE	W02
	BYTE		        c_v+3
	BYTE	W01
	BYTE		        c_v+2
	BYTE	W02
	BYTE		        c_v+1
	BYTE	W01
	BYTE		        c_v+0
	BYTE	W02
	BYTE		        c_v-1
	BYTE	W01
	BYTE		        c_v-2
	BYTE	W02
	BYTE		        c_v-1
	BYTE	W01
	BYTE		        c_v+0
	BYTE	W02
	BYTE		        c_v+1
	BYTE	W01
	BYTE		        c_v+2
	BYTE	W02
	BYTE		        c_v+3
	BYTE	W01
	BYTE		        c_v+4
	BYTE	W02
// 183   ----------------------------------------
Vanishing_Trooper0000_5_183:
	BYTE		BEND    c_v+5
	BYTE	W01
	BYTE		        c_v+6
	BYTE	W02
	BYTE		        c_v+5
	BYTE	W01
	BYTE		        c_v+4
	BYTE	W02
	BYTE		        c_v+3
	BYTE	W01
	BYTE		        c_v+2
	BYTE	W02
	BYTE		        c_v+1
	BYTE	W01
	BYTE		        c_v+0
	BYTE	W02
	BYTE		        c_v-1
	BYTE	W01
	BYTE		        c_v-2
	BYTE	W02
	BYTE		        c_v-1
	BYTE	W01
	BYTE		        c_v+0
	BYTE	W02
	BYTE		        c_v+1
	BYTE	W01
	BYTE		        c_v+2
	BYTE	W02
	BYTE		        c_v+3
	BYTE	W01
	BYTE		        c_v+4
	BYTE	W02
	BYTE	PEND
// 184   ----------------------------------------
	BYTE	PATT
	 POIN2	Vanishing_Trooper0000_5_183
// 185   ----------------------------------------
	BYTE		BEND    c_v+3
	BYTE	W01
	BYTE		        c_v+2
	BYTE	W02
	BYTE		        c_v+1
	BYTE	W01
	BYTE		        c_v+0
	BYTE	W02
	BYTE		EOT     An3 
	BYTE		        An4 
	BYTE	W18
// 186   ----------------------------------------
	BYTE	W24
// 187   ----------------------------------------
	BYTE	W24
// 188   ----------------------------------------
	BYTE	W24
// 189   ----------------------------------------
	BYTE	W24
// 190   ----------------------------------------
	BYTE	W24
// 191   ----------------------------------------
	BYTE	W24
// 192   ----------------------------------------
Vanishing_Trooper0000_5_192:
	BYTE		N21     Dn3   v104
	BYTE		N21     Dn4   v088
	BYTE	W12
	BYTE		BEND    c_v+1
	BYTE	W01
	BYTE		        c_v+0
	BYTE	W02
	BYTE		        c_v-1
	BYTE	W01
	BYTE		        c_v+0
	BYTE	W08
	BYTE	PEND
// 193   ----------------------------------------
Vanishing_Trooper0000_5_193:
	BYTE		N68     Gn3   v104
	BYTE		N68     Gn4   v088
	BYTE	W12
	BYTE		BEND    c_v+1
	BYTE	W01
	BYTE		        c_v+0
	BYTE	W02
	BYTE		        c_v-1
	BYTE	W01
	BYTE		        c_v+0
	BYTE	W02
	BYTE		        c_v+1
	BYTE	W01
	BYTE		        c_v+2
	BYTE	W02
	BYTE		        c_v+1
	BYTE	W01
	BYTE		        c_v+0
	BYTE	W02
	BYTE	PEND
// 194   ----------------------------------------
	BYTE	PATT
	 POIN2	Vanishing_Trooper0000_5_108
// 195   ----------------------------------------
Vanishing_Trooper0000_5_195:
	BYTE		BEND    c_v+3
	BYTE	W01
	BYTE		        c_v+4
	BYTE	W02
	BYTE		        c_v+3
	BYTE	W01
	BYTE		        c_v+2
	BYTE	W02
	BYTE		        c_v+1
	BYTE	W01
	BYTE		        c_v+0
	BYTE	W02
	BYTE		        c_v-1
	BYTE	W01
	BYTE		        c_v-2
	BYTE	W02
	BYTE		        c_v-1
	BYTE	W01
	BYTE		        c_v+0
	BYTE	W02
	BYTE		        c_v+1
	BYTE	W01
	BYTE		        c_v+0
	BYTE	W08
	BYTE	PEND
// 196   ----------------------------------------
Vanishing_Trooper0000_5_196:
	BYTE		N21     Dn3   v104
	BYTE		N21     Dn4   v088
	BYTE	W12
	BYTE		BEND    c_v+1
	BYTE	W01
	BYTE		        c_v+0
	BYTE	W02
	BYTE		        c_v-1
	BYTE	W01
	BYTE		        c_v+0
	BYTE	W06
	BYTE		        c_v+0
	BYTE	W01
	BYTE		        c_v-40
	BYTE	W01
	BYTE	PEND
// 197   ----------------------------------------
Vanishing_Trooper0000_5_197:
	BYTE		BEND    c_v-57
	BYTE		N44     Fn3   v104
	BYTE		N44     Fn4   v088
	BYTE	W01
	BYTE		BEND    c_v-50
	BYTE	W01
	BYTE		        c_v-43
	BYTE	W01
	BYTE		        c_v-29
	BYTE	W01
	BYTE		        c_v-22
	BYTE	W01
	BYTE		        c_v-15
	BYTE	W01
	BYTE		        c_v-8
	BYTE	W01
	BYTE		        c_v-6
	BYTE	W02
	BYTE		        c_v-4
	BYTE	W01
	BYTE		        c_v-2
	BYTE	W02
	BYTE		        c_v+0
	BYTE	W06
	BYTE		        c_v+1
	BYTE	W01
	BYTE		        c_v+0
	BYTE	W02
	BYTE		        c_v-1
	BYTE	W01
	BYTE		        c_v+0
	BYTE	W02
	BYTE	PEND
// 198   ----------------------------------------
Vanishing_Trooper0000_5_198:
	BYTE		BEND    c_v+1
	BYTE	W01
	BYTE		        c_v+2
	BYTE	W02
	BYTE		        c_v+1
	BYTE	W01
	BYTE		        c_v+0
	BYTE	W02
	BYTE		        c_v-1
	BYTE	W01
	BYTE		        c_v-2
	BYTE	W02
	BYTE		        c_v-1
	BYTE	W01
	BYTE		        c_v+0
	BYTE	W02
	BYTE		        c_v+1
	BYTE	W01
	BYTE		        c_v+2
	BYTE	W02
	BYTE		        c_v+1
	BYTE	W01
	BYTE		        c_v+0
	BYTE	W08
	BYTE	PEND
// 199   ----------------------------------------
	BYTE		N44     Dn3   v104
	BYTE		N44     Dn4   v088
	BYTE	W12
	BYTE		BEND    c_v+1
	BYTE	W01
	BYTE		        c_v+0
	BYTE	W02
	BYTE		        c_v-1
	BYTE	W01
	BYTE		        c_v+0
	BYTE	W02
	BYTE		        c_v+1
	BYTE	W01
	BYTE		        c_v+2
	BYTE	W02
	BYTE		        c_v+1
	BYTE	W01
	BYTE		        c_v+0
	BYTE	W02
// 200   ----------------------------------------
Vanishing_Trooper0000_5_200:
	BYTE		BEND    c_v-1
	BYTE	W01
	BYTE		        c_v-2
	BYTE	W02
	BYTE		        c_v-1
	BYTE	W01
	BYTE		        c_v+0
	BYTE	W02
	BYTE		        c_v+1
	BYTE	W01
	BYTE		        c_v+2
	BYTE	W02
	BYTE		        c_v+3
	BYTE	W01
	BYTE		        c_v+2
	BYTE	W02
	BYTE		        c_v+1
	BYTE	W01
	BYTE		        c_v+0
	BYTE	W02
	BYTE		        c_v-1
	BYTE	W01
	BYTE		        c_v+0
	BYTE	W06
	BYTE		        c_v+0
	BYTE	W01
	BYTE		        c_v+39
	BYTE	W01
	BYTE	PEND
// 201   ----------------------------------------
	BYTE		        c_v+63
	BYTE		N80     As2   v104
	BYTE		N80     As3   v088
	BYTE	W12
	BYTE		BEND    c_v+62
	BYTE	W01
	BYTE		        c_v+61
	BYTE	W02
	BYTE		        c_v+60
	BYTE	W01
	BYTE		        c_v+61
	BYTE	W02
	BYTE		        c_v+62
	BYTE	W01
	BYTE		        c_v+63
	BYTE	W02
	BYTE		        c_v+62
	BYTE	W01
	BYTE		        c_v+61
	BYTE	W02
// 202   ----------------------------------------
	BYTE	PATT
	 POIN2	Vanishing_Trooper0000_5_068
// 203   ----------------------------------------
Vanishing_Trooper0000_5_203:
	BYTE		BEND    c_v+60
	BYTE	W01
	BYTE		        c_v+59
	BYTE	W02
	BYTE		        c_v+60
	BYTE	W01
	BYTE		        c_v+61
	BYTE	W02
	BYTE		        c_v+62
	BYTE	W01
	BYTE		        c_v+63
	BYTE	W02
	BYTE		        c_v+62
	BYTE	W01
	BYTE		        c_v+61
	BYTE	W02
	BYTE		        c_v+60
	BYTE	W01
	BYTE		        c_v+59
	BYTE	W02
	BYTE		        c_v+60
	BYTE	W01
	BYTE		        c_v+61
	BYTE	W03
	BYTE		        c_v+62
	BYTE	W02
	BYTE		        c_v+56
	BYTE	W01
	BYTE		        c_v+48
	BYTE	W01
	BYTE		        c_v+40
	BYTE	W01
	BYTE	PEND
// 204   ----------------------------------------
Vanishing_Trooper0000_5_204:
	BYTE		BEND    c_v+24
	BYTE	W01
	BYTE		        c_v+16
	BYTE	W01
	BYTE		        c_v+8
	BYTE	W01
	BYTE		        c_v-8
	BYTE	W01
	BYTE		        c_v-16
	BYTE	W01
	BYTE		        c_v-24
	BYTE	W01
	BYTE		        c_v-40
	BYTE	W01
	BYTE		        c_v-48
	BYTE	W01
	BYTE		        c_v-56
	BYTE	W01
	BYTE		        c_v-64
	BYTE	W13
	BYTE		        c_v-64
	BYTE	W01
	BYTE		        c_v-24
	BYTE	W01
	BYTE	PEND
// 205   ----------------------------------------
Vanishing_Trooper0000_5_205:
	BYTE		BEND    c_v+0
	BYTE		N21     An3   v104
	BYTE		N21     An4   v088
	BYTE	W12
	BYTE		BEND    c_v+1
	BYTE	W01
	BYTE		        c_v+0
	BYTE	W02
	BYTE		        c_v-1
	BYTE	W01
	BYTE		        c_v+0
	BYTE	W08
	BYTE	PEND
// 206   ----------------------------------------
Vanishing_Trooper0000_5_206:
	BYTE		N21     En3   v104
	BYTE		N21     En4   v088
	BYTE	W12
	BYTE		BEND    c_v+1
	BYTE	W01
	BYTE		        c_v+0
	BYTE	W02
	BYTE		        c_v-1
	BYTE	W01
	BYTE		        c_v+0
	BYTE	W06
	BYTE		        c_v+0
	BYTE	W01
	BYTE		        c_v-40
	BYTE	W01
	BYTE	PEND
// 207   ----------------------------------------
Vanishing_Trooper0000_5_207:
	BYTE		BEND    c_v-56
	BYTE		N21     Cn4   v104
	BYTE		N21     Cn5   v088
	BYTE	W01
	BYTE		BEND    c_v-48
	BYTE	W01
	BYTE		        c_v-40
	BYTE	W01
	BYTE		        c_v-24
	BYTE	W01
	BYTE		        c_v-16
	BYTE	W01
	BYTE		        c_v-8
	BYTE	W01
	BYTE		        c_v+0
	BYTE	W06
	BYTE		        c_v+1
	BYTE	W01
	BYTE		        c_v+0
	BYTE	W02
	BYTE		        c_v-1
	BYTE	W01
	BYTE		        c_v+0
	BYTE	W08
	BYTE	PEND
// 208   ----------------------------------------
Vanishing_Trooper0000_5_208:
	BYTE		N21     As3   v104
	BYTE		N21     As4   v088
	BYTE	W12
	BYTE		BEND    c_v+1
	BYTE	W01
	BYTE		        c_v+0
	BYTE	W02
	BYTE		        c_v-1
	BYTE	W01
	BYTE		        c_v+0
	BYTE	W08
	BYTE	PEND
// 209   ----------------------------------------
Vanishing_Trooper0000_5_209:
	BYTE		N11     An3   v104
	BYTE		N11     An4   v088
	BYTE	W12
	BYTE		        As3   v104
	BYTE		N11     As4   v088
	BYTE	W12
	BYTE	PEND
// 210   ----------------------------------------
Vanishing_Trooper0000_5_210:
	BYTE		N36     An3   v104
	BYTE		N36     An4   v088
	BYTE	W12
	BYTE		BEND    c_v+1
	BYTE	W01
	BYTE		        c_v+0
	BYTE	W02
	BYTE		        c_v-1
	BYTE	W01
	BYTE		        c_v+0
	BYTE	W02
	BYTE		        c_v+1
	BYTE	W01
	BYTE		        c_v+2
	BYTE	W02
	BYTE		        c_v+1
	BYTE	W01
	BYTE		        c_v+0
	BYTE	W02
	BYTE	PEND
// 211   ----------------------------------------
Vanishing_Trooper0000_5_211:
	BYTE		BEND    c_v-1
	BYTE	W01
	BYTE		        c_v-2
	BYTE	W02
	BYTE		        c_v-1
	BYTE	W01
	BYTE		        c_v+0
	BYTE	W02
	BYTE		        c_v+1
	BYTE	W01
	BYTE		        c_v+2
	BYTE	W02
	BYTE		        c_v+1
	BYTE	W01
	BYTE		        c_v+0
	BYTE	W14
	BYTE	PEND
// 212   ----------------------------------------
	BYTE	PATT
	 POIN2	Vanishing_Trooper0000_5_192
// 213   ----------------------------------------
Vanishing_Trooper0000_5_213:
	BYTE		N20     Gn3   v104
	BYTE		N20     Gn4   v088
	BYTE	W12
	BYTE		BEND    c_v+1
	BYTE	W01
	BYTE		        c_v+0
	BYTE	W02
	BYTE		        c_v-1
	BYTE	W01
	BYTE		        c_v+0
	BYTE	W08
	BYTE	PEND
// 214   ----------------------------------------
	BYTE	PATT
	 POIN2	Vanishing_Trooper0000_5_213
// 215   ----------------------------------------
	BYTE		N21     An3   v104
	BYTE		N21     An4   v088
	BYTE	W12
	BYTE		BEND    c_v+1
	BYTE	W01
	BYTE		        c_v+0
	BYTE	W02
	BYTE		        c_v-1
	BYTE	W01
	BYTE		        c_v+0
	BYTE	W06
	BYTE		        c_v+0
	BYTE	W01
	BYTE		        c_v-40
	BYTE	W01
// 216   ----------------------------------------
	BYTE		        c_v-56
	BYTE		N09     As3   v104
	BYTE		N09     As4   v088
	BYTE	W01
	BYTE		BEND    c_v-48
	BYTE	W01
	BYTE		        c_v-40
	BYTE	W01
	BYTE		        c_v-24
	BYTE	W01
	BYTE		        c_v-16
	BYTE	W01
	BYTE		        c_v-8
	BYTE	W01
	BYTE		        c_v+0
	BYTE	W06
	BYTE		TIE     An3   v104
	BYTE		TIE     An4   v088
	BYTE	W12
// 217   ----------------------------------------
Vanishing_Trooper0000_5_217:
	BYTE		BEND    c_v+0
	BYTE	W01
	BYTE		        c_v+1
	BYTE	W02
	BYTE		        c_v+2
	BYTE	W01
	BYTE		        c_v+1
	BYTE	W02
	BYTE		        c_v+0
	BYTE	W01
	BYTE		        c_v-1
	BYTE	W02
	BYTE		        c_v-2
	BYTE	W01
	BYTE		        c_v-1
	BYTE	W02
	BYTE		        c_v+0
	BYTE	W01
	BYTE		        c_v+1
	BYTE	W02
	BYTE		        c_v+2
	BYTE	W01
	BYTE		        c_v+1
	BYTE	W02
	BYTE		        c_v+0
	BYTE	W01
	BYTE		        c_v-1
	BYTE	W02
	BYTE		        c_v-2
	BYTE	W01
	BYTE		        c_v-1
	BYTE	W02
	BYTE	PEND
// 218   ----------------------------------------
Vanishing_Trooper0000_5_218:
	BYTE		BEND    c_v+0
	BYTE	W01
	BYTE		        c_v+1
	BYTE	W02
	BYTE		        c_v+2
	BYTE	W01
	BYTE		        c_v+3
	BYTE	W02
	BYTE		        c_v+2
	BYTE	W01
	BYTE		        c_v+1
	BYTE	W02
	BYTE		        c_v+0
	BYTE	W01
	BYTE		        c_v-1
	BYTE	W02
	BYTE		        c_v-2
	BYTE	W01
	BYTE		        c_v-1
	BYTE	W02
	BYTE		        c_v+0
	BYTE	W01
	BYTE		        c_v+1
	BYTE	W02
	BYTE		        c_v+2
	BYTE	W01
	BYTE		        c_v+3
	BYTE	W02
	BYTE		        c_v+4
	BYTE	W01
	BYTE		        c_v+3
	BYTE	W02
	BYTE	PEND
// 219   ----------------------------------------
Vanishing_Trooper0000_5_219:
	BYTE		BEND    c_v+2
	BYTE	W01
	BYTE		        c_v+1
	BYTE	W02
	BYTE		        c_v+0
	BYTE	W01
	BYTE		        c_v-1
	BYTE	W02
	BYTE		        c_v-2
	BYTE	W01
	BYTE		        c_v-1
	BYTE	W02
	BYTE		        c_v+0
	BYTE	W01
	BYTE		        c_v+1
	BYTE	W02
	BYTE		        c_v+2
	BYTE	W01
	BYTE		        c_v+3
	BYTE	W02
	BYTE		        c_v+4
	BYTE	W01
	BYTE		        c_v+3
	BYTE	W02
	BYTE		        c_v+2
	BYTE	W01
	BYTE		        c_v+1
	BYTE	W02
	BYTE		        c_v+0
	BYTE	W01
	BYTE		        c_v-1
	BYTE	W02
	BYTE	PEND
// 220   ----------------------------------------
Vanishing_Trooper0000_5_220:
	BYTE		BEND    c_v-2
	BYTE	W01
	BYTE		        c_v-1
	BYTE	W02
	BYTE		        c_v+0
	BYTE	W01
	BYTE		        c_v+1
	BYTE	W02
	BYTE		        c_v+2
	BYTE	W01
	BYTE		        c_v+3
	BYTE	W02
	BYTE		        c_v+4
	BYTE	W01
	BYTE		        c_v+3
	BYTE	W02
	BYTE		        c_v+2
	BYTE	W01
	BYTE		        c_v+1
	BYTE	W02
	BYTE		        c_v+0
	BYTE	W01
	BYTE		        c_v-1
	BYTE	W02
	BYTE		        c_v-2
	BYTE	W01
	BYTE		        c_v-1
	BYTE	W02
	BYTE		        c_v+0
	BYTE	W01
	BYTE		        c_v+1
	BYTE	W02
	BYTE	PEND
// 221   ----------------------------------------
Vanishing_Trooper0000_5_221:
	BYTE		BEND    c_v+2
	BYTE	W01
	BYTE		        c_v+3
	BYTE	W02
	BYTE		        c_v+4
	BYTE	W01
	BYTE		        c_v+5
	BYTE	W02
	BYTE		        c_v+4
	BYTE	W01
	BYTE		        c_v+3
	BYTE	W02
	BYTE		        c_v+2
	BYTE	W01
	BYTE		        c_v+1
	BYTE	W02
	BYTE		        c_v+0
	BYTE	W01
	BYTE		        c_v-1
	BYTE	W02
	BYTE		        c_v-2
	BYTE	W01
	BYTE		        c_v-1
	BYTE	W02
	BYTE		        c_v+0
	BYTE	W01
	BYTE		        c_v+1
	BYTE	W02
	BYTE		        c_v+2
	BYTE	W01
	BYTE		        c_v+3
	BYTE	W02
	BYTE	PEND
// 222   ----------------------------------------
	BYTE		        c_v+4
	BYTE	W01
	BYTE		        c_v+5
	BYTE	W02
	BYTE		        c_v+4
	BYTE	W01
	BYTE		        c_v+3
	BYTE	W02
	BYTE		        c_v+2
	BYTE	W01
	BYTE		        c_v+1
	BYTE	W02
	BYTE		        c_v+0
	BYTE	W01
	BYTE		        c_v-1
	BYTE	W02
	BYTE		        c_v-2
	BYTE	W01
	BYTE		        c_v-1
	BYTE	W02
	BYTE		        c_v+0
	BYTE	W01
	BYTE		        c_v+1
	BYTE	W02
	BYTE		        c_v+2
	BYTE	W01
	BYTE		        c_v+3
	BYTE	W02
	BYTE		        c_v+4
	BYTE	W01
	BYTE		        c_v+3
	BYTE	W02
// 223   ----------------------------------------
	BYTE		        c_v+2
	BYTE	W01
	BYTE		        c_v+1
	BYTE	W02
	BYTE		        c_v+0
	BYTE	W06
	BYTE		EOT     An3 
	BYTE		        An4 
	BYTE	W15
// 224   ----------------------------------------
	BYTE	PATT
	 POIN2	Vanishing_Trooper0000_5_192
// 225   ----------------------------------------
	BYTE	PATT
	 POIN2	Vanishing_Trooper0000_5_193
// 226   ----------------------------------------
	BYTE	PATT
	 POIN2	Vanishing_Trooper0000_5_108
// 227   ----------------------------------------
	BYTE	PATT
	 POIN2	Vanishing_Trooper0000_5_195
// 228   ----------------------------------------
	BYTE	PATT
	 POIN2	Vanishing_Trooper0000_5_196
// 229   ----------------------------------------
	BYTE	PATT
	 POIN2	Vanishing_Trooper0000_5_197
// 230   ----------------------------------------
	BYTE	PATT
	 POIN2	Vanishing_Trooper0000_5_198
// 231   ----------------------------------------
	BYTE		N44     An3   v104
	BYTE		N44     An4   v088
	BYTE	W12
	BYTE		BEND    c_v+1
	BYTE	W01
	BYTE		        c_v+0
	BYTE	W02
	BYTE		        c_v-1
	BYTE	W01
	BYTE		        c_v+0
	BYTE	W02
	BYTE		        c_v+1
	BYTE	W01
	BYTE		        c_v+2
	BYTE	W02
	BYTE		        c_v+1
	BYTE	W01
	BYTE		        c_v+0
	BYTE	W02
// 232   ----------------------------------------
	BYTE	PATT
	 POIN2	Vanishing_Trooper0000_5_200
// 233   ----------------------------------------
	BYTE		BEND    c_v+63
	BYTE		N80     Gs3   v104
	BYTE		N80     Gs4   v088
	BYTE	W12
	BYTE		BEND    c_v+62
	BYTE	W01
	BYTE		        c_v+61
	BYTE	W02
	BYTE		        c_v+60
	BYTE	W01
	BYTE		        c_v+61
	BYTE	W02
	BYTE		        c_v+62
	BYTE	W01
	BYTE		        c_v+63
	BYTE	W02
	BYTE		        c_v+62
	BYTE	W01
	BYTE		        c_v+61
	BYTE	W02
// 234   ----------------------------------------
	BYTE	PATT
	 POIN2	Vanishing_Trooper0000_5_068
// 235   ----------------------------------------
	BYTE	PATT
	 POIN2	Vanishing_Trooper0000_5_203
// 236   ----------------------------------------
	BYTE	PATT
	 POIN2	Vanishing_Trooper0000_5_204
// 237   ----------------------------------------
	BYTE	PATT
	 POIN2	Vanishing_Trooper0000_5_205
// 238   ----------------------------------------
	BYTE	PATT
	 POIN2	Vanishing_Trooper0000_5_206
// 239   ----------------------------------------
	BYTE	PATT
	 POIN2	Vanishing_Trooper0000_5_207
// 240   ----------------------------------------
	BYTE	PATT
	 POIN2	Vanishing_Trooper0000_5_208
// 241   ----------------------------------------
	BYTE	PATT
	 POIN2	Vanishing_Trooper0000_5_209
// 242   ----------------------------------------
	BYTE	PATT
	 POIN2	Vanishing_Trooper0000_5_210
// 243   ----------------------------------------
	BYTE	PATT
	 POIN2	Vanishing_Trooper0000_5_211
// 244   ----------------------------------------
	BYTE	PATT
	 POIN2	Vanishing_Trooper0000_5_192
// 245   ----------------------------------------
	BYTE	PATT
	 POIN2	Vanishing_Trooper0000_5_213
// 246   ----------------------------------------
	BYTE		N20     Gn3   v104
	BYTE		N20     Gn4   v088
	BYTE	W12
	BYTE		BEND    c_v+1
	BYTE	W01
	BYTE		        c_v+0
	BYTE	W02
	BYTE		        c_v-1
	BYTE	W01
	BYTE		        c_v+0
	BYTE	W06
	BYTE		        c_v+0
	BYTE	W01
	BYTE		        c_v+39
	BYTE	W01
// 247   ----------------------------------------
	BYTE		        c_v+63
	BYTE		N21     Gn3   v104
	BYTE		N21     Gn4   v088
	BYTE	W12
	BYTE		BEND    c_v+53
	BYTE	W01
	BYTE		        c_v+42
	BYTE	W01
	BYTE		        c_v+32
	BYTE	W01
	BYTE		        c_v+11
	BYTE	W01
	BYTE		        c_v+0
	BYTE	W01
	BYTE		        c_v-11
	BYTE	W01
	BYTE		        c_v-32
	BYTE	W01
	BYTE		        c_v-42
	BYTE	W01
	BYTE		        c_v-53
	BYTE	W01
	BYTE		        c_v-64
	BYTE	W01
	BYTE		        c_v-64
	BYTE	W01
	BYTE		        c_v-24
	BYTE	W01
// 248   ----------------------------------------
	BYTE		        c_v+0
	BYTE		N09     Dn3   v104
	BYTE		N09     Dn4   v088
	BYTE	W10
	BYTE		BEND    c_v+0
	BYTE	W01
	BYTE		        c_v-40
	BYTE	W01
	BYTE		        c_v-58
	BYTE		TIE     Dn4   v108
	BYTE		TIE     Dn5   v092
	BYTE	W01
	BYTE		BEND    c_v-52
	BYTE	W01
	BYTE		        c_v-46
	BYTE	W01
	BYTE		        c_v-34
	BYTE	W01
	BYTE		        c_v-28
	BYTE	W01
	BYTE		        c_v-22
	BYTE	W01
	BYTE		        c_v-16
	BYTE	W01
	BYTE		        c_v-12
	BYTE	W02
	BYTE		        c_v-8
	BYTE	W01
	BYTE		        c_v-4
	BYTE	W02
// 249   ----------------------------------------
	BYTE	PATT
	 POIN2	Vanishing_Trooper0000_5_217
// 250   ----------------------------------------
	BYTE	PATT
	 POIN2	Vanishing_Trooper0000_5_218
// 251   ----------------------------------------
	BYTE	PATT
	 POIN2	Vanishing_Trooper0000_5_219
// 252   ----------------------------------------
	BYTE	PATT
	 POIN2	Vanishing_Trooper0000_5_220
// 253   ----------------------------------------
	BYTE	PATT
	 POIN2	Vanishing_Trooper0000_5_221
// 254   ----------------------------------------
	BYTE		BEND    c_v+4
	BYTE	W01
	BYTE		        c_v+5
	BYTE	W02
	BYTE		        c_v+4
	BYTE	W01
	BYTE		        c_v+3
	BYTE	W02
	BYTE		        c_v+2
	BYTE	W01
	BYTE		        c_v+1
	BYTE	W02
	BYTE		        c_v+0
	BYTE	W01
	BYTE		        c_v-1
	BYTE	W02
	BYTE		        c_v-2
	BYTE	W01
	BYTE		        c_v-1
	BYTE	W02
	BYTE		        c_v+0
	BYTE	W01
	BYTE		        c_v+1
	BYTE	W02
	BYTE		        c_v+2
	BYTE	W01
	BYTE		        c_v+3
	BYTE	W02
	BYTE		        c_v+4
	BYTE	W01
	BYTE		        c_v+5
	BYTE	W02
// 255   ----------------------------------------
	BYTE		        c_v+6
	BYTE	W01
	BYTE		        c_v+5
	BYTE	W02
	BYTE		        c_v+4
	BYTE	W01
	BYTE		        c_v+3
	BYTE	W02
	BYTE		        c_v+2
	BYTE	W01
	BYTE		        c_v+1
	BYTE	W02
	BYTE		        c_v+0
	BYTE	W01
	BYTE		        c_v-1
	BYTE	W02
	BYTE		        c_v-2
	BYTE	W01
	BYTE		        c_v-1
	BYTE	W02
	BYTE		        c_v+0
	BYTE	W01
	BYTE		        c_v+1
	BYTE	W02
	BYTE		        c_v+2
	BYTE	W01
	BYTE		        c_v+3
	BYTE	W02
	BYTE		        c_v+4
	BYTE	W01
	BYTE		        c_v+5
	BYTE	W02
// 256   ----------------------------------------
	BYTE		        c_v+6
	BYTE	W01
	BYTE		        c_v+5
	BYTE	W02
	BYTE		        c_v+4
	BYTE	W01
	BYTE		        c_v+3
	BYTE	W02
	BYTE		        c_v+2
	BYTE	W01
	BYTE		        c_v+1
	BYTE	W02
	BYTE		        c_v+0
	BYTE	W01
	BYTE		        c_v-1
	BYTE	W02
	BYTE		        c_v-2
	BYTE	W01
	BYTE		        c_v-1
	BYTE	W02
	BYTE		        c_v+0
	BYTE	W06
	BYTE		EOT     Dn4 
	BYTE		        Dn5 
	BYTE	W03
// 257   ----------------------------------------
	BYTE	W12
	BYTE		N08     Dn3   v104
	BYTE		N08     Dn4   v088
	BYTE	W10
	BYTE		BEND    c_v+0
	BYTE	W01
	BYTE		        c_v-33
	BYTE	W01
// 258   ----------------------------------------
	BYTE		        c_v-29
	BYTE		N11     Fn3   v104
	BYTE		N11     Fn4   v088
	BYTE	W01
	BYTE		BEND    c_v-25
	BYTE	W01
	BYTE		        c_v-21
	BYTE	W01
	BYTE		        c_v-13
	BYTE	W01
	BYTE		        c_v-9
	BYTE	W01
	BYTE		        c_v-5
	BYTE	W01
	BYTE		        c_v+0
	BYTE	W06
	BYTE		N08     Dn3   v104
	BYTE		N08     Dn4   v088
	BYTE	W10
	BYTE		BEND    c_v+0
	BYTE	W01
	BYTE		        c_v+6
	BYTE	W01
// 259   ----------------------------------------
	BYTE		        c_v+13
	BYTE		N11     Gs3   v104
	BYTE		N11     Gs4   v088
	BYTE	W01
	BYTE		BEND    c_v+26
	BYTE	W01
	BYTE		        c_v+32
	BYTE	W01
	BYTE		        c_v+39
	BYTE	W01
	BYTE		        c_v+52
	BYTE	W01
	BYTE		        c_v+59
	BYTE	W01
	BYTE		        c_v+63
	BYTE	W06
	BYTE		        c_v+63
	BYTE		N14     Fn3   v104
	BYTE		N14     Fn4   v088
	BYTE	W06
	BYTE		BEND    c_v+51
	BYTE	W01
	BYTE		        c_v+39
	BYTE	W01
	BYTE		        c_v+27
	BYTE	W01
	BYTE		        c_v+2
	BYTE	W01
	BYTE		        c_v-10
	BYTE	W01
	BYTE		        c_v-22
	BYTE	W01
// 260   ----------------------------------------
	BYTE		        c_v-46
	BYTE	W01
	BYTE		        c_v-64
	BYTE	W23
// 261   ----------------------------------------
	BYTE	W24
// 262   ----------------------------------------
	BYTE	W24
// 263   ----------------------------------------
	BYTE	W24
// 264   ----------------------------------------
	BYTE	W24
// 265   ----------------------------------------
	BYTE	W24
// 266   ----------------------------------------
	BYTE	W24
// 267   ----------------------------------------
	BYTE	W24
// 268   ----------------------------------------
	BYTE	W24
// 269   ----------------------------------------
	BYTE	W24
// 270   ----------------------------------------
	BYTE	W24
// 271   ----------------------------------------
	BYTE	W24
// 272   ----------------------------------------
	BYTE	W24
// 273   ----------------------------------------
	BYTE	W24
// 274   ----------------------------------------
	BYTE	W24
// 275   ----------------------------------------
	BYTE	W24
// 276   ----------------------------------------
	BYTE	W24
// 277   ----------------------------------------
	BYTE	W24
// 278   ----------------------------------------
	BYTE	W24
// 279   ----------------------------------------
	BYTE	W24
// 280   ----------------------------------------
	BYTE	W24
// 281   ----------------------------------------
	BYTE	W24
// 282   ----------------------------------------
	BYTE	W24
// 283   ----------------------------------------
	BYTE	W24
// 284   ----------------------------------------
	BYTE	W24
// 285   ----------------------------------------
	BYTE	W24
// 286   ----------------------------------------
	BYTE	W24
// 287   ----------------------------------------
	BYTE	W24
// 288   ----------------------------------------
	BYTE	W24
// 289   ----------------------------------------
	BYTE	W24
// 290   ----------------------------------------
	BYTE	W24
// 291   ----------------------------------------
	BYTE	W24
// 292   ----------------------------------------
	BYTE	W12
	BYTE	GoTo
	 POIN2	Vanishing_Trooper0000_5_B1
Vanishing_Trooper0000_5_B2:
	BYTE	W11
	BYTE	FINE

//**************** Track 6 (Midi-Chn.9) ****************//

Vanishing_Trooper0000_6:
	BYTE	KEYSH   Vanishing_Trooper0000_key+0
// 000   ----------------------------------------
	BYTE		VOICE   34
	BYTE		VOL     42*Vanishing_Trooper0000_mvl/mxv
	BYTE	W01
	BYTE		PAN     c_v+0
	BYTE	W01
	BYTE		BEND    c_v+0
	BYTE	W22
// 001   ----------------------------------------
Vanishing_Trooper0000_6_001:
	BYTE		N12     Gn1   v092
	BYTE	W12
	BYTE		N06   
	BYTE	W12
	BYTE	PEND
// 002   ----------------------------------------
	BYTE	W24
// 003   ----------------------------------------
	BYTE	PATT
	 POIN2	Vanishing_Trooper0000_6_001
// 004   ----------------------------------------
	BYTE	W24
// 005   ----------------------------------------
	BYTE	PATT
	 POIN2	Vanishing_Trooper0000_6_001
// 006   ----------------------------------------
	BYTE	W24
// 007   ----------------------------------------
Vanishing_Trooper0000_6_007:
	BYTE		N12     Fn1   v092
	BYTE	W12
	BYTE		        Gn1 
	BYTE	W12
	BYTE	PEND
// 008   ----------------------------------------
	BYTE	W24
// 009   ----------------------------------------
	BYTE	PATT
	 POIN2	Vanishing_Trooper0000_6_001
// 010   ----------------------------------------
	BYTE	PATT
	 POIN2	Vanishing_Trooper0000_6_001
// 011   ----------------------------------------
	BYTE	PATT
	 POIN2	Vanishing_Trooper0000_6_001
// 012   ----------------------------------------
	BYTE	PATT
	 POIN2	Vanishing_Trooper0000_6_001
// 013   ----------------------------------------
	BYTE	PATT
	 POIN2	Vanishing_Trooper0000_6_001
// 014   ----------------------------------------
	BYTE	PATT
	 POIN2	Vanishing_Trooper0000_6_001
// 015   ----------------------------------------
	BYTE	PATT
	 POIN2	Vanishing_Trooper0000_6_007
// 016   ----------------------------------------
	BYTE	PATT
	 POIN2	Vanishing_Trooper0000_6_001
// 017   ----------------------------------------
Vanishing_Trooper0000_6_017:
	BYTE		N10     Gn1   v064
	BYTE	W12
	BYTE		N10   
	BYTE	W12
	BYTE	PEND
// 018   ----------------------------------------
	BYTE	PATT
	 POIN2	Vanishing_Trooper0000_6_017
// 019   ----------------------------------------
	BYTE	PATT
	 POIN2	Vanishing_Trooper0000_6_017
// 020   ----------------------------------------
	BYTE	PATT
	 POIN2	Vanishing_Trooper0000_6_017
// 021   ----------------------------------------
	BYTE	PATT
	 POIN2	Vanishing_Trooper0000_6_017
// 022   ----------------------------------------
	BYTE	PATT
	 POIN2	Vanishing_Trooper0000_6_017
// 023   ----------------------------------------
Vanishing_Trooper0000_6_023:
	BYTE		N10     Fn1   v064
	BYTE	W12
	BYTE		        Gn1 
	BYTE	W12
	BYTE	PEND
// 024   ----------------------------------------
	BYTE	PATT
	 POIN2	Vanishing_Trooper0000_6_017
// 025   ----------------------------------------
Vanishing_Trooper0000_6_025:
	BYTE		N10     Gs1   v064
	BYTE	W12
	BYTE		N10   
	BYTE	W12
	BYTE	PEND
// 026   ----------------------------------------
	BYTE	PATT
	 POIN2	Vanishing_Trooper0000_6_025
// 027   ----------------------------------------
	BYTE	PATT
	 POIN2	Vanishing_Trooper0000_6_025
// 028   ----------------------------------------
	BYTE	PATT
	 POIN2	Vanishing_Trooper0000_6_025
// 029   ----------------------------------------
	BYTE	PATT
	 POIN2	Vanishing_Trooper0000_6_025
// 030   ----------------------------------------
	BYTE	PATT
	 POIN2	Vanishing_Trooper0000_6_025
// 031   ----------------------------------------
Vanishing_Trooper0000_6_031:
	BYTE		N10     Fs1   v064
	BYTE	W12
	BYTE		        Gs1 
	BYTE	W12
	BYTE	PEND
// 032   ----------------------------------------
	BYTE	PATT
	 POIN2	Vanishing_Trooper0000_6_025
// 033   ----------------------------------------
	BYTE	PATT
	 POIN2	Vanishing_Trooper0000_6_017
// 034   ----------------------------------------
	BYTE	PATT
	 POIN2	Vanishing_Trooper0000_6_017
// 035   ----------------------------------------
	BYTE	PATT
	 POIN2	Vanishing_Trooper0000_6_017
// 036   ----------------------------------------
	BYTE	PATT
	 POIN2	Vanishing_Trooper0000_6_017
// 037   ----------------------------------------
	BYTE	PATT
	 POIN2	Vanishing_Trooper0000_6_017
// 038   ----------------------------------------
	BYTE	PATT
	 POIN2	Vanishing_Trooper0000_6_017
// 039   ----------------------------------------
	BYTE	PATT
	 POIN2	Vanishing_Trooper0000_6_023
// 040   ----------------------------------------
	BYTE	PATT
	 POIN2	Vanishing_Trooper0000_6_017
// 041   ----------------------------------------
Vanishing_Trooper0000_6_041:
	BYTE		N10     Ds2   v064
	BYTE	W12
	BYTE		N10   
	BYTE	W12
	BYTE	PEND
// 042   ----------------------------------------
	BYTE	PATT
	 POIN2	Vanishing_Trooper0000_6_041
// 043   ----------------------------------------
	BYTE	PATT
	 POIN2	Vanishing_Trooper0000_6_041
// 044   ----------------------------------------
	BYTE	PATT
	 POIN2	Vanishing_Trooper0000_6_041
// 045   ----------------------------------------
Vanishing_Trooper0000_6_045:
	BYTE		N10     Dn2   v064
	BYTE	W12
	BYTE		N10   
	BYTE	W12
	BYTE	PEND
// 046   ----------------------------------------
	BYTE	PATT
	 POIN2	Vanishing_Trooper0000_6_045
// 047   ----------------------------------------
	BYTE	PATT
	 POIN2	Vanishing_Trooper0000_6_045
// 048   ----------------------------------------
	BYTE	W24
Vanishing_Trooper0000_6_B1:
// 049   ----------------------------------------
	BYTE		N09     Dn2   v064
	BYTE	W12
	BYTE		        Gn1 
	BYTE	W12
// 050   ----------------------------------------
	BYTE		        Cn2 
	BYTE	W11
	BYTE		BEND    c_v+0
	BYTE	W01
	BYTE		        c_v-56
	BYTE		N09     Ds2 
	BYTE	W01
	BYTE		BEND    c_v-48
	BYTE	W01
	BYTE		        c_v-40
	BYTE	W01
	BYTE		        c_v-24
	BYTE	W01
	BYTE		        c_v-16
	BYTE	W01
	BYTE		        c_v-8
	BYTE	W01
	BYTE		        c_v+0
	BYTE	W06
// 051   ----------------------------------------
	BYTE		N09     Gs1 
	BYTE	W12
	BYTE		        Cs2 
	BYTE	W09
	BYTE		BEND    c_v-16
	BYTE	W01
	BYTE		        c_v-32
	BYTE	W01
	BYTE		        c_v-48
	BYTE	W01
// 052   ----------------------------------------
	BYTE		        c_v-56
	BYTE		N09     En1 
	BYTE	W01
	BYTE		BEND    c_v-48
	BYTE	W01
	BYTE		        c_v-40
	BYTE	W01
	BYTE		        c_v-24
	BYTE	W01
	BYTE		        c_v-16
	BYTE	W01
	BYTE		        c_v-8
	BYTE	W01
	BYTE		        c_v+0
	BYTE	W06
	BYTE		N09     An1 
	BYTE	W12
// 053   ----------------------------------------
	BYTE		        Dn2 
	BYTE	W09
	BYTE		BEND    c_v-16
	BYTE	W01
	BYTE		        c_v-32
	BYTE	W01
	BYTE		        c_v-48
	BYTE	W01
	BYTE		        c_v-56
	BYTE		N09     Fn1 
	BYTE	W01
	BYTE		BEND    c_v-48
	BYTE	W01
	BYTE		        c_v-40
	BYTE	W01
	BYTE		        c_v-24
	BYTE	W01
	BYTE		        c_v-16
	BYTE	W01
	BYTE		        c_v-8
	BYTE	W01
	BYTE		        c_v+0
	BYTE	W06
// 054   ----------------------------------------
	BYTE		N09     As1 
	BYTE	W12
	BYTE		        Ds2 
	BYTE	W06
	BYTE		BEND    c_v+0
	BYTE	W02
	BYTE		        c_v-5
	BYTE	W01
	BYTE		        c_v-11
	BYTE	W01
	BYTE		        c_v-16
	BYTE	W01
	BYTE		        c_v+9
	BYTE	W01
// 055   ----------------------------------------
	BYTE		        c_v+18
	BYTE		N09     Dn2 
	BYTE	W01
	BYTE		BEND    c_v+12
	BYTE	W01
	BYTE		        c_v+6
	BYTE	W01
	BYTE		        c_v+0
	BYTE	W09
	BYTE		N09     An1 
	BYTE	W12
// 056   ----------------------------------------
	BYTE		        Cn2 
	BYTE	W12
	BYTE		        Dn2 
	BYTE	W12
// 057   ----------------------------------------
	BYTE	PATT
	 POIN2	Vanishing_Trooper0000_6_017
// 058   ----------------------------------------
	BYTE	PATT
	 POIN2	Vanishing_Trooper0000_6_017
// 059   ----------------------------------------
	BYTE	PATT
	 POIN2	Vanishing_Trooper0000_6_017
// 060   ----------------------------------------
	BYTE	PATT
	 POIN2	Vanishing_Trooper0000_6_017
// 061   ----------------------------------------
	BYTE	PATT
	 POIN2	Vanishing_Trooper0000_6_017
// 062   ----------------------------------------
	BYTE	PATT
	 POIN2	Vanishing_Trooper0000_6_017
// 063   ----------------------------------------
	BYTE	PATT
	 POIN2	Vanishing_Trooper0000_6_023
// 064   ----------------------------------------
	BYTE	PATT
	 POIN2	Vanishing_Trooper0000_6_017
// 065   ----------------------------------------
	BYTE	PATT
	 POIN2	Vanishing_Trooper0000_6_017
// 066   ----------------------------------------
	BYTE	PATT
	 POIN2	Vanishing_Trooper0000_6_017
// 067   ----------------------------------------
	BYTE	PATT
	 POIN2	Vanishing_Trooper0000_6_017
// 068   ----------------------------------------
	BYTE	PATT
	 POIN2	Vanishing_Trooper0000_6_017
// 069   ----------------------------------------
	BYTE	PATT
	 POIN2	Vanishing_Trooper0000_6_017
// 070   ----------------------------------------
	BYTE	PATT
	 POIN2	Vanishing_Trooper0000_6_017
// 071   ----------------------------------------
	BYTE	PATT
	 POIN2	Vanishing_Trooper0000_6_023
// 072   ----------------------------------------
	BYTE	PATT
	 POIN2	Vanishing_Trooper0000_6_017
// 073   ----------------------------------------
	BYTE	PATT
	 POIN2	Vanishing_Trooper0000_6_041
// 074   ----------------------------------------
	BYTE	PATT
	 POIN2	Vanishing_Trooper0000_6_041
// 075   ----------------------------------------
	BYTE	PATT
	 POIN2	Vanishing_Trooper0000_6_041
// 076   ----------------------------------------
	BYTE	PATT
	 POIN2	Vanishing_Trooper0000_6_041
// 077   ----------------------------------------
	BYTE	PATT
	 POIN2	Vanishing_Trooper0000_6_041
// 078   ----------------------------------------
	BYTE	PATT
	 POIN2	Vanishing_Trooper0000_6_041
// 079   ----------------------------------------
	BYTE	PATT
	 POIN2	Vanishing_Trooper0000_6_041
// 080   ----------------------------------------
	BYTE	PATT
	 POIN2	Vanishing_Trooper0000_6_041
// 081   ----------------------------------------
	BYTE	PATT
	 POIN2	Vanishing_Trooper0000_6_017
// 082   ----------------------------------------
	BYTE	PATT
	 POIN2	Vanishing_Trooper0000_6_017
// 083   ----------------------------------------
	BYTE	PATT
	 POIN2	Vanishing_Trooper0000_6_017
// 084   ----------------------------------------
	BYTE	PATT
	 POIN2	Vanishing_Trooper0000_6_017
// 085   ----------------------------------------
	BYTE	PATT
	 POIN2	Vanishing_Trooper0000_6_017
// 086   ----------------------------------------
	BYTE	PATT
	 POIN2	Vanishing_Trooper0000_6_017
// 087   ----------------------------------------
Vanishing_Trooper0000_6_087:
	BYTE		N10     Cn2   v064
	BYTE	W12
	BYTE		        Dn2 
	BYTE	W12
	BYTE	PEND
// 088   ----------------------------------------
	BYTE	PATT
	 POIN2	Vanishing_Trooper0000_6_045
// 089   ----------------------------------------
	BYTE	PATT
	 POIN2	Vanishing_Trooper0000_6_017
// 090   ----------------------------------------
	BYTE	PATT
	 POIN2	Vanishing_Trooper0000_6_017
// 091   ----------------------------------------
	BYTE	PATT
	 POIN2	Vanishing_Trooper0000_6_017
// 092   ----------------------------------------
	BYTE	PATT
	 POIN2	Vanishing_Trooper0000_6_017
// 093   ----------------------------------------
	BYTE	PATT
	 POIN2	Vanishing_Trooper0000_6_017
// 094   ----------------------------------------
	BYTE	PATT
	 POIN2	Vanishing_Trooper0000_6_017
// 095   ----------------------------------------
	BYTE	PATT
	 POIN2	Vanishing_Trooper0000_6_023
// 096   ----------------------------------------
	BYTE	PATT
	 POIN2	Vanishing_Trooper0000_6_017
// 097   ----------------------------------------
	BYTE	PATT
	 POIN2	Vanishing_Trooper0000_6_017
// 098   ----------------------------------------
	BYTE	PATT
	 POIN2	Vanishing_Trooper0000_6_017
// 099   ----------------------------------------
	BYTE	PATT
	 POIN2	Vanishing_Trooper0000_6_017
// 100   ----------------------------------------
	BYTE	PATT
	 POIN2	Vanishing_Trooper0000_6_017
// 101   ----------------------------------------
	BYTE	PATT
	 POIN2	Vanishing_Trooper0000_6_017
// 102   ----------------------------------------
	BYTE	PATT
	 POIN2	Vanishing_Trooper0000_6_017
// 103   ----------------------------------------
	BYTE	PATT
	 POIN2	Vanishing_Trooper0000_6_023
// 104   ----------------------------------------
	BYTE	PATT
	 POIN2	Vanishing_Trooper0000_6_017
// 105   ----------------------------------------
	BYTE	PATT
	 POIN2	Vanishing_Trooper0000_6_041
// 106   ----------------------------------------
	BYTE	PATT
	 POIN2	Vanishing_Trooper0000_6_041
// 107   ----------------------------------------
	BYTE	PATT
	 POIN2	Vanishing_Trooper0000_6_041
// 108   ----------------------------------------
	BYTE	PATT
	 POIN2	Vanishing_Trooper0000_6_041
// 109   ----------------------------------------
	BYTE	PATT
	 POIN2	Vanishing_Trooper0000_6_041
// 110   ----------------------------------------
	BYTE	PATT
	 POIN2	Vanishing_Trooper0000_6_041
// 111   ----------------------------------------
	BYTE	PATT
	 POIN2	Vanishing_Trooper0000_6_041
// 112   ----------------------------------------
	BYTE	PATT
	 POIN2	Vanishing_Trooper0000_6_041
// 113   ----------------------------------------
	BYTE	PATT
	 POIN2	Vanishing_Trooper0000_6_017
// 114   ----------------------------------------
	BYTE	PATT
	 POIN2	Vanishing_Trooper0000_6_017
// 115   ----------------------------------------
	BYTE	PATT
	 POIN2	Vanishing_Trooper0000_6_017
// 116   ----------------------------------------
	BYTE	PATT
	 POIN2	Vanishing_Trooper0000_6_017
// 117   ----------------------------------------
	BYTE	PATT
	 POIN2	Vanishing_Trooper0000_6_017
// 118   ----------------------------------------
	BYTE	PATT
	 POIN2	Vanishing_Trooper0000_6_017
// 119   ----------------------------------------
	BYTE	PATT
	 POIN2	Vanishing_Trooper0000_6_087
// 120   ----------------------------------------
	BYTE	PATT
	 POIN2	Vanishing_Trooper0000_6_045
// 121   ----------------------------------------
	BYTE	PATT
	 POIN2	Vanishing_Trooper0000_6_041
// 122   ----------------------------------------
	BYTE	PATT
	 POIN2	Vanishing_Trooper0000_6_041
// 123   ----------------------------------------
	BYTE	PATT
	 POIN2	Vanishing_Trooper0000_6_041
// 124   ----------------------------------------
Vanishing_Trooper0000_6_124:
	BYTE		N10     Ds2   v064
	BYTE	W12
	BYTE		N22     Dn2 
	BYTE	W12
	BYTE	PEND
// 125   ----------------------------------------
	BYTE	W12
	BYTE		N10   
	BYTE	W12
// 126   ----------------------------------------
	BYTE	PATT
	 POIN2	Vanishing_Trooper0000_6_045
// 127   ----------------------------------------
	BYTE	PATT
	 POIN2	Vanishing_Trooper0000_6_045
// 128   ----------------------------------------
	BYTE	PATT
	 POIN2	Vanishing_Trooper0000_6_045
// 129   ----------------------------------------
Vanishing_Trooper0000_6_129:
	BYTE		N10     Fn1   v064
	BYTE	W12
	BYTE		N22     Gn1 
	BYTE	W12
	BYTE	PEND
// 130   ----------------------------------------
	BYTE	W12
	BYTE		N10     Fn1 
	BYTE	W12
// 131   ----------------------------------------
	BYTE		N22     Gn1 
	BYTE	W24
// 132   ----------------------------------------
	BYTE	PATT
	 POIN2	Vanishing_Trooper0000_6_129
// 133   ----------------------------------------
	BYTE	W12
	BYTE		N10     Fn1   v064
	BYTE	W12
// 134   ----------------------------------------
Vanishing_Trooper0000_6_134:
	BYTE		N10     Gn1   v064
	BYTE	W12
	BYTE		        Dn2 
	BYTE	W12
	BYTE	PEND
// 135   ----------------------------------------
Vanishing_Trooper0000_6_135:
	BYTE		N10     As1   v064
	BYTE	W12
	BYTE		        An1 
	BYTE	W12
	BYTE	PEND
// 136   ----------------------------------------
Vanishing_Trooper0000_6_136:
	BYTE		N10     Fn1   v064
	BYTE	W12
	BYTE		        Dn2 
	BYTE	W12
	BYTE	PEND
// 137   ----------------------------------------
	BYTE	PATT
	 POIN2	Vanishing_Trooper0000_6_041
// 138   ----------------------------------------
	BYTE	PATT
	 POIN2	Vanishing_Trooper0000_6_041
// 139   ----------------------------------------
	BYTE	PATT
	 POIN2	Vanishing_Trooper0000_6_041
// 140   ----------------------------------------
	BYTE		N10     Ds2   v064
	BYTE	W12
	BYTE		N22     Fn1 
	BYTE	W12
// 141   ----------------------------------------
	BYTE	W12
	BYTE		N10   
	BYTE	W12
// 142   ----------------------------------------
Vanishing_Trooper0000_6_142:
	BYTE		N10     Fn1   v064
	BYTE	W12
	BYTE		N10   
	BYTE	W12
	BYTE	PEND
// 143   ----------------------------------------
	BYTE	PATT
	 POIN2	Vanishing_Trooper0000_6_142
// 144   ----------------------------------------
	BYTE	PATT
	 POIN2	Vanishing_Trooper0000_6_142
// 145   ----------------------------------------
	BYTE	PATT
	 POIN2	Vanishing_Trooper0000_6_129
// 146   ----------------------------------------
	BYTE	W12
	BYTE		N10     Fn1   v064
	BYTE	W12
// 147   ----------------------------------------
	BYTE		N22     Gn1 
	BYTE	W24
// 148   ----------------------------------------
	BYTE	PATT
	 POIN2	Vanishing_Trooper0000_6_129
// 149   ----------------------------------------
	BYTE	W12
	BYTE		N10     As1   v064
	BYTE	W12
// 150   ----------------------------------------
	BYTE	PATT
	 POIN2	Vanishing_Trooper0000_6_134
// 151   ----------------------------------------
	BYTE	PATT
	 POIN2	Vanishing_Trooper0000_6_135
// 152   ----------------------------------------
	BYTE	PATT
	 POIN2	Vanishing_Trooper0000_6_136
// 153   ----------------------------------------
	BYTE	PATT
	 POIN2	Vanishing_Trooper0000_6_041
// 154   ----------------------------------------
	BYTE	PATT
	 POIN2	Vanishing_Trooper0000_6_041
// 155   ----------------------------------------
	BYTE	PATT
	 POIN2	Vanishing_Trooper0000_6_041
// 156   ----------------------------------------
	BYTE	PATT
	 POIN2	Vanishing_Trooper0000_6_124
// 157   ----------------------------------------
	BYTE	W12
	BYTE		N10     Dn2   v064
	BYTE	W12
// 158   ----------------------------------------
	BYTE	PATT
	 POIN2	Vanishing_Trooper0000_6_045
// 159   ----------------------------------------
	BYTE	PATT
	 POIN2	Vanishing_Trooper0000_6_045
// 160   ----------------------------------------
	BYTE	PATT
	 POIN2	Vanishing_Trooper0000_6_045
// 161   ----------------------------------------
	BYTE	PATT
	 POIN2	Vanishing_Trooper0000_6_129
// 162   ----------------------------------------
	BYTE	W12
	BYTE		N10     Fn1   v064
	BYTE	W12
// 163   ----------------------------------------
	BYTE		N22     Gn1 
	BYTE	W24
// 164   ----------------------------------------
	BYTE	PATT
	 POIN2	Vanishing_Trooper0000_6_129
// 165   ----------------------------------------
	BYTE	W12
	BYTE		N10     Fn1   v064
	BYTE	W12
// 166   ----------------------------------------
	BYTE	PATT
	 POIN2	Vanishing_Trooper0000_6_134
// 167   ----------------------------------------
	BYTE	PATT
	 POIN2	Vanishing_Trooper0000_6_135
// 168   ----------------------------------------
	BYTE	PATT
	 POIN2	Vanishing_Trooper0000_6_136
// 169   ----------------------------------------
	BYTE	PATT
	 POIN2	Vanishing_Trooper0000_6_041
// 170   ----------------------------------------
	BYTE	PATT
	 POIN2	Vanishing_Trooper0000_6_041
// 171   ----------------------------------------
	BYTE	PATT
	 POIN2	Vanishing_Trooper0000_6_041
// 172   ----------------------------------------
	BYTE		N10     Ds2   v064
	BYTE	W12
	BYTE		N22     Cn2 
	BYTE	W12
// 173   ----------------------------------------
	BYTE	W12
	BYTE		N10   
	BYTE	W12
// 174   ----------------------------------------
Vanishing_Trooper0000_6_174:
	BYTE		N10     Cn2   v064
	BYTE	W12
	BYTE		N10   
	BYTE	W12
	BYTE	PEND
// 175   ----------------------------------------
	BYTE	PATT
	 POIN2	Vanishing_Trooper0000_6_174
// 176   ----------------------------------------
	BYTE	PATT
	 POIN2	Vanishing_Trooper0000_6_174
// 177   ----------------------------------------
Vanishing_Trooper0000_6_177:
	BYTE		N10     Cn2   v064
	BYTE	W12
	BYTE		N22     Dn2 
	BYTE	W12
	BYTE	PEND
// 178   ----------------------------------------
	BYTE	W12
	BYTE		N10     Cn2 
	BYTE	W12
// 179   ----------------------------------------
	BYTE		N22     Dn2 
	BYTE	W24
// 180   ----------------------------------------
	BYTE	PATT
	 POIN2	Vanishing_Trooper0000_6_177
// 181   ----------------------------------------
	BYTE	W12
	BYTE		N10     Cn2   v064
	BYTE	W12
// 182   ----------------------------------------
	BYTE		N22     Dn2 
	BYTE	W24
// 183   ----------------------------------------
	BYTE	PATT
	 POIN2	Vanishing_Trooper0000_6_087
// 184   ----------------------------------------
Vanishing_Trooper0000_6_184:
	BYTE		N10     An1   v064
	BYTE	W12
	BYTE		        Dn2 
	BYTE	W12
	BYTE	PEND
// 185   ----------------------------------------
	BYTE	PATT
	 POIN2	Vanishing_Trooper0000_6_177
// 186   ----------------------------------------
	BYTE	W12
	BYTE		N10     Cn2   v064
	BYTE	W12
// 187   ----------------------------------------
	BYTE		N22     Dn2 
	BYTE	W24
// 188   ----------------------------------------
	BYTE	PATT
	 POIN2	Vanishing_Trooper0000_6_177
// 189   ----------------------------------------
	BYTE	W12
	BYTE		N10     Cn2   v064
	BYTE	W12
// 190   ----------------------------------------
	BYTE		N22     Dn2 
	BYTE	W24
// 191   ----------------------------------------
	BYTE	PATT
	 POIN2	Vanishing_Trooper0000_6_087
// 192   ----------------------------------------
	BYTE	PATT
	 POIN2	Vanishing_Trooper0000_6_184
// 193   ----------------------------------------
Vanishing_Trooper0000_6_193:
	BYTE		N10     As1   v064
	BYTE	W12
	BYTE		N10   
	BYTE	W12
	BYTE	PEND
// 194   ----------------------------------------
	BYTE	PATT
	 POIN2	Vanishing_Trooper0000_6_193
// 195   ----------------------------------------
	BYTE	PATT
	 POIN2	Vanishing_Trooper0000_6_193
// 196   ----------------------------------------
	BYTE	PATT
	 POIN2	Vanishing_Trooper0000_6_193
// 197   ----------------------------------------
Vanishing_Trooper0000_6_197:
	BYTE		N10     Bn1   v064
	BYTE	W12
	BYTE		N10   
	BYTE	W12
	BYTE	PEND
// 198   ----------------------------------------
	BYTE	PATT
	 POIN2	Vanishing_Trooper0000_6_197
// 199   ----------------------------------------
	BYTE	PATT
	 POIN2	Vanishing_Trooper0000_6_197
// 200   ----------------------------------------
	BYTE	PATT
	 POIN2	Vanishing_Trooper0000_6_197
// 201   ----------------------------------------
	BYTE	PATT
	 POIN2	Vanishing_Trooper0000_6_174
// 202   ----------------------------------------
	BYTE	PATT
	 POIN2	Vanishing_Trooper0000_6_174
// 203   ----------------------------------------
	BYTE	PATT
	 POIN2	Vanishing_Trooper0000_6_174
// 204   ----------------------------------------
	BYTE	PATT
	 POIN2	Vanishing_Trooper0000_6_174
// 205   ----------------------------------------
Vanishing_Trooper0000_6_205:
	BYTE		N10     Cs2   v064
	BYTE	W12
	BYTE		N10   
	BYTE	W12
	BYTE	PEND
// 206   ----------------------------------------
	BYTE	PATT
	 POIN2	Vanishing_Trooper0000_6_205
// 207   ----------------------------------------
	BYTE	PATT
	 POIN2	Vanishing_Trooper0000_6_205
// 208   ----------------------------------------
	BYTE	PATT
	 POIN2	Vanishing_Trooper0000_6_205
// 209   ----------------------------------------
	BYTE	PATT
	 POIN2	Vanishing_Trooper0000_6_045
// 210   ----------------------------------------
	BYTE	PATT
	 POIN2	Vanishing_Trooper0000_6_045
// 211   ----------------------------------------
	BYTE	PATT
	 POIN2	Vanishing_Trooper0000_6_045
// 212   ----------------------------------------
	BYTE	PATT
	 POIN2	Vanishing_Trooper0000_6_045
// 213   ----------------------------------------
	BYTE	PATT
	 POIN2	Vanishing_Trooper0000_6_041
// 214   ----------------------------------------
	BYTE	PATT
	 POIN2	Vanishing_Trooper0000_6_041
// 215   ----------------------------------------
	BYTE	PATT
	 POIN2	Vanishing_Trooper0000_6_041
// 216   ----------------------------------------
	BYTE	PATT
	 POIN2	Vanishing_Trooper0000_6_041
// 217   ----------------------------------------
	BYTE	PATT
	 POIN2	Vanishing_Trooper0000_6_045
// 218   ----------------------------------------
	BYTE	PATT
	 POIN2	Vanishing_Trooper0000_6_045
// 219   ----------------------------------------
	BYTE	PATT
	 POIN2	Vanishing_Trooper0000_6_045
// 220   ----------------------------------------
	BYTE	PATT
	 POIN2	Vanishing_Trooper0000_6_045
// 221   ----------------------------------------
	BYTE	PATT
	 POIN2	Vanishing_Trooper0000_6_045
// 222   ----------------------------------------
	BYTE	PATT
	 POIN2	Vanishing_Trooper0000_6_045
// 223   ----------------------------------------
	BYTE	PATT
	 POIN2	Vanishing_Trooper0000_6_045
// 224   ----------------------------------------
	BYTE	PATT
	 POIN2	Vanishing_Trooper0000_6_045
// 225   ----------------------------------------
	BYTE	PATT
	 POIN2	Vanishing_Trooper0000_6_193
// 226   ----------------------------------------
	BYTE	PATT
	 POIN2	Vanishing_Trooper0000_6_193
// 227   ----------------------------------------
	BYTE	PATT
	 POIN2	Vanishing_Trooper0000_6_193
// 228   ----------------------------------------
	BYTE	PATT
	 POIN2	Vanishing_Trooper0000_6_193
// 229   ----------------------------------------
	BYTE	PATT
	 POIN2	Vanishing_Trooper0000_6_197
// 230   ----------------------------------------
	BYTE	PATT
	 POIN2	Vanishing_Trooper0000_6_197
// 231   ----------------------------------------
	BYTE	PATT
	 POIN2	Vanishing_Trooper0000_6_197
// 232   ----------------------------------------
	BYTE	PATT
	 POIN2	Vanishing_Trooper0000_6_197
// 233   ----------------------------------------
	BYTE	PATT
	 POIN2	Vanishing_Trooper0000_6_174
// 234   ----------------------------------------
	BYTE	PATT
	 POIN2	Vanishing_Trooper0000_6_174
// 235   ----------------------------------------
	BYTE	PATT
	 POIN2	Vanishing_Trooper0000_6_174
// 236   ----------------------------------------
	BYTE	PATT
	 POIN2	Vanishing_Trooper0000_6_174
// 237   ----------------------------------------
	BYTE	PATT
	 POIN2	Vanishing_Trooper0000_6_205
// 238   ----------------------------------------
	BYTE	PATT
	 POIN2	Vanishing_Trooper0000_6_205
// 239   ----------------------------------------
	BYTE	PATT
	 POIN2	Vanishing_Trooper0000_6_205
// 240   ----------------------------------------
	BYTE	PATT
	 POIN2	Vanishing_Trooper0000_6_205
// 241   ----------------------------------------
	BYTE	PATT
	 POIN2	Vanishing_Trooper0000_6_045
// 242   ----------------------------------------
	BYTE	PATT
	 POIN2	Vanishing_Trooper0000_6_045
// 243   ----------------------------------------
	BYTE	PATT
	 POIN2	Vanishing_Trooper0000_6_045
// 244   ----------------------------------------
	BYTE	PATT
	 POIN2	Vanishing_Trooper0000_6_045
// 245   ----------------------------------------
	BYTE	PATT
	 POIN2	Vanishing_Trooper0000_6_041
// 246   ----------------------------------------
	BYTE	PATT
	 POIN2	Vanishing_Trooper0000_6_041
// 247   ----------------------------------------
	BYTE	PATT
	 POIN2	Vanishing_Trooper0000_6_041
// 248   ----------------------------------------
	BYTE	PATT
	 POIN2	Vanishing_Trooper0000_6_041
// 249   ----------------------------------------
	BYTE	PATT
	 POIN2	Vanishing_Trooper0000_6_045
// 250   ----------------------------------------
	BYTE	PATT
	 POIN2	Vanishing_Trooper0000_6_045
// 251   ----------------------------------------
	BYTE	PATT
	 POIN2	Vanishing_Trooper0000_6_045
// 252   ----------------------------------------
	BYTE	PATT
	 POIN2	Vanishing_Trooper0000_6_045
// 253   ----------------------------------------
	BYTE	PATT
	 POIN2	Vanishing_Trooper0000_6_045
// 254   ----------------------------------------
	BYTE	PATT
	 POIN2	Vanishing_Trooper0000_6_045
// 255   ----------------------------------------
	BYTE	PATT
	 POIN2	Vanishing_Trooper0000_6_045
// 256   ----------------------------------------
	BYTE	PATT
	 POIN2	Vanishing_Trooper0000_6_045
// 257   ----------------------------------------
	BYTE		N10     Dn2   v064
	BYTE	W24
// 258   ----------------------------------------
	BYTE	W24
// 259   ----------------------------------------
	BYTE	W04
	BYTE		BEND    c_v+0
	BYTE	W01
	BYTE		        c_v-64
	BYTE	W01
	BYTE		        c_v-56
	BYTE	W01
	BYTE		        c_v-48
	BYTE	W01
	BYTE		        c_v-40
	BYTE	W01
	BYTE		        c_v-24
	BYTE	W01
	BYTE		        c_v-16
	BYTE	W01
	BYTE		        c_v-8
	BYTE	W01
	BYTE		        c_v+0
	BYTE		N10     Dn2   v068
	BYTE	W12
// 260   ----------------------------------------
	BYTE		        As1 
	BYTE	W12
	BYTE		        Gn1 
	BYTE	W12
// 261   ----------------------------------------
	BYTE	PATT
	 POIN2	Vanishing_Trooper0000_6_017
// 262   ----------------------------------------
	BYTE	PATT
	 POIN2	Vanishing_Trooper0000_6_017
// 263   ----------------------------------------
	BYTE	PATT
	 POIN2	Vanishing_Trooper0000_6_017
// 264   ----------------------------------------
	BYTE	PATT
	 POIN2	Vanishing_Trooper0000_6_017
// 265   ----------------------------------------
	BYTE	PATT
	 POIN2	Vanishing_Trooper0000_6_017
// 266   ----------------------------------------
	BYTE	PATT
	 POIN2	Vanishing_Trooper0000_6_017
// 267   ----------------------------------------
	BYTE	PATT
	 POIN2	Vanishing_Trooper0000_6_023
// 268   ----------------------------------------
	BYTE	PATT
	 POIN2	Vanishing_Trooper0000_6_017
// 269   ----------------------------------------
	BYTE	PATT
	 POIN2	Vanishing_Trooper0000_6_025
// 270   ----------------------------------------
	BYTE	PATT
	 POIN2	Vanishing_Trooper0000_6_025
// 271   ----------------------------------------
	BYTE	PATT
	 POIN2	Vanishing_Trooper0000_6_025
// 272   ----------------------------------------
	BYTE	PATT
	 POIN2	Vanishing_Trooper0000_6_025
// 273   ----------------------------------------
	BYTE	PATT
	 POIN2	Vanishing_Trooper0000_6_025
// 274   ----------------------------------------
	BYTE	PATT
	 POIN2	Vanishing_Trooper0000_6_025
// 275   ----------------------------------------
	BYTE	PATT
	 POIN2	Vanishing_Trooper0000_6_031
// 276   ----------------------------------------
	BYTE	PATT
	 POIN2	Vanishing_Trooper0000_6_025
// 277   ----------------------------------------
	BYTE	PATT
	 POIN2	Vanishing_Trooper0000_6_017
// 278   ----------------------------------------
	BYTE	PATT
	 POIN2	Vanishing_Trooper0000_6_017
// 279   ----------------------------------------
	BYTE	PATT
	 POIN2	Vanishing_Trooper0000_6_017
// 280   ----------------------------------------
	BYTE	PATT
	 POIN2	Vanishing_Trooper0000_6_017
// 281   ----------------------------------------
	BYTE	PATT
	 POIN2	Vanishing_Trooper0000_6_017
// 282   ----------------------------------------
	BYTE	PATT
	 POIN2	Vanishing_Trooper0000_6_017
// 283   ----------------------------------------
	BYTE	PATT
	 POIN2	Vanishing_Trooper0000_6_023
// 284   ----------------------------------------
	BYTE	PATT
	 POIN2	Vanishing_Trooper0000_6_017
// 285   ----------------------------------------
	BYTE	PATT
	 POIN2	Vanishing_Trooper0000_6_041
// 286   ----------------------------------------
	BYTE	PATT
	 POIN2	Vanishing_Trooper0000_6_041
// 287   ----------------------------------------
	BYTE	PATT
	 POIN2	Vanishing_Trooper0000_6_041
// 288   ----------------------------------------
	BYTE	PATT
	 POIN2	Vanishing_Trooper0000_6_041
// 289   ----------------------------------------
	BYTE	PATT
	 POIN2	Vanishing_Trooper0000_6_045
// 290   ----------------------------------------
	BYTE	PATT
	 POIN2	Vanishing_Trooper0000_6_045
// 291   ----------------------------------------
	BYTE	PATT
	 POIN2	Vanishing_Trooper0000_6_045
// 292   ----------------------------------------
	BYTE		N10     Dn2   v064
	BYTE	W12
	BYTE	GoTo
	 POIN2	Vanishing_Trooper0000_6_B1
Vanishing_Trooper0000_6_B2:
	BYTE		N10     Dn2   v064
	BYTE	W11
	BYTE	FINE

//**************** Track 7 (Midi-Chn.11) ****************//

Vanishing_Trooper0000_7:
	BYTE	KEYSH   Vanishing_Trooper0000_key+0
// 000   ----------------------------------------
	BYTE		VOICE   117
	BYTE		VOL     42*Vanishing_Trooper0000_mvl/mxv
	BYTE	W01
	BYTE		PAN     c_v+0
	BYTE	W01
	BYTE		BEND    c_v+0
	BYTE	W22
// 001   ----------------------------------------
	BYTE		N17     An1   v092
	BYTE	W24
// 002   ----------------------------------------
	BYTE	W24
// 003   ----------------------------------------
	BYTE		        Fn1 
	BYTE	W24
// 004   ----------------------------------------
	BYTE	W24
// 005   ----------------------------------------
	BYTE		        An1 
	BYTE	W24
// 006   ----------------------------------------
	BYTE	W24
// 007   ----------------------------------------
	BYTE		        Fn1 
	BYTE	W24
// 008   ----------------------------------------
	BYTE	W12
	BYTE		N17   
	BYTE	W12
// 009   ----------------------------------------
	BYTE	W24
// 010   ----------------------------------------
	BYTE	W24
// 011   ----------------------------------------
	BYTE	W24
// 012   ----------------------------------------
	BYTE	W24
// 013   ----------------------------------------
	BYTE	W24
// 014   ----------------------------------------
	BYTE	W24
// 015   ----------------------------------------
	BYTE		N11     Cn2   v100
	BYTE	W06
	BYTE		        Bn1   v092
	BYTE	W06
	BYTE		N17     Gs1   v100
	BYTE	W12
// 016   ----------------------------------------
	BYTE		N11     An1   v092
	BYTE	W06
	BYTE		N17     Gs1 
	BYTE	W06
	BYTE		N11     Fn1 
	BYTE	W06
	BYTE		N17     En1 
	BYTE	W06
// 017   ----------------------------------------
	BYTE	W24
// 018   ----------------------------------------
	BYTE	W24
// 019   ----------------------------------------
	BYTE	W24
// 020   ----------------------------------------
	BYTE	W24
// 021   ----------------------------------------
	BYTE	W24
// 022   ----------------------------------------
	BYTE	W24
// 023   ----------------------------------------
	BYTE	W24
// 024   ----------------------------------------
	BYTE	W24
// 025   ----------------------------------------
	BYTE	W24
// 026   ----------------------------------------
	BYTE	W24
// 027   ----------------------------------------
	BYTE	W24
// 028   ----------------------------------------
	BYTE	W24
// 029   ----------------------------------------
	BYTE	W24
// 030   ----------------------------------------
	BYTE	W24
// 031   ----------------------------------------
	BYTE	W24
// 032   ----------------------------------------
	BYTE	W24
// 033   ----------------------------------------
	BYTE	W24
// 034   ----------------------------------------
	BYTE	W24
// 035   ----------------------------------------
	BYTE	W24
// 036   ----------------------------------------
	BYTE	W24
// 037   ----------------------------------------
	BYTE	W24
// 038   ----------------------------------------
	BYTE	W24
// 039   ----------------------------------------
	BYTE	W24
// 040   ----------------------------------------
	BYTE	W24
// 041   ----------------------------------------
	BYTE		N11     Cn2   v096
	BYTE	W06
	BYTE		        Bn1   v084
	BYTE	W06
	BYTE		        Cn2 
	BYTE	W06
	BYTE		N17     Bn1 
	BYTE	W06
// 042   ----------------------------------------
	BYTE		N11     An1   v096
	BYTE	W06
	BYTE		        Gs1   v084
	BYTE	W06
	BYTE		        An1 
	BYTE	W06
	BYTE		N17     Gs1 
	BYTE	W06
// 043   ----------------------------------------
	BYTE		N11     Fn1   v096
	BYTE	W06
	BYTE		        En1   v084
	BYTE	W06
	BYTE		        Fn1 
	BYTE	W06
	BYTE		N17     En1 
	BYTE	W06
// 044   ----------------------------------------
	BYTE	W24
// 045   ----------------------------------------
	BYTE		N11     Cn2   v096
	BYTE	W06
	BYTE		N17     Bn1   v084
	BYTE	W06
	BYTE		N11     Fn1 
	BYTE	W06
	BYTE		N17     En1 
	BYTE	W06
// 046   ----------------------------------------
	BYTE		N11     An1   v096
	BYTE	W06
	BYTE		N17     Gs1   v084
	BYTE	W06
	BYTE		        Fn1 
	BYTE	W06
	BYTE		        An1 
	BYTE	W06
// 047   ----------------------------------------
	BYTE		N11     Cn2   v096
	BYTE	W06
	BYTE		        Gs1   v084
	BYTE	W06
	BYTE		N17     Fn1 
	BYTE	W12
// 048   ----------------------------------------
	BYTE	W24
Vanishing_Trooper0000_7_B1:
// 049   ----------------------------------------
	BYTE	W24
// 050   ----------------------------------------
	BYTE	W11
	BYTE		N05     Cn2   v096
	BYTE	W01
	BYTE		N17     Bn1 
	BYTE	W12
// 051   ----------------------------------------
	BYTE	W23
	BYTE		N05     An1 
	BYTE	W01
// 052   ----------------------------------------
	BYTE		N17     Gs1 
	BYTE	W24
// 053   ----------------------------------------
Vanishing_Trooper0000_7_053:
	BYTE	W11
	BYTE		N05     Fn1   v096
	BYTE	W01
	BYTE		N17     En1 
	BYTE	W12
	BYTE	PEND
// 054   ----------------------------------------
	BYTE	PATT
	 POIN2	Vanishing_Trooper0000_7_053
// 055   ----------------------------------------
	BYTE	W24
// 056   ----------------------------------------
	BYTE	W24
// 057   ----------------------------------------
	BYTE	W24
// 058   ----------------------------------------
	BYTE	W24
// 059   ----------------------------------------
	BYTE	W24
// 060   ----------------------------------------
	BYTE	W24
// 061   ----------------------------------------
	BYTE	W24
// 062   ----------------------------------------
	BYTE	W24
// 063   ----------------------------------------
	BYTE	W24
// 064   ----------------------------------------
	BYTE	W24
// 065   ----------------------------------------
	BYTE	W24
// 066   ----------------------------------------
	BYTE	W24
// 067   ----------------------------------------
	BYTE	W24
// 068   ----------------------------------------
	BYTE	W24
// 069   ----------------------------------------
	BYTE	W24
// 070   ----------------------------------------
	BYTE	W24
// 071   ----------------------------------------
	BYTE	W12
	BYTE		N17     Fn1   v084
	BYTE	W12
// 072   ----------------------------------------
	BYTE	W12
	BYTE		        Fn1   v096
	BYTE	W12
// 073   ----------------------------------------
	BYTE	W24
// 074   ----------------------------------------
	BYTE	W24
// 075   ----------------------------------------
	BYTE	W24
// 076   ----------------------------------------
	BYTE	W24
// 077   ----------------------------------------
	BYTE	W24
// 078   ----------------------------------------
	BYTE	W24
// 079   ----------------------------------------
	BYTE	W24
// 080   ----------------------------------------
	BYTE	W24
// 081   ----------------------------------------
	BYTE	W24
// 082   ----------------------------------------
	BYTE	W24
// 083   ----------------------------------------
	BYTE	W24
// 084   ----------------------------------------
Vanishing_Trooper0000_7_084:
	BYTE		N17     Fn1   v096
	BYTE	W12
	BYTE		        En1 
	BYTE	W12
	BYTE	PEND
// 085   ----------------------------------------
	BYTE	W12
	BYTE		        An1 
	BYTE	W12
// 086   ----------------------------------------
	BYTE	W12
	BYTE		        Fn1 
	BYTE	W12
// 087   ----------------------------------------
	BYTE		        En1 
	BYTE	W24
// 088   ----------------------------------------
	BYTE	W12
	BYTE		        Fn1   v104
	BYTE	W12
// 089   ----------------------------------------
	BYTE	W24
// 090   ----------------------------------------
	BYTE	W24
// 091   ----------------------------------------
	BYTE	W24
// 092   ----------------------------------------
	BYTE	W24
// 093   ----------------------------------------
	BYTE	W24
// 094   ----------------------------------------
	BYTE	W24
// 095   ----------------------------------------
	BYTE	W24
// 096   ----------------------------------------
	BYTE	W24
// 097   ----------------------------------------
	BYTE	W24
// 098   ----------------------------------------
	BYTE	W24
// 099   ----------------------------------------
	BYTE	W24
// 100   ----------------------------------------
	BYTE	W24
// 101   ----------------------------------------
	BYTE	W24
// 102   ----------------------------------------
	BYTE	W24
// 103   ----------------------------------------
	BYTE	W24
// 104   ----------------------------------------
	BYTE	W12
	BYTE		        An1   v084
	BYTE	W06
	BYTE		        Fn1   v096
	BYTE	W06
// 105   ----------------------------------------
	BYTE	W24
// 106   ----------------------------------------
	BYTE	W24
// 107   ----------------------------------------
	BYTE	W24
// 108   ----------------------------------------
	BYTE	W24
// 109   ----------------------------------------
	BYTE	W24
// 110   ----------------------------------------
	BYTE	W24
// 111   ----------------------------------------
	BYTE	W24
// 112   ----------------------------------------
	BYTE	W24
// 113   ----------------------------------------
	BYTE	W24
// 114   ----------------------------------------
	BYTE	W24
// 115   ----------------------------------------
	BYTE	W24
// 116   ----------------------------------------
	BYTE	PATT
	 POIN2	Vanishing_Trooper0000_7_084
// 117   ----------------------------------------
	BYTE	W12
	BYTE		N17     An1   v096
	BYTE	W12
// 118   ----------------------------------------
	BYTE	W12
	BYTE		        Fn1 
	BYTE	W12
// 119   ----------------------------------------
	BYTE		N11     Cn2 
	BYTE	W06
	BYTE		        Bn1 
	BYTE	W06
	BYTE		N17     Cn2 
	BYTE	W12
// 120   ----------------------------------------
	BYTE		N11     Gs1 
	BYTE	W06
	BYTE		N17     An1 
	BYTE	W06
	BYTE		        Fn1   v104
	BYTE	W12
// 121   ----------------------------------------
	BYTE	W24
// 122   ----------------------------------------
	BYTE	W24
// 123   ----------------------------------------
	BYTE	W24
// 124   ----------------------------------------
	BYTE	W24
// 125   ----------------------------------------
	BYTE	W24
// 126   ----------------------------------------
	BYTE	W24
// 127   ----------------------------------------
	BYTE	W24
// 128   ----------------------------------------
	BYTE	W24
// 129   ----------------------------------------
	BYTE		        Cn2   v096
	BYTE	W24
// 130   ----------------------------------------
	BYTE	W12
	BYTE		        An1 
	BYTE	W12
// 131   ----------------------------------------
	BYTE	W24
// 132   ----------------------------------------
	BYTE		        Fn1 
	BYTE	W24
// 133   ----------------------------------------
	BYTE	PATT
	 POIN2	Vanishing_Trooper0000_7_053
// 134   ----------------------------------------
	BYTE	W24
// 135   ----------------------------------------
	BYTE	W24
// 136   ----------------------------------------
	BYTE	W24
// 137   ----------------------------------------
	BYTE	W24
// 138   ----------------------------------------
	BYTE	W24
// 139   ----------------------------------------
	BYTE	W24
// 140   ----------------------------------------
	BYTE	W24
// 141   ----------------------------------------
	BYTE	W24
// 142   ----------------------------------------
	BYTE	W24
// 143   ----------------------------------------
	BYTE	W24
// 144   ----------------------------------------
	BYTE	W24
// 145   ----------------------------------------
	BYTE	W24
// 146   ----------------------------------------
	BYTE	W24
// 147   ----------------------------------------
	BYTE	W24
// 148   ----------------------------------------
	BYTE	W24
// 149   ----------------------------------------
	BYTE	W24
// 150   ----------------------------------------
	BYTE	W24
// 151   ----------------------------------------
	BYTE		N11     Cn2   v096
	BYTE	W06
	BYTE		        Bn1   v084
	BYTE	W06
	BYTE		N17     Cn2   v096
	BYTE	W06
	BYTE		        An1   v084
	BYTE	W06
// 152   ----------------------------------------
	BYTE		        Gs1   v096
	BYTE	W06
	BYTE		N11     Fn1   v084
	BYTE	W06
	BYTE		        En1   v096
	BYTE	W06
	BYTE		N17     Fn1   v084
	BYTE	W06
// 153   ----------------------------------------
	BYTE	W24
// 154   ----------------------------------------
	BYTE	W24
// 155   ----------------------------------------
	BYTE	W24
// 156   ----------------------------------------
	BYTE	W24
// 157   ----------------------------------------
	BYTE	W24
// 158   ----------------------------------------
	BYTE	W24
// 159   ----------------------------------------
	BYTE	W24
// 160   ----------------------------------------
	BYTE	W24
// 161   ----------------------------------------
	BYTE		        Cn2   v096
	BYTE	W24
// 162   ----------------------------------------
	BYTE	W12
	BYTE		        An1 
	BYTE	W12
// 163   ----------------------------------------
	BYTE	W24
// 164   ----------------------------------------
	BYTE		        Fn1 
	BYTE	W24
// 165   ----------------------------------------
	BYTE	PATT
	 POIN2	Vanishing_Trooper0000_7_053
// 166   ----------------------------------------
	BYTE	W24
// 167   ----------------------------------------
	BYTE	W24
// 168   ----------------------------------------
	BYTE	W24
// 169   ----------------------------------------
	BYTE	W24
// 170   ----------------------------------------
	BYTE	W24
// 171   ----------------------------------------
	BYTE	W24
// 172   ----------------------------------------
	BYTE	W24
// 173   ----------------------------------------
	BYTE	W24
// 174   ----------------------------------------
	BYTE	W24
// 175   ----------------------------------------
	BYTE	W24
// 176   ----------------------------------------
	BYTE	W24
// 177   ----------------------------------------
	BYTE	W24
// 178   ----------------------------------------
	BYTE	W24
// 179   ----------------------------------------
	BYTE	W24
// 180   ----------------------------------------
	BYTE	W24
// 181   ----------------------------------------
	BYTE	W24
// 182   ----------------------------------------
	BYTE	W24
// 183   ----------------------------------------
	BYTE		N11     Cn2   v096
	BYTE	W12
	BYTE		N17   
	BYTE	W06
	BYTE		        Gs1   v084
	BYTE	W06
// 184   ----------------------------------------
	BYTE	W12
	BYTE		N11     En1   v096
	BYTE	W06
	BYTE		N17     Fn1   v084
	BYTE	W06
// 185   ----------------------------------------
	BYTE	W24
// 186   ----------------------------------------
	BYTE	W24
// 187   ----------------------------------------
	BYTE	W24
// 188   ----------------------------------------
	BYTE	W24
// 189   ----------------------------------------
	BYTE	W24
// 190   ----------------------------------------
	BYTE	W24
// 191   ----------------------------------------
	BYTE		N11     Cn2   v096
	BYTE	W06
	BYTE		        Bn1   v084
	BYTE	W06
	BYTE		N17     Cn2   v096
	BYTE	W06
	BYTE		        Gs1   v084
	BYTE	W06
// 192   ----------------------------------------
	BYTE		        An1   v096
	BYTE	W06
	BYTE		N11     Fn1   v084
	BYTE	W06
	BYTE		        En1   v096
	BYTE	W06
	BYTE		N17     Fn1   v084
	BYTE	W06
// 193   ----------------------------------------
	BYTE	W24
// 194   ----------------------------------------
	BYTE	W24
// 195   ----------------------------------------
	BYTE	W24
// 196   ----------------------------------------
	BYTE	W24
// 197   ----------------------------------------
	BYTE	W24
// 198   ----------------------------------------
	BYTE	W24
// 199   ----------------------------------------
	BYTE	W24
// 200   ----------------------------------------
	BYTE	W24
// 201   ----------------------------------------
	BYTE	W24
// 202   ----------------------------------------
	BYTE	W24
// 203   ----------------------------------------
	BYTE	W24
// 204   ----------------------------------------
	BYTE	W24
// 205   ----------------------------------------
	BYTE	W24
// 206   ----------------------------------------
	BYTE	W24
// 207   ----------------------------------------
	BYTE	W24
// 208   ----------------------------------------
Vanishing_Trooper0000_7_208:
	BYTE	W12
	BYTE		N17     An1   v104
	BYTE	W06
	BYTE		        Fn1 
	BYTE	W06
	BYTE	PEND
// 209   ----------------------------------------
	BYTE	W24
// 210   ----------------------------------------
	BYTE	W24
// 211   ----------------------------------------
	BYTE	W24
// 212   ----------------------------------------
	BYTE	W24
// 213   ----------------------------------------
	BYTE	W24
// 214   ----------------------------------------
	BYTE	W24
// 215   ----------------------------------------
	BYTE	W24
// 216   ----------------------------------------
	BYTE	W24
// 217   ----------------------------------------
	BYTE	W24
// 218   ----------------------------------------
	BYTE	W24
// 219   ----------------------------------------
	BYTE	W24
// 220   ----------------------------------------
	BYTE	W24
// 221   ----------------------------------------
	BYTE	W24
// 222   ----------------------------------------
	BYTE	W24
// 223   ----------------------------------------
Vanishing_Trooper0000_7_223:
	BYTE		N17     Cn2   v096
	BYTE	W06
	BYTE		        Bn1   v100
	BYTE	W06
	BYTE		        An1 
	BYTE	W06
	BYTE		        Gs1   v088
	BYTE	W06
	BYTE	PEND
// 224   ----------------------------------------
Vanishing_Trooper0000_7_224:
	BYTE		N17     Fn1   v104
	BYTE	W06
	BYTE		        En1   v088
	BYTE	W18
	BYTE	PEND
// 225   ----------------------------------------
	BYTE	W24
// 226   ----------------------------------------
	BYTE	W24
// 227   ----------------------------------------
	BYTE	W24
// 228   ----------------------------------------
	BYTE	W24
// 229   ----------------------------------------
	BYTE	W24
// 230   ----------------------------------------
	BYTE	W24
// 231   ----------------------------------------
	BYTE	W24
// 232   ----------------------------------------
	BYTE	W24
// 233   ----------------------------------------
	BYTE	W24
// 234   ----------------------------------------
	BYTE	W24
// 235   ----------------------------------------
	BYTE	W24
// 236   ----------------------------------------
	BYTE	W24
// 237   ----------------------------------------
	BYTE	W24
// 238   ----------------------------------------
	BYTE	W24
// 239   ----------------------------------------
	BYTE	W24
// 240   ----------------------------------------
	BYTE	PATT
	 POIN2	Vanishing_Trooper0000_7_208
// 241   ----------------------------------------
	BYTE	W24
// 242   ----------------------------------------
	BYTE	W24
// 243   ----------------------------------------
	BYTE	W24
// 244   ----------------------------------------
	BYTE	W24
// 245   ----------------------------------------
	BYTE	W24
// 246   ----------------------------------------
	BYTE	W24
// 247   ----------------------------------------
	BYTE	W24
// 248   ----------------------------------------
	BYTE	W24
// 249   ----------------------------------------
	BYTE	W24
// 250   ----------------------------------------
	BYTE	W24
// 251   ----------------------------------------
	BYTE	W24
// 252   ----------------------------------------
	BYTE	W24
// 253   ----------------------------------------
	BYTE	W24
// 254   ----------------------------------------
	BYTE	W24
// 255   ----------------------------------------
	BYTE	PATT
	 POIN2	Vanishing_Trooper0000_7_223
// 256   ----------------------------------------
	BYTE	PATT
	 POIN2	Vanishing_Trooper0000_7_224
// 257   ----------------------------------------
	BYTE	W24
// 258   ----------------------------------------
	BYTE	W24
// 259   ----------------------------------------
	BYTE	W24
// 260   ----------------------------------------
	BYTE	W12
	BYTE		N17     Fn1   v104
	BYTE	W06
	BYTE		        En1   v088
	BYTE	W06
// 261   ----------------------------------------
	BYTE	W24
// 262   ----------------------------------------
	BYTE	W24
// 263   ----------------------------------------
	BYTE	W24
// 264   ----------------------------------------
	BYTE	W24
// 265   ----------------------------------------
	BYTE	W24
// 266   ----------------------------------------
	BYTE	W24
// 267   ----------------------------------------
	BYTE	W24
// 268   ----------------------------------------
	BYTE	W24
// 269   ----------------------------------------
	BYTE	W24
// 270   ----------------------------------------
	BYTE	W24
// 271   ----------------------------------------
	BYTE	W24
// 272   ----------------------------------------
	BYTE	W24
// 273   ----------------------------------------
	BYTE	W24
// 274   ----------------------------------------
	BYTE	W24
// 275   ----------------------------------------
	BYTE	W24
// 276   ----------------------------------------
	BYTE	W24
// 277   ----------------------------------------
	BYTE	W24
// 278   ----------------------------------------
	BYTE	W24
// 279   ----------------------------------------
	BYTE	W24
// 280   ----------------------------------------
	BYTE	W24
// 281   ----------------------------------------
	BYTE	W24
// 282   ----------------------------------------
	BYTE	W24
// 283   ----------------------------------------
	BYTE	W24
// 284   ----------------------------------------
	BYTE	W24
// 285   ----------------------------------------
	BYTE	W24
// 286   ----------------------------------------
	BYTE	W24
// 287   ----------------------------------------
	BYTE	W24
// 288   ----------------------------------------
	BYTE	W24
// 289   ----------------------------------------
	BYTE		        Cn2 
	BYTE	W12
	BYTE		        An1 
	BYTE	W06
	BYTE		        Gs1 
	BYTE	W06
// 290   ----------------------------------------
	BYTE		        Fn1 
	BYTE	W12
	BYTE		        Cn2 
	BYTE	W12
// 291   ----------------------------------------
	BYTE		        Bn1 
	BYTE	W06
	BYTE		        Gs1 
	BYTE	W06
	BYTE		        Fn1 
	BYTE	W12
// 292   ----------------------------------------
	BYTE	W12
	BYTE	GoTo
	 POIN2	Vanishing_Trooper0000_7_B1
Vanishing_Trooper0000_7_B2:
	BYTE		N11     Fn1   v096
	BYTE	W11
	BYTE	FINE

//**************** Track 8 (Midi-Chn.12) ****************//

Vanishing_Trooper0000_8:
	BYTE	KEYSH   Vanishing_Trooper0000_key+0
// 000   ----------------------------------------
	BYTE		VOICE   119
	BYTE		VOL     25*Vanishing_Trooper0000_mvl/mxv
	BYTE	W01
	BYTE		PAN     c_v+0
	BYTE	W23
// 001   ----------------------------------------
	BYTE	W24
// 002   ----------------------------------------
	BYTE	W24
// 003   ----------------------------------------
	BYTE	W24
// 004   ----------------------------------------
	BYTE	W24
// 005   ----------------------------------------
	BYTE	W24
// 006   ----------------------------------------
	BYTE	W24
// 007   ----------------------------------------
	BYTE	W24
// 008   ----------------------------------------
	BYTE	W24
// 009   ----------------------------------------
	BYTE	W24
// 010   ----------------------------------------
	BYTE	W24
// 011   ----------------------------------------
	BYTE	W24
// 012   ----------------------------------------
	BYTE	W24
// 013   ----------------------------------------
	BYTE	W24
// 014   ----------------------------------------
	BYTE	W24
// 015   ----------------------------------------
	BYTE	W24
// 016   ----------------------------------------
	BYTE	W24
// 017   ----------------------------------------
	BYTE	W24
// 018   ----------------------------------------
	BYTE	W24
// 019   ----------------------------------------
	BYTE	W24
// 020   ----------------------------------------
	BYTE	W24
// 021   ----------------------------------------
	BYTE	W24
// 022   ----------------------------------------
	BYTE	W24
// 023   ----------------------------------------
	BYTE	W24
// 024   ----------------------------------------
	BYTE	W24
// 025   ----------------------------------------
	BYTE	W24
// 026   ----------------------------------------
	BYTE	W24
// 027   ----------------------------------------
	BYTE	W24
// 028   ----------------------------------------
	BYTE	W24
// 029   ----------------------------------------
	BYTE	W24
// 030   ----------------------------------------
	BYTE	W24
// 031   ----------------------------------------
	BYTE	W24
// 032   ----------------------------------------
	BYTE	W24
// 033   ----------------------------------------
	BYTE	W24
// 034   ----------------------------------------
	BYTE	W24
// 035   ----------------------------------------
	BYTE	W24
// 036   ----------------------------------------
	BYTE	W24
// 037   ----------------------------------------
	BYTE	W24
// 038   ----------------------------------------
	BYTE	W24
// 039   ----------------------------------------
	BYTE	W24
// 040   ----------------------------------------
	BYTE	W24
// 041   ----------------------------------------
	BYTE	W24
// 042   ----------------------------------------
	BYTE	W24
// 043   ----------------------------------------
	BYTE	W24
// 044   ----------------------------------------
	BYTE	W24
// 045   ----------------------------------------
	BYTE	W24
// 046   ----------------------------------------
	BYTE	W24
// 047   ----------------------------------------
	BYTE	W24
// 048   ----------------------------------------
	BYTE	W24
Vanishing_Trooper0000_8_B1:
// 049   ----------------------------------------
	BYTE	W17
	BYTE		TIE     Fs3   v056
	BYTE	W07
// 050   ----------------------------------------
	BYTE	W24
// 051   ----------------------------------------
	BYTE	W24
// 052   ----------------------------------------
	BYTE	W24
// 053   ----------------------------------------
	BYTE	W24
// 054   ----------------------------------------
	BYTE	W24
// 055   ----------------------------------------
	BYTE	W24
// 056   ----------------------------------------
	BYTE	W24
// 057   ----------------------------------------
	BYTE	W16
	BYTE		EOT   
	BYTE	W08
// 058   ----------------------------------------
	BYTE	W24
// 059   ----------------------------------------
	BYTE	W24
// 060   ----------------------------------------
	BYTE	W24
// 061   ----------------------------------------
	BYTE	W24
// 062   ----------------------------------------
	BYTE	W24
// 063   ----------------------------------------
	BYTE	W24
// 064   ----------------------------------------
	BYTE	W24
// 065   ----------------------------------------
	BYTE	W24
// 066   ----------------------------------------
	BYTE	W24
// 067   ----------------------------------------
	BYTE	W24
// 068   ----------------------------------------
	BYTE	W24
// 069   ----------------------------------------
	BYTE	W24
// 070   ----------------------------------------
	BYTE	W24
// 071   ----------------------------------------
	BYTE	W24
// 072   ----------------------------------------
	BYTE	W24
// 073   ----------------------------------------
	BYTE	W24
// 074   ----------------------------------------
	BYTE	W24
// 075   ----------------------------------------
	BYTE	W24
// 076   ----------------------------------------
	BYTE	W24
// 077   ----------------------------------------
	BYTE	W24
// 078   ----------------------------------------
	BYTE	W24
// 079   ----------------------------------------
	BYTE	W24
// 080   ----------------------------------------
	BYTE	W24
// 081   ----------------------------------------
	BYTE	W24
// 082   ----------------------------------------
	BYTE	W24
// 083   ----------------------------------------
	BYTE	W24
// 084   ----------------------------------------
	BYTE	W24
// 085   ----------------------------------------
	BYTE	W24
// 086   ----------------------------------------
	BYTE	W24
// 087   ----------------------------------------
	BYTE	W24
// 088   ----------------------------------------
	BYTE	W24
// 089   ----------------------------------------
	BYTE	W24
// 090   ----------------------------------------
	BYTE	W24
// 091   ----------------------------------------
	BYTE	W24
// 092   ----------------------------------------
	BYTE	W24
// 093   ----------------------------------------
	BYTE	W24
// 094   ----------------------------------------
	BYTE	W24
// 095   ----------------------------------------
	BYTE	W24
// 096   ----------------------------------------
	BYTE	W24
// 097   ----------------------------------------
	BYTE	W24
// 098   ----------------------------------------
	BYTE	W24
// 099   ----------------------------------------
	BYTE	W24
// 100   ----------------------------------------
	BYTE	W24
// 101   ----------------------------------------
	BYTE	W24
// 102   ----------------------------------------
	BYTE	W24
// 103   ----------------------------------------
	BYTE	W24
// 104   ----------------------------------------
	BYTE	W24
// 105   ----------------------------------------
	BYTE	W24
// 106   ----------------------------------------
	BYTE	W24
// 107   ----------------------------------------
	BYTE	W24
// 108   ----------------------------------------
	BYTE	W24
// 109   ----------------------------------------
	BYTE	W24
// 110   ----------------------------------------
	BYTE	W24
// 111   ----------------------------------------
	BYTE	W24
// 112   ----------------------------------------
	BYTE	W24
// 113   ----------------------------------------
	BYTE	W24
// 114   ----------------------------------------
	BYTE	W24
// 115   ----------------------------------------
	BYTE	W24
// 116   ----------------------------------------
	BYTE	W24
// 117   ----------------------------------------
	BYTE	W24
// 118   ----------------------------------------
	BYTE	W24
// 119   ----------------------------------------
	BYTE	W24
// 120   ----------------------------------------
	BYTE	W24
// 121   ----------------------------------------
	BYTE	W24
// 122   ----------------------------------------
	BYTE	W24
// 123   ----------------------------------------
	BYTE	W24
// 124   ----------------------------------------
	BYTE	W24
// 125   ----------------------------------------
	BYTE	W24
// 126   ----------------------------------------
	BYTE	W24
// 127   ----------------------------------------
	BYTE	W24
// 128   ----------------------------------------
	BYTE	W24
// 129   ----------------------------------------
Vanishing_Trooper0000_8_129:
	BYTE	W17
	BYTE		TIE     Gs3   v052
	BYTE	W07
	BYTE	PEND
// 130   ----------------------------------------
	BYTE	W24
// 131   ----------------------------------------
	BYTE	W24
// 132   ----------------------------------------
	BYTE	W24
// 133   ----------------------------------------
	BYTE	W24
// 134   ----------------------------------------
	BYTE	W24
// 135   ----------------------------------------
	BYTE	W24
// 136   ----------------------------------------
	BYTE	W24
// 137   ----------------------------------------
	BYTE	W16
	BYTE		EOT   
	BYTE	W08
// 138   ----------------------------------------
	BYTE	W24
// 139   ----------------------------------------
	BYTE	W24
// 140   ----------------------------------------
	BYTE	W24
// 141   ----------------------------------------
	BYTE	W24
// 142   ----------------------------------------
	BYTE	W24
// 143   ----------------------------------------
	BYTE	W24
// 144   ----------------------------------------
	BYTE	W23
	BYTE		N32     An3   v108
	BYTE	W01
// 145   ----------------------------------------
	BYTE	W24
// 146   ----------------------------------------
	BYTE	W11
	BYTE		N32   
	BYTE	W13
// 147   ----------------------------------------
	BYTE	W23
	BYTE		N32   
	BYTE	W01
// 148   ----------------------------------------
	BYTE	W24
// 149   ----------------------------------------
	BYTE	W11
	BYTE		N80     As3 
	BYTE	W13
// 150   ----------------------------------------
	BYTE	W24
// 151   ----------------------------------------
	BYTE	W24
// 152   ----------------------------------------
	BYTE	W24
// 153   ----------------------------------------
	BYTE	W24
// 154   ----------------------------------------
	BYTE	W24
// 155   ----------------------------------------
	BYTE	W24
// 156   ----------------------------------------
	BYTE	W24
// 157   ----------------------------------------
	BYTE	W24
// 158   ----------------------------------------
	BYTE	W24
// 159   ----------------------------------------
	BYTE	W24
// 160   ----------------------------------------
	BYTE	W24
// 161   ----------------------------------------
	BYTE	PATT
	 POIN2	Vanishing_Trooper0000_8_129
// 162   ----------------------------------------
	BYTE	W24
// 163   ----------------------------------------
	BYTE	W24
// 164   ----------------------------------------
	BYTE	W24
// 165   ----------------------------------------
	BYTE	W24
// 166   ----------------------------------------
	BYTE	W24
// 167   ----------------------------------------
	BYTE	W24
// 168   ----------------------------------------
	BYTE	W24
// 169   ----------------------------------------
	BYTE	W16
	BYTE		EOT     Gs3 
	BYTE	W08
// 170   ----------------------------------------
	BYTE	W24
// 171   ----------------------------------------
	BYTE	W24
// 172   ----------------------------------------
	BYTE	W24
// 173   ----------------------------------------
	BYTE	W24
// 174   ----------------------------------------
	BYTE	W24
// 175   ----------------------------------------
	BYTE	W24
// 176   ----------------------------------------
	BYTE	W23
	BYTE		N32     Bn3   v108
	BYTE	W01
// 177   ----------------------------------------
	BYTE	W24
// 178   ----------------------------------------
	BYTE	W11
	BYTE		N32   
	BYTE	W13
// 179   ----------------------------------------
	BYTE	W23
	BYTE		N32   
	BYTE	W01
// 180   ----------------------------------------
	BYTE	W24
// 181   ----------------------------------------
	BYTE	W11
	BYTE		N44   
	BYTE	W13
// 182   ----------------------------------------
	BYTE	W24
// 183   ----------------------------------------
	BYTE	W11
	BYTE		N32   
	BYTE	W13
// 184   ----------------------------------------
	BYTE	W23
	BYTE		N32   
	BYTE	W01
// 185   ----------------------------------------
	BYTE	W24
// 186   ----------------------------------------
	BYTE	W11
	BYTE		N32   
	BYTE	W13
// 187   ----------------------------------------
	BYTE	W23
	BYTE		N32   
	BYTE	W01
// 188   ----------------------------------------
	BYTE	W24
// 189   ----------------------------------------
	BYTE	W11
	BYTE		N44   
	BYTE	W13
// 190   ----------------------------------------
	BYTE	W24
// 191   ----------------------------------------
	BYTE	W11
	BYTE		N32   
	BYTE	W13
// 192   ----------------------------------------
	BYTE	W24
// 193   ----------------------------------------
	BYTE	W24
// 194   ----------------------------------------
	BYTE	W24
// 195   ----------------------------------------
	BYTE	W24
// 196   ----------------------------------------
	BYTE	W24
// 197   ----------------------------------------
	BYTE	W24
// 198   ----------------------------------------
	BYTE	W24
// 199   ----------------------------------------
	BYTE	W24
// 200   ----------------------------------------
	BYTE	W24
// 201   ----------------------------------------
	BYTE	W24
// 202   ----------------------------------------
	BYTE	W24
// 203   ----------------------------------------
	BYTE	W24
// 204   ----------------------------------------
	BYTE	W24
// 205   ----------------------------------------
	BYTE	W24
// 206   ----------------------------------------
	BYTE	W24
// 207   ----------------------------------------
	BYTE	W24
// 208   ----------------------------------------
	BYTE	W24
// 209   ----------------------------------------
	BYTE	W24
// 210   ----------------------------------------
	BYTE	W24
// 211   ----------------------------------------
	BYTE	W24
// 212   ----------------------------------------
	BYTE	W24
// 213   ----------------------------------------
	BYTE	W24
// 214   ----------------------------------------
	BYTE	W24
// 215   ----------------------------------------
	BYTE	W24
// 216   ----------------------------------------
	BYTE	W24
// 217   ----------------------------------------
	BYTE	W24
// 218   ----------------------------------------
	BYTE	W24
// 219   ----------------------------------------
	BYTE	W24
// 220   ----------------------------------------
	BYTE	W24
// 221   ----------------------------------------
	BYTE	W24
// 222   ----------------------------------------
	BYTE	W24
// 223   ----------------------------------------
	BYTE	W24
// 224   ----------------------------------------
	BYTE	W24
// 225   ----------------------------------------
	BYTE	W24
// 226   ----------------------------------------
	BYTE	W24
// 227   ----------------------------------------
	BYTE	W24
// 228   ----------------------------------------
	BYTE	W24
// 229   ----------------------------------------
	BYTE	W24
// 230   ----------------------------------------
	BYTE	W24
// 231   ----------------------------------------
	BYTE	W24
// 232   ----------------------------------------
	BYTE	W24
// 233   ----------------------------------------
	BYTE	W24
// 234   ----------------------------------------
	BYTE	W24
// 235   ----------------------------------------
	BYTE	W24
// 236   ----------------------------------------
	BYTE	W24
// 237   ----------------------------------------
	BYTE	W24
// 238   ----------------------------------------
	BYTE	W24
// 239   ----------------------------------------
	BYTE	W24
// 240   ----------------------------------------
	BYTE	W24
// 241   ----------------------------------------
	BYTE	W24
// 242   ----------------------------------------
	BYTE	W24
// 243   ----------------------------------------
	BYTE	W24
// 244   ----------------------------------------
	BYTE	W24
// 245   ----------------------------------------
	BYTE	W24
// 246   ----------------------------------------
	BYTE	W24
// 247   ----------------------------------------
	BYTE	W24
// 248   ----------------------------------------
	BYTE	W24
// 249   ----------------------------------------
	BYTE	W24
// 250   ----------------------------------------
	BYTE	W24
// 251   ----------------------------------------
	BYTE	W24
// 252   ----------------------------------------
	BYTE	W24
// 253   ----------------------------------------
	BYTE	W24
// 254   ----------------------------------------
	BYTE	W24
// 255   ----------------------------------------
	BYTE	W24
// 256   ----------------------------------------
	BYTE	W24
// 257   ----------------------------------------
	BYTE	W24
// 258   ----------------------------------------
	BYTE	W24
// 259   ----------------------------------------
	BYTE	W24
// 260   ----------------------------------------
	BYTE	W24
// 261   ----------------------------------------
	BYTE	W24
// 262   ----------------------------------------
	BYTE	W24
// 263   ----------------------------------------
	BYTE	W24
// 264   ----------------------------------------
	BYTE	W24
// 265   ----------------------------------------
	BYTE	W24
// 266   ----------------------------------------
	BYTE	W24
// 267   ----------------------------------------
	BYTE	W24
// 268   ----------------------------------------
	BYTE	W24
// 269   ----------------------------------------
	BYTE	W24
// 270   ----------------------------------------
	BYTE	W24
// 271   ----------------------------------------
	BYTE	W24
// 272   ----------------------------------------
	BYTE	W24
// 273   ----------------------------------------
	BYTE	W24
// 274   ----------------------------------------
	BYTE	W24
// 275   ----------------------------------------
	BYTE	W24
// 276   ----------------------------------------
	BYTE	W24
// 277   ----------------------------------------
	BYTE	W24
// 278   ----------------------------------------
	BYTE	W24
// 279   ----------------------------------------
	BYTE	W24
// 280   ----------------------------------------
	BYTE	W24
// 281   ----------------------------------------
	BYTE	W24
// 282   ----------------------------------------
	BYTE	W24
// 283   ----------------------------------------
	BYTE	W24
// 284   ----------------------------------------
	BYTE	W24
// 285   ----------------------------------------
	BYTE	W24
// 286   ----------------------------------------
	BYTE	W24
// 287   ----------------------------------------
	BYTE	W24
// 288   ----------------------------------------
	BYTE	W24
// 289   ----------------------------------------
	BYTE	W24
// 290   ----------------------------------------
	BYTE	W24
// 291   ----------------------------------------
	BYTE	W24
// 292   ----------------------------------------
	BYTE	W12
	BYTE	GoTo
	 POIN2	Vanishing_Trooper0000_8_B1
Vanishing_Trooper0000_8_B2:
	BYTE	W11
	BYTE	FINE

//**************** Track 9 (Midi-Chn.16) ****************//

Vanishing_Trooper0000_9:
	BYTE	KEYSH   Vanishing_Trooper0000_key+0
// 000   ----------------------------------------
	BYTE		VOICE   55
	BYTE		VOL     33*Vanishing_Trooper0000_mvl/mxv
	BYTE	W01
	BYTE		PAN     c_v+0
	BYTE	W23
// 001   ----------------------------------------
Vanishing_Trooper0000_9_001:
	BYTE	W12
	BYTE		N32     Gn3   v088
	BYTE		N32     Gn4 
	BYTE	W12
	BYTE	PEND
// 002   ----------------------------------------
	BYTE	W24
// 003   ----------------------------------------
	BYTE	PATT
	 POIN2	Vanishing_Trooper0000_9_001
// 004   ----------------------------------------
	BYTE	W24
// 005   ----------------------------------------
Vanishing_Trooper0000_9_005:
	BYTE	W12
	BYTE		N21     Gn3   v088
	BYTE		N21     Gn4 
	BYTE	W12
	BYTE	PEND
// 006   ----------------------------------------
Vanishing_Trooper0000_9_006:
	BYTE	W12
	BYTE		N21     Gn3   v092
	BYTE		N21     Gn4 
	BYTE	W12
	BYTE	PEND
// 007   ----------------------------------------
	BYTE	PATT
	 POIN2	Vanishing_Trooper0000_9_001
// 008   ----------------------------------------
	BYTE	W24
// 009   ----------------------------------------
	BYTE	PATT
	 POIN2	Vanishing_Trooper0000_9_001
// 010   ----------------------------------------
	BYTE	W24
// 011   ----------------------------------------
	BYTE	PATT
	 POIN2	Vanishing_Trooper0000_9_001
// 012   ----------------------------------------
	BYTE	W24
// 013   ----------------------------------------
	BYTE	PATT
	 POIN2	Vanishing_Trooper0000_9_005
// 014   ----------------------------------------
	BYTE	PATT
	 POIN2	Vanishing_Trooper0000_9_006
// 015   ----------------------------------------
	BYTE	W12
	BYTE		N09     Gn3   v092
	BYTE		N09     Gn4 
	BYTE	W12
// 016   ----------------------------------------
	BYTE		N22     Gn3   v088
	BYTE		N22     Gn4 
	BYTE	W24
// 017   ----------------------------------------
	BYTE		N40     Gn3   v100
	BYTE		N40     Gn4 
	BYTE	W24
// 018   ----------------------------------------
	BYTE	W11
	BYTE		        Dn4 
	BYTE	W13
// 019   ----------------------------------------
	BYTE	W23
	BYTE		N17     As3 
	BYTE	W01
// 020   ----------------------------------------
	BYTE	W11
	BYTE		N28     Fn3 
	BYTE	W13
// 021   ----------------------------------------
	BYTE	W11
	BYTE		N52     Gn3 
	BYTE	W13
// 022   ----------------------------------------
	BYTE	W24
// 023   ----------------------------------------
	BYTE	W24
// 024   ----------------------------------------
	BYTE	W23
	BYTE		N92     Gs3 
	BYTE	W01
// 025   ----------------------------------------
	BYTE	W24
// 026   ----------------------------------------
	BYTE	W24
// 027   ----------------------------------------
	BYTE	W24
// 028   ----------------------------------------
	BYTE	W23
	BYTE		N44     As3 
	BYTE	W01
// 029   ----------------------------------------
	BYTE	W24
// 030   ----------------------------------------
	BYTE	W23
	BYTE		N23     Gs3 
	BYTE	W01
// 031   ----------------------------------------
	BYTE	W23
	BYTE		        Ds3 
	BYTE	W01
// 032   ----------------------------------------
	BYTE	W23
	BYTE		N32     Gn3 
	BYTE	W01
// 033   ----------------------------------------
	BYTE	W24
// 034   ----------------------------------------
	BYTE	W11
	BYTE		N56     Dn4 
	BYTE	W13
// 035   ----------------------------------------
	BYTE	W24
// 036   ----------------------------------------
	BYTE	W23
	BYTE		N23     As3 
	BYTE	W01
// 037   ----------------------------------------
	BYTE	W23
	BYTE		        Gn3 
	BYTE	W01
// 038   ----------------------------------------
	BYTE	W23
	BYTE		        Dn3 
	BYTE	W01
// 039   ----------------------------------------
	BYTE	W23
	BYTE		        Fn3 
	BYTE	W01
// 040   ----------------------------------------
	BYTE	W23
	BYTE		N32     Ds3 
	BYTE	W01
// 041   ----------------------------------------
	BYTE	W24
// 042   ----------------------------------------
	BYTE	W11
	BYTE		        Gn3 
	BYTE	W13
// 043   ----------------------------------------
	BYTE	W23
	BYTE		N23     Dn4 
	BYTE	W01
// 044   ----------------------------------------
	BYTE	W23
	BYTE		        Cn4 
	BYTE	W01
// 045   ----------------------------------------
	BYTE	W23
	BYTE		        As3 
	BYTE	W01
// 046   ----------------------------------------
	BYTE	W23
	BYTE		N11     An3 
	BYTE	W01
// 047   ----------------------------------------
	BYTE	W11
	BYTE		        As3 
	BYTE	W12
	BYTE		        An3 
	BYTE	W01
// 048   ----------------------------------------
	BYTE	W11
	BYTE		        Dn3 
	BYTE	W13
Vanishing_Trooper0000_9_B1:
// 049   ----------------------------------------
	BYTE	W24
// 050   ----------------------------------------
	BYTE	W24
// 051   ----------------------------------------
	BYTE	W24
// 052   ----------------------------------------
	BYTE	W24
// 053   ----------------------------------------
	BYTE	W24
// 054   ----------------------------------------
	BYTE	W24
// 055   ----------------------------------------
	BYTE	W24
// 056   ----------------------------------------
	BYTE	W24
// 057   ----------------------------------------
	BYTE	W24
// 058   ----------------------------------------
	BYTE	W24
// 059   ----------------------------------------
	BYTE	W24
// 060   ----------------------------------------
	BYTE	W24
// 061   ----------------------------------------
	BYTE	W24
// 062   ----------------------------------------
	BYTE	W24
// 063   ----------------------------------------
	BYTE	W24
// 064   ----------------------------------------
	BYTE	W24
// 065   ----------------------------------------
	BYTE	W24
// 066   ----------------------------------------
	BYTE	W24
// 067   ----------------------------------------
	BYTE	W24
// 068   ----------------------------------------
	BYTE	W24
// 069   ----------------------------------------
	BYTE	W24
// 070   ----------------------------------------
	BYTE	W24
// 071   ----------------------------------------
	BYTE	W24
// 072   ----------------------------------------
	BYTE	W24
// 073   ----------------------------------------
	BYTE	W24
// 074   ----------------------------------------
	BYTE	W24
// 075   ----------------------------------------
	BYTE	W24
// 076   ----------------------------------------
	BYTE	W24
// 077   ----------------------------------------
	BYTE	W24
// 078   ----------------------------------------
	BYTE	W24
// 079   ----------------------------------------
	BYTE	W24
// 080   ----------------------------------------
	BYTE	W24
// 081   ----------------------------------------
	BYTE	W24
// 082   ----------------------------------------
	BYTE	W24
// 083   ----------------------------------------
	BYTE	W24
// 084   ----------------------------------------
	BYTE	W24
// 085   ----------------------------------------
	BYTE	W24
// 086   ----------------------------------------
	BYTE	W24
// 087   ----------------------------------------
	BYTE	W24
// 088   ----------------------------------------
	BYTE	W24
// 089   ----------------------------------------
	BYTE	W24
// 090   ----------------------------------------
	BYTE	W24
// 091   ----------------------------------------
	BYTE	W24
// 092   ----------------------------------------
	BYTE	W24
// 093   ----------------------------------------
	BYTE	W24
// 094   ----------------------------------------
	BYTE	W24
// 095   ----------------------------------------
	BYTE	W24
// 096   ----------------------------------------
	BYTE	W24
// 097   ----------------------------------------
	BYTE	W24
// 098   ----------------------------------------
	BYTE	W24
// 099   ----------------------------------------
	BYTE	W24
// 100   ----------------------------------------
	BYTE	W24
// 101   ----------------------------------------
	BYTE	W24
// 102   ----------------------------------------
	BYTE	W24
// 103   ----------------------------------------
	BYTE	W24
// 104   ----------------------------------------
	BYTE	W24
// 105   ----------------------------------------
	BYTE	W24
// 106   ----------------------------------------
	BYTE	W24
// 107   ----------------------------------------
	BYTE	W24
// 108   ----------------------------------------
	BYTE	W24
// 109   ----------------------------------------
	BYTE	W24
// 110   ----------------------------------------
	BYTE	W24
// 111   ----------------------------------------
	BYTE	W24
// 112   ----------------------------------------
	BYTE	W24
// 113   ----------------------------------------
	BYTE	W24
// 114   ----------------------------------------
	BYTE	W24
// 115   ----------------------------------------
	BYTE	W24
// 116   ----------------------------------------
	BYTE	W24
// 117   ----------------------------------------
	BYTE	W24
// 118   ----------------------------------------
	BYTE	W24
// 119   ----------------------------------------
	BYTE	W24
// 120   ----------------------------------------
	BYTE	W24
// 121   ----------------------------------------
	BYTE	W24
// 122   ----------------------------------------
	BYTE	W24
// 123   ----------------------------------------
	BYTE	W24
// 124   ----------------------------------------
	BYTE	W24
// 125   ----------------------------------------
	BYTE	W24
// 126   ----------------------------------------
	BYTE	W24
// 127   ----------------------------------------
	BYTE	W24
// 128   ----------------------------------------
	BYTE	W22
	BYTE		N40     Cn4   v096
	BYTE	W02
// 129   ----------------------------------------
	BYTE	W24
// 130   ----------------------------------------
	BYTE	W10
	BYTE		        As3 
	BYTE	W14
// 131   ----------------------------------------
	BYTE	W22
	BYTE		        An3 
	BYTE	W02
// 132   ----------------------------------------
	BYTE	W24
// 133   ----------------------------------------
	BYTE	W10
	BYTE		N64     Gn3 
	BYTE	W14
// 134   ----------------------------------------
	BYTE	W24
// 135   ----------------------------------------
	BYTE	W24
// 136   ----------------------------------------
	BYTE	W24
// 137   ----------------------------------------
	BYTE	W24
// 138   ----------------------------------------
	BYTE	W24
// 139   ----------------------------------------
	BYTE	W24
// 140   ----------------------------------------
	BYTE	W24
// 141   ----------------------------------------
	BYTE	W24
// 142   ----------------------------------------
	BYTE	W24
// 143   ----------------------------------------
	BYTE	W24
// 144   ----------------------------------------
	BYTE	W24
// 145   ----------------------------------------
	BYTE		N54     As3   v080
	BYTE	W24
// 146   ----------------------------------------
	BYTE	W24
// 147   ----------------------------------------
	BYTE		        Cn4 
	BYTE	W24
// 148   ----------------------------------------
	BYTE	W24
// 149   ----------------------------------------
	BYTE		N28     Dn4   v088
	BYTE	W24
// 150   ----------------------------------------
	BYTE		        As3 
	BYTE	W24
// 151   ----------------------------------------
	BYTE		        Cn4 
	BYTE	W24
// 152   ----------------------------------------
	BYTE		        Dn4 
	BYTE	W24
// 153   ----------------------------------------
	BYTE		N54     Ds4   v100
	BYTE	W24
// 154   ----------------------------------------
	BYTE	W24
// 155   ----------------------------------------
	BYTE	W24
// 156   ----------------------------------------
	BYTE	W24
// 157   ----------------------------------------
	BYTE	W24
// 158   ----------------------------------------
	BYTE	W24
// 159   ----------------------------------------
	BYTE	W24
// 160   ----------------------------------------
	BYTE	W22
	BYTE		N40     Cn4   v096
	BYTE	W02
// 161   ----------------------------------------
	BYTE	W24
// 162   ----------------------------------------
	BYTE	W10
	BYTE		        As3 
	BYTE	W14
// 163   ----------------------------------------
	BYTE	W22
	BYTE		        An3 
	BYTE	W02
// 164   ----------------------------------------
	BYTE	W24
// 165   ----------------------------------------
	BYTE	W10
	BYTE		N64     Gn3 
	BYTE	W14
// 166   ----------------------------------------
	BYTE	W24
// 167   ----------------------------------------
	BYTE	W24
// 168   ----------------------------------------
	BYTE	W24
// 169   ----------------------------------------
	BYTE	W23
	BYTE		N68     Ds4   v108
	BYTE	W01
// 170   ----------------------------------------
	BYTE	W24
// 171   ----------------------------------------
	BYTE	W24
// 172   ----------------------------------------
	BYTE	W24
// 173   ----------------------------------------
	BYTE	W23
	BYTE		N68   
	BYTE	W01
// 174   ----------------------------------------
	BYTE	W24
// 175   ----------------------------------------
	BYTE	W24
// 176   ----------------------------------------
	BYTE	W24
// 177   ----------------------------------------
	BYTE	W24
// 178   ----------------------------------------
	BYTE	W24
// 179   ----------------------------------------
	BYTE	W24
// 180   ----------------------------------------
	BYTE	W24
// 181   ----------------------------------------
	BYTE	W24
// 182   ----------------------------------------
	BYTE	W24
// 183   ----------------------------------------
	BYTE	W24
// 184   ----------------------------------------
	BYTE	W22
	BYTE		N32     Dn4   v096
	BYTE	W02
// 185   ----------------------------------------
	BYTE	W24
// 186   ----------------------------------------
	BYTE	W10
	BYTE		N32   
	BYTE	W14
// 187   ----------------------------------------
	BYTE	W22
	BYTE		N32   
	BYTE	W02
// 188   ----------------------------------------
	BYTE	W24
// 189   ----------------------------------------
	BYTE	W10
	BYTE		N23   
	BYTE	W14
// 190   ----------------------------------------
	BYTE	W10
	BYTE		N11     An3   v100
	BYTE	W12
	BYTE		        Cn4   v108
	BYTE	W02
// 191   ----------------------------------------
	BYTE	W10
	BYTE		N32     Dn4   v100
	BYTE	W14
// 192   ----------------------------------------
	BYTE	W23
	BYTE		N76     Gn3   v096
	BYTE	W01
// 193   ----------------------------------------
	BYTE	W24
// 194   ----------------------------------------
	BYTE	W24
// 195   ----------------------------------------
	BYTE	W24
// 196   ----------------------------------------
	BYTE	W24
// 197   ----------------------------------------
	BYTE	W24
// 198   ----------------------------------------
	BYTE	W24
// 199   ----------------------------------------
	BYTE	W24
// 200   ----------------------------------------
	BYTE	W24
// 201   ----------------------------------------
	BYTE	W24
// 202   ----------------------------------------
	BYTE	W24
// 203   ----------------------------------------
	BYTE	W24
// 204   ----------------------------------------
	BYTE	W24
// 205   ----------------------------------------
	BYTE	W24
// 206   ----------------------------------------
	BYTE	W24
// 207   ----------------------------------------
	BYTE	W24
// 208   ----------------------------------------
	BYTE	W24
// 209   ----------------------------------------
	BYTE	W24
// 210   ----------------------------------------
	BYTE	W24
// 211   ----------------------------------------
	BYTE	W24
// 212   ----------------------------------------
	BYTE	W24
// 213   ----------------------------------------
	BYTE	W24
// 214   ----------------------------------------
	BYTE	W24
// 215   ----------------------------------------
	BYTE	W24
// 216   ----------------------------------------
	BYTE	W24
// 217   ----------------------------------------
	BYTE	W24
// 218   ----------------------------------------
	BYTE	W24
// 219   ----------------------------------------
	BYTE	W24
// 220   ----------------------------------------
	BYTE	W24
// 221   ----------------------------------------
	BYTE	W24
// 222   ----------------------------------------
	BYTE	W24
// 223   ----------------------------------------
	BYTE	W24
// 224   ----------------------------------------
	BYTE	W24
// 225   ----------------------------------------
	BYTE	W24
// 226   ----------------------------------------
	BYTE	W24
// 227   ----------------------------------------
	BYTE	W24
// 228   ----------------------------------------
	BYTE	W24
// 229   ----------------------------------------
	BYTE	W24
// 230   ----------------------------------------
	BYTE	W24
// 231   ----------------------------------------
	BYTE	W24
// 232   ----------------------------------------
	BYTE	W24
// 233   ----------------------------------------
	BYTE	W24
// 234   ----------------------------------------
	BYTE	W24
// 235   ----------------------------------------
	BYTE	W24
// 236   ----------------------------------------
	BYTE	W24
// 237   ----------------------------------------
	BYTE	W24
// 238   ----------------------------------------
	BYTE	W24
// 239   ----------------------------------------
	BYTE	W24
// 240   ----------------------------------------
	BYTE	W24
// 241   ----------------------------------------
	BYTE	W24
// 242   ----------------------------------------
	BYTE	W24
// 243   ----------------------------------------
	BYTE	W24
// 244   ----------------------------------------
	BYTE	W24
// 245   ----------------------------------------
	BYTE	W24
// 246   ----------------------------------------
	BYTE	W24
// 247   ----------------------------------------
	BYTE	W24
// 248   ----------------------------------------
	BYTE	W24
// 249   ----------------------------------------
	BYTE	W24
// 250   ----------------------------------------
	BYTE	W24
// 251   ----------------------------------------
	BYTE	W24
// 252   ----------------------------------------
	BYTE	W24
// 253   ----------------------------------------
	BYTE	W24
// 254   ----------------------------------------
	BYTE	W24
// 255   ----------------------------------------
	BYTE	W24
// 256   ----------------------------------------
	BYTE	W23
	BYTE		N68     Dn4   v080
	BYTE	W01
// 257   ----------------------------------------
	BYTE	W11
	BYTE		N17     Dn3   v076
	BYTE	W12
	BYTE		        Fn3 
	BYTE	W01
// 258   ----------------------------------------
	BYTE	W11
	BYTE		        Dn3 
	BYTE	W12
	BYTE		        As3 
	BYTE	W01
// 259   ----------------------------------------
	BYTE	W11
	BYTE		N40     Gn3 
	BYTE	W13
// 260   ----------------------------------------
	BYTE	W24
// 261   ----------------------------------------
	BYTE	W24
// 262   ----------------------------------------
	BYTE	W24
// 263   ----------------------------------------
	BYTE	W24
// 264   ----------------------------------------
	BYTE	W24
// 265   ----------------------------------------
	BYTE	W24
// 266   ----------------------------------------
	BYTE	W24
// 267   ----------------------------------------
	BYTE	W24
// 268   ----------------------------------------
	BYTE	W24
// 269   ----------------------------------------
	BYTE	W24
// 270   ----------------------------------------
	BYTE	W24
// 271   ----------------------------------------
	BYTE	W24
// 272   ----------------------------------------
	BYTE	W24
// 273   ----------------------------------------
	BYTE	W24
// 274   ----------------------------------------
	BYTE	W24
// 275   ----------------------------------------
	BYTE	W24
// 276   ----------------------------------------
	BYTE	W24
// 277   ----------------------------------------
	BYTE	W24
// 278   ----------------------------------------
	BYTE	W24
// 279   ----------------------------------------
	BYTE	W24
// 280   ----------------------------------------
	BYTE	W24
// 281   ----------------------------------------
	BYTE	W24
// 282   ----------------------------------------
	BYTE	W24
// 283   ----------------------------------------
	BYTE	W24
// 284   ----------------------------------------
	BYTE	W24
// 285   ----------------------------------------
	BYTE	W24
// 286   ----------------------------------------
	BYTE	W24
// 287   ----------------------------------------
	BYTE	W24
// 288   ----------------------------------------
	BYTE	W24
// 289   ----------------------------------------
	BYTE	W22
	BYTE		N32     Dn4   v100
	BYTE	W02
// 290   ----------------------------------------
	BYTE	W24
// 291   ----------------------------------------
	BYTE	W10
	BYTE		N32   
	BYTE	W14
// 292   ----------------------------------------
	BYTE	W12
	BYTE	GoTo
	 POIN2	Vanishing_Trooper0000_9_B1
Vanishing_Trooper0000_9_B2:
	BYTE	W11
	BYTE	FINE

//******************************************************//
	ALIGN 4

Vanishing_Trooper0000:
	BYTE	9	// NumTrks
	BYTE	0	// NumBlks
	BYTE	Vanishing_Trooper0000_pri	// Priority
	BYTE	Vanishing_Trooper0000_rev	// Reverb.

	POIN2	Vanishing_Trooper0000_grp

	POIN2	Vanishing_Trooper0000_1
	POIN2	Vanishing_Trooper0000_2
	POIN2	Vanishing_Trooper0000_3
	POIN2	Vanishing_Trooper0000_4
	POIN2	Vanishing_Trooper0000_5
	POIN2	Vanishing_Trooper0000_6
	POIN2	Vanishing_Trooper0000_7
	POIN2	Vanishing_Trooper0000_8
	POIN2	Vanishing_Trooper0000_9

	
