//Event file generated from Sappy .s format.
	#include "MPlayDef.event"

	#define	WarClouds0_grp  voicegroup000
	#define	WarClouds0_pri  0
	#define	WarClouds0_rev  0
	#define	WarClouds0_mvl  127
	#define	WarClouds0_key  0
	#define	WarClouds0_tbs  1
	#define	WarClouds0_exg  0
	#define	WarClouds0_cmp  1

	// .rodata
	//	WarClouds0
	ALIGN 4

//**************** Track 1 (Midi-Chn.1) ****************//

WarClouds0_1:
	BYTE	KEYSH   WarClouds0_key+0
// 000   ----------------------------------------
	BYTE	TEMPO   200*WarClouds0_tbs/2
	BYTE		VOICE   49
	BYTE		MOD     0
	BYTE		VOL     43*WarClouds0_mvl/mxv
	BYTE		PAN     c_v+4
	BYTE		BEND    c_v+0
	BYTE	W23
	BYTE	W01
	BYTE	TEMPO   110*WarClouds0_tbs/2
	BYTE		N05     Gn3   v120
	BYTE		N05     As3 
	BYTE	W06
	BYTE		        Dn3 
	BYTE		N05     Gn3 
	BYTE	W01
	BYTE	W04
	BYTE	W01
	BYTE		N05   
	BYTE		N05     As3 
	BYTE	W03
	BYTE	W03
	BYTE		N05   
	BYTE		N05     Dn4 
	BYTE	W01
	BYTE	W04
	BYTE	W01
	BYTE		        An3 
	BYTE		N05     Cn4 
	BYTE	W03
	BYTE	W03
	BYTE		        Fn3 
	BYTE		N05     An3 
	BYTE	W01
	BYTE	W04
	BYTE	W01
	BYTE		        Cn3 
	BYTE		N05     Fn3 
	BYTE	W03
	BYTE	W03
	BYTE		N05   
	BYTE		N05     An3 
	BYTE	W01
	BYTE	W04
	BYTE	W01
	BYTE		        Gn3 
	BYTE		N05     As3 
	BYTE	W03
	BYTE	W03
	BYTE		        Dn3 
	BYTE		N05     Gn3 
	BYTE	W01
	BYTE	W04
	BYTE	W01
	BYTE		N05   
	BYTE		N05     As3 
	BYTE	W03
	BYTE	W03
	BYTE		N05   
	BYTE		N05     Dn4 
	BYTE	W01
	BYTE	W04
	BYTE	W01
// 001   ----------------------------------------
	BYTE		        An3 
	BYTE		N05     Cn4 
	BYTE	W03
	BYTE	W03
	BYTE		        Fn3 
	BYTE		N05     An3 
	BYTE	W01
	BYTE	W03
	BYTE	W02
	BYTE		        Cn3 
	BYTE		N05     Fn3 
	BYTE	W02
	BYTE	W04
	BYTE		N05   
	BYTE		N05     An3 
	BYTE	W04
	BYTE	W02
	BYTE		        Gn3 
	BYTE		N05     As3 
	BYTE	W02
	BYTE	W04
	BYTE		        Dn3 
	BYTE		N05     Gn3 
	BYTE	W04
	BYTE	W02
	BYTE		N05   
	BYTE		N05     As3 
	BYTE	W02
	BYTE	W04
	BYTE		N05   
	BYTE		N05     Dn4 
	BYTE	W04
	BYTE	W02
	BYTE		        An3 
	BYTE		N05     Cn4 
	BYTE	W02
	BYTE	W04
	BYTE		        Fn3 
	BYTE		N05     An3 
	BYTE	W04
	BYTE	W02
	BYTE		        Cn3 
	BYTE		N05     Fn3 
	BYTE	W02
	BYTE	W04
	BYTE		N05   
	BYTE		N05     An3 
	BYTE	W04
	BYTE	W02
	BYTE		        Gn3 
	BYTE		N05     As3 
	BYTE	W02
	BYTE	W04
	BYTE		        Dn3 
	BYTE		N05     Gn3 
	BYTE	W04
	BYTE	W02
	BYTE		N05   
	BYTE		N05     As3 
	BYTE	W02
	BYTE	W03
	BYTE	W01
	BYTE		N05   
	BYTE		N05     Dn4 
	BYTE	W03
	BYTE	W03
// 002   ----------------------------------------
	BYTE		        An3 
	BYTE		N05     Cn4 
	BYTE	W01
	BYTE	W04
	BYTE	W01
	BYTE		        Fn3 
	BYTE		N05     An3 
	BYTE	W03
	BYTE	W03
	BYTE		        Cn3 
	BYTE		N05     Fn3 
	BYTE	W01
	BYTE	W04
	BYTE	W01
	BYTE		N05   
	BYTE		N05     An3 
	BYTE	W03
	BYTE	W03
	BYTE		        Gn3 
	BYTE		N05     As3 
	BYTE	W01
	BYTE	W04
	BYTE	W01
	BYTE		        Dn3 
	BYTE		N05     Gn3 
	BYTE	W03
	BYTE	W03
	BYTE		N05   
	BYTE		N05     As3 
	BYTE	W01
	BYTE	W04
	BYTE	W01
	BYTE		N05   
	BYTE		N05     Dn4 
	BYTE	W03
	BYTE	W03
	BYTE		        An3 
	BYTE		N05     Cn4 
	BYTE	W01
	BYTE	W04
	BYTE	W01
	BYTE		        Fn3 
	BYTE		N05     An3 
	BYTE	W03
	BYTE	W03
	BYTE		        Cn3 
	BYTE		N05     Fn3 
	BYTE	W01
	BYTE	W04
	BYTE	W01
	BYTE		N05   
	BYTE		N05     An3 
	BYTE	W03
	BYTE	W03
	BYTE		        Gn3 
	BYTE		N05     As3 
	BYTE	W04
	BYTE	W02
	BYTE		        Dn3 
	BYTE		N05     Gn3 
	BYTE	W02
	BYTE	W04
	BYTE		N05   
	BYTE		N05     As3 
	BYTE	W04
	BYTE	W02
	BYTE		N05   
	BYTE		N05     Dn4 
	BYTE	W02
	BYTE	W04
// 003   ----------------------------------------
	BYTE		        An3 
	BYTE		N05     Cn4 
	BYTE	W04
	BYTE	W02
	BYTE		        Fn3 
	BYTE		N05     An3 
	BYTE	W02
	BYTE	W04
	BYTE		        Cn3 
	BYTE		N05     Fn3 
	BYTE	W04
	BYTE	W02
	BYTE		N05   
	BYTE		N05     An3 
	BYTE	W02
	BYTE	W04
	BYTE		        Gn3 
	BYTE		N05     As3 
	BYTE	W04
	BYTE	W02
	BYTE		        Dn3 
	BYTE		N05     Gn3 
	BYTE	W02
	BYTE	W04
	BYTE		N05   
	BYTE		N05     As3 
	BYTE	W04
	BYTE	W02
	BYTE		N05   
	BYTE		N05     Dn4 
	BYTE	W02
	BYTE	W04
	BYTE		        An3 
	BYTE		N05     Cn4 
	BYTE	W04
	BYTE	W02
	BYTE		        Fn3 
	BYTE		N05     An3 
	BYTE	W01
	BYTE	W04
	BYTE	W01
	BYTE		        Cn3 
	BYTE		N05     Fn3 
	BYTE	W03
	BYTE	W03
	BYTE		N05   
	BYTE		N05     An3 
	BYTE	W01
	BYTE	W04
	BYTE	W01
	BYTE		        Gn3 
	BYTE		N05     As3 
	BYTE	W03
	BYTE	W03
	BYTE		        Dn3 
	BYTE		N05     Gn3 
	BYTE	W01
	BYTE	W04
	BYTE	W01
	BYTE		N05   
	BYTE		N05     As3 
	BYTE	W03
	BYTE	W03
	BYTE		N05   
	BYTE		N05     Dn4 
	BYTE	W01
	BYTE	W04
	BYTE	W01
// 004   ----------------------------------------
	BYTE		        An3 
	BYTE		N05     Cn4 
	BYTE	W03
	BYTE	W03
	BYTE		        Fn3 
	BYTE		N05     An3 
	BYTE	W01
	BYTE	W04
	BYTE	W01
	BYTE		        Cn3 
	BYTE		N05     Fn3 
	BYTE	W03
	BYTE	W03
	BYTE		N05   
	BYTE		N05     An3 
	BYTE	W01
	BYTE	W04
	BYTE	W01
	BYTE		        Gn3 
	BYTE		N05     As3 
	BYTE	W06
	BYTE		        Dn3 
	BYTE		N05     Gn3 
	BYTE	W06
	BYTE		N05   
	BYTE		N05     As3 
	BYTE	W06
	BYTE		N05   
	BYTE		N05     Dn4 
	BYTE	W06
	BYTE		        An3 
	BYTE		N05     Cn4 
	BYTE	W06
	BYTE		        Fn3 
	BYTE		N05     An3 
	BYTE	W06
	BYTE		        Cn3 
	BYTE		N05     Fn3 
	BYTE	W06
	BYTE		N05   
	BYTE		N05     An3 
	BYTE	W06
	BYTE		        Gn3 
	BYTE		N05     As3 
	BYTE	W06
	BYTE		        Dn3 
	BYTE		N05     Gn3 
	BYTE	W06
	BYTE		N05   
	BYTE		N05     As3 
	BYTE	W06
	BYTE		N05   
	BYTE		N05     Dn4 
	BYTE	W06
// 005   ----------------------------------------
WarClouds0_1_005:
	BYTE		N05     An3   v120
	BYTE		N05     Cn4 
	BYTE	W06
	BYTE		        Fn3 
	BYTE		N05     An3 
	BYTE	W06
	BYTE		        Cn3 
	BYTE		N05     Fn3 
	BYTE	W06
	BYTE		N05   
	BYTE		N05     An3 
	BYTE	W06
	BYTE		        Gn3 
	BYTE		N05     As3 
	BYTE	W06
	BYTE		        Dn3 
	BYTE		N05     Gn3 
	BYTE	W06
	BYTE		N05   
	BYTE		N05     As3 
	BYTE	W06
	BYTE		N05   
	BYTE		N05     Dn4 
	BYTE	W06
	BYTE		        An3 
	BYTE		N05     Cn4 
	BYTE	W06
	BYTE		        Fn3 
	BYTE		N05     An3 
	BYTE	W06
	BYTE		        Cn3 
	BYTE		N05     Fn3 
	BYTE	W06
	BYTE		N05   
	BYTE		N05     An3 
	BYTE	W06
	BYTE		        Gn3 
	BYTE		N05     As3 
	BYTE	W06
	BYTE		        Dn3 
	BYTE		N05     Gn3 
	BYTE	W06
	BYTE		N05   
	BYTE		N05     As3 
	BYTE	W06
	BYTE		N05   
	BYTE		N05     Dn4 
	BYTE	W06
	BYTE	PEND
// 006   ----------------------------------------
	BYTE		        An3 
	BYTE		N05     Cn4 
	BYTE	W01
	BYTE	W01
	BYTE	W02
	BYTE	W01
	BYTE	W01
	BYTE		        Fn3 
	BYTE		N05     An3 
	BYTE	W01
	BYTE	W01
	BYTE	W02
	BYTE	W01
	BYTE	W01
	BYTE		        Cn3 
	BYTE		N05     Fn3 
	BYTE	W01
	BYTE	W01
	BYTE	W02
	BYTE	W01
	BYTE	W01
	BYTE		N05   
	BYTE		N05     An3 
	BYTE	W01
	BYTE	W01
	BYTE	W02
	BYTE	W01
	BYTE	W01
	BYTE		        Gn3 
	BYTE		N05     As3 
	BYTE	W06
	BYTE		        Dn3 
	BYTE		N05     Gn3 
	BYTE	W02
	BYTE	W04
	BYTE		N05   
	BYTE		N05     As3 
	BYTE	W04
	BYTE	W02
	BYTE		N05   
	BYTE		N05     Dn4 
	BYTE	W02
	BYTE	W04
	BYTE		        An3 
	BYTE		N05     Cn4 
	BYTE	W04
	BYTE	W02
	BYTE		        Fn3 
	BYTE		N05     An3 
	BYTE	W02
	BYTE	W04
	BYTE		        Cn3 
	BYTE		N05     Fn3 
	BYTE	W04
	BYTE	W02
	BYTE		N05   
	BYTE		N05     An3 
	BYTE	W02
	BYTE	W04
	BYTE		        Gn3 
	BYTE		N05     As3 
	BYTE	W04
	BYTE	W02
	BYTE		        Dn3 
	BYTE		N05     Gn3 
	BYTE	W03
	BYTE	W03
	BYTE		N05   
	BYTE		N05     As3 
	BYTE	W01
	BYTE	W04
	BYTE	W01
	BYTE		N05   
	BYTE		N05     Dn4 
	BYTE	W03
	BYTE	W03
// 007   ----------------------------------------
	BYTE		        An3 
	BYTE		N05     Cn4 
	BYTE	W01
	BYTE	W04
	BYTE	W01
	BYTE		        Fn3 
	BYTE		N05     An3 
	BYTE	W03
	BYTE	W03
	BYTE		        Cn3 
	BYTE		N05     Fn3 
	BYTE	W01
	BYTE	W04
	BYTE	W01
	BYTE		N05   
	BYTE		N05     An3 
	BYTE	W03
	BYTE	W03
	BYTE		        Gn3 
	BYTE		N05     As3 
	BYTE	W01
	BYTE	W04
	BYTE	W01
	BYTE		        Dn3 
	BYTE		N05     Gn3 
	BYTE	W03
	BYTE	W03
	BYTE		N05   
	BYTE		N05     As3 
	BYTE	W02
	BYTE	W04
	BYTE		N05   
	BYTE		N05     Dn4 
	BYTE	W04
	BYTE	W02
	BYTE		        An3 
	BYTE		N05     Cn4 
	BYTE	W02
	BYTE	W04
	BYTE		        Fn3 
	BYTE		N05     An3 
	BYTE	W04
	BYTE	W02
	BYTE		        Cn3 
	BYTE		N05     Fn3 
	BYTE	W02
	BYTE	W04
	BYTE		N05   
	BYTE		N05     An3 
	BYTE	W04
	BYTE	W02
	BYTE		        Gn3 
	BYTE		N05     As3 
	BYTE	W02
	BYTE	W04
	BYTE		        Dn3 
	BYTE		N05     Gn3 
	BYTE	W04
	BYTE	W02
	BYTE		N05   
	BYTE		N05     As3 
	BYTE	W02
	BYTE	W04
	BYTE		N05   
	BYTE		N05     Dn4 
	BYTE	W01
	BYTE	W04
	BYTE	W01
// 008   ----------------------------------------
	BYTE		        An3 
	BYTE		N05     Cn4 
	BYTE	W03
	BYTE	W03
	BYTE		        Fn3 
	BYTE		N05     An3 
	BYTE	W01
	BYTE	W04
	BYTE	W01
	BYTE		        Cn3 
	BYTE		N05     Fn3 
	BYTE	W03
	BYTE	W03
	BYTE		N05   
	BYTE		N05     An3 
	BYTE	W01
	BYTE	W04
	BYTE	W01
	BYTE		        Gn3 
	BYTE		N05     As3 
	BYTE	W06
	BYTE		        Dn3 
	BYTE		N05     Gn3 
	BYTE	W06
	BYTE		N05   
	BYTE		N05     As3 
	BYTE	W06
	BYTE		N05   
	BYTE		N05     Dn4 
	BYTE	W06
	BYTE		        An3 
	BYTE		N05     Cn4 
	BYTE	W06
	BYTE		        Fn3 
	BYTE		N05     An3 
	BYTE	W06
	BYTE		        Cn3 
	BYTE		N05     Fn3 
	BYTE	W06
	BYTE		N05   
	BYTE		N05     An3 
	BYTE	W06
	BYTE		        Gn3 
	BYTE		N05     As3 
	BYTE	W06
	BYTE		        Dn3 
	BYTE		N05     Gn3 
	BYTE	W06
	BYTE		N05   
	BYTE		N05     As3 
	BYTE	W06
	BYTE		N05   
	BYTE		N05     Dn4 
	BYTE	W06
// 009   ----------------------------------------
	BYTE	PATT
	 POIN2	WarClouds0_1_005
// 010   ----------------------------------------
	BYTE	PATT
	 POIN2	WarClouds0_1_005
// 011   ----------------------------------------
	BYTE		N05     An3   v120
	BYTE		N05     Cn4 
	BYTE	W06
	BYTE		        Fn3 
	BYTE		N05     An3 
	BYTE	W06
	BYTE		        Cn3 
	BYTE		N05     Fn3 
	BYTE	W06
	BYTE		N05   
	BYTE		N05     An3 
	BYTE	W06
	BYTE		        Gn3 
	BYTE		N05     As3 
	BYTE	W03
	BYTE	W03
	BYTE		        Dn3 
	BYTE		N05     Gn3 
	BYTE	W03
	BYTE	W03
	BYTE		N05   
	BYTE		N05     As3 
	BYTE	W03
	BYTE	W03
	BYTE		N05   
	BYTE		N05     Dn4 
	BYTE	W03
	BYTE	W03
	BYTE		        An3 
	BYTE		N05     Cn4 
	BYTE	W03
	BYTE	W03
	BYTE		        Fn3 
	BYTE		N05     An3 
	BYTE	W03
	BYTE	W03
	BYTE		        Cn3 
	BYTE		N05     Fn3 
	BYTE	W03
	BYTE	W03
	BYTE		N05   
	BYTE		N05     An3 
	BYTE	W03
	BYTE	W03
	BYTE		        Gn3 
	BYTE		N05     As3 
	BYTE	W03
	BYTE	W03
	BYTE		        Dn3 
	BYTE		N05     Gn3 
	BYTE	W03
	BYTE	W03
	BYTE		N05   
	BYTE		N05     As3 
	BYTE	W03
	BYTE	W03
	BYTE		N05   
	BYTE		N05     Dn4 
	BYTE	W03
	BYTE	W03
// 012   ----------------------------------------
	BYTE		        An3 
	BYTE		N05     Cn4 
	BYTE	W03
	BYTE	W03
	BYTE		        Fn3 
	BYTE		N05     An3 
	BYTE	W03
	BYTE	W03
	BYTE		        Cn3 
	BYTE		N05     Fn3 
	BYTE	W03
	BYTE	W03
	BYTE		N05   
	BYTE		N05     An3 
	BYTE	W03
	BYTE	W03
	BYTE		        Gn3 
	BYTE		N05     As3 
	BYTE	W06
	BYTE		        Dn3 
	BYTE		N05     Gn3 
	BYTE	W06
	BYTE		N05   
	BYTE		N05     As3 
	BYTE	W06
	BYTE		N05   
	BYTE		N05     Dn4 
	BYTE	W06
	BYTE		        An3 
	BYTE		N05     Cn4 
	BYTE	W06
	BYTE		        Fn3 
	BYTE		N05     An3 
	BYTE	W06
	BYTE		        Cn3 
	BYTE		N05     Fn3 
	BYTE	W06
	BYTE		N05   
	BYTE		N05     An3 
	BYTE	W06
	BYTE		        Gn3 
	BYTE		N05     As3 
	BYTE	W06
	BYTE		        Dn3 
	BYTE		N05     Gn3 
	BYTE	W06
	BYTE		N05   
	BYTE		N05     As3 
	BYTE	W06
	BYTE		N05   
	BYTE		N05     Dn4 
	BYTE	W06
// 013   ----------------------------------------
	BYTE	PATT
	 POIN2	WarClouds0_1_005
// 014   ----------------------------------------
	BYTE	PATT
	 POIN2	WarClouds0_1_005
// 015   ----------------------------------------
	BYTE	PATT
	 POIN2	WarClouds0_1_005
// 016   ----------------------------------------
	BYTE	PATT
	 POIN2	WarClouds0_1_005
// 017   ----------------------------------------
	BYTE	PATT
	 POIN2	WarClouds0_1_005
// 018   ----------------------------------------
	BYTE		N05     An3   v120
	BYTE		N05     Cn4 
	BYTE	W06
	BYTE		        Fn3 
	BYTE		N05     An3 
	BYTE	W06
	BYTE		        Cn3 
	BYTE		N05     Fn3 
	BYTE	W06
	BYTE		N05   
	BYTE		N05     An3 
	BYTE	W78
// 019   ----------------------------------------
	BYTE	W96
// 020   ----------------------------------------
	BYTE	W96
// 021   ----------------------------------------
	BYTE	W96
// 022   ----------------------------------------
	BYTE	W96
// 023   ----------------------------------------
	BYTE	W96
// 024   ----------------------------------------
	BYTE	W96
// 025   ----------------------------------------
	BYTE	W80
	BYTE	W02
	BYTE	W14
// 026   ----------------------------------------
WarClouds0_1_026:
	BYTE	W24
	BYTE		N92     Gn2   v108
	BYTE		N92     As2 
	BYTE		N92     Dn3 
	BYTE	W72
	BYTE	PEND
// 027   ----------------------------------------
WarClouds0_1_027:
	BYTE	W24
	BYTE		N44     As2   v108
	BYTE		N44     Dn3 
	BYTE		N44     Fn3 
	BYTE	W48
	BYTE		        Gn2 
	BYTE		N44     Cn3 
	BYTE		N44     Ds3 
	BYTE	W24
	BYTE	PEND
// 028   ----------------------------------------
	BYTE	PATT
	 POIN2	WarClouds0_1_026
// 029   ----------------------------------------
WarClouds0_1_029:
	BYTE	W24
	BYTE		N92     Cn3   v108
	BYTE		N92     Fn3 
	BYTE		N92     An3 
	BYTE	W72
	BYTE	PEND
// 030   ----------------------------------------
WarClouds0_1_030:
	BYTE	W24
	BYTE		N92     Dn3   v108
	BYTE		N92     Gn3 
	BYTE		N92     As3 
	BYTE	W72
	BYTE	PEND
// 031   ----------------------------------------
	BYTE	PATT
	 POIN2	WarClouds0_1_029
// 032   ----------------------------------------
	BYTE	PATT
	 POIN2	WarClouds0_1_029
// 033   ----------------------------------------
WarClouds0_1_033:
	BYTE	W24
	BYTE		N92     As2   v108
	BYTE		N92     Dn3 
	BYTE		N92     Gn3 
	BYTE	W72
	BYTE	PEND
// 034   ----------------------------------------
WarClouds0_1_034:
	BYTE	W24
	BYTE		N92     Cn3   v108
	BYTE		N92     Ds3 
	BYTE		N92     Gn3 
	BYTE	W72
	BYTE	PEND
// 035   ----------------------------------------
	BYTE	PATT
	 POIN2	WarClouds0_1_029
// 036   ----------------------------------------
	BYTE	PATT
	 POIN2	WarClouds0_1_030
// 037   ----------------------------------------
	BYTE	PATT
	 POIN2	WarClouds0_1_033
// 038   ----------------------------------------
	BYTE	PATT
	 POIN2	WarClouds0_1_033
// 039   ----------------------------------------
	BYTE	PATT
	 POIN2	WarClouds0_1_029
// 040   ----------------------------------------
WarClouds0_1_040:
	BYTE	W24
	BYTE		TIE     Cn3   v108
	BYTE		TIE     Dn3 
	BYTE		TIE     Gn3 
	BYTE	W72
	BYTE	PEND
// 041   ----------------------------------------
	BYTE	W96
// 042   ----------------------------------------
	BYTE	W22
	BYTE		EOT     Cn3 
	BYTE		        Dn3 
	BYTE		        Gn3 
	BYTE	W02
	BYTE		N92     Gn2 
	BYTE		N92     As2 
	BYTE		N92     Dn3 
	BYTE	W72
// 043   ----------------------------------------
	BYTE	PATT
	 POIN2	WarClouds0_1_027
// 044   ----------------------------------------
	BYTE	PATT
	 POIN2	WarClouds0_1_026
// 045   ----------------------------------------
	BYTE	PATT
	 POIN2	WarClouds0_1_029
// 046   ----------------------------------------
	BYTE	PATT
	 POIN2	WarClouds0_1_030
// 047   ----------------------------------------
	BYTE	PATT
	 POIN2	WarClouds0_1_029
// 048   ----------------------------------------
	BYTE	PATT
	 POIN2	WarClouds0_1_029
// 049   ----------------------------------------
	BYTE	PATT
	 POIN2	WarClouds0_1_033
// 050   ----------------------------------------
	BYTE	PATT
	 POIN2	WarClouds0_1_034
// 051   ----------------------------------------
	BYTE	PATT
	 POIN2	WarClouds0_1_029
// 052   ----------------------------------------
	BYTE	PATT
	 POIN2	WarClouds0_1_030
// 053   ----------------------------------------
	BYTE	PATT
	 POIN2	WarClouds0_1_033
// 054   ----------------------------------------
	BYTE	PATT
	 POIN2	WarClouds0_1_033
// 055   ----------------------------------------
	BYTE	PATT
	 POIN2	WarClouds0_1_029
// 056   ----------------------------------------
	BYTE	PATT
	 POIN2	WarClouds0_1_040
// 057   ----------------------------------------
	BYTE	W96
// 058   ----------------------------------------
	BYTE	W22
	BYTE		EOT     Cn3 
	BYTE		        Dn3 
	BYTE		        Gn3 
	BYTE	W02
WarClouds0_1_B1:
	BYTE	W72
// 059   ----------------------------------------
	BYTE	W96
// 060   ----------------------------------------
	BYTE	W96
// 061   ----------------------------------------
	BYTE	W96
// 062   ----------------------------------------
	BYTE	W96
// 063   ----------------------------------------
	BYTE	W96
// 064   ----------------------------------------
	BYTE	W96
// 065   ----------------------------------------
	BYTE	W96
// 066   ----------------------------------------
	BYTE	W24
	BYTE		N48     Ds4   v104
	BYTE	W48
	BYTE		N24     Dn4 
	BYTE	W24
// 067   ----------------------------------------
WarClouds0_1_067:
	BYTE		N24     Gn3   v104
	BYTE	W24
	BYTE		N48     Ds4 
	BYTE	W48
	BYTE		N24     Dn4 
	BYTE	W24
	BYTE	PEND
// 068   ----------------------------------------
	BYTE	PATT
	 POIN2	WarClouds0_1_067
// 069   ----------------------------------------
WarClouds0_1_069:
	BYTE		N24     Gs3   v104
	BYTE	W24
	BYTE		N48     Ds4 
	BYTE	W48
	BYTE		N24     Dn4 
	BYTE	W24
	BYTE	PEND
// 070   ----------------------------------------
WarClouds0_1_070:
	BYTE		N24     Gs3   v104
	BYTE	W24
	BYTE		N48     Fn4 
	BYTE	W48
	BYTE		N24     Ds4 
	BYTE	W24
	BYTE	PEND
// 071   ----------------------------------------
WarClouds0_1_071:
	BYTE		N24     Dn4   v104
	BYTE	W24
	BYTE		N48     Fn4 
	BYTE	W48
	BYTE		N24     Ds4 
	BYTE	W24
	BYTE	PEND
// 072   ----------------------------------------
WarClouds0_1_072:
	BYTE		N24     Fn4   v104
	BYTE	W24
	BYTE		N48     Gs4 
	BYTE	W48
	BYTE		N24     Gn4 
	BYTE	W24
	BYTE	PEND
// 073   ----------------------------------------
	BYTE	PATT
	 POIN2	WarClouds0_1_072
// 074   ----------------------------------------
	BYTE		N24     Fn4   v104
	BYTE	W24
	BYTE		N48     Ds4 
	BYTE	W48
	BYTE		N24     Dn4 
	BYTE	W24
// 075   ----------------------------------------
	BYTE	PATT
	 POIN2	WarClouds0_1_067
// 076   ----------------------------------------
	BYTE	PATT
	 POIN2	WarClouds0_1_067
// 077   ----------------------------------------
	BYTE	PATT
	 POIN2	WarClouds0_1_069
// 078   ----------------------------------------
	BYTE	PATT
	 POIN2	WarClouds0_1_070
// 079   ----------------------------------------
	BYTE	PATT
	 POIN2	WarClouds0_1_071
// 080   ----------------------------------------
	BYTE	PATT
	 POIN2	WarClouds0_1_072
// 081   ----------------------------------------
	BYTE		N24     Fn4   v104
	BYTE	W24
	BYTE		N48     Gs4 
	BYTE	W48
	BYTE		N24     As4 
	BYTE	W24
// 082   ----------------------------------------
	BYTE		        Cn5 
	BYTE	W24
	BYTE		N48     Dn5 
	BYTE	W48
	BYTE		N24     Cn5 
	BYTE	W24
// 083   ----------------------------------------
	BYTE		        Gn4 
	BYTE	W24
	BYTE		N48     Dn5 
	BYTE	W48
	BYTE		N24     Cn5 
	BYTE	W24
// 084   ----------------------------------------
	BYTE		        Gn4 
	BYTE	W24
	BYTE		N48     Ds5 
	BYTE	W48
	BYTE		N24     Dn5 
	BYTE	W24
// 085   ----------------------------------------
	BYTE		        Gs4 
	BYTE	W24
	BYTE		N48     Ds5 
	BYTE	W48
	BYTE		N24     Dn5 
	BYTE	W24
// 086   ----------------------------------------
	BYTE		        Ds5 
	BYTE	W24
	BYTE		N48     Fn5   v120
	BYTE	W48
	BYTE		N24     Ds5 
	BYTE	W24
// 087   ----------------------------------------
	BYTE		        Dn5 
	BYTE	W24
	BYTE		N48     Fn5 
	BYTE	W48
	BYTE		N24     Ds5 
	BYTE	W24
// 088   ----------------------------------------
	BYTE		        Fn5 
	BYTE	W24
	BYTE		N48   
	BYTE	W48
	BYTE		N24     Ds5 
	BYTE	W24
// 089   ----------------------------------------
	BYTE		        As4 
	BYTE	W24
	BYTE		N48     Dn5 
	BYTE	W48
	BYTE		N24     Cn4 
	BYTE	W24
// 090   ----------------------------------------
	BYTE		        Dn4 
	BYTE	W24
	BYTE		N48     Ds4 
	BYTE	W48
	BYTE		N24     Dn4 
	BYTE	W24
// 091   ----------------------------------------
	BYTE		        Ds4 
	BYTE	W24
	BYTE		N48     Fn4 
	BYTE	W48
	BYTE		N24     Dn4 
	BYTE	W24
// 092   ----------------------------------------
	BYTE		        As3 
	BYTE	W24
	BYTE		N96     Cn4 
	BYTE	W72
// 093   ----------------------------------------
	BYTE	W24
	BYTE		N48     Ds4 
	BYTE	W48
	BYTE		        Fn4 
	BYTE	W24
// 094   ----------------------------------------
	BYTE	W24
	BYTE		        Gn4 
	BYTE	W48
	BYTE		N24     Fn4 
	BYTE	W24
// 095   ----------------------------------------
	BYTE		        Gn4 
	BYTE	W24
	BYTE		N48     Fn4 
	BYTE	W48
	BYTE		N24     Dn4 
	BYTE	W24
// 096   ----------------------------------------
	BYTE		        As3 
	BYTE	W24
	BYTE		TIE     Dn4 
	BYTE	W72
// 097   ----------------------------------------
	BYTE	W96
// 098   ----------------------------------------
	BYTE	W24
	BYTE		EOT   
	BYTE	W72
// 099   ----------------------------------------
	BYTE	W96
// 100   ----------------------------------------
	BYTE	W96
// 101   ----------------------------------------
	BYTE	W96
// 102   ----------------------------------------
	BYTE	W96
// 103   ----------------------------------------
	BYTE	W96
// 104   ----------------------------------------
	BYTE	W96
// 105   ----------------------------------------
	BYTE	W96
// 106   ----------------------------------------
	BYTE	PATT
	 POIN2	WarClouds0_1_026
// 107   ----------------------------------------
	BYTE	PATT
	 POIN2	WarClouds0_1_027
// 108   ----------------------------------------
	BYTE	PATT
	 POIN2	WarClouds0_1_026
// 109   ----------------------------------------
	BYTE	PATT
	 POIN2	WarClouds0_1_029
// 110   ----------------------------------------
	BYTE	PATT
	 POIN2	WarClouds0_1_030
// 111   ----------------------------------------
	BYTE	PATT
	 POIN2	WarClouds0_1_029
// 112   ----------------------------------------
	BYTE	PATT
	 POIN2	WarClouds0_1_029
// 113   ----------------------------------------
	BYTE	PATT
	 POIN2	WarClouds0_1_033
// 114   ----------------------------------------
	BYTE	PATT
	 POIN2	WarClouds0_1_034
// 115   ----------------------------------------
	BYTE	PATT
	 POIN2	WarClouds0_1_029
// 116   ----------------------------------------
	BYTE	PATT
	 POIN2	WarClouds0_1_030
// 117   ----------------------------------------
	BYTE	PATT
	 POIN2	WarClouds0_1_033
// 118   ----------------------------------------
	BYTE	PATT
	 POIN2	WarClouds0_1_033
// 119   ----------------------------------------
	BYTE	PATT
	 POIN2	WarClouds0_1_029
// 120   ----------------------------------------
	BYTE	PATT
	 POIN2	WarClouds0_1_040
// 121   ----------------------------------------
	BYTE	W96
// 122   ----------------------------------------
	BYTE	W22
	BYTE		EOT     Cn3 
	BYTE		        Dn3 
	BYTE		        Gn3 
	BYTE	W02
	BYTE		N92     Gn2   v108
	BYTE		N92     As2 
	BYTE		N92     Dn3 
	BYTE	W72
// 123   ----------------------------------------
	BYTE	PATT
	 POIN2	WarClouds0_1_027
// 124   ----------------------------------------
	BYTE	PATT
	 POIN2	WarClouds0_1_026
// 125   ----------------------------------------
	BYTE	PATT
	 POIN2	WarClouds0_1_029
// 126   ----------------------------------------
	BYTE	PATT
	 POIN2	WarClouds0_1_030
// 127   ----------------------------------------
	BYTE	PATT
	 POIN2	WarClouds0_1_029
// 128   ----------------------------------------
	BYTE	PATT
	 POIN2	WarClouds0_1_029
// 129   ----------------------------------------
	BYTE	PATT
	 POIN2	WarClouds0_1_033
// 130   ----------------------------------------
	BYTE	PATT
	 POIN2	WarClouds0_1_034
// 131   ----------------------------------------
	BYTE	PATT
	 POIN2	WarClouds0_1_029
// 132   ----------------------------------------
	BYTE	PATT
	 POIN2	WarClouds0_1_030
// 133   ----------------------------------------
	BYTE	PATT
	 POIN2	WarClouds0_1_033
// 134   ----------------------------------------
	BYTE	PATT
	 POIN2	WarClouds0_1_033
// 135   ----------------------------------------
	BYTE	PATT
	 POIN2	WarClouds0_1_029
// 136   ----------------------------------------
	BYTE	W24
	BYTE		TIE     Cn3   v108
	BYTE		N92     Ds3 
	BYTE		N92     Gn3 
	BYTE	W72
// 137   ----------------------------------------
	BYTE	W24
	BYTE		        Fn3 
	BYTE		N92     An3 
	BYTE	W72
// 138   ----------------------------------------
	BYTE	W22
	BYTE		EOT     Cn3 
	BYTE	W02
	BYTE		N92     As2 
	BYTE		N92     Dn3 
	BYTE		N92     Gn3 
	BYTE	W72
// 139   ----------------------------------------
	BYTE	PATT
	 POIN2	WarClouds0_1_029
// 140   ----------------------------------------
	BYTE	PATT
	 POIN2	WarClouds0_1_040
// 141   ----------------------------------------
	BYTE	W96
// 142   ----------------------------------------
	BYTE	W22
	BYTE		EOT     Cn3 
	BYTE		        Dn3 
	BYTE		        Gn3 
	BYTE	W02
	BYTE	GoTo
	 POIN2	WarClouds0_1_B1
WarClouds0_1_B2:
	BYTE	W24
	BYTE		MOD     0
	BYTE	W48
// 143   ----------------------------------------
	BYTE	W06
	BYTE	FINE

//**************** Track 2 (Midi-Chn.2) ****************//

WarClouds0_2:
	BYTE	KEYSH   WarClouds0_key+0
// 000   ----------------------------------------
	BYTE		VOICE   48
	BYTE		PAN     c_v-8
	BYTE		MOD     0
	BYTE		VOL     51*WarClouds0_mvl/mxv
	BYTE		BEND    c_v+0
	BYTE	W23
	BYTE	W72
	BYTE	W01
// 001   ----------------------------------------
	BYTE	W96
// 002   ----------------------------------------
	BYTE	W96
// 003   ----------------------------------------
	BYTE	W96
// 004   ----------------------------------------
	BYTE	W96
// 005   ----------------------------------------
	BYTE	W96
// 006   ----------------------------------------
	BYTE	W96
// 007   ----------------------------------------
	BYTE	W96
// 008   ----------------------------------------
	BYTE	W96
// 009   ----------------------------------------
	BYTE	W96
// 010   ----------------------------------------
	BYTE	W96
// 011   ----------------------------------------
	BYTE	W22
	BYTE	W02
	BYTE		TIE     Gn4   v112
	BYTE	W01
	BYTE	W03
	BYTE	W03
	BYTE	W03
	BYTE	W03
	BYTE	W03
	BYTE	W03
	BYTE	W03
	BYTE	W03
	BYTE	W03
	BYTE	W03
	BYTE	W03
	BYTE	W03
	BYTE	W03
	BYTE	W03
	BYTE	W03
	BYTE	W03
	BYTE	W03
	BYTE	W03
	BYTE	W03
	BYTE	W03
	BYTE	W03
	BYTE	W03
	BYTE	W03
	BYTE	W02
// 012   ----------------------------------------
	BYTE	W01
	BYTE	W03
	BYTE	W03
	BYTE	W03
	BYTE	W03
	BYTE	W03
	BYTE	W03
	BYTE	W03
	BYTE	W02
	BYTE	W72
// 013   ----------------------------------------
	BYTE	W23
	BYTE		EOT   
	BYTE	W01
	BYTE		N92     Fn4   v108
	BYTE	W72
// 014   ----------------------------------------
	BYTE	W24
	BYTE		        Dn4 
	BYTE	W72
// 015   ----------------------------------------
	BYTE	W24
	BYTE		        Cn4 
	BYTE	W72
// 016   ----------------------------------------
	BYTE	W24
	BYTE		        As3 
	BYTE	W72
// 017   ----------------------------------------
	BYTE	W24
	BYTE		        An3 
	BYTE	W72
// 018   ----------------------------------------
	BYTE	W24
	BYTE		TIE     Gn3 
	BYTE	W72
// 019   ----------------------------------------
	BYTE	W96
// 020   ----------------------------------------
	BYTE	W23
	BYTE		EOT   
	BYTE	W72
	BYTE	W01
// 021   ----------------------------------------
	BYTE	W96
// 022   ----------------------------------------
	BYTE	W96
// 023   ----------------------------------------
	BYTE	W96
// 024   ----------------------------------------
	BYTE	W96
// 025   ----------------------------------------
	BYTE	W96
// 026   ----------------------------------------
	BYTE	W24
	BYTE		N92     As3   v096
	BYTE		N92     Dn4 
	BYTE	W72
// 027   ----------------------------------------
WarClouds0_2_027:
	BYTE	W24
	BYTE		N44     Dn4   v096
	BYTE		N44     Fn4 
	BYTE	W48
	BYTE		        Cn4 
	BYTE		N44     Ds4 
	BYTE	W24
	BYTE	PEND
// 028   ----------------------------------------
WarClouds0_2_028:
	BYTE	W24
	BYTE		N44     As3   v096
	BYTE		N44     Dn4 
	BYTE	W48
	BYTE		N44   
	BYTE		N44     Gn4 
	BYTE	W24
	BYTE	PEND
// 029   ----------------------------------------
WarClouds0_2_029:
	BYTE	W24
	BYTE		N44     Fn4   v096
	BYTE		N44     An4 
	BYTE	W48
	BYTE		N44   
	BYTE		N44     Cn5 
	BYTE	W24
	BYTE	PEND
// 030   ----------------------------------------
WarClouds0_2_030:
	BYTE	W24
	BYTE		N92     Gn4   v096
	BYTE		N92     As4 
	BYTE	W72
	BYTE	PEND
// 031   ----------------------------------------
WarClouds0_2_031:
	BYTE	W24
	BYTE		N92     An4   v096
	BYTE		N92     Cn5 
	BYTE	W72
	BYTE	PEND
// 032   ----------------------------------------
	BYTE	PATT
	 POIN2	WarClouds0_2_031
// 033   ----------------------------------------
WarClouds0_2_033:
	BYTE	W24
	BYTE		N44     Gn4   v096
	BYTE		N92     As4 
	BYTE	W48
	BYTE		N44     Dn5 
	BYTE	W24
	BYTE	PEND
// 034   ----------------------------------------
WarClouds0_2_034:
	BYTE	W24
	BYTE		N92     Gn4   v096
	BYTE		N92     Ds5 
	BYTE	W72
	BYTE	PEND
// 035   ----------------------------------------
WarClouds0_2_035:
	BYTE	W24
	BYTE		N92     Ds4   v096
	BYTE		N92     Cn5 
	BYTE	W72
	BYTE	PEND
// 036   ----------------------------------------
WarClouds0_2_036:
	BYTE	W24
	BYTE		N92     Gn4   v096
	BYTE		N92     Dn5 
	BYTE	W72
	BYTE	PEND
// 037   ----------------------------------------
WarClouds0_2_037:
	BYTE	W24
	BYTE		N92     Dn4   v096
	BYTE		N92     Gn4 
	BYTE	W72
	BYTE	PEND
// 038   ----------------------------------------
	BYTE	PATT
	 POIN2	WarClouds0_2_037
// 039   ----------------------------------------
WarClouds0_2_039:
	BYTE	W24
	BYTE		N92     Fn4   v096
	BYTE		N92     An4 
	BYTE	W72
	BYTE	PEND
// 040   ----------------------------------------
WarClouds0_2_040:
	BYTE	W24
	BYTE		TIE     Cn4   v096
	BYTE		TIE     Dn4 
	BYTE		TIE     Gn4 
	BYTE	W72
	BYTE	PEND
// 041   ----------------------------------------
	BYTE	W96
// 042   ----------------------------------------
	BYTE	W23
	BYTE		EOT     Cn4 
	BYTE		        Dn4 
	BYTE		        Gn4 
	BYTE	W01
	BYTE		N92     As3   v072
	BYTE		N92     Dn4 
	BYTE	W72
// 043   ----------------------------------------
	BYTE	W24
	BYTE		N44   
	BYTE		N44     Fn4 
	BYTE	W48
	BYTE		        Cn4 
	BYTE		N44     Ds4 
	BYTE	W24
// 044   ----------------------------------------
	BYTE	W24
	BYTE		        As3 
	BYTE		N44     Dn4 
	BYTE	W48
	BYTE		N44   
	BYTE		N44     Gn4 
	BYTE	W24
// 045   ----------------------------------------
	BYTE	W24
	BYTE		        Fn4 
	BYTE		N44     An4 
	BYTE	W48
	BYTE		N44   
	BYTE		N44     Cn5 
	BYTE	W24
// 046   ----------------------------------------
	BYTE	W24
	BYTE		N92     Gn4 
	BYTE		N92     As4 
	BYTE	W72
// 047   ----------------------------------------
WarClouds0_2_047:
	BYTE	W24
	BYTE		N92     An4   v072
	BYTE		N92     Cn5 
	BYTE	W72
	BYTE	PEND
// 048   ----------------------------------------
	BYTE	PATT
	 POIN2	WarClouds0_2_047
// 049   ----------------------------------------
	BYTE	W24
	BYTE		N44     Gn4   v072
	BYTE		N92     As4 
	BYTE	W48
	BYTE		N44     Dn5 
	BYTE	W24
// 050   ----------------------------------------
	BYTE	W24
	BYTE		N92     Gn4 
	BYTE		N92     Ds5 
	BYTE	W72
// 051   ----------------------------------------
	BYTE	W24
	BYTE		        Ds4 
	BYTE		N92     Cn5 
	BYTE	W72
// 052   ----------------------------------------
	BYTE	W24
	BYTE		        Gn4 
	BYTE		N92     Dn5 
	BYTE	W72
// 053   ----------------------------------------
WarClouds0_2_053:
	BYTE	W24
	BYTE		N92     Dn4   v072
	BYTE		N92     Gn4 
	BYTE	W72
	BYTE	PEND
// 054   ----------------------------------------
	BYTE	PATT
	 POIN2	WarClouds0_2_053
// 055   ----------------------------------------
	BYTE	W24
	BYTE		N92     Fn4   v072
	BYTE		N92     An4 
	BYTE	W72
// 056   ----------------------------------------
	BYTE	W24
	BYTE		TIE     Cn4 
	BYTE		TIE     Dn4 
	BYTE		TIE     Gn4 
	BYTE	W72
// 057   ----------------------------------------
	BYTE	W96
// 058   ----------------------------------------
	BYTE	W23
	BYTE		EOT     Cn4 
	BYTE		        Dn4 
	BYTE		        Gn4 
	BYTE	W01
WarClouds0_2_B1:
	BYTE	W72
// 059   ----------------------------------------
	BYTE	W96
// 060   ----------------------------------------
	BYTE	W96
// 061   ----------------------------------------
	BYTE	W72
	BYTE	W01
	BYTE	W23
// 062   ----------------------------------------
	BYTE	W22
	BYTE	W02
	BYTE		TIE     Gn4   v080
	BYTE	W06
	BYTE	W04
	BYTE	W03
	BYTE	W04
	BYTE	W04
	BYTE	W04
	BYTE	W04
	BYTE	W03
	BYTE	W04
	BYTE	W04
	BYTE	W04
	BYTE	W03
	BYTE	W04
	BYTE	W04
	BYTE	W04
	BYTE	W03
	BYTE	W04
	BYTE	W04
	BYTE	W02
// 063   ----------------------------------------
	BYTE	W02
	BYTE	W04
	BYTE	W03
	BYTE	W04
	BYTE	W04
	BYTE	W04
	BYTE	W03
	BYTE	W04
	BYTE	W04
	BYTE	W04
	BYTE	W04
	BYTE	W03
	BYTE	W04
	BYTE	W04
	BYTE	W04
	BYTE	W03
	BYTE	W04
	BYTE	W04
	BYTE	W04
	BYTE	W04
	BYTE	W03
	BYTE	W04
	BYTE	W04
	BYTE	W04
	BYTE	W03
	BYTE	W04
// 064   ----------------------------------------
	BYTE	W04
	BYTE	W04
	BYTE	W04
	BYTE	W03
	BYTE	W04
	BYTE	W04
	BYTE		EOT   
	BYTE	W01
	BYTE		N92     Dn5 
	BYTE	W72
// 065   ----------------------------------------
	BYTE	W24
	BYTE		        Cn5 
	BYTE	W07
	BYTE	W04
	BYTE	W03
	BYTE	W04
	BYTE	W04
	BYTE	W03
	BYTE	W04
	BYTE	W04
	BYTE	W03
	BYTE	W04
	BYTE	W04
	BYTE	W03
	BYTE	W04
	BYTE	W04
	BYTE	W03
	BYTE	W04
	BYTE	W04
	BYTE	W03
	BYTE	W03
// 066   ----------------------------------------
	BYTE	W01
	BYTE	W04
	BYTE	W03
	BYTE	W04
	BYTE	W04
	BYTE	W03
	BYTE	W04
	BYTE	W01
	BYTE		N44     Ds4   v096
	BYTE	W03
	BYTE	W03
	BYTE	W03
	BYTE	W03
	BYTE	W03
	BYTE	W03
	BYTE	W03
	BYTE	W03
	BYTE	W03
	BYTE	W03
	BYTE	W03
	BYTE	W03
	BYTE	W03
	BYTE	W03
	BYTE	W03
	BYTE	W03
	BYTE		N23     Dn4 
	BYTE	W03
	BYTE	W03
	BYTE	W03
	BYTE	W03
	BYTE	W03
	BYTE	W03
	BYTE	W03
	BYTE	W03
// 067   ----------------------------------------
	BYTE		        Gn3 
	BYTE	W03
	BYTE	W03
	BYTE	W03
	BYTE	W03
	BYTE	W03
	BYTE	W03
	BYTE	W03
	BYTE	W03
	BYTE		N44     Ds4 
	BYTE	W48
	BYTE		N23     Dn4 
	BYTE	W24
// 068   ----------------------------------------
WarClouds0_2_068:
	BYTE		N23     Gn3   v096
	BYTE	W24
	BYTE		N44     Ds4 
	BYTE	W48
	BYTE		N23     Dn4 
	BYTE	W24
	BYTE	PEND
// 069   ----------------------------------------
WarClouds0_2_069:
	BYTE		N23     Gs3   v096
	BYTE	W24
	BYTE		N44     Ds4 
	BYTE	W48
	BYTE		N23     Dn4 
	BYTE	W24
	BYTE	PEND
// 070   ----------------------------------------
WarClouds0_2_070:
	BYTE		N23     Gs3   v096
	BYTE	W24
	BYTE		N44     Fn4 
	BYTE	W48
	BYTE		N23     Ds4 
	BYTE	W24
	BYTE	PEND
// 071   ----------------------------------------
WarClouds0_2_071:
	BYTE		N23     Dn4   v096
	BYTE	W24
	BYTE		N44     Fn4 
	BYTE	W48
	BYTE		N23     Ds4 
	BYTE	W24
	BYTE	PEND
// 072   ----------------------------------------
WarClouds0_2_072:
	BYTE		N23     Fn4   v096
	BYTE	W24
	BYTE		N44     Gs4 
	BYTE	W48
	BYTE		N23     Gn4 
	BYTE	W24
	BYTE	PEND
// 073   ----------------------------------------
	BYTE	PATT
	 POIN2	WarClouds0_2_072
// 074   ----------------------------------------
	BYTE		N23     Fn4   v096
	BYTE	W24
	BYTE		N44     Ds4 
	BYTE	W48
	BYTE		N23     Dn4 
	BYTE	W24
// 075   ----------------------------------------
	BYTE	PATT
	 POIN2	WarClouds0_2_068
// 076   ----------------------------------------
	BYTE	PATT
	 POIN2	WarClouds0_2_068
// 077   ----------------------------------------
	BYTE	PATT
	 POIN2	WarClouds0_2_069
// 078   ----------------------------------------
	BYTE	PATT
	 POIN2	WarClouds0_2_070
// 079   ----------------------------------------
	BYTE	PATT
	 POIN2	WarClouds0_2_071
// 080   ----------------------------------------
	BYTE	PATT
	 POIN2	WarClouds0_2_072
// 081   ----------------------------------------
	BYTE		N23     Fn4   v096
	BYTE	W24
	BYTE		N44     Gs4 
	BYTE	W48
	BYTE		N23     As4 
	BYTE	W24
// 082   ----------------------------------------
	BYTE		        Cn5 
	BYTE	W24
	BYTE		N44     Dn5 
	BYTE	W48
	BYTE		N23     Cn5 
	BYTE	W24
// 083   ----------------------------------------
	BYTE		        Gn4 
	BYTE	W24
	BYTE		N44     Dn5 
	BYTE	W48
	BYTE		N23     Cn5 
	BYTE	W24
// 084   ----------------------------------------
	BYTE		        Gn4 
	BYTE	W24
	BYTE		N44     Ds5 
	BYTE	W48
	BYTE		N23     Dn5 
	BYTE	W24
// 085   ----------------------------------------
	BYTE		        Gs4 
	BYTE	W24
	BYTE		N44     Ds5 
	BYTE	W48
	BYTE		N23     Dn5 
	BYTE	W24
// 086   ----------------------------------------
	BYTE		        Ds5 
	BYTE	W24
	BYTE		N44     Fn5   v120
	BYTE	W48
	BYTE		N23     Ds5 
	BYTE	W24
// 087   ----------------------------------------
	BYTE		        Dn5 
	BYTE	W24
	BYTE		N44     Fn5 
	BYTE	W48
	BYTE		N23     Ds5 
	BYTE	W24
// 088   ----------------------------------------
	BYTE		        Fn5 
	BYTE	W24
	BYTE		N44   
	BYTE	W48
	BYTE		N23     Ds5 
	BYTE	W24
// 089   ----------------------------------------
	BYTE		        As4 
	BYTE	W24
	BYTE		N44     Dn5 
	BYTE	W48
	BYTE		N23     Cn4 
	BYTE	W24
// 090   ----------------------------------------
	BYTE		        Dn4 
	BYTE	W24
	BYTE		N44     Ds4 
	BYTE	W48
	BYTE		N23     Dn4 
	BYTE	W24
// 091   ----------------------------------------
	BYTE		        Ds4 
	BYTE	W24
	BYTE		N44     Fn4 
	BYTE	W48
	BYTE		N23     Dn4 
	BYTE	W24
// 092   ----------------------------------------
	BYTE		        As3 
	BYTE	W24
	BYTE		N92     Cn4 
	BYTE	W72
// 093   ----------------------------------------
	BYTE	W24
	BYTE		N44     Ds4 
	BYTE	W48
	BYTE		        Fn4 
	BYTE	W24
// 094   ----------------------------------------
	BYTE	W24
	BYTE		        Gn4 
	BYTE	W48
	BYTE		N23     Fn4 
	BYTE	W24
// 095   ----------------------------------------
	BYTE		        Gn4 
	BYTE	W24
	BYTE		N44     Fn4 
	BYTE	W48
	BYTE		N23     Dn4 
	BYTE	W24
// 096   ----------------------------------------
	BYTE		        As3 
	BYTE	W24
	BYTE		TIE     Dn4 
	BYTE	W72
// 097   ----------------------------------------
	BYTE	W96
// 098   ----------------------------------------
	BYTE	W23
	BYTE		EOT   
	BYTE	W01
	BYTE		N05     Gn3   v096
	BYTE	W12
	BYTE		N23     Cn4 
	BYTE	W24
	BYTE		N05     Fn3 
	BYTE	W12
	BYTE		N32     As3 
	BYTE	W24
// 099   ----------------------------------------
WarClouds0_2_099:
	BYTE	W12
	BYTE		N05     Gn3   v096
	BYTE	W12
	BYTE		N23     Cn4 
	BYTE	W24
	BYTE		N05     Fn3 
	BYTE	W12
	BYTE		        As3 
	BYTE	W12
	BYTE		N44     Cn4 
	BYTE	W24
	BYTE	PEND
// 100   ----------------------------------------
WarClouds0_2_100:
	BYTE	W24
	BYTE		N05     Gn3   v096
	BYTE	W12
	BYTE		N23     Cn4 
	BYTE	W24
	BYTE		N05     Fn3 
	BYTE	W12
	BYTE		N32     As3 
	BYTE	W24
	BYTE	PEND
// 101   ----------------------------------------
WarClouds0_2_101:
	BYTE	W12
	BYTE		N05     Gn3   v096
	BYTE	W12
	BYTE		N23     Cn4 
	BYTE	W24
	BYTE		N05     Fn3 
	BYTE	W12
	BYTE		        As3 
	BYTE	W12
	BYTE		        Cn4   v108
	BYTE	W12
	BYTE		N32     Fn4   v096
	BYTE	W12
	BYTE	PEND
// 102   ----------------------------------------
	BYTE	PATT
	 POIN2	WarClouds0_2_100
// 103   ----------------------------------------
	BYTE	PATT
	 POIN2	WarClouds0_2_099
// 104   ----------------------------------------
	BYTE	PATT
	 POIN2	WarClouds0_2_100
// 105   ----------------------------------------
	BYTE	PATT
	 POIN2	WarClouds0_2_101
// 106   ----------------------------------------
	BYTE	W22
	BYTE	W01
	BYTE	W01
	BYTE		N92     As3   v096
	BYTE		N92     Dn4 
	BYTE	W72
// 107   ----------------------------------------
	BYTE	PATT
	 POIN2	WarClouds0_2_027
// 108   ----------------------------------------
	BYTE	PATT
	 POIN2	WarClouds0_2_028
// 109   ----------------------------------------
	BYTE	PATT
	 POIN2	WarClouds0_2_029
// 110   ----------------------------------------
	BYTE	PATT
	 POIN2	WarClouds0_2_030
// 111   ----------------------------------------
	BYTE	PATT
	 POIN2	WarClouds0_2_031
// 112   ----------------------------------------
	BYTE	PATT
	 POIN2	WarClouds0_2_031
// 113   ----------------------------------------
	BYTE	PATT
	 POIN2	WarClouds0_2_033
// 114   ----------------------------------------
	BYTE	PATT
	 POIN2	WarClouds0_2_034
// 115   ----------------------------------------
	BYTE	PATT
	 POIN2	WarClouds0_2_035
// 116   ----------------------------------------
	BYTE	PATT
	 POIN2	WarClouds0_2_036
// 117   ----------------------------------------
	BYTE	PATT
	 POIN2	WarClouds0_2_037
// 118   ----------------------------------------
	BYTE	PATT
	 POIN2	WarClouds0_2_037
// 119   ----------------------------------------
	BYTE	PATT
	 POIN2	WarClouds0_2_039
// 120   ----------------------------------------
	BYTE	PATT
	 POIN2	WarClouds0_2_040
// 121   ----------------------------------------
	BYTE	W96
// 122   ----------------------------------------
	BYTE	W23
	BYTE		EOT     Cn4 
	BYTE		        Dn4 
	BYTE		        Gn4 
	BYTE	W72
	BYTE	W01
// 123   ----------------------------------------
	BYTE	W96
// 124   ----------------------------------------
	BYTE	W96
// 125   ----------------------------------------
	BYTE	W96
// 126   ----------------------------------------
	BYTE	W96
// 127   ----------------------------------------
	BYTE	W96
// 128   ----------------------------------------
	BYTE	W96
// 129   ----------------------------------------
	BYTE	W96
// 130   ----------------------------------------
	BYTE	W96
// 131   ----------------------------------------
	BYTE	W96
// 132   ----------------------------------------
	BYTE	W96
// 133   ----------------------------------------
	BYTE	W96
// 134   ----------------------------------------
	BYTE	W96
// 135   ----------------------------------------
	BYTE	W19
	BYTE	W03
	BYTE	W02
	BYTE		N92     Cn4   v096
	BYTE		N92     Fn4 
	BYTE		N92     An4 
	BYTE	W01
	BYTE	W03
	BYTE	W03
	BYTE	W03
	BYTE	W03
	BYTE	W03
	BYTE	W03
	BYTE	W03
	BYTE	W03
	BYTE	W03
	BYTE	W03
	BYTE	W03
	BYTE	W03
	BYTE	W03
	BYTE	W03
	BYTE	W03
	BYTE	W03
	BYTE	W03
	BYTE	W03
	BYTE	W03
	BYTE	W03
	BYTE	W03
	BYTE	W03
	BYTE	W03
	BYTE	W02
// 136   ----------------------------------------
	BYTE	W01
	BYTE	W03
	BYTE	W03
	BYTE	W03
	BYTE	W03
	BYTE	W01
	BYTE	W01
	BYTE	W02
	BYTE	W01
	BYTE	W02
	BYTE	W01
	BYTE	W02
	BYTE	W01
	BYTE		        Ds4 
	BYTE		N92     Gn4 
	BYTE		N92     As4 
	BYTE	W72
// 137   ----------------------------------------
	BYTE	W24
	BYTE		        Fn4 
	BYTE		N92     An4 
	BYTE		N92     Cn5 
	BYTE	W72
// 138   ----------------------------------------
	BYTE	W24
	BYTE		        Gn4 
	BYTE		N92     As4 
	BYTE		N92     Dn5 
	BYTE	W72
// 139   ----------------------------------------
	BYTE	W24
	BYTE		N44     Fn4 
	BYTE		N44     An4 
	BYTE		N44     Cn5 
	BYTE	W48
	BYTE		        Cn4 
	BYTE		N44     Fn4 
	BYTE		N44     An4 
	BYTE	W24
// 140   ----------------------------------------
	BYTE	PATT
	 POIN2	WarClouds0_2_040
// 141   ----------------------------------------
	BYTE	W96
// 142   ----------------------------------------
	BYTE	W23
	BYTE		EOT     Cn4 
	BYTE		        Dn4 
	BYTE		        Gn4 
	BYTE	W01
	BYTE	GoTo
	 POIN2	WarClouds0_2_B1
WarClouds0_2_B2:
	BYTE	W72
// 143   ----------------------------------------
	BYTE	W06
	BYTE	FINE

//**************** Track 3 (Midi-Chn.3) ****************//

WarClouds0_3:
	BYTE	KEYSH   WarClouds0_key+0
// 000   ----------------------------------------
	BYTE		VOICE   41
	BYTE		PAN     c_v-1
	BYTE		MOD     0
	BYTE		VOL     46*WarClouds0_mvl/mxv
	BYTE		BEND    c_v+0
	BYTE	W23
	BYTE	W72
	BYTE	W01
// 001   ----------------------------------------
	BYTE	W96
// 002   ----------------------------------------
	BYTE	W96
// 003   ----------------------------------------
	BYTE	W96
// 004   ----------------------------------------
	BYTE	W96
// 005   ----------------------------------------
	BYTE	W96
// 006   ----------------------------------------
	BYTE	W96
// 007   ----------------------------------------
	BYTE	W96
// 008   ----------------------------------------
	BYTE	W96
// 009   ----------------------------------------
	BYTE	W96
// 010   ----------------------------------------
	BYTE	W96
// 011   ----------------------------------------
	BYTE	W96
// 012   ----------------------------------------
	BYTE	W96
// 013   ----------------------------------------
	BYTE	W96
// 014   ----------------------------------------
	BYTE	W96
// 015   ----------------------------------------
	BYTE	W96
// 016   ----------------------------------------
	BYTE	W96
// 017   ----------------------------------------
	BYTE	W96
// 018   ----------------------------------------
	BYTE	W96
// 019   ----------------------------------------
	BYTE	W96
// 020   ----------------------------------------
	BYTE	W96
// 021   ----------------------------------------
	BYTE	W96
// 022   ----------------------------------------
	BYTE	W96
// 023   ----------------------------------------
	BYTE	W96
// 024   ----------------------------------------
	BYTE	W96
// 025   ----------------------------------------
	BYTE	W96
// 026   ----------------------------------------
	BYTE	W09
	BYTE	W15
	BYTE		N92     As3   v092
	BYTE		N92     Dn4 
	BYTE	W72
// 027   ----------------------------------------
WarClouds0_3_027:
	BYTE	W24
	BYTE		N44     Dn4   v092
	BYTE		N44     Fn4 
	BYTE	W48
	BYTE		        Cn4 
	BYTE		N44     Ds4 
	BYTE	W24
	BYTE	PEND
// 028   ----------------------------------------
WarClouds0_3_028:
	BYTE	W24
	BYTE		N44     As3   v092
	BYTE		N44     Dn4 
	BYTE	W48
	BYTE		N44   
	BYTE		N44     Gn4 
	BYTE	W24
	BYTE	PEND
// 029   ----------------------------------------
WarClouds0_3_029:
	BYTE	W24
	BYTE		N44     Fn4   v092
	BYTE		N44     An4 
	BYTE	W48
	BYTE		N44   
	BYTE		N44     Cn5 
	BYTE	W24
	BYTE	PEND
// 030   ----------------------------------------
WarClouds0_3_030:
	BYTE	W24
	BYTE		N92     Gn4   v080
	BYTE		N92     As4   v104
	BYTE	W72
	BYTE	PEND
// 031   ----------------------------------------
WarClouds0_3_031:
	BYTE	W24
	BYTE		N92     An4   v088
	BYTE		N92     Cn5 
	BYTE	W72
	BYTE	PEND
// 032   ----------------------------------------
	BYTE	PATT
	 POIN2	WarClouds0_3_031
// 033   ----------------------------------------
WarClouds0_3_033:
	BYTE	W24
	BYTE		N92     Gn4   v088
	BYTE		N92     As4 
	BYTE	W72
	BYTE	PEND
// 034   ----------------------------------------
WarClouds0_3_034:
	BYTE	W24
	BYTE		N92     Dn4   v096
	BYTE		N92     Gn4 
	BYTE	W72
	BYTE	PEND
// 035   ----------------------------------------
WarClouds0_3_035:
	BYTE	W24
	BYTE		N92     Fn4   v096
	BYTE		N92     An4 
	BYTE	W72
	BYTE	PEND
// 036   ----------------------------------------
WarClouds0_3_036:
	BYTE	W24
	BYTE		TIE     Gn4   v096
	BYTE		TIE     As4 
	BYTE	W72
	BYTE	PEND
// 037   ----------------------------------------
	BYTE	W96
// 038   ----------------------------------------
	BYTE	W23
	BYTE		EOT     Gn4 
	BYTE		        As4 
	BYTE	W01
	BYTE		N92     Dn4 
	BYTE		N92     Gn4 
	BYTE	W72
// 039   ----------------------------------------
	BYTE	PATT
	 POIN2	WarClouds0_3_035
// 040   ----------------------------------------
WarClouds0_3_040:
	BYTE	W24
	BYTE		TIE     Cn4   v096
	BYTE		TIE     Dn4 
	BYTE		TIE     Gn4 
	BYTE	W72
	BYTE	PEND
// 041   ----------------------------------------
	BYTE	W96
// 042   ----------------------------------------
	BYTE	W23
	BYTE		EOT     Cn4 
	BYTE		        Dn4 
	BYTE		        Gn4 
	BYTE	W01
	BYTE		N92     As3   v092
	BYTE		N92     Dn4 
	BYTE	W72
// 043   ----------------------------------------
	BYTE	PATT
	 POIN2	WarClouds0_3_027
// 044   ----------------------------------------
	BYTE	PATT
	 POIN2	WarClouds0_3_028
// 045   ----------------------------------------
	BYTE	PATT
	 POIN2	WarClouds0_3_029
// 046   ----------------------------------------
	BYTE	PATT
	 POIN2	WarClouds0_3_030
// 047   ----------------------------------------
	BYTE	PATT
	 POIN2	WarClouds0_3_031
// 048   ----------------------------------------
	BYTE	PATT
	 POIN2	WarClouds0_3_031
// 049   ----------------------------------------
	BYTE	PATT
	 POIN2	WarClouds0_3_033
// 050   ----------------------------------------
	BYTE	PATT
	 POIN2	WarClouds0_3_034
// 051   ----------------------------------------
	BYTE	PATT
	 POIN2	WarClouds0_3_035
// 052   ----------------------------------------
	BYTE	PATT
	 POIN2	WarClouds0_3_036
// 053   ----------------------------------------
	BYTE	W96
// 054   ----------------------------------------
	BYTE	W23
	BYTE		EOT     Gn4 
	BYTE		        As4 
	BYTE	W01
	BYTE		N92     Dn4   v096
	BYTE		N92     Gn4 
	BYTE	W72
// 055   ----------------------------------------
	BYTE	PATT
	 POIN2	WarClouds0_3_035
// 056   ----------------------------------------
	BYTE	PATT
	 POIN2	WarClouds0_3_040
// 057   ----------------------------------------
	BYTE	W96
// 058   ----------------------------------------
	BYTE	W23
	BYTE		EOT     Cn4 
	BYTE		        Dn4 
	BYTE		        Gn4 
	BYTE	W01
WarClouds0_3_B1:
	BYTE	W72
// 059   ----------------------------------------
	BYTE	W96
// 060   ----------------------------------------
	BYTE	W96
// 061   ----------------------------------------
	BYTE	W96
// 062   ----------------------------------------
	BYTE	W96
// 063   ----------------------------------------
	BYTE	W96
// 064   ----------------------------------------
	BYTE	W96
// 065   ----------------------------------------
	BYTE	W18
	BYTE	W01
	BYTE	W01
	BYTE	W01
	BYTE	W01
	BYTE	W02
	BYTE		TIE     Cn5   v120
	BYTE	W01
	BYTE	W03
	BYTE	W03
	BYTE	W03
	BYTE	W03
	BYTE	W03
	BYTE	W03
	BYTE	W03
	BYTE	W03
	BYTE	W03
	BYTE	W03
	BYTE	W03
	BYTE	W03
	BYTE	W03
	BYTE	W03
	BYTE	W03
	BYTE	W03
	BYTE	W03
	BYTE	W03
	BYTE	W03
	BYTE	W03
	BYTE	W03
	BYTE	W03
	BYTE	W03
	BYTE	W02
// 066   ----------------------------------------
	BYTE	W01
	BYTE	W03
	BYTE	W03
	BYTE	W03
	BYTE	W03
	BYTE	W03
	BYTE	W03
	BYTE	W03
	BYTE	W02
	BYTE	W03
	BYTE	W03
	BYTE	W03
	BYTE	W03
	BYTE	W03
	BYTE	W03
	BYTE	W03
	BYTE	W03
	BYTE	W03
	BYTE	W03
	BYTE	W03
	BYTE	W03
	BYTE	W03
	BYTE	W03
	BYTE	W03
	BYTE	W03
	BYTE	W03
	BYTE	W03
	BYTE	W03
	BYTE	W03
	BYTE	W03
	BYTE	W03
	BYTE	W03
	BYTE	W03
// 067   ----------------------------------------
	BYTE	W03
	BYTE	W03
	BYTE	W03
	BYTE	W03
	BYTE	W03
	BYTE	W03
	BYTE	W03
	BYTE	W02
	BYTE		EOT   
	BYTE	W01
	BYTE	W72
// 068   ----------------------------------------
	BYTE	W44
	BYTE	W01
	BYTE	W48
	BYTE	W03
// 069   ----------------------------------------
	BYTE	W96
// 070   ----------------------------------------
	BYTE	W96
// 071   ----------------------------------------
	BYTE	W96
// 072   ----------------------------------------
	BYTE	W96
// 073   ----------------------------------------
	BYTE	W96
// 074   ----------------------------------------
	BYTE	W96
// 075   ----------------------------------------
	BYTE	W96
// 076   ----------------------------------------
	BYTE	W96
// 077   ----------------------------------------
	BYTE	W96
// 078   ----------------------------------------
	BYTE	W96
// 079   ----------------------------------------
	BYTE	W96
// 080   ----------------------------------------
	BYTE	W96
// 081   ----------------------------------------
	BYTE	W96
// 082   ----------------------------------------
	BYTE	W24
	BYTE		N05     Gn4   v088
	BYTE		N05     Gn5 
	BYTE	W24
	BYTE		        Gn4 
	BYTE		N05     Gn5 
	BYTE	W24
	BYTE		        Gn4 
	BYTE		N05     Gn5 
	BYTE	W24
// 083   ----------------------------------------
	BYTE		        Gn4 
	BYTE		N05     Gn5 
	BYTE	W24
	BYTE		        Gn4 
	BYTE		N05     Gn5 
	BYTE	W24
	BYTE		        Gn4 
	BYTE		N05     Gn5 
	BYTE	W24
	BYTE		        Gn4 
	BYTE		N05     Gn5 
	BYTE	W24
// 084   ----------------------------------------
	BYTE		        Gn4 
	BYTE		N05     Gn5 
	BYTE	W24
	BYTE		        Gs4 
	BYTE		N05     Gs5 
	BYTE	W24
	BYTE		        Gs4 
	BYTE		N05     Gs5 
	BYTE	W24
	BYTE		        Gs4 
	BYTE		N05     Gs5 
	BYTE	W24
// 085   ----------------------------------------
	BYTE		        Gs4 
	BYTE		N05     Gs5 
	BYTE	W24
	BYTE		        Gs4 
	BYTE		N05     Gs5 
	BYTE	W24
	BYTE		        Gs4 
	BYTE		N05     Gs5 
	BYTE	W24
	BYTE		        Gs4 
	BYTE		N05     Gs5 
	BYTE	W24
// 086   ----------------------------------------
	BYTE		        Gs4 
	BYTE		N05     Gs5 
	BYTE	W24
	BYTE		        As4 
	BYTE		N05     As5 
	BYTE	W24
	BYTE		        As4 
	BYTE		N05     As5 
	BYTE	W24
	BYTE		        As4 
	BYTE		N05     As5 
	BYTE	W24
// 087   ----------------------------------------
WarClouds0_3_087:
	BYTE		N05     As4   v088
	BYTE		N05     As5 
	BYTE	W24
	BYTE		        As4 
	BYTE		N05     As5 
	BYTE	W24
	BYTE		        As4 
	BYTE		N05     As5 
	BYTE	W24
	BYTE		        As4 
	BYTE		N05     As5 
	BYTE	W24
	BYTE	PEND
// 088   ----------------------------------------
	BYTE	PATT
	 POIN2	WarClouds0_3_087
// 089   ----------------------------------------
	BYTE	PATT
	 POIN2	WarClouds0_3_087
// 090   ----------------------------------------
	BYTE		N05     As4   v088
	BYTE		N05     As5 
	BYTE	W24
	BYTE		        Gs4 
	BYTE		N05     Gs5 
	BYTE	W24
	BYTE		        Gs4 
	BYTE		N05     Gs5 
	BYTE	W24
	BYTE		        Gs4 
	BYTE		N05     Gs5 
	BYTE	W24
// 091   ----------------------------------------
	BYTE		        Gs4 
	BYTE		N05     Gs5 
	BYTE	W24
	BYTE		        Gn4 
	BYTE		N05     Gn5 
	BYTE	W24
	BYTE		        Gn4 
	BYTE		N05     Gn5 
	BYTE	W24
	BYTE		        Gn4 
	BYTE		N05     Gn5 
	BYTE	W24
// 092   ----------------------------------------
	BYTE		        Gn4 
	BYTE		N05     Gn5 
	BYTE	W24
	BYTE		        Cn4   v116
	BYTE		N05     Cn5 
	BYTE	W24
	BYTE		        Cn4 
	BYTE		N05     Cn5 
	BYTE	W24
	BYTE		        Cn4 
	BYTE		N05     Cn5 
	BYTE	W24
// 093   ----------------------------------------
	BYTE		        Cn4 
	BYTE		N05     Cn5 
	BYTE	W24
	BYTE		        Fn4   v088
	BYTE		N05     Fn5 
	BYTE	W24
	BYTE		        Fn4 
	BYTE		N05     Fn5 
	BYTE	W24
	BYTE		        Fn4 
	BYTE		N05     Fn5 
	BYTE	W24
// 094   ----------------------------------------
	BYTE		        Fn4 
	BYTE		N05     Fn5 
	BYTE	W24
	BYTE		        Gn4 
	BYTE		N05     Gn5 
	BYTE	W24
	BYTE		        Gn4 
	BYTE		N05     Gn5 
	BYTE	W24
	BYTE		        Gn4 
	BYTE		N05     Gn5 
	BYTE	W24
// 095   ----------------------------------------
	BYTE		        Gn4 
	BYTE		N05     Gn5 
	BYTE	W24
	BYTE		        As4   v080
	BYTE		N05     As5 
	BYTE	W24
	BYTE		        As4 
	BYTE		N05     As5 
	BYTE	W24
	BYTE		        As4 
	BYTE		N05     As5 
	BYTE	W24
// 096   ----------------------------------------
	BYTE		        As4 
	BYTE		N05     As5 
	BYTE	W24
	BYTE		        Dn5   v064
	BYTE		N05     Dn6 
	BYTE	W24
	BYTE		        Dn5 
	BYTE		N05     Dn6 
	BYTE	W24
	BYTE		        Dn5 
	BYTE		N05     Dn6 
	BYTE	W24
// 097   ----------------------------------------
	BYTE		        Dn5 
	BYTE		N05     Dn6 
	BYTE	W24
	BYTE		        Dn5 
	BYTE		N05     Dn6 
	BYTE	W24
	BYTE		        Dn5 
	BYTE		N05     Dn6 
	BYTE	W24
	BYTE		        Dn5 
	BYTE		N05     Dn6 
	BYTE	W24
// 098   ----------------------------------------
	BYTE		        Dn5 
	BYTE		N05     Dn6 
	BYTE	W24
	BYTE		        Gn3   v096
	BYTE	W12
	BYTE		N23     Cn4 
	BYTE	W24
	BYTE		N05     Fn3 
	BYTE	W12
	BYTE		N32     As3 
	BYTE	W24
// 099   ----------------------------------------
WarClouds0_3_099:
	BYTE	W12
	BYTE		N05     Gn3   v096
	BYTE	W12
	BYTE		N23     Cn4 
	BYTE	W24
	BYTE		N05     Fn3 
	BYTE	W12
	BYTE		        As3 
	BYTE	W12
	BYTE		N44     Cn4 
	BYTE	W24
	BYTE	PEND
// 100   ----------------------------------------
WarClouds0_3_100:
	BYTE	W24
	BYTE		N05     Gn3   v096
	BYTE	W12
	BYTE		N23     Cn4 
	BYTE	W24
	BYTE		N05     Fn3 
	BYTE	W12
	BYTE		N32     As3 
	BYTE	W24
	BYTE	PEND
// 101   ----------------------------------------
WarClouds0_3_101:
	BYTE	W12
	BYTE		N05     Gn3   v096
	BYTE	W12
	BYTE		N23     Cn4 
	BYTE	W24
	BYTE		N05     Fn3 
	BYTE	W12
	BYTE		        As3 
	BYTE	W12
	BYTE		        Cn4 
	BYTE	W12
	BYTE		N32     Fn4 
	BYTE	W12
	BYTE	PEND
// 102   ----------------------------------------
	BYTE	PATT
	 POIN2	WarClouds0_3_100
// 103   ----------------------------------------
	BYTE	PATT
	 POIN2	WarClouds0_3_099
// 104   ----------------------------------------
	BYTE	PATT
	 POIN2	WarClouds0_3_100
// 105   ----------------------------------------
	BYTE	PATT
	 POIN2	WarClouds0_3_101
// 106   ----------------------------------------
	BYTE	W24
	BYTE		N92     As3   v092
	BYTE		N92     Dn4 
	BYTE	W72
// 107   ----------------------------------------
	BYTE	PATT
	 POIN2	WarClouds0_3_027
// 108   ----------------------------------------
	BYTE	PATT
	 POIN2	WarClouds0_3_028
// 109   ----------------------------------------
	BYTE	PATT
	 POIN2	WarClouds0_3_029
// 110   ----------------------------------------
	BYTE	PATT
	 POIN2	WarClouds0_3_030
// 111   ----------------------------------------
	BYTE	PATT
	 POIN2	WarClouds0_3_031
// 112   ----------------------------------------
	BYTE	PATT
	 POIN2	WarClouds0_3_031
// 113   ----------------------------------------
	BYTE	PATT
	 POIN2	WarClouds0_3_033
// 114   ----------------------------------------
	BYTE	PATT
	 POIN2	WarClouds0_3_034
// 115   ----------------------------------------
	BYTE	PATT
	 POIN2	WarClouds0_3_035
// 116   ----------------------------------------
	BYTE	PATT
	 POIN2	WarClouds0_3_036
// 117   ----------------------------------------
	BYTE	W96
// 118   ----------------------------------------
	BYTE	W23
	BYTE		EOT     Gn4 
	BYTE		        As4 
	BYTE	W01
	BYTE		N92     Dn4   v096
	BYTE		N92     Gn4 
	BYTE	W72
// 119   ----------------------------------------
	BYTE	PATT
	 POIN2	WarClouds0_3_035
// 120   ----------------------------------------
	BYTE	PATT
	 POIN2	WarClouds0_3_040
// 121   ----------------------------------------
	BYTE	W96
// 122   ----------------------------------------
	BYTE	W23
	BYTE		EOT     Cn4 
	BYTE		        Dn4 
	BYTE		        Gn4 
	BYTE	W01
	BYTE		N92     As3   v092
	BYTE		N92     Dn4 
	BYTE	W72
// 123   ----------------------------------------
	BYTE	PATT
	 POIN2	WarClouds0_3_027
// 124   ----------------------------------------
	BYTE	PATT
	 POIN2	WarClouds0_3_028
// 125   ----------------------------------------
	BYTE	PATT
	 POIN2	WarClouds0_3_029
// 126   ----------------------------------------
	BYTE	PATT
	 POIN2	WarClouds0_3_030
// 127   ----------------------------------------
	BYTE	PATT
	 POIN2	WarClouds0_3_031
// 128   ----------------------------------------
	BYTE	PATT
	 POIN2	WarClouds0_3_031
// 129   ----------------------------------------
	BYTE	PATT
	 POIN2	WarClouds0_3_033
// 130   ----------------------------------------
	BYTE	PATT
	 POIN2	WarClouds0_3_034
// 131   ----------------------------------------
	BYTE	PATT
	 POIN2	WarClouds0_3_035
// 132   ----------------------------------------
	BYTE	PATT
	 POIN2	WarClouds0_3_036
// 133   ----------------------------------------
	BYTE	W96
// 134   ----------------------------------------
	BYTE	W23
	BYTE		EOT     Gn4 
	BYTE		        As4 
	BYTE	W01
	BYTE		N92     Dn4   v096
	BYTE		N92     Gn4 
	BYTE	W72
// 135   ----------------------------------------
	BYTE	PATT
	 POIN2	WarClouds0_3_035
// 136   ----------------------------------------
	BYTE	W24
	BYTE		TIE     Cn4   v096
	BYTE		N92     Ds4 
	BYTE		N92     Gn4 
	BYTE	W72
// 137   ----------------------------------------
	BYTE	PATT
	 POIN2	WarClouds0_3_035
// 138   ----------------------------------------
	BYTE	W23
	BYTE		EOT     Cn4 
	BYTE	W01
	BYTE		N92     Dn4   v096
	BYTE		N92     Gn4 
	BYTE	W72
// 139   ----------------------------------------
	BYTE	PATT
	 POIN2	WarClouds0_3_035
// 140   ----------------------------------------
	BYTE	PATT
	 POIN2	WarClouds0_3_040
// 141   ----------------------------------------
	BYTE	W96
// 142   ----------------------------------------
	BYTE	W23
	BYTE		EOT     Cn4 
	BYTE		        Dn4 
	BYTE		        Gn4 
	BYTE	W01
	BYTE	GoTo
	 POIN2	WarClouds0_3_B1
WarClouds0_3_B2:
	BYTE	W72
// 143   ----------------------------------------
	BYTE	W06
	BYTE	FINE

//**************** Track 4 (Midi-Chn.4) ****************//

WarClouds0_4:
	BYTE	KEYSH   WarClouds0_key+0
// 000   ----------------------------------------
	BYTE		VOICE   40
	BYTE		PAN     c_v-2
	BYTE		MOD     0
	BYTE	W01
	BYTE		VOL     43*WarClouds0_mvl/mxv
	BYTE		BEND    c_v+0
	BYTE	W22
	BYTE	W72
	BYTE	W01
// 001   ----------------------------------------
	BYTE	W96
// 002   ----------------------------------------
	BYTE	W96
// 003   ----------------------------------------
	BYTE	W96
// 004   ----------------------------------------
	BYTE	W96
// 005   ----------------------------------------
	BYTE	W96
// 006   ----------------------------------------
	BYTE	W96
// 007   ----------------------------------------
	BYTE	W96
// 008   ----------------------------------------
	BYTE	W96
// 009   ----------------------------------------
	BYTE	W96
// 010   ----------------------------------------
	BYTE	W96
// 011   ----------------------------------------
	BYTE	W96
// 012   ----------------------------------------
	BYTE	W22
	BYTE	W02
	BYTE		TIE     Dn4   v080
	BYTE	W01
	BYTE	W03
	BYTE	W03
	BYTE	W03
	BYTE	W03
	BYTE	W03
	BYTE	W03
	BYTE	W03
	BYTE	W03
	BYTE	W03
	BYTE	W03
	BYTE	W03
	BYTE	W03
	BYTE	W03
	BYTE	W03
	BYTE	W03
	BYTE	W03
	BYTE	W03
	BYTE	W03
	BYTE	W03
	BYTE	W03
	BYTE	W03
	BYTE	W03
	BYTE	W03
	BYTE	W02
// 013   ----------------------------------------
	BYTE	W01
	BYTE	W03
	BYTE	W03
	BYTE	W03
	BYTE	W03
	BYTE	W03
	BYTE	W03
	BYTE	W03
	BYTE	W02
	BYTE	W72
// 014   ----------------------------------------
	BYTE	W96
// 015   ----------------------------------------
	BYTE	W96
// 016   ----------------------------------------
	BYTE	W96
// 017   ----------------------------------------
	BYTE	W96
// 018   ----------------------------------------
	BYTE	W24
	BYTE		EOT   
	BYTE	W72
// 019   ----------------------------------------
	BYTE	W96
// 020   ----------------------------------------
	BYTE	W96
// 021   ----------------------------------------
	BYTE	W96
// 022   ----------------------------------------
	BYTE	W96
// 023   ----------------------------------------
	BYTE	W96
// 024   ----------------------------------------
	BYTE	W96
// 025   ----------------------------------------
	BYTE	W96
// 026   ----------------------------------------
	BYTE	W96
// 027   ----------------------------------------
	BYTE	W96
// 028   ----------------------------------------
	BYTE	W96
// 029   ----------------------------------------
	BYTE	W96
// 030   ----------------------------------------
	BYTE	W96
// 031   ----------------------------------------
	BYTE	W96
// 032   ----------------------------------------
	BYTE	W96
// 033   ----------------------------------------
	BYTE	W96
// 034   ----------------------------------------
	BYTE	W96
// 035   ----------------------------------------
	BYTE	W96
// 036   ----------------------------------------
	BYTE	W96
// 037   ----------------------------------------
	BYTE	W96
// 038   ----------------------------------------
	BYTE	W96
// 039   ----------------------------------------
	BYTE	W96
// 040   ----------------------------------------
	BYTE	W96
// 041   ----------------------------------------
	BYTE	W96
// 042   ----------------------------------------
	BYTE	W96
// 043   ----------------------------------------
	BYTE	W96
// 044   ----------------------------------------
	BYTE	W96
// 045   ----------------------------------------
	BYTE	W96
// 046   ----------------------------------------
	BYTE	W96
// 047   ----------------------------------------
	BYTE	W96
// 048   ----------------------------------------
	BYTE	W96
// 049   ----------------------------------------
	BYTE	W96
// 050   ----------------------------------------
	BYTE	W96
// 051   ----------------------------------------
	BYTE	W96
// 052   ----------------------------------------
	BYTE	W96
// 053   ----------------------------------------
	BYTE	W96
// 054   ----------------------------------------
	BYTE	W96
// 055   ----------------------------------------
	BYTE	W96
// 056   ----------------------------------------
	BYTE	W96
// 057   ----------------------------------------
	BYTE	W96
// 058   ----------------------------------------
	BYTE	W24
WarClouds0_4_B1:
	BYTE	W72
// 059   ----------------------------------------
	BYTE	W96
// 060   ----------------------------------------
	BYTE	W96
// 061   ----------------------------------------
	BYTE	W96
// 062   ----------------------------------------
	BYTE	W96
// 063   ----------------------------------------
	BYTE	W96
// 064   ----------------------------------------
	BYTE	W96
// 065   ----------------------------------------
	BYTE	W96
// 066   ----------------------------------------
	BYTE	W20
	BYTE	W04
	BYTE		TIE     Cn3   v076
	BYTE		TIE     Ds3 
	BYTE		TIE     Gn3 
	BYTE	W04
	BYTE	W04
	BYTE	W04
	BYTE	W04
	BYTE	W04
	BYTE	W04
	BYTE	W04
	BYTE	W03
	BYTE	W04
	BYTE	W04
	BYTE	W04
	BYTE	W04
	BYTE	W04
	BYTE	W04
	BYTE	W04
	BYTE	W04
	BYTE	W04
	BYTE	W03
	BYTE	W02
// 067   ----------------------------------------
	BYTE	W02
	BYTE	W04
	BYTE	W04
	BYTE	W04
	BYTE	W04
	BYTE	W04
	BYTE	W04
	BYTE	W04
	BYTE	W04
	BYTE	W03
	BYTE	W04
	BYTE	W04
	BYTE	W04
	BYTE	W04
	BYTE	W04
	BYTE	W04
	BYTE	W04
	BYTE	W04
	BYTE	W04
	BYTE	W03
	BYTE	W04
	BYTE	W04
	BYTE	W04
	BYTE	W04
	BYTE	W04
// 068   ----------------------------------------
	BYTE	W04
	BYTE	W04
	BYTE	W04
	BYTE	W04
	BYTE	W03
	BYTE	W04
	BYTE	W01
	BYTE		EOT     Cn3 
	BYTE		        Ds3 
	BYTE		        Gn3 
	BYTE		TIE     Cn3 
	BYTE		TIE     Fn3 
	BYTE		TIE     Gs3 
	BYTE	W72
// 069   ----------------------------------------
	BYTE	W96
// 070   ----------------------------------------
	BYTE	W24
	BYTE		EOT     Cn3 
	BYTE		        Fn3 
	BYTE		        Gs3 
	BYTE		TIE     As2 
	BYTE		TIE     Dn3 
	BYTE		TIE     Fn3 
	BYTE	W72
// 071   ----------------------------------------
	BYTE	W96
// 072   ----------------------------------------
	BYTE	W24
	BYTE		EOT     As2 
	BYTE		        Dn3 
	BYTE		        Fn3 
	BYTE		TIE     Cn3 
	BYTE		TIE     Fn3 
	BYTE		TIE     Gs3 
	BYTE	W72
// 073   ----------------------------------------
	BYTE	W96
// 074   ----------------------------------------
	BYTE	W24
	BYTE		EOT     Cn3 
	BYTE		        Fn3 
	BYTE		        Gs3 
	BYTE		TIE     Cn3 
	BYTE		TIE     Ds3 
	BYTE		TIE     Gn3 
	BYTE	W72
// 075   ----------------------------------------
	BYTE	W96
// 076   ----------------------------------------
	BYTE	W24
	BYTE		EOT     Cn3 
	BYTE		        Ds3 
	BYTE		        Gn3 
	BYTE		TIE     Cn3 
	BYTE		TIE     Fn3 
	BYTE		TIE     Gs3 
	BYTE	W72
// 077   ----------------------------------------
	BYTE	W96
// 078   ----------------------------------------
	BYTE	W24
	BYTE		EOT     Cn3 
	BYTE		        Fn3 
	BYTE		        Gs3 
	BYTE		TIE     As2 
	BYTE		TIE     Dn3 
	BYTE		TIE     Fn3 
	BYTE	W72
// 079   ----------------------------------------
	BYTE	W96
// 080   ----------------------------------------
	BYTE	W24
	BYTE		EOT     As2 
	BYTE		        Dn3 
	BYTE		        Fn3 
	BYTE		TIE     Cn3 
	BYTE		TIE     Fn3 
	BYTE		TIE     Gs3 
	BYTE	W72
// 081   ----------------------------------------
	BYTE	W96
// 082   ----------------------------------------
	BYTE	W24
	BYTE		EOT     Cn3 
	BYTE		        Fn3 
	BYTE		        Gs3 
	BYTE	W72
// 083   ----------------------------------------
	BYTE	W96
// 084   ----------------------------------------
	BYTE	W96
// 085   ----------------------------------------
	BYTE	W96
// 086   ----------------------------------------
	BYTE	W96
// 087   ----------------------------------------
	BYTE	W96
// 088   ----------------------------------------
	BYTE	W96
// 089   ----------------------------------------
	BYTE	W96
// 090   ----------------------------------------
	BYTE	W24
	BYTE		N96     Gs2 
	BYTE		N96     Cn3 
	BYTE		N96     Ds3 
	BYTE	W72
// 091   ----------------------------------------
WarClouds0_4_091:
	BYTE	W24
	BYTE		N96     As2   v076
	BYTE		N96     Dn3 
	BYTE		N96     Fn3 
	BYTE	W72
	BYTE	PEND
// 092   ----------------------------------------
WarClouds0_4_092:
	BYTE	W24
	BYTE		N96     Cn3   v076
	BYTE		N96     Dn3 
	BYTE		N96     Gn3 
	BYTE	W72
	BYTE	PEND
// 093   ----------------------------------------
	BYTE	W24
	BYTE		        Cs3 
	BYTE		N96     Fn3 
	BYTE		N96     Gs3 
	BYTE	W72
// 094   ----------------------------------------
	BYTE	PATT
	 POIN2	WarClouds0_4_092
// 095   ----------------------------------------
	BYTE	PATT
	 POIN2	WarClouds0_4_091
// 096   ----------------------------------------
	BYTE	W24
	BYTE		N96     As2   v076
	BYTE		N96     Dn3 
	BYTE		N96     Ds3 
	BYTE		N96     Gn3 
	BYTE	W72
// 097   ----------------------------------------
	BYTE	W24
	BYTE		        An2 
	BYTE		N96     Dn3 
	BYTE		N96     Gn3 
	BYTE	W72
// 098   ----------------------------------------
	BYTE	W96
// 099   ----------------------------------------
	BYTE	W96
// 100   ----------------------------------------
	BYTE	W96
// 101   ----------------------------------------
	BYTE	W96
// 102   ----------------------------------------
	BYTE	W96
// 103   ----------------------------------------
	BYTE	W96
// 104   ----------------------------------------
	BYTE	W96
// 105   ----------------------------------------
	BYTE	W96
// 106   ----------------------------------------
	BYTE	W96
// 107   ----------------------------------------
	BYTE	W96
// 108   ----------------------------------------
	BYTE	W96
// 109   ----------------------------------------
	BYTE	W96
// 110   ----------------------------------------
	BYTE	W96
// 111   ----------------------------------------
	BYTE	W96
// 112   ----------------------------------------
	BYTE	W96
// 113   ----------------------------------------
	BYTE	W96
// 114   ----------------------------------------
	BYTE	W96
// 115   ----------------------------------------
	BYTE	W96
// 116   ----------------------------------------
	BYTE	W96
// 117   ----------------------------------------
	BYTE	W96
// 118   ----------------------------------------
	BYTE	W96
// 119   ----------------------------------------
	BYTE	W96
// 120   ----------------------------------------
	BYTE	W96
// 121   ----------------------------------------
	BYTE	W96
// 122   ----------------------------------------
	BYTE	W96
// 123   ----------------------------------------
	BYTE	W96
// 124   ----------------------------------------
	BYTE	W96
// 125   ----------------------------------------
	BYTE	W96
// 126   ----------------------------------------
	BYTE	W96
// 127   ----------------------------------------
	BYTE	W96
// 128   ----------------------------------------
	BYTE	W96
// 129   ----------------------------------------
	BYTE	W96
// 130   ----------------------------------------
	BYTE	W96
// 131   ----------------------------------------
	BYTE	W96
// 132   ----------------------------------------
	BYTE	W96
// 133   ----------------------------------------
	BYTE	W96
// 134   ----------------------------------------
	BYTE	W96
// 135   ----------------------------------------
	BYTE	W96
// 136   ----------------------------------------
	BYTE	W96
// 137   ----------------------------------------
	BYTE	W96
// 138   ----------------------------------------
	BYTE	W96
// 139   ----------------------------------------
	BYTE	W96
// 140   ----------------------------------------
	BYTE	W96
// 141   ----------------------------------------
	BYTE	W96
// 142   ----------------------------------------
	BYTE	W24
	BYTE	GoTo
	 POIN2	WarClouds0_4_B1
WarClouds0_4_B2:
	BYTE	W72
// 143   ----------------------------------------
	BYTE	W06
	BYTE	FINE

//**************** Track 5 (Midi-Chn.6) ****************//

WarClouds0_5:
	BYTE	KEYSH   WarClouds0_key+0
// 000   ----------------------------------------
	BYTE		PAN     c_v+0
	BYTE	W01
	BYTE		VOICE   48
	BYTE		MOD     0
	BYTE		VOL     47*WarClouds0_mvl/mxv
	BYTE		BEND    c_v+0
	BYTE	W22
	BYTE	W72
	BYTE	W01
// 001   ----------------------------------------
	BYTE	W96
// 002   ----------------------------------------
	BYTE	W96
// 003   ----------------------------------------
	BYTE	W96
// 004   ----------------------------------------
	BYTE	W24
	BYTE		TIE     Gn2   v108
	BYTE	W72
// 005   ----------------------------------------
	BYTE	W96
// 006   ----------------------------------------
	BYTE	W24
	BYTE		EOT   
	BYTE		N12   
	BYTE	W72
// 007   ----------------------------------------
	BYTE	W96
// 008   ----------------------------------------
WarClouds0_5_008:
	BYTE	W24
	BYTE		TIE     Gn2   v108
	BYTE	W72
	BYTE	PEND
// 009   ----------------------------------------
	BYTE	W96
// 010   ----------------------------------------
	BYTE	W23
	BYTE		EOT   
	BYTE	W01
	BYTE		N12   
	BYTE	W72
// 011   ----------------------------------------
	BYTE	W96
// 012   ----------------------------------------
	BYTE	W96
// 013   ----------------------------------------
	BYTE	W96
// 014   ----------------------------------------
	BYTE	W96
// 015   ----------------------------------------
	BYTE	W96
// 016   ----------------------------------------
	BYTE	W96
// 017   ----------------------------------------
	BYTE	W96
// 018   ----------------------------------------
	BYTE	PATT
	 POIN2	WarClouds0_5_008
// 019   ----------------------------------------
	BYTE	W96
// 020   ----------------------------------------
	BYTE	W96
// 021   ----------------------------------------
	BYTE	W96
// 022   ----------------------------------------
	BYTE	W96
// 023   ----------------------------------------
	BYTE	W96
// 024   ----------------------------------------
	BYTE	W96
// 025   ----------------------------------------
	BYTE	W96
// 026   ----------------------------------------
	BYTE	W24
	BYTE		EOT     Gn2 
	BYTE	W72
// 027   ----------------------------------------
	BYTE	W96
// 028   ----------------------------------------
	BYTE	W96
// 029   ----------------------------------------
	BYTE	W96
// 030   ----------------------------------------
	BYTE	W96
// 031   ----------------------------------------
	BYTE	W96
// 032   ----------------------------------------
	BYTE	W96
// 033   ----------------------------------------
	BYTE	W96
// 034   ----------------------------------------
	BYTE	W96
// 035   ----------------------------------------
	BYTE	W96
// 036   ----------------------------------------
	BYTE	W96
// 037   ----------------------------------------
	BYTE	W96
// 038   ----------------------------------------
	BYTE	W96
// 039   ----------------------------------------
	BYTE	W96
// 040   ----------------------------------------
	BYTE	W96
// 041   ----------------------------------------
	BYTE	W96
// 042   ----------------------------------------
	BYTE	W96
// 043   ----------------------------------------
	BYTE	W96
// 044   ----------------------------------------
	BYTE	W96
// 045   ----------------------------------------
	BYTE	W96
// 046   ----------------------------------------
	BYTE	W96
// 047   ----------------------------------------
	BYTE	W96
// 048   ----------------------------------------
	BYTE	W96
// 049   ----------------------------------------
	BYTE	W96
// 050   ----------------------------------------
	BYTE	W96
// 051   ----------------------------------------
	BYTE	W96
// 052   ----------------------------------------
	BYTE	W96
// 053   ----------------------------------------
	BYTE	W96
// 054   ----------------------------------------
	BYTE	W96
// 055   ----------------------------------------
	BYTE	W96
// 056   ----------------------------------------
	BYTE	W96
// 057   ----------------------------------------
	BYTE	W96
// 058   ----------------------------------------
	BYTE	W24
WarClouds0_5_B1:
	BYTE		N04     Gn1   v108
	BYTE	W06
	BYTE		N04   
	BYTE	W06
	BYTE		N04   
	BYTE	W24
	BYTE		N04   
	BYTE	W06
	BYTE		N04   
	BYTE	W06
	BYTE		N04   
	BYTE	W24
// 059   ----------------------------------------
	BYTE	W96
// 060   ----------------------------------------
WarClouds0_5_060:
	BYTE	W24
	BYTE		N04     Gn1   v108
	BYTE	W06
	BYTE		N04   
	BYTE	W06
	BYTE		N04   
	BYTE	W24
	BYTE		N04   
	BYTE	W06
	BYTE		N04   
	BYTE	W06
	BYTE		N04   
	BYTE	W24
	BYTE	PEND
// 061   ----------------------------------------
	BYTE	W96
// 062   ----------------------------------------
	BYTE	PATT
	 POIN2	WarClouds0_5_060
// 063   ----------------------------------------
	BYTE	W96
// 064   ----------------------------------------
	BYTE	PATT
	 POIN2	WarClouds0_5_060
// 065   ----------------------------------------
	BYTE	W96
// 066   ----------------------------------------
	BYTE	W96
// 067   ----------------------------------------
	BYTE	W96
// 068   ----------------------------------------
	BYTE	W96
// 069   ----------------------------------------
	BYTE	W96
// 070   ----------------------------------------
	BYTE	W96
// 071   ----------------------------------------
	BYTE	W96
// 072   ----------------------------------------
	BYTE	W96
// 073   ----------------------------------------
	BYTE	W96
// 074   ----------------------------------------
	BYTE	W96
// 075   ----------------------------------------
	BYTE	W96
// 076   ----------------------------------------
	BYTE	W96
// 077   ----------------------------------------
	BYTE	W96
// 078   ----------------------------------------
	BYTE	W96
// 079   ----------------------------------------
	BYTE	W96
// 080   ----------------------------------------
	BYTE	W96
// 081   ----------------------------------------
	BYTE	W96
// 082   ----------------------------------------
	BYTE	W96
// 083   ----------------------------------------
	BYTE	W96
// 084   ----------------------------------------
	BYTE	W96
// 085   ----------------------------------------
	BYTE	W96
// 086   ----------------------------------------
	BYTE	W96
// 087   ----------------------------------------
	BYTE	W96
// 088   ----------------------------------------
	BYTE	W96
// 089   ----------------------------------------
	BYTE	W96
// 090   ----------------------------------------
	BYTE	W96
// 091   ----------------------------------------
	BYTE	W96
// 092   ----------------------------------------
	BYTE	W96
// 093   ----------------------------------------
	BYTE	W96
// 094   ----------------------------------------
	BYTE	W96
// 095   ----------------------------------------
	BYTE	W96
// 096   ----------------------------------------
	BYTE	W96
// 097   ----------------------------------------
	BYTE	W96
// 098   ----------------------------------------
WarClouds0_5_098:
	BYTE	W24
	BYTE		N06     Gn4   v096
	BYTE	W12
	BYTE		N24     Cn5 
	BYTE	W24
	BYTE		N06     Fn4 
	BYTE	W12
	BYTE		N36     As4 
	BYTE	W24
	BYTE	PEND
// 099   ----------------------------------------
WarClouds0_5_099:
	BYTE	W12
	BYTE		N06     Gn4   v096
	BYTE	W12
	BYTE		N24     Cn5 
	BYTE	W24
	BYTE		N06     Fn4 
	BYTE	W12
	BYTE		        As4 
	BYTE	W12
	BYTE		N48     Cn5 
	BYTE	W24
	BYTE	PEND
// 100   ----------------------------------------
	BYTE	PATT
	 POIN2	WarClouds0_5_098
// 101   ----------------------------------------
WarClouds0_5_101:
	BYTE	W12
	BYTE		N06     Gn4   v096
	BYTE	W12
	BYTE		N24     Cn5 
	BYTE	W24
	BYTE		N06     Fn4 
	BYTE	W12
	BYTE		        As4 
	BYTE	W12
	BYTE		        Cn5 
	BYTE	W12
	BYTE		N36     Fn5 
	BYTE	W12
	BYTE	PEND
// 102   ----------------------------------------
	BYTE	PATT
	 POIN2	WarClouds0_5_098
// 103   ----------------------------------------
	BYTE	PATT
	 POIN2	WarClouds0_5_099
// 104   ----------------------------------------
	BYTE	PATT
	 POIN2	WarClouds0_5_098
// 105   ----------------------------------------
	BYTE	PATT
	 POIN2	WarClouds0_5_101
// 106   ----------------------------------------
	BYTE	W96
// 107   ----------------------------------------
	BYTE	W96
// 108   ----------------------------------------
	BYTE	W96
// 109   ----------------------------------------
	BYTE	W96
// 110   ----------------------------------------
	BYTE	W96
// 111   ----------------------------------------
	BYTE	W96
// 112   ----------------------------------------
	BYTE	W96
// 113   ----------------------------------------
	BYTE	W96
// 114   ----------------------------------------
	BYTE	W96
// 115   ----------------------------------------
	BYTE	W96
// 116   ----------------------------------------
	BYTE	W96
// 117   ----------------------------------------
	BYTE	W96
// 118   ----------------------------------------
	BYTE	W96
// 119   ----------------------------------------
	BYTE	W96
// 120   ----------------------------------------
	BYTE	W96
// 121   ----------------------------------------
	BYTE	W96
// 122   ----------------------------------------
	BYTE	W96
// 123   ----------------------------------------
	BYTE	W96
// 124   ----------------------------------------
	BYTE	W96
// 125   ----------------------------------------
	BYTE	W96
// 126   ----------------------------------------
	BYTE	W96
// 127   ----------------------------------------
	BYTE	W96
// 128   ----------------------------------------
	BYTE	W96
// 129   ----------------------------------------
	BYTE	W96
// 130   ----------------------------------------
	BYTE	W96
// 131   ----------------------------------------
	BYTE	W96
// 132   ----------------------------------------
	BYTE	W96
// 133   ----------------------------------------
	BYTE	W96
// 134   ----------------------------------------
	BYTE	W96
// 135   ----------------------------------------
	BYTE	W96
// 136   ----------------------------------------
	BYTE	W96
// 137   ----------------------------------------
	BYTE	W96
// 138   ----------------------------------------
	BYTE	W96
// 139   ----------------------------------------
	BYTE	W96
// 140   ----------------------------------------
	BYTE	W96
// 141   ----------------------------------------
	BYTE	W96
// 142   ----------------------------------------
	BYTE	W24
	BYTE	GoTo
	 POIN2	WarClouds0_5_B1
WarClouds0_5_B2:
	BYTE	W72
// 143   ----------------------------------------
	BYTE	W06
	BYTE	FINE

//**************** Track 6 (Midi-Chn.7) ****************//

WarClouds0_6:
	BYTE	KEYSH   WarClouds0_key+0
// 000   ----------------------------------------
	BYTE		VOICE   42
	BYTE		PAN     c_v-1
	BYTE	W01
	BYTE		MOD     0
	BYTE		VOL     37*WarClouds0_mvl/mxv
	BYTE	W01
	BYTE		BEND    c_v+0
	BYTE	W21
	BYTE	W72
	BYTE	W01
// 001   ----------------------------------------
	BYTE	W96
// 002   ----------------------------------------
	BYTE	W96
// 003   ----------------------------------------
	BYTE	W96
// 004   ----------------------------------------
WarClouds0_6_004:
	BYTE	W24
	BYTE		TIE     Gn0   v108
	BYTE	W72
	BYTE	PEND
// 005   ----------------------------------------
	BYTE	W96
// 006   ----------------------------------------
	BYTE	W23
	BYTE		EOT   
	BYTE	W01
	BYTE		N11   
	BYTE	W72
// 007   ----------------------------------------
	BYTE	W96
// 008   ----------------------------------------
	BYTE	PATT
	 POIN2	WarClouds0_6_004
// 009   ----------------------------------------
	BYTE	W96
// 010   ----------------------------------------
	BYTE	W22
	BYTE		EOT     Gn0 
	BYTE	W02
	BYTE		N11     Gn0   v108
	BYTE	W72
// 011   ----------------------------------------
	BYTE	W96
// 012   ----------------------------------------
	BYTE	W96
// 013   ----------------------------------------
	BYTE	W96
// 014   ----------------------------------------
	BYTE	W96
// 015   ----------------------------------------
	BYTE	W96
// 016   ----------------------------------------
	BYTE	W96
// 017   ----------------------------------------
	BYTE	W96
// 018   ----------------------------------------
	BYTE	PATT
	 POIN2	WarClouds0_6_004
// 019   ----------------------------------------
	BYTE	W96
// 020   ----------------------------------------
	BYTE	W96
// 021   ----------------------------------------
	BYTE	W96
// 022   ----------------------------------------
	BYTE	W96
// 023   ----------------------------------------
	BYTE	W96
// 024   ----------------------------------------
	BYTE	W96
// 025   ----------------------------------------
	BYTE	W96
// 026   ----------------------------------------
	BYTE	W22
	BYTE		EOT     Gn0 
	BYTE	W02
	BYTE		TIE     Gn0   v108
	BYTE	W72
// 027   ----------------------------------------
	BYTE	W96
// 028   ----------------------------------------
	BYTE	W96
// 029   ----------------------------------------
	BYTE	W96
// 030   ----------------------------------------
	BYTE	W23
	BYTE		EOT   
	BYTE	W01
	BYTE		N92     Ds1   v096
	BYTE	W72
// 031   ----------------------------------------
	BYTE	W24
	BYTE		        Fn0   v108
	BYTE	W72
// 032   ----------------------------------------
	BYTE	W24
	BYTE		        Dn1   v096
	BYTE	W72
// 033   ----------------------------------------
	BYTE	W24
	BYTE		N68     Ds1 
	BYTE	W72
// 034   ----------------------------------------
WarClouds0_6_034:
	BYTE		N23     Dn1   v096
	BYTE	W24
	BYTE		N92     Cn1 
	BYTE	W72
	BYTE	PEND
// 035   ----------------------------------------
	BYTE	W24
	BYTE		        An0 
	BYTE	W72
// 036   ----------------------------------------
	BYTE	W24
	BYTE		        As0 
	BYTE	W72
// 037   ----------------------------------------
	BYTE	W24
	BYTE		        Gn0 
	BYTE	W72
// 038   ----------------------------------------
	BYTE	W24
	BYTE		        Ds1 
	BYTE	W72
// 039   ----------------------------------------
	BYTE	W24
	BYTE		        Fn1 
	BYTE	W72
// 040   ----------------------------------------
WarClouds0_6_040:
	BYTE	W24
	BYTE		TIE     Gn0   v096
	BYTE	W72
	BYTE	PEND
// 041   ----------------------------------------
	BYTE	W96
// 042   ----------------------------------------
	BYTE	W23
	BYTE		EOT   
	BYTE	W01
	BYTE		TIE     Gn0   v108
	BYTE	W72
// 043   ----------------------------------------
	BYTE	W96
// 044   ----------------------------------------
	BYTE	W96
// 045   ----------------------------------------
	BYTE	W96
// 046   ----------------------------------------
	BYTE	W23
	BYTE		EOT   
	BYTE	W01
	BYTE		N92     Ds1   v096
	BYTE	W72
// 047   ----------------------------------------
	BYTE	W24
	BYTE		        Fn0   v108
	BYTE	W72
// 048   ----------------------------------------
	BYTE	W24
	BYTE		        Dn1   v096
	BYTE	W72
// 049   ----------------------------------------
	BYTE	W24
	BYTE		N68     Ds1 
	BYTE	W72
// 050   ----------------------------------------
	BYTE	PATT
	 POIN2	WarClouds0_6_034
// 051   ----------------------------------------
	BYTE	W24
	BYTE		N92     An0   v096
	BYTE	W72
// 052   ----------------------------------------
	BYTE	W24
	BYTE		        As0 
	BYTE	W72
// 053   ----------------------------------------
	BYTE	W24
	BYTE		        Gn0 
	BYTE	W72
// 054   ----------------------------------------
	BYTE	W24
	BYTE		        Ds1 
	BYTE	W72
// 055   ----------------------------------------
	BYTE	W24
	BYTE		        Fn1 
	BYTE	W72
// 056   ----------------------------------------
	BYTE	PATT
	 POIN2	WarClouds0_6_040
// 057   ----------------------------------------
	BYTE	W96
// 058   ----------------------------------------
	BYTE	W23
	BYTE		EOT     Gn0 
	BYTE	W01
WarClouds0_6_B1:
	BYTE		N04     Gn0   v108
	BYTE	W06
	BYTE		N04   
	BYTE	W06
	BYTE		N04   
	BYTE	W24
	BYTE		N04   
	BYTE	W06
	BYTE		N04   
	BYTE	W06
	BYTE		N04   
	BYTE	W24
// 059   ----------------------------------------
	BYTE	W96
// 060   ----------------------------------------
WarClouds0_6_060:
	BYTE	W24
	BYTE		N04     Gn0   v108
	BYTE	W06
	BYTE		N04   
	BYTE	W06
	BYTE		N04   
	BYTE	W24
	BYTE		N04   
	BYTE	W06
	BYTE		N04   
	BYTE	W06
	BYTE		N04   
	BYTE	W24
	BYTE	PEND
// 061   ----------------------------------------
	BYTE	W96
// 062   ----------------------------------------
	BYTE	PATT
	 POIN2	WarClouds0_6_060
// 063   ----------------------------------------
	BYTE	W96
// 064   ----------------------------------------
	BYTE	PATT
	 POIN2	WarClouds0_6_060
// 065   ----------------------------------------
	BYTE	W96
// 066   ----------------------------------------
	BYTE	W96
// 067   ----------------------------------------
	BYTE	W96
// 068   ----------------------------------------
	BYTE	W96
// 069   ----------------------------------------
	BYTE	W96
// 070   ----------------------------------------
	BYTE	W96
// 071   ----------------------------------------
	BYTE	W96
// 072   ----------------------------------------
	BYTE	W96
// 073   ----------------------------------------
	BYTE	W96
// 074   ----------------------------------------
	BYTE	W96
// 075   ----------------------------------------
	BYTE	W96
// 076   ----------------------------------------
	BYTE	W96
// 077   ----------------------------------------
	BYTE	W96
// 078   ----------------------------------------
	BYTE	W96
// 079   ----------------------------------------
	BYTE	W96
// 080   ----------------------------------------
	BYTE	W96
// 081   ----------------------------------------
	BYTE	W96
// 082   ----------------------------------------
	BYTE	W24
	BYTE		TIE     Cn1   v080
	BYTE	W72
// 083   ----------------------------------------
	BYTE	W96
// 084   ----------------------------------------
	BYTE	W23
	BYTE		EOT   
	BYTE	W01
	BYTE		TIE   
	BYTE	W72
// 085   ----------------------------------------
	BYTE	W96
// 086   ----------------------------------------
	BYTE	W23
	BYTE		EOT   
	BYTE	W01
	BYTE		N92   
	BYTE	W72
// 087   ----------------------------------------
	BYTE	W24
	BYTE		        Gs0 
	BYTE	W72
// 088   ----------------------------------------
	BYTE	W24
	BYTE		TIE     Gn0 
	BYTE	W72
// 089   ----------------------------------------
	BYTE	W96
// 090   ----------------------------------------
	BYTE	W23
	BYTE		EOT   
	BYTE	W01
	BYTE		N92     Gs0 
	BYTE	W72
// 091   ----------------------------------------
	BYTE	W24
	BYTE		        As0 
	BYTE	W72
// 092   ----------------------------------------
	BYTE	W24
	BYTE		        Cn1 
	BYTE	W72
// 093   ----------------------------------------
	BYTE	W24
	BYTE		        Cs1 
	BYTE	W72
// 094   ----------------------------------------
	BYTE	W24
	BYTE		        Dn1 
	BYTE	W72
// 095   ----------------------------------------
	BYTE	W24
	BYTE		        Gn1 
	BYTE	W72
// 096   ----------------------------------------
	BYTE	W24
	BYTE		        Cn1 
	BYTE	W72
// 097   ----------------------------------------
	BYTE	W24
	BYTE		        Dn1 
	BYTE	W72
// 098   ----------------------------------------
	BYTE	W24
	BYTE		N05     Gn0   v108
	BYTE	W72
// 099   ----------------------------------------
	BYTE	W24
	BYTE		N05   
	BYTE	W72
// 100   ----------------------------------------
	BYTE	W24
	BYTE		N05   
	BYTE	W72
// 101   ----------------------------------------
	BYTE	W24
	BYTE		N92     Gn0   v096
	BYTE	W04
	BYTE	W04
	BYTE	W02
	BYTE	W04
	BYTE	W02
	BYTE	W04
	BYTE	W04
	BYTE	W02
	BYTE	W04
	BYTE	W02
	BYTE	W04
	BYTE	W04
	BYTE	W02
	BYTE	W04
	BYTE	W02
	BYTE	W04
	BYTE	W04
	BYTE	W02
	BYTE	W04
	BYTE	W02
	BYTE	W04
	BYTE	W04
// 102   ----------------------------------------
	BYTE	W02
	BYTE	W04
	BYTE	W02
	BYTE	W04
	BYTE	W02
	BYTE	W04
	BYTE	W04
	BYTE	W02
	BYTE		TIE   
	BYTE	W72
// 103   ----------------------------------------
	BYTE	W96
// 104   ----------------------------------------
	BYTE	W22
	BYTE		EOT   
	BYTE	W02
	BYTE		TIE   
	BYTE	W72
// 105   ----------------------------------------
	BYTE	W24
	BYTE	W10
	BYTE	W10
	BYTE	W10
	BYTE	W10
	BYTE	W08
	BYTE	W10
	BYTE	W10
	BYTE	W04
// 106   ----------------------------------------
	BYTE	W06
	BYTE	W08
	BYTE	W08
	BYTE		EOT   
	BYTE	W02
	BYTE		TIE     Gn0   v108
	BYTE	W72
// 107   ----------------------------------------
	BYTE	W96
// 108   ----------------------------------------
	BYTE	W96
// 109   ----------------------------------------
	BYTE	W96
// 110   ----------------------------------------
	BYTE	W23
	BYTE		EOT   
	BYTE	W01
	BYTE		N92     Ds1   v096
	BYTE	W72
// 111   ----------------------------------------
	BYTE	W24
	BYTE		        Fn0   v108
	BYTE	W72
// 112   ----------------------------------------
	BYTE	W24
	BYTE		        Dn1   v096
	BYTE	W72
// 113   ----------------------------------------
	BYTE	W24
	BYTE		N68     Ds1 
	BYTE	W72
// 114   ----------------------------------------
	BYTE	PATT
	 POIN2	WarClouds0_6_034
// 115   ----------------------------------------
	BYTE	W24
	BYTE		N92     An0   v096
	BYTE	W72
// 116   ----------------------------------------
	BYTE	W24
	BYTE		        As0 
	BYTE	W72
// 117   ----------------------------------------
	BYTE	W24
	BYTE		        Gn0 
	BYTE	W72
// 118   ----------------------------------------
	BYTE	W24
	BYTE		        Ds1 
	BYTE	W72
// 119   ----------------------------------------
	BYTE	W24
	BYTE		        Fn1 
	BYTE	W72
// 120   ----------------------------------------
	BYTE	PATT
	 POIN2	WarClouds0_6_040
// 121   ----------------------------------------
	BYTE	W96
// 122   ----------------------------------------
	BYTE	W23
	BYTE		EOT     Gn0 
	BYTE	W01
	BYTE		TIE     Gn0   v108
	BYTE	W72
// 123   ----------------------------------------
	BYTE	W96
// 124   ----------------------------------------
	BYTE	W96
// 125   ----------------------------------------
	BYTE	W96
// 126   ----------------------------------------
	BYTE	W23
	BYTE		EOT   
	BYTE	W01
	BYTE		N92     Ds1   v096
	BYTE	W72
// 127   ----------------------------------------
	BYTE	W24
	BYTE		        Fn0   v108
	BYTE	W72
// 128   ----------------------------------------
	BYTE	W24
	BYTE		        Dn1   v096
	BYTE	W72
// 129   ----------------------------------------
	BYTE	W24
	BYTE		N68     Ds1 
	BYTE	W72
// 130   ----------------------------------------
	BYTE	PATT
	 POIN2	WarClouds0_6_034
// 131   ----------------------------------------
	BYTE	W24
	BYTE		N92     An0   v096
	BYTE	W72
// 132   ----------------------------------------
	BYTE	W24
	BYTE		        As0 
	BYTE	W72
// 133   ----------------------------------------
	BYTE	W24
	BYTE		        Gn0 
	BYTE	W72
// 134   ----------------------------------------
	BYTE	W24
	BYTE		        Ds1 
	BYTE	W72
// 135   ----------------------------------------
	BYTE	W24
	BYTE		        Fn1 
	BYTE	W72
// 136   ----------------------------------------
	BYTE	W24
	BYTE		        Cn1 
	BYTE	W72
// 137   ----------------------------------------
	BYTE	W24
	BYTE		        Dn1 
	BYTE	W72
// 138   ----------------------------------------
	BYTE	W24
	BYTE		        Ds1 
	BYTE	W72
// 139   ----------------------------------------
	BYTE	W24
	BYTE		        Fn1 
	BYTE	W72
// 140   ----------------------------------------
	BYTE	PATT
	 POIN2	WarClouds0_6_040
// 141   ----------------------------------------
	BYTE	W96
// 142   ----------------------------------------
	BYTE	W23
	BYTE		EOT     Gn0 
	BYTE	W01
	BYTE	GoTo
	 POIN2	WarClouds0_6_B1
WarClouds0_6_B2:
	BYTE		N05     Gn0   v116
	BYTE	W12
	BYTE		N05   
	BYTE	W12
	BYTE		N05   
	BYTE	W48
// 143   ----------------------------------------
	BYTE	W06
	BYTE	FINE

//**************** Track 7 (Midi-Chn.8) ****************//

WarClouds0_7:
	BYTE	KEYSH   WarClouds0_key+0
// 000   ----------------------------------------
	BYTE		PAN     c_v-4
	BYTE	W02
	BYTE		VOICE   68
	BYTE		MOD     0
	BYTE		VOL     38*WarClouds0_mvl/mxv
	BYTE		BEND    c_v+0
	BYTE	W21
	BYTE	W72
	BYTE	W01
// 001   ----------------------------------------
	BYTE	W96
// 002   ----------------------------------------
	BYTE	W24
	BYTE		TIE     Gn3   v108
	BYTE	W03
	BYTE	W03
	BYTE	W03
	BYTE	W03
	BYTE	W03
	BYTE	W03
	BYTE	W03
	BYTE	W03
	BYTE	W03
	BYTE	W03
	BYTE	W03
	BYTE	W03
	BYTE	W03
	BYTE	W03
	BYTE	W03
	BYTE	W03
	BYTE	W03
	BYTE	W03
	BYTE	W03
	BYTE	W03
	BYTE	W03
	BYTE	W03
	BYTE	W03
	BYTE	W03
// 003   ----------------------------------------
	BYTE	W03
	BYTE	W03
	BYTE	W03
	BYTE	W03
	BYTE	W03
	BYTE	W03
	BYTE	W03
	BYTE	W03
	BYTE	W03
	BYTE	W03
	BYTE	W03
	BYTE	W03
	BYTE	W03
	BYTE	W03
	BYTE	W03
	BYTE	W03
	BYTE	W03
	BYTE	W03
	BYTE	W03
	BYTE	W03
	BYTE	W03
	BYTE	W03
	BYTE	W03
	BYTE	W03
	BYTE	W03
	BYTE	W03
	BYTE	W03
	BYTE	W03
	BYTE	W03
	BYTE	W03
	BYTE	W03
	BYTE	W03
// 004   ----------------------------------------
	BYTE	W03
	BYTE	W03
	BYTE	W03
	BYTE	W03
	BYTE	W03
	BYTE	W03
	BYTE	W03
	BYTE	W03
	BYTE	W09
	BYTE	W05
	BYTE	W05
	BYTE	W05
	BYTE	W05
	BYTE	W04
	BYTE	W05
	BYTE	W05
	BYTE	W05
	BYTE	W05
	BYTE	W05
	BYTE	W05
	BYTE	W04
	BYTE	W05
// 005   ----------------------------------------
	BYTE	W05
	BYTE	W05
	BYTE	W05
	BYTE	W05
	BYTE	W05
	BYTE	W04
	BYTE	W05
	BYTE	W05
	BYTE	W05
	BYTE	W05
	BYTE	W05
	BYTE	W04
	BYTE	W05
	BYTE	W05
	BYTE	W05
	BYTE	W05
	BYTE	W05
	BYTE	W05
	BYTE	W04
	BYTE	W04
// 006   ----------------------------------------
	BYTE	W01
	BYTE	W05
	BYTE	W05
	BYTE	W05
	BYTE	W05
	BYTE	W05
	BYTE	W04
	BYTE		EOT   
	BYTE	W01
	BYTE	W64
	BYTE	W01
// 007   ----------------------------------------
	BYTE	W96
// 008   ----------------------------------------
	BYTE	W22
	BYTE	W02
	BYTE		TIE   
	BYTE	W12
	BYTE	W13
	BYTE	W14
	BYTE	W09
	BYTE	W04
	BYTE	W04
	BYTE	W05
	BYTE	W04
	BYTE	W04
	BYTE	W03
// 009   ----------------------------------------
	BYTE	W02
	BYTE	W04
	BYTE	W04
	BYTE	W04
	BYTE	W05
	BYTE	W04
	BYTE	W04
	BYTE	W05
	BYTE	W04
	BYTE	W04
	BYTE	W05
	BYTE	W04
	BYTE	W04
	BYTE	W04
	BYTE	W05
	BYTE	W04
	BYTE	W04
	BYTE	W05
	BYTE	W04
	BYTE	W04
	BYTE	W05
	BYTE	W04
	BYTE	W04
// 010   ----------------------------------------
	BYTE	W04
	BYTE	W05
	BYTE	W04
	BYTE	W04
	BYTE	W05
	BYTE	W04
	BYTE	W04
	BYTE		EOT   
	BYTE	W01
	BYTE	W64
	BYTE	W01
// 011   ----------------------------------------
	BYTE	W96
// 012   ----------------------------------------
	BYTE	W96
// 013   ----------------------------------------
	BYTE	W96
// 014   ----------------------------------------
	BYTE	W96
// 015   ----------------------------------------
	BYTE	W96
// 016   ----------------------------------------
	BYTE	W96
// 017   ----------------------------------------
	BYTE	W96
// 018   ----------------------------------------
	BYTE	W23
	BYTE	W01
	BYTE		TIE   
	BYTE	W15
	BYTE	W08
	BYTE	W07
	BYTE	W08
	BYTE	W08
	BYTE	W06
	BYTE	W03
	BYTE	W04
	BYTE	W03
	BYTE	W03
	BYTE	W03
	BYTE	W03
	BYTE	W01
// 019   ----------------------------------------
	BYTE	W02
	BYTE	W03
	BYTE	W03
	BYTE	W03
	BYTE	W03
	BYTE	W03
	BYTE	W03
	BYTE	W03
	BYTE	W03
	BYTE	W03
	BYTE	W01
	BYTE	W03
	BYTE	W03
	BYTE	W03
	BYTE	W03
	BYTE	W03
	BYTE	W03
	BYTE	W03
	BYTE	W03
	BYTE	W03
	BYTE	W03
	BYTE	W03
	BYTE	W03
	BYTE	W03
	BYTE	W03
	BYTE	W03
	BYTE	W03
	BYTE	W03
	BYTE	W03
	BYTE	W02
	BYTE	W01
	BYTE	W02
	BYTE	W01
	BYTE	W02
	BYTE	W01
	BYTE	W02
	BYTE	W01
// 020   ----------------------------------------
	BYTE	W02
	BYTE	W01
	BYTE	W02
	BYTE	W01
	BYTE	W02
	BYTE	W01
	BYTE	W02
	BYTE	W01
	BYTE	W02
	BYTE	W01
	BYTE	W02
	BYTE	W01
	BYTE	W02
	BYTE	W01
	BYTE	W02
	BYTE	W01
	BYTE	W02
	BYTE	W01
	BYTE	W02
	BYTE	W01
	BYTE		EOT   
	BYTE	W02
	BYTE	W56
	BYTE	W02
	BYTE	W06
// 021   ----------------------------------------
	BYTE	W96
// 022   ----------------------------------------
	BYTE	W96
// 023   ----------------------------------------
	BYTE	W96
// 024   ----------------------------------------
	BYTE	W96
// 025   ----------------------------------------
	BYTE	W96
// 026   ----------------------------------------
	BYTE	W96
// 027   ----------------------------------------
	BYTE	W96
// 028   ----------------------------------------
	BYTE	W96
// 029   ----------------------------------------
	BYTE	W96
// 030   ----------------------------------------
	BYTE	W96
// 031   ----------------------------------------
	BYTE	W96
// 032   ----------------------------------------
	BYTE	W96
// 033   ----------------------------------------
	BYTE	W96
// 034   ----------------------------------------
	BYTE	W96
// 035   ----------------------------------------
	BYTE	W96
// 036   ----------------------------------------
	BYTE	W96
// 037   ----------------------------------------
	BYTE	W96
// 038   ----------------------------------------
	BYTE	W96
// 039   ----------------------------------------
	BYTE	W96
// 040   ----------------------------------------
	BYTE	W96
// 041   ----------------------------------------
	BYTE	W17
	BYTE	W03
	BYTE	W03
	BYTE	W01
	BYTE		N92   
	BYTE	W02
	BYTE	W03
	BYTE	W03
	BYTE	W03
	BYTE	W03
	BYTE	W03
	BYTE	W03
	BYTE	W03
	BYTE	W03
	BYTE	W03
	BYTE	W03
	BYTE	W03
	BYTE	W03
	BYTE	W03
	BYTE	W03
	BYTE	W03
	BYTE	W03
	BYTE	W03
	BYTE	W03
	BYTE	W03
	BYTE	W03
	BYTE	W03
	BYTE	W03
	BYTE	W03
	BYTE	W01
// 042   ----------------------------------------
WarClouds0_7_042:
	BYTE	W02
	BYTE	W03
	BYTE	W03
	BYTE	W03
	BYTE	W03
	BYTE	W03
	BYTE	W03
	BYTE	W03
	BYTE	W01
	BYTE		N96     Dn3   v108
	BYTE	W72
	BYTE	PEND
// 043   ----------------------------------------
WarClouds0_7_043:
	BYTE	W24
	BYTE		N44     Fn3   v108
	BYTE	W48
	BYTE		        Ds3 
	BYTE	W24
	BYTE	PEND
// 044   ----------------------------------------
WarClouds0_7_044:
	BYTE	W24
	BYTE		N44     Dn3   v108
	BYTE	W48
	BYTE		        Gn3 
	BYTE	W24
	BYTE	PEND
// 045   ----------------------------------------
WarClouds0_7_045:
	BYTE	W24
	BYTE		N44     An3   v108
	BYTE	W48
	BYTE		        Cn4 
	BYTE	W24
	BYTE	PEND
// 046   ----------------------------------------
	BYTE	W24
	BYTE		N92     As3 
	BYTE	W72
// 047   ----------------------------------------
	BYTE	W24
	BYTE		        Cn4 
	BYTE	W72
// 048   ----------------------------------------
	BYTE	W24
	BYTE		N92   
	BYTE	W72
// 049   ----------------------------------------
WarClouds0_7_049:
	BYTE	W24
	BYTE		N44     As3   v108
	BYTE	W48
	BYTE		        An3 
	BYTE	W24
	BYTE	PEND
// 050   ----------------------------------------
	BYTE	W24
	BYTE		N92     Gn3 
	BYTE	W72
// 051   ----------------------------------------
	BYTE	W24
	BYTE		        Cn4 
	BYTE	W72
// 052   ----------------------------------------
	BYTE	W24
	BYTE		        Dn4 
	BYTE	W72
// 053   ----------------------------------------
	BYTE	W24
	BYTE		        Gn3 
	BYTE	W72
// 054   ----------------------------------------
	BYTE	W24
	BYTE		N92   
	BYTE	W72
// 055   ----------------------------------------
	BYTE	W24
	BYTE		        An3 
	BYTE	W72
// 056   ----------------------------------------
WarClouds0_7_056:
	BYTE	W24
	BYTE		TIE     Gn3   v108
	BYTE	W72
	BYTE	PEND
// 057   ----------------------------------------
	BYTE	W96
// 058   ----------------------------------------
	BYTE	W23
	BYTE		EOT   
	BYTE	W01
WarClouds0_7_B1:
	BYTE	W72
// 059   ----------------------------------------
	BYTE	W96
// 060   ----------------------------------------
	BYTE	W96
// 061   ----------------------------------------
	BYTE	W96
// 062   ----------------------------------------
	BYTE	W96
// 063   ----------------------------------------
	BYTE	W96
// 064   ----------------------------------------
	BYTE	W96
// 065   ----------------------------------------
	BYTE	W96
// 066   ----------------------------------------
	BYTE	W96
// 067   ----------------------------------------
	BYTE	W96
// 068   ----------------------------------------
	BYTE	W96
// 069   ----------------------------------------
	BYTE	W96
// 070   ----------------------------------------
	BYTE	W96
// 071   ----------------------------------------
	BYTE	W96
// 072   ----------------------------------------
	BYTE	W96
// 073   ----------------------------------------
	BYTE	W96
// 074   ----------------------------------------
	BYTE	W96
// 075   ----------------------------------------
	BYTE	W96
// 076   ----------------------------------------
	BYTE	W96
// 077   ----------------------------------------
	BYTE	W96
// 078   ----------------------------------------
	BYTE	W96
// 079   ----------------------------------------
	BYTE	W96
// 080   ----------------------------------------
	BYTE	W96
// 081   ----------------------------------------
	BYTE	W24
	BYTE		N48     Gs3   v120
	BYTE	W48
	BYTE		N24     As3 
	BYTE	W24
// 082   ----------------------------------------
	BYTE		        Cn4 
	BYTE	W24
	BYTE		N48     Dn4 
	BYTE	W48
	BYTE		N24     Cn4 
	BYTE	W24
// 083   ----------------------------------------
	BYTE		        Gn3 
	BYTE	W24
	BYTE		N48     Dn4 
	BYTE	W48
	BYTE		N24     Cn4 
	BYTE	W24
// 084   ----------------------------------------
	BYTE		        Gn3 
	BYTE	W24
	BYTE		N48     Ds4 
	BYTE	W48
	BYTE		N24     Dn4 
	BYTE	W24
// 085   ----------------------------------------
	BYTE		        Gs3 
	BYTE	W24
	BYTE		N48     Ds4 
	BYTE	W48
	BYTE		N24     Dn4 
	BYTE	W24
// 086   ----------------------------------------
	BYTE		        Ds4 
	BYTE	W24
	BYTE		N48     Fn4 
	BYTE	W48
	BYTE		N24     Ds4 
	BYTE	W24
// 087   ----------------------------------------
	BYTE		        Dn4 
	BYTE	W24
	BYTE		N48     Fn4 
	BYTE	W48
	BYTE		N24     Ds4 
	BYTE	W24
// 088   ----------------------------------------
	BYTE		        Fn4 
	BYTE	W24
	BYTE		N48   
	BYTE	W48
	BYTE		N24     Ds4 
	BYTE	W24
// 089   ----------------------------------------
	BYTE		        As3 
	BYTE	W24
	BYTE		N48     Dn4 
	BYTE	W48
	BYTE		N24     Cn4 
	BYTE	W24
// 090   ----------------------------------------
	BYTE		        Dn4 
	BYTE	W24
	BYTE		N48     Ds4 
	BYTE	W48
	BYTE		N24     Dn4 
	BYTE	W24
// 091   ----------------------------------------
	BYTE		        Ds4 
	BYTE	W24
	BYTE		N48     Fn4 
	BYTE	W48
	BYTE		N24     Dn4 
	BYTE	W24
// 092   ----------------------------------------
	BYTE		        As3 
	BYTE	W24
	BYTE		N96     Cn4 
	BYTE	W72
// 093   ----------------------------------------
	BYTE	W24
	BYTE		N48     Ds4 
	BYTE	W48
	BYTE		        Fn4 
	BYTE	W24
// 094   ----------------------------------------
	BYTE	W24
	BYTE		        Gn4 
	BYTE	W48
	BYTE		N24     Fn4 
	BYTE	W24
// 095   ----------------------------------------
	BYTE		        Gn4 
	BYTE	W24
	BYTE		N48     Fn4 
	BYTE	W48
	BYTE		N24     Dn4 
	BYTE	W24
// 096   ----------------------------------------
	BYTE		        As3 
	BYTE	W24
	BYTE		TIE     Dn4 
	BYTE	W72
// 097   ----------------------------------------
	BYTE	W96
// 098   ----------------------------------------
	BYTE	W24
	BYTE		EOT   
	BYTE	W72
// 099   ----------------------------------------
	BYTE	W96
// 100   ----------------------------------------
	BYTE	W96
// 101   ----------------------------------------
	BYTE	W96
// 102   ----------------------------------------
	BYTE	W96
// 103   ----------------------------------------
	BYTE	W96
// 104   ----------------------------------------
	BYTE	W96
// 105   ----------------------------------------
	BYTE	W96
// 106   ----------------------------------------
	BYTE	W96
// 107   ----------------------------------------
	BYTE	W96
// 108   ----------------------------------------
	BYTE	W96
// 109   ----------------------------------------
	BYTE	W96
// 110   ----------------------------------------
	BYTE	W96
// 111   ----------------------------------------
	BYTE	W96
// 112   ----------------------------------------
	BYTE	W96
// 113   ----------------------------------------
	BYTE	W96
// 114   ----------------------------------------
	BYTE	W96
// 115   ----------------------------------------
	BYTE	W96
// 116   ----------------------------------------
	BYTE	W96
// 117   ----------------------------------------
	BYTE	W96
// 118   ----------------------------------------
	BYTE	W96
// 119   ----------------------------------------
	BYTE	W96
// 120   ----------------------------------------
	BYTE	W96
// 121   ----------------------------------------
	BYTE	W05
	BYTE	W01
	BYTE	W17
	BYTE	W01
	BYTE		N92     Gn3   v108
	BYTE	W02
	BYTE	W03
	BYTE	W03
	BYTE	W03
	BYTE	W03
	BYTE	W03
	BYTE	W03
	BYTE	W03
	BYTE	W03
	BYTE	W03
	BYTE	W03
	BYTE	W03
	BYTE	W03
	BYTE	W03
	BYTE	W03
	BYTE	W03
	BYTE	W03
	BYTE	W03
	BYTE	W03
	BYTE	W03
	BYTE	W03
	BYTE	W03
	BYTE	W03
	BYTE	W03
	BYTE	W01
// 122   ----------------------------------------
	BYTE	PATT
	 POIN2	WarClouds0_7_042
// 123   ----------------------------------------
	BYTE	PATT
	 POIN2	WarClouds0_7_043
// 124   ----------------------------------------
	BYTE	PATT
	 POIN2	WarClouds0_7_044
// 125   ----------------------------------------
	BYTE	PATT
	 POIN2	WarClouds0_7_045
// 126   ----------------------------------------
	BYTE	W24
	BYTE		N92     As3   v108
	BYTE	W72
// 127   ----------------------------------------
	BYTE	W24
	BYTE		        Cn4 
	BYTE	W72
// 128   ----------------------------------------
	BYTE	W24
	BYTE		N92   
	BYTE	W72
// 129   ----------------------------------------
	BYTE	PATT
	 POIN2	WarClouds0_7_049
// 130   ----------------------------------------
	BYTE	W24
	BYTE		N92     Gn3   v108
	BYTE	W72
// 131   ----------------------------------------
	BYTE	W24
	BYTE		        Cn4 
	BYTE	W72
// 132   ----------------------------------------
	BYTE	W24
	BYTE		        Dn4 
	BYTE	W72
// 133   ----------------------------------------
	BYTE	W24
	BYTE		        Gn3 
	BYTE	W72
// 134   ----------------------------------------
	BYTE	W24
	BYTE		N92   
	BYTE	W72
// 135   ----------------------------------------
	BYTE	W24
	BYTE		        An3 
	BYTE	W72
// 136   ----------------------------------------
	BYTE	W24
	BYTE		N96     As3 
	BYTE	W72
// 137   ----------------------------------------
	BYTE	W24
	BYTE		        Cn4 
	BYTE	W72
// 138   ----------------------------------------
	BYTE	W24
	BYTE		N92     Gn3 
	BYTE	W72
// 139   ----------------------------------------
	BYTE	W24
	BYTE		        An3 
	BYTE	W72
// 140   ----------------------------------------
	BYTE	PATT
	 POIN2	WarClouds0_7_056
// 141   ----------------------------------------
	BYTE	W96
// 142   ----------------------------------------
	BYTE	W23
	BYTE		EOT     Gn3 
	BYTE	W01
	BYTE	GoTo
	 POIN2	WarClouds0_7_B1
WarClouds0_7_B2:
	BYTE	W72
// 143   ----------------------------------------
	BYTE	W06
	BYTE	FINE

//**************** Track 8 (Midi-Chn.9) ****************//

WarClouds0_8:
	BYTE	KEYSH   WarClouds0_key+0
// 000   ----------------------------------------
	BYTE		PAN     c_v-4
	BYTE	W02
	BYTE		VOICE   71
	BYTE		MOD     0
	BYTE		VOL     43*WarClouds0_mvl/mxv
	BYTE		BEND    c_v+0
	BYTE	W21
	BYTE	W72
	BYTE	W01
// 001   ----------------------------------------
	BYTE	W96
// 002   ----------------------------------------
	BYTE	W96
// 003   ----------------------------------------
	BYTE	W96
// 004   ----------------------------------------
	BYTE	W96
// 005   ----------------------------------------
	BYTE	W96
// 006   ----------------------------------------
	BYTE	W96
// 007   ----------------------------------------
	BYTE	W96
// 008   ----------------------------------------
	BYTE	W96
// 009   ----------------------------------------
	BYTE	W96
// 010   ----------------------------------------
	BYTE	W96
// 011   ----------------------------------------
	BYTE	W96
// 012   ----------------------------------------
	BYTE	W96
// 013   ----------------------------------------
	BYTE	W96
// 014   ----------------------------------------
	BYTE	W96
// 015   ----------------------------------------
	BYTE	W96
// 016   ----------------------------------------
	BYTE	W96
// 017   ----------------------------------------
	BYTE	W96
// 018   ----------------------------------------
	BYTE	W96
// 019   ----------------------------------------
	BYTE	W96
// 020   ----------------------------------------
	BYTE	W96
// 021   ----------------------------------------
	BYTE	W96
// 022   ----------------------------------------
	BYTE	W96
// 023   ----------------------------------------
	BYTE	W96
// 024   ----------------------------------------
	BYTE	W96
// 025   ----------------------------------------
	BYTE	W96
// 026   ----------------------------------------
	BYTE	W96
// 027   ----------------------------------------
	BYTE	W96
// 028   ----------------------------------------
	BYTE	W96
// 029   ----------------------------------------
	BYTE	W96
// 030   ----------------------------------------
	BYTE	W96
// 031   ----------------------------------------
	BYTE	W96
// 032   ----------------------------------------
	BYTE	W96
// 033   ----------------------------------------
	BYTE	W96
// 034   ----------------------------------------
	BYTE	W96
// 035   ----------------------------------------
	BYTE	W96
// 036   ----------------------------------------
	BYTE	W96
// 037   ----------------------------------------
	BYTE	W96
// 038   ----------------------------------------
	BYTE	W96
// 039   ----------------------------------------
	BYTE	W96
// 040   ----------------------------------------
	BYTE	W96
// 041   ----------------------------------------
	BYTE	W96
// 042   ----------------------------------------
WarClouds0_8_042:
	BYTE	W24
	BYTE		N05     Gn3   v127
	BYTE		N05     As3 
	BYTE	W06
	BYTE		        Dn3 
	BYTE		N05     Gn3 
	BYTE	W06
	BYTE		N05   
	BYTE		N05     As3 
	BYTE	W06
	BYTE		N05   
	BYTE		N05     Dn4 
	BYTE	W06
	BYTE		        Gn3 
	BYTE		N05     As3 
	BYTE	W06
	BYTE		        Dn3 
	BYTE		N05     Gn3 
	BYTE	W06
	BYTE		        As2 
	BYTE		N05     Dn3 
	BYTE	W06
	BYTE		N05   
	BYTE		N05     Gn3 
	BYTE	W06
	BYTE		N05   
	BYTE		N05     As3 
	BYTE	W06
	BYTE		        Dn3 
	BYTE		N05     Gn3 
	BYTE	W06
	BYTE		N05   
	BYTE		N05     As3 
	BYTE	W06
	BYTE		N05   
	BYTE		N05     Dn4 
	BYTE	W06
	BYTE	PEND
// 043   ----------------------------------------
WarClouds0_8_043:
	BYTE		N05     Gn3   v127
	BYTE		N05     As3 
	BYTE	W06
	BYTE		        Dn3 
	BYTE		N05     Gn3 
	BYTE	W06
	BYTE		        As2 
	BYTE		N05     Dn3 
	BYTE	W06
	BYTE		N05   
	BYTE		N05     Gn3 
	BYTE	W06
	BYTE		N05   
	BYTE		N05     As3 
	BYTE	W06
	BYTE		        Dn3 
	BYTE		N05     Gn3 
	BYTE	W06
	BYTE		N05   
	BYTE		N05     As3 
	BYTE	W06
	BYTE		N05   
	BYTE		N05     Dn4 
	BYTE	W06
	BYTE		        Gn3 
	BYTE		N05     As3 
	BYTE	W06
	BYTE		        Dn3 
	BYTE		N05     Gn3 
	BYTE	W06
	BYTE		        As2 
	BYTE		N05     Dn3 
	BYTE	W06
	BYTE		N05   
	BYTE		N05     Gn3 
	BYTE	W06
	BYTE		N05   
	BYTE		N05     Cn4 
	BYTE	W06
	BYTE		        Ds3 
	BYTE		N05     Gn3 
	BYTE	W06
	BYTE		        Cn3 
	BYTE		N05     Ds3 
	BYTE	W06
	BYTE		N05   
	BYTE		N05     Gn3 
	BYTE	W06
	BYTE	PEND
// 044   ----------------------------------------
WarClouds0_8_044:
	BYTE		N05     Gn3   v127
	BYTE		N05     Cn4 
	BYTE	W06
	BYTE		        Ds3 
	BYTE		N05     Gn3 
	BYTE	W06
	BYTE		        Cn3 
	BYTE		N05     Ds3 
	BYTE	W06
	BYTE		N05   
	BYTE		N05     Gn3 
	BYTE	W06
	BYTE		N05   
	BYTE		N05     As3 
	BYTE	W06
	BYTE		        Dn3 
	BYTE		N05     Gn3 
	BYTE	W06
	BYTE		N05   
	BYTE		N05     As3 
	BYTE	W06
	BYTE		N05   
	BYTE		N05     Dn4 
	BYTE	W06
	BYTE		        Gn3 
	BYTE		N05     As3 
	BYTE	W06
	BYTE		        Dn3 
	BYTE		N05     Gn3 
	BYTE	W06
	BYTE		        As2 
	BYTE		N05     Dn3 
	BYTE	W06
	BYTE		N05   
	BYTE		N05     Gn3 
	BYTE	W06
	BYTE		N05   
	BYTE		N05     As3 
	BYTE	W06
	BYTE		        Dn3 
	BYTE		N05     Gn3 
	BYTE	W06
	BYTE		N05   
	BYTE		N05     As3 
	BYTE	W06
	BYTE		N05   
	BYTE		N05     Dn4 
	BYTE	W06
	BYTE	PEND
// 045   ----------------------------------------
WarClouds0_8_045:
	BYTE		N05     Gn3   v127
	BYTE		N05     As3 
	BYTE	W06
	BYTE		        Dn3 
	BYTE		N05     Gn3 
	BYTE	W06
	BYTE		        As2 
	BYTE		N05     Dn3 
	BYTE	W06
	BYTE		N05   
	BYTE		N05     Gn3 
	BYTE	W06
	BYTE		        Fn3 
	BYTE		N05     An3 
	BYTE	W06
	BYTE		        Cn3 
	BYTE		N05     Fn3 
	BYTE	W06
	BYTE		N05   
	BYTE		N05     An3 
	BYTE	W06
	BYTE		N05   
	BYTE		N05     Cn4 
	BYTE	W06
	BYTE		N05   
	BYTE		N05     Fn4 
	BYTE	W06
	BYTE		        Fn3 
	BYTE		N05     An3 
	BYTE	W06
	BYTE		N05   
	BYTE		N05     Cn4 
	BYTE	W06
	BYTE		        Fn3 
	BYTE		N05     An3 
	BYTE	W06
	BYTE		        Fn3 
	BYTE		N05     An3 
	BYTE	W06
	BYTE		        Cn3 
	BYTE		N05     Fn3 
	BYTE	W06
	BYTE		N05   
	BYTE		N05     An3 
	BYTE	W06
	BYTE		N05   
	BYTE		N05     Cn4 
	BYTE	W06
	BYTE	PEND
// 046   ----------------------------------------
WarClouds0_8_046:
	BYTE		N05     Cn4   v127
	BYTE		N05     Fn4 
	BYTE	W06
	BYTE		        Fn3 
	BYTE		N05     An3 
	BYTE	W06
	BYTE		N05   
	BYTE		N05     Cn4 
	BYTE	W06
	BYTE		        Fn3 
	BYTE		N05     An3 
	BYTE	W06
	BYTE		        Gn3 
	BYTE		N05     As3 
	BYTE	W06
	BYTE		        Dn3 
	BYTE		N05     Gn3 
	BYTE	W06
	BYTE		N05   
	BYTE		N05     As3 
	BYTE	W06
	BYTE		N05   
	BYTE		N05     Dn4 
	BYTE	W06
	BYTE		        Gn3 
	BYTE		N05     As3 
	BYTE	W06
	BYTE		        Dn3 
	BYTE		N05     Gn3 
	BYTE	W06
	BYTE		        As2 
	BYTE		N05     Dn3 
	BYTE	W06
	BYTE		N05   
	BYTE		N05     Gn3 
	BYTE	W06
	BYTE		N05   
	BYTE		N05     As3 
	BYTE	W06
	BYTE		        Dn3 
	BYTE		N05     Gn3 
	BYTE	W06
	BYTE		N05   
	BYTE		N05     As3 
	BYTE	W06
	BYTE		N05   
	BYTE		N05     Dn4 
	BYTE	W06
	BYTE	PEND
// 047   ----------------------------------------
WarClouds0_8_047:
	BYTE		N05     Gn3   v127
	BYTE		N05     As3 
	BYTE	W06
	BYTE		        Dn3 
	BYTE		N05     Gn3 
	BYTE	W06
	BYTE		        As2 
	BYTE		N05     Dn3 
	BYTE	W06
	BYTE		N05   
	BYTE		N05     Gn3 
	BYTE	W06
	BYTE		        An3 
	BYTE		N05     Cn4 
	BYTE	W06
	BYTE		        Fn3 
	BYTE		N05     An3 
	BYTE	W06
	BYTE		        Cn3 
	BYTE		N05     Fn3 
	BYTE	W06
	BYTE		N05   
	BYTE		N05     An3 
	BYTE	W06
	BYTE		N05   
	BYTE		N05     Cn4 
	BYTE	W06
	BYTE		        Fn3 
	BYTE		N05     An3 
	BYTE	W06
	BYTE		        Cn3 
	BYTE		N05     Fn3 
	BYTE	W06
	BYTE		        An3 
	BYTE		N05     Cn4 
	BYTE	W06
	BYTE		        An3 
	BYTE		N05     Cn4 
	BYTE	W06
	BYTE		        Fn3 
	BYTE		N05     An3 
	BYTE	W06
	BYTE		        Cn3 
	BYTE		N05     Fn3 
	BYTE	W06
	BYTE		N05   
	BYTE		N05     An3 
	BYTE	W06
	BYTE	PEND
// 048   ----------------------------------------
WarClouds0_8_048:
	BYTE		N05     An3   v127
	BYTE		N05     Cn4 
	BYTE	W06
	BYTE		        Fn3 
	BYTE		N05     An3 
	BYTE	W06
	BYTE		        Cn3 
	BYTE		N05     Fn3 
	BYTE	W06
	BYTE		        An3 
	BYTE		N05     Cn4 
	BYTE	W06
	BYTE		        An3 
	BYTE		N05     Cn4 
	BYTE	W06
	BYTE		        Fn3 
	BYTE		N05     An3 
	BYTE	W06
	BYTE		        Cn3 
	BYTE		N05     Fn3 
	BYTE	W06
	BYTE		N05   
	BYTE		N05     An3 
	BYTE	W06
	BYTE		N05   
	BYTE		N05     Cn4 
	BYTE	W06
	BYTE		        Fn3 
	BYTE		N05     An3 
	BYTE	W06
	BYTE		        Cn3 
	BYTE		N05     Fn3 
	BYTE	W06
	BYTE		        An3 
	BYTE		N05     Cn4 
	BYTE	W06
	BYTE		        An3 
	BYTE		N05     Cn4 
	BYTE	W06
	BYTE		        Fn3 
	BYTE		N05     An3 
	BYTE	W06
	BYTE		        Cn3 
	BYTE		N05     Fn3 
	BYTE	W06
	BYTE		N05   
	BYTE		N05     An3 
	BYTE	W06
	BYTE	PEND
// 049   ----------------------------------------
WarClouds0_8_049:
	BYTE		N05     An3   v127
	BYTE		N05     Cn4 
	BYTE	W06
	BYTE		        Fn3 
	BYTE		N05     An3 
	BYTE	W06
	BYTE		        Cn3 
	BYTE		N05     Fn3 
	BYTE	W06
	BYTE		        An3 
	BYTE		N05     Cn4 
	BYTE	W06
	BYTE		        Gn3 
	BYTE		N05     As3 
	BYTE	W06
	BYTE		        Dn3 
	BYTE		N05     Gn3 
	BYTE	W06
	BYTE		N05   
	BYTE		N05     As3 
	BYTE	W06
	BYTE		N05   
	BYTE		N05     Dn4 
	BYTE	W06
	BYTE		        Gn3 
	BYTE		N05     As3 
	BYTE	W06
	BYTE		        Dn3 
	BYTE		N05     Gn3 
	BYTE	W06
	BYTE		        As2 
	BYTE		N05     Dn3 
	BYTE	W06
	BYTE		N05   
	BYTE		N05     Gn3 
	BYTE	W06
	BYTE		N05   
	BYTE		N05     As3 
	BYTE	W06
	BYTE		        Dn3 
	BYTE		N05     Gn3 
	BYTE	W06
	BYTE		N05   
	BYTE		N05     As3 
	BYTE	W06
	BYTE		N05   
	BYTE		N05     Dn4 
	BYTE	W06
	BYTE	PEND
// 050   ----------------------------------------
WarClouds0_8_050:
	BYTE		N05     Gn3   v127
	BYTE		N05     As3 
	BYTE	W06
	BYTE		        Dn3 
	BYTE		N05     Gn3 
	BYTE	W06
	BYTE		        As2 
	BYTE		N05     Dn3 
	BYTE	W06
	BYTE		N05   
	BYTE		N05     Gn3 
	BYTE	W06
	BYTE		        Cn4 
	BYTE		N05     Ds4 
	BYTE	W06
	BYTE		        Gn3 
	BYTE		N05     Cn4 
	BYTE	W06
	BYTE		        Ds3 
	BYTE		N05     Gn3 
	BYTE	W06
	BYTE		        Cn3 
	BYTE		N05     Ds3 
	BYTE	W06
	BYTE		        Gn3 
	BYTE		N05     Cn4 
	BYTE	W06
	BYTE		        Ds3 
	BYTE		N05     Gn3 
	BYTE	W06
	BYTE		        Cn3 
	BYTE		N05     Ds3 
	BYTE	W06
	BYTE		N05   
	BYTE		N05     Gn3 
	BYTE	W06
	BYTE		        Cn4 
	BYTE		N05     Ds4 
	BYTE	W06
	BYTE		        Gn3 
	BYTE		N05     Cn4 
	BYTE	W06
	BYTE		        Ds3 
	BYTE		N05     Gn3 
	BYTE	W06
	BYTE		N05   
	BYTE		N05     Cn4 
	BYTE	W06
	BYTE	PEND
// 051   ----------------------------------------
WarClouds0_8_051:
	BYTE		N05     Cn3   v127
	BYTE		N05     Ds3 
	BYTE	W06
	BYTE		        Gn3 
	BYTE		N05     Cn4 
	BYTE	W06
	BYTE		        Cn3 
	BYTE		N05     Ds3 
	BYTE	W06
	BYTE		N05   
	BYTE		N05     Gn3 
	BYTE	W06
	BYTE		        An3 
	BYTE		N05     Cn4 
	BYTE	W06
	BYTE		        Fn3 
	BYTE		N05     An3 
	BYTE	W06
	BYTE		        Cn3 
	BYTE		N05     Fn3 
	BYTE	W06
	BYTE		N05   
	BYTE		N05     An3 
	BYTE	W06
	BYTE		N05   
	BYTE		N05     Cn4 
	BYTE	W06
	BYTE		        Fn3 
	BYTE		N05     An3 
	BYTE	W06
	BYTE		        Cn3 
	BYTE		N05     Fn3 
	BYTE	W06
	BYTE		        An3 
	BYTE		N05     Cn4 
	BYTE	W06
	BYTE		        An3 
	BYTE		N05     Cn4 
	BYTE	W06
	BYTE		        Fn3 
	BYTE		N05     An3 
	BYTE	W06
	BYTE		        Cn3 
	BYTE		N05     Fn3 
	BYTE	W06
	BYTE		N05   
	BYTE		N05     An3 
	BYTE	W06
	BYTE	PEND
// 052   ----------------------------------------
	BYTE	PATT
	 POIN2	WarClouds0_8_049
// 053   ----------------------------------------
WarClouds0_8_053:
	BYTE		N05     Gn3   v127
	BYTE		N05     As3 
	BYTE	W06
	BYTE		        Dn3 
	BYTE		N05     Gn3 
	BYTE	W06
	BYTE		        As2 
	BYTE		N05     Dn3 
	BYTE	W06
	BYTE		N05   
	BYTE		N05     Gn3 
	BYTE	W06
	BYTE		N05   
	BYTE		N05     As3 
	BYTE	W06
	BYTE		        Dn3 
	BYTE		N05     Gn3 
	BYTE	W06
	BYTE		N05   
	BYTE		N05     As3 
	BYTE	W06
	BYTE		N05   
	BYTE		N05     Dn4 
	BYTE	W06
	BYTE		        Gn3 
	BYTE		N05     As3 
	BYTE	W06
	BYTE		        Dn3 
	BYTE		N05     Gn3 
	BYTE	W06
	BYTE		        As2 
	BYTE		N05     Dn3 
	BYTE	W06
	BYTE		N05   
	BYTE		N05     Gn3 
	BYTE	W06
	BYTE		N05   
	BYTE		N05     As3 
	BYTE	W06
	BYTE		        Dn3 
	BYTE		N05     Gn3 
	BYTE	W06
	BYTE		N05   
	BYTE		N05     As3 
	BYTE	W06
	BYTE		N05   
	BYTE		N05     Dn4 
	BYTE	W06
	BYTE	PEND
// 054   ----------------------------------------
	BYTE	PATT
	 POIN2	WarClouds0_8_053
// 055   ----------------------------------------
	BYTE	PATT
	 POIN2	WarClouds0_8_047
// 056   ----------------------------------------
WarClouds0_8_056:
	BYTE		N05     An3   v127
	BYTE		N05     Cn4 
	BYTE	W06
	BYTE		        Fn3 
	BYTE		N05     An3 
	BYTE	W06
	BYTE		        Cn3 
	BYTE		N05     Fn3 
	BYTE	W06
	BYTE		        An3 
	BYTE		N05     Cn4 
	BYTE	W06
	BYTE		        Dn4 
	BYTE		N05     Gn4 
	BYTE	W06
	BYTE		        Gn3 
	BYTE		N05     Dn4 
	BYTE	W06
	BYTE		        Gn3 
	BYTE		N05     Cn4 
	BYTE	W06
	BYTE		        Gn3 
	BYTE		N05     Dn4 
	BYTE	W06
	BYTE		        Gn3 
	BYTE		N05     Cn4 
	BYTE	W06
	BYTE		        Dn3 
	BYTE		N05     Gn3 
	BYTE	W06
	BYTE		N05   
	BYTE		N05     Cn4 
	BYTE	W06
	BYTE		        Dn3 
	BYTE		N05     Gn3 
	BYTE	W06
	BYTE		        Dn4 
	BYTE		N05     Gn4 
	BYTE	W06
	BYTE		        Gn3 
	BYTE		N05     Dn4 
	BYTE	W06
	BYTE		        Gn3 
	BYTE		N05     Cn4 
	BYTE	W06
	BYTE		        Gn3 
	BYTE		N05     Dn4 
	BYTE	W06
	BYTE	PEND
// 057   ----------------------------------------
WarClouds0_8_057:
	BYTE		N05     Gn3   v127
	BYTE		N05     Cn4 
	BYTE	W06
	BYTE		        Dn3 
	BYTE		N05     Gn3 
	BYTE	W06
	BYTE		N05   
	BYTE		N05     Cn4 
	BYTE	W06
	BYTE		        Dn3 
	BYTE		N05     Gn3 
	BYTE	W06
	BYTE		        Dn4 
	BYTE		N05     Gn4 
	BYTE	W06
	BYTE		        Gn3 
	BYTE		N05     Dn4 
	BYTE	W06
	BYTE		        Gn3 
	BYTE		N05     Cn4 
	BYTE	W06
	BYTE		        Gn3 
	BYTE		N05     Dn4 
	BYTE	W06
	BYTE		        Gn3 
	BYTE		N05     Cn4 
	BYTE	W06
	BYTE		        Dn3 
	BYTE		N05     Gn3 
	BYTE	W06
	BYTE		N05   
	BYTE		N05     Cn4 
	BYTE	W06
	BYTE		        Dn3 
	BYTE		N05     Gn3 
	BYTE	W06
	BYTE		        Dn4 
	BYTE		N05     Gn4 
	BYTE	W06
	BYTE		        Gn3 
	BYTE		N05     Dn4 
	BYTE	W06
	BYTE		        Gn3 
	BYTE		N05     Cn4 
	BYTE	W06
	BYTE		        Gn3 
	BYTE		N05     Dn4 
	BYTE	W06
	BYTE	PEND
// 058   ----------------------------------------
WarClouds0_8_058:
	BYTE		N05     Gn3   v127
	BYTE		N05     Cn4 
	BYTE	W06
	BYTE		        Dn3 
	BYTE		N05     Gn3 
	BYTE	W06
	BYTE		N05   
	BYTE		N05     Cn4 
	BYTE	W06
	BYTE		        Dn3 
	BYTE		N05     Gn3 
	BYTE	W06
	BYTE	PEND
WarClouds0_8_B1:
	BYTE	W72
// 059   ----------------------------------------
	BYTE	W96
// 060   ----------------------------------------
	BYTE	W96
// 061   ----------------------------------------
	BYTE	W96
// 062   ----------------------------------------
	BYTE	W96
// 063   ----------------------------------------
	BYTE	W96
// 064   ----------------------------------------
	BYTE	W96
// 065   ----------------------------------------
	BYTE	W96
// 066   ----------------------------------------
	BYTE	W96
// 067   ----------------------------------------
	BYTE	W96
// 068   ----------------------------------------
	BYTE	W96
// 069   ----------------------------------------
	BYTE	W96
// 070   ----------------------------------------
	BYTE	W96
// 071   ----------------------------------------
	BYTE	W96
// 072   ----------------------------------------
	BYTE	W96
// 073   ----------------------------------------
	BYTE	W72
	BYTE		N07     Ds4   v127
	BYTE	W08
	BYTE		        Gn4 
	BYTE	W08
	BYTE		        Ds4 
	BYTE	W08
// 074   ----------------------------------------
	BYTE		        Dn4 
	BYTE	W08
	BYTE		        Gn4 
	BYTE	W08
	BYTE		        Dn4 
	BYTE	W08
	BYTE		N44     Cn4   v112
	BYTE		N44     Ds4 
	BYTE	W48
	BYTE		N23     As3 
	BYTE		N23     Dn4 
	BYTE	W24
// 075   ----------------------------------------
	BYTE		        Ds3 
	BYTE		N23     Gn3 
	BYTE	W24
	BYTE		N44     Cn4 
	BYTE		N44     Ds4 
	BYTE	W48
	BYTE		N23     As3 
	BYTE		N23     Dn4 
	BYTE	W24
// 076   ----------------------------------------
	BYTE		        Ds3 
	BYTE		N23     Gn3 
	BYTE	W24
	BYTE		N44     Cn4 
	BYTE		N44     Ds4 
	BYTE	W48
	BYTE		N23     Gs3 
	BYTE		N23     Dn4 
	BYTE	W24
// 077   ----------------------------------------
	BYTE		        Fn3 
	BYTE		N23     Gs3 
	BYTE	W24
	BYTE		N44     Cn4 
	BYTE		N44     Ds4 
	BYTE	W48
	BYTE		N23     Gs3 
	BYTE		N23     Dn4 
	BYTE	W24
// 078   ----------------------------------------
	BYTE		        Fn3 
	BYTE		N23     Gs3 
	BYTE	W24
	BYTE		N44     Dn4 
	BYTE		N44     Fn4 
	BYTE	W48
	BYTE		N23     Cn4 
	BYTE		N23     Ds4 
	BYTE	W24
// 079   ----------------------------------------
	BYTE		        As3 
	BYTE		N23     Dn4 
	BYTE	W24
	BYTE		N44   
	BYTE		N44     Fn4 
	BYTE	W48
	BYTE		N23     Cn4 
	BYTE		N23     Ds4 
	BYTE	W24
// 080   ----------------------------------------
	BYTE		        Dn4 
	BYTE		N23     Fn4 
	BYTE	W24
	BYTE		N44   
	BYTE		N44     Gs4 
	BYTE	W48
	BYTE		N23     Ds4 
	BYTE		N23     Gn4 
	BYTE	W24
// 081   ----------------------------------------
	BYTE		        Cn4 
	BYTE		N23     Fn4 
	BYTE	W24
	BYTE		N44   
	BYTE		N44     Gs4 
	BYTE	W48
	BYTE		N23     Gn4 
	BYTE		N23     As4 
	BYTE	W24
// 082   ----------------------------------------
	BYTE		        Fn4 
	BYTE		N23     Gs4 
	BYTE	W96
// 083   ----------------------------------------
	BYTE	W96
// 084   ----------------------------------------
	BYTE	W96
// 085   ----------------------------------------
	BYTE	W96
// 086   ----------------------------------------
	BYTE	W96
// 087   ----------------------------------------
	BYTE	W96
// 088   ----------------------------------------
	BYTE	W96
// 089   ----------------------------------------
	BYTE	W96
// 090   ----------------------------------------
	BYTE	W24
	BYTE		N05     Gs3   v127
	BYTE		N05     Cn4 
	BYTE	W06
	BYTE		        Ds3 
	BYTE		N05     Gs3 
	BYTE	W06
	BYTE		N05   
	BYTE		N05     Cn4 
	BYTE	W06
	BYTE		N05   
	BYTE		N05     Ds4 
	BYTE	W06
	BYTE		        Cn4 
	BYTE		N05     Ds4 
	BYTE	W06
	BYTE		        Ds3 
	BYTE		N05     Gs3 
	BYTE	W06
	BYTE		N05   
	BYTE		N05     Cn4 
	BYTE	W06
	BYTE		N05   
	BYTE		N05     Ds4 
	BYTE	W06
	BYTE		        Gs3 
	BYTE		N05     Cn4 
	BYTE	W06
	BYTE		        Ds3 
	BYTE		N05     Gs3 
	BYTE	W06
	BYTE		N05   
	BYTE		N05     Cn4 
	BYTE	W06
	BYTE		N05   
	BYTE		N05     Ds4 
	BYTE	W06
// 091   ----------------------------------------
	BYTE		        Cn4 
	BYTE		N05     Ds4 
	BYTE	W06
	BYTE		        Ds3 
	BYTE		N05     Gs3 
	BYTE	W06
	BYTE		N05   
	BYTE		N05     Cn4 
	BYTE	W06
	BYTE		N05   
	BYTE		N05     Ds4 
	BYTE	W06
	BYTE		        As3 
	BYTE		N05     Dn4 
	BYTE	W06
	BYTE		        Fn3 
	BYTE		N05     As3 
	BYTE	W06
	BYTE		N05   
	BYTE		N05     Dn4 
	BYTE	W06
	BYTE		N05   
	BYTE		N05     Fn4 
	BYTE	W06
	BYTE		        Dn4 
	BYTE		N05     Fn4 
	BYTE	W06
	BYTE		        Fn3 
	BYTE		N05     As3 
	BYTE	W06
	BYTE		N05   
	BYTE		N05     Dn4 
	BYTE	W06
	BYTE		N05   
	BYTE		N05     Fn4 
	BYTE	W06
	BYTE		        As3 
	BYTE		N05     Dn4 
	BYTE	W06
	BYTE		        Fn3 
	BYTE		N05     As3 
	BYTE	W06
	BYTE		N05   
	BYTE		N05     Dn4 
	BYTE	W06
	BYTE		N05   
	BYTE		N05     Fn4 
	BYTE	W06
// 092   ----------------------------------------
	BYTE		        Dn4 
	BYTE		N05     Fn4 
	BYTE	W06
	BYTE		        Fn3 
	BYTE		N05     As3 
	BYTE	W06
	BYTE		N05   
	BYTE		N05     Dn4 
	BYTE	W06
	BYTE		N05   
	BYTE		N05     Fn4 
	BYTE	W06
	BYTE		        Gn3 
	BYTE		N05     Dn4 
	BYTE	W06
	BYTE		        Dn3 
	BYTE		N05     Gn3 
	BYTE	W06
	BYTE		N05   
	BYTE		N05     Cn4 
	BYTE	W06
	BYTE		        Gn3 
	BYTE		N05     Dn4 
	BYTE	W06
	BYTE		N05   
	BYTE		N05     Gn4 
	BYTE	W06
	BYTE		        Gn3 
	BYTE		N05     Dn4 
	BYTE	W06
	BYTE		        Gn3 
	BYTE		N05     Cn4 
	BYTE	W06
	BYTE		        Gn3 
	BYTE		N05     Dn4 
	BYTE	W06
	BYTE		        Gn3 
	BYTE		N05     Dn4 
	BYTE	W06
	BYTE		        Dn3 
	BYTE		N05     Gn3 
	BYTE	W06
	BYTE		N05   
	BYTE		N05     Cn4 
	BYTE	W06
	BYTE		        Gn3 
	BYTE		N05     Dn4 
	BYTE	W06
// 093   ----------------------------------------
	BYTE		N05   
	BYTE		N05     Gn4 
	BYTE	W06
	BYTE		        Gn3 
	BYTE		N05     Dn4 
	BYTE	W06
	BYTE		        Gn3 
	BYTE		N05     Cn4 
	BYTE	W06
	BYTE		        Gn3 
	BYTE		N05     Dn4 
	BYTE	W06
	BYTE		        Cn4 
	BYTE		N05     Fn4 
	BYTE	W06
	BYTE		        Fn3 
	BYTE		N05     Cn4 
	BYTE	W06
	BYTE		        Gs3 
	BYTE		N05     Cn4 
	BYTE	W06
	BYTE		N05   
	BYTE		N05     Fn4 
	BYTE	W06
	BYTE		        Gs3 
	BYTE		N05     Cn4 
	BYTE	W06
	BYTE		        Cs3 
	BYTE		N05     Fn3 
	BYTE	W06
	BYTE		N05   
	BYTE		N05     Gs3 
	BYTE	W06
	BYTE		N05   
	BYTE		N05     Cn4 
	BYTE	W06
	BYTE		N05   
	BYTE		N05     Fn4 
	BYTE	W06
	BYTE		        Fn3 
	BYTE		N05     Gs3 
	BYTE	W06
	BYTE		N05   
	BYTE		N05     Cn4 
	BYTE	W06
	BYTE		N05   
	BYTE		N05     Fn4 
	BYTE	W06
// 094   ----------------------------------------
	BYTE		        Gs3 
	BYTE		N05     Cn4 
	BYTE	W06
	BYTE		        Cs3 
	BYTE		N05     Fn3 
	BYTE	W06
	BYTE		N05   
	BYTE		N05     Gs3 
	BYTE	W06
	BYTE		N05   
	BYTE		N05     Cn4 
	BYTE	W06
	BYTE		        Gn3 
	BYTE		N05     Cn4 
	BYTE	W06
	BYTE		        Dn3 
	BYTE		N05     Gn3 
	BYTE	W06
	BYTE		N05   
	BYTE		N05     Cn4 
	BYTE	W06
	BYTE		        Gn3 
	BYTE		N05     Dn4 
	BYTE	W06
	BYTE		N05   
	BYTE		N05     Gn4 
	BYTE	W06
	BYTE		        Gn3 
	BYTE		N05     Dn4 
	BYTE	W06
	BYTE		        Gn3 
	BYTE		N05     Cn4 
	BYTE	W06
	BYTE		        Gn3 
	BYTE		N05     Dn4 
	BYTE	W06
	BYTE		        Gn3 
	BYTE		N05     Cn4 
	BYTE	W06
	BYTE		        Dn3 
	BYTE		N05     Gn3 
	BYTE	W06
	BYTE		N05   
	BYTE		N05     Cn4 
	BYTE	W06
	BYTE		        Gn3 
	BYTE		N05     Dn4 
	BYTE	W06
// 095   ----------------------------------------
	BYTE		N05   
	BYTE		N05     Gn4 
	BYTE	W06
	BYTE		        Gn3 
	BYTE		N05     Dn4 
	BYTE	W06
	BYTE		        Gn3 
	BYTE		N05     Cn4 
	BYTE	W06
	BYTE		        Gn3 
	BYTE		N05     Dn4 
	BYTE	W06
	BYTE		        As3 
	BYTE		N05     Dn4 
	BYTE	W06
	BYTE		        Fn3 
	BYTE		N05     As3 
	BYTE	W06
	BYTE		N05   
	BYTE		N05     Dn4 
	BYTE	W06
	BYTE		N05   
	BYTE		N05     Fn4 
	BYTE	W06
	BYTE		        Dn4 
	BYTE		N05     Fn4 
	BYTE	W06
	BYTE		        Fn3 
	BYTE		N05     As3 
	BYTE	W06
	BYTE		N05   
	BYTE		N05     Dn4 
	BYTE	W06
	BYTE		N05   
	BYTE		N05     Fn4 
	BYTE	W06
	BYTE		        As3 
	BYTE		N05     Dn4 
	BYTE	W06
	BYTE		        Fn3 
	BYTE		N05     As3 
	BYTE	W06
	BYTE		N05   
	BYTE		N05     Dn4 
	BYTE	W06
	BYTE		N05   
	BYTE		N05     Fn4 
	BYTE	W06
// 096   ----------------------------------------
	BYTE		        Dn4 
	BYTE		N05     Fn4 
	BYTE	W06
	BYTE		        Fn3 
	BYTE		N05     As3 
	BYTE	W06
	BYTE		N05   
	BYTE		N05     Dn4 
	BYTE	W06
	BYTE		N05   
	BYTE		N05     Fn4 
	BYTE	W06
	BYTE		        As3 
	BYTE		N05     Dn4 
	BYTE	W06
	BYTE		        Gn3 
	BYTE		N05     As3 
	BYTE	W06
	BYTE		        Ds3 
	BYTE		N05     Gn3 
	BYTE	W06
	BYTE		N05   
	BYTE		N05     As3 
	BYTE	W06
	BYTE		N05   
	BYTE		N05     Dn4 
	BYTE	W06
	BYTE		        Gn3 
	BYTE		N05     As3 
	BYTE	W06
	BYTE		        Ds3 
	BYTE		N05     Gn3 
	BYTE	W06
	BYTE		N05   
	BYTE		N05     As3 
	BYTE	W06
	BYTE		N05   
	BYTE		N05     Dn4 
	BYTE	W06
	BYTE		        Gn3 
	BYTE		N05     As3 
	BYTE	W06
	BYTE		        Ds3 
	BYTE		N05     Gn3 
	BYTE	W06
	BYTE		N05   
	BYTE		N05     As3 
	BYTE	W06
// 097   ----------------------------------------
	BYTE		N05   
	BYTE		N05     Dn4 
	BYTE	W06
	BYTE		        Gn3 
	BYTE		N05     As3 
	BYTE	W06
	BYTE		        Ds3 
	BYTE		N05     Gn3 
	BYTE	W06
	BYTE		N05   
	BYTE		N05     As3 
	BYTE	W06
	BYTE		N92     An3 
	BYTE		N92     Dn4 
	BYTE	W72
// 098   ----------------------------------------
	BYTE	W96
// 099   ----------------------------------------
	BYTE	W96
// 100   ----------------------------------------
	BYTE	W96
// 101   ----------------------------------------
	BYTE	W96
// 102   ----------------------------------------
	BYTE	W96
// 103   ----------------------------------------
	BYTE	W96
// 104   ----------------------------------------
	BYTE	W96
// 105   ----------------------------------------
	BYTE	W96
// 106   ----------------------------------------
	BYTE	W96
// 107   ----------------------------------------
	BYTE	W96
// 108   ----------------------------------------
	BYTE	W96
// 109   ----------------------------------------
	BYTE	W96
// 110   ----------------------------------------
	BYTE	W96
// 111   ----------------------------------------
	BYTE	W96
// 112   ----------------------------------------
	BYTE	W96
// 113   ----------------------------------------
	BYTE	W96
// 114   ----------------------------------------
	BYTE	W96
// 115   ----------------------------------------
	BYTE	W96
// 116   ----------------------------------------
	BYTE	W96
// 117   ----------------------------------------
	BYTE	W96
// 118   ----------------------------------------
	BYTE	W96
// 119   ----------------------------------------
	BYTE	W96
// 120   ----------------------------------------
	BYTE	W96
// 121   ----------------------------------------
	BYTE	W96
// 122   ----------------------------------------
	BYTE	PATT
	 POIN2	WarClouds0_8_042
// 123   ----------------------------------------
	BYTE	PATT
	 POIN2	WarClouds0_8_043
// 124   ----------------------------------------
	BYTE	PATT
	 POIN2	WarClouds0_8_044
// 125   ----------------------------------------
	BYTE	PATT
	 POIN2	WarClouds0_8_045
// 126   ----------------------------------------
	BYTE	PATT
	 POIN2	WarClouds0_8_046
// 127   ----------------------------------------
	BYTE	PATT
	 POIN2	WarClouds0_8_047
// 128   ----------------------------------------
	BYTE	PATT
	 POIN2	WarClouds0_8_048
// 129   ----------------------------------------
	BYTE	PATT
	 POIN2	WarClouds0_8_049
// 130   ----------------------------------------
	BYTE	PATT
	 POIN2	WarClouds0_8_050
// 131   ----------------------------------------
	BYTE	PATT
	 POIN2	WarClouds0_8_051
// 132   ----------------------------------------
	BYTE	PATT
	 POIN2	WarClouds0_8_049
// 133   ----------------------------------------
	BYTE	PATT
	 POIN2	WarClouds0_8_053
// 134   ----------------------------------------
	BYTE	PATT
	 POIN2	WarClouds0_8_053
// 135   ----------------------------------------
	BYTE	PATT
	 POIN2	WarClouds0_8_047
// 136   ----------------------------------------
	BYTE		N05     An3   v127
	BYTE		N05     Cn4 
	BYTE	W06
	BYTE		        Fn3 
	BYTE		N05     An3 
	BYTE	W06
	BYTE		        Cn3 
	BYTE		N05     Fn3 
	BYTE	W06
	BYTE		        An3 
	BYTE		N05     Cn4 
	BYTE	W06
	BYTE		        Gn3 
	BYTE		N05     As3 
	BYTE	W06
	BYTE		        Ds3 
	BYTE		N05     Gn3 
	BYTE	W06
	BYTE		N05   
	BYTE		N05     As3 
	BYTE	W06
	BYTE		N05   
	BYTE		N05     Ds4 
	BYTE	W06
	BYTE		        Gn3 
	BYTE		N05     As3 
	BYTE	W06
	BYTE		        Ds3 
	BYTE		N05     Gn3 
	BYTE	W06
	BYTE		        As2 
	BYTE		N05     Ds3 
	BYTE	W06
	BYTE		N05   
	BYTE		N05     Gn3 
	BYTE	W06
	BYTE		N05   
	BYTE		N05     As3 
	BYTE	W06
	BYTE		        Ds3 
	BYTE		N05     Gn3 
	BYTE	W06
	BYTE		N05   
	BYTE		N05     As3 
	BYTE	W06
	BYTE		N05   
	BYTE		N05     Ds4 
	BYTE	W06
// 137   ----------------------------------------
	BYTE		        Gn3 
	BYTE		N05     As3 
	BYTE	W06
	BYTE		        Ds3 
	BYTE		N05     Gn3 
	BYTE	W06
	BYTE		        As2 
	BYTE		N05     Ds3 
	BYTE	W06
	BYTE		N05   
	BYTE		N05     Gn3 
	BYTE	W06
	BYTE		        An3 
	BYTE		N05     Cn4 
	BYTE	W06
	BYTE		        Fn3 
	BYTE		N05     An3 
	BYTE	W06
	BYTE		        Cn3 
	BYTE		N05     Fn3 
	BYTE	W06
	BYTE		N05   
	BYTE		N05     An3 
	BYTE	W06
	BYTE		N05   
	BYTE		N05     Cn4 
	BYTE	W06
	BYTE		        Fn3 
	BYTE		N05     An3 
	BYTE	W06
	BYTE		        Cn3 
	BYTE		N05     Fn3 
	BYTE	W06
	BYTE		        An3 
	BYTE		N05     Cn4 
	BYTE	W06
	BYTE		        An3 
	BYTE		N05     Cn4 
	BYTE	W06
	BYTE		        Fn3 
	BYTE		N05     An3 
	BYTE	W06
	BYTE		        Cn3 
	BYTE		N05     Fn3 
	BYTE	W06
	BYTE		N05   
	BYTE		N05     An3 
	BYTE	W06
// 138   ----------------------------------------
	BYTE	PATT
	 POIN2	WarClouds0_8_049
// 139   ----------------------------------------
	BYTE	PATT
	 POIN2	WarClouds0_8_047
// 140   ----------------------------------------
	BYTE	PATT
	 POIN2	WarClouds0_8_056
// 141   ----------------------------------------
	BYTE	PATT
	 POIN2	WarClouds0_8_057
// 142   ----------------------------------------
	BYTE	PATT
	 POIN2	WarClouds0_8_058
	BYTE	GoTo
	 POIN2	WarClouds0_8_B1
WarClouds0_8_B2:
	BYTE	W72
// 143   ----------------------------------------
	BYTE	W06
	BYTE	FINE

//**************** Track 9 (Midi-Chn.11) ****************//

WarClouds0_9:
	BYTE	KEYSH   WarClouds0_key+0
// 000   ----------------------------------------
	BYTE	W03
	BYTE		VOICE   119
	BYTE		MOD     0
	BYTE		VOL     37*WarClouds0_mvl/mxv
	BYTE		PAN     c_v+0
	BYTE		BEND    c_v+0
	BYTE	W92
	BYTE	W01
// 001   ----------------------------------------
	BYTE	W96
// 002   ----------------------------------------
	BYTE	W96
// 003   ----------------------------------------
	BYTE	W12
	BYTE	W12
	BYTE		TIE     Fn2   v104
	BYTE	W01
	BYTE	W02
	BYTE	W01
	BYTE	W02
	BYTE	W01
	BYTE	W02
	BYTE	W01
	BYTE	W02
	BYTE	W01
	BYTE	W02
	BYTE	W01
	BYTE	W02
	BYTE	W01
	BYTE	W02
	BYTE	W01
	BYTE	W02
	BYTE	W01
	BYTE	W02
	BYTE	W01
	BYTE	W02
	BYTE	W01
	BYTE	W02
	BYTE	W01
	BYTE	W02
	BYTE	W01
	BYTE	W02
	BYTE	W01
	BYTE	W02
	BYTE	W01
	BYTE	W02
	BYTE	W01
	BYTE	W02
	BYTE	W01
	BYTE	W02
	BYTE	W01
	BYTE	W02
	BYTE	W01
	BYTE	W02
	BYTE	W01
	BYTE	W02
	BYTE	W01
	BYTE	W02
	BYTE	W01
	BYTE	W02
	BYTE	W01
	BYTE	W02
	BYTE	W01
	BYTE	W02
// 004   ----------------------------------------
WarClouds0_9_004:
	BYTE	W01
	BYTE	W02
	BYTE	W01
	BYTE	W02
	BYTE	W01
	BYTE	W02
	BYTE	W01
	BYTE	W02
	BYTE	W01
	BYTE	W02
	BYTE	W01
	BYTE	W02
	BYTE	W01
	BYTE	W02
	BYTE	W01
	BYTE	W02
	BYTE	W01
	BYTE	W01
	BYTE	W01
	BYTE	W01
	BYTE	W01
	BYTE	W01
	BYTE	W01
	BYTE	W01
	BYTE	W01
	BYTE	W01
	BYTE	W01
	BYTE	W01
	BYTE	W01
	BYTE	W01
	BYTE	W01
	BYTE	W01
	BYTE	W01
	BYTE	W01
	BYTE	W01
	BYTE	W01
	BYTE	W02
	BYTE	W01
	BYTE	W02
	BYTE	W01
	BYTE	W02
	BYTE	W01
	BYTE	W02
	BYTE	W01
	BYTE	W02
	BYTE	W01
	BYTE	W02
	BYTE	W01
	BYTE	W02
	BYTE	W01
	BYTE	W02
	BYTE	W01
	BYTE	W06
	BYTE	W03
	BYTE	W03
	BYTE	W03
	BYTE	W03
	BYTE	W03
	BYTE	W03
	BYTE	W03
	BYTE	W01
	BYTE	PEND
// 005   ----------------------------------------
WarClouds0_9_005:
	BYTE	W02
	BYTE	W03
	BYTE	W03
	BYTE	W03
	BYTE	W03
	BYTE	W03
	BYTE	W03
	BYTE	W03
	BYTE	W01
	BYTE	PEND
	BYTE		EOT     Fn2 
	BYTE	W72
// 006   ----------------------------------------
	BYTE	W96
// 007   ----------------------------------------
WarClouds0_9_007:
	BYTE	W24
	BYTE		TIE     Fn2   v104
	BYTE	W01
	BYTE	W02
	BYTE	W01
	BYTE	W02
	BYTE	W01
	BYTE	W02
	BYTE	W01
	BYTE	W02
	BYTE	W01
	BYTE	W02
	BYTE	W01
	BYTE	W02
	BYTE	W01
	BYTE	W02
	BYTE	W01
	BYTE	W02
	BYTE	W01
	BYTE	W02
	BYTE	W01
	BYTE	W02
	BYTE	W01
	BYTE	W02
	BYTE	W01
	BYTE	W02
	BYTE	W01
	BYTE	W02
	BYTE	W01
	BYTE	W02
	BYTE	W01
	BYTE	W02
	BYTE	W01
	BYTE	W02
	BYTE	W01
	BYTE	W02
	BYTE	W01
	BYTE	W02
	BYTE	W01
	BYTE	W02
	BYTE	W01
	BYTE	W02
	BYTE	W01
	BYTE	W02
	BYTE	W01
	BYTE	W02
	BYTE	W01
	BYTE	W02
	BYTE	W01
	BYTE	W02
	BYTE	PEND
// 008   ----------------------------------------
	BYTE	PATT
	 POIN2	WarClouds0_9_004
// 009   ----------------------------------------
	BYTE	PATT
	 POIN2	WarClouds0_9_005
	BYTE		EOT     Fn2 
	BYTE	W72
// 010   ----------------------------------------
	BYTE	W96
// 011   ----------------------------------------
	BYTE	W96
// 012   ----------------------------------------
	BYTE	W96
// 013   ----------------------------------------
	BYTE	W96
// 014   ----------------------------------------
	BYTE	W96
// 015   ----------------------------------------
	BYTE	W96
// 016   ----------------------------------------
	BYTE	W96
// 017   ----------------------------------------
	BYTE	PATT
	 POIN2	WarClouds0_9_007
// 018   ----------------------------------------
	BYTE	PATT
	 POIN2	WarClouds0_9_004
// 019   ----------------------------------------
	BYTE	PATT
	 POIN2	WarClouds0_9_005
	BYTE		EOT     Fn2 
	BYTE	W72
// 020   ----------------------------------------
	BYTE	W96
// 021   ----------------------------------------
	BYTE	W96
// 022   ----------------------------------------
	BYTE	W96
// 023   ----------------------------------------
	BYTE	W96
// 024   ----------------------------------------
	BYTE	W96
// 025   ----------------------------------------
	BYTE	W96
// 026   ----------------------------------------
	BYTE	W96
// 027   ----------------------------------------
	BYTE	W96
// 028   ----------------------------------------
	BYTE	W96
// 029   ----------------------------------------
	BYTE	W96
// 030   ----------------------------------------
	BYTE	W96
// 031   ----------------------------------------
	BYTE	W96
// 032   ----------------------------------------
	BYTE	W96
// 033   ----------------------------------------
	BYTE	W96
// 034   ----------------------------------------
	BYTE	W96
// 035   ----------------------------------------
	BYTE	W96
// 036   ----------------------------------------
	BYTE	W96
// 037   ----------------------------------------
	BYTE	W96
// 038   ----------------------------------------
	BYTE	W96
// 039   ----------------------------------------
	BYTE	W96
// 040   ----------------------------------------
	BYTE	W96
// 041   ----------------------------------------
	BYTE	W96
// 042   ----------------------------------------
	BYTE	W96
// 043   ----------------------------------------
	BYTE	W96
// 044   ----------------------------------------
	BYTE	W96
// 045   ----------------------------------------
	BYTE	W96
// 046   ----------------------------------------
	BYTE	W96
// 047   ----------------------------------------
	BYTE	W96
// 048   ----------------------------------------
	BYTE	W96
// 049   ----------------------------------------
	BYTE	W96
// 050   ----------------------------------------
	BYTE	W96
// 051   ----------------------------------------
	BYTE	W96
// 052   ----------------------------------------
	BYTE	W96
// 053   ----------------------------------------
	BYTE	W96
// 054   ----------------------------------------
	BYTE	W96
// 055   ----------------------------------------
	BYTE	W96
// 056   ----------------------------------------
	BYTE	W96
// 057   ----------------------------------------
	BYTE	W96
// 058   ----------------------------------------
	BYTE	W24
WarClouds0_9_B1:
	BYTE	W72
// 059   ----------------------------------------
	BYTE	W96
// 060   ----------------------------------------
	BYTE	W96
// 061   ----------------------------------------
	BYTE	W96
// 062   ----------------------------------------
	BYTE	W96
// 063   ----------------------------------------
	BYTE	W96
// 064   ----------------------------------------
	BYTE	W96
// 065   ----------------------------------------
	BYTE	W24
	BYTE		TIE     Fn2   v104
	BYTE	W03
	BYTE	W03
	BYTE	W03
	BYTE	W03
	BYTE	W03
	BYTE	W03
	BYTE	W03
	BYTE	W03
	BYTE	W03
	BYTE	W03
	BYTE	W03
	BYTE	W03
	BYTE	W03
	BYTE	W03
	BYTE	W03
	BYTE	W03
	BYTE	W01
	BYTE	W02
	BYTE	W01
	BYTE	W02
	BYTE	W01
	BYTE	W02
	BYTE	W01
	BYTE	W02
	BYTE	W01
	BYTE	W02
	BYTE	W01
	BYTE	W02
	BYTE	W01
	BYTE	W02
	BYTE	W01
	BYTE	W02
// 066   ----------------------------------------
	BYTE	W01
	BYTE	W02
	BYTE	W01
	BYTE	W02
	BYTE	W01
	BYTE	W02
	BYTE	W01
	BYTE	W02
	BYTE	W01
	BYTE	W02
	BYTE	W01
	BYTE	W02
	BYTE	W01
	BYTE	W02
	BYTE	W01
	BYTE	W02
	BYTE	W01
	BYTE	W02
	BYTE	W01
	BYTE	W02
	BYTE	W01
	BYTE	W02
	BYTE	W01
	BYTE	W02
	BYTE	W01
	BYTE	W02
	BYTE	W01
	BYTE	W02
	BYTE	W01
	BYTE	W01
	BYTE	W02
	BYTE	W01
	BYTE	W02
	BYTE	W01
	BYTE	W02
	BYTE	W01
	BYTE	W02
	BYTE	W01
	BYTE	W02
	BYTE	W01
	BYTE	W02
	BYTE	W01
	BYTE	W02
	BYTE	W01
	BYTE	W02
	BYTE	W01
	BYTE	W06
	BYTE	W03
	BYTE	W03
	BYTE	W03
	BYTE	W03
	BYTE	W03
	BYTE	W03
	BYTE	W03
	BYTE	W01
// 067   ----------------------------------------
	BYTE	PATT
	 POIN2	WarClouds0_9_005
	BYTE		EOT     Fn2 
	BYTE	W72
// 068   ----------------------------------------
	BYTE	W96
// 069   ----------------------------------------
	BYTE	W96
// 070   ----------------------------------------
	BYTE	W96
// 071   ----------------------------------------
	BYTE	W96
// 072   ----------------------------------------
	BYTE	W96
// 073   ----------------------------------------
	BYTE	W96
// 074   ----------------------------------------
	BYTE	W96
// 075   ----------------------------------------
	BYTE	W96
// 076   ----------------------------------------
	BYTE	W96
// 077   ----------------------------------------
	BYTE	W96
// 078   ----------------------------------------
	BYTE	W96
// 079   ----------------------------------------
	BYTE	W96
// 080   ----------------------------------------
	BYTE	W96
// 081   ----------------------------------------
	BYTE	W96
// 082   ----------------------------------------
	BYTE	W96
// 083   ----------------------------------------
	BYTE	W96
// 084   ----------------------------------------
	BYTE	W96
// 085   ----------------------------------------
	BYTE	W96
// 086   ----------------------------------------
	BYTE	W96
// 087   ----------------------------------------
	BYTE	W96
// 088   ----------------------------------------
	BYTE	W96
// 089   ----------------------------------------
	BYTE	W96
// 090   ----------------------------------------
	BYTE	W96
// 091   ----------------------------------------
	BYTE	W96
// 092   ----------------------------------------
	BYTE	W96
// 093   ----------------------------------------
	BYTE	PATT
	 POIN2	WarClouds0_9_007
// 094   ----------------------------------------
	BYTE	PATT
	 POIN2	WarClouds0_9_004
// 095   ----------------------------------------
	BYTE	PATT
	 POIN2	WarClouds0_9_005
	BYTE		EOT     Fn2 
	BYTE	W72
// 096   ----------------------------------------
	BYTE	W96
// 097   ----------------------------------------
	BYTE	PATT
	 POIN2	WarClouds0_9_007
// 098   ----------------------------------------
	BYTE	PATT
	 POIN2	WarClouds0_9_004
// 099   ----------------------------------------
	BYTE	PATT
	 POIN2	WarClouds0_9_005
	BYTE		EOT     Fn2 
	BYTE	W72
// 100   ----------------------------------------
	BYTE	W96
// 101   ----------------------------------------
	BYTE	W96
// 102   ----------------------------------------
	BYTE	W96
// 103   ----------------------------------------
	BYTE	W96
// 104   ----------------------------------------
	BYTE	W96
// 105   ----------------------------------------
	BYTE	PATT
	 POIN2	WarClouds0_9_007
// 106   ----------------------------------------
	BYTE	PATT
	 POIN2	WarClouds0_9_004
// 107   ----------------------------------------
	BYTE	PATT
	 POIN2	WarClouds0_9_005
	BYTE		EOT     Fn2 
	BYTE	W72
// 108   ----------------------------------------
	BYTE	W96
// 109   ----------------------------------------
	BYTE	W96
// 110   ----------------------------------------
	BYTE	W96
// 111   ----------------------------------------
	BYTE	W96
// 112   ----------------------------------------
	BYTE	W96
// 113   ----------------------------------------
	BYTE	W96
// 114   ----------------------------------------
	BYTE	W96
// 115   ----------------------------------------
	BYTE	W96
// 116   ----------------------------------------
	BYTE	W96
// 117   ----------------------------------------
	BYTE	W96
// 118   ----------------------------------------
	BYTE	W96
// 119   ----------------------------------------
	BYTE	W96
// 120   ----------------------------------------
	BYTE	W96
// 121   ----------------------------------------
	BYTE	W96
// 122   ----------------------------------------
	BYTE	W96
// 123   ----------------------------------------
	BYTE	W96
// 124   ----------------------------------------
	BYTE	W96
// 125   ----------------------------------------
	BYTE	W96
// 126   ----------------------------------------
	BYTE	W96
// 127   ----------------------------------------
	BYTE	W96
// 128   ----------------------------------------
	BYTE	W96
// 129   ----------------------------------------
	BYTE	W96
// 130   ----------------------------------------
	BYTE	W96
// 131   ----------------------------------------
	BYTE	W96
// 132   ----------------------------------------
	BYTE	W96
// 133   ----------------------------------------
	BYTE	W96
// 134   ----------------------------------------
	BYTE	W96
// 135   ----------------------------------------
	BYTE	W96
// 136   ----------------------------------------
	BYTE	W96
// 137   ----------------------------------------
	BYTE	W96
// 138   ----------------------------------------
	BYTE	W96
// 139   ----------------------------------------
	BYTE	W96
// 140   ----------------------------------------
	BYTE	W96
// 141   ----------------------------------------
	BYTE	W96
// 142   ----------------------------------------
	BYTE	W24
	BYTE	GoTo
	 POIN2	WarClouds0_9_B1
WarClouds0_9_B2:
	BYTE	W72
// 143   ----------------------------------------
	BYTE	W06
	BYTE	FINE

//**************** Track 10 (Midi-Chn.12) ****************//

WarClouds0_10:
	BYTE	KEYSH   WarClouds0_key+0
// 000   ----------------------------------------
	BYTE		VOICE   61
	BYTE		VOL     47*WarClouds0_mvl/mxv
	BYTE	W03
	BYTE		MOD     0
	BYTE		PAN     c_v+0
	BYTE		BEND    c_v+0
	BYTE	W20
	BYTE	W72
	BYTE	W01
// 001   ----------------------------------------
	BYTE	W96
// 002   ----------------------------------------
	BYTE	W96
// 003   ----------------------------------------
	BYTE	W96
// 004   ----------------------------------------
	BYTE	W96
// 005   ----------------------------------------
	BYTE	W96
// 006   ----------------------------------------
	BYTE	W96
// 007   ----------------------------------------
	BYTE	W96
// 008   ----------------------------------------
	BYTE	W96
// 009   ----------------------------------------
	BYTE	W96
// 010   ----------------------------------------
	BYTE	W96
// 011   ----------------------------------------
	BYTE	W96
// 012   ----------------------------------------
	BYTE	W96
// 013   ----------------------------------------
	BYTE	W96
// 014   ----------------------------------------
	BYTE	W96
// 015   ----------------------------------------
	BYTE	W96
// 016   ----------------------------------------
	BYTE	W96
// 017   ----------------------------------------
	BYTE	W96
// 018   ----------------------------------------
	BYTE	W96
// 019   ----------------------------------------
	BYTE	W96
// 020   ----------------------------------------
	BYTE	W96
// 021   ----------------------------------------
	BYTE	W96
// 022   ----------------------------------------
	BYTE	W96
// 023   ----------------------------------------
	BYTE	W96
// 024   ----------------------------------------
	BYTE	W96
// 025   ----------------------------------------
	BYTE	W96
// 026   ----------------------------------------
WarClouds0_10_026:
	BYTE	W24
	BYTE		N92     Dn4   v092
	BYTE	W72
	BYTE	PEND
// 027   ----------------------------------------
WarClouds0_10_027:
	BYTE	W24
	BYTE		N48     Fn4   v092
	BYTE	W48
	BYTE		        Ds4 
	BYTE	W24
	BYTE	PEND
// 028   ----------------------------------------
WarClouds0_10_028:
	BYTE	W24
	BYTE		N48     Dn4   v092
	BYTE	W48
	BYTE		        Gn4 
	BYTE	W24
	BYTE	PEND
// 029   ----------------------------------------
WarClouds0_10_029:
	BYTE	W24
	BYTE		N48     An4   v092
	BYTE	W48
	BYTE		        Cn5 
	BYTE	W24
	BYTE	PEND
// 030   ----------------------------------------
	BYTE	W24
	BYTE		N92     As4 
	BYTE	W72
// 031   ----------------------------------------
	BYTE	W24
	BYTE		        Cn5 
	BYTE	W72
// 032   ----------------------------------------
	BYTE	W24
	BYTE		N92   
	BYTE	W72
// 033   ----------------------------------------
WarClouds0_10_033:
	BYTE	W24
	BYTE		N44     As4   v092
	BYTE	W48
	BYTE		        An4 
	BYTE	W24
	BYTE	PEND
// 034   ----------------------------------------
	BYTE	W24
	BYTE		N92     Gn4 
	BYTE	W72
// 035   ----------------------------------------
	BYTE	W24
	BYTE		        Cn5 
	BYTE	W72
// 036   ----------------------------------------
	BYTE	W24
	BYTE		        Dn5 
	BYTE	W72
// 037   ----------------------------------------
	BYTE	W24
	BYTE		        Gn4 
	BYTE	W72
// 038   ----------------------------------------
	BYTE	W24
	BYTE		N92   
	BYTE	W72
// 039   ----------------------------------------
	BYTE	W24
	BYTE		        An4 
	BYTE	W72
// 040   ----------------------------------------
WarClouds0_10_040:
	BYTE	W24
	BYTE		TIE     Gn4   v092
	BYTE	W72
	BYTE	PEND
// 041   ----------------------------------------
	BYTE	W96
// 042   ----------------------------------------
	BYTE	W23
	BYTE		EOT   
	BYTE	W72
	BYTE	W01
// 043   ----------------------------------------
	BYTE	W96
// 044   ----------------------------------------
	BYTE	W96
// 045   ----------------------------------------
	BYTE	W96
// 046   ----------------------------------------
	BYTE	W96
// 047   ----------------------------------------
	BYTE	W96
// 048   ----------------------------------------
	BYTE	W96
// 049   ----------------------------------------
	BYTE	W96
// 050   ----------------------------------------
	BYTE	W96
// 051   ----------------------------------------
	BYTE	W96
// 052   ----------------------------------------
	BYTE	W96
// 053   ----------------------------------------
	BYTE	W96
// 054   ----------------------------------------
	BYTE	W96
// 055   ----------------------------------------
	BYTE	W96
// 056   ----------------------------------------
	BYTE	W96
// 057   ----------------------------------------
	BYTE	W24
	BYTE	W72
// 058   ----------------------------------------
	BYTE	W24
WarClouds0_10_B1:
	BYTE	W72
// 059   ----------------------------------------
WarClouds0_10_059:
	BYTE		N96     Gn3   v088
	BYTE		N96     Dn4 
	BYTE	W06
	BYTE	W03
	BYTE	W03
	BYTE	W03
	BYTE	W03
	BYTE	W03
	BYTE	W03
	BYTE	W06
	BYTE	W03
	BYTE	W03
	BYTE	W03
	BYTE	W03
	BYTE	W03
	BYTE	W03
	BYTE	W06
	BYTE	W03
	BYTE	W03
	BYTE	W03
	BYTE	W03
	BYTE	W03
	BYTE	W03
	BYTE	W06
	BYTE	W03
	BYTE	W03
	BYTE	W03
	BYTE	W03
	BYTE	W03
	BYTE	W03
	BYTE	PEND
// 060   ----------------------------------------
	BYTE	W96
// 061   ----------------------------------------
WarClouds0_10_061:
	BYTE		N96     As3   v088
	BYTE		N96     Ds4 
	BYTE	W06
	BYTE	W03
	BYTE	W03
	BYTE	W03
	BYTE	W03
	BYTE	W03
	BYTE	W03
	BYTE	W06
	BYTE	W03
	BYTE	W03
	BYTE	W03
	BYTE	W03
	BYTE	W03
	BYTE	W03
	BYTE	W06
	BYTE	W03
	BYTE	W03
	BYTE	W03
	BYTE	W03
	BYTE	W03
	BYTE	W03
	BYTE	W06
	BYTE	W03
	BYTE	W03
	BYTE	W03
	BYTE	W03
	BYTE	W03
	BYTE	W03
	BYTE	PEND
// 062   ----------------------------------------
	BYTE	W96
// 063   ----------------------------------------
	BYTE	PATT
	 POIN2	WarClouds0_10_059
// 064   ----------------------------------------
	BYTE	W96
// 065   ----------------------------------------
	BYTE	PATT
	 POIN2	WarClouds0_10_061
// 066   ----------------------------------------
	BYTE	W96
// 067   ----------------------------------------
	BYTE	W96
// 068   ----------------------------------------
	BYTE	W96
// 069   ----------------------------------------
	BYTE	W96
// 070   ----------------------------------------
	BYTE	W96
// 071   ----------------------------------------
	BYTE	W96
// 072   ----------------------------------------
	BYTE	W96
// 073   ----------------------------------------
	BYTE	W96
// 074   ----------------------------------------
	BYTE	W96
// 075   ----------------------------------------
	BYTE	W96
// 076   ----------------------------------------
	BYTE	W96
// 077   ----------------------------------------
	BYTE	W96
// 078   ----------------------------------------
	BYTE	W96
// 079   ----------------------------------------
	BYTE	W96
// 080   ----------------------------------------
	BYTE	W96
// 081   ----------------------------------------
	BYTE	W96
// 082   ----------------------------------------
	BYTE	W24
	BYTE		TIE     Cn4   v072
	BYTE		TIE     Ds4 
	BYTE		TIE     Gn4 
	BYTE	W06
	BYTE	W06
	BYTE	W06
	BYTE	W06
	BYTE	W06
	BYTE	W06
	BYTE	W06
	BYTE	W06
	BYTE	W06
	BYTE	W06
	BYTE	W06
	BYTE	W06
// 083   ----------------------------------------
	BYTE	W06
	BYTE	W06
	BYTE	W06
	BYTE	W06
	BYTE	W72
// 084   ----------------------------------------
	BYTE	W24
	BYTE		EOT     Cn4 
	BYTE		        Ds4 
	BYTE		        Gn4 
	BYTE		TIE     Cn4 
	BYTE		TIE     Fn4 
	BYTE		TIE     Gs4 
	BYTE	W72
// 085   ----------------------------------------
	BYTE	W96
// 086   ----------------------------------------
	BYTE	W24
	BYTE		EOT     Cn4 
	BYTE		        Fn4 
	BYTE		        Gs4 
	BYTE		N96     Dn4 
	BYTE		TIE     Gn4 
	BYTE		N96     As4 
	BYTE	W72
// 087   ----------------------------------------
	BYTE	W24
	BYTE		        Ds4 
	BYTE		N96     Cn5 
	BYTE	W72
// 088   ----------------------------------------
	BYTE	W24
	BYTE		EOT     Gn4 
	BYTE		TIE     Dn4 
	BYTE		TIE     Gn4 
	BYTE		TIE     As4 
	BYTE	W72
// 089   ----------------------------------------
	BYTE	W96
// 090   ----------------------------------------
	BYTE	W24
	BYTE		EOT     Dn4 
	BYTE		        Gn4 
	BYTE		        As4 
	BYTE		N96     Gs3 
	BYTE		N96     Cn4 
	BYTE		N96     Ds4 
	BYTE	W72
// 091   ----------------------------------------
WarClouds0_10_091:
	BYTE	W24
	BYTE		N96     As3   v072
	BYTE		N96     Dn4 
	BYTE		N96     Fn4 
	BYTE	W72
	BYTE	PEND
// 092   ----------------------------------------
WarClouds0_10_092:
	BYTE	W24
	BYTE		N96     Cn4   v072
	BYTE		N96     Dn4 
	BYTE		N96     Gn4 
	BYTE	W72
	BYTE	PEND
// 093   ----------------------------------------
	BYTE	W24
	BYTE		        Cs4 
	BYTE		N96     Fn4 
	BYTE		N96     Gs4 
	BYTE	W72
// 094   ----------------------------------------
	BYTE	PATT
	 POIN2	WarClouds0_10_092
// 095   ----------------------------------------
	BYTE	PATT
	 POIN2	WarClouds0_10_091
// 096   ----------------------------------------
	BYTE	W24
	BYTE		N96     As3   v072
	BYTE		N96     Dn4 
	BYTE		N96     Ds4 
	BYTE		N96     Gn4 
	BYTE	W72
// 097   ----------------------------------------
	BYTE	W24
	BYTE		        An3 
	BYTE		N96     Dn4 
	BYTE		N96     Gn4 
	BYTE	W72
// 098   ----------------------------------------
	BYTE	W24
	BYTE		N06     Gn3   v096
	BYTE	W12
	BYTE		N24     Cn4 
	BYTE	W24
	BYTE		N06     Fn3 
	BYTE	W12
	BYTE		N36     As3 
	BYTE	W24
// 099   ----------------------------------------
WarClouds0_10_099:
	BYTE	W12
	BYTE		N06     Gn3   v096
	BYTE	W12
	BYTE		N24     Cn4 
	BYTE	W24
	BYTE		N06     Fn3 
	BYTE	W12
	BYTE		        As3 
	BYTE	W12
	BYTE		N48     Cn4 
	BYTE	W24
	BYTE	PEND
// 100   ----------------------------------------
WarClouds0_10_100:
	BYTE	W24
	BYTE		N06     Gn3   v096
	BYTE	W12
	BYTE		N24     Cn4 
	BYTE	W24
	BYTE		N06     Fn3 
	BYTE	W12
	BYTE		N36     As3 
	BYTE	W24
	BYTE	PEND
// 101   ----------------------------------------
WarClouds0_10_101:
	BYTE	W12
	BYTE		N06     Gn3   v096
	BYTE	W12
	BYTE		N24     Cn4 
	BYTE	W24
	BYTE		N06     Fn3 
	BYTE	W12
	BYTE		        As3 
	BYTE	W12
	BYTE		        Cn4   v108
	BYTE	W12
	BYTE		N36     Fn4   v096
	BYTE	W12
	BYTE	PEND
// 102   ----------------------------------------
	BYTE	PATT
	 POIN2	WarClouds0_10_100
// 103   ----------------------------------------
	BYTE	PATT
	 POIN2	WarClouds0_10_099
// 104   ----------------------------------------
	BYTE	PATT
	 POIN2	WarClouds0_10_100
// 105   ----------------------------------------
	BYTE	PATT
	 POIN2	WarClouds0_10_101
// 106   ----------------------------------------
	BYTE	PATT
	 POIN2	WarClouds0_10_026
// 107   ----------------------------------------
	BYTE	PATT
	 POIN2	WarClouds0_10_027
// 108   ----------------------------------------
	BYTE	PATT
	 POIN2	WarClouds0_10_028
// 109   ----------------------------------------
	BYTE	PATT
	 POIN2	WarClouds0_10_029
// 110   ----------------------------------------
	BYTE	W24
	BYTE		N92     As4   v092
	BYTE	W72
// 111   ----------------------------------------
	BYTE	W24
	BYTE		        Cn5 
	BYTE	W72
// 112   ----------------------------------------
	BYTE	W24
	BYTE		N92   
	BYTE	W72
// 113   ----------------------------------------
	BYTE	PATT
	 POIN2	WarClouds0_10_033
// 114   ----------------------------------------
	BYTE	W24
	BYTE		N92     Gn4   v092
	BYTE	W72
// 115   ----------------------------------------
	BYTE	W24
	BYTE		        Cn5 
	BYTE	W72
// 116   ----------------------------------------
	BYTE	W24
	BYTE		        Dn5 
	BYTE	W72
// 117   ----------------------------------------
	BYTE	W24
	BYTE		        Gn4 
	BYTE	W72
// 118   ----------------------------------------
	BYTE	W24
	BYTE		N92   
	BYTE	W72
// 119   ----------------------------------------
	BYTE	W24
	BYTE		        An4 
	BYTE	W72
// 120   ----------------------------------------
	BYTE	PATT
	 POIN2	WarClouds0_10_040
// 121   ----------------------------------------
	BYTE	W96
// 122   ----------------------------------------
	BYTE	W23
	BYTE		EOT     Gn4 
	BYTE	W72
	BYTE	W01
// 123   ----------------------------------------
	BYTE	W96
// 124   ----------------------------------------
	BYTE	W96
// 125   ----------------------------------------
	BYTE	W96
// 126   ----------------------------------------
	BYTE	W96
// 127   ----------------------------------------
	BYTE	W96
// 128   ----------------------------------------
	BYTE	W96
// 129   ----------------------------------------
	BYTE	W96
// 130   ----------------------------------------
	BYTE	W96
// 131   ----------------------------------------
	BYTE	W96
// 132   ----------------------------------------
	BYTE	W96
// 133   ----------------------------------------
	BYTE	W96
// 134   ----------------------------------------
	BYTE	W96
// 135   ----------------------------------------
	BYTE	W96
// 136   ----------------------------------------
	BYTE	W24
	BYTE		N92     As4   v108
	BYTE	W04
	BYTE	W04
	BYTE	W04
	BYTE	W04
	BYTE	W04
	BYTE	W04
	BYTE	W02
	BYTE	W04
	BYTE	W04
	BYTE	W04
	BYTE	W04
	BYTE	W04
	BYTE	W02
	BYTE	W04
	BYTE	W04
	BYTE	W04
	BYTE	W04
	BYTE	W04
	BYTE	W02
	BYTE	W02
// 137   ----------------------------------------
	BYTE	W02
	BYTE	W04
	BYTE	W04
	BYTE	W04
	BYTE	W04
	BYTE	W02
	BYTE	W04
	BYTE		        Cn5   v104
	BYTE	W72
// 138   ----------------------------------------
	BYTE	W24
	BYTE		        Dn5 
	BYTE	W72
// 139   ----------------------------------------
	BYTE	W24
	BYTE		N48     Cn5 
	BYTE	W48
	BYTE		        An4 
	BYTE	W24
// 140   ----------------------------------------
	BYTE	W24
	BYTE		TIE     Gn4 
	BYTE	W72
// 141   ----------------------------------------
	BYTE	W96
// 142   ----------------------------------------
	BYTE	W23
	BYTE		EOT   
	BYTE	W01
	BYTE	GoTo
	 POIN2	WarClouds0_10_B1
WarClouds0_10_B2:
	BYTE	W72
// 143   ----------------------------------------
	BYTE	W06
	BYTE	FINE

//**************** Track 11 (Midi-Chn.13) ****************//

WarClouds0_11:
	BYTE	KEYSH   WarClouds0_key+0
// 000   ----------------------------------------
	BYTE		VOICE   123
	BYTE		VOL     60*WarClouds0_mvl/mxv
	BYTE	W02
	BYTE		MOD     0
	BYTE		PAN     c_v+0
	BYTE		BEND    c_v+0
	BYTE	W22
	BYTE	W72
// 001   ----------------------------------------
	BYTE	W96
// 002   ----------------------------------------
	BYTE	W96
// 003   ----------------------------------------
	BYTE	W96
// 004   ----------------------------------------
WarClouds0_11_004:
	BYTE	W24
	BYTE		N96     Bn0   v100
	BYTE		N24     Fn2   v104
	BYTE	W72
	BYTE	PEND
// 005   ----------------------------------------
	BYTE	W96
// 006   ----------------------------------------
	BYTE	W96
// 007   ----------------------------------------
	BYTE	W96
// 008   ----------------------------------------
	BYTE	PATT
	 POIN2	WarClouds0_11_004
// 009   ----------------------------------------
	BYTE	W96
// 010   ----------------------------------------
	BYTE	W96
// 011   ----------------------------------------
	BYTE	W96
// 012   ----------------------------------------
	BYTE	W96
// 013   ----------------------------------------
	BYTE	W96
// 014   ----------------------------------------
	BYTE	W96
// 015   ----------------------------------------
	BYTE	W96
// 016   ----------------------------------------
	BYTE	W96
// 017   ----------------------------------------
	BYTE	W96
// 018   ----------------------------------------
	BYTE	W24
	BYTE		TIE     Cn0   v104
	BYTE		N24     Fn2 
	BYTE	W72
// 019   ----------------------------------------
	BYTE	W96
// 020   ----------------------------------------
	BYTE	W23
	BYTE		EOT     Cn0 
	BYTE	W01
	BYTE		TIE   
	BYTE	W72
// 021   ----------------------------------------
	BYTE	W96
// 022   ----------------------------------------
	BYTE	W23
	BYTE		EOT   
	BYTE	W01
	BYTE		TIE   
	BYTE		N22     Cn1   v080
	BYTE	W24
	BYTE		N22   
	BYTE	W24
	BYTE		N22   
	BYTE	W24
// 023   ----------------------------------------
WarClouds0_11_023:
	BYTE		N22     Cn1   v080
	BYTE	W24
	BYTE		N22   
	BYTE	W24
	BYTE		N22   
	BYTE	W24
	BYTE		N22   
	BYTE	W24
	BYTE	PEND
// 024   ----------------------------------------
	BYTE		N22   
	BYTE	W23
	BYTE		EOT     Cn0 
	BYTE	W01
	BYTE		TIE     Cn0   v104
	BYTE		N22     Cn1   v080
	BYTE	W24
	BYTE		N22   
	BYTE	W24
	BYTE		N22   
	BYTE	W24
// 025   ----------------------------------------
	BYTE	PATT
	 POIN2	WarClouds0_11_023
// 026   ----------------------------------------
	BYTE		N22     Cn1   v080
	BYTE	W23
	BYTE		EOT     Cn0 
	BYTE	W01
	BYTE		TIE     Cn0   v104
	BYTE		N92     Bn0   v100
	BYTE		N22     Cn1   v080
	BYTE		N24     Fn2   v104
	BYTE	W24
	BYTE		N22     Cn1   v080
	BYTE	W24
	BYTE		N22   
	BYTE	W24
// 027   ----------------------------------------
	BYTE	PATT
	 POIN2	WarClouds0_11_023
// 028   ----------------------------------------
	BYTE		N22     Cn1   v080
	BYTE	W23
	BYTE		EOT     Cn0 
	BYTE	W01
	BYTE		TIE     Cn0   v104
	BYTE		N92     Bn0   v100
	BYTE		N22     Cn1   v080
	BYTE	W24
	BYTE		N22   
	BYTE	W24
	BYTE		N22   
	BYTE	W24
// 029   ----------------------------------------
	BYTE	PATT
	 POIN2	WarClouds0_11_023
// 030   ----------------------------------------
	BYTE		N22     Cn1   v080
	BYTE	W23
	BYTE		EOT     Cn0 
	BYTE	W01
	BYTE		TIE     Cn0   v104
	BYTE		N22     Cn1   v080
	BYTE	W24
	BYTE		N22   
	BYTE	W24
	BYTE		N22   
	BYTE	W24
// 031   ----------------------------------------
	BYTE	PATT
	 POIN2	WarClouds0_11_023
// 032   ----------------------------------------
	BYTE		N22     Cn1   v080
	BYTE	W23
	BYTE		EOT     Cn0 
	BYTE	W01
	BYTE		TIE     Cn0   v104
	BYTE		N22     Cn1   v080
	BYTE	W24
	BYTE		N22   
	BYTE	W24
	BYTE		N22   
	BYTE	W24
// 033   ----------------------------------------
	BYTE	PATT
	 POIN2	WarClouds0_11_023
// 034   ----------------------------------------
	BYTE		N22     Cn1   v080
	BYTE	W23
	BYTE		EOT     Cn0 
	BYTE	W01
	BYTE		TIE     Cn0   v104
	BYTE		N22     Cn1   v080
	BYTE	W24
	BYTE		N22   
	BYTE	W24
	BYTE		N22   
	BYTE	W24
// 035   ----------------------------------------
	BYTE	PATT
	 POIN2	WarClouds0_11_023
// 036   ----------------------------------------
	BYTE		N22     Cn1   v080
	BYTE	W23
	BYTE		EOT     Cn0 
	BYTE	W01
	BYTE		TIE     Cn0   v104
	BYTE		N22     Cn1   v080
	BYTE	W24
	BYTE		N22   
	BYTE	W24
	BYTE		N22   
	BYTE	W24
// 037   ----------------------------------------
	BYTE	PATT
	 POIN2	WarClouds0_11_023
// 038   ----------------------------------------
	BYTE		N22     Cn1   v080
	BYTE	W23
	BYTE		EOT     Cn0 
	BYTE	W01
	BYTE		TIE     Cn0   v104
	BYTE		N92     Bn0   v100
	BYTE		N22     Cn1   v080
	BYTE	W24
	BYTE		N22   
	BYTE	W24
	BYTE		N22   
	BYTE	W24
// 039   ----------------------------------------
	BYTE	PATT
	 POIN2	WarClouds0_11_023
// 040   ----------------------------------------
	BYTE		N22     Cn1   v080
	BYTE	W23
	BYTE		EOT     Cn0 
	BYTE	W01
	BYTE		TIE     Cn0   v104
	BYTE		N92     Bn0   v100
	BYTE		N22     Cn1   v080
	BYTE	W24
	BYTE		N22   
	BYTE	W24
	BYTE		N22   
	BYTE	W24
// 041   ----------------------------------------
WarClouds0_11_041:
	BYTE		N22     Cn1   v080
	BYTE	W24
	BYTE		N96     Dn0   v120
	BYTE		N22     Cn1   v080
	BYTE		N24     Fn2   v104
	BYTE	W24
	BYTE		N22     Cn1   v080
	BYTE	W24
	BYTE		N22   
	BYTE	W24
	BYTE	PEND
// 042   ----------------------------------------
	BYTE		N22   
	BYTE	W23
	BYTE		EOT     Cn0 
	BYTE	W01
	BYTE		TIE     Cn0   v104
	BYTE		N92     Bn0   v100
	BYTE		N22     Cn1   v080
	BYTE		N24     Fn2   v104
	BYTE	W24
	BYTE		N22     Cn1   v080
	BYTE	W24
	BYTE		N22   
	BYTE	W24
// 043   ----------------------------------------
	BYTE	PATT
	 POIN2	WarClouds0_11_023
// 044   ----------------------------------------
	BYTE		N22     Cn1   v080
	BYTE	W23
	BYTE		EOT     Cn0 
	BYTE	W01
	BYTE		TIE     Cn0   v104
	BYTE		N92     Bn0   v100
	BYTE		N22     Cn1   v080
	BYTE	W24
	BYTE		N22   
	BYTE	W24
	BYTE		N22   
	BYTE	W24
// 045   ----------------------------------------
	BYTE	PATT
	 POIN2	WarClouds0_11_023
// 046   ----------------------------------------
	BYTE		N22     Cn1   v080
	BYTE	W23
	BYTE		EOT     Cn0 
	BYTE	W01
	BYTE		TIE     Cn0   v104
	BYTE		N92     Bn0   v100
	BYTE		N22     Cn1   v080
	BYTE	W24
	BYTE		N22   
	BYTE	W24
	BYTE		N22   
	BYTE	W24
// 047   ----------------------------------------
	BYTE	PATT
	 POIN2	WarClouds0_11_023
// 048   ----------------------------------------
	BYTE		N22     Cn1   v080
	BYTE	W23
	BYTE		EOT     Cn0 
	BYTE	W01
	BYTE		TIE     Cn0   v104
	BYTE		N92     Bn0   v100
	BYTE		N22     Cn1   v080
	BYTE	W24
	BYTE		N22   
	BYTE	W24
	BYTE		N22   
	BYTE	W24
// 049   ----------------------------------------
	BYTE	PATT
	 POIN2	WarClouds0_11_023
// 050   ----------------------------------------
	BYTE		N22     Cn1   v080
	BYTE	W23
	BYTE		EOT     Cn0 
	BYTE	W01
	BYTE		TIE     Cn0   v104
	BYTE		N92     Bn0   v100
	BYTE		N22     Cn1   v080
	BYTE	W24
	BYTE		N22   
	BYTE	W24
	BYTE		N22   
	BYTE	W24
// 051   ----------------------------------------
	BYTE	PATT
	 POIN2	WarClouds0_11_023
// 052   ----------------------------------------
	BYTE		N22     Cn1   v080
	BYTE	W23
	BYTE		EOT     Cn0 
	BYTE	W01
	BYTE		TIE     Cn0   v104
	BYTE		N92     Bn0   v100
	BYTE		N22     Cn1   v080
	BYTE	W24
	BYTE		N22   
	BYTE	W24
	BYTE		N22   
	BYTE	W24
// 053   ----------------------------------------
	BYTE	PATT
	 POIN2	WarClouds0_11_023
// 054   ----------------------------------------
	BYTE		N22     Cn1   v080
	BYTE	W23
	BYTE		EOT     Cn0 
	BYTE	W01
	BYTE		TIE     Cn0   v104
	BYTE		N92     Bn0   v100
	BYTE		N22     Cn1   v080
	BYTE	W24
	BYTE		N22   
	BYTE	W24
	BYTE		N22   
	BYTE	W24
// 055   ----------------------------------------
	BYTE	PATT
	 POIN2	WarClouds0_11_023
// 056   ----------------------------------------
	BYTE		N22     Cn1   v080
	BYTE	W23
	BYTE		EOT     Cn0 
	BYTE	W01
	BYTE		TIE     Cn0   v104
	BYTE		N92     Bn0   v100
	BYTE		N22     Cn1   v080
	BYTE	W24
	BYTE		N22   
	BYTE	W24
	BYTE		N22   
	BYTE	W24
// 057   ----------------------------------------
	BYTE	PATT
	 POIN2	WarClouds0_11_023
// 058   ----------------------------------------
	BYTE		N22     Cn1   v080
	BYTE	W23
	BYTE		EOT     Cn0 
	BYTE	W01
WarClouds0_11_B1:
	BYTE		TIE     Cn0   v104
	BYTE		N92     Bn0   v100
	BYTE		N22     Cn1   v080
	BYTE		N24     Fn2   v104
	BYTE		N05     Gn5   v096
	BYTE	W06
	BYTE		N05   
	BYTE	W06
	BYTE		N12   
	BYTE	W12
	BYTE		N22     Cn1   v080
	BYTE	W12
	BYTE		N05     Gn5   v096
	BYTE	W06
	BYTE		N05   
	BYTE	W06
	BYTE		N22     Cn1   v080
	BYTE		N12     Gn5   v096
	BYTE	W24
// 059   ----------------------------------------
	BYTE	PATT
	 POIN2	WarClouds0_11_023
// 060   ----------------------------------------
	BYTE		N22     Cn1   v080
	BYTE	W23
	BYTE		EOT     Cn0 
	BYTE	W01
	BYTE		TIE     Cn0   v104
	BYTE		N92     Bn0   v100
	BYTE		N22     Cn1   v080
	BYTE		N24     Fn2   v104
	BYTE		N05     Gn5   v096
	BYTE	W06
	BYTE		N05   
	BYTE	W06
	BYTE		N12   
	BYTE	W12
	BYTE		N22     Cn1   v080
	BYTE	W12
	BYTE		N05     Gn5   v096
	BYTE	W06
	BYTE		N05   
	BYTE	W06
	BYTE		N22     Cn1   v080
	BYTE		N12     Gn5   v096
	BYTE	W24
// 061   ----------------------------------------
	BYTE	PATT
	 POIN2	WarClouds0_11_023
// 062   ----------------------------------------
	BYTE		N22     Cn1   v080
	BYTE	W23
	BYTE		EOT     Cn0 
	BYTE	W01
	BYTE		TIE     Cn0   v104
	BYTE		N92     Bn0   v100
	BYTE		N22     Cn1   v080
	BYTE		N24     Fn2   v104
	BYTE		N05     Gn5   v096
	BYTE	W06
	BYTE		N05   
	BYTE	W06
	BYTE		N12   
	BYTE	W12
	BYTE		N22     Cn1   v080
	BYTE	W12
	BYTE		N05     Gn5   v096
	BYTE	W06
	BYTE		N05   
	BYTE	W06
	BYTE		N22     Cn1   v080
	BYTE		N12     Gn5   v096
	BYTE	W24
// 063   ----------------------------------------
	BYTE	PATT
	 POIN2	WarClouds0_11_023
// 064   ----------------------------------------
	BYTE		N22     Cn1   v080
	BYTE	W23
	BYTE		EOT     Cn0 
	BYTE	W01
	BYTE		TIE     Cn0   v104
	BYTE		N92     Bn0   v100
	BYTE		N22     Cn1   v080
	BYTE		N24     Fn2   v104
	BYTE		N05     Gn5   v096
	BYTE	W06
	BYTE		N05   
	BYTE	W06
	BYTE		N12   
	BYTE	W12
	BYTE		N22     Cn1   v080
	BYTE	W12
	BYTE		N05     Gn5   v096
	BYTE	W06
	BYTE		N05   
	BYTE	W06
	BYTE		N22     Cn1   v080
	BYTE		N12     Gn5   v096
	BYTE	W24
// 065   ----------------------------------------
	BYTE	PATT
	 POIN2	WarClouds0_11_023
// 066   ----------------------------------------
	BYTE		N22     Cn1   v080
	BYTE	W19
	BYTE		EOT     Cn0 
	BYTE	W05
	BYTE		N24     Fn2   v088
	BYTE	W72
// 067   ----------------------------------------
	BYTE	W96
// 068   ----------------------------------------
	BYTE	W96
// 069   ----------------------------------------
	BYTE	W96
// 070   ----------------------------------------
	BYTE	W96
// 071   ----------------------------------------
	BYTE	W96
// 072   ----------------------------------------
	BYTE	W96
// 073   ----------------------------------------
	BYTE	W96
// 074   ----------------------------------------
	BYTE	W96
// 075   ----------------------------------------
	BYTE	W96
// 076   ----------------------------------------
	BYTE	W96
// 077   ----------------------------------------
	BYTE	W96
// 078   ----------------------------------------
	BYTE	W96
// 079   ----------------------------------------
	BYTE	W96
// 080   ----------------------------------------
	BYTE	W96
// 081   ----------------------------------------
	BYTE	W96
// 082   ----------------------------------------
	BYTE	W96
// 083   ----------------------------------------
	BYTE	W96
// 084   ----------------------------------------
	BYTE	W96
// 085   ----------------------------------------
	BYTE	W96
// 086   ----------------------------------------
	BYTE	W96
// 087   ----------------------------------------
	BYTE	W96
// 088   ----------------------------------------
	BYTE	W96
// 089   ----------------------------------------
	BYTE	W96
// 090   ----------------------------------------
	BYTE	W96
// 091   ----------------------------------------
	BYTE	W96
// 092   ----------------------------------------
	BYTE	W96
// 093   ----------------------------------------
	BYTE	W96
// 094   ----------------------------------------
	BYTE	W24
	BYTE		N24   
	BYTE	W72
// 095   ----------------------------------------
	BYTE	W96
// 096   ----------------------------------------
	BYTE	W96
// 097   ----------------------------------------
	BYTE	W24
	BYTE		N92     Bn0   v100
	BYTE	W72
// 098   ----------------------------------------
	BYTE	W24
	BYTE		N12   
	BYTE		N24     Fn2   v104
	BYTE		N44     Gn5   v116
	BYTE	W72
// 099   ----------------------------------------
WarClouds0_11_099:
	BYTE	W12
	BYTE		N05     Gn5   v104
	BYTE	W06
	BYTE		        Gn5   v096
	BYTE	W06
	BYTE		N12     Bn0   v100
	BYTE		N24     Fn2   v104
	BYTE		N44     Gn5   v116
	BYTE	W72
	BYTE	PEND
// 100   ----------------------------------------
	BYTE		N02     Gn5   v060
	BYTE	W03
	BYTE		        Gn5   v068
	BYTE	W03
	BYTE		        Gn5   v076
	BYTE	W03
	BYTE		        Gn5   v080
	BYTE	W03
	BYTE		        Gn5   v088
	BYTE	W03
	BYTE		        Gn5   v092
	BYTE	W03
	BYTE		        Gn5   v096
	BYTE	W03
	BYTE		        Gn5   v112
	BYTE	W03
	BYTE		N12     Bn0   v100
	BYTE		N24     Fn2   v104
	BYTE		N44     Gn5   v116
	BYTE	W72
// 101   ----------------------------------------
	BYTE	PATT
	 POIN2	WarClouds0_11_099
// 102   ----------------------------------------
	BYTE		N02     Gn5   v060
	BYTE	W03
	BYTE		        Gn5   v068
	BYTE	W03
	BYTE		        Gn5   v076
	BYTE	W03
	BYTE		        Gn5   v080
	BYTE	W03
	BYTE		        Gn5   v088
	BYTE	W03
	BYTE		        Gn5   v092
	BYTE	W03
	BYTE		        Gn5   v096
	BYTE	W03
	BYTE		        Gn5   v112
	BYTE	W03
	BYTE		TIE     Cn0   v104
	BYTE		N12     Bn0   v100
	BYTE		N24     Fn2   v104
	BYTE		N44     Gn5   v116
	BYTE	W72
// 103   ----------------------------------------
	BYTE	PATT
	 POIN2	WarClouds0_11_099
// 104   ----------------------------------------
WarClouds0_11_104:
	BYTE		N02     Gn5   v060
	BYTE	W03
	BYTE		        Gn5   v068
	BYTE	W03
	BYTE		        Gn5   v076
	BYTE	W03
	BYTE		        Gn5   v080
	BYTE	W03
	BYTE		        Gn5   v088
	BYTE	W03
	BYTE		        Gn5   v092
	BYTE	W03
	BYTE		        Gn5   v096
	BYTE	W03
	BYTE		        Gn5   v112
	BYTE	W02
	BYTE	PEND
	BYTE		EOT     Cn0 
	BYTE	W01
	BYTE		TIE     Cn0   v104
	BYTE		N12     Bn0   v100
	BYTE		N24     Fn2   v104
	BYTE		N44     Gn5   v116
	BYTE	W72
// 105   ----------------------------------------
	BYTE	W12
	BYTE		N05     Gn5   v104
	BYTE	W06
	BYTE		        Gn5   v096
	BYTE	W06
	BYTE		N12     Bn0   v100
	BYTE		N44     Gn5   v116
	BYTE	W72
// 106   ----------------------------------------
	BYTE	PATT
	 POIN2	WarClouds0_11_104
	BYTE		EOT     Cn0 
	BYTE	W01
	BYTE		TIE     Cn0   v104
	BYTE		N92     Bn0   v100
	BYTE		N22     Cn1   v080
	BYTE		N24     Fn2   v104
	BYTE		N44     Gn5   v116
	BYTE	W24
	BYTE		N22     Cn1   v080
	BYTE	W24
	BYTE		N22   
	BYTE	W24
// 107   ----------------------------------------
	BYTE	PATT
	 POIN2	WarClouds0_11_023
// 108   ----------------------------------------
	BYTE		N22     Cn1   v080
	BYTE	W23
	BYTE		EOT     Cn0 
	BYTE	W01
	BYTE		TIE     Cn0   v104
	BYTE		N92     Bn0   v100
	BYTE		N22     Cn1   v080
	BYTE	W24
	BYTE		N22   
	BYTE	W24
	BYTE		N22   
	BYTE	W24
// 109   ----------------------------------------
	BYTE	PATT
	 POIN2	WarClouds0_11_023
// 110   ----------------------------------------
	BYTE		N22     Cn1   v080
	BYTE	W23
	BYTE		EOT     Cn0 
	BYTE	W01
	BYTE		TIE     Cn0   v104
	BYTE		N92     Bn0   v100
	BYTE		N22     Cn1   v080
	BYTE	W24
	BYTE		N22   
	BYTE	W24
	BYTE		N22   
	BYTE	W24
// 111   ----------------------------------------
	BYTE	PATT
	 POIN2	WarClouds0_11_023
// 112   ----------------------------------------
	BYTE		N22     Cn1   v080
	BYTE	W23
	BYTE		EOT     Cn0 
	BYTE	W01
	BYTE		TIE     Cn0   v104
	BYTE		N92     Bn0   v100
	BYTE		N22     Cn1   v080
	BYTE	W24
	BYTE		N22   
	BYTE	W24
	BYTE		N22   
	BYTE	W24
// 113   ----------------------------------------
	BYTE	PATT
	 POIN2	WarClouds0_11_023
// 114   ----------------------------------------
	BYTE		N22     Cn1   v080
	BYTE	W23
	BYTE		EOT     Cn0 
	BYTE	W01
	BYTE		TIE     Cn0   v104
	BYTE		N92     Bn0   v100
	BYTE		N22     Cn1   v080
	BYTE	W24
	BYTE		N22   
	BYTE	W24
	BYTE		N22   
	BYTE	W24
// 115   ----------------------------------------
	BYTE	PATT
	 POIN2	WarClouds0_11_023
// 116   ----------------------------------------
	BYTE		N22     Cn1   v080
	BYTE	W23
	BYTE		EOT     Cn0 
	BYTE	W01
	BYTE		TIE     Cn0   v104
	BYTE		N92     Bn0   v100
	BYTE		N22     Cn1   v080
	BYTE	W24
	BYTE		N22   
	BYTE	W24
	BYTE		N22   
	BYTE	W24
// 117   ----------------------------------------
	BYTE	PATT
	 POIN2	WarClouds0_11_023
// 118   ----------------------------------------
	BYTE		N22     Cn1   v080
	BYTE	W23
	BYTE		EOT     Cn0 
	BYTE	W01
	BYTE		TIE     Cn0   v104
	BYTE		N92     Bn0   v100
	BYTE		N22     Cn1   v080
	BYTE	W24
	BYTE		N22   
	BYTE	W24
	BYTE		N22   
	BYTE	W24
// 119   ----------------------------------------
	BYTE	PATT
	 POIN2	WarClouds0_11_023
// 120   ----------------------------------------
	BYTE		N22     Cn1   v080
	BYTE	W23
	BYTE		EOT     Cn0 
	BYTE	W01
	BYTE		TIE     Cn0   v104
	BYTE		N92     Bn0   v100
	BYTE		N22     Cn1   v080
	BYTE	W24
	BYTE		N22   
	BYTE	W24
	BYTE		N22   
	BYTE	W24
// 121   ----------------------------------------
	BYTE	PATT
	 POIN2	WarClouds0_11_041
// 122   ----------------------------------------
	BYTE		N22     Cn1   v080
	BYTE	W23
	BYTE		EOT     Cn0 
	BYTE	W01
	BYTE		TIE     Cn0   v104
	BYTE		N92     Bn0   v100
	BYTE		N22     Cn1   v080
	BYTE		N24     Fn2   v104
	BYTE	W24
	BYTE		N22     Cn1   v080
	BYTE	W24
	BYTE		N22   
	BYTE	W24
// 123   ----------------------------------------
	BYTE	PATT
	 POIN2	WarClouds0_11_023
// 124   ----------------------------------------
	BYTE		N22     Cn1   v080
	BYTE	W23
	BYTE		EOT     Cn0 
	BYTE	W01
	BYTE		TIE     Cn0   v104
	BYTE		N92     Bn0   v100
	BYTE		N22     Cn1   v080
	BYTE	W24
	BYTE		N22   
	BYTE	W24
	BYTE		N22   
	BYTE	W24
// 125   ----------------------------------------
	BYTE	PATT
	 POIN2	WarClouds0_11_023
// 126   ----------------------------------------
	BYTE		N22     Cn1   v080
	BYTE	W23
	BYTE		EOT     Cn0 
	BYTE	W01
	BYTE		TIE     Cn0   v104
	BYTE		N92     Bn0   v100
	BYTE		N22     Cn1   v080
	BYTE	W24
	BYTE		N22   
	BYTE	W24
	BYTE		N22   
	BYTE	W24
// 127   ----------------------------------------
	BYTE	PATT
	 POIN2	WarClouds0_11_023
// 128   ----------------------------------------
	BYTE		N22     Cn1   v080
	BYTE	W23
	BYTE		EOT     Cn0 
	BYTE	W01
	BYTE		TIE     Cn0   v104
	BYTE		N92     Bn0   v100
	BYTE		N22     Cn1   v080
	BYTE	W24
	BYTE		N22   
	BYTE	W24
	BYTE		N22   
	BYTE	W24
// 129   ----------------------------------------
	BYTE	PATT
	 POIN2	WarClouds0_11_023
// 130   ----------------------------------------
	BYTE		N22     Cn1   v080
	BYTE	W23
	BYTE		EOT     Cn0 
	BYTE	W01
	BYTE		TIE     Cn0   v104
	BYTE		N92     Bn0   v100
	BYTE		N22     Cn1   v080
	BYTE	W24
	BYTE		N22   
	BYTE	W24
	BYTE		N22   
	BYTE	W24
// 131   ----------------------------------------
	BYTE	PATT
	 POIN2	WarClouds0_11_023
// 132   ----------------------------------------
	BYTE		N22     Cn1   v080
	BYTE	W23
	BYTE		EOT     Cn0 
	BYTE	W01
	BYTE		TIE     Cn0   v104
	BYTE		N92     Bn0   v100
	BYTE		N22     Cn1   v080
	BYTE	W24
	BYTE		N22   
	BYTE	W24
	BYTE		N22   
	BYTE	W24
// 133   ----------------------------------------
	BYTE	PATT
	 POIN2	WarClouds0_11_023
// 134   ----------------------------------------
	BYTE		N22     Cn1   v080
	BYTE	W23
	BYTE		EOT     Cn0 
	BYTE	W01
	BYTE		TIE     Cn0   v104
	BYTE		N92     Bn0   v100
	BYTE		N22     Cn1   v080
	BYTE	W24
	BYTE		N22   
	BYTE	W24
	BYTE		N22   
	BYTE	W24
// 135   ----------------------------------------
	BYTE	PATT
	 POIN2	WarClouds0_11_023
// 136   ----------------------------------------
	BYTE		N22     Cn1   v080
	BYTE	W23
	BYTE		EOT     Cn0 
	BYTE	W01
	BYTE		TIE     Cn0   v104
	BYTE		N92     Bn0   v100
	BYTE		N22     Cn1   v080
	BYTE		N24     Fn2   v104
	BYTE	W24
	BYTE		N22     Cn1   v080
	BYTE	W24
	BYTE		N22   
	BYTE	W24
// 137   ----------------------------------------
	BYTE	PATT
	 POIN2	WarClouds0_11_023
// 138   ----------------------------------------
	BYTE		N22     Cn1   v080
	BYTE	W23
	BYTE		EOT     Cn0 
	BYTE	W01
	BYTE		TIE     Cn0   v104
	BYTE		N92     Bn0   v100
	BYTE		N22     Cn1   v080
	BYTE	W24
	BYTE		N22   
	BYTE	W24
	BYTE		N22   
	BYTE	W24
// 139   ----------------------------------------
	BYTE	PATT
	 POIN2	WarClouds0_11_023
// 140   ----------------------------------------
	BYTE		N22     Cn1   v080
	BYTE	W23
	BYTE		EOT     Cn0 
	BYTE	W01
	BYTE		TIE     Cn0   v104
	BYTE		N92     Bn0   v100
	BYTE		N22     Cn1   v080
	BYTE	W24
	BYTE		N22   
	BYTE	W24
	BYTE		N22   
	BYTE	W24
// 141   ----------------------------------------
	BYTE	PATT
	 POIN2	WarClouds0_11_023
// 142   ----------------------------------------
	BYTE		N22     Cn1   v080
	BYTE	W23
	BYTE		EOT     Cn0 
	BYTE	W01
	BYTE	GoTo
	 POIN2	WarClouds0_11_B1
WarClouds0_11_B2:
	BYTE		N48     Bn0   v100
	BYTE		N08     Gn5   v108
	BYTE	W03
	BYTE	W09
	BYTE		N08   
	BYTE	W12
	BYTE		N12     Fn2   v104
	BYTE		N24     Gn5   v108
	BYTE	W02
	BYTE	W03
	BYTE	W03
	BYTE	W03
	BYTE	W03
	BYTE	W02
	BYTE	W01
	BYTE	W01
	BYTE	W01
	BYTE	W01
	BYTE	W01
	BYTE	W01
	BYTE	W01
	BYTE	W01
	BYTE	W01
	BYTE	W01
	BYTE	W01
	BYTE	W01
	BYTE	W01
	BYTE	W01
	BYTE	W01
	BYTE	W02
	BYTE	W01
	BYTE	W02
	BYTE	W01
	BYTE	W02
	BYTE	W01
	BYTE	W02
	BYTE	W01
	BYTE	W02
	BYTE	W01
	BYTE	W02
// 143   ----------------------------------------
	BYTE	W01
	BYTE	W02
	BYTE	W01
	BYTE	W02
	BYTE	FINE

//**************** Track 12 (Midi-Chn.14) ****************//

WarClouds0_12:
	BYTE	KEYSH   WarClouds0_key+0
// 000   ----------------------------------------
	BYTE		VOICE   61
	BYTE		PAN     c_v-7
	BYTE	W03
	BYTE		MOD     0
	BYTE	W01
	BYTE		VOL     34*WarClouds0_mvl/mxv
	BYTE		BEND    c_v+0
	BYTE	W19
	BYTE	W72
	BYTE	W01
// 001   ----------------------------------------
	BYTE	W96
// 002   ----------------------------------------
	BYTE	W96
// 003   ----------------------------------------
	BYTE	W96
// 004   ----------------------------------------
WarClouds0_12_004:
	BYTE	W24
	BYTE		TIE     Gn2   v108
	BYTE	W72
	BYTE	PEND
// 005   ----------------------------------------
	BYTE	W96
// 006   ----------------------------------------
	BYTE	W23
	BYTE		EOT   
	BYTE	W01
	BYTE		N11   
	BYTE	W72
// 007   ----------------------------------------
	BYTE	W96
// 008   ----------------------------------------
	BYTE	PATT
	 POIN2	WarClouds0_12_004
// 009   ----------------------------------------
	BYTE	W96
// 010   ----------------------------------------
	BYTE	W22
	BYTE		EOT     Gn2 
	BYTE	W02
	BYTE		N11     Gn2   v108
	BYTE	W72
// 011   ----------------------------------------
	BYTE	W96
// 012   ----------------------------------------
	BYTE	W96
// 013   ----------------------------------------
	BYTE	W96
// 014   ----------------------------------------
	BYTE	W96
// 015   ----------------------------------------
	BYTE	W96
// 016   ----------------------------------------
	BYTE	W96
// 017   ----------------------------------------
	BYTE	W96
// 018   ----------------------------------------
	BYTE	PATT
	 POIN2	WarClouds0_12_004
// 019   ----------------------------------------
	BYTE	W96
// 020   ----------------------------------------
	BYTE	W96
// 021   ----------------------------------------
	BYTE	W96
// 022   ----------------------------------------
	BYTE	W96
// 023   ----------------------------------------
	BYTE	W96
// 024   ----------------------------------------
	BYTE	W96
// 025   ----------------------------------------
	BYTE	W96
// 026   ----------------------------------------
	BYTE	W22
	BYTE		EOT     Gn2 
	BYTE	W02
	BYTE		TIE     Gn2   v108
	BYTE	W72
// 027   ----------------------------------------
	BYTE	W96
// 028   ----------------------------------------
	BYTE	W96
// 029   ----------------------------------------
	BYTE	W96
// 030   ----------------------------------------
	BYTE	W23
	BYTE		EOT   
	BYTE	W01
	BYTE		N92     Ds3   v096
	BYTE	W72
// 031   ----------------------------------------
	BYTE	W24
	BYTE		        Fn2   v108
	BYTE	W72
// 032   ----------------------------------------
	BYTE	W24
	BYTE		        Dn3   v096
	BYTE	W72
// 033   ----------------------------------------
	BYTE	W24
	BYTE		N68     Ds3 
	BYTE	W72
// 034   ----------------------------------------
WarClouds0_12_034:
	BYTE		N23     Dn3   v096
	BYTE	W24
	BYTE		N92     Cn3 
	BYTE	W72
	BYTE	PEND
// 035   ----------------------------------------
	BYTE	W24
	BYTE		        An2 
	BYTE	W72
// 036   ----------------------------------------
	BYTE	W24
	BYTE		        As2 
	BYTE	W72
// 037   ----------------------------------------
	BYTE	W24
	BYTE		        Gn2 
	BYTE	W72
// 038   ----------------------------------------
	BYTE	W24
	BYTE		        Ds3 
	BYTE	W72
// 039   ----------------------------------------
	BYTE	W24
	BYTE		        Fn3 
	BYTE	W72
// 040   ----------------------------------------
WarClouds0_12_040:
	BYTE	W24
	BYTE		TIE     Gn2   v096
	BYTE	W72
	BYTE	PEND
// 041   ----------------------------------------
	BYTE	W96
// 042   ----------------------------------------
	BYTE	W23
	BYTE		EOT   
	BYTE	W01
	BYTE		TIE     Gn2   v108
	BYTE	W72
// 043   ----------------------------------------
	BYTE	W96
// 044   ----------------------------------------
	BYTE	W96
// 045   ----------------------------------------
	BYTE	W96
// 046   ----------------------------------------
	BYTE	W23
	BYTE		EOT   
	BYTE	W01
	BYTE		N92     Ds3   v096
	BYTE	W72
// 047   ----------------------------------------
	BYTE	W24
	BYTE		        Fn2   v108
	BYTE	W72
// 048   ----------------------------------------
	BYTE	W24
	BYTE		        Dn3   v096
	BYTE	W72
// 049   ----------------------------------------
	BYTE	W24
	BYTE		N68     Ds3 
	BYTE	W72
// 050   ----------------------------------------
	BYTE	PATT
	 POIN2	WarClouds0_12_034
// 051   ----------------------------------------
	BYTE	W24
	BYTE		N92     An2   v096
	BYTE	W72
// 052   ----------------------------------------
	BYTE	W24
	BYTE		        As2 
	BYTE	W72
// 053   ----------------------------------------
	BYTE	W24
	BYTE		        Gn2 
	BYTE	W72
// 054   ----------------------------------------
	BYTE	W24
	BYTE		        Ds3 
	BYTE	W72
// 055   ----------------------------------------
	BYTE	W24
	BYTE		        Fn3 
	BYTE	W72
// 056   ----------------------------------------
	BYTE	PATT
	 POIN2	WarClouds0_12_040
// 057   ----------------------------------------
	BYTE	W96
// 058   ----------------------------------------
	BYTE	W23
	BYTE		EOT     Gn2 
	BYTE	W01
WarClouds0_12_B1:
	BYTE		N04     Gn2   v108
	BYTE	W06
	BYTE		N04   
	BYTE	W06
	BYTE		N04   
	BYTE	W24
	BYTE		N04   
	BYTE	W06
	BYTE		N04   
	BYTE	W06
	BYTE		N04   
	BYTE	W24
// 059   ----------------------------------------
	BYTE	W96
// 060   ----------------------------------------
WarClouds0_12_060:
	BYTE	W24
	BYTE		N04     Gn2   v108
	BYTE	W06
	BYTE		N04   
	BYTE	W06
	BYTE		N04   
	BYTE	W24
	BYTE		N04   
	BYTE	W06
	BYTE		N04   
	BYTE	W06
	BYTE		N04   
	BYTE	W24
	BYTE	PEND
// 061   ----------------------------------------
	BYTE	W96
// 062   ----------------------------------------
	BYTE	PATT
	 POIN2	WarClouds0_12_060
// 063   ----------------------------------------
	BYTE	W96
// 064   ----------------------------------------
	BYTE	PATT
	 POIN2	WarClouds0_12_060
// 065   ----------------------------------------
	BYTE	W96
// 066   ----------------------------------------
	BYTE	W96
// 067   ----------------------------------------
	BYTE	W96
// 068   ----------------------------------------
	BYTE	W96
// 069   ----------------------------------------
	BYTE	W96
// 070   ----------------------------------------
	BYTE	W96
// 071   ----------------------------------------
	BYTE	W96
// 072   ----------------------------------------
	BYTE	W96
// 073   ----------------------------------------
	BYTE	W96
// 074   ----------------------------------------
	BYTE	W96
// 075   ----------------------------------------
	BYTE	W96
// 076   ----------------------------------------
	BYTE	W96
// 077   ----------------------------------------
	BYTE	W96
// 078   ----------------------------------------
	BYTE	W96
// 079   ----------------------------------------
	BYTE	W96
// 080   ----------------------------------------
	BYTE	W96
// 081   ----------------------------------------
	BYTE	W96
// 082   ----------------------------------------
	BYTE	W24
	BYTE		TIE     Cn3   v080
	BYTE	W72
// 083   ----------------------------------------
	BYTE	W96
// 084   ----------------------------------------
	BYTE	W23
	BYTE		EOT   
	BYTE	W01
	BYTE		TIE   
	BYTE	W72
// 085   ----------------------------------------
	BYTE	W96
// 086   ----------------------------------------
	BYTE	W23
	BYTE		EOT   
	BYTE	W01
	BYTE		N92   
	BYTE	W72
// 087   ----------------------------------------
	BYTE	W24
	BYTE		        Gs2 
	BYTE	W72
// 088   ----------------------------------------
	BYTE	W24
	BYTE		TIE     Gn2 
	BYTE	W72
// 089   ----------------------------------------
	BYTE	W96
// 090   ----------------------------------------
	BYTE	W23
	BYTE		EOT   
	BYTE	W01
	BYTE		N92     Gs2 
	BYTE	W72
// 091   ----------------------------------------
	BYTE	W24
	BYTE		        As2 
	BYTE	W72
// 092   ----------------------------------------
	BYTE	W24
	BYTE		        Cn3 
	BYTE	W72
// 093   ----------------------------------------
	BYTE	W24
	BYTE		        Cs3 
	BYTE	W72
// 094   ----------------------------------------
	BYTE	W24
	BYTE		        Dn3 
	BYTE	W72
// 095   ----------------------------------------
	BYTE	W24
	BYTE		        Gn3 
	BYTE	W72
// 096   ----------------------------------------
	BYTE	W24
	BYTE		        Cn3 
	BYTE	W72
// 097   ----------------------------------------
	BYTE	W24
	BYTE		        Dn3 
	BYTE	W72
// 098   ----------------------------------------
	BYTE	W24
	BYTE		N05     Gn2   v108
	BYTE	W72
// 099   ----------------------------------------
	BYTE	W24
	BYTE		N05   
	BYTE	W72
// 100   ----------------------------------------
	BYTE	W24
	BYTE		N05   
	BYTE	W72
// 101   ----------------------------------------
	BYTE	W24
	BYTE		N92     Gn2   v096
	BYTE	W04
	BYTE	W04
	BYTE	W02
	BYTE	W04
	BYTE	W02
	BYTE	W04
	BYTE	W04
	BYTE	W02
	BYTE	W04
	BYTE	W02
	BYTE	W04
	BYTE	W04
	BYTE	W02
	BYTE	W04
	BYTE	W02
	BYTE	W04
	BYTE	W04
	BYTE	W02
	BYTE	W04
	BYTE	W02
	BYTE	W04
	BYTE	W04
// 102   ----------------------------------------
	BYTE	W02
	BYTE	W04
	BYTE	W02
	BYTE	W04
	BYTE	W02
	BYTE	W04
	BYTE	W04
	BYTE	W02
	BYTE		TIE     Gn2   v127
	BYTE	W72
// 103   ----------------------------------------
	BYTE	W96
// 104   ----------------------------------------
	BYTE	W96
// 105   ----------------------------------------
	BYTE	W24
	BYTE	W10
	BYTE	W10
	BYTE	W10
	BYTE	W10
	BYTE	W08
	BYTE	W10
	BYTE	W10
	BYTE	W04
// 106   ----------------------------------------
	BYTE	W06
	BYTE	W08
	BYTE	W10
	BYTE		EOT   
	BYTE		N92     Gn2   v108
	BYTE	W72
// 107   ----------------------------------------
	BYTE	W96
// 108   ----------------------------------------
	BYTE	W96
// 109   ----------------------------------------
	BYTE	W96
// 110   ----------------------------------------
	BYTE	W24
	BYTE		        Ds3   v096
	BYTE	W72
// 111   ----------------------------------------
	BYTE	W24
	BYTE		        Fn2   v108
	BYTE	W72
// 112   ----------------------------------------
	BYTE	W24
	BYTE		        Dn3   v096
	BYTE	W72
// 113   ----------------------------------------
	BYTE	W24
	BYTE		N68     Ds3 
	BYTE	W72
// 114   ----------------------------------------
	BYTE	PATT
	 POIN2	WarClouds0_12_034
// 115   ----------------------------------------
	BYTE	W24
	BYTE		N92     An2   v096
	BYTE	W72
// 116   ----------------------------------------
	BYTE	W24
	BYTE		        As2 
	BYTE	W72
// 117   ----------------------------------------
	BYTE	W24
	BYTE		        Gn2 
	BYTE	W72
// 118   ----------------------------------------
	BYTE	W24
	BYTE		        Ds3 
	BYTE	W72
// 119   ----------------------------------------
	BYTE	W24
	BYTE		        Fn3 
	BYTE	W72
// 120   ----------------------------------------
	BYTE	PATT
	 POIN2	WarClouds0_12_040
// 121   ----------------------------------------
	BYTE	W96
// 122   ----------------------------------------
	BYTE	W23
	BYTE		EOT     Gn2 
	BYTE	W01
	BYTE		TIE     Gn2   v108
	BYTE	W72
// 123   ----------------------------------------
	BYTE	W96
// 124   ----------------------------------------
	BYTE	W96
// 125   ----------------------------------------
	BYTE	W96
// 126   ----------------------------------------
	BYTE	W23
	BYTE		EOT   
	BYTE	W01
	BYTE		N92     Ds3   v096
	BYTE	W72
// 127   ----------------------------------------
	BYTE	W24
	BYTE		        Fn2   v108
	BYTE	W72
// 128   ----------------------------------------
	BYTE	W24
	BYTE		        Dn3   v096
	BYTE	W72
// 129   ----------------------------------------
	BYTE	W24
	BYTE		N68     Ds3 
	BYTE	W72
// 130   ----------------------------------------
	BYTE	PATT
	 POIN2	WarClouds0_12_034
// 131   ----------------------------------------
	BYTE	W24
	BYTE		N92     An2   v096
	BYTE	W72
// 132   ----------------------------------------
	BYTE	W24
	BYTE		        As2 
	BYTE	W72
// 133   ----------------------------------------
	BYTE	W24
	BYTE		        Gn2 
	BYTE	W72
// 134   ----------------------------------------
	BYTE	W24
	BYTE		        Ds3 
	BYTE	W72
// 135   ----------------------------------------
	BYTE	W24
	BYTE		        Fn3 
	BYTE	W72
// 136   ----------------------------------------
	BYTE	W24
	BYTE		        Cn3 
	BYTE	W72
// 137   ----------------------------------------
	BYTE	W24
	BYTE		        Dn3 
	BYTE	W72
// 138   ----------------------------------------
	BYTE	W24
	BYTE		        Ds3 
	BYTE	W72
// 139   ----------------------------------------
	BYTE	W24
	BYTE		        Fn3 
	BYTE	W72
// 140   ----------------------------------------
	BYTE	PATT
	 POIN2	WarClouds0_12_040
// 141   ----------------------------------------
	BYTE	W96
// 142   ----------------------------------------
	BYTE	W23
	BYTE		EOT     Gn2 
	BYTE	W01
	BYTE	GoTo
	 POIN2	WarClouds0_12_B1
WarClouds0_12_B2:
	BYTE		N05     Gn2   v108
	BYTE	W12
	BYTE		N05   
	BYTE	W12
	BYTE		N05   
	BYTE	W48
// 143   ----------------------------------------
	BYTE	W06
	BYTE	FINE

//**************** Track 13 (Midi-Chn.15) ****************//

WarClouds0_13:
	BYTE	KEYSH   WarClouds0_key+0
// 000   ----------------------------------------
	BYTE	W04
	BYTE		VOICE   52
	BYTE		MOD     0
	BYTE		VOL     42*WarClouds0_mvl/mxv
	BYTE		PAN     c_v+0
	BYTE		BEND    c_v+0
	BYTE	W19
	BYTE	W72
	BYTE	W01
// 001   ----------------------------------------
	BYTE	W96
// 002   ----------------------------------------
	BYTE	W96
// 003   ----------------------------------------
	BYTE	W96
// 004   ----------------------------------------
	BYTE	W96
// 005   ----------------------------------------
	BYTE	W96
// 006   ----------------------------------------
	BYTE	W96
// 007   ----------------------------------------
	BYTE	W96
// 008   ----------------------------------------
	BYTE	W96
// 009   ----------------------------------------
	BYTE	W96
// 010   ----------------------------------------
	BYTE	W96
// 011   ----------------------------------------
	BYTE	W96
// 012   ----------------------------------------
	BYTE	W96
// 013   ----------------------------------------
	BYTE	W96
// 014   ----------------------------------------
	BYTE	W96
// 015   ----------------------------------------
	BYTE	W96
// 016   ----------------------------------------
	BYTE	W96
// 017   ----------------------------------------
	BYTE	W96
// 018   ----------------------------------------
	BYTE	W24
	BYTE		N92     Gn2   v096
	BYTE	W72
// 019   ----------------------------------------
	BYTE	W24
	BYTE		        Dn3 
	BYTE	W72
// 020   ----------------------------------------
	BYTE	W24
	BYTE		        Ds3 
	BYTE	W72
// 021   ----------------------------------------
	BYTE	W24
	BYTE		        Cn3 
	BYTE	W72
// 022   ----------------------------------------
	BYTE	W24
	BYTE		        Dn3 
	BYTE	W72
// 023   ----------------------------------------
	BYTE	W24
	BYTE		N44     Ds3 
	BYTE	W48
	BYTE		        As3 
	BYTE	W24
// 024   ----------------------------------------
	BYTE	W24
	BYTE		TIE     Gn3 
	BYTE	W72
// 025   ----------------------------------------
	BYTE	W96
// 026   ----------------------------------------
	BYTE	W22
	BYTE		EOT   
	BYTE	W72
	BYTE	W02
// 027   ----------------------------------------
	BYTE	W96
// 028   ----------------------------------------
	BYTE	W96
// 029   ----------------------------------------
	BYTE	W96
// 030   ----------------------------------------
	BYTE	W96
// 031   ----------------------------------------
	BYTE	W96
// 032   ----------------------------------------
	BYTE	W96
// 033   ----------------------------------------
	BYTE	W96
// 034   ----------------------------------------
	BYTE	W96
// 035   ----------------------------------------
	BYTE	W96
// 036   ----------------------------------------
	BYTE	W96
// 037   ----------------------------------------
	BYTE	W96
// 038   ----------------------------------------
	BYTE	W96
// 039   ----------------------------------------
	BYTE	W96
// 040   ----------------------------------------
	BYTE	W96
// 041   ----------------------------------------
	BYTE	W96
// 042   ----------------------------------------
	BYTE	W96
// 043   ----------------------------------------
	BYTE	W96
// 044   ----------------------------------------
	BYTE	W96
// 045   ----------------------------------------
	BYTE	W96
// 046   ----------------------------------------
	BYTE	W96
// 047   ----------------------------------------
	BYTE	W96
// 048   ----------------------------------------
	BYTE	W96
// 049   ----------------------------------------
	BYTE	W96
// 050   ----------------------------------------
	BYTE	W96
// 051   ----------------------------------------
	BYTE	W96
// 052   ----------------------------------------
	BYTE	W96
// 053   ----------------------------------------
	BYTE	W96
// 054   ----------------------------------------
	BYTE	W96
// 055   ----------------------------------------
	BYTE	W96
// 056   ----------------------------------------
	BYTE	W96
// 057   ----------------------------------------
	BYTE	W96
// 058   ----------------------------------------
	BYTE	W23
	BYTE	W01
WarClouds0_13_B1:
	BYTE		TIE     Gn2   v104
	BYTE	W72
// 059   ----------------------------------------
	BYTE	W96
// 060   ----------------------------------------
	BYTE	W23
	BYTE		EOT   
	BYTE	W01
	BYTE		TIE   
	BYTE	W72
// 061   ----------------------------------------
	BYTE	W24
	BYTE	W06
	BYTE	W06
	BYTE	W07
	BYTE	W06
	BYTE	W07
	BYTE	W06
	BYTE	W06
	BYTE	W07
	BYTE	W06
	BYTE	W07
	BYTE	W06
	BYTE	W02
// 062   ----------------------------------------
	BYTE	W04
	BYTE	W07
	BYTE	W06
	BYTE	W06
	BYTE		EOT   
	BYTE	W01
	BYTE		TIE   
	BYTE	W06
	BYTE	W06
	BYTE	W07
	BYTE	W06
	BYTE	W07
	BYTE	W06
	BYTE	W06
	BYTE	W07
	BYTE	W06
	BYTE	W07
	BYTE	W06
	BYTE	W02
// 063   ----------------------------------------
	BYTE	W04
	BYTE	W07
	BYTE	W06
	BYTE	W07
	BYTE	W72
// 064   ----------------------------------------
	BYTE	W23
	BYTE		EOT   
	BYTE	W01
	BYTE		TIE   
	BYTE	W72
// 065   ----------------------------------------
	BYTE	W96
// 066   ----------------------------------------
	BYTE	W23
	BYTE		EOT   
	BYTE	W72
	BYTE	W01
// 067   ----------------------------------------
	BYTE	W96
// 068   ----------------------------------------
	BYTE	W96
// 069   ----------------------------------------
	BYTE	W96
// 070   ----------------------------------------
	BYTE	W96
// 071   ----------------------------------------
	BYTE	W96
// 072   ----------------------------------------
	BYTE	W96
// 073   ----------------------------------------
	BYTE	W96
// 074   ----------------------------------------
	BYTE	W24
	BYTE		TIE     Cn2   v108
	BYTE	W72
// 075   ----------------------------------------
	BYTE	W96
// 076   ----------------------------------------
	BYTE	W23
	BYTE		EOT   
	BYTE	W01
	BYTE		N92     Fn2 
	BYTE	W72
// 077   ----------------------------------------
	BYTE	W24
	BYTE		N92   
	BYTE	W72
// 078   ----------------------------------------
	BYTE	W24
	BYTE		        As2 
	BYTE	W72
// 079   ----------------------------------------
	BYTE	W24
	BYTE		N92   
	BYTE	W72
// 080   ----------------------------------------
	BYTE	W24
	BYTE		        Cn3 
	BYTE	W72
// 081   ----------------------------------------
	BYTE	W24
	BYTE		N92   
	BYTE	W72
// 082   ----------------------------------------
	BYTE	W96
// 083   ----------------------------------------
	BYTE	W96
// 084   ----------------------------------------
	BYTE	W96
// 085   ----------------------------------------
	BYTE	W96
// 086   ----------------------------------------
	BYTE	W96
// 087   ----------------------------------------
	BYTE	W96
// 088   ----------------------------------------
	BYTE	W96
// 089   ----------------------------------------
	BYTE	W96
// 090   ----------------------------------------
	BYTE	W24
	BYTE		        Ds2 
	BYTE	W72
// 091   ----------------------------------------
	BYTE	W24
	BYTE		        Fn2 
	BYTE	W72
// 092   ----------------------------------------
	BYTE	W24
	BYTE		        Cn2 
	BYTE	W72
// 093   ----------------------------------------
	BYTE	W24
	BYTE		N44     Ds2 
	BYTE	W48
	BYTE		        Fn2 
	BYTE	W24
// 094   ----------------------------------------
	BYTE	W24
	BYTE		        Gn2 
	BYTE	W48
	BYTE		N23     Fn2 
	BYTE	W24
// 095   ----------------------------------------
	BYTE		        Gn2 
	BYTE	W24
	BYTE		N44     Fn2 
	BYTE	W48
	BYTE		        Dn2 
	BYTE	W24
// 096   ----------------------------------------
	BYTE	W24
	BYTE		N92   
	BYTE	W72
// 097   ----------------------------------------
	BYTE	W24
	BYTE		N92   
	BYTE	W72
// 098   ----------------------------------------
	BYTE	W96
// 099   ----------------------------------------
	BYTE	W96
// 100   ----------------------------------------
	BYTE	W96
// 101   ----------------------------------------
	BYTE	W96
// 102   ----------------------------------------
	BYTE	W96
// 103   ----------------------------------------
	BYTE	W96
// 104   ----------------------------------------
	BYTE	W96
// 105   ----------------------------------------
	BYTE	W96
// 106   ----------------------------------------
	BYTE	W96
// 107   ----------------------------------------
	BYTE	W96
// 108   ----------------------------------------
	BYTE	W96
// 109   ----------------------------------------
	BYTE	W96
// 110   ----------------------------------------
	BYTE	W96
// 111   ----------------------------------------
	BYTE	W96
// 112   ----------------------------------------
	BYTE	W96
// 113   ----------------------------------------
	BYTE	W96
// 114   ----------------------------------------
	BYTE	W96
// 115   ----------------------------------------
	BYTE	W96
// 116   ----------------------------------------
	BYTE	W96
// 117   ----------------------------------------
	BYTE	W96
// 118   ----------------------------------------
	BYTE	W96
// 119   ----------------------------------------
	BYTE	W96
// 120   ----------------------------------------
	BYTE	W96
// 121   ----------------------------------------
	BYTE	W96
// 122   ----------------------------------------
	BYTE	W96
// 123   ----------------------------------------
	BYTE	W96
// 124   ----------------------------------------
	BYTE	W96
// 125   ----------------------------------------
	BYTE	W96
// 126   ----------------------------------------
	BYTE	W96
// 127   ----------------------------------------
	BYTE	W96
// 128   ----------------------------------------
	BYTE	W96
// 129   ----------------------------------------
	BYTE	W96
// 130   ----------------------------------------
	BYTE	W96
// 131   ----------------------------------------
	BYTE	W96
// 132   ----------------------------------------
	BYTE	W96
// 133   ----------------------------------------
	BYTE	W96
// 134   ----------------------------------------
	BYTE	W96
// 135   ----------------------------------------
	BYTE	W96
// 136   ----------------------------------------
	BYTE	W96
// 137   ----------------------------------------
	BYTE	W96
// 138   ----------------------------------------
	BYTE	W96
// 139   ----------------------------------------
	BYTE	W96
// 140   ----------------------------------------
	BYTE	W96
// 141   ----------------------------------------
	BYTE	W96
// 142   ----------------------------------------
	BYTE	W24
	BYTE	GoTo
	 POIN2	WarClouds0_13_B1
WarClouds0_13_B2:
	BYTE	W72
// 143   ----------------------------------------
	BYTE	W06
	BYTE	FINE

//**************** Track 14 (Midi-Chn.16) ****************//

WarClouds0_14:
	BYTE	KEYSH   WarClouds0_key+0
// 000   ----------------------------------------
	BYTE	W04
	BYTE		VOICE   46
	BYTE		MOD     0
	BYTE		VOL     51*WarClouds0_mvl/mxv
	BYTE		PAN     c_v+0
	BYTE		BEND    c_v+0
	BYTE	W19
	BYTE	W01
	BYTE	W72
// 001   ----------------------------------------
	BYTE	W96
// 002   ----------------------------------------
	BYTE	W96
// 003   ----------------------------------------
	BYTE	W96
// 004   ----------------------------------------
	BYTE	W96
// 005   ----------------------------------------
	BYTE	W96
// 006   ----------------------------------------
	BYTE	W96
// 007   ----------------------------------------
	BYTE	W96
// 008   ----------------------------------------
	BYTE	W96
// 009   ----------------------------------------
	BYTE	W96
// 010   ----------------------------------------
	BYTE	W96
// 011   ----------------------------------------
	BYTE	W96
// 012   ----------------------------------------
	BYTE	W96
// 013   ----------------------------------------
	BYTE	W96
// 014   ----------------------------------------
	BYTE	W96
// 015   ----------------------------------------
	BYTE	W96
// 016   ----------------------------------------
	BYTE	W96
// 017   ----------------------------------------
	BYTE	W96
// 018   ----------------------------------------
	BYTE	W96
// 019   ----------------------------------------
	BYTE	W96
// 020   ----------------------------------------
	BYTE	W96
// 021   ----------------------------------------
	BYTE	W96
// 022   ----------------------------------------
	BYTE	W96
// 023   ----------------------------------------
	BYTE	W96
// 024   ----------------------------------------
	BYTE	W96
// 025   ----------------------------------------
	BYTE	W96
// 026   ----------------------------------------
	BYTE	W96
// 027   ----------------------------------------
	BYTE	W96
// 028   ----------------------------------------
	BYTE	W96
// 029   ----------------------------------------
	BYTE	W96
// 030   ----------------------------------------
	BYTE	W96
// 031   ----------------------------------------
	BYTE	W96
// 032   ----------------------------------------
	BYTE	W96
// 033   ----------------------------------------
	BYTE	W96
// 034   ----------------------------------------
	BYTE	W96
// 035   ----------------------------------------
	BYTE	W96
// 036   ----------------------------------------
	BYTE	W96
// 037   ----------------------------------------
	BYTE	W96
// 038   ----------------------------------------
	BYTE	W96
// 039   ----------------------------------------
	BYTE	W96
// 040   ----------------------------------------
	BYTE	W96
// 041   ----------------------------------------
	BYTE	W96
// 042   ----------------------------------------
	BYTE	W96
// 043   ----------------------------------------
	BYTE	W96
// 044   ----------------------------------------
	BYTE	W96
// 045   ----------------------------------------
	BYTE	W96
// 046   ----------------------------------------
	BYTE	W96
// 047   ----------------------------------------
	BYTE	W96
// 048   ----------------------------------------
	BYTE	W96
// 049   ----------------------------------------
	BYTE	W96
// 050   ----------------------------------------
	BYTE	W96
// 051   ----------------------------------------
	BYTE	W96
// 052   ----------------------------------------
	BYTE	W96
// 053   ----------------------------------------
	BYTE	W96
// 054   ----------------------------------------
	BYTE	W96
// 055   ----------------------------------------
	BYTE	W96
// 056   ----------------------------------------
	BYTE	W96
// 057   ----------------------------------------
	BYTE	W96
// 058   ----------------------------------------
	BYTE	W24
WarClouds0_14_B1:
	BYTE	W72
// 059   ----------------------------------------
	BYTE	W96
// 060   ----------------------------------------
	BYTE	W96
// 061   ----------------------------------------
	BYTE	W96
// 062   ----------------------------------------
	BYTE	W96
// 063   ----------------------------------------
	BYTE	W96
// 064   ----------------------------------------
	BYTE	W96
// 065   ----------------------------------------
	BYTE	W24
	BYTE	W72
// 066   ----------------------------------------
	BYTE	W24
	BYTE		N68     Cn3   v108
	BYTE	W06
	BYTE	W06
	BYTE		N23     Gn3 
	BYTE	W06
	BYTE	W06
	BYTE		N44     Ds4 
	BYTE	W06
	BYTE	W06
	BYTE		N23     Gn3 
	BYTE	W06
	BYTE	W06
	BYTE		N44     Dn4 
	BYTE	W06
	BYTE	W06
	BYTE		N23     Gn3 
	BYTE	W06
	BYTE	W06
// 067   ----------------------------------------
	BYTE		N44     Cn4 
	BYTE	W06
	BYTE	W06
	BYTE		N23     Gn3 
	BYTE	W06
	BYTE	W06
	BYTE		N68     Cn3 
	BYTE	W12
	BYTE		N23     Gn3 
	BYTE	W12
	BYTE		N44     Ds4 
	BYTE	W12
	BYTE		N23     Gn3 
	BYTE	W12
	BYTE		N44     Dn4 
	BYTE	W12
	BYTE		N23     Gn3 
	BYTE	W12
// 068   ----------------------------------------
WarClouds0_14_068:
	BYTE		N44     Cn4   v108
	BYTE	W12
	BYTE		N23     Gn3 
	BYTE	W12
	BYTE		N68     Cn3 
	BYTE	W12
	BYTE		N23     Gs3 
	BYTE	W12
	BYTE		N44     Fn4 
	BYTE	W12
	BYTE		N23     Gs3 
	BYTE	W12
	BYTE		N44     Ds4 
	BYTE	W12
	BYTE		N23     Gs3 
	BYTE	W12
	BYTE	PEND
// 069   ----------------------------------------
WarClouds0_14_069:
	BYTE		N44     Cn4   v108
	BYTE	W12
	BYTE		N23     Gs3 
	BYTE	W12
	BYTE		N68     Cn3 
	BYTE	W12
	BYTE		N23     Gs3 
	BYTE	W12
	BYTE		N44     Fn4 
	BYTE	W12
	BYTE		N23     Gs3 
	BYTE	W12
	BYTE		N44     Ds4 
	BYTE	W12
	BYTE		N23     Gs3 
	BYTE	W12
	BYTE	PEND
// 070   ----------------------------------------
	BYTE		N44     Gs4 
	BYTE	W12
	BYTE		        Cn4 
	BYTE	W12
	BYTE		N68     Cn3 
	BYTE	W12
	BYTE		N44     Gn3 
	BYTE	W12
	BYTE		N32     Dn4 
	BYTE	W12
	BYTE		        As3 
	BYTE	W12
	BYTE		N44     Fn4 
	BYTE	W12
	BYTE		N56     Dn4 
	BYTE	W12
// 071   ----------------------------------------
WarClouds0_14_071:
	BYTE		N44     As4   v108
	BYTE	W12
	BYTE		N23     Gn3 
	BYTE	W12
	BYTE		N68     Cn3 
	BYTE	W12
	BYTE		N44     Gn3 
	BYTE	W12
	BYTE		N32     Dn4 
	BYTE	W12
	BYTE		        As3 
	BYTE	W12
	BYTE		N44     Fn4 
	BYTE	W12
	BYTE		N68     Dn4 
	BYTE	W12
	BYTE	PEND
// 072   ----------------------------------------
	BYTE		N44     As4 
	BYTE	W12
	BYTE		N32     Gn3 
	BYTE	W12
	BYTE		N68     Cn3 
	BYTE	W12
	BYTE		N23     Gs3 
	BYTE	W12
	BYTE		N44     Fn4 
	BYTE	W12
	BYTE		N23     Gs3 
	BYTE	W12
	BYTE		N44     Ds4 
	BYTE	W12
	BYTE		N23     Gs3 
	BYTE	W12
// 073   ----------------------------------------
	BYTE	PATT
	 POIN2	WarClouds0_14_069
// 074   ----------------------------------------
WarClouds0_14_074:
	BYTE		N44     Cn4   v108
	BYTE	W12
	BYTE		N23     Gs3 
	BYTE	W12
	BYTE		N68     Cn3 
	BYTE	W12
	BYTE		N23     Gn3 
	BYTE	W12
	BYTE		N44     Ds4 
	BYTE	W12
	BYTE		N23     Gn3 
	BYTE	W12
	BYTE		N44     Dn4 
	BYTE	W12
	BYTE		N23     Gn3 
	BYTE	W12
	BYTE	PEND
// 075   ----------------------------------------
WarClouds0_14_075:
	BYTE		N44     Cn4   v108
	BYTE	W12
	BYTE		N23     Gn3 
	BYTE	W12
	BYTE		N68     Cn3 
	BYTE	W12
	BYTE		N23     Gn3 
	BYTE	W12
	BYTE		N44     Ds4 
	BYTE	W12
	BYTE		N23     Gn3 
	BYTE	W12
	BYTE		N44     Dn4 
	BYTE	W12
	BYTE		N23     Gn3 
	BYTE	W12
	BYTE	PEND
// 076   ----------------------------------------
	BYTE	PATT
	 POIN2	WarClouds0_14_068
// 077   ----------------------------------------
WarClouds0_14_077:
	BYTE		N44     Cn4   v108
	BYTE	W12
	BYTE		N23     Gs3 
	BYTE	W12
	BYTE		N68     Cn3 
	BYTE	W12
	BYTE		N23     Gs3 
	BYTE	W12
	BYTE		N44     Fn4 
	BYTE	W12
	BYTE		N23     Gs3 
	BYTE	W12
	BYTE		N44     Ds4 
	BYTE	W12
	BYTE		        Gs3 
	BYTE	W12
	BYTE	PEND
// 078   ----------------------------------------
	BYTE		        Gs4 
	BYTE	W12
	BYTE		N68     Cn4 
	BYTE	W12
	BYTE		        Cn3 
	BYTE	W12
	BYTE		N44     Gn3 
	BYTE	W12
	BYTE		N32     Dn4 
	BYTE	W12
	BYTE		        As3 
	BYTE	W12
	BYTE		N44     Fn4 
	BYTE	W12
	BYTE		N56     Dn4 
	BYTE	W12
// 079   ----------------------------------------
	BYTE	PATT
	 POIN2	WarClouds0_14_071
// 080   ----------------------------------------
	BYTE		N44     As4   v108
	BYTE	W12
	BYTE		N23     Gn3 
	BYTE	W12
	BYTE		N68     Cn3 
	BYTE	W12
	BYTE		N23     Gs3 
	BYTE	W12
	BYTE		N44     Fn4 
	BYTE	W12
	BYTE		N23     Gs3 
	BYTE	W12
	BYTE		N44     Ds4 
	BYTE	W12
	BYTE		N23     Gs3 
	BYTE	W12
// 081   ----------------------------------------
	BYTE	PATT
	 POIN2	WarClouds0_14_069
// 082   ----------------------------------------
	BYTE	PATT
	 POIN2	WarClouds0_14_074
// 083   ----------------------------------------
	BYTE	PATT
	 POIN2	WarClouds0_14_075
// 084   ----------------------------------------
	BYTE	PATT
	 POIN2	WarClouds0_14_068
// 085   ----------------------------------------
	BYTE	PATT
	 POIN2	WarClouds0_14_077
// 086   ----------------------------------------
	BYTE		N32     Gs4   v108
	BYTE	W12
	BYTE		N68     Cn4 
	BYTE	W12
	BYTE		        Cn3 
	BYTE	W12
	BYTE		N44     Gn3 
	BYTE	W12
	BYTE		N32     Dn4 
	BYTE	W12
	BYTE		        As3 
	BYTE	W12
	BYTE		N44     Fn4 
	BYTE	W12
	BYTE		        Dn4 
	BYTE	W12
// 087   ----------------------------------------
	BYTE		N32     As4 
	BYTE	W12
	BYTE		N23     Gn3 
	BYTE	W12
	BYTE		N68     Gs2 
	BYTE	W12
	BYTE		N44     Gn3 
	BYTE	W12
	BYTE		        Ds4 
	BYTE	W12
	BYTE		N23     Cn4 
	BYTE	W12
	BYTE		N32     Fn4 
	BYTE	W12
	BYTE		        Cn4 
	BYTE	W12
// 088   ----------------------------------------
	BYTE		        Gs4 
	BYTE	W12
	BYTE		N23     Gn3 
	BYTE	W12
	BYTE		N68     Gn2 
	BYTE	W12
	BYTE		N44     Gn3 
	BYTE	W12
	BYTE		N32     Dn4 
	BYTE	W12
	BYTE		        As3 
	BYTE	W12
	BYTE		N44     Fn4 
	BYTE	W12
	BYTE		N32     Dn4 
	BYTE	W12
// 089   ----------------------------------------
	BYTE		        As4 
	BYTE	W12
	BYTE		        Fn3 
	BYTE	W12
	BYTE		N68     Gn2 
	BYTE	W12
	BYTE		N44     Gn3 
	BYTE	W12
	BYTE		N32     Dn4 
	BYTE	W12
	BYTE		        As3 
	BYTE	W12
	BYTE		N44     Fn4 
	BYTE	W12
	BYTE		        Dn4 
	BYTE	W12
// 090   ----------------------------------------
	BYTE		N32     As4 
	BYTE	W12
	BYTE		        Fn3 
	BYTE	W12
	BYTE		N68     Gs2 
	BYTE	W12
	BYTE		N44     Gs3 
	BYTE	W12
	BYTE		N32     Ds4 
	BYTE	W12
	BYTE		        Cn4 
	BYTE	W12
	BYTE		N44     Gn4 
	BYTE	W12
	BYTE		        Ds4 
	BYTE	W12
// 091   ----------------------------------------
	BYTE		N32     Cn5 
	BYTE	W12
	BYTE		N68     Gs3 
	BYTE	W12
	BYTE		        As2 
	BYTE	W12
	BYTE		N44     As3 
	BYTE	W12
	BYTE		N32     Fn4 
	BYTE	W12
	BYTE		        Dn4 
	BYTE	W12
	BYTE		N44     As4 
	BYTE	W12
	BYTE		N23     Fn4 
	BYTE	W12
// 092   ----------------------------------------
	BYTE		N32     Dn5 
	BYTE	W12
	BYTE		N23     Fn4 
	BYTE	W12
	BYTE		N68     Cn2 
	BYTE	W12
	BYTE		N23     Gn3 
	BYTE	W12
	BYTE		N44     Ds4 
	BYTE	W12
	BYTE		N23     Gn3 
	BYTE	W12
	BYTE		N44     Dn4 
	BYTE	W12
	BYTE		N23     Gn3 
	BYTE	W12
// 093   ----------------------------------------
	BYTE		N44     Cn4 
	BYTE	W12
	BYTE		N23     Gn3 
	BYTE	W12
	BYTE		N68     Cs2 
	BYTE	W12
	BYTE		N23     Gs3 
	BYTE	W12
	BYTE		N44     Fn4 
	BYTE	W12
	BYTE		N23     Gs3 
	BYTE	W12
	BYTE		N44     Ds4 
	BYTE	W12
	BYTE		N23     Gs3 
	BYTE	W12
// 094   ----------------------------------------
	BYTE		N44     Cn4 
	BYTE	W12
	BYTE		N23     Gs3 
	BYTE	W12
	BYTE		N68     Dn2 
	BYTE	W12
	BYTE		N23     An3 
	BYTE	W12
	BYTE		N44     Gn4 
	BYTE	W12
	BYTE		N23     An3 
	BYTE	W12
	BYTE		N44     Dn4 
	BYTE	W12
	BYTE		N23     An3 
	BYTE	W12
// 095   ----------------------------------------
	BYTE		N44     Cn4 
	BYTE	W12
	BYTE		N32     Gn3 
	BYTE	W12
	BYTE		N68     Gn2 
	BYTE	W12
	BYTE		N23     Dn4 
	BYTE	W12
	BYTE		N44     As4 
	BYTE	W12
	BYTE		N23     Dn4 
	BYTE	W12
	BYTE		        Fn4 
	BYTE	W12
	BYTE		N11     Dn4 
	BYTE	W12
// 096   ----------------------------------------
	BYTE		N23   
	BYTE	W12
	BYTE		        Gn3 
	BYTE	W12
	BYTE		N68     Cn2 
	BYTE	W12
	BYTE		N23     Gn3 
	BYTE	W12
	BYTE		N44     Ds4 
	BYTE	W12
	BYTE		N23     Gn3 
	BYTE	W12
	BYTE		N44     Dn4 
	BYTE	W12
	BYTE		N23     Gn3 
	BYTE	W12
// 097   ----------------------------------------
	BYTE		N44     Cn4 
	BYTE	W12
	BYTE		N23     Gn3 
	BYTE	W12
	BYTE		N68     Dn2 
	BYTE	W12
	BYTE		N23     An3 
	BYTE	W12
	BYTE		N32     Gn4 
	BYTE	W12
	BYTE		N23     An3 
	BYTE	W12
	BYTE		N32     Dn4 
	BYTE	W12
	BYTE		N44     An3 
	BYTE	W12
// 098   ----------------------------------------
	BYTE		N23     Cn4 
	BYTE	W12
	BYTE		        Gn3 
	BYTE	W84
// 099   ----------------------------------------
	BYTE	W96
// 100   ----------------------------------------
	BYTE	W96
// 101   ----------------------------------------
	BYTE	W96
// 102   ----------------------------------------
	BYTE	W96
// 103   ----------------------------------------
	BYTE	W96
// 104   ----------------------------------------
	BYTE	W96
// 105   ----------------------------------------
	BYTE	W96
// 106   ----------------------------------------
	BYTE	W96
// 107   ----------------------------------------
	BYTE	W96
// 108   ----------------------------------------
	BYTE	W96
// 109   ----------------------------------------
	BYTE	W96
// 110   ----------------------------------------
	BYTE	W96
// 111   ----------------------------------------
	BYTE	W96
// 112   ----------------------------------------
	BYTE	W96
// 113   ----------------------------------------
	BYTE	W96
// 114   ----------------------------------------
	BYTE	W96
// 115   ----------------------------------------
	BYTE	W96
// 116   ----------------------------------------
	BYTE	W96
// 117   ----------------------------------------
	BYTE	W96
// 118   ----------------------------------------
	BYTE	W96
// 119   ----------------------------------------
	BYTE	W96
// 120   ----------------------------------------
	BYTE	W96
// 121   ----------------------------------------
	BYTE	W96
// 122   ----------------------------------------
	BYTE	W96
// 123   ----------------------------------------
	BYTE	W96
// 124   ----------------------------------------
	BYTE	W96
// 125   ----------------------------------------
	BYTE	W96
// 126   ----------------------------------------
	BYTE	W96
// 127   ----------------------------------------
	BYTE	W96
// 128   ----------------------------------------
	BYTE	W96
// 129   ----------------------------------------
	BYTE	W96
// 130   ----------------------------------------
	BYTE	W96
// 131   ----------------------------------------
	BYTE	W96
// 132   ----------------------------------------
	BYTE	W96
// 133   ----------------------------------------
	BYTE	W96
// 134   ----------------------------------------
	BYTE	W96
// 135   ----------------------------------------
	BYTE	W96
// 136   ----------------------------------------
	BYTE	W96
// 137   ----------------------------------------
	BYTE	W96
// 138   ----------------------------------------
	BYTE	W96
// 139   ----------------------------------------
	BYTE	W96
// 140   ----------------------------------------
	BYTE	W96
// 141   ----------------------------------------
	BYTE	W96
// 142   ----------------------------------------
	BYTE	W24
	BYTE	GoTo
	 POIN2	WarClouds0_14_B1
WarClouds0_14_B2:
	BYTE	W72
// 143   ----------------------------------------
	BYTE	W06
	BYTE	FINE

//******************************************************//
	ALIGN 4

WarClouds0:
	BYTE	14	// NumTrks
	BYTE	0	// NumBlks
	BYTE	WarClouds0_pri	// Priority
	BYTE	WarClouds0_rev	// Reverb.

	POIN2	WarClouds0_grp

	POIN2	WarClouds0_1
	POIN2	WarClouds0_2
	POIN2	WarClouds0_3
	POIN2	WarClouds0_4
	POIN2	WarClouds0_5
	POIN2	WarClouds0_6
	POIN2	WarClouds0_7
	POIN2	WarClouds0_8
	POIN2	WarClouds0_9
	POIN2	WarClouds0_10
	POIN2	WarClouds0_11
	POIN2	WarClouds0_12
	POIN2	WarClouds0_13
	POIN2	WarClouds0_14

	
