//Event file generated from Sappy .s format.
	#include "MPlayDef.event"

	#define	WindOfLaGias_grp  voicegroup000
	#define	WindOfLaGias_pri  0
	#define	WindOfLaGias_rev  0
	#define	WindOfLaGias_mvl  127
	#define	WindOfLaGias_key  0
	#define	WindOfLaGias_tbs  1
	#define	WindOfLaGias_exg  0
	#define	WindOfLaGias_cmp  1

	// .rodata
	//	WindOfLaGias
	ALIGN 4

//**************** Track 1 (Midi-Chn.1) ****************//

WindOfLaGias_1:
	BYTE	KEYSH   WindOfLaGias_key+0
// 000   ----------------------------------------
	BYTE	TEMPO   240*WindOfLaGias_tbs/2
	BYTE		VOICE   127
	BYTE		VOL     30*WindOfLaGias_mvl/mxv
	BYTE		MOD     0
	BYTE		PAN     c_v+0
	BYTE		BEND    c_v+0
	BYTE	W24
	BYTE	TEMPO   164*WindOfLaGias_tbs/2
	BYTE	W02
	BYTE		N11     Fn1   v127
	BYTE		N11     Bn1 
	BYTE		N48     Cs3   v124
	BYTE	W02
	BYTE		        Dn3   v108
	BYTE	W22
	BYTE		N12     An3   v092
	BYTE		N12     As3 
	BYTE	W12
	BYTE		N11     Fn1   v112
	BYTE		N11     Bn1 
	BYTE	W12
	BYTE		        Fn1   v127
	BYTE		N11     Bn1 
	BYTE		N12     An3   v096
	BYTE		N12     As3 
	BYTE	W22
// 001   ----------------------------------------
WindOfLaGias_1_001:
	BYTE	W02
	BYTE		N24     An1   v112
	BYTE		N24     As1 
	BYTE		N24     En2   v096
	BYTE		N12     An3   v127
	BYTE		N12     As3 
	BYTE	W24
	BYTE		N11     Fn1 
	BYTE		N11     Bn1 
	BYTE		N12     An3   v092
	BYTE		N12     As3 
	BYTE	W24
	BYTE		        An3   v127
	BYTE		N12     As3 
	BYTE	W12
	BYTE		N11     Fn1   v112
	BYTE		N11     Bn1 
	BYTE	W12
	BYTE		        Fn1   v127
	BYTE		N11     Bn1 
	BYTE		N12     An3   v092
	BYTE		N12     As3 
	BYTE	W22
	BYTE	PEND
// 002   ----------------------------------------
	BYTE	W02
	BYTE		N24     An1   v116
	BYTE		N24     As1 
	BYTE		N24     En2   v100
	BYTE		N12     An3   v120
	BYTE		N12     As3 
	BYTE	W24
	BYTE		N11     Fn1   v127
	BYTE		N11     Bn1 
	BYTE		N48     En3   v112
	BYTE	W02
	BYTE		        Fn3   v096
	BYTE	W22
	BYTE		N12     An3   v088
	BYTE		N12     As3 
	BYTE	W12
	BYTE		N11     Fn1   v112
	BYTE		N11     Bn1 
	BYTE	W12
	BYTE		        Fn1   v127
	BYTE		N11     Bn1 
	BYTE		N12     An3   v096
	BYTE		N12     As3 
	BYTE	W22
// 003   ----------------------------------------
WindOfLaGias_1_003:
	BYTE	W02
	BYTE		N24     An1   v112
	BYTE		N24     As1 
	BYTE		N24     En2   v096
	BYTE		N12     An3   v127
	BYTE		N12     As3 
	BYTE	W24
	BYTE		N11     Fn1 
	BYTE		N11     Bn1 
	BYTE		N12     An3   v088
	BYTE		N12     As3 
	BYTE	W24
	BYTE		        An3   v127
	BYTE		N12     As3 
	BYTE	W12
	BYTE		N11     Fn1   v112
	BYTE		N11     Bn1 
	BYTE	W12
	BYTE		        Fn1   v127
	BYTE		N11     Bn1 
	BYTE		N12     An3   v088
	BYTE		N12     As3 
	BYTE	W22
	BYTE	PEND
// 004   ----------------------------------------
	BYTE	W02
	BYTE		N24     An1   v116
	BYTE		N24     As1 
	BYTE		N24     En2   v100
	BYTE		N12     An3   v127
	BYTE		N12     As3 
	BYTE	W24
	BYTE		N11     Fn1 
	BYTE		N11     Bn1 
	BYTE		N48     Cs3   v112
	BYTE	W02
	BYTE		        Dn3   v096
	BYTE	W22
	BYTE		N12     An3   v088
	BYTE		N12     As3 
	BYTE	W12
	BYTE		N11     Fn1   v112
	BYTE		N11     Bn1 
	BYTE	W12
	BYTE		        Fn1   v127
	BYTE		N11     Bn1 
	BYTE		N12     An3   v096
	BYTE		N12     As3 
	BYTE	W22
// 005   ----------------------------------------
WindOfLaGias_1_005:
	BYTE	W02
	BYTE		N24     An1   v112
	BYTE		N24     As1 
	BYTE		N24     En2   v096
	BYTE		N12     An3   v127
	BYTE		N12     As3 
	BYTE	W24
	BYTE		N11     Fn1 
	BYTE		N11     Bn1 
	BYTE		N12     An3   v088
	BYTE		N12     As3 
	BYTE	W24
	BYTE		        An3   v127
	BYTE		N12     As3 
	BYTE	W12
	BYTE		N11     Fn1   v112
	BYTE		N11     Bn1 
	BYTE	W12
	BYTE		        Fn1   v127
	BYTE		N11     Bn1 
	BYTE		N12     An3   v096
	BYTE		N12     As3 
	BYTE	W22
	BYTE	PEND
// 006   ----------------------------------------
	BYTE	W02
	BYTE		N24     An1   v116
	BYTE		N24     As1 
	BYTE		N24     En2   v100
	BYTE		N12     An3   v127
	BYTE		N12     As3 
	BYTE	W24
	BYTE		N11     Fn1 
	BYTE		N11     Bn1 
	BYTE		N48     En3   v124
	BYTE	W02
	BYTE		        Fn3   v108
	BYTE	W22
	BYTE		N11     Fn1   v124
	BYTE		N24     An1   v096
	BYTE		N24     As1 
	BYTE		N11     Bn1   v124
	BYTE		N24     En2 
	BYTE		N05     Fs2   v112
	BYTE	W24
	BYTE		N11     Fn1   v127
	BYTE		N11     Bn1 
	BYTE		N05     Fs2   v100
	BYTE		N11     An3   v108
	BYTE		N11     As3 
	BYTE	W12
	BYTE		N05     An3   v080
	BYTE		N05     As3 
	BYTE	W06
	BYTE		        An3   v100
	BYTE		N05     As3 
	BYTE	W04
// 007   ----------------------------------------
	BYTE	W02
	BYTE		N11     Fn1   v124
	BYTE		N23     An1   v096
	BYTE		N23     As1 
	BYTE		N11     Bn1   v124
	BYTE		N23     En2 
	BYTE		N05     Fs2   v112
	BYTE		N11     An3   v127
	BYTE		N11     As3 
	BYTE	W12
	BYTE		        Fn1   v096
	BYTE		N11     Bn1 
	BYTE		N05     An3   v092
	BYTE		N05     As3 
	BYTE	W06
	BYTE		        An3   v120
	BYTE		N05     As3 
	BYTE	W06
	BYTE		N11     Fn1   v127
	BYTE		N05     An1   v072
	BYTE		N05     As1 
	BYTE		N11     Bn1   v127
	BYTE		N05     En2   v100
	BYTE		N48     An3   v127
	BYTE		N48     As3 
	BYTE	W06
	BYTE		N05     An1   v064
	BYTE		N05     As1 
	BYTE		N05     En2   v092
	BYTE	W06
	BYTE		N11     Fn1   v124
	BYTE		N05     An1   v072
	BYTE		N05     As1 
	BYTE		N11     Bn1   v124
	BYTE		N05     En2   v096
	BYTE	W06
	BYTE		        An1   v076
	BYTE		N05     As1 
	BYTE		N05     En2   v100
	BYTE	W06
	BYTE		N11     Fn1   v127
	BYTE		N05     An1   v088
	BYTE		N05     As1 
	BYTE		N11     Bn1   v127
	BYTE		N05     En2   v112
	BYTE	W06
	BYTE		        An1   v080
	BYTE		N05     As1 
	BYTE		N05     En2   v108
	BYTE	W06
	BYTE		N11     Fn1   v124
	BYTE		N05     An1   v088
	BYTE		N05     As1 
	BYTE		N11     Bn1   v124
	BYTE		N05     En2   v108
	BYTE	W06
	BYTE		        An1   v092
	BYTE		N05     As1 
	BYTE		N05     En2   v116
	BYTE	W06
	BYTE		N11     Fn1   v127
	BYTE		N05     An1   v100
	BYTE		N05     As1 
	BYTE		N11     Bn1   v127
	BYTE		N05     En2   v124
	BYTE	W06
	BYTE		        An1   v096
	BYTE		N05     As1 
	BYTE		N05     En2   v116
	BYTE	W06
	BYTE		N11     Fn1   v124
	BYTE		N05     An1   v100
	BYTE		N05     As1 
	BYTE		N11     Bn1   v124
	BYTE		N05     En2   v120
	BYTE	W06
	BYTE		        An1   v108
	BYTE		N05     As1 
	BYTE		N05     En2   v124
	BYTE	W04
// 008   ----------------------------------------
WindOfLaGias_1_008:
	BYTE	W02
	BYTE		N11     Fn1   v127
	BYTE		N05     An1   v116
	BYTE		N05     As1 
	BYTE		N11     Bn1   v127
	BYTE		N05     En2 
	BYTE	W06
	BYTE		        An1   v108
	BYTE		N05     As1 
	BYTE		N05     En2   v127
	BYTE	W05
	BYTE	PEND
WindOfLaGias_1_B1:
	BYTE	W01
	BYTE		N11     Fn1   v124
	BYTE		N05     An1   v112
	BYTE		N05     As1 
	BYTE		N11     Bn1   v124
	BYTE		N05     En2   v127
	BYTE	W06
	BYTE		        An1   v116
	BYTE		N05     As1 
	BYTE		N05     En2   v127
	BYTE	W04
	BYTE	TEMPO   165*WindOfLaGias_tbs/2
	BYTE	W02
	BYTE		        Fn1 
	BYTE		N05     Bn1 
	BYTE		N48     Cs3 
	BYTE		N05     Cn5   v092
	BYTE	W02
	BYTE		N48     Dn3   v127
	BYTE	W04
	BYTE		N05     Fn1   v108
	BYTE		N05     Bn1 
	BYTE		N05     Cn5   v076
	BYTE	W06
	BYTE		N11     Fn1   v100
	BYTE		N11     Bn1 
	BYTE		N05     Cn5   v076
	BYTE	W06
	BYTE		N05   
	BYTE	W05
	BYTE		        Fs2   v116
	BYTE	W01
	BYTE		N23     An1   v112
	BYTE		N23     As1 
	BYTE		N24     En2   v096
	BYTE		N05     Dn5   v120
	BYTE	W05
	BYTE		        Gs2   v060
	BYTE	W01
	BYTE		        Cn5   v076
	BYTE	W05
	BYTE		        As2   v004
	BYTE	W01
	BYTE		        Cn5   v076
	BYTE	W06
	BYTE		N11     Fn1   v127
	BYTE		N11     Bn1 
	BYTE		N05     Cn5   v092
	BYTE	W05
	BYTE		        Fs2   v112
	BYTE	W01
	BYTE		        Cn5   v092
	BYTE	W05
	BYTE		        Gs2   v048
	BYTE	W01
	BYTE		        Cn5   v076
	BYTE	W05
	BYTE		        As2   v004
	BYTE	W01
	BYTE		N11     Fn1   v124
	BYTE		N11     Bn1 
	BYTE		N05     Cn5   v076
	BYTE	W06
	BYTE		N05   
	BYTE	W04
// 009   ----------------------------------------
	BYTE	W01
	BYTE		        Fs2   v120
	BYTE	W01
	BYTE		N23     An1   v112
	BYTE		N23     As1 
	BYTE		N24     En2   v096
	BYTE		N05     Dn5   v120
	BYTE	W05
	BYTE		        Gs2   v060
	BYTE	W01
	BYTE		        Cn5   v076
	BYTE	W05
	BYTE		        As2   v004
	BYTE	W01
	BYTE		        Cn5   v076
	BYTE	W06
	BYTE		        Fn1   v084
	BYTE		N05     Bn1 
	BYTE		N05     Cn5   v092
	BYTE	W05
	BYTE		        Fs2   v120
	BYTE	W01
	BYTE		        Fn1   v127
	BYTE		N05     Bn1 
	BYTE		N05     Cn5   v092
	BYTE	W05
	BYTE		        Gs2   v048
	BYTE	W01
	BYTE		        Fn1   v108
	BYTE		N05     Bn1 
	BYTE		N05     Cn5   v076
	BYTE	W05
	BYTE		        As2   v004
	BYTE	W01
	BYTE		N11     Fn1   v100
	BYTE		N11     Bn1 
	BYTE		N05     Cn5   v076
	BYTE	W06
	BYTE		N05   
	BYTE	W05
	BYTE		        Fs2   v116
	BYTE	W01
	BYTE		N23     An1   v112
	BYTE		N23     As1 
	BYTE		N24     En2   v096
	BYTE		N05     Dn5   v120
	BYTE	W05
	BYTE		        Gs2   v060
	BYTE	W01
	BYTE		        Cn5   v076
	BYTE	W05
	BYTE		        As2   v004
	BYTE	W01
	BYTE		        Cn5   v076
	BYTE	W06
	BYTE		N11     Fn1   v127
	BYTE		N11     Bn1 
	BYTE		N05     Cn5   v092
	BYTE	W05
	BYTE		        Fs2   v108
	BYTE	W01
	BYTE		        Cn5   v092
	BYTE	W05
	BYTE		        Gs2   v048
	BYTE	W01
	BYTE		        Cn5   v076
	BYTE	W05
	BYTE		        As2   v004
	BYTE	W01
	BYTE		N11     Fn1   v124
	BYTE		N11     Bn1 
	BYTE		N05     Cn5   v076
	BYTE	W06
	BYTE		N05   
	BYTE	W04
// 010   ----------------------------------------
	BYTE	W01
	BYTE		        Fs2   v116
	BYTE	W01
	BYTE		N23     An1   v112
	BYTE		N23     As1 
	BYTE		N24     En2   v096
	BYTE		N05     Dn5   v120
	BYTE	W05
	BYTE		        Gs2   v060
	BYTE	W01
	BYTE		        Cn5   v076
	BYTE	W05
	BYTE		        As2   v004
	BYTE	W01
	BYTE		        Cn5   v076
	BYTE	W06
	BYTE		        Fn1   v084
	BYTE		N05     Bn1 
	BYTE		N05     Cn5   v092
	BYTE	W05
	BYTE		        Fs2   v120
	BYTE	W01
	BYTE		        Fn1   v127
	BYTE		N05     Bn1 
	BYTE		N05     Cn5   v092
	BYTE	W05
	BYTE		        Gs2   v048
	BYTE	W01
	BYTE		        Fn1   v108
	BYTE		N05     Bn1 
	BYTE		N05     Cn5   v076
	BYTE	W05
	BYTE		        As2   v004
	BYTE	W01
	BYTE		N11     Fn1   v100
	BYTE		N11     Bn1 
	BYTE		N05     Cn5   v076
	BYTE	W06
	BYTE		N05   
	BYTE	W05
	BYTE		        Fs2   v116
	BYTE	W01
	BYTE		N23     An1   v112
	BYTE		N23     As1 
	BYTE		N24     En2   v096
	BYTE		N05     Dn5   v120
	BYTE	W05
	BYTE		        Gs2   v060
	BYTE	W01
	BYTE		        Cn5   v076
	BYTE	W05
	BYTE		        As2   v004
	BYTE	W01
	BYTE		        Cn5   v076
	BYTE	W06
	BYTE		N11     Fn1   v127
	BYTE		N11     Bn1 
	BYTE		N05     Cn5   v092
	BYTE	W05
	BYTE		        Fs2   v112
	BYTE	W01
	BYTE		        Cn5   v092
	BYTE	W05
	BYTE		        Gs2   v052
	BYTE	W01
	BYTE		        Cn5   v076
	BYTE	W05
	BYTE		        As2   v004
	BYTE	W01
	BYTE		N11     Fn1   v124
	BYTE		N11     Bn1 
	BYTE		N05     Cn5   v076
	BYTE	W06
	BYTE		N05   
	BYTE	W04
// 011   ----------------------------------------
	BYTE	W01
	BYTE		        Fs2   v116
	BYTE	W01
	BYTE		N23     An1   v112
	BYTE		N23     As1 
	BYTE		N24     En2   v096
	BYTE		N05     Dn5   v120
	BYTE	W05
	BYTE		        Gs2   v060
	BYTE	W01
	BYTE		        Cn5   v076
	BYTE	W05
	BYTE		        As2   v004
	BYTE	W01
	BYTE		        Cn5   v076
	BYTE	W06
	BYTE		        Fn1   v084
	BYTE		N05     Bn1 
	BYTE		N05     Cn5   v092
	BYTE	W05
	BYTE		        Fs2   v120
	BYTE	W01
	BYTE		        Fn1   v127
	BYTE		N05     Bn1 
	BYTE		N05     Cn5   v092
	BYTE	W05
	BYTE		        Gs2   v048
	BYTE	W01
	BYTE		        Fn1   v108
	BYTE		N05     Bn1 
	BYTE		N05     Cn5   v076
	BYTE	W05
	BYTE		        As2   v004
	BYTE	W01
	BYTE		N11     Fn1   v100
	BYTE		N11     Bn1 
	BYTE		N05     Cn5   v076
	BYTE	W06
	BYTE		N05   
	BYTE	W05
	BYTE		        Fs2   v116
	BYTE	W01
	BYTE		N23     An1   v112
	BYTE		N23     As1 
	BYTE		N24     En2   v096
	BYTE		N05     Dn5   v120
	BYTE	W05
	BYTE		        Gs2   v060
	BYTE	W01
	BYTE		        Cn5   v076
	BYTE	W05
	BYTE		        As2   v004
	BYTE	W01
	BYTE		        Cn5   v076
	BYTE	W06
	BYTE		N11     Fn1   v127
	BYTE		N11     Bn1 
	BYTE		N05     Cn5   v092
	BYTE	W05
	BYTE		        Fs2   v108
	BYTE	W01
	BYTE		        Cn5   v092
	BYTE	W05
	BYTE		        Gs2   v044
	BYTE	W01
	BYTE		        Cn5   v076
	BYTE	W05
	BYTE		        As2   v004
	BYTE	W01
	BYTE		N11     Fn1   v124
	BYTE		N11     Bn1 
	BYTE		N05     Cn5   v076
	BYTE	W06
	BYTE		N05   
	BYTE	W04
// 012   ----------------------------------------
	BYTE	W01
	BYTE		        Fs2   v116
	BYTE	W01
	BYTE		N23     An1   v112
	BYTE		N23     As1 
	BYTE		N24     En2   v096
	BYTE		N05     Dn5   v120
	BYTE	W05
	BYTE		        Gs2   v060
	BYTE	W01
	BYTE		        Cn5   v076
	BYTE	W05
	BYTE		        As2   v004
	BYTE	W01
	BYTE		        Cn5   v076
	BYTE	W06
	BYTE		        Fn1   v084
	BYTE		N05     Bn1 
	BYTE		N05     Cn5   v092
	BYTE	W05
	BYTE		        Fs2   v120
	BYTE	W01
	BYTE		        Fn1   v127
	BYTE		N05     Bn1 
	BYTE		N05     Cn5   v092
	BYTE	W05
	BYTE		        Gs2   v060
	BYTE	W01
	BYTE		        Fn1   v108
	BYTE		N05     Bn1 
	BYTE		N05     Cn5   v076
	BYTE	W05
	BYTE		        As2   v004
	BYTE	W01
	BYTE		N11     Fn1   v100
	BYTE		N11     Bn1 
	BYTE		N05     Cn5   v076
	BYTE	W06
	BYTE		N05   
	BYTE	W05
	BYTE		        Fs2   v112
	BYTE	W01
	BYTE		N23     An1 
	BYTE		N23     As1 
	BYTE		N24     En2   v096
	BYTE		N05     Dn5   v120
	BYTE	W05
	BYTE		        Gs2   v060
	BYTE	W01
	BYTE		        Cn5   v076
	BYTE	W05
	BYTE		        As2   v004
	BYTE	W01
	BYTE		        Cn5   v076
	BYTE	W06
	BYTE		N11     Fn1   v127
	BYTE		N11     Bn1 
	BYTE		N05     Cn5   v092
	BYTE	W05
	BYTE		        Fs2   v108
	BYTE	W01
	BYTE		        Cn5   v092
	BYTE	W05
	BYTE		        Gs2   v044
	BYTE	W01
	BYTE		        Cn5   v076
	BYTE	W05
	BYTE		        As2   v004
	BYTE	W01
	BYTE		N11     Fn1   v124
	BYTE		N11     Bn1 
	BYTE		N05     Cn5   v076
	BYTE	W06
	BYTE		N05   
	BYTE	W04
// 013   ----------------------------------------
	BYTE	W01
	BYTE		        Fs2   v116
	BYTE	W01
	BYTE		N23     An1   v112
	BYTE		N23     As1 
	BYTE		N24     En2   v096
	BYTE		N05     Dn5   v120
	BYTE	W05
	BYTE		        Gs2   v060
	BYTE	W01
	BYTE		        Cn5   v076
	BYTE	W05
	BYTE		        As2   v004
	BYTE	W01
	BYTE		        Cn5   v076
	BYTE	W06
	BYTE		        Fn1   v084
	BYTE		N05     Bn1 
	BYTE		N05     Cn5   v092
	BYTE	W05
	BYTE		        Fs2   v124
	BYTE	W01
	BYTE		        Fn1   v127
	BYTE		N05     Bn1 
	BYTE		N05     Cn5   v092
	BYTE	W05
	BYTE		        Gs2   v060
	BYTE	W01
	BYTE		        Fn1   v108
	BYTE		N05     Bn1 
	BYTE		N05     Cn5   v076
	BYTE	W05
	BYTE		        As2   v004
	BYTE	W01
	BYTE		N11     Fn1   v100
	BYTE		N11     Bn1 
	BYTE		N05     Cn5   v076
	BYTE	W06
	BYTE		N05   
	BYTE	W05
	BYTE		        Fs2   v116
	BYTE	W01
	BYTE		N23     An1   v112
	BYTE		N23     As1 
	BYTE		N24     En2   v096
	BYTE		N05     Dn5   v120
	BYTE	W05
	BYTE		        Gs2   v060
	BYTE	W01
	BYTE		        Cn5   v076
	BYTE	W05
	BYTE		        As2   v004
	BYTE	W01
	BYTE		        Cn5   v076
	BYTE	W06
	BYTE		N11     Fn1   v127
	BYTE		N11     Bn1 
	BYTE		N05     Cn5   v092
	BYTE	W05
	BYTE		        Fs2   v108
	BYTE	W01
	BYTE		        Cn5   v092
	BYTE	W05
	BYTE		        Gs2   v048
	BYTE	W01
	BYTE		        Cn5   v076
	BYTE	W05
	BYTE		        As2   v004
	BYTE	W01
	BYTE		N11     Fn1   v124
	BYTE		N11     Bn1 
	BYTE		N05     Cn5   v076
	BYTE	W06
	BYTE		N05   
	BYTE	W04
// 014   ----------------------------------------
	BYTE	W01
	BYTE		        Fs2   v116
	BYTE	W01
	BYTE		N23     An1   v112
	BYTE		N23     As1 
	BYTE		N24     En2   v096
	BYTE		N05     Dn5   v120
	BYTE	W05
	BYTE		        Gs2   v060
	BYTE	W01
	BYTE		        Cn5   v076
	BYTE	W05
	BYTE		        As2   v004
	BYTE	W01
	BYTE		        Cn5   v076
	BYTE	W06
	BYTE		        Fn1   v084
	BYTE		N05     Bn1 
	BYTE		N05     Cn5   v092
	BYTE	W06
	BYTE		        Fn1   v127
	BYTE		N05     Bn1 
	BYTE		N48     Cs3   v124
	BYTE		N05     Cn5   v092
	BYTE	W02
	BYTE		N48     Dn3   v108
	BYTE	W04
	BYTE		N05     Fn1 
	BYTE		N05     Bn1 
	BYTE		N05     Cn5   v076
	BYTE	W06
	BYTE		N11     Fn1   v100
	BYTE		N11     Bn1 
	BYTE		N05     Cn5   v076
	BYTE	W06
	BYTE		N05   
	BYTE	W05
	BYTE		        Fs2   v116
	BYTE	W01
	BYTE		N23     An1   v112
	BYTE		N23     As1 
	BYTE		N24     En2   v096
	BYTE		N05     Dn5   v120
	BYTE	W05
	BYTE		        Gs2   v060
	BYTE	W01
	BYTE		        Cn5   v076
	BYTE	W05
	BYTE		        As2   v004
	BYTE	W01
	BYTE		        Cn5   v076
	BYTE	W06
	BYTE		N11     Fn1   v127
	BYTE		N11     Bn1 
	BYTE		N05     Cn5   v092
	BYTE	W05
	BYTE		        Fs2   v112
	BYTE	W01
	BYTE		        Cn5   v092
	BYTE	W05
	BYTE		        Gs2   v048
	BYTE	W01
	BYTE		        Cn5   v076
	BYTE	W05
	BYTE		        As2   v004
	BYTE	W01
	BYTE		N11     Fn1   v124
	BYTE		N11     Bn1 
	BYTE		N05     Cn5   v076
	BYTE	W06
	BYTE		N05   
	BYTE	W04
// 015   ----------------------------------------
	BYTE	W01
	BYTE		        Fs2   v116
	BYTE	W01
	BYTE		N23     An1   v112
	BYTE		N23     As1 
	BYTE		N23     En2   v096
	BYTE		N05     Dn5   v120
	BYTE	W05
	BYTE		        Gs2   v060
	BYTE	W01
	BYTE		        Cn5   v076
	BYTE	W05
	BYTE		        As2   v004
	BYTE	W01
	BYTE		        Cn5   v076
	BYTE	W06
	BYTE		        Fn1   v084
	BYTE		N05     Bn1 
	BYTE		N05     Cn5   v092
	BYTE	W05
	BYTE		N06     Dn2   v108
	BYTE	W01
	BYTE		N11     Fn1   v127
	BYTE		N05     An1   v112
	BYTE		N05     As1 
	BYTE		N11     Bn1   v127
	BYTE		N05     En2 
	BYTE		N02     Gs2   v088
	BYTE	W06
	BYTE		N09     An1   v112
	BYTE		N09     As1 
	BYTE		N05     En2   v116
	BYTE	W06
	BYTE		N11     Fn1 
	BYTE		N11     Bn1 
	BYTE	W12
	BYTE		N12     An1   v112
	BYTE		N12     As1 
	BYTE		N11     En2 
	BYTE		N48     Cs3   v124
	BYTE	W02
	BYTE		        Dn3   v108
	BYTE	W16
	BYTE		N05     An1   v112
	BYTE		N05     As1 
	BYTE		N05     En2   v124
	BYTE	W06
	BYTE		N11     Fn1   v127
	BYTE		N11     An1   v116
	BYTE		N11     As1 
	BYTE		N11     Bn1   v127
	BYTE		N05     En2 
	BYTE		N05     Fs2   v108
	BYTE	W06
	BYTE		        En2   v060
	BYTE	W06
	BYTE		N11     Fn1   v100
	BYTE		N11     An1   v108
	BYTE		N11     As1 
	BYTE		N11     Bn1   v100
	BYTE		N05     En2   v124
	BYTE	W10
// 016   ----------------------------------------
	BYTE	W02
	BYTE		N11     An1   v116
	BYTE		N11     As1 
	BYTE		N05     En2   v127
	BYTE		N05     Fs2   v096
	BYTE	W06
	BYTE		        En2   v060
	BYTE	W06
	BYTE		N11     Fn1   v116
	BYTE		N05     An1 
	BYTE		N05     As1 
	BYTE		N11     Bn1 
	BYTE		N05     En2   v127
	BYTE	W05
	BYTE		        An1   v092
	BYTE		N05     As1 
	BYTE		N05     En2   v112
	BYTE	W07
	BYTE		N11     Fn1   v127
	BYTE		N11     Bn1 
	BYTE		N48     Cs3   v124
	BYTE		N05     Cn5   v092
	BYTE	W02
	BYTE		N48     Dn3   v108
	BYTE	W04
	BYTE		N05     Cn5   v076
	BYTE	W06
	BYTE		N11     Fn1   v100
	BYTE		N11     Bn1 
	BYTE		N05     Cn5   v076
	BYTE	W06
	BYTE		N05   
	BYTE	W06
	BYTE		N18     An1   v112
	BYTE		N18     As1 
	BYTE		N18     En2   v076
	BYTE		N05     Fs2   v120
	BYTE		N05     Dn5 
	BYTE	W06
	BYTE		        Gs2   v060
	BYTE		N05     Cn5   v076
	BYTE	W06
	BYTE		        Fn1   v112
	BYTE		N05     Bn1 
	BYTE		N05     As2   v004
	BYTE		N05     Cn5   v076
	BYTE	W06
	BYTE		N11     Fn1   v127
	BYTE		N11     Bn1 
	BYTE		N05     Cn5   v092
	BYTE	W06
	BYTE		        Fs2   v112
	BYTE		N05     Cn5   v092
	BYTE	W06
	BYTE		        Gs2   v052
	BYTE		N05     Cn5   v076
	BYTE	W06
	BYTE		N11     Fn1   v124
	BYTE		N11     Bn1 
	BYTE		N05     As2   v004
	BYTE		N05     Cn5   v076
	BYTE	W06
	BYTE		N05   
	BYTE	W04
// 017   ----------------------------------------
	BYTE	W02
	BYTE		N18     An1   v112
	BYTE		N18     As1 
	BYTE		N18     En2   v076
	BYTE		N05     Fs2   v116
	BYTE		N05     Dn5   v120
	BYTE	W06
	BYTE		        Gs2   v060
	BYTE		N05     Cn5   v076
	BYTE	W06
	BYTE		        As2   v004
	BYTE		N05     Cn5   v076
	BYTE	W06
	BYTE		        Fn1   v112
	BYTE		N05     Bn1 
	BYTE		N05     Cn5   v092
	BYTE	W06
	BYTE		N11     Fn1   v127
	BYTE		N11     Bn1 
	BYTE		N05     Fs2   v116
	BYTE		N05     Cn5   v092
	BYTE	W06
	BYTE		        Gs2   v060
	BYTE		N05     Cn5   v076
	BYTE	W06
	BYTE		N11     Fn1   v100
	BYTE		N11     Bn1 
	BYTE		N05     As2   v004
	BYTE		N05     Cn5   v076
	BYTE	W06
	BYTE		N05   
	BYTE	W06
	BYTE		N18     An1   v112
	BYTE		N18     As1 
	BYTE		N18     En2   v076
	BYTE		N05     Fs2   v116
	BYTE		N05     Dn5   v120
	BYTE	W06
	BYTE		        Gs2   v060
	BYTE		N05     Cn5   v076
	BYTE	W06
	BYTE		        Fn1   v112
	BYTE		N05     Bn1 
	BYTE		N05     As2   v004
	BYTE		N05     Cn5   v076
	BYTE	W06
	BYTE		N11     Fn1   v127
	BYTE		N11     Bn1 
	BYTE		N05     Cn5   v092
	BYTE	W06
	BYTE		        Fs2   v112
	BYTE		N05     Cn5   v092
	BYTE	W06
	BYTE		        Gs2   v048
	BYTE		N05     Cn5   v076
	BYTE	W06
	BYTE		N11     Fn1   v124
	BYTE		N11     Bn1 
	BYTE		N05     As2   v004
	BYTE		N05     Cn5   v076
	BYTE	W06
	BYTE		        An1   v112
	BYTE		N05     As1 
	BYTE		N05     En2   v068
	BYTE		N05     Cn5   v076
	BYTE	W04
// 018   ----------------------------------------
	BYTE	W02
	BYTE		N21     An1   v116
	BYTE		N21     As1 
	BYTE		N18     En2   v076
	BYTE		N05     Fs2   v116
	BYTE		N05     Dn5   v120
	BYTE	W06
	BYTE		        Gs2   v060
	BYTE		N05     Cn5   v076
	BYTE	W06
	BYTE		        As2   v004
	BYTE		N05     Cn5   v076
	BYTE	W06
	BYTE		        Fn1   v112
	BYTE		N05     Bn1 
	BYTE		N05     Cn5   v092
	BYTE	W06
	BYTE		N11     Fn1   v127
	BYTE		N11     Bn1 
	BYTE		N05     Fs2   v112
	BYTE		N05     Cn5   v092
	BYTE	W06
	BYTE		        Gs2   v052
	BYTE		N05     Cn5   v076
	BYTE	W06
	BYTE		N11     Fn1   v100
	BYTE		N11     Bn1 
	BYTE		N05     As2   v004
	BYTE		N05     Cn5   v076
	BYTE	W06
	BYTE		N05   
	BYTE	W06
	BYTE		N18     An1   v112
	BYTE		N18     As1 
	BYTE		N18     En2   v076
	BYTE		N05     Fs2   v112
	BYTE		N05     Dn5   v120
	BYTE	W06
	BYTE		        Gs2   v060
	BYTE		N05     Cn5   v076
	BYTE	W06
	BYTE		        Fn1   v112
	BYTE		N05     Bn1 
	BYTE		N05     As2   v004
	BYTE		N05     Cn5   v076
	BYTE	W06
	BYTE		N11     Fn1   v127
	BYTE		N11     Bn1 
	BYTE		N05     Cn5   v092
	BYTE	W06
	BYTE		        Fs2   v108
	BYTE		N05     Cn5   v092
	BYTE	W06
	BYTE		        Gs2   v044
	BYTE		N05     Cn5   v076
	BYTE	W06
	BYTE		N11     Fn1   v124
	BYTE		N11     Bn1 
	BYTE		N05     As2   v004
	BYTE		N05     Cn5   v076
	BYTE	W06
	BYTE		N05   
	BYTE	W04
// 019   ----------------------------------------
	BYTE	W02
	BYTE		N18     An1   v112
	BYTE		N18     As1 
	BYTE		N18     En2   v076
	BYTE		N05     Fs2   v116
	BYTE		N05     Dn5   v120
	BYTE	W06
	BYTE		        Gs2   v056
	BYTE		N05     Cn5   v076
	BYTE	W06
	BYTE		        As2   v004
	BYTE		N05     Cn5   v076
	BYTE	W06
	BYTE		        Fn1   v112
	BYTE		N05     Bn1 
	BYTE		N05     Cn5   v092
	BYTE	W06
	BYTE		N11     Fn1   v127
	BYTE		N11     Bn1 
	BYTE		N05     Fs2   v112
	BYTE		N05     Cn5   v092
	BYTE	W06
	BYTE		        Gs2   v060
	BYTE		N05     Cn5   v076
	BYTE	W06
	BYTE		N11     Fn1   v100
	BYTE		N11     Bn1 
	BYTE		N05     As2   v004
	BYTE		N05     Cn5   v076
	BYTE	W06
	BYTE		N05   
	BYTE	W06
	BYTE		N18     An1   v112
	BYTE		N18     As1 
	BYTE		N18     En2   v076
	BYTE		N05     Fs2   v116
	BYTE		N05     Dn5   v120
	BYTE	W06
	BYTE		        Gs2   v052
	BYTE		N05     Cn5   v076
	BYTE	W06
	BYTE		        Fn1   v112
	BYTE		N05     Bn1 
	BYTE		N05     As2   v004
	BYTE		N05     Cn5   v076
	BYTE	W06
	BYTE		N11     Fn1   v127
	BYTE		N11     Bn1 
	BYTE		N05     Cn5   v092
	BYTE	W06
	BYTE		        Fs2   v108
	BYTE		N05     Cn5   v092
	BYTE	W06
	BYTE		        Gs2   v060
	BYTE		N05     Cn5   v076
	BYTE	W06
	BYTE		N11     Fn1   v124
	BYTE		N11     Bn1 
	BYTE		N05     As2   v004
	BYTE		N05     Cn5   v076
	BYTE	W06
	BYTE		        An1   v112
	BYTE		N05     As1 
	BYTE		N05     En2   v068
	BYTE		N05     Cn5   v076
	BYTE	W04
// 020   ----------------------------------------
	BYTE	W02
	BYTE		N21     An1   v116
	BYTE		N21     As1 
	BYTE		N18     En2   v076
	BYTE		N05     Fs2   v116
	BYTE		N05     Dn5   v120
	BYTE	W06
	BYTE		        Gs2   v060
	BYTE		N05     Cn5   v076
	BYTE	W06
	BYTE		        As2   v004
	BYTE		N05     Cn5   v076
	BYTE	W06
	BYTE		        Fn1   v112
	BYTE		N05     Bn1 
	BYTE		N05     Cn5   v092
	BYTE	W06
	BYTE		N11     Fn1   v127
	BYTE		N11     Bn1 
	BYTE		N05     Fs2   v112
	BYTE		N05     Cn5   v092
	BYTE	W06
	BYTE		        Gs2   v056
	BYTE		N05     Cn5   v076
	BYTE	W06
	BYTE		N11     Fn1   v100
	BYTE		N11     Bn1 
	BYTE		N05     As2   v004
	BYTE		N05     Cn5   v076
	BYTE	W06
	BYTE		N05   
	BYTE	W06
	BYTE		N18     An1   v112
	BYTE		N18     As1 
	BYTE		N18     En2   v076
	BYTE		N05     Fs2   v120
	BYTE		N05     Dn5 
	BYTE	W06
	BYTE		        Gs2   v060
	BYTE		N05     Cn5   v076
	BYTE	W06
	BYTE		        Fn1   v112
	BYTE		N05     Bn1 
	BYTE		N05     As2   v004
	BYTE		N05     Cn5   v076
	BYTE	W06
	BYTE		N11     Fn1   v127
	BYTE		N11     Bn1 
	BYTE		N05     Cn5   v092
	BYTE	W06
	BYTE		        Fs2   v112
	BYTE		N05     Cn5   v092
	BYTE	W06
	BYTE		        Gs2   v048
	BYTE		N05     Cn5   v076
	BYTE	W06
	BYTE		N11     Fn1   v124
	BYTE		N11     Bn1 
	BYTE		N05     As2   v004
	BYTE		N05     Cn5   v076
	BYTE	W06
	BYTE		N05   
	BYTE	W04
// 021   ----------------------------------------
	BYTE	W02
	BYTE		N18     An1   v112
	BYTE		N18     As1 
	BYTE		N18     En2   v076
	BYTE		N05     Fs2   v120
	BYTE		N05     Dn5 
	BYTE	W06
	BYTE		        Gs2   v060
	BYTE		N05     Cn5   v076
	BYTE	W06
	BYTE		        As2   v004
	BYTE		N05     Cn5   v076
	BYTE	W06
	BYTE		        Fn1   v112
	BYTE		N05     Bn1 
	BYTE		N05     Cn5   v092
	BYTE	W06
	BYTE		N11     Fn1   v127
	BYTE		N11     Bn1 
	BYTE		N05     Fs2   v112
	BYTE		N05     Cn5   v092
	BYTE	W06
	BYTE		        Gs2   v056
	BYTE		N05     Cn5   v076
	BYTE	W06
	BYTE		N11     Fn1   v100
	BYTE		N11     Bn1 
	BYTE		N05     As2   v004
	BYTE		N05     Cn5   v076
	BYTE	W06
	BYTE		N05   
	BYTE	W06
	BYTE		N18     An1   v112
	BYTE		N18     As1 
	BYTE		N18     En2   v076
	BYTE		N05     Fs2   v116
	BYTE		N05     Dn5   v120
	BYTE	W06
	BYTE		        Gs2   v060
	BYTE		N05     Cn5   v076
	BYTE	W06
	BYTE		        Fn1   v112
	BYTE		N05     Bn1 
	BYTE		N05     As2   v004
	BYTE		N05     Cn5   v076
	BYTE	W06
	BYTE		N11     Fn1   v127
	BYTE		N11     Bn1 
	BYTE		N05     Cn5   v092
	BYTE	W06
	BYTE		        Fs2   v112
	BYTE		N05     Cn5   v092
	BYTE	W06
	BYTE		        Gs2   v052
	BYTE		N05     Cn5   v076
	BYTE	W06
	BYTE		N11     Fn1   v124
	BYTE		N11     Bn1 
	BYTE		N05     As2   v004
	BYTE		N05     Cn5   v076
	BYTE	W06
	BYTE		        An1   v112
	BYTE		N05     As1 
	BYTE		N05     En2   v068
	BYTE		N05     Cn5   v076
	BYTE	W04
// 022   ----------------------------------------
	BYTE	W02
	BYTE		N21     An1   v116
	BYTE		N21     As1 
	BYTE		N18     En2   v076
	BYTE		N05     Fs2   v120
	BYTE		N05     Dn5 
	BYTE	W06
	BYTE		        Gs2   v060
	BYTE		N05     Cn5   v076
	BYTE	W06
	BYTE		        As2   v004
	BYTE		N05     Cn5   v076
	BYTE	W06
	BYTE		        Fn1   v112
	BYTE		N05     Bn1 
	BYTE		N05     Cn5   v092
	BYTE	W06
	BYTE		N11     Fn1   v127
	BYTE		N11     Bn1 
	BYTE		N48     Cs3   v124
	BYTE		N05     Cn5   v092
	BYTE	W02
	BYTE		N48     Dn3   v108
	BYTE	W04
	BYTE		N05     Cn5   v076
	BYTE	W06
	BYTE		N11     Fn1   v100
	BYTE		N11     Bn1 
	BYTE		N05     Cn5   v076
	BYTE	W06
	BYTE		N05   
	BYTE	W06
	BYTE		N18     An1   v112
	BYTE		N18     As1 
	BYTE		N18     En2   v076
	BYTE		N05     Fs2   v124
	BYTE		N05     Dn5   v120
	BYTE	W06
	BYTE		        Gs2   v060
	BYTE		N05     Cn5   v076
	BYTE	W06
	BYTE		        Fn1   v112
	BYTE		N05     Bn1 
	BYTE		N05     As2   v004
	BYTE		N05     Cn5   v076
	BYTE	W06
	BYTE		N11     Fn1   v127
	BYTE		N11     Bn1 
	BYTE		N05     Cn5   v092
	BYTE	W06
	BYTE		        Fs2   v112
	BYTE		N05     Cn5   v092
	BYTE	W06
	BYTE		        Gs2   v052
	BYTE		N05     Cn5   v076
	BYTE	W06
	BYTE		N11     Fn1   v124
	BYTE		N11     Bn1 
	BYTE		N05     As2   v004
	BYTE		N05     Cn5   v076
	BYTE	W06
	BYTE		N05   
	BYTE	W04
// 023   ----------------------------------------
	BYTE	W02
	BYTE		N12     An1   v112
	BYTE		N12     As1 
	BYTE		N12     En2   v076
	BYTE		N05     Fs2   v120
	BYTE		N05     Dn5 
	BYTE	W06
	BYTE		        Gs2   v060
	BYTE		N05     Cn5   v076
	BYTE	W06
	BYTE		        As2   v004
	BYTE		N05     Cn5   v076
	BYTE	W06
	BYTE		        Fn1   v112
	BYTE		N04     An1   v068
	BYTE		N04     As1 
	BYTE		N05     Bn1   v112
	BYTE		N04     En2   v056
	BYTE		N05     Cn5   v092
	BYTE	W06
	BYTE		N11     Fn1   v127
	BYTE		N11     An1   v124
	BYTE		N11     As1 
	BYTE		N11     Bn1   v127
	BYTE		N12     En2   v112
	BYTE		N02     Fs2   v088
	BYTE		N24     Cs3   v124
	BYTE		N05     Cn4   v112
	BYTE	W02
	BYTE		N24     Dn3   v108
	BYTE	W04
	BYTE		N05     Cn4   v092
	BYTE	W06
	BYTE		N11     Fn1   v072
	BYTE		N11     An1   v112
	BYTE		N11     As1 
	BYTE		N11     Bn1   v072
	BYTE		N12     En2   v092
	BYTE		N05     Cn4   v112
	BYTE	W12
	BYTE		N02     Gs2   v104
	BYTE	W12
	BYTE		N11     Fn1   v127
	BYTE		N11     Bn1 
	BYTE		N12     En2   v084
	BYTE		N24     En3   v124
	BYTE		N05     Cn4   v112
	BYTE	W02
	BYTE		N24     Fn3   v108
	BYTE	W10
	BYTE		N02     Gs2   v104
	BYTE	W12
	BYTE		N11     Fn1   v124
	BYTE		N12     An1   v104
	BYTE		N12     As1 
	BYTE		N11     Bn1   v124
	BYTE		N05     Cn4   v112
	BYTE	W10
// 024   ----------------------------------------
	BYTE	W02
	BYTE		N11     Fn1   v116
	BYTE		N12     An1   v104
	BYTE		N12     As1 
	BYTE		N11     Bn1   v116
	BYTE		N23     As2   v004
	BYTE		N05     En4   v112
	BYTE	W06
	BYTE		        En4   v092
	BYTE	W06
	BYTE		N03     Fn1   v127
	BYTE		N03     Bn1 
	BYTE	W04
	BYTE		        Fn1 
	BYTE		N03     Bn1 
	BYTE	W04
	BYTE		        Fn1   v124
	BYTE		N03     Bn1 
	BYTE	W04
	BYTE		N11     Fn1   v127
	BYTE		N11     Bn1 
	BYTE		N02     Fs2   v088
	BYTE		N48     Cs3   v124
	BYTE		N05     Cn5   v092
	BYTE	W02
	BYTE		N48     Dn3   v108
	BYTE	W04
	BYTE		N05     Cn5   v076
	BYTE	W06
	BYTE		N11     Fn1   v100
	BYTE		N11     Bn1 
	BYTE		N05     Cn5   v076
	BYTE	W06
	BYTE		N05   
	BYTE	W06
	BYTE		N18     An1   v112
	BYTE		N18     As1 
	BYTE		N18     En2   v076
	BYTE		N05     Fs2   v124
	BYTE		N05     Dn5   v120
	BYTE	W06
	BYTE		        Gs2   v060
	BYTE		N05     Cn5   v076
	BYTE	W06
	BYTE		        As2   v004
	BYTE		N05     Cn5   v076
	BYTE	W06
	BYTE		N11     Fn1   v127
	BYTE		N11     Bn1 
	BYTE		N05     Cn5   v092
	BYTE	W06
	BYTE		        Fs2   v108
	BYTE		N05     Cn5   v092
	BYTE	W06
	BYTE		        Gs2   v052
	BYTE		N05     Cn5   v076
	BYTE	W06
	BYTE		N11     Fn1   v124
	BYTE		N11     Bn1 
	BYTE		N05     As2   v004
	BYTE		N05     Cn5   v076
	BYTE	W06
	BYTE		N05   
	BYTE	W04
// 025   ----------------------------------------
WindOfLaGias_1_025:
	BYTE	W02
	BYTE		N18     An1   v112
	BYTE		N18     As1 
	BYTE		N18     En2   v076
	BYTE		N05     Fs2   v116
	BYTE		N05     Dn5   v120
	BYTE	W06
	BYTE		        Gs2   v060
	BYTE		N05     Cn5   v076
	BYTE	W06
	BYTE		        As2   v004
	BYTE		N05     Cn5   v076
	BYTE	W06
	BYTE		        Fn1   v112
	BYTE		N05     Bn1 
	BYTE		N05     Cn5   v092
	BYTE	W06
	BYTE		N11     Fn1   v127
	BYTE		N11     Bn1 
	BYTE		N05     Fs2   v112
	BYTE		N05     Cn5   v092
	BYTE	W06
	BYTE		        Gs2   v056
	BYTE		N05     Cn5   v076
	BYTE	W06
	BYTE		N11     Fn1   v100
	BYTE		N11     Bn1 
	BYTE		N05     As2   v004
	BYTE		N05     Cn5   v076
	BYTE	W06
	BYTE		N05   
	BYTE	W06
	BYTE		N18     An1   v112
	BYTE		N18     As1 
	BYTE		N18     En2   v076
	BYTE		N05     Fs2   v116
	BYTE		N05     Dn5   v120
	BYTE	W06
	BYTE		        Gs2   v060
	BYTE		N05     Cn5   v076
	BYTE	W06
	BYTE		        As2   v004
	BYTE		N05     Cn5   v076
	BYTE	W06
	BYTE		N11     Fn1   v127
	BYTE		N11     Bn1 
	BYTE		N05     Cn5   v092
	BYTE	W06
	BYTE		        Fs2   v108
	BYTE		N05     Cn5   v092
	BYTE	W06
	BYTE		        Gs2   v052
	BYTE		N05     Cn5   v076
	BYTE	W06
	BYTE		N11     Fn1   v124
	BYTE		N11     Bn1 
	BYTE		N05     As2   v004
	BYTE		N05     Cn5   v076
	BYTE	W06
	BYTE		        An1   v112
	BYTE		N05     As1 
	BYTE		N05     En2   v068
	BYTE		N05     Cn5   v076
	BYTE	W04
	BYTE	PEND
// 026   ----------------------------------------
	BYTE	W02
	BYTE		N21     An1   v116
	BYTE		N21     As1 
	BYTE		N18     En2   v076
	BYTE		N05     Fs2   v116
	BYTE		N05     Dn5   v120
	BYTE	W06
	BYTE		        Gs2   v060
	BYTE		N05     Cn5   v076
	BYTE	W06
	BYTE		        As2   v004
	BYTE		N05     Cn5   v076
	BYTE	W06
	BYTE		        Fn1   v112
	BYTE		N05     Bn1 
	BYTE		N05     Cn5   v092
	BYTE	W06
	BYTE		N11     Fn1   v127
	BYTE		N11     Bn1 
	BYTE		N05     Fs2   v112
	BYTE		N05     Cn5   v092
	BYTE	W06
	BYTE		        Gs2   v056
	BYTE		N05     Cn5   v076
	BYTE	W06
	BYTE		N11     Fn1   v100
	BYTE		N11     Bn1 
	BYTE		N05     As2   v004
	BYTE		N05     Cn5   v076
	BYTE	W06
	BYTE		N05   
	BYTE	W06
	BYTE		N18     An1   v112
	BYTE		N18     As1 
	BYTE		N18     En2   v076
	BYTE		N05     Fs2   v120
	BYTE		N05     Dn5 
	BYTE	W06
	BYTE		        Gs2   v060
	BYTE		N05     Cn5   v076
	BYTE	W06
	BYTE		        As2   v004
	BYTE		N05     Cn5   v076
	BYTE	W06
	BYTE		N11     Fn1   v127
	BYTE		N11     Bn1 
	BYTE		N05     Cn5   v092
	BYTE	W06
	BYTE		        Fs2   v108
	BYTE		N05     Cn5   v092
	BYTE	W06
	BYTE		        Gs2   v052
	BYTE		N05     Cn5   v076
	BYTE	W06
	BYTE		N11     Fn1   v124
	BYTE		N11     Bn1 
	BYTE		N05     As2   v004
	BYTE		N05     Cn5   v076
	BYTE	W06
	BYTE		N05   
	BYTE	W04
// 027   ----------------------------------------
	BYTE	W02
	BYTE		N18     An1   v112
	BYTE		N18     As1 
	BYTE		N18     En2   v076
	BYTE		N05     Fs2   v116
	BYTE		N05     Dn5   v120
	BYTE	W06
	BYTE		        Gs2   v060
	BYTE		N05     Cn5   v076
	BYTE	W06
	BYTE		        As2   v004
	BYTE		N05     Cn5   v076
	BYTE	W06
	BYTE		        Fn1   v112
	BYTE		N05     Bn1 
	BYTE		N05     Cn5   v092
	BYTE	W06
	BYTE		N11     Fn1   v127
	BYTE		N11     Bn1 
	BYTE		N05     Fs2   v112
	BYTE		N05     Cn5   v092
	BYTE	W06
	BYTE		        Gs2   v056
	BYTE		N05     Cn5   v076
	BYTE	W06
	BYTE		N11     Fn1   v100
	BYTE		N11     Bn1 
	BYTE		N05     As2   v004
	BYTE		N05     Cn5   v076
	BYTE	W06
	BYTE		N05   
	BYTE	W06
	BYTE		N18     An1   v112
	BYTE		N18     As1 
	BYTE		N18     En2   v076
	BYTE		N05     Fs2   v116
	BYTE		N05     Dn5   v120
	BYTE	W06
	BYTE		        Gs2   v060
	BYTE		N05     Cn5   v076
	BYTE	W06
	BYTE		        As2   v004
	BYTE		N05     Cn5   v076
	BYTE	W06
	BYTE		N11     Fn1   v127
	BYTE		N11     Bn1 
	BYTE		N05     Cn5   v092
	BYTE	W06
	BYTE		        Fs2   v112
	BYTE		N05     Cn5   v092
	BYTE	W06
	BYTE		        Gs2   v048
	BYTE		N05     Cn5   v076
	BYTE	W06
	BYTE		N11     Fn1   v124
	BYTE		N11     Bn1 
	BYTE		N05     As2   v004
	BYTE		N05     Cn5   v076
	BYTE	W06
	BYTE		        An1   v112
	BYTE		N05     As1 
	BYTE		N05     En2   v068
	BYTE		N05     Cn5   v076
	BYTE	W04
// 028   ----------------------------------------
	BYTE	W02
	BYTE		N21     An1   v116
	BYTE		N21     As1 
	BYTE		N18     En2   v076
	BYTE		N05     Fs2   v116
	BYTE		N05     Dn5   v120
	BYTE	W06
	BYTE		        Gs2   v060
	BYTE		N05     Cn5   v076
	BYTE	W06
	BYTE		        As2   v004
	BYTE		N05     Cn5   v076
	BYTE	W06
	BYTE		        Fn1   v112
	BYTE		N05     Bn1 
	BYTE		N05     Cn5   v092
	BYTE	W06
	BYTE		N11     Fn1   v127
	BYTE		N11     Bn1 
	BYTE		N05     Fs2   v116
	BYTE		N05     Cn5   v092
	BYTE	W06
	BYTE		        Gs2   v056
	BYTE		N05     Cn5   v076
	BYTE	W06
	BYTE		N11     Fn1   v100
	BYTE		N11     Bn1 
	BYTE		N05     As2   v004
	BYTE		N05     Cn5   v076
	BYTE	W06
	BYTE		N05   
	BYTE	W06
	BYTE		N18     An1   v112
	BYTE		N18     As1 
	BYTE		N18     En2   v076
	BYTE		N05     Fs2   v116
	BYTE		N05     Dn5   v120
	BYTE	W06
	BYTE		        Gs2   v060
	BYTE		N05     Cn5   v076
	BYTE	W06
	BYTE		        As2   v004
	BYTE		N05     Cn5   v076
	BYTE	W06
	BYTE		N11     Fn1   v127
	BYTE		N11     Bn1 
	BYTE		N05     Cn5   v092
	BYTE	W06
	BYTE		        Fs2   v108
	BYTE		N05     Cn5   v092
	BYTE	W06
	BYTE		        Gs2   v052
	BYTE		N05     Cn5   v076
	BYTE	W06
	BYTE		N11     Fn1   v124
	BYTE		N11     Bn1 
	BYTE		N05     As2   v004
	BYTE		N05     Cn5   v076
	BYTE	W06
	BYTE		N05   
	BYTE	W04
// 029   ----------------------------------------
	BYTE	PATT
	 POIN2	WindOfLaGias_1_025
// 030   ----------------------------------------
	BYTE	W02
	BYTE		N21     An1   v116
	BYTE		N21     As1 
	BYTE		N18     En2   v076
	BYTE		N05     Fs2   v124
	BYTE		N05     Dn5   v120
	BYTE	W06
	BYTE		        Gs2   v060
	BYTE		N05     Cn5   v076
	BYTE	W06
	BYTE		        As2   v004
	BYTE		N05     Cn5   v076
	BYTE	W06
	BYTE		        Fn1   v112
	BYTE		N05     Bn1 
	BYTE		N05     Cn5   v092
	BYTE	W06
	BYTE		N11     Fn1   v127
	BYTE		N11     Bn1 
	BYTE		N48     Cs3   v124
	BYTE		N05     Cn5   v092
	BYTE	W02
	BYTE		N48     Dn3   v108
	BYTE	W04
	BYTE		N05     Cn5   v076
	BYTE	W06
	BYTE		N11     Fn1   v100
	BYTE		N11     Bn1 
	BYTE		N05     Cn5   v076
	BYTE	W06
	BYTE		N05   
	BYTE	W06
	BYTE		N18     An1   v112
	BYTE		N18     As1 
	BYTE		N18     En2   v076
	BYTE		N05     Fs2   v120
	BYTE		N05     Dn5 
	BYTE	W06
	BYTE		        Gs2   v060
	BYTE		N05     Cn5   v076
	BYTE	W06
	BYTE		        As2   v004
	BYTE		N05     Cn5   v076
	BYTE	W06
	BYTE		N11     Fn1   v127
	BYTE		N11     Bn1 
	BYTE		N05     Cn5   v092
	BYTE	W06
	BYTE		        Fs2   v112
	BYTE		N05     Cn5   v092
	BYTE	W06
	BYTE		        Gs2   v052
	BYTE		N05     Cn5   v076
	BYTE	W06
	BYTE		N11     Fn1   v124
	BYTE		N11     Bn1 
	BYTE		N05     As2   v004
	BYTE		N05     Cn5   v076
	BYTE	W06
	BYTE		N05   
	BYTE	W04
// 031   ----------------------------------------
	BYTE	W02
	BYTE		N12     An1   v112
	BYTE		N12     As1 
	BYTE		N12     En2   v076
	BYTE		N05     Fs2   v124
	BYTE		N05     Dn5   v120
	BYTE	W06
	BYTE		        Gs2   v060
	BYTE		N05     Cn5   v076
	BYTE	W06
	BYTE		        As2   v004
	BYTE		N05     Cn5   v076
	BYTE	W06
	BYTE		        Fn1   v112
	BYTE		N04     An1   v068
	BYTE		N04     As1 
	BYTE		N05     Bn1   v112
	BYTE		N05     Cn5   v092
	BYTE	W06
	BYTE		N11     Fn1   v127
	BYTE		N11     An1   v112
	BYTE		N11     As1 
	BYTE		N11     Bn1   v127
	BYTE		N12     En2   v108
	BYTE		N05     Fs2   v116
	BYTE		N05     Cn5   v092
	BYTE	W06
	BYTE		        Cn5   v076
	BYTE	W06
	BYTE		N11     Fn1   v072
	BYTE		N11     An1   v112
	BYTE		N11     As1 
	BYTE		N11     Bn1   v072
	BYTE		N12     En2   v100
	BYTE		N24     Cs3   v124
	BYTE		N05     Cn5   v092
	BYTE	W02
	BYTE		N21     Dn3   v108
	BYTE	W04
	BYTE		N05     Cn5   v076
	BYTE	W18
	BYTE		N11     Fn1   v127
	BYTE		N11     Bn1 
	BYTE		N12     En2   v084
	BYTE		N24     En3   v124
	BYTE		N05     Cn5   v092
	BYTE	W02
	BYTE		N24     Fn3   v108
	BYTE	W04
	BYTE		N05     Cn5   v076
	BYTE	W18
	BYTE		N11     Fn1   v127
	BYTE		N12     An1   v076
	BYTE		N12     As1 
	BYTE		N11     Bn1   v127
	BYTE		N05     Cn5   v092
	BYTE	W06
	BYTE		        Cn5   v076
	BYTE	W04
// 032   ----------------------------------------
	BYTE	W02
	BYTE		N11     Fn1   v127
	BYTE		N12     An1   v096
	BYTE		N12     As1 
	BYTE		N11     Bn1   v127
	BYTE		N05     En4   v092
	BYTE	W06
	BYTE		        En4   v076
	BYTE	W06
	BYTE		N11     Fn1   v124
	BYTE		N11     Bn1 
	BYTE		N05     En4   v092
	BYTE	W06
	BYTE		N12     An1   v096
	BYTE		N12     As1 
	BYTE		N05     En4   v076
	BYTE	W06
	BYTE		N11     Fn1   v127
	BYTE		N11     Bn1 
	BYTE		N48     Cs3 
	BYTE		N05     Cn4   v092
	BYTE	W02
	BYTE		N48     Dn3   v104
	BYTE	W04
	BYTE		N05     Cn5   v076
	BYTE	W06
	BYTE		N05   
	BYTE	W06
	BYTE		N05   
	BYTE	W06
	BYTE		N12     An1   v104
	BYTE		N12     As1 
	BYTE		N18     En2   v076
	BYTE		N05     Fs2   v124
	BYTE		N05     Dn5   v120
	BYTE	W06
	BYTE		        Gs2   v060
	BYTE		N05     Cn5   v076
	BYTE	W06
	BYTE		        As2   v004
	BYTE		N05     Cn5   v076
	BYTE	W06
	BYTE		        Fn1   v100
	BYTE		N05     Bn1 
	BYTE		N05     Cn5   v092
	BYTE	W06
	BYTE		N11     Fn1   v127
	BYTE		N11     Bn1 
	BYTE		N05     Fs2   v116
	BYTE		N05     Cn4   v092
	BYTE		N05     Cn5 
	BYTE	W06
	BYTE		        Gs2   v048
	BYTE		N05     Cn5   v076
	BYTE	W06
	BYTE		N11     Fn1   v124
	BYTE		N11     Bn1 
	BYTE		N05     As2   v004
	BYTE		N05     Cn5   v076
	BYTE	W06
	BYTE		N05   
	BYTE	W04
// 033   ----------------------------------------
	BYTE	W02
	BYTE		N12     An1   v104
	BYTE		N12     As1 
	BYTE		N18     En2   v076
	BYTE		N05     Fs2   v120
	BYTE		N05     Dn5 
	BYTE	W06
	BYTE		        Gs2   v060
	BYTE		N05     Cn5   v076
	BYTE	W06
	BYTE		N11     Fn1   v116
	BYTE		N11     Bn1 
	BYTE		N05     As2   v004
	BYTE		N05     Cn5   v076
	BYTE	W06
	BYTE		        Cn5   v092
	BYTE	W06
	BYTE		N11     Fn1   v127
	BYTE		N11     Bn1 
	BYTE		N05     Fs2   v120
	BYTE		N05     Cn4   v092
	BYTE	W06
	BYTE		        Gs2   v056
	BYTE		N05     Cn5   v076
	BYTE	W06
	BYTE		        As2   v004
	BYTE		N05     Cn5   v076
	BYTE	W06
	BYTE		N05   
	BYTE	W06
	BYTE		N11     Fn1   v124
	BYTE		N12     An1   v104
	BYTE		N12     As1 
	BYTE		N11     Bn1   v124
	BYTE		N18     En2   v076
	BYTE		N05     Fs2   v124
	BYTE		N05     Dn5   v120
	BYTE	W06
	BYTE		        Gs2   v060
	BYTE		N05     Cn5   v076
	BYTE	W06
	BYTE		        As2   v004
	BYTE		N05     Cn5   v076
	BYTE	W06
	BYTE		        Fn1   v084
	BYTE		N05     Bn1 
	BYTE		N05     Cn5   v092
	BYTE	W06
	BYTE		N11     Fn1   v127
	BYTE		N11     Bn1 
	BYTE		N05     Fs2   v116
	BYTE		N05     Cn4   v092
	BYTE		N05     Cn5 
	BYTE	W06
	BYTE		        Gs2   v048
	BYTE		N05     Cn5   v076
	BYTE	W06
	BYTE		N11     Fn1   v124
	BYTE		N11     Bn1 
	BYTE		N05     As2   v004
	BYTE		N05     Cn5   v076
	BYTE	W06
	BYTE		N05   
	BYTE	W04
// 034   ----------------------------------------
	BYTE	W02
	BYTE		N11     Fn1   v127
	BYTE		N24     An1   v104
	BYTE		N24     As1 
	BYTE		N11     Bn1   v127
	BYTE		N18     En2   v076
	BYTE		N05     Fs2   v124
	BYTE		N05     Dn5   v120
	BYTE	W06
	BYTE		        Gs2   v060
	BYTE		N05     Cn5   v076
	BYTE	W06
	BYTE		        As2   v004
	BYTE		N05     Cn5   v076
	BYTE	W06
	BYTE		        Fn1   v096
	BYTE		N05     Bn1 
	BYTE		N05     Cn5   v092
	BYTE	W06
	BYTE		N11     Fn1   v127
	BYTE		N11     Bn1 
	BYTE		N05     Fs2   v116
	BYTE		N05     Cn4   v092
	BYTE	W06
	BYTE		        Gs2   v056
	BYTE		N05     Cn5   v076
	BYTE	W06
	BYTE		        As2   v004
	BYTE		N05     Cn5   v076
	BYTE	W06
	BYTE		N05   
	BYTE	W06
	BYTE		N11     Fn1   v120
	BYTE		N12     An1   v104
	BYTE		N12     As1 
	BYTE		N11     Bn1   v120
	BYTE		N18     En2   v076
	BYTE		N05     Fs2   v120
	BYTE		N05     Dn5 
	BYTE	W06
	BYTE		        Gs2   v060
	BYTE		N05     Cn5   v076
	BYTE	W06
	BYTE		        As2   v004
	BYTE		N05     Cn5   v076
	BYTE	W06
	BYTE		        Fn1   v084
	BYTE		N05     Bn1 
	BYTE		N05     Cn5   v092
	BYTE	W06
	BYTE		N11     Fn1   v127
	BYTE		N11     Bn1 
	BYTE		N05     Fs2   v116
	BYTE		N05     Cn4   v092
	BYTE		N05     Cn5 
	BYTE	W06
	BYTE		        Gs2   v048
	BYTE		N05     Cn5   v076
	BYTE	W06
	BYTE		        As2   v004
	BYTE		N05     Cn5   v076
	BYTE	W06
	BYTE		N05   
	BYTE	W04
// 035   ----------------------------------------
	BYTE	W02
	BYTE		N11     Fn1   v127
	BYTE		N12     An1   v104
	BYTE		N12     As1 
	BYTE		N11     Bn1   v127
	BYTE		N18     En2   v076
	BYTE		N05     Fs2   v120
	BYTE		N05     Dn5 
	BYTE	W06
	BYTE		        Gs2   v060
	BYTE		N05     Cn5   v076
	BYTE	W06
	BYTE		        As2   v004
	BYTE		N05     Cn5   v076
	BYTE	W06
	BYTE		        Fn1   v096
	BYTE		N05     Bn1 
	BYTE		N05     Cn5   v092
	BYTE	W06
	BYTE		N11     Fn1   v127
	BYTE		N11     Bn1 
	BYTE		N05     Fs2   v120
	BYTE		N05     Cn4   v092
	BYTE	W06
	BYTE		        Gs2   v060
	BYTE		N05     Cn5   v076
	BYTE	W06
	BYTE		N11     Fn1   v124
	BYTE		N11     Bn1 
	BYTE		N05     As2   v004
	BYTE		N05     Cn5   v076
	BYTE	W06
	BYTE		N05   
	BYTE	W06
	BYTE		N06     An1   v104
	BYTE		N06     As1 
	BYTE		N18     En2   v076
	BYTE		N02     Fs2   v116
	BYTE		N05     Dn5   v120
	BYTE	W06
	BYTE		        Cn5   v076
	BYTE	W06
	BYTE		N11     Fn1   v127
	BYTE		N11     Bn1 
	BYTE		N36     Cs3   v124
	BYTE		N05     Cn5   v076
	BYTE	W02
	BYTE		N36     Dn3   v108
	BYTE	W04
	BYTE		N05     Cn5   v092
	BYTE	W06
	BYTE		        Cn4 
	BYTE		N05     Cn5 
	BYTE	W06
	BYTE		        Cn5   v076
	BYTE	W06
	BYTE		N11     Fn1   v127
	BYTE		N04     An1   v072
	BYTE		N04     As1 
	BYTE		N11     Bn1   v127
	BYTE		N04     En2   v060
	BYTE		N05     Cn4   v092
	BYTE	W04
	BYTE		N04     An1 
	BYTE		N04     As1 
	BYTE		N04     En2   v072
	BYTE	W02
	BYTE		N05     Cn5   v076
	BYTE	W02
	BYTE		N04     An1   v080
	BYTE		N04     As1 
	BYTE		N04     En2 
	BYTE	W02
// 036   ----------------------------------------
	BYTE	W02
	BYTE		N11     Fn1   v112
	BYTE		N24     An1   v104
	BYTE		N24     As1 
	BYTE		N11     Bn1   v112
	BYTE		N18     En2   v127
	BYTE		N05     Dn5   v120
	BYTE	W06
	BYTE		        Cn5   v076
	BYTE	W06
	BYTE		        Fn1   v124
	BYTE		N05     Bn1 
	BYTE		N05     Fs2   v100
	BYTE		N05     Cn5   v076
	BYTE	W06
	BYTE		        Fn1   v084
	BYTE		N05     Bn1 
	BYTE		N05     Fs2   v072
	BYTE		N05     Cn5   v092
	BYTE	W06
	BYTE		N11     Fn1   v127
	BYTE		N11     Bn1 
	BYTE		N48     En3   v124
	BYTE		N05     Cn4   v092
	BYTE	W02
	BYTE		N48     Fn3   v108
	BYTE	W04
	BYTE		N05     Cn5   v076
	BYTE	W06
	BYTE		        Fn1   v120
	BYTE		N05     Bn1 
	BYTE		N05     Cn5   v076
	BYTE	W06
	BYTE		        Fn1   v112
	BYTE		N05     Bn1 
	BYTE		N05     Cn5   v076
	BYTE	W06
	BYTE		N12     An1   v104
	BYTE		N12     As1 
	BYTE		N18     En2   v076
	BYTE		N05     Fs2   v120
	BYTE		N05     Dn5 
	BYTE	W06
	BYTE		        Gs2   v060
	BYTE		N05     Cn5   v076
	BYTE	W06
	BYTE		        As2   v004
	BYTE		N05     Cn5   v076
	BYTE	W06
	BYTE		        Fn1   v084
	BYTE		N05     Bn1 
	BYTE		N05     Cn5   v092
	BYTE	W06
	BYTE		N11     Fn1   v127
	BYTE		N11     Bn1 
	BYTE		N05     Fs2   v112
	BYTE		N05     Cn4   v092
	BYTE		N05     Cn5 
	BYTE	W06
	BYTE		        Gs2   v052
	BYTE		N05     Cn5   v076
	BYTE	W06
	BYTE		        As2   v004
	BYTE		N05     Cn5   v076
	BYTE	W06
	BYTE		N05   
	BYTE	W04
// 037   ----------------------------------------
	BYTE	W02
	BYTE		N11     Fn1   v127
	BYTE		N24     An1   v104
	BYTE		N24     As1 
	BYTE		N11     Bn1   v127
	BYTE		N18     En2   v076
	BYTE		N05     Fs2   v116
	BYTE		N05     Dn5   v120
	BYTE	W06
	BYTE		        Gs2   v060
	BYTE		N05     Cn5   v076
	BYTE	W06
	BYTE		        As2   v004
	BYTE		N05     Cn5   v076
	BYTE	W06
	BYTE		        Fn1   v096
	BYTE		N05     Bn1 
	BYTE		N05     Cn5   v092
	BYTE	W06
	BYTE		N11     Fn1   v127
	BYTE		N11     Bn1 
	BYTE		N05     Fs2   v116
	BYTE		N05     Cn4   v092
	BYTE	W06
	BYTE		        Gs2   v060
	BYTE		N05     Cn5   v076
	BYTE	W06
	BYTE		        Fn1   v120
	BYTE		N05     Bn1 
	BYTE		N05     As2   v004
	BYTE		N05     Cn5   v076
	BYTE	W06
	BYTE		        Fn1   v112
	BYTE		N05     Bn1   v108
	BYTE		N05     Cn5   v076
	BYTE	W06
	BYTE		N12     An1   v104
	BYTE		N12     As1 
	BYTE		N18     En2   v076
	BYTE		N05     Fs2   v120
	BYTE		N05     Dn5 
	BYTE	W06
	BYTE		        Gs2   v060
	BYTE		N05     Cn5   v076
	BYTE	W06
	BYTE		        As2   v004
	BYTE		N05     Cn5   v076
	BYTE	W06
	BYTE		        Fn1   v084
	BYTE		N05     Bn1 
	BYTE		N05     Cn5   v092
	BYTE	W06
	BYTE		N11     Fn1   v127
	BYTE		N11     Bn1 
	BYTE		N05     Fs2   v104
	BYTE		N05     Cn4   v092
	BYTE		N05     Cn5 
	BYTE	W06
	BYTE		        Gs2   v052
	BYTE		N05     Cn5   v076
	BYTE	W06
	BYTE		        Fn1   v120
	BYTE		N05     Bn1 
	BYTE		N05     As2   v004
	BYTE		N05     Cn5   v076
	BYTE	W06
	BYTE		        Fn1   v112
	BYTE		N05     Bn1 
	BYTE		N05     Cn5   v076
	BYTE	W04
// 038   ----------------------------------------
	BYTE	W02
	BYTE		N24     An1   v104
	BYTE		N24     As1 
	BYTE		N18     En2   v076
	BYTE		N05     Fs2   v120
	BYTE		N05     Dn5 
	BYTE	W06
	BYTE		        Gs2   v060
	BYTE		N05     Cn5   v076
	BYTE	W06
	BYTE		        As2   v004
	BYTE		N05     Cn5   v076
	BYTE	W06
	BYTE		        Fn1   v096
	BYTE		N05     Bn1 
	BYTE		N05     Cn5   v092
	BYTE	W06
	BYTE		N11     Fn1   v127
	BYTE		N11     Bn1 
	BYTE		N05     Fs2   v120
	BYTE		N05     Cn4   v092
	BYTE	W06
	BYTE		        Gs2   v056
	BYTE		N05     Cn5   v076
	BYTE	W06
	BYTE		        Fn1   v120
	BYTE		N05     Bn1 
	BYTE		N05     As2   v004
	BYTE		N05     Cn5   v076
	BYTE	W06
	BYTE		        Fn1   v112
	BYTE		N05     Bn1 
	BYTE		N05     Cn5   v076
	BYTE	W06
	BYTE		N12     An1   v104
	BYTE		N12     As1 
	BYTE		N18     En2   v076
	BYTE		N05     Fs2   v120
	BYTE		N05     Dn5 
	BYTE	W06
	BYTE		        Gs2   v060
	BYTE		N05     Cn5   v076
	BYTE	W06
	BYTE		        As2   v004
	BYTE		N05     Cn5   v076
	BYTE	W06
	BYTE		        Fn1   v084
	BYTE		N05     Bn1 
	BYTE		N05     Cn5   v092
	BYTE	W06
	BYTE		N11     Fn1   v127
	BYTE		N11     Bn1 
	BYTE		N05     Fs2   v108
	BYTE		N05     Cn4   v092
	BYTE		N05     Cn5 
	BYTE	W06
	BYTE		        Gs2   v052
	BYTE		N05     Cn5   v076
	BYTE	W06
	BYTE		        Fn1   v120
	BYTE		N05     Bn1 
	BYTE		N05     As2   v004
	BYTE		N05     Cn5   v076
	BYTE	W06
	BYTE		        Fn1   v112
	BYTE		N05     Bn1 
	BYTE		N05     Cn5   v076
	BYTE	W04
// 039   ----------------------------------------
	BYTE	W02
	BYTE		N24     An1   v104
	BYTE		N24     As1 
	BYTE		N18     En2   v076
	BYTE		N05     Fs2   v120
	BYTE		N05     Dn5 
	BYTE	W06
	BYTE		        Gs2   v060
	BYTE		N05     Cn5   v076
	BYTE	W06
	BYTE		        As2   v004
	BYTE		N05     Cn5   v076
	BYTE	W06
	BYTE		        Fn1   v096
	BYTE		N05     Bn1 
	BYTE		N05     Cn5   v092
	BYTE	W06
	BYTE		N11     Fn1   v127
	BYTE		N11     Bn1 
	BYTE		N05     Fs2   v116
	BYTE		N05     Cn4   v092
	BYTE	W06
	BYTE		        Gs2   v056
	BYTE		N05     Cn5   v076
	BYTE	W06
	BYTE		        Fn1   v120
	BYTE		N05     Bn1 
	BYTE		N05     As2   v004
	BYTE		N05     Cn5   v076
	BYTE	W06
	BYTE		        Fn1   v112
	BYTE		N05     Bn1 
	BYTE		N05     Cn5   v076
	BYTE	W06
	BYTE		N11     Fn1   v124
	BYTE		N12     An1   v096
	BYTE		N12     As1 
	BYTE		N11     Bn1   v124
	BYTE		N18     En2   v076
	BYTE		N05     Fs2   v120
	BYTE		N05     Dn5 
	BYTE	W06
	BYTE		        Gs2   v060
	BYTE		N05     Cn5   v076
	BYTE	W06
	BYTE		        Fn1   v116
	BYTE		N05     Bn1 
	BYTE		N05     As2   v004
	BYTE		N05     Cn5   v076
	BYTE	W06
	BYTE		        Fn1   v100
	BYTE		N05     Bn1 
	BYTE		N05     Cn5   v092
	BYTE	W04
	BYTE		N24     Cs3   v124
	BYTE	W02
	BYTE		N11     Fn1   v127
	BYTE		N12     An1   v112
	BYTE		N12     As1 
	BYTE		N11     Bn1   v127
	BYTE		N06     Dn2   v100
	BYTE		N02     Fs2   v088
	BYTE		N24     Dn3   v108
	BYTE		N05     Cn4   v092
	BYTE		N05     Dn5   v124
	BYTE	W02
	BYTE		N06     En2   v127
	BYTE	W10
	BYTE		N11     Fn1   v112
	BYTE		N11     Bn1 
	BYTE		N05     Cn5   v076
	BYTE	W10
// 040   ----------------------------------------
	BYTE		N24     En3   v124
	BYTE	W01
	BYTE		N12     Dn2   v100
	BYTE	W01
	BYTE		N11     Fn1   v127
	BYTE		N18     An1   v112
	BYTE		N18     As1 
	BYTE		N11     Bn1   v127
	BYTE		N12     En2   v124
	BYTE		N24     Fn3   v108
	BYTE		N05     Cn4   v092
	BYTE		N05     Dn5   v120
	BYTE	W12
	BYTE		        Cn5   v092
	BYTE	W06
	BYTE		        Cn5   v076
	BYTE	W04
	BYTE	TEMPO   164*WindOfLaGias_tbs/2
	BYTE	W02
	BYTE		N11     Fn1   v127
	BYTE		N11     Bn1 
	BYTE		N48     Cs3 
	BYTE	W02
	BYTE		        Dn3   v112
	BYTE	W22
	BYTE		N12     An3   v092
	BYTE		N12     As3 
	BYTE	W12
	BYTE		N11     Fn1   v112
	BYTE		N11     Bn1 
	BYTE	W12
	BYTE		        Fn1   v127
	BYTE		N11     Bn1 
	BYTE		N12     An3   v096
	BYTE		N12     As3 
	BYTE	W22
// 041   ----------------------------------------
	BYTE	PATT
	 POIN2	WindOfLaGias_1_001
// 042   ----------------------------------------
	BYTE	W02
	BYTE		N24     An1   v116
	BYTE		N24     As1 
	BYTE		N24     En2   v100
	BYTE		N12     An3   v120
	BYTE		N12     As3 
	BYTE	W24
	BYTE		N11     Fn1   v127
	BYTE		N11     Bn1 
	BYTE		N48     En3   v124
	BYTE	W02
	BYTE		        Fn3   v108
	BYTE	W22
	BYTE		N12     An3   v088
	BYTE		N12     As3 
	BYTE	W12
	BYTE		N11     Fn1   v112
	BYTE		N11     Bn1 
	BYTE	W12
	BYTE		        Fn1   v127
	BYTE		N11     Bn1 
	BYTE		N12     An3   v096
	BYTE		N12     As3 
	BYTE	W22
// 043   ----------------------------------------
	BYTE	PATT
	 POIN2	WindOfLaGias_1_003
// 044   ----------------------------------------
	BYTE	W02
	BYTE		N24     An1   v116
	BYTE		N24     As1 
	BYTE		N24     En2   v100
	BYTE		N12     An3   v127
	BYTE		N12     As3 
	BYTE	W24
	BYTE		N11     Fn1 
	BYTE		N11     Bn1 
	BYTE		N48     Cs3   v124
	BYTE	W02
	BYTE		        Dn3   v108
	BYTE	W22
	BYTE		N12     An3   v088
	BYTE		N12     As3 
	BYTE	W12
	BYTE		N11     Fn1   v112
	BYTE		N11     Bn1 
	BYTE	W12
	BYTE		        Fn1   v127
	BYTE		N11     Bn1 
	BYTE		N12     An3   v096
	BYTE		N12     As3 
	BYTE	W22
// 045   ----------------------------------------
	BYTE	PATT
	 POIN2	WindOfLaGias_1_005
// 046   ----------------------------------------
	BYTE	W02
	BYTE		N24     An1   v116
	BYTE		N24     As1 
	BYTE		N24     En2   v100
	BYTE		N12     An3   v127
	BYTE		N12     As3 
	BYTE	W24
	BYTE		N11     Fn1 
	BYTE		N11     Bn1 
	BYTE		N48     En3   v124
	BYTE	W02
	BYTE		        Fn3   v108
	BYTE	W22
	BYTE		N11     Fn1   v124
	BYTE		N24     An1   v096
	BYTE		N24     As1 
	BYTE		N11     Bn1   v124
	BYTE		N24     En2 
	BYTE		N05     Gs2   v092
	BYTE	W24
	BYTE		N11     Fn1   v127
	BYTE		N11     Bn1 
	BYTE		N05     Gs2   v080
	BYTE		N11     An3   v100
	BYTE		N11     As3 
	BYTE	W12
	BYTE		N05     An3   v072
	BYTE		N05     As3 
	BYTE	W06
	BYTE		        An3   v092
	BYTE		N05     As3 
	BYTE	W04
// 047   ----------------------------------------
	BYTE	W02
	BYTE		N11     Fn1   v124
	BYTE		N23     An1   v096
	BYTE		N23     As1 
	BYTE		N11     Bn1   v124
	BYTE		N23     En2 
	BYTE		N05     Gs2   v092
	BYTE		N11     An3   v124
	BYTE		N11     As3 
	BYTE	W12
	BYTE		        Fn1   v096
	BYTE		N11     Bn1 
	BYTE		N05     An3   v088
	BYTE		N05     As3 
	BYTE	W06
	BYTE		        An3   v116
	BYTE		N05     As3 
	BYTE	W06
	BYTE		N11     Fn1   v127
	BYTE		N05     An1   v072
	BYTE		N05     As1 
	BYTE		N11     Bn1   v127
	BYTE		N05     En2   v100
	BYTE		N48     An3   v127
	BYTE		N48     As3 
	BYTE	W06
	BYTE		N05     An1   v064
	BYTE		N05     As1 
	BYTE		N05     En2   v092
	BYTE	W06
	BYTE		N11     Fn1   v124
	BYTE		N05     An1   v072
	BYTE		N05     As1 
	BYTE		N11     Bn1   v124
	BYTE		N05     En2   v096
	BYTE	W06
	BYTE		        An1   v076
	BYTE		N05     As1 
	BYTE		N05     En2   v100
	BYTE	W06
	BYTE		N11     Fn1   v127
	BYTE		N05     An1   v088
	BYTE		N05     As1 
	BYTE		N11     Bn1   v127
	BYTE		N05     En2   v112
	BYTE	W06
	BYTE		        An1   v080
	BYTE		N05     As1 
	BYTE		N05     En2   v108
	BYTE	W06
	BYTE		N11     Fn1   v124
	BYTE		N05     An1   v088
	BYTE		N05     As1 
	BYTE		N11     Bn1   v124
	BYTE		N05     En2   v108
	BYTE	W06
	BYTE		        An1   v092
	BYTE		N05     As1 
	BYTE		N05     En2   v116
	BYTE	W06
	BYTE		N11     Fn1   v127
	BYTE		N05     An1   v100
	BYTE		N05     As1 
	BYTE		N11     Bn1   v127
	BYTE		N05     En2   v124
	BYTE	W06
	BYTE		        An1   v096
	BYTE		N05     As1 
	BYTE		N05     En2   v116
	BYTE	W06
	BYTE		N11     Fn1   v124
	BYTE		N05     An1   v100
	BYTE		N05     As1 
	BYTE		N11     Bn1   v124
	BYTE		N05     En2   v120
	BYTE	W06
	BYTE		        An1   v108
	BYTE		N05     As1 
	BYTE		N05     En2   v124
	BYTE	W04
// 048   ----------------------------------------
	BYTE	PATT
	 POIN2	WindOfLaGias_1_008
	BYTE	GoTo
	 POIN2	WindOfLaGias_1_B1
WindOfLaGias_1_B2:
	BYTE	W01
	BYTE		N09     Fn1   v124
	BYTE		N05     An1   v112
	BYTE		N05     As1 
	BYTE		N09     Bn1   v124
	BYTE		N05     En2   v127
	BYTE	W06
	BYTE		N03     An1   v116
	BYTE		N03     As1 
	BYTE		N03     En2   v127
	BYTE	W05
	BYTE	FINE

//**************** Track 2 (Midi-Chn.2) ****************//

WindOfLaGias_2:
	BYTE	KEYSH   WindOfLaGias_key+0
// 000   ----------------------------------------
	BYTE		VOICE   30
	BYTE		VOL     51*WindOfLaGias_mvl/mxv
	BYTE	W96
// 001   ----------------------------------------
	BYTE	W96
// 002   ----------------------------------------
	BYTE	W96
// 003   ----------------------------------------
	BYTE	W96
// 004   ----------------------------------------
	BYTE	W96
// 005   ----------------------------------------
	BYTE	W96
// 006   ----------------------------------------
	BYTE	W96
// 007   ----------------------------------------
	BYTE	W96
// 008   ----------------------------------------
	BYTE	W13
WindOfLaGias_2_B1:
	BYTE	W80
	BYTE	W03
// 009   ----------------------------------------
	BYTE	W96
// 010   ----------------------------------------
	BYTE	W96
// 011   ----------------------------------------
	BYTE	W96
// 012   ----------------------------------------
	BYTE	W96
// 013   ----------------------------------------
	BYTE	W96
// 014   ----------------------------------------
	BYTE	W96
// 015   ----------------------------------------
	BYTE	W96
// 016   ----------------------------------------
	BYTE	W24
	BYTE	W02
	BYTE		N42     Cn3   v120
	BYTE	W44
	BYTE	W03
	BYTE		N13   
	BYTE	W12
	BYTE		        Dn3 
	BYTE	W11
// 017   ----------------------------------------
	BYTE	W01
	BYTE		N11     Ds3 
	BYTE	W12
	BYTE		N24     Dn3 
	BYTE	W24
	BYTE		N13     As2   v112
	BYTE	W12
	BYTE		N22     Cn3   v116
	BYTE	W24
	BYTE		N13     Cn3   v120
	BYTE	W12
	BYTE		        Dn3 
	BYTE	W11
// 018   ----------------------------------------
	BYTE	W01
	BYTE		        Ds3 
	BYTE	W12
	BYTE		N11     Fn3   v112
	BYTE	W12
	BYTE		N24     Gn3   v120
	BYTE	W24
	BYTE		N22     Cn3 
	BYTE	W24
	BYTE		N24   
	BYTE	W23
// 019   ----------------------------------------
WindOfLaGias_2_019:
	BYTE	W01
	BYTE		N13     As2   v120
	BYTE	W12
	BYTE		TIE     Cn3 
	BYTE	W80
	BYTE	W03
	BYTE	PEND
// 020   ----------------------------------------
	BYTE	W19
	BYTE		EOT   
	BYTE	W01
	BYTE		N03     Cn3   v048
	BYTE	W17
	BYTE		N23     Dn3   v120
	BYTE	W24
	BYTE		N13     Dn3   v112
	BYTE	W12
	BYTE		N11     Ds3   v120
	BYTE	W12
	BYTE		N13     Ds3   v112
	BYTE	W11
// 021   ----------------------------------------
	BYTE	W01
	BYTE		        Fn3 
	BYTE	W12
	BYTE		N22     Gn3   v120
	BYTE	W24
	BYTE		N09     Gn3   v104
	BYTE	W12
	BYTE		N24     Fn3   v120
	BYTE	W24
	BYTE		        Ds3 
	BYTE	W23
// 022   ----------------------------------------
	BYTE	W01
	BYTE		        Dn3 
	BYTE	W24
	BYTE		        Cn3 
	BYTE	W24
	BYTE	W01
	BYTE		N09     Cn3   v052
	BYTE	W11
	BYTE		N13     Cn3   v120
	BYTE	W12
	BYTE		        Dn3 
	BYTE	W12
	BYTE		N24     Cn3 
	BYTE	W11
// 023   ----------------------------------------
	BYTE	W13
	BYTE		N36     Bn2 
	BYTE	W36
	BYTE	W01
	BYTE		N09     Bn2   v048
	BYTE	W11
	BYTE		N13     Bn2   v120
	BYTE	W12
	BYTE		        Cn3 
	BYTE	W12
	BYTE		N32     Dn3 
	BYTE	W11
// 024   ----------------------------------------
	BYTE	W24
	BYTE	W01
	BYTE		N24     Cn3 
	BYTE	W24
	BYTE		N21     Gn2 
	BYTE	W24
	BYTE		N13     Cn3 
	BYTE	W12
	BYTE		N11     Dn3 
	BYTE	W11
// 025   ----------------------------------------
	BYTE	W01
	BYTE		N13     Ds3 
	BYTE	W12
	BYTE		N24     Dn3 
	BYTE	W24
	BYTE		N13     As2 
	BYTE	W12
	BYTE		N22     Cn3 
	BYTE	W24
	BYTE		N13   
	BYTE	W12
	BYTE		        Dn3 
	BYTE	W11
// 026   ----------------------------------------
	BYTE	W01
	BYTE		        Ds3 
	BYTE	W12
	BYTE		N10     Fn3   v112
	BYTE	W12
	BYTE		N24     Gn3   v120
	BYTE	W24
	BYTE		        Fn3 
	BYTE	W24
	BYTE		        Dn3 
	BYTE	W23
// 027   ----------------------------------------
	BYTE	PATT
	 POIN2	WindOfLaGias_2_019
// 028   ----------------------------------------
	BYTE	W24
	BYTE	W01
	BYTE		EOT     Cn3 
	BYTE	W12
	BYTE		N22     Dn3   v120
	BYTE	W24
	BYTE		N13   
	BYTE	W12
	BYTE		N11     Ds3 
	BYTE	W12
	BYTE		N13   
	BYTE	W11
// 029   ----------------------------------------
	BYTE	W01
	BYTE		N07     Fn3   v104
	BYTE	W12
	BYTE		N22     Gn3   v120
	BYTE	W24
	BYTE		N13   
	BYTE	W12
	BYTE		N24     Fn3 
	BYTE	W24
	BYTE		        Ds3 
	BYTE	W23
// 030   ----------------------------------------
	BYTE	W01
	BYTE		        Dn3 
	BYTE	W24
	BYTE		N44     Cn3 
	BYTE	W48
	BYTE		N13     Dn3 
	BYTE	W12
	BYTE		N24     Ds3   v116
	BYTE	W11
// 031   ----------------------------------------
	BYTE	W13
	BYTE		        Fn3   v120
	BYTE	W24
	BYTE		N36     Dn3   v112
	BYTE	W48
	BYTE		N12     Dn3   v120
	BYTE		N12     Dn4   v064
	BYTE	W11
// 032   ----------------------------------------
	BYTE	W02
	BYTE		N11     Dn3   v112
	BYTE		N11     Dn4   v060
	BYTE	W12
	BYTE		        Dn3   v120
	BYTE		N11     Dn4   v064
	BYTE	W11
	BYTE		N23     Ds3   v120
	BYTE		N23     Ds4   v064
	BYTE	W24
	BYTE		N13     Dn3   v112
	BYTE		N13     Dn4   v064
	BYTE	W12
	BYTE		N36     Cn3   v120
	BYTE		N36     Cn4   v064
	BYTE	W32
	BYTE	W03
// 033   ----------------------------------------
	BYTE	W01
	BYTE		N24     Gn2   v120
	BYTE		N24     Gn3   v064
	BYTE	W24
	BYTE		N66     Gs2   v120
	BYTE		N66     Gs3   v064
	BYTE	W68
	BYTE	W03
// 034   ----------------------------------------
	BYTE	W01
	BYTE		N13     Dn3   v120
	BYTE		N13     Dn4   v064
	BYTE	W12
	BYTE		        Ds3   v120
	BYTE		N13     Ds4   v064
	BYTE	W12
	BYTE		N24     Dn3   v120
	BYTE		N24     Dn4   v064
	BYTE	W24
	BYTE		        Cn3   v120
	BYTE		N24     Cn4   v064
	BYTE	W24
	BYTE		        As2   v120
	BYTE		N24     As3   v064
	BYTE	W23
// 035   ----------------------------------------
	BYTE	W01
	BYTE		N23     Fn3   v120
	BYTE		N23     Fn4   v064
	BYTE	W24
	BYTE		N66     Gn3   v120
	BYTE		N66     Gn4   v064
	BYTE	W66
	BYTE	W01
	BYTE		N05     Gn3   v048
	BYTE		N05     Gn4   v032
	BYTE	W04
// 036   ----------------------------------------
	BYTE	W02
	BYTE		N24     Gn3   v120
	BYTE		N24     Gn4   v064
	BYTE	W23
	BYTE		        Gs3   v112
	BYTE		N24     Gs4   v060
	BYTE	W24
	BYTE		N13     Gn3   v112
	BYTE		N13     Gn4   v060
	BYTE	W12
	BYTE		N15     Gs3   v116
	BYTE		N15     Gs4   v064
	BYTE	W24
	BYTE		N13     Cn4   v116
	BYTE		N13     Cn5   v064
	BYTE	W11
// 037   ----------------------------------------
	BYTE	W13
	BYTE		N84     As3   v112
	BYTE		N84     As4   v060
	BYTE	W80
	BYTE	W03
// 038   ----------------------------------------
	BYTE	W01
	BYTE		N13     Gs3   v112
	BYTE		N13     Gs4   v060
	BYTE	W12
	BYTE		N12     As3   v112
	BYTE		N12     As4   v060
	BYTE	W12
	BYTE		N24     Cn4   v120
	BYTE		N24     Cn5   v064
	BYTE	W24
	BYTE		N13     As3   v112
	BYTE		N13     As4   v060
	BYTE	W12
	BYTE		N15     Cn4   v112
	BYTE		N15     Cn5   v060
	BYTE	W24
	BYTE		N24     Ds4   v112
	BYTE		N24     Ds5   v060
	BYTE	W11
// 039   ----------------------------------------
	BYTE	W13
	BYTE		N23     Dn4   v112
	BYTE		N23     Dn5   v060
	BYTE	W24
	BYTE		N13     Dn4   v112
	BYTE		N13     Dn5   v060
	BYTE	W12
	BYTE		N24     Cn4   v112
	BYTE		N24     Cn5   v060
	BYTE	W24
	BYTE		        As3   v112
	BYTE		N24     As4   v060
	BYTE	W23
// 040   ----------------------------------------
	BYTE	W01
	BYTE		        Dn4   v112
	BYTE		N24     Dn5   v060
	BYTE	W24
	BYTE		TIE     Cn4   v112
	BYTE		TIE     Cn5   v060
	BYTE	W68
	BYTE	W03
// 041   ----------------------------------------
	BYTE	W96
// 042   ----------------------------------------
	BYTE	W08
	BYTE		EOT     Cn4 
	BYTE		        Cn5 
	BYTE	W88
// 043   ----------------------------------------
	BYTE	W96
// 044   ----------------------------------------
	BYTE	W96
// 045   ----------------------------------------
	BYTE	W96
// 046   ----------------------------------------
	BYTE	W96
// 047   ----------------------------------------
	BYTE	W96
// 048   ----------------------------------------
	BYTE	W13
	BYTE	GoTo
	 POIN2	WindOfLaGias_2_B1
WindOfLaGias_2_B2:
	BYTE	W12
	BYTE	FINE

//**************** Track 3 (Midi-Chn.4) ****************//

WindOfLaGias_3:
	BYTE	KEYSH   WindOfLaGias_key+0
// 000   ----------------------------------------
	BYTE		VOICE   29
	BYTE		PAN     c_v-1
	BYTE		VOL     24*WindOfLaGias_mvl/mxv
	BYTE	W02
	BYTE		MOD     0
	BYTE		BEND    c_v+0
	BYTE	W24
	BYTE		N11     Cn1   v104
	BYTE		N11     Cn2   v120
	BYTE	W12
	BYTE		        Gn1   v104
	BYTE		N11     Gn2   v120
	BYTE	W12
	BYTE		        Ds2   v104
	BYTE		N11     Ds3   v120
	BYTE	W12
	BYTE		        Dn2   v104
	BYTE		N11     Dn3   v120
	BYTE	W12
	BYTE		        Ds2   v104
	BYTE		N11     Ds3   v120
	BYTE	W12
	BYTE		        Dn2   v104
	BYTE		N11     Dn3   v120
	BYTE	W10
// 001   ----------------------------------------
WindOfLaGias_3_001:
	BYTE	W02
	BYTE		N11     Ds2   v104
	BYTE		N11     Ds3   v120
	BYTE	W12
	BYTE		        Cn2   v104
	BYTE		N11     Cn3   v120
	BYTE	W12
	BYTE		        Cn1   v104
	BYTE		N11     Cn2   v120
	BYTE	W12
	BYTE		        Gn1   v104
	BYTE		N11     Gn2   v120
	BYTE	W12
	BYTE		        Ds2   v104
	BYTE		N11     Ds3   v120
	BYTE	W12
	BYTE		        Dn2   v104
	BYTE		N11     Dn3   v120
	BYTE	W12
	BYTE		        Ds2   v104
	BYTE		N11     Ds3   v120
	BYTE	W12
	BYTE		        Fn2   v104
	BYTE		N11     Fn3   v120
	BYTE	W10
	BYTE	PEND
// 002   ----------------------------------------
WindOfLaGias_3_002:
	BYTE	W02
	BYTE		N11     Gn2   v104
	BYTE		N11     Gn3   v120
	BYTE	W12
	BYTE		        As2   v104
	BYTE		N11     As3   v120
	BYTE	W12
	BYTE		        Cn3   v104
	BYTE		N11     Cn4   v120
	BYTE	W12
	BYTE		        Gn2   v104
	BYTE		N11     Gn3   v120
	BYTE	W12
	BYTE		        Fn2   v104
	BYTE		N11     Fn3   v120
	BYTE	W12
	BYTE		        Gn2   v104
	BYTE		N11     Gn3   v120
	BYTE	W12
	BYTE		        Ds2   v104
	BYTE		N11     Ds3   v120
	BYTE	W12
	BYTE		        Gn2   v104
	BYTE		N11     Gn3   v120
	BYTE	W10
	BYTE	PEND
// 003   ----------------------------------------
WindOfLaGias_3_003:
	BYTE	W02
	BYTE		N11     Dn2   v104
	BYTE		N11     Dn3   v120
	BYTE	W12
	BYTE		        Gn2   v104
	BYTE		N11     Gn3   v120
	BYTE	W12
	BYTE		        Cn2   v104
	BYTE		N11     Cn3   v120
	BYTE	W12
	BYTE		        Gn2   v104
	BYTE		N11     Gn3   v120
	BYTE	W12
	BYTE		        Dn2   v104
	BYTE		N11     Dn3   v120
	BYTE	W12
	BYTE		        Gn2   v104
	BYTE		N11     Gn3   v120
	BYTE	W12
	BYTE		        Ds2   v104
	BYTE		N11     Ds3   v120
	BYTE	W12
	BYTE		        Gn2   v104
	BYTE		N11     Gn3   v120
	BYTE	W10
	BYTE	PEND
// 004   ----------------------------------------
WindOfLaGias_3_004:
	BYTE	W02
	BYTE		N11     Fn2   v104
	BYTE		N11     Fn3   v120
	BYTE	W12
	BYTE		        Gn2   v104
	BYTE		N11     Gn3   v120
	BYTE	W12
	BYTE		        As1   v104
	BYTE		N11     As2   v120
	BYTE	W12
	BYTE		        Cn2   v104
	BYTE		N11     Cn3   v120
	BYTE	W12
	BYTE		        Dn2   v104
	BYTE		N11     Dn3   v120
	BYTE	W12
	BYTE		        Fn2   v104
	BYTE		N11     Fn3   v120
	BYTE	W12
	BYTE		        As1   v104
	BYTE		N11     As2   v120
	BYTE	W12
	BYTE		        Cn2   v104
	BYTE		N11     Cn3   v120
	BYTE	W10
	BYTE	PEND
// 005   ----------------------------------------
WindOfLaGias_3_005:
	BYTE	W02
	BYTE		N11     Dn2   v104
	BYTE		N11     Dn3   v120
	BYTE	W12
	BYTE		        Ds2   v104
	BYTE		N11     Ds3   v120
	BYTE	W12
	BYTE		        Fn2   v104
	BYTE		N11     Fn3   v120
	BYTE	W12
	BYTE		        Dn2   v104
	BYTE		N11     Dn3   v120
	BYTE	W12
	BYTE		        Ds2   v104
	BYTE		N11     Ds3   v120
	BYTE	W12
	BYTE		        Fn2   v104
	BYTE		N11     Fn3   v120
	BYTE	W12
	BYTE		        Gn2   v104
	BYTE		N11     Gn3   v120
	BYTE	W12
	BYTE		        Ds2   v104
	BYTE		N11     Ds3   v120
	BYTE	W10
	BYTE	PEND
// 006   ----------------------------------------
WindOfLaGias_3_006:
	BYTE	W02
	BYTE		N11     Fn2   v104
	BYTE		N11     Fn3   v120
	BYTE	W12
	BYTE		        Gn2   v104
	BYTE		N11     Gn3   v120
	BYTE	W12
	BYTE		        Ds2   v104
	BYTE		N11     Ds3   v120
	BYTE	W12
	BYTE		        Gn2   v104
	BYTE		N11     Gn3   v120
	BYTE	W12
	BYTE		        Dn2   v104
	BYTE		N11     Dn3   v120
	BYTE	W12
	BYTE		        Gn2   v104
	BYTE		N11     Gn3   v120
	BYTE	W12
	BYTE		        Ds2   v104
	BYTE		N11     Ds3   v120
	BYTE	W12
	BYTE		        Gn2   v104
	BYTE		N11     Gn3   v120
	BYTE	W10
	BYTE	PEND
// 007   ----------------------------------------
WindOfLaGias_3_007:
	BYTE	W02
	BYTE		N11     Cn2   v104
	BYTE		N11     Cn3   v120
	BYTE	W12
	BYTE		        Gn2   v104
	BYTE		N11     Gn3   v120
	BYTE	W12
	BYTE		        Cn2   v104
	BYTE		N11     Cn3   v120
	BYTE	W12
	BYTE		        Gn2   v104
	BYTE		N11     Gn3   v120
	BYTE	W12
	BYTE		        Dn2   v104
	BYTE		N11     Dn3   v120
	BYTE	W12
	BYTE		        Gn2   v104
	BYTE		N11     Gn3   v120
	BYTE	W12
	BYTE		        Ds2   v104
	BYTE		N11     Ds3   v120
	BYTE	W12
	BYTE		        Gn2   v104
	BYTE		N11     Gn3   v120
	BYTE	W10
	BYTE	PEND
// 008   ----------------------------------------
WindOfLaGias_3_008:
	BYTE	W02
	BYTE		N11     Cn2   v104
	BYTE		N11     Cn3   v120
	BYTE	W11
	BYTE	PEND
WindOfLaGias_3_B1:
	BYTE	W01
	BYTE		N11     Gn2   v104
	BYTE		N11     Gn3   v120
	BYTE	W80
	BYTE	W02
// 009   ----------------------------------------
	BYTE	W96
// 010   ----------------------------------------
	BYTE	W96
// 011   ----------------------------------------
	BYTE	W96
// 012   ----------------------------------------
	BYTE	W96
// 013   ----------------------------------------
	BYTE	W96
// 014   ----------------------------------------
	BYTE	W96
// 015   ----------------------------------------
	BYTE	W96
// 016   ----------------------------------------
	BYTE	W96
// 017   ----------------------------------------
	BYTE	W96
// 018   ----------------------------------------
	BYTE	W96
// 019   ----------------------------------------
	BYTE	W96
// 020   ----------------------------------------
	BYTE	W96
// 021   ----------------------------------------
	BYTE	W96
// 022   ----------------------------------------
	BYTE	W96
// 023   ----------------------------------------
	BYTE	W96
// 024   ----------------------------------------
	BYTE	W96
// 025   ----------------------------------------
	BYTE	W96
// 026   ----------------------------------------
	BYTE	W96
// 027   ----------------------------------------
	BYTE	W96
// 028   ----------------------------------------
	BYTE	W96
// 029   ----------------------------------------
	BYTE	W96
// 030   ----------------------------------------
	BYTE	W96
// 031   ----------------------------------------
	BYTE	W96
// 032   ----------------------------------------
	BYTE	W96
// 033   ----------------------------------------
	BYTE	W96
// 034   ----------------------------------------
	BYTE	W96
// 035   ----------------------------------------
	BYTE	W96
// 036   ----------------------------------------
	BYTE	W96
// 037   ----------------------------------------
	BYTE	W96
// 038   ----------------------------------------
	BYTE	W96
// 039   ----------------------------------------
	BYTE	W96
// 040   ----------------------------------------
	BYTE	W24
	BYTE	W02
	BYTE		        Cn1   v104
	BYTE		N11     Cn2   v120
	BYTE	W12
	BYTE		        Gn1   v104
	BYTE		N11     Gn2   v120
	BYTE	W12
	BYTE		        Ds2   v104
	BYTE		N11     Ds3   v120
	BYTE	W12
	BYTE		        Dn2   v104
	BYTE		N11     Dn3   v120
	BYTE	W12
	BYTE		        Ds2   v104
	BYTE		N11     Ds3   v120
	BYTE	W12
	BYTE		        Dn2   v104
	BYTE		N11     Dn3   v120
	BYTE	W10
// 041   ----------------------------------------
	BYTE	PATT
	 POIN2	WindOfLaGias_3_001
// 042   ----------------------------------------
	BYTE	PATT
	 POIN2	WindOfLaGias_3_002
// 043   ----------------------------------------
	BYTE	PATT
	 POIN2	WindOfLaGias_3_003
// 044   ----------------------------------------
	BYTE	PATT
	 POIN2	WindOfLaGias_3_004
// 045   ----------------------------------------
	BYTE	PATT
	 POIN2	WindOfLaGias_3_005
// 046   ----------------------------------------
	BYTE	PATT
	 POIN2	WindOfLaGias_3_006
// 047   ----------------------------------------
	BYTE	PATT
	 POIN2	WindOfLaGias_3_007
// 048   ----------------------------------------
	BYTE	PATT
	 POIN2	WindOfLaGias_3_008
	BYTE	GoTo
	 POIN2	WindOfLaGias_3_B1
WindOfLaGias_3_B2:
	BYTE	W01
	BYTE		N11     Gn2   v104
	BYTE		N11     Gn3   v120
	BYTE	W11
	BYTE	FINE

//**************** Track 4 (Midi-Chn.5) ****************//

WindOfLaGias_4:
	BYTE	KEYSH   WindOfLaGias_key+0
// 000   ----------------------------------------
	BYTE		VOICE   49
	BYTE		VOL     26*WindOfLaGias_mvl/mxv
	BYTE		PAN     c_v-2
	BYTE	W03
	BYTE		MOD     0
	BYTE		BEND    c_v+0
	BYTE	W01
	BYTE	W20
	BYTE		N48     Cn3   v104
	BYTE		N48     Cn4   v096
	BYTE	W03
	BYTE	W03
	BYTE	W03
	BYTE	W03
	BYTE	W03
	BYTE	W03
	BYTE	W03
	BYTE	W03
	BYTE	W03
	BYTE	W03
	BYTE	W03
	BYTE	W03
	BYTE	W03
	BYTE	W03
	BYTE	W03
	BYTE	W01
	BYTE		        Gn3   v100
	BYTE		N48     Gn4   v096
	BYTE	W01
	BYTE	W24
	BYTE	W01
// 001   ----------------------------------------
WindOfLaGias_4_001:
	BYTE	W22
	BYTE		N24     Fn3   v100
	BYTE		N24     Fn4   v096
	BYTE	W01
	BYTE	W06
	BYTE	W06
	BYTE	W06
	BYTE	W05
	BYTE		        Ds3   v100
	BYTE		N24     Ds4   v096
	BYTE	W01
	BYTE	W06
	BYTE	W03
	BYTE	W06
	BYTE	W03
	BYTE	W03
	BYTE	W02
	BYTE		        Dn3   v100
	BYTE		N24     Dn4   v096
	BYTE	W04
	BYTE	W03
	BYTE	W03
	BYTE	W03
	BYTE	W03
	BYTE	W03
	BYTE	W03
	BYTE	W02
	BYTE		N22     Cn3   v100
	BYTE		N23     Cn4   v096
	BYTE	W01
	BYTE	W01
	BYTE	PEND
// 002   ----------------------------------------
WindOfLaGias_4_002:
	BYTE	W02
	BYTE	W03
	BYTE	W03
	BYTE	W03
	BYTE	W03
	BYTE	W03
	BYTE	W03
	BYTE	W02
	BYTE		N48     Cn3   v100
	BYTE		N48     Cn4   v096
	BYTE	W01
	BYTE	W03
	BYTE	W12
	BYTE	W06
	BYTE	W06
	BYTE	W03
	BYTE	W03
	BYTE	W03
	BYTE	W03
	BYTE	W03
	BYTE	W03
	BYTE	W02
	BYTE		        Gn3   v100
	BYTE		N48     Gn4   v096
	BYTE	W01
	BYTE	W03
	BYTE	W03
	BYTE	W03
	BYTE	W03
	BYTE	W03
	BYTE	W03
	BYTE	W03
	BYTE	W04
	BYTE	PEND
// 003   ----------------------------------------
WindOfLaGias_4_003:
	BYTE	W22
	BYTE		N24     Fn3   v100
	BYTE		N24     Fn4   v096
	BYTE	W04
	BYTE	W20
	BYTE		        Ds3   v100
	BYTE		N24     Ds4   v096
	BYTE	W07
	BYTE	W06
	BYTE	W06
	BYTE	W03
	BYTE	W02
	BYTE		        Dn3   v100
	BYTE		N24     Dn4   v096
	BYTE	W04
	BYTE	W03
	BYTE	W03
	BYTE	W03
	BYTE	W03
	BYTE	W03
	BYTE	W03
	BYTE	W02
	BYTE		N23     Cn3   v100
	BYTE		N23     Cn4   v096
	BYTE	W01
	BYTE	W01
	BYTE	PEND
// 004   ----------------------------------------
WindOfLaGias_4_004:
	BYTE	W02
	BYTE	W03
	BYTE	W03
	BYTE	W03
	BYTE	W03
	BYTE	W03
	BYTE	W03
	BYTE	W02
	BYTE		N48     As2   v100
	BYTE		N48     As3   v096
	BYTE	W04
	BYTE	W03
	BYTE	W18
	BYTE	W06
	BYTE	W06
	BYTE	W06
	BYTE	W03
	BYTE	W02
	BYTE		        Fn3   v100
	BYTE		N48     Fn4   v096
	BYTE	W04
	BYTE	W03
	BYTE	W03
	BYTE	W03
	BYTE	W03
	BYTE	W03
	BYTE	W03
	BYTE	W03
	BYTE	W01
	BYTE	PEND
// 005   ----------------------------------------
WindOfLaGias_4_005:
	BYTE	W02
	BYTE	W03
	BYTE	W03
	BYTE	W03
	BYTE	W03
	BYTE	W08
	BYTE		N24     Ds3   v100
	BYTE		N24     Ds4   v096
	BYTE	W13
	BYTE	W11
	BYTE		        Dn3   v100
	BYTE		N24     Dn4   v096
	BYTE	W16
	BYTE	W06
	BYTE	W02
	BYTE		        Ds3   v100
	BYTE		N24     Ds4   v096
	BYTE	W04
	BYTE	W03
	BYTE	W03
	BYTE	W06
	BYTE	W03
	BYTE	W03
	BYTE	W02
	BYTE		N22     Fn3   v100
	BYTE		N22     Fn4   v096
	BYTE	W01
	BYTE	W01
	BYTE	PEND
// 006   ----------------------------------------
WindOfLaGias_4_006:
	BYTE	W02
	BYTE	W03
	BYTE	W03
	BYTE	W03
	BYTE	W03
	BYTE	W03
	BYTE	W03
	BYTE	W02
	BYTE		N48     Gn3   v100
	BYTE		N48     Gn4   v096
	BYTE	W01
	BYTE	W24
	BYTE	W03
	BYTE	W20
	BYTE		N12     Cn3   v100
	BYTE		N12     Cn4   v096
	BYTE	W12
	BYTE		        Dn3   v092
	BYTE		N12     Dn4   v088
	BYTE	W12
	BYTE		N11     Ds3   v092
	BYTE		N11     Ds4   v088
	BYTE	W02
	BYTE	PEND
// 007   ----------------------------------------
WindOfLaGias_4_007:
	BYTE	W10
	BYTE		N36     Fn3   v100
	BYTE		N36     Fn4   v096
	BYTE	W30
	BYTE	W01
	BYTE	W05
	BYTE		N24     Ds3   v092
	BYTE		N24     Ds4   v088
	BYTE	W13
	BYTE	W06
	BYTE	W05
	BYTE		        Dn3   v092
	BYTE		N24     Dn4   v088
	BYTE	W01
	BYTE	W06
	BYTE	W03
	BYTE	W03
	BYTE	W03
	BYTE	W03
	BYTE	W03
	BYTE	W02
	BYTE		        Cn3   v092
	BYTE		N24     Cn4   v088
	BYTE	W01
	BYTE	W01
	BYTE	PEND
// 008   ----------------------------------------
WindOfLaGias_4_008:
	BYTE	W02
	BYTE	W03
	BYTE	W03
	BYTE	W03
	BYTE	W02
	BYTE	PEND
WindOfLaGias_4_B1:
	BYTE	W01
	BYTE	W03
	BYTE	W03
	BYTE	W03
	BYTE	W01
	BYTE		N48     Cn3   v100
	BYTE		N48     Cn4 
	BYTE	W05
	BYTE	W03
	BYTE	W03
	BYTE	W03
	BYTE	W03
	BYTE	W03
	BYTE	W03
	BYTE	W03
	BYTE	W03
	BYTE	W03
	BYTE	W03
	BYTE	W03
	BYTE	W03
	BYTE	W03
	BYTE	W02
	BYTE		        Gn3 
	BYTE		N48     Gn4   v096
	BYTE	W01
	BYTE	W24
	BYTE	W01
// 009   ----------------------------------------
	BYTE	W22
	BYTE		N24     Fn3   v100
	BYTE		N24     Fn4   v096
	BYTE	W01
	BYTE	W06
	BYTE	W06
	BYTE	W06
	BYTE	W05
	BYTE		        Ds3   v100
	BYTE		N24     Ds4   v096
	BYTE	W01
	BYTE	W06
	BYTE	W03
	BYTE	W06
	BYTE	W03
	BYTE	W03
	BYTE	W02
	BYTE		        Dn3   v100
	BYTE		N24     Dn4   v096
	BYTE	W04
	BYTE	W03
	BYTE	W03
	BYTE	W03
	BYTE	W03
	BYTE	W03
	BYTE	W03
	BYTE	W02
	BYTE		N23     Cn3   v100
	BYTE		N23     Cn4   v088
	BYTE	W01
	BYTE	W01
// 010   ----------------------------------------
	BYTE	W02
	BYTE	W03
	BYTE	W03
	BYTE	W03
	BYTE	W03
	BYTE	W03
	BYTE	W03
	BYTE	W02
	BYTE		N48     Cn3   v100
	BYTE		N48     Cn4 
	BYTE	W01
	BYTE	W06
	BYTE	W03
	BYTE	W06
	BYTE	W06
	BYTE	W06
	BYTE	W03
	BYTE	W03
	BYTE	W03
	BYTE	W03
	BYTE	W03
	BYTE	W03
	BYTE	W02
	BYTE		        Gn3 
	BYTE		N48     Gn4   v096
	BYTE	W01
	BYTE	W03
	BYTE	W03
	BYTE	W03
	BYTE	W03
	BYTE	W03
	BYTE	W03
	BYTE	W03
	BYTE	W04
// 011   ----------------------------------------
	BYTE	PATT
	 POIN2	WindOfLaGias_4_003
// 012   ----------------------------------------
	BYTE	PATT
	 POIN2	WindOfLaGias_4_004
// 013   ----------------------------------------
	BYTE	W02
	BYTE	W03
	BYTE	W03
	BYTE	W03
	BYTE	W03
	BYTE	W08
	BYTE		N24     Ds3   v100
	BYTE		N24     Ds4   v096
	BYTE	W13
	BYTE	W11
	BYTE		        Dn3   v100
	BYTE		N24     Dn4   v096
	BYTE	W16
	BYTE	W06
	BYTE	W02
	BYTE		        Ds3   v100
	BYTE		N24     Ds4   v096
	BYTE	W04
	BYTE	W03
	BYTE	W03
	BYTE	W06
	BYTE	W03
	BYTE	W03
	BYTE	W02
	BYTE		N23     Fn3   v100
	BYTE		N23     Fn4   v096
	BYTE	W01
	BYTE	W01
// 014   ----------------------------------------
	BYTE	W02
	BYTE	W03
	BYTE	W03
	BYTE	W03
	BYTE	W03
	BYTE	W03
	BYTE	W03
	BYTE	W02
	BYTE		N48     Gn4   v100
	BYTE	W01
	BYTE	W24
	BYTE	W03
	BYTE	W20
	BYTE		N12     Cn4 
	BYTE	W12
	BYTE		        Dn4   v092
	BYTE	W12
	BYTE		N11     Ds4 
	BYTE	W02
// 015   ----------------------------------------
	BYTE	W10
	BYTE		N36     Fn4   v096
	BYTE		N36     Gs4   v100
	BYTE	W30
	BYTE	W01
	BYTE	W05
	BYTE		N24     Ds4   v096
	BYTE		N24     Gn4 
	BYTE	W13
	BYTE	W06
	BYTE	W05
	BYTE		        Dn4   v088
	BYTE		N24     Fn4 
	BYTE	W01
	BYTE	W06
	BYTE	W03
	BYTE	W03
	BYTE	W03
	BYTE	W03
	BYTE	W03
	BYTE	W02
	BYTE		N23     Ds4   v076
	BYTE		N23     Gn4   v084
	BYTE	W01
	BYTE	W01
// 016   ----------------------------------------
	BYTE	W02
	BYTE	W03
	BYTE	W03
	BYTE	W03
	BYTE	W03
	BYTE	W03
	BYTE	W03
	BYTE	W02
	BYTE		N48     Cn3   v068
	BYTE		N48     Cn4   v080
	BYTE	W01
	BYTE	W03
	BYTE	W09
	BYTE	W03
	BYTE	W03
	BYTE	W03
	BYTE	W03
	BYTE	W03
	BYTE	W03
	BYTE	W03
	BYTE	W03
	BYTE	W03
	BYTE	W03
	BYTE	W03
	BYTE	W02
	BYTE		        Gn3   v068
	BYTE		N48     Gn4   v080
	BYTE	W01
	BYTE	W24
	BYTE	W01
// 017   ----------------------------------------
	BYTE	W22
	BYTE		N24     Fn3   v068
	BYTE		N24     Fn4   v080
	BYTE	W01
	BYTE	W06
	BYTE	W06
	BYTE	W06
	BYTE	W05
	BYTE		        Ds3   v068
	BYTE		N24     Ds4   v080
	BYTE	W01
	BYTE	W06
	BYTE	W03
	BYTE	W06
	BYTE	W03
	BYTE	W03
	BYTE	W02
	BYTE		        Dn3   v068
	BYTE		N24     Dn4   v080
	BYTE	W04
	BYTE	W03
	BYTE	W03
	BYTE	W03
	BYTE	W03
	BYTE	W03
	BYTE	W03
	BYTE	W02
	BYTE		N23     Cn3   v068
	BYTE		N23     Cn4   v080
	BYTE	W01
	BYTE	W01
// 018   ----------------------------------------
	BYTE	W02
	BYTE	W03
	BYTE	W03
	BYTE	W03
	BYTE	W03
	BYTE	W03
	BYTE	W03
	BYTE	W02
	BYTE		N48     Cn3   v068
	BYTE		N48     Cn4   v080
	BYTE	W01
	BYTE	W03
	BYTE	W12
	BYTE	W06
	BYTE	W06
	BYTE	W03
	BYTE	W03
	BYTE	W03
	BYTE	W03
	BYTE	W03
	BYTE	W03
	BYTE	W02
	BYTE		        Gn3   v068
	BYTE		N48     Gn4   v080
	BYTE	W01
	BYTE	W03
	BYTE	W03
	BYTE	W03
	BYTE	W03
	BYTE	W03
	BYTE	W03
	BYTE	W03
	BYTE	W04
// 019   ----------------------------------------
	BYTE	W22
	BYTE		N24     Fn3   v068
	BYTE		N24     Fn4   v080
	BYTE	W04
	BYTE	W20
	BYTE		        Ds3   v068
	BYTE		N24     Ds4   v080
	BYTE	W07
	BYTE	W06
	BYTE	W06
	BYTE	W03
	BYTE	W02
	BYTE		        Dn3   v068
	BYTE		N24     Dn4   v080
	BYTE	W04
	BYTE	W03
	BYTE	W03
	BYTE	W03
	BYTE	W03
	BYTE	W03
	BYTE	W03
	BYTE	W02
	BYTE		N23     Cn3   v068
	BYTE		N23     Cn4   v080
	BYTE	W01
	BYTE	W01
// 020   ----------------------------------------
	BYTE	W02
	BYTE	W03
	BYTE	W03
	BYTE	W03
	BYTE	W03
	BYTE	W03
	BYTE	W03
	BYTE	W02
	BYTE		N48     As2   v068
	BYTE		N48     As3   v080
	BYTE	W04
	BYTE	W03
	BYTE	W18
	BYTE	W06
	BYTE	W06
	BYTE	W06
	BYTE	W03
	BYTE	W02
	BYTE		        Fn3   v068
	BYTE		N48     Fn4   v080
	BYTE	W04
	BYTE	W03
	BYTE	W03
	BYTE	W03
	BYTE	W03
	BYTE	W03
	BYTE	W03
	BYTE	W03
	BYTE	W01
// 021   ----------------------------------------
	BYTE	W02
	BYTE	W03
	BYTE	W03
	BYTE	W03
	BYTE	W03
	BYTE	W08
	BYTE		N24     Ds3   v068
	BYTE		N24     Ds4   v080
	BYTE	W13
	BYTE	W11
	BYTE		        Dn3   v068
	BYTE		N24     Dn4   v080
	BYTE	W16
	BYTE	W06
	BYTE	W02
	BYTE		        Ds3   v068
	BYTE		N24     Ds4   v080
	BYTE	W04
	BYTE	W03
	BYTE	W03
	BYTE	W06
	BYTE	W03
	BYTE	W03
	BYTE	W02
	BYTE		N23     Fn3   v068
	BYTE		N23     Fn4   v080
	BYTE	W01
	BYTE	W01
// 022   ----------------------------------------
	BYTE	W02
	BYTE	W03
	BYTE	W03
	BYTE	W03
	BYTE	W03
	BYTE	W03
	BYTE	W03
	BYTE	W02
	BYTE		N48     Gn3   v068
	BYTE		N48     Gn4   v080
	BYTE	W01
	BYTE	W03
	BYTE	W03
	BYTE	W03
	BYTE	W03
	BYTE	W32
	BYTE	W03
	BYTE		        Cn4   v068
	BYTE		N48     Cn5   v076
	BYTE	W24
	BYTE	W02
// 023   ----------------------------------------
	BYTE	W22
	BYTE		N80     Bn3   v044
	BYTE		N80     Bn4   v060
	BYTE	W01
	BYTE	W18
	BYTE	W06
	BYTE	W06
	BYTE	W06
	BYTE	W03
	BYTE	W03
	BYTE	W03
	BYTE	W03
	BYTE	W03
	BYTE	W03
	BYTE	W03
	BYTE	W03
	BYTE	W03
	BYTE	W10
// 024   ----------------------------------------
	BYTE	W10
	BYTE		N05     Dn3   v116
	BYTE		N07     Dn4   v112
	BYTE	W01
	BYTE	W03
	BYTE		N05     Ds3   v108
	BYTE		N07     Ds4   v104
	BYTE	W04
	BYTE		N05     Fn3   v108
	BYTE		N07     Fn4   v104
	BYTE	W04
	BYTE		TIE     Gn3   v096
	BYTE		TIE     Gn4   v076
	BYTE	W01
	BYTE	W42
	BYTE	W09
	BYTE	W06
	BYTE	W06
	BYTE	W06
	BYTE	W04
// 025   ----------------------------------------
	BYTE	W02
	BYTE	W06
	BYTE	W06
	BYTE	W03
	BYTE	W06
	BYTE	W03
	BYTE	W03
	BYTE	W06
	BYTE	W03
	BYTE	W03
	BYTE	W03
	BYTE	W03
	BYTE	W03
	BYTE	W03
	BYTE	W03
	BYTE	W09
	BYTE	W03
	BYTE	W02
	BYTE		EOT     Gn3 
	BYTE		        Gn4 
	BYTE		N48     Gs3   v096
	BYTE		N48     Gs4   v076
	BYTE	W07
	BYTE	W06
	BYTE	W03
	BYTE	W03
	BYTE	W03
	BYTE	W03
	BYTE	W01
// 026   ----------------------------------------
	BYTE	W02
	BYTE	W03
	BYTE	W03
	BYTE	W03
	BYTE	W03
	BYTE	W03
	BYTE	W03
	BYTE	W02
	BYTE		N96     As3   v096
	BYTE		N92     As4   v076
	BYTE	W68
	BYTE	W02
	BYTE	W04
// 027   ----------------------------------------
	BYTE	W08
	BYTE	W03
	BYTE	W03
	BYTE	W03
	BYTE	W03
	BYTE	W02
	BYTE		N24     Cn4   v096
	BYTE		N24     Cn5   v076
	BYTE	W01
	BYTE	W23
	BYTE		        As3   v096
	BYTE		N24     As4   v076
	BYTE	W24
	BYTE		        Gs3   v096
	BYTE		N24     Gs4   v076
	BYTE	W24
	BYTE		        Gn3   v096
	BYTE		N24     Gn4   v076
	BYTE	W02
// 028   ----------------------------------------
	BYTE	W22
	BYTE		N96     Fn3   v096
	BYTE		N92     Fn4   v076
	BYTE	W01
	BYTE	W30
	BYTE	W06
	BYTE	W03
	BYTE	W03
	BYTE	W03
	BYTE	W03
	BYTE	W03
	BYTE	W03
	BYTE	W03
	BYTE	W03
	BYTE	W03
	BYTE	W03
	BYTE	W03
	BYTE	W03
	BYTE	W01
// 029   ----------------------------------------
	BYTE	W05
	BYTE	W03
	BYTE	W03
	BYTE	W03
	BYTE	W03
	BYTE	W03
	BYTE	W02
	BYTE		N24     Ds3   v096
	BYTE		N24     Ds4   v076
	BYTE	W01
	BYTE	W03
	BYTE	W20
	BYTE		        Dn3   v096
	BYTE		N24     Dn4   v076
	BYTE	W24
	BYTE		        Cn3   v096
	BYTE		N24     Cn4   v076
	BYTE	W24
	BYTE		        As2   v096
	BYTE		N24     As3   v076
	BYTE	W02
// 030   ----------------------------------------
	BYTE	W22
	BYTE		N96     Cn3   v096
	BYTE		N96     Cn4   v080
	BYTE	W01
	BYTE	W09
	BYTE	W06
	BYTE	W06
	BYTE	W06
	BYTE	W09
	BYTE	W06
	BYTE	W06
	BYTE	W03
	BYTE	W03
	BYTE	W06
	BYTE	W06
	BYTE	W06
	BYTE	W01
// 031   ----------------------------------------
	BYTE	W05
	BYTE	W06
	BYTE	W03
	BYTE	W03
	BYTE	W03
	BYTE	W02
	BYTE		        Bn2   v096
	BYTE		N92     Bn3   v072
	BYTE	W01
	BYTE	W03
	BYTE	W03
	BYTE	W03
	BYTE	W03
	BYTE	W03
	BYTE	W03
	BYTE	W03
	BYTE	W03
	BYTE	W03
	BYTE	W03
	BYTE	W03
	BYTE	W03
	BYTE	W03
	BYTE	W03
	BYTE	W03
	BYTE	W03
	BYTE	W03
	BYTE	W03
	BYTE	W03
	BYTE	W03
	BYTE	W03
	BYTE	W03
	BYTE	W03
	BYTE	W03
	BYTE	W01
// 032   ----------------------------------------
	BYTE	W02
	BYTE	W03
	BYTE	W06
	BYTE	W06
	BYTE	W05
	BYTE		N96     Gn4   v088
	BYTE	W01
	BYTE	W72
	BYTE	W01
// 033   ----------------------------------------
	BYTE	W22
	BYTE		        Gs4 
	BYTE	W72
	BYTE	W02
// 034   ----------------------------------------
	BYTE	W22
	BYTE		N24     Fn4 
	BYTE	W24
	BYTE		        Ds4 
	BYTE	W24
	BYTE		        Dn4 
	BYTE	W24
	BYTE		        Cn4 
	BYTE	W02
// 035   ----------------------------------------
	BYTE	W22
	BYTE		N32     As3 
	BYTE	W36
	BYTE		N60     En4 
	BYTE	W36
	BYTE	W02
// 036   ----------------------------------------
WindOfLaGias_4_036:
	BYTE	W22
	BYTE		N96     Fn4   v088
	BYTE	W72
	BYTE	W02
	BYTE	PEND
// 037   ----------------------------------------
	BYTE	W22
	BYTE		N48     Gn4 
	BYTE	W48
	BYTE		        Dn4 
	BYTE	W24
	BYTE	W02
// 038   ----------------------------------------
	BYTE	W22
	BYTE		N96     Ds4 
	BYTE	W72
	BYTE	W02
// 039   ----------------------------------------
	BYTE	PATT
	 POIN2	WindOfLaGias_4_036
// 040   ----------------------------------------
	BYTE	W22
	BYTE		N48     Cn3   v104
	BYTE		N48     Cn4   v096
	BYTE	W01
	BYTE	W03
	BYTE	W03
	BYTE	W03
	BYTE	W03
	BYTE	W03
	BYTE	W03
	BYTE	W03
	BYTE	W03
	BYTE	W03
	BYTE	W03
	BYTE	W03
	BYTE	W03
	BYTE	W03
	BYTE	W03
	BYTE	W03
	BYTE	W02
	BYTE		        Gn3   v100
	BYTE		N48     Gn4   v096
	BYTE	W01
	BYTE	W24
	BYTE	W01
// 041   ----------------------------------------
	BYTE	PATT
	 POIN2	WindOfLaGias_4_001
// 042   ----------------------------------------
	BYTE	PATT
	 POIN2	WindOfLaGias_4_002
// 043   ----------------------------------------
	BYTE	PATT
	 POIN2	WindOfLaGias_4_003
// 044   ----------------------------------------
	BYTE	PATT
	 POIN2	WindOfLaGias_4_004
// 045   ----------------------------------------
	BYTE	PATT
	 POIN2	WindOfLaGias_4_005
// 046   ----------------------------------------
	BYTE	PATT
	 POIN2	WindOfLaGias_4_006
// 047   ----------------------------------------
	BYTE	PATT
	 POIN2	WindOfLaGias_4_007
// 048   ----------------------------------------
	BYTE	PATT
	 POIN2	WindOfLaGias_4_008
	BYTE	GoTo
	 POIN2	WindOfLaGias_4_B1
WindOfLaGias_4_B2:
	BYTE	W01
	BYTE	W03
	BYTE	W03
	BYTE	W05
	BYTE	FINE

//**************** Track 5 (Midi-Chn.6) ****************//

WindOfLaGias_5:
	BYTE	KEYSH   WindOfLaGias_key+0
// 000   ----------------------------------------
	BYTE		VOICE   49
	BYTE		VOL     26*WindOfLaGias_mvl/mxv
	BYTE		PAN     c_v-1
	BYTE	W04
	BYTE		MOD     0
	BYTE		BEND    c_v-1
	BYTE	W23
	BYTE		N48     Cn4   v096
	BYTE	W03
	BYTE	W09
	BYTE	W03
	BYTE	W03
	BYTE	W03
	BYTE	W03
	BYTE	W03
	BYTE	W03
	BYTE	W03
	BYTE	W03
	BYTE	W03
	BYTE	W03
	BYTE	W03
	BYTE	W02
	BYTE		        Gn4 
	BYTE	W22
// 001   ----------------------------------------
WindOfLaGias_5_001:
	BYTE	W24
	BYTE	W02
	BYTE		N24     Fn4   v096
	BYTE	W06
	BYTE	W06
	BYTE	W06
	BYTE	W06
	BYTE		        Ds4 
	BYTE	W06
	BYTE	W03
	BYTE	W06
	BYTE	W03
	BYTE	W03
	BYTE	W03
	BYTE		        Dn4 
	BYTE	W03
	BYTE	W03
	BYTE	W03
	BYTE	W03
	BYTE	W03
	BYTE	W03
	BYTE	W03
	BYTE	W01
	BYTE	PEND
// 002   ----------------------------------------
WindOfLaGias_5_002:
	BYTE	W02
	BYTE		N23     Cn4   v096
	BYTE	W03
	BYTE	W03
	BYTE	W03
	BYTE	W03
	BYTE	W03
	BYTE	W03
	BYTE	W03
	BYTE	W03
	BYTE		N48   
	BYTE	W03
	BYTE	W12
	BYTE	W06
	BYTE	W06
	BYTE	W03
	BYTE	W03
	BYTE	W03
	BYTE	W03
	BYTE	W03
	BYTE	W03
	BYTE	W03
	BYTE		        Gn4 
	BYTE	W03
	BYTE	W03
	BYTE	W03
	BYTE	W03
	BYTE	W03
	BYTE	W03
	BYTE	W03
	BYTE	W01
	BYTE	PEND
// 003   ----------------------------------------
WindOfLaGias_5_003:
	BYTE	W24
	BYTE	W02
	BYTE		N24     Fn4   v096
	BYTE	W03
	BYTE	W21
	BYTE		        Ds4 
	BYTE	W06
	BYTE	W06
	BYTE	W06
	BYTE	W03
	BYTE	W03
	BYTE		        Dn4 
	BYTE	W03
	BYTE	W03
	BYTE	W03
	BYTE	W03
	BYTE	W03
	BYTE	W03
	BYTE	W03
	BYTE	W01
	BYTE	PEND
// 004   ----------------------------------------
WindOfLaGias_5_004:
	BYTE	W02
	BYTE		N23     Cn4   v096
	BYTE	W03
	BYTE	W03
	BYTE	W03
	BYTE	W03
	BYTE	W03
	BYTE	W03
	BYTE	W03
	BYTE	W03
	BYTE		N48     As3 
	BYTE	W03
	BYTE	W03
	BYTE	W18
	BYTE	W06
	BYTE	W06
	BYTE	W06
	BYTE	W03
	BYTE	W02
	BYTE		        Fn4 
	BYTE	W04
	BYTE	W03
	BYTE	W03
	BYTE	W03
	BYTE	W03
	BYTE	W03
	BYTE	W03
	BYTE	W01
	BYTE	PEND
// 005   ----------------------------------------
WindOfLaGias_5_005:
	BYTE	W02
	BYTE	W03
	BYTE	W03
	BYTE	W03
	BYTE	W03
	BYTE	W03
	BYTE	W08
	BYTE		N24     Ds4   v096
	BYTE	W13
	BYTE	W11
	BYTE		        Dn4 
	BYTE	W16
	BYTE	W06
	BYTE	W02
	BYTE		        Ds4 
	BYTE	W04
	BYTE	W03
	BYTE	W03
	BYTE	W06
	BYTE	W03
	BYTE	W03
	BYTE	W01
	BYTE	PEND
// 006   ----------------------------------------
WindOfLaGias_5_006:
	BYTE	W01
	BYTE		N22     Fn4   v096
	BYTE	W01
	BYTE	W03
	BYTE	W03
	BYTE	W03
	BYTE	W03
	BYTE	W03
	BYTE	W03
	BYTE	W03
	BYTE	W02
	BYTE		N48     Gn4 
	BYTE	W01
	BYTE	W24
	BYTE	W03
	BYTE	W20
	BYTE		N12     Cn4 
	BYTE	W12
	BYTE		        Dn4   v088
	BYTE	W11
	BYTE	PEND
// 007   ----------------------------------------
WindOfLaGias_5_007:
	BYTE	W01
	BYTE		N11     Ds4   v088
	BYTE	W12
	BYTE		N36     Fn4   v096
	BYTE	W30
	BYTE	W01
	BYTE	W05
	BYTE		N24     Ds4   v088
	BYTE	W13
	BYTE	W06
	BYTE	W05
	BYTE		        Dn4 
	BYTE	W01
	BYTE	W06
	BYTE	W03
	BYTE	W03
	BYTE	W03
	BYTE	W03
	BYTE	W03
	BYTE	W01
	BYTE	PEND
// 008   ----------------------------------------
	BYTE	W01
	BYTE		        Cn4 
	BYTE	W01
	BYTE	W03
	BYTE	W03
	BYTE	W03
	BYTE	W02
WindOfLaGias_5_B1:
	BYTE	W01
	BYTE	W03
	BYTE	W03
	BYTE	W03
	BYTE	W03
	BYTE	W01
	BYTE		N48     Cn4   v100
	BYTE	W05
	BYTE	W03
	BYTE	W03
	BYTE	W03
	BYTE	W03
	BYTE	W03
	BYTE	W03
	BYTE	W03
	BYTE	W03
	BYTE	W03
	BYTE	W03
	BYTE	W03
	BYTE	W03
	BYTE	W03
	BYTE	W03
	BYTE		        Gn4   v096
	BYTE	W22
// 009   ----------------------------------------
	BYTE	PATT
	 POIN2	WindOfLaGias_5_001
// 010   ----------------------------------------
	BYTE	W02
	BYTE		N23     Cn4   v088
	BYTE	W03
	BYTE	W03
	BYTE	W03
	BYTE	W03
	BYTE	W03
	BYTE	W03
	BYTE	W03
	BYTE	W03
	BYTE		N48     Cn4   v100
	BYTE	W06
	BYTE	W03
	BYTE	W06
	BYTE	W06
	BYTE	W06
	BYTE	W03
	BYTE	W03
	BYTE	W03
	BYTE	W03
	BYTE	W03
	BYTE	W03
	BYTE	W03
	BYTE		        Gn4   v096
	BYTE	W03
	BYTE	W03
	BYTE	W03
	BYTE	W03
	BYTE	W03
	BYTE	W03
	BYTE	W03
	BYTE	W01
// 011   ----------------------------------------
	BYTE	PATT
	 POIN2	WindOfLaGias_5_003
// 012   ----------------------------------------
	BYTE	PATT
	 POIN2	WindOfLaGias_5_004
// 013   ----------------------------------------
	BYTE	PATT
	 POIN2	WindOfLaGias_5_005
// 014   ----------------------------------------
	BYTE	W01
	BYTE		N23     Fn4   v096
	BYTE	W01
	BYTE	W03
	BYTE	W03
	BYTE	W03
	BYTE	W03
	BYTE	W03
	BYTE	W03
	BYTE	W01
	BYTE		N48     Ds3   v112
	BYTE	W02
	BYTE	W02
	BYTE		        Gn4   v100
	BYTE	W01
	BYTE	W24
	BYTE	W03
	BYTE	W16
	BYTE		N12     Gn2   v112
	BYTE	W04
	BYTE		        Cn4   v100
	BYTE	W08
	BYTE		        As2   v108
	BYTE	W04
	BYTE		        Dn4   v092
	BYTE	W08
	BYTE		N11     Cn3   v108
	BYTE	W03
// 015   ----------------------------------------
	BYTE	W01
	BYTE		        Ds4   v092
	BYTE	W08
	BYTE		N36     Fn3   v112
	BYTE	W04
	BYTE		        Gs4   v100
	BYTE	W30
	BYTE	W01
	BYTE	W01
	BYTE		N24     Ds3   v112
	BYTE	W04
	BYTE		        Gn4   v096
	BYTE	W13
	BYTE	W06
	BYTE	W01
	BYTE		        Dn3   v112
	BYTE	W04
	BYTE		        Fn4   v088
	BYTE	W01
	BYTE	W06
	BYTE	W03
	BYTE	W03
	BYTE	W03
	BYTE	W03
	BYTE	W01
	BYTE		        Cn3   v108
	BYTE	W02
	BYTE	W01
// 016   ----------------------------------------
	BYTE	W01
	BYTE		N23     Gn4   v084
	BYTE	W01
	BYTE	W03
	BYTE	W03
	BYTE	W03
	BYTE	W03
	BYTE	W03
	BYTE	W03
	BYTE	W03
	BYTE	W03
	BYTE		N48     Cn4   v080
	BYTE	W03
	BYTE	W09
	BYTE	W03
	BYTE	W03
	BYTE	W03
	BYTE	W03
	BYTE	W03
	BYTE	W03
	BYTE	W03
	BYTE	W03
	BYTE	W03
	BYTE	W03
	BYTE	W03
	BYTE	W03
	BYTE		        Gn4 
	BYTE	W22
// 017   ----------------------------------------
	BYTE	W24
	BYTE	W02
	BYTE		N24     Fn4 
	BYTE	W06
	BYTE	W06
	BYTE	W06
	BYTE	W06
	BYTE		        Ds4 
	BYTE	W06
	BYTE	W03
	BYTE	W06
	BYTE	W03
	BYTE	W03
	BYTE	W03
	BYTE		        Dn4 
	BYTE	W03
	BYTE	W03
	BYTE	W03
	BYTE	W03
	BYTE	W03
	BYTE	W03
	BYTE	W03
	BYTE	W01
// 018   ----------------------------------------
	BYTE	W02
	BYTE		N23     Cn4 
	BYTE	W03
	BYTE	W03
	BYTE	W03
	BYTE	W03
	BYTE	W03
	BYTE	W03
	BYTE	W03
	BYTE	W03
	BYTE		N48   
	BYTE	W03
	BYTE	W12
	BYTE	W06
	BYTE	W06
	BYTE	W03
	BYTE	W03
	BYTE	W03
	BYTE	W03
	BYTE	W03
	BYTE	W03
	BYTE	W03
	BYTE		        Gn4 
	BYTE	W03
	BYTE	W03
	BYTE	W03
	BYTE	W03
	BYTE	W03
	BYTE	W03
	BYTE	W03
	BYTE	W01
// 019   ----------------------------------------
	BYTE	W24
	BYTE	W02
	BYTE		N24     Fn4 
	BYTE	W03
	BYTE	W21
	BYTE		        Ds4 
	BYTE	W06
	BYTE	W06
	BYTE	W06
	BYTE	W03
	BYTE	W03
	BYTE		        Dn4 
	BYTE	W03
	BYTE	W03
	BYTE	W03
	BYTE	W03
	BYTE	W03
	BYTE	W03
	BYTE	W03
	BYTE	W01
// 020   ----------------------------------------
	BYTE	W02
	BYTE		N23     Cn4 
	BYTE	W03
	BYTE	W03
	BYTE	W03
	BYTE	W03
	BYTE	W03
	BYTE	W03
	BYTE	W03
	BYTE	W03
	BYTE		N48     As3 
	BYTE	W03
	BYTE	W03
	BYTE	W18
	BYTE	W06
	BYTE	W06
	BYTE	W06
	BYTE	W03
	BYTE	W03
	BYTE		        Fn4 
	BYTE	W03
	BYTE	W03
	BYTE	W03
	BYTE	W03
	BYTE	W03
	BYTE	W03
	BYTE	W03
	BYTE	W01
// 021   ----------------------------------------
	BYTE	W02
	BYTE	W03
	BYTE	W03
	BYTE	W03
	BYTE	W03
	BYTE	W03
	BYTE	W09
	BYTE		N24     Ds4 
	BYTE	W12
	BYTE	W12
	BYTE		        Dn4 
	BYTE	W15
	BYTE	W06
	BYTE	W03
	BYTE		        Ds4 
	BYTE	W03
	BYTE	W03
	BYTE	W03
	BYTE	W06
	BYTE	W03
	BYTE	W03
	BYTE	W01
// 022   ----------------------------------------
	BYTE	W02
	BYTE		N23     Fn4 
	BYTE	W03
	BYTE	W03
	BYTE	W03
	BYTE	W03
	BYTE	W03
	BYTE	W03
	BYTE	W03
	BYTE	W03
	BYTE		N48     Gn4 
	BYTE	W03
	BYTE	W03
	BYTE	W03
	BYTE	W03
	BYTE	W36
	BYTE		        Cn5   v076
	BYTE	W22
// 023   ----------------------------------------
	BYTE	W24
	BYTE	W02
	BYTE		N80     Bn4   v060
	BYTE	W18
	BYTE	W06
	BYTE	W06
	BYTE	W06
	BYTE	W03
	BYTE	W03
	BYTE	W03
	BYTE	W03
	BYTE	W03
	BYTE	W03
	BYTE	W03
	BYTE	W03
	BYTE	W03
	BYTE	W07
// 024   ----------------------------------------
	BYTE	W14
	BYTE		N07     Dn4   v112
	BYTE	W04
	BYTE		        Ds4   v104
	BYTE	W04
	BYTE		        Fn4 
	BYTE	W04
	BYTE		TIE     Gn4   v076
	BYTE	W42
	BYTE	W09
	BYTE	W06
	BYTE	W06
	BYTE	W06
	BYTE	W01
// 025   ----------------------------------------
	BYTE	W05
	BYTE	W06
	BYTE	W06
	BYTE	W03
	BYTE	W06
	BYTE	W03
	BYTE	W03
	BYTE	W06
	BYTE	W03
	BYTE	W03
	BYTE	W03
	BYTE	W03
	BYTE	W03
	BYTE	W03
	BYTE	W03
	BYTE	W09
	BYTE	W03
	BYTE	W03
	BYTE		EOT   
	BYTE		N48     Gs4 
	BYTE	W06
	BYTE	W06
	BYTE	W03
	BYTE	W03
	BYTE	W03
	BYTE	W01
// 026   ----------------------------------------
	BYTE	W02
	BYTE	W03
	BYTE	W03
	BYTE	W03
	BYTE	W03
	BYTE	W03
	BYTE	W03
	BYTE	W03
	BYTE	W03
	BYTE		N92     As4 
	BYTE	W68
	BYTE	W01
	BYTE	W01
// 027   ----------------------------------------
	BYTE	W11
	BYTE	W03
	BYTE	W03
	BYTE	W03
	BYTE	W03
	BYTE	W03
	BYTE		N24     Cn5 
	BYTE	W24
	BYTE		        As4 
	BYTE	W24
	BYTE		        Gs4 
	BYTE	W22
// 028   ----------------------------------------
	BYTE	W02
	BYTE		        Gn4 
	BYTE	W24
	BYTE		N92     Fn4 
	BYTE	W30
	BYTE	W06
	BYTE	W03
	BYTE	W03
	BYTE	W03
	BYTE	W03
	BYTE	W03
	BYTE	W03
	BYTE	W03
	BYTE	W03
	BYTE	W03
	BYTE	W03
	BYTE	W03
	BYTE	W01
// 029   ----------------------------------------
	BYTE	W02
	BYTE	W06
	BYTE	W03
	BYTE	W03
	BYTE	W03
	BYTE	W03
	BYTE	W03
	BYTE	W03
	BYTE		N24     Ds4 
	BYTE	W03
	BYTE	W21
	BYTE		        Dn4 
	BYTE	W24
	BYTE		        Cn4 
	BYTE	W22
// 030   ----------------------------------------
	BYTE	W02
	BYTE		        As3 
	BYTE	W24
	BYTE		N96     Cn4   v080
	BYTE	W09
	BYTE	W06
	BYTE	W06
	BYTE	W06
	BYTE	W09
	BYTE	W06
	BYTE	W06
	BYTE	W03
	BYTE	W03
	BYTE	W06
	BYTE	W06
	BYTE	W04
// 031   ----------------------------------------
	BYTE	W02
	BYTE	W06
	BYTE	W06
	BYTE	W03
	BYTE	W03
	BYTE	W03
	BYTE	W03
	BYTE		N92     Bn3   v072
	BYTE	W03
	BYTE	W03
	BYTE	W03
	BYTE	W03
	BYTE	W03
	BYTE	W03
	BYTE	W03
	BYTE	W03
	BYTE	W03
	BYTE	W03
	BYTE	W03
	BYTE	W03
	BYTE	W03
	BYTE	W03
	BYTE	W03
	BYTE	W03
	BYTE	W03
	BYTE	W03
	BYTE	W03
	BYTE	W03
	BYTE	W03
	BYTE	W03
	BYTE	W03
	BYTE	W01
// 032   ----------------------------------------
	BYTE	W02
	BYTE	W03
	BYTE	W03
	BYTE	W06
	BYTE	W06
	BYTE	W06
	BYTE		N96     Gn4   v088
	BYTE	W68
	BYTE	W02
// 033   ----------------------------------------
	BYTE	W24
	BYTE	W02
	BYTE		        Gs4 
	BYTE	W68
	BYTE	W02
// 034   ----------------------------------------
	BYTE	W24
	BYTE	W02
	BYTE		N24     Fn4 
	BYTE	W24
	BYTE		        Ds4 
	BYTE	W24
	BYTE		        Dn4 
	BYTE	W22
// 035   ----------------------------------------
	BYTE	W02
	BYTE		        Cn4 
	BYTE	W24
	BYTE		N32     As3 
	BYTE	W36
	BYTE		N60     En4 
	BYTE	W32
	BYTE	W02
// 036   ----------------------------------------
WindOfLaGias_5_036:
	BYTE	W24
	BYTE	W02
	BYTE		N96     Fn4   v088
	BYTE	W68
	BYTE	W02
	BYTE	PEND
// 037   ----------------------------------------
	BYTE	W24
	BYTE	W02
	BYTE		N48     Gn4 
	BYTE	W48
	BYTE		        Dn4 
	BYTE	W22
// 038   ----------------------------------------
	BYTE	W24
	BYTE	W02
	BYTE		N96     Ds4 
	BYTE	W68
	BYTE	W02
// 039   ----------------------------------------
	BYTE	PATT
	 POIN2	WindOfLaGias_5_036
// 040   ----------------------------------------
	BYTE	W24
	BYTE	W02
	BYTE		N48     Cn4   v096
	BYTE	W03
	BYTE	W09
	BYTE	W03
	BYTE	W03
	BYTE	W03
	BYTE	W03
	BYTE	W03
	BYTE	W03
	BYTE	W03
	BYTE	W03
	BYTE	W03
	BYTE	W03
	BYTE	W03
	BYTE	W03
	BYTE		        Gn4 
	BYTE	W22
// 041   ----------------------------------------
	BYTE	PATT
	 POIN2	WindOfLaGias_5_001
// 042   ----------------------------------------
	BYTE	PATT
	 POIN2	WindOfLaGias_5_002
// 043   ----------------------------------------
	BYTE	PATT
	 POIN2	WindOfLaGias_5_003
// 044   ----------------------------------------
	BYTE	PATT
	 POIN2	WindOfLaGias_5_004
// 045   ----------------------------------------
	BYTE	PATT
	 POIN2	WindOfLaGias_5_005
// 046   ----------------------------------------
	BYTE	PATT
	 POIN2	WindOfLaGias_5_006
// 047   ----------------------------------------
	BYTE	PATT
	 POIN2	WindOfLaGias_5_007
// 048   ----------------------------------------
	BYTE	W01
	BYTE		N23     Cn4   v088
	BYTE	W01
	BYTE	W03
	BYTE	W03
	BYTE	W03
	BYTE	W02
	BYTE	GoTo
	 POIN2	WindOfLaGias_5_B1
WindOfLaGias_5_B2:
	BYTE	W01
	BYTE	W03
	BYTE	W03
	BYTE	W03
	BYTE	W02
	BYTE	FINE

//**************** Track 6 (Midi-Chn.7) ****************//

WindOfLaGias_6:
	BYTE	KEYSH   WindOfLaGias_key+0
// 000   ----------------------------------------
	BYTE		VOICE   48
	BYTE		VOL     29*WindOfLaGias_mvl/mxv
	BYTE		PAN     c_v+0
	BYTE	W05
	BYTE		MOD     0
	BYTE		BEND    c_v-1
	BYTE	W20
	BYTE		TIE     Cn2   v052
	BYTE	W68
	BYTE	W03
// 001   ----------------------------------------
	BYTE	W96
// 002   ----------------------------------------
WindOfLaGias_6_002:
	BYTE	W23
	BYTE		TIE     Gs1   v052
	BYTE	W01
	BYTE	PEND
	BYTE		EOT     Cn2 
	BYTE	W72
// 003   ----------------------------------------
	BYTE	W96
// 004   ----------------------------------------
	BYTE	W22
	BYTE		        Gs1 
	BYTE	W01
	BYTE		TIE     As1 
	BYTE	W72
	BYTE	W01
// 005   ----------------------------------------
	BYTE	W96
// 006   ----------------------------------------
	BYTE	W22
	BYTE		EOT   
	BYTE	W01
	BYTE		N92     Cn2 
	BYTE	W72
	BYTE	W01
// 007   ----------------------------------------
	BYTE	W96
// 008   ----------------------------------------
	BYTE	W13
WindOfLaGias_6_B1:
	BYTE	W12
	BYTE		TIE     Cn2   v052
	BYTE	W68
	BYTE	W03
// 009   ----------------------------------------
	BYTE	W96
// 010   ----------------------------------------
	BYTE	PATT
	 POIN2	WindOfLaGias_6_002
	BYTE		EOT     Cn2 
	BYTE	W72
// 011   ----------------------------------------
	BYTE	W96
// 012   ----------------------------------------
	BYTE	W22
	BYTE		        Gs1 
	BYTE	W01
	BYTE		TIE     As1   v052
	BYTE	W72
	BYTE	W01
// 013   ----------------------------------------
	BYTE	W96
// 014   ----------------------------------------
	BYTE	W22
	BYTE		EOT   
	BYTE	W01
	BYTE		N92     Cn2 
	BYTE	W01
	BYTE		N48     Ds3   v112
	BYTE	W48
	BYTE		N12     Gn2 
	BYTE	W12
	BYTE		        As2   v108
	BYTE	W12
// 015   ----------------------------------------
	BYTE		N11     Cn3 
	BYTE	W12
	BYTE		N36     Fn3   v112
	BYTE	W36
	BYTE		N24     Ds3 
	BYTE	W24
	BYTE		        Dn3 
	BYTE	W24
// 016   ----------------------------------------
	BYTE		        Cn3   v108
	BYTE	W96
// 017   ----------------------------------------
	BYTE	W96
// 018   ----------------------------------------
	BYTE	W96
// 019   ----------------------------------------
	BYTE	W96
// 020   ----------------------------------------
	BYTE	W96
// 021   ----------------------------------------
	BYTE	W96
// 022   ----------------------------------------
WindOfLaGias_6_022:
	BYTE	W23
	BYTE		N92     Dn3   v080
	BYTE	W72
	BYTE	W01
	BYTE	PEND
// 023   ----------------------------------------
	BYTE	W24
	BYTE	W01
	BYTE		N11     Gn3   v116
	BYTE	W12
	BYTE		        Fn3 
	BYTE	W12
	BYTE		        Ds3 
	BYTE	W12
	BYTE		        Dn3 
	BYTE	W12
	BYTE		        Cn3 
	BYTE	W12
	BYTE		        Bn2 
	BYTE	W11
// 024   ----------------------------------------
	BYTE	W01
	BYTE		        Gs2 
	BYTE	W12
	BYTE		        Gn2   v088
	BYTE	W80
	BYTE	W03
// 025   ----------------------------------------
	BYTE	W96
// 026   ----------------------------------------
	BYTE	W96
// 027   ----------------------------------------
	BYTE	W96
// 028   ----------------------------------------
	BYTE	W96
// 029   ----------------------------------------
	BYTE	W96
// 030   ----------------------------------------
	BYTE	PATT
	 POIN2	WindOfLaGias_6_022
// 031   ----------------------------------------
	BYTE	W24
	BYTE	W01
	BYTE		N44     Gn3   v116
	BYTE	W48
	BYTE		N11     Fn3 
	BYTE	W12
	BYTE		        Ds3   v104
	BYTE	W11
// 032   ----------------------------------------
	BYTE	W01
	BYTE		N17     Dn3   v072
	BYTE	W22
	BYTE		N92     Cn3   v080
	BYTE		N92     Ds3   v100
	BYTE	W72
	BYTE	W01
// 033   ----------------------------------------
WindOfLaGias_6_033:
	BYTE	W23
	BYTE		N92     Cn3   v080
	BYTE		N92     Ds3   v100
	BYTE	W72
	BYTE	W01
	BYTE	PEND
// 034   ----------------------------------------
	BYTE	W23
	BYTE		        As2   v080
	BYTE		N44     Dn3   v100
	BYTE	W72
	BYTE	W01
// 035   ----------------------------------------
	BYTE	W23
	BYTE		N32     As2   v080
	BYTE		N32     Ds3   v100
	BYTE	W36
	BYTE		N56     Cn3   v080
	BYTE		N56     En3   v100
	BYTE	W36
	BYTE	W01
// 036   ----------------------------------------
	BYTE	PATT
	 POIN2	WindOfLaGias_6_033
// 037   ----------------------------------------
	BYTE	W23
	BYTE		N92     As2   v080
	BYTE		N32     Dn3   v100
	BYTE	W36
	BYTE		        Ds3 
	BYTE	W36
	BYTE		N23     Fn3 
	BYTE	W01
// 038   ----------------------------------------
	BYTE	W23
	BYTE		N92     Ds3   v080
	BYTE		N92     Gn3   v100
	BYTE	W72
	BYTE	W01
// 039   ----------------------------------------
	BYTE	W23
	BYTE		        Dn3   v080
	BYTE		N92     Fn3   v100
	BYTE	W72
	BYTE	W01
// 040   ----------------------------------------
	BYTE	W23
	BYTE		TIE     Cn2   v064
	BYTE	W72
	BYTE	W01
// 041   ----------------------------------------
	BYTE	W96
// 042   ----------------------------------------
	BYTE	W22
	BYTE		EOT   
	BYTE	W01
	BYTE		TIE     Gs1 
	BYTE	W72
	BYTE	W01
// 043   ----------------------------------------
	BYTE	W96
// 044   ----------------------------------------
	BYTE	W22
	BYTE		EOT   
	BYTE	W01
	BYTE		TIE     As1 
	BYTE	W72
	BYTE	W01
// 045   ----------------------------------------
	BYTE	W96
// 046   ----------------------------------------
	BYTE	W22
	BYTE		EOT   
	BYTE	W01
	BYTE		TIE     Cn2 
	BYTE	W72
	BYTE	W01
// 047   ----------------------------------------
	BYTE	W96
// 048   ----------------------------------------
	BYTE	W13
	BYTE	GoTo
	 POIN2	WindOfLaGias_6_B1
WindOfLaGias_6_B2:
	BYTE	W11
	BYTE		EOT     Cn2 
	BYTE	W01
	BYTE	FINE

//**************** Track 7 (Midi-Chn.12) ****************//

WindOfLaGias_7:
	BYTE	KEYSH   WindOfLaGias_key+0
// 000   ----------------------------------------
	BYTE		VOICE   34
	BYTE		VOL     16*WindOfLaGias_mvl/mxv
	BYTE	W08
	BYTE		MOD     0
	BYTE		PAN     c_v+0
	BYTE		BEND    c_v+0
	BYTE	W18
	BYTE		PAN     c_v-32
	BYTE		BEND    c_v+0
	BYTE		N11     Cn2   v080
	BYTE	W12
	BYTE		N11   
	BYTE	W12
	BYTE		N11   
	BYTE	W12
	BYTE		N11   
	BYTE	W12
	BYTE		N11   
	BYTE	W12
	BYTE		N11   
	BYTE	W10
// 001   ----------------------------------------
	BYTE	W02
	BYTE		N11   
	BYTE	W12
	BYTE		N11   
	BYTE	W12
	BYTE		N11   
	BYTE	W12
	BYTE		N11   
	BYTE	W12
	BYTE		N11   
	BYTE	W12
	BYTE		N11   
	BYTE	W12
	BYTE		N11   
	BYTE	W12
	BYTE		N11   
	BYTE	W10
// 002   ----------------------------------------
WindOfLaGias_7_002:
	BYTE	W02
	BYTE		N11     Cn2   v080
	BYTE	W12
	BYTE		N11   
	BYTE	W12
	BYTE		        Gs1   v072
	BYTE	W12
	BYTE		N11   
	BYTE	W12
	BYTE		N11   
	BYTE	W12
	BYTE		N11   
	BYTE	W12
	BYTE		N11   
	BYTE	W12
	BYTE		N11   
	BYTE	W10
	BYTE	PEND
// 003   ----------------------------------------
WindOfLaGias_7_003:
	BYTE	W02
	BYTE		N11     Gs1   v072
	BYTE	W12
	BYTE		N11   
	BYTE	W12
	BYTE		N11   
	BYTE	W12
	BYTE		N11   
	BYTE	W12
	BYTE		N11   
	BYTE	W12
	BYTE		N11   
	BYTE	W12
	BYTE		N11   
	BYTE	W12
	BYTE		N11   
	BYTE	W10
	BYTE	PEND
// 004   ----------------------------------------
WindOfLaGias_7_004:
	BYTE	W02
	BYTE		N11     Gs1   v072
	BYTE	W12
	BYTE		N11   
	BYTE	W12
	BYTE		        As1   v080
	BYTE	W12
	BYTE		N11   
	BYTE	W12
	BYTE		N11   
	BYTE	W12
	BYTE		N11   
	BYTE	W12
	BYTE		N11   
	BYTE	W12
	BYTE		N11   
	BYTE	W10
	BYTE	PEND
// 005   ----------------------------------------
WindOfLaGias_7_005:
	BYTE	W02
	BYTE		N11     As1   v080
	BYTE	W12
	BYTE		N11   
	BYTE	W12
	BYTE		N11   
	BYTE	W12
	BYTE		N11   
	BYTE	W12
	BYTE		N11   
	BYTE	W12
	BYTE		N11   
	BYTE	W12
	BYTE		N11   
	BYTE	W12
	BYTE		N11   
	BYTE	W10
	BYTE	PEND
// 006   ----------------------------------------
WindOfLaGias_7_006:
	BYTE	W02
	BYTE		N11     As1   v080
	BYTE	W12
	BYTE		N11   
	BYTE	W12
	BYTE		PAN     c_v-32
	BYTE		N11     Cn2 
	BYTE	W01
	BYTE		        Cn4 
	BYTE	W11
	BYTE		N09     Cn2   v072
	BYTE	W01
	BYTE		        Cn4 
	BYTE	W11
	BYTE		N11     Cn2   v104
	BYTE	W01
	BYTE		        Cn4 
	BYTE	W11
	BYTE		N09     Cn2   v072
	BYTE	W01
	BYTE		        Cn4 
	BYTE	W11
	BYTE		N11     Cn2   v080
	BYTE	W01
	BYTE		        Cn4 
	BYTE	W11
	BYTE		N09     Cn2   v072
	BYTE	W01
	BYTE		        Cn4 
	BYTE	W09
	BYTE	PEND
// 007   ----------------------------------------
	BYTE	W02
	BYTE		N11     Cn2   v104
	BYTE	W01
	BYTE		        Cn4 
	BYTE	W11
	BYTE		N09     Cn2   v072
	BYTE	W01
	BYTE		        Cn4 
	BYTE	W11
	BYTE		PAN     c_v+0
	BYTE		N11     Cn2   v124
	BYTE	W12
	BYTE		N11   
	BYTE	W12
	BYTE		        Ds2 
	BYTE	W12
	BYTE		        Cn2 
	BYTE	W12
	BYTE		        Gn2 
	BYTE	W12
	BYTE		        Cn2 
	BYTE	W10
// 008   ----------------------------------------
	BYTE	W02
	BYTE		        As1 
	BYTE	W11
WindOfLaGias_7_B1:
	BYTE	W01
	BYTE		N11     Cn2   v124
	BYTE	W12
	BYTE		PAN     c_v+32
	BYTE		BEND    c_v+0
	BYTE		N11     Cn4   v096
	BYTE	W01
	BYTE		        Cn2 
	BYTE	W11
	BYTE		        Cn4 
	BYTE	W01
	BYTE		        Cn2 
	BYTE	W11
	BYTE		        Cn4   v116
	BYTE	W01
	BYTE		        Cn2 
	BYTE	W11
	BYTE		        Cn4   v096
	BYTE	W01
	BYTE		        Cn2 
	BYTE	W11
	BYTE		        Cn4 
	BYTE	W01
	BYTE		        Cn2 
	BYTE	W11
	BYTE		        Cn4   v116
	BYTE	W01
	BYTE		        Cn2 
	BYTE	W09
// 009   ----------------------------------------
	BYTE	W02
	BYTE		        Cn4   v096
	BYTE	W01
	BYTE		        Cn2 
	BYTE	W11
	BYTE		        Cn4 
	BYTE	W01
	BYTE		        Cn2 
	BYTE	W11
	BYTE		        Cn4   v116
	BYTE	W01
	BYTE		        Cn2 
	BYTE	W11
	BYTE		        Cn4   v096
	BYTE	W01
	BYTE		        Cn2 
	BYTE	W11
	BYTE		        Cn4 
	BYTE	W01
	BYTE		        Cn2 
	BYTE	W11
	BYTE		N23     Cn4   v116
	BYTE	W01
	BYTE		        Cn2 
	BYTE	W23
	BYTE		N11     Cn4   v096
	BYTE	W01
	BYTE		        Cn2 
	BYTE	W09
// 010   ----------------------------------------
	BYTE	W02
	BYTE		N23     Cn4   v116
	BYTE	W01
	BYTE		        Cn2 
	BYTE	W23
	BYTE		N11     Gs3   v096
	BYTE	W01
	BYTE		        Gs1 
	BYTE	W11
	BYTE		        Gs3 
	BYTE	W01
	BYTE		        Gs1 
	BYTE	W11
	BYTE		        Gs3   v116
	BYTE	W01
	BYTE		        Gs1 
	BYTE	W11
	BYTE		        Gs3   v096
	BYTE	W01
	BYTE		        Gs1 
	BYTE	W11
	BYTE		        Gs3 
	BYTE	W01
	BYTE		        Gs1 
	BYTE	W11
	BYTE		        Gs3   v116
	BYTE	W01
	BYTE		        Gs1 
	BYTE	W09
// 011   ----------------------------------------
	BYTE	W02
	BYTE		        Gs3   v096
	BYTE	W01
	BYTE		        Gs1 
	BYTE	W11
	BYTE		        Gs3 
	BYTE	W01
	BYTE		        Gs1 
	BYTE	W11
	BYTE		        Gs3   v116
	BYTE	W01
	BYTE		        Gs1 
	BYTE	W11
	BYTE		        Gs3   v096
	BYTE	W01
	BYTE		        Gs1 
	BYTE	W11
	BYTE		        Gs3 
	BYTE	W01
	BYTE		        Gs1 
	BYTE	W11
	BYTE		N23     Gs3   v116
	BYTE	W01
	BYTE		        Gs1 
	BYTE	W23
	BYTE		N11     Gs3   v096
	BYTE	W01
	BYTE		        Gs1 
	BYTE	W09
// 012   ----------------------------------------
	BYTE	W02
	BYTE		        Gs3   v116
	BYTE	W01
	BYTE		        Gs1 
	BYTE	W11
	BYTE		        Gs3   v096
	BYTE	W01
	BYTE		        Gs1 
	BYTE	W11
	BYTE		        As3 
	BYTE	W01
	BYTE		        As1 
	BYTE	W11
	BYTE		        As3 
	BYTE	W01
	BYTE		        As1 
	BYTE	W11
	BYTE		        As3   v116
	BYTE	W01
	BYTE		        As1 
	BYTE	W11
	BYTE		        As3   v096
	BYTE	W01
	BYTE		        As1 
	BYTE	W11
	BYTE		        As3 
	BYTE	W01
	BYTE		        As1 
	BYTE	W11
	BYTE		        As3   v116
	BYTE	W01
	BYTE		        As1 
	BYTE	W09
// 013   ----------------------------------------
	BYTE	W02
	BYTE		        As3   v096
	BYTE	W01
	BYTE		        As1 
	BYTE	W11
	BYTE		        As3 
	BYTE	W01
	BYTE		        As1 
	BYTE	W11
	BYTE		        As3   v116
	BYTE	W01
	BYTE		        As1 
	BYTE	W11
	BYTE		        As3   v096
	BYTE	W01
	BYTE		        As1 
	BYTE	W11
	BYTE		        As3 
	BYTE	W01
	BYTE		        As1 
	BYTE	W11
	BYTE		N23     As3   v116
	BYTE	W01
	BYTE		        As1 
	BYTE	W23
	BYTE		N11     As3   v096
	BYTE	W01
	BYTE		        As1 
	BYTE	W09
// 014   ----------------------------------------
	BYTE	W02
	BYTE		        As3   v116
	BYTE	W01
	BYTE		        As1 
	BYTE	W11
	BYTE		        As3   v096
	BYTE	W01
	BYTE		        As1 
	BYTE	W11
	BYTE		        Cn4 
	BYTE	W01
	BYTE		        Cn2 
	BYTE	W11
	BYTE		        Cn4 
	BYTE	W01
	BYTE		        Cn2 
	BYTE	W11
	BYTE		        Cn4   v116
	BYTE	W01
	BYTE		        Cn2 
	BYTE	W11
	BYTE		        Cn4   v096
	BYTE	W01
	BYTE		        Cn2 
	BYTE	W11
	BYTE		        Cn4 
	BYTE	W01
	BYTE		        Cn2 
	BYTE	W11
	BYTE		        Cn4   v116
	BYTE	W01
	BYTE		        Cn2 
	BYTE	W09
// 015   ----------------------------------------
	BYTE	W02
	BYTE		        Cn4   v096
	BYTE	W01
	BYTE		        Cn2 
	BYTE	W11
	BYTE		        Cn4 
	BYTE	W01
	BYTE		N10     Cn2 
	BYTE	W11
	BYTE		PAN     c_v-64
	BYTE		N11     Cn2   v124
	BYTE	W12
	BYTE		N11   
	BYTE	W12
	BYTE		        Ds2 
	BYTE	W12
	BYTE		        Cn2 
	BYTE	W12
	BYTE		        Gn2 
	BYTE	W12
	BYTE		        Cn2 
	BYTE	W10
// 016   ----------------------------------------
	BYTE	W02
	BYTE		        As1 
	BYTE	W12
	BYTE		        Cn2 
	BYTE	W12
	BYTE		PAN     c_v+32
	BYTE		N11     Cn4   v096
	BYTE	W01
	BYTE		        Cn2 
	BYTE	W11
	BYTE		        Cn4 
	BYTE	W01
	BYTE		        Cn2 
	BYTE	W11
	BYTE		        Cn4   v108
	BYTE	W01
	BYTE		        Cn2 
	BYTE	W11
	BYTE		        Cn4   v096
	BYTE	W01
	BYTE		        Cn2 
	BYTE	W11
	BYTE		        Cn4 
	BYTE	W01
	BYTE		        Cn2 
	BYTE	W11
	BYTE		        Cn4   v116
	BYTE	W01
	BYTE		        Cn2 
	BYTE	W09
// 017   ----------------------------------------
WindOfLaGias_7_017:
	BYTE	W02
	BYTE		N11     Cn4   v096
	BYTE	W01
	BYTE		        Cn2 
	BYTE	W11
	BYTE		N05     Cn4 
	BYTE	W01
	BYTE		        Cn2 
	BYTE	W05
	BYTE		        Cn4 
	BYTE	W01
	BYTE		        Cn2 
	BYTE	W05
	BYTE		N11     Cn4   v108
	BYTE	W01
	BYTE		        Cn2 
	BYTE	W11
	BYTE		        Cn4   v096
	BYTE	W01
	BYTE		        Cn2 
	BYTE	W11
	BYTE		        Cn4 
	BYTE	W01
	BYTE		        Cn2 
	BYTE	W11
	BYTE		        Cn4   v108
	BYTE	W01
	BYTE		        Cn2 
	BYTE	W11
	BYTE		        Cn4   v096
	BYTE	W01
	BYTE		        Cn2 
	BYTE	W11
	BYTE		        Cn4 
	BYTE	W01
	BYTE		        Cn2 
	BYTE	W09
	BYTE	PEND
// 018   ----------------------------------------
WindOfLaGias_7_018:
	BYTE	W02
	BYTE		N11     Cn4   v108
	BYTE	W01
	BYTE		        Cn2 
	BYTE	W11
	BYTE		N05     Cn4   v096
	BYTE	W01
	BYTE		        Cn2 
	BYTE	W05
	BYTE		        Cn4 
	BYTE	W01
	BYTE		        Cn2 
	BYTE	W05
	BYTE		N11     Gs3 
	BYTE	W01
	BYTE		        Gs1 
	BYTE	W11
	BYTE		        Gs3 
	BYTE	W01
	BYTE		        Gs1 
	BYTE	W11
	BYTE		        Gs3   v108
	BYTE	W01
	BYTE		        Gs1 
	BYTE	W11
	BYTE		        Gs3   v096
	BYTE	W01
	BYTE		        Gs1 
	BYTE	W11
	BYTE		        Gs3 
	BYTE	W01
	BYTE		        Gs1 
	BYTE	W11
	BYTE		        Gs3   v116
	BYTE	W01
	BYTE		        Gs1 
	BYTE	W09
	BYTE	PEND
// 019   ----------------------------------------
	BYTE	W02
	BYTE		        Gs3   v096
	BYTE	W01
	BYTE		        Gs1 
	BYTE	W11
	BYTE		N05     Gs3 
	BYTE	W01
	BYTE		        Gs1 
	BYTE	W05
	BYTE		        Gs3 
	BYTE	W01
	BYTE		        Gs1 
	BYTE	W05
	BYTE		N11     Gs3   v116
	BYTE	W01
	BYTE		        Gs1 
	BYTE	W11
	BYTE		        Gs3   v096
	BYTE	W01
	BYTE		        Gs1 
	BYTE	W11
	BYTE		        Gs3 
	BYTE	W01
	BYTE		        Gs1 
	BYTE	W11
	BYTE		        Gs3   v116
	BYTE	W01
	BYTE		        Gs1 
	BYTE	W11
	BYTE		        Gs3   v096
	BYTE	W01
	BYTE		        Gs1 
	BYTE	W11
	BYTE		        Gs3 
	BYTE	W01
	BYTE		        Gs1 
	BYTE	W09
// 020   ----------------------------------------
	BYTE	W02
	BYTE		        Gs3   v116
	BYTE	W01
	BYTE		        Gs1 
	BYTE	W11
	BYTE		N05     Gs3   v096
	BYTE	W01
	BYTE		        Gs1 
	BYTE	W05
	BYTE		        Gs3 
	BYTE	W01
	BYTE		        Gs1 
	BYTE	W05
	BYTE		N11     As3 
	BYTE	W01
	BYTE		        As1 
	BYTE	W11
	BYTE		        As3 
	BYTE	W01
	BYTE		        As1 
	BYTE	W11
	BYTE		        As3   v108
	BYTE	W01
	BYTE		        As1 
	BYTE	W11
	BYTE		        As3   v096
	BYTE	W01
	BYTE		        As1 
	BYTE	W11
	BYTE		        As3 
	BYTE	W01
	BYTE		        As1 
	BYTE	W11
	BYTE		        As3   v116
	BYTE	W01
	BYTE		        As1 
	BYTE	W09
// 021   ----------------------------------------
WindOfLaGias_7_021:
	BYTE	W02
	BYTE		N11     As3   v096
	BYTE	W01
	BYTE		        As1 
	BYTE	W11
	BYTE		N05     As3 
	BYTE	W01
	BYTE		        As1 
	BYTE	W05
	BYTE		        As3 
	BYTE	W01
	BYTE		        As1 
	BYTE	W05
	BYTE		N11     As3   v116
	BYTE	W01
	BYTE		        As1 
	BYTE	W11
	BYTE		        As3   v096
	BYTE	W01
	BYTE		        As1 
	BYTE	W11
	BYTE		        As3 
	BYTE	W01
	BYTE		        As1 
	BYTE	W11
	BYTE		        As3   v116
	BYTE	W01
	BYTE		        As1 
	BYTE	W11
	BYTE		        As3   v096
	BYTE	W01
	BYTE		        As1 
	BYTE	W11
	BYTE		        As3 
	BYTE	W01
	BYTE		        As1 
	BYTE	W09
	BYTE	PEND
// 022   ----------------------------------------
WindOfLaGias_7_022:
	BYTE	W02
	BYTE		N11     As3   v116
	BYTE	W01
	BYTE		        As1 
	BYTE	W11
	BYTE		N05     As3   v096
	BYTE	W01
	BYTE		        As1 
	BYTE	W05
	BYTE		        As3 
	BYTE	W01
	BYTE		        As1 
	BYTE	W05
	BYTE		N11     Gn3 
	BYTE	W01
	BYTE		        Gn1 
	BYTE	W11
	BYTE		        Gn3 
	BYTE	W01
	BYTE		        Gn1 
	BYTE	W11
	BYTE		        Gn3   v108
	BYTE	W01
	BYTE		        Gn1 
	BYTE	W11
	BYTE		        Gn3   v096
	BYTE	W01
	BYTE		        Gn1 
	BYTE	W11
	BYTE		        Gn3 
	BYTE	W01
	BYTE		        Gn1 
	BYTE	W11
	BYTE		        Gn3   v116
	BYTE	W01
	BYTE		        Gn1 
	BYTE	W09
	BYTE	PEND
// 023   ----------------------------------------
	BYTE	W02
	BYTE		        Gn3   v096
	BYTE	W01
	BYTE		        Gn1 
	BYTE	W11
	BYTE		N05     Gn3 
	BYTE	W01
	BYTE		        Gn1 
	BYTE	W05
	BYTE		        Gn3 
	BYTE	W01
	BYTE		N04     Gn1 
	BYTE	W05
	BYTE		PAN     c_v-64
	BYTE		N11     Gn2   v124
	BYTE	W12
	BYTE		        Fn2 
	BYTE	W12
	BYTE		N01   
	BYTE	W12
	BYTE		N11     Dn2   v120
	BYTE	W12
	BYTE		N01   
	BYTE	W12
	BYTE		N11     Bn1 
	BYTE	W10
// 024   ----------------------------------------
	BYTE	W02
	BYTE		N22     Gn1   v124
	BYTE	W24
	BYTE		PAN     c_v+32
	BYTE		N11     Cn4   v096
	BYTE	W01
	BYTE		        Cn2 
	BYTE	W11
	BYTE		        Cn4 
	BYTE	W01
	BYTE		        Cn2 
	BYTE	W11
	BYTE		        Cn4   v108
	BYTE	W01
	BYTE		        Cn2 
	BYTE	W11
	BYTE		        Cn4   v096
	BYTE	W01
	BYTE		        Cn2 
	BYTE	W11
	BYTE		        Cn4 
	BYTE	W01
	BYTE		        Cn2 
	BYTE	W11
	BYTE		        Cn4   v116
	BYTE	W01
	BYTE		        Cn2 
	BYTE	W09
// 025   ----------------------------------------
	BYTE	PATT
	 POIN2	WindOfLaGias_7_017
// 026   ----------------------------------------
	BYTE	PATT
	 POIN2	WindOfLaGias_7_018
// 027   ----------------------------------------
	BYTE	W02
	BYTE		N11     Gs3   v096
	BYTE	W01
	BYTE		        Gs1 
	BYTE	W11
	BYTE		N05     Gs3 
	BYTE	W01
	BYTE		        Gs1 
	BYTE	W05
	BYTE		        Gs3 
	BYTE	W01
	BYTE		        Gs1 
	BYTE	W05
	BYTE		N11     Gs3   v108
	BYTE	W01
	BYTE		        Gs1 
	BYTE	W11
	BYTE		        Gs3   v096
	BYTE	W01
	BYTE		        Gs1 
	BYTE	W11
	BYTE		        Gs3 
	BYTE	W01
	BYTE		        Gs1 
	BYTE	W11
	BYTE		        Gs3   v108
	BYTE	W01
	BYTE		        Gs1 
	BYTE	W11
	BYTE		        Gs3   v096
	BYTE	W01
	BYTE		        Gs1 
	BYTE	W11
	BYTE		        Gs3 
	BYTE	W01
	BYTE		        Gs1 
	BYTE	W09
// 028   ----------------------------------------
	BYTE	W02
	BYTE		        Gs3   v108
	BYTE	W01
	BYTE		        Gs1 
	BYTE	W11
	BYTE		N05     Gs3   v096
	BYTE	W01
	BYTE		        Gs1 
	BYTE	W05
	BYTE		        Gs3 
	BYTE	W01
	BYTE		        Gs1 
	BYTE	W05
	BYTE		N11     As3 
	BYTE	W01
	BYTE		        As1 
	BYTE	W11
	BYTE		        As3 
	BYTE	W01
	BYTE		        As1 
	BYTE	W11
	BYTE		        As3   v108
	BYTE	W01
	BYTE		        As1 
	BYTE	W11
	BYTE		        As3   v096
	BYTE	W01
	BYTE		        As1 
	BYTE	W11
	BYTE		        As3 
	BYTE	W01
	BYTE		        As1 
	BYTE	W11
	BYTE		        As3   v116
	BYTE	W01
	BYTE		        As1 
	BYTE	W09
// 029   ----------------------------------------
	BYTE	PATT
	 POIN2	WindOfLaGias_7_021
// 030   ----------------------------------------
	BYTE	PATT
	 POIN2	WindOfLaGias_7_022
// 031   ----------------------------------------
	BYTE	W02
	BYTE		N11     Gn3   v096
	BYTE	W01
	BYTE		        Gn1 
	BYTE	W11
	BYTE		N05     Gn3 
	BYTE	W01
	BYTE		        Gn1 
	BYTE	W05
	BYTE		        Gn3 
	BYTE	W01
	BYTE		        Gn1 
	BYTE	W05
	BYTE		PAN     c_v-64
	BYTE		BEND    c_v+0
	BYTE		N11     Gn2   v124
	BYTE	W12
	BYTE		        Fn2 
	BYTE	W12
	BYTE		N01   
	BYTE	W12
	BYTE		N11     Dn2   v120
	BYTE	W12
	BYTE		N01   
	BYTE	W12
	BYTE		N11     Bn1 
	BYTE	W10
// 032   ----------------------------------------
	BYTE	W02
	BYTE		N22     Gn1   v124
	BYTE	W24
	BYTE		PAN     c_v+32
	BYTE	W48
	BYTE		N11     Cn2   v104
	BYTE	W01
	BYTE		        Cn4 
	BYTE	W11
	BYTE		        Dn2 
	BYTE	W01
	BYTE		        Dn4 
	BYTE	W09
// 033   ----------------------------------------
	BYTE	W02
	BYTE		        Ds2 
	BYTE	W01
	BYTE		        Ds4 
	BYTE	W11
	BYTE		        Cn2 
	BYTE	W01
	BYTE		        Cn4 
	BYTE	W11
	BYTE		BEND    c_v-64
	BYTE		N11     Gn1   v096
	BYTE	W01
	BYTE		        Gn3 
	BYTE	W11
	BYTE		        Gn1   v120
	BYTE	W01
	BYTE		        Gn3 
	BYTE	W11
	BYTE		BEND    c_v+0
	BYTE		N11     Gn1   v096
	BYTE	W01
	BYTE		        Gn3 
	BYTE	W11
	BYTE		        Gn1   v120
	BYTE	W01
	BYTE		        Gn3 
	BYTE	W11
	BYTE		        Gs1   v096
	BYTE	W01
	BYTE		        Gs3 
	BYTE	W11
	BYTE		        Gs1   v120
	BYTE	W01
	BYTE		        Gs3 
	BYTE	W09
// 034   ----------------------------------------
	BYTE	W02
	BYTE		BEND    c_v-64
	BYTE		N11     Gn1   v096
	BYTE	W01
	BYTE		        Gn3 
	BYTE	W11
	BYTE		        Gn1   v120
	BYTE	W01
	BYTE		        Gn3 
	BYTE	W11
	BYTE		BEND    c_v+0
	BYTE		N11     As1   v096
	BYTE	W01
	BYTE		        As3 
	BYTE	W11
	BYTE		        As1 
	BYTE	W01
	BYTE		        As3 
	BYTE	W11
	BYTE		        As1   v124
	BYTE	W01
	BYTE		        As3 
	BYTE	W11
	BYTE		        As1   v088
	BYTE	W01
	BYTE		        As3 
	BYTE	W11
	BYTE		        As1   v096
	BYTE	W01
	BYTE		        As3 
	BYTE	W11
	BYTE		        As1 
	BYTE	W01
	BYTE		        As3 
	BYTE	W09
// 035   ----------------------------------------
	BYTE	W02
	BYTE		        As1   v124
	BYTE	W01
	BYTE		        As3 
	BYTE	W11
	BYTE		        As1   v088
	BYTE	W01
	BYTE		        As3 
	BYTE	W11
	BYTE		        Ds1   v104
	BYTE	W01
	BYTE		        Ds3 
	BYTE	W11
	BYTE		        Ds1   v124
	BYTE	W01
	BYTE		        Ds3 
	BYTE	W11
	BYTE		N09     Ds1   v104
	BYTE	W01
	BYTE		        Ds3 
	BYTE	W11
	BYTE		BEND    c_v+32
	BYTE		N32     Ds1   v124
	BYTE	W01
	BYTE		        Ds3 
	BYTE	W32
	BYTE	W01
// 036   ----------------------------------------
	BYTE	W02
	BYTE		BEND    c_v+0
	BYTE		N11     En1   v104
	BYTE	W01
	BYTE		        En3 
	BYTE	W11
	BYTE		N05     En1   v108
	BYTE	W01
	BYTE		        En3 
	BYTE	W05
	BYTE		N04     En1   v104
	BYTE	W01
	BYTE		        En3 
	BYTE	W05
	BYTE		N11     Fn1   v096
	BYTE	W01
	BYTE		        Fn3 
	BYTE	W11
	BYTE		        Fn1 
	BYTE	W01
	BYTE		        Fn3 
	BYTE	W11
	BYTE		        Fn1   v120
	BYTE	W01
	BYTE		        Fn3 
	BYTE	W11
	BYTE		        Fn1   v088
	BYTE	W01
	BYTE		        Fn3 
	BYTE	W11
	BYTE		        Fn1   v096
	BYTE	W01
	BYTE		        Fn3 
	BYTE	W11
	BYTE		        Fn1 
	BYTE	W01
	BYTE		        Fn3 
	BYTE	W09
// 037   ----------------------------------------
	BYTE	W02
	BYTE		        Fn1   v120
	BYTE	W01
	BYTE		        Fn3 
	BYTE	W11
	BYTE		        Fn1   v088
	BYTE	W01
	BYTE		        Fn3 
	BYTE	W11
	BYTE		BEND    c_v+63
	BYTE		N11     Fn1   v096
	BYTE	W01
	BYTE		        Fn3 
	BYTE	W11
	BYTE		        Fn1 
	BYTE	W01
	BYTE		        Fn3 
	BYTE	W11
	BYTE		        Fn1   v120
	BYTE	W01
	BYTE		        Fn3 
	BYTE	W11
	BYTE		        Fn1   v088
	BYTE	W01
	BYTE		        Fn3 
	BYTE	W11
	BYTE		        Fn1   v096
	BYTE	W01
	BYTE		        Fn3 
	BYTE	W11
	BYTE		        Fn1 
	BYTE	W01
	BYTE		        Fn3 
	BYTE	W09
// 038   ----------------------------------------
	BYTE	W02
	BYTE		        Fn1   v120
	BYTE	W01
	BYTE		        Fn3 
	BYTE	W11
	BYTE		        Fn1   v088
	BYTE	W01
	BYTE		        Fn3 
	BYTE	W11
	BYTE		BEND    c_v-32
	BYTE		N11     An1   v080
	BYTE	W01
	BYTE		        An3 
	BYTE	W11
	BYTE		        An1 
	BYTE	W01
	BYTE		        An3 
	BYTE	W11
	BYTE		        An1   v120
	BYTE	W01
	BYTE		        An3 
	BYTE	W11
	BYTE		        An1   v080
	BYTE	W01
	BYTE		        An3 
	BYTE	W11
	BYTE		        An1 
	BYTE	W01
	BYTE		        An3 
	BYTE	W11
	BYTE		        An1 
	BYTE	W01
	BYTE		        An3 
	BYTE	W09
// 039   ----------------------------------------
	BYTE	W02
	BYTE		        An1   v120
	BYTE	W01
	BYTE		        An3 
	BYTE	W11
	BYTE		        An1   v080
	BYTE	W01
	BYTE		        An3 
	BYTE	W11
	BYTE		PAN     c_v+0
	BYTE		BEND    c_v+0
	BYTE		N11     As1   v088
	BYTE	W01
	BYTE		        As3 
	BYTE	W11
	BYTE		        As1 
	BYTE	W01
	BYTE		        As3 
	BYTE	W11
	BYTE		        As1   v108
	BYTE	W01
	BYTE		        As3 
	BYTE	W11
	BYTE		        As1   v088
	BYTE	W01
	BYTE		        As3 
	BYTE	W11
	BYTE		        As1 
	BYTE	W01
	BYTE		        As3 
	BYTE	W11
	BYTE		        As1 
	BYTE	W01
	BYTE		        As3 
	BYTE	W09
// 040   ----------------------------------------
	BYTE	W02
	BYTE		        As1   v108
	BYTE	W01
	BYTE		        As3 
	BYTE	W11
	BYTE		        As1   v088
	BYTE	W01
	BYTE		        As3 
	BYTE	W11
	BYTE		PAN     c_v+63
	BYTE		BEND    c_v+0
	BYTE	W01
	BYTE		N18     Cn4   v108
	BYTE	W23
	BYTE		PAN     c_v+0
	BYTE		N18     Cn2   v104
	BYTE	W01
	BYTE		        Cn4 
	BYTE	W23
	BYTE		PAN     c_v-64
	BYTE		N18     Cn2 
	BYTE	W22
// 041   ----------------------------------------
	BYTE	W02
	BYTE		PAN     c_v+63
	BYTE	W01
	BYTE		N18     Cn4 
	BYTE	W23
	BYTE		PAN     c_v+32
	BYTE		N11     Cn2   v080
	BYTE	W12
	BYTE		N11   
	BYTE	W12
	BYTE		N11   
	BYTE	W12
	BYTE		N11   
	BYTE	W12
	BYTE		N11   
	BYTE	W12
	BYTE		N11   
	BYTE	W10
// 042   ----------------------------------------
	BYTE	PATT
	 POIN2	WindOfLaGias_7_002
// 043   ----------------------------------------
	BYTE	PATT
	 POIN2	WindOfLaGias_7_003
// 044   ----------------------------------------
	BYTE	PATT
	 POIN2	WindOfLaGias_7_004
// 045   ----------------------------------------
	BYTE	PATT
	 POIN2	WindOfLaGias_7_005
// 046   ----------------------------------------
	BYTE	PATT
	 POIN2	WindOfLaGias_7_006
// 047   ----------------------------------------
	BYTE	W02
	BYTE		N11     Cn2   v104
	BYTE	W01
	BYTE		        Cn4 
	BYTE	W11
	BYTE		N09     Cn2   v072
	BYTE	W01
	BYTE		        Cn4 
	BYTE	W11
	BYTE		PAN     c_v-64
	BYTE		N11     Cn2   v124
	BYTE	W12
	BYTE		N11   
	BYTE	W12
	BYTE		        Ds2 
	BYTE	W12
	BYTE		        Cn2 
	BYTE	W12
	BYTE		        Gn2 
	BYTE	W12
	BYTE		        Cn2 
	BYTE	W10
// 048   ----------------------------------------
	BYTE	W02
	BYTE		        As1 
	BYTE	W11
	BYTE	GoTo
	 POIN2	WindOfLaGias_7_B1
WindOfLaGias_7_B2:
	BYTE	W01
	BYTE		N09     Cn2   v124
	BYTE	W11
	BYTE	FINE

//******************************************************//
	ALIGN 4

WindOfLaGias:
	BYTE	7	// NumTrks
	BYTE	0	// NumBlks
	BYTE	WindOfLaGias_pri	// Priority
	BYTE	WindOfLaGias_rev	// Reverb.

	POIN2	WindOfLaGias_grp

	POIN2	WindOfLaGias_1
	POIN2	WindOfLaGias_2
	POIN2	WindOfLaGias_3
	POIN2	WindOfLaGias_4
	POIN2	WindOfLaGias_5
	POIN2	WindOfLaGias_6
	POIN2	WindOfLaGias_7

	
